<?xml version="1.0" encoding="utf-8"?>
<!-- Generator: Adobe Illustrator 20.1.0, SVG Export Plug-In . SVG Version: 6.00 Build 0)  -->
<svg version="1.1" id="Layer_1" xmlns="http://www.w3.org/2000/svg" xmlns:xlink="http://www.w3.org/1999/xlink" x="0px" y="0px"
	 viewBox="0 0 640 418" style="enable-background:new 0 0 640 418;" xml:space="preserve">
<style type="text/css">
	.st0{opacity:0.5;fill:#A9D7F3;enable-background:new    ;}
	.st1{fill:#E7F1F8;}
	.st2{fill:#A1C2D8;}
	.st3{fill:#3AA1D6;}
	.st4{fill:#FFFFFF;}
	.st5{fill:#164A67;}
	.st6{fill:#D0E4F0;}
	.st7{fill:#40565B;}
	.st8{fill:#F36F42;}
	.st9{fill:#C84A27;}
	.st10{fill:#576A6D;}
	.st11{fill:#985BCD;}
	.st12{fill:#3F555A;}
	.st13{fill:#923A95;}
	.st14{fill:#29B99A;}
	.st15{fill:#0F716F;}
</style>
<g>
	<path class="st0" d="M514.6,191.2c0,0,131.5-1.1,117.3-85.5c-8.2-48.9-92.7-48.3-92.7-48.3l-467.7,0c0,0-58-0.6-63.6,48.3
		c-9.7,84.5,80.5,85.5,80.5,85.5s18-7.6,16.1,23.6c-1.9,31.1-16.1,22.9-16.1,22.9s-62.7-14-54.8,50.4c7.9,64.4,92.3,18.7,109.7,32.8
		c8.9,7.2,12.9,19.2,14.7,29c-2.9,4.5-4.3,10.3-3.3,17.7c2.9,22,40.5,24.8,40.5,24.8l207.9,17c0,0,25.7,2.4,29-19.2
		c3.2-21.4-8.7-31.7-19.4-36.6c2-10.4,7.5-24.6,22.2-32.8c25.4-14,148.4,31.6,159.9-32.8c11.5-64.4-79.9-50.4-79.9-50.4
		s-20.8,8.2-23.5-22.9C488.4,183.6,514.6,191.2,514.6,191.2z"/>
	<g>
		<rect x="89" y="186.7" class="st1" width="385.6" height="29.8"/>
		<path class="st2" d="M399.4,216.9H88.1c-0.2,0-0.4-0.2-0.4-0.4v-29.8c0-0.2,0.2-0.4,0.4-0.4h311.3c0.2,0,0.4,0.2,0.4,0.4v29.8
			C399.8,216.7,399.7,216.9,399.4,216.9z M88.5,216.1H399v-29H88.5V216.1z"/>
		<rect x="279.5" y="186.7" class="st3" width="195" height="29.8"/>
		<g>
			<g>
				<path class="st2" d="M172.9,205.7v-1.9l3.1-3.2c0.6-0.6,1-1.1,1-1.7c0-0.6-0.3-1.1-0.9-1.1c-0.6,0-0.9,0.4-0.9,1.2v0.1h-2.2V199
					c0-2,1.2-3.3,3.2-3.3c1.9,0,3.2,1.4,3.2,3.2c0,1.2-0.6,2-1.5,3l-1.8,1.8v0h3.2v2H172.9z"/>
				<path class="st2" d="M187.3,202.4c0,2.1-1.4,3.5-3.5,3.5c-2.1,0-3.5-1.4-3.5-3.5v-3.1c0-2.1,1.4-3.5,3.5-3.5
					c2.1,0,3.5,1.4,3.5,3.5V202.4z M185.1,199.2c0-0.9-0.4-1.4-1.3-1.4c-0.8,0-1.3,0.5-1.3,1.4v3.1c0,0.9,0.4,1.4,1.3,1.4
					c0.8,0,1.3-0.5,1.3-1.4V199.2z"/>
				<path class="st2" d="M188,198.1c0-1.3,1.1-2.4,2.4-2.4s2.4,1.1,2.4,2.4c0,1.3-1.1,2.4-2.4,2.4S188,199.4,188,198.1z
					 M189.1,205.7l5.9-9.8h1.6l-5.9,9.8H189.1z M191.3,198.1c0-0.5-0.4-0.9-0.9-0.9c-0.5,0-0.9,0.4-0.9,0.9c0,0.5,0.4,0.9,0.9,0.9
					C190.9,199,191.3,198.6,191.3,198.1z M192.9,203.5c0-1.3,1.1-2.4,2.4-2.4s2.4,1.1,2.4,2.4c0,1.3-1.1,2.4-2.4,2.4
					S192.9,204.8,192.9,203.5z M196.2,203.5c0-0.5-0.4-0.9-0.9-0.9s-0.9,0.4-0.9,0.9c0,0.5,0.4,0.9,0.9,0.9S196.2,204,196.2,203.5z"
					/>
			</g>
		</g>
		<g>
			<path class="st4" d="M297.9,205.3v-2.5h-2.5v-1.9h2.5v-2.5h1.9v2.5h2.5v1.9h-2.5v2.5H297.9z"/>
			<path class="st4" d="M307.5,205.7v-1.9h-4v-1.9l4-5.9h2.2v5.9h0.8v2h-0.8v1.9H307.5z M307.6,199l-1.8,2.7v0h1.8L307.6,199
				L307.6,199z"/>
			<path class="st4" d="M318.3,202.4c0,2.1-1.4,3.5-3.5,3.5c-2.1,0-3.5-1.4-3.5-3.5v-3.1c0-2.1,1.4-3.5,3.5-3.5
				c2.1,0,3.5,1.4,3.5,3.5V202.4z M316,199.2c0-0.9-0.4-1.4-1.3-1.4c-0.8,0-1.3,0.5-1.3,1.4v3.1c0,0.9,0.4,1.4,1.3,1.4
				c0.8,0,1.3-0.5,1.3-1.4V199.2z"/>
			<path class="st4" d="M319,198.1c0-1.3,1.1-2.4,2.4-2.4s2.4,1.1,2.4,2.4c0,1.3-1.1,2.4-2.4,2.4S319,199.4,319,198.1z M320,205.7
				l5.9-9.8h1.6l-5.9,9.8H320z M322.3,198.1c0-0.5-0.4-0.9-0.9-0.9s-0.9,0.4-0.9,0.9c0,0.5,0.4,0.9,0.9,0.9S322.3,198.6,322.3,198.1
				z M323.8,203.5c0-1.3,1.1-2.4,2.4-2.4c1.3,0,2.4,1.1,2.4,2.4c0,1.3-1.1,2.4-2.4,2.4C324.9,205.9,323.8,204.8,323.8,203.5z
				 M327.1,203.5c0-0.5-0.4-0.9-0.9-0.9c-0.5,0-0.9,0.4-0.9,0.9c0,0.5,0.4,0.9,0.9,0.9C326.7,204.4,327.1,204,327.1,203.5z"/>
		</g>
		<g>
			<path class="st5" d="M279.5,170.7c-0.2,0-0.4-0.2-0.4-0.4v-4.9c0-0.2,0.2-0.4,0.4-0.4s0.4,0.2,0.4,0.4v4.9
				C280,170.5,279.8,170.7,279.5,170.7z"/>
			<path class="st5" d="M279.5,203.7c-0.2,0-0.4-0.2-0.4-0.4v-8.3c0-0.2,0.2-0.4,0.4-0.4s0.4,0.2,0.4,0.4v8.3
				C280,203.6,279.8,203.7,279.5,203.7z M279.5,187.2c-0.2,0-0.4-0.2-0.4-0.4v-8.3c0-0.2,0.2-0.4,0.4-0.4s0.4,0.2,0.4,0.4v8.3
				C280,187,279.8,187.2,279.5,187.2z"/>
			<path class="st5" d="M279.5,216.9c-0.2,0-0.4-0.2-0.4-0.4v-4.9c0-0.2,0.2-0.4,0.4-0.4s0.4,0.2,0.4,0.4v4.9
				C280,216.7,279.8,216.9,279.5,216.9z"/>
		</g>
		<g>
			<path class="st2" d="M163.3,170.7c-0.2,0-0.4-0.2-0.4-0.4v-4.9c0-0.2,0.2-0.4,0.4-0.4c0.2,0,0.4,0.2,0.4,0.4v4.9
				C163.7,170.5,163.5,170.7,163.3,170.7z"/>
			<path class="st2" d="M163.3,203.7c-0.2,0-0.4-0.2-0.4-0.4v-8.3c0-0.2,0.2-0.4,0.4-0.4c0.2,0,0.4,0.2,0.4,0.4v8.3
				C163.7,203.6,163.5,203.7,163.3,203.7z M163.3,187.2c-0.2,0-0.4-0.2-0.4-0.4v-8.3c0-0.2,0.2-0.4,0.4-0.4c0.2,0,0.4,0.2,0.4,0.4
				v8.3C163.7,187,163.5,187.2,163.3,187.2z"/>
			<path class="st2" d="M163.3,216.9c-0.2,0-0.4-0.2-0.4-0.4v-4.9c0-0.2,0.2-0.4,0.4-0.4c0.2,0,0.4,0.2,0.4,0.4v4.9
				C163.7,216.7,163.5,216.9,163.3,216.9z"/>
		</g>
		<path class="st5" d="M474.6,216.9h-195c-0.2,0-0.4-0.2-0.4-0.4v-29.8c0-0.2,0.2-0.4,0.4-0.4h195c0.2,0,0.4,0.2,0.4,0.4
			s-0.2,0.4-0.4,0.4H280v29h194.6c0.2,0,0.4,0.2,0.4,0.4C475,216.7,474.8,216.9,474.6,216.9z"/>
		<g>
			<path class="st2" d="M163.6,155.6v-1.9l3.1-3.2c0.6-0.6,1-1.1,1-1.7c0-0.6-0.3-1.1-0.9-1.1c-0.6,0-0.9,0.4-0.9,1.2v0.1h-2.2v-0.1
				c0-2,1.2-3.3,3.2-3.3c1.9,0,3.2,1.4,3.2,3.2c0,1.2-0.6,2-1.5,3l-1.8,1.8v0h3.2v2H163.6z"/>
			<path class="st2" d="M178.1,152.3c0,2.1-1.4,3.5-3.5,3.5c-2.1,0-3.5-1.4-3.5-3.5v-3.1c0-2.1,1.4-3.5,3.5-3.5
				c2.1,0,3.5,1.4,3.5,3.5V152.3z M175.8,149.2c0-0.9-0.4-1.4-1.3-1.4c-0.8,0-1.3,0.5-1.3,1.4v3.1c0,0.9,0.4,1.4,1.3,1.4
				c0.8,0,1.3-0.5,1.3-1.4V149.2z"/>
			<path class="st2" d="M181.9,155.6v-7.8h-1.7v-2h4v9.8H181.9z"/>
			<path class="st2" d="M189.7,155.6h-2.4l3.7-7.7v0h-4v-2h6.4v1.9L189.7,155.6z"/>
		</g>
		<g>
			<path class="st5" d="M279.9,155.6v-1.9l3.1-3.2c0.6-0.6,1-1.1,1-1.7c0-0.6-0.3-1.1-0.9-1.1c-0.6,0-0.9,0.4-0.9,1.2v0.1h-2.2v-0.1
				c0-2,1.2-3.3,3.2-3.3c1.9,0,3.2,1.4,3.2,3.2c0,1.2-0.6,2-1.5,3l-1.8,1.8v0h3.2v2H279.9z"/>
			<path class="st5" d="M294.3,152.3c0,2.1-1.4,3.5-3.5,3.5c-2.1,0-3.5-1.4-3.5-3.5v-3.1c0-2.1,1.4-3.5,3.5-3.5
				c2.1,0,3.5,1.4,3.5,3.5V152.3z M292.1,149.2c0-0.9-0.4-1.4-1.3-1.4c-0.8,0-1.3,0.5-1.3,1.4v3.1c0,0.9,0.4,1.4,1.3,1.4
				c0.8,0,1.3-0.5,1.3-1.4V149.2z"/>
			<path class="st5" d="M298.2,155.6v-7.8h-1.7v-2h4v9.8H298.2z"/>
			<path class="st5" d="M306.4,155.8c-2.1,0-3.5-1.2-3.5-3c0-1.1,0.6-1.9,1.5-2.3v0c-0.8-0.4-1.2-1.1-1.2-2.1c0-1.6,1.2-2.7,3.2-2.7
				c1.9,0,3.2,1.1,3.2,2.7c0,1-0.4,1.7-1.2,2.1v0c1,0.4,1.5,1.2,1.5,2.3C310,154.6,308.5,155.8,306.4,155.8z M306.4,151.4
				c-0.8,0-1.3,0.4-1.3,1.2c0,0.8,0.4,1.2,1.3,1.2s1.3-0.4,1.3-1.2C307.7,151.8,307.3,151.4,306.4,151.4z M306.4,147.7
				c-0.6,0-1,0.4-1,0.9c0,0.5,0.3,0.9,1,0.9s1-0.4,1-0.9C307.4,148.1,307.1,147.7,306.4,147.7z"/>
		</g>
		<g>
			<g>
				<g>
					<polyline class="st6" points="135.6,191.5 146.4,192.1 146.5,193.1 135.5,192.5 					"/>
					<path class="st7" d="M146.5,193.5C146.5,193.5,146.5,193.5,146.5,193.5l-10.7-0.5c-0.1,0-0.2,0-0.3-0.1
						c-0.3-0.2-0.4-0.6-0.3-0.9c0.1-0.3,0.3-0.6,0.6-0.7c0.1,0,0.1,0,0.2,0l10.5,0.5c0.2,0,0.4,0.2,0.4,0.4l0.1,1
						c0,0.1,0,0.2-0.1,0.3C146.7,193.4,146.6,193.5,146.5,193.5z M136,192.1l10.1,0.5l0-0.2l-10-0.5c0,0,0,0,0,0.1
						C136,192.1,136,192.1,136,192.1z"/>
				</g>
				
					<ellipse transform="matrix(0.1119 -0.9937 0.9937 0.1119 -59.3293 318.4124)" class="st8" cx="148.5" cy="192.4" rx="2.7" ry="2.7"/>
				<path class="st9" d="M148.5,195.5c-0.3,0-0.6,0-0.8-0.1c-1.6-0.5-2.6-2.2-2.1-3.8c0.5-1.6,2.2-2.6,3.8-2.1
					c1.6,0.5,2.6,2.2,2.1,3.8c-0.2,0.8-0.7,1.4-1.5,1.8C149.5,195.3,149,195.5,148.5,195.5z M148.5,190.2c-1,0-1.9,0.6-2.2,1.6l0,0
					c-0.3,1.2,0.4,2.4,1.5,2.8c0.6,0.2,1.2,0.1,1.7-0.2c0.5-0.3,0.9-0.8,1.1-1.3c0.2-0.6,0.1-1.2-0.2-1.7c-0.3-0.5-0.8-0.9-1.3-1.1
					C148.9,190.2,148.7,190.2,148.5,190.2z M145.9,191.7L145.9,191.7L145.9,191.7z"/>
			</g>
			<g>
				<g>
					<polyline class="st6" points="78.1,191.5 67.3,192.1 67.2,193.1 78.2,192.5 					"/>
					<path class="st7" d="M67.2,193.5c-0.1,0-0.2,0-0.3-0.1c-0.1-0.1-0.1-0.2-0.1-0.3l0.1-1c0-0.2,0.2-0.4,0.4-0.4l10.5-0.5
						c0.1,0,0.1,0,0.2,0c0.3,0.1,0.5,0.4,0.6,0.7c0.1,0.3-0.1,0.7-0.3,0.9c-0.1,0.1-0.2,0.1-0.3,0.1L67.2,193.5
						C67.2,193.5,67.2,193.5,67.2,193.5z M67.7,192.5l0,0.2l10.1-0.5c0,0,0-0.1,0-0.1c0,0,0,0,0-0.1L67.7,192.5z"/>
				</g>
				
					<ellipse transform="matrix(0.9937 -0.1119 0.1119 0.9937 -21.1146 8.5069)" class="st8" cx="65.2" cy="192.4" rx="2.7" ry="2.7"/>
				<path class="st9" d="M65.2,195.5c-1.3,0-2.6-0.9-2.9-2.2c-0.5-1.6,0.5-3.3,2.1-3.8c1.6-0.5,3.3,0.5,3.8,2.1l0,0
					c0.5,1.6-0.5,3.3-2.1,3.8C65.8,195.4,65.5,195.5,65.2,195.5z M65.2,190.2c-0.2,0-0.4,0-0.6,0.1c-1.2,0.3-1.9,1.6-1.5,2.8
					c0.2,0.6,0.5,1.1,1.1,1.3c0.5,0.3,1.1,0.4,1.7,0.2c1.2-0.3,1.9-1.6,1.5-2.8l0,0c-0.2-0.6-0.5-1.1-1.1-1.3
					C66,190.2,65.6,190.2,65.2,190.2z"/>
			</g>
			<g>
				<g>
					<path class="st4" d="M71.9,171.9l7.5,70.3c0.4,4.2,3.9,7.4,8.1,7.4h19.7h19.7c4.2,0,7.7-3.2,8.1-7.4l7.5-70.3
						c0.4-4.8-3.3-8.9-8.1-8.9H79.9C75.2,163,71.4,167.1,71.9,171.9z"/>
					<path class="st1" d="M134.3,163H79.9c-4.8,0-8.5,4.1-8.1,8.9l7.5,70.3c0.4,4.2,3.9,7.4,8.1,7.4h19.7h19.7
						c4.2,0,7.7-3.2,8.1-7.4l7.5-70.3C142.8,167.1,139.1,163,134.3,163z M139.4,174.7l-6.9,64.4c-0.3,3.8-3.6,6.8-7.4,6.8h-18h-18
						c-3.9,0-7.1-2.9-7.4-6.8l-6.9-64.4c-0.4-4.4,3-8.1,7.4-8.1H132C136.4,166.6,139.8,170.4,139.4,174.7z"/>
					<path class="st7" d="M126.8,250H87.4c-4.5,0-8.1-3.3-8.5-7.8l-7.5-70.3c0,0,0,0,0,0c-0.2-2.4,0.6-4.8,2.2-6.5
						c1.6-1.8,3.9-2.8,6.3-2.8h54.3c2.4,0,4.7,1,6.3,2.8c1.6,1.8,2.4,4.1,2.2,6.5l-7.5,70.3C134.9,246.7,131.2,250,126.8,250z
						 M72.3,171.8l7.5,70.3c0.4,4,3.7,7,7.7,7h39.4c4,0,7.3-3,7.7-7l7.5-70.3c0.2-2.1-0.5-4.3-2-5.9c-1.5-1.6-3.5-2.5-5.7-2.5H79.9
						c-2.2,0-4.2,0.9-5.7,2.5C72.8,167.5,72.1,169.7,72.3,171.8z"/>
					<ellipse class="st7" cx="91.2" cy="198.2" rx="2.6" ry="6.8"/>
					<ellipse class="st7" cx="123" cy="198.2" rx="2.6" ry="6.8"/>
					<polygon class="st10" points="93.8,214.1 121,214.1 125.6,223.9 118.5,221.8 114.5,223.9 107.1,220.9 101.9,224.1 96.4,220.9 
						88.6,224.1 					"/>
					<path class="st7" d="M101.9,224.5c-0.1,0-0.1,0-0.2-0.1l-5.4-3.1l-7.5,3.2c-0.2,0.1-0.3,0-0.5-0.1c-0.1-0.1-0.1-0.3-0.1-0.5
						l5.2-10c0.1-0.1,0.2-0.2,0.4-0.2H121c0.2,0,0.3,0.1,0.4,0.2l4.6,9.8c0.1,0.1,0,0.3-0.1,0.4c-0.1,0.1-0.3,0.2-0.4,0.1l-6.9-2.1
						l-3.8,2.1c-0.1,0.1-0.2,0.1-0.4,0l-7.2-3l-5,3.1C102.1,224.5,102,224.5,101.9,224.5z M96.4,220.4c0.1,0,0.1,0,0.2,0.1l5.4,3.1
						l5-3.1c0.1-0.1,0.3-0.1,0.4,0l7.2,3l3.8-2.1c0.1-0.1,0.2-0.1,0.3,0l6.2,1.9l-4.1-8.7H94.1l-4.5,8.7l6.7-2.8
						C96.3,220.5,96.3,220.4,96.4,220.4z"/>
					<path class="st7" d="M83.4,188.2c-0.1,0-0.1,0-0.2-0.1c-0.2-0.1-0.3-0.4-0.1-0.6c0,0,2.7-4.4,7.7-3.8c0.2,0,0.4,0.2,0.4,0.5
						c0,0.2-0.2,0.4-0.5,0.4c-4.5-0.5-6.8,3.4-6.9,3.4C83.7,188.1,83.6,188.2,83.4,188.2z"/>
					<path class="st7" d="M130.3,188.2c-0.1,0-0.3-0.1-0.4-0.2c-0.1-0.2-2.4-3.9-6.9-3.4c-0.2,0-0.4-0.1-0.5-0.4
						c0-0.2,0.1-0.4,0.4-0.5c5-0.5,7.6,3.8,7.7,3.8c0.1,0.2,0.1,0.4-0.1,0.6C130.4,188.2,130.3,188.2,130.3,188.2z"/>
					<g>
						<polygon class="st8" points="107.1,206.1 108.9,208.1 110.8,210.1 107.1,210.1 103.5,210.1 105.3,208.1 						"/>
						<path class="st9" d="M110.8,210.6h-7.3c-0.2,0-0.3-0.1-0.4-0.2c-0.1-0.1,0-0.3,0.1-0.4l3.6-4.1c0.2-0.2,0.5-0.2,0.6,0l3.6,4.1
							c0.1,0.1,0.1,0.3,0.1,0.4C111.1,210.5,110.9,210.6,110.8,210.6z M104.4,209.7h5.4l-2.7-3.1L104.4,209.7z"/>
					</g>
					<path class="st7" d="M107.5,229.8c-6,0-9.8-3.1-9.9-3.2c-0.2-0.1-0.2-0.4-0.1-0.6c0.1-0.2,0.4-0.2,0.6-0.1c0,0,2.1,1.7,5.5,2.5
						c3.1,0.8,8.1,0.9,13.8-2.6c0.2-0.1,0.4-0.1,0.6,0.1c0.1,0.2,0.1,0.4-0.1,0.6C114,229,110.5,229.8,107.5,229.8z"/>
				</g>
			</g>
		</g>
	</g>
	<g>
		<rect x="167.6" y="321" class="st1" width="442.8" height="29.8"/>
		<path class="st2" d="M478.1,351.2H166.8c-0.2,0-0.4-0.2-0.4-0.4V321c0-0.2,0.2-0.4,0.4-0.4h311.3c0.2,0,0.4,0.2,0.4,0.4v29.8
			C478.5,351.1,478.3,351.2,478.1,351.2z M167.2,350.4h310.5v-29H167.2V350.4z"/>
		<rect x="385.4" y="321" class="st11" width="225" height="29.8"/>
		<g>
			<path class="st12" d="M253.2,335.8v-1.9h1.1c0.9,0,1.1-0.4,1.1-0.9c0-0.5-0.3-0.9-0.9-0.9c-0.5,0-0.8,0.3-0.9,0.9h-2.2
				c0-2,1.3-3,3.1-3c1.9,0,3.1,1.1,3.1,2.7c0,1-0.4,1.7-1.1,2.1v0c0.9,0.4,1.4,1.2,1.4,2.3c0,1.9-1.4,3-3.4,3c-2,0-3.4-1.1-3.4-3.2
				h2.2c0,0.7,0.4,1.1,1.2,1.1s1.2-0.4,1.2-1.1c0-0.7-0.4-1.2-1.4-1.2H253.2z"/>
			<path class="st12" d="M266,336.7c0,2.1-1.4,3.5-3.5,3.5c-2.1,0-3.5-1.4-3.5-3.5v-3.1c0-2.1,1.4-3.5,3.5-3.5
				c2.1,0,3.5,1.4,3.5,3.5V336.7z M263.7,333.6c0-0.9-0.4-1.4-1.3-1.4c-0.8,0-1.3,0.5-1.3,1.4v3.1c0,0.9,0.4,1.4,1.3,1.4
				c0.8,0,1.3-0.5,1.3-1.4V333.6z"/>
			<path class="st12" d="M266.7,332.4c0-1.3,1.1-2.4,2.4-2.4s2.4,1.1,2.4,2.4c0,1.3-1.1,2.4-2.4,2.4S266.7,333.7,266.7,332.4z
				 M267.7,340l5.9-9.8h1.6l-5.9,9.8H267.7z M270,332.4c0-0.5-0.4-0.9-0.9-0.9c-0.5,0-0.9,0.4-0.9,0.9c0,0.5,0.4,0.9,0.9,0.9
				C269.6,333.3,270,332.9,270,332.4z M271.5,337.8c0-1.3,1.1-2.4,2.4-2.4s2.4,1.1,2.4,2.4c0,1.3-1.1,2.4-2.4,2.4
				S271.5,339.1,271.5,337.8z M274.8,337.8c0-0.5-0.4-0.9-0.9-0.9s-0.9,0.4-0.9,0.9c0,0.5,0.4,0.9,0.9,0.9S274.8,338.3,274.8,337.8z
				"/>
		</g>
		<g>
			<path class="st4" d="M401.4,339.6v-2.5h-2.5v-1.9h2.5v-2.5h1.9v2.5h2.5v1.9h-2.5v2.5H401.4z"/>
			<path class="st4" d="M414.1,336.8c0,2-1.4,3.5-3.5,3.5s-3.5-1.4-3.5-3.5v-0.1c0-1,0.3-1.8,0.9-2.8l2.1-3.6h2.5l-2,3.2v0
				c0.2-0.1,0.5-0.2,0.7-0.2c1.7,0,2.8,1.6,2.8,3.2V336.8z M411.8,336.6c0-0.8-0.4-1.4-1.2-1.4s-1.2,0.6-1.2,1.4v0.2
				c0,0.8,0.4,1.4,1.2,1.4s1.2-0.6,1.2-1.4V336.6z"/>
			<path class="st4" d="M421.8,336.7c0,2.1-1.4,3.5-3.5,3.5c-2.1,0-3.5-1.4-3.5-3.5v-3.1c0-2.1,1.4-3.5,3.5-3.5
				c2.1,0,3.5,1.4,3.5,3.5V336.7z M419.6,333.6c0-0.9-0.4-1.4-1.3-1.4c-0.8,0-1.3,0.5-1.3,1.4v3.1c0,0.9,0.4,1.4,1.3,1.4
				c0.8,0,1.3-0.5,1.3-1.4V333.6z"/>
			<path class="st4" d="M422.6,332.4c0-1.3,1.1-2.4,2.4-2.4c1.3,0,2.4,1.1,2.4,2.4c0,1.3-1.1,2.4-2.4,2.4
				C423.6,334.8,422.6,333.7,422.6,332.4z M423.6,340l5.9-9.8h1.6l-5.9,9.8H423.6z M425.9,332.4c0-0.5-0.4-0.9-0.9-0.9
				c-0.5,0-0.9,0.4-0.9,0.9c0,0.5,0.4,0.9,0.9,0.9C425.5,333.3,425.9,332.9,425.9,332.4z M427.4,337.8c0-1.3,1.1-2.4,2.4-2.4
				s2.4,1.1,2.4,2.4c0,1.3-1.1,2.4-2.4,2.4S427.4,339.1,427.4,337.8z M430.7,337.8c0-0.5-0.4-0.9-0.9-0.9s-0.9,0.4-0.9,0.9
				c0,0.5,0.4,0.9,0.9,0.9S430.7,338.3,430.7,337.8z"/>
		</g>
		<g>
			<rect x="385" y="299.7" class="st13" width="0.8" height="4.9"/>
			<path class="st13" d="M385.8,337.7H385v-8.3h0.8V337.7z M385.8,321.1H385v-8.3h0.8V321.1z"/>
			<rect x="385" y="345.9" class="st13" width="0.8" height="4.9"/>
		</g>
		<g>
			<path class="st2" d="M242,305c-0.2,0-0.4-0.2-0.4-0.4v-4.9c0-0.2,0.2-0.4,0.4-0.4c0.2,0,0.4,0.2,0.4,0.4v4.9
				C242.4,304.9,242.2,305,242,305z"/>
			<path class="st2" d="M242,338.1c-0.2,0-0.4-0.2-0.4-0.4v-8.3c0-0.2,0.2-0.4,0.4-0.4c0.2,0,0.4,0.2,0.4,0.4v8.3
				C242.4,337.9,242.2,338.1,242,338.1z M242,321.6c-0.2,0-0.4-0.2-0.4-0.4v-8.3c0-0.2,0.2-0.4,0.4-0.4c0.2,0,0.4,0.2,0.4,0.4v8.3
				C242.4,321.4,242.2,321.6,242,321.6z"/>
			<path class="st2" d="M242,351.2c-0.2,0-0.4-0.2-0.4-0.4v-4.9c0-0.2,0.2-0.4,0.4-0.4c0.2,0,0.4,0.2,0.4,0.4v4.9
				C242.4,351.1,242.2,351.2,242,351.2z"/>
		</g>
		<polygon class="st13" points="610.4,351.2 385,351.2 385,320.6 610.4,320.6 610.4,321.4 385.8,321.4 385.8,350.4 610.4,350.4 		
			"/>
		<g>
			<path class="st6" d="M176.8,385.5l35.1-2.7l-12-61c-1.3-6.4-6.8-10.9-13.3-10.9h-38.4c-6.6,0-12.2,4.7-13.4,11.2l-10.8,60.8
				l34.5,2.6"/>
			<path class="st2" d="M174.7,385.9l26.7-2.3l-9.7-36c-0.9-4.7-5-8.1-9.8-8.1h-28.4c-4.9,0-9,3.5-9.9,8.3l-7.8,35.9l25.3,2.2"/>
			<path class="st12" d="M176.8,385.9c-0.2,0-0.4-0.2-0.4-0.4c0-0.2,0.2-0.4,0.4-0.4l34.6-2.7l-11.9-60.6
				c-1.2-6.1-6.6-10.6-12.9-10.6h-38.4c-6.4,0-11.8,4.6-13,10.9l-10.7,60.3l34.1,2.6c0.2,0,0.4,0.2,0.4,0.4c0,0.2-0.2,0.4-0.4,0.4
				l-34.5-2.6c-0.1,0-0.2-0.1-0.3-0.2c-0.1-0.1-0.1-0.2-0.1-0.3l10.8-60.8c1.2-6.7,7-11.5,13.8-11.5h38.4c6.7,0,12.4,4.7,13.7,11.3
				l12,61c0,0.1,0,0.2-0.1,0.3c-0.1,0.1-0.2,0.2-0.3,0.2L176.8,385.9C176.8,385.9,176.8,385.9,176.8,385.9z"/>
			<g>
				<path d="M140.2,354.2C140.2,354.2,140.2,354.2,140.2,354.2l-12-0.7c-0.2,0-0.4-0.2-0.4-0.4c0-0.2,0.2-0.4,0.4-0.4l11.9,0.7
					c0.2,0,0.4,0.2,0.4,0.4C140.6,354,140.4,354.2,140.2,354.2z"/>
				<path d="M125,356.2c-2,0-3.6-1.6-3.6-3.6s1.6-3.6,3.6-3.6c2,0,3.6,1.6,3.6,3.6S127,356.2,125,356.2z M125,349.8
					c-1.5,0-2.8,1.3-2.8,2.8c0,1.5,1.3,2.8,2.8,2.8c1.5,0,2.8-1.3,2.8-2.8C127.8,351,126.5,349.8,125,349.8z"/>
				<g>
					<polyline class="st6" points="191.9,353.4 206.3,352.5 206.3,353.9 191.9,354.8 					"/>
					<path class="st7" d="M191.9,355.2c-0.2,0-0.4-0.2-0.4-0.4c0-0.2,0.2-0.4,0.4-0.4l15.1-0.9l-0.1-0.6l-14.9,0.9
						c-0.2,0-0.4-0.2-0.4-0.4c0-0.2,0.2-0.4,0.4-0.4l15.2-0.9c0.2,0,0.4,0.1,0.4,0.3l0.3,1.4c0,0.1,0,0.2-0.1,0.3
						c-0.1,0.1-0.2,0.2-0.3,0.2L191.9,355.2C192,355.2,191.9,355.2,191.9,355.2z"/>
				</g>
				<g>
					<polyline class="st6" points="143,353.3 128.7,352.5 128.7,353.9 143,354.8 					"/>
					<path class="st7" d="M143,355.2C143,355.2,143,355.2,143,355.2l-15.6-1c-0.1,0-0.2-0.1-0.3-0.2c-0.1-0.1-0.1-0.2-0.1-0.3
						l0.3-1.4c0-0.2,0.2-0.3,0.4-0.3l15.3,0.9c0.2,0,0.4,0.2,0.4,0.4c0,0.2-0.2,0.4-0.4,0.4l-14.9-0.9l-0.1,0.6l15.1,0.9
						c0.2,0,0.4,0.2,0.4,0.4C143.4,355,143.2,355.2,143,355.2z"/>
				</g>
				<circle class="st8" cx="210.2" cy="352.6" r="3.8"/>
				<circle class="st8" cx="124.8" cy="352.6" r="3.8"/>
				<path class="st9" d="M124.8,356.8c-2.3,0-4.3-1.9-4.3-4.3c0-2.3,1.9-4.3,4.3-4.3s4.3,1.9,4.3,4.3
					C129,354.9,127.1,356.8,124.8,356.8z M124.8,349.1c-1.9,0-3.4,1.5-3.4,3.4s1.5,3.4,3.4,3.4c1.9,0,3.4-1.5,3.4-3.4
					S126.7,349.1,124.8,349.1z"/>
				<path class="st9" d="M210.2,356.8c-2.3,0-4.3-1.9-4.3-4.3c0-2.3,1.9-4.3,4.3-4.3c2.3,0,4.3,1.9,4.3,4.3
					C214.4,354.9,212.5,356.8,210.2,356.8z M210.2,349.1c-1.9,0-3.4,1.5-3.4,3.4s1.5,3.4,3.4,3.4c1.9,0,3.4-1.5,3.4-3.4
					S212.1,349.1,210.2,349.1z"/>
			</g>
			<path class="st4" d="M142.8,336.2c-2.6,0.1-4.7,2.4-4.4,5c1.4,12.7,7.1,46.1,28.8,46.8c21.7,0.7,28.3-34.1,30-47.4
				c0.4-2.7-1.8-5.1-4.5-5.1h-14.5l-0.2-11.7l-8.4,11.7L142.8,336.2z"/>
			<path class="st1" d="M197.1,340.5c0.3-2.7-1.7-5-4.4-5h-14.8v-11.7l-8.4,11.7l-26.8,0.7c-2.6,0.1-4.6,2.3-4.3,4.9
				c0,0.1,0.4,3.5,0.4,3.6c7.1-9.2,51-5.3,57.8-0.8C196.7,343.6,197.1,340.8,197.1,340.5z"/>
			<path class="st12" d="M167.8,388.4c-0.2,0-0.4,0-0.6,0c-9.5-0.3-17.1-6.7-22.4-19.2c-4.4-10.2-6.1-21.9-6.8-28
				c-0.1-1.3,0.3-2.7,1.2-3.7c0.9-1,2.2-1.6,3.5-1.7l26.6-0.7l8.3-11.5c0.1-0.1,0.3-0.2,0.5-0.2c0.2,0.1,0.3,0.2,0.3,0.4V335h14.4
				c1.4,0,2.7,0.6,3.7,1.7c0.9,1.1,1.4,2.4,1.2,3.8c-0.8,6.4-2.9,18.6-7.5,29.1C184.5,382,177,388.4,167.8,388.4z M177.5,325
				l-7.6,10.6c-0.1,0.1-0.2,0.2-0.3,0.2l-26.8,0.7c-1.1,0-2.2,0.5-3,1.4c-0.8,0.9-1.1,2-1,3.1c0.7,6.1,2.4,17.7,6.7,27.8
				c5.2,12.1,12.5,18.4,21.7,18.7c9.2,0.3,16.6-5.9,22.1-18.3c4.6-10.3,6.6-22.5,7.5-28.8c0.1-1.2-0.2-2.3-1-3.2
				c-0.8-0.9-1.9-1.4-3.1-1.4h-14.8c-0.2,0-0.4-0.2-0.4-0.4V325z"/>
			<path class="st12" d="M173.9,356.2c-0.2,0-0.4-0.2-0.4-0.4c0-0.9,0.7-2.2,1.8-3.1c1.3-1.1,3-1.5,4.7-1.2c2.2,0.4,3,1.4,3.6,2.2
				c0.5,0.6,0.7,0.8,1.2,0.8c1.4-0.2,1.4-1.3,1.4-1.4c0-0.2,0.2-0.4,0.4-0.4c0.2,0,0.4,0.1,0.4,0.4c0.1,0.7-0.3,2.1-2.1,2.3
				c-1.1,0.1-1.5-0.5-2-1.1c-0.5-0.7-1.2-1.5-3.1-1.9c-2-0.4-3.4,0.5-4,1c-1,0.8-1.5,1.8-1.5,2.4C174.3,356,174.1,356.2,173.9,356.2
				z"/>
			<path class="st12" d="M161.2,356.2c-0.2,0-0.4-0.2-0.4-0.4c0-0.6-0.5-1.6-1.5-2.4c-0.7-0.5-2-1.4-4-1c-1.9,0.3-2.6,1.2-3.1,1.9
				c-0.5,0.6-0.9,1.2-2,1.1c-1.8-0.2-2.1-1.6-2.1-2.3c0-0.2,0.2-0.4,0.4-0.4c0.2,0,0.4,0.2,0.4,0.4c0,0.1-0.1,1.2,1.4,1.4
				c0.6,0.1,0.8-0.2,1.2-0.8c0.6-0.8,1.4-1.8,3.6-2.2c1.7-0.3,3.4,0.1,4.7,1.2c1.1,0.9,1.8,2.1,1.8,3.1
				C161.6,356,161.4,356.2,161.2,356.2z"/>
			<path class="st12" d="M167.7,378c-0.1,0-0.1,0-0.2,0c-4.5-0.1-7.7-3.5-7.8-3.6c-0.2-0.2-0.1-0.4,0-0.6c0.2-0.2,0.4-0.1,0.6,0
				c0,0,3.1,3.3,7.2,3.4c2.6,0,5-1.1,7.3-3.4c0.2-0.2,0.4-0.2,0.6,0c0.2,0.2,0.2,0.4,0,0.6C173,376.8,170.4,378,167.7,378z"/>
			<g>
				<polygon class="st8" points="167.8,360.8 169.3,362.7 170.8,364.5 167.8,364.5 164.8,364.5 166.3,362.7 				"/>
				<path class="st9" d="M170.8,364.9h-6c-0.2,0-0.3-0.1-0.4-0.2c-0.1-0.1,0-0.3,0.1-0.4l3-3.6c0.2-0.2,0.5-0.2,0.6,0l3,3.6
					c0.1,0.1,0.1,0.3,0.1,0.4C171.1,364.8,171,364.9,170.8,364.9z M165.7,364.1h4.3l-2.1-2.6L165.7,364.1z"/>
			</g>
			<path class="st12" d="M147.4,346.3c-0.1,0-0.2,0-0.3-0.1c-0.2-0.2-0.2-0.4,0-0.6c0,0,4.6-4.5,9.2-1.5c0.2,0.1,0.2,0.4,0.1,0.6
				c-0.1,0.2-0.4,0.2-0.6,0.1c-4-2.6-8,1.2-8.1,1.4C147.6,346.3,147.5,346.3,147.4,346.3z"/>
			<path class="st12" d="M188.9,346.3c-0.1,0-0.2,0-0.3-0.1c-0.2-0.2-4.1-4-8.1-1.4c-0.2,0.1-0.4,0.1-0.6-0.1
				c-0.1-0.2-0.1-0.4,0.1-0.6c4.6-3,9.1,1.5,9.2,1.5c0.2,0.2,0.2,0.4,0,0.6C189.1,346.3,189,346.3,188.9,346.3z"/>
		</g>
		<g>
			<path class="st2" d="M242.3,289.7v-1.9l3.1-3.2c0.6-0.6,1-1.1,1-1.7c0-0.6-0.3-1.1-0.9-1.1c-0.6,0-0.9,0.4-0.9,1.2v0.1h-2.2V283
				c0-2,1.2-3.3,3.2-3.3c1.9,0,3.2,1.4,3.2,3.2c0,1.2-0.6,2-1.5,3l-1.8,1.8v0h3.2v2H242.3z"/>
			<path class="st2" d="M256.7,286.4c0,2.1-1.4,3.5-3.5,3.5c-2.1,0-3.5-1.4-3.5-3.5v-3.1c0-2.1,1.4-3.5,3.5-3.5
				c2.1,0,3.5,1.4,3.5,3.5V286.4z M254.5,283.3c0-0.9-0.4-1.4-1.3-1.4c-0.8,0-1.3,0.5-1.3,1.4v3.1c0,0.9,0.4,1.4,1.3,1.4
				c0.8,0,1.3-0.5,1.3-1.4V283.3z"/>
			<path class="st2" d="M260.6,289.7V282h-1.7v-2h4v9.8H260.6z"/>
			<path class="st2" d="M268.4,289.7H266l3.7-7.7v0h-4v-2h6.4v1.9L268.4,289.7z"/>
		</g>
		<g>
			<path class="st13" d="M386.2,289.7v-1.9l3.1-3.2c0.6-0.6,1-1.1,1-1.7c0-0.6-0.3-1.1-0.9-1.1c-0.6,0-0.9,0.4-0.9,1.2v0.1h-2.2V283
				c0-2,1.2-3.3,3.2-3.3c1.9,0,3.2,1.4,3.2,3.2c0,1.2-0.6,2-1.5,3l-1.8,1.8v0h3.2v2H386.2z"/>
			<path class="st13" d="M400.6,286.4c0,2.1-1.4,3.5-3.5,3.5c-2.1,0-3.5-1.4-3.5-3.5v-3.1c0-2.1,1.4-3.5,3.5-3.5
				c2.1,0,3.5,1.4,3.5,3.5V286.4z M398.4,283.3c0-0.9-0.4-1.4-1.3-1.4c-0.8,0-1.3,0.5-1.3,1.4v3.1c0,0.9,0.4,1.4,1.3,1.4
				c0.8,0,1.3-0.5,1.3-1.4V283.3z"/>
			<path class="st13" d="M404.5,289.7V282h-1.7v-2h4v9.8H404.5z"/>
			<path class="st13" d="M412.8,289.9c-2.1,0-3.5-1.2-3.5-3c0-1.1,0.6-1.9,1.5-2.3v0c-0.8-0.4-1.2-1.1-1.2-2.1
				c0-1.6,1.2-2.7,3.2-2.7c1.9,0,3.2,1.1,3.2,2.7c0,1-0.4,1.7-1.2,2.1v0c1,0.4,1.5,1.2,1.5,2.3C416.3,288.7,414.9,289.9,412.8,289.9
				z M412.8,285.5c-0.8,0-1.3,0.4-1.3,1.2c0,0.8,0.4,1.2,1.3,1.2s1.3-0.4,1.3-1.2C414,285.9,413.6,285.5,412.8,285.5z M412.8,281.8
				c-0.6,0-1,0.4-1,0.9s0.3,0.9,1,0.9s1-0.4,1-0.9S413.4,281.8,412.8,281.8z"/>
		</g>
	</g>
	<g>
		<rect x="224.2" y="52.3" class="st1" width="361.5" height="29.8"/>
		<path class="st2" d="M534.7,82.5H223.4c-0.2,0-0.4-0.2-0.4-0.4V52.3c0-0.2,0.2-0.4,0.4-0.4h311.3c0.2,0,0.4,0.2,0.4,0.4v29.8
			C535.1,82.4,534.9,82.5,534.7,82.5z M223.8,81.7h310.5v-29H223.8V81.7z"/>
		<rect x="414.8" y="52.3" class="st14" width="170.9" height="29.8"/>
		<g>
			<path class="st12" d="M310.8,71.3v-7.8h-1.7v-2h4v9.8H310.8z"/>
			<path class="st12" d="M319.1,71.5c-2.1,0-3.5-1.2-3.5-3c0-1.1,0.6-1.9,1.5-2.3v0c-0.8-0.4-1.2-1.1-1.2-2.1c0-1.6,1.2-2.7,3.2-2.7
				s3.2,1.1,3.2,2.7c0,1-0.4,1.7-1.2,2.1v0c1,0.4,1.5,1.2,1.5,2.3C322.6,70.3,321.2,71.5,319.1,71.5z M319.1,67.1
				c-0.8,0-1.3,0.4-1.3,1.2c0,0.8,0.4,1.2,1.3,1.2s1.3-0.4,1.3-1.2C320.4,67.5,319.9,67.1,319.1,67.1z M319.1,63.4
				c-0.6,0-1,0.4-1,0.9c0,0.5,0.3,0.9,1,0.9c0.6,0,1-0.4,1-0.9C320.1,63.8,319.7,63.4,319.1,63.4z"/>
			<path class="st12" d="M323.3,63.7c0-1.3,1.1-2.4,2.4-2.4c1.3,0,2.4,1.1,2.4,2.4c0,1.3-1.1,2.4-2.4,2.4
				C324.4,66.1,323.3,65,323.3,63.7z M324.3,71.3l5.9-9.8h1.6l-5.9,9.8H324.3z M326.6,63.7c0-0.5-0.4-0.9-0.9-0.9
				c-0.5,0-0.9,0.4-0.9,0.9c0,0.5,0.4,0.9,0.9,0.9C326.2,64.6,326.6,64.2,326.6,63.7z M328.2,69.1c0-1.3,1.1-2.4,2.4-2.4
				s2.4,1.1,2.4,2.4c0,1.3-1.1,2.4-2.4,2.4S328.2,70.4,328.2,69.1z M331.4,69.1c0-0.5-0.4-0.9-0.9-0.9s-0.9,0.4-0.9,0.9
				c0,0.5,0.4,0.9,0.9,0.9S331.4,69.6,331.4,69.1z"/>
		</g>
		<g>
			<path class="st4" d="M433.2,70.9v-2.5h-2.5v-1.9h2.5v-2.5h1.9v2.5h2.5v1.9h-2.5v2.5H433.2z"/>
			<path class="st4" d="M440.8,67.1v-1.9h1.1c0.9,0,1.1-0.4,1.1-0.9c0-0.5-0.3-0.9-0.9-0.9c-0.5,0-0.8,0.3-0.9,0.9h-2.2
				c0-2,1.3-3,3.1-3c1.9,0,3.1,1.1,3.1,2.7c0,1-0.4,1.7-1.1,2.1v0c0.9,0.4,1.4,1.2,1.4,2.3c0,1.9-1.4,3-3.4,3c-2,0-3.4-1.1-3.4-3.2
				h2.2c0,0.7,0.4,1.1,1.2,1.1s1.2-0.4,1.2-1.1c0-0.7-0.4-1.2-1.4-1.2H440.8z"/>
			<path class="st4" d="M453.6,68c0,2.1-1.4,3.5-3.5,3.5c-2.1,0-3.5-1.4-3.5-3.5v-3.1c0-2.1,1.4-3.5,3.5-3.5c2.1,0,3.5,1.4,3.5,3.5
				V68z M451.3,64.9c0-0.9-0.4-1.4-1.3-1.4c-0.8,0-1.3,0.5-1.3,1.4V68c0,0.9,0.4,1.4,1.3,1.4c0.8,0,1.3-0.5,1.3-1.4V64.9z"/>
			<path class="st4" d="M454.3,63.7c0-1.3,1.1-2.4,2.4-2.4c1.3,0,2.4,1.1,2.4,2.4c0,1.3-1.1,2.4-2.4,2.4
				C455.4,66.1,454.3,65,454.3,63.7z M455.3,71.3l5.9-9.8h1.6l-5.9,9.8H455.3z M457.6,63.7c0-0.5-0.4-0.9-0.9-0.9
				c-0.5,0-0.9,0.4-0.9,0.9c0,0.5,0.4,0.9,0.9,0.9C457.2,64.6,457.6,64.2,457.6,63.7z M459.1,69.1c0-1.3,1.1-2.4,2.4-2.4
				s2.4,1.1,2.4,2.4c0,1.3-1.1,2.4-2.4,2.4S459.1,70.4,459.1,69.1z M462.4,69.1c0-0.5-0.4-0.9-0.9-0.9s-0.9,0.4-0.9,0.9
				c0,0.5,0.4,0.9,0.9,0.9S462.4,69.6,462.4,69.1z"/>
		</g>
		<g>
			<path class="st15" d="M414.8,36.3c-0.2,0-0.4-0.2-0.4-0.4V31c0-0.2,0.2-0.4,0.4-0.4c0.2,0,0.4,0.2,0.4,0.4v4.9
				C415.2,36.2,415.1,36.3,414.8,36.3z"/>
			<path class="st15" d="M414.8,69.4c-0.2,0-0.4-0.2-0.4-0.4v-8.3c0-0.2,0.2-0.4,0.4-0.4c0.2,0,0.4,0.2,0.4,0.4V69
				C415.2,69.2,415.1,69.4,414.8,69.4z M414.8,52.9c-0.2,0-0.4-0.2-0.4-0.4v-8.3c0-0.2,0.2-0.4,0.4-0.4c0.2,0,0.4,0.2,0.4,0.4v8.3
				C415.2,52.7,415.1,52.9,414.8,52.9z"/>
			<path class="st15" d="M414.8,82.5c-0.2,0-0.4-0.2-0.4-0.4v-4.9c0-0.2,0.2-0.4,0.4-0.4c0.2,0,0.4,0.2,0.4,0.4v4.9
				C415.2,82.4,415.1,82.5,414.8,82.5z"/>
		</g>
		<g>
			<path class="st2" d="M298.6,36.3c-0.2,0-0.4-0.2-0.4-0.4V31c0-0.2,0.2-0.4,0.4-0.4c0.2,0,0.4,0.2,0.4,0.4v4.9
				C299,36.2,298.8,36.3,298.6,36.3z"/>
			<path class="st2" d="M298.6,69.4c-0.2,0-0.4-0.2-0.4-0.4v-8.3c0-0.2,0.2-0.4,0.4-0.4c0.2,0,0.4,0.2,0.4,0.4V69
				C299,69.2,298.8,69.4,298.6,69.4z M298.6,52.9c-0.2,0-0.4-0.2-0.4-0.4v-8.3c0-0.2,0.2-0.4,0.4-0.4c0.2,0,0.4,0.2,0.4,0.4v8.3
				C299,52.7,298.8,52.9,298.6,52.9z"/>
			<path class="st2" d="M298.6,82.5c-0.2,0-0.4-0.2-0.4-0.4v-4.9c0-0.2,0.2-0.4,0.4-0.4c0.2,0,0.4,0.2,0.4,0.4v4.9
				C299,82.4,298.8,82.5,298.6,82.5z"/>
		</g>
		<path class="st15" d="M585.7,82.5H414.8c-0.2,0-0.4-0.2-0.4-0.4V52.3c0-0.2,0.2-0.4,0.4-0.4h170.9c0.2,0,0.4,0.2,0.4,0.4
			s-0.2,0.4-0.4,0.4H415.2v29h170.5c0.2,0,0.4,0.2,0.4,0.4C586.1,82.4,585.9,82.5,585.7,82.5z"/>
		<g>
			<g>
				<g>
					<g>
						<polyline class="st6" points="212.3,72.9 197.1,73.8 197.1,72.3 212.3,71.4 						"/>
						<path class="st7" d="M196.1,74.3c-0.2,0-0.4-0.1-0.4-0.3l-0.3-1.5c0-0.1,0-0.2,0.1-0.3c0.1-0.1,0.2-0.2,0.3-0.2l16.5-1
							c0.2,0,0.4,0.2,0.4,0.4c0,0.2-0.2,0.4-0.4,0.4l-16.1,1l0.1,0.7l15.9-1c0.2,0,0.4,0.2,0.4,0.4c0,0.2-0.2,0.4-0.4,0.4
							L196.1,74.3C196.1,74.3,196.1,74.3,196.1,74.3z"/>
					</g>
					<g>
						<polyline class="st6" points="262.7,72.9 277.9,73.9 277.9,72.3 262.7,71.4 						"/>
						<path class="st7" d="M278.9,74.3C278.9,74.3,278.9,74.3,278.9,74.3l-16.2-1c-0.2,0-0.4-0.2-0.4-0.4c0-0.2,0.2-0.4,0.4-0.4
							l15.9,1l0.1-0.7l-16.1-1c-0.2,0-0.4-0.2-0.4-0.4c0-0.2,0.2-0.4,0.4-0.4l16.5,1c0.1,0,0.2,0.1,0.3,0.2c0.1,0.1,0.1,0.2,0.1,0.3
							l-0.3,1.5C279.3,74.2,279.1,74.3,278.9,74.3z"/>
					</g>
					<circle class="st8" cx="192.9" cy="73.8" r="4.1"/>
					<circle class="st8" cx="282.1" cy="73.8" r="4.1"/>
					<path class="st1" d="M209.3,38.5l6,67.3c0.3,3.4,3.1,5.9,6.5,5.9h15.8h15.8c3.4,0,6.2-2.6,6.5-5.9l6-67.3
						c0.3-3.8-2.7-7.1-6.5-7.1h-43.6C212,31.4,209,34.7,209.3,38.5z"/>
					<path class="st4" d="M227.2,47.3c-4.6-2.6-10.9-3-16.5-1.4c0.4,8.4,1.2,19.3,2.7,30.5c1.4,0.2,2.7,0.6,4,1.2
						c12.9,7.5,28.5,15.9,42.9,18.4c1-11.3,2.1-22.4,3-33.7C250.7,60.4,239,53.2,227.2,47.3z"/>
					<path class="st7" d="M248,94.6c0-0.3-0.2-0.5-0.5-0.5h-18.6c-0.3,0-0.5,0.2-0.5,0.5c0,0.2,0.2,0.4,0.4,0.5
						c1.1,1.5,3.5,4.2,10.1,4.2c4.6,0,7.6-3,8.7-4.1C247.8,95,248,94.8,248,94.6z M229.9,95.1h16c-1.6,1.3-3.7,2.8-7,2.8
						C233.9,98,231.3,96.5,229.9,95.1z"/>
					<path class="st2" d="M229.9,95.1h16c-1.6,1.3-3.7,2.8-7,2.8C233.9,98,231.3,96.5,229.9,95.1z"/>
					<polygon class="st8" points="238.6,78.9 240.9,81.5 243.2,84.1 238.6,84.1 233.9,84.1 236.2,81.5 					"/>
					<path class="st9" d="M243.2,84.5h-9.3c-0.2,0-0.3-0.1-0.4-0.2c-0.1-0.1,0-0.3,0.1-0.4l4.7-5.1c0.2-0.2,0.5-0.2,0.6,0l4.7,5.1
						c0.1,0.1,0.1,0.3,0.1,0.4C243.5,84.4,243.4,84.5,243.2,84.5z M234.8,83.7h7.5l-3.7-4.1L234.8,83.7z"/>
					<path class="st7" d="M224.7,79.1c-0.3,0-0.6-0.1-0.9-0.2c-0.9-0.5-1.4-1.7-1.4-3.2V64.4c-1.1,0.2-4.1,0.3-5.9-1.8
						c-0.1-0.2-0.1-0.4,0.1-0.6c0.2-0.1,0.4-0.1,0.6,0.1c1.8,2.2,5.5,1.5,5.5,1.5c0,0,0.1,0,0.1,0l2,0c1.2,0,2.2,1,2.2,2.2v9.9
						c0,1.5-0.5,2.7-1.4,3.2C225.3,79,225,79.1,224.7,79.1z M223.2,64.3C223.2,64.3,223.2,64.3,223.2,64.3v11.3c0,1.2,0.4,2.1,1,2.5
						c0.3,0.2,0.7,0.2,1,0c0.6-0.4,1-1.3,1-2.5v-9.9c0-0.8-0.6-1.4-1.4-1.4L223.2,64.3z"/>
					<path class="st7" d="M253.5,79.1c-0.3,0-0.6-0.1-0.9-0.2c-0.9-0.5-1.4-1.7-1.4-3.2V64.4c-1.1,0.2-4.1,0.3-5.9-1.8
						c-0.1-0.2-0.1-0.4,0.1-0.6c0.2-0.1,0.4-0.1,0.6,0.1c1.8,2.2,5.5,1.5,5.5,1.5c0,0,0.1,0,0.1,0l2,0c1.2,0,2.2,1,2.2,2.2v9.9
						c0,1.5-0.5,2.7-1.4,3.2C254.1,79,253.8,79.1,253.5,79.1z M252,64.3C252,64.3,252,64.3,252,64.3v11.3c0,1.2,0.4,2.1,1,2.5
						c0.3,0.2,0.7,0.2,1,0c0.6-0.4,1-1.3,1-2.5v-9.9c0-0.8-0.6-1.4-1.4-1.4L252,64.3z"/>
					<path class="st7" d="M251.6,63.9l2,0c1,0,1.8,0.8,1.8,1.8v9.9c0,4-3.7,4-3.8,0V64.3"/>
					<path class="st7" d="M222.7,63.9l2,0c1,0,1.8,0.8,1.8,1.8v9.9c0,4-3.7,4-3.8,0V64.3"/>
					<path class="st7" d="M253.4,112.2h-31.6c-3.6,0-6.6-2.7-6.9-6.3l-6-67.3c-0.2-1.9,0.5-3.9,1.8-5.3c1.3-1.4,3.2-2.3,5.1-2.3
						h43.6c1.9,0,3.8,0.8,5.1,2.3c1.3,1.4,2,3.4,1.8,5.3l-6,67.3C260,109.5,257,112.2,253.4,112.2z M215.8,31.8
						c-1.7,0-3.4,0.7-4.5,2c-1.2,1.3-1.7,3-1.6,4.7l0,0l6,67.3c0.3,3.2,2.9,5.6,6.1,5.6h31.6c3.2,0,5.8-2.4,6.1-5.6l6-67.3
						c0.2-1.7-0.4-3.4-1.6-4.7c-1.2-1.3-2.8-2-4.5-2H215.8z"/>
					<path class="st7" d="M220.8,56c-0.1,0-0.2,0-0.3-0.1c-0.2-0.2-0.1-0.4,0-0.6c2.7-2.4,5.6-0.7,6.3-0.1c0.2,0.1,0.2,0.4,0,0.6
						c-0.1,0.2-0.4,0.2-0.6,0.1c0,0-0.1,0-0.1-0.1c-0.3-0.2-2.8-2.1-5.1,0.1C221,55.9,220.9,56,220.8,56z"/>
					<path class="st7" d="M250.5,56c-0.1,0-0.2,0-0.3-0.1c-0.2-0.2-0.1-0.4,0-0.6c2.7-2.4,5.6-0.7,6.3-0.1c0.2,0.1,0.2,0.4,0,0.6
						c-0.1,0.2-0.4,0.2-0.6,0.1c0,0-0.1,0-0.1-0.1c-0.3-0.2-2.8-2.1-5.1,0.1C250.7,55.9,250.6,56,250.5,56z"/>
					<path class="st9" d="M282.1,78.3c-2.5,0-4.5-2-4.5-4.5c0-2.5,2-4.5,4.5-4.5c2.5,0,4.5,2,4.5,4.5
						C286.6,76.3,284.6,78.3,282.1,78.3z M282.1,70.1c-2,0-3.7,1.7-3.7,3.7c0,2,1.7,3.7,3.7,3.7c2,0,3.7-1.7,3.7-3.7
						C285.8,71.7,284.1,70.1,282.1,70.1z"/>
					<path class="st9" d="M192.9,78.3c-2.5,0-4.5-2-4.5-4.5c0-2.5,2-4.5,4.5-4.5c2.5,0,4.5,2,4.5,4.5
						C197.4,76.3,195.4,78.3,192.9,78.3z M192.9,70.1c-2,0-3.7,1.7-3.7,3.7c0,2,1.7,3.7,3.7,3.7c2,0,3.7-1.7,3.7-3.7
						C196.6,71.7,195,70.1,192.9,70.1z"/>
				</g>
				<path class="st8" d="M274.6,34.6c-1.3-0.5-2.6-0.9-3.8-1.2c-1.2-3.7-4.6-6.4-8.6-6.6c-0.3-1.3-0.7-2.7-1.3-4.1
					c-3.1-8.1-8.9-13.5-12.9-11.9c-2.6,1-3.8,4.5-3.5,9.1c-4.7-0.3-8.4,0.9-9.4,3.5c-1.5,4,3.8,9.8,11.9,12.9
					c1.8,0.7,3.6,1.2,5.4,1.5c0,0,0.1,0.1,0.1,0.1c0.7,3.9,3.7,7,7.6,7.6c0.3,1,0.6,1.9,1,2.9c3.1,8.1,8.9,13.5,12.9,11.9
					c2.6-1,3.8-4.7,3.5-9.4c4.5,0.3,8.1-1,9.1-3.5C288.1,43.5,282.7,37.7,274.6,34.6z"/>
				<g>
					<path class="st9" d="M272.5,61c-4,0-8.9-5-11.8-12.4c-0.4-1-0.7-1.9-1-3c0-0.1,0-0.3,0.1-0.4c0.1-0.1,0.2-0.2,0.4-0.1
						c0.6,0.1,1.1,0.1,1.6,0.1c5,0,9-4,9-9c0-0.9-0.1-1.8-0.4-2.7c0-0.1,0-0.3,0.1-0.4c0.1-0.1,0.3-0.2,0.4-0.1
						c1.3,0.3,2.6,0.7,3.9,1.2l0,0c4,1.5,7.4,3.7,9.7,6.2c2.4,2.6,3.2,5.1,2.4,7.2c-1,2.6-4.3,4-9,3.8c0.3,4.9-1.1,8.3-3.8,9.3
						C273.6,60.9,273.1,61,272.5,61z M260.7,46c0.2,0.8,0.5,1.5,0.8,2.3c3,7.9,8.6,13.1,12.3,11.7c2.3-0.9,3.6-4.3,3.2-9
						c0-0.1,0-0.2,0.1-0.3c0.1-0.1,0.2-0.1,0.3-0.1c4.6,0.3,7.8-1,8.7-3.2c0.7-1.8-0.1-4-2.3-6.3c-2.2-2.4-5.6-4.5-9.4-6l0,0
						c-1-0.4-2-0.7-3.1-1c0.2,0.7,0.3,1.5,0.3,2.3c0,5.4-4.4,9.8-9.8,9.8C261.5,46.1,261.1,46.1,260.7,46z"/>
					<path class="st9" d="M252.6,38.3c-0.1,0-0.2,0-0.3-0.1l0,0c-1.8-0.3-3.6-0.8-5.3-1.5c-8.5-3.2-13.8-9.1-12.2-13.4
						c1-2.6,4.5-4,9.3-3.8c-0.2-4.7,1.2-8,3.8-9c4.3-1.6,10.2,3.7,13.4,12.2c0.5,1.4,1,2.8,1.3,4.2c0,0.1,0,0.3-0.1,0.4
						c-0.1,0.1-0.2,0.2-0.3,0.1l-0.2,0c-0.1,0-0.1,0-0.2,0c-5,0-9,4-9,9c0,0.5,0,1,0.1,1.6c0,0.2-0.1,0.3-0.2,0.4
						C252.7,38.3,252.6,38.3,252.6,38.3z M243,20.2c-3.9,0-6.7,1.2-7.5,3.3c-1.4,3.8,3.8,9.3,11.7,12.3c1.6,0.6,3.2,1.1,4.9,1.4
						c0-0.4-0.1-0.7-0.1-1c0-5.4,4.3-9.7,9.7-9.8c-0.3-1.2-0.7-2.4-1.1-3.5c-3-7.9-8.6-13.1-12.3-11.7c-2.3,0.9-3.5,4.1-3.2,8.7
						c0,0.1,0,0.2-0.1,0.3c-0.1,0.1-0.2,0.1-0.3,0.1C244,20.2,243.5,20.2,243,20.2z"/>
					<path class="st9" d="M261.8,46.1c-5.4,0-9.8-4.4-9.8-9.8c0-5.4,4.4-9.8,9.8-9.8s9.8,4.4,9.8,9.8
						C271.7,41.7,267.3,46.1,261.8,46.1z M261.8,27.2c-5,0-9,4-9,9s4,9,9,9s9-4,9-9S266.8,27.2,261.8,27.2z"/>
				</g>
			</g>
		</g>
		<g>
			<path class="st2" d="M298.9,21v-1.9l3.1-3.2c0.6-0.6,1-1.1,1-1.7c0-0.6-0.3-1.1-0.9-1.1c-0.6,0-0.9,0.4-0.9,1.2v0.1h-2.2v-0.1
				c0-2,1.2-3.3,3.2-3.3c1.9,0,3.2,1.4,3.2,3.2c0,1.2-0.6,2-1.5,3l-1.8,1.8v0h3.2v2H298.9z"/>
			<path class="st2" d="M313.4,17.7c0,2.1-1.4,3.5-3.5,3.5c-2.1,0-3.5-1.4-3.5-3.5v-3.1c0-2.1,1.4-3.5,3.5-3.5
				c2.1,0,3.5,1.4,3.5,3.5V17.7z M311.1,14.5c0-0.9-0.4-1.4-1.3-1.4c-0.8,0-1.3,0.5-1.3,1.4v3.1c0,0.9,0.4,1.4,1.3,1.4
				c0.8,0,1.3-0.5,1.3-1.4V14.5z"/>
			<path class="st2" d="M317.2,21v-7.8h-1.7v-2h4V21H317.2z"/>
			<path class="st2" d="M325,21h-2.4l3.7-7.7v0h-4v-2h6.4v1.9L325,21z"/>
		</g>
		<g>
			<path class="st15" d="M415.2,21v-1.9l3.1-3.2c0.6-0.6,1-1.1,1-1.7c0-0.6-0.3-1.1-0.9-1.1c-0.6,0-0.9,0.4-0.9,1.2v0.1h-2.2v-0.1
				c0-2,1.2-3.3,3.2-3.3c1.9,0,3.2,1.4,3.2,3.2c0,1.2-0.6,2-1.5,3l-1.8,1.8v0h3.2v2H415.2z"/>
			<path class="st15" d="M429.6,17.7c0,2.1-1.4,3.5-3.5,3.5c-2.1,0-3.5-1.4-3.5-3.5v-3.1c0-2.1,1.4-3.5,3.5-3.5
				c2.1,0,3.5,1.4,3.5,3.5V17.7z M427.4,14.5c0-0.9-0.4-1.4-1.3-1.4c-0.8,0-1.3,0.5-1.3,1.4v3.1c0,0.9,0.4,1.4,1.3,1.4
				c0.8,0,1.3-0.5,1.3-1.4V14.5z"/>
			<path class="st15" d="M433.5,21v-7.8h-1.7v-2h4V21H433.5z"/>
			<path class="st15" d="M441.7,21.2c-2.1,0-3.5-1.2-3.5-3c0-1.1,0.6-1.9,1.5-2.3v0c-0.8-0.4-1.2-1.1-1.2-2.1c0-1.6,1.2-2.7,3.2-2.7
				c1.9,0,3.2,1.1,3.2,2.7c0,1-0.4,1.7-1.2,2.1v0c1,0.4,1.5,1.2,1.5,2.3C445.2,20,443.8,21.2,441.7,21.2z M441.7,16.8
				c-0.8,0-1.3,0.4-1.3,1.2c0,0.8,0.4,1.2,1.3,1.2s1.3-0.4,1.3-1.2C443,17.2,442.6,16.8,441.7,16.8z M441.7,13c-0.6,0-1,0.4-1,0.9
				c0,0.5,0.3,0.9,1,0.9s1-0.4,1-0.9C442.7,13.4,442.4,13,441.7,13z"/>
		</g>
	</g>
</g>
</svg>
