<svg id="Layer_1" data-name="Layer 1" xmlns="http://www.w3.org/2000/svg" viewBox="0 0 557.92 409.55"><defs><style>.cls-1{fill:#a9d7f3;opacity:0.5;isolation:isolate;}.cls-2{fill:#d0e4f0;}.cls-15,.cls-3{fill:#fff;}.cls-13,.cls-14,.cls-17,.cls-18,.cls-4,.cls-5,.cls-8{fill:none;}.cls-4{stroke:#40565b;}.cls-11,.cls-13,.cls-17,.cls-18,.cls-4,.cls-5,.cls-8{stroke-linecap:round;stroke-linejoin:round;}.cls-5{stroke:#c3d4e0;stroke-width:2px;}.cls-6{fill:#e7f1f8;}.cls-7{fill:#a1c2d8;}.cls-8{stroke:#3f555a;}.cls-9{fill:#985bcd;}.cls-10{fill:#8552ba;}.cls-11,.cls-12{fill:#f36f42;}.cls-11,.cls-13{stroke:#c84a27;}.cls-14{stroke:#923a95;}.cls-14,.cls-15{stroke-miterlimit:10;}.cls-15{stroke:#000;}.cls-16{fill:#40565b;}.cls-17,.cls-18{stroke:#a1c2d8;}.cls-18{stroke-dasharray:6 4;}</style></defs><title>Products-core-v2-K-12 Math-hero</title><path class="cls-1" d="M506.86,124.76c-83.93,37.24-47.77,70.38-20.09,78.46,18.22,5.32,94.73,27.38,79.11,68.4C558,292.39,500.2,283.17,482.64,312c-11.18,18.37,75.85,76.69-67.56,42.6-39-9.26-165.65,81.85-237.77,17.42-13-11.61-14.66-6.89-68.32,3.54-73.24,14.23-118.35-28-80.7-56.79,38.68-15.32,37.45-71.72-4.6-57.28-30,10.29-9.6-82.85,51.69-88.29,21.13-1.87,34.11-1.87,19.62-18.87C73.75,129.43-53.23,81,128.6,76.92S590.78,87.52,506.86,124.76Z" transform="translate(-10.04 -22.47)"/><path class="cls-2" d="M473.69,272.34c-6.45-1.42-31.53,20.47-31.53,20.47s5.53-16.82-1.45-15-24,27.22-24,27.22S349.93,329.48,317,291.5l-5.13,30.2s44.16,37.63,111.95,4.73c12.81-6.22,34.26-10.6,43.93-24.55S480.14,273.76,473.69,272.34Z" transform="translate(-10.04 -22.47)"/><path class="cls-3" d="M440.71,277.76c-7,1.77-24,27.22-24,27.22S349.93,329.48,317,291.5l-3.68,21.68c8.11,6,49.84,33,110.5,3.61,12.81-6.22,34.26-10.6,43.93-24.55a58,58,0,0,0,8.61-17.79,3.91,3.91,0,0,0-2.7-2.11c-6.45-1.42-31.53,20.47-31.53,20.47s2.27-6.92,2.06-11.42c-1.29,1.09-2.06,1.76-2.06,1.76s.68-2.07,1.26-4.67A2.36,2.36,0,0,0,440.71,277.76Z" transform="translate(-10.04 -22.47)"/><path class="cls-4" d="M311.91,321.7s44.16,37.63,111.95,4.73c12.81-6.22,34.26-10.6,43.93-24.55s12.36-28.13,5.91-29.55-31.53,20.47-31.53,20.47,5.53-16.82-1.45-15-24,27.22-24,27.22S349.93,329.48,317,291.5" transform="translate(-10.04 -22.47)"/><path class="cls-4" d="M416.75,305a20.61,20.61,0,0,0,7.1,21.45" transform="translate(-10.04 -22.47)"/><path class="cls-5" d="M398.72,313.08s-3.61,10.46,4.4,17.18" transform="translate(-10.04 -22.47)"/><path class="cls-5" d="M385.09,315.07s-4.89,12.82,3.68,18.51" transform="translate(-10.04 -22.47)"/><path class="cls-5" d="M367.79,315.86S362,330,371.09,335.2" transform="translate(-10.04 -22.47)"/><path class="cls-5" d="M352.43,314.15s-6.22,15.47,2.89,20.64" transform="translate(-10.04 -22.47)"/><path class="cls-2" d="M58,272.34c6.45-1.42,31.53,20.47,31.53,20.47S84,276,91,277.76,115,305,115,305s66.82,24.5,99.71-13.49l5.13,30.2s-44.16,37.63-111.95,4.73c-12.81-6.22-34.26-10.6-43.93-24.55S51.59,273.76,58,272.34Z" transform="translate(-10.04 -22.47)"/><path class="cls-3" d="M91,277.76c7,1.77,24,27.22,24,27.22s66.82,24.5,99.71-13.49l3.68,21.68c-8.11,6-49.84,33-110.5,3.61-12.81-6.22-34.26-10.6-43.93-24.55a58,58,0,0,1-8.61-17.79,3.91,3.91,0,0,1,2.7-2.11c6.45-1.42,31.53,20.47,31.53,20.47s-2.27-6.92-2.06-11.42c1.29,1.09,2.06,1.76,2.06,1.76s-.68-2.07-1.26-4.67A2.36,2.36,0,0,1,91,277.76Z" transform="translate(-10.04 -22.47)"/><path class="cls-4" d="M219.82,321.7s-44.16,37.63-111.95,4.73c-12.81-6.22-34.26-10.6-43.93-24.55S51.59,273.76,58,272.34,89.56,292.8,89.56,292.8,84,276,91,277.76,115,305,115,305s66.82,24.5,99.71-13.49" transform="translate(-10.04 -22.47)"/><path class="cls-4" d="M115,305a20.61,20.61,0,0,1-7.1,21.45" transform="translate(-10.04 -22.47)"/><path class="cls-5" d="M133,313.08s3.61,10.46-4.4,17.18" transform="translate(-10.04 -22.47)"/><path class="cls-5" d="M146.64,315.07s4.89,12.82-3.68,18.51" transform="translate(-10.04 -22.47)"/><path class="cls-5" d="M163.94,315.86s5.81,14.17-3.31,19.33" transform="translate(-10.04 -22.47)"/><path class="cls-5" d="M179.29,314.15s6.22,15.47-2.89,20.64" transform="translate(-10.04 -22.47)"/><path class="cls-2" d="M265.5,200.54l-3.56-50s-55.38,4.48-58.65,70.88,0,93,0,93l18.9-10.73v-81s44.34,26.11,44.34,23.13S265.5,200.54,265.5,200.54Z" transform="translate(-10.04 -22.47)"/><path class="cls-2" d="M266.53,184.91l3.56-34.36s55.38,4.48,58.65,70.88,0,93,0,93l-18.9-10.73v-81s-43.31,25.54-43.31,22.56Z" transform="translate(-10.04 -22.47)"/><path class="cls-6" d="M203.29,229c3.27-66.4,58.65-70.88,58.65-70.88l3.56,50s.61,25,.89,37.88a.2.2,0,0,0,.14-.2c0-3-1-45.27-1-45.27l-3.56-50s-55.38,4.48-58.65,70.88c-1.19,24.21-1.52,43.11-1.44,57.38C201.91,265.62,202.3,249.16,203.29,229Z" transform="translate(-10.04 -22.47)"/><path class="cls-6" d="M328.74,229c1,20.15,1.38,36.61,1.44,49.8.07-14.27-.25-33.17-1.44-57.39-3.27-66.4-58.65-70.88-58.65-70.88l-3.56,34.36v7.59l3.56-34.36S325.47,162.62,328.74,229Z" transform="translate(-10.04 -22.47)"/><path class="cls-7" d="M212,297.07h10v-78s4.76-7.37-.94-.45S212,297.07,212,297.07Z" transform="translate(-10.04 -22.47)"/><path class="cls-8" d="M265.5,200.54l-3.56-50s-55.38,4.48-58.65,70.88,0,93,0,93l18.9-10.73v-81s44.34,26.11,44.34,23.13S265.5,200.54,265.5,200.54Z" transform="translate(-10.04 -22.47)"/><path class="cls-7" d="M319.74,297.07h-10v-78s-4.76-7.37.94-.45S319.74,297.07,319.74,297.07Z" transform="translate(-10.04 -22.47)"/><path class="cls-8" d="M266.53,184.91l3.56-34.36s55.38,4.48,58.65,70.88,0,93,0,93l-18.9-10.73v-81s-43.31,25.54-43.31,22.56Z" transform="translate(-10.04 -22.47)"/><path class="cls-8" d="M280.31,163.48A65.14,65.14,0,0,1,307.62,183" transform="translate(-10.04 -22.47)"/><path class="cls-3" d="M289.23,283.77c15.42,1.76,39.65,16.4,39.65,16.4l1.31,28.58-11.12,97.34h-106L202,329l1.32-28.82s22.18-15.23,37.6-17" transform="translate(-10.04 -22.47)"/><path class="cls-9" d="M289.23,283.77c15.42,1.76,39.65,16.4,39.65,16.4l1.31,28.58-11.12,97.34c-36,7.78-71.32,8.08-106,0L202,329l1.32-28.82s22.18-15.23,37.6-17" transform="translate(-10.04 -22.47)"/><path class="cls-10" d="M328.91,300.77c-.09-.26-.2-.52-.31-.78-2.74-1.63-24.92-14.58-39.37-16.23l-48.34-.59c-15.42,1.76-37.6,17-37.6,17l-.44,9.63c5.41,12.07,32.23,16.57,62.89,23.79,47.34,11.13,51.47,42.58,59.21,41.09l5.25-45.93Z" transform="translate(-10.04 -22.47)"/><polyline class="cls-2" points="212.68 211.76 189.12 213.2 189.12 210.83 212.68 209.38"/><polyline class="cls-4" points="212.68 211.76 187.59 213.3 187.11 210.95 212.68 209.38"/><circle class="cls-11" cx="182.69" cy="213.06" r="6.33"/><polyline class="cls-2" points="299.68 211.76 323.24 213.2 323.24 210.83 299.68 209.38"/><polyline class="cls-4" points="299.68 211.76 324.77 213.3 325.25 210.95 299.68 209.38"/><circle class="cls-12" cx="329.67" cy="213.06" r="6.33"/><circle class="cls-13" cx="329.67" cy="213.06" r="6.33"/><path class="cls-14" d="M213.1,426.08,202,329l1.32-28.82s22.18-15.23,37.6-17" transform="translate(-10.04 -22.47)"/><path class="cls-14" d="M289.23,283.77c15.42,1.76,39.65,16.4,39.65,16.4l1.31,28.58-11.12,97.34" transform="translate(-10.04 -22.47)"/><path class="cls-3" d="M213.1,426.08" transform="translate(-10.04 -22.47)"/><path class="cls-3" d="M319.07,426.08" transform="translate(-10.04 -22.47)"/><path class="cls-2" d="M222.28,213a62.25,62.25,0,0,0-4.36,23c0,20,9.2,37.51,23,47.17A44.29,44.29,0,0,0,252.43,289a41.57,41.57,0,0,0,13.07,2.11c26.28,0,47.58-24.67,47.58-55.1a62.26,62.26,0,0,0-4.36-23Z" transform="translate(-10.04 -22.47)"/><path class="cls-3" d="M218.71,226.1a63.55,63.55,0,0,0-.79,9.9,60.73,60.73,0,0,0,9.59,33.18,213.69,213.69,0,0,0,37.09,3.09,210.84,210.84,0,0,0,39.13-3.47,60.79,60.79,0,0,0,9.35-32.8,63.64,63.64,0,0,0-.71-9.44c-13.19-3.37-29.75-5.39-47.76-5.39C247.44,221.17,231.58,223,218.71,226.1Z" transform="translate(-10.04 -22.47)"/><path class="cls-4" d="M222.28,213a62.25,62.25,0,0,0-4.36,23c0,20,9.2,37.51,23,47.17A44.29,44.29,0,0,0,252.43,289a41.57,41.57,0,0,0,13.07,2.11c26.28,0,47.58-24.67,47.58-55.1a62.26,62.26,0,0,0-4.36-23Z" transform="translate(-10.04 -22.47)"/><path class="cls-15" d="M246,310.86" transform="translate(-10.04 -22.47)"/><path class="cls-4" d="M249.42,269.41s14.18,15.31,30.38-.37" transform="translate(-10.04 -22.47)"/><polygon class="cls-11" points="254.57 227.51 256.3 231.55 258.04 235.6 254.57 235.6 251.1 235.6 252.84 231.55 254.57 227.51"/><path class="cls-4" d="M236.69,237.32c2.61,1.89,7.74,1.24,7.74,1.24h2.63c1.31,0,2.38.63,2.38,1.41v7.68c0,3.12-4.89,3.1-4.91,0v-8.76" transform="translate(-10.04 -22.47)"/><path class="cls-4" d="M274.44,237.32c2.61,1.89,7.74,1.24,7.74,1.24h2.63c1.31,0,2.38.63,2.38,1.41v7.68c0,3.12-4.89,3.1-4.91,0v-8.76" transform="translate(-10.04 -22.47)"/><path class="cls-16" d="M236.69,237.32c2.61,1.89,7.74,1.24,7.74,1.24h2.63c1.31,0,2.38.63,2.38,1.41v7.68c0,3.12-4.89,3.1-4.91,0v-8.76" transform="translate(-10.04 -22.47)"/><path class="cls-16" d="M274.44,237.32c2.61,1.89,7.74,1.24,7.74,1.24h2.63c1.31,0,2.38.63,2.38,1.41v7.68c0,3.12-4.89,3.1-4.91,0v-8.76" transform="translate(-10.04 -22.47)"/><path class="cls-4" d="M230.78,228.8c3.22-2.21,15.25-3.26,15.25-3.26" transform="translate(-10.04 -22.47)"/><path class="cls-4" d="M296.87,228.8c-3.22-2.21-15.25-3.26-15.25-3.26" transform="translate(-10.04 -22.47)"/><circle class="cls-10" cx="283.93" cy="329.14" r="3.01"/><circle class="cls-10" cx="228.17" cy="329.14" r="3.01"/><line class="cls-14" x1="231.18" y1="329.59" x2="280.92" y2="329.59"/><circle class="cls-14" cx="283.93" cy="329.14" r="3.01"/><circle class="cls-14" cx="228.17" cy="329.14" r="3.01"/><circle class="cls-17" cx="338.88" cy="88.78" r="5.36"/><circle class="cls-17" cx="120.51" cy="167.18" r="5.36"/><circle class="cls-17" cx="469.2" cy="154.22" r="5.36"/><circle class="cls-17" cx="91.81" cy="67.9" r="5.36"/><circle class="cls-17" cx="187.18" cy="56.29" r="5.36"/><line class="cls-18" x1="87.71" y1="119.59" x2="128.51" y2="110.93"/><line class="cls-18" x1="167.27" y1="126.34" x2="128.51" y2="110.93"/><line class="cls-18" x1="132.94" y1="58.78" x2="128.51" y2="110.93"/><polygon class="cls-4" points="132.94 58.78 99.43 135.65 153.01 140.2 132.94 58.78"/><polygon class="cls-4" points="132.94 58.78 153.01 140.2 167.27 126.34 132.94 58.78"/><polygon class="cls-4" points="132.94 58.78 99.43 135.65 87.71 119.59 132.94 58.78"/><path class="cls-18" d="M61.88,248.48c-.74-3.54,11.69-9.15,27.77-12.53s29.72-3.25,30.46.3" transform="translate(-10.04 -22.47)"/><path class="cls-4" d="M120,235.9l-.15-.17a2.16,2.16,0,0,0-.43-.49L80.14,191.12,62.07,247.31a2.17,2.17,0,0,0-.19.61l-.07.21h0a1.5,1.5,0,0,0,0,.35c.74,3.54,14.38,3.68,30.46.3s28.51-9,27.77-12.53a1.52,1.52,0,0,0-.12-.34Z" transform="translate(-10.04 -22.47)"/><path class="cls-18" d="M402.61,67.08c0,3.68-13.54,6.66-30.24,6.66s-30.24-3-30.24-6.66" transform="translate(-10.04 -22.47)"/><path class="cls-4" d="M342.12,67.43l.11.2a2.2,2.2,0,0,0,.33.58l29.89,52.12L402.17,68.2a2.2,2.2,0,0,0,.32-.56l.11-.2h0a1.52,1.52,0,0,0,0-.36c0-3.68-13.54-6.66-30.24-6.66s-30.25,3-30.25,6.66a1.54,1.54,0,0,0,0,.36Z" transform="translate(-10.04 -22.47)"/><line class="cls-18" x1="383.81" y1="138.47" x2="446.15" y2="134.57"/><polygon class="cls-4" points="404.87 86.53 446.15 134.57 396.07 150.74 404.87 86.53"/><polyline class="cls-4" points="396.07 150.74 383.81 138.47 404.87 86.53"/><polyline class="cls-18" points="464.98 213.06 432.66 226.52 419.21 194.19"/><line class="cls-18" x1="432.66" y1="226.52" x2="424.21" y2="242.18"/><rect class="cls-4" x="426.17" y="224.27" width="35.01" height="35.01" transform="translate(-68.88 166.56) rotate(-22.6)"/><polyline class="cls-4" points="419.21 194.19 451.53 180.74 464.98 213.06"/><line class="cls-4" x1="410.75" y1="209.86" x2="419.21" y2="194.2"/><line class="cls-4" x1="443.07" y1="196.41" x2="451.53" y2="180.74"/><line class="cls-4" x1="456.53" y1="228.73" x2="464.98" y2="213.06"/><path class="cls-18" d="M267.31,97.85c-8.08,0-14.63-16.76-14.63-37.44S259.23,23,267.31,23" transform="translate(-10.04 -22.47)"/><path class="cls-18" d="M229.88,60.41c0-8.08,16.76-14.63,37.44-14.63s37.44,6.55,37.44,14.63" transform="translate(-10.04 -22.47)"/><circle class="cls-4" cx="257.27" cy="37.94" r="37.44"/><path class="cls-4" d="M267.31,23c8.08,0,14.63,16.76,14.63,37.44s-6.55,37.44-14.63,37.44" transform="translate(-10.04 -22.47)"/><path class="cls-4" d="M304.75,60.41C304.75,68.49,288,75,267.31,75s-37.44-6.55-37.44-14.63" transform="translate(-10.04 -22.47)"/></svg>