<svg id="Layer_1" data-name="Layer 1" xmlns="http://www.w3.org/2000/svg" viewBox="0 0 513.94 432.94"><defs><style>.cls-1{fill:#a9d7f3;opacity:0.5;isolation:isolate;}.cls-2{fill:#fff;}.cls-3{fill:#40565b;}.cls-4{fill:#d0e4f0;}.cls-5{fill:#a1c2d8;}.cls-6{fill:#f36f42;}.cls-7{fill:#c84a27;}.cls-8{fill:#29b99a;}.cls-16,.cls-9{fill:#3f555a;}.cls-9{opacity:0.07;}.cls-10,.cls-19{fill:#e7f1f8;}.cls-11{fill:#d0e4f1;}.cls-12{fill:#209176;}.cls-13{fill:#0f716f;}.cls-14{fill:#164a67;}.cls-15{fill:#3aa1d6;}.cls-17{fill:#1785c8;}.cls-18{fill:#faac30;}.cls-19{opacity:0.73;}</style></defs><title>Products-core-v2-K-12 Science-hero</title><path class="cls-1" d="M452.17,257.92c.07-.17.34-.39.19-.51-9.74-8-8.53-13.44.73-16.81,3.53-.69,8.1-1,13.3-1.56,49.32-4.9,65.71-88.86,41.6-79.59-33.84,13-34.83-37.83-3.71-51.64,30.3-25.93-6-64-64.95-51.2-43.19,9.4-44.53,13.66-55,3.19C326.3,1.71,224.35,83.85,193,75.5c-64.82-17.26-71.14-8.24-65.83,5.92-9.13.1-18.06.26-26.72.47-146.34,3.69-44.14,47.33-27,69.8,11.65,15.32,1.21,15.32-15.79,17C8.28,173.61-8.11,257.57,16,248.3c33.84-13,34.83,37.83,3.71,51.64-30.3,25.93,6,64,64.95,51.2,43.19-9.4,44.52-13.66,55-3.19,58,58.08,160-24.05,191.36-15.71,64.82,17.26,71.14,8.24,65.83-5.92,9.13-.1,18.06-.26,26.72-.47C565.93,322.26,473.05,280.85,452.17,257.92Z" transform="translate(-5.03 -6.53)"/><path class="cls-2" d="M185.38,380.78c0-4.27-13.14-82.62-14-90.93,26.4-3.27,30.48-37.74-1.85-41.47.75-13.17,4.41-17.05,11.47-21.72,27.09-17.94,54.8-29.66,103.11-30.12v0h2.95v0c48.31.46,74.61,12.18,101.7,30.12,4.45,2.95,6.49,12,7,24.33-12.44-9.55-39.15,11.88-26.28,34.31l33.27,19.77L392,364.92" transform="translate(-5.03 -6.53)"/><path class="cls-2" d="M122,219.86s-2.39,45.24,71.38,25.27c0,0,21.22,9.4,12.46,38.64.61.47-117.58,34.67-125.67-62.21" transform="translate(-5.03 -6.53)"/><path class="cls-3" d="M161.32,290.59A127,127,0,0,1,140.66,289c-36.77-6.09-57.88-29.39-61-67.38a.6.6,0,1,1,1.2-.1c2.26,27,13.38,46.3,33.07,57.27,36.45,20.32,88.06,5.64,91.5,4.55,3.44-11.67,2.42-21.86-2.94-29.51a25.76,25.76,0,0,0-9.08-8.06c-28.56,7.7-49.18,6.64-61.28-3.14-11.24-9.08-10.66-22.67-10.65-22.81a.6.6,0,0,1,1.2.06c0,.13-.55,13.13,10.22,21.82,11.82,9.54,32.14,10.49,60.4,2.84a.59.59,0,0,1,.4,0c.22.1,21.58,9.94,12.81,39.31a.6.6,0,0,1,0,.13C206.07,284.86,185.33,290.59,161.32,290.59Z" transform="translate(-5.03 -6.53)"/><path class="cls-4" d="M205.88,268.68c.58.45-104.75,30.94-123.31-47.21l-2.36.1c8.09,96.88,126.28,62.68,125.67,62.21,2.52-8.4,2.55-15.16,1.34-20.53A54.35,54.35,0,0,1,205.88,268.68Z" transform="translate(-5.03 -6.53)"/><path class="cls-5" d="M159.69,289.85a1.2,1.2,0,0,1-1.2-1.2v-20a1.2,1.2,0,1,1,2.41,0v20A1.2,1.2,0,0,1,159.69,289.85Z" transform="translate(-5.03 -6.53)"/><path class="cls-5" d="M126.17,284.18a1.2,1.2,0,0,1-1.09-1.71L133,265.53a1.2,1.2,0,1,1,2.18,1l-7.89,16.93A1.2,1.2,0,0,1,126.17,284.18Z" transform="translate(-5.03 -6.53)"/><path class="cls-5" d="M96.09,263.42a1.2,1.2,0,0,1-.69-2.19l16-11.23a1.2,1.2,0,1,1,1.38,2l-16,11.23A1.2,1.2,0,0,1,96.09,263.42Z" transform="translate(-5.03 -6.53)"/><path class="cls-3" d="M161.32,290.59A127,127,0,0,1,140.66,289c-36.77-6.09-57.88-29.39-61-67.38a.6.6,0,1,1,1.2-.1c2.26,27,13.38,46.3,33.07,57.27,36.45,20.32,88.06,5.64,91.5,4.55,3.44-11.67,2.42-21.86-2.94-29.51a25.76,25.76,0,0,0-9.08-8.06c-28.56,7.7-49.18,6.64-61.28-3.14-11.24-9.08-10.66-22.67-10.65-22.81a.6.6,0,0,1,1.2.06c0,.13-.55,13.13,10.22,21.82,11.82,9.54,32.14,10.49,60.4,2.84a.59.59,0,0,1,.4,0c.22.1,21.58,9.94,12.81,39.31a.6.6,0,0,1,0,.13C206.07,284.86,185.33,290.59,161.32,290.59Z" transform="translate(-5.03 -6.53)"/><polyline class="cls-4" points="394.48 166.56 358.32 166.56 358.44 164.77 394.59 164.77"/><path class="cls-3" d="M399.51,173.69H362.2a.6.6,0,0,1-.6-.52l-.25-1.79a.6.6,0,0,1,.6-.69h37.68a.6.6,0,0,1,0,1.2h-37l.08.58h36.8a.6.6,0,0,1,0,1.2Z" transform="translate(-5.03 -6.53)"/><polyline class="cls-4" points="205.7 166.56 169.54 166.56 169.65 164.77 205.81 164.77"/><path class="cls-3" d="M210.73,173.69H173.41a.6.6,0,0,1-.6-.52l-.25-1.79a.6.6,0,0,1,.6-.68h37.68a.6.6,0,0,1,0,1.2h-37l.08.58h36.79a.6.6,0,1,1,0,1.2Z" transform="translate(-5.03 -6.53)"/><circle class="cls-6" cx="165.13" cy="165.67" r="7.58"/><path class="cls-7" d="M170.16,180.38a8.18,8.18,0,1,1,8.18-8.18A8.19,8.19,0,0,1,170.16,180.38Zm0-15.17a7,7,0,1,0,7,7A7,7,0,0,0,170.16,165.22Z" transform="translate(-5.03 -6.53)"/><circle class="cls-6" cx="397.18" cy="165.67" r="7.58"/><path class="cls-7" d="M402.21,180.38a8.18,8.18,0,1,1,8.18-8.18A8.19,8.19,0,0,1,402.21,180.38Zm0-15.17a7,7,0,1,0,7,7A7,7,0,0,0,402.21,165.22Z" transform="translate(-5.03 -6.53)"/><path class="cls-2" d="M185.38,380.78c0-4.27-13.14-82.62-14-90.93,26.4-3.27,30.48-37.74-1.85-41.47.75-13.17,4.41-17.05,11.47-21.72,27.09-17.94,54.8-29.66,103.11-30.12v0h2.95v0c48.31.46,74.61,12.18,101.7,30.12,4.45,2.95,6.49,12,7,24.33-12.44-9.55-39.15,11.88-26.28,34.31" transform="translate(-5.03 -6.53)"/><polygon class="cls-8" points="277.73 374.25 276.65 329.62 265.85 250.29 292.94 250.29 282.13 329.62 279.85 374.25 277.73 374.25"/><polygon class="cls-4" points="217.21 374.25 180.35 374.25 166.39 283.32 182.07 275.68 217.21 374.25"/><polygon class="cls-4" points="335.98 374.25 372.83 374.25 386.8 283.32 371.11 275.68 335.98 374.25"/><path class="cls-3" d="M377.87,381.38H341a.6.6,0,1,1,0-1.2h36.34l13.88-90.42a.6.6,0,1,1,1.19.18l-14,90.93A.6.6,0,0,1,377.87,381.38Z" transform="translate(-5.03 -6.53)"/><path class="cls-3" d="M185.38,381.38a.6.6,0,0,1-.6-.6c0-2.24-3.93-26.75-7.39-48.37-3.18-19.86-6.19-38.63-6.57-42.5a.6.6,0,0,1,.53-.66c13.56-1.68,20.62-11.62,20.58-20.57C191.88,256,179.82,250.17,169.5,249a.6.6,0,0,1-.53-.63c.74-12.9,4.06-17.11,11.74-22.19,26.85-17.79,54.7-29.73,103.28-30.22l.16,0h2.95l.17,0c47.55.48,74.23,11.92,101.86,30.22,4.32,2.86,6.7,11,7.28,24.81a.6.6,0,0,1-1,.5c-5.07-3.89-13.31-2.5-20,3.39-7,6.08-12.53,17.62-5.34,30.14a.6.6,0,0,1-1,.6c-7.55-13.15-1.7-25.27,5.6-31.65,6.75-5.9,15-7.5,20.55-4.14-.64-12.52-2.89-20.14-6.69-22.65-27.48-18.2-54-29.57-101.37-30l-.15,0H284.3l-.15,0c-48.38.46-76.08,12.33-102.78,30-6.37,4.22-10.32,7.74-11.17,20.69,10.67,1.4,22.87,7.63,22.93,20.83,0,9.35-7.18,19.72-21,21.69.57,4.88,3.45,22.86,6.5,41.85,3.64,22.73,7.4,46.22,7.4,48.56A.6.6,0,0,1,185.38,381.38ZM287.1,196.53h0Z" transform="translate(-5.03 -6.53)"/><path class="cls-4" d="M367.86,207.06c0,29.63-37.15,50.34-83,50.34s-83-20.7-83-50.34c0-39.86,11.5-108.38,83-108.38C362,98.68,367.86,167.2,367.86,207.06Z" transform="translate(-5.03 -6.53)"/><path class="cls-2" d="M321.29,105.31c-9.9-4.21-21.89-6.63-36.4-6.63-71.48,0-83,68.53-83,108.38,0,11,5.14,20.78,13.93,28.72,14,6.33,31.59,9.93,50.67,9.93,45.83,0,83-20.7,83-50.34C349.48,168.45,346.81,128.44,321.29,105.31Z" transform="translate(-5.03 -6.53)"/><path class="cls-3" d="M282,237.76c-17,0-31.24-7.66-34.66-20.2a.6.6,0,1,1,1.16-.32c4.29,15.71,26.42,23.4,49.35,17.13a.6.6,0,1,1,.32,1.16A61.49,61.49,0,0,1,282,237.76Z" transform="translate(-5.03 -6.53)"/><rect class="cls-3" x="247.7" y="159.75" width="4.54" height="18.71" rx="2.27" ry="2.27"/><rect class="cls-3" x="307.47" y="159.75" width="4.54" height="18.71" rx="2.27" ry="2.27"/><path class="cls-9" d="M305.71,154.77l20.14,39.85a35.29,35.29,0,0,1-13.41,1.88l-19.08-41.74" transform="translate(-5.03 -6.53)"/><polyline class="cls-9" points="317.24 148.24 333.87 181.1 328.35 185.45 311.15 148.24"/><path class="cls-9" d="M249.63,154.77l20.82,39.68A50,50,0,0,1,246,195.59l-18.79-40.12" transform="translate(-5.03 -6.53)"/><path class="cls-10" d="M352.64,156.59a6.7,6.7,0,0,0-6.66-5.86H223.78a6.7,6.7,0,0,0-6.66,5.86c-1.38,11.13-.82,38.89,27.23,43.11,37,5.57,40.53-18.6,40.53-18.6s3.5,24.17,40.53,18.6C353.46,195.48,354,167.72,352.64,156.59Zm-31.06,39c-33.53,4.58-36.7-15.3-36.7-15.3s-3.17,19.89-36.7,15.3c-25.4-3.47-25.9-27.07-24.66-36.23a5.9,5.9,0,0,1,6-4.82H340.21a5.9,5.9,0,0,1,6,4.82C347.49,168.5,347,192.1,321.58,195.57Z" transform="translate(-5.03 -6.53)"/><path class="cls-5" d="M314.92,201.14c-8.88,0-16.12-2-21.58-6.1a23.69,23.69,0,0,1-8.46-11.52A23.69,23.69,0,0,1,276.43,195c-7.5,5.57-18.33,7.34-32.17,5.25-31-4.66-28.54-37.28-27.74-43.78a7.31,7.31,0,0,1,7.26-6.39H346a7.31,7.31,0,0,1,7.26,6.39c.8,6.49,3.25,39.11-27.74,43.78A71.38,71.38,0,0,1,314.92,201.14Zm-91.14-49.81a6.11,6.11,0,0,0-6.06,5.34c-.78,6.3-3.16,37.94,26.72,42.44,13.52,2,24,.34,31.27-5a23,23,0,0,0,5.45-5.72c-4.63,5.14-14.08,10.41-33.06,7.81-11.21-1.53-18.88-7-22.79-16.34-3.53-8.4-2.84-17.17-2.38-20.56a6.51,6.51,0,0,1,6.63-5.35H340.21a6.51,6.51,0,0,1,6.63,5.35c.46,3.38,1.15,12.16-2.38,20.56-3.92,9.31-11.59,14.81-22.79,16.34l-.08-.6.08.6c-18.95,2.59-28.39-2.66-33-7.79a22.93,22.93,0,0,0,5.45,5.71c7.23,5.36,17.74,7,31.25,5,29.88-4.5,27.5-36.14,26.72-42.44h0a6.11,6.11,0,0,0-6.06-5.34Zm61.1,28.34a.6.6,0,0,1,.59.5c.13.79,3.53,19.25,36,14.8,4.75-.65,28.25-5.42,24.14-35.55a5.3,5.3,0,0,0-5.43-4.3H229.55a5.3,5.3,0,0,0-5.43,4.3c-4.11,30.13,19.39,34.9,24.14,35.55,32.49,4.45,35.9-14,36-14.8A.6.6,0,0,1,284.88,179.67Z" transform="translate(-5.03 -6.53)"/><polygon class="cls-6" points="279.85 173.64 287.07 183.9 294.29 194.16 279.85 194.16 265.42 194.16 272.64 183.9 279.85 173.64"/><path class="cls-7" d="M299.32,201.29H270.45a.6.6,0,0,1-.49-.95l14.43-20.52a.62.62,0,0,1,1,0l14.43,20.52a.6.6,0,0,1-.49.95Zm-27.71-1.2h26.55l-13.27-18.87Z" transform="translate(-5.03 -6.53)"/><path class="cls-5" d="M206.25,167a.6.6,0,0,1,0-1.2l10.46,0a.64.64,0,0,1,.6.6.6.6,0,0,1-.6.6l-10.46,0Z" transform="translate(-5.03 -6.53)"/><path class="cls-5" d="M206.25,171.09a.6.6,0,0,1,0-1.2l10.46,0h0a.6.6,0,0,1,0,1.2l-10.46,0Z" transform="translate(-5.03 -6.53)"/><path class="cls-11" d="M289,303.6l67.42-25.71a1.55,1.55,0,0,1,2,.9l37.14,100c.3.8,8,23.61,7.24,23.91l-87.43,34.22a2.75,2.75,0,0,1-3.59-1.62l-28.53-78.41" transform="translate(-5.03 -6.53)"/><path class="cls-5" d="M353.06,167a.6.6,0,0,1,0-1.2l11.51,0h0a.6.6,0,0,1,0,1.2l-11.51,0Z" transform="translate(-5.03 -6.53)"/><polygon class="cls-12" points="281.22 343.46 280.84 357.56 274.38 340.25 277.68 332.39 281.22 343.46"/><polygon class="cls-4" points="276.37 337.47 241.52 294.27 233 295.36 276.37 337.47"/><polygon class="cls-4" points="251.37 289.26 260.92 288.03 217.21 234.9 242.5 278.48 251.37 289.26"/><polygon class="cls-4" points="281.94 339.07 318.09 294.27 326.61 295.36 281.94 339.07"/><polygon class="cls-4" points="308.24 289.26 298.69 288.03 342.4 234.9 317.11 278.48 308.24 289.26"/><path class="cls-4" d="M365.31,220.1c-9.12,22.49-41.67,37.3-80.43,37.3-39.19,0-72-15.15-80.71-38.06-3.39,3.74-5.24,7.78-5.24,12,0,19.17,38.28,34.71,85.49,34.71s85.49-15.54,85.49-34.71C369.91,227.4,368.28,223.62,365.31,220.1Z" transform="translate(-5.03 -6.53)"/><path class="cls-12" d="M296.76,265.68l1.21-8.86h-.07c-4.24.38-8.58.58-13,.58s-8.76-.2-13-.58h-1l1.21,8.86q6,.35,12.34.36T296.76,265.68Z" transform="translate(-5.03 -6.53)"/><path class="cls-11" d="M282.11,353.9l-16.06-38.72a1.55,1.55,0,0,1,.9-2l8.05-3.07,7.69,14.36" transform="translate(-5.03 -6.53)"/><path class="cls-5" d="M281.88,344.91a.6.6,0,0,1-.47-.22L243.6,297.75a.6.6,0,0,1,.39-1l20.8-2.67-43-52.29a.6.6,0,1,1,.93-.77l43.71,53.13a.6.6,0,0,1-.39,1l-20.82,2.67,37.14,46.1a.6.6,0,0,1-.47,1Z" transform="translate(-5.03 -6.53)"/><path class="cls-5" d="M286.73,345.2a.6.6,0,0,1-.47-1l37.38-46.39-20.82-2.67a.6.6,0,0,1-.39-1l43.71-53.13a.6.6,0,1,1,.93.77l-43,52.29,20.8,2.67a.6.6,0,0,1,.39,1L287.2,345A.6.6,0,0,1,286.73,345.2Z" transform="translate(-5.03 -6.53)"/><path class="cls-5" d="M353.05,171.09a.6.6,0,0,1,0-1.2l11.79,0h0a.6.6,0,0,1,0,1.2l-11.79,0Z" transform="translate(-5.03 -6.53)"/><path class="cls-13" d="M284.88,381.38h0a.6.6,0,0,1-.57-.63l2.28-44.63,10.81-79.38a.6.6,0,1,1,1.19.16l-10.8,79.33-2.28,44.58A.6.6,0,0,1,284.88,381.38Z" transform="translate(-5.03 -6.53)"/><path class="cls-13" d="M282.76,381.38a.6.6,0,0,1-.6-.59l-1.08-44.63-10.8-79.26a.6.6,0,1,1,1.19-.16l10.8,79.33,1.08,44.7a.6.6,0,0,1-.59.62Z" transform="translate(-5.03 -6.53)"/><path class="cls-14" d="M321.06,439.47a2.15,2.15,0,0,1-2-1.38l-48.81-128a2.15,2.15,0,0,1,1.24-2.78l89.12-34a2.16,2.16,0,0,1,2.78,1.24l48.81,128a2.15,2.15,0,0,1-1.24,2.78l-89.12,34A2.13,2.13,0,0,1,321.06,439.47Zm40.3-165.08a.93.93,0,0,0-.34.06l-89.12,34h0a.95.95,0,0,0-.55,1.22l48.81,128a1,1,0,0,0,1.22.55l89.12-34a.95.95,0,0,0,.55-1.22L362.25,275A1,1,0,0,0,361.36,274.39ZM271.7,307.87h0Z" transform="translate(-5.03 -6.53)"/><rect class="cls-15" x="291.97" y="286.28" width="98.48" height="140.09" rx="1.55" ry="1.55" transform="translate(-109.6 138.43) rotate(-20.87)"/><path class="cls-4" d="M340.83,338.18l-3.14-8.27L326.85,334l3,7.92-6.74,2.55-6.46-17c-2.89-7.58-.26-13.2,7.68-16.34,8.3-3.29,14.63,1.41,17.52,9l5.87,15.41ZM334.67,322c-1.46-3.84-3.87-6-7.91-4.4-3.8,1.5-4.49,4.34-3,8.17l.88,2.3,10.83-4.11Z" transform="translate(-5.03 -6.53)"/><path class="cls-16" d="M323.13,345.09a.6.6,0,0,1-.56-.39l-6.46-17c-3-7.92-.24-13.84,8-17.11a12.8,12.8,0,0,1,10.17-.12c3.51,1.55,6.4,4.91,8.13,9.46l5.87,15.41a.6.6,0,0,1-.35.78l-6.91,2.6a.6.6,0,0,1-.77-.35l-2.93-7.71-9.71,3.68,2.8,7.36a.6.6,0,0,1-.35.78l-6.74,2.55A.6.6,0,0,1,323.13,345.09Zm6.43-34.38a13.54,13.54,0,0,0-5,1c-7.65,3-10.12,8.27-7.34,15.57l6.25,16.41,5.61-2.12-2.8-7.36a.6.6,0,0,1,.35-.78l10.83-4.11a.6.6,0,0,1,.78.35l2.93,7.71,5.78-2.17-5.65-14.85c-1.62-4.25-4.28-7.37-7.49-8.79A10.46,10.46,0,0,0,329.56,310.71Zm-5,17.95a.6.6,0,0,1-.56-.39l-.88-2.3c-1.67-4.39-.54-7.4,3.37-8.94a6.1,6.1,0,0,1,4.8-.15c1.63.72,2.94,2.36,3.9,4.89l.77,2a.6.6,0,0,1-.35.78l-10.83,4.11A.61.61,0,0,1,324.6,328.66Zm4.66-11a6.25,6.25,0,0,0-2.28.49c-3.26,1.29-4.12,3.64-2.69,7.39l.66,1.74,9.7-3.68-.54-1.39h0c-.84-2.22-1.94-3.64-3.26-4.22A3.87,3.87,0,0,0,329.26,317.66Z" transform="translate(-5.03 -6.53)"/><path class="cls-17" d="M389.21,344c-4.51,12.16-18.77,14.07-18.77,14.07-14.82-2.65-39,3.87-38.51,13.06.18,3.14,2,4.24,4.46,4.21v0c-2,.63-4.1,1.29-6.48,2-7.3,2.11-12.33,8.25-14.09,15.22l0,.19a22.79,22.79,0,0,0-.49,2.75l0,.18q-.07.63-.1,1.27v.14c0,.47,0,.95,0,1.42v.05c0,.44,0,.87.07,1.31l0,.23a20.81,20.81,0,0,0,.44,2.72l.06.23q.14.58.32,1.16l.06.19q.21.66.47,1.31l.06.14q.23.57.5,1.12l.13.27a19.29,19.29,0,0,0,1.43,2.39l.19.26q.34.47.72.93l.18.22q.46.55,1,1.07l.18.18q.43.43.9.84l.29.26c.37.31.75.62,1.15.91l0,0c.41.3.85.59,1.3.87l.36.22q.55.33,1.13.64l.33.18q.73.37,1.51.71l.33.13q.65.27,1.32.51l.47.17c.55.18,1.1.36,1.68.52l.07,0c.6.16,1.23.31,1.86.44l.54.11q.77.15,1.58.27l.48.07q1,.14,2.09.23l.48,0q.88.07,1.8.1l.65,0c.76,0,1.52,0,2.32,0h.05c.81,0,1.64-.06,2.49-.12l.72-.05q1-.08,2.09-.2l.61-.06q1.34-.16,2.73-.38l.63-.11q1.14-.19,2.32-.42l.82-.16c1-.2,2-.42,3-.67,8.83-2.11,15.15-5.27,19.65-8.81q.84-.66,1.61-1.35a30.56,30.56,0,0,0,2.73-2.77,27.41,27.41,0,0,0,3.79-5.64c.34-.67.62-1.33.89-2l1.9-1.19A91.73,91.73,0,0,0,405,385.43Zm-39.75,26.34c3.06-1.78,5.29-3.35,5.29-3.35S353.88,368.2,349.46,370.34Z" transform="translate(-5.03 -6.53)"/><path class="cls-16" d="M321.06,439.47a2.15,2.15,0,0,1-2-1.38l-48.81-128a2.15,2.15,0,0,1,1.24-2.78l89.12-34a2.16,2.16,0,0,1,2.78,1.24l48.81,128a2.15,2.15,0,0,1-1.24,2.78l-89.12,34A2.13,2.13,0,0,1,321.06,439.47Zm40.3-165.08a.93.93,0,0,0-.34.06l-89.12,34h0a.95.95,0,0,0-.55,1.22l48.81,128a1,1,0,0,0,1.22.55l89.12-34a.95.95,0,0,0,.55-1.22L362.25,275A1,1,0,0,0,361.36,274.39ZM271.7,307.87h0Z" transform="translate(-5.03 -6.53)"/><path class="cls-2" d="M324.67,276h0a2.76,2.76,0,0,0-3.57-1.6l-18.72,7.14a2.76,2.76,0,0,0-1.6,3.57h0a2.76,2.76,0,0,1-1.6,3.57l-6.85,2.61a2.76,2.76,0,0,0-1.6,3.57l3.5,9.19a2.76,2.76,0,0,0,3.57,1.6l42.75-16.3a2.76,2.76,0,0,0,1.6-3.57l-3.5-9.19a2.76,2.76,0,0,0-3.57-1.6l-6.85,2.61A2.76,2.76,0,0,1,324.67,276Z" transform="translate(-5.03 -6.53)"/><path class="cls-11" d="M296.27,299.61,293,291.06l-.67.25a2.76,2.76,0,0,0-1.6,3.57l3.5,9.19a2.76,2.76,0,0,0,3.57,1.6l42.75-16.3a2.76,2.76,0,0,0,1.6-3.57l-.24-.64-42.08,16A2.76,2.76,0,0,1,296.27,299.61Z" transform="translate(-5.03 -6.53)"/><path class="cls-11" d="M315.62,281.62a3.34,3.34,0,0,1,1,1.36,3.39,3.39,0,0,1-2,4.38,3.34,3.34,0,0,1-1.4.21,3.38,3.38,0,1,0,2.39-6Z" transform="translate(-5.03 -6.53)"/><circle class="cls-2" cx="314.21" cy="284.46" r="2.99" transform="translate(-85.77 124.1) rotate(-20.87)"/><path class="cls-16" d="M314.21,288.06a3.59,3.59,0,1,1,3.36-4.88h0a3.6,3.6,0,0,1-3.36,4.88Zm0-6a2.39,2.39,0,1,0,2.24,1.54h0A2.4,2.4,0,0,0,314.21,282.07Z" transform="translate(-5.03 -6.53)"/><path class="cls-11" d="M298.11,289.64l8.58-3.27a3.9,3.9,0,0,0,2.51-3.71v-.46l-8.5,3.24-.14,2.1Z" transform="translate(-5.03 -6.53)"/><path class="cls-16" d="M296.83,306.45a3.37,3.37,0,0,1-3.14-2.17l-3.5-9.19a3.36,3.36,0,0,1,1.94-4.34l6.85-2.61a2.17,2.17,0,0,0,1.25-2.79,3.36,3.36,0,0,1,1.94-4.34l18.72-7.14a3.37,3.37,0,0,1,4.34,1.95h0a2.16,2.16,0,0,0,2.79,1.25l6.85-2.61a3.36,3.36,0,0,1,4.34,1.95l3.5,9.19a3.36,3.36,0,0,1-1.94,4.34L298,306.23A3.36,3.36,0,0,1,296.83,306.45Zm25.26-31.6a2.15,2.15,0,0,0-.77.14l-18.72,7.14a2.16,2.16,0,0,0-1.25,2.79,3.37,3.37,0,0,1-1.95,4.34l-6.85,2.61a2.16,2.16,0,0,0-1.25,2.79l3.5,9.19a2.16,2.16,0,0,0,2.79,1.25l42.75-16.3a2.16,2.16,0,0,0,1.25-2.79l-3.5-9.19a2.16,2.16,0,0,0-2.79-1.25l-6.85,2.61a3.36,3.36,0,0,1-4.34-1.95A2.17,2.17,0,0,0,322.09,274.85Z" transform="translate(-5.03 -6.53)"/><path class="cls-18" d="M102.65,79.86c-7.31,0-13-16.11-13-36.67s5.73-36.67,13-36.67,13,16.11,13,36.67S110,79.86,102.65,79.86Zm0-72.13C96.24,7.73,90.82,24,90.82,43.2s5.42,35.46,11.83,35.46,11.83-16.24,11.83-35.46S109.07,7.73,102.65,7.73Z" transform="translate(-5.03 -6.53)"/><path class="cls-13" d="M79.05,64.32c-4.32,0-7.27-1.17-8.52-3.44-1.73-3.15.08-7.94,5.1-13.49C80.5,42,87.87,36.45,96.37,31.77l.29.53-.29-.53c8.5-4.68,17.12-7.93,24.29-9.17,7.37-1.27,12.39-.24,14.12,2.91s-.08,7.94-5.1,13.49c-4.88,5.39-12.25,10.93-20.74,15.61s-17.12,7.93-24.29,9.17A33.25,33.25,0,0,1,79.05,64.32Zm17.9-31.49C88.56,37.44,81.31,42.9,76.52,48.19c-4.58,5.06-6.38,9.47-4.93,12.1s6.14,3.47,12.86,2.31c7-1.22,15.53-4.42,23.91-9S124,43.5,128.79,38.2c4.58-5.06,6.38-9.47,4.93-12.1s-6.13-3.47-12.86-2.31c-7,1.22-15.53,4.42-23.91,9Z" transform="translate(-5.03 -6.53)"/><path class="cls-15" d="M122.26,59.41A86.22,86.22,0,0,1,99,55.72h0C79.27,50,65.4,40,67.44,33c1-3.46,5.67-5.56,13.14-5.94,7.25-.36,16.39.93,25.7,3.63C126,36.4,139.9,46.39,137.87,53.41c-1,3.46-5.67,5.56-13.14,5.94Q123.52,59.41,122.26,59.41Zm-22.9-4.85c9.19,2.67,18.18,3.94,25.31,3.58,6.82-.34,11.21-2.19,12-5.07,1.79-6.16-12.3-15.89-30.76-21.25-9.19-2.67-18.19-3.93-25.31-3.58-6.82.34-11.21,2.19-12,5.07-1.79,6.16,12.3,15.89,30.76,21.25Z" transform="translate(-5.03 -6.53)"/><circle class="cls-6" cx="97.62" cy="36.67" r="4.28"/><path class="cls-7" d="M102.65,48.08a4.88,4.88,0,1,1,4.88-4.88A4.89,4.89,0,0,1,102.65,48.08Zm0-8.56a3.68,3.68,0,1,0,3.68,3.68A3.68,3.68,0,0,0,102.65,39.52Z" transform="translate(-5.03 -6.53)"/><circle class="cls-8" cx="78.77" cy="34.01" r="1.63"/><path class="cls-13" d="M83.8,42.77A2.23,2.23,0,1,1,86,40.54,2.23,2.23,0,0,1,83.8,42.77Zm0-3.25a1,1,0,1,0,1,1A1,1,0,0,0,83.8,39.52Z" transform="translate(-5.03 -6.53)"/><circle class="cls-15" cx="120.92" cy="52.29" r="1.63"/><path class="cls-14" d="M125.95,61a2.23,2.23,0,1,1,2.23-2.23A2.23,2.23,0,0,1,125.95,61Zm0-3.25a1,1,0,1,0,1,1A1,1,0,0,0,125.95,57.8Z" transform="translate(-5.03 -6.53)"/><path class="cls-2" d="M370.44,351.85s45.88-6.12-.91-66.55c-13.85-26.23,6.66-46.12,26.28-34.31-3.41-1.5,78.42,94.78-7.91,139.48" transform="translate(-5.03 -6.53)"/><path class="cls-2" d="M370.44,351.85s45.88-6.12-.91-66.55c-13.85-26.23,6.66-46.12,26.28-34.31-3.41-1.5,78.42,94.78-7.91,139.48" transform="translate(-5.03 -6.53)"/><path class="cls-4" d="M395.81,251c-.54-.33-1.09-.62-1.63-.9-9.18,5.49-13.59,19.16-5.11,35.21,46.79,60.44-6.24,75.63-6.24,75.63L386,391.79l14.79-9.29C465.32,335.3,392.59,249.56,395.81,251Z" transform="translate(-5.03 -6.53)"/><path class="cls-2" d="M389.5,377.65s5,25.12-30.37,33.57c-52.75,12.61-52.07-33.51-29.22-40.11,22-6.35,24.83-10.33,24.83-10.33s-22.17,15.62-22.83,4.13,37.4-18.83,47.36-9.24A56.4,56.4,0,0,1,389.5,377.65Z" transform="translate(-5.03 -6.53)"/><path class="cls-4" d="M388.73,374.57c-2.26,7.94-9.22,18.34-29.59,23.21-26.31,6.29-39.33-2-42.93-12.78-4.76,15,6,35.06,42.93,26.22,35.34-8.45,30.37-33.57,30.37-33.57C389.27,376.61,389,375.58,388.73,374.57Z" transform="translate(-5.03 -6.53)"/><path class="cls-4" d="M336.39,369.14s-1.51-4.22,5.08-7.33a20.17,20.17,0,0,1,13.27-1A61.31,61.31,0,0,1,336.39,369.14Z" transform="translate(-5.03 -6.53)"/><path class="cls-5" d="M402.8,299a1.2,1.2,0,0,1-.46-2.32l14.89-6.2a1.2,1.2,0,0,1,.92,2.22l-14.89,6.2A1.19,1.19,0,0,1,402.8,299Z" transform="translate(-5.03 -6.53)"/><path class="cls-3" d="M342.72,413.88c-12.85,0-24.26-4.37-27.48-16.55-3-11.39,3.64-23.66,14.51-26.8q2.2-.64,4.15-1.24l-.16-.07c-1.49-.72-2.3-2.16-2.43-4.28-.2-3.57,2.83-6.9,8.79-9.63,12.17-5.59,32.54-6.87,39.59-.08a57.25,57.25,0,0,1,10.4,22.29h0c.05.26,4.68,25.78-30.82,34.27A72.25,72.25,0,0,1,342.72,413.88Zm-6.14-44.18c-2,.63-4.12,1.29-6.5,2-10.26,3-16.52,14.56-13.68,25.34,4.35,16.5,24.85,17.85,42.59,13.61,14.23-3.4,23.91-10.16,28-19.55a24.81,24.81,0,0,0,1.92-13.32A56,56,0,0,0,378.8,356c-6.47-6.22-26.43-5-38.19.38-5.39,2.47-8.26,5.48-8.09,8.47.1,1.67.67,2.74,1.75,3.26a5,5,0,0,0,2.06.39,101.31,101.31,0,0,0,13-5c2.08-1.21,3.88-2.38,5.06-3.22a.6.6,0,0,1,.84.84c-.07.09-1,1.33-5.37,3.46C345.92,366.88,340.53,369.55,336.58,369.71Z" transform="translate(-5.03 -6.53)"/><path class="cls-5" d="M426.41,324.32h-.05l-16.14-.68a1.2,1.2,0,0,1-1.15-1.25,1.22,1.22,0,0,1,1.25-1.15l16.14.68a1.2,1.2,0,0,1,0,2.41Z" transform="translate(-5.03 -6.53)"/><path class="cls-5" d="M420.3,359.53a1.2,1.2,0,0,1-.64-.19l-15.48-9.78a1.2,1.2,0,1,1,1.29-2l15.48,9.78a1.2,1.2,0,0,1-.64,2.22Z" transform="translate(-5.03 -6.53)"/><path class="cls-3" d="M387.89,391.06a.6.6,0,0,1-.28-1.14C408,379.39,420.57,365,425.09,347.27c6.32-24.82-3-55.84-27.54-92.2a30.34,30.34,0,0,1-2.4-3.78c-8.24-4.8-17.14-4.18-23.29,1.64-9.22,8.72-6.73,22.74-1.79,32.09,18,23.2,24.54,41.27,19.46,53.64-4.84,11.78-18.86,13.78-19,13.79a.6.6,0,0,1-.16-1.19c.13,0,13.49-1.94,18.05-13.07,4.89-11.94-1.62-29.61-19.36-52.52-5.19-9.81-7.74-24.43,2-33.61,6.65-6.29,16.27-6.9,25.1-1.58a.6.6,0,0,1,.28.65c.3.54,1.17,1.82,2.15,3.27,24.79,36.66,34.12,68,27.71,93.17-4.61,18.12-17.42,32.73-38.09,43.42A.6.6,0,0,1,387.89,391.06Z" transform="translate(-5.03 -6.53)"/><path class="cls-3" d="M387.89,391.06a.6.6,0,0,1-.28-1.14C408,379.39,420.57,365,425.09,347.27c6.32-24.82-3-55.84-27.54-92.2a30.34,30.34,0,0,1-2.4-3.78c-8.24-4.8-17.14-4.18-23.29,1.64-9.22,8.72-6.73,22.74-1.79,32.09,18,23.2,24.54,41.27,19.46,53.64-4.84,11.78-18.86,13.78-19,13.79a.6.6,0,0,1-.16-1.19c.13,0,13.49-1.94,18.05-13.07,4.89-11.94-1.62-29.61-19.36-52.52-5.19-9.81-7.74-24.43,2-33.61,6.65-6.29,16.27-6.9,25.1-1.58a.6.6,0,0,1,.28.65c.3.54,1.17,1.82,2.15,3.27,24.79,36.66,34.12,68,27.71,93.17-4.61,18.12-17.42,32.73-38.09,43.42A.6.6,0,0,1,387.89,391.06Z" transform="translate(-5.03 -6.53)"/><path class="cls-3" d="M387.89,391.06a.6.6,0,0,1-.28-1.14C408,379.39,420.57,365,425.09,347.27c6.32-24.82-3-55.84-27.54-92.2a30.34,30.34,0,0,1-2.4-3.78c-8.24-4.8-17.14-4.18-23.29,1.64-9.22,8.72-6.73,22.74-1.79,32.09,18,23.2,24.54,41.27,19.46,53.64-4.84,11.78-18.86,13.78-19,13.79a.6.6,0,0,1-.16-1.19c.13,0,13.49-1.94,18.05-13.07,4.89-11.94-1.62-29.61-19.36-52.52-5.19-9.81-7.74-24.43,2-33.61,6.65-6.29,16.27-6.9,25.1-1.58a.6.6,0,0,1,.28.65c.3.54,1.17,1.82,2.15,3.27,24.79,36.66,34.12,68,27.71,93.17-4.61,18.12-17.42,32.73-38.09,43.42A.6.6,0,0,1,387.89,391.06Z" transform="translate(-5.03 -6.53)"/><path class="cls-2" d="M90.51,226s-28.08-4.56-21.62-36.9c9.65-48.27,57-31.73,54-10.42-2.9,20.5,0,24.24,0,24.24s-6.6-23.86,5.54-20.43,3.37,37.65-10.81,42.61A77.92,77.92,0,0,1,90.51,226Z" transform="translate(-5.03 -6.53)"/><path d="M101.42,227.35a77,77,0,0,1-11-.79h0c-.47-.08-11.58-2-18.27-11.63-4.65-6.71-5.94-15.45-3.84-26,5.34-26.72,21.81-33.75,35.43-31.43,12.25,2.09,21.1,11.6,19.74,21.21q-.29,2.07-.51,3.92c1.37-1.18,3.26-1.43,5.62-.77,3.8,1.07,6,5,6.17,11.08.37,12-7.11,29.24-16.95,32.68A80.66,80.66,0,0,1,101.42,227.35Zm-10.81-2a77.69,77.69,0,0,0,26.89-.89c7.59-2.66,16.5-17.31,16.07-31.48-.1-3.19-.91-8.72-5.3-10-2.1-.59-3.64-.36-4.71.71a4.64,4.64,0,0,0-.83,1.16,73.89,73.89,0,0,0-.41,12.46c.51,3,1.13,5.31,1.15,5.37l.81,2.94-1.87-2.41c-.07-.09-.95-1.31-1.28-5.68-.69-4.12-1.14-9.61.42-13,.19-1.83.43-3.85.74-6,1.27-9-7.14-17.88-18.76-19.86-13.06-2.23-28.87,4.61-34,30.48-2,10.2-.81,18.63,3.65,25.06C79.49,223.41,90.34,225.33,90.61,225.37Z" transform="translate(-5.03 -6.53)"/><path class="cls-10" d="M121.95,201.93c8.42-2-12,13.91-35.69,7.74-13.12-3.42-9.51-9.17-9.51-9.17" transform="translate(-5.03 -6.53)"/><path class="cls-3" d="M101.42,227.35a77,77,0,0,1-11-.79h0c-.47-.08-11.58-2-18.27-11.63-4.65-6.71-5.94-15.45-3.84-26,5.34-26.72,21.81-33.75,35.43-31.43,12.25,2.09,21.1,11.6,19.74,21.21q-.29,2.07-.51,3.92c1.37-1.18,3.26-1.43,5.62-.77,3.8,1.07,6,5,6.17,11.08.37,12-7.11,29.24-16.95,32.68A80.66,80.66,0,0,1,101.42,227.35Zm-10.81-2a77.69,77.69,0,0,0,26.89-.89c7.59-2.66,16.5-17.31,16.07-31.48-.1-3.19-.91-8.72-5.3-10-2.1-.59-3.64-.36-4.71.71a4.64,4.64,0,0,0-.83,1.16,73.89,73.89,0,0,0-.41,12.46c.51,3,1.13,5.31,1.15,5.37a.6.6,0,0,1-1.06.53c-.07-.09-.95-1.31-1.28-5.68-.69-4.12-1.14-9.61.42-13,.19-1.83.43-3.85.74-6,1.27-9-7.14-17.88-18.76-19.86-13.06-2.23-28.87,4.61-34,30.48-2,10.2-.81,18.63,3.65,25.06C79.49,223.41,90.34,225.33,90.61,225.37Z" transform="translate(-5.03 -6.53)"/><rect class="cls-2" x="86.6" y="84.08" width="22.15" height="2.84"/><line class="cls-2" x1="115.36" y1="148.64" x2="115.36" y2="148.64"/><path class="cls-2" d="M86.26,151.08s7-7.91,21.65,0a39.32,39.32,0,0,0,12.48,4.09l-9.14-30.34V93.45H94.17v31.39l-7.91,26.25" transform="translate(-5.03 -6.53)"/><path class="cls-19" d="M86.26,151.08s7-7.91,21.65,0a39.32,39.32,0,0,0,12.48,4.09l11,36.39-2.68,8.93c-17.21,4.26-34.52,4-51.91,0l-2.68-8.93,10.06-33.39Z" transform="translate(-5.03 -6.53)"/><path class="cls-5" d="M120.39,155.78h-.07a39.55,39.55,0,0,1-12.7-4.16c-14-7.57-20.63-.44-20.91-.13a.6.6,0,0,1-.9-.8,12.18,12.18,0,0,1,5.63-3.15c3.38-.93,9-1.16,16.75,3a39,39,0,0,0,12.27,4,.6.6,0,0,1-.07,1.2Z" transform="translate(-5.03 -6.53)"/><path class="cls-3" d="M113.78,94.05H91.64a.6.6,0,0,1-.6-.6V90.61a.6.6,0,0,1,.6-.6h22.15a.6.6,0,0,1,.6.6v2.84A.6.6,0,0,1,113.78,94.05Zm-21.55-1.2h20.94V91.21H92.24Z" transform="translate(-5.03 -6.53)"/><path class="cls-3" d="M103.16,204.18a117.89,117.89,0,0,1-26.55-3.1.6.6,0,0,1-.44-.41l-2.68-8.93a.6.6,0,0,1,0-.35l20.07-66.65V93.45a.6.6,0,0,1,.6-.6h17.09a.6.6,0,0,1,.6.6v31.3l20.07,66.65a.6.6,0,0,1,0,.35l-2.68,8.93a.6.6,0,0,1-.43.41A106.47,106.47,0,0,1,103.16,204.18ZM77.23,200a110.05,110.05,0,0,0,51,0l2.53-8.43-20-66.56a.58.58,0,0,1,0-.17V94.05H94.77v30.78a.58.58,0,0,1,0,.17l-20,66.56Zm16.94-75.15h0Z" transform="translate(-5.03 -6.53)"/><path class="cls-3" d="M104.84,185.26h-4.27a.6.6,0,1,1,0-1.2h4.27a.6.6,0,1,1,0,1.2Z" transform="translate(-5.03 -6.53)"/><path class="cls-3" d="M104.84,178.34h-4.27a.6.6,0,1,1,0-1.2h4.27a.6.6,0,1,1,0,1.2Z" transform="translate(-5.03 -6.53)"/><path class="cls-3" d="M104.84,171.43h-4.27a.6.6,0,1,1,0-1.2h4.27a.6.6,0,1,1,0,1.2Z" transform="translate(-5.03 -6.53)"/><path class="cls-3" d="M104.84,164.52h-4.27a.6.6,0,1,1,0-1.2h4.27a.6.6,0,1,1,0,1.2Z" transform="translate(-5.03 -6.53)"/><path class="cls-3" d="M104.84,157.6h-4.27a.6.6,0,1,1,0-1.2h4.27a.6.6,0,1,1,0,1.2Z" transform="translate(-5.03 -6.53)"/><path class="cls-3" d="M104.84,150.69h-4.27a.6.6,0,1,1,0-1.2h4.27a.6.6,0,1,1,0,1.2Z" transform="translate(-5.03 -6.53)"/><path class="cls-3" d="M104.84,143.78h-4.27a.6.6,0,0,1,0-1.2h4.27a.6.6,0,1,1,0,1.2Z" transform="translate(-5.03 -6.53)"/><path class="cls-3" d="M104.84,192.17h-4.27a.6.6,0,0,1-.6-.6V136.26a.6.6,0,0,1,.6-.6h4.27a.6.6,0,1,1,0,1.2h-3.67V191h3.67a.6.6,0,1,1,0,1.2Z" transform="translate(-5.03 -6.53)"/><path class="cls-5" d="M88.5,174a2.84,2.84,0,1,1,2.84-2.84A2.84,2.84,0,0,1,88.5,174Zm0-4.48a1.64,1.64,0,1,0,1.64,1.64A1.64,1.64,0,0,0,88.5,169.48Z" transform="translate(-5.03 -6.53)"/><path class="cls-5" d="M93,183.8A2.84,2.84,0,1,1,95.81,181,2.84,2.84,0,0,1,93,183.8Zm0-4.48A1.64,1.64,0,1,0,94.61,181,1.64,1.64,0,0,0,93,179.32Z" transform="translate(-5.03 -6.53)"/><path class="cls-2" d="M122.88,202.89s-6.6-23.86,5.54-20.43,3.37,37.65-10.81,42.61" transform="translate(-5.03 -6.53)"/><path class="cls-10" d="M128.43,182.46a5.49,5.49,0,0,0-4.62.33c9,4,7.54,18.49-1.63,34.84-2.33,4.15-4.56,7.44-4.56,7.44C131.8,220.11,140.58,185.9,128.43,182.46Z" transform="translate(-5.03 -6.53)"/><path class="cls-3" d="M117.62,225.68a.6.6,0,0,1-.2-1.17c7.67-2.68,16.58-17.33,16.14-31.51-.1-3.19-.91-8.72-5.3-10-2.1-.59-3.63-.36-4.71.71-4.14,4.12-.13,18.84-.09,19a.6.6,0,1,1-1.16.32c-.18-.63-4.24-15.54.4-20.16,1.39-1.38,3.37-1.72,5.88-1,3.8,1.07,6,5,6.17,11.08.37,12-7.11,29.24-16.95,32.68A.6.6,0,0,1,117.62,225.68Z" transform="translate(-5.03 -6.53)"/><path class="cls-3" d="M76.75,201.1H72.61a.6.6,0,0,1,0-1.2h4.14a.6.6,0,0,1,0,1.2Z" transform="translate(-5.03 -6.53)"/><path class="cls-3" d="M284.88,258c-47.65,0-83.58-21.9-83.58-50.94,0-32.77,8.14-109,83.58-109,33.89,0,57.77,13.32,71,39.58,11.32,22.55,12.63,50.41,12.63,69.41C368.47,236.1,332.53,258,284.88,258Zm0-158.72c-31.17,0-54,13.1-67.76,38.93C205,160.83,202.5,188.13,202.5,207.06c0,28.35,35.42,49.74,82.38,49.74s82.38-21.38,82.38-49.74c0-18.88-1.3-46.55-12.5-68.87C341.79,112.37,318.28,99.28,284.88,99.28Z" transform="translate(-5.03 -6.53)"/></svg>