<svg id="Layer_1" data-name="Layer 1" xmlns="http://www.w3.org/2000/svg" viewBox="0 0 569.29 408.57"><defs><style>.cls-1{fill:#a9d7f3;opacity:0.5;isolation:isolate;}.cls-2{fill:#d0e4f1;}.cls-3{fill:#fff;}.cls-4{fill:#e7f1f8;}.cls-5{fill:#40565b;}.cls-6{fill:#a1c2d8;}.cls-7{fill:#ffdc64;}.cls-8{fill:#f9ca46;}.cls-9{fill:#faac30;}.cls-10{fill:#d0e4f0;}.cls-11{fill:#f36f42;}.cls-12{fill:#c84a27;}.cls-13{fill:#f26f42;}.cls-14{fill:#1785c8;}.cls-15{fill:#3aa1d6;}.cls-16{fill:#164a67;}.cls-17{fill:#c3d4e0;}</style></defs><title>Products-core-v2-K-12 College Entrance-hero</title><path class="cls-1" d="M482.73,147.67s111.56-.86,99.5-69.66c-7-39.86-78.66-39.37-78.66-39.37H106.74s-49.17-.49-54,39.37C44.51,146.81,121,147.67,121,147.67s15.24-6.15,13.67,19.19S121,185.48,121,185.48,67.8,174,74.51,226.49c4.42,34.55,37,30.2,62.94,26.48a25.51,25.51,0,0,0-2.58,8.65c-5.07,42.2,41.86,42.72,41.86,42.72s9.35-3.77,8.38,11.77-8.38,11.42-8.38,11.42-32.65-7-28.54,25.16,48,9.36,57.08,16.37c4.66,3.61,6.72,9.57,7.63,14.51a12.32,12.32,0,0,0-1.74,8.84c1.52,11,21.06,12.41,21.06,12.41l108.16,8.5s13.4,1.19,15.08-9.57-4.52-15.85-10.08-18.3c1-5.22,3.9-12.31,11.57-16.38,13.19-7,77.21,15.8,83.2-16.37s-41.6-25.16-41.6-25.16-5.3,2-9-2.12c5.2,0,20.6-1.13,22.88-15.67a34.88,34.88,0,0,0,.42-6.62c19.63-2.77,51.89-11.84,46.7-41.51a20.16,20.16,0,0,0-4-9c38.28,3.76,88.35,9.38,95-26.16,9.78-52.45-67.83-41-67.83-41s-17.63,6.72-19.93-18.62S482.73,147.67,482.73,147.67Z" transform="translate(-13.86 -13.71)"/><circle class="cls-2" cx="282.18" cy="150.97" r="8.35"/><path class="cls-2" d="M296,173.78a9.09,9.09,0,1,1,9.09-9.09A9.1,9.1,0,0,1,296,173.78Zm0-16.7a7.62,7.62,0,1,0,7.62,7.62A7.62,7.62,0,0,0,296,157.07Z" transform="translate(-13.86 -13.71)"/><path class="cls-2" d="M280.81,154a12.6,12.6,0,0,0-13.59-9.41,24.77,24.77,0,0,0-11.61-22.29A52.65,52.65,0,0,0,261,99.25C261,56,205.87,20.88,137.82,20.88S14.59,56,14.59,99.25s55.17,78.37,123.23,78.37c32.35,0,61.77-7.94,83.76-20.91a24.8,24.8,0,0,0,35.9,6.32,12.6,12.6,0,0,0,23.33-9Z" transform="translate(-13.86 -13.71)"/><path class="cls-2" d="M137.82,178.36c-68.35,0-124-35.49-124-79.11s55.61-79.11,124-79.11,124,35.49,124,79.11A53.26,53.26,0,0,1,256.56,122,25.33,25.33,0,0,1,267.19,137a25.61,25.61,0,0,1,.79,6.82,13.37,13.37,0,0,1,13.54,10h0a13.34,13.34,0,0,1-24.28,10.3,25.54,25.54,0,0,1-35.9-6.42C198.46,171,168.83,178.36,137.82,178.36Zm0-156.74c-67.54,0-122.49,34.83-122.49,77.63s54.95,77.63,122.49,77.63c31,0,60.64-7.39,83.39-20.81a.74.74,0,0,1,1,.24A24.06,24.06,0,0,0,257,162.45a.74.74,0,0,1,.6-.13.73.73,0,0,1,.49.37,11.86,11.86,0,0,0,22-8.5h0a11.89,11.89,0,0,0-12.8-8.86.75.75,0,0,1-.59-.2.73.73,0,0,1-.23-.57,24,24,0,0,0-11.26-21.63A.74.74,0,0,1,255,122a51.94,51.94,0,0,0,5.36-22.74C260.31,56.44,205.36,21.62,137.82,21.62Z" transform="translate(-13.86 -13.71)"/><circle class="cls-3" cx="282.18" cy="146.79" r="8.35"/><path class="cls-3" d="M280.81,147.57a12.6,12.6,0,0,0-13.59-9.41,24.77,24.77,0,0,0-11.61-22.29A52.65,52.65,0,0,0,261,92.82c0-43.28-55.17-78.37-123.23-78.37S14.59,49.54,14.59,92.82s55.17,78.37,123.23,78.37c32.35,0,61.77-7.94,83.76-20.91a24.8,24.8,0,0,0,35.9,6.32,12.6,12.6,0,0,0,23.33-9Z" transform="translate(-13.86 -13.71)"/><path class="cls-4" d="M177.4,167.05l.53-2.86-2.12-11.5c-1.33,4.85-2.55,10-3.64,15.15Z" transform="translate(-13.86 -13.71)"/><path class="cls-5" d="M178.34,167.16a.74.74,0,0,1-.72-.6l-2.53-13.73a.74.74,0,0,1,1.45-.27l2.53,13.73a.74.74,0,0,1-.59.86Z" transform="translate(-13.86 -13.71)"/><path class="cls-4" d="M95.28,166.71l-.47-2.52,2.12-11.5c1.28,4.67,2.46,9.57,3.51,14.56" transform="translate(-13.86 -13.71)"/><path class="cls-5" d="M94.57,166.22h-.14a.74.74,0,0,1-.59-.86l2.36-12.79a.73.73,0,0,1,.86-.59.74.74,0,0,1,.59.86L95.3,165.62A.74.74,0,0,1,94.57,166.22Z" transform="translate(-13.86 -13.71)"/><path class="cls-6" d="M167.68,154.38H105.22L93.87,96.58c-5.12-26.09,14.05-51.11,40.63-52l1.5,0h0a42.92,42.92,0,0,1,42.42,51.08Z" transform="translate(-13.86 -13.71)"/><path class="cls-5" d="M167.69,155.11H105.22a.74.74,0,0,1-.72-.59L93.15,96.72A44.66,44.66,0,0,1,102,60.27a43.3,43.3,0,0,1,32.44-16.44l1.53,0a43.66,43.66,0,0,1,43.14,51.95l-10.73,58.75A.74.74,0,0,1,167.69,155.11Zm-61.86-1.47h61.25l10.62-58.15A42.19,42.19,0,0,0,136,45.28l-1.48,0a41.83,41.83,0,0,0-31.34,15.88,43.19,43.19,0,0,0-8.59,35.25Z" transform="translate(-13.86 -13.71)"/><path class="cls-5" d="M167.69,155.11H105.22a.74.74,0,0,1-.72-.59L93.15,96.72A44.66,44.66,0,0,1,102,60.27a43.3,43.3,0,0,1,32.44-16.44l1.53,0a43.66,43.66,0,0,1,43.14,51.95l-10.73,58.75A.74.74,0,0,1,167.69,155.11Zm-61.86-1.47h61.25l10.62-58.15A42.19,42.19,0,0,0,136,45.28l-1.48,0a41.83,41.83,0,0,0-31.34,15.88,43.19,43.19,0,0,0-8.59,35.25Z" transform="translate(-13.86 -13.71)"/><path class="cls-7" d="M168.75,149.14l-9.66-2.69a84.09,84.09,0,0,0-14.1-2.66c-.54,2.88-16.38,2.87-16.86,0a84.1,84.1,0,0,0-14.26,2.68l-9.66,2.69c-5.39,1.51-8.73-.24-7.67,5.26,1.17,1.24,2.67,6.56,4.06,13.15a188.93,188.93,0,0,0,37.21,3.65,189.56,189.56,0,0,0,34.44-3.11c1.42-6.83,3-12.41,4.17-13.69C177.48,148.89,174.14,150.64,168.75,149.14Z" transform="translate(-13.86 -13.71)"/><path class="cls-8" d="M128.94,171c2.94.13,5.89.22,8.88.22a189.55,189.55,0,0,0,34.44-3.11c.18-.89.37-1.77.56-2.61a47.71,47.71,0,0,0-16.47-2.61A50.12,50.12,0,0,0,128.94,171Z" transform="translate(-13.86 -13.71)"/><path class="cls-9" d="M137.82,171.93a189.81,189.81,0,0,1-37.36-3.66.74.74,0,0,1-.58-.57c-2.19-10.39-3.52-12.42-3.87-12.8a.74.74,0,0,1-.19-.37c-.36-1.88-.25-3.09.35-3.92.78-1.08,2.2-1.26,4-1.48a25.39,25.39,0,0,0,3.86-.71l9.66-2.69a85.09,85.09,0,0,1,14.38-2.7.73.73,0,0,1,.8.61c.08.51,2.42,1.51,7.43,1.55s7.88-1,8-1.55a.74.74,0,0,1,.8-.6,85,85,0,0,1,14.22,2.69l9.65,2.69h0a25.39,25.39,0,0,0,3.86.71c1.79.22,3.2.4,4,1.48.6.83.71,2,.35,3.92a.75.75,0,0,1-.19.37c-.37.39-1.74,2.5-4,13.33a.74.74,0,0,1-.59.57A190.6,190.6,0,0,1,137.82,171.93Zm-36.59-5a188.47,188.47,0,0,0,36.59,3.54,189.2,189.2,0,0,0,33.82-3c1.1-5.24,2.66-11.54,4.1-13.38a3.68,3.68,0,0,0-.13-2.59c-.41-.56-1.49-.7-3-.88a27,27,0,0,1-4.07-.75l-9.65-2.69a83.5,83.5,0,0,0-13.46-2.59c-1.48,2.05-7.81,2.12-9.16,2.1-2.28,0-7.32-.27-8.59-2.12a83.5,83.5,0,0,0-13.61,2.6l-9.66,2.69a27,27,0,0,1-4.07.75c-1.49.19-2.57.32-3,.88a3.68,3.68,0,0,0-.13,2.59C98.64,155.86,100.15,161.89,101.22,166.92Z" transform="translate(-13.86 -13.71)"/><path class="cls-4" d="M144.47,143.63c0,3.08-16.91,3.08-16.91,0v-13h16.91Z" transform="translate(-13.86 -13.71)"/><path class="cls-5" d="M144.47,144.36h0a.74.74,0,0,1-.74-.74v-12.3H128.29v12.3a.74.74,0,0,1-1.47,0v-13a.74.74,0,0,1,.74-.74h16.91a.74.74,0,0,1,.74.74v13A.74.74,0,0,1,144.47,144.36Z" transform="translate(-13.86 -13.71)"/><polyline class="cls-10" points="153.12 63.62 161.81 64.19 161.81 62.84 153.12 62.28"/><path class="cls-5" d="M176.53,78.69h0l-9.13-.62a.74.74,0,0,1-.25-1.41.74.74,0,0,1-.43-.72.77.77,0,0,1,.78-.69l9.4.63a.74.74,0,0,1,.67.88l-.27,1.33A.74.74,0,0,1,176.53,78.69Z" transform="translate(-13.86 -13.71)"/><circle class="cls-11" cx="162.95" cy="63.92" r="2.91"/><path class="cls-12" d="M176.8,81.28a3.65,3.65,0,1,1,3.65-3.65A3.65,3.65,0,0,1,176.8,81.28Zm0-5.82A2.17,2.17,0,1,0,179,77.64,2.18,2.18,0,0,0,176.8,75.46Z" transform="translate(-13.86 -13.71)"/><polyline class="cls-10" points="90.93 63.62 82.24 64.19 82.24 62.84 90.93 62.28"/><path class="cls-5" d="M95.22,78.69a.74.74,0,0,1-.72-.59l-.27-1.33a.74.74,0,0,1,.67-.88l9.4-.63a.77.77,0,0,1,.78.69.74.74,0,0,1-.43.72.74.74,0,0,1-.25,1.41l-9.13.62Z" transform="translate(-13.86 -13.71)"/><circle class="cls-11" cx="81.1" cy="63.92" r="2.91"/><path class="cls-12" d="M95,81.28a3.65,3.65,0,1,1,3.65-3.65A3.65,3.65,0,0,1,95,81.28Zm0-5.82a2.17,2.17,0,1,0,2.17,2.17A2.18,2.18,0,0,0,95,75.46Z" transform="translate(-13.86 -13.71)"/><path class="cls-4" d="M104.5,77.36c4.1-25.59,57.51-25.88,62.7-.85l0,.08A65.18,65.18,0,0,1,168.44,91c0,25.66-14.56,46.47-32.51,46.47S103.42,116.67,103.42,91a64.69,64.69,0,0,1,1-13.38Z" transform="translate(-13.86 -13.71)"/><path class="cls-3" d="M104.53,77.21l0,.15,0,.28a64.69,64.69,0,0,0-1,13.38,63.12,63.12,0,0,0,3.32,20.47,28.93,28.93,0,0,1,4.12-.69c16.88-2.32,34.05,6.19,51,8.28A60.21,60.21,0,0,0,168.44,91a65.18,65.18,0,0,0-1.22-14.42l0-.08a18.16,18.16,0,0,0-2-5.22C146.92,82.47,124.53,83.44,104.53,77.21Z" transform="translate(-13.86 -13.71)"/><path class="cls-5" d="M136,138.22c-18.33,0-33.25-21.18-33.25-47.2a64.7,64.7,0,0,1,1.06-13.53.74.74,0,0,1,1.44.31,63.38,63.38,0,0,0-1,13.22c0,25.22,14.25,45.73,31.77,45.73S167.78,116.23,167.78,91a64.78,64.78,0,0,0-1.2-14.26.74.74,0,0,1,1.44-.33A66,66,0,0,1,169.26,91C169.26,117,154.34,138.22,136,138.22Z" transform="translate(-13.86 -13.71)"/><path class="cls-13" d="M105.31,77.47l-1.46-.23c2.14-13.39,17.11-19.7,31-20,14.06-.31,30.33,5.53,33.15,19.13l-1.44.3c-2.65-12.78-18.32-18.26-31.67-18S107.32,64.92,105.31,77.47Z" transform="translate(-13.86 -13.71)"/><path class="cls-5" d="M104.58,78.09h-.12a.74.74,0,0,1-.61-.84c2.14-13.39,17.11-19.7,31-20,14.06-.31,30.33,5.53,33.15,19.13a.74.74,0,1,1-1.44.3c-2.65-12.78-18.32-18.26-31.67-18s-27.57,6.23-29.58,18.78A.74.74,0,0,1,104.58,78.09Z" transform="translate(-13.86 -13.71)"/><polygon class="cls-11" points="122.2 90.51 124.1 92.6 125.99 94.69 122.2 94.69 118.41 94.69 120.31 92.6 122.2 90.51"/><path class="cls-12" d="M139.85,109.14h-7.58a.74.74,0,0,1-.55-1.23l3.79-4.18a.74.74,0,0,1,.55-.24h0a.74.74,0,0,1,.55.24l3.79,4.18a.74.74,0,0,1-.55,1.23Zm-5.92-1.47h4.25l-2.13-2.35Z" transform="translate(-13.86 -13.71)"/><path class="cls-5" d="M111.4,86.37a.74.74,0,0,1-.63-1.12c.05-.08,5-8.11,11.93-5.59a.74.74,0,1,1-.5,1.38c-5.77-2.1-10.12,4.9-10.17,5A.74.74,0,0,1,111.4,86.37Z" transform="translate(-13.86 -13.71)"/><path class="cls-5" d="M160,86.37a.74.74,0,0,1-.63-.35c0-.07-4.4-7.07-10.17-5a.74.74,0,1,1-.5-1.38c6.9-2.52,11.88,5.51,11.93,5.59a.74.74,0,0,1-.63,1.12Z" transform="translate(-13.86 -13.71)"/><circle class="cls-6" cx="98.04" cy="87.34" r="0.5"/><path class="cls-6" d="M111.9,102.29a1.23,1.23,0,1,1,1.23-1.23A1.24,1.24,0,0,1,111.9,102.29Zm0-1.47a.24.24,0,0,0-.24.24c0,.26.48.26.48,0A.24.24,0,0,0,111.9,100.81Z" transform="translate(-13.86 -13.71)"/><circle class="cls-6" cx="107.64" cy="92.21" r="0.39"/><path class="cls-6" d="M121.5,107a1.13,1.13,0,1,1,1.13-1.13A1.13,1.13,0,0,1,121.5,107Zm0-1.47a.34.34,0,0,0-.34.34c0,.38.68.38.68,0A.34.34,0,0,0,121.5,105.58Z" transform="translate(-13.86 -13.71)"/><circle class="cls-6" cx="115.02" cy="87.84" r="0.39"/><path class="cls-6" d="M128.87,102.68a1.13,1.13,0,1,1,1.13-1.13A1.13,1.13,0,0,1,128.87,102.68Zm0-1.47a.34.34,0,0,0-.34.34c0,.38.68.38.68,0A.34.34,0,0,0,128.87,101.21Z" transform="translate(-13.86 -13.71)"/><circle class="cls-6" cx="128.79" cy="88.33" r="0.5"/><path class="cls-6" d="M142.65,103.28a1.23,1.23,0,1,1,1.23-1.23A1.24,1.24,0,0,1,142.65,103.28Zm0-1.47a.24.24,0,0,0-.24.24c0,.26.48.26.48,0A.24.24,0,0,0,142.65,101.8Z" transform="translate(-13.86 -13.71)"/><circle class="cls-6" cx="138.39" cy="93.19" r="0.39"/><path class="cls-6" d="M152.25,108a1.13,1.13,0,1,1,1.13-1.13A1.13,1.13,0,0,1,152.25,108Zm0-1.47a.34.34,0,0,0-.34.34c0,.38.68.38.68,0A.34.34,0,0,0,152.25,106.56Z" transform="translate(-13.86 -13.71)"/><circle class="cls-6" cx="145.76" cy="88.83" r="0.39"/><path class="cls-6" d="M159.62,103.67a1.13,1.13,0,1,1,1.13-1.13A1.13,1.13,0,0,1,159.62,103.67Zm0-1.47a.34.34,0,0,0-.34.34c0,.38.68.38.68,0A.34.34,0,0,0,159.62,102.2Z" transform="translate(-13.86 -13.71)"/><path class="cls-5" d="M150.41,101.12h0c-1,0-2.14-.92-2.13-2.91V93a.74.74,0,0,1,.62-.73,3.76,3.76,0,0,0,.9-2.22.63.63,0,0,1,0-.68.73.73,0,0,1,.66-.32h1.42c.16,0,.38.06.69.08a.74.74,0,0,1,.17,1.44l-.18.06V98.2C152.56,100.12,151.48,101.12,150.41,101.12Zm-.66-7.68v4.78c0,1,.38,1.43.66,1.43h0c.28,0,.69-.45.69-1.44V91.13a7.2,7.2,0,0,1-.36,1A3.32,3.32,0,0,1,149.74,93.43Z" transform="translate(-13.86 -13.71)"/><path class="cls-5" d="M153.06,90.58l-.59,0a.74.74,0,0,1-.68-.79.71.71,0,0,1,.79-.68,3.9,3.9,0,0,0,3.2-1,.74.74,0,1,1,1.12,1A5,5,0,0,1,153.06,90.58Z" transform="translate(-13.86 -13.71)"/><path class="cls-5" d="M121,101.11a1.81,1.81,0,0,1-.92-.25,2.91,2.91,0,0,1-1.22-2.66V93a.74.74,0,0,1,.62-.73,3.78,3.78,0,0,0,.9-2.22.63.63,0,0,1,0-.68A.73.73,0,0,1,121,89h1.41c.16,0,.38.06.7.08a.74.74,0,0,1,.17,1.44l-.18.06V98.2a2.94,2.94,0,0,1-1.25,2.67A1.82,1.82,0,0,1,121,101.11Zm-.66-7.68v4.78c0,.81.25,1.24.49,1.38a.33.33,0,0,0,.35,0c.25-.14.51-.58.51-1.39V91.13a7.11,7.11,0,0,1-.36,1A3.31,3.31,0,0,1,120.32,93.43Z" transform="translate(-13.86 -13.71)"/><path class="cls-5" d="M123.63,90.58l-.59,0a.74.74,0,1,1,.11-1.47,3.89,3.89,0,0,0,3.2-1,.74.74,0,1,1,1.12,1A5,5,0,0,1,123.63,90.58Z" transform="translate(-13.86 -13.71)"/><path class="cls-5" d="M150.47,89.76c.29.48-.54,3.07-1.46,3.21v5.24c0,2.9,2.81,2.88,2.82,0V90l.69-.22a6,6,0,0,1-.63-.08Z" transform="translate(-13.86 -13.71)"/><path class="cls-5" d="M152.52,89.82a4.58,4.58,0,0,0,3.82-1.23" transform="translate(-13.86 -13.71)"/><path class="cls-5" d="M121,89.76c.29.48-.54,3.07-1.46,3.21v5.24c0,2.9,2.81,2.88,2.82,0V90l.69-.22a6,6,0,0,1-.63-.08Z" transform="translate(-13.86 -13.71)"/><path class="cls-5" d="M123.1,89.82a4.58,4.58,0,0,0,3.82-1.23" transform="translate(-13.86 -13.71)"/><path class="cls-9" d="M136,146.67a26.64,26.64,0,0,1-6-.6c-2.13-.52-3.21-1.34-3.21-2.45a.74.74,0,0,1,1.47,0c0,.55,2.65,1.57,7.72,1.57s7.72-1,7.72-1.57a.74.74,0,0,1,1.47,0C145.2,146.45,138.17,146.67,136,146.67Z" transform="translate(-13.86 -13.71)"/><path class="cls-3" d="M146.22,116.4c.08,8.36-19.36,10.44-20.58,0Z" transform="translate(-13.86 -13.71)"/><path class="cls-5" d="M135.6,124.21c-5,0-10.06-2.31-10.7-7.72a.73.73,0,0,1,.18-.58.74.74,0,0,1,.55-.25h20.58a.74.74,0,0,1,.74.73c0,4.68-5.15,7.45-10.31,7.78Q136.12,124.21,135.6,124.21Zm-9.09-7.07c1,4.21,5.66,5.85,10,5.57,4.17-.26,8.37-2.24,8.88-5.57Z" transform="translate(-13.86 -13.71)"/><polyline class="cls-14" points="143.33 29.87 144.75 42.95 144.73 43.16 117.42 58.13 87.84 49.47 87.51 49.18 86.09 36.1"/><polygon class="cls-15" points="115.8 43.28 156.68 23.28 112.47 12.75 71.57 32.55 115.8 43.28"/><path class="cls-16" d="M131.27,72.58l-.21,0-29.58-8.66a.74.74,0,0,1-.28-.15l-.33-.29a.73.73,0,0,1-.25-.47L99.21,49.9a.74.74,0,0,1,.65-.81.75.75,0,0,1,.81.65l1.39,12.79L131.18,71l26.67-14.61-1.4-12.77a.74.74,0,0,1,.65-.81.75.75,0,0,1,.81.65l1.42,13.08,0,.36a.74.74,0,0,1-.38.58l-27.32,15A.74.74,0,0,1,131.27,72.58Zm27.32-15.7h0Z" transform="translate(-13.86 -13.71)"/><path class="cls-16" d="M129.65,57.73l-.17,0L85.25,47a.74.74,0,0,1-.15-1.38L126,25.8a.73.73,0,0,1,.49-.05l44.2,10.53a.74.74,0,0,1,.15,1.38L130,57.65A.74.74,0,0,1,129.65,57.73ZM87.59,46l42,10.18,38.8-19-41.95-10Z" transform="translate(-13.86 -13.71)"/><polyline class="cls-7" points="112.67 28.07 93.5 37.91 93.5 61.38 93.5 61.49 95.73 57.8 98.11 65.13 98.11 38.99 114.35 28.55"/><polyline class="cls-8" points="93.5 37.91 93.5 61.38 93.5 61.49 95.73 57.8 98.11 65.13 98.11 38.99"/><ellipse class="cls-7" cx="128.78" cy="40.33" rx="3.81" ry="1.9" transform="translate(-17.46 0.46) rotate(-6.21)"/><path class="cls-9" d="M112,79.58a.74.74,0,0,1-.7-.51l-1.88-5.8L108,75.58a.74.74,0,0,1-1.37-.38V51.63A.74.74,0,0,1,107,51l19.17-9.84a.74.74,0,0,1,1,.89l.59-.38a.74.74,0,0,1,.8,1.24L112.7,53.1V78.84a.74.74,0,0,1-.62.73Zm-2.38-8.81h.08a.74.74,0,0,1,.62.5l.94,2.9V52.7a.74.74,0,0,1,.34-.62l13.86-8.9-17.33,8.9V72.56l.87-1.43A.74.74,0,0,1,109.59,70.77Z" transform="translate(-13.86 -13.71)"/><path class="cls-9" d="M128.17,43a6.35,6.35,0,0,1-2.18-.35,2.34,2.34,0,0,1-1.73-1.83c-.16-1.5,1.66-2.84,4.23-3.12a6.92,6.92,0,0,1,3.07.31,2.34,2.34,0,0,1,1.73,1.83h0c.16,1.5-1.66,2.84-4.23,3.12A8.21,8.21,0,0,1,128.17,43Zm1.21-3.88a6.8,6.8,0,0,0-.73,0c-1.89.21-3,1.09-2.93,1.5,0,.15.23.4.78.61a5.52,5.52,0,0,0,2.4.22c1.89-.21,3-1.08,2.93-1.49h0c0-.15-.23-.4-.78-.61A4.92,4.92,0,0,0,129.38,39.13Z" transform="translate(-13.86 -13.71)"/><path class="cls-6" d="M137.82,171.93c-68.35,0-124-35.49-124-79.11s55.61-79.11,124-79.11,124,35.49,124,79.11a53.26,53.26,0,0,1-5.22,22.79,25.33,25.33,0,0,1,10.64,14.95,25.61,25.61,0,0,1,.79,6.82,13.37,13.37,0,0,1,13.54,10h0a13.34,13.34,0,0,1-24.28,10.3,25.54,25.54,0,0,1-35.9-6.42C198.46,164.59,168.83,171.93,137.82,171.93Zm0-156.74C70.28,15.19,15.33,50,15.33,92.82s54.95,77.63,122.49,77.63c31,0,60.64-7.39,83.39-20.81a.74.74,0,0,1,1,.24A24.06,24.06,0,0,0,257,156a.74.74,0,0,1,.6-.13.73.73,0,0,1,.49.37,11.86,11.86,0,0,0,22-8.5h0a11.89,11.89,0,0,0-12.8-8.86.76.76,0,0,1-.59-.2.73.73,0,0,1-.23-.57,24,24,0,0,0-11.26-21.63.74.74,0,0,1-.27-.95,51.94,51.94,0,0,0,5.36-22.74C260.31,50,205.36,15.19,137.82,15.19Z" transform="translate(-13.86 -13.71)"/><path class="cls-6" d="M296,169.59a9.09,9.09,0,1,1,9.09-9.09A9.1,9.1,0,0,1,296,169.59Zm0-16.7a7.62,7.62,0,1,0,7.62,7.62A7.62,7.62,0,0,0,296,152.89Z" transform="translate(-13.86 -13.71)"/><path class="cls-6" d="M137.82,171.93c-68.35,0-124-35.49-124-79.11s55.61-79.11,124-79.11,124,35.49,124,79.11a53.26,53.26,0,0,1-5.22,22.79,25.33,25.33,0,0,1,10.64,14.95,25.61,25.61,0,0,1,.79,6.82,13.37,13.37,0,0,1,13.54,10h0a13.34,13.34,0,0,1-24.28,10.3,25.54,25.54,0,0,1-35.9-6.42C198.46,164.59,168.83,171.93,137.82,171.93Zm0-156.74C70.28,15.19,15.33,50,15.33,92.82s54.95,77.63,122.49,77.63c31,0,60.64-7.39,83.39-20.81a.74.74,0,0,1,1,.24A24.06,24.06,0,0,0,257,156a.74.74,0,0,1,.6-.13.73.73,0,0,1,.49.37,11.86,11.86,0,0,0,22-8.5h0a11.89,11.89,0,0,0-12.8-8.86.76.76,0,0,1-.59-.2.73.73,0,0,1-.23-.57,24,24,0,0,0-11.26-21.63.74.74,0,0,1-.27-.95,51.94,51.94,0,0,0,5.36-22.74C260.31,50,205.36,15.19,137.82,15.19Z" transform="translate(-13.86 -13.71)"/><path class="cls-6" d="M296,169.59a9.09,9.09,0,1,1,9.09-9.09A9.1,9.1,0,0,1,296,169.59Zm0-16.7a7.62,7.62,0,1,0,7.62,7.62A7.62,7.62,0,0,0,296,152.89Z" transform="translate(-13.86 -13.71)"/><path class="cls-6" d="M137.82,171.93c-68.35,0-124-35.49-124-79.11s55.61-79.11,124-79.11,124,35.49,124,79.11a53.26,53.26,0,0,1-5.22,22.79,25.33,25.33,0,0,1,10.64,14.95,25.61,25.61,0,0,1,.79,6.82,13.37,13.37,0,0,1,13.54,10h0a13.34,13.34,0,0,1-24.28,10.3,25.54,25.54,0,0,1-35.9-6.42C198.46,164.59,168.83,171.93,137.82,171.93Zm0-156.74C70.28,15.19,15.33,50,15.33,92.82s54.95,77.63,122.49,77.63c31,0,60.64-7.39,83.39-20.81a.74.74,0,0,1,1,.24A24.06,24.06,0,0,0,257,156a.74.74,0,0,1,.6-.13.73.73,0,0,1,.49.37,11.86,11.86,0,0,0,22-8.5h0a11.89,11.89,0,0,0-12.8-8.86.76.76,0,0,1-.59-.2.73.73,0,0,1-.23-.57,24,24,0,0,0-11.26-21.63.74.74,0,0,1-.27-.95,51.94,51.94,0,0,0,5.36-22.74C260.31,50,205.36,15.19,137.82,15.19Z" transform="translate(-13.86 -13.71)"/><polyline class="cls-3" points="464.13 399.65 457.29 367.13 454.92 355.87 471.68 266.07 496.3 399.65"/><path class="cls-4" d="M481.92,369.72l-2.37-11.26,10.31-55.22-4.32-23.46a592.14,592.14,0,0,0-16.76,89.8l2.37,11.26L478,413.36H491.1Z" transform="translate(-13.86 -13.71)"/><path class="cls-5" d="M510.15,414.1a.74.74,0,0,1-.72-.6L484.81,279.92a.74.74,0,0,1,1.45-.27l24.62,133.58a.74.74,0,0,1-.59.86Z" transform="translate(-13.86 -13.71)"/><path class="cls-17" d="M472,380.76a1.47,1.47,0,0,1-1.29-2.18l13.93-25.34a1.47,1.47,0,1,1,2.58,1.42L473.29,380A1.47,1.47,0,0,1,472,380.76Z" transform="translate(-13.86 -13.71)"/><path class="cls-17" d="M476.43,401.42a1.47,1.47,0,0,1-1.2-2.33L488.91,380a1.47,1.47,0,0,1,2.4,1.72l-13.67,19.1A1.47,1.47,0,0,1,476.43,401.42Z" transform="translate(-13.86 -13.71)"/><path class="cls-5" d="M478,414.1a.74.74,0,0,1-.72-.58l-9.21-43.78a.74.74,0,0,1,1.44-.3l9.21,43.78a.74.74,0,0,1-.57.87Z" transform="translate(-13.86 -13.71)"/><polyline class="cls-3" points="318.28 399.65 325.12 367.13 327.49 355.87 310.73 266.07 286.11 399.65"/><path class="cls-4" d="M328.2,369.72l2.37-11.26-10.31-55.22,4.32-23.46a592.14,592.14,0,0,1,16.76,89.8L339,380.84l-6.84,32.52H319Z" transform="translate(-13.86 -13.71)"/><path class="cls-5" d="M300,414.1h-.14a.74.74,0,0,1-.59-.86l24.62-133.58a.73.73,0,0,1,.86-.59.74.74,0,0,1,.59.86L300.69,413.5A.74.74,0,0,1,300,414.1Z" transform="translate(-13.86 -13.71)"/><path class="cls-17" d="M338.12,380.76a1.47,1.47,0,0,1-1.29-.76L322.9,354.66a1.47,1.47,0,1,1,2.58-1.42l13.93,25.34a1.47,1.47,0,0,1-1.29,2.18Z" transform="translate(-13.86 -13.71)"/><path class="cls-17" d="M333.69,401.42a1.47,1.47,0,0,1-1.2-.62l-13.67-19.1a1.47,1.47,0,0,1,2.4-1.72l13.67,19.1a1.47,1.47,0,0,1-1.2,2.33Z" transform="translate(-13.86 -13.71)"/><path class="cls-5" d="M332.14,414.1l-.15,0a.74.74,0,0,1-.57-.87l9.21-43.78a.74.74,0,0,1,1.44.3l-9.21,43.78A.74.74,0,0,1,332.14,414.1Z" transform="translate(-13.86 -13.71)"/><path class="cls-6" d="M469,283.21H341.49L318.34,165.28C307.89,112,347,61,401.23,59.17q1.53-.05,3.07-.05h0A88.87,88.87,0,0,1,456.57,76c27.39,19.81,40.35,54.07,34.28,87.33Z" transform="translate(-13.86 -13.71)"/><path class="cls-5" d="M469,283.95H341.49a.74.74,0,0,1-.72-.59L317.62,165.42a90.35,90.35,0,0,1,18-73.74,87.58,87.58,0,0,1,65.62-33.25q1.54-.05,3.09-.05a89.36,89.36,0,0,1,52.7,17c27.18,19.66,40.75,54.22,34.57,88.06L469.68,283.34A.74.74,0,0,1,469,283.95ZM342.1,282.47H468.34L490.12,163.2c6.08-33.28-7.26-67.27-34-86.6A87.89,87.89,0,0,0,404.3,59.85q-1.53,0-3,.05a86.11,86.11,0,0,0-64.51,32.7,88.89,88.89,0,0,0-17.68,72.54Z" transform="translate(-13.86 -13.71)"/><path class="cls-5" d="M469,283.95H341.49a.74.74,0,0,1-.72-.59L317.62,165.42a90.35,90.35,0,0,1,18-73.74,87.58,87.58,0,0,1,65.62-33.25q1.54-.05,3.09-.05a89.36,89.36,0,0,1,52.7,17c27.18,19.66,40.75,54.22,34.57,88.06L469.68,283.34A.74.74,0,0,1,469,283.95ZM342.1,282.47H468.34L490.12,163.2c6.08-33.28-7.26-67.27-34-86.6A87.89,87.89,0,0,0,404.3,59.85q-1.53,0-3,.05a86.11,86.11,0,0,0-64.51,32.7,88.89,88.89,0,0,0-17.68,72.54Z" transform="translate(-13.86 -13.71)"/><path class="cls-7" d="M471.13,272.52l-19.7-5.5a171.6,171.6,0,0,0-28.76-5.43c-1.1,5.87-33.41,5.86-34.41,0A171.6,171.6,0,0,0,359.16,267l-19.7,5.5c-11,3.07-17.81-.5-15.65,10.72,6.81,7.23,19.07,82.11,15.94,91.93l9.38,42.37H461.46l9.38-42.37c-3.13-9.82,9.12-84.7,15.94-91.93C488.94,272,482.13,275.59,471.13,272.52Z" transform="translate(-13.86 -13.71)"/><path class="cls-8" d="M445.8,300.52A102.81,102.81,0,0,0,343.3,395.63l5.83,21.91c39.93,5.86,77.77,6.77,112.33,0l9.38-42.37c-2.15-6.75,3-44.2,8.58-69.33C468.65,302,457.94,300.52,445.8,300.52Z" transform="translate(-13.86 -13.71)"/><path class="cls-9" d="M461.46,418.28l-.16,0a.74.74,0,0,1-.56-.88l9.34-42.18c-1.58-5.68,1-27.64,4.27-47.09,3.22-19,8-40.78,11.74-45.21.56-3,.45-4.95-.36-6.06-1-1.42-3.37-1.71-6.6-2.11a54.31,54.31,0,0,1-8.2-1.5l-19.7-5.5a171.3,171.3,0,0,0-28.06-5.35c-1.65,3.29-10.65,4.43-18.32,4.34-2.61,0-15.17-.34-17.1-4.37a171.19,171.19,0,0,0-28.38,5.38l-19.7,5.5a54.31,54.31,0,0,1-8.2,1.5c-3.23.4-5.57.7-6.6,2.11-.8,1.11-.92,3-.36,6.06,3.77,4.43,8.52,26.16,11.74,45.21,3.29,19.45,5.86,41.41,4.27,47.09l9.34,42.18a.74.74,0,1,1-1.44.32L339,375.33a.75.75,0,0,1,0-.38c3.32-10.4-9.51-84.56-15.77-91.2a.74.74,0,0,1-.19-.37c-.69-3.61-.52-5.89.58-7.4,1.41-1.94,4-2.26,7.61-2.71a52.41,52.41,0,0,0,8-1.46l19.7-5.5a172.73,172.73,0,0,1,29.22-5.49.74.74,0,0,1,.8.61c.36,2.1,7.18,3.73,15.88,3.81,9.14.08,16.67-1.59,17.08-3.79a.74.74,0,0,1,.8-.6,172.78,172.78,0,0,1,28.88,5.46l19.7,5.5a52.41,52.41,0,0,0,8,1.46c3.6.45,6.21.77,7.61,2.71,1.09,1.51,1.27,3.79.58,7.4a.74.74,0,0,1-.19.37c-6.27,6.64-19.09,80.8-15.77,91.2a.75.75,0,0,1,0,.38l-9.38,42.37A.74.74,0,0,1,461.46,418.28Z" transform="translate(-13.86 -13.71)"/><path class="cls-4" d="M421.58,261.28c0,6.27-34.51,6.27-34.51,0V234.69h34.51Z" transform="translate(-13.86 -13.71)"/><path class="cls-5" d="M421.58,262a.74.74,0,0,1-.74-.74V235.43h-33v25.86a.74.74,0,0,1-.74.74h0a.74.74,0,0,1-.74-.74V234.69a.74.74,0,0,1,.74-.74h34.51a.74.74,0,0,1,.74.74v26.59A.74.74,0,0,1,421.58,262Z" transform="translate(-13.86 -13.71)"/><path class="cls-9" d="M432.7,377.53h-.12l-28.29-4.42L376,376.8a.74.74,0,1,1-.19-1.46l28.4-3.71a.68.68,0,0,1,.21,0l28.4,4.43a.74.74,0,0,1-.11,1.46Z" transform="translate(-13.86 -13.71)"/><path class="cls-9" d="M437.23,382.06a5.27,5.27,0,1,1,5.27-5.27A5.27,5.27,0,0,1,437.23,382.06Zm0-9.06a3.79,3.79,0,1,0,3.79,3.79A3.8,3.8,0,0,0,437.23,373Z" transform="translate(-13.86 -13.71)"/><path class="cls-9" d="M371.44,382.06a5.27,5.27,0,1,1,5.27-5.27A5.27,5.27,0,0,1,371.44,382.06Zm0-9.06a3.79,3.79,0,1,0,3.79,3.79A3.8,3.8,0,0,0,371.44,373Z" transform="translate(-13.86 -13.71)"/><polyline class="cls-10" points="453.64 112.31 471.38 113.46 471.38 110.71 453.64 109.57"/><path class="cls-5" d="M487,128h0l-18.64-1.25a.74.74,0,0,1-.69-.78.77.77,0,0,1,.78-.69l18,1.21.25-1.25L468.32,124a.74.74,0,0,1-.69-.78.77.77,0,0,1,.78-.69l19.19,1.29a.74.74,0,0,1,.67.88l-.55,2.71A.74.74,0,0,1,487,128Z" transform="translate(-13.86 -13.71)"/><circle class="cls-11" cx="473.7" cy="112.92" r="5.94"/><path class="cls-12" d="M487.56,133.31a6.67,6.67,0,1,1,6.67-6.67A6.68,6.68,0,0,1,487.56,133.31Zm0-11.87a5.2,5.2,0,1,0,5.2,5.2A5.21,5.21,0,0,0,487.56,121.44Z" transform="translate(-13.86 -13.71)"/><polyline class="cls-10" points="326.76 112.31 309.02 113.46 309.02 110.71 326.76 109.57"/><path class="cls-5" d="M321.11,128a.74.74,0,0,1-.72-.59l-.55-2.71a.74.74,0,0,1,.67-.88l19.19-1.29a.77.77,0,0,1,.78.69.74.74,0,0,1-.69.78l-18.35,1.23.25,1.25,18-1.21a.78.78,0,0,1,.78.69.74.74,0,0,1-.69.78L321.15,128Z" transform="translate(-13.86 -13.71)"/><circle class="cls-11" cx="306.7" cy="112.92" r="5.94"/><path class="cls-12" d="M320.56,133.31a6.67,6.67,0,1,1,6.67-6.67A6.68,6.68,0,0,1,320.56,133.31Zm0-11.87a5.2,5.2,0,1,0,5.2,5.2A5.21,5.21,0,0,0,320.56,121.44Z" transform="translate(-13.86 -13.71)"/><path class="cls-4" d="M340,126.06c8.36-52.22,117.34-52.8,127.93-1.73l0,.17c2.11,9.26,2.49,19.15,2.49,29.43,0,52.36-29.7,94.81-66.33,94.81s-66.33-42.45-66.33-94.81c0-9.55.29-18.6,2.12-27.29Z" transform="translate(-13.86 -13.71)"/><path class="cls-3" d="M340.09,125.76c0,.1,0,.2-.06.3l-.09.57c-1.84,8.69-2.12,17.75-2.12,27.29a128.8,128.8,0,0,0,6.78,41.77,59,59,0,0,1,8.4-1.41c34.43-4.73,69.48,12.64,104,16.89,8.44-15.91,13.46-35.74,13.46-57.24,0-10.27-.38-20.16-2.49-29.43l0-.17a37,37,0,0,0-4-10.64C426.59,136.5,380.89,138.48,340.09,125.76Z" transform="translate(-13.86 -13.71)"/><path class="cls-5" d="M404.32,249.47c-37,0-67.07-42.86-67.07-95.55,0-10.39.36-19,2.14-27.44a.74.74,0,1,1,1.44.31c-1.75,8.28-2.11,16.84-2.11,27.14,0,51.87,29.43,94.07,65.6,94.07s65.6-42.2,65.6-94.07c0-9.56-.3-19.72-2.48-29.26a.74.74,0,0,1,1.44-.33c2.21,9.68,2.51,19.94,2.51,29.59C471.39,206.61,441.31,249.47,404.32,249.47Z" transform="translate(-13.86 -13.71)"/><path class="cls-13" d="M340.93,126.18l-1.46-.23C343.78,99.07,374,86.39,402,85.75c28.27-.64,61.21,11.11,66.87,38.43l-1.44.3C461.91,98,429.64,86.59,402,87.22,374.61,87.85,345.1,100.14,340.93,126.18Z" transform="translate(-13.86 -13.71)"/><path class="cls-5" d="M340.2,126.8h-.12a.74.74,0,0,1-.61-.84C343.78,99.07,374,86.39,402,85.75c28.27-.64,61.21,11.11,66.87,38.43a.74.74,0,0,1-.57.87.74.74,0,0,1-.87-.57C461.91,98,429.64,86.59,402,87.22c-27.4.63-56.92,12.91-61.09,39A.74.74,0,0,1,340.2,126.8Z" transform="translate(-13.86 -13.71)"/><polygon class="cls-11" points="390.56 167.16 394.43 171.43 398.3 175.7 390.56 175.7 382.83 175.7 386.7 171.43 390.56 167.16"/><path class="cls-12" d="M412.15,190.15H396.69a.74.74,0,0,1-.55-1.23l7.73-8.54a.76.76,0,0,1,1.09,0l7.73,8.54a.74.74,0,0,1-.55,1.23Zm-13.8-1.47h12.14l-6.07-6.7Z" transform="translate(-13.86 -13.71)"/><path class="cls-5" d="M354.11,143.69a.74.74,0,0,1-.63-1.12c.1-.16,9.89-16,23.42-11.09a.74.74,0,1,1-.5,1.38c-12.4-4.51-21.57,10.32-21.66,10.47A.74.74,0,0,1,354.11,143.69Z" transform="translate(-13.86 -13.71)"/><path class="cls-5" d="M453.3,143.69a.74.74,0,0,1-.63-.35c-.09-.15-9.28-15-21.66-10.47a.74.74,0,1,1-.5-1.38c13.52-4.92,23.32,10.93,23.42,11.09a.74.74,0,0,1-.63,1.12Z" transform="translate(-13.86 -13.71)"/><path class="cls-5" d="M403.83,220.79c-9.77,0-19.53-4.45-20.76-14.86a.74.74,0,1,1,1.46-.17c1.2,10.17,11.55,14.11,21.25,13.49,9.32-.59,18.71-5.38,18.64-13.4a.74.74,0,0,1,1.47,0c.08,8.93-10,14.25-20,14.88C405.19,220.77,404.51,220.79,403.83,220.79Z" transform="translate(-13.86 -13.71)"/><circle class="cls-6" cx="341.27" cy="160.7" r="1.01"/><path class="cls-6" d="M355.13,176.17a1.75,1.75,0,1,1,1.75-1.75A1.75,1.75,0,0,1,355.13,176.17Zm0-2a.28.28,0,0,0-.28.28c0,.31.56.31.56,0A.28.28,0,0,0,355.13,174.14Z" transform="translate(-13.86 -13.71)"/><circle class="cls-6" cx="360.86" cy="170.63" r="0.8"/><path class="cls-6" d="M374.72,185.88a1.54,1.54,0,1,1,1.54-1.54A1.54,1.54,0,0,1,374.72,185.88Zm0-1.61.07.07A.07.07,0,0,0,374.72,184.27Z" transform="translate(-13.86 -13.71)"/><circle class="cls-6" cx="375.9" cy="161.72" r="0.8"/><path class="cls-6" d="M389.76,177a1.54,1.54,0,1,1,1.54-1.54A1.54,1.54,0,0,1,389.76,177Zm0-1.61.07.07A.07.07,0,0,0,389.76,175.36Z" transform="translate(-13.86 -13.71)"/><circle class="cls-6" cx="404.01" cy="162.72" r="1.01"/><path class="cls-6" d="M417.86,178.19a1.75,1.75,0,1,1,1.75-1.75A1.75,1.75,0,0,1,417.86,178.19Zm0-2a.28.28,0,0,0-.28.28c0,.31.56.31.56,0A.28.28,0,0,0,417.86,176.16Z" transform="translate(-13.86 -13.71)"/><circle class="cls-6" cx="423.6" cy="172.65" r="0.8"/><path class="cls-6" d="M437.45,187.9a1.54,1.54,0,1,1,1.54-1.54A1.54,1.54,0,0,1,437.45,187.9Zm0-1.61.07.07A.07.07,0,0,0,437.45,186.29Z" transform="translate(-13.86 -13.71)"/><circle class="cls-6" cx="438.64" cy="163.73" r="0.8"/><path class="cls-6" d="M452.49,179a1.54,1.54,0,1,1,1.54-1.54A1.54,1.54,0,0,1,452.49,179Zm0-1.61.07.07A.07.07,0,0,0,452.49,177.38Z" transform="translate(-13.86 -13.71)"/><path class="cls-5" d="M433.7,173.78a2.94,2.94,0,0,1-1.48-.41c-1.35-.79-2.12-2.52-2.11-4.75v-10.7a.74.74,0,0,1,.62-.73c.26,0,.73-.4,1.24-1.29a8.18,8.18,0,0,0,1.21-4.18.72.72,0,0,1,0-.73.74.74,0,0,1,.64-.37l2.89,0h.15a11.77,11.77,0,0,0,1.21.15.74.74,0,0,1,.17,1.44l-.89.29v16.11c0,2.25-.8,4-2.18,4.78A3,3,0,0,1,433.7,173.78Zm-2.12-15.34v10.18c0,1.67.51,3,1.38,3.48a1.42,1.42,0,0,0,1.48,0c.89-.51,1.43-1.82,1.43-3.51V152.08h-1.19a10.62,10.62,0,0,1-1,3.73A5.59,5.59,0,0,1,431.58,158.44Z" transform="translate(-13.86 -13.71)"/><path class="cls-5" d="M439.12,152.28c-.43,0-.82,0-1.17,0a.74.74,0,0,1-.68-.79.77.77,0,0,1,.79-.68c1.84.14,5.22,0,7.18-2.26a.74.74,0,1,1,1.12,1C444.37,151.8,441.31,152.28,439.12,152.28Z" transform="translate(-13.86 -13.71)"/><path class="cls-5" d="M373.66,173.78a2.94,2.94,0,0,1-1.48-.41c-1.35-.79-2.12-2.52-2.11-4.75v-10.7a.74.74,0,0,1,.62-.73c.26,0,.73-.4,1.24-1.29a8.18,8.18,0,0,0,1.21-4.18.72.72,0,0,1,0-.73.74.74,0,0,1,.64-.37l2.89,0h.15a11.77,11.77,0,0,0,1.21.15.74.74,0,0,1,.17,1.44l-.89.29v16.11c0,2.25-.8,4-2.18,4.78A3,3,0,0,1,373.66,173.78Zm-2.12-15.34v10.18c0,1.67.51,3,1.38,3.48a1.42,1.42,0,0,0,1.48,0c.89-.51,1.43-1.82,1.43-3.51V152.08h-1.19a10.62,10.62,0,0,1-1,3.73A5.59,5.59,0,0,1,371.55,158.44Z" transform="translate(-13.86 -13.71)"/><path class="cls-5" d="M379.08,152.28c-.43,0-.82,0-1.17,0a.74.74,0,0,1-.68-.79.76.76,0,0,1,.79-.68c1.84.14,5.22,0,7.18-2.26a.74.74,0,1,1,1.12,1C384.34,151.8,381.27,152.28,379.08,152.28Z" transform="translate(-13.86 -13.71)"/><path class="cls-5" d="M433.83,151.36c.6,1-1.09,6.26-3,6.56v10.7c0,5.92,5.74,5.88,5.76,0V152l1.4-.45a12.24,12.24,0,0,1-1.29-.16Z" transform="translate(-13.86 -13.71)"/><path class="cls-5" d="M438,151.5c1.94.15,5.62,0,7.8-2.51" transform="translate(-13.86 -13.71)"/><path class="cls-5" d="M373.79,151.36c.6,1-1.09,6.26-3,6.56v10.7c0,5.92,5.74,5.88,5.76,0V152l1.4-.45a12.24,12.24,0,0,1-1.29-.16Z" transform="translate(-13.86 -13.71)"/><path class="cls-5" d="M378,151.5c1.94.15,5.62,0,7.8-2.51" transform="translate(-13.86 -13.71)"/><path class="cls-9" d="M404.32,266.73a53.66,53.66,0,0,1-12-1.2c-4-1-6-2.39-6-4.25a.74.74,0,1,1,1.47,0c0,1.91,6.32,4,16.52,4s16.52-2.06,16.52-4a.74.74,0,1,1,1.47,0C422.32,265.3,412.62,266.73,404.32,266.73Z" transform="translate(-13.86 -13.71)"/></svg>