<svg id="Layer_1" data-name="Layer 1" xmlns="http://www.w3.org/2000/svg" viewBox="0 0 612.64 368.93"><defs><style>.cls-1{fill:#a9d7f3;opacity:0.5;}.cls-1,.cls-14{isolation:isolate;}.cls-2{fill:#fff;}.cls-3{fill:#d0e4f0;}.cls-4{fill:#40565b;}.cls-5{fill:#c3d4e0;}.cls-6{fill:#3aa1d6;}.cls-7{fill:#1785c8;}.cls-8{fill:#164a67;}.cls-9{fill:#a1c2d8;}.cls-10{fill:#d0e4f1;}.cls-11{fill:#325d70;}.cls-12{fill:#f36f42;}.cls-13{fill:#c84a27;}.cls-14{opacity:0.2;}</style></defs><title>Products-core-v2-K-12 ELA-hero</title><path class="cls-1" d="M456.51,35.43c8.48-.9,237.2,56.25,144,95.77s-88.32,67.62-64.07,86.16c16.68,12.76,59.36,5.61,42,49.15-8.78,22-73.22,13.74-92.23,27.53s89,28.62,0,54.85-318.45,35.61-363.42,9.66S69.48,279.3,100.2,271.26s-22.89-28.9-57.82-41.33-55.95-95.74,15-89S100.2,96.2,100.2,96.2-64.31,18.36,137.5,14,456.51,35.43,456.51,35.43Z" transform="translate(-10.18 -13.53)"/><path class="cls-2" d="M75.53,239.85s92.69,36.07,150.83-.25c4.38-2.74,10.34-.23,10.77,4.62L239.22,264c.9,10-3.94,21.86-14.15,25.51-27.68,9.9-76.77,24.9-150.08-18" transform="translate(-10.18 -13.53)"/><path class="cls-3" d="M225.07,276.89c7.53-2.69,12.12-9.84,13.66-17.42l.48,4.58c.9,10-3.94,21.86-14.15,25.51-27.68,9.9-76.77,24.9-150.08-18L75.21,259C148.39,301.75,197.42,286.78,225.07,276.89Z" transform="translate(-10.18 -13.53)"/><path class="cls-4" d="M169.63,301.19c-25.13,0-56.8-6.67-95-29a.73.73,0,0,1,.74-1.26c75.73,44.35,125.53,26.54,149.46,18,7.65-2.74,14.8-12.12,13.67-24.76l-2.09-19.82a5.42,5.42,0,0,0-3.12-4.4,6.76,6.76,0,0,0-6.54.32c-57.78,36.1-150.55.68-151.48.31a.73.73,0,0,1,.53-1.36c.92.36,93,35.52,150.18-.19a8.22,8.22,0,0,1,8-.39,6.84,6.84,0,0,1,3.92,5.56L239.95,264c.91,10.14-3.83,22.41-14.63,26.27C213.26,294.55,194.7,301.19,169.63,301.19Z" transform="translate(-10.18 -13.53)"/><path class="cls-5" d="M102,281.57a1.46,1.46,0,0,1-.84-2.65c.59-.42,14.32-10.32,9.41-23.88a1.46,1.46,0,1,1,2.74-1C119,269.71,103,281.19,102.81,281.3A1.45,1.45,0,0,1,102,281.57Z" transform="translate(-10.18 -13.53)"/><path class="cls-5" d="M136.24,291.79a1.46,1.46,0,0,1-.87-2.63c.62-.46,15.1-11.47,9.89-28.59a1.46,1.46,0,0,1,2.79-.85c5.81,19.11-10.78,31.65-10.95,31.78A1.45,1.45,0,0,1,136.24,291.79Z" transform="translate(-10.18 -13.53)"/><path class="cls-5" d="M166.89,295.81a1.46,1.46,0,0,1-1-2.47c.5-.51,12.08-12.75,6.24-31.87a1.46,1.46,0,1,1,2.79-.85c6.36,20.82-6.39,34.2-6.94,34.76A1.45,1.45,0,0,1,166.89,295.81Z" transform="translate(-10.18 -13.53)"/><path class="cls-5" d="M203,291a1.46,1.46,0,0,1-1-2.55c.15-.13,8.42-8.07.75-31.25a1.46,1.46,0,1,1,2.77-.91c8.37,25.32-1.18,34-1.59,34.36A1.45,1.45,0,0,1,203,291Z" transform="translate(-10.18 -13.53)"/><path class="cls-6" d="M227.49,381.74a175.84,175.84,0,0,1-17.36-103.67c3.29-23.75,12.72-50.24,40.47-55.12,32.36-5.65,71.53-2.15,99.32,15.76,12.94,8.35,17.06,21,16.8,35.44A350.55,350.55,0,0,1,348,381.74" transform="translate(-10.18 -13.53)"/><path class="cls-7" d="M250.6,222.93c32.36-5.65,71.53-2.15,99.32,15.76,12.94,8.35,17.06,21,16.8,35.44A350.55,350.55,0,0,1,348,381.74H313.88C326,331.83,326.13,267.4,267,258.58c-13.86-3.46-27.72-5.2-41.58,1.73a61.59,61.59,0,0,0-13.86,9.6C215.81,248.59,226,227.23,250.6,222.93Z" transform="translate(-10.18 -13.53)"/><path class="cls-8" d="M348,382.47a.71.71,0,0,1-.23,0,.73.73,0,0,1-.46-.92A349.27,349.27,0,0,0,366,274.14c.29-16.09-5.1-27.48-16.47-34.82-29.61-19.09-70.46-20.61-98.8-15.66-22,3.87-35.4,22.21-39.87,54.51a174.32,174.32,0,0,0,17.29,103.24.73.73,0,0,1-1.3.66A175.77,175.77,0,0,1,209.41,278c4.57-33,18.39-51.75,41.06-55.74,28.62-5,69.87-3.45,99.84,15.87,11.83,7.63,17.44,19.43,17.14,36.07A350.77,350.77,0,0,1,348.67,382,.73.73,0,0,1,348,382.47Z" transform="translate(-10.18 -13.53)"/><path class="cls-2" d="M314.37,203.77l-1.94,20.29a10.57,10.57,0,0,1-6,8.66,32.1,32.1,0,0,1-16.56,2.58,29,29,0,0,1-14.52-5.2,10.65,10.65,0,0,1-4.38-8.78C288,227.49,303.7,217.47,314.37,203.77Z" transform="translate(-10.18 -13.53)"/><path class="cls-3" d="M274.14,187.38l41.44,3.95-1.18,12.42c-10.69,13.7-26.42,23.73-43.43,17.6v-.9Z" transform="translate(-10.18 -13.53)"/><path class="cls-4" d="M293.42,236.24a32.81,32.81,0,0,1-3.58-.2A29.72,29.72,0,0,1,275,230.72a11.45,11.45,0,0,1-4.65-10.33l3.15-33.05a.73.73,0,0,1,.8-.66l41.44,3.95a.73.73,0,0,1,.66.79l-3.12,32.72a11.32,11.32,0,0,1-6.46,9.25A32.89,32.89,0,0,1,293.42,236.24Zm-18.56-48-3.08,32.33h0a10,10,0,0,0,4,9A28.29,28.29,0,0,0,290,234.59a31.45,31.45,0,0,0,16.21-2.52A9.86,9.86,0,0,0,311.8,224l3.05-32Zm-3.81,32.26h0Z" transform="translate(-10.18 -13.53)"/><path class="cls-5" d="M294,218.13a85,85,0,0,1-14.92-1.32,1.46,1.46,0,0,1,.51-2.87,82.11,82.11,0,0,0,27.1.29,1.46,1.46,0,1,1,.45,2.88A85.09,85.09,0,0,1,294,218.13Z" transform="translate(-10.18 -13.53)"/><path class="cls-2" d="M137.75,328,57.44,291.09C74.9,247.24,71.77,203,45.92,158.18l98.57,23.59C155.49,232.71,153.93,281.57,137.75,328Z" transform="translate(-10.18 -13.53)"/><path class="cls-9" d="M137.75,328.73a.72.72,0,0,1-.3-.07l-80.31-36.9a.73.73,0,0,1-.37-.93c17.57-44.15,13.71-88.65-11.47-132.28a.72.72,0,0,1,0-.8.73.73,0,0,1,.75-.27l98.57,23.59a.73.73,0,0,1,.54.55c11.26,52.12,9,101.45-6.76,146.62a.73.73,0,0,1-.69.49Zm-79.38-38L137.32,327c15.37-44.57,17.58-93.23,6.55-144.63L47.39,159.28C71.94,202.63,75.63,246.84,58.37,290.72Z" transform="translate(-10.18 -13.53)"/><path class="cls-10" d="M74.85,220.45s-61.13,16.33-20,57.46C97.94,321,74.85,220.45,74.85,220.45Z" transform="translate(-10.18 -13.53)"/><path class="cls-10" d="M71.94,289.39c-4.46,0-10.27-3.63-17.61-11C42.6,266.69,38,255.77,40.61,246c2-7.58,8.59-14.52,18.95-20.08a79.59,79.59,0,0,1,15.11-6.15.73.73,0,0,1,.9.54c.57,2.47,13.73,60.55-.15,68.23A7.06,7.06,0,0,1,71.94,289.39Zm2.37-68c-4.47,1.35-28,9.14-32.3,25-2.48,9.25,2,19.69,13.35,31,8.78,8.78,15.29,12.09,19.35,9.85,5.26-2.91,6.86-15.29,4.61-35.8C77.81,237.75,75,224.6,74.31,221.37Z" transform="translate(-10.18 -13.53)"/><path class="cls-2" d="M67.73,223.06S14,237.42,50.14,273.6C88,311.51,67.73,223.06,67.73,223.06Z" transform="translate(-10.18 -13.53)"/><path class="cls-3" d="M70.61,279.47c7.11-12.91-2.88-56.41-2.88-56.41a63.73,63.73,0,0,0-7.19,2.54c-3.67,6.38-5.66,14.81-5.11,23.93C56.25,263,62.39,274.39,70.61,279.47Z" transform="translate(-10.18 -13.53)"/><path class="cls-4" d="M65.17,283.79c-3.95,0-9.08-3.2-15.55-9.67-10.35-10.35-14.41-20-12.09-28.62,4.32-16.1,29-22.86,30-23.14a.73.73,0,0,1,.9.54c.5,2.17,12.09,53.32-.17,60.11A6.29,6.29,0,0,1,65.17,283.79Zm2-59.81c-4.14,1.26-24.56,8.1-28.26,21.9-2.17,8.11,1.77,17.26,11.72,27.21,7.69,7.69,13.38,10.6,16.92,8.65,4.6-2.54,6-13.41,4-31.41C70.26,238.41,67.85,227,67.19,224Z" transform="translate(-10.18 -13.53)"/><path class="cls-2" d="M509.56,247.16s-94.29,40-153.43-.28a7,7,0,0,0-11,5.12L343,274c-.91,11.11,4,24.24,14.39,28.29,28.15,11,78.09,27.61,152.66-20" transform="translate(-10.18 -13.53)"/><path class="cls-3" d="M357.44,288.22c-7.66-3-12.33-10.91-13.9-19.32L343,274c-.91,11.11,4,24.24,14.39,28.29,28.15,11,78.09,27.61,152.66-20l-.21-13.91C435.44,315.79,385.57,299.19,357.44,288.22Z" transform="translate(-10.18 -13.53)"/><path class="cls-4" d="M413.84,315.09c-25.51,0-44.4-7.36-56.66-12.15-11-4.27-15.77-17.84-14.85-29l2.13-22a7.56,7.56,0,0,1,4.32-6.27,7.75,7.75,0,0,1,7.78.62c58.13,39.59,151.79.61,152.73.21a.73.73,0,0,1,.57,1.34c-.95.4-95.34,39.69-154.12-.35a6.31,6.31,0,0,0-6.33-.5,6.13,6.13,0,0,0-3.49,5.08l-2.13,22c-.85,10.38,3.74,23.56,13.93,27.54,24.34,9.49,75,29.24,152-19.94a.73.73,0,1,1,.79,1.23C471.63,307.69,439.41,315.09,413.84,315.09Z" transform="translate(-10.18 -13.53)"/><path class="cls-5" d="M482.66,293.26a1.45,1.45,0,0,1-.89-.3,35.42,35.42,0,0,1-7.44-8.4c-4.44-7-5.54-14.43-3.16-21.57a1.46,1.46,0,0,1,2.77.92c-5.07,15.24,9.46,26.62,9.61,26.73a1.46,1.46,0,0,1-.89,2.61Z" transform="translate(-10.18 -13.53)"/><path class="cls-5" d="M447.8,304.59a1.45,1.45,0,0,1-.91-.32c-.17-.14-17-14-11.09-35a1.46,1.46,0,1,1,2.81.78c-5.34,19.15,9.48,31.43,10.11,31.94a1.46,1.46,0,0,1-.92,2.59Z" transform="translate(-10.18 -13.53)"/><path class="cls-5" d="M416.63,309a1.45,1.45,0,0,1-1.09-.49c-.55-.62-13.44-15.37-7-38.31a1.46,1.46,0,1,1,2.81.79c-6,21.42,6.26,35.44,6.38,35.58a1.46,1.46,0,0,1-1.09,2.43Z" transform="translate(-10.18 -13.53)"/><path class="cls-5" d="M379.93,303.72a1.45,1.45,0,0,1-1-.4c-.41-.39-10-9.93-1.58-37.85a1.46,1.46,0,0,1,2.79.85c-8,26.21.71,34.8.79,34.89a1.46,1.46,0,0,1-1,2.52Z" transform="translate(-10.18 -13.53)"/><path class="cls-2" d="M475,92.34s50.91,42,61.27,135.16" transform="translate(-10.18 -13.53)"/><path class="cls-3" d="M531.09,226.46s7.75-17.39,14.63-10.22,14.05,30.71,0,33.6" transform="translate(-10.18 -13.53)"/><path class="cls-2" d="M527.95,248s4.93,9.85,13,6.32,7.17-25.58-12.54-27.82-23.74,42.11-21.95,51.07,10.75,2.24,10.75,2.24l11.66-13.29,3.81-13" transform="translate(-10.18 -13.53)"/><path class="cls-2" d="M547.2,258.05s.9,18.66-8.5,21.35-22.85,8.51-19.71-8.51,12-18.73,12-18.73" transform="translate(-10.18 -13.53)"/><path class="cls-3" d="M542,254.36s9.06,6.24.46,8.41c-18.18,4.59-14.32-8.87-12-11.27l4.49,3.42Z" transform="translate(-10.18 -13.53)"/><path class="cls-3" d="M523.58,237.88s3.36,11,7.46,14.28c0,0-8.5,2-11.17,15.75C518.7,274,523.58,237.88,523.58,237.88Z" transform="translate(-10.18 -13.53)"/><polygon class="cls-3" points="536.73 255.26 533.25 262.29 527.02 244.94 532.34 243.03 536.73 255.26"/><path class="cls-4" d="M545.71,250.56a.73.73,0,0,1-.15-1.44,8.53,8.53,0,0,0,6.81-6.22c2.54-8.17-2.53-21.3-7.19-26.16a4,4,0,0,0-3.65-1.45c-4.16.72-8.47,8.52-9.78,11.47a.73.73,0,0,1-1.33-.59c.21-.46,5.1-11.3,10.86-12.31a5.38,5.38,0,0,1,5,1.88c4.85,5.05,10.32,18.64,7.53,27.6a10,10,0,0,1-7.91,7.21Z" transform="translate(-10.18 -13.53)"/><path class="cls-4" d="M525.05,283.29a7.34,7.34,0,0,1-5-1.6c-2.17-1.93-2.74-5.51-1.74-10.94,3.19-17.31,12.25-19.24,12.63-19.32a.73.73,0,1,1,.27,1.43c-.08,0-8.48,1.9-11.47,18.15-.89,4.82-.46,8,1.27,9.59,2.85,2.55,9.14.63,14.68-1.06,1-.3,1.93-.59,2.84-.85,8.75-2.5,8-20.43,8-20.61a.73.73,0,0,1,.69-.76.7.7,0,0,1,.76.69c0,.79.82,19.27-9,22.09-.91.26-1.85.55-2.81.84C532.39,282.07,528.38,283.29,525.05,283.29Z" transform="translate(-10.18 -13.53)"/><path class="cls-2" d="M528.4,226.54,499.5,187.2v-7.43l19,11.41L495.25,171V159.07l19.38,6.37-20.7-17.52L474,91.93s70,26.57,62.23,135.57q0,.66-.1,1.33" transform="translate(-10.18 -13.53)"/><path class="cls-9" d="M536.15,229.55h-.06a.73.73,0,0,1-.67-.78l.1-1.32c2.21-30.92-.84-74.76-28-108.07-13.45-16.51-27.71-24-32.29-26.1l19.28,54.22,20.55,17.39a.73.73,0,0,1-.7,1.25L496,160.07v10.6l23,20a.73.73,0,0,1-.85,1.18l-17.92-10.75V187L529,226.11a.73.73,0,0,1-1.18.86l-28.9-39.34a.73.73,0,0,1-.14-.43v-7.43a.73.73,0,0,1,1.1-.62l11.85,7.11-17-14.69a.73.73,0,0,1-.25-.55V159.07a.73.73,0,0,1,1-.69l15.82,5.2-17.85-15.1a.72.72,0,0,1-.21-.31l-19.91-56a.73.73,0,0,1,.94-.92c.18.07,17.88,6.95,34.35,27.13C523.8,137,541,171,537,227.55l-.1,1.33A.73.73,0,0,1,536.15,229.55Z" transform="translate(-10.18 -13.53)"/><path class="cls-9" d="M536.25,228.23a.73.73,0,0,1-.72-.65c-10.21-91.72-60.5-134.26-61-134.68a.73.73,0,1,1,.93-1.12c.51.42,51.25,43.3,61.53,135.65a.73.73,0,0,1-.64.8Z" transform="translate(-10.18 -13.53)"/><polyline class="cls-2" points="535.53 236.3 543.29 256.77 540.35 271.08 530.76 240.83"/><path class="cls-9" d="M550.53,285.34a.73.73,0,0,1-.69-.51l-9.59-30.25a.73.73,0,1,1,1.39-.44l8.74,27.58,2.34-11.36L545,250.09a.73.73,0,0,1,1.36-.52L554.15,270a.74.74,0,0,1,0,.4l-2.94,14.31a.73.73,0,0,1-.68.58Z" transform="translate(-10.18 -13.53)"/><path class="cls-4" d="M511.05,282.65a5.6,5.6,0,0,1-2.06-.36c-1.69-.67-2.79-2.19-3.26-4.54-1.48-7.39.91-36,11.21-47.21,3.34-3.63,7.22-5.22,11.53-4.73,11.49,1.31,16.7,9.16,17.75,16.07.91,6-1.14,11.45-5,13.14-8.6,3.77-13.88-6.56-13.94-6.66a.73.73,0,0,1,1.3-.65c.19.38,4.72,9.19,12,6,3.2-1.4,4.94-6.28,4.14-11.59-1-6.38-5.8-13.63-16.47-14.84-3.81-.43-7.29,1-10.3,4.27-10,10.87-12.3,38.73-10.86,45.93.37,1.85,1.14,3,2.36,3.47,2.81,1.1,7.5-1.58,9.07-2.71a.73.73,0,1,1,.85,1.18C519.23,279.56,514.88,282.65,511.05,282.65Z" transform="translate(-10.18 -13.53)"/><path class="cls-11" d="M546.43,271.68s-3.94-12-2.92-12.19,4.43,6.28,7,3l3,7.81-2.94,14.31Z" transform="translate(-10.18 -13.53)"/><path class="cls-11" d="M550.68,287.5l-4.94-15.6c-2.48-7.56-3.47-11.84-2.95-12.72l.17-.29.43-.13c.73-.12,1.34.54,2.26,1.54s2.3,2.41,3.27,2.38a1.42,1.42,0,0,0,1-.65l.8-1,3.49,9.21,0,.21Zm-6.53-26.66a97.81,97.81,0,0,0,3,10.61h0l3.26,10.27,2.34-11.36-2.51-6.61a2.47,2.47,0,0,1-1.24.39c-1.68.07-3.19-1.55-4.39-2.85Zm-.71-.64h0Z" transform="translate(-10.18 -13.53)"/><path class="cls-3" d="M200.15,141c3.86-27.16,19.28-47.6,35-47h0a761.2,761.2,0,0,1,144.43,14L365.12,210.33s-72.78-3.63-142.59-14C206.11,194,196.14,169.22,200.15,141Z" transform="translate(-10.18 -13.53)"/><path class="cls-12" d="M361.28,75.23a58,58,0,0,0-24.68-21.3c-9.44-4.45-20.79-6.81-31-3.52a35.66,35.66,0,0,0-21.13,19c-4,8.61-4.77,17.93-4.29,27.05a18.74,18.74,0,0,0,1.38,7.05,20.68,20.68,0,0,0,3.66,5c8.6,9.42,19.09,18.47,32.53,20.68,10.34,1.75,21.08-.93,30.45-5.46,8.46-4.1,15.92-10.65,19.21-18.91C370.91,95.68,366.08,83,361.28,75.23Z" transform="translate(-10.18 -13.53)"/><path class="cls-13" d="M324.28,130.47a40,40,0,0,1-6.68-.55c-14.45-2.37-25.2-12.42-32.95-20.91a21.31,21.31,0,0,1-3.77-5.11,19.41,19.41,0,0,1-1.46-7.39c-.57-10.81.86-19.77,4.36-27.36a36.52,36.52,0,0,1,21.56-19.43c9.22-3,20.43-1.7,31.56,3.56a58.59,58.59,0,0,1,25,21.56h0c5.08,8.17,9.74,21,6.18,30.24-3.13,7.85-10.08,14.71-19.58,19.31C342.4,127.34,333.71,130.47,324.28,130.47ZM315.76,49.6a32.46,32.46,0,0,0-10,1.5,35,35,0,0,0-20.69,18.66c-3.4,7.37-4.78,16.11-4.22,26.71a18,18,0,0,0,1.33,6.82,19.93,19.93,0,0,0,3.5,4.72c7.61,8.34,18.12,18.18,32.13,20.47,11.54,2,22.69-1.86,30-5.4,9.17-4.44,15.86-11,18.85-18.53,3.37-8.74-1.16-21.05-6.05-28.93a57.15,57.15,0,0,0-24.37-21C331.78,52.47,324.14,49.6,315.76,49.6Z" transform="translate(-10.18 -13.53)"/><path class="cls-13" d="M324.28,130.47a40,40,0,0,1-6.68-.55c-14.45-2.37-25.2-12.42-32.95-20.91a21.31,21.31,0,0,1-3.77-5.11,19.41,19.41,0,0,1-1.46-7.39c-.57-10.81.86-19.77,4.36-27.36a36.52,36.52,0,0,1,21.56-19.43c9.22-3,20.43-1.7,31.56,3.56a58.59,58.59,0,0,1,25,21.56h0c5.08,8.17,9.74,21,6.18,30.24-3.13,7.85-10.08,14.71-19.58,19.31C342.4,127.34,333.71,130.47,324.28,130.47ZM315.76,49.6a32.46,32.46,0,0,0-10,1.5,35,35,0,0,0-20.69,18.66c-3.4,7.37-4.78,16.11-4.22,26.71a18,18,0,0,0,1.33,6.82,19.93,19.93,0,0,0,3.5,4.72c7.61,8.34,18.12,18.18,32.13,20.47,11.54,2,22.69-1.86,30-5.4,9.17-4.44,15.86-11,18.85-18.53,3.37-8.74-1.16-21.05-6.05-28.93a57.15,57.15,0,0,0-24.37-21C331.78,52.47,324.14,49.6,315.76,49.6Z" transform="translate(-10.18 -13.53)"/><path class="cls-12" d="M346.22,107c-11-29.12-28.24-62.12-55.37-82a53.64,53.64,0,0,0-19.27-9.46A31.92,31.92,0,0,0,247,20c-9.58,6.27-13.16,17.45-13.32,28.32C233.32,68.16,240,88.09,249,106.52Z" transform="translate(-10.18 -13.53)"/><path class="cls-13" d="M346.22,107.78h0L249,107.25a.73.73,0,0,1-.65-.41c-10.67-21.75-15.72-40.9-15.45-58.55.2-13,5-23.29,13.66-28.92a32.8,32.8,0,0,1,25.19-4.45,54.11,54.11,0,0,1,19.55,9.59c22.43,16.4,41.14,44.08,55.61,82.28a.73.73,0,0,1-.68,1Zm-96.76-2,95.7.52c-14.31-37.41-32.73-64.54-54.74-80.64a52.65,52.65,0,0,0-19-9.34,31.33,31.33,0,0,0-24,4.26c-11.05,7.23-12.88,20.47-13,27.72C234.09,65.61,239,84.42,249.46,105.79Z" transform="translate(-10.18 -13.53)"/><path class="cls-13" d="M346.22,107.78h0L249,107.25a.73.73,0,0,1-.65-.41c-10.67-21.75-15.72-40.9-15.45-58.55.2-13,5-23.29,13.66-28.92a32.8,32.8,0,0,1,25.19-4.45,54.11,54.11,0,0,1,19.55,9.59c22.43,16.4,41.14,44.08,55.61,82.28a.73.73,0,0,1-.68,1Zm-96.76-2,95.7.52c-14.31-37.41-32.73-64.54-54.74-80.64a52.65,52.65,0,0,0-19-9.34,31.33,31.33,0,0,0-24,4.26c-11.05,7.23-12.88,20.47-13,27.72C234.09,65.61,239,84.42,249.46,105.79Z" transform="translate(-10.18 -13.53)"/><circle class="cls-12" cx="167.36" cy="138.05" r="10.55" transform="translate(18.71 291.54) rotate(-89.86)"/><path class="cls-13" d="M167.36,149.33h0a11.28,11.28,0,0,1,0-22.56h0a11.28,11.28,0,0,1,0,22.56Zm0-21.1a9.82,9.82,0,0,0,0,19.64h0a9.82,9.82,0,0,0,0-19.64Z" transform="translate(-10.18 -13.53)"/><path class="cls-3" d="M226.6,144.69a1.72,1.72,0,0,0,.11-3.33l-51.89-3.76a1.72,1.72,0,0,0-.25,3.33l51.89,3.76Z" transform="translate(-10.18 -13.53)"/><path class="cls-4" d="M226.69,145.42h-.22l-52.12-3.8a2.45,2.45,0,0,1,.35-4.73l.09,0h.09l52.05,3.79a2.45,2.45,0,0,1-.16,4.73Zm-52-5.21L226.51,144a1,1,0,0,0,.06-1.88l-51.69-3.75a1,1,0,0,0-.14,1.87Z" transform="translate(-10.18 -13.53)"/><path class="cls-2" d="M371,125a20.89,20.89,0,0,1,6.36-1.07l-7.94,55.85A91.13,91.13,0,0,0,341,173.33c-44.63-4.06-90.36,15.64-134.63,10.36-5.92-10.36-8.56-25.88-6.08-42.69a78.84,78.84,0,0,1,10-29.28C255.3,137.71,319.06,139.15,371,125Z" transform="translate(-10.18 -13.53)"/><path class="cls-3" d="M235.16,94h0a761.2,761.2,0,0,1,144.43,14l-2.19,15.94a20.89,20.89,0,0,0-6.28,1c-52,14.13-115.73,12.7-160.9-13.34C216.88,100.51,226,93.65,235.16,94Z" transform="translate(-10.18 -13.53)"/><path class="cls-4" d="M365.12,211.06h0c-.73,0-73.62-3.75-142.66-14-8.2-1.16-15.1-7.7-19.42-18.39s-5.53-24-3.57-37.73c3.88-27.31,19.61-48.3,35.75-47.65a763.72,763.72,0,0,1,144.55,14,.73.73,0,0,1,.58.82L365.84,210.43A.73.73,0,0,1,365.12,211.06ZM234.53,94.7c-15.24,0-29.93,20.19-33.66,46.41h0c-1.93,13.53-.69,26.66,3.48,37s10.61,16.41,18.28,17.5c65.45,9.74,134.37,13.58,141.86,14l14.28-101A762.31,762.31,0,0,0,235.15,94.71ZM200.15,141h0Z" transform="translate(-10.18 -13.53)"/><ellipse class="cls-9" cx="372.04" cy="158.98" rx="51.58" ry="29.87" transform="translate(151.51 491.04) rotate(-81.81)"/><path class="cls-4" d="M367.17,210.94a18.22,18.22,0,0,1-2.59-.18c-16.7-2.4-26.94-27.59-22.83-56.14,2-13.76,7-26.27,14-35.2S371.32,106,379.49,107.2h0c16.7,2.4,26.94,27.59,22.83,56.14C398.42,190.41,383,210.94,367.17,210.94Zm9.68-102.47c-6.87,0-13.87,4.13-20,11.85-6.89,8.74-11.76,21-13.7,34.51-4,27.76,5.69,52.2,21.6,54.49s32.09-18.43,36.09-46.19-5.69-52.2-21.6-54.49h0A17,17,0,0,0,376.86,108.47Z" transform="translate(-10.18 -13.53)"/><path class="cls-4" d="M367.17,210.94a18.22,18.22,0,0,1-2.59-.18c-16.7-2.4-26.94-27.59-22.83-56.14,2-13.76,7-26.27,14-35.2S371.32,106,379.49,107.2h0c16.7,2.4,26.94,27.59,22.83,56.14C398.42,190.41,383,210.94,367.17,210.94Zm9.68-102.47c-6.87,0-13.87,4.13-20,11.85-6.89,8.74-11.76,21-13.7,34.51-4,27.76,5.69,52.2,21.6,54.49s32.09-18.43,36.09-46.19-5.69-52.2-21.6-54.49h0A17,17,0,0,0,376.86,108.47Z" transform="translate(-10.18 -13.53)"/><path class="cls-4" d="M313.37,141.13a5.31,5.31,0,0,0,6.4-3.93v0c.85-3.14,2-6.24,2.94-9.35a4,4,0,0,1,2.65,2.14c1.53,3.11-.69,7.38-1.47,10.44a72.24,72.24,0,0,0-1.76,14.49,10,10,0,0,1-1.74,6,3.45,3.45,0,0,1-3,1.27c-6.34-.48-5.15-9.46-4.84-13.61A59.72,59.72,0,0,1,313.37,141.13Z" transform="translate(-10.18 -13.53)"/><path class="cls-4" d="M222.42,133.91a4.72,4.72,0,0,0,5.57-3.69q0-.19.06-.38c.7-3.14,1.74-6.27,2.44-9.41a3.64,3.64,0,0,1,2.39,2.09c1.41,3.09-.48,7.39-1.13,10.46a80.88,80.88,0,0,0-1.36,14.53,10.93,10.93,0,0,1-1.45,6.06,3,3,0,0,1-2.64,1.32c-5.65-.38-4.77-9.35-4.55-13.53C221.88,138.87,222.09,136.34,222.42,133.91Z" transform="translate(-10.18 -13.53)"/><polygon class="cls-12" points="271.98 130.14 253.64 128.82 264.06 114.08 271.98 130.14"/><path class="cls-13" d="M282.16,144.4h-.05l-18.34-1.32a.73.73,0,0,1-.54-1.15l10.41-14.75a.73.73,0,0,1,1.25.1l7.92,16.07a.73.73,0,0,1-.65,1.05Zm-17-2.68,15.78,1.14L274.13,129Z" transform="translate(-10.18 -13.53)"/><path class="cls-9" d="M251,170.28c-.24-.33-.5-.66-.72-1a18.84,18.84,0,0,1-3.12-12.49,213.88,213.88,0,0,1,49.11,5.41,22,22,0,0,1-3.9,8.51A72.4,72.4,0,0,0,251,170.28Z" transform="translate(-10.18 -13.53)"/><path class="cls-4" d="M292.39,171.44a.73.73,0,0,1-.21,0,71.5,71.5,0,0,0-41-.42.73.73,0,0,1-.79-.27l-.2-.26c-.19-.25-.38-.51-.55-.77a19.59,19.59,0,0,1-3.24-13,.73.73,0,0,1,.72-.65,213.74,213.74,0,0,1,49.28,5.43.73.73,0,0,1,.55.87,22.56,22.56,0,0,1-4,8.79A.73.73,0,0,1,292.39,171.44Zm-21.4-4.7a73,73,0,0,1,21.12,3.12,21.06,21.06,0,0,0,3.3-7.11,213.67,213.67,0,0,0-47.57-5.23,18.14,18.14,0,0,0,3.06,11.35c.13.2.27.39.4.57A73.1,73.1,0,0,1,271,166.74Z" transform="translate(-10.18 -13.53)"/><path class="cls-12" d="M292.32,170.71a24.25,24.25,0,0,1-16.19,9.23c-9.48,1.37-19.64-2.36-25.11-9.66A72.4,72.4,0,0,1,292.32,170.71Z" transform="translate(-10.18 -13.53)"/><path class="cls-13" d="M272.19,181c-8.58,0-17-3.85-21.75-10.24a.73.73,0,0,1,.38-1.14,72.93,72.93,0,0,1,41.72.43.73.73,0,0,1,.36,1.14,25.14,25.14,0,0,1-16.68,9.51A28.06,28.06,0,0,1,272.19,181Zm-19.92-10.26c5.35,6.43,14.75,9.84,23.75,8.53a23.72,23.72,0,0,0,15-8.13A71.46,71.46,0,0,0,252.27,170.69Z" transform="translate(-10.18 -13.53)"/><path class="cls-4" d="M272.21,181c-9.07,0-17.94-4.32-22.52-11.27a19.59,19.59,0,0,1-3.24-13,.73.73,0,0,1,.72-.65,215.45,215.45,0,0,1,49.21,5.43.73.73,0,0,1,.55.87c-2.15,9.76-10.08,16.77-20.7,18.3A28,28,0,0,1,272.21,181Zm-24.37-23.44a18.14,18.14,0,0,0,3.06,11.35c5,7.53,15.3,11.78,25.12,10.35s17.08-7.69,19.32-16.47a213.48,213.48,0,0,0-47-5.23Z" transform="translate(-10.18 -13.53)"/><path class="cls-4" d="M239.64,106.93a.73.73,0,0,1-.65-.4,5.37,5.37,0,0,0-8.63-1.33.73.73,0,1,1-1-1,6.83,6.83,0,0,1,11,1.69.73.73,0,0,1-.65,1.06Z" transform="translate(-10.18 -13.53)"/><path class="cls-4" d="M332.39,117.14a.73.73,0,0,1-.65-.4,5.38,5.38,0,0,0-8.63-1.33.73.73,0,1,1-1-1,6.83,6.83,0,0,1,11,1.69.73.73,0,0,1-.32,1A.74.74,0,0,1,332.39,117.14Z" transform="translate(-10.18 -13.53)"/><g class="cls-14"><path class="cls-4" d="M373.45,156.15a1.72,1.72,0,0,1,2.2.83l16.12,35.76a5.5,5.5,0,0,0-.69,1.12l-.17.14a15.81,15.81,0,0,0-1.47,1.72L372.6,158.41A1.72,1.72,0,0,1,373.45,156.15Z" transform="translate(-10.18 -13.53)"/><path class="cls-4" d="M389.44,196.45h-.08a.73.73,0,0,1-.59-.42l-16.84-37.31a2.47,2.47,0,0,1,1.21-3.22h0a2.46,2.46,0,0,1,3.14,1.19l16.13,35.78a.73.73,0,0,1-.1.75,4.77,4.77,0,0,0-.6,1,.75.75,0,0,1-.21.26l-.17.14a15.56,15.56,0,0,0-1.34,1.58A.73.73,0,0,1,389.44,196.45Zm-15.69-39.63a1,1,0,0,0-.48,1.29l16.34,36.21q.38-.44.78-.85l.1-.08a6.17,6.17,0,0,1,.44-.75L375,157.29A1,1,0,0,0,373.75,156.82Z" transform="translate(-10.18 -13.53)"/></g><path class="cls-9" d="M425.82,165.43a1.72,1.72,0,0,0,.16-3.33l-51.7-6.18a1.72,1.72,0,1,0-.4,3.31l51.68,6.19Z" transform="translate(-10.18 -13.53)"/><path class="cls-4" d="M425.82,166.16h-.26L373.88,160a2.45,2.45,0,0,1-2.51-3.35,2.45,2.45,0,0,1,3.09-1.4l51.61,6.17a2.49,2.49,0,0,1,1.78,1.85,2.46,2.46,0,0,1-1.88,2.91Zm-51.94-7.65H374l51.68,6.19h.08a1,1,0,0,0,0-1.91l-51.56-6.15-.18,0a1,1,0,1,0-.74,1.85,1,1,0,0,0,.5.06Z" transform="translate(-10.18 -13.53)"/><circle class="cls-12" cx="433.23" cy="164.19" r="10.55" transform="matrix(0, -1, 1, 0, 257.8, 583.49)"/><path class="cls-13" d="M433.23,175.47h0a11.28,11.28,0,0,1,0-22.56h0a11.28,11.28,0,0,1,0,22.56Zm0-21.1a9.82,9.82,0,0,0,0,19.64h0a9.82,9.82,0,0,0,0-19.64Z" transform="translate(-10.18 -13.53)"/></svg>