<?xml version="1.0" encoding="utf-8"?>
<!-- Generator: Adobe Illustrator 20.1.0, SVG Export Plug-In . SVG Version: 6.00 Build 0)  -->
<svg version="1.1" id="Layer_1" xmlns="http://www.w3.org/2000/svg" xmlns:xlink="http://www.w3.org/1999/xlink" x="0px" y="0px"
	 viewBox="0 0 887 635" style="enable-background:new 0 0 887 635;" xml:space="preserve">
<style type="text/css">
	.st0{opacity:0.5;enable-background:new    ;}
	.st1{fill:#A9D7F3;}
	.st2{fill:#DD5566;}
	.st3{fill:#C14257;}
	.st4{fill:#BC1A3C;}
	.st5{fill:#E7F1F8;}
	.st6{fill:#40565B;}
	.st7{fill:#29B99A;}
	.st8{fill:#0F716F;}
	.st9{fill:#8FD1BE;}
	.st10{fill:#FFFFFF;}
	.st11{fill:#D0E4F0;}
	.st12{fill:#A1C2D8;}
	.st13{fill:#3AA1D6;}
	.st14{fill:#1785C8;}
	.st15{fill:#164A67;}
	.st16{fill:#F36F42;}
	.st17{fill:#C84A27;}
	.st18{fill:#8C6844;}
	.st19{fill:#705230;}
	.st20{opacity:7.000000e-02;fill:#3F555A;}
	.st21{fill:#84A5B7;}
</style>
<g>
	<g class="st0">
		<path class="st1" d="M701.3,456.6c0-3.7,15.6-6.8,34.8-6.8c19.2,0,55.5,3,55.5,6.8c0,3.7-36.3,6.8-55.5,6.8
			C716.9,463.3,701.3,460.3,701.3,456.6z"/>
		<path class="st1" d="M570.2,92c0-3.7,15.6-6.8,34.8-6.8c19.2,0,55.5,3,55.5,6.8s-36.3,6.8-55.5,6.8
			C585.7,98.7,570.2,95.7,570.2,92z"/>
		<g>
			<path class="st1" d="M764.5,367.4c0,0-24.8,10.3-22.2-32.1c2.6-42.4,22.2-31.1,22.2-31.1s66.1,14.6,75.4-40.3c-0.7,0-1.4,0-2.2,0
				c-20.4,0-20.4-20.9,0-20.9c1,0,2,0,3,0c-0.2-2.4-0.4-4.8-0.7-7.4C829.2,148,712.9,210.2,689,191c-24-19.1-22.1-62.5-22.1-62.5
				s5.3-12.8,3.4-29.5c-24.8,5.3-61.1,8.8-84.7,8.8c-38.7,0-70.1-9.4-70.1-21c0-11.6,31.4-21,70.1-21c20.7,0,51.3,2.7,75.3,7
				c-16.4-25.4-58.3-50-158.8-50c-208.6,0-160,105.6-160,105.6s-20,43.4-55,62.5S82.8,148,66.9,235.7
				c-15.9,87.7,32.7,70.1,32.7,70.1s28.6-11.2,32.4,31.1c3.7,42.4-32.4,32.1-32.4,32.1s-103.7-0.1-84.1,114.9
				c2.2,12.9,8.4,23.3,16.8,31.6c20.3-8.6,54.8-14.2,93.9-14.2c62.4,0,113,14.3,113,32c0,6-5.8,11.6-15.9,16.4c0,0,254.2,4,295,28.6
				c40.8,24.6,53.8,47.7,94,41.3c60.2-9.6,63.9-69.5,92.4-69.8c28.5-0.4,83,0,83,0s79.9,0.8,87.6-65.8
				C888.8,368.8,764.5,367.4,764.5,367.4z M249.6,372.5c-49.6,0-89.8-9.4-89.8-20.9c0-11.5,40.2-20.9,89.8-20.9
				c49.6,0,89.8,9.4,89.8,20.9C339.5,363.1,299.2,372.5,249.6,372.5z M729.9,477.5c-48.2,0-87.2-9.4-87.2-20.9
				c0-11.5,39-20.9,87.2-20.9s87.2,9.4,87.2,20.9C817.1,468.1,778,477.5,729.9,477.5z"/>
		</g>
		<ellipse class="st1" cx="227.6" cy="351.6" rx="49.4" ry="6.8"/>
		<ellipse class="st1" cx="115.9" cy="522.9" rx="75.6" ry="10.4"/>
	</g>
	<g>
		<g>
			<g>
				<path class="st2" d="M199.2,548.8c20.8-11.9,36.1-124.2,12.3-134.3c-20.5-8.7-69.8,83.8-63.7,125"/>
				
					<ellipse transform="matrix(0.9475 -0.3198 0.3198 0.9475 -161.0398 85.3553)" class="st2" cx="179.4" cy="533" rx="32.5" ry="23"/>
				<path class="st3" d="M179.6,548.2c17-5.7,27.5-20.1,23.4-32.2c-0.4-1.2-1-2.4-1.7-3.5c4.2,2.4,7.4,5.8,8.8,10.1
					c4.1,12-6.4,26.4-23.4,32.2c-15.2,5.1-30.5,1.6-36.5-7.9C157.8,551.1,168.7,551.9,179.6,548.2z"/>
				<path class="st3" d="M210.2,522.6c-2.7-8.1-11.5-13.1-22.1-13.7l26-92.8l0,0c15.8,13.6,9.7,81.8-3.5,115.2
					C211.2,528.4,211.1,525.5,210.2,522.6z"/>
			</g>
			<g>
				<path class="st4" d="M147.3,539.6c-4.9-33.5,27.2-103.3,51.2-121.8c5.2-4,9.7-5.3,13.2-3.8c12.2,5.2,12.4,35.8,11.9,48.8
					c-0.9,24.2-5.8,51.4-12.5,69.3l-0.9-0.3c13.6-36.3,19.4-109,1.2-116.8c-3.2-1.4-7.3-0.1-12.2,3.6
					c-23.8,18.4-55.7,87.6-50.8,120.8L147.3,539.6z"/>
				<path class="st4" d="M172.8,557.7c-11.8,0-21.7-5.2-24.7-14.1c-4.1-12.3,6.5-27,23.7-32.8c8.3-2.8,16.9-3.2,24.2-1
					c7.4,2.2,12.5,6.7,14.5,12.7c4.1,12.3-6.5,27-23.7,32.8C182.1,556.9,177.3,557.7,172.8,557.7z M186,509.4
					c-4.5,0-9.2,0.8-13.8,2.3c-16.7,5.6-27.1,19.8-23.1,31.5c4,11.8,20.8,16.7,37.5,11.1c16.7-5.6,27.1-19.8,23.1-31.5
					c-1.9-5.7-6.8-9.9-13.9-12C192.7,509.8,189.4,509.4,186,509.4z"/>
			</g>
			<path class="st2" d="M324.8,390l-105,54.4l-14.6,60.4c0.2,3.8,2,7.4,4.8,9.9l0,0c3.3,2.9,7.6,4.1,11.9,3.4l121.6-20.5l37.9-17.5
				L324.8,390z"/>
			<path class="st3" d="M381.6,480.1l-37.7,17.4l-8.2,1.4L222,518.1c-4.3,0.7-8.7-0.5-11.9-3.4c-2-1.7-3.4-4-4.2-6.4l159.1-54.4
				L381.6,480.1z"/>
			<path class="st4" d="M219.6,518.8c-3.6,0-7.1-1.3-9.8-3.7c-2-1.8-3.5-4.1-4.3-6.6l-0.1-0.5l0.5-0.2l159.5-54.6l17.1,27L343.9,498
				l-8.2,1.4l-113.7,19.2C221.3,518.7,220.4,518.8,219.6,518.8z M206.6,508.6c0.8,2.2,2.1,4.2,3.9,5.7c3.2,2.8,7.3,4,11.5,3.3
				l113.6-19.2l8.1-1.4l37.2-17.1l-16-25.4L206.6,508.6z"/>
			<path class="st4" d="M219.6,518.8c-3.6,0-7.1-1.3-9.8-3.7c-3-2.6-4.8-6.3-5-10.2l0-0.1l0-0.1l14.6-60.6l0.2-0.1L325,389.4
				l0.2,0.4l57.1,90.5L343.7,498l-121.6,20.5C221.3,518.7,220.4,518.8,219.6,518.8z M205.8,504.8c0.2,3.7,1.9,7,4.7,9.5
				c3.2,2.8,7.3,4,11.5,3.3l121.6-20.5l37.4-17.2l-56.2-89.2l-104.4,54.1L205.8,504.8z"/>
		</g>
		<g>
			<path class="st2" d="M688.3,317.1c-23.9,1.9-99.8-82.2-85.9-103.9c12-18.8,104.9,29.8,123.1,67.3"/>
			
				<ellipse transform="matrix(0.9628 -0.2703 0.2703 0.9628 -53.2866 199.0114)" class="st2" cx="695.8" cy="292.9" rx="32.5" ry="23"/>
			<path class="st3" d="M704.2,305.6c-17.3,4.8-34.1-1.1-37.5-13.4c-0.4-1.3-0.5-2.5-0.6-3.8c-2.2,4.3-2.8,8.9-1.6,13.3
				c3.4,12.2,20.2,18.2,37.5,13.4c15.5-4.3,26.1-15.9,25.6-27.1C723.8,295.7,715.3,302.5,704.2,305.6z"/>
			<path class="st3" d="M664.5,301.7c-2.3-8.3,2.1-17.3,10.5-23.7l-73.9-62l0,0c-5.3,20.1,38.1,73,67.8,93.1
				C666.9,307.1,665.3,304.6,664.5,301.7z"/>
		</g>
		<g>
			<path class="st4" d="M669.1,310c-15.6-11-35-30.7-49.4-50.1c-7.7-10.4-24.8-35.8-17.7-47c2.1-3.3,6.5-4.7,13-4.4
				c30.2,1.8,96.1,41.2,111,71.7l-0.9,0.4c-14.7-30.2-80.1-69.4-110.1-71.1c-6.2-0.4-10.3,1-12.1,3.9
				c-10.6,16.6,35.2,73.4,66.9,95.7L669.1,310z"/>
			<path class="st4" d="M690.1,317.3c-12.7,0-23.4-5.8-26.1-15.4l0,0c-3.5-12.5,7.9-26.6,25.4-31.5c8.4-2.4,17.1-2.3,24.2,0.3
				c7.2,2.6,12.2,7.3,13.9,13.4c1.7,6.1,0,12.7-4.9,18.7c-4.8,5.9-12.1,10.5-20.5,12.9C698.1,316.7,694,317.3,690.1,317.3z
				 M665,301.6c3.4,11.9,19.9,17.8,36.9,13c8.3-2.3,15.4-6.8,20-12.5c4.6-5.7,6.3-12,4.7-17.8s-6.3-10.3-13.2-12.7
				c-7-2.5-15.4-2.6-23.6-0.3C672.7,276.1,661.7,289.6,665,301.6L665,301.6z"/>
		</g>
		<polyline class="st2" points="488.1,297 464.6,252.1 441.8,239.6 450,274.9 		"/>
		<polygon class="st4" points="487.7,297.2 464.2,252.5 438.3,233.7 449.5,274.4 448.5,274.7 436.5,231.2 465,251.8 465.1,251.9 
			488.6,296.7 		"/>
		<path class="st5" d="M283.9,334.9c-1.4,10.1,1.4,18.9,6.3,19.6c4.9,0.7,10-7,11.4-17.1c1.4-10.1,1.1-27-3.8-27.6
			S285.3,324.8,283.9,334.9z"/>
		<path class="st6" d="M290.8,355c-0.2,0-0.5,0-0.7,0c-2.6-0.4-4.7-2.7-5.9-6.6c-1.2-3.8-1.5-8.6-0.8-13.5l0,0
			c0.7-5,2.9-11.4,5.7-16.8c1.8-3.5,5.4-9.3,8.7-8.8c2.5,0.3,4.1,3.9,4.7,10.7c0.5,5.2,0.3,11.9-0.5,17.5c-0.7,5-2.3,9.5-4.5,12.8
			C295.5,353.3,293.1,355,290.8,355z M297.4,310.2c-1.9,0-4.8,3.1-7.5,8.3c-2.7,5.2-4.9,11.7-5.6,16.5l0,0
			c-0.7,4.8-0.4,9.5,0.8,13.1c1.1,3.5,2.9,5.6,5.1,5.9c2.1,0.3,4.5-1.2,6.5-4.3c2.1-3.2,3.6-7.6,4.3-12.4c0.8-5.5,0.9-12.1,0.5-17.2
			c-0.6-6-1.9-9.6-3.8-9.8C297.6,310.2,297.5,310.2,297.4,310.2z M283.9,334.9L283.9,334.9L283.9,334.9z"/>
		<path class="st2" d="M341.7,324.1l-48.2,22.4c-3.3-7.3-1.6-16.9,1.5-24.2l43.2-25.3"/>
		<path class="st4" d="M293.3,347.2l-0.2-0.4c-3.4-6.7-1.7-17.2,1.5-24.6l0.1-0.1l0.1-0.1l43.2-25.3l0.5,0.9l-43.1,25.3
			c-3,7-4.7,16.8-1.7,23.2l47.8-22.2l0.4,0.9L293.3,347.2z"/>
		<path class="st5" d="M506.2,223.8c8.2,6.2,12.4,14.3,9.4,18.3c-3,3.9-12,2.1-20.1-4.1c-8.2-6.2-19.8-18.3-16.9-22.2
			C481.6,211.9,498.1,217.6,506.2,223.8z"/>
		<path class="st6" d="M510.5,244.6c-0.9,0-2-0.1-3.1-0.3c-3.9-0.8-8.2-2.9-12.2-5.9c-7.6-5.8-20.4-18.4-17-22.9
			c3.3-4.3,20.3,1.9,28.3,7.9l0,0c4,3,7.2,6.6,9,10.1c1.9,3.6,2,6.8,0.5,8.8C514.9,243.9,513,244.6,510.5,244.6z M482.5,215
			c-1.6,0-2.9,0.3-3.4,1.1c-1.7,2.3,3.9,11.8,16.8,21.5c3.9,2.9,8.1,5,11.8,5.7c3.6,0.7,6.3,0.2,7.6-1.6c1.3-1.7,1.1-4.5-0.6-7.8
			c-1.7-3.4-4.8-6.9-8.7-9.8l0,0C499.6,219.4,488.4,215,482.5,215z"/>
		<path class="st2" d="M457.9,257.9l49.9-18.3c-2.9-7.5-10.8-13-18.2-16l-48.5,12.6"/>
		<path class="st4" d="M452.8,260.2l-0.3-0.9l54.7-20c-2.4-6.6-10.5-12.4-17.6-15.2l-48.3,12.6l-0.3-1l48.6-12.7l0.2,0.1
			c7.5,3,16.2,9.2,18.5,16.3l0.1,0.5L452.8,260.2z"/>
		<g>
			<polyline class="st7" points="557.1,34.3 552.4,22.9 559.9,28.8 562.4,20.5 569.3,27.4 573.5,20.5 579.5,27.4 585.3,20.5 
				586.6,33.6 			"/>
			<path class="st8" d="M557.1,34.8c-0.2,0-0.4-0.1-0.5-0.3l-4.7-11.4c-0.1-0.2,0-0.5,0.2-0.6c0.2-0.1,0.4-0.1,0.6,0l7,5.5l2.3-7.6
				c0.1-0.2,0.2-0.3,0.4-0.3c0.2,0,0.4,0,0.5,0.1l6.4,6.4l3.8-6.3c0.1-0.1,0.2-0.2,0.4-0.2c0.2,0,0.3,0,0.4,0.2l5.7,6.4l5.4-6.4
				c0.1-0.2,0.3-0.2,0.5-0.2c0.2,0.1,0.3,0.2,0.3,0.4l1.3,13.1c0,0.3-0.2,0.5-0.4,0.5c-0.3,0-0.5-0.2-0.5-0.4l-1.2-11.9l-5,6
				c-0.1,0.1-0.2,0.2-0.4,0.2c-0.1,0-0.3-0.1-0.4-0.2l-5.6-6.4l-3.8,6.3c-0.1,0.1-0.2,0.2-0.4,0.2c-0.2,0-0.3,0-0.4-0.1l-6.3-6.3
				l-2.2,7.5c0,0.2-0.2,0.3-0.3,0.3c-0.2,0-0.3,0-0.5-0.1l-6.1-4.8l4,9.6c0.1,0.3,0,0.5-0.3,0.7C557.2,34.8,557.1,34.8,557.1,34.8z"
				/>
			<path class="st7" d="M357.1,229.1c0,0-52.9,18.9-78.6,30.3c-34.3,15.2-63.1,0-64.9-30.4c-1.9-30.7,41.6-57.8,132.4-58.1
				s116.5,12.8,169.4-14.9c52.6-27.4,76-85.4,71.3-122.5l-29.5,0.6c7.2,34.2-4,65.5-24.9,90.7c-47.2,56.8-203,18.4-248.9,27.1
				c-22.1,5.6-115.1,20.2-94.7,93.3S272,280,272,280s50-31.3,87.7-33.8"/>
			<path class="st9" d="M586.6,33.6l-23,0.5c1.7,18.4-1.9,35.9-9.4,51.8c-4.6,14.1-12.3,27.3-22.1,39.1
				c-47.2,56.8-203,18.4-248.9,27.1c-16.5,4.2-72.2,13.3-91.2,47.9c-2.4,9.5-2.4,20.6,1.2,33.4c20.4,73.1,83.5,34.7,83.5,34.7
				s44.6-27.8,81.2-33.1l-0.9-5.8c0,0-52.9,18.9-78.6,30.3c-34.3,15.2-63.1,0-64.9-30.4c-0.4-6.6,1.3-13.1,5.2-19.2
				c4.8-27.6,48.4-50.6,132-50.9c90.8-0.3,116.5,12.8,169.4-14.9c29.1-15.2,49.3-39.8,60.7-64.9C586.3,62.9,588.3,46.9,586.6,33.6z"
				/>
			<path class="st8" d="M236.4,290.6c-5.5,0-11.2-0.8-16.7-3c-14.9-5.9-25.5-20-31.7-42.1c-5-18-3.5-33.9,4.5-47.3
				c17.8-29.8,62.6-40.1,84.1-45c2.6-0.6,4.8-1.1,6.5-1.5c14.3-2.7,39.1-0.9,67.8,1.2c62.7,4.6,148.5,10.9,180.9-28.1
				c15.9-19.2,33.2-50.4,24.8-90.3c0-0.1,0-0.3,0.1-0.4c0.1-0.1,0.2-0.2,0.4-0.2l29.5-0.6c0.2,0,0.5,0.2,0.5,0.4
				c2.5,19.5-2.7,43.2-14.2,65.2c-9.2,17.5-26.6,41.8-57.3,57.8c-38.1,19.9-62.3,18.7-106.3,16.6c-17.7-0.8-37.7-1.8-63.3-1.7
				c-59.2,0.2-102.5,11.7-121.9,32.4c-7.2,7.7-10.5,16.1-10,25.1c0.8,13.3,6.9,24.1,17.1,30.3c12.5,7.6,29.6,7.4,47.1-0.3
				c25.4-11.3,78.1-30.1,78.6-30.3c0.3-0.1,0.5,0,0.6,0.3c0.1,0.3,0,0.5-0.3,0.6c-0.5,0.2-53.2,19-78.6,30.3
				c-17.8,7.9-35.3,8-48,0.3c-10.5-6.4-16.8-17.4-17.6-31.1c-0.6-9.3,2.9-18,10.2-25.9c19.6-20.9,63.2-32.5,122.7-32.7
				c25.6-0.1,45.7,0.9,63.4,1.7c43.8,2.1,67.9,3.3,105.8-16.5c30.5-15.9,47.8-40,56.9-57.4c11.3-21.6,16.5-44.9,14.1-64.1l-28.5,0.6
				c8.2,40-9.1,71.3-25.1,90.5c-14.5,17.5-40.4,27.6-79.1,30.8c-33.3,2.8-70.1,0.1-102.6-2.3c-28.6-2.1-53.4-3.9-67.5-1.3
				c-1.7,0.4-4,1-6.5,1.5c-21.4,4.9-65.9,15.1-83.5,44.6c-7.8,13.2-9.3,28.8-4.4,46.6c6.1,21.7,16.5,35.7,31.1,41.4
				c12.6,5,25.9,2.8,34.9,0.1c9.8-2.9,16.7-7.1,16.7-7.1c0.1-0.1,12.7-7.9,29.8-16c15.7-7.4,38.6-16.6,58.1-17.9
				c0.3,0,0.5,0.2,0.5,0.5s-0.2,0.5-0.5,0.5c-19.4,1.3-42.1,10.4-57.8,17.8c-17,8-29.5,15.8-29.7,15.9
				C272,280.6,255.3,290.6,236.4,290.6z"/>
			<g>
				<path class="st10" d="M443.5,254.1l39.6-76.8c-17.3,2.4-28.1-8.4-28.1-8.4c-5.8,19-19.9,50.9-22.4,53.5"/>
				<path class="st11" d="M443.5,254.1l39.6-76.8c-35.3,59.9-48,42.5-50.5,45.1"/>
				<path class="st12" d="M472.6,195.9c-6.5,0-12.6-0.3-17.9-7.9c-0.2-0.2-0.1-0.5,0.1-0.7c0.2-0.2,0.5-0.1,0.7,0.1
					c5.3,7.5,11.4,7.5,17.8,7.4l0.5,0l0,0c0.3,0,0.5,0.2,0.5,0.5c0,0.3-0.2,0.5-0.5,0.5l-0.5,0C473,195.9,472.8,195.9,472.6,195.9z"
					/>
				<path class="st12" d="M466,210.3c-4.9,0-10.5-0.4-15.3-5.3c-0.2-0.2-0.2-0.5,0-0.7s0.5-0.2,0.7,0c4.5,4.6,9.9,5,14.6,5
					c0,0,0,0,0,0c0.3,0,0.5,0.2,0.5,0.5C466.6,210.1,466.3,210.3,466,210.3z"/>
				<path class="st12" d="M459,224.4c-5.3,0-9.7-0.7-13.8-4c-0.2-0.2-0.2-0.5-0.1-0.7c0.2-0.2,0.5-0.2,0.7-0.1
					c3.9,3.1,8.1,3.8,13.1,3.8c0,0,0,0,0.1,0l0,0c0.3,0,0.5,0.2,0.5,0.5C459.5,224.2,459.3,224.4,459,224.4z"/>
				<g>
					<path class="st11" d="M473.1,169.8"/>
					<path class="st11" d="M483.1,177.2c-2.6,2.9-2.8,6.8-3.7,7.5c-4.3,3.1-9.7,3.1-14.2,1.3c-5.6-2.2-10.4-7.5-10.7-14.5
						c-0.1-1.4,1.4-4.3,1.4-4.3"/>
				</g>
				<path class="st6" d="M443.5,254.6c-0.1,0-0.2,0-0.2-0.1c-0.2-0.1-0.3-0.4-0.2-0.7l39.1-75.9c-14.6,1.6-24.5-6-27-8.2
					c-5.8,18.7-19.6,50.1-22.3,52.9c-0.2,0.2-0.5,0.2-0.7,0c-0.2-0.2-0.2-0.5,0-0.7c2.4-2.4,16.5-34.2,22.3-53.3
					c0.1-0.2,0.2-0.3,0.4-0.3c0.2,0,0.4,0,0.5,0.1c0.1,0.1,10.8,10.6,27.7,8.3c0.2,0,0.4,0.1,0.5,0.2c0.1,0.2,0.1,0.4,0,0.5
					l-39.6,76.8C443.8,254.5,443.7,254.6,443.5,254.6z"/>
				<g>
					<path class="st10" d="M457.3,146.6c5.8-15.1,21.9-28.9,32.5-24.8c10.6,4.1,11.6,24.4,5.8,39.6s-19.1,24.1-29.7,20.1
						c-5.6-2.2-9.4-7.6-10.7-14.5c-0.9-4.8-4.6-8.3-3.1-13.9c0,0,3.6-9.7,14.7-8.2c11.1,1.6,9.6,4.8,7.6,6.2c-2,1.4-3.6,5.4-3.6,5.4
						s3.7,2.2,3,8.7"/>
					<path class="st11" d="M464.1,177.4c-4.9-3.5-7.2-9.7-6.8-16.7c0.3-4.9-2.4-9.2,0.4-14.2c0,0,5.9-8.6,16.3-4.3s8.2,7,5.9,7.9
						c-2.3,0.9-4.8,4.4-4.8,4.4s3,3,0.8,9.2"/>
					<path class="st10" d="M467.5,181.9c-5.7-1.9-9.7-7.2-11.4-14c-1.2-4.7-5-8.1-3.8-13.7c0,0,3.2-9.9,14.3-8.9
						c11.1,1,9.8,4.4,7.9,5.9c-1.9,1.5-3.3,5.6-3.3,5.6s3.8,2,3.4,8.6"/>
					<path class="st11" d="M491.5,122.7c5.1,7.9,4.8,23,0.2,34.8c-5.8,15.1-19.1,24.1-29.7,20.1c-1.1-0.4-2.2-1-3.1-1.7
						c1.8,2.5,4.2,4.5,7,5.6c10.6,4.1,23.9-4.9,29.7-20.1C501.1,147.1,500.5,128.2,491.5,122.7z"/>
					<path class="st6" d="M471.2,182.9c-1.9,0-3.7-0.3-5.5-1c-5.6-2.1-9.6-7.6-11-14.9c-0.3-1.6-1-3.1-1.6-4.6
						c-1.2-2.8-2.5-5.7-1.5-9.5c0-0.1,1.5-3.9,5.3-6.5c0,0,0,0,0,0c2.9-7.4,8.3-14.8,14.6-19.8c6.7-5.3,13.4-7.2,18.5-5.3
						c10.8,4.1,12.1,24.6,6.1,40.2C491.1,174.4,480.8,182.9,471.2,182.9z M464.4,145.2c-8.8,0-11.8,7.7-11.9,8
						c-0.9,3.4,0.2,6,1.5,8.8c0.7,1.5,1.3,3.1,1.7,4.8c1.4,7,5.2,12.1,10.4,14.1c10.3,4,23.3-4.9,29.1-19.8
						c2.9-7.4,4.1-16.3,3.2-23.7c-0.9-8-4-13.4-8.7-15.2c-4.7-1.8-11.1,0-17.5,5.1c-5.8,4.6-10.9,11.4-13.8,18.2
						c2.2-1.1,5-1.8,8.6-1.3c5.8,0.8,8.9,2.2,9.4,4.1c0.3,1-0.3,2.1-1.5,3c-1.5,1.1-2.8,3.9-3.3,4.9c1,0.8,3.5,3.3,2.9,8.9
						c0,0.3-0.3,0.5-0.5,0.4c-0.3,0-0.5-0.3-0.4-0.5c0.6-6.1-2.6-8.2-2.8-8.2c-0.2-0.1-0.3-0.4-0.2-0.6c0.1-0.2,1.7-4.2,3.8-5.7
						c0.3-0.2,1.4-1.1,1.1-2c-0.2-0.7-1.3-2.3-8.6-3.4C465.9,145.3,465.2,145.2,464.4,145.2z"/>
				</g>
			</g>
			<g>
				<path class="st10" d="M334.3,291l-84.5-17.8c12.8-11.9,11.2-27.1,11.2-27.1c18.4,7.5,52,16.7,55.6,16.4"/>
				<path class="st11" d="M334.3,291l-84.5-17.8c68.7,10.5,63.2-10.4,66.8-10.7"/>
				<path class="st12" d="M269.7,277.9c-0.1,0-0.2,0-0.3-0.1c-0.2-0.2-0.2-0.5-0.1-0.7l0.3-0.4c4.1-5,8-9.7,5.5-18.5
					c-0.1-0.3,0.1-0.5,0.3-0.6c0.3-0.1,0.5,0.1,0.6,0.3c2.6,9.3-1.4,14.2-5.7,19.4l-0.3,0.4C269.9,277.9,269.8,277.9,269.7,277.9z"
					/>
				<path class="st12" d="M285.7,281.1c-0.1,0-0.2,0-0.3-0.1c-0.2-0.2-0.2-0.5-0.1-0.7c3-3.6,6.1-8.1,5.4-14.5
					c0-0.3,0.2-0.5,0.4-0.6c0.3,0,0.5,0.2,0.6,0.4c0.7,6.8-2.5,11.4-5.6,15.2C286,281,285.8,281.1,285.7,281.1z"/>
				<path class="st12" d="M301.1,284.6c-0.1,0-0.2,0-0.3-0.1c-0.2-0.2-0.2-0.5-0.1-0.7c3.2-4,5.4-7.6,5.4-12.6
					c0-0.3,0.2-0.5,0.5-0.5c0,0,0,0,0,0c0.3,0,0.5,0.2,0.5,0.5c0,5.3-2.3,9.1-5.6,13.2C301.4,284.5,301.3,284.6,301.1,284.6z"/>
				<g>
					<path class="st11" d="M250.3,260.8"/>
					<path class="st11" d="M249.7,273.2c3.9-0.1,7.1,2.1,8.1,1.8c5.1-1.4,8.5-5.6,10-10.1c1.9-5.7,0.8-12.8-4.5-17.5
						c-1.1-1-4.3-1.6-4.3-1.6"/>
				</g>
				<path class="st6" d="M334.3,291.5c0,0-0.1,0-0.1,0l-84.5-17.8c-0.2,0-0.3-0.2-0.4-0.4c0-0.2,0-0.4,0.1-0.5
					c12.5-11.6,11.1-26.6,11.1-26.7c0-0.2,0.1-0.3,0.2-0.5c0.1-0.1,0.3-0.1,0.5-0.1c18.5,7.6,52,16.6,55.4,16.4
					c0.3,0,0.5,0.2,0.5,0.5c0,0.3-0.2,0.5-0.5,0.5c-3.9,0.3-37-8.8-55.1-16.1c0.1,3.3-0.2,15.8-10.7,26.1l83.6,17.6
					c0.3,0.1,0.4,0.3,0.4,0.6C334.8,291.4,334.6,291.5,334.3,291.5z"/>
				<g>
					<path class="st10" d="M242.3,233.9c-15.4-5-36.2-1.3-39.7,9.5c-3.5,10.8,11.6,24.4,27,29.5s30.8,0.4,34.3-10.4
						c1.9-5.7,0-12.1-4.5-17.5c-3.1-3.7-3.5-8.8-8.8-11.2c0,0-9.9-3.3-15.6,6.2s-2.3,10.5,0,9.9c2.3-0.6,6.5,0.6,6.5,0.6
						s-0.6,4.2,4.9,7.8"/>
					<path class="st11" d="M261.8,258.6c0.4-6-2.9-11.7-8.6-15.8c-3.9-2.9-5.6-7.6-11.3-8.7c0,0-10.4-0.8-13.6,9.9
						c-3.3,10.7,0.3,10.8,2.4,9.6c2.1-1.2,6.5-1,6.5-1s0.4,4.2,6.6,6.4"/>
					<path class="st10" d="M263.2,264.1c2.1-5.6,0.6-12-3.7-17.7c-2.9-3.9-3.1-8.9-8.3-11.6c0,0-9.7-3.8-15.9,5.5
						c-6.2,9.3-2.8,10.4-0.5,9.9s6.5,0.9,6.5,0.9s-0.8,4.2,4.5,8"/>
					<path class="st11" d="M202.1,245.3c2.9,9,14.8,18.2,26.9,22.2c15.4,5,30.8,0.4,34.3-10.4c0.4-1.1,0.6-2.3,0.7-3.5
						c0.8,3,0.8,6.1-0.1,9c-3.5,10.8-18.9,15.4-34.3,10.4C214.9,268.2,200.7,255.7,202.1,245.3z"/>
					<path class="st6" d="M241.9,275.5c-4,0-8.3-0.7-12.5-2c-15.9-5.2-30.9-19.2-27.3-30.1c1.7-5.2,7.4-9.2,15.8-11
						c7.9-1.7,17-1.3,24.6,1.2c0,0,0,0,0,0c4.4-1.3,8.2,0,8.3,0c3.6,1.6,5.1,4.4,6.5,7.2c0.7,1.4,1.5,2.9,2.5,4.2
						c4.8,5.7,6.4,12.3,4.6,17.9C261.7,270.7,252.7,275.5,241.9,275.5z M227.8,232.3c-11.4,0-22.4,3.9-24.8,11.3
						c-1.6,4.8,0.7,10.6,6.3,16.4c5.2,5.3,12.8,10,20.4,12.5c15.1,4.9,30.3,0.4,33.7-10.1c1.7-5.3,0.1-11.5-4.4-17
						c-1.1-1.4-1.9-2.9-2.7-4.3c-1.4-2.7-2.7-5.2-5.9-6.7c-0.3-0.1-9.5-3.1-15,6.1c-3.8,6.2-3.2,8.2-2.8,8.8
						c0.6,0.8,1.9,0.5,2.2,0.4c2.5-0.7,6.6,0.6,6.8,0.6c0.2,0.1,0.4,0.3,0.3,0.5c0,0.2-0.5,4,4.6,7.3c0.2,0.2,0.3,0.5,0.1,0.7
						c-0.2,0.2-0.5,0.3-0.7,0.1c-4.7-3.1-5.1-6.6-5.1-7.9c-1-0.3-4-1-5.8-0.5c-1.5,0.4-2.7,0.1-3.3-0.7c-1.2-1.6-0.3-4.9,2.7-9.9
						c1.9-3.1,4.1-4.9,6.4-5.9C236.8,232.9,232.3,232.3,227.8,232.3z"/>
				</g>
			</g>
			<path class="st13" d="M435.8,232.4c-3.1-4.7-3.2-11.2-3.2-11.2c-15.4-7.2-48.3,5.6-63.9,12.5c-14.3,4.7-41.9,15.2-52.6,28.4
				c0,0,3.9,5.9,3.7,13.8c-0.2,5.9-5.9,10.8-5.9,10.8c6.2,21.3,23.1,42.6,23.1,42.6l61.3-18.8l56.8-26.7c0,0,0.6-19.1-7-39
				C448.2,245,439.9,238.7,435.8,232.4z"/>
			<path class="st14" d="M404,304.7l-61.3,18.8c0,0-17-21.3-23.1-42.6c0,0,0.5-12.8,0.2-4.9c-0.2,5.9-5.9,10.8-5.9,10.8
				c6.2,21.3,23.1,42.6,23.1,42.6l61.3-18.8l56.8-26.7c0,0,0-1.2,0-3.3L404,304.7z"/>
			<g>
				<path class="st14" d="M433,232.1"/>
				<path class="st14" d="M336.7,327.3c0.6,0.7,1.1,1.3,1.5,1.7l60.2-18.4l40.7-19.1l16.1-7.7c0-1.9,0.2-19.9-7-38.8
					c0,0-6.1-4.7-10.5-10c2.7,5.9,14,46,14,46l-61.2,29.4L336.7,327.3z"/>
			</g>
			<path class="st14" d="M402.3,220.1c-2.1,5.3-8.7,11.6-26.1,17.9c-19.5,7-32.1,9.8-38.6,5.3c-0.7-0.5-4.4,5.4-9.4,8.7
				c-4.1,2.7-8.2,5.5-8,6.2c5.2,17.6,24.7,17.8,63.7,3c40.4-15.3,42-27.5,37.8-40.1c-0.2-0.5-0.5-1.5-0.7-1.9c0,0-6.1,0.2-10.8,1.3
				C405.9,221.3,402.5,219.4,402.3,220.1z"/>
			<path class="st15" d="M337.1,329.9c-0.1,0-0.3-0.1-0.4-0.2c-0.2-0.2-17.1-21.6-23.2-42.8c-0.1-0.2,0-0.4,0.2-0.5
				c0.1,0,5.1-3.9,5.6-9.8c0.8-8.8-3.5-14-3.5-14.1c-0.2-0.2-0.2-0.4,0-0.6c10.6-13.2,37.7-23.6,52.8-28.6
				c40.6-18,57.7-15.6,64.3-12.5c0.2,0.1,0.3,0.3,0.3,0.5c0,0-0.5,4.6,2.8,10.3c4.4,7.5,12.5,13,12.5,13.1c0.1,0.1,0.1,0.1,0.2,0.2
				c7,18.4,8.2,38.3,8.2,38.5c0,0.2-0.1,0.4-0.3,0.5l-58,27.2l-61.3,18.8C337.2,329.9,337.1,329.9,337.1,329.9z M314.5,286.9
				c5.8,19.6,20.8,39.3,22.7,41.9l61-18.7l57.6-27.1c-0.2-2.7-1.7-20.9-8.1-37.8c-1.1-0.8-8.5-6.1-12.7-13.3c-3-5.1-3-9.3-2.9-10.5
				c-15.6-6.9-49.4,6.6-63.2,12.7c-15,4.9-41.5,15.1-52.2,28c1,1.3,4.2,6.5,3.5,14.5C319.7,282.2,315.6,286,314.5,286.9z"/>
			<path class="st9" d="M397.6,220.7c-0.1,4.5-4.2,10.8-22.4,17.4c-19.1,6.9-30.1,9-34,2.3c-3.9,1.2-13.5,4.9-12.8,10.7
				c2,17,17.8,17.8,52.6,4.6c33.3-12.6,34.8-22,31.7-31.6C410.1,216.1,401.1,219.2,397.6,220.7z"/>
			<path class="st7" d="M404.6,221.3c-0.3-0.9-0.7-1.7-1.1-2.3c-2.4,0.3-4.6,1.2-5.9,1.8c0,0.2,0,0.5-0.1,0.7c0.4,0.5,0.7,1.1,1,1.8
				c2.2,6.8,1.1,13.5-22.5,22.5c-24.7,9.4-35.9,8.8-37.4-3.3c0-0.4,0-0.7,0.1-1.1c-2,0.8-4.5,1.9-6.5,3.3
				c2.9,15.9,16.8,17.2,46.1,6.1C406.9,240,407.8,230.8,404.6,221.3z"/>
			<path class="st8" d="M344.8,265.4c-4.3,0-7.7-0.8-10.4-2.4c-3.7-2.3-5.9-6.1-6.5-11.7c-0.7-6.1,9-9.9,13.2-11.2
				c0.2-0.1,0.5,0,0.6,0.2c3.4,5.7,12.4,5,33.4-2.5c14.5-5.2,21.9-11,22.1-17c0-0.2,0.1-0.4,0.3-0.4c2.7-1.2,7.8-2.9,11.6-1.2
				c2,0.9,3.4,2.5,4.1,4.9c3.6,11.1-0.5,20.3-32,32.2C364.9,262.4,353.1,265.4,344.8,265.4z M341,241.1c-3.4,1.1-12.7,4.7-12.1,10
				c0.6,5.3,2.6,8.9,6,11c7.4,4.5,21.5,2.4,45.9-6.8c34.1-12.9,34.2-22.4,31.4-31c-0.7-2.1-1.9-3.6-3.6-4.3
				c-3.5-1.6-8.3,0.2-10.5,1.1c-0.4,6.3-8,12.2-22.7,17.6C357,245.3,345.4,247.8,341,241.1z"/>
			<g>
				<path class="st10" d="M395,118.2l-120.3,46.4l0,0.1c-8.3,4.5-8.8,23.9-0.9,44.4c7.9,20.5,21.3,34.5,30.4,32.3l0,0.1L424.6,195"
					/>
				<path class="st6" d="M302.3,242c-9.3,0-21.6-13.7-28.9-32.8c-7.9-20.5-7.5-40.1,1-44.9c0.1-0.1,0.1-0.2,0.2-0.2l120.3-46.4
					c0.3-0.1,0.5,0,0.6,0.3c0.1,0.3,0,0.5-0.3,0.6L275.1,165c0,0-0.1,0.1-0.1,0.1c-8.2,4.4-8.5,23.6-0.7,43.7s20.9,34.2,29.9,32
					c0.1,0,0.1,0,0.2,0l120.1-46.3c0.3-0.1,0.5,0,0.6,0.3c0.1,0.3,0,0.5-0.3,0.6l-120.3,46.4c-0.1,0-0.2,0-0.3,0
					C303.5,242,302.9,242,302.3,242z"/>
				<g>
					
						<ellipse transform="matrix(0.9331 -0.3597 0.3597 0.9331 -29.2249 157.3441)" class="st12" cx="408.2" cy="157.2" rx="17.8" ry="41.1"/>
					<path class="st6" d="M420,196.6c-4,0-8.7-2.5-13.5-7.4c-6-6.1-11.5-15.1-15.4-25.4c-8.3-21.4-7.3-41.8,2.1-45.4
						c9.4-3.6,23.8,10.8,32,32.3l0,0c4,10.3,6,20.7,5.6,29.2c-0.3,8.7-3.1,14.4-7.7,16.2C422.2,196.4,421.1,196.6,420,196.6z
						 M396.4,118.8c-1,0-1.9,0.2-2.8,0.5c-8.9,3.4-9.6,23.2-1.5,44.1c3.9,10.2,9.3,19.1,15.2,25.1c5.8,5.9,11.3,8.2,15.5,6.6
						c4.2-1.6,6.7-7.1,7.1-15.3c0.3-8.4-1.6-18.6-5.6-28.8C417.1,132.2,405.2,118.8,396.4,118.8z"/>
				</g>
				<path class="st10" d="M345.4,225.5l8.6,22.2c0.6,1.5,9.3-0.5,19.6-4.5c10.2-4,18.1-8.4,17.5-9.8l-8.6-22.2L345.4,225.5z"/>
				<path class="st11" d="M345.4,225.5l1.4,3.1c0.6,1.5,11.8,2.7,22.6,0.7c11.5-2.1,18.4-5,17.8-6.5l-4.7-11.7L345.4,225.5z"/>
				<path class="st11" d="M396.7,180.9c1.5-0.2,1.6,0,3.1-0.7c-4.2-7.1-9.2-18-14.3-30.2c-5.3,4.6-13.5,10.6-20,13.8
					c-29.1,15.1-64.3,17.8-92.8,33.4c2.5,5.6,0,0,5.7,24.5c3.3,5.1,6.2,10.2,11.7,13.5C314.4,208.3,358.6,188.3,396.7,180.9z"/>
				<path class="st6" d="M420,196.6c-4,0-8.7-2.5-13.5-7.4c-6-6.1-11.5-15.1-15.4-25.4c-8.3-21.4-7.3-41.8,2.1-45.4
					c9.4-3.6,23.8,10.8,32,32.3l0,0c4,10.3,6,20.7,5.6,29.2c-0.3,8.7-3.1,14.4-7.7,16.2C422.2,196.4,421.1,196.6,420,196.6z
					 M396.4,118.8c-1,0-1.9,0.2-2.8,0.5c-8.9,3.4-9.6,23.2-1.5,44.1c3.9,10.2,9.3,19.1,15.2,25.1c5.8,5.9,11.3,8.2,15.5,6.6
					c4.2-1.6,6.7-7.1,7.1-15.3c0.3-8.4-1.6-18.6-5.6-28.8C417.1,132.2,405.2,118.8,396.4,118.8z"/>
				<g>
					
						<ellipse transform="matrix(0.9331 -0.3597 0.3597 0.9331 -61.6113 103.9358)" class="st16" cx="248.5" cy="217.5" rx="8.6" ry="8.6"/>
					<path class="st17" d="M248.5,226.7c-3.7,0-7.1-2.2-8.5-5.8c-1.8-4.7,0.5-10,5.2-11.8c4.7-1.8,10,0.5,11.8,5.2l0,0
						c1.8,4.7-0.5,10-5.2,11.8C250.7,226.5,249.6,226.7,248.5,226.7z M248.5,209.4c-1,0-2,0.2-2.9,0.5c-4.2,1.6-6.3,6.3-4.7,10.5
						c1.6,4.2,6.3,6.3,10.5,4.7c4.2-1.6,6.3-6.3,4.7-10.5C254.8,211.4,251.7,209.4,248.5,209.4z"/>
				</g>
				<g>
					<path class="st11" d="M274.1,208l-18.6,7.2c-0.8,0.3-1.7,0-1.8-0.6l0,0c-0.1-0.6,0.3-1.2,1-1.4l18.9-7.3"/>
					<path class="st6" d="M254.8,215.8c-0.3,0-0.6-0.1-0.9-0.2c-0.4-0.2-0.6-0.5-0.7-0.9c-0.2-0.8,0.4-1.7,1.3-2l18.9-7.3l0.4,0.9
						l-18.9,7.3c-0.5,0.2-0.8,0.6-0.7,0.9c0,0.1,0.1,0.2,0.2,0.3c0.2,0.1,0.6,0.1,0.9,0l18.6-7.2l0.4,0.9l-18.6,7.2
						C255.4,215.7,255.1,215.8,254.8,215.8z"/>
				</g>
				<path class="st6" d="M355.5,248.7c-1.4,0-1.8-0.4-2-0.8l-8.6-22.2c0-0.1,0-0.3,0-0.4s0.2-0.2,0.3-0.3l37.1-14.3
					c0.1,0,0.3,0,0.4,0c0.1,0.1,0.2,0.2,0.3,0.3l8.6,22.2c0.3,0.7,0,1.9-4.9,4.6c-3.3,1.9-7.9,4-12.9,5.9c-5,1.9-9.8,3.4-13.5,4.3
					C358,248.5,356.5,248.7,355.5,248.7z M346.1,225.8l8.4,21.8c0.6,0.7,7.4-0.3,18.9-4.8c11.5-4.4,17.3-8.3,17.2-9.2l-8.4-21.8
					L346.1,225.8z"/>
				<path class="st18" d="M389.7,113.8c23.5,0.4,31.2,21.1,35.2,35.2c5.9,20.8,21.7,13.2,24.9,21.7c3.3,8.4-21.7,19.9-32.8,9.3
					c-9.8-9.5-27.2-22.7-27.2-22.7s-11.4-19.9-67.2,1.6c-56.9,21.9-50.8,44.3-50.8,44.3s6.4,12.7,2.3,24.1
					c-3.3,9.3-17.6,17.5-14.3,19.6c7.3,4.7,30.2-11.7,30.2-11.7l-21-38.4c0,0-6.3-23.8,0.1-33.8
					C275.8,152.5,389.7,113.8,389.7,113.8z"/>
				<path class="st19" d="M271.7,203.1c0,0,6.4,12.7,2.3,24.1c-3.3,9.3-17.6,17.5-14.3,19.6c7.3,4.7,30.2-11.7,30.2-11.7"/>
				<path class="st19" d="M430.8,160.6l-19.2,8c0,0,9.9,9.3,26.6,4.6c10.1-2.8,2.9-7.7,2.9-7.7S436.8,165,430.8,160.6z"/>
				
					<ellipse transform="matrix(0.9331 -0.3597 0.3597 0.9331 -26.5516 158.9484)" class="st19" cx="413.9" cy="150.8" rx="12.5" ry="21.3"/>
				<path class="st19" d="M263.1,248.2c-1.4,0-2.6-0.3-3.6-0.9c-0.5-0.3-0.7-0.8-0.7-1.1c-0.1-1.5,2-3.5,4.9-6.4
					c3.7-3.6,8.2-8,9.9-12.7c3.9-11.1-2.2-23.6-2.3-23.8c0-0.2-0.2-0.8-0.2-1.9l-2.4-4.4c0,0,0-0.1,0-0.1c-0.3-1-6.3-24.2,0.1-34.2
					c6.7-10.4,116.1-47.7,120.8-49.3c0.1,0,0.1,0,0.2,0c22.7,0.4,31,19.2,35.6,35.5c3.6,12.5,10.8,14.6,16.5,16.2
					c3.8,1.1,7,2,8.4,5.5c1.1,3-0.8,6.5-5.3,9.5c-8.2,5.4-21.3,7.1-28.3,0.3c-9.7-9.3-27-22.5-27.2-22.6c-0.1,0-0.1-0.1-0.1-0.1
					c-0.1-0.2-11.9-19.3-66.6,1.8c-46.5,17.9-50.6,36.3-50.6,41.9l18.4,33.7c0.1,0.2,0.1,0.5-0.1,0.6
					C289.5,236.2,272.5,248.2,263.1,248.2z M273.4,205.7c1.6,4.4,4.1,13.3,1.2,21.8c-1.7,4.9-6.4,9.5-10.1,13.1
					c-2.4,2.3-4.7,4.6-4.6,5.6c0,0.1,0,0.2,0.2,0.3c6.4,4.1,26.4-9.4,29.3-11.4L273.4,205.7z M269.5,196.6l1.6,2.9
					c0.8-7.4,7.8-24.3,51.2-41.1c54.3-20.9,66.8-3.1,67.8-1.5c1.3,1,17.8,13.6,27.2,22.7c7.3,7.1,20.5,3.9,27.1-0.4
					c4-2.7,5.9-5.8,4.9-8.3c-1.2-3-4-3.8-7.7-4.8c-6-1.7-13.5-3.8-17.2-16.9c-4.6-16-12.6-34.4-34.6-34.8
					c-3.6,1.2-113.7,38.8-120.2,48.9C263.5,172.6,269.2,195.3,269.5,196.6z"/>
				
					<ellipse transform="matrix(0.9331 -0.3597 0.3597 0.9331 -26.2331 160.1242)" class="st18" cx="417.2" cy="150.6" rx="12.5" ry="21"/>
				
					<ellipse transform="matrix(0.9565 -0.2916 0.2916 0.9565 -25.6604 128.9344)" class="st19" cx="419.7" cy="150.6" rx="2" ry="6.8"/>
				<path class="st19" d="M421.5,157.5c-1.6,0-3.2-3.1-4.2-6.3c-0.5-1.8-0.8-3.5-0.9-4.9c0-2,0.6-2.6,1.1-2.8c0.5-0.2,1.4,0,2.5,1.7
					c0.8,1.1,1.5,2.8,2,4.5h0c0.5,1.8,0.8,3.5,0.9,4.9c0,2-0.6,2.6-1.1,2.8C421.7,157.5,421.6,157.5,421.5,157.5z M417.9,144.6
					C417.9,144.6,417.9,144.6,417.9,144.6c-0.1,0-0.5,0.4-0.5,1.8c0,1.3,0.3,2.9,0.8,4.6c1.2,3.9,2.8,5.7,3.3,5.5
					c0.1,0,0.4-0.4,0.4-1.8c0-1.3-0.3-2.9-0.8-4.6c0,0,0,0,0,0c-0.5-1.7-1.2-3.2-1.9-4.3C418.6,144.8,418.1,144.6,417.9,144.6z"/>
				<path class="st19" d="M422,171.2c-6.1,0-13.2-6.4-16.9-16c-2.1-5.3-2.8-10.8-2-15.4c0.8-4.7,3-8,6.3-9.3
					c3.3-1.3,7.2-0.3,10.9,2.7c3.7,2.9,6.9,7.4,8.9,12.8c4.3,11.1,2.3,22.2-4.3,24.7C424,171,423,171.2,422,171.2z M412.4,130.9
					c-0.9,0-1.8,0.2-2.6,0.5c-2.9,1.1-5,4.2-5.7,8.5c-0.8,4.5-0.1,9.8,1.9,14.9c4.1,10.6,12.4,17.2,18.5,14.8
					c6.1-2.4,7.8-12.9,3.8-23.4l0,0c-2-5.2-5-9.5-8.6-12.3C417.2,131.9,414.7,130.9,412.4,130.9z"/>
				<g>
					<path class="st11" d="M441.2,145.1l-19.6,5.4c-0.8,0.4-1.7,0.1-1.8-0.5h0c-0.1-0.5,0.3-1.2,1-1.5l19.9-5.6"/>
					<path class="st6" d="M420.9,151.2c-0.3,0-0.6-0.1-0.8-0.2c-0.4-0.2-0.6-0.5-0.7-0.9c-0.2-0.8,0.3-1.7,1.3-2.1l19.9-5.6l0.3,1
						l-19.9,5.6c-0.4,0.2-0.7,0.6-0.6,0.9c0,0.1,0.1,0.2,0.2,0.2c0.2,0.1,0.6,0.1,0.9,0l19.6-5.5l0.3,1l-19.6,5.4
						C421.5,151.1,421.2,151.2,420.9,151.2z"/>
				</g>
				<path class="st19" d="M327.4,157.1c-3-5.1-4-9.8-2.9-14.1c1.5-5.8,6.3-8.7,6.5-8.8l0.5,0.9c0,0-4.6,2.8-6,8.2
					c-1,4-0.1,8.5,2.8,13.3L327.4,157.1z"/>
				<path class="st19" d="M389.1,148.6c-9.3-16.3-22.4-15.5-49.2-5.2c-10.9,4.2-15.3,9.2-17,12.2c-3.3-1-9.9-1.8-20.7,2.4
					c-26.8,10.4-37,18.6-33,36.9c4.1,18.3,22.8,16.6,22.8,16.6s24-8.4,27.2-14.7c4.1-8.2,7.1-20.3,10.8-21.9l0,0
					c0.1,0,0.1-0.1,0.2-0.1c0.1,0,0.1,0,0.2-0.1l0,0c3.8-1.3,14.2,5.7,22.7,9c6.7,2.6,30.1-7.4,30.1-7.4S398.4,164.9,389.1,148.6z"
					/>
				<g>
					<path class="st18" d="M387.1,152.7c-9.2-16.3-22-15.6-48.2-5.6c-10.6,4.1-14.8,9.1-16.5,12c-3.2-1.1-9.7-1.9-20.3,2.2
						c-26.1,10.1-36.1,18.2-31.9,36.5c4.1,18.3,22.5,16.7,22.5,16.7s23.4-8.1,26.5-14.5c4-8.1,6.8-20.2,10.4-21.7l0,0
						c0.1,0,0.1-0.1,0.2-0.1c0.1,0,0.1,0,0.2-0.1l0,0c3.7-1.3,13.9,5.8,22.3,9.1c6.5,2.6,29.4-7.1,29.4-7.1S396.3,169,387.1,152.7z"
						/>
					<path class="st19" d="M327.9,173.7c3.3-1.5,12.8,7.9,12.8,7.9s-8.1-4.4-10.7-3.5c-2.6,0.9-5.8,9.4-5.8,9.4
						S325.3,174.9,327.9,173.7z"/>
					<path class="st19" d="M291.8,215c-3.9,0-18.4-1.1-22-17.1c-4.3-19.2,6.9-27.2,32.2-37.1c10.5-4.1,17-3.3,20.2-2.3
						c1.7-2.8,6.1-7.8,16.5-11.9c25.4-9.7,39.1-11.3,48.8,5.8l0,0c9.3,16.5-5.4,28-5.6,28.1c0,0-0.1,0-0.1,0.1
						c-0.9,0.4-23.1,9.8-29.7,7.1c-3-1.2-6.2-2.9-9.3-4.5c-5.3-2.7-10.3-5.3-12.5-4.7c0,0-0.1,0.1-0.2,0.1c0,0-0.2,0-0.2,0
						c-0.1,0-0.1,0.1-0.2,0.1c-2.1,1-4.1,6.3-6.2,11.9c-1.2,3.3-2.5,6.6-3.9,9.6c-3.1,6.4-25.8,14.4-26.8,14.7c0,0-0.1,0-0.1,0
						C292.7,215,292.4,215,291.8,215z M316.4,158.7c-3.4,0-8.1,0.7-14.1,3c-28,10.9-35.4,19.3-31.6,35.9
						c3.9,17.3,20.5,16.4,21.9,16.3c1.3-0.5,23.3-8.3,26.2-14.2c1.4-2.9,2.7-6.2,3.9-9.5c2.3-6.1,4.3-11.4,6.8-12.5c0,0,0.1,0,0.1,0
						c0,0,0,0,0,0c0,0,0.1,0,0.1,0c0,0,0.1,0,0.1,0c0,0,0.1,0,0.1-0.1c2.6-0.9,7.6,1.7,13.4,4.7c3.1,1.6,6.3,3.2,9.2,4.4
						c6.1,2.5,27.6-6.5,28.9-7c1.1-0.8,13.9-11.4,5.2-26.8l0,0c-8.4-14.9-19.5-16.1-47.5-5.4c-10.6,4.1-14.7,9.1-16.2,11.8
						c-0.1,0.2-0.4,0.3-0.6,0.2C321,159.2,319.1,158.7,316.4,158.7z"/>
					<path class="st5" d="M329.6,158.1c0,0,1.1,11.1,7.6,14.2c6.5,3.1,8.5,10.8,16.3,8.4c7.9-2.4,24.5-8.2,26.7-12.3
						c3.9-7.4,4.5-22.8-15.2-23.9L329.6,158.1z"/>
					<path class="st5" d="M316.5,163.1c0,0,6.7,9,3.9,15.6s1,13.7-6.5,17.2c-7.5,3.5-23.7,10.4-28,8.8c-7.9-2.9-18.7-13.8-4.8-28
						L316.5,163.1z"/>
					<path class="st12" d="M350.6,181.6c-3.5,0-5.7-2.2-8.1-4.5c-1.7-1.6-3.4-3.3-5.6-4.4c-6.6-3.2-7.8-14.2-7.8-14.6
						c0-0.2,0.1-0.4,0.3-0.5l35.3-13.6c0.1,0,0.1,0,0.2,0c7.8,0.5,13.4,3.2,16.1,8c3,5.3,2,12.2-0.4,16.7
						c-2.5,4.7-22.9,11.2-27,12.5C352.6,181.5,351.6,181.6,350.6,181.6z M330.1,158.4c0.3,1.9,1.7,10.8,7.2,13.4
						c2.4,1.2,4.2,2.9,5.9,4.6c2.9,2.8,5.4,5.3,10.1,3.8c11-3.4,24.6-8.6,26.4-12c2.2-4.2,3.2-10.7,0.4-15.7
						c-2.5-4.5-7.6-7.1-15.1-7.5L330.1,158.4z"/>
					<path class="st10" d="M334.9,159c0,0,0.9,9,6.1,11.6c5.3,2.5,6.9,8.8,13.3,6.8s19.9-6.7,21.7-10c3.2-6,3.7-18.5-12.4-19.5
						L334.9,159z"/>
					<path class="st10" d="M313.2,167.4c0,0,5.4,7.3,3.2,12.7c-2.2,5.4,0.8,11.2-5.3,14s-19.3,8.4-22.8,7.2
						c-6.4-2.3-15.2-11.2-3.9-22.8L313.2,167.4z"/>
					<path class="st12" d="M289.7,201.9c-0.6,0-1.1-0.1-1.5-0.2c-3.9-1.4-8.3-5-9.4-9.9c-0.7-3.1-0.3-7.9,5.3-13.7
						c0.1-0.1,0.1-0.1,0.2-0.1l28.7-11.1c0.2-0.1,0.4,0,0.6,0.2c0.2,0.3,5.6,7.6,3.3,13.2c-0.8,1.9-0.9,3.8-1,5.7
						c-0.2,3.4-0.4,6.6-4.5,8.6C307.4,196.4,295,201.9,289.7,201.9z M284.8,178.9c-4.2,4.3-5.9,8.6-5,12.7c1,4.5,5.1,7.8,8.8,9.2
						c2.7,1,13.2-2.9,22.4-7.1c3.6-1.7,3.8-4.3,4-7.7c0.1-2,0.2-4,1.1-6c1.8-4.5-2-10.5-2.9-11.9L284.8,178.9z"/>
					<path class="st12" d="M287.5,205.4c-0.7,0-1.3-0.1-1.7-0.2c-4.7-1.7-10.1-6.1-11.5-12.1c-1.2-5.4,1-11.1,6.5-16.7
						c0.1-0.1,0.1-0.1,0.2-0.1l35.3-13.6c0.2-0.1,0.4,0,0.6,0.2c0.3,0.4,6.8,9.3,4,16.1c-1,2.3-1.1,4.7-1.2,7
						c-0.2,4.2-0.5,8.1-5.5,10.4C310.6,198,294.2,205.4,287.5,205.4z M281.4,177.2c-5.2,5.4-7.3,10.7-6.2,15.7
						c1.3,5.6,6.4,9.7,10.8,11.4c3.6,1.3,17.1-3.9,27.6-8.8c4.5-2.1,4.7-5.6,4.9-9.6c0.1-2.4,0.3-4.9,1.3-7.3
						c2.3-5.6-2.6-13.2-3.7-14.8L281.4,177.2z"/>
					<polygon class="st20" points="297,199.7 289.4,201.4 289.4,176.6 297,173.6 					"/>
					<polygon class="st20" points="303.1,197.5 300.5,198.5 300.5,172.3 303.1,171 					"/>
					<polygon class="st20" points="364.2,174.2 361.7,175.2 361.7,149 364.2,147.7 					"/>
					<polygon class="st20" points="358.5,176.4 356,176.9 356,151.1 358.5,149.9 					"/>
					<polygon class="st20" points="354.4,177.7 351.8,177.8 351.8,152.4 354.4,151.2 					"/>
					<path class="st12" d="M352,178.3c-2.9,0-4.7-1.8-6.6-3.7c-1.3-1.3-2.7-2.7-4.5-3.5c-5.4-2.6-6.4-11.6-6.4-12
						c0-0.2,0.1-0.4,0.3-0.5l28.7-11.1c0.1,0,0.1,0,0.2,0c8.1,0.5,11.6,3.8,13.1,6.6c2.5,4.4,1.6,10-0.3,13.6
						c-2,3.9-18.7,9.2-22,10.2C353.6,178.2,352.7,178.3,352,178.3z M335.4,159.4c0.2,1.7,1.5,8.7,5.8,10.8c2,0.9,3.4,2.4,4.8,3.7
						c2.4,2.4,4.3,4.2,8.1,3.1c9.7-3,20-7.2,21.4-9.7c1.8-3.4,2.6-8.6,0.3-12.7c-2.1-3.6-6.2-5.7-12.2-6.1L335.4,159.4z"/>
				</g>
				<path class="st6" d="M359.4,166.2c0,0-0.1,0-0.1,0c-0.3-0.1-0.4-0.3-0.4-0.6c0.3-1.5,1.3-2.8,2.6-3.6c1.3-0.8,2.9-1.1,4.4-0.7
					c0.6,0.1,1.2,0.4,1.7,0.7c0.2,0.1,0.3,0.5,0.2,0.7c-0.1,0.2-0.5,0.3-0.7,0.2c-0.4-0.3-0.9-0.5-1.4-0.6c-1.2-0.3-2.5-0.1-3.6,0.6
					s-1.8,1.7-2.1,3C359.8,166,359.6,166.2,359.4,166.2z"/>
				<path class="st6" d="M295.1,189.5c0,0-0.1,0-0.1,0c-0.3-0.1-0.4-0.3-0.4-0.6c0.3-1.5,1.3-2.8,2.6-3.6c1.3-0.8,2.9-1.1,4.4-0.7
					c0.6,0.1,1.2,0.4,1.7,0.7c0.2,0.1,0.3,0.5,0.2,0.7c-0.1,0.2-0.5,0.3-0.7,0.2c-0.4-0.3-0.9-0.5-1.4-0.6c-1.2-0.3-2.5-0.1-3.6,0.6
					s-1.8,1.7-2.1,3C295.6,189.4,295.3,189.5,295.1,189.5z"/>
				<g>
					<g>
						<g>
							<path class="st12" d="M328.7,216.7c-0.3-0.2-0.7-0.3-1-0.5c-3.5-1.8-6.2-4.8-7.7-8.4c12.8-7,26.5-12.5,40.6-16.4
								c0.8,2.7,0.9,5.5,0.5,8.3C348.9,202,337.6,208,328.7,216.7z"/>
							<path class="st6" d="M328.7,217.2c-0.1,0-0.1,0-0.2,0l-0.3-0.1c-0.3-0.1-0.5-0.2-0.8-0.4c-3.6-1.9-6.4-5-7.9-8.7
								c-0.1-0.2,0-0.5,0.2-0.6c12.9-7,26.6-12.6,40.7-16.4c0.3-0.1,0.5,0.1,0.6,0.3c0.8,2.8,1,5.6,0.5,8.5c0,0.2-0.2,0.4-0.4,0.4
								c-12.2,2.4-23.3,8.2-32.2,16.9C329,217.1,328.8,217.2,328.7,217.2z M320.7,208c1.5,3.3,4,6.1,7.3,7.8
								c0.2,0.1,0.4,0.2,0.7,0.3c8.9-8.6,20-14.4,32.1-16.9c0.3-2.4,0.2-4.9-0.4-7.2C346.5,195.8,333.2,201.2,320.7,208z"/>
						</g>
						<g>
							<path class="st16" d="M361.1,199.7c-0.9,5.6-4.1,10.7-8.8,14c-6.8,5.1-16.3,6.4-23.6,3C337.6,208,348.9,202.1,361.1,199.7z"
								/>
							<path class="st17" d="M337.6,219.1c-3.2,0-6.3-0.6-9.1-1.9c-0.1-0.1-0.3-0.2-0.3-0.4c0-0.2,0-0.3,0.1-0.4
								c9-8.8,20.3-14.7,32.6-17.1c0.2,0,0.3,0,0.4,0.1c0.1,0.1,0.2,0.3,0.1,0.4c-1,5.7-4.2,11-9,14.3
								C348.2,217.3,342.8,219.1,337.6,219.1z M329.6,216.5c6.9,2.9,15.9,1.6,22.5-3.3c4.3-3.1,7.4-7.8,8.4-13
								C348.8,202.7,338.2,208.3,329.6,216.5z"/>
						</g>
						<path class="st6" d="M337.6,219.1c-3.2,0-6.3-0.6-9.1-1.9c-0.3-0.1-0.4-0.4-0.2-0.7c0.1-0.3,0.4-0.4,0.7-0.2
							c7,3.3,16.3,2.1,23.1-3c4.5-3.2,7.6-8.2,8.6-13.7c0-0.3,0.3-0.5,0.6-0.4c0.3,0,0.5,0.3,0.4,0.6c-1,5.7-4.2,11-9,14.3
							C348.2,217.3,342.8,219.1,337.6,219.1z"/>
					</g>
					<g>
						<g>
							<polygon class="st16" points="326.7,191.4 340.7,186.9 329.8,177.4 							"/>
							<path class="st17" d="M326.7,191.9c-0.1,0-0.2,0-0.3-0.1c-0.1-0.1-0.2-0.3-0.2-0.5l3.1-14c0-0.2,0.2-0.3,0.3-0.4
								c0.2-0.1,0.4,0,0.5,0.1l10.9,9.4c0.1,0.1,0.2,0.3,0.2,0.5c0,0.2-0.2,0.3-0.3,0.4l-14,4.5
								C326.8,191.9,326.8,191.9,326.7,191.9z M330.1,178.3l-2.7,12.3l12.3-4L330.1,178.3z"/>
						</g>
					</g>
				</g>
				<g>
					
						<ellipse transform="matrix(0.9331 -0.3597 0.3597 0.9331 -21.5932 169.739)" class="st16" cx="445.3" cy="142.9" rx="8.6" ry="8.6"/>
					<path class="st17" d="M445.3,152c-1.3,0-2.5-0.3-3.7-0.8c-2.2-1-3.9-2.8-4.8-5.1c-0.9-2.3-0.8-4.8,0.2-7c1-2.2,2.8-3.9,5.1-4.8
						c4.7-1.8,10,0.5,11.8,5.2l0,0c1.8,4.7-0.5,10-5.2,11.8C447.5,151.8,446.4,152,445.3,152z M445.3,134.8c-1,0-2,0.2-2.9,0.5
						c-2,0.8-3.6,2.3-4.5,4.3c-0.9,2-0.9,4.2-0.2,6.2c0.8,2,2.3,3.6,4.3,4.5c2,0.9,4.2,0.9,6.2,0.2c4.2-1.6,6.3-6.3,4.7-10.5
						C451.7,136.7,448.6,134.8,445.3,134.8z"/>
				</g>
			</g>
			<path class="st9" d="M386.4,221.1c-0.1,3.2-1.6,7.4-14.5,12c-13.6,4.9-20.6,6-23.4,1.3c-2.8,0.9-10.4,3.8-9.9,8
				c1.4,12.1,12.6,12.6,37.4,3.3c23.6-9,24.7-15.7,22.5-22.5C396.7,217.5,388.8,220,386.4,221.1z"/>
			<path class="st7" d="M389.7,221.2c-0.1-0.4-0.3-0.6-0.4-0.9c-0.1,0.1-2.7,0.8-2.8,0.8c-0.1,3.2-1.6,7.4-14.5,12
				c-13.6,4.9-20.6,6-23.4,1.3c-0.4,0.1-3,1.2-3.6,1.4c1,7.9,11.7,9.9,28.6,3.6C390.3,233.2,391.1,225.8,389.7,221.2z"/>
			<path class="st8" d="M350.3,252.6c-3.1,0-5.6-0.6-7.4-1.7c-2.7-1.6-4.2-4.4-4.7-8.4c-0.6-4.8,8.4-7.9,10.2-8.5
				c0.2-0.1,0.5,0,0.6,0.2c2.4,4.1,8.4,3.7,22.8-1.5c12.4-4.5,14.1-8.4,14.2-11.6c0-0.2,0.1-0.4,0.3-0.4c0.6-0.3,6.1-2.6,9.9-1
				c1.4,0.6,2.4,1.8,2.9,3.4c2.6,7.9-0.4,14.6-22.8,23.1C364.6,250.5,356.2,252.6,350.3,252.6z M348.3,235c-2,0.7-9.6,3.5-9.2,7.3
				c0.4,3.7,1.8,6.2,4.2,7.7c5.1,3.1,15.5,1.6,32.5-4.9c24.1-9.1,24.2-15.8,22.2-21.8c-0.4-1.3-1.2-2.2-2.4-2.7
				c-2.6-1.2-6.6-0.1-8.8,0.8c-0.2,3.5-2.3,7.6-14.8,12.2C359.2,238.3,351.5,239.9,348.3,235z"/>
		</g>
		<path class="st3" d="M320.6,373.2l3.7-41.4c0,0-4.3-62,75.4-77.2c65.2-12.5,88.4,42.3,88.4,42.3l28.7,94.3
			c0,0-193.7,10.1-193.7,7.5S320.6,373.2,320.6,373.2z"/>
		<path class="st2" d="M468.7,297c0,0-16.4-38.6-60.2-43.6c-2.8,0.3-5.8,0.7-8.8,1.3c-79.7,15.3-75.4,77.2-75.4,77.2l-3.7,41.4
			c0,0,2.5,22.9,2.5,25.5c0,0.1,0.2,0.2,0.7,0.2c49.6-1.2,173.6-7.7,173.6-7.7L468.7,297z"/>
		<path class="st2" d="M488.1,297L617,247l36.3,36.3c2.7,2.7,4.2,6.4,4.2,10.2v0c0,4.3-2,8.4-5.3,11.2l-95.9,77.6L518,399.1
			L488.1,297z"/>
		<path class="st3" d="M518,399.1l38-16.8l6.5-5.2l89.6-72.5c3.4-2.7,5.3-6.8,5.3-11.2c0-2.6-0.7-5.2-2-7.4l-146.1,83.2L518,399.1z"
			/>
		<path class="st4" d="M517.7,399.8l-9-30.7l0.3-0.2l146.6-83.5l0.3,0.4c1.4,2.3,2.1,5,2.1,7.6c0,4.5-2,8.7-5.5,11.6l-89.6,72.5
			l-6.6,5.3L517.7,399.8z M509.9,369.6l8.4,28.8l37.4-16.5l6.5-5.1l89.6-72.5c3.3-2.6,5.1-6.6,5.1-10.8c0-2.3-0.6-4.6-1.7-6.7
			L509.9,369.6z"/>
		<path class="st4" d="M331,399.6c-5,0-7.9-0.1-8.2-0.5l-0.2-0.1l0-0.3c0-2.6-2.5-25.2-2.5-25.4l0,0l0,0l3.7-41.4
			c0-0.1-0.8-16.3,8.1-33.9c8.2-16.2,26.6-37,67.7-43.8c34-5.6,56.4,6.2,69.2,17.2c13.8,11.9,19.7,25.3,19.8,25.4l28.9,95l-0.6,0
			C489,393.2,364.4,399.6,331,399.6z M323.6,398.4c6.8,1.6,140.2-4.9,192.6-7.6l-28.5-93.7c0-0.1-5.8-13.3-19.5-25
			c-12.6-10.8-34.7-22.5-68.3-17c-22.4,3.7-52.2,14.2-67,43.2c-8.8,17.3-8,33.3-8,33.5l-3.7,41.4
			C321.3,374.6,323.5,394.8,323.6,398.4z"/>
		<path class="st4" d="M517.7,399.8l-30.2-103.1l129.6-50.2l36.5,36.5c2.8,2.8,4.4,6.5,4.4,10.5c0,4.5-2,8.7-5.5,11.6l-96,77.6
			l-0.1,0L517.7,399.8z M488.7,297.3l29.6,101.2l37.6-16.6l95.9-77.5c3.3-2.6,5.1-6.6,5.1-10.8c0-3.7-1.4-7.2-4.1-9.8l-36-36
			L488.7,297.3z"/>
		<g>
			<ellipse class="st5" cx="421.8" cy="430.3" rx="108.4" ry="105.6"/>
			<path class="st6" d="M421.8,536.4c-60,0-108.9-47.6-108.9-106.1c0-58.5,48.8-106.1,108.9-106.1c60,0,108.9,47.6,108.9,106.1
				C530.6,488.8,481.8,536.4,421.8,536.4z M421.8,325.2c-59.5,0-107.9,47.1-107.9,105.1s48.4,105.1,107.9,105.1
				s107.9-47.1,107.9-105.1S481.2,325.2,421.8,325.2z"/>
			<g>
				<ellipse class="st10" cx="425.5" cy="440.4" rx="92.6" ry="87.2"/>
				<path class="st6" d="M425.5,528.1c-51.3,0-93.1-39.3-93.1-87.7c0-48.4,41.8-87.7,93.1-87.7s93.1,39.3,93.1,87.7
					C518.5,488.8,476.8,528.1,425.5,528.1z M425.5,353.7c-50.8,0-92.1,38.9-92.1,86.7s41.3,86.7,92.1,86.7
					c50.8,0,92.1-38.9,92.1-86.7S476.2,353.7,425.5,353.7z"/>
			</g>
			<g>
				<ellipse class="st21" cx="425.5" cy="439.9" rx="83.8" ry="81.4"/>
				<path class="st6" d="M425.5,521.9c-46.5,0-84.3-36.7-84.3-81.9c0-45.2,37.8-81.9,84.3-81.9s84.3,36.7,84.3,81.9
					C509.8,485.1,472,521.9,425.5,521.9z M425.5,359c-45.9,0-83.3,36.3-83.3,80.9s37.4,80.9,83.3,80.9c45.9,0,83.3-36.3,83.3-80.9
					S471.4,359,425.5,359z"/>
			</g>
			<g>
				<ellipse class="st12" cx="425.5" cy="439.9" rx="52.7" ry="51.2"/>
				<path class="st6" d="M425.5,491.6c-29.3,0-53.2-23.2-53.2-51.7s23.8-51.7,53.2-51.7s53.2,23.2,53.2,51.7
					S454.8,491.6,425.5,491.6z M425.5,389.3c-28.8,0-52.2,22.7-52.2,50.7c0,27.9,23.4,50.7,52.2,50.7c28.8,0,52.2-22.7,52.2-50.7
					C477.7,412,454.3,389.3,425.5,389.3z"/>
			</g>
			<path class="st6" d="M425.5,491.6c-29.3,0-53.2-23.2-53.2-51.7s23.8-51.7,53.2-51.7s53.2,23.2,53.2,51.7S454.8,491.6,425.5,491.6
				z M425.5,389.3c-28.8,0-52.2,22.7-52.2,50.7c0,27.9,23.4,50.7,52.2,50.7c28.8,0,52.2-22.7,52.2-50.7
				C477.7,412,454.3,389.3,425.5,389.3z"/>
			<ellipse class="st3" cx="425.4" cy="439.9" rx="46.3" ry="42.5"/>
			<path class="st4" d="M425.4,482.9c-25.8,0-46.8-19.3-46.8-43s21-43,46.8-43s46.8,19.3,46.8,43S451.2,482.9,425.4,482.9z
				 M425.4,398c-25.3,0-45.8,18.8-45.8,42s20.5,42,45.8,42c25.3,0,45.8-18.8,45.8-42S450.7,398,425.4,398z"/>
			<path class="st6" d="M425.5,528.1c-51.3,0-93.1-39.3-93.1-87.7c0-48.4,41.8-87.7,93.1-87.7s93.1,39.3,93.1,87.7
				C518.5,488.8,476.8,528.1,425.5,528.1z M425.5,353.7c-50.8,0-92.1,38.9-92.1,86.7s41.3,86.7,92.1,86.7
				c50.8,0,92.1-38.9,92.1-86.7S476.2,353.7,425.5,353.7z"/>
			<g>
				<g>
					<path class="st10" d="M452.9,431.6c28.7-29.3,102.7-94,125.5-29.9c23.7,66.6-86.5,63.3-121.8,58.1"/>
				</g>
				<path class="st5" d="M500.5,406c14-14,29-24.8,43-31.7c-31,1.3-71.2,37.4-90.7,57.2l3.7,28.2c2.2,0.3,4.7,0.6,7.4,0.9
					C469.9,443.6,482.6,424,500.5,406z"/>
				<g>
					<path class="st6" d="M493.7,462.7c-15.2,0-28.8-1.2-37.2-2.4c-0.3,0-0.5-0.3-0.4-0.6c0-0.3,0.3-0.5,0.6-0.4
						c25.1,3.6,95,7.1,117.6-20.4c7.8-9.5,9.1-22,3.7-37.1c-5.3-14.9-13.8-23.7-25.3-26.3c-33.7-7.4-84.6,41.2-99.4,56.3
						c-0.2,0.2-0.5,0.2-0.7,0c-0.2-0.2-0.2-0.5,0-0.7c14.9-15.2,66.1-64.2,100.4-56.6c11.8,2.6,20.6,11.7,26,26.9
						c5.5,15.4,4.2,28.2-3.9,38C559.8,458,523.7,462.7,493.7,462.7z"/>
				</g>
			</g>
			<g>
				<g>
					<path class="st10" d="M383.8,463.3c-41,0.4-139.1-6.2-109.9-67.6c30.3-63.8,105.9,16.4,127.2,45"/>
				</g>
				<path class="st5" d="M332.1,447.7c-19.8,0-38-3-52.8-8c22.8,21,76.8,23.9,104.6,23.7l17.4-22.6c-1.3-1.8-2.8-3.7-4.6-5.9
					C380.3,442.8,357.4,447.7,332.1,447.7z"/>
				<g>
					<path class="st6" d="M380.7,463.9c-24.4,0-89.8-2.7-107.9-30.9c-6.5-10.2-6.3-22.8,0.7-37.4c7-14.8,17-22.9,29.6-24.1
						c35.8-3.6,83.2,48.7,98.4,69.1c0.2,0.2,0.1,0.5-0.1,0.7c-0.2,0.2-0.5,0.1-0.7-0.1c-15.1-20.3-62.2-72.2-97.5-68.7
						c-12.3,1.2-22,9.1-28.8,23.6c-6.8,14.3-7,26.5-0.7,36.4c18.6,29.1,89,30.7,110.1,30.5c0,0,0,0,0,0c0.3,0,0.5,0.2,0.5,0.5
						c0,0.3-0.2,0.5-0.5,0.5C382.9,463.9,381.8,463.9,380.7,463.9z"/>
				</g>
			</g>
			<g>
				<g>
					<path class="st10" d="M439.8,486.7c22.4,34.4,69.6,120.6,2.1,129c-70.1,8.7-43.1-98.1-30.5-131.5"/>
				</g>
				<path class="st5" d="M454.5,538.7c10.6,16.7,17.9,33.6,21.7,48.9c5.4-30.6-21.1-77.6-36.3-100.9l-28.4-2.5
					c-0.8,2.1-1.6,4.4-2.5,7C424.4,500.7,440.8,517.4,454.5,538.7z"/>
				<g>
					<path class="st6" d="M434.2,616.7c-12.4,0-22-4.2-28.5-12.5c-22.3-28.3-3.7-96.3,5.3-120.2c0.1-0.3,0.4-0.4,0.6-0.3
						c0.3,0.1,0.4,0.4,0.3,0.6c-9,23.7-27.4,91.2-5.5,119.2c7.6,9.7,19.5,13.6,35.4,11.6c15.7-2,26.2-8.3,31.1-19
						c14.5-31.3-22-91.5-33.6-109.2c-0.2-0.2-0.1-0.5,0.1-0.7c0.2-0.1,0.5-0.1,0.7,0.1c11.6,17.8,48.4,78.4,33.6,110.2
						c-5.1,11-15.8,17.6-31.9,19.6C439.3,616.5,436.7,616.7,434.2,616.7z"/>
				</g>
			</g>
			<circle class="st5" cx="425.5" cy="456.1" r="45.4"/>
			<path class="st6" d="M425.5,502c-25.3,0-45.9-20.6-45.9-45.9s20.6-45.9,45.9-45.9s45.9,20.6,45.9,45.9S450.8,502,425.5,502z
				 M425.5,411.2c-24.8,0-44.9,20.2-44.9,44.9s20.2,44.9,44.9,44.9s44.9-20.2,44.9-44.9S450.2,411.2,425.5,411.2z"/>
			<path class="st2" d="M464.3,461c0,23.6-17.1,45.6-36.3,45.6s-41.5-23.5-41.5-47.2S408.8,421,428,421S464.3,437.4,464.3,461z"/>
			<path class="st3" d="M446.7,426.6c4.2,6.4,6.7,14.4,6.7,23.5c0,23.6-17.1,45.6-36.3,45.6c-6.7,0-13.8-2.9-20.2-7.6
				c8.2,10.9,20.1,18.5,31.1,18.5c19.2,0,36.3-22,36.3-45.6C464.3,445.6,457.1,433.3,446.7,426.6z"/>
			<path class="st4" d="M428,507.1c-20.4,0-42-24.5-42-47.7c0-23.3,21.7-38.9,42-38.9c18.1,0,36.8,15.1,36.8,40.5
				C464.8,485.1,447.3,507.1,428,507.1z M428,421.5c-19.8,0-41,15.2-41,37.9c0,11,4.9,22.7,13.4,32.1c8.2,9.1,18.5,14.6,27.6,14.6
				c18.8,0,35.8-21.5,35.8-45.1C463.8,438.9,448.1,421.5,428,421.5z"/>
		</g>
	</g>
</g>
<title>home-illustration-pilot</title>
</svg>
