<?xml version="1.0" encoding="utf-8"?>
<!-- Generator: Adobe Illustrator 20.1.0, SVG Export Plug-In . SVG Version: 6.00 Build 0)  -->
<svg version="1.1" id="Layer_1" xmlns="http://www.w3.org/2000/svg" xmlns:xlink="http://www.w3.org/1999/xlink" x="0px" y="0px"
	 viewBox="0 0 628.8 617" style="enable-background:new 0 0 628.8 617;" xml:space="preserve">
<style type="text/css">
	.st0{opacity:0.5;fill:#A9D7F3;enable-background:new    ;}
	.st1{fill:#D0E4F1;}
	.st2{fill:#A1C2D8;}
	.st3{fill:#DFEEF7;}
	.st4{fill:#FFFFFF;}
	.st5{fill:#A1B4B7;}
	.st6{fill:#3F555A;}
	.st7{opacity:0.7;fill:#FFFFFF;}
	.st8{fill:#E0E0E0;}
	.st9{fill:#EFEFEF;}
	.st10{fill:#899596;}
	.st11{fill:#FAAC30;}
	.st12{fill:#FFDC64;}
	.st13{opacity:0.46;}
	.st14{fill:#8860BD;}
	.st15{fill:#7043AB;}
	.st16{fill:#DD5566;}
	.st17{fill:#BC1A3C;}
	.st18{fill:#999999;}
	.st19{opacity:0.6;}
	.st20{fill:#D0E4F0;}
	.st21{fill:#C3D4E0;}
	.st22{fill:#40565B;}
	.st23{fill:#1785C8;}
	.st24{fill:#3AA1D6;}
	.st25{fill:#164A67;}
	.st26{fill:#E7F1F8;}
	.st27{fill:#F26F42;}
	.st28{fill:#EA911C;}
	.st29{fill:none;stroke:#40565B;stroke-linecap:round;stroke-linejoin:round;}
	.st30{fill:#F36F42;}
	.st31{fill:#C84A27;}
</style>
<g>
	<g>
		<path class="st0" d="M466.1,225.9c0,0,138-1.1,123.1-92.3c-8.6-52.8-97.3-52.1-97.3-52.1L73,81.5c0,0-60.8-0.6-66.8,52.1
			c-10.2,91.1,84.5,92.3,84.5,92.3s18.9-8.2,16.9,25.4c-1.9,33.6-16.9,24.7-16.9,24.7s-65.9-15.1-57.6,54.3
			c8.3,69.5,96.9,20.2,115.2,35.3c9.4,7.8,13.6,20.7,15.4,31.3c-3.1,4.9-4.5,11.1-3.5,19.1c3.1,23.8,42.5,26.8,42.5,26.8l218.2,18.4
			c0,0,27,2.6,30.4-20.7c3.4-23.1-9.1-34.2-20.3-39.5c2.1-11.3,7.9-26.6,23.3-35.4c26.6-15.1,155.8,34.1,167.9-35.3
			c12.1-69.5-83.9-54.3-83.9-54.3s-21.8,8.9-24.7-24.7C510.8,217.7,466.1,225.9,466.1,225.9z"/>
		<g>
			<rect x="123" y="283" class="st1" width="26.2" height="16.7"/>
			<path class="st1" d="M149.2,300.2H123c-0.3,0-0.5-0.2-0.5-0.5V283c0-0.3,0.2-0.5,0.5-0.5h26.2c0.3,0,0.5,0.2,0.5,0.5v16.7
				C149.7,300,149.5,300.2,149.2,300.2z M123.5,299.2h25.2v-15.7h-25.2V299.2z"/>
		</g>
		<g>
			<circle class="st1" cx="136.1" cy="293.1" r="2.8"/>
			<path class="st1" d="M136.1,296.5c-1.8,0-3.3-1.5-3.3-3.3c0-1.8,1.5-3.3,3.3-3.3c1.8,0,3.3,1.5,3.3,3.3
				C139.5,295,138,296.5,136.1,296.5z M136.1,290.8c-1.3,0-2.3,1-2.3,2.3c0,1.3,1,2.3,2.3,2.3c1.3,0,2.3-1,2.3-2.3
				C138.5,291.8,137.4,290.8,136.1,290.8z"/>
		</g>
		<path class="st2" d="M149.2,300.2H123c-0.3,0-0.5-0.2-0.5-0.5V283c0-0.3,0.2-0.5,0.5-0.5h26.2c0.3,0,0.5,0.2,0.5,0.5v16.7
			C149.7,300,149.5,300.2,149.2,300.2z M123.5,299.2h25.2v-15.7h-25.2V299.2z"/>
		<path class="st2" d="M136.1,296.5c-1.8,0-3.3-1.5-3.3-3.3c0-1.8,1.5-3.3,3.3-3.3c1.8,0,3.3,1.5,3.3,3.3
			C139.5,295,138,296.5,136.1,296.5z M136.1,290.8c-1.3,0-2.3,1-2.3,2.3c0,1.3,1,2.3,2.3,2.3c1.3,0,2.3-1,2.3-2.3
			C138.5,291.8,137.4,290.8,136.1,290.8z"/>
		<g>
			<g>
				<g id="ULEp4J_16_">
					<path class="st2" d="M141.6,269l-0.9-0.1c-0.8-0.1-1.7-0.1-2.5-0.1c-0.7,0-1.6-0.1-2.2-1c-0.1-0.1-0.1-0.3-0.1-0.4
						c0-0.1,0.1-0.3,0.3-0.3c1.2-0.6,2.4-1.2,3.5-1.8c3-1.5,6.1-3.1,9.2-4.5c1.2-0.6,1.5-1.2,1.5-2.6c-0.1-3.3,0-6.6,0-9.8
						c0-1.3,0-2.5,0-3.8l-0.5-0.8c-4.2-2.5-7.7-6.6-11.1-12.8c-0.8-1.5-1.8-2.7-3.2-3.7c-8.9-6.7-13.2-15.3-13.2-26.4
						c0-5.6,0.3-5.8,5.1-5.8c0.5,0,1.5,0,1.5,0c1.2,0,1.9-0.2,2.2-0.5c0.3-0.4,0.4-1.1,0.3-2.2c-0.2-1.3,0-2.2,0.5-2.8
						c0.5-0.6,1.3-0.8,2.5-0.8c12.2,0.1,24.8,0.1,37.4,0c1,0,2,0.1,2.7,0.8c0.5,0.6,0.7,1.5,0.5,2.8c-0.1,1.1-0.1,1.8,0.3,2.2
						c0.3,0.3,0.9,0.5,1.9,0.5l3.4-0.1c1.4-0.1,2.2,0.1,2.8,0.6c0.7,0.7,0.9,1.8,1,3.3c0,0,0,0,0,0c0.6,12.2-3.8,21.6-13.5,28.7
						c-1.6,1.1-2.8,2.5-3.7,4.3c-3.2,5.7-6.5,9.5-10.5,11.9l-0.4,0.9c0,1.3,0,2.5,0,3.8c0,3.3,0.1,6.6,0,9.9c0,1.3,0.3,1.9,1.4,2.4
						c3.1,1.5,6.3,3.1,9.3,4.6c1.2,0.6,2.4,1.2,3.5,1.8c0.1,0.1,0.2,0.2,0.3,0.3c0,0.1,0,0.3-0.1,0.4c-0.9,1.1-2.1,1.1-3,1
						c-0.2,0-0.4,0-0.6,0c-7.6,0-15.2,0-22.8,0c-0.3,0-0.6,0-0.8,0l-0.4,0c-0.3,0-0.6,0-0.9,0.1C142.1,269,141.9,269,141.6,269z
						 M138.5,267.8c0.8,0,1.5,0.1,2.3,0.1l0.9,0.1c0.1,0,0.3,0,0.5-0.1c0.3,0,0.7-0.1,1-0.1l0.4,0c0.3,0,0.6,0,0.8,0
						c7.6,0,15.2,0,22.8,0c0.2,0,0.4,0,0.6,0c0.7,0,1.2,0,1.7-0.2c-1-0.5-1.9-1-2.9-1.5c-3-1.5-6.2-3.1-9.3-4.6
						c-1.4-0.7-2-1.6-2-3.4c0-3.3,0-6.7,0-9.9c0-1.3,0-2.6,0-3.9c0-0.1,0-0.1,0-0.2l0.5-1.1c0-0.1,0.1-0.2,0.2-0.2
						c3.9-2.3,7.1-6,10.3-11.6c1.1-1.9,2.3-3.4,4-4.6c9.4-6.9,13.7-16,13.1-27.9v0c-0.1-1.5-0.3-2.2-0.7-2.6c-0.3-0.3-1-0.4-2.1-0.4
						l-3.4,0.1c-1.3,0-2.2-0.2-2.7-0.8c-0.5-0.6-0.7-1.5-0.5-3c0.1-1,0.1-1.7-0.3-2c-0.3-0.3-0.9-0.5-1.9-0.5
						c-12.6,0.1-25.2,0.1-37.4,0c-0.9,0-1.4,0.1-1.7,0.5c-0.3,0.3-0.4,1-0.3,2c0.2,1.5,0,2.4-0.5,3c-0.7,0.7-1.8,0.9-2.9,0.9
						c0,0-1,0-1.5,0c-2,0-3.2,0-3.6,0.5c-0.5,0.5-0.5,2.1-0.5,4.4c0,10.8,4.2,19.2,12.8,25.6c1.5,1.1,2.6,2.4,3.5,4.1
						c3.3,6.1,6.7,10.1,10.8,12.5c0.1,0,0.1,0.1,0.2,0.2l0.6,1.1c0,0.1,0.1,0.2,0.1,0.3c0,1.3,0,2.6,0,3.9c0,3.2-0.1,6.5,0,9.8
						c0,1.8-0.5,2.8-2.1,3.5c-3.1,1.5-6.2,3-9.2,4.5c-1,0.5-1.9,1-2.9,1.4c0.2,0.1,0.6,0.1,0.9,0.2
						C138.3,267.8,138.4,267.8,138.5,267.8z M170.9,223.5c-0.2,0-0.4-0.1-0.7-0.2c-0.2-0.1-0.3-0.4-0.2-0.6
						c2.2-5.9,3.5-12.7,3.9-21.3c0.1-2.2,0.6-3.4,3-3.3c2.4,0.1,3.8,0.1,4.5,0.9c0.8,0.9,0.6,2.3,0.3,5.4l0,0
						c-0.8,7.4-4,13.4-9.6,18.3c-0.1,0-0.1,0.1-0.2,0.2C171.8,223.1,171.4,223.5,170.9,223.5z M176.7,199c-1.3,0-1.6,0.4-1.7,2.4
						c-0.4,8.3-1.6,14.9-3.7,20.7c0,0,0.1-0.1,0.1-0.1c5.4-4.8,8.4-10.6,9.2-17.7l0,0c0.3-2.7,0.4-4.1,0-4.7
						c-0.4-0.5-1.7-0.5-3.8-0.6C176.8,199,176.8,199,176.7,199z M135.6,223.1c-0.1,0-0.2,0-0.3-0.1c-6.8-6.2-10-13.2-10-21.8l0,0
						c0-1.1,0.1-2,0.7-2.5c0.4-0.4,1-0.6,1.9-0.6l0.3,0c4,0.1,4.2,0.3,4.5,4.8l0,0.3c0.2,3.2,0.6,6.5,1.2,9.7
						c0.4,2.1,0.9,4.2,1.4,6.4c0.3,1,0.5,2.1,0.8,3.3c0,0.2,0,0.4-0.2,0.5C135.8,223.1,135.7,223.1,135.6,223.1z M127.7,199.1
						c-0.6,0-0.9,0.1-1.1,0.3c-0.3,0.3-0.4,0.8-0.4,1.8l0,0c0,7.8,2.7,14.2,8.5,19.9c-0.1-0.6-0.3-1.1-0.4-1.6
						c-0.5-2.2-1.1-4.3-1.4-6.5c-0.6-3.2-1-6.5-1.2-9.8l0-0.3c-0.3-3.9-0.3-3.9-3.5-3.9l-0.3,0C127.8,199.1,127.8,199.1,127.7,199.1
						z"/>
					<path class="st2" d="M169.5,270.1h-32.4c-0.8,0-1.5-0.7-1.5-1.5v-0.2c0-0.8,0.7-1.5,1.5-1.5h32.4c0.8,0,1.5,0.7,1.5,1.5v0.2
						C171,269.4,170.4,270.1,169.5,270.1z M137.2,267.9c-0.3,0-0.5,0.2-0.5,0.5v0.2c0,0.3,0.2,0.5,0.5,0.5h32.4
						c0.3,0,0.5-0.2,0.5-0.5v-0.2c0-0.3-0.2-0.5-0.5-0.5H137.2z"/>
				</g>
				<g id="ULEp4J_15_">
					<path class="st3" d="M183.9,198.8c-0.1-2.9-0.7-3.6-3.3-3.4l-3.4,0.1c-2.3,0-3-0.8-2.7-3.2c0.3-2.5-0.6-3.1-2.7-3.1
						c-12.5,0.1-24.9,0.1-37.4,0c-2.1,0-2.8,0.7-2.5,3c0.4,2.7-0.5,3.3-2.9,3.3c0,0-1,0-1.4,0c-4.5,0-4.6,0-4.6,5.3
						c0,11.6,4.9,20,13,26c1.4,1,2.5,2.3,3.3,3.9c2.8,5.2,6.2,9.8,11,12.7c0.2,0.4,0.4,0.7,0.6,1.1c0,4.6-0.1,9.1-0.1,13.7
						c0,1.7-0.5,2.5-1.8,3.1c-4.3,2-8.5,4.2-12.8,6.3c0.5,0.7,1.1,0.7,1.8,0.8c1.1,0,2.3,0.1,3.4,0.2c0.5,0,1-0.2,1.6-0.1
						c0.4,0,0.8,0,1.3,0c7.6,0,15.2,0,22.8,0c1.1,0,2.3,0.3,3.2-0.8c-4.3-2.1-8.5-4.3-12.8-6.4c-1.2-0.6-1.7-1.3-1.7-2.9
						c0.1-4.6,0-9.2-0.1-13.8c0.2-0.4,0.3-0.7,0.5-1.1c4.5-2.7,7.7-7,10.4-11.8c1-1.9,2.3-3.3,3.9-4.4
						C179.5,220.6,184.6,211.6,183.9,198.8z M125.8,201.2c0-1.8,0.3-2.6,2.1-2.6c4.1,0.1,4,0,4.3,4.7c0.2,3.3,0.6,6.5,1.2,9.7
						c0.5,3.1,1.4,6.1,2.2,9.7C129.3,216.8,125.8,210.1,125.8,201.2z M181.2,204.4c-0.9,7.6-4.3,13.4-9.4,18
						c-0.3,0.3-0.7,0.9-1.3,0.5c2.6-6.8,3.6-14.1,3.9-21.5c0.1-2.1,0.5-2.9,2.4-2.8C181.8,198.7,181.9,198.7,181.2,204.4z"/>
					<path class="st3" d="M169.5,269.6h-32.4c-0.6,0-1-0.5-1-1v-0.2c0-0.6,0.5-1,1-1h32.4c0.6,0,1,0.5,1,1v0.2
						C170.5,269.2,170.1,269.6,169.5,269.6z"/>
				</g>
				<g>
					<path class="st4" d="M181.7,195.4l0.4,0c-0.4-0.1-0.9-0.1-1.5-0.1l0,0C181,195.4,181.3,195.4,181.7,195.4z"/>
					<path class="st4" d="M179.9,198.8c1.8,0.4,1.8,1.5,1.3,5.6c-0.5,4.8-2.1,8.9-4.4,12.3c-0.5,2.1-1.1,4.1-1.9,6.1
						c0.2,0.1,0.3,0.1,0.4,0.1c5.9-6.1,9.1-13.9,8.6-24.2c0,0,0-0.1,0-0.1c-0.7-0.1-1.5-0.1-2.6-0.2
						C180.7,198.5,180.3,198.6,179.9,198.8z"/>
					<path class="st4" d="M172.5,189.1c-0.2,0-0.4,0-0.6,0c-5.5,0.1-11,0.1-16.5,0.1C161.1,189.2,166.8,189.2,172.5,189.1z"/>
					<path class="st4" d="M140,222.6c-0.8-3.6-1.7-6.6-2.2-9.7c-0.6-3.2-1-6.5-1.2-9.7c-0.3-4.7-0.3-4.6-4.3-4.7
						c-0.6,0-1,0.1-1.4,0.3c1,0.4,1.1,1.4,1.3,4.4c0.2,3.3,0.6,6.5,1.2,9.7c0.1,0.7,0.3,1.5,0.4,2.2
						C135.4,217.8,137.5,220.3,140,222.6z"/>
					<path class="st4" d="M139.4,230.7c2.8,5.2,6.2,9.8,11,12.7c0.2,0.4,0.4,0.7,0.6,1.1c0,4.6-0.1,9.1-0.1,13.7
						c0,1.7-0.5,2.5-1.8,3.1c-4.3,2-8.5,4.2-12.8,6.3c0,0,0.1,0.1,0.1,0.1c0.2-0.2,0.4-0.3,0.7-0.3h3.9c4.1-2.1,8.3-4.2,12.5-6.2
						c1.3-0.6,1.8-1.4,1.8-3.1c-0.1-4.6,0-9.1,0.1-13.7c-0.2-0.4-0.4-0.7-0.6-1.1c-4.8-2.9-8.2-7.5-11-12.7
						c-0.9-1.6-1.9-2.9-3.3-3.9c-1.8-1.3-3.4-2.8-4.9-4.4c0,0.1,0,0.1,0,0.2c-6.3-5.8-9.8-12.5-9.8-21.5c0-1.7,0.3-2.5,1.7-2.6
						c0.1-3.1,0.8-3.2,4.6-3.2c0.5,0,1.4,0,1.4,0c2.4,0,3.3-0.6,2.9-3.3c-0.3-2.1,0.3-2.9,2-3c-1.3,0-2.6,0-3.9,0
						c-2.1,0-2.8,0.7-2.5,3c0.4,2.7-0.5,3.3-2.9,3.3c0,0-1,0-1.4,0c-4.5,0-4.6,0-4.6,5.3c0,11.6,4.9,20,13,26
						C137.4,227.8,138.5,229,139.4,230.7z"/>
				</g>
				<g id="ULEp4J_14_">
					<path class="st5" d="M141.6,269l-0.9-0.1c-0.8-0.1-1.7-0.1-2.5-0.1c-0.7,0-1.6-0.1-2.2-1c-0.1-0.1-0.1-0.3-0.1-0.4
						c0-0.1,0.1-0.3,0.3-0.3c1.2-0.6,2.4-1.2,3.5-1.8c3-1.5,6.1-3.1,9.2-4.5c1.2-0.6,1.5-1.2,1.5-2.6c-0.1-3.3,0-6.6,0-9.8
						c0-1.3,0-2.5,0-3.8l-0.5-0.8c-4.2-2.5-7.7-6.6-11.1-12.8c-0.8-1.5-1.8-2.7-3.2-3.7c-8.9-6.7-13.2-15.3-13.2-26.4
						c0-5.6,0.3-5.8,5.1-5.8c0.5,0,1.5,0,1.5,0c1.2,0,1.9-0.2,2.2-0.5c0.3-0.4,0.4-1.1,0.3-2.2c-0.2-1.3,0-2.2,0.5-2.8
						c0.5-0.6,1.3-0.8,2.5-0.8c12.2,0.1,24.8,0.1,37.4,0c1,0,2,0.1,2.7,0.8c0.5,0.6,0.7,1.5,0.5,2.8c-0.1,1.1-0.1,1.8,0.3,2.2
						c0.3,0.3,0.9,0.5,1.9,0.5l3.4-0.1c1.4-0.1,2.2,0.1,2.8,0.6c0.7,0.7,0.9,1.8,1,3.3c0,0,0,0,0,0c0.6,12.2-3.8,21.6-13.5,28.7
						c-1.6,1.1-2.8,2.5-3.7,4.3c-3.2,5.7-6.5,9.5-10.5,11.9l-0.4,0.9c0,1.3,0,2.5,0,3.8c0,3.3,0.1,6.6,0,9.9c0,1.3,0.3,1.9,1.4,2.4
						c3.1,1.5,6.3,3.1,9.3,4.6c1.2,0.6,2.4,1.2,3.5,1.8c0.1,0.1,0.2,0.2,0.3,0.3c0,0.1,0,0.3-0.1,0.4c-0.9,1.1-2.1,1.1-3,1
						c-0.2,0-0.4,0-0.6,0c-7.6,0-15.2,0-22.8,0c-0.3,0-0.6,0-0.8,0l-0.4,0c-0.3,0-0.6,0-0.9,0.1C142.1,269,141.9,269,141.6,269z
						 M138.5,267.8c0.8,0,1.5,0.1,2.3,0.1l0.9,0.1c0.1,0,0.3,0,0.5-0.1c0.3,0,0.7-0.1,1-0.1l0.4,0c0.3,0,0.6,0,0.8,0
						c7.6,0,15.2,0,22.8,0c0.2,0,0.4,0,0.6,0c0.7,0,1.2,0,1.7-0.2c-1-0.5-1.9-1-2.9-1.5c-3-1.5-6.2-3.1-9.3-4.6
						c-1.4-0.7-2-1.6-2-3.4c0-3.3,0-6.7,0-9.9c0-1.3,0-2.6,0-3.9c0-0.1,0-0.1,0-0.2l0.5-1.1c0-0.1,0.1-0.2,0.2-0.2
						c3.9-2.3,7.1-6,10.3-11.6c1.1-1.9,2.3-3.4,4-4.6c9.4-6.9,13.7-16,13.1-27.9v0c-0.1-1.5-0.3-2.2-0.7-2.6c-0.3-0.3-1-0.4-2.1-0.4
						l-3.4,0.1c-1.3,0-2.2-0.2-2.7-0.8c-0.5-0.6-0.7-1.5-0.5-3c0.1-1,0.1-1.7-0.3-2c-0.3-0.3-0.9-0.5-1.9-0.5
						c-12.6,0.1-25.2,0.1-37.4,0c-0.9,0-1.4,0.1-1.7,0.5c-0.3,0.3-0.4,1-0.3,2c0.2,1.5,0,2.4-0.5,3c-0.7,0.7-1.8,0.9-2.9,0.9
						c0,0-1,0-1.5,0c-2,0-3.2,0-3.6,0.5c-0.5,0.5-0.5,2.1-0.5,4.4c0,10.8,4.2,19.2,12.8,25.6c1.5,1.1,2.6,2.4,3.5,4.1
						c3.3,6.1,6.7,10.1,10.8,12.5c0.1,0,0.1,0.1,0.2,0.2l0.6,1.1c0,0.1,0.1,0.2,0.1,0.3c0,1.3,0,2.6,0,3.9c0,3.2-0.1,6.5,0,9.8
						c0,1.8-0.5,2.8-2.1,3.5c-3.1,1.5-6.2,3-9.2,4.5c-1,0.5-1.9,1-2.9,1.4c0.2,0.1,0.6,0.1,0.9,0.2
						C138.3,267.8,138.4,267.8,138.5,267.8z M170.9,223.5c-0.2,0-0.4-0.1-0.7-0.2c-0.2-0.1-0.3-0.4-0.2-0.6
						c2.2-5.9,3.5-12.7,3.9-21.3c0.1-2.2,0.6-3.4,3-3.3c2.4,0.1,3.8,0.1,4.5,0.9c0.8,0.9,0.6,2.3,0.3,5.4l0,0
						c-0.8,7.4-4,13.4-9.6,18.3c-0.1,0-0.1,0.1-0.2,0.2C171.8,223.1,171.4,223.5,170.9,223.5z M176.7,199c-1.3,0-1.6,0.4-1.7,2.4
						c-0.4,8.3-1.6,14.9-3.7,20.7c0,0,0.1-0.1,0.1-0.1c5.4-4.8,8.4-10.6,9.2-17.7l0,0c0.3-2.7,0.4-4.1,0-4.7
						c-0.4-0.5-1.7-0.5-3.8-0.6C176.8,199,176.8,199,176.7,199z M135.6,223.1c-0.1,0-0.2,0-0.3-0.1c-6.8-6.2-10-13.2-10-21.8l0,0
						c0-1.1,0.1-2,0.7-2.5c0.4-0.4,1-0.6,1.9-0.6l0.3,0c4,0.1,4.2,0.3,4.5,4.8l0,0.3c0.2,3.2,0.6,6.5,1.2,9.7
						c0.4,2.1,0.9,4.2,1.4,6.4c0.3,1,0.5,2.1,0.8,3.3c0,0.2,0,0.4-0.2,0.5C135.8,223.1,135.7,223.1,135.6,223.1z M127.7,199.1
						c-0.6,0-0.9,0.1-1.1,0.3c-0.3,0.3-0.4,0.8-0.4,1.8l0,0c0,7.8,2.7,14.2,8.5,19.9c-0.1-0.6-0.3-1.1-0.4-1.6
						c-0.5-2.2-1.1-4.3-1.4-6.5c-0.6-3.2-1-6.5-1.2-9.8l0-0.3c-0.3-3.9-0.3-3.9-3.5-3.9l-0.3,0C127.8,199.1,127.8,199.1,127.7,199.1
						z"/>
					<path class="st5" d="M169.5,270.1h-32.4c-0.8,0-1.5-0.7-1.5-1.5v-0.2c0-0.8,0.7-1.5,1.5-1.5h32.4c0.8,0,1.5,0.7,1.5,1.5v0.2
						C171,269.4,170.4,270.1,169.5,270.1z M137.2,267.9c-0.3,0-0.5,0.2-0.5,0.5v0.2c0,0.3,0.2,0.5,0.5,0.5h32.4
						c0.3,0,0.5-0.2,0.5-0.5v-0.2c0-0.3-0.2-0.5-0.5-0.5H137.2z"/>
				</g>
				<g>
					<path class="st5" d="M150.3,214.2c0,0.7,0.2,1.3,0.6,1.7c0.4,0.4,1,0.6,1.7,0.6c1.4,0,2.1-0.9,2.1-1.9c0-1.9-1.8-1.8-3-1.8
						v-2.8c1.1,0.1,2.8-0.1,2.8-1.6c0-1.1-0.9-1.4-1.9-1.4c-1.1,0-1.9,0.6-2.1,1.7h-4.3c0.2-3.7,3.2-5.3,6.5-5.3
						c3.8,0,6.2,1.8,6.2,4.5c0,1.5-0.6,2.5-1.9,3.2c1.5,0.6,2.3,1.8,2.3,3.4c0,3.8-2.8,5.7-7.1,5.7c-3.8,0-6.6-1.9-6.5-5.9H150.3z"
						/>
				</g>
			</g>
			<g>
				
					<rect x="177.1" y="128.2" transform="matrix(0.9881 0.1536 -0.1536 0.9881 24.3016 -28.4686)" class="st4" width="38.5" height="29.7"/>
				<path class="st6" d="M213.1,161.1C213.1,161.1,213,161.1,213.1,161.1l-38.1-5.9c-0.1,0-0.2-0.1-0.3-0.2
					c-0.1-0.1-0.1-0.2-0.1-0.4l4.6-29.3c0-0.3,0.3-0.5,0.6-0.4l38,5.9c0.1,0,0.2,0.1,0.3,0.2c0.1,0.1,0.1,0.2,0.1,0.4l-4.6,29.3
					C213.5,160.9,213.3,161.1,213.1,161.1z M175.6,154.3l37,5.8l4.4-28.3l-37-5.8L175.6,154.3z"/>
			</g>
			<g>
				<path class="st2" d="M189.7,145.5c0.2,0.1,0.3,0.3,0.2,0.4c0,0.1-0.1,0.3-0.2,0.4c-0.1,0.1-0.2,0.2-0.4,0.2
					c-0.2,0-0.3,0-0.4-0.1c0,0.1-0.1,0.1-0.1,0.1c-0.1,0-0.1,0-0.1,0.1c-0.8,0-1.6,0-2.4,0.1c-0.8,0-1.6,0.1-2.5,0
					c-0.6-0.1-1.1-0.3-1.5-0.5c-0.1-0.2-0.2-0.4-0.3-0.6c0-0.2-0.1-0.5,0-0.7c0-0.2,0.1-0.5,0.1-0.7c0.1-0.2,0.1-0.4,0.2-0.6
					c0.5-0.5,1-0.9,1.5-1.3c0.5-0.4,1.1-0.8,1.7-1c0.2-0.2,0.4-0.3,0.7-0.4c0.2-0.1,0.5-0.2,0.7-0.4c-0.2-0.1-0.5-0.2-0.7-0.2
					c-0.3,0-0.5-0.1-0.8-0.1c-0.3,0-0.5,0-0.7,0c-0.2,0-0.4,0-0.6,0.1c-0.1-0.1-0.3-0.1-0.4-0.2c-0.2,0-0.3-0.1-0.5-0.2
					c-0.1-0.1-0.1-0.2-0.1-0.3c0-0.1,0-0.3,0-0.4c0-0.1,0-0.3,0-0.4c0-0.1,0-0.2,0-0.3c0.1-0.1,0.2-0.2,0.2-0.3
					c0.1-0.1,0.1-0.2,0.2-0.3c0.4,0,0.8-0.1,1.3-0.1c0.5,0,0.9,0,1.4,0.1c0.5,0.1,0.9,0.2,1.3,0.4c0.4,0.2,0.8,0.4,1.1,0.7
					c0,0.2,0.1,0.4,0.2,0.6c0.1,0.1,0.2,0.3,0.4,0.4c0.1,0.2,0.1,0.3,0.2,0.5c0,0.2,0.1,0.4,0.1,0.5c-0.2,0.4-0.5,0.7-0.8,1
					s-0.7,0.5-1,0.7c-0.2,0.1-0.4,0.2-0.6,0.3c-0.2,0.1-0.4,0.2-0.5,0.3c0,0-0.1,0.1-0.1,0.1c0,0,0,0.1-0.1,0.1
					c-0.2,0.1-0.3,0.2-0.5,0.3c-0.2,0.1-0.4,0.2-0.5,0.3c-0.1,0.1-0.2,0.2-0.3,0.2c-0.1,0.1-0.2,0.2-0.3,0.2
					c0.1,0.1,0.3,0.1,0.4,0.1c0.1,0,0.3,0,0.4,0c0.1,0,0.3,0,0.5,0c0.2,0,0.3,0,0.5,0.1c0.2,0,0.5-0.1,0.8-0.1c0.3,0,0.6,0,0.8,0.1
					c0.3-0.1,0.5-0.1,0.7-0.1c0.2,0,0.4,0,0.6,0.1c0.1,0.1,0.2,0.1,0.2,0.2c0,0.1,0.1,0.2,0.2,0.3c0,0.1-0.1,0.1,0,0.2
					C189.7,145.3,189.7,145.4,189.7,145.5z"/>
				<path class="st2" d="M191.5,148.1c-0.3,0-0.6-0.1-0.8-0.2c-0.2-0.1-0.5-0.3-0.6-0.5c-0.2-0.2-0.3-0.4-0.4-0.7
					c-0.1-0.3-0.2-0.5-0.2-0.8c0-0.6,0.1-1.1,0.3-1.5c0.2-0.4,0.4-0.8,0.6-1.2c0.3-0.4,0.5-0.7,0.8-1c0.3-0.3,0.6-0.6,0.9-0.9
					c0,0,0.1,0,0.1,0c0,0,0.1-0.1,0.1-0.1c0,0,0.1-0.1,0.1-0.1c0,0,0.1-0.1,0.1-0.1c0-0.1,0.1-0.1,0.1-0.2c0.1,0,0.1-0.1,0.2-0.1
					c0.1,0,0.1-0.1,0.2-0.1c0.1,0,0.1-0.1,0.1-0.2c0.1,0,0.1,0,0.2-0.1c0.1,0,0.1-0.1,0.2-0.1c0.1,0,0.1-0.1,0.2-0.1
					c0.1,0,0.1-0.1,0.2-0.1l0-0.2c0.2-0.1,0.3-0.1,0.4-0.2c0.1-0.1,0.2-0.2,0.3-0.3c0.1,0,0.1,0,0.2,0c0,0,0.1,0,0.2,0
					c0.1-0.1,0.2-0.2,0.2-0.3c0.1-0.1,0.2-0.1,0.3-0.2c0.1,0.1,0.2,0.1,0.3,0.2c0.1,0,0.2,0.1,0.3,0.2c0,0.1,0,0.2,0,0.2
					c0,0.1,0.1,0.1,0.1,0.2c0,0.1,0.1,0.1,0.1,0.2c0,0.1,0.1,0.1,0.1,0.2c0,0,0.1,0,0.1,0c0,0,0,0,0.1,0c0,0.1,0,0.1,0,0.2
					c0,0,0,0.1,0,0.1s0,0.1,0,0.1c0,0,0,0.1,0,0.2c-0.1,0.1-0.1,0.2-0.1,0.3c0,0.1-0.1,0.2-0.2,0.2c0,0.1,0,0.1,0,0.1
					c0,0,0.1,0.1,0.1,0.1c0,0.1,0,0.1-0.1,0.2c0.1,0.4,0.3,0.9,0.4,1.3c0.1,0.4,0.2,0.9,0.4,1.3c0,0.1,0,0.2,0,0.3
					c0,0.1,0,0.2,0,0.3c0,0.1,0,0.2,0.1,0.3c0,0.1,0,0.2,0,0.3c0,0.1,0,0.3-0.1,0.5c0,0.2-0.1,0.3-0.2,0.5c-0.1,0.1-0.1,0.3-0.2,0.4
					s-0.2,0.2-0.3,0.2c0,0-0.1,0-0.1,0c-0.1,0-0.2,0.1-0.3,0.2c-0.1,0.1-0.2,0.1-0.3,0.2c-0.1,0.1-0.2,0.1-0.3,0.2
					c-0.1,0-0.2,0.1-0.3,0.1c-0.1,0-0.2,0-0.4,0c-0.1,0-0.2,0.1-0.4,0.1c-0.1,0-0.3,0.1-0.4,0.1c-0.1,0-0.3,0-0.4,0
					c-0.1,0-0.3,0-0.4,0c-0.3,0.1-0.5,0.1-0.8,0.1C192.1,148.3,191.8,148.2,191.5,148.1z M192.5,143.7c-0.1,0.2-0.2,0.3-0.3,0.5
					c-0.1,0.1-0.2,0.3-0.3,0.4c-0.1,0.1-0.2,0.3-0.3,0.5c-0.1,0.2-0.2,0.4-0.2,0.6c0.1,0.2,0.2,0.3,0.4,0.3c0.2,0.1,0.4,0.1,0.5,0.1
					c0.2,0,0.4,0,0.6,0c0.2,0,0.4,0,0.5,0c0-0.1,0-0.1,0.1-0.1c0.3,0,0.5,0,0.8-0.2c0.3-0.1,0.5-0.3,0.8-0.4c0-0.1,0.1-0.2,0.2-0.2
					c0.1-0.1,0.1-0.2,0.1-0.3c0-0.1,0-0.2,0-0.2c0,0,0-0.1,0-0.2c-0.1-0.3-0.2-0.7-0.3-1c-0.1-0.4-0.2-0.7-0.3-1
					c0,0-0.1,0.1-0.1,0.1c0,0-0.1,0-0.1,0c-0.1,0.2-0.1,0.2-0.2,0.2c-0.1,0-0.2-0.1-0.3-0.2c-0.3,0.2-0.5,0.4-0.8,0.6
					c-0.3,0.2-0.5,0.4-0.7,0.7C192.6,143.7,192.6,143.7,192.5,143.7C192.6,143.7,192.5,143.7,192.5,143.7z"/>
				<path class="st2" d="M200.7,140.5c0.1,0.2,0.2,0.3,0.3,0.5c0.1,0.1,0.2,0.3,0.4,0.4c0.1,0.3,0.2,0.7,0.1,1.1
					c0,0.4,0,0.8-0.1,1.3c-0.1,0.4-0.1,0.7-0.2,1c-0.1,0.3-0.2,0.6-0.3,0.9c-0.1,0.3-0.3,0.6-0.4,0.9c-0.1,0.3-0.3,0.6-0.4,0.9
					c-0.1,0.1-0.2,0.3-0.3,0.5c-0.1,0.2-0.1,0.4-0.1,0.6c-0.1,0.1-0.2,0.2-0.4,0.3c-0.1,0.1-0.3,0.2-0.4,0.3c0-0.1-0.1-0.1-0.2-0.1
					c-0.1,0-0.2,0-0.2,0s-0.2,0-0.2,0c-0.1,0-0.1,0-0.1,0c0-0.1-0.1-0.1-0.1-0.2c-0.1-0.1-0.1-0.2-0.1-0.3c0-0.1-0.1-0.2-0.1-0.2
					c0-0.1,0-0.2,0.1-0.2c0-0.1,0-0.1-0.1-0.2c0.1-0.4,0.2-0.7,0.3-1c0.1-0.3,0.3-0.7,0.5-1c0.2-0.3,0.3-0.6,0.5-0.9
					c0.2-0.3,0.3-0.6,0.4-0.9c0.1-0.3,0.2-0.6,0.2-1c0-0.3,0-0.7-0.1-1c0-0.1,0-0.2,0-0.3c0-0.1,0-0.1,0-0.2c0-0.1,0-0.1,0-0.2
					c0-0.1,0-0.1,0-0.2c0.1-0.1,0.1-0.2,0.1-0.3c0-0.1,0-0.2,0-0.3c0-0.1,0-0.1,0.1-0.1c0,0,0.1-0.1,0.1-0.1c0,0,0.1-0.1,0.1-0.1
					c0,0,0.1-0.1,0.1-0.1l0.3,0c0.1,0.1,0.1,0.2,0.2,0.2C200.5,140.5,200.6,140.5,200.7,140.5z"/>
				<path class="st2" d="M209.4,146.2C209.4,146.2,209.4,146.2,209.4,146.2c-0.1,0.1-0.1,0.1-0.2,0.2c0,0-0.1,0-0.1,0.1
					c0,0,0,0.1,0,0.1c0.1,0,0.1,0,0.1,0c0,0,0,0,0.1,0c0,0,0,0-0.1,0.1c0,0,0,0.1,0,0.1c0,0.1-0.1,0.1-0.1,0.2
					c-0.1,0-0.1,0.1-0.2,0.1c-0.1,0-0.1,0.1-0.2,0.1c-0.1,0-0.1,0.1-0.2,0.1c-0.3,0-0.5,0-0.6,0c-0.1,0-0.2,0-0.3,0
					c-0.1,0-0.2,0-0.3,0c-0.1,0-0.3,0-0.6,0c0,0-0.1,0.1-0.1,0.1c0,0-0.1,0.1-0.1,0.1c-0.1,0-0.1,0.1-0.1,0.1c0,0.1-0.1,0.1-0.1,0.2
					c-0.1,0-0.2,0.1-0.3,0.2c-0.1,0.1-0.2,0.2-0.2,0.3c-0.1,0.1-0.2,0.2-0.2,0.3c-0.1,0.1-0.2,0.2-0.3,0.3c0,0,0,0.1,0,0.1
					c0,0,0,0.1,0,0.1c-0.1,0-0.2,0.1-0.2,0.2c-0.1,0.1-0.1,0.2-0.2,0.3c-0.1,0.1-0.1,0.2-0.2,0.3c-0.1,0.1-0.2,0.1-0.4,0.1
					c-0.1,0-0.2-0.1-0.3-0.1c-0.1,0-0.1,0-0.2-0.1c-0.1,0-0.1,0-0.2,0c-0.1,0-0.2,0-0.3,0c0-0.1,0-0.1,0-0.2c0-0.1,0-0.1,0.1-0.1
					c0-0.1-0.1-0.2-0.2-0.2c0.1-0.3,0.2-0.7,0.3-1c0.2-0.3,0.3-0.6,0.5-0.8c-0.2,0-0.3,0-0.4,0c-0.1,0-0.2,0-0.2,0
					c-0.1,0-0.2,0-0.2,0c-0.1,0-0.2,0-0.3-0.1c0-0.1,0-0.2-0.1-0.2c-0.1,0-0.1-0.1-0.2-0.1c0-0.1,0-0.2-0.1-0.2
					c-0.1-0.1-0.1-0.1-0.2-0.2c0-0.1,0.1-0.1,0.1-0.1c0-0.1,0-0.2,0-0.2s0-0.1,0.1-0.2c0,0,0-0.1-0.1-0.1c0,0,0,0,0-0.1
					c0.1-0.2,0.3-0.4,0.5-0.4c0.2-0.1,0.4-0.1,0.7-0.1c0.2,0,0.5,0,0.7,0.1c0.2,0,0.5,0,0.7-0.1c0.1,0.1,0.3,0.1,0.4,0.1
					c0.1,0,0.2,0,0.4,0c0-0.1,0.1-0.3,0.2-0.4c0.1-0.1,0.2-0.3,0.2-0.4c0-0.1,0-0.1,0-0.2s0-0.1,0-0.2c-0.1-0.2-0.3-0.3-0.4-0.4
					c-0.2-0.1-0.3-0.1-0.5-0.2c-0.2-0.1-0.4-0.1-0.6-0.1c-0.2,0-0.4-0.1-0.6-0.2c-0.2,0-0.4-0.1-0.5-0.1c-0.2,0-0.3,0-0.4,0
					c-0.1,0-0.3,0-0.4,0c-0.1,0-0.3,0-0.4-0.1c0,0,0-0.1,0-0.1s0-0.1,0-0.1c0,0,0-0.1-0.1-0.1c0,0-0.1-0.1-0.1-0.2
					c0-0.1,0.1-0.3,0.2-0.5s0.1-0.4,0.1-0.6c0.1,0,0.1,0,0.1,0c0,0,0,0,0-0.1c0,0,0,0,0-0.1c0,0,0-0.1,0.1-0.1c0.1,0,0.2,0,0.2-0.1
					c0.1-0.1,0.2-0.1,0.2-0.1c0.2,0,0.3,0,0.4,0c0.1,0,0.1,0,0.2,0s0.1,0,0.1,0c0.1,0,0.1,0,0.3,0c0,0,0.1,0,0.1,0c0,0,0,0,0,0
					c0,0,0,0,0,0c0,0,0,0,0.1,0c0.2,0,0.3,0,0.4,0c0.1,0,0.2,0,0.3,0s0.2,0,0.3,0.1c0.1,0,0.2,0.1,0.3,0.1c0,0,0.1,0,0.1,0
					c0.1,0,0.1,0,0.1,0c0,0,0.1,0,0.1,0c0,0,0,0.1,0,0.1c0.2,0,0.3,0,0.4,0.1c0.1,0,0.2,0.1,0.3,0.1c0.1,0.1,0.2,0.1,0.3,0.2
					c0.1,0.1,0.2,0.1,0.4,0.2c0.1,0.2,0.2,0.4,0.2,0.6c0.1,0.2,0.2,0.4,0.4,0.5c0,0,0,0.1,0,0.1c0,0,0,0,0,0.1
					c-0.1,0-0.1,0.1-0.1,0.1c0,0,0,0,0.1,0c0,0,0,0,0.1,0c0,0,0,0,0,0c0,0,0,0.1,0,0.1c0,0,0,0,0,0c0,0.1,0,0.2,0,0.3
					c0,0.1,0,0.3-0.1,0.4c0,0.2-0.1,0.3-0.1,0.5c0,0.2-0.1,0.3-0.1,0.5c0.2,0.1,0.3,0.1,0.4,0.1c0.1,0,0.1,0,0.2,0
					c0.1,0,0.1,0,0.2,0c0.1,0,0.3,0,0.5,0.1c0,0.1,0,0.2,0.1,0.3C209.3,146,209.4,146.1,209.4,146.2z"/>
			</g>
			<polyline class="st7" points="210.8,125 189,121.6 189.3,123.5 187.8,125 189.2,125.9 187.3,127.9 187.7,130 209.5,133.4 
				188,130 209.8,133.4 209.5,131.5 211,130 209.6,129.1 211.5,127.1 211.1,125 189.3,121.6 			"/>
			<path class="st6" d="M209.8,133.9C209.8,133.9,209.8,133.9,209.8,133.9l-22.2-3.4c-0.2,0-0.4-0.2-0.4-0.4l-0.3-2.1
				c0-0.2,0-0.3,0.1-0.4l1.5-1.5l-0.9-0.6c-0.1-0.1-0.2-0.2-0.2-0.4s0-0.3,0.1-0.4l1.3-1.3l-0.3-1.7c0-0.2,0-0.3,0.1-0.4
				s0.3-0.2,0.4-0.1l21.8,3.4c0,0,0,0,0,0l0.3,0c0.2,0,0.4,0.2,0.4,0.4l0.3,2.1c0,0.2,0,0.3-0.1,0.4l-1.5,1.5l0.9,0.6
				c0.1,0.1,0.2,0.2,0.2,0.4s0,0.3-0.1,0.4l-1.3,1.3l0.3,1.7c0,0.2,0,0.3-0.1,0.4C210.1,133.9,209.9,133.9,209.8,133.9z
				 M188.2,129.6l21,3.3l-0.2-1.2c0-0.2,0-0.3,0.1-0.4l1.1-1.1l-0.9-0.6c-0.1-0.1-0.2-0.2-0.2-0.4s0-0.3,0.1-0.4l1.7-1.8l-0.2-1.5
				l-21.1-3.3l0.2,1.2c0,0.2,0,0.3-0.1,0.4l-1.1,1.1l0.9,0.6c0.1,0.1,0.2,0.2,0.2,0.4s0,0.3-0.1,0.4l-1.7,1.8L188.2,129.6z"/>
			<g id="ULEp4J_12_">
				<path class="st8" d="M272.3,168.9c-0.2-4.1-1.2-5-5.4-4.8l-5.5,0.1c-3.8,0.1-5-1.1-4.5-4.6c0.6-3.6-1-4.4-4.4-4.3
					c-20.5,0.2-41,0.2-61.6,0c-3.4,0-4.6,1-4.1,4.2c0.6,3.9-0.9,4.6-4.8,4.7c0,0-1.6,0-2.4,0c-7.4,0-7.5,0-7.5,7.5
					c-0.1,16.4,8,28.1,21.4,36.7c2.3,1.5,4,3.2,5.5,5.5c4.6,7.4,10.2,13.8,18.1,17.9c0.3,0.5,0.7,1,1,1.5
					c-0.1,6.4-0.2,12.9-0.1,19.3c0.1,2.4-0.8,3.5-2.9,4.3c-7,2.9-14,5.9-21,8.9c0.8,0.9,1.9,1,3,1.1c1.9,0,3.8,0.1,5.6,0.3
					c0.9,0,1.7-0.2,2.6-0.2c0.7,0,1.4,0,2.1,0c12.5,0,25,0,37.5,0c1.8,0,3.7,0.4,5.2-1.2c-7-3-14-6.1-21.1-9c-2-0.8-2.8-1.9-2.8-4.1
					c0.1-6.5-0.1-13-0.1-19.4c0.3-0.5,0.5-1.1,0.8-1.6c7.4-3.8,12.7-9.8,17.2-16.6c1.7-2.6,3.8-4.6,6.4-6.2
					C265,199.6,273.3,186.9,272.3,168.9z M176.5,172.2c0-2.6,0.5-3.7,3.4-3.7c6.7,0.1,6.5,0,7.1,6.6c0.4,4.6,1.1,9.2,2,13.7
					c0.9,4.3,2.3,8.6,3.7,13.7C182.4,194.3,176.6,184.8,176.5,172.2z M267.8,176.7c-1.4,10.8-7,18.9-15.5,25.3
					c-0.6,0.4-1.1,1.2-2.1,0.7c4.2-9.6,5.9-19.8,6.5-30.2c0.2-3,0.8-4.1,4-4C268.7,168.7,268.9,168.8,267.8,176.7z"/>
				<path class="st8" d="M248.7,268.6h-53.5c-0.9,0-1.6-0.7-1.6-1.6l0,0c0-0.9,0.7-1.6,1.6-1.6h53.5c0.9,0,1.6,0.7,1.6,1.6l0,0
					C250.2,267.9,249.5,268.6,248.7,268.6z"/>
			</g>
			<rect x="90.8" y="268.6" class="st4" width="337.6" height="14.4"/>
			<g>
				
					<rect x="106.7" y="152.8" transform="matrix(0.9975 -7.017341e-02 7.017341e-02 0.9975 -11.4527 9.2529)" class="st4" width="38.5" height="29.7"/>
				<path class="st6" d="M107.8,184.3c-0.3,0-0.5-0.2-0.5-0.5l-2.1-29.6c0-0.1,0-0.3,0.1-0.4c0.1-0.1,0.2-0.2,0.3-0.2l38.4-2.7
					c0.3,0,0.5,0.2,0.5,0.5l2.1,29.6c0,0.1,0,0.3-0.1,0.4c-0.1,0.1-0.2,0.2-0.3,0.2L107.8,184.3
					C107.8,184.3,107.8,184.3,107.8,184.3z M106.3,154.7l2,28.6l37.4-2.6l-2-28.6L106.3,154.7z"/>
			</g>
			<polyline class="st7" points="129.3,144.7 119.4,154.6 121,155.6 121.6,157.4 122.8,157.2 123.7,159.5 125.4,160.6 135.4,150.7 
				125.5,160.5 135.5,150.6 133.9,149.5 133.3,147.8 132.1,147.9 131.2,145.7 129.5,144.5 119.5,154.5 			"/>
			<path class="st6" d="M125.4,161.1c-0.1,0-0.2,0-0.3-0.1l-1.7-1.1c-0.1-0.1-0.2-0.1-0.2-0.2l-0.7-1.9l-0.8,0.1
				c-0.2,0-0.5-0.1-0.5-0.3l-0.6-1.6l-1.4-0.9c-0.1-0.1-0.2-0.2-0.2-0.4c0-0.2,0-0.3,0.1-0.4l10-10c0,0,0,0,0,0l0.1-0.1
				c0.2-0.2,0.4-0.2,0.6-0.1l1.7,1.1c0.1,0.1,0.2,0.1,0.2,0.2l0.7,1.9l0.8-0.1c0.2,0,0.5,0.1,0.5,0.3l0.6,1.6l1.4,0.9
				c0.1,0.1,0.2,0.2,0.2,0.4c0,0.2,0,0.3-0.1,0.4l-10,10c0,0,0,0,0,0l-0.1,0.1C125.7,161.1,125.5,161.1,125.4,161.1z M124.1,159.2
				l1.3,0.8l9.4-9.4l-1.1-0.7c-0.1-0.1-0.2-0.1-0.2-0.3l-0.5-1.4l-0.8,0.1c-0.2,0-0.5-0.1-0.5-0.3l-0.8-2.1l-1.3-0.8l-9.4,9.4
				l1.1,0.7c0.1,0.1,0.2,0.1,0.2,0.3l0.5,1.4l0.8-0.1c0.2,0,0.5,0.1,0.5,0.3L124.1,159.2z"/>
			<g>
				<path class="st9" d="M269.3,164.2l0.1,0c-0.6-0.1-1.2-0.1-2.1-0.1C267.9,164.1,268.6,164.2,269.3,164.2z"/>
				<path class="st9" d="M253.8,155.3c-0.4,0-0.8,0-1.3,0c-8.9,0.1-17.9,0.1-26.8,0.1C235.1,155.4,244.4,155.4,253.8,155.3z"/>
				<path class="st9" d="M272.3,168.9c0-0.1,0-0.1,0-0.2c-1-0.1-2.2-0.1-3.6-0.1c-1.1,0-2,0.1-2.5,0.4c2.5,0.6,2.4,2.4,1.7,7.8
					c-0.8,6.1-2.9,11.3-6.1,15.9c-0.9,3.4-2.1,6.8-3.5,10.1c0.1,0,0.1,0,0.2,0.1C268,194.3,273.1,183.3,272.3,168.9z"/>
				<path class="st9" d="M198.9,213.8c4.6,7.4,10.2,13.8,18.1,17.9c0.3,0.5,0.7,1,1,1.5c-0.1,6.4-0.2,12.9-0.1,19.3
					c0.1,2.4-0.8,3.5-2.9,4.3c-7,2.9-14,5.9-21,8.9c0,0.1,0.1,0.1,0.1,0.1c0.3-0.2,0.6-0.4,1-0.4h7.3c6.8-2.9,13.6-5.9,20.5-8.7
					c2.1-0.9,3-1.9,2.9-4.3c-0.1-6.1,0-12.3,0.1-18.5c0-0.3,0-0.6,0-0.9c0,0,0,0,0,0c-0.3-0.5-0.7-1-1-1.5
					c-7.9-4-13.5-10.5-18.1-17.9c-1.5-2.3-3.2-4-5.5-5.5c-3.3-2.1-6.3-4.5-8.9-7c0.1,0.4,0.2,0.7,0.3,1.1
					c-10.4-8.1-16.2-17.6-16.2-30.2c0-2.6,0.5-3.7,3.4-3.7c0,0,0,0,0.1,0c0.2-4.4,1.3-4.4,7.5-4.4c0.8,0,2.4,0,2.4,0
					c3.9,0,5.4-0.8,4.8-4.7c-0.4-2.8,0.4-3.9,2.9-4.2c-2.2,0-4.5,0-6.7,0c-3.4,0-4.6,1-4.1,4.2c0.6,3.9-0.9,4.6-4.8,4.7
					c0,0-1.6,0-2.4,0c-7.4,0-7.5,0-7.5,7.5c-0.1,16.4,8,28.1,21.4,36.7C195.7,209.8,197.5,211.5,198.9,213.8z"/>
				<path class="st9" d="M200.7,202.4c-1.4-5.1-2.8-9.3-3.7-13.7c-0.9-4.5-1.6-9.1-2-13.7c-0.6-6.6-0.4-6.4-7.1-6.6
					c-1.2,0-2,0.2-2.5,0.6c1.3,0.7,1.4,2.2,1.7,6c0.4,4.6,1.1,9.2,2,13.7c0.1,0.5,0.2,0.9,0.3,1.4
					C192.1,194.6,195.9,198.7,200.7,202.4z"/>
			</g>
			<g id="ULEp4J_11_">
				<path class="st10" d="M246.7,267.4c-0.3,0-0.6,0-0.9,0c-0.3,0-0.6,0-0.9,0c-7.2,0-21.2,0-32.5,0c-8.1,0-14.5,0-15.3,0
					c-1.1-0.1-2.4-0.1-3.4-1.3c-0.1-0.1-0.1-0.3-0.1-0.4c0-0.2,0.1-0.3,0.3-0.3c1.9-0.8,3.9-1.6,5.8-2.5c5-2.1,10.1-4.3,15.2-6.4
					c2-0.8,2.7-1.8,2.6-3.9c-0.1-4.6,0-9.3,0-13.9c0-1.8,0-3.5,0.1-5.3l-0.9-1.3c-6.9-3.6-12.7-9.3-18.2-18
					c-1.4-2.2-3.1-3.9-5.3-5.3c-14.6-9.3-21.6-21.5-21.6-37.1c0-8,0.5-8,8-8c0.8,0,2.4,0,2.4,0c2.3,0,3.4-0.3,4-1
					c0.5-0.6,0.6-1.6,0.4-3.1c-0.3-1.7-0.1-2.8,0.6-3.6c0.7-0.8,1.9-1.2,4-1.2c20.2,0.2,40.9,0.2,61.6,0c1.6,0,3.4,0.1,4.3,1.2
					c0.7,0.8,0.9,2,0.6,3.7c-0.2,1.5-0.1,2.5,0.4,3.1c0.6,0.6,1.7,0.9,3.6,0.9l5.5-0.1c4.4-0.2,5.6,0.9,5.9,5.3l0,0
					c1,17.2-6.3,30.4-22.2,40.3c-2.6,1.6-4.6,3.6-6.2,6.1c-5.3,8.1-10.7,13.4-17.2,16.7l-0.7,1.3c0,1.8,0,3.6,0.1,5.3
					c0.1,4.6,0.1,9.3,0.1,14c0,2,0.6,2.9,2.4,3.6c5.1,2.1,10.3,4.3,15.3,6.5c1.9,0.8,3.9,1.7,5.8,2.5c0.1,0.1,0.3,0.2,0.3,0.4
					c0,0.2,0,0.3-0.1,0.4C249.3,267.2,247.9,267.4,246.7,267.4z M244.8,266.4c0.3,0,0.6,0,0.9,0c1.2,0,2.3,0.1,3.3-0.6
					c-1.7-0.7-3.4-1.5-5.1-2.2c-5-2.2-10.2-4.4-15.3-6.5c-2.2-0.9-3.1-2.2-3.1-4.6c0.1-4.6,0-9.4-0.1-14c0-1.8-0.1-3.6-0.1-5.5
					c0-0.1,0-0.2,0.1-0.2l0.8-1.6c0-0.1,0.1-0.2,0.2-0.2c6.4-3.3,11.8-8.5,17-16.5c1.7-2.6,3.8-4.7,6.6-6.4
					c15.6-9.7,22.7-22.6,21.7-39.4l0,0c-0.2-3.9-1-4.6-4.9-4.4l-5.6,0.1c-2.2,0-3.6-0.3-4.3-1.2c-0.7-0.8-0.9-2-0.6-3.9
					c0.2-1.4,0.1-2.3-0.4-2.9c-0.5-0.6-1.6-0.9-3.6-0.9c-20.7,0.2-41.4,0.2-61.6,0c-1.7,0-2.7,0.3-3.2,0.8c-0.5,0.5-0.6,1.4-0.4,2.8
					c0.3,1.9,0.1,3.1-0.6,3.9c-0.9,1.1-2.5,1.3-4.7,1.3c0,0-1.6,0-2.4,0c-7,0-7,0-7,7c0,15.2,6.9,27.1,21.1,36.2
					c2.4,1.5,4.2,3.3,5.6,5.7c5.4,8.6,11.1,14.2,17.9,17.7c0.1,0,0.1,0.1,0.2,0.2l1,1.5c0.1,0.1,0.1,0.2,0.1,0.3
					c0,1.8,0,3.7-0.1,5.5c-0.1,4.5-0.1,9.2,0,13.8c0.1,2.5-0.8,3.8-3.3,4.8c-5.1,2.1-10.2,4.3-15.2,6.4c-1.7,0.7-3.4,1.4-5.1,2.2
					c0.5,0.3,1.2,0.4,2.1,0.4c0.8,0,7.2,0,15.3,0C223.6,266.4,237.6,266.4,244.8,266.4C244.8,266.4,244.8,266.4,244.8,266.4z
					 M250.9,203.4c-0.3,0-0.6-0.1-0.9-0.3c-0.2-0.1-0.3-0.4-0.2-0.6c3.7-8.4,5.7-17.9,6.4-30.1c0.2-3.1,0.9-4.5,4.5-4.4
					c4.2,0.1,6.2,0.2,7.3,1.4c1,1.2,0.8,3.2,0.3,7.4c-1.4,10.3-6.5,18.7-15.7,25.7c-0.1,0.1-0.2,0.1-0.3,0.2
					C252,203,251.5,203.4,250.9,203.4z M260.4,169c-2.6,0-3,0.8-3.2,3.5c-0.7,12-2.7,21.5-6.3,29.9c0.2,0,0.4-0.2,0.8-0.5
					c0.1-0.1,0.2-0.2,0.3-0.3c9-6.8,14-15,15.3-25c0.5-3.7,0.7-5.7,0-6.6c-0.8-0.9-2.9-0.9-6.6-1C260.6,169,260.5,169,260.4,169z
					 M192.7,202.9c-0.1,0-0.2,0-0.3-0.1c-11.1-8.8-16.4-18.5-16.4-30.6l0,0c0-1.5,0.1-2.6,0.9-3.3c0.6-0.6,1.6-0.9,3.1-0.8l0.4,0
					c6.4,0.1,6.6,0.3,7.1,6.6l0,0.4c0.4,4.6,1.1,9.2,2,13.6c0.6,3,1.5,5.9,2.4,9c0.4,1.5,0.9,3,1.3,4.6c0.1,0.2,0,0.4-0.2,0.5
					C192.9,202.9,192.8,202.9,192.7,202.9z M179.8,169c-1.1,0-1.8,0.2-2.2,0.6c-0.4,0.4-0.6,1.2-0.6,2.6l0,0
					c0,11.4,4.7,20.6,14.8,28.9c-0.3-1.1-0.6-2.1-0.9-3.1c-0.9-3.1-1.8-6.1-2.4-9.1c-0.9-4.5-1.6-9.1-2-13.7l0-0.4
					c-0.5-5.6-0.5-5.6-6.1-5.7l-0.4,0C179.9,169,179.8,169,179.8,169z"/>
				<path class="st10" d="M248.7,269.1h-53.5c-1.1,0-2.1-0.9-2.1-2.1s0.9-2.1,2.1-2.1h53.5c1.1,0,2.1,0.9,2.1,2.1
					S249.8,269.1,248.7,269.1z M195.2,266c-0.6,0-1.1,0.5-1.1,1.1c0,0.6,0.5,1.1,1.1,1.1h53.5c0.6,0,1.1-0.5,1.1-1.1
					c0-0.6-0.5-1.1-1.1-1.1H195.2z"/>
			</g>
			<g id="ULEp4J_10_">
				<path class="st11" d="M339.2,119.3c-0.2-6.1-1.2-7.5-5.4-7.2l-5.5,0.1c-3.8,0.1-5-1.6-4.5-6.8c0.6-5.3-1-6.5-4.4-6.5
					c-20.5,0.3-41,0.3-61.6,0c-3.4,0-4.6,1.6-4.1,6.3c0.6,5.8-0.9,6.9-4.8,7c0,0-1.6,0-2.4,0c-7.4,0-7.5,0-7.5,11.2
					c-0.1,24.5,8,42,21.4,54.8c2.3,2.2,4,4.8,5.5,8.2c4.6,11,10.2,20.7,18.1,26.7l0,0c0.3,0.8,0.7,1.5,1,2.3
					c-0.1,9.6-0.2,19.2-0.1,28.9c0.1,3.6-0.8,5.2-2.9,6.5c-7,4.3-14,8.8-21,13.3c0.8,1.4,1.9,1.5,3,1.6c1.9,0,3.8,0.2,5.6,0.4
					c0.9-0.1,1.7-0.3,2.6-0.3c0.7,0,1.4,0,2.1,0c12.5,0,25,0,37.5,0c1.8,0,3.7,0.6,5.2-1.8c-7-4.5-14-9.1-21.1-13.4
					c-2-1.2-2.8-2.8-2.8-6.1c0.1-9.7-0.1-19.4-0.1-29.1c0.3-0.8,0.5-1.6,0.8-2.4c7.4-5.7,12.7-14.7,17.2-24.9
					c1.7-3.9,3.8-6.9,6.4-9.3C331.9,165.1,340.2,146.2,339.2,119.3z M243.4,124.2c0-3.9,0.5-5.6,3.4-5.5c6.7,0.2,6.5-0.1,7.1,9.8
					c0.4,6.8,1.1,13.7,2,20.4c0.9,6.5,2.3,12.8,3.7,20.4C249.2,157.2,243.4,143.1,243.4,124.2z M334.7,131
					c-1.4,16.1-7,28.3-15.5,37.9c-0.6,0.7-1.1,1.8-2.1,1c4.2-14.4,5.9-29.7,6.5-45.2c0.2-4.5,0.8-6.1,4-5.9
					C335.6,119,335.7,119.1,334.7,131z"/>
				<path class="st11" d="M315.5,268.3H262c-0.9,0-1.6-0.7-1.6-1.6v-1.5c0-0.9,0.7-1.6,1.6-1.6h53.5c0.9,0,1.6,0.7,1.6,1.6v1.5
					C317.1,267.6,316.4,268.3,315.5,268.3z"/>
			</g>
			<g id="ULEp4J_9_">
				<path class="st12" d="M339.2,119.3c-0.2-6.1-1.2-7.5-5.4-7.2l-5.5,0.1c-3.8,0.1-5-1.6-4.5-6.8c0.6-5.3-1-6.5-4.4-6.5
					c-20.5,0.3-41,0.3-61.6,0c-3.4,0-4.6,1.6-4.1,6.3c0.6,5.8-0.9,6.9-4.8,7c0,0-1.6,0-2.4,0c-7.4,0-7.5,0-7.5,11.2
					c-0.1,24.5,8,42,21.4,54.8c2.3,2.2,4,4.8,5.5,8.2c4.6,11,10.2,20.7,18.1,26.7l0,0c0.3,0.8,0.7,1.5,1,2.3
					c-0.1,9.6-0.2,19.2-0.1,28.9c0.1,3.6-0.8,5.2-2.9,6.5c-7,4.3-14,8.8-21,13.3c0.8,1.4,1.9,1.5,3,1.6c1.9,0,3.8,0.2,5.6,0.4
					c0.9-0.1,1.7-0.3,2.6-0.3c0.7,0,1.4,0,2.1,0c12.5,0,25,0,37.5,0c1.8,0,3.7,0.6,5.2-1.8c-7-4.5-14-9.1-21.1-13.4
					c-2-1.2-2.8-2.8-2.8-6.1c0.1-9.7-0.1-19.4-0.1-29.1c0.3-0.8,0.5-1.6,0.8-2.4c7.4-5.7,12.7-14.7,17.2-24.9
					c1.7-3.9,3.8-6.9,6.4-9.3C331.9,165.1,340.2,146.2,339.2,119.3z M243.4,124.2c0-3.9,0.5-5.6,3.4-5.5c6.7,0.2,6.5-0.1,7.1,9.8
					c0.4,6.8,1.1,13.7,2,20.4c0.9,6.5,2.3,12.8,3.7,20.4C249.2,157.2,243.4,143.1,243.4,124.2z M334.7,131
					c-1.4,16.1-7,28.3-15.5,37.9c-0.6,0.7-1.1,1.8-2.1,1c4.2-14.4,5.9-29.7,6.5-45.2c0.2-4.5,0.8-6.1,4-5.9
					C335.6,119,335.7,119.1,334.7,131z"/>
				<path class="st12" d="M315.5,268.3H262c-0.9,0-1.6-0.7-1.6-1.6v-1.5c0-0.9,0.7-1.6,1.6-1.6h53.5c0.9,0,1.6,0.7,1.6,1.6v1.5
					C317.1,267.6,316.4,268.3,315.5,268.3z"/>
			</g>
			<g class="st13">
				<path class="st4" d="M332.9,112.2l3-0.1c-0.6-0.1-1.3-0.1-2.2-0.1l-2.4,0.1C331.9,112.2,332.4,112.2,332.9,112.2z"/>
				<path class="st4" d="M339.2,120.5c-0.9-1.5-2.9-1.6-6.9-1.8c-0.7,0-1.2,0-1.7,0.2c5,0.4,4.9,2,4,12.1
					c-1.2,13.2-5.1,23.8-11.2,32.4c-0.5,2.2-1.1,4.3-1.7,6.4c0.9,0.8,1.5-0.3,2.1-1c5.9-6.7,10.4-14.7,13.1-24.4
					C338.6,137.3,339.4,129.3,339.2,120.5z"/>
				<path class="st4" d="M320.4,99c-0.3,0-0.6,0-1,0c-9.5,0.1-19,0.2-28.4,0.2C300.7,99.1,310.5,99.1,320.4,99z"/>
				<path class="st4" d="M249.5,112.1c0.5,0,1.1,0,1.7,0c0.8,0,2.4,0,2.4,0c3.9-0.1,5.4-1.2,4.8-7c-0.4-4.3,0.5-6,3.2-6.3
					c-1.3,0-2.5,0-3.8,0c-3.4,0-4.6,1.6-4.1,6.3C254.2,110.7,252.9,112,249.5,112.1z"/>
				<path class="st4" d="M260.6,149c-0.9-6.7-1.6-13.6-2-20.4c-0.6-9.8-0.4-9.6-7.1-9.8c-0.5,0-1,0-1.3,0.2c3.3,0.4,3.3,1.8,3.8,9.6
					c0.4,6.8,1.1,13.7,2,20.4c0.5,3.9,1.3,7.8,2,11.9c1.9,3,4,5.8,6.3,8.6C262.9,161.8,261.5,155.5,260.6,149z"/>
				<path class="st4" d="M283.9,213.1L283.9,213.1c0.3,0.8,0.7,1.5,1,2.3c-0.1,9.6-0.2,19.2-0.1,28.9c0.1,3.6-0.8,5.2-2.9,6.5
					c-7,4.3-14,8.8-21,13.3c0,0,0,0.1,0.1,0.1c0.3-0.3,0.7-0.4,1.1-0.4h4c6.8-4.3,13.6-8.8,20.5-12.9c2.1-1.3,3-2.9,2.9-6.5
					c-0.1-9.6,0-19.2,0.1-28.9c-0.3-0.8-0.7-1.5-1-2.3l0,0c-7.9-6-13.5-15.7-18.1-26.7c-1.5-3.5-3.2-6-5.5-8.2
					c-10.1-9.7-17.2-22.1-20-38.1c-1-4.9-1.6-10.1-1.6-15.8c0-1.2,0.1-2.2,0.2-2.9c0.1-7.9,0.5-9,5-9.1c-0.5,0-1.5,0-2.1,0
					c-7.4,0-7.5,0-7.5,11.2c-0.1,24.5,8,42,21.4,54.8c2.3,2.2,4,4.8,5.5,8.2C270.4,197.4,276,207.1,283.9,213.1z"/>
			</g>
			<rect x="90.8" y="275.8" class="st1" width="337.6" height="7.2"/>
			<path class="st2" d="M428.4,283.5H90.8c-0.3,0-0.5-0.2-0.5-0.5v-14.4c0-0.3,0.2-0.5,0.5-0.5h337.6c0.3,0,0.5,0.2,0.5,0.5V283
				C428.9,283.2,428.6,283.5,428.4,283.5z M91.3,282.5h336.6v-13.4H91.3V282.5z"/>
			<g>
				<g>
					<path class="st14" d="M224.3,276l-10.1,42.7l8.5-4.9c1.1-0.7,2.6-0.3,3.3,0.9l4.9,8.4l8.1-38L224.3,276z"/>
				</g>
				<g>
					<path class="st14" d="M255.5,316.1l-5.3-40.1l-13.5,7.6l-1.9,3.5l3.2,34c0.1,0.5,0.4,0.9,0.8,1.2l4.8-8.5
						c0.7-1.2,2.1-1.6,3.3-0.9l8.5,4.8C255.6,317.3,255.7,316.7,255.5,316.1z"/>
				</g>
				<g>
					<path class="st15" d="M238.8,322.8c-0.1,0-0.2,0-0.3-0.1c-0.5-0.4-0.8-0.9-1-1.5l-3.2-34.1c0-0.1,0-0.2,0.1-0.3l1.9-3.5
						c0-0.1,0.1-0.1,0.2-0.2l13.5-7.6c0.1-0.1,0.3-0.1,0.5,0c0.1,0.1,0.3,0.2,0.3,0.4L256,316c0.2,0.6,0.1,1.3-0.2,1.9
						c-0.1,0.1-0.2,0.2-0.3,0.3c-0.1,0-0.3,0-0.4,0l-8.5-4.8c-0.4-0.3-1-0.3-1.4-0.2s-0.9,0.5-1.1,0.9l-4.8,8.5
						C239.2,322.7,239.1,322.8,238.8,322.8C238.9,322.8,238.9,322.8,238.8,322.8z M235.3,287.2l3.2,33.9c0,0.1,0.1,0.3,0.2,0.4
						l4.4-7.9c0.4-0.7,1-1.2,1.8-1.4c0.7-0.2,1.5-0.1,2.2,0.3l8,4.5c0-0.3,0-0.5-0.1-0.8c0,0,0,0,0-0.1l-5.2-39.4l-12.7,7.2
						L235.3,287.2z"/>
				</g>
				<g>
					<path class="st15" d="M230.9,323.5c-0.2,0-0.3-0.1-0.4-0.2l-4.9-8.4c-0.3-0.4-0.7-0.8-1.2-0.9c-0.5-0.1-1-0.1-1.4,0.2l-8.5,4.9
						c-0.2,0.1-0.4,0.1-0.5,0s-0.2-0.3-0.2-0.5l10.1-42.7c0.1-0.3,0.3-0.4,0.6-0.4c0.3,0.1,0.4,0.3,0.4,0.6l-9.8,41.6l7.5-4.3
						c0.7-0.4,1.5-0.5,2.2-0.3c0.8,0.2,1.4,0.7,1.8,1.4l4.2,7.3l5-23.3c0.1-0.3,0.3-0.4,0.6-0.4c0.3,0.1,0.4,0.3,0.4,0.6l-5.3,24.6
						C231.3,323.3,231.1,323.5,230.9,323.5C230.9,323.5,230.9,323.5,230.9,323.5z"/>
				</g>
				<g>
					<circle class="st8" cx="237.3" cy="265.7" r="21.3"/>
					<circle class="st8" cx="237.3" cy="265.7" r="21.3"/>
				</g>
				<g>
					<path class="st5" d="M237.3,287.5c-12,0-21.8-9.8-21.8-21.8c0-12,9.8-21.8,21.8-21.8c12,0,21.8,9.8,21.8,21.8
						C259.1,277.7,249.3,287.5,237.3,287.5z M237.3,244.9c-11.5,0-20.8,9.3-20.8,20.8c0,11.5,9.3,20.8,20.8,20.8
						c11.5,0,20.8-9.3,20.8-20.8C258.1,254.2,248.8,244.9,237.3,244.9z"/>
					<path class="st5" d="M237.3,287.5c-12,0-21.8-9.8-21.8-21.8c0-12,9.8-21.8,21.8-21.8c12,0,21.8,9.8,21.8,21.8
						C259.1,277.7,249.3,287.5,237.3,287.5z M237.3,244.9c-11.5,0-20.8,9.3-20.8,20.8c0,11.5,9.3,20.8,20.8,20.8
						c11.5,0,20.8-9.3,20.8-20.8C258.1,254.2,248.8,244.9,237.3,244.9z"/>
				</g>
				<g>
					<path class="st5" d="M230.2,274.7v-2.9c0-2.9,2.1-5.1,6.2-6.5c1.1-0.4,1.8-0.7,2.1-1c0.3-0.3,0.5-0.8,0.5-1.6
						c0-0.7-0.1-1.2-0.3-1.5c-0.3-0.5-1-0.8-2-0.8c-1.4,0-2.1,1-2.1,2.9h-4c0-2.2,0.7-3.9,2.2-5c1.2-0.9,2.5-1.4,4-1.4
						c4.3,0,6.4,2,6.4,5.9c0,1.7-0.4,2.9-1.1,3.8c-0.5,0.7-1.6,1.4-3,2.2c-0.8,0.3-2,0.8-3.4,1.4c-0.7,0.3-1.1,0.6-1.2,1h6.9V270
						h2.5v4.6H230.2z"/>
				</g>
			</g>
			<g>
				<rect x="269.9" y="59.4" class="st4" width="38.5" height="29.7"/>
				<path class="st6" d="M308.3,89.5h-38.5c-0.3,0-0.5-0.2-0.5-0.5V59.4c0-0.3,0.2-0.5,0.5-0.5h38.5c0.3,0,0.5,0.2,0.5,0.5V89
					C308.8,89.3,308.6,89.5,308.3,89.5z M270.4,88.5h37.5V59.9h-37.5V88.5z"/>
			</g>
			<g>
				<path class="st2" d="M282.9,77.7c0.2,0.1,0.3,0.2,0.3,0.4c0,0.1,0,0.3-0.1,0.4c-0.1,0.1-0.2,0.2-0.4,0.3c-0.1,0.1-0.3,0.1-0.4,0
					c0,0.1-0.1,0.1-0.1,0.1c-0.1,0-0.1,0.1-0.1,0.1c-0.8,0.1-1.6,0.3-2.4,0.4s-1.6,0.3-2.4,0.4c-0.6,0-1.1-0.1-1.6-0.3
					c-0.2-0.1-0.3-0.3-0.4-0.5c-0.1-0.2-0.1-0.4-0.2-0.7c0-0.2,0-0.5,0-0.7s0.1-0.4,0.1-0.6c0.4-0.5,0.8-1,1.3-1.5
					c0.5-0.5,1-0.9,1.5-1.3c0.2-0.2,0.4-0.4,0.6-0.5c0.2-0.1,0.4-0.3,0.6-0.5c-0.2-0.1-0.5-0.1-0.8-0.1c-0.3,0-0.5,0-0.8,0.1
					s-0.5,0.1-0.7,0.2c-0.2,0.1-0.4,0.1-0.6,0.1c-0.1-0.1-0.3-0.1-0.4-0.1s-0.3,0-0.5-0.1c-0.1-0.1-0.2-0.2-0.2-0.3
					c0-0.1-0.1-0.3-0.1-0.4c0-0.1,0-0.3,0-0.4s0-0.2,0-0.3c0.1-0.1,0.1-0.2,0.2-0.3c0.1-0.1,0.1-0.2,0.2-0.3
					c0.4-0.1,0.8-0.2,1.2-0.3s0.9-0.1,1.4-0.1s0.9,0.1,1.3,0.2c0.4,0.1,0.8,0.3,1.2,0.5c0,0.2,0.1,0.4,0.3,0.5s0.3,0.2,0.5,0.3
					c0.1,0.2,0.2,0.3,0.2,0.5c0.1,0.2,0.1,0.3,0.1,0.5c-0.2,0.4-0.4,0.8-0.7,1.1s-0.6,0.6-0.9,0.8c-0.2,0.1-0.3,0.3-0.5,0.3
					c-0.2,0.1-0.3,0.2-0.5,0.3c0,0-0.1,0.1-0.1,0.1c0,0.1,0,0.1-0.1,0.1c-0.1,0.1-0.3,0.2-0.5,0.3c-0.2,0.1-0.3,0.2-0.5,0.3
					c-0.1,0.1-0.2,0.2-0.3,0.3c-0.1,0.1-0.2,0.2-0.3,0.3c0.1,0,0.3,0.1,0.4,0.1c0.1,0,0.3,0,0.4,0c0.1,0,0.3,0,0.5-0.1
					c0.2,0,0.3,0,0.5,0c0.2-0.1,0.5-0.1,0.8-0.2c0.3-0.1,0.6-0.1,0.8-0.1c0.2-0.1,0.5-0.2,0.7-0.2c0.2,0,0.4-0.1,0.6,0
					c0.1,0,0.2,0.1,0.2,0.2c0.1,0.1,0.1,0.2,0.2,0.2c0,0.1,0,0.2,0,0.2C282.9,77.5,282.9,77.6,282.9,77.7z"/>
				<path class="st2" d="M285.1,80c-0.3,0-0.6,0-0.9,0c-0.3-0.1-0.5-0.2-0.7-0.4c-0.2-0.2-0.4-0.4-0.5-0.6c-0.2-0.2-0.3-0.5-0.4-0.8
					c-0.1-0.6,0-1.1,0.1-1.5c0.1-0.5,0.3-0.9,0.5-1.3s0.4-0.8,0.7-1.1c0.2-0.3,0.5-0.7,0.7-1c0,0,0.1,0,0.1,0s0.1-0.1,0.1-0.1
					c0,0,0.1-0.1,0.1-0.1c0,0,0.1-0.1,0.1-0.1c0-0.1,0.1-0.1,0.1-0.2c0-0.1,0.1-0.1,0.1-0.1c0.1,0,0.1-0.1,0.2-0.1
					c0,0,0.1-0.1,0.1-0.2c0.1,0,0.1,0,0.2-0.1s0.1-0.1,0.2-0.1s0.1-0.1,0.1-0.1c0.1,0,0.1-0.1,0.2-0.1v-0.2c0.2-0.1,0.3-0.2,0.3-0.3
					s0.2-0.2,0.3-0.4c0.1,0,0.1,0,0.2,0c0,0,0.1,0,0.2,0c0.1-0.1,0.1-0.2,0.2-0.3c0.1-0.1,0.1-0.2,0.3-0.2c0.1,0.1,0.2,0.1,0.3,0.1
					c0.1,0,0.2,0.1,0.3,0.2c0,0.1,0,0.2,0.1,0.2c0,0.1,0.1,0.1,0.2,0.2c0.1,0,0.1,0.1,0.2,0.1c0,0.1,0.1,0.1,0.1,0.2
					c0,0,0.1,0,0.1,0c0,0,0,0,0.1,0c0,0.1,0,0.1,0,0.2c0,0,0,0.1,0,0.1s0,0.1,0.1,0.1c0,0,0,0.1,0.1,0.2c0,0.1-0.1,0.2-0.1,0.3
					c0,0.1-0.1,0.2-0.2,0.2c0,0.1,0,0.1,0.1,0.1s0.1,0,0.1,0.1c0,0.1,0,0.1,0,0.2c0.2,0.4,0.4,0.8,0.6,1.2c0.2,0.4,0.3,0.8,0.6,1.2
					c0,0.1,0,0.2,0,0.3c0,0.1,0.1,0.2,0.1,0.3c0,0.1,0.1,0.2,0.1,0.3c0,0.1,0.1,0.2,0.1,0.3c0,0.1,0,0.3,0,0.5s0,0.3-0.1,0.5
					c0,0.2-0.1,0.3-0.2,0.4s-0.2,0.2-0.3,0.3c0,0-0.1,0-0.1,0.1c-0.1,0.1-0.2,0.1-0.2,0.2s-0.2,0.2-0.3,0.3
					c-0.1,0.1-0.2,0.2-0.3,0.3c-0.1,0.1-0.2,0.1-0.3,0.1c-0.1,0-0.2,0.1-0.4,0.1c-0.1,0.1-0.2,0.1-0.3,0.2s-0.3,0.1-0.4,0.2
					c-0.1,0-0.3,0.1-0.4,0.1c-0.1,0-0.3,0-0.4,0c-0.3,0.1-0.5,0.2-0.8,0.2C285.7,80.1,285.4,80.1,285.1,80z M285.4,75.4
					c-0.1,0.2-0.1,0.4-0.2,0.5c-0.1,0.2-0.2,0.3-0.3,0.5c-0.1,0.2-0.2,0.3-0.2,0.5c-0.1,0.2-0.1,0.4-0.1,0.6
					c0.1,0.1,0.3,0.2,0.5,0.3c0.2,0,0.4,0,0.6,0c0.2,0,0.4-0.1,0.6-0.1s0.4-0.1,0.5-0.1c0-0.1,0-0.1,0.1-0.1c0.3,0,0.5-0.1,0.8-0.3
					c0.2-0.2,0.5-0.3,0.7-0.5c0-0.1,0.1-0.2,0.1-0.3c0.1-0.1,0.1-0.2,0.1-0.3c0-0.1-0.1-0.2-0.1-0.2s0-0.1,0-0.2
					c-0.2-0.3-0.3-0.6-0.4-1c-0.1-0.4-0.3-0.7-0.4-1c0,0,0,0.1-0.1,0.1s-0.1,0-0.1,0c0,0.2-0.1,0.2-0.2,0.2c-0.1,0-0.2-0.1-0.3-0.1
					c-0.2,0.2-0.4,0.5-0.7,0.7s-0.4,0.5-0.6,0.8C285.5,75.4,285.4,75.4,285.4,75.4C285.4,75.4,285.4,75.4,285.4,75.4z"/>
				<path class="st2" d="M293,71.1c0.1,0.2,0.2,0.3,0.3,0.4c0.1,0.1,0.3,0.2,0.4,0.3c0.2,0.3,0.3,0.7,0.3,1s0.1,0.8,0.1,1.3
					c0,0.4,0,0.7-0.1,1c0,0.3-0.1,0.6-0.2,0.9c-0.1,0.3-0.2,0.6-0.3,0.9c-0.1,0.3-0.2,0.6-0.3,1c-0.1,0.1-0.2,0.3-0.3,0.5
					c-0.1,0.2-0.1,0.4,0,0.6c-0.1,0.1-0.2,0.3-0.3,0.4c-0.1,0.1-0.2,0.2-0.3,0.3c0,0-0.1-0.1-0.2-0.1c-0.1,0-0.2,0-0.2,0
					s-0.2,0-0.2,0c-0.1,0-0.1,0-0.2,0c0-0.1-0.1-0.1-0.2-0.2c-0.1-0.1-0.1-0.1-0.2-0.2c-0.1-0.1-0.1-0.2-0.1-0.2c0-0.1,0-0.2,0-0.2
					c0-0.1,0-0.1-0.1-0.1c0-0.4,0.1-0.7,0.2-1.1s0.2-0.7,0.3-1c0.1-0.3,0.2-0.7,0.4-1c0.1-0.3,0.2-0.7,0.3-1c0.1-0.3,0.1-0.7,0-1
					c0-0.3-0.1-0.7-0.3-1c0-0.1,0-0.2,0-0.3s0-0.1,0-0.2c0-0.1,0-0.1,0-0.2c0-0.1,0-0.1,0-0.2c0-0.1,0.1-0.2,0.1-0.3
					c0-0.1,0-0.2,0-0.3c0-0.1,0-0.1,0-0.1c0,0,0.1-0.1,0.1-0.1c0,0,0.1-0.1,0.1-0.1c0,0,0-0.1,0.1-0.1h0.3c0.1,0.1,0.2,0.1,0.2,0.2
					C292.8,71,292.9,71.1,293,71.1z"/>
				<path class="st2" d="M301.1,71c0.2,0.1,0.3,0.3,0.4,0.5c0.1,0.2,0.2,0.4,0.3,0.6c0.1,0.2,0.1,0.4,0.2,0.6s0.1,0.4,0.1,0.6
					c-0.1,0.3-0.2,0.5-0.4,0.8c-0.2,0.3-0.4,0.5-0.7,0.6c-0.2,0.2-0.5,0.3-0.6,0.5c-0.2,0.1-0.4,0.2-0.7,0.3
					c-0.1,0.1-0.1,0.1-0.2,0.2c-0.1,0.1-0.1,0.1-0.2,0.2c0.1,0.4,0.3,0.7,0.4,1.1c0.1,0.4,0.2,0.8,0.3,1.2c-0.1,0.1-0.1,0.1-0.2,0.3
					c0,0.1,0,0.2,0,0.4c-0.1,0.1-0.2,0.2-0.2,0.4c0,0.1-0.1,0.2-0.2,0.3c0,0,0,0-0.1,0s-0.1,0-0.1,0c-0.1,0.1-0.2,0.1-0.3,0.2
					c-0.1,0.1-0.2,0.1-0.3,0.2c-0.2,0.1-0.4,0.1-0.6,0.1s-0.4,0-0.6-0.1c-0.2-0.1-0.4-0.1-0.5-0.2c-0.2-0.1-0.3-0.2-0.4-0.4
					c-0.1-0.2-0.2-0.3-0.2-0.5c-0.1-0.2-0.1-0.3-0.3-0.4c0-0.3-0.1-0.6-0.1-0.9c0-0.4,0-0.7,0.2-1c0-0.1,0.1-0.2,0.2-0.3
					s0.1-0.2,0.1-0.3c0,0,0.1,0,0.1,0c0,0,0,0,0.1-0.1c0-0.1,0-0.1,0-0.1c0,0,0-0.1,0-0.1c-0.1-0.2-0.2-0.3-0.4-0.5
					c-0.1-0.2-0.2-0.4-0.3-0.6c-0.1-0.2-0.1-0.4-0.1-0.6s0-0.4,0.1-0.7c0-0.1,0-0.3,0.1-0.4c0.1-0.2,0.1-0.3,0.2-0.4
					c0.1-0.1,0.2-0.3,0.3-0.4c0.1-0.1,0.2-0.2,0.4-0.3c0-0.1,0-0.1,0-0.1s0,0,0-0.1c0.1,0,0.2-0.1,0.3-0.1s0.2-0.1,0.3-0.1
					s0.2-0.1,0.3-0.1c0.1,0,0.2-0.1,0.4-0.1c0.3,0,0.5,0,0.8,0c0.3,0,0.5,0.1,0.7,0.2c0.1,0.2,0.2,0.4,0.3,0.6
					c0.1,0.2,0.2,0.3,0.3,0.4c0,0.1,0,0.2,0,0.3c0,0.1,0,0.2,0,0.3s0,0.2,0,0.3c0,0.1-0.1,0.2-0.1,0.3c0.2,0,0.3-0.1,0.4-0.2
					c0.1-0.1,0.2-0.2,0.2-0.4c0-0.1,0-0.3-0.1-0.3c-0.1-0.1-0.1-0.2-0.2-0.3c0,0,0.1-0.1,0.1-0.1c0,0,0-0.1,0-0.1s0-0.1,0-0.1
					c0,0,0-0.1,0-0.1c0,0,0.1,0,0.1,0c0,0,0,0,0.1,0c0-0.1,0-0.1,0-0.1c0,0,0,0,0-0.1c0,0,0.1-0.1,0.1-0.1c0,0,0.1,0,0.1,0
					c0-0.1-0.1-0.2,0-0.2c0-0.1,0.1-0.1,0.2-0.2c0,0,0.1,0,0.1,0C301,71,301,71,301.1,71z M298.3,77.8c0-0.1,0-0.1,0-0.1
					c0,0,0-0.1,0.1-0.1c-0.1-0.2-0.2-0.4-0.3-0.5s-0.2-0.3-0.4-0.4c-0.1,0.1-0.2,0.2-0.3,0.3c-0.1,0.1-0.1,0.2-0.1,0.3
					c0,0.1,0,0.2,0.1,0.3c0,0.1,0.1,0.2,0.2,0.3c0.1,0,0.2,0,0.3,0C298,77.9,298.1,77.9,298.3,77.8z M298,74.3
					c0.1-0.1,0.2-0.1,0.4-0.2s0.3-0.1,0.4-0.1s0.3-0.1,0.4-0.2c0.1-0.1,0.2-0.1,0.3-0.2c-0.3,0-0.6-0.1-0.7-0.2
					c-0.2-0.1-0.3-0.3-0.3-0.6c-0.1-0.1-0.2-0.1-0.4-0.1s-0.2,0-0.3,0.1c-0.1,0.1-0.2,0.1-0.2,0.2s-0.1,0.2,0,0.3c0,0,0,0.1-0.1,0.1
					c0,0-0.1,0-0.1,0.1c0.1,0.1,0.2,0.2,0.3,0.4S297.8,74.2,298,74.3z"/>
			</g>
			<g>
				<path class="st2" d="M119.9,170c0.2,0.1,0.3,0.2,0.3,0.4c0,0.2,0,0.3-0.1,0.4c-0.1,0.1-0.2,0.3-0.4,0.3c-0.2,0.1-0.3,0.1-0.4,0
					c0,0.1,0,0.1-0.1,0.1c-0.1,0-0.1,0.1-0.1,0.1c-0.8,0.2-1.7,0.4-2.5,0.7c-0.9,0.3-1.7,0.5-2.6,0.6c-0.7,0-1.2,0-1.7-0.2
					c-0.2-0.1-0.3-0.3-0.5-0.6c-0.1-0.2-0.2-0.5-0.2-0.7c0-0.3,0-0.5,0-0.8c0-0.2,0.1-0.5,0.1-0.7c0.4-0.6,0.8-1.2,1.3-1.7
					c0.5-0.6,1-1.1,1.6-1.5c0.2-0.2,0.4-0.4,0.6-0.6c0.2-0.2,0.4-0.4,0.6-0.6c-0.3-0.1-0.5-0.1-0.8-0.1c-0.3,0-0.6,0.1-0.8,0.1
					c-0.3,0.1-0.5,0.1-0.8,0.2c-0.2,0.1-0.4,0.2-0.6,0.2c-0.1-0.1-0.3-0.1-0.5-0.1c-0.2,0-0.4,0-0.6-0.1c-0.1-0.1-0.2-0.2-0.2-0.3
					c0-0.1-0.1-0.3-0.1-0.4c0-0.1,0-0.3,0-0.4c0-0.1,0-0.2-0.1-0.3c0.1-0.1,0.1-0.2,0.2-0.4c0-0.1,0.1-0.2,0.2-0.3
					c0.4-0.1,0.8-0.3,1.3-0.4c0.5-0.1,1-0.2,1.5-0.2c0.5,0,1,0,1.5,0.1c0.5,0.1,0.9,0.2,1.3,0.5c0.1,0.2,0.2,0.4,0.3,0.6
					c0.1,0.1,0.3,0.2,0.5,0.3c0.1,0.2,0.2,0.3,0.3,0.5s0.1,0.4,0.2,0.6c-0.1,0.5-0.4,0.9-0.7,1.2c-0.3,0.3-0.6,0.6-0.9,0.9
					c-0.2,0.2-0.3,0.3-0.5,0.4c-0.2,0.1-0.4,0.3-0.5,0.4c0,0,0,0.1-0.1,0.1c0,0.1,0,0.1-0.1,0.1c-0.1,0.2-0.3,0.3-0.5,0.4
					c-0.2,0.1-0.3,0.3-0.5,0.4c-0.1,0.1-0.2,0.2-0.3,0.3c-0.1,0.1-0.2,0.2-0.3,0.3c0.2,0,0.3,0.1,0.5,0c0.2,0,0.3,0,0.5-0.1
					c0.2,0,0.3-0.1,0.5-0.1c0.2,0,0.3-0.1,0.5-0.1c0.2-0.1,0.5-0.2,0.8-0.3c0.3-0.1,0.6-0.1,0.9-0.1c0.3-0.1,0.5-0.2,0.7-0.3
					c0.2-0.1,0.5-0.1,0.7-0.1c0.1,0,0.2,0.1,0.3,0.2c0.1,0.1,0.2,0.2,0.3,0.2c0,0.1,0,0.2,0,0.2C119.9,169.8,119.9,169.9,119.9,170z
					"/>
				<path class="st2" d="M122.5,172.3c-0.3,0.1-0.6,0.1-0.9,0c-0.3-0.1-0.6-0.2-0.8-0.4c-0.2-0.2-0.4-0.4-0.6-0.6
					c-0.2-0.2-0.3-0.5-0.5-0.8c-0.1-0.6-0.1-1.2-0.1-1.7c0.1-0.5,0.2-1,0.4-1.4c0.2-0.4,0.4-0.9,0.6-1.2c0.2-0.4,0.5-0.8,0.7-1.1
					c0.1,0,0.1,0,0.1,0c0,0,0.1-0.1,0.1-0.1c0,0,0.1-0.1,0.1-0.1c0,0,0.1-0.1,0.1-0.1c0-0.1,0.1-0.2,0.1-0.2c0-0.1,0.1-0.1,0.2-0.2
					c0.1-0.1,0.1-0.1,0.2-0.2c0-0.1,0.1-0.1,0.1-0.2c0.1,0,0.1-0.1,0.2-0.1c0.1-0.1,0.1-0.1,0.2-0.2c0-0.1,0.1-0.1,0.2-0.2
					s0.1-0.1,0.2-0.1l0-0.2c0.2-0.1,0.3-0.2,0.4-0.3s0.2-0.3,0.3-0.4c0.1,0,0.2,0,0.2,0c0.1,0,0.1,0,0.2,0c0.1-0.2,0.1-0.3,0.2-0.4
					c0.1-0.1,0.1-0.2,0.3-0.3c0.1,0.1,0.2,0.1,0.4,0.1s0.3,0.1,0.4,0.2c0,0.1,0.1,0.2,0.1,0.3c0.1,0.1,0.1,0.1,0.2,0.2
					c0.1,0,0.1,0.1,0.2,0.1c0.1,0.1,0.1,0.1,0.1,0.2c0,0,0.1,0,0.1,0s0,0,0.1,0c0,0.1,0,0.1,0.1,0.2c0,0,0,0.1,0.1,0.1
					c0,0,0,0.1,0.1,0.1c0,0,0,0.1,0.1,0.2c0,0.1-0.1,0.2-0.1,0.3c0,0.1-0.1,0.2-0.2,0.3c0,0.1,0,0.1,0.1,0.1c0,0,0.1,0,0.1,0.1
					c0,0.1,0,0.2,0,0.2c0.3,0.4,0.5,0.8,0.7,1.3c0.2,0.5,0.4,0.9,0.7,1.3c0,0.1,0,0.3,0,0.4c0,0.1,0.1,0.2,0.1,0.4
					c0,0.1,0.1,0.2,0.1,0.3c0,0.1,0.1,0.2,0.1,0.3c0,0.2,0,0.3,0,0.5c0,0.2,0,0.4-0.1,0.5c0,0.2-0.1,0.3-0.2,0.5
					c-0.1,0.1-0.2,0.3-0.3,0.3c0,0-0.1,0-0.1,0.1s-0.2,0.1-0.3,0.2c-0.1,0.1-0.2,0.2-0.3,0.3c-0.1,0.1-0.2,0.2-0.3,0.3
					c-0.1,0.1-0.2,0.1-0.3,0.2c-0.1,0-0.2,0.1-0.4,0.1c-0.1,0.1-0.2,0.2-0.4,0.2c-0.1,0.1-0.3,0.2-0.4,0.2c-0.1,0.1-0.3,0.1-0.4,0.2
					c-0.1,0-0.3,0.1-0.4,0c-0.3,0.1-0.5,0.2-0.8,0.3C123.2,172.4,122.9,172.4,122.5,172.3z M122.5,167.4c-0.1,0.2-0.1,0.4-0.2,0.6
					c-0.1,0.2-0.2,0.3-0.2,0.5c-0.1,0.2-0.1,0.4-0.2,0.6c-0.1,0.2-0.1,0.4-0.1,0.7c0.1,0.1,0.3,0.2,0.5,0.2c0.2,0,0.4,0,0.6,0
					c0.2,0,0.4-0.1,0.6-0.1c0.2-0.1,0.4-0.1,0.5-0.1c0-0.1,0-0.1,0.1-0.1c0.3-0.1,0.5-0.2,0.8-0.4c0.2-0.2,0.5-0.4,0.8-0.6
					c0-0.1,0.1-0.2,0.1-0.3s0.1-0.2,0.1-0.3c0-0.1-0.1-0.2-0.1-0.2c0,0,0-0.1,0-0.2c-0.2-0.3-0.4-0.7-0.5-1c-0.2-0.4-0.3-0.7-0.5-1
					c0,0,0,0.1-0.1,0.1c0,0-0.1,0-0.1,0c0,0.2-0.1,0.3-0.2,0.2c-0.1,0-0.2-0.1-0.3-0.1c-0.2,0.3-0.5,0.5-0.7,0.8
					c-0.2,0.3-0.4,0.5-0.6,0.9C122.6,167.4,122.6,167.4,122.5,167.4C122.5,167.4,122.5,167.4,122.5,167.4z"/>
				<path class="st2" d="M130.4,162.1c0.1,0.2,0.2,0.3,0.4,0.4c0.2,0.1,0.3,0.2,0.5,0.3c0.2,0.3,0.3,0.7,0.4,1.1
					c0.1,0.4,0.2,0.9,0.2,1.4c0,0.4,0,0.8,0,1.1c0,0.4-0.1,0.7-0.1,1s-0.1,0.7-0.2,1c-0.1,0.3-0.2,0.7-0.2,1.1
					c-0.1,0.1-0.2,0.3-0.2,0.6c0,0.2,0,0.5,0,0.7c-0.1,0.1-0.2,0.3-0.3,0.4c-0.1,0.1-0.2,0.3-0.4,0.4c-0.1,0-0.1-0.1-0.2-0.1
					c-0.1,0-0.2,0-0.3,0s-0.2,0-0.2,0c-0.1,0-0.1,0-0.2,0c0-0.1-0.1-0.1-0.2-0.2s-0.1-0.2-0.2-0.2c-0.1-0.1-0.1-0.2-0.1-0.2
					c0-0.1,0-0.2,0-0.2c0-0.1-0.1-0.1-0.2-0.1c0-0.4,0-0.8,0.1-1.2c0.1-0.4,0.2-0.8,0.3-1.2s0.2-0.8,0.3-1.1
					c0.1-0.4,0.2-0.7,0.2-1.1c0-0.4,0-0.7,0-1.1c-0.1-0.4-0.2-0.7-0.4-1.1c0-0.1,0-0.2,0-0.3c0-0.1,0-0.2,0-0.2c0-0.1,0-0.1,0-0.2
					c0-0.1,0-0.1-0.1-0.2c0-0.1,0.1-0.2,0.1-0.3s0-0.2,0-0.3c0-0.1,0-0.1,0-0.2c0,0,0.1-0.1,0.1-0.1c0,0,0.1-0.1,0.1-0.1
					c0,0,0-0.1,0-0.2l0.3,0c0.1,0.1,0.2,0.1,0.3,0.2C130.2,162.1,130.3,162.1,130.4,162.1z"/>
				<path class="st2" d="M138.6,167c0.1,0,0.2,0.1,0.2,0.2c0.1,0.1,0.1,0.1,0.2,0.2c0,0.2,0,0.4,0.1,0.6c0,0.2,0.1,0.4,0,0.6
					c-0.2,0.3-0.3,0.6-0.5,0.8c-0.2,0.3-0.4,0.5-0.7,0.7c0,0-0.1,0,0,0.1c0,0.1,0,0.1,0,0.1c-0.1,0-0.1,0-0.2,0.1c0,0-0.1,0-0.1,0
					c-0.1,0.1-0.2,0.1-0.3,0.2c-0.1,0.1-0.2,0.1-0.3,0.2c-0.1,0-0.1,0-0.2,0c-0.1,0-0.1,0-0.2,0.1c-0.1,0-0.1,0-0.2,0.1
					c-0.1,0-0.1,0-0.2,0c-0.3,0.2-0.6,0.3-0.9,0.4c-0.3,0.1-0.7,0.1-1.1,0.1c-0.3,0-0.5-0.1-0.7-0.2c-0.2-0.1-0.4-0.3-0.5-0.5
					c-0.1-0.2-0.2-0.5-0.3-0.7c0-0.3,0-0.6,0-0.9c0,0,0-0.1,0-0.1c0,0,0-0.1,0-0.1c0,0,0-0.1,0-0.1c0,0,0-0.1,0-0.1
					c0-0.1,0.1-0.2,0.1-0.3c0-0.1,0-0.2,0-0.3c0,0,0.1,0,0.1-0.1c0,0,0-0.1,0-0.1c0-0.1,0-0.1,0-0.1c0,0,0-0.1,0.1-0.1
					c0-0.2,0-0.5,0.1-0.7s0.1-0.4,0.2-0.6c0.1-0.2,0.2-0.4,0.3-0.6c0.1-0.2,0.2-0.4,0.3-0.6c0-0.1-0.1-0.1,0-0.1c0,0,0-0.1,0-0.2
					c0.1-0.2,0.2-0.5,0.3-0.7c0.1-0.3,0.2-0.5,0.4-0.8c0.1-0.3,0.3-0.5,0.4-0.7c0.1-0.2,0.3-0.5,0.5-0.6c0.1,0,0.3-0.1,0.4-0.2
					s0.3-0.1,0.4-0.2c0.1-0.1,0.3-0.1,0.4-0.1c0.1,0,0.3,0,0.4,0.1c0,0.1,0,0.1,0,0.2s0,0.1,0,0.1c0.1,0.1,0.2,0.2,0.3,0.3
					c0,0.2,0.1,0.3,0.1,0.5c0.1,0,0.2,0.1,0.2,0.2c0.1,0.1,0.1,0.2,0.1,0.3c-0.1,0.1-0.2,0.2-0.3,0.3s-0.2,0.2-0.3,0.3
					c0,0-0.1,0-0.1,0c-0.1,0-0.1,0-0.1,0c-0.3,0.1-0.5,0.3-0.7,0.5c-0.2,0.2-0.3,0.4-0.5,0.7c-0.1,0.2-0.2,0.5-0.3,0.8
					c-0.1,0.3-0.1,0.5-0.2,0.8c-0.2,0.4-0.4,0.8-0.5,1.2c-0.1,0.4-0.2,0.9-0.3,1.4c0,0.1,0.1,0.1,0.1,0.1c0.1,0,0.1,0,0.2,0
					c0.1-0.2,0.1-0.4,0.2-0.5c0-0.2,0-0.4,0-0.6c0.1-0.2,0.2-0.3,0.3-0.5c0.1-0.2,0.2-0.3,0.3-0.5c0.1-0.1,0.3-0.2,0.4-0.3
					c0.1-0.1,0.2-0.2,0.3-0.2c0.1-0.1,0.2-0.1,0.4-0.2c0.1-0.1,0.3-0.1,0.5-0.2c0.2,0,0.4,0,0.5,0.1c0.2,0.1,0.3,0.1,0.4,0.2
					c0.1,0.1,0.2,0.2,0.3,0.3S138.6,166.9,138.6,167z"/>
			</g>
			<g>
				<polyline class="st7" points="293.1,54.1 278.3,54.1 278.7,56 277.9,57.7 278.9,58.4 277.9,60.6 278.3,62.7 293.1,62.7 
					278.5,62.7 293.3,62.7 292.9,60.8 293.8,59.1 292.7,58.4 293.8,56.2 293.3,54.1 278.5,54.1 				"/>
				<path class="st6" d="M293.3,63.2h-15c-0.2,0-0.4-0.2-0.5-0.4l-0.4-2c0-0.1,0-0.2,0-0.3l0.9-1.9l-0.7-0.5
					c-0.2-0.1-0.3-0.4-0.2-0.6l0.8-1.5l-0.4-1.7c0-0.1,0-0.3,0.1-0.4c0.1-0.1,0.2-0.2,0.4-0.2h15c0.2,0,0.4,0.2,0.5,0.4l0.4,2
					c0,0.1,0,0.2,0,0.3l-0.9,1.9l0.7,0.5c0.2,0.1,0.3,0.4,0.2,0.6l-0.8,1.5l0.4,1.7c0,0.1,0,0.3-0.1,0.4
					C293.6,63.1,293.5,63.2,293.3,63.2z M278.7,62.2h14l-0.3-1.2c0-0.1,0-0.2,0-0.3l0.7-1.3l-0.7-0.5c-0.2-0.1-0.3-0.4-0.2-0.6
					l1-2.1l-0.3-1.5h-14l0.3,1.2c0,0.1,0,0.2,0,0.3l-0.7,1.3l0.7,0.5c0.2,0.1,0.3,0.4,0.2,0.6l-1,2.1L278.7,62.2z"/>
			</g>
			<g id="ULEp4J_8_">
				<path class="st11" d="M313.5,266.3c-0.3,0-0.6,0-1,0c-0.3,0-0.6,0-0.9,0c-7.2,0-21.2,0-32.5-0.1c-8.1,0-14.6-0.1-15.3,0
					c-1.1-0.1-2.5-0.2-3.4-1.9c-0.1-0.2,0-0.5,0.2-0.7c1.9-1.2,3.9-2.5,5.8-3.7c5-3.2,10.1-6.5,15.2-9.6c1.8-1.1,2.8-2.4,2.7-6.1
					c-0.1-6.9,0-13.9,0-20.7c0-2.7,0.1-5.4,0.1-8.1l-0.9-2.1c-6.9-5.3-12.7-13.8-18.2-26.9c-1.4-3.3-3.1-5.9-5.4-8.1
					c-14.5-13.9-21.6-32-21.5-55.1c0-11.4,0.2-11.7,8-11.7c0.8,0,2.4,0,2.4,0c1.9,0,3-0.3,3.6-1c0.8-0.9,1-2.5,0.7-5.4
					c-0.3-2.9,0-4.6,1-5.7c0.8-0.8,1.9-1.2,3.6-1.2c20.2,0.3,40.9,0.3,61.6,0c1.3,0,2.9,0.1,4,1.2c1,1.1,1.3,2.9,1,5.8
					c-0.3,2.8-0.1,4.5,0.7,5.4c0.6,0.7,1.6,0.9,3.2,0.9l5.5-0.1c2-0.1,3.2,0.1,4.1,0.9c1.3,1.2,1.6,3.5,1.8,6.8l0,0
					c1,25.5-6.3,45.1-22.1,59.9c-2.6,2.5-4.6,5.4-6.3,9.2c-5.2,12-10.7,20-17.2,25l-0.7,2.1c0,2.7,0,5.4,0.1,8.1
					c0.1,6.8,0.1,13.9,0.1,20.9c0,3.1,0.6,4.5,2.5,5.7c5.1,3.1,10.3,6.5,15.3,9.7c1.9,1.2,3.9,2.5,5.8,3.7c0.2,0.1,0.3,0.5,0.2,0.7
					C316.2,266,314.8,266.3,313.5,266.3z M311.7,265.2c0.3,0,0.6,0,0.9,0c1.3,0.1,2.5,0.1,3.5-1.1c-1.8-1.1-3.6-2.3-5.4-3.4
					c-5-3.2-10.2-6.6-15.3-9.7c-2.2-1.3-3-3.1-3-6.5c0.1-7,0-14-0.1-20.9c0-2.7-0.1-5.5-0.1-8.2c0-0.1,0-0.1,0-0.2l0.8-2.4
					c0-0.1,0.1-0.2,0.2-0.2c6.4-4.9,11.8-12.7,17-24.7c1.7-3.9,3.8-6.9,6.5-9.5c15.6-14.6,22.8-33.9,21.8-59.1l0,0
					c-0.1-3.6-0.5-5.3-1.4-6.1c-0.7-0.6-1.7-0.8-3.4-0.7l-5.6,0.1c-1.9,0.1-3.1-0.3-4-1.2c-1-1.1-1.3-3-1-6.2c0.3-2.6,0-4.2-0.7-5
					c-0.6-0.6-1.6-0.9-3.2-0.9c-20.7,0.3-41.4,0.3-61.6,0c-1.4,0-2.3,0.3-2.9,0.9c-0.7,0.8-1,2.4-0.7,4.9c0.3,3.2,0,5-1,6.1
					c-1,1.2-2.7,1.3-4.4,1.4c0,0-1.6,0-2.4,0c-7,0-7,0-7,10.7c0,22.9,6.9,40.7,21.2,54.4c2.4,2.3,4.2,4.9,5.6,8.4
					c5.4,12.9,11.1,21.3,17.9,26.5c0.1,0,0.1,0.1,0.2,0.2l1,2.3c0,0.1,0,0.1,0,0.2c0,2.7,0,5.5-0.1,8.2c-0.1,6.8-0.1,13.8,0,20.6
					c0.1,3.6-0.8,5.5-3.2,6.9c-5.1,3.1-10.2,6.4-15.2,9.5c-1.8,1.2-3.6,2.3-5.4,3.5c0.6,0.8,1.3,0.9,2.3,1c0.8,0,7.2,0,15.3,0
					C290.5,265.2,304.4,265.2,311.7,265.2C311.7,265.2,311.7,265.2,311.7,265.2z M317.8,170.7c-0.3,0-0.7-0.1-1-0.4
					c-0.1-0.1-0.2-0.3-0.1-0.5c3.7-12.6,5.8-26.9,6.5-45c0.2-4.6,0.9-6.6,4.5-6.4c3.6,0.1,5.8,0.2,7,1.5c1.4,1.5,1.2,4.4,0.6,11.3
					l-0.5,0l0.5,0c-1.4,15.3-6.5,27.8-15.6,38.2c-0.1,0.1-0.2,0.2-0.3,0.4c-0.4,0.5-0.8,1-1.4,1.1
					C317.8,170.6,317.8,170.7,317.8,170.7z M317.7,169.6C317.7,169.6,317.7,169.7,317.7,169.6c0.3,0,0.6-0.4,0.8-0.7
					c0.1-0.1,0.2-0.3,0.3-0.4c9-10.2,14-22.5,15.4-37.6c0.6-6.4,0.8-9.3-0.3-10.5c-0.9-1-2.9-1.1-6.3-1.2c-2.7-0.1-3.3,0.9-3.5,5.5
					C323.4,142.8,321.4,157.1,317.7,169.6z M259.6,169.9c-0.1,0-0.3-0.1-0.4-0.2c-11.1-13-16.3-27.5-16.3-45.5l0,0
					c0-2.5,0.2-4.2,1.2-5.1c0.6-0.6,1.5-0.9,2.8-0.8l0.4,0c6.2,0.2,6.6,0.2,7.1,9.7l0,0.6c0.4,6.9,1.1,13.7,2,20.4
					c0.6,4.4,1.5,8.8,2.4,13.5c0.4,2.2,0.9,4.5,1.3,6.9c0,0.2-0.1,0.4-0.3,0.5C259.7,169.9,259.7,169.9,259.6,169.9z M246.6,119.3
					c-0.9,0-1.5,0.2-1.9,0.6c-0.7,0.7-0.9,2.3-0.9,4.4l0,0c0,17.1,4.8,30.9,14.9,43.4c-0.3-1.7-0.6-3.4-0.9-5
					c-0.9-4.7-1.8-9.1-2.4-13.6c-0.9-6.7-1.6-13.6-2-20.5l0-0.6c-0.5-8.6-0.5-8.6-6.1-8.8l-0.4,0
					C246.8,119.3,246.7,119.3,246.6,119.3z"/>
				<path class="st11" d="M315.5,268.8H262c-1.1,0-2.1-0.9-2.1-2.1v-1.5c0-1.1,0.9-2.1,2.1-2.1h53.5c1.1,0,2.1,0.9,2.1,2.1v1.5
					C317.6,267.9,316.7,268.8,315.5,268.8z M262,264.2c-0.6,0-1.1,0.5-1.1,1.1v1.5c0,0.6,0.5,1.1,1.1,1.1h53.5
					c0.6,0,1.1-0.5,1.1-1.1v-1.5c0-0.6-0.5-1.1-1.1-1.1H262z"/>
			</g>
			<g>
				<g>
					<g>
						<path class="st16" d="M305.9,178.3l-9.3,78.3l7.8-4.5c1.1-0.6,2.4-0.3,3,0.8l4.5,7.8l14.8-68.3L305.9,178.3z"/>
						<path class="st17" d="M312.2,262l-5.1-8.9c-0.2-0.4-0.6-0.7-1-0.8c-0.4-0.1-0.9-0.1-1.3,0.2l-8.7,5l9.5-80.1l21.8,14.6
							l-0.1,0.3L312.2,262z M305.5,251.2c0.2,0,0.5,0,0.7,0.1c0.7,0.2,1.3,0.6,1.7,1.3l3.8,6.6l14.4-66.7l-19.9-13.3l-9.1,76.5l7-4
							C304.6,251.4,305.1,251.2,305.5,251.2z"/>
					</g>
				</g>
				<g>
					<g>
						<path class="st16" d="M334.7,254.2l-4.9-75.9l-12.5,7l-1.8,3.2l3,70.2c0.1,0.5,0.4,0.8,0.7,1.1l4.4-7.8c0.6-1.1,2-1.4,3-0.8
							l7.9,4.4C334.8,255.3,334.9,254.7,334.7,254.2z"/>
						<path class="st17" d="M319.5,260.7l-0.5-0.4c-0.4-0.4-0.8-0.8-0.9-1.4l0-0.1l-3-70.4l1.9-3.5l13.3-7.5l4.9,76.6
							c0.2,0.6,0.1,1.2-0.2,1.8l-0.2,0.5l-8.3-4.7c-0.4-0.2-0.9-0.3-1.3-0.2c-0.4,0.1-0.8,0.4-1,0.8L319.5,260.7z M319.1,258.7
							c0,0.1,0.1,0.2,0.2,0.3l4.1-7.2c0.4-0.6,0.9-1.1,1.6-1.3c0.7-0.2,1.4-0.1,2.1,0.3l7.3,4.1c0-0.2,0-0.4-0.1-0.6l0-0.1
							l-4.8-75.1l-11.6,6.6l-1.7,3L319.1,258.7z"/>
					</g>
				</g>
				<g>
					<g>
						<circle class="st4" cx="317.9" cy="168.8" r="19.7"/>
						<path class="st18" d="M317.9,189c-11.1,0-20.2-9.1-20.2-20.2c0-11.1,9.1-20.2,20.2-20.2c11.1,0,20.2,9.1,20.2,20.2
							C338.1,179.9,329,189,317.9,189z M317.9,149.6c-10.6,0-19.2,8.6-19.2,19.2c0,10.6,8.6,19.2,19.2,19.2s19.2-8.6,19.2-19.2
							C337.1,158.2,328.5,149.6,317.9,149.6z"/>
					</g>
					<g>
						<circle class="st4" cx="317.9" cy="168.8" r="19.7"/>
						<path class="st18" d="M317.9,189c-11.1,0-20.2-9.1-20.2-20.2c0-11.1,9.1-20.2,20.2-20.2c11.1,0,20.2,9.1,20.2,20.2
							C338.1,179.9,329,189,317.9,189z M317.9,149.6c-10.6,0-19.2,8.6-19.2,19.2c0,10.6,8.6,19.2,19.2,19.2s19.2-8.6,19.2-19.2
							C337.1,158.2,328.5,149.6,317.9,149.6z"/>
					</g>
				</g>
				<g class="st19">
					<g>
						<circle class="st4" cx="317.9" cy="168.8" r="15.3"/>
						<path class="st18" d="M317.9,184.6c-8.7,0-15.8-7.1-15.8-15.8c0-8.7,7.1-15.8,15.8-15.8c8.7,0,15.8,7.1,15.8,15.8
							C333.7,177.5,326.6,184.6,317.9,184.6z M317.9,154c-8.2,0-14.8,6.6-14.8,14.8c0,8.1,6.6,14.8,14.8,14.8s14.8-6.6,14.8-14.8
							C332.7,160.7,326,154,317.9,154z"/>
					</g>
					<g>
						<circle class="st4" cx="317.9" cy="168.8" r="15.3"/>
						<path class="st18" d="M317.9,184.6c-8.7,0-15.8-7.1-15.8-15.8c0-8.7,7.1-15.8,15.8-15.8c8.7,0,15.8,7.1,15.8,15.8
							C333.7,177.5,326.6,184.6,317.9,184.6z M317.9,154c-8.2,0-14.8,6.6-14.8,14.8c0,8.1,6.6,14.8,14.8,14.8s14.8-6.6,14.8-14.8
							C332.7,160.7,326,154,317.9,154z"/>
					</g>
				</g>
				<g>
					<g>
						<circle class="st12" cx="317.9" cy="168.8" r="19.7"/>
						<path class="st11" d="M317.9,189.5c-11.4,0-20.7-9.3-20.7-20.7c0-11.4,9.3-20.7,20.7-20.7c11.4,0,20.7,9.3,20.7,20.7
							C338.6,180.2,329.3,189.5,317.9,189.5z M317.9,150.1c-10.3,0-18.7,8.4-18.7,18.7c0,10.3,8.4,18.7,18.7,18.7
							c10.3,0,18.7-8.4,18.7-18.7C336.6,158.5,328.2,150.1,317.9,150.1z"/>
					</g>
					<g>
						<circle class="st12" cx="317.9" cy="168.8" r="19.7"/>
						<path class="st11" d="M317.9,189.5c-11.4,0-20.7-9.3-20.7-20.7c0-11.4,9.3-20.7,20.7-20.7c11.4,0,20.7,9.3,20.7,20.7
							C338.6,180.2,329.3,189.5,317.9,189.5z M317.9,150.1c-10.3,0-18.7,8.4-18.7,18.7c0,10.3,8.4,18.7,18.7,18.7
							c10.3,0,18.7-8.4,18.7-18.7C336.6,158.5,328.2,150.1,317.9,150.1z"/>
					</g>
				</g>
				<g>
					<path class="st11" d="M324,177.6h-11.9v-3.6h3.1v-8h-3.3v-3.2c1.1-0.1,1.9-0.4,2.4-0.8c0.5-0.4,0.8-1.1,0.9-2.1h5.8v14.1h3
						V177.6z"/>
				</g>
			</g>
		</g>
	</g>
	<g>
		<g>
			<g>
				<path class="st4" d="M409.4,199.7c2.5,5.9,0.8,12.7-3.7,17.3c-8.1,8.2-28.4,47.3-28.4,47.3l18.9,23.2l-20.6,23.8l-26.4-44.2
					c0,0,30.5-58.5,43.1-70.8c5.3-5.1,14.1-3.5,17,3.2C409.3,199.6,409.4,199.7,409.4,199.7z"/>
				<path class="st20" d="M388,297l-18.2-32.7c0,0,17.6-33.9,25.7-42.3c4.5-4.6,6-11.7,3.5-17.8c0-0.1-0.1-0.2-0.1-0.2
					c-1.5-3.6-4.6-5.7-8-6.3c0.5-0.5,1-1,1.4-1.4c5.3-5.1,14.1-3.5,17,3.2c0,0.1,0.1,0.2,0.1,0.2c2.5,5.9,0.8,12.7-3.7,17.3
					c-8.1,8.2-28.4,47.3-28.4,47.3l18.9,23.2L388,297z"/>
				<g>
					<path class="st21" d="M392.3,232.5c-0.1,0-0.2,0-0.3,0l-9.6-2.9c-0.5-0.2-0.8-0.7-0.7-1.2c0.2-0.5,0.7-0.8,1.2-0.7l9.6,2.9
						c0.5,0.2,0.8,0.7,0.7,1.2C393.2,232.2,392.8,232.5,392.3,232.5z"/>
					<path class="st21" d="M365.3,256.7c-0.3,0-0.7-0.2-0.9-0.5c-0.3-0.5-0.1-1.1,0.4-1.4c7.8-4.4,17.4-3.3,17.8-3.3
						c0.5,0.1,0.9,0.6,0.9,1.1c-0.1,0.5-0.6,0.9-1.1,0.9c-0.1,0-9.3-1.1-16.5,3C365.6,256.7,365.5,256.7,365.3,256.7z"/>
					<path class="st21" d="M360.9,283c-0.2,0-0.4-0.1-0.6-0.2c-0.5-0.3-0.6-0.9-0.3-1.4c5.9-8.6,21.1-10.9,21.7-11
						c0.5-0.1,1.1,0.3,1.1,0.8c0.1,0.5-0.3,1.1-0.8,1.1c-0.1,0-15,2.3-20.4,10.2C361.6,282.8,361.3,283,360.9,283z"/>
				</g>
				<path class="st22" d="M375.6,311.9C375.6,311.9,375.5,311.9,375.6,311.9c-0.2,0-0.3-0.1-0.4-0.2l-26.4-44.2
					c-0.1-0.1-0.1-0.3,0-0.5c1.2-2.4,30.7-58.8,43.3-71c2.7-2.6,6.4-3.7,10.1-2.9c3.6,0.8,6.4,3.2,7.8,6.6l0.1,0.2c0,0,0,0.1,0,0.1
					c2.3,6,0.6,13-4.1,17.8c-7.7,7.8-26.1,43.1-27.9,46.7l18.7,22.9c0.2,0.2,0.1,0.5,0,0.6L376,311.7
					C375.9,311.8,375.7,311.9,375.6,311.9z M349.7,267.1l25.9,43.4l19.9-22.9l-18.6-22.9c-0.1-0.2-0.1-0.4-0.1-0.5
					c0.8-1.6,20.1-38.9,28.3-47.2c4.5-4.5,6-11.1,3.9-16.7c0,0,0-0.1,0-0.1l-0.1-0.2c-1.2-3.1-3.8-5.2-7-5.9
					c-3.3-0.7-6.7,0.3-9.2,2.6C380.7,208.3,351.9,263,349.7,267.1z"/>
			</g>
		</g>
		<g>
			<path class="st4" d="M507.6,201.3c-1.9,6.1,0.3,12.8,5.1,16.9c8.8,7.5,32.3,44.8,32.3,44.8l-16.8,24.7l22.5,22l22.6-46.3
				c0,0-35.3-55.8-49-66.9c-5.7-4.6-14.3-2.3-16.7,4.6C507.7,201.1,507.6,201.2,507.6,201.3z"/>
			<path class="st20" d="M537.2,296.4l15.4-34.1c0,0-20.4-32.3-29.2-39.9c-4.8-4.2-7-11.1-5-17.4c0-0.1,0.1-0.2,0.1-0.2
				c1.2-3.7,4.1-6.1,7.4-7c-0.5-0.4-1.1-0.9-1.6-1.3c-5.7-4.6-14.3-2.3-16.7,4.6c0,0.1-0.1,0.2-0.1,0.2c-1.9,6.1,0.3,12.8,5.1,16.9
				c8.8,7.5,32.3,44.8,32.3,44.8l-16.8,24.7L537.2,296.4z"/>
			<g>
				<path class="st21" d="M527.3,232.5c-0.4,0-0.8-0.2-0.9-0.6c-0.2-0.5,0.1-1.1,0.6-1.3l9.3-3.7c0.5-0.2,1.1,0,1.3,0.6
					c0.2,0.5-0.1,1.1-0.6,1.3l-9.3,3.7C527.6,232.4,527.4,232.5,527.3,232.5z"/>
				<path class="st21" d="M556.3,254.3c-0.1,0-0.3,0-0.4-0.1c-7.5-3.5-16.6-1.6-16.7-1.6c-0.5,0.1-1.1-0.2-1.2-0.8
					c-0.1-0.5,0.2-1.1,0.8-1.2c0.4-0.1,9.8-2,18,1.7c0.5,0.2,0.7,0.8,0.5,1.3C557,254.1,556.7,254.3,556.3,254.3z"/>
				<path class="st21" d="M562.9,280.1c-0.3,0-0.6-0.1-0.8-0.4c-6.1-7.4-21-8.4-21.2-8.4c-0.6,0-1-0.5-0.9-1.1c0-0.6,0.5-1,1.1-0.9
					c0.6,0,16,1.1,22.6,9.1c0.4,0.4,0.3,1.1-0.1,1.4C563.3,280,563.1,280.1,562.9,280.1z"/>
			</g>
			<path class="st22" d="M550.8,310.2c-0.1,0-0.3,0-0.3-0.1l-22.5-22c-0.2-0.2-0.2-0.4-0.1-0.6l16.7-24.4
				c-2.2-3.4-23.5-37-31.8-44.1c-5.1-4.4-7.3-11.2-5.6-17.4l0.1-0.3c1-3.5,3.7-6.1,7.2-7.2c3.6-1.1,7.4-0.3,10.3,2
				c13.5,11,47.7,64.8,49.1,67.1c0.1,0.1,0.1,0.3,0,0.5l-22.6,46.3C551.2,310,551,310.1,550.8,310.2
				C550.8,310.1,550.8,310.2,550.8,310.2z M528.9,287.6l21.7,21.2l22.1-45.4c-2.5-4-35.8-56-48.8-66.6c-2.6-2.1-6.1-2.8-9.3-1.8
				c-3.2,1-5.6,3.4-6.5,6.5l-0.1,0.2l0,0c-1.6,5.8,0.4,12.2,5.3,16.4c8.8,7.6,31.2,43.1,32.2,44.6c0.1,0.2,0.1,0.4,0,0.5
				L528.9,287.6z M507.6,201.6L507.6,201.6L507.6,201.6z"/>
		</g>
		<g>
			<g>
				<polyline class="st4" points="440.9,418.8 445.2,588 415.2,588 415.2,395.6 416.3,342.8 				"/>
				<polyline class="st4" points="485.4,418.8 491.5,588 519.3,588 515.8,492.7 				"/>
				<polygon class="st20" points="445.1,588 436.7,588 434.7,492.4 443,492.4 				"/>
				<polygon class="st20" points="519.3,588 510.9,588 508,492.4 515.8,492.7 				"/>
				<path class="st4" d="M449.4,609.8H398c-1.8,0-3.3-1.5-3.3-3.3v-15.1c0-1.8,1.5-3.3,3.3-3.3h51.4c1.8,0,3.3,1.5,3.3,3.3v15.1
					C452.7,608.3,451.2,609.8,449.4,609.8z"/>
				<path class="st23" d="M415.2,434.7v-39.1l1.1-52.8l95.4,3.2l-0.1,62.2l4.2,84.5h-27.7l-2.7-74l0,0l0,0
					c0.6-11.5-44-14.9-44.6-1.3l0.1,1.3l1.7,74h-27.4V434.7z"/>
				<path class="st24" d="M503.9,346.1l-87.6-3l-1.1,52.5v39.1v58h19.6l-1.7-74l-0.1-1.3c0.3-6.9,12.2-9.4,23.6-8.7
					c13-0.9,29.1,3.1,28.8,10h0l0,0l2.7,74H508l-4.2-84.5L503.9,346.1z"/>
				<path class="st23" d="M416.2,354.7c41,5.4,84,11.3,95.4,0l0.1-8.6l-95.4-3l0,3.7L416.2,354.7z"/>
				<path class="st20" d="M449.4,588v14.9c0,1.8-1.5,3.3-3.3,3.3h-51.4c0,0,0,0,0,0v0.2c0,1.8,1.5,3.3,3.3,3.3h51.4
					c1.8,0,3.3-1.5,3.3-3.3v-15.1C452.7,589.5,451.2,588,449.4,588z"/>
				<path class="st22" d="M449.4,610.3H398c-2.1,0-3.8-1.7-3.8-3.8v-15.1c0-2.1,1.7-3.8,3.8-3.8h51.4c2.1,0,3.8,1.7,3.8,3.8v15.1
					C453.2,608.5,451.5,610.3,449.4,610.3z M398,588.5c-1.6,0-2.8,1.3-2.8,2.8v15.1c0,1.6,1.3,2.8,2.8,2.8h51.4
					c1.6,0,2.8-1.3,2.8-2.8v-15.1c0-1.6-1.3-2.8-2.8-2.8H398z"/>
				<path class="st4" d="M526.2,609.8h-38.1c-1.6,0-2.9-1.3-2.9-2.9v-16c0-1.6,1.3-2.9,2.9-2.9h38.1c1.6,0,2.9,1.3,2.9,2.9v16
					C529.1,608.5,527.8,609.8,526.2,609.8z"/>
				<path class="st20" d="M526.6,588v14.9c0,1.8-1.1,3.3-2.5,3.3h-38.8c0,0,0,0,0,0v0.2c0,1.8,1.1,3.3,2.5,3.3h38.8
					c1.4,0,2.5-1.5,2.5-3.3v-15.1C529.1,589.5,528,588,526.6,588z"/>
				<path class="st22" d="M526.2,610.3h-38.1c-1.9,0-3.4-1.5-3.4-3.4v-16c0-1.9,1.5-3.4,3.4-3.4h38.1c1.9,0,3.4,1.5,3.4,3.4v16
					C529.6,608.7,528.1,610.3,526.2,610.3z M488.1,588.5c-1.3,0-2.4,1.1-2.4,2.4v16c0,1.3,1.1,2.4,2.4,2.4h38.1
					c1.3,0,2.4-1.1,2.4-2.4v-16c0-1.3-1.1-2.4-2.4-2.4H488.1z"/>
				<path class="st21" d="M443.1,514.8h-16.2c-0.6,0-1-0.4-1-1s0.4-1,1-1h16.2c0.6,0,1,0.4,1,1S443.6,514.8,443.1,514.8z"/>
				<path class="st21" d="M443,534.9h-16.7c-0.6,0-1-0.4-1-1s0.4-1,1-1H443c0.6,0,1,0.4,1,1S443.6,534.9,443,534.9z"/>
				<path class="st21" d="M443.3,556.9H426c-0.6,0-1-0.4-1-1s0.4-1,1-1h17.3c0.6,0,1,0.4,1,1S443.9,556.9,443.3,556.9z"/>
				<path class="st21" d="M444.6,576.5h-17.9c-0.6,0-1-0.4-1-1s0.4-1,1-1h17.9c0.6,0,1,0.4,1,1S445.1,576.5,444.6,576.5z"/>
				<path class="st21" d="M518.5,576.5h-19.9c-0.6,0-1-0.4-1-1s0.4-1,1-1h19.9c0.6,0,1,0.4,1,1S519,576.5,518.5,576.5z"/>
				<path class="st21" d="M517.1,556.9H498c-0.6,0-1-0.4-1-1s0.4-1,1-1h19.1c0.6,0,1,0.4,1,1S517.6,556.9,517.1,556.9z"/>
				<path class="st21" d="M516.4,534.9H498c-0.6,0-1-0.4-1-1s0.4-1,1-1h18.4c0.6,0,1,0.4,1,1S516.9,534.9,516.4,534.9z"/>
				<path class="st21" d="M516.1,514.8h-17.6c-0.6,0-1-0.4-1-1s0.4-1,1-1h17.6c0.6,0,1,0.4,1,1S516.7,514.8,516.1,514.8z"/>
				<path class="st22" d="M415.2,588.5c-0.3,0-0.5-0.2-0.5-0.5V395.6l1.1-52.8c0-0.3,0.2-0.5,0.5-0.5c0,0,0,0,0,0
					c0.3,0,0.5,0.2,0.5,0.5l-1.1,52.8V588C415.7,588.3,415.4,588.5,415.2,588.5z"/>
				<path class="st22" d="M519.3,588.5h-27.8c-0.3,0-0.5-0.2-0.5-0.5l-6.1-169.2c0-0.3,0.2-0.5,0.5-0.5c0.3,0,0.5,0.2,0.5,0.5
					l6.1,168.7h26.8l-3.5-94.7c0-0.3,0.2-0.5,0.5-0.5c0.3,0,0.5,0.2,0.5,0.5l3.5,95.3c0,0.1,0,0.3-0.1,0.4
					C519.5,588.4,519.4,588.5,519.3,588.5z"/>
				<path class="st22" d="M445.2,588.5c-0.3,0-0.5-0.2-0.5-0.5l-4.4-169.2c0-0.3,0.2-0.5,0.5-0.5c0.3,0,0.5,0.2,0.5,0.5l4.4,169.2
					C445.7,588.3,445.5,588.5,445.2,588.5C445.2,588.5,445.2,588.5,445.2,588.5z"/>
				<path class="st25" d="M515.8,493.2h-27.7c-0.3,0-0.5-0.2-0.5-0.5l-2.7-74c-0.2-5-11.3-10.2-26.8-9.7c-8.2,0.3-16.9,2.6-16.8,8.3
					l0.1,1.3l1.9,74c0,0.1,0,0.3-0.1,0.4c-0.1,0.1-0.2,0.2-0.4,0.2h-27.6c-0.3,0-0.5-0.2-0.5-0.5v-97.1l1.1-52.8
					c0-0.1,0.1-0.3,0.2-0.4s0.3-0.1,0.4-0.1l95.4,3.2c0.3,0,0.5,0.2,0.5,0.5l-0.1,62.2l4.2,84.4c0,0.1,0,0.3-0.1,0.4
					C516,493.2,515.9,493.2,515.8,493.2z M488.5,492.2h26.7l-4.2-83.9l0.1-61.7l-94.4-3.2l-1.1,52.3v96.6h26.6l-1.9-73.5l-0.1-1.3
					c-0.1-5.5,6.5-9,17.7-9.3c13.2-0.4,27.6,3.7,27.8,10.6L488.5,492.2z"/>
			</g>
			<rect x="449.1" y="174.3" class="st4" width="22.3" height="18.5"/>
			<path class="st20" d="M471.5,183.6c-4.4,5-14.8,6.2-22.5,0.6l0-9.9h22.3L471.5,183.6z"/>
			<path class="st21" d="M470.2,184.6h-20.2c-0.6,0-1-0.4-1-1s0.4-1,1-1h20.2c0.6,0,1,0.4,1,1S470.7,184.6,470.2,184.6z"/>
			<path class="st22" d="M471.3,193.3h-22.3c-0.3,0-0.5-0.2-0.5-0.5v-18.5c0-0.3,0.2-0.5,0.5-0.5h22.3c0.3,0,0.5,0.2,0.5,0.5v18.5
				C471.8,193.1,471.6,193.3,471.3,193.3z M449.6,192.3h21.3v-17.5h-21.3V192.3z"/>
			<polygon class="st12" points="499.7,192.8 460,271.2 420.3,192.8 392,192.8 410.4,304.8 511.3,346.8 528.1,192.8 			"/>
			<path class="st11" d="M460,271.2l-15-29.6c-17.1,1.6-48-33.4-52.8-49.1c9.3,55.9,17.7,108.2,24.3,154
				c40.7,5.7,83.6,11.6,95.1,0.3l13-122.9C505.5,280.5,476.8,235.8,460,271.2z"/>
			<polygon class="st26" points="460,271.2 420.3,192.8 499.7,192.8 			"/>
			<path class="st25" d="M460,271.7c-0.2,0-0.4-0.1-0.4-0.3l-39.7-78.4c-0.1-0.2-0.1-0.3,0-0.5s0.3-0.2,0.4-0.2h79.4
				c0.2,0,0.3,0.1,0.4,0.2s0.1,0.3,0,0.5l-39.7,78.4C460.4,271.6,460.2,271.7,460,271.7z M421.1,193.3l38.9,76.7l38.9-76.7H421.1z"
				/>
			<g>
				<path class="st24" d="M456.4,193.2c-1.3-0.9-2.9-1.8-4.5-2.5c-7.3-3.3-14.5-3-16.1,0.6c-0.4,0.9-0.4,1.8-0.1,2.9
					c0.9,3.4,1.1,7-0.1,10.3c-0.4,1.2-0.5,2.4,0,3.4c1.6,3.6,8.8,3.9,16.1,0.6c1.6-0.7,3.1-1.6,4.5-2.5c3-0.1,5.2-1.1,6.1-2.9
					c0.5-1.1,0.4-2.4-0.2-3.8c0.4-1.2,0.4-2.3,0-3.2C461.2,194.3,459.1,193.4,456.4,193.2z"/>
				<path class="st24" d="M464,192c1.3-0.9,2.9-1.8,4.5-2.5c7.3-3.3,14.5-3,16.1,0.6c0.4,0.9,0.4,1.8,0.1,2.9
					c-0.9,3.4-1.1,7,0.1,10.3c0.4,1.2,0.5,2.4,0,3.4c-1.6,3.6-8.8,3.9-16.1,0.6c-1.6-0.7-3.1-1.6-4.5-2.5c-3-0.1-5.2-1.1-6.1-2.9
					c-0.5-1.1-0.4-2.4,0.2-3.8c-0.4-1.2-0.4-2.3,0-3.2C459.2,193.1,461.3,192.2,464,192z"/>
			</g>
			<g>
				<path class="st25" d="M442.1,211.2c-0.2,0-0.4,0-0.6,0c-3.2-0.1-5.5-1.3-6.4-3.2c-0.5-1.1-0.5-2.4,0-3.7c1.1-2.9,1.1-6.3,0.1-10
					c-0.3-1.2-0.3-2.2,0.2-3.2c1.7-3.9,9.1-4.3,16.8-0.9c1.6,0.7,3.1,1.5,4.5,2.5c3,0.2,5,1.3,5.8,3.1c0.4,1,0.5,2.1,0.1,3.4
					c0.6,1.5,0.7,2.9,0.1,4c-0.9,1.9-3.1,3-6.3,3.2c-1.4,0.9-2.9,1.8-4.4,2.5C448.5,210.4,445,211.2,442.1,211.2z M442.3,188.9
					c-3,0-5.3,0.9-6,2.6c-0.3,0.7-0.4,1.6-0.1,2.5c1.1,3.9,1,7.5-0.1,10.6c-0.4,1.1-0.4,2.1,0,3c0.7,1.6,2.6,2.5,5.5,2.6
					c3,0.1,6.5-0.7,10-2.2c1.6-0.7,3.1-1.5,4.4-2.5c0.1-0.1,0.2-0.1,0.3-0.1c2.9-0.1,4.9-1,5.6-2.6c0.4-1,0.4-2.1-0.2-3.4
					c0-0.1-0.1-0.2,0-0.4c0.4-1.1,0.4-2,0-2.8c-0.7-1.5-2.5-2.4-5.1-2.6c-0.1,0-0.2,0-0.3-0.1c-1.4-0.9-2.8-1.8-4.4-2.5
					C448.4,189.6,445,188.9,442.3,188.9z"/>
				<path class="st25" d="M478.4,210c-2.9,0-6.3-0.8-9.8-2.3c-1.6-0.7-3.1-1.5-4.4-2.5c-3.2-0.1-5.5-1.2-6.3-3.2
					c-0.5-1.2-0.5-2.6,0.1-4c-0.4-1.2-0.3-2.4,0.1-3.4c0.8-1.8,2.9-2.9,5.8-3.1c1.4-0.9,2.9-1.8,4.5-2.5c7.7-3.4,15-3,16.8,0.9
					c0.4,0.9,0.5,2,0.2,3.2c-1,3.7-1,7.1,0.1,10c0.5,1.4,0.5,2.6,0,3.7C484.4,208.9,481.8,210,478.4,210z M478.1,187.7
					c-2.8,0-6.1,0.7-9.4,2.2c-1.6,0.7-3.1,1.5-4.4,2.5c-0.1,0.1-0.2,0.1-0.3,0.1c-2.7,0.2-4.5,1.1-5.1,2.6c-0.4,0.8-0.4,1.8,0,2.8
					c0,0.1,0,0.2,0,0.4c-0.6,1.3-0.6,2.4-0.2,3.4c0.7,1.6,2.7,2.5,5.6,2.6c0.1,0,0.2,0,0.3,0.1c1.3,0.9,2.8,1.8,4.4,2.5
					c6.9,3.1,14,2.9,15.5-0.4c0.4-0.9,0.4-1.9,0-3c-1.1-3.1-1.2-6.7-0.1-10.6c0.3-0.9,0.2-1.8-0.1-2.5
					C483.4,188.6,481.1,187.7,478.1,187.7z M464,192L464,192L464,192z"/>
				
					<ellipse transform="matrix(0.7071 -0.7071 0.7071 0.7071 -5.504 384.4153)" class="st24" cx="461.3" cy="198.9" rx="7.1" ry="7.1"/>
				<path class="st25" d="M461.3,206.4c-1.9,0-3.9-0.7-5.4-2.2c-3-3-3-7.8,0-10.7s7.8-3,10.7,0s3,7.8,0,10.7
					C465.2,205.7,463.2,206.4,461.3,206.4z M461.3,192.3c-1.8,0-3.4,0.7-4.6,1.9s-1.9,2.9-1.9,4.6c0,1.8,0.7,3.4,1.9,4.6
					s2.9,1.9,4.6,1.9s3.4-0.7,4.6-1.9s1.9-2.9,1.9-4.6c0-1.8-0.7-3.4-1.9-4.6S463,192.3,461.3,192.3z"/>
			</g>
			<rect x="459.7" y="271.2" class="st27" width="1" height="35.4"/>
			<circle class="st24" cx="460.2" cy="215" r="2.5"/>
			<circle class="st24" cx="460.2" cy="250.5" r="2.5"/>
			<path class="st25" d="M460.2,242.1c-0.3,0-0.5-0.2-0.5-0.5v-17.6c0-0.3,0.2-0.5,0.5-0.5s0.5,0.2,0.5,0.5v17.6
				C460.7,241.8,460.5,242.1,460.2,242.1z"/>
			<path class="st25" d="M460.2,218c-1.7,0-3-1.4-3-3s1.4-3,3-3s3,1.4,3,3S461.9,218,460.2,218z M460.2,213c-1.1,0-2,0.9-2,2
				s0.9,2,2,2c1.1,0,2-0.9,2-2S461.3,213,460.2,213z"/>
			<path class="st25" d="M460.2,253.5c-1.7,0-3-1.4-3-3c0-1.7,1.4-3,3-3s3,1.4,3,3C463.2,252.2,461.9,253.5,460.2,253.5z
				 M460.2,248.5c-1.1,0-2,0.9-2,2c0,1.1,0.9,2,2,2c1.1,0,2-0.9,2-2C462.2,249.4,461.3,248.5,460.2,248.5z"/>
			<path class="st28" d="M431.8,321.4c-3.1-2.8-7.6-5.4-11.2-8.2c-5-3.9-8.4-8.2-4.7-13.7c0.2-0.3-1.3-6.7-1.3-6.7
				c-1.2-0.4-2.4-0.7-3.6-1c0,0-0.1,0-0.1,0c0,0-0.1,0-0.1,0c-0.2,0-0.4-0.1-0.5-0.1c-0.1,0-0.1,0-0.2,0c-3.6-0.8-2.1-0.4-2.1-0.4
				l6.5,46.8c4.4,1.5,8.5,1.8,11.8,0c0,0,0,0,0,0c0.1-0.1,0.2-0.1,0.4-0.2c0,0,0,0,0,0C438.5,330.9,436.9,326,431.8,321.4z"/>
			<path class="st28" d="M497.9,320c3.1-2.8,7.6-5.4,11.2-8.2c5-3.9,8.4-8.2,4.7-13.7c-0.2-0.3,1.3-6.7,1.3-6.7
				c0.9-0.3,1.7-0.5,2.6-0.7l-5,46.7c-3.5,0.8-6.7,0.8-9.4-0.7c0,0,0,0,0,0c-0.1-0.1-0.2-0.1-0.4-0.2c0,0,0,0,0,0
				C491.3,329.5,492.8,324.5,497.9,320z"/>
			<path class="st27" d="M483,353.8c-18.2,0-41.9-3.1-65.2-6.2l-2-0.3l-0.1-0.4l-4.2-26.9l-3.3-26.1l-16.8-101.6h29.2l39.4,77.7
				l39.4-77.7h29.2l-13.7,125.4l-2.8,29.3l-0.1,0.1C507,352,496.6,353.8,483,353.8z M416.6,346.4l1.3,0.2c40.3,5.3,81.9,10.8,93.3,0
				l2.8-29l13.6-124.3H500l-40,79l-40-79h-27.4l16.6,100.4l3.3,26.1L416.6,346.4z"/>
			<g>
				<path class="st4" d="M476.5,177.4l-36.6-3c-6.9-0.6-12-6.6-11.4-13.5l9.8-119.4c0.6-6.9,6.6-12,13.5-11.4l36.6,3
					c6.9,0.6,12,6.6,11.4,13.5L490,166C489.5,172.9,483.4,178,476.5,177.4z"/>
				<path class="st4" d="M476.5,177.4l-36.6-3c-6.9-0.6-12-6.6-11.4-13.5l9.8-119.4c0.6-6.9,6.6-12,13.5-11.4l36.6,3
					c6.9,0.6,12,6.6,11.4,13.5L490,166C489.5,172.9,483.4,178,476.5,177.4z"/>
				<path class="st20" d="M488.4,33.1l-36.6-3c-6.9-0.6-12.9,4.6-13.5,11.4l-9.8,119.4c-0.6,6.9,4.6,12.9,11.4,13.5l36.6,3
					c6.9,0.6,12.9-4.6,13.5-11.4l9.8-119.4C500.4,39.7,495.3,33.6,488.4,33.1z M487.3,159.6c-0.5,6.2-5.9,10.8-12.1,10.3l-32.8-2.7
					c-6.2-0.5-10.8-5.9-10.3-12.1l8.8-107.1c0.5-6.2,5.9-10.8,12.1-10.3l32.8,2.7c6.2,0.5,10.8,5.9,10.3,12.1L487.3,159.6z"/>
				<g>
					<path class="st20" d="M499.8,46.6c0.6-6.9-4.6-12.9-11.4-13.5l-36.6-3c-6.9-0.6-12.9,4.6-13.5,11.4l-2.1,25.7
						c20.6-5.4,41-3.5,61.4,5.1L499.8,46.6z"/>
					<path class="st29" d="M436.1,67.2"/>
					<path class="st22" d="M436.1,67.7C436.1,67.7,436,67.7,436.1,67.7l-0.2,0c-0.2,0-0.4-0.2-0.5-0.5c0-0.2,0.1-0.5,0.4-0.5l0.1,0
						c0.2,0,0.4,0,0.5,0.1s0.2,0.2,0.2,0.4c0,0.1-0.1,0.3-0.2,0.4C436.3,67.7,436.2,67.7,436.1,67.7z"/>
				</g>
				<path class="st22" d="M477.6,178c-0.4,0-0.7,0-1.1,0l-36.6-3c-3.5-0.3-6.6-1.9-8.9-4.6c-2.2-2.7-3.3-6-3-9.5l9.8-119.4
					c0.6-7.2,6.9-12.5,14-11.9l36.6,3c3.5,0.3,6.6,1.9,8.9,4.6c2.2,2.7,3.3,6,3,9.5L490.5,166c-0.3,3.5-1.9,6.6-4.6,8.9
					C483.6,176.9,480.6,178,477.6,178z M450.7,30.5c-6.2,0-11.4,4.8-12,11L428.9,161c-0.3,3.2,0.7,6.3,2.8,8.8
					c2.1,2.4,5,3.9,8.2,4.2l36.6,3c3.2,0.3,6.3-0.7,8.8-2.8c2.4-2.1,3.9-5,4.2-8.2l9.8-119.4c0.3-3.2-0.7-6.3-2.8-8.8
					c-2.1-2.4-5-3.9-8.2-4.2l-36.6-3C451.4,30.5,451.1,30.5,450.7,30.5z"/>
				<path class="st22" d="M497.5,72.8c-0.1,0-0.1,0-0.2,0c-20.4-8.7-41-10.4-61.3-5c-0.3,0.1-0.5-0.1-0.6-0.4
					c-0.1-0.3,0.1-0.5,0.4-0.6c20.4-5.4,41.3-3.7,61.9,5.1c0.3,0.1,0.4,0.4,0.3,0.7C497.9,72.7,497.7,72.8,497.5,72.8z"/>
				<g>
					<polygon class="st30" points="457.6,117.5 453.5,117.2 449.4,116.9 451.8,113.5 454.1,110.2 455.8,113.8 					"/>
					<path class="st31" d="M457.6,118C457.5,118,457.5,118,457.6,118l-8.1-0.7c-0.2,0-0.3-0.1-0.4-0.3c-0.1-0.2-0.1-0.4,0-0.5
						l4.6-6.7c0.1-0.1,0.3-0.2,0.5-0.2c0.2,0,0.3,0.1,0.4,0.3l3.5,7.3c0.1,0.2,0.1,0.4,0,0.5C457.9,117.9,457.7,118,457.6,118z
						 M450.4,116.4l6.4,0.5l-2.7-5.8L450.4,116.4z"/>
				</g>
				
					<rect x="464" y="24.6" transform="matrix(8.207510e-02 -0.9966 0.9966 8.207510e-02 406.7486 491.9064)" width="12.9" height="1"/>
				<g>
					
						<ellipse transform="matrix(8.203363e-02 -0.9966 0.9966 8.203363e-02 419.7762 481.737)" class="st30" cx="471.4" cy="13" rx="5.8" ry="5.8"/>
					<path class="st31" d="M471.4,19.3c-0.2,0-0.3,0-0.5,0c-1.7-0.1-3.2-0.9-4.3-2.2c-1.1-1.3-1.6-2.9-1.5-4.6
						c0.1-1.7,0.9-3.2,2.2-4.3s2.9-1.6,4.6-1.5c1.7,0.1,3.2,0.9,4.3,2.2c1.1,1.3,1.6,2.9,1.5,4.6c-0.1,1.7-0.9,3.2-2.2,4.3
						C474.3,18.7,472.9,19.3,471.4,19.3z M471.4,7.7c-1.2,0-2.4,0.4-3.4,1.2c-1.1,0.9-1.7,2.2-1.8,3.6s0.3,2.8,1.2,3.8
						c0.9,1.1,2.2,1.7,3.6,1.8c1.4,0.1,2.8-0.3,3.8-1.2c1.1-0.9,1.7-2.2,1.8-3.6c0.2-2.9-1.9-5.4-4.8-5.7
						C471.7,7.7,471.5,7.7,471.4,7.7z"/>
				</g>
				<path class="st22" d="M467.3,92L467.3,92c0.3,0,0.5,0.1,0.8,0.1l-0.4,4.3c-0.2,1.9,1.1,3.6,2.8,4.1l-0.5,6.2
					c-0.2,2.2-2.1,3.8-4.3,3.6h0c-2.2-0.2-3.8-2.1-3.6-4.3l0.9-10.5C463.3,93.4,465.2,91.8,467.3,92z"/>
				<path class="st22" d="M444.3,90.1L444.3,90.1c0.3,0,0.5,0.1,0.8,0.1l-0.4,4.3c-0.2,1.9,1.1,3.6,2.8,4.1l-0.5,6.2
					c-0.2,2.2-2.1,3.8-4.3,3.6l0,0c-2.2-0.2-3.8-2.1-3.6-4.3l0.9-10.5C440.2,91.5,442.1,89.9,444.3,90.1z"/>
				<g>
					<polygon class="st30" points="450.3,116.9 453.8,117.2 457.4,117.5 455.9,114.3 454.4,111.1 452.3,114 					"/>
					<path class="st31" d="M457.4,118C457.4,118,457.4,118,457.4,118l-7.2-0.6c-0.2,0-0.3-0.1-0.4-0.3s-0.1-0.4,0-0.5l4.1-5.9
						c0.1-0.1,0.3-0.2,0.5-0.2c0.2,0,0.3,0.1,0.4,0.3l3,6.5c0.1,0.2,0.1,0.4,0,0.5C457.7,118,457.6,118,457.4,118z M451.2,116.5
						l5.4,0.5l-2.3-4.9L451.2,116.5z"/>
				</g>
				<path class="st22" d="M449.9,154.9c-1.5,0-3.1-0.2-4.8-0.5c-0.3-0.1-0.5-0.3-0.4-0.6c0.1-0.3,0.3-0.4,0.6-0.4
					c5.7,1.1,10.5,0.2,14.2-2.5c6.7-4.8,8-13.9,8-14c0-0.3,0.3-0.5,0.6-0.4c0.3,0,0.5,0.3,0.4,0.6c-0.1,0.4-1.4,9.6-8.4,14.6
					C457.2,153.9,453.8,154.9,449.9,154.9z"/>
				<path class="st22" d="M476,88.9c-0.1,0-0.2,0-0.3-0.1c-1.9-1.7-5.6-4.3-7.1-3.8c-0.3,0.1-0.5-0.1-0.6-0.3
					c-0.1-0.3,0.1-0.5,0.3-0.6c2.6-0.8,7.5,3.5,8.1,4.1c0.2,0.2,0.2,0.5,0,0.7C476.3,88.8,476.1,88.9,476,88.9z"/>
				<path class="st22" d="M436,85.6c-0.2,0-0.3-0.1-0.4-0.2c-0.1-0.2-0.1-0.5,0.2-0.7c0.6-0.4,6.2-3.9,8.6-2.7
					c0.2,0.1,0.3,0.4,0.2,0.7c-0.1,0.2-0.4,0.3-0.7,0.2c-1.4-0.7-5.4,1.2-7.6,2.6C436.2,85.6,436.1,85.6,436,85.6z"/>
			</g>
		</g>
		<g>
			<path class="st4" d="M424.3,318.5c-3.1-2.8-7.6-5.4-11.2-8.2c-5-3.9-8.4-8.2-4.7-13.7c0.2-0.3-1.3-6.7-1.3-6.7
				c-1.2-0.4-2.4-0.7-3.6-1c0,0-0.1,0-0.1,0c0,0-0.1,0-0.1,0c-0.2,0-0.4-0.1-0.5-0.1c-0.1,0-0.1,0-0.2,0c-3.6-0.8-6.5-1.1-6.6-1.1
				c0,0,0,0,0,0l-4.1,4.7l-16.5,19.1c0,0,29,31.6,43.5,23.8c0,0,0,0,0,0c0.1-0.1,0.2-0.1,0.4-0.2c0,0,0,0,0,0
				C430.9,328,429.4,323,424.3,318.5z"/>
			<path class="st20" d="M401.9,302.5c4.6-6.8-4.7-7.4-11.3-8.5l5.5-6.4c0,0,7.3,1.4,11.1,2.3l1.3,6.7
				c-11.2,16.1,39.2,21.4,10.9,38.4c-0.1,0.1-0.2,0.1-0.4,0.2C430.1,323.1,392.3,316.6,401.9,302.5z"/>
			<path class="st22" d="M413.8,336.9c-5.7,0-13-3.4-21.9-10.2c-9.1-6.9-16.5-15-16.6-15.1c-0.2-0.2-0.2-0.5,0-0.7
				c0.2-0.2,0.5-0.2,0.7,0c0.3,0.3,29.4,31.8,43.2,23.5c5.7-3.4,8.4-6.5,8.5-9.4c0.1-4-4.8-7.4-10-11c-6.9-4.8-14.7-10.1-9.7-17.7
				l-1.2-6.2c-5.3-1.6-10.6-2.2-10.7-2.2c-0.3,0-0.5-0.3-0.4-0.6c0-0.3,0.3-0.5,0.6-0.4c0.1,0,5.7,0.7,11.1,2.3
				c0.2,0.1,0.3,0.2,0.3,0.4l1.3,6.7c0,0.1,0,0.3-0.1,0.4c-4.6,6.8,2.1,11.5,9.3,16.5c5.5,3.8,10.6,7.3,10.5,11.9
				c-0.1,3.3-3.1,6.6-9,10.2C417.9,336.4,416,336.9,413.8,336.9z"/>
			<line class="st4" x1="396.2" y1="287.6" x2="375.6" y2="311.4"/>
			<path class="st22" d="M375.6,311.9c-0.1,0-0.2,0-0.3-0.1c-0.2-0.2-0.2-0.5-0.1-0.7l20.6-23.8c0.2-0.2,0.5-0.2,0.7-0.1
				c0.2,0.2,0.2,0.5,0.1,0.7L376,311.7C375.9,311.8,375.7,311.9,375.6,311.9z"/>
		</g>
		<g>
			<path class="st4" d="M502.8,320.9c2.9-3,7.1-6,10.5-9.2c4.7-4.3,7.7-8.9,3.5-14.1c-0.2-0.3,0.7-6.7,0.7-6.7
				c1.2-0.5,2.3-0.9,3.5-1.3c0,0,0.1,0,0.1,0c0,0,0.1,0,0.1,0c0.2-0.1,0.3-0.1,0.5-0.2c0.1,0,0.1,0,0.2-0.1c3.5-1.1,6.4-1.7,6.4-1.7
				c0,0,0,0,0,0l4.5,4.4l18.1,17.6c0,0-26.3,34-41.3,27.4c0,0,0,0,0,0c-0.1-0.1-0.3-0.1-0.4-0.2c0,0,0,0,0,0
				C497,330.9,498.1,325.8,502.8,320.9z"/>
			<path class="st20" d="M523.8,303c-5.2-6.4,4.1-7.8,10.5-9.4l-6.1-5.9c0,0-7.1,2-10.8,3.2l-0.7,6.7c12.5,15.1-37.3,24.6-7.6,39.2
				c0.1,0.1,0.3,0.1,0.4,0.2C497.5,326,534.6,316.3,523.8,303z"/>
			<path class="st22" d="M513.7,338.4c-1.8,0-3.4-0.4-4.9-1.1c-6.2-3.1-9.5-6.1-9.9-9.4c-0.5-4.5,4.3-8.5,9.4-12.7
				c6.7-5.6,13.1-10.8,7.9-17.2c-0.1-0.1-0.1-0.2-0.1-0.4l0.7-6.7c0-0.2,0.1-0.3,0.3-0.4c5.3-2.1,10.8-3.2,10.9-3.3
				c0.3-0.1,0.5,0.1,0.6,0.4c0.1,0.3-0.1,0.5-0.4,0.6c-0.1,0-5.3,1.1-10.4,3.1l-0.6,6.2c5.6,7.1-1.7,13.1-8.2,18.4
				c-4.9,4-9.5,7.9-9.1,11.9c0.3,2.9,3.4,5.7,9.3,8.6c14.4,7.1,40.8-26.7,41-27.1c0.2-0.2,0.5-0.3,0.7-0.1c0.2,0.2,0.3,0.5,0.1,0.7
				c-0.1,0.1-6.8,8.8-15.3,16.4C527,334.3,519.6,338.4,513.7,338.4z"/>
			<line class="st4" x1="528.2" y1="287.7" x2="550.8" y2="309.6"/>
			<path class="st22" d="M550.8,310.1c-0.1,0-0.3,0-0.3-0.1l-22.5-22c-0.2-0.2-0.2-0.5,0-0.7c0.2-0.2,0.5-0.2,0.7,0l22.5,22
				c0.2,0.2,0.2,0.5,0,0.7C551,310.1,550.9,310.1,550.8,310.1z"/>
		</g>
	</g>
</g>
</svg>
