<svg id="Layer_1" data-name="Layer 1" xmlns="http://www.w3.org/2000/svg" viewBox="0 0 853.32 528.43"><title>home-illustration-case-studies</title><g id="Symbols"><g id="illustrations_hero_case-studies-hero" data-name="illustrations/hero/case-studies-hero"><g id="home-illustration-case-studies"><path id="Shape" d="M303.92,383.25c-10.47,1.14-294.22-59.19-179.5-105s108.28-77.14,78-97.52c-20.82-14-73.51-5.34-52.7-54.37,10.54-24.83,90.37-16.56,113.69-32.31s-110.53-30.6-.86-61.42S656-12.3,712,16.05s67.16,87.9,29.29,97.4,28.73,32,72.12,45.36,70.58,106.34-17.23,100S743.8,309.5,743.8,309.5s204.6,84.54-45,92.58S303.92,383.25,303.92,383.25Z" transform="translate(-0.72 -0.72)" style="fill:#a9d7f3;opacity:0.5;isolation:isolate"/><path id="Shape-2" data-name="Shape" d="M298.69,186.3C296,129.66,259.13,82.6,214,82.6s-82,47.06-84.74,103.7l84.68,21.6Z" transform="translate(-0.72 -0.72)" style="fill:#fff"/><path id="Rectangle-path" d="M186.19,138H187a2.55,2.55,0,0,1,2.55,2.55v10.81A2.56,2.56,0,0,1,187,153.9h-.84a2.56,2.56,0,0,1-2.56-2.56V140.53A2.56,2.56,0,0,1,186.19,138Z" transform="translate(-0.72 -0.72)" style="fill:#40565b"/><path id="Rectangle-path-2" data-name="Rectangle-path" d="M247.86,138h.83a2.56,2.56,0,0,1,2.56,2.55v10.81a2.56,2.56,0,0,1-2.56,2.56h-.83a2.56,2.56,0,0,1-2.56-2.56V140.53A2.56,2.56,0,0,1,247.86,138Z" transform="translate(-0.72 -0.72)" style="fill:#40565b"/><path id="Shape-3" data-name="Shape" d="M171.67,382.27c-66.94-29.62-61.1-132.56-61.1-132.56H82.7s-2.91,125.67,61.1,132.56" transform="translate(-0.72 -0.72)" style="fill:#fff"/><path id="Shape-4" data-name="Shape" d="M102.36,249.71h8.22s-5.85,102.94,61.09,132.56h-8.21C99.44,375.38,102.36,249.71,102.36,249.71Z" transform="translate(-0.72 -0.72)" style="fill:#d0e4f0"/><rect id="Rectangle-path-3" data-name="Rectangle-path" x="71.08" y="203.67" width="38.79" height="45.32" style="fill:#d0e4f0"/><rect id="Rectangle-path-4" data-name="Rectangle-path" x="71.08" y="203.67" width="13.78" height="45.32" style="fill:#fff"/><path id="Shape-5" data-name="Shape" d="M110.58,250.38H71.8a.6.6,0,0,1-.6-.61V204.4a.6.6,0,0,1,.6-.61h38.78a.6.6,0,0,1,.6.61v45.31a.58.58,0,0,1-.15.47A.61.61,0,0,1,110.58,250.38ZM72.4,249.16H110V205H72.4Z" transform="translate(-0.72 -0.72)" style="fill:#40565b"/><path id="Shape-6" data-name="Shape" d="M101.16,347.25a1.23,1.23,0,0,1-.35-2.43l25-7.54a1.21,1.21,0,0,1,1.51.82,1.2,1.2,0,0,1-.81,1.51l-25,7.54A1.4,1.4,0,0,1,101.16,347.25Z" transform="translate(-0.72 -0.72)" style="fill:#c3d4e0"/><path id="Shape-7" data-name="Shape" d="M92.91,325.07a1.22,1.22,0,1,1-.28-2.42l18.8-4.52a1.22,1.22,0,0,1,1.51,1.53,1.22,1.22,0,0,1-.94.83L93.2,325Z" transform="translate(-0.72 -0.72)" style="fill:#c3d4e0"/><path id="Shape-8" data-name="Shape" d="M85.75,290.68a1.21,1.21,0,0,1-1.29-1.13,1.23,1.23,0,0,1,1.13-1.3L110.42,285a1.22,1.22,0,0,1,.32,2.42l-24.83,3.28Z" transform="translate(-0.72 -0.72)" style="fill:#c3d4e0"/><path id="Shape-9" data-name="Shape" d="M171.67,382.88h-.24c-19.22-8.5-44.53-28.91-56-77.81A220.58,220.58,0,0,1,110,250.38H83.29c0,4.48-.1,33.55,6.54,63s21.32,64.86,54,68.36a.61.61,0,0,1,.53.67.63.63,0,0,1-.67.54c-26.46-2.83-45.51-26.81-55.08-69.32-7.21-32-6.57-63.55-6.56-63.86a.62.62,0,0,1,.61-.6h27.87a.6.6,0,0,1,.6.65,217.56,217.56,0,0,0,5.44,55c6.28,26.7,21,61.75,55.31,76.94a.62.62,0,1,1-.25,1.21Z" transform="translate(-0.72 -0.72)" style="fill:#40565b"/><path id="Shape-10" data-name="Shape" d="M256.24,382.27c66.95-29.62,61.11-132.56,61.11-132.56h27.87s2.92,125.67-61.11,132.56" transform="translate(-0.72 -0.72)" style="fill:#fff"/><path id="Shape-11" data-name="Shape" d="M325.57,249.71h-8.22s5.85,102.94-61.11,132.56h8.22C328.49,375.38,325.57,249.71,325.57,249.71Z" transform="translate(-0.72 -0.72)" style="fill:#d0e4f0"/><polygon id="Rectangle-path-5" data-name="Rectangle-path" points="316.63 203.67 355.42 203.67 355.42 248.99 316.63 248.99 316.63 203.67" style="fill:#d0e4f0"/><rect id="Rectangle-path-6" data-name="Rectangle-path" x="341.63" y="203.67" width="13.78" height="45.32" style="fill:#fff"/><path id="Shape-12" data-name="Shape" d="M356.13,250.38H317.35a.61.61,0,0,1-.61-.61V204.4a.61.61,0,0,1,.61-.61h38.78a.6.6,0,0,1,.6.61v45.31a.62.62,0,0,1-.15.47A.61.61,0,0,1,356.13,250.38Zm-38.19-1.22h37.57V205H317.94Z" transform="translate(-0.72 -0.72)" style="fill:#40565b"/><path id="Shape-13" data-name="Shape" d="M326.78,347.25h-.35l-25-7.54a1.22,1.22,0,0,1,.7-2.33l25,7.54a1.22,1.22,0,0,1-.35,2.42Z" transform="translate(-0.72 -0.72)" style="fill:#c3d4e0"/><path id="Shape-14" data-name="Shape" d="M335,325.07h-.28l-18.83-4.56a1.21,1.21,0,0,1,.57-2.35l18.82,4.51a1.22,1.22,0,0,1-.28,2.43Z" transform="translate(-0.72 -0.72)" style="fill:#c3d4e0"/><path id="Shape-15" data-name="Shape" d="M342.17,290.68H342l-24.83-3.28a1.22,1.22,0,1,1,.32-2.42l24.82,3.27a1.23,1.23,0,0,1,1.14,1.3A1.22,1.22,0,0,1,342.17,290.68Z" transform="translate(-0.72 -0.72)" style="fill:#c3d4e0"/><path id="Shape-16" data-name="Shape" d="M256.24,382.88a.62.62,0,0,1-.24-1.22c19-8.38,43.94-28.54,55.3-76.94a217.06,217.06,0,0,0,5.44-55,.58.58,0,0,1,.17-.45.53.53,0,0,1,.44-.19h27.87a.61.61,0,0,1,.61.59c0,.32.65,31.87-6.56,63.86C329.7,356,310.65,380,284.18,382.83a.61.61,0,1,1-.13-1.21c18.06-1.93,42.09-15.37,54-68.37,6.63-29.43,6.59-58.5,6.55-63H318A220.82,220.82,0,0,1,312.49,305c-6.31,27-21.19,62.43-56,77.84A.75.75,0,0,1,256.24,382.88Z" transform="translate(-0.72 -0.72)" style="fill:#40565b"/><path id="Shape-17" data-name="Shape" d="M279.52,388.58H120.65a10.13,10.13,0,0,1-10-10.25V194.25a10.15,10.15,0,0,1,10-10.26L214,207.87,307.39,184a10.16,10.16,0,0,1,10,10.26V378.33a10.14,10.14,0,0,1-10,10.25Z" transform="translate(-0.72 -0.72)" style="fill:#3aa1d6"/><path id="Shape-18" data-name="Shape" d="M317.35,243.74,213.94,301.35,110.58,249.66s.06,32.4.06,38.07v90.55a10.13,10.13,0,0,0,10,10.25H307.39a10.14,10.14,0,0,0,10-10.25V243.74Z" transform="translate(-0.72 -0.72)" style="fill:#1785c8"/><path id="Shape-19" data-name="Shape" d="M201.37,83.85c-39.21,7.79-69.68,51.24-72.11,102.45L154,192.89C156.88,145.66,175.42,104.43,201.37,83.85Z" transform="translate(-0.72 -0.72)" style="fill:#d0e4f0"/><path id="Shape-20" data-name="Shape" d="M226.61,83.85c39.22,7.79,69.67,51.24,72.08,102.45L274,192.89C271.11,145.66,252.57,104.43,226.61,83.85Z" transform="translate(-0.72 -0.72)" style="fill:#d0e4f0"/><path id="Shape-21" data-name="Shape" d="M223.78,136.3H204.14a.61.61,0,1,1,0-1.21h19.64a.61.61,0,1,1,0,1.21Z" transform="translate(-0.72 -0.72)" style="fill:#a1c2d8"/><path id="Shape-22" data-name="Shape" d="M291,145.91h-.16l-26.28-7.28a.61.61,0,0,1-.44-.44.62.62,0,0,1,.77-.77l26.28,7.28a.61.61,0,1,1-.16,1.21Z" transform="translate(-0.72 -0.72)" style="fill:#a1c2d8"/><path id="Shape-23" data-name="Shape" d="M137,145.91a.61.61,0,0,1-.16-1.21l26.29-7.28a.63.63,0,0,1,.32,1.21l-26.28,7.28Z" transform="translate(-0.72 -0.72)" style="fill:#a1c2d8"/><path id="Shape-24" data-name="Shape" d="M213.94,208.47h-.15l-84.62-21.56a.59.59,0,0,1-.46-.62c1.3-27.74,10.73-53.82,26.55-73.45C171.29,93,192.15,82,214,82s42.7,10.93,58.75,30.84c15.81,19.61,25.25,45.69,26.55,73.45a.61.61,0,0,1-.47.62l-84.74,21.55Zm-84-22.63,84,21.41,84.12-21.41c-1.38-27.31-10.7-53-26.26-72.25C256.05,94,235.45,83.25,214,83.25S172,94,156.2,113.59c-15.57,19.3-24.89,44.94-26.27,72.25Z" transform="translate(-0.72 -0.72)" style="fill:#40565b"/><path id="Shape-25" data-name="Shape" d="M307.39,389.19H120.65a10.76,10.76,0,0,1-10.6-10.92v-184a10.76,10.76,0,0,1,10.6-10.92h.14l93.14,23.83,93.3-23.83h.15A10.74,10.74,0,0,1,318,194.25V378.33A10.76,10.76,0,0,1,307.39,389.19ZM120.58,184.6a9.54,9.54,0,0,0-9.32,9.71v184a9.54,9.54,0,0,0,9.39,9.71H307.39a9.54,9.54,0,0,0,9.39-9.71V194.25a9.54,9.54,0,0,0-9.32-9.71l-93.3,23.86a.51.51,0,0,1-.3,0Z" transform="translate(-0.72 -0.72)" style="fill:#164a67"/><polygon id="Shape-26" data-name="Shape" points="272.04 192.17 213.28 268.51 154.53 192.17 213.22 206.94 272.04 192.17" style="fill:#19bc9c"/><polygon id="Shape-27" data-name="Shape" points="272.04 192.17 213.28 268.51 154.53 192.17 213.24 251.67 272.04 192.17" style="fill:#109995"/><polygon id="Shape-28" data-name="Shape" points="213.28 149.82 216.76 154.5 220.23 159.17 213.28 159.17 206.31 159.17 209.8 154.5 213.28 149.82" style="fill:#f36f42"/><path id="Shape-29" data-name="Shape" d="M221,160.5H207a.61.61,0,0,1-.48-1l6.95-9.36a.65.65,0,0,1,.49-.23.63.63,0,0,1,.48.23l7,9.36a.6.6,0,0,1,.06.63.62.62,0,0,1-.55.34Zm-12.72-1.21h11.5L214,151.56Z" transform="translate(-0.72 -0.72)" style="fill:#c84a27"/><path id="Shape-30" data-name="Shape" d="M211.66,185.79a26.76,26.76,0,0,1-16.31-5.41,29.07,29.07,0,0,1-7.85-8.85.61.61,0,0,1,0-.61.61.61,0,0,1,.54-.28.62.62,0,0,1,.51.33c.39.76,9.8,18.3,31.5,12.44a.63.63,0,1,1,.32,1.22A33.52,33.52,0,0,1,211.66,185.79Z" transform="translate(-0.72 -0.72)" style="fill:#40565b"/><path id="Shape-31" data-name="Shape" d="M259.44,113.91a.59.59,0,0,1-.53-.32c-5.41-9.86-17.45-8-17.57-8a.61.61,0,0,1-.67-.82.6.6,0,0,1,.47-.39c.14,0,13-2,18.82,8.63a.61.61,0,0,1,0,.6.62.62,0,0,1-.52.3Z" transform="translate(-0.72 -0.72)" style="fill:#40565b"/><path id="Shape-32" data-name="Shape" d="M167.65,113.91a.6.6,0,0,1-.52-.3.61.61,0,0,1,0-.6c5.8-10.6,18.7-8.65,18.82-8.63a.62.62,0,0,1-.2,1.22c-.12,0-12.18-1.84-17.57,8A.61.61,0,0,1,167.65,113.91Z" transform="translate(-0.72 -0.72)" style="fill:#40565b"/><path id="Shape-33" data-name="Shape" d="M156.54,111.77a.62.62,0,0,1-.44-.18l-17-17.4a.61.61,0,0,1,.87-.85l17,17.4a.6.6,0,0,1,.12.66A.58.58,0,0,1,156.54,111.77Z" transform="translate(-0.72 -0.72)" style="fill:#40565b"/><ellipse id="Oval" cx="134.08" cy="88.89" rx="6.83" ry="7.01" style="fill:#f36f42"/><path id="Shape-34" data-name="Shape" d="M134.8,97.24a7.62,7.62,0,1,1,7.44-7.63A7.63,7.63,0,0,1,134.8,97.24Zm0-14a6.41,6.41,0,1,0,6.23,6.4A6.32,6.32,0,0,0,134.8,83.21Z" transform="translate(-0.72 -0.72)" style="fill:#c84a27"/><path id="Shape-35" data-name="Shape" d="M271,111.77a.57.57,0,0,1-.56-.37.6.6,0,0,1,.12-.66l17-17.4a.6.6,0,0,1,.86,0,.61.61,0,0,1,0,.86l-17,17.4A.58.58,0,0,1,271,111.77Z" transform="translate(-0.72 -0.72)" style="fill:#40565b"/><ellipse id="Oval-2" data-name="Oval" cx="292.05" cy="88.89" rx="6.83" ry="7.01" style="fill:#f36f42"/><path id="Shape-36" data-name="Shape" d="M292.78,97.24a7.62,7.62,0,1,1,7.44-7.63A7.62,7.62,0,0,1,292.78,97.24Zm0-14a6.41,6.41,0,1,0,6.22,6.4A6.38,6.38,0,0,0,292.78,83.21Z" transform="translate(-0.72 -0.72)" style="fill:#c84a27"/><path id="Shape-37" data-name="Shape" d="M213.94,314.29a.62.62,0,0,1-.61-.61V287.77a.61.61,0,1,1,1.22,0v25.91A.62.62,0,0,1,213.94,314.29Z" transform="translate(-0.72 -0.72)" style="fill:#164a67"/><ellipse id="Oval-3" data-name="Oval" cx="213.28" cy="316.85" rx="3.79" ry="3.88" style="fill:#1785c8"/><ellipse id="Oval-4" data-name="Oval" cx="213.28" cy="283.16" rx="3.79" ry="3.88" style="fill:#1785c8"/><path id="Shape-38" data-name="Shape" d="M214,322.06a4.49,4.49,0,1,1,4.4-4.49A4.46,4.46,0,0,1,214,322.06Zm0-7.77a3.28,3.28,0,1,0,3.19,3.27A3.26,3.26,0,0,0,214,314.29Z" transform="translate(-0.72 -0.72)" style="fill:#164a67"/><path id="Shape-39" data-name="Shape" d="M214,288.38a4.49,4.49,0,1,1,4.4-4.49A4.49,4.49,0,0,1,214,288.38Zm0-7.78a3.28,3.28,0,1,0,3.19,3.27A3.26,3.26,0,0,0,214,280.6Z" transform="translate(-0.72 -0.72)" style="fill:#164a67"/><path id="Shape-40" data-name="Shape" d="M213.94,363.38a.62.62,0,0,1-.61-.61V336.86a.61.61,0,0,1,1.22,0v25.91A.62.62,0,0,1,213.94,363.38Z" transform="translate(-0.72 -0.72)" style="fill:#164a67"/><ellipse id="Oval-5" data-name="Oval" cx="213.28" cy="365.93" rx="3.79" ry="3.88" style="fill:#1785c8"/><ellipse id="Oval-6" data-name="Oval" cx="213.28" cy="332.25" rx="3.79" ry="3.88" style="fill:#1785c8"/><path id="Shape-41" data-name="Shape" d="M214,371.15a4.49,4.49,0,1,1,4.4-4.49A4.46,4.46,0,0,1,214,371.15Zm0-7.77a3.28,3.28,0,1,0,3.19,3.27A3.26,3.26,0,0,0,214,363.38Z" transform="translate(-0.72 -0.72)" style="fill:#164a67"/><path id="Shape-42" data-name="Shape" d="M214,337.47a4.49,4.49,0,1,1,4.4-4.49A4.49,4.49,0,0,1,214,337.47Zm0-7.78a3.28,3.28,0,1,0,3.19,3.27A3.26,3.26,0,0,0,214,329.69Z" transform="translate(-0.72 -0.72)" style="fill:#164a67"/><path id="Shape-43" data-name="Shape" d="M214,269.8a.6.6,0,0,1-.48-.24l-58.81-76.31a.6.6,0,0,1,.63-.95L213.88,207l58.67-14.73a.59.59,0,0,1,.66.25.6.6,0,0,1,0,.7l-58.76,76.36A.61.61,0,0,1,214,269.8Zm-57.21-76L214,268.19l57.21-74.34-57.12,14.39a.51.51,0,0,1-.3,0Z" transform="translate(-0.72 -0.72)" style="fill:#164a67"/><path id="Shape-44" data-name="Shape" d="M243.89,120.86a16.94,16.94,0,0,0-2.35.2L231,149a24.64,24.64,0,0,0,4.2,3.7l.27.17.47.29a16.29,16.29,0,0,0,4.48,1.69l11.91-31.55A16.34,16.34,0,0,0,243.89,120.86Z" transform="translate(-0.72 -0.72)" style="fill:#3f555a;opacity:0.07000000029802322;isolation:isolate"/><path id="Shape-45" data-name="Shape" d="M255,125.24h-.14L243.32,155.1h.56a16.84,16.84,0,0,0,2.83-.27l10.13-27.7A17.13,17.13,0,0,0,255,125.24Z" transform="translate(-0.72 -0.72)" style="fill:#3f555a;opacity:0.07000000029802322;isolation:isolate"/><path id="Shape-46" data-name="Shape" d="M183.45,120.88l-11.4,29.34a17,17,0,0,0,2.63,2.15l11.17-30.74a4.34,4.34,0,0,1-.71-.71c-.46,0-.91-.07-1.38-.07Z" transform="translate(-0.72 -0.72)" style="fill:#3f555a;opacity:0.07000000029802322;isolation:isolate"/><path id="Shape-47" data-name="Shape" d="M244.23,159.63A21.64,21.64,0,1,1,265.34,138,21.4,21.4,0,0,1,244.23,159.63Zm0-42A20.43,20.43,0,1,0,264.13,138,20.37,20.37,0,0,0,244.23,117.59Z" transform="translate(-0.72 -0.72)" style="fill:#a1c2d8"/><path id="Shape-48" data-name="Shape" d="M183.79,159.63A21.64,21.64,0,1,1,204.89,138,21.4,21.4,0,0,1,183.79,159.63Zm0-42A20.43,20.43,0,1,0,203.68,138,20.38,20.38,0,0,0,183.79,117.59Z" transform="translate(-0.72 -0.72)" style="fill:#a1c2d8"/><path id="Shape-49" data-name="Shape" d="M191.39,122.77a16.32,16.32,0,0,0-2.31-1l-12.32,31.79a17,17,0,0,0,3,1.08Z" transform="translate(-0.72 -0.72)" style="fill:#3f555a;opacity:0.07000000029802322;isolation:isolate"/><path id="Shape-50" data-name="Shape" d="M157.78,270.2V259.35H143.6v10.38h-8.81V247.44c0-9.94,5.44-15.23,15.88-15.36,10.91-.15,16.12,8,16.12,17.93v20.21Zm0-21.23c0-5-1.81-8.49-7.14-8.49-5,0-7,3-7,8v3H157.8Z" transform="translate(-0.72 -0.72)" style="fill:#d0e4f0"/><polygon id="Shape-51" data-name="Shape" points="142.89 265.5 134.07 261.1 134.07 268.98 142.89 269 142.89 265.5" style="fill:#a1c2d8"/><path id="Shape-52" data-name="Shape" d="M166.83,270.84h-9a.61.61,0,0,1-.61-.61V260h-13v9.78a.64.64,0,0,1-.18.43.75.75,0,0,1-.43.18h-8.81a.6.6,0,0,1-.6-.61V247.44c0-10.3,5.7-15.78,16.49-16a15.58,15.58,0,0,1,11.6,4.26c3.32,3.28,5.13,8.35,5.13,14.28v20.21a.6.6,0,0,1-.6.61Zm-8.48-1.21h7.81V250c0-5.6-1.7-10.37-4.79-13.42a14.4,14.4,0,0,0-10.72-3.91c-10.14.14-15.29,5.1-15.29,14.76v21.65H143v-9.78a.6.6,0,0,1,.6-.61h14.18a.61.61,0,0,1,.61.61Zm-.59-17.44H143.59a.61.61,0,0,1-.61-.61v-3c0-5.68,2.57-8.58,7.62-8.64a7.31,7.31,0,0,1,5.46,1.88c1.52,1.5,2.29,3.93,2.29,7.21v2.57a.61.61,0,0,1-.61.61ZM144.19,251h13v-2c0-2.95-.66-5.09-1.94-6.35a6.15,6.15,0,0,0-4.6-1.54c-4.38,0-6.42,2.43-6.42,7.43Z" transform="translate(-0.72 -0.72)" style="fill:#164a67"/><path id="Shape-53" data-name="Shape" d="M5.21,453.93V490.8c35.75,63.86,141.48,25.67,357.46,33,135.25,4.57,316.76-17,349.39-49.26V453.93Z" transform="translate(-0.72 -0.72)" style="fill:#a9d7f3"/><path id="Shape-54" data-name="Shape" d="M108.55,529.15c-53.76,0-86.62-7.28-103.87-38.06L4.61,491V453.34H712.69v21.43l-.18.18c-15.38,15.21-63.87,28.92-136.55,38.62-67.53,9-147.25,13.06-213.27,10.82-73-2.42-133.82.28-182.72,2.43C152.89,528.08,129.18,529.15,108.55,529.15ZM5.81,490.67c23.53,41.81,77,39.39,174.09,35,48.92-2.21,109.8-4.95,182.82-2.49,130.87,4.43,315.28-16.4,348.76-48.9V454.54H5.81Z" transform="translate(-0.72 -0.72)" style="fill:#a9d7f3"/><path id="Shape-55" data-name="Shape" d="M712.11,474.5c9.07-7.28,16.37-18.27,21.06-35V415l-21.06,38.92Z" transform="translate(-0.72 -0.72)" style="fill:#a9d7f3"/><polygon id="Rectangle-path-7" data-name="Rectangle-path" points="629.41 260.19 604.63 260.19 604.63 240.43 629.41 240.43 629.41 260.19" style="fill:#fff"/><path id="Shape-56" data-name="Shape" d="M577.61,365c.36,5.83.31,10.41-.44,12.59-.93,2.73-10.13,37.51-10.13,37.51l113.83-.19c-3-8.69-12.6-36.41-14.79-43.31a69.67,69.67,0,0,1-2.43-10.68" transform="translate(-0.72 -0.72)" style="fill:#985bcd"/><path id="Shape-57" data-name="Shape" d="M592,393.46c13.74-9.71,43.18-18.88,43.18-18.88l29.17-3-87.12,6-6.06,20.72S578.25,403.29,592,393.46Z" transform="translate(-0.72 -0.72)" style="fill:#8552ba"/><polygon id="Shape-58" data-name="Shape" points="662.62 360.16 576.93 364.25 577.04 376.84 665.42 370.84 662.62 360.16" style="fill:#8552ba"/><path id="Shape-59" data-name="Shape" d="M630.92,242.27c0,2.88-3.24,10-13.32,12.14-6.6,1.38-12.21-2.33-12.21-5.21V235.12h24.78Z" transform="translate(-0.72 -0.72)" style="fill:#d0e4f0"/><path id="Shape-60" data-name="Shape" d="M671.36,384.71c6.63-4.37,8-22.52,6.17-31.78L666.14,306.2l4.17-19,12.11-12.44s19.86,78.5,20.6,88.18a45,45,0,0,1-24.72,44.64" transform="translate(-0.72 -0.72)" style="fill:#fff"/><path id="Shape-61" data-name="Shape" d="M700.76,357.39c-.6-8-14.31-63.2-19-81.95l.66-.68s19.86,78.49,20.6,88.18c2.42,32.77-22.94,40.18-22.94,40.18l-3.52-1.31C680.12,400,703,387.51,700.76,357.39Z" transform="translate(-0.72 -0.72)" style="fill:#e7f1f8"/><path id="Shape-62" data-name="Shape" d="M677.52,352.91,666.14,306.2l4.17-19,12.11-12.44,1.48,5.86L672.21,306.2l11.38,46.69c1.85,9.27,1.64,34.25-11.38,37.14l-.85-5.34C678,380.34,679.39,362.19,677.52,352.91Z" transform="translate(-0.72 -0.72)" style="fill:#e7f1f8"/><path id="Shape-63" data-name="Shape" d="M673.74,314.46a18.17,18.17,0,0,1-6.23-1.22.62.62,0,0,1-.34-.79.63.63,0,0,1,.8-.34c.07,0,7.69,3.05,12.43-1.21a.61.61,0,0,1,.81.9A10.94,10.94,0,0,1,673.74,314.46Z" transform="translate(-0.72 -0.72)" style="fill:#c3d4e0"/><path id="Shape-64" data-name="Shape" d="M680.13,338.63a16.36,16.36,0,0,1-6.85-1.47.59.59,0,0,1-.23-.79.6.6,0,0,1,.77-.29,15.32,15.32,0,0,0,14.15-1,.61.61,0,0,1,.66,1A15.61,15.61,0,0,1,680.13,338.63Z" transform="translate(-0.72 -0.72)" style="fill:#c3d4e0"/><path id="Shape-65" data-name="Shape" d="M689.5,363.5c-8,0-11.56-4.63-11.72-4.86a.61.61,0,0,1,.17-.79.6.6,0,0,1,.8.08c.16.21,4.07,5.31,13.33,4.18a.63.63,0,0,1,.56.24.61.61,0,0,1-.41,1A25,25,0,0,1,689.5,363.5Z" transform="translate(-0.72 -0.72)" style="fill:#c3d4e0"/><path id="Shape-66" data-name="Shape" d="M682.41,385.09a.53.53,0,0,1-.3-.09,21.23,21.23,0,0,1-7.19-7.19.62.62,0,0,1,.25-.8.61.61,0,0,1,.81.2,20.3,20.3,0,0,0,6.73,6.75.6.6,0,0,1,.28.68A.62.62,0,0,1,682.41,385.09Z" transform="translate(-0.72 -0.72)" style="fill:#c3d4e0"/><path id="Shape-67" data-name="Shape" d="M703,363.53a.61.61,0,0,1-.61-.56,124.77,124.77,0,0,0-2.33-12.43c-5.34-24.64-18.11-75.14-18.23-75.65a.62.62,0,1,1,1.21-.3c.13.51,12.9,51,18.25,75.68a125.67,125.67,0,0,1,2.35,12.62.63.63,0,0,1-.14.44.64.64,0,0,1-.42.22Z" transform="translate(-0.72 -0.72)" style="fill:#40565b"/><path id="Shape-68" data-name="Shape" d="M671.36,385.32a.61.61,0,0,1-.34-1.12c6.12-4,7.8-21.69,5.9-31.16l-11.36-46.67a.62.62,0,0,1,.17-.6.65.65,0,0,1,.61-.14.63.63,0,0,1,.43.45l11.38,46.69c1.77,8.8.65,27.78-6.43,32.44A.64.64,0,0,1,671.36,385.32Z" transform="translate(-0.72 -0.72)" style="fill:#40565b"/><path id="Shape-69" data-name="Shape" d="M576.8,374.86c-6.91-3.92-9.5-21.95-8.27-31.31l8.25-47.33-5.41-18.72-12.91-11.6s-14.61,79.64-14.68,89.36a45,45,0,0,0,27.62,42.88" transform="translate(-0.72 -0.72)" style="fill:#fff"/><path id="Shape-70" data-name="Shape" d="M545.64,349.56c0-8,10.08-64,13.54-83l-.72-.64s-14.61,79.63-14.68,89.35a45,45,0,0,0,27.62,42.89l1.36-5.87C569.13,390.74,545.42,379.82,545.64,349.56Z" transform="translate(-0.72 -0.72)" style="fill:#e7f1f8"/><path id="Shape-71" data-name="Shape" d="M568.54,343.55l8.26-47.33-5.42-18.72-12.91-11.6-1.07,6,13.33,24.78L562.47,344c-1.21,9.37.63,34.28,13.82,36.28l.49-5.38C569.9,371,567.31,352.93,568.54,343.55Z" transform="translate(-0.72 -0.72)" style="fill:#e7f1f8"/><path id="Shape-72" data-name="Shape" d="M568.81,305a10.53,10.53,0,0,1-6.68-2.18.61.61,0,1,1,.76-.95c5,4,12.42.47,12.49.44a.6.6,0,0,1,.81.27.61.61,0,0,1-.28.82A17.94,17.94,0,0,1,568.81,305Z" transform="translate(-0.72 -0.72)" style="fill:#c3d4e0"/><path id="Shape-73" data-name="Shape" d="M563.92,329.5a15.59,15.59,0,0,1-7.58-1.95.61.61,0,0,1,.58-1.07,15.34,15.34,0,0,0,14.19,0,.61.61,0,0,1,.62,1A16.52,16.52,0,0,1,563.92,329.5Z" transform="translate(-0.72 -0.72)" style="fill:#c3d4e0"/><path id="Shape-74" data-name="Shape" d="M555.8,355h-1.31a.61.61,0,1,1,.06-1.21c9.35.52,12.9-4.85,13.06-5.07a.61.61,0,0,1,1,.65C568.5,349.53,564.93,355,555.8,355Z" transform="translate(-0.72 -0.72)" style="fill:#c3d4e0"/><path id="Shape-75" data-name="Shape" d="M565.76,376a.6.6,0,0,1-.59-.43.59.59,0,0,1,.25-.68,20.26,20.26,0,0,0,6.27-7.18.63.63,0,0,1,.51-.38.62.62,0,0,1,.57.27.64.64,0,0,1,0,.64,21.31,21.31,0,0,1-6.69,7.67A.58.58,0,0,1,565.76,376Z" transform="translate(-0.72 -0.72)" style="fill:#c3d4e0"/><path id="Shape-76" data-name="Shape" d="M571.42,398.74h-.21c-.28-.1-28.27-10.6-28-43.47.08-9.71,14.1-86.17,14.69-89.47a.63.63,0,0,1,.4-.47.62.62,0,0,1,.6.11.61.61,0,0,1,.21.58c-.14.8-14.54,79.7-14.67,89.25-.25,32,27,42.22,27.22,42.32a.6.6,0,0,1,.48.39.64.64,0,0,1-.11.61.6.6,0,0,1-.57.21Z" transform="translate(-0.72 -0.72)" style="fill:#40565b"/><path id="Shape-77" data-name="Shape" d="M576.8,375.46a.65.65,0,0,1-.31-.08c-7.36-4.19-9.69-23.06-8.56-31.92l8.25-47.33a.61.61,0,0,1,1.21.21l-8.25,47.33c-1.21,9.56,1.59,27.06,8,30.68a.6.6,0,0,1-.3,1.12Z" transform="translate(-0.72 -0.72)" style="fill:#40565b"/><path id="Shape-78" data-name="Shape" d="M605.36,257a.61.61,0,0,1-.61-.61v-15.2a.61.61,0,1,1,1.21,0v15.22A.59.59,0,0,1,605.36,257Z" transform="translate(-0.72 -0.72)" style="fill:#40565b"/><path id="Shape-79" data-name="Shape" d="M630.14,257a.61.61,0,0,1-.61-.61v-15.2a.61.61,0,1,1,1.21,0v15.22A.59.59,0,0,1,630.14,257Z" transform="translate(-0.72 -0.72)" style="fill:#40565b"/><polyline id="Shape-80" data-name="Shape" points="586.16 176.77 566.1 178 566.1 175.98 586.16 174.74" style="fill:#d0e4f0"/><path id="Shape-81" data-name="Shape" d="M565.49,179.41a.6.6,0,0,1-.59-.49l-.4-2a.58.58,0,0,1,.11-.49.61.61,0,0,1,.44-.24l21.82-1.33a.6.6,0,0,1,.54.27.6.6,0,0,1,0,.61.59.59,0,0,1-.5.33l-21.09,1.3.16.8,20.84-1.29a.6.6,0,0,1,.45.15.62.62,0,0,1,.2.42.6.6,0,0,1-.16.44.59.59,0,0,1-.41.21Z" transform="translate(-0.72 -0.72)" style="fill:#40565b"/><ellipse id="Oval-7" data-name="Oval" cx="560.61" cy="177.91" rx="5.39" ry="5.4" style="fill:#f36f42"/><path id="Shape-82" data-name="Shape" d="M578,136l8.64,96.83a9.38,9.38,0,0,0,9.34,8.55h45.41a9.38,9.38,0,0,0,9.34-8.55L659.34,136A9.4,9.4,0,0,0,650,125.75H587.3A9.4,9.4,0,0,0,578,136Z" transform="translate(-0.72 -0.72)" style="fill:#e7f1f8"/><path id="Shape-83" data-name="Shape" d="M603.65,148.61c-6.65-3.71-16.65-4.12-24.71-1.79.59,12.08,2.75,27.55,4.85,43.69a19,19,0,0,1,5.75,1.74C608,203,630.42,215.09,651.17,218.72c1.46-16.24,3-32.29,4.34-48.55C637.41,167.54,620.67,157.15,603.65,148.61Z" transform="translate(-0.72 -0.72)" style="fill:#fff"/><path id="Shape-84" data-name="Shape" d="M627.56,220.31a.74.74,0,0,0-.74-.74,135.65,135.65,0,0,1-26.73,0,.74.74,0,0,0-.74.74.73.73,0,0,0,.51.69c1.61,2.17,5,6.94,14.54,6.91,6.54,0,11-5.17,12.53-6.89A.74.74,0,0,0,627.56,220.31Zm-26,.74a85.54,85.54,0,0,0,22.94,0c-2.42,1.86-5.37,4.07-10.09,4.09C607.33,225.15,603.67,223,601.55,221.05Z" transform="translate(-0.72 -0.72)" style="fill:#40565b"/><path id="Shape-85" data-name="Shape" d="M601.55,221.05a85.54,85.54,0,0,0,22.94,0c-2.42,1.86-5.37,5-10.09,5A17.32,17.32,0,0,1,601.55,221.05Z" transform="translate(-0.72 -0.72)" style="fill:#a1c2d8"/><polygon id="Shape-86" data-name="Shape" points="613.32 197.07 616.67 200.76 620.01 204.46 613.32 204.46 606.65 204.46 609.99 200.76 613.32 197.07" style="fill:#f36f42"/><path id="Shape-87" data-name="Shape" d="M620.73,205.79H607.4a.59.59,0,0,1-.55-.36.6.6,0,0,1,.11-.66l6.69-7.39a.6.6,0,0,1,.44-.19.62.62,0,0,1,.45.19l6.69,7.39a.6.6,0,0,1,.11.66.62.62,0,0,1-.56.36Zm-12-1.21h10.64l-5.32-5.89Z" transform="translate(-0.72 -0.72)" style="fill:#c84a27"/><path id="Shape-88" data-name="Shape" d="M594.12,198a2.55,2.55,0,0,1-1.29-.35c-1.29-.74-2-2.43-2-4.6V176.87c-1.62.22-6,.45-8.48-2.62a.61.61,0,0,1-.14-.63.6.6,0,0,1,.49-.4.58.58,0,0,1,.58.27c2.6,3.17,7.86,2.09,7.91,2.08h3a3.22,3.22,0,0,1,3.21,3.22v14.27c0,2.17-.7,3.84-2,4.58A2.68,2.68,0,0,1,594.12,198ZM592,176.79v16.27a4,4,0,0,0,1.42,3.54,1.29,1.29,0,0,0,1.39,0,3.93,3.93,0,0,0,1.37-3.52v-14.3a2,2,0,0,0-2-2Z" transform="translate(-0.72 -0.72)" style="fill:#40565b"/><path id="Shape-89" data-name="Shape" d="M635.55,198a2.55,2.55,0,0,1-1.29-.35c-1.29-.74-2-2.43-2-4.6V176.87c-1.62.22-6,.45-8.48-2.62a.6.6,0,0,1,.93-.76c2.6,3.17,7.86,2.09,7.9,2.08h3a3.22,3.22,0,0,1,3.21,3.22v14.27c0,2.17-.7,3.84-2,4.58A2.68,2.68,0,0,1,635.55,198Zm-2.12-21.22v16.27a4,4,0,0,0,1.42,3.54,1.29,1.29,0,0,0,1.39,0,4,4,0,0,0,1.37-3.52v-14.3a2,2,0,0,0-2-2Z" transform="translate(-0.72 -0.72)" style="fill:#40565b"/><path id="Shape-90" data-name="Shape" d="M632.73,176.17h2.88a2.61,2.61,0,0,1,2.59,2.61v14.27c0,5.79-5.37,5.75-5.4,0V176.77" transform="translate(-0.72 -0.72)" style="fill:#40565b"/><path id="Shape-91" data-name="Shape" d="M591.3,176.17h2.88a2.61,2.61,0,0,1,2.61,2.61v14.27c0,5.79-5.37,5.75-5.39,0V176.77" transform="translate(-0.72 -0.72)" style="fill:#40565b"/><path id="Shape-92" data-name="Shape" d="M641.36,242H596a9.93,9.93,0,0,1-10-9.11L577.38,136a10,10,0,0,1,10-10.92H650A10,10,0,0,1,660,136l-8.64,96.84A10,10,0,0,1,641.36,242Zm-62.78-106,8.64,96.83a8.73,8.73,0,0,0,8.73,8h45.41a8.72,8.72,0,0,0,8.73-8l8.7-96.83a8.78,8.78,0,0,0-8.73-9.57H587.3a8.78,8.78,0,0,0-8.73,9.57Z" transform="translate(-0.72 -0.72)" style="fill:#40565b"/><path id="Shape-93" data-name="Shape" d="M588.51,164.77a.6.6,0,0,1-.41-1.05,6.78,6.78,0,0,1,9.07-.09.61.61,0,0,1-.77,1l-.11-.1a5.59,5.59,0,0,0-7.36.13A.6.6,0,0,1,588.51,164.77Z" transform="translate(-0.72 -0.72)" style="fill:#40565b"/><path id="Shape-94" data-name="Shape" d="M631.23,164.77a.61.61,0,0,1-.57-.38.6.6,0,0,1,.16-.67,6.77,6.77,0,0,1,9.06-.09.62.62,0,0,1,.22.57.63.63,0,0,1-.38.47.61.61,0,0,1-.6-.09l-.11-.1a5.61,5.61,0,0,0-7.37.13A.57.57,0,0,1,631.23,164.77Z" transform="translate(-0.72 -0.72)" style="fill:#40565b"/><path id="Shape-95" data-name="Shape" d="M561.33,184.64a6,6,0,1,1,6-6A6,6,0,0,1,561.33,184.64Zm0-10.8a4.79,4.79,0,1,0,4.79,4.79A4.85,4.85,0,0,0,561.33,173.84Z" transform="translate(-0.72 -0.72)" style="fill:#c84a27"/><polyline id="Shape-96" data-name="Shape" points="651.3 178.34 670.76 179.69 670.76 177.48 651.3 176.13" style="fill:#d0e4f0"/><path id="Shape-97" data-name="Shape" d="M672.9,181.11,652,179.67a.57.57,0,0,1-.5-.34.59.59,0,0,1,0-.6.62.62,0,0,1,.54-.27l20.36,1.4.19-1-20.59-1.4a.61.61,0,0,1,.08-1.21l21.33,1.46a.61.61,0,0,1,.44.24.58.58,0,0,1,.11.49l-.43,2.18A.62.62,0,0,1,672.9,181.11Z" transform="translate(-0.72 -0.72)" style="fill:#40565b"/><ellipse id="Oval-8" data-name="Oval" cx="676.09" cy="178.65" rx="5.88" ry="5.89" style="fill:#f36f42"/><path id="Shape-98" data-name="Shape" d="M676.81,185.85a6.49,6.49,0,1,1,6.49-6.49A6.49,6.49,0,0,1,676.81,185.85Zm0-11.77a5.28,5.28,0,1,0,5.27,5.28A5.27,5.27,0,0,0,676.81,174.08Z" transform="translate(-0.72 -0.72)" style="fill:#c84a27"/><path id="Shape-99" data-name="Shape" d="M671.82,130.35a45.69,45.69,0,0,0-5.48-1.7A13.55,13.55,0,0,0,654,119.21a45.28,45.28,0,0,0-1.81-5.91c-4.48-11.67-12.73-19.35-18.51-17.14-3.64,1.4-5.42,6.5-5,13-6.77-.49-12.12,1.21-13.5,5-2.21,5.76,5.46,14,17.12,18.52a43.16,43.16,0,0,0,7.71,2.19l.19.17a13.53,13.53,0,0,0,10.91,11c.37,1.39.83,2.8,1.36,4.22,4.46,11.67,12.74,19.34,18.5,17.14,3.75-1.44,5.5-6.74,5-13.52,6.53.38,11.61-1.37,13-5C691.14,143.12,683.48,134.83,671.82,130.35Z" transform="translate(-0.72 -0.72)" style="fill:#f36f42"/><path id="Shape-100" data-name="Shape" d="M668.79,168.44c-5.81,0-12.84-7.29-17-17.93-.52-1.37-1-2.8-1.4-4.27a.63.63,0,0,1,.14-.57.6.6,0,0,1,.55-.18,12.95,12.95,0,0,0,14.62-16.65.61.61,0,0,1,.71-.78,46.29,46.29,0,0,1,5.55,1.72,37.69,37.69,0,0,1,14,8.95c3.41,3.64,4.64,7.35,3.49,10.36-1.4,3.64-6.24,5.71-12.94,5.48.36,7-1.65,12-5.44,13.44A6.47,6.47,0,0,1,668.79,168.44Zm-17-21.62c.32,1.12.7,2.21,1.1,3.27,4.34,11.34,12.29,18.87,17.7,16.79,3.34-1.27,5.12-6.22,4.63-12.91a.62.62,0,0,1,.17-.47.58.58,0,0,1,.46-.18c6.52.36,11.16-1.38,12.42-4.67,1-2.56-.17-5.78-3.24-9.11a36.53,36.53,0,0,0-13.53-8.62,45.1,45.1,0,0,0-4.4-1.42,14.17,14.17,0,0,1-13.76,17.42,12.29,12.29,0,0,1-1.49-.1Z" transform="translate(-0.72 -0.72)" style="fill:#c84a27"/><path id="Shape-101" data-name="Shape" d="M640.11,135.69a.61.61,0,0,1-.41-.15,44.24,44.24,0,0,1-7.65-2.19c-12.12-4.66-19.82-13.13-17.47-19.29,1.45-3.8,6.46-5.82,13.42-5.45-.24-6.73,1.79-11.54,5.47-13,3-1.22,6.69.08,10.35,3.49a37.77,37.77,0,0,1,8.92,13.94,48.27,48.27,0,0,1,1.83,6,.61.61,0,0,1-.13.52.55.55,0,0,1-.48.22h-.47A12.88,12.88,0,0,0,640.76,135a.57.57,0,0,1-.13.5.58.58,0,0,1-.46.22Zm-13.68-26c-5.59,0-9.69,1.74-10.77,4.71-2.08,5.44,5.44,13.35,16.77,17.73a42.79,42.79,0,0,0,6.94,2,13.94,13.94,0,0,1-.08-1.45,14.18,14.18,0,0,1,13.86-14.16,45.17,45.17,0,0,0-1.6-5.07A36.48,36.48,0,0,0,643,100c-3.31-3.07-6.55-4.23-9.11-3.26-3.28,1.22-5,5.91-4.65,12.44a.58.58,0,0,1-.18.47.6.6,0,0,1-.47.18c-.73-.06-1.43-.09-2.11-.09Z" transform="translate(-0.72 -0.72)" style="fill:#c84a27"/><path id="Shape-102" data-name="Shape" d="M653.43,146.92a14.17,14.17,0,1,1,14.14-14.16A14.15,14.15,0,0,1,653.43,146.92Zm0-27.12a12.95,12.95,0,1,0,12.93,12.94A12.93,12.93,0,0,0,653.43,119.8Z" transform="translate(-0.72 -0.72)" style="fill:#c84a27"/><path id="Shape-103" data-name="Shape" d="M663.78,360.89c-3.64-24.42,2.42-54.61,2.42-54.61l16.27-31.48L666.2,264.41,630,254.77c0,2.88-5.66,5.72-12.39,5.72s-12.25-2.38-12.25-5.26v1.14s-31.59,5.4-39.8,7l-6.86,2.32,11.95,49.64s5.66,28.15,7,49.6h.14l85.52-4.08" transform="translate(-0.72 -0.72)" style="fill:#f4947a"/><path id="Shape-104" data-name="Shape" d="M652.2,281.6c-14.14-13.65-40.81-14.12-68.05-12.87-4.92.23-25.45-3-25.45-3l6.86-2.32c8.21-1.63,39.8-7,39.8-7v-1.16c0,2.88,5.46,5.21,12.2,5.21s12.4-2.84,12.4-5.72l36.19,9.64,16.27,10.39-12.94,25S658.89,288.07,652.2,281.6Z" transform="translate(-0.72 -0.72)" style="fill:#f56f40"/><path id="Shape-105" data-name="Shape" d="M577.61,365.58A.61.61,0,0,1,577,365c-1.33-21.15-7.09-49.75-7.15-50.06-3.14-19.89-11.7-48.73-11.79-49a.62.62,0,0,1,.39-.75l6.86-2.32c7.62-1.53,35.28-6.27,39.38-7v-.65a.61.61,0,0,1,1.21,0c0,2.22,4.66,4.6,11.6,4.6,6.64,0,11.79-2.74,11.79-5.11a.61.61,0,0,1,.24-.48.6.6,0,0,1,.52-.1l36.25,9.59.17.07,16.27,10.39a.6.6,0,0,1,.2.79l-16.22,31.39c-.34,1.79-5.79,31-2.35,54.38a.68.68,0,0,1-.11.46.64.64,0,0,1-.4.24.76.76,0,0,1-.3,0h-.2Zm-18.18-99.43c1.21,4.14,8.76,30.2,11.66,48.55,0,.25,5.72,28.44,7.12,49.61L663,360.26c-3.36-24.13,2.42-53.89,2.42-54.19a.43.43,0,0,1,0-.16l16-31-15.75-10-35.45-9.44c-.82,3.05-6.49,5.56-12.9,5.56-5.82,0-10.62-1.68-12.23-4.05-2.23.37-31.81,5.46-39.65,7Z" transform="translate(-0.72 -0.72)" style="fill:#c84a27"/><path id="Shape-106" data-name="Shape" d="M567.09,415.68h-.17a.6.6,0,0,1-.4-.75c1.82-6.07,4.59-16.69,6.83-25.23,1.63-6.22,2.91-11.13,3.31-12.3q1-2.91.4-12.35a.61.61,0,1,1,1.21-.07c.42,6.5.26,10.7-.47,12.83-.39,1.12-1.72,6.26-3.27,12.2-2.23,8.56-5,19.23-6.85,25.28A.59.59,0,0,1,567.09,415.68Z" transform="translate(-0.72 -0.72)" style="fill:#923a95"/><path id="Shape-107" data-name="Shape" d="M594.88,330.28a.6.6,0,0,1-.36-1.1,50.14,50.14,0,0,1,21.6-7.73c10.6-1.22,23.93,2.76,24.5,2.93a.63.63,0,0,1,.26,1.07.65.65,0,0,1-.61.15c-.14,0-13.66-4.13-24-2.9a49.71,49.71,0,0,0-21,7.51A.57.57,0,0,1,594.88,330.28Z" transform="translate(-0.72 -0.72)" style="fill:#c84a27"/><ellipse id="Oval-9" data-name="Oval" cx="641.93" cy="324.76" rx="2.56" ry="2.56" style="fill:#f56f40"/><path id="Shape-108" data-name="Shape" d="M642.65,328.65a3.17,3.17,0,1,1,3.17-3.16A3.16,3.16,0,0,1,642.65,328.65Zm0-5.12a2,2,0,1,0,2,2,2,2,0,0,0-.57-1.39,2,2,0,0,0-1.39-.58Z" transform="translate(-0.72 -0.72)" style="fill:#c84a27"/><ellipse id="Oval-10" data-name="Oval" cx="592.59" cy="329.88" rx="2.56" ry="2.56" style="fill:#f56f40"/><path id="Shape-109" data-name="Shape" d="M593.36,333.78a3.17,3.17,0,1,1,3.16-3.17A3.16,3.16,0,0,1,593.36,333.78Zm0-5.13a2,2,0,1,0,1.95,2A2,2,0,0,0,593.36,328.65Z" transform="translate(-0.72 -0.72)" style="fill:#c84a27"/><path id="Shape-110" data-name="Shape" d="M680.92,414.88l-14.79-43.31-31.38,1.91a348.52,348.52,0,0,1,29.59,39.36" transform="translate(-0.72 -0.72)" style="fill:#8552ba"/><polygon id="Rectangle-path-8" data-name="Rectangle-path" points="576.89 376.27 665.8 370.27 665.88 371.49 576.97 377.48 576.89 376.27" style="fill:#923a95"/><path id="Shape-111" data-name="Shape" d="M680.92,415.43a.61.61,0,0,1-.57-.42l-2.89-8.39c-4.12-11.7-10.18-29.48-11.9-34.88A70.79,70.79,0,0,1,663.13,361a.63.63,0,0,1,.23-.57.61.61,0,0,1,1,.39,68.5,68.5,0,0,0,2.36,10.58c1.69,5.37,7.82,23.15,11.88,34.91l2.9,8.39a.61.61,0,0,1-.38.77Z" transform="translate(-0.72 -0.72)" style="fill:#923a95"/><path id="Shape-112" data-name="Shape" d="M654.15,351.23l-74.87,35.65a1.28,1.28,0,0,0,.33,2.43l78,14.13a1.29,1.29,0,0,0,.8-.13l65.27-33.07" transform="translate(-0.72 -0.72)" style="fill:#e7f1f8"/><path id="Shape-113" data-name="Shape" d="M723.67,370.26l-69.29-19-24.23-78.89a1.21,1.21,0,0,1,1.62-1.43L701,296.68a1.18,1.18,0,0,1,.64.71l22,72.82" transform="translate(-0.72 -0.72)" style="fill:#d0e4f0"/><path id="Shape-114" data-name="Shape" d="M657.84,404.07h-.33l-78-14.15a1.88,1.88,0,0,1-.49-3.56L654,350.67a.6.6,0,0,1,.63,0,.61.61,0,0,1-.11,1.07L579.6,387.42a.66.66,0,0,0,.16,1.21l78,14.15a.59.59,0,0,0,.41-.06l65.26-33.07a.61.61,0,0,1,.55,1.08L658.73,403.8A1.89,1.89,0,0,1,657.84,404.07Z" transform="translate(-0.72 -0.72)" style="fill:#a1c2d8"/><path id="Shape-115" data-name="Shape" d="M723.67,370.86h-.16l-69.28-19a.62.62,0,0,1-.43-.4l-24.23-78.88a1.79,1.79,0,0,1,2.42-2.17l69.22,25.71a1.83,1.83,0,0,1,1,1.11l22,72.87a.61.61,0,0,1-.1.54.6.6,0,0,1-.48.24Zm-68.8-20.13,67.86,18.65L701,297.56a.63.63,0,0,0-.32-.34l-69.2-25.74a.59.59,0,0,0-.67.09.57.57,0,0,0-.17.6Z" transform="translate(-0.72 -0.72)" style="fill:#a1c2d8"/><path id="Shape-116" data-name="Shape" d="M695.15,382.13,681,377.08a.8.8,0,0,0-.53-.21.85.85,0,0,0-.71.3.86.86,0,0,0-.16.76l7.39,7.28c.4,1.58,1.57,1.83.23,2.36a2.88,2.88,0,0,1-1.92,0l-17.67-6L656.9,378l-.53-.14-1-.33a2.51,2.51,0,0,0-2.42,4.21l1.21,1.12q7.74,7.6,16.2,14.41L703,381c.28-1.83-4.32,0-4.32,0Z" transform="translate(-0.72 -0.72)" style="fill:#a1c2d8"/><path id="Shape-117" data-name="Shape" d="M703,381.05s-3.18,30-15.33,27.43c-8.1-1.68-21.34-13.22-29.16-20.86-3.4-3.33,0-4.6,2.28-3.89l22.58,7.76a2.42,2.42,0,0,0,2.45-.51,2.45,2.45,0,0,0,.69-2.41l-5.87-5.83a.65.65,0,0,1,.28-.73.65.65,0,0,1,.79.07l11.3,4Z" transform="translate(-0.72 -0.72)" style="fill:#e7f1f8"/><path id="Shape-118" data-name="Shape" d="M689.09,409.24a8.1,8.1,0,0,1-1.56-.17c-8.6-1.8-22.73-14.51-30.4-21.92a2.62,2.62,0,0,1,2.59-4.38l23.95,8.12a1.75,1.75,0,0,0,2.29-2l-5.81-5.74a.53.53,0,0,1-.16-.28,1.27,1.27,0,0,1,2-1.37l11,3.92,9.69-4.95a.63.63,0,0,1,.62,0,.61.61,0,0,1,.25.57c-.08.85-2.3,20.93-10.09,26.62A7.3,7.3,0,0,1,689.09,409.24ZM659,383.87a1.39,1.39,0,0,0-1.21.71,1.34,1.34,0,0,0,.23,1.71c7.56,7.28,21.5,19.86,29.79,21.6a6,6,0,0,0,5-1.13c6.36-4.63,8.88-20.3,9.46-24.65l-9,4.55a.55.55,0,0,1-.47,0l-11.29-4a.56.56,0,0,1-.2-.11l5.72,5.64a.57.57,0,0,1,.16.28,3,3,0,0,1-3.8,3.58l-24-8.18A1.55,1.55,0,0,0,659,383.87Z" transform="translate(-0.72 -0.72)" style="fill:#40565b"/><path id="Shape-119" data-name="Shape" d="M701.67,393.12l-1.22-.24c1-4.86-5.45-7.17-5.51-7.2l.41-1.14C695.45,384.56,702.87,387.3,701.67,393.12Z" transform="translate(-0.72 -0.72)" style="fill:#40565b"/><path id="Shape-120" data-name="Shape" d="M675.49,329.56l-1-7.9c-.78-6.34,1-8.92,5.38-8.38,5.43.67,8,4.15,8.88,9.05l2.31,10.58-4.31-.87-1-5.44-6.49-1.06.63,5.09Zm3.32-7.7,6.49,1.07-.42-1.52a5.06,5.06,0,0,0-3.51-3.9c-3.15-.58-2.76,2.12-2.69,3.13Z" transform="translate(-0.72 -0.72)" style="fill:#fff"/><path id="Shape-121" data-name="Shape" d="M691.06,333.52h-.12l-4.31-.87a.61.61,0,0,1-.47-.49l-.93-5-5.25-.86.53,4.29a.62.62,0,0,1-.19.52.59.59,0,0,1-.55.14l-4.4-1.07a.61.61,0,0,1-.46-.51l-1-7.9c-.48-3.88,0-6.44,1.4-7.86a5.36,5.36,0,0,1,4.65-1.22c5.23.63,8.3,3.76,9.41,9.54l2.31,10.56a.61.61,0,0,1-.59.74Zm-3.79-2,3,.61-2.12-9.71c-1-5.22-3.74-8-8.37-8.58a4.18,4.18,0,0,0-3.63.85c-1.12,1.11-1.47,3.42-1.06,6.86l1,7.48,3.15.77-.54-4.19a.6.6,0,0,1,.18-.51.62.62,0,0,1,.52-.16l6.48,1.07a.62.62,0,0,1,.5.49Zm-2-8h-.1l-6.48-1.06a.62.62,0,0,1-.54-.49l-.15-1.4a3.68,3.68,0,0,1,.76-3.11,3,3,0,0,1,2.66-.5,5.64,5.64,0,0,1,4,4.28l.42,1.52a.61.61,0,0,1-.11.52.6.6,0,0,1-.48.24Zm-5.94-2.19,5.1.83-.17-.6a4.47,4.47,0,0,0-3-3.46,1.93,1.93,0,0,0-1.62.2c-.5.45-.42,1.55-.37,2.12Z" transform="translate(-0.72 -0.72)" style="fill:#a1c2d8"/><polyline id="Shape-122" data-name="Shape" points="472.02 398.6 490.16 398.2 532.91 413.62 499.46 413.62 472.47 399.5" style="fill:#e7f1f8"/><polygon id="Shape-123" data-name="Shape" points="470.79 398.2 470.6 413.62 497.24 413.78 470.79 398.2" style="fill:#e7f1f8"/><path id="Shape-124" data-name="Shape" d="M466.13,176.86H240.34c-3.89,0-7,15.78-7,35.36s3.15,35.37,7,35.37H466.13c3.89,0,7-15.78,7-35.37S470,176.86,466.13,176.86Z" transform="translate(-0.72 -0.72)" style="fill:#e7f1f8"/><path id="Shape-125" data-name="Shape" d="M461.69,247.81H244.79s-12.12-13.35-9.62,166.54H471.31q.26-17.07.31-31.87C472.34,236.07,461.69,247.81,461.69,247.81Z" transform="translate(-0.72 -0.72)" style="fill:#e7f1f8"/><path id="Shape-126" data-name="Shape" d="M466.13,176.86H240.34c-3.89,0-7,15.78-7,35.36s3.15,35.37,7,35.37H466.13c3.89,0,7-15.78,7-35.37S470,176.86,466.13,176.86Z" transform="translate(-0.72 -0.72)" style="fill:#e7f1f8"/><path id="Shape-127" data-name="Shape" d="M461.69,247.81H244.79s-12.12-13.35-9.62,166.54H471.31q.26-17.07.31-31.87C472.34,236.07,461.69,247.81,461.69,247.81Z" transform="translate(-0.72 -0.72)" style="fill:#e7f1f8"/><polyline id="Shape-128" data-name="Shape" points="472.02 398.6 490.16 398.2 532.91 413.62 499.46 413.62 472.47 399.5" style="fill:#e7f1f8"/><path id="Shape-129" data-name="Shape" d="M455.72,413.84l-14-75,4.95-22.18-6.06-1.39V217.16c0-14.9-3.55-28.78-11-40l-112.27-1c-6.84,10.5-15,27.24-15,41.07v98.12l-6.06,1.37,24.24,116.5h19.09a14.33,14.33,0,0,0,1.35,3.35v.1a8.39,8.39,0,0,0,.5.81,13.54,13.54,0,0,0,1.21,1.61l.11.12q.29.33.6.63l.09.08a13.54,13.54,0,0,0,1.5,1.22l.18.13.66.44.18.11c.28.17.56.32.86.47l.82.38.26.09.69.25.25.07c.3.08.62.17.93.23a6.91,6.91,0,0,1,.91.15h2.32l9.93-.87,18.3-8,5.39-1.52h33.76l2.26-10.12,8-2.25Zm-26.57-18.6.9,4.93-2.16.73Z" transform="translate(-0.72 -0.72)" style="fill:#d0e4f0"/><path id="Shape-130" data-name="Shape" d="M533.63,415H500.18a.53.53,0,0,1-.28-.07l-27-14.13a.6.6,0,0,1-.25-.81.61.61,0,1,1,.06-1.21l18.18-.4h.21l42.74,15.42a.61.61,0,0,1,.37,1,.63.63,0,0,1-.57.22Zm-33.29-1.21h29.83l-39.38-14.21-16.89.36Z" transform="translate(-0.72 -0.72)" style="fill:#a1c2d8"/><path id="Shape-131" data-name="Shape" d="M498,415.11,471.3,415a.58.58,0,0,1-.43-.18.6.6,0,0,1-.17-.44l.18-15.42a.61.61,0,0,1,.91-.51L498.24,414a.61.61,0,0,1-.3,1.13Zm-26-1.37,23.78.15L472.1,400Z" transform="translate(-0.72 -0.72)" style="fill:#a1c2d8"/><path id="Shape-132" data-name="Shape" d="M466.13,248.19H240.34c-5,0-7.63-18.53-7.63-36s2.68-36,7.63-36H466.13c4.95,0,7.63,18.53,7.63,36S471.07,248.19,466.13,248.19ZM240.34,177.47c-3,0-6.42,14.27-6.42,34.75S237.31,247,240.34,247H466.13c3,0,6.42-14.27,6.42-34.76s-3.39-34.75-6.42-34.75Z" transform="translate(-0.72 -0.72)" style="fill:#a1c2d8"/><path id="Shape-133" data-name="Shape" d="M471.31,415H235.12a.59.59,0,0,1-.6-.59c-.68-48.95-1.22-163.21,9.11-167.27a1.44,1.44,0,0,1,1.32.11H461.49a1.41,1.41,0,0,1,1.32-.12c3.75,1.47,10,21,9.42,135.4,0,10.09-.15,20.82-.3,31.87a.58.58,0,0,1-.18.43A.6.6,0,0,1,471.31,415Zm-235.59-1.21h235c.15-10.84.25-21.36.3-31.26.26-51.35-.86-88.92-3.29-111.65-2.11-19.65-4.62-22.24-5.33-22.55a.22.22,0,0,0-.27,0,.55.55,0,0,1-.44.18H244.79a.64.64,0,0,1-.45-.19h-.25c-1.8.76-10.48,12.53-8.36,165.47Z" transform="translate(-0.72 -0.72)" style="fill:#a1c2d8"/><path id="Shape-134" data-name="Shape" d="M466.13,248.19H240.34c-5,0-7.63-18.53-7.63-36s2.68-36,7.63-36H466.13c4.95,0,7.63,18.53,7.63,36S471.07,248.19,466.13,248.19ZM240.34,177.47c-3,0-6.42,14.27-6.42,34.75S237.31,247,240.34,247H466.13c3,0,6.42-14.27,6.42-34.76s-3.39-34.75-6.42-34.75Z" transform="translate(-0.72 -0.72)" style="fill:#a1c2d8"/><path id="Shape-135" data-name="Shape" d="M471.31,415H235.12a.59.59,0,0,1-.6-.59c-.68-48.95-1.22-163.21,9.11-167.27a1.44,1.44,0,0,1,1.32.11H461.49a1.41,1.41,0,0,1,1.32-.12c3.75,1.47,10,21,9.42,135.4,0,10.09-.15,20.82-.3,31.87a.58.58,0,0,1-.18.43A.6.6,0,0,1,471.31,415Zm-235.59-1.21h235c.15-10.84.25-21.36.3-31.26.26-51.35-.86-88.92-3.29-111.65-2.11-19.65-4.62-22.24-5.33-22.55a.22.22,0,0,0-.27,0,.55.55,0,0,1-.44.18H244.79a.64.64,0,0,1-.45-.19h-.25c-1.8.76-10.48,12.53-8.36,165.47Z" transform="translate(-0.72 -0.72)" style="fill:#a1c2d8"/><path id="Shape-136" data-name="Shape" d="M533.63,415H500.18a.53.53,0,0,1-.28-.07l-27-14.13a.6.6,0,0,1-.25-.81.61.61,0,1,1,.06-1.21l18.18-.4h.21l42.74,15.42a.61.61,0,0,1,.37,1,.63.63,0,0,1-.57.22Zm-33.29-1.21h29.83l-39.38-14.21-16.89.36Z" transform="translate(-0.72 -0.72)" style="fill:#a1c2d8"/><polygon id="Rectangle-path-9" data-name="Rectangle-path" points="484.67 215.99 513.86 215.99 513.86 247.69 484.67 247.69 484.67 215.99" style="fill:#e7f1f8"/><path id="Shape-137" data-name="Shape" d="M499.84,232.32a27.67,27.67,0,0,1-14.47-4,1.23,1.23,0,0,1-.27-1.55,1.2,1.2,0,0,1,1.48-.51,25,25,0,0,0,26.16,0,1.21,1.21,0,1,1,1.31,2A26.27,26.27,0,0,1,499.84,232.32Z" transform="translate(-0.72 -0.72)" style="fill:#c3d4e0"/><path id="Shape-138" data-name="Shape" d="M514.6,236.81a.61.61,0,0,1-.61-.61V221.54a.61.61,0,0,1,1.21,0V236.2A.6.6,0,0,1,514.6,236.81Z" transform="translate(-0.72 -0.72)" style="fill:#40565b"/><path id="Shape-139" data-name="Shape" d="M485.39,237.93a.61.61,0,0,1-.6-.61V219.41a.61.61,0,1,1,1.21,0v17.91a.58.58,0,0,1-.18.43A.6.6,0,0,1,485.39,237.93Z" transform="translate(-0.72 -0.72)" style="fill:#40565b"/><path id="Shape-140" data-name="Shape" d="M459.39,422.71a12.12,12.12,0,0,1-10.47-11.16l2.42-141.5c0-23.18,12-35,21.46-36h.85c3.52,0,9.25,1.85,11.72,4.34,5.31,5.31,22.32,4.6,27.63-.72,2.63-2.63,5.55-3.33,9.24-3L537,236.36h1c21.93.1,37.62,6.75,33.93,42.15L560.35,396.08a38.46,38.46,0,0,1-43.45,34.41Z" transform="translate(-0.72 -0.72)" style="fill:#d56"/><path id="Shape-141" data-name="Shape" d="M537.41,236.39h-1l-14.82-1.79c-2.62-.24-8.11,1.75-8.11,1.75h1c22.31.1,38.27,6.87,34.51,42.86L537.27,398.8c-1.59,16.15.28,27.91-16.67,32,35.62-1.09,39.22-31.23,39.67-36.72l11.67-114.86C575.68,243.25,559.72,236.49,537.41,236.39Z" transform="translate(-0.72 -0.72)" style="fill:#c14257"/><path id="Shape-142" data-name="Shape" d="M522.21,431.45a40.15,40.15,0,0,1-5.37-.37l-57.55-7.83a12.8,12.8,0,0,1-11-11.7L450.73,270c0-23.48,11.73-32.17,15.31-34.27l.61,1c-3.45,2-14.72,10.4-14.72,33.24L449.5,411.52a11.58,11.58,0,0,0,9.94,10.53L517,429.88A37.88,37.88,0,0,0,559.8,396l11.53-117.57c1.62-15.6-.42-26.35-6.29-32.88-5.27-5.88-13.62-8.49-27-8.6h-1.06l.11-1.22h1c13.8.06,22.43,2.84,27.94,9,6.06,6.81,8.25,17.86,6.59,33.81L561,396.14a39.13,39.13,0,0,1-38.78,35.31Z" transform="translate(-0.72 -0.72)" style="fill:#bc1a3c"/><path id="Shape-143" data-name="Shape" d="M482.57,332.5a4.26,4.26,0,0,0,7.59,0l46.75-96.11h-.51l-13.77-2.16a12.79,12.79,0,0,0-10.3,3.42c-5.39,5.4-21.17,5.4-26.56,0-2.52-2.53-10.2-3.64-13.77-3.64l-5.62,2.25Z" transform="translate(-0.72 -0.72)" style="fill:#d0e4f0"/><path id="Shape-144" data-name="Shape" d="M486.36,335.45a4.82,4.82,0,0,1-4.32-2.67.49.49,0,0,1,0-.17l-16.2-96.26a.61.61,0,0,1,.25-.61c.15-.09,3.76-2.51,6.06-2.36a.61.61,0,0,1,.51.33.63.63,0,0,1,0,.61.62.62,0,0,1-.54.27c-1.37-.07-3.78,1.21-4.92,1.94l16.11,95.78a3.63,3.63,0,0,0,6.46-.08l46.68-96.1a.61.61,0,1,1,1.09.53l-46.75,96.12A4.84,4.84,0,0,1,486.36,335.45Z" transform="translate(-0.72 -0.72)" style="fill:#164a67"/><ellipse id="Oval-11" data-name="Oval" cx="491.25" cy="253.68" rx="3.42" ry="3.42" style="fill:#a1c2d8"/><ellipse id="Oval-12" data-name="Oval" cx="490.13" cy="273.3" rx="3.42" ry="3.42" style="fill:#a1c2d8"/><ellipse id="Oval-13" data-name="Oval" cx="488.99" cy="292.91" rx="3.42" ry="3.42" style="fill:#a1c2d8"/><ellipse id="Oval-14" data-name="Oval" cx="487.85" cy="312.52" rx="3.42" ry="3.42" style="fill:#a1c2d8"/><path id="Shape-145" data-name="Shape" d="M492,258.44a4,4,0,1,1,4-4A4,4,0,0,1,492,258.44Zm0-6.84a2.82,2.82,0,1,0,2.82,2.82,2.86,2.86,0,0,0-.82-2,2.83,2.83,0,0,0-2-.83Z" transform="translate(-0.72 -0.72)" style="fill:#164a67"/><path id="Shape-146" data-name="Shape" d="M490.84,278.05a4,4,0,1,1,2.84-1.18A4,4,0,0,1,490.84,278.05Zm0-6.83a2.81,2.81,0,1,0,1.08,5.41,2.82,2.82,0,0,0,.9-4.6,2.79,2.79,0,0,0-2-.83Z" transform="translate(-0.72 -0.72)" style="fill:#164a67"/><path id="Shape-147" data-name="Shape" d="M489.71,297.71a4,4,0,1,1,4-4A4,4,0,0,1,489.71,297.71Zm0-6.83a1.17,1.17,0,1,0,0-.07Z" transform="translate(-0.72 -0.72)" style="fill:#164a67"/><path id="Shape-148" data-name="Shape" d="M488.57,317.26a4,4,0,1,1,2.84-1.18A4,4,0,0,1,488.57,317.26Zm0-6.83a2.82,2.82,0,1,0,2.81,2.81A2.81,2.81,0,0,0,488.57,310.43Z" transform="translate(-0.72 -0.72)" style="fill:#164a67"/><path id="Shape-149" data-name="Shape" d="M443.52,101.36l11.23,105.58a12.2,12.2,0,0,0,12.12,11.13l62.79,5A12.2,12.2,0,0,0,541.78,212L553,106.37A12.21,12.21,0,0,0,540.89,93l-85.27-5a12.2,12.2,0,0,0-12.1,13.35Z" transform="translate(-0.72 -0.72)" style="fill:#fff"/><path id="Shape-150" data-name="Shape" d="M529.68,223.74l-62.84-5A12.73,12.73,0,0,1,454.14,207L442.91,101.46a12.81,12.81,0,0,1,12.75-14l85.3,5a12.82,12.82,0,0,1,12.72,14L542.44,212.05A12.73,12.73,0,0,1,529.68,223.74ZM444.11,101.3l11.23,105.58a11.55,11.55,0,0,0,11.54,10.59l62.84,5a11.54,11.54,0,0,0,11.49-10.57l11.23-105.58A11.59,11.59,0,0,0,540.89,93.7l-85.3-5a11.61,11.61,0,0,0-11.52,12.63Z" transform="translate(-0.72 -0.72)" style="fill:#3f555a"/><polygon id="Shape-151" data-name="Shape" points="450.16 169.95 486.27 169.95 494 186.56 482.02 182.9 475.26 186.56 462.74 181.4 453.99 186.85 444.56 181.34 450.16 169.95" style="fill:#576a6d"/><ellipse id="Oval-15" data-name="Oval" cx="487.33" cy="142.9" rx="4.36" ry="11.57" style="fill:#3f555a"/><path id="Shape-152" data-name="Shape" d="M454.71,188.28l-10.22-6,6.05-12.25h36.87l8.48,18.21-13.05-4-6.79,3.64-12.49-5.15Zm-8.64-6.45,8.63,5,8.71-5.41,12.53,5.17,6.73-3.64,10.9,3.33-7-15H451.26Z" transform="translate(-0.72 -0.72)" style="fill:#3f555a"/><path id="Shape-153" data-name="Shape" d="M500.34,126.59a.62.62,0,0,1-.53-.29c-.15-.27-4.07-6.67-11.7-5.86a.6.6,0,0,1-.67-.54.6.6,0,0,1,.54-.67c8.4-.91,12.83,6.37,12.86,6.44a.6.6,0,0,1-.52.91Z" transform="translate(-0.72 -0.72)" style="fill:#3f555a"/><polygon id="Shape-154" data-name="Shape" points="462.74 156.27 465.82 159.73 468.9 163.19 462.74 163.19 456.58 163.19 459.66 159.73 462.74 156.27" style="fill:#f36f42"/><path id="Shape-155" data-name="Shape" d="M469.62,164.52H457.31a.64.64,0,0,1-.55-.36.6.6,0,0,1,.1-.65l6.15-6.92a.66.66,0,0,1,.46-.19.64.64,0,0,1,.45.19l6.16,6.92a.61.61,0,0,1-.45,1Zm-11-1.22h9.62l-4.84-5.4Z" transform="translate(-0.72 -0.72)" style="fill:#c84a27"/><path id="Shape-156" data-name="Shape" d="M468.26,195.86a21.63,21.63,0,0,1-9.54-1.9.62.62,0,0,1-.25-.83.6.6,0,0,1,.82-.25c.1,0,10.56,5.33,25.83-2.93a.6.6,0,0,1,.63,0,.61.61,0,0,1,.29.55.6.6,0,0,1-.35.52A36.48,36.48,0,0,1,468.26,195.86Z" transform="translate(-0.72 -0.72)" style="fill:#3f555a"/><path id="Shape-157" data-name="Shape" d="M443.52,101.36l11.23,105.58a12.2,12.2,0,0,0,12.12,11.13l62.79,5A12.2,12.2,0,0,0,541.78,212L553,106.37A12.21,12.21,0,0,0,540.89,93l-85.27-5a12.2,12.2,0,0,0-12.1,13.35Z" transform="translate(-0.72 -0.72)" style="fill:#fff"/><path id="Shape-158" data-name="Shape" d="M529.68,223.74l-62.84-5A12.73,12.73,0,0,1,454.14,207L442.91,101.46a12.81,12.81,0,0,1,12.75-14l85.3,5a12.82,12.82,0,0,1,12.72,14L542.44,212.05A12.73,12.73,0,0,1,529.68,223.74ZM444.11,101.3l11.23,105.58a11.55,11.55,0,0,0,11.54,10.59l62.84,5a11.54,11.54,0,0,0,11.49-10.57l11.23-105.58A11.59,11.59,0,0,0,540.89,93.7l-85.3-5a11.61,11.61,0,0,0-11.52,12.63Z" transform="translate(-0.72 -0.72)" style="fill:#3f555a"/><polygon id="Shape-159" data-name="Shape" points="450.16 169.95 486.27 169.95 494 186.56 482.02 182.9 475.26 186.56 462.74 181.4 453.99 186.85 444.56 181.34 450.16 169.95" style="fill:#576a6d"/><ellipse id="Oval-16" data-name="Oval" cx="487.33" cy="142.9" rx="4.36" ry="11.57" style="fill:#3f555a"/><path id="Shape-160" data-name="Shape" d="M454.71,188.28l-10.22-6,6.05-12.25h36.87l8.48,18.21-13.05-4-6.79,3.64-12.49-5.15Zm-8.64-6.45,8.63,5,8.71-5.41,12.53,5.17,6.73-3.64,10.9,3.33-7-15H451.26Z" transform="translate(-0.72 -0.72)" style="fill:#3f555a"/><path id="Shape-161" data-name="Shape" d="M500.34,126.59a.62.62,0,0,1-.53-.29c-.15-.27-4.07-6.67-11.7-5.86a.6.6,0,0,1-.67-.54.6.6,0,0,1,.54-.67c8.4-.91,12.83,6.37,12.86,6.44a.6.6,0,0,1-.52.91Z" transform="translate(-0.72 -0.72)" style="fill:#3f555a"/><polygon id="Shape-162" data-name="Shape" points="462.74 156.27 465.82 159.73 468.9 163.19 462.74 163.19 456.58 163.19 459.66 159.73 462.74 156.27" style="fill:#f36f42"/><path id="Shape-163" data-name="Shape" d="M469.62,164.52H457.31a.64.64,0,0,1-.55-.36.6.6,0,0,1,.1-.65l6.15-6.92a.66.66,0,0,1,.46-.19.64.64,0,0,1,.45.19l6.16,6.92a.61.61,0,0,1-.45,1Zm-11-1.22h9.62l-4.84-5.4Z" transform="translate(-0.72 -0.72)" style="fill:#c84a27"/><path id="Shape-164" data-name="Shape" d="M468.26,195.86a21.63,21.63,0,0,1-9.54-1.9.62.62,0,0,1-.25-.83.6.6,0,0,1,.82-.25c.1,0,10.56,5.33,25.83-2.93a.6.6,0,0,1,.63,0,.61.61,0,0,1,.29.55.6.6,0,0,1-.35.52A36.48,36.48,0,0,1,468.26,195.86Z" transform="translate(-0.72 -0.72)" style="fill:#3f555a"/><path id="Shape-165" data-name="Shape" d="M443.52,101.36l11.23,105.58a12.2,12.2,0,0,0,12.12,11.13l62.79,5A12.2,12.2,0,0,0,541.78,212L553,106.37A12.21,12.21,0,0,0,540.89,93l-85.27-5a12.2,12.2,0,0,0-12.1,13.35Z" transform="translate(-0.72 -0.72)" style="fill:#fff"/><path id="Shape-166" data-name="Shape" d="M540.93,93.08l-85.27-5A12.19,12.19,0,0,0,444,96.76l73.92,9.71A12.2,12.2,0,0,1,530,119.82l-6.35,100.5a11.94,11.94,0,0,1-.42,2.3l6.42.51A12.2,12.2,0,0,0,541.79,212L553,106.42a12.21,12.21,0,0,0-12.09-13.34Z" transform="translate(-0.72 -0.72)" style="fill:#d0e4f0"/><path id="Shape-167" data-name="Shape" d="M529.68,223.74l-62.84-5A12.73,12.73,0,0,1,454.14,207L442.91,101.46a12.81,12.81,0,0,1,12.75-14l85.3,5a12.82,12.82,0,0,1,12.72,14L542.44,212.05A12.73,12.73,0,0,1,529.68,223.74ZM444.11,101.3l11.23,105.58a11.55,11.55,0,0,0,11.54,10.59l62.84,5a11.54,11.54,0,0,0,11.49-10.57l11.23-105.58A11.59,11.59,0,0,0,540.89,93.7l-85.3-5a11.61,11.61,0,0,0-11.52,12.63Z" transform="translate(-0.72 -0.72)" style="fill:#3f555a"/><polygon id="Shape-168" data-name="Shape" points="450.16 169.95 486.27 169.95 494 186.56 482.02 182.9 475.26 186.56 462.74 181.4 453.99 186.85 444.56 181.34 450.16 169.95" style="fill:#576a6d"/><ellipse id="Oval-17" data-name="Oval" cx="487.33" cy="142.9" rx="4.36" ry="11.57" style="fill:#3f555a"/><path id="Shape-169" data-name="Shape" d="M446.87,131.18c1.63,1.67,3.32,4.85,3.77,11.42.24,3.64-1.14,7.81-1.69,9.71" transform="translate(-0.72 -0.72)" style="fill:#3f555a"/><path id="Shape-170" data-name="Shape" d="M454.71,188.28l-10.22-6,6.05-12.25h36.87l8.48,18.21-13.05-4-6.79,3.64-12.49-5.15Zm-8.64-6.45,8.63,5,8.71-5.41,12.53,5.17,6.73-3.64,10.9,3.33-7-15H451.26Z" transform="translate(-0.72 -0.72)" style="fill:#3f555a"/><path id="Shape-171" data-name="Shape" d="M500.34,126.59a.62.62,0,0,1-.53-.29c-.15-.27-4.07-6.67-11.7-5.86a.6.6,0,0,1-.67-.54.6.6,0,0,1,.54-.67c8.4-.91,12.83,6.37,12.86,6.44a.6.6,0,0,1-.52.91Z" transform="translate(-0.72 -0.72)" style="fill:#3f555a"/><polygon id="Shape-172" data-name="Shape" points="462.74 156.27 465.82 159.73 468.9 163.19 462.74 163.19 456.58 163.19 459.66 159.73 462.74 156.27" style="fill:#f36f42"/><path id="Shape-173" data-name="Shape" d="M469.62,164.52H457.31a.64.64,0,0,1-.55-.36.6.6,0,0,1,.1-.65l6.15-6.92a.66.66,0,0,1,.46-.19.64.64,0,0,1,.45.19l6.16,6.92a.61.61,0,0,1-.45,1Zm-11-1.22h9.62l-4.84-5.4Z" transform="translate(-0.72 -0.72)" style="fill:#c84a27"/><path id="Shape-174" data-name="Shape" d="M468.26,195.86a21.63,21.63,0,0,1-9.54-1.9.62.62,0,0,1-.25-.83.6.6,0,0,1,.82-.25c.1,0,10.56,5.33,25.83-2.93a.6.6,0,0,1,.63,0,.61.61,0,0,1,.29.55.6.6,0,0,1-.35.52A36.48,36.48,0,0,1,468.26,195.86Z" transform="translate(-0.72 -0.72)" style="fill:#3f555a"/><path id="Shape-175" data-name="Shape" d="M499.05,242.74c-5.44,0-10.9-1.4-13.7-4.23-2.32-2.32-9.64-4-13.33-3.92a.57.57,0,0,1-.44-.16.6.6,0,0,1-.18-.44.63.63,0,0,1,.17-.43.6.6,0,0,1,.42-.18c3.43,0,11.47,1.52,14.2,4.27,5.17,5.17,20.6,5.17,25.71,0A13.3,13.3,0,0,1,522.68,234l13.79,1.7a.6.6,0,0,1,.41.22.62.62,0,0,1,.12.46.56.56,0,0,1-.22.41.62.62,0,0,1-.46.12l-13.76-1.7a12.09,12.09,0,0,0-9.79,3.25C509.94,241.32,504.5,242.74,499.05,242.74Z" transform="translate(-0.72 -0.72)" style="fill:#164a67"/><path id="Shape-176" data-name="Shape" d="M534.08,145.57a.75.75,0,0,0,.72-.58.76.76,0,0,0-.37-.85l-9.25-2.83a.77.77,0,0,0-.87,0,.76.76,0,0,0-.28.83.79.79,0,0,0,.69.54l9.24,2.84Z" transform="translate(-0.72 -0.72)" style="fill:#a1c2d8"/><path id="Shape-177" data-name="Shape" d="M534.08,146.18h-.2l-9.25-2.84a1.37,1.37,0,1,1,.82-2.56l9.19,2.81h.12a1.38,1.38,0,0,1-.64,2.58Zm-9.3-4.38a.2.2,0,0,0-.15.07.16.16,0,0,0,0,.22h.22l9.21,2.83a.16.16,0,0,0,.11-.16.21.21,0,0,0,0-.11l-9.18-2.8-.15-.08Z" transform="translate(-0.72 -0.72)" style="fill:#40565b"/><ellipse id="Oval-18" data-name="Oval" cx="537.4" cy="145.66" rx="4.68" ry="4.68" transform="translate(288.54 643.39) rotate(-78.7)" style="fill:#f36f42"/><path id="Shape-178" data-name="Shape" d="M537.41,151a5.29,5.29,0,1,1,5.23-4.77A5.28,5.28,0,0,1,537.41,151Zm0-9.37a4.1,4.1,0,1,0,.8.09,3.59,3.59,0,0,0-.81-.09Z" transform="translate(-0.72 -0.72)" style="fill:#c84a27"/><path id="Shape-179" data-name="Shape" d="M733.15,440.69a1.21,1.21,0,0,1-1.21-1.21V415a1.21,1.21,0,0,1,2.42,0v24.47A1.21,1.21,0,0,1,733.15,440.69Z" transform="translate(-0.72 -0.72)" style="fill:#3f555a"/><path id="Shape-180" data-name="Shape" d="M5.21,492A1.22,1.22,0,0,1,4,490.8l-1.38-38a1.22,1.22,0,1,1,2.43,0l1.38,38A1.22,1.22,0,0,1,5.21,492Z" transform="translate(-0.72 -0.72)" style="fill:#3f555a"/><path id="Shape-181" data-name="Shape" d="M423.17,321.7H284.94V217.16c0-38.23,30.11-67.34,68.29-67.34,48.3,0,69.95,30.58,69.95,67.34Z" transform="translate(-0.72 -0.72)" style="fill:#d0e4f0"/><path id="Shape-182" data-name="Shape" d="M407,316.45H302.71V229.07c0-32,10.82-31.64,39.64-31.64l6.89,7.78c36.45,0,56.19-8.86,56.19,21.84Z" transform="translate(-0.72 -0.72)" style="fill:#a1c2d8"/><path id="Shape-183" data-name="Shape" d="M423.17,322.31H284.94a.61.61,0,0,1-.61-.61V217.16c0-38.1,30.29-68,68.9-68,22.73,0,41.2,6.94,53.53,20.09,11.14,11.9,17,28.45,17,47.87V321.71a.59.59,0,0,1-.19.43A.61.61,0,0,1,423.17,322.31Zm-137.64-1.22h137V217.16c0-19.1-5.78-35.36-16.7-47-12.06-12.88-30.3-19.69-52.65-19.69-38,0-67.69,29.32-67.69,66.74Z" transform="translate(-0.72 -0.72)" style="fill:#40565b"/><polygon id="Rectangle-path-10" data-name="Rectangle-path" points="343.3 292.95 364.73 292.95 364.73 310.88 343.3 310.88 343.3 292.95" style="fill:#d0e4f0"/><path id="Shape-184" data-name="Shape" d="M354.39,351.56l-32.58-44.71L344,304c7.2,4,14.35,4,21.44-.4l21.35,3.34Z" transform="translate(-0.72 -0.72)" style="fill:#e7f1f8"/><polygon id="Shape-185" data-name="Shape" points="354.02 350.36 321.09 306.12 330.02 304.96 354.02 350.36" style="fill:#d0e4f0"/><path id="Shape-186" data-name="Shape" d="M354.39,352.16a.61.61,0,0,1-.48-.25l-32.59-44.72a.61.61,0,0,1-.06-.6.59.59,0,0,1,.48-.36l22.21-2.9a.6.6,0,0,1,.39.08c6.43,3.85,13.25,3.84,20.85,0a.69.69,0,0,1,.35,0l21.35,2.95a.62.62,0,0,1,.48.36.59.59,0,0,1-.07.6L354.89,352a.62.62,0,0,1-.48.26Zm-31.5-44.9,31.5,43.21,31.34-43.16-20.18-2.75c-7.74,3.89-15,3.89-21.66,0Z" transform="translate(-0.72 -0.72)" style="fill:#40565b"/><path id="Shape-187" data-name="Shape" d="M365.46,304.15a.6.6,0,0,1-.61-.6v-9.26H344.63v9.26a.6.6,0,0,1-.61.6.61.61,0,0,1-.61-.6v-9.87a.61.61,0,0,1,.61-.61h21.44a.6.6,0,0,1,.6.61v9.87A.6.6,0,0,1,365.46,304.15Z" transform="translate(-0.72 -0.72)" style="fill:#40565b"/><polyline id="Shape-188" data-name="Shape" points="278.19 315.93 302.48 432.44 402.54 432.44 428.52 315.93 386.08 306.17 353.67 350.83 321.09 306.12 278.19 315.93" style="fill:#ffdc64"/><path id="Shape-189" data-name="Shape" d="M319.68,316.53c14.1,6.24,20.75,15.87,20.75,15.87l-18.62-25.55-23.57,5.42S305.57,310.29,319.68,316.53Z" transform="translate(-0.72 -0.72)" style="fill:#faac30"/><path id="Shape-190" data-name="Shape" d="M364.34,336.86s27.46,4.28,32.45,20.93.37,75.38.37,75.38h6l26-116.51L386.78,307" transform="translate(-0.72 -0.72)" style="fill:#faac30"/><path id="Shape-191" data-name="Shape" d="M403.26,433.78H303.18a.62.62,0,0,1-.59-.49l-24.23-116.5a.6.6,0,0,1,.46-.72l42.89-9.82a.61.61,0,0,1,.63.23l32.1,44,31.93-44a.6.6,0,0,1,.63-.23L429.41,316a.56.56,0,0,1,.38.27.57.57,0,0,1,.08.46l-26,116.5A.61.61,0,0,1,403.26,433.78Zm-99.58-1.22h99.09l25.79-115.43-41.45-9.54-32.18,44.34a.65.65,0,0,1-.49.26.62.62,0,0,1-.48-.26L321.6,307.54l-41.92,9.59Z" transform="translate(-0.72 -0.72)" style="fill:#f26f42"/><polyline id="Shape-192" data-name="Shape" points="315.89 235.76 296.37 236.78 296.21 238.59 316.08 237.56" style="fill:#d0e4f0"/><path id="Shape-193" data-name="Shape" d="M296.93,239.92a.57.57,0,0,1-.44-.2.56.56,0,0,1-.16-.46l.15-1.81a.6.6,0,0,1,.57-.55l19-1a.66.66,0,0,1,.28,0,1.61,1.61,0,0,1,.92,1.22,1.76,1.76,0,0,1-.57,1.56.62.62,0,0,1-.38.16l-19.39,1Zm.72-1.84v.59l18.43-.94a.5.5,0,0,0,.07-.34.38.38,0,0,0-.13-.24Z" transform="translate(-0.72 -0.72)" style="fill:#40565b"/><ellipse id="Oval-19" data-name="Oval" cx="293.41" cy="238.1" rx="4.8" ry="4.81" transform="translate(-25.5 33.58) rotate(-6.42)" style="fill:#f36f42"/><path id="Shape-194" data-name="Shape" d="M293.41,243.48a5.4,5.4,0,1,1,1.49-.2A5.05,5.05,0,0,1,293.41,243.48Zm0-9.61a4.21,4.21,0,1,0,4,3A4.21,4.21,0,0,0,293.41,233.87Z" transform="translate(-0.72 -0.72)" style="fill:#c84a27"/><path id="Shape-195" data-name="Shape" d="M376,402.08h-.18L354,395.26l-21.81,6.26a.62.62,0,0,1-.61-.16.64.64,0,0,1-.17-.6.66.66,0,0,1,.44-.46l22-6.31a.69.69,0,0,1,.35,0l22,6.87a.62.62,0,0,1-.19,1.22Z" transform="translate(-0.72 -0.72)" style="fill:#f26f42"/><ellipse id="Oval-20" data-name="Oval" cx="378.83" cy="400.73" rx="3.5" ry="3.51" style="fill:#faac30"/><ellipse id="Oval-21" data-name="Oval" cx="327.89" cy="400.73" rx="3.5" ry="3.51" style="fill:#faac30"/><path id="Shape-196" data-name="Shape" d="M379.55,405.57a4.12,4.12,0,1,1,4.11-4.11A4.11,4.11,0,0,1,379.55,405.57Zm0-7a2.9,2.9,0,1,0,2.89,2.9A2.9,2.9,0,0,0,379.55,398.55Z" transform="translate(-0.72 -0.72)" style="fill:#f26f42"/><path id="Shape-197" data-name="Shape" d="M328.61,405.57a4.12,4.12,0,1,1,4.1-4.11A4.11,4.11,0,0,1,328.61,405.57Zm0-7a2.9,2.9,0,1,0,2.89,2.9A2.9,2.9,0,0,0,328.61,398.55Z" transform="translate(-0.72 -0.72)" style="fill:#f26f42"/><path id="Shape-198" data-name="Shape" d="M405.32,216.71c0,1.35.11,3.38.11,4.74,0,40.6-23,73.52-51.35,73.52s-51.36-32.92-51.36-73.52a102.85,102.85,0,0,1,2.19-21.29" transform="translate(-0.72 -0.72)" style="fill:#fff"/><path id="Shape-199" data-name="Shape" d="M405.43,221.45v-.26l-4.24-.7c-1.36,38.83-23.8,69.78-51.29,69.78-10.91,0-21.09-4.86-29.42-13.27,9,11.18,20.74,18,33.6,18C382.43,295,405.43,262.05,405.43,221.45Z" transform="translate(-0.72 -0.72)" style="fill:#e7f1f8"/><path id="Shape-200" data-name="Shape" d="M304,201.93c3.64-35.44,101-18.58,101,11.83" transform="translate(-0.72 -0.72)" style="fill:#a1c2d8"/><path id="Shape-201" data-name="Shape" d="M304,204.89c0-30.41,101.29-18.59,101.29,11.82" transform="translate(-0.72 -0.72)" style="fill:#fff"/><path id="Shape-202" data-name="Shape" d="M404.69,234l.64-17.27c0-30.41-101.28-42.23-101.28-11.82l-.45,3C318,185.43,398.09,200.16,404.69,234Z" transform="translate(-0.72 -0.72)" style="fill:#e7f1f8"/><path id="Shape-203" data-name="Shape" d="M354.07,295.57c-28.66,0-52-33.25-52-74.12A103.31,103.31,0,0,1,304.3,200a.62.62,0,0,1,.41-.46.64.64,0,0,1,.61.12.63.63,0,0,1,.19.59,103.13,103.13,0,0,0-2.17,21.17c0,40.2,22.77,72.91,50.75,72.91s50.75-32.77,50.75-72.91c0-1.34,0-3.34-.11-4.71a.6.6,0,0,1,.16-.44.57.57,0,0,1,.42-.19.64.64,0,0,1,.44.15.59.59,0,0,1,.19.43c0,1.4.11,3.41.11,4.76C406,262.32,382.72,295.57,354.07,295.57Z" transform="translate(-0.72 -0.72)" style="fill:#40565b"/><path id="Shape-204" data-name="Shape" d="M405.32,217.32a.6.6,0,0,1-.6-.61c0-8-7.5-15.42-21.11-21-12.2-5-28.28-8-43-8-10.36,0-19.17,1.44-25.45,4.18-6.95,3-10.46,7.37-10.46,12.95a.61.61,0,0,1-.61.61.61.61,0,0,1-.61-.61c0-6.07,3.88-10.92,11.21-14,6.46-2.8,15.44-4.28,26-4.28,30.9,0,65.34,12.39,65.34,30.17a.64.64,0,0,1-.2.43A.61.61,0,0,1,405.32,217.32Z" transform="translate(-0.72 -0.72)" style="fill:#40565b"/><polygon id="Shape-205" data-name="Shape" points="345.29 249.13 347.88 252 350.47 254.86 345.29 254.86 340.11 254.86 342.7 252 345.29 249.13" style="fill:#f36f42"/><path id="Shape-206" data-name="Shape" d="M351.19,256.18H340.83a.59.59,0,0,1-.55-.36.6.6,0,0,1,.11-.66l5.17-5.73a.63.63,0,0,1,.9,0l5.17,5.73a.61.61,0,0,1-.45,1Zm-9-1.21h7.6L346,250.75Z" transform="translate(-0.72 -0.72)" style="fill:#c84a27"/><path id="Shape-207" data-name="Shape" d="M325.44,245.2a2.13,2.13,0,0,1-1-.28,3.65,3.65,0,0,1-1.51-3.3V230.69c-1.31.14-4.27.19-6.06-1.87a.6.6,0,1,1,.92-.78c1.79,2.1,5.46,1.38,5.5,1.38h2.19a2.43,2.43,0,0,1,2.43,2.43v9.78a3.64,3.64,0,0,1-1.47,3.29A2.14,2.14,0,0,1,325.44,245.2Zm-1.34-14.57v10.93a2.53,2.53,0,0,0,.91,2.25.82.82,0,0,0,.88,0,2.53,2.53,0,0,0,.88-2.23V231.8a1.22,1.22,0,0,0-1.22-1.22Z" transform="translate(-0.72 -0.72)" style="fill:#40565b"/><path id="Shape-208" data-name="Shape" d="M312.31,225a.61.61,0,0,1-.53-.31.6.6,0,0,1,0-.62c.06-.11,6.67-10.82,15.82-7.48a.6.6,0,0,1,.2,1,.61.61,0,0,1-.61.1c-8.21-3-14.31,6.88-14.37,7A.6.6,0,0,1,312.31,225Z" transform="translate(-0.72 -0.72)" style="fill:#40565b"/><path id="Shape-209" data-name="Shape" d="M365.63,245.2a2.17,2.17,0,0,1-1.06-.3,3.63,3.63,0,0,1-1.46-3.28v-9.79a2.42,2.42,0,0,1,2.42-2.42h2.18s3.72.71,5.5-1.39a.61.61,0,0,1,.86-.06.6.6,0,0,1,.06.85c-1.75,2.07-4.71,2-6.06,1.87V241.6a3.62,3.62,0,0,1-1.51,3.3A2.17,2.17,0,0,1,365.63,245.2ZM367,230.63h-1.42a1.22,1.22,0,0,0-1.21,1.22v9.78a2.53,2.53,0,0,0,.87,2.23.84.84,0,0,0,.89,0,2.56,2.56,0,0,0,.91-2.26Z" transform="translate(-0.72 -0.72)" style="fill:#40565b"/><path id="Shape-210" data-name="Shape" d="M317.34,228.46c2.05,2.43,6.06,1.58,6.06,1.58h2.06a1.81,1.81,0,0,1,1.3.51,1.84,1.84,0,0,1,.56,1.28v9.79c0,4-3.84,3.94-3.86,0V230.45" transform="translate(-0.72 -0.72)" style="fill:#40565b"/><path id="Shape-211" data-name="Shape" d="M373.73,228.46c-2.05,2.43-6.06,1.58-6.06,1.58h-2.12a1.81,1.81,0,0,0-1.3.51,1.84,1.84,0,0,0-.56,1.28v9.79c0,4,3.84,3.94,3.86,0V230.45" transform="translate(-0.72 -0.72)" style="fill:#40565b"/><path id="Shape-212" data-name="Shape" d="M378.75,225a.6.6,0,0,1-.52-.3c-.06-.09-6.17-10-14.37-7a.61.61,0,1,1-.42-1.14c9.14-3.34,15.76,7.37,15.83,7.48a.62.62,0,0,1,0,.62A.61.61,0,0,1,378.75,225Z" transform="translate(-0.72 -0.72)" style="fill:#40565b"/><path id="Shape-213" data-name="Shape" d="M332,269.52s18.17,5.57,29.51-1.22C359.86,277.37,342.91,285.48,332,269.52Z" transform="translate(-0.72 -0.72)" style="fill:#a1c2d8"/><path id="Shape-214" data-name="Shape" d="M347.11,279.21c-5.9,0-11.44-3.29-15.58-9.35a.62.62,0,0,1,0-.71.63.63,0,0,1,.67-.22c.18,0,18.09,5.42,29.08-1.21a.61.61,0,0,1,.66,0,.63.63,0,0,1,.25.61c-.9,4.86-5.8,9.26-11.65,10.5A16.54,16.54,0,0,1,347.11,279.21Zm-13.57-8.65c4.53,5.83,10.55,8.41,16.71,7.11,4.85-1,8.95-4.34,10.34-8.19-9.44,4.81-22.43,2.23-27,1.07Z" transform="translate(-0.72 -0.72)" style="fill:#40565b"/><polyline id="Shape-215" data-name="Shape" points="388.88 235.94 408.41 236.96 408.56 238.77 388.68 237.72" style="fill:#d0e4f0"/><path id="Shape-216" data-name="Shape" d="M409.27,240.1l-19.39-1a.65.65,0,0,1-.37-.16,1.78,1.78,0,0,1-.57-1.58,1.59,1.59,0,0,1,.92-1.21.45.45,0,0,1,.28,0l19,1a.6.6,0,0,1,.57.56l.16,1.8a.63.63,0,0,1-.16.47.62.62,0,0,1-.45.19Zm-19.09-2.19,18.43.94v-.58l-18.33-.94a.38.38,0,0,0-.13.24.47.47,0,0,0,0,.33Z" transform="translate(-0.72 -0.72)" style="fill:#40565b"/><ellipse id="Oval-22" data-name="Oval" cx="412.77" cy="238.22" rx="4.8" ry="4.81" transform="translate(129.16 621.04) rotate(-83.58)" style="fill:#f36f42"/><path id="Shape-217" data-name="Shape" d="M412.81,243.65a5.41,5.41,0,1,1,5.39-4.9A5.39,5.39,0,0,1,412.81,243.65Zm-4-6.56a4.19,4.19,0,1,0,5.17-2.88,4.21,4.21,0,0,0-5.17,2.88Z" transform="translate(-0.72 -0.72)" style="fill:#c84a27"/><polygon id="Shape-218" data-name="Shape" points="711.98 452.4 732.42 414.61 71.89 414.61 2.39 452.4 711.98 452.4" style="fill:#a9d7f3"/><path id="Shape-219" data-name="Shape" d="M713.07,453.73H.72l71.74-39H734.17ZM5.5,452.51H712.34l19.79-36.57H72.76Z" transform="translate(-0.72 -0.72)" style="fill:#a9d7f3"/><path id="Shape-220" data-name="Shape" d="M712.71,454.33H3.11a1.2,1.2,0,0,1-1.18-.91,1.22,1.22,0,0,1,.6-1.37L72,414.21a1.3,1.3,0,0,1,.58-.14H733.15a1.21,1.21,0,0,1,1.06,1.79l-20.44,37.79A1.19,1.19,0,0,1,712.71,454.33ZM7.87,451.91H712l19.12-35.37H72.92Z" transform="translate(-0.72 -0.72)" style="fill:#3f555a"/><path id="Shape-221" data-name="Shape" d="M285,319.44l-17.6,94.4,74.17,20.85,18.3,8,9.94.86c9.06.79,16.11-9.32,13.41-16.92-1.59-4.48-6.23-7.6-11.6-7.8l-25.72-1L293,400.18l4.11-22.37A156.07,156.07,0,0,0,285,319.44Z" transform="translate(-0.72 -0.72)" style="fill:#fff"/><path id="Shape-222" data-name="Shape" d="M383.21,426.64c-1.59-4.48-6.23-7.6-11.6-7.8l-25.71-1L293,400.18l4.11-22.37A155.89,155.89,0,0,0,285,319.47l-2.13,11.41a157.75,157.75,0,0,1,9.52,51.69l-4.1,22.4,52.85,17.68,25.72,1c5.36.21,10,3.33,11.59,7.8A12.29,12.29,0,0,1,377,441.86C382.11,438.73,385.12,432.05,383.21,426.64Z" transform="translate(-0.72 -0.72)" style="fill:#d0e4f0"/><path id="Shape-223" data-name="Shape" d="M268.78,414.21a1.22,1.22,0,0,1-1.17-.92,1.23,1.23,0,0,1,.6-1.36l23.65-12.58a1.19,1.19,0,0,1,1.21,0,1.22,1.22,0,0,1,.57,1.07,1.2,1.2,0,0,1-.65,1l-23.64,12.59A1.11,1.11,0,0,1,268.78,414.21Z" transform="translate(-0.72 -0.72)" style="fill:#c3d4e0"/><path id="Shape-224" data-name="Shape" d="M293.26,395.27h-.18l-20.83-3.1a1.21,1.21,0,0,1-1-.76,1.22,1.22,0,0,1,1.31-1.66l20.79,3.07a1.21,1.21,0,1,1-.17,2.42Z" transform="translate(-0.72 -0.72)" style="fill:#c3d4e0"/><path id="Shape-225" data-name="Shape" d="M295.91,380.83a1.23,1.23,0,0,1-.75-.27L280.73,369a1.21,1.21,0,0,1-.16-1.68,1.22,1.22,0,0,1,1.68-.21l14.43,11.58a1.22,1.22,0,0,1-.77,2.16Z" transform="translate(-0.72 -0.72)" style="fill:#c3d4e0"/><path id="Shape-226" data-name="Shape" d="M294.38,416.37a1.21,1.21,0,0,1-1.08-1.76l5.81-11.51a1.21,1.21,0,0,1,2.17,1.09l-5.81,11.52A1.2,1.2,0,0,1,294.38,416.37Z" transform="translate(-0.72 -0.72)" style="fill:#c3d4e0"/><path id="Shape-227" data-name="Shape" d="M312.55,423.35a1.24,1.24,0,0,1-1-.5,1.26,1.26,0,0,1-.16-1.1l4.47-13.16a1.24,1.24,0,0,1,.91-.87,1.21,1.21,0,0,1,1.38,1.65l-4.45,13.16A1.2,1.2,0,0,1,312.55,423.35Z" transform="translate(-0.72 -0.72)" style="fill:#c3d4e0"/><path id="Shape-228" data-name="Shape" d="M331.27,425.57H331a1.17,1.17,0,0,1-.77-.53,1.22,1.22,0,0,1-.16-.91l2.15-10a1.24,1.24,0,0,1,.83-.93,1.22,1.22,0,0,1,1.21.26,1.24,1.24,0,0,1,.39,1.18l-2.16,10A1.2,1.2,0,0,1,331.27,425.57Z" transform="translate(-0.72 -0.72)" style="fill:#c3d4e0"/><path id="Shape-229" data-name="Shape" d="M370.76,444.21h-1l-9.94-.86h-.19l-18.3-8.11-74.1-20.82a.61.61,0,0,1-.44-.69l17.59-94.4a.6.6,0,0,1,.54-.66.61.61,0,0,1,.67.54c.13.34,13.67,33.8,12.2,58.61v.07l-4,21.84L346,417.22l25.63,1c5.6.21,10.47,3.51,12.12,8.21a13.29,13.29,0,0,1-2.42,12.3A13.47,13.47,0,0,1,370.76,444.21ZM360,442.13l9.84.86a12.88,12.88,0,0,0,12.8-16.12c-1.5-4.23-5.94-7.21-11.05-7.4l-25.72-1h-.17l-52.85-17.74a.61.61,0,0,1-.4-.68l4.09-22.35c1.22-21.08-8.48-48.55-11.35-56.06L268.07,413.4l73.64,20.7Z" transform="translate(-0.72 -0.72)" style="fill:#40565b"/><path id="Shape-230" data-name="Shape" d="M341.56,435.29h-.16a.6.6,0,0,1-.43-.74l4.35-16.83a.62.62,0,0,1,.75-.46.63.63,0,0,1,.46.76l-4.39,16.82A.6.6,0,0,1,341.56,435.29Z" transform="translate(-0.72 -0.72)" style="fill:#40565b"/><path id="Shape-231" data-name="Shape" d="M420.68,319.44l17.58,94.4-74.17,20.85-18.3,8-9.94.86c-9.06.79-16.11-9.32-13.41-16.92,1.59-4.48,6.23-7.6,11.6-7.8l25.71-1,52.86-17.67-4.1-22.39A155.9,155.9,0,0,1,420.68,319.44Z" transform="translate(-0.72 -0.72)" style="fill:#fff"/><path id="Shape-232" data-name="Shape" d="M420.68,319.44,419.11,327l15.14,81.11-74.17,20.85-18.3,8-9.94.86a12.06,12.06,0,0,1-9.06-3.11c2,5.14,7.1,9.4,13.11,8.88l9.94-.86,18.29-8,74.14-20.85Z" transform="translate(-0.72 -0.72)" style="fill:#d0e4f0"/><path id="Shape-233" data-name="Shape" d="M436.89,414.21a1.23,1.23,0,0,1-.57-.14l-23.64-12.59a1.2,1.2,0,0,1-.65-1,1.22,1.22,0,0,1,1.79-1.12l23.64,12.59a1.21,1.21,0,0,1-.57,2.28Z" transform="translate(-0.72 -0.72)" style="fill:#c3d4e0"/><path id="Shape-234" data-name="Shape" d="M412.4,395.27a1.22,1.22,0,0,1-.17-2.43L433,389.77a1.23,1.23,0,1,1,.35,2.43l-20.79,3.07Z" transform="translate(-0.72 -0.72)" style="fill:#c3d4e0"/><path id="Shape-235" data-name="Shape" d="M409.76,380.83a1.22,1.22,0,0,1-.77-2.16l14.44-11.58a1.21,1.21,0,0,1,2,.75,1.22,1.22,0,0,1-.47,1.14l-14.43,11.58A1.21,1.21,0,0,1,409.76,380.83Z" transform="translate(-0.72 -0.72)" style="fill:#c3d4e0"/><path id="Shape-236" data-name="Shape" d="M411.28,416.37a1.21,1.21,0,0,1-1.07-.66l-5.82-11.52a1.21,1.21,0,1,1,2.17-1.09l5.81,11.51a1.21,1.21,0,0,1-1.07,1.76Z" transform="translate(-0.72 -0.72)" style="fill:#c3d4e0"/><path id="Shape-237" data-name="Shape" d="M393.12,423.35a1.22,1.22,0,0,1-1.15-.82l-4.45-13.17a1.23,1.23,0,0,1,.19-1.25,1.22,1.22,0,0,1,1.19-.4,1.19,1.19,0,0,1,.91.87l4.45,13.16a1.21,1.21,0,0,1-.17,1.09,1.19,1.19,0,0,1-1,.51Z" transform="translate(-0.72 -0.72)" style="fill:#c3d4e0"/><path id="Shape-238" data-name="Shape" d="M374.4,425.57a1.21,1.21,0,0,1-1.21-1l-2.16-10a1.25,1.25,0,0,1,.39-1.18,1.23,1.23,0,0,1,2,.67l2.16,10a1.19,1.19,0,0,1-.17.92,1.22,1.22,0,0,1-.76.53Z" transform="translate(-0.72 -0.72)" style="fill:#c3d4e0"/><path id="Shape-239" data-name="Shape" d="M334.91,444.21a13.45,13.45,0,0,1-10.54-5.48,13.28,13.28,0,0,1-2.43-12.28c1.67-4.7,6.55-8,12.12-8.22l25.63-1L412,399.76l-4-21.85v-.07c-1.46-24.8,12.12-58.25,12.2-58.6a.62.62,0,0,1,.67-.55.61.61,0,0,1,.55.67L439,413.75a.6.6,0,0,1-.43.69l-74.17,20.85-18.18,8H346l-9.94.86A9.93,9.93,0,0,1,334.91,444.21Zm74.27-66.5,4.09,22.35a.61.61,0,0,1-.4.68L360,418.42h-.17l-25.72,1c-5.1.19-9.53,3.16-11.05,7.4a12.88,12.88,0,0,0,12.8,16.12l9.84-.87,18.17-8,73.73-20.73-17.13-91.74C417.66,329.16,407.89,356.63,409.18,377.71Z" transform="translate(-0.72 -0.72)" style="fill:#40565b"/><path id="Shape-240" data-name="Shape" d="M364.11,435.29a.6.6,0,0,1-.58-.45L359.18,418a.64.64,0,0,1,.45-.76.63.63,0,0,1,.76.46l4.35,16.83a.61.61,0,0,1-.06.46.64.64,0,0,1-.37.28Z" transform="translate(-0.72 -0.72)" style="fill:#40565b"/><g id="Group" style="opacity:0.20000000298023224"><path id="Shape-241" data-name="Shape" d="M497.49,434.84a263.82,263.82,0,0,1-28.67-1.36,50.88,50.88,0,0,1-11.07-2.14c-.84-.29-3.7-1.4-4.52-3.49a2.78,2.78,0,0,1,.16-2.42,5.58,5.58,0,0,1,2.84-2.15,37.22,37.22,0,0,1,24.91-1.22c1.61.51,3.64,1.68,4.17,3.28a2.46,2.46,0,0,1-.46,2.3c-1,1.31-3,1.65-6.06,1l-6.32-1.31a1.21,1.21,0,0,1-.68-2,3,3,0,0,1,3.4-.88,1.23,1.23,0,0,1,.78,1.1l3.32.69c2.21.46,3.34.2,3.63-.15,0-.36-1-1.21-2.54-1.73a34.7,34.7,0,0,0-23.22,1.14,4.1,4.1,0,0,0-1.68,1.1.37.37,0,0,0,0,.38,5.41,5.41,0,0,0,3,2.06,48.9,48.9,0,0,0,10.53,2c18.28,1.9,37.07,1.3,55.24.69,8.86-.29,18-.59,27-.59a1.21,1.21,0,0,1,0,2.42c-9,0-18.12.31-27,.6S506.53,434.84,497.49,434.84Z" transform="translate(-0.72 -0.72)" style="fill:#3f555a"/><path id="Shape-242" data-name="Shape" d="M460.52,440.35a1.12,1.12,0,0,1-.45-.08c-13.4-5.34-28.8-5.67-46.11-5.55a1.21,1.21,0,1,1,0-2.42c17.56-.14,33.22.21,47,5.71a1.22,1.22,0,0,1,.74,1.36,1.2,1.2,0,0,1-1.19,1Z" transform="translate(-0.72 -0.72)" style="fill:#3f555a"/><path id="Shape-243" data-name="Shape" d="M662.18,447.13a98.43,98.43,0,0,1-23.46-2.43,133.56,133.56,0,0,1-12.82-4.09c-3.64-1.31-7.46-2.66-11.31-3.64a78.53,78.53,0,0,0-28.88-2.11,152.93,152.93,0,0,0-17.48,3.31c-3.19.74-6.48,1.49-9.78,2.12-11.51,2.22-20.81,2.21-28.41,0a1.2,1.2,0,0,1-.83-1.5,1.21,1.21,0,0,1,1.5-.83c7.27,2.13,16.16,2.11,27.28,0,3.25-.62,6.52-1.38,9.69-2.11a157.43,157.43,0,0,1,17.76-3.36,81.13,81.13,0,0,1,29.76,2.18c3.95,1.06,7.79,2.43,11.5,3.75a130.17,130.17,0,0,0,12.59,4c14.54,3.64,30.66,2.43,44.89,1.34a1.21,1.21,0,0,1,1.1.52,1.26,1.26,0,0,1,.09,1.22,1.21,1.21,0,0,1-1,.68C677.31,446.57,669.77,447.13,662.18,447.13Z" transform="translate(-0.72 -0.72)" style="fill:#3f555a"/><path id="Shape-244" data-name="Shape" d="M548.28,426.45a28.07,28.07,0,0,1-9.47-1.67,1.21,1.21,0,0,1,.82-2.28,25.52,25.52,0,0,0,18.25-.35l.17-.07-.47-.15a12.29,12.29,0,0,0-4.72-.13,1.21,1.21,0,0,1-.87,1.09,4,4,0,0,1-3-.3,1.24,1.24,0,0,1-.66-1.13,1.22,1.22,0,0,1,.74-1.07,14.69,14.69,0,0,1,9-.84c1.87.44,2.89,1.43,2.75,2.68s-1.61,1.95-2.06,2.14A28.15,28.15,0,0,1,548.28,426.45Z" transform="translate(-0.72 -0.72)" style="fill:#3f555a"/><path id="Shape-245" data-name="Shape" d="M663.52,436.36c-10.76,0-22.1-2.31-34.26-5.08-17.43-4-34.34-7.19-49.46-2.59a1.2,1.2,0,0,1-1.23-.23,1.22,1.22,0,0,1-.37-1.21,1.24,1.24,0,0,1,.9-.88c15.75-4.75,32.95-1.51,50.71,2.55,18.18,4.15,34.46,7.28,49.51,3,1.92-.54,3.43-1.65,3.64-2.33a.57.57,0,0,0-.08-.3,3.47,3.47,0,0,0-1.6-.83,23,23,0,0,0-13,0,4,4,0,0,0,1.68,0,1.22,1.22,0,1,1,.55,2.37,6.13,6.13,0,0,1-6.05-1.83,1.21,1.21,0,0,1,.47-1.87,25.24,25.24,0,0,1,17-1,5.76,5.76,0,0,1,2.76,1.5l.09.1a2.72,2.72,0,0,1,.57,2.62c-.56,1.85-3.07,3.33-5.3,4A59.65,59.65,0,0,1,663.52,436.36Z" transform="translate(-0.72 -0.72)" style="fill:#3f555a"/><path id="Shape-246" data-name="Shape" d="M654.76,426.12a284.79,284.79,0,0,1-28.42-2.51,1.24,1.24,0,0,1-1-1.39,1.22,1.22,0,0,1,1.38-1,265.79,265.79,0,0,0,28.18,2.43,1.21,1.21,0,1,1,0,2.42Z" transform="translate(-0.72 -0.72)" style="fill:#3f555a"/></g><g id="Group-2" data-name="Group" style="opacity:0.20000000298023224"><path id="Shape-247" data-name="Shape" d="M534.59,501.29a35.94,35.94,0,0,1-14.24-2.89,9,9,0,0,1-4.92-4.79,4,4,0,0,1,.38-3.34c.87-1.45,2.91-2.87,7.63-1.48l8.17,2.43a1.17,1.17,0,0,1,.79.74,1.19,1.19,0,0,1-.11,1.08,3.18,3.18,0,0,1-4.24,1.28,1.22,1.22,0,0,1-.5-1.64l.06-.11-4.85-1.4c-1.47-.43-4.07-.95-4.84.41a1.53,1.53,0,0,0-.15,1.35,6.63,6.63,0,0,0,3.58,3.29,34.5,34.5,0,0,0,30.13-1.67,5.37,5.37,0,0,0,2.43-2.21c.93-2.18-1.85-4.66-4.1-5.72A49.13,49.13,0,0,0,536.19,483c-23.62-3.64-48-2.87-71.59-2.09-11.5.37-23.37.76-35.05.64a1.22,1.22,0,1,1,0-2.43c11.62.12,23.48-.27,34.94-.64,23.7-.79,48.21-1.59,72,2.12a51.44,51.44,0,0,1,14.29,3.89c3.75,1.76,6.78,5.37,5.29,8.87a7.57,7.57,0,0,1-3.48,3.37A36.81,36.81,0,0,1,534.59,501.29Z" transform="translate(-0.72 -0.72)" style="fill:#3f555a"/><path id="Shape-248" data-name="Shape" d="M662.85,486.14c-22.75,0-43.05-.85-60.83-10.57a1.23,1.23,0,1,1,1.22-2.13c17.28,9.45,37.25,10.24,59.66,10.28a1.21,1.21,0,1,1,0,2.42Z" transform="translate(-0.72 -0.72)" style="fill:#3f555a"/><path id="Shape-249" data-name="Shape" d="M254.39,492A165.18,165.18,0,0,1,213.82,487c-7.39-1.91-14.54-4.36-21.55-6.73-7.69-2.62-15.64-5.31-23.83-7.28-27.59-6.58-58.16-4.85-85.19-3.26a1.22,1.22,0,0,1-.14-2.43c27.15-1.57,57.94-3.34,85.89,3.32,8.3,2,16.31,4.71,24.05,7.29,6.92,2.35,14.07,4.78,21.36,6.66a162.92,162.92,0,0,0,54.94,4.29,314.16,314.16,0,0,0,33.25-5.42c6.06-1.21,12.25-2.43,18.46-3.48,21.59-3.58,39-3.39,53.13.6a1.22,1.22,0,0,1,.85.87,1.22,1.22,0,0,1-1.5,1.48c-13.82-3.89-30.85-4.07-52.11-.55-6.16,1-12.37,2.27-18.37,3.46a321.1,321.1,0,0,1-33.5,5.46A148.35,148.35,0,0,1,254.39,492Z" transform="translate(-0.72 -0.72)" style="fill:#3f555a"/><path id="Shape-250" data-name="Shape" d="M413.53,510.26a14.37,14.37,0,0,1-4.32-.66c-2.11-.68-3.32-2.09-3.17-3.64a4.13,4.13,0,0,1,2.42-2.92,27.82,27.82,0,0,1,25.9-.39,1.21,1.21,0,0,1-1.08,2.17,25.43,25.43,0,0,0-23.68.35c-.86.47-1.08.84-1.1,1.06s.63.82,1.49,1.1a12,12,0,0,0,6.64.17,1.24,1.24,0,0,1-.1-.2,1.27,1.27,0,0,1,0-.94,1.22,1.22,0,0,1,.69-.63,4.07,4.07,0,0,1,3.84.55,1.2,1.2,0,0,1,.51,1.05,1.23,1.23,0,0,1-.62,1A15.21,15.21,0,0,1,413.53,510.26Z" transform="translate(-0.72 -0.72)" style="fill:#3f555a"/><path id="Shape-251" data-name="Shape" d="M248.17,510.38c-14.21,0-29.08-4.2-44.18-9-23.48-7.46-44.52-13.06-64.1-5.85-2,.76-4.39,2.43-5,4.28a2.14,2.14,0,0,0,.15,1.86,4.55,4.55,0,0,0,2.22,1.62,22.7,22.7,0,0,0,18.77-.71,4.28,4.28,0,0,0-4-.94,1.22,1.22,0,0,1-1.21-.25,1.24,1.24,0,0,1-.36-1.18,1.21,1.21,0,0,1,.86-.89,6.7,6.7,0,0,1,7.64,3.06,1.2,1.2,0,0,1-.46,1.66,25.09,25.09,0,0,1-22,1.54,6.88,6.88,0,0,1-3.38-2.43l-.07-.09a4.51,4.51,0,0,1-.41-4c.92-2.66,3.9-4.86,6.45-5.76,20.3-7.47,41.76-1.79,65.68,5.82,22.51,7.16,44.36,13,64.07,5.19a1.21,1.21,0,0,1,.88,2.26A58.3,58.3,0,0,1,248.17,510.38Z" transform="translate(-0.72 -0.72)" style="fill:#3f555a"/><path id="Shape-252" data-name="Shape" d="M86.94,494.58h-.23a274.66,274.66,0,0,0-36.46-4.72,1.25,1.25,0,0,1-1-.67,1.24,1.24,0,0,1,.08-1.22,1.19,1.19,0,0,1,1.08-.54,275.89,275.89,0,0,1,36.79,4.76,1.22,1.22,0,1,1-.23,2.42Z" transform="translate(-0.72 -0.72)" style="fill:#3f555a"/></g><path id="Shape-253" data-name="Shape" d="M712.11,475.72a1.22,1.22,0,0,1-1.21-1.22V453.12a1.21,1.21,0,0,1,2.42,0V474.5A1.22,1.22,0,0,1,712.11,475.72Z" transform="translate(-0.72 -0.72)" style="fill:#3f555a"/><polyline id="Shape-254" data-name="Shape" points="261.85 423.77 220.55 448.49 95.63 441.69" style="fill:#d0e4f0"/><polyline id="Shape-255" data-name="Shape" points="168.58 413.81 261.85 419.14 220.55 443.87 95.16 436.89" style="fill:#d0e4f0"/><polyline id="Shape-256" data-name="Shape" points="146.56 417.77 239.83 423.11 206.99 442.77" style="fill:#a1c2d8"/><polyline id="Shape-257" data-name="Shape" points="261.85 423.77 261.85 419.14 246.55 428.3" style="fill:#d0e4f0"/><path id="Shape-258" data-name="Shape" d="M221.27,444.59v4.61" transform="translate(-0.72 -0.72)" style="fill:#d0e4f0"/><path id="Shape-259" data-name="Shape" d="M221.27,449.81,96.35,443a.62.62,0,0,1-.42-.2.64.64,0,0,1-.15-.44A.6.6,0,0,1,96,442a.57.57,0,0,1,.45-.15l124.73,6.78,41.09-24.66a.62.62,0,0,1,.93.51.63.63,0,0,1-.31.54l-41.3,24.72A.62.62,0,0,1,221.27,449.81Z" transform="translate(-0.72 -0.72)" style="fill:#a1c2d8"/><path id="Shape-260" data-name="Shape" d="M221.27,445.2l-125.43-7a.59.59,0,0,1-.41-.21.6.6,0,0,1,0-.86.57.57,0,0,1,.45-.15l125.21,7,39.44-23.6-91.32-5.25a.62.62,0,0,1-.42-.2.64.64,0,0,1-.15-.44.6.6,0,0,1,.2-.42.59.59,0,0,1,.44-.15l93.31,5.35a.61.61,0,0,1,.56.46.62.62,0,0,1-.28.67l-41.3,24.72A.67.67,0,0,1,221.27,445.2Z" transform="translate(-0.72 -0.72)" style="fill:#a1c2d8"/><polygon id="Rectangle-path-11" data-name="Rectangle-path" points="140.28 422.05 140.35 420.84 233.76 426.2 233.69 427.4 140.28 422.05" style="fill:#d0e4f0"/><polygon id="Rectangle-path-12" data-name="Rectangle-path" points="131.52 427.31 131.59 426.11 224.99 431.46 224.93 432.67 131.52 427.31" style="fill:#d0e4f0"/><polygon id="Rectangle-path-13" data-name="Rectangle-path" points="195.38 441.3 227.51 422.08 228.14 423.12 196 442.34 195.38 441.3" style="fill:#d0e4f0"/><path id="Shape-261" data-name="Shape" d="M262.56,425.14a.61.61,0,0,1-.61-.61v-4.61a.61.61,0,1,1,1.21,0v4.61A.61.61,0,0,1,262.56,425.14Z" transform="translate(-0.72 -0.72)" style="fill:#a1c2d8"/><path id="Shape-262" data-name="Shape" d="M221.27,449.81a.6.6,0,0,1-.6-.61v-4.65a.61.61,0,0,1,1.21,0v4.61a.62.62,0,0,1-.61.65Z" transform="translate(-0.72 -0.72)" style="fill:#a1c2d8"/><path id="Shape-263" data-name="Shape" d="M207.71,444.09a.62.62,0,0,1-.59-.44.61.61,0,0,1,.28-.69l31.14-18.64-91.29-5.25a.61.61,0,0,1,.07-1.22l93.3,5.34a.61.61,0,0,1,.56.46.6.6,0,0,1-.28.67L208,444A.72.72,0,0,1,207.71,444.09Z" transform="translate(-0.72 -0.72)" style="fill:#a1c2d8"/><path id="Shape-264" data-name="Shape" d="M221.27,449.2,96.35,442.4,86.94,353a6.25,6.25,0,0,1,6.49-6.27l112.38,4a6.27,6.27,0,0,1,6.06,6.28Z" transform="translate(-0.72 -0.72)" style="fill:#e7f1f8"/><path id="Shape-265" data-name="Shape" d="M221.27,449.81,96.35,443a.61.61,0,0,1-.57-.54L86.37,353a6.87,6.87,0,0,1,7.11-6.94l112.38,4a6.88,6.88,0,0,1,6.63,6.89l9.41,92.23a.62.62,0,0,1-.15.47.65.65,0,0,1-.45.2Zm-124.37-8,123.69,6.73L211.25,357a5.66,5.66,0,0,0-5.46-5.73l-112.38-4a5.64,5.64,0,0,0-4.13,1.58A5.71,5.71,0,0,0,87.54,353Z" transform="translate(-0.72 -0.72)" style="fill:#a1c2d8"/><path id="Shape-266" data-name="Shape" d="M156.09,410.57l-.76-7.45h-9.61l.6,7.15h-6L139.13,395c-.51-6.84,2.78-10.47,9.62-10.56,7.14-.1,11.18,5.49,12,12.33l1.59,13.89ZM154.59,396c-.35-3.46-1.81-5.87-5.32-5.84-3.31,0-4.47,2.08-4.18,5.52l.18,2.08h9.51Z" transform="translate(-0.72 -0.72)" style="fill:#fff"/><path id="Shape-267" data-name="Shape" d="M162.3,411.26h-6.21a.68.68,0,0,1-.66-.6l-.72-6.88h-8.48l.57,6.52a.59.59,0,0,1-.14.44.55.55,0,0,1-.42.17h-6.06a.65.65,0,0,1-.65-.61L138.38,395c-.55-7.21,3-11.07,10.13-11.16a11.07,11.07,0,0,1,8,3,15.91,15.91,0,0,1,4.59,9.95l1.6,13.9a.49.49,0,0,1-.12.42.55.55,0,0,1-.41.19Zm-5.74-1.21h5L160,396.77a14.53,14.53,0,0,0-4.13-9.09,10,10,0,0,0-7.19-2.63c-6.53.1-9.58,3.45-9.08,9.95l1.12,14.7h4.85l-.56-6.53a.62.62,0,0,1,.14-.43.56.56,0,0,1,.41-.18h9.59a.69.69,0,0,1,.66.61Zm-1.79-11.61h-9.52a.68.68,0,0,1-.65-.61l-.18-2.08c-.34-4,1.21-6.06,4.7-6.12A5.35,5.35,0,0,1,153,391a7.85,7.85,0,0,1,2.11,5.09l.19,1.77a.51.51,0,0,1-.53.61Zm-9-1.22h8.33l-.14-1.21a6.57,6.57,0,0,0-1.66-4.24,4.2,4.2,0,0,0-3-1c-2.78,0-3.94,1.59-3.64,4.91Z" transform="translate(-0.72 -0.72)" style="fill:#a1c2d8"/><path id="Shape-268" data-name="Shape" d="M508,346.36l-46.87,16.3s-24.95-7.65-29.3-5.87-36.81,9.7-36.81,16.22,30.29-3.86,28.91-2.3c-7.11,5.34-3.63,26.9,13.85,24.75,11.54-5.8,29.19-6.87,29.19-6.87L534.23,366l30.29-89.8c3.88-15.78-9.49-22.8-15.12-13C545.06,270.89,508,346.36,508,346.36Z" transform="translate(-0.72 -0.72)" style="fill:#fff"/><path id="Shape-269" data-name="Shape" d="M427.57,362.65c1-1.11-19.06,5-27.87,5.57-2.85,1.61-4.69,3.24-4.69,4.79,0,4.75,20.84-.54,29.08-2.61C424.35,367.1,425.51,364.2,427.57,362.65Z" transform="translate(-0.72 -0.72)" style="fill:#d0e4f0"/><path id="Shape-270" data-name="Shape" d="M563.9,264.29a22,22,0,0,1-.68,5l-30.29,89.81-67.21,22.57s-17.66,1.08-29.2,6.87c-8.48,1.05-13.7-3.52-16-9.1,0,7.92,5.36,17.49,17.32,16,11.54-5.8,29.19-6.87,29.19-6.87l67.22-22.57,30.29-89.81A17.88,17.88,0,0,0,563.9,264.29Z" transform="translate(-0.72 -0.72)" style="fill:#d0e4f0"/><path id="Shape-271" data-name="Shape" d="M490.11,380.83a1.22,1.22,0,0,1-1.08-.66l-11.29-21.84a1.21,1.21,0,1,1,2.15-1.12l11.3,21.85a1.21,1.21,0,0,1,0,1.18A1.22,1.22,0,0,1,490.11,380.83Z" transform="translate(-0.72 -0.72)" style="fill:#c3d4e0"/><path id="Shape-272" data-name="Shape" d="M519.17,371.45a1.24,1.24,0,0,1-.95-.45l-17-21a1.21,1.21,0,0,1,.75-2,1.23,1.23,0,0,1,1.14.43l17,21a1.21,1.21,0,0,1,.16,1.29,1.23,1.23,0,0,1-1.1.69Z" transform="translate(-0.72 -0.72)" style="fill:#c3d4e0"/><path id="Shape-273" data-name="Shape" d="M533,366.34a1.22,1.22,0,0,1-.73-.25l-24.23-18.2a1.21,1.21,0,0,1,.25-2.09,1.2,1.2,0,0,1,1.2.15l24.24,18.2a1.24,1.24,0,0,1,.42,1.36A1.23,1.23,0,0,1,533,366.34Z" transform="translate(-0.72 -0.72)" style="fill:#c3d4e0"/><path id="Shape-274" data-name="Shape" d="M542.41,339.33a.92.92,0,0,1-.33,0l-26-7.17a1.21,1.21,0,0,1-.86-.86,1.23,1.23,0,0,1,.32-1.17,1.2,1.2,0,0,1,1.18-.31l26,7.17a1.23,1.23,0,0,1-.33,2.43Z" transform="translate(-0.72 -0.72)" style="fill:#c3d4e0"/><path id="Shape-275" data-name="Shape" d="M553.8,305.16h-.08l-23.21-1.38a1.22,1.22,0,0,1-1-1.88,1.21,1.21,0,0,1,1.08-.55l23.23,1.33a1.22,1.22,0,1,1-.07,2.43Z" transform="translate(-0.72 -0.72)" style="fill:#c3d4e0"/><path id="Shape-276" data-name="Shape" d="M562.46,280.05H542.41a1.22,1.22,0,0,1,0-2.43h20.05a1.22,1.22,0,0,1,0,2.43Z" transform="translate(-0.72 -0.72)" style="fill:#c3d4e0"/><path id="Shape-277" data-name="Shape" d="M435.36,396.23a14.76,14.76,0,0,1-14.12-9.71c-2.21-5.54-1.67-11.76,1.13-15.13-1,.23-2.49.59-3.92.95-10.07,2.53-20.17,4.86-23.11,2.49a2.23,2.23,0,0,1-.9-1.83c0-5.18,16.14-10.43,31.26-14.93,2.82-.84,5-1.5,5.93-1.87,4.33-1.76,26.19,4.78,29.52,5.8l46.44-16.15c2.25-4.56,37.09-75.56,41.31-82.9,2.43-4.13,6.39-5.78,10.24-4.23,4.53,1.82,8.35,8.13,6.06,17.67l-30.37,89.8a.61.61,0,0,1-.37.38l-67.22,22.57h-.15c-.17,0-17.67,1.14-28.95,6.81h-.2A20.15,20.15,0,0,1,435.36,396.23Zm-11.51-26.29a.65.65,0,0,1,.68.34.79.79,0,0,1-.1.83l-.08.08c-3.36,2.53-4.24,9.2-2,14.88,1.22,3.05,5.15,10,15.27,8.8,11.11-5.55,27.87-6.8,29.24-6.88l66.85-22.45L564,276.07c2.17-8.79-1.22-14.56-5.29-16.2-3.3-1.34-6.65.08-8.73,3.71-4.33,7.53-41,82.31-41.38,83.06a.62.62,0,0,1-.34.3l-46.93,16.3a.62.62,0,0,1-.38,0c-6.88-2.11-25.45-7.28-28.89-5.88-.94.38-3.09,1-6.06,1.9-9.1,2.71-30.39,9.07-30.39,13.76a1,1,0,0,0,.43.88c2.72,2.13,15.3-1,22.06-2.71A37.29,37.29,0,0,1,423.85,369.94Z" transform="translate(-0.72 -0.72)" style="fill:#40565b"/><path id="Shape-278" data-name="Shape" d="M463.7,390.06a.6.6,0,0,1-.6-.54l-2.5-26.81a.6.6,0,1,1,1.2-.11l2.5,26.81a.6.6,0,0,1-.55.65Z" transform="translate(-0.72 -0.72)" style="fill:#40565b"/></g></g></g></svg>