<svg id="Layer_3" data-name="Layer 3" xmlns="http://www.w3.org/2000/svg" viewBox="0 0 280 280"><defs><style>.cls-1,.cls-8{fill:#d0e4f1;}.cls-2{fill:#f7d23f;}.cls-10,.cls-17,.cls-3,.cls-7,.cls-9{fill:none;}.cls-3{stroke:#fff;}.cls-10,.cls-11,.cls-12,.cls-13,.cls-14,.cls-15,.cls-16,.cls-17,.cls-3,.cls-7,.cls-8,.cls-9{stroke-linecap:round;stroke-linejoin:round;}.cls-14,.cls-15,.cls-4{fill:#fff;}.cls-11,.cls-5{fill:#f56f40;}.cls-12,.cls-6{fill:#19bc9c;}.cls-12,.cls-7{stroke:#109995;}.cls-14,.cls-8,.cls-9{stroke:#a1c2d8;}.cls-10,.cls-15{stroke:#3f555a;}.cls-11{stroke:#d65129;}.cls-13{fill:#2173a1;stroke:#3290c1;}.cls-16{fill:#3290c1;}.cls-16,.cls-17{stroke:#1e6b96;}</style></defs><title>Interactive texts</title><rect class="cls-1" x="81.1" y="100.98" width="133.66" height="96.89" rx="3" ry="3"/><path class="cls-2" d="M50.89,158.25H73.53A2.46,2.46,0,0,1,76,160.71v18.62a2.46,2.46,0,0,1-2.46,2.46H60.29l-6,6v-6H50.89a2.46,2.46,0,0,1-2.46-2.46V160.71A2.46,2.46,0,0,1,50.89,158.25Z"/><line class="cls-3" x1="66.17" y1="164.9" x2="54.82" y2="164.9"/><line class="cls-3" x1="70.16" y1="169.95" x2="54.82" y2="169.95"/><path class="cls-3" d="M66.17,175H54.82"/><path class="cls-2" d="M221.88,82.13H197.14a2.21,2.21,0,0,0-2.21,2.21v16.71a2.21,2.21,0,0,0,2.21,2.21h16.3l5.39,5.39v-5.39h3a2.21,2.21,0,0,0,2.21-2.21V84.34A2.21,2.21,0,0,0,221.88,82.13Z"/><line class="cls-3" x1="200.43" y1="88.1" x2="218.35" y2="88.1"/><line class="cls-3" x1="212.91" y1="92.64" x2="218.35" y2="92.64"/><path class="cls-3" d="M213.51,97.18h4.84"/><rect class="cls-4" x="74.1" y="93.98" width="133.66" height="96.89" rx="3" ry="3"/><path class="cls-1" d="M94.82,142.35a20,20,0,0,1-10.14-.94,11.73,11.73,0,0,1-7-7.12c-1.16-3.78.18-8,2.68-11.07s6-5.12,9.61-6.76c6.93-3.15,14.4-4.94,21.87-6.4A271.22,271.22,0,0,1,148,105.5c10-.58,20-.61,29.8,1.38,5.48,1.11,11,2.93,15.33,6.45s7.41,9,6.91,14.57c-.59,6.53-5.79,11.78-11.53,14.94"/><path class="cls-5" d="M174.73,134.68a7.62,7.62,0,0,0,6.49-.06,18.8,18.8,0,0,1-1.91-4.25c-.07-.24-.12-.55.08-.7a.65.65,0,0,1,.44-.08l2.22.12,0-1a.81.81,0,0,0,.47.83,2.36,2.36,0,0,0,1,.18l3.09.09a4.18,4.18,0,0,1-.46-3.11.75.75,0,0,1-.66-.52,2.83,2.83,0,0,1-.11-.89,6.57,6.57,0,0,0-1.32-3.67,6.19,6.19,0,0,0,2.77-4.38,3.07,3.07,0,0,0-.52-2.35,3,3,0,0,0-1.15-.79,6.06,6.06,0,0,0-6.86,1.65,11.84,11.84,0,0,0-2,4.55.93.93,0,0,0,0,.57.87.87,0,0,0,.3.35,6.64,6.64,0,0,0,1.52.89,9.42,9.42,0,0,1-3.35,5.4,12.78,12.78,0,0,1-3.31,1.94c-.6.24-2.5.46-2.31,1.2s1.83,1.69,2.37,2.1A13.58,13.58,0,0,0,174.73,134.68Z"/><path class="cls-6" d="M163,135c-3-3.12-8.45-8.62-11.37-11.27q-2.49,2-4.84,4.15a5.28,5.28,0,0,1-2.07,2c-.28.27-.56.54-.84.81a4.59,4.59,0,0,1-.62-.25,4.94,4.94,0,0,1-5.43-2.11c-1.59-2.36-2.93-4.91-4.45-7.32l-2.56,2.25a4.77,4.77,0,0,1-3.25,2.86l-.17.15,0-.09a5,5,0,0,1-6.22-3.28,47.55,47.55,0,0,0-2.56-6.12q-2.9,5.78-6.14,11.38a6,6,0,0,1-1.78,3,1.62,1.62,0,0,1-1.42.86h0a5.33,5.33,0,0,1-3.06.13,5.51,5.51,0,0,1-3-2.3c1,1.32-.21-.2-.47-.48l-.93-1-2.34,3.26-.17-.33c-2.14,1.85-5.8,2.16-7.74-1a59,59,0,0,1-3.17-6.19l-3.41,5c-.6.88-2.5,3.14-4.12,5A1.77,1.77,0,0,0,82.16,137l79.82.23A1.35,1.35,0,0,0,163,135Z"/><polyline class="cls-7" points="82.59 131.71 92.26 119.06 99.24 131.56 104.17 125.24 110.09 132.06 122.41 110.7 128.02 125.29 136.53 117.69 144.71 129.41 154.54 121.38 160.65 127.73"/><line class="cls-7" x1="121.48" y1="124.94" x2="121.48" y2="142.34"/><path class="cls-7" d="M157.06,137.47l3.58,0"/><path class="cls-7" d="M138.42,137.63q6.81,0,13.62-.1"/><path class="cls-7" d="M123.37,137.65h10"/><path class="cls-7" d="M106.16,137.56q6.45.06,12.91.08"/><path class="cls-7" d="M93.81,137.42l7.56.1"/><line class="cls-7" x1="83.51" y1="137.29" x2="90.29" y2="137.42"/><line class="cls-7" x1="104.49" y1="132.37" x2="104.49" y2="142.73"/><path class="cls-7" d="M91.74,128.66v13.81"/><line class="cls-7" x1="136.22" y1="126.53" x2="136.22" y2="142.33"/><path class="cls-7" d="M154.54,129.85V142.6"/><path class="cls-7" d="M121.71,128.4l1.87-1.75"/><path class="cls-7" d="M122,133.84q2.36-2.21,4.93-4.19"/><path class="cls-7" d="M115.79,127l5.35,4.9"/><path class="cls-7" d="M115.68,132l1.93,1.52"/><path class="cls-7" d="M131.77,128.68l3.62,3.3"/><path class="cls-7" d="M136.79,135.3l3.78-3.62"/><path class="cls-7" d="M151.74,132l2.67,2.36"/><path class="cls-7" d="M154.72,131.52l2-1.9"/><path class="cls-7" d="M104.54,135.3l1.89-2.2"/><path class="cls-7" d="M91.7,134.58l3.71-3.38"/><path class="cls-7" d="M88.35,128.84l3,2.83"/><path class="cls-1" d="M58.53,122.34H44.71a1.5,1.5,0,0,0-1.5,1.5v11.36a1.5,1.5,0,0,0,1.5,1.5h8.08l3.66,3.66v-3.66h2.07a1.5,1.5,0,0,0,1.5-1.5V123.84A1.5,1.5,0,0,0,58.53,122.34Z"/><path class="cls-1" d="M220.87,129.43h19.77a2.15,2.15,0,0,1,2.15,2.15v16.26a2.15,2.15,0,0,1-2.15,2.15H229.07l-5.24,5.24V150h-3a2.15,2.15,0,0,1-2.15-2.15V131.58A2.15,2.15,0,0,1,220.87,129.43Z"/><path class="cls-2" d="M180.21,159.41a2,2,0,0,0-2-2H137.58a2,2,0,0,0-2,2v4.75a2,2,0,0,0,2,2h34.24a2,2,0,0,0,2-2v-.73a2,2,0,0,1,2-2h2.35a2,2,0,0,0,2-2Z"/><path class="cls-8" d="M92.66,164.11H81.46a2.35,2.35,0,0,0-2.35-2.35v-11.2a2.35,2.35,0,0,0,2.35-2.35h11.2A2.35,2.35,0,0,0,95,150.56v11.2A2.35,2.35,0,0,0,92.66,164.11Z"/><path class="cls-3" d="M83.37,156.91a1.34,1.34,0,0,0-1.08,1.46,1.89,1.89,0,0,0,.39,1.15,1.43,1.43,0,0,0,1.14.53,2.29,2.29,0,0,0,1.61-1.2c1.6-2.31,3.07-4.69,4.52-7.08v8.28"/><line class="cls-3" x1="91.32" y1="160.06" x2="88.52" y2="160.06"/><line class="cls-3" x1="89.66" y1="156.87" x2="86.86" y2="156.87"/><path class="cls-9" d="M121.19,149.8h4.18"/><path class="cls-9" d="M108,149.8H117"/><path class="cls-9" d="M100.67,149.8h3.54"/><path class="cls-9" d="M115.06,154.88h11.23"/><path class="cls-9" d="M100.67,154.88h9.46"/><line class="cls-9" x1="99.64" y1="159.5" x2="108.75" y2="159.5"/><line class="cls-9" x1="112.1" y1="159.5" x2="121.2" y2="159.5"/><path class="cls-9" d="M99.64,164.11h6.43"/><path class="cls-9" d="M109.15,164.11h6.43"/><path class="cls-9" d="M119.41,164.11h6.43"/><path class="cls-9" d="M116.55,168.73h9.74"/><path class="cls-9" d="M95,168.73h16.35"/><path class="cls-9" d="M81,168.73h8.17"/><path class="cls-6" d="M126.65,175.6h0a2,2,0,0,1-2-2V173a2,2,0,0,0-2-2H81.05a2,2,0,0,0-2,2v10.07a2,2,0,0,0,2,2H116a2,2,0,0,0,2-2v-.8a2,2,0,0,1,2-2h6.76a2,2,0,0,0,2-2v-.83A2,2,0,0,0,126.65,175.6Z"/><path class="cls-3" d="M105.09,173.35h15.63"/><path class="cls-3" d="M81,173.35H99.3"/><path class="cls-3" d="M118.43,178h7.86"/><path class="cls-3" d="M94.69,178H113"/><path class="cls-3" d="M81,178h6.85"/><path class="cls-3" d="M107.39,182.58h7.78"/><path class="cls-3" d="M81,182.58H101.6"/><path class="cls-9" d="M177.44,149.8h4.18"/><path class="cls-9" d="M164.21,149.8h9.06"/><path class="cls-9" d="M155.81,149.8h4.31"/><path class="cls-9" d="M137.58,149.8H152"/><path class="cls-9" d="M171.32,154.88h11.23"/><path class="cls-9" d="M148.82,154.88h17.57"/><path class="cls-9" d="M137.58,154.88h7"/><path class="cls-3" d="M154.14,159.5h8.47"/><path class="cls-3" d="M137.58,159.5h13"/><line class="cls-3" x1="168.35" y1="159.5" x2="177.46" y2="159.5"/><path class="cls-3" d="M146.06,164.11h9.19"/><path class="cls-3" d="M137.58,164.11h4.95"/><path class="cls-3" d="M160.28,164.11h11.56"/><path class="cls-9" d="M175.66,164.11h6.43"/><path class="cls-9" d="M172.81,168.73h9.74"/><path class="cls-9" d="M151.25,168.73h16.35"/><path class="cls-9" d="M137.23,168.73h8.17"/><path class="cls-9" d="M161.34,173.35H177"/><path class="cls-9" d="M137.23,173.35h18.32"/><path class="cls-9" d="M174.69,178h7.86"/><path class="cls-9" d="M150.94,178h18.28"/><path class="cls-9" d="M137.23,178h6.85"/><path class="cls-9" d="M163.65,182.58h7.78"/><path class="cls-9" d="M137.23,182.58h20.63"/><rect class="cls-10" x="74.1" y="93.98" width="133.66" height="96.89" rx="3" ry="3"/><circle class="cls-11" cx="77.26" cy="97.07" r="1.07"/><circle class="cls-12" cx="81.36" cy="97.07" r="1.07"/><circle class="cls-13" cx="85.46" cy="97.07" r="1.07"/><line class="cls-10" x1="75.99" y1="99.98" x2="205.76" y2="99.98"/><line class="cls-7" x1="79.1" y1="142.86" x2="198.72" y2="142.86"/><circle class="cls-14" cx="102.08" cy="113.92" r="4.12"/><path class="cls-15" d="M184.39,135.5c.59,2.11,1.35,3,2.3,5a.8.8,0,0,0,.23.32.81.81,0,0,0,.42.11l1.78.14a18.71,18.71,0,0,1-3.45,1.52,59.13,59.13,0,0,1-3.47-7.44"/><path class="cls-15" d="M175.45,134.82q-1.58,3.53-3.34,7l2.88,1.08a2.3,2.3,0,0,0,0-1.16,1.94,1.94,0,0,1-.14-.67,1.37,1.37,0,0,1,.22-.55l3.11-5.32"/><path class="cls-10" d="M185.75,126.82a6.81,6.81,0,0,0-1.58-5.1,4.4,4.4,0,0,0,.67-.45,6.12,6.12,0,0,0,1.86-3.47,3.54,3.54,0,0,0-.15-2.38,2.94,2.94,0,0,0-.81-.92,4.84,4.84,0,0,0-6.83.88,13.21,13.21,0,0,0-1.3,2.49c-.36.77-1.39,1.69-1.58,2.46s1,1.34,2.4,1.68c-.05.07-.12.13-.16.2-1.09,1.71-1.6,3.53-3.26,4.9a17.3,17.3,0,0,1-6.11,3.12,13.46,13.46,0,0,0,12.31,4.59"/><path class="cls-10" d="M177.88,121.93a8.84,8.84,0,0,0,3.33.39"/><path class="cls-10" d="M180.56,128.09a5.54,5.54,0,0,0,.71.87,1.86,1.86,0,0,0,1,.51"/><path class="cls-10" d="M184.23,127.07a6.43,6.43,0,0,0,2.28-.38.15.15,0,0,1,.14,0s.05.05,0,.08a3.22,3.22,0,0,0,.14,2.64"/><path class="cls-15" d="M186.91,126.79a1.57,1.57,0,0,1,.68-.57c.18-.08.44-.09.53.09s0,.3,0,.44a1.07,1.07,0,0,1,.87.27,1.55,1.55,0,0,1-1.3,2.71c-.14,0-.3-.1-.33-.24"/><rect class="cls-2" x="188.53" y="149.8" width="13.75" height="11.98" rx="1.51" ry="1.51"/><path class="cls-2" d="M191.86,159.47v5.35a.56.56,0,0,0,.95.39l4.89-4.89Z"/><line class="cls-3" x1="192.79" y1="153.74" x2="198.01" y2="153.74"/><line class="cls-3" x1="192.79" y1="155.79" x2="198.01" y2="155.79"/><line class="cls-3" x1="192.79" y1="157.84" x2="198.01" y2="157.84"/><path class="cls-3" d="M48.55,126.54c.11,0,6.15.12,6.15.12"/><line class="cls-3" x1="46.68" y1="129.3" x2="56.56" y2="129.3"/><line class="cls-3" x1="48.98" y1="131.93" x2="54.26" y2="131.93"/><path class="cls-3" d="M228.21,136l.31.17H234"/><line class="cls-3" x1="226.46" y1="139.82" x2="235.73" y2="139.82"/><line class="cls-3" x1="228.62" y1="143.51" x2="233.57" y2="143.51"/><path class="cls-16" d="M187.19,129.94c.21.1.28.31.24.8-.2,2.46-2.07,5.77-5,4.48a4.12,4.12,0,0,1-2.16-2.34,10.12,10.12,0,0,1-.72-3.14c2.25,0,4.5,0,6.74.1A2.8,2.8,0,0,1,187.19,129.94Z"/><path class="cls-17" d="M183.05,129.26a5.46,5.46,0,0,1,.16-1.52,1.44,1.44,0,0,1,.39-.76.6.6,0,0,1,.79,0"/></svg>