<?xml version="1.0" encoding="iso-8859-1"?>
<!-- Generator: Adobe Illustrator 22.1.0, SVG Export Plug-In . SVG Version: 6.00 Build 0)  -->
<svg version="1.1" id="Layer_1" xmlns="http://www.w3.org/2000/svg" xmlns:xlink="http://www.w3.org/1999/xlink" x="0px" y="0px"
	 viewBox="0 0 612.64 368.93" style="enable-background:new 0 0 612.64 368.93;" xml:space="preserve">
<title>Products-core-v2-K-12 ELA-hero</title>
<path style="opacity:0.5;fill:#A9D7F3;enable-background:new    ;" d="M446.33,21.9c8.48-0.9,237.2,56.25,144,95.77
	s-88.32,67.62-64.07,86.16c16.68,12.76,59.36,5.61,42,49.15c-8.78,22-73.22,13.74-92.23,27.53s89,28.62,0,54.85
	s-318.45,35.61-363.42,9.66s-53.31-79.25-22.59-87.29s-22.89-28.9-57.82-41.33s-55.95-95.74,15-89s42.82-44.73,42.82-44.73
	s-164.51-77.84,37.3-82.2S446.33,21.9,446.33,21.9z"/>
<path style="fill:#FFFFFF;" d="M65.35,226.32c0,0,92.69,36.07,150.83-0.25c4.38-2.74,10.34-0.23,10.77,4.62l2.09,19.78
	c0.9,10-3.94,21.86-14.15,25.51c-27.68,9.9-76.77,24.9-150.08-18"/>
<path style="fill:#D0E4F0;" d="M214.89,263.36c7.53-2.69,12.12-9.84,13.66-17.42l0.48,4.58c0.9,10-3.94,21.86-14.15,25.51
	c-27.68,9.9-76.77,24.9-150.08-18l0.23-12.56C138.21,288.22,187.24,273.25,214.89,263.36z"/>
<path style="fill:#40565B;" d="M159.45,287.66c-25.13,0-56.8-6.67-95-29c-0.348-0.204-0.464-0.652-0.26-1
	c0.204-0.348,0.652-0.464,1-0.26c75.73,44.35,125.53,26.54,149.46,18c7.65-2.74,14.8-12.12,13.67-24.76l-2.09-19.82
	c-0.185-1.917-1.372-3.592-3.12-4.4c-2.09-1.027-4.561-0.906-6.54,0.32c-57.78,36.1-150.55,0.68-151.48,0.31
	c-0.372-0.155-0.548-0.582-0.394-0.954c0.15-0.36,0.557-0.539,0.924-0.406c0.92,0.36,93,35.52,150.18-0.19
	c2.419-1.508,5.446-1.656,8-0.39c2.201,1.026,3.693,3.142,3.92,5.56l2.05,19.8c0.91,10.14-3.83,22.41-14.63,26.27
	C203.08,281.02,184.52,287.66,159.45,287.66z"/>
<path style="fill:#C3D4E0;" d="M91.82,268.04c-0.806-0.003-1.457-0.66-1.454-1.466c0.002-0.471,0.231-0.911,0.614-1.184
	c0.59-0.42,14.32-10.32,9.41-23.88c-0.312-0.744,0.038-1.599,0.782-1.911s1.599,0.038,1.911,0.782
	c0.018,0.042,0.033,0.085,0.047,0.129c5.69,15.67-10.31,27.15-10.5,27.26C92.393,267.939,92.111,268.033,91.82,268.04z"/>
<path style="fill:#C3D4E0;" d="M126.06,278.26c-0.806-0.002-1.459-0.657-1.457-1.463c0.001-0.46,0.218-0.892,0.587-1.167
	c0.62-0.46,15.1-11.47,9.89-28.59c-0.198-0.782,0.276-1.576,1.058-1.773c0.729-0.184,1.479,0.215,1.732,0.923
	c5.81,19.11-10.78,31.65-10.95,31.78C126.672,278.156,126.37,278.258,126.06,278.26z"/>
<path style="fill:#C3D4E0;" d="M156.71,282.28c-0.806-0.029-1.435-0.707-1.406-1.512c0.013-0.358,0.157-0.699,0.406-0.958
	c0.5-0.51,12.08-12.75,6.24-31.87c-0.272-0.759,0.123-1.595,0.882-1.867c0.759-0.272,1.595,0.123,1.867,0.882
	c0.016,0.044,0.03,0.089,0.041,0.135c6.36,20.82-6.39,34.2-6.94,34.76C157.513,282.14,157.118,282.296,156.71,282.28z"/>
<path style="fill:#C3D4E0;" d="M192.82,277.47c-0.806,0.016-1.473-0.625-1.489-1.431c-0.008-0.427,0.17-0.835,0.489-1.119
	c0.15-0.13,8.42-8.07,0.75-31.25c-0.293-0.751,0.078-1.598,0.829-1.891s1.598,0.078,1.891,0.829c0.019,0.049,0.036,0.1,0.05,0.151
	c8.37,25.32-1.18,34-1.59,34.36C193.491,277.343,193.162,277.467,192.82,277.47z"/>
<path style="fill:#3AA1D6;" d="M217.31,368.21c-16.222-31.978-22.279-68.152-17.36-103.67c3.29-23.75,12.72-50.24,40.47-55.12
	c32.36-5.65,71.53-2.15,99.32,15.76c12.94,8.35,17.06,21,16.8,35.44c-0.581,36.621-6.898,72.925-18.72,107.59"/>
<path style="fill:#1785C8;" d="M240.42,209.4c32.36-5.65,71.53-2.15,99.32,15.76c12.94,8.35,17.06,21,16.8,35.44
	c-0.579,36.628-6.896,72.938-18.72,107.61H303.7c12.12-49.91,12.25-114.34-46.88-123.16c-13.86-3.46-27.72-5.2-41.58,1.73
	c-5.038,2.55-9.702,5.78-13.86,9.6C205.63,235.06,215.82,213.7,240.42,209.4z"/>
<path style="fill:#164A67;" d="M337.82,368.94c-0.076,0.013-0.154,0.013-0.23,0c-0.38-0.128-0.585-0.539-0.46-0.92
	c11.814-34.604,18.121-70.849,18.69-107.41c0.29-16.09-5.1-27.48-16.47-34.82c-29.61-19.09-70.46-20.61-98.8-15.66
	c-22,3.87-35.4,22.21-39.87,54.51c-4.949,35.372,1.086,71.411,17.29,103.24c0.163,0.369-0.003,0.8-0.372,0.963
	c-0.341,0.151-0.742,0.02-0.928-0.303c-16.335-32.085-22.422-68.413-17.44-104.07c4.57-33,18.39-51.75,41.06-55.74
	c28.62-5,69.87-3.45,99.84,15.87c11.83,7.63,17.44,19.43,17.14,36.07c-0.582,36.695-6.919,73.07-18.78,107.8
	C338.384,368.749,338.118,368.935,337.82,368.94z"/>
<path style="fill:#FFFFFF;" d="M304.19,190.24l-1.94,20.29c-0.316,3.749-2.601,7.047-6,8.66c-5.194,2.311-10.909,3.202-16.56,2.58
	c-5.221-0.391-10.238-2.188-14.52-5.2c-2.802-2.04-4.435-5.315-4.38-8.78C277.82,213.96,293.52,203.94,304.19,190.24z"/>
<path style="fill:#D0E4F0;" d="M263.96,173.85l41.44,3.95l-1.18,12.42c-10.69,13.7-26.42,23.73-43.43,17.6v-0.9L263.96,173.85z"/>
<path style="fill:#40565B;" d="M283.24,222.71c-1.196-0.001-2.391-0.068-3.58-0.2c-5.335-0.405-10.462-2.243-14.84-5.32
	c-3.264-2.382-5.031-6.307-4.65-10.33l3.15-33.05c0.037-0.402,0.392-0.697,0.793-0.661c0.002,0,0.004,0,0.007,0.001l41.44,3.95
	c0.4,0.037,0.695,0.39,0.66,0.79l-3.12,32.72c-0.354,4.013-2.814,7.536-6.46,9.25C292.423,221.74,287.857,222.711,283.24,222.71z
	 M264.68,174.71l-3.08,32.33l0,0c-0.339,3.494,1.179,6.91,4,9c4.198,2.929,9.113,4.664,14.22,5.02
	c5.531,0.609,11.125-0.261,16.21-2.52c3.165-1.505,5.293-4.578,5.59-8.07l3.05-32L264.68,174.71z M260.87,206.97L260.87,206.97z"/>
<path style="fill:#C3D4E0;" d="M283.82,204.6c-5.003,0-9.995-0.442-14.92-1.32c-0.784-0.187-1.268-0.975-1.081-1.759
	c0.172-0.72,0.856-1.197,1.591-1.111c8.955,1.597,18.113,1.695,27.1,0.29c0.788-0.171,1.565,0.329,1.737,1.117
	c0.171,0.788-0.329,1.565-1.117,1.737c-0.056,0.012-0.113,0.021-0.17,0.027C292.613,204.259,288.22,204.6,283.82,204.6z"/>
<path style="fill:#FFFFFF;" d="M127.57,314.47l-80.31-36.91c17.46-43.85,14.33-88.09-11.52-132.91l98.57,23.59
	C145.31,219.18,143.75,268.04,127.57,314.47z"/>
<path style="fill:#A1C2D8;" d="M127.57,315.2c-0.104-0.001-0.206-0.025-0.3-0.07l-80.31-36.9c-0.35-0.163-0.512-0.571-0.37-0.93
	c17.57-44.15,13.71-88.65-11.47-132.28c-0.162-0.242-0.162-0.558,0-0.8c0.174-0.231,0.469-0.336,0.75-0.27l98.57,23.59
	c0.27,0.066,0.479,0.279,0.54,0.55c11.26,52.12,9,101.45-6.76,146.62c-0.102,0.294-0.379,0.49-0.69,0.49L127.57,315.2z M48.19,277.2
	l78.95,36.27c15.37-44.57,17.58-93.23,6.55-144.63l-96.48-23.09c24.55,43.35,28.24,87.56,10.98,131.44L48.19,277.2z"/>
<path style="fill:#D0E4F1;" d="M64.67,206.92c0,0-61.13,16.33-20,57.46C87.76,307.47,64.67,206.92,64.67,206.92z"/>
<path style="fill:#D0E4F1;" d="M61.76,275.86c-4.46,0-10.27-3.63-17.61-11c-11.73-11.7-16.33-22.62-13.72-32.39
	c2-7.58,8.59-14.52,18.95-20.08c4.813-2.562,9.876-4.623,15.11-6.15c0.389-0.104,0.79,0.127,0.894,0.516
	c0.002,0.008,0.004,0.016,0.006,0.024c0.57,2.47,13.73,60.55-0.15,68.23C64.172,275.588,62.974,275.881,61.76,275.86z M64.13,207.86
	c-4.47,1.35-28,9.14-32.3,25c-2.48,9.25,2,19.69,13.35,31c8.78,8.78,15.29,12.09,19.35,9.85c5.26-2.91,6.86-15.29,4.61-35.8
	c-1.51-13.69-4.32-26.84-5.01-30.07L64.13,207.86z"/>
<path style="fill:#FFFFFF;" d="M57.55,209.53c0,0-53.73,14.36-17.59,50.54C77.82,297.98,57.55,209.53,57.55,209.53z"/>
<path style="fill:#D0E4F0;" d="M60.43,265.94c7.11-12.91-2.88-56.41-2.88-56.41c-2.445,0.702-4.846,1.551-7.19,2.54
	c-3.67,6.38-5.66,14.81-5.11,23.93C46.07,249.47,52.21,260.86,60.43,265.94z"/>
<path style="fill:#40565B;" d="M54.99,270.26c-3.95,0-9.08-3.2-15.55-9.67c-10.35-10.35-14.41-20-12.09-28.62
	c4.32-16.1,29-22.86,30-23.14c0.389-0.104,0.79,0.127,0.894,0.516c0.002,0.008,0.004,0.016,0.006,0.024
	c0.5,2.17,12.09,53.32-0.17,60.11C57.134,270.001,56.07,270.27,54.99,270.26z M56.99,210.45c-4.14,1.26-24.56,8.1-28.26,21.9
	c-2.17,8.11,1.77,17.26,11.72,27.21c7.69,7.69,13.38,10.6,16.92,8.65c4.6-2.54,6-13.41,4-31.41c-1.29-11.92-3.7-23.33-4.36-26.33
	L56.99,210.45z"/>
<path style="fill:#FFFFFF;" d="M499.38,233.63c0,0-94.29,40-153.43-0.28c-3.162-2.224-7.529-1.463-9.752,1.7
	c-0.71,1.01-1.141,2.19-1.248,3.42l-2.13,22c-0.91,11.11,4,24.24,14.39,28.29c28.15,11,78.09,27.61,152.66-20"/>
<path style="fill:#D0E4F0;" d="M347.26,274.69c-7.66-3-12.33-10.91-13.9-19.32l-0.54,5.1c-0.91,11.11,4,24.24,14.39,28.29
	c28.15,11,78.09,27.61,152.66-20l-0.21-13.91C425.26,302.26,375.39,285.66,347.26,274.69z"/>
<path style="fill:#40565B;" d="M403.66,301.56c-25.51,0-44.4-7.36-56.66-12.15c-11-4.27-15.77-17.84-14.85-29l2.13-22
	c0.206-2.716,1.856-5.111,4.32-6.27c2.516-1.21,5.488-0.973,7.78,0.62c58.13,39.59,151.79,0.61,152.73,0.21
	c0.381-0.131,0.797,0.073,0.927,0.454c0.117,0.343-0.035,0.72-0.357,0.886c-0.95,0.4-95.34,39.69-154.12-0.35
	c-1.866-1.294-4.284-1.484-6.33-0.5c-1.992,0.943-3.324,2.882-3.49,5.08l-2.13,22c-0.85,10.38,3.74,23.56,13.93,27.54
	c24.34,9.49,75,29.24,152-19.94c0.34-0.218,0.792-0.12,1.01,0.22s0.12,0.792-0.22,1.01l0,0
	C461.45,294.16,429.23,301.56,403.66,301.56z"/>
<path style="fill:#C3D4E0;" d="M472.48,279.73c-0.322,0.002-0.635-0.104-0.89-0.3c-2.911-2.387-5.422-5.222-7.44-8.4
	c-4.44-7-5.54-14.43-3.16-21.57c0.276-0.758,1.114-1.148,1.872-0.872c0.727,0.265,1.121,1.051,0.898,1.792
	c-5.07,15.24,9.46,26.62,9.61,26.73c0.635,0.497,0.747,1.414,0.251,2.049c-0.275,0.351-0.695,0.558-1.141,0.56L472.48,279.73z"/>
<path style="fill:#C3D4E0;" d="M437.62,291.06c-0.331,0-0.652-0.113-0.91-0.32c-0.17-0.14-17-14-11.09-35
	c0.176-0.787,0.957-1.282,1.743-1.106c0.787,0.176,1.282,0.957,1.106,1.743c-0.011,0.048-0.024,0.096-0.04,0.143
	c-5.34,19.15,9.48,31.43,10.11,31.94c0.624,0.511,0.716,1.43,0.206,2.055c-0.276,0.338-0.689,0.534-1.126,0.535L437.62,291.06z"/>
<path style="fill:#C3D4E0;" d="M406.45,295.47c-0.417,0.001-0.814-0.178-1.09-0.49c-0.55-0.62-13.44-15.37-7-38.31
	c0.197-0.782,0.991-1.256,1.773-1.059c0.782,0.197,1.256,0.991,1.059,1.773c-0.006,0.025-0.014,0.051-0.021,0.076
	c-6,21.42,6.26,35.44,6.38,35.58c0.536,0.603,0.481,1.525-0.121,2.061c-0.267,0.237-0.612,0.368-0.969,0.369H406.45z"/>
<path style="fill:#C3D4E0;" d="M369.75,290.19c-0.372,0-0.73-0.143-1-0.4c-0.41-0.39-10-9.93-1.58-37.85
	c0.272-0.759,1.108-1.154,1.867-0.882c0.708,0.254,1.108,1.003,0.923,1.732c-8,26.21,0.71,34.8,0.79,34.89
	c0.585,0.555,0.611,1.479,0.056,2.064c-0.275,0.29-0.656,0.455-1.056,0.456L369.75,290.19z"/>
<path style="fill:#FFFFFF;" d="M464.82,78.81c0,0,50.91,42,61.27,135.16"/>
<path style="fill:#D0E4F0;" d="M520.91,212.93c0,0,7.75-17.39,14.63-10.22s14.05,30.71,0,33.6"/>
<path style="fill:#FFFFFF;" d="M517.77,234.47c0,0,4.93,9.85,13,6.32s7.17-25.58-12.54-27.82s-23.74,42.11-21.95,51.07
	s10.75,2.24,10.75,2.24l11.66-13.29l3.81-13"/>
<path style="fill:#FFFFFF;" d="M537.02,244.52c0,0,0.9,18.66-8.5,21.35s-22.85,8.51-19.71-8.51s12-18.73,12-18.73"/>
<path style="fill:#D0E4F0;" d="M531.82,240.83c0,0,9.06,6.24,0.46,8.41c-18.18,4.59-14.32-8.87-12-11.27l4.49,3.42L531.82,240.83z"
	/>
<path style="fill:#D0E4F0;" d="M513.4,224.35c0,0,3.36,11,7.46,14.28c0,0-8.5,2-11.17,15.75
	C508.52,260.47,513.4,224.35,513.4,224.35z"/>
<polygon style="fill:#D0E4F0;" points="536.73,255.26 533.25,262.29 527.02,244.94 532.34,243.03 "/>
<path style="fill:#40565B;" d="M535.53,237.03c-0.403-0.01-0.721-0.345-0.711-0.748c0.008-0.331,0.239-0.615,0.561-0.692
	c3.292-0.562,5.953-2.992,6.81-6.22c2.54-8.17-2.53-21.3-7.19-26.16c-0.879-1.088-2.263-1.638-3.65-1.45
	c-4.16,0.72-8.47,8.52-9.78,11.47c-0.193,0.354-0.637,0.484-0.991,0.29c-0.313-0.171-0.457-0.543-0.339-0.88
	c0.21-0.46,5.1-11.3,10.86-12.31c1.882-0.303,3.784,0.412,5,1.88c4.85,5.05,10.32,18.64,7.53,27.6
	c-1.02,3.731-4.101,6.539-7.91,7.21L535.53,237.03z"/>
<path style="fill:#40565B;" d="M514.87,269.76c-1.807,0.101-3.588-0.469-5-1.6c-2.17-1.93-2.74-5.51-1.74-10.94
	c3.19-17.31,12.25-19.24,12.63-19.32c0.389-0.106,0.79,0.122,0.897,0.511c0.106,0.389-0.122,0.79-0.511,0.897
	c-0.038,0.01-0.076,0.018-0.115,0.022c-0.08,0-8.48,1.9-11.47,18.15c-0.89,4.82-0.46,8,1.27,9.59c2.85,2.55,9.14,0.63,14.68-1.06
	c1-0.3,1.93-0.59,2.84-0.85c8.75-2.5,8-20.43,8-20.61c-0.017-0.4,0.291-0.738,0.69-0.76c0.385-0.033,0.724,0.252,0.757,0.637
	c0.002,0.018,0.002,0.035,0.003,0.053c0,0.79,0.82,19.27-9,22.09c-0.91,0.26-1.85,0.55-2.81,0.84
	C522.21,268.54,518.2,269.76,514.87,269.76z"/>
<path style="fill:#FFFFFF;" d="M518.22,213.01l-28.9-39.34v-7.43l19,11.41l-23.25-20.18v-11.93l19.38,6.37l-20.7-17.52L463.82,78.4
	c0,0,70,26.57,62.23,135.57c0,0.44-0.033,0.883-0.1,1.33"/>
<path style="fill:#A1C2D8;" d="M525.97,216.02h-0.06c-0.4-0.032-0.699-0.38-0.67-0.78l0.1-1.32c2.21-30.92-0.84-74.76-28-108.07
	c-13.45-16.51-27.71-24-32.29-26.1l19.28,54.22l20.55,17.39c0.307,0.261,0.345,0.722,0.084,1.029
	c-0.192,0.226-0.502,0.313-0.784,0.221l-18.36-6.07v10.6l23,20c0.305,0.264,0.338,0.725,0.075,1.03
	c-0.231,0.267-0.621,0.331-0.925,0.15l-17.92-10.75v5.9l28.77,39.11c0.237,0.326,0.166,0.783-0.16,1.02
	c-0.326,0.237-0.783,0.166-1.02-0.16l-28.9-39.34c-0.091-0.125-0.14-0.275-0.14-0.43v-7.43c0.005-0.403,0.336-0.726,0.739-0.721
	c0.127,0.002,0.251,0.036,0.361,0.101l11.85,7.11l-17-14.69c-0.159-0.139-0.25-0.339-0.25-0.55v-11.95
	c-0.007-0.403,0.315-0.735,0.718-0.742c0.096-0.002,0.192,0.016,0.282,0.052l15.82,5.2l-17.85-15.1
	c-0.096-0.083-0.169-0.19-0.21-0.31l-19.91-56c-0.129-0.382,0.076-0.796,0.458-0.925c0.157-0.053,0.327-0.051,0.482,0.005
	c0.18,0.07,17.88,6.95,34.35,27.13c15.18,18.62,32.38,52.62,28.38,109.17l-0.1,1.33C526.688,215.737,526.359,216.032,525.97,216.02z
	"/>
<path style="fill:#A1C2D8;" d="M526.07,214.7c-0.37-0.003-0.679-0.282-0.72-0.65c-10.21-91.72-60.5-134.26-61-134.68
	c-0.329-0.233-0.406-0.689-0.173-1.018c0.233-0.329,0.689-0.406,1.018-0.173c0.03,0.021,0.059,0.045,0.085,0.071
	c0.51,0.42,51.25,43.3,61.53,135.65c0.041,0.397-0.244,0.753-0.64,0.8H526.07z"/>
<polyline style="fill:#FFFFFF;" points="535.53,236.3 543.29,256.77 540.35,271.08 530.76,240.83 "/>
<path style="fill:#A1C2D8;" d="M540.35,271.81c-0.316-0.003-0.595-0.209-0.69-0.51l-9.59-30.25c-0.142-0.377,0.049-0.798,0.427-0.94
	c0.377-0.142,0.798,0.05,0.94,0.427c0.009,0.024,0.017,0.048,0.023,0.073l8.74,27.58l2.34-11.36l-7.72-20.27
	c-0.116-0.386,0.103-0.793,0.49-0.909c0.346-0.104,0.717,0.062,0.87,0.389l7.79,20.43c0.037,0.131,0.037,0.269,0,0.4l-2.94,14.31
	c-0.068,0.326-0.348,0.564-0.68,0.58V271.81z"/>
<path style="fill:#40565B;" d="M500.87,269.12c-0.703,0.01-1.402-0.112-2.06-0.36c-1.69-0.67-2.79-2.19-3.26-4.54
	c-1.48-7.39,0.91-36,11.21-47.21c3.34-3.63,7.22-5.22,11.53-4.73c11.49,1.31,16.7,9.16,17.75,16.07c0.91,6-1.14,11.45-5,13.14
	c-8.6,3.77-13.88-6.56-13.94-6.66c-0.145-0.376,0.042-0.799,0.418-0.944c0.327-0.126,0.697-0.003,0.882,0.294
	c0.19,0.38,4.72,9.19,12,6c3.2-1.4,4.94-6.28,4.14-11.59c-1-6.38-5.8-13.63-16.47-14.84c-3.81-0.43-7.29,1-10.3,4.27
	c-10,10.87-12.3,38.73-10.86,45.93c0.37,1.85,1.14,3,2.36,3.47c2.81,1.1,7.5-1.58,9.07-2.71c0.305-0.264,0.766-0.23,1.03,0.075
	c0.264,0.305,0.23,0.766-0.075,1.03c-0.033,0.028-0.068,0.054-0.105,0.076C509.05,266.03,504.7,269.12,500.87,269.12z"/>
<path style="fill:#325D70;" d="M536.25,258.15c0,0-3.94-12-2.92-12.19s4.43,6.28,7,3l3,7.81l-2.94,14.31L536.25,258.15z"/>
<path style="fill:#325D70;" d="M540.5,273.97l-4.94-15.6c-2.48-7.56-3.47-11.84-2.95-12.72l0.17-0.29l0.43-0.13
	c0.73-0.12,1.34,0.54,2.26,1.54s2.3,2.41,3.27,2.38c0.413-0.059,0.778-0.297,1-0.65l0.8-1l3.49,9.21v0.21L540.5,273.97z
	 M533.97,247.31c0.8,3.59,1.801,7.133,3,10.61l0,0l3.26,10.27l2.34-11.36l-2.51-6.61c-0.371,0.238-0.799,0.373-1.24,0.39
	c-1.68,0.07-3.19-1.55-4.39-2.85L533.97,247.31z M533.26,246.67L533.26,246.67z"/>
<path style="fill:#D0E4F0;" d="M189.97,127.47c3.86-27.16,19.28-47.6,35-47l0,0c48.479,0.057,96.842,4.745,144.43,14L354.94,196.8
	c0,0-72.78-3.63-142.59-14C195.93,180.47,185.96,155.69,189.97,127.47z"/>
<path style="fill:#F36F42;" d="M351.1,61.7c-6.021-9.314-14.586-16.706-24.68-21.3c-9.44-4.45-20.79-6.81-31-3.52
	c-9.372,3.132-17.023,10.013-21.13,19c-4,8.61-4.77,17.93-4.29,27.05c0.001,2.417,0.47,4.811,1.38,7.05
	c0.962,1.841,2.196,3.527,3.66,5c8.6,9.42,19.09,18.47,32.53,20.68c10.34,1.75,21.08-0.93,30.45-5.46
	c8.46-4.1,15.92-10.65,19.21-18.91C360.73,82.15,355.9,69.47,351.1,61.7z"/>
<path style="fill:#C84A27;" d="M314.1,116.94c-2.238,0.004-4.473-0.18-6.68-0.55c-14.45-2.37-25.2-12.42-32.95-20.91
	c-1.505-1.505-2.776-3.228-3.77-5.11c-0.965-2.344-1.461-4.855-1.46-7.39c-0.57-10.81,0.86-19.77,4.36-27.36
	c4.194-9.177,11.998-16.21,21.56-19.43c9.22-3,20.43-1.7,31.56,3.56c10.228,4.642,18.905,12.126,25,21.56l0,0
	c5.08,8.17,9.74,21,6.18,30.24c-3.13,7.85-10.08,14.71-19.58,19.31C332.22,113.81,323.53,116.94,314.1,116.94z M305.58,36.07
	c-3.391-0.025-6.766,0.481-10,1.5c-9.182,3.089-16.673,9.845-20.69,18.66c-3.4,7.37-4.78,16.11-4.22,26.71
	c-0.004,2.338,0.448,4.655,1.33,6.82c0.927,1.738,2.107,3.328,3.5,4.72c7.61,8.34,18.12,18.18,32.13,20.47
	c11.54,2,22.69-1.86,30-5.4c9.17-4.44,15.86-11,18.85-18.53c3.37-8.74-1.16-21.05-6.05-28.93c-5.945-9.189-14.403-16.478-24.37-21
	C321.6,38.94,313.96,36.07,305.58,36.07z"/>
<path style="fill:#C84A27;" d="M314.1,116.94c-2.238,0.004-4.473-0.18-6.68-0.55c-14.45-2.37-25.2-12.42-32.95-20.91
	c-1.505-1.505-2.776-3.228-3.77-5.11c-0.965-2.344-1.461-4.855-1.46-7.39c-0.57-10.81,0.86-19.77,4.36-27.36
	c4.194-9.177,11.998-16.21,21.56-19.43c9.22-3,20.43-1.7,31.56,3.56c10.228,4.642,18.905,12.126,25,21.56l0,0
	c5.08,8.17,9.74,21,6.18,30.24c-3.13,7.85-10.08,14.71-19.58,19.31C332.22,113.81,323.53,116.94,314.1,116.94z M305.58,36.07
	c-3.391-0.025-6.766,0.481-10,1.5c-9.182,3.089-16.673,9.845-20.69,18.66c-3.4,7.37-4.78,16.11-4.22,26.71
	c-0.004,2.338,0.448,4.655,1.33,6.82c0.927,1.738,2.107,3.328,3.5,4.72c7.61,8.34,18.12,18.18,32.13,20.47
	c11.54,2,22.69-1.86,30-5.4c9.17-4.44,15.86-11,18.85-18.53c3.37-8.74-1.16-21.05-6.05-28.93c-5.945-9.189-14.403-16.478-24.37-21
	C321.6,38.94,313.96,36.07,305.58,36.07z"/>
<path style="fill:#F36F42;" d="M336.04,93.47c-11-29.12-28.24-62.12-55.37-82c-5.72-4.42-12.275-7.637-19.27-9.46
	c-8.459-1.914-17.333-0.304-24.58,4.46c-9.58,6.27-13.16,17.45-13.32,28.32c-0.36,19.84,6.32,39.77,15.32,58.2L336.04,93.47z"/>
<path style="fill:#C84A27;" d="M336.04,94.25L336.04,94.25l-97.22-0.53c-0.277-0.002-0.529-0.161-0.65-0.41
	c-10.67-21.75-15.72-40.9-15.45-58.55c0.2-13,5-23.29,13.66-28.92c7.448-4.831,16.537-6.437,25.19-4.45
	c7.099,1.839,13.751,5.102,19.55,9.59c22.43,16.4,41.14,44.08,55.61,82.28c0.149,0.375-0.034,0.799-0.408,0.948
	c-0.086,0.034-0.179,0.052-0.272,0.052L336.04,94.25z M239.28,92.25l95.7,0.52c-14.31-37.41-32.73-64.54-54.74-80.64
	c-5.636-4.368-12.1-7.545-19-9.34c-8.247-1.878-16.903-0.341-24,4.26c-11.05,7.23-12.88,20.47-13,27.72
	c-0.33,17.31,4.58,36.12,15.04,57.49V92.25z"/>
<path style="fill:#C84A27;" d="M336.04,94.25L336.04,94.25l-97.22-0.53c-0.277-0.002-0.529-0.161-0.65-0.41
	c-10.67-21.75-15.72-40.9-15.45-58.55c0.2-13,5-23.29,13.66-28.92c7.448-4.831,16.537-6.437,25.19-4.45
	c7.099,1.839,13.751,5.102,19.55,9.59c22.43,16.4,41.14,44.08,55.61,82.28c0.149,0.375-0.034,0.799-0.408,0.948
	c-0.086,0.034-0.179,0.052-0.272,0.052L336.04,94.25z M239.28,92.25l95.7,0.52c-14.31-37.41-32.73-64.54-54.74-80.64
	c-5.636-4.368-12.1-7.545-19-9.34c-8.247-1.878-16.903-0.341-24,4.26c-11.05,7.23-12.88,20.47-13,27.72
	c-0.33,17.31,4.58,36.12,15.04,57.49V92.25z"/>
<circle style="fill:#F36F42;" cx="157.169" cy="124.518" r="10.55"/>
<path style="fill:#C84A27;" d="M157.18,135.8L157.18,135.8c-6.23-0.003-11.278-5.055-11.275-11.285
	c0.003-6.226,5.049-11.273,11.275-11.275l0,0c6.23,0.003,11.278,5.055,11.275,11.285C168.453,130.751,163.406,135.797,157.18,135.8z
	 M157.18,114.7c-5.423,0.001-9.819,4.398-9.819,9.821c0.001,5.422,4.396,9.818,9.819,9.819l0,0c5.423-0.001,9.819-4.398,9.819-9.821
	C166.998,119.096,162.602,114.701,157.18,114.7z"/>
<path style="fill:#D0E4F0;" d="M216.42,131.16c0.927-0.206,1.512-1.124,1.306-2.052c-0.136-0.612-0.594-1.102-1.196-1.278
	l-51.89-3.76c-0.937,0.158-1.568,1.046-1.409,1.983c0.106,0.629,0.553,1.148,1.159,1.347l51.89,3.76H216.42z"/>
<path style="fill:#40565B;" d="M216.51,131.89h-0.22l-52.12-3.8c-1.281-0.436-1.966-1.827-1.531-3.108
	c0.286-0.842,1.006-1.463,1.881-1.622h0.09h0.09l52.05,3.79c1.294,0.395,2.024,1.764,1.629,3.058
	c-0.255,0.837-0.937,1.474-1.789,1.672L216.51,131.89z M164.51,126.68l51.82,3.79c0.525-0.171,0.812-0.735,0.641-1.261
	c-0.092-0.283-0.305-0.51-0.581-0.619l-51.69-3.75c-0.531,0.153-0.837,0.707-0.684,1.238c0.081,0.28,0.279,0.511,0.544,0.632
	L164.51,126.68z"/>
<path style="fill:#FFFFFF;" d="M360.82,111.47c2.052-0.684,4.197-1.045,6.36-1.07l-7.94,55.85c-9.066-3.661-18.662-5.838-28.42-6.45
	c-44.63-4.06-90.36,15.64-134.63,10.36c-5.92-10.36-8.56-25.88-6.08-42.69c1.367-10.325,4.765-20.276,10-29.28
	C245.12,124.18,308.88,125.62,360.82,111.47z"/>
<path style="fill:#D0E4F0;" d="M224.98,80.47L224.98,80.47c48.479,0.057,96.842,4.745,144.43,14l-2.19,15.94
	c-2.132,0.011-4.25,0.348-6.28,1c-52,14.13-115.73,12.7-160.9-13.34C206.7,86.98,215.82,80.12,224.98,80.47z"/>
<path style="fill:#40565B;" d="M354.94,197.53L354.94,197.53c-0.73,0-73.62-3.75-142.66-14c-8.2-1.16-15.1-7.7-19.42-18.39
	c-4.32-10.69-5.53-24-3.57-37.73c3.88-27.31,19.61-48.3,35.75-47.65c48.519,0.064,96.921,4.752,144.55,14
	c0.381,0.076,0.635,0.436,0.58,0.82L355.66,196.9C355.61,197.26,355.303,197.528,354.94,197.53z M224.35,81.17
	c-15.24,0-29.93,20.19-33.66,46.41l0,0c-1.93,13.53-0.69,26.66,3.48,37c4.17,10.34,10.61,16.41,18.28,17.5
	c65.45,9.74,134.37,13.58,141.86,14l14.28-101c-47.326-9.164-95.415-13.818-143.62-13.9L224.35,81.17z M189.97,127.47L189.97,127.47
	z"/>
<ellipse transform="matrix(0.1425 -0.9898 0.9898 0.1425 166.3589 482.9003)" style="fill:#A1C2D8;" cx="361.868" cy="145.442" rx="51.58" ry="29.87"/>
<path style="fill:#40565B;" d="M356.99,197.41c-0.867,0.002-1.732-0.058-2.59-0.18c-16.7-2.4-26.94-27.59-22.83-56.14
	c2-13.76,7-26.27,14-35.2s15.57-13.42,23.74-12.22l0,0c16.7,2.4,26.94,27.59,22.83,56.14C388.24,176.88,372.82,197.41,356.99,197.41
	z M366.67,94.94c-6.87,0-13.87,4.13-20,11.85c-6.89,8.74-11.76,21-13.7,34.51c-4,27.76,5.69,52.2,21.6,54.49
	s32.09-18.43,36.09-46.19s-5.69-52.2-21.6-54.49l0,0c-0.788-0.112-1.584-0.169-2.38-0.17H366.67z"/>
<path style="fill:#40565B;" d="M356.99,197.41c-0.867,0.002-1.732-0.058-2.59-0.18c-16.7-2.4-26.94-27.59-22.83-56.14
	c2-13.76,7-26.27,14-35.2s15.57-13.42,23.74-12.22l0,0c16.7,2.4,26.94,27.59,22.83,56.14C388.24,176.88,372.82,197.41,356.99,197.41
	z M366.67,94.94c-6.87,0-13.87,4.13-20,11.85c-6.89,8.74-11.76,21-13.7,34.51c-4,27.76,5.69,52.2,21.6,54.49
	s32.09-18.43,36.09-46.19s-5.69-52.2-21.6-54.49l0,0c-0.788-0.112-1.584-0.169-2.38-0.17H366.67z"/>
<path style="fill:#40565B;" d="M303.19,127.6c2.852,0.682,5.717-1.077,6.4-3.929c0,0,0-0.001,0-0.001l0,0
	c0.85-3.14,2-6.24,2.94-9.35c1.158,0.283,2.13,1.067,2.65,2.14c1.53,3.11-0.69,7.38-1.47,10.44c-1.074,4.758-1.664,9.613-1.76,14.49
	c0.076,2.134-0.534,4.237-1.74,6c-0.725,0.899-1.851,1.375-3,1.27c-6.34-0.48-5.15-9.46-4.84-13.61
	C302.487,132.552,302.761,130.064,303.19,127.6z"/>
<path style="fill:#40565B;" d="M212.24,120.38c2.554,0.521,5.047-1.127,5.568-3.681c0.001-0.003,0.001-0.006,0.002-0.009
	c0-0.127,0.02-0.253,0.06-0.38c0.7-3.14,1.74-6.27,2.44-9.41c1.075,0.294,1.955,1.064,2.39,2.09c1.41,3.09-0.48,7.39-1.13,10.46
	c-0.89,4.792-1.345,9.656-1.36,14.53c0.115,2.118-0.389,4.223-1.45,6.06c-0.588,0.872-1.589,1.373-2.64,1.32
	c-5.65-0.38-4.77-9.35-4.55-13.53C211.7,125.34,211.91,122.81,212.24,120.38z"/>
<polygon style="fill:#F36F42;" points="271.98,130.14 253.64,128.82 264.06,114.08 "/>
<path style="fill:#C84A27;" d="M271.98,130.87h-0.05l-18.34-1.32c-0.402-0.031-0.703-0.381-0.672-0.783
	c0.01-0.132,0.056-0.259,0.132-0.367l10.41-14.75c0.233-0.329,0.689-0.406,1.018-0.173c0.099,0.07,0.179,0.164,0.232,0.273
	l7.92,16.07c0.177,0.362,0.026,0.799-0.336,0.976C272.196,130.844,272.089,130.869,271.98,130.87L271.98,130.87z M254.98,128.19
	l15.78,1.14l-6.81-13.86L254.98,128.19z"/>
<path style="fill:#A1C2D8;" d="M240.82,156.75c-0.24-0.33-0.5-0.66-0.72-1c-2.474-3.668-3.579-8.089-3.12-12.49
	c16.524-0.1,33.004,1.716,49.11,5.41c-0.674,3.084-2.005,5.986-3.9,8.51C268.735,153.016,254.358,152.866,240.82,156.75z"/>
<path style="fill:#40565B;" d="M282.21,157.91c-0.07,0.01-0.14,0.01-0.21,0c-13.333-4.14-27.585-4.286-41-0.42
	c-0.294,0.084-0.609-0.023-0.79-0.27l-0.2-0.26c-0.19-0.25-0.38-0.51-0.55-0.77c-2.574-3.818-3.721-8.421-3.24-13
	c0.041-0.368,0.35-0.647,0.72-0.65c16.582-0.108,33.12,1.715,49.28,5.43c0.391,0.089,0.637,0.478,0.55,0.87
	c-0.683,3.184-2.048,6.183-4,8.79C282.635,157.803,282.429,157.906,282.21,157.91z M260.81,153.21
	c7.155-0.001,14.271,1.051,21.12,3.12c1.535-2.143,2.655-4.554,3.3-7.11c-15.611-3.519-31.568-5.274-47.57-5.23
	c-0.268,4.018,0.808,8.011,3.06,11.35c0.13,0.2,0.27,0.39,0.4,0.57c6.413-1.793,13.041-2.701,19.7-2.7H260.81z"/>
<path style="fill:#F36F42;" d="M282.14,157.18c-3.952,5.11-9.779,8.433-16.19,9.23c-9.48,1.37-19.64-2.36-25.11-9.66
	C254.356,152.88,268.707,153.03,282.14,157.18z"/>
<path style="fill:#C84A27;" d="M262.01,167.47c-8.58,0-17-3.85-21.75-10.24c-0.242-0.322-0.178-0.78,0.144-1.022
	c0.071-0.053,0.151-0.093,0.236-0.118c13.652-3.923,28.152-3.773,41.72,0.43c0.384,0.121,0.598,0.531,0.477,0.916
	c-0.026,0.081-0.065,0.157-0.117,0.224c-4.083,5.252-10.081,8.672-16.68,9.51C264.706,167.367,263.359,167.467,262.01,167.47z
	 M242.09,157.21c5.35,6.43,14.75,9.84,23.75,8.53c5.835-0.756,11.181-3.653,15-8.13c-12.629-3.716-26.038-3.872-38.75-0.45V157.21z"
	/>
<path style="fill:#40565B;" d="M262.03,167.47c-9.07,0-17.94-4.32-22.52-11.27c-2.574-3.818-3.721-8.421-3.24-13
	c0.041-0.368,0.35-0.647,0.72-0.65c16.557-0.087,33.07,1.735,49.21,5.43c0.391,0.089,0.637,0.478,0.55,0.87
	c-2.15,9.76-10.08,16.77-20.7,18.3C264.719,167.353,263.376,167.46,262.03,167.47z M237.66,144.03
	c-0.268,4.018,0.808,8.011,3.06,11.35c5,7.53,15.3,11.78,25.12,10.35s17.08-7.69,19.32-16.47c-15.425-3.479-31.188-5.233-47-5.23
	L237.66,144.03z"/>
<path style="fill:#40565B;" d="M229.46,93.4c-0.275,0-0.526-0.155-0.65-0.4c-1.339-2.646-4.57-3.705-7.216-2.366
	c-0.525,0.266-1.002,0.616-1.414,1.036c-0.205,0.347-0.653,0.462-1,0.257c-0.347-0.205-0.462-0.653-0.257-1
	c0.063-0.106,0.151-0.194,0.257-0.257c2.629-2.705,6.953-2.768,9.658-0.139c0.546,0.531,1,1.149,1.342,1.829
	c0.182,0.36,0.038,0.799-0.321,0.981c-0.102,0.052-0.215,0.079-0.329,0.079L229.46,93.4z"/>
<path style="fill:#40565B;" d="M322.21,103.61c-0.275,0-0.526-0.155-0.65-0.4c-1.349-2.648-4.588-3.701-7.236-2.352
	c-0.517,0.263-0.988,0.608-1.394,1.022c-0.205,0.347-0.653,0.462-1,0.257s-0.462-0.653-0.257-1c0.063-0.106,0.151-0.194,0.257-0.257
	c2.629-2.705,6.953-2.768,9.658-0.139c0.546,0.531,1,1.149,1.342,1.829c0.191,0.355,0.057,0.798-0.298,0.989
	c-0.007,0.004-0.015,0.008-0.022,0.011C322.483,103.62,322.344,103.634,322.21,103.61z"/>
<g style="opacity:0.2;">
	<path style="fill:#40565B;" d="M363.27,142.62c0.837-0.346,1.8,0.017,2.2,0.83l16.12,35.76c-0.274,0.344-0.506,0.72-0.69,1.12
		l-0.17,0.14c-0.53,0.537-1.022,1.112-1.47,1.72l-16.84-37.31C362.038,144.021,362.417,143.014,363.27,142.62z"/>
	<path style="fill:#40565B;" d="M379.26,182.92h-0.08c-0.257-0.026-0.482-0.185-0.59-0.42l-16.84-37.31
		c-0.533-1.224,0.003-2.65,1.21-3.22l0,0c1.197-0.49,2.569,0.03,3.14,1.19l16.13,35.78c0.109,0.249,0.07,0.538-0.1,0.75
		c-0.24,0.308-0.442,0.643-0.6,1c-0.05,0.101-0.121,0.19-0.21,0.26l-0.17,0.14c-0.481,0.496-0.929,1.024-1.34,1.58
		C379.671,182.829,379.471,182.92,379.26,182.92z M363.57,143.29c-0.478,0.234-0.688,0.801-0.48,1.29l16.34,36.21
		c0.253-0.293,0.513-0.577,0.78-0.85l0.1-0.08c0.129-0.26,0.276-0.511,0.44-0.75l-15.93-35.35
		C364.584,143.307,364.046,143.105,363.57,143.29L363.57,143.29z"/>
</g>
<path style="fill:#A1C2D8;" d="M415.64,151.9c0.931-0.19,1.532-1.098,1.342-2.029c-0.126-0.617-0.579-1.117-1.182-1.301l-51.7-6.18
	c-0.886-0.343-1.882,0.098-2.225,0.984c-0.343,0.886,0.098,1.882,0.984,2.225c0.267,0.103,0.557,0.138,0.841,0.102l51.68,6.19
	L415.64,151.9z"/>
<path style="fill:#40565B;" d="M415.64,152.63h-0.26l-51.68-6.16c-1.347,0.13-2.544-0.856-2.674-2.203
	c-0.038-0.39,0.019-0.783,0.164-1.147c0.488-1.22,1.851-1.837,3.09-1.4l51.61,6.17c0.89,0.24,1.575,0.951,1.78,1.85
	c0.278,1.322-0.561,2.621-1.88,2.91L415.64,152.63z M363.7,144.98h0.12l51.68,6.19h0.08c0.527-0.164,0.822-0.724,0.658-1.252
	c-0.098-0.314-0.344-0.561-0.658-0.658l-51.56-6.15h-0.18c-0.493-0.249-1.094-0.05-1.343,0.443c-0.249,0.493-0.05,1.094,0.443,1.343
	c0.052,0.026,0.105,0.047,0.161,0.064c0.159,0.062,0.331,0.083,0.5,0.06L363.7,144.98z"/>
<circle style="fill:#F36F42;" cx="421.99" cy="150.26" r="10.55"/>
<path style="fill:#C84A27;" d="M423.05,161.94L423.05,161.94c-6.23-0.003-11.278-5.055-11.275-11.285
	c0.003-6.226,5.049-11.273,11.275-11.275l0,0c6.23,0.003,11.278,5.055,11.275,11.285C434.323,156.891,429.276,161.937,423.05,161.94
	z M423.05,140.84c-5.423,0.001-9.819,4.398-9.819,9.821c0.001,5.422,4.396,9.818,9.819,9.819l0,0
	c5.423-0.001,9.819-4.398,9.819-9.821C432.868,145.236,428.472,140.841,423.05,140.84z"/>
</svg>
