<svg xmlns="http://www.w3.org/2000/svg" viewBox="0 0 280 280"><defs><style>.cls-1{isolation:isolate;}.cls-18,.cls-2,.cls-9{fill:#d0e4f1;}.cls-18,.cls-2{stroke:#d0e4f1;}.cls-10,.cls-11,.cls-12,.cls-13,.cls-14,.cls-15,.cls-16,.cls-17,.cls-18,.cls-2,.cls-22,.cls-24,.cls-4,.cls-5,.cls-6,.cls-7,.cls-9{stroke-linecap:round;stroke-linejoin:round;}.cls-11,.cls-3{fill:#fff;}.cls-10,.cls-12,.cls-16,.cls-21,.cls-22,.cls-4,.cls-5,.cls-6{fill:none;}.cls-11,.cls-17,.cls-4{stroke:#3f555a;}.cls-5{stroke:#f56f40;}.cls-14,.cls-6,.cls-9{stroke:#a1c2d8;}.cls-13,.cls-19,.cls-7,.cls-8{fill:#19bc9c;}.cls-12,.cls-7{stroke:#19bc9c;}.cls-10{stroke:#fff;}.cls-13,.cls-16,.cls-19,.cls-21{stroke:#109995;}.cls-14{fill:#c3d4e0;}.cls-15{fill:#f56f40;stroke:#d65129;}.cls-17,.cls-24{fill:#3f555a;}.cls-18,.cls-23{mix-blend-mode:multiply;}.cls-19,.cls-21{stroke-miterlimit:10;}.cls-20{fill:#109995;}.cls-22{stroke:#0a706e;}.cls-23{fill:#d5d5d7;}.cls-24{stroke:#233839;}</style></defs><title>Question types</title><g class="cls-1"><g id="Layer_3" data-name="Layer 3"><path class="cls-2" d="M224.29,77.49,197.8,104c-.87-1.44-3.61-2.46-6.1-2.28-.87-1.43-3.59-2.45-6.08-2.27l24-24L221.79,80Z"/><polygon class="cls-2" points="224.29 77.49 221.79 79.97 209.64 75.41 212.11 72.93 224.29 77.49"/><path class="cls-2" d="M226.47,75.29l-2.18,2.2-12.17-4.56,2.19-2.19a6.14,6.14,0,0,1,3.86-1.4,12.55,12.55,0,0,1,5.15.76C226.67,71.36,228.09,73.69,226.47,75.29Z"/><path class="cls-2" d="M210.7,79.93l-.45.45-14,14"/><path class="cls-2" d="M211.91,84.29l-1.27,1.27-13,14"/><path class="cls-2" d="M197.8,104l-8.39,2.72-3.93-1.46.15-5.81c2.49-.18,5.21.85,6.08,2.27C194.19,101.52,196.92,102.55,197.8,104Z"/><polygon class="cls-2" points="189.41 106.7 185.42 108 185.47 105.23 189.41 106.7"/><rect class="cls-2" x="71.25" y="63.29" width="58.68" height="85.01" rx="2" ry="2"/><path class="cls-3" d="M132.47,145.9H75.79a2,2,0,0,1-2-2v-81a2,2,0,0,1,2-2h54.68a2,2,0,0,1,2,2v83Z"/><rect class="cls-2" x="111.25" y="95.29" width="58.68" height="85.01" rx="2" ry="2"/><path class="cls-4" d="M132.47,145.9H75.79a2,2,0,0,1-2-2v-81a2,2,0,0,1,2-2h54.68a2,2,0,0,1,2,2v83Z"/><line class="cls-5" x1="86.8" y1="74.32" x2="86.8" y2="74.32"/><line class="cls-6" x1="91.87" y1="70.62" x2="95.97" y2="70.62"/><line class="cls-6" x1="98.92" y1="70.62" x2="106.35" y2="70.62"/><line class="cls-6" x1="91.87" y1="74.03" x2="103.88" y2="74.03"/><line class="cls-6" x1="106.54" y1="74.03" x2="109.5" y2="74.03"/><line class="cls-6" x1="91.87" y1="67.22" x2="94.53" y2="67.22"/><line class="cls-6" x1="97.77" y1="67.22" x2="102.16" y2="67.22"/><line class="cls-5" x1="84.14" y1="74.32" x2="80.03" y2="74.32"/><polyline class="cls-5" points="82.08 74.33 82.08 67.22 80 69.3"/><circle class="cls-6" cx="82.08" cy="85.92" r="2.05"/><line class="cls-6" x1="105.78" y1="84.85" x2="111.27" y2="84.85"/><line class="cls-6" x1="96.17" y1="84.85" x2="102.35" y2="84.85"/><line class="cls-6" x1="88.62" y1="84.85" x2="92.74" y2="84.85"/><line class="cls-6" x1="96.91" y1="87" x2="115.7" y2="87"/><line class="cls-6" x1="88.62" y1="87" x2="93.59" y2="87"/><circle class="cls-6" cx="82.08" cy="95.92" r="2.58"/><line class="cls-6" x1="105.78" y1="97" x2="111.27" y2="97"/><line class="cls-6" x1="96.17" y1="97" x2="102.35" y2="97"/><line class="cls-6" x1="88.62" y1="97" x2="92.74" y2="97"/><line class="cls-6" x1="101.91" y1="94.85" x2="108.02" y2="94.85"/><line class="cls-6" x1="88.62" y1="94.85" x2="98.59" y2="94.85"/><circle class="cls-6" cx="82.08" cy="105.92" r="2.05"/><line class="cls-6" x1="101.17" y1="104.85" x2="107.35" y2="104.85"/><line class="cls-6" x1="88.62" y1="104.85" x2="97.74" y2="104.85"/><line class="cls-6" x1="95.91" y1="107" x2="108.7" y2="107"/><line class="cls-6" x1="88.62" y1="107" x2="92.59" y2="107"/><circle class="cls-6" cx="82.08" cy="115.92" r="2.05"/><line class="cls-6" x1="105.78" y1="114.85" x2="111.27" y2="114.85"/><line class="cls-6" x1="96.17" y1="114.85" x2="102.35" y2="114.85"/><line class="cls-6" x1="88.62" y1="114.85" x2="92.74" y2="114.85"/><line class="cls-6" x1="96.91" y1="117" x2="115.7" y2="117"/><line class="cls-6" x1="88.62" y1="117" x2="93.59" y2="117"/><circle class="cls-6" cx="82.08" cy="125.92" r="2.05"/><line class="cls-6" x1="105.78" y1="127" x2="111.27" y2="127"/><line class="cls-6" x1="96.17" y1="127" x2="102.35" y2="127"/><line class="cls-6" x1="88.62" y1="127" x2="92.74" y2="127"/><line class="cls-6" x1="101.91" y1="124.85" x2="108.02" y2="124.85"/><line class="cls-6" x1="88.62" y1="124.85" x2="98.59" y2="124.85"/><circle class="cls-6" cx="82.08" cy="135.92" r="2.05"/><line class="cls-6" x1="101.17" y1="134.85" x2="107.35" y2="134.85"/><line class="cls-6" x1="88.62" y1="134.85" x2="97.74" y2="134.85"/><line class="cls-6" x1="95.91" y1="137" x2="108.7" y2="137"/><line class="cls-6" x1="88.62" y1="137" x2="92.59" y2="137"/><circle class="cls-7" cx="82.08" cy="95.92" r="0.83"/><rect class="cls-3" x="113.88" y="93.08" width="58.68" height="85.01" rx="2" ry="2"/><rect class="cls-2" x="151.25" y="127.29" width="58.68" height="85.01" rx="2" ry="2"/><rect class="cls-4" x="113.88" y="93.08" width="58.68" height="85.01" rx="2" ry="2"/><path class="cls-8" d="M163.41,111.45H139.47a2.59,2.59,0,0,0-2.6,2.16,2.48,2.48,0,0,0,.4,1.72,1.91,1.91,0,0,1,0,2.18,2.48,2.48,0,0,0-.4,1.72,2.59,2.59,0,0,0,2.6,2.16h9a2.5,2.5,0,0,0,2.53-3.1,1.55,1.55,0,0,1,1.56-1.85h10.72a2.6,2.6,0,0,0,2.63-2.24A2.5,2.5,0,0,0,163.41,111.45Z"/><line class="cls-5" x1="126.89" y1="106.52" x2="126.89" y2="106.52"/><line class="cls-6" x1="131.96" y1="106.22" x2="136.06" y2="106.22"/><line class="cls-6" x1="139.01" y1="106.22" x2="146.45" y2="106.22"/><line class="cls-6" x1="131.96" y1="102.82" x2="143.97" y2="102.82"/><line class="cls-6" x1="146.64" y1="102.82" x2="149.6" y2="102.82"/><line class="cls-6" x1="131.96" y1="99.41" x2="134.63" y2="99.41"/><line class="cls-6" x1="137.87" y1="99.41" x2="142.25" y2="99.41"/><path class="cls-5" d="M124.23,106.52h-4.11l3.35-3.37a2,2,0,1,0-3.37-1.39"/><path class="cls-9" d="M131.47,127.9h-10.8a2.35,2.35,0,0,0-2.35-2.35v-10.8a2.35,2.35,0,0,0,2.35-2.35h10.8a2.35,2.35,0,0,0,2.35,2.35v10.8A2.35,2.35,0,0,0,131.47,127.9Z"/><path class="cls-10" d="M122.48,120.88a1.31,1.31,0,0,0-1.05,1.43,1.84,1.84,0,0,0,.38,1.12,1.4,1.4,0,0,0,1.11.52,2.23,2.23,0,0,0,1.57-1.17c1.56-2.25,3-4.58,4.41-6.9v8.07"/><line class="cls-10" x1="130.23" y1="123.95" x2="127.5" y2="123.95"/><line class="cls-10" x1="128.61" y1="120.84" x2="125.88" y2="120.84"/><path class="cls-8" d="M138.61,147.9l-1.87,0a1.85,1.85,0,0,1-1.77-1.93v0a2.5,2.5,0,0,0-2.5-2.5l-3.95-.06a1.79,1.79,0,0,1-1.79-1.81s0-.06,0-.09a2.55,2.55,0,0,0-2.55-2.54h-3.93a2.58,2.58,0,0,0-2.58,2.08,2.48,2.48,0,0,0,.34,1.73,1.83,1.83,0,0,1,0,1.9,2.48,2.48,0,0,0,0,2.57,1.83,1.83,0,0,1,0,1.9,2.48,2.48,0,0,0-.34,1.73,2.58,2.58,0,0,0,2.58,2.08h18.22a2.6,2.6,0,0,0,2.63-2.24A2.5,2.5,0,0,0,138.61,147.9Z"/><path class="cls-10" d="M159.34,114h4.07"/><path class="cls-10" d="M146.44,114h8.83"/><path class="cls-10" d="M139.34,114h3.45"/><path class="cls-6" d="M153.37,118.9h10.94"/><path class="cls-10" d="M139.34,118.9h9.22"/><line class="cls-6" x1="138.34" y1="123.4" x2="147.22" y2="123.4"/><path class="cls-6" d="M138.34,127.9h6.27"/><path class="cls-6" d="M141.4,132.4h5.82"/><path class="cls-6" d="M128.52,132.4h9.77"/><path class="cls-6" d="M120.15,132.4H125"/><path class="cls-6" d="M134.55,136.9h9.34"/><path class="cls-6" d="M120.15,136.9H131.1"/><path class="cls-6" d="M142.53,141.4h4.7"/><path class="cls-6" d="M128.34,141.4h10.92"/><path class="cls-10" d="M120.15,141.4h4.1"/><path class="cls-6" d="M135.93,145.9h4.65"/><path class="cls-10" d="M120.15,145.9h12.32"/><path class="cls-6" d="M142,150.4h5.25"/><path class="cls-10" d="M127.67,150.4h10.94"/><path class="cls-10" d="M120.15,150.4h4.1"/><path class="cls-6" d="M137.29,154.9h9.93"/><path class="cls-6" d="M129.06,154.9h4.8"/><path class="cls-6" d="M120.15,154.9h4.8"/><path class="cls-6" d="M133.42,159.4h7.69"/><path class="cls-6" d="M120.15,159.4h9.78"/><path class="cls-6" d="M137.3,163.9h5.49"/><path class="cls-6" d="M127.7,163.9h6.18"/><path class="cls-6" d="M120.15,163.9h4.12"/><path class="cls-6" d="M128.43,168.4h18.79"/><path class="cls-6" d="M120.15,168.4h5"/><rect class="cls-11" x="153.25" y="125.29" width="58.68" height="85.01" rx="2" ry="2"/><path class="cls-5" d="M159.4,136.67a2,2,0,1,0,2-2l1.93-2.56h-3.63"/><line class="cls-5" x1="166.26" y1="138.72" x2="166.26" y2="138.72"/><line class="cls-6" x1="171.33" y1="131.61" x2="175.43" y2="131.61"/><line class="cls-6" x1="178.38" y1="131.61" x2="185.81" y2="131.61"/><line class="cls-6" x1="171.33" y1="135.02" x2="183.34" y2="135.02"/><line class="cls-6" x1="186" y1="135.02" x2="188.96" y2="135.02"/><line class="cls-6" x1="171.33" y1="138.42" x2="174" y2="138.42"/><line class="cls-6" x1="177.24" y1="138.42" x2="181.62" y2="138.42"/><line class="cls-6" x1="164.25" y1="191.02" x2="167.65" y2="191.02"/><line class="cls-6" x1="171.53" y1="191.02" x2="177.31" y2="191.02"/><line class="cls-6" x1="164.25" y1="195.5" x2="172.06" y2="195.5"/><line class="cls-6" x1="174.57" y1="195.5" x2="179.46" y2="195.5"/><rect class="cls-12" x="159.4" y="145.17" width="46.61" height="39.39"/><path class="cls-12" d="M163.34,148.87a1.48,1.48,0,0,1,1.48,1.48"/><path class="cls-12" d="M166.3,148.87a1.48,1.48,0,0,0-1.48,1.48"/><path class="cls-12" d="M166.3,156.86a1.48,1.48,0,0,1-1.48-1.48"/><path class="cls-12" d="M163.34,156.86a1.48,1.48,0,0,0,1.48-1.48v-5"/><circle class="cls-6" cx="160.22" cy="191.02" r="0.82"/><circle class="cls-6" cx="160.22" cy="195.5" r="0.82"/><line class="cls-6" x1="164.25" y1="199.83" x2="170.06" y2="199.83"/><line class="cls-6" x1="173.57" y1="199.83" x2="179.46" y2="199.83"/><circle class="cls-6" cx="160.22" cy="199.83" r="0.82"/><rect class="cls-12" x="187.45" y="196.32" width="18.55" height="6.17" rx="3.09" ry="3.09"/><polyline class="cls-12" points="194.71 199.7 195.78 200.76 198.48 198.06"/><path class="cls-13" d="M223.88,77.93,197.4,104.42a2.93,2.93,0,0,0-2.93-2.93,2.92,2.92,0,0,0-2.91-2.91l24-24,5.83,5.84Z"/><polygon class="cls-14" points="223.88 77.93 221.4 80.4 215.57 74.56 218.04 72.09 223.88 77.93"/><path class="cls-15" d="M226.07,75.73l-2.19,2.2L218,72.09l2.19-2.19a4.13,4.13,0,0,1,5.84,5.83Z"/><path class="cls-16" d="M214.52,79.51l-.45.45-14,14"/><path class="cls-16" d="M213.62,84.29l-1.27,1.27L198.94,99.68"/><path class="cls-11" d="M197.4,104.42l-6.24,2.28-1.89-1.88,2.29-6.24a2.92,2.92,0,0,1,2.91,2.91A2.93,2.93,0,0,1,197.4,104.42Z"/><polygon class="cls-17" points="191.15 106.7 188.18 107.79 189.26 104.82 191.15 106.7"/><polygon class="cls-2" points="158.79 70.25 161.81 67.23 166.11 71.53 174.72 62.92 177.75 65.94 166.11 77.57 158.79 70.25"/><polygon class="cls-2" points="121.43 215.2 116.55 220.08 113.14 216.68 118.03 211.79 113.14 206.91 116.55 203.51 121.43 208.39 126.31 203.51 129.72 206.91 124.83 211.79 129.72 216.68 126.31 220.08 121.43 215.2"/><polygon class="cls-15" points="121.43 212.2 116.55 217.08 113.14 213.68 118.03 208.79 113.14 203.91 116.55 200.51 121.43 205.39 126.31 200.51 129.72 203.91 124.83 208.79 129.72 213.68 126.31 217.08 121.43 212.2"/><polygon class="cls-13" points="158.79 67.25 161.81 64.23 166.11 68.53 174.72 59.92 177.75 62.94 166.11 74.57 158.79 67.25"/><polygon class="cls-2" points="72.07 168.01 65.1 175.19 61.09 171.34 68.07 164.15 72.07 168.01"/><polygon class="cls-2" points="88.03 192.72 89.64 194.29 92.93 193.03 90.26 190.43 88.03 192.72"/><path class="cls-2" d="M84.57,187.14c-1.79.69-5.13,2.19-3.37,3.9,2.44,2.37,4.51,0,6.54,2l1.4-1.44,1.4-1.44c-2-2,.28-4.11-2.16-6.48-1.77-1.72-3.16,1.67-3.81,3.48"/><rect class="cls-2" x="70.37" y="167.22" width="12.05" height="23.94" rx="1.24" ry="1.24" transform="translate(-105.37 109.13) rotate(-45.83)"/><path class="cls-2" d="M87.73,181.87a8.19,8.19,0,0,1-2.91,3.2,12.25,12.25,0,0,1-3.13,1.87,4.53,4.53,0,0,1-3.55-.07,7,7,0,0,1-1.55-1.2c-1.19-1.11-2.4-2.19-3.61-3.28-2.11-1.9-4.22-3.8-6.18-5.86-.39-.41-1.67-2.36-2.43-1.48a.55.55,0,0,0-.1.47c.65.68,1.27,1.39,1.89,2.1a1.67,1.67,0,0,1,.3.3,27.32,27.32,0,0,0,2.43,2.55c1.39,1.22,2.8,2.42,4.07,3.77.49.43,1,.87,1.43,1.32.71.7,1.38,1.43,2.1,2.12s1.52,1.33,2.3,2L80.47,191a.68.68,0,0,0,1.07-.08,42.29,42.29,0,0,0,6.84-7,1.48,1.48,0,0,0,.38-.8C88.78,182.51,88.22,182.13,87.73,181.87Z"/><rect class="cls-2" x="70.37" y="167.22" width="12.05" height="23.94" rx="1.24" ry="1.24" transform="translate(-105.37 109.13) rotate(-45.83)"/><rect class="cls-2" x="70.37" y="167.22" width="12.05" height="23.94" rx="1.24" ry="1.24" transform="translate(-105.37 109.13) rotate(-45.83)"/><rect class="cls-2" x="55.13" y="157.79" width="12.05" height="13.26" rx="1.24" ry="1.24" transform="translate(-99.39 93.72) rotate(-45.83)"/><path class="cls-18" d="M68.71,163.55a6.42,6.42,0,0,1-1.41-1.17,4.37,4.37,0,0,1-.75,4A9.74,9.74,0,0,1,63.28,169a4.37,4.37,0,0,1-3.57.68,4.71,4.71,0,0,1-1.86-1.7L55,164.18c-.27-.36-.7-1.22-1.19-1.39a12.73,12.73,0,0,0-1,1.47c.94,1.18,1.93,2.3,2.95,3.4L56,168a1.74,1.74,0,0,1,.31.19,20.52,20.52,0,0,1,2.54,2.51c.65.7,1.38,1.32,2.07,2a1.24,1.24,0,0,0,.46.09,1.61,1.61,0,0,0,.57-.15,10.87,10.87,0,0,0,3.45-2.79l3.44-3.67a2.13,2.13,0,0,0,.64-1A1.76,1.76,0,0,0,68.71,163.55Z"/><rect class="cls-2" x="55.13" y="157.79" width="12.05" height="13.26" rx="1.24" ry="1.24" transform="translate(-99.39 93.72) rotate(-45.83)"/><path class="cls-2" d="M72.52,171.7a1,1,0,0,1,0,1.37l-2.37,2.44a1,1,0,0,1-1.37,0l-9.91-9.61a1,1,0,0,1,0-1.37l2.37-2.44a1,1,0,0,1,1.37,0Z"/><polygon class="cls-9" points="74.56 166.77 67.58 173.95 63.58 170.09 70.56 162.91 74.56 166.77"/><polygon class="cls-7" points="90.52 191.48 92.13 193.04 95.42 191.78 92.75 189.19 90.52 191.48"/><path class="cls-9" d="M87.06,185.89c-1.79.69-5.13,2.19-3.37,3.9,2.44,2.37,4.51,0,6.54,2l1.4-1.44L93,188.9c-2-2,.28-4.11-2.16-6.48-1.77-1.72-3.16,1.67-3.81,3.48"/><rect class="cls-19" x="72.86" y="165.98" width="12.05" height="23.94" rx="1.24" ry="1.24" transform="translate(-103.72 110.54) rotate(-45.83)"/><path class="cls-20" d="M90.21,180.63a8.19,8.19,0,0,1-2.91,3.2,12.25,12.25,0,0,1-3.13,1.87,4.53,4.53,0,0,1-3.55-.07,7,7,0,0,1-1.55-1.2c-1.19-1.11-2.4-2.19-3.61-3.28-2.11-1.9-4.22-3.8-6.18-5.86-.39-.41-1.67-2.36-2.43-1.48a.55.55,0,0,0-.1.47c.65.68,1.27,1.39,1.89,2.1a1.67,1.67,0,0,1,.3.3,27.32,27.32,0,0,0,2.43,2.55c1.39,1.22,2.8,2.42,4.07,3.77.49.43,1,.87,1.43,1.32.71.7,1.38,1.43,2.1,2.12s1.52,1.33,2.3,2L83,189.74a.68.68,0,0,0,1.07-.08,42.29,42.29,0,0,0,6.84-7,1.48,1.48,0,0,0,.38-.8C91.27,181.26,90.71,180.89,90.21,180.63Z"/><rect class="cls-21" x="72.86" y="165.98" width="12.05" height="23.94" rx="1.24" ry="1.24" transform="translate(-103.72 110.54) rotate(-45.83)"/><rect class="cls-22" x="72.86" y="165.98" width="12.05" height="23.94" rx="1.24" ry="1.24" transform="translate(-103.72 110.54) rotate(-45.83)"/><rect class="cls-19" x="57.62" y="156.54" width="12.05" height="13.26" rx="1.24" ry="1.24" transform="translate(-97.74 95.13) rotate(-45.83)"/><path class="cls-23" d="M71.19,162.31a6.42,6.42,0,0,1-1.41-1.17,4.37,4.37,0,0,1-.75,4,9.74,9.74,0,0,1-3.27,2.62,4.37,4.37,0,0,1-3.57.68,4.71,4.71,0,0,1-1.86-1.7l-2.89-3.8c-.27-.36-.7-1.22-1.19-1.39a12.73,12.73,0,0,0-1,1.47c.94,1.18,1.93,2.3,2.95,3.4l.37.33a1.74,1.74,0,0,1,.31.19,20.52,20.52,0,0,1,2.54,2.51c.65.7,1.38,1.32,2.07,2a1.24,1.24,0,0,0,.46.09,1.61,1.61,0,0,0,.57-.15,10.87,10.87,0,0,0,3.45-2.79l3.44-3.67a2.13,2.13,0,0,0,.64-1A1.76,1.76,0,0,0,71.19,162.31Z"/><rect class="cls-22" x="57.62" y="156.54" width="12.05" height="13.26" rx="1.24" ry="1.24" transform="translate(-97.74 95.13) rotate(-45.83)"/><path class="cls-24" d="M75,170.46a1,1,0,0,1,0,1.37l-2.37,2.44a1,1,0,0,1-1.37,0l-9.91-9.61a1,1,0,0,1,0-1.37l2.37-2.44a1,1,0,0,1,1.37,0Z"/></g></g></svg>