<?xml version="1.0" encoding="UTF-8"?>
<svg width="137px" height="134px" viewBox="0 0 137 134" version="1.1" xmlns="http://www.w3.org/2000/svg" xmlns:xlink="http://www.w3.org/1999/xlink">
    <!-- Generator: Sketch 51.3 (57544) - http://www.bohemiancoding.com/sketch -->
    <title>reading_blueprints</title>
    <desc>Created with Sketch.</desc>
    <defs></defs>
    <g id="reading_blueprints" stroke="none" stroke-width="1" fill="none" fill-rule="evenodd">
        <g id="blue-print-new" transform="translate(0.000000, 22.000000)" fill="#FFFFFF">
            <path d="M0,13.2921348 L14.3134328,0 L14.3134328,11.247191 C14.3134328,12.3765823 13.3979554,13.2921348 12.2686567,13.2921348 L0,13.2921348 Z" id="Rectangle-2"></path>
            <path d="M14.2956522,0 L132.910448,1.45301998e-14 C135.169045,0 137,1.83110507 137,4.08988764 L137,86.9101124 C137,89.1688949 135.169045,91 132.910448,91 L4.08955224,91 C1.8309549,91 0,89.1688949 0,86.9101124 L4.08628355e-15,13.1710526 L7.14782609,6.58552632 L4.08628355e-15,13.1710526 L12.2508761,13.1710526 C13.3801747,13.1710526 14.2956522,12.2555001 14.2956522,11.1261088 L14.2956522,1.45301998e-14 L7.14782609,6.58552632 L14.2956522,0 Z" id="Combined-Shape" opacity="0.25"></path>
            <path d="M102.227273,10 L126.772727,10 C127.450531,10 128,10.4477153 128,11 C128,11.5522847 127.450531,12 126.772727,12 L102.227273,12 C101.549469,12 101,11.5522847 101,11 C101,10.4477153 101.549469,10 102.227273,10 Z" id="Rectangle-14" opacity="0.5"></path>
            <path d="M102.227273,15 L126.772727,15 C127.450531,15 128,15.4477153 128,16 C128,16.5522847 127.450531,17 126.772727,17 L102.227273,17 C101.549469,17 101,16.5522847 101,16 C101,15.4477153 101.549469,15 102.227273,15 Z" id="Rectangle-14-Copy" opacity="0.5"></path>
            <path d="M102.227273,20 L126.772727,20 C127.450531,20 128,20.4477153 128,21 C128,21.5522847 127.450531,22 126.772727,22 L102.227273,22 C101.549469,22 101,21.5522847 101,21 C101,20.4477153 101.549469,20 102.227273,20 Z" id="Rectangle-14-Copy-2" opacity="0.5"></path>
            <path d="M98.4318182,67 L116.568182,67 C116.806668,67 117,67.2238576 117,67.5 C117,67.7761424 116.806668,68 116.568182,68 L98.4318182,68 C98.1933316,68 98,67.7761424 98,67.5 C98,67.2238576 98.1933316,67 98.4318182,67 Z" id="Rectangle-14-Copy-4" opacity="0.5"></path>
            <path d="M102.294118,25 L121.705882,25 C122.420604,25 123,25.4477153 123,26 C123,26.5522847 122.420604,27 121.705882,27 L102.294118,27 C101.579396,27 101,26.5522847 101,26 C101,25.4477153 101.579396,25 102.294118,25 Z" id="Rectangle-14-Copy-3" opacity="0.5"></path>
            <path d="M98.4411765,70 L112.558824,70 C112.802479,70 113,70.2238576 113,70.5 C113,70.7761424 112.802479,71 112.558824,71 L98.4411765,71 C98.1975214,71 98,70.7761424 98,70.5 C98,70.2238576 98.1975214,70 98.4411765,70 Z" id="Rectangle-14-Copy-5" opacity="0.5"></path>
            <g id="Group-4" transform="translate(12.000000, 8.000000)" fill-rule="nonzero">
                <g id="Group-5">
                    <path d="M32.1190476,48.0664062 L32.1190476,70.2148438 L43.0714286,70.2148438 L43.0714286,48.0664062 L32.1190476,48.0664062 Z M30.245614,44.375 L44.9448622,44.375 C45.4224016,44.375 45.8095238,44.9258996 45.8095238,45.6054688 L45.8095238,71.90625 L29.3809524,71.90625 L29.3809524,45.6054688 C29.3809524,44.9258996 29.7680746,44.375 30.245614,44.375 Z" id="Rectangle"></path>
                    <path d="M28.0448513,72.3782932 L27.1904762,72.3782932 L27.1904762,44.7650426 C27.1904762,43.3415051 28.1467681,42.1875 29.326414,42.1875 L45.8640622,42.1875 C47.0437081,42.1875 48,43.3415051 48,44.7650426 L48,72.71875 L47.1456249,72.71875 L47.1456249,44.7650426 C47.1456249,43.9109201 46.5718497,43.2185171 45.8640622,43.2185171 L29.326414,43.2185171 C28.6186265,43.2185171 28.0448513,43.9109201 28.0448513,44.7650426 L28.0448513,72.3782932 Z" id="Path-29" opacity="0.5"></path>
                    <path d="M13.1714286,39.9447115 C12.9294753,39.9447115 12.7333333,40.1142191 12.7333333,40.3233173 L12.7333333,47.8954327 C12.7333333,48.1045309 12.9294753,48.2740385 13.1714286,48.2740385 L19.3047619,48.2740385 C19.5467152,48.2740385 19.7428571,48.1045309 19.7428571,47.8954327 L19.7428571,40.3233173 C19.7428571,40.1142191 19.5467152,39.9447115 19.3047619,39.9447115 L13.1714286,39.9447115 Z M13.1714286,39.1875 L19.3047619,39.1875 C20.0306219,39.1875 20.6190476,39.6960227 20.6190476,40.3233173 L20.6190476,47.8954327 C20.6190476,48.5227273 20.0306219,49.03125 19.3047619,49.03125 L13.1714286,49.03125 C12.4455686,49.03125 11.8571429,48.5227273 11.8571429,47.8954327 L11.8571429,40.3233173 C11.8571429,39.6960227 12.4455686,39.1875 13.1714286,39.1875 Z" id="Rectangle-15"></path>
                    <path d="M53.6952381,39.9447115 C53.4532848,39.9447115 53.2571429,40.1142191 53.2571429,40.3233173 L53.2571429,47.8954327 C53.2571429,48.1045309 53.4532848,48.2740385 53.6952381,48.2740385 L59.8285714,48.2740385 C60.0705247,48.2740385 60.2666667,48.1045309 60.2666667,47.8954327 L60.2666667,40.3233173 C60.2666667,40.1142191 60.0705247,39.9447115 59.8285714,39.9447115 L53.6952381,39.9447115 Z M53.6952381,39.1875 L59.8285714,39.1875 C60.5544314,39.1875 61.1428571,39.6960227 61.1428571,40.3233173 L61.1428571,47.8954327 C61.1428571,48.5227273 60.5544314,49.03125 59.8285714,49.03125 L53.6952381,49.03125 C52.9693781,49.03125 52.3809524,48.5227273 52.3809524,47.8954327 L52.3809524,40.3233173 C52.3809524,39.6960227 52.9693781,39.1875 53.6952381,39.1875 Z" id="Rectangle-15-Copy"></path>
                    <path d="M68.2879132,69.7608306 L68.2879132,30.5939771 L36.0155737,4.45259608 L3.74323413,30.5939771 L3.74323413,69.7608306 L68.2879132,69.7608306 Z M0.443234056,30.3316895 C0.443234056,29.5021474 0.817693314,28.7169306 1.46229287,28.1947892 L34.2846324,1.60789486 C35.2938199,0.790428454 36.7373275,0.790428454 37.7465149,1.60789486 L70.5688545,28.1947892 C71.213454,28.7169306 71.5879133,29.5021474 71.5879133,30.3316895 L71.5879133,73.0608307 L0.443234056,73.0608307 L0.443234056,30.3316895 Z" id="Path-31"></path>
                    <path d="M7.02619049,70.149538 L64.8184887,70.149538 L64.8184887,32.0538238 C64.8184887,31.8879991 64.743672,31.7310258 64.6148625,31.6265942 L36.2687135,8.6451208 C36.0668078,8.48142693 35.7778714,8.48142693 35.5759657,8.6451208 L7.22981661,31.6265942 C7.10100711,31.7310258 7.02619049,31.8879991 7.02619049,32.0538238 L7.02619049,70.149538 Z M5.92619046,32.0538238 C5.92619046,31.5563497 6.15064034,31.0854296 6.53706883,30.772135 L34.8832179,7.79066157 C35.488935,7.29957997 36.3557441,7.29957997 36.9614613,7.79066157 L65.3076103,30.772135 C65.6940388,31.0854296 65.9184887,31.5563497 65.9184887,32.0538238 L65.9184887,71.249538 L5.92619046,71.249538 L5.92619046,32.0538238 Z" id="Path-31" opacity="0.5"></path>
                    <path d="M54.0309524,14.4486535 L62.7785714,21.42997 L62.7785714,10.2125 L54.0309524,10.2125 L54.0309524,14.4486535 Z M53.4809524,6.91249996 L63.3285714,6.91249996 C64.8473545,6.91249996 66.0785715,8.14371693 66.0785715,9.66250002 L66.0785715,28.2857512 L50.7309523,16.037094 L50.7309523,9.66250002 C50.7309523,8.14371693 51.9621693,6.91249996 53.4809524,6.91249996 Z" id="Rectangle-18"></path>
                </g>
            </g>
        </g>
        <path d="M3,35.0579091 L3,108 C3,108.552285 3.44771525,109 4,109 L133,109 C133.552285,109 134,108.552285 134,108 L134,26 C134,25.4477153 133.552285,25 133,25 L13.5963031,25 L13.5963031,31.2406996 C13.5963031,32.7758285 12.4374129,34.0632757 10.9107394,34.2241757 L3,35.0579091 Z M12.5963031,31.2406996 L12.5963031,24 L133,24 C134.104569,24 135,24.8954305 135,26 L135,108 C135,109.104569 134.104569,110 133,110 L4,110 C2.8954305,110 2,109.104569 2,108 L2,34.1577633 L10.8059273,33.2296837 C11.8237096,33.122417 12.5963031,32.2641189 12.5963031,31.2406996 Z" id="Rectangle-16" fill="#FFFFFF" fill-rule="nonzero" opacity="0.5"></path>
        <path d="M99,96 L126,96 C127.104569,96 128,96.8954305 128,98 L128,100 C128,101.104569 127.104569,102 126,102 L99,102 C97.8954305,102 97,101.104569 97,100 L97,98 C97,96.8954305 97.8954305,96 99,96 Z" id="Rectangle-17" fill="#FFFFFF" opacity="0.5"></path>
        <path d="" id="Path-32" stroke="#979797"></path>
    </g>
</svg>