<?xml version="1.0" encoding="UTF-8"?>
<svg width="208px" height="159px" viewBox="0 0 208 159" version="1.1" xmlns="http://www.w3.org/2000/svg" xmlns:xlink="http://www.w3.org/1999/xlink">
    <!-- Generator: Sketch 51.3 (57544) - http://www.bohemiancoding.com/sketch -->
    <title>free_response</title>
    <desc>Created with Sketch.</desc>
    <defs></defs>
    <g id="Page-1" stroke="none" stroke-width="1" fill="none" fill-rule="evenodd">
        <g id="free_response" transform="translate(1.000000, 0.000000)">
            <rect id="Rectangle-path" stroke="#D0E4F1" fill="#D0E4F1" fill-rule="nonzero" stroke-linecap="round" stroke-linejoin="round" x="77.08" y="36.13" width="75.07" height="106.79" rx="1.18"></rect>
            <rect id="Rectangle-path" stroke="#3F555A" fill="#FFFFFF" fill-rule="nonzero" stroke-linecap="round" stroke-linejoin="round" x="79.62" y="34.14" width="75.07" height="106.79" rx="1.18"></rect>
            <rect id="Rectangle-path" stroke="#D0E4F1" fill="#D0E4F1" fill-rule="nonzero" stroke-linecap="round" stroke-linejoin="round" x="82.62" y="31.14" width="75.07" height="106.79" rx="1.18"></rect>
            <path d="M116.97,66.05 L116.97,67.66" id="Shape" stroke="#D0E4F1" fill="#D0E4F1" fill-rule="nonzero" stroke-linecap="round" stroke-linejoin="round"></path>
            <polyline id="Shape" stroke="#D0E4F1" fill="#D0E4F1" fill-rule="nonzero" stroke-linecap="round" stroke-linejoin="round" points="116.97 66.05 90.44 66.05 90.44 39.51"></polyline>
            <path d="M90.44,66.05 L88.82,66.05" id="Shape" stroke="#D0E4F1" fill="#D0E4F1" fill-rule="nonzero" stroke-linecap="round" stroke-linejoin="round"></path>
            <path d="M90.44,62.73 L88.82,62.73" id="Shape" stroke="#D0E4F1" fill="#D0E4F1" fill-rule="nonzero" stroke-linecap="round" stroke-linejoin="round"></path>
            <path d="M90.44,59.41 L88.82,59.41" id="Shape" stroke="#D0E4F1" fill="#D0E4F1" fill-rule="nonzero" stroke-linecap="round" stroke-linejoin="round"></path>
            <path d="M90.44,56.09 L88.82,56.09" id="Shape" stroke="#D0E4F1" fill="#D0E4F1" fill-rule="nonzero" stroke-linecap="round" stroke-linejoin="round"></path>
            <path d="M90.44,52.78 L88.82,52.78" id="Shape" stroke="#D0E4F1" fill="#D0E4F1" fill-rule="nonzero" stroke-linecap="round" stroke-linejoin="round"></path>
            <path d="M90.44,49.46 L88.82,49.46" id="Shape" stroke="#D0E4F1" fill="#D0E4F1" fill-rule="nonzero" stroke-linecap="round" stroke-linejoin="round"></path>
            <path d="M90.44,46.14 L88.82,46.14" id="Shape" stroke="#D0E4F1" fill="#D0E4F1" fill-rule="nonzero" stroke-linecap="round" stroke-linejoin="round"></path>
            <path d="M90.44,42.82 L88.82,42.82" id="Shape" stroke="#D0E4F1" fill="#D0E4F1" fill-rule="nonzero" stroke-linecap="round" stroke-linejoin="round"></path>
            <path d="M90.44,39.51 L88.82,39.51" id="Shape" stroke="#D0E4F1" fill="#D0E4F1" fill-rule="nonzero" stroke-linecap="round" stroke-linejoin="round"></path>
            <path d="M90.44,66.05 L90.44,67.66" id="Shape" stroke="#D0E4F1" fill="#D0E4F1" fill-rule="nonzero" stroke-linecap="round" stroke-linejoin="round"></path>
            <path d="M93.75,66.05 L93.75,67.66" id="Shape" stroke="#D0E4F1" fill="#D0E4F1" fill-rule="nonzero" stroke-linecap="round" stroke-linejoin="round"></path>
            <path d="M97.07,66.05 L97.07,67.66" id="Shape" stroke="#D0E4F1" fill="#D0E4F1" fill-rule="nonzero" stroke-linecap="round" stroke-linejoin="round"></path>
            <path d="M100.39,66.05 L100.39,67.66" id="Shape" stroke="#D0E4F1" fill="#D0E4F1" fill-rule="nonzero" stroke-linecap="round" stroke-linejoin="round"></path>
            <path d="M103.71,66.05 L103.71,67.66" id="Shape" stroke="#D0E4F1" fill="#D0E4F1" fill-rule="nonzero" stroke-linecap="round" stroke-linejoin="round"></path>
            <path d="M107.02,66.05 L107.02,67.66" id="Shape" stroke="#D0E4F1" fill="#D0E4F1" fill-rule="nonzero" stroke-linecap="round" stroke-linejoin="round"></path>
            <path d="M110.34,66.05 L110.34,67.66" id="Shape" stroke="#D0E4F1" fill="#D0E4F1" fill-rule="nonzero" stroke-linecap="round" stroke-linejoin="round"></path>
            <path d="M113.66,66.05 L113.66,67.66" id="Shape" stroke="#D0E4F1" fill="#D0E4F1" fill-rule="nonzero" stroke-linecap="round" stroke-linejoin="round"></path>
            <path d="M113.66,62.73 C113.66,62.73 111.38,42.83 103.66,42.83 C95.94,42.83 93.66,62.73 93.66,62.73" id="Shape" stroke="#D0E4F1" fill="#D0E4F1" fill-rule="nonzero" stroke-linecap="round" stroke-linejoin="round"></path>
            <path d="M113.66,42.82 C113.66,42.82 111.38,62.72 103.66,62.72 C95.94,62.72 93.66,42.82 93.66,42.82" id="Shape" stroke="#D0E4F1" fill="#D0E4F1" fill-rule="nonzero" stroke-linecap="round" stroke-linejoin="round"></path>
            <path d="M133.06,52.55 L147.49,52.55" id="Shape" stroke="#D0E4F1" fill="#D0E4F1" fill-rule="nonzero" stroke-linecap="round" stroke-linejoin="round"></path>
            <path d="M125.34,52.55 L129.5,52.55" id="Shape" stroke="#D0E4F1" fill="#D0E4F1" fill-rule="nonzero" stroke-linecap="round" stroke-linejoin="round"></path>
            <path d="M136.84,57 L143.5,57" id="Shape" stroke="#D0E4F1" fill="#D0E4F1" fill-rule="nonzero" stroke-linecap="round" stroke-linejoin="round"></path>
            <path d="M125.34,57 L133.82,57" id="Shape" stroke="#D0E4F1" fill="#D0E4F1" fill-rule="nonzero" stroke-linecap="round" stroke-linejoin="round"></path>
            <path d="M140.21,61.55 L145,61.55" id="Shape" stroke="#D0E4F1" fill="#D0E4F1" fill-rule="nonzero" stroke-linecap="round" stroke-linejoin="round"></path>
            <path d="M131.88,61.55 L137.23,61.55" id="Shape" stroke="#D0E4F1" fill="#D0E4F1" fill-rule="nonzero" stroke-linecap="round" stroke-linejoin="round"></path>
            <path d="M125.34,61.55 L128.91,61.55" id="Shape" stroke="#D0E4F1" fill="#D0E4F1" fill-rule="nonzero" stroke-linecap="round" stroke-linejoin="round"></path>
            <path d="M132.52,66 L148.8,66" id="Shape" stroke="#D0E4F1" fill="#D0E4F1" fill-rule="nonzero" stroke-linecap="round" stroke-linejoin="round"></path>
            <path d="M125.34,66 L129.64,66" id="Shape" stroke="#D0E4F1" fill="#D0E4F1" fill-rule="nonzero" stroke-linecap="round" stroke-linejoin="round"></path>
            <path d="M136.84,43.55 L143.5,43.55" id="Shape" stroke="#D0E4F1" fill="#D0E4F1" fill-rule="nonzero" stroke-linecap="round" stroke-linejoin="round"></path>
            <path d="M125.34,43.55 L133.82,43.55" id="Shape" stroke="#D0E4F1" fill="#D0E4F1" fill-rule="nonzero" stroke-linecap="round" stroke-linejoin="round"></path>
            <path d="M140.21,48 L145,48" id="Shape" stroke="#D0E4F1" fill="#D0E4F1" fill-rule="nonzero" stroke-linecap="round" stroke-linejoin="round"></path>
            <path d="M131.88,48 L137.23,48" id="Shape" stroke="#D0E4F1" fill="#D0E4F1" fill-rule="nonzero" stroke-linecap="round" stroke-linejoin="round"></path>
            <path d="M125.34,48 L128.91,48" id="Shape" stroke="#D0E4F1" fill="#D0E4F1" fill-rule="nonzero" stroke-linecap="round" stroke-linejoin="round"></path>
            <path d="M125.34,52.55 L129.64,52.55" id="Shape" stroke="#D0E4F1" fill="#D0E4F1" fill-rule="nonzero" stroke-linecap="round" stroke-linejoin="round"></path>
            <path d="M98.09,78.76 L115.41,78.76" id="Shape" stroke="#D0E4F1" fill="#D0E4F1" fill-rule="nonzero" stroke-linecap="round" stroke-linejoin="round"></path>
            <path d="M88.82,78.76 L93.82,78.76" id="Shape" stroke="#D0E4F1" fill="#D0E4F1" fill-rule="nonzero" stroke-linecap="round" stroke-linejoin="round"></path>
            <path d="M102.63,83.26 L110.63,83.26" id="Shape" stroke="#D0E4F1" fill="#D0E4F1" fill-rule="nonzero" stroke-linecap="round" stroke-linejoin="round"></path>
            <path d="M88.82,83.26 L99,83.26" id="Shape" stroke="#D0E4F1" fill="#D0E4F1" fill-rule="nonzero" stroke-linecap="round" stroke-linejoin="round"></path>
            <path d="M106.66,87.76 L112.37,87.76" id="Shape" stroke="#D0E4F1" fill="#D0E4F1" fill-rule="nonzero" stroke-linecap="round" stroke-linejoin="round"></path>
            <path d="M96.67,87.76 L103.09,87.76" id="Shape" stroke="#D0E4F1" fill="#D0E4F1" fill-rule="nonzero" stroke-linecap="round" stroke-linejoin="round"></path>
            <path d="M88.82,87.76 L93.1,87.76" id="Shape" stroke="#D0E4F1" fill="#D0E4F1" fill-rule="nonzero" stroke-linecap="round" stroke-linejoin="round"></path>
            <path d="M97.44,92.26 L117,92.26" id="Shape" stroke="#D0E4F1" fill="#D0E4F1" fill-rule="nonzero" stroke-linecap="round" stroke-linejoin="round"></path>
            <path d="M88.82,92.26 L94,92.26" id="Shape" stroke="#D0E4F1" fill="#D0E4F1" fill-rule="nonzero" stroke-linecap="round" stroke-linejoin="round"></path>
            <path d="M88.82,78.76 L94,78.76" id="Shape" stroke="#D0E4F1" fill="#D0E4F1" fill-rule="nonzero" stroke-linecap="round" stroke-linejoin="round"></path>
            <path d="M133.06,92.26 L147.49,92.26" id="Shape" stroke="#D0E4F1" fill="#D0E4F1" fill-rule="nonzero" stroke-linecap="round" stroke-linejoin="round"></path>
            <path d="M125.34,92.26 L129.5,92.26" id="Shape" stroke="#D0E4F1" fill="#D0E4F1" fill-rule="nonzero" stroke-linecap="round" stroke-linejoin="round"></path>
            <path d="M136.84,87.76 L143.5,87.76" id="Shape" stroke="#D0E4F1" fill="#D0E4F1" fill-rule="nonzero" stroke-linecap="round" stroke-linejoin="round"></path>
            <path d="M125.34,87.76 L133.82,87.76" id="Shape" stroke="#D0E4F1" fill="#D0E4F1" fill-rule="nonzero" stroke-linecap="round" stroke-linejoin="round"></path>
            <path d="M140.21,83.26 L145,83.26" id="Shape" stroke="#D0E4F1" fill="#D0E4F1" fill-rule="nonzero" stroke-linecap="round" stroke-linejoin="round"></path>
            <path d="M131.88,83.26 L137.23,83.26" id="Shape" stroke="#D0E4F1" fill="#D0E4F1" fill-rule="nonzero" stroke-linecap="round" stroke-linejoin="round"></path>
            <path d="M125.34,83.26 L128.91,83.26" id="Shape" stroke="#D0E4F1" fill="#D0E4F1" fill-rule="nonzero" stroke-linecap="round" stroke-linejoin="round"></path>
            <path d="M132.52,78.76 L148.8,78.76" id="Shape" stroke="#D0E4F1" fill="#D0E4F1" fill-rule="nonzero" stroke-linecap="round" stroke-linejoin="round"></path>
            <path d="M125.34,78.76 L129.64,78.76" id="Shape" stroke="#D0E4F1" fill="#D0E4F1" fill-rule="nonzero" stroke-linecap="round" stroke-linejoin="round"></path>
            <path d="M125.34,92.26 L129.64,92.26" id="Shape" stroke="#D0E4F1" fill="#D0E4F1" fill-rule="nonzero" stroke-linecap="round" stroke-linejoin="round"></path>
            <path d="M88.88,105 C88.5759648,106.010348 88.4573854,107.067399 88.53,108.12 C88.509605,108.596034 88.6998069,109.056907 89.05,109.38 C89.58,109.76 90.34,109.44 90.83,109.01 C91.7692281,108.196743 92.362909,107.055874 92.49,105.82 C92.1569077,106.619753 91.9738584,107.473983 91.95,108.34 L91.37,114.8 C91.3615534,115.163751 91.2870066,115.522931 91.15,115.86 C91.0102964,116.205042 90.6904995,116.443927 90.32,116.48 C89.7952246,116.443177 89.3887097,116.006064 89.39,115.48 C89.4030201,114.9728 89.5901621,114.485524 89.92,114.1 C90.9057018,112.779952 92.3856265,111.917264 94.02,111.71" id="Shape" stroke="#D0E4F1" fill="#D0E4F1" fill-rule="nonzero" stroke-linecap="round" stroke-linejoin="round"></path>
            <path d="M96.39,106.64 L99.15,106.39" id="Shape" stroke="#D0E4F1" fill="#D0E4F1" fill-rule="nonzero" stroke-linecap="round" stroke-linejoin="round"></path>
            <path d="M96.65,109 C97.5674398,108.6434 98.545894,108.470132 99.53,108.49" id="Shape" stroke="#D0E4F1" fill="#D0E4F1" fill-rule="nonzero" stroke-linecap="round" stroke-linejoin="round"></path>
            <path d="M104.5,105.18 C104.211473,104.856045 103.746981,104.755069 103.35,104.93 C102.968161,105.12124 102.65407,105.424862 102.45,105.8 C101.912544,106.663364 101.634831,107.663129 101.65,108.68 C101.616084,109.023667 101.737052,109.364576 101.98,109.61 C102.44,109.96 103.1,109.61 103.47,109.11 C104.317143,108.076603 104.748573,106.764488 104.68,105.43 C104.48,106.43 103.95,107.43 104.35,108.43 C104.632076,109.098755 105.318039,109.50465 106.04,109.43" id="Shape" stroke="#D0E4F1" fill="#D0E4F1" fill-rule="nonzero" stroke-linecap="round" stroke-linejoin="round"></path>
            <path d="M111.23,116 C108.80331,111.61098 108.948797,106.25092 111.61,102" id="Shape" stroke="#D0E4F1" fill="#D0E4F1" fill-rule="nonzero" stroke-linecap="round" stroke-linejoin="round"></path>
            <path d="M112.62,105.85 C113.093273,105.621483 113.657582,105.700408 114.05,106.05 C114.428383,106.400302 114.698972,106.851285 114.83,107.35 C114.94703,107.935938 115.178075,108.493164 115.51,108.99 C115.960558,109.501399 116.672991,109.694268 117.32,109.48" id="Shape" stroke="#D0E4F1" fill="#D0E4F1" fill-rule="nonzero" stroke-linecap="round" stroke-linejoin="round"></path>
            <path d="M116.46,105.39 L112.68,109.89" id="Shape" stroke="#D0E4F1" fill="#D0E4F1" fill-rule="nonzero" stroke-linecap="round" stroke-linejoin="round"></path>
            <path d="M118,107.4 L119.38,107.27" id="Shape" stroke="#D0E4F1" fill="#D0E4F1" fill-rule="nonzero" stroke-linecap="round" stroke-linejoin="round"></path>
            <path d="M122.3,103.9 C122.095499,105.962276 121.761506,108.00965 121.3,110.03 C121.404575,108.93539 121.872821,107.907362 122.63,107.11 C122.761653,106.984504 122.929704,106.903979 123.11,106.88 C123.59,106.88 123.84,107.45 123.82,107.93 C123.8,108.41 123.67,108.79 123.64,109.23 C123.573176,109.668248 123.701007,110.113831 123.99,110.45 C124.134273,110.61359 124.34188,110.707307 124.56,110.707307 C124.77812,110.707307 124.985727,110.61359 125.13,110.45" id="Shape" stroke="#D0E4F1" fill="#D0E4F1" fill-rule="nonzero" stroke-linecap="round" stroke-linejoin="round"></path>
            <path d="M125.55,100.94 C128.649812,105.193077 128.982021,110.864079 126.4,115.45" id="Shape" stroke="#D0E4F1" fill="#D0E4F1" fill-rule="nonzero" stroke-linecap="round" stroke-linejoin="round"></path>
            <path d="M129.92,102.13 C129.942247,101.895552 130.065427,101.682394 130.257451,101.546058 C130.449474,101.409721 130.691326,101.363706 130.92,101.42 C131.385571,101.568332 131.701245,102.001372 131.7,102.49 C131.688927,102.968778 131.491622,103.424374 131.15,103.76 C130.732813,104.200845 130.180164,104.48949 129.58,104.58 C129.58,104.19 130.1,103.99 130.47,104.11 C130.84,104.23 131.15,104.51 131.47,104.65 C131.79,104.79 132.37,104.65 132.47,104.27" id="Shape" stroke="#D0E4F1" fill="#D0E4F1" fill-rule="nonzero" stroke-linecap="round" stroke-linejoin="round"></path>
            <path d="M136.9,106.91 C137.056465,108.368005 137.086577,109.836808 136.99,111.3" id="Shape" stroke="#D0E4F1" fill="#D0E4F1" fill-rule="nonzero" stroke-linecap="round" stroke-linejoin="round"></path>
            <path d="M135.16,109.12 L138.66,108.94" id="Shape" stroke="#D0E4F1" fill="#D0E4F1" fill-rule="nonzero" stroke-linecap="round" stroke-linejoin="round"></path>
            <path d="M142.81,106.26 C144.561118,105.529753 145.438433,103.56018 144.81,101.77 C144.766262,101.618777 144.670672,101.487784 144.54,101.4 C144.314491,101.306879 144.054615,101.386519 143.92,101.59 C143.796168,101.792757 143.724054,102.022835 143.71,102.26 C143.310458,105.173747 143.090044,108.10926 143.05,111.05 C142.897854,110.204892 142.877614,109.341308 142.99,108.49 C143.113168,107.626402 143.63043,106.868982 144.39,106.44 C144.52832,106.365963 144.683123,106.328123 144.84,106.33 C145.06107,106.369255 145.254993,106.500723 145.373306,106.69155 C145.491619,106.882377 145.523143,107.114533 145.46,107.33 C145.329076,107.758341 145.034397,108.117706 144.64,108.33 C144.251421,108.536282 143.880206,108.773726 143.53,109.04 L145.74,109.9" id="Shape" stroke="#D0E4F1" fill="#D0E4F1" fill-rule="nonzero" stroke-linecap="round" stroke-linejoin="round"></path>
            <rect id="Rectangle-path" stroke="#3F555A" stroke-linecap="round" stroke-linejoin="round" x="79.62" y="34.14" width="75.07" height="106.79" rx="1.18"></rect>
            <rect id="Rectangle-path" fill="#FFFFFF" fill-rule="nonzero" x="84.62" y="29.14" width="75.07" height="106.79" rx="1.18"></rect>
            <path d="M152.29,132.16 C153.071798,132.53323 153.801338,133.007263 154.46,133.57 L155.19,133.99 C156.379454,134.695783 157.492129,135.523586 158.51,136.46 C159.51,136.77 160.51,137.08 161.63,137.46 C169.84,139.94 170,147.78 170.63,154.97 C176.23,154.85 183.31,155.42 188.89,154.97 C186.950027,148.540995 184.612184,142.238836 181.89,136.1 C179.89,131.8 177.19,127.48 172.99,125.23 C168.17,122.65 161.99,123.23 157.48,120.16 C155.963145,118.992897 154.507856,117.74789 153.12,116.43 C151.2,114.83 146.89,111.5 144.51,113.37 C141.97,115.37 142.51,120.81 143.51,123.37 C145.09,127.23 148.55,130.15 152.29,132.16 Z" id="Shape" fill="#D0E4F1" fill-rule="nonzero"></path>
            <path d="M118.97,64.05 L118.97,65.66" id="Shape" stroke="#3F555A" stroke-linecap="round" stroke-linejoin="round"></path>
            <polyline id="Shape" stroke="#3F555A" stroke-linecap="round" stroke-linejoin="round" points="118.97 64.05 92.44 64.05 92.44 37.51"></polyline>
            <path d="M92.44,64.05 L90.82,64.05" id="Shape" stroke="#3F555A" stroke-linecap="round" stroke-linejoin="round"></path>
            <path d="M92.44,60.73 L90.82,60.73" id="Shape" stroke="#3F555A" stroke-linecap="round" stroke-linejoin="round"></path>
            <path d="M92.44,57.41 L90.82,57.41" id="Shape" stroke="#3F555A" stroke-linecap="round" stroke-linejoin="round"></path>
            <path d="M92.44,54.09 L90.82,54.09" id="Shape" stroke="#3F555A" stroke-linecap="round" stroke-linejoin="round"></path>
            <path d="M92.44,50.78 L90.82,50.78" id="Shape" stroke="#3F555A" stroke-linecap="round" stroke-linejoin="round"></path>
            <path d="M92.44,47.46 L90.82,47.46" id="Shape" stroke="#3F555A" stroke-linecap="round" stroke-linejoin="round"></path>
            <path d="M92.44,44.14 L90.82,44.14" id="Shape" stroke="#3F555A" stroke-linecap="round" stroke-linejoin="round"></path>
            <path d="M92.44,40.82 L90.82,40.82" id="Shape" stroke="#3F555A" stroke-linecap="round" stroke-linejoin="round"></path>
            <path d="M92.44,37.51 L90.82,37.51" id="Shape" stroke="#3F555A" stroke-linecap="round" stroke-linejoin="round"></path>
            <path d="M92.44,64.05 L92.44,65.66" id="Shape" stroke="#3F555A" stroke-linecap="round" stroke-linejoin="round"></path>
            <path d="M95.75,64.05 L95.75,65.66" id="Shape" stroke="#3F555A" stroke-linecap="round" stroke-linejoin="round"></path>
            <path d="M99.07,64.05 L99.07,65.66" id="Shape" stroke="#3F555A" stroke-linecap="round" stroke-linejoin="round"></path>
            <path d="M102.39,64.05 L102.39,65.66" id="Shape" stroke="#3F555A" stroke-linecap="round" stroke-linejoin="round"></path>
            <path d="M105.71,64.05 L105.71,65.66" id="Shape" stroke="#3F555A" stroke-linecap="round" stroke-linejoin="round"></path>
            <path d="M109.02,64.05 L109.02,65.66" id="Shape" stroke="#3F555A" stroke-linecap="round" stroke-linejoin="round"></path>
            <path d="M112.34,64.05 L112.34,65.66" id="Shape" stroke="#3F555A" stroke-linecap="round" stroke-linejoin="round"></path>
            <path d="M115.66,64.05 L115.66,65.66" id="Shape" stroke="#3F555A" stroke-linecap="round" stroke-linejoin="round"></path>
            <path d="M115.66,60.73 C115.66,60.73 113.38,40.83 105.66,40.83 C97.94,40.83 95.66,60.73 95.66,60.73" id="Shape" stroke="#F56F40" stroke-linecap="round" stroke-linejoin="round"></path>
            <path d="M115.66,40.82 C115.66,40.82 113.38,60.72 105.66,60.72 C97.94,60.72 95.66,40.82 95.66,40.82" id="Shape" stroke="#19BC9C" stroke-linecap="round" stroke-linejoin="round"></path>
            <path d="M135.06,50.55 L149.49,50.55" id="Shape" stroke="#A1C2D8" stroke-linecap="round" stroke-linejoin="round"></path>
            <path d="M127.34,50.55 L131.5,50.55" id="Shape" stroke="#A1C2D8" stroke-linecap="round" stroke-linejoin="round"></path>
            <path d="M138.84,55 L145.5,55" id="Shape" stroke="#A1C2D8" stroke-linecap="round" stroke-linejoin="round"></path>
            <path d="M127.34,55 L135.82,55" id="Shape" stroke="#A1C2D8" stroke-linecap="round" stroke-linejoin="round"></path>
            <path d="M142.21,59.55 L147,59.55" id="Shape" stroke="#A1C2D8" stroke-linecap="round" stroke-linejoin="round"></path>
            <path d="M133.88,59.55 L139.23,59.55" id="Shape" stroke="#A1C2D8" stroke-linecap="round" stroke-linejoin="round"></path>
            <path d="M127.34,59.55 L130.91,59.55" id="Shape" stroke="#A1C2D8" stroke-linecap="round" stroke-linejoin="round"></path>
            <path d="M134.52,64 L150.8,64" id="Shape" stroke="#A1C2D8" stroke-linecap="round" stroke-linejoin="round"></path>
            <path d="M127.34,64 L131.64,64" id="Shape" stroke="#A1C2D8" stroke-linecap="round" stroke-linejoin="round"></path>
            <path d="M138.84,41.55 L145.5,41.55" id="Shape" stroke="#A1C2D8" stroke-linecap="round" stroke-linejoin="round"></path>
            <path d="M127.34,41.55 L135.82,41.55" id="Shape" stroke="#A1C2D8" stroke-linecap="round" stroke-linejoin="round"></path>
            <path d="M142.21,46 L147,46" id="Shape" stroke="#A1C2D8" stroke-linecap="round" stroke-linejoin="round"></path>
            <path d="M133.88,46 L139.23,46" id="Shape" stroke="#A1C2D8" stroke-linecap="round" stroke-linejoin="round"></path>
            <path d="M127.34,46 L130.91,46" id="Shape" stroke="#A1C2D8" stroke-linecap="round" stroke-linejoin="round"></path>
            <path d="M127.34,50.55 L131.64,50.55" id="Shape" stroke="#A1C2D8" stroke-linecap="round" stroke-linejoin="round"></path>
            <path d="M100.09,76.76 L117.41,76.76" id="Shape" stroke="#A1C2D8" stroke-linecap="round" stroke-linejoin="round"></path>
            <path d="M90.82,76.76 L95.82,76.76" id="Shape" stroke="#A1C2D8" stroke-linecap="round" stroke-linejoin="round"></path>
            <path d="M104.63,81.26 L112.63,81.26" id="Shape" stroke="#A1C2D8" stroke-linecap="round" stroke-linejoin="round"></path>
            <path d="M90.82,81.26 L101,81.26" id="Shape" stroke="#A1C2D8" stroke-linecap="round" stroke-linejoin="round"></path>
            <path d="M108.66,85.76 L114.37,85.76" id="Shape" stroke="#A1C2D8" stroke-linecap="round" stroke-linejoin="round"></path>
            <path d="M98.67,85.76 L105.09,85.76" id="Shape" stroke="#A1C2D8" stroke-linecap="round" stroke-linejoin="round"></path>
            <path d="M90.82,85.76 L95.1,85.76" id="Shape" stroke="#A1C2D8" stroke-linecap="round" stroke-linejoin="round"></path>
            <path d="M99.44,90.26 L119,90.26" id="Shape" stroke="#A1C2D8" stroke-linecap="round" stroke-linejoin="round"></path>
            <path d="M90.82,90.26 L96,90.26" id="Shape" stroke="#A1C2D8" stroke-linecap="round" stroke-linejoin="round"></path>
            <path d="M90.82,76.76 L96,76.76" id="Shape" stroke="#A1C2D8" stroke-linecap="round" stroke-linejoin="round"></path>
            <path d="M135.06,90.26 L149.49,90.26" id="Shape" stroke="#A1C2D8" stroke-linecap="round" stroke-linejoin="round"></path>
            <path d="M127.34,90.26 L131.5,90.26" id="Shape" stroke="#A1C2D8" stroke-linecap="round" stroke-linejoin="round"></path>
            <path d="M138.84,85.76 L145.5,85.76" id="Shape" stroke="#A1C2D8" stroke-linecap="round" stroke-linejoin="round"></path>
            <path d="M127.34,85.76 L135.82,85.76" id="Shape" stroke="#A1C2D8" stroke-linecap="round" stroke-linejoin="round"></path>
            <path d="M142.21,81.26 L147,81.26" id="Shape" stroke="#A1C2D8" stroke-linecap="round" stroke-linejoin="round"></path>
            <path d="M133.88,81.26 L139.23,81.26" id="Shape" stroke="#A1C2D8" stroke-linecap="round" stroke-linejoin="round"></path>
            <path d="M127.34,81.26 L130.91,81.26" id="Shape" stroke="#A1C2D8" stroke-linecap="round" stroke-linejoin="round"></path>
            <path d="M134.52,76.76 L150.8,76.76" id="Shape" stroke="#A1C2D8" stroke-linecap="round" stroke-linejoin="round"></path>
            <path d="M127.34,76.76 L131.64,76.76" id="Shape" stroke="#A1C2D8" stroke-linecap="round" stroke-linejoin="round"></path>
            <path d="M127.34,90.26 L131.64,90.26" id="Shape" stroke="#A1C2D8" stroke-linecap="round" stroke-linejoin="round"></path>
            <path d="M90.88,103 C90.5759648,104.010348 90.4573854,105.067399 90.53,106.12 C90.509605,106.596034 90.6998069,107.056907 91.05,107.38 C91.58,107.76 92.34,107.44 92.83,107.01 C93.7692281,106.196743 94.362909,105.055874 94.49,103.82 C94.1569077,104.619753 93.9738584,105.473983 93.95,106.34 L93.37,112.8 C93.3615534,113.163751 93.2870066,113.522931 93.15,113.86 C93.0102964,114.205042 92.6904995,114.443927 92.32,114.48 C91.7952246,114.443177 91.3887097,114.006064 91.39,113.48 C91.4030201,112.9728 91.5901621,112.485524 91.92,112.1 C92.9057018,110.779952 94.3856265,109.917264 96.02,109.71" id="Shape" stroke="#A1C2D8" stroke-linecap="round" stroke-linejoin="round"></path>
            <path d="M98.39,104.64 L101.15,104.39" id="Shape" stroke="#A1C2D8" stroke-linecap="round" stroke-linejoin="round"></path>
            <path d="M98.65,107 C99.5674398,106.6434 100.545894,106.470132 101.53,106.49" id="Shape" stroke="#A1C2D8" stroke-linecap="round" stroke-linejoin="round"></path>
            <path d="M106.5,103.18 C106.211473,102.856045 105.746981,102.755069 105.35,102.93 C104.968161,103.12124 104.65407,103.424862 104.45,103.8 C103.912544,104.663364 103.634831,105.663129 103.65,106.68 C103.616084,107.023667 103.737052,107.364576 103.98,107.61 C104.44,107.96 105.1,107.61 105.47,107.11 C106.317143,106.076603 106.748573,104.764488 106.68,103.43 C106.48,104.43 105.95,105.43 106.35,106.43 C106.632076,107.098755 107.318039,107.50465 108.04,107.43" id="Shape" stroke="#A1C2D8" stroke-linecap="round" stroke-linejoin="round"></path>
            <path d="M113.23,114 C110.80331,109.61098 110.948797,104.25092 113.61,100" id="Shape" stroke="#A1C2D8" stroke-linecap="round" stroke-linejoin="round"></path>
            <path d="M114.62,103.85 C115.093273,103.621483 115.657582,103.700408 116.05,104.05 C116.428383,104.400302 116.698972,104.851285 116.83,105.35 C116.94703,105.935938 117.178075,106.493164 117.51,106.99 C117.960558,107.501399 118.672991,107.694268 119.32,107.48" id="Shape" stroke="#A1C2D8" stroke-linecap="round" stroke-linejoin="round"></path>
            <path d="M118.46,103.39 L114.68,107.89" id="Shape" stroke="#A1C2D8" stroke-linecap="round" stroke-linejoin="round"></path>
            <path d="M120,105.4 L121.38,105.27" id="Shape" stroke="#A1C2D8" stroke-linecap="round" stroke-linejoin="round"></path>
            <path d="M124.3,101.9 C124.095499,103.962276 123.761506,106.00965 123.3,108.03 C123.404575,106.93539 123.872821,105.907362 124.63,105.11 C124.761653,104.984504 124.929704,104.903979 125.11,104.88 C125.59,104.88 125.84,105.45 125.82,105.93 C125.8,106.41 125.67,106.79 125.64,107.23 C125.573176,107.668248 125.701007,108.113831 125.99,108.45 C126.134273,108.61359 126.34188,108.707307 126.56,108.707307 C126.77812,108.707307 126.985727,108.61359 127.13,108.45" id="Shape" stroke="#A1C2D8" stroke-linecap="round" stroke-linejoin="round"></path>
            <path d="M127.55,98.94 C130.649812,103.193077 130.982021,108.864079 128.4,113.45" id="Shape" stroke="#A1C2D8" stroke-linecap="round" stroke-linejoin="round"></path>
            <path d="M131.92,100.13 C131.942247,99.8955522 132.065427,99.6823943 132.257451,99.5460577 C132.449474,99.409721 132.691326,99.3637059 132.92,99.42 C133.385571,99.5683324 133.701245,100.001372 133.7,100.49 C133.688927,100.968778 133.491622,101.424374 133.15,101.76 C132.732813,102.200845 132.180164,102.48949 131.58,102.58 C131.58,102.19 132.1,101.99 132.47,102.11 C132.84,102.23 133.15,102.51 133.47,102.65 C133.79,102.79 134.37,102.65 134.47,102.27" id="Shape" stroke="#A1C2D8" stroke-linecap="round" stroke-linejoin="round"></path>
            <path d="M138.9,104.91 C139.056465,106.368005 139.086577,107.836808 138.99,109.3" id="Shape" stroke="#A1C2D8" stroke-linecap="round" stroke-linejoin="round"></path>
            <path d="M137.16,107.12 L140.66,106.94" id="Shape" stroke="#A1C2D8" stroke-linecap="round" stroke-linejoin="round"></path>
            <path d="M144.81,104.26 C146.561118,103.529753 147.438433,101.56018 146.81,99.77 C146.766262,99.6187774 146.670672,99.4877844 146.54,99.4 C146.314491,99.3068792 146.054615,99.3865187 145.92,99.59 C145.796168,99.7927566 145.724054,100.022835 145.71,100.26 C145.310458,103.173747 145.090044,106.10926 145.05,109.05 C144.897854,108.204892 144.877614,107.341308 144.99,106.49 C145.113168,105.626402 145.63043,104.868982 146.39,104.44 C146.52832,104.365963 146.683123,104.328123 146.84,104.33 C147.06107,104.369255 147.254993,104.500723 147.373306,104.69155 C147.491619,104.882377 147.523143,105.114533 147.46,105.33 C147.329076,105.758341 147.034397,106.117706 146.64,106.33 C146.251421,106.536282 145.880206,106.773726 145.53,107.04 L147.74,107.9" id="Shape" stroke="#A1C2D8" stroke-linecap="round" stroke-linejoin="round"></path>
            <rect id="Rectangle-path" stroke="#3F555A" stroke-linecap="round" stroke-linejoin="round" x="84.62" y="29.14" width="75.07" height="106.79" rx="1.18"></rect>
            <path d="M118.97,64.05 L118.97,65.66" id="Shape" stroke="#3F555A" stroke-linecap="round" stroke-linejoin="round"></path>
            <polyline id="Shape" stroke="#3F555A" stroke-linecap="round" stroke-linejoin="round" points="118.97 64.05 92.44 64.05 92.44 37.51"></polyline>
            <path d="M92.44,64.05 L90.82,64.05" id="Shape" stroke="#3F555A" stroke-linecap="round" stroke-linejoin="round"></path>
            <path d="M92.44,60.73 L90.82,60.73" id="Shape" stroke="#3F555A" stroke-linecap="round" stroke-linejoin="round"></path>
            <path d="M92.44,57.41 L90.82,57.41" id="Shape" stroke="#3F555A" stroke-linecap="round" stroke-linejoin="round"></path>
            <path d="M92.44,54.09 L90.82,54.09" id="Shape" stroke="#3F555A" stroke-linecap="round" stroke-linejoin="round"></path>
            <path d="M92.44,50.78 L90.82,50.78" id="Shape" stroke="#3F555A" stroke-linecap="round" stroke-linejoin="round"></path>
            <path d="M92.44,47.46 L90.82,47.46" id="Shape" stroke="#3F555A" stroke-linecap="round" stroke-linejoin="round"></path>
            <path d="M92.44,44.14 L90.82,44.14" id="Shape" stroke="#3F555A" stroke-linecap="round" stroke-linejoin="round"></path>
            <path d="M92.44,40.82 L90.82,40.82" id="Shape" stroke="#3F555A" stroke-linecap="round" stroke-linejoin="round"></path>
            <path d="M92.44,37.51 L90.82,37.51" id="Shape" stroke="#3F555A" stroke-linecap="round" stroke-linejoin="round"></path>
            <path d="M92.44,64.05 L92.44,65.66" id="Shape" stroke="#3F555A" stroke-linecap="round" stroke-linejoin="round"></path>
            <path d="M95.75,64.05 L95.75,65.66" id="Shape" stroke="#3F555A" stroke-linecap="round" stroke-linejoin="round"></path>
            <path d="M99.07,64.05 L99.07,65.66" id="Shape" stroke="#3F555A" stroke-linecap="round" stroke-linejoin="round"></path>
            <path d="M102.39,64.05 L102.39,65.66" id="Shape" stroke="#3F555A" stroke-linecap="round" stroke-linejoin="round"></path>
            <path d="M105.71,64.05 L105.71,65.66" id="Shape" stroke="#3F555A" stroke-linecap="round" stroke-linejoin="round"></path>
            <path d="M109.02,64.05 L109.02,65.66" id="Shape" stroke="#3F555A" stroke-linecap="round" stroke-linejoin="round"></path>
            <path d="M112.34,64.05 L112.34,65.66" id="Shape" stroke="#3F555A" stroke-linecap="round" stroke-linejoin="round"></path>
            <path d="M115.66,64.05 L115.66,65.66" id="Shape" stroke="#3F555A" stroke-linecap="round" stroke-linejoin="round"></path>
            <path d="M115.66,60.73 C115.66,60.73 113.38,40.83 105.66,40.83 C97.94,40.83 95.66,60.73 95.66,60.73" id="Shape" stroke="#F56F40" stroke-linecap="round" stroke-linejoin="round"></path>
            <path d="M115.66,40.82 C115.66,40.82 113.38,60.72 105.66,60.72 C97.94,60.72 95.66,40.82 95.66,40.82" id="Shape" stroke="#19BC9C" stroke-linecap="round" stroke-linejoin="round"></path>
            <path d="M135.06,50.55 L149.49,50.55" id="Shape" stroke="#A1C2D8" stroke-linecap="round" stroke-linejoin="round"></path>
            <path d="M127.34,50.55 L131.5,50.55" id="Shape" stroke="#A1C2D8" stroke-linecap="round" stroke-linejoin="round"></path>
            <path d="M138.84,55 L145.5,55" id="Shape" stroke="#A1C2D8" stroke-linecap="round" stroke-linejoin="round"></path>
            <path d="M127.34,55 L135.82,55" id="Shape" stroke="#A1C2D8" stroke-linecap="round" stroke-linejoin="round"></path>
            <path d="M142.21,59.55 L147,59.55" id="Shape" stroke="#A1C2D8" stroke-linecap="round" stroke-linejoin="round"></path>
            <path d="M133.88,59.55 L139.23,59.55" id="Shape" stroke="#A1C2D8" stroke-linecap="round" stroke-linejoin="round"></path>
            <path d="M127.34,59.55 L130.91,59.55" id="Shape" stroke="#A1C2D8" stroke-linecap="round" stroke-linejoin="round"></path>
            <path d="M134.52,64 L150.8,64" id="Shape" stroke="#A1C2D8" stroke-linecap="round" stroke-linejoin="round"></path>
            <path d="M127.34,64 L131.64,64" id="Shape" stroke="#A1C2D8" stroke-linecap="round" stroke-linejoin="round"></path>
            <path d="M138.84,41.55 L145.5,41.55" id="Shape" stroke="#A1C2D8" stroke-linecap="round" stroke-linejoin="round"></path>
            <path d="M127.34,41.55 L135.82,41.55" id="Shape" stroke="#A1C2D8" stroke-linecap="round" stroke-linejoin="round"></path>
            <path d="M142.21,46 L147,46" id="Shape" stroke="#A1C2D8" stroke-linecap="round" stroke-linejoin="round"></path>
            <path d="M133.88,46 L139.23,46" id="Shape" stroke="#A1C2D8" stroke-linecap="round" stroke-linejoin="round"></path>
            <path d="M127.34,46 L130.91,46" id="Shape" stroke="#A1C2D8" stroke-linecap="round" stroke-linejoin="round"></path>
            <path d="M127.34,50.55 L131.64,50.55" id="Shape" stroke="#A1C2D8" stroke-linecap="round" stroke-linejoin="round"></path>
            <path d="M100.09,76.76 L117.41,76.76" id="Shape" stroke="#A1C2D8" stroke-linecap="round" stroke-linejoin="round"></path>
            <path d="M90.82,76.76 L95.82,76.76" id="Shape" stroke="#A1C2D8" stroke-linecap="round" stroke-linejoin="round"></path>
            <path d="M104.63,81.26 L112.63,81.26" id="Shape" stroke="#A1C2D8" stroke-linecap="round" stroke-linejoin="round"></path>
            <path d="M90.82,81.26 L101,81.26" id="Shape" stroke="#A1C2D8" stroke-linecap="round" stroke-linejoin="round"></path>
            <path d="M108.66,85.76 L114.37,85.76" id="Shape" stroke="#A1C2D8" stroke-linecap="round" stroke-linejoin="round"></path>
            <path d="M98.67,85.76 L105.09,85.76" id="Shape" stroke="#A1C2D8" stroke-linecap="round" stroke-linejoin="round"></path>
            <path d="M90.82,85.76 L95.1,85.76" id="Shape" stroke="#A1C2D8" stroke-linecap="round" stroke-linejoin="round"></path>
            <path d="M99.44,90.26 L119,90.26" id="Shape" stroke="#A1C2D8" stroke-linecap="round" stroke-linejoin="round"></path>
            <path d="M90.82,90.26 L96,90.26" id="Shape" stroke="#A1C2D8" stroke-linecap="round" stroke-linejoin="round"></path>
            <path d="M90.82,76.76 L96,76.76" id="Shape" stroke="#A1C2D8" stroke-linecap="round" stroke-linejoin="round"></path>
            <path d="M135.06,90.26 L149.49,90.26" id="Shape" stroke="#A1C2D8" stroke-linecap="round" stroke-linejoin="round"></path>
            <path d="M127.34,90.26 L131.5,90.26" id="Shape" stroke="#A1C2D8" stroke-linecap="round" stroke-linejoin="round"></path>
            <path d="M138.84,85.76 L145.5,85.76" id="Shape" stroke="#A1C2D8" stroke-linecap="round" stroke-linejoin="round"></path>
            <path d="M127.34,85.76 L135.82,85.76" id="Shape" stroke="#A1C2D8" stroke-linecap="round" stroke-linejoin="round"></path>
            <path d="M142.21,81.26 L147,81.26" id="Shape" stroke="#A1C2D8" stroke-linecap="round" stroke-linejoin="round"></path>
            <path d="M133.88,81.26 L139.23,81.26" id="Shape" stroke="#A1C2D8" stroke-linecap="round" stroke-linejoin="round"></path>
            <path d="M127.34,81.26 L130.91,81.26" id="Shape" stroke="#A1C2D8" stroke-linecap="round" stroke-linejoin="round"></path>
            <path d="M134.52,76.76 L150.8,76.76" id="Shape" stroke="#A1C2D8" stroke-linecap="round" stroke-linejoin="round"></path>
            <path d="M127.34,76.76 L131.64,76.76" id="Shape" stroke="#A1C2D8" stroke-linecap="round" stroke-linejoin="round"></path>
            <path d="M127.34,90.26 L131.64,90.26" id="Shape" stroke="#A1C2D8" stroke-linecap="round" stroke-linejoin="round"></path>
            <path d="M90.88,103 C90.5759648,104.010348 90.4573854,105.067399 90.53,106.12 C90.509605,106.596034 90.6998069,107.056907 91.05,107.38 C91.58,107.76 92.34,107.44 92.83,107.01 C93.7692281,106.196743 94.362909,105.055874 94.49,103.82 C94.1569077,104.619753 93.9738584,105.473983 93.95,106.34 L93.37,112.8 C93.3615534,113.163751 93.2870066,113.522931 93.15,113.86 C93.0102964,114.205042 92.6904995,114.443927 92.32,114.48 C91.7952246,114.443177 91.3887097,114.006064 91.39,113.48 C91.4030201,112.9728 91.5901621,112.485524 91.92,112.1 C92.9057018,110.779952 94.3856265,109.917264 96.02,109.71" id="Shape" stroke="#A1C2D8" stroke-linecap="round" stroke-linejoin="round"></path>
            <path d="M98.39,104.64 L101.15,104.39" id="Shape" stroke="#A1C2D8" stroke-linecap="round" stroke-linejoin="round"></path>
            <path d="M98.65,107 C99.5674398,106.6434 100.545894,106.470132 101.53,106.49" id="Shape" stroke="#A1C2D8" stroke-linecap="round" stroke-linejoin="round"></path>
            <path d="M106.5,103.18 C106.211473,102.856045 105.746981,102.755069 105.35,102.93 C104.968161,103.12124 104.65407,103.424862 104.45,103.8 C103.912544,104.663364 103.634831,105.663129 103.65,106.68 C103.616084,107.023667 103.737052,107.364576 103.98,107.61 C104.44,107.96 105.1,107.61 105.47,107.11 C106.317143,106.076603 106.748573,104.764488 106.68,103.43 C106.48,104.43 105.95,105.43 106.35,106.43 C106.632076,107.098755 107.318039,107.50465 108.04,107.43" id="Shape" stroke="#A1C2D8" stroke-linecap="round" stroke-linejoin="round"></path>
            <path d="M113.23,114 C110.80331,109.61098 110.948797,104.25092 113.61,100" id="Shape" stroke="#A1C2D8" stroke-linecap="round" stroke-linejoin="round"></path>
            <path d="M114.62,103.85 C115.093273,103.621483 115.657582,103.700408 116.05,104.05 C116.428383,104.400302 116.698972,104.851285 116.83,105.35 C116.94703,105.935938 117.178075,106.493164 117.51,106.99 C117.960558,107.501399 118.672991,107.694268 119.32,107.48" id="Shape" stroke="#A1C2D8" stroke-linecap="round" stroke-linejoin="round"></path>
            <path d="M118.46,103.39 L114.68,107.89" id="Shape" stroke="#A1C2D8" stroke-linecap="round" stroke-linejoin="round"></path>
            <path d="M120,105.4 L121.38,105.27" id="Shape" stroke="#A1C2D8" stroke-linecap="round" stroke-linejoin="round"></path>
            <path d="M124.3,101.9 C124.095499,103.962276 123.761506,106.00965 123.3,108.03 C123.404575,106.93539 123.872821,105.907362 124.63,105.11 C124.761653,104.984504 124.929704,104.903979 125.11,104.88 C125.59,104.88 125.84,105.45 125.82,105.93 C125.8,106.41 125.67,106.79 125.64,107.23 C125.573176,107.668248 125.701007,108.113831 125.99,108.45 C126.134273,108.61359 126.34188,108.707307 126.56,108.707307 C126.77812,108.707307 126.985727,108.61359 127.13,108.45" id="Shape" stroke="#A1C2D8" stroke-linecap="round" stroke-linejoin="round"></path>
            <path d="M127.55,98.94 C130.649812,103.193077 130.982021,108.864079 128.4,113.45" id="Shape" stroke="#A1C2D8" stroke-linecap="round" stroke-linejoin="round"></path>
            <path d="M131.92,100.13 C131.942247,99.8955522 132.065427,99.6823943 132.257451,99.5460577 C132.449474,99.409721 132.691326,99.3637059 132.92,99.42 C133.385571,99.5683324 133.701245,100.001372 133.7,100.49 C133.688927,100.968778 133.491622,101.424374 133.15,101.76 C132.732813,102.200845 132.180164,102.48949 131.58,102.58 C131.58,102.19 132.1,101.99 132.47,102.11 C132.84,102.23 133.15,102.51 133.47,102.65 C133.79,102.79 134.37,102.65 134.47,102.27" id="Shape" stroke="#A1C2D8" stroke-linecap="round" stroke-linejoin="round"></path>
            <path d="M138.9,104.91 C139.056465,106.368005 139.086577,107.836808 138.99,109.3" id="Shape" stroke="#A1C2D8" stroke-linecap="round" stroke-linejoin="round"></path>
            <path d="M137.16,107.12 L140.66,106.94" id="Shape" stroke="#A1C2D8" stroke-linecap="round" stroke-linejoin="round"></path>
            <path d="M144.81,104.26 C146.561118,103.529753 147.438433,101.56018 146.81,99.77 C146.766262,99.6187774 146.670672,99.4877844 146.54,99.4 C146.314491,99.3068792 146.054615,99.3865187 145.92,99.59 C145.796168,99.7927566 145.724054,100.022835 145.71,100.26 C145.310458,103.173747 145.090044,106.10926 145.05,109.05 C144.897854,108.204892 144.877614,107.341308 144.99,106.49 C145.113168,105.626402 145.63043,104.868982 146.39,104.44 C146.52832,104.365963 146.683123,104.328123 146.84,104.33 C147.06107,104.369255 147.254993,104.500723 147.373306,104.69155 C147.491619,104.882377 147.523143,105.114533 147.46,105.33 C147.329076,105.758341 147.034397,106.117706 146.64,106.33 C146.251421,106.536282 145.880206,106.773726 145.53,107.04 L147.74,107.9" id="Shape" stroke="#A1C2D8" stroke-linecap="round" stroke-linejoin="round"></path>
            <path d="M159.27,93.88 C159.27,93.88 152.4,95.28 150.43,97.11 C150.43,97.11 149.55,103.99 150.12,107.69 L154.39,109.8 L159.27,93.88 Z" id="Shape" fill="#FFFFFF" fill-rule="nonzero"></path>
            <path d="M155.9,106.09 C155.31,104.17 154.66,101.78 154.66,101.78 C155.85,101.89 157.28,100.38 157.28,100.38 L159.28,93.88 C159.28,93.88 151.5,95.43 150.44,97.11 C150.44,97.11 149.63,97.64 150.13,107.69" id="Shape" stroke="#3F555A" stroke-linecap="round" stroke-linejoin="round"></path>
            <path d="M188.87,154.91 C196.66,154.91 198.37,155.05 206.15,155.1 C199.330896,139.40444 191.47349,124.180716 182.63,109.53 C182.175135,108.545123 181.910491,107.483156 181.85,106.4 C180.65,99.77 176.08,101.05 176.08,101.05 C175.14,101.05 175.08,99.64 175.08,99.64 C173.51,96.04 169.34,98.32 169.34,98.32 C168.07,98.99 168.04,98.13 168.04,98.13 C167.718166,97.2799053 167.054037,96.6040988 166.20968,96.2674972 C165.365324,95.9308956 164.418405,95.9644602 163.6,96.36 L160.82,104.76 C161.068292,106.724911 160.039298,108.630159 158.26,109.5 C158.26,109.5 155.86,111.37 152.63,108.71 C150.963621,107.605971 148.743363,107.868173 147.38,109.33 C147.38,109.33 144.82,111.51 147.3,114.56 C148.439344,116.038576 150.065439,117.065957 151.89,117.46 C152.555458,117.568996 153.107984,118.033272 153.33,118.67 C153.33,118.67 156.04,127.67 173.02,128.26 L172.74,128.26 C176.47,133 186.81,146.61 188.87,154.91 Z" id="Shape" fill="#FFFFFF" fill-rule="nonzero"></path>
            <path d="M167.21,99.35 C167.917684,99.2391824 168.63391,99.1923265 169.35,99.21 L174.76,99.21 C172.314066,99.0637754 169.915077,98.4741934 167.68,97.47 C166.882657,96.995691 165.967455,96.7564905 165.04,96.78 C163.66,96.98 162.83,98.39 161.61,99.08 C161.81,98.95 162.09,99.08 162.16,99.35 C162.208855,99.5808616 162.18797,99.8210362 162.1,100.04 C161.647973,101.348377 161.280548,102.684467 161,104.04 C162.9,102.15 164.36,99.89 167.21,99.35 Z" id="Shape" fill="#D0E4F1" fill-rule="nonzero"></path>
            <path d="M168.62,80 L163.91,78.48 L168.17,64.55 C168.363187,63.921988 168.799579,63.3973582 169.381912,63.0930421 C169.964246,62.788726 170.644119,62.7300169 171.27,62.93 C172.559309,63.3548378 173.27399,64.7309327 172.88,66.03 L168.62,80 Z" id="Shape" fill="#3290C1" fill-rule="nonzero"></path>
            <polygon id="Shape" fill="#3290C1" fill-rule="nonzero" points="158.87 108.81 154.28 110.16 163.91 78.47 168.62 79.99"></polygon>
            <path d="M171.47,67.15 L173.67,67.84 C174.165217,68.0152528 174.440411,68.5438001 174.3,69.05 L170.15,82.6" id="Shape" stroke="#1E6B96" stroke-linecap="round" stroke-linejoin="round"></path>
            <path d="M168.62,79.99 L159.48,108.54" id="Shape" stroke="#1E6B96" stroke-linecap="round" stroke-linejoin="round"></path>
            <path d="M154.39,109.8 L163.91,78.47" id="Shape" stroke="#1E6B96" stroke-linecap="round" stroke-linejoin="round"></path>
            <path d="M168.62,80 C168.62531,78.8588271 167.848154,77.8625785 166.74,77.59 C165.706034,77.1529447 164.507694,77.529808 163.91,78.48 L168.17,64.55 C168.363187,63.921988 168.799579,63.3973582 169.381912,63.0930421 C169.964246,62.788726 170.644119,62.7300169 171.27,62.93 C172.559309,63.3548378 173.27399,64.7309327 172.88,66.03 L168.62,80 Z" id="Shape" stroke="#1E6B96" stroke-linecap="round" stroke-linejoin="round"></path>
            <path d="M185,151.87 C183.25,144.87 179.54,131.51 175.05,125.78" id="Shape" stroke="#D0E4F1" stroke-width="6" stroke-linecap="round" stroke-linejoin="round"></path>
            <path d="M175,128.78 L172.2,128.7 L170.62,128.55 C170.1,128.49 169.56,128.47 169.06,128.37 L167.54,128.1 C167.030746,128.01478 166.526633,127.901271 166.03,127.76 C165.53,127.63 165.03,127.51 164.53,127.36 L163.04,126.84 C162.54,126.68 162.04,126.44 161.58,126.24 C161.086717,126.035044 160.60589,125.801308 160.14,125.54 C159.67,125.28 159.19,125.05 158.74,124.74 C158.29,124.43 157.82,124.18 157.39,123.83 C156.96,123.48 156.51,123.18 156.11,122.83 C155.254788,122.095951 154.471266,121.282294 153.77,120.4 C153.59,120.17 153.41,119.94 153.24,119.68 C153.07,119.42 153.07,119.44 152.98,119.29 C152.89,119.14 152.82,119.04 152.68,118.77 L154.86,120.36 C154.53,120.25 154.33,120.15 154.07,120.04 L153.37,119.71 C152.91,119.48 152.46,119.24 152.03,118.99 C151.148273,118.487788 150.305862,117.919495 149.51,117.29 C149.109249,116.977242 148.725376,116.64344 148.36,116.29 C148.001712,115.932636 147.667639,115.551792 147.36,115.15 C147.2,114.96 147.06,114.73 146.91,114.52 C146.760199,114.312319 146.629657,114.091403 146.52,113.86 C146.395099,113.638904 146.288091,113.408167 146.2,113.17 L145.96,112.46 C145.890694,112.262521 145.966682,112.043329 146.143348,111.931122 C146.320014,111.818915 146.550717,111.843317 146.7,111.99 L146.77,112.05 L147.22,112.49 C147.372321,112.630263 147.536239,112.757383 147.71,112.87 C147.868839,112.993499 148.039699,113.100705 148.22,113.19 C148.394961,113.292747 148.57521,113.386209 148.76,113.47 C149.129851,113.63892 149.510723,113.782583 149.9,113.9 C150.287714,114.02093 150.681608,114.121072 151.08,114.2 C151.884555,114.361695 152.700239,114.461984 153.52,114.5 C153.93,114.5 154.34,114.5 154.74,114.5 L155.34,114.5 C155.517996,114.494334 155.695242,114.474268 155.87,114.44 L158,116 C158,115.93 158,116 158.05,116.08 L158.18,116.27 C158.26,116.4 158.38,116.54 158.48,116.68 C158.703708,116.96722 158.944123,117.241026 159.2,117.5 C159.457818,117.772704 159.731635,118.029825 160.02,118.27 C160.29,118.53 160.62,118.75 160.92,118.99 C161.22,119.23 161.57,119.42 161.92,119.64 C162.243177,119.853394 162.576937,120.050312 162.92,120.23 C163.268044,120.427141 163.628844,120.600859 164,120.75 C164.364782,120.92338 164.738659,121.076937 165.12,121.21 L166.27,121.61 C166.66,121.73 167.07,121.82 167.47,121.93 C167.870562,122.045651 168.278044,122.135831 168.69,122.2 L169.93,122.42 C170.35,122.51 170.74,122.51 171.14,122.56 L172.35,122.69 L175.14,122.77 C176.211797,122.798581 177.18693,123.396788 177.698076,124.339282 C178.209223,125.281776 178.178727,126.425369 177.618076,127.339282 C177.057426,128.253195 176.051797,128.798581 174.98,128.77 L175,128.78 Z" id="Shape" fill="#D0E4F1" fill-rule="nonzero"></path>
            <path d="M182.37,153.38 C180.62,146.69 176.99,133.74 172.68,128.23" id="Shape" stroke="#3F555A" stroke-linecap="round" stroke-linejoin="round"></path>
            <path d="M163.55,96.35 C166.38,95.27 167.45,98.49 171.74,98.49 C175.606292,98.7274059 179.157525,100.701539 181.4,103.86 L181.4,107.08 C188.91,119.96 200.12,138.37 205.24,153.03" id="Shape" stroke="#3F555A" stroke-linecap="round" stroke-linejoin="round"></path>
            <path d="M160.77,104.76 C161.018292,106.724911 159.989298,108.630159 158.21,109.5 C158.21,109.5 155.81,111.37 152.58,108.71 C150.913621,107.605971 148.693363,107.868173 147.33,109.33 C147.33,109.33 144.77,111.51 147.25,114.56 C148.389344,116.038576 150.015439,117.065957 151.84,117.46 C152.505458,117.568996 153.057984,118.033272 153.28,118.67 C153.28,118.67 156.28,128.49 175.28,128.29" id="Shape" stroke="#3F555A" stroke-linecap="round" stroke-linejoin="round"></path>
            <path d="M42.54,111.48 C42.9,108.69 43.27,105.9 43.37,103.09 C43.46,100.57 43.37,97.91 44.55,95.68 C44.1084864,95.4919763 43.5961389,95.608969 43.28,95.97 C42.9792495,96.3267919 42.7637912,96.7474485 42.65,97.2 C41.4971672,100.97468 40.7890388,104.871064 40.54,108.81 C40.39,110.81 39.09,117.81 40.87,118.95 C42.29,117.26 42.26,113.62 42.54,111.48 Z" id="Shape" fill="#D0E4F1" fill-rule="nonzero"></path>
            <path d="M48,117.34 C48.4245563,116.685905 48.7073017,115.950086 48.83,115.18 C50.12,109.18 49.31,102.9 50.77,96.96 C51.04,95.84 51.66,94.52 52.77,94.47 C52.4264417,94.0863908 51.9398957,93.8614372 51.4251018,93.8481888 C50.9103078,93.8349405 50.4128351,94.03457 50.05,94.4 C49.3551202,95.1712587 48.9059875,96.1321938 48.76,97.16 C47.7997245,101.237354 47.1049326,105.372702 46.68,109.54 C46.47,111.54 46.33,113.59 46.25,115.62 C46.29,116.85 46.43,119.54 48,117.34 Z" id="Shape" fill="#D0E4F1" fill-rule="nonzero"></path>
            <path d="M57.2,102.51 C57.51,100.51 57.91,98.17 59.62,97.02 C58.6410699,96.6207275 57.516168,96.9090597 56.85,97.73 C56.2166148,98.5443178 55.7848575,99.4969251 55.59,100.51 C54.1336214,106.055634 53.4604273,111.777784 53.59,117.51 C55.3260019,112.6534 56.5362528,107.624656 57.2,102.51 Z" id="Shape" fill="#D0E4F1" fill-rule="nonzero"></path>
            <path d="M61.24,126.8 C61.8790572,126.366004 62.3570933,125.733309 62.6,125 C63.0262932,124.161558 63.3615393,123.279861 63.6,122.37 C63.6998837,121.487754 63.8704315,120.614951 64.11,119.76 C64.5467659,118.646008 65.491452,117.80918 66.65,117.51 C66.2531612,116.849111 65.433097,116.577173 64.72,116.87 C63.34,117.35 62.78,118.97 62.4,120.38 L61.65,123.18 C61.5111119,123.834544 61.2680173,124.462538 60.93,125.04 C60.63,125.49 59.52,126.04 59.71,126.57 C59.9,127.1 60.89,127 61.24,126.8 Z" id="Shape" fill="#D0E4F1" fill-rule="nonzero"></path>
            <path d="M37.23,132.49 C35.8,121.7 34.65,110.67 36.67,99.87 C36.39,99.87 35.23,101.09 35,101.23 C32.36,109.16 32,115.23 32.7,123.89 C33.09,128.89 34.7,135.01 35.7,139.89 C36.59,144.43 37.33,149.09 35.88,153.58 C35.88,155.1 35.88,156.64 35.88,158.2 C37.4465012,158.664899 39.1289862,158.540402 40.61,157.85 C40.61,157.85 39.61,151.07 39.35,148.85 C38.78,143.43 38,138 37.23,132.49 Z" id="Shape" fill="#D0E4F1" fill-rule="nonzero"></path>
            <path d="M53.14,118.19 C53.4954615,111.897327 54.3954941,105.647286 55.83,99.51 C55.9786391,98.6419132 56.3203854,97.8183044 56.83,97.1 C57.3577061,96.3717486 58.2936866,96.0651343 59.15,96.34 C60.21,96.8 60.4,98.21 60.39,99.34 C60.39,108.02 58.39,116.66 59.12,125.34 C59.0958023,125.780336 59.2679085,126.208771 59.59,126.51 C59.95,126.76 60.59,126.4 60.41,126.01 C61.13,123.85 61.77,121.54 62.49,119.38 C62.7008162,118.530623 63.1084596,117.742741 63.68,117.08 C64.2869761,116.41747 65.2736665,116.267593 66.05,116.72 C66.3820191,116.995321 66.6226293,117.364955 66.74,117.78 C66.9301258,118.504187 67.0176465,119.251479 67,120 C67.2325402,126.045066 65.986502,132.05557 63.37,137.51 C61.76,140.85 59.66,143.93 57.99,147.23 C56.4656418,150.559276 55.8845246,154.243144 56.31,157.88" id="Shape" stroke="#3F555A" stroke-linecap="round" stroke-linejoin="round"></path>
            <path d="M53.72,110.78 L53.72,102.63 C53.72,100.33 54.59,96.39 53.18,94.39 C51.77,92.39 49.81,94.1 49.18,95.7 C48.18,98.04 48.12,100.6 47.74,103.07 C47.1415463,107.468291 46.7644044,111.893868 46.61,116.33 C46.61,117.12 46.42,118.06 45.7,118.33 C46,118.19 45.51,113.95 45.51,113.44 C45.51,110.7 45.76,107.81 45.95,105.02 C46.14,102.23 46.52,99.18 45.57,96.48 C45.4484212,96.0010311 45.1043794,95.6094989 44.6450206,95.4273394 C44.1856618,95.2451798 43.6667904,95.2945223 43.25,95.56 C41.95,96.33 41.84,98.25 41.63,99.56 C40.6230047,105.989439 40.1646862,112.492878 40.26,119" id="Shape" stroke="#3F555A" stroke-linecap="round" stroke-linejoin="round"></path>
            <path d="M40.2,118.69 C40.36,118.96 39.91,119.27 39.63,119.11 C39.3778207,118.910417 39.2245994,118.611271 39.21,118.29 C38.3494999,113.450588 38.0641862,108.52641 38.36,103.62 C38.42,102.56 38.47,101.06 37.48,100.38 C36.08,99.38 34.87,101.16 34.48,102.31 C33.1850108,106.053689 32.4602435,109.970803 32.33,113.93 C31.91,124.12 34.33,134.3 36.33,144.23 C37.11,148.17 36.47,153.89 36.21,157.9" id="Shape" stroke="#3F555A" stroke-linecap="round" stroke-linejoin="round"></path>
            <path d="M15,8.65 C14.2323351,5.82424284 12.0060937,3.62855024 9.17,2.9 C6.17,2.08 2.46,3.05 0.88,5.32 C0.284047714,6.24026209 -0.00640225772,7.32507524 0.05,8.42 L0.05,72 C0.0405323761,74.1962865 1.06242209,76.2696859 2.81,77.6 C5.32,79.66 8.81,80.6 12.29,81.26 C18.5015668,82.2768812 24.7857501,82.7852345 31.08,82.78 C39.36,82.93 47.63,82.78 55.91,82.7 L62.57,82.61 L62.57,72.93 L70,72.93 L70,8.65 L15,8.65 Z M1.6,68.75 C2.88782601,67.4374806 4.68550229,66.7542174 6.52,66.88 L6.7,66.88 C5.00505784,66.9115433 3.36213516,67.4708361 2,68.48 C1.85,68.57 1.72,68.65 1.61,68.75 L1.6,68.75 Z" id="Shape" stroke="#D0E4F1" fill="#D0E4F1" fill-rule="nonzero" stroke-linecap="round" stroke-linejoin="round"></path>
            <rect id="Rectangle-path" stroke="#3F555A" fill="#FFFFFF" fill-rule="nonzero" stroke-linecap="round" stroke-linejoin="round" x="23.38" y="6.79" width="46.58" height="65.87"></rect>
            <path d="M63.7,72.66 L63.7,82.58 L58.05,82.68 C51.05,82.8 44.05,82.92 37.05,82.76 C31.701689,82.7636929 26.3659886,82.2411761 21.12,81.2 C18.2,80.55 15.21,79.55 13.12,77.44 C11.03,75.33 9.98,71.84 11.48,69.25 C12.9833382,66.9346015 15.854306,65.9174587 18.48,66.77 C21.0556576,67.7195895 22.9379518,69.9593296 23.43,72.66 L63.7,72.66 Z" id="Shape" fill="#FFFFFF" fill-rule="nonzero"></path>
            <path d="M58.92,77.76 C58.92,77.76 38.66,77.76 37.14,77.76 C32.2369476,77.6671845 27.3472442,77.2159816 22.51,76.41 C18.61,75.72 13.64,74.72 11.67,70.8 C11.4006152,70.3306616 11.3218553,69.7757619 11.45,69.25 C11.5629088,68.9321504 11.7477127,68.6446777 11.99,68.41 C13.5973277,66.8999984 15.9181875,66.4242221 17.99,67.18 C20.03746,67.9859141 21.707684,69.5312282 22.67,71.51 C22.8077949,71.9228297 23.0831423,72.2758392 23.45,72.51 C23.6803553,72.5933607 23.9256462,72.6274289 24.17,72.61 L53.81,72.61 C55.09,72.61 58.95,72.73 58.95,72.73 L58.92,77.76 Z" id="Shape" fill="#D0E4F1" fill-rule="nonzero"></path>
            <path d="M63.7,72.66 L63.7,82.58 L58.05,82.68 C51.05,82.8 44.05,82.92 37.05,82.76 C31.701689,82.7636929 26.3659886,82.2411761 21.12,81.2 C18.2,80.55 15.21,79.55 13.12,77.44 C11.03,75.33 9.98,71.84 11.48,69.25 C12.9833382,66.9346015 15.854306,65.9174587 18.48,66.77 C21.0556576,67.7195895 22.9379518,69.9593296 23.43,72.66 L63.7,72.66 Z" id="Shape" stroke="#3F555A" stroke-linecap="round" stroke-linejoin="round"></path>
            <path d="M63.77,34.74 L63.77,11.22" id="Shape" stroke="#D5D5D7" stroke-linecap="round" stroke-linejoin="round"></path>
            <path d="M58.22,34.74 L58.22,11.22" id="Shape" stroke="#D5D5D7" stroke-linecap="round" stroke-linejoin="round"></path>
            <path d="M52.67,34.74 L52.67,11.22" id="Shape" stroke="#D5D5D7" stroke-linecap="round" stroke-linejoin="round"></path>
            <path d="M47.12,34.74 L47.12,11.22" id="Shape" stroke="#D5D5D7" stroke-linecap="round" stroke-linejoin="round"></path>
            <path d="M41.58,34.74 L41.58,11.22" id="Shape" stroke="#D5D5D7" stroke-linecap="round" stroke-linejoin="round"></path>
            <path d="M36.03,34.74 L36.03,11.22" id="Shape" stroke="#3F555A" stroke-linecap="round" stroke-linejoin="round"></path>
            <path d="M33.33,12.03 L28.04,12.03" id="Shape" stroke="#3F555A" stroke-linecap="round" stroke-linejoin="round"></path>
            <path d="M33.33,14.77 L30.59,14.77" id="Shape" stroke="#3F555A" stroke-linecap="round" stroke-linejoin="round"></path>
            <path d="M33.33,17.5 L32.39,17.5" id="Shape" stroke="#3F555A" stroke-linecap="round" stroke-linejoin="round"></path>
            <path d="M33.33,20.24 L27.38,20.24" id="Shape" stroke="#3F555A" stroke-linecap="round" stroke-linejoin="round"></path>
            <path d="M29.06,22.98 L33.33,22.98" id="Shape" stroke="#3F555A" stroke-linecap="round" stroke-linejoin="round"></path>
            <path d="M27.02,25.72 L33.33,25.72" id="Shape" stroke="#3F555A" stroke-linecap="round" stroke-linejoin="round"></path>
            <path d="M30.36,28.46 L33.33,28.46" id="Shape" stroke="#3F555A" stroke-linecap="round" stroke-linejoin="round"></path>
            <path d="M28.08,31.2 L33.33,31.2" id="Shape" stroke="#3F555A" stroke-linecap="round" stroke-linejoin="round"></path>
            <path d="M31.03,33.94 L33.33,33.94" id="Shape" stroke="#3F555A" stroke-linecap="round" stroke-linejoin="round"></path>
            <path d="M37.8,12.03 L61.33,12.03" id="Shape" stroke="#F56F40" stroke-linecap="round" stroke-linejoin="round"></path>
            <path d="M37.8,14.76 L50.43,14.76" id="Shape" stroke="#19BC9C" stroke-linecap="round" stroke-linejoin="round"></path>
            <path d="M37.8,17.5 L42.73,17.5" id="Shape" stroke="#3290C1" stroke-linecap="round" stroke-linejoin="round"></path>
            <path d="M37.8,20.24 L64.13,20.24" id="Shape" stroke="#F56F40" stroke-linecap="round" stroke-linejoin="round"></path>
            <path d="M56.95,22.98 L37.8,22.98" id="Shape" stroke="#19BC9C" stroke-linecap="round" stroke-linejoin="round"></path>
            <path d="M65.66,25.72 L37.8,25.72" id="Shape" stroke="#3290C1" stroke-linecap="round" stroke-linejoin="round"></path>
            <path d="M51.4,28.46 L37.8,28.46" id="Shape" stroke="#F56F40" stroke-linecap="round" stroke-linejoin="round"></path>
            <path d="M61.17,31.2 L37.8,31.2" id="Shape" stroke="#19BC9C" stroke-linecap="round" stroke-linejoin="round"></path>
            <path d="M48.53,33.94 L37.8,33.94" id="Shape" stroke="#3290C1" stroke-linecap="round" stroke-linejoin="round"></path>
            <rect id="Rectangle-path" stroke="#109995" fill="#FFFFFF" fill-rule="nonzero" stroke-linecap="round" stroke-linejoin="round" x="27.38" y="40.8" width="2.89" height="10.5"></rect>
            <rect id="Rectangle-path" stroke="#1A628A" stroke-linecap="round" stroke-linejoin="round" x="27.38" y="54.12" width="2.89" height="12.94"></rect>
            <path d="M30.27,51.3 L35.39,51.3 C47.59,51.3 52.39,61.38 62.77,61.38 L62.77,56 C52.4,56 47.59,45.92 35.39,45.92 C47.59,45.92 52.39,50.45 62.77,50.45 L62.77,47.68 C52.4,47.68 47.59,43.15 35.39,43.15 L62.77,43.15 L62.77,40.8 L30.27,40.8 L30.27,51.3 Z" id="Shape" stroke="#109995" fill="#19BC9C" fill-rule="nonzero" stroke-linecap="round" stroke-linejoin="round"></path>
            <path d="M30.27,67.05 L62.77,67.05 L62.77,61.38 C52.4,61.38 47.59,59.97 35.39,59.97 C47.59,59.97 52.39,53.46 62.77,53.46 L62.77,50.46 C52.4,50.46 47.59,56.46 35.39,56.46 C47.59,56.46 52.39,45.46 62.77,45.46 L62.77,43.15 C52.4,43.15 47.59,54.15 35.39,54.15 L30.27,54.15 L30.27,67.05 Z" id="Shape" stroke="#1A628A" fill="#3290C1" fill-rule="nonzero" stroke-linecap="round" stroke-linejoin="round"></path>
            <path d="M11.4,3.38 C10.8884321,4.35903673 10.6468197,5.45664764 10.7,6.56 L10.7,72.43 C10.7,72.43 10.7,66.43 16.18,66.43 C16.6818952,66.4331504 17.1817931,66.4935407 17.67,66.61 C16.73,44.61 17.47,22.82 16.21,0.61 C14.2443279,0.670862917 12.4392229,1.71039319 11.4,3.38 Z" id="Shape" stroke="#D0E4F1" fill="#D0E4F1" fill-rule="nonzero" stroke-linecap="round" stroke-linejoin="round"></path>
            <path d="M18.43,0.9 C17.7130107,0.673736018 16.9603223,0.582192842 16.21,0.63 C17.47,22.87 16.73,44.63 17.67,66.63 C21.97,67.63 23.37,72.63 23.37,72.63 L23.37,6.79 C22.8798252,4.09167321 21.0017795,1.85246478 18.43,0.9 Z" id="Shape" fill="#FFFFFF" fill-rule="nonzero"></path>
            <path d="M10.7,72.43 C10.7,72.43 10.7,66.43 16.18,66.43 C21.66,66.43 23.37,72.61 23.37,72.61 L23.37,6.79 C22.8779518,4.08932958 20.9956576,1.84958955 18.42,0.9 C15.794306,0.0474586849 12.9233382,1.06460154 11.42,3.38 C10.9084321,4.35903673 10.6668197,5.45664764 10.72,6.56 L10.7,72.43 Z" id="Shape" stroke="#3F555A" stroke-linecap="round" stroke-linejoin="round"></path>
            <rect id="Rectangle-path" stroke="#109995" fill="#FFFFFF" fill-rule="nonzero" stroke-linecap="round" stroke-linejoin="round" x="62.77" y="40.8" width="2.89" height="4.69"></rect>
            <rect id="Rectangle-path" stroke="#109995" fill="#FFFFFF" fill-rule="nonzero" stroke-linecap="round" stroke-linejoin="round" x="62.77" y="47.68" width="2.89" height="5.78"></rect>
            <rect id="Rectangle-path" stroke="#109995" fill="#FFFFFF" fill-rule="nonzero" stroke-linecap="round" stroke-linejoin="round" x="62.77" y="56" width="2.89" height="11.05"></rect>
        </g>
    </g>
</svg>