<svg id="Layer_1" data-name="Layer 1" xmlns="http://www.w3.org/2000/svg" viewBox="0 0 149.92 146.29"><defs><style>.cls-1,.cls-4,.cls-6{fill:#fff;}.cls-2,.cls-5{fill:#d0e4f1;}.cls-11,.cls-3,.cls-7,.cls-9{fill:none;}.cls-3,.cls-4{stroke:#a1c2d8;}.cls-10,.cls-11,.cls-3,.cls-4,.cls-5,.cls-6{stroke-linecap:round;}.cls-10,.cls-11,.cls-3,.cls-4,.cls-5,.cls-6,.cls-7{stroke-linejoin:round;}.cls-5{stroke:#d0e4f1;}.cls-11,.cls-6,.cls-7{stroke:#3f555a;}.cls-7{stroke-width:2px;}.cls-8{fill:#f27776;}.cls-9{stroke:#f27776;stroke-miterlimit:10;stroke-width:1.02px;}.cls-10{fill:#19bc9c;stroke:#109995;}</style></defs><title>organized-by-standard</title><path class="cls-1" d="M48.08,48.07V40.35a1.66,1.66,0,0,0-1.66-1.66h-31a1.66,1.66,0,0,0-1.66,1.66v7.72" transform="translate(-7.54 -7.35)"/><path class="cls-1" d="M132.12,133H8V51.39a3.32,3.32,0,0,1,3.32-3.32H129a3.49,3.49,0,0,1,3.07,1.61Z" transform="translate(-7.54 -7.35)"/><path class="cls-2" d="M21.36,52.25h-5A3.32,3.32,0,0,0,13,55.57V133h5V55.57A3.32,3.32,0,0,1,21.36,52.25Z" transform="translate(-7.54 -7.35)"/><path class="cls-3" d="M48.08,48.07V40.35a1.66,1.66,0,0,0-1.66-1.66h-31a1.66,1.66,0,0,0-1.66,1.66v7.72" transform="translate(-7.54 -7.35)"/><path class="cls-3" d="M132.12,133H8V51.39a3.32,3.32,0,0,1,3.32-3.32H129a3.49,3.49,0,0,1,3.07,1.61Z" transform="translate(-7.54 -7.35)"/><path class="cls-1" d="M56.25,52.76V45a1.66,1.66,0,0,0-1.66-1.66h-31A1.66,1.66,0,0,0,22,45v7.72" transform="translate(-7.54 -7.35)"/><path class="cls-1" d="M140.29,137.7H16.22V56.08a3.32,3.32,0,0,1,3.32-3.32H137.22a3.49,3.49,0,0,1,3.07,1.61Z" transform="translate(-7.54 -7.35)"/><path class="cls-2" d="M29.68,56.94h-5a3.32,3.32,0,0,0-3.32,3.32V137.7h5V60.26A3.32,3.32,0,0,1,29.68,56.94Z" transform="translate(-7.54 -7.35)"/><path class="cls-3" d="M56.25,52.76V45a1.66,1.66,0,0,0-1.66-1.66h-31A1.66,1.66,0,0,0,22,45v7.72" transform="translate(-7.54 -7.35)"/><path class="cls-3" d="M140.29,137.7H16.22V56.08a3.32,3.32,0,0,1,3.32-3.32H137.22a3.49,3.49,0,0,1,3.07,1.61Z" transform="translate(-7.54 -7.35)"/><rect class="cls-4" x="24.7" y="62.68" width="52.03" height="60.34" transform="translate(-53.45 42.4) rotate(-37.32)"/><rect class="cls-4" x="23.31" y="71.65" width="52.03" height="60.34" transform="translate(-65.09 57.35) rotate(-45)"/><path class="cls-4" d="M64.43,57.45V49.73a1.66,1.66,0,0,0-1.66-1.66h-31a1.66,1.66,0,0,0-1.66,1.66v7.72" transform="translate(-7.54 -7.35)"/><path class="cls-4" d="M148.47,142.39H24.39V60.77a3.32,3.32,0,0,1,3.32-3.32H145.4a3.49,3.49,0,0,1,3.07,1.61Z" transform="translate(-7.54 -7.35)"/><rect class="cls-5" x="55.32" y="16.01" width="91.23" height="129.78" rx="1.44" ry="1.44"/><rect class="cls-6" x="58.19" y="13.14" width="91.23" height="129.78" rx="1.44" ry="1.44"/><path class="cls-1" d="M123.53,10.41h0A2.56,2.56,0,0,0,121,7.85H102.41a2.56,2.56,0,0,0-2.56,2.56h0A2.56,2.56,0,0,1,97.29,13H90.5a2.56,2.56,0,0,0-2.56,2.56v9.11a2.56,2.56,0,0,0,2.56,2.56h42.38a2.56,2.56,0,0,0,2.56-2.56V15.53A2.56,2.56,0,0,0,132.88,13h-6.79A2.56,2.56,0,0,1,123.53,10.41Z" transform="translate(-7.54 -7.35)"/><path class="cls-2" d="M91.16,21.45V13H90.5a2.56,2.56,0,0,0-2.56,2.56v9.11a2.56,2.56,0,0,0,2.56,2.56h42.38a2.56,2.56,0,0,0,2.56-2.56V24H93.72A2.56,2.56,0,0,1,91.16,21.45Z" transform="translate(-7.54 -7.35)"/><path class="cls-2" d="M113.86,12.27a3.1,3.1,0,0,1,.39,1.5,3.14,3.14,0,0,1-3.14,3.14,3.1,3.1,0,0,1-1.28-.28,3.13,3.13,0,1,0,4-4.36Z" transform="translate(-7.54 -7.35)"/><rect class="cls-6" x="69.97" y="29.68" width="13.46" height="13.46"/><rect class="cls-6" x="69.97" y="54.71" width="13.46" height="13.46"/><line class="cls-7" x1="91.14" y1="32.32" x2="122.7" y2="32.32"/><line class="cls-7" x1="91.14" y1="79.45" x2="122.7" y2="79.45"/><path class="cls-3" d="M121.7,45h25.25" transform="translate(-7.54 -7.35)"/><path class="cls-3" d="M98.68,45H115.5" transform="translate(-7.54 -7.35)"/><path class="cls-3" d="M98.68,50.49h48.26" transform="translate(-7.54 -7.35)"/><line class="cls-7" x1="91.14" y1="56.03" x2="122.7" y2="56.03"/><path class="cls-3" d="M121.7,68.69h25.25" transform="translate(-7.54 -7.35)"/><path class="cls-3" d="M98.68,68.69H115.5" transform="translate(-7.54 -7.35)"/><path class="cls-3" d="M98.68,74.2h10.24" transform="translate(-7.54 -7.35)"/><path class="cls-3" d="M114.25,74.2h24.49" transform="translate(-7.54 -7.35)"/><rect class="cls-6" x="69.97" y="78.6" width="13.46" height="13.46"/><rect class="cls-6" x="69.97" y="103.63" width="13.46" height="13.46"/><path class="cls-3" d="M121.7,93.91h25.25" transform="translate(-7.54 -7.35)"/><path class="cls-3" d="M98.68,93.91H115.5" transform="translate(-7.54 -7.35)"/><path class="cls-3" d="M98.68,99.42h48.26" transform="translate(-7.54 -7.35)"/><line class="cls-7" x1="91.14" y1="104.95" x2="122.7" y2="104.95"/><path class="cls-3" d="M121.7,117.61h25.25" transform="translate(-7.54 -7.35)"/><path class="cls-3" d="M98.68,117.61H115.5" transform="translate(-7.54 -7.35)"/><path class="cls-3" d="M98.68,123.12h10.24" transform="translate(-7.54 -7.35)"/><path class="cls-3" d="M114.25,123.12h24.49" transform="translate(-7.54 -7.35)"/><line class="cls-4" x1="31.18" y1="45.4" x2="49.05" y2="45.4"/><path class="cls-8" d="M135.44,117.71a11.83,11.83,0,1,1-11.83,11.83,11.83,11.83,0,0,1,11.83-11.83m0-2a13.83,13.83,0,1,0,13.83,13.83,13.85,13.85,0,0,0-13.83-13.83Z" transform="translate(-7.54 -7.35)"/><circle class="cls-9" cx="127.9" cy="122.19" r="9.55"/><line class="cls-9" x1="123.55" y1="120.68" x2="132.25" y2="120.68"/><line class="cls-9" x1="121.96" y1="123.7" x2="133.84" y2="123.7"/><polygon class="cls-10" points="71.97 34.23 74.65 31.55 78.47 35.36 86.11 27.72 88.8 30.4 78.47 40.73 71.97 34.23"/><polygon class="cls-10" points="71.97 59.59 74.65 56.91 78.47 60.73 86.11 53.09 88.8 55.77 78.47 66.09 71.97 59.59"/><polygon class="cls-10" points="71.97 83.19 74.65 80.51 78.47 84.32 86.11 76.68 88.8 79.36 78.47 89.69 71.97 83.19"/><polygon class="cls-10" points="71.97 107.78 74.65 105.1 78.47 108.92 86.11 101.27 88.8 103.95 78.47 114.28 71.97 107.78"/><circle class="cls-6" cx="104.15" cy="6.91" r="2.77"/><path class="cls-2" d="M96.05,13.44h8.5a3.61,3.61,0,0,0,3.4-2.38l.14-.4H99.67l-.81,1.77Z" transform="translate(-7.54 -7.35)"/><path class="cls-11" d="M123.53,10.41h0A2.56,2.56,0,0,0,121,7.85H102.41a2.56,2.56,0,0,0-2.56,2.56h0A2.56,2.56,0,0,1,97.29,13H90.5a2.56,2.56,0,0,0-2.56,2.56v9.11a2.56,2.56,0,0,0,2.56,2.56h42.38a2.56,2.56,0,0,0,2.56-2.56V15.53A2.56,2.56,0,0,0,132.88,13h-6.79A2.56,2.56,0,0,1,123.53,10.41Z" transform="translate(-7.54 -7.35)"/></svg>