<?xml version="1.0" encoding="UTF-8"?>
<svg width="170px" height="136px" viewBox="0 0 170 136" version="1.1" xmlns="http://www.w3.org/2000/svg" xmlns:xlink="http://www.w3.org/1999/xlink">
    <!-- Generator: Sketch 51.3 (57544) - http://www.bohemiancoding.com/sketch -->
    <title>practice_exams</title>
    <desc>Created with Sketch.</desc>
    <defs></defs>
    <g id="Page-1" stroke="none" stroke-width="1" fill="none" fill-rule="evenodd">
        <g id="practice_exams" transform="translate(1.000000, 0.000000)">
            <path d="M141.8,128 C141.726902,126.457175 141.437406,124.932272 140.94,123.47 C140.462355,122.390773 139.883076,121.359456 139.21,120.39 C134.72,113.32 131.42,105.14 131.88,96.77 C131.877293,96.0565096 132.02732,95.3507028 132.32,94.7 C132.629957,94.0432182 133.283964,93.6175327 134.01,93.6 C133.541716,95.4006267 133.517694,97.2880385 133.94,99.1 C134.824899,104.482534 136.369881,109.735472 138.54,114.74 C139.94,117.97 141.6,121.1 142.89,124.38 C143.564553,126.064908 144.093162,127.804633 144.47,129.58 C144.68,130.58 145.54,133.98 144.71,134.76 C143.53,135.87 142.48,134.37 142.31,133.45 C142,131.73 142,129.84 141.8,128 Z" id="Shape" fill="#D0E4F1" fill-rule="nonzero"></path>
            <path d="M142.18,98.77 C142.47,91.94 141.18,85.16 140.39,78.37 C140.071443,76.9072964 140.261956,75.3796633 140.93,74.04 C141.029895,73.9133023 141.101501,73.7666817 141.14,73.61 C141.153548,73.3228011 140.979614,73.0598764 140.71,72.96 C140.103929,72.7743308 139.451049,73.0421787 139.15,73.6 C138.871845,74.1480308 138.731135,74.7554843 138.74,75.37 C138.33695,83.2225212 138.691926,91.0956111 139.8,98.88 C139.92,99.78 139.48,103.41 140.56,103.24 C142,103 142.14,99.75 142.18,98.77 Z" id="Shape" fill="#D0E4F1" fill-rule="nonzero"></path>
            <path d="M147,84.38 C146.712928,80.8410302 146.632791,77.2883145 146.76,73.74 C146.76,72.74 146.98,71.51 147.9,71.08 C147.658694,70.7944675 147.303842,70.6297561 146.93,70.6297561 C146.556158,70.6297561 146.201306,70.7944675 145.96,71.08 C145.511609,71.6921323 145.269919,72.431211 145.27,73.19 C144.676119,79.1753044 144.676119,85.2046956 145.27,91.19 C145.35,92.06 145.19,94.06 145.75,94.78 C146.94,96.31 147.22,94.05 147.32,93.13 C147.496875,90.2098519 147.389706,87.2794275 147,84.38 Z" id="Shape" fill="#D0E4F1" fill-rule="nonzero"></path>
            <path d="M154.27,96.27 C154.797976,96.1749515 155.225212,95.7865557 155.37,95.27 C155.500277,94.7572611 155.530831,94.2242674 155.46,93.7 L154.3,76.9 C154.2,75.42 154.19,73.71 155.3,72.77 C155.21,72.23 154.41,72.09 153.97,72.42 C153.568839,72.8026644 153.32012,73.3178675 153.27,73.87 C152.678997,77.6304099 152.558069,81.4497346 152.91,85.24 L153.25,91.79 C153.33,92.68 152.82,96.42 154.27,96.27 Z" id="Shape" fill="#D0E4F1" fill-rule="nonzero"></path>
            <path d="M161.6,95.87 C162.18218,94.8469898 162.446742,93.6738652 162.36,92.5 C162.476564,88.4951348 162.336276,84.4869159 161.94,80.5 C161.83,79.44 161.75,78.2 162.54,77.5 C162.446476,77.3663892 162.30102,77.2783282 162.139278,77.2573969 C161.977536,77.2364655 161.814455,77.2845983 161.69,77.39 C161.447605,77.6125892 161.28289,77.9069739 161.22,78.23 C159.94,82.71 161.22,87.51 160.7,92.14 C160.637165,92.8233287 160.485902,93.4956114 160.25,94.14 C160.01,94.76 159.2,95.4 159.04,95.94 C158.59,97.58 161,96.73 161.6,95.87 Z" id="Shape" fill="#D0E4F1" fill-rule="nonzero"></path>
            <polygon id="Shape" stroke="#D65129" fill="#D65129" fill-rule="nonzero" stroke-linecap="round" stroke-linejoin="round" points="167.83 33.02 167.83 42.43 165.98 45.54 165.98 36.13"></polygon>
            <polygon id="Shape" stroke="#D65129" fill="#F56F40" fill-rule="nonzero" stroke-linecap="round" stroke-linejoin="round" points="167.83 33.02 165.98 36.13 156.57 36.13 158.42 33.02"></polygon>
            <rect id="Rectangle-path" stroke="#D65129" fill="#F56F40" fill-rule="nonzero" stroke-linecap="round" stroke-linejoin="round" x="156.57" y="36.13" width="9.41" height="9.41"></rect>
            <rect id="Rectangle-path" stroke="#D0E4F1" fill="#D0E4F1" fill-rule="nonzero" stroke-linecap="round" stroke-linejoin="round" x="48.11" y="23.04" width="63.54" height="90.39" rx="1"></rect>
            <rect id="Rectangle-path" fill="#FFFFFF" fill-rule="nonzero" x="51.07" y="20.29" width="63.54" height="90.39" rx="1"></rect>
            <rect id="Rectangle-path" stroke="#D0E4F1" fill="#D0E4F1" fill-rule="nonzero" stroke-linecap="round" stroke-linejoin="round" x="55.11" y="17.04" width="63.54" height="90.39" rx="1"></rect>
            <rect id="Rectangle-path" stroke="#3F555A" stroke-linecap="round" stroke-linejoin="round" x="51.07" y="20.29" width="63.54" height="90.39" rx="1"></rect>
            <rect id="Rectangle-path" stroke="#3F555A" fill="#FFFFFF" fill-rule="nonzero" stroke-linecap="round" stroke-linejoin="round" x="57.11" y="15.04" width="63.54" height="90.39" rx="1"></rect>
            <rect id="Rectangle-path" fill="#F3F6F7" fill-rule="nonzero" x="62.29" y="46.68" width="21.98" height="5.17"></rect>
            <rect id="Rectangle-path" fill="#F3F6F7" fill-rule="nonzero" x="62.29" y="57.02" width="21.98" height="5.17"></rect>
            <rect id="Rectangle-path" fill="#F3F6F7" fill-rule="nonzero" x="93.49" y="46.68" width="21.98" height="5.17"></rect>
            <rect id="Rectangle-path" fill="#F3F6F7" fill-rule="nonzero" x="93.49" y="57.02" width="21.98" height="5.17"></rect>
            <rect id="Rectangle-path" fill="#F3F6F7" fill-rule="nonzero" x="62.29" y="81.94" width="21.98" height="5.17"></rect>
            <rect id="Rectangle-path" fill="#F3F6F7" fill-rule="nonzero" x="62.29" y="92.28" width="21.98" height="5.17"></rect>
            <rect id="Rectangle-path" fill="#F3F6F7" fill-rule="nonzero" x="93.49" y="81.94" width="21.98" height="5.17"></rect>
            <rect id="Rectangle-path" fill="#F3F6F7" fill-rule="nonzero" x="93.49" y="92.28" width="21.98" height="5.17"></rect>
            <polyline id="Shape" stroke="#19BC9C" stroke-linecap="round" stroke-linejoin="round" points="68.81 27.58 65.44 20.22 62.29 27.67"></polyline>
            <path d="M62.92,26.17 L68.14,26.1" id="Shape" stroke="#19BC9C" stroke-linecap="round" stroke-linejoin="round"></path>
            <path d="M75.92,27.58 L71.67,27.58" id="Shape" stroke="#19BC9C" stroke-linecap="round" stroke-linejoin="round"></path>
            <polyline id="Shape" stroke="#19BC9C" stroke-linecap="round" stroke-linejoin="round" points="73.79 27.58 73.79 20.22 71.64 22.37"></polyline>
            <path d="M62.29,36.86 L65.81,36.86" id="Shape" stroke="#3F555A" stroke-width="2" stroke-linejoin="round"></path>
            <path d="M62.29,42.03 L84.27,42.03" id="Shape" stroke="#3F555A" stroke-width="2" stroke-linejoin="round"></path>
            <path d="M62.29,47.2 L84.27,47.2" id="Shape" stroke="#C3D4E0" stroke-linejoin="round" stroke-dasharray="1"></path>
            <path d="M62.29,52.37 L84.27,52.37" id="Shape" stroke="#C3D4E0" stroke-linejoin="round" stroke-dasharray="1"></path>
            <path d="M62.29,57.54 L84.27,57.54" id="Shape" stroke="#C3D4E0" stroke-linejoin="round" stroke-dasharray="1"></path>
            <path d="M62.29,62.71 L84.27,62.71" id="Shape" stroke="#C3D4E0" stroke-linejoin="round" stroke-dasharray="1"></path>
            <path d="M93.49,36.86 L97.01,36.86" id="Shape" stroke="#3F555A" stroke-width="2" stroke-linejoin="round"></path>
            <path d="M93.49,42.03 L115.47,42.03" id="Shape" stroke="#3F555A" stroke-width="2" stroke-linejoin="round"></path>
            <path d="M93.49,47.2 L115.47,47.2" id="Shape" stroke="#C3D4E0" stroke-linejoin="round" stroke-dasharray="1"></path>
            <path d="M93.49,52.37 L115.47,52.37" id="Shape" stroke="#C3D4E0" stroke-linejoin="round" stroke-dasharray="1"></path>
            <path d="M93.49,57.54 L115.47,57.54" id="Shape" stroke="#C3D4E0" stroke-linejoin="round" stroke-dasharray="1"></path>
            <path d="M93.49,62.71 L115.47,62.71" id="Shape" stroke="#C3D4E0" stroke-linejoin="round" stroke-dasharray="1"></path>
            <path d="M62.29,72.11 L65.81,72.11" id="Shape" stroke="#3F555A" stroke-width="2" stroke-linejoin="round"></path>
            <path d="M62.29,77.27 L84.27,77.27" id="Shape" stroke="#3F555A" stroke-width="2" stroke-linejoin="round"></path>
            <path d="M62.29,82.44 L84.27,82.44" id="Shape" stroke="#C3D4E0" stroke-linejoin="round" stroke-dasharray="1"></path>
            <path d="M62.29,87.61 L84.27,87.61" id="Shape" stroke="#C3D4E0" stroke-linejoin="round" stroke-dasharray="1"></path>
            <path d="M62.29,92.78 L84.27,92.78" id="Shape" stroke="#C3D4E0" stroke-linejoin="round" stroke-dasharray="1"></path>
            <path d="M62.29,97.95 L84.27,97.95" id="Shape" stroke="#C3D4E0" stroke-linejoin="round" stroke-dasharray="1"></path>
            <path d="M93.49,72.11 L97.01,72.11" id="Shape" stroke="#3F555A" stroke-width="2" stroke-linejoin="round"></path>
            <path d="M93.49,77.27 L115.47,77.27" id="Shape" stroke="#3F555A" stroke-width="2" stroke-linejoin="round"></path>
            <path d="M93.49,82.44 L115.47,82.44" id="Shape" stroke="#C3D4E0" stroke-linejoin="round" stroke-dasharray="1"></path>
            <path d="M93.49,87.61 L115.47,87.61" id="Shape" stroke="#C3D4E0" stroke-linejoin="round" stroke-dasharray="1"></path>
            <path d="M93.49,92.78 L115.47,92.78" id="Shape" stroke="#C3D4E0" stroke-linejoin="round" stroke-dasharray="1"></path>
            <path d="M93.49,97.95 L115.47,97.95" id="Shape" stroke="#C3D4E0" stroke-linejoin="round" stroke-dasharray="1"></path>
            <path d="M141.39,8.6 L141.39,49.49 C140.559607,48.6663333 139.220393,48.6663333 138.39,49.49 C137.557389,48.671737 136.222611,48.671737 135.39,49.49 L135.39,8.6 L141.39,8.6 Z" id="Shape" stroke="#109995" fill="#19BC9C" fill-rule="nonzero" stroke-linecap="round" stroke-linejoin="round"></path>
            <rect id="Rectangle-path" stroke="#A1C2D8" fill="#D0E4F1" fill-rule="nonzero" stroke-linecap="round" stroke-linejoin="round" x="135.36" y="6.04" width="6.03" height="2.56"></rect>
            <path d="M141.39,3.77 L141.39,6 L135.39,6 L135.39,3.77 C135.39,2.69820317 135.961797,1.70782202 136.89,1.17192358 C137.818203,0.636025137 138.961797,0.636025137 139.89,1.17192358 C140.818203,1.70782202 141.39,2.69820317 141.39,3.77 Z" id="Shape" stroke="#D65129" fill="#F56F40" fill-rule="nonzero" stroke-linecap="round" stroke-linejoin="round"></path>
            <path d="M137.37,11.69 L137.37,42.69" id="Shape" stroke="#109995" fill="#19BC9C" fill-rule="nonzero" stroke-linecap="round" stroke-linejoin="round"></path>
            <path d="M139.38,14.63 L139.38,46.73" id="Shape" stroke="#109995" fill="#19BC9C" fill-rule="nonzero" stroke-linecap="round" stroke-linejoin="round"></path>
            <path d="M141.39,49.49 L139.39,53.9 L137.39,53.9 L135.39,49.49 C136.222611,48.671737 137.557389,48.671737 138.39,49.49 C139.220393,48.6663333 140.559607,48.6663333 141.39,49.49 Z" id="Shape" stroke="#3F555A" fill="#FFFFFF" fill-rule="nonzero" stroke-linecap="round" stroke-linejoin="round"></path>
            <polygon id="Shape" stroke="#3F555A" fill="#3F555A" fill-rule="nonzero" stroke-linecap="round" stroke-linejoin="round" points="139.35 53.9 138.38 56 137.41 53.9"></polygon>
            <polygon id="Shape" stroke="#3F555A" fill="#233839" fill-rule="nonzero" stroke-linecap="round" stroke-linejoin="round" points="138.38 56 137.4 53.9 137.41 53.9"></polygon>
            <polygon id="Shape" stroke="#2173A1" fill="#2173A1" fill-rule="nonzero" stroke-linecap="round" stroke-linejoin="round" points="167.83 42.43 167.83 51.84 165.98 54.95 165.98 45.54"></polygon>
            <rect id="Rectangle-path" stroke="#2173A1" fill="#3290C1" fill-rule="nonzero" stroke-linecap="round" stroke-linejoin="round" x="156.57" y="45.54" width="9.41" height="9.41"></rect>
            <path d="M145.63,95.09 C145.274538,88.7973268 144.374506,82.5472862 142.94,76.41 C142.791361,75.5419132 142.449615,74.7183044 141.94,74 C141.412294,73.2717486 140.476313,72.9651343 139.62,73.24 C138.56,73.7 138.37,75.11 138.38,76.24 C138.38,84.92 140.38,93.56 139.65,102.24 C139.674198,102.680336 139.502092,103.108771 139.18,103.41 C138.82,103.66 138.18,103.3 138.36,102.91 C137.64,100.75 137,98.44 136.28,96.28 C136.069184,95.4306233 135.66154,94.6427411 135.09,93.98 C134.483024,93.3174703 133.496334,93.1675933 132.72,93.62 C132.387981,93.8953215 132.147371,94.2649545 132.03,94.68 C131.81342,95.4104596 131.702298,96.1681124 131.7,96.93 C131.46746,102.975066 132.713498,108.98557 135.33,114.44 C136.94,117.78 139.04,120.86 140.71,124.16 C142.234358,127.489276 142.815475,131.173144 142.39,134.81" id="Shape" stroke="#3F555A" stroke-linecap="round" stroke-linejoin="round"></path>
            <path d="M145,87.68 L145,79.53 C145,77.23 144.13,73.29 145.54,71.29 C146.95,69.29 148.91,71 149.54,72.6 C150.54,74.94 150.6,77.5 150.98,79.97 C151.578454,84.3682912 151.955596,88.7938675 152.11,93.23 C152.11,94.02 152.3,94.96 153.02,95.23 C152.72,95.09 153.21,90.85 153.21,90.34 C153.21,87.6 152.96,84.71 152.77,81.92 C152.58,79.13 152.2,76.08 153.15,73.38 C153.271579,72.9010311 153.615621,72.5094989 154.074979,72.3273394 C154.534338,72.1451798 155.05321,72.1945223 155.47,72.46 C156.77,73.23 156.88,75.15 157.09,76.46 C158.094699,82.8562004 158.556346,89.3259484 158.47,95.8" id="Shape" stroke="#3F555A" stroke-linecap="round" stroke-linejoin="round"></path>
            <path d="M158.57,95.59 C158.41,95.86 158.86,96.17 159.14,96.01 C159.392179,95.8104168 159.545401,95.5112705 159.56,95.19 C160.4205,90.3505884 160.705814,85.42641 160.41,80.52 C160.35,79.46 160.3,77.96 161.29,77.28 C162.69,76.28 163.9,78.06 164.29,79.21 C165.584989,82.9536887 166.309757,86.8708032 166.44,90.83 C166.86,101.02 164.44,111.2 162.44,121.13 C161.66,125.07 162.3,130.79 162.56,134.8" id="Shape" stroke="#3F555A" stroke-linecap="round" stroke-linejoin="round"></path>
            <circle id="Oval" stroke="#D0E4F1" fill="#D0E4F1" fill-rule="nonzero" cx="15.93" cy="39.68" r="15.76"></circle>
            <rect id="Rectangle-path" stroke="#D0E4F1" fill="#D0E4F1" fill-rule="nonzero" transform="translate(6.222981, 22.507085) rotate(-29.470000) translate(-6.222981, -22.507085) " x="0.712980926" y="20.6020852" width="11.02" height="3.81"></rect>
            <polyline id="Shape" stroke="#D0E4F1" fill="#D0E4F1" fill-rule="nonzero" points="17.91 23.88 18.41 22.05 22.89 23.29 22.38 25.12"></polyline>
            <path d="M19.26,22.29 L19.38,21.85 C19.4825723,21.4807962 19.7280673,21.1677003 20.0621442,20.9800167 C20.3962211,20.792333 20.7913254,20.7455417 21.16,20.85 C21.5292038,20.9525723 21.8422997,21.1980673 22.0299833,21.5321442 C22.217667,21.8662211 22.2644583,22.2613254 22.16,22.63 L22.04,23.07" id="Shape" stroke="#D0E4F1" fill="#D0E4F1" fill-rule="nonzero"></path>
            <polyline id="Shape" stroke="#D0E4F1" fill="#D0E4F1" fill-rule="nonzero" stroke-linecap="round" stroke-linejoin="round" points="6.16 27.11 5.22 25.45 9.26 23.17 10.2 24.82"></polyline>
            <path d="M15.93,27.29 C12.1458273,27.2909934 8.57097803,29.0268223 6.23,32 C11.1514891,28.0494261 18.2578572,28.4371118 22.7203727,32.8996273 C27.1828882,37.3621428 27.5705739,44.4685109 23.62,49.39 C27.746703,46.1173589 29.3510198,40.5920281 27.6187369,35.6181913 C25.886454,30.6443544 21.196864,27.3110591 15.93,27.31 L15.93,27.29 Z" id="Shape" stroke="#D0E4F1" fill="#D0E4F1" fill-rule="nonzero"></path>
            <path d="M17.93,53.43 C11.8120233,53.4357441 6.24424822,49.8980578 3.65059137,44.3570636 C1.05693452,38.8160694 1.9067216,32.2744179 5.83,27.58 C1.23528932,31.3962755 -0.805358124,37.4832235 0.560607704,43.2978139 C1.92657353,49.1124044 6.4640846,53.6540088 12.277441,55.0252172 C18.0907974,56.3964256 24.179583,54.3612676 28,49.77 C25.1767882,52.1338233 21.612144,53.4294139 17.93,53.43 Z" id="Shape" stroke="#D0E4F1" fill="#D0E4F1" fill-rule="nonzero"></path>
            <circle id="Oval" stroke="#D0E4F1" fill="#D0E4F1" fill-rule="nonzero" stroke-linecap="round" stroke-linejoin="round" cx="15.93" cy="39.68" r="15.76"></circle>
            <path d="M15.93,49.92 C21.5853958,49.92 26.17,45.3353958 26.17,39.68 C26.17,34.0246042 21.5853958,29.44 15.93,29.44 C10.2746042,29.44 5.69,34.0246042 5.69,39.68 C5.69,45.3353958 10.2746042,49.92 15.93,49.92 Z" id="Oval" stroke="#D0E4F1" fill="#D0E4F1" fill-rule="nonzero" stroke-linecap="round" stroke-linejoin="round" stroke-dasharray="0"></path>
            <path d="M26.89,33.92 C25.5172306,31.3327971 23.2808665,29.308746 20.57,28.2" id="Shape" stroke="#D0E4F1" fill="#D0E4F1" fill-rule="nonzero" stroke-linecap="round" stroke-linejoin="round"></path>
            <path d="M11.83,51.28 C15.6896494,52.6135029 19.9581917,51.9645634 23.2471572,49.5442681 C26.5361228,47.1239729 28.4252334,43.2415977 28.3,39.16" id="Shape" stroke="#D0E4F1" fill="#D0E4F1" fill-rule="nonzero" stroke-linecap="round" stroke-linejoin="round"></path>
            <path d="M18.65,27.6 C9.65,25.6 1.45,34.35 4.04,43.16" id="Shape" stroke="#D0E4F1" fill="#D0E4F1" fill-rule="nonzero" stroke-linecap="round" stroke-linejoin="round"></path>
            <path d="M15.93,39.68 L9.52,45.15" id="Shape" fill="#D0E4F1" fill-rule="nonzero"></path>
            <path d="M17.11,41.06 L9.84,45.53 C9.62788137,45.6484934 9.36162341,45.6008923 9.20370003,45.4162434 C9.04577665,45.2315945 9.04004391,44.9611758 9.19,44.77 L14.73,38.28 C15.1471379,37.7392743 15.828244,37.4723358 16.5017065,37.5856343 C17.175169,37.6989329 17.7314388,38.1740388 17.9486864,38.821489 C18.1659339,39.4689393 18.0088206,40.183416 17.54,40.68 C17.4167318,40.8277061 17.2717452,40.9558338 17.11,41.06 Z" id="Shape" fill="#D0E4F1" fill-rule="nonzero"></path>
            <rect id="Rectangle-path" stroke="#D0E4F1" fill="#D0E4F1" fill-rule="nonzero" transform="translate(3.867003, 23.833585) rotate(-29.470000) translate(-3.867003, -23.833585) " x="1.06200349" y="21.9285852" width="5.61" height="3.81"></rect>
            <rect id="Rectangle-path" stroke="#D0E4F1" fill="#D0E4F1" fill-rule="nonzero" stroke-linecap="round" stroke-linejoin="round" transform="translate(6.222981, 22.507085) rotate(-29.470000) translate(-6.222981, -22.507085) " x="0.712980926" y="20.6020852" width="11.02" height="3.81"></rect>
            <polyline id="Shape" stroke="#D0E4F1" fill="#D0E4F1" fill-rule="nonzero" stroke-linecap="round" stroke-linejoin="round" points="17.91 23.88 18.41 22.05 22.89 23.29 22.38 25.12"></polyline>
            <path d="M19.26,22.29 L19.38,21.85 C19.4825723,21.4807962 19.7280673,21.1677003 20.0621442,20.9800167 C20.3962211,20.792333 20.7913254,20.7455417 21.16,20.85 C21.5292038,20.9525723 21.8422997,21.1980673 22.0299833,21.5321442 C22.217667,21.8662211 22.2644583,22.2613254 22.16,22.63 L22.04,23.07" id="Shape" stroke="#D0E4F1" fill="#D0E4F1" fill-rule="nonzero" stroke-linecap="round" stroke-linejoin="round"></path>
            <path d="M3.24,24.37 L2.37,22.83" id="Shape" stroke="#D0E4F1" fill="#D0E4F1" fill-rule="nonzero" stroke-linecap="round" stroke-linejoin="round"></path>
            <path d="M4.67,22.97 L4.14,22.02" id="Shape" stroke="#D0E4F1" fill="#D0E4F1" fill-rule="nonzero" stroke-linecap="round" stroke-linejoin="round"></path>
            <path d="M6.2,21.75 L5.85,21.11" id="Shape" stroke="#D0E4F1" fill="#D0E4F1" fill-rule="nonzero" stroke-linecap="round" stroke-linejoin="round"></path>
            <path d="M7.79,20.62 L7.43,19.99" id="Shape" stroke="#D0E4F1" fill="#D0E4F1" fill-rule="nonzero" stroke-linecap="round" stroke-linejoin="round"></path>
            <circle id="Oval" fill="#FFFFFF" fill-rule="nonzero" cx="18.93" cy="36.68" r="15.76"></circle>
            <rect id="Rectangle-path" fill="#FFFFFF" fill-rule="nonzero" transform="translate(9.218918, 19.509342) rotate(-29.470000) translate(-9.218918, -19.509342) " x="3.70891783" y="17.6043417" width="11.02" height="3.81"></rect>
            <polyline id="Shape" fill="#FFFFFF" fill-rule="nonzero" points="20.91 20.88 21.41 19.05 25.89 20.29 25.38 22.12"></polyline>
            <path d="M22.26,19.29 L22.38,18.85 C22.4825723,18.4807962 22.7280673,18.1677003 23.0621442,17.9800167 C23.3962211,17.792333 23.7913254,17.7455417 24.16,17.85 C24.5292038,17.9525723 24.8422997,18.1980673 25.0299833,18.5321442 C25.217667,18.8662211 25.2644583,19.2613254 25.16,19.63 L25.04,20.07" id="Shape" fill="#FFFFFF" fill-rule="nonzero"></path>
            <polyline id="Shape" stroke="#3F555A" fill="#D0E4F1" fill-rule="nonzero" stroke-linecap="round" stroke-linejoin="round" points="9.16 24.11 8.22 22.45 12.26 20.17 13.2 21.82"></polyline>
            <path d="M18.93,24.29 C15.1458273,24.2909934 11.570978,26.0268223 9.23,29 C14.1514891,25.0494261 21.2578572,25.4371118 25.7203727,29.8996273 C30.1828882,34.3621428 30.5705739,41.4685109 26.62,46.39 C30.746703,43.1173589 32.3510198,37.5920281 30.6187369,32.6181913 C28.886454,27.6443544 24.196864,24.3110591 18.93,24.31 L18.93,24.29 Z" id="Shape" fill="#D0E4F1" fill-rule="nonzero"></path>
            <path d="M20.93,50.43 C14.8120233,50.4357441 9.24424822,46.8980578 6.65059137,41.3570636 C4.05693452,35.8160694 4.9067216,29.2744179 8.83,24.58 C4.23528932,28.3962755 2.19464188,34.4832235 3.5606077,40.2978139 C4.92657353,46.1124044 9.4640846,50.6540088 15.277441,52.0252172 C21.0907974,53.3964256 27.179583,51.3612676 31,46.77 C28.1767882,49.1338233 24.612144,50.4294139 20.93,50.43 Z" id="Shape" fill="#D0E4F1" fill-rule="nonzero"></path>
            <circle id="Oval" stroke="#3F555A" stroke-linecap="round" stroke-linejoin="round" cx="18.93" cy="36.68" r="15.76"></circle>
            <path d="M18.93,46.92 C24.5853958,46.92 29.17,42.3353958 29.17,36.68 C29.17,31.0246042 24.5853958,26.44 18.93,26.44 C13.2746042,26.44 8.69,31.0246042 8.69,36.68 C8.69,42.3353958 13.2746042,46.92 18.93,46.92 Z" id="Oval" stroke="#3F555A" stroke-linecap="round" stroke-linejoin="round" stroke-dasharray="0"></path>
            <path d="M29.89,30.92 C28.5172306,28.3327971 26.2808665,26.308746 23.57,25.2" id="Shape" stroke="#3F555A" stroke-linecap="round" stroke-linejoin="round"></path>
            <path d="M14.83,48.28 C18.6896494,49.6135029 22.9581917,48.9645634 26.2471572,46.5442681 C29.5361228,44.1239729 31.4252334,40.2415977 31.3,36.16" id="Shape" stroke="#3F555A" stroke-linecap="round" stroke-linejoin="round"></path>
            <path d="M21.65,24.6 C12.65,22.6 4.45,31.35 7.04,40.16" id="Shape" stroke="#3F555A" stroke-linecap="round" stroke-linejoin="round"></path>
            <path d="M20.11,38.06 L12.84,42.53 C12.6278814,42.6484934 12.3616234,42.6008923 12.2037,42.4162434 C12.0457767,42.2315945 12.0400439,41.9611758 12.19,41.77 L17.73,35.28 C18.1471379,34.7392743 18.828244,34.4723358 19.5017065,34.5856343 C20.175169,34.6989329 20.7314388,35.1740388 20.9486864,35.821489 C21.1659339,36.4689393 21.0088206,37.183416 20.54,37.68 C20.4167318,37.8277061 20.2717452,37.9558338 20.11,38.06 Z" id="Shape" fill="#F56F40" fill-rule="nonzero"></path>
            <rect id="Rectangle-path" fill="#D0E4F1" fill-rule="nonzero" transform="translate(6.862940, 20.835842) rotate(-29.470000) translate(-6.862940, -20.835842) " x="4.05794039" y="18.9308416" width="5.61" height="3.81"></rect>
            <rect id="Rectangle-path" stroke="#3F555A" stroke-linecap="round" stroke-linejoin="round" transform="translate(9.218918, 19.509342) rotate(-29.470000) translate(-9.218918, -19.509342) " x="3.70891783" y="17.6043417" width="11.02" height="3.81"></rect>
            <polyline id="Shape" stroke="#3F555A" stroke-linecap="round" stroke-linejoin="round" points="20.91 20.88 21.41 19.05 25.89 20.29 25.38 22.12"></polyline>
            <path d="M22.26,19.29 L22.38,18.85 C22.4825723,18.4807962 22.7280673,18.1677003 23.0621442,17.9800167 C23.3962211,17.792333 23.7913254,17.7455417 24.16,17.85 C24.5292038,17.9525723 24.8422997,18.1980673 25.0299833,18.5321442 C25.217667,18.8662211 25.2644583,19.2613254 25.16,19.63 L25.04,20.07" id="Shape" stroke="#3F555A" stroke-linecap="round" stroke-linejoin="round"></path>
            <path d="M6.24,21.37 L5.37,19.83" id="Shape" stroke="#3F555A" stroke-linecap="round" stroke-linejoin="round"></path>
            <path d="M7.67,19.97 L7.14,19.02" id="Shape" stroke="#3F555A" stroke-linecap="round" stroke-linejoin="round"></path>
            <path d="M9.2,18.75 L8.85,18.11" id="Shape" stroke="#3F555A" stroke-linecap="round" stroke-linejoin="round"></path>
            <path d="M10.79,17.62 L10.43,16.99" id="Shape" stroke="#3F555A" stroke-linecap="round" stroke-linejoin="round"></path>
            <path d="M12.78,88.23 C13.14,85.44 13.51,82.65 13.61,79.84 C13.7,77.32 13.61,74.66 14.79,72.43 C14.3484864,72.2419763 13.8361389,72.358969 13.52,72.72 C13.2192495,73.0767919 13.0037912,73.4974485 12.89,73.95 C11.7371672,77.7246804 11.0290388,81.6210642 10.78,85.56 C10.63,87.56 9.33,94.56 11.11,95.7 C12.53,94 12.5,90.37 12.78,88.23 Z" id="Shape" fill="#D0E4F1" fill-rule="nonzero"></path>
            <path d="M18.28,94.09 C18.7045563,93.4359054 18.9873017,92.7000863 19.11,91.93 C20.4,85.93 19.59,79.65 21.05,73.71 C21.32,72.59 21.94,71.27 23.05,71.22 C22.7064417,70.8363908 22.2198957,70.6114372 21.7051018,70.5981888 C21.1903078,70.5849405 20.6928351,70.78457 20.33,71.15 C19.6351202,71.9212587 19.1859875,72.8821938 19.04,73.91 C18.0931833,77.9882464 17.4117543,82.123585 17,86.29 C16.79,88.29 16.65,90.34 16.57,92.37 C16.53,93.6 16.66,96.29 18.28,94.09 Z" id="Shape" fill="#D0E4F1" fill-rule="nonzero"></path>
            <path d="M27.44,79.26 C27.75,77.26 28.15,74.92 29.86,73.77 C28.8810699,73.3707275 27.756168,73.6590597 27.09,74.48 C26.4566148,75.2943178 26.0248575,76.2469251 25.83,77.26 C24.3736214,82.8056338 23.7004273,88.5277837 23.83,94.26 C25.5660019,89.4033996 26.7762528,84.3746564 27.44,79.26 Z" id="Shape" fill="#D0E4F1" fill-rule="nonzero"></path>
            <path d="M31.48,103.55 C32.1280787,103.109966 32.6103341,102.465786 32.85,101.72 C33.2762932,100.881558 33.6115393,99.999861 33.85,99.09 C33.9498837,98.2077543 34.1204315,97.3349509 34.36,96.48 C34.7967659,95.3660082 35.741452,94.52918 36.9,94.23 C36.5031612,93.569111 35.683097,93.2971726 34.97,93.59 C33.59,94.07 33.03,95.69 32.65,97.1 L31.9,99.9 C31.7611119,100.554544 31.5180173,101.182538 31.18,101.76 C30.88,102.21 29.77,102.76 29.96,103.29 C30.15,103.82 31.13,103.74 31.48,103.55 Z" id="Shape" fill="#D0E4F1" fill-rule="nonzero"></path>
            <path d="M7.47,109.24 C6.04,98.45 4.89,87.42 6.91,76.62 C6.63,76.62 5.47,77.84 5.24,77.98 C2.6,85.91 2.24,91.98 2.94,100.64 C3.33,105.64 4.94,111.76 5.94,116.64 C6.83,121.18 7.57,125.84 6.12,130.33 C6.12,131.85 6.12,133.39 6.12,134.95 C7.68650123,135.414899 9.36898619,135.290402 10.85,134.6 C10.85,134.6 9.85,127.82 9.59,125.6 C9,120.18 8.2,114.71 7.47,109.24 Z" id="Shape" fill="#D0E4F1" fill-rule="nonzero"></path>
            <path d="M23.38,94.94 C23.7354615,88.6473268 24.6354941,82.3972862 26.07,76.26 C26.2186391,75.3919132 26.5603854,74.5683044 27.07,73.85 C27.5977061,73.1217486 28.5336866,72.8151343 29.39,73.09 C30.45,73.55 30.64,74.96 30.63,76.09 C30.63,84.77 28.63,93.41 29.36,102.09 C29.3358023,102.530336 29.5079085,102.958771 29.83,103.26 C30.19,103.51 30.83,103.15 30.65,102.76 C31.37,100.6 32.01,98.29 32.73,96.13 C32.9408162,95.2806233 33.3484596,94.4927411 33.92,93.83 C34.5269761,93.1674703 35.5136665,93.0175933 36.29,93.47 C36.6220191,93.7453215 36.8626293,94.1149545 36.98,94.53 C37.1965797,95.2604596 37.3077021,96.0181124 37.31,96.78 C37.5425402,102.825066 36.296502,108.83557 33.68,114.29 C32.07,117.63 29.97,120.71 28.3,124.01 C26.7756418,127.339276 26.1945246,131.023144 26.62,134.66" id="Shape" stroke="#3F555A" stroke-linecap="round" stroke-linejoin="round"></path>
            <path d="M24,87.53 L24,79.38 C24,77.08 24.87,73.14 23.46,71.14 C22.05,69.14 20.09,70.85 19.46,72.45 C18.46,74.79 18.4,77.35 18.02,79.82 C17.4215463,84.2182912 17.0444044,88.6438675 16.89,93.08 C16.89,93.87 16.7,94.81 15.98,95.08 C16.28,94.94 15.79,90.7 15.79,90.19 C15.79,87.45 16.04,84.56 16.23,81.77 C16.42,78.98 16.8,75.93 15.85,73.23 C15.7284212,72.7510311 15.3843794,72.3594989 14.9250206,72.1773394 C14.4656618,71.9951798 13.9467904,72.0445223 13.53,72.31 C12.23,73.08 12.12,75 11.91,76.31 C10.9053007,82.7062004 10.4436538,89.1759484 10.53,95.65" id="Shape" stroke="#3F555A" stroke-linecap="round" stroke-linejoin="round"></path>
            <path d="M10.44,95.44 C10.6,95.71 10.15,96.02 9.87,95.86 C9.61782067,95.6604168 9.46459943,95.3612705 9.45,95.04 C8.58949989,90.2005884 8.30418621,85.27641 8.6,80.37 C8.66,79.31 8.71,77.81 7.72,77.13 C6.32,76.13 5.11,77.91 4.72,79.06 C3.42501077,82.8036887 2.70024346,86.7208032 2.57,90.68 C2.15,100.87 4.57,111.05 6.57,120.98 C7.35,124.92 6.71,130.64 6.45,134.65" id="Shape" stroke="#3F555A" stroke-linecap="round" stroke-linejoin="round"></path>
        </g>
    </g>
</svg>