<?xml version="1.0" encoding="UTF-8"?>
<svg width="183px" height="124px" viewBox="0 0 183 124" version="1.1" xmlns="http://www.w3.org/2000/svg" xmlns:xlink="http://www.w3.org/1999/xlink">
    <!-- Generator: Sketch 51.3 (57544) - http://www.bohemiancoding.com/sketch -->
    <title>updated_cirricula</title>
    <desc>Created with Sketch.</desc>
    <defs></defs>
    <g id="Page-1" stroke="none" stroke-width="1" fill="none" fill-rule="evenodd">
        <g id="updated_cirricula" transform="translate(1.000000, 1.000000)">
            <polygon id="Shape" fill="#D0E4F1" fill-rule="nonzero" points="66.77 90.32 45.06 90.32 45.06 95.35 66.77 92.35"></polygon>
            <path d="M140.69,0 L123.69,0 L58.69,47.06 L61.04,50.3 L76,39.49 L76,63.49 L78,63.49 L79.47,64.85 L135.85,4 L140.7,4 L140.69,0 Z M80,58.35 L80,37.58 L99.26,37.58 L80,58.35 Z M101.69,33.58 L84.13,33.58 L101.65,20.89 L101.69,33.58 Z M105.69,30.64 L105.69,19 L116.51,19 L105.69,30.64 Z M119.05,15 L109.82,15 L119.05,8.31 L119.05,15 Z M123.05,11.9 L123.05,5.38 L125,4 L130.36,4 L123.05,11.9 Z" id="Shape" stroke="#3F555A" stroke-linecap="round" stroke-linejoin="round"></path>
            <path d="M65.34,49.26 L23.88,49.26 L23.88,46.35 C23.88,43.0362915 26.5662915,40.35 29.88,40.35 L52.34,40.35 C53.7291434,40.3486112 55.0757292,40.8292823 56.15,41.71 L65.34,49.26 Z" id="Shape" stroke="#3F555A" fill="#FFDF00" fill-rule="nonzero" stroke-linecap="round" stroke-linejoin="round"></path>
            <path d="M89.43,71.88 L89.43,84.31 C89.43,87.6237085 86.7437085,90.31 83.43,90.31 L29.88,90.31 C26.5662915,90.31 23.88,87.6237085 23.88,84.31 L23.88,68.74 L88.54,68.74 C89.1211028,69.6843246 89.4291673,70.7712039 89.43,71.88 Z" id="Shape" stroke="#3F555A" fill="#FFDF00" fill-rule="nonzero" stroke-linecap="round" stroke-linejoin="round"></path>
            <path d="M29.37,122.37 C22.8751313,122.37 17.61,117.104869 17.61,110.61 C17.61,104.115131 22.8751313,98.85 29.37,98.85 L82,98.85 C88.4948685,98.8500003 93.7599995,104.115132 93.7599995,110.61 C93.7599995,117.104868 88.4948685,122.37 82,122.37 L29.37,122.37 Z" id="Shape" stroke="#3F555A" stroke-linecap="round" stroke-linejoin="round" stroke-dasharray="4.920538902282715,1.968215465545654"></path>
            <rect id="Rectangle-path" stroke="#3F555A" stroke-linecap="round" stroke-linejoin="round" x="18.11" y="99.35" width="75.15" height="22.52" rx="11.26"></rect>
            <path d="M29.37,118.87 C24.808128,118.87 21.11,115.171872 21.11,110.61 C21.11,106.048128 24.808128,102.35 29.37,102.35 L82,102.35 C86.561872,102.35 90.26,106.048128 90.26,110.61 C90.26,115.171872 86.561872,118.87 82,118.87 L29.37,118.87 Z" id="Shape" stroke="#3F555A" fill="#D0E4F1" fill-rule="nonzero" stroke-linecap="round" stroke-linejoin="round"></path>
            <path d="M0.35,122.44 L180.88,122.44" id="Shape" stroke="#3F555A" stroke-linecap="round" stroke-linejoin="round"></path>
            <circle id="Oval" stroke="#3F555A" stroke-linecap="round" stroke-linejoin="round" cx="29.58" cy="110.61" r="3.63"></circle>
            <path d="M29.58,112.24 C30.4802241,112.24 31.21,111.510224 31.21,110.61 C31.21,109.709776 30.4802241,108.98 29.58,108.98 C28.6797759,108.98 27.95,109.709776 27.95,110.61 C27.95,111.510224 28.6797759,112.24 29.58,112.24 Z" id="Oval" stroke="#3F555A" stroke-linecap="round" stroke-linejoin="round" stroke-dasharray="0,2.040554285049438"></path>
            <circle id="Oval" stroke="#3F555A" stroke-linecap="round" stroke-linejoin="round" cx="46.98" cy="110.61" r="3.63"></circle>
            <path d="M46.98,112.24 C47.8802241,112.24 48.61,111.510224 48.61,110.61 C48.61,109.709776 47.8802241,108.98 46.98,108.98 C46.0797759,108.98 45.35,109.709776 45.35,110.61 C45.35,111.510224 46.0797759,112.24 46.98,112.24 Z" id="Oval" stroke="#3F555A" stroke-linecap="round" stroke-linejoin="round" stroke-dasharray="0,2.040554285049438"></path>
            <circle id="Oval" stroke="#3F555A" stroke-linecap="round" stroke-linejoin="round" cx="64.38" cy="110.61" r="3.63"></circle>
            <path d="M64.38,112.24 C65.2802241,112.24 66.01,111.510224 66.01,110.61 C66.01,109.709776 65.2802241,108.98 64.38,108.98 C63.4797759,108.98 62.75,109.709776 62.75,110.61 C62.75,111.510224 63.4797759,112.24 64.38,112.24 Z" id="Oval" stroke="#3F555A" stroke-linecap="round" stroke-linejoin="round" stroke-dasharray="0,2.040554285049438"></path>
            <circle id="Oval" stroke="#3F555A" stroke-linecap="round" stroke-linejoin="round" cx="81.78" cy="110.61" r="3.63"></circle>
            <path d="M81.78,112.24 C82.6802241,112.24 83.41,111.510224 83.41,110.61 C83.41,109.709776 82.6802241,108.98 81.78,108.98 C80.8797759,108.98 80.15,109.709776 80.15,110.61 C80.15,111.510224 80.8797759,112.24 81.78,112.24 Z" id="Oval" stroke="#3F555A" stroke-linecap="round" stroke-linejoin="round" stroke-dasharray="0,2.040554285049438"></path>
            <rect id="Rectangle-path" stroke="#3F555A" stroke-linecap="round" stroke-linejoin="round" x="45.06" y="90.32" width="21.71" height="9.03"></rect>
            <path d="M29.23,78.25 L38.76,78.25" id="Shape" stroke="#3F555A" stroke-linecap="round" stroke-linejoin="round"></path>
            <path d="M29.23,81.14 L38.76,81.14" id="Shape" stroke="#3F555A" stroke-linecap="round" stroke-linejoin="round"></path>
            <path d="M29.23,84.03 L38.76,84.03" id="Shape" stroke="#3F555A" stroke-linecap="round" stroke-linejoin="round"></path>
            <path d="M23.88,68.74 L35.19,68.74 C31.39,62.34 27.88,55.79 23.88,49.49 L23.88,68.74 Z" id="Shape" fill="#D0E4F1" fill-rule="nonzero"></path>
            <path d="M23.88,49.26 L23.88,49.49 C27.88,55.79 31.39,62.34 35.19,68.74 L45.72,68.74 C41.211159,62.4643404 37.0257096,55.9625418 33.18,49.26 L23.88,49.26 Z" id="Shape" fill="#FFFFFF" fill-rule="nonzero"></path>
            <path d="M70,68.74 C64.7866667,62.4266667 59.75,55.9333333 54.89,49.26 L47.55,49.26 C51.6908703,55.9832382 56.180328,62.4854416 61,68.74 L70,68.74 Z" id="Shape" fill="#FFFFFF" fill-rule="nonzero"></path>
            <path d="M47.55,49.26 L33.18,49.26 C37.0257096,55.9625418 41.211159,62.4643404 45.72,68.74 L61,68.74 C56.180328,62.4854416 51.6908703,55.9832382 47.55,49.26 Z" id="Shape" fill="#D0E4F1" fill-rule="nonzero"></path>
            <path d="M88.54,68.74 C88.1929599,68.1741879 87.7535393,67.6705443 87.24,67.25 L65.34,49.25 L54.92,49.25 C59.7733333,55.9166667 64.81,62.41 70.03,68.73 L88.54,68.74 Z" id="Shape" fill="#D0E4F1" fill-rule="nonzero"></path>
            <path d="M87.42,74.4 L89.42,74.4 L89.42,82.66 L87.42,82.66 C85.210861,82.66 83.42,80.869139 83.42,78.66 L83.42,78.4 C83.42,76.190861 85.210861,74.4 87.42,74.4 Z" id="Shape" stroke="#3F555A" stroke-linecap="round" stroke-linejoin="round"></path>
            <path d="M88.54,68.74 L23.88,68.74 L23.88,49.26 L65.34,49.26 L87.24,67.26 C87.7526849,67.6775413 88.1920587,68.1777514 88.54,68.74 Z" id="Shape" stroke="#3F555A" stroke-linecap="round" stroke-linejoin="round"></path>
            <path d="M138.33,3.95 L138.33,30.56" id="Shape" stroke="#3F555A" stroke-linecap="round" stroke-linejoin="round"></path>
            <path d="M138.33,30.56 L124.05,52.77" id="Shape" stroke="#3F555A" stroke-linecap="round" stroke-linejoin="round"></path>
            <path d="M138.33,30.56 L152.6,52.77" id="Shape" stroke="#3F555A" stroke-linecap="round" stroke-linejoin="round"></path>
            <path d="M157.42,52.77 L137,52.77 C137,52.77 143,57.49 137,64.14 L157.41,64.14 C163.46,57.49 157.42,52.77 157.42,52.77 Z" id="Shape" stroke="#3F555A" fill="#19BC9C" fill-rule="nonzero" stroke-linecap="round" stroke-linejoin="round"></path>
            <path d="M137,64.14 L119.1,64.14 C118.731584,64.13688 118.394726,63.9314347 118.223304,63.6053145 C118.051882,63.2791943 118.073667,62.8852318 118.28,62.58 C120.7,58.96 119.63,56.04 118.47,54.36 C118.253373,54.0557535 118.224347,53.656145 118.394733,53.3237871 C118.565119,52.9914292 118.906516,52.7817214 119.28,52.78 L137,52.78 C137,52.78 143,57.49 137,64.14 Z" id="Shape" stroke="#3F555A" stroke-linecap="round" stroke-linejoin="round"></path>
            <path d="M123.18,56.86 L132.56,56.86" id="Shape" stroke="#3F555A" stroke-linecap="round" stroke-linejoin="round"></path>
            <path d="M124.98,60.19 L132.17,60.19" id="Shape" stroke="#3F555A" stroke-linecap="round" stroke-linejoin="round"></path>
            <path d="M140,64.14 C146,57.49 140,52.77 140,52.77" id="Shape" stroke="#3F555A" stroke-linecap="round" stroke-linejoin="round"></path>
            <path d="M154.42,64.14 C160.42,57.49 154.42,52.77 154.42,52.77" id="Shape" stroke="#3F555A" stroke-linecap="round" stroke-linejoin="round"></path>
            <path d="M158.66,109.62 L138.25,109.62 C138.25,109.62 144.25,114.94 138.25,122.43 L158.66,122.43 C164.7,114.94 158.66,109.62 158.66,109.62 Z" id="Shape" stroke="#3F555A" fill="#F56F40" fill-rule="nonzero" stroke-linecap="round" stroke-linejoin="round"></path>
            <path d="M138.25,122.44 L120.25,122.44 C119.892485,122.436373 119.564105,122.242149 119.388723,121.930587 C119.21334,121.619024 119.217639,121.237531 119.4,120.93 C122.12,116.56 120.82,113.07 119.59,111.18 C119.388221,110.873613 119.370409,110.481336 119.543591,110.157923 C119.716774,109.83451 120.053143,109.631892 120.42,109.63 L138.27,109.63 C138.27,109.63 144.29,114.94 138.25,122.44 Z" id="Shape" stroke="#3F555A" stroke-linecap="round" stroke-linejoin="round"></path>
            <path d="M124.42,114.23 L133.8,114.23" id="Shape" stroke="#3F555A" stroke-linecap="round" stroke-linejoin="round"></path>
            <path d="M126.22,117.98 L133.41,117.98" id="Shape" stroke="#3F555A" stroke-linecap="round" stroke-linejoin="round"></path>
            <path d="M141.25,122.44 C147.25,114.95 141.25,109.63 141.25,109.63" id="Shape" stroke="#3F555A" stroke-linecap="round" stroke-linejoin="round"></path>
            <path d="M155.66,122.44 C161.66,114.95 155.66,109.63 155.66,109.63" id="Shape" stroke="#3F555A" stroke-linecap="round" stroke-linejoin="round"></path>
            <path d="M162.65,96.81 L142.24,96.81 C142.24,96.81 148.24,102.13 142.24,109.62 L162.65,109.62 C168.69,102.13 162.65,96.81 162.65,96.81 Z" id="Shape" stroke="#3F555A" fill="#3290C1" fill-rule="nonzero" stroke-linecap="round" stroke-linejoin="round"></path>
            <path d="M142.24,109.62 L124.24,109.62 C123.882485,109.616373 123.554105,109.422149 123.378723,109.110587 C123.20334,108.799024 123.207639,108.417531 123.39,108.11 C126.11,103.74 124.81,100.25 123.58,98.36 C123.378221,98.0536128 123.360409,97.6613359 123.533591,97.3379231 C123.706774,97.0145104 124.043143,96.8118915 124.41,96.81 L142.26,96.81 C142.26,96.81 148.28,102.13 142.24,109.62 Z" id="Shape" stroke="#3F555A" stroke-linecap="round" stroke-linejoin="round"></path>
            <path d="M128.41,101.42 L137.79,101.42" id="Shape" stroke="#3F555A" stroke-linecap="round" stroke-linejoin="round"></path>
            <path d="M130.22,105.17 L137.4,105.17" id="Shape" stroke="#3F555A" stroke-linecap="round" stroke-linejoin="round"></path>
            <path d="M145.24,109.62 C151.24,102.13 145.24,96.81 145.24,96.81" id="Shape" stroke="#3F555A" stroke-linecap="round" stroke-linejoin="round"></path>
            <path d="M159.65,109.62 C165.65,102.13 159.65,96.81 159.65,96.81" id="Shape" stroke="#3F555A" stroke-linecap="round" stroke-linejoin="round"></path>
        </g>
    </g>
</svg>