<?xml version="1.0" encoding="UTF-8"?>
<svg width="800px" height="149px" viewBox="0 0 800 149" version="1.1" xmlns="http://www.w3.org/2000/svg" xmlns:xlink="http://www.w3.org/1999/xlink">
    <!-- Generator: Sketch 49.2 (51160) - http://www.bohemiancoding.com/sketch -->
    <title>logo-type-blue</title>
    <desc>Created with Sketch.</desc>
    <defs></defs>
    <g id="logo-type-blue" stroke="none" stroke-width="1" fill="none" fill-rule="evenodd">
        <path d="M128.895105,149 L92.6433566,149 L92.6433566,107.449775 L35.3566434,107.449775 L35.3566434,149 L0,149 L0,64.1124438 C0,24.3493253 22.6013986,0 64.2237762,0 C106.06993,0 128.895105,24.3493253 128.895105,64.1124438 L128.895105,149 Z M92.6433566,76.1754123 L92.6433566,64.1124438 C92.6433566,44.0074963 83.9160839,33.5082459 64,33.5082459 C44.3076923,33.5082459 35.3566434,44.0074963 35.3566434,64.1124438 L35.3566434,76.1754123 L92.6433566,76.1754123 Z M260.923077,149 L155.524476,149 L155.524476,2.90404798 L191.776224,2.90404798 L191.776224,115.491754 L260.923077,115.491754 L260.923077,149 Z M357.146853,149 L281.734266,149 L281.734266,2.90404798 L351.328671,2.90404798 C379.972028,2.90404798 394.293706,18.988006 394.293706,41.3268366 C394.293706,55.6236882 387.804196,66.7931034 376.615385,72.8245877 L376.615385,73.2713643 C392.055944,78.856072 401.006993,91.8125937 401.006993,109.013493 C401.006993,132.022489 386.461538,149 357.146853,149 Z M349.762238,89.3553223 L317.986014,89.3553223 L317.986014,115.491754 L349.762238,115.491754 C360.27972,115.491754 363.86014,109.683658 363.86014,102.535232 C363.86014,95.3868066 359.160839,89.3553223 349.762238,89.3553223 Z M345.286713,36.4122939 L317.986014,36.4122939 L317.986014,60.3148426 L345.286713,60.3148426 C354.909091,60.3148426 358.48951,54.9535232 358.48951,48.4752624 C358.48951,41.7736132 355.804196,36.4122939 345.286713,36.4122939 Z M529.902098,149 L421.818182,149 L421.818182,2.90404798 L529.902098,2.90404798 L529.902098,36.4122939 L458.06993,36.4122939 L458.06993,60.3148426 L516.923077,60.3148426 L516.923077,89.3553223 L458.06993,89.3553223 L458.06993,115.491754 L529.902098,115.491754 L529.902098,149 Z M675.804196,149 L632.839161,149 L606.881119,103.205397 L591.440559,103.205397 L591.440559,149 L555.188811,149 L555.188811,2.90404798 L614.48951,2.90404798 C653.202797,2.90404798 670.433566,23.9025487 670.433566,52.9430285 C670.433566,73.4947526 661.706294,90.2488756 643.132867,98.0674663 L643.132867,98.5142429 L675.804196,149 Z M591.440559,69.6971514 L614.937063,69.6971514 C629.482517,69.6971514 633.734266,62.5487256 633.734266,52.9430285 C633.734266,43.3373313 629.482517,36.4122939 614.937063,36.4122939 L591.440559,36.4122939 L591.440559,69.6971514 Z M759.944056,149 L723.692308,149 L723.692308,36.4122939 L683.86014,36.4122939 L683.86014,2.90404798 L800,2.90404798 L800,36.4122939 L759.944056,36.4122939 L759.944056,149 Z" id="logotype" fill="#4080BD"></path>
    </g>
</svg>