<svg id="Layer_1" data-name="Layer 1" xmlns="http://www.w3.org/2000/svg" viewBox="0 0 402.84 288.75"><defs><style>.cls-1{fill:#a9d7f3;opacity:0.5;}.cls-1,.cls-16,.cls-18,.cls-19,.cls-23{isolation:isolate;}.cls-2{fill:#d0e4f0;}.cls-16,.cls-18,.cls-23,.cls-3{fill:#fff;}.cls-4{fill:#40565b;}.cls-5{fill:#a1c2d8;}.cls-6{fill:#3aa1d6;}.cls-7{fill:#1785c8;}.cls-8{fill:#164a67;}.cls-9{fill:#f36f42;}.cls-10{fill:#c84a27;}.cls-11{fill:none;}.cls-12{fill:#f56f40;}.cls-13,.cls-19{fill:#d65129;}.cls-14{fill:#8860bd;}.cls-15{fill:#7043ab;}.cls-16{opacity:0.1;}.cls-17{fill:#ffdc64;}.cls-18{opacity:0.3;}.cls-19,.cls-23{opacity:0.2;}.cls-20{fill:#faac30;}.cls-21{fill:#3f555a;}.cls-22{fill:#19bc9c;}.cls-24{fill:#109995;}.cls-25{fill:#3290c1;}.cls-26{fill:#1e6b96;}</style></defs><title>albert-illustration-essentials</title><path class="cls-1" d="M301.65,70.28c5.57.06,150.32,51.52,87.11,69s-62,35.07-47.48,48.18c10,9,38.19,7.71,24,33.13-7.2,12.88-48.51,3.15-61.8,10.23s55.88,23.93-3.72,33.6S90.39,263.36,62.93,244.23s-29.31-52.39-8.81-55.11-12.91-19.35-34.77-29.48S-10.51,97,35.12,106.17,66,81.88,66,81.88-35.63,22.37,95.8,34.22,301.65,70.28,301.65,70.28Z" transform="translate(-1.87 -4.71)"/><path class="cls-2" d="M184.2,136.64l-1.18-.1a7.28,7.28,0,0,0-5.48,1.93,9.09,9.09,0,0,0-1.82,4c-3.28,12.82-2.9,26.33-3.3,39.61-.45,14.57-1.86,29-3.69,43.39l29.15,2.36A183.85,183.85,0,0,0,184.2,136.64Z" transform="translate(-1.87 -4.71)"/><path class="cls-3" d="M206.17,184.4a145.57,145.57,0,0,0-2.73-23.09c-1.16-5.67-2.74-11.39-6.06-16.15-3.09-4.42-7.9-7.95-13.19-8.51a183.85,183.85,0,0,1,13.68,91.24l5.37.43c.07-.87.22-1.72.34-2.56A224,224,0,0,0,206.17,184.4Z" transform="translate(-1.87 -4.71)"/><path class="cls-4" d="M203.24,228.57h0l-34.53-2.79a.28.28,0,0,1-.25-.31c2.13-16.61,3.3-30.37,3.68-43.32.07-2.32.12-4.66.16-7,.21-10.85.43-22.07,3.15-32.68a9.37,9.37,0,0,1,1.87-4.13,7.58,7.58,0,0,1,5.72-2c5.37.06,10.83,3.31,14.58,8.69,3.47,5,5,11,6.11,16.25a146.33,146.33,0,0,1,2.74,23.13,224.89,224.89,0,0,1-2.59,41.39l-.1.66c-.09.61-.19,1.25-.24,1.88A.28.28,0,0,1,203.24,228.57ZM169,225.25,203,228c.06-.56.14-1.11.22-1.64l.1-.66a224.33,224.33,0,0,0,2.58-41.29,145.78,145.78,0,0,0-2.73-23c-1.06-5.19-2.61-11.16-6-16-3.6-5.15-9-8.39-14.15-8.46a7.05,7.05,0,0,0-5.29,1.85A8.84,8.84,0,0,0,176,142.6c-2.7,10.57-2.92,21.75-3.14,32.57,0,2.34-.09,4.67-.16,7C172.29,195.05,171.13,208.75,169,225.25Z" transform="translate(-1.87 -4.71)"/><path class="cls-5" d="M191.87,213.6a.28.28,0,0,1-.07-.54,24.75,24.75,0,0,1,11-.54.28.28,0,0,1-.1.54,24.2,24.2,0,0,0-10.77.53Z" transform="translate(-1.87 -4.71)"/><path class="cls-6" d="M164.38,152.33c-35.82,2.44-35.66,57.91-30.9,88.36l41.44,2.91c11.25-18.36,23.75-55.36,22.52-76.85-.1-1.63-.23-3.29-.43-5a37,37,0,0,0-7.83-6.42C181.22,150.56,172.84,150.92,164.38,152.33Z" transform="translate(-1.87 -4.71)"/><path class="cls-7" d="M175.92,131.79c-19.09-4.95-42.71-4.75-60.21,4.62-8.15,4.37-11.23,11.72-11.77,20.4-1.42,21.95,3.32,61.09,8.72,82.41l20.83,1.46c-4.84-30.46-4.93-85.94,30.9-88.35,8.46-1.4,16.84-1.77,24.8,3.05A37,37,0,0,1,197,161.8C195.49,148.83,190.42,135.56,175.92,131.79Z" transform="translate(-1.87 -4.71)"/><path class="cls-8" d="M174.93,243.87h0l-62.27-4.37a.28.28,0,0,1-.25-.21c-5.3-20.92-10.19-59.94-8.73-82.49.62-9.91,4.52-16.66,11.92-20.63,18.83-10.09,43.55-9,60.41-4.65,13.3,3.47,20.62,15.31,21.76,35.21h0c1.2,21-10.93,58-22.58,77A.28.28,0,0,1,174.93,243.87ZM112.87,239l61.9,4.34c11.58-19,23.6-55.64,22.41-76.53h0c-1.12-19.63-8.3-31.3-21.34-34.7-16.75-4.34-41.32-5.41-60,4.6-7.21,3.87-11,10.47-11.63,20.17C102.76,179.27,107.6,218,112.87,239Z" transform="translate(-1.87 -4.71)"/><path class="cls-3" d="M138.68,117.24l.18,12.24a6.35,6.35,0,0,0,3.2,5.48,19.28,19.28,0,0,0,9.79,2.35,17.42,17.42,0,0,0,8.94-2.41,6.4,6.4,0,0,0,3-5C153.33,132.71,144.4,126,138.68,117.24Z" transform="translate(-1.87 -4.71)"/><path class="cls-2" d="M163.55,109.38l-25,.36.1,7.49c5.73,8.72,14.66,15.48,25.14,12.64l0-.54Z" transform="translate(-1.87 -4.71)"/><path class="cls-4" d="M151.22,137.59a19.57,19.57,0,0,1-9.36-2.39,6.64,6.64,0,0,1-3.34-5.72l-.28-19.73a.28.28,0,0,1,.27-.28l25-.36a.28.28,0,0,1,.28.27l.29,19.94a6.71,6.71,0,0,1-3.2,5.82,17.76,17.76,0,0,1-9.09,2.45ZM138.79,110l.28,19.46a6.09,6.09,0,0,0,3.06,5.24,19,19,0,0,0,9.64,2.31,17.06,17.06,0,0,0,8.81-2.37,6.15,6.15,0,0,0,2.93-5.33h0l-.28-19.66Z" transform="translate(-1.87 -4.71)"/><path class="cls-9" d="M116.43,36.53A35,35,0,0,1,132.34,25c5.9-2.2,12.84-3.05,18.83-.56a21.52,21.52,0,0,1,11.75,12.51c2,5.38,2,11,1.22,16.48A11.31,11.31,0,0,1,163,57.57a12.48,12.48,0,0,1-2.45,2.8c-5.64,5.23-12.41,10.15-20.6,10.8-6.3.53-12.63-1.62-18-4.81-4.88-2.89-9-7.2-10.61-12.34C109.61,48.34,113.15,40.94,116.43,36.53Z" transform="translate(-1.87 -4.71)"/><path class="cls-10" d="M138,71.52c-6.46,0-12.32-2.61-16.24-4.93-5.44-3.22-9.26-7.66-10.73-12.5-1.66-5.69,1.76-13.11,5.21-17.74h0a35.19,35.19,0,0,1,16-11.66c4-1.5,11.8-3.56,19-.56a21.87,21.87,0,0,1,11.9,12.68c1.71,4.71,2.12,10.15,1.24,16.61a11.5,11.5,0,0,1-1.21,4.26,12.75,12.75,0,0,1-2.52,2.88c-5.06,4.69-12,10.17-20.76,10.87Q138.95,71.53,138,71.52ZM116.65,36.69c-3.36,4.52-6.72,11.76-5.12,17.25,1.43,4.7,5.16,9,10.48,12.18,4.25,2.51,10.8,5.37,17.88,4.77,8.59-.68,15.43-6.09,20.43-10.73a12.22,12.22,0,0,0,2.4-2.74,11,11,0,0,0,1.14-4c.87-6.39.48-11.74-1.21-16.37a21.32,21.32,0,0,0-11.6-12.36c-7-2.93-14.69-.9-18.62.57A34.65,34.65,0,0,0,116.65,36.69Z" transform="translate(-1.87 -4.71)"/><path class="cls-10" d="M138,71.52c-6.46,0-12.32-2.61-16.24-4.93-5.44-3.22-9.26-7.66-10.73-12.5-1.66-5.69,1.76-13.11,5.21-17.74h0a35.19,35.19,0,0,1,16-11.66c4-1.5,11.8-3.56,19-.56a21.87,21.87,0,0,1,11.9,12.68c1.71,4.71,2.12,10.15,1.24,16.61a11.5,11.5,0,0,1-1.21,4.26,12.75,12.75,0,0,1-2.52,2.88c-5.06,4.69-12,10.17-20.76,10.87Q138.95,71.53,138,71.52ZM116.65,36.69c-3.36,4.52-6.72,11.76-5.12,17.25,1.43,4.7,5.16,9,10.48,12.18,4.25,2.51,10.8,5.37,17.88,4.77,8.59-.68,15.43-6.09,20.43-10.73a12.22,12.22,0,0,0,2.4-2.74,11,11,0,0,0,1.14-4c.87-6.39.48-11.74-1.21-16.37a21.32,21.32,0,0,0-11.6-12.36c-7-2.93-14.69-.9-18.62.57A34.65,34.65,0,0,0,116.65,36.69Z" transform="translate(-1.87 -4.71)"/><path class="cls-9" d="M123.89,56.42C132,39.45,144,20.47,161.3,9.9a32.37,32.37,0,0,1,12.06-4.72A19.27,19.27,0,0,1,188,9c5.45,4.25,7,11.15,6.59,17.7-.81,12-5.8,23.61-12.16,34.24Z" transform="translate(-1.87 -4.71)"/><path class="cls-10" d="M182.38,61.25h0l-58.49-4.56a.28.28,0,0,1-.23-.4c10.6-22.22,23.22-37.9,37.52-46.63a32.46,32.46,0,0,1,12.16-4.76,19.64,19.64,0,0,1,14.81,3.91c6.55,5.11,7,13.43,6.7,17.94-.72,10.6-4.71,21.84-12.2,34.36A.28.28,0,0,1,182.38,61.25Zm-58.07-5.08,57.92,4.51c7.39-12.39,11.33-23.5,12-34,.3-4.4-.14-12.52-6.49-17.46a19.09,19.09,0,0,0-14.38-3.8,31.91,31.91,0,0,0-11.95,4.68C147.32,18.76,134.83,34.25,124.31,56.17Z" transform="translate(-1.87 -4.71)"/><path class="cls-10" d="M182.38,61.25h0l-58.49-4.56a.28.28,0,0,1-.23-.4c10.6-22.22,23.22-37.9,37.52-46.63a32.46,32.46,0,0,1,12.16-4.76,19.64,19.64,0,0,1,14.81,3.91c6.55,5.11,7,13.43,6.7,17.94-.72,10.6-4.71,21.84-12.2,34.36A.28.28,0,0,1,182.38,61.25Zm-58.07-5.08,57.92,4.51c7.39-12.39,11.33-23.5,12-34,.3-4.4-.14-12.52-6.49-17.46a19.09,19.09,0,0,0-14.38-3.8,31.91,31.91,0,0,0-11.95,4.68C147.32,18.76,134.83,34.25,124.31,56.17Z" transform="translate(-1.87 -4.71)"/><circle class="cls-9" cx="229.9" cy="84.03" r="6.37" transform="translate(125.71 301.69) rotate(-85.37)"/><path class="cls-10" d="M229.91,90.68l-.55,0a6.63,6.63,0,1,1,.55,0Zm0-12.73a6.11,6.11,0,1,0,.5,0Z" transform="translate(-1.87 -4.71)"/><path class="cls-2" d="M193.93,85.06a1,1,0,0,1,.1-2l31.4.34a1,1,0,0,1,0,2L194,85.06Z" transform="translate(-1.87 -4.71)"/><path class="cls-4" d="M225.45,85.68h0l-31.56-.36a1.32,1.32,0,0,1-.85-1.66,1.32,1.32,0,0,1,1-.88H194l31.47.35a1.32,1.32,0,0,1,0,2.55ZM194,84.78h0l31.34.34a.76.76,0,0,0,0-1.46l-31.32-.34a.76.76,0,0,0-.49,1.09A.76.76,0,0,0,194,84.78Z" transform="translate(-1.87 -4.71)"/><path class="cls-2" d="M123.78,96.56A55,55,0,0,0,106.32,99l1,18.57s44,1.47,86.45-1.28c4-.24,7.61-2.73,10.38-6.77C177.34,110.5,150.8,96.36,123.78,96.56Z" transform="translate(-1.87 -4.71)"/><path class="cls-3" d="M108.06,66a12.61,12.61,0,0,0-3.77-1l2,34a55,55,0,0,1,17.46-2.46c27-.2,53.56,13.94,80.45,13,4.08-5.93,6.44-15.13,5.8-25.37A47.58,47.58,0,0,0,205.43,66C177,79.42,138.61,77.08,108.06,66Z" transform="translate(-1.87 -4.71)"/><path class="cls-2" d="M191.33,54.13h0a459.37,459.37,0,0,0-87.56,1.19l.52,9.7A12.61,12.61,0,0,1,108,66c30.56,11.1,69,13.44,97.43.05C202,59,196.88,54.39,191.33,54.13Z" transform="translate(-1.87 -4.71)"/><path class="cls-4" d="M136.28,118.24c-17,0-28.73-.38-29-.39a.28.28,0,0,1-.27-.26L103.5,55.34a.28.28,0,0,1,.25-.29,460.81,460.81,0,0,1,87.62-1.19c9.66.45,18,13.76,18.95,30.3h0c.49,8.36-.94,16.32-4,22.43s-7.54,9.71-12.47,10C173.35,117.9,152.43,118.24,136.28,118.24Zm-28.68-.93c3.65.11,45.83,1.32,86.17-1.28,4.73-.27,9-3.72,12-9.7s4.45-13.89,4-22.15h0c-.94-16.26-9-29.34-18.43-29.77a460.26,460.26,0,0,0-87.26,1.16Z" transform="translate(-1.87 -4.71)"/><ellipse class="cls-5" cx="105.76" cy="86.35" rx="18.02" ry="31.13" transform="translate(-6.84 1.76) rotate(-3.42)"/><path class="cls-4" d="M107,117.72c-9.81,0-18.49-13.36-19.5-30.28-.5-8.35.92-16.31,4-22.43s7.5-9.72,12.41-10C114,54.39,123,68,124,85.26s-6.32,31.84-16.39,32.44Zm-2.45-62.19-.62,0c-4.7.28-8.95,3.73-11.95,9.71S87.55,79.16,88,87.41C89,104,97.46,117.16,107,117.17l.62,0c9.77-.58,16.89-14.87,15.88-31.86C122.48,68.67,114.05,55.53,104.53,55.53Z" transform="translate(-1.87 -4.71)"/><path class="cls-4" d="M107,117.72c-9.81,0-18.49-13.36-19.5-30.28-.5-8.35.92-16.31,4-22.43s7.5-9.72,12.41-10C114,54.39,123,68,124,85.26s-6.32,31.84-16.39,32.44Zm-2.45-62.19-.62,0c-4.7.28-8.95,3.73-11.95,9.71S87.55,79.16,88,87.41C89,104,97.46,117.16,107,117.17l.62,0c9.77-.58,16.89-14.87,15.88-31.86C122.48,68.67,114.05,55.53,104.53,55.53Z" transform="translate(-1.87 -4.71)"/><path class="cls-4" d="M142.52,85.46A3.2,3.2,0,0,1,139,82.65h0c-.28-1.94-.74-3.88-1.09-5.82a2.4,2.4,0,0,0-1.74,1.09c-1.14,1.75-.12,4.47.13,6.36a43.6,43.6,0,0,1,0,8.81,6,6,0,0,0,.61,3.75,2.08,2.08,0,0,0,1.71,1c3.83.17,3.77-5.3,3.88-7.81A36,36,0,0,0,142.52,85.46Z" transform="translate(-1.87 -4.71)"/><path class="cls-4" d="M197.53,87.68a2.85,2.85,0,0,1-3.07-2.61q0-.12,0-.23c-.19-1.93-.59-3.88-.78-5.81a2.19,2.19,0,0,0-1.58,1.08c-1.06,1.75-.24,4.46-.08,6.35a48.81,48.81,0,0,1-.23,8.8,6.6,6.6,0,0,0,.43,3.74,1.8,1.8,0,0,0,1.49,1c3.41.18,3.53-5.26,3.7-7.78C197.5,90.69,197.56,89.16,197.53,87.68Z" transform="translate(-1.87 -4.71)"/><polygon class="cls-9" points="159.16 84.52 170.25 85.05 165.07 75.47 159.16 84.52"/><path class="cls-10" d="M172.12,90h0L161,89.51a.28.28,0,0,1-.22-.43l5.9-9.06a.27.27,0,0,1,.24-.13.28.28,0,0,1,.23.14l5.18,9.59a.28.28,0,0,1-.24.41ZM161.53,89l10.11.48-4.72-8.74Z" transform="translate(-1.87 -4.71)"/><path class="cls-4" d="M165.88,108.79a19,19,0,0,1-3.38-.3c-3-.54-8.19-2.29-9.84-8a.28.28,0,1,1,.53-.15c1.57,5.44,6.57,7.12,9.41,7.63,5.65,1,11.77-.71,14.24-4a.28.28,0,0,1,.44.33C175.19,107.06,170.63,108.79,165.88,108.79Z" transform="translate(-1.87 -4.71)"/><path class="cls-4" d="M189.21,70.12a.28.28,0,0,1-.23-.43,4,4,0,0,1,6.43-.21.28.28,0,1,1-.44.34,3.41,3.41,0,0,0-5.53.18A.28.28,0,0,1,189.21,70.12Z" transform="translate(-1.87 -4.71)"/><path class="cls-4" d="M132.91,69.55a.28.28,0,0,1-.23-.43,4,4,0,0,1,6.43-.21.28.28,0,1,1-.44.34,3.41,3.41,0,0,0-5.53.18A.28.28,0,0,1,132.91,69.55Z" transform="translate(-1.87 -4.71)"/><path class="cls-5" d="M73.09,87.54a1,1,0,0,1,.07-2l31.4-1.12a1,1,0,1,1,.08,2L73.25,87.55Z" transform="translate(-1.87 -4.71)"/><path class="cls-4" d="M73.26,87.83H73a1.32,1.32,0,0,1,.09-2.54l31.42-1.13a1.32,1.32,0,1,1,.1,2.56Zm-.11-.56h.12l31.36-1.13h.07a.76.76,0,1,0-.06-1.48h-.07L73.17,85.8a.77.77,0,0,0-.51.51.76.76,0,0,0,.48.94Z" transform="translate(-1.87 -4.71)"/><circle class="cls-9" cx="68.69" cy="86.42" r="6.37" transform="translate(-24.86 143.21) rotate(-85.37)"/><path class="cls-10" d="M68.7,93.06l-.54,0a6.64,6.64,0,1,1,.54,0Zm0-12.73a6.1,6.1,0,1,0,.5,0Z" transform="translate(-1.87 -4.71)"/><path class="cls-2" d="M126.87,216.08c-21.25-18.54-32.74-53.16-18.85-77.71-14.17,7.39-14.5,33.11-9.67,47.22a3.9,3.9,0,0,1,.2,1.15q.89,3,1.93,5.78c6.25,16.86,20.87,33.06,40.26,35.29a40.68,40.68,0,0,0,9.92-.09c-3-1-5.89-2.09-8.83-3.08A105,105,0,0,1,126.87,216.08Z" transform="translate(-1.87 -4.71)"/><path class="cls-2" d="M183.72,184.16c2.81,6.19,7.42,10.83,12.7,14.66,3.45-4,6.44-8,9.07-11.61a12.48,12.48,0,0,0-20.22-14.64c-12.86,17.74-24.74,27.62-36.3,30.09a16.09,16.09,0,0,1-3.47.36C160.63,204.86,174.59,195.72,183.72,184.16Z" transform="translate(-1.87 -4.71)"/><path class="cls-3" d="M183.72,184.16c-9.13,11.55-23.09,20.69-38.23,18.82-9.94-.05-18-9.52-21.61-19.22-3.88-10.45-5.67-23.24-5.65-40.27,0-2.68.43-6.89-2.29-7.2a18.46,18.46,0,0,0-7.92,2.08c-13.9,24.56-2.4,59.19,18.85,77.71a105,105,0,0,0,15,8.52c2.93,1,5.85,2.11,8.83,3.08q1.75-.23,3.55-.61c17.9-3.84,27.23-19.63,36.32-36.84C185.23,186.41,186.53,190.35,183.72,184.16Z" transform="translate(-1.87 -4.71)"/><path class="cls-4" d="M145.38,228.28a41.78,41.78,0,0,1-4.64-.26c-9.08-1-17.8-5.27-25.21-12.23a61.92,61.92,0,0,1-15.27-23.24c-.7-1.88-1.35-3.83-1.94-5.8a.28.28,0,0,1,0-.07,3.63,3.63,0,0,0-.18-1.07c-4.19-12.09-4.25-30.86,2.91-41.32a18.07,18.07,0,0,1,14.9-8.27c2.71.3,2.64,3.9,2.59,6.53,0,.33,0,.65,0,.95,0,17,1.77,29.77,5.64,40.17,4,10.71,13.41,21.12,24.77,18.69s23.29-12.26,36.14-30a12.78,12.78,0,0,1,17.82-2.82c1.33,1,2,1.88,2,2.8,0,1.53-1.59,2.81-3.64,4.44a24.45,24.45,0,0,0-4.89,4.7,132.8,132.8,0,0,0-7.78,12.79c-7.67,13.68-16.37,29.19-34.25,33A41.62,41.62,0,0,1,145.38,228.28ZM98.86,186.64c.58,1.95,1.23,3.87,1.92,5.73,5.45,14.7,19.21,32.72,40,35.11a41,41,0,0,0,13.38-.7C171.82,223,180.45,207.6,188.07,194a133.27,133.27,0,0,1,7.81-12.84,24.89,24.89,0,0,1,5-4.81c1.86-1.47,3.46-2.74,3.43-4,0-.74-.6-1.52-1.77-2.37h0a12.22,12.22,0,0,0-17,2.7c-12.93,17.84-24.86,27.71-36.47,30.2a16.44,16.44,0,0,1-3.45.37c-10.11,0-18.31-9.58-22-19.41-3.89-10.47-5.69-23.3-5.67-40.37,0-.3,0-.62,0-1,0-2.55.11-5.73-2.05-6a17.53,17.53,0,0,0-14.42,8c-7.05,10.32-7,28.86-2.84,40.83A4.19,4.19,0,0,1,98.86,186.64Z" transform="translate(-1.87 -4.71)"/><path class="cls-11" d="M143.39,124.33q8.24-1,16.55-1.13" transform="translate(-1.87 -4.71)"/><path class="cls-5" d="M154.29,126.39a50.42,50.42,0,0,1-11.78-1.4.28.28,0,0,1,.13-.54,49.86,49.86,0,0,0,16.43,1.15.27.27,0,0,1,.3.25.28.28,0,0,1-.25.3Q156.7,126.39,154.29,126.39Z" transform="translate(-1.87 -4.71)"/><path class="cls-5" d="M182.54,197.49a.28.28,0,0,1-.19-.07c-3-2.73-3.31-3.56-4.24-5.76-.31-.74-.7-1.66-1.28-2.88a.28.28,0,0,1,.5-.24c.59,1.22,1,2.15,1.3,2.9.92,2.18,1.23,2.92,4.11,5.57a.28.28,0,0,1-.19.48Z" transform="translate(-1.87 -4.71)"/><path class="cls-5" d="M170.29,216.07a.28.28,0,0,1-.21-.1,37.63,37.63,0,0,1-7.33-14.69.28.28,0,0,1,.54-.13,37.07,37.07,0,0,0,7.22,14.48.28.28,0,0,1-.21.45Z" transform="translate(-1.87 -4.71)"/><path class="cls-5" d="M150.16,222.84a.28.28,0,0,1-.26-.19,42.65,42.65,0,0,1-2.29-15.31.29.29,0,0,1,.29-.27.28.28,0,0,1,.27.29,42.09,42.09,0,0,0,2.26,15.11.28.28,0,0,1-.17.35Z" transform="translate(-1.87 -4.71)"/><path class="cls-5" d="M126.29,215.64a.28.28,0,0,1-.28-.26,16.19,16.19,0,0,1,4.86-12.8.28.28,0,1,1,.39.4,15.64,15.64,0,0,0-4.69,12.37.28.28,0,0,1-.26.3Z" transform="translate(-1.87 -4.71)"/><path class="cls-5" d="M108.21,195.26a.28.28,0,0,1-.24-.42,19,19,0,0,1,12.1-8.64.28.28,0,1,1,.12.54,18.42,18.42,0,0,0-11.74,8.38A.28.28,0,0,1,108.21,195.26Z" transform="translate(-1.87 -4.71)"/><path class="cls-5" d="M99.68,173.81a.28.28,0,0,1-.19-.47c3.65-3.62,9.26-3.8,14.7-3.67a.28.28,0,1,1,0,.55c-5.31-.13-10.79,0-14.29,3.51A.28.28,0,0,1,99.68,173.81Z" transform="translate(-1.87 -4.71)"/><path class="cls-5" d="M101.63,151.27a.28.28,0,0,1-.12-.53,14.16,14.16,0,0,1,10.1-.65.28.28,0,0,1-.16.53,13.6,13.6,0,0,0-9.71.63Z" transform="translate(-1.87 -4.71)"/><path class="cls-3" d="M194.71,186.79l-.42,7.81c-.33,6,3.78,11.15,9.17,11.43l4.19.22c5.39.29,10-4.39,10.31-10.36l.27-5.06c.47-8.6-5.35-15.93-13.11-16.33h0l-5.5-.3" transform="translate(-1.87 -4.71)"/><path class="cls-4" d="M208.12,206.54h-.49l-4.19-.22a9.46,9.46,0,0,1-6.55-3.21,11.8,11.8,0,0,1-2.88-8.51l.42-7.81a.28.28,0,0,1,.55,0l-.42,7.81a11.24,11.24,0,0,0,2.74,8.11,8.91,8.91,0,0,0,6.17,3l4.19.22c5.2.28,9.7-4.25,10-10.1l.27-5.06A16.2,16.2,0,0,0,214,179.12a12.83,12.83,0,0,0-8.9-4.35l-5.5-.3a.28.28,0,0,1-.26-.29.27.27,0,0,1,.29-.26l5.5.3a13.38,13.38,0,0,1,9.28,4.54,16.75,16.75,0,0,1,4.09,12.08l-.27,5.06C217.91,201.87,213.43,206.54,208.12,206.54Z" transform="translate(-1.87 -4.71)"/><rect class="cls-12" x="279.98" y="231.74" width="56.77" height="56.77"/><path class="cls-13" d="M338.63,293.45H281.85a.22.22,0,0,1-.22-.22V236.45a.22.22,0,0,1,.22-.22h56.77a.22.22,0,0,1,.22.22v56.77A.22.22,0,0,1,338.63,293.45ZM282.07,293H338.4V236.67H282.07Z" transform="translate(-1.87 -4.71)"/><rect class="cls-14" x="279.98" y="231.74" width="56.77" height="56.77"/><path class="cls-15" d="M338.63,293.45H281.85a.22.22,0,0,1-.22-.22V236.45a.22.22,0,0,1,.22-.22h56.77a.22.22,0,0,1,.22.22v56.77A.22.22,0,0,1,338.63,293.45ZM282.07,293H338.4V236.67H282.07Z" transform="translate(-1.87 -4.71)"/><polygon class="cls-16" points="336.75 288.52 327.24 279 327.24 241.25 289.49 241.25 279.98 231.74 336.75 231.74 336.75 288.52"/><polygon class="cls-15" points="336.75 288.52 327.24 279 289.49 279 289.49 241.25 279.98 231.74 279.98 288.52 336.75 288.52"/><path class="cls-15" d="M338.63,293.45H281.85a.22.22,0,0,1-.22-.22V236.45a.22.22,0,0,1,.22-.22h56.77a.22.22,0,0,1,.22.22v56.77A.22.22,0,0,1,338.63,293.45ZM282.07,293H338.4V236.67H282.07Z" transform="translate(-1.87 -4.71)"/><path class="cls-3" d="M299.26,277.18h-.12l-.15,0-.14-.07a.25.25,0,0,1-.09-.09v0a.39.39,0,0,0-.06-.16l-.08-.09-.08-.07a.18.18,0,0,1-.06-.08.06.06,0,0,1,0,0,.37.37,0,0,0,0,0,0,0,0,0,0,0,0h-.05l0,0,0,0a.24.24,0,0,1-.05.08l-.08.08-.08.08a.13.13,0,0,0,0,.09v0l0,0h.06v0h0s0,0,0,0h-.06s0,0,0,0l0,0,0,0H298s0-.05,0,0h-.07a.14.14,0,0,1-.08.06l-.1,0-.09,0a.08.08,0,0,0,0,.07h-.35s0,0,0,0h0a.65.65,0,0,1-.29-.07.24.24,0,0,1-.14-.24s0-.08,0-.11a.27.27,0,0,1,0-.11l0,0h-.09l0,0a.09.09,0,0,1,0,0v.08a.12.12,0,0,1-.11,0,.31.31,0,0,1-.05-.11.59.59,0,0,1,0-.14.45.45,0,0,0,0-.12v0l0-.06,0-.06,0,0,0-.07,0-.1,0-.1a.39.39,0,0,1,0-.07l0,0,0,0h0a.19.19,0,0,0,0-.08.15.15,0,0,1,0-.07.2.2,0,0,1,0-.08.06.06,0,0,1,.06,0h0l0,0v0l.06,0a.1.1,0,0,0-.06-.05l-.07,0-.06,0a.06.06,0,0,1,0-.06,0,0,0,0,1,0,0h.09s0,0,0,0h.19v-.06l-.16-.07v0a.3.3,0,0,1,0-.18.21.21,0,0,1,.09-.07l.1,0a.08.08,0,0,0,.07,0h0l0,0h0a.09.09,0,0,1,0-.08l.08,0,.09,0,.07,0a.14.14,0,0,0,0,0,.13.13,0,0,0,0,0l.05,0,0,0v-.05l-.06-.09v0h0l0,0,0,0h0l0,0v0h.25v0l0,0a.17.17,0,0,0,.13,0l.08-.09.09-.09a.23.23,0,0,1,.15,0l.09,0,.15.11.16.12.11.08a.18.18,0,0,1,.06.06l0,.1,0,.11a.19.19,0,0,1,0,.08.09.09,0,0,1,.06,0l0,.06,0,.06a.07.07,0,0,0,.06,0,.11.11,0,0,0,0,.06l0,.09,0,.09a.19.19,0,0,1,0,.06v0h0v0l-.11,0-.11,0,0,.08s0,.07,0,.07h.24s0,0,0,0l0,.06,0,.06a.06.06,0,0,0,0,0l.06.22s0,.05.06,0,0,0,.05.05l0,.05s0,0,0,.06a.08.08,0,0,0,0,.05l.05,0,0,0a.05.05,0,0,1,0,0l0,.14,0,0,.06,0,.07,0,0,0h0v0l0,.11a.2.2,0,0,0,0,.08l.07,0,.14.06.15.07.11.07s-.06,0-.07,0a.13.13,0,0,0,0,.06v.07a.08.08,0,0,1,0,.07.2.2,0,0,1-.1,0l-.24,0-.06,0,0,0,0-.05Zm-2.41-.94a.32.32,0,0,1,.06.12.18.18,0,0,0,.07.1l.1,0,.07,0h.23l0,0,0,0,.08,0,.08,0,.08,0a.29.29,0,0,0,.13-.15l.09-.19a.07.07,0,0,1,.06,0l.07,0h0l0,0,0,0,0,0,0,0a2.48,2.48,0,0,0,.09-.4,2.66,2.66,0,0,0,0-.39.2.2,0,0,0-.14-.21l-.14,0h-.15l-.09,0-.15.09-.14.09-.07,0v.06l0,.06h-.06l-.12.12h0s0,0,0,0,0,0,0,.06,0,.06,0,.08v.06l0,.07,0,.1a.26.26,0,0,1-.08.13l-.1.06-.09,0s0,0,0,0a.09.09,0,0,0,0,.08l.08,0h.08a.06.06,0,0,1,.05,0l-.06.05Zm.38.4s0,0,0,0,0,0,0,0h0Zm.06-.06s0,0,0,0,0,0,0,0,0,0,0,0S297.31,276.58,297.29,276.58Zm0-1.73h0v0h0Zm.25,1.73,0,0a.07.07,0,0,0,0-.06h-.08Zm.31-2.36s0,0,0,0h0Zm0,2.27h0v0h0Zm0,.09s0,0,0,0,0,0,0,0,0,0,0,0S297.9,276.58,297.88,276.58Zm.06-.47a0,0,0,0,0,0,0h.1l0-.12-.06,0A.05.05,0,0,0,297.95,276.11Zm0-1.87s0,0,0,0,0,0,0,0,0,0,0,0S298,274.25,298,274.25Zm.35,2.16h.06v-.07h-.06Z" transform="translate(-1.87 -4.71)"/><path class="cls-3" d="M314.61,258.18v0l0,0a.31.31,0,0,1-.14-.17.7.7,0,0,1-.06-.22.31.31,0,0,1,0-.16.37.37,0,0,0,0-.16.83.83,0,0,0,0-.14.56.56,0,0,1,0-.14.53.53,0,0,1,0-.22.59.59,0,0,0,0-.22s0-.05,0-.06,0,0,0-.07,0-.08,0-.13l0-.14,0-.14s0-.08,0-.11v0l0-.07,0-.07,0,0h0l0-.06,0-.12a1.42,1.42,0,0,0,0-.15.48.48,0,0,0,0-.15q0-.3-.06-.59t-.06-.6s0-.07,0-.13v-.31s0-.07,0-.08v-.21c.05,0,.09,0,.09,0a.18.18,0,0,0,0-.07.08.08,0,0,1,0,0v0a.28.28,0,0,0,0-.06l0-.09,0-.09v-.05a0,0,0,0,1,0,0h0a2.05,2.05,0,0,1-.07-.24.4.4,0,0,1,0-.19.12.12,0,0,1,.1-.09.53.53,0,0,1,.25,0,.09.09,0,0,0,0-.06.37.37,0,0,0,0-.07.19.19,0,0,1,0-.06,0,0,0,0,1,0,0l0,0,.06,0,.05.05,0,0a1.36,1.36,0,0,1,.09.2,1.14,1.14,0,0,1,.06.38q0,.11,0,.23l0,.09,0,.08v0a.08.08,0,0,1,0,0l-.05,0,0,.32-.09-.06,0,0a.23.23,0,0,0,0,0v0h0l0,0h0a.53.53,0,0,1,.06.14l0,.15a.25.25,0,0,0,.07.11.19.19,0,0,0,.15,0h.2s0,0,0,0l0,.1h0s0,0,.05,0l0-.07a.09.09,0,0,0,.08.06H316a.24.24,0,0,0,.14-.06.26.26,0,0,1,.16-.06h.14q.08.05.08.09a.48.48,0,0,0,0,.13s0,0,0,0h.06l0,0,.07.09.08.1.08.07,0,0a.21.21,0,0,1,0,.06.46.46,0,0,1,0,.17.57.57,0,0,0,0,.17.11.11,0,0,0,0,.07H317v-.17H317l.07,0c0,.08,0,.14,0,.19l0,.18v.06a.18.18,0,0,0,0,.06c-.1,0-.14.06-.14.13s.06.12.15.11a.11.11,0,0,1-.1.08h0l0,0-.05,0h-.09a1,1,0,0,0,.05.24,1.08,1.08,0,0,0,.1.21.07.07,0,0,1,0,0h.06v.09H317l-.12,0a.53.53,0,0,1,0,.17l0,.12,0,.11a.4.4,0,0,0,0,.14h-.09l0,0h0a.09.09,0,0,0,0,.06l.05,0h-.08a.15.15,0,0,1-.09,0l-.07-.06-.07-.06-.09,0s0,.08,0,.11,0,.06,0,.08v.09s0,.08,0,.14a.13.13,0,0,1,0,.07l0,0,0,0-.05,0a.19.19,0,0,0,0,.07l0,.1,0,.09a.07.07,0,0,1-.06,0v-.07h-.1l0,.06s0,0,0,.06l0,0h0l0,0,0,0h-.31l-.06.15s0,0,0,0h-.09s0,0,0-.09l-.14.07-.13,0a.38.38,0,0,1,0,.11.12.12,0,0,1-.08.09l-.13,0A.13.13,0,0,1,314.61,258.18Zm0-.24s0,0,0,0,0,0,0,0a0,0,0,0,0,0,0S314.63,257.94,314.61,257.95Zm.13-.07a.08.08,0,0,0,.06.07.12.12,0,0,0,.09,0v0h0l0,0,0,0a.16.16,0,0,1,0,0l0,0h0l-.06,0Zm0,.23a0,0,0,0,0,.06,0v-.08A.08.08,0,0,0,314.75,258.11Zm.08-5.41h0v0h0Zm.1,5a.55.55,0,0,0,0,.13c0,.05.05.08.09.08s0,0,0,0a.49.49,0,0,0,0-.09.75.75,0,0,1,0-.1s0-.05,0-.06h0l.08,0,.08,0,0,0a.3.3,0,0,0-.07-.18.18.18,0,0,0-.17,0,.23.23,0,0,0-.13.06A.14.14,0,0,0,314.92,257.73Zm0-4.36s0,0,0,0,0,0,0,0,0,0,0,0S315,253.37,315,253.37Zm0,1.13s0,0,0,0,0,0,0,0l0,0S315,254.52,315,254.5Zm.2,2.73-.07.06a.12.12,0,0,0,0,.09h.1l.07,0a.06.06,0,0,0,0,0,.15.15,0,0,0,0-.08s0-.07,0-.07h.16l.05-.06.05-.06h.05a.18.18,0,0,1,0,.1s0,0,0,.07a.06.06,0,0,0,0,0l.06,0h.11a.23.23,0,0,0,0-.14.18.18,0,0,1,0-.13s0-.06.06-.1l.17-.15.22-.2a1.74,1.74,0,0,0,.22-.23,1.22,1.22,0,0,0,.16-.27.62.62,0,0,0,.05-.3.13.13,0,0,0,0-.08l0,0,0,0,0,0s0-.07,0-.09l.06,0,.08,0a.06.06,0,0,0,0-.06.19.19,0,0,0-.08-.15.47.47,0,0,0-.17-.08l-.2,0H316a.1.1,0,0,0,0,.06.11.11,0,0,1,0,.07v0l0,0h0l-.1,0-.06,0-.05,0-.08-.08h-.12l-.14,0-.13,0a.15.15,0,0,0-.08.07.19.19,0,0,1,0,.07l-.05.1-.05.1a.21.21,0,0,0,0,.07s0,0,0,.07v.11s0,.08,0,.11v.07s0,.08,0,.16,0,.16,0,.24,0,.16,0,.23,0,.1,0,.11l0,0v0h0l0,0,0,0a0,0,0,0,0,0,0h0a.07.07,0,0,0,0,0,.2.2,0,0,0,0,.08s0,.06,0,.09a.24.24,0,0,1,0,.07.14.14,0,0,0,0,.07v.11a1,1,0,0,0,0,.12s0,.07,0,.08,0,.07,0,.08Zm-.13-2.73h0v0Zm0,1.3,0,0h0Zm0-2.3s0,0,0,0,0,0,0,0,0,0,0,0S315.12,253.5,315.1,253.5Zm.05,1.32s0,0,0,0,0,0,0,0,0,0,0,0A0,0,0,0,0,315.15,254.82Zm.25,2.89s0,0,0,0,0,0,0,0v0Zm.29-.13h.07v0l0,0h0Zm.12-3s0,0,0,0,0,0,0,0l0,0Zm0,2.46s0,0,0,0l0,0s0,0,0,0Zm0-2v0l0,0a.11.11,0,0,0,0-.07.17.17,0,0,0,0-.07l0,0A0,0,0,0,0,315.88,255Zm.1,2.36,0,0,0,0Zm.14.09h0v-.07h0Zm.23-.62a.94.94,0,0,0,.35,0v-.07l0-.11a.57.57,0,0,0,0-.1s0,0,0,0h0a.27.27,0,0,0-.05.09l0,.1h-.08a0,0,0,0,0,0,.06Zm.05-2a.08.08,0,0,0,0-.05.32.32,0,0,0,0-.06h-.05Zm.05.13s0,0,0,0h0l0-.06,0-.06v0h0l0,0h-.05l0,0,0,.05,0,0Zm.17,1.44a.07.07,0,0,0,0,0l.07.08a.13.13,0,0,0,.11,0,.17.17,0,0,0-.06-.13A.16.16,0,0,0,316.62,256.45Zm0-1.28s0,0,0,0,0,0,0,0,0,0,0,0S316.68,255.17,316.66,255.17Zm0-.28s0,0,0,0,0,0,0,0v0Zm.05.85c0,.07,0,.1.09.09h0A.12.12,0,0,0,316.72,255.75Z" transform="translate(-1.87 -4.71)"/><path class="cls-3" d="M323,277.3a.27.27,0,0,1,0-.06.29.29,0,0,0,0-.06,0,0,0,0,0,0,0h-.05l0,0s0,0,0,0l-.07.06-.07.06v-.09a.07.07,0,0,0-.05,0l0,.06,0,.06v0s0,0,0-.06a.14.14,0,0,1,0-.08.15.15,0,0,0,0-.09c0-.07,0-.11-.08-.11h0l0,0,0,0h-.15l0,0,0,0-.09,0,0,0h-.05l-.08,0-.08,0h-.11l0,0,0,0,0,0v0l0,0,0-.05v0s0-.05,0-.05a0,0,0,0,0,0,0,.51.51,0,0,0,0,.06s0,0,0-.06,0-.06,0-.07h-.1a0,0,0,0,1,0,0,.15.15,0,0,1,0-.06.13.13,0,0,0,0,0v0h0l-.06,0,0,0,0,0,0,0v-.1a.08.08,0,0,1,0-.06l0,0a.07.07,0,0,0,0,0v0h-.06l0,0,0,0h-.05l0,0a0,0,0,0,0,0,0s0,0,0,0h.08s0,0,0,0h-.16a.25.25,0,0,0,0-.11l0-.06,0,0a.06.06,0,0,1,0,0h0v0a0,0,0,0,0,0,0,0,0,0,0,1,0,0v0h0v0s0,0,0,0l0,0h0a.06.06,0,0,1,0-.06l.07,0,.08,0a.07.07,0,0,0,.05,0,0,0,0,0,0,0,0h0l0,0,0,0h0l0,0h0a0,0,0,0,1,0,0v0a.17.17,0,0,1,0-.09l.06-.08.06-.07a.1.1,0,0,0,0-.05.15.15,0,0,0,0-.09.14.14,0,0,1,0-.08.14.14,0,0,1,0-.1.22.22,0,0,0,.05-.12v-.1l0,0h0l0,0a.19.19,0,0,0,0-.07h0v.13l0,0,0,0,.08,0,.05,0h.06l-.07-.06a.14.14,0,0,0-.09,0v-.09h.08v0h0a.24.24,0,0,0,0,.08.13.13,0,0,0,.06.07h0v-.22l-.08,0-.06-.06h0l.06-.11a.13.13,0,0,1,.11,0h0l0,0v0s0,0,0,0l0-.09.05-.09s0,0,0,0v.36s0,0,0,0l0,0,0,0,0,0s0,0,0,0h.14v0h0s0,0,0,0,0,0,0,0l.08,0v-.2H322l.06,0,0,0h0l0,0,0-.05,0-.05,0,0s0,0,0,0l0,0h0a.16.16,0,0,0,0-.09.19.19,0,0,0,0-.08.24.24,0,0,1,0-.1h.14l0,0v0l.06,0,.07,0,.06,0h.15l.09,0s0,0,0,0l0,0,0,0h0a.13.13,0,0,0,.08,0l.06-.06,0-.06a.07.07,0,0,1,.05,0l0,0,0,.05.05.05,0,0h0l0,0v-.06H323s0,0,0,0,0,0,0,0h.08l.13.14h0l0,0v-.07h.15v.07a.32.32,0,0,0,0,.07h0l0,0V274l0,0,.08.34.14-.12h0s0,0,0,0a.05.05,0,0,1-.06,0s0,0,.05,0h.11l0,0,0,.06h0a.1.1,0,0,1,0,.06l0,0h0l0,0,0,0,0,0h.05a0,0,0,0,0,0,0l0,0,0,0,0,0v.32s0,0,0,0h.07l0,0v0l0,0h0l-.1,0-.09,0a0,0,0,0,0,0,0,.45.45,0,0,0,0,0l-.09,0-.08-.06a0,0,0,0,0,0,0v-.09l0,0,0,0h0a.11.11,0,0,0-.08,0l-.07.07h0l0,0,0,0h-.12l0,0,0,0h0l0,0,0,.05,0,.06-.05,0H323l-.1,0h-.41l0,0h0s-.05,0-.05,0,0,0-.05,0h-.09l0,0,0,0a.24.24,0,0,0,0,.1l0,.09h0v0a.07.07,0,0,1,0,.06l-.05,0-.06,0h0v0a.07.07,0,0,0,0,0h0l-.06.11a.27.27,0,0,0,0,.11v.15a.34.34,0,0,1,0,.07l0,.1a.9.9,0,0,1,0,.13l-.16-.13h0v.11h0V276a.11.11,0,0,0,0,.05l0,0h0l.07,0,.08,0h0l0,.12h0v.13h.06a.23.23,0,0,0,0,.08h0l.06,0,.06.08,0,0,0,0h.12l0,0,0,0h.1l.06,0h.53v.09a.07.07,0,0,0,.05-.07.11.11,0,0,1,.05-.09.66.66,0,0,1,.21-.07l.21,0,.05,0,0,0H324l.08,0,.07,0a.19.19,0,0,1,0,.07l0,.07h0l0,0,0,0a.11.11,0,0,0,0,0,.08.08,0,0,1,0,0,.12.12,0,0,1-.05.06l-.07,0h0l0,0,0,0v0a.08.08,0,0,0-.05-.07.06.06,0,0,0,0,0v0h-.25v0a.26.26,0,0,0,0,.06.06.06,0,0,0,0,0h0l0,0a.11.11,0,0,0,0,0s0,0,0,0a.08.08,0,0,1-.06,0s0,0,0,.09h0a.43.43,0,0,0,0-.07l0-.06-.05,0h0v.1h0l0,0-.05,0h-.07l-.06,0-.06,0h0l-.08,0ZM321.05,276s0,0,0,0,0,0,0,0,0,0,0,0S321.06,276,321.05,276Zm0-.22s0,0,0,0,0,0,0,0h0S321.06,275.75,321.05,275.75Zm.14.23a0,0,0,0,0,0,0h0Zm.14.06s0,0,0,0h0l.05,0Zm0-1a.23.23,0,0,0,0,.07,0,0,0,0,0,0,0h0s0,0,0,0a.05.05,0,0,0,0-.06Zm0,.24h0v0h0Zm.07.93h0s0,0,0,0Zm.09-.44a.1.1,0,0,0-.07,0,.11.11,0,0,0,0,.07h.09s.06,0,.06-.06h0Zm-.07-.23,0,0v0s0,0,0,0Zm.07,1s0,0,0,0,0,0,0,0,0,0,0,0S321.52,276.54,321.52,276.54Zm0-1s0,0,0,0,0,0,0,0,0,0,0,0S321.58,275.5,321.56,275.5Zm0,.13h0v0h0Zm.05-1h0v0Zm.05.64v.07h0s0,0,0-.06,0-.05,0-.06h0a0,0,0,0,0,0,0h0Zm0-.17h0s0,0,0,0h0A0,0,0,0,0,321.68,275.06Zm0,.4v0l0,0,0,0,0,0,0,0h0l0,0v0a.06.06,0,0,0,.05,0,.13.13,0,0,0,0-.06.57.57,0,0,0,0-.14.1.1,0,0,0-.1-.08h-.08S321.67,275.43,321.67,275.46Zm.05,1.3h0Zm.09-1.89,0,0h0Zm.06.41v0a.06.06,0,0,0,0,0l0,0v0Zm.43-.7s.05,0,.05-.06h-.05Zm.11-.23s0,0,0,0h0Zm.14.05v.05s0,.07,0,.14,0,.12,0,.14h0l0-.11a.32.32,0,0,0,0-.13.54.54,0,0,0,0-.06S322.59,274.41,322.56,274.4Zm.07-.07a.15.15,0,0,0,.05.12.14.14,0,0,0,0-.08l.09.05s0,0,0,0a.21.21,0,0,0,0-.08s0,0-.05,0h-.09S322.63,274.3,322.63,274.33Zm0,.31h.05v-.07l.06,0,.06,0h0l0,0,0,0a.27.27,0,0,1-.07.09A.13.13,0,0,0,322.63,274.64Zm.05.13,0,0h0Zm.07-.15s0,0,0,0,0,0,0,0,0,0,0,0S322.76,274.62,322.75,274.62Zm0,.25v0h0Zm.1-.07a.07.07,0,0,0,0-.06h0Zm0-.44h0l0,0h0Zm0-.11s0,0,0,0,0,0,0,0h0Zm.14.07s0,0,0,0h0Zm0,2.93.09,0,.09,0v0l0-.06,0-.06,0,0h0v.06H323Zm0-2.57s0,0,0,0,0,0,0,0,0,0,0,0S323.07,274.69,323.06,274.69Zm.13-.42v0l0,0v0h0l0,.08a.59.59,0,0,0,0,.07h0v0l0,0h.17l-.06-.08-.05-.08h0Zm-.09.34a.13.13,0,0,0,0,.06l0,.06s0,0,0,0a.26.26,0,0,0,0-.07s0-.07,0-.08h-.05A0,0,0,0,0,323.1,274.62Zm.25,2.54s0,0,0,0,0,0,0,0a0,0,0,0,0,0,0A0,0,0,0,0,323.36,277.2Zm0-2.78h0l0,0Zm0-.17h0v-.05Zm.33,2.49,0,0,0,.06v0s0,0,0,0a.14.14,0,0,1,0-.07l0,0h0Zm.08-2.36s0,0,0,0,0,0,0,0,0,0,0,0S323.79,274.32,323.78,274.32Zm.05.26s-.05,0-.05.07h0A.1.1,0,0,0,323.83,274.59Zm0,.23h0Zm.12,1.77s0,0,0,0,0,0,0,0,0,0,0,0S324,276.58,324,276.58Z" transform="translate(-1.87 -4.71)"/><path class="cls-3" d="M320.74,274.3h-21l10.51-18.21Zm-20.07-.55h19.11l-9.55-16.55Z" transform="translate(-1.87 -4.71)"/><path class="cls-3" d="M304.29,274h-.55a3.24,3.24,0,0,0-1.84-2.91l.24-.5A3.79,3.79,0,0,1,304.29,274Z" transform="translate(-1.87 -4.71)"/><path class="cls-3" d="M316.8,274h-.55a3.79,3.79,0,0,1,2.16-3.41l.24.5A3.24,3.24,0,0,0,316.8,274Z" transform="translate(-1.87 -4.71)"/><path class="cls-3" d="M310.22,260.12a3.48,3.48,0,0,1-1.74-.47l.28-.48a3,3,0,0,0,2.92,0l.28.48A3.48,3.48,0,0,1,310.22,260.12Z" transform="translate(-1.87 -4.71)"/><rect class="cls-12" x="279.98" y="174.52" width="56.77" height="56.77"/><path class="cls-13" d="M338.63,236.22H281.85a.22.22,0,0,1-.22-.22V179.22a.22.22,0,0,1,.22-.22h56.77a.22.22,0,0,1,.22.22V236A.22.22,0,0,1,338.63,236.22Zm-56.55-.45H338.4V179.45H282.07Z" transform="translate(-1.87 -4.71)"/><rect class="cls-14" x="279.98" y="174.53" width="56.77" height="56.77"/><path class="cls-15" d="M338.63,236.23H281.85a.22.22,0,0,1-.22-.22V179.23a.22.22,0,0,1,.22-.22h56.77a.22.22,0,0,1,.22.22V236A.22.22,0,0,1,338.63,236.23Zm-56.55-.45H338.4V179.46H282.07Z" transform="translate(-1.87 -4.71)"/><polygon class="cls-16" points="336.75 231.29 327.24 221.78 327.24 184.04 289.49 184.04 279.98 174.52 336.75 174.52 336.75 231.29"/><polygon class="cls-15" points="336.75 231.29 327.24 221.78 289.49 221.78 289.49 184.04 279.98 174.52 279.98 231.29 336.75 231.29"/><path class="cls-15" d="M338.63,236.23H281.85a.22.22,0,0,1-.22-.22V179.23a.22.22,0,0,1,.22-.22h56.77a.22.22,0,0,1,.22.22V236A.22.22,0,0,1,338.63,236.23Zm-56.55-.45H338.4V179.46H282.07Z" transform="translate(-1.87 -4.71)"/><path class="cls-3" d="M299.26,220h-.12l-.15,0-.14-.07a.25.25,0,0,1-.09-.09v0a.39.39,0,0,0-.06-.16l-.08-.09-.08-.07a.18.18,0,0,1-.06-.08.06.06,0,0,1,0,0,.37.37,0,0,0,0,0,0,0,0,0,0,0,0h-.05l0,0,0,0a.24.24,0,0,1-.05.08l-.08.08-.08.08a.13.13,0,0,0,0,.09v0l0,0h.06v0h0s0,0,0,0h-.06s0,0,0,0l0,0,0,0H298s0-.05,0,0h-.07a.14.14,0,0,1-.08.06l-.1,0-.09,0a.08.08,0,0,0,0,.07h-.35s0,0,0,0h0a.65.65,0,0,1-.29-.07.24.24,0,0,1-.14-.24s0-.08,0-.11a.27.27,0,0,1,0-.11l0,0h-.09l0,0a.09.09,0,0,1,0,0v.08a.12.12,0,0,1-.11,0,.31.31,0,0,1-.05-.11.59.59,0,0,1,0-.14.45.45,0,0,0,0-.12v0l0-.06,0-.06,0,0,0-.07,0-.1,0-.1a.39.39,0,0,1,0-.07l0,0,0,0h0a.19.19,0,0,0,0-.08.15.15,0,0,1,0-.07.2.2,0,0,1,0-.08.06.06,0,0,1,.06,0h0l0,0v0l.06,0a.1.1,0,0,0-.06-.05l-.07,0-.06,0a.06.06,0,0,1,0-.06,0,0,0,0,1,0,0h.09s0,0,0,0h.19v-.06l-.16-.07v0a.3.3,0,0,1,0-.18.21.21,0,0,1,.09-.07l.1,0a.08.08,0,0,0,.07,0h0l0,0h0a.09.09,0,0,1,0-.08l.08,0,.09,0,.07,0a.14.14,0,0,0,0,0,.13.13,0,0,0,0,0l.05,0,0,0v-.05l-.06-.09v0h0l0,0,0,0h0l0,0v0h.25v0l0,0a.17.17,0,0,0,.13,0l.08-.09.09-.09a.23.23,0,0,1,.15,0l.09,0,.15.11.16.12.11.08a.18.18,0,0,1,.06.06l0,.1,0,.11a.19.19,0,0,1,0,.08.09.09,0,0,1,.06,0l0,.06,0,.06a.07.07,0,0,0,.06,0,.11.11,0,0,0,0,.06l0,.09,0,.09a.19.19,0,0,1,0,.06v0h0v0l-.11,0-.11,0,0,.08s0,.07,0,.07h.24s0,0,0,0l0,.06,0,.06a.06.06,0,0,0,0,0l.06.22s0,.05.06,0,0,0,.05.05l0,.05s0,0,0,.06a.08.08,0,0,0,0,.05l.05,0,0,0a.05.05,0,0,1,0,0l0,.14,0,0,.06,0,.07,0,0,0h0v0l0,.11a.2.2,0,0,0,0,.08l.07,0,.14.06.15.07.11.07s-.06,0-.07,0a.13.13,0,0,0,0,.06V220a.08.08,0,0,1,0,.07.2.2,0,0,1-.1,0l-.24,0-.06,0,0,0,0-.05Zm-2.41-.94a.32.32,0,0,1,.06.12.18.18,0,0,0,.07.1l.1,0,.07,0h.23l0,0,0,0,.08,0,.08,0,.08,0a.29.29,0,0,0,.13-.15l.09-.19a.07.07,0,0,1,.06,0l.07,0h0l0,0,0,0,0,0,0,0a2.48,2.48,0,0,0,.09-.4,2.66,2.66,0,0,0,0-.39.2.2,0,0,0-.14-.21l-.14,0h-.15l-.09,0-.15.09-.14.09-.07,0v.06l0,.06h-.06l-.12.12h0s0,0,0,0,0,0,0,.06,0,.06,0,.08v.06l0,.07,0,.1a.26.26,0,0,1-.08.13l-.1.06-.09,0s0,0,0,0a.09.09,0,0,0,0,.08l.08,0h.08a.06.06,0,0,1,.05,0l-.06.05Zm.38.4s0,0,0,0,0,0,0,0h0Zm.06-.06s0,0,0,0,0,0,0,0,0,0,0,0S297.31,219.36,297.29,219.36Zm0-1.73h0v0h0Zm.25,1.73,0,0a.07.07,0,0,0,0-.06h-.08Zm.31-2.36s0,0,0,0h0Zm0,2.27h0v0h0Zm0,.09s0,0,0,0,0,0,0,0,0,0,0,0S297.9,219.36,297.88,219.36Zm.06-.47a0,0,0,0,0,0,0h.1l0-.12-.06,0A.05.05,0,0,0,297.95,218.89Zm0-1.87s0,0,0,0,0,0,0,0,0,0,0,0S298,217,298,217Zm.35,2.16h.06v-.07h-.06Z" transform="translate(-1.87 -4.71)"/><path class="cls-3" d="M314.61,201v0l0,0a.31.31,0,0,1-.14-.17.7.7,0,0,1-.06-.22.31.31,0,0,1,0-.16.37.37,0,0,0,0-.16.83.83,0,0,0,0-.14.56.56,0,0,1,0-.14.53.53,0,0,1,0-.22.59.59,0,0,0,0-.22s0-.05,0-.06,0,0,0-.07,0-.08,0-.13l0-.14,0-.14s0-.08,0-.11v0l0-.07,0-.07,0,0h0l0-.06,0-.12a1.42,1.42,0,0,0,0-.15.48.48,0,0,0,0-.15q0-.3-.06-.59t-.06-.6s0-.07,0-.13v-.31s0-.07,0-.08v-.21c.05,0,.09,0,.09,0a.18.18,0,0,0,0-.07.08.08,0,0,1,0,0v0a.28.28,0,0,0,0-.06l0-.09,0-.09v-.05a0,0,0,0,1,0,0h0a2.05,2.05,0,0,1-.07-.24.4.4,0,0,1,0-.19.12.12,0,0,1,.1-.09.53.53,0,0,1,.25,0,.09.09,0,0,0,0-.06.37.37,0,0,0,0-.07.19.19,0,0,1,0-.06,0,0,0,0,1,0,0l0,0,.06,0,.05.05,0,0a1.36,1.36,0,0,1,.09.2,1.14,1.14,0,0,1,.06.38q0,.11,0,.23l0,.09,0,.08v0a.08.08,0,0,1,0,0l-.05,0,0,.32-.09-.06,0,0a.23.23,0,0,0,0,0v0h0l0,0h0a.53.53,0,0,1,.06.14l0,.15a.25.25,0,0,0,.07.11.19.19,0,0,0,.15,0h.2s0,0,0,0l0,.1h0s0,0,.05,0l0-.07a.09.09,0,0,0,.08.06H316a.24.24,0,0,0,.14-.06.26.26,0,0,1,.16-.06h.14q.08.05.08.09a.48.48,0,0,0,0,.13s0,0,0,0h.06l0,0,.07.09.08.1.08.07,0,0a.21.21,0,0,1,0,.06.46.46,0,0,1,0,.17.57.57,0,0,0,0,.17.11.11,0,0,0,0,.07H317V198H317l.07,0c0,.08,0,.14,0,.19l0,.18v.06a.18.18,0,0,0,0,.06c-.1,0-.14.06-.14.13s.06.12.15.11a.11.11,0,0,1-.1.08h0l0,0-.05,0h-.09a1,1,0,0,0,.05.24,1.08,1.08,0,0,0,.1.21.07.07,0,0,1,0,0h.06v.09H317l-.12,0a.53.53,0,0,1,0,.17l0,.12,0,.11a.4.4,0,0,0,0,.14h-.09l0,0h0a.09.09,0,0,0,0,.06l.05,0h-.08a.15.15,0,0,1-.09,0l-.07-.06-.07-.06-.09,0s0,.08,0,.11,0,.06,0,.08V200s0,.08,0,.14a.13.13,0,0,1,0,.07l0,0,0,0-.05,0a.19.19,0,0,0,0,.07l0,.1,0,.09a.07.07,0,0,1-.06,0v-.07h-.1l0,.06s0,0,0,.06l0,0h0l0,0,0,0h-.31l-.06.15s0,0,0,0h-.09s0,0,0-.09l-.14.07-.13,0a.38.38,0,0,1,0,.11.12.12,0,0,1-.08.09l-.13,0A.13.13,0,0,1,314.61,201Zm0-.24s0,0,0,0,0,0,0,0a0,0,0,0,0,0,0S314.63,200.72,314.61,200.72Zm.13-.07a.08.08,0,0,0,.06.07.12.12,0,0,0,.09,0v0h0l0,0,0,0a.16.16,0,0,1,0,0l0,0h0l-.06,0Zm0,.23a0,0,0,0,0,.06,0v-.08A.08.08,0,0,0,314.75,200.89Zm.08-5.41h0v0h0Zm.1,5a.55.55,0,0,0,0,.13c0,.05.05.08.09.08s0,0,0,0a.49.49,0,0,0,0-.09.75.75,0,0,1,0-.1s0-.05,0-.06h0l.08,0,.08,0,0,0a.3.3,0,0,0-.07-.18.18.18,0,0,0-.17,0,.23.23,0,0,0-.13.06A.14.14,0,0,0,314.92,200.51Zm0-4.36s0,0,0,0,0,0,0,0,0,0,0,0S315,196.14,315,196.14Zm0,1.13s0,0,0,0,0,0,0,0l0,0S315,197.29,315,197.28Zm.2,2.73-.07.06a.12.12,0,0,0,0,.09h.1l.07,0a.06.06,0,0,0,0,0,.15.15,0,0,0,0-.08s0-.07,0-.07h.16l.05-.06.05-.06h.05a.18.18,0,0,1,0,.1s0,0,0,.07a.06.06,0,0,0,0,0l.06,0h.11a.23.23,0,0,0,0-.14.18.18,0,0,1,0-.13s0-.06.06-.1l.17-.15.22-.2a1.74,1.74,0,0,0,.22-.23,1.22,1.22,0,0,0,.16-.27.62.62,0,0,0,.05-.3.13.13,0,0,0,0-.08l0,0,0,0,0,0s0-.07,0-.09l.06,0,.08,0a.06.06,0,0,0,0-.06.19.19,0,0,0-.08-.15.47.47,0,0,0-.17-.08l-.2,0H316a.1.1,0,0,0,0,.06.11.11,0,0,1,0,.07v0l0,0h0l-.1,0-.06,0-.05,0-.08-.08h-.12l-.14,0-.13,0a.15.15,0,0,0-.08.07.19.19,0,0,1,0,.07l-.05.1-.05.1a.21.21,0,0,0,0,.07s0,0,0,.07v.11s0,.08,0,.11v.07s0,.08,0,.16,0,.16,0,.24,0,.16,0,.23,0,.1,0,.11l0,0v0h0l0,0,0,0a0,0,0,0,0,0,0h0a.07.07,0,0,0,0,0,.2.2,0,0,0,0,.08s0,.06,0,.09a.24.24,0,0,1,0,.07.14.14,0,0,0,0,.07v.11a1,1,0,0,0,0,.12s0,.07,0,.08,0,.07,0,.08Zm-.13-2.73h0v0Zm0,1.3,0,0h0Zm0-2.3s0,0,0,0,0,0,0,0,0,0,0,0S315.12,196.28,315.1,196.28Zm.05,1.32s0,0,0,0,0,0,0,0,0,0,0,0A0,0,0,0,0,315.15,197.59Zm.25,2.89s0,0,0,0,0,0,0,0v0Zm.29-.13h.07v0l0,0h0Zm.12-3s0,0,0,0,0,0,0,0l0,0Zm0,2.46s0,0,0,0l0,0s0,0,0,0Zm0-2v0l0,0a.11.11,0,0,0,0-.07.17.17,0,0,0,0-.07l0,0A0,0,0,0,0,315.88,197.79Zm.1,2.36,0,0,0,0Zm.14.09h0v-.07h0Zm.23-.62a.94.94,0,0,0,.35,0v-.07l0-.11a.57.57,0,0,0,0-.1s0,0,0,0h0a.27.27,0,0,0-.05.09l0,.1h-.08a0,0,0,0,0,0,.06Zm.05-2a.08.08,0,0,0,0-.05.32.32,0,0,0,0-.06h-.05Zm.05.13s0,0,0,0h0l0-.06,0-.06v0h0l0,0h-.05l0,0,0,.05,0,0Zm.17,1.44a.07.07,0,0,0,0,0l.07.08a.13.13,0,0,0,.11,0,.17.17,0,0,0-.06-.13A.16.16,0,0,0,316.62,199.22Zm0-1.28s0,0,0,0,0,0,0,0,0,0,0,0S316.68,197.95,316.66,197.95Zm0-.28s0,0,0,0,0,0,0,0v0Zm.05.85c0,.07,0,.1.09.09h0A.12.12,0,0,0,316.72,198.52Z" transform="translate(-1.87 -4.71)"/><path class="cls-3" d="M323,220.08a.27.27,0,0,1,0-.06.29.29,0,0,0,0-.06,0,0,0,0,0,0,0h-.05l0,0s0,0,0,0l-.07.06-.07.06v-.09a.07.07,0,0,0-.05,0l0,.06,0,.06v0s0,0,0-.06a.14.14,0,0,1,0-.08.15.15,0,0,0,0-.09c0-.07,0-.11-.08-.11h0l0,0,0,0h-.15l0,0,0,0-.09,0,0,0h-.05l-.08,0-.08,0h-.11l0,0,0,0,0,0v0l0,0,0-.05v0s0-.05,0-.05a0,0,0,0,0,0,0,.51.51,0,0,0,0,.06s0,0,0-.06,0-.06,0-.07h-.1a0,0,0,0,1,0,0,.15.15,0,0,1,0-.06.13.13,0,0,0,0,0v0h0l-.06,0,0,0,0,0,0,0v-.1a.08.08,0,0,1,0-.06l0,0a.07.07,0,0,0,0,0v0h-.06l0,0,0,0h-.05l0,0a0,0,0,0,0,0,0s0,0,0,0h.08s0,0,0,0h-.16a.25.25,0,0,0,0-.11l0-.06,0,0a.06.06,0,0,1,0,0h0v0a0,0,0,0,0,0,0,0,0,0,0,1,0,0v0h0v0s0,0,0,0l0,0h0a.06.06,0,0,1,0-.06l.07,0,.08,0a.07.07,0,0,0,.05,0,0,0,0,0,0,0,0h0l0,0,0,0h0l0,0h0a0,0,0,0,1,0,0v0a.17.17,0,0,1,0-.09l.06-.08.06-.07a.1.1,0,0,0,0-.05.15.15,0,0,0,0-.09.14.14,0,0,1,0-.08.14.14,0,0,1,0-.1.22.22,0,0,0,.05-.12v-.1l0,0h0l0,0a.19.19,0,0,0,0-.07h0v.13l0,0,0,0,.08,0,.05,0h.06l-.07-.06a.14.14,0,0,0-.09,0v-.09h.08v0h0a.24.24,0,0,0,0,.08.13.13,0,0,0,.06.07h0v-.22l-.08,0-.06-.06h0l.06-.11a.13.13,0,0,1,.11,0h0l0,0v0s0,0,0,0l0-.09.05-.09s0,0,0,0v.36s0,0,0,0l0,0,0,0,0,0s0,0,0,0h.14v0h0s0,0,0,0,0,0,0,0l.08,0v-.2H322l.06,0,0,0h0l0,0,0-.05,0-.05,0,0s0,0,0,0l0,0h0a.16.16,0,0,0,0-.09.19.19,0,0,0,0-.08.24.24,0,0,1,0-.1h.14l0,0v0l.06,0,.07,0,.06,0h.15l.09,0s0,0,0,0l0,0,0,0h0a.13.13,0,0,0,.08,0l.06-.06,0-.06a.07.07,0,0,1,.05,0l0,0,0,.05.05.05,0,0h0l0,0v-.06H323s0,0,0,0,0,0,0,0h.08l.13.14h0l0,0v-.07h.15V217a.32.32,0,0,0,0,.07h0l0,0v-.27l0,0,.08.34.14-.12h0s0,0,0,0a.05.05,0,0,1-.06,0s0,0,.05,0h.11l0,0,0,.06h0a.1.1,0,0,1,0,.06l0,0h0l0,0,0,0,0,0h.05a0,0,0,0,0,0,0l0,0,0,0,0,0v.32s0,0,0,0h.07l0,0v0l0,0h0l-.1,0-.09,0a0,0,0,0,0,0,0,.45.45,0,0,0,0,0l-.09,0-.08-.06a0,0,0,0,0,0,0v-.09l0,0,0,0h0a.11.11,0,0,0-.08,0l-.07.07h0l0,0,0,0h-.12l0,0,0,0h0l0,0,0,.05,0,.06-.05,0H323l-.1,0h-.41l0,0h0s-.05,0-.05,0,0,0-.05,0h-.09l0,0,0,0a.24.24,0,0,0,0,.1l0,.09h0v0a.07.07,0,0,1,0,.06l-.05,0-.06,0h0v0a.07.07,0,0,0,0,0h0l-.06.11a.27.27,0,0,0,0,.11v.15a.34.34,0,0,1,0,.07l0,.1a.9.9,0,0,1,0,.13l-.16-.13h0v.11h0v.08a.11.11,0,0,0,0,.05l0,0h0l.07,0,.08,0h0l0,.12h0v.13h.06a.23.23,0,0,0,0,.08h0l.06,0,.06.08,0,0,0,0h.12l0,0,0,0h.1l.06,0h.53v.09a.07.07,0,0,0,.05-.07.11.11,0,0,1,.05-.09.66.66,0,0,1,.21-.07l.21,0,.05,0,0,0H324l.08,0,.07,0a.19.19,0,0,1,0,.07l0,.07h0l0,0,0,0a.11.11,0,0,0,0,0,.08.08,0,0,1,0,0,.12.12,0,0,1-.05.06l-.07,0h0l0,0,0,0v0a.08.08,0,0,0-.05-.07.06.06,0,0,0,0,0v0h-.25v0a.26.26,0,0,0,0,.06.06.06,0,0,0,0,0h0l0,0a.11.11,0,0,0,0,0s0,0,0,0a.08.08,0,0,1-.06,0s0,0,0,.09h0a.43.43,0,0,0,0-.07l0-.06-.05,0h0v.1h0l0,0-.05,0h-.07l-.06,0-.06,0h0l-.08,0Zm-1.93-1.33s0,0,0,0,0,0,0,0,0,0,0,0S321.06,218.75,321.05,218.75Zm0-.22s0,0,0,0,0,0,0,0h0S321.06,218.53,321.05,218.53Zm.14.23a0,0,0,0,0,0,0h0Zm.14.06s0,0,0,0h0l.05,0Zm0-1a.23.23,0,0,0,0,.07,0,0,0,0,0,0,0h0s0,0,0,0a.05.05,0,0,0,0-.06Zm0,.24h0v0h0Zm.07.93h0s0,0,0,0Zm.09-.44a.1.1,0,0,0-.07,0,.11.11,0,0,0,0,.07h.09s.06,0,.06-.06h0Zm-.07-.23,0,0v0s0,0,0,0Zm.07,1s0,0,0,0,0,0,0,0,0,0,0,0S321.52,219.32,321.52,219.32Zm0-1s0,0,0,0,0,0,0,0,0,0,0,0S321.58,218.28,321.56,218.28Zm0,.13h0v0h0Zm.05-1h0v0Zm.05.64v.07h0s0,0,0-.06,0-.05,0-.06h0a0,0,0,0,0,0,0h0Zm0-.17h0s0,0,0,0h0A0,0,0,0,0,321.68,217.83Zm0,.4v0l0,0,0,0,0,0,0,0h0l0,0v0a.06.06,0,0,0,.05,0,.13.13,0,0,0,0-.06.57.57,0,0,0,0-.14.1.1,0,0,0-.1-.08h-.08S321.67,218.21,321.67,218.24Zm.05,1.3h0Zm.09-1.89,0,0h0Zm.06.41v0a.06.06,0,0,0,0,0l0,0v0Zm.43-.7s.05,0,.05-.06h-.05Zm.11-.23s0,0,0,0h0Zm.14.05v.05s0,.07,0,.14,0,.12,0,.14h0l0-.11a.32.32,0,0,0,0-.13.54.54,0,0,0,0-.06S322.59,217.18,322.56,217.17Zm.07-.07a.15.15,0,0,0,.05.12.14.14,0,0,0,0-.08l.09.05s0,0,0,0a.21.21,0,0,0,0-.08s0,0-.05,0h-.09S322.63,217.07,322.63,217.11Zm0,.31h.05v-.07l.06,0,.06,0h0l0,0,0,0a.27.27,0,0,1-.07.09A.13.13,0,0,0,322.63,217.42Zm.05.13,0,0h0Zm.07-.15s0,0,0,0,0,0,0,0,0,0,0,0S322.76,217.39,322.75,217.39Zm0,.25v0h0Zm.1-.07a.07.07,0,0,0,0-.06h0Zm0-.44h0l0,0h0Zm0-.11s0,0,0,0,0,0,0,0h0Zm.14.07s0,0,0,0h0Zm0,2.93.09,0,.09,0v0l0-.06,0-.06,0,0h0v.06H323Zm0-2.57s0,0,0,0,0,0,0,0,0,0,0,0S323.07,217.46,323.06,217.46Zm.13-.42v0l0,0v0h0l0,.08a.59.59,0,0,0,0,.07h0v0l0,0h.17l-.06-.08-.05-.08h0Zm-.09.34a.13.13,0,0,0,0,.06l0,.06s0,0,0,0a.26.26,0,0,0,0-.07s0-.07,0-.08h-.05A0,0,0,0,0,323.1,217.39Zm.25,2.54s0,0,0,0,0,0,0,0a0,0,0,0,0,0,0A0,0,0,0,0,323.36,220Zm0-2.78h0l0,0Zm0-.17h0v-.05Zm.33,2.49,0,0,0,.06v0s0,0,0,0a.14.14,0,0,1,0-.07l0,0h0Zm.08-2.36s0,0,0,0,0,0,0,0,0,0,0,0S323.79,217.1,323.78,217.1Zm.05.26s-.05,0-.05.07h0A.1.1,0,0,0,323.83,217.36Zm0,.23h0Zm.12,1.77s0,0,0,0,0,0,0,0,0,0,0,0S324,219.36,324,219.36Z" transform="translate(-1.87 -4.71)"/><path class="cls-3" d="M320.74,217.07h-21l10.51-18.21Zm-20.07-.55h19.11L310.22,200Z" transform="translate(-1.87 -4.71)"/><path class="cls-3" d="M304.29,216.79h-.55a3.24,3.24,0,0,0-1.84-2.91l.24-.5A3.79,3.79,0,0,1,304.29,216.79Z" transform="translate(-1.87 -4.71)"/><path class="cls-3" d="M316.8,216.79h-.55a3.79,3.79,0,0,1,2.16-3.41l.24.5A3.24,3.24,0,0,0,316.8,216.79Z" transform="translate(-1.87 -4.71)"/><path class="cls-3" d="M310.22,202.89a3.47,3.47,0,0,1-1.74-.47l.28-.48a3,3,0,0,0,2.92,0l.28.48A3.47,3.47,0,0,1,310.22,202.89Z" transform="translate(-1.87 -4.71)"/><rect class="cls-12" x="279.98" y="117.29" width="56.77" height="56.77"/><path class="cls-13" d="M338.63,179H281.85a.22.22,0,0,1-.22-.22V122a.22.22,0,0,1,.22-.22h56.77a.22.22,0,0,1,.22.22v56.77A.22.22,0,0,1,338.63,179Zm-56.55-.44H338.4V122.22H282.07Z" transform="translate(-1.87 -4.71)"/><rect class="cls-14" x="279.99" y="117.29" width="56.77" height="56.77"/><path class="cls-15" d="M338.64,179H281.86a.22.22,0,0,1-.22-.22V122a.22.22,0,0,1,.22-.22h56.77a.22.22,0,0,1,.22.22v56.77A.22.22,0,0,1,338.64,179Zm-56.55-.44h56.33V122.22H282.08Z" transform="translate(-1.87 -4.71)"/><polygon class="cls-16" points="336.75 174.05 327.24 164.54 327.24 126.8 289.49 126.8 279.98 117.28 336.75 117.28 336.75 174.05"/><polygon class="cls-15" points="336.75 174.05 327.24 164.54 289.49 164.54 289.49 126.8 279.98 117.28 279.98 174.05 336.75 174.05"/><path class="cls-15" d="M338.64,179H281.86a.22.22,0,0,1-.22-.22V122a.22.22,0,0,1,.22-.22h56.77a.22.22,0,0,1,.22.22v56.77A.22.22,0,0,1,338.64,179Zm-56.55-.44h56.33V122.22H282.08Z" transform="translate(-1.87 -4.71)"/><path class="cls-3" d="M299.26,162.73h-.12l-.15,0-.14-.07a.25.25,0,0,1-.09-.09v0a.39.39,0,0,0-.06-.16l-.08-.09-.08-.07a.18.18,0,0,1-.06-.08.06.06,0,0,1,0,0,.37.37,0,0,0,0,0,0,0,0,0,0,0,0h-.05l0,0,0,0a.24.24,0,0,1-.05.08l-.08.08-.08.08a.13.13,0,0,0,0,.09v0l0,0h.06v0h0s0,0,0,0h-.06s0,0,0,0l0,0,0,0H298s0-.05,0,0h-.07a.14.14,0,0,1-.08.06l-.1,0-.09,0a.08.08,0,0,0,0,.07h-.35s0,0,0,0h0a.65.65,0,0,1-.29-.07.24.24,0,0,1-.14-.24s0-.08,0-.11a.27.27,0,0,1,0-.11l0,0h-.09l0,0a.09.09,0,0,1,0,0v.08a.12.12,0,0,1-.11,0,.31.31,0,0,1-.05-.11.59.59,0,0,1,0-.14.45.45,0,0,0,0-.12v0l0-.06,0-.06,0,0,0-.07,0-.1,0-.1a.39.39,0,0,1,0-.07l0,0,0,0h0a.19.19,0,0,0,0-.08.15.15,0,0,1,0-.07.2.2,0,0,1,0-.08.06.06,0,0,1,.06,0h0l0,0v0l.06,0a.1.1,0,0,0-.06-.05l-.07,0-.06,0a.06.06,0,0,1,0-.06,0,0,0,0,1,0,0h.09s0,0,0,0h.19v-.06l-.16-.07v0a.3.3,0,0,1,0-.18.21.21,0,0,1,.09-.07l.1,0a.08.08,0,0,0,.07,0h0l0,0h0a.09.09,0,0,1,0-.08l.08,0,.09,0,.07,0a.14.14,0,0,0,0,0,.13.13,0,0,0,0,0l.05,0,0,0V160l-.06-.09v0h0l0,0,0,0h0l0,0v0h.25v0l0,0a.17.17,0,0,0,.13,0l.08-.09.09-.09a.23.23,0,0,1,.15,0l.09,0,.15.11.16.12.11.08a.18.18,0,0,1,.06.06l0,.1,0,.11a.19.19,0,0,1,0,.08.09.09,0,0,1,.06,0l0,.06,0,.06a.07.07,0,0,0,.06,0,.11.11,0,0,0,0,.06l0,.09,0,.09a.19.19,0,0,1,0,.06v0h0v0l-.11,0-.11,0,0,.08s0,.07,0,.07h.24s0,0,0,0l0,.06,0,.06a.06.06,0,0,0,0,0l.06.22s0,.05.06,0,0,0,.05.05l0,.05s0,0,0,.06a.08.08,0,0,0,0,.05l.05,0,0,0a.05.05,0,0,1,0,0l0,.14,0,0,.06,0,.07,0,0,0h0v0l0,.11a.2.2,0,0,0,0,.08l.07,0,.14.06.15.07.11.07s-.06,0-.07,0a.13.13,0,0,0,0,.06v.07a.08.08,0,0,1,0,.07.2.2,0,0,1-.1,0l-.24,0-.06,0,0,0,0-.05Zm-2.41-.94a.32.32,0,0,1,.06.12.18.18,0,0,0,.07.1l.1,0,.07,0h.23l0,0,0,0,.08,0,.08,0,.08,0a.29.29,0,0,0,.13-.15l.09-.19a.07.07,0,0,1,.06,0l.07,0h0l0,0,0,0,0,0,0,0a2.48,2.48,0,0,0,.09-.4,2.66,2.66,0,0,0,0-.39.2.2,0,0,0-.14-.21l-.14,0h-.15l-.09,0-.15.09-.14.09-.07,0v.06l0,.06h-.06l-.12.12h0s0,0,0,0,0,0,0,.06,0,.06,0,.08v.06l0,.07,0,.1a.26.26,0,0,1-.08.13l-.1.06-.09,0s0,0,0,0a.09.09,0,0,0,0,.08l.08,0h.08a.06.06,0,0,1,.05,0l-.06.05Zm.38.4s0,0,0,0,0,0,0,0h0Zm.06-.06s0,0,0,0,0,0,0,0,0,0,0,0S297.31,162.13,297.29,162.13Zm0-1.73h0v0h0Zm.25,1.73,0,0a.07.07,0,0,0,0-.06h-.08Zm.31-2.36s0,0,0,0h0Zm0,2.27h0v0h0Zm0,.09s0,0,0,0,0,0,0,0,0,0,0,0S297.9,162.13,297.88,162.13Zm.06-.47a0,0,0,0,0,0,0h.1l0-.12-.06,0A.05.05,0,0,0,297.95,161.66Zm0-1.87s0,0,0,0,0,0,0,0,0,0,0,0S298,159.79,298,159.79Zm.35,2.16h.06v-.07h-.06Z" transform="translate(-1.87 -4.71)"/><path class="cls-3" d="M314.61,143.73v0l0,0a.31.31,0,0,1-.14-.17.7.7,0,0,1-.06-.22.31.31,0,0,1,0-.16.37.37,0,0,0,0-.16.83.83,0,0,0,0-.14.56.56,0,0,1,0-.14.53.53,0,0,1,0-.22.59.59,0,0,0,0-.22s0-.05,0-.06,0,0,0-.07,0-.08,0-.13l0-.14,0-.14s0-.08,0-.11v0l0-.07,0-.07,0,0h0l0-.06,0-.12a1.42,1.42,0,0,0,0-.15.48.48,0,0,0,0-.15q0-.3-.06-.59t-.06-.6s0-.07,0-.13v-.31s0-.07,0-.08V139c.05,0,.09,0,.09,0a.18.18,0,0,0,0-.07.08.08,0,0,1,0,0v0a.28.28,0,0,0,0-.06l0-.09,0-.09v-.05a0,0,0,0,1,0,0h0a2.05,2.05,0,0,1-.07-.24.4.4,0,0,1,0-.19.12.12,0,0,1,.1-.09.53.53,0,0,1,.25,0,.09.09,0,0,0,0-.06.37.37,0,0,0,0-.07.19.19,0,0,1,0-.06,0,0,0,0,1,0,0l0,0,.06,0,.05.05,0,0a1.36,1.36,0,0,1,.09.2,1.14,1.14,0,0,1,.06.38q0,.11,0,.23l0,.09,0,.08v0a.08.08,0,0,1,0,0l-.05,0,0,.32-.09-.06,0,0a.23.23,0,0,0,0,0v0h0l0,0h0a.53.53,0,0,1,.06.14l0,.15a.25.25,0,0,0,.07.11.19.19,0,0,0,.15,0h.2s0,0,0,0l0,.1h0s0,0,.05,0l0-.07a.09.09,0,0,0,.08.06H316a.24.24,0,0,0,.14-.06.26.26,0,0,1,.16-.06h.14q.08.05.08.09a.48.48,0,0,0,0,.13s0,0,0,0h.06l0,0,.07.09.08.1.08.07,0,0a.21.21,0,0,1,0,.06.46.46,0,0,1,0,.17.57.57,0,0,0,0,.17.11.11,0,0,0,0,.07H317v-.17H317l.07,0c0,.08,0,.14,0,.19l0,.18v.06a.18.18,0,0,0,0,.06c-.1,0-.14.06-.14.13s.06.12.15.11a.11.11,0,0,1-.1.08h0l0,0-.05,0h-.09a1,1,0,0,0,.05.24,1.08,1.08,0,0,0,.1.21.07.07,0,0,1,0,0h.06V142H317l-.12,0a.53.53,0,0,1,0,.17l0,.12,0,.11a.4.4,0,0,0,0,.14h-.09l0,0h0a.09.09,0,0,0,0,.06l.05,0h-.08a.15.15,0,0,1-.09,0l-.07-.06-.07-.06-.09,0s0,.08,0,.11,0,.06,0,.08v.09s0,.08,0,.14a.13.13,0,0,1,0,.07l0,0,0,0-.05,0a.19.19,0,0,0,0,.07l0,.1,0,.09a.07.07,0,0,1-.06,0v-.07h-.1l0,.06s0,0,0,.06l0,0h0l0,0,0,0h-.31l-.06.15s0,0,0,0h-.09s0,0,0-.09l-.14.07-.13,0a.38.38,0,0,1,0,.11.12.12,0,0,1-.08.09l-.13,0A.13.13,0,0,1,314.61,143.73Zm0-.24s0,0,0,0,0,0,0,0a0,0,0,0,0,0,0S314.63,143.49,314.61,143.49Zm.13-.07a.08.08,0,0,0,.06.07.12.12,0,0,0,.09,0v0h0l0,0,0,0a.16.16,0,0,1,0,0l0,0h0l-.06,0Zm0,.23a0,0,0,0,0,.06,0v-.08A.08.08,0,0,0,314.75,143.66Zm.08-5.41h0v0h0Zm.1,5a.55.55,0,0,0,0,.13c0,.05.05.08.09.08s0,0,0,0a.49.49,0,0,0,0-.09.75.75,0,0,1,0-.1s0-.05,0-.06h0l.08,0,.08,0,0,0a.3.3,0,0,0-.07-.18.18.18,0,0,0-.17,0,.23.23,0,0,0-.13.06A.14.14,0,0,0,314.92,143.28Zm0-4.36s0,0,0,0,0,0,0,0,0,0,0,0S315,138.92,315,138.92Zm0,1.13s0,0,0,0,0,0,0,0l0,0S315,140.06,315,140Zm.2,2.73-.07.06a.12.12,0,0,0,0,.09h.1l.07,0a.06.06,0,0,0,0,0,.15.15,0,0,0,0-.08s0-.07,0-.07h.16l.05-.06.05-.06h.05a.18.18,0,0,1,0,.1s0,0,0,.07a.06.06,0,0,0,0,0l.06,0h.11a.23.23,0,0,0,0-.14.18.18,0,0,1,0-.13s0-.06.06-.1l.17-.15.22-.2a1.74,1.74,0,0,0,.22-.23,1.22,1.22,0,0,0,.16-.27.62.62,0,0,0,.05-.3.13.13,0,0,0,0-.08l0,0,0,0,0,0s0-.07,0-.09l.06,0,.08,0a.06.06,0,0,0,0-.06.19.19,0,0,0-.08-.15.47.47,0,0,0-.17-.08l-.2,0H316a.1.1,0,0,0,0,.06.11.11,0,0,1,0,.07v0l0,0h0l-.1,0-.06,0-.05,0-.08-.08h-.12l-.14,0-.13,0a.15.15,0,0,0-.08.07.19.19,0,0,1,0,.07l-.05.1-.05.1a.21.21,0,0,0,0,.07s0,0,0,.07v.11s0,.08,0,.11v.07s0,.08,0,.16,0,.16,0,.24,0,.16,0,.23,0,.1,0,.11l0,0v0h0l0,0,0,0a0,0,0,0,0,0,0h0a.07.07,0,0,0,0,0,.2.2,0,0,0,0,.08s0,.06,0,.09a.24.24,0,0,1,0,.07.14.14,0,0,0,0,.07v.11a1,1,0,0,0,0,.12s0,.07,0,.08,0,.07,0,.08Zm-.13-2.73h0v0Zm0,1.3,0,0h0Zm0-2.3s0,0,0,0,0,0,0,0,0,0,0,0S315.12,139,315.1,139Zm.05,1.32s0,0,0,0,0,0,0,0,0,0,0,0A0,0,0,0,0,315.15,140.37Zm.25,2.89s0,0,0,0,0,0,0,0v0Zm.29-.13h.07v0l0,0h0Zm.12-3s0,0,0,0,0,0,0,0l0,0Zm0,2.46s0,0,0,0l0,0s0,0,0,0Zm0-2v0l0,0a.11.11,0,0,0,0-.07.17.17,0,0,0,0-.07l0,0A0,0,0,0,0,315.88,140.57Zm.1,2.36,0,0,0,0Zm.14.09h0V143h0Zm.23-.62a.94.94,0,0,0,.35,0v-.07l0-.11a.57.57,0,0,0,0-.1s0,0,0,0h0a.27.27,0,0,0-.05.09l0,.1h-.08a0,0,0,0,0,0,.06Zm.05-2a.08.08,0,0,0,0-.05.32.32,0,0,0,0-.06h-.05Zm.05.13s0,0,0,0h0l0-.06,0-.06v0h0l0,0h-.05l0,0,0,.05,0,0Zm.17,1.44a.07.07,0,0,0,0,0l.07.08a.13.13,0,0,0,.11,0,.17.17,0,0,0-.06-.13A.16.16,0,0,0,316.62,142Zm0-1.28s0,0,0,0,0,0,0,0,0,0,0,0S316.68,140.72,316.66,140.72Zm0-.28s0,0,0,0,0,0,0,0v0Zm.05.85c0,.07,0,.1.09.09h0A.12.12,0,0,0,316.72,141.29Z" transform="translate(-1.87 -4.71)"/><path class="cls-3" d="M323,162.85a.27.27,0,0,1,0-.06.29.29,0,0,0,0-.06,0,0,0,0,0,0,0h-.05l0,0s0,0,0,0l-.07.06-.07.06v-.09a.07.07,0,0,0-.05,0l0,.06,0,.06v0s0,0,0-.06a.14.14,0,0,1,0-.08.15.15,0,0,0,0-.09c0-.07,0-.11-.08-.11h0l0,0,0,0h-.15l0,0,0,0-.09,0,0,0h-.05l-.08,0-.08,0h-.11l0,0,0,0,0,0v0l0,0,0-.05v0s0-.05,0-.05a0,0,0,0,0,0,0,.51.51,0,0,0,0,.06s0,0,0-.06,0-.06,0-.07h-.1a0,0,0,0,1,0,0,.15.15,0,0,1,0-.06.13.13,0,0,0,0,0v0h0l-.06,0,0,0,0,0,0,0v-.1a.08.08,0,0,1,0-.06l0,0a.07.07,0,0,0,0,0v0h-.06l0,0,0,0h-.05l0,0a0,0,0,0,0,0,0s0,0,0,0h.08s0,0,0,0h-.16a.25.25,0,0,0,0-.11l0-.06,0,0a.06.06,0,0,1,0,0h0v0a0,0,0,0,0,0,0,0,0,0,0,1,0,0v0h0v0s0,0,0,0l0,0h0a.06.06,0,0,1,0-.06l.07,0,.08,0a.07.07,0,0,0,.05,0,0,0,0,0,0,0,0h0l0,0,0,0h0l0,0h0a0,0,0,0,1,0,0v0a.17.17,0,0,1,0-.09l.06-.08.06-.07a.1.1,0,0,0,0-.05.15.15,0,0,0,0-.09.14.14,0,0,1,0-.08.14.14,0,0,1,0-.1.22.22,0,0,0,.05-.12v-.1l0,0h0l0,0a.19.19,0,0,0,0-.07h0v.13l0,0,0,0,.08,0,.05,0h.06l-.07-.06a.14.14,0,0,0-.09,0v-.09h.08v0h0a.24.24,0,0,0,0,.08.13.13,0,0,0,.06.07h0v-.22l-.08,0-.06-.06h0l.06-.11a.13.13,0,0,1,.11,0h0l0,0v0s0,0,0,0l0-.09.05-.09s0,0,0,0v.36s0,0,0,0l0,0,0,0,0,0s0,0,0,0h.14v0h0s0,0,0,0,0,0,0,0l.08,0v-.2H322l.06,0,0,0h0l0,0,0-.05,0-.05,0,0s0,0,0,0l0,0h0a.16.16,0,0,0,0-.09.19.19,0,0,0,0-.08.24.24,0,0,1,0-.1h.14l0,0v0l.06,0,.07,0,.06,0h.15l.09,0s0,0,0,0l0,0,0,0h0a.13.13,0,0,0,.08,0l.06-.06,0-.06a.07.07,0,0,1,.05,0l0,0,0,.05.05.05,0,0h0l0,0v-.06H323s0,0,0,0,0,0,0,0h.08l.13.14h0l0,0v-.07h.15v.07a.32.32,0,0,0,0,.07h0l0,0v-.27l0,0,.08.34.14-.12h0s0,0,0,0a.05.05,0,0,1-.06,0s0,0,.05,0h.11l0,0,0,.06h0a.1.1,0,0,1,0,.06l0,0h0l0,0,0,0,0,0h.05a0,0,0,0,0,0,0l0,0,0,0,0,0v.32s0,0,0,0h.07l0,0v0l0,0h0l-.1,0-.09,0a0,0,0,0,0,0,0,.45.45,0,0,0,0,0l-.09,0-.08-.06a0,0,0,0,0,0,0v-.09l0,0,0,0h0a.11.11,0,0,0-.08,0l-.07.07h0l0,0,0,0h-.12l0,0,0,0h0l0,0,0,.05,0,.06-.05,0H323l-.1,0h-.41l0,0h0s-.05,0-.05,0,0,0-.05,0h-.09l0,0,0,0a.24.24,0,0,0,0,.1l0,.09h0v0a.07.07,0,0,1,0,.06l-.05,0-.06,0h0v0a.07.07,0,0,0,0,0h0l-.06.11a.27.27,0,0,0,0,.11v.15a.34.34,0,0,1,0,.07l0,.1a.9.9,0,0,1,0,.13l-.16-.13h0v.11h0v.08a.11.11,0,0,0,0,.05l0,0h0l.07,0,.08,0h0l0,.12h0v.13h.06a.23.23,0,0,0,0,.08h0l.06,0,.06.08,0,0,0,0h.12l0,0,0,0h.1l.06,0h.53v.09a.07.07,0,0,0,.05-.07.11.11,0,0,1,.05-.09.66.66,0,0,1,.21-.07l.21,0,.05,0,0,0H324l.08,0,.07,0a.19.19,0,0,1,0,.07l0,.07h0l0,0,0,0a.11.11,0,0,0,0,0,.08.08,0,0,1,0,0,.12.12,0,0,1-.05.06l-.07,0h0l0,0,0,0v0a.08.08,0,0,0-.05-.07.06.06,0,0,0,0,0v0h-.25v0a.26.26,0,0,0,0,.06.06.06,0,0,0,0,0h0l0,0a.11.11,0,0,0,0,0s0,0,0,0a.08.08,0,0,1-.06,0s0,0,0,.09h0a.43.43,0,0,0,0-.07l0-.06-.05,0h0v.1h0l0,0-.05,0h-.07l-.06,0-.06,0h0l-.08,0Zm-1.93-1.33s0,0,0,0,0,0,0,0,0,0,0,0S321.06,161.52,321.05,161.52Zm0-.22s0,0,0,0,0,0,0,0h0S321.06,161.3,321.05,161.3Zm.14.23a0,0,0,0,0,0,0h0Zm.14.06s0,0,0,0h0l.05,0Zm0-1a.23.23,0,0,0,0,.07,0,0,0,0,0,0,0h0s0,0,0,0a.05.05,0,0,0,0-.06Zm0,.24h0v0h0Zm.07.93h0s0,0,0,0Zm.09-.44a.1.1,0,0,0-.07,0,.11.11,0,0,0,0,.07h.09s.06,0,.06-.06h0Zm-.07-.23,0,0v0s0,0,0,0Zm.07,1s0,0,0,0,0,0,0,0,0,0,0,0S321.52,162.09,321.52,162.09Zm0-1s0,0,0,0,0,0,0,0,0,0,0,0S321.58,161,321.56,161Zm0,.13h0v0h0Zm.05-1h0v0Zm.05.64v.07h0s0,0,0-.06,0-.05,0-.06h0a0,0,0,0,0,0,0h0Zm0-.17h0s0,0,0,0h0A0,0,0,0,0,321.68,160.61Zm0,.4v0l0,0,0,0,0,0,0,0h0l0,0v0a.06.06,0,0,0,.05,0,.13.13,0,0,0,0-.06.57.57,0,0,0,0-.14.1.1,0,0,0-.1-.08h-.08S321.67,161,321.67,161Zm.05,1.3h0Zm.09-1.89,0,0h0Zm.06.41v0a.06.06,0,0,0,0,0l0,0v0Zm.43-.7s.05,0,.05-.06h-.05Zm.11-.23s0,0,0,0h0Zm.14.05V160s0,.07,0,.14,0,.12,0,.14h0l0-.11a.32.32,0,0,0,0-.13.54.54,0,0,0,0-.06S322.59,160,322.56,159.94Zm.07-.07a.15.15,0,0,0,.05.12.14.14,0,0,0,0-.08l.09.05s0,0,0,0a.21.21,0,0,0,0-.08s0,0-.05,0h-.09S322.63,159.84,322.63,159.88Zm0,.31h.05v-.07l.06,0,.06,0h0l0,0,0,0a.27.27,0,0,1-.07.09A.13.13,0,0,0,322.63,160.19Zm.05.13,0,0h0Zm.07-.15s0,0,0,0,0,0,0,0,0,0,0,0S322.76,160.16,322.75,160.16Zm0,.25v0h0Zm.1-.07a.07.07,0,0,0,0-.06h0Zm0-.44h0l0,0h0Zm0-.11s0,0,0,0,0,0,0,0h0Zm.14.07s0,0,0,0h0Zm0,2.93.09,0,.09,0v0l0-.06,0-.06,0,0h0v.06H323Zm0-2.57s0,0,0,0,0,0,0,0,0,0,0,0S323.07,160.24,323.06,160.24Zm.13-.42v0l0,0v0h0l0,.08a.59.59,0,0,0,0,.07h0v0l0,0h.17l-.06-.08-.05-.08h0Zm-.09.34a.13.13,0,0,0,0,.06l0,.06s0,0,0,0a.26.26,0,0,0,0-.07s0-.07,0-.08h-.05A0,0,0,0,0,323.1,160.16Zm.25,2.54s0,0,0,0,0,0,0,0a0,0,0,0,0,0,0A0,0,0,0,0,323.36,162.74Zm0-2.78h0l0,0Zm0-.17h0v-.05Zm.33,2.49,0,0,0,.06v0s0,0,0,0a.14.14,0,0,1,0-.07l0,0h0Zm.08-2.36s0,0,0,0,0,0,0,0,0,0,0,0S323.79,159.87,323.78,159.87Zm.05.26s-.05,0-.05.07h0A.1.1,0,0,0,323.83,160.14Zm0,.23h0Zm.12,1.77s0,0,0,0,0,0,0,0,0,0,0,0S324,162.13,324,162.13Z" transform="translate(-1.87 -4.71)"/><path class="cls-3" d="M320.74,159.84h-21l10.51-18.21Zm-20.07-.55h19.11l-9.55-16.55Z" transform="translate(-1.87 -4.71)"/><path class="cls-3" d="M304.29,159.57h-.55a3.24,3.24,0,0,0-1.84-2.91l.24-.5A3.79,3.79,0,0,1,304.29,159.57Z" transform="translate(-1.87 -4.71)"/><path class="cls-3" d="M316.8,159.57h-.55a3.79,3.79,0,0,1,2.16-3.41l.24.5A3.24,3.24,0,0,0,316.8,159.57Z" transform="translate(-1.87 -4.71)"/><path class="cls-3" d="M310.22,145.66a3.48,3.48,0,0,1-1.74-.47l.28-.48a3,3,0,0,0,2.92,0l.28.48A3.47,3.47,0,0,1,310.22,145.66Z" transform="translate(-1.87 -4.71)"/><rect class="cls-12" x="108.39" y="231.74" width="56.77" height="56.77"/><path class="cls-13" d="M167,293.45H110.26a.22.22,0,0,1-.22-.22V236.45a.22.22,0,0,1,.22-.22H167a.22.22,0,0,1,.22.22v56.77A.22.22,0,0,1,167,293.45ZM110.48,293h56.33V236.67H110.48Z" transform="translate(-1.87 -4.71)"/><rect class="cls-17" x="108.39" y="231.75" width="56.77" height="56.77"/><polygon class="cls-18" points="165.16 288.52 155.65 279 155.65 241.25 117.9 241.25 108.39 231.74 165.16 231.74 165.16 288.52"/><polygon class="cls-19" points="165.16 288.52 155.65 279 117.9 279 117.9 241.25 108.39 231.74 108.39 288.52 165.16 288.52"/><path class="cls-20" d="M167,293.46H110.26a.22.22,0,0,1-.22-.22V236.46a.22.22,0,0,1,.22-.22H167a.22.22,0,0,1,.22.22v56.77A.22.22,0,0,1,167,293.46ZM110.48,293h56.33V236.68H110.48Z" transform="translate(-1.87 -4.71)"/><path class="cls-21" d="M139.28,276.38a1.45,1.45,0,0,1-1.11-.54,1.27,1.27,0,0,1-.13-1.44l.49.26a.71.71,0,0,0,.07.83.87.87,0,0,0,.89.3c.4-.12.67-.58.74-1.29a46.61,46.61,0,0,0,0-5.22h-.36A4.07,4.07,0,0,1,136,264.2a9.22,9.22,0,0,1,2.29-3.54c.43-.49.85-1,1.21-1.44,0-.37-.09-.69-.14-1l0-.25c-.34-1.88-.64-4.16.15-5.05a1.19,1.19,0,0,1,1.93.26c.69,1.32-.3,4.5-1,5.73-.09.14-.18.28-.28.42.11.92.22,2.1.32,3.39a2.78,2.78,0,0,1,3.05,1.42,3.35,3.35,0,0,1-.24,3.32,3.93,3.93,0,0,1-2.44,1.69,47.81,47.81,0,0,1,0,5.36c-.14,1.28-.77,1.65-1.13,1.76A1.27,1.27,0,0,1,139.28,276.38Zm.32-16.37c-.28.35-.59.69-.88,1a8.83,8.83,0,0,0-2.17,3.31,3.52,3.52,0,0,0,3.34,4.39h.32c-.07-1.7-.18-3.54-.3-5.22a2,2,0,0,0-.8,2.58l-.53.17a2.45,2.45,0,0,1,1.28-3.34C139.79,261.84,139.7,260.85,139.61,260Zm.85,3.31c.13,1.71.24,3.57.31,5.32a3.36,3.36,0,0,0,2-1.43,2.81,2.81,0,0,0,.2-2.79A2.26,2.26,0,0,0,140.46,263.32Zm-.12-10.18a.56.56,0,0,0-.45.2c-.71.8-.19,3.65,0,4.58l0,.25.06.35c.66-1.2,1.48-4,.95-5a.59.59,0,0,0-.53-.34Z" transform="translate(-1.87 -4.71)"/><rect class="cls-22" x="222.77" y="231.75" width="56.77" height="56.77"/><polygon class="cls-23" points="279.55 288.52 270.03 279 270.03 241.25 232.28 241.25 222.77 231.74 279.55 231.74 279.55 288.52"/><polygon class="cls-24" points="279.55 288.52 270.03 279 232.28 279 232.28 241.25 222.77 231.74 222.77 288.52 279.55 288.52"/><path class="cls-24" d="M281.42,293.46H224.64a.22.22,0,0,1-.22-.22V236.46a.22.22,0,0,1,.22-.22h56.77a.22.22,0,0,1,.22.22v56.77A.22.22,0,0,1,281.42,293.46ZM224.87,293H281.2V236.68H224.87Z" transform="translate(-1.87 -4.71)"/><path class="cls-3" d="M251,276.87l-.55-.09a4.23,4.23,0,0,1,2.07-2.8,3.71,3.71,0,0,0,2-2.93c.09-1.43-.7-2.49-1.54-3.6-1-1.28-1.94-2.59-1.7-4.55a7.74,7.74,0,0,1,1.72-3.82,4.65,4.65,0,0,0,1.26-3.48,3.6,3.6,0,0,0-1.86-2.73,5.49,5.49,0,0,1-1.28-1.17l.45-.32a5,5,0,0,0,1.16,1,4.15,4.15,0,0,1,2.08,3.12,5.16,5.16,0,0,1-1.36,3.86,7.19,7.19,0,0,0-1.61,3.57c-.22,1.74.66,2.91,1.59,4.15s1.75,2.34,1.65,4a4.26,4.26,0,0,1-2.17,3.34A3.74,3.74,0,0,0,251,276.87Z" transform="translate(-1.87 -4.71)"/><path class="cls-3" d="M254.62,276.88a7.23,7.23,0,0,0-1.71-2c-1.12-1-2.27-2.13-2.32-3.93-.05-1.65,1.2-2.93,2.41-4.17s2.52-2.57,2.36-4.25-1.24-2.45-2.3-3.29-2.33-1.84-2.1-3.62,1.53-2.55,2.67-3.25a10.68,10.68,0,0,0,1.11-.75l.35.43a11.1,11.1,0,0,1-1.16.79c-1.09.67-2.21,1.37-2.41,2.85s.77,2.23,1.89,3.11,2.35,1.85,2.51,3.67-1.2,3.33-2.52,4.68-2.3,2.35-2.25,3.76c0,1.57,1.07,2.53,2.15,3.54a7.75,7.75,0,0,1,1.84,2.19Z" transform="translate(-1.87 -4.71)"/><line class="cls-3" x1="250.23" y1="266.8" x2="251.52" y2="266.74"/><path class="cls-21" d="M252.1,271.78a.28.28,0,0,1,0-.55l1.29-.06a.27.27,0,0,1,.29.26.28.28,0,0,1-.26.29l-1.29.06Z" transform="translate(-1.87 -4.71)"/><path class="cls-3" d="M252.16,270.57a.28.28,0,0,1,0-.55l1.29-.07a.28.28,0,1,1,0,.55l-1.29.07Z" transform="translate(-1.87 -4.71)"/><line class="cls-3" x1="250.85" y1="259.16" x2="252.31" y2="259.09"/><path class="cls-21" d="M252.72,264.14a.28.28,0,0,1,0-.55l1.47-.07a.27.27,0,0,1,.29.26.28.28,0,0,1-.26.29l-1.47.07Z" transform="translate(-1.87 -4.71)"/><path class="cls-3" d="M253.17,262.91a.28.28,0,0,1,0-.55l1.08-.06a.28.28,0,1,1,0,.55l-1.08.06Z" transform="translate(-1.87 -4.71)"/><line class="cls-3" x1="250.18" y1="251.88" x2="251.48" y2="251.82"/><path class="cls-21" d="M252.06,256.87a.28.28,0,0,1,0-.55l1.29-.07a.27.27,0,0,1,.29.26.28.28,0,0,1-.26.29l-1.29.07Z" transform="translate(-1.87 -4.71)"/><path class="cls-3" d="M252.42,255.63a.28.28,0,0,1,0-.55l.79,0a.27.27,0,0,1,.29.26.28.28,0,0,1-.26.29l-.79,0Z" transform="translate(-1.87 -4.71)"/><rect class="cls-12" x="222.77" y="117.29" width="56.77" height="56.77"/><path class="cls-13" d="M281.42,179H224.64a.22.22,0,0,1-.22-.22V122a.22.22,0,0,1,.22-.22h56.77a.22.22,0,0,1,.22.22v56.77A.22.22,0,0,1,281.42,179Zm-56.55-.44H281.2V122.22H224.87Z" transform="translate(-1.87 -4.71)"/><rect class="cls-25" x="222.78" y="117.29" width="56.77" height="56.77"/><polygon class="cls-23" points="279.55 174.05 270.03 164.54 270.03 126.8 232.28 126.8 222.77 117.28 279.55 117.28 279.55 174.05"/><polygon class="cls-26" points="279.55 174.05 270.03 164.54 232.28 164.54 232.28 126.8 222.77 117.28 222.77 174.05 279.55 174.05"/><path class="cls-26" d="M281.43,179H224.65a.22.22,0,0,1-.22-.22V122a.22.22,0,0,1,.22-.22h56.77a.22.22,0,0,1,.22.22v56.77A.22.22,0,0,1,281.43,179Zm-56.55-.44h56.33V122.22H224.88Z" transform="translate(-1.87 -4.71)"/><path class="cls-3" d="M257.49,157.92h0l-8.92-.05a2,2,0,0,1-1.08-.3,2.09,2.09,0,0,1-.71-2.86l3.87-6.49a2.67,2.67,0,0,0,.38-1.35l0-5.17a.14.14,0,0,0-.13-.14.69.69,0,0,1-.69-.69v-.2a.68.68,0,0,1,.2-.49.67.67,0,0,1,.49-.2l4.4,0a.69.69,0,0,1,.69.69v.2a.7.7,0,0,1-.69.69l-.1,0a.13.13,0,0,0,0,.1l0,5.19a2.67,2.67,0,0,0,.36,1.35l3.79,6.54a2.09,2.09,0,0,1-1.81,3.13Zm-8.92-.61h0l8.92.05h0a1.53,1.53,0,0,0,1.33-2.3L255,148.54a3.23,3.23,0,0,1-.43-1.63l0-5.19a.69.69,0,0,1,.69-.69h0a.14.14,0,0,0,.14-.13v-.2a.14.14,0,0,0-.13-.14l-4.4,0h0a.14.14,0,0,0-.14.13v.2a.14.14,0,0,0,.13.14.69.69,0,0,1,.69.69l0,5.17a3.22,3.22,0,0,1-.45,1.63L247.26,155a1.53,1.53,0,0,0,1.31,2.33Z" transform="translate(-1.87 -4.71)"/><path class="cls-12" d="M248.78,155.23l2.32-3.9a.48.48,0,0,1,.41-.23l3.12,0a.48.48,0,0,1,.41.23l2.26,3.93a.48.48,0,0,1-.42.72l-7.7,0a.48.48,0,0,1-.41-.73Z" transform="translate(-1.87 -4.71)"/><path class="cls-13" d="M256.9,156.28h0l-7.7,0a.75.75,0,0,1-.64-1.15l2.32-3.9a.79.79,0,0,1,.65-.36l3.12,0h0a.76.76,0,0,1,.65.37l2.27,3.93a.75.75,0,0,1-.65,1.14Zm-5.39-4.9a.2.2,0,0,0-.17.1l-2.32,3.9h0a.2.2,0,0,0,.17.31l7.7,0a.16.16,0,0,0,.11,0,.2.2,0,0,0,.07-.28l-2.27-3.93a.2.2,0,0,0-.17-.1h0l-3.12,0Zm-2.73,3.85h0Z" transform="translate(-1.87 -4.71)"/><path class="cls-3" d="M256.36,154.94a.55.55,0,0,1-.48-.28l-2.47-4.26a.55.55,0,0,1,1-.56l2.47,4.26a.55.55,0,0,1-.48.83Z" transform="translate(-1.87 -4.71)"/><rect class="cls-12" x="222.77" y="174.52" width="56.77" height="56.77"/><path class="cls-13" d="M281.42,236.22H224.64a.22.22,0,0,1-.22-.22V179.22a.22.22,0,0,1,.22-.22h56.77a.22.22,0,0,1,.22.22V236A.22.22,0,0,1,281.42,236.22Zm-56.55-.45H281.2V179.45H224.87Z" transform="translate(-1.87 -4.71)"/><rect class="cls-25" x="222.77" y="174.53" width="56.77" height="56.77"/><polygon class="cls-23" points="279.55 231.29 270.03 221.78 270.03 184.04 232.28 184.04 222.77 174.52 279.55 174.52 279.55 231.29"/><polygon class="cls-26" points="279.55 231.29 270.03 221.78 232.28 221.78 232.28 184.04 222.77 174.52 222.77 231.29 279.55 231.29"/><path class="cls-26" d="M281.42,236.23H224.64a.22.22,0,0,1-.22-.22V179.23a.22.22,0,0,1,.22-.22h56.77a.22.22,0,0,1,.22.22V236A.22.22,0,0,1,281.42,236.23Zm-56.55-.45H281.2V179.46H224.87Z" transform="translate(-1.87 -4.71)"/><path class="cls-3" d="M257.62,217.05h0L248.7,217h0a2.09,2.09,0,0,1-1.79-3.17l3.87-6.49a2.67,2.67,0,0,0,.38-1.35l0-5.17a.14.14,0,0,0-.13-.14.69.69,0,0,1-.69-.69v-.2a.69.69,0,0,1,.69-.69h0l4.4,0a.69.69,0,0,1,.69.69v.2a.7.7,0,0,1-.69.68h0a.14.14,0,0,0-.14.13l0,5.19a2.67,2.67,0,0,0,.36,1.35l3.79,6.54a2.09,2.09,0,0,1-1.81,3.13Zm-8.92-.61h0l8.92.05h0a1.53,1.53,0,0,0,1.33-2.3l-3.79-6.54a3.23,3.23,0,0,1-.43-1.63l0-5.19a.69.69,0,0,1,.69-.69h0a.14.14,0,0,0,.14-.13v-.2a.14.14,0,0,0-.13-.14l-4.4,0h0a.14.14,0,0,0-.14.14v.2a.14.14,0,0,0,.13.14.69.69,0,0,1,.69.69l0,5.17a3.23,3.23,0,0,1-.45,1.63l-3.87,6.49a1.54,1.54,0,0,0,.52,2.11,1.83,1.83,0,0,0,.8.22Z" transform="translate(-1.87 -4.71)"/><path class="cls-12" d="M248.91,214.36l2.32-3.9a.48.48,0,0,1,.41-.23l3.12,0a.48.48,0,0,1,.41.23l2.26,3.93a.48.48,0,0,1-.42.72l-7.7,0a.48.48,0,0,1-.41-.73Z" transform="translate(-1.87 -4.71)"/><path class="cls-13" d="M257,215.41h0l-7.7,0a.75.75,0,0,1-.64-1.15l2.32-3.9a.81.81,0,0,1,.66-.36l3.12,0a.76.76,0,0,1,.65.37l2.27,3.93a.75.75,0,0,1-.65,1.14Zm-5.39-4.9a.2.2,0,0,0-.17.1l-2.32,3.9h0a.2.2,0,0,0,.17.31l7.7,0a.16.16,0,0,0,.11,0,.2.2,0,0,0,.07-.28l-2.27-3.93a.2.2,0,0,0-.17-.1l-3.12,0Zm-2.73,3.85h0Z" transform="translate(-1.87 -4.71)"/><path class="cls-3" d="M256.48,214.07a.55.55,0,0,1-.48-.28l-2.47-4.26a.55.55,0,0,1,1-.56l2.47,4.26a.55.55,0,0,1-.48.83Z" transform="translate(-1.87 -4.71)"/><rect class="cls-12" x="165.57" y="174.52" width="56.77" height="56.77"/><path class="cls-13" d="M224.22,236.22H167.44a.22.22,0,0,1-.22-.22V179.22a.22.22,0,0,1,.22-.22h56.77a.22.22,0,0,1,.22.22V236A.22.22,0,0,1,224.22,236.22Zm-56.55-.45H224V179.45H167.66Z" transform="translate(-1.87 -4.71)"/><rect class="cls-25" x="165.57" y="174.53" width="56.77" height="56.77"/><polygon class="cls-23" points="222.34 231.29 212.83 221.78 212.83 184.04 175.08 184.04 165.57 174.52 222.34 174.52 222.34 231.29"/><polygon class="cls-26" points="222.34 231.29 212.83 221.78 175.08 221.78 175.08 184.04 165.57 174.52 165.57 231.29 222.34 231.29"/><path class="cls-26" d="M224.22,236.23H167.44a.22.22,0,0,1-.22-.22V179.23a.22.22,0,0,1,.22-.22h56.77a.22.22,0,0,1,.22.22V236A.22.22,0,0,1,224.22,236.23Zm-56.55-.45H224V179.46H167.66Z" transform="translate(-1.87 -4.71)"/><path class="cls-3" d="M200.65,217.05h0l-8.92-.05h0a2.09,2.09,0,0,1-1.79-3.17l3.87-6.49a2.67,2.67,0,0,0,.38-1.35l0-5.17a.14.14,0,0,0-.13-.14.69.69,0,0,1-.69-.69v-.2a.69.69,0,0,1,.69-.69h0l4.4,0a.69.69,0,0,1,.69.69v.2a.67.67,0,0,1-.69.68h0a.14.14,0,0,0-.14.13l0,5.19a2.67,2.67,0,0,0,.36,1.35l3.79,6.54a2.09,2.09,0,0,1-1.81,3.13Zm-8.92-.61h0l8.92.05h0a1.53,1.53,0,0,0,1.33-2.3l-3.79-6.54a3.23,3.23,0,0,1-.43-1.63l0-5.19a.69.69,0,0,1,.69-.69.11.11,0,0,0,.1,0,.13.13,0,0,0,0-.1v-.2a.14.14,0,0,0-.13-.14l-4.4,0h0a.14.14,0,0,0-.14.14v.2a.14.14,0,0,0,.13.14.69.69,0,0,1,.69.69l0,5.17a3.23,3.23,0,0,1-.45,1.63l-3.87,6.49a1.54,1.54,0,0,0,.52,2.11,1.78,1.78,0,0,0,.8.22Z" transform="translate(-1.87 -4.71)"/><path class="cls-12" d="M191.94,214.36l2.32-3.9a.48.48,0,0,1,.41-.23l3.12,0a.48.48,0,0,1,.41.23l2.26,3.93a.48.48,0,0,1-.42.72l-7.7,0a.48.48,0,0,1-.41-.73Z" transform="translate(-1.87 -4.71)"/><path class="cls-13" d="M200.06,215.41h0l-7.7,0a.75.75,0,0,1-.64-1.15l2.32-3.9a.81.81,0,0,1,.66-.36l3.12,0a.76.76,0,0,1,.65.37l2.27,3.93a.75.75,0,0,1-.65,1.14Zm-5.39-4.9a.2.2,0,0,0-.17.1l-2.32,3.9h0a.2.2,0,0,0,.17.31l7.7,0a.17.17,0,0,0,.11,0,.2.2,0,0,0,.07-.28L198,210.62a.2.2,0,0,0-.17-.1l-3.12,0Zm-2.73,3.85h0Z" transform="translate(-1.87 -4.71)"/><path class="cls-3" d="M199.52,214.07a.55.55,0,0,1-.48-.28l-2.47-4.26a.55.55,0,0,1,1-.56l2.47,4.26a.55.55,0,0,1-.48.83Z" transform="translate(-1.87 -4.71)"/><rect class="cls-12" x="165.57" y="231.74" width="56.77" height="56.77"/><path class="cls-13" d="M224.22,293.45H167.44a.22.22,0,0,1-.22-.22V236.45a.22.22,0,0,1,.22-.22h56.77a.22.22,0,0,1,.22.22v56.77A.22.22,0,0,1,224.22,293.45ZM167.66,293H224V236.67H167.66Z" transform="translate(-1.87 -4.71)"/><rect class="cls-22" x="165.57" y="231.75" width="56.77" height="56.77"/><polygon class="cls-23" points="222.34 288.52 212.83 279 212.83 241.25 175.08 241.25 165.57 231.74 222.34 231.74 222.34 288.52"/><polygon class="cls-24" points="222.34 288.52 212.83 279 175.08 279 175.08 241.25 165.57 231.74 165.57 288.52 222.34 288.52"/><path class="cls-24" d="M224.22,293.46H167.44a.22.22,0,0,1-.22-.22V236.46a.22.22,0,0,1,.22-.22h56.77a.22.22,0,0,1,.22.22v56.77A.22.22,0,0,1,224.22,293.46ZM167.66,293H224V236.68H167.66Z" transform="translate(-1.87 -4.71)"/><path class="cls-3" d="M193.62,277.17l-.55-.09a4.23,4.23,0,0,1,2.07-2.8,3.71,3.71,0,0,0,2-2.93c.09-1.43-.7-2.49-1.54-3.6-1-1.28-1.94-2.59-1.7-4.55a7.74,7.74,0,0,1,1.72-3.82,4.65,4.65,0,0,0,1.26-3.48,3.6,3.6,0,0,0-1.86-2.73A5.49,5.49,0,0,1,193.7,252l.45-.32a5,5,0,0,0,1.16,1,4.15,4.15,0,0,1,2.08,3.12,5.16,5.16,0,0,1-1.36,3.86,7.19,7.19,0,0,0-1.61,3.57c-.22,1.74.66,2.91,1.59,4.15s1.75,2.34,1.65,4a4.26,4.26,0,0,1-2.17,3.34A3.74,3.74,0,0,0,193.62,277.17Z" transform="translate(-1.87 -4.71)"/><path class="cls-3" d="M197.28,277.19a7.23,7.23,0,0,0-1.71-2c-1.12-1-2.27-2.13-2.32-3.93-.05-1.65,1.2-2.93,2.41-4.17s2.52-2.57,2.36-4.25-1.24-2.45-2.3-3.29-2.33-1.84-2.1-3.62,1.53-2.55,2.67-3.25a10.68,10.68,0,0,0,1.11-.75l.35.43a11.1,11.1,0,0,1-1.16.79c-1.09.67-2.21,1.37-2.41,2.85s.77,2.23,1.89,3.11,2.35,1.85,2.51,3.67-1.2,3.33-2.52,4.68-2.3,2.35-2.25,3.76c0,1.57,1.07,2.53,2.15,3.54a7.75,7.75,0,0,1,1.84,2.19Z" transform="translate(-1.87 -4.71)"/><line class="cls-3" x1="192.89" y1="267.1" x2="194.18" y2="267.04"/><path class="cls-21" d="M194.76,272.09a.28.28,0,0,1,0-.55l1.29-.06a.27.27,0,0,1,.29.26.28.28,0,0,1-.26.29l-1.29.06Z" transform="translate(-1.87 -4.71)"/><path class="cls-3" d="M194.82,270.88a.28.28,0,0,1,0-.55l1.29-.07a.27.27,0,0,1,.29.26.28.28,0,0,1-.26.29l-1.29.07Z" transform="translate(-1.87 -4.71)"/><line class="cls-3" x1="193.51" y1="259.47" x2="194.98" y2="259.39"/><path class="cls-21" d="M195.38,264.45a.28.28,0,0,1,0-.55l1.47-.07a.27.27,0,0,1,.29.26.28.28,0,0,1-.26.29l-1.47.07Z" transform="translate(-1.87 -4.71)"/><path class="cls-3" d="M195.83,263.22a.28.28,0,0,1,0-.55l1.08-.06a.28.28,0,1,1,0,.55l-1.08.06Z" transform="translate(-1.87 -4.71)"/><line class="cls-3" x1="192.85" y1="252.19" x2="194.14" y2="252.12"/><path class="cls-21" d="M194.72,257.17a.28.28,0,0,1,0-.55l1.29-.07a.27.27,0,0,1,.29.26.28.28,0,0,1-.26.29l-1.29.07Z" transform="translate(-1.87 -4.71)"/><path class="cls-3" d="M195.08,255.94a.28.28,0,0,1,0-.55l.79,0a.27.27,0,0,1,.29.26.28.28,0,0,1-.26.29l-.79,0Z" transform="translate(-1.87 -4.71)"/><path class="cls-3" d="M196.85,161.22l1.71,0c7.48-.2,23.12,10.57,23.32,18.06,0,0-7.84,26.74-16.09,27.38l-.7,0-1.71,0a13.56,13.56,0,0,1-13.71-11.12c-.37-2.06-1.7-8.19-2.22-10.22l-3.79-10.22A13.55,13.55,0,0,1,196.85,161.22Z" transform="translate(-1.87 -4.71)"/><path class="cls-4" d="M203,207a13.92,13.92,0,0,1-13.61-11.35c-.36-2-1.67-8.11-2.21-10.2l-3.78-10.19a.28.28,0,0,1,0-.09,13.83,13.83,0,0,1,13.45-14.2h0l1.71,0c3.63-.1,9.34,2.34,14.56,6.2,5.57,4.12,8.95,8.65,9,12.13a.28.28,0,0,1,0,.09,125.53,125.53,0,0,1-5,13.48c-4,9.08-7.84,13.82-11.37,14.1l-.71,0-1.71,0Zm-19.07-31.89,3.77,10.17c.55,2.13,1.87,8.28,2.23,10.27a13.37,13.37,0,0,0,13.43,10.89l1.71,0,.68,0c7.82-.61,15.48-25.94,15.84-27.14-.12-3.3-3.41-7.65-8.82-11.65-5.13-3.8-10.71-6.19-14.22-6.09l-1.71,0a13.28,13.28,0,0,0-12.91,13.59Z" transform="translate(-1.87 -4.71)"/></svg>