<svg width="500" height="500" viewBox="0 0 500 500" fill="none" xmlns="http://www.w3.org/2000/svg">
<rect width="500" height="500" fill="white"/>
<path d="M18.9629 17.1585C20.2319 17.1585 21.1589 16.8525 21.7439 16.2405C22.3379 15.6285 22.6349 14.7915 22.6349 13.7295C22.6349 13.2435 22.5584 12.8025 22.4054 12.4065C22.2614 12.0015 22.0364 11.6595 21.7304 11.3805C21.4334 11.0925 21.0554 10.872 20.5964 10.719C20.1374 10.566 19.5929 10.4895 18.9629 10.4895H16.3979V17.1585H18.9629ZM18.9629 7.4115C20.3039 7.4115 21.4604 7.569 22.4324 7.884C23.4134 8.199 24.2189 8.64 24.8489 9.207C25.4789 9.765 25.9424 10.431 26.2394 11.205C26.5454 11.979 26.6984 12.8205 26.6984 13.7295C26.6984 14.6925 26.5409 15.5745 26.2259 16.3755C25.9109 17.1765 25.4339 17.865 24.7949 18.441C24.1559 19.017 23.3504 19.467 22.3784 19.791C21.4064 20.106 20.2679 20.2635 18.9629 20.2635H16.3979V27H12.3479V7.4115H18.9629ZM36.9852 18.4005C36.9852 18.0135 36.9312 17.6445 36.8232 17.2935C36.7242 16.9425 36.5622 16.632 36.3372 16.362C36.1122 16.092 35.8287 15.8805 35.4867 15.7275C35.1447 15.5655 34.7352 15.4845 34.2582 15.4845C33.3672 15.4845 32.6697 15.7365 32.1657 16.2405C31.6617 16.7445 31.3332 17.4645 31.1802 18.4005H36.9852ZM31.1262 20.6145C31.2432 21.9195 31.6122 22.8735 32.2332 23.4765C32.8632 24.0795 33.6822 24.381 34.6902 24.381C35.2032 24.381 35.6442 24.3225 36.0132 24.2055C36.3912 24.0795 36.7197 23.9445 36.9987 23.8005C37.2867 23.6475 37.5432 23.5125 37.7682 23.3955C38.0022 23.2695 38.2317 23.2065 38.4567 23.2065C38.7447 23.2065 38.9697 23.3145 39.1317 23.5305L40.2117 24.8805C39.8157 25.3395 39.3792 25.722 38.9022 26.028C38.4252 26.325 37.9302 26.5635 37.4172 26.7435C36.9042 26.9145 36.3867 27.0315 35.8647 27.0945C35.3427 27.1665 34.8387 27.2025 34.3527 27.2025C33.3807 27.2025 32.4717 27.045 31.6257 26.73C30.7887 26.406 30.0552 25.9335 29.4252 25.3125C28.8042 24.6825 28.3137 23.904 27.9537 22.977C27.5937 22.05 27.4137 20.9745 27.4137 19.7505C27.4137 18.8055 27.5667 17.9145 27.8727 17.0775C28.1877 16.2405 28.6377 15.5115 29.2227 14.8905C29.8077 14.2695 30.5187 13.779 31.3557 13.419C32.1927 13.05 33.1377 12.8655 34.1907 12.8655C35.0817 12.8655 35.9007 13.0095 36.6477 13.2975C37.4037 13.5765 38.0517 13.986 38.5917 14.526C39.1407 15.066 39.5637 15.732 39.8607 16.524C40.1667 17.307 40.3197 18.2025 40.3197 19.2105C40.3197 19.4895 40.3062 19.719 40.2792 19.899C40.2522 20.079 40.2072 20.223 40.1442 20.331C40.0812 20.439 39.9957 20.5155 39.8877 20.5605C39.7797 20.5965 39.6402 20.6145 39.4692 20.6145H31.1262ZM46.1283 15.3765C46.5693 14.5845 47.0778 13.959 47.6538 13.5C48.2298 13.041 48.9048 12.8115 49.6788 12.8115C50.3088 12.8115 50.8218 12.96 51.2178 13.257L50.9748 16.011C50.9298 16.191 50.8578 16.317 50.7588 16.389C50.6688 16.452 50.5428 16.4835 50.3808 16.4835C50.2368 16.4835 50.0298 16.4655 49.7598 16.4295C49.4898 16.3845 49.2378 16.362 49.0038 16.362C48.6618 16.362 48.3558 16.4115 48.0858 16.5105C47.8248 16.6095 47.5908 16.749 47.3838 16.929C47.1768 17.109 46.9878 17.3295 46.8168 17.5905C46.6548 17.8515 46.5018 18.1485 46.3578 18.4815V27H42.6318V13.0815H44.8323C45.2103 13.0815 45.4713 13.149 45.6153 13.284C45.7593 13.419 45.8628 13.653 45.9258 13.986L46.1283 15.3765ZM62.5911 16.1865C62.4831 16.3305 62.3751 16.443 62.2671 16.524C62.1591 16.596 62.0061 16.632 61.8081 16.632C61.6281 16.632 61.4526 16.5825 61.2816 16.4835C61.1196 16.3755 60.9306 16.263 60.7146 16.146C60.4986 16.02 60.2421 15.9075 59.9451 15.8085C59.6481 15.7005 59.2791 15.6465 58.8381 15.6465C58.2801 15.6465 57.7941 15.75 57.3801 15.957C56.9751 16.155 56.6376 16.443 56.3676 16.821C56.0976 17.199 55.8951 17.658 55.7601 18.198C55.6341 18.738 55.5711 19.3455 55.5711 20.0205C55.5711 21.4425 55.8546 22.5315 56.4216 23.2875C56.9976 24.0435 57.7806 24.4215 58.7706 24.4215C59.1126 24.4215 59.4051 24.3945 59.6481 24.3405C59.9001 24.2775 60.1161 24.201 60.2961 24.111C60.4851 24.021 60.6471 23.922 60.7821 23.814C60.9171 23.706 61.0431 23.607 61.1601 23.517C61.2861 23.427 61.4076 23.355 61.5246 23.301C61.6506 23.238 61.7901 23.2065 61.9431 23.2065C62.2311 23.2065 62.4561 23.3145 62.6181 23.5305L63.6846 24.8805C63.2886 25.3395 62.8656 25.722 62.4156 26.028C61.9656 26.325 61.4976 26.5635 61.0116 26.7435C60.5346 26.9145 60.0486 27.0315 59.5536 27.0945C59.0586 27.1665 58.5681 27.2025 58.0821 27.2025C57.2271 27.2025 56.4171 27.045 55.6521 26.73C54.8871 26.406 54.2166 25.938 53.6406 25.326C53.0646 24.714 52.6056 23.9625 52.2636 23.0715C51.9306 22.1805 51.7641 21.1635 51.7641 20.0205C51.7641 19.0035 51.9126 18.0585 52.2096 17.1855C52.5066 16.3125 52.9431 15.5565 53.5191 14.9175C54.0951 14.2785 54.8061 13.779 55.6521 13.419C56.5071 13.05 57.4926 12.8655 58.6086 12.8655C59.6706 12.8655 60.6021 13.0365 61.4031 13.3785C62.2041 13.7205 62.9241 14.2155 63.5631 14.8635L62.5911 16.1865ZM74.1629 18.4005C74.1629 18.0135 74.1089 17.6445 74.0009 17.2935C73.9019 16.9425 73.7399 16.632 73.5149 16.362C73.2899 16.092 73.0064 15.8805 72.6644 15.7275C72.3224 15.5655 71.9129 15.4845 71.4359 15.4845C70.5449 15.4845 69.8474 15.7365 69.3434 16.2405C68.8394 16.7445 68.5109 17.4645 68.3579 18.4005H74.1629ZM68.3039 20.6145C68.4209 21.9195 68.7899 22.8735 69.4109 23.4765C70.0409 24.0795 70.8599 24.381 71.8679 24.381C72.3809 24.381 72.8219 24.3225 73.1909 24.2055C73.5689 24.0795 73.8974 23.9445 74.1764 23.8005C74.4644 23.6475 74.7209 23.5125 74.9459 23.3955C75.1799 23.2695 75.4094 23.2065 75.6344 23.2065C75.9224 23.2065 76.1474 23.3145 76.3094 23.5305L77.3894 24.8805C76.9934 25.3395 76.5569 25.722 76.0799 26.028C75.6029 26.325 75.1079 26.5635 74.5949 26.7435C74.0819 26.9145 73.5644 27.0315 73.0424 27.0945C72.5204 27.1665 72.0164 27.2025 71.5304 27.2025C70.5584 27.2025 69.6494 27.045 68.8034 26.73C67.9664 26.406 67.2329 25.9335 66.6029 25.3125C65.9819 24.6825 65.4914 23.904 65.1314 22.977C64.7714 22.05 64.5914 20.9745 64.5914 19.7505C64.5914 18.8055 64.7444 17.9145 65.0504 17.0775C65.3654 16.2405 65.8154 15.5115 66.4004 14.8905C66.9854 14.2695 67.6964 13.779 68.5334 13.419C69.3704 13.05 70.3154 12.8655 71.3684 12.8655C72.2594 12.8655 73.0784 13.0095 73.8254 13.2975C74.5814 13.5765 75.2294 13.986 75.7694 14.526C76.3184 15.066 76.7414 15.732 77.0384 16.524C77.3444 17.307 77.4974 18.2025 77.4974 19.2105C77.4974 19.4895 77.4839 19.719 77.4569 19.899C77.4299 20.079 77.3849 20.223 77.3219 20.331C77.2589 20.439 77.1734 20.5155 77.0654 20.5605C76.9574 20.5965 76.8179 20.6145 76.6469 20.6145H68.3039ZM83.2655 14.7015C83.5445 14.4315 83.8325 14.184 84.1295 13.959C84.4355 13.734 84.755 13.5405 85.088 13.3785C85.43 13.2165 85.7945 13.0905 86.1815 13.0005C86.5775 12.9105 87.005 12.8655 87.464 12.8655C88.22 12.8655 88.8905 12.996 89.4755 13.257C90.0605 13.518 90.551 13.8825 90.947 14.3505C91.352 14.8185 91.6535 15.3765 91.8515 16.0245C92.0585 16.6725 92.162 17.3835 92.162 18.1575V27H88.4495V18.1575C88.4495 17.3835 88.2695 16.785 87.9095 16.362C87.5495 15.93 87.0185 15.714 86.3165 15.714C85.7945 15.714 85.304 15.8265 84.845 16.0515C84.386 16.2765 83.9495 16.5915 83.5355 16.9965V27H79.8095V13.0815H82.1045C82.5725 13.0815 82.883 13.2975 83.036 13.7295L83.2655 14.7015ZM99.7503 27.216C99.1203 27.216 98.5623 27.126 98.0763 26.946C97.5903 26.757 97.1808 26.4915 96.8478 26.1495C96.5148 25.8075 96.2628 25.3935 96.0918 24.9075C95.9208 24.4215 95.8353 23.8725 95.8353 23.2605V15.7545H94.5258C94.3278 15.7545 94.1568 15.6915 94.0128 15.5655C93.8778 15.4395 93.8103 15.2505 93.8103 14.9985V13.5405L96.0378 13.1355L96.7938 9.531C96.8928 9.126 97.1673 8.9235 97.6173 8.9235H99.5613V13.1625H103.152V15.7545H99.5613V23.0175C99.5613 23.4045 99.6513 23.7105 99.8313 23.9355C100.02 24.1605 100.286 24.273 100.628 24.273C100.808 24.273 100.961 24.255 101.087 24.219C101.213 24.174 101.321 24.129 101.411 24.084C101.501 24.03 101.582 23.985 101.654 23.949C101.735 23.904 101.816 23.8815 101.897 23.8815C102.005 23.8815 102.095 23.9085 102.167 23.9625C102.239 24.0075 102.311 24.0885 102.383 24.2055L103.503 25.9875C102.99 26.3925 102.41 26.6985 101.762 26.9055C101.114 27.1125 100.443 27.216 99.7503 27.216ZM112.425 21.1815C111.516 21.2265 110.76 21.3075 110.157 21.4245C109.554 21.5325 109.072 21.6765 108.712 21.8565C108.361 22.0365 108.109 22.2435 107.956 22.4775C107.812 22.7025 107.74 22.95 107.74 23.22C107.74 23.76 107.889 24.1425 108.186 24.3675C108.492 24.5925 108.915 24.705 109.455 24.705C110.076 24.705 110.611 24.597 111.061 24.381C111.52 24.156 111.975 23.8095 112.425 23.3415V21.1815ZM104.838 15.012C105.657 14.274 106.561 13.725 107.551 13.365C108.541 12.996 109.612 12.8115 110.764 12.8115C111.592 12.8115 112.33 12.9465 112.978 13.2165C113.635 13.4865 114.189 13.8645 114.639 14.3505C115.098 14.8275 115.449 15.399 115.692 16.065C115.935 16.731 116.056 17.46 116.056 18.252V27H114.355C114.004 27 113.734 26.9505 113.545 26.8515C113.365 26.7525 113.217 26.5455 113.1 26.2305L112.803 25.3395C112.452 25.6455 112.11 25.9155 111.777 26.1495C111.453 26.3835 111.115 26.5815 110.764 26.7435C110.413 26.8965 110.035 27.0135 109.63 27.0945C109.234 27.1755 108.789 27.216 108.294 27.216C107.682 27.216 107.124 27.135 106.62 26.973C106.116 26.811 105.679 26.5725 105.31 26.2575C104.95 25.9335 104.671 25.533 104.473 25.056C104.275 24.579 104.176 24.03 104.176 23.409C104.176 22.896 104.307 22.383 104.568 21.87C104.829 21.357 105.274 20.8935 105.904 20.4795C106.543 20.0565 107.389 19.71 108.442 19.44C109.504 19.161 110.832 19.0035 112.425 18.9675V18.252C112.425 17.379 112.24 16.74 111.871 16.335C111.502 15.921 110.971 15.714 110.278 15.714C109.765 15.714 109.338 15.777 108.996 15.903C108.654 16.02 108.352 16.1505 108.091 16.2945C107.839 16.4295 107.601 16.56 107.376 16.686C107.151 16.803 106.89 16.8615 106.593 16.8615C106.332 16.8615 106.111 16.7985 105.931 16.6725C105.76 16.5375 105.616 16.38 105.499 16.2L104.838 15.012ZM124.149 19.521C124.914 19.521 125.476 19.3275 125.836 18.9405C126.205 18.5535 126.39 18.054 126.39 17.442C126.39 16.803 126.205 16.3035 125.836 15.9435C125.476 15.5745 124.914 15.39 124.149 15.39C123.384 15.39 122.821 15.5745 122.461 15.9435C122.101 16.3035 121.921 16.803 121.921 17.442C121.921 18.045 122.101 18.5445 122.461 18.9405C122.83 19.3275 123.393 19.521 124.149 19.521ZM127.672 27.567C127.672 27.324 127.596 27.126 127.443 26.973C127.29 26.82 127.083 26.6985 126.822 26.6085C126.57 26.5185 126.268 26.4555 125.917 26.4195C125.566 26.3745 125.193 26.343 124.797 26.325C124.401 26.298 123.991 26.2755 123.568 26.2575C123.145 26.2395 122.731 26.208 122.326 26.163C122.011 26.352 121.75 26.577 121.543 26.838C121.345 27.09 121.246 27.378 121.246 27.702C121.246 27.927 121.296 28.134 121.395 28.323C121.503 28.512 121.678 28.674 121.921 28.809C122.164 28.944 122.484 29.0475 122.88 29.1195C123.276 29.2005 123.771 29.241 124.365 29.241C124.977 29.241 125.494 29.2005 125.917 29.1195C126.34 29.0385 126.682 28.9215 126.943 28.7685C127.204 28.6245 127.389 28.449 127.497 28.242C127.614 28.035 127.672 27.81 127.672 27.567ZM131.371 13.5405V14.904C131.371 15.12 131.308 15.291 131.182 15.417C131.065 15.543 130.867 15.6375 130.588 15.7005L129.454 15.93C129.607 16.371 129.684 16.8435 129.684 17.3475C129.684 18.0405 129.54 18.666 129.252 19.224C128.973 19.773 128.586 20.2455 128.091 20.6415C127.596 21.0285 127.011 21.33 126.336 21.546C125.661 21.753 124.932 21.8565 124.149 21.8565C123.654 21.8565 123.19 21.816 122.758 21.735C122.38 21.969 122.191 22.2255 122.191 22.5045C122.191 22.7655 122.317 22.9545 122.569 23.0715C122.83 23.1885 123.168 23.274 123.582 23.328C124.005 23.373 124.482 23.4045 125.013 23.4225C125.553 23.4315 126.097 23.4585 126.646 23.5035C127.204 23.5485 127.749 23.6295 128.28 23.7465C128.82 23.8545 129.297 24.039 129.711 24.3C130.134 24.552 130.471 24.8895 130.723 25.3125C130.984 25.7355 131.115 26.28 131.115 26.946C131.115 27.567 130.962 28.17 130.656 28.755C130.35 29.34 129.904 29.862 129.319 30.321C128.743 30.78 128.032 31.149 127.186 31.428C126.34 31.707 125.377 31.8465 124.297 31.8465C123.226 31.8465 122.295 31.743 121.503 31.536C120.72 31.338 120.067 31.068 119.545 30.726C119.032 30.393 118.65 30.006 118.398 29.565C118.146 29.124 118.02 28.665 118.02 28.188C118.02 27.567 118.209 27.0405 118.587 26.6085C118.965 26.1765 119.487 25.83 120.153 25.569C119.802 25.371 119.518 25.1145 119.302 24.7995C119.095 24.4755 118.992 24.057 118.992 23.544C118.992 23.13 119.14 22.6935 119.437 22.2345C119.743 21.7755 120.211 21.393 120.841 21.087C120.13 20.709 119.568 20.205 119.154 19.575C118.74 18.936 118.533 18.1935 118.533 17.3475C118.533 16.6545 118.672 16.029 118.951 15.471C119.239 14.913 119.635 14.4405 120.139 14.0535C120.643 13.6575 121.237 13.356 121.921 13.149C122.605 12.942 123.348 12.8385 124.149 12.8385C125.337 12.8385 126.385 13.0725 127.294 13.5405H131.371ZM141.874 18.4005C141.874 18.0135 141.82 17.6445 141.712 17.2935C141.613 16.9425 141.451 16.632 141.226 16.362C141.001 16.092 140.717 15.8805 140.375 15.7275C140.033 15.5655 139.624 15.4845 139.147 15.4845C138.256 15.4845 137.558 15.7365 137.054 16.2405C136.55 16.7445 136.222 17.4645 136.069 18.4005H141.874ZM136.015 20.6145C136.132 21.9195 136.501 22.8735 137.122 23.4765C137.752 24.0795 138.571 24.381 139.579 24.381C140.092 24.381 140.533 24.3225 140.902 24.2055C141.28 24.0795 141.608 23.9445 141.887 23.8005C142.175 23.6475 142.432 23.5125 142.657 23.3955C142.891 23.2695 143.12 23.2065 143.345 23.2065C143.633 23.2065 143.858 23.3145 144.02 23.5305L145.1 24.8805C144.704 25.3395 144.268 25.722 143.791 26.028C143.314 26.325 142.819 26.5635 142.306 26.7435C141.793 26.9145 141.275 27.0315 140.753 27.0945C140.231 27.1665 139.727 27.2025 139.241 27.2025C138.269 27.2025 137.36 27.045 136.514 26.73C135.677 26.406 134.944 25.9335 134.314 25.3125C133.693 24.6825 133.202 23.904 132.842 22.977C132.482 22.05 132.302 20.9745 132.302 19.7505C132.302 18.8055 132.455 17.9145 132.761 17.0775C133.076 16.2405 133.526 15.5115 134.111 14.8905C134.696 14.2695 135.407 13.779 136.244 13.419C137.081 13.05 138.026 12.8655 139.079 12.8655C139.97 12.8655 140.789 13.0095 141.536 13.2975C142.292 13.5765 142.94 13.986 143.48 14.526C144.029 15.066 144.452 15.732 144.749 16.524C145.055 17.307 145.208 18.2025 145.208 19.2105C145.208 19.4895 145.195 19.719 145.168 19.899C145.141 20.079 145.096 20.223 145.033 20.331C144.97 20.439 144.884 20.5155 144.776 20.5605C144.668 20.5965 144.529 20.6145 144.358 20.6145H136.015ZM160.205 12.8655C161.249 12.8655 162.199 13.032 163.054 13.365C163.909 13.698 164.642 14.175 165.254 14.796C165.866 15.408 166.339 16.155 166.672 17.037C167.005 17.919 167.171 18.9135 167.171 20.0205C167.171 21.1275 167.005 22.1265 166.672 23.0175C166.339 23.8995 165.866 24.651 165.254 25.272C164.642 25.893 163.909 26.37 163.054 26.703C162.199 27.036 161.249 27.2025 160.205 27.2025C159.152 27.2025 158.194 27.036 157.33 26.703C156.475 26.37 155.741 25.893 155.129 25.272C154.517 24.651 154.04 23.8995 153.698 23.0175C153.365 22.1265 153.199 21.1275 153.199 20.0205C153.199 18.9135 153.365 17.919 153.698 17.037C154.04 16.155 154.517 15.408 155.129 14.796C155.741 14.175 156.475 13.698 157.33 13.365C158.194 13.032 159.152 12.8655 160.205 12.8655ZM160.205 24.408C161.267 24.408 162.055 24.0435 162.568 23.3145C163.081 22.5765 163.337 21.483 163.337 20.034C163.337 18.594 163.081 17.5095 162.568 16.7805C162.055 16.0425 161.267 15.6735 160.205 15.6735C159.116 15.6735 158.315 16.0425 157.802 16.7805C157.289 17.5095 157.033 18.594 157.033 20.034C157.033 21.483 157.289 22.5765 157.802 23.3145C158.315 24.0435 159.116 24.408 160.205 24.408ZM170.154 27V15.7545L169.074 15.5655C168.795 15.5115 168.566 15.4125 168.386 15.2685C168.215 15.1245 168.129 14.9175 168.129 14.6475V13.1625H170.154V12.2445C170.154 11.4525 170.276 10.737 170.519 10.098C170.771 9.45 171.126 8.9055 171.585 8.4645C172.044 8.0145 172.607 7.668 173.273 7.425C173.939 7.182 174.69 7.0605 175.527 7.0605C175.851 7.0605 176.157 7.083 176.445 7.128C176.742 7.164 177.039 7.2225 177.336 7.3035L177.255 9.1395C177.237 9.4185 177.116 9.603 176.891 9.693C176.675 9.774 176.432 9.8145 176.162 9.8145C175.784 9.8145 175.442 9.855 175.136 9.936C174.839 10.017 174.587 10.1565 174.38 10.3545C174.173 10.5435 174.015 10.8045 173.907 11.1375C173.799 11.4615 173.745 11.8665 173.745 12.3525V13.1625H177.201V15.7545H173.867V27H170.154ZM193.457 15.9435C193.358 16.0965 193.255 16.209 193.147 16.281C193.048 16.344 192.908 16.3755 192.728 16.3755C192.548 16.3755 192.364 16.3305 192.175 16.2405C191.986 16.1505 191.774 16.056 191.54 15.957C191.306 15.849 191.036 15.75 190.73 15.66C190.433 15.57 190.087 15.525 189.691 15.525C189.088 15.525 188.62 15.651 188.287 15.903C187.954 16.146 187.787 16.47 187.787 16.875C187.787 17.154 187.882 17.388 188.071 17.577C188.26 17.766 188.507 17.9325 188.813 18.0765C189.128 18.2115 189.484 18.342 189.88 18.468C190.276 18.585 190.681 18.7155 191.095 18.8595C191.518 19.0035 191.927 19.17 192.323 19.359C192.719 19.548 193.07 19.7865 193.376 20.0745C193.691 20.3535 193.943 20.6955 194.132 21.1005C194.321 21.4965 194.416 21.978 194.416 22.545C194.416 23.22 194.29 23.8455 194.038 24.4215C193.795 24.9885 193.435 25.479 192.958 25.893C192.481 26.307 191.887 26.631 191.176 26.865C190.465 27.099 189.646 27.216 188.719 27.216C188.242 27.216 187.769 27.171 187.301 27.081C186.833 27 186.388 26.883 185.965 26.73C185.542 26.568 185.146 26.3835 184.777 26.1765C184.408 25.9695 184.088 25.7445 183.818 25.5015L184.682 24.111C184.781 23.949 184.903 23.823 185.047 23.733C185.2 23.643 185.393 23.598 185.627 23.598C185.852 23.598 186.059 23.6565 186.248 23.7735C186.437 23.8815 186.649 24.003 186.883 24.138C187.117 24.264 187.391 24.3855 187.706 24.5025C188.03 24.6105 188.431 24.6645 188.908 24.6645C189.268 24.6645 189.578 24.624 189.839 24.543C190.1 24.462 190.312 24.354 190.474 24.219C190.636 24.075 190.753 23.9175 190.825 23.7465C190.906 23.5665 190.946 23.382 190.946 23.193C190.946 22.887 190.847 22.6395 190.649 22.4505C190.46 22.2525 190.208 22.0815 189.893 21.9375C189.587 21.7935 189.232 21.663 188.827 21.546C188.422 21.429 188.008 21.2985 187.585 21.1545C187.171 21.0105 186.761 20.8395 186.356 20.6415C185.96 20.4435 185.605 20.196 185.29 19.899C184.984 19.593 184.732 19.2195 184.534 18.7785C184.345 18.3375 184.25 17.802 184.25 17.172C184.25 16.596 184.363 16.0515 184.588 15.5385C184.813 15.0165 185.15 14.5575 185.6 14.1615C186.05 13.7655 186.608 13.4505 187.274 13.2165C187.949 12.9825 188.728 12.8655 189.61 12.8655C190.6 12.8655 191.5 13.0275 192.31 13.3515C193.12 13.6755 193.786 14.0985 194.308 14.6205L193.457 15.9435ZM201.554 27.216C200.924 27.216 200.366 27.126 199.88 26.946C199.394 26.757 198.984 26.4915 198.651 26.1495C198.318 25.8075 198.066 25.3935 197.895 24.9075C197.724 24.4215 197.639 23.8725 197.639 23.2605V15.7545H196.329C196.131 15.7545 195.96 15.6915 195.816 15.5655C195.681 15.4395 195.614 15.2505 195.614 14.9985V13.5405L197.841 13.1355L198.597 9.531C198.696 9.126 198.971 8.9235 199.421 8.9235H201.365V13.1625H204.956V15.7545H201.365V23.0175C201.365 23.4045 201.455 23.7105 201.635 23.9355C201.824 24.1605 202.089 24.273 202.431 24.273C202.611 24.273 202.764 24.255 202.89 24.219C203.016 24.174 203.124 24.129 203.214 24.084C203.304 24.03 203.385 23.985 203.457 23.949C203.538 23.904 203.619 23.8815 203.7 23.8815C203.808 23.8815 203.898 23.9085 203.97 23.9625C204.042 24.0075 204.114 24.0885 204.186 24.2055L205.307 25.9875C204.794 26.3925 204.213 26.6985 203.565 26.9055C202.917 27.1125 202.247 27.216 201.554 27.216ZM219.17 13.0815V27H216.875C216.398 27 216.092 26.784 215.957 26.352L215.714 25.38C215.435 25.65 215.147 25.8975 214.85 26.1225C214.553 26.3475 214.233 26.541 213.891 26.703C213.558 26.865 213.194 26.991 212.798 27.081C212.411 27.171 211.988 27.216 211.529 27.216C210.773 27.216 210.098 27.0855 209.504 26.8245C208.919 26.5635 208.428 26.199 208.032 25.731C207.636 25.263 207.335 24.705 207.128 24.057C206.921 23.409 206.817 22.698 206.817 21.924V13.0815H210.543V21.924C210.543 22.698 210.719 23.301 211.07 23.733C211.43 24.156 211.961 24.3675 212.663 24.3675C213.185 24.3675 213.675 24.255 214.134 24.03C214.593 23.796 215.03 23.481 215.444 23.085V13.0815H219.17ZM230.845 16.6995C230.494 16.2945 230.111 16.011 229.697 15.849C229.292 15.687 228.86 15.606 228.401 15.606C227.951 15.606 227.542 15.6915 227.173 15.8625C226.804 16.0335 226.484 16.3035 226.214 16.6725C225.953 17.0325 225.751 17.496 225.607 18.063C225.463 18.63 225.391 19.305 225.391 20.088C225.391 20.862 225.449 21.519 225.566 22.059C225.683 22.599 225.85 23.0355 226.066 23.3685C226.291 23.7015 226.561 23.9445 226.876 24.0975C227.191 24.2415 227.542 24.3135 227.929 24.3135C228.586 24.3135 229.135 24.183 229.576 23.922C230.026 23.661 230.449 23.292 230.845 22.815V16.6995ZM234.571 6.8715V27H232.276C231.799 27 231.493 26.784 231.358 26.352L231.047 25.137C230.768 25.443 230.471 25.722 230.156 25.974C229.85 26.226 229.517 26.4465 229.157 26.6355C228.797 26.8155 228.41 26.955 227.996 27.054C227.582 27.153 227.132 27.2025 226.646 27.2025C225.899 27.2025 225.215 27.045 224.594 26.73C223.973 26.415 223.433 25.956 222.974 25.353C222.524 24.741 222.173 23.994 221.921 23.112C221.669 22.23 221.543 21.222 221.543 20.088C221.543 19.053 221.683 18.09 221.962 17.199C222.25 16.308 222.655 15.5385 223.177 14.8905C223.699 14.2425 224.329 13.734 225.067 13.365C225.805 12.996 226.624 12.8115 227.524 12.8115C228.28 12.8115 228.914 12.924 229.427 13.149C229.949 13.374 230.422 13.68 230.845 14.067V6.8715H234.571ZM246.499 18.4005C246.499 18.0135 246.445 17.6445 246.337 17.2935C246.238 16.9425 246.076 16.632 245.851 16.362C245.626 16.092 245.342 15.8805 245 15.7275C244.658 15.5655 244.249 15.4845 243.772 15.4845C242.881 15.4845 242.183 15.7365 241.679 16.2405C241.175 16.7445 240.847 17.4645 240.694 18.4005H246.499ZM240.64 20.6145C240.757 21.9195 241.126 22.8735 241.747 23.4765C242.377 24.0795 243.196 24.381 244.204 24.381C244.717 24.381 245.158 24.3225 245.527 24.2055C245.905 24.0795 246.233 23.9445 246.512 23.8005C246.8 23.6475 247.057 23.5125 247.282 23.3955C247.516 23.2695 247.745 23.2065 247.97 23.2065C248.258 23.2065 248.483 23.3145 248.645 23.5305L249.725 24.8805C249.329 25.3395 248.893 25.722 248.416 26.028C247.939 26.325 247.444 26.5635 246.931 26.7435C246.418 26.9145 245.9 27.0315 245.378 27.0945C244.856 27.1665 244.352 27.2025 243.866 27.2025C242.894 27.2025 241.985 27.045 241.139 26.73C240.302 26.406 239.569 25.9335 238.939 25.3125C238.318 24.6825 237.827 23.904 237.467 22.977C237.107 22.05 236.927 20.9745 236.927 19.7505C236.927 18.8055 237.08 17.9145 237.386 17.0775C237.701 16.2405 238.151 15.5115 238.736 14.8905C239.321 14.2695 240.032 13.779 240.869 13.419C241.706 13.05 242.651 12.8655 243.704 12.8655C244.595 12.8655 245.414 13.0095 246.161 13.2975C246.917 13.5765 247.565 13.986 248.105 14.526C248.654 15.066 249.077 15.732 249.374 16.524C249.68 17.307 249.833 18.2025 249.833 19.2105C249.833 19.4895 249.82 19.719 249.793 19.899C249.766 20.079 249.721 20.223 249.658 20.331C249.595 20.439 249.509 20.5155 249.401 20.5605C249.293 20.5965 249.154 20.6145 248.983 20.6145H240.64ZM255.601 14.7015C255.88 14.4315 256.168 14.184 256.465 13.959C256.771 13.734 257.091 13.5405 257.424 13.3785C257.766 13.2165 258.13 13.0905 258.517 13.0005C258.913 12.9105 259.341 12.8655 259.8 12.8655C260.556 12.8655 261.226 12.996 261.811 13.257C262.396 13.518 262.887 13.8825 263.283 14.3505C263.688 14.8185 263.989 15.3765 264.187 16.0245C264.394 16.6725 264.498 17.3835 264.498 18.1575V27H260.785V18.1575C260.785 17.3835 260.605 16.785 260.245 16.362C259.885 15.93 259.354 15.714 258.652 15.714C258.13 15.714 257.64 15.8265 257.181 16.0515C256.722 16.2765 256.285 16.5915 255.871 16.9965V27H252.145V13.0815H254.44C254.908 13.0815 255.219 13.2975 255.372 13.7295L255.601 14.7015ZM272.086 27.216C271.456 27.216 270.898 27.126 270.412 26.946C269.926 26.757 269.517 26.4915 269.184 26.1495C268.851 25.8075 268.599 25.3935 268.428 24.9075C268.257 24.4215 268.171 23.8725 268.171 23.2605V15.7545H266.862C266.664 15.7545 266.493 15.6915 266.349 15.5655C266.214 15.4395 266.146 15.2505 266.146 14.9985V13.5405L268.374 13.1355L269.13 9.531C269.229 9.126 269.503 8.9235 269.953 8.9235H271.897V13.1625H275.488V15.7545H271.897V23.0175C271.897 23.4045 271.987 23.7105 272.167 23.9355C272.356 24.1605 272.622 24.273 272.964 24.273C273.144 24.273 273.297 24.255 273.423 24.219C273.549 24.174 273.657 24.129 273.747 24.084C273.837 24.03 273.918 23.985 273.99 23.949C274.071 23.904 274.152 23.8815 274.233 23.8815C274.341 23.8815 274.431 23.9085 274.503 23.9625C274.575 24.0075 274.647 24.0885 274.719 24.2055L275.839 25.9875C275.326 26.3925 274.746 26.6985 274.098 26.9055C273.45 27.1125 272.779 27.216 272.086 27.216ZM286.138 15.9435C286.039 16.0965 285.935 16.209 285.827 16.281C285.728 16.344 285.589 16.3755 285.409 16.3755C285.229 16.3755 285.044 16.3305 284.855 16.2405C284.666 16.1505 284.455 16.056 284.221 15.957C283.987 15.849 283.717 15.75 283.411 15.66C283.114 15.57 282.767 15.525 282.371 15.525C281.768 15.525 281.3 15.651 280.967 15.903C280.634 16.146 280.468 16.47 280.468 16.875C280.468 17.154 280.562 17.388 280.751 17.577C280.94 17.766 281.188 17.9325 281.494 18.0765C281.809 18.2115 282.164 18.342 282.56 18.468C282.956 18.585 283.361 18.7155 283.775 18.8595C284.198 19.0035 284.608 19.17 285.004 19.359C285.4 19.548 285.751 19.7865 286.057 20.0745C286.372 20.3535 286.624 20.6955 286.813 21.1005C287.002 21.4965 287.096 21.978 287.096 22.545C287.096 23.22 286.97 23.8455 286.718 24.4215C286.475 24.9885 286.115 25.479 285.638 25.893C285.161 26.307 284.567 26.631 283.856 26.865C283.145 27.099 282.326 27.216 281.399 27.216C280.922 27.216 280.45 27.171 279.982 27.081C279.514 27 279.068 26.883 278.645 26.73C278.222 26.568 277.826 26.3835 277.457 26.1765C277.088 25.9695 276.769 25.7445 276.499 25.5015L277.363 24.111C277.462 23.949 277.583 23.823 277.727 23.733C277.88 23.643 278.074 23.598 278.308 23.598C278.533 23.598 278.74 23.6565 278.929 23.7735C279.118 23.8815 279.329 24.003 279.563 24.138C279.797 24.264 280.072 24.3855 280.387 24.5025C280.711 24.6105 281.111 24.6645 281.588 24.6645C281.948 24.6645 282.259 24.624 282.52 24.543C282.781 24.462 282.992 24.354 283.154 24.219C283.316 24.075 283.433 23.9175 283.505 23.7465C283.586 23.5665 283.627 23.382 283.627 23.193C283.627 22.887 283.528 22.6395 283.33 22.4505C283.141 22.2525 282.889 22.0815 282.574 21.9375C282.268 21.7935 281.912 21.663 281.507 21.546C281.102 21.429 280.688 21.2985 280.265 21.1545C279.851 21.0105 279.442 20.8395 279.037 20.6415C278.641 20.4435 278.285 20.196 277.97 19.899C277.664 19.593 277.412 19.2195 277.214 18.7785C277.025 18.3375 276.931 17.802 276.931 17.172C276.931 16.596 277.043 16.0515 277.268 15.5385C277.493 15.0165 277.831 14.5575 278.281 14.1615C278.731 13.7655 279.289 13.4505 279.955 13.2165C280.63 12.9825 281.408 12.8655 282.29 12.8655C283.28 12.8655 284.18 13.0275 284.99 13.3515C285.8 13.6755 286.466 14.0985 286.988 14.6205L286.138 15.9435ZM304.665 18.4005C304.665 18.0135 304.611 17.6445 304.503 17.2935C304.404 16.9425 304.242 16.632 304.017 16.362C303.792 16.092 303.508 15.8805 303.166 15.7275C302.824 15.5655 302.415 15.4845 301.938 15.4845C301.047 15.4845 300.349 15.7365 299.845 16.2405C299.341 16.7445 299.013 17.4645 298.86 18.4005H304.665ZM298.806 20.6145C298.923 21.9195 299.292 22.8735 299.913 23.4765C300.543 24.0795 301.362 24.381 302.37 24.381C302.883 24.381 303.324 24.3225 303.693 24.2055C304.071 24.0795 304.399 23.9445 304.678 23.8005C304.966 23.6475 305.223 23.5125 305.448 23.3955C305.682 23.2695 305.911 23.2065 306.136 23.2065C306.424 23.2065 306.649 23.3145 306.811 23.5305L307.891 24.8805C307.495 25.3395 307.059 25.722 306.582 26.028C306.105 26.325 305.61 26.5635 305.097 26.7435C304.584 26.9145 304.066 27.0315 303.544 27.0945C303.022 27.1665 302.518 27.2025 302.032 27.2025C301.06 27.2025 300.151 27.045 299.305 26.73C298.468 26.406 297.735 25.9335 297.105 25.3125C296.484 24.6825 295.993 23.904 295.633 22.977C295.273 22.05 295.093 20.9745 295.093 19.7505C295.093 18.8055 295.246 17.9145 295.552 17.0775C295.867 16.2405 296.317 15.5115 296.902 14.8905C297.487 14.2695 298.198 13.779 299.035 13.419C299.872 13.05 300.817 12.8655 301.87 12.8655C302.761 12.8655 303.58 13.0095 304.327 13.2975C305.083 13.5765 305.731 13.986 306.271 14.526C306.82 15.066 307.243 15.732 307.54 16.524C307.846 17.307 307.999 18.2025 307.999 19.2105C307.999 19.4895 307.986 19.719 307.959 19.899C307.932 20.079 307.887 20.223 307.824 20.331C307.761 20.439 307.675 20.5155 307.567 20.5605C307.459 20.5965 307.32 20.6145 307.149 20.6145H298.806ZM317.588 21.1815C316.679 21.2265 315.923 21.3075 315.32 21.4245C314.717 21.5325 314.235 21.6765 313.875 21.8565C313.524 22.0365 313.272 22.2435 313.119 22.4775C312.975 22.7025 312.903 22.95 312.903 23.22C312.903 23.76 313.052 24.1425 313.349 24.3675C313.655 24.5925 314.078 24.705 314.618 24.705C315.239 24.705 315.774 24.597 316.224 24.381C316.683 24.156 317.138 23.8095 317.588 23.3415V21.1815ZM310.001 15.012C310.82 14.274 311.724 13.725 312.714 13.365C313.704 12.996 314.775 12.8115 315.927 12.8115C316.755 12.8115 317.493 12.9465 318.141 13.2165C318.798 13.4865 319.352 13.8645 319.802 14.3505C320.261 14.8275 320.612 15.399 320.855 16.065C321.098 16.731 321.219 17.46 321.219 18.252V27H319.518C319.167 27 318.897 26.9505 318.708 26.8515C318.528 26.7525 318.38 26.5455 318.263 26.2305L317.966 25.3395C317.615 25.6455 317.273 25.9155 316.94 26.1495C316.616 26.3835 316.278 26.5815 315.927 26.7435C315.576 26.8965 315.198 27.0135 314.793 27.0945C314.397 27.1755 313.952 27.216 313.457 27.216C312.845 27.216 312.287 27.135 311.783 26.973C311.279 26.811 310.842 26.5725 310.473 26.2575C310.113 25.9335 309.834 25.533 309.636 25.056C309.438 24.579 309.339 24.03 309.339 23.409C309.339 22.896 309.47 22.383 309.731 21.87C309.992 21.357 310.437 20.8935 311.067 20.4795C311.706 20.0565 312.552 19.71 313.605 19.44C314.667 19.161 315.995 19.0035 317.588 18.9675V18.252C317.588 17.379 317.403 16.74 317.034 16.335C316.665 15.921 316.134 15.714 315.441 15.714C314.928 15.714 314.501 15.777 314.159 15.903C313.817 16.02 313.515 16.1505 313.254 16.2945C313.002 16.4295 312.764 16.56 312.539 16.686C312.314 16.803 312.053 16.8615 311.756 16.8615C311.495 16.8615 311.274 16.7985 311.094 16.6725C310.923 16.5375 310.779 16.38 310.662 16.2L310.001 15.012ZM327.624 15.3765C328.065 14.5845 328.574 13.959 329.15 13.5C329.726 13.041 330.401 12.8115 331.175 12.8115C331.805 12.8115 332.318 12.96 332.714 13.257L332.471 16.011C332.426 16.191 332.354 16.317 332.255 16.389C332.165 16.452 332.039 16.4835 331.877 16.4835C331.733 16.4835 331.526 16.4655 331.256 16.4295C330.986 16.3845 330.734 16.362 330.5 16.362C330.158 16.362 329.852 16.4115 329.582 16.5105C329.321 16.6095 329.087 16.749 328.88 16.929C328.673 17.109 328.484 17.3295 328.313 17.5905C328.151 17.8515 327.998 18.1485 327.854 18.4815V27H324.128V13.0815H326.328C326.706 13.0815 326.967 13.149 327.111 13.284C327.255 13.419 327.359 13.653 327.422 13.986L327.624 15.3765ZM337.762 14.7015C338.041 14.4315 338.329 14.184 338.626 13.959C338.932 13.734 339.251 13.5405 339.584 13.3785C339.926 13.2165 340.291 13.0905 340.678 13.0005C341.074 12.9105 341.501 12.8655 341.96 12.8655C342.716 12.8655 343.387 12.996 343.972 13.257C344.557 13.518 345.047 13.8825 345.443 14.3505C345.848 14.8185 346.15 15.3765 346.348 16.0245C346.555 16.6725 346.658 17.3835 346.658 18.1575V27H342.946V18.1575C342.946 17.3835 342.766 16.785 342.406 16.362C342.046 15.93 341.515 15.714 340.813 15.714C340.291 15.714 339.8 15.8265 339.341 16.0515C338.882 16.2765 338.446 16.5915 338.032 16.9965V27H334.306V13.0815H336.601C337.069 13.0815 337.379 13.2975 337.532 13.7295L337.762 14.7015ZM353.459 13.0815V27H349.733V13.0815H353.459ZM353.904 9.126C353.904 9.441 353.841 9.7335 353.715 10.0035C353.589 10.2735 353.418 10.512 353.202 10.719C352.995 10.926 352.748 11.088 352.46 11.205C352.181 11.322 351.879 11.3805 351.555 11.3805C351.249 11.3805 350.957 11.322 350.678 11.205C350.408 11.088 350.169 10.926 349.962 10.719C349.755 10.512 349.589 10.2735 349.463 10.0035C349.346 9.7335 349.287 9.441 349.287 9.126C349.287 8.811 349.346 8.5185 349.463 8.2485C349.589 7.9695 349.755 7.7265 349.962 7.5195C350.169 7.3125 350.408 7.1505 350.678 7.0335C350.957 6.9165 351.249 6.858 351.555 6.858C351.879 6.858 352.181 6.9165 352.46 7.0335C352.748 7.1505 352.995 7.3125 353.202 7.5195C353.418 7.7265 353.589 7.9695 353.715 8.2485C353.841 8.5185 353.904 8.811 353.904 9.126ZM360.095 14.7015C360.374 14.4315 360.662 14.184 360.959 13.959C361.265 13.734 361.584 13.5405 361.917 13.3785C362.259 13.2165 362.624 13.0905 363.011 13.0005C363.407 12.9105 363.834 12.8655 364.293 12.8655C365.049 12.8655 365.72 12.996 366.305 13.257C366.89 13.518 367.38 13.8825 367.776 14.3505C368.181 14.8185 368.483 15.3765 368.681 16.0245C368.888 16.6725 368.991 17.3835 368.991 18.1575V27H365.279V18.1575C365.279 17.3835 365.099 16.785 364.739 16.362C364.379 15.93 363.848 15.714 363.146 15.714C362.624 15.714 362.133 15.8265 361.674 16.0515C361.215 16.2765 360.779 16.5915 360.365 16.9965V27H356.639V13.0815H358.934C359.402 13.0815 359.712 13.2975 359.865 13.7295L360.095 14.7015ZM377.142 19.521C377.907 19.521 378.469 19.3275 378.829 18.9405C379.198 18.5535 379.383 18.054 379.383 17.442C379.383 16.803 379.198 16.3035 378.829 15.9435C378.469 15.5745 377.907 15.39 377.142 15.39C376.377 15.39 375.814 15.5745 375.454 15.9435C375.094 16.3035 374.914 16.803 374.914 17.442C374.914 18.045 375.094 18.5445 375.454 18.9405C375.823 19.3275 376.386 19.521 377.142 19.521ZM380.665 27.567C380.665 27.324 380.589 27.126 380.436 26.973C380.283 26.82 380.076 26.6985 379.815 26.6085C379.563 26.5185 379.261 26.4555 378.91 26.4195C378.559 26.3745 378.186 26.343 377.79 26.325C377.394 26.298 376.984 26.2755 376.561 26.2575C376.138 26.2395 375.724 26.208 375.319 26.163C375.004 26.352 374.743 26.577 374.536 26.838C374.338 27.09 374.239 27.378 374.239 27.702C374.239 27.927 374.289 28.134 374.388 28.323C374.496 28.512 374.671 28.674 374.914 28.809C375.157 28.944 375.477 29.0475 375.873 29.1195C376.269 29.2005 376.764 29.241 377.358 29.241C377.97 29.241 378.487 29.2005 378.91 29.1195C379.333 29.0385 379.675 28.9215 379.936 28.7685C380.197 28.6245 380.382 28.449 380.49 28.242C380.607 28.035 380.665 27.81 380.665 27.567ZM384.364 13.5405V14.904C384.364 15.12 384.301 15.291 384.175 15.417C384.058 15.543 383.86 15.6375 383.581 15.7005L382.447 15.93C382.6 16.371 382.677 16.8435 382.677 17.3475C382.677 18.0405 382.533 18.666 382.245 19.224C381.966 19.773 381.579 20.2455 381.084 20.6415C380.589 21.0285 380.004 21.33 379.329 21.546C378.654 21.753 377.925 21.8565 377.142 21.8565C376.647 21.8565 376.183 21.816 375.751 21.735C375.373 21.969 375.184 22.2255 375.184 22.5045C375.184 22.7655 375.31 22.9545 375.562 23.0715C375.823 23.1885 376.161 23.274 376.575 23.328C376.998 23.373 377.475 23.4045 378.006 23.4225C378.546 23.4315 379.09 23.4585 379.639 23.5035C380.197 23.5485 380.742 23.6295 381.273 23.7465C381.813 23.8545 382.29 24.039 382.704 24.3C383.127 24.552 383.464 24.8895 383.716 25.3125C383.977 25.7355 384.108 26.28 384.108 26.946C384.108 27.567 383.955 28.17 383.649 28.755C383.343 29.34 382.897 29.862 382.312 30.321C381.736 30.78 381.025 31.149 380.179 31.428C379.333 31.707 378.37 31.8465 377.29 31.8465C376.219 31.8465 375.288 31.743 374.496 31.536C373.713 31.338 373.06 31.068 372.538 30.726C372.025 30.393 371.643 30.006 371.391 29.565C371.139 29.124 371.013 28.665 371.013 28.188C371.013 27.567 371.202 27.0405 371.58 26.6085C371.958 26.1765 372.48 25.83 373.146 25.569C372.795 25.371 372.511 25.1145 372.295 24.7995C372.088 24.4755 371.985 24.057 371.985 23.544C371.985 23.13 372.133 22.6935 372.43 22.2345C372.736 21.7755 373.204 21.393 373.834 21.087C373.123 20.709 372.561 20.205 372.147 19.575C371.733 18.936 371.526 18.1935 371.526 17.3475C371.526 16.6545 371.665 16.029 371.944 15.471C372.232 14.913 372.628 14.4405 373.132 14.0535C373.636 13.6575 374.23 13.356 374.914 13.149C375.598 12.942 376.341 12.8385 377.142 12.8385C378.33 12.8385 379.378 13.0725 380.287 13.5405H384.364ZM402.64 19.5615L400.521 13.5675C400.395 13.2525 400.26 12.8835 400.116 12.4605C399.981 12.0375 399.85 11.5785 399.724 11.0835C399.598 11.5875 399.463 12.0555 399.319 12.4875C399.184 12.9105 399.054 13.2795 398.928 13.5945L396.822 19.5615H402.64ZM409.444 27H406.299C405.948 27 405.66 26.919 405.435 26.757C405.219 26.586 405.057 26.37 404.949 26.109L403.626 22.3695H395.823L394.5 26.109C394.41 26.334 394.252 26.541 394.027 26.73C393.802 26.91 393.519 27 393.177 27H390.004L397.659 7.4115H401.803L409.444 27ZM417.872 17.1585C419.141 17.1585 420.068 16.8525 420.653 16.2405C421.247 15.6285 421.544 14.7915 421.544 13.7295C421.544 13.2435 421.468 12.8025 421.315 12.4065C421.171 12.0015 420.946 11.6595 420.64 11.3805C420.343 11.0925 419.965 10.872 419.506 10.719C419.047 10.566 418.502 10.4895 417.872 10.4895H415.307V17.1585H417.872ZM417.872 7.4115C419.213 7.4115 420.37 7.569 421.342 7.884C422.323 8.199 423.128 8.64 423.758 9.207C424.388 9.765 424.852 10.431 425.149 11.205C425.455 11.979 425.608 12.8205 425.608 13.7295C425.608 14.6925 425.45 15.5745 425.135 16.3755C424.82 17.1765 424.343 17.865 423.704 18.441C423.065 19.017 422.26 19.467 421.288 19.791C420.316 20.106 419.177 20.2635 417.872 20.2635H415.307V27H411.257V7.4115H417.872ZM436.919 16.74C437.369 16.74 437.729 16.704 437.999 16.632C438.278 16.56 438.49 16.452 438.634 16.308C438.787 16.164 438.886 15.9885 438.931 15.7815C438.985 15.5745 439.012 15.336 439.012 15.066C439.012 14.805 438.989 14.58 438.944 14.391C438.899 14.193 438.809 14.031 438.674 13.905C438.548 13.77 438.364 13.671 438.121 13.608C437.878 13.536 437.563 13.5 437.176 13.5H435.88V16.74H436.919ZM442.873 23.112C443.62 22.365 444.205 21.4875 444.628 20.4795C445.051 19.4715 445.262 18.378 445.262 17.199C445.262 16.425 445.168 15.6825 444.979 14.9715C444.79 14.2605 444.52 13.599 444.169 12.987C443.827 12.366 443.413 11.8035 442.927 11.2995C442.441 10.7955 441.896 10.3635 441.293 10.0035C440.699 9.6435 440.056 9.369 439.363 9.18C438.67 8.982 437.95 8.883 437.203 8.883C436.078 8.883 435.029 9.099 434.057 9.531C433.085 9.963 432.239 10.5525 431.519 11.2995C430.808 12.0465 430.246 12.9285 429.832 13.9455C429.427 14.9535 429.224 16.038 429.224 17.199C429.224 18.36 429.427 19.4445 429.832 20.4525C430.246 21.4515 430.808 22.3245 431.519 23.0715C432.239 23.8095 433.085 24.3945 434.057 24.8265C435.029 25.2495 436.078 25.461 437.203 25.461C438.292 25.461 439.309 25.2675 440.254 24.8805C441.199 24.4845 442.031 23.9355 442.751 23.2335H439.849C439.408 23.2335 439.097 23.076 438.917 22.761L437.284 19.3995C437.194 19.2645 437.09 19.1655 436.973 19.1025C436.865 19.0305 436.699 18.9945 436.474 18.9945H435.88V23.2335H432.653V11.097H437.176C438.913 11.097 440.182 11.403 440.983 12.015C441.784 12.627 442.184 13.5045 442.184 14.6475C442.184 15.4305 441.986 16.1235 441.59 16.7265C441.203 17.3295 440.591 17.775 439.754 18.063C439.988 18.189 440.182 18.351 440.335 18.549C440.488 18.738 440.632 18.963 440.767 19.224L442.873 23.112ZM437.203 7.1955C438.121 7.1955 439.007 7.317 439.862 7.56C440.717 7.794 441.514 8.127 442.252 8.559C442.999 8.991 443.674 9.513 444.277 10.125C444.889 10.737 445.411 11.412 445.843 12.15C446.284 12.888 446.621 13.6845 446.855 14.5395C447.098 15.3945 447.22 16.281 447.22 17.199C447.22 18.117 447.098 19.0035 446.855 19.8585C446.621 20.7045 446.284 21.4965 445.843 22.2345C445.411 22.9725 444.889 23.6475 444.277 24.2595C443.674 24.8715 442.999 25.3935 442.252 25.8255C441.514 26.2575 440.717 26.595 439.862 26.838C439.007 27.072 438.121 27.189 437.203 27.189C436.285 27.189 435.398 27.072 434.543 26.838C433.697 26.595 432.905 26.2575 432.167 25.8255C431.429 25.3935 430.754 24.8715 430.142 24.2595C429.53 23.6475 429.008 22.9725 428.576 22.2345C428.144 21.4965 427.807 20.7045 427.564 19.8585C427.33 19.0035 427.213 18.117 427.213 17.199C427.213 16.281 427.33 15.3945 427.564 14.5395C427.807 13.6845 428.144 12.888 428.576 12.15C429.008 11.412 429.53 10.737 430.142 10.125C430.754 9.513 431.429 8.991 432.167 8.559C432.905 8.127 433.697 7.794 434.543 7.56C435.398 7.317 436.285 7.1955 437.203 7.1955ZM464.786 23.76C465.443 23.76 466.032 23.652 466.554 23.436C467.076 23.211 467.517 22.896 467.877 22.491C468.237 22.086 468.512 21.5955 468.701 21.0195C468.89 20.4435 468.984 19.7955 468.984 19.0755V7.4115H473.034V19.0755C473.034 20.2635 472.841 21.357 472.454 22.356C472.076 23.346 471.531 24.201 470.82 24.921C470.109 25.641 469.245 26.2035 468.228 26.6085C467.211 27.0135 466.064 27.216 464.786 27.216C463.508 27.216 462.356 27.0135 461.33 26.6085C460.313 26.2035 459.449 25.641 458.738 24.921C458.027 24.201 457.478 23.346 457.091 22.356C456.713 21.357 456.524 20.2635 456.524 19.0755V7.4115H460.574V19.0755C460.574 19.7955 460.668 20.4435 460.857 21.0195C461.046 21.5955 461.321 22.086 461.681 22.491C462.041 22.896 462.482 23.211 463.004 23.436C463.526 23.652 464.12 23.76 464.786 23.76ZM487.496 11.1645C487.37 11.3715 487.24 11.5245 487.105 11.6235C486.979 11.7135 486.812 11.7585 486.605 11.7585C486.407 11.7585 486.191 11.691 485.957 11.556C485.732 11.412 485.467 11.259 485.161 11.097C484.855 10.935 484.504 10.7865 484.108 10.6515C483.712 10.5075 483.248 10.4355 482.717 10.4355C481.781 10.4355 481.079 10.647 480.611 11.07C480.143 11.484 479.909 12.0285 479.909 12.7035C479.909 13.1355 480.035 13.4955 480.287 13.7835C480.548 14.0625 480.886 14.3055 481.3 14.5125C481.723 14.7195 482.2 14.904 482.731 15.066C483.262 15.228 483.806 15.408 484.364 15.606C484.922 15.795 485.467 16.02 485.998 16.281C486.529 16.542 487.001 16.8705 487.415 17.2665C487.838 17.6625 488.176 18.1485 488.428 18.7245C488.689 19.2915 488.819 19.9845 488.819 20.8035C488.819 21.6945 488.662 22.5315 488.347 23.3145C488.041 24.0885 487.595 24.768 487.01 25.353C486.425 25.929 485.701 26.3835 484.837 26.7165C483.982 27.0495 483.01 27.216 481.921 27.216C481.3 27.216 480.679 27.153 480.058 27.027C479.446 26.901 478.852 26.7255 478.276 26.5005C477.709 26.2755 477.173 26.0055 476.669 25.6905C476.165 25.3755 475.724 25.0245 475.346 24.6375L476.534 22.7205C476.633 22.5765 476.764 22.4595 476.926 22.3695C477.088 22.2705 477.259 22.221 477.439 22.221C477.682 22.221 477.938 22.311 478.208 22.491C478.478 22.671 478.789 22.869 479.14 23.085C479.491 23.301 479.896 23.499 480.355 23.679C480.823 23.859 481.381 23.949 482.029 23.949C482.974 23.949 483.703 23.733 484.216 23.301C484.738 22.869 484.999 22.2255 484.999 21.3705C484.999 20.8755 484.868 20.475 484.607 20.169C484.355 19.863 484.022 19.6065 483.608 19.3995C483.194 19.1925 482.722 19.017 482.191 18.873C481.66 18.72 481.115 18.5535 480.557 18.3735C479.999 18.1935 479.455 17.9775 478.924 17.7255C478.393 17.4735 477.92 17.1405 477.506 16.7265C477.092 16.3125 476.755 15.7995 476.494 15.1875C476.242 14.5755 476.116 13.815 476.116 12.906C476.116 12.177 476.26 11.4705 476.548 10.7865C476.836 10.1025 477.259 9.495 477.817 8.964C478.375 8.433 479.059 8.0055 479.869 7.6815C480.688 7.3575 481.624 7.1955 482.677 7.1955C483.856 7.1955 484.945 7.38 485.944 7.749C486.952 8.109 487.802 8.613 488.495 9.261L487.496 11.1645ZM146.963 45.4115V65H142.886V56.5625H134.26V65H130.183V45.4115H134.26V53.7275H142.886V45.4115H146.963ZM154.202 51.0815V65H150.476V51.0815H154.202ZM154.648 47.126C154.648 47.441 154.585 47.7335 154.459 48.0035C154.333 48.2735 154.162 48.512 153.946 48.719C153.739 48.926 153.491 49.088 153.203 49.205C152.924 49.322 152.623 49.3805 152.299 49.3805C151.993 49.3805 151.7 49.322 151.421 49.205C151.151 49.088 150.913 48.926 150.706 48.719C150.499 48.512 150.332 48.2735 150.206 48.0035C150.089 47.7335 150.031 47.441 150.031 47.126C150.031 46.811 150.089 46.5185 150.206 46.2485C150.332 45.9695 150.499 45.7265 150.706 45.5195C150.913 45.3125 151.151 45.1505 151.421 45.0335C151.7 44.9165 151.993 44.858 152.299 44.858C152.623 44.858 152.924 44.9165 153.203 45.0335C153.491 45.1505 153.739 45.3125 153.946 45.5195C154.162 45.7265 154.333 45.9695 154.459 46.2485C154.585 46.5185 154.648 46.811 154.648 47.126ZM166.035 53.9435C165.936 54.0965 165.833 54.209 165.725 54.281C165.626 54.344 165.486 54.3755 165.306 54.3755C165.126 54.3755 164.942 54.3305 164.753 54.2405C164.564 54.1505 164.352 54.056 164.118 53.957C163.884 53.849 163.614 53.75 163.308 53.66C163.011 53.57 162.665 53.525 162.269 53.525C161.666 53.525 161.198 53.651 160.865 53.903C160.532 54.146 160.365 54.47 160.365 54.875C160.365 55.154 160.46 55.388 160.649 55.577C160.838 55.766 161.085 55.9325 161.391 56.0765C161.706 56.2115 162.062 56.342 162.458 56.468C162.854 56.585 163.259 56.7155 163.673 56.8595C164.096 57.0035 164.505 57.17 164.901 57.359C165.297 57.548 165.648 57.7865 165.954 58.0745C166.269 58.3535 166.521 58.6955 166.71 59.1005C166.899 59.4965 166.994 59.978 166.994 60.545C166.994 61.22 166.868 61.8455 166.616 62.4215C166.373 62.9885 166.013 63.479 165.536 63.893C165.059 64.307 164.465 64.631 163.754 64.865C163.043 65.099 162.224 65.216 161.297 65.216C160.82 65.216 160.347 65.171 159.879 65.081C159.411 65 158.966 64.883 158.543 64.73C158.12 64.568 157.724 64.3835 157.355 64.1765C156.986 63.9695 156.666 63.7445 156.396 63.5015L157.26 62.111C157.359 61.949 157.481 61.823 157.625 61.733C157.778 61.643 157.971 61.598 158.205 61.598C158.43 61.598 158.637 61.6565 158.826 61.7735C159.015 61.8815 159.227 62.003 159.461 62.138C159.695 62.264 159.969 62.3855 160.284 62.5025C160.608 62.6105 161.009 62.6645 161.486 62.6645C161.846 62.6645 162.156 62.624 162.417 62.543C162.678 62.462 162.89 62.354 163.052 62.219C163.214 62.075 163.331 61.9175 163.403 61.7465C163.484 61.5665 163.524 61.382 163.524 61.193C163.524 60.887 163.425 60.6395 163.227 60.4505C163.038 60.2525 162.786 60.0815 162.471 59.9375C162.165 59.7935 161.81 59.663 161.405 59.546C161 59.429 160.586 59.2985 160.163 59.1545C159.749 59.0105 159.339 58.8395 158.934 58.6415C158.538 58.4435 158.183 58.196 157.868 57.899C157.562 57.593 157.31 57.2195 157.112 56.7785C156.923 56.3375 156.828 55.802 156.828 55.172C156.828 54.596 156.941 54.0515 157.166 53.5385C157.391 53.0165 157.728 52.5575 158.178 52.1615C158.628 51.7655 159.186 51.4505 159.852 51.2165C160.527 50.9825 161.306 50.8655 162.188 50.8655C163.178 50.8655 164.078 51.0275 164.888 51.3515C165.698 51.6755 166.364 52.0985 166.886 52.6205L166.035 53.9435ZM174.132 65.216C173.502 65.216 172.944 65.126 172.458 64.946C171.972 64.757 171.563 64.4915 171.23 64.1495C170.897 63.8075 170.645 63.3935 170.474 62.9075C170.303 62.4215 170.217 61.8725 170.217 61.2605V53.7545H168.908C168.71 53.7545 168.539 53.6915 168.395 53.5655C168.26 53.4395 168.192 53.2505 168.192 52.9985V51.5405L170.42 51.1355L171.176 47.531C171.275 47.126 171.549 46.9235 171.999 46.9235H173.943V51.1625H177.534V53.7545H173.943V61.0175C173.943 61.4045 174.033 61.7105 174.213 61.9355C174.402 62.1605 174.668 62.273 175.01 62.273C175.19 62.273 175.343 62.255 175.469 62.219C175.595 62.174 175.703 62.129 175.793 62.084C175.883 62.03 175.964 61.985 176.036 61.949C176.117 61.904 176.198 61.8815 176.279 61.8815C176.387 61.8815 176.477 61.9085 176.549 61.9625C176.621 62.0075 176.693 62.0885 176.765 62.2055L177.885 63.9875C177.372 64.3925 176.792 64.6985 176.144 64.9055C175.496 65.1125 174.825 65.216 174.132 65.216ZM185.676 50.8655C186.72 50.8655 187.669 51.032 188.524 51.365C189.379 51.698 190.113 52.175 190.725 52.796C191.337 53.408 191.809 54.155 192.142 55.037C192.475 55.919 192.642 56.9135 192.642 58.0205C192.642 59.1275 192.475 60.1265 192.142 61.0175C191.809 61.8995 191.337 62.651 190.725 63.272C190.113 63.893 189.379 64.37 188.524 64.703C187.669 65.036 186.72 65.2025 185.676 65.2025C184.623 65.2025 183.664 65.036 182.8 64.703C181.945 64.37 181.212 63.893 180.6 63.272C179.988 62.651 179.511 61.8995 179.169 61.0175C178.836 60.1265 178.669 59.1275 178.669 58.0205C178.669 56.9135 178.836 55.919 179.169 55.037C179.511 54.155 179.988 53.408 180.6 52.796C181.212 52.175 181.945 51.698 182.8 51.365C183.664 51.032 184.623 50.8655 185.676 50.8655ZM185.676 62.408C186.738 62.408 187.525 62.0435 188.038 61.3145C188.551 60.5765 188.808 59.483 188.808 58.034C188.808 56.594 188.551 55.5095 188.038 54.7805C187.525 54.0425 186.738 53.6735 185.676 53.6735C184.587 53.6735 183.786 54.0425 183.273 54.7805C182.76 55.5095 182.503 56.594 182.503 58.034C182.503 59.483 182.76 60.5765 183.273 61.3145C183.786 62.0435 184.587 62.408 185.676 62.408ZM198.478 53.3765C198.919 52.5845 199.427 51.959 200.003 51.5C200.579 51.041 201.254 50.8115 202.028 50.8115C202.658 50.8115 203.171 50.96 203.567 51.257L203.324 54.011C203.279 54.191 203.207 54.317 203.108 54.389C203.018 54.452 202.892 54.4835 202.73 54.4835C202.586 54.4835 202.379 54.4655 202.109 54.4295C201.839 54.3845 201.587 54.362 201.353 54.362C201.011 54.362 200.705 54.4115 200.435 54.5105C200.174 54.6095 199.94 54.749 199.733 54.929C199.526 55.109 199.337 55.3295 199.166 55.5905C199.004 55.8515 198.851 56.1485 198.707 56.4815V65H194.981V51.0815H197.182C197.56 51.0815 197.821 51.149 197.965 51.284C198.109 51.419 198.212 51.653 198.275 51.986L198.478 53.3765ZM218.065 51.0815L210.559 68.7395C210.442 68.9915 210.298 69.1805 210.127 69.3065C209.965 69.4325 209.704 69.4955 209.344 69.4955H206.577L209.209 63.8795L203.62 51.0815H206.887C207.184 51.0815 207.414 51.149 207.576 51.284C207.738 51.419 207.855 51.5765 207.927 51.7565L210.573 58.412C210.672 58.673 210.757 58.9385 210.829 59.2085C210.91 59.4695 210.987 59.7305 211.059 59.9915C211.221 59.4605 211.405 58.9295 211.612 58.3985L214.069 51.7565C214.141 51.5585 214.272 51.3965 214.461 51.2705C214.65 51.1445 214.857 51.0815 215.082 51.0815H218.065ZM236.375 49.1645C236.249 49.3715 236.118 49.5245 235.983 49.6235C235.857 49.7135 235.691 49.7585 235.484 49.7585C235.286 49.7585 235.07 49.691 234.836 49.556C234.611 49.412 234.345 49.259 234.039 49.097C233.733 48.935 233.382 48.7865 232.986 48.6515C232.59 48.5075 232.127 48.4355 231.596 48.4355C230.66 48.4355 229.958 48.647 229.49 49.07C229.022 49.484 228.788 50.0285 228.788 50.7035C228.788 51.1355 228.914 51.4955 229.166 51.7835C229.427 52.0625 229.764 52.3055 230.178 52.5125C230.601 52.7195 231.078 52.904 231.609 53.066C232.14 53.228 232.685 53.408 233.243 53.606C233.801 53.795 234.345 54.02 234.876 54.281C235.407 54.542 235.88 54.8705 236.294 55.2665C236.717 55.6625 237.054 56.1485 237.306 56.7245C237.567 57.2915 237.698 57.9845 237.698 58.8035C237.698 59.6945 237.54 60.5315 237.225 61.3145C236.919 62.0885 236.474 62.768 235.889 63.353C235.304 63.929 234.579 64.3835 233.715 64.7165C232.86 65.0495 231.888 65.216 230.799 65.216C230.178 65.216 229.557 65.153 228.936 65.027C228.324 64.901 227.73 64.7255 227.154 64.5005C226.587 64.2755 226.052 64.0055 225.548 63.6905C225.044 63.3755 224.603 63.0245 224.225 62.6375L225.413 60.7205C225.512 60.5765 225.642 60.4595 225.804 60.3695C225.966 60.2705 226.137 60.221 226.317 60.221C226.56 60.221 226.817 60.311 227.087 60.491C227.357 60.671 227.667 60.869 228.018 61.085C228.369 61.301 228.774 61.499 229.233 61.679C229.701 61.859 230.259 61.949 230.907 61.949C231.852 61.949 232.581 61.733 233.094 61.301C233.616 60.869 233.877 60.2255 233.877 59.3705C233.877 58.8755 233.747 58.475 233.486 58.169C233.234 57.863 232.901 57.6065 232.487 57.3995C232.073 57.1925 231.6 57.017 231.069 56.873C230.538 56.72 229.994 56.5535 229.436 56.3735C228.878 56.1935 228.333 55.9775 227.802 55.7255C227.271 55.4735 226.799 55.1405 226.385 54.7265C225.971 54.3125 225.633 53.7995 225.372 53.1875C225.12 52.5755 224.994 51.815 224.994 50.906C224.994 50.177 225.138 49.4705 225.426 48.7865C225.714 48.1025 226.137 47.495 226.695 46.964C227.253 46.433 227.937 46.0055 228.747 45.6815C229.566 45.3575 230.502 45.1955 231.555 45.1955C232.734 45.1955 233.823 45.38 234.822 45.749C235.83 46.109 236.681 46.613 237.374 47.261L236.375 49.1645ZM250.194 54.1865C250.086 54.3305 249.978 54.443 249.87 54.524C249.762 54.596 249.609 54.632 249.411 54.632C249.231 54.632 249.055 54.5825 248.884 54.4835C248.722 54.3755 248.533 54.263 248.317 54.146C248.101 54.02 247.845 53.9075 247.548 53.8085C247.251 53.7005 246.882 53.6465 246.441 53.6465C245.883 53.6465 245.397 53.75 244.983 53.957C244.578 54.155 244.24 54.443 243.97 54.821C243.7 55.199 243.498 55.658 243.363 56.198C243.237 56.738 243.174 57.3455 243.174 58.0205C243.174 59.4425 243.457 60.5315 244.024 61.2875C244.6 62.0435 245.383 62.4215 246.373 62.4215C246.715 62.4215 247.008 62.3945 247.251 62.3405C247.503 62.2775 247.719 62.201 247.899 62.111C248.088 62.021 248.25 61.922 248.385 61.814C248.52 61.706 248.646 61.607 248.763 61.517C248.889 61.427 249.01 61.355 249.127 61.301C249.253 61.238 249.393 61.2065 249.546 61.2065C249.834 61.2065 250.059 61.3145 250.221 61.5305L251.287 62.8805C250.891 63.3395 250.468 63.722 250.018 64.028C249.568 64.325 249.1 64.5635 248.614 64.7435C248.137 64.9145 247.651 65.0315 247.156 65.0945C246.661 65.1665 246.171 65.2025 245.685 65.2025C244.83 65.2025 244.02 65.045 243.255 64.73C242.49 64.406 241.819 63.938 241.243 63.326C240.667 62.714 240.208 61.9625 239.866 61.0715C239.533 60.1805 239.367 59.1635 239.367 58.0205C239.367 57.0035 239.515 56.0585 239.812 55.1855C240.109 54.3125 240.546 53.5565 241.122 52.9175C241.698 52.2785 242.409 51.779 243.255 51.419C244.11 51.05 245.095 50.8655 246.211 50.8655C247.273 50.8655 248.205 51.0365 249.006 51.3785C249.807 51.7205 250.527 52.2155 251.166 52.8635L250.194 54.1865ZM259.214 50.8655C260.258 50.8655 261.207 51.032 262.062 51.365C262.917 51.698 263.651 52.175 264.263 52.796C264.875 53.408 265.347 54.155 265.68 55.037C266.013 55.919 266.18 56.9135 266.18 58.0205C266.18 59.1275 266.013 60.1265 265.68 61.0175C265.347 61.8995 264.875 62.651 264.263 63.272C263.651 63.893 262.917 64.37 262.062 64.703C261.207 65.036 260.258 65.2025 259.214 65.2025C258.161 65.2025 257.202 65.036 256.338 64.703C255.483 64.37 254.75 63.893 254.138 63.272C253.526 62.651 253.049 61.8995 252.707 61.0175C252.374 60.1265 252.207 59.1275 252.207 58.0205C252.207 56.9135 252.374 55.919 252.707 55.037C253.049 54.155 253.526 53.408 254.138 52.796C254.75 52.175 255.483 51.698 256.338 51.365C257.202 51.032 258.161 50.8655 259.214 50.8655ZM259.214 62.408C260.276 62.408 261.063 62.0435 261.576 61.3145C262.089 60.5765 262.346 59.483 262.346 58.034C262.346 56.594 262.089 55.5095 261.576 54.7805C261.063 54.0425 260.276 53.6735 259.214 53.6735C258.125 53.6735 257.324 54.0425 256.811 54.7805C256.298 55.5095 256.041 56.594 256.041 58.034C256.041 59.483 256.298 60.5765 256.811 61.3145C257.324 62.0435 258.125 62.408 259.214 62.408ZM272.016 53.3765C272.457 52.5845 272.965 51.959 273.541 51.5C274.117 51.041 274.792 50.8115 275.566 50.8115C276.196 50.8115 276.709 50.96 277.105 51.257L276.862 54.011C276.817 54.191 276.745 54.317 276.646 54.389C276.556 54.452 276.43 54.4835 276.268 54.4835C276.124 54.4835 275.917 54.4655 275.647 54.4295C275.377 54.3845 275.125 54.362 274.891 54.362C274.549 54.362 274.243 54.4115 273.973 54.5105C273.712 54.6095 273.478 54.749 273.271 54.929C273.064 55.109 272.875 55.3295 272.704 55.5905C272.542 55.8515 272.389 56.1485 272.245 56.4815V65H268.519V51.0815H270.72C271.098 51.0815 271.359 51.149 271.503 51.284C271.647 51.419 271.75 51.653 271.813 51.986L272.016 53.3765ZM287.21 56.4005C287.21 56.0135 287.156 55.6445 287.048 55.2935C286.949 54.9425 286.787 54.632 286.562 54.362C286.337 54.092 286.053 53.8805 285.711 53.7275C285.369 53.5655 284.96 53.4845 284.483 53.4845C283.592 53.4845 282.894 53.7365 282.39 54.2405C281.886 54.7445 281.558 55.4645 281.405 56.4005H287.21ZM281.351 58.6145C281.468 59.9195 281.837 60.8735 282.458 61.4765C283.088 62.0795 283.907 62.381 284.915 62.381C285.428 62.381 285.869 62.3225 286.238 62.2055C286.616 62.0795 286.944 61.9445 287.223 61.8005C287.511 61.6475 287.768 61.5125 287.993 61.3955C288.227 61.2695 288.456 61.2065 288.681 61.2065C288.969 61.2065 289.194 61.3145 289.356 61.5305L290.436 62.8805C290.04 63.3395 289.604 63.722 289.127 64.028C288.65 64.325 288.155 64.5635 287.642 64.7435C287.129 64.9145 286.611 65.0315 286.089 65.0945C285.567 65.1665 285.063 65.2025 284.577 65.2025C283.605 65.2025 282.696 65.045 281.85 64.73C281.013 64.406 280.28 63.9335 279.65 63.3125C279.029 62.6825 278.538 61.904 278.178 60.977C277.818 60.05 277.638 58.9745 277.638 57.7505C277.638 56.8055 277.791 55.9145 278.097 55.0775C278.412 54.2405 278.862 53.5115 279.447 52.8905C280.032 52.2695 280.743 51.779 281.58 51.419C282.417 51.05 283.362 50.8655 284.415 50.8655C285.306 50.8655 286.125 51.0095 286.872 51.2975C287.628 51.5765 288.276 51.986 288.816 52.526C289.365 53.066 289.788 53.732 290.085 54.524C290.391 55.307 290.544 56.2025 290.544 57.2105C290.544 57.4895 290.531 57.719 290.504 57.899C290.477 58.079 290.432 58.223 290.369 58.331C290.306 58.439 290.22 58.5155 290.112 58.5605C290.004 58.5965 289.865 58.6145 289.694 58.6145H281.351ZM301.51 53.9435C301.411 54.0965 301.307 54.209 301.199 54.281C301.1 54.344 300.961 54.3755 300.781 54.3755C300.601 54.3755 300.416 54.3305 300.227 54.2405C300.038 54.1505 299.827 54.056 299.593 53.957C299.359 53.849 299.089 53.75 298.783 53.66C298.486 53.57 298.139 53.525 297.743 53.525C297.14 53.525 296.672 53.651 296.339 53.903C296.006 54.146 295.84 54.47 295.84 54.875C295.84 55.154 295.934 55.388 296.123 55.577C296.312 55.766 296.56 55.9325 296.866 56.0765C297.181 56.2115 297.536 56.342 297.932 56.468C298.328 56.585 298.733 56.7155 299.147 56.8595C299.57 57.0035 299.98 57.17 300.376 57.359C300.772 57.548 301.123 57.7865 301.429 58.0745C301.744 58.3535 301.996 58.6955 302.185 59.1005C302.374 59.4965 302.468 59.978 302.468 60.545C302.468 61.22 302.342 61.8455 302.09 62.4215C301.847 62.9885 301.487 63.479 301.01 63.893C300.533 64.307 299.939 64.631 299.228 64.865C298.517 65.099 297.698 65.216 296.771 65.216C296.294 65.216 295.822 65.171 295.354 65.081C294.886 65 294.44 64.883 294.017 64.73C293.594 64.568 293.198 64.3835 292.829 64.1765C292.46 63.9695 292.141 63.7445 291.871 63.5015L292.735 62.111C292.834 61.949 292.955 61.823 293.099 61.733C293.252 61.643 293.446 61.598 293.68 61.598C293.905 61.598 294.112 61.6565 294.301 61.7735C294.49 61.8815 294.701 62.003 294.935 62.138C295.169 62.264 295.444 62.3855 295.759 62.5025C296.083 62.6105 296.483 62.6645 296.96 62.6645C297.32 62.6645 297.631 62.624 297.892 62.543C298.153 62.462 298.364 62.354 298.526 62.219C298.688 62.075 298.805 61.9175 298.877 61.7465C298.958 61.5665 298.999 61.382 298.999 61.193C298.999 60.887 298.9 60.6395 298.702 60.4505C298.513 60.2525 298.261 60.0815 297.946 59.9375C297.64 59.7935 297.284 59.663 296.879 59.546C296.474 59.429 296.06 59.2985 295.637 59.1545C295.223 59.0105 294.814 58.8395 294.409 58.6415C294.013 58.4435 293.657 58.196 293.342 57.899C293.036 57.593 292.784 57.2195 292.586 56.7785C292.397 56.3375 292.303 55.802 292.303 55.172C292.303 54.596 292.415 54.0515 292.64 53.5385C292.865 53.0165 293.203 52.5575 293.653 52.1615C294.103 51.7655 294.661 51.4505 295.327 51.2165C296.002 50.9825 296.78 50.8655 297.662 50.8655C298.652 50.8655 299.552 51.0275 300.362 51.3515C301.172 51.6755 301.838 52.0985 302.36 52.6205L301.51 53.9435ZM317.485 50.8655C318.529 50.8655 319.479 51.032 320.334 51.365C321.189 51.698 321.922 52.175 322.534 52.796C323.146 53.408 323.619 54.155 323.952 55.037C324.285 55.919 324.451 56.9135 324.451 58.0205C324.451 59.1275 324.285 60.1265 323.952 61.0175C323.619 61.8995 323.146 62.651 322.534 63.272C321.922 63.893 321.189 64.37 320.334 64.703C319.479 65.036 318.529 65.2025 317.485 65.2025C316.432 65.2025 315.474 65.036 314.61 64.703C313.755 64.37 313.021 63.893 312.409 63.272C311.797 62.651 311.32 61.8995 310.978 61.0175C310.645 60.1265 310.479 59.1275 310.479 58.0205C310.479 56.9135 310.645 55.919 310.978 55.037C311.32 54.155 311.797 53.408 312.409 52.796C313.021 52.175 313.755 51.698 314.61 51.365C315.474 51.032 316.432 50.8655 317.485 50.8655ZM317.485 62.408C318.547 62.408 319.335 62.0435 319.848 61.3145C320.361 60.5765 320.617 59.483 320.617 58.034C320.617 56.594 320.361 55.5095 319.848 54.7805C319.335 54.0425 318.547 53.6735 317.485 53.6735C316.396 53.6735 315.595 54.0425 315.082 54.7805C314.569 55.5095 314.313 56.594 314.313 58.034C314.313 59.483 314.569 60.5765 315.082 61.3145C315.595 62.0435 316.396 62.408 317.485 62.408ZM327.434 65V53.7545L326.354 53.5655C326.075 53.5115 325.846 53.4125 325.666 53.2685C325.495 53.1245 325.409 52.9175 325.409 52.6475V51.1625H327.434V50.2445C327.434 49.4525 327.556 48.737 327.799 48.098C328.051 47.45 328.406 46.9055 328.865 46.4645C329.324 46.0145 329.887 45.668 330.553 45.425C331.219 45.182 331.97 45.0605 332.807 45.0605C333.131 45.0605 333.437 45.083 333.725 45.128C334.022 45.164 334.319 45.2225 334.616 45.3035L334.535 47.1395C334.517 47.4185 334.396 47.603 334.171 47.693C333.955 47.774 333.712 47.8145 333.442 47.8145C333.064 47.8145 332.722 47.855 332.416 47.936C332.119 48.017 331.867 48.1565 331.66 48.3545C331.453 48.5435 331.295 48.8045 331.187 49.1375C331.079 49.4615 331.025 49.8665 331.025 50.3525V51.1625H334.481V53.7545H331.147V65H327.434ZM341.881 50.933C342.025 49.979 342.295 49.142 342.691 48.422C343.087 47.702 343.582 47.1035 344.176 46.6265C344.77 46.1495 345.445 45.794 346.201 45.56C346.966 45.317 347.79 45.1955 348.672 45.1955C349.608 45.1955 350.445 45.3305 351.183 45.6005C351.93 45.8615 352.56 46.2215 353.073 46.6805C353.586 47.1395 353.977 47.675 354.247 48.287C354.526 48.899 354.666 49.556 354.666 50.258C354.666 50.879 354.598 51.428 354.463 51.905C354.337 52.373 354.144 52.7825 353.883 53.1335C353.631 53.4845 353.316 53.7815 352.938 54.0245C352.569 54.2675 352.141 54.47 351.655 54.632C353.905 55.37 355.03 56.8685 355.03 59.1275C355.03 60.1265 354.846 61.0085 354.477 61.7735C354.108 62.5295 353.613 63.164 352.992 63.677C352.371 64.19 351.646 64.577 350.818 64.838C349.999 65.09 349.14 65.216 348.24 65.216C347.286 65.216 346.444 65.108 345.715 64.892C344.986 64.676 344.343 64.352 343.785 63.92C343.236 63.488 342.763 62.948 342.367 62.3C341.971 61.643 341.625 60.878 341.328 60.005L342.975 59.33C343.407 59.15 343.807 59.1005 344.176 59.1815C344.554 59.2625 344.824 59.4605 344.986 59.7755C345.166 60.1175 345.355 60.4325 345.553 60.7205C345.76 61.0085 345.99 61.2605 346.242 61.4765C346.494 61.6835 346.777 61.8455 347.092 61.9625C347.416 62.0795 347.785 62.138 348.199 62.138C348.721 62.138 349.176 62.0525 349.563 61.8815C349.95 61.7105 350.274 61.49 350.535 61.22C350.796 60.941 350.989 60.6305 351.115 60.2885C351.25 59.9375 351.318 59.591 351.318 59.249C351.318 58.799 351.277 58.394 351.196 58.034C351.115 57.665 350.926 57.3545 350.629 57.1025C350.341 56.8415 349.909 56.6435 349.333 56.5085C348.766 56.3645 347.992 56.2925 347.011 56.2925V53.6735C347.83 53.6735 348.501 53.606 349.023 53.471C349.545 53.336 349.954 53.147 350.251 52.904C350.548 52.661 350.751 52.3685 350.859 52.0265C350.976 51.6845 351.034 51.311 351.034 50.906C351.034 50.051 350.809 49.3985 350.359 48.9485C349.918 48.4985 349.288 48.2735 348.469 48.2735C348.109 48.2735 347.776 48.3275 347.47 48.4355C347.173 48.5345 346.903 48.674 346.66 48.854C346.426 49.034 346.224 49.2455 346.053 49.4885C345.882 49.7315 345.756 49.997 345.675 50.285C345.504 50.735 345.283 51.0365 345.013 51.1895C344.743 51.3335 344.352 51.365 343.839 51.284L341.881 50.933ZM370.666 57.2915H365.536V62.759H362.512V57.2915H357.409V54.578H362.512V49.124H365.536V54.578H370.666V57.2915Z" fill="#2B6296"/>
<path d="M117.904 481.964C118.264 481.964 118.544 482.064 118.744 482.264C118.952 482.464 119.056 482.728 119.056 483.056V485H106.984V483.92C106.984 483.712 107.028 483.488 107.116 483.248C107.204 483 107.352 482.776 107.56 482.576L112.72 477.404C113.16 476.964 113.548 476.544 113.884 476.144C114.22 475.736 114.5 475.34 114.724 474.956C114.948 474.564 115.116 474.168 115.228 473.768C115.34 473.368 115.396 472.948 115.396 472.508C115.396 471.732 115.196 471.144 114.796 470.744C114.396 470.336 113.832 470.132 113.104 470.132C112.784 470.132 112.488 470.18 112.216 470.276C111.952 470.364 111.712 470.488 111.496 470.648C111.288 470.808 111.108 470.996 110.956 471.212C110.804 471.428 110.692 471.664 110.62 471.92C110.476 472.32 110.28 472.588 110.032 472.724C109.792 472.852 109.448 472.88 109 472.808L107.248 472.496C107.376 471.648 107.616 470.904 107.968 470.264C108.32 469.624 108.76 469.092 109.288 468.668C109.816 468.244 110.42 467.928 111.1 467.72C111.78 467.504 112.512 467.396 113.296 467.396C114.12 467.396 114.868 467.52 115.54 467.768C116.22 468.008 116.8 468.348 117.28 468.788C117.76 469.22 118.132 469.744 118.396 470.36C118.66 470.976 118.792 471.656 118.792 472.4C118.792 473.04 118.7 473.632 118.516 474.176C118.332 474.72 118.08 475.24 117.76 475.736C117.448 476.224 117.084 476.7 116.668 477.164C116.252 477.628 115.812 478.096 115.348 478.568L111.652 482.348C112.06 482.228 112.464 482.136 112.864 482.072C113.264 482 113.64 481.964 113.992 481.964H117.904ZM133.458 476.288C133.458 477.808 133.294 479.128 132.966 480.248C132.638 481.368 132.186 482.296 131.61 483.032C131.034 483.76 130.35 484.304 129.558 484.664C128.774 485.016 127.926 485.192 127.014 485.192C126.102 485.192 125.254 485.016 124.47 484.664C123.686 484.304 123.01 483.76 122.442 483.032C121.874 482.296 121.426 481.368 121.098 480.248C120.778 479.128 120.618 477.808 120.618 476.288C120.618 474.768 120.778 473.452 121.098 472.34C121.426 471.22 121.874 470.296 122.442 469.568C123.01 468.832 123.686 468.288 124.47 467.936C125.254 467.576 126.102 467.396 127.014 467.396C127.926 467.396 128.774 467.576 129.558 467.936C130.35 468.288 131.034 468.832 131.61 469.568C132.186 470.296 132.638 471.22 132.966 472.34C133.294 473.452 133.458 474.768 133.458 476.288ZM130.038 476.288C130.038 475.056 129.95 474.04 129.774 473.24C129.606 472.44 129.382 471.808 129.102 471.344C128.822 470.88 128.498 470.556 128.13 470.372C127.77 470.188 127.398 470.096 127.014 470.096C126.63 470.096 126.258 470.188 125.898 470.372C125.546 470.556 125.23 470.88 124.95 471.344C124.678 471.808 124.458 472.44 124.29 473.24C124.122 474.04 124.038 475.056 124.038 476.288C124.038 477.528 124.122 478.548 124.29 479.348C124.458 480.148 124.678 480.78 124.95 481.244C125.23 481.708 125.546 482.032 125.898 482.216C126.258 482.4 126.63 482.492 127.014 482.492C127.398 482.492 127.77 482.4 128.13 482.216C128.498 482.032 128.822 481.708 129.102 481.244C129.382 480.78 129.606 480.148 129.774 479.348C129.95 478.548 130.038 477.528 130.038 476.288ZM146.504 482.564V485H136.736V482.564H140.192V473.036C140.192 472.828 140.196 472.616 140.204 472.4C140.212 472.184 140.224 471.964 140.24 471.74L137.96 473.636C137.8 473.756 137.644 473.832 137.492 473.864C137.34 473.896 137.196 473.9 137.06 473.876C136.924 473.844 136.804 473.796 136.7 473.732C136.596 473.66 136.516 473.588 136.46 473.516L135.416 472.112L140.768 467.576H143.492V482.564H146.504ZM152.998 473.828C153.358 473.756 153.702 473.704 154.03 473.672C154.366 473.64 154.69 473.624 155.002 473.624C155.914 473.624 156.718 473.764 157.414 474.044C158.118 474.316 158.706 474.692 159.178 475.172C159.658 475.652 160.018 476.216 160.258 476.864C160.498 477.512 160.618 478.208 160.618 478.952C160.618 479.88 160.454 480.728 160.126 481.496C159.798 482.256 159.342 482.912 158.758 483.464C158.182 484.008 157.49 484.432 156.682 484.736C155.882 485.04 155.006 485.192 154.054 485.192C153.502 485.192 152.974 485.132 152.47 485.012C151.966 484.9 151.494 484.748 151.054 484.556C150.622 484.356 150.218 484.128 149.842 483.872C149.466 483.616 149.13 483.348 148.834 483.068L149.854 481.676C150.07 481.38 150.35 481.232 150.694 481.232C150.91 481.232 151.122 481.296 151.33 481.424C151.538 481.552 151.774 481.696 152.038 481.856C152.302 482.008 152.61 482.148 152.962 482.276C153.314 482.404 153.742 482.468 154.246 482.468C154.766 482.468 155.218 482.384 155.602 482.216C155.986 482.04 156.302 481.804 156.55 481.508C156.806 481.204 156.994 480.848 157.114 480.44C157.242 480.024 157.306 479.58 157.306 479.108C157.306 478.204 157.046 477.508 156.526 477.02C156.014 476.524 155.266 476.276 154.282 476.276C153.474 476.276 152.662 476.428 151.846 476.732L149.794 476.156L151.258 467.588H159.994V468.98C159.994 469.212 159.958 469.424 159.886 469.616C159.822 469.8 159.71 469.964 159.55 470.108C159.398 470.244 159.198 470.352 158.95 470.432C158.71 470.504 158.414 470.54 158.062 470.54H153.562L152.998 473.828Z" fill="#4F5355"/>
<path d="M333.904 481.964C334.264 481.964 334.544 482.064 334.744 482.264C334.952 482.464 335.056 482.728 335.056 483.056V485H322.984V483.92C322.984 483.712 323.028 483.488 323.116 483.248C323.204 483 323.352 482.776 323.56 482.576L328.72 477.404C329.16 476.964 329.548 476.544 329.884 476.144C330.22 475.736 330.5 475.34 330.724 474.956C330.948 474.564 331.116 474.168 331.228 473.768C331.34 473.368 331.396 472.948 331.396 472.508C331.396 471.732 331.196 471.144 330.796 470.744C330.396 470.336 329.832 470.132 329.104 470.132C328.784 470.132 328.488 470.18 328.216 470.276C327.952 470.364 327.712 470.488 327.496 470.648C327.288 470.808 327.108 470.996 326.956 471.212C326.804 471.428 326.692 471.664 326.62 471.92C326.476 472.32 326.28 472.588 326.032 472.724C325.792 472.852 325.448 472.88 325 472.808L323.248 472.496C323.376 471.648 323.616 470.904 323.968 470.264C324.32 469.624 324.76 469.092 325.288 468.668C325.816 468.244 326.42 467.928 327.1 467.72C327.78 467.504 328.512 467.396 329.296 467.396C330.12 467.396 330.868 467.52 331.54 467.768C332.22 468.008 332.8 468.348 333.28 468.788C333.76 469.22 334.132 469.744 334.396 470.36C334.66 470.976 334.792 471.656 334.792 472.4C334.792 473.04 334.7 473.632 334.516 474.176C334.332 474.72 334.08 475.24 333.76 475.736C333.448 476.224 333.084 476.7 332.668 477.164C332.252 477.628 331.812 478.096 331.348 478.568L327.652 482.348C328.06 482.228 328.464 482.136 328.864 482.072C329.264 482 329.64 481.964 329.992 481.964H333.904ZM349.458 476.288C349.458 477.808 349.294 479.128 348.966 480.248C348.638 481.368 348.186 482.296 347.61 483.032C347.034 483.76 346.35 484.304 345.558 484.664C344.774 485.016 343.926 485.192 343.014 485.192C342.102 485.192 341.254 485.016 340.47 484.664C339.686 484.304 339.01 483.76 338.442 483.032C337.874 482.296 337.426 481.368 337.098 480.248C336.778 479.128 336.618 477.808 336.618 476.288C336.618 474.768 336.778 473.452 337.098 472.34C337.426 471.22 337.874 470.296 338.442 469.568C339.01 468.832 339.686 468.288 340.47 467.936C341.254 467.576 342.102 467.396 343.014 467.396C343.926 467.396 344.774 467.576 345.558 467.936C346.35 468.288 347.034 468.832 347.61 469.568C348.186 470.296 348.638 471.22 348.966 472.34C349.294 473.452 349.458 474.768 349.458 476.288ZM346.038 476.288C346.038 475.056 345.95 474.04 345.774 473.24C345.606 472.44 345.382 471.808 345.102 471.344C344.822 470.88 344.498 470.556 344.13 470.372C343.77 470.188 343.398 470.096 343.014 470.096C342.63 470.096 342.258 470.188 341.898 470.372C341.546 470.556 341.23 470.88 340.95 471.344C340.678 471.808 340.458 472.44 340.29 473.24C340.122 474.04 340.038 475.056 340.038 476.288C340.038 477.528 340.122 478.548 340.29 479.348C340.458 480.148 340.678 480.78 340.95 481.244C341.23 481.708 341.546 482.032 341.898 482.216C342.258 482.4 342.63 482.492 343.014 482.492C343.398 482.492 343.77 482.4 344.13 482.216C344.498 482.032 344.822 481.708 345.102 481.244C345.382 480.78 345.606 480.148 345.774 479.348C345.95 478.548 346.038 477.528 346.038 476.288ZM362.504 482.564V485H352.736V482.564H356.192V473.036C356.192 472.828 356.196 472.616 356.204 472.4C356.212 472.184 356.224 471.964 356.24 471.74L353.96 473.636C353.8 473.756 353.644 473.832 353.492 473.864C353.34 473.896 353.196 473.9 353.06 473.876C352.924 473.844 352.804 473.796 352.7 473.732C352.596 473.66 352.516 473.588 352.46 473.516L351.416 472.112L356.768 467.576H359.492V482.564H362.504ZM370.426 473.84L369.898 474.476C370.202 474.34 370.53 474.236 370.882 474.164C371.234 474.092 371.614 474.056 372.022 474.056C372.67 474.056 373.302 474.164 373.918 474.38C374.534 474.596 375.082 474.92 375.562 475.352C376.042 475.784 376.426 476.328 376.714 476.984C377.01 477.632 377.158 478.396 377.158 479.276C377.158 480.084 377.006 480.848 376.702 481.568C376.406 482.288 375.982 482.916 375.43 483.452C374.886 483.988 374.23 484.412 373.462 484.724C372.702 485.036 371.854 485.192 370.918 485.192C369.966 485.192 369.114 485.044 368.362 484.748C367.61 484.444 366.97 484.02 366.442 483.476C365.914 482.932 365.51 482.284 365.23 481.532C364.95 480.772 364.81 479.936 364.81 479.024C364.81 478.184 364.974 477.332 365.302 476.468C365.638 475.604 366.146 474.716 366.826 473.804L370.87 468.356C371.03 468.148 371.266 467.968 371.578 467.816C371.89 467.664 372.246 467.588 372.646 467.588H375.586L370.426 473.84ZM370.858 482.528C371.29 482.528 371.69 482.452 372.058 482.3C372.426 482.148 372.742 481.936 373.006 481.664C373.27 481.392 373.478 481.076 373.63 480.716C373.782 480.348 373.858 479.948 373.858 479.516C373.858 479.044 373.786 478.62 373.642 478.244C373.498 477.868 373.294 477.552 373.03 477.296C372.766 477.032 372.45 476.832 372.082 476.696C371.714 476.56 371.306 476.492 370.858 476.492C370.434 476.492 370.046 476.568 369.694 476.72C369.342 476.864 369.038 477.072 368.782 477.344C368.534 477.608 368.338 477.924 368.194 478.292C368.058 478.66 367.99 479.064 367.99 479.504C367.99 479.96 368.05 480.376 368.17 480.752C368.29 481.12 368.47 481.436 368.71 481.7C368.95 481.964 369.246 482.168 369.598 482.312C369.958 482.456 370.378 482.528 370.858 482.528Z" fill="#4F5355"/>
<line y1="440.5" x2="500" y2="440.5" stroke="#C6C9CC"/>
<line y1="288.5" x2="500" y2="288.5" stroke="#C6C9CC"/>
<line y1="118.5" x2="500" y2="118.5" stroke="#C6C9CC"/>
<path d="M116.034 279.244V273.196C116.034 272.879 116.043 272.543 116.062 272.188C116.09 271.824 116.127 271.446 116.174 271.054L110.294 279.244H116.034ZM121.746 279.244V281.428C121.746 281.633 121.676 281.811 121.536 281.96C121.405 282.1 121.218 282.17 120.976 282.17H119.394V287H116.034V282.17H107.648C107.405 282.17 107.181 282.095 106.976 281.946C106.78 281.797 106.658 281.601 106.612 281.358L106.206 279.426L115.726 266.672H119.394V279.244H121.746ZM123.806 272.412C123.955 271.423 124.235 270.555 124.646 269.808C125.057 269.061 125.57 268.441 126.186 267.946C126.802 267.451 127.502 267.083 128.286 266.84C129.079 266.588 129.933 266.462 130.848 266.462C131.819 266.462 132.687 266.602 133.452 266.882C134.227 267.153 134.88 267.526 135.412 268.002C135.944 268.478 136.35 269.033 136.63 269.668C136.919 270.303 137.064 270.984 137.064 271.712C137.064 272.356 136.994 272.925 136.854 273.42C136.723 273.905 136.523 274.33 136.252 274.694C135.991 275.058 135.664 275.366 135.272 275.618C134.889 275.87 134.446 276.08 133.942 276.248C136.275 277.013 137.442 278.567 137.442 280.91C137.442 281.946 137.251 282.861 136.868 283.654C136.485 284.438 135.972 285.096 135.328 285.628C134.684 286.16 133.933 286.561 133.074 286.832C132.225 287.093 131.333 287.224 130.4 287.224C129.411 287.224 128.538 287.112 127.782 286.888C127.026 286.664 126.359 286.328 125.78 285.88C125.211 285.432 124.721 284.872 124.31 284.2C123.899 283.519 123.54 282.725 123.232 281.82L124.94 281.12C125.388 280.933 125.803 280.882 126.186 280.966C126.578 281.05 126.858 281.255 127.026 281.582C127.213 281.937 127.409 282.263 127.614 282.562C127.829 282.861 128.067 283.122 128.328 283.346C128.589 283.561 128.883 283.729 129.21 283.85C129.546 283.971 129.929 284.032 130.358 284.032C130.899 284.032 131.371 283.943 131.772 283.766C132.173 283.589 132.509 283.36 132.78 283.08C133.051 282.791 133.251 282.469 133.382 282.114C133.522 281.75 133.592 281.391 133.592 281.036C133.592 280.569 133.55 280.149 133.466 279.776C133.382 279.393 133.186 279.071 132.878 278.81C132.579 278.539 132.131 278.334 131.534 278.194C130.946 278.045 130.143 277.97 129.126 277.97V275.254C129.975 275.254 130.671 275.184 131.212 275.044C131.753 274.904 132.178 274.708 132.486 274.456C132.794 274.204 133.004 273.901 133.116 273.546C133.237 273.191 133.298 272.804 133.298 272.384C133.298 271.497 133.065 270.821 132.598 270.354C132.141 269.887 131.487 269.654 130.638 269.654C130.265 269.654 129.919 269.71 129.602 269.822C129.294 269.925 129.014 270.069 128.762 270.256C128.519 270.443 128.309 270.662 128.132 270.914C127.955 271.166 127.824 271.441 127.74 271.74C127.563 272.207 127.334 272.519 127.054 272.678C126.774 272.827 126.368 272.86 125.836 272.776L123.806 272.412ZM149.232 271.6C149.232 272.356 149.101 273.042 148.84 273.658C148.579 274.274 148.224 274.806 147.776 275.254C147.337 275.693 146.829 276.033 146.25 276.276C145.671 276.509 145.069 276.626 144.444 276.626C143.753 276.626 143.119 276.509 142.54 276.276C141.961 276.033 141.457 275.693 141.028 275.254C140.608 274.806 140.277 274.274 140.034 273.658C139.801 273.042 139.684 272.356 139.684 271.6C139.684 270.816 139.801 270.111 140.034 269.486C140.277 268.851 140.608 268.315 141.028 267.876C141.457 267.428 141.961 267.083 142.54 266.84C143.119 266.597 143.753 266.476 144.444 266.476C145.135 266.476 145.774 266.597 146.362 266.84C146.95 267.083 147.454 267.428 147.874 267.876C148.303 268.315 148.635 268.851 148.868 269.486C149.111 270.111 149.232 270.816 149.232 271.6ZM146.264 271.6C146.264 271.096 146.217 270.676 146.124 270.34C146.031 269.995 145.9 269.719 145.732 269.514C145.573 269.309 145.382 269.164 145.158 269.08C144.934 268.987 144.696 268.94 144.444 268.94C144.192 268.94 143.954 268.987 143.73 269.08C143.515 269.164 143.329 269.309 143.17 269.514C143.021 269.719 142.899 269.995 142.806 270.34C142.722 270.676 142.68 271.096 142.68 271.6C142.68 272.095 142.722 272.505 142.806 272.832C142.899 273.159 143.021 273.425 143.17 273.63C143.329 273.826 143.515 273.966 143.73 274.05C143.954 274.134 144.192 274.176 144.444 274.176C144.696 274.176 144.934 274.134 145.158 274.05C145.382 273.966 145.573 273.826 145.732 273.63C145.9 273.425 146.031 273.159 146.124 272.832C146.217 272.505 146.264 272.095 146.264 271.6ZM155.812 267.274C155.943 267.125 156.097 266.989 156.274 266.868C156.461 266.747 156.717 266.686 157.044 266.686H159.858L144.668 286.44C144.537 286.599 144.379 286.734 144.192 286.846C144.005 286.949 143.777 287 143.506 287H140.636L155.812 267.274ZM160.796 282.226C160.796 282.982 160.665 283.668 160.404 284.284C160.143 284.9 159.788 285.432 159.34 285.88C158.901 286.319 158.393 286.659 157.814 286.902C157.235 287.135 156.633 287.252 156.008 287.252C155.317 287.252 154.683 287.135 154.104 286.902C153.525 286.659 153.021 286.319 152.592 285.88C152.172 285.432 151.841 284.9 151.598 284.284C151.365 283.668 151.248 282.982 151.248 282.226C151.248 281.442 151.365 280.737 151.598 280.112C151.841 279.477 152.172 278.941 152.592 278.502C153.021 278.054 153.525 277.713 154.104 277.48C154.683 277.237 155.317 277.116 156.008 277.116C156.699 277.116 157.338 277.237 157.926 277.48C158.514 277.713 159.018 278.054 159.438 278.502C159.867 278.941 160.199 279.477 160.432 280.112C160.675 280.737 160.796 281.442 160.796 282.226ZM157.828 282.226C157.828 281.722 157.781 281.302 157.688 280.966C157.595 280.621 157.464 280.345 157.296 280.14C157.137 279.935 156.946 279.79 156.722 279.706C156.498 279.613 156.26 279.566 156.008 279.566C155.756 279.566 155.518 279.613 155.294 279.706C155.079 279.79 154.893 279.935 154.734 280.14C154.585 280.345 154.463 280.621 154.37 280.966C154.286 281.302 154.244 281.722 154.244 282.226C154.244 282.721 154.286 283.131 154.37 283.458C154.463 283.785 154.585 284.051 154.734 284.256C154.893 284.452 155.079 284.592 155.294 284.676C155.518 284.76 155.756 284.802 156.008 284.802C156.26 284.802 156.498 284.76 156.722 284.676C156.946 284.592 157.137 284.452 157.296 284.256C157.464 284.051 157.595 283.785 157.688 283.458C157.781 283.131 157.828 282.721 157.828 282.226Z" fill="#4F5355"/>
<path d="M328.1 242.966C328.52 242.882 328.921 242.821 329.304 242.784C329.696 242.747 330.074 242.728 330.438 242.728C331.502 242.728 332.44 242.891 333.252 243.218C334.073 243.535 334.759 243.974 335.31 244.534C335.87 245.094 336.29 245.752 336.57 246.508C336.85 247.264 336.99 248.076 336.99 248.944C336.99 250.027 336.798 251.016 336.416 251.912C336.033 252.799 335.501 253.564 334.82 254.208C334.148 254.843 333.34 255.337 332.398 255.692C331.464 256.047 330.442 256.224 329.332 256.224C328.688 256.224 328.072 256.154 327.484 256.014C326.896 255.883 326.345 255.706 325.832 255.482C325.328 255.249 324.856 254.983 324.418 254.684C323.979 254.385 323.587 254.073 323.242 253.746L324.432 252.122C324.684 251.777 325.01 251.604 325.412 251.604C325.664 251.604 325.911 251.679 326.154 251.828C326.396 251.977 326.672 252.145 326.98 252.332C327.288 252.509 327.647 252.673 328.058 252.822C328.468 252.971 328.968 253.046 329.556 253.046C330.162 253.046 330.69 252.948 331.138 252.752C331.586 252.547 331.954 252.271 332.244 251.926C332.542 251.571 332.762 251.156 332.902 250.68C333.051 250.195 333.126 249.677 333.126 249.126C333.126 248.071 332.822 247.259 332.216 246.69C331.618 246.111 330.746 245.822 329.598 245.822C328.655 245.822 327.708 245.999 326.756 246.354L324.362 245.682L326.07 235.686H336.262V237.31C336.262 237.581 336.22 237.828 336.136 238.052C336.061 238.267 335.93 238.458 335.744 238.626C335.566 238.785 335.333 238.911 335.044 239.004C334.764 239.088 334.418 239.13 334.008 239.13H328.758L328.1 242.966ZM348.276 248.244V242.196C348.276 241.879 348.285 241.543 348.304 241.188C348.332 240.824 348.369 240.446 348.416 240.054L342.536 248.244H348.276ZM353.988 248.244V250.428C353.988 250.633 353.918 250.811 353.778 250.96C353.647 251.1 353.461 251.17 353.218 251.17H351.636V256H348.276V251.17H339.89C339.647 251.17 339.423 251.095 339.218 250.946C339.022 250.797 338.901 250.601 338.854 250.358L338.448 248.426L347.968 235.672H351.636V248.244H353.988ZM365.232 240.6C365.232 241.356 365.101 242.042 364.84 242.658C364.579 243.274 364.224 243.806 363.776 244.254C363.337 244.693 362.829 245.033 362.25 245.276C361.671 245.509 361.069 245.626 360.444 245.626C359.753 245.626 359.119 245.509 358.54 245.276C357.961 245.033 357.457 244.693 357.028 244.254C356.608 243.806 356.277 243.274 356.034 242.658C355.801 242.042 355.684 241.356 355.684 240.6C355.684 239.816 355.801 239.111 356.034 238.486C356.277 237.851 356.608 237.315 357.028 236.876C357.457 236.428 357.961 236.083 358.54 235.84C359.119 235.597 359.753 235.476 360.444 235.476C361.135 235.476 361.774 235.597 362.362 235.84C362.95 236.083 363.454 236.428 363.874 236.876C364.303 237.315 364.635 237.851 364.868 238.486C365.111 239.111 365.232 239.816 365.232 240.6ZM362.264 240.6C362.264 240.096 362.217 239.676 362.124 239.34C362.031 238.995 361.9 238.719 361.732 238.514C361.573 238.309 361.382 238.164 361.158 238.08C360.934 237.987 360.696 237.94 360.444 237.94C360.192 237.94 359.954 237.987 359.73 238.08C359.515 238.164 359.329 238.309 359.17 238.514C359.021 238.719 358.899 238.995 358.806 239.34C358.722 239.676 358.68 240.096 358.68 240.6C358.68 241.095 358.722 241.505 358.806 241.832C358.899 242.159 359.021 242.425 359.17 242.63C359.329 242.826 359.515 242.966 359.73 243.05C359.954 243.134 360.192 243.176 360.444 243.176C360.696 243.176 360.934 243.134 361.158 243.05C361.382 242.966 361.573 242.826 361.732 242.63C361.9 242.425 362.031 242.159 362.124 241.832C362.217 241.505 362.264 241.095 362.264 240.6ZM371.812 236.274C371.943 236.125 372.097 235.989 372.274 235.868C372.461 235.747 372.717 235.686 373.044 235.686H375.858L360.668 255.44C360.537 255.599 360.379 255.734 360.192 255.846C360.005 255.949 359.777 256 359.506 256H356.636L371.812 236.274ZM376.796 251.226C376.796 251.982 376.665 252.668 376.404 253.284C376.143 253.9 375.788 254.432 375.34 254.88C374.901 255.319 374.393 255.659 373.814 255.902C373.235 256.135 372.633 256.252 372.008 256.252C371.317 256.252 370.683 256.135 370.104 255.902C369.525 255.659 369.021 255.319 368.592 254.88C368.172 254.432 367.841 253.9 367.598 253.284C367.365 252.668 367.248 251.982 367.248 251.226C367.248 250.442 367.365 249.737 367.598 249.112C367.841 248.477 368.172 247.941 368.592 247.502C369.021 247.054 369.525 246.713 370.104 246.48C370.683 246.237 371.317 246.116 372.008 246.116C372.699 246.116 373.338 246.237 373.926 246.48C374.514 246.713 375.018 247.054 375.438 247.502C375.867 247.941 376.199 248.477 376.432 249.112C376.675 249.737 376.796 250.442 376.796 251.226ZM373.828 251.226C373.828 250.722 373.781 250.302 373.688 249.966C373.595 249.621 373.464 249.345 373.296 249.14C373.137 248.935 372.946 248.79 372.722 248.706C372.498 248.613 372.26 248.566 372.008 248.566C371.756 248.566 371.518 248.613 371.294 248.706C371.079 248.79 370.893 248.935 370.734 249.14C370.585 249.345 370.463 249.621 370.37 249.966C370.286 250.302 370.244 250.722 370.244 251.226C370.244 251.721 370.286 252.131 370.37 252.458C370.463 252.785 370.585 253.051 370.734 253.256C370.893 253.452 371.079 253.592 371.294 253.676C371.518 253.76 371.756 253.802 372.008 253.802C372.26 253.802 372.498 253.76 372.722 253.676C372.946 253.592 373.137 253.452 373.296 253.256C373.464 253.051 373.595 252.785 373.688 252.458C373.781 252.131 373.828 251.721 373.828 251.226Z" fill="#4F5355"/>
<path d="M36 318C36 312.477 40.4772 308 46 308H222C227.523 308 232 312.477 232 318V441H36V318Z" fill="#399FDF"/>
<path d="M252 287C252 281.477 256.477 277 262 277H438C443.523 277 448 281.477 448 287V441H252V287Z" fill="#1ABC9C"/>
</svg>
