<?xml version="1.0" encoding="UTF-8"?>
<svg width="206px" height="198px" viewBox="0 0 206 198" version="1.1" xmlns="http://www.w3.org/2000/svg" xmlns:xlink="http://www.w3.org/1999/xlink">
    <!-- Generator: Sketch 49.2 (51160) - http://www.bohemiancoding.com/sketch -->
    <title>logo-mark-white</title>
    <desc>Created with Sketch.</desc>
    <defs></defs>
    <g id="logo-mark-white" stroke="none" stroke-width="1" fill="none" fill-rule="evenodd">
        <g id="albert-logo-mark" transform="translate(0.000000, -1.000000)" fill="#FFFFFF">
            <g id="Shape">
                <path d="M206.052157,121.037464 C205.7343,108.559078 204.347289,96.0806916 201.399889,83.9193084 C198.539178,72.1613833 194.146975,60.7492795 187.847632,50.4322767 C180.421342,38.1556196 170.018756,27.5504323 157.477861,20.4899135 C153.750268,18.3861671 149.849298,16.5706052 145.803848,15.2161383 C145.457095,15.129683 145.139239,14.9855908 144.821382,14.8414986 C149.444753,12.9971182 154.183709,11.4985591 158.864872,9.82708934 C159.61617,9.62536023 159.558378,8.41498559 158.835976,8.24207493 C140.082426,2.91066282 119.855176,2.39193084 100.986042,7.49279539 C97.4896172,8.41498559 94.0509847,9.56772334 90.6701444,10.9221902 C92.7506615,8.24207493 94.9467629,5.61959654 97.1428643,2.99711816 C97.5474093,2.5648415 97.2584486,1.95965418 96.9694879,1.58501441 L96.189294,1.58501441 C81.9435309,3.86167147 67.9578324,8.1556196 55.3591453,15.4466859 C44.6098068,21.556196 35.0741033,29.7694524 27.5033327,39.481268 C18.0832134,51.4985591 11.6104935,65.6195965 7.50725137,80.259366 C3.83745032,93.2564841 1.90141355,106.714697 1.1501157,120.230548 C0.138753207,140.806916 1.61245284,161.469741 5.51342246,181.729107 C5.71569495,182.824207 5.71569495,184.063401 6.35140852,185.043228 C6.8715378,185.936599 8.11406887,186.10951 9.00984707,185.677233 C9.87672921,185.273775 10.1656899,184.26513 10.599131,183.458213 C13.2575695,178.299712 15.8293199,173.054755 18.4588624,167.896254 C18.9789916,166.657061 21.0884048,166.282421 21.7530145,167.579251 C22.6487927,169.25072 22.4754163,171.210375 22.5043123,173.054755 C22.5621045,177.291066 23.2556102,181.613833 25.1627509,185.417867 C26.6075545,188.299712 28.8036559,190.806916 31.4620944,192.622478 C34.7851426,194.956772 38.7439044,196.224784 42.7026661,197.0317 C50.2445407,198.472622 58.0175839,198.414986 65.6750428,198.414986 C70.2984142,198.357349 75.0084738,197.435159 79.0828198,195.244957 C82.0880112,193.688761 84.6308655,191.383285 86.6535905,188.70317 C90.7279365,183.314121 93.0685183,176.887608 94.9178668,170.461095 C95.8136451,167.579251 96.7383193,164.524496 98.64546,162.132565 C99.8013029,160.662824 101.621755,159.711816 103.5,159.855908 C105.522725,159.884726 107.256489,161.210375 108.325644,162.824207 C110.348369,165.821326 111.157459,169.423631 112.226614,172.853026 C114.047066,178.847262 116.532128,184.841499 120.577578,189.740634 C124.045107,194.063401 129.188607,196.772334 134.534381,197.809798 C137.279507,198.32853 140.024634,198.472622 142.798657,198.443804 C148.95352,198.443804 155.108383,198.414986 161.205454,197.492795 C165.2798,196.85879 169.32525,195.850144 172.966155,193.861671 C176.000243,192.190202 178.658681,189.798271 180.479134,186.829971 C182.848612,182.881844 183.74439,178.242075 183.88887,173.688761 C184.004454,171.902017 183.802182,170.115274 184.322311,168.414986 C184.524584,167.809798 184.813544,167.146974 185.420362,166.85879 C186.373932,166.541787 187.529775,166.887608 187.963216,167.838617 C190.823927,173.429395 193.626846,179.07781 196.458661,184.668588 C196.97879,185.907781 198.770347,186.311239 199.752813,185.417867 C200.504111,184.755043 200.706384,183.717579 200.850864,182.766571 C202.122291,173.227666 203.711575,163.659942 204.665145,154.092219 C205.792092,143.14121 206.341118,132.074928 206.052157,121.037464 Z M82.6370366,182.363112 C80.3253509,185.533141 77.1756791,188.126801 73.5925663,189.740634 C69.836077,191.440922 65.6750428,192.103746 61.5718006,192.04611 C56.4283,192.074928 51.2559032,191.873199 46.1412986,191.008646 C42.5870818,190.37464 39.003969,189.423631 35.9120894,187.521614 C33.4559233,185.994236 31.4909905,183.746398 30.3351476,181.095101 C28.8325519,177.608069 28.5146952,173.746398 28.7169677,170 C28.7169677,166.426513 28.8325519,162.622478 30.7396926,159.45245 C32.5601451,156.340058 35.7965051,154.351585 39.1484494,153.227666 C42.3559133,152.132565 45.6789615,151.642651 48.9731136,151.354467 C54.9257043,150.979827 60.8782949,151.210375 66.8019895,151.786744 C71.8010099,152.363112 76.8578223,153.14121 81.5389859,155.100865 C83.6772951,156.023055 85.7578123,157.262248 87.1737198,159.164265 C88.1272901,160.432277 88.5896272,162.074928 88.5318351,163.659942 C88.4162508,170.259366 86.5957983,176.974063 82.6370366,182.363112 Z M176.982709,174.092219 C176.693748,178.126801 175.480113,182.305476 172.590506,185.273775 C169.614211,188.299712 165.424281,189.769452 161.349935,190.634006 C155.744097,191.757925 149.993779,192.017291 144.330149,191.988473 C141.498334,192.04611 138.637623,191.729107 135.8636,191.008646 C130.893476,189.711816 126.414584,186.743516 123.351601,182.622478 C119.248359,177.146974 117.283426,170.172911 117.25453,163.400576 C117.138946,160.951009 118.525957,158.70317 120.433098,157.291066 C123.207121,155.129683 126.645753,154.063401 129.997697,153.256484 C134.678861,152.161383 139.475609,151.67147 144.24346,151.354467 C150.773973,151.066282 157.420069,150.92219 163.806101,152.391931 C167.620382,153.314121 171.521352,154.899135 174.03531,158.011527 C176.173619,160.54755 176.867125,163.976945 176.982709,167.204611 C177.011605,169.510086 177.127189,171.786744 176.982709,174.092219 Z M197.412232,151.152738 C197.209959,155.821326 197.094375,160.489914 196.632038,165.100865 C194.724897,161.383285 192.904444,157.636888 191.0262,153.89049 C190.274902,152.363112 188.88789,151.210375 187.26971,150.74928 C174.121998,146.85879 160.396364,144.956772 146.699626,145.129683 C139.38892,145.273775 132.049318,146.167147 125.143157,148.674352 C122.975952,149.45245 120.895435,150.37464 118.757126,151.325648 C117.601283,151.815562 116.416544,152.363112 115.174013,152.478386 C111.44642,152.737752 107.921099,151.123919 104.222402,151.037464 C101.939612,150.92219 99.6568225,151.066282 97.4607211,151.613833 C95.2646197,152.132565 92.9818301,152.59366 90.7279365,152.536023 C89.4276133,152.420749 88.1850822,151.873199 86.9714473,151.383285 C83.7061912,149.942363 80.4120391,148.530259 76.9734066,147.608069 C68.0156245,145.100865 58.5666092,144.956772 49.3198664,145.446686 C38.8883847,146.080692 28.5146952,147.896254 18.5166545,150.864553 C16.9851627,151.325648 15.6559435,152.391931 14.9046456,153.804035 C12.9686088,157.665706 11.0325721,161.556196 9.09653529,165.389049 C8.83647065,164.927954 8.92315886,164.351585 8.89426279,163.861671 C8.43192565,156.224784 8.37413351,148.559078 8.51861386,140.893372 C8.72088636,132.737752 9.24101564,124.553314 10.2812742,116.455331 C11.6971817,105.850144 13.835491,95.2449568 18.0543174,85.3602305 C20.7705481,78.9337176 24.5559334,72.6801153 30.1328751,68.2420749 C34.6117662,64.6685879 40.2465001,62.6512968 45.9390261,62.5936599 C51.8338246,62.5360231 57.6997271,63.0259366 63.4500453,64.2651297 C69.1425713,65.5043228 74.690617,67.4927954 80.3542469,68.8472622 C86.9714473,70.518732 93.8198161,71.29683 100.668185,71.3544669 C101.88182,71.4121037 103.037663,71.4697406 104.251298,71.3544669 C109.857136,71.29683 115.462973,70.778098 120.953227,69.6829971 C128.928543,68.1268012 136.557105,65.0144092 144.590213,63.6599424 C147.826573,63.0835735 151.034037,62.7665706 154.299293,62.6224784 C156.89994,62.5648415 159.500586,62.4495677 162.101232,62.7665706 C166.464539,63.2564841 170.683366,64.7550432 174.324271,67.1757925 C179.149914,70.3170029 182.877508,74.9279539 185.709323,79.8559078 C188.974579,85.6195965 191.17068,91.9020173 192.78886,98.2708934 C195.765155,110.028818 196.949894,122.161383 197.383335,134.293948 C197.585608,139.913545 197.527816,145.533141 197.412232,151.152738 Z"></path>
                <path d="M37.6169576,124.149856 C42.4426015,121.469741 47.903959,120.086455 53.3942125,119.567723 C61.8318653,118.847262 70.4717906,120.086455 78.2737298,123.458213 C81.3945055,124.870317 84.5730733,126.628242 86.5669023,129.538905 C88.4451469,132.161383 87.5493687,136.253602 84.833138,137.925072 C82.9259973,139.164265 80.4698312,139.135447 78.360418,138.70317 C68.0734167,136.541787 57.5552467,135.56196 47.0659729,136.368876 C38.1659829,137.118156 29.265993,139.279539 21.3484695,143.429395 C20.9728206,143.688761 20.3082109,143.717579 19.9903541,143.285303 C19.7302895,142.910663 19.8458738,142.391931 20.1348345,142.074928 C22.3309359,139.048991 25.3939195,136.772334 28.4857991,134.755043 C33.6292998,131.527378 39.2640337,129.164265 44.9565597,127.146974 C43.3383797,126.426513 41.5757194,126.10951 39.8419551,125.907781 C39.0617612,125.792507 38.2526712,125.850144 37.4724772,125.590778 C37.0968283,125.158501 37.0101401,124.409222 37.6169576,124.149856 Z"></path>
                <path d="M137.828533,120.144092 C147.364236,118.559078 157.564549,119.25072 166.320059,123.631124 C166.782396,123.919308 167.447006,124.092219 167.678174,124.668588 C167.822655,125.244957 167.360317,125.792507 166.7535,125.763689 C164.441814,125.936599 162.101232,126.253602 159.934027,127.146974 C165.857722,129.279539 171.665832,131.700288 176.982709,135.100865 C179.959004,137.0317 182.819716,139.279539 184.900233,142.21902 C185.50705,142.939481 184.582376,144.034582 183.773286,143.51585 C179.583356,141.325648 175.133361,139.62536 170.538885,138.472622 C162.56357,136.397695 154.270397,135.850144 146.092809,136.167147 C139.475609,136.455331 132.916201,137.377522 126.414584,138.70317 C124.218483,139.135447 121.762317,139.048991 119.884072,137.752161 C117.370114,136.023055 116.561024,132.161383 118.294788,129.62536 C119.595112,127.579251 121.675629,126.138329 123.756146,124.927954 C128.061661,122.449568 132.916201,120.979827 137.828533,120.144092 Z"></path>
            </g>
        </g>
    </g>
</svg>