<?xml version="1.0" encoding="UTF-8"?>
<svg width="137px" height="134px" viewBox="0 0 137 134" version="1.1" xmlns="http://www.w3.org/2000/svg" xmlns:xlink="http://www.w3.org/1999/xlink">
    <!-- Generator: Sketch 52.1 (67048) - http://www.bohemiancoding.com/sketch -->
    <title>mastery_math_geometry</title>
    <desc>Created with Sketch.</desc>
    <g id="mastery_math_geometry" stroke="none" stroke-width="1" fill="none" fill-rule="evenodd">
        <path d="M92.0096,85.779562 L44.3808,85.779562 C43.7952,85.779562 43.4048,85.3883212 43.4048,84.8014599 L43.4048,48.6116788 C43.4048,48.220438 43.6,47.9270073 43.9904,47.7313869 C44.2832,47.5357664 44.6736,47.6335766 44.9664,47.8291971 L92.5952,84.1167883 C92.888,84.410219 93.0832,84.8014599 92.888,85.1927007 C92.7904,85.5839416 92.4,85.779562 92.0096,85.779562 Z" id="Shape" fill="#FFFFFF" fill-rule="nonzero" opacity="0.5"></path>
        <g id="mastery-math-geometry" transform="translate(7.000000, 0.000000)" fill-rule="nonzero">
            <g id="Group" transform="translate(0.000000, 46.948905)" fill="#FFFFFF" opacity="0.5">
                <path d="M14.152,12.519708 L24.3024,12.519708 L24.3024,1.36934307 C24.3024,0.782481752 24.6928,0.391240876 25.2784,0.391240876 C25.864,0.391240876 26.2544,0.782481752 26.2544,1.36934307 L26.2544,12.519708 L37.4784,12.519708 C38.064,12.519708 38.4544,12.9109489 38.4544,13.4978102 C38.4544,14.0846715 37.9664,14.4759124 37.4784,14.4759124 L26.2544,14.4759124 L26.2544,24.7459854 L37.4784,24.7459854 C38.064,24.7459854 38.4544,25.1372263 38.4544,25.7240876 C38.4544,26.3109489 37.9664,26.7021898 37.4784,26.7021898 L26.2544,26.7021898 L26.2544,37.950365 C26.2544,38.4394161 25.864,38.9284672 25.2784,38.9284672 C24.6928,38.9284672 24.3024,38.5372263 24.3024,37.950365 L24.3024,26.7021898 L14.152,26.7021898 L14.152,37.950365 C14.152,38.4394161 13.664,38.9284672 13.176,38.9284672 C12.5904,38.9284672 12.2,38.5372263 12.2,37.950365 L12.2,26.7021898 L0.976,26.7021898 C0.3904,26.7021898 0,26.3109489 0,25.7240876 C0,25.1372263 0.3904,24.7459854 0.976,24.7459854 L12.2,24.7459854 L12.2,14.4759124 L0.976,14.4759124 C0.3904,14.4759124 0,14.0846715 0,13.4978102 C0,12.9109489 0.3904,12.519708 0.976,12.519708 L12.2,12.519708 L12.2,1.36934307 C12.2,0.782481752 12.5904,0.391240876 13.176,0.391240876 C13.7616,0.391240876 14.152,0.782481752 14.152,1.36934307 L14.152,12.519708 Z M14.152,14.4759124 L14.152,24.7459854 L24.3024,24.7459854 L24.3024,14.4759124 L14.152,14.4759124 Z" id="Combined-Shape"></path>
            </g>
            <path d="M85.0096,85.8773723 L37.3808,85.8773723 C36.7952,85.8773723 36.4048,85.4861314 36.4048,84.8992701 C36.4048,84.3124088 36.7952,83.9211679 37.3808,83.9211679 L85.0096,83.9211679 C85.5952,83.9211679 85.9856,84.3124088 85.9856,84.8992701 C85.9856,85.4861314 85.4976,85.8773723 85.0096,85.8773723 Z" id="Shape" fill="#F3714E"></path>
            <path d="M50.264,121.578102 L50.264,132.630657 C50.264,133.119708 49.8736,133.510949 49.288,133.510949 C48.7024,133.510949 48.312,133.119708 48.312,132.532847 L48.312,121.578102 L37.3808,121.578102 C36.7952,121.578102 36.4048,121.186861 36.4048,120.6 C36.4048,120.013139 36.7952,119.621898 37.3808,119.621898 L48.312,119.621898 L48.312,109.645255 L37.3808,109.645255 C36.7952,109.645255 36.4048,109.254015 36.4048,108.667153 C36.4048,108.080292 36.7952,107.689051 37.3808,107.689051 L48.312,107.689051 L48.312,97.7124088 L37.3808,97.7124088 C36.7952,97.7124088 36.4048,97.3211679 36.4048,96.7343066 C36.4048,96.1474453 36.7952,95.7562044 37.3808,95.7562044 L48.312,95.7562044 L48.312,84.8992701 C48.312,84.3124088 48.7024,83.9211679 49.288,83.9211679 C49.8736,83.9211679 50.264,84.3124088 50.264,84.8992701 L50.264,95.7562044 L60.2192,95.7562044 L60.2192,84.8992701 C60.2192,84.3124088 60.6096,83.9211679 61.1952,83.9211679 C61.7808,83.9211679 62.1712,84.3124088 62.1712,84.8992701 L62.1712,95.7562044 L72.1264,95.7562044 L72.1264,84.8992701 C72.1264,84.3124088 72.5168,83.9211679 73.1024,83.9211679 C73.688,83.9211679 74.0784,84.3124088 74.0784,84.8992701 L74.0784,95.7562044 L85.0096,95.7562044 C85.5952,95.7562044 85.9856,96.1474453 85.9856,96.7343066 C85.9856,97.3211679 85.4976,97.7124088 85.0096,97.7124088 L74.0784,97.7124088 L74.0784,107.689051 L85.0096,107.689051 C85.5952,107.689051 85.9856,108.080292 85.9856,108.667153 C85.9856,109.254015 85.4976,109.645255 85.0096,109.645255 L74.0784,109.645255 L74.0784,119.621898 L85.0096,119.621898 C85.5952,119.621898 85.9856,120.013139 85.9856,120.6 C85.9856,121.186861 85.4976,121.578102 85.0096,121.578102 L74.0784,121.578102 L74.0784,132.630657 C74.0784,133.119708 73.5904,133.510949 73.1024,133.510949 C72.5168,133.510949 72.1264,133.119708 72.1264,132.532847 L72.1264,121.578102 L62.1712,121.578102 L62.1712,132.630657 C62.1712,133.119708 61.7808,133.510949 61.1952,133.510949 C60.6096,133.510949 60.2192,133.119708 60.2192,132.532847 L60.2192,121.578102 L50.264,121.578102 Z M50.264,119.621898 L60.2192,119.621898 L60.2192,109.645255 L50.264,109.645255 L50.264,119.621898 Z M50.264,107.689051 L60.2192,107.689051 L60.2192,97.7124088 L50.264,97.7124088 L50.264,107.689051 Z M62.1712,97.7124088 L62.1712,107.689051 L72.1264,107.689051 L72.1264,97.7124088 L62.1712,97.7124088 Z M62.1712,109.645255 L62.1712,119.621898 L72.1264,119.621898 L72.1264,109.645255 L62.1712,109.645255 Z" id="Combined-Shape" fill="#FFFFFF" opacity="0.9"></path>
            <path d="M85.0096,133.510949 L37.3808,133.510949 C36.7952,133.510949 36.4048,133.119708 36.4048,132.532847 L36.4048,84.8992701 C36.4048,84.3124088 36.7952,83.9211679 37.3808,83.9211679 L85.0096,83.9211679 C85.5952,83.9211679 85.9856,84.3124088 85.9856,84.8992701 L85.9856,132.630657 C85.9856,133.119708 85.4976,133.510949 85.0096,133.510949 Z M38.3568,131.554745 L84.0336,131.554745 L84.0336,85.8773723 L38.3568,85.8773723 L38.3568,131.554745 Z" id="Shape" fill="#FFFFFF"></path>
            <path d="M91.0364243,15.5799662 L92.596039,16.7563271 L86.575514,24.7572628 L94.5241871,30.7642547 L100.550278,22.7559219 L102.109893,23.9322828 L96.0827104,31.942066 L104.046683,37.9606202 L110.079443,29.9434257 L111.639057,31.1197866 L105.605207,39.1384315 L113.617429,45.193449 L112.442011,46.7552249 L104.429927,40.7003118 L98.4358453,48.6661054 L106.447226,54.7204866 L105.271808,56.2822625 L97.2605654,50.2279856 L91.2549466,58.2091118 L99.2654837,64.2628557 L98.0900657,65.8246316 L90.0796667,59.770992 L84.076975,67.7482283 L92.0945681,73.7908397 L90.9191461,75.3526212 L82.9016911,69.3101138 L76.9036832,77.2811256 L75.3452639,76.1031759 L81.3416309,68.1343448 L73.3698052,62.1262269 L67.381823,70.083915 L65.8234038,68.9059653 L71.809745,60.9504579 L63.853234,54.9538821 L57.8752615,62.898268 L56.3168422,61.7203184 L62.2931738,53.7781131 L54.3213481,47.7699952 L48.3534013,55.7010574 L46.7949821,54.5231078 L52.761288,46.5942262 L44.7927446,40.588582 L45.9660578,39.0252112 L53.9365719,45.0323406 L59.9689547,37.0156465 L51.996174,30.9904359 L53.1694851,29.4270678 L61.1442346,35.4537662 L67.1498534,27.4726401 L59.1650434,21.4383387 L60.3383545,19.8749706 L68.3251333,25.9107598 L74.3192147,17.9449662 L66.3223948,11.9015887 L67.4957059,10.3382206 L75.4944946,16.383086 L81.50726,8.39246236 L83.0668747,9.56882331 L77.0530179,17.5608973 L85.0169906,23.5794515 L91.0364243,15.5799662 Z M75.877738,19.1227775 L69.8836567,27.0885711 L77.8476294,33.1071253 L83.8417107,25.1413317 L75.877738,19.1227775 Z M68.7083768,28.6504514 L62.702758,36.6315776 L70.6667307,42.6501317 L76.6723495,34.6690056 L68.7083768,28.6504514 Z M61.5274781,38.1934578 L55.496632,46.2081096 L63.4684578,52.2162276 L69.4914508,44.212012 L61.5274781,38.1934578 Z M65.0285179,53.3919966 L72.9850289,59.3885723 L78.9986473,51.3968152 L71.0499742,45.3898233 L65.0285179,53.3919966 Z M72.2252541,43.8279431 L80.1739272,49.834935 L86.1795459,41.8538088 L78.2308728,35.8468169 L72.2252541,43.8279431 Z M79.4061527,34.2849366 L87.3548258,40.2919285 L93.3489072,32.3261349 L85.4002341,26.319143 L79.4061527,34.2849366 Z M94.9074305,33.5039463 L88.9133492,41.4697399 L96.8773219,47.488294 L102.871403,39.5225004 L94.9074305,33.5039463 Z M87.7380693,43.0316201 L81.7324505,51.0127463 L89.6964232,57.0313005 L95.702042,49.0501743 L87.7380693,43.0316201 Z M80.5571706,52.5746265 L74.5450891,60.5643413 L82.5169148,66.5724593 L88.5211433,58.5931807 L80.5571706,52.5746265 Z" id="Combined-Shape" fill="#FFFFFF" opacity="0.25"></path>
            <path d="M37.3808,85.779562 L1.1712,85.779562 C0.5856,85.779562 0.1952,85.3883212 0.1952,84.8014599 L0.1952,48.6116788 C0.1952,48.0248175 0.5856,47.6335766 1.1712,47.6335766 L37.3808,47.6335766 C37.9664,47.6335766 38.3568,48.0248175 38.3568,48.6116788 L38.3568,84.8992701 C38.3568,85.3883212 37.9664,85.779562 37.3808,85.779562 Z M2.1472,83.8233577 L36.4048,83.8233577 L36.4048,49.589781 L2.1472,49.589781 L2.1472,83.8233577 Z" id="Shape" fill="#FFFFFF"></path>
            <path d="M43.8224,85.6817518 L37.3808,85.6817518 C36.7952,85.6817518 36.4048,85.2905109 36.4048,84.7036496 L36.4048,78.2481752 C36.4048,77.6613139 36.7952,77.270073 37.3808,77.270073 L43.8224,77.270073 C44.408,77.270073 44.7984,77.6613139 44.7984,78.2481752 L44.7984,84.7036496 C44.7984,85.2905109 44.408,85.6817518 43.8224,85.6817518 Z M38.3568,83.7255474 L42.8464,83.7255474 L42.8464,79.2262774 L38.3568,79.2262774 L38.3568,83.7255474 Z" id="Shape" fill="#FFFFFF"></path>
            <path d="M85.1072,85.6817518 C84.912,85.6817518 84.7168,85.5839416 84.5216,85.4861314 L36.8928,49.4919708 C36.5024,49.1985401 36.4048,48.5138686 36.6976,48.1226277 L72.5168,0.391240876 C72.8096,-1.42837131e-14 73.4928,-0.097810219 73.8832,0.195620438 L121.6096,36.189781 C122,36.4832117 122.0976,37.1678832 121.8048,37.5591241 L85.888,85.2905109 C85.6928,85.5839416 85.4,85.6817518 85.1072,85.6817518 Z M38.8448,48.5138686 L84.912,83.3343066 L119.6576,37.1678832 L73.4928,2.34744526 L38.8448,48.5138686 Z" id="Shape" fill="#FFFFFF"></path>
        </g>
    </g>
</svg>