<?xml version="1.0" encoding="UTF-8"?>
<svg width="137px" height="134px" viewBox="0 0 137 134" version="1.1" xmlns="http://www.w3.org/2000/svg" xmlns:xlink="http://www.w3.org/1999/xlink">
    <!-- Generator: Sketch 52.1 (67048) - http://www.bohemiancoding.com/sketch -->
    <title>mastery_math_prealgebra</title>
    <desc>Created with Sketch.</desc>
    <g id="mastery_math_prealgebra" stroke="none" stroke-width="1" fill="none" fill-rule="evenodd">
        <g id="mastery-math-prealgebra" transform="translate(12.000000, 10.000000)">
            <g id="Group">
                <g id="Group-7" fill="#FFFFFF">
                    <path d="M29.106383,24.2553191 L29.106383,13.9468085 C29.106383,12.2723282 27.7489484,10.9148936 26.0744681,10.9148936 C24.3999877,10.9148936 23.0425532,12.2723282 23.0425532,13.9468085 L23.0425532,24.2553191 L12.7340426,24.2553191 C11.0595622,24.2553191 9.70212766,25.6127537 9.70212766,27.287234 C9.70212766,28.9617144 11.0595622,30.3191489 12.7340426,30.3191489 L23.0425532,30.3191489 L23.0425532,39.4437526 C23.0425532,41.118233 24.3999877,42.4756675 26.0744681,42.4756675 C27.7489484,42.4756675 29.106383,41.118233 29.106383,39.4437526 L29.106383,30.3191489 L39.4148936,30.3191489 C41.089374,30.3191489 42.4468085,28.9617144 42.4468085,27.287234 C42.4468085,25.6127537 41.089374,24.2553191 39.4148936,24.2553191 L29.106383,24.2553191 Z M4.85106383,0 L47.2978723,0 C49.9770409,-4.92155283e-16 52.1489362,2.17189526 52.1489362,4.85106383 L52.1489362,47.2978723 C52.1489362,49.9770409 49.9770409,52.1489362 47.2978723,52.1489362 L4.85106383,52.1489362 C2.17189526,52.1489362 1.21628194e-15,49.9770409 8.8817842e-16,47.2978723 L0,4.85106383 C-3.28103522e-16,2.17189526 2.17189526,1.3803337e-15 4.85106383,0 Z" id="Combined-Shape"></path>
                </g>
                <g id="Group-5" transform="translate(12.127660, 13.340426)"></g>
            </g>
            <g id="Group-Copy-2" transform="translate(0.000000, 61.851064)" fill="#FFFFFF">
                <path d="M4.85106383,0 L47.2978723,0 C49.9770409,-4.92155283e-16 52.1489362,2.17189526 52.1489362,4.85106383 L52.1489362,47.2978723 C52.1489362,49.9770409 49.9770409,52.1489362 47.2978723,52.1489362 L4.85106383,52.1489362 C2.17189526,52.1489362 1.21628194e-15,49.9770409 8.8817842e-16,47.2978723 L0,4.85106383 C-3.28103522e-16,2.17189526 2.17189526,1.3803337e-15 4.85106383,0 Z M30.0932209,25.8054458 L37.3824387,18.516228 C38.5664751,17.3321916 38.5664751,15.4124893 37.3824387,14.2284528 C36.1984023,13.0444164 34.2787,13.0444164 33.0946636,14.2284528 L25.8054458,21.5176706 L18.516228,14.2284528 C17.3321916,13.0444164 15.4124893,13.0444164 14.2284528,14.2284528 C13.0444164,15.4124893 13.0444164,17.3321916 14.2284528,18.516228 L21.5176706,25.8054458 L15.0656015,32.2575149 C13.881565,33.4415514 13.881565,35.3612537 15.0656015,36.5452901 C16.2496379,37.7293265 18.1693402,37.7293265 19.3533766,36.5452901 L25.8054458,30.0932209 L33.0946636,37.3824387 C34.2787,38.5664751 36.1984023,38.5664751 37.3824387,37.3824387 C38.5664751,36.1984023 38.5664751,34.2787 37.3824387,33.0946636 L30.0932209,25.8054458 Z" id="Combined-Shape"></path>
            </g>
            <g id="Group-Copy" transform="translate(61.851064, 0.000000)" fill="#FFFFFF">
                <g id="Group-6">
                    <path d="M4.85106383,0 L47.2978723,0 C49.9770409,-4.92155283e-16 52.1489362,2.17189526 52.1489362,4.85106383 L52.1489362,47.2978723 C52.1489362,49.9770409 49.9770409,52.1489362 47.2978723,52.1489362 L4.85106383,52.1489362 C2.17189526,52.1489362 1.21628194e-15,49.9770409 8.8817842e-16,47.2978723 L0,4.85106383 C-3.28103522e-16,2.17189526 2.17189526,1.3803337e-15 4.85106383,0 Z M12.7340426,29.106383 L39.4148936,29.106383 C41.089374,29.106383 42.4468085,27.7489484 42.4468085,26.0744681 C42.4468085,24.3999877 41.089374,23.0425532 39.4148936,23.0425532 L12.7340426,23.0425532 C11.0595622,23.0425532 9.70212766,24.3999877 9.70212766,26.0744681 C9.70212766,27.7489484 11.0595622,29.106383 12.7340426,29.106383 Z" id="Combined-Shape"></path>
                </g>
            </g>
            <g id="Group-Copy-3" transform="translate(61.851064, 61.851064)" fill="#FFFFFF">
                <path d="M4.85106383,0 L47.2978723,0 C49.9770409,-4.92155283e-16 52.1489362,2.17189526 52.1489362,4.85106383 L52.1489362,47.2978723 C52.1489362,49.9770409 49.9770409,52.1489362 47.2978723,52.1489362 L4.85106383,52.1489362 C2.17189526,52.1489362 1.21628194e-15,49.9770409 8.8817842e-16,47.2978723 L0,4.85106383 C-3.28103522e-16,2.17189526 2.17189526,1.3803337e-15 4.85106383,0 Z M26.6808511,18.1914894 C28.6902275,18.1914894 30.3191489,16.5625679 30.3191489,14.5531915 C30.3191489,12.5438151 28.6902275,10.9148936 26.6808511,10.9148936 C24.6714746,10.9148936 23.0425532,12.5438151 23.0425532,14.5531915 C23.0425532,16.5625679 24.6714746,18.1914894 26.6808511,18.1914894 Z M26.6808511,41.2340426 C28.6902275,41.2340426 30.3191489,39.6051211 30.3191489,37.5957447 C30.3191489,35.5863683 28.6902275,33.9574468 26.6808511,33.9574468 C24.6714746,33.9574468 23.0425532,35.5863683 23.0425532,37.5957447 C23.0425532,39.6051211 24.6714746,41.2340426 26.6808511,41.2340426 Z" id="Combined-Shape"></path>
            </g>
        </g>
    </g>
</svg>