<svg id="Layer_3" data-name="Layer 3" xmlns="http://www.w3.org/2000/svg" viewBox="0 0 280 280"><defs><style>.cls-1,.cls-5{fill:#d0e4f1;}.cls-1,.cls-11{stroke:#d0e4f1;}.cls-1,.cls-10,.cls-11,.cls-12,.cls-13,.cls-14,.cls-15,.cls-16,.cls-17,.cls-2,.cls-3,.cls-6,.cls-7,.cls-8{stroke-linecap:round;stroke-linejoin:round;}.cls-14,.cls-2,.cls-4{fill:#fff;}.cls-2,.cls-3{stroke:#3f555a;}.cls-10,.cls-11,.cls-12,.cls-13,.cls-15,.cls-3,.cls-6,.cls-7,.cls-8{fill:none;}.cls-6{stroke:#f56f40;}.cls-7{stroke:#19bc9c;}.cls-8{stroke:#a1c2d8;}.cls-17,.cls-9{fill:#3290c1;}.cls-10{stroke:#1e6b96;}.cls-11{stroke-width:6px;}.cls-12{stroke:#d5d5d7;}.cls-13{stroke:#3290c1;}.cls-14,.cls-16{stroke:#109995;}.cls-15,.cls-17{stroke:#1a628a;}.cls-16{fill:#19bc9c;}</style></defs><title>Free response</title><rect class="cls-1" x="112.08" y="91.13" width="75.07" height="106.79" rx="1.18" ry="1.18"/><rect class="cls-2" x="114.62" y="89.14" width="75.07" height="106.79" rx="1.18" ry="1.18"/><rect class="cls-1" x="117.62" y="86.14" width="75.07" height="106.79" rx="1.18" ry="1.18"/><line class="cls-1" x1="151.97" y1="121.05" x2="151.97" y2="122.66"/><polyline class="cls-1" points="151.97 121.05 125.44 121.05 125.44 94.51"/><line class="cls-1" x1="125.44" y1="121.05" x2="123.82" y2="121.05"/><line class="cls-1" x1="125.44" y1="117.73" x2="123.82" y2="117.73"/><line class="cls-1" x1="125.44" y1="114.41" x2="123.82" y2="114.41"/><line class="cls-1" x1="125.44" y1="111.09" x2="123.82" y2="111.09"/><line class="cls-1" x1="125.44" y1="107.78" x2="123.82" y2="107.78"/><line class="cls-1" x1="125.44" y1="104.46" x2="123.82" y2="104.46"/><line class="cls-1" x1="125.44" y1="101.14" x2="123.82" y2="101.14"/><line class="cls-1" x1="125.44" y1="97.82" x2="123.82" y2="97.82"/><line class="cls-1" x1="125.44" y1="94.51" x2="123.82" y2="94.51"/><line class="cls-1" x1="125.44" y1="121.05" x2="125.44" y2="122.66"/><line class="cls-1" x1="128.75" y1="121.05" x2="128.75" y2="122.66"/><line class="cls-1" x1="132.07" y1="121.05" x2="132.07" y2="122.66"/><line class="cls-1" x1="135.39" y1="121.05" x2="135.39" y2="122.66"/><line class="cls-1" x1="138.71" y1="121.05" x2="138.71" y2="122.66"/><line class="cls-1" x1="142.02" y1="121.05" x2="142.02" y2="122.66"/><line class="cls-1" x1="145.34" y1="121.05" x2="145.34" y2="122.66"/><line class="cls-1" x1="148.66" y1="121.05" x2="148.66" y2="122.66"/><path class="cls-1" d="M148.66,117.73s-2.28-19.9-10-19.9-10,19.9-10,19.9"/><path class="cls-1" d="M148.66,97.82s-2.28,19.9-10,19.9-10-19.9-10-19.9"/><path class="cls-1" d="M168.06,107.55h14.43"/><path class="cls-1" d="M160.34,107.55h4.16"/><path class="cls-1" d="M171.84,112h6.66"/><path class="cls-1" d="M160.34,112h8.48"/><path class="cls-1" d="M175.21,116.55H180"/><path class="cls-1" d="M166.88,116.55h5.35"/><path class="cls-1" d="M160.34,116.55h3.57"/><path class="cls-1" d="M167.52,121H183.8"/><path class="cls-1" d="M160.34,121h4.3"/><path class="cls-1" d="M171.84,98.55h6.66"/><path class="cls-1" d="M160.34,98.55h8.48"/><path class="cls-1" d="M175.21,103H180"/><path class="cls-1" d="M166.88,103h5.35"/><path class="cls-1" d="M160.34,103h3.57"/><path class="cls-1" d="M160.34,107.55h4.3"/><path class="cls-1" d="M133.09,133.76h17.32"/><path class="cls-1" d="M123.82,133.76h5"/><path class="cls-1" d="M137.63,138.26h8"/><path class="cls-1" d="M123.82,138.26H134"/><path class="cls-1" d="M141.66,142.76h5.71"/><path class="cls-1" d="M131.67,142.76h6.42"/><path class="cls-1" d="M123.82,142.76h4.28"/><path class="cls-1" d="M132.44,147.26H152"/><path class="cls-1" d="M123.82,147.26H129"/><path class="cls-1" d="M123.82,133.76H129"/><path class="cls-1" d="M168.06,147.26h14.43"/><path class="cls-1" d="M160.34,147.26h4.16"/><path class="cls-1" d="M171.84,142.76h6.66"/><path class="cls-1" d="M160.34,142.76h8.48"/><path class="cls-1" d="M175.21,138.26H180"/><path class="cls-1" d="M166.88,138.26h5.35"/><path class="cls-1" d="M160.34,138.26h3.57"/><path class="cls-1" d="M167.52,133.76H183.8"/><path class="cls-1" d="M160.34,133.76h4.3"/><path class="cls-1" d="M160.34,147.26h4.3"/><path class="cls-1" d="M123.88,160a8.74,8.74,0,0,0-.35,3.12,1.62,1.62,0,0,0,.52,1.26c.53.38,1.29.06,1.78-.37a4.88,4.88,0,0,0,1.66-3.19,7.06,7.06,0,0,0-.54,2.52l-.58,6.46a3,3,0,0,1-.22,1.06,1,1,0,0,1-.83.62,1,1,0,0,1-.93-1,2.21,2.21,0,0,1,.53-1.38,6.07,6.07,0,0,1,4.1-2.39"/><path class="cls-1" d="M131.39,161.64l2.76-.25"/><path class="cls-1" d="M131.65,164a7.53,7.53,0,0,1,2.88-.51"/><path class="cls-1" d="M139.5,160.18a1,1,0,0,0-1.15-.25,2.09,2.09,0,0,0-.9.87,5.3,5.3,0,0,0-.8,2.88,1.16,1.16,0,0,0,.33.93c.46.35,1.12,0,1.49-.5a5.37,5.37,0,0,0,1.21-3.68c-.2,1-.73,2-.33,3a1.65,1.65,0,0,0,1.69,1"/><path class="cls-1" d="M146.23,171a13.8,13.8,0,0,1,.38-14"/><path class="cls-1" d="M147.62,160.85a1.3,1.3,0,0,1,1.43.2,2.71,2.71,0,0,1,.78,1.3,4.56,4.56,0,0,0,.68,1.64,1.7,1.7,0,0,0,1.81.49"/><path class="cls-1" d="M151.46,160.39l-3.78,4.5"/><path class="cls-1" d="M153,162.4l1.38-.13"/><path class="cls-1" d="M157.3,158.9a49.43,49.43,0,0,1-1,6.13,4.92,4.92,0,0,1,1.33-2.92.86.86,0,0,1,.48-.23c.48,0,.73.57.71,1.05s-.15.86-.18,1.3a1.52,1.52,0,0,0,.35,1.22.76.76,0,0,0,1.14,0"/><path class="cls-1" d="M160.55,155.94a13.44,13.44,0,0,1,.85,14.51"/><path class="cls-1" d="M164.92,157.13a.81.81,0,0,1,1-.71,1.12,1.12,0,0,1,.78,1.07,1.84,1.84,0,0,1-.55,1.27,2.72,2.72,0,0,1-1.57.82c0-.39.52-.59.89-.47s.68.4,1,.54.9,0,1-.38"/><path class="cls-1" d="M171.9,161.91a25.44,25.44,0,0,1,.09,4.39"/><path class="cls-1" d="M170.16,164.12l3.5-.18"/><path class="cls-1" d="M177.81,161.26a3.58,3.58,0,0,0,2-4.49.67.67,0,0,0-.27-.37.51.51,0,0,0-.62.19,1.45,1.45,0,0,0-.21.67,71.91,71.91,0,0,0-.66,8.79,8.31,8.31,0,0,1-.06-2.56,2.81,2.81,0,0,1,1.4-2.05.93.93,0,0,1,.45-.11.79.79,0,0,1,.62,1,1.7,1.7,0,0,1-.82,1,8.14,8.14,0,0,0-1.11.71l2.21.86"/><rect class="cls-3" x="114.62" y="89.14" width="75.07" height="106.79" rx="1.18" ry="1.18"/><rect class="cls-4" x="119.62" y="84.14" width="75.07" height="106.79" rx="1.18" ry="1.18"/><path class="cls-5" d="M187.29,187.16a9.92,9.92,0,0,1,2.17,1.41l.73.42a19.91,19.91,0,0,1,3.32,2.47c1,.31,2,.62,3.12,1,8.21,2.48,8.37,10.32,9,17.51,5.6-.12,12.68.45,18.26,0a162,162,0,0,0-7-18.87c-2-4.3-4.7-8.62-8.9-10.87-4.82-2.58-11-2-15.51-5.07a55.34,55.34,0,0,1-4.36-3.73c-1.92-1.6-6.23-4.93-8.61-3.06-2.54,2-2,7.44-1,10C180.09,182.23,183.55,185.15,187.29,187.16Z"/><line class="cls-3" x1="153.97" y1="119.05" x2="153.97" y2="120.66"/><polyline class="cls-3" points="153.97 119.05 127.44 119.05 127.44 92.51"/><line class="cls-3" x1="127.44" y1="119.05" x2="125.82" y2="119.05"/><line class="cls-3" x1="127.44" y1="115.73" x2="125.82" y2="115.73"/><line class="cls-3" x1="127.44" y1="112.41" x2="125.82" y2="112.41"/><line class="cls-3" x1="127.44" y1="109.09" x2="125.82" y2="109.09"/><line class="cls-3" x1="127.44" y1="105.78" x2="125.82" y2="105.78"/><line class="cls-3" x1="127.44" y1="102.46" x2="125.82" y2="102.46"/><line class="cls-3" x1="127.44" y1="99.14" x2="125.82" y2="99.14"/><line class="cls-3" x1="127.44" y1="95.82" x2="125.82" y2="95.82"/><line class="cls-3" x1="127.44" y1="92.51" x2="125.82" y2="92.51"/><line class="cls-3" x1="127.44" y1="119.05" x2="127.44" y2="120.66"/><line class="cls-3" x1="130.75" y1="119.05" x2="130.75" y2="120.66"/><line class="cls-3" x1="134.07" y1="119.05" x2="134.07" y2="120.66"/><line class="cls-3" x1="137.39" y1="119.05" x2="137.39" y2="120.66"/><line class="cls-3" x1="140.71" y1="119.05" x2="140.71" y2="120.66"/><line class="cls-3" x1="144.02" y1="119.05" x2="144.02" y2="120.66"/><line class="cls-3" x1="147.34" y1="119.05" x2="147.34" y2="120.66"/><line class="cls-3" x1="150.66" y1="119.05" x2="150.66" y2="120.66"/><path class="cls-6" d="M150.66,115.73s-2.28-19.9-10-19.9-10,19.9-10,19.9"/><path class="cls-7" d="M150.66,95.82s-2.28,19.9-10,19.9-10-19.9-10-19.9"/><path class="cls-8" d="M170.06,105.55h14.43"/><path class="cls-8" d="M162.34,105.55h4.16"/><path class="cls-8" d="M173.84,110h6.66"/><path class="cls-8" d="M162.34,110h8.48"/><path class="cls-8" d="M177.21,114.55H182"/><path class="cls-8" d="M168.88,114.55h5.35"/><path class="cls-8" d="M162.34,114.55h3.57"/><path class="cls-8" d="M169.52,119H185.8"/><path class="cls-8" d="M162.34,119h4.3"/><path class="cls-8" d="M173.84,96.55h6.66"/><path class="cls-8" d="M162.34,96.55h8.48"/><path class="cls-8" d="M177.21,101H182"/><path class="cls-8" d="M168.88,101h5.35"/><path class="cls-8" d="M162.34,101h3.57"/><path class="cls-8" d="M162.34,105.55h4.3"/><path class="cls-8" d="M135.09,131.76h17.32"/><path class="cls-8" d="M125.82,131.76h5"/><path class="cls-8" d="M139.63,136.26h8"/><path class="cls-8" d="M125.82,136.26H136"/><path class="cls-8" d="M143.66,140.76h5.71"/><path class="cls-8" d="M133.67,140.76h6.42"/><path class="cls-8" d="M125.82,140.76h4.28"/><path class="cls-8" d="M134.44,145.26H154"/><path class="cls-8" d="M125.82,145.26H131"/><path class="cls-8" d="M125.82,131.76H131"/><path class="cls-8" d="M170.06,145.26h14.43"/><path class="cls-8" d="M162.34,145.26h4.16"/><path class="cls-8" d="M173.84,140.76h6.66"/><path class="cls-8" d="M162.34,140.76h8.48"/><path class="cls-8" d="M177.21,136.26H182"/><path class="cls-8" d="M168.88,136.26h5.35"/><path class="cls-8" d="M162.34,136.26h3.57"/><path class="cls-8" d="M169.52,131.76H185.8"/><path class="cls-8" d="M162.34,131.76h4.3"/><path class="cls-8" d="M162.34,145.26h4.3"/><path class="cls-8" d="M125.88,158a8.74,8.74,0,0,0-.35,3.12,1.62,1.62,0,0,0,.52,1.26c.53.38,1.29.06,1.78-.37a4.88,4.88,0,0,0,1.66-3.19,7.06,7.06,0,0,0-.54,2.52l-.58,6.46a3,3,0,0,1-.22,1.06,1,1,0,0,1-.83.62,1,1,0,0,1-.93-1,2.21,2.21,0,0,1,.53-1.38,6.07,6.07,0,0,1,4.1-2.39"/><path class="cls-8" d="M133.39,159.64l2.76-.25"/><path class="cls-8" d="M133.65,162a7.53,7.53,0,0,1,2.88-.51"/><path class="cls-8" d="M141.5,158.18a1,1,0,0,0-1.15-.25,2.09,2.09,0,0,0-.9.87,5.3,5.3,0,0,0-.8,2.88,1.16,1.16,0,0,0,.33.93c.46.35,1.12,0,1.49-.5a5.37,5.37,0,0,0,1.21-3.68c-.2,1-.73,2-.33,3a1.65,1.65,0,0,0,1.69,1"/><path class="cls-8" d="M148.23,169a13.8,13.8,0,0,1,.38-14"/><path class="cls-8" d="M149.62,158.85a1.3,1.3,0,0,1,1.43.2,2.71,2.71,0,0,1,.78,1.3,4.56,4.56,0,0,0,.68,1.64,1.7,1.7,0,0,0,1.81.49"/><path class="cls-8" d="M153.46,158.39l-3.78,4.5"/><path class="cls-8" d="M155,160.4l1.38-.13"/><path class="cls-8" d="M159.3,156.9a49.43,49.43,0,0,1-1,6.13,4.92,4.92,0,0,1,1.33-2.92.86.86,0,0,1,.48-.23c.48,0,.73.57.71,1.05s-.15.86-.18,1.3a1.52,1.52,0,0,0,.35,1.22.76.76,0,0,0,1.14,0"/><path class="cls-8" d="M162.55,153.94a13.44,13.44,0,0,1,.85,14.51"/><path class="cls-8" d="M166.92,155.13a.81.81,0,0,1,1-.71,1.12,1.12,0,0,1,.78,1.07,1.84,1.84,0,0,1-.55,1.27,2.72,2.72,0,0,1-1.57.82c0-.39.52-.59.89-.47s.68.4,1,.54.9,0,1-.38"/><path class="cls-8" d="M173.9,159.91a25.44,25.44,0,0,1,.09,4.39"/><path class="cls-8" d="M172.16,162.12l3.5-.18"/><path class="cls-8" d="M179.81,159.26a3.58,3.58,0,0,0,2-4.49.67.67,0,0,0-.27-.37.51.51,0,0,0-.62.19,1.45,1.45,0,0,0-.21.67,71.91,71.91,0,0,0-.66,8.79,8.31,8.31,0,0,1-.06-2.56,2.81,2.81,0,0,1,1.4-2.05.93.93,0,0,1,.45-.11.79.79,0,0,1,.62,1,1.7,1.7,0,0,1-.82,1,8.14,8.14,0,0,0-1.11.71l2.21.86"/><rect class="cls-3" x="119.62" y="84.14" width="75.07" height="106.79" rx="1.18" ry="1.18"/><line class="cls-3" x1="153.97" y1="119.05" x2="153.97" y2="120.66"/><polyline class="cls-3" points="153.97 119.05 127.44 119.05 127.44 92.51"/><line class="cls-3" x1="127.44" y1="119.05" x2="125.82" y2="119.05"/><line class="cls-3" x1="127.44" y1="115.73" x2="125.82" y2="115.73"/><line class="cls-3" x1="127.44" y1="112.41" x2="125.82" y2="112.41"/><line class="cls-3" x1="127.44" y1="109.09" x2="125.82" y2="109.09"/><line class="cls-3" x1="127.44" y1="105.78" x2="125.82" y2="105.78"/><line class="cls-3" x1="127.44" y1="102.46" x2="125.82" y2="102.46"/><line class="cls-3" x1="127.44" y1="99.14" x2="125.82" y2="99.14"/><line class="cls-3" x1="127.44" y1="95.82" x2="125.82" y2="95.82"/><line class="cls-3" x1="127.44" y1="92.51" x2="125.82" y2="92.51"/><line class="cls-3" x1="127.44" y1="119.05" x2="127.44" y2="120.66"/><line class="cls-3" x1="130.75" y1="119.05" x2="130.75" y2="120.66"/><line class="cls-3" x1="134.07" y1="119.05" x2="134.07" y2="120.66"/><line class="cls-3" x1="137.39" y1="119.05" x2="137.39" y2="120.66"/><line class="cls-3" x1="140.71" y1="119.05" x2="140.71" y2="120.66"/><line class="cls-3" x1="144.02" y1="119.05" x2="144.02" y2="120.66"/><line class="cls-3" x1="147.34" y1="119.05" x2="147.34" y2="120.66"/><line class="cls-3" x1="150.66" y1="119.05" x2="150.66" y2="120.66"/><path class="cls-6" d="M150.66,115.73s-2.28-19.9-10-19.9-10,19.9-10,19.9"/><path class="cls-7" d="M150.66,95.82s-2.28,19.9-10,19.9-10-19.9-10-19.9"/><path class="cls-8" d="M170.06,105.55h14.43"/><path class="cls-8" d="M162.34,105.55h4.16"/><path class="cls-8" d="M173.84,110h6.66"/><path class="cls-8" d="M162.34,110h8.48"/><path class="cls-8" d="M177.21,114.55H182"/><path class="cls-8" d="M168.88,114.55h5.35"/><path class="cls-8" d="M162.34,114.55h3.57"/><path class="cls-8" d="M169.52,119H185.8"/><path class="cls-8" d="M162.34,119h4.3"/><path class="cls-8" d="M173.84,96.55h6.66"/><path class="cls-8" d="M162.34,96.55h8.48"/><path class="cls-8" d="M177.21,101H182"/><path class="cls-8" d="M168.88,101h5.35"/><path class="cls-8" d="M162.34,101h3.57"/><path class="cls-8" d="M162.34,105.55h4.3"/><path class="cls-8" d="M135.09,131.76h17.32"/><path class="cls-8" d="M125.82,131.76h5"/><path class="cls-8" d="M139.63,136.26h8"/><path class="cls-8" d="M125.82,136.26H136"/><path class="cls-8" d="M143.66,140.76h5.71"/><path class="cls-8" d="M133.67,140.76h6.42"/><path class="cls-8" d="M125.82,140.76h4.28"/><path class="cls-8" d="M134.44,145.26H154"/><path class="cls-8" d="M125.82,145.26H131"/><path class="cls-8" d="M125.82,131.76H131"/><path class="cls-8" d="M170.06,145.26h14.43"/><path class="cls-8" d="M162.34,145.26h4.16"/><path class="cls-8" d="M173.84,140.76h6.66"/><path class="cls-8" d="M162.34,140.76h8.48"/><path class="cls-8" d="M177.21,136.26H182"/><path class="cls-8" d="M168.88,136.26h5.35"/><path class="cls-8" d="M162.34,136.26h3.57"/><path class="cls-8" d="M169.52,131.76H185.8"/><path class="cls-8" d="M162.34,131.76h4.3"/><path class="cls-8" d="M162.34,145.26h4.3"/><path class="cls-8" d="M125.88,158a8.74,8.74,0,0,0-.35,3.12,1.62,1.62,0,0,0,.52,1.26c.53.38,1.29.06,1.78-.37a4.88,4.88,0,0,0,1.66-3.19,7.06,7.06,0,0,0-.54,2.52l-.58,6.46a3,3,0,0,1-.22,1.06,1,1,0,0,1-.83.62,1,1,0,0,1-.93-1,2.21,2.21,0,0,1,.53-1.38,6.07,6.07,0,0,1,4.1-2.39"/><path class="cls-8" d="M133.39,159.64l2.76-.25"/><path class="cls-8" d="M133.65,162a7.53,7.53,0,0,1,2.88-.51"/><path class="cls-8" d="M141.5,158.18a1,1,0,0,0-1.15-.25,2.09,2.09,0,0,0-.9.87,5.3,5.3,0,0,0-.8,2.88,1.16,1.16,0,0,0,.33.93c.46.35,1.12,0,1.49-.5a5.37,5.37,0,0,0,1.21-3.68c-.2,1-.73,2-.33,3a1.65,1.65,0,0,0,1.69,1"/><path class="cls-8" d="M148.23,169a13.8,13.8,0,0,1,.38-14"/><path class="cls-8" d="M149.62,158.85a1.3,1.3,0,0,1,1.43.2,2.71,2.71,0,0,1,.78,1.3,4.56,4.56,0,0,0,.68,1.64,1.7,1.7,0,0,0,1.81.49"/><path class="cls-8" d="M153.46,158.39l-3.78,4.5"/><path class="cls-8" d="M155,160.4l1.38-.13"/><path class="cls-8" d="M159.3,156.9a49.43,49.43,0,0,1-1,6.13,4.92,4.92,0,0,1,1.33-2.92.86.86,0,0,1,.48-.23c.48,0,.73.57.71,1.05s-.15.86-.18,1.3a1.52,1.52,0,0,0,.35,1.22.76.76,0,0,0,1.14,0"/><path class="cls-8" d="M162.55,153.94a13.44,13.44,0,0,1,.85,14.51"/><path class="cls-8" d="M166.92,155.13a.81.81,0,0,1,1-.71,1.12,1.12,0,0,1,.78,1.07,1.84,1.84,0,0,1-.55,1.27,2.72,2.72,0,0,1-1.57.82c0-.39.52-.59.89-.47s.68.4,1,.54.9,0,1-.38"/><path class="cls-8" d="M173.9,159.91a25.44,25.44,0,0,1,.09,4.39"/><path class="cls-8" d="M172.16,162.12l3.5-.18"/><path class="cls-8" d="M179.81,159.26a3.58,3.58,0,0,0,2-4.49.67.67,0,0,0-.27-.37.51.51,0,0,0-.62.19,1.45,1.45,0,0,0-.21.67,71.91,71.91,0,0,0-.66,8.79,8.31,8.31,0,0,1-.06-2.56,2.81,2.81,0,0,1,1.4-2.05.93.93,0,0,1,.45-.11.79.79,0,0,1,.62,1,1.7,1.7,0,0,1-.82,1,8.14,8.14,0,0,0-1.11.71l2.21.86"/><path class="cls-4" d="M194.27,148.88s-6.87,1.4-8.84,3.23c0,0-.88,6.88-.31,10.58l4.27,2.11Z"/><path class="cls-3" d="M190.9,161.09c-.59-1.92-1.24-4.31-1.24-4.31,1.19.11,2.62-1.4,2.62-1.4l2-6.5s-7.78,1.55-8.84,3.23c0,0-.81.53-.31,10.58"/><path class="cls-4" d="M223.87,209.91c7.79,0,9.5.14,17.28.19a385.22,385.22,0,0,0-23.52-45.57,8.61,8.61,0,0,1-.78-3.13c-1.2-6.63-5.77-5.35-5.77-5.35-.94,0-1-1.41-1-1.41-1.57-3.6-5.74-1.32-5.74-1.32-1.27.67-1.3-.19-1.3-.19a3.24,3.24,0,0,0-4.44-1.77l-2.78,8.4a4.63,4.63,0,0,1-2.56,4.74s-2.4,1.87-5.63-.79a4.09,4.09,0,0,0-5.25.62s-2.56,2.18-.08,5.23a7.9,7.9,0,0,0,4.59,2.9,1.84,1.84,0,0,1,1.44,1.21s2.71,9,19.69,9.59h-.28C211.47,188,221.81,201.61,223.87,209.91Z"/><path class="cls-5" d="M202.21,154.35a11.93,11.93,0,0,1,2.14-.14l5.41,0a20.22,20.22,0,0,1-7.08-1.74,4.92,4.92,0,0,0-2.64-.69c-1.38.2-2.21,1.61-3.43,2.3.2-.13.48,0,.55.27a1.19,1.19,0,0,1-.06.69,32.29,32.29,0,0,0-1.1,4C197.9,157.15,199.36,154.89,202.21,154.35Z"/><path class="cls-9" d="M203.62,135l-4.71-1.52,4.26-13.93a2.46,2.46,0,0,1,3.1-1.62h0a2.5,2.5,0,0,1,1.61,3.1Z"/><polygon class="cls-9" points="193.87 163.81 189.28 165.16 198.91 133.47 203.62 134.99 193.87 163.81"/><path class="cls-10" d="M206.47,122.15l2.2.69a1,1,0,0,1,.63,1.21l-4.15,13.55"/><line class="cls-10" x1="203.62" y1="134.99" x2="194.48" y2="163.54"/><line class="cls-10" x1="189.39" y1="164.8" x2="198.91" y2="133.47"/><path class="cls-10" d="M203.62,135a2.47,2.47,0,0,0-1.88-2.41,2.29,2.29,0,0,0-2.83.89l4.26-13.93a2.46,2.46,0,0,1,3.1-1.62h0a2.5,2.5,0,0,1,1.61,3.1Z"/><path class="cls-11" d="M220,206.87c-1.75-7-5.46-20.36-9.95-26.09"/><path class="cls-5" d="M210,183.78l-2.8-.08-1.58-.15c-.52-.06-1.06-.08-1.56-.18l-1.52-.27a13.91,13.91,0,0,1-1.51-.34c-.5-.13-1-.25-1.5-.4l-1.49-.52c-.5-.16-1-.4-1.46-.6a13.65,13.65,0,0,1-1.44-.7c-.47-.26-.95-.49-1.4-.8s-.92-.56-1.35-.91-.88-.65-1.28-1a17.79,17.79,0,0,1-2.34-2.43c-.18-.23-.36-.46-.53-.72s-.17-.24-.26-.39-.16-.25-.3-.52l2.18,1.59h0c-.33-.11-.53-.21-.79-.32l-.7-.33c-.46-.23-.91-.47-1.34-.72a20.09,20.09,0,0,1-2.52-1.7,14.37,14.37,0,0,1-1.15-1,11.39,11.39,0,0,1-1-1.14c-.16-.19-.3-.42-.45-.63a4.21,4.21,0,0,1-.39-.66,4.76,4.76,0,0,1-.32-.69l-.24-.71a.45.45,0,0,1,.74-.47l.07.06.45.44a3.67,3.67,0,0,0,.49.38,3,3,0,0,0,.51.32,5.78,5.78,0,0,0,.54.28,9,9,0,0,0,1.14.43,11.41,11.41,0,0,0,1.18.3,16.19,16.19,0,0,0,2.44.3c.41,0,.82,0,1.22,0l.6,0a3.3,3.3,0,0,0,.53-.06h0L193,171c0-.07,0,0,.05.08l.13.19c.08.13.2.27.3.41a9.28,9.28,0,0,0,.72.82,9.46,9.46,0,0,0,.82.77c.27.26.6.48.9.72s.65.43,1,.65a11.49,11.49,0,0,0,1,.59,9,9,0,0,0,1.08.52,11.22,11.22,0,0,0,1.12.46l1.15.4c.39.12.8.21,1.2.32a9.88,9.88,0,0,0,1.22.27l1.24.22c.42.09.81.09,1.21.14l1.21.13,2.79.08a3,3,0,1,1-.16,6Z"/><path class="cls-3" d="M217.37,208.38c-1.75-6.69-5.38-19.64-9.69-25.15"/><path class="cls-3" d="M198.55,151.35c2.83-1.08,3.9,2.14,8.19,2.14a12.81,12.81,0,0,1,9.66,5.37v3.22c7.51,12.88,18.72,31.29,23.84,45.95"/><path class="cls-3" d="M195.77,159.76a4.63,4.63,0,0,1-2.56,4.74s-2.4,1.87-5.63-.79a4.09,4.09,0,0,0-5.25.62s-2.56,2.18-.08,5.23a7.9,7.9,0,0,0,4.59,2.9,1.84,1.84,0,0,1,1.44,1.21s3,9.82,22,9.62"/><path class="cls-5" d="M77.54,166.48c.36-2.79.73-5.58.83-8.39.09-2.52,0-5.18,1.18-7.41a1.11,1.11,0,0,0-1.27.29,3.07,3.07,0,0,0-.63,1.23,50.7,50.7,0,0,0-2.11,11.61c-.15,2-1.45,9,.33,10.14C77.29,172.26,77.26,168.62,77.54,166.48Z"/><path class="cls-5" d="M83,172.34a5.58,5.58,0,0,0,.83-2.16c1.29-6,.48-12.28,1.94-18.22.27-1.12.89-2.44,2-2.49a1.87,1.87,0,0,0-2.72-.07,5.22,5.22,0,0,0-1.29,2.76,96.87,96.87,0,0,0-2.08,12.38c-.21,2-.35,4.05-.43,6.08C81.29,171.85,81.43,174.54,83,172.34Z"/><path class="cls-5" d="M92.2,157.51c.31-2,.71-4.34,2.42-5.49a2.4,2.4,0,0,0-2.77.71,6.54,6.54,0,0,0-1.26,2.78,61.46,61.46,0,0,0-2,17A72.15,72.15,0,0,0,92.2,157.51Z"/><path class="cls-5" d="M96.24,181.8A3.51,3.51,0,0,0,97.6,180a13.17,13.17,0,0,0,1-2.63,16.59,16.59,0,0,1,.51-2.61,3.73,3.73,0,0,1,2.54-2.25,1.56,1.56,0,0,0-1.93-.64c-1.38.48-1.94,2.1-2.32,3.51l-.75,2.8a6.25,6.25,0,0,1-.72,1.86c-.3.45-1.41,1-1.22,1.53S95.89,182,96.24,181.8Z"/><path class="cls-5" d="M72.23,187.49c-1.43-10.79-2.58-21.82-.56-32.62-.28,0-1.44,1.22-1.67,1.36-2.64,7.93-3,14-2.3,22.66.39,5,2,11.12,3,16,.89,4.54,1.63,9.2.18,13.69,0,1.52,0,3.06,0,4.62a6.69,6.69,0,0,0,4.73-.35s-1-6.78-1.26-9C73.78,198.43,73,193,72.23,187.49Z"/><path class="cls-3" d="M88.14,173.19a109.11,109.11,0,0,1,2.69-18.68,5.88,5.88,0,0,1,1-2.41,2.08,2.08,0,0,1,2.32-.76c1.06.46,1.25,1.87,1.24,3,0,8.68-2,17.32-1.27,26a1.49,1.49,0,0,0,.47,1.17c.36.25,1-.11.82-.5.72-2.16,1.36-4.47,2.08-6.63a5.58,5.58,0,0,1,1.19-2.3,1.91,1.91,0,0,1,2.37-.36,2.13,2.13,0,0,1,.69,1.06A8,8,0,0,1,102,175a37.18,37.18,0,0,1-3.63,17.51c-1.61,3.34-3.71,6.42-5.38,9.72a20,20,0,0,0-1.68,10.65"/><path class="cls-3" d="M88.72,165.78l0-8.15c0-2.3.87-6.24-.54-8.24s-3.37-.29-4,1.31c-1,2.34-1.06,4.9-1.44,7.37a132.55,132.55,0,0,0-1.13,13.26c0,.79-.19,1.73-.91,2,.3-.14-.19-4.38-.19-4.89,0-2.74.25-5.63.44-8.42s.57-5.84-.38-8.54a1.54,1.54,0,0,0-2.32-.92c-1.3.77-1.41,2.69-1.62,4A114.77,114.77,0,0,0,75.26,174"/><path class="cls-3" d="M75.2,173.69c.16.27-.29.58-.57.42a1.11,1.11,0,0,1-.42-.82,62.36,62.36,0,0,1-.85-14.67c.06-1.06.11-2.56-.88-3.24-1.4-1-2.61.78-3,1.93a39.52,39.52,0,0,0-2.15,11.62c-.42,10.19,2,20.37,4,30.3.78,3.94.14,9.66-.12,13.67"/><path class="cls-1" d="M50,63.65a8.14,8.14,0,0,0-5.83-5.75c-3-.82-6.71.15-8.29,2.42a5.21,5.21,0,0,0-.83,3.1V127a7,7,0,0,0,2.76,5.6c2.51,2.06,6,3,9.48,3.66a115.71,115.71,0,0,0,18.79,1.52c8.28.15,16.55,0,24.83-.08l6.66-.09v-9.68H105V63.65Zm-13.4,60.1a6.29,6.29,0,0,1,4.92-1.87h.18A8.15,8.15,0,0,0,37,123.48C36.85,123.57,36.72,123.65,36.61,123.75Z"/><rect class="cls-2" x="58.38" y="61.79" width="46.58" height="65.87"/><path class="cls-4" d="M98.7,127.66v9.92l-5.65.1c-7,.12-14,.24-21,.08a81.54,81.54,0,0,1-15.93-1.56c-2.92-.65-5.91-1.65-8-3.76s-3.14-5.6-1.64-8.19a6.1,6.1,0,0,1,7-2.48,7.76,7.76,0,0,1,4.95,5.89Z"/><path class="cls-5" d="M93.92,132.76s-20.26,0-21.78,0a100.6,100.6,0,0,1-14.63-1.35c-3.9-.69-8.87-1.69-10.84-5.61a2.11,2.11,0,0,1-.22-1.55,2.19,2.19,0,0,1,.54-.84,5.84,5.84,0,0,1,6-1.23,8.78,8.78,0,0,1,4.68,4.33,1.9,1.9,0,0,0,.78,1,1.75,1.75,0,0,0,.72.1l29.64,0c1.28,0,5.14.12,5.14.12Z"/><path class="cls-3" d="M98.7,127.66v9.92l-5.65.1c-7,.12-14,.24-21,.08a81.54,81.54,0,0,1-15.93-1.56c-2.92-.65-5.91-1.65-8-3.76s-3.14-5.6-1.64-8.19a6.1,6.1,0,0,1,7-2.48,7.76,7.76,0,0,1,4.95,5.89Z"/><line class="cls-12" x1="98.77" y1="89.74" x2="98.77" y2="66.22"/><line class="cls-12" x1="93.22" y1="89.74" x2="93.22" y2="66.22"/><line class="cls-12" x1="87.67" y1="89.74" x2="87.67" y2="66.22"/><line class="cls-12" x1="82.12" y1="89.74" x2="82.12" y2="66.22"/><line class="cls-12" x1="76.58" y1="89.74" x2="76.58" y2="66.22"/><line class="cls-3" x1="71.03" y1="89.74" x2="71.03" y2="66.22"/><line class="cls-3" x1="68.33" y1="67.03" x2="63.04" y2="67.03"/><line class="cls-3" x1="68.33" y1="69.77" x2="65.59" y2="69.77"/><line class="cls-3" x1="68.33" y1="72.5" x2="67.39" y2="72.5"/><line class="cls-3" x1="68.33" y1="75.24" x2="62.38" y2="75.24"/><line class="cls-3" x1="64.06" y1="77.98" x2="68.33" y2="77.98"/><line class="cls-3" x1="62.02" y1="80.72" x2="68.33" y2="80.72"/><line class="cls-3" x1="65.36" y1="83.46" x2="68.33" y2="83.46"/><line class="cls-3" x1="63.08" y1="86.2" x2="68.33" y2="86.2"/><line class="cls-3" x1="66.03" y1="88.94" x2="68.33" y2="88.94"/><line class="cls-6" x1="72.8" y1="67.03" x2="96.33" y2="67.03"/><line class="cls-7" x1="72.8" y1="69.76" x2="85.43" y2="69.76"/><line class="cls-13" x1="72.8" y1="72.5" x2="77.73" y2="72.5"/><line class="cls-6" x1="72.8" y1="75.24" x2="99.13" y2="75.24"/><line class="cls-7" x1="91.95" y1="77.98" x2="72.8" y2="77.98"/><line class="cls-13" x1="100.66" y1="80.72" x2="72.8" y2="80.72"/><line class="cls-6" x1="86.4" y1="83.46" x2="72.8" y2="83.46"/><line class="cls-7" x1="96.17" y1="86.2" x2="72.8" y2="86.2"/><line class="cls-13" x1="83.53" y1="88.94" x2="72.8" y2="88.94"/><rect class="cls-14" x="62.38" y="95.8" width="2.89" height="10.5"/><rect class="cls-15" x="62.38" y="109.12" width="2.89" height="12.94"/><path class="cls-16" d="M65.27,106.3h5.12c12.2,0,17,10.08,27.38,10.08V111c-10.37,0-15.18-10.08-27.38-10.08,12.2,0,17,4.53,27.38,4.53v-2.77c-10.37,0-15.18-4.53-27.38-4.53H97.77V95.8H65.27Z"/><path class="cls-17" d="M65.27,122.05h32.5v-5.67c-10.37,0-15.18-1.41-27.38-1.41,12.2,0,17-6.51,27.38-6.51v-3c-10.37,0-15.18,6-27.38,6,12.2,0,17-11,27.38-11V98.15c-10.37,0-15.18,11-27.38,11H65.27Z"/><path class="cls-1" d="M46.4,58.38a6.22,6.22,0,0,0-.7,3.18v65.87s0-6,5.48-6a6.6,6.6,0,0,1,1.49.18c-.94-22-.2-43.79-1.46-66A5.88,5.88,0,0,0,46.4,58.38Z"/><path class="cls-4" d="M53.43,55.9a6.09,6.09,0,0,0-2.22-.27c1.26,22.24.52,44,1.46,66,4.3,1,5.7,6,5.7,6V61.79A7.76,7.76,0,0,0,53.43,55.9Z"/><path class="cls-3" d="M45.7,127.43s0-6,5.48-6,7.19,6.18,7.19,6.18V61.79a7.76,7.76,0,0,0-4.95-5.89,6.1,6.1,0,0,0-7,2.48,6.22,6.22,0,0,0-.7,3.18Z"/><rect class="cls-14" x="97.77" y="95.8" width="2.89" height="4.69"/><rect class="cls-14" x="97.77" y="102.68" width="2.89" height="5.78"/><rect class="cls-14" x="97.77" y="111" width="2.89" height="11.05"/></svg>