<?xml version="1.0" encoding="UTF-8"?>
<svg width="137px" height="134px" viewBox="0 0 137 134" version="1.1" xmlns="http://www.w3.org/2000/svg" xmlns:xlink="http://www.w3.org/1999/xlink">
    <!-- Generator: Sketch 51.3 (57544) - http://www.bohemiancoding.com/sketch -->
    <title>general_physics</title>
    <desc>Created with Sketch.</desc>
    <defs></defs>
    <g id="general_physics" stroke="none" stroke-width="1" fill="none" fill-rule="evenodd">
        <g id="Group" transform="translate(8.000000, 0.000000)" fill="#FFFFFF" fill-rule="nonzero">
            <path d="M59.5344444,134 C46.0044444,134 35.42,104.568727 35.42,67 C35.42,29.4312727 46.0044444,0 59.5344444,0 C73.0644444,0 83.6488889,29.4312727 83.6488889,67 C83.6488889,104.568727 73.0644444,134 59.5344444,134 Z M59.5344444,2.43636364 C47.7888889,2.43636364 37.8644444,32.0016364 37.8644444,67 C37.8644444,101.998364 47.7888889,131.563636 59.5344444,131.563636 C71.28,131.563636 81.2044444,101.998364 81.2044444,67 C81.2044444,32.0016364 71.28,2.43636364 59.5344444,2.43636364 Z" id="Shape" opacity="0.899999976"></path>
            <path d="M16.39,106.590909 C14.9233333,106.590909 13.5422222,106.517818 12.2588889,106.359455 L12.5522222,103.935273 C13.9822222,104.105818 15.5711111,104.178909 17.2577778,104.142364 L17.3066667,106.578727 C17.0011111,106.590909 16.6955556,106.590909 16.39,106.590909 Z M22.3055556,106.225455 L22.0244444,103.801273 C23.54,103.618545 25.1288889,103.374909 26.7666667,103.070364 L27.2188889,105.458 C25.52,105.786909 23.87,106.042727 22.3055556,106.225455 Z M7.22333333,105.19 C5.36555556,104.483455 3.83777778,103.521091 2.67666667,102.315091 L4.44888889,100.634 C5.35333333,101.584182 6.58777778,102.351636 8.09111111,102.924182 L7.22333333,105.19 Z M32.0588889,104.410364 L31.4722222,102.047091 C32.9755556,101.669455 34.5522222,101.255273 36.1288889,100.780182 L36.8255556,103.119091 C35.2122222,103.594182 33.6111111,104.032727 32.0588889,104.410364 Z M41.5433333,101.620727 L40.7611111,99.3183636 C42.2522222,98.8189091 43.78,98.2585455 45.32,97.686 L46.1877778,99.964 C44.6111111,100.548727 43.0466667,101.109091 41.5433333,101.620727 Z M50.7588889,98.1489091 L49.8177778,95.8952727 C51.2844444,95.2861818 52.7755556,94.6405455 54.2666667,93.9705455 L55.2688889,96.1876364 C53.7533333,96.8698182 52.25,97.5276364 50.7588889,98.1489091 Z M0.183333333,97.3936364 C0.0611111111,96.7358182 0,96.0536364 0,95.3470909 C0,94.3238182 0.122222222,93.2274545 0.378888889,92.0823636 L2.76222222,92.6061818 C2.54222222,93.5685455 2.44444444,94.4943636 2.44444444,95.3349091 C2.44444444,95.8952727 2.49333333,96.4434545 2.57888889,96.9550909 L0.183333333,97.3936364 Z M59.73,94.1045455 L58.6544444,91.9118182 C60.0966667,91.2174545 61.5388889,90.4865455 62.9933333,89.7312727 L64.1177778,91.8874545 C62.6633333,92.6670909 61.1966667,93.398 59.73,94.1045455 Z M68.4688889,89.5850909 L67.2833333,87.4532727 C68.31,86.8929091 69.3366667,86.3081818 70.3755556,85.7112727 L71.5122222,85.0534545 L72.7466667,87.1487273 L71.5977778,87.8187273 C70.5466667,88.4156364 69.5077778,89.0125455 68.4688889,89.5850909 Z M4.30222222,88.2694545 L2.09,87.2461818 C2.75,85.8330909 3.56888889,84.3590909 4.53444444,82.8485455 L6.6,84.152 C5.68333333,85.5772727 4.91333333,86.966 4.30222222,88.2694545 Z M76.9511111,84.6149091 L75.6677778,82.544 C77.0611111,81.6790909 78.4177778,80.8141818 79.7622222,79.9370909 L81.1066667,81.9714545 C79.75,82.8607273 78.3688889,83.75 76.9511111,84.6149091 Z M9.33777778,80.2538182 L7.39444444,78.7676364 C8.36,77.5129091 9.42333333,76.2338182 10.56,74.9425455 L12.3933333,76.5505455 C11.3055556,77.8052727 10.2666667,79.0478182 9.33777778,80.2538182 Z M85.1766667,79.2183636 L83.7833333,77.2205455 C85.1277778,76.2825455 86.4477778,75.3445455 87.7188889,74.3943636 L89.1733333,76.3556364 C87.8777778,77.318 86.5455556,78.2681818 85.1766667,79.2183636 Z M93.0844444,73.3710909 L91.5688889,71.4585455 C92.8644444,70.4352727 94.1111111,69.4241818 95.3211111,68.4009091 L96.8977778,70.2647273 C95.6755556,71.288 94.4044444,72.3356364 93.0844444,73.3710909 Z M15.6811111,73.0421818 L13.9333333,71.3367273 C15.0577778,70.1916364 16.2433333,69.0343636 17.4777778,67.9014545 L19.1522222,69.68 C17.9422222,70.7885455 16.7811111,71.9214545 15.6811111,73.0421818 Z M100.613333,67 L98.9633333,65.1970909 C100.173333,64.0885455 101.358889,62.9678182 102.471111,61.8714545 L104.194444,63.6012727 C103.057778,64.7341818 101.847778,65.8792727 100.613333,67 Z M22.7577778,66.4518182 L21.1566667,64.6123636 C22.3788889,63.5647273 23.65,62.5049091 24.9455556,61.4694545 L26.4733333,63.3698182 C25.2022222,64.3809091 23.9433333,65.4285455 22.7577778,66.4518182 Z M30.2988889,60.3852727 L28.82,58.4361818 C30.1155556,57.4616364 31.4355556,56.4992727 32.7922222,55.5369091 L34.21,57.5225455 C32.8777778,58.4727273 31.57,59.4350909 30.2988889,60.3852727 Z M107.616667,60.0441818 L105.807778,58.4118182 C106.92,57.1936364 107.971111,55.9632727 108.936667,54.7694545 L110.843333,56.2921818 C109.841111,57.5225455 108.765556,58.7772727 107.616667,60.0441818 Z M38.2188889,54.7816364 L36.8622222,52.7594545 C38.2066667,51.858 39.5877778,50.9687273 40.9933333,50.0916364 L42.3011111,52.1503636 C40.9077778,53.0152727 39.5511111,53.8923636 38.2188889,54.7816364 Z M113.801111,52.2843636 L111.772222,50.92 C112.713333,49.5190909 113.532222,48.1547273 114.204444,46.8634545 L116.38,47.9841818 C115.658889,49.3607273 114.791111,50.8103636 113.801111,52.2843636 Z M46.4322222,49.6165455 L45.1855556,47.5212727 C45.9433333,47.0705455 46.7011111,46.6198182 47.4833333,46.1812727 C48.9133333,45.3529091 50.3433333,44.5610909 51.7733333,43.7814545 L52.9466667,45.9254545 C51.5411111,46.6929091 50.1233333,47.4725455 48.7055556,48.2887273 C47.9355556,48.7272727 47.1777778,49.1658182 46.4322222,49.6165455 Z M57.2366667,43.6596364 L56.1244444,41.4912727 C57.6033333,40.736 59.0822222,40.0172727 60.5366667,39.3229091 L61.5877778,41.5156364 C60.1455556,42.21 58.6911111,42.9165455 57.2366667,43.6596364 Z M118.323333,43.2698182 L115.976667,42.5754545 C116.392222,41.1745455 116.612222,39.8467273 116.612222,38.6529091 C116.612222,38.4945455 116.612222,38.3361818 116.6,38.19 L119.044444,38.0681818 C119.056667,38.2630909 119.056667,38.4458182 119.056667,38.6407273 C119.056667,40.0903636 118.812222,41.6374545 118.323333,43.2698182 Z M66,39.4934545 L65.01,37.2641818 C66.5377778,36.5941818 68.0533333,35.9485455 69.5444444,35.3394545 L70.4611111,37.5930909 C68.9944444,38.2021818 67.5033333,38.8356364 66,39.4934545 Z M74.9833333,35.8632727 L74.14,33.5730909 C75.7044444,33.0005455 77.2811111,32.4523636 78.7966667,31.9529091 L79.5544444,34.2674545 C78.0633333,34.7547273 76.5233333,35.2907273 74.9833333,35.8632727 Z M115.328889,34.2430909 C114.583333,33.1589091 113.483333,32.2574545 112.077778,31.5630909 L113.153333,29.3825455 C114.937778,30.2596364 116.343333,31.4290909 117.333333,32.8543636 L115.328889,34.2430909 Z M84.1866667,32.8543636 L83.5266667,30.5154545 C85.1522222,30.0525455 86.7655556,29.6383636 88.3177778,29.2850909 L88.8677778,31.6605455 C87.34,32.0016364 85.7755556,32.4036364 84.1866667,32.8543636 Z M93.5855556,30.6981818 L93.17,28.2983636 C94.8811111,28.006 96.5433333,27.7867273 98.1077778,27.6405455 L98.34,30.0647273 C96.8244444,30.1987273 95.2355556,30.4058182 93.5855556,30.6981818 Z M107.763333,30.2352727 C106.357778,29.9916364 104.781111,29.8576364 103.094444,29.8332727 L103.118889,27.3969091 C104.94,27.4212727 106.651111,27.5674545 108.178889,27.8232727 L107.763333,30.2352727 Z" id="Shape" opacity="0.5"></path>
            <path d="M102.678889,106.590909 C88.55,106.590909 67.9066667,99.5741818 47.4833333,87.8187273 C14.8255556,69.0343636 -5.43888889,45.1701818 1.32,33.5 C3.63,29.5165455 8.84888889,27.4090909 16.4022222,27.4090909 C30.5311111,27.4090909 51.1744444,34.4258182 71.5977778,46.1812727 C104.243333,64.9656364 124.52,88.8298182 117.748889,100.5 C115.438889,104.483455 110.232222,106.590909 102.678889,106.590909 Z M16.39,29.8454545 C11.77,29.8454545 5.76888889,30.686 3.43444444,34.7181818 C-2.44444444,44.8656364 18.2844444,68.206 48.6933333,85.7112727 C68.4688889,97.0890909 89.1488889,104.166727 102.666667,104.166727 C107.286667,104.166727 113.287778,103.326182 115.622222,99.294 C121.501111,89.1465455 100.772222,65.8061818 70.3633333,48.3009091 C50.6,36.9109091 29.9077778,29.8454545 16.39,29.8454545 Z" id="Shape" opacity="0.75"></path>
            <ellipse id="Oval" cx="115.756667" cy="88.9272727" rx="4.88888889" ry="4.87272727"></ellipse>
            <ellipse id="Oval" cx="14.3122222" cy="104.763636" rx="4.88888889" ry="4.87272727"></ellipse>
            <ellipse id="Oval" cx="46.09" cy="13.4" rx="4.88888889" ry="4.87272727"></ellipse>
            <ellipse id="Oval" cx="59.5344444" cy="67" rx="11" ry="10.9636364"></ellipse>
        </g>
    </g>
</svg>