<?xml version="1.0" encoding="UTF-8"?>
<svg width="137px" height="134px" viewBox="0 0 137 134" version="1.1" xmlns="http://www.w3.org/2000/svg" xmlns:xlink="http://www.w3.org/1999/xlink">
    <!-- Generator: Sketch 52.1 (67048) - http://www.bohemiancoding.com/sketch -->
    <title>ngss_earth_and_space_sciences</title>
    <desc>Created with Sketch.</desc>
    <defs>
        <path d="M93,68 C80.3333333,70.6666667 65.2213333,72 47.664,72 C30.1066667,72 14.2186667,70.6666667 0,68 L34.342,2.715 C35.112,1.205 36.41,0.298 37.8,0.298 L47.664,0.298 L57.528,0.298 C58.918,0.298 60.216,1.205 60.986,2.715 L93,68 Z M64.3910749,28.2601024 L74.2250749,48.4381024 L76.0229251,47.5618976 L66.1889251,27.3838976 L64.3910749,28.2601024 Z M75.8848048,52.5919961 L79.7188048,60.7579961 L81.5291952,59.9080039 L77.6951952,51.7420039 L75.8848048,52.5919961 Z M18.6927837,54.9300949 L31.5267837,27.9910949 L29.7212163,27.1309051 L16.8872163,54.0699051 L18.6927837,54.9300949 Z" id="path-1"></path>
        <rect id="path-3" x="0" y="0" width="137" height="122"></rect>
    </defs>
    <g id="ngss_earth_and_space_sciences" stroke="none" stroke-width="1" fill="none" fill-rule="evenodd">
        <path d="M68.957,50 L66.957,50 L66.957,36 L68.957,36 L68.957,50 Z M85.977187,52.6142948 L84.282813,51.5517052 L88.776813,44.3857052 L90.471187,45.4482948 L85.977187,52.6142948 Z M53.8559691,51.644988 L52.0580309,52.521012 L44.3840309,36.771012 L46.1819691,35.894988 L53.8559691,51.644988 Z M68.957,31 L66.957,31 L66.957,23 L68.957,23 L68.957,31 Z M60.957,44 L58.957,44 L58.957,30 L60.957,30 L60.957,44 Z M60.957,24 L58.957,24 L58.957,15 L60.957,15 L60.957,24 Z" id="Combined-Shape" fill="#FFFFFF" fill-rule="nonzero" opacity="0.75"></path>
        <path d="M44.595517,77.1443327 L21.313897,121.403274 C13.7073751,121.02301 7.93607613,120.164222 4,118.82691 L34.689,59.43991 C34.985,58.86591 35.706,58.85091 36.021,59.41091 L44.595517,77.1443327 Z M113.727559,121.44442 L95.1863702,83.6340407 L107.689,59.43991 C107.985,58.86591 108.706,58.85091 109.021,59.41091 L137.75,118.82691 C130.570045,120.21487 122.562564,121.087373 113.727559,121.44442 Z" id="Combined-Shape" fill="#FFFFFF" opacity="0.5"></path>
        <g id="XMLID_65_" transform="translate(21.000000, 54.000000)">
            <mask id="mask-2" fill="white">
                <use xlink:href="#path-1"></use>
            </mask>
            <use id="Combined-Shape" fill="#FFFFFF" opacity="0.75" xlink:href="#path-1"></use>
            <path d="M37.438,12.016 C37.611,11.923 37.81,12.038 37.869,12.264 L40.24,21.41 C40.321,21.724 40.649,21.791 40.804,21.525 L46.767,11.315 C46.887,11.11 47.125,11.093 47.262,11.281 L55.72,22.862 C55.86,23.054 56.105,23.031 56.221,22.816 L66.123,12.781 L68,6.5 L60,-2 L31,-0.5 L23,21.41 L37.438,12.016 Z" fill="#FFFFFF" mask="url(#mask-2)"></path>
        </g>
        <g id="Combined-Shape" transform="translate(0.000000, 9.000000)">
            <mask id="mask-4" fill="white">
                <use xlink:href="#path-3"></use>
            </mask>
            <g id="Mask"></g>
            <path d="M136.495514,107.232439 L118.342685,69.6895917 L126.768956,53.3837184 C127.027147,52.883038 127.65605,52.869954 127.930814,53.3584227 L152.990129,105.18495 C147.957942,106.157724 142.459737,106.84022 136.495514,107.232439 Z M21.6861282,75.6020707 L5.13847466,107.623821 C-5.06245916,107.546539 -12.4419507,106.733582 -17,105.18495 L9.76895605,53.3837184 C10.0271466,52.883038 10.6560501,52.869954 10.9308137,53.3584227 L21.6861282,75.6020707 Z" fill="#DEDEDE" opacity="0.25" mask="url(#mask-4)"></path>
        </g>
        <polygon id="XMLID_20_" fill="#FFFFFF" points="85.3910749 82.2601024 87.1889251 81.3838976 97.0229251 101.561898 95.2250749 102.438102"></polygon>
        <polygon id="XMLID_21_" fill="#FFFFFF" points="96.8848048 106.591996 98.6951952 105.742004 102.529195 113.908004 100.718805 114.757996"></polygon>
        <polygon id="XMLID_22_" fill="#FFFFFF" points="39.6927837 108.930095 37.8872163 108.069905 50.7212163 81.1309051 52.5267837 81.9910949"></polygon>
        <path d="M99.6702747,31.4504575 C99.8841893,32.0947847 100,32.7838678 100,33.5 C100,37.0898509 97.0898509,40 93.5,40 C91.2429309,40 89.2545542,38.8495914 88.0892367,37.103141 C86.9135219,38.2753266 85.2913892,39 83.5,39 C79.9101491,39 77,36.0898509 77,32.5 C77,29.0102248 79.7501561,26.1627829 83.2014061,26.0067365 C83.06934,25.3584288 83,24.687312 83,24 C83,18.4771525 87.4771525,14 93,14 C98.5228475,14 103,18.4771525 103,24 C103,26.9599246 101.714012,29.6194905 99.6702747,31.4504575 Z" id="Combined-Shape" fill="#FFFFFF" opacity="0.75"></path>
    </g>
</svg>