<?xml version="1.0" encoding="iso-8859-1"?>
<!-- Generator: Adobe Illustrator 23.0.0, SVG Export Plug-In . SVG Version: 6.00 Build 0)  -->
<svg version="1.1" id="Layer_1" xmlns="http://www.w3.org/2000/svg" xmlns:xlink="http://www.w3.org/1999/xlink" x="0px" y="0px"
	 viewBox="0 0 149.92 146.29" style="enable-background:new 0 0 149.92 146.29;" xml:space="preserve">
<title>organized-by-standard</title>
<path style="fill:#FFFFFF;" d="M40.54,40.72V33c0-0.917-0.743-1.66-1.66-1.66h-31c-0.917,0-1.66,0.743-1.66,1.66v7.72"/>
<path style="fill:#FFFFFF;" d="M124.58,125.65H0.46V44.04c0-1.834,1.486-3.32,3.32-3.32h117.68c1.236-0.045,2.404,0.567,3.07,1.61
	L124.58,125.65z"/>
<path style="fill:#D0E4F1;" d="M13.82,44.9h-5c-1.833-0.022-3.338,1.446-3.36,3.28c0,0.013,0,0.027,0,0.04v77.43h5V48.22
	c0-1.834,1.486-3.32,3.32-3.32C13.793,44.9,13.807,44.9,13.82,44.9z"/>
<path style="fill:none;stroke:#A1C2D8;stroke-linecap:round;stroke-linejoin:round;" d="M40.54,40.72V33
	c0-0.917-0.743-1.66-1.66-1.66h-31c-0.917,0-1.66,0.743-1.66,1.66v7.72"/>
<path style="fill:none;stroke:#A1C2D8;stroke-linecap:round;stroke-linejoin:round;" d="M124.58,125.65H0.46V44.04
	c0-1.834,1.486-3.32,3.32-3.32h117.68c1.236-0.045,2.404,0.567,3.07,1.61L124.58,125.65z"/>
<path style="fill:#FFFFFF;" d="M48.71,45.41v-7.76c0-0.917-0.743-1.66-1.66-1.66h-31c-0.889,0.038-1.591,0.77-1.59,1.66v7.72"/>
<path style="fill:#FFFFFF;" d="M132.75,130.35H8.68V48.73c0-1.834,1.486-3.32,3.32-3.32h117.68c1.236-0.045,2.404,0.567,3.07,1.61
	L132.75,130.35z"/>
<path style="fill:#D0E4F1;" d="M22.14,49.59h-5c-1.834,0-3.32,1.486-3.32,3.32v77.44h5V52.91C18.82,51.076,20.306,49.59,22.14,49.59
	z"/>
<path style="fill:none;stroke:#A1C2D8;stroke-linecap:round;stroke-linejoin:round;" d="M48.71,45.41v-7.76
	c0-0.917-0.743-1.66-1.66-1.66h-31c-0.889,0.038-1.591,0.77-1.59,1.66v7.72"/>
<path style="fill:none;stroke:#A1C2D8;stroke-linecap:round;stroke-linejoin:round;" d="M132.75,130.35H8.68V48.73
	c0-1.834,1.486-3.32,3.32-3.32h117.68c1.236-0.045,2.404,0.567,3.07,1.61L132.75,130.35z"/>
<rect x="17.159" y="55.323" transform="matrix(0.7953 -0.6063 0.6063 0.7953 -42.9924 43.6784)" style="fill:#FFFFFF;stroke:#A1C2D8;stroke-linecap:round;stroke-linejoin:round;" width="52.03" height="60.34"/>
<rect x="15.771" y="64.3" transform="matrix(0.7071 -0.7071 0.7071 0.7071 -54.5613 57.2164)" style="fill:#FFFFFF;stroke:#A1C2D8;stroke-linecap:round;stroke-linejoin:round;" width="52.03" height="60.34"/>
<path style="fill:#FFFFFF;stroke:#A1C2D8;stroke-linecap:round;stroke-linejoin:round;" d="M56.89,50.1v-7.72
	c0-0.917-0.743-1.66-1.66-1.66h-31c-0.917,0-1.66,0.743-1.66,1.66v7.72"/>
<path style="fill:#FFFFFF;stroke:#A1C2D8;stroke-linecap:round;stroke-linejoin:round;" d="M140.93,135.04H16.85V53.42
	c0-1.834,1.486-3.32,3.32-3.32h117.69c1.236-0.045,2.404,0.567,3.07,1.61V135.04z"/>
<path style="fill:#D0E4F1;stroke:#D0E4F1;stroke-linecap:round;stroke-linejoin:round;" d="M56.76,16.01h88.35
	c0.795,0,1.44,0.645,1.44,1.44v126.9c0,0.795-0.645,1.44-1.44,1.44H56.76c-0.795,0-1.44-0.645-1.44-1.44V17.45
	C55.32,16.655,55.965,16.01,56.76,16.01z"/>
<path style="fill:#FFFFFF;stroke:#3F555A;stroke-linecap:round;stroke-linejoin:round;" d="M59.63,13.14h88.35
	c0.795,0,1.44,0.645,1.44,1.44v126.9c0,0.795-0.645,1.44-1.44,1.44H59.63c-0.795,0-1.44-0.645-1.44-1.44V14.58
	C58.19,13.785,58.835,13.14,59.63,13.14z"/>
<path style="fill:#FFFFFF;" d="M115.99,3.06L115.99,3.06c0-1.402-1.128-2.544-2.53-2.56H94.87c-1.414,0-2.56,1.146-2.56,2.56l0,0
	c0.017,1.414-1.116,2.573-2.53,2.59c-0.01,0-0.02,0-0.03,0h-6.79c-1.414,0-2.56,1.146-2.56,2.56v9.11c0,1.414,1.146,2.56,2.56,2.56
	h42.38c1.414,0,2.56-1.146,2.56-2.56V8.18c-0.016-1.402-1.158-2.53-2.56-2.53h-6.79c-1.414,0-2.56-1.146-2.56-2.56
	C115.99,3.08,115.99,3.07,115.99,3.06z"/>
<path style="fill:#D0E4F1;" d="M83.62,14.1V5.65h-0.66c-1.414,0-2.56,1.146-2.56,2.56v9.11c0,1.414,1.146,2.56,2.56,2.56h42.38
	c1.414,0,2.56-1.146,2.56-2.56v-0.67H86.18C84.77,16.65,83.626,15.51,83.62,14.1z"/>
<path style="fill:#D0E4F1;" d="M106.32,4.92c0.255,0.459,0.389,0.975,0.39,1.5c0,1.734-1.406,3.14-3.14,3.14
	c-0.442-0.001-0.878-0.097-1.28-0.28c0.822,1.52,2.722,2.086,4.242,1.264c1.52-0.822,2.086-2.722,1.264-4.242
	c-0.333-0.616-0.864-1.103-1.506-1.382L106.32,4.92z"/>
<rect x="69.97" y="29.68" style="fill:#FFFFFF;stroke:#3F555A;stroke-linecap:round;stroke-linejoin:round;" width="13.46" height="13.46"/>
<rect x="69.97" y="54.71" style="fill:#FFFFFF;stroke:#3F555A;stroke-linecap:round;stroke-linejoin:round;" width="13.46" height="13.46"/>
<line style="fill:none;stroke:#3F555A;stroke-width:2;stroke-linejoin:round;" x1="91.14" y1="32.32" x2="122.7" y2="32.32"/>
<line style="fill:none;stroke:#3F555A;stroke-width:2;stroke-linejoin:round;" x1="91.14" y1="79.45" x2="122.7" y2="79.45"/>
<path style="fill:none;stroke:#A1C2D8;stroke-linecap:round;stroke-linejoin:round;" d="M114.16,37.65h25.25"/>
<path style="fill:none;stroke:#A1C2D8;stroke-linecap:round;stroke-linejoin:round;" d="M91.14,37.65h16.82"/>
<path style="fill:none;stroke:#A1C2D8;stroke-linecap:round;stroke-linejoin:round;" d="M91.14,43.14h48.26"/>
<line style="fill:none;stroke:#3F555A;stroke-width:2;stroke-linejoin:round;" x1="91.14" y1="56.03" x2="122.7" y2="56.03"/>
<path style="fill:none;stroke:#A1C2D8;stroke-linecap:round;stroke-linejoin:round;" d="M114.16,61.34h25.25"/>
<path style="fill:none;stroke:#A1C2D8;stroke-linecap:round;stroke-linejoin:round;" d="M91.14,61.34h16.82"/>
<path style="fill:none;stroke:#A1C2D8;stroke-linecap:round;stroke-linejoin:round;" d="M91.14,66.85h10.24"/>
<path style="fill:none;stroke:#A1C2D8;stroke-linecap:round;stroke-linejoin:round;" d="M106.71,66.85h24.49"/>
<rect x="69.97" y="78.6" style="fill:#FFFFFF;stroke:#3F555A;stroke-linecap:round;stroke-linejoin:round;" width="13.46" height="13.46"/>
<rect x="69.97" y="103.63" style="fill:#FFFFFF;stroke:#3F555A;stroke-linecap:round;stroke-linejoin:round;" width="13.46" height="13.46"/>
<path style="fill:none;stroke:#A1C2D8;stroke-linecap:round;stroke-linejoin:round;" d="M114.16,86.56h25.25"/>
<path style="fill:none;stroke:#A1C2D8;stroke-linecap:round;stroke-linejoin:round;" d="M91.14,86.56h16.82"/>
<path style="fill:none;stroke:#A1C2D8;stroke-linecap:round;stroke-linejoin:round;" d="M91.14,92.07h48.26"/>
<line style="fill:none;stroke:#3F555A;stroke-width:2;stroke-linejoin:round;" x1="91.14" y1="104.95" x2="122.7" y2="104.95"/>
<path style="fill:none;stroke:#A1C2D8;stroke-linecap:round;stroke-linejoin:round;" d="M114.16,110.26h25.25"/>
<path style="fill:none;stroke:#A1C2D8;stroke-linecap:round;stroke-linejoin:round;" d="M91.14,110.26h16.82"/>
<path style="fill:none;stroke:#A1C2D8;stroke-linecap:round;stroke-linejoin:round;" d="M91.14,115.77h10.24"/>
<path style="fill:none;stroke:#A1C2D8;stroke-linecap:round;stroke-linejoin:round;" d="M106.71,115.77h24.49"/>
<line style="fill:none;stroke:#A1C2D8;stroke-linecap:round;stroke-linejoin:round;" x1="31.18" y1="45.4" x2="49.05" y2="45.4"/>
<path style="fill:#F27776;" d="M127.9,110.36c6.534,0,11.83,5.296,11.83,11.83c0,6.534-5.296,11.83-11.83,11.83
	c-6.534,0-11.83-5.296-11.83-11.83l0,0C116.07,115.656,121.366,110.36,127.9,110.36L127.9,110.36 M127.9,108.36
	c-7.638,0-13.83,6.192-13.83,13.83c0,7.638,6.192,13.83,13.83,13.83s13.83-6.192,13.83-13.83
	C141.719,114.556,135.534,108.371,127.9,108.36z"/>
<circle style="fill:none;stroke:#F27776;stroke-width:1.02;stroke-miterlimit:10;" cx="127.9" cy="122.19" r="9.55"/>
<line style="fill:none;stroke:#F27776;stroke-width:1.02;stroke-miterlimit:10;" x1="123.55" y1="120.68" x2="132.25" y2="120.68"/>
<line style="fill:none;stroke:#F27776;stroke-width:1.02;stroke-miterlimit:10;" x1="121.96" y1="123.7" x2="133.84" y2="123.7"/>
<polygon style="fill:#19BC9C;stroke:#109995;stroke-linecap:round;stroke-linejoin:round;" points="71.97,34.23 74.65,31.55 
	78.47,35.36 86.11,27.72 88.8,30.4 78.47,40.73 "/>
<polygon style="fill:#19BC9C;stroke:#109995;stroke-linecap:round;stroke-linejoin:round;" points="71.97,59.59 74.65,56.91 
	78.47,60.73 86.11,53.09 88.8,55.77 78.47,66.09 "/>
<polygon style="fill:#19BC9C;stroke:#109995;stroke-linecap:round;stroke-linejoin:round;" points="71.97,83.19 74.65,80.51 
	78.47,84.32 86.11,76.68 88.8,79.36 78.47,89.69 "/>
<polygon style="fill:#19BC9C;stroke:#109995;stroke-linecap:round;stroke-linejoin:round;" points="71.97,107.78 74.65,105.1 
	78.47,108.92 86.11,101.27 88.8,103.95 78.47,114.28 "/>
<circle style="fill:#FFFFFF;stroke:#3F555A;stroke-linecap:round;stroke-linejoin:round;" cx="104.15" cy="6.91" r="2.77"/>
<path style="fill:#D0E4F1;" d="M88.51,6.09h8.5c1.522,0.003,2.882-0.949,3.4-2.38l0.14-0.4h-8.42l-0.81,1.77L88.51,6.09z"/>
<path style="fill:none;stroke:#3F555A;stroke-linecap:round;stroke-linejoin:round;" d="M115.99,3.06L115.99,3.06
	c0-1.402-1.128-2.544-2.53-2.56H94.87c-1.414,0-2.56,1.146-2.56,2.56l0,0c0.017,1.414-1.116,2.573-2.53,2.59c-0.01,0-0.02,0-0.03,0
	h-6.79c-1.414,0-2.56,1.146-2.56,2.56v9.11c0,1.414,1.146,2.56,2.56,2.56h42.38c1.414,0,2.56-1.146,2.56-2.56V8.18
	c-0.016-1.402-1.158-2.53-2.56-2.53h-6.79c-1.414,0-2.56-1.146-2.56-2.56C115.99,3.08,115.99,3.07,115.99,3.06z"/>
</svg>
