<?xml version="1.0" encoding="iso-8859-1"?>
<!-- Generator: Adobe Illustrator 23.0.0, SVG Export Plug-In . SVG Version: 6.00 Build 0)  -->
<svg version="1.1" id="Layer_1" xmlns="http://www.w3.org/2000/svg" xmlns:xlink="http://www.w3.org/1999/xlink" x="0px" y="0px"
	 viewBox="0 0 282.46 138.85" style="enable-background:new 0 0 282.46 138.85;" xml:space="preserve">
<title>home-illustration-pilot-when</title>
<path style="fill:#D0E4F1;" d="M205.17,15.8H84.92c-5.346-0.006-9.684,4.324-9.69,9.67c0,0.003,0,0.007,0,0.01v95.51l17.31,17.87
	h112.63c5.346,0,9.68-4.334,9.68-9.68V25.48C214.85,20.134,210.516,15.8,205.17,15.8z"/>
<path style="fill:#DD5566;" d="M62.5,116.93c36.55,0,39.39-30.32,39.39-30.33H72.23c0,2.121-1.719,3.84-3.84,3.84h-0.24
	c-0.695,1.986-2.869,3.033-4.855,2.338c-0.659-0.231-1.242-0.638-1.685-1.178c-1.342,1.628-3.75,1.859-5.378,0.517
	c-0.471-0.389-0.842-0.885-1.082-1.447c-1.767,1.163-4.142,0.673-5.305-1.094c-0.574-0.871-0.767-1.939-0.535-2.956h-26.2
	C23.11,86.62,25.95,116.93,62.5,116.93z"/>
<path style="fill:#BC1A3C;" d="M28.33,86.58h-5.22c0,0,2.84,30.35,39.39,30.35c0.89,0,1.76,0,2.61-0.06
	C31.04,115.44,28.33,86.59,28.33,86.58z"/>
<path style="fill:#BC1A3C;" d="M62.5,117.26c-10.51,0-24.88-2.66-33.69-15.31c-3.18-4.571-5.251-9.82-6.05-15.33v-0.38h27l-0.1,0.43
	c-0.424,1.875,0.751,3.738,2.626,4.162c0.92,0.208,1.885,0.034,2.674-0.482l0.35-0.23l0.16,0.38
	c0.754,1.762,2.793,2.579,4.555,1.826c0.511-0.219,0.962-0.557,1.315-0.986l0.27-0.32l0.27,0.32c1.214,1.476,3.394,1.688,4.87,0.475
	c0.491-0.404,0.861-0.935,1.07-1.535l0.09-0.25h0.26h0.22c1.925-0.005,3.485-1.565,3.49-3.49v-0.31h30.35v0.35
	C102.23,86.93,99.29,117.26,62.5,117.26z M23.51,86.93c0.847,5.26,2.864,10.262,5.9,14.64c8.64,12.39,22.77,15,33.1,15
	c33.61,0,38.5-26.14,39-29.63H72.56c-0.187,2.17-2.002,3.838-4.18,3.84l0,0c-0.9,2.114-3.344,3.097-5.458,2.197
	c-0.49-0.209-0.936-0.51-1.312-0.887c-1.638,1.619-4.278,1.605-5.897-0.033C55.43,91.771,55.19,91.445,55,91.09
	c-2.042,1.077-4.57,0.295-5.647-1.747c-0.319-0.605-0.485-1.279-0.483-1.963c-0.01-0.163-0.01-0.327,0-0.49L23.51,86.93z"/>
<path style="fill:#FFDC64;" d="M208.69,48.26c-0.35-1.14-4.24-12.08,2.69-7.22s5.75,0.48,7.8,0.59s-6.59-7.39,0.2-12.1
	c4.13-2.87,8.56,0,11.17-3.68c1.25-1.79-0.78-3.74,0.79-6.33c1.88-3.12,4.46-0.2,5.91-3.4s3.77-8.68,9.27-4.38s2.6,15.81-1.62,16.63
	s7.13,5.27,5.55,9.44c-2.85,7.54-13.11,5.68-14.15,7.17s-5.1,6-0.83,9.86S217.1,84.48,217.1,84.48"/>
<path style="fill:#FAAC30;" d="M217.37,84.69l-0.53-0.46c0.06-0.06,5.71-6.51,10.77-13.34c8.76-11.82,8.54-15,7.63-15.8
	c-4.13-3.75-0.93-8,0.44-9.86l0.34-0.46c0.41-0.58,1.54-0.72,3.27-0.93c3.56-0.44,8.93-1.11,10.84-6.16c0.75-2-1.91-4.15-4-5.9
	c-1.6-1.31-2.65-2.17-2.45-3c0.15-0.59,0.95-0.75,1.21-0.8c1.63-0.31,3.22-2.57,4-5.61c0.79-3.28,0.61-8-2.49-10.39
	c-1.59-1.24-3-1.72-4.24-1.42c-2.18,0.53-3.46,3.38-4.4,5.46l-0.09,0.21c-0.476,1.282-1.759,2.08-3.12,1.94
	c-1.152-0.105-2.256,0.484-2.81,1.5c-0.585,1.044-0.739,2.274-0.43,3.43c0.285,0.983,0.151,2.039-0.37,2.92
	c-1.5,2.14-3.55,2.23-5.72,2.33c-1.949-0.088-3.88,0.414-5.54,1.44c-4.4,3.05-2,7.28-0.52,9.81c0.62,1.08,1,1.68,0.71,2.09
	c-0.132,0.203-0.371,0.309-0.61,0.27c-0.42,0-0.66,0.22-1,0.65c-1,1.24-2.28,2-7-1.29c-1.48-1-2.57-1.4-3.07-1s-1,1.84,0.82,7.57
	l0.09,0.28l-0.67,0.21l-0.09-0.27c-1.55-4.76-1.74-7.49-0.57-8.35c0.8-0.59,2.07-0.26,3.89,1c4.55,3.19,5.34,2.25,6,1.42
	c0.322-0.523,0.877-0.859,1.49-0.9l0,0c-0.194-0.449-0.422-0.884-0.68-1.3c-1.47-2.56-4.2-7.32,0.73-10.74
	c1.767-1.098,3.822-1.641,5.9-1.56c2.08-0.09,3.88-0.18,5.18-2c0.421-0.735,0.512-1.614,0.25-2.42
	c-0.338-1.319-0.148-2.719,0.53-3.9c0.666-1.22,1.983-1.939,3.37-1.84c1.104,0.124,2.145-0.538,2.5-1.59l0.09-0.21
	c1-2.21,2.37-5.23,4.88-5.85c1.45-0.35,3.07,0.17,4.84,1.55c3.36,2.63,3.58,7.63,2.74,11.11s-2.58,5.77-4.5,6.14
	c-0.49,0.09-0.65,0.23-0.66,0.28c-0.09,0.36,1.24,1.45,2.21,2.25c2.31,1.89,5.18,4.24,4.26,6.69c-2.06,5.45-7.92,6.18-11.41,6.61
	c-1.26,0.16-2.56,0.32-2.78,0.64l-0.35,0.48c-1.36,1.82-4.18,5.6-0.53,8.92C240.12,58.57,219.71,82.03,217.37,84.69z"/>
<path style="fill:#FFDC64;" d="M243.51,17.33c0,0-8.84,9.11-7.74,12.41s2.93,7.6-1.29,8.69s-3.39,3.85-6,7.91
	s-12.25,8.72-12.25,8.72"/>
<path style="fill:#FAAC30;" d="M216.37,55.38l-0.3-0.63c0.1,0,9.6-4.67,12.13-8.6c0.711-1.137,1.304-2.343,1.77-3.6
	c0.83-2.06,1.48-3.7,4.44-4.46c0.833-0.16,1.56-0.665,2-1.39c0.82-1.53,0-4-0.76-6.14l-0.24-0.71c-1.14-3.4,6.9-11.82,7.82-12.77
	l0.5,0.49c-2.42,2.49-8.51,9.52-7.66,12.06l0.24,0.71c0.79,2.3,1.68,4.9,0.71,6.69c-0.542,0.911-1.449,1.544-2.49,1.74
	c-2.62,0.67-3.15,2-4,4c-0.481,1.299-1.095,2.546-1.83,3.72C226.14,50.62,216.76,55.19,216.37,55.38z"/>
<path style="fill:#FFDC64;" d="M231.23,40.67c4,1.39,6.73-4.53,11.07-2.84"/>
<path style="fill:#FAAC30;" d="M232.46,41.24c-0.463,0-0.923-0.078-1.36-0.23l0.23-0.66c1.79,0.62,3.33-0.36,5-1.4
	c1.83-1.17,3.73-2.37,6.13-1.43l-0.25,0.65c-2.07-0.81-3.74,0.25-5.5,1.37C235.485,40.502,234.01,41.092,232.46,41.24z"/>
<path style="fill:#FFDC64;" d="M223,34.93c0,0,6.08,7.43,4,13.12"/>
<path style="fill:#FAAC30;" d="M227.37,48.15l-0.66-0.24c1.95-5.44-3.93-12.71-4-12.78l0.54-0.44
	C223.52,35,229.45,42.34,227.37,48.15z"/>
<path style="fill:#FFDC64;" d="M219.83,45.87c0,0,0.5,6.31-0.74,7.68"/>
<path style="fill:#FAAC30;" d="M219.35,53.78l-0.52-0.47c0.93-1,0.78-5.71,0.65-7.42l0.7-0.05
	C220.23,46.5,220.65,52.34,219.35,53.78z"/>
<path style="fill:#109995;" d="M242.28,65.25c-0.15-0.001-0.283-0.098-0.33-0.24c-0.06-0.17-0.05-0.38,0.59-1.09
	c0.09-0.1,9.42-10.15,23.4-6.89c0.191,0.032,0.319,0.213,0.287,0.403s-0.213,0.319-0.403,0.287c-0.015-0.002-0.029-0.006-0.044-0.01
	c-13.2-3.09-22.65,6.27-23.15,7.22c-0.013,0.139-0.107,0.257-0.24,0.3L242.28,65.25z"/>
<circle style="fill:#F56F40;" cx="268.66" cy="59.56" r="3.55"/>
<path style="fill:#D65129;" d="M268.67,63.46c-2.154,0-3.9-1.746-3.9-3.9c0-2.154,1.746-3.9,3.9-3.9c2.154,0,3.9,1.746,3.9,3.9
	c0,0,0,0,0,0C272.565,61.712,270.822,63.454,268.67,63.46z M268.67,56.35c-1.767,0-3.2,1.433-3.2,3.2s1.433,3.2,3.2,3.2
	s3.2-1.433,3.2-3.2c-0.011-1.761-1.439-3.185-3.2-3.19V56.35z"/>
<path style="fill:#109995;" d="M231.68,65.42c-0.53,0-0.65-0.1-0.73-0.22c-0.108-0.16-0.066-0.378,0.094-0.486
	c0.116-0.079,0.268-0.08,0.386-0.004c1.05,0.2,14.25-1.5,19.94-13.81c0.08-0.177,0.288-0.255,0.465-0.175
	c0.177,0.08,0.255,0.288,0.175,0.465c-6,13-19.69,14.2-19.83,14.21L231.68,65.42z M231.53,64.81L231.53,64.81z"/>
<ellipse transform="matrix(0.7798 -0.626 0.626 0.7798 25.7019 167.9957)" style="fill:#F56F40;" cx="251.659" cy="47.462" rx="3.55" ry="3.55"/>
<path style="fill:#D65129;" d="M251.67,51.38c-2.154-0.003-3.897-1.752-3.894-3.906c0.003-2.154,1.752-3.897,3.906-3.894
	c2.154,0.003,3.897,1.752,3.894,3.906c-0.001,0.868-0.292,1.71-0.826,2.394C254.011,50.829,252.873,51.383,251.67,51.38z
	 M251.67,44.27h-0.4c-1.758,0.11-3.094,1.625-2.984,3.384c0.11,1.758,1.625,3.094,3.384,2.984c1.758-0.11,3.094-1.625,2.984-3.384
	C254.553,45.649,253.274,44.371,251.67,44.27z"/>
<path style="fill:#FFDC64;" d="M221.73,102.48c-11.71-9.62-16.95-19.64-11.88-30.29c2.32-0.92,6,1.43,10.7,6.17
	c0.91-11.85,1.74-23.72,17.11-32.43c5.81,8.13,9.44,17.17,6.12,29.11c0,0,23.31-14.63,38.29-8.71c-1.84,15.99-25.73,29.6-25.73,29.6
	c12.09,2.71,18.35,10.17,22.78,19.13c-14.94,9.45-25.79,4.57-36.67-0.21c2,6.37,2.29,10.74,0.39,12.35
	C231.06,126.69,224.69,117.34,221.73,102.48z"/>
<path style="fill:#FAAC30;" d="M238.58,125.64c-1.212-0.054-2.416-0.215-3.6-0.48c2.478,1.282,5.211,1.996,8,2.09
	c1.87-1.58,1.58-5.83-0.29-12c-1.5-0.62-1.75-3.41-3.25-4.07C241.39,117.53,240.48,124.02,238.58,125.64z"/>
<path style="fill:#FAAC30;" d="M250.61,95.27c1.69,0.38,4.72,0,6.19,0.51c2.85-1.69,23.68-14.55,25.41-29.46
	c-1.436-0.559-2.933-0.949-4.46-1.16C275.51,80.93,250.61,95.27,250.61,95.27z"/>
<path style="fill:#FAAC30;" d="M242,79.23l2.13-4.77c1.37-9.74,0.72-19.4-6.34-28.54c-0.83,0.47-1.61,1-2.35,1.44
	C239.96,54.65,243.65,68.17,242,79.23z"/>
<path style="fill:#FAAC30;" d="M258.61,96.52c8,3.58,12.7,9.79,16.25,17c-10.57,6.68-19.09,6.2-27,3.65
	c9.21,3.73,18.87,5.89,31.41-2C275.09,106.69,269.31,99.6,258.61,96.52z"/>
<line style="fill:none;" x1="282.08" y1="66.32" x2="194.28" y2="118.92"/>
<rect x="186.993" y="92.245" transform="matrix(0.8578 -0.514 0.514 0.8578 -13.7246 135.5838)" style="fill:#F26F42;" width="102.35" height="0.7"/>
<line style="fill:none;" x1="237.66" y1="45.92" x2="230.09" y2="97.47"/>
<rect x="207.802" y="71.328" transform="matrix(0.1444 -0.9895 0.9895 0.1444 129.1677 292.7335)" style="fill:#F26F42;" width="52.1" height="0.7"/>
<line style="fill:none;" x1="209.85" y1="72.19" x2="226.19" y2="99.8"/>
<rect x="217.666" y="69.931" transform="matrix(0.8606 -0.5093 0.5093 0.8606 -13.3919 123.0325)" style="fill:#F26F42;" width="0.7" height="32.09"/>
<line style="fill:none;" x1="245.29" y1="88.36" x2="256.97" y2="68.58"/>
<rect x="239.644" y="78.109" transform="matrix(0.5078 -0.8615 0.8615 0.5078 56.0069 254.9498)" style="fill:#F26F42;" width="22.97" height="0.7"/>
<line style="fill:none;" x1="263.89" y1="77.22" x2="270.3" y2="65.12"/>
<rect x="260.264" y="70.826" transform="matrix(0.469 -0.8832 0.8832 0.469 78.9706 273.7025)" style="fill:#F26F42;" width="13.69" height="0.7"/>
<line style="fill:none;" x1="255.79" y1="82.07" x2="271.6" y2="84.28"/>
<rect x="263.648" y="75.395" transform="matrix(0.14 -0.9901 0.9901 0.14 144.4754 333.1018)" style="fill:#F26F42;" width="0.7" height="15.968"/>
<line style="fill:none;" x1="241.68" y1="90.52" x2="261.08" y2="92.92"/>
<rect x="251.019" y="81.94" transform="matrix(0.1226 -0.9925 0.9925 0.1226 129.5375 329.9486)" style="fill:#F26F42;" width="0.7" height="19.55"/>
<line style="fill:none;" x1="235.7" y1="94.11" x2="243.78" y2="75.02"/>
<rect x="229.386" y="84.223" transform="matrix(0.3909 -0.9204 0.9204 0.3909 68.1899 272.1902)" style="fill:#F26F42;" width="20.73" height="0.7"/>
<line style="fill:none;" x1="231.57" y1="87.39" x2="241.32" y2="80.84"/>
<rect x="230.577" y="83.747" transform="matrix(0.8305 -0.557 0.557 0.8305 -6.7655 145.9601)" style="fill:#F26F42;" width="11.74" height="0.7"/>
<line style="fill:none;" x1="234.21" y1="69.41" x2="244.82" y2="62.6"/>
<rect x="233.202" y="65.65" transform="matrix(0.8412 -0.5407 0.5407 0.8412 2.342 139.9761)" style="fill:#F26F42;" width="12.61" height="0.7"/>
<line style="fill:none;" x1="235.8" y1="58.58" x2="231.26" y2="50.4"/>
<rect x="233.178" y="49.808" transform="matrix(0.8742 -0.4856 0.4856 0.8742 2.9209 120.2498)" style="fill:#F26F42;" width="0.7" height="9.36"/>
<line style="fill:none;" x1="232.87" y1="78.55" x2="222.49" y2="64.54"/>
<rect x="227.33" y="62.824" transform="matrix(0.8035 -0.5952 0.5952 0.8035 2.1427 149.5804)" style="fill:#F26F42;" width="0.7" height="17.44"/>
<line style="fill:none;" x1="220.55" y1="78.35" x2="228.95" y2="98.15"/>
<rect x="224.394" y="77.51" transform="matrix(0.9206 -0.3904 0.3904 0.9206 -16.6241 94.747)" style="fill:#F26F42;" width="0.7" height="21.51"/>
<line style="fill:none;" x1="217.11" y1="84.46" x2="220.55" y2="78.35"/>
<rect x="215.326" y="81.058" transform="matrix(0.4904 -0.8715 0.8715 0.4904 40.5608 232.1867)" style="fill:#F26F42;" width="7.01" height="0.7"/>
<line style="fill:none;" x1="214.23" y1="79.6" x2="208.05" y2="78.22"/>
<polygon style="fill:#F26F42;" points="214.16,79.94 207.97,78.56 208.12,77.88 214.31,79.26 "/>
<line style="fill:none;" x1="221.21" y1="91.38" x2="210.61" y2="89.99"/>
<rect x="215.561" y="85.349" transform="matrix(0.1307 -0.9914 0.9914 0.1307 97.781 292.8951)" style="fill:#F26F42;" width="0.7" height="10.68"/>
<line style="fill:none;" x1="224.39" y1="96.76" x2="226.54" y2="92.47"/>
<rect x="223.079" y="94.286" transform="matrix(0.4496 -0.8932 0.8932 0.4496 39.5638 253.4811)" style="fill:#F26F42;" width="4.79" height="0.7"/>
<line style="fill:none;" x1="279.11" y1="115.1" x2="230.09" y2="97.47"/>
<rect x="254.236" y="80.217" transform="matrix(0.3384 -0.941 0.941 0.3384 68.4345 309.87)" style="fill:#F26F42;" width="0.7" height="52.1"/>
<line style="fill:none;" x1="242.83" y1="127.24" x2="226.19" y2="99.8"/>
<rect x="234.163" y="97.49" transform="matrix(0.855 -0.5186 0.5186 0.855 -24.8784 138.0864)" style="fill:#F26F42;" width="0.7" height="32.09"/>
<line style="fill:none;" x1="235.7" y1="94.11" x2="256.34" y2="95.97"/>
<rect x="245.672" y="84.676" transform="matrix(0.0901 -0.9959 0.9959 0.0901 129.1992 331.4979)" style="fill:#F26F42;" width="0.7" height="20.73"/>
<line style="fill:none;" x1="239.68" y1="100.91" x2="250.04" y2="95.4"/>
<rect x="238.988" y="97.794" transform="matrix(0.8832 -0.469 0.469 0.8832 -17.4296 126.3045)" style="fill:#F26F42;" width="11.74" height="0.7"/>
<line style="fill:none;" x1="256.77" y1="107.06" x2="267.78" y2="100.92"/>
<rect x="255.971" y="103.647" transform="matrix(0.8736 -0.4866 0.4866 0.8736 -17.4582 140.7791)" style="fill:#F26F42;" width="12.61" height="0.7"/>
<line style="fill:none;" x1="267.07" y1="110.77" x2="272.14" y2="118.63"/>
<rect x="268.895" y="110.498" transform="matrix(0.8412 -0.5408 0.5408 0.8412 -19.518 163.888)" style="fill:#F26F42;" width="0.699" height="9.347"/>
<line style="fill:none;" x1="248.08" y1="103.94" x2="255.54" y2="119.7"/>
<rect x="251.456" y="103.087" transform="matrix(0.9039 -0.4278 0.4278 0.9039 -23.6254 118.4797)" style="fill:#F26F42;" width="0.7" height="17.44"/>
<line style="fill:none;" x1="242.44" y1="114.89" x2="228.95" y2="98.15"/>
<polygon style="fill:#F26F42;" points="242.17,115.11 228.67,98.37 229.22,97.93 242.72,114.67 "/>
<line style="fill:none;" x1="235.43" y1="115.04" x2="242.44" y2="114.89"/>
<rect x="235.439" y="114.616" transform="matrix(0.9998 -0.0215 0.0215 0.9998 -2.4128 5.1556)" style="fill:#F26F42;" width="7.01" height="0.7"/>
<line style="fill:none;" x1="238.36" y1="119.87" x2="236.66" y2="125.98"/>
<rect x="234.345" y="122.576" transform="matrix(0.2677 -0.9635 0.9635 0.2677 55.4833 318.8568)" style="fill:#F26F42;" width="6.34" height="0.7"/>
<line style="fill:none;" x1="231.26" y1="108.17" x2="227.5" y2="118.17"/>
<rect x="224.092" y="111.672" transform="matrix(0.3489 -0.9371 0.9371 0.3489 44.4032 287.9604)" style="fill:#F26F42;" width="10.713" height="0.702"/>
<line style="fill:none;" x1="228.02" y1="102.83" x2="232.82" y2="102.95"/>
<rect x="230.08" y="100.505" transform="matrix(0.0253 -0.9997 0.9997 0.0253 121.733 330.6524)" style="fill:#F26F42;" width="0.7" height="4.79"/>
<path style="fill:#F26F42;" d="M242.96,127.6h-0.14c-11.14-0.53-18.14-8.68-21.41-24.92c-12.78-10.55-16.67-20.57-11.88-30.64
	l0.06-0.12l0.13-0.05c2.28-0.9,5.73,1,10.54,5.71c0.89-11.5,2-23.33,17.23-32l0.27-0.16l0.18,0.26c4.7,6.59,9.64,15.76,6.4,28.56
	c4.124-2.382,8.435-4.426,12.89-6.11c7.08-2.68,17.17-5.23,25-2.13l0.25,0.1v0.27c-1,8.38-8,16.08-13.68,21.06
	c-3.622,3.109-7.492,5.919-11.57,8.4c12.82,3.18,18.58,11.86,22.17,19.11l0.14,0.28l-0.27,0.17c-14.77,9.34-25.74,4.76-36.3,0.12
	c1.91,6.48,1.93,10.4,0.06,12L242.96,127.6z M210.1,72.47c-4.55,9.72-0.67,19.45,11.85,29.74l0.1,0.08v0.12
	c3.17,15.89,9.92,23.9,20.64,24.48c1.57-1.5,1.37-5.49-0.6-11.89l-0.23-0.73l0.91,0.4c11,4.82,21.32,9.38,35.87,0.31
	c-3.61-7.21-9.44-15.75-22.4-18.66l-0.88-0.2l0.78-0.45c0.24-0.13,23.49-13.59,25.53-29.13c-14.66-5.52-37.5,8.63-37.73,8.78
	l-0.77,0.48l0.24-0.87c3.55-12.8-1.23-22-5.89-28.55c-14.81,8.55-15.68,19.84-16.6,31.78l-0.08,1l-0.54-0.54
	C215.59,73.85,212.17,71.79,210.1,72.47z"/>
<path style="fill:#8FD1BE;" d="M101.9,86.58c0,0-2.84,30.35-39.4,30.35S23.11,86.59,23.11,86.59h-6.54c0,0,3.31,36.34,45.93,36.34
	s45.93-36.33,45.93-36.33L101.9,86.58z"/>
<path style="fill:#29B99A;" d="M62.5,123.26c-12.27,0-28.97-3.18-39.27-18.33c-3.696-5.498-6.09-11.767-7-18.33v-0.38h7.2v0.32
	c0.791,5.394,2.829,10.53,5.95,15c8.64,12.39,22.77,15,33.1,15c35.83,0,39-29.71,39-30v-0.32h7.24v0.38
	c-0.91,6.563-3.304,12.832-7,18.33C91.48,120.08,74.74,123.26,62.5,123.26z M16.97,86.93c0.97,6.315,3.323,12.339,6.89,17.64
	c10.09,14.86,26.58,18,38.64,18s28.57-3.12,38.66-18c3.565-5.302,5.914-11.325,6.88-17.64h-5.81c-0.43,3.4-5.08,30.33-39.71,30.33
	c-10.51,0-24.88-2.66-33.69-15.31c-3.101-4.486-5.152-9.613-6-15L16.97,86.93z"/>
<ellipse transform="matrix(0.866 -0.5 0.5 0.866 -44.3978 34.4279)" style="fill:#3F555A;" cx="42.044" cy="100.061" rx="0.76" ry="1.59"/>
<path style="fill:#3F555A;" d="M42.64,101.84c-0.687-0.124-1.268-0.581-1.55-1.22c-0.228-0.374-0.372-0.794-0.42-1.23
	c-0.124-0.47,0.156-0.951,0.626-1.076c0.301-0.08,0.622,0.006,0.844,0.226c0.357,0.265,0.651,0.607,0.86,1c0.56,1,0.57,1.91,0,2.23
	l0,0C42.888,101.823,42.764,101.847,42.64,101.84z M42.84,101.44L42.84,101.44z M41.46,98.99L41.46,98.99c0,0-0.07,0.12-0.06,0.34
	c0.04,0.329,0.149,0.646,0.32,0.93c0.41,0.7,0.88,0.92,1,0.87l0,0c0.09-0.05,0.14-0.57-0.27-1.27
	c-0.161-0.293-0.383-0.549-0.65-0.75C41.703,99.034,41.583,98.992,41.46,98.99z"/>
<ellipse transform="matrix(0.866 -0.5 0.5 0.866 -35.4147 53.136)" style="fill:#3F555A;" cx="81.446" cy="92.653" rx="0.76" ry="1.59"/>
<path style="fill:#3F555A;" d="M82.03,94.43c-0.25-0.011-0.491-0.098-0.69-0.25c-0.7-0.534-1.157-1.327-1.27-2.2
	c-0.124-0.47,0.156-0.951,0.626-1.076c0.301-0.08,0.622,0.006,0.844,0.226c0.7,0.534,1.157,1.327,1.27,2.2
	c0.073,0.383-0.083,0.773-0.4,1l0,0C82.294,94.397,82.163,94.431,82.03,94.43z M80.85,91.58L80.85,91.58c0,0-0.08,0.1-0.06,0.34
	c0.04,0.329,0.149,0.646,0.32,0.93c0.161,0.293,0.383,0.549,0.65,0.75c0.2,0.14,0.3,0.13,0.32,0.12l0,0c0,0,0.07-0.12,0.06-0.34
	c-0.102-0.669-0.461-1.271-1-1.68c-0.081-0.065-0.178-0.106-0.28-0.12H80.85z"/>
<ellipse transform="matrix(0.866 -0.5 0.5 0.866 -47.0597 49.1843)" style="fill:#3F555A;" cx="68.249" cy="112.407" rx="0.76" ry="1.59"/>
<path style="fill:#3F555A;" d="M68.84,114.19c-0.692-0.135-1.271-0.608-1.54-1.26c-0.56-1-0.57-1.91,0-2.23s1.36,0.15,1.92,1.12
	s0.57,1.91,0,2.23l0,0C69.109,114.131,68.977,114.179,68.84,114.19z M69.04,113.79L69.04,113.79z M67.66,111.34L67.66,111.34
	c-0.09,0-0.13,0.58,0.27,1.27s0.88,0.92,1,0.87s0.13-0.58-0.27-1.27s-0.85-0.87-0.99-0.87H67.66z"/>
<ellipse transform="matrix(0.866 -0.5 0.5 0.866 -40.7505 51.4068)" style="fill:#3F555A;" cx="75.551" cy="101.745" rx="0.76" ry="1.59"/>
<path style="fill:#3F555A;" d="M76.14,103.52c-0.25-0.011-0.491-0.098-0.69-0.25c-0.7-0.534-1.157-1.327-1.27-2.2
	c-0.124-0.47,0.156-0.951,0.626-1.076c0.301-0.08,0.622,0.006,0.844,0.226c0.357,0.265,0.651,0.607,0.86,1c0.56,1,0.57,1.91,0,2.23
	l0,0C76.395,103.504,76.267,103.529,76.14,103.52z M76.34,103.12L76.34,103.12z M74.96,100.67L74.96,100.67c0,0-0.08,0.1-0.06,0.34
	c0.044,0.326,0.156,0.64,0.33,0.92c0.161,0.293,0.383,0.549,0.65,0.75c0.2,0.14,0.3,0.13,0.32,0.12s0.14-0.57-0.27-1.27
	c-0.161-0.293-0.383-0.549-0.65-0.75C75.187,100.712,75.075,100.674,74.96,100.67z"/>
<ellipse transform="matrix(0.9991 -0.0431 0.0431 0.9991 -4.6571 2.3967)" style="fill:#3F555A;" cx="53.258" cy="109.211" rx="1.59" ry="0.76"/>
<path style="fill:#3F555A;" d="M53.15,110.32c-1,0-1.78-0.42-1.81-1s0.77-1.14,1.89-1.19c0.436-0.025,0.872,0.043,1.28,0.2
	c0.59,0.25,0.69,0.62,0.7,0.82s-0.06,0.58-0.63,0.88c-0.392,0.194-0.822,0.3-1.26,0.31L53.15,110.32z M53.38,108.8h-0.15
	c-0.8,0-1.22,0.36-1.22,0.46s0.44,0.39,1.25,0.35c0.346-0.002,0.688-0.081,1-0.23c0.21-0.11,0.26-0.21,0.25-0.23l0,0
	c0,0-0.05-0.11-0.27-0.21c-0.275-0.099-0.568-0.143-0.86-0.13L53.38,108.8z"/>
<ellipse transform="matrix(0.9991 -0.0431 0.0431 0.9991 -4.2219 2.7855)" style="fill:#3F555A;" cx="62.493" cy="99.312" rx="1.59" ry="0.76"/>
<path style="fill:#3F555A;" d="M62.38,100.42c-1,0-1.78-0.42-1.81-1s0.77-1.14,1.89-1.19c0.436-0.025,0.872,0.043,1.28,0.2
	c0.59,0.25,0.69,0.62,0.7,0.82c0,0.64-0.77,1.14-1.89,1.19L62.38,100.42z M62.61,98.9h-0.13c-0.81,0-1.22,0.35-1.22,0.46
	s0.44,0.39,1.25,0.35s1.22-0.35,1.22-0.46l0,0c0,0-0.07-0.12-0.27-0.21c-0.274-0.091-0.562-0.128-0.85-0.11L62.61,98.9z"/>
<ellipse transform="matrix(0.9991 -0.0431 0.0431 0.9991 -4.0559 4.0458)" style="fill:#3F555A;" cx="91.807" cy="96.092" rx="1.59" ry="0.76"/>
<path style="fill:#3F555A;" d="M91.69,97.19c-1,0-1.78-0.42-1.81-1s0.77-1.14,1.89-1.19c0.436-0.025,0.872,0.043,1.28,0.2
	c0.59,0.25,0.69,0.62,0.7,0.82c0.004,0.216-0.079,0.425-0.23,0.58c-0.458,0.404-1.05,0.621-1.66,0.61L91.69,97.19z M91.92,95.67
	h-0.13c-0.81,0-1.22,0.35-1.22,0.46s0.45,0.38,1.25,0.35c0.422,0.011,0.835-0.123,1.17-0.38c0.007-0.026,0.007-0.054,0-0.08l0,0
	c0,0-0.07-0.12-0.27-0.21c-0.253-0.09-0.521-0.134-0.79-0.13L91.92,95.67z"/>
<ellipse transform="matrix(0.9991 -0.0431 0.0431 0.9991 -3.9029 1.4243)" style="fill:#3F555A;" cx="31.084" cy="91.233" rx="1.59" ry="0.76"/>
<path style="fill:#3F555A;" d="M30.98,92.34c-0.383,0.007-0.763-0.061-1.12-0.2c-0.59-0.25-0.69-0.62-0.7-0.82
	c0-0.64,0.77-1.14,1.89-1.19c0.436-0.025,0.872,0.043,1.28,0.2c0.59,0.25,0.69,0.62,0.7,0.82l0,0c0,0.64-0.77,1.14-1.89,1.19H30.98z
	 M31.2,90.82h-0.13c-0.81,0-1.22,0.35-1.22,0.46s0.05,0.11,0.27,0.21c0.319,0.119,0.66,0.167,1,0.14c0.81,0,1.22-0.35,1.22-0.46l0,0
	c0,0-0.05-0.11-0.27-0.21c-0.269-0.099-0.554-0.147-0.84-0.14L31.2,90.82z"/>
<path style="fill:#19BC9C;" d="M39.83,67.93c0,0-17.83,4.87-26.82,15.55c0,0,16.76-11.82,22.19-11.9L39.83,67.93z"/>
<path style="fill:#109995;" d="M13.01,83.83c-0.193,0.003-0.353-0.15-0.356-0.344c-0.002-0.087,0.029-0.171,0.086-0.236
	c9-10.64,26.81-15.62,27-15.67c0.187-0.049,0.378,0.062,0.428,0.249c0.035,0.133-0.011,0.274-0.118,0.361l-4.63,3.66
	c-0.054,0.045-0.12,0.073-0.19,0.08c-5.26,0.07-21.82,11.72-22,11.83C13.167,83.808,13.089,83.832,13.01,83.83z M38.14,68.83
	c-4.27,1.4-15.28,5.49-22.65,12.54c4.94-3.32,15.3-9.94,19.58-10.12L38.14,68.83z"/>
<path style="fill:#19BC9C;" d="M127.97,82.11c0,0,3.46-16.42,2-27s-9.95-36.84-9.95-36.84s3.39,35,3.57,37.33s0.68,23.69,0.68,23.69
	L127.97,82.11z"/>
<path style="fill:#109995;" d="M127.97,82.46c-0.076,0-0.149-0.025-0.21-0.07l-3.66-2.85c-0.085-0.064-0.137-0.163-0.14-0.27
	c0-0.21-0.51-21.34-0.68-23.67s-3.53-37-3.57-37.32c-0.019-0.18,0.102-0.345,0.28-0.38c0.172-0.035,0.343,0.064,0.4,0.23
	c0.09,0.26,8.55,26.39,10,36.91s-2,27-2,27.14c-0.023,0.119-0.107,0.217-0.22,0.26L127.97,82.46z M124.66,79.09l3.08,2.4
	c0.58-2.95,3.18-17,1.92-26.35c-1.11-8.28-6.64-26.35-8.94-33.64c0.85,8.76,3.11,32.14,3.25,34.05
	C124.15,57.81,124.61,76.93,124.66,79.09L124.66,79.09z"/>
<path style="fill:#19BC9C;" d="M120.95,77.33c0,0-2.33-29.86-3.3-33.59s-8.68-27.46-8.68-27.46s2.35,26.26,3,28.85
	s4.24,29.14,4.24,29.14L120.95,77.33z"/>
<path style="fill:#109995;" d="M120.95,77.68c-0.067,0.002-0.133-0.016-0.19-0.05l-4.8-3.06c-0.088-0.055-0.146-0.147-0.16-0.25
	c0-0.27-3.64-26.56-4.23-29.11s-2.87-27.83-3-28.9c-0.014-0.193,0.13-0.361,0.323-0.375c0.159-0.012,0.305,0.085,0.357,0.235
	c0.08,0.24,7.72,23.78,8.69,27.48s3.22,32.43,3.31,33.65c0.017,0.193-0.126,0.362-0.319,0.379c-0.01,0.001-0.021,0.001-0.031,0.001
	H120.95z M116.48,74.06l4.07,2.59c-0.32-4.52-2.32-29.48-3.24-32.82c-0.75-2.88-5.61-18-7.71-24.46c0.64,7,2.2,23.68,2.66,25.69
	C112.84,47.55,116.15,71.64,116.48,74.06z"/>
<path style="fill:#19BC9C;" d="M116.23,73.35c0,0-7.83-27-9.16-30.74S90.14,15.05,90.14,15.05S102.61,44.28,103,46.57
	s5.93,23.36,5.93,23.36L116.23,73.35z"/>
<path style="fill:#109995;" d="M116.23,73.7c-0.049,0.011-0.101,0.011-0.15,0l-7.29-3.4c-0.094-0.044-0.164-0.129-0.19-0.23
	c-0.23-0.86-5.55-21.13-5.94-23.41c-0.3-1.78-8.53-21.34-12.83-31.44c-0.068-0.181,0.023-0.383,0.204-0.451
	c0.147-0.055,0.313-0.006,0.406,0.121c0.64,1,15.63,23.91,17,27.63s9.08,30.49,9.16,30.76c0.055,0.185-0.05,0.38-0.235,0.435
	c-0.034,0.01-0.069,0.015-0.105,0.015L116.23,73.7z M109.23,69.7l6.44,3c-1.27-4.37-7.75-26.65-8.93-30
	c-1-2.8-10.36-17.42-14.7-24.12c3.38,8,11,26.08,11.31,27.91C103.71,48.66,108.71,67.75,109.23,69.7z"/>
<path style="fill:#19BC9C;" d="M108.5,69.54c-0.08-1-10.82-28.19-12-31.08S73.61,10.08,73.61,10.08S90.39,37.93,91.85,40.6
	s10.94,26.74,10.94,26.74L108.5,69.54z"/>
<path style="fill:#109995;" d="M108.5,69.93h-0.13l-5.71-2.2c-0.092-0.036-0.164-0.108-0.2-0.2c-0.1-0.24-9.5-24.09-10.93-26.7
	S73.48,10.54,73.31,10.26c-0.113-0.157-0.077-0.377,0.08-0.49s0.377-0.077,0.49,0.08c0.89,1,21.76,25.57,22.95,28.47
	c0.86,2.11,11.93,30.07,12,31.18c0.017,0.193-0.126,0.362-0.319,0.379c-0.01,0.001-0.021,0.001-0.031,0.001L108.5,69.93z
	 M103.06,67.11l4.9,1.89c-1.44-4.22-10.62-27.49-11.79-30.36c-0.81-2-12.23-15.76-20-25c4.62,7.68,14.9,24.79,16,26.83
	c1.39,2.53,10.06,24.46,10.89,26.6L103.06,67.11z"/>
<path style="fill:#19BC9C;" d="M102.65,66.17c0,0-11.73-21.61-14.54-25c-7.43-9-36.49-31.83-36.49-31.83s29.11,31.8,30.85,34.22
	s13.42,20.81,13.42,20.81L102.65,66.17z"/>
<path style="fill:#109995;" d="M102.65,66.52h-0.09l-6.77-1.8c-0.087-0.021-0.162-0.075-0.21-0.15
	c-0.12-0.18-11.69-18.41-13.41-20.79S51.65,9.93,51.36,9.58c-0.123-0.149-0.102-0.37,0.047-0.493c0.121-0.1,0.294-0.107,0.423-0.017
	c0.29,0.23,29.17,23,36.54,31.88c2.8,3.38,14.1,24.17,14.58,25.05c0.094,0.169,0.033,0.382-0.136,0.476
	c-0.053,0.03-0.113,0.045-0.174,0.044L102.65,66.52z M96.11,64.06l5.85,1.56C99.9,61.85,90.31,44.37,87.85,41.4
	c-5.79-7-25-22.67-33-29c7.5,8.21,26.47,29,27.89,31c1.68,2.28,12.28,18.97,13.37,20.67V64.06z"/>
<path style="fill:#19BC9C;" d="M87.74,61.81c0,0-20.42-20.22-23.58-23.38C61,35.27,42.29,19.78,29.23,17.77
	c0,0,9.24,6.12,12.46,8.36s20.38,15.49,20.38,15.49l18.16,18.4L87.74,61.81z"/>
<path style="fill:#109995;" d="M87.74,62.16h-0.08l-7.43-1.8c-0.064-0.014-0.123-0.045-0.17-0.09L61.82,41.86
	c-0.14-0.1-17.1-13.23-20.28-15.44s-12.37-8.3-12.46-8.36c-0.137-0.092-0.191-0.267-0.13-0.42c0.062-0.151,0.218-0.241,0.38-0.22
	c12.67,2,31.23,16.91,35.08,20.75c3.13,3.12,23.38,23.18,23.58,23.38c0.138,0.135,0.14,0.357,0.005,0.495
	c-0.067,0.068-0.159,0.106-0.255,0.105V62.16z M80.44,59.7l6.16,1.48c-4-3.93-19.94-19.75-22.7-22.5
	c-3.67-3.64-20.56-17.33-32.97-20.23c2.74,1.82,8.59,5.72,11,7.39c3.2,2.22,20.18,15.36,20.35,15.49L80.44,59.7z"/>
<path style="fill:#19BC9C;" d="M80.23,60.02l-1.21-0.94c-4.94-3.83-23.53-18.2-27.12-20.4c-4.15-2.53-15.92-11.67-33.32-8.18
	c0,0,19,6.27,24.32,8.63s29.13,20.8,29.13,20.8"/>
<path style="fill:#109995;" d="M80.23,60.37c-0.076,0-0.149-0.025-0.21-0.07l-1.21-0.94c-5.46-4.23-23.55-18.22-27.09-20.37
	c-0.39-0.24-0.84-0.53-1.36-0.87c-5.06-3.28-15.44-10-30.37-7.51c4.39,1.46,18.62,6.23,23.05,8.21c5.3,2.34,28.19,20.11,29.19,20.82
	c0.143,0.13,0.154,0.351,0.024,0.494c-0.117,0.129-0.31,0.152-0.454,0.056c-0.24-0.18-23.84-18.43-29-20.74s-24.11-8.52-24.3-8.61
	c-0.188-0.046-0.303-0.235-0.257-0.423c0.031-0.127,0.13-0.226,0.257-0.257c15.92-3.19,27.35,4.2,32.23,7.36
	c0.51,0.33,1,0.62,1.35,0.86c3.61,2.18,21.72,16.18,27.15,20.42l1.21,0.94c0.155,0.116,0.186,0.335,0.07,0.49
	C80.444,60.318,80.34,60.37,80.23,60.37z"/>
<path style="fill:#19BC9C;" d="M70.69,60.17c0,0-22.93-15.5-28.83-16.47s-24.27-0.26-33.73,3.56c0,0,24.5-1,31.2,0.53
	s24,12.19,24,12.19L70.69,60.17z"/>
<path style="fill:#109995;" d="M70.69,60.52L70.69,60.52l-7.31-0.19c-0.06-0.002-0.119-0.019-0.17-0.05
	c-0.19-0.11-17.4-10.6-23.98-12.15S8.37,47.6,8.13,47.61c-0.193,0.005-0.354-0.148-0.358-0.341C7.768,47.127,7.85,46.997,7.98,46.94
	c9.32-3.77,27.83-4.59,33.92-3.58c5.91,1,28,15.89,29,16.53c0.16,0.108,0.202,0.326,0.094,0.486
	c-0.066,0.098-0.176,0.155-0.294,0.154L70.69,60.52z M63.48,59.63l6,0.15c-4.48-3-22.62-14.91-27.69-15.74
	c-5.59-0.92-21.75-0.29-31.42,2.78c6.26-0.22,23.49-0.68,29,0.63C45.91,48.98,62.04,58.76,63.48,59.63z"/>
<path style="fill:#19BC9C;" d="M40.91,67.49c0,0-24.35,1.6-39.13,16.65c0,0,13-18.75,46.09-19.59l-4.19,2.09L40.91,67.49z"/>
<path style="fill:#109995;" d="M1.78,84.49c-0.193,0.006-0.354-0.147-0.36-0.34c-0.002-0.079,0.022-0.157,0.07-0.22
	c0.13-0.19,13.44-18.9,46.36-19.74c0.165-0.001,0.309,0.111,0.35,0.27c0.041,0.159-0.034,0.325-0.18,0.4l-4.2,2.07l-2.81,0.87h-0.08
	c-0.24,0-24.39,1.76-38.91,16.54C1.965,84.422,1.878,84.476,1.78,84.49z M46.23,64.93C25.8,65.82,13.29,73.69,7.01,79.12
	c14.25-10.38,32.78-11.93,33.79-12l2.72-0.84L46.23,64.93z M40.87,67.47L40.87,67.47z"/>
<path style="fill:#19BC9C;" d="M53.46,61.77c0,0-35.45-5.49-51.11,8.87c0,0,25.58-10.35,44.38-5.53L53.46,61.77z"/>
<path style="fill:#109995;" d="M2.35,70.99c-0.193,0.003-0.353-0.151-0.356-0.344c-0.002-0.101,0.041-0.198,0.116-0.266
	c15.6-14.31,51-9,51.4-9c0.191,0.03,0.322,0.209,0.292,0.4c-0.018,0.113-0.089,0.21-0.192,0.26l-6.73,3.34
	c-0.078,0.027-0.162,0.027-0.24,0c-18.47-4.67-43.9,5.48-44.16,5.55L2.35,70.99z M38.1,61.12c-10.86,0-25,1.55-34,8.48
	c4.349-1.553,8.787-2.845,13.29-3.87c8-1.81,19.53-3.45,29.28-1l5.61-2.8c-4.706-0.556-9.441-0.83-14.18-0.82V61.12z"/>
<path style="fill:#19BC9C;" d="M57.43,60.93c0,0-15.83-5.36-19.77-5.42s-17-3.32-37.31,6.64c0,0,22.22-7,38.2-3
	c2.06,0.51,16.21,4.4,16.21,4.4L57.43,60.93z"/>
<path style="fill:#109995;" d="M54.77,63.83h-0.09c-0.14,0-14.18-3.9-16.21-4.4c-15.7-3.88-37.79,2.95-38,3
	c-0.174,0.055-0.361-0.032-0.43-0.2c-0.063-0.174,0.02-0.367,0.19-0.44c17.45-8.58,29.45-7.41,35.22-6.86
	c0.93,0.09,1.67,0.16,2.22,0.17c3.95,0.05,19.23,5.21,19.87,5.43c0.182,0.064,0.279,0.263,0.215,0.446
	c-0.018,0.051-0.047,0.097-0.085,0.134l-2.66,2.6C54.949,63.78,54.863,63.823,54.77,63.83z M27.44,57.53
	c3.765-0.045,7.522,0.361,11.19,1.21c1.9,0.47,14.32,3.88,16,4.35l2.11-2.06c-2.81-0.94-15.69-5.17-19.12-5.22
	c-0.58,0-1.33-0.08-2.28-0.17c-5.27-0.51-15.82-1.54-31.06,5C11.853,58.71,19.626,57.666,27.44,57.53z"/>
<path style="fill:#19BC9C;" d="M63.37,59.98c0,0-26.3-10.7-28.64-10.59S8.39,51,5.73,52.27l30,0.36l21.7,8.3L63.37,59.98z"/>
<path style="fill:#109995;" d="M57.43,61.23h-0.12l-21.71-8.3L5.71,52.57c-0.193,0.005-0.354-0.148-0.358-0.341
	C5.348,52.087,5.43,51.957,5.56,51.9c2.91-1.38,28.9-2.9,29.15-2.91l0,0c2.58,0,26.06,9.52,28.74,10.61
	c0.179,0.073,0.265,0.278,0.191,0.456c-0.047,0.114-0.15,0.195-0.271,0.214l-5.95,0.9L57.43,61.23z M8.74,51.93l26.93,0.32h0.12
	l21.67,8.22l4.6-0.69c-8-3.22-25.33-10.08-27.27-10.08l0,0C32.68,49.85,15.82,50.93,8.74,51.93z"/>
<path style="fill:#19BC9C;" d="M143.86,100.42c-0.403,0.378-1.035,0.358-1.414-0.044c-0.02-0.021-0.039-0.043-0.056-0.066l0,0
	l-0.72-0.85c-0.487-0.567-0.977-1.127-1.47-1.68c-1-1.11-2-2.2-3-3.27s-2.08-2.13-3.14-3.17s-2.14-2.06-3.24-3.06
	c-4.352-3.976-8.969-7.651-13.82-11c-2.413-1.673-4.883-3.243-7.41-4.71c-2.52-1.47-5.1-2.82-7.73-4c-2.61-1.217-5.28-2.302-8-3.25
	c-2.739-0.964-5.534-1.763-8.37-2.39c-5.575-1.252-11.292-1.76-17-1.51h-1.07c-0.36,0-0.71,0.06-1.07,0.09l-1.07,0.1
	c-0.36,0-0.71,0.05-1.07,0.11l-2.13,0.29c-0.36,0-0.71,0.12-1.06,0.18l-1.06,0.19c-0.35,0.07-0.71,0.12-1.06,0.2l-1.05,0.24
	l-1.05,0.24l-0.53,0.12l-0.52,0.14l-2.12,0.61c-0.69,0.21-1.37,0.44-2.06,0.66c-0.34,0.11-0.69,0.22-1,0.34l-1,0.38l-1,0.38
	c-0.34,0.13-0.68,0.25-1,0.4l-2,0.86l-0.5,0.22l-0.49,0.24l-1,0.47c-1.32,0.61-2.6,1.33-3.89,2c-0.32,0.17-0.64,0.36-1,0.55
	l-0.95,0.56c-0.63,0.38-1.27,0.73-1.88,1.15l-1.85,1.2l-0.46,0.3l-0.45,0.32l-0.9,0.64c-0.6,0.43-1.21,0.84-1.81,1.28l-1.78,1.32
	l-0.89,0.66l-0.88,0.68c-0.59,0.45-1.17,0.91-1.77,1.36c-1.17,0.91-2.33,1.86-3.53,2.75l-0.07-0.08
	c4.032-4.48,8.639-8.407,13.7-11.68c0.61-0.43,1.26-0.81,1.89-1.2l1-0.59c0.32-0.19,0.63-0.4,1-0.57c1.3-0.72,2.59-1.48,3.92-2.13
	l1-0.5l0.5-0.25l0.51-0.23l2-0.92c0.34-0.16,0.68-0.29,1-0.43l1-0.41l1-0.41c0.35-0.13,0.7-0.25,1-0.37c0.7-0.24,1.4-0.49,2.1-0.72
	l2.12-0.63l0.53-0.16l0.54-0.14l1.15-0.3l1.07-0.27c0.36-0.09,0.72-0.15,1.08-0.23l1.08-0.22c0.36-0.07,0.72-0.16,1.09-0.21
	l2.19-0.34c0.36-0.06,0.73-0.09,1.1-0.13l1.1-0.12c0.37,0,0.73-0.09,1.1-0.11l1.1-0.07c5.895-0.385,11.815,0.025,17.6,1.22
	c2.9,0.595,5.762,1.363,8.57,2.3c2.819,0.932,5.59,2.007,8.3,3.22c2.72,1.21,5.38,2.56,8,4s5.15,3,7.64,4.72s4.92,3.46,7.29,5.32
	c2.37,1.86,4.68,3.81,6.93,5.84c1.13,1,2.23,2,3.33,3.09s2.18,2.12,3.24,3.21s2.11,2.21,3.13,3.34c0.513,0.567,1.02,1.14,1.52,1.72
	l0.75,0.88l0,0c0.399,0.486,0.355,1.197-0.1,1.63L143.86,100.42z"/>
<path style="fill:#109995;" d="M143.23,101.04h-0.1c-0.389-0.017-0.753-0.199-1-0.5l-0.72-0.85c-0.48-0.56-0.97-1.117-1.47-1.67
	c-0.92-1-1.91-2.1-3-3.26c-0.93-1-2-2-3.13-3.16c-1-1-2.12-2-3.23-3c-4.342-3.975-8.949-7.65-13.79-11
	c-2.43-1.69-4.92-3.27-7.38-4.7s-5.17-2.85-7.7-4c-2.61-1.214-5.28-2.296-8-3.24c-2.7-0.945-5.455-1.727-8.25-2.34
	c-5.575-1.251-11.292-1.756-17-1.5h-1.07c-0.23,0-0.46,0-0.68,0.05h-0.38l-1.1,0.06h-0.37c-0.22,0-0.45,0-0.67,0.07l-2.14,0.29
	c-0.24,0-0.47,0.07-0.7,0.11l-1.8,0.33l-0.65,0.12l-3.13,0.74l-2.08,0.58l-1.3,0.42l-1.12,0.37l-0.64,0.22l-2.2,0.83
	c-0.27,0.1-0.55,0.21-0.82,0.33l-3,1.31l-1,0.47c-1,0.46-2,1-2.94,1.51l-0.93,0.5c-0.24,0.13-0.47,0.26-0.7,0.4l-1.18,0.7
	l-0.56,0.33c-0.43,0.25-0.88,0.52-1.3,0.8l-2.76,1.82l-1.51,1.15l-1.13,0.8l-1.78,1.32l-2,1.55l-1.49,1.15l-1.19,0.94
	c-0.76,0.6-1.54,1.22-2.34,1.81c-0.15,0.112-0.362,0.085-0.48-0.06l-0.09-0.08c-0.109-0.13-0.109-0.32,0-0.45
	c4.049-4.499,8.672-8.447,13.75-11.74c0.43-0.3,0.89-0.59,1.34-0.86l0.56-0.34l1.19-0.74c0.24-0.15,0.49-0.3,0.74-0.44l0.9-0.5
	c1-0.56,2-1.13,3-1.63l2-1l2-0.92c0.28-0.13,0.58-0.25,0.87-0.37l2.31-0.84l0.69-0.25l1.09-0.38l1.38-0.47l3.18-0.98l2.15-0.54
	l0.71-0.15l1.82-0.37c0.25-0.05,0.51-0.1,0.76-0.14l2.18-0.34c0.24,0,0.49-0.07,0.74-0.1l1.47-0.16h0.38c0.24,0,0.49-0.06,0.74-0.07
	l1.1-0.07c5.925-0.386,11.875,0.028,17.69,1.23c2.914,0.596,5.789,1.368,8.61,2.31c2.83,0.939,5.61,2.02,8.33,3.24
	c2.64,1.18,5.34,2.54,8,4s5.14,3,7.67,4.73s4.78,3.34,7.31,5.33c2.35,1.84,4.69,3.81,7,5.85c1.17,1,2.3,2.11,3.34,3.1
	c1.21,1.17,2.28,2.22,3.25,3.22s2.11,2.21,3.14,3.35c0.513,0.567,1.023,1.143,1.53,1.73l0.75,0.88
	c0.543,0.631,0.495,1.578-0.11,2.15l-0.69,0.63l0,0C143.865,100.887,143.556,101.022,143.23,101.04z M143.91,100.42L143.91,100.42z
	 M71.35,60.93c4.78,0.022,9.544,0.555,14.21,1.59c2.823,0.635,5.604,1.44,8.33,2.41c2.743,0.95,5.437,2.038,8.07,3.26
	c2.56,1.18,5.17,2.55,7.76,4.05s5,3,7.43,4.73c4.866,3.372,9.496,7.07,13.86,11.07c1.12,1,2.22,2.07,3.25,3.06
	c1.19,1.17,2.22,2.21,3.15,3.18c1.13,1.17,2.12,2.25,3,3.28c0.5,0.553,0.993,1.113,1.48,1.68l0.72,0.85
	c0.117,0.149,0.291,0.243,0.48,0.26c0.181,0.012,0.36-0.053,0.49-0.18l0.69-0.63c0.319-0.307,0.35-0.807,0.07-1.15l-0.78-0.91
	c-0.5-0.58-1.007-1.153-1.52-1.72c-1-1.13-2.07-2.25-3.12-3.33s-2-2-3.23-3.2c-1-1-2.16-2-3.32-3.09c-2.25-2-4.58-4-6.92-5.82
	c-2.52-2-4.9-3.71-7.27-5.3s-5.08-3.27-7.62-4.7s-5.33-2.85-8-4c-2.701-1.209-5.461-2.28-8.27-3.21
	c-2.795-0.934-5.643-1.699-8.53-2.29c-5.752-1.19-11.638-1.6-17.5-1.22l-1.1,0.07c-0.24,0-0.47,0-0.69,0.07h-0.39l-1.09,0.12h-0.37
	c-0.23,0-0.47,0-0.7,0.09l-2.19,0.34c-0.25,0-0.48,0.08-0.72,0.13l-1.78,0.43l-0.68,0.14l-3.2,0.82l-2.12,0.64l-1.33,0.48l-1.1,0.38
	l-0.66,0.24l-2.23,0.89c-0.28,0.11-0.56,0.22-0.84,0.35l-3,1.4l-1,0.5c-1,0.49-2,1.06-3,1.61l-0.91,0.51
	c-0.24,0.13-0.47,0.27-0.7,0.42l-1.23,0.7l-0.56,0.35c-0.44,0.27-0.89,0.55-1.31,0.84c-3.946,2.566-7.63,5.513-11,8.8l0.44-0.35
	l1.49-1.14l2.12-1.5l1.82-1.36l1.15-0.81l2.5-1.74l1.85-1.2c0.43-0.29,0.89-0.56,1.33-0.82l0.56-0.33l1.18-0.7
	c0.24-0.14,0.49-0.29,0.74-0.42l0.92-0.49c1-0.52,2-1.06,3-1.52l2-0.93l2-0.86c0.28-0.12,0.57-0.23,0.85-0.34l2.2-0.83l0.67-0.23
	l1.05-0.42l1.32-0.42l3.15-0.85l2.1-0.48l0.68-0.13l1.75-0.28c0.25,0,0.49-0.09,0.74-0.12l2.12-0.29c0.23,0,0.47-0.06,0.72-0.08
	h0.36l1.07-0.1h0.37c0.24,0,0.48,0,0.72-0.05h1.07C69.387,60.997,70.37,60.93,71.35,60.93z"/>
<path style="fill:#19BC9C;" d="M92.69,63.33c0,0-10.6-17.74-14.92-22.25S54.29,17.66,38.53,13.61c0,0,28.21,19,36,30l11.4,16.83
	L92.69,63.33z"/>
<path style="fill:#109995;" d="M92.69,63.68c-0.046,0.009-0.094,0.009-0.14,0l-6.76-2.89c-0.062-0.028-0.114-0.073-0.15-0.13
	L74.23,43.85c-7.65-10.82-35.61-29.76-35.89-29.92c-0.16-0.108-0.203-0.325-0.095-0.486c0.082-0.122,0.232-0.18,0.375-0.144
	c16.8,4.32,37.14,25.2,39.4,27.56c4.3,4.5,14.54,21.59,15,22.32c0.099,0.166,0.046,0.381-0.12,0.48
	c-0.054,0.033-0.116,0.05-0.18,0.05L92.69,63.68z M86.16,60.16l5.67,2.42c-2.24-3.7-10.6-17.42-14.32-21.26
	c-2.16-2.25-20.8-21.4-37-26.75c6.4,4.42,27.72,19.58,34.28,28.88L86.16,60.16z"/>
<path style="fill:#FFFFFF;" d="M68.15,63.63c2.76-11.47,19.5-13.8,21.88-9.49c4.2,7.62-10.42,13.14-11.74,12.79"/>
<path style="fill:#3F555A;" d="M78.46,67.26c-0.086,0.011-0.174,0.011-0.26,0l0.2-0.67c0.74,0.19,7.65-2.17,10.68-6.1
	c1.527-1.688,1.79-4.169,0.65-6.14c-0.82-1.49-3.76-2.17-7.31-1.69c-5.79,0.78-12.34,4.51-13.92,11.09l-0.68-0.16
	c1.1-4.66,5.57-10.45,14.5-11.66c3.9-0.52,7,0.28,8,2c1.302,2.284,0.966,5.15-0.83,7.07C86.5,64.77,80.16,67.26,78.46,67.26z"/>
<path style="fill:#FFFFFF;" d="M68.53,63.75c11.76-0.94,19.49,14,15.21,17.64c-5.45,4.64-15.45-4.79-15.45-7.33"/>
<path style="fill:#3F555A;" d="M80.23,83.01c-1.446-0.028-2.869-0.369-4.17-1c-4.08-1.89-8.08-6.12-8.08-7.91h0.7
	c0,1.26,3.47,5.33,7.67,7.27c2.06,0.95,5,1.69,7.2-0.21c1.36-1.16,1.43-3.76,0.18-6.78c-2.28-5.51-8.2-10.79-15.13-10.24l-0.06-0.7
	C75.8,62.85,82,68.37,84.37,74.11c1.37,3.31,1.23,6.22-0.37,7.58C82.945,82.573,81.605,83.042,80.23,83.01z"/>
<path style="fill:#FFFFFF;" d="M67.63,63.13c5.4,12-6.48,22.84-11.65,21c-7.67-2.7-3.16-16.26,1.21-17"/>
<path style="fill:#3F555A;" d="M57.23,84.69c-0.459,0.004-0.916-0.071-1.35-0.22c-3.12-1.1-4.69-4.1-4.33-8.23
	c0.41-4.59,3-9,5.6-9.41l0.11,0.69c-2.21,0.36-4.65,4.63-5,8.78c-0.16,1.79-0.1,6.12,3.86,7.51c2.11,0.75,5.49-0.82,8.22-3.79
	c1.66-1.81,6.78-8.35,3-16.76l0.64-0.29c4,8.8-1.38,15.63-3.12,17.52C62.43,83.12,59.49,84.69,57.23,84.69z"/>
<path style="fill:#FFFFFF;" d="M67.77,62.77c-9,8.91-23.36,2.45-23.36-3.67c0-8.48,12.47-7.53,16.79-4.3"/>
<path style="fill:#3F555A;" d="M57.12,67.52c-2.276-0.005-4.528-0.457-6.63-1.33c-3.91-1.63-6.43-4.41-6.43-7.09
	c-0.113-2.505,1.291-4.832,3.56-5.9c4.05-2,10.74-1,13.79,1.33l-0.42,0.56c-2.89-2.16-9.22-3.16-13.05-1.27
	c-2.039,0.944-3.296,3.037-3.17,5.28c0,2.36,2.41,4.94,6,6.44c5.675,2.519,12.311,1.331,16.76-3l0.49,0.5
	C65.138,65.94,61.208,67.555,57.12,67.52z"/>
<path style="fill:#FFFFFF;" d="M67.77,62.77c-0.45-2.09-5-5.06-6.57-8c-4.4-7.88-0.06-15.19,4-15.35
	c10.26-0.4,8.94,15.72,8.94,15.72"/>
<path style="fill:#3F555A;" d="M67.43,62.85c-0.22-1-1.57-2.34-3-3.74c-1.36-1.23-2.551-2.636-3.54-4.18
	c-2.32-4.16-2.52-8.76-0.53-12.31c1.21-2.16,3-3.49,4.85-3.56c2.187-0.163,4.332,0.658,5.85,2.24c4.18,4.37,3.48,13.47,3.45,13.86
	l-0.7-0.06c0-0.09,0.7-9.18-3.26-13.32c-1.386-1.421-3.331-2.154-5.31-2c-1.56,0.06-3.2,1.29-4.27,3.2
	c-1.87,3.34-1.68,7.68,0.53,11.62c0.961,1.477,2.111,2.821,3.42,4c1.57,1.55,2.93,2.89,3.19,4.1L67.43,62.85z"/>
<path style="fill:#3F555A;" d="M69.55,63.82l-0.59-0.38c0.1-0.15,2.45-3.64,8.5-4.29l0.07,0.7C71.82,60.46,69.58,63.79,69.55,63.82z
	"/>
<path style="fill:#3F555A;" d="M68.34,62.47c-0.08-0.22-1.91-5.32,0.25-9.1l0.61,0.35c-2,3.5-0.22,8.46-0.2,8.51L68.34,62.47z"/>
<path style="fill:#FFFFFF;" d="M73.03,68.06c0.762,0.963,1.394,2.022,1.88,3.15"/>
<path style="fill:#3F555A;" d="M74.58,71.35c-0.474-1.099-1.089-2.131-1.83-3.07l0.55-0.44c0.782,0.988,1.431,2.074,1.93,3.23
	L74.58,71.35z"/>
<path style="fill:#FFFFFF;" d="M68.3,64.56c1.299,0.447,2.483,1.174,3.47,2.13"/>
<path style="fill:#3F555A;" d="M71.53,66.93c-0.946-0.893-2.07-1.575-3.3-2l0.19-0.67c1.352,0.46,2.585,1.215,3.61,2.21L71.53,66.93
	z"/>
<path style="fill:#3F555A;" d="M61.43,71.29l-0.35-0.6c4.94-2.9,5.63-7.07,5.64-7.11l0.69,0.1C67.38,63.87,66.68,68.21,61.43,71.29z
	"/>
<path style="fill:#FFFFFF;" d="M60.65,59.93c-0.645-0.37-1.269-0.774-1.87-1.21"/>
<path style="fill:#3F555A;" d="M60.48,60.25c-0.655-0.376-1.289-0.787-1.9-1.23l0.41-0.57c0.592,0.429,1.206,0.826,1.84,1.19
	L60.48,60.25z"/>
<path style="fill:#FFFFFF;" d="M67.41,62c-0.882,0.007-1.761-0.111-2.61-0.35c-0.42-0.11-0.88-0.24-1.37-0.42s-0.85-0.32-1.31-0.54"
	/>
<path style="fill:#3F555A;" d="M67.23,62.36c-0.855-0.018-1.704-0.138-2.53-0.36c-0.46-0.12-0.93-0.26-1.4-0.43s-0.9-0.34-1.34-0.55
	l0.29-0.64c0.42,0.19,0.85,0.37,1.28,0.52s0.9,0.3,1.34,0.41c0.814,0.228,1.655,0.342,2.5,0.34v0.7L67.23,62.36z"/>
<path style="fill:#FFFFFF;" d="M48.23,71.33c1.81-7.52,12.78-9,14.34-6.22c2.76,5-6.83,8.61-7.69,8.36"/>
<path style="fill:#3F555A;" d="M54.94,73.83h-0.18l0.2-0.67c0.56,0.07,5.18-1.52,7-4.18c0.851-1.057,0.959-2.531,0.27-3.7
	c-0.52-0.93-2.39-1.35-4.67-1c-3.75,0.51-8,2.92-9,7.18l-0.68-0.16c1.18-4.89,5.91-7.21,9.61-7.71c2.6-0.35,4.71,0.2,5.38,1.4
	c0.895,1.538,0.667,3.481-0.56,4.77C60.35,71.868,57.768,73.294,54.94,73.83z"/>
<path style="fill:#FFFFFF;" d="M48.46,71.41c7.71-0.61,12.77,9.18,9.97,11.52c-3.57,3-10.12-3.14-10.12-4.8"/>
<path style="fill:#3F555A;" d="M56.1,84.15c-0.966-0.027-1.914-0.263-2.78-0.69c-2.76-1.28-5.36-4.06-5.36-5.29h0.7
	c0,0.8,2.24,3.4,5,4.66c1.32,0.61,3.18,1.08,4.59-0.12c0.85-0.72,0.88-2.37,0.08-4.31c-1.48-3.57-5.33-7-9.79-6.64l-0.06-0.7
	c4.82-0.39,8.92,3.26,10.5,7.07c0.93,2.26,0.83,4.16-0.28,5.11C57.976,83.855,57.05,84.18,56.1,84.15z"/>
<path style="fill:#FFFFFF;" d="M47.87,71c3.54,7.86-4.24,15-7.64,13.78c-5-1.77-2.07-10.65,0.8-11.12"/>
<path style="fill:#3F555A;" d="M41.06,85.26c-0.323,0.004-0.644-0.046-0.95-0.15c-2.1-0.74-3.16-2.75-2.92-5.52s1.85-6,3.77-6.28
	L41.07,74c-1.4,0.23-3,3-3.19,5.65c-0.13,1.43,0,3.94,2.45,4.8c1.33,0.47,3.5-0.54,5.26-2.45c2.786-2.889,3.553-7.174,1.94-10.85
	l0.64-0.29c1.736,3.926,0.93,8.511-2.04,11.61C44.51,84.23,42.59,85.26,41.06,85.26z"/>
<path style="fill:#FFFFFF;" d="M47.96,70.77c-5.89,5.84-15.31,1.61-15.31-2.41c0-5.56,8.17-4.93,11-2.81"/>
<path style="fill:#3F555A;" d="M40.99,74c-1.507-0.004-2.998-0.303-4.39-0.88c-2.61-1.09-4.29-3-4.29-4.76
	c-0.088-1.697,0.861-3.279,2.4-4c2.69-1.35,7.14-0.63,9.16,0.88l-0.42,0.56c-1.82-1.37-6-2-8.43-0.82
	c-1.289,0.603-2.081,1.929-2,3.35c0,1.5,1.55,3.15,3.86,4.11c3.685,1.614,7.982,0.822,10.85-2l0.49,0.5
	C46.324,72.897,43.715,74.001,40.99,74z"/>
<path style="fill:#FFFFFF;" d="M47.96,70.77c-0.3-1.37-3.25-3.32-4.31-5.22c-2.89-5.17,0-10,2.64-10.06
	c6.72-0.26,5.86,10.3,5.86,10.3"/>
<path style="fill:#3F555A;" d="M47.62,70.84c-0.466-0.925-1.124-1.74-1.93-2.39c-0.897-0.803-1.684-1.721-2.34-2.73
	c-1.53-2.481-1.659-5.58-0.34-8.18c0.61-1.307,1.849-2.209,3.28-2.39c1.47-0.105,2.912,0.444,3.94,1.5c2.78,2.9,2.32,8.92,2.29,9.17
	l-0.7-0.06c0-0.06,0.45-6-2.1-8.63c-0.881-0.915-2.124-1.388-3.39-1.29c-1.176,0.177-2.188,0.926-2.7,2
	c-1.2,2.389-1.071,5.23,0.34,7.5c0.637,0.958,1.397,1.829,2.26,2.59c0.922,0.724,1.65,1.666,2.12,2.74L47.62,70.84z"/>
<path style="fill:#3F555A;" d="M49.13,71.46l-0.38-0.25c0.06-0.1,1.61-2.39,5.57-2.81v0.46C52.304,68.968,50.424,69.91,49.13,71.46z
	"/>
<path style="fill:#3F555A;" d="M48.34,70.57c-0.05-0.14-1.25-3.49,0.16-6l0.4,0.23c-1.31,2.29-0.14,5.55-0.13,5.58L48.34,70.57z"/>
<path style="fill:#FFFFFF;" d="M51.41,74.23c0.499,0.633,0.913,1.329,1.23,2.07"/>
<path style="fill:#3F555A;" d="M52.42,76.39c-0.312-0.716-0.715-1.388-1.2-2l0.36-0.29c0.511,0.649,0.934,1.361,1.26,2.12
	L52.42,76.39z"/>
<path style="fill:#FFFFFF;" d="M48.31,71.93c0.85,0.295,1.625,0.773,2.27,1.4"/>
<path style="fill:#3F555A;" d="M50.42,73.51c-0.624-0.603-1.371-1.064-2.19-1.35l0.12-0.44c0.887,0.302,1.697,0.797,2.37,1.45
	L50.42,73.51z"/>
<path style="fill:#3F555A;" d="M43.81,76.35l-0.23-0.4c1.82-0.964,3.146-2.654,3.65-4.65l0.45,0.07
	C47.169,73.51,45.758,75.326,43.81,76.35z"/>
<path style="fill:#FFFFFF;" d="M43.3,68.93c-0.424-0.244-0.835-0.511-1.23-0.8"/>
<path style="fill:#3F555A;" d="M43.23,69.11c-0.431-0.248-0.848-0.518-1.25-0.81l0.25-0.37c0.389,0.281,0.793,0.542,1.21,0.78
	L43.23,69.11z"/>
<path style="fill:#FFFFFF;" d="M47.72,70.26c-0.578,0.005-1.154-0.073-1.71-0.23c-0.27-0.07-0.57-0.16-0.9-0.28
	s-0.56-0.21-0.86-0.35"/>
<path style="fill:#3F555A;" d="M47.62,70.5c-0.561-0.012-1.118-0.093-1.66-0.24c-0.31-0.08-0.62-0.17-0.92-0.28
	s-0.59-0.23-0.87-0.36l0.19-0.42c0.27,0.13,0.56,0.24,0.84,0.34s0.58,0.19,0.88,0.27c0.534,0.147,1.086,0.221,1.64,0.22v0.46
	L47.62,70.5z"/>
<path style="fill:#DD5566;" d="M218.83,19.82c0-5.346-4.334-9.68-9.68-9.68H88.9c-5.342,0.006-9.67,4.338-9.67,9.68v20h139.6V19.82z
	"/>
<path style="fill:#BC1A3C;" d="M219.23,40.16H78.87V19.82c0-5.523,4.477-10,10-10h120.28c5.523,0,10,4.477,10,10L219.23,40.16z
	 M79.62,39.46h138.86V19.82c-0.006-5.151-4.179-9.324-9.33-9.33H88.9c-5.151,0.006-9.324,4.179-9.33,9.33L79.62,39.46z"/>
<path style="fill:#FFFFFF;" d="M79.23,39.81v75.52l17.31,17.87h112.61c5.346,0,9.68-4.334,9.68-9.68v0V39.81H79.23z"/>
<path style="fill:#3F555A;" d="M209.15,133.55H96.38l-17.51-18.08v-76h140.36v84.06c0.011,5.523-4.457,10.009-9.98,10.02
	C209.217,133.55,209.183,133.55,209.15,133.55z M96.67,132.85h112.48c5.151-0.006,9.324-4.179,9.33-9.33V40.16H79.57v75
	L96.67,132.85z"/>
<path style="fill:#D0E4F1;" d="M96.53,132.79c0.061-9.582-7.658-17.399-17.24-17.46c-0.02,0-0.04,0-0.06,0l17.31,17.87L96.53,132.79
	z"/>
<path style="fill:#3F555A;" d="M96.53,133.55c-0.095-0.001-0.185-0.041-0.25-0.11l-17.31-17.87
	c-0.165-0.101-0.217-0.316-0.116-0.481c0.078-0.128,0.23-0.192,0.376-0.159c9.791,0.05,17.693,8.019,17.66,17.81v0.41
	c-0.002,0.141-0.089,0.268-0.22,0.32L96.53,133.55z M80.07,115.7l16.1,16.63C95.96,123.437,88.952,116.198,80.07,115.7z"/>
<path style="fill:#D0E4F1;" d="M98.94,52.5h15.31c1.386,0,2.51,1.124,2.51,2.51v7.33c0,1.386-1.124,2.51-2.51,2.51H98.94
	c-1.386,0-2.51-1.124-2.51-2.51v-7.33C96.43,53.624,97.554,52.5,98.94,52.5z"/>
<path style="fill:#D0E4F1;" d="M155.51,52.5h15.31c1.386,0,2.51,1.124,2.51,2.51v7.33c0,1.386-1.124,2.51-2.51,2.51h-15.31
	c-1.386,0-2.51-1.124-2.51-2.51v-7.33C153,53.624,154.124,52.5,155.51,52.5z"/>
<path style="fill:#A1C2D8;" d="M183.8,52.5h15.31c1.386,0,2.51,1.124,2.51,2.51v7.33c0,1.386-1.124,2.51-2.51,2.51H183.8
	c-1.386,0-2.51-1.124-2.51-2.51v-7.33C181.29,53.624,182.414,52.5,183.8,52.5z"/>
<path style="fill:#D0E4F1;" d="M127.23,52.5h15.31c1.386,0,2.51,1.124,2.51,2.51v7.33c0,1.386-1.124,2.51-2.51,2.51h-15.31
	c-1.386,0-2.51-1.124-2.51-2.51v-7.33C124.72,53.624,125.844,52.5,127.23,52.5z"/>
<path style="fill:#D0E4F1;" d="M98.94,75.93h15.31c1.386,0,2.51,1.124,2.51,2.51v7.33c0,1.386-1.124,2.51-2.51,2.51H98.94
	c-1.386,0-2.51-1.124-2.51-2.51v-7.33C96.43,77.054,97.554,75.93,98.94,75.93z"/>
<path style="fill:#D0E4F1;" d="M155.51,75.93h15.31c1.386,0,2.51,1.124,2.51,2.51v7.33c0,1.386-1.124,2.51-2.51,2.51h-15.31
	c-1.386,0-2.51-1.124-2.51-2.51v-7.33C153,77.054,154.124,75.93,155.51,75.93z"/>
<path style="fill:#A1C2D8;" d="M183.8,75.93h15.31c1.386,0,2.51,1.124,2.51,2.51v7.33c0,1.386-1.124,2.51-2.51,2.51H183.8
	c-1.386,0-2.51-1.124-2.51-2.51v-7.33C181.29,77.054,182.414,75.93,183.8,75.93z"/>
<path style="fill:#D0E4F1;" d="M127.23,75.93h15.31c1.386,0,2.51,1.124,2.51,2.51v7.33c0,1.386-1.124,2.51-2.51,2.51h-15.31
	c-1.386,0-2.51-1.124-2.51-2.51v-7.33C124.72,77.054,125.844,75.93,127.23,75.93z"/>
<path style="fill:#D0E4F1;" d="M98.94,99.36h15.31c1.386,0,2.51,1.124,2.51,2.51v7.33c0,1.386-1.124,2.51-2.51,2.51H98.94
	c-1.386,0-2.51-1.124-2.51-2.51v-7.33C96.43,100.484,97.554,99.36,98.94,99.36z"/>
<path style="fill:#D0E4F1;" d="M155.51,99.36h15.31c1.386,0,2.51,1.124,2.51,2.51v7.33c0,1.386-1.124,2.51-2.51,2.51h-15.31
	c-1.386,0-2.51-1.124-2.51-2.51v-7.33C153,100.484,154.124,99.36,155.51,99.36z"/>
<path style="fill:#A1C2D8;" d="M183.8,99.36h15.31c1.386,0,2.51,1.124,2.51,2.51v7.33c0,1.386-1.124,2.51-2.51,2.51H183.8
	c-1.386,0-2.51-1.124-2.51-2.51v-7.33C181.29,100.484,182.414,99.36,183.8,99.36z"/>
<path style="fill:#D0E4F1;" d="M127.23,99.36h15.31c1.386,0,2.51,1.124,2.51,2.51v7.33c0,1.386-1.124,2.51-2.51,2.51h-15.31
	c-1.386,0-2.51-1.124-2.51-2.51v-7.33C124.72,100.484,125.844,99.36,127.23,99.36z"/>
<path style="fill:#FFFFFF;" d="M119.83,0.35L119.83,0.35c2.938,0,5.32,2.382,5.32,5.32v15.3c0,2.938-2.382,5.32-5.32,5.32l0,0
	c-2.938,0-5.32-2.382-5.32-5.32V5.67C114.51,2.732,116.892,0.35,119.83,0.35z"/>
<path style="fill:#FFFFFF;" d="M149.72,0.35L149.72,0.35c2.938,0,5.32,2.382,5.32,5.32v15.3c0,2.938-2.382,5.32-5.32,5.32h0
	c-2.938,0-5.32-2.382-5.32-5.32V5.67C144.4,2.732,146.782,0.35,149.72,0.35z"/>
<path style="fill:#FFFFFF;" d="M179.62,0.35L179.62,0.35c2.938,0,5.32,2.382,5.32,5.32v15.3c0,2.938-2.382,5.32-5.32,5.32h0
	c-2.938,0-5.32-2.382-5.32-5.32V5.67C174.3,2.732,176.682,0.35,179.62,0.35z"/>
<path style="fill:#D0E4F1;" d="M118.58,21.26V5.93c-0.001-2.155,1.298-4.098,3.29-4.92c-0.634-0.262-1.314-0.397-2-0.4l0,0
	c-2.938-0.022-5.338,2.342-5.36,5.28c0,0.013,0,0.027,0,0.04v15.3c0,2.938,2.382,5.32,5.32,5.32l0,0c0.686-0.003,1.366-0.138,2-0.4
	C119.864,25.32,118.584,23.394,118.58,21.26z"/>
<path style="fill:#D0E4F1;" d="M148.47,21.26V5.93c-0.001-2.155,1.298-4.098,3.29-4.92c-2.716-1.121-5.826,0.172-6.947,2.887
	c-0.266,0.645-0.403,1.335-0.403,2.033v15.3c-0.001,2.938,2.379,5.321,5.317,5.323c0.697,0,1.388-0.136,2.033-0.403
	C149.778,25.332,148.481,23.404,148.47,21.26z"/>
<path style="fill:#D0E4F1;" d="M178.37,21.26V5.93c-0.001-2.155,1.298-4.098,3.29-4.92c-2.714-1.127-5.827,0.16-6.953,2.873
	c-0.269,0.649-0.408,1.344-0.407,2.047v15.3c-0.001,2.938,2.379,5.321,5.317,5.323c0.697,0,1.388-0.136,2.033-0.403
	C179.672,25.329,178.379,23.402,178.37,21.26z"/>
<path style="fill:#3F555A;" d="M119.83,26.65c-3.137-0.005-5.676-2.553-5.67-5.69c0-0.01,0-0.02,0-0.03V5.67
	c0-3.131,2.539-5.67,5.67-5.67c3.131,0,5.67,2.539,5.67,5.67v15.26c0.022,3.137-2.503,5.698-5.64,5.72
	C119.85,26.65,119.84,26.65,119.83,26.65z M119.83,0.71c-2.761,0-5,2.239-5,5v15.22c-0.302,2.745,1.678,5.215,4.423,5.517
	c2.745,0.302,5.215-1.678,5.517-4.423c0.04-0.364,0.04-0.73,0-1.094V5.67c-0.016-2.726-2.214-4.937-4.94-4.97V0.71z"/>
<path style="fill:#3F555A;" d="M149.73,26.65c-3.137-0.005-5.676-2.553-5.67-5.69c0-0.01,0-0.02,0-0.03V5.67
	c0.002-3.131,2.543-5.668,5.674-5.666c3.128,0.002,5.663,2.538,5.666,5.666v15.26c0.022,3.137-2.503,5.698-5.64,5.72
	C149.75,26.65,149.74,26.65,149.73,26.65z M149.73,0.71c-2.761,0-5,2.239-5,5v15.22c0.302,2.745,2.772,4.725,5.517,4.423
	c2.328-0.256,4.167-2.095,4.423-4.423V5.67c-0.016-2.726-2.214-4.937-4.94-4.97V0.71z"/>
<path style="fill:#3F555A;" d="M179.62,26.65c-3.137-0.005-5.676-2.553-5.67-5.69c0-0.01,0-0.02,0-0.03V5.67
	c0.002-3.131,2.543-5.668,5.674-5.666c3.128,0.002,5.663,2.538,5.666,5.666v15.26c0.022,3.137-2.503,5.698-5.64,5.72
	C179.64,26.65,179.63,26.65,179.62,26.65z M179.62,0.71c-2.761,0-5,2.239-5,5v15.22c0.302,2.745,2.772,4.725,5.517,4.423
	c2.328-0.256,4.167-2.095,4.423-4.423V5.67c-0.016-2.726-2.214-4.937-4.94-4.97V0.71z"/>
</svg>
