<?xml version="1.0" encoding="UTF-8"?>
<svg width="268px" height="181px" viewBox="0 0 268 181" version="1.1" xmlns="http://www.w3.org/2000/svg" xmlns:xlink="http://www.w3.org/1999/xlink">
    <!-- Generator: Sketch 52.2 (67145) - http://www.bohemiancoding.com/sketch -->
    <title>pilot-what</title>
    <desc>Created with Sketch.</desc>
    <defs>
        <polygon id="path-1" points="0.495774347 1.00282004 24.9660441 1.00282004 24.9660441 15.6342797 0.495774347 15.6342797"></polygon>
    </defs>
    <g id="Symbols" stroke="none" stroke-width="1" fill="none" fill-rule="evenodd">
        <g id="illustrations/pilot/what" transform="translate(-8.000000, 0.000000)">
            <g id="pilot-what" transform="translate(8.000000, 0.000000)">
                <g id="Group-4" transform="translate(63.991189, 22.773553)">
                    <path d="M87.4148088,0.613065789 L6.38537269,18.1701711 C6.38537269,18.1701711 -10.5237066,62.2381974 15.979311,153.148855 C42.4811436,147.863724 81.6461216,117.093197 81.6461216,117.093197" id="Fill-1" fill="#FFFFFF"></path>
                    <path d="M87.4148088,0.613065789 L6.38537269,18.1701711 C6.38537269,18.1701711 -10.5237066,62.2381974 15.979311,153.148855 C42.4811436,147.863724 81.6461216,117.093197 81.6461216,117.093197" id="Stroke-3" stroke="#3F555A" stroke-width="1.18421053"></path>
                </g>
                <path d="M74.5043493,44.9841316 L91.0472568,44.8751842 L74.5896709,43.9574211 C57.5336489,93.3022895 81.4770189,152.647816 90.9192744,172.916763 C93.0866797,172.100842 95.2884507,171.175974 97.5020718,170.177684 C86.0405388,148.490053 61.1088604,93.3093947 74.5043493,44.9841316" id="Fill-5" fill="#D0E4F1"></path>
                <path d="M151.405998,23.3866184 L70.3765621,40.9437237 C70.3765621,40.9437237 53.4674828,85.01175 79.9705004,175.922408 C106.472333,170.637276 145.637311,139.86675 145.637311,139.86675" id="Stroke-7" stroke="#3F555A" stroke-width="1.18421053"></path>
                <path d="M74.2296612,44.8272237 L158.178992,44.2753816 C158.178992,44.2753816 156.041212,111.429592 180.782102,135.313934 L102.549318,179.479066 C102.549318,179.479066 57.1179432,106.556566 74.2296612,44.8272237" id="Fill-9" fill="#FFFFFF"></path>
                <path d="M74.2296612,44.8272237 L158.178992,44.2753816 C158.178992,44.2753816 156.041212,111.429592 180.782102,135.313934 L102.549318,179.479066 C102.549318,179.479066 57.1179432,106.556566 74.2296612,44.8272237 Z" id="Stroke-11" stroke="#3F555A" stroke-width="1.18421053"></path>
                <path d="M80.1925736,45.3685263 L79.5538467,45.3732632 C71.9566705,99.063 109.039565,155.321289 119.775864,170.277868 L126.987908,166.206553 C114.104349,150.143921 76.0509216,97.8539211 80.1925736,45.3685263" id="Fill-13" fill="#D0E4F1"></path>
                <path d="M74.2296612,44.8272237 L158.178992,44.2753816 C158.178992,44.2753816 156.041212,111.429592 180.782102,135.313934 L102.549318,179.479066 C102.549318,179.479066 57.1179432,106.556566 74.2296612,44.8272237 Z" id="Stroke-15" stroke="#3F555A" stroke-width="1.18421053"></path>
                <path d="M80.4654841,42.7501184 L163.100625,27.9545921 C163.100625,27.9545921 190.205634,108.739066 218.647348,128.076039 L131.265008,170.636566 C131.265008,170.636566 74.0959907,106.487882 80.4654841,42.7501184" id="Fill-17" fill="#FFFFFF"></path>
                <path d="M80.4654841,42.7501184 L163.100625,27.9545921 C163.100625,27.9545921 190.205634,108.739066 218.647348,128.076039 L131.265008,170.636566 C131.265008,170.636566 74.0959907,106.487882 80.4654841,42.7501184 Z" id="Stroke-19" stroke="#3F555A" stroke-width="1.18421053"></path>
                <path d="M89.6773714,42.0926447 L97.294693,39.7964605 L88.4959044,41.3714605 C86.3320542,100.664882 137.846147,157.371987 144.432499,164.369487 L152.104332,160.632118 C139.722037,148.737908 90.5862833,98.0596184 89.6773714,42.0926447" id="Fill-21" fill="#D0E4F1"></path>
                <path d="M80.4654841,42.7501184 L163.100625,27.9545921 C163.100625,27.9545921 190.205634,108.739066 218.647348,128.076039 L131.265008,170.636566 C131.265008,170.636566 74.0959907,106.487882 80.4654841,42.7501184 Z" id="Stroke-23" stroke="#3F555A" stroke-width="1.18421053"></path>
                <g id="Group-28" transform="translate(203.823789, 12.115658)">
                    <path d="M0.145520705,4.64269737 C0.145520705,4.64269737 9.76908458,0.375986842 10.6448159,0.12375 C11.5193621,-0.129671053 12.7506,0.975197368 12.1746793,1.64664474 C11.5999436,2.31217105 7.14189075,7.21953947 7.14189075,7.21953947" id="Fill-25" fill="#19BC9C"></path>
                    <path d="M0.145520705,4.64269737 C0.145520705,4.64269737 9.76908458,0.375986842 10.6448159,0.12375 C11.5193621,-0.129671053 12.7506,0.975197368 12.1746793,1.64664474 C11.5999436,2.31217105 7.14189075,7.21953947 7.14189075,7.21953947" id="Stroke-27" stroke="#109995" stroke-width="1.18421053" stroke-linecap="round" stroke-linejoin="round"></path>
                </g>
                <path d="M89.3945066,42.0841184 L169.766256,17.8504342 C169.766256,17.8504342 213.417727,102.322539 243.903604,118.246618 L154.633524,163.252539 C154.633524,163.252539 90.4337709,106.129776 89.3945066,42.0841184" id="Fill-29" fill="#FFFFFF"></path>
                <path d="M89.3945066,42.0841184 L169.766256,17.8504342 C169.766256,17.8504342 213.417727,102.322539 243.903604,118.246618 L154.633524,163.252539 C154.633524,163.252539 90.4337709,106.129776 89.3945066,42.0841184 Z" id="Stroke-31" stroke="#3F555A" stroke-width="1.18421053"></path>
                <path d="M113.916049,46.1434737 C113.916049,48.5947895 112.338785,50.5807105 110.394163,50.5807105 C108.449542,50.5807105 106.872278,48.5947895 106.872278,46.1434737 C106.872278,43.6921579 108.449542,41.7062368 110.394163,41.7062368 C112.338785,41.7062368 113.916049,43.6921579 113.916049,46.1434737" id="Fill-33" fill="#D0E4F1"></path>
                <path d="M113.916049,46.1434737 C113.916049,48.5947895 112.338785,50.5807105 110.394163,50.5807105 C108.449542,50.5807105 106.872278,48.5947895 106.872278,46.1434737 C106.872278,43.6921579 108.449542,41.7062368 110.394163,41.7062368 C112.338785,41.7062368 113.916049,43.6921579 113.916049,46.1434737 Z" id="Stroke-35" stroke="#3F555A" stroke-width="1.18421053"></path>
                <path d="M135.134342,39.8376711 C135.134342,42.2889868 133.557078,44.2749079 131.612457,44.2749079 C129.667836,44.2749079 128.090571,42.2889868 128.090571,39.8376711 C128.090571,37.3863553 129.667836,35.4004342 131.612457,35.4004342 C133.557078,35.4004342 135.134342,37.3863553 135.134342,39.8376711" id="Fill-37" fill="#D0E4F1"></path>
                <path d="M135.134342,39.8376711 C135.134342,42.2889868 133.557078,44.2749079 131.612457,44.2749079 C129.667836,44.2749079 128.090571,42.2889868 128.090571,39.8376711 C128.090571,37.3863553 129.667836,35.4004342 131.612457,35.4004342 C133.557078,35.4004342 135.134342,37.3863553 135.134342,39.8376711 Z" id="Stroke-39" stroke="#3F555A" stroke-width="1.18421053"></path>
                <path d="M156.352636,32.3917105 C156.352636,34.8430263 154.775371,36.8289474 152.83075,36.8289474 C150.886129,36.8289474 149.308865,34.8430263 149.308865,32.3917105 C149.308865,29.9403947 150.886129,27.9544737 152.83075,27.9544737 C154.775371,27.9544737 156.352636,29.9403947 156.352636,32.3917105" id="Fill-41" fill="#D0E4F1"></path>
                <path d="M156.352636,32.3917105 C156.352636,34.8430263 154.775371,36.8289474 152.83075,36.8289474 C150.886129,36.8289474 149.308865,34.8430263 149.308865,32.3917105 C149.308865,29.9403947 150.886129,27.9544737 152.83075,27.9544737 C154.775371,27.9544737 156.352636,29.9403947 156.352636,32.3917105 Z" id="Stroke-43" stroke="#3F555A" stroke-width="1.18421053"></path>
                <path d="M74.7379172,39.8371974 C75.6728996,30.8490395 83.2760009,23.8420658 92.5179877,23.8420658 C102.390406,23.8420658 110.394045,31.8402237 110.394045,41.7058816 C110.394045,44.6060132 109.703177,47.3439079 108.476679,49.7644342" id="Stroke-45" stroke="#3F555A" stroke-width="1.18421053"></path>
                <path d="M100.678286,34.6183816 C101.492396,26.7871974 108.117855,20.6825921 116.168894,20.6825921 C124.770969,20.6825921 131.743639,27.6504868 131.743639,36.2466711 C131.743639,38.7725921 131.141648,41.1587763 130.072758,43.2678553" id="Stroke-47" stroke="#3F555A" stroke-width="1.18421053"></path>
                <path d="M124.695957,29.1738553 C125.415266,22.2533289 131.396072,15.4381974 138.512129,15.4381974 C146.114045,15.4381974 152.277345,21.5972763 152.277345,29.1939868 C152.277345,31.4274079 151.74527,33.5353026 150.800807,35.4004342" id="Stroke-49" stroke="#3F555A" stroke-width="1.18421053"></path>
                <path d="M207.541795,25.4191974 C221.709919,30.3028816 231.961544,38.6574868 236.074756,50.1336711 C246.974588,80.5513026 210.618112,121.382882 154.871121,141.332092 C99.1229449,161.281303 45.0942357,152.79525 34.1944031,122.377618 C26.8816322,101.973671 40.8340815,76.8838026 67.6404648,56.5532763" id="Stroke-51" stroke="#999999" stroke-width="1.18421053" stroke-dasharray="7.105263157894736,4.736842105263158"></path>
                <path d="M90.8900044,144.737171 C68.7964537,141.37875 52.3554581,131.619671 46.8640661,116.293618 C44.7227313,110.321645 44.4051454,103.947039 45.6980044,97.4078289" id="Stroke-53" stroke="#999999" stroke-width="1.18421053"></path>
                <path d="M214.89225,23.3866184 C229.060373,28.2703026 239.311999,36.6249079 243.42521,48.1010921" id="Stroke-55" stroke="#999999" stroke-width="1.18421053"></path>
                <path d="M157.977419,87.6138158 C160.390124,86.1453947 162.8289,85.0511842 165.29256,84.3276316 C167.753851,83.6052632 170.155891,83.3921053 172.497494,83.6869737 C174.837913,83.9842105 177.059829,84.8593421 179.160873,86.3135526 C181.260732,87.7665789 183.197058,89.9467105 184.966296,92.8503947 L185.820697,94.2525 C187.679996,97.3053947 188.790362,100.154605 189.154164,102.800132 C189.516781,105.448026 189.328362,107.906447 188.585353,110.178947 C187.84353,112.451447 186.606367,114.520263 184.872679,116.385395 C183.138992,118.249342 181.090089,119.900132 178.72597,121.338947 C175.918653,123.046579 173.206137,124.190526 170.589609,124.770789 C167.971895,125.352237 165.5426,125.463553 163.300538,125.107105 C161.057292,124.750658 159.06764,124.005789 157.330397,122.870132 C155.59197,121.735658 154.198384,120.306316 153.148455,118.583289 C152.09971,116.861447 151.81175,115.448684 152.290499,114.349737 C152.768063,113.248421 153.769406,112.234737 155.2969,111.305132 C157.316177,110.077105 158.840115,109.640132 159.865159,109.994211 C160.891389,110.348289 161.718534,111.042237 162.348966,112.076053 C163.458146,113.896184 165.031856,114.845921 167.068908,114.920526 C169.105961,114.996316 171.20819,114.375789 173.376781,113.056579 C175.839256,111.558553 177.3549,109.725395 177.924895,107.557105 C178.493706,105.388816 177.924895,102.901974 176.214908,100.096579 L175.360507,98.6932895 C173.651706,95.8878947 171.695234,94.23 169.491093,93.7136842 C167.286952,93.1997368 164.977344,93.6757895 162.56464,95.1442105 L151.630441,101.795921 C150.102948,102.725526 148.87171,103.002632 147.934358,102.628421 C146.99819,102.254211 146.185265,101.502237 145.495582,100.368947 C145.315459,100.074079 145.138891,99.7590789 144.969433,99.4227632 C144.798789,99.0888158 144.609186,98.7489474 144.399437,98.4043421 L134.490283,77.8168421 C134.018644,76.8232895 133.766234,75.9647368 133.731869,75.2435526 C133.697503,74.5223684 133.949913,73.9965789 134.492653,73.6661842 L157.249816,59.8215789 C158.233384,59.2223684 159.228803,59.2235526 160.238441,59.8251316 C161.24571,60.4267105 162.06456,61.2438158 162.693807,62.2776316 C163.353864,63.36 163.712926,64.4755263 163.768622,65.6206579 C163.825503,66.7681579 163.360974,67.6397368 162.377406,68.2377632 L145.752732,78.3521053 L152.289314,91.0752632 L157.977419,87.6138158 Z" id="Fill-57" fill="#D0E4F1"></path>
                <path d="M39.3894211,53.9444605 C38.4710291,50.5493289 34.863822,48.5136711 31.3336414,49.3970921 C30.6581789,49.5664342 30.0360423,49.8305132 29.4755269,50.1703816 C27.652963,46.2210395 23.077593,44.0053816 18.5887295,45.1291974 C15.0455137,46.0161711 12.5119366,48.7445921 11.8021084,51.9703816 C11.0022185,52.1847237 10.2556546,52.4926184 9.57071189,52.8798553 C8.17831101,51.7347237 6.24672511,51.2409079 4.33883965,51.7181447 C1.24000705,52.4938026 -0.618107489,55.5384079 0.188892511,58.5190658 C0.815769163,60.8389342 2.87415242,62.43525 5.21694097,62.6638026 C5.2347163,62.7372237 5.25130661,62.8106447 5.27145198,62.8840658 C6.57023612,67.6860395 11.6717559,70.5648553 16.6642537,69.3155132 C17.7983198,69.0313026 18.828104,68.5564342 19.7299057,67.9394605 C21.625941,68.7849868 23.8265269,69.0265658 26.0069674,68.4806447 C29.4577515,67.6173553 31.9522229,65.0073553 32.7355225,61.8928816 C33.3695093,61.9165658 34.0165313,61.8538026 34.6611833,61.6915658 C38.1913639,60.8081447 40.3078132,57.3395921 39.3894211,53.9444605" id="Fill-59" fill="#D0E4F1"></path>
                <g id="Group-63" transform="translate(242.929515, 89.089342)">
                    <mask id="mask-2" fill="white">
                        <use xlink:href="#path-1"></use>
                    </mask>
                    <g id="Clip-62"></g>
                    <path d="M0.628298678,10.2547895 C1.19592423,12.2608421 3.42495066,13.4628158 5.60539119,12.9405789 C6.02251894,12.8411053 6.4076511,12.6847895 6.75367753,12.4846579 C7.87944846,14.8163684 10.706911,16.1261053 13.4810476,15.4617632 C15.6697833,14.9383421 17.2351974,13.3266316 17.6736555,11.4212368 C18.1678097,11.2945263 18.6299683,11.1121579 19.0530211,10.8836053 C19.9133471,11.5597895 21.1066643,11.8522895 22.2857612,11.5704474 C24.1995718,11.1121579 25.3478581,9.31334211 24.8501489,7.55242105 C24.4614617,6.18228947 23.189933,5.23847368 21.7430211,5.10465789 C21.7311709,5.06084211 21.7216907,5.01702632 21.7098405,4.97439474 C20.9063956,2.13821053 17.754237,0.4365 14.6696247,1.17544737 C13.9692767,1.34242105 13.3329198,1.62307895 12.7759595,1.98781579 C11.6039727,1.48807895 10.2435674,1.34597368 8.89738238,1.66807895 C6.76434273,2.17847368 5.2238141,3.72031579 4.73914009,5.55939474 C4.34808282,5.54636842 3.94754537,5.58307895 3.54937797,5.67781579 C1.36893744,6.20005263 0.0606731278,8.24992105 0.628298678,10.2547895" id="Fill-61" fill="#D0E4F1" mask="url(#mask-2)"></path>
                </g>
                <path d="M200.780889,0.599802632 C201.585519,0.464802632 203.406898,2.20440789 202.781206,2.89953947 C202.15907,3.59467105 193.709863,12.2192763 193.945682,12.7296711 C194.081959,13.0304605 199.313832,15.0258553 203.969783,16.7583553 C207.241629,17.9733553 210.227885,19.0604605 210.966153,19.3351974 C212.505497,19.9142763 200.806959,21.1280921 198.15488,20.5845395 C198.15488,20.5845395 177.901669,13.1334868 168.945272,9.77861842 C166.64633,8.91532895 164.345017,8.05440789 162.041334,7.19230263 C160.50436,6.61559211 157.428043,3.97125 157.944713,2.33822368 C158.417537,0.831907895 162.316259,0.846118421 163.859158,1.42756579 C169.479717,3.53190789 179.399537,7.64348684 180.720836,7.74296053 C182.043321,7.84243421 199.977444,0.732434211 200.780889,0.599802632" id="Fill-64" fill="#19BC9C"></path>
                <path d="M200.780889,0.599802632 C201.585519,0.464802632 203.406898,2.20440789 202.781206,2.89953947 C202.15907,3.59467105 193.709863,12.2192763 193.945682,12.7296711 C194.081959,13.0304605 199.313832,15.0258553 203.969783,16.7583553 C207.241629,17.9733553 210.227885,19.0604605 210.966153,19.3351974 C212.505497,19.9142763 200.806959,21.1280921 198.15488,20.5845395 C198.15488,20.5845395 177.901669,13.1334868 168.945272,9.77861842 C166.64633,8.91532895 164.345017,8.05440789 162.041334,7.19230263 C160.50436,6.61559211 157.428043,3.97125 157.944713,2.33822368 C158.417537,0.831907895 162.316259,0.846118421 163.859158,1.42756579 C169.479717,3.53190789 179.399537,7.64348684 180.720836,7.74296053 C182.043321,7.84243421 199.977444,0.732434211 200.780889,0.599802632 Z" id="Stroke-66" stroke="#109995" stroke-width="1.18421053" stroke-linecap="round" stroke-linejoin="round"></path>
                <path d="M160.025848,83.9349474 C162.438553,82.4665263 164.877329,81.3723158 167.340989,80.6487632 C169.80228,79.9263947 172.20432,79.7132368 174.545923,80.0081053 C176.886342,80.3053421 179.108258,81.1804737 181.209302,82.6346842 C183.309161,84.0877105 185.245487,86.2678421 187.014725,89.1715263 L187.869126,90.5736316 C189.728426,93.6265263 190.838791,96.4757368 191.202593,99.1212632 C191.56521,101.769158 191.376791,104.227579 190.633782,106.500079 C189.891959,108.772579 188.654796,110.841395 186.921108,112.706526 C185.187421,114.570474 183.138518,116.221263 180.774399,117.660079 C177.967082,119.367711 175.254567,120.511658 172.638038,121.091921 C170.020324,121.673368 167.591029,121.784684 165.348967,121.428237 C163.105721,121.071789 161.116069,120.326921 159.378826,119.191263 C157.640399,118.056789 156.246813,116.627447 155.196884,114.904421 C154.148139,113.182579 153.860179,111.769816 154.338928,110.670868 C154.816492,109.569553 155.817835,108.555868 157.345329,107.626263 C159.364606,106.398237 160.888544,105.961263 161.913589,106.315342 C162.939818,106.669421 163.766963,107.363368 164.397395,108.397184 C165.506575,110.217316 167.080285,111.167053 169.117337,111.241658 C171.15439,111.318632 173.256619,110.696921 175.42521,109.377711 C177.887685,107.879684 179.403329,106.046526 179.973324,103.878237 C180.542135,101.709947 179.973324,99.2231053 178.263337,96.4177105 L177.408937,95.0144211 C175.700135,92.2090263 173.743663,90.5511316 171.539522,90.0348158 C169.335381,89.5208684 167.025774,89.9969211 164.613069,91.4653421 L153.67887,98.1170526 C152.151377,99.0466579 150.920139,99.3237632 149.982787,98.9495526 C149.046619,98.5753421 148.233694,97.8233684 147.544011,96.6900789 C147.363888,96.3952105 147.18732,96.0802105 147.017862,95.7438947 C146.847219,95.4099474 146.657615,95.0700789 146.447866,94.7254737 L136.538712,74.1379737 C136.067073,73.1444211 135.814663,72.2858684 135.780298,71.5646842 C135.745932,70.8435 135.998342,70.3177105 136.541082,69.9873158 L159.298245,56.1427105 C160.281813,55.5435 161.277232,55.5446842 162.28687,56.1462632 C163.294139,56.7478421 164.112989,57.5649474 164.742236,58.5987632 C165.402293,59.6811316 165.761355,60.7966579 165.817051,61.9417895 C165.873932,63.0892895 165.409404,63.9608684 164.425835,64.5588947 L147.801161,74.6732368 L154.337743,87.3963947 L160.025848,83.9349474 Z" id="Fill-68" fill="#F56F40"></path>
                <path d="M160.025848,83.9349474 C162.438553,82.4665263 164.877329,81.3723158 167.340989,80.6487632 C169.80228,79.9263947 172.20432,79.7132368 174.545923,80.0081053 C176.886342,80.3053421 179.108258,81.1804737 181.209302,82.6346842 C183.309161,84.0877105 185.245487,86.2678421 187.014725,89.1715263 L187.869126,90.5736316 C189.728426,93.6265263 190.838791,96.4757368 191.202593,99.1212632 C191.56521,101.769158 191.376791,104.227579 190.633782,106.500079 C189.891959,108.772579 188.654796,110.841395 186.921108,112.706526 C185.187421,114.570474 183.138518,116.221263 180.774399,117.660079 C177.967082,119.367711 175.254567,120.511658 172.638038,121.091921 C170.020324,121.673368 167.591029,121.784684 165.348967,121.428237 C163.105721,121.071789 161.116069,120.326921 159.378826,119.191263 C157.640399,118.056789 156.246813,116.627447 155.196884,114.904421 C154.148139,113.182579 153.860179,111.769816 154.338928,110.670868 C154.816492,109.569553 155.817835,108.555868 157.345329,107.626263 C159.364606,106.398237 160.888544,105.961263 161.913589,106.315342 C162.939818,106.669421 163.766963,107.363368 164.397395,108.397184 C165.506575,110.217316 167.080285,111.167053 169.117337,111.241658 C171.15439,111.318632 173.256619,110.696921 175.42521,109.377711 C177.887685,107.879684 179.403329,106.046526 179.973324,103.878237 C180.542135,101.709947 179.973324,99.2231053 178.263337,96.4177105 L177.408937,95.0144211 C175.700135,92.2090263 173.743663,90.5511316 171.539522,90.0348158 C169.335381,89.5208684 167.025774,89.9969211 164.613069,91.4653421 L153.67887,98.1170526 C152.151377,99.0466579 150.920139,99.3237632 149.982787,98.9495526 C149.046619,98.5753421 148.233694,97.8233684 147.544011,96.6900789 C147.363888,96.3952105 147.18732,96.0802105 147.017862,95.7438947 C146.847219,95.4099474 146.657615,95.0700789 146.447866,94.7254737 L136.538712,74.1379737 C136.067073,73.1444211 135.814663,72.2858684 135.780298,71.5646842 C135.745932,70.8435 135.998342,70.3177105 136.541082,69.9873158 L159.298245,56.1427105 C160.281813,55.5435 161.277232,55.5446842 162.28687,56.1462632 C163.294139,56.7478421 164.112989,57.5649474 164.742236,58.5987632 C165.402293,59.6811316 165.761355,60.7966579 165.817051,61.9417895 C165.873932,63.0892895 165.409404,63.9608684 164.425835,64.5588947 L147.801161,74.6732368 L154.337743,87.3963947 L160.025848,83.9349474 Z" id="Stroke-70" stroke="#D65129" stroke-width="1.18421053" stroke-linecap="round" stroke-linejoin="round"></path>
                <path d="M194.06608,12.7293158 C193.830261,12.2189211 202.279468,3.59431579 202.901604,2.89918421 C203.527296,2.20405263 201.705917,0.465631579 200.901287,0.599447368 C200.097842,0.732078947 182.164904,7.84207895 180.841234,7.74378947 C180.760653,7.73668421 180.645706,7.71536842 180.504688,7.67984211 L194.512833,13.0005 C194.252129,12.8737895 194.088596,12.7778684 194.06608,12.7293158" id="Fill-72" fill="#19BC9C"></path>
                <path d="M194.06608,12.7293158 C193.830261,12.2189211 202.279468,3.59431579 202.901604,2.89918421 C203.527296,2.20405263 201.705917,0.465631579 200.901287,0.599447368 C200.097842,0.732078947 182.164904,7.84207895 180.841234,7.74378947 C180.760653,7.73668421 180.645706,7.71536842 180.504688,7.67984211 L194.512833,13.0005 C194.252129,12.8737895 194.088596,12.7778684 194.06608,12.7293158 Z" id="Stroke-74" stroke="#109995" stroke-width="1.18421053" stroke-linecap="round" stroke-linejoin="round"></path>
            </g>
        </g>
    </g>
</svg>