<svg id="cleanup" xmlns="http://www.w3.org/2000/svg" viewBox="0 0 280 280"><title>primary-literature</title><line x1="235.24" y1="103.26" x2="43.89" y2="103.26" style="fill:none;stroke:#a1c2d8;stroke-linecap:round;stroke-linejoin:round"/><line x1="46.89" y1="95.14" x2="239.24" y2="95.14" style="fill:none;stroke:#a1c2d8;stroke-linecap:round;stroke-linejoin:round"/><rect x="50.43" y="44.6" width="4.52" height="50.54" style="fill:#d0e4f1"/><rect x="50.43" y="44.6" width="8.16" height="50.54" style="fill:none;stroke:#a1c2d8;stroke-linecap:round;stroke-linejoin:round"/><line x1="50.43" y1="51.6" x2="58.59" y2="51.6" style="fill:none;stroke:#a1c2d8;stroke-linecap:round;stroke-linejoin:round"/><line x1="50.43" y1="88.13" x2="58.59" y2="88.13" style="fill:none;stroke:#a1c2d8;stroke-linecap:round;stroke-linejoin:round"/><rect x="84.25" y="44.6" width="5.41" height="50.54" style="fill:#d0e4f1"/><rect x="84.25" y="44.6" width="9.76" height="50.54" style="fill:none;stroke:#a1c2d8;stroke-linecap:round;stroke-linejoin:round"/><line x1="84.25" y1="51.6" x2="94.02" y2="51.6" style="fill:none;stroke:#a1c2d8;stroke-linecap:round;stroke-linejoin:round"/><line x1="84.25" y1="88.13" x2="94.02" y2="88.13" style="fill:none;stroke:#a1c2d8;stroke-linecap:round;stroke-linejoin:round"/><rect x="114.27" y="51.51" width="4.5" height="43.63" style="fill:#d0e4f1"/><rect x="114.27" y="51.51" width="8.12" height="43.63" style="fill:none;stroke:#a1c2d8;stroke-linecap:round;stroke-linejoin:round"/><line x1="114.27" y1="57.56" x2="122.4" y2="57.56" style="fill:none;stroke:#a1c2d8;stroke-linecap:round;stroke-linejoin:round"/><line x1="114.27" y1="89.09" x2="122.4" y2="89.09" style="fill:none;stroke:#a1c2d8;stroke-linecap:round;stroke-linejoin:round"/><rect x="187.17" y="51.51" width="4.5" height="43.63" style="fill:#d0e4f1"/><rect x="187.17" y="51.51" width="8.12" height="43.63" style="fill:none;stroke:#a1c2d8;stroke-linecap:round;stroke-linejoin:round"/><line x1="187.17" y1="57.56" x2="195.29" y2="57.56" style="fill:none;stroke:#a1c2d8;stroke-linecap:round;stroke-linejoin:round"/><line x1="187.17" y1="89.09" x2="195.29" y2="89.09" style="fill:none;stroke:#a1c2d8;stroke-linecap:round;stroke-linejoin:round"/><rect x="204.6" y="69.81" width="3.36" height="25.33" style="fill:#d0e4f1"/><rect x="204.6" y="69.81" width="6.06" height="25.33" style="fill:none;stroke:#a1c2d8;stroke-linecap:round;stroke-linejoin:round"/><line x1="204.6" y1="73.32" x2="210.66" y2="73.32" style="fill:none;stroke:#a1c2d8;stroke-linecap:round;stroke-linejoin:round"/><line x1="204.6" y1="91.63" x2="210.66" y2="91.63" style="fill:none;stroke:#a1c2d8;stroke-linecap:round;stroke-linejoin:round"/><rect x="195.29" y="63.37" width="5.16" height="31.77" style="fill:#d0e4f1"/><rect x="195.29" y="63.37" width="9.31" height="31.77" style="fill:none;stroke:#a1c2d8;stroke-linecap:round;stroke-linejoin:round"/><line x1="195.29" y1="67.77" x2="204.6" y2="67.77" style="fill:none;stroke:#a1c2d8;stroke-linecap:round;stroke-linejoin:round"/><line x1="195.29" y1="90.73" x2="204.6" y2="90.73" style="fill:none;stroke:#a1c2d8;stroke-linecap:round;stroke-linejoin:round"/><rect x="223.42" y="63.37" width="5.16" height="31.77" style="fill:#d0e4f1"/><rect x="223.42" y="63.37" width="9.31" height="31.77" style="fill:none;stroke:#a1c2d8;stroke-linecap:round;stroke-linejoin:round"/><line x1="223.42" y1="67.77" x2="232.72" y2="67.77" style="fill:none;stroke:#a1c2d8;stroke-linecap:round;stroke-linejoin:round"/><line x1="223.42" y1="90.73" x2="232.72" y2="90.73" style="fill:none;stroke:#a1c2d8;stroke-linecap:round;stroke-linejoin:round"/><rect x="210.66" y="54.02" width="7.07" height="41.11" style="fill:#d0e4f1"/><rect x="210.66" y="54.02" width="12.76" height="41.11" style="fill:none;stroke:#a1c2d8;stroke-linecap:round;stroke-linejoin:round"/><line x1="210.66" y1="59.72" x2="223.42" y2="59.72" style="fill:none;stroke:#a1c2d8;stroke-linecap:round;stroke-linejoin:round"/><line x1="210.66" y1="89.44" x2="223.42" y2="89.44" style="fill:none;stroke:#a1c2d8;stroke-linecap:round;stroke-linejoin:round"/><rect x="151.84" y="72.15" width="6.63" height="39.34" transform="translate(63.33 246.97) rotate(-90)" style="fill:#d0e4f1"/><rect x="149.17" y="69.48" width="11.97" height="39.34" transform="translate(66 244.3) rotate(-90)" style="fill:none;stroke:#a1c2d8;stroke-linecap:round;stroke-linejoin:round"/><line x1="140.93" y1="95.14" x2="140.93" y2="83.16" style="fill:none;stroke:#a1c2d8;stroke-linecap:round;stroke-linejoin:round"/><line x1="169.37" y1="95.14" x2="169.37" y2="83.16" style="fill:none;stroke:#a1c2d8;stroke-linecap:round;stroke-linejoin:round"/><rect x="153.92" y="60.17" width="6.63" height="39.34" transform="translate(77.39 237.08) rotate(-90)" style="fill:#d0e4f1"/><rect x="151.25" y="57.5" width="11.97" height="39.34" transform="translate(80.06 234.41) rotate(-90)" style="fill:none;stroke:#a1c2d8;stroke-linecap:round;stroke-linejoin:round"/><line x1="143.02" y1="83.16" x2="143.02" y2="71.19" style="fill:none;stroke:#a1c2d8;stroke-linecap:round;stroke-linejoin:round"/><line x1="171.45" y1="83.16" x2="171.45" y2="71.19" style="fill:none;stroke:#a1c2d8;stroke-linecap:round;stroke-linejoin:round"/><rect x="151.46" y="54.18" width="4.33" height="29.69" transform="translate(84.61 222.65) rotate(-90)" style="fill:#d0e4f1"/><rect x="149.72" y="52.43" width="7.82" height="29.69" transform="translate(86.35 220.91) rotate(-90)" style="fill:none;stroke:#a1c2d8;stroke-linecap:round;stroke-linejoin:round"/><line x1="142.9" y1="71.19" x2="142.9" y2="63.37" style="fill:none;stroke:#a1c2d8;stroke-linecap:round;stroke-linejoin:round"/><line x1="164.36" y1="71.19" x2="164.36" y2="63.37" style="fill:none;stroke:#a1c2d8;stroke-linecap:round;stroke-linejoin:round"/><rect x="98.73" y="55.83" width="4.67" height="39.3" transform="translate(-15.35 26.9) rotate(-14.1)" style="fill:#d0e4f1"/><rect x="98.68" y="55.38" width="8.43" height="39.3" transform="translate(-15.18 27.33) rotate(-14.1)" style="fill:none;stroke:#a1c2d8;stroke-linecap:round;stroke-linejoin:round"/><line x1="95.34" y1="62.28" x2="103.51" y2="60.22" style="fill:none;stroke:#a1c2d8;stroke-linecap:round;stroke-linejoin:round"/><line x1="102.26" y1="89.82" x2="110.44" y2="87.77" style="fill:none;stroke:#a1c2d8;stroke-linecap:round;stroke-linejoin:round"/><rect x="72.46" y="61.36" width="6.53" height="33.78" style="fill:#d0e4f1"/><rect x="72.46" y="61.36" width="11.79" height="33.78" style="fill:none;stroke:#a1c2d8;stroke-linecap:round;stroke-linejoin:round"/><line x1="72.46" y1="66.04" x2="84.25" y2="66.04" style="fill:none;stroke:#a1c2d8;stroke-linecap:round;stroke-linejoin:round"/><line x1="72.46" y1="90.46" x2="84.25" y2="90.46" style="fill:none;stroke:#a1c2d8;stroke-linecap:round;stroke-linejoin:round"/><rect x="58.59" y="56.3" width="7.68" height="38.84" style="fill:#d0e4f1"/><rect x="58.59" y="56.3" width="13.87" height="38.84" style="fill:none;stroke:#a1c2d8;stroke-linecap:round;stroke-linejoin:round"/><line x1="58.59" y1="61.68" x2="72.46" y2="61.68" style="fill:none;stroke:#a1c2d8;stroke-linecap:round;stroke-linejoin:round"/><line x1="58.59" y1="89.76" x2="72.46" y2="89.76" style="fill:none;stroke:#a1c2d8;stroke-linecap:round;stroke-linejoin:round"/><line x1="229.23" y1="167.3" x2="39.89" y2="167.3" style="fill:none;stroke:#a1c2d8;stroke-linecap:round;stroke-linejoin:round"/><line x1="42.89" y1="159.18" x2="235.24" y2="159.18" style="fill:none;stroke:#a1c2d8;stroke-linecap:round;stroke-linejoin:round"/><rect x="223.55" y="108.64" width="4.52" height="50.54" transform="translate(451.62 267.81) rotate(-180)" style="fill:#d0e4f1"/><rect x="219.91" y="108.64" width="8.16" height="50.54" transform="translate(447.98 267.81) rotate(-180)" style="fill:none;stroke:#a1c2d8;stroke-linecap:round;stroke-linejoin:round"/><line x1="228.07" y1="115.64" x2="219.91" y2="115.64" style="fill:none;stroke:#a1c2d8;stroke-linecap:round;stroke-linejoin:round"/><line x1="228.07" y1="152.17" x2="219.91" y2="152.17" style="fill:none;stroke:#a1c2d8;stroke-linecap:round;stroke-linejoin:round"/><rect x="188.84" y="108.64" width="5.41" height="50.54" transform="translate(383.09 267.81) rotate(-180)" style="fill:#d0e4f1"/><rect x="184.49" y="108.64" width="9.76" height="50.54" transform="translate(378.73 267.81) rotate(-180)" style="fill:none;stroke:#a1c2d8;stroke-linecap:round;stroke-linejoin:round"/><line x1="194.25" y1="115.64" x2="184.49" y2="115.64" style="fill:none;stroke:#a1c2d8;stroke-linecap:round;stroke-linejoin:round"/><line x1="194.25" y1="152.17" x2="184.49" y2="152.17" style="fill:none;stroke:#a1c2d8;stroke-linecap:round;stroke-linejoin:round"/><rect x="93.68" y="115.55" width="4.5" height="43.63" transform="translate(191.85 274.72) rotate(-180)" style="fill:#d0e4f1"/><rect x="90.05" y="115.55" width="8.12" height="43.63" transform="translate(188.23 274.72) rotate(-180)" style="fill:none;stroke:#a1c2d8;stroke-linecap:round;stroke-linejoin:round"/><line x1="98.18" y1="121.59" x2="90.05" y2="121.59" style="fill:none;stroke:#a1c2d8;stroke-linecap:round;stroke-linejoin:round"/><line x1="98.18" y1="153.13" x2="90.05" y2="153.13" style="fill:none;stroke:#a1c2d8;stroke-linecap:round;stroke-linejoin:round"/><rect x="72.39" y="133.85" width="3.36" height="25.33" transform="translate(148.13 293.03) rotate(-180)" style="fill:#d0e4f1"/><rect x="69.68" y="133.85" width="6.06" height="25.33" transform="translate(145.43 293.03) rotate(-180)" style="fill:none;stroke:#a1c2d8;stroke-linecap:round;stroke-linejoin:round"/><line x1="75.74" y1="137.36" x2="69.68" y2="137.36" style="fill:none;stroke:#a1c2d8;stroke-linecap:round;stroke-linejoin:round"/><line x1="75.74" y1="155.67" x2="69.68" y2="155.67" style="fill:none;stroke:#a1c2d8;stroke-linecap:round;stroke-linejoin:round"/><rect x="83.08" y="127.21" width="5.16" height="31.77" transform="translate(154.24 295.12) rotate(-173.38)" style="fill:#d0e4f1"/><rect x="78.94" y="126.97" width="9.31" height="31.77" transform="translate(150.16 294.4) rotate(-173.38)" style="fill:none;stroke:#a1c2d8;stroke-linecap:round;stroke-linejoin:round"/><line x1="89.54" y1="131.99" x2="80.3" y2="130.92" style="fill:none;stroke:#a1c2d8;stroke-linecap:round;stroke-linejoin:round"/><line x1="86.89" y1="154.8" x2="77.65" y2="153.73" style="fill:none;stroke:#a1c2d8;stroke-linecap:round;stroke-linejoin:round"/><rect x="51.77" y="117.92" width="5.16" height="41.26" transform="translate(108.69 277.1) rotate(-180)" style="fill:#d0e4f1"/><rect x="47.62" y="117.92" width="9.31" height="41.26" transform="translate(104.54 277.1) rotate(-180)" style="fill:none;stroke:#a1c2d8;stroke-linecap:round;stroke-linejoin:round"/><line x1="56.92" y1="123.64" x2="47.62" y2="123.64" style="fill:none;stroke:#a1c2d8;stroke-linecap:round;stroke-linejoin:round"/><line x1="56.92" y1="153.46" x2="47.62" y2="153.46" style="fill:none;stroke:#a1c2d8;stroke-linecap:round;stroke-linejoin:round"/><rect x="62.61" y="120.47" width="7.07" height="38.71" transform="translate(132.3 279.64) rotate(-180)" style="fill:#d0e4f1"/><rect x="56.92" y="120.47" width="12.76" height="38.71" transform="translate(126.61 279.64) rotate(-180)" style="fill:none;stroke:#a1c2d8;stroke-linecap:round;stroke-linejoin:round"/><line x1="69.68" y1="125.83" x2="56.92" y2="125.83" style="fill:none;stroke:#a1c2d8;stroke-linecap:round;stroke-linejoin:round"/><line x1="69.68" y1="153.81" x2="56.92" y2="153.81" style="fill:none;stroke:#a1c2d8;stroke-linecap:round;stroke-linejoin:round"/><rect x="123.63" y="136.19" width="6.63" height="39.34" transform="translate(-28.91 282.81) rotate(-90)" style="fill:#d0e4f1"/><rect x="120.96" y="133.52" width="11.97" height="39.34" transform="translate(-26.24 280.14) rotate(-90)" style="fill:none;stroke:#a1c2d8;stroke-linecap:round;stroke-linejoin:round"/><line x1="112.73" y1="159.18" x2="112.73" y2="147.2" style="fill:none;stroke:#a1c2d8;stroke-linecap:round;stroke-linejoin:round"/><line x1="141.17" y1="159.18" x2="141.17" y2="147.2" style="fill:none;stroke:#a1c2d8;stroke-linecap:round;stroke-linejoin:round"/><rect x="127.72" y="124.21" width="6.63" height="39.34" transform="translate(-12.85 274.92) rotate(-90)" style="fill:#d0e4f1"/><rect x="125.05" y="121.54" width="11.97" height="39.34" transform="translate(-10.18 272.25) rotate(-90)" style="fill:none;stroke:#a1c2d8;stroke-linecap:round;stroke-linejoin:round"/><line x1="116.81" y1="147.2" x2="116.81" y2="135.23" style="fill:none;stroke:#a1c2d8;stroke-linecap:round;stroke-linejoin:round"/><line x1="145.25" y1="147.2" x2="145.25" y2="135.23" style="fill:none;stroke:#a1c2d8;stroke-linecap:round;stroke-linejoin:round"/><rect x="132.26" y="118.22" width="4.33" height="29.69" transform="translate(1.37 267.49) rotate(-90)" style="fill:#d0e4f1"/><rect x="130.52" y="116.47" width="7.82" height="29.69" transform="translate(3.12 265.75) rotate(-90)" style="fill:none;stroke:#a1c2d8;stroke-linecap:round;stroke-linejoin:round"/><line x1="123.7" y1="135.23" x2="123.7" y2="127.4" style="fill:none;stroke:#a1c2d8;stroke-linecap:round;stroke-linejoin:round"/><line x1="145.16" y1="135.23" x2="145.16" y2="127.4" style="fill:none;stroke:#a1c2d8;stroke-linecap:round;stroke-linejoin:round"/><rect x="175.1" y="119.87" width="4.67" height="39.3" transform="translate(315.53 318.07) rotate(-165.9)" style="fill:#d0e4f1"/><rect x="171.4" y="119.41" width="8.43" height="39.3" transform="translate(312.05 316.72) rotate(-165.9)" style="fill:none;stroke:#a1c2d8;stroke-linecap:round;stroke-linejoin:round"/><line x1="183.16" y1="126.32" x2="174.99" y2="124.26" style="fill:none;stroke:#a1c2d8;stroke-linecap:round;stroke-linejoin:round"/><line x1="176.24" y1="153.86" x2="168.07" y2="151.81" style="fill:none;stroke:#a1c2d8;stroke-linecap:round;stroke-linejoin:round"/><rect x="167" y="115.09" width="4.67" height="44.19" transform="translate(300.14 311.5) rotate(-165.9)" style="fill:#d0e4f1"/><rect x="163.3" y="114.63" width="8.43" height="44.19" transform="translate(296.66 310.15) rotate(-165.9)" style="fill:none;stroke:#a1c2d8;stroke-linecap:round;stroke-linejoin:round"/><line x1="175.49" y1="122.27" x2="167.32" y2="120.21" style="fill:none;stroke:#a1c2d8;stroke-linecap:round;stroke-linejoin:round"/><line x1="167.71" y1="153.24" x2="159.53" y2="151.19" style="fill:none;stroke:#a1c2d8;stroke-linecap:round;stroke-linejoin:round"/><rect x="199.51" y="125.4" width="6.53" height="33.78" transform="translate(405.55 284.57) rotate(-180)" style="fill:#d0e4f1"/><rect x="194.25" y="125.4" width="11.79" height="33.78" transform="translate(400.29 284.57) rotate(-180)" style="fill:none;stroke:#a1c2d8;stroke-linecap:round;stroke-linejoin:round"/><line x1="206.04" y1="130.08" x2="194.25" y2="130.08" style="fill:none;stroke:#a1c2d8;stroke-linecap:round;stroke-linejoin:round"/><line x1="206.04" y1="154.5" x2="194.25" y2="154.5" style="fill:none;stroke:#a1c2d8;stroke-linecap:round;stroke-linejoin:round"/><rect x="212.23" y="120.34" width="7.68" height="38.84" transform="translate(432.14 279.52) rotate(-180)" style="fill:#d0e4f1"/><rect x="206.04" y="120.34" width="13.87" height="38.84" transform="translate(425.96 279.52) rotate(-180)" style="fill:none;stroke:#a1c2d8;stroke-linecap:round;stroke-linejoin:round"/><line x1="219.91" y1="125.72" x2="206.04" y2="125.72" style="fill:none;stroke:#a1c2d8;stroke-linecap:round;stroke-linejoin:round"/><line x1="219.91" y1="153.79" x2="206.04" y2="153.79" style="fill:none;stroke:#a1c2d8;stroke-linecap:round;stroke-linejoin:round"/><path d="M209.29,189.84c.38-.7,1.51-.49,2,.14a6.34,6.34,0,0,1,.74,2.24c.88,3.24,4.6,5.34,4.81,8.69.14,2.14-1.24,4.06-2.71,5.62a30,30,0,0,1-7.94,6A11,11,0,0,1,202,213.9a4.9,4.9,0,0,1-4-1.47,6.2,6.2,0,0,1-1.13-2.22,17.17,17.17,0,0,1-.82-5.09" style="fill:#fff;stroke:#3f555a;stroke-linecap:round;stroke-linejoin:round"/><path d="M199.64,203.12c4.2-1.68,7.51-5.35,9.33-7.74a5.1,5.1,0,0,0,.78-4.69c-5.25-15.91-14-25-14-25l-6.58,2.61L185,188.1l10,13.68A3.93,3.93,0,0,0,199.64,203.12Z" style="fill:#fff;stroke:#3f555a;stroke-linecap:round;stroke-linejoin:round"/><path d="M216.44,203a98.74,98.74,0,0,1,9.3,18.1" style="fill:none;stroke:#3f555a;stroke-linecap:round;stroke-linejoin:round"/><path d="M213,200.14c.23.63,0,1.44-.83,1.43-1,0-1.6-1.51-1.58-2.36a.84.84,0,0,1,1.27-.68A2.87,2.87,0,0,1,213,200.14Z" style="fill:none;stroke:#3f555a;stroke-linecap:round;stroke-linejoin:round"/><path d="M69.84,189.84c-.38-.7-1.51-.49-2,.14a6.34,6.34,0,0,0-.74,2.24c-.88,3.24-4.6,5.34-4.81,8.69C62.16,203,63.53,205,65,206.53a30,30,0,0,0,7.94,6,11,11,0,0,0,4.21,1.39,4.9,4.9,0,0,0,4-1.47,6.2,6.2,0,0,0,1.13-2.22,17.17,17.17,0,0,0,.82-5.09" style="fill:#fff;stroke:#3f555a;stroke-linecap:round;stroke-linejoin:round"/><path d="M79.48,203.12c-4.2-1.68-7.51-5.35-9.33-7.74a5.1,5.1,0,0,1-.78-4.69c5.25-15.91,14-25,14-25L90,168.26l4.12,19.84-10,13.68A3.93,3.93,0,0,1,79.48,203.12Z" style="fill:#fff;stroke:#3f555a;stroke-linecap:round;stroke-linejoin:round"/><path d="M139.56,222.72a4,4,0,0,1-2.61-1c-.19-.16-12.66-10.55-34.78-10.55A79.24,79.24,0,0,0,86,212.92,4,4,0,0,1,81.19,209c0-2.66-.22-20.34-.43-37.44-.21-16.84-.41-29.74-.41-32.13a4,4,0,0,1,3.19-3.92A66.47,66.47,0,0,1,97,134.13c21.18,0,36.55,10.26,42.57,15.06,6-4.8,21.39-15.06,42.57-15.06a66.48,66.48,0,0,1,13.45,1.39,4,4,0,0,1,3.19,3.92c0,2.39-.2,15.3-.41,32.13-.21,17.1-.43,34.79-.43,37.44a4,4,0,0,1-4,4,3.94,3.94,0,0,1-.82-.08A79.24,79.24,0,0,0,177,211.2c-22.37,0-34.65,10.44-34.77,10.54A4,4,0,0,1,139.56,222.72Z" style="fill:#f56f40;stroke:#3f555a;stroke-linecap:round;stroke-linejoin:round"/><path d="M139.56,218.72s-19.11-16.6-53.18-10a1,1,0,0,1-1.2-1c-.08-10.15-.84-66.78-.84-71.38,32.76-6.78,55.21,15,55.21,15Z" style="fill:#fff;stroke:#3f555a;stroke-linecap:round;stroke-linejoin:round"/><path d="M139.56,218.72s-19.93-18.39-54-11.79a1,1,0,0,1-1.2-1V136.43c32.76-6.78,55.21,15,55.21,15Z" style="fill:#fff;stroke:#3f555a;stroke-linecap:round;stroke-linejoin:round"/><path d="M139.56,218.72s19.11-16.6,53.18-10a1,1,0,0,0,1.2-1c.08-10.15.84-66.78.84-71.38-32.76-6.78-55.21,15-55.21,15Z" style="fill:#fff;stroke:#3f555a;stroke-linecap:round;stroke-linejoin:round"/><path d="M139.56,218.72s19.93-18.39,54-11.79a1,1,0,0,0,1.2-1V136.43c-32.76-6.78-55.21,15-55.21,15Z" style="fill:#fff;stroke:#3f555a;stroke-linecap:round;stroke-linejoin:round"/><path d="M139.56,218.72s-20.48-20.89-55.5-14a1,1,0,0,1-1.2-1V133.42a1,1,0,0,1,.81-1c33.2-6.56,55.89,15.88,55.89,15.88Z" style="fill:#fff;stroke:#3f555a;stroke-linecap:round;stroke-linejoin:round"/><path d="M96.14,175.19c6.56.08,14.85,1.63,18.42,7.87,1.81,3.16.48,6-2.57,7.61a14.84,14.84,0,0,1-11.06.88c-3.17-1-8.63-3.94-7.47-8.07.76-2.71,3.8-3.21,6.18-3.58" style="fill:none;stroke:#19bc9c;stroke-linecap:round;stroke-linejoin:round"/><path d="M117.27,166.28a5.12,5.12,0,0,1-2.33.56c-3.35.19-7.63-.88-8.36-4.72-.47-2.51,1.14-4.68,3.34-5.74C116,153.46,123.47,162.63,117.27,166.28Z" style="fill:none;stroke:#19bc9c;stroke-linecap:round;stroke-linejoin:round"/><path d="M121.32,194.18a68.22,68.22,0,0,1,12.46,7" style="fill:none;stroke:#3f555a;stroke-linecap:round;stroke-linejoin:round"/><path d="M89.32,189.09a64.26,64.26,0,0,1,25.3,2.62" style="fill:none;stroke:#3f555a;stroke-linecap:round;stroke-linejoin:round"/><path d="M126.31,202.07a68.14,68.14,0,0,1,7.69,4.74" style="fill:none;stroke:#3f555a;stroke-linecap:round;stroke-linejoin:round"/><path d="M103.47,194.8A66.56,66.56,0,0,1,119.75,199" style="fill:none;stroke:#3f555a;stroke-linecap:round;stroke-linejoin:round"/><path d="M89.28,194.6a61.8,61.8,0,0,1,8.29-.28" style="fill:none;stroke:#3f555a;stroke-linecap:round;stroke-linejoin:round"/><path d="M105.95,184.16a67.72,67.72,0,0,1,27.84,11.49" style="fill:none;stroke:#3f555a;stroke-linecap:round;stroke-linejoin:round"/><path d="M89.32,183.59a62.25,62.25,0,0,1,10.13-.18" style="fill:none;stroke:#3f555a;stroke-linecap:round;stroke-linejoin:round"/><path d="M121.1,183.09a68.22,68.22,0,0,1,12.9,7.22" style="fill:none;stroke:#3f555a;stroke-linecap:round;stroke-linejoin:round"/><path d="M89.86,178A64.36,64.36,0,0,1,115,180.83" style="fill:none;stroke:#3f555a;stroke-linecap:round;stroke-linejoin:round"/><path d="M102.88,172.72A67.58,67.58,0,0,1,134,184.81" style="fill:none;stroke:#3f555a;stroke-linecap:round;stroke-linejoin:round"/><path d="M89.86,172.54q3-.27,5.93-.25" style="fill:none;stroke:#3f555a;stroke-linecap:round;stroke-linejoin:round"/><path d="M110.15,163a68.07,68.07,0,0,1,23.42,10.5" style="fill:none;stroke:#3f555a;stroke-linecap:round;stroke-linejoin:round"/><path d="M89.87,161.54a62.75,62.75,0,0,1,14.38.36" style="fill:none;stroke:#3f555a;stroke-linecap:round;stroke-linejoin:round"/><path d="M121.11,155.64a75.59,75.59,0,0,1,11.64,6.57" style="fill:none;stroke:#3f555a;stroke-linecap:round;stroke-linejoin:round"/><path d="M106,151.08a56.44,56.44,0,0,1,8.86,2.15" style="fill:none;stroke:#3f555a;stroke-linecap:round;stroke-linejoin:round"/><path d="M127.4,164.15q2.95,1.63,5.72,3.54" style="fill:none;stroke:#3f555a;stroke-linecap:round;stroke-linejoin:round"/><path d="M104.92,156.49a66.69,66.69,0,0,1,16.43,4.7" style="fill:none;stroke:#3f555a;stroke-linecap:round;stroke-linejoin:round"/><path d="M90,156a61.75,61.75,0,0,1,8.41-.18" style="fill:none;stroke:#3f555a;stroke-linecap:round;stroke-linejoin:round"/><path d="M124,173.41a68.3,68.3,0,0,1,9.75,5.74" style="fill:none;stroke:#3f555a;stroke-linecap:round;stroke-linejoin:round"/><path d="M89.91,167A64.7,64.7,0,0,1,118,170.86" style="fill:none;stroke:#3f555a;stroke-linecap:round;stroke-linejoin:round"/><path d="M139.56,218.72s20.48-20.89,55.5-14a1,1,0,0,0,1.2-1V133.42a1,1,0,0,0-.81-1c-33.2-6.56-55.89,15.88-55.89,15.88Z" style="fill:#fff;stroke:#3f555a;stroke-linecap:round;stroke-linejoin:round"/><path d="M169.31,139.92a68,68,0,0,0-22.11,9.47" style="fill:none;stroke:#3f555a;stroke-linecap:round;stroke-linejoin:round"/><path d="M188.53,138.48a62.71,62.71,0,0,0-13.28.37" style="fill:none;stroke:#3f555a;stroke-linecap:round;stroke-linejoin:round"/><path d="M154.57,150.95a68.41,68.41,0,0,0-7.87,4.55" style="fill:none;stroke:#3f555a;stroke-linecap:round;stroke-linejoin:round"/><path d="M173.77,144.84a66.72,66.72,0,0,0-12.52,3.25" style="fill:none;stroke:#3f555a;stroke-linecap:round;stroke-linejoin:round"/><path d="M188.62,144.26a62.18,62.18,0,0,0-7.77-.14" style="fill:none;stroke:#3f555a;stroke-linecap:round;stroke-linejoin:round"/><path d="M150.8,164.51q-2.33,1.34-4.56,2.85" style="fill:none;stroke:#3f555a;stroke-linecap:round;stroke-linejoin:round"/><path d="M169.8,157.15a67.46,67.46,0,0,0-13.15,4.38" style="fill:none;stroke:#3f555a;stroke-linecap:round;stroke-linejoin:round"/><path d="M188.62,155.82a62.36,62.36,0,0,0-12,.19" style="fill:none;stroke:#3f555a;stroke-linecap:round;stroke-linejoin:round"/><path d="M158.32,172.35a68.27,68.27,0,0,0-12.53,6.88" style="fill:none;stroke:#3f555a;stroke-linecap:round;stroke-linejoin:round"/><path d="M189.21,167.42A64.24,64.24,0,0,0,165,169.94" style="fill:none;stroke:#3f555a;stroke-linecap:round;stroke-linejoin:round"/><path d="M155.29,185.27a68.3,68.3,0,0,0-9.72,5.68" style="fill:none;stroke:#3f555a;stroke-linecap:round;stroke-linejoin:round"/><path d="M189.84,179a64.55,64.55,0,0,0-28,3.5" style="fill:none;stroke:#3f555a;stroke-linecap:round;stroke-linejoin:round"/><path d="M173.09,173.84a67.77,67.77,0,0,0-27.53,11.33" style="fill:none;stroke:#3f555a;stroke-linecap:round;stroke-linejoin:round"/><path d="M189.26,173.21a62.1,62.1,0,0,0-9.61-.13" style="fill:none;stroke:#3f555a;stroke-linecap:round;stroke-linejoin:round"/><path d="M162.58,165A68.34,68.34,0,0,0,146,173.3" style="fill:none;stroke:#3f555a;stroke-linecap:round;stroke-linejoin:round"/><path d="M189.17,161.64A63.51,63.51,0,0,0,169.49,163" style="fill:none;stroke:#3f555a;stroke-linecap:round;stroke-linejoin:round"/><path d="M150,159.18q-1.81,1.07-3.56,2.25" style="fill:none;stroke:#3f555a;stroke-linecap:round;stroke-linejoin:round"/><path d="M165.86,152.37A67.9,67.9,0,0,0,152.12,158" style="fill:none;stroke:#3f555a;stroke-linecap:round;stroke-linejoin:round"/><path d="M189.17,150.09a63,63,0,0,0-16.67.75" style="fill:none;stroke:#3f555a;stroke-linecap:round;stroke-linejoin:round"/><path d="M90.54,145c-1,0-1.54,1-1.52,1.94a3,3,0,0,0,.55,1.7,2.25,2.25,0,0,0,1.6.93,2.82,2.82,0,0,0,2.27-1.49c2.26-3.08,4.31-6.3,6.37-9.52v11.89" style="fill:none;stroke:#3f555a;stroke-linecap:round;stroke-linejoin:round"/><line x1="101.72" y1="150.65" x2="97.79" y2="150.25" style="fill:none;stroke:#3f555a;stroke-linecap:round;stroke-linejoin:round"/><line x1="99.38" y1="145.84" x2="95.44" y2="145.44" style="fill:none;stroke:#3f555a;stroke-linecap:round;stroke-linejoin:round"/><path d="M79.36,175.61a16,16,0,0,1,4-4c.92-.65,2.78-1.43,3.58-.21,1.6,2.43-.28,7.18-1.37,9.46a55.33,55.33,0,0,1-7.33,11.39" style="fill:#fff;stroke:#3f555a;stroke-linecap:round;stroke-linejoin:round"/><path d="M115.11,156.18a20,20,0,0,1,6-7" style="fill:none;stroke:#19bc9c;stroke-linecap:round;stroke-linejoin:round"/><path d="M123.86,149.18a24.19,24.19,0,0,1,4.93,2.4" style="fill:none;stroke:#19bc9c;stroke-linecap:round;stroke-linejoin:round"/><path d="M124.33,146.75a16,16,0,0,1,5.21,2.68" style="fill:none;stroke:#19bc9c;stroke-linecap:round;stroke-linejoin:round"/><path d="M125,144.37a18.68,18.68,0,0,1,4.7,2.54" style="fill:none;stroke:#19bc9c;stroke-linecap:round;stroke-linejoin:round"/><path d="M119.69,147.66h2a.84.84,0,0,1,.55.13.8.8,0,0,1,.21.61,7,7,0,0,1-.24,2" style="fill:none;stroke:#19bc9c;stroke-linecap:round;stroke-linejoin:round"/><path d="M163.48,190.33a44.85,44.85,0,0,1,11.77-1.75" style="fill:none;stroke:#19bc9c;stroke-linecap:round;stroke-linejoin:round"/><path d="M163.45,194.46a51.06,51.06,0,0,1,11.5-1.85" style="fill:none;stroke:#19bc9c;stroke-linecap:round;stroke-linejoin:round"/><path d="M163.51,198.17a55,55,0,0,1,11.37-1.58" style="fill:none;stroke:#19bc9c;stroke-linecap:round;stroke-linejoin:round"/><path d="M151.93,191.08a5.15,5.15,0,0,0,4.45-.72,8.39,8.39,0,0,0,2.86-3.62,8.88,8.88,0,0,0,.73-5.4c-.9-4.22-6.8-6.31-9.5-2.5C148.16,182.12,147.12,189.42,151.93,191.08Z" style="fill:none;stroke:#19bc9c;stroke-linecap:round;stroke-linejoin:round"/><path d="M150.74,193.42a4.61,4.61,0,0,0,5.71,6.84" style="fill:none;stroke:#19bc9c;stroke-linecap:round;stroke-linejoin:round"/><path d="M156.56,198a9.6,9.6,0,0,1,2.48.6l-.75,2.48" style="fill:none;stroke:#19bc9c;stroke-linecap:round;stroke-linejoin:round"/><path d="M188.28,159.3a4.5,4.5,0,0,0,3.52-2.54,6.76,6.76,0,0,0,.17-3.61l-.41-3.06a1.9,1.9,0,0,1,.74-2.14,7,7,0,0,1-.67-4.53l.37-4.7a2.37,2.37,0,0,0-.14-1.28,2.56,2.56,0,0,0-2.35-1.07" style="fill:none;stroke:#19bc9c;stroke-linecap:round;stroke-linejoin:round"/><path d="M146.07,147.27c-.92.18-1.43,1.16-1.66,2.07-.81,3.3.4,7.06-1.26,10,1,.67,1,2.17.88,3.39a26.34,26.34,0,0,0,.28,6.23,2.59,2.59,0,0,0,.62,1.51,1,1,0,0,0,1.44-.07" style="fill:none;stroke:#19bc9c;stroke-linecap:round;stroke-linejoin:round"/><path d="M62.68,203a98.74,98.74,0,0,0-9.3,18.1" style="fill:none;stroke:#3f555a;stroke-linecap:round;stroke-linejoin:round"/><path d="M78.23,213.83q-1,7.23-2.36,14.41" style="fill:none;stroke:#3f555a;stroke-linecap:round;stroke-linejoin:round"/><path d="M66.17,200.14c-.23.63,0,1.44.83,1.43,1,0,1.6-1.51,1.58-2.36a.84.84,0,0,0-1.27-.68A2.87,2.87,0,0,0,66.17,200.14Z" style="fill:none;stroke:#3f555a;stroke-linecap:round;stroke-linejoin:round"/><path d="M199.77,175.61a16,16,0,0,0-4-4c-.92-.65-2.78-1.43-3.58-.21-1.6,2.43.23,7.21,1.37,9.46,2.19,4.34,5,8.15,7.43,11.84" style="fill:#fff;stroke:#3f555a;stroke-linecap:round;stroke-linejoin:round"/><path d="M200.89,213.83q1,7.23,2.36,14.41" style="fill:none;stroke:#3f555a;stroke-linecap:round;stroke-linejoin:round"/></svg>