<svg id="cleanup" xmlns="http://www.w3.org/2000/svg" viewBox="0 0 280 280"><title>thorough-alignment</title><path d="M81.12,268q-6.21-14.68-11-30.07t-8.06-31.36a326.73,326.73,0,0,1-5-32.5,332.18,332.18,0,0,1,0-66.92,326.73,326.73,0,0,1,5-32.5q3.27-16,8.06-31.36t11-30.07" style="fill:none;stroke:#a1c2d8;stroke-linecap:round;stroke-linejoin:round"/><path d="M140.14,243q-5-11.81-8.85-24.18t-6.49-25.23a262.78,262.78,0,0,1-4-26.14,267.16,267.16,0,0,1,0-53.83,262.78,262.78,0,0,1,4-26.14q2.63-12.85,6.49-25.23t8.85-24.18" style="fill:none;stroke:#a1c2d8;stroke-linecap:round;stroke-linejoin:round"/><path d="M203,216.48q-3.7-8.75-6.56-17.92t-4.81-18.69a194.69,194.69,0,0,1-3-19.36,197.94,197.94,0,0,1,0-39.88,194.69,194.69,0,0,1,3-19.36q1.95-9.52,4.81-18.69T203,64.66" style="fill:none;stroke:#a1c2d8;stroke-linecap:round;stroke-linejoin:round"/><path d="M246.65,198q-2.8-6.62-5-13.56t-3.64-14.15a147.38,147.38,0,0,1-2.24-14.66,149.84,149.84,0,0,1,0-30.19,147.38,147.38,0,0,1,2.24-14.66q1.47-7.21,3.64-14.15t5-13.56" style="fill:none;stroke:#a1c2d8;stroke-linecap:round;stroke-linejoin:round"/><ellipse cx="234.46" cy="140.56" rx="14.52" ry="15.45" style="fill:#19bc9c"/><ellipse cx="185.91" cy="140.56" rx="17.07" ry="18.47" style="fill:#3290c1"/><ellipse cx="117.79" cy="140.56" rx="31.61" ry="33.89" style="fill:#d0e4f1"/><ellipse cx="54.03" cy="140.56" rx="19" ry="20.4" style="fill:#f56f40"/><circle cx="235.39" cy="140.56" r="15.45" style="fill:none;stroke:#3f555a;stroke-linecap:round;stroke-linejoin:round"/><circle cx="187.31" cy="140.56" r="18.47" style="fill:none;stroke:#3f555a;stroke-linecap:round;stroke-linejoin:round"/><circle cx="120.07" cy="140.56" r="33.89" style="fill:none;stroke:#3f555a;stroke-linecap:round;stroke-linejoin:round"/><circle cx="55.43" cy="140.56" r="20.4" style="fill:none;stroke:#3f555a;stroke-linecap:round;stroke-linejoin:round"/><text transform="translate(42.52 141.86)" style="font-size:6px;fill:#fff;font-family:GothamRounded-Medium, Gotham Rounded;letter-spacing:-0.0020345052083333335em">C<tspan x="4.41" y="0" style="letter-spacing:0.017985026041666668em">C M</tspan><tspan x="16.17" y="0" style="letter-spacing:0.013102213541666666em">a</tspan><tspan x="19.77" y="0" style="letter-spacing:0.017985026041666668em">th</tspan></text><text transform="translate(183.07 139.29)" style="font-size:6px;fill:#fff;font-family:GothamRounded-Medium, Gotham Rounded;letter-spacing:-0.022054036458333332em">C<tspan x="4.29" y="0" style="letter-spacing:-0.001953125em">C</tspan><tspan style="letter-spacing:-0.0020345052083333335em"><tspan x="-7.7" y="6">Li</tspan><tspan x="-2.3" y="6" style="letter-spacing:-0.017171223958333332em">t</tspan><tspan x="0.06" y="6" style="letter-spacing:-0.001953125em">e</tspan><tspan x="3.67" y="6" style="letter-spacing:-0.026936848958333332em">r</tspan><tspan x="5.99" y="6" style="letter-spacing:-0.001953125em">a</tspan><tspan x="9.5" y="6" style="letter-spacing:-0.003987630208333333em">c</tspan><tspan x="12.9" y="6">y</tspan></tspan></text><text transform="translate(223.46 142.29)" style="font-size:6px;fill:#fff;font-family:GothamRounded-Medium, Gotham Rounded;letter-spacing:-0.0419921875em">Bloom´s</text><text transform="translate(107.26 142.86)" style="font-size:8px;fill:#1e6b96;font-family:GothamRounded-Medium, Gotham Rounded;letter-spacing:0.08001708984375em">NG<tspan x="13.87" y="0" style="letter-spacing:0.07025146484375em">S</tspan><tspan x="19.54" y="0">S</tspan></text><path d="M55.43,65.36c-8,0-8,10.41-8,10.41s.07-8.38-8-10.41c6.56-1.85,8-10.07,8-10.07S48.57,64,55.43,65.36Z" style="fill:none;stroke:#a1c2d8;stroke-linecap:round;stroke-linejoin:round"/><path d="M92.46,222.5c-5.57,0-5.57,7.26-5.57,7.26s0-5.84-5.57-7.26c4.58-1.29,5.57-7,5.57-7S87.67,221.53,92.46,222.5Z" style="fill:none;stroke:#a1c2d8;stroke-linecap:round;stroke-linejoin:round"/><path d="M176,214.32c-7.54,0-7.54,12.84-7.54,12.84s.07-10.92-7.54-12.84c6.2-1.75,7.54-11.77,7.54-11.77S169.53,213,176,214.32Z" style="fill:none;stroke:#a1c2d8;stroke-linecap:round;stroke-linejoin:round"/><line x1="166.62" y1="59.89" x2="166.62" y2="67.55" style="fill:none;stroke:#a1c2d8;stroke-linecap:round;stroke-linejoin:round"/><line x1="166.62" y1="73.23" x2="166.62" y2="80.89" style="fill:none;stroke:#a1c2d8;stroke-linecap:round;stroke-linejoin:round"/><line x1="159.77" y1="70.39" x2="163.78" y2="70.39" style="fill:none;stroke:#a1c2d8;stroke-linecap:round;stroke-linejoin:round"/><line x1="169.46" y1="70.39" x2="173.47" y2="70.39" style="fill:none;stroke:#a1c2d8;stroke-linecap:round;stroke-linejoin:round"/><circle cx="102.12" cy="57.56" r="1.13" style="fill:#a1c2d8"/><circle cx="81.12" cy="95.39" r="1.13" style="fill:#a1c2d8"/><circle cx="150.54" cy="93.48" r="1.13" style="fill:#a1c2d8"/><circle cx="24.44" cy="101.18" r="1.13" style="fill:#a1c2d8"/><circle cx="46.32" cy="230.47" r="1.13" style="fill:#a1c2d8"/><circle cx="88.02" cy="190" r="1.13" style="fill:#a1c2d8"/><circle cx="108.87" cy="202.9" r="1.13" style="fill:#a1c2d8"/><circle cx="226" cy="204.52" r="1.13" style="fill:#a1c2d8"/><circle cx="226" cy="95.39" r="1.13" style="fill:#a1c2d8"/><circle cx="163.78" cy="173.05" r="1.13" style="fill:#a1c2d8"/><path d="M203.66,149.09c3.39,8.3,3.78,15.15.38,17.6-5.31,3.83-17.85-4.48-28-18.56s-14.09-28.61-8.78-32.44c3.53-2.55,10.26.27,17.36,6.59" style="fill:none;stroke:#3f555a;stroke-linecap:round;stroke-linejoin:round"/></svg>