<svg id="cleanup" xmlns="http://www.w3.org/2000/svg" viewBox="0 0 280 280"><title>updated-curricula</title><polygon points="114.77 163.32 93.06 163.32 93.06 168.35 114.77 165.35 114.77 163.32" style="fill:#d0e4f1"/><path d="M188.69,73h-17l-65,47.06,2.35,3.24L124,112.49v24h2l1.47,1.36L183.85,77h4.85ZM128,131.35V110.58h19.26Zm21.69-24.77H132.13l17.52-12.69Zm4-2.94V92h10.82ZM167.05,88h-9.23l9.23-6.69Zm4-3.1V78.38L173,77h5.36Z" style="fill:none;stroke:#3f555a;stroke-linecap:round;stroke-linejoin:round"/><path d="M113.34,122.26H71.88v-2.91a6,6,0,0,1,6-6h22.46a6,6,0,0,1,3.81,1.36Z" style="fill:#ffdf00;stroke:#3f555a;stroke-linecap:round;stroke-linejoin:round"/><path d="M137.43,144.88v12.43a6,6,0,0,1-6,6H77.88a6,6,0,0,1-6-6V141.74h64.66A6,6,0,0,1,137.43,144.88Z" style="fill:#ffdf00;stroke:#3f555a;stroke-linecap:round;stroke-linejoin:round"/><path d="M77.37,195.37a11.76,11.76,0,0,1,0-23.52H130a11.76,11.76,0,0,1,0,23.52Z" style="fill:none;stroke:#3f555a;stroke-linecap:round;stroke-linejoin:round;stroke-dasharray:4.920538902282715,1.9682154655456543"/><rect x="66.11" y="172.35" width="75.15" height="22.52" rx="11.26" ry="11.26" style="fill:none;stroke:#3f555a;stroke-linecap:round;stroke-linejoin:round"/><path d="M77.37,191.87a8.26,8.26,0,0,1,0-16.52H130a8.26,8.26,0,0,1,0,16.52Z" style="fill:#d0e4f1;stroke:#3f555a;stroke-linecap:round;stroke-linejoin:round"/><line x1="48.35" y1="195.44" x2="228.88" y2="195.44" style="fill:none;stroke:#3f555a;stroke-linecap:round;stroke-linejoin:round"/><circle cx="77.58" cy="183.61" r="3.63" style="fill:none;stroke:#3f555a;stroke-linecap:round;stroke-linejoin:round"/><circle cx="77.58" cy="183.61" r="1.63" style="fill:none;stroke:#3f555a;stroke-linecap:round;stroke-linejoin:round;stroke-dasharray:0,2.0405542850494385"/><circle cx="94.98" cy="183.61" r="3.63" style="fill:none;stroke:#3f555a;stroke-linecap:round;stroke-linejoin:round"/><circle cx="94.98" cy="183.61" r="1.63" style="fill:none;stroke:#3f555a;stroke-linecap:round;stroke-linejoin:round;stroke-dasharray:0,2.0405542850494385"/><circle cx="112.38" cy="183.61" r="3.63" style="fill:none;stroke:#3f555a;stroke-linecap:round;stroke-linejoin:round"/><circle cx="112.38" cy="183.61" r="1.63" style="fill:none;stroke:#3f555a;stroke-linecap:round;stroke-linejoin:round;stroke-dasharray:0,2.0405542850494385"/><circle cx="129.78" cy="183.61" r="3.63" style="fill:none;stroke:#3f555a;stroke-linecap:round;stroke-linejoin:round"/><circle cx="129.78" cy="183.61" r="1.63" style="fill:none;stroke:#3f555a;stroke-linecap:round;stroke-linejoin:round;stroke-dasharray:0,2.0405542850494385"/><rect x="93.06" y="163.32" width="21.71" height="9.03" style="fill:none;stroke:#3f555a;stroke-linecap:round;stroke-linejoin:round"/><line x1="77.23" y1="151.25" x2="86.76" y2="151.25" style="fill:none;stroke:#3f555a;stroke-linecap:round;stroke-linejoin:round"/><line x1="77.23" y1="154.14" x2="86.76" y2="154.14" style="fill:none;stroke:#3f555a;stroke-linecap:round;stroke-linejoin:round"/><line x1="77.23" y1="157.03" x2="86.76" y2="157.03" style="fill:none;stroke:#3f555a;stroke-linecap:round;stroke-linejoin:round"/><path d="M71.88,141.74H83.19c-3.8-6.4-7.31-12.95-11.31-19.25Z" style="fill:#d0e4f1"/><path d="M71.88,122.26v.23c4,6.3,7.51,12.85,11.31,19.25H93.72a227,227,0,0,1-12.54-19.48Z" style="fill:#fff"/><path d="M118,141.74q-7.82-9.47-15.11-19.48H95.55A226.6,226.6,0,0,0,109,141.74Z" style="fill:#fff"/><path d="M95.55,122.26H81.18a227,227,0,0,0,12.54,19.48H109A226.6,226.6,0,0,1,95.55,122.26Z" style="fill:#d0e4f1"/><path d="M136.54,141.74a5.94,5.94,0,0,0-1.3-1.49l-21.9-18H102.92q7.28,10,15.11,19.48Z" style="fill:#d0e4f1"/><path d="M135.42,147.4h2a0,0,0,0,1,0,0v8.26a0,0,0,0,1,0,0h-2a4,4,0,0,1-4-4v-.26A4,4,0,0,1,135.42,147.4Z" style="fill:none;stroke:#3f555a;stroke-linecap:round;stroke-linejoin:round"/><path d="M136.54,141.74H71.88V122.26h41.46l21.9,18A5.94,5.94,0,0,1,136.54,141.74Z" style="fill:none;stroke:#3f555a;stroke-linecap:round;stroke-linejoin:round"/><line x1="186.33" y1="76.95" x2="186.33" y2="103.56" style="fill:none;stroke:#3f555a;stroke-linecap:round;stroke-linejoin:round"/><line x1="186.33" y1="103.56" x2="172.05" y2="125.77" style="fill:none;stroke:#3f555a;stroke-linecap:round;stroke-linejoin:round"/><line x1="186.33" y1="103.56" x2="200.6" y2="125.77" style="fill:none;stroke:#3f555a;stroke-linecap:round;stroke-linejoin:round"/><path d="M205.42,125.77H185s6,4.72,0,11.37h20.41C211.46,130.49,205.42,125.77,205.42,125.77Z" style="fill:#19bc9c;stroke:#3f555a;stroke-linecap:round;stroke-linejoin:round"/><path d="M185,137.14H167.1a1,1,0,0,1-.82-1.56c2.42-3.62,1.35-6.54.19-8.22a1,1,0,0,1,.81-1.58H185S191,130.49,185,137.14Z" style="fill:none;stroke:#3f555a;stroke-linecap:round;stroke-linejoin:round"/><line x1="171.18" y1="129.86" x2="180.56" y2="129.86" style="fill:none;stroke:#3f555a;stroke-linecap:round;stroke-linejoin:round"/><line x1="172.98" y1="133.19" x2="180.17" y2="133.19" style="fill:none;stroke:#3f555a;stroke-linecap:round;stroke-linejoin:round"/><path d="M188,137.14c6-6.65,0-11.37,0-11.37" style="fill:none;stroke:#3f555a;stroke-linecap:round;stroke-linejoin:round"/><path d="M202.42,137.14c6-6.65,0-11.37,0-11.37" style="fill:none;stroke:#3f555a;stroke-linecap:round;stroke-linejoin:round"/><path d="M206.66,182.62H186.25s6,5.32,0,12.81h20.41C212.7,187.94,206.66,182.62,206.66,182.62Z" style="fill:#f56f40;stroke:#3f555a;stroke-linecap:round;stroke-linejoin:round"/><path d="M186.25,195.44h-18a1,1,0,0,1-.85-1.51c2.72-4.37,1.42-7.86.19-9.75a1,1,0,0,1,.83-1.55h17.85S192.29,187.94,186.25,195.44Z" style="fill:none;stroke:#3f555a;stroke-linecap:round;stroke-linejoin:round"/><line x1="172.42" y1="187.23" x2="181.8" y2="187.23" style="fill:none;stroke:#3f555a;stroke-linecap:round;stroke-linejoin:round"/><line x1="174.22" y1="190.98" x2="181.41" y2="190.98" style="fill:none;stroke:#3f555a;stroke-linecap:round;stroke-linejoin:round"/><path d="M189.25,195.44c6-7.49,0-12.81,0-12.81" style="fill:none;stroke:#3f555a;stroke-linecap:round;stroke-linejoin:round"/><path d="M203.66,195.44c6-7.49,0-12.81,0-12.81" style="fill:none;stroke:#3f555a;stroke-linecap:round;stroke-linejoin:round"/><path d="M210.65,169.81H190.24s6,5.32,0,12.81h20.41C216.69,175.13,210.65,169.81,210.65,169.81Z" style="fill:#3290c1;stroke:#3f555a;stroke-linecap:round;stroke-linejoin:round"/><path d="M190.24,182.62h-18a1,1,0,0,1-.85-1.51c2.72-4.37,1.42-7.86.19-9.75a1,1,0,0,1,.83-1.55h17.85S196.28,175.13,190.24,182.62Z" style="fill:none;stroke:#3f555a;stroke-linecap:round;stroke-linejoin:round"/><line x1="176.41" y1="174.42" x2="185.79" y2="174.42" style="fill:none;stroke:#3f555a;stroke-linecap:round;stroke-linejoin:round"/><line x1="178.22" y1="178.17" x2="185.4" y2="178.17" style="fill:none;stroke:#3f555a;stroke-linecap:round;stroke-linejoin:round"/><path d="M193.24,182.62c6-7.49,0-12.81,0-12.81" style="fill:none;stroke:#3f555a;stroke-linecap:round;stroke-linejoin:round"/><path d="M207.65,182.62c6-7.49,0-12.81,0-12.81" style="fill:none;stroke:#3f555a;stroke-linecap:round;stroke-linejoin:round"/></svg>