<svg width="184" height="174" viewBox="0 0 184 174" fill="none" xmlns="http://www.w3.org/2000/svg">
<path d="M162.68 0.679993H27.42V82.33H162.68V0.679993Z" stroke="#E7F1F8" stroke-miterlimit="10"/>
<path d="M156.96 76.62V6.40997L33.15 6.40997V76.62L156.96 76.62Z" stroke="#E7F1F8" stroke-miterlimit="10"/>
<path d="M97.71 76.62V6.40997H92.39V76.62H97.71Z" stroke="#E7F1F8" stroke-miterlimit="10"/>
<path d="M129.53 76.61V6.40002H124.21V76.61H129.53Z" stroke="#E7F1F8" stroke-miterlimit="10"/>
<path d="M64.29 76.61V6.40002H58.97L58.97 76.61H64.29Z" stroke="#E7F1F8" stroke-miterlimit="10"/>
<path d="M174 108.93C171.14 106.07 178.77 103.21 179.72 99.39C180.98 96.44 179.45 94.61 176.86 93.48H5.74C4.91437 95.0304 4.40774 96.7305 4.25 98.48C4.25 108.29 9.61 120.48 4.25 128.93H180C182 122.54 180.26 115.17 174 108.93Z" fill="#E7F1F8"/>
<path d="M154.19 128.89V109.58" stroke="#3F555A" stroke-linecap="round" stroke-linejoin="round"/>
<path d="M41.63 90.51C42.3626 90.5455 43.0795 90.29 43.6245 89.7993C44.1696 89.3085 44.4987 88.6223 44.54 87.89V70.89C44.5503 70.722 44.6264 70.5648 44.7519 70.4525C44.8773 70.3402 45.0419 70.2818 45.21 70.29V70.29C45.3782 70.2982 45.5428 70.2398 45.6682 70.1275C45.7936 70.0152 45.8697 69.858 45.88 69.69V69.39C45.8697 69.222 45.7936 69.0648 45.6682 68.9525C45.5428 68.8402 45.3782 68.7818 45.21 68.79H38C37.8319 68.7818 37.6673 68.8402 37.5419 68.9525C37.4164 69.0648 37.3403 69.222 37.33 69.39V69.69C37.3403 69.858 37.4164 70.0152 37.5419 70.1275C37.6673 70.2398 37.8319 70.2982 38 70.29V70.29C38.1682 70.2818 38.3328 70.3402 38.4582 70.4525C38.5836 70.5648 38.6597 70.722 38.67 70.89V87.89C38.7114 88.6223 39.0404 89.3085 39.5855 89.7993C40.1305 90.29 40.8474 90.5455 41.58 90.51H41.63Z" fill="white" stroke="#3F555A" stroke-linecap="round" stroke-linejoin="round"/>
<path d="M41.63 88.84C41.4987 88.8468 41.3673 88.8275 41.2433 88.7834C41.1194 88.7393 41.0054 88.6711 40.9079 88.5829C40.8104 88.4946 40.7312 88.388 40.6749 88.2691C40.6187 88.1502 40.5864 88.0214 40.58 87.89V78.65H42.69V87.89C42.6836 88.0223 42.6511 88.152 42.5942 88.2716C42.5373 88.3911 42.4572 88.4982 42.3586 88.5866C42.26 88.675 42.1448 88.7429 42.0197 88.7864C41.8947 88.8299 41.7622 88.8481 41.63 88.84Z" fill="#F56F40" stroke="#F56F40" stroke-linecap="round" stroke-linejoin="round"/>
<path d="M30.35 90.51C31.0825 90.5455 31.7994 90.29 32.3445 89.7993C32.8896 89.3085 33.2186 88.6223 33.26 87.89V70.89C33.2703 70.722 33.3464 70.5648 33.4718 70.4525C33.5972 70.3402 33.7618 70.2818 33.93 70.29V70.29C34.0981 70.2982 34.2627 70.2398 34.3881 70.1275C34.5135 70.0152 34.5896 69.858 34.6 69.69V69.39C34.5896 69.222 34.5135 69.0648 34.3881 68.9525C34.2627 68.8402 34.0981 68.7818 33.93 68.79H26.76C26.5918 68.7818 26.4272 68.8402 26.3018 68.9525C26.1764 69.0648 26.1003 69.222 26.09 69.39V69.69C26.1003 69.858 26.1764 70.0152 26.3018 70.1275C26.4272 70.2398 26.5918 70.2982 26.76 70.29V70.29C26.9281 70.2818 27.0927 70.3402 27.2181 70.4525C27.3435 70.5648 27.4196 70.722 27.43 70.89V87.89C27.4713 88.6223 27.8004 89.3085 28.3454 89.7993C28.8905 90.29 29.6074 90.5455 30.34 90.51H30.35Z" fill="white" stroke="#3F555A" stroke-linecap="round" stroke-linejoin="round"/>
<path d="M30.35 88.84C30.2186 88.8468 30.0872 88.8275 29.9633 88.7834C29.8394 88.7393 29.7254 88.6711 29.6279 88.5829C29.5303 88.4946 29.4512 88.388 29.3949 88.2691C29.3386 88.1502 29.3064 88.0214 29.3 87.89V78.65H31.4V87.89C31.3936 88.0214 31.3613 88.1502 31.3051 88.2691C31.2488 88.388 31.1696 88.4946 31.0721 88.5829C30.9745 88.6711 30.8606 88.7393 30.7366 88.7834C30.6127 88.8275 30.4813 88.8468 30.35 88.84Z" fill="#19BC9C" stroke="#19BC9C" stroke-linecap="round" stroke-linejoin="round"/>
<path d="M19.07 90.51C19.8059 90.5509 20.528 90.2979 21.0774 89.8066C21.6269 89.3153 21.9587 88.6259 22 87.89V70.89C22.0103 70.722 22.0864 70.5648 22.2118 70.4525C22.3372 70.3402 22.5018 70.2818 22.67 70.29V70.29C22.8381 70.2982 23.0027 70.2398 23.1281 70.1275C23.2536 70.0152 23.3297 69.858 23.34 69.69V69.39C23.3297 69.222 23.2536 69.0648 23.1281 68.9525C23.0027 68.8402 22.8381 68.7818 22.67 68.79H15.47C15.3018 68.7818 15.1372 68.8402 15.0118 68.9525C14.8864 69.0648 14.8103 69.222 14.8 69.39V69.69C14.8103 69.858 14.8864 70.0152 15.0118 70.1275C15.1372 70.2398 15.3018 70.2982 15.47 70.29V70.29C15.6381 70.2818 15.8027 70.3402 15.9282 70.4525C16.0536 70.5648 16.1297 70.722 16.14 70.89V87.89C16.1813 88.6223 16.5104 89.3085 17.0555 89.7993C17.6005 90.29 18.3174 90.5455 19.05 90.51H19.07Z" fill="white" stroke="#3F555A" stroke-linecap="round" stroke-linejoin="round"/>
<path d="M19.07 88.84C18.9387 88.8468 18.8073 88.8275 18.6834 88.7834C18.5594 88.7393 18.4455 88.6711 18.3479 88.5829C18.2504 88.4946 18.1712 88.388 18.115 88.2691C18.0587 88.1502 18.0264 88.0214 18.02 87.89V78.65H20.13V87.89C20.1236 88.0223 20.0911 88.152 20.0342 88.2716C19.9773 88.3911 19.8972 88.4982 19.7986 88.5866C19.7 88.675 19.5848 88.7429 19.4597 88.7864C19.3347 88.8299 19.2022 88.8481 19.07 88.84Z" fill="#F56F40" stroke="#F56F40" stroke-linecap="round" stroke-linejoin="round"/>
<path d="M21.32 56.82C22.9769 56.82 24.32 55.4769 24.32 53.82C24.32 52.1632 22.9769 50.82 21.32 50.82C19.6632 50.82 18.32 52.1632 18.32 53.82C18.32 55.4769 19.6632 56.82 21.32 56.82Z" fill="white" stroke="#3F555A" stroke-linecap="round" stroke-linejoin="round"/>
<path d="M31.75 51.6C32.5232 51.6 33.15 50.9732 33.15 50.2C33.15 49.4268 32.5232 48.8 31.75 48.8C30.9768 48.8 30.35 49.4268 30.35 50.2C30.35 50.9732 30.9768 51.6 31.75 51.6Z" fill="white" stroke="#3F555A" stroke-linecap="round" stroke-linejoin="round"/>
<path d="M39.13 61.82C40.5107 61.82 41.63 60.7007 41.63 59.32C41.63 57.9393 40.5107 56.82 39.13 56.82C37.7493 56.82 36.63 57.9393 36.63 59.32C36.63 60.7007 37.7493 61.82 39.13 61.82Z" fill="white" stroke="#3F555A" stroke-linecap="round" stroke-linejoin="round"/>
<path d="M29.14 62.63C29.8083 62.63 30.35 62.0883 30.35 61.42C30.35 60.7518 29.8083 60.21 29.14 60.21C28.4717 60.21 27.93 60.7518 27.93 61.42C27.93 62.0883 28.4717 62.63 29.14 62.63Z" fill="white" stroke="#3F555A" stroke-linecap="round" stroke-linejoin="round"/>
<path d="M17.76 64.14C18.3565 64.14 18.84 63.6564 18.84 63.06C18.84 62.4635 18.3565 61.98 17.76 61.98C17.1635 61.98 16.68 62.4635 16.68 63.06C16.68 63.6564 17.1635 64.14 17.76 64.14Z" fill="white" stroke="#3F555A" stroke-linecap="round" stroke-linejoin="round"/>
<path d="M50.81 93.49V75.54C50.81 74.9114 50.5603 74.3086 50.1158 73.8641C49.6714 73.4197 49.0686 73.17 48.44 73.17H12.18C11.5514 73.17 10.9486 73.4197 10.5042 73.8641C10.0597 74.3086 9.81 74.9114 9.81 75.54V93.48H12.51V75.94C12.51 75.7835 12.5722 75.6334 12.6828 75.5228C12.7935 75.4122 12.9435 75.35 13.1 75.35H47.66C47.8165 75.35 47.9665 75.4122 48.0772 75.5228C48.1878 75.6334 48.25 75.7835 48.25 75.94V93.49H50.81Z" fill="white" stroke="#3F555A" stroke-linecap="round" stroke-linejoin="round"/>
<path d="M2.57001 93.49H180.21" stroke="#3F555A" stroke-linecap="round" stroke-linejoin="round"/>
<path d="M2.57001 103.03H180.21" stroke="#3F555A" stroke-linecap="round" stroke-linejoin="round"/>
<path d="M157.6 173.04L126.61 172.93L121.2 144.71L147.42 144.8L157.6 173.04Z" fill="white" stroke="#3F555A" stroke-linecap="round" stroke-linejoin="round"/>
<path d="M128.97 150.77L142.41 150.81" stroke="#3F555A" stroke-linecap="round" stroke-linejoin="round"/>
<path d="M130.38 156.18L143.81 156.22" stroke="#3F555A" stroke-linecap="round" stroke-linejoin="round"/>
<path d="M130.82 161.58L146.17 161.63" stroke="#3F555A" stroke-linecap="round" stroke-linejoin="round"/>
<path d="M130.31 166.98L149.48 167.05" stroke="#3F555A" stroke-linecap="round" stroke-linejoin="round"/>
<path d="M157.23 61C162.76 101.92 117.72 97.55 117.72 97.55L115.53 88.19C115.53 88.19 146.73 96.29 147.46 62.45L157.23 61Z" fill="white" stroke="#3F555A" stroke-linecap="round" stroke-linejoin="round"/>
<path d="M122.53 92.61C122.915 93.8649 123.051 95.1829 122.93 96.49" stroke="#C3D4E0" stroke-linecap="round" stroke-linejoin="round"/>
<path d="M128.33 91.94C128.715 93.195 128.851 94.513 128.73 95.82" stroke="#C3D4E0" stroke-linecap="round" stroke-linejoin="round"/>
<path d="M134.95 89.79C135.606 90.9262 136.034 92.1797 136.21 93.48" stroke="#C3D4E0" stroke-linecap="round" stroke-linejoin="round"/>
<path d="M147.57 81.47C148.719 82.085 149.738 82.917 150.57 83.92" stroke="#C3D4E0" stroke-linecap="round" stroke-linejoin="round"/>
<path d="M150 75.95C151.265 76.3106 152.447 76.9153 153.48 77.73" stroke="#C3D4E0" stroke-linecap="round" stroke-linejoin="round"/>
<path d="M150.9 70.59C152.212 70.5473 153.52 70.7613 154.75 71.22" stroke="#C3D4E0" stroke-linecap="round" stroke-linejoin="round"/>
<path d="M151.57 65.35C152.88 65.2281 154.202 65.364 155.46 65.75" stroke="#C3D4E0" stroke-linecap="round" stroke-linejoin="round"/>
<path d="M121 128.89C119.69 95.58 118.72 90.95 113.79 84.55C107.19 76 94.3 76.28 84.66 80.98C69.66 88.29 76.66 114.68 83.07 128.89" fill="#3290C1"/>
<path d="M121 128.89C119.69 95.58 118.72 90.95 113.79 84.55C107.19 76 94.3 76.28 84.66 80.98C69.66 88.29 76.66 114.68 83.07 128.89" stroke="#3F555A" stroke-linecap="round" stroke-linejoin="round"/>
<path d="M96.11 70.79C96.11 70.79 98.32 77.59 97.54 78.79C96.5288 80.098 95.0741 80.9908 93.45 81.3C91.63 81.76 89.45 81.77 88.16 80.41C86.87 79.05 86.62 73.52 86.71 71.75" fill="white"/>
<path d="M96.11 70.79C96.11 70.79 98.32 77.59 97.54 78.79C96.5288 80.098 95.0741 80.9908 93.45 81.3C91.63 81.76 89.45 81.77 88.16 80.41C86.87 79.05 86.62 73.52 86.71 71.75" stroke="#3F555A" stroke-linecap="round" stroke-linejoin="round"/>
<path d="M127.79 98.56C121.08 102.15 113.95 105.63 106.9 105.44C103.857 105.293 100.879 104.499 98.1671 103.111C95.4547 101.723 93.0693 99.7725 91.17 97.39C89.17 94.95 85.74 93.57 83.17 95.39C80.03 97.68 81.06 99.66 81.06 99.66C83.6612 104.219 87.3774 108.043 91.8602 110.773C96.343 113.503 101.446 115.051 106.69 115.27C116.05 115.52 124.48 111.45 132.31 107.27L127.79 98.56Z" fill="white" stroke="#3F555A" stroke-linecap="round" stroke-linejoin="round"/>
<path d="M91.06 104.39C90.3168 105.473 89.369 106.4 88.27 107.12" stroke="#C3D4E0" stroke-linecap="round" stroke-linejoin="round"/>
<path d="M97.54 109.44C97.5828 110.237 97.4461 111.033 97.14 111.77" stroke="#C3D4E0" stroke-linecap="round" stroke-linejoin="round"/>
<path d="M105.31 111.45C105.577 112.358 105.686 113.305 105.63 114.25" stroke="#C3D4E0" stroke-linecap="round" stroke-linejoin="round"/>
<path d="M113.85 110.76L114.64 113.12" stroke="#C3D4E0" stroke-linecap="round" stroke-linejoin="round"/>
<path d="M122.25 108.5C122.735 109.11 123.076 109.821 123.25 110.58" stroke="#C3D4E0" stroke-linecap="round" stroke-linejoin="round"/>
<path d="M70.0001 44.53C67.5341 43.6303 65.4088 41.9865 63.9182 39.8258C62.4276 37.6652 61.6455 35.0947 61.6801 32.47C61.6765 30.5078 62.3632 28.6068 63.6201 27.1C64.793 25.9087 66.2811 25.0762 67.9101 24.7C71.8443 23.7551 75.9825 24.1711 79.65 25.88C83.3048 27.5986 86.5868 30.0176 89.3101 33C91.8959 35.5594 93.9726 38.5863 95.43 41.92" fill="#F56F40"/>
<path d="M70.0001 44.53C67.5341 43.6303 65.4088 41.9865 63.9182 39.8258C62.4276 37.6652 61.6455 35.0947 61.6801 32.47C61.6765 30.5078 62.3632 28.6068 63.6201 27.1C64.793 25.9087 66.2811 25.0762 67.9101 24.7C71.8443 23.7551 75.9825 24.1711 79.65 25.88C83.3048 27.5986 86.5868 30.0176 89.3101 33C91.8959 35.5594 93.9726 38.5863 95.43 41.92" stroke="#D65129" stroke-linecap="round" stroke-linejoin="round"/>
<path d="M75 44.27C75.4604 40.8591 76.1283 37.4795 77 34.15C77.2692 32.9117 77.7173 31.7192 78.33 30.61C81.7 25.06 90.61 24.75 95.96 27.26C98.592 28.484 100.841 30.4009 102.467 32.8054C104.093 35.21 105.034 38.0115 105.19 40.91" fill="#F56F40"/>
<path d="M83.0701 27C85.4299 26.022 87.9895 25.6232 90.535 25.8369C93.0804 26.0507 95.5377 26.8708 97.7013 28.2287C99.8649 29.5866 101.672 31.4428 102.971 33.6421C104.271 35.8413 105.025 38.3197 105.17 40.87" stroke="#D65129" stroke-linecap="round" stroke-linejoin="round"/>
<path d="M70.0001 44.53C67.5341 43.6303 65.4088 41.9865 63.9182 39.8258C62.4276 37.6652 61.6455 35.0947 61.6801 32.47C61.6765 30.5078 62.3632 28.6068 63.6201 27.1C64.793 25.9087 66.2811 25.0762 67.9101 24.7C71.8443 23.7551 75.9825 24.1711 79.65 25.88C83.3048 27.5986 86.5868 30.0176 89.3101 33C91.8959 35.5594 93.9726 38.5863 95.43 41.92" stroke="#D65129" stroke-linecap="round" stroke-linejoin="round"/>
<path d="M110.614 69.3458C113.659 69.0414 115.501 62.5399 114.73 54.8242C113.959 47.1086 110.865 41.1007 107.821 41.4051C104.776 41.7095 102.934 48.211 103.705 55.9266C104.476 63.6422 107.57 69.6502 110.614 69.3458Z" fill="white" stroke="#3F555A" stroke-linecap="round" stroke-linejoin="round"/>
<path d="M65.91 45.6C62.91 45.9 61.03 52.4 61.8 60.12C62.57 67.84 65.66 73.84 68.7 73.54L110.61 69.35C107.61 69.65 104.48 63.65 103.71 55.93C102.94 48.21 104.78 41.72 107.82 41.41C107.82 41.41 99.66 41.46 85.23 42.91C70.8 44.36 65.91 45.6 65.91 45.6Z" fill="white" stroke="#3F555A" stroke-linecap="round" stroke-linejoin="round"/>
<path d="M96.35 62C95.5186 60.0905 95.1158 58.022 95.17 55.94" stroke="#3F555A" stroke-linecap="round" stroke-linejoin="round"/>
<path d="M79.0601 64.37L80.8001 60.93L83.3201 63.93L79.0601 64.39" fill="#F56F40"/>
<path d="M79.0601 64.37L80.8001 60.93L83.3201 63.93L79.0601 64.39" stroke="#D65129" stroke-linecap="round" stroke-linejoin="round"/>
<path d="M78.1899 68.44C82.7799 70.33 87.3599 67.53 87.3599 67.53" stroke="#3F555A" stroke-linecap="round" stroke-linejoin="round"/>
<path d="M93.53 53.3C93.8848 53.0548 94.2918 52.8956 94.7188 52.8348C95.1457 52.7741 95.5809 52.8135 95.99 52.95" stroke="#3F555A" stroke-linecap="round" stroke-linejoin="round"/>
<path d="M68.6101 64.19C67.7909 62.2743 67.4018 60.2023 67.4701 58.12" stroke="#3F555A" stroke-linecap="round" stroke-linejoin="round"/>
<path d="M65.85 55.44C66.2064 55.1982 66.6142 55.0425 67.0411 54.9853C67.468 54.928 67.9024 54.9707 68.31 55.11" stroke="#3F555A" stroke-linecap="round" stroke-linejoin="round"/>
<path d="M53.4194 64.3425C55.0405 64.1804 56.2233 62.7348 56.0612 61.1136C55.8991 59.4925 54.4535 58.3097 52.8323 58.4718C51.2112 58.6339 50.0284 60.0795 50.1905 61.7006C50.3526 63.3218 51.7982 64.5046 53.4194 64.3425Z" fill="#F56F40" stroke="#D65129" stroke-linecap="round" stroke-linejoin="round"/>
<path d="M54.75 61.34L61.8 60.63" stroke="#3F555A" stroke-linecap="round" stroke-linejoin="round"/>
<path d="M121 54.61L110.47 55.66" stroke="#3F555A" stroke-linecap="round" stroke-linejoin="round"/>
<path d="M122.361 57.3471C123.982 57.185 125.165 55.7394 125.003 54.1183C124.841 52.4971 123.395 51.3143 121.774 51.4764C120.153 51.6385 118.97 53.0841 119.132 54.7053C119.294 56.3264 120.74 57.5092 122.361 57.3471Z" fill="#F56F40" stroke="#D65129" stroke-linecap="round" stroke-linejoin="round"/>
<path d="M163.76 100.34L148.21 89.18L142.58 75.34C142.915 75.132 143.164 74.8111 143.283 74.4352C143.401 74.0594 143.382 73.6535 143.227 73.2909C143.072 72.9284 142.793 72.6332 142.439 72.4588C142.086 72.2844 141.682 72.2423 141.3 72.34L133.7 75.43C133.313 75.6031 133.008 75.9185 132.847 76.3108C132.686 76.703 132.683 77.1421 132.837 77.5369C132.991 77.9317 133.292 78.252 133.676 78.4313C134.06 78.6106 134.498 78.6352 134.9 78.5L140.53 92.34L137.18 111.18C137.063 111.845 137.126 112.528 137.362 113.16C137.599 113.792 138 114.35 138.525 114.774C139.049 115.199 139.678 115.475 140.345 115.574C141.013 115.674 141.694 115.593 142.32 115.34L162.97 106.94C163.603 106.689 164.156 106.272 164.572 105.732C164.987 105.193 165.249 104.551 165.33 103.875C165.411 103.199 165.308 102.514 165.032 101.892C164.755 101.269 164.316 100.733 163.76 100.34V100.34Z" fill="white" stroke="#3F555A" stroke-linecap="round" stroke-linejoin="round"/>
<path d="M140.88 111.73L161.4 103.39L154.14 98.18C150.28 100.07 146.42 102 142.37 103.69L140.88 111.73Z" fill="#F56F40" stroke="#F56F40" stroke-linecap="round" stroke-linejoin="round"/>
<path d="M134.74 96.25C136.958 94.7244 139.3 93.3865 141.74 92.25C143.49 91.43 145.65 90.76 147.22 91.88C147.75 92.3025 148.194 92.8217 148.53 93.41C149.257 94.4537 149.773 95.6289 150.05 96.87C150.185 97.4916 150.184 98.135 150.048 98.7563C149.912 99.3776 149.643 99.9621 149.26 100.47C148.842 100.923 148.36 101.314 147.83 101.63C145.223 103.35 142.557 104.943 139.83 106.41C138.37 107.19 135.46 108.88 133.83 108.55C132.511 108.119 131.401 107.209 130.72 106C129.294 103.953 128.15 101.723 127.32 99.37C127.082 98.7855 126.956 98.1612 126.95 97.53C127.01 96.23 131.38 93.21 132.43 92.47C133.91 91.47 138.54 89.23 139.43 89.47L140.59 92.33" fill="white"/>
<path d="M134.74 96.25C136.958 94.7244 139.3 93.3865 141.74 92.25C143.49 91.43 145.65 90.76 147.22 91.88C147.75 92.3025 148.194 92.8217 148.53 93.41C149.257 94.4537 149.773 95.6289 150.05 96.87C150.185 97.4916 150.184 98.135 150.048 98.7563C149.912 99.3776 149.643 99.9621 149.26 100.47C148.842 100.923 148.36 101.314 147.83 101.63C145.223 103.35 142.557 104.943 139.83 106.41C138.37 107.19 135.46 108.88 133.83 108.55C132.511 108.119 131.401 107.209 130.72 106C129.294 103.953 128.15 101.723 127.32 99.37C127.082 98.7855 126.956 98.1612 126.95 97.53C127.01 96.23 131.38 93.21 132.43 92.47C133.91 91.47 138.54 89.23 139.43 89.47L140.59 92.33" stroke="#3F555A" stroke-linecap="round" stroke-linejoin="round"/>
<path d="M135.42 65.86L137.06 65.62C137.259 65.5903 137.438 65.4832 137.558 65.3221C137.677 65.1609 137.729 64.9588 137.7 64.76L137.57 63.89L160.1 60.55C160.494 60.495 160.873 60.3623 161.215 60.1595C161.557 59.9567 161.856 59.6879 162.093 59.3687C162.33 59.0495 162.502 58.6863 162.597 58.3003C162.693 57.9143 162.711 57.5131 162.65 57.12L162.2 54.05C162.145 53.6561 162.012 53.2771 161.81 52.935C161.607 52.5928 161.338 52.2945 161.019 52.0572C160.7 51.8199 160.336 51.6484 159.95 51.5528C159.564 51.4571 159.163 51.4392 158.77 51.5L136.24 54.84L136.11 53.97C136.08 53.7713 135.973 53.5925 135.812 53.4726C135.651 53.3526 135.449 53.3014 135.25 53.33L133.61 53.57C133.411 53.5997 133.233 53.7068 133.113 53.8679C132.993 54.0291 132.941 54.2312 132.97 54.43L134.57 65.21C134.597 65.4085 134.702 65.5882 134.861 65.71C135.02 65.8317 135.221 65.8856 135.42 65.86Z" fill="white"/>
<path d="M162.19 54.05L162.64 57.12C162.702 57.5138 162.685 57.916 162.59 58.3032C162.495 58.6904 162.324 59.0548 162.087 59.3751C161.849 59.6954 161.551 59.9651 161.208 60.1686C160.865 60.372 160.485 60.5051 160.09 60.56L137.56 63.9L137.69 64.77C137.716 64.9672 137.663 65.1667 137.544 65.3257C137.424 65.4846 137.247 65.5903 137.05 65.62L135.42 65.86C135.322 65.8756 135.222 65.8717 135.126 65.8484C135.029 65.8251 134.938 65.783 134.859 65.7244C134.779 65.6658 134.711 65.5919 134.66 65.5071C134.608 65.4222 134.575 65.328 134.56 65.23L133.93 60.98L162.19 54.05Z" fill="#19BC9C"/>
<path d="M135.42 65.86L137.06 65.62C137.259 65.5903 137.438 65.4832 137.558 65.3221C137.677 65.1609 137.729 64.9588 137.7 64.76L137.57 63.89L160.1 60.55C160.494 60.495 160.873 60.3623 161.215 60.1595C161.557 59.9567 161.856 59.6879 162.093 59.3687C162.33 59.0495 162.502 58.6863 162.597 58.3003C162.693 57.9143 162.711 57.5131 162.65 57.12L162.2 54.05C162.145 53.6561 162.012 53.2771 161.81 52.935C161.607 52.5928 161.338 52.2945 161.019 52.0572C160.7 51.8199 160.336 51.6484 159.95 51.5528C159.564 51.4571 159.163 51.4392 158.77 51.5L136.24 54.84L136.11 53.97C136.08 53.7713 135.973 53.5925 135.812 53.4726C135.651 53.3526 135.449 53.3014 135.25 53.33L133.61 53.57C133.411 53.5997 133.233 53.7068 133.113 53.8679C132.993 54.0291 132.941 54.2312 132.97 54.43L134.57 65.21C134.597 65.4085 134.702 65.5882 134.861 65.71C135.02 65.8317 135.221 65.8856 135.42 65.86Z" stroke="#3F555A" stroke-miterlimit="10"/>
<path d="M150.697 46.0925L144.89 46.953C143.251 47.1959 142.119 48.7215 142.362 50.3604L142.88 53.8523C143.123 55.4912 144.648 56.6229 146.287 56.3801L152.094 55.5195C153.733 55.2766 154.864 53.7511 154.621 52.1121L154.104 48.6203C153.861 46.9813 152.335 45.8496 150.697 46.0925Z" fill="white" stroke="#3F555A" stroke-linecap="round" stroke-linejoin="round"/>
<path d="M1 128.89H182.79" stroke="#3F555A" stroke-linecap="round" stroke-linejoin="round"/>
<path d="M164.9 168.27L132.78 168.54L124.13 140.56L150.49 140.33L164.9 168.27Z" fill="white" stroke="#231F20" stroke-miterlimit="10"/>
<path d="M132.84 146.48L146.35 146.37" stroke="#231F20" stroke-miterlimit="10"/>
<path d="M135.05 151.84L148.56 151.72" stroke="#231F20" stroke-miterlimit="10"/>
<path d="M136.3 157.2L151.73 157.07" stroke="#231F20" stroke-miterlimit="10"/>
<path d="M136.59 162.57L155.86 162.41" stroke="#231F20" stroke-miterlimit="10"/>
<path d="M38.17 103.03V128.89" stroke="#3F555A" stroke-linecap="round" stroke-linejoin="round"/>
<path d="M29.58 112.43C30.4029 112.43 31.07 111.763 31.07 110.94C31.07 110.117 30.4029 109.45 29.58 109.45C28.7571 109.45 28.09 110.117 28.09 110.94C28.09 111.763 28.7571 112.43 29.58 112.43Z" stroke="#3F555A" stroke-linecap="round" stroke-linejoin="round"/>
<path d="M46.76 112.43C47.5829 112.43 48.25 111.763 48.25 110.94C48.25 110.117 47.5829 109.45 46.76 109.45C45.9371 109.45 45.27 110.117 45.27 110.94C45.27 111.763 45.9371 112.43 46.76 112.43Z" stroke="#3F555A" stroke-linecap="round" stroke-linejoin="round"/>
<path d="M14.61 154.6L27.12 136.9C27.12 136.9 40.27 132.59 54.44 145.72C54.44 145.72 64.27 134.48 83.23 144.97L71.75 163.61C71.75 163.61 56.75 155.9 45.53 160.42C45.52 160.43 29.85 149.84 14.61 154.6Z" stroke="#3F555A" stroke-linecap="round" stroke-linejoin="round"/>
<path d="M45.52 160.43L54.44 145.73" stroke="#3F555A" stroke-linecap="round" stroke-linejoin="round"/>
<path d="M16.84 154L14.49 157.28C14.49 157.28 31.79 156.28 44.68 162.73C44.68 162.73 51.08 158.6 73.39 166.84C74.68 165.05 85.62 146.84 85.62 146.84C84.5517 146.545 83.4482 146.397 82.34 146.4" stroke="#3F555A" stroke-linecap="round" stroke-linejoin="round"/>
<path d="M15.7 155.6C15.7 155.6 27.41 152 44.9 161.94C44.9 161.94 58.38 156.26 73.39 166.86" stroke="#3F555A" stroke-linecap="round" stroke-linejoin="round"/>
<path d="M46.85 146.66C46.85 146.66 39.15 140.25 29.71 141.24" stroke="#3F555A" stroke-linecap="round" stroke-linejoin="round"/>
<path d="M44.56 150.8C44.56 150.8 36.86 144.39 27.42 145.38" stroke="#3F555A" stroke-linecap="round" stroke-linejoin="round"/>
<path d="M42.38 155.3C42.38 155.3 34.68 148.89 25.24 149.88" stroke="#3F555A" stroke-linecap="round" stroke-linejoin="round"/>
<path d="M55.3 150.76C55.3 150.76 64.12 147.57 71.97 151.66" stroke="#3F555A" stroke-linecap="round" stroke-linejoin="round"/>
<path d="M57.4399 146.12C57.4399 146.12 66.2599 142.93 74.1099 147.02" stroke="#3F555A" stroke-linecap="round" stroke-linejoin="round"/>
<path d="M51.86 155.45C51.86 155.45 60.68 152.26 68.53 156.35" stroke="#3F555A" stroke-linecap="round" stroke-linejoin="round"/>
</svg>
