<svg width="500" height="500" viewBox="0 0 500 500" fill="none" xmlns="http://www.w3.org/2000/svg">
<rect width="500" height="500" fill="white"/>
<path d="M39.6611 17.1585C40.9301 17.1585 41.8571 16.8525 42.4421 16.2405C43.0361 15.6285 43.3331 14.7915 43.3331 13.7295C43.3331 13.2435 43.2566 12.8025 43.1036 12.4065C42.9596 12.0015 42.7346 11.6595 42.4286 11.3805C42.1316 11.0925 41.7536 10.872 41.2946 10.719C40.8356 10.566 40.2911 10.4895 39.6611 10.4895H37.0961V17.1585H39.6611ZM39.6611 7.4115C41.0021 7.4115 42.1586 7.569 43.1306 7.884C44.1116 8.199 44.9171 8.64 45.5471 9.207C46.1771 9.765 46.6406 10.431 46.9376 11.205C47.2436 11.979 47.3966 12.8205 47.3966 13.7295C47.3966 14.6925 47.2391 15.5745 46.9241 16.3755C46.6091 17.1765 46.1321 17.865 45.4931 18.441C44.8541 19.017 44.0486 19.467 43.0766 19.791C42.1046 20.106 40.9661 20.2635 39.6611 20.2635H37.0961V27H33.0461V7.4115H39.6611ZM57.6834 18.4005C57.6834 18.0135 57.6294 17.6445 57.5214 17.2935C57.4224 16.9425 57.2604 16.632 57.0354 16.362C56.8104 16.092 56.5269 15.8805 56.1849 15.7275C55.8429 15.5655 55.4334 15.4845 54.9564 15.4845C54.0654 15.4845 53.3679 15.7365 52.8639 16.2405C52.3599 16.7445 52.0314 17.4645 51.8784 18.4005H57.6834ZM51.8244 20.6145C51.9414 21.9195 52.3104 22.8735 52.9314 23.4765C53.5614 24.0795 54.3804 24.381 55.3884 24.381C55.9014 24.381 56.3424 24.3225 56.7114 24.2055C57.0894 24.0795 57.4179 23.9445 57.6969 23.8005C57.9849 23.6475 58.2414 23.5125 58.4664 23.3955C58.7004 23.2695 58.9299 23.2065 59.1549 23.2065C59.4429 23.2065 59.6679 23.3145 59.8299 23.5305L60.9099 24.8805C60.5139 25.3395 60.0774 25.722 59.6004 26.028C59.1234 26.325 58.6284 26.5635 58.1154 26.7435C57.6024 26.9145 57.0849 27.0315 56.5629 27.0945C56.0409 27.1665 55.5369 27.2025 55.0509 27.2025C54.0789 27.2025 53.1699 27.045 52.3239 26.73C51.4869 26.406 50.7534 25.9335 50.1234 25.3125C49.5024 24.6825 49.0119 23.904 48.6519 22.977C48.2919 22.05 48.1119 20.9745 48.1119 19.7505C48.1119 18.8055 48.2649 17.9145 48.5709 17.0775C48.8859 16.2405 49.3359 15.5115 49.9209 14.8905C50.5059 14.2695 51.2169 13.779 52.0539 13.419C52.8909 13.05 53.8359 12.8655 54.8889 12.8655C55.7799 12.8655 56.5989 13.0095 57.3459 13.2975C58.1019 13.5765 58.7499 13.986 59.2899 14.526C59.8389 15.066 60.2619 15.732 60.5589 16.524C60.8649 17.307 61.0179 18.2025 61.0179 19.2105C61.0179 19.4895 61.0044 19.719 60.9774 19.899C60.9504 20.079 60.9054 20.223 60.8424 20.331C60.7794 20.439 60.6939 20.5155 60.5859 20.5605C60.4779 20.5965 60.3384 20.6145 60.1674 20.6145H51.8244ZM66.8265 15.3765C67.2675 14.5845 67.776 13.959 68.352 13.5C68.928 13.041 69.603 12.8115 70.377 12.8115C71.007 12.8115 71.52 12.96 71.916 13.257L71.673 16.011C71.628 16.191 71.556 16.317 71.457 16.389C71.367 16.452 71.241 16.4835 71.079 16.4835C70.935 16.4835 70.728 16.4655 70.458 16.4295C70.188 16.3845 69.936 16.362 69.702 16.362C69.36 16.362 69.054 16.4115 68.784 16.5105C68.523 16.6095 68.289 16.749 68.082 16.929C67.875 17.109 67.686 17.3295 67.515 17.5905C67.353 17.8515 67.2 18.1485 67.056 18.4815V27H63.33V13.0815H65.5305C65.9085 13.0815 66.1695 13.149 66.3135 13.284C66.4575 13.419 66.561 13.653 66.624 13.986L66.8265 15.3765ZM83.2893 16.1865C83.1813 16.3305 83.0733 16.443 82.9653 16.524C82.8573 16.596 82.7043 16.632 82.5063 16.632C82.3263 16.632 82.1508 16.5825 81.9798 16.4835C81.8178 16.3755 81.6288 16.263 81.4128 16.146C81.1968 16.02 80.9403 15.9075 80.6433 15.8085C80.3463 15.7005 79.9773 15.6465 79.5363 15.6465C78.9783 15.6465 78.4923 15.75 78.0783 15.957C77.6733 16.155 77.3358 16.443 77.0658 16.821C76.7958 17.199 76.5933 17.658 76.4583 18.198C76.3323 18.738 76.2693 19.3455 76.2693 20.0205C76.2693 21.4425 76.5528 22.5315 77.1198 23.2875C77.6958 24.0435 78.4788 24.4215 79.4688 24.4215C79.8108 24.4215 80.1033 24.3945 80.3463 24.3405C80.5983 24.2775 80.8143 24.201 80.9943 24.111C81.1833 24.021 81.3453 23.922 81.4803 23.814C81.6153 23.706 81.7413 23.607 81.8583 23.517C81.9843 23.427 82.1058 23.355 82.2228 23.301C82.3488 23.238 82.4883 23.2065 82.6413 23.2065C82.9293 23.2065 83.1543 23.3145 83.3163 23.5305L84.3828 24.8805C83.9868 25.3395 83.5638 25.722 83.1138 26.028C82.6638 26.325 82.1958 26.5635 81.7098 26.7435C81.2328 26.9145 80.7468 27.0315 80.2518 27.0945C79.7568 27.1665 79.2663 27.2025 78.7803 27.2025C77.9253 27.2025 77.1153 27.045 76.3503 26.73C75.5853 26.406 74.9148 25.938 74.3388 25.326C73.7628 24.714 73.3038 23.9625 72.9618 23.0715C72.6288 22.1805 72.4623 21.1635 72.4623 20.0205C72.4623 19.0035 72.6108 18.0585 72.9078 17.1855C73.2048 16.3125 73.6413 15.5565 74.2173 14.9175C74.7933 14.2785 75.5043 13.779 76.3503 13.419C77.2053 13.05 78.1908 12.8655 79.3068 12.8655C80.3688 12.8655 81.3003 13.0365 82.1013 13.3785C82.9023 13.7205 83.6223 14.2155 84.2613 14.8635L83.2893 16.1865ZM94.8612 18.4005C94.8612 18.0135 94.8072 17.6445 94.6992 17.2935C94.6002 16.9425 94.4382 16.632 94.2132 16.362C93.9882 16.092 93.7047 15.8805 93.3627 15.7275C93.0207 15.5655 92.6112 15.4845 92.1342 15.4845C91.2432 15.4845 90.5457 15.7365 90.0417 16.2405C89.5377 16.7445 89.2092 17.4645 89.0562 18.4005H94.8612ZM89.0022 20.6145C89.1192 21.9195 89.4882 22.8735 90.1092 23.4765C90.7392 24.0795 91.5582 24.381 92.5662 24.381C93.0792 24.381 93.5202 24.3225 93.8892 24.2055C94.2672 24.0795 94.5957 23.9445 94.8747 23.8005C95.1627 23.6475 95.4192 23.5125 95.6442 23.3955C95.8782 23.2695 96.1077 23.2065 96.3327 23.2065C96.6207 23.2065 96.8457 23.3145 97.0077 23.5305L98.0877 24.8805C97.6917 25.3395 97.2552 25.722 96.7782 26.028C96.3012 26.325 95.8062 26.5635 95.2932 26.7435C94.7802 26.9145 94.2627 27.0315 93.7407 27.0945C93.2187 27.1665 92.7147 27.2025 92.2287 27.2025C91.2567 27.2025 90.3477 27.045 89.5017 26.73C88.6647 26.406 87.9312 25.9335 87.3012 25.3125C86.6802 24.6825 86.1897 23.904 85.8297 22.977C85.4697 22.05 85.2897 20.9745 85.2897 19.7505C85.2897 18.8055 85.4427 17.9145 85.7487 17.0775C86.0637 16.2405 86.5137 15.5115 87.0987 14.8905C87.6837 14.2695 88.3947 13.779 89.2317 13.419C90.0687 13.05 91.0137 12.8655 92.0667 12.8655C92.9577 12.8655 93.7767 13.0095 94.5237 13.2975C95.2797 13.5765 95.9277 13.986 96.4677 14.526C97.0167 15.066 97.4397 15.732 97.7367 16.524C98.0427 17.307 98.1957 18.2025 98.1957 19.2105C98.1957 19.4895 98.1822 19.719 98.1552 19.899C98.1282 20.079 98.0832 20.223 98.0202 20.331C97.9572 20.439 97.8717 20.5155 97.7637 20.5605C97.6557 20.5965 97.5162 20.6145 97.3452 20.6145H89.0022ZM103.964 14.7015C104.243 14.4315 104.531 14.184 104.828 13.959C105.134 13.734 105.453 13.5405 105.786 13.3785C106.128 13.2165 106.493 13.0905 106.88 13.0005C107.276 12.9105 107.703 12.8655 108.162 12.8655C108.918 12.8655 109.589 12.996 110.174 13.257C110.759 13.518 111.249 13.8825 111.645 14.3505C112.05 14.8185 112.352 15.3765 112.55 16.0245C112.757 16.6725 112.86 17.3835 112.86 18.1575V27H109.148V18.1575C109.148 17.3835 108.968 16.785 108.608 16.362C108.248 15.93 107.717 15.714 107.015 15.714C106.493 15.714 106.002 15.8265 105.543 16.0515C105.084 16.2765 104.648 16.5915 104.234 16.9965V27H100.508V13.0815H102.803C103.271 13.0815 103.581 13.2975 103.734 13.7295L103.964 14.7015ZM120.449 27.216C119.819 27.216 119.261 27.126 118.775 26.946C118.289 26.757 117.879 26.4915 117.546 26.1495C117.213 25.8075 116.961 25.3935 116.79 24.9075C116.619 24.4215 116.534 23.8725 116.534 23.2605V15.7545H115.224C115.026 15.7545 114.855 15.6915 114.711 15.5655C114.576 15.4395 114.509 15.2505 114.509 14.9985V13.5405L116.736 13.1355L117.492 9.531C117.591 9.126 117.866 8.9235 118.316 8.9235H120.26V13.1625H123.851V15.7545H120.26V23.0175C120.26 23.4045 120.35 23.7105 120.53 23.9355C120.719 24.1605 120.984 24.273 121.326 24.273C121.506 24.273 121.659 24.255 121.785 24.219C121.911 24.174 122.019 24.129 122.109 24.084C122.199 24.03 122.28 23.985 122.352 23.949C122.433 23.904 122.514 23.8815 122.595 23.8815C122.703 23.8815 122.793 23.9085 122.865 23.9625C122.937 24.0075 123.009 24.0885 123.081 24.2055L124.202 25.9875C123.689 26.3925 123.108 26.6985 122.46 26.9055C121.812 27.1125 121.142 27.216 120.449 27.216ZM133.123 21.1815C132.214 21.2265 131.458 21.3075 130.855 21.4245C130.252 21.5325 129.771 21.6765 129.411 21.8565C129.06 22.0365 128.808 22.2435 128.655 22.4775C128.511 22.7025 128.439 22.95 128.439 23.22C128.439 23.76 128.587 24.1425 128.884 24.3675C129.19 24.5925 129.613 24.705 130.153 24.705C130.774 24.705 131.31 24.597 131.76 24.381C132.219 24.156 132.673 23.8095 133.123 23.3415V21.1815ZM125.536 15.012C126.355 14.274 127.26 13.725 128.25 13.365C129.24 12.996 130.311 12.8115 131.463 12.8115C132.291 12.8115 133.029 12.9465 133.677 13.2165C134.334 13.4865 134.887 13.8645 135.337 14.3505C135.796 14.8275 136.147 15.399 136.39 16.065C136.633 16.731 136.755 17.46 136.755 18.252V27H135.054C134.703 27 134.433 26.9505 134.244 26.8515C134.064 26.7525 133.915 26.5455 133.798 26.2305L133.501 25.3395C133.15 25.6455 132.808 25.9155 132.475 26.1495C132.151 26.3835 131.814 26.5815 131.463 26.7435C131.112 26.8965 130.734 27.0135 130.329 27.0945C129.933 27.1755 129.487 27.216 128.992 27.216C128.38 27.216 127.822 27.135 127.318 26.973C126.814 26.811 126.378 26.5725 126.009 26.2575C125.649 25.9335 125.37 25.533 125.172 25.056C124.974 24.579 124.875 24.03 124.875 23.409C124.875 22.896 125.005 22.383 125.266 21.87C125.527 21.357 125.973 20.8935 126.603 20.4795C127.242 20.0565 128.088 19.71 129.141 19.44C130.203 19.161 131.53 19.0035 133.123 18.9675V18.252C133.123 17.379 132.939 16.74 132.57 16.335C132.201 15.921 131.67 15.714 130.977 15.714C130.464 15.714 130.036 15.777 129.694 15.903C129.352 16.02 129.051 16.1505 128.79 16.2945C128.538 16.4295 128.299 16.56 128.074 16.686C127.849 16.803 127.588 16.8615 127.291 16.8615C127.03 16.8615 126.81 16.7985 126.63 16.6725C126.459 16.5375 126.315 16.38 126.198 16.2L125.536 15.012ZM144.847 19.521C145.612 19.521 146.175 19.3275 146.535 18.9405C146.904 18.5535 147.088 18.054 147.088 17.442C147.088 16.803 146.904 16.3035 146.535 15.9435C146.175 15.5745 145.612 15.39 144.847 15.39C144.082 15.39 143.52 15.5745 143.16 15.9435C142.8 16.3035 142.62 16.803 142.62 17.442C142.62 18.045 142.8 18.5445 143.16 18.9405C143.529 19.3275 144.091 19.521 144.847 19.521ZM148.371 27.567C148.371 27.324 148.294 27.126 148.141 26.973C147.988 26.82 147.781 26.6985 147.52 26.6085C147.268 26.5185 146.967 26.4555 146.616 26.4195C146.265 26.3745 145.891 26.343 145.495 26.325C145.099 26.298 144.69 26.2755 144.267 26.2575C143.844 26.2395 143.43 26.208 143.025 26.163C142.71 26.352 142.449 26.577 142.242 26.838C142.044 27.09 141.945 27.378 141.945 27.702C141.945 27.927 141.994 28.134 142.093 28.323C142.201 28.512 142.377 28.674 142.62 28.809C142.863 28.944 143.182 29.0475 143.578 29.1195C143.974 29.2005 144.469 29.241 145.063 29.241C145.675 29.241 146.193 29.2005 146.616 29.1195C147.039 29.0385 147.381 28.9215 147.642 28.7685C147.903 28.6245 148.087 28.449 148.195 28.242C148.312 28.035 148.371 27.81 148.371 27.567ZM152.07 13.5405V14.904C152.07 15.12 152.007 15.291 151.881 15.417C151.764 15.543 151.566 15.6375 151.287 15.7005L150.153 15.93C150.306 16.371 150.382 16.8435 150.382 17.3475C150.382 18.0405 150.238 18.666 149.95 19.224C149.671 19.773 149.284 20.2455 148.789 20.6415C148.294 21.0285 147.709 21.33 147.034 21.546C146.359 21.753 145.63 21.8565 144.847 21.8565C144.352 21.8565 143.889 21.816 143.457 21.735C143.079 21.969 142.89 22.2255 142.89 22.5045C142.89 22.7655 143.016 22.9545 143.268 23.0715C143.529 23.1885 143.866 23.274 144.28 23.328C144.703 23.373 145.18 23.4045 145.711 23.4225C146.251 23.4315 146.796 23.4585 147.345 23.5035C147.903 23.5485 148.447 23.6295 148.978 23.7465C149.518 23.8545 149.995 24.039 150.409 24.3C150.832 24.552 151.17 24.8895 151.422 25.3125C151.683 25.7355 151.813 26.28 151.813 26.946C151.813 27.567 151.66 28.17 151.354 28.755C151.048 29.34 150.603 29.862 150.018 30.321C149.442 30.78 148.731 31.149 147.885 31.428C147.039 31.707 146.076 31.8465 144.996 31.8465C143.925 31.8465 142.993 31.743 142.201 31.536C141.418 31.338 140.766 31.068 140.244 30.726C139.731 30.393 139.348 30.006 139.096 29.565C138.844 29.124 138.718 28.665 138.718 28.188C138.718 27.567 138.907 27.0405 139.285 26.6085C139.663 26.1765 140.185 25.83 140.851 25.569C140.5 25.371 140.217 25.1145 140.001 24.7995C139.794 24.4755 139.69 24.057 139.69 23.544C139.69 23.13 139.839 22.6935 140.136 22.2345C140.442 21.7755 140.91 21.393 141.54 21.087C140.829 20.709 140.266 20.205 139.852 19.575C139.438 18.936 139.231 18.1935 139.231 17.3475C139.231 16.6545 139.371 16.029 139.65 15.471C139.938 14.913 140.334 14.4405 140.838 14.0535C141.342 13.6575 141.936 13.356 142.62 13.149C143.304 12.942 144.046 12.8385 144.847 12.8385C146.035 12.8385 147.084 13.0725 147.993 13.5405H152.07ZM162.572 18.4005C162.572 18.0135 162.518 17.6445 162.41 17.2935C162.311 16.9425 162.149 16.632 161.924 16.362C161.699 16.092 161.416 15.8805 161.074 15.7275C160.732 15.5655 160.322 15.4845 159.845 15.4845C158.954 15.4845 158.257 15.7365 157.753 16.2405C157.249 16.7445 156.92 17.4645 156.767 18.4005H162.572ZM156.713 20.6145C156.83 21.9195 157.199 22.8735 157.82 23.4765C158.45 24.0795 159.269 24.381 160.277 24.381C160.79 24.381 161.231 24.3225 161.6 24.2055C161.978 24.0795 162.307 23.9445 162.586 23.8005C162.874 23.6475 163.13 23.5125 163.355 23.3955C163.589 23.2695 163.819 23.2065 164.044 23.2065C164.332 23.2065 164.557 23.3145 164.719 23.5305L165.799 24.8805C165.403 25.3395 164.966 25.722 164.489 26.028C164.012 26.325 163.517 26.5635 163.004 26.7435C162.491 26.9145 161.974 27.0315 161.452 27.0945C160.93 27.1665 160.426 27.2025 159.94 27.2025C158.968 27.2025 158.059 27.045 157.213 26.73C156.376 26.406 155.642 25.9335 155.012 25.3125C154.391 24.6825 153.901 23.904 153.541 22.977C153.181 22.05 153.001 20.9745 153.001 19.7505C153.001 18.8055 153.154 17.9145 153.46 17.0775C153.775 16.2405 154.225 15.5115 154.81 14.8905C155.395 14.2695 156.106 13.779 156.943 13.419C157.78 13.05 158.725 12.8655 159.778 12.8655C160.669 12.8655 161.488 13.0095 162.235 13.2975C162.991 13.5765 163.639 13.986 164.179 14.526C164.728 15.066 165.151 15.732 165.448 16.524C165.754 17.307 165.907 18.2025 165.907 19.2105C165.907 19.4895 165.893 19.719 165.866 19.899C165.839 20.079 165.794 20.223 165.731 20.331C165.668 20.439 165.583 20.5155 165.475 20.5605C165.367 20.5965 165.227 20.6145 165.056 20.6145H156.713ZM180.903 12.8655C181.947 12.8655 182.897 13.032 183.752 13.365C184.607 13.698 185.34 14.175 185.952 14.796C186.564 15.408 187.037 16.155 187.37 17.037C187.703 17.919 187.869 18.9135 187.869 20.0205C187.869 21.1275 187.703 22.1265 187.37 23.0175C187.037 23.8995 186.564 24.651 185.952 25.272C185.34 25.893 184.607 26.37 183.752 26.703C182.897 27.036 181.947 27.2025 180.903 27.2025C179.85 27.2025 178.892 27.036 178.028 26.703C177.173 26.37 176.439 25.893 175.827 25.272C175.215 24.651 174.738 23.8995 174.396 23.0175C174.063 22.1265 173.897 21.1275 173.897 20.0205C173.897 18.9135 174.063 17.919 174.396 17.037C174.738 16.155 175.215 15.408 175.827 14.796C176.439 14.175 177.173 13.698 178.028 13.365C178.892 13.032 179.85 12.8655 180.903 12.8655ZM180.903 24.408C181.965 24.408 182.753 24.0435 183.266 23.3145C183.779 22.5765 184.035 21.483 184.035 20.034C184.035 18.594 183.779 17.5095 183.266 16.7805C182.753 16.0425 181.965 15.6735 180.903 15.6735C179.814 15.6735 179.013 16.0425 178.5 16.7805C177.987 17.5095 177.731 18.594 177.731 20.034C177.731 21.483 177.987 22.5765 178.5 23.3145C179.013 24.0435 179.814 24.408 180.903 24.408ZM190.852 27V15.7545L189.772 15.5655C189.493 15.5115 189.264 15.4125 189.084 15.2685C188.913 15.1245 188.827 14.9175 188.827 14.6475V13.1625H190.852V12.2445C190.852 11.4525 190.974 10.737 191.217 10.098C191.469 9.45 191.824 8.9055 192.283 8.4645C192.742 8.0145 193.305 7.668 193.971 7.425C194.637 7.182 195.388 7.0605 196.225 7.0605C196.549 7.0605 196.855 7.083 197.143 7.128C197.44 7.164 197.737 7.2225 198.034 7.3035L197.953 9.1395C197.935 9.4185 197.814 9.603 197.589 9.693C197.373 9.774 197.13 9.8145 196.86 9.8145C196.482 9.8145 196.14 9.855 195.834 9.936C195.537 10.017 195.285 10.1565 195.078 10.3545C194.871 10.5435 194.713 10.8045 194.605 11.1375C194.497 11.4615 194.443 11.8665 194.443 12.3525V13.1625H197.899V15.7545H194.565V27H190.852ZM214.155 15.9435C214.056 16.0965 213.953 16.209 213.845 16.281C213.746 16.344 213.606 16.3755 213.426 16.3755C213.246 16.3755 213.062 16.3305 212.873 16.2405C212.684 16.1505 212.472 16.056 212.238 15.957C212.004 15.849 211.734 15.75 211.428 15.66C211.131 15.57 210.785 15.525 210.389 15.525C209.786 15.525 209.318 15.651 208.985 15.903C208.652 16.146 208.485 16.47 208.485 16.875C208.485 17.154 208.58 17.388 208.769 17.577C208.958 17.766 209.205 17.9325 209.511 18.0765C209.826 18.2115 210.182 18.342 210.578 18.468C210.974 18.585 211.379 18.7155 211.793 18.8595C212.216 19.0035 212.625 19.17 213.021 19.359C213.417 19.548 213.768 19.7865 214.074 20.0745C214.389 20.3535 214.641 20.6955 214.83 21.1005C215.019 21.4965 215.114 21.978 215.114 22.545C215.114 23.22 214.988 23.8455 214.736 24.4215C214.493 24.9885 214.133 25.479 213.656 25.893C213.179 26.307 212.585 26.631 211.874 26.865C211.163 27.099 210.344 27.216 209.417 27.216C208.94 27.216 208.467 27.171 207.999 27.081C207.531 27 207.086 26.883 206.663 26.73C206.24 26.568 205.844 26.3835 205.475 26.1765C205.106 25.9695 204.786 25.7445 204.516 25.5015L205.38 24.111C205.479 23.949 205.601 23.823 205.745 23.733C205.898 23.643 206.091 23.598 206.325 23.598C206.55 23.598 206.757 23.6565 206.946 23.7735C207.135 23.8815 207.347 24.003 207.581 24.138C207.815 24.264 208.089 24.3855 208.404 24.5025C208.728 24.6105 209.129 24.6645 209.606 24.6645C209.966 24.6645 210.276 24.624 210.537 24.543C210.798 24.462 211.01 24.354 211.172 24.219C211.334 24.075 211.451 23.9175 211.523 23.7465C211.604 23.5665 211.644 23.382 211.644 23.193C211.644 22.887 211.545 22.6395 211.347 22.4505C211.158 22.2525 210.906 22.0815 210.591 21.9375C210.285 21.7935 209.93 21.663 209.525 21.546C209.12 21.429 208.706 21.2985 208.283 21.1545C207.869 21.0105 207.459 20.8395 207.054 20.6415C206.658 20.4435 206.303 20.196 205.988 19.899C205.682 19.593 205.43 19.2195 205.232 18.7785C205.043 18.3375 204.948 17.802 204.948 17.172C204.948 16.596 205.061 16.0515 205.286 15.5385C205.511 15.0165 205.848 14.5575 206.298 14.1615C206.748 13.7655 207.306 13.4505 207.972 13.2165C208.647 12.9825 209.426 12.8655 210.308 12.8655C211.298 12.8655 212.198 13.0275 213.008 13.3515C213.818 13.6755 214.484 14.0985 215.006 14.6205L214.155 15.9435ZM222.252 27.216C221.622 27.216 221.064 27.126 220.578 26.946C220.092 26.757 219.683 26.4915 219.35 26.1495C219.017 25.8075 218.765 25.3935 218.594 24.9075C218.423 24.4215 218.337 23.8725 218.337 23.2605V15.7545H217.028C216.83 15.7545 216.659 15.6915 216.515 15.5655C216.38 15.4395 216.312 15.2505 216.312 14.9985V13.5405L218.54 13.1355L219.296 9.531C219.395 9.126 219.669 8.9235 220.119 8.9235H222.063V13.1625H225.654V15.7545H222.063V23.0175C222.063 23.4045 222.153 23.7105 222.333 23.9355C222.522 24.1605 222.788 24.273 223.13 24.273C223.31 24.273 223.463 24.255 223.589 24.219C223.715 24.174 223.823 24.129 223.913 24.084C224.003 24.03 224.084 23.985 224.156 23.949C224.237 23.904 224.318 23.8815 224.399 23.8815C224.507 23.8815 224.597 23.9085 224.669 23.9625C224.741 24.0075 224.813 24.0885 224.885 24.2055L226.005 25.9875C225.492 26.3925 224.912 26.6985 224.264 26.9055C223.616 27.1125 222.945 27.216 222.252 27.216ZM239.868 13.0815V27H237.573C237.096 27 236.79 26.784 236.655 26.352L236.412 25.38C236.133 25.65 235.845 25.8975 235.548 26.1225C235.251 26.3475 234.931 26.541 234.589 26.703C234.256 26.865 233.892 26.991 233.496 27.081C233.109 27.171 232.686 27.216 232.227 27.216C231.471 27.216 230.796 27.0855 230.202 26.8245C229.617 26.5635 229.126 26.199 228.73 25.731C228.334 25.263 228.033 24.705 227.826 24.057C227.619 23.409 227.515 22.698 227.515 21.924V13.0815H231.241V21.924C231.241 22.698 231.417 23.301 231.768 23.733C232.128 24.156 232.659 24.3675 233.361 24.3675C233.883 24.3675 234.373 24.255 234.832 24.03C235.291 23.796 235.728 23.481 236.142 23.085V13.0815H239.868ZM251.543 16.6995C251.192 16.2945 250.809 16.011 250.395 15.849C249.99 15.687 249.558 15.606 249.099 15.606C248.649 15.606 248.24 15.6915 247.871 15.8625C247.502 16.0335 247.182 16.3035 246.912 16.6725C246.651 17.0325 246.449 17.496 246.305 18.063C246.161 18.63 246.089 19.305 246.089 20.088C246.089 20.862 246.147 21.519 246.264 22.059C246.381 22.599 246.548 23.0355 246.764 23.3685C246.989 23.7015 247.259 23.9445 247.574 24.0975C247.889 24.2415 248.24 24.3135 248.627 24.3135C249.284 24.3135 249.833 24.183 250.274 23.922C250.724 23.661 251.147 23.292 251.543 22.815V16.6995ZM255.269 6.8715V27H252.974C252.497 27 252.191 26.784 252.056 26.352L251.745 25.137C251.466 25.443 251.169 25.722 250.854 25.974C250.548 26.226 250.215 26.4465 249.855 26.6355C249.495 26.8155 249.108 26.955 248.694 27.054C248.28 27.153 247.83 27.2025 247.344 27.2025C246.597 27.2025 245.913 27.045 245.292 26.73C244.671 26.415 244.131 25.956 243.672 25.353C243.222 24.741 242.871 23.994 242.619 23.112C242.367 22.23 242.241 21.222 242.241 20.088C242.241 19.053 242.381 18.09 242.66 17.199C242.948 16.308 243.353 15.5385 243.875 14.8905C244.397 14.2425 245.027 13.734 245.765 13.365C246.503 12.996 247.322 12.8115 248.222 12.8115C248.978 12.8115 249.612 12.924 250.125 13.149C250.647 13.374 251.12 13.68 251.543 14.067V6.8715H255.269ZM267.197 18.4005C267.197 18.0135 267.143 17.6445 267.035 17.2935C266.936 16.9425 266.774 16.632 266.549 16.362C266.324 16.092 266.041 15.8805 265.699 15.7275C265.357 15.5655 264.947 15.4845 264.47 15.4845C263.579 15.4845 262.882 15.7365 262.378 16.2405C261.874 16.7445 261.545 17.4645 261.392 18.4005H267.197ZM261.338 20.6145C261.455 21.9195 261.824 22.8735 262.445 23.4765C263.075 24.0795 263.894 24.381 264.902 24.381C265.415 24.381 265.856 24.3225 266.225 24.2055C266.603 24.0795 266.932 23.9445 267.211 23.8005C267.499 23.6475 267.755 23.5125 267.98 23.3955C268.214 23.2695 268.444 23.2065 268.669 23.2065C268.957 23.2065 269.182 23.3145 269.344 23.5305L270.424 24.8805C270.028 25.3395 269.591 25.722 269.114 26.028C268.637 26.325 268.142 26.5635 267.629 26.7435C267.116 26.9145 266.599 27.0315 266.077 27.0945C265.555 27.1665 265.051 27.2025 264.565 27.2025C263.593 27.2025 262.684 27.045 261.838 26.73C261.001 26.406 260.267 25.9335 259.637 25.3125C259.016 24.6825 258.526 23.904 258.166 22.977C257.806 22.05 257.626 20.9745 257.626 19.7505C257.626 18.8055 257.779 17.9145 258.085 17.0775C258.4 16.2405 258.85 15.5115 259.435 14.8905C260.02 14.2695 260.731 13.779 261.568 13.419C262.405 13.05 263.35 12.8655 264.403 12.8655C265.294 12.8655 266.113 13.0095 266.86 13.2975C267.616 13.5765 268.264 13.986 268.804 14.526C269.353 15.066 269.776 15.732 270.073 16.524C270.379 17.307 270.532 18.2025 270.532 19.2105C270.532 19.4895 270.518 19.719 270.491 19.899C270.464 20.079 270.419 20.223 270.356 20.331C270.293 20.439 270.208 20.5155 270.1 20.5605C269.992 20.5965 269.852 20.6145 269.681 20.6145H261.338ZM276.3 14.7015C276.579 14.4315 276.867 14.184 277.164 13.959C277.47 13.734 277.789 13.5405 278.122 13.3785C278.464 13.2165 278.829 13.0905 279.216 13.0005C279.612 12.9105 280.039 12.8655 280.498 12.8655C281.254 12.8655 281.925 12.996 282.51 13.257C283.095 13.518 283.585 13.8825 283.981 14.3505C284.386 14.8185 284.688 15.3765 284.886 16.0245C285.093 16.6725 285.196 17.3835 285.196 18.1575V27H281.484V18.1575C281.484 17.3835 281.304 16.785 280.944 16.362C280.584 15.93 280.053 15.714 279.351 15.714C278.829 15.714 278.338 15.8265 277.879 16.0515C277.42 16.2765 276.984 16.5915 276.57 16.9965V27H272.844V13.0815H275.139C275.607 13.0815 275.917 13.2975 276.07 13.7295L276.3 14.7015ZM292.784 27.216C292.154 27.216 291.596 27.126 291.11 26.946C290.624 26.757 290.215 26.4915 289.882 26.1495C289.549 25.8075 289.297 25.3935 289.126 24.9075C288.955 24.4215 288.869 23.8725 288.869 23.2605V15.7545H287.56C287.362 15.7545 287.191 15.6915 287.047 15.5655C286.912 15.4395 286.844 15.2505 286.844 14.9985V13.5405L289.072 13.1355L289.828 9.531C289.927 9.126 290.201 8.9235 290.651 8.9235H292.595V13.1625H296.186V15.7545H292.595V23.0175C292.595 23.4045 292.685 23.7105 292.865 23.9355C293.054 24.1605 293.32 24.273 293.662 24.273C293.842 24.273 293.995 24.255 294.121 24.219C294.247 24.174 294.355 24.129 294.445 24.084C294.535 24.03 294.616 23.985 294.688 23.949C294.769 23.904 294.85 23.8815 294.931 23.8815C295.039 23.8815 295.129 23.9085 295.201 23.9625C295.273 24.0075 295.345 24.0885 295.417 24.2055L296.537 25.9875C296.024 26.3925 295.444 26.6985 294.796 26.9055C294.148 27.1125 293.477 27.216 292.784 27.216ZM306.836 15.9435C306.737 16.0965 306.634 16.209 306.526 16.281C306.427 16.344 306.287 16.3755 306.107 16.3755C305.927 16.3755 305.743 16.3305 305.554 16.2405C305.365 16.1505 305.153 16.056 304.919 15.957C304.685 15.849 304.415 15.75 304.109 15.66C303.812 15.57 303.466 15.525 303.07 15.525C302.467 15.525 301.999 15.651 301.666 15.903C301.333 16.146 301.166 16.47 301.166 16.875C301.166 17.154 301.261 17.388 301.45 17.577C301.639 17.766 301.886 17.9325 302.192 18.0765C302.507 18.2115 302.863 18.342 303.259 18.468C303.655 18.585 304.06 18.7155 304.474 18.8595C304.897 19.0035 305.306 19.17 305.702 19.359C306.098 19.548 306.449 19.7865 306.755 20.0745C307.07 20.3535 307.322 20.6955 307.511 21.1005C307.7 21.4965 307.795 21.978 307.795 22.545C307.795 23.22 307.669 23.8455 307.417 24.4215C307.174 24.9885 306.814 25.479 306.337 25.893C305.86 26.307 305.266 26.631 304.555 26.865C303.844 27.099 303.025 27.216 302.098 27.216C301.621 27.216 301.148 27.171 300.68 27.081C300.212 27 299.767 26.883 299.344 26.73C298.921 26.568 298.525 26.3835 298.156 26.1765C297.787 25.9695 297.467 25.7445 297.197 25.5015L298.061 24.111C298.16 23.949 298.282 23.823 298.426 23.733C298.579 23.643 298.772 23.598 299.006 23.598C299.231 23.598 299.438 23.6565 299.627 23.7735C299.816 23.8815 300.028 24.003 300.262 24.138C300.496 24.264 300.77 24.3855 301.085 24.5025C301.409 24.6105 301.81 24.6645 302.287 24.6645C302.647 24.6645 302.957 24.624 303.218 24.543C303.479 24.462 303.691 24.354 303.853 24.219C304.015 24.075 304.132 23.9175 304.204 23.7465C304.285 23.5665 304.325 23.382 304.325 23.193C304.325 22.887 304.226 22.6395 304.028 22.4505C303.839 22.2525 303.587 22.0815 303.272 21.9375C302.966 21.7935 302.611 21.663 302.206 21.546C301.801 21.429 301.387 21.2985 300.964 21.1545C300.55 21.0105 300.14 20.8395 299.735 20.6415C299.339 20.4435 298.984 20.196 298.669 19.899C298.363 19.593 298.111 19.2195 297.913 18.7785C297.724 18.3375 297.629 17.802 297.629 17.172C297.629 16.596 297.742 16.0515 297.967 15.5385C298.192 15.0165 298.529 14.5575 298.979 14.1615C299.429 13.7655 299.987 13.4505 300.653 13.2165C301.328 12.9825 302.107 12.8655 302.989 12.8655C303.979 12.8655 304.879 13.0275 305.689 13.3515C306.499 13.6755 307.165 14.0985 307.687 14.6205L306.836 15.9435ZM325.363 18.4005C325.363 18.0135 325.309 17.6445 325.201 17.2935C325.102 16.9425 324.94 16.632 324.715 16.362C324.49 16.092 324.207 15.8805 323.865 15.7275C323.523 15.5655 323.113 15.4845 322.636 15.4845C321.745 15.4845 321.048 15.7365 320.544 16.2405C320.04 16.7445 319.711 17.4645 319.558 18.4005H325.363ZM319.504 20.6145C319.621 21.9195 319.99 22.8735 320.611 23.4765C321.241 24.0795 322.06 24.381 323.068 24.381C323.581 24.381 324.022 24.3225 324.391 24.2055C324.769 24.0795 325.098 23.9445 325.377 23.8005C325.665 23.6475 325.921 23.5125 326.146 23.3955C326.38 23.2695 326.61 23.2065 326.835 23.2065C327.123 23.2065 327.348 23.3145 327.51 23.5305L328.59 24.8805C328.194 25.3395 327.757 25.722 327.28 26.028C326.803 26.325 326.308 26.5635 325.795 26.7435C325.282 26.9145 324.765 27.0315 324.243 27.0945C323.721 27.1665 323.217 27.2025 322.731 27.2025C321.759 27.2025 320.85 27.045 320.004 26.73C319.167 26.406 318.433 25.9335 317.803 25.3125C317.182 24.6825 316.692 23.904 316.332 22.977C315.972 22.05 315.792 20.9745 315.792 19.7505C315.792 18.8055 315.945 17.9145 316.251 17.0775C316.566 16.2405 317.016 15.5115 317.601 14.8905C318.186 14.2695 318.897 13.779 319.734 13.419C320.571 13.05 321.516 12.8655 322.569 12.8655C323.46 12.8655 324.279 13.0095 325.026 13.2975C325.782 13.5765 326.43 13.986 326.97 14.526C327.519 15.066 327.942 15.732 328.239 16.524C328.545 17.307 328.698 18.2025 328.698 19.2105C328.698 19.4895 328.684 19.719 328.657 19.899C328.63 20.079 328.585 20.223 328.522 20.331C328.459 20.439 328.374 20.5155 328.266 20.5605C328.158 20.5965 328.018 20.6145 327.847 20.6145H319.504ZM338.286 21.1815C337.377 21.2265 336.621 21.3075 336.018 21.4245C335.415 21.5325 334.934 21.6765 334.574 21.8565C334.223 22.0365 333.971 22.2435 333.818 22.4775C333.674 22.7025 333.602 22.95 333.602 23.22C333.602 23.76 333.75 24.1425 334.047 24.3675C334.353 24.5925 334.776 24.705 335.316 24.705C335.937 24.705 336.473 24.597 336.923 24.381C337.382 24.156 337.836 23.8095 338.286 23.3415V21.1815ZM330.699 15.012C331.518 14.274 332.423 13.725 333.413 13.365C334.403 12.996 335.474 12.8115 336.626 12.8115C337.454 12.8115 338.192 12.9465 338.84 13.2165C339.497 13.4865 340.05 13.8645 340.5 14.3505C340.959 14.8275 341.31 15.399 341.553 16.065C341.796 16.731 341.918 17.46 341.918 18.252V27H340.217C339.866 27 339.596 26.9505 339.407 26.8515C339.227 26.7525 339.078 26.5455 338.961 26.2305L338.664 25.3395C338.313 25.6455 337.971 25.9155 337.638 26.1495C337.314 26.3835 336.977 26.5815 336.626 26.7435C336.275 26.8965 335.897 27.0135 335.492 27.0945C335.096 27.1755 334.65 27.216 334.155 27.216C333.543 27.216 332.985 27.135 332.481 26.973C331.977 26.811 331.541 26.5725 331.172 26.2575C330.812 25.9335 330.533 25.533 330.335 25.056C330.137 24.579 330.038 24.03 330.038 23.409C330.038 22.896 330.168 22.383 330.429 21.87C330.69 21.357 331.136 20.8935 331.766 20.4795C332.405 20.0565 333.251 19.71 334.304 19.44C335.366 19.161 336.693 19.0035 338.286 18.9675V18.252C338.286 17.379 338.102 16.74 337.733 16.335C337.364 15.921 336.833 15.714 336.14 15.714C335.627 15.714 335.199 15.777 334.857 15.903C334.515 16.02 334.214 16.1505 333.953 16.2945C333.701 16.4295 333.462 16.56 333.237 16.686C333.012 16.803 332.751 16.8615 332.454 16.8615C332.193 16.8615 331.973 16.7985 331.793 16.6725C331.622 16.5375 331.478 16.38 331.361 16.2L330.699 15.012ZM348.323 15.3765C348.764 14.5845 349.272 13.959 349.848 13.5C350.424 13.041 351.099 12.8115 351.873 12.8115C352.503 12.8115 353.016 12.96 353.412 13.257L353.169 16.011C353.124 16.191 353.052 16.317 352.953 16.389C352.863 16.452 352.737 16.4835 352.575 16.4835C352.431 16.4835 352.224 16.4655 351.954 16.4295C351.684 16.3845 351.432 16.362 351.198 16.362C350.856 16.362 350.55 16.4115 350.28 16.5105C350.019 16.6095 349.785 16.749 349.578 16.929C349.371 17.109 349.182 17.3295 349.011 17.5905C348.849 17.8515 348.696 18.1485 348.552 18.4815V27H344.826V13.0815H347.027C347.405 13.0815 347.666 13.149 347.81 13.284C347.954 13.419 348.057 13.653 348.12 13.986L348.323 15.3765ZM358.46 14.7015C358.739 14.4315 359.027 14.184 359.324 13.959C359.63 13.734 359.949 13.5405 360.282 13.3785C360.624 13.2165 360.989 13.0905 361.376 13.0005C361.772 12.9105 362.199 12.8655 362.658 12.8655C363.414 12.8655 364.085 12.996 364.67 13.257C365.255 13.518 365.745 13.8825 366.141 14.3505C366.546 14.8185 366.848 15.3765 367.046 16.0245C367.253 16.6725 367.356 17.3835 367.356 18.1575V27H363.644V18.1575C363.644 17.3835 363.464 16.785 363.104 16.362C362.744 15.93 362.213 15.714 361.511 15.714C360.989 15.714 360.498 15.8265 360.039 16.0515C359.58 16.2765 359.144 16.5915 358.73 16.9965V27H355.004V13.0815H357.299C357.767 13.0815 358.077 13.2975 358.23 13.7295L358.46 14.7015ZM374.157 13.0815V27H370.431V13.0815H374.157ZM374.603 9.126C374.603 9.441 374.54 9.7335 374.414 10.0035C374.288 10.2735 374.117 10.512 373.901 10.719C373.694 10.926 373.446 11.088 373.158 11.205C372.879 11.322 372.578 11.3805 372.254 11.3805C371.948 11.3805 371.655 11.322 371.376 11.205C371.106 11.088 370.868 10.926 370.661 10.719C370.454 10.512 370.287 10.2735 370.161 10.0035C370.044 9.7335 369.986 9.441 369.986 9.126C369.986 8.811 370.044 8.5185 370.161 8.2485C370.287 7.9695 370.454 7.7265 370.661 7.5195C370.868 7.3125 371.106 7.1505 371.376 7.0335C371.655 6.9165 371.948 6.858 372.254 6.858C372.578 6.858 372.879 6.9165 373.158 7.0335C373.446 7.1505 373.694 7.3125 373.901 7.5195C374.117 7.7265 374.288 7.9695 374.414 8.2485C374.54 8.5185 374.603 8.811 374.603 9.126ZM380.793 14.7015C381.072 14.4315 381.36 14.184 381.657 13.959C381.963 13.734 382.282 13.5405 382.615 13.3785C382.957 13.2165 383.322 13.0905 383.709 13.0005C384.105 12.9105 384.532 12.8655 384.991 12.8655C385.747 12.8655 386.418 12.996 387.003 13.257C387.588 13.518 388.078 13.8825 388.474 14.3505C388.879 14.8185 389.181 15.3765 389.379 16.0245C389.586 16.6725 389.689 17.3835 389.689 18.1575V27H385.977V18.1575C385.977 17.3835 385.797 16.785 385.437 16.362C385.077 15.93 384.546 15.714 383.844 15.714C383.322 15.714 382.831 15.8265 382.372 16.0515C381.913 16.2765 381.477 16.5915 381.063 16.9965V27H377.337V13.0815H379.632C380.1 13.0815 380.41 13.2975 380.563 13.7295L380.793 14.7015ZM397.84 19.521C398.605 19.521 399.168 19.3275 399.528 18.9405C399.897 18.5535 400.081 18.054 400.081 17.442C400.081 16.803 399.897 16.3035 399.528 15.9435C399.168 15.5745 398.605 15.39 397.84 15.39C397.075 15.39 396.513 15.5745 396.153 15.9435C395.793 16.3035 395.613 16.803 395.613 17.442C395.613 18.045 395.793 18.5445 396.153 18.9405C396.522 19.3275 397.084 19.521 397.84 19.521ZM401.364 27.567C401.364 27.324 401.287 27.126 401.134 26.973C400.981 26.82 400.774 26.6985 400.513 26.6085C400.261 26.5185 399.96 26.4555 399.609 26.4195C399.258 26.3745 398.884 26.343 398.488 26.325C398.092 26.298 397.683 26.2755 397.26 26.2575C396.837 26.2395 396.423 26.208 396.018 26.163C395.703 26.352 395.442 26.577 395.235 26.838C395.037 27.09 394.938 27.378 394.938 27.702C394.938 27.927 394.987 28.134 395.086 28.323C395.194 28.512 395.37 28.674 395.613 28.809C395.856 28.944 396.175 29.0475 396.571 29.1195C396.967 29.2005 397.462 29.241 398.056 29.241C398.668 29.241 399.186 29.2005 399.609 29.1195C400.032 29.0385 400.374 28.9215 400.635 28.7685C400.896 28.6245 401.08 28.449 401.188 28.242C401.305 28.035 401.364 27.81 401.364 27.567ZM405.063 13.5405V14.904C405.063 15.12 405 15.291 404.874 15.417C404.757 15.543 404.559 15.6375 404.28 15.7005L403.146 15.93C403.299 16.371 403.375 16.8435 403.375 17.3475C403.375 18.0405 403.231 18.666 402.943 19.224C402.664 19.773 402.277 20.2455 401.782 20.6415C401.287 21.0285 400.702 21.33 400.027 21.546C399.352 21.753 398.623 21.8565 397.84 21.8565C397.345 21.8565 396.882 21.816 396.45 21.735C396.072 21.969 395.883 22.2255 395.883 22.5045C395.883 22.7655 396.009 22.9545 396.261 23.0715C396.522 23.1885 396.859 23.274 397.273 23.328C397.696 23.373 398.173 23.4045 398.704 23.4225C399.244 23.4315 399.789 23.4585 400.338 23.5035C400.896 23.5485 401.44 23.6295 401.971 23.7465C402.511 23.8545 402.988 24.039 403.402 24.3C403.825 24.552 404.163 24.8895 404.415 25.3125C404.676 25.7355 404.806 26.28 404.806 26.946C404.806 27.567 404.653 28.17 404.347 28.755C404.041 29.34 403.596 29.862 403.011 30.321C402.435 30.78 401.724 31.149 400.878 31.428C400.032 31.707 399.069 31.8465 397.989 31.8465C396.918 31.8465 395.986 31.743 395.194 31.536C394.411 31.338 393.759 31.068 393.237 30.726C392.724 30.393 392.341 30.006 392.089 29.565C391.837 29.124 391.711 28.665 391.711 28.188C391.711 27.567 391.9 27.0405 392.278 26.6085C392.656 26.1765 393.178 25.83 393.844 25.569C393.493 25.371 393.21 25.1145 392.994 24.7995C392.787 24.4755 392.683 24.057 392.683 23.544C392.683 23.13 392.832 22.6935 393.129 22.2345C393.435 21.7755 393.903 21.393 394.533 21.087C393.822 20.709 393.259 20.205 392.845 19.575C392.431 18.936 392.224 18.1935 392.224 17.3475C392.224 16.6545 392.364 16.029 392.643 15.471C392.931 14.913 393.327 14.4405 393.831 14.0535C394.335 13.6575 394.929 13.356 395.613 13.149C396.297 12.942 397.039 12.8385 397.84 12.8385C399.028 12.8385 400.077 13.0725 400.986 13.5405H405.063ZM423.338 19.5615L421.219 13.5675C421.093 13.2525 420.958 12.8835 420.814 12.4605C420.679 12.0375 420.548 11.5785 420.422 11.0835C420.296 11.5875 420.161 12.0555 420.017 12.4875C419.882 12.9105 419.752 13.2795 419.626 13.5945L417.52 19.5615H423.338ZM430.142 27H426.997C426.646 27 426.358 26.919 426.133 26.757C425.917 26.586 425.755 26.37 425.647 26.109L424.324 22.3695H416.521L415.198 26.109C415.108 26.334 414.95 26.541 414.725 26.73C414.5 26.91 414.217 27 413.875 27H410.702L418.357 7.4115H422.501L430.142 27ZM438.57 17.1585C439.839 17.1585 440.766 16.8525 441.351 16.2405C441.945 15.6285 442.242 14.7915 442.242 13.7295C442.242 13.2435 442.166 12.8025 442.013 12.4065C441.869 12.0015 441.644 11.6595 441.338 11.3805C441.041 11.0925 440.663 10.872 440.204 10.719C439.745 10.566 439.2 10.4895 438.57 10.4895H436.005V17.1585H438.57ZM438.57 7.4115C439.911 7.4115 441.068 7.569 442.04 7.884C443.021 8.199 443.826 8.64 444.456 9.207C445.086 9.765 445.55 10.431 445.847 11.205C446.153 11.979 446.306 12.8205 446.306 13.7295C446.306 14.6925 446.148 15.5745 445.833 16.3755C445.518 17.1765 445.041 17.865 444.402 18.441C443.763 19.017 442.958 19.467 441.986 19.791C441.014 20.106 439.875 20.2635 438.57 20.2635H436.005V27H431.955V7.4115H438.57ZM457.618 16.74C458.068 16.74 458.428 16.704 458.698 16.632C458.977 16.56 459.188 16.452 459.332 16.308C459.485 16.164 459.584 15.9885 459.629 15.7815C459.683 15.5745 459.71 15.336 459.71 15.066C459.71 14.805 459.688 14.58 459.643 14.391C459.598 14.193 459.508 14.031 459.373 13.905C459.247 13.77 459.062 13.671 458.819 13.608C458.576 13.536 458.261 13.5 457.874 13.5H456.578V16.74H457.618ZM463.571 23.112C464.318 22.365 464.903 21.4875 465.326 20.4795C465.749 19.4715 465.961 18.378 465.961 17.199C465.961 16.425 465.866 15.6825 465.677 14.9715C465.488 14.2605 465.218 13.599 464.867 12.987C464.525 12.366 464.111 11.8035 463.625 11.2995C463.139 10.7955 462.595 10.3635 461.992 10.0035C461.398 9.6435 460.754 9.369 460.061 9.18C459.368 8.982 458.648 8.883 457.901 8.883C456.776 8.883 455.728 9.099 454.756 9.531C453.784 9.963 452.938 10.5525 452.218 11.2995C451.507 12.0465 450.944 12.9285 450.53 13.9455C450.125 14.9535 449.923 16.038 449.923 17.199C449.923 18.36 450.125 19.4445 450.53 20.4525C450.944 21.4515 451.507 22.3245 452.218 23.0715C452.938 23.8095 453.784 24.3945 454.756 24.8265C455.728 25.2495 456.776 25.461 457.901 25.461C458.99 25.461 460.007 25.2675 460.952 24.8805C461.897 24.4845 462.73 23.9355 463.45 23.2335H460.547C460.106 23.2335 459.796 23.076 459.616 22.761L457.982 19.3995C457.892 19.2645 457.789 19.1655 457.672 19.1025C457.564 19.0305 457.397 18.9945 457.172 18.9945H456.578V23.2335H453.352V11.097H457.874C459.611 11.097 460.88 11.403 461.681 12.015C462.482 12.627 462.883 13.5045 462.883 14.6475C462.883 15.4305 462.685 16.1235 462.289 16.7265C461.902 17.3295 461.29 17.775 460.453 18.063C460.687 18.189 460.88 18.351 461.033 18.549C461.186 18.738 461.33 18.963 461.465 19.224L463.571 23.112ZM457.901 7.1955C458.819 7.1955 459.706 7.317 460.561 7.56C461.416 7.794 462.212 8.127 462.95 8.559C463.697 8.991 464.372 9.513 464.975 10.125C465.587 10.737 466.109 11.412 466.541 12.15C466.982 12.888 467.32 13.6845 467.554 14.5395C467.797 15.3945 467.918 16.281 467.918 17.199C467.918 18.117 467.797 19.0035 467.554 19.8585C467.32 20.7045 466.982 21.4965 466.541 22.2345C466.109 22.9725 465.587 23.6475 464.975 24.2595C464.372 24.8715 463.697 25.3935 462.95 25.8255C462.212 26.2575 461.416 26.595 460.561 26.838C459.706 27.072 458.819 27.189 457.901 27.189C456.983 27.189 456.097 27.072 455.242 26.838C454.396 26.595 453.604 26.2575 452.866 25.8255C452.128 25.3935 451.453 24.8715 450.841 24.2595C450.229 23.6475 449.707 22.9725 449.275 22.2345C448.843 21.4965 448.505 20.7045 448.262 19.8585C448.028 19.0035 447.911 18.117 447.911 17.199C447.911 16.281 448.028 15.3945 448.262 14.5395C448.505 13.6845 448.843 12.888 449.275 12.15C449.707 11.412 450.229 10.737 450.841 10.125C451.453 9.513 452.128 8.991 452.866 8.559C453.604 8.127 454.396 7.794 455.242 7.56C456.097 7.317 456.983 7.1955 457.901 7.1955ZM41.7769 48.584V53.6195H48.3109V56.684H41.7769V61.8275H50.174V65H37.6999V45.4115H50.174V48.584H41.7769ZM55.8832 52.7015C56.1622 52.4315 56.4502 52.184 56.7472 51.959C57.0532 51.734 57.3727 51.5405 57.7057 51.3785C58.0477 51.2165 58.4122 51.0905 58.7992 51.0005C59.1952 50.9105 59.6227 50.8655 60.0817 50.8655C60.8377 50.8655 61.5082 50.996 62.0932 51.257C62.6782 51.518 63.1687 51.8825 63.5647 52.3505C63.9697 52.8185 64.2712 53.3765 64.4692 54.0245C64.6762 54.6725 64.7797 55.3835 64.7797 56.1575V65H61.0672V56.1575C61.0672 55.3835 60.8872 54.785 60.5272 54.362C60.1672 53.93 59.6362 53.714 58.9342 53.714C58.4122 53.714 57.9217 53.8265 57.4627 54.0515C57.0037 54.2765 56.5672 54.5915 56.1532 54.9965V65H52.4272V51.0815H54.7222C55.1902 51.0815 55.5007 51.2975 55.6537 51.7295L55.8832 52.7015ZM80.2416 51.0815L74.7741 65H71.3991L65.9316 51.0815H69.0231C69.2931 51.0815 69.5181 51.1445 69.6981 51.2705C69.8781 51.3965 70.0041 51.5585 70.0761 51.7565L72.4116 58.6415C72.5646 59.1095 72.6996 59.5685 72.8166 60.0185C72.9336 60.4595 73.0371 60.905 73.1271 61.355C73.2261 60.905 73.3341 60.4595 73.4511 60.0185C73.5771 59.5685 73.7211 59.1095 73.8831 58.6415L76.2996 51.7565C76.3626 51.5585 76.4841 51.3965 76.6641 51.2705C76.8441 51.1445 77.0556 51.0815 77.2986 51.0815H80.2416ZM85.6606 51.0815V65H81.9346V51.0815H85.6606ZM86.1061 47.126C86.1061 47.441 86.0431 47.7335 85.9171 48.0035C85.7911 48.2735 85.6201 48.512 85.4041 48.719C85.1971 48.926 84.9496 49.088 84.6616 49.205C84.3826 49.322 84.0811 49.3805 83.7571 49.3805C83.4511 49.3805 83.1586 49.322 82.8796 49.205C82.6096 49.088 82.3711 48.926 82.1641 48.719C81.9571 48.512 81.7906 48.2735 81.6646 48.0035C81.5476 47.7335 81.4891 47.441 81.4891 47.126C81.4891 46.811 81.5476 46.5185 81.6646 46.2485C81.7906 45.9695 81.9571 45.7265 82.1641 45.5195C82.3711 45.3125 82.6096 45.1505 82.8796 45.0335C83.1586 44.9165 83.4511 44.858 83.7571 44.858C84.0811 44.858 84.3826 44.9165 84.6616 45.0335C84.9496 45.1505 85.1971 45.3125 85.4041 45.5195C85.6201 45.7265 85.7911 45.9695 85.9171 46.2485C86.0431 46.5185 86.1061 46.811 86.1061 47.126ZM92.3368 53.3765C92.7778 52.5845 93.2863 51.959 93.8623 51.5C94.4383 51.041 95.1133 50.8115 95.8873 50.8115C96.5173 50.8115 97.0303 50.96 97.4263 51.257L97.1833 54.011C97.1383 54.191 97.0663 54.317 96.9673 54.389C96.8773 54.452 96.7513 54.4835 96.5893 54.4835C96.4453 54.4835 96.2383 54.4655 95.9683 54.4295C95.6983 54.3845 95.4463 54.362 95.2123 54.362C94.8703 54.362 94.5643 54.4115 94.2943 54.5105C94.0333 54.6095 93.7993 54.749 93.5923 54.929C93.3853 55.109 93.1963 55.3295 93.0253 55.5905C92.8633 55.8515 92.7103 56.1485 92.5663 56.4815V65H88.8403V51.0815H91.0408C91.4188 51.0815 91.6798 51.149 91.8238 51.284C91.9678 51.419 92.0713 51.653 92.1343 51.986L92.3368 53.3765ZM104.979 50.8655C106.023 50.8655 106.973 51.032 107.828 51.365C108.683 51.698 109.416 52.175 110.028 52.796C110.64 53.408 111.113 54.155 111.446 55.037C111.779 55.919 111.945 56.9135 111.945 58.0205C111.945 59.1275 111.779 60.1265 111.446 61.0175C111.113 61.8995 110.64 62.651 110.028 63.272C109.416 63.893 108.683 64.37 107.828 64.703C106.973 65.036 106.023 65.2025 104.979 65.2025C103.926 65.2025 102.968 65.036 102.104 64.703C101.249 64.37 100.515 63.893 99.9031 63.272C99.2911 62.651 98.8141 61.8995 98.4721 61.0175C98.1391 60.1265 97.9726 59.1275 97.9726 58.0205C97.9726 56.9135 98.1391 55.919 98.4721 55.037C98.8141 54.155 99.2911 53.408 99.9031 52.796C100.515 52.175 101.249 51.698 102.104 51.365C102.968 51.032 103.926 50.8655 104.979 50.8655ZM104.979 62.408C106.041 62.408 106.829 62.0435 107.342 61.3145C107.855 60.5765 108.111 59.483 108.111 58.034C108.111 56.594 107.855 55.5095 107.342 54.7805C106.829 54.0425 106.041 53.6735 104.979 53.6735C103.89 53.6735 103.089 54.0425 102.576 54.7805C102.063 55.5095 101.807 56.594 101.807 58.034C101.807 59.483 102.063 60.5765 102.576 61.3145C103.089 62.0435 103.89 62.408 104.979 62.408ZM117.741 52.7015C118.02 52.4315 118.308 52.184 118.605 51.959C118.911 51.734 119.23 51.5405 119.563 51.3785C119.905 51.2165 120.27 51.0905 120.657 51.0005C121.053 50.9105 121.48 50.8655 121.939 50.8655C122.695 50.8655 123.366 50.996 123.951 51.257C124.536 51.518 125.026 51.8825 125.422 52.3505C125.827 52.8185 126.129 53.3765 126.327 54.0245C126.534 54.6725 126.637 55.3835 126.637 56.1575V65H122.925V56.1575C122.925 55.3835 122.745 54.785 122.385 54.362C122.025 53.93 121.494 53.714 120.792 53.714C120.27 53.714 119.779 53.8265 119.32 54.0515C118.861 54.2765 118.425 54.5915 118.011 54.9965V65H114.285V51.0815H116.58C117.048 51.0815 117.358 51.2975 117.511 51.7295L117.741 52.7015ZM129.604 65V51.0815H131.899C132.367 51.0815 132.677 51.2975 132.83 51.7295L133.046 52.634C133.289 52.382 133.537 52.148 133.789 51.932C134.05 51.716 134.329 51.5315 134.626 51.3785C134.923 51.2165 135.242 51.0905 135.584 51.0005C135.935 50.9105 136.313 50.8655 136.718 50.8655C137.573 50.8655 138.28 51.095 138.838 51.554C139.396 52.004 139.819 52.607 140.107 53.363C140.332 52.922 140.606 52.544 140.93 52.229C141.263 51.905 141.623 51.644 142.01 51.446C142.406 51.248 142.82 51.104 143.252 51.014C143.693 50.915 144.134 50.8655 144.575 50.8655C145.358 50.8655 146.051 50.9825 146.654 51.2165C147.257 51.4505 147.761 51.797 148.166 52.256C148.58 52.706 148.895 53.2595 149.111 53.9165C149.327 54.5735 149.435 55.3205 149.435 56.1575V65H145.709V56.1575C145.709 54.5285 145.012 53.714 143.617 53.714C143.302 53.714 143.009 53.768 142.739 53.876C142.478 53.975 142.244 54.128 142.037 54.335C141.839 54.542 141.682 54.7985 141.565 55.1045C141.457 55.4105 141.403 55.7615 141.403 56.1575V65H137.677V56.1575C137.677 55.2755 137.501 54.65 137.15 54.281C136.808 53.903 136.3 53.714 135.625 53.714C135.193 53.714 134.783 53.8175 134.396 54.0245C134.018 54.2225 133.663 54.5015 133.33 54.8615V65H129.604ZM161.214 56.4005C161.214 56.0135 161.16 55.6445 161.052 55.2935C160.953 54.9425 160.791 54.632 160.566 54.362C160.341 54.092 160.058 53.8805 159.716 53.7275C159.374 53.5655 158.964 53.4845 158.487 53.4845C157.596 53.4845 156.899 53.7365 156.395 54.2405C155.891 54.7445 155.562 55.4645 155.409 56.4005H161.214ZM155.355 58.6145C155.472 59.9195 155.841 60.8735 156.462 61.4765C157.092 62.0795 157.911 62.381 158.919 62.381C159.432 62.381 159.873 62.3225 160.242 62.2055C160.62 62.0795 160.949 61.9445 161.228 61.8005C161.516 61.6475 161.772 61.5125 161.997 61.3955C162.231 61.2695 162.461 61.2065 162.686 61.2065C162.974 61.2065 163.199 61.3145 163.361 61.5305L164.441 62.8805C164.045 63.3395 163.608 63.722 163.131 64.028C162.654 64.325 162.159 64.5635 161.646 64.7435C161.133 64.9145 160.616 65.0315 160.094 65.0945C159.572 65.1665 159.068 65.2025 158.582 65.2025C157.61 65.2025 156.701 65.045 155.855 64.73C155.018 64.406 154.284 63.9335 153.654 63.3125C153.033 62.6825 152.543 61.904 152.183 60.977C151.823 60.05 151.643 58.9745 151.643 57.7505C151.643 56.8055 151.796 55.9145 152.102 55.0775C152.417 54.2405 152.867 53.5115 153.452 52.8905C154.037 52.2695 154.748 51.779 155.585 51.419C156.422 51.05 157.367 50.8655 158.42 50.8655C159.311 50.8655 160.13 51.0095 160.877 51.2975C161.633 51.5765 162.281 51.986 162.821 52.526C163.37 53.066 163.793 53.732 164.09 54.524C164.396 55.307 164.549 56.2025 164.549 57.2105C164.549 57.4895 164.535 57.719 164.508 57.899C164.481 58.079 164.436 58.223 164.373 58.331C164.31 58.439 164.225 58.5155 164.117 58.5605C164.009 58.5965 163.869 58.6145 163.698 58.6145H155.355ZM170.317 52.7015C170.596 52.4315 170.884 52.184 171.181 51.959C171.487 51.734 171.806 51.5405 172.139 51.3785C172.481 51.2165 172.846 51.0905 173.233 51.0005C173.629 50.9105 174.056 50.8655 174.515 50.8655C175.271 50.8655 175.942 50.996 176.527 51.257C177.112 51.518 177.602 51.8825 177.998 52.3505C178.403 52.8185 178.705 53.3765 178.903 54.0245C179.11 54.6725 179.213 55.3835 179.213 56.1575V65H175.501V56.1575C175.501 55.3835 175.321 54.785 174.961 54.362C174.601 53.93 174.07 53.714 173.368 53.714C172.846 53.714 172.355 53.8265 171.896 54.0515C171.437 54.2765 171.001 54.5915 170.587 54.9965V65H166.861V51.0815H169.156C169.624 51.0815 169.934 51.2975 170.087 51.7295L170.317 52.7015ZM186.802 65.216C186.172 65.216 185.614 65.126 185.128 64.946C184.642 64.757 184.232 64.4915 183.899 64.1495C183.566 63.8075 183.314 63.3935 183.143 62.9075C182.972 62.4215 182.887 61.8725 182.887 61.2605V53.7545H181.577C181.379 53.7545 181.208 53.6915 181.064 53.5655C180.929 53.4395 180.862 53.2505 180.862 52.9985V51.5405L183.089 51.1355L183.845 47.531C183.944 47.126 184.219 46.9235 184.669 46.9235H186.613V51.1625H190.204V53.7545H186.613V61.0175C186.613 61.4045 186.703 61.7105 186.883 61.9355C187.072 62.1605 187.337 62.273 187.679 62.273C187.859 62.273 188.012 62.255 188.138 62.219C188.264 62.174 188.372 62.129 188.462 62.084C188.552 62.03 188.633 61.985 188.705 61.949C188.786 61.904 188.867 61.8815 188.948 61.8815C189.056 61.8815 189.146 61.9085 189.218 61.9625C189.29 62.0075 189.362 62.0885 189.434 62.2055L190.555 63.9875C190.042 64.3925 189.461 64.6985 188.813 64.9055C188.165 65.1125 187.495 65.216 186.802 65.216ZM199.476 59.1815C198.567 59.2265 197.811 59.3075 197.208 59.4245C196.605 59.5325 196.124 59.6765 195.764 59.8565C195.413 60.0365 195.161 60.2435 195.008 60.4775C194.864 60.7025 194.792 60.95 194.792 61.22C194.792 61.76 194.94 62.1425 195.237 62.3675C195.543 62.5925 195.966 62.705 196.506 62.705C197.127 62.705 197.663 62.597 198.113 62.381C198.572 62.156 199.026 61.8095 199.476 61.3415V59.1815ZM191.889 53.012C192.708 52.274 193.613 51.725 194.603 51.365C195.593 50.996 196.664 50.8115 197.816 50.8115C198.644 50.8115 199.382 50.9465 200.03 51.2165C200.687 51.4865 201.24 51.8645 201.69 52.3505C202.149 52.8275 202.5 53.399 202.743 54.065C202.986 54.731 203.108 55.46 203.108 56.252V65H201.407C201.056 65 200.786 64.9505 200.597 64.8515C200.417 64.7525 200.268 64.5455 200.151 64.2305L199.854 63.3395C199.503 63.6455 199.161 63.9155 198.828 64.1495C198.504 64.3835 198.167 64.5815 197.816 64.7435C197.465 64.8965 197.087 65.0135 196.682 65.0945C196.286 65.1755 195.84 65.216 195.345 65.216C194.733 65.216 194.175 65.135 193.671 64.973C193.167 64.811 192.731 64.5725 192.362 64.2575C192.002 63.9335 191.723 63.533 191.525 63.056C191.327 62.579 191.228 62.03 191.228 61.409C191.228 60.896 191.358 60.383 191.619 59.87C191.88 59.357 192.326 58.8935 192.956 58.4795C193.595 58.0565 194.441 57.71 195.494 57.44C196.556 57.161 197.883 57.0035 199.476 56.9675V56.252C199.476 55.379 199.292 54.74 198.923 54.335C198.554 53.921 198.023 53.714 197.33 53.714C196.817 53.714 196.389 53.777 196.047 53.903C195.705 54.02 195.404 54.1505 195.143 54.2945C194.891 54.4295 194.652 54.56 194.427 54.686C194.202 54.803 193.941 54.8615 193.644 54.8615C193.383 54.8615 193.163 54.7985 192.983 54.6725C192.812 54.5375 192.668 54.38 192.551 54.2L191.889 53.012ZM209.769 44.8715V65H206.043V44.8715H209.769ZM230.403 49.1645C230.277 49.3715 230.146 49.5245 230.011 49.6235C229.885 49.7135 229.719 49.7585 229.512 49.7585C229.314 49.7585 229.098 49.691 228.864 49.556C228.639 49.412 228.373 49.259 228.067 49.097C227.761 48.935 227.41 48.7865 227.014 48.6515C226.618 48.5075 226.155 48.4355 225.624 48.4355C224.688 48.4355 223.986 48.647 223.518 49.07C223.05 49.484 222.816 50.0285 222.816 50.7035C222.816 51.1355 222.942 51.4955 223.194 51.7835C223.455 52.0625 223.792 52.3055 224.206 52.5125C224.629 52.7195 225.106 52.904 225.637 53.066C226.168 53.228 226.713 53.408 227.271 53.606C227.829 53.795 228.373 54.02 228.904 54.281C229.435 54.542 229.908 54.8705 230.322 55.2665C230.745 55.6625 231.082 56.1485 231.334 56.7245C231.595 57.2915 231.726 57.9845 231.726 58.8035C231.726 59.6945 231.568 60.5315 231.253 61.3145C230.947 62.0885 230.502 62.768 229.917 63.353C229.332 63.929 228.607 64.3835 227.743 64.7165C226.888 65.0495 225.916 65.216 224.827 65.216C224.206 65.216 223.585 65.153 222.964 65.027C222.352 64.901 221.758 64.7255 221.182 64.5005C220.615 64.2755 220.08 64.0055 219.576 63.6905C219.072 63.3755 218.631 63.0245 218.253 62.6375L219.441 60.7205C219.54 60.5765 219.67 60.4595 219.832 60.3695C219.994 60.2705 220.165 60.221 220.345 60.221C220.588 60.221 220.845 60.311 221.115 60.491C221.385 60.671 221.695 60.869 222.046 61.085C222.397 61.301 222.802 61.499 223.261 61.679C223.729 61.859 224.287 61.949 224.935 61.949C225.88 61.949 226.609 61.733 227.122 61.301C227.644 60.869 227.905 60.2255 227.905 59.3705C227.905 58.8755 227.775 58.475 227.514 58.169C227.262 57.863 226.929 57.6065 226.515 57.3995C226.101 57.1925 225.628 57.017 225.097 56.873C224.566 56.72 224.022 56.5535 223.464 56.3735C222.906 56.1935 222.361 55.9775 221.83 55.7255C221.299 55.4735 220.827 55.1405 220.413 54.7265C219.999 54.3125 219.661 53.7995 219.4 53.1875C219.148 52.5755 219.022 51.815 219.022 50.906C219.022 50.177 219.166 49.4705 219.454 48.7865C219.742 48.1025 220.165 47.495 220.723 46.964C221.281 46.433 221.965 46.0055 222.775 45.6815C223.594 45.3575 224.53 45.1955 225.583 45.1955C226.762 45.1955 227.851 45.38 228.85 45.749C229.858 46.109 230.709 46.613 231.402 47.261L230.403 49.1645ZM244.221 54.1865C244.113 54.3305 244.005 54.443 243.897 54.524C243.789 54.596 243.636 54.632 243.438 54.632C243.258 54.632 243.083 54.5825 242.912 54.4835C242.75 54.3755 242.561 54.263 242.345 54.146C242.129 54.02 241.872 53.9075 241.575 53.8085C241.278 53.7005 240.909 53.6465 240.468 53.6465C239.91 53.6465 239.424 53.75 239.01 53.957C238.605 54.155 238.268 54.443 237.998 54.821C237.728 55.199 237.525 55.658 237.39 56.198C237.264 56.738 237.201 57.3455 237.201 58.0205C237.201 59.4425 237.485 60.5315 238.052 61.2875C238.628 62.0435 239.411 62.4215 240.401 62.4215C240.743 62.4215 241.035 62.3945 241.278 62.3405C241.53 62.2775 241.746 62.201 241.926 62.111C242.115 62.021 242.277 61.922 242.412 61.814C242.547 61.706 242.673 61.607 242.79 61.517C242.916 61.427 243.038 61.355 243.155 61.301C243.281 61.238 243.42 61.2065 243.573 61.2065C243.861 61.2065 244.086 61.3145 244.248 61.5305L245.315 62.8805C244.919 63.3395 244.496 63.722 244.046 64.028C243.596 64.325 243.128 64.5635 242.642 64.7435C242.165 64.9145 241.679 65.0315 241.184 65.0945C240.689 65.1665 240.198 65.2025 239.712 65.2025C238.857 65.2025 238.047 65.045 237.282 64.73C236.517 64.406 235.847 63.938 235.271 63.326C234.695 62.714 234.236 61.9625 233.894 61.0715C233.561 60.1805 233.394 59.1635 233.394 58.0205C233.394 57.0035 233.543 56.0585 233.84 55.1855C234.137 54.3125 234.573 53.5565 235.149 52.9175C235.725 52.2785 236.436 51.779 237.282 51.419C238.137 51.05 239.123 50.8655 240.239 50.8655C241.301 50.8655 242.232 51.0365 243.033 51.3785C243.834 51.7205 244.554 52.2155 245.193 52.8635L244.221 54.1865ZM251.036 51.0815V65H247.31V51.0815H251.036ZM251.481 47.126C251.481 47.441 251.418 47.7335 251.292 48.0035C251.166 48.2735 250.995 48.512 250.779 48.719C250.572 48.926 250.325 49.088 250.037 49.205C249.758 49.322 249.456 49.3805 249.132 49.3805C248.826 49.3805 248.534 49.322 248.255 49.205C247.985 49.088 247.746 48.926 247.539 48.719C247.332 48.512 247.166 48.2735 247.04 48.0035C246.923 47.7335 246.864 47.441 246.864 47.126C246.864 46.811 246.923 46.5185 247.04 46.2485C247.166 45.9695 247.332 45.7265 247.539 45.5195C247.746 45.3125 247.985 45.1505 248.255 45.0335C248.534 44.9165 248.826 44.858 249.132 44.858C249.456 44.858 249.758 44.9165 250.037 45.0335C250.325 45.1505 250.572 45.3125 250.779 45.5195C250.995 45.7265 251.166 45.9695 251.292 46.2485C251.418 46.5185 251.481 46.811 251.481 47.126ZM263.044 56.4005C263.044 56.0135 262.99 55.6445 262.882 55.2935C262.783 54.9425 262.621 54.632 262.396 54.362C262.171 54.092 261.888 53.8805 261.546 53.7275C261.204 53.5655 260.794 53.4845 260.317 53.4845C259.426 53.4845 258.729 53.7365 258.225 54.2405C257.721 54.7445 257.392 55.4645 257.239 56.4005H263.044ZM257.185 58.6145C257.302 59.9195 257.671 60.8735 258.292 61.4765C258.922 62.0795 259.741 62.381 260.749 62.381C261.262 62.381 261.703 62.3225 262.072 62.2055C262.45 62.0795 262.779 61.9445 263.058 61.8005C263.346 61.6475 263.602 61.5125 263.827 61.3955C264.061 61.2695 264.291 61.2065 264.516 61.2065C264.804 61.2065 265.029 61.3145 265.191 61.5305L266.271 62.8805C265.875 63.3395 265.438 63.722 264.961 64.028C264.484 64.325 263.989 64.5635 263.476 64.7435C262.963 64.9145 262.446 65.0315 261.924 65.0945C261.402 65.1665 260.898 65.2025 260.412 65.2025C259.44 65.2025 258.531 65.045 257.685 64.73C256.848 64.406 256.114 63.9335 255.484 63.3125C254.863 62.6825 254.373 61.904 254.013 60.977C253.653 60.05 253.473 58.9745 253.473 57.7505C253.473 56.8055 253.626 55.9145 253.932 55.0775C254.247 54.2405 254.697 53.5115 255.282 52.8905C255.867 52.2695 256.578 51.779 257.415 51.419C258.252 51.05 259.197 50.8655 260.25 50.8655C261.141 50.8655 261.96 51.0095 262.707 51.2975C263.463 51.5765 264.111 51.986 264.651 52.526C265.2 53.066 265.623 53.732 265.92 54.524C266.226 55.307 266.379 56.2025 266.379 57.2105C266.379 57.4895 266.365 57.719 266.338 57.899C266.311 58.079 266.266 58.223 266.203 58.331C266.14 58.439 266.055 58.5155 265.947 58.5605C265.839 58.5965 265.699 58.6145 265.528 58.6145H257.185ZM272.147 52.7015C272.426 52.4315 272.714 52.184 273.011 51.959C273.317 51.734 273.636 51.5405 273.969 51.3785C274.311 51.2165 274.676 51.0905 275.063 51.0005C275.459 50.9105 275.886 50.8655 276.345 50.8655C277.101 50.8655 277.772 50.996 278.357 51.257C278.942 51.518 279.432 51.8825 279.828 52.3505C280.233 52.8185 280.535 53.3765 280.733 54.0245C280.94 54.6725 281.043 55.3835 281.043 56.1575V65H277.331V56.1575C277.331 55.3835 277.151 54.785 276.791 54.362C276.431 53.93 275.9 53.714 275.198 53.714C274.676 53.714 274.185 53.8265 273.726 54.0515C273.267 54.2765 272.831 54.5915 272.417 54.9965V65H268.691V51.0815H270.986C271.454 51.0815 271.764 51.2975 271.917 51.7295L272.147 52.7015ZM294.108 54.1865C294 54.3305 293.892 54.443 293.784 54.524C293.676 54.596 293.523 54.632 293.325 54.632C293.145 54.632 292.97 54.5825 292.799 54.4835C292.637 54.3755 292.448 54.263 292.232 54.146C292.016 54.02 291.759 53.9075 291.462 53.8085C291.165 53.7005 290.796 53.6465 290.355 53.6465C289.797 53.6465 289.311 53.75 288.897 53.957C288.492 54.155 288.155 54.443 287.885 54.821C287.615 55.199 287.412 55.658 287.277 56.198C287.151 56.738 287.088 57.3455 287.088 58.0205C287.088 59.4425 287.372 60.5315 287.939 61.2875C288.515 62.0435 289.298 62.4215 290.288 62.4215C290.63 62.4215 290.922 62.3945 291.165 62.3405C291.417 62.2775 291.633 62.201 291.813 62.111C292.002 62.021 292.164 61.922 292.299 61.814C292.434 61.706 292.56 61.607 292.677 61.517C292.803 61.427 292.925 61.355 293.042 61.301C293.168 61.238 293.307 61.2065 293.46 61.2065C293.748 61.2065 293.973 61.3145 294.135 61.5305L295.202 62.8805C294.806 63.3395 294.383 63.722 293.933 64.028C293.483 64.325 293.015 64.5635 292.529 64.7435C292.052 64.9145 291.566 65.0315 291.071 65.0945C290.576 65.1665 290.085 65.2025 289.599 65.2025C288.744 65.2025 287.934 65.045 287.169 64.73C286.404 64.406 285.734 63.938 285.158 63.326C284.582 62.714 284.123 61.9625 283.781 61.0715C283.448 60.1805 283.281 59.1635 283.281 58.0205C283.281 57.0035 283.43 56.0585 283.727 55.1855C284.024 54.3125 284.46 53.5565 285.036 52.9175C285.612 52.2785 286.323 51.779 287.169 51.419C288.024 51.05 289.01 50.8655 290.126 50.8655C291.188 50.8655 292.119 51.0365 292.92 51.3785C293.721 51.7205 294.441 52.2155 295.08 52.8635L294.108 54.1865ZM305.68 56.4005C305.68 56.0135 305.626 55.6445 305.518 55.2935C305.419 54.9425 305.257 54.632 305.032 54.362C304.807 54.092 304.524 53.8805 304.182 53.7275C303.84 53.5655 303.43 53.4845 302.953 53.4845C302.062 53.4845 301.365 53.7365 300.861 54.2405C300.357 54.7445 300.028 55.4645 299.875 56.4005H305.68ZM299.821 58.6145C299.938 59.9195 300.307 60.8735 300.928 61.4765C301.558 62.0795 302.377 62.381 303.385 62.381C303.898 62.381 304.339 62.3225 304.708 62.2055C305.086 62.0795 305.415 61.9445 305.694 61.8005C305.982 61.6475 306.238 61.5125 306.463 61.3955C306.697 61.2695 306.927 61.2065 307.152 61.2065C307.44 61.2065 307.665 61.3145 307.827 61.5305L308.907 62.8805C308.511 63.3395 308.074 63.722 307.597 64.028C307.12 64.325 306.625 64.5635 306.112 64.7435C305.599 64.9145 305.082 65.0315 304.56 65.0945C304.038 65.1665 303.534 65.2025 303.048 65.2025C302.076 65.2025 301.167 65.045 300.321 64.73C299.484 64.406 298.75 63.9335 298.12 63.3125C297.499 62.6825 297.009 61.904 296.649 60.977C296.289 60.05 296.109 58.9745 296.109 57.7505C296.109 56.8055 296.262 55.9145 296.568 55.0775C296.883 54.2405 297.333 53.5115 297.918 52.8905C298.503 52.2695 299.214 51.779 300.051 51.419C300.888 51.05 301.833 50.8655 302.886 50.8655C303.777 50.8655 304.596 51.0095 305.343 51.2975C306.099 51.5765 306.747 51.986 307.287 52.526C307.836 53.066 308.259 53.732 308.556 54.524C308.862 55.307 309.015 56.2025 309.015 57.2105C309.015 57.4895 309.001 57.719 308.974 57.899C308.947 58.079 308.902 58.223 308.839 58.331C308.776 58.439 308.691 58.5155 308.583 58.5605C308.475 58.5965 308.335 58.6145 308.164 58.6145H299.821ZM328.858 49.1645C328.732 49.3715 328.601 49.5245 328.466 49.6235C328.34 49.7135 328.174 49.7585 327.967 49.7585C327.769 49.7585 327.553 49.691 327.319 49.556C327.094 49.412 326.828 49.259 326.522 49.097C326.216 48.935 325.865 48.7865 325.469 48.6515C325.073 48.5075 324.61 48.4355 324.079 48.4355C323.143 48.4355 322.441 48.647 321.973 49.07C321.505 49.484 321.271 50.0285 321.271 50.7035C321.271 51.1355 321.397 51.4955 321.649 51.7835C321.91 52.0625 322.247 52.3055 322.661 52.5125C323.084 52.7195 323.561 52.904 324.092 53.066C324.623 53.228 325.168 53.408 325.726 53.606C326.284 53.795 326.828 54.02 327.359 54.281C327.89 54.542 328.363 54.8705 328.777 55.2665C329.2 55.6625 329.537 56.1485 329.789 56.7245C330.05 57.2915 330.181 57.9845 330.181 58.8035C330.181 59.6945 330.023 60.5315 329.708 61.3145C329.402 62.0885 328.957 62.768 328.372 63.353C327.787 63.929 327.062 64.3835 326.198 64.7165C325.343 65.0495 324.371 65.216 323.282 65.216C322.661 65.216 322.04 65.153 321.419 65.027C320.807 64.901 320.213 64.7255 319.637 64.5005C319.07 64.2755 318.535 64.0055 318.031 63.6905C317.527 63.3755 317.086 63.0245 316.708 62.6375L317.896 60.7205C317.995 60.5765 318.125 60.4595 318.287 60.3695C318.449 60.2705 318.62 60.221 318.8 60.221C319.043 60.221 319.3 60.311 319.57 60.491C319.84 60.671 320.15 60.869 320.501 61.085C320.852 61.301 321.257 61.499 321.716 61.679C322.184 61.859 322.742 61.949 323.39 61.949C324.335 61.949 325.064 61.733 325.577 61.301C326.099 60.869 326.36 60.2255 326.36 59.3705C326.36 58.8755 326.23 58.475 325.969 58.169C325.717 57.863 325.384 57.6065 324.97 57.3995C324.556 57.1925 324.083 57.017 323.552 56.873C323.021 56.72 322.477 56.5535 321.919 56.3735C321.361 56.1935 320.816 55.9775 320.285 55.7255C319.754 55.4735 319.282 55.1405 318.868 54.7265C318.454 54.3125 318.116 53.7995 317.855 53.1875C317.603 52.5755 317.477 51.815 317.477 50.906C317.477 50.177 317.621 49.4705 317.909 48.7865C318.197 48.1025 318.62 47.495 319.178 46.964C319.736 46.433 320.42 46.0055 321.23 45.6815C322.049 45.3575 322.985 45.1955 324.038 45.1955C325.217 45.1955 326.306 45.38 327.305 45.749C328.313 46.109 329.164 46.613 329.857 47.261L328.858 49.1645ZM342.677 54.1865C342.569 54.3305 342.461 54.443 342.353 54.524C342.245 54.596 342.092 54.632 341.894 54.632C341.714 54.632 341.538 54.5825 341.367 54.4835C341.205 54.3755 341.016 54.263 340.8 54.146C340.584 54.02 340.328 53.9075 340.031 53.8085C339.734 53.7005 339.365 53.6465 338.924 53.6465C338.366 53.6465 337.88 53.75 337.466 53.957C337.061 54.155 336.723 54.443 336.453 54.821C336.183 55.199 335.981 55.658 335.846 56.198C335.72 56.738 335.657 57.3455 335.657 58.0205C335.657 59.4425 335.94 60.5315 336.507 61.2875C337.083 62.0435 337.866 62.4215 338.856 62.4215C339.198 62.4215 339.491 62.3945 339.734 62.3405C339.986 62.2775 340.202 62.201 340.382 62.111C340.571 62.021 340.733 61.922 340.868 61.814C341.003 61.706 341.129 61.607 341.246 61.517C341.372 61.427 341.493 61.355 341.61 61.301C341.736 61.238 341.876 61.2065 342.029 61.2065C342.317 61.2065 342.542 61.3145 342.704 61.5305L343.77 62.8805C343.374 63.3395 342.951 63.722 342.501 64.028C342.051 64.325 341.583 64.5635 341.097 64.7435C340.62 64.9145 340.134 65.0315 339.639 65.0945C339.144 65.1665 338.654 65.2025 338.168 65.2025C337.313 65.2025 336.503 65.045 335.738 64.73C334.973 64.406 334.302 63.938 333.726 63.326C333.15 62.714 332.691 61.9625 332.349 61.0715C332.016 60.1805 331.85 59.1635 331.85 58.0205C331.85 57.0035 331.998 56.0585 332.295 55.1855C332.592 54.3125 333.029 53.5565 333.605 52.9175C334.181 52.2785 334.892 51.779 335.738 51.419C336.593 51.05 337.578 50.8655 338.694 50.8655C339.756 50.8655 340.688 51.0365 341.489 51.3785C342.29 51.7205 343.01 52.2155 343.649 52.8635L342.677 54.1865ZM351.697 50.8655C352.741 50.8655 353.69 51.032 354.545 51.365C355.4 51.698 356.134 52.175 356.746 52.796C357.358 53.408 357.83 54.155 358.163 55.037C358.496 55.919 358.663 56.9135 358.663 58.0205C358.663 59.1275 358.496 60.1265 358.163 61.0175C357.83 61.8995 357.358 62.651 356.746 63.272C356.134 63.893 355.4 64.37 354.545 64.703C353.69 65.036 352.741 65.2025 351.697 65.2025C350.644 65.2025 349.685 65.036 348.821 64.703C347.966 64.37 347.233 63.893 346.621 63.272C346.009 62.651 345.532 61.8995 345.19 61.0175C344.857 60.1265 344.69 59.1275 344.69 58.0205C344.69 56.9135 344.857 55.919 345.19 55.037C345.532 54.155 346.009 53.408 346.621 52.796C347.233 52.175 347.966 51.698 348.821 51.365C349.685 51.032 350.644 50.8655 351.697 50.8655ZM351.697 62.408C352.759 62.408 353.546 62.0435 354.059 61.3145C354.572 60.5765 354.829 59.483 354.829 58.034C354.829 56.594 354.572 55.5095 354.059 54.7805C353.546 54.0425 352.759 53.6735 351.697 53.6735C350.608 53.6735 349.807 54.0425 349.294 54.7805C348.781 55.5095 348.524 56.594 348.524 58.034C348.524 59.483 348.781 60.5765 349.294 61.3145C349.807 62.0435 350.608 62.408 351.697 62.408ZM364.499 53.3765C364.94 52.5845 365.448 51.959 366.024 51.5C366.6 51.041 367.275 50.8115 368.049 50.8115C368.679 50.8115 369.192 50.96 369.588 51.257L369.345 54.011C369.3 54.191 369.228 54.317 369.129 54.389C369.039 54.452 368.913 54.4835 368.751 54.4835C368.607 54.4835 368.4 54.4655 368.13 54.4295C367.86 54.3845 367.608 54.362 367.374 54.362C367.032 54.362 366.726 54.4115 366.456 54.5105C366.195 54.6095 365.961 54.749 365.754 54.929C365.547 55.109 365.358 55.3295 365.187 55.5905C365.025 55.8515 364.872 56.1485 364.728 56.4815V65H361.002V51.0815H363.203C363.581 51.0815 363.842 51.149 363.986 51.284C364.13 51.419 364.233 51.653 364.296 51.986L364.499 53.3765ZM379.693 56.4005C379.693 56.0135 379.639 55.6445 379.531 55.2935C379.432 54.9425 379.27 54.632 379.045 54.362C378.82 54.092 378.536 53.8805 378.194 53.7275C377.852 53.5655 377.443 53.4845 376.966 53.4845C376.075 53.4845 375.377 53.7365 374.873 54.2405C374.369 54.7445 374.041 55.4645 373.888 56.4005H379.693ZM373.834 58.6145C373.951 59.9195 374.32 60.8735 374.941 61.4765C375.571 62.0795 376.39 62.381 377.398 62.381C377.911 62.381 378.352 62.3225 378.721 62.2055C379.099 62.0795 379.427 61.9445 379.706 61.8005C379.994 61.6475 380.251 61.5125 380.476 61.3955C380.71 61.2695 380.939 61.2065 381.164 61.2065C381.452 61.2065 381.677 61.3145 381.839 61.5305L382.919 62.8805C382.523 63.3395 382.087 63.722 381.61 64.028C381.133 64.325 380.638 64.5635 380.125 64.7435C379.612 64.9145 379.094 65.0315 378.572 65.0945C378.05 65.1665 377.546 65.2025 377.06 65.2025C376.088 65.2025 375.179 65.045 374.333 64.73C373.496 64.406 372.763 63.9335 372.133 63.3125C371.512 62.6825 371.021 61.904 370.661 60.977C370.301 60.05 370.121 58.9745 370.121 57.7505C370.121 56.8055 370.274 55.9145 370.58 55.0775C370.895 54.2405 371.345 53.5115 371.93 52.8905C372.515 52.2695 373.226 51.779 374.063 51.419C374.9 51.05 375.845 50.8655 376.898 50.8655C377.789 50.8655 378.608 51.0095 379.355 51.2975C380.111 51.5765 380.759 51.986 381.299 52.526C381.848 53.066 382.271 53.732 382.568 54.524C382.874 55.307 383.027 56.2025 383.027 57.2105C383.027 57.4895 383.014 57.719 382.987 57.899C382.96 58.079 382.915 58.223 382.852 58.331C382.789 58.439 382.703 58.5155 382.595 58.5605C382.487 58.5965 382.348 58.6145 382.177 58.6145H373.834ZM393.993 53.9435C393.894 54.0965 393.79 54.209 393.682 54.281C393.583 54.344 393.444 54.3755 393.264 54.3755C393.084 54.3755 392.899 54.3305 392.71 54.2405C392.521 54.1505 392.31 54.056 392.076 53.957C391.842 53.849 391.572 53.75 391.266 53.66C390.969 53.57 390.622 53.525 390.226 53.525C389.623 53.525 389.155 53.651 388.822 53.903C388.489 54.146 388.323 54.47 388.323 54.875C388.323 55.154 388.417 55.388 388.606 55.577C388.795 55.766 389.043 55.9325 389.349 56.0765C389.664 56.2115 390.019 56.342 390.415 56.468C390.811 56.585 391.216 56.7155 391.63 56.8595C392.053 57.0035 392.463 57.17 392.859 57.359C393.255 57.548 393.606 57.7865 393.912 58.0745C394.227 58.3535 394.479 58.6955 394.668 59.1005C394.857 59.4965 394.951 59.978 394.951 60.545C394.951 61.22 394.825 61.8455 394.573 62.4215C394.33 62.9885 393.97 63.479 393.493 63.893C393.016 64.307 392.422 64.631 391.711 64.865C391 65.099 390.181 65.216 389.254 65.216C388.777 65.216 388.305 65.171 387.837 65.081C387.369 65 386.923 64.883 386.5 64.73C386.077 64.568 385.681 64.3835 385.312 64.1765C384.943 63.9695 384.624 63.7445 384.354 63.5015L385.218 62.111C385.317 61.949 385.438 61.823 385.582 61.733C385.735 61.643 385.929 61.598 386.163 61.598C386.388 61.598 386.595 61.6565 386.784 61.7735C386.973 61.8815 387.184 62.003 387.418 62.138C387.652 62.264 387.927 62.3855 388.242 62.5025C388.566 62.6105 388.966 62.6645 389.443 62.6645C389.803 62.6645 390.114 62.624 390.375 62.543C390.636 62.462 390.847 62.354 391.009 62.219C391.171 62.075 391.288 61.9175 391.36 61.7465C391.441 61.5665 391.482 61.382 391.482 61.193C391.482 60.887 391.383 60.6395 391.185 60.4505C390.996 60.2525 390.744 60.0815 390.429 59.9375C390.123 59.7935 389.767 59.663 389.362 59.546C388.957 59.429 388.543 59.2985 388.12 59.1545C387.706 59.0105 387.297 58.8395 386.892 58.6415C386.496 58.4435 386.14 58.196 385.825 57.899C385.519 57.593 385.267 57.2195 385.069 56.7785C384.88 56.3375 384.786 55.802 384.786 55.172C384.786 54.596 384.898 54.0515 385.123 53.5385C385.348 53.0165 385.686 52.5575 386.136 52.1615C386.586 51.7655 387.144 51.4505 387.81 51.2165C388.485 50.9825 389.263 50.8655 390.145 50.8655C391.135 50.8655 392.035 51.0275 392.845 51.3515C393.655 51.6755 394.321 52.0985 394.843 52.6205L393.993 53.9435ZM409.968 50.8655C411.012 50.8655 411.962 51.032 412.817 51.365C413.672 51.698 414.405 52.175 415.017 52.796C415.629 53.408 416.102 54.155 416.435 55.037C416.768 55.919 416.934 56.9135 416.934 58.0205C416.934 59.1275 416.768 60.1265 416.435 61.0175C416.102 61.8995 415.629 62.651 415.017 63.272C414.405 63.893 413.672 64.37 412.817 64.703C411.962 65.036 411.012 65.2025 409.968 65.2025C408.915 65.2025 407.957 65.036 407.093 64.703C406.238 64.37 405.504 63.893 404.892 63.272C404.28 62.651 403.803 61.8995 403.461 61.0175C403.128 60.1265 402.962 59.1275 402.962 58.0205C402.962 56.9135 403.128 55.919 403.461 55.037C403.803 54.155 404.28 53.408 404.892 52.796C405.504 52.175 406.238 51.698 407.093 51.365C407.957 51.032 408.915 50.8655 409.968 50.8655ZM409.968 62.408C411.03 62.408 411.818 62.0435 412.331 61.3145C412.844 60.5765 413.1 59.483 413.1 58.034C413.1 56.594 412.844 55.5095 412.331 54.7805C411.818 54.0425 411.03 53.6735 409.968 53.6735C408.879 53.6735 408.078 54.0425 407.565 54.7805C407.052 55.5095 406.796 56.594 406.796 58.034C406.796 59.483 407.052 60.5765 407.565 61.3145C408.078 62.0435 408.879 62.408 409.968 62.408ZM419.917 65V53.7545L418.837 53.5655C418.558 53.5115 418.329 53.4125 418.149 53.2685C417.978 53.1245 417.892 52.9175 417.892 52.6475V51.1625H419.917V50.2445C419.917 49.4525 420.039 48.737 420.282 48.098C420.534 47.45 420.889 46.9055 421.348 46.4645C421.807 46.0145 422.37 45.668 423.036 45.425C423.702 45.182 424.453 45.0605 425.29 45.0605C425.614 45.0605 425.92 45.083 426.208 45.128C426.505 45.164 426.802 45.2225 427.099 45.3035L427.018 47.1395C427 47.4185 426.879 47.603 426.654 47.693C426.438 47.774 426.195 47.8145 425.925 47.8145C425.547 47.8145 425.205 47.855 424.899 47.936C424.602 48.017 424.35 48.1565 424.143 48.3545C423.936 48.5435 423.778 48.8045 423.67 49.1375C423.562 49.4615 423.508 49.8665 423.508 50.3525V51.1625H426.964V53.7545H423.63V65H419.917ZM434.364 50.933C434.508 49.979 434.778 49.142 435.174 48.422C435.57 47.702 436.065 47.1035 436.659 46.6265C437.253 46.1495 437.928 45.794 438.684 45.56C439.449 45.317 440.273 45.1955 441.155 45.1955C442.091 45.1955 442.928 45.3305 443.666 45.6005C444.413 45.8615 445.043 46.2215 445.556 46.6805C446.069 47.1395 446.46 47.675 446.73 48.287C447.009 48.899 447.149 49.556 447.149 50.258C447.149 50.879 447.081 51.428 446.946 51.905C446.82 52.373 446.627 52.7825 446.366 53.1335C446.114 53.4845 445.799 53.7815 445.421 54.0245C445.052 54.2675 444.624 54.47 444.138 54.632C446.388 55.37 447.513 56.8685 447.513 59.1275C447.513 60.1265 447.329 61.0085 446.96 61.7735C446.591 62.5295 446.096 63.164 445.475 63.677C444.854 64.19 444.129 64.577 443.301 64.838C442.482 65.09 441.623 65.216 440.723 65.216C439.769 65.216 438.927 65.108 438.198 64.892C437.469 64.676 436.826 64.352 436.268 63.92C435.719 63.488 435.246 62.948 434.85 62.3C434.454 61.643 434.108 60.878 433.811 60.005L435.458 59.33C435.89 59.15 436.29 59.1005 436.659 59.1815C437.037 59.2625 437.307 59.4605 437.469 59.7755C437.649 60.1175 437.838 60.4325 438.036 60.7205C438.243 61.0085 438.473 61.2605 438.725 61.4765C438.977 61.6835 439.26 61.8455 439.575 61.9625C439.899 62.0795 440.268 62.138 440.682 62.138C441.204 62.138 441.659 62.0525 442.046 61.8815C442.433 61.7105 442.757 61.49 443.018 61.22C443.279 60.941 443.472 60.6305 443.598 60.2885C443.733 59.9375 443.801 59.591 443.801 59.249C443.801 58.799 443.76 58.394 443.679 58.034C443.598 57.665 443.409 57.3545 443.112 57.1025C442.824 56.8415 442.392 56.6435 441.816 56.5085C441.249 56.3645 440.475 56.2925 439.494 56.2925V53.6735C440.313 53.6735 440.984 53.606 441.506 53.471C442.028 53.336 442.437 53.147 442.734 52.904C443.031 52.661 443.234 52.3685 443.342 52.0265C443.459 51.6845 443.517 51.311 443.517 50.906C443.517 50.051 443.292 49.3985 442.842 48.9485C442.401 48.4985 441.771 48.2735 440.952 48.2735C440.592 48.2735 440.259 48.3275 439.953 48.4355C439.656 48.5345 439.386 48.674 439.143 48.854C438.909 49.034 438.707 49.2455 438.536 49.4885C438.365 49.7315 438.239 49.997 438.158 50.285C437.987 50.735 437.766 51.0365 437.496 51.1895C437.226 51.3335 436.835 51.365 436.322 51.284L434.364 50.933ZM463.148 57.2915H458.018V62.759H454.994V57.2915H449.891V54.578H454.994V49.124H458.018V54.578H463.148V57.2915Z" fill="#2B6296"/>
<path d="M109.597 476.132H115.573V483.32C114.685 483.968 113.737 484.444 112.729 484.748C111.729 485.044 110.669 485.192 109.549 485.192C108.117 485.192 106.821 484.972 105.661 484.532C104.501 484.084 103.509 483.464 102.685 482.672C101.861 481.88 101.225 480.94 100.777 479.852C100.329 478.764 100.105 477.576 100.105 476.288C100.105 474.984 100.317 473.788 100.741 472.7C101.173 471.612 101.785 470.676 102.577 469.892C103.369 469.108 104.325 468.496 105.445 468.056C106.573 467.616 107.833 467.396 109.225 467.396C109.945 467.396 110.617 467.456 111.241 467.576C111.865 467.688 112.441 467.848 112.969 468.056C113.497 468.256 113.981 468.496 114.421 468.776C114.861 469.056 115.261 469.364 115.621 469.7L114.577 471.308C114.417 471.564 114.209 471.72 113.953 471.776C113.697 471.832 113.417 471.768 113.113 471.584C112.825 471.408 112.541 471.252 112.261 471.116C111.989 470.972 111.697 470.848 111.385 470.744C111.073 470.64 110.733 470.56 110.365 470.504C109.997 470.448 109.573 470.42 109.093 470.42C108.285 470.42 107.553 470.56 106.897 470.84C106.241 471.12 105.681 471.516 105.217 472.028C104.761 472.54 104.409 473.156 104.161 473.876C103.913 474.596 103.789 475.4 103.789 476.288C103.789 477.248 103.925 478.108 104.197 478.868C104.469 479.62 104.853 480.256 105.349 480.776C105.845 481.296 106.437 481.692 107.125 481.964C107.821 482.236 108.593 482.372 109.441 482.372C110.017 482.372 110.529 482.316 110.977 482.204C111.433 482.084 111.877 481.924 112.309 481.724V478.796H110.341C110.109 478.796 109.925 478.736 109.789 478.616C109.661 478.488 109.597 478.328 109.597 478.136V476.132ZM121.372 467.108V485H118.06V467.108H121.372ZM129.71 472.436C130.638 472.436 131.482 472.584 132.242 472.88C133.002 473.176 133.654 473.6 134.198 474.152C134.742 474.696 135.162 475.36 135.458 476.144C135.754 476.928 135.902 477.812 135.902 478.796C135.902 479.78 135.754 480.668 135.458 481.46C135.162 482.244 134.742 482.912 134.198 483.464C133.654 484.016 133.002 484.44 132.242 484.736C131.482 485.032 130.638 485.18 129.71 485.18C128.774 485.18 127.922 485.032 127.154 484.736C126.394 484.44 125.742 484.016 125.198 483.464C124.654 482.912 124.23 482.244 123.926 481.46C123.63 480.668 123.482 479.78 123.482 478.796C123.482 477.812 123.63 476.928 123.926 476.144C124.23 475.36 124.654 474.696 125.198 474.152C125.742 473.6 126.394 473.176 127.154 472.88C127.922 472.584 128.774 472.436 129.71 472.436ZM129.71 482.696C130.654 482.696 131.354 482.372 131.81 481.724C132.266 481.068 132.494 480.096 132.494 478.808C132.494 477.528 132.266 476.564 131.81 475.916C131.354 475.26 130.654 474.932 129.71 474.932C128.742 474.932 128.03 475.26 127.574 475.916C127.118 476.564 126.89 477.528 126.89 478.808C126.89 480.096 127.118 481.068 127.574 481.724C128.03 482.372 128.742 482.696 129.71 482.696ZM141.293 481.736C141.605 482.096 141.941 482.348 142.301 482.492C142.669 482.636 143.049 482.708 143.441 482.708C143.849 482.708 144.217 482.636 144.545 482.492C144.881 482.34 145.169 482.104 145.409 481.784C145.649 481.456 145.833 481.032 145.961 480.512C146.089 479.992 146.153 479.364 146.153 478.628C146.153 477.972 146.101 477.416 145.997 476.96C145.893 476.496 145.737 476.116 145.529 475.82C145.329 475.524 145.081 475.308 144.785 475.172C144.489 475.036 144.145 474.968 143.753 474.968C143.233 474.968 142.781 475.084 142.397 475.316C142.021 475.54 141.653 475.872 141.293 476.312V481.736ZM141.293 474.056C141.781 473.568 142.321 473.176 142.913 472.88C143.505 472.584 144.169 472.436 144.905 472.436C145.617 472.436 146.257 472.58 146.825 472.868C147.401 473.148 147.889 473.552 148.289 474.08C148.697 474.608 149.009 475.248 149.225 476C149.449 476.744 149.561 477.58 149.561 478.508C149.561 479.508 149.433 480.42 149.177 481.244C148.929 482.06 148.573 482.76 148.109 483.344C147.645 483.928 147.089 484.38 146.441 484.7C145.801 485.02 145.085 485.18 144.293 485.18C143.909 485.18 143.565 485.14 143.261 485.06C142.957 484.988 142.677 484.884 142.421 484.748C142.165 484.612 141.929 484.452 141.713 484.268C141.497 484.076 141.293 483.864 141.101 483.632L140.969 484.376C140.913 484.608 140.821 484.772 140.693 484.868C140.565 484.956 140.393 485 140.177 485H137.981V467.108H141.293V474.056ZM158.16 479.828C157.352 479.868 156.68 479.94 156.144 480.044C155.608 480.14 155.18 480.268 154.86 480.428C154.548 480.588 154.324 480.772 154.188 480.98C154.06 481.18 153.996 481.4 153.996 481.64C153.996 482.12 154.128 482.46 154.392 482.66C154.664 482.86 155.04 482.96 155.52 482.96C156.072 482.96 156.548 482.864 156.948 482.672C157.356 482.472 157.76 482.164 158.16 481.748V479.828ZM151.416 474.344C152.144 473.688 152.948 473.2 153.828 472.88C154.708 472.552 155.66 472.388 156.684 472.388C157.42 472.388 158.076 472.508 158.652 472.748C159.236 472.988 159.728 473.324 160.128 473.756C160.536 474.18 160.848 474.688 161.064 475.28C161.28 475.872 161.388 476.52 161.388 477.224V485H159.876C159.564 485 159.324 484.956 159.156 484.868C158.996 484.78 158.864 484.596 158.76 484.316L158.496 483.524C158.184 483.796 157.88 484.036 157.584 484.244C157.296 484.452 156.996 484.628 156.684 484.772C156.372 484.908 156.036 485.012 155.676 485.084C155.324 485.156 154.928 485.192 154.488 485.192C153.944 485.192 153.448 485.12 153 484.976C152.552 484.832 152.164 484.62 151.836 484.34C151.516 484.052 151.268 483.696 151.092 483.272C150.916 482.848 150.828 482.36 150.828 481.808C150.828 481.352 150.944 480.896 151.176 480.44C151.408 479.984 151.804 479.572 152.364 479.204C152.932 478.828 153.684 478.52 154.62 478.28C155.564 478.032 156.744 477.892 158.16 477.86V477.224C158.16 476.448 157.996 475.88 157.668 475.52C157.34 475.152 156.868 474.968 156.252 474.968C155.796 474.968 155.416 475.024 155.112 475.136C154.808 475.24 154.54 475.356 154.308 475.484C154.084 475.604 153.872 475.72 153.672 475.832C153.472 475.936 153.24 475.988 152.976 475.988C152.744 475.988 152.548 475.932 152.388 475.82C152.236 475.7 152.108 475.56 152.004 475.4L151.416 474.344ZM167.309 467.108V485H163.997V467.108H167.309Z" fill="#4F5355"/>
<path d="M327.917 476.132H333.893V483.32C333.005 483.968 332.057 484.444 331.049 484.748C330.049 485.044 328.989 485.192 327.869 485.192C326.437 485.192 325.141 484.972 323.981 484.532C322.821 484.084 321.829 483.464 321.005 482.672C320.181 481.88 319.545 480.94 319.097 479.852C318.649 478.764 318.425 477.576 318.425 476.288C318.425 474.984 318.637 473.788 319.061 472.7C319.493 471.612 320.105 470.676 320.897 469.892C321.689 469.108 322.645 468.496 323.765 468.056C324.893 467.616 326.153 467.396 327.545 467.396C328.265 467.396 328.937 467.456 329.561 467.576C330.185 467.688 330.761 467.848 331.289 468.056C331.817 468.256 332.301 468.496 332.741 468.776C333.181 469.056 333.581 469.364 333.941 469.7L332.897 471.308C332.737 471.564 332.529 471.72 332.273 471.776C332.017 471.832 331.737 471.768 331.433 471.584C331.145 471.408 330.861 471.252 330.581 471.116C330.309 470.972 330.017 470.848 329.705 470.744C329.393 470.64 329.053 470.56 328.685 470.504C328.317 470.448 327.893 470.42 327.413 470.42C326.605 470.42 325.873 470.56 325.217 470.84C324.561 471.12 324.001 471.516 323.537 472.028C323.081 472.54 322.729 473.156 322.481 473.876C322.233 474.596 322.109 475.4 322.109 476.288C322.109 477.248 322.245 478.108 322.517 478.868C322.789 479.62 323.173 480.256 323.669 480.776C324.165 481.296 324.757 481.692 325.445 481.964C326.141 482.236 326.913 482.372 327.761 482.372C328.337 482.372 328.849 482.316 329.297 482.204C329.753 482.084 330.197 481.924 330.629 481.724V478.796H328.661C328.429 478.796 328.245 478.736 328.109 478.616C327.981 478.488 327.917 478.328 327.917 478.136V476.132ZM342.284 475.832C342.868 475.832 343.372 475.76 343.796 475.616C344.22 475.464 344.568 475.26 344.84 475.004C345.112 474.74 345.312 474.432 345.44 474.08C345.568 473.728 345.632 473.344 345.632 472.928C345.632 472.104 345.356 471.464 344.804 471.008C344.26 470.552 343.428 470.324 342.308 470.324H340.436V475.832H342.284ZM350.72 485H347.468C346.86 485 346.42 484.768 346.148 484.304L342.836 478.964C342.7 478.756 342.548 478.604 342.38 478.508C342.22 478.412 341.98 478.364 341.66 478.364H340.436V485H336.836V467.588H342.308C343.524 467.588 344.564 467.716 345.428 467.972C346.292 468.22 347 468.568 347.552 469.016C348.104 469.464 348.508 470 348.764 470.624C349.02 471.24 349.148 471.92 349.148 472.664C349.148 473.24 349.064 473.788 348.896 474.308C348.736 474.82 348.5 475.288 348.188 475.712C347.876 476.136 347.492 476.512 347.036 476.84C346.58 477.168 346.06 477.432 345.476 477.632C345.708 477.76 345.924 477.916 346.124 478.1C346.324 478.276 346.504 478.488 346.664 478.736L350.72 485ZM367.338 467.588V485H363.714V477.5H356.046V485H352.422V467.588H356.046V474.98H363.714V467.588H367.338ZM380.416 470.924C380.304 471.108 380.188 471.244 380.068 471.332C379.956 471.412 379.808 471.452 379.624 471.452C379.448 471.452 379.256 471.392 379.048 471.272C378.848 471.144 378.612 471.008 378.34 470.864C378.068 470.72 377.756 470.588 377.404 470.468C377.052 470.34 376.64 470.276 376.168 470.276C375.336 470.276 374.712 470.464 374.296 470.84C373.88 471.208 373.672 471.692 373.672 472.292C373.672 472.676 373.784 472.996 374.008 473.252C374.24 473.5 374.54 473.716 374.908 473.9C375.284 474.084 375.708 474.248 376.18 474.392C376.652 474.536 377.136 474.696 377.632 474.872C378.128 475.04 378.612 475.24 379.084 475.472C379.556 475.704 379.976 475.996 380.344 476.348C380.72 476.7 381.02 477.132 381.244 477.644C381.476 478.148 381.592 478.764 381.592 479.492C381.592 480.284 381.452 481.028 381.172 481.724C380.9 482.412 380.504 483.016 379.984 483.536C379.464 484.048 378.82 484.452 378.052 484.748C377.292 485.044 376.428 485.192 375.46 485.192C374.908 485.192 374.356 485.136 373.804 485.024C373.26 484.912 372.732 484.756 372.22 484.556C371.716 484.356 371.24 484.116 370.792 483.836C370.344 483.556 369.952 483.244 369.616 482.9L370.672 481.196C370.76 481.068 370.876 480.964 371.02 480.884C371.164 480.796 371.316 480.752 371.476 480.752C371.692 480.752 371.92 480.832 372.16 480.992C372.4 481.152 372.676 481.328 372.988 481.52C373.3 481.712 373.66 481.888 374.068 482.048C374.484 482.208 374.98 482.288 375.556 482.288C376.396 482.288 377.044 482.096 377.5 481.712C377.964 481.328 378.196 480.756 378.196 479.996C378.196 479.556 378.08 479.2 377.848 478.928C377.624 478.656 377.328 478.428 376.96 478.244C376.592 478.06 376.172 477.904 375.7 477.776C375.228 477.64 374.744 477.492 374.248 477.332C373.752 477.172 373.268 476.98 372.796 476.756C372.324 476.532 371.904 476.236 371.536 475.868C371.168 475.5 370.868 475.044 370.636 474.5C370.412 473.956 370.3 473.28 370.3 472.472C370.3 471.824 370.428 471.196 370.684 470.588C370.94 469.98 371.316 469.44 371.812 468.968C372.308 468.496 372.916 468.116 373.636 467.828C374.364 467.54 375.196 467.396 376.132 467.396C377.18 467.396 378.148 467.56 379.036 467.888C379.932 468.208 380.688 468.656 381.304 469.232L380.416 470.924Z" fill="#4F5355"/>
<line y1="440.5" x2="500" y2="440.5" stroke="#C6C9CC"/>
<line y1="288.5" x2="500" y2="288.5" stroke="#C6C9CC"/>
<line y1="118.5" x2="500" y2="118.5" stroke="#C6C9CC"/>
<path d="M116.034 273.244V267.196C116.034 266.879 116.043 266.543 116.062 266.188C116.09 265.824 116.127 265.446 116.174 265.054L110.294 273.244H116.034ZM121.746 273.244V275.428C121.746 275.633 121.676 275.811 121.536 275.96C121.405 276.1 121.218 276.17 120.976 276.17H119.394V281H116.034V276.17H107.648C107.405 276.17 107.181 276.095 106.976 275.946C106.78 275.797 106.658 275.601 106.612 275.358L106.206 273.426L115.726 260.672H119.394V273.244H121.746ZM128.342 267.966C128.762 267.882 129.163 267.821 129.546 267.784C129.938 267.747 130.316 267.728 130.68 267.728C131.744 267.728 132.682 267.891 133.494 268.218C134.315 268.535 135.001 268.974 135.552 269.534C136.112 270.094 136.532 270.752 136.812 271.508C137.092 272.264 137.232 273.076 137.232 273.944C137.232 275.027 137.041 276.016 136.658 276.912C136.275 277.799 135.743 278.564 135.062 279.208C134.39 279.843 133.583 280.337 132.64 280.692C131.707 281.047 130.685 281.224 129.574 281.224C128.93 281.224 128.314 281.154 127.726 281.014C127.138 280.883 126.587 280.706 126.074 280.482C125.57 280.249 125.099 279.983 124.66 279.684C124.221 279.385 123.829 279.073 123.484 278.746L124.674 277.122C124.926 276.777 125.253 276.604 125.654 276.604C125.906 276.604 126.153 276.679 126.396 276.828C126.639 276.977 126.914 277.145 127.222 277.332C127.53 277.509 127.889 277.673 128.3 277.822C128.711 277.971 129.21 278.046 129.798 278.046C130.405 278.046 130.932 277.948 131.38 277.752C131.828 277.547 132.197 277.271 132.486 276.926C132.785 276.571 133.004 276.156 133.144 275.68C133.293 275.195 133.368 274.677 133.368 274.126C133.368 273.071 133.065 272.259 132.458 271.69C131.861 271.111 130.988 270.822 129.84 270.822C128.897 270.822 127.95 270.999 126.998 271.354L124.604 270.682L126.312 260.686H136.504V262.31C136.504 262.581 136.462 262.828 136.378 263.052C136.303 263.267 136.173 263.458 135.986 263.626C135.809 263.785 135.575 263.911 135.286 264.004C135.006 264.088 134.661 264.13 134.25 264.13H129L128.342 267.966ZM149.232 265.6C149.232 266.356 149.101 267.042 148.84 267.658C148.579 268.274 148.224 268.806 147.776 269.254C147.337 269.693 146.829 270.033 146.25 270.276C145.671 270.509 145.069 270.626 144.444 270.626C143.753 270.626 143.119 270.509 142.54 270.276C141.961 270.033 141.457 269.693 141.028 269.254C140.608 268.806 140.277 268.274 140.034 267.658C139.801 267.042 139.684 266.356 139.684 265.6C139.684 264.816 139.801 264.111 140.034 263.486C140.277 262.851 140.608 262.315 141.028 261.876C141.457 261.428 141.961 261.083 142.54 260.84C143.119 260.597 143.753 260.476 144.444 260.476C145.135 260.476 145.774 260.597 146.362 260.84C146.95 261.083 147.454 261.428 147.874 261.876C148.303 262.315 148.635 262.851 148.868 263.486C149.111 264.111 149.232 264.816 149.232 265.6ZM146.264 265.6C146.264 265.096 146.217 264.676 146.124 264.34C146.031 263.995 145.9 263.719 145.732 263.514C145.573 263.309 145.382 263.164 145.158 263.08C144.934 262.987 144.696 262.94 144.444 262.94C144.192 262.94 143.954 262.987 143.73 263.08C143.515 263.164 143.329 263.309 143.17 263.514C143.021 263.719 142.899 263.995 142.806 264.34C142.722 264.676 142.68 265.096 142.68 265.6C142.68 266.095 142.722 266.505 142.806 266.832C142.899 267.159 143.021 267.425 143.17 267.63C143.329 267.826 143.515 267.966 143.73 268.05C143.954 268.134 144.192 268.176 144.444 268.176C144.696 268.176 144.934 268.134 145.158 268.05C145.382 267.966 145.573 267.826 145.732 267.63C145.9 267.425 146.031 267.159 146.124 266.832C146.217 266.505 146.264 266.095 146.264 265.6ZM155.812 261.274C155.943 261.125 156.097 260.989 156.274 260.868C156.461 260.747 156.717 260.686 157.044 260.686H159.858L144.668 280.44C144.537 280.599 144.379 280.734 144.192 280.846C144.005 280.949 143.777 281 143.506 281H140.636L155.812 261.274ZM160.796 276.226C160.796 276.982 160.665 277.668 160.404 278.284C160.143 278.9 159.788 279.432 159.34 279.88C158.901 280.319 158.393 280.659 157.814 280.902C157.235 281.135 156.633 281.252 156.008 281.252C155.317 281.252 154.683 281.135 154.104 280.902C153.525 280.659 153.021 280.319 152.592 279.88C152.172 279.432 151.841 278.9 151.598 278.284C151.365 277.668 151.248 276.982 151.248 276.226C151.248 275.442 151.365 274.737 151.598 274.112C151.841 273.477 152.172 272.941 152.592 272.502C153.021 272.054 153.525 271.713 154.104 271.48C154.683 271.237 155.317 271.116 156.008 271.116C156.699 271.116 157.338 271.237 157.926 271.48C158.514 271.713 159.018 272.054 159.438 272.502C159.867 272.941 160.199 273.477 160.432 274.112C160.675 274.737 160.796 275.442 160.796 276.226ZM157.828 276.226C157.828 275.722 157.781 275.302 157.688 274.966C157.595 274.621 157.464 274.345 157.296 274.14C157.137 273.935 156.946 273.79 156.722 273.706C156.498 273.613 156.26 273.566 156.008 273.566C155.756 273.566 155.518 273.613 155.294 273.706C155.079 273.79 154.893 273.935 154.734 274.14C154.585 274.345 154.463 274.621 154.37 274.966C154.286 275.302 154.244 275.722 154.244 276.226C154.244 276.721 154.286 277.131 154.37 277.458C154.463 277.785 154.585 278.051 154.734 278.256C154.893 278.452 155.079 278.592 155.294 278.676C155.518 278.76 155.756 278.802 156.008 278.802C156.26 278.802 156.498 278.76 156.722 278.676C156.946 278.592 157.137 278.452 157.296 278.256C157.464 278.051 157.595 277.785 157.688 277.458C157.781 277.131 157.828 276.721 157.828 276.226Z" fill="#4F5355"/>
<path d="M329.766 193.98L329.15 194.722C329.504 194.563 329.887 194.442 330.298 194.358C330.708 194.274 331.152 194.232 331.628 194.232C332.384 194.232 333.121 194.358 333.84 194.61C334.558 194.862 335.198 195.24 335.758 195.744C336.318 196.248 336.766 196.883 337.102 197.648C337.447 198.404 337.62 199.295 337.62 200.322C337.62 201.265 337.442 202.156 337.088 202.996C336.742 203.836 336.248 204.569 335.604 205.194C334.969 205.819 334.204 206.314 333.308 206.678C332.421 207.042 331.432 207.224 330.34 207.224C329.229 207.224 328.235 207.051 327.358 206.706C326.48 206.351 325.734 205.857 325.118 205.222C324.502 204.587 324.03 203.831 323.704 202.954C323.377 202.067 323.214 201.092 323.214 200.028C323.214 199.048 323.405 198.054 323.788 197.046C324.18 196.038 324.772 195.002 325.566 193.938L330.284 187.582C330.47 187.339 330.746 187.129 331.11 186.952C331.474 186.775 331.889 186.686 332.356 186.686H335.786L329.766 193.98ZM330.27 204.116C330.774 204.116 331.24 204.027 331.67 203.85C332.099 203.673 332.468 203.425 332.776 203.108C333.084 202.791 333.326 202.422 333.504 202.002C333.681 201.573 333.77 201.106 333.77 200.602C333.77 200.051 333.686 199.557 333.518 199.118C333.35 198.679 333.112 198.311 332.804 198.012C332.496 197.704 332.127 197.471 331.698 197.312C331.268 197.153 330.792 197.074 330.27 197.074C329.775 197.074 329.322 197.163 328.912 197.34C328.501 197.508 328.146 197.751 327.848 198.068C327.558 198.376 327.33 198.745 327.162 199.174C327.003 199.603 326.924 200.075 326.924 200.588C326.924 201.12 326.994 201.605 327.134 202.044C327.274 202.473 327.484 202.842 327.764 203.15C328.044 203.458 328.389 203.696 328.8 203.864C329.22 204.032 329.71 204.116 330.27 204.116ZM353.778 186.686V188.338C353.778 188.823 353.722 189.215 353.61 189.514C353.507 189.813 353.405 190.065 353.302 190.27L345.91 205.712C345.723 206.067 345.471 206.37 345.154 206.622C344.837 206.874 344.407 207 343.866 207H341.066L348.64 191.922C348.827 191.567 349.018 191.245 349.214 190.956C349.41 190.667 349.629 190.391 349.872 190.13H340.506C340.282 190.13 340.077 190.041 339.89 189.864C339.713 189.687 339.624 189.486 339.624 189.262V186.686H353.778ZM365.232 191.6C365.232 192.356 365.101 193.042 364.84 193.658C364.579 194.274 364.224 194.806 363.776 195.254C363.337 195.693 362.829 196.033 362.25 196.276C361.671 196.509 361.069 196.626 360.444 196.626C359.753 196.626 359.119 196.509 358.54 196.276C357.961 196.033 357.457 195.693 357.028 195.254C356.608 194.806 356.277 194.274 356.034 193.658C355.801 193.042 355.684 192.356 355.684 191.6C355.684 190.816 355.801 190.111 356.034 189.486C356.277 188.851 356.608 188.315 357.028 187.876C357.457 187.428 357.961 187.083 358.54 186.84C359.119 186.597 359.753 186.476 360.444 186.476C361.135 186.476 361.774 186.597 362.362 186.84C362.95 187.083 363.454 187.428 363.874 187.876C364.303 188.315 364.635 188.851 364.868 189.486C365.111 190.111 365.232 190.816 365.232 191.6ZM362.264 191.6C362.264 191.096 362.217 190.676 362.124 190.34C362.031 189.995 361.9 189.719 361.732 189.514C361.573 189.309 361.382 189.164 361.158 189.08C360.934 188.987 360.696 188.94 360.444 188.94C360.192 188.94 359.954 188.987 359.73 189.08C359.515 189.164 359.329 189.309 359.17 189.514C359.021 189.719 358.899 189.995 358.806 190.34C358.722 190.676 358.68 191.096 358.68 191.6C358.68 192.095 358.722 192.505 358.806 192.832C358.899 193.159 359.021 193.425 359.17 193.63C359.329 193.826 359.515 193.966 359.73 194.05C359.954 194.134 360.192 194.176 360.444 194.176C360.696 194.176 360.934 194.134 361.158 194.05C361.382 193.966 361.573 193.826 361.732 193.63C361.9 193.425 362.031 193.159 362.124 192.832C362.217 192.505 362.264 192.095 362.264 191.6ZM371.812 187.274C371.943 187.125 372.097 186.989 372.274 186.868C372.461 186.747 372.717 186.686 373.044 186.686H375.858L360.668 206.44C360.537 206.599 360.379 206.734 360.192 206.846C360.005 206.949 359.777 207 359.506 207H356.636L371.812 187.274ZM376.796 202.226C376.796 202.982 376.665 203.668 376.404 204.284C376.143 204.9 375.788 205.432 375.34 205.88C374.901 206.319 374.393 206.659 373.814 206.902C373.235 207.135 372.633 207.252 372.008 207.252C371.317 207.252 370.683 207.135 370.104 206.902C369.525 206.659 369.021 206.319 368.592 205.88C368.172 205.432 367.841 204.9 367.598 204.284C367.365 203.668 367.248 202.982 367.248 202.226C367.248 201.442 367.365 200.737 367.598 200.112C367.841 199.477 368.172 198.941 368.592 198.502C369.021 198.054 369.525 197.713 370.104 197.48C370.683 197.237 371.317 197.116 372.008 197.116C372.699 197.116 373.338 197.237 373.926 197.48C374.514 197.713 375.018 198.054 375.438 198.502C375.867 198.941 376.199 199.477 376.432 200.112C376.675 200.737 376.796 201.442 376.796 202.226ZM373.828 202.226C373.828 201.722 373.781 201.302 373.688 200.966C373.595 200.621 373.464 200.345 373.296 200.14C373.137 199.935 372.946 199.79 372.722 199.706C372.498 199.613 372.26 199.566 372.008 199.566C371.756 199.566 371.518 199.613 371.294 199.706C371.079 199.79 370.893 199.935 370.734 200.14C370.585 200.345 370.463 200.621 370.37 200.966C370.286 201.302 370.244 201.722 370.244 202.226C370.244 202.721 370.286 203.131 370.37 203.458C370.463 203.785 370.585 204.051 370.734 204.256C370.893 204.452 371.079 204.592 371.294 204.676C371.518 204.76 371.756 204.802 372.008 204.802C372.26 204.802 372.498 204.76 372.722 204.676C372.946 204.592 373.137 204.452 373.296 204.256C373.464 204.051 373.595 203.785 373.688 203.458C373.781 203.131 373.828 202.721 373.828 202.226Z" fill="#4F5355"/>
<path d="M36 312C36 306.477 40.4772 302 46 302H222C227.523 302 232 306.477 232 312V441H36V312Z" fill="#399FDF"/>
<path d="M252 243C252 237.477 256.477 233 262 233H438C443.523 233 448 237.477 448 243V441H252V243Z" fill="#1ABC9C"/>
</svg>
