<svg width="229" height="257" viewBox="0 0 229 257" fill="none" xmlns="http://www.w3.org/2000/svg">
<path d="M58.12 256C53.98 246.213 50.3134 236.19 47.12 225.93C43.9267 215.67 41.24 205.217 39.06 194.57C36.8489 183.827 35.1802 172.98 34.06 162.07C31.8074 139.82 31.8074 117.4 34.06 95.15C35.1802 84.2396 36.8489 73.3925 39.06 62.65C41.24 51.9833 43.9267 41.53 47.12 31.29C50.3134 21.05 53.98 11.0266 58.12 1.21997" stroke="#A1C2D8" stroke-linecap="round" stroke-linejoin="round"/>
<path d="M117.14 231C113.807 223.127 110.857 215.067 108.29 206.82C105.723 198.573 103.56 190.163 101.8 181.59C100.029 172.949 98.6938 164.225 97.8 155.45C95.9877 137.552 95.9877 119.518 97.8 101.62C98.6938 92.8451 100.029 84.1207 101.8 75.48C103.553 66.9133 105.717 58.5033 108.29 50.25C110.863 41.9967 113.813 33.9367 117.14 26.07" stroke="#A1C2D8" stroke-linecap="round" stroke-linejoin="round"/>
<path d="M180 204.48C177.533 198.647 175.347 192.673 173.44 186.56C171.533 180.447 169.93 174.217 168.63 167.87C167.306 161.471 166.304 155.01 165.63 148.51C164.287 135.251 164.287 121.889 165.63 108.63C166.304 102.13 167.306 95.6689 168.63 89.27C169.93 82.9234 171.533 76.6934 173.44 70.58C175.347 64.4667 177.533 58.4934 180 52.66" stroke="#A1C2D8" stroke-linecap="round" stroke-linejoin="round"/>
<path d="M223.65 186C221.783 181.587 220.117 177.067 218.65 172.44C217.183 167.813 215.97 163.097 215.01 158.29C214.018 153.444 213.27 148.551 212.77 143.63C211.754 133.592 211.754 123.478 212.77 113.44C213.27 108.519 214.018 103.626 215.01 98.78C215.99 93.9733 217.203 89.2567 218.65 84.63C220.097 80.0033 221.763 75.4833 223.65 71.07" stroke="#A1C2D8" stroke-linecap="round" stroke-linejoin="round"/>
<path d="M211.46 144.01C219.479 144.01 225.98 137.093 225.98 128.56C225.98 120.027 219.479 113.11 211.46 113.11C203.441 113.11 196.94 120.027 196.94 128.56C196.94 137.093 203.441 144.01 211.46 144.01Z" fill="#19BC9C"/>
<path d="M162.91 147.03C172.337 147.03 179.98 138.761 179.98 128.56C179.98 118.359 172.337 110.09 162.91 110.09C153.482 110.09 145.84 118.359 145.84 128.56C145.84 138.761 153.482 147.03 162.91 147.03Z" fill="#3290C1"/>
<path d="M94.79 162.45C112.248 162.45 126.4 147.277 126.4 128.56C126.4 109.843 112.248 94.67 94.79 94.67C77.3323 94.67 63.18 109.843 63.18 128.56C63.18 147.277 77.3323 162.45 94.79 162.45Z" fill="#D0E4F1"/>
<path d="M31.03 148.96C41.5234 148.96 50.03 139.827 50.03 128.56C50.03 117.293 41.5234 108.16 31.03 108.16C20.5366 108.16 12.03 117.293 12.03 128.56C12.03 139.827 20.5366 148.96 31.03 148.96Z" fill="#F56F40"/>
<path d="M212.39 144.01C220.923 144.01 227.84 137.093 227.84 128.56C227.84 120.027 220.923 113.11 212.39 113.11C203.857 113.11 196.94 120.027 196.94 128.56C196.94 137.093 203.857 144.01 212.39 144.01Z" stroke="#3F555A" stroke-linecap="round" stroke-linejoin="round"/>
<path d="M164.31 147.03C174.511 147.03 182.78 138.761 182.78 128.56C182.78 118.359 174.511 110.09 164.31 110.09C154.109 110.09 145.84 118.359 145.84 128.56C145.84 138.761 154.109 147.03 164.31 147.03Z" stroke="#3F555A" stroke-linecap="round" stroke-linejoin="round"/>
<path d="M97.07 162.45C115.787 162.45 130.96 147.277 130.96 128.56C130.96 109.843 115.787 94.67 97.07 94.67C78.3531 94.67 63.18 109.843 63.18 128.56C63.18 147.277 78.3531 162.45 97.07 162.45Z" stroke="#3F555A" stroke-linecap="round" stroke-linejoin="round"/>
<path d="M32.43 148.96C43.6966 148.96 52.83 139.827 52.83 128.56C52.83 117.293 43.6966 108.16 32.43 108.16C21.1634 108.16 12.03 117.293 12.03 128.56C12.03 139.827 21.1634 148.96 32.43 148.96Z" stroke="#3F555A" stroke-linecap="round" stroke-linejoin="round"/>
<path d="M27.5628 128.506C27.5101 128.958 27.3431 129.306 27.0618 129.552C26.7825 129.797 26.4105 129.919 25.9456 129.919C25.4417 129.919 25.0374 129.738 24.7327 129.377C24.43 129.015 24.2786 128.532 24.2786 127.926V127.516C24.2786 127.12 24.3489 126.771 24.4896 126.47C24.6321 126.17 24.8333 125.939 25.0931 125.779C25.3528 125.617 25.6536 125.536 25.9954 125.536C26.4485 125.536 26.8118 125.663 27.0853 125.917C27.3587 126.169 27.5179 126.518 27.5628 126.965H26.9974C26.9485 126.626 26.8421 126.38 26.678 126.227C26.5159 126.075 26.2884 125.999 25.9954 125.999C25.636 125.999 25.3538 126.131 25.1487 126.397C24.9456 126.663 24.8441 127.041 24.8441 127.531V127.944C24.8441 128.407 24.9407 128.775 25.1341 129.048C25.3275 129.322 25.598 129.459 25.9456 129.459C26.2581 129.459 26.4974 129.388 26.6634 129.248C26.8314 129.105 26.9427 128.858 26.9974 128.506H27.5628ZM30.5482 125.594L31.9427 129.075L33.3372 125.594H34.0667V129.86H33.5042V128.199L33.5569 126.406L32.1566 129.86H31.7259L30.3284 126.415L30.3841 128.199V129.86H29.8216V125.594H30.5482ZM36.9319 129.86C36.9007 129.797 36.8753 129.686 36.8558 129.526C36.6038 129.788 36.303 129.919 35.9534 129.919C35.6409 129.919 35.3841 129.831 35.1829 129.655C34.9837 129.477 34.8841 129.253 34.8841 128.981C34.8841 128.651 35.0091 128.395 35.2591 128.214C35.511 128.03 35.8646 127.938 36.3196 127.938H36.847V127.689C36.847 127.5 36.7903 127.349 36.6771 127.238C36.5638 127.125 36.3968 127.068 36.1761 127.068C35.9827 127.068 35.8206 127.117 35.6898 127.214C35.5589 127.312 35.4935 127.43 35.4935 127.569H34.9485C34.9485 127.411 35.0042 127.258 35.1155 127.112C35.2288 126.964 35.3812 126.846 35.5726 126.76C35.7659 126.674 35.9778 126.631 36.2083 126.631C36.5735 126.631 36.8597 126.723 37.0667 126.907C37.2737 127.089 37.3812 127.339 37.389 127.66V129.119C37.389 129.41 37.4261 129.641 37.5003 129.813V129.86H36.9319ZM36.0325 129.447C36.2025 129.447 36.3636 129.403 36.5159 129.315C36.6683 129.227 36.7786 129.113 36.847 128.972V128.322H36.4222C35.7581 128.322 35.4261 128.516 35.4261 128.905C35.4261 129.075 35.4827 129.208 35.596 129.303C35.7093 129.399 35.8548 129.447 36.0325 129.447ZM38.9739 125.922V126.69H39.5657V127.109H38.9739V129.075C38.9739 129.202 39.0003 129.297 39.053 129.362C39.1058 129.424 39.1956 129.456 39.3226 129.456C39.3851 129.456 39.471 129.444 39.5804 129.421V129.86C39.4378 129.899 39.2991 129.919 39.1644 129.919C38.9222 129.919 38.7396 129.845 38.6165 129.699C38.4935 129.552 38.4319 129.344 38.4319 129.075V127.109H37.8548V126.69H38.4319V125.922H38.9739ZM40.7435 127.074C40.9837 126.779 41.2962 126.631 41.681 126.631C42.3509 126.631 42.6888 127.009 42.6946 127.765V129.86H42.1526V127.762C42.1507 127.534 42.098 127.365 41.9944 127.255C41.8929 127.146 41.7337 127.091 41.5169 127.091C41.3411 127.091 41.1868 127.138 41.054 127.232C40.9212 127.326 40.8177 127.449 40.7435 127.601V129.86H40.2015V125.36H40.7435V127.074Z" fill="white"/>
<path d="M167.993 125.936C167.94 126.388 167.773 126.736 167.492 126.982C167.213 127.227 166.84 127.349 166.376 127.349C165.872 127.349 165.467 127.168 165.163 126.807C164.86 126.445 164.709 125.962 164.709 125.356V124.946C164.709 124.55 164.779 124.201 164.92 123.9C165.062 123.6 165.263 123.369 165.523 123.209C165.783 123.047 166.084 122.966 166.425 122.966C166.879 122.966 167.242 123.093 167.515 123.347C167.789 123.599 167.948 123.948 167.993 124.395H167.427C167.379 124.056 167.272 123.81 167.108 123.657C166.946 123.505 166.718 123.429 166.425 123.429C166.066 123.429 165.784 123.561 165.579 123.827C165.376 124.093 165.274 124.471 165.274 124.961V125.374C165.274 125.837 165.371 126.205 165.564 126.478C165.757 126.752 166.028 126.889 166.376 126.889C166.688 126.889 166.927 126.818 167.093 126.678C167.261 126.535 167.373 126.288 167.427 125.936H167.993ZM169.329 126.83H171.35V127.29H168.763V123.024H169.329V126.83ZM172.496 127.29H171.954V124.12H172.496V127.29ZM171.91 123.279C171.91 123.191 171.936 123.117 171.989 123.057C172.044 122.996 172.124 122.966 172.229 122.966C172.335 122.966 172.415 122.996 172.469 123.057C172.524 123.117 172.551 123.191 172.551 123.279C172.551 123.367 172.524 123.44 172.469 123.499C172.415 123.558 172.335 123.587 172.229 123.587C172.124 123.587 172.044 123.558 171.989 123.499C171.936 123.44 171.91 123.367 171.91 123.279Z" fill="white"/>
<path d="M200.955 130.29V126.024H202.35C202.813 126.024 203.16 126.12 203.393 126.311C203.627 126.503 203.744 126.786 203.744 127.161C203.744 127.36 203.688 127.537 203.574 127.691C203.461 127.844 203.307 127.962 203.111 128.046C203.342 128.11 203.523 128.233 203.656 128.415C203.791 128.595 203.858 128.81 203.858 129.06C203.858 129.442 203.734 129.743 203.486 129.962C203.238 130.181 202.888 130.29 202.435 130.29H200.955ZM201.518 128.295V129.83H202.446C202.708 129.83 202.914 129.763 203.065 129.628C203.217 129.491 203.293 129.304 203.293 129.065C203.293 128.552 203.014 128.295 202.455 128.295H201.518ZM201.518 127.844H202.367C202.613 127.844 202.81 127.782 202.956 127.659C203.105 127.536 203.179 127.369 203.179 127.158C203.179 126.924 203.11 126.754 202.974 126.648C202.837 126.541 202.629 126.487 202.35 126.487H201.518V127.844ZM205.197 130.29H204.655V125.79H205.197V130.29ZM205.924 128.676C205.924 128.365 205.984 128.086 206.106 127.838C206.229 127.59 206.398 127.398 206.615 127.264C206.834 127.129 207.083 127.061 207.362 127.061C207.794 127.061 208.143 127.211 208.408 127.51C208.676 127.809 208.81 128.206 208.81 128.702V128.74C208.81 129.049 208.75 129.326 208.631 129.572C208.514 129.816 208.345 130.007 208.124 130.143C207.905 130.28 207.653 130.349 207.368 130.349C206.939 130.349 206.59 130.199 206.322 129.9C206.057 129.602 205.924 129.206 205.924 128.714V128.676ZM206.469 128.74C206.469 129.092 206.55 129.374 206.712 129.587C206.876 129.8 207.095 129.906 207.368 129.906C207.644 129.906 207.862 129.799 208.024 129.584C208.187 129.367 208.268 129.064 208.268 128.676C208.268 128.328 208.185 128.047 208.019 127.832C207.855 127.615 207.636 127.507 207.362 127.507C207.095 127.507 206.879 127.613 206.715 127.826C206.551 128.039 206.469 128.344 206.469 128.74ZM209.346 128.676C209.346 128.365 209.406 128.086 209.527 127.838C209.65 127.59 209.82 127.398 210.037 127.264C210.256 127.129 210.505 127.061 210.784 127.061C211.216 127.061 211.565 127.211 211.83 127.51C212.098 127.809 212.232 128.206 212.232 128.702V128.74C212.232 129.049 212.172 129.326 212.053 129.572C211.936 129.816 211.767 130.007 211.546 130.143C211.327 130.28 211.075 130.349 210.79 130.349C210.36 130.349 210.012 130.199 209.744 129.9C209.479 129.602 209.346 129.206 209.346 128.714V128.676ZM209.891 128.74C209.891 129.092 209.972 129.374 210.134 129.587C210.298 129.8 210.517 129.906 210.79 129.906C211.065 129.906 211.284 129.799 211.446 129.584C211.608 129.367 211.69 129.064 211.69 128.676C211.69 128.328 211.607 128.047 211.44 127.832C211.276 127.615 211.058 127.507 210.784 127.507C210.517 127.507 210.301 127.613 210.137 127.826C209.973 128.039 209.891 128.344 209.891 128.74ZM213.421 127.12L213.436 127.472C213.668 127.198 213.982 127.061 214.376 127.061C214.819 127.061 215.121 127.231 215.281 127.571C215.387 127.419 215.523 127.296 215.691 127.202C215.861 127.108 216.062 127.061 216.292 127.061C216.987 127.061 217.341 127.43 217.353 128.166V130.29H216.811V128.198C216.811 127.972 216.759 127.803 216.655 127.691C216.552 127.578 216.378 127.521 216.134 127.521C215.933 127.521 215.766 127.582 215.633 127.703C215.5 127.822 215.423 127.983 215.401 128.186V130.29H214.857V128.213C214.857 127.752 214.631 127.521 214.18 127.521C213.824 127.521 213.581 127.673 213.45 127.976V130.29H212.908V127.12H213.421ZM218.689 125.79H219.345L218.56 126.651H218.123L218.689 125.79ZM221.899 129.449C221.899 129.303 221.844 129.189 221.732 129.109C221.623 129.027 221.431 128.957 221.155 128.898C220.882 128.84 220.664 128.769 220.502 128.687C220.342 128.605 220.223 128.508 220.145 128.394C220.068 128.281 220.03 128.146 220.03 127.99C220.03 127.73 220.14 127.511 220.358 127.331C220.579 127.151 220.86 127.061 221.202 127.061C221.562 127.061 221.853 127.154 222.075 127.34C222.3 127.525 222.412 127.763 222.412 128.052H221.867C221.867 127.903 221.804 127.775 221.677 127.668C221.552 127.56 221.394 127.507 221.202 127.507C221.005 127.507 220.851 127.55 220.739 127.636C220.628 127.722 220.572 127.834 220.572 127.973C220.572 128.103 220.624 128.202 220.728 128.268C220.831 128.335 221.018 128.398 221.287 128.459C221.559 128.519 221.778 128.592 221.946 128.676C222.114 128.76 222.238 128.861 222.318 128.98C222.4 129.098 222.441 129.241 222.441 129.411C222.441 129.694 222.328 129.922 222.102 130.094C221.875 130.264 221.581 130.349 221.22 130.349C220.966 130.349 220.741 130.304 220.546 130.214C220.351 130.124 220.197 129.999 220.086 129.839C219.977 129.677 219.922 129.502 219.922 129.314H220.464C220.474 129.496 220.546 129.641 220.681 129.748C220.817 129.853 220.997 129.906 221.22 129.906C221.425 129.906 221.589 129.865 221.712 129.783C221.837 129.699 221.899 129.588 221.899 129.449Z" fill="white"/>
<path d="M100.466 127.325C99.8227 127.14 99.354 126.913 99.0597 126.645C98.768 126.374 98.6222 126.041 98.6222 125.645C98.6222 125.197 98.8006 124.827 99.1573 124.536C99.5167 124.241 99.9829 124.094 100.556 124.094C100.946 124.094 101.294 124.17 101.599 124.321C101.906 124.472 102.143 124.68 102.31 124.946C102.479 125.212 102.564 125.502 102.564 125.817H101.81C101.81 125.473 101.7 125.204 101.482 125.008C101.263 124.811 100.954 124.712 100.556 124.712C100.186 124.712 99.8969 124.794 99.6886 124.958C99.4829 125.119 99.38 125.344 99.38 125.633C99.38 125.865 99.4777 126.062 99.673 126.223C99.8709 126.382 100.206 126.528 100.677 126.661C101.151 126.794 101.521 126.941 101.786 127.102C102.054 127.261 102.252 127.447 102.38 127.661C102.51 127.874 102.575 128.126 102.575 128.415C102.575 128.876 102.396 129.245 102.036 129.524C101.677 129.8 101.196 129.938 100.595 129.938C100.204 129.938 99.8396 129.864 99.5011 129.715C99.1626 129.564 98.9008 129.359 98.7159 129.098C98.5337 128.838 98.4425 128.542 98.4425 128.212H99.1964C99.1964 128.555 99.3227 128.827 99.5753 129.028C99.8305 129.226 100.17 129.325 100.595 129.325C100.991 129.325 101.294 129.244 101.505 129.083C101.716 128.921 101.821 128.701 101.821 128.422C101.821 128.144 101.724 127.929 101.528 127.778C101.333 127.624 100.979 127.473 100.466 127.325ZM105.216 127.325C104.573 127.14 104.104 126.913 103.81 126.645C103.518 126.374 103.372 126.041 103.372 125.645C103.372 125.197 103.551 124.827 103.907 124.536C104.267 124.241 104.733 124.094 105.306 124.094C105.696 124.094 106.044 124.17 106.349 124.321C106.656 124.472 106.893 124.68 107.06 124.946C107.229 125.212 107.314 125.502 107.314 125.817H106.56C106.56 125.473 106.45 125.204 106.232 125.008C106.013 124.811 105.704 124.712 105.306 124.712C104.936 124.712 104.647 124.794 104.439 124.958C104.233 125.119 104.13 125.344 104.13 125.633C104.13 125.865 104.228 126.062 104.423 126.223C104.621 126.382 104.956 126.528 105.427 126.661C105.901 126.794 106.271 126.941 106.536 127.102C106.804 127.261 107.002 127.447 107.13 127.661C107.26 127.874 107.325 128.126 107.325 128.415C107.325 128.876 107.146 129.245 106.786 129.524C106.427 129.8 105.946 129.938 105.345 129.938C104.954 129.938 104.59 129.864 104.251 129.715C103.913 129.564 103.651 129.359 103.466 129.098C103.284 128.838 103.193 128.542 103.193 128.212H103.946C103.946 128.555 104.073 128.827 104.325 129.028C104.581 129.226 104.92 129.325 105.345 129.325C105.741 129.325 106.044 129.244 106.255 129.083C106.466 128.921 106.571 128.701 106.571 128.422C106.571 128.144 106.474 127.929 106.278 127.778C106.083 127.624 105.729 127.473 105.216 127.325Z" fill="#1E6B96"/>
<path d="M32.43 53.36C24.43 53.36 24.43 63.77 24.43 63.77C24.43 63.77 24.5 55.39 16.43 53.36C22.99 51.51 24.43 43.29 24.43 43.29C24.43 43.29 25.57 52 32.43 53.36Z" stroke="#A1C2D8" stroke-linecap="round" stroke-linejoin="round"/>
<path d="M69.46 210.5C63.89 210.5 63.89 217.76 63.89 217.76C63.89 217.76 63.89 211.92 58.32 210.5C62.9 209.21 63.89 203.5 63.89 203.5C63.89 203.5 64.67 209.53 69.46 210.5Z" stroke="#A1C2D8" stroke-linecap="round" stroke-linejoin="round"/>
<path d="M153 202.32C145.46 202.32 145.46 215.16 145.46 215.16C145.46 215.16 145.53 204.24 137.92 202.32C144.12 200.57 145.46 190.55 145.46 190.55C145.46 190.55 146.53 201 153 202.32Z" stroke="#A1C2D8" stroke-linecap="round" stroke-linejoin="round"/>
<path d="M143.62 47.89V55.55" stroke="#A1C2D8" stroke-linecap="round" stroke-linejoin="round"/>
<path d="M143.62 61.23V68.89" stroke="#A1C2D8" stroke-linecap="round" stroke-linejoin="round"/>
<path d="M136.77 58.39H140.78" stroke="#A1C2D8" stroke-linecap="round" stroke-linejoin="round"/>
<path d="M146.46 58.39H150.47" stroke="#A1C2D8" stroke-linecap="round" stroke-linejoin="round"/>
<path d="M79.12 46.69C79.7441 46.69 80.25 46.1841 80.25 45.56C80.25 44.9359 79.7441 44.43 79.12 44.43C78.4959 44.43 77.99 44.9359 77.99 45.56C77.99 46.1841 78.4959 46.69 79.12 46.69Z" fill="#A1C2D8"/>
<path d="M58.12 84.52C58.7441 84.52 59.25 84.0141 59.25 83.39C59.25 82.7659 58.7441 82.26 58.12 82.26C57.4959 82.26 56.99 82.7659 56.99 83.39C56.99 84.0141 57.4959 84.52 58.12 84.52Z" fill="#A1C2D8"/>
<path d="M127.54 82.61C128.164 82.61 128.67 82.1041 128.67 81.48C128.67 80.8559 128.164 80.35 127.54 80.35C126.916 80.35 126.41 80.8559 126.41 81.48C126.41 82.1041 126.916 82.61 127.54 82.61Z" fill="#A1C2D8"/>
<path d="M1.44 90.31C2.06408 90.31 2.57 89.8041 2.57 89.18C2.57 88.5559 2.06408 88.05 1.44 88.05C0.815917 88.05 0.309998 88.5559 0.309998 89.18C0.309998 89.8041 0.815917 90.31 1.44 90.31Z" fill="#A1C2D8"/>
<path d="M23.32 219.6C23.9441 219.6 24.45 219.094 24.45 218.47C24.45 217.846 23.9441 217.34 23.32 217.34C22.6959 217.34 22.19 217.846 22.19 218.47C22.19 219.094 22.6959 219.6 23.32 219.6Z" fill="#A1C2D8"/>
<path d="M65.02 179.13C65.6441 179.13 66.15 178.624 66.15 178C66.15 177.376 65.6441 176.87 65.02 176.87C64.3959 176.87 63.89 177.376 63.89 178C63.89 178.624 64.3959 179.13 65.02 179.13Z" fill="#A1C2D8"/>
<path d="M85.87 192.03C86.4941 192.03 87 191.524 87 190.9C87 190.276 86.4941 189.77 85.87 189.77C85.2459 189.77 84.74 190.276 84.74 190.9C84.74 191.524 85.2459 192.03 85.87 192.03Z" fill="#A1C2D8"/>
<path d="M203 193.65C203.624 193.65 204.13 193.144 204.13 192.52C204.13 191.896 203.624 191.39 203 191.39C202.376 191.39 201.87 191.896 201.87 192.52C201.87 193.144 202.376 193.65 203 193.65Z" fill="#A1C2D8"/>
<path d="M203 84.52C203.624 84.52 204.13 84.0141 204.13 83.39C204.13 82.7659 203.624 82.26 203 82.26C202.376 82.26 201.87 82.7659 201.87 83.39C201.87 84.0141 202.376 84.52 203 84.52Z" fill="#A1C2D8"/>
<path d="M140.78 162.18C141.404 162.18 141.91 161.674 141.91 161.05C141.91 160.426 141.404 159.92 140.78 159.92C140.156 159.92 139.65 160.426 139.65 161.05C139.65 161.674 140.156 162.18 140.78 162.18Z" fill="#A1C2D8"/>
<path d="M180.66 137.09C184.05 145.39 184.44 152.24 181.04 154.69C175.73 158.52 163.19 150.21 153.04 136.13C142.89 122.05 138.95 107.52 144.26 103.69C147.79 101.14 154.52 103.96 161.62 110.28" stroke="#3F555A" stroke-linecap="round" stroke-linejoin="round"/>
</svg>
