<?xml version="1.0" encoding="utf-8"?>
<!-- Generator: Adobe Illustrator 23.0.0, SVG Export Plug-In . SVG Version: 6.00 Build 0)  -->
<svg version="1.1" id="Layer_1" xmlns="http://www.w3.org/2000/svg" xmlns:xlink="http://www.w3.org/1999/xlink" x="0px" y="0px"
	 viewBox="0 0 180 180" style="enable-background:new 0 0 180 180;" xml:space="preserve">
<style type="text/css">
	.st0{clip-path:url(#SVGID_2_);}
	.st1{fill:#FFFFFF;}
	.st2{fill:#D0E4F0;}
	.st3{fill:#D0E4F0;stroke:#D0E4F0;stroke-miterlimit:10;}
	.st4{fill:#FFFFFF;stroke:#40565B;stroke-linecap:round;stroke-linejoin:round;}
	.st5{fill:none;stroke:#40565B;stroke-linecap:round;stroke-linejoin:round;}
	.st6{fill:none;stroke:#40565B;stroke-linecap:round;stroke-linejoin:round;stroke-dasharray:1,3;}
	.st7{fill:#3AA1D6;stroke:#1785C8;stroke-linecap:round;stroke-linejoin:round;}
	.st8{fill:none;stroke:#1785C8;stroke-linecap:round;stroke-linejoin:round;}
	.st9{fill:#D0E4F0;stroke:#40565B;stroke-linecap:round;stroke-linejoin:round;}
	.st10{fill:none;stroke:#F36F42;stroke-linecap:round;stroke-linejoin:round;}
	.st11{fill:#F36F42;stroke:#C84A27;stroke-linecap:round;stroke-linejoin:round;}
	.st12{fill:#1EB89A;stroke:#0F716F;stroke-linecap:round;stroke-linejoin:round;}
	.st13{fill:none;stroke:#40565B;stroke-linecap:round;stroke-linejoin:round;stroke-dasharray:0,2;}
	.st14{fill:#29B99A;stroke:#0F716F;stroke-linecap:round;stroke-linejoin:round;}
	.st15{fill:#FFFFFF;stroke:#0F716F;stroke-linecap:round;stroke-linejoin:round;}
	.st16{fill:#D0E4F0;stroke:#A1C2D8;stroke-linecap:round;stroke-linejoin:round;}
</style>
<title>Demo</title>
<g>
	<g>
		<defs>
			<rect id="SVGID_1_" x="-309" y="-2091.2" width="2560.9" height="917.8"/>
		</defs>
		<clipPath id="SVGID_2_">
			<use xlink:href="#SVGID_1_"  style="overflow:visible;"/>
		</clipPath>
		<g class="st0">
		</g>
	</g>
</g>
<g>
	<circle class="st1" cx="78.4" cy="90" r="67.5"/>
	<path class="st2" d="M143.8,106.7c-3.6,13.8-11.4,26.2-22.4,35.3h-20.8c-1.1,0-2-0.9-2-2v-16.1H20.1C3.9,96.1,9.6,60.7,33.8,39.4
		h85c1.7,0,3,1.3,3,3v64.1h21.1C143.2,106.5,143.5,106.6,143.8,106.7z"/>
	<path class="st3" d="M145.9,87.8h-4.1l-9.2,9.2V72.7c0-4.9,2.6-9.3,6.8-11.7C143.4,69.3,145.6,78.5,145.9,87.8z"/>
	<path class="st4" d="M9.5,37.7h111.7c1.7,0,3,1.3,3,3v76.8c0,0.6-0.4,1-1,1H7.5c-0.6,0-1-0.4-1-1V40.7C6.5,39,7.9,37.7,9.5,37.7z"
		/>
	<path class="st2" d="M6.5,43.4h28.8l0,0v75.1l0,0H7.8c-0.7,0-1.2-0.6-1.2-1.2l0,0V43.4L6.5,43.4z"/>
	<path class="st5" d="M9.5,37.7h111.7c1.7,0,3,1.3,3,3v76.8c0,0.6-0.4,1-1,1H7.5c-0.6,0-1-0.4-1-1V40.7C6.5,39,7.9,37.7,9.5,37.7z"
		/>
	<line class="st6" x1="9.4" y1="40.5" x2="18.7" y2="40.5"/>
	<line class="st6" x1="115.9" y1="40.5" x2="121.3" y2="40.5"/>
	<line class="st5" x1="124.2" y1="43.4" x2="6.5" y2="43.4"/>
	<path class="st7" d="M18.5,59.5v-2.9h-4v2.9h-2.5v-5.9c0-2.8,1.6-4.5,4.5-4.5s4.5,1.7,4.5,4.5v5.9L18.5,59.5z M18.5,53.5
		c0-1.4-0.6-2.1-2-2.1s-2,0.7-2,2.1v0.8h4V53.5z"/>
	<line class="st5" x1="35.3" y1="43.4" x2="35.3" y2="118.5"/>
	<line class="st8" x1="12.1" y1="64.4" x2="30" y2="64.4"/>
	<line class="st8" x1="12.1" y1="69.2" x2="22.6" y2="69.2"/>
	<line class="st8" x1="12.1" y1="73.9" x2="26.6" y2="73.9"/>
	<line class="st8" x1="12.1" y1="78.7" x2="15.1" y2="78.7"/>
	<line class="st8" x1="12.1" y1="83.5" x2="24.8" y2="83.5"/>
	<polyline class="st5" points="117.6,83.8 42.5,83.8 42.5,49 	"/>
	<rect x="42.4" y="49" class="st4" width="9.4" height="34.8"/>
	<rect x="51.8" y="49" class="st4" width="9.4" height="34.8"/>
	<rect x="61.2" y="49" class="st9" width="9.4" height="34.8"/>
	<rect x="70.6" y="49" class="st4" width="9.4" height="34.8"/>
	<rect x="80" y="49" class="st9" width="9.4" height="34.8"/>
	<rect x="89.4" y="49" class="st4" width="9.4" height="34.8"/>
	<rect x="98.8" y="49" class="st9" width="9.4" height="34.8"/>
	<rect x="108.2" y="49" class="st4" width="9.4" height="34.8"/>
	<polyline class="st10" points="42.5,78.6 51.8,70 61.2,74.2 70.6,66.4 80,69.9 89.4,59.2 98.8,69 108.2,61.1 117.6,64.9 	"/>
	<circle class="st11" cx="67.4" cy="95.6" r="1.4"/>
	<circle class="st12" cx="67.4" cy="100.9" r="1.4"/>
	<circle class="st7" cx="67.4" cy="106.1" r="1.4"/>
	<line class="st5" x1="72.7" y1="95.6" x2="81" y2="95.6"/>
	<line class="st5" x1="83.3" y1="95.6" x2="88.4" y2="95.6"/>
	<line class="st5" x1="72.7" y1="100.9" x2="75.2" y2="100.9"/>
	<line class="st5" x1="77.5" y1="100.9" x2="83.2" y2="100.9"/>
	<line class="st5" x1="85.6" y1="100.9" x2="92.9" y2="100.9"/>
	<line class="st5" x1="72.7" y1="106.1" x2="79.9" y2="106.1"/>
	<line class="st5" x1="82.2" y1="106.1" x2="87.2" y2="106.1"/>
	<path class="st1" d="M146.2,115.1v-11.4c0-1.1-0.9-1.9-1.9-1.9l0,0H104c-1.1,0-1.9,0.9-1.9,1.9v0v11.9
		C115.8,110.7,131.6,111.4,146.2,115.1z"/>
	<path class="st2" d="M102.1,115.6v18.2c0,1.1,0.9,1.9,1.9,1.9h0h40.3c1.1,0,1.9-0.9,1.9-1.9l0,0v-18.7
		C131.6,111.4,115.8,110.7,102.1,115.6z"/>
	<path class="st5" d="M117.8,119.3c-4.7,0-5.5,4.5-3.5,7.2"/>
	<path class="st5" d="M131.6,119.3c0,0,3.7-12.8-6.9-12.8s-6.9,12.8-6.9,12.8"/>
	<path class="st7" d="M112,135.5c3.2-2.9,8.9-3.1,8.9-6.8l0,0c-1.5-1.3-2.6-3.1-3.1-5c-0.9-0.5-1.3-1.5-1.2-2.5
		c0-0.8,0.5-1.5,1.3-1.7c0.1-5.6,0.7-9.9,6.9-9.9l0,0c6.2,0,6.8,4.3,6.9,9.9c0.8,0.2,1.3,0.9,1.3,1.7c0.1,1-0.4,2-1.2,2.5
		c-0.6,1.9-1.7,3.7-3.1,5l0,0c0,3.8,5.6,4,8.8,6.9"/>
	<circle class="st5" cx="115.2" cy="127.8" r="1.2"/>
	<line class="st13" x1="104" y1="103.7" x2="108.4" y2="103.7"/>
	<path class="st5" d="M104.1,101.8h40.1c1.1,0,2,0.9,2,2v30c0,1.1-0.9,2-2,2h-40.1c-1.1,0-2-0.9-2-2v-30
		C102.1,102.7,103,101.8,104.1,101.8z"/>
	<path class="st14" d="M159.8,56.5h-12.4c-7.1,0-12.9,5.8-12.9,12.9v23.3l8.8-8.8h16.5c7.6,0,13.7-6.1,13.7-13.7l0,0
		C173.5,62.7,167.3,56.5,159.8,56.5L159.8,56.5z"/>
	<circle class="st15" cx="149.6" cy="65.6" r="1.9"/>
	<circle class="st15" cx="158.3" cy="65.6" r="1.9"/>
	<path class="st15" d="M159,70.6c0.7,0,1.2,0.5,1.2,1.2c0,0.1,0,0.2,0,0.3c-1,3.4-4.7,5.4-8.1,4.3c-2.1-0.6-3.7-2.3-4.3-4.3
		c-0.2-0.6,0.2-1.3,0.8-1.5c0.1,0,0.2,0,0.3,0H159z"/>
	<path class="st11" d="M56.4,109.2c-4.5,2.5-10.3,0.9-12.8-3.7c-2.5-4.5-0.9-10.3,3.7-12.8c1.4-0.8,2.9-1.2,4.5-1.2v9.4L56.4,109.2z
		"/>
	<path class="st16" d="M61.2,101c0,3.4-1.8,6.5-4.8,8.2l-4.6-8.2l9-2.5C61.1,99.3,61.2,100.2,61.2,101z"/>
	<path class="st7" d="M60.9,98.4l-9,2.6l3.8-8.6C58.2,93.5,60.1,95.7,60.9,98.4z"/>
	<path class="st12" d="M55.6,92.4l-3.8,8.6v-9.4C53.1,91.6,54.4,91.8,55.6,92.4z"/>
</g>
</svg>
