<?xml version="1.0" encoding="utf-8"?>
<!-- Generator: Adobe Illustrator 19.0.0, SVG Export Plug-In . SVG Version: 6.00 Build 0)  -->
<svg version="1.1" id="Layer_1" xmlns="http://www.w3.org/2000/svg" xmlns:xlink="http://www.w3.org/1999/xlink" x="0px" y="0px"
	 width="236.1px" height="223.1px" viewBox="-187 285.9 236.1 223.1" style="enable-background:new -187 285.9 236.1 223.1;"
	 xml:space="preserve">
<style type="text/css">
	.st0{fill:#E6E7E8;}
	.st1{fill:#19BC9C;}
	.st2{fill:#109995;}
	.st3{fill:#C9CDD1;}
	.st4{fill:#233839;}
	.st5{fill:#F56F40;}
</style>
<title>empty-state</title>
<g id="Layer_2">
	<g id="Layer_2-2">
		<path class="st0" d="M19,412.4c-13.3-6.6-28.9-6.6-43.6-5.2c-2.7,0.3-5.4,0.6-8.2,0.9c1.2,10,1.7,20,1.5,30
			c-0.2,13.2-0.1,27.3-2.6,40.3c-1.8,10-7.8,18.8-16.6,24c-1.5,0.9-3.1,1.8-4.7,2.5c6.3-1.1,12.6-2.7,18.7-4.8
			c17.4-5.7,34.2-13.3,50-22.6c11.7-6.9,23.7-16,26.3-29.3C42.6,433.7,32.3,418.9,19,412.4z"/>
		<path class="st0" d="M-149.6,367.3c-2.5-0.9-5.3-2.1-6.1-4.6c-0.2-0.9-0.3-1.9-0.2-2.9c0.2-8.4,1.1-17.4,6.5-23.8
			c2.1-2.4,4.5-4.4,7.3-5.9c9.2-5.2,20.2-6.3,30.3-3.2c-3.2-0.5-6.4,1.1-8.6,3.4c-2.1,2.5-3.7,5.3-4.6,8.5
			c-3.4,9.6-4.1,19.2-3.9,29.3c0.1,4.4-0.6,6.7-5.3,5C-139.5,371.4-144.5,369.2-149.6,367.3z"/>
		<path class="st0" d="M-110.2,403.6c3.8,1.6,7.7,3.4,10,6.8c-6.3,3-9.8,9.8-14.7,14.8c-8.8,9.1-22.8,12.6-35,9.4
			s-22.6-12.7-27.5-24.4c-3.2-7.9-4.3-16.4-3.2-24.9c1.6-11.9,5.9-9.3,15.2-5.3L-110.2,403.6z"/>
		<path class="st0" d="M-101.8,324.1c12.6,6,22.5,16.9,29.6,28.9c16.8,28.6,19.2,63.2,19.4,96.4c0.1,11.9-0.2,24.1-4.4,35.2
			s-13.5,21-25.3,22.9c8.8-0.4,17.6-1.7,26.2-4c4.3-1,8.4-2.7,12.2-5.1c10.1-7,13.1-20.5,14.5-32.8c3.1-27.5,2.3-55.3-2.6-82.5
			c-1.6-9.1-3.7-18.2-8.4-26.1c-3.4-5.7-8.1-10.6-12.8-15.2c-7.5-7.4-15.5-14.4-24.6-19.7s-19.6-8.6-30.1-8.2
			c-7.6,0.3-18.7,2.2-24.9,6.9C-122.6,318.4-111.6,319.5-101.8,324.1z"/>
		<path class="st1" d="M-31.5,418.7c-1.2-9.3-0.9-18.7-3.1-27.8c-1.2-5-2.6-10-4-14.9l-3.2-11.5c-1.5-4.6-3.4-9.1-5.8-13.3
			c-5.7-10.8-13.8-17.5-23.4-27.1c11,4,20.5,11.6,28.3,20.4c7.8,8.8,13.9,18.9,19.9,29c5.6,9.6,10.1,19.6,11.6,30.6
			c1.1,7.8,2.2,20.7,1.3,28.5c-1.3,10.8-3.9,16.9-9.1,26.5c-2.6,4.6-5.7,8.9-9.3,12.8c-0.7,0.8-3.2,4.6-4.7,3.6
			c-1.2-0.8,0.6-5.8,0.9-7.1C-28.7,454.5-30.9,423.6-31.5,418.7z"/>
		<path class="st2" d="M-15.4,409.3c2.5,21.1-3.5,42.4-16.5,59.2c1.4-1.8,0-11.1,0-13.7c0-4.6-0.1-9.1-0.2-13.7
			c-0.2-9.6-0.6-19.2-1.3-28.8c-0.8-9.4-1.9-18.7-3.5-28c-0.8-4.6-1.8-9.2-2.9-13.8c-0.8-3.4-3.6-8.8-2.6-12
			C-27.1,369.3-17.6,391.1-15.4,409.3z"/>
		<path class="st3" d="M-67.7,404.6c-0.8-13.5-3.3-27.1-9.1-39.4c-1.5-3.3-3.3-6.4-5.1-9.6c-6.1-10.5-13.3-21.1-24.3-26.3
			c-3-1.4-6.4-2.4-9.6-1.7c-3.6,0.8-6.5,3.5-8.3,6.6c-1.7,3.2-2.8,6.7-3.3,10.4c-1.8,9.8-2.7,19.8-2.5,29.8l29.7,15.5
			c3.2,1.6,6.3,3.4,9.2,5.4c11.8,8.8,16.6,24,19.2,38.4c0.6,3.4,0.9,7.9,2.7,10.9c2.4-4.6,1.3-14.2,1.5-19.5
			C-67.4,418.3-67.3,411.4-67.7,404.6z"/>
		<path class="st0" d="M-85,471.9c0-5.1-0.6-10.1-1.9-15c-1.4-4.8-3.8-9.3-6.1-13.8c4.2,10.1,2.7,21.6,0,32.2
			c-1.8,7-4.7,14.5-11,18.1c-6.8,3.9-15.4,2-22.6-1.1c-3.5-1.5-24.2-9.9-24.2-9.9s12.9,10.1,17.4,12.5c2.2,1,4.3,2,6.5,2.9
			c3.3,1.4,6.6,2.9,9.9,4.3c4.7,1.1,9.4,2,14.2,2.6c2.1-0.3,4-1,5.9-2c5.1-2.8,8.5-8,10.2-13.5S-84.9,477.6-85,471.9z"/>
		<path class="st0" d="M40.2,407c1.9,0.3,3.6,0.9,5.2,2c1.7,1.4,2.8,3.3,3.2,5.5c1.8,7.1-1.4,14.8-6.4,20.2c-5,5.4-11.6,9-18.1,12.4
			c-2.3-0.6-3.4-3.5-2.7-5.9s2.4-4.1,4.1-5.8l7.8-7.9c2.4-2.4,5-5.6,4-8.8c-4.1-12.9-30.1,4-32.3-3.3C1.5,403.6,34.9,405.9,40.2,407
			z"/>
		<path class="st0" d="M-84.9,426.3c6.5,1.2,12.2,5.4,16,10.8c0.6-1.4,0.1-3-0.5-4.4l-2.8-7.1c-1.6-4.1-3.2-8.4-6.1-11.8
			c-2.8-3.4-7.1-6-11.5-5.6s-8.3,3.7-11.4,7c-4.3,4.5-8.2,9.3-11.7,14.4c0.8-1.1,6.7,1.4,7.7,1.7c3.6,1,2.7,0.2,5.8-2
			C-95,426.5-89.9,425.3-84.9,426.3z"/>
		<path class="st1" d="M-96.1,437.3c-4.4-4.5-10.5-6.9-16.5-8.8c-0.2-0.1-0.4-0.1-0.7-0.2c-1.3,1.5-2.9,2.8-4.3,4.3
			c-0.4,0.4-0.9,0.5-1.4,0.4c-3.7,3.5-8.4,6-13.4,7.1c-7,1.7-14.4,0.3-21.2-2.1c-3.8-1.2-7.5-2.8-11-4.8c-3.1-2-4.5-4.9-6.7-2.7
			c-2.6,7.1-4,14.6-4.2,22.2c0,0.2,0.1,0.4,0.1,0.5c2.1,8.7,7.8,16.1,14.7,21.7s15,9.5,23.2,12.9c8.5,3.6,17.4,6.7,26.6,6.9
			c3.2,0.1,6.5-0.3,9.2-2c3.7-2.4,5.3-6.8,6.7-10.9c2.6-7.4,5.2-14.9,5.6-22.7C-88.8,451.3-90.7,443-96.1,437.3z"/>
		<path class="st2" d="M-136.8,466.1c-14-4.3-27-11.3-38.3-20.4c-0.1,2.2,0.5,4.3,1.8,6c1.7,2.1,3.7,3.9,6,5.3
			c17.9,12.1,39.1,18.4,60.7,18.1l0.2-1.6C-116.8,472.3-127,469.8-136.8,466.1z"/>
		<path class="st2" d="M-97.6,490.2c3.4-7.7,6.1-15.8,8.1-24c0-6.8,0-13.5-1.3-20.1c-4.3-7.8-11.4-13.7-19.9-16.4l0,0
			c-0.3-0.1-0.7-0.1-1-0.1c-0.5,0.2-0.9,0.5-1.2,0.8c-10.2,10.2-26.9,13.3-40.1,7.5c-6-1.8-11.4-5.1-15.8-9.6
			c-1.4,0.6-2.3,2-2.2,3.5c0,2,2.1,4.1,3.4,5.5c3.4,3.6,7.7,6.2,12.4,7.6c6.8,2.1,14.1,2.1,21.1,0.9c4.1-0.7,8.2-1.8,12.4-1.8
			s8.6,1.2,11.4,4.4c3.1,3.6,3.4,8.8,3.1,13.6c-0.3,6.1-1.8,12-4.4,17.5c-0.8,1.7-1.8,3.2-3.2,4.5c-2.1,1.7-4.6,2.7-7.2,3
			c-4.1,0.7-10.3,1.6-14.4,0.7l13.6,5.6c3.5,1.3,13.2,2.6,16.9,2.1C-102.6,494.7-99.7,492.9-97.6,490.2z"/>
		<path class="st4" d="M-68.5,453.6L-68.5,453.6c-0.6,0-1-0.4-1-1c0.1-3.7,0.2-7.5,0.3-11.4c0.6-22.7,1.2-46.2-5.7-66.8
			c-7.1-21.4-20.7-38.3-36.4-45.3c-9.2-4-19.6-3.8-28.7,0.4c-7.6,3.6-13.2,10.4-15.1,18.6c-0.1,0.5-0.7,0.9-1.2,0.7
			s-0.9-0.7-0.7-1.2c2.1-8.8,8.1-16.1,16.2-19.9c9.6-4.5,20.7-4.7,30.4-0.5c16.2,7.2,30.2,24.6,37.5,46.5c7,21,6.4,44.6,5.8,67.5
			c-0.1,3.8-0.2,7.6-0.3,11.4C-67.5,453.1-68,453.6-68.5,453.6z"/>
		<path class="st4" d="M-67.1,451.5c-0.6,0-1-0.4-1.1-0.9c0-0.6,0.4-1,0.9-1.1l3.4-0.5c0.6-0.1,1.1,0.3,1.2,0.8
			c0.1,0.6-0.3,1.1-0.8,1.2l-3.4,0.5H-67.1z"/>
		<path class="st4" d="M-67,446.2c-0.6,0-1-0.4-1.1-0.9c0-0.6,0.4-1,0.9-1.1l3.4-0.5c0.6-0.1,1.1,0.3,1.2,0.9
			c0.1,0.6-0.3,1.1-0.8,1.1l-3.4,0.5H-67z"/>
		<path class="st4" d="M-66.9,440.8c-0.6,0-1-0.4-1.1-0.9c0-0.6,0.4-1,0.9-1.1l3.4-0.5c0.6-0.1,1.1,0.3,1.2,0.9s-0.3,1.1-0.8,1.1
			l-3.4,0.5H-66.9z"/>
		<path class="st4" d="M-66.8,435.5c-0.6,0-1-0.4-1.1-0.9c0-0.6,0.4-1,0.9-1.1l3.4-0.5c0.6-0.1,1.1,0.3,1.2,0.8
			c0.1,0.6-0.3,1.1-0.8,1.2l-3.4,0.5H-66.8z"/>
		<path class="st4" d="M-66.7,430.1c-0.6,0-1-0.4-1.1-0.9c0-0.6,0.4-1,0.9-1.1l3.4-0.5c0.6-0.1,1.1,0.3,1.2,0.8
			c0.1,0.6-0.3,1.1-0.8,1.2l-3.4,0.5H-66.7z"/>
		<path class="st4" d="M-66.7,424.8c-0.6,0-1-0.4-1.1-0.9c0-0.6,0.4-1,0.9-1.1l3.4-0.5c0.6-0.1,1.1,0.3,1.2,0.9s-0.3,1.1-0.8,1.1
			l-3.4,0.5H-66.7z"/>
		<path class="st4" d="M-66.9,419.4c-0.6,0-1-0.4-1.1-0.9c0-0.6,0.4-1,0.9-1.1l3.4-0.5c0.6-0.1,1.1,0.3,1.2,0.8
			c0.1,0.6-0.3,1.1-0.8,1.2l-3.4,0.5H-66.9z"/>
		<path class="st4" d="M-67.1,414c-0.6,0-1-0.4-1.1-0.9c0-0.6,0.4-1,0.9-1.1l3.4-0.5c0.6-0.1,1.1,0.3,1.2,0.9
			c0.1,0.6-0.3,1.1-0.8,1.1l-3.4,0.5H-67.1z"/>
		<path class="st4" d="M-67.2,408.7c-0.6,0-1-0.4-1.1-0.9c0-0.6,0.4-1,0.9-1.1l0,0l3.4-0.5c0.6-0.1,1.1,0.3,1.2,0.9
			s-0.3,1.1-0.8,1.1l-3.4,0.5H-67.2z"/>
		<path class="st4" d="M-67.4,403.3c-0.6,0-1-0.4-1.1-0.9c0-0.6,0.4-1,0.9-1.1l3.4-0.5c0.6-0.1,1.1,0.3,1.2,0.9s-0.3,1.1-0.8,1.1
			l-3.4,0.5H-67.4z"/>
		<path class="st4" d="M-68,398c-0.6,0-1-0.4-1.1-0.9c0-0.6,0.4-1,0.9-1.1l3.4-0.5c0.6-0.1,1.1,0.3,1.2,0.8c0.1,0.6-0.3,1.1-0.8,1.2
			l-3.4,0.5H-68z"/>
		<path class="st4" d="M-69,392.8c-0.6,0-1-0.4-1.1-0.9c0-0.6,0.4-1,0.9-1.1l3.4-0.5c0.6-0.1,1.1,0.3,1.2,0.8
			c0.1,0.6-0.3,1.1-0.8,1.2l-3.4,0.5H-69z"/>
		<path class="st4" d="M-70.1,387.5c-0.6,0-1-0.4-1.1-0.9c0-0.6,0.4-1,0.9-1.1l3.4-0.5c0.6-0.1,1.1,0.3,1.2,0.9s-0.3,1.1-0.8,1.1
			l-3.4,0.5H-70.1z"/>
		<path class="st4" d="M-71.1,382.2c-0.6,0-1-0.4-1.1-0.9c0-0.6,0.4-1,0.9-1.1l3.4-0.5c0.6-0.1,1.1,0.3,1.2,0.9s-0.3,1.1-0.8,1.1
			l-3.4,0.5H-71.1z"/>
		<path class="st4" d="M-72.1,377c-0.6,0-1-0.4-1.1-0.9c0-0.6,0.4-1,0.9-1.1l3.4-0.5c0.6-0.1,1.1,0.3,1.2,0.9s-0.3,1.1-0.8,1.1
			L-72,377H-72.1z"/>
		<path class="st4" d="M-73.7,371.9c-0.6,0-1-0.4-1.1-0.9c0-0.6,0.4-1,0.9-1.1l3.4-0.5c0.6-0.1,1.1,0.3,1.2,0.9s-0.3,1.1-0.8,1.1
			l-3.4,0.5H-73.7z"/>
		<path class="st4" d="M-75.9,367c-0.6,0-1-0.4-1.1-0.9c0-0.6,0.4-1,0.9-1.1l3.4-0.5c0.6-0.1,1.1,0.3,1.2,0.9s-0.3,1.1-0.8,1.1
			l-3.4,0.5H-75.9z"/>
		<path class="st4" d="M-78,362.1c-0.6,0-1-0.4-1.1-0.9c0-0.6,0.4-1,0.9-1.1l3.4-0.5c0.6-0.1,1.1,0.3,1.2,0.9s-0.3,1.1-0.8,1.1
			l-3.4,0.5H-78z"/>
		<path class="st4" d="M-80.1,357.2c-0.6,0-1-0.4-1.1-0.9c0-0.6,0.4-1,0.9-1.1l3.4-0.5c0.6-0.1,1.1,0.3,1.2,0.9
			c0.1,0.6-0.3,1.1-0.8,1.1l-3.4,0.5H-80.1z"/>
		<path class="st4" d="M-83.1,352.8c-0.6,0-1-0.4-1.1-0.9c0-0.6,0.4-1,0.9-1.1l3.4-0.5c0.6-0.1,1.1,0.3,1.2,0.9s-0.3,1.1-0.8,1.1
			l-3.4,0.5H-83.1z"/>
		<path class="st4" d="M-86.3,348.5c-0.6,0-1-0.4-1.1-0.9c0-0.6,0.4-1,0.9-1.1l3.4-0.5c0.6-0.1,1.1,0.3,1.2,0.9s-0.3,1.1-0.8,1.1
			l-3.4,0.5H-86.3z"/>
		<path class="st4" d="M-89.5,344.1c-0.6,0-1-0.4-1.1-0.9c0-0.6,0.4-1,0.9-1.1l3.4-0.5c0.6-0.1,1.1,0.3,1.2,0.9s-0.3,1.1-0.8,1.1
			l-3.4,0.5H-89.5z"/>
		<path class="st4" d="M-92.8,339.9c-0.6,0-1-0.4-1.1-0.9c0-0.6,0.4-1,0.9-1.1l3.4-0.5c0.6-0.1,1.1,0.3,1.2,0.9s-0.3,1.1-0.8,1.1
			l-3.4,0.5H-92.8z"/>
		<path class="st4" d="M-97.1,336.8c-0.6,0-1-0.4-1.1-0.9c0-0.6,0.4-1,0.9-1.1l3.4-0.5c0.6-0.1,1.1,0.3,1.2,0.9s-0.3,1.1-0.8,1.1
			l-3.4,0.5H-97.1z"/>
		<path class="st4" d="M-101.5,333.7c-0.6,0-1-0.4-1.1-0.9c0-0.6,0.4-1,0.9-1.1l3.4-0.5c0.6-0.1,1.1,0.3,1.2,0.8
			c0.1,0.6-0.3,1.1-0.8,1.2l-3.4,0.5H-101.5z"/>
		<path class="st4" d="M-105.9,330.6c-0.6,0-1-0.4-1.1-0.9c0-0.6,0.4-1,0.9-1.1l3.4-0.5c0.6-0.1,1.1,0.3,1.2,0.9
			c0.1,0.6-0.3,1.1-0.8,1.1l-3.4,0.5H-105.9z"/>
		<path class="st4" d="M-110.5,328.2c-0.6,0-1-0.4-1.1-0.9c0-0.6,0.4-1,0.9-1.1l3.4-0.5c0.6-0.1,1.1,0.3,1.2,0.9
			c0.1,0.6-0.3,1.1-0.8,1.1l-3.4,0.5H-110.5z"/>
		<path class="st4" d="M-115.7,326.8c-0.6,0-1-0.4-1.1-0.9c0-0.6,0.4-1,0.9-1.1l3.4-0.5c0.6-0.1,1.1,0.3,1.2,0.8
			c0.1,0.6-0.3,1.1-0.8,1.2l-3.4,0.5H-115.7z"/>
		<path class="st4" d="M-120.9,325.4c-0.6,0-1-0.4-1.1-0.9c0-0.6,0.4-1,0.9-1.1l3.4-0.5c0.6-0.1,1.1,0.3,1.2,0.9s-0.3,1.1-0.8,1.1
			l-3.4,0.5H-120.9z"/>
		<path class="st4" d="M-126.2,325.4c-0.6,0-1-0.4-1.1-0.9c0-0.6,0.4-1,0.9-1.1l0,0l3.4-0.5c0.6-0.1,1.1,0.3,1.2,0.9
			s-0.3,1.1-0.8,1.1l-3.4,0.5H-126.2z"/>
		<path class="st4" d="M-131.5,325.7c-0.6,0-1-0.4-1.1-0.9c0-0.6,0.4-1,0.9-1.1l3.4-0.5c0.6-0.1,1.1,0.3,1.1,0.9
			c0.1,0.6-0.3,1.1-0.8,1.1l-3.4,0.5H-131.5z"/>
		<path class="st4" d="M-136.8,326.6c-0.6,0-1-0.4-1.1-0.9c0-0.6,0.4-1,0.9-1.1l3.4-0.5c0.6-0.1,1.1,0.3,1.2,0.9
			c0.1,0.6-0.3,1.1-0.9,1.1l-3.4,0.5H-136.8z"/>
		<path class="st4" d="M-141.5,328.1c-0.6,0-1-0.4-1.1-0.9c0-0.6,0.4-1,0.9-1.1l3.4-0.5c0.6-0.1,1.1,0.3,1.2,0.9
			c0.1,0.6-0.3,1.1-0.9,1.1l-3.4,0.5H-141.5z"/>
		<path class="st4" d="M-147.2,330.6c-0.6,0-1-0.4-1.1-0.9c0-0.6,0.4-1,0.9-1.1l3.4-0.5c0.6-0.1,1.1,0.3,1.1,0.8
			c0.1,0.6-0.3,1.1-0.8,1.2l-3.4,0.5H-147.2z"/>
		<path class="st4" d="M-79.1,509c-8.1-0.1-16.1-1.1-24-2.9c-16-3.6-30.9-9.8-42.9-18c-3.6-2.6-7.1-5.5-10.3-8.6l1.3-1.5
			c3.1,3,6.5,5.8,10,8.4c11.8,8.1,26.4,14.2,42.2,17.7c16,3.6,29.3,3.8,40.5,0.8c29-7.8,29.2-20.6,29.7-58.6
			c0.2-14.2,0.2-30.7-2.2-46.6c-2-13.2-4.6-27.2-10.2-40c-9.1-20.9-28.9-43.8-57.2-45.4c-13.4-0.8-26.7,2.9-37.8,10.5
			c-11.6,8.2-16.7,20.3-15.6,37.1l-2,0.1c-1.2-17.5,4.2-30.2,16.4-38.8c11.5-7.9,25.2-11.7,39.1-10.9c29.2,1.7,49.6,25.2,59,46.6
			c5.7,13,8.4,27.2,10.4,40.5c2.4,16.1,2.4,32.7,2.2,46.9c-0.6,38.1-0.8,52.3-31.2,60.5C-67.3,508.3-73.2,509.1-79.1,509z"/>
		<path class="st4" d="M-68.5,453.6L-68.5,453.6c-0.6,0-1-0.4-1-1c0-0.3-0.7-33.9-12.9-41.2l0,0c-8.7-5.2-17.4,3.4-25.5,13.4
			c-10.8,13.2-24.5,18.7-39.8,15.9c-16.8-3.1-31.7-17.6-37.2-36c-3.7-12.4-2.5-30.5,6-39.4c4.9-5.1,11.8-6.8,20-4.8
			c9.8,2.5,58.6,28.7,69.4,35.8c10,6.6,17,18.4,20.2,34.3c1.5,7.3,2.1,14.7,1.9,22.1C-67.6,453.1-68,453.6-68.5,453.6z
			 M-165.6,361.6c-4.5-0.1-8.9,1.7-12,5c-8,8.3-9,25.6-5.5,37.4c5.3,17.7,19.7,31.7,35.7,34.7c14.5,2.7,27.5-2.5,37.8-15.2
			c5.4-6.7,16.8-20.6,28.1-13.8l0,0c1.6,1,3,2.3,4.2,3.8c-3-6.3-7.7-11.7-13.4-15.6c-11.8-7.7-60-33.2-68.8-35.5
			C-161.5,361.9-163.6,361.6-165.6,361.6z"/>
		<path class="st4" d="M-140,437.4c-2.3,0-4.7-0.2-7-0.7c-15.3-2.9-29.1-16.2-34.2-33.3c-3.2-10.7-1.6-25.5,3.6-33.8
			c7.1-11.2,22.8-7.1,23-7.1c0.5,0.2,0.8,0.7,0.6,1.3c-0.2,0.5-0.6,0.8-1.1,0.7c-0.1,0-14.5-3.7-20.8,6.2c-5,7.8-6.5,21.9-3.4,32.2
			c4.9,16.3,18,29.1,32.6,31.9c13.1,2.4,24.6-2.2,34-13.8c4.9-6,13.9-17.1,24.8-17.1h0.9c0.7,0,4.6,0,9.2,4.7c0.4,0.4,0.4,1,0,1.4
			s-1,0.4-1.4,0c-4.2-4.3-7.6-4.1-7.7-4.1H-87h-0.8c-10,0-18.6,10.7-23.3,16.4C-119.3,432.3-129,437.4-140,437.4z"/>
		<path class="st4" d="M-74.5,470.3c-0.6,0-1-0.4-1-1c0-0.1,0-0.1,0-0.2l2.6-14.9c0.1-0.6,0.6-0.9,1.2-0.8s0.9,0.6,0.8,1.2l0,0
			l-2.4,13.7l7.1-0.1l0,0c0.6,0,1,0.4,1,1c0,0.6-0.4,1-1,1L-74.5,470.3L-74.5,470.3z"/>
		<polygon class="st5" points="-73.2,468.4 -64.8,468.2 -65.6,453.4 -70.6,453.5 		"/>
		<path class="st4" d="M-73.2,469.4c-0.6,0-1-0.4-1-1c0-0.1,0-0.1,0-0.2l2.6-14.9c0.1-0.5,0.5-0.8,1-0.8l5-0.1c0.5,0,1,0.4,1,1
			l0.8,14.8c0,0.6-0.4,1-0.9,1c0,0,0,0-0.1,0L-73.2,469.4L-73.2,469.4z M-69.8,454.5l-2.2,12.8l6.1-0.1l-0.7-12.8L-69.8,454.5z"/>
		<path class="st4" d="M-69.4,466.2c-0.6,0-1-0.4-1-1c0-0.1,0-0.1,0-0.2l0.2-1.2c0.1-0.5,0.5-0.8,1-0.8h1c0.5,0,1,0.4,1,1l0.1,1.1
			c0,0.6-0.4,1-0.9,1c0,0,0,0-0.1,0L-69.4,466.2L-69.4,466.2z"/>
		<path class="st4" d="M-110.8,489.8c-0.6,0-1-0.4-1-1l0.5-15.1c0-0.6,0.5-1,1-1s1,0.5,1,1l-0.4,13.9l7.1-1.1
			c0.6-0.1,1.1,0.3,1.2,0.8c0.1,0.6-0.3,1.1-0.8,1.2l-8.2,1.2L-110.8,489.8z"/>
		<polygon class="st5" points="-109.7,487.6 -101.5,486.4 -104.3,471.8 -109.2,472.6 		"/>
		<path class="st4" d="M-109.7,488.6c-0.6,0-1-0.4-1-1l0.5-15.1c0-0.5,0.4-0.9,0.8-1l5-0.8c0.5-0.1,1,0.3,1.1,0.8l2.8,14.6
			c0.1,0.5-0.2,1.1-0.8,1.2c0,0,0,0,0,0l-8.2,1.2L-109.7,488.6z M-108.3,473.4l-0.4,13l6-0.9l-2.4-12.6L-108.3,473.4z"/>
		<path class="st4" d="M-106.4,485c-0.6,0-1-0.4-1-1v-1.2c0-0.5,0.4-0.9,0.9-1l1-0.1c0.5-0.1,1,0.3,1.1,0.8l0.2,1.1
			c0.1,0.5-0.2,1.1-0.8,1.2c0,0,0,0,0,0L-106.4,485L-106.4,485z"/>
		<path class="st4" d="M-72.3,451.9c-0.6,0-1-0.4-1.1-0.9c0-0.6,0.4-1,0.9-1.1l3.4-0.5c0.6-0.1,1.1,0.3,1.2,0.8
			c0.1,0.6-0.3,1.1-0.8,1.2l-3.4,0.5H-72.3z"/>
		<path class="st4" d="M-72.6,446.5c-0.6,0-1-0.4-1.1-0.9c0-0.6,0.4-1,0.9-1.1l3.4-0.5c0.6-0.1,1.1,0.3,1.2,0.9
			c0.1,0.6-0.3,1.1-0.8,1.1l-3.4,0.5H-72.6z"/>
		<path class="st4" d="M-73.1,441.2c-0.6,0-1-0.4-1.1-0.9c0-0.6,0.4-1,0.9-1.1l3.4-0.5c0.6-0.1,1.1,0.3,1.2,0.8
			c0.1,0.6-0.3,1.1-0.8,1.2l-3.4,0.5H-73.1z"/>
		<path class="st4" d="M-73.5,435.9c-0.6,0-1-0.4-1.1-0.9c0-0.6,0.4-1,0.9-1.1l3.4-0.5c0.6-0.1,1.1,0.3,1.2,0.8
			c0.1,0.6-0.3,1.1-0.8,1.2l0,0l-3.4,0.5H-73.5z"/>
		<path class="st4" d="M-74.6,430.6c-0.6,0-1-0.4-1.1-0.9c0-0.6,0.4-1,0.9-1.1l3.4-0.5c0.6-0.1,1.1,0.3,1.2,0.9s-0.3,1.1-0.8,1.1
			l-3.4,0.5H-74.6z"/>
		<path class="st4" d="M-75.7,425.4c-0.6,0-1-0.4-1.1-0.9c0-0.6,0.4-1,0.9-1.1l3.4-0.5c0.6-0.1,1.1,0.3,1.2,0.9s-0.3,1.1-0.8,1.1
			l-3.4,0.5H-75.7z"/>
		<path class="st4" d="M-77.1,420.2c-0.6,0-1-0.4-1.1-0.9c0-0.6,0.4-1,0.9-1.1l3.4-0.5c0.6-0.1,1.1,0.3,1.2,0.9
			c0.1,0.6-0.3,1.1-0.8,1.1l-3.4,0.5H-77.1z"/>
		<path class="st4" d="M-79.8,415.6c-0.6,0-1-0.4-1.1-0.9c0-0.6,0.4-1,0.9-1.1l3.4-0.5c0.6-0.1,1.1,0.3,1.2,0.9
			c0.1,0.6-0.3,1.1-0.8,1.1l-3.4,0.5H-79.8z"/>
		<path class="st4" d="M-82.5,411c-0.6,0-1-0.4-1.1-0.9c0-0.6,0.4-1,0.9-1.1l3.4-0.5c0.6-0.1,1.1,0.3,1.2,0.9
			c0.1,0.6-0.3,1.1-0.8,1.1l-3.4,0.5H-82.5z"/>
		<path class="st4" d="M-87.5,409.3c-0.6,0-1-0.4-1.1-0.9c0-0.6,0.4-1,0.9-1.1l3.4-0.5c0.6-0.1,1.1,0.3,1.2,0.9s-0.3,1.1-0.8,1.1
			l0,0l-3.4,0.5H-87.5z"/>
		<path class="st4" d="M-92.5,409c-0.6,0-1-0.4-1.1-0.9c0-0.6,0.4-1,0.9-1.1l3.4-0.5c0.6-0.1,1.1,0.3,1.2,0.8
			c0.1,0.6-0.3,1.1-0.8,1.2l0,0l-3.4,0.5H-92.5z"/>
		<path class="st4" d="M-97.4,411.2c-0.6,0-1-0.4-1.1-0.9c0-0.6,0.4-1,0.9-1.1l3.4-0.5c0.6-0.1,1.1,0.3,1.2,0.9s-0.3,1.1-0.8,1.1
			l-3.4,0.5H-97.4z"/>
		<path class="st4" d="M-101.6,414.5c-0.6,0-1-0.4-1.1-0.9c0-0.6,0.4-1,0.9-1.1l3.4-0.5c0.6-0.1,1.1,0.3,1.2,0.9s-0.3,1.1-0.8,1.1
			l-3.4,0.5H-101.6z"/>
		<path class="st4" d="M-105.4,418.2c-0.6,0-1-0.4-1.1-0.9c0-0.6,0.4-1,0.9-1.1l3.4-0.5c0.6-0.1,1.1,0.3,1.2,0.8
			c0.1,0.6-0.3,1.1-0.8,1.2l-3.4,0.5H-105.4z"/>
		<path class="st4" d="M-108.9,422.4c-0.6,0-1-0.4-1.1-0.9c0-0.6,0.4-1,0.9-1.1l3.4-0.5c0.6-0.1,1.1,0.3,1.2,0.8
			c0.1,0.6-0.3,1.1-0.8,1.2l-3.4,0.5H-108.9z"/>
		<path class="st4" d="M-112.4,426.4c-0.6,0-1-0.4-1.1-0.9c0-0.6,0.4-1,0.9-1.1l3.4-0.5c0.6-0.1,1.1,0.3,1.2,0.8
			c0.1,0.6-0.3,1.1-0.8,1.2l-3.4,0.5H-112.4z"/>
		<path class="st4" d="M-116.3,430c-0.6,0-1-0.4-1.1-0.9c0-0.6,0.4-1,0.9-1.1l3.4-0.5c0.6-0.1,1.1,0.3,1.2,0.9
			c0.1,0.6-0.3,1.1-0.8,1.1l-3.4,0.5H-116.3z"/>
		<path class="st4" d="M-120.2,433.7c-0.6,0-1-0.4-1.1-0.9c0-0.6,0.4-1,0.9-1.1l3.4-0.5c0.6-0.1,1.1,0.3,1.2,0.8
			c0.1,0.6-0.3,1.1-0.8,1.2l-3.4,0.5H-120.2z"/>
		<path class="st4" d="M-124.7,436.5c-0.6,0-1-0.4-1.1-0.9c0-0.6,0.4-1,0.9-1.1l3.4-0.5c0.6-0.1,1.1,0.3,1.2,0.8
			c0.1,0.6-0.3,1.1-0.8,1.2l-3.4,0.5H-124.7z"/>
		<path class="st4" d="M-129.6,438.6c-0.6,0-1-0.4-1.1-0.9c0-0.6,0.4-1,0.9-1.1l3.4-0.5c0.6-0.1,1.1,0.3,1.1,0.9
			c0.1,0.6-0.3,1.1-0.8,1.1l-3.4,0.5H-129.6z"/>
		<path class="st4" d="M-134.6,440.6c-0.6,0-1-0.4-1.1-0.9s0.4-1,0.9-1.1l0,0l3.4-0.5c0.6-0.1,1.1,0.3,1.1,0.8
			c0.1,0.6-0.3,1.1-0.9,1.2l-3.4,0.5H-134.6z"/>
		<path class="st4" d="M-139.9,440.5c-0.6,0-1-0.4-1.1-0.9c0-0.6,0.4-1,0.9-1.1l3.4-0.5c0.6-0.1,1.1,0.3,1.1,0.9
			c0.1,0.6-0.3,1.1-0.8,1.1l-3.4,0.5H-139.9z"/>
		<path class="st4" d="M-145.2,440.2c-0.6,0-1-0.4-1.1-0.9c0-0.6,0.4-1,0.9-1.1l3.4-0.5c0.6-0.1,1.1,0.3,1.2,0.9
			c0.1,0.6-0.3,1.1-0.9,1.1l-3.4,0.5H-145.2z"/>
		<path class="st4" d="M-150.4,439.4c-0.6,0-1-0.4-1.1-0.9c0-0.6,0.4-1,0.9-1.1l3.4-0.5c0.6-0.1,1.1,0.3,1.1,0.9
			c0.1,0.6-0.3,1.1-0.8,1.1l-3.4,0.5H-150.4z"/>
		<path class="st4" d="M-155.3,437.1c-0.6,0-1-0.4-1.1-0.9c0-0.6,0.4-1,0.9-1.1l3.4-0.5c0.6-0.1,1.1,0.3,1.2,0.8
			c0.1,0.6-0.3,1.1-0.9,1.2l-3.4,0.5H-155.3z"/>
		<path class="st4" d="M-160.1,434.9c-0.6,0-1-0.4-1.1-0.9c0-0.6,0.4-1,0.9-1.1l3.4-0.5c0.6-0.1,1.1,0.3,1.1,0.9s-0.3,1.1-0.9,1.1
			l-3.4,0.5H-160.1z"/>
		<path class="st4" d="M-164.7,432.2c-0.6,0-1-0.4-1.1-0.9c0-0.6,0.4-1,0.9-1.1l3.4-0.5c0.6-0.1,1.1,0.3,1.1,0.9
			c0.1,0.6-0.3,1.1-0.8,1.1l-3.4,0.5H-164.7z"/>
		<path class="st4" d="M-168.6,428.5c-0.6,0-1-0.4-1.1-0.9c0-0.6,0.4-1,0.9-1.1l3.4-0.5c0.6-0.1,1.1,0.3,1.1,0.9s-0.3,1.1-0.9,1.1
			l-3.4,0.5H-168.6z"/>
		<path class="st4" d="M-172.4,424.8c-0.6,0-1-0.4-1.1-0.9c0-0.6,0.4-1,0.9-1.1l3.4-0.5c0.6-0.1,1.1,0.3,1.1,0.9
			c0.1,0.6-0.3,1.1-0.8,1.1l-3.4,0.5H-172.4z"/>
		<path class="st4" d="M-176.1,420.9c-0.6,0-1-0.4-1.1-0.9c0-0.6,0.4-1,0.9-1.1l3.4-0.5c0.6-0.1,1.1,0.3,1.1,0.9s-0.3,1.1-0.9,1.1
			l-3.4,0.5H-176.1z"/>
		<path class="st4" d="M-178.5,416.1c-0.6,0-1-0.4-1.1-0.9c0-0.6,0.4-1,0.9-1.1l3.4-0.5c0.6-0.1,1.1,0.3,1.2,0.9
			c0.1,0.6-0.3,1.1-0.9,1.1l-3.4,0.5H-178.5z"/>
		<path class="st4" d="M-180.9,411.3c-0.6,0-1-0.4-1.1-0.9s0.4-1,0.9-1.1l3.4-0.5c0.6-0.1,1.1,0.3,1.1,0.8c0.1,0.6-0.3,1.1-0.8,1.2
			l-3.4,0.5H-180.9z"/>
		<path class="st4" d="M-183.3,406.6c-0.6,0-1-0.4-1.1-0.9c0-0.6,0.4-1,0.9-1.1l3.4-0.5c0.6-0.1,1.1,0.3,1.2,0.9
			c0.1,0.6-0.3,1.1-0.9,1.1l-3.4,0.5H-183.3z"/>
		<path class="st4" d="M-184.4,401.4c-0.6,0-1-0.4-1.1-0.9c0-0.6,0.4-1,0.9-1.1l3.4-0.5c0.6-0.1,1.1,0.3,1.2,0.9s-0.3,1.1-0.9,1.1
			l-3.4,0.5H-184.4z"/>
		<path class="st4" d="M-185.2,396c-0.6,0-1-0.4-1.1-0.9c0-0.6,0.4-1,0.9-1.1l3.4-0.5c0.6-0.1,1.1,0.3,1.1,0.9
			c0.1,0.6-0.3,1.1-0.8,1.1l-3.4,0.5H-185.2z"/>
		<path class="st4" d="M-185.5,390.7c-0.6,0-1-0.4-1.1-0.9c0-0.6,0.4-1,0.9-1.1l3.4-0.5c0.6-0.1,1.1,0.3,1.1,0.9
			c0.1,0.6-0.3,1.1-0.8,1.1l-3.4,0.5H-185.5z"/>
		<path class="st4" d="M-184.9,385.4c-0.6,0-1-0.4-1.1-0.9s0.4-1,0.9-1.1l3.4-0.5c0.6-0.1,1.1,0.3,1.1,0.9s-0.3,1.1-0.8,1.1
			l-3.4,0.5L-184.9,385.4z"/>
		<path class="st4" d="M-184.3,380.1c-0.6,0-1-0.4-1.1-0.9s0.4-1,0.9-1.1l3.4-0.5c0.6-0.1,1.1,0.3,1.1,0.8c0.1,0.6-0.3,1.1-0.8,1.2
			l0,0l-3.4,0.5H-184.3z"/>
		<path class="st4" d="M-182.4,375.2c-0.6,0-1-0.4-1.1-0.9c0-0.6,0.4-1,0.9-1.1l3.4-0.5c0.6-0.1,1.1,0.3,1.1,0.8
			c0.1,0.6-0.3,1.1-0.8,1.2l-3.4,0.5H-182.4z"/>
		<path class="st4" d="M-180,370.4c-0.6,0-1-0.4-1.1-0.9c0-0.6,0.4-1,0.9-1.1l3.4-0.5c0.6-0.1,1.1,0.3,1.1,0.9s-0.3,1.1-0.9,1.1
			l-3.4,0.5H-180z"/>
		<path class="st4" d="M-176.6,366.5c-0.6,0-1-0.4-1.1-0.9c0-0.6,0.4-1,0.9-1.1l3.4-0.5c0.6-0.1,1.1,0.3,1.2,0.8
			c0.1,0.6-0.3,1.1-0.9,1.2l-3.4,0.5H-176.6z"/>
		<path class="st4" d="M-172,363.8c-0.6,0-1-0.4-1.1-0.9c0-0.6,0.4-1,0.9-1.1l3.4-0.5c0.6-0.1,1.1,0.3,1.1,0.9s-0.3,1.1-0.9,1.1
			l-3.4,0.5H-172z"/>
		<path class="st4" d="M-166.8,363.4c-0.6,0-1-0.4-1.1-0.9c0-0.6,0.4-1,0.9-1.1l3.4-0.5c0.6-0.1,1.1,0.3,1.2,0.9s-0.3,1.1-0.9,1.1
			l-3.4,0.5L-166.8,363.4z"/>
		<path class="st4" d="M-161.5,363.6c-0.6,0-1-0.4-1.1-0.9c0-0.6,0.4-1,0.9-1.1l3.4-0.5c0.6-0.1,1.1,0.3,1.1,0.9
			c0.1,0.6-0.3,1.1-0.8,1.1l-3.4,0.5H-161.5z"/>
		<path class="st4" d="M-110.6,496.7c-6.5,0-13.2-2.9-17.2-4.7c-3-1.3-6.1-2.5-9.3-3.8c-13.1-5.1-26.6-10.4-34.4-22.4
			c-7.3-11.2-7.2-31.3,3.9-41.5l1.3,1.5c-10.4,9.5-10.4,28.4-3.6,39c7.4,11.4,20.6,16.6,33.4,21.6c3.3,1.3,6.4,2.5,9.4,3.8
			c9.9,4.3,21,7.7,27.7-0.6c2.5-3.1,3.7-6.9,4.8-10.7c3.5-12.2,7.1-29.6-2-39.7c-3.7-4.1-9.3-6.2-14.7-8.2l-2.5-1l0.7-1.9l2.5,0.9
			c5.3,2,11.4,4.3,15.4,8.7c9.8,10.8,6.1,28.9,2.5,41.6c-1.1,3.9-2.4,8-5.2,11.4C-100.8,494.7-105.6,496.9-110.6,496.7z"/>
		<path class="st4" d="M-112.2,473.4h-0.5c-6.3-0.1-12.3-2-18.4-4.1c-12.7-4.3-26.1-9.4-38.1-17.3c-2.1-1.4-4.5-3.1-6-5.6
			c-1.7-2.8-1.5-6.3,0.3-8.4l1.5,1.3c-1.5,1.7-1.1,4.4-0.1,6.1c1.2,2.1,3.4,3.6,5.3,4.9c11.9,7.8,25.2,12.8,37.7,17.1
			c6,2,11.8,3.9,17.8,4c8,0.1,15.7-2.9,21.5-8.3l1.4,1.5C-95.8,470.2-103.8,473.4-112.2,473.4z"/>
		<path class="st4" d="M-129.4,375.4c-0.5,0-1-0.4-1-0.9c-0.6-7.5-0.6-15,0-22.6c0.4-5.3,1.1-10.8,3.5-15.7c2.8-5.5,7.5-9.3,12.6-10
			c0.6-0.1,1.1,0.3,1.1,0.9c0.1,0.6-0.3,1.1-0.9,1.1c-4.4,0.6-8.7,4-11.1,8.9c-2.3,4.6-2.9,9.9-3.3,14.9c-0.6,7.4-0.6,14.9,0,22.3
			C-128.3,374.9-128.7,375.3-129.4,375.4C-129.3,375.4-129.3,375.4-129.4,375.4L-129.4,375.4z"/>
		<path class="st4" d="M-48.5,496l-1.9-0.5c4.3-18.2,4.4-36.6,4.1-52.3c-0.1-2.7-0.1-5.4-0.2-8.1c-0.3-14.3-0.6-29-2.3-43.5
			c-2.9-24.7-9.5-41.6-21-53.1l1.4-1.4c11.8,11.8,18.7,29.1,21.6,54.2c1.7,14.5,2,29.3,2.3,43.6c0.1,2.7,0.1,5.4,0.2,8.1
			C-44,459-44.1,477.6-48.5,496z"/>
		<path class="st4" d="M-32.2,478.2l-1.2-1.6c6.6-4.9,9.8-10.6,13.8-17.8l0.6-1.1c9.1-16.3,11.3-37.6,5.9-58.3
			c-4.5-17.4-14.2-35-28.9-52.4c-6.8-8.1-16.1-17.8-28.2-21.9l0.7-1.9c12.5,4.3,22.1,14.3,29,22.5c14.9,17.6,24.7,35.5,29.3,53.2
			c5.5,21.2,3.3,43-6.1,59.8l-0.6,1.1C-21.9,466.9-25.3,473.1-32.2,478.2z"/>
		<path class="st4" d="M-19.6,452.3l-1.9-0.8c11.2-27.1,6.4-60.6-12-83.4l1.5-1.2C-13.1,390.2-8.1,424.6-19.6,452.3z"/>
		<path class="st1" d="M-69.8,324.1c0.1-20-18.4-45.9-41.8-34.3c-7.6,3.8-12.6,11.4-15.4,19.1c-0.7,2-1.7,5.9-1,8.9
			c0.4,1.8,2.2,2.2,4.1,1.9c2.5-0.3,4.9-1.3,6.1-3.2c2.3-3.8,2.3-6.6,3.6-10.4c1.5-4.4,5.4-8.9,10.4-9.7
			c13.3-2.3,21.8,12.7,22.1,24.2c0.1,4.7-2.7,16.7,5.3,16.1c2.2-0.2,4.3-1.3,5.7-3C-68.9,331.3-69.9,326.9-69.8,324.1z"/>
		<path class="st4" d="M-77,337.7c-1.5,0.1-2.9-0.5-4-1.5c-2.7-2.7-2.2-8-1.9-12.3c0.1-1.2,0.2-2.4,0.2-3.3
			c-0.2-7.6-3.8-15.6-9.1-20c-3.2-2.8-7.6-4-11.8-3.3c-4.8,0.8-8.3,5.3-9.6,9c-0.4,1.2-0.7,2.4-1,3.5c-0.5,2.5-1.4,4.9-2.7,7.1
			c-1.5,2.5-4.5,3.4-6.8,3.7c-2.8,0.4-4.8-0.6-5.2-2.7c-0.9-3.9,0.9-8.9,1.1-9.5c2.4-6.5,7.1-15.2,15.9-19.5s17.3-4,25.2,0.9
			c10.5,6.6,18.1,21,18,34.3l0,0c0,0.6,0,1.4,0.1,2.2c0.2,2.6,0.4,5.9-1.2,8c-1.6,1.9-3.9,3.1-6.4,3.4L-77,337.7z M-101.2,295.1
			c3.9,0,7.6,1.5,10.6,4c5.7,4.7,9.7,13.3,9.8,21.5c0,1-0.1,2.1-0.2,3.5c-0.3,3.7-0.7,8.7,1.3,10.7c0.8,0.8,2,1.1,3.1,0.9
			c1.9-0.2,3.7-1.1,5-2.6c1.2-1.5,1-4.2,0.8-6.7c-0.1-0.8-0.1-1.6-0.1-2.3c0.1-12.6-7.1-26.3-17.1-32.5c-7.2-4.5-15.2-4.8-23.2-0.8
			c-8,4-12.6,12.2-14.9,18.5c-0.7,1.8-1.6,5.6-1,8.3c0.2,1,1.3,1.4,3,1.2c1.5-0.2,4.2-0.8,5.4-2.7c1.2-2,2-4.2,2.4-6.5
			c0.3-1.1,0.6-2.3,1-3.6c1.5-4.5,5.5-9.4,11.2-10.4C-103.1,295.2-102.2,295.1-101.2,295.1z"/>
		<path class="st2" d="M-99.9,291.2c7.2,1.4,13.7,4.6,17.8,12.1c2.6,4.8,3.7,10.2,4.2,15.6c0.3,3.2,0.3,6.4,0.3,9.5
			c0,2.9,0.2,5.5,2.1,7c1.3,0.2,2.7-0.3,3.5-1.3c3-3.4,2.3-10.4,1.8-14.5c-0.8-6.6-3.3-12.9-7.2-18.3c-2.2-3.1-7.3-9.1-12.5-12.3
			l0,0c-2.4-1.4-4.7-2.3-6.9-2c-4.3-0.3-8.7,0.9-12.9,2.5c1.6,0.5,3.2,0.8,4.9,0.8C-103.1,290.5-101.5,290.8-99.9,291.2z"/>
		<path class="st2" d="M-121.6,318.8c-1.1-0.3-1.4-1.7-1.5-2.9c-0.1-9.8,6.7-18.3,16.3-20.4c1.8-0.4,3.9-0.5,5.4,0.6
			c-5.7,0.7-10.2,5.5-12.3,10.8C-114.8,310.1-116.1,320.2-121.6,318.8z"/>
		<path class="st4" d="M-77,337.7c-1.5,0.1-2.9-0.5-4-1.5c-2.7-2.7-2.2-8-1.9-12.3c0.1-1.2,0.2-2.4,0.2-3.3
			c-0.2-7.6-3.8-15.6-9.1-20c-3.2-2.8-7.6-4-11.8-3.3c-4.8,0.8-8.3,5.3-9.6,9c-0.4,1.2-0.7,2.4-1,3.5c-0.5,2.5-1.4,4.9-2.7,7.1
			c-1.5,2.5-4.5,3.4-6.8,3.7c-2.8,0.4-4.8-0.6-5.2-2.7c-0.9-3.9,0.9-8.9,1.1-9.5c2.4-6.5,7.1-15.2,15.9-19.5s17.3-4,25.2,0.9
			c10.5,6.6,18.1,21,18,34.3l0,0c0,0.6,0,1.4,0.1,2.2c0.2,2.6,0.4,5.9-1.2,8c-1.6,1.9-3.9,3.1-6.4,3.4L-77,337.7z M-101.2,295.1
			c3.9,0,7.6,1.5,10.6,4c5.7,4.7,9.7,13.3,9.8,21.5c0,1-0.1,2.1-0.2,3.5c-0.3,3.7-0.7,8.7,1.3,10.7c0.8,0.8,2,1.1,3.1,0.9
			c1.9-0.2,3.7-1.1,5-2.6c1.2-1.5,1-4.2,0.8-6.7c-0.1-0.8-0.1-1.6-0.1-2.3c0.1-12.6-7.1-26.3-17.1-32.5c-7.2-4.5-15.2-4.8-23.2-0.8
			c-8,4-12.6,12.2-14.9,18.5c-0.7,1.8-1.6,5.6-1,8.3c0.2,1,1.3,1.4,3,1.2c1.5-0.2,4.2-0.8,5.4-2.7c1.2-2,2-4.2,2.4-6.5
			c0.3-1.1,0.6-2.3,1-3.6c1.5-4.5,5.5-9.4,11.2-10.4C-103.1,295.2-102.2,295.1-101.2,295.1z"/>
	</g>
</g>
</svg>
