<?xml version="1.0" encoding="utf-8"?>
<!-- Generator: Adobe Illustrator 19.0.0, SVG Export Plug-In . SVG Version: 6.00 Build 0)  -->
<svg version="1.1" id="Layer_1" xmlns="http://www.w3.org/2000/svg" xmlns:xlink="http://www.w3.org/1999/xlink" x="0px" y="0px"
	 viewBox="0 0 26 25.4" style="enable-background:new 0 0 26 25.4;" xml:space="preserve">
<style type="text/css">
	.st0{fill:none;stroke:#2486C4;stroke-linejoin:round;stroke-miterlimit:10;}
	.st1{fill:#FFFFFF;stroke:#F36E4A;stroke-miterlimit:10;}
	.st2{fill:#FFFFFF;stroke:#D1D5D7;stroke-miterlimit:10;}
</style>
<path id="XMLID_7_" class="st0" d="M8.5,24.9L8.5,24.9L8.5,24.9v-3.4H5.7c-1.6,0-2.2-1-2.2-2.6v-2.4H1.3c-0.6,0-1-0.5-0.8-1l2.4-6.3
	C4.1,6,7.1,3.8,10.7,3.9c4,0.2,7.5,3.3,7.8,7.3c0.2,3.3-0.9,6.1-3.9,7.5V25"/>
<path class="st1" d="M15.4,10.4c0-0.6-0.4-1.1-0.9-1.3c-0.1-0.7-0.7-1.3-1.4-1.3c-0.1,0-0.2,0-0.3,0c-0.2-0.5-0.7-0.9-1.3-0.9
	c-0.4,0-0.8,0.2-1,0.4c-0.3-0.3-0.6-0.4-1-0.4C8.6,6.8,8,7.3,7.9,8C7.7,7.9,7.6,7.9,7.4,7.9C6.6,7.9,6,8.5,6,9.3
	c0,0.3,0.1,0.6,0.3,0.8C6.1,10.4,6,10.7,6,11c0,0.8,0.6,1.4,1.4,1.4c0.2,0,0.5-0.1,0.7-0.2c0.3,0.2,0.6,0.4,0.9,0.4
	c0.3,0,0.6-0.1,0.9-0.3c0.2,0.2,0.5,0.3,0.9,0.3c0,0,0.1,0,0.1,0c0.2,0.3,0.6,0.6,1,0.6c0.1,0.6,0.7,1.1,1.4,1.1
	c0.8,0,1.4-0.6,1.4-1.4c0,0,0,0,0,0c0.3-0.3,0.5-0.6,0.5-1.1c0-0.2,0-0.4-0.1-0.5C15.2,11,15.4,10.7,15.4,10.4z"/>
<line id="XMLID_6_" class="st2" x1="23.5" y1="4" x2="23.5" y2="9"/>
<line id="XMLID_5_" class="st2" x1="21" y1="6.5" x2="26" y2="6.5"/>
<line id="XMLID_4_" class="st2" x1="22.5" y1="16" x2="22.5" y2="19"/>
<line id="XMLID_3_" class="st2" x1="21" y1="17.5" x2="24" y2="17.5"/>
<line id="XMLID_2_" class="st2" x1="18.5" y1="0" x2="18.5" y2="3"/>
<line id="XMLID_1_" class="st2" x1="17" y1="1.5" x2="20" y2="1.5"/>
</svg>
