<?xml version="1.0" encoding="utf-8"?>
<!-- Generator: Adobe Illustrator 19.0.0, SVG Export Plug-In . SVG Version: 6.00 Build 0)  -->
<svg version="1.1" id="Layer_1" xmlns="http://www.w3.org/2000/svg" xmlns:xlink="http://www.w3.org/1999/xlink" x="0px" y="0px"
	 viewBox="0 0 150 150" style="enable-background:new 0 0 150 150;" xml:space="preserve">
<style type="text/css">
	.st0{fill:#E8E8E9;}
	.st1{fill:#06476B;}
	.st2{fill:#F4F6F7;}
	.st3{fill:#43B983;}
	.st4{opacity:0.5;enable-background:new    ;}
	.st5{fill:#2084C3;}
	.st6{opacity:0.2;enable-background:new    ;}
</style>
<g id="XMLID_601_">
	<g id="XMLID_192_">
		<path class="st0" d="M111.8,76.9H39.5c-2.8,0-5-2.2-5-5V22.8c0-2.8,2.2-5,5-5h72.3c2.8,0,5,2.2,5,5V72
			C116.8,74.7,114.6,76.9,111.8,76.9z"/>
		<path class="st1" d="M111.8,77.9H39.5c-3.4,0-6-2.6-6-6V22.8c0-3.4,2.6-6,6-6h72.3c3.4,0,6,2.6,6,6V72
			C117.8,75.3,115.1,77.9,111.8,77.9z M39.5,18.8c-2.2,0-4,1.8-4,4v49.1c0,2.2,1.8,4,4,4h72.3c2.2,0,4-1.7,4-3.9V22.8
			c0-2.2-1.8-4-4-4H39.5z"/>
	</g>
	<g id="XMLID_365_">
		<rect x="39.7" y="23.2" class="st2" width="72" height="49.2"/>
		<path class="st1" d="M112.2,72.9h-73V22.7h73V72.9z M40.2,71.9h71V23.7h-71V71.9z"/>
	</g>
	<g id="XMLID_392_">
		<circle class="st3" cx="75.7" cy="48.9" r="9.7"/>
		<path class="st2" d="M75.7,59.6c-5.9,0-10.7-4.8-10.7-10.7s4.8-10.7,10.7-10.7c5.9,0,10.7,4.8,10.7,10.7S81.6,59.6,75.7,59.6z
			 M75.7,40.2c-4.8,0-8.7,3.9-8.7,8.7c0,4.8,3.9,8.7,8.7,8.7c4.8,0,8.7-3.9,8.7-8.7C84.4,44.1,80.5,40.2,75.7,40.2z"/>
	</g>
	<g id="XMLID_396_">
		<polygon class="st2" points="86,35.9 72.2,49.8 65.3,43 61.9,46.4 68.7,53.3 72.2,56.7 89.5,39.4 		"/>
		<path class="st3" d="M72.2,58.1L68,54l-7.5-7.6l4.8-4.8l6.9,6.8L86,34.5l4.9,4.9L72.2,58.1z M63.3,46.4l6.1,6.2l2.8,2.7l15.9-15.9
			L86,37.3L72.2,51.2l-6.9-6.8L63.3,46.4z"/>
	</g>
	<g id="XMLID_394_" class="st4">
		<path class="st5" d="M87.9,65.2H63.4c-0.7,0-1.2-0.6-1.2-1.2l0,0c0-0.7,0.6-1.2,1.2-1.2h24.5c0.7,0,1.2,0.6,1.2,1.2l0,0
			C89.2,64.6,88.6,65.2,87.9,65.2z"/>
		<path class="st1" d="M87.9,65.7H63.4c-1,0-1.7-0.9-1.7-1.7c0-1,0.9-1.7,1.7-1.7h24.5c1,0,1.7,0.9,1.7,1.7c0.1,0.3-0.1,0.7-0.4,1.1
			C88.9,65.5,88.4,65.7,87.9,65.7z M63.4,63.3c-0.3,0-0.7,0.3-0.7,0.7c0,0.3,0.3,0.7,0.7,0.7h24.5c0.2,0,0.4-0.1,0.6-0.3
			c0.1-0.1,0.1-0.2,0.1-0.3c0-0.4-0.3-0.8-0.7-0.8H63.4z"/>
	</g>
</g>
<g id="XMLID_602_">
	<g id="XMLID_411_">
		<rect x="21" y="68.4" class="st0" width="108.7" height="64.7"/>
		<path class="st1" d="M130.7,134.1H20V67.4h110.7V134.1z M22,132.1h106.7V69.4H22V132.1z"/>
	</g>
	<g id="XMLID_412_">
		<polygon class="st0" points="132.7,97.4 18,97.4 21,68.4 129.7,68.4 		"/>
		<path class="st1" d="M133.8,98.4H16.9l3.2-31h110.5L133.8,98.4z M19.1,96.4h112.5l-2.8-27H21.9L19.1,96.4z"/>
	</g>
	<g id="XMLID_41_" class="st6">
		<rect x="21" y="97.4" class="st1" width="108.7" height="7.3"/>
	</g>
	<g id="XMLID_181_">
		
			<rect x="119.5" y="81.9" transform="matrix(0.3347 0.9423 -0.9423 0.3347 167.8392 -71.918)" class="st1" width="30.8" height="2"/>
	</g>
	<g id="XMLID_182_">
		<rect x="14.7" y="67.5" transform="matrix(0.9422 0.3349 -0.3349 0.9422 28.674 -0.4873)" class="st1" width="2" height="30.8"/>
	</g>
</g>
</svg>
