<?xml version="1.0" encoding="utf-8"?>
<!-- Generator: Adobe Illustrator 19.0.0, SVG Export Plug-In . SVG Version: 6.00 Build 0)  -->
<svg version="1.1" id="Layer_1" xmlns="http://www.w3.org/2000/svg" xmlns:xlink="http://www.w3.org/1999/xlink" x="0px" y="0px"
	 viewBox="0 0 180 154" style="enable-background:new 0 0 180 154;" xml:space="preserve">
<style type="text/css">
	.st0{opacity:0.1;fill:#06476B;}
	.st1{fill:#FFFFFF;stroke:#06486C;stroke-width:4;stroke-miterlimit:10;}
	.st2{fill:#9BB5C4;stroke:#06486C;stroke-width:2;stroke-miterlimit:10;}
	.st3{fill:none;stroke:#82A3B5;stroke-width:2;stroke-miterlimit:10;}
</style>
<circle class="st0" cx="78" cy="83" r="71"/>
<path class="st1" d="M168,84h-48c-5.5,0-10-4.5-10-10v-2c0-5.5,4.5-10,10-10h48c5.5,0,10,4.5,10,10v2C178,79.5,173.5,84,168,84z"/>
<path class="st0" d="M110,72v2c0,5.5,4.5,10,10,10h31c0.5-3.6,0.7-7.3,0.7-11s-0.3-7.4-0.7-11h-31C114.5,62,110,66.5,110,72z"/>
<circle class="st1" cx="73" cy="73" r="71"/>
<circle class="st2" cx="73" cy="73" r="60"/>
<path class="st3" d="M125.4,74c-0.1,2.7-0.4,5.5-0.9,8.2c-1,5-2.6,9.7-4.9,14"/>
<path class="st3" d="M115.3,103.1C103.8,118.6,84,127,63.8,123c-28-5.5-46.3-32.7-40.8-60.7C25.8,48,34.3,36.3,45.6,28.9"/>
<path class="st3" d="M88.1,84c-4.6,6.2-12.6,9.6-20.7,8c-4.4-0.9-8.1-3-11-6"/>
<path class="st3" d="M114.9,90.8c-2.7,6-6.7,11.3-11.5,15.5"/>
<path class="st3" d="M35,49.1c9.5-15.9,28.2-24.9,47.5-21.1c24.5,4.8,40.4,28.5,35.7,53c-0.7,3.5-1.7,6.8-3.1,9.9"/>
</svg>
