<?xml version="1.0" encoding="UTF-8"?>
<svg width="137px" height="134px" viewBox="0 0 137 134" version="1.1" xmlns="http://www.w3.org/2000/svg" xmlns:xlink="http://www.w3.org/1999/xlink">
    <!-- Generator: Sketch 50.2 (55047) - http://www.bohemiancoding.com/sketch -->
    <title>heart_of_darkness</title>
    <desc>Created with Sketch.</desc>
    <defs></defs>
    <g id="heart_of_darkness" stroke="none" stroke-width="1" fill="none" fill-rule="evenodd">
        <g id="Group" transform="translate(-2.000000, 12.000000)" fill-rule="nonzero">
            <path d="M132.1,56.4 L68.1,56.4 L74.6,47.7 L125.6,47.7 L132.1,56.4 Z M125.246466,53.0040864 L123.809511,51.0432768 L76.3741629,50.8093225 L75.047572,52.7978348 L125.246466,53.0040864 Z" id="Combined-Shape" fill="#FFFFFF"></path>
            <rect id="XMLID_31_" fill="#DAE6E8" x="9" y="92.3" width="121.9" height="2"></rect>
            <rect id="XMLID_24_" fill="#DAE6E8" x="5.4" y="81.3" width="129.3" height="2"></rect>
            <path d="M49.1,42.9 L45.3,42.9 C40.8,42.9 37,39.9 35.8,35.7 C34.8,36 33.8,36.2 32.8,36.2 C27.3,36.2 22.8,31.7 22.8,26.2 C22.8,22.1 25.3,18.5 29,17 C28,15.3 27.5,13.3 27.5,11.3 C27.5,5.1 32.6,0 38.8,0 C42.7,0 46.3,2 48.4,5.3 C50.1,4.5 51.9,4.1 53.7,4.1 C60.8,4.1 66.6,9.9 66.6,17 C66.6,17.3 66.6,17.6 66.6,17.9 C67.6,17.6 68.6,17.5 69.6,17.5 C75.4,17.5 80,22.2 80,27.9 C80,32.2 77.3,36 73.4,37.6 C73.9,38.7 74.1,39.9 74.1,41.1 C74.1,45.6353513 70.5875224,49.4853411 66.1,50.033242 L66.1,31.3 L49.1,31.3 L49.1,42.9 Z" id="Combined-Shape" fill="#FFFFFF" opacity="0.5"></path>
            <path d="M126.1,78 L136.1,78 L136.1,79 C135.804825,89.0359416 126.603219,103.42829 125.926287,104.460183 C124.860796,103.805581 123.818435,103.018588 122.8,102.1 C109.7,90.3 96.4,102 96.3,102.1 C95.8,102.5 83.9,112.4 72.4,102.1 C59.6,90.6 46,101.9 45.8,102.1 C45.4,102.6 34.2,113.1 22,102.1 C17.605332,98.1936285 13.3060374,96.8146511 9.54453573,96.6940225 C6.87169218,91.5351883 4.1,84.778472 4.1,79 L4.1,78 L74.1,78 L74.1,54.4 L81.1,54.4 L81.1,78 L89.1,78 L89.1,54.4 L96.1,54.4 L96.1,78 L104.1,78 L104.1,54.4 L111.1,54.4 L111.1,78 L119.1,78 L119.1,54.4 L126.1,54.4 L126.1,78 Z M15.1,91.2 C16.9,91.2 18.4,89.7 18.4,87.9 C18.4,86.1 16.9,84.6 15.1,84.6 C13.3,84.6 11.8,86.1 11.8,87.9 C11.8,89.7 13.3,91.2 15.1,91.2 Z M25.1,91.2 C26.9,91.2 28.4,89.7 28.4,87.9 C28.4,86.1 26.9,84.6 25.1,84.6 C23.3,84.6 21.8,86.1 21.8,87.9 C21.8,89.7 23.3,91.2 25.1,91.2 Z M35.1,91.2 C36.9,91.2 38.4,89.7 38.4,87.9 C38.4,86.1 36.9,84.6 35.1,84.6 C33.3,84.6 31.8,86.1 31.8,87.9 C31.8,89.7 33.3,91.2 35.1,91.2 Z M45.1,91.2 C46.9,91.2 48.4,89.7 48.4,87.9 C48.4,86.1 46.9,84.6 45.1,84.6 C43.3,84.6 41.8,86.1 41.8,87.9 C41.8,89.7 43.3,91.2 45.1,91.2 Z M55.1,91.2 C56.9,91.2 58.4,89.7 58.4,87.9 C58.4,86.1 56.9,84.6 55.1,84.6 C53.3,84.6 51.8,86.1 51.8,87.9 C51.8,89.7 53.3,91.2 55.1,91.2 Z M65.1,91.2 C66.9,91.2 68.4,89.7 68.4,87.9 C68.4,86.1 66.9,84.6 65.1,84.6 C63.3,84.6 61.8,86.1 61.8,87.9 C61.8,89.7 63.3,91.2 65.1,91.2 Z M75.1,91.2 C76.9,91.2 78.4,89.7 78.4,87.9 C78.4,86.1 76.9,84.6 75.1,84.6 C73.3,84.6 71.8,86.1 71.8,87.9 C71.8,89.7 73.3,91.2 75.1,91.2 Z M85.1,91.2 C86.9,91.2 88.4,89.7 88.4,87.9 C88.4,86.1 86.9,84.6 85.1,84.6 C83.3,84.6 81.8,86.1 81.8,87.9 C81.8,89.7 83.3,91.2 85.1,91.2 Z M95.1,91.2 C96.9,91.2 98.4,89.7 98.4,87.9 C98.4,86.1 96.9,84.6 95.1,84.6 C93.3,84.6 91.8,86.1 91.8,87.9 C91.8,89.7 93.3,91.2 95.1,91.2 Z M105.1,91.2 C106.9,91.2 108.4,89.7 108.4,87.9 C108.4,86.1 106.9,84.6 105.1,84.6 C103.3,84.6 101.8,86.1 101.8,87.9 C101.8,89.7 103.3,91.2 105.1,91.2 Z M115.1,91.2 C116.9,91.2 118.4,89.7 118.4,87.9 C118.4,86.1 116.9,84.6 115.1,84.6 C113.3,84.6 111.8,86.1 111.8,87.9 C111.8,89.7 113.3,91.2 115.1,91.2 Z M125.1,91.2 C126.9,91.2 128.4,89.7 128.4,87.9 C128.4,86.1 126.9,84.6 125.1,84.6 C123.3,84.6 121.8,86.1 121.8,87.9 C121.8,89.7 123.3,91.2 125.1,91.2 Z" id="Combined-Shape" fill="#FFFFFF"></path>
            <path d="M66.1,80 L49.1,80 L49.1,31.3 L66.1,31.3 L66.1,80 Z M54.1,37.7 L54.1,64.5 L56.1,64.5 L56.1,37.7 L54.1,37.7 Z" id="Combined-Shape" fill="#FFFFFF"></path>
            <path d="M33.6,109.2 C29.7,109.2 25.2,107.8 20.6,103.7 C12.9,96.8 5.6,98.3 0.9,100.8 L0,99 C4.4,96.7 13,94.1 22,102.1 C34.2,113.1 45.4,102.6 45.8,102.1 C46,101.9 59.6,90.6 72.4,102.1 C83.9,112.4 95.8,102.5 96.3,102.1 C96.4,102 109.7,90.3 122.8,102.1 C127.9,106.7 133.6,108 139.8,105.9 L140.4,107.8 C135.7,109.4 128.6,109.9 121.5,103.5 C109.7,92.9 98.1,103.1 97.6,103.5 C97.4,103.6 83.9,115 71.1,103.5 C59.6,93.2 47.7,103.1 47.2,103.5 C47.1,103.8 41.4,109.2 33.6,109.2 Z" id="XMLID_32_" fill="#FFFFFF" opacity="0.25"></path>
        </g>
        <path d="M13.1,98.5 C12.4,98.5 11.8,99.1 11.8,99.8 C11.8,100.5 12.4,101.1 13.1,101.1 C13.8,101.1 14.4,100.5 14.4,99.8 C14.4,99.1 13.8,98.5 13.1,98.5 Z" id="XMLID_85_-path" fill="#FFFFFF"></path>
        <path d="M23.1,98.5 C22.4,98.5 21.8,99.1 21.8,99.8 C21.8,100.5 22.4,101.1 23.1,101.1 C23.8,101.1 24.4,100.5 24.4,99.8 C24.4,99.1 23.8,98.5 23.1,98.5 Z" id="XMLID_82_-path" fill="#FFFFFF"></path>
        <path d="M33.1,98.5 C32.4,98.5 31.8,99.1 31.8,99.8 C31.8,100.5 32.4,101.1 33.1,101.1 C33.8,101.1 34.4,100.5 34.4,99.8 C34.4,99.1 33.8,98.5 33.1,98.5 Z" id="XMLID_79_-path" fill="#FFFFFF"></path>
        <path d="M43.1,98.5 C42.4,98.5 41.8,99.1 41.8,99.8 C41.8,100.5 42.4,101.1 43.1,101.1 C43.8,101.1 44.4,100.5 44.4,99.8 C44.4,99.1 43.8,98.5 43.1,98.5 Z" id="XMLID_76_-path" fill="#FFFFFF"></path>
        <path d="M53.1,98.5 C52.4,98.5 51.8,99.1 51.8,99.8 C51.8,100.5 52.4,101.1 53.1,101.1 C53.8,101.1 54.4,100.5 54.4,99.8 C54.4,99.1 53.8,98.5 53.1,98.5 Z" id="XMLID_73_-path" fill="#FFFFFF"></path>
        <path d="M63.1,98.5 C62.4,98.5 61.8,99.1 61.8,99.8 C61.8,100.5 62.4,101.1 63.1,101.1 C63.8,101.1 64.4,100.5 64.4,99.8 C64.4,99.1 63.8,98.5 63.1,98.5 Z" id="XMLID_70_-path" fill="#FFFFFF"></path>
        <path d="M73.1,98.5 C72.4,98.5 71.8,99.1 71.8,99.8 C71.8,100.5 72.4,101.1 73.1,101.1 C73.8,101.1 74.4,100.5 74.4,99.8 C74.4,99.1 73.8,98.5 73.1,98.5 Z" id="XMLID_67_-path" fill="#FFFFFF"></path>
        <path d="M83.1,98.5 C82.4,98.5 81.8,99.1 81.8,99.8 C81.8,100.5 82.4,101.1 83.1,101.1 C83.8,101.1 84.4,100.5 84.4,99.8 C84.4,99.1 83.8,98.5 83.1,98.5 Z" id="XMLID_64_-path" fill="#FFFFFF"></path>
        <path d="M93.1,98.5 C92.4,98.5 91.8,99.1 91.8,99.8 C91.8,100.5 92.4,101.1 93.1,101.1 C93.8,101.1 94.4,100.5 94.4,99.8 C94.4,99.1 93.8,98.5 93.1,98.5 Z" id="XMLID_61_-path" fill="#FFFFFF"></path>
        <path d="M103.1,98.5 C102.4,98.5 101.8,99.1 101.8,99.8 C101.8,100.5 102.4,101.1 103.1,101.1 C103.8,101.1 104.4,100.5 104.4,99.8 C104.4,99.1 103.8,98.5 103.1,98.5 Z" id="XMLID_58_-path" fill="#FFFFFF"></path>
        <path d="M113.1,98.5 C112.4,98.5 111.8,99.1 111.8,99.8 C111.8,100.5 112.4,101.1 113.1,101.1 C113.8,101.1 114.4,100.5 114.4,99.8 C114.4,99.1 113.8,98.5 113.1,98.5 Z" id="XMLID_55_-path" fill="#FFFFFF"></path>
        <path d="M123.1,98.5 C122.4,98.5 121.8,99.1 121.8,99.8 C121.8,100.5 122.4,101.1 123.1,101.1 C123.8,101.1 124.4,100.5 124.4,99.8 C124.4,99.1 123.8,98.5 123.1,98.5 Z" id="XMLID_52_-path" fill="#FFFFFF"></path>
    </g>
</svg>