<?xml version="1.0" encoding="UTF-8"?>
<svg width="137px" height="134px" viewBox="0 0 137 134" version="1.1" xmlns="http://www.w3.org/2000/svg" xmlns:xlink="http://www.w3.org/1999/xlink">
    <!-- Generator: Sketch 50.2 (55047) - http://www.bohemiancoding.com/sketch -->
    <title>1984</title>
    <desc>Created with Sketch.</desc>
    <defs></defs>
    <g id="1984" stroke="none" stroke-width="1" fill="none" fill-rule="evenodd">
        <g id="Group-2" transform="translate(0.000000, 10.000000)" fill="#FFFFFF">
            <g id="Group">
                <path d="M0,53.4 L0,2 C-1.3527075e-16,0.8954305 0.8954305,2.02906125e-16 2,0 L40.914012,4.4408921e-16 C42.0172751,2.41423067e-16 42.9121636,0.893392616 42.9140092,1.99665417 L42.9999972,53.3966542 C43.0018451,54.5012221 42.1079138,55.3981494 41.0033458,55.3999972 C41.0022306,55.3999991 41.0011153,55.4 41,55.4 L2,55.4 C0.8954305,55.4 1.3527075e-16,54.5045695 0,53.4 Z M2.85359261,53.4 L40.0570764,53.4 C40.6093611,53.4 41.0570764,52.9522847 41.0570764,52.4 L41.0570764,3 C41.0570764,2.44771525 40.6093611,2 40.0570764,2 L2.85359261,2 C2.30130786,2 1.85359261,2.44771525 1.85359261,3 L1.85359261,52.4 C1.85359261,52.9522847 2.30130786,53.4 2.85359261,53.4 Z" id="XMLID_135_" fill-rule="nonzero" opacity="0.25"></path>
                <rect id="XMLID_134_" fill-rule="nonzero" opacity="0.5" x="9.36170213" y="43" width="25.0893617" height="2" rx="1"></rect>
                <rect id="XMLID_133_" fill-rule="nonzero" opacity="0.5" x="9.36170213" y="47" width="25.0893617" height="2" rx="1"></rect>
                <path d="M9.36170213,22.1 L10.8595745,21.3 C11.7021277,20.9 14.4170213,19.2 14.9787234,17.9 C15.5404255,16.9 15.4468085,14.6 15.2595745,13 C19.1914894,13.9 23.2170213,13.9 27.1489362,13 C27.0553191,14.6 26.9617021,16.8 27.4297872,17.9 C27.9914894,19.2 30.706383,20.8 31.5489362,21.3 L32.8595745,22.0466667 L32.8595745,33.3 C32.8595745,33.9 32.6723404,34.4 32.2042553,34.8 C28.8340426,38.3 25.1829787,39.9 21.5319149,39.9 C17.8808511,39.9 13.9489362,38.3 10.1106383,35 C9.64255319,34.6 9.36170213,34 9.36170213,33.4 L9.36170213,22.1 Z M20.8252296,27.57439 C20.9250757,27.6068499 21.0294107,27.6233836 21.1344007,27.6233836 C21.6866854,27.6233836 22.1344007,27.1756683 22.1344007,26.6233836 L22.1344007,20.741521 C22.1344007,20.3319902 21.8024104,20 21.3928797,20 C20.983349,20 20.6513588,20.3319902 20.6513588,20.741521 L20.6513588,25.0827216 C20.6513588,25.1415694 20.642216,25.20006 20.6242575,25.2561006 C20.5285029,25.5549092 20.2086463,25.7195169 19.9098378,25.6237624 C19.9043599,25.622007 19.8988624,25.6203137 19.8933461,25.6186829 C19.4901905,25.4994969 19.0667489,25.7296998 18.9475629,26.1328555 L18.9458605,26.1386139 C18.822046,26.5574259 19.0542962,26.9986617 19.4696297,27.1336861 L20.8252296,27.57439 Z M22.8476286,29.0073542 L21.3497563,29.0073542 L19.8518839,29.0073542 C19.8518839,29.0073542 14.7965648,28.6073542 14.9837988,33.7073542 C14.9837988,33.7073542 17.9795435,31.7073542 21.4433733,32.0073542 C25.0944371,31.9073542 27.9029478,33.7073542 27.9029478,33.7073542 C27.9029478,28.6073542 22.8476286,29.0073542 22.8476286,29.0073542 Z" id="Combined-Shape" fill-rule="nonzero" opacity="0.25"></path>
                <path d="M9.36170213,22.7 L9.36170213,8.5 C9.36170213,7.7 10.2042553,7 10.9531915,7 L31.5489362,7 C32.2978723,7 32.9531915,7.7 32.9531915,8.5 L32.9531915,22.7 L31.5489362,21.9 C30.706383,21.4 27.9914894,19.8 27.4297872,18.5 C26.9617021,17.4 27.0553191,15.2 27.1489362,13.6 C23.2170213,14.5 19.1914894,14.5 15.2595745,13.6 C15.4468085,15.2 15.5404255,17.5 14.9787234,18.5 C14.4170213,19.8 11.7021277,21.5 10.8595745,21.9 L9.36170213,22.7 Z" id="XMLID_129_" fill-rule="nonzero"></path>
                <path d="M22.8476286,29.0073542 L21.3497563,29.0073542 L19.8518839,29.0073542 C19.8518839,29.0073542 14.7965648,28.6073542 14.9837988,33.7073542 C14.9837988,33.7073542 17.9795435,31.7073542 21.4433733,32.0073542 C25.0944371,31.9073542 27.9029478,33.7073542 27.9029478,33.7073542 C27.9029478,28.6073542 22.8476286,29.0073542 22.8476286,29.0073542 Z" id="Combined-Shape" fill-rule="nonzero"></path>
                <path d="M20.8252296,27.57439 L19.4696297,27.1336861 C19.0542962,26.9986617 18.822046,26.5574259 18.9458605,26.1386139 L18.9475629,26.1328555 C19.0667489,25.7296998 19.4901905,25.4994969 19.8933461,25.6186829 C19.8988624,25.6203137 19.9043599,25.622007 19.9098378,25.6237624 L19.9098378,25.6237624 C20.2086463,25.7195169 20.5285029,25.5549092 20.6242575,25.2561006 C20.642216,25.20006 20.6513588,25.1415694 20.6513588,25.0827216 L20.6513588,20.741521 C20.6513588,20.3319902 20.983349,20 21.3928797,20 L21.3928797,20 C21.8024104,20 22.1344007,20.3319902 22.1344007,20.741521 L22.1344007,26.6233836 C22.1344007,27.1756683 21.6866854,27.6233836 21.1344007,27.6233836 C21.0294107,27.6233836 20.9250757,27.6068499 20.8252296,27.57439 Z" id="XMLID_128_-path"></path>
            </g>
            <g id="Group-Copy-3" transform="translate(0.000000, 59.000000)">
                <path d="M0,53.4 L0,2 C-1.3527075e-16,0.8954305 0.8954305,2.02906125e-16 2,0 L40.914012,4.4408921e-16 C42.0172751,2.41423067e-16 42.9121636,0.893392616 42.9140092,1.99665417 L42.9999972,53.3966542 C43.0018451,54.5012221 42.1079138,55.3981494 41.0033458,55.3999972 C41.0022306,55.3999991 41.0011153,55.4 41,55.4 L2,55.4 C0.8954305,55.4 1.3527075e-16,54.5045695 0,53.4 Z M2.85359261,53.4 L40.0570764,53.4 C40.6093611,53.4 41.0570764,52.9522847 41.0570764,52.4 L41.0570764,3 C41.0570764,2.44771525 40.6093611,2 40.0570764,2 L2.85359261,2 C2.30130786,2 1.85359261,2.44771525 1.85359261,3 L1.85359261,52.4 C1.85359261,52.9522847 2.30130786,53.4 2.85359261,53.4 Z" id="XMLID_135_" fill-rule="nonzero" opacity="0.25"></path>
                <rect id="XMLID_134_" fill-rule="nonzero" opacity="0.5" x="9.36170213" y="43" width="25.0893617" height="2" rx="1"></rect>
                <rect id="XMLID_133_" fill-rule="nonzero" opacity="0.5" x="9.36170213" y="47" width="25.0893617" height="2" rx="1"></rect>
                <path d="M9.36170213,22.1 L10.8595745,21.3 C11.7021277,20.9 14.4170213,19.2 14.9787234,17.9 C15.5404255,16.9 15.4468085,14.6 15.2595745,13 C19.1914894,13.9 23.2170213,13.9 27.1489362,13 C27.0553191,14.6 26.9617021,16.8 27.4297872,17.9 C27.9914894,19.2 30.706383,20.8 31.5489362,21.3 L32.8595745,22.0466667 L32.8595745,33.3 C32.8595745,33.9 32.6723404,34.4 32.2042553,34.8 C28.8340426,38.3 25.1829787,39.9 21.5319149,39.9 C17.8808511,39.9 13.9489362,38.3 10.1106383,35 C9.64255319,34.6 9.36170213,34 9.36170213,33.4 L9.36170213,22.1 Z M20.8252296,27.57439 C20.9250757,27.6068499 21.0294107,27.6233836 21.1344007,27.6233836 C21.6866854,27.6233836 22.1344007,27.1756683 22.1344007,26.6233836 L22.1344007,20.741521 C22.1344007,20.3319902 21.8024104,20 21.3928797,20 C20.983349,20 20.6513588,20.3319902 20.6513588,20.741521 L20.6513588,25.0827216 C20.6513588,25.1415694 20.642216,25.20006 20.6242575,25.2561006 C20.5285029,25.5549092 20.2086463,25.7195169 19.9098378,25.6237624 C19.9043599,25.622007 19.8988624,25.6203137 19.8933461,25.6186829 C19.4901905,25.4994969 19.0667489,25.7296998 18.9475629,26.1328555 L18.9458605,26.1386139 C18.822046,26.5574259 19.0542962,26.9986617 19.4696297,27.1336861 L20.8252296,27.57439 Z M22.8476286,29.0073542 L21.3497563,29.0073542 L19.8518839,29.0073542 C19.8518839,29.0073542 14.7965648,28.6073542 14.9837988,33.7073542 C14.9837988,33.7073542 17.9795435,31.7073542 21.4433733,32.0073542 C25.0944371,31.9073542 27.9029478,33.7073542 27.9029478,33.7073542 C27.9029478,28.6073542 22.8476286,29.0073542 22.8476286,29.0073542 Z" id="Combined-Shape" fill-rule="nonzero" opacity="0.25"></path>
                <path d="M9.36170213,22.7 L9.36170213,8.5 C9.36170213,7.7 10.2042553,7 10.9531915,7 L31.5489362,7 C32.2978723,7 32.9531915,7.7 32.9531915,8.5 L32.9531915,22.7 L31.5489362,21.9 C30.706383,21.4 27.9914894,19.8 27.4297872,18.5 C26.9617021,17.4 27.0553191,15.2 27.1489362,13.6 C23.2170213,14.5 19.1914894,14.5 15.2595745,13.6 C15.4468085,15.2 15.5404255,17.5 14.9787234,18.5 C14.4170213,19.8 11.7021277,21.5 10.8595745,21.9 L9.36170213,22.7 Z" id="XMLID_129_" fill-rule="nonzero"></path>
                <path d="M22.8476286,29.0073542 L21.3497563,29.0073542 L19.8518839,29.0073542 C19.8518839,29.0073542 14.7965648,28.6073542 14.9837988,33.7073542 C14.9837988,33.7073542 17.9795435,31.7073542 21.4433733,32.0073542 C25.0944371,31.9073542 27.9029478,33.7073542 27.9029478,33.7073542 C27.9029478,28.6073542 22.8476286,29.0073542 22.8476286,29.0073542 Z" id="Combined-Shape" fill-rule="nonzero"></path>
                <path d="M20.8252296,27.57439 L19.4696297,27.1336861 C19.0542962,26.9986617 18.822046,26.5574259 18.9458605,26.1386139 L18.9475629,26.1328555 C19.0667489,25.7296998 19.4901905,25.4994969 19.8933461,25.6186829 C19.8988624,25.6203137 19.9043599,25.622007 19.9098378,25.6237624 L19.9098378,25.6237624 C20.2086463,25.7195169 20.5285029,25.5549092 20.6242575,25.2561006 C20.642216,25.20006 20.6513588,25.1415694 20.6513588,25.0827216 L20.6513588,20.741521 C20.6513588,20.3319902 20.983349,20 21.3928797,20 L21.3928797,20 C21.8024104,20 22.1344007,20.3319902 22.1344007,20.741521 L22.1344007,26.6233836 C22.1344007,27.1756683 21.6866854,27.6233836 21.1344007,27.6233836 C21.0294107,27.6233836 20.9250757,27.6068499 20.8252296,27.57439 Z" id="XMLID_128_-path"></path>
            </g>
            <g id="Group-Copy" transform="translate(47.000000, 0.000000)">
                <path d="M0,53.4 L0,2 C-1.3527075e-16,0.8954305 0.8954305,2.02906125e-16 2,0 L40.914012,4.4408921e-16 C42.0172751,2.41423067e-16 42.9121636,0.893392616 42.9140092,1.99665417 L42.9999972,53.3966542 C43.0018451,54.5012221 42.1079138,55.3981494 41.0033458,55.3999972 C41.0022306,55.3999991 41.0011153,55.4 41,55.4 L2,55.4 C0.8954305,55.4 1.3527075e-16,54.5045695 0,53.4 Z M2.85359261,53.4 L40.0570764,53.4 C40.6093611,53.4 41.0570764,52.9522847 41.0570764,52.4 L41.0570764,3 C41.0570764,2.44771525 40.6093611,2 40.0570764,2 L2.85359261,2 C2.30130786,2 1.85359261,2.44771525 1.85359261,3 L1.85359261,52.4 C1.85359261,52.9522847 2.30130786,53.4 2.85359261,53.4 Z" id="XMLID_135_" fill-rule="nonzero" opacity="0.25"></path>
                <rect id="XMLID_134_" fill-rule="nonzero" opacity="0.5" x="9.36170213" y="43" width="25.0893617" height="2" rx="1"></rect>
                <rect id="XMLID_133_" fill-rule="nonzero" opacity="0.5" x="9.36170213" y="47" width="25.0893617" height="2" rx="1"></rect>
                <path d="M9.36170213,22.1 L10.8595745,21.3 C11.7021277,20.9 14.4170213,19.2 14.9787234,17.9 C15.5404255,16.9 15.4468085,14.6 15.2595745,13 C19.1914894,13.9 23.2170213,13.9 27.1489362,13 C27.0553191,14.6 26.9617021,16.8 27.4297872,17.9 C27.9914894,19.2 30.706383,20.8 31.5489362,21.3 L32.8595745,22.0466667 L32.8595745,33.3 C32.8595745,33.9 32.6723404,34.4 32.2042553,34.8 C28.8340426,38.3 25.1829787,39.9 21.5319149,39.9 C17.8808511,39.9 13.9489362,38.3 10.1106383,35 C9.64255319,34.6 9.36170213,34 9.36170213,33.4 L9.36170213,22.1 Z M20.8252296,27.57439 C20.9250757,27.6068499 21.0294107,27.6233836 21.1344007,27.6233836 C21.6866854,27.6233836 22.1344007,27.1756683 22.1344007,26.6233836 L22.1344007,20.741521 C22.1344007,20.3319902 21.8024104,20 21.3928797,20 C20.983349,20 20.6513588,20.3319902 20.6513588,20.741521 L20.6513588,25.0827216 C20.6513588,25.1415694 20.642216,25.20006 20.6242575,25.2561006 C20.5285029,25.5549092 20.2086463,25.7195169 19.9098378,25.6237624 C19.9043599,25.622007 19.8988624,25.6203137 19.8933461,25.6186829 C19.4901905,25.4994969 19.0667489,25.7296998 18.9475629,26.1328555 L18.9458605,26.1386139 C18.822046,26.5574259 19.0542962,26.9986617 19.4696297,27.1336861 L20.8252296,27.57439 Z M22.8476286,29.0073542 L21.3497563,29.0073542 L19.8518839,29.0073542 C19.8518839,29.0073542 14.7965648,28.6073542 14.9837988,33.7073542 C14.9837988,33.7073542 17.9795435,31.7073542 21.4433733,32.0073542 C25.0944371,31.9073542 27.9029478,33.7073542 27.9029478,33.7073542 C27.9029478,28.6073542 22.8476286,29.0073542 22.8476286,29.0073542 Z" id="Combined-Shape" fill-rule="nonzero" opacity="0.25"></path>
                <path d="M9.36170213,22.7 L9.36170213,8.5 C9.36170213,7.7 10.2042553,7 10.9531915,7 L31.5489362,7 C32.2978723,7 32.9531915,7.7 32.9531915,8.5 L32.9531915,22.7 L31.5489362,21.9 C30.706383,21.4 27.9914894,19.8 27.4297872,18.5 C26.9617021,17.4 27.0553191,15.2 27.1489362,13.6 C23.2170213,14.5 19.1914894,14.5 15.2595745,13.6 C15.4468085,15.2 15.5404255,17.5 14.9787234,18.5 C14.4170213,19.8 11.7021277,21.5 10.8595745,21.9 L9.36170213,22.7 Z" id="XMLID_129_" fill-rule="nonzero"></path>
                <path d="M22.8476286,29.0073542 L21.3497563,29.0073542 L19.8518839,29.0073542 C19.8518839,29.0073542 14.7965648,28.6073542 14.9837988,33.7073542 C14.9837988,33.7073542 17.9795435,31.7073542 21.4433733,32.0073542 C25.0944371,31.9073542 27.9029478,33.7073542 27.9029478,33.7073542 C27.9029478,28.6073542 22.8476286,29.0073542 22.8476286,29.0073542 Z" id="Combined-Shape" fill-rule="nonzero"></path>
                <path d="M20.8252296,27.57439 L19.4696297,27.1336861 C19.0542962,26.9986617 18.822046,26.5574259 18.9458605,26.1386139 L18.9475629,26.1328555 C19.0667489,25.7296998 19.4901905,25.4994969 19.8933461,25.6186829 C19.8988624,25.6203137 19.9043599,25.622007 19.9098378,25.6237624 L19.9098378,25.6237624 C20.2086463,25.7195169 20.5285029,25.5549092 20.6242575,25.2561006 C20.642216,25.20006 20.6513588,25.1415694 20.6513588,25.0827216 L20.6513588,20.741521 C20.6513588,20.3319902 20.983349,20 21.3928797,20 L21.3928797,20 C21.8024104,20 22.1344007,20.3319902 22.1344007,20.741521 L22.1344007,26.6233836 C22.1344007,27.1756683 21.6866854,27.6233836 21.1344007,27.6233836 C21.0294107,27.6233836 20.9250757,27.6068499 20.8252296,27.57439 Z" id="XMLID_128_-path"></path>
            </g>
            <g id="Group-Copy-4" transform="translate(47.000000, 59.000000)">
                <path d="M0,53.4 L0,2 C-1.3527075e-16,0.8954305 0.8954305,2.02906125e-16 2,0 L40.914012,4.4408921e-16 C42.0172751,2.41423067e-16 42.9121636,0.893392616 42.9140092,1.99665417 L42.9999972,53.3966542 C43.0018451,54.5012221 42.1079138,55.3981494 41.0033458,55.3999972 C41.0022306,55.3999991 41.0011153,55.4 41,55.4 L2,55.4 C0.8954305,55.4 1.3527075e-16,54.5045695 0,53.4 Z M2.85359261,53.4 L40.0570764,53.4 C40.6093611,53.4 41.0570764,52.9522847 41.0570764,52.4 L41.0570764,3 C41.0570764,2.44771525 40.6093611,2 40.0570764,2 L2.85359261,2 C2.30130786,2 1.85359261,2.44771525 1.85359261,3 L1.85359261,52.4 C1.85359261,52.9522847 2.30130786,53.4 2.85359261,53.4 Z" id="XMLID_135_" fill-rule="nonzero" opacity="0.25"></path>
                <rect id="XMLID_134_" fill-rule="nonzero" opacity="0.5" x="9.36170213" y="43" width="25.0893617" height="2" rx="1"></rect>
                <rect id="XMLID_133_" fill-rule="nonzero" opacity="0.5" x="9.36170213" y="47" width="25.0893617" height="2" rx="1"></rect>
                <path d="M9.36170213,22.1 L10.8595745,21.3 C11.7021277,20.9 14.4170213,19.2 14.9787234,17.9 C15.5404255,16.9 15.4468085,14.6 15.2595745,13 C19.1914894,13.9 23.2170213,13.9 27.1489362,13 C27.0553191,14.6 26.9617021,16.8 27.4297872,17.9 C27.9914894,19.2 30.706383,20.8 31.5489362,21.3 L32.8595745,22.0466667 L32.8595745,33.3 C32.8595745,33.9 32.6723404,34.4 32.2042553,34.8 C28.8340426,38.3 25.1829787,39.9 21.5319149,39.9 C17.8808511,39.9 13.9489362,38.3 10.1106383,35 C9.64255319,34.6 9.36170213,34 9.36170213,33.4 L9.36170213,22.1 Z M20.8252296,27.57439 C20.9250757,27.6068499 21.0294107,27.6233836 21.1344007,27.6233836 C21.6866854,27.6233836 22.1344007,27.1756683 22.1344007,26.6233836 L22.1344007,20.741521 C22.1344007,20.3319902 21.8024104,20 21.3928797,20 C20.983349,20 20.6513588,20.3319902 20.6513588,20.741521 L20.6513588,25.0827216 C20.6513588,25.1415694 20.642216,25.20006 20.6242575,25.2561006 C20.5285029,25.5549092 20.2086463,25.7195169 19.9098378,25.6237624 C19.9043599,25.622007 19.8988624,25.6203137 19.8933461,25.6186829 C19.4901905,25.4994969 19.0667489,25.7296998 18.9475629,26.1328555 L18.9458605,26.1386139 C18.822046,26.5574259 19.0542962,26.9986617 19.4696297,27.1336861 L20.8252296,27.57439 Z M22.8476286,29.0073542 L21.3497563,29.0073542 L19.8518839,29.0073542 C19.8518839,29.0073542 14.7965648,28.6073542 14.9837988,33.7073542 C14.9837988,33.7073542 17.9795435,31.7073542 21.4433733,32.0073542 C25.0944371,31.9073542 27.9029478,33.7073542 27.9029478,33.7073542 C27.9029478,28.6073542 22.8476286,29.0073542 22.8476286,29.0073542 Z" id="Combined-Shape" fill-rule="nonzero" opacity="0.25"></path>
                <path d="M9.36170213,22.7 L9.36170213,8.5 C9.36170213,7.7 10.2042553,7 10.9531915,7 L31.5489362,7 C32.2978723,7 32.9531915,7.7 32.9531915,8.5 L32.9531915,22.7 L31.5489362,21.9 C30.706383,21.4 27.9914894,19.8 27.4297872,18.5 C26.9617021,17.4 27.0553191,15.2 27.1489362,13.6 C23.2170213,14.5 19.1914894,14.5 15.2595745,13.6 C15.4468085,15.2 15.5404255,17.5 14.9787234,18.5 C14.4170213,19.8 11.7021277,21.5 10.8595745,21.9 L9.36170213,22.7 Z" id="XMLID_129_" fill-rule="nonzero"></path>
                <path d="M22.8476286,29.0073542 L21.3497563,29.0073542 L19.8518839,29.0073542 C19.8518839,29.0073542 14.7965648,28.6073542 14.9837988,33.7073542 C14.9837988,33.7073542 17.9795435,31.7073542 21.4433733,32.0073542 C25.0944371,31.9073542 27.9029478,33.7073542 27.9029478,33.7073542 C27.9029478,28.6073542 22.8476286,29.0073542 22.8476286,29.0073542 Z" id="Combined-Shape" fill-rule="nonzero"></path>
                <path d="M20.8252296,27.57439 L19.4696297,27.1336861 C19.0542962,26.9986617 18.822046,26.5574259 18.9458605,26.1386139 L18.9475629,26.1328555 C19.0667489,25.7296998 19.4901905,25.4994969 19.8933461,25.6186829 C19.8988624,25.6203137 19.9043599,25.622007 19.9098378,25.6237624 L19.9098378,25.6237624 C20.2086463,25.7195169 20.5285029,25.5549092 20.6242575,25.2561006 C20.642216,25.20006 20.6513588,25.1415694 20.6513588,25.0827216 L20.6513588,20.741521 C20.6513588,20.3319902 20.983349,20 21.3928797,20 L21.3928797,20 C21.8024104,20 22.1344007,20.3319902 22.1344007,20.741521 L22.1344007,26.6233836 C22.1344007,27.1756683 21.6866854,27.6233836 21.1344007,27.6233836 C21.0294107,27.6233836 20.9250757,27.6068499 20.8252296,27.57439 Z" id="XMLID_128_-path"></path>
            </g>
            <g id="Group-Copy-2" transform="translate(94.000000, 0.000000)">
                <path d="M0,53.4 L0,2 C-1.3527075e-16,0.8954305 0.8954305,2.02906125e-16 2,0 L40.914012,4.4408921e-16 C42.0172751,2.41423067e-16 42.9121636,0.893392616 42.9140092,1.99665417 L42.9999972,53.3966542 C43.0018451,54.5012221 42.1079138,55.3981494 41.0033458,55.3999972 C41.0022306,55.3999991 41.0011153,55.4 41,55.4 L2,55.4 C0.8954305,55.4 1.3527075e-16,54.5045695 0,53.4 Z M2.85359261,53.4 L40.0570764,53.4 C40.6093611,53.4 41.0570764,52.9522847 41.0570764,52.4 L41.0570764,3 C41.0570764,2.44771525 40.6093611,2 40.0570764,2 L2.85359261,2 C2.30130786,2 1.85359261,2.44771525 1.85359261,3 L1.85359261,52.4 C1.85359261,52.9522847 2.30130786,53.4 2.85359261,53.4 Z" id="XMLID_135_" fill-rule="nonzero" opacity="0.25"></path>
                <rect id="XMLID_134_" fill-rule="nonzero" opacity="0.5" x="9.36170213" y="43" width="25.0893617" height="2" rx="1"></rect>
                <rect id="XMLID_133_" fill-rule="nonzero" opacity="0.5" x="9.36170213" y="47" width="25.0893617" height="2" rx="1"></rect>
                <path d="M9.36170213,22.1 L10.8595745,21.3 C11.7021277,20.9 14.4170213,19.2 14.9787234,17.9 C15.5404255,16.9 15.4468085,14.6 15.2595745,13 C19.1914894,13.9 23.2170213,13.9 27.1489362,13 C27.0553191,14.6 26.9617021,16.8 27.4297872,17.9 C27.9914894,19.2 30.706383,20.8 31.5489362,21.3 L32.8595745,22.0466667 L32.8595745,33.3 C32.8595745,33.9 32.6723404,34.4 32.2042553,34.8 C28.8340426,38.3 25.1829787,39.9 21.5319149,39.9 C17.8808511,39.9 13.9489362,38.3 10.1106383,35 C9.64255319,34.6 9.36170213,34 9.36170213,33.4 L9.36170213,22.1 Z M20.8252296,27.57439 C20.9250757,27.6068499 21.0294107,27.6233836 21.1344007,27.6233836 C21.6866854,27.6233836 22.1344007,27.1756683 22.1344007,26.6233836 L22.1344007,20.741521 C22.1344007,20.3319902 21.8024104,20 21.3928797,20 C20.983349,20 20.6513588,20.3319902 20.6513588,20.741521 L20.6513588,25.0827216 C20.6513588,25.1415694 20.642216,25.20006 20.6242575,25.2561006 C20.5285029,25.5549092 20.2086463,25.7195169 19.9098378,25.6237624 C19.9043599,25.622007 19.8988624,25.6203137 19.8933461,25.6186829 C19.4901905,25.4994969 19.0667489,25.7296998 18.9475629,26.1328555 L18.9458605,26.1386139 C18.822046,26.5574259 19.0542962,26.9986617 19.4696297,27.1336861 L20.8252296,27.57439 Z M22.8476286,29.0073542 L21.3497563,29.0073542 L19.8518839,29.0073542 C19.8518839,29.0073542 14.7965648,28.6073542 14.9837988,33.7073542 C14.9837988,33.7073542 17.9795435,31.7073542 21.4433733,32.0073542 C25.0944371,31.9073542 27.9029478,33.7073542 27.9029478,33.7073542 C27.9029478,28.6073542 22.8476286,29.0073542 22.8476286,29.0073542 Z" id="Combined-Shape" fill-rule="nonzero" opacity="0.25"></path>
                <path d="M9.36170213,22.7 L9.36170213,8.5 C9.36170213,7.7 10.2042553,7 10.9531915,7 L31.5489362,7 C32.2978723,7 32.9531915,7.7 32.9531915,8.5 L32.9531915,22.7 L31.5489362,21.9 C30.706383,21.4 27.9914894,19.8 27.4297872,18.5 C26.9617021,17.4 27.0553191,15.2 27.1489362,13.6 C23.2170213,14.5 19.1914894,14.5 15.2595745,13.6 C15.4468085,15.2 15.5404255,17.5 14.9787234,18.5 C14.4170213,19.8 11.7021277,21.5 10.8595745,21.9 L9.36170213,22.7 Z" id="XMLID_129_" fill-rule="nonzero"></path>
                <path d="M22.8476286,29.0073542 L21.3497563,29.0073542 L19.8518839,29.0073542 C19.8518839,29.0073542 14.7965648,28.6073542 14.9837988,33.7073542 C14.9837988,33.7073542 17.9795435,31.7073542 21.4433733,32.0073542 C25.0944371,31.9073542 27.9029478,33.7073542 27.9029478,33.7073542 C27.9029478,28.6073542 22.8476286,29.0073542 22.8476286,29.0073542 Z" id="Combined-Shape" fill-rule="nonzero"></path>
                <path d="M20.8252296,27.57439 L19.4696297,27.1336861 C19.0542962,26.9986617 18.822046,26.5574259 18.9458605,26.1386139 L18.9475629,26.1328555 C19.0667489,25.7296998 19.4901905,25.4994969 19.8933461,25.6186829 C19.8988624,25.6203137 19.9043599,25.622007 19.9098378,25.6237624 L19.9098378,25.6237624 C20.2086463,25.7195169 20.5285029,25.5549092 20.6242575,25.2561006 C20.642216,25.20006 20.6513588,25.1415694 20.6513588,25.0827216 L20.6513588,20.741521 C20.6513588,20.3319902 20.983349,20 21.3928797,20 L21.3928797,20 C21.8024104,20 22.1344007,20.3319902 22.1344007,20.741521 L22.1344007,26.6233836 C22.1344007,27.1756683 21.6866854,27.6233836 21.1344007,27.6233836 C21.0294107,27.6233836 20.9250757,27.6068499 20.8252296,27.57439 Z" id="XMLID_128_-path"></path>
            </g>
            <g id="Group-Copy-5" transform="translate(94.000000, 59.000000)">
                <path d="M0,53.4 L0,2 C-1.3527075e-16,0.8954305 0.8954305,2.02906125e-16 2,0 L40.914012,4.4408921e-16 C42.0172751,2.41423067e-16 42.9121636,0.893392616 42.9140092,1.99665417 L42.9999972,53.3966542 C43.0018451,54.5012221 42.1079138,55.3981494 41.0033458,55.3999972 C41.0022306,55.3999991 41.0011153,55.4 41,55.4 L2,55.4 C0.8954305,55.4 1.3527075e-16,54.5045695 0,53.4 Z M2.85359261,53.4 L40.0570764,53.4 C40.6093611,53.4 41.0570764,52.9522847 41.0570764,52.4 L41.0570764,3 C41.0570764,2.44771525 40.6093611,2 40.0570764,2 L2.85359261,2 C2.30130786,2 1.85359261,2.44771525 1.85359261,3 L1.85359261,52.4 C1.85359261,52.9522847 2.30130786,53.4 2.85359261,53.4 Z" id="XMLID_135_" fill-rule="nonzero" opacity="0.25"></path>
                <rect id="XMLID_134_" fill-rule="nonzero" opacity="0.5" x="9.36170213" y="43" width="25.0893617" height="2" rx="1"></rect>
                <rect id="XMLID_133_" fill-rule="nonzero" opacity="0.5" x="9.36170213" y="47" width="25.0893617" height="2" rx="1"></rect>
                <path d="M9.36170213,22.1 L10.8595745,21.3 C11.7021277,20.9 14.4170213,19.2 14.9787234,17.9 C15.5404255,16.9 15.4468085,14.6 15.2595745,13 C19.1914894,13.9 23.2170213,13.9 27.1489362,13 C27.0553191,14.6 26.9617021,16.8 27.4297872,17.9 C27.9914894,19.2 30.706383,20.8 31.5489362,21.3 L32.8595745,22.0466667 L32.8595745,33.3 C32.8595745,33.9 32.6723404,34.4 32.2042553,34.8 C28.8340426,38.3 25.1829787,39.9 21.5319149,39.9 C17.8808511,39.9 13.9489362,38.3 10.1106383,35 C9.64255319,34.6 9.36170213,34 9.36170213,33.4 L9.36170213,22.1 Z M20.8252296,27.57439 C20.9250757,27.6068499 21.0294107,27.6233836 21.1344007,27.6233836 C21.6866854,27.6233836 22.1344007,27.1756683 22.1344007,26.6233836 L22.1344007,20.741521 C22.1344007,20.3319902 21.8024104,20 21.3928797,20 C20.983349,20 20.6513588,20.3319902 20.6513588,20.741521 L20.6513588,25.0827216 C20.6513588,25.1415694 20.642216,25.20006 20.6242575,25.2561006 C20.5285029,25.5549092 20.2086463,25.7195169 19.9098378,25.6237624 C19.9043599,25.622007 19.8988624,25.6203137 19.8933461,25.6186829 C19.4901905,25.4994969 19.0667489,25.7296998 18.9475629,26.1328555 L18.9458605,26.1386139 C18.822046,26.5574259 19.0542962,26.9986617 19.4696297,27.1336861 L20.8252296,27.57439 Z M22.8476286,29.0073542 L21.3497563,29.0073542 L19.8518839,29.0073542 C19.8518839,29.0073542 14.7965648,28.6073542 14.9837988,33.7073542 C14.9837988,33.7073542 17.9795435,31.7073542 21.4433733,32.0073542 C25.0944371,31.9073542 27.9029478,33.7073542 27.9029478,33.7073542 C27.9029478,28.6073542 22.8476286,29.0073542 22.8476286,29.0073542 Z" id="Combined-Shape" fill-rule="nonzero" opacity="0.25"></path>
                <path d="M9.36170213,22.7 L9.36170213,8.5 C9.36170213,7.7 10.2042553,7 10.9531915,7 L31.5489362,7 C32.2978723,7 32.9531915,7.7 32.9531915,8.5 L32.9531915,22.7 L31.5489362,21.9 C30.706383,21.4 27.9914894,19.8 27.4297872,18.5 C26.9617021,17.4 27.0553191,15.2 27.1489362,13.6 C23.2170213,14.5 19.1914894,14.5 15.2595745,13.6 C15.4468085,15.2 15.5404255,17.5 14.9787234,18.5 C14.4170213,19.8 11.7021277,21.5 10.8595745,21.9 L9.36170213,22.7 Z" id="XMLID_129_" fill-rule="nonzero"></path>
                <path d="M22.8476286,29.0073542 L21.3497563,29.0073542 L19.8518839,29.0073542 C19.8518839,29.0073542 14.7965648,28.6073542 14.9837988,33.7073542 C14.9837988,33.7073542 17.9795435,31.7073542 21.4433733,32.0073542 C25.0944371,31.9073542 27.9029478,33.7073542 27.9029478,33.7073542 C27.9029478,28.6073542 22.8476286,29.0073542 22.8476286,29.0073542 Z" id="Combined-Shape" fill-rule="nonzero"></path>
                <path d="M20.8252296,27.57439 L19.4696297,27.1336861 C19.0542962,26.9986617 18.822046,26.5574259 18.9458605,26.1386139 L18.9475629,26.1328555 C19.0667489,25.7296998 19.4901905,25.4994969 19.8933461,25.6186829 C19.8988624,25.6203137 19.9043599,25.622007 19.9098378,25.6237624 L19.9098378,25.6237624 C20.2086463,25.7195169 20.5285029,25.5549092 20.6242575,25.2561006 C20.642216,25.20006 20.6513588,25.1415694 20.6513588,25.0827216 L20.6513588,20.741521 C20.6513588,20.3319902 20.983349,20 21.3928797,20 L21.3928797,20 C21.8024104,20 22.1344007,20.3319902 22.1344007,20.741521 L22.1344007,26.6233836 C22.1344007,27.1756683 21.6866854,27.6233836 21.1344007,27.6233836 C21.0294107,27.6233836 20.9250757,27.6068499 20.8252296,27.57439 Z" id="XMLID_128_-path"></path>
            </g>
        </g>
    </g>
</svg>