<?xml version="1.0" encoding="UTF-8"?>
<svg width="137px" height="134px" viewBox="0 0 137 134" version="1.1" xmlns="http://www.w3.org/2000/svg" xmlns:xlink="http://www.w3.org/1999/xlink">
    <!-- Generator: Sketch 50.2 (55047) - http://www.bohemiancoding.com/sketch -->
    <title>acvanced_placement_physics</title>
    <desc>Created with Sketch.</desc>
    <defs></defs>
    <g id="acvanced_placement_physics" stroke="none" stroke-width="1" fill="none" fill-rule="evenodd">
        <g id="Group" transform="translate(-1.000000, 16.000000)" fill="#FFFFFF" fill-rule="nonzero">
            <path d="M6.34478817,73 C7.173113,70.6755356 9.40038588,69 12,69 C14.5996141,69 16.826887,70.6755356 17.6552118,73 L23,73 L23,98 L0,98 L0,73 L6.34478817,73 Z M8.53948699,73 L15.460513,73 C14.7662787,71.8066715 13.4727695,71 12,71 C10.5272305,71 9.23372127,71.8066715 8.53948699,73 Z M3,81 L3,83 L21,83 L21,81 L3,81 Z M3,89 L3,91 L21,91 L21,89 L3,89 Z" id="Combined-Shape"></path>
            <path d="M30.5,37 C21.975,37 15,30.025 15,21.5 C15,12.975 21.975,6 30.5,6 C39.025,6 46,12.975 46,21.5 C46,30.025 39.025,37 30.5,37 Z M30.5,32 C36.3227273,32 41,27.3227273 41,21.5 C41,15.6772727 36.3227273,11 30.5,11 C24.6772727,11 20,15.6772727 20,21.5 C20,27.3227273 24.6772727,32 30.5,32 Z M30.5,12.9090909 C35.2727273,12.9090909 39.0909091,16.7272727 39.0909091,21.5 C39.0909091,26.2727273 35.2727273,30.0909091 30.5,30.0909091 C25.7272727,30.0909091 21.9090909,26.2727273 21.9090909,21.5 C21.9090909,16.7272727 25.7272727,12.9090909 30.5,12.9090909 Z M31,28 C34.3,28 37,25.3 37,22 C37,18.7 34.3,16 31,16 C27.7,16 25,18.7 25,22 C25,25.3 27.7,28 31,28 Z M31,18 C33.2,18 35,19.8 35,22 C35,24.2 33.2,26 31,26 C28.8,26 27,24.2 27,22 C27,19.8 28.8,18 31,18 Z" id="Combined-Shape" opacity="0.5"></path>
            <path d="M111.5,37 C102.975,37 96,30.025 96,21.5 C96,12.975 102.975,6 111.5,6 C120.025,6 127,12.975 127,21.5 C127,30.025 120.025,37 111.5,37 Z M111.5,32 C117.322727,32 122,27.3227273 122,21.5 C122,15.6772727 117.322727,11 111.5,11 C105.677273,11 101,15.6772727 101,21.5 C101,27.3227273 105.677273,32 111.5,32 Z M111.5,12.9090909 C116.272727,12.9090909 120.090909,16.7272727 120.090909,21.5 C120.090909,26.2727273 116.272727,30.0909091 111.5,30.0909091 C106.727273,30.0909091 102.909091,26.2727273 102.909091,21.5 C102.909091,16.7272727 106.727273,12.9090909 111.5,12.9090909 Z M112,28 C115.3,28 118,25.3 118,22 C118,18.7 115.3,16 112,16 C108.7,16 106,18.7 106,22 C106,25.3 108.7,28 112,28 Z M112,18 C114.2,18 116,19.8 116,22 C116,24.2 114.2,26 112,26 C109.8,26 108,24.2 108,22 C108,19.8 109.8,18 112,18 Z" id="Combined-Shape" opacity="0.5"></path>
            <path d="M71.5,100 C62.975,100 56,93.025 56,84.5 C56,75.975 62.975,69 71.5,69 C80.025,69 87,75.975 87,84.5 C87,93.025 80.025,100 71.5,100 Z M70.5,95 C76.3227273,95 81,90.3227273 81,84.5 C81,78.6772727 76.3227273,74 70.5,74 C64.6772727,74 60,78.6772727 60,84.5 C60,90.3227273 64.6772727,95 70.5,95 Z M70.5,75.9090909 C75.2727273,75.9090909 79.0909091,79.7272727 79.0909091,84.5 C79.0909091,89.2727273 75.2727273,93.0909091 70.5,93.0909091 C65.7272727,93.0909091 61.9090909,89.2727273 61.9090909,84.5 C61.9090909,79.7272727 65.7272727,75.9090909 70.5,75.9090909 Z M71,91 C74.3,91 77,88.3 77,85 C77,81.7 74.3,79 71,79 C67.7,79 65,81.7 65,85 C65,88.3 67.7,91 71,91 Z M71,81 C73.2,81 75,82.8 75,85 C75,87.2 73.2,89 71,89 C68.8,89 67,87.2 67,85 C67,82.8 68.8,81 71,81 Z" id="Combined-Shape" opacity="0.5"></path>
            <path d="M71.5,106 C59.8074159,106 50.3333333,96.499818 50.3337896,84.8079838 L48.4126984,21.2222222 C48.4126984,11.662781 40.6970985,3.92592593 31.1666667,3.92592593 C21.6362349,3.92592593 13.9206349,11.662781 13.9206349,21.2222222 L13.9206349,70.3703704 L10,70.3703704 L10,21.2222222 C10,9.500182 19.4740826,0 31.1666667,0 C42.8592507,0 52.3333333,9.500182 52.332877,21.1920162 L54.2539683,84.7777778 C54.2539683,94.337219 61.9695682,102.074074 71.5,102.074074 C81.0304318,102.074074 88.7460317,94.337219 88.7464881,84.7475718 L90.6666667,21.2222222 C90.6666667,9.500182 100.140749,0 111.833333,0 C123.525917,0 133,9.500182 133,21.2222222 L133,57.8518519 L129.079365,57.8518519 L129.079365,21.2222222 C129.079365,11.662781 121.363765,3.92592593 111.833333,3.92592593 C102.302902,3.92592593 94.5873016,11.662781 94.5868453,21.2524282 L92.6666667,84.7777778 C92.6666667,96.499818 83.1925841,106 71.5,106 Z" id="Shape"></path>
            <polygon id="Shape" points="135.641791 50.5729706 138.401737 53.382716 130.5 61.4270294 122.598263 53.382716 125.358209 50.5729706 130.5 55.8075385"></polygon>
        </g>
        <rect id="Rectangle-path" fill="#FFFFFF" fill-rule="nonzero" opacity="0.75" x="2" y="97" width="18" height="2"></rect>
        <rect id="Rectangle-path" fill="#FFFFFF" fill-rule="nonzero" opacity="0.75" x="2" y="105" width="18" height="2"></rect>
    </g>
</svg>