<?xml version="1.0" encoding="UTF-8"?>
<svg width="137px" height="134px" viewBox="0 0 137 134" version="1.1" xmlns="http://www.w3.org/2000/svg" xmlns:xlink="http://www.w3.org/1999/xlink">
    <!-- Generator: Sketch 50.2 (55047) - http://www.bohemiancoding.com/sketch -->
    <title>advanced_placement_computer_science_p</title>
    <desc>Created with Sketch.</desc>
    <defs></defs>
    <g id="advanced_placement_computer_science_p" stroke="none" stroke-width="1" fill="none" fill-rule="evenodd">
        <path d="M0,24 L17,24 L17,51 L0,51 L0,24 Z M0,22 L0,17 C0,14.2 2.2,12 5,12 L133,12 C135.8,12 138,14.2 138,17 L138,22 L0,22 Z M138,24 L138,37 L110,37 L110,24 L138,24 Z M108,24 L108,39 L138,39 L138,46 L92,46 L92,39.9037133 C94.3064525,39.4514471 96,37.4566618 96,35 C96,32.2 93.8,30 91,30 C88.2,30 86,32.2 86,35 C86,37.4566618 87.6935475,39.4514471 90,39.9037133 L90,48 L138,48 L138,65 L78,65 L78,55.9037133 C80.3064525,55.4514471 82,53.4566618 82,51 C82,48.2 79.8,46 77,46 C74.2,46 72,48.2 72,51 C72,53.4566618 73.6935475,55.4514471 76,55.9037133 L76,67 L138,67 L138,76 L86,76 L86,105.096287 C83.6935475,105.548553 82,107.543338 82,110 C82,112.8 84.2,115 87,115 C89.8,115 92,112.8 92,110 C92,107.543338 90.3064525,105.548553 88,105.096287 L88,78 L138,78 L138,95 L105,95 L105,95.0962867 C102.693547,95.5485529 101,97.5433382 101,100 C101,102.456662 102.693547,104.451447 105,104.903713 L105,105 L107,105 L107,104.903713 C109.306453,104.451447 111,102.456662 111,100 C111,98.8662124 110.63928,97.8308029 110.024069,97 L138,97 L138,105 L120,105 L120,122 L33,122 L33,102 L0,102 L0,92 L44,92 L44,100.096287 C41.6935475,100.548553 40,102.543338 40,105 C40,107.8 42.2,110 45,110 C47.8,110 50,107.8 50,105 C50,102.543338 48.3064525,100.548553 46,100.096287 L46,90 L0,90 L0,82 L66,82 L66,92.0962867 C63.6935475,92.5485529 62,94.5433382 62,97 C62,99.8 64.2,102 67,102 C69.8,102 72,99.8 72,97 C72,94.5433382 70.3064525,92.5485529 68,92.0962867 L68,80 L0,80 L0,72 L52,72 L52,43.9037133 C54.3064525,43.4514471 56,41.4566618 56,39 C56,36.2 53.8,34 51,34 C48.2,34 46,36.2 46,39 C46,41.4566618 47.6935475,43.4514471 50,43.9037133 L50,70 L0,70 L0,62 L33,62 L33,51.9037133 C35.3064525,51.4514471 37,49.4566618 37,47 C37,44.2 34.8,42 32,42 C29.2,42 27,44.2 27,47 C27,49.4566618 28.6935475,51.4514471 31,51.9037133 L31,60 L0,60 L0,53 L19,53 L19,24 L108,24 Z M31,122 L7,122 C3.1,122 0,118.9 0,115 L0,104 L31,104 L31,122 Z M122,122 L122,107 L138,107 L138,115 C138,118.9 134.9,122 131,122 L122,122 Z M45,102 C46.7,102 48,103.4 48,105 C48,106.6 46.7,108 45,108 C43.3,108 42,106.6 42,105 C42,103.4 43.3,102 45,102 Z M67,94 C68.7,94 70,95.4 70,97 C70,98.6 68.7,100 67,100 C65.3,100 64,98.6 64,97 C64,95.4 65.3,94 67,94 Z M77,48 C78.7,48 80,49.4 80,51 C80,52.6 78.7,54 77,54 C75.3,54 74,52.6 74,51 C74,49.4 75.3,48 77,48 Z M91,32 C92.7,32 94,33.4 94,35 C94,36.6 92.7,38 91,38 C89.3,38 88,36.6 88,35 C88,33.4 89.3,32 91,32 Z M32,44 C33.6,44 35,45.4 35,47 C35,48.6 33.6,50 32,50 C30.4,50 29,48.6 29,47 C29,45.4 30.4,44 32,44 Z M87,107 C88.7,107 90,108.4 90,110 C90,111.6 88.7,113 87,113 C85.3,113 84,111.6 84,110 C84,108.4 85.3,107 87,107 Z M51,36 C52.7,36 54,37.4 54,39 C54,40.6 52.7,42 51,42 C49.3,42 48,40.6 48,39 C48,37.4 49.3,36 51,36 Z M106,97 C107.7,97 109,98.4 109,100 C109,101.6 107.7,103 106,103 C104.3,103 103,101.6 103,100 C103,98.4 104.3,97 106,97 Z" id="Combined-Shape" fill="#FFFFFF" fill-rule="nonzero" opacity="0.25"></path>
        <polygon id="Shape" fill="#FFFFFF" fill-rule="nonzero" opacity="0.5" points="138 39 108 39 108 24 110 24 110 37 138 37"></polygon>
        <polygon id="Shape" fill="#FFFFFF" fill-rule="nonzero" opacity="0.5" points="122 122 120 122 120 105 138 105 138 107 122 107"></polygon>
        <polygon id="Shape" fill="#FFFFFF" fill-rule="nonzero" opacity="0.5" points="33 122 31 122 31 104 0 104 0 102 33 102"></polygon>
        <polygon id="Shape" fill="#FFFFFF" fill-rule="nonzero" opacity="0.5" points="19 53 0 53 0 51 17 51 17 24 19 24"></polygon>
        <rect id="Rectangle-path" fill="#FFFFFF" opacity="0.75" x="0" y="22" width="138" height="2"></rect>
        <path d="M105,104.903713 C102.693547,104.451447 101,102.456662 101,100 C101,97.5433382 102.693547,95.5485529 105,95.0962867 L105,95 L138,95 L138,97 L110.024069,97 C110.63928,97.8308029 111,98.8662124 111,100 C111,102.456662 109.306453,104.451447 107,104.903713 L107,105 L105,105 L105,104.903713 Z M50,43.9037133 C47.6935475,43.4514471 46,41.4566618 46,39 C46,36.2 48.2,34 51,34 C53.8,34 56,36.2 56,39 C56,41.4566618 54.3064525,43.4514471 52,43.9037133 L52,72 L0,72 L0,70 L50,70 L50,43.9037133 Z M86,105.096287 L86,76 L138,76 L138,78 L88,78 L88,105.096287 C90.3064525,105.548553 92,107.543338 92,110 C92,112.8 89.8,115 87,115 C84.2,115 82,112.8 82,110 C82,107.543338 83.6935475,105.548553 86,105.096287 Z M31,51.9037133 C28.6935475,51.4514471 27,49.4566618 27,47 C27,44.2 29.2,42 32,42 C34.8,42 37,44.2 37,47 C37,49.4566618 35.3064525,51.4514471 33,51.9037133 L33,62 L0,62 L0,60 L31,60 L31,51.9037133 Z M90,39.9037133 C87.6935475,39.4514471 86,37.4566618 86,35 C86,32.2 88.2,30 91,30 C93.8,30 96,32.2 96,35 C96,37.4566618 94.3064525,39.4514471 92,39.9037133 L92,46 L138,46 L138,48 L90,48 L90,39.9037133 Z M76,55.9037133 C73.6935475,55.4514471 72,53.4566618 72,51 C72,48.2 74.2,46 77,46 C79.8,46 82,48.2 82,51 C82,53.4566618 80.3064525,55.4514471 78,55.9037133 L78,65 L138,65 L138,67 L76,67 L76,55.9037133 Z M66,92.0962867 L66,82 L0,82 L0,80 L68,80 L68,92.0962867 C70.3064525,92.5485529 72,94.5433382 72,97 C72,99.8 69.8,102 67,102 C64.2,102 62,99.8 62,97 C62,94.5433382 63.6935475,92.5485529 66,92.0962867 Z M44,100.096287 L44,92 L0,92 L0,90 L46,90 L46,100.096287 C48.3064525,100.548553 50,102.543338 50,105 C50,107.8 47.8,110 45,110 C42.2,110 40,107.8 40,105 C40,102.543338 41.6935475,100.548553 44,100.096287 Z M45,102 C43.3,102 42,103.4 42,105 C42,106.6 43.3,108 45,108 C46.7,108 48,106.6 48,105 C48,103.4 46.7,102 45,102 Z M67,94 C65.3,94 64,95.4 64,97 C64,98.6 65.3,100 67,100 C68.7,100 70,98.6 70,97 C70,95.4 68.7,94 67,94 Z M77,48 C75.3,48 74,49.4 74,51 C74,52.6 75.3,54 77,54 C78.7,54 80,52.6 80,51 C80,49.4 78.7,48 77,48 Z M91,32 C89.3,32 88,33.4 88,35 C88,36.6 89.3,38 91,38 C92.7,38 94,36.6 94,35 C94,33.4 92.7,32 91,32 Z M32,44 C30.4,44 29,45.4 29,47 C29,48.6 30.4,50 32,50 C33.6,50 35,48.6 35,47 C35,45.4 33.6,44 32,44 Z M87,107 C85.3,107 84,108.4 84,110 C84,111.6 85.3,113 87,113 C88.7,113 90,111.6 90,110 C90,108.4 88.7,107 87,107 Z M51,36 C49.3,36 48,37.4 48,39 C48,40.6 49.3,42 51,42 C52.7,42 54,40.6 54,39 C54,37.4 52.7,36 51,36 Z M106,97 C104.3,97 103,98.4 103,100 C103,101.6 104.3,103 106,103 C107.7,103 109,101.6 109,100 C109,98.4 107.7,97 106,97 Z" id="Combined-Shape" fill="#FFFFFF"></path>
    </g>
</svg>