<?xml version="1.0" encoding="UTF-8"?>
<svg width="137px" height="134px" viewBox="0 0 137 134" version="1.1" xmlns="http://www.w3.org/2000/svg" xmlns:xlink="http://www.w3.org/1999/xlink">
    <!-- Generator: Sketch 50.2 (55047) - http://www.bohemiancoding.com/sketch -->
    <title>advanced_placement_psychology</title>
    <desc>Created with Sketch.</desc>
    <defs></defs>
    <g id="advanced_placement_psychology" stroke="none" stroke-width="1" fill="none" fill-rule="evenodd">
        <path d="M104.728528,133 L51.7285284,133 L51.7285284,115 L40.7285284,115 C31.3285284,115 23.7285284,107.4 23.7285284,98 L23.7285284,87 L18.0285284,87 C16.7285284,87 15.5285284,86.4 14.7285284,85.3 C13.9285284,84.2 13.8285284,82.9 14.2285284,81.6 L23.7285284,55.8 L23.7285284,51.8 C23.7285284,24.2 45.7285284,1.5 72.9285284,1 C73.2285284,1 73.5285284,1 73.7285284,1 C101.328528,1 123.728528,23.4 123.728528,51 C123.728528,66.4 116.828528,80.7 104.728528,90.2 L104.728528,133 Z M79.7285284,67 L98,77.5 C98,71.7 99.6285284,72.8 104.628528,69.1 C107.928528,66.6 110.128528,62.9 110.628528,58.8 C113.828528,56.1 115.728528,52.2 115.728528,48 C115.728528,45.2 114.928528,42.5 113.328528,40.2 C113.628528,39.1 113.728528,38.1 113.728528,37 C113.728528,30.5 109.128528,24.9 102.828528,23.4 C100.928528,18.3 96.1285284,15 90.7285284,15 C89.5285284,15 88.3285284,15.2 87.1285284,15.5 C84.9285284,13.3 81.9285284,12 78.7285284,12 C75.8285284,12 73.0285284,13 70.9285284,14.9 C69.0285284,13.6 66.9285284,13 64.7285284,13 C60.5285284,13 56.7285284,15.4 54.8285284,19.2 C47.4285284,17.9 40.7285284,23.2 39.8285284,30.3 C34.9285284,32.6 31.7285284,37.5 31.7285284,43 C31.7285284,50.7 38.0285284,57 45.7285284,57 C48.5285284,57 51.3285284,56.1 53.6285284,54.5 C55.3285284,56.7 57.9285284,58 60.7285284,58 L70.7285284,58 C75.7285284,58 79.7285284,62 79.7285284,67 Z" id="Combined-Shape" fill="#FFFFFF" fill-rule="nonzero" opacity="0.5"></path>
        <path d="M76.3454192,41.8749455 C76.8107568,38.0198775 78.7927143,35.5347408 79.6413712,34.6559131 C77.5122767,33.2613419 75.4672205,31.0392474 74.4285284,27.5 C73.1285284,29.6 70.9285284,31.1 68.3285284,31.7 C65.7285284,32.3 63.1285284,32 60.8285284,30.8 C61.7285284,33.3 62.3285284,36.3 61.0285284,38.8 C59.5285284,41.6 56.0285284,43 50.7285284,43 C46.801006,43 44.5445721,44.4996948 43.4543623,45.5357227 L43.5285284,45.6 C42.7285284,46.5 42.3285284,47.6 42.4285284,48.7 C42.6285284,52 46.5285284,55.2 46.5285284,55.2 L45.1285284,56.8 C44.9285284,56.6 40.6285284,53.1 40.3285284,48.9 C40.2591615,47.7207625 40.4785007,46.5896426 41.0533015,45.573396 L40.9285284,45.5 C41.0285284,45.3 43.7285284,41 50.8285284,41 C52.246566,41 53.5057232,40.9006997 54.5997417,40.69897 C54.1591697,39.3900331 52.4100682,36 46.7285284,36 L46.7285284,34 C53.7093631,34 55.9461364,38.4805025 56.5409404,40.167636 C57.8664967,39.6555933 58.8029639,38.9033503 59.3285284,37.9 C61.3285284,34.1 57.0285284,27.7 57.0285284,27.6 L58.6285284,26.4 C60.8285284,29.2 64.4285284,30.5 67.9285284,29.7 C71.0285284,29 73.2285284,26.8 73.8285284,23.8 L73.9588799,23.8065176 C74.0040564,22.6212864 73.570962,20.1727996 70.2285284,16.9 L71.6285284,15.5 C75.9563643,19.7544828 76.1410729,23.0404424 75.892742,24.5290292 C76.9022185,32.904864 83.4364489,34.5905035 85.8485745,34.921361 C86.1495723,32.5873794 87.1186061,27.514258 90.3285284,27.1238937 L90.3285284,27.1 C98.5285284,27.1 100.828528,25.5 101.428528,24.9 C101.728528,24.5 101.728528,24.2 101.728528,24.2 L103.628528,23.7 C103.828528,24.2 103.728528,25.1 103.028528,26 C101.557321,28.0596906 97.4887713,29.0612048 90.7285284,29.098894 L90.7285284,29.1 C90.7207702,29.0995917 90.713027,29.099265 90.7052988,29.0990196 C90.6785535,29.0991599 90.6517662,29.0992851 90.6249368,29.0993952 C89.048158,29.1645759 88.1133204,32.6280042 87.8204241,35.0319798 C93.2489107,35.3548551 97.1651418,38.1091682 98.8902883,42.6839728 C100.586768,42.1483765 103.630496,40.8108 105.731219,37.7927906 C105.775725,36.092372 106.371105,34.7651645 107.428528,33.9 C109.528528,32.2 112.828528,33 112.928528,33 L112.428528,34.9 L112.628528,33.9 L112.428528,34.9 C111.728528,34.7 109.728528,34.5 108.628528,35.4 C108.028528,36 107.728528,36.8 107.728528,38 L106.701256,38 L107.628528,38.6 C105.177893,42.3809802 101.501622,44.0048421 99.4488315,44.6386932 C100.172224,48.3280071 99.3160042,52.2841856 97.3857668,54.8821004 C99.6873734,56.3451688 104.369155,59.8367098 103.728528,63.2 L102.728528,63 L102.728528,63.1 C101.728528,63.1 100.928528,63.4 100.328528,64.2 C97.7285284,67 97.6285284,74.4 97.7285284,77 C97.3847479,77.2774949 97.2128576,77.2860894 97.2128576,77.0257835 C97.2128576,77 95.7022521,76.2804198 95.7022521,76.2291913 C95.7022521,75 95.7254885,66.1546377 98.8285284,62.8 C99.5936967,62.0348317 100.455639,61.5115983 101.414355,61.2639582 C100.475193,59.5071943 97.8507642,57.516337 95.993283,56.3561638 C95.7484786,56.5562736 95.4933746,56.7381496 95.2285284,56.9 C89.8285284,60.1 88.8285284,66.5 88.7285284,67.1 C88.7285284,67.1 88.7285284,60.5 88.7285284,72 L86.7285284,71 L86.7285284,66.9 C86.7285284,66.6 87.7285284,59 94.2285284,55.2 C95.8234865,54.2316325 96.9641784,52.1924944 97.4472902,49.8403909 C95.4883024,49.600828 91.3262871,49.3672795 88.8246687,51.3527747 C88.7555045,54.4926615 87.756791,57.0681505 85.8285284,58.9 C82.7285284,61.9 78.4285284,62 77.8285284,62 C77.7285284,62 77.7285284,62 77.8285284,62 L77.8285284,60 C77.8285284,60 81.8285284,60.1 84.4285284,57.5 C86.0285284,56 86.8285284,53.8 86.8285284,51 L87.7285284,51 L87.0285284,50.3 C90.1071512,47.3753083 95.3183058,47.5901771 97.6924544,47.8443445 C97.7433891,46.6590094 97.6295984,45.44954 97.3285284,44.3 C96.5285284,41.5 94.2285284,37 86.7285284,37 C86.6763441,37 84.0643586,36.9183042 81.1947165,35.5327864 L81.4285284,35.8 C81.1285284,36 75.0285284,41.6 80.6285284,51.6 L79.7285284,52.05 L79.7285284,52.9 C75.8285284,53 73.6285284,57.4 73.6285284,57.4 L71.8285284,56.5 C71.9174627,56.3221314 73.9837249,52.0314207 78.097656,51.0840053 C76.8291941,48.416282 76.3128058,46.0306185 76.2524544,43.9534219 C75.5447288,43.5963104 70.4277241,41.9493578 68.6285284,46.4 L67.7285284,46.0684211 L67.7285284,48 C62.8285284,48 62.7285284,56.9 62.7285284,57 L60.7285284,57 C60.7285284,56.5044265 60.9250029,46.1851273 67.5494764,46.0024546 L66.7285284,45.7 C68.664018,40.907359 73.4876728,41.041588 76.3454192,41.8749455 Z M81.0896889,35.4815474 C81.0679761,35.4708444 81.0462503,35.4600662 81.0245123,35.4492123 L81.3285284,35.8 L81.0896889,35.4815474 Z M46.7285284,36 C40.2285284,36 38.8285284,31.5 38.7285284,31.3 L40.6285284,30.7 C40.6285284,30.8 41.7285284,34 46.6285284,34 L46.6285284,36 L46.7285284,36 Z" id="Combined-Shape" fill="#FFFFFF" fill-rule="nonzero" opacity="0.25"></path>
        <path d="M76.2524544,43.9534219 C76.3128058,46.0306185 76.8291941,48.416282 78.097656,51.0840053 C73.9837249,52.0314207 71.9174627,56.3221314 71.8285284,56.5 L73.6285284,57.4 C73.6285284,57.4 75.8285284,53 79.7285284,52.9 L79.7285284,52.05 L80.6285284,51.6 C75.0285284,41.6 81.1285284,36 81.4285284,35.8 L81.1947165,35.5327864 C84.0643586,36.9183042 86.6763441,37 86.7285284,37 C94.2285284,37 96.5285284,41.5 97.3285284,44.3 C97.6295984,45.44954 97.7433891,46.6590094 97.6924544,47.8443445 C95.3183058,47.5901771 90.1071512,47.3753083 87.0285284,50.3 L87.7285284,51 L86.8285284,51 C86.8285284,53.8 86.0285284,56 84.4285284,57.5 C81.8285284,60.1 77.8285284,60 77.8285284,60 L77.8285284,61.444463 C76.1864438,59.3426181 73.6253134,58 70.7285284,58 L60.7285284,58 C57.9285284,58 55.3285284,56.7 53.6285284,54.5 C51.3285284,56.1 48.5285284,57 45.7285284,57 C38.0285284,57 31.7285284,50.7 31.7285284,43 C31.7285284,37.5 34.9285284,32.6 39.8285284,30.3 C40.7285284,23.2 47.4285284,17.9 54.8285284,19.2 C56.7285284,15.4 60.5285284,13 64.7285284,13 C66.9285284,13 69.0285284,13.6 70.9285284,14.9 C73.0285284,13 75.8285284,12 78.7285284,12 C81.9285284,12 84.9285284,13.3 87.1285284,15.5 C88.3285284,15.2 89.5285284,15 90.7285284,15 C96.1285284,15 100.928528,18.3 102.828528,23.4 C109.128528,24.9 113.728528,30.5 113.728528,37 C113.728528,38.1 113.628528,39.1 113.328528,40.2 C114.928528,42.5 115.728528,45.2 115.728528,48 C115.728528,52.2 113.828528,56.1 110.628528,58.8 C110.128528,62.9 107.928528,66.6 104.628528,69.1 C99.6285284,72.8 98,71.7 98,77.5 L97.1778434,77.0275342 L97.7285284,77 C97.6285284,74.4 97.7285284,67 100.328528,64.2 C100.928528,63.4 101.728528,63.1 102.728528,63.1 L102.728528,63 L103.728528,63.2 C104.369155,59.8367098 99.6873734,56.3451688 97.3857668,54.8821004 C99.3160042,52.2841856 100.172224,48.3280071 99.4488315,44.6386932 C101.501622,44.0048421 105.177893,42.3809802 107.628528,38.6 L106.701256,38 L107.728528,38 C107.728528,36.8 108.028528,36 108.628528,35.4 C109.728528,34.5 111.728528,34.7 112.428528,34.9 L112.628528,33.9 L112.428528,34.9 L112.928528,33 C112.828528,33 109.528528,32.2 107.428528,33.9 C106.371105,34.7651645 105.775725,36.092372 105.731219,37.7927906 C103.630496,40.8108 100.586768,42.1483765 98.8902883,42.6839728 C97.1651418,38.1091682 93.2489107,35.3548551 87.8204241,35.0319798 C88.1133204,32.6280042 89.048158,29.1645759 90.6249368,29.0993952 C90.6517662,29.0992851 90.6785535,29.0991599 90.7052988,29.0990196 C90.713027,29.099265 90.7207702,29.0995917 90.7285284,29.1 L90.7285284,29.098894 C97.4887713,29.0612048 101.557321,28.0596906 103.028528,26 C103.728528,25.1 103.828528,24.2 103.628528,23.7 L101.728528,24.2 C101.728528,24.2 101.728528,24.5 101.428528,24.9 C100.828528,25.5 98.5285284,27.1 90.3285284,27.1 L90.3285284,27.1238937 C87.1186061,27.514258 86.1495723,32.5873794 85.8485745,34.921361 C83.4364489,34.5905035 76.9022185,32.904864 75.892742,24.5290292 C76.1410729,23.0404424 75.9563643,19.7544828 71.6285284,15.5 L70.2285284,16.9 C73.570962,20.1727996 74.0040564,22.6212864 73.9588799,23.8065176 L73.8285284,23.8 C73.2285284,26.8 71.0285284,29 67.9285284,29.7 C64.4285284,30.5 60.8285284,29.2 58.6285284,26.4 L57.0285284,27.6 C57.0285284,27.7 61.3285284,34.1 59.3285284,37.9 C58.8029639,38.9033503 57.8664967,39.6555933 56.5409404,40.167636 C55.9461364,38.4805025 53.7093631,34 46.7285284,34 L46.7285284,36 C52.4100682,36 54.1591697,39.3900331 54.5997417,40.69897 C53.5057232,40.9006997 52.246566,41 50.8285284,41 C43.7285284,41 41.0285284,45.3 40.9285284,45.5 L41.0533015,45.573396 C40.4785007,46.5896426 40.2591615,47.7207625 40.3285284,48.9 C40.6285284,53.1 44.9285284,56.6 45.1285284,56.8 L46.5285284,55.2 C46.5285284,55.2 42.6285284,52 42.4285284,48.7 C42.3285284,47.6 42.7285284,46.5 43.5285284,45.6 L43.4543623,45.5357227 C44.5445721,44.4996948 46.801006,43 50.7285284,43 C56.0285284,43 59.5285284,41.6 61.0285284,38.8 C62.3285284,36.3 61.7285284,33.3 60.8285284,30.8 C63.1285284,32 65.7285284,32.3 68.3285284,31.7 C70.9285284,31.1 73.1285284,29.6 74.4285284,27.5 C75.4672205,31.0392474 77.5122767,33.2613419 79.6413712,34.6559131 C78.7927143,35.5347408 76.8107568,38.0198775 76.3454192,41.8749455 C73.4876728,41.041588 68.664018,40.907359 66.7285284,45.7 L67.5494764,46.0024546 C60.9250029,46.1851273 60.7285284,56.5044265 60.7285284,57 L62.7285284,57 C62.7285284,56.9 62.8285284,48 67.7285284,48 L67.7285284,46.0684211 L68.6285284,46.4 C70.4277241,41.9493578 75.5447288,43.5963104 76.2524544,43.9534219 Z M81.0245123,35.4492123 C81.0462503,35.4600662 81.0679761,35.4708444 81.0896889,35.4815474 L81.3285284,35.8 L81.0245123,35.4492123 Z M95.993283,56.3561638 C97.8507642,57.516337 100.475193,59.5071943 101.414355,61.2639582 C100.455639,61.5115983 99.5936967,62.0348317 98.8285284,62.8 C95.7454593,66.1330476 95.6479895,73.5626151 95.7011999,76.1789569 L88.7285284,72.1719972 L88.7285284,67.1 C88.8285284,66.5 89.8285284,60.1 95.2285284,56.9 C95.4933746,56.7381496 95.7484786,56.5562736 95.993283,56.3561638 Z M97.4472902,49.8403909 C96.9641784,52.1924944 95.8234865,54.2316325 94.2285284,55.2 C87.7285284,59 86.7285284,66.6 86.7285284,66.9 L86.7285284,71.0226645 L79.7285284,67 C79.7285284,65.1400078 79.174997,63.4183984 78.2223689,61.9896065 C79.4942533,61.9286276 83.1195678,61.5215747 85.8285284,58.9 C87.756791,57.0681505 88.7555045,54.4926615 88.8246687,51.3527747 C91.3262871,49.3672795 95.4883024,49.600828 97.4472902,49.8403909 Z M46.7285284,36 L46.6285284,36 L46.6285284,34 C41.7285284,34 40.6285284,30.8 40.6285284,30.7 L38.7285284,31.3 C38.8285284,31.5 40.2285284,36 46.7285284,36 Z" id="Combined-Shape" fill="#FFFFFF" fill-rule="nonzero" opacity="0.899999976"></path>
    </g>
</svg>