<?xml version="1.0" encoding="UTF-8"?>
<svg width="137px" height="134px" viewBox="0 0 137 134" version="1.1" xmlns="http://www.w3.org/2000/svg" xmlns:xlink="http://www.w3.org/1999/xlink">
    <!-- Generator: Sketch 50.2 (55047) - http://www.bohemiancoding.com/sketch -->
    <title>advanced_placement_microeconomics</title>
    <desc>Created with Sketch.</desc>
    <defs></defs>
    <g id="advanced_placement_microeconomics" stroke="none" stroke-width="1" fill="none" fill-rule="evenodd">
        <path d="M129.97,118.766667 L134.995,122.116667 L129.97,125.466667 L129.97,123.233333 L13.5,123.233333 L13.5,131.878333 C13.5,132.436667 13.0533333,132.995 12.3833333,132.995 C11.7133333,132.995 11.2666667,132.548333 11.2666667,131.878333 L11.2666667,123.233333 L3.11666667,123.233333 C2.44666667,123.233333 2,122.786667 2,122.116667 C2,121.446667 2.44666667,121 3.11666667,121 L11.2666667,121 L11.2666667,5.025 L9.03333333,5.025 L12.3833333,2.13162821e-14 L15.7333333,5.025 L13.5,5.025 L13.5,121 L129.97,121 L129.97,118.766667 Z" id="axis" fill="#FFFFFF" fill-rule="nonzero" opacity="0.5"></path>
        <path d="M111.991667,123.391667 L103.058333,123.391667 L103.058333,131.878333 C103.058333,132.436667 102.611667,132.995 101.941667,132.995 C101.271667,132.995 100.825,132.548333 100.825,131.878333 L100.825,123.391667 L91.8916667,123.391667 L91.8916667,131.878333 C91.8916667,132.436667 91.445,132.995 90.775,132.995 C90.105,132.995 89.6583333,132.548333 89.6583333,131.878333 L89.6583333,123.391667 L80.725,123.391667 L80.725,131.878333 C80.725,132.436667 80.2783333,132.995 79.6083333,132.995 C78.9383333,132.995 78.4916667,132.548333 78.4916667,131.878333 L78.4916667,123.391667 L69.5583333,123.391667 L69.5583333,131.878333 C69.5583333,132.436667 69.1116667,132.995 68.4416667,132.995 C67.7716667,132.995 67.325,132.548333 67.325,131.878333 L67.325,123.391667 L58.3916667,123.391667 L58.3916667,131.878333 C58.3916667,132.436667 57.945,132.995 57.275,132.995 C56.605,132.995 56.1583333,132.548333 56.1583333,131.878333 L56.1583333,123.391667 L47.225,123.391667 L47.225,131.878333 C47.225,132.436667 46.7783333,132.995 46.1083333,132.995 C45.4383333,132.995 44.9916667,132.548333 44.9916667,131.878333 L44.9916667,123.391667 L36.0583333,123.391667 L36.0583333,131.878333 C36.0583333,132.436667 35.6116667,132.995 34.9416667,132.995 C34.2716667,132.995 33.825,132.548333 33.825,131.878333 L33.825,123.391667 L24.8916667,123.391667 L24.8916667,131.878333 C24.8916667,132.436667 24.445,132.995 23.775,132.995 C23.105,132.995 22.6583333,132.548333 22.6583333,131.878333 L22.6583333,123.391667 L13.725,123.391667 L13.725,131.878333 C13.725,132.436667 13.2783333,132.995 12.6083333,132.995 C11.9383333,132.995 11.4916667,132.548333 11.4916667,131.878333 L11.4916667,123.391667 L3.11666667,123.391667 C2.44666667,123.391667 2,122.945 2,122.275 C2,121.605 2.44666667,121.158333 3.11666667,121.158333 L11.4916667,121.158333 L11.4916667,112.225 L3.11666667,112.225 C2.44666667,112.225 2,111.778333 2,111.108333 C2,110.438333 2.44666667,109.991667 3.11666667,109.991667 L11.4916667,109.991667 L11.4916667,101.058333 L3.11666667,101.058333 C2.44666667,101.058333 2,100.611667 2,99.9416667 C2,99.2716667 2.44666667,98.825 3.11666667,98.825 L11.4916667,98.825 L11.4916667,89.8916667 L3.11666667,89.8916667 C2.44666667,89.8916667 2,89.445 2,88.775 C2,88.105 2.44666667,87.6583333 3.11666667,87.6583333 L11.4916667,87.6583333 L11.4916667,78.725 L3.11666667,78.725 C2.44666667,78.725 2,78.2783333 2,77.6083333 C2,76.9383333 2.44666667,76.4916667 3.11666667,76.4916667 L11.4916667,76.4916667 L11.4916667,67.5583333 L3.11666667,67.5583333 C2.44666667,67.5583333 2,67.1116667 2,66.4416667 C2,65.7716667 2.44666667,65.325 3.11666667,65.325 L11.4916667,65.325 L11.4916667,56.3916667 L3.11666667,56.3916667 C2.44666667,56.3916667 2,55.945 2,55.275 C2,54.605 2.44666667,54.1583333 3.11666667,54.1583333 L11.4916667,54.1583333 L11.4916667,45.225 L3.11666667,45.225 C2.44666667,45.225 2,44.7783333 2,44.1083333 C2,43.4383333 2.44666667,42.9916667 3.11666667,42.9916667 L11.4916667,42.9916667 L11.4916667,34.0583333 L3.11666667,34.0583333 C2.44666667,34.0583333 2,33.6116667 2,32.9416667 C2,32.2716667 2.44666667,31.825 3.11666667,31.825 L11.4916667,31.825 L11.4916667,22.8916667 L3.11666667,22.8916667 C2.44666667,22.8916667 2,22.445 2,21.775 C2,21.105 2.44666667,20.6583333 3.11666667,20.6583333 L11.4916667,20.6583333 L11.4916667,11.725 L3.11666667,11.725 C2.44666667,11.725 2,11.2783333 2,10.6083333 C2,9.93833333 2.44666667,9.49166667 3.11666667,9.49166667 L11.4916667,9.49166667 L11.4916667,1.11666667 C11.4916667,0.446666667 11.9383333,0 12.6083333,0 C13.2783333,0 13.725,0.446666667 13.725,1.11666667 L13.725,9.49166667 L22.6583333,9.49166667 L22.6583333,1.11666667 C22.6583333,0.446666667 23.105,0 23.775,0 C24.445,0 24.8916667,0.446666667 24.8916667,1.11666667 L24.8916667,9.49166667 L33.825,9.49166667 L33.825,1.11666667 C33.825,0.446666667 34.2716667,0 34.9416667,0 C35.6116667,0 36.0583333,0.446666667 36.0583333,1.11666667 L36.0583333,9.49166667 L44.9916667,9.49166667 L44.9916667,1.11666667 C44.9916667,0.446666667 45.4383333,0 46.1083333,0 C46.7783333,0 47.225,0.446666667 47.225,1.11666667 L47.225,9.49166667 L56.1583333,9.49166667 L56.1583333,1.11666667 C56.1583333,0.446666667 56.605,0 57.275,0 C57.945,0 58.3916667,0.446666667 58.3916667,1.11666667 L58.3916667,9.49166667 L67.325,9.49166667 L67.325,1.11666667 C67.325,0.446666667 67.7716667,0 68.4416667,0 C69.1116667,0 69.5583333,0.446666667 69.5583333,1.11666667 L69.5583333,9.49166667 L78.4916667,9.49166667 L78.4916667,1.11666667 C78.4916667,0.446666667 78.9383333,0 79.6083333,0 C80.2783333,0 80.725,0.446666667 80.725,1.11666667 L80.725,9.49166667 L89.6583333,9.49166667 L89.6583333,1.11666667 C89.6583333,0.446666667 90.105,0 90.775,0 C91.445,0 91.8916667,0.446666667 91.8916667,1.11666667 L91.8916667,9.49166667 L100.825,9.49166667 L100.825,1.11666667 C100.825,0.446666667 101.271667,0 101.941667,0 C102.611667,0 103.058333,0.446666667 103.058333,1.11666667 L103.058333,9.49166667 L111.991667,9.49166667 L111.991667,1.11666667 C111.991667,0.446666667 112.438333,0 113.108333,0 C113.778333,0 114.225,0.446666667 114.225,1.11666667 L114.225,9.49166667 L123.158333,9.49166667 L123.158333,1.11666667 C123.158333,0.446666667 123.605,0 124.275,0 C124.945,0 125.391667,0.446666667 125.391667,1.11666667 L125.391667,9.49166667 L133.878333,9.49166667 C134.548333,9.49166667 134.995,9.93833333 134.995,10.6083333 C134.995,11.2783333 134.436667,11.725 133.878333,11.725 L125.391667,11.725 L125.391667,20.6583333 L133.878333,20.6583333 C134.548333,20.6583333 134.995,21.105 134.995,21.775 C134.995,22.445 134.436667,22.8916667 133.878333,22.8916667 L125.391667,22.8916667 L125.391667,31.825 L133.878333,31.825 C134.548333,31.825 134.995,32.2716667 134.995,32.9416667 C134.995,33.6116667 134.436667,34.0583333 133.878333,34.0583333 L125.391667,34.0583333 L125.391667,42.9916667 L133.878333,42.9916667 C134.548333,42.9916667 134.995,43.4383333 134.995,44.1083333 C134.995,44.7783333 134.436667,45.225 133.878333,45.225 L125.391667,45.225 L125.391667,54.1583333 L133.878333,54.1583333 C134.548333,54.1583333 134.995,54.605 134.995,55.275 C134.995,55.945 134.436667,56.3916667 133.878333,56.3916667 L125.391667,56.3916667 L125.391667,65.325 L133.878333,65.325 C134.548333,65.325 134.995,65.7716667 134.995,66.4416667 C134.995,67.1116667 134.436667,67.5583333 133.878333,67.5583333 L125.391667,67.5583333 L125.391667,76.4916667 L133.878333,76.4916667 C134.548333,76.4916667 134.995,76.9383333 134.995,77.6083333 C134.995,78.2783333 134.436667,78.725 133.878333,78.725 L125.391667,78.725 L125.391667,87.6583333 L133.878333,87.6583333 C134.548333,87.6583333 134.995,88.105 134.995,88.775 C134.995,89.445 134.436667,89.8916667 133.878333,89.8916667 L125.391667,89.8916667 L125.391667,98.825 L133.878333,98.825 C134.548333,98.825 134.995,99.2716667 134.995,99.9416667 C134.995,100.611667 134.436667,101.058333 133.878333,101.058333 L125.391667,101.058333 L125.391667,109.991667 L133.878333,109.991667 C134.548333,109.991667 134.995,110.438333 134.995,111.108333 C134.995,111.778333 134.436667,112.225 133.878333,112.225 L125.391667,112.225 L125.391667,121.158333 L133.878333,121.158333 C134.548333,121.158333 134.995,121.605 134.995,122.275 C134.995,122.945 134.436667,123.391667 133.878333,123.391667 L125.391667,123.391667 L125.391667,131.878333 C125.391667,132.436667 124.945,132.995 124.275,132.995 C123.605,132.995 123.158333,132.548333 123.158333,131.878333 L123.158333,123.391667 L114.225,123.391667 L114.225,131.878333 C114.225,132.436667 113.778333,132.995 113.108333,132.995 C112.438333,132.995 111.991667,132.548333 111.991667,131.878333 L111.991667,123.391667 Z M111.991667,121.158333 L111.991667,112.225 L103.058333,112.225 L103.058333,121.158333 L111.991667,121.158333 Z M114.225,121.158333 L123.158333,121.158333 L123.158333,112.225 L114.225,112.225 L114.225,121.158333 Z M111.991667,109.991667 L111.991667,101.058333 L103.058333,101.058333 L103.058333,109.991667 L111.991667,109.991667 Z M114.225,109.991667 L123.158333,109.991667 L123.158333,101.058333 L114.225,101.058333 L114.225,109.991667 Z M111.991667,98.825 L111.991667,89.8916667 L103.058333,89.8916667 L103.058333,98.825 L111.991667,98.825 Z M114.225,98.825 L123.158333,98.825 L123.158333,89.8916667 L114.225,89.8916667 L114.225,98.825 Z M111.991667,87.6583333 L111.991667,78.725 L103.058333,78.725 L103.058333,87.6583333 L111.991667,87.6583333 Z M114.225,87.6583333 L123.158333,87.6583333 L123.158333,78.725 L114.225,78.725 L114.225,87.6583333 Z M111.991667,76.4916667 L111.991667,67.5583333 L103.058333,67.5583333 L103.058333,76.4916667 L111.991667,76.4916667 Z M114.225,76.4916667 L123.158333,76.4916667 L123.158333,67.5583333 L114.225,67.5583333 L114.225,76.4916667 Z M111.991667,65.325 L111.991667,56.3916667 L103.058333,56.3916667 L103.058333,65.325 L111.991667,65.325 Z M114.225,65.325 L123.158333,65.325 L123.158333,56.3916667 L114.225,56.3916667 L114.225,65.325 Z M111.991667,54.1583333 L111.991667,45.225 L103.058333,45.225 L103.058333,54.1583333 L111.991667,54.1583333 Z M114.225,54.1583333 L123.158333,54.1583333 L123.158333,45.225 L114.225,45.225 L114.225,54.1583333 Z M111.991667,42.9916667 L111.991667,34.0583333 L103.058333,34.0583333 L103.058333,42.9916667 L111.991667,42.9916667 Z M114.225,42.9916667 L123.158333,42.9916667 L123.158333,34.0583333 L114.225,34.0583333 L114.225,42.9916667 Z M111.991667,31.825 L111.991667,22.8916667 L103.058333,22.8916667 L103.058333,31.825 L111.991667,31.825 Z M114.225,31.825 L123.158333,31.825 L123.158333,22.8916667 L114.225,22.8916667 L114.225,31.825 Z M111.991667,20.6583333 L111.991667,11.725 L103.058333,11.725 L103.058333,20.6583333 L111.991667,20.6583333 Z M114.225,20.6583333 L123.158333,20.6583333 L123.158333,11.725 L114.225,11.725 L114.225,20.6583333 Z M100.825,121.158333 L100.825,112.225 L91.8916667,112.225 L91.8916667,121.158333 L100.825,121.158333 Z M100.825,109.991667 L100.825,101.058333 L91.8916667,101.058333 L91.8916667,109.991667 L100.825,109.991667 Z M100.825,98.825 L100.825,89.8916667 L91.8916667,89.8916667 L91.8916667,98.825 L100.825,98.825 Z M100.825,87.6583333 L100.825,78.725 L91.8916667,78.725 L91.8916667,87.6583333 L100.825,87.6583333 Z M100.825,76.4916667 L100.825,67.5583333 L91.8916667,67.5583333 L91.8916667,76.4916667 L100.825,76.4916667 Z M100.825,65.325 L100.825,56.3916667 L91.8916667,56.3916667 L91.8916667,65.325 L100.825,65.325 Z M100.825,54.1583333 L100.825,45.225 L91.8916667,45.225 L91.8916667,54.1583333 L100.825,54.1583333 Z M100.825,42.9916667 L100.825,34.0583333 L91.8916667,34.0583333 L91.8916667,42.9916667 L100.825,42.9916667 Z M100.825,31.825 L100.825,22.8916667 L91.8916667,22.8916667 L91.8916667,31.825 L100.825,31.825 Z M100.825,20.6583333 L100.825,11.725 L91.8916667,11.725 L91.8916667,20.6583333 L100.825,20.6583333 Z M89.6583333,121.158333 L89.6583333,112.225 L80.725,112.225 L80.725,121.158333 L89.6583333,121.158333 Z M89.6583333,109.991667 L89.6583333,101.058333 L80.725,101.058333 L80.725,109.991667 L89.6583333,109.991667 Z M89.6583333,98.825 L89.6583333,89.8916667 L80.725,89.8916667 L80.725,98.825 L89.6583333,98.825 Z M89.6583333,87.6583333 L89.6583333,78.725 L80.725,78.725 L80.725,87.6583333 L89.6583333,87.6583333 Z M89.6583333,76.4916667 L89.6583333,67.5583333 L80.725,67.5583333 L80.725,76.4916667 L89.6583333,76.4916667 Z M89.6583333,65.325 L89.6583333,56.3916667 L80.725,56.3916667 L80.725,65.325 L89.6583333,65.325 Z M89.6583333,54.1583333 L89.6583333,45.225 L80.725,45.225 L80.725,54.1583333 L89.6583333,54.1583333 Z M89.6583333,42.9916667 L89.6583333,34.0583333 L80.725,34.0583333 L80.725,42.9916667 L89.6583333,42.9916667 Z M89.6583333,31.825 L89.6583333,22.8916667 L80.725,22.8916667 L80.725,31.825 L89.6583333,31.825 Z M89.6583333,20.6583333 L89.6583333,11.725 L80.725,11.725 L80.725,20.6583333 L89.6583333,20.6583333 Z M78.4916667,121.158333 L78.4916667,112.225 L69.5583333,112.225 L69.5583333,121.158333 L78.4916667,121.158333 Z M78.4916667,109.991667 L78.4916667,101.058333 L69.5583333,101.058333 L69.5583333,109.991667 L78.4916667,109.991667 Z M78.4916667,98.825 L78.4916667,89.8916667 L69.5583333,89.8916667 L69.5583333,98.825 L78.4916667,98.825 Z M78.4916667,87.6583333 L78.4916667,78.725 L69.5583333,78.725 L69.5583333,87.6583333 L78.4916667,87.6583333 Z M78.4916667,76.4916667 L78.4916667,67.5583333 L69.5583333,67.5583333 L69.5583333,76.4916667 L78.4916667,76.4916667 Z M78.4916667,65.325 L78.4916667,56.3916667 L69.5583333,56.3916667 L69.5583333,65.325 L78.4916667,65.325 Z M78.4916667,54.1583333 L78.4916667,45.225 L69.5583333,45.225 L69.5583333,54.1583333 L78.4916667,54.1583333 Z M78.4916667,42.9916667 L78.4916667,34.0583333 L69.5583333,34.0583333 L69.5583333,42.9916667 L78.4916667,42.9916667 Z M78.4916667,31.825 L78.4916667,22.8916667 L69.5583333,22.8916667 L69.5583333,31.825 L78.4916667,31.825 Z M78.4916667,20.6583333 L78.4916667,11.725 L69.5583333,11.725 L69.5583333,20.6583333 L78.4916667,20.6583333 Z M67.325,121.158333 L67.325,112.225 L58.3916667,112.225 L58.3916667,121.158333 L67.325,121.158333 Z M67.325,109.991667 L67.325,101.058333 L58.3916667,101.058333 L58.3916667,109.991667 L67.325,109.991667 Z M67.325,98.825 L67.325,89.8916667 L58.3916667,89.8916667 L58.3916667,98.825 L67.325,98.825 Z M67.325,87.6583333 L67.325,78.725 L58.3916667,78.725 L58.3916667,87.6583333 L67.325,87.6583333 Z M67.325,76.4916667 L67.325,67.5583333 L58.3916667,67.5583333 L58.3916667,76.4916667 L67.325,76.4916667 Z M67.325,65.325 L67.325,56.3916667 L58.3916667,56.3916667 L58.3916667,65.325 L67.325,65.325 Z M67.325,54.1583333 L67.325,45.225 L58.3916667,45.225 L58.3916667,54.1583333 L67.325,54.1583333 Z M67.325,42.9916667 L67.325,34.0583333 L58.3916667,34.0583333 L58.3916667,42.9916667 L67.325,42.9916667 Z M67.325,31.825 L67.325,22.8916667 L58.3916667,22.8916667 L58.3916667,31.825 L67.325,31.825 Z M67.325,20.6583333 L67.325,11.725 L58.3916667,11.725 L58.3916667,20.6583333 L67.325,20.6583333 Z M56.1583333,121.158333 L56.1583333,112.225 L47.225,112.225 L47.225,121.158333 L56.1583333,121.158333 Z M56.1583333,109.991667 L56.1583333,101.058333 L47.225,101.058333 L47.225,109.991667 L56.1583333,109.991667 Z M56.1583333,98.825 L56.1583333,89.8916667 L47.225,89.8916667 L47.225,98.825 L56.1583333,98.825 Z M56.1583333,87.6583333 L56.1583333,78.725 L47.225,78.725 L47.225,87.6583333 L56.1583333,87.6583333 Z M56.1583333,76.4916667 L56.1583333,67.5583333 L47.225,67.5583333 L47.225,76.4916667 L56.1583333,76.4916667 Z M56.1583333,65.325 L56.1583333,56.3916667 L47.225,56.3916667 L47.225,65.325 L56.1583333,65.325 Z M56.1583333,54.1583333 L56.1583333,45.225 L47.225,45.225 L47.225,54.1583333 L56.1583333,54.1583333 Z M56.1583333,42.9916667 L56.1583333,34.0583333 L47.225,34.0583333 L47.225,42.9916667 L56.1583333,42.9916667 Z M56.1583333,31.825 L56.1583333,22.8916667 L47.225,22.8916667 L47.225,31.825 L56.1583333,31.825 Z M56.1583333,20.6583333 L56.1583333,11.725 L47.225,11.725 L47.225,20.6583333 L56.1583333,20.6583333 Z M44.9916667,121.158333 L44.9916667,112.225 L36.0583333,112.225 L36.0583333,121.158333 L44.9916667,121.158333 Z M44.9916667,109.991667 L44.9916667,101.058333 L36.0583333,101.058333 L36.0583333,109.991667 L44.9916667,109.991667 Z M44.9916667,98.825 L44.9916667,89.8916667 L36.0583333,89.8916667 L36.0583333,98.825 L44.9916667,98.825 Z M44.9916667,87.6583333 L44.9916667,78.725 L36.0583333,78.725 L36.0583333,87.6583333 L44.9916667,87.6583333 Z M44.9916667,76.4916667 L44.9916667,67.5583333 L36.0583333,67.5583333 L36.0583333,76.4916667 L44.9916667,76.4916667 Z M44.9916667,65.325 L44.9916667,56.3916667 L36.0583333,56.3916667 L36.0583333,65.325 L44.9916667,65.325 Z M44.9916667,54.1583333 L44.9916667,45.225 L36.0583333,45.225 L36.0583333,54.1583333 L44.9916667,54.1583333 Z M44.9916667,42.9916667 L44.9916667,34.0583333 L36.0583333,34.0583333 L36.0583333,42.9916667 L44.9916667,42.9916667 Z M44.9916667,31.825 L44.9916667,22.8916667 L36.0583333,22.8916667 L36.0583333,31.825 L44.9916667,31.825 Z M44.9916667,20.6583333 L44.9916667,11.725 L36.0583333,11.725 L36.0583333,20.6583333 L44.9916667,20.6583333 Z M33.825,121.158333 L33.825,112.225 L24.8916667,112.225 L24.8916667,121.158333 L33.825,121.158333 Z M33.825,109.991667 L33.825,101.058333 L24.8916667,101.058333 L24.8916667,109.991667 L33.825,109.991667 Z M33.825,98.825 L33.825,89.8916667 L24.8916667,89.8916667 L24.8916667,98.825 L33.825,98.825 Z M33.825,87.6583333 L33.825,78.725 L24.8916667,78.725 L24.8916667,87.6583333 L33.825,87.6583333 Z M33.825,76.4916667 L33.825,67.5583333 L24.8916667,67.5583333 L24.8916667,76.4916667 L33.825,76.4916667 Z M33.825,65.325 L33.825,56.3916667 L24.8916667,56.3916667 L24.8916667,65.325 L33.825,65.325 Z M33.825,54.1583333 L33.825,45.225 L24.8916667,45.225 L24.8916667,54.1583333 L33.825,54.1583333 Z M33.825,42.9916667 L33.825,34.0583333 L24.8916667,34.0583333 L24.8916667,42.9916667 L33.825,42.9916667 Z M33.825,31.825 L33.825,22.8916667 L24.8916667,22.8916667 L24.8916667,31.825 L33.825,31.825 Z M33.825,20.6583333 L33.825,11.725 L24.8916667,11.725 L24.8916667,20.6583333 L33.825,20.6583333 Z M22.6583333,121.158333 L22.6583333,112.225 L13.725,112.225 L13.725,121.158333 L22.6583333,121.158333 Z M22.6583333,109.991667 L22.6583333,101.058333 L13.725,101.058333 L13.725,109.991667 L22.6583333,109.991667 Z M22.6583333,98.825 L22.6583333,89.8916667 L13.725,89.8916667 L13.725,98.825 L22.6583333,98.825 Z M22.6583333,87.6583333 L22.6583333,78.725 L13.725,78.725 L13.725,87.6583333 L22.6583333,87.6583333 Z M22.6583333,76.4916667 L22.6583333,67.5583333 L13.725,67.5583333 L13.725,76.4916667 L22.6583333,76.4916667 Z M22.6583333,65.325 L22.6583333,56.3916667 L13.725,56.3916667 L13.725,65.325 L22.6583333,65.325 Z M22.6583333,54.1583333 L22.6583333,45.225 L13.725,45.225 L13.725,54.1583333 L22.6583333,54.1583333 Z M22.6583333,42.9916667 L22.6583333,34.0583333 L13.725,34.0583333 L13.725,42.9916667 L22.6583333,42.9916667 Z M22.6583333,31.825 L22.6583333,22.8916667 L13.725,22.8916667 L13.725,31.825 L22.6583333,31.825 Z M22.6583333,20.6583333 L22.6583333,11.725 L13.725,11.725 L13.725,20.6583333 L22.6583333,20.6583333 Z" id="Combined-Shape" fill="#FFFFFF" fill-rule="nonzero" opacity="0.099999994"></path>
        <g id="Group" transform="translate(13.000000, 20.000000)" fill="#FFFFFF" fill-rule="nonzero">
            <path d="M47,93.2857143 L45,93.2857143 L45,89 L47,89 L47,93.2857143 Z M47,101.285714 L45,101.285714 L45,97 L47,97 L47,101.285714 Z M47,84.4285714 L45,84.4285714 L45,80.1428571 L47,80.1428571 L47,84.4285714 Z M47,75.8571429 L45,75.8571429 L45,71.5714286 L47,71.5714286 L47,75.8571429 Z M47,67.2857143 L45,67.2857143 L45,63 L47,63 L47,67.2857143 Z" id="Shape"></path>
            <path d="M39,57 L34.7142857,57 L34.7142857,55 L39,55 L39,57 Z M30.4285714,57 L26.1428571,57 L26.1428571,55 L30.4285714,55 L30.4285714,57 Z M21.8571429,57 L17.5714286,57 L17.5714286,55 L21.8571429,55 L21.8571429,57 Z M13.2857143,57 L9,57 L9,55 L13.2857143,55 L13.2857143,57 Z M5.28571429,57 L1,57 L1,55 L5.28571429,55 L5.28571429,57 Z" id="Shape"></path>
            <path d="M58,92.5797872 L56,92.5797872 L56,88 L58,88 L58,92.5797872 Z M58,101.579787 L56,101.579787 L56,97 L58,97 L58,101.579787 Z M58,83.9494681 L56,83.9494681 L56,79.3696809 L58,79.3696809 L58,83.9494681 Z M58,74.7898936 L56,74.7898936 L56,70.2101064 L58,70.2101064 L58,74.7898936 Z M58,65.6303191 L56,65.6303191 L56,61.0505319 L58,61.0505319 L58,65.6303191 Z M58,56.5797872 L56,56.5797872 L56,52 L58,52 L58,56.5797872 Z" id="Shape"></path>
            <path d="M51,47 L46.4202128,47 L46.4202128,45 L51,45 L51,47 Z M41.8404255,47 L37.2606383,47 L37.2606383,45 L41.8404255,45 L41.8404255,47 Z M32.7898936,47 L28.2101064,47 L28.2101064,45 L32.7898936,45 L32.7898936,47 Z M23.6303191,47 L19.0505319,47 L19.0505319,45 L23.6303191,45 L23.6303191,47 Z M14.5797872,47 L10,47 L10,45 L14.5797872,45 L14.5797872,47 Z M5.57978723,47 L1,47 L1,45 L5.57978723,45 L5.57978723,47 Z" id="Shape"></path>
            <path d="M45,-6 L47,-6 C47.5522847,-6 48,-5.55228475 48,-5 L48,118 C48,118.552285 47.5522847,119 47,119 L45,119 C44.4477153,119 44,118.552285 44,118 L44,-5 C44,-5.55228475 44.4477153,-6 45,-6 Z" id="Rectangle-path" opacity="0.5" transform="translate(46.000000, 56.500000) rotate(-135.000000) translate(-46.000000, -56.500000) "></path>
            <path d="M-5,55 L98,55 C98.5522847,55 99,55.4477153 99,56 L99,58 C99,58.5522847 98.5522847,59 98,59 L-5,59 C-5.55228475,59 -6,58.5522847 -6,58 L-6,56 C-6,55.4477153 -5.55228475,55 -5,55 Z" id="Rectangle-path" opacity="0.75" transform="translate(46.500000, 57.000000) rotate(-135.000000) translate(-46.500000, -57.000000) "></path>
            <path d="M-4,44 L118,44 C118.552285,44 119,44.4477153 119,45 L119,47 C119,47.5522847 118.552285,48 118,48 L-4,48 C-4.55228475,48 -5,47.5522847 -5,47 L-5,45 C-5,44.4477153 -4.55228475,44 -4,44 Z" id="Rectangle-path" opacity="0.899999976" transform="translate(57.000000, 46.000000) rotate(-135.000000) translate(-57.000000, -46.000000) "></path>
            <circle id="Oval" cx="46.5" cy="56.5" r="4.5"></circle>
            <circle id="Oval" cx="57.5" cy="45.5" r="4.5"></circle>
        </g>
    </g>
</svg>