<?xml version="1.0" encoding="UTF-8"?>
<svg width="137px" height="134px" viewBox="0 0 137 134" version="1.1" xmlns="http://www.w3.org/2000/svg" xmlns:xlink="http://www.w3.org/1999/xlink">
    <!-- Generator: Sketch 50.2 (55047) - http://www.bohemiancoding.com/sketch -->
    <title>advanced_placement_french_language</title>
    <desc>Created with Sketch.</desc>
    <defs></defs>
    <g id="advanced_placement_french_language" stroke="none" stroke-width="1" fill="none" fill-rule="evenodd">
        <g id="Group" transform="translate(0.000000, 15.000000)" fill="#FFFFFF" fill-rule="nonzero">
            <path d="M67.9079767,2.69353623 C70.4280708,1.34649527 83.3805029,-3.58645307 128.326619,4.6615649 L129.115108,4.75969574 L129.115108,96.1195088 L127.932374,95.9232471 C85.1330464,88.0758023 72.1400606,92.1278646 69.2766009,93.4798398 L68.1057554,94.4512845 L67.5143885,93.9606303 L67.5883094,93.8624995 L67.5143885,93.8624995 L67.4158273,93.9606303 C67.409486,93.9543166 67.3643848,93.9195678 67.2722811,93.8624995 L67.218705,93.8624995 L67.2091221,93.8243352 C65.6053249,92.8777633 53.9915724,87.6036587 8.08201439,96.021378 L6.89928058,96.1195088 L6.89928058,4.85782658 L7.68776978,4.75969574 C51.5617857,-3.20593032 64.9502055,1.23857843 67.9079767,2.69353623 Z M14.1,54.3 C24.5,53.1 43.3,51 52,51 C56.4,51 60.4,51.5 63.7,52.6 L64.3,50.7 C60.8,49.6 56.6,49 52,49 C43.2,49 24.3,51.1 13.9,52.3 L14.1,54.3 Z M14.1,61.3 C24.5,60.1 43.3,58 52,58 C56.4,58 60.4,58.5 63.7,59.6 L64.3,57.7 C60.8,56.6 56.6,56 52,56 C43.2,56 24.3,58.1 13.9,59.3 L14.1,61.3 Z M14.1,68.3 C24.5,67.1 43.3,65 52,65 C56.4,65 60.4,65.5 63.7,66.6 L64.3,64.7 C60.8,63.6 56.6,63 52,63 C43.2,63 24.3,65.1 13.9,66.3 L14.1,68.3 Z M14.1,75.3 C24.5,74.1 43.3,72 52,72 C56.4,72 60.4,72.5 63.7,73.6 L64.3,71.7 C60.8,70.6 56.6,70 52,70 C43.2,70 24.3,72.1 13.9,73.3 L14.1,75.3 Z M14.1,82.3 C24.5,81.1 43.3,79 52,79 C56.4,79 60.4,79.5 63.7,80.6 L64.3,78.7 C60.8,77.6 56.6,77 52,77 C43.2,77 24.3,79.1 13.9,80.3 L14.1,82.3 Z M123.9,26.3 L124.1,24.3 C113.7,23.1 94.8,21 86,21 C81.4,21 77.2,21.6 73.7,22.7 L74.3,24.6 C77.6,23.5 81.6,23 86,23 C94.7,23 113.5,25 123.9,26.3 Z M123.9,19.3 L124.1,17.3 C113.7,16.1 94.8,14 86,14 C81.4,14 77.2,14.6 73.7,15.7 L74.3,17.6 C77.6,16.5 81.6,16 86,16 C94.7,16 113.5,18 123.9,19.3 Z M123.9,33.3 L124.1,31.3 C113.7,30.1 94.8,28 86,28 C81.4,28 77.2,28.6 73.7,29.7 L74.3,31.6 C77.6,30.5 81.6,30 86,30 C94.7,30 113.5,32 123.9,33.3 Z M123.9,40.3 L124.1,38.3 C113.7,37.1 94.8,35 86,35 C81.4,35 77.2,35.6 73.7,36.7 L74.3,38.6 C77.6,37.5 81.6,37 86,37 C94.7,37 113.5,39 123.9,40.3 Z M123.9,47.3 L124.1,45.3 C113.7,44.1 94.8,42 86,42 C81.4,42 77.2,42.6 73.7,43.7 L74.3,45.6 C77.6,44.5 81.6,44 86,44 C94.7,44 113.5,46.1 123.9,47.3 Z M123.9,54.3 L124.1,52.3 C113.7,51.1 94.8,49 86,49 C81.4,49 77.2,49.6 73.7,50.7 L74.3,52.6 C77.6,51.5 81.6,51 86,51 C94.7,51 113.5,53.1 123.9,54.3 Z M123.9,61.3 L124.1,59.3 C113.7,58.1 94.8,56 86,56 C81.4,56 77.2,56.6 73.7,57.7 L74.3,59.6 C77.6,58.5 81.6,58 86,58 C94.7,58 113.5,60.1 123.9,61.3 Z M123.9,68.3 L124.1,66.3 C113.7,65.1 94.8,63 86,63 C81.4,63 77.2,63.6 73.7,64.7 L74.3,66.6 C77.6,65.5 81.6,65 86,65 C94.7,65 113.5,67.1 123.9,68.3 Z M123.9,75.3 L124.1,73.3 C113.7,72.1 94.8,70 86,70 C81.4,70 77.2,70.6 73.7,71.7 L74.3,73.6 C77.6,72.5 81.6,72 86,72 C94.7,72 113.5,74.1 123.9,75.3 Z M123.9,82.3 L124.1,80.3 C113.7,79.1 94.8,77 86,77 C81.4,77 77.2,77.6 73.7,78.7 L74.3,80.6 C77.6,79.5 81.6,79 86,79 C94.7,79 113.5,81.1 123.9,82.3 Z M20,43.6 L21.1,43.5 C31.3,42.3 45,41 52,41 C53.7,41 55.3,41.1 56.9,41.2 L58,41.3 L58,16.8 L57.1,16.7 C55.5,16.6 53.8,16.5 52,16.5 C44.9,16.5 31.2,17.9 20.9,19 L20,19.1 L20,43.6 Z" id="Combined-Shape"></path>
            <path d="M129.115108,5.74601671 L136.310072,8.29240602 L136.310072,100.241004 L76.0892086,100.241004 C75.2021583,101.418574 72.7381295,104.166238 68.0071942,104.166238 C63.0791367,104.166238 60.8122302,101.418574 60.023741,100.241004 L0,100.241004 L0,8.29240602 L6.89928058,5.75909748 L6.89928058,96.1195088 L8.08201439,96.021378 C53.9915724,87.6036587 65.6053249,92.8777633 67.2091221,93.8243352 L67.218705,93.8624995 L67.2722811,93.8624995 C67.3643848,93.9195678 67.409486,93.9543166 67.4158273,93.9606303 L67.5143885,93.8624995 L67.5883094,93.8624995 L67.5143885,93.9606303 L68.1057554,94.4512845 L69.2766009,93.4798398 C72.1400606,92.1278646 85.1330464,88.0758023 127.932374,95.9232471 L129.115108,96.1195088 L129.115108,5.74601671 Z" id="Combined-Shape" opacity="0.75"></path>
        </g>
        <path d="M109.7,59.5503566 L108.8,57.3503566 C108.2,55.9503566 106.1,55.3503566 103.7,54.7503566 C102.8,54.5503566 101.9,54.2503566 101,53.9503566 C97.5,52.8503566 96.8,49.1503566 96.9,47.4503566 L96.9,25.8503566 L97.6,25.6503566 C102.8,23.9503566 114.1,23.2503566 121.8,26.5503566 L122.4,26.8503566 L122.4,47.5503566 C122.5,49.2503566 121.8,52.8503566 118.3,54.0503566 C117.4,54.3503566 116.5,54.5503566 115.6,54.8503566 C113.2,55.4503566 111.1,56.0503566 110.5,57.4503566 L109.7,59.5503566 Z" id="Shape" fill="#FFFFFF" fill-rule="nonzero" opacity="0.099999994"></path>
        <rect id="Rectangle-path" fill="#FFFFFF" fill-rule="nonzero" opacity="0.899999976" x="32" y="30.75" width="13" height="27"></rect>
        <rect id="Rectangle-path" fill="#FFFFFF" fill-rule="nonzero" opacity="0.5" x="45" y="28" width="13" height="29"></rect>
        <path d="M14.1,69.3 L13.9,67.3 C24.3,66.1 43.2,64 52,64 C56.6,64 60.8,64.6 64.3,65.7 L63.7,67.6 C60.4,66.5 56.4,66 52,66 C43.3,66 24.5,68.1 14.1,69.3 Z" id="Shape" fill="#FFFFFF" opacity="0.5"></path>
        <path d="M14.1,76.3 L13.9,74.3 C24.3,73.1 43.2,71 52,71 C56.6,71 60.8,71.6 64.3,72.7 L63.7,74.6 C60.4,73.5 56.4,73 52,73 C43.3,73 24.5,75.1 14.1,76.3 Z" id="Shape" fill="#FFFFFF" opacity="0.5"></path>
        <path d="M14.1,83.3 L13.9,81.3 C24.3,80.1 43.2,78 52,78 C56.6,78 60.8,78.6 64.3,79.7 L63.7,81.6 C60.4,80.5 56.4,80 52,80 C43.3,80 24.5,82.1 14.1,83.3 Z" id="Shape" fill="#FFFFFF" opacity="0.5"></path>
        <path d="M14.1,90.3 L13.9,88.3 C24.3,87.1 43.2,85 52,85 C56.6,85 60.8,85.6 64.3,86.7 L63.7,88.6 C60.4,87.5 56.4,87 52,87 C43.3,87 24.5,89.1 14.1,90.3 Z" id="Shape" fill="#FFFFFF" opacity="0.5"></path>
        <path d="M14.1,97.3 L13.9,95.3 C24.3,94.1 43.2,92 52,92 C56.6,92 60.8,92.6 64.3,93.7 L63.7,95.6 C60.4,94.5 56.4,94 52,94 C43.3,94 24.5,96.1 14.1,97.3 Z" id="Shape" fill="#FFFFFF" opacity="0.5"></path>
        <path d="M123.9,41.3 C113.5,40 94.7,38 86,38 C81.6,38 77.6,38.5 74.3,39.6 L73.7,37.7 C77.2,36.6 81.4,36 86,36 C94.8,36 113.7,38.1 124.1,39.3 L123.9,41.3 Z" id="Shape" fill="#FFFFFF" opacity="0.5"></path>
        <path d="M123.9,34.3 C113.5,33 94.7,31 86,31 C81.6,31 77.6,31.5 74.3,32.6 L73.7,30.7 C77.2,29.6 81.4,29 86,29 C94.8,29 113.7,31.1 124.1,32.3 L123.9,34.3 Z" id="Shape" fill="#FFFFFF" opacity="0.5"></path>
        <path d="M123.9,48.3 C113.5,47 94.7,45 86,45 C81.6,45 77.6,45.5 74.3,46.6 L73.7,44.7 C77.2,43.6 81.4,43 86,43 C94.8,43 113.7,45.1 124.1,46.3 L123.9,48.3 Z" id="Shape" fill="#FFFFFF" opacity="0.5"></path>
        <path d="M123.9,55.3 C113.5,54 94.7,52 86,52 C81.6,52 77.6,52.5 74.3,53.6 L73.7,51.7 C77.2,50.6 81.4,50 86,50 C94.8,50 113.7,52.1 124.1,53.3 L123.9,55.3 Z" id="Shape" fill="#FFFFFF" opacity="0.5"></path>
        <path d="M123.9,62.3 C113.5,61.1 94.7,59 86,59 C81.6,59 77.6,59.5 74.3,60.6 L73.7,58.7 C77.2,57.6 81.4,57 86,57 C94.8,57 113.7,59.1 124.1,60.3 L123.9,62.3 Z" id="Shape" fill="#FFFFFF" opacity="0.5"></path>
        <path d="M123.9,69.3 C113.5,68.1 94.7,66 86,66 C81.6,66 77.6,66.5 74.3,67.6 L73.7,65.7 C77.2,64.6 81.4,64 86,64 C94.8,64 113.7,66.1 124.1,67.3 L123.9,69.3 Z" id="Shape" fill="#FFFFFF" opacity="0.5"></path>
        <path d="M123.9,76.3 C113.5,75.1 94.7,73 86,73 C81.6,73 77.6,73.5 74.3,74.6 L73.7,72.7 C77.2,71.6 81.4,71 86,71 C94.8,71 113.7,73.1 124.1,74.3 L123.9,76.3 Z" id="Shape" fill="#FFFFFF" opacity="0.5"></path>
        <path d="M123.9,83.3 C113.5,82.1 94.7,80 86,80 C81.6,80 77.6,80.5 74.3,81.6 L73.7,79.7 C77.2,78.6 81.4,78 86,78 C94.8,78 113.7,80.1 124.1,81.3 L123.9,83.3 Z" id="Shape" fill="#FFFFFF" opacity="0.5"></path>
        <path d="M123.9,90.3 C113.5,89.1 94.7,87 86,87 C81.6,87 77.6,87.5 74.3,88.6 L73.7,86.7 C77.2,85.6 81.4,85 86,85 C94.8,85 113.7,87.1 124.1,88.3 L123.9,90.3 Z" id="Shape" fill="#FFFFFF" opacity="0.5"></path>
        <path d="M123.9,97.3 C113.5,96.1 94.7,94 86,94 C81.6,94 77.6,94.5 74.3,95.6 L73.7,93.7 C77.2,92.6 81.4,92 86,92 C94.8,92 113.7,94.1 124.1,95.3 L123.9,97.3 Z" id="Shape" fill="#FFFFFF" opacity="0.5"></path>
    </g>
</svg>