<?xml version="1.0" encoding="UTF-8"?>
<svg width="137px" height="134px" viewBox="0 0 137 134" version="1.1" xmlns="http://www.w3.org/2000/svg" xmlns:xlink="http://www.w3.org/1999/xlink">
    <!-- Generator: Sketch 50.2 (55047) - http://www.bohemiancoding.com/sketch -->
    <title>advanced_placement_biology</title>
    <desc>Created with Sketch.</desc>
    <defs>
        <path d="M11.921,77.657 L10.712,77.657 C7.235,77.657 4.3,75.053 3.887,71.601 L0.808,45.926 C0.641,44.53 0.899,43.137 1.556,41.894 L21.539,4.099 C22.66,1.979 24.757,0.617 27.149,0.453 C29.533,0.292 31.804,1.356 33.202,3.305 L45.551,20.52 C47.159,22.761 47.275,25.734 45.843,28.091 L17.8,74.347 C16.562,76.389 14.309,77.657 11.921,77.657 Z" id="path-1"></path>
        <path d="M11.921,77.657 L10.712,77.657 C7.235,77.657 4.3,75.053 3.887,71.601 L0.808,45.926 C0.641,44.53 0.899,43.137 1.556,41.894 L21.539,4.099 C22.66,1.979 24.757,0.617 27.149,0.453 C29.533,0.292 31.804,1.356 33.202,3.305 L45.551,20.52 C47.159,22.761 47.275,25.734 45.843,28.091 L17.8,74.347 C16.562,76.389 14.309,77.657 11.921,77.657 Z" id="path-3"></path>
    </defs>
    <g id="advanced_placement_biology" stroke="none" stroke-width="1" fill="none" fill-rule="evenodd">
        <g id="Group" transform="translate(56.000000, 17.000000)" fill="#FFFFFF">
            <path d="M0.352405986,36.8170496 L4.39184892,27.4253448 C5.18119578,25.5901133 6.98723111,24.4009003 8.98501561,24.4009003 L21.5721395,24.4009003 C23.6397232,24.4009003 25.4940481,25.673497 26.2376139,27.6027488 L29.8117436,36.876167 C29.1927721,36.6442901 28.5339086,36.4998215 27.851,36.453 C25.467,36.292 23.196,37.356 21.798,39.305 L15,48.7816839 L8.202,39.305 C6.804,37.356 4.533,36.292 2.149,36.453 C1.52612377,36.4957056 0.92325092,36.6196451 0.352405986,36.8170496 Z M5.06310433,90.1194154 L15,73.728835 L24.9436577,90.1305693 C20.5964668,92.5110048 17.1297497,93.666892 14.5435066,93.5982306 C12.1423391,93.5344828 8.98220501,92.3748778 5.06310433,90.1194154 Z" id="Combined-Shape"></path>
            <path d="M19.2719823,2.89951033 L27.6184224,17.3876706 C28.9968665,19.7804415 28.1745922,22.8376154 25.7818212,24.2160596 C25.0227023,24.6533781 24.1620033,24.8835645 23.2859273,24.8835645 L6.59304704,24.8835645 C3.83162329,24.8835645 1.59304704,22.6449882 1.59304704,19.8835645 C1.59304704,19.0074885 1.82323342,18.1467896 2.26055196,17.3876706 L10.6069921,2.89951033 C11.9854362,0.506739373 15.0426101,-0.315534981 17.4353811,1.06290916 C18.1986786,1.5026349 18.8322565,2.13621283 19.2719823,2.89951033 Z" id="Combined-Shape"></path>
            <path d="M4.5336279,14.139964 C3.58484163,13.1701104 3,11.8427628 3,10.3788181 C3,7.40817889 5.40817889,5 8.37881809,5 C8.83621051,5 9.28026864,5.0570909 9.70425522,5.16453544 L8.97895939,6.42353951 C8.78319843,6.39408537 8.58279119,6.37881809 8.37881809,6.37881809 C6.16967909,6.37881809 4.37881809,8.16967909 4.37881809,10.3788181 C4.37881809,11.3261098 4.70811165,12.1964908 5.25847551,12.881738 L4.5336279,14.139964 Z" id="Combined-Shape"></path>
            <path d="M21.5336279,14.139964 C20.5848416,13.1701104 20,11.8427628 20,10.3788181 C20,7.40817889 22.4081789,5 25.3788181,5 C25.8362105,5 26.2802686,5.0570909 26.7042552,5.16453544 L25.9789594,6.42353951 C25.7831984,6.39408537 25.5827912,6.37881809 25.3788181,6.37881809 C23.1696791,6.37881809 21.3788181,8.16967909 21.3788181,10.3788181 C21.3788181,11.3261098 21.7081117,12.1964908 22.2584755,12.881738 L21.5336279,14.139964 Z" id="Combined-Shape" transform="translate(23.352128, 9.569982) scale(-1, 1) translate(-23.352128, -9.569982) "></path>
        </g>
        <g id="Group-2" transform="translate(31.000000, 53.000000)">
            <mask id="mask-2" fill="white">
                <use xlink:href="#path-1"></use>
            </mask>
            <use id="XMLID_2_" fill="#FFFFFF" fill-rule="nonzero" opacity="0.25" xlink:href="#path-1"></use>
            <path d="M16.7473234,54.7012721 L13.6114954,42.3075286 L2.45888405,59.9236088 L0.768239146,58.8532739 L12.935268,39.6348729 L8.67499039,22.7969636 L10.6139904,22.3063636 L14.4092984,37.3065718 L22.3168665,24.8161917 L17.0094891,8.92589023 L18.9074376,8.29197343 L23.6979336,22.6347306 L34.9865635,4.8038025 L36.6772084,5.8741374 L24.5158516,25.0835792 L28.465024,36.9074113 L42.7675382,15.1883932 L44.437103,16.2878432 L29.2705024,39.3190157 L33.9557856,53.3467655 L32.0578371,53.9806823 L27.8707656,41.4445796 L18.9021767,55.0637896 L22.8780955,70.7778269 L20.9390955,71.2684269 L17.4117103,57.3271305 L5.2371774,75.8147121 L3.5676126,74.7152621 L16.7473234,54.7012721 Z M18.2377898,52.4379312 L27.0652872,39.0329752 L23.1347845,27.2650403 L15.0855257,39.9792275 L18.2377898,52.4379312 Z" id="Combined-Shape" fill="#FFFFFF" fill-rule="nonzero" opacity="0.5" mask="url(#mask-2)"></path>
        </g>
        <g id="Group-2" transform="translate(87.500000, 92.000000) scale(-1, 1) translate(-87.500000, -92.000000) translate(64.000000, 53.000000)">
            <mask id="mask-4" fill="white">
                <use xlink:href="#path-3"></use>
            </mask>
            <use id="XMLID_2_" fill="#FFFFFF" fill-rule="nonzero" opacity="0.25" xlink:href="#path-3"></use>
            <path d="M16.7473234,54.7012721 L13.6114954,42.3075286 L2.45888405,59.9236088 L0.768239146,58.8532739 L12.935268,39.6348729 L8.67499039,22.7969636 L10.6139904,22.3063636 L14.4092984,37.3065718 L22.3168665,24.8161917 L17.0094891,8.92589023 L18.9074376,8.29197343 L23.6979336,22.6347306 L34.9865635,4.8038025 L36.6772084,5.8741374 L24.5158516,25.0835792 L28.465024,36.9074113 L42.7675382,15.1883932 L44.437103,16.2878432 L29.2705024,39.3190157 L33.9557856,53.3467655 L32.0578371,53.9806823 L27.8707656,41.4445796 L18.9021767,55.0637896 L22.8780955,70.7778269 L20.9390955,71.2684269 L17.4117103,57.3271305 L5.2371774,75.8147121 L3.5676126,74.7152621 L16.7473234,54.7012721 Z M18.2377898,52.4379312 L27.0652872,39.0329752 L23.1347845,27.2650403 L15.0855257,39.9792275 L18.2377898,52.4379312 Z" id="Combined-Shape" fill="#FFFFFF" fill-rule="nonzero" opacity="0.5" mask="url(#mask-4)"></path>
        </g>
        <path d="M42.4379085,76.2037767 L37.7343342,77.8206304 C32.9869049,79.4525592 32.9869049,79.4525592 32.0921733,79.758313 C30.1236988,80.5665827 28.883578,81.8074061 27.1600073,84.3855249 C27.0029795,84.6204072 25.9767287,86.1887179 25.6529878,86.6673228 C25.0210681,87.6015264 24.4510932,88.3798192 23.8341711,89.1300728 C20.4155997,93.287478 15.7697391,96.139222 8.23635158,97.9716676 C7.69971438,98.102201 7.15886577,97.7729888 7.0283324,97.2363516 C6.89779902,96.6997144 7.22701122,96.1588658 7.76364842,96.0283324 C14.8828865,94.2966258 19.1504931,91.6770635 22.2893676,87.8598043 C22.8620866,87.1633072 23.3967574,86.4332215 23.9963868,85.5467545 C24.3095396,85.0838027 25.3317277,83.5217006 25.4973442,83.2739713 C27.4220011,80.3950675 28.9156341,78.9005883 31.3872595,77.8875718 L43.8044471,73.6191636 L42.4379085,76.2037767 Z" id="Combined-Shape" fill="#FFFFFF" fill-rule="nonzero"></path>
        <path d="M98.0844854,73.4090951 L111.112781,77.8875718 C113.584407,78.9005883 115.07804,80.3950675 117.002696,83.2739713 C117.168313,83.5217006 118.190501,85.0838027 118.503654,85.5467545 C119.103283,86.4332215 119.637954,87.1633072 120.210673,87.8598043 C123.349548,91.6770635 127.617154,94.2966258 134.736392,96.0283324 C135.273029,96.1588658 135.602242,96.6997144 135.471708,97.2363516 C135.341175,97.7729888 134.800326,98.102201 134.263689,97.9716676 C126.730302,96.139222 122.084441,93.287478 118.66587,89.1300728 C118.048947,88.3798192 117.478973,87.6015264 116.847053,86.6673228 C116.523312,86.1887179 115.497061,84.6204072 115.340033,84.3855249 C113.616463,81.8074061 112.376342,80.5665827 110.407867,79.758313 C109.513136,79.4525592 109.513136,79.4525592 104.765706,77.8206304 L99.451024,75.9937083 L98.0844854,73.4090951 Z" id="Combined-Shape" fill="#FFFFFF" fill-rule="nonzero"></path>
        <path d="M91.7344651,22.5944668 C90.9977892,23.6998144 91.2127842,26.1239653 92.2785314,30.5656479 C92.3481088,30.8556234 92.4204652,31.1530147 92.5168214,31.5460495 C93.9625131,37.4429941 94.2064559,39.0374717 93.3058542,40.5208112 L85.8058542,52.8143717 C85.5182209,53.2858434 84.9028448,53.4348738 84.4313731,53.1472405 C83.9599015,52.8596072 83.810871,52.2442311 84.0985043,51.7727594 L91.5973918,39.4810269 C92.0555285,38.7264487 91.7859379,36.9643301 90.5743442,32.0222661 C90.4772729,31.6263146 90.4042108,31.3260227 90.3337313,31.0322876 C89.0886756,25.8433065 88.8623144,23.1729969 90.1384458,21.3864129 L90.2172098,21.2895509 L107.71721,2.32190482 C108.091714,1.91599241 108.724367,1.8905312 109.13028,2.26503561 C109.536192,2.63954003 109.561653,3.27219287 109.187149,3.67810528 L91.7344651,22.5944668 Z" id="Path-22-Copy" fill="#FFFFFF" fill-rule="nonzero"></path>
        <path d="M20.0881104,35.4710662 C19.6233327,35.7693952 19.0047126,35.6344617 18.7063836,35.169684 C18.4080547,34.7049063 18.5429882,34.0862862 19.0077659,33.7879573 L40.7260938,19.8475188 L40.8351616,19.7867713 C42.7907298,18.852434 45.3743324,19.5221113 50.1191517,21.5753881 C50.4096257,21.7010881 50.7106471,21.8327229 51.0842564,21.9971265 C55.9308275,24.1298194 57.5679309,24.69005 58.399541,24.3664275 L71.808696,19.1151238 C72.322952,18.9137305 72.9031003,19.1673557 73.1044936,19.6816117 C73.3058869,20.1958676 73.0522617,20.776016 72.5380057,20.9774093 L62.4811394,24.9158871 C59.6875655,26.0099087 59.6875655,26.0099087 59.1268572,26.2294913 C57.4967399,26.8638591 56.0647049,26.3738046 50.2787154,23.8277285 C49.9085371,23.6648347 49.6110151,23.5347301 49.3248526,23.4108959 C45.2693967,21.6559347 42.9452081,21.0436554 41.7476522,21.5683611 L20.0881104,35.4710662 Z" id="Path-22-Copy" fill="#FFFFFF" fill-rule="nonzero" transform="translate(45.860717, 27.337816) rotate(80.000000) translate(-45.860717, -27.337816) "></path>
    </g>
</svg>