<?xml version="1.0" encoding="UTF-8"?>
<svg width="137px" height="134px" viewBox="0 0 137 134" version="1.1" xmlns="http://www.w3.org/2000/svg" xmlns:xlink="http://www.w3.org/1999/xlink">
    <!-- Generator: Sketch 50.2 (55047) - http://www.bohemiancoding.com/sketch -->
    <title>advanced_placement_world_history</title>
    <desc>Created with Sketch.</desc>
    <defs></defs>
    <g id="advanced_placement_world_history" stroke="none" stroke-width="1" fill="none" fill-rule="evenodd">
        <g id="Group" transform="translate(14.000000, 0.000000)" fill="#FFFFFF" fill-rule="nonzero">
            <path d="M91.9032637,-3.55271368e-15 L109,17.0967363 L109,104.713048 L91.8948667,121.818182 L2.21487603,121.818182 C0.991633777,121.818182 -2.51473129e-15,120.826548 -2.66453526e-15,119.603306 L0,2.21487603 C-1.49803971e-16,0.991633777 0.991633777,-2.4398293e-15 2.21487603,-2.66453526e-15 L91.9032637,-3.79201944e-16 Z M95.0355414,-2.99388953e-16 L106.785124,0 C108.008366,-2.24705957e-16 109,0.991633777 109,2.21487603 L109,13.9644586 L95.0355414,-3.99680289e-15 Z M95.0407402,121.818182 L109,107.858922 L109,119.603306 C109,120.826548 108.008366,121.818182 106.785124,121.818182 L95.0407402,121.818182 Z" id="Combined-Shape" opacity="0.25"></path>
            <polygon id="Shape" opacity="0.25" points="20.0204082 121.818182 0 121.818182 0 0 20.0204082 0"></polygon>
            <polygon id="Shape" points="91.2040816 133.778512 84.5306122 129.791736 77.8571429 133.778512 77.8571429 121.818182 91.2040816 121.818182"></polygon>
            <path d="M0,15.5041322 L20.0204082,15.5041322 L20.0204082,17.7190083 L0,17.7190083 L0,15.5041322 Z M0,37.6528926 L20.0204082,37.6528926 L20.0204082,39.8677686 L0,39.8677686 L0,37.6528926 Z M0,59.8016529 L20.0204082,59.8016529 L20.0204082,62.0165289 L0,62.0165289 L0,59.8016529 Z M0,81.9504132 L20.0204082,81.9504132 L20.0204082,84.1652893 L0,84.1652893 L0,81.9504132 Z M0,104.099174 L20.0204082,104.099174 L20.0204082,106.31405 L0,106.31405 L0,104.099174 Z" id="Combined-Shape" opacity="0.5"></path>
            <g id="Group-3" transform="translate(35.000000, 34.000000)">
                <g id="Group-2">
                    <path d="M27.2857143,53.1983471 C12.6040816,53.1983471 0.591836735,41.2380165 0.591836735,26.6198347 C0.591836735,12.0016529 12.6040816,0.041322314 27.2857143,0.041322314 C41.9673469,0.041322314 53.9795918,12.0016529 53.9795918,26.6198347 C53.9795918,41.2380165 41.9673469,53.1983471 27.2857143,53.1983471 Z M27.2857143,2.25619835 C13.827551,2.25619835 2.81632653,13.2198347 2.81632653,26.6198347 C2.81632653,40.0198347 13.827551,50.9834711 27.2857143,50.9834711 C40.7438776,50.9834711 51.755102,40.0198347 51.755102,26.6198347 C51.755102,13.2198347 40.7438776,2.25619835 27.2857143,2.25619835 Z" id="Shape"></path>
                    <path d="M27.2857143,53.1983471 C19.1663265,53.1983471 12.8265306,41.5702479 12.8265306,26.6198347 C12.8265306,11.6694215 19.1663265,0.041322314 27.2857143,0.041322314 C35.405102,0.041322314 41.744898,11.6694215 41.744898,26.6198347 C41.744898,41.5702479 35.405102,53.1983471 27.2857143,53.1983471 Z M27.2857143,2.25619835 C20.6122449,2.25619835 15.0510204,13.4413223 15.0510204,26.6198347 C15.0510204,39.7983471 20.6122449,50.9834711 27.2857143,50.9834711 C33.9591837,50.9834711 39.5204082,39.7983471 39.5204082,26.6198347 C39.5204082,13.4413223 33.9591837,2.25619835 27.2857143,2.25619835 Z" id="Shape"></path>
                    <rect id="Rectangle-path" x="26.1734694" y="1.14876033" width="2.2244898" height="50.9421488"></rect>
                    <rect id="Rectangle-path" x="1.70408163" y="25.5123967" width="51.1632653" height="2.21487603"></rect>
                    <path d="M27.2857143,17.7603306 C19.944898,17.7603306 13.1602041,14.8809917 8.15510204,9.67603306 L9.7122449,8.12561983 C14.3836735,12.8876033 20.6122449,15.5454545 27.2857143,15.5454545 C33.9591837,15.5454545 40.1877551,12.8876033 44.8591837,8.12561983 L46.4163265,9.67603306 C41.4112245,14.8809917 34.6265306,17.7603306 27.2857143,17.7603306 Z" id="Shape"></path>
                </g>
                <path d="M44.8591837,45.1140496 C40.1877551,40.3520661 33.9591837,37.6942149 27.2857143,37.6942149 C20.6122449,37.6942149 14.3836735,40.3520661 9.7122449,45.1140496 L8.15510204,43.5636364 C13.1602041,38.3586777 19.944898,35.4793388 27.2857143,35.4793388 C34.6265306,35.4793388 41.4112245,38.3586777 46.4163265,43.5636364 L44.8591837,45.1140496 Z" id="Shape"></path>
            </g>
            <path d="M91.8948667,121.818182 L109,104.713048 L109,107.858922 L95.0407402,121.818182 L91.8948667,121.818182 Z M109,17.0967363 L91.9032637,0 L95.0355414,-2.99388953e-16 L109,13.9644586 L109,17.0967363 Z" id="Combined-Shape" opacity="0.75"></path>
        </g>
    </g>
</svg>