<?xml version="1.0" encoding="UTF-8"?>
<svg width="137px" height="134px" viewBox="0 0 137 134" version="1.1" xmlns="http://www.w3.org/2000/svg" xmlns:xlink="http://www.w3.org/1999/xlink">
    <!-- Generator: Sketch 50.2 (55047) - http://www.bohemiancoding.com/sketch -->
    <title>all_quiet_on_the_western_front</title>
    <desc>Created with Sketch.</desc>
    <defs></defs>
    <g id="all_quiet_on_the_western_front" stroke="none" stroke-width="1" fill="none" fill-rule="evenodd">
        <g id="Group" transform="translate(2.000000, 35.000000)" fill="#FFFFFF">
            <path d="M58.2737246,46.1470109 C57.956065,45.663577 58.0901734,45.0139793 58.573264,44.696094 C59.0563546,44.3782086 59.7054908,44.5124123 60.0231504,44.9958462 L61.639543,47.4612422 C61.6715499,47.5027315 61.7194097,47.5301502 61.8016077,47.5411031 L63.4190296,47.7956746 C63.9901814,47.88557 64.3803685,48.4217839 64.2905369,48.9933416 C64.2007052,49.5648994 63.6648722,49.9553638 63.0937204,49.8654683 L61.5062465,49.6151677 C60.9027765,49.5379922 60.3540623,49.2236351 59.9361621,48.6770109 L58.2737246,46.1470109 Z" id="XMLID_5_" fill-rule="nonzero" opacity="0.5"></path>
            <path d="M43.1741719,54.7297143 L35.6733125,52.395619 L2.19529687,65.3022857 L0,44.1571429 L38.8526719,40.999619 L42.5565156,42.7847619 L66.4305,36.8112381 L69.7920156,39.4889524 L112.257453,39.4889524 L48.0452812,47.5901905 L43.1741719,54.7297143 Z M17.1941397,55.3061829 C21.6474159,54.5192731 24.9175952,51.9577149 24.4982895,49.5847824 C24.0789839,47.2118499 20.1289759,45.9261245 15.6756997,46.7130342 C11.2224236,47.499944 7.95224429,50.0615023 8.37154992,52.4344348 C8.79085555,54.8073672 12.7408636,56.0930927 17.1941397,55.3061829 Z" id="Combined-Shape"></path>
            <polygon id="XMLID_3_" opacity="0.75" points="70.7229499 39.4889524 134 39.4889524 134 35.7814286 68.6231366 35.7814286 66.4305 36.8112381 69.1675326 39.4889524"></polygon>
            <path d="M67.9160156,44.4871429 L70.0097656,44.4871429 C70.0097656,49.8363954 66.0525082,54.2132381 61.1165625,54.2132381 C56.9129437,54.2132381 53.3348758,51.0112721 52.4371992,46.6172644 L54.4885195,46.1975927 C55.1943763,49.652668 57.9492854,52.118 61.1165625,52.118 C64.8468357,52.118 67.9160156,48.7233971 67.9160156,44.4871429 Z" id="XMLID_6_" fill-rule="nonzero"></path>
            <ellipse id="Oval-path" opacity="0.75" cx="16.4349197" cy="51.0096086" rx="8.18828812" ry="4.36313718"></ellipse>
            <path d="M116.578953,33.6861905 L96.1303438,33.6861905 L96.1303438,0 L114.485203,0 C115.641549,-2.1241735e-16 116.578953,0.937403805 116.578953,2.09375 L116.578953,33.6861905 Z M40.6459688,39.6535222 L40.6459688,2.09375 C40.6459688,0.937403805 41.5833726,2.1241735e-16 42.7397188,0 L62.6303438,0 L62.6303438,35.634589 L42.6697723,40.6289355 L40.6459688,39.6535222 Z M64.7240938,35.1107106 L64.7240938,0 L94.0365938,0 L94.0365938,33.6861905 L68.9856168,33.6861905 L66.1187759,34.7617464 L64.7240938,35.1107106 Z" id="Combined-Shape" opacity="0.5"></path>
            <path d="M64.7240938,34.9746113 L62.6303438,35.4984897 L62.6303438,0 L64.7240938,0 L64.7240938,34.9746113 Z M96.1303438,33.5238095 L94.0365938,33.5238095 L94.0365938,0 L96.1303438,0 L96.1303438,33.5238095 Z" id="Combined-Shape" opacity="0.25"></path>
        </g>
    </g>
</svg>