<?xml version="1.0" encoding="UTF-8"?>
<svg width="137px" height="134px" viewBox="0 0 137 134" version="1.1" xmlns="http://www.w3.org/2000/svg" xmlns:xlink="http://www.w3.org/1999/xlink">
    <!-- Generator: Sketch 50.2 (55047) - http://www.bohemiancoding.com/sketch -->
    <title>bret_harte</title>
    <desc>Created with Sketch.</desc>
    <defs></defs>
    <g id="bret_harte" stroke="none" stroke-width="1" fill="none" fill-rule="evenodd">
        <g id="Group" transform="translate(0.000000, 9.000000)">
            <path d="M29.7175254,8.29741023 L32.5974934,104.54477 C32.6575325,106.55231 34.3334049,108.131204 36.3409587,108.071609 L69.7237319,107.081438 L69.7875575,107.239045 L22.4580017,115.874255 C20.4835416,116.234493 18.5904621,114.92728 18.2278629,112.953252 L0.657895996,17.300532 C0.294989828,15.3248332 1.60241657,13.4290193 3.57811536,13.0661131 C3.57955945,13.0658479 3.58100369,13.0655835 3.5824481,13.06532 L29.7175254,8.29741023 Z M25.547469,25.271753 L24.018646,24.213253 L18.6877699,20.5217947 L14.9839204,25.8348363 L13.9218673,27.3585447 C13.0501593,28.6091697 13.360531,30.3262113 14.615354,31.195003 L15.4034071,31.7411697 C16.6582301,32.6099613 18.3810354,32.300628 19.2527434,31.050003 L19.8165044,30.241628 C19.8771239,30.154628 19.9268319,29.940753 20.0092743,29.8839613 L19.3557965,34.4007113 L23.0851062,33.7312947 L20.9743363,29.861003 C20.9840354,29.8670447 21.0094956,29.9419613 21.0191947,29.9492113 L21.8375575,30.5485447 C23.0923805,31.4173363 24.818823,31.126128 25.690531,29.8767113 L26.2397434,29.099753 C27.1102389,27.849128 26.8010796,26.1405447 25.547469,25.271753 Z" id="Combined-Shape" fill="#FFFFFF" opacity="0.5"></path>
            <path d="M69.7875575,107.079545 L36.3409587,108.071609 C34.3334049,108.131204 32.6575325,106.55231 32.5974934,104.54477 L29.6890875,7.34702577 C29.629039,5.339171 31.208048,3.66280421 33.2159028,3.60275574 C33.2161456,3.60274848 33.2163884,3.60274124 33.2166312,3.60273403 L63.5049558,2.70371132 L69.7875575,107.079545 Z M53.5427522,16.1210447 L52.8456283,15.462503 C51.7375044,14.414878 49.9868142,14.462003 48.9356726,15.567628 L48.2567345,16.281753 C47.9245398,16.6309613 47.3716903,16.6454613 47.0213097,16.314378 L46.3047876,15.6377113 C45.1966637,14.5900863 43.4459735,14.6372113 42.3948319,15.7428363 L41.7340796,16.437628 C40.6829381,17.5420447 40.7302212,19.286878 41.8395575,20.334503 L43.1913717,21.610503 L47.9027168,26.0607947 L52.3679469,21.3652113 L53.6482301,20.0179197 C54.6981593,18.913503 54.6508761,17.1686697 53.5427522,16.1210447 Z" id="Combined-Shape" fill="#FFFFFF" opacity="0.75"></path>
            <rect id="XMLID_12_" stroke="#DAE6E8" stroke-width="2.42488945" transform="translate(91.364012, 57.781625) rotate(9.851327) translate(-91.364012, -57.781625) " x="59.3027295" y="10.3892324" width="64.1225642" height="94.784785"></rect>
            <path d="M67.5315381,0.601168445 L133.081354,11.9840707 C135.060488,12.3277525 136.386283,14.2107664 136.042601,16.1898999 L119.404496,112.002438 C119.060814,113.981572 117.1778,115.307367 115.198667,114.963685 L49.6488505,103.580783 C47.669717,103.237101 46.3439215,101.354087 46.6876034,99.374954 L63.3257089,3.56241557 C63.6693907,1.58328208 65.5524046,0.257486582 67.5315381,0.601168445 Z M81.7999115,22.5904613 L78.3979469,13.055503 L71.7552655,20.2668363 L75.0626637,30.339503 L81.7999115,22.5904613 Z M98.9249115,60.1962113 L93.7249735,45.6237113 L83.5736372,56.646128 L88.6280885,72.0390863 L98.9249115,60.1962113 Z M112.246646,95.0904613 L108.843469,85.555503 L102.202,92.7680447 L105.508186,102.840711 L112.246646,95.0904613 Z" id="Combined-Shape" fill="#FFFFFF"></path>
        </g>
    </g>
</svg>