<?xml version="1.0" encoding="utf-8"?>
<!-- Generator: Adobe Illustrator 20.1.0, SVG Export Plug-In . SVG Version: 6.00 Build 0)  -->
<svg version="1.1" id="Layer_1" xmlns="http://www.w3.org/2000/svg" xmlns:xlink="http://www.w3.org/1999/xlink" x="0px" y="0px"
	 viewBox="0 0 234.2 228" style="enable-background:new 0 0 234.2 228;" xml:space="preserve">
<style type="text/css">
	.st0{fill:#D0E4F0;}
	.st1{fill:#FFFFFF;}
	.st2{fill:#40565B;}
	.st3{fill:#C3D4E0;}
	.st4{fill:#3AA1D6;}
	.st5{fill:#1785C8;}
	.st6{fill:#A1C2D8;}
	.st7{fill:#164A67;}
	.st8{fill:#F36F42;}
	.st9{fill:#C84A27;}
	.st10{opacity:7.000000e-02;fill:#3F555A;}
	.st11{opacity:7.000000e-02;}
	.st12{fill:#3F555A;}
	.st13{fill:#E7F1F8;}
	.st14{fill:#D0E4F1;}
	.st15{fill:#FFDC64;}
	.st16{fill:#F26F42;}
	.st17{fill:#FAAC30;}
</style>
<g>
	<g>
		<path class="st0" d="M161,168.5v3.7c-1.2,1.3-2.6,1.8-4.5,1.8H21.4c-1.9,0-3.6-0.5-4.8-1.8v-3.7H161z"/>
		<rect x="32.8" y="91" class="st1" width="112.7" height="71.8"/>
		<g>
			<path class="st2" d="M113.5,119.5c-0.1,0-0.1,0-0.2-0.1c-2-6.1-5.2-11.4-9.5-15.2c-4.4-3.9-9.4-6-14.7-6
				c-10,0-19.2,7.7-23.6,19.5c0,0.1-0.1,0.1-0.2,0.1c-0.1,0-0.1-0.1-0.1-0.2c4.4-12,13.8-19.8,23.9-19.8c5.3,0,10.5,2.1,14.9,6.1
				c4.3,3.8,7.6,9.1,9.6,15.3C113.7,119.3,113.7,119.4,113.5,119.5C113.5,119.5,113.5,119.5,113.5,119.5z"/>
			<g>
				<path class="st1" d="M114.2,130.4c-0.8-16.7-11.7-30.5-25-30.5c-13.3,0-24.2,13.9-25,30.5l25,6.3L114.2,130.4z"/>
				<path class="st2" d="M80.5,117.7h-0.2c-0.4,0-0.8-0.3-0.8-0.8v-3.2c0-0.4,0.3-0.8,0.8-0.8h0.2c0.4,0,0.8,0.3,0.8,0.8v3.2
					C81.3,117.3,80.9,117.7,80.5,117.7z"/>
				<path class="st2" d="M98.7,117.7h-0.2c-0.4,0-0.8-0.3-0.8-0.8v-3.2c0-0.4,0.3-0.8,0.8-0.8h0.2c0.4,0,0.8,0.3,0.8,0.8v3.2
					C99.5,117.3,99.1,117.7,98.7,117.7z"/>
				<g>
					<path class="st1" d="M60.2,164.7c-1.9-8.4-1.5-15.6-1.5-15.6h-8.2c0,0-0.2,6.6,1.1,14.4"/>
					<path class="st0" d="M57.9,166.4c-1.8-9-1.6-17.3-1.6-17.3h2.4c0,0-0.5,8,1.8,17"/>
					
						<rect x="47.3" y="135.7" transform="matrix(-1 -4.517199e-11 4.517199e-11 -1 106.0141 284.8377)" class="st0" width="11.4" height="13.3"/>
					
						<rect x="47.3" y="135.7" transform="matrix(-1 -4.610058e-11 4.610058e-11 -1 98.642 284.8377)" class="st1" width="4.1" height="13.3"/>
					<path class="st2" d="M58.7,149.3H47.3c-0.1,0-0.2-0.1-0.2-0.2v-13.3c0-0.1,0.1-0.2,0.2-0.2h11.4c0.1,0,0.2,0.1,0.2,0.2v13.3
						C58.9,149.2,58.8,149.3,58.7,149.3z M47.5,148.9h11.1v-13H47.5V148.9z"/>
					<path class="st3" d="M51.4,161.2c-0.2,0-0.3-0.1-0.4-0.3c0-0.2,0.1-0.4,0.3-0.4l7.3-1c0.2,0,0.4,0.1,0.4,0.3
						c0,0.2-0.1,0.4-0.3,0.4L51.4,161.2C51.4,161.2,51.4,161.2,51.4,161.2z"/>
					<path class="st2" d="M52.3,167.2c-0.1,0-0.2-0.1-0.2-0.1c-1.9-9.1-1.8-17.9-1.8-18c0-0.1,0.1-0.2,0.2-0.2h8.2
						c0,0,0.1,0,0.1,0.1c0,0,0.1,0.1,0,0.1c0,0.1-0.4,8.1,1.8,16.9c0,0.1,0,0.2-0.1,0.2c-0.1,0-0.2,0-0.2-0.1
						c-2-8.1-1.9-15.6-1.8-16.9h-7.9c0,1.3,0,9.4,1.8,17.8C52.5,167.1,52.4,167.2,52.3,167.2C52.3,167.2,52.3,167.2,52.3,167.2z"/>
				</g>
				<g>
					<path class="st1" d="M118.2,164.7c1.9-8.4,1.5-15.6,1.5-15.6h8.2c0,0,0.2,6.6-1.1,14.4"/>
					<path class="st0" d="M120.4,167.1c2-9.2,1.8-18,1.8-18h-2.4c0,0,0.5,8.3-1.9,17.4"/>
					<rect x="119.7" y="135.7" class="st0" width="11.4" height="13.3"/>
					<rect x="127.1" y="135.7" class="st1" width="4.1" height="13.3"/>
					<path class="st2" d="M131.1,149.3h-11.4c-0.1,0-0.2-0.1-0.2-0.2v-13.3c0-0.1,0.1-0.2,0.2-0.2h11.4c0.1,0,0.2,0.1,0.2,0.2v13.3
						C131.3,149.2,131.2,149.3,131.1,149.3z M119.9,148.9h11.1v-13h-11.1V148.9z"/>
					<path class="st3" d="M127,161.2C127,161.2,127,161.2,127,161.2l-7.4-1c-0.2,0-0.3-0.2-0.3-0.4c0-0.2,0.2-0.3,0.4-0.3l7.3,1
						c0.2,0,0.3,0.2,0.3,0.4C127.3,161,127.2,161.2,127,161.2z"/>
					<path class="st2" d="M126,168C126,168,126,168,126,168c-0.1,0-0.2-0.1-0.2-0.2c2-8.7,1.9-17.2,1.9-18.5h-7.9
						c0.1,1.3,0.2,9-1.9,17.2c0,0.1-0.1,0.2-0.2,0.1c-0.1,0-0.2-0.1-0.1-0.2c2.3-9,1.9-17.2,1.9-17.3c0,0,0-0.1,0-0.1
						c0,0,0.1-0.1,0.1-0.1h8.2c0.1,0,0.2,0.1,0.2,0.2c0,0.1,0.2,9.4-1.9,18.8C126.1,168,126.1,168,126,168z"/>
				</g>
				<path class="st4" d="M58.7,164.7v-32c0-1.7,1.3-3,2.9-3l27.5,7l27.5-7c1.6,0,2.9,1.4,2.9,3v32"/>
				<path class="st5" d="M119.7,164.7v2.7c0-1.7,0-20.1,0-20.1l-30.5,17l-30.5-15.2c0,0,0,9.5,0,11.2v4.4"/>
				<path class="st0" d="M85.5,100.3c-11.6,2.3-20.5,15.1-21.3,30.2l7.3,1.9C72.4,118.5,77.8,106.3,85.5,100.3z"/>
				<path class="st0" d="M92.9,100.3c11.6,2.3,20.5,15.1,21.3,30.2l-7.3,1.9C106.1,118.5,100.6,106.3,92.9,100.3z"/>
				<path class="st6" d="M92.1,115.7h-5.8c-0.1,0-0.2-0.1-0.2-0.2c0-0.1,0.1-0.2,0.2-0.2h5.8c0.1,0,0.2,0.1,0.2,0.2
					C92.3,115.6,92.2,115.7,92.1,115.7z"/>
				<path class="st6" d="M111.9,118.5C111.9,118.5,111.9,118.5,111.9,118.5l-7.8-2.2c-0.1,0-0.2-0.1-0.1-0.2c0-0.1,0.1-0.2,0.2-0.1
					l7.8,2.2c0.1,0,0.2,0.1,0.1,0.2C112.1,118.5,112,118.5,111.9,118.5z"/>
				<path class="st6" d="M66.5,118.5c-0.1,0-0.2-0.1-0.2-0.1c0-0.1,0-0.2,0.1-0.2l7.8-2.2c0.1,0,0.2,0,0.2,0.1c0,0.1,0,0.2-0.1,0.2
					L66.5,118.5C66.5,118.5,66.5,118.5,66.5,118.5z"/>
				<path class="st2" d="M89.2,136.9C89.2,136.9,89.2,136.9,89.2,136.9l-25-6.4c-0.1,0-0.1-0.1-0.1-0.2c0.4-8.2,3.2-15.8,7.8-21.6
					c4.7-5.9,10.9-9.1,17.3-9.1s12.6,3.2,17.3,9.1c4.7,5.8,7.4,13.5,7.8,21.6c0,0.1-0.1,0.2-0.1,0.2L89.2,136.9
					C89.2,136.9,89.2,136.9,89.2,136.9z M64.4,130.3l24.8,6.3l24.8-6.3c-0.4-8-3.2-15.6-7.7-21.3c-4.7-5.8-10.7-8.9-17-8.9
					c-6.3,0-12.4,3.2-17,8.9C67.6,114.7,64.8,122.2,64.4,130.3z"/>
				<path class="st7" d="M119.7,164.9c-0.1,0-0.2-0.1-0.2-0.2v-32c0-1.6-1.2-2.8-2.7-2.8l-27.5,7c0,0-0.1,0-0.1,0l-27.5-7
					c-1.5,0-2.7,1.3-2.7,2.8v32c0,0.1-0.1,0.2-0.2,0.2c-0.1,0-0.2-0.1-0.2-0.2v-32c0-1.8,1.4-3.2,3.1-3.2c0,0,0,0,0,0l27.5,7l27.5-7
					c0,0,0,0,0,0c1.7,0,3.1,1.4,3.1,3.2v32C119.9,164.8,119.8,164.9,119.7,164.9z"/>
				<polygon class="st0" points="106.5,132.4 89.2,154.8 71.9,132.4 89.2,136.7 				"/>
				<polygon class="st6" points="106.5,132.4 89.2,154.8 71.9,132.4 89.2,149.9 				"/>
				<g>
					<polyline class="st4" points="86.7,151.6 88.2,136.8 90.3,136.8 91.7,151.7 					"/>
					<polygon class="st5" points="87.1,147.8 86.7,151.6 89.2,154.8 91.7,151.7 91.3,147.7 89.2,149.9 					"/>
					<path class="st5" d="M90.7,141.4l-0.3-3.6l-1.2,0.3l-1.2-0.3l-0.3,3.5C88.6,142.2,89.9,142.2,90.7,141.4z"/>
					<path class="st7" d="M91.7,151.8c-0.1,0-0.2-0.1-0.2-0.2L90.1,137h-1.8l-1.4,14.6c0,0.1-0.1,0.2-0.2,0.2
						c-0.1,0-0.2-0.1-0.2-0.2l1.4-14.8c0-0.1,0.1-0.2,0.2-0.2h2.2c0.1,0,0.2,0.1,0.2,0.2l1.4,14.8C91.9,151.7,91.8,151.8,91.7,151.8
						C91.7,151.8,91.7,151.8,91.7,151.8z"/>
					<path class="st4" d="M87.5,139.9l-3.4-4.4l5.1,1.4l5.1-1.4l-3.4,4.4C90,140.9,88.4,140.9,87.5,139.9z"/>
					<path class="st7" d="M89.2,140.9C89.2,140.9,89.2,140.9,89.2,140.9c-0.7,0-1.4-0.3-1.8-0.9c0,0,0,0,0,0l-3.4-4.4
						c0-0.1,0-0.1,0-0.2c0-0.1,0.1-0.1,0.2-0.1l5,1.4l5.1-1.4c0.1,0,0.2,0,0.2,0.1c0,0.1,0,0.1,0,0.2l-3.4,4.4
						C90.6,140.5,89.9,140.9,89.2,140.9z M87.7,139.8c0.4,0.5,1,0.7,1.6,0.7c0,0,0,0,0,0c0.6,0,1.2-0.3,1.6-0.7l3.1-4l-4.6,1.3
						c0,0-0.1,0-0.1,0l-4.6-1.2L87.7,139.8z"/>
				</g>
				<g>
					<polygon class="st8" points="89.2,119.9 90.2,121.3 91.3,122.6 89.2,122.6 87.2,122.6 88.2,121.3 					"/>
					<path class="st9" d="M91.3,122.8h-4.1c-0.1,0-0.1,0-0.2-0.1s0-0.1,0-0.2l2.1-2.8c0.1-0.1,0.2-0.1,0.3,0l2.1,2.8
						c0,0.1,0,0.1,0,0.2C91.4,122.8,91.3,122.8,91.3,122.8z M87.5,122.5h3.4l-1.7-2.3L87.5,122.5z"/>
				</g>
				<path class="st2" d="M90.5,131.7c-0.9,0-1.8-0.1-2.9-0.4c-1.9-0.6-3.7-2.8-3.9-3.2c-0.1-0.2-0.1-0.3,0-0.5
					c0.2-0.3,0.8-0.1,1.9,0.1c0.8,0.2,1.8,0.4,2.9,0.5c0.6,0,1.1,0,1.5-0.1c0.1,0,0.2,0,0.3-0.1c0.1,0,0.2,0,0.2,0.1
					c0,0.1,0,0.2-0.1,0.2c-0.1,0-0.2,0-0.3,0.1c-0.4,0.1-0.9,0.2-1.5,0.1c-1.1-0.1-2.1-0.3-2.9-0.5c-0.6-0.1-1.4-0.3-1.5-0.2
					c0,0,0,0,0,0.1c0.2,0.4,1.8,2.5,3.6,3c1.9,0.6,3.4,0.4,4.9,0.2c0.1,0,0.2,0.1,0.2,0.2c0,0.1-0.1,0.2-0.2,0.2
					C91.9,131.6,91.2,131.7,90.5,131.7z"/>
				<path class="st2" d="M103.2,110.9c-0.1,0-0.1,0-0.2-0.1c-1.9-3.9-5-2.4-5.1-2.4c-0.1,0-0.2,0-0.2-0.1c0-0.1,0-0.2,0.1-0.2
					c0,0,3.5-1.7,5.6,2.5C103.4,110.7,103.4,110.8,103.2,110.9C103.3,110.9,103.2,110.9,103.2,110.9z"/>
				<path class="st2" d="M74.2,110.9C74.1,110.9,74.1,110.9,74.2,110.9c-0.2-0.1-0.2-0.2-0.2-0.3c2.1-4.2,5.6-2.5,5.6-2.5
					c0.1,0,0.1,0.2,0.1,0.2c0,0.1-0.2,0.1-0.2,0.1c-0.1-0.1-3.2-1.5-5.1,2.4C74.3,110.8,74.2,110.9,74.2,110.9z"/>
				<path class="st2" d="M72.3,108.5c0,0-0.1,0-0.1-0.1l-5-5.1c-0.1-0.1-0.1-0.2,0-0.3c0.1-0.1,0.2-0.1,0.3,0l5,5.1
					c0.1,0.1,0.1,0.2,0,0.3C72.4,108.5,72.3,108.5,72.3,108.5z"/>
				<g>
					<ellipse class="st8" cx="65.9" cy="102" rx="2" ry="2.1"/>
					<path class="st9" d="M65.9,104.2c-1.2,0-2.2-1-2.2-2.2c0-1.2,1-2.2,2.2-2.2s2.2,1,2.2,2.2C68.1,103.2,67.1,104.2,65.9,104.2z
						 M65.9,100.1c-1,0-1.8,0.8-1.8,1.9c0,1,0.8,1.9,1.8,1.9s1.8-0.8,1.8-1.9C67.7,100.9,66.9,100.1,65.9,100.1z"/>
				</g>
				<path class="st2" d="M106,108.5c0,0-0.1,0-0.1-0.1c-0.1-0.1-0.1-0.2,0-0.3l5-5.1c0.1-0.1,0.2-0.1,0.3,0c0.1,0.1,0.1,0.2,0,0.3
					l-5,5.1C106.1,108.5,106.1,108.5,106,108.5z"/>
				<g>
					<ellipse class="st8" cx="112.4" cy="102" rx="2" ry="2.1"/>
					<path class="st9" d="M112.4,104.2c-1.2,0-2.2-1-2.2-2.2c0-1.2,1-2.2,2.2-2.2c1.2,0,2.2,1,2.2,2.2
						C114.6,103.2,113.7,104.2,112.4,104.2z M112.4,100.1c-1,0-1.8,0.8-1.8,1.9c0,1,0.8,1.9,1.8,1.9s1.8-0.8,1.8-1.9
						C114.3,100.9,113.5,100.1,112.4,100.1z"/>
				</g>
				<g>
					<path class="st7" d="M89.2,168.1c-0.1,0-0.2-0.1-0.2-0.2v-7.6c0-0.1,0.1-0.2,0.2-0.2c0.1,0,0.2,0.1,0.2,0.2v7.6
						C89.4,168,89.3,168.1,89.2,168.1z"/>
					<ellipse class="st5" cx="89.2" cy="159.1" rx="1.1" ry="1.1"/>
					<path class="st7" d="M89.2,160.5c-0.7,0-1.3-0.6-1.3-1.3s0.6-1.3,1.3-1.3s1.3,0.6,1.3,1.3S89.9,160.5,89.2,160.5z M89.2,158.2
						c-0.5,0-0.9,0.4-0.9,1c0,0.5,0.4,1,0.9,1s0.9-0.4,0.9-1C90.2,158.6,89.7,158.2,89.2,158.2z"/>
				</g>
				<path class="st7" d="M89.2,155c-0.1,0-0.1,0-0.1-0.1l-17.3-22.5c0-0.1,0-0.1,0-0.2c0-0.1,0.1-0.1,0.2-0.1l17.3,4.3l17.3-4.3
					c0.1,0,0.2,0,0.2,0.1c0,0.1,0,0.1,0,0.2l-17.3,22.5C89.3,155,89.3,155,89.2,155z M72.4,132.7l16.9,21.9l16.9-21.9l-16.8,4.2
					c0,0-0.1,0-0.1,0L72.4,132.7z"/>
				<g>
					<path class="st10" d="M98,111.2c-0.2,0-0.5,0-0.7,0.1l-3.1,8.2c0.4,0.4,0.8,0.8,1.2,1.1c0,0,0.1,0,0.1,0.1c0,0,0.1,0.1,0.1,0.1
						c0.4,0.2,0.9,0.4,1.3,0.5l3.5-9.3C99.8,111.4,98.9,111.2,98,111.2z"/>
				</g>
				<g>
					<path class="st10" d="M101.3,112.4C101.3,112.4,101.3,112.4,101.3,112.4l-3.4,8.8c0.1,0,0.1,0,0.2,0c0.3,0,0.6,0,0.8-0.1l3-8.2
						C101.7,112.8,101.5,112.6,101.3,112.4z"/>
				</g>
				<path class="st10" d="M80.2,111.2l-3.4,8.6c0.2,0.2,0.5,0.4,0.8,0.6l3.3-9.1c-0.1-0.1-0.2-0.1-0.2-0.2
					C80.6,111.2,80.4,111.2,80.2,111.2C80.3,111.2,80.2,111.2,80.2,111.2z"/>
				<path class="st6" d="M98.1,122.6c-3.4,0-6.2-2.9-6.2-6.4s2.8-6.4,6.2-6.4c3.4,0,6.2,2.9,6.2,6.4S101.6,122.6,98.1,122.6z
					 M98.1,110.2c-3.2,0-5.9,2.7-5.9,6c0,3.3,2.6,6,5.9,6c3.2,0,5.9-2.7,5.9-6C104,112.9,101.4,110.2,98.1,110.2z"/>
				<path class="st6" d="M80.3,122.6c-3.4,0-6.2-2.9-6.2-6.4s2.8-6.4,6.2-6.4s6.2,2.9,6.2,6.4S83.7,122.6,80.3,122.6z M80.3,110.2
					c-3.2,0-5.9,2.7-5.9,6c0,3.3,2.6,6,5.9,6s5.9-2.7,5.9-6C86.2,112.9,83.5,110.2,80.3,110.2z"/>
				<path class="st10" d="M82.6,111.7c-0.2-0.1-0.4-0.2-0.7-0.3l-3.6,9.4c0,0,0,0,0,0c0.3,0.1,0.6,0.2,0.9,0.3L82.6,111.7z"/>
				<path class="st0" d="M72.6,155.1l0-3.2l-4.2,0v3.1l-2.6,0v-6.6c0-2.9,1.6-4.5,4.7-4.5c3.2,0,4.8,2.4,4.8,5.3v5.9L72.6,155.1z
					 M72.6,148.9c0-1.5-0.5-2.5-2.1-2.5c-1.5,0-2.1,0.9-2.1,2.4v0.9l4.2,0L72.6,148.9z"/>
				<polygon class="st6" points="68.5,154 65.9,152.7 65.9,155 68.5,155 				"/>
				<path class="st7" d="M75.3,155.3C75.3,155.3,75.3,155.3,75.3,155.3l-2.7,0c-0.1,0-0.2-0.1-0.2-0.2l0-3l-3.8,0v2.9
					c0,0,0,0.1-0.1,0.1c0,0-0.1,0.1-0.1,0.1c0,0,0,0,0,0l-2.6,0c-0.1,0-0.2-0.1-0.2-0.2v-6.6c0-3,1.7-4.7,4.9-4.7
					c1.4,0,2.6,0.4,3.4,1.3c1,1,1.5,2.5,1.5,4.2v5.9c0,0,0,0.1-0.1,0.1C75.4,155.3,75.3,155.3,75.3,155.3z M72.8,154.9l2.3,0v-5.8
					c0-1.7-0.5-3.1-1.4-4c-0.8-0.8-1.9-1.2-3.2-1.2c-3,0-4.5,1.5-4.5,4.3v6.4l2.2,0v-2.9c0,0,0-0.1,0.1-0.1c0,0,0.1-0.1,0.1-0.1h0
					l4.2,0c0.1,0,0.2,0.1,0.2,0.2L72.8,154.9z M72.6,149.8L72.6,149.8l-4.2,0c-0.1,0-0.2-0.1-0.2-0.2v-0.9c0-1.7,0.8-2.5,2.2-2.5
					c0.7,0,1.2,0.2,1.6,0.6c0.4,0.4,0.7,1.2,0.7,2.1l0,0.8c0,0,0,0.1-0.1,0.1C72.7,149.8,72.7,149.8,72.6,149.8z M68.6,149.4l3.8,0
					l0-0.6c0,0,0,0,0,0c0-0.9-0.2-1.5-0.6-1.9c-0.3-0.3-0.8-0.5-1.4-0.5c-1.3,0-1.9,0.7-1.9,2.2V149.4z M72.8,148.9L72.8,148.9
					L72.8,148.9z"/>
			</g>
			<path class="st2" d="M64.7,126c0.7-4.4,2.1-8.6,4.1-12.2c-0.3-0.6-0.8-1-1.3-1.2c-1.8-0.4-3.9,2.2-4.8,5.9
				c-0.9,3.7-0.2,7,1.6,7.4C64.4,126,64.6,126,64.7,126z"/>
			<path class="st2" d="M113.8,126c-0.7-4.4-2.1-8.6-4.1-12.2c0.3-0.6,0.8-1,1.3-1.2c1.8-0.4,3.9,2.2,4.8,5.9c0.9,3.7,0.2,7-1.6,7.4
				C114.1,126,113.9,126,113.8,126z"/>
			<path class="st2" d="M82,130.7C82,130.7,82,130.7,82,130.7c-15.5-2.1-17.9-7.1-17.9-7.3c0-0.1,0-0.2,0.1-0.2c0.1,0,0.2,0,0.2,0.1
				c0,0.1,2.5,5.1,17.6,7.1c0.1,0,0.2,0.1,0.2,0.2C82.2,130.7,82.1,130.7,82,130.7z"/>
			<ellipse transform="matrix(0.1178 -0.993 0.993 0.1178 -56.8244 197.1663)" class="st2" cx="82.6" cy="130.6" rx="1.3" ry="3"/>
		</g>
		<path class="st6" d="M143.3,162.9c-0.1,0-0.2-0.1-0.2-0.2V96.6c0-1.5-1.2-2.8-2.6-2.8H38.3c-1.4,0-2.6,1.2-2.6,2.8v66.1
			c0,0.1-0.1,0.2-0.2,0.2c-0.1,0-0.2-0.1-0.2-0.2V96.6c0-1.7,1.3-3.1,3-3.1h102.2c1.6,0,3,1.4,3,3.1v66.1
			C143.5,162.8,143.4,162.9,143.3,162.9z"/>
		<g>
			<path class="st6" d="M48,97.3c-0.5,0-1-0.4-1-1c0-0.5,0.4-1,1-1s1,0.4,1,1C49,96.9,48.5,97.3,48,97.3z M48,95.7
				c-0.3,0-0.6,0.3-0.6,0.6c0,0.3,0.3,0.6,0.6,0.6s0.6-0.3,0.6-0.6C48.6,96,48.3,95.7,48,95.7z"/>
			<path class="st6" d="M43.5,97.3c-0.5,0-1-0.4-1-1c0-0.5,0.4-1,1-1s1,0.4,1,1C44.5,96.9,44.1,97.3,43.5,97.3z M43.5,95.7
				c-0.3,0-0.6,0.3-0.6,0.6c0,0.3,0.3,0.6,0.6,0.6c0.3,0,0.6-0.3,0.6-0.6C44.1,96,43.9,95.7,43.5,95.7z"/>
			<path class="st6" d="M39,97.3c-0.5,0-1-0.4-1-1c0-0.5,0.4-1,1-1s1,0.4,1,1C40,96.9,39.6,97.3,39,97.3z M39,95.7
				c-0.3,0-0.6,0.3-0.6,0.6c0,0.3,0.3,0.6,0.6,0.6c0.3,0,0.6-0.3,0.6-0.6C39.7,96,39.4,95.7,39,95.7z"/>
		</g>
		<g class="st11">
			<polygon class="st12" points="88.1,91 63.4,91 145.6,162.7 145.6,141.2 			"/>
			<polygon class="st12" points="145.6,123.8 145.6,91 107.9,91 			"/>
		</g>
		<ellipse class="st13" cx="88.8" cy="87.8" rx="0.8" ry="0.9"/>
		<ellipse class="st13" cx="91" cy="87.8" rx="0.3" ry="0.3"/>
		<path class="st6" d="M71.1,168.5c0.9,1.1,2.1,2,3.5,2h30c1.4,0,2.7-0.9,3.5-2H71.1z"/>
		<path class="st13" d="M146.3,84.6H32.9c-3,0-5.1,2.3-5.1,5.5v78.4h123.8V90.2C151.6,87,149.2,84.6,146.3,84.6z M145.6,162.7H32.8
			V91h112.7V162.7z"/>
	</g>
	<polyline class="st1" points="0.3,186.4 0.3,174 168.5,174 168.5,187.4 	"/>
	<path class="st14" d="M168.5,187.6c-0.1,0-0.2-0.1-0.2-0.2v-13.2H0.5v12.2c0,0.1-0.1,0.2-0.2,0.2s-0.2-0.1-0.2-0.2V174
		c0-0.1,0.1-0.2,0.2-0.2h168.2c0.1,0,0.2,0.1,0.2,0.2v13.4C168.7,187.5,168.6,187.6,168.5,187.6z"/>
	<polyline class="st13" points="0.3,174 168.5,174 168.5,187.4 	"/>
	<g>
		<g>
			<polyline class="st1" points="132.8,120.7 119.6,217.6 135.4,223.6 138,186.2 139.1,177.6 			"/>
			<g>
				<path class="st0" d="M135.5,222.2c0.8,0.4,1.5,0.9,2.2,1.6l-2.3-0.2L135.5,222.2z"/>
				<path class="st0" d="M132.5,208l2.5-21.5l1.5-12l-6.2-37.6l2.4-16.2l9.2,54.8l-4,10.7l-1,23.5C136,209.3,132.5,208,132.5,208z"
					/>
			</g>
			<g>
				<path class="st3" d="M123.1,194.8c-0.2,0-0.3-0.1-0.4-0.3c0-0.2,0.1-0.4,0.3-0.4l14.1-2c0.2,0,0.4,0.1,0.4,0.3
					c0,0.2-0.1,0.4-0.3,0.4L123.1,194.8C123.1,194.8,123.1,194.8,123.1,194.8z"/>
				<path class="st3" d="M120.1,217.6c-0.1,0-0.2-0.1-0.3-0.1c-0.1-0.2-0.1-0.4,0.1-0.5l16.3-11.8c0.2-0.1,0.4-0.1,0.5,0.1
					c0.1,0.2,0.1,0.4-0.1,0.5l-16.3,11.8C120.2,217.6,120.1,217.6,120.1,217.6z"/>
				<path class="st3" d="M138.7,178.6C138.7,178.6,138.6,178.6,138.7,178.6l-13.2-2.3c-0.2,0-0.3-0.2-0.3-0.4c0-0.2,0.2-0.3,0.4-0.3
					l13.1,2.3c0.2,0,0.3,0.2,0.3,0.4C139,178.5,138.9,178.6,138.7,178.6z"/>
				<path class="st3" d="M137.4,165c-0.1,0-0.2,0-0.2-0.1l-6.9-6.6c-0.1-0.1-0.1-0.4,0-0.5c0.1-0.1,0.4-0.1,0.5,0l6.9,6.6
					c0.1,0.1,0.1,0.4,0,0.5C137.6,165,137.5,165,137.4,165z"/>
			</g>
			<path class="st2" d="M135.4,223.8C135.4,223.8,135.4,223.8,135.4,223.8l-15.9-6c-0.1,0-0.1-0.1-0.1-0.2l13.2-96.9
				c0-0.1,0.1-0.2,0.2-0.2c0.1,0,0.2,0.1,0.2,0.2l-13.2,96.8l15.5,5.9l2.6-37.1c0,0,0,0,0,0l3.3-10.2c0-0.1,0.1-0.1,0.2-0.1
				c0.1,0,0.1,0.1,0.1,0.2l-3.3,10.2l-2.6,37.3C135.6,223.7,135.5,223.7,135.4,223.8C135.5,223.8,135.4,223.8,135.4,223.8z"/>
		</g>
		<g>
			<polyline class="st1" points="220.3,120.7 231.7,196.8 233.5,217.6 217.7,223.6 215.1,186.2 214,177.6 			"/>
			<g>
				<path class="st0" d="M217.6,222.2c-0.8,0.4-1.5,0.9-2.2,1.6l2.3-0.2L217.6,222.2z"/>
				<path class="st0" d="M222,222.4l-2.6-36.2l-1.2-9.2l4.5-40.1l-2.4-16.2L209,177.1l6.2,9.1l2.5,36c1-0.5,2.1-0.8,3.2-0.8
					L222,222.4z"/>
			</g>
			<g>
				<path class="st3" d="M215.9,192.8c-0.2,0-0.3-0.1-0.4-0.3c0-0.2,0.1-0.4,0.3-0.4l14.4-2.2c0.2,0,0.4,0.1,0.4,0.3
					c0,0.2-0.1,0.4-0.3,0.4L215.9,192.8C215.9,192.8,215.9,192.8,215.9,192.8z"/>
				<path class="st3" d="M216.8,205.8c-0.2,0-0.3-0.1-0.4-0.3c0-0.2,0.1-0.4,0.3-0.4l15.5-2.4c0.2,0,0.4,0.1,0.4,0.3
					c0,0.2-0.1,0.4-0.3,0.4L216.8,205.8C216.8,205.8,216.8,205.8,216.8,205.8z"/>
				<path class="st3" d="M214.4,178.6c-0.2,0-0.3-0.1-0.4-0.3c0-0.2,0.1-0.4,0.3-0.4l13.8-2.4c0.2,0,0.4,0.1,0.4,0.3
					c0,0.2-0.1,0.4-0.3,0.4L214.4,178.6C214.5,178.6,214.4,178.6,214.4,178.6z"/>
				<path class="st3" d="M215.7,165c-0.1,0-0.2,0-0.3-0.1c-0.1-0.1-0.1-0.4,0-0.5l6.9-6.6c0.1-0.1,0.4-0.1,0.5,0
					c0.1,0.1,0.1,0.4,0,0.5l-6.9,6.6C215.9,165,215.8,165,215.7,165z"/>
			</g>
			<path class="st2" d="M217.7,223.8C217.7,223.8,217.6,223.8,217.7,223.8c-0.1-0.1-0.2-0.1-0.2-0.2l-2.6-37.3l-1.1-8.6
				c0-0.1,0.1-0.2,0.2-0.2c0.1,0,0.2,0.1,0.2,0.2l1.1,8.6l2.6,37.1l15.5-5.9l-1.8-20.7l-11.4-76.1c0-0.1,0.1-0.2,0.2-0.2
				c0.1,0,0.2,0.1,0.2,0.2l11.4,76.1l1.8,20.8c0,0.1,0,0.2-0.1,0.2L217.7,223.8C217.7,223.8,217.7,223.8,217.7,223.8z"/>
		</g>
		<g>
			<g>
				<path class="st4" d="M174.1,120.9c-0.9-0.6-1.8-1.1-2.9-1.6c-4.7-2.1-9.3-1.9-10.3,0.4c-0.2,0.6-0.3,1.2-0.1,1.8
					c0.6,2.2,0.7,4.5,0,6.6c-0.3,0.8-0.3,1.5,0,2.2c1,2.3,5.7,2.5,10.3,0.4c1.1-0.5,2-1,2.9-1.6c1.9-0.1,3.4-0.7,3.9-1.8
					c0.3-0.7,0.3-1.6-0.1-2.4c0.2-0.7,0.3-1.4,0-2.1C177.2,121.6,175.9,121,174.1,120.9z"/>
				<path class="st4" d="M179,120.1c0.9-0.6,1.8-1.1,2.9-1.6c4.7-2.1,9.3-1.9,10.3,0.4c0.2,0.6,0.3,1.2,0.1,1.8
					c-0.6,2.2-0.7,4.5,0,6.6c0.3,0.8,0.3,1.5,0,2.2c-1,2.3-5.7,2.5-10.3,0.4c-1.1-0.5-2-1-2.9-1.6c-1.9-0.1-3.4-0.7-3.9-1.8
					c-0.3-0.7-0.3-1.6,0.1-2.4c-0.2-0.7-0.3-1.4,0-2.1C175.9,120.9,177.2,120.3,179,120.1z"/>
			</g>
			<g>
				<path class="st7" d="M164.9,132.3c-0.1,0-0.3,0-0.4,0c-2-0.1-3.4-0.8-4-2c-0.3-0.7-0.3-1.4,0-2.3c0.7-1.9,0.7-4.1,0-6.5
					c-0.2-0.7-0.2-1.4,0.1-2c1.1-2.4,5.8-2.6,10.6-0.5c1,0.5,2,1,2.9,1.6c1.9,0.1,3.2,0.8,3.7,1.9c0.3,0.6,0.3,1.3,0,2.1
					c0.4,0.9,0.4,1.8,0.1,2.5c-0.5,1.2-1.9,1.9-4,2c-0.9,0.6-1.8,1.1-2.9,1.6C169,131.8,166.8,132.3,164.9,132.3z M165,118
					c-2,0-3.5,0.6-4,1.8c-0.2,0.5-0.2,1.1-0.1,1.7c0.7,2.5,0.7,4.8,0,6.7c-0.3,0.8-0.3,1.4,0,2c0.5,1.1,1.8,1.7,3.6,1.7
					c1.9,0.1,4.2-0.4,6.5-1.4c1-0.5,2-1,2.8-1.6c0,0,0.1,0,0.1,0c1.9-0.1,3.2-0.7,3.7-1.7c0.3-0.6,0.2-1.4-0.1-2.3c0,0,0-0.1,0-0.1
					c0.2-0.7,0.2-1.4,0-1.9c-0.4-1-1.7-1.6-3.4-1.7c0,0-0.1,0-0.1,0c-0.9-0.6-1.8-1.1-2.9-1.6C169,118.5,166.8,118,165,118z"/>
				<path class="st7" d="M188.2,131.6c-1.8,0-4-0.5-6.2-1.5c-1-0.5-2-1-2.9-1.6c-2-0.1-3.5-0.8-4-2c-0.3-0.7-0.3-1.6,0.1-2.5
					c-0.3-0.8-0.2-1.5,0-2.1c0.5-1.1,1.8-1.8,3.7-1.9c0.9-0.6,1.9-1.1,2.9-1.6c2.3-1,4.6-1.5,6.6-1.5c2,0.1,3.4,0.8,4,2
					c0.3,0.6,0.3,1.2,0.1,2c-0.7,2.4-0.6,4.6,0,6.5c0.3,0.8,0.3,1.6,0,2.3C191.9,130.9,190.3,131.6,188.2,131.6z M188,117.2
					c-1.8,0-4,0.5-6.1,1.4c-1,0.5-2,1-2.9,1.6c0,0-0.1,0-0.1,0c-1.8,0.1-3,0.7-3.4,1.7c-0.2,0.6-0.3,1.2,0,1.9c0,0,0,0.1,0,0.1
					c-0.4,0.9-0.4,1.7-0.1,2.3c0.5,1.1,1.8,1.7,3.7,1.7c0,0,0.1,0,0.1,0c0.9,0.6,1.8,1.1,2.8,1.6c4.6,2,9.1,1.9,10.1-0.3
					c0.3-0.6,0.3-1.3,0-2c-0.7-2-0.7-4.2,0-6.7c0.2-0.6,0.1-1.2-0.1-1.7c-0.5-1.1-1.8-1.7-3.6-1.7
					C188.3,117.2,188.2,117.2,188,117.2z M179,120.1L179,120.1L179,120.1z"/>
				
					<ellipse transform="matrix(0.7071 -0.7071 0.7071 0.7071 -36.162 161.7961)" class="st4" cx="177.2" cy="124.5" rx="4.5" ry="4.5"/>
				<path class="st7" d="M177.2,129.3c-1.3,0-2.4-0.5-3.3-1.4c-0.9-0.9-1.4-2.1-1.4-3.3s0.5-2.4,1.4-3.3s2.1-1.4,3.3-1.4
					c1.3,0,2.4,0.5,3.3,1.4c1.8,1.8,1.8,4.8,0,6.7C179.7,128.8,178.5,129.3,177.2,129.3z M177.2,120.2c-1.2,0-2.3,0.5-3.1,1.3
					c-0.8,0.8-1.3,1.9-1.3,3.1s0.5,2.3,1.3,3.1c0.8,0.8,1.9,1.3,3.1,1.3c1.2,0,2.3-0.5,3.1-1.3c1.7-1.7,1.7-4.5,0-6.2
					C179.5,120.6,178.4,120.2,177.2,120.2z"/>
			</g>
			<path class="st1" d="M188.3,108.8h-23.6c-4.4,0-8-3.6-8-8V23.9c0-4.4,3.6-8,8-8h23.6c4.4,0,8,3.6,8,8v76.9
				C196.4,105.2,192.8,108.8,188.3,108.8z"/>
			<path class="st1" d="M188.3,108.8h-23.6c-4.4,0-8-3.6-8-8V23.9c0-4.4,3.6-8,8-8h23.6c4.4,0,8,3.6,8,8v76.9
				C196.4,105.2,192.8,108.8,188.3,108.8z"/>
			<path class="st0" d="M156.7,23.9v76.9c0,4.4,3.6,8,8.1,8h23.7c4.4,0,8.1-3.6,8.1-8V23.9c0-4.4-3.6-8-8.1-8h-23.7
				C160.3,15.9,156.7,19.5,156.7,23.9z M158.7,27.9c0-4,3.2-7.2,7.2-7.2h21.2c4,0,7.2,3.2,7.2,7.2c0,0-35.7,72.9-35.7,68.9V27.9z"/>
			<path class="st0" d="M196.2,37l0.1-13.1c0-4.4-3.6-8-8-8h-23.6c-4.4,0-8,3.6-8,8V37h-0.1v37.6h0c0,0,0,0,0,0
				c13.5,4.5,26.7,4.6,39.6,0l0.1-37.6H196.2z"/>
			<path class="st6" d="M196.3,23.9c0-4.4-3.6-8-8-8h-23.6c-0.7,0-1.3,0.1-1.9,0.2c-3.5,0.9-6.1,4-6.1,7.8V37h0v37.6
				c0.7,0.2,1.4,0.4,2.1,0.6V27.9c0-4,3.2-7.2,7.2-7.2h21.2c4,0,7.2,3.2,7.2,7.2c0,0-14.3,29.2-24.8,49.6c9,1.1,17.9,0.1,26.6-2.9
				l0.1-37.6h-0.2L196.3,23.9z"/>
			<path class="st2" d="M188.3,109h-23.6c-4.5,0-8.2-3.7-8.2-8.2V23.9c0-4.5,3.7-8.2,8.2-8.2h23.6c4.5,0,8.2,3.7,8.2,8.2v76.9
				C196.5,105.3,192.8,109,188.3,109z M164.7,16.1c-4.3,0-7.8,3.5-7.8,7.8v76.9c0,4.3,3.5,7.8,7.8,7.8h23.6c4.3,0,7.8-3.5,7.8-7.8
				V23.9c0-4.3-3.5-7.8-7.8-7.8H164.7z"/>
			<path class="st2" d="M176.7,78.1c-6.6,0-13.4-1.1-20.2-3.4c-0.1,0-0.1-0.1-0.1-0.2c0-0.1,0.1-0.1,0.2-0.1
				c13.5,4.5,26.8,4.5,39.5,0c0.1,0,0.2,0,0.2,0.1c0,0.1,0,0.2-0.1,0.2C189.9,77,183.4,78.1,176.7,78.1z"/>
			<rect x="176.2" y="7.7" width="0.4" height="8.3"/>
			<g>
				<circle class="st8" cx="176.4" cy="4" r="3.7"/>
				<path class="st9" d="M176.4,7.8c-2.1,0-3.9-1.7-3.9-3.9s1.7-3.9,3.9-3.9s3.9,1.7,3.9,3.9S178.5,7.8,176.4,7.8z M176.4,0.5
					c-1.9,0-3.5,1.6-3.5,3.5c0,1.9,1.6,3.5,3.5,3.5s3.5-1.6,3.5-3.5C179.9,2,178.3,0.5,176.4,0.5z"/>
			</g>
			<rect x="169.4" y="108.8" class="st1" width="14.3" height="11.9"/>
			<path class="st0" d="M183.8,114.8c-2.8,3.2-9.5,4-14.4,0.4l0-6.3h14.3L183.8,114.8z"/>
			<path class="st3" d="M182.9,115.1h-13c-0.2,0-0.4-0.2-0.4-0.4c0-0.2,0.2-0.4,0.4-0.4h13c0.2,0,0.4,0.2,0.4,0.4
				C183.3,114.9,183.1,115.1,182.9,115.1z"/>
			<path class="st2" d="M183.7,120.9h-14.3c-0.1,0-0.2-0.1-0.2-0.2v-11.9c0-0.1,0.1-0.2,0.2-0.2h14.3c0.1,0,0.2,0.1,0.2,0.2v11.9
				C183.9,120.8,183.8,120.9,183.7,120.9z M169.6,120.5h13.9V109h-13.9V120.5z"/>
			<polygon class="st15" points="201.9,120.7 189.9,120.7 183.7,115.3 183.7,115.3 169.4,115.3 169.4,115.3 163.2,120.7 
				150.9,120.7 132.8,120.7 147.3,208.8 209.3,219.5 220.1,120.7 			"/>
			<polygon class="st16" points="189.8,120.8 183.6,115.5 169.4,115.5 163.3,120.8 163,120.6 169.3,115.1 183.8,115.1 190,120.6 			
				"/>
			<path class="st17" d="M132.8,120.7l16.1,98.8c26.3,3.5,53.1,7.2,60.4,0l8.6-78.8C205.6,176.9,136,130.5,132.8,120.7z"/>
			<polygon class="st16" points="143.8,188.8 132.6,120.5 163.5,120.5 163.5,120.9 133,120.9 144.2,188.7 			"/>
			<polygon class="st16" points="213,187.3 212.6,187.2 219.9,120.9 189.7,120.9 189.7,120.5 220.3,120.5 			"/>
			
				<rect x="147.6" y="205.5" transform="matrix(0.9887 -0.1498 0.1498 0.9887 -30.1719 24.5398)" class="st16" width="0.4" height="14"/>
			
				<rect x="202.2" y="211.4" transform="matrix(0.1094 -0.994 0.994 0.1094 -23.2009 397.3565)" class="st16" width="15.8" height="0.4"/>
			<path class="st16" d="M176.6,122.2C176.6,122.2,176.6,122.2,176.6,122.2c-6,0-13.6-0.7-13.6-1.5h0.4c0,0,0-0.1,0-0.1
				c0.4,0.4,5.9,1.2,13.2,1.2c0,0,0,0,0,0c7.3,0,12.8-0.8,13.2-1.2c0,0,0,0,0,0.1h0.4c0,0.2,0,0.5-4.1,1
				C184.4,121.9,181,122.2,176.6,122.2z"/>
		</g>
	</g>
	<g>
		<path class="st13" d="M233.9,227.7H135v-71.9c0-11.2,9.1-20.3,20.3-20.3h58.3c11.2,0,20.3,9.1,20.3,20.3V227.7z"/>
		<path class="st14" d="M233.9,227.9c-0.1,0-0.2-0.1-0.2-0.2v-71.9c0-11.1-9-20.1-20.1-20.1h-58.3c-11.1,0-20.1,9-20.1,20.1v71.9
			c0,0.1-0.1,0.2-0.2,0.2c-0.1,0-0.2-0.1-0.2-0.2v-71.9c0-11.3,9.2-20.5,20.5-20.5h58.3c11.3,0,20.5,9.2,20.5,20.5v71.9
			C234.1,227.8,234,227.9,233.9,227.9z"/>
		<path class="st0" d="M233.9,227.7v-71.9c0-2.6-0.5-5.2-1.4-7.5c-22.3,39.4-52.4,63-94.5,79.4H233.9z"/>
	</g>
</g>
<title>albert-illustration-webinar</title>
</svg>
