<?xml version="1.0" encoding="UTF-8"?>
<svg width="137px" height="134px" viewBox="0 0 137 134" version="1.1" xmlns="http://www.w3.org/2000/svg" xmlns:xlink="http://www.w3.org/1999/xlink">
    <!-- Generator: Sketch 52.1 (67048) - http://www.bohemiancoding.com/sketch -->
    <title>ernest_hemingway</title>
    <desc>Created with Sketch.</desc>
    <g id="ernest_hemingway" stroke="none" stroke-width="1" fill="none" fill-rule="evenodd">
        <g id="Group" transform="translate(10.000000, 0.000000)" fill="#FFFFFF">
            <path d="M84.8845333,50.9915405 C84.7014764,56.5703402 83.7929248,66.6740174 82.1588785,81.3025721 C82.0485981,81.5222442 75.4317757,103.818966 78.5196262,115.13208 C80.1738318,121.2829 80.9457944,124.35831 81.3869159,125.896015 C81.6074766,126.664867 81.3869159,127.323884 80.9457944,127.9829 C80.3943925,128.422244 79.7327103,128.861588 78.9607477,128.861588 L66.6093458,128.861588 C65.8373832,128.861588 65.1757009,128.53208 64.6242991,127.873064 C64.1831776,127.323884 63.9626168,126.555031 64.1831776,125.786179 C66.0579439,119.086179 66.9401869,114.03372 66.6093458,112.166506 C66.2078019,109.900259 65.3595149,102.901432 64.7299302,97.6012977 C66.3186497,87.0326039 68.3812265,74.8298499 69.4766355,68.647541 C71.1308411,59.3114754 70.9470405,57.6639344 72.7850467,49.4262295 C73.3781755,46.7679036 75.0814473,44.1667675 76.8757151,41.4567237 C77.8583459,43.4424229 79.2388946,45.4413926 81.139221,47.5143171 L81.2495013,47.6241531 C82.3126247,48.8075628 83.5175988,50.0969318 84.8845333,50.9915405 Z M74.3554302,124.952189 L74.0261799,127.892072 L76.2181126,128.137556 L76.5748557,124.952189 L79.7327103,124.952189 L79.7327103,122.755468 L65.2028351,122.755468 L65.2028351,124.952189 L68.6073542,124.952189 L68.9731084,128.460185 L71.1579674,128.232385 L70.8159643,124.952189 L74.3554302,124.952189 Z" id="Combined-Shape" fill-rule="nonzero" opacity="0.5"></path>
            <path d="M40.8812488,40.846403 C40.9719959,40.7888657 41.0626825,40.7326503 41.1532548,40.6778796 C43.1275781,43.6709205 45.1093946,46.5142631 45.7591159,49.4262295 C47.5971221,57.6639344 47.4133215,59.3114754 49.0675271,68.647541 C50.2361858,75.2432592 52.5056855,88.6915142 54.1261582,99.6972759 C53.5376035,104.608565 52.847112,110.189093 52.4967451,112.166506 C52.165904,114.03372 53.0481469,119.086179 54.9229133,125.786179 C55.1434741,126.555031 54.9229133,127.323884 54.4817918,127.873064 C53.9303899,128.53208 53.2687077,128.861588 52.4967451,128.861588 L40.1453432,128.861588 C39.3733806,128.861588 38.7116984,128.422244 38.1602965,127.9829 C37.719175,127.323884 37.4986142,126.664867 37.719175,125.896015 C38.1602965,124.35831 38.9322591,121.2829 40.5864647,115.13208 C43.6743152,103.818966 37.0574927,81.5222442 36.9472124,81.3025721 C35.1750537,65.4375867 34.2562127,54.8947051 34.1906894,49.6739273 C34.932457,48.9806718 35.6191619,48.2222176 36.2551088,47.5143171 L36.3653892,47.404481 C38.4344013,45.1475499 39.8872622,43.0659526 40.8812488,40.846403 Z M42.5312351,124.952189 L42.8879783,128.137556 L45.079911,127.892072 L44.7506607,124.952189 L48.2901265,124.952189 L47.9481234,128.232385 L50.1329825,128.460185 L50.4987367,124.952189 L53.9032558,124.952189 L53.9032558,122.755468 L39.3733806,122.755468 L39.3733806,124.952189 L42.5312351,124.952189 Z" id="Combined-Shape" fill-rule="nonzero" opacity="0.5"></path>
            <path d="M50.225271,10.4887524 C46.4535842,12.1124102 42.2361185,15.2740409 38.5908916,21.4180328 C34.0077364,29.1428931 37.4642233,35.0717345 41.0336991,40.4964197 C40.0377831,42.8483515 38.5427832,45.0293242 36.3653892,47.404481 L36.2551088,47.5143171 C34.3803425,49.6012023 32.0644546,52.1274318 29.1971649,52.1274318 C28.0943611,52.1274318 26.7709967,51.6880876 25.4476322,50.809399 C22.0289406,48.3930056 19.0513705,45.3175958 16.0738004,42.2421859 C15.5223985,41.6930056 14.8607163,41.0339892 14.3093144,40.4848089 C11.1111836,37.1897269 7.80277236,33.5651368 3.8326789,28.952022 C0.965389182,25.547104 -0.357975304,22.252022 0.0831461917,19.2864482 C0.524267687,16.7602187 2.06819292,14.6733335 4.82520227,13.0257925 L17.9485668,5.11759577 C18.3896882,4.89792364 18.7205294,4.67825151 19.1616509,4.34874331 C22.139221,2.4815302 25.5579125,0.39464495 29.1971649,0.0651367529 C33.8289406,-0.374207509 38.5709967,1.49300561 42.6513705,3.14054659 C43.2027724,3.36021872 43.6438939,3.57989085 44.1952957,3.68972692 C46.9523051,4.78808757 48.7167911,6.32579249 49.599034,8.19300561 C49.7093144,8.41267774 49.8195948,8.74218593 49.9298752,9.07169413 C50.0685903,9.55063586 50.1654299,10.0233988 50.225271,10.4887524 Z M2.28875367,24.3389072 C2.39903404,24.3389072 5.81772563,22.1421859 12.1037069,22.1421859 L12.1037069,19.9454646 C5.04576301,19.9454646 1.18594993,22.3618581 1.07566956,22.4716941 L2.28875367,24.3389072 Z M5.70744526,30.0503827 C16.4046415,26.9749728 16.5149219,25.4372679 16.5149219,24.8880876 L14.3093144,24.6684154 C14.3093144,24.4487433 14.4195948,24.3389072 14.4195948,24.3389072 C13.8681929,24.9979236 9.12613685,26.7553007 5.04576301,27.9634974 L5.70744526,30.0503827 Z M12.3242677,36.7503827 C14.3093144,34.9930056 20.5952957,29.2815302 20.8158565,28.952022 L19.2719312,27.4143171 C19.0513705,27.7438253 14.0887537,32.1372679 10.8906228,35.1028417 L12.3242677,36.7503827 Z M19.2719312,43.3405466 C21.8083798,37.7389072 25.1167911,32.6864482 26.3298752,32.6864482 L26.1093144,30.4897269 C22.9111836,30.709399 18.4999686,39.7159564 17.2868845,42.4618581 L19.2719312,43.3405466 Z M23.6831462,48.0634974 C24.1242677,47.6241531 28.7560434,43.1208745 28.7560434,39.7159564 L26.5504359,39.7159564 C26.5504359,41.5831695 23.7934266,44.8782515 22.139221,46.5257925 L23.6831462,48.0634974 Z M31.292492,51.2487433 C32.6158565,48.2831695 35.5934266,41.2536613 35.3728658,39.4962843 L33.1672583,39.8257925 C33.1672583,40.8143171 31.1822116,46.0864482 29.3074453,50.3700548 L31.292492,51.2487433 Z" id="Combined-Shape" fill-rule="nonzero" opacity="0.75"></path>
            <path d="M2.28875367,24.3389072 L1.07566956,22.4716941 C1.18594993,22.3618581 5.04576301,19.9454646 12.1037069,19.9454646 L12.1037069,22.1421859 C5.81772563,22.1421859 2.39903404,24.3389072 2.28875367,24.3389072 Z M5.70744526,30.0503827 L5.04576301,27.9634974 C9.12613685,26.7553007 13.8681929,24.9979236 14.4195948,24.3389072 C14.4195948,24.3389072 14.3093144,24.4487433 14.3093144,24.6684154 L16.5149219,24.8880876 C16.5149219,25.4372679 16.4046415,26.9749728 5.70744526,30.0503827 Z M12.3242677,36.7503827 L10.8906228,35.1028417 C14.0887537,32.1372679 19.0513705,27.7438253 19.2719312,27.4143171 L20.8158565,28.952022 C20.5952957,29.2815302 14.3093144,34.9930056 12.3242677,36.7503827 Z M19.2719312,43.3405466 L17.2868845,42.4618581 C18.4999686,39.7159564 22.9111836,30.709399 26.1093144,30.4897269 L26.3298752,32.6864482 C25.1167911,32.6864482 21.8083798,37.7389072 19.2719312,43.3405466 Z M23.6831462,48.0634974 L22.139221,46.5257925 C23.7934266,44.8782515 26.5504359,41.5831695 26.5504359,39.7159564 L28.7560434,39.7159564 C28.7560434,43.1208745 24.1242677,47.6241531 23.6831462,48.0634974 Z M31.292492,51.2487433 L29.3074453,50.3700548 C31.1822116,46.0864482 33.1672583,40.8143171 33.1672583,39.8257925 L35.3728658,39.4962843 C35.5934266,41.2536613 32.6158565,48.2831695 31.292492,51.2487433 Z" id="Combined-Shape" fill-rule="nonzero" opacity="0.5"></path>
            <path d="M67.356731,10.1032016 C67.4127452,9.79878739 67.4849727,9.49145244 67.574735,9.1815302 C67.6850154,8.852022 67.7952957,8.63234987 67.9055761,8.30284167 C68.6775387,6.32579249 70.5523051,4.78808757 73.3093144,3.79956298 C73.8607163,3.57989085 74.3018378,3.36021872 74.8532396,3.25038265 C78.9336135,1.60284167 83.6756696,-0.264371444 88.3074453,0.174972818 C91.9466976,0.504481015 95.3653892,2.59136626 98.3429593,4.45857938 C98.7840808,4.67825151 99.1149219,4.89792364 99.5560434,5.22743183 L112.679408,13.1356286 C115.436417,14.7831695 117.090623,16.9798909 117.421464,19.3962843 C117.862585,22.3618581 116.649501,25.65694 113.671931,29.0618581 C109.701838,33.6749728 106.393427,37.299563 103.195296,40.5946449 C102.643894,41.1438253 102.092492,41.8028417 101.43081,42.352022 C98.56352,45.3175958 95.5859499,48.3930056 92.056978,50.9192351 C90.7336135,51.6880876 89.5205294,52.1274318 88.3074453,52.1274318 C87.1983778,52.1274318 86.1718079,51.7659051 85.2213535,51.201759 L87.2046415,50.3700548 C85.3298752,46.0864482 83.2345481,40.8143171 83.3448284,39.8257925 L81.139221,39.4962843 C80.8141295,41.1151928 83.6834553,48.0366801 85.0388457,51.0903969 C83.6080824,50.1936884 82.3524528,48.8518972 81.2495013,47.6241531 L81.139221,47.5143171 C79.2388946,45.4413926 77.8583459,43.4424229 76.8757151,41.4567237 C80.6415813,35.7687974 84.8082932,29.601122 79.953271,21.4180328 C75.9946851,14.7458776 71.3612476,11.5908753 67.356731,10.1032016 Z M111.576604,30.0503827 L112.238286,27.9634974 C107.827071,26.8651368 102.643894,25.1077597 101.982212,24.3389072 C101.982212,24.3389072 102.092492,24.4487433 102.092492,24.6684154 L99.8868845,24.8880876 C99.8868845,25.547104 100.107445,26.9749728 111.576604,30.0503827 Z M104.187819,36.7503827 L105.621464,35.1028417 C102.423333,32.1372679 97.5709967,27.7438253 97.2401555,27.4143171 L95.6962303,28.952022 C95.9167911,29.2815302 102.313053,34.9930056 104.187819,36.7503827 Z M97.2401555,43.3405466 L99.2252023,42.352022 C98.0121182,39.6061204 93.7111836,30.709399 90.4027724,30.3798909 L90.1822116,32.5766122 C91.3952957,32.6864482 94.7037069,37.7389072 97.2401555,43.3405466 Z M92.8289406,48.0634974 L94.3728658,46.4159564 C92.6083798,44.7684154 89.9616509,41.4733335 89.9616509,39.6061204 L87.7560434,39.6061204 C87.7560434,43.1208745 92.2775387,47.5143171 92.8289406,48.0634974 Z" id="Combined-Shape" fill-rule="nonzero" opacity="0.75"></path>
            <path d="M111.576604,30.0503827 C100.107445,26.9749728 99.8868845,25.547104 99.8868845,24.8880876 L102.092492,24.6684154 C102.092492,24.4487433 101.982212,24.3389072 101.982212,24.3389072 C102.643894,25.1077597 107.827071,26.8651368 112.238286,27.9634974 L111.576604,30.0503827 Z M104.187819,36.7503827 C102.313053,34.9930056 95.9167911,29.2815302 95.6962303,28.952022 L97.2401555,27.4143171 C97.5709967,27.7438253 102.423333,32.1372679 105.621464,35.1028417 L104.187819,36.7503827 Z M97.2401555,43.3405466 C94.7037069,37.7389072 91.3952957,32.6864482 90.1822116,32.5766122 L90.4027724,30.3798909 C93.7111836,30.709399 98.0121182,39.6061204 99.2252023,42.352022 L97.2401555,43.3405466 Z M92.8289406,48.0634974 C92.2775387,47.5143171 87.7560434,43.1208745 87.7560434,39.6061204 L89.9616509,39.6061204 C89.9616509,41.4733335 92.6083798,44.7684154 94.3728658,46.4159564 L92.8289406,48.0634974 Z M85.1093144,51.2487433 C83.7859499,48.2831695 80.8083798,41.1438253 81.139221,39.4962843 L83.3448284,39.8257925 C83.2345481,40.8143171 85.3298752,46.0864482 87.2046415,50.3700548 L85.1093144,51.2487433 Z" id="Combined-Shape" fill-rule="nonzero" opacity="0.5"></path>
            <path d="M74.9906542,88.5278689 C74.7700935,88.5278689 74.4392523,88.5278689 74.1084112,88.5278689 L72.2336449,88.3081967 L73.3364486,86.7704918 C73.446729,86.6606557 80.3943925,77.3245902 78.188785,70.0754098 C77.1962617,67 74.1084112,64.5836066 70.0280374,63.1557377 L71.682243,53.8196721 C76.8654206,55.357377 82.0485981,58.8721311 84.364486,63.0459016 C86.6803738,67.2196721 86.9009346,72.6016393 85.0261682,77.9836066 C82.4897196,84.9032787 79.071028,88.5278689 74.9906542,88.5278689 Z" id="Shape" fill-rule="nonzero" opacity="0.899999976"></path>
            <path d="M43.7541742,87.9339892 C39.56352,87.9339892 36.1448284,84.309399 33.8289406,77.3897269 C31.9541742,72.0077597 32.174735,66.5159564 34.4906228,62.452022 C36.8065107,58.2782515 41.2177256,54.7634974 46.5111836,53.2257925 L48.2756696,62.6716941 C44.1952957,64.099563 41.5485668,66.4061204 40.6663238,69.4815302 C38.4607163,76.6208745 45.4083798,86.0667761 45.5186602,86.1766122 L46.6214639,87.7143171 L44.7466976,87.9339892 C44.3055761,87.9339892 43.974735,87.9339892 43.7541742,87.9339892 Z" id="Shape" fill-rule="nonzero" opacity="0.899999976"></path>
            <path d="M55.4721198,127.035629 C55.4714389,125.764172 55.5418207,124.35554 55.6254529,122.858783 C56.8883677,123.122984 59.2880886,123.520874 60.8747664,123.520874 C61.5487053,123.520874 62.2566818,123.453074 62.9419663,123.279805 C63.0149835,124.619977 63.0726595,125.884065 63.0720429,127.035629 L55.4721198,127.035629 Z M55.5692876,129.23235 L62.974875,129.23235 C62.7090763,131.820977 61.8315686,133.45082 59.5514019,133.45082 L58.9927608,133.45082 C56.712594,133.45082 55.8350863,131.820977 55.5692876,129.23235 Z M55.7509125,120.605066 C55.8285918,119.130365 55.8930346,117.599165 55.8964425,116.052022 L62.6477201,116.052022 C62.6513861,117.716346 62.7256828,119.362219 62.8111074,120.939158 C60.3746152,121.653953 56.6435655,120.823341 55.7509125,120.605066 Z M55.8554669,113.855301 C55.8223518,113.062103 55.7674349,112.269737 55.6843496,111.483607 C55.6186312,110.861797 55.543122,110.195132 55.4588724,109.489189 C56.2393933,109.80097 57.3834296,110.120874 58.7523051,110.120874 C59.5721036,110.120874 61.4619636,109.920225 63.0777066,109.552826 C62.996504,110.235223 62.9235534,110.880513 62.8598131,111.483607 C62.7767277,112.269737 62.7218108,113.062103 62.6886958,113.855301 L55.8554669,113.855301 Z M55.2197117,107.560279 C54.9319835,105.314632 54.5777027,102.776276 54.1829115,100.083543 C55.2106449,100.342465 56.979969,100.674973 59.0831462,100.674973 C60.2660778,100.674973 62.5343851,100.562638 64.3357517,100.257636 C63.9686813,102.766226 63.6374367,105.137557 63.3632329,107.258935 C59.924713,108.593454 55.6572257,107.148101 55.5541742,107.045465 L55.2216446,107.575368 C55.2216446,107.575368 55.2216446,107.575368 55.2216446,107.575368 L55.5541742,107.045465 L55.2197117,107.560279 Z M53.8528002,97.858164 C53.6573462,96.5548782 53.4544708,95.2256672 53.2468971,93.8849957 C54.4233083,94.0769672 56.778829,94.4143171 59.3037069,94.4143171 C60.5706575,94.4143171 63.2161566,94.3576895 65.2605311,94.1224538 C65.0610107,95.4132711 64.8660044,96.6926483 64.6779501,97.9476346 C60.34136,99.1843021 53.8999686,97.709399 53.8999686,97.709399 L53.8528002,97.858164 Z M52.8942274,91.6244022 C52.6146196,89.845086 52.3294905,88.0599235 52.0450893,86.3021084 C53.2560958,86.5872632 55.2585687,86.9454646 57.9803425,86.9454646 C60.0005687,86.9454646 63.4680758,86.6947202 66.5166935,86.1932315 C66.2099674,88.0880162 65.9022443,90.0154151 65.6013661,91.9337736 C61.0103943,92.8815448 53.0097359,91.5585794 52.9074453,91.5585794 L52.8942274,91.6244022 Z M51.656921,83.916683 C51.363237,82.1219942 51.0734221,80.3732466 50.7945022,78.7077597 L67.7496605,78.7077597 C67.4735798,80.356293 67.1868248,82.0864005 66.896209,83.8618908 C58.8613661,85.4945904 52.7712664,84.187884 51.656921,83.916683 Z M50.4248309,76.5110384 C50.126908,74.7492897 49.8464016,73.1115052 49.5929981,71.6491372 C51.1174592,71.448377 60.4949259,70.3147118 68.9602366,71.5968184 C68.704459,73.072401 68.4208129,74.7282483 68.1193317,76.5110384 L50.4248309,76.5110384 Z M49.2096281,69.4525067 C49.1606463,69.1740691 49.1132444,68.9055617 49.0675271,68.647541 C48.8296354,67.3049192 48.6297562,66.1213067 48.4564097,65.054236 C50.0413718,64.7268138 61.5587036,62.1930931 70.1078043,64.930596 C69.9298544,66.0297298 69.7237542,67.2528437 69.4766355,68.647541 C69.433283,68.8922157 69.3884155,69.1463203 69.3421225,69.4093803 C60.3945188,68.0682465 50.6300963,69.2287022 49.2096281,69.4525067 Z M48.1185981,62.9123942 C47.7724872,60.6522871 47.5362933,58.909507 47.2404361,57.0567213 L47.3934266,57.399563 C47.3934266,57.399563 58.0053993,53.9570328 71.2662363,57.2929025 C70.9961094,59.0046614 70.7711446,60.6446934 70.4558134,62.7143612 C61.4996309,60.0423036 50.379649,62.4035604 48.1185981,62.9123942 Z M46.9407949,55.2705147 C46.6559019,53.6550069 46.2962472,51.8364403 45.77008,49.4753986 C46.4903217,49.1550356 59.4336782,44.6772454 72.8127332,49.3055835 C72.8032525,49.3457861 72.7940225,49.3860013 72.7850467,49.4262295 C72.2654187,51.7551349 71.9073867,53.557311 71.6237335,55.155403 C59.1689116,52.0267897 49.1280551,54.575778 46.9407949,55.2705147 Z M45.1134047,47.4196312 C42.0138311,39.9056228 32.0070958,32.5149519 38.5908916,21.4180328 C45.7591159,9.33606557 55.1401869,8.78688525 58.9927608,8.78688525 L59.5514019,8.78688525 C63.4039757,8.78688525 72.7850467,9.33606557 79.953271,21.4180328 C86.4996344,32.4518598 76.6435827,39.821463 73.4842917,47.2914788 C59.9568622,42.5943515 47.1262431,46.7040327 45.1134047,47.4196312 Z M45.0775387,30.0503827 L46.5111836,28.0733335 C46.7317443,27.8536613 46.9523051,27.7438253 47.1728658,27.7438253 C47.3934266,27.7438253 47.6139873,27.8536613 47.8345481,27.9634974 L50.1504359,29.8307105 L51.5840808,28.0733335 L49.2681929,26.2061204 C48.6065107,25.65694 47.8345481,25.4372679 46.9523051,25.547104 C46.0700621,25.547104 45.4083798,25.9864482 44.856978,26.6454646 L43.3130527,28.6225138 L45.0775387,30.0503827 Z M65.810249,30.0503827 L67.2438939,28.0733335 C67.4644546,27.8536613 67.6850154,27.7438253 67.9055761,27.7438253 C68.1261368,27.7438253 68.3466976,27.8536613 68.5672583,27.9634974 L70.8831462,29.8307105 L72.3167911,28.0733335 L70.0009032,26.2061204 C69.339221,25.65694 68.5672583,25.4372679 67.6850154,25.547104 C66.8027724,25.547104 66.1410901,25.9864482 65.5896882,26.6454646 L64.045763,28.6225138 L65.810249,30.0503827 Z" id="Combined-Shape"></path>
            <path d="M72.8127332,49.3055835 C59.4336782,44.6772454 46.4903217,49.1550356 45.77008,49.4753986 C45.7664333,49.459035 45.7627786,49.4426453 45.7591159,49.4262295 C45.6092624,48.7546058 45.3885468,48.0866326 45.1134047,47.4196312 C47.1262431,46.7040327 59.9568622,42.5943515 73.4842917,47.2914788 C73.2010738,47.961136 72.9716739,48.6316002 72.8127332,49.3055835 Z M47.2404361,57.0567213 C47.1480878,56.4783964 47.0499265,55.8893536 46.9407949,55.2705147 C49.1280551,54.575778 59.1689116,52.0267897 71.6237335,55.155403 C71.4913162,55.9014371 71.3751082,56.6029955 71.2662363,57.2929025 C58.0053993,53.9570328 47.3934266,57.399563 47.3934266,57.399563 L47.2404361,57.0567213 Z M48.1185981,62.9123942 C50.379649,62.4035604 61.4996309,60.0423036 70.4558134,62.7143612 C70.3513665,63.3998963 70.2370051,64.132568 70.1078043,64.930596 C61.5587036,62.1930931 50.0413718,64.7268138 48.4564097,65.054236 C48.331452,64.2850324 48.2202815,63.5763876 48.1185981,62.9123942 Z M49.2096281,69.4525067 C50.6300963,69.2287022 60.3945188,68.0682465 69.3421225,69.4093803 C69.2236615,70.0825351 69.0958657,70.8143311 68.960232,71.5968177 C60.4949225,70.3147122 51.1174589,71.448377 49.5929981,71.6491372 C49.4568885,70.8636608 49.3285981,70.1287928 49.2096281,69.4525067 Z M50.4248309,76.5110384 L68.1193317,76.5110384 C67.9987471,77.2241078 67.8753093,77.9574855 67.7496605,78.7077597 L50.7945022,78.7077597 C50.6688534,77.9574855 50.5454155,77.2241078 50.4248309,76.5110384 Z M52.0450893,86.3021084 C51.9153507,85.5002252 51.7857635,84.704033 51.656921,83.916683 C52.7712664,84.187884 58.8613661,85.4945904 66.896209,83.8618908 C66.7702442,84.6314606 66.6435541,85.4095565 66.5166935,86.1932315 C63.4680758,86.6947202 60.0005687,86.9454646 57.9803425,86.9454646 C55.2585687,86.9454646 53.2560958,86.5872632 52.0450893,86.3021084 Z M53.2468971,93.8849957 C53.1306545,93.1342119 53.0129386,92.3798339 52.8942274,91.6244022 L52.9074453,91.5585794 C53.0097359,91.5585794 61.0103943,92.8815448 65.6013661,91.9337736 C65.4866137,92.665419 65.3728571,93.3957494 65.2605311,94.1224538 C63.2161566,94.3576895 60.5706575,94.4143171 59.3037069,94.4143171 C56.778829,94.4143171 54.4233083,94.0769672 53.2468971,93.8849957 Z M54.1829115,100.083543 C54.0756887,99.3522136 53.9654776,98.6094968 53.8528002,97.858164 L53.8999686,97.709399 C53.8999686,97.709399 60.34136,99.1843021 64.6779501,97.9476346 C64.5609997,98.7281068 64.4467381,99.4991457 64.3357517,100.257636 C62.5343851,100.562638 60.2660778,100.674973 59.0831462,100.674973 C56.979969,100.674973 55.2106449,100.342465 54.1829115,100.083543 Z M55.4588724,109.489189 C55.3860933,108.87936 55.3067917,108.240221 55.2216446,107.575368 L55.5541742,107.045465 C55.6572257,107.148101 59.924713,108.593454 63.3632329,107.258935 C63.2595134,108.061361 63.1639553,108.828025 63.0777066,109.552826 C61.4619636,109.920225 59.5721036,110.120874 58.7523051,110.120874 C57.3834296,110.120874 56.2393933,109.80097 55.4588724,109.489189 Z M55.2197117,107.560279 L55.5541742,107.045465 L55.2216446,107.575368 C55.2210006,107.57034 55.2203563,107.56531 55.2197117,107.560279 Z M55.8554669,113.855301 L62.6886958,113.855301 C62.658096,114.588251 62.6461119,115.321912 62.6477201,116.052022 L55.8964425,116.052022 C55.8980508,115.321912 55.8860666,114.588251 55.8554669,113.855301 Z M55.6254529,122.858783 C55.6663578,122.126713 55.7104324,121.373561 55.7509125,120.605066 C56.6435655,120.823341 60.3746152,121.653953 62.8111074,120.939158 C62.8544532,121.739321 62.900664,122.521735 62.9419663,123.279805 C62.2566818,123.453074 61.5487053,123.520874 60.8747664,123.520874 C59.2880886,123.520874 56.8883677,123.122984 55.6254529,122.858783 Z M55.4721198,127.035629 L63.0720429,127.035629 C63.0716204,127.824594 63.0438354,128.560741 62.974875,129.23235 L55.5692876,129.23235 C55.5003272,128.560741 55.4725423,127.824594 55.4721198,127.035629 Z" id="Combined-Shape" fill-rule="nonzero" opacity="0.75"></path>
        </g>
    </g>
</svg>