<?xml version="1.0" encoding="UTF-8"?>
<svg width="137px" height="134px" viewBox="0 0 137 134" version="1.1" xmlns="http://www.w3.org/2000/svg" xmlns:xlink="http://www.w3.org/1999/xlink">
    <!-- Generator: Sketch 52.1 (67048) - http://www.bohemiancoding.com/sketch -->
    <title>of_mice_and_men</title>
    <desc>Created with Sketch.</desc>
    <g id="of_mice_and_men" stroke="none" stroke-width="1" fill="none" fill-rule="evenodd">
        <path d="M82.1277429,1.03722666 C82.4624253,0.954017236 82.8175985,1.00563619 83.05135,1.23938769 C86.15135,3.03938769 101.45135,13.1393877 104.85135,31.9393877 C112.25135,32.7393877 118.35135,37.4393877 120.35135,43.6393877 C122.25135,45.2393877 126.25135,48.8393877 126.55135,50.8393877 C126.85135,53.2393877 123.85135,57.3393877 122.75135,58.5393877 C121.95135,59.4393877 120.35135,60.0393877 118.65135,60.7393877 C117.25135,61.2393877 115.55135,61.9393877 115.15135,62.5393877 C114.45135,63.6393877 114.75135,71.2393877 115.05135,72.8393877 C116.55135,80.5393877 103.15135,92.5393877 99.85135,95.3393877 L98.75135,110.839388 C99.85135,111.239388 101.55135,112.039388 102.25135,112.439388 C102.75135,112.739388 105.05135,114.239388 104.95135,116.439388 C104.85135,117.839388 103.75135,119.039388 101.65135,120.039388 C97.15135,122.039388 94.95135,120.739388 92.55135,119.439388 C91.95135,119.139388 91.45135,118.839388 90.85135,118.539388 C87.95135,117.239388 85.75135,109.639388 84.55135,104.639388 C81.75135,106.139388 78.95135,107.639388 76.25135,109.039388 L82.65135,110.739388 C83.25135,110.939388 87.95135,113.239388 88.45135,117.039388 C88.65135,118.739388 88.45135,119.939388 87.75135,120.739388 C87.05135,121.239388 86.25135,121.339388 85.95135,121.339388 C85.85135,121.339388 85.85135,121.339388 85.75135,121.339388 L54.35135,121.339388 C45.95135,121.339388 42.45135,118.139388 40.95135,115.439388 C39.25135,118.939388 35.55135,121.339388 31.35135,121.339388 C25.55135,121.339388 20.85135,116.839388 20.85135,111.339388 C20.85135,107.239388 23.55135,103.539388 27.55135,102.039388 C25.35135,98.8393877 24.05135,95.3393877 23.85135,91.9393877 C23.15135,79.0393877 27.05135,68.0393877 34.95135,60.7393877 C42.65135,53.6393877 53.45135,50.6393877 65.25135,52.3393877 C72.55135,53.3393877 78.65135,54.2393877 79.95135,54.3393877 C82.65135,53.3393877 83.35135,50.4393877 83.55135,48.7393877 C79.35135,49.9393877 66.65135,51.6393877 52.85135,34.1393877 C52.6934434,33.9288455 52.5909467,33.7183033 52.5584428,33.5077612 C70.0323377,35.1654073 80.7315201,38.4647907 84.6095656,43.3123475 L85.3904344,42.6876525 C81.3014654,37.5764412 70.477652,34.222442 52.873142,32.5332444 C53.0499811,32.3293488 53.3006655,32.1647299 53.55135,32.0393877 C56.85135,31.0393877 73.95135,26.7393877 89.75135,36.1393877 C90.25135,35.7393877 90.85135,35.3393877 91.45135,34.9393877 C79.75135,27.2393877 79.35135,12.9393877 81.05135,2.13938769 C81.0972929,1.95561605 81.1854508,1.77184441 81.3061264,1.60746757 C91.4361669,16.6816989 96.5,27.1779015 96.5,33 L97.5,33 C97.5,26.9063357 92.3751221,16.2841345 82.1277429,1.03722666 Z M123.85135,48.1393877 C123.2027,48.1393877 121.65135,50.7393877 121.95135,51.6393877 C122.25135,52.4393877 124.95135,53.1393877 124.95135,53.1393877 C125.317117,52.3797959 125.5,51.6666667 125.5,51 C125.5,50 124.5,48.1393877 123.85135,48.1393877 Z" id="Combined-Shape" fill="#FFFFFF"></path>
        <path d="M125.65135,116.320068 L125.65135,106.539388 L127.65135,106.539388 L127.65135,116.395848 L133.61373,110.433468 L135.02793,111.847668 L127.65135,119.224248 L127.65135,119.339388 L127.53621,119.339388 L127.39125,119.484348 L127.24629,119.339388 L126.05873,119.339388 L125.9505,119.447618 L125.84227,119.339388 L125.65135,119.339388 L125.65135,119.148468 L118.31382,111.810938 L119.72802,110.396738 L125.65135,116.320068 Z" id="Combined-Shape" fill="#FFFFFF" fill-rule="nonzero" opacity="0.5"></path>
        <path d="M111.05135,129.151808 L111.05135,119.339388 L113.05135,119.339388 L113.05135,129.169988 L118.98478,123.236558 L120.39898,124.650758 L113.05135,131.998388 L113.05135,132.139388 L112.91035,132.139388 L112.7623,132.287438 L112.61425,132.139388 L111.43277,132.139388 L111.32165,132.250508 L111.21053,132.139388 L111.05135,132.139388 L111.05135,131.980208 L103.68497,124.613828 L105.09917,123.199628 L111.05135,129.151808 Z" id="Combined-Shape" fill="#FFFFFF" fill-rule="nonzero" opacity="0.5"></path>
        <path d="M9.35135,122.686988 L9.35135,112.939388 L11.35135,112.939388 L11.35135,122.734928 L17.29961,116.786668 L18.71381,118.200868 L11.35135,125.563328 L11.35135,125.739388 L11.17529,125.739388 L11.07713,125.837548 L10.97897,125.739388 L9.69801,125.739388 L9.63668,125.800718 L9.57535,125.739388 L9.35135,125.739388 L9.35135,125.515388 L2,118.164038 L3.4142,116.749838 L9.35135,122.686988 Z" id="Combined-Shape" fill="#FFFFFF" fill-rule="nonzero" opacity="0.5"></path>
    </g>
</svg>