<?xml version="1.0" encoding="utf-8"?>
<!-- Generator: Adobe Illustrator 20.1.0, SVG Export Plug-In . SVG Version: 6.00 Build 0)  -->
<svg version="1.1" id="Layer_3" xmlns="http://www.w3.org/2000/svg" xmlns:xlink="http://www.w3.org/1999/xlink" x="0px" y="0px"
	 viewBox="0 0 280 280" style="enable-background:new 0 0 280 280;" xml:space="preserve">
<style type="text/css">
	.st0{fill:#D0E4F1;stroke:#D0E4F1;stroke-linecap:round;stroke-linejoin:round;}
	.st1{fill:#19BC9C;stroke:#0A706E;stroke-linecap:round;stroke-linejoin:round;}
	.st2{fill:#109995;stroke:#0A706E;stroke-linecap:round;stroke-linejoin:round;}
	.st3{fill:#0A706E;stroke:#0A706E;stroke-linecap:round;stroke-linejoin:round;}
	.st4{fill:#1A628A;stroke:#1A628A;stroke-linecap:round;stroke-linejoin:round;}
	.st5{fill:#2173A1;stroke:#1A628A;stroke-linecap:round;stroke-linejoin:round;}
	.st6{fill:#3290C1;stroke:#1A628A;stroke-linecap:round;stroke-linejoin:round;}
	.st7{fill:#19BC9C;stroke:#C74822;stroke-linecap:round;stroke-linejoin:round;}
	.st8{fill:#109995;stroke:#C74822;stroke-linecap:round;stroke-linejoin:round;}
	.st9{fill:#F56F40;stroke:#C74822;stroke-linecap:round;stroke-linejoin:round;}
	.st10{fill:#D65129;stroke:#C74822;stroke-linecap:round;stroke-linejoin:round;}
</style>
<title>Scaffolded organization</title>
<polygon class="st0" points="246,161.4 115.6,161.4 88.3,177.8 218.8,177.8 "/>
<polygon class="st1" points="121,177.8 191.3,177.8 182.8,163.1 129.5,163.1 "/>
<rect x="185.1" y="154.6" transform="matrix(0.866 -0.5 0.5 0.866 -54.7755 121.7602)" class="st2" width="29.5" height="17"/>
<polygon class="st3" points="129.5,163.1 182.8,163.1 208.3,148.4 155,148.4 "/>
<polygon class="st4" points="141.9,141.6 170.4,141.6 195.9,126.9 167.4,126.9 "/>
<rect x="172.9" y="133.1" transform="matrix(0.867 -0.4983 0.4983 0.867 -45.6421 112.344)" class="st5" width="29.6" height="17.1"/>
<polygon class="st6" points="141.9,141.6 133.4,156.4 178.9,156.4 170.4,141.6 "/>
<polygon class="st7" points="166.5,134.9 156.1,116.9 145.8,134.9 "/>
<polygon class="st8" points="156.8,117.3 182.4,102.6 192.3,120.2 166.6,134.9 "/>
<polygon class="st9" points="166.5,134.9 156.1,116.9 145.8,134.9 "/>
<rect x="159.5" y="108.1" transform="matrix(0.867 -0.4983 0.4983 0.867 -35.8688 102.5869)" class="st10" width="29.6" height="20.9"/>
<polygon class="st1" points="77.9,159.8 88.3,177.8 98.7,159.8 "/>
<polygon class="st3" points="77.9,159.8 98.7,159.8 124.2,145.1 103.5,145.1 "/>
<polygon class="st4" points="65.6,138.4 111.1,138.4 136.6,123.6 91.1,123.6 "/>
<polygon class="st2" points="88.3,177.8 98.7,159.8 124.2,145.1 113.9,163.1 "/>
<polygon class="st5" points="102.6,153.1 111.1,138.4 136.6,123.6 128.1,138.4 "/>
<polygon class="st6" points="102.6,153.1 111.1,138.4 65.6,138.4 74.1,153.1 "/>
<polygon class="st9" points="53.2,116.9 123.5,116.9 149,102.2 78.7,102.2 "/>
<polygon class="st9" points="123.5,116.9 53.2,116.9 61.7,131.6 115,131.6 "/>
<polygon class="st10" points="115,131.6 123.5,116.9 149,102.2 140.5,116.9 "/>
</svg>
