<svg id="Layer_1" data-name="Layer 1" xmlns="http://www.w3.org/2000/svg" viewBox="0 0 440.21 269.98"><defs><style>.cls-1{fill:#a9d7f3;opacity:0.5;isolation:isolate;}.cls-16,.cls-2{fill:#e7f1f8;}.cls-3{fill:#1bb798;}.cls-12,.cls-4{fill:#8ed0be;}.cls-4{opacity:0.2;}.cls-5{fill:#d0e4f0;}.cls-6{fill:#3f555a;}.cls-7{fill:#fff;}.cls-8{fill:#c3d4e0;}.cls-9{fill:#164a67;}.cls-10{fill:#3aa1d6;}.cls-11{fill:#1785c8;}.cls-13{fill:#0c716f;}.cls-14{fill:#a1c2d8;}.cls-15{fill:#40565b;}.cls-16{opacity:0.73;}.cls-17{fill:#ffdc64;}.cls-18{fill:#f9ca46;}.cls-19{fill:#faac30;}.cls-20{fill:#f36f42;}.cls-21{fill:#c84a27;}.cls-22{fill:#f26f42;}</style></defs><title>home-illustration-5</title><path class="cls-1" d="M401.28,54.23c-66.22,29.38-37.69,55.53-15.85,61.9,14.38,4.2,74.74,21.6,62.42,54C441.6,186.5,396,179.22,382.17,202c-8.82,14.49,59.85,60.51-53.31,33.61-30.74-7.31-130.7,64.58-187.61,13.75-10.26-9.16-11.57-5.44-53.91,2.79C29.57,263.36-6,230,23.68,207.33c30.52-12.09,29.55-56.59-3.63-45.2-23.64,8.12-7.58-65.37,40.78-69.66C77.5,91,87.74,91,76.31,77.58,59.55,57.91-40.64,19.71,102.83,16.49S467.5,24.85,401.28,54.23Z" transform="translate(-9.28 -4.98)"/><polyline class="cls-2" points="113.38 142.51 113.38 0.5 403.28 0.5 403.28 199.92 158.9 199.92"/><polyline class="cls-3" points="124.25 101.51 124.25 10.27 392.4 10.27 392.4 190.15 156.16 190.15"/><path class="cls-4" d="M278.93,148.41c-.74-1.35-1.55-2.85-2.42-4.35,1.1-.63,2.63.22,1.9-1.42a28.22,28.22,0,0,0-2.61-2.78c-.66-.59-1.2-1-1.74-1.46a18.44,18.44,0,0,1-.94-2.07c1.11,0,3,.23-.87-3.53l-2.09,0c-1.66-.73-2.69-.74-3.16.58h-1a8.86,8.86,0,0,1-.75-.6l-3.51-4.3c-.41.14-1.65-.63-.45,1.29-.54-.16-.53.57-1.75-.64-.53,0-1-.06-1.52-.09-1.89-.7-3.64-1.27-5.38-1.84l-1-.09-3.15-.31c-1.14-.42-2.11-.69-3.24-1.12a24.26,24.26,0,0,0-3.4.9c-3.12-4.06-3.81-3.35-3.24-1.88l-.49-.09c-1.81-1.81-2.85-2.14-4-3.29-1-.73,1.39,3-.85.52-1.56-2.87-1-3.31-1.77-5.6-1.67-3.12,2.82,1.19-.41-3.84,1.81,2.21,3.26,2.45,1.54-.39l-1.13-1.54a7.79,7.79,0,0,1-.81-.82l-1.14-.21c.09.28.17.57.09.69-2.43-2.6-4.36-5.36-4.82-4.8l1.54,3c-2.69-2.79-4.25-3.8-5.15-3.73a26.84,26.84,0,0,0,1.52,3l-.42-.09c-1.07-.5-2.08-1-3-1.34l-1.1-1.56c-.25-.19-.61-.54-1-.88-.53-.26-.44.42-3.74-4a9.16,9.16,0,0,1,0,1.31c-.63-.42-1.07-.65-1.65-1.05a38.74,38.74,0,0,0-3-4.52c-.17.48-2.3-1.62-.12,1.92-1.28-.58-2.5-1.15-3.62-1.57-2.85-4.12-3.52-3.52-3.05-2.62L201,94c-3.45-3.64-4.31-2.8-6.77-4.89.65,2.95-4-1.2-3,2.42-.64.12-1.33.08-2,.2-3.18-3.86-2.33-1.37-2.79-1.35.81,1.41-.29.34-.37.58-2.17-2.81-2.65-2.76-3-2.41s-.56,1-2.16-.65l.94,1.43c1.18,2.86-2.2-2.39-2.32-.5-1.54-1.7-1.29-.14-2.79-1.83a19,19,0,0,0,.37,2.69c-1.77-2.16-3.65-4.75-4.24-4.87,1.7,2.84-.83,1.4,1.91,5.12.27.61.13.58-.45-.08L169.59,89c-.91-.44-1.75-.3-.2,1.93-2.44-1.21-2.72,1-5.38,0,1.1,2,2,3.84,3.17,5.85-2.3-2.17-3.7-4.92-4.12-4,.09.86.23,1.89.31,2.78-.91-.68-3.79-3.13.21,2.93-6.6-7.76-3.31-.89-4.9-1.19,1,1.68,2,3.37,3,5l-2-1.48c-6.24-6-12.49-15.55-14.34-12.84,3,3.24.19,1.82,3.33,5.21,2.88,4-1.08,1.32-1.62,2.06,2.27,3.12,1.7,3.21.52,2.75s-3-1.39-3.07-.46c.89,1.36,1.33,2.58.29,2.14.9,1.35-.42,1.08,2,3.62.55.9,0,.61-.2.76a6,6,0,0,1-1.48-1.48c-1.65-1.33-2.78-.68.16,2.27.47,1.36-1.29.34-2.16.06,4.16,4.84-2.93-.73.09,2.95a2,2,0,0,0-1.21.58l3.25,12c.73.59,1.47,1.18,2.19,1.77.11.45.27.9.39,1.35a2.1,2.1,0,0,0-1.34,1.46L150.22,139l.83.92-.4.67.41,1.5,2.77,2.37,2.08,4c.64.79,1.48,1.7,2.18,2.48l5.1,3.64,1.75,2.47c1.39,1,2.79,2,4.13,3s2.48,2,3.67,3l4.16,3.68a30.85,30.85,0,0,0,4.08,2.46,82.37,82.37,0,0,0,9.1,6.89c2.05,1.47,4.23,3.07,6.25,4.56l.71.65c1,.58,2.07,1.3,3.19,2l1.91,2.29c3.72,2.66,7.06,5.69,5.67,3.65l-7.29-6.4c-.21-.35-.43-.71-.68-1.07.47.2.22-.37,1.54.73a32.35,32.35,0,0,0,3.72,3.26c1.19,1.27,2.38,2.54,3.48,3.68a25.27,25.27,0,0,0,4.26,3.43c.77.5,1.82,1.32,3,2.24H219c-1.2-.95-2-1.37-4.28-3.39-1.57-2.18-1.91-3-.63-2.48-3.94-4.07-2-2.91-2.9-4.3,2,.91-.76-2.75,2.29-.8-.44-.76-1-1.67-1.43-2.45.52-.07,2.2,1.07.35-1.56a5,5,0,0,0,2,1.14c-4.26-5-2.06-3.72-4.28-7.21,1,.15,3.72,2.88,4.68,3-1.95-3.25,3.52,1.6-1.8-5.58,1.52.52,4.52,2.72,3.56.38a1.4,1.4,0,0,1,.7-.42c3,2.67.4-1.48.66-2.77l.61.17c2.12,2.81,2,1.34,1.44-.85.58.16,1.12.31.71-.94l3.87,1.07c1.64,2.61,1.49,1.18.92-.37l2.18.58c1.47,1.56,1.91.91,1.55-.87.12-.1.13-.36.2-.47,1.63,1.49,3.56,3.7,1.45-.25l.41.11c1,1.32,1.38.75.74-1.13l2.23.57c1.2,1.23,2.49,1.56,1.87-.19,1,.12,1.88.1,2.93.2.89,1.29,1.08.66.32-1.28,1.45.07,3.94,1.46,4.51.37.64-.51,1.52-.91,2.26-1.45,1.91,2.18,3.07,3.11,2.12,1.67a10,10,0,0,1,3.33-.94c1.24-.17,2.64-.29,4-.38s2.74-.2,4-.42a10.86,10.86,0,0,0,3.52-1.25c.53-1.69,5.12,1.33,4.55-1.56,1.71-.47,5.81,1.55,5.42-1.14,1.68-.17,3.6-.31,5.35-.62.69.46,1.43.92,2.24,1.52a5.73,5.73,0,0,1,.21-1.52l-1.13-2.13h.85c2.28,2,1-1.05,1.84-1.54l1.63-.08,3.11-.18c-.73-1.2-1.53-2.4-2.32-3.59C282.09,149.83,281.51,149.85,278.93,148.41Z" transform="translate(-9.28 -4.98)"/><path class="cls-5" d="M122.66,5.48v142l45.53,57.41H412.57l-10.88-9.77H165.45l-31.91-88.64V15.25Z" transform="translate(-9.28 -4.98)"/><path class="cls-6" d="M412.57,205.4H168.18a.5.5,0,0,1,0-1H412.07V6H123.16V147.49a.5.5,0,1,1-1,0V5.48a.5.5,0,0,1,.5-.5H412.57a.5.5,0,0,1,.5.5V204.9A.5.5,0,0,1,412.57,205.4Z" transform="translate(-9.28 -4.98)"/><path class="cls-6" d="M401.69,195.63H165.45a.5.5,0,0,1,0-1H401.19V15.75H134v90.74a.5.5,0,0,1-1,0V15.25a.5.5,0,0,1,.5-.5H401.69a.5.5,0,0,1,.5.5V195.13A.5.5,0,0,1,401.69,195.63Z" transform="translate(-9.28 -4.98)"/><path class="cls-4" d="M401.69,83c-2.53-.23-5.56-.59-9.09-1.1-1-1.61,1.58-2.32,3.62-3.07s3.6-1.51.61-3.56a50,50,0,0,0,4.86,1.17V15.25h-40.8c.62.68.54.91-1.49,0H243.24c4.17,1.82,5.6,3.21.4,2.63-3.05,1.91-10.39,2.89-9.7,5.78a19.83,19.83,0,0,1-1,2.89L232.38,28c-.18.48-.33.95-.46,1.43-7.39-1.41-11.22-1.5-6.93-.19a19.8,19.8,0,0,1-4.76,6.09c-1,.95-2.14,1.88-3.3,2.81l-1.77,1.4-1.77,1.34a76.25,76.25,0,0,0-6.66,5.48,15.84,15.84,0,0,0-4.17,5.7c1,1.55-1.86,2.37-4.26,3.33s-4.27,2-1.14,3.66c-1.15,1.19-4.46,2-6.82,3s-3.72,2.09-.9,3.71c-2.69,1.85-5.95,3.58-8.61,5.43-2.09,0-4.28,0-6.86,0a14.39,14.39,0,0,1,2.38,2.07l5.93,1.71-1.55.68c-7.71-.59.12,2.11-.57,3.35l-2.89,1.3c-1.87.85-3.7,1.64-5.45,2.42,3.5.87,7.12,1.69,10.74,2.51,8.81.35,9.83-.1,17.2-.27,3.79,1,8,2.21,12.28,3.32-.91,1.53-5.29,1.64-1,3,2.44.42,4.91.84,9.82,1.38,2.28.21,4,.33,5.84.46,2,.59,4,1.22,5.44,1.76-2.05.83-6.08,1.94,7.89,3.56l3.87-1.56c4.39-.36,6.33-1.12,4.86-3.05l1.94-.76c.68,0,1.86.1,2.47.15l14.21,2.49c.52-.47,4.2-.51-1.44-1.91,1.3-.23,0-1.1,4.41-.59l3-1.12c4.73-.69,8.93-1.41,13.16-2.16l2-.75,6.34-2.27c2.82-.45,5-1,7.88-1.41a32.31,32.31,0,0,0,4.46-4.18c13.07,2.54,13,1,9.3-.41l1-.33c6.57.77,9,.28,13.13.81,3.08.1-8-2.7.56-1.44,8.08,2.41,8,3.44,13.53,5.8,8.78,2.6-7.27.9,7.79,4.58-7.32-1.29-10.36-.35-2,1.81l4.86,1c.71,0,1.88.18,3,.35l2.44-.69c-.68-.29-1.35-.58-1.43-.79,9.13,1.26,17.68,3.14,17.48,2l-8.2-2.46c10,1.3,14.55,1.31,16,.51-1.94-.66-3.87-1.32-8.22-2.53l.92-.23c2.81-.23,5.52-.41,7.84-.7L383.24,87c1.4-.09,3.4-.08,4.9-.19.9-.2,1.93-.43,9.71.19l3.84.94ZM301.05,70.4c0-.1.36-.14,1-.08C301.7,70.34,301.35,70.36,301.05,70.4Zm50.81-30.33a2.31,2.31,0,0,1,.87-.1Z" transform="translate(-9.28 -4.98)"/><path class="cls-7" d="M219.58,126.13c-1.4-.28-2.68.23-4,.15l-.15.64c-.1.49-.18,1-.25,1.48a.41.41,0,0,1-.54.36.43.43,0,0,1-.36-.56l.23-1.2c.13-.66.23-1.35.36-2l.33-2c.23-1.61.49-3.21.71-4.8s.46-3.09.64-4.62c.15-1.2.23-2.42.33-3.62a1.31,1.31,0,0,1,.66-1.15.39.39,0,0,1,.56.15,2.73,2.73,0,0,1,.23.89,9.82,9.82,0,0,0,.18,2.12c.15,1.07.23,2.17.36,3.24.2,1.73.43,3.44.66,5.18l.61,4.34c.08.48.18,1,.28,1.45.13.64.25,1.28.36,1.91a2.79,2.79,0,0,1,0,.46.44.44,0,0,1-.46.38.47.47,0,0,1-.46-.38c-.08-.56-.13-1.1-.18-1.66C219.66,126.66,219.61,126.43,219.58,126.13Zm-2-14.39c-.13,1.1-.2,2-.33,2.83-.1.64-.25,1.28-.36,1.91-.18,1.17-.31,2.35-.46,3.52s-.36,2.14-.48,3.21a6.2,6.2,0,0,0-.2,2,2.12,2.12,0,0,0,.56.2,4.67,4.67,0,0,0,.84,0l2.22-.23v-.43c-.13-.92-.28-1.84-.41-2.76-.18-1.33-.38-2.65-.56-4-.13-1-.28-2-.38-3s-.13-1.79-.23-2.7A2.21,2.21,0,0,0,217.54,111.74Z" transform="translate(-9.28 -4.98)"/><path class="cls-7" d="M229.35,120.23a1.07,1.07,0,0,1-.41.08,17.54,17.54,0,0,0-4,0,12.44,12.44,0,0,0-1.4.23.51.51,0,0,1-.61-.51.44.44,0,0,1,.23-.38,2.53,2.53,0,0,1,.64-.1l3.8-.13c.33,0,.66-.05,1-.08a.8.8,0,0,1,.79.54C229.41,120,229.35,120.08,229.35,120.23Zm0,3.83a.73.73,0,0,1-.41.05,19.28,19.28,0,0,0-4-.18,13.64,13.64,0,0,0-1.43.15.48.48,0,0,1-.56-.54.37.37,0,0,1,.23-.36,2.59,2.59,0,0,1,.64-.08l3.83.08,1,0a.74.74,0,0,1,.74.56C229.43,123.8,229.38,123.91,229.38,124.06Z" transform="translate(-9.28 -4.98)"/><path class="cls-7" d="M236.45,123.73a13.34,13.34,0,0,0,.2-3.5,21.8,21.8,0,0,1,.18-4.82v-.2a.44.44,0,0,1,.43-.41.41.41,0,0,1,.36.46c0,.38-.05.74-.1,1.12a16.23,16.23,0,0,0-.13,3.34,25.88,25.88,0,0,1,0,2.81,6.45,6.45,0,0,0,0,1.4,1,1,0,0,1,0,.28c-.05,1.17,0,2.35,0,3.52a3,3,0,0,1-.18.92.33.33,0,0,1-.46.2.39.39,0,0,1-.33-.38l.08-2.78v-.89a4.06,4.06,0,0,0-.51-.18,7.42,7.42,0,0,0-2.6,0,3.11,3.11,0,0,1-1.38-.15.56.56,0,0,1-.31-.89,7.28,7.28,0,0,0,.59-1.28c.38-1.28.76-2.55,1.07-3.85a19.54,19.54,0,0,0,.28-2.14c.13-.82.31-1.63.43-2.47.2-1.22.36-2.47.56-3.7.1-.56.28-1.15.43-1.71a.67.67,0,0,1,.15-.33c.08-.08.23-.18.31-.15a.59.59,0,0,1,.36.25.38.38,0,0,1,0,.33,19.1,19.1,0,0,0-.89,4.11l-.69,4a2.87,2.87,0,0,0-.08.46,13.79,13.79,0,0,1-.71,3.65c-.33,1-.59,1.94-.92,3.06Z" transform="translate(-9.28 -4.98)"/><path class="cls-7" d="M250.79,106.74c.25.15.48.31.74.43a9.88,9.88,0,0,0,.87.48,3.12,3.12,0,0,1,1.71,2.25,10.47,10.47,0,0,1,.15,2.35,19.84,19.84,0,0,1-.1,2.75,3.92,3.92,0,0,1-1.5,2.68l-.2.2s0,0,0,.1a4.12,4.12,0,0,0,.61.38,2.29,2.29,0,0,1,.94.84,1.14,1.14,0,0,1,.25.74c0,.36,0,.74,0,1.1l-.08,3.72a1.85,1.85,0,0,1-.38,1.17,3.61,3.61,0,0,1-.46.43c-.82.41-1.58.77-2.4,1.12a1.28,1.28,0,0,1-.36.1c-.13-.05-.18-.05-.23-.1-.74-.71-.77-.71-.64-1.81a33.09,33.09,0,0,0,.2-3.55,4.53,4.53,0,0,1,0-.56,60.31,60.31,0,0,0,.15-6.46c0-1.1-.1-2.17-.13-3.27s-.05-2.3-.05-3.47C249.9,107.48,249.92,107.48,250.79,106.74Zm-.08,19.85a10.39,10.39,0,0,0,2-.77,1.18,1.18,0,0,0,.64-.87,3.73,3.73,0,0,0,.08-.79v-1.91c0-.66,0-1.28,0-1.94a1.14,1.14,0,0,0-.54-1,10.48,10.48,0,0,0-1.3-.66,1,1,0,0,0-.56,0c-.05.08-.08.1-.08.13-.23,2.37-.2,4.75-.49,7.09A.68.68,0,0,0,250.71,126.59Zm.36-9c.38-.25.77-.43,1.12-.66a2.29,2.29,0,0,0,.77-.87,4.42,4.42,0,0,0,.41-1.61c0-1.2,0-2.4,0-3.62a2.71,2.71,0,0,0-.77-2.12,7.39,7.39,0,0,0-1.58-.94,1.45,1.45,0,0,0-.23.94c0,1.63,0,3.27,0,4.9a16.9,16.9,0,0,1,.05,3A1.11,1.11,0,0,0,251.07,117.63Z" transform="translate(-9.28 -4.98)"/><path class="cls-7" d="M264.49,118.75a1.06,1.06,0,0,1-.41.08,17.54,17.54,0,0,0-4,0,12.42,12.42,0,0,0-1.4.23.51.51,0,0,1-.61-.51.44.44,0,0,1,.23-.38,2.53,2.53,0,0,1,.64-.1l3.8-.13c.33,0,.66-.05,1-.08a.8.8,0,0,1,.79.54C264.54,118.5,264.49,118.6,264.49,118.75Zm0,3.83a.73.73,0,0,1-.41.05,19.27,19.27,0,0,0-4-.18,13.61,13.61,0,0,0-1.43.15.48.48,0,0,1-.56-.54.37.37,0,0,1,.23-.36,2.58,2.58,0,0,1,.64-.08l3.83.08,1,0a.74.74,0,0,1,.74.56C264.57,122.32,264.52,122.43,264.52,122.58Z" transform="translate(-9.28 -4.98)"/><path class="cls-7" d="M392,102.14H285.38V47.6Zm-105.59-1H387.82L286.38,49.23Z" transform="translate(-9.28 -4.98)"/><path class="cls-7" d="M340.54,65.35c0-.34,0-.67,0-1,0-.92,0-1.83,0-2.71s0-1.46.05-2.19,0-1.36,0-2c0-.38,0-.8,0-1.23,0-.23.07-.47.09-.72a1.66,1.66,0,0,1,.8-1.28,1.79,1.79,0,0,1,1.43-.29,1,1,0,0,1,.54.36,2.24,2.24,0,0,1,.52,1,8.22,8.22,0,0,1,.05,1.16.26.26,0,0,1-.25.31.29.29,0,0,1-.33-.27c0-.25,0-.47,0-.69a1.44,1.44,0,0,0-.51-1.08.84.84,0,0,0-1,0,3.71,3.71,0,0,0-.33.27.82.82,0,0,0-.27.51A6.15,6.15,0,0,0,341.2,57a14.06,14.06,0,0,1,0,1.75c0,.67,0,1.32-.07,2a34.36,34.36,0,0,0,0,3.62c0,.52,0,1,0,1.55a4.31,4.31,0,0,0,.05.72,1.44,1.44,0,0,0,1,1.36,1.47,1.47,0,0,0,.63.07.83.83,0,0,0,.67-.69,5.63,5.63,0,0,0,.09-.83c.05-.4.07-.83.11-1.28,0-.23.18-.36.34-.33a.37.37,0,0,1,.33.47A9.31,9.31,0,0,0,344,67c-.05.2-.05.4-.11.6a1.36,1.36,0,0,1-1.21,1.1,2,2,0,0,1-1.7-.74,1.65,1.65,0,0,1-.47-1.19c0-.45,0-.92,0-1.37Z" transform="translate(-9.28 -4.98)"/><path class="cls-7" d="M328.77,105.71c.18.11.34.22.52.31s.42.25.61.34a2.21,2.21,0,0,1,1.21,1.59,7.41,7.41,0,0,1,.11,1.66,14.13,14.13,0,0,1-.07,2,2.78,2.78,0,0,1-1.07,1.9l-.14.14s0,0,0,.07a2.89,2.89,0,0,0,.43.27,1.62,1.62,0,0,1,.67.6.8.8,0,0,1,.18.52c0,.25,0,.52,0,.78l-.05,2.64a1.31,1.31,0,0,1-.27.83,2.51,2.51,0,0,1-.33.31c-.58.29-1.12.54-1.7.8a.9.9,0,0,1-.25.07c-.09,0-.13,0-.16-.07-.52-.51-.54-.51-.45-1.28a23.44,23.44,0,0,0,.14-2.51,3.24,3.24,0,0,1,0-.4,42.48,42.48,0,0,0,.11-4.57c0-.78-.07-1.54-.09-2.31s0-1.63,0-2.46C328.14,106.24,328.16,106.24,328.77,105.71Zm-.05,14.06a7.27,7.27,0,0,0,1.39-.54.83.83,0,0,0,.45-.61,2.65,2.65,0,0,0,.05-.56v-1.36c0-.47,0-.9,0-1.37a.81.81,0,0,0-.38-.74,7.5,7.5,0,0,0-.92-.47.74.74,0,0,0-.4,0c0,.05-.05.07-.05.09-.16,1.68-.14,3.36-.34,5A.48.48,0,0,0,328.72,119.78Zm.25-6.35c.27-.18.54-.31.8-.47a1.62,1.62,0,0,0,.54-.61,3.13,3.13,0,0,0,.29-1.14c0-.85,0-1.7,0-2.57a1.92,1.92,0,0,0-.54-1.5,5.29,5.29,0,0,0-1.12-.67,1,1,0,0,0-.16.67c0,1.16,0,2.31,0,3.47a12,12,0,0,1,0,2.13A.78.78,0,0,0,329,113.43Z" transform="translate(-9.28 -4.98)"/><path class="cls-7" d="M276.56,84.1a18.68,18.68,0,0,0-2.86.11l-.11.45c-.07.34-.13.7-.18,1A.29.29,0,0,1,273,86a.31.31,0,0,1-.25-.4l.16-.85c.09-.47.16-1,.25-1.43l.23-1.43c.16-1.14.34-2.28.51-3.4s.33-2.19.45-3.27c.11-.85.16-1.72.23-2.57a.93.93,0,0,1,.47-.81.28.28,0,0,1,.4.11,1.94,1.94,0,0,1,.16.63,7,7,0,0,0,.13,1.5c.11.76.16,1.54.25,2.3.14,1.23.31,2.44.47,3.67l.43,3.07c.05.34.13.69.2,1s.18.9.25,1.36a2,2,0,0,1,0,.33.31.31,0,0,1-.33.27.33.33,0,0,1-.33-.27c-.05-.4-.09-.78-.13-1.18C276.62,84.48,276.58,84.32,276.56,84.1Zm-1.45-10.2c-.09.78-.14,1.39-.23,2-.07.45-.18.9-.25,1.36-.13.83-.22,1.66-.33,2.49s-.25,1.52-.34,2.28a4.39,4.39,0,0,0-.14,1.39,1.46,1.46,0,0,0,.4.14,3.34,3.34,0,0,0,.6,0l1.57-.16v-.31c-.09-.65-.2-1.3-.29-2-.13-.94-.27-1.88-.4-2.8-.09-.7-.2-1.39-.27-2.1s-.09-1.27-.16-1.92A1.58,1.58,0,0,0,275.12,73.9Z" transform="translate(-9.28 -4.98)"/><path class="cls-7" d="M285.89,61.91h0v-1h0c9.06,0,11.44-6.48,11.46-6.55l.94.33C298.26,54.76,295.65,61.91,285.89,61.91Z" transform="translate(-9.28 -4.98)"/><path class="cls-7" d="M293.09,101.89h-1c0-9.06-6.48-11.44-6.55-11.46l.33-.94C285.95,89.51,293.1,92.12,293.09,101.89Z" transform="translate(-9.28 -4.98)"/><path class="cls-7" d="M360.13,101.85c0-.07-3.24-7,3.67-13.88l.71.71c-6.39,6.39-3.6,12.48-3.47,12.74Z" transform="translate(-9.28 -4.98)"/><path class="cls-7" d="M173.28,58.52c-1.54-.31-2.95.25-4.44.17l-.17.7c-.11.53-.2,1.09-.28,1.63a.45.45,0,0,1-.59.39.47.47,0,0,1-.39-.62l.25-1.32c.14-.73.25-1.49.39-2.22l.36-2.22c.25-1.77.53-3.54.79-5.28s.51-3.4.7-5.08c.17-1.32.25-2.67.36-4a1.44,1.44,0,0,1,.73-1.26.43.43,0,0,1,.62.17,3,3,0,0,1,.25,1,10.9,10.9,0,0,0,.2,2.33c.17,1.18.25,2.39.39,3.56.22,1.91.48,3.79.73,5.7l.67,4.77c.08.53.2,1.07.31,1.6.14.7.28,1.4.39,2.11a3.11,3.11,0,0,1,0,.5.49.49,0,0,1-.5.42.51.51,0,0,1-.51-.42c-.08-.62-.14-1.21-.2-1.82C173.37,59.11,173.31,58.86,173.28,58.52ZM171,42.69c-.14,1.21-.22,2.16-.36,3.12-.11.7-.28,1.4-.39,2.1-.2,1.29-.34,2.58-.51,3.87s-.39,2.36-.53,3.54a6.84,6.84,0,0,0-.22,2.16,2.33,2.33,0,0,0,.62.22,5.14,5.14,0,0,0,.93,0l2.44-.25v-.48c-.14-1-.31-2-.45-3-.2-1.46-.42-2.92-.62-4.35-.14-1.1-.31-2.16-.42-3.26s-.14-2-.25-3A2.43,2.43,0,0,0,171,42.69Z" transform="translate(-9.28 -4.98)"/><path class="cls-7" d="M198.64,52a1.19,1.19,0,0,1-.45.08,12.16,12.16,0,0,0-2.67-.08l.06,1.07c0,.37.09.73.14,1.1a.94.94,0,0,1-.59.9c-.06,0-.2,0-.36,0a1.16,1.16,0,0,1-.08-.45,12.72,12.72,0,0,0,0-2.53l-.93.06a13.48,13.48,0,0,0-1.54.25.57.57,0,0,1-.67-.56.49.49,0,0,1,.25-.42,2.84,2.84,0,0,1,.7-.11l2.11-.06c0-.36-.09-.7-.11-1a13.77,13.77,0,0,0-.31-1.54.58.58,0,0,1,.56-.67.46.46,0,0,1,.42.22,5.13,5.13,0,0,1,.14.7l.14,2.3,1.24-.06c.36,0,.73-.06,1.09-.08a.88.88,0,0,1,.87.59C198.7,51.75,198.64,51.87,198.64,52Z" transform="translate(-9.28 -4.98)"/><path class="cls-7" d="M208,38.81c.28.17.53.34.81.48s.65.39,1,.53a3.44,3.44,0,0,1,1.88,2.47,11.52,11.52,0,0,1,.17,2.58,22,22,0,0,1-.11,3A4.32,4.32,0,0,1,210,50.86l-.22.22s0,0,0,.11a4.45,4.45,0,0,0,.67.42,2.52,2.52,0,0,1,1,.93,1.25,1.25,0,0,1,.28.81c0,.39,0,.81,0,1.21l-.08,4.1a2,2,0,0,1-.42,1.29,4,4,0,0,1-.5.48c-.9.45-1.74.84-2.64,1.24a1.45,1.45,0,0,1-.39.11c-.14-.06-.2-.06-.25-.11-.81-.79-.84-.79-.7-2a35.84,35.84,0,0,0,.22-3.9,4.92,4.92,0,0,1,0-.62,66.15,66.15,0,0,0,.17-7.1c0-1.21-.11-2.39-.14-3.59s-.06-2.53-.06-3.82C207,39.63,207,39.63,208,38.81Zm-.08,21.84a11.43,11.43,0,0,0,2.16-.84,1.3,1.3,0,0,0,.7-1,4.18,4.18,0,0,0,.08-.87V55.88c0-.73,0-1.4,0-2.13a1.26,1.26,0,0,0-.59-1.15,11.5,11.5,0,0,0-1.43-.73,1.14,1.14,0,0,0-.62,0c-.06.08-.08.11-.08.14-.25,2.61-.22,5.22-.53,7.8A.75.75,0,0,0,207.91,60.65Zm.39-9.85c.42-.28.84-.48,1.24-.73a2.5,2.5,0,0,0,.84-1,4.85,4.85,0,0,0,.45-1.77c0-1.32,0-2.64,0-4A3,3,0,0,0,210,41a8.15,8.15,0,0,0-1.74-1,1.6,1.6,0,0,0-.25,1c0,1.8,0,3.59,0,5.39a18.69,18.69,0,0,1,.06,3.31A1.22,1.22,0,0,0,208.3,50.8Z" transform="translate(-9.28 -4.98)"/><path class="cls-7" d="M238.51,52a1.19,1.19,0,0,1-.45.08,19.23,19.23,0,0,0-4.41,0,13.5,13.5,0,0,0-1.54.25.57.57,0,0,1-.67-.56.49.49,0,0,1,.25-.42,2.84,2.84,0,0,1,.7-.11l4.18-.14c.36,0,.73-.06,1.09-.08a.88.88,0,0,1,.87.59C238.57,51.75,238.51,51.87,238.51,52Zm0,4.21a.8.8,0,0,1-.45.06,21.24,21.24,0,0,0-4.41-.2,14.79,14.79,0,0,0-1.57.17.53.53,0,0,1-.62-.59.41.41,0,0,1,.25-.39,2.85,2.85,0,0,1,.7-.08l4.21.08,1.09,0a.81.81,0,0,1,.81.62C238.59,56,238.54,56.08,238.54,56.25Z" transform="translate(-9.28 -4.98)"/><path class="cls-7" d="M247.5,56.72c0-.53-.06-1-.06-1.57,0-1.43,0-2.84,0-4.21,0-1.15,0-2.27.08-3.4s0-2.11.06-3.17c0-.59,0-1.24,0-1.91,0-.36.11-.73.14-1.12a2.58,2.58,0,0,1,1.24-2,2.79,2.79,0,0,1,2.22-.45,1.6,1.6,0,0,1,.84.56,3.48,3.48,0,0,1,.81,1.6,12.71,12.71,0,0,1,.09,1.8.4.4,0,0,1-.39.48.45.45,0,0,1-.51-.42c0-.39,0-.73,0-1.07a2.24,2.24,0,0,0-.79-1.68,1.3,1.3,0,0,0-1.6,0,5.52,5.52,0,0,0-.51.42,1.27,1.27,0,0,0-.42.79,9.61,9.61,0,0,0-.17,2.39,22.31,22.31,0,0,1-.06,2.72c0,1-.06,2-.11,3.06a53.49,53.49,0,0,0,0,5.61c0,.81-.06,1.6-.06,2.41a6.73,6.73,0,0,0,.08,1.12,2.24,2.24,0,0,0,1.57,2.1,2.31,2.31,0,0,0,1,.11,1.28,1.28,0,0,0,1-1.07,8.69,8.69,0,0,0,.14-1.29c.08-.62.11-1.29.17-2,.06-.36.28-.56.53-.51a.57.57,0,0,1,.5.73,14.55,14.55,0,0,0-.39,2.47c-.09.31-.09.62-.17.93a2.11,2.11,0,0,1-1.88,1.71,3.13,3.13,0,0,1-2.64-1.15,2.56,2.56,0,0,1-.73-1.85c0-.7,0-1.43-.06-2.13Z" transform="translate(-9.28 -4.98)"/><path class="cls-7" d="M257.62,48.47a.58.58,0,0,0,.52.15c.37,0,.75,0,1.12-.07s.58-.08.89-.11a1.83,1.83,0,0,1,.52,0c.06,0,.16.13.18.19a.32.32,0,0,1-.11.26,2,2,0,0,1-.44.15,12.88,12.88,0,0,1-1.36.11,11,11,0,0,0-1.64.16l-.18,0a.28.28,0,0,1-.26-.28.87.87,0,0,1,.08-.34c.16-.37.34-.75.5-1.14.08-.16.18-.31.24-.47.21-.55.44-1.1.63-1.67s.47-1.43.67-2.14a13.94,13.94,0,0,1,.55-1.58,5.61,5.61,0,0,0,.29-.83c.1-.39.23-.76.36-1.14a4.91,4.91,0,0,0,.37-1.74,1.6,1.6,0,0,0-.34-1.1.77.77,0,0,0-.8-.28A1.6,1.6,0,0,0,258,38c0,.31-.07.62-.11.94a.23.23,0,0,1-.24.21.28.28,0,0,1-.29-.24s0-.08,0-.11a14.15,14.15,0,0,1,.24-1.41,1.64,1.64,0,0,1,.28-.44,2.15,2.15,0,0,1,1.32-.83,1.42,1.42,0,0,1,1.66.84,2.49,2.49,0,0,1,.19,1,5.36,5.36,0,0,1-.32,1.69c-.36,1-.63,2.08-1.06,3.09-.28.7-.45,1.43-.68,2.14a11.38,11.38,0,0,1-.39,1.12c-.1.31-.23.6-.34.89L257.79,48C257.73,48.14,257.68,48.32,257.62,48.47Z" transform="translate(-9.28 -4.98)"/><path class="cls-7" d="M216,48.47a.58.58,0,0,0,.52.15c.37,0,.75,0,1.12-.07s.58-.08.89-.11a1.83,1.83,0,0,1,.52,0c.06,0,.16.13.18.19a.32.32,0,0,1-.11.26,2,2,0,0,1-.44.15,12.88,12.88,0,0,1-1.36.11,11,11,0,0,0-1.64.16l-.18,0a.28.28,0,0,1-.26-.28.87.87,0,0,1,.08-.34c.16-.37.34-.75.5-1.14.08-.16.18-.31.24-.47.21-.55.44-1.1.63-1.67s.47-1.43.67-2.14a13.94,13.94,0,0,1,.55-1.58,5.61,5.61,0,0,0,.29-.83c.1-.39.23-.76.36-1.14A4.91,4.91,0,0,0,219,38a1.6,1.6,0,0,0-.34-1.1.77.77,0,0,0-.8-.28A1.6,1.6,0,0,0,216.44,38c0,.31-.07.62-.11.94a.23.23,0,0,1-.24.21.28.28,0,0,1-.29-.24s0-.08,0-.11a14.15,14.15,0,0,1,.24-1.41,1.64,1.64,0,0,1,.28-.44,2.15,2.15,0,0,1,1.32-.83,1.42,1.42,0,0,1,1.66.84,2.49,2.49,0,0,1,.19,1,5.36,5.36,0,0,1-.32,1.69c-.36,1-.63,2.08-1.06,3.09-.28.7-.45,1.43-.68,2.14A11.38,11.38,0,0,1,217,46c-.1.31-.23.6-.34.89L216.19,48C216.13,48.14,216.08,48.32,216,48.47Z" transform="translate(-9.28 -4.98)"/><path class="cls-7" d="M177.69,48.47a.58.58,0,0,0,.52.15c.37,0,.75,0,1.12-.07s.58-.08.89-.11a1.83,1.83,0,0,1,.52,0c.06,0,.16.13.18.19a.32.32,0,0,1-.11.26,2,2,0,0,1-.44.15,12.88,12.88,0,0,1-1.36.11,11,11,0,0,0-1.64.16l-.18,0a.28.28,0,0,1-.26-.28.87.87,0,0,1,.08-.34c.16-.37.34-.75.5-1.14.08-.16.18-.31.24-.47.21-.55.44-1.1.63-1.67s.47-1.43.67-2.14a13.94,13.94,0,0,1,.55-1.58,5.61,5.61,0,0,0,.29-.83c.1-.39.23-.76.36-1.14a4.91,4.91,0,0,0,.37-1.74,1.6,1.6,0,0,0-.34-1.1.77.77,0,0,0-.8-.28A1.6,1.6,0,0,0,178.11,38c0,.31-.07.62-.11.94a.23.23,0,0,1-.24.21.28.28,0,0,1-.29-.24s0-.08,0-.11a14.15,14.15,0,0,1,.24-1.41,1.64,1.64,0,0,1,.28-.44,2.15,2.15,0,0,1,1.32-.83,1.42,1.42,0,0,1,1.66.84,2.49,2.49,0,0,1,.19,1,5.36,5.36,0,0,1-.32,1.69c-.36,1-.63,2.08-1.06,3.09-.28.7-.45,1.43-.68,2.14A11.38,11.38,0,0,1,178.7,46c-.1.31-.23.6-.34.89L177.87,48C177.81,48.14,177.76,48.32,177.69,48.47Z" transform="translate(-9.28 -4.98)"/><path class="cls-8" d="M310.19,153.1V134.53a5,5,0,0,1,5.29-4.94c37.82,2.61,67.67,33,67.67,70.07,0,38.8-32.66,70.26-73,70.26l3.48-7A63.3,63.3,0,0,0,319,136.59a5,5,0,0,0-5.36,4.94v9.25" transform="translate(-9.28 -4.98)"/><path class="cls-9" d="M313.67,263.46a.5.5,0,0,1,0-1A62.8,62.8,0,0,0,318.17,137a3.8,3.8,0,0,0-2.83,1,3.62,3.62,0,0,0-1.16,2.67v10.08a.5.5,0,0,1-1,0V140.69a4.61,4.61,0,0,1,1.48-3.41,4.76,4.76,0,0,1,3.58-1.26,63.8,63.8,0,0,1-4.57,127.43Z" transform="translate(-9.28 -4.98)"/><path class="cls-9" d="M310.19,270.42a.5.5,0,0,1,0-1c40,0,72.46-31.29,72.46-69.76a68.13,68.13,0,0,0-19.38-47.49,73.31,73.31,0,0,0-47.43-22.06,4.76,4.76,0,0,0-3.6,1.27,4.84,4.84,0,0,0-1.54,3.54V153.1a.5.5,0,1,1-1,0V134.92a5.85,5.85,0,0,1,1.86-4.27,5.69,5.69,0,0,1,4.36-1.53A74.31,74.31,0,0,1,364,151.48a69.12,69.12,0,0,1,19.66,48.18C383.65,238.68,350.69,270.42,310.19,270.42Z" transform="translate(-9.28 -4.98)"/><circle class="cls-10" cx="304.39" cy="198.24" r="51.95"/><path class="cls-11" d="M361.19,182.24q-.3-.69-.66-1.45l-.06-.12c-.61-1.27-1.36-2.68-2.27-4.2l-.2-.33-.08-.13a51.95,51.95,0,0,1-93.61,43.42,51.95,51.95,0,1,0,96.88-37.19Z" transform="translate(-9.28 -4.98)"/><path class="cls-12" d="M281.88,162.41l5.63,5-3.72,5.71,6.26,2.51,2.55-3.33,4.7.82,3.13,5.44L294,180.28l-3.33,2.82.53,11-3.46-.78-3.91-5.67-4.5-.19,2.94,8,6.06,3.91h3.33l3.91,4.12,5.87,1.75v12.91l-2.54,1.76-6.46,11-.2,6.46-4.89-4.68-.78-12.93-5.09-6.06-2.15-13.31-6.65-6.26-6.4-11.8s2.88-6.81,6.39-10.89A104.45,104.45,0,0,1,281.88,162.41Z" transform="translate(-9.28 -4.98)"/><path class="cls-12" d="M350.16,166.85l-19.41-.19,3.13,5.67L329,177l5.48,6.14,7-2.9-1.76-7.12,5.67,1.32,5.09,5.8-1.37,7.12h13.79s-.9-4.8-5.08-11.51S350.16,166.85,350.16,166.85Z" transform="translate(-9.28 -4.98)"/><polygon class="cls-12" points="318.53 182.42 310.31 182.42 302.49 190.84 300.92 196.22 305.42 203.97 315.4 203.84 318.53 207.27 321.08 213.92 319.96 219.66 323.82 226.45 338.3 215.88 338.3 208.05 343.19 198.48 338.3 198.48 332.43 187.51 319.71 187.51 318.53 182.42"/><path class="cls-9" d="M313.67,255.67a52.45,52.45,0,1,1,52.45-52.45A52.51,52.51,0,0,1,313.67,255.67Zm0-103.9a51.45,51.45,0,1,0,51.45,51.45A51.51,51.51,0,0,0,313.67,151.77Z" transform="translate(-9.28 -4.98)"/><polygon class="cls-13" points="283.38 233.46 277.54 227.86 276.76 214.9 271.69 208.86 269.54 195.58 262.91 189.31 256.52 177.51 257.39 177.03 263.75 188.76 270.47 195.09 270.5 195.25 272.63 208.43 277.73 214.51 278.51 227.41 282.45 231.18 282.62 225.72 289.29 214.49 291.62 212.88 291.62 200.6 285.98 198.92 282.12 194.86 278.86 194.86 272.53 190.77 269.28 181.89 274.78 182.13 278.72 187.84 281.35 188.44 280.84 177.89 284.55 174.81 290.38 173.3 287.69 168.63 283.52 167.9 280.93 171.28 273.75 168.41 277.57 162.55 272.26 157.8 272.93 157.05 278.88 162.38 275.26 167.94 280.6 170.07 283.1 166.81 288.32 167.72 291.9 173.93 284.92 175.75 281.87 178.34 282.41 189.71 278.12 188.73 274.24 183.1 270.73 182.95 273.35 190.11 279.15 193.86 282.55 193.86 286.52 198.04 292.62 199.85 292.62 213.4 289.95 215.25 283.61 226 283.38 233.46"/><polygon class="cls-13" points="353.65 182.92 339.26 182.92 340.69 175.44 335.88 169.95 331.15 168.85 332.82 175.6 325.05 178.79 319.01 172.02 323.98 167.26 320.62 161.17 340.88 161.37 340.87 162.37 322.32 162.19 325.22 167.45 320.4 172.08 325.32 177.6 331.64 175 329.79 167.5 336.41 169.05 341.77 175.15 340.47 181.92 353.65 181.92 353.65 182.92"/><path class="cls-13" d="M332.94,232.16l-4.22-7.44,1.12-5.77-2.46-6.43-2.92-3.19-10,.13-4.75-8.2,1.66-5.7,8.06-8.66h8.83l1.17,5.09H342l5.87,11h5.41l-5.21,10.19v8Zm-3.17-7.61,3.49,6.14,13.82-10.09v-7.69l4.57-9h-4.37l-5.87-11H328.59l-1.17-5.09h-7.6l-7.6,8.17-1.47,5.06,4.25,7.32,9.91-.13,3.38,3.75,2.6,6.79Z" transform="translate(-9.28 -4.98)"/><path class="cls-8" d="M322.48,274.46v-8A3.47,3.47,0,0,0,319,263H307.64a3.47,3.47,0,0,0-3.47,3.47v8" transform="translate(-9.28 -4.98)"/><path class="cls-9" d="M322.48,275a.5.5,0,0,1-.5-.5v-8a3,3,0,0,0-3-3H307.64a3,3,0,0,0-3,3v8a.5.5,0,0,1-1,0v-8a4,4,0,0,1,4-4H319a4,4,0,0,1,4,4v8A.5.5,0,0,1,322.48,275Z" transform="translate(-9.28 -4.98)"/><rect class="cls-7" x="8.82" y="67.96" width="55.58" height="75.02"/><path class="cls-6" d="M73.68,148.46H18.1a.5.5,0,0,1-.5-.5v-75a.5.5,0,0,1,.5-.5H73.68a.5.5,0,0,1,.5.5v75A.5.5,0,0,1,73.68,148.46Zm-55.08-1H73.18v-74H18.6Z" transform="translate(-9.28 -4.98)"/><path class="cls-14" d="M33.95,89.73a.5.5,0,0,1-.5-.5V81.62c-1.33,2.17-2.72,4.38-4.21,6.53A3,3,0,0,1,27,89.73a2.09,2.09,0,0,1-1.7-.78,2.66,2.66,0,0,1-.55-1.61,2,2,0,0,1,1.69-2.16.51.51,0,0,1,.53.47.5.5,0,0,1-.47.53c-.51,0-.77.68-.75,1.14a1.66,1.66,0,0,0,.34,1,1.09,1.09,0,0,0,.89.4c.57,0,1-.56,1.43-1.15,1.83-2.63,3.5-5.36,5.11-8a.5.5,0,0,1,.93.26v9.39A.5.5,0,0,1,33.95,89.73Z" transform="translate(-9.28 -4.98)"/><path class="cls-14" d="M35.49,89.73H32.31a.5.5,0,1,1,0-1h3.18a.5.5,0,0,1,0,1Z" transform="translate(-9.28 -4.98)"/><path class="cls-14" d="M33.6,86.13H30.43a.5.5,0,0,1,0-1H33.6a.5.5,0,0,1,0,1Z" transform="translate(-9.28 -4.98)"/><path class="cls-14" d="M66.53,89.73h-24a.5.5,0,1,1,0-1h24a.5.5,0,1,1,0,1Z" transform="translate(-9.28 -4.98)"/><path class="cls-14" d="M66.53,95.72H25.81a.5.5,0,0,1,0-1H66.53a.5.5,0,0,1,0,1Z" transform="translate(-9.28 -4.98)"/><path class="cls-14" d="M66.53,101.7H25.81a.5.5,0,0,1,0-1H66.53a.5.5,0,0,1,0,1Z" transform="translate(-9.28 -4.98)"/><path class="cls-14" d="M66.53,107.68H25.81a.5.5,0,0,1,0-1H66.53a.5.5,0,0,1,0,1Z" transform="translate(-9.28 -4.98)"/><path class="cls-14" d="M39.93,113.66H25.81a.5.5,0,1,1,0-1H39.93a.5.5,0,1,1,0,1Z" transform="translate(-9.28 -4.98)"/><path class="cls-14" d="M39,90.16a.92.92,0,1,1,.92-.92A.92.92,0,0,1,39,90.16Zm0-1a.08.08,0,0,0-.08.08c0,.08.15.08.15,0A.08.08,0,0,0,39,89.16Z" transform="translate(-9.28 -4.98)"/><path class="cls-7" d="M48.15,200.63h0c7-4.54,10.89-21.4,4.51-23.2-1.88-.53-3,.1-3.54,1.29.11-1,.24-2.18.42-3.44,1.7-12-25-21.31-30.39,5.87-3.64,18.2,12.17,20.77,12.17,20.77,29.52,53.29,76.38,29,76,31V216.82C67.22,231.48,48.15,200.63,48.15,200.63Z" transform="translate(-9.28 -4.98)"/><path class="cls-2" d="M31.17,201.92l2.65,4.28c1.88.35,9.46,1.14,16.14-2.13l-1.81-3.44A33.86,33.86,0,0,1,31.17,201.92Z" transform="translate(-9.28 -4.98)"/><path class="cls-2" d="M48.87,188.39c4.74-1.11-6.76,7.83-20.09,4.36-7.39-1.93-5.35-5.16-5.35-5.16" transform="translate(-9.28 -4.98)"/><path class="cls-8" d="M40.64,210.9a25.49,25.49,0,0,1-4.47-.37.5.5,0,0,1,.19-1c.1,0,10,1.85,16.18-3.38a.5.5,0,0,1,.65.76C49.33,210.21,44.24,210.9,40.64,210.9Z" transform="translate(-9.28 -4.98)"/><path class="cls-8" d="M45.4,220.19c-.82,0-1.33,0-1.35,0a.5.5,0,0,1-.45-.55.51.51,0,0,1,.55-.45c.11,0,11.36,1,15.26-6.89a.5.5,0,0,1,.9.44C56.95,219.49,48.67,220.19,45.4,220.19Z" transform="translate(-9.28 -4.98)"/><path class="cls-8" d="M57.83,230.5a.5.5,0,0,1-.08-1c.33-.05,8.08-1.43,10.79-12.18a.5.5,0,0,1,1,.25C66.63,229,58,230.49,57.91,230.5Z" transform="translate(-9.28 -4.98)"/><path class="cls-8" d="M75.95,236.48a.5.5,0,0,1-.32-.88c4.46-3.78,2.67-15.24,2.65-15.36a.5.5,0,0,1,1-.16c.08.49,1.89,12.14-3,16.28A.5.5,0,0,1,75.95,236.48Z" transform="translate(-9.28 -4.98)"/><path class="cls-8" d="M95,236.06a.5.5,0,0,1-.4-.8c3.5-4.77-1.45-14.68-1.5-14.78A.5.5,0,1,1,94,220c.22.43,5.28,10.55,1.41,15.82A.5.5,0,0,1,95,236.06Z" transform="translate(-9.28 -4.98)"/><path class="cls-15" d="M86.53,221.24c-26,0-38.79-20.09-39-20.34a.5.5,0,0,1,.85-.53c.19.3,19.34,30.32,58.56,16a.5.5,0,1,1,.34.94A60.4,60.4,0,0,1,86.53,221.24Z" transform="translate(-9.28 -4.98)"/><path class="cls-15" d="M83.57,237.25a56.43,56.43,0,0,1-10.29-.93c-17.47-3.23-31.78-14.73-42.54-34.16a.5.5,0,1,1,.88-.48c16.57,29.92,41,40.43,72.71,31.26,2.26-.66,2.8-.81,3.16-.48a.67.67,0,0,1,.17.54.5.5,0,0,1-.59.39.49.49,0,0,1-.21-.1c-.38.05-1.3.32-2.26.6A73.89,73.89,0,0,1,83.57,237.25Z" transform="translate(-9.28 -4.98)"/><path class="cls-15" d="M37.3,202.86a43.36,43.36,0,0,1-6.2-.44h0A17,17,0,0,1,20.7,195.8c-2.65-3.81-3.38-8.78-2.19-14.75,1.38-6.88,4.15-11.93,8.26-15a15.33,15.33,0,0,1,11.88-2.83c7,1.19,12,6.63,11.25,12.12q-.14,1-.24,1.83a3.6,3.6,0,0,1,3-.23c2.21.63,3.49,2.89,3.59,6.39.21,6.8-4.05,16.6-9.65,18.55A45.64,45.64,0,0,1,37.3,202.86Zm-6.05-1.43a43.63,43.63,0,0,0,15.08-.5c5.15-1.81,9.11-11.09,8.92-17.56-.05-1.75-.5-4.79-2.87-5.46a2.13,2.13,0,0,0-2.92.95,41.22,41.22,0,0,0-.22,7,30.17,30.17,0,0,0,.64,3,.5.5,0,0,1-.88.44c-.1-.13-.6-.89-.77-3.4-.37-2.31-.6-5.33.25-7.24.11-1,.24-2.16.42-3.39.7-5-4-9.9-10.43-11-7.28-1.24-16.09,2.58-19,17-1.14,5.69-.46,10.39,2,14A16.27,16.27,0,0,0,31.25,201.43Z" transform="translate(-9.28 -4.98)"/><rect class="cls-7" x="22.52" y="120.74" width="12.47" height="1.6"/><line class="cls-7" x1="38.71" y1="157.09" x2="38.71" y2="157.09"/><path class="cls-7" d="M28.78,159.76s4-4.45,12.19,0a22.14,22.14,0,0,0,7,2.3L42.85,145V127.32H33.23V145l-4.45,14.78" transform="translate(-9.28 -4.98)"/><path class="cls-16" d="M28.78,159.76s4-4.45,12.19,0a22.14,22.14,0,0,0,7,2.3l6.17,20.49-1.51,5a62,62,0,0,1-29.23,0l-1.51-5,5.66-18.8Z" transform="translate(-9.28 -4.98)"/><path class="cls-14" d="M48,162.57h-.06a22.41,22.41,0,0,1-7.21-2.36C33,156,29.3,159.93,29.15,160.1a.5.5,0,0,1-.75-.67c.17-.19,4.32-4.7,12.8-.11a21.78,21.78,0,0,0,6.85,2.25.5.5,0,0,1-.06,1Z" transform="translate(-9.28 -4.98)"/><path class="cls-15" d="M44.27,127.82H31.81a.5.5,0,0,1-.5-.5v-1.6a.5.5,0,0,1,.5-.5H44.27a.5.5,0,0,1,.5.5v1.6A.5.5,0,0,1,44.27,127.82Zm-12-1H43.77v-.6H32.31Z" transform="translate(-9.28 -4.98)"/><path class="cls-15" d="M38.29,189.82a66.51,66.51,0,0,1-15-1.75.5.5,0,0,1-.37-.34l-1.51-5a.5.5,0,0,1,0-.29l11.29-37.5v-17.6a.5.5,0,0,1,.5-.5h9.62a.5.5,0,0,1,.5.5v17.6l11.29,37.5a.5.5,0,0,1,0,.29l-1.51,5a.5.5,0,0,1-.36.34A60.1,60.1,0,0,1,38.29,189.82Zm-14.47-2.66a61.82,61.82,0,0,0,28.44,0l1.38-4.61L42.37,145.13a.51.51,0,0,1,0-.14V127.82H33.73V145a.51.51,0,0,1,0,.14L22.44,182.56ZM33.23,145h0Z" transform="translate(-9.28 -4.98)"/><path class="cls-15" d="M39.24,179.16h-2.4a.5.5,0,0,1,0-1h2.4a.5.5,0,0,1,0,1Z" transform="translate(-9.28 -4.98)"/><path class="cls-15" d="M39.24,175.27h-2.4a.5.5,0,0,1,0-1h2.4a.5.5,0,0,1,0,1Z" transform="translate(-9.28 -4.98)"/><path class="cls-15" d="M39.24,171.38h-2.4a.5.5,0,0,1,0-1h2.4a.5.5,0,0,1,0,1Z" transform="translate(-9.28 -4.98)"/><path class="cls-15" d="M39.24,167.49h-2.4a.5.5,0,0,1,0-1h2.4a.5.5,0,0,1,0,1Z" transform="translate(-9.28 -4.98)"/><path class="cls-15" d="M39.24,163.6h-2.4a.5.5,0,0,1,0-1h2.4a.5.5,0,0,1,0,1Z" transform="translate(-9.28 -4.98)"/><path class="cls-15" d="M39.24,159.7h-2.4a.5.5,0,0,1,0-1h2.4a.5.5,0,0,1,0,1Z" transform="translate(-9.28 -4.98)"/><path class="cls-15" d="M39.24,155.81h-2.4a.5.5,0,0,1,0-1h2.4a.5.5,0,0,1,0,1Z" transform="translate(-9.28 -4.98)"/><path class="cls-15" d="M39.24,183.06h-2.4a.5.5,0,0,1-.5-.5V151.42a.5.5,0,0,1,.5-.5h2.4a.5.5,0,0,1,0,1h-1.9v30.14h1.9a.5.5,0,0,1,0,1Z" transform="translate(-9.28 -4.98)"/><path class="cls-14" d="M30,172.8A1.76,1.76,0,1,1,31.8,171,1.76,1.76,0,0,1,30,172.8Zm0-2.52a.76.76,0,1,0,.76.76A.76.76,0,0,0,30,170.28Z" transform="translate(-9.28 -4.98)"/><path class="cls-14" d="M32.56,178.34a1.76,1.76,0,1,1,1.76-1.76A1.76,1.76,0,0,1,32.56,178.34Zm0-2.52a.76.76,0,1,0,.76.76A.76.76,0,0,0,32.56,175.82Z" transform="translate(-9.28 -4.98)"/><path class="cls-7" d="M49.4,188.93s-3.72-13.43,3.12-11.5,1.9,21.2-6.09,24" transform="translate(-9.28 -4.98)"/><path class="cls-2" d="M52.52,177.43a3.09,3.09,0,0,0-2.6.19c5,2.25,4.24,10.41-.92,19.62-1.31,2.34-2.57,4.19-2.57,4.19C54.42,198.63,59.36,179.36,52.52,177.43Z" transform="translate(-9.28 -4.98)"/><path class="cls-15" d="M46.43,201.92a.5.5,0,0,1-.17-1c5.22-1.82,9.18-11.11,9-17.58-.05-1.75-.5-4.79-2.87-5.46a2.39,2.39,0,0,0-2.49.36c-1.88,1.87-.65,8.24,0,10.53a.5.5,0,0,1-1,.27c-.1-.36-2.41-8.84.27-11.51a3.34,3.34,0,0,1,3.47-.61c2.21.63,3.49,2.89,3.59,6.39.21,6.8-4.05,16.6-9.65,18.55A.49.49,0,0,1,46.43,201.92Z" transform="translate(-9.28 -4.98)"/><path class="cls-15" d="M23.43,188.08H21.1a.5.5,0,1,1,0-1h2.33a.5.5,0,1,1,0,1Z" transform="translate(-9.28 -4.98)"/><path class="cls-7" d="M106.06,211.07s-35.15-8.75-47.6-55.69a54.86,54.86,0,0,0-.18-12.61c-1.18-7.6-6.94-20.15-4.57-20.72s10.53,15.3,10.42,8.09-22.45-13.57-9.66-12.22,20.69,12.13,20.78,15.17c.22,7.34-4.16,19.55-4.16,19.55s16,41.8,46.72,44.64Z" transform="translate(-9.28 -4.98)"/><path class="cls-2" d="M75.17,132.6a60.27,60.27,0,0,1-4.09,20l-1.59,1.72-4.12,1.72C69,148.57,73.26,140.46,75.17,132.6Z" transform="translate(-9.28 -4.98)"/><path class="cls-2" d="M65.29,125.55c-.68-4.35-11.78-6.64-14.76-7.37,2.12,1.83,14.82,7.21,13.27,13.66A10.08,10.08,0,0,0,65.29,125.55Z" transform="translate(-9.28 -4.98)"/><path class="cls-2" d="M61.63,156s.15-1.53-1.33-7.43c-1.22-4.89-2.84-11-2-5.79a54.86,54.86,0,0,1,.18,12.61c12.46,46.95,47.6,55.69,47.6,55.69l5.33-6.26C103.55,202.85,75.93,195,61.63,156Z" transform="translate(-9.28 -4.98)"/><path class="cls-15" d="M58.46,155.87H58.4a.5.5,0,0,1-.44-.55,54.78,54.78,0,0,0-.18-12.48,79.88,79.88,0,0,0-2.87-10.62c-1.78-5.61-2.75-8.84-2-10.12a1.1,1.1,0,0,1,.71-.55c1.25-.31,2.91,1.79,5.52,5.24,1.37,1.81,3.68,4.81,4.32,4.73,0,0,.22-.2.2-1.37-.05-3.47-6-6.9-9.9-9.17-3-1.74-3.93-2.32-3.68-3.1.2-.61.92-.83,4.47-.46,13.21,1.39,21.13,12.4,21.22,15.65.22,7.35-4,19.23-4.19,19.73a.5.5,0,0,1-.94-.34c0-.12,4.35-12.2,4.13-19.36-.08-2.7-7.64-13.35-20.33-14.69a18.46,18.46,0,0,0-3.17-.16,30.86,30.86,0,0,0,3,1.85c4.12,2.38,10.34,6,10.4,10,0,.87-.06,2.05-.87,2.33-1.2.42-2.77-1.55-5.43-5.07-1.33-1.76-3.83-5-4.49-4.87,0,0,0,0-.07.07-.54,1,.87,5.4,2.12,9.32a80.47,80.47,0,0,1,2.91,10.77A55.84,55.84,0,0,1,59,155.43.5.5,0,0,1,58.46,155.87Z" transform="translate(-9.28 -4.98)"/><path class="cls-8" d="M63.29,165.1a15.58,15.58,0,0,1-2.36-.16.5.5,0,1,1,.17-1c.09,0,9.3,1.52,12.57-5.38a.5.5,0,1,1,.9.43C72.07,164.29,66.49,165.1,63.29,165.1Z" transform="translate(-9.28 -4.98)"/><path class="cls-8" d="M67.39,173.89a16.07,16.07,0,0,1-2.51-.18.5.5,0,0,1,.18-1c.09,0,9.33,1.58,13.3-5.31a.5.5,0,1,1,.87.5C76.25,173.07,70.64,173.89,67.39,173.89Z" transform="translate(-9.28 -4.98)"/><path class="cls-8" d="M72.81,183.59a13.23,13.23,0,0,1-2.42-.2.5.5,0,0,1,.21-1c.37.08,9.15,1.82,13.62-6.45a.5.5,0,0,1,.88.47A13.41,13.41,0,0,1,72.81,183.59Z" transform="translate(-9.28 -4.98)"/><path class="cls-8" d="M79.64,194.36h-.49a.5.5,0,0,1-.45-.54.51.51,0,0,1,.54-.45c.35,0,8.47.66,13.42-8.53a.5.5,0,1,1,.88.47C89,193.77,81.6,194.36,79.64,194.36Z" transform="translate(-9.28 -4.98)"/><path class="cls-8" d="M90.9,203.83a4.13,4.13,0,0,1-.69,0,.5.5,0,0,1,.18-1c.11,0,6.53.94,12.33-10.45a.5.5,0,0,1,.89.45C98.48,202.88,92.84,203.83,90.9,203.83Z" transform="translate(-9.28 -4.98)"/><path class="cls-15" d="M117.8,197.77h0c-30.69-2.83-46.83-45-47-45.38a.5.5,0,0,1,.94-.35c.16.42,16.08,42,46.15,44.74a.5.5,0,0,1,0,1Z" transform="translate(-9.28 -4.98)"/><path class="cls-15" d="M106.06,211.57h-.12c-.35-.09-35.58-9.36-48-56.05a.5.5,0,1,1,1-.26c12.23,46.1,46.89,55.25,47.24,55.34a.5.5,0,0,1-.12,1Z" transform="translate(-9.28 -4.98)"/><path class="cls-15" d="M63.49,156.59a19.27,19.27,0,0,1-5.18-.74.5.5,0,1,1,.29-1c.09,0,8.75,2.62,12.06-2.53a.5.5,0,0,1,.84.54C69.61,155.85,66.32,156.59,63.49,156.59Z" transform="translate(-9.28 -4.98)"/><path class="cls-3" d="M50.31,118.09l-5.4-3.16a.38.38,0,0,0-.52.12l-.91,1.46a.38.38,0,0,0,.12.52l28.06,16.41a.38.38,0,0,0,.52-.12l.91-1.46a.38.38,0,0,0-.12-.52l-13.74-8" transform="translate(-9.28 -4.98)"/><polyline class="cls-7" points="35.63 109.96 31.6 108.92 34.32 112.06"/><path class="cls-6" d="M43.6,117.54a.5.5,0,0,1-.38-.17l-2.72-3.14a.5.5,0,0,1,.5-.81l4,1a.5.5,0,0,1-.25,1l-2.48-.64L44,116.71a.5.5,0,0,1-.38.83Z" transform="translate(-9.28 -4.98)"/><path class="cls-13" d="M71.86,134a.88.88,0,0,1-.46-.13l-28-16.4a.88.88,0,0,1-.29-1.22l.91-1.46a.88.88,0,0,1,1.21-.28l5.38,3.15-.5.86-5.31-3.1L44,116.68,71.82,133l.78-1.25-13.62-8,.5-.86,13.74,8a.88.88,0,0,1,.29,1.22l-.91,1.46A.88.88,0,0,1,71.86,134Zm.05-1h0ZM44.66,115.37h0Z" transform="translate(-9.28 -4.98)"/><path class="cls-15" d="M60,124.24a.5.5,0,0,1-.26-.08c-1.9-1.18-4.08-2.26-5.82-3.13-3.29-1.63-4.32-2.19-4.11-3,.17-.64.9-.88,4.72-.63a.5.5,0,1,1-.07,1,20.74,20.74,0,0,0-3.41,0,34.13,34.13,0,0,0,3.31,1.77c1.76.88,4,2,5.9,3.18a.5.5,0,0,1-.26.92Z" transform="translate(-9.28 -4.98)"/><path class="cls-7" d="M63,131.91c-2.29-1.1-7.5-10.31-9.31-9.87-2.37.57,3.39,13.12,4.57,20.72" transform="translate(-9.28 -4.98)"/><path class="cls-2" d="M55.36,123s2.14,9.61,5.66,9.76,1.87-.92,1.87-.92Z" transform="translate(-9.28 -4.98)"/><path class="cls-15" d="M58.28,143.27a.5.5,0,0,1-.49-.42,79.88,79.88,0,0,0-2.87-10.62c-1.78-5.61-2.75-8.84-2-10.12a1.1,1.1,0,0,1,.71-.55c1.25-.31,2.91,1.79,5.52,5.24,1.37,1.81,3.68,4.81,4.32,4.73,0,0,.22-.2.2-1.37a.5.5,0,0,1,.49-.51.51.51,0,0,1,.51.49c0,.87-.06,2.05-.87,2.33-1.2.42-2.77-1.55-5.43-5.07-1.33-1.76-3.83-5-4.49-4.87,0,0,0,0-.07.07-.54,1,.87,5.4,2.12,9.32a80.47,80.47,0,0,1,2.91,10.77.5.5,0,0,1-.42.57Z" transform="translate(-9.28 -4.98)"/><path class="cls-7" d="M251.23,126c-12.83-1-22.54,8.19-23.18,11.16-1.29,6,0,15.92.41,19-.61,1-2,3.15-4.07,6l0,0,0,.05a106.88,106.88,0,0,1-13.75,15.43h0a74.07,74.07,0,0,1-9.54,7.44h0c-7.76,5-16.77,8.42-26.5,7.54l5.26,9.13h0l3.79,6.57s7.15-.45,16.9-4.8h0c1.56-.7,3.18-1.49,4.86-2.4q1.66-.9,3.37-2,2.17-1.33,4.4-2.93h0a75.41,75.41,0,0,0,6.16-5q2.19-2,4.38-4.23h0c.51-.54,1-1.08,1.54-1.64q1.17-1.29,2.33-2.68,1.66-2,3.28-4.2h0l0,0a94.06,94.06,0,0,0,5.2-7.91l.3,0-.22-.16c1.52-2.59,3-5.35,4.38-8.3A54.86,54.86,0,0,1,243,149.71c2.54-7.26,10.47-18.56,8.25-19.55s-13.13,13.14-11.71,6.07S264.06,127,251.23,126Z" transform="translate(-9.28 -4.98)"/><path class="cls-2" d="M239.39,138.45s-3.18,7.75-4,5.54-3.52-14.36,14.86-16.12c13.3-1.28-5.59,3.32-8.45,5.24C237.78,135.77,239.39,138.45,239.39,138.45Z" transform="translate(-9.28 -4.98)"/><path class="cls-15" d="M240.53,162.58h0A.5.5,0,0,1,240,162a55.9,55.9,0,0,1,2.49-12.5,80.56,80.56,0,0,1,4.81-10.06c1.93-3.63,4.13-7.74,3.77-8.79,0-.06,0-.07-.06-.08-.63-.28-3.67,2.49-5.3,4-3.26,3-5.15,4.63-6.26,4-.75-.42-.61-1.6-.44-2.45.79-4,7.56-6.37,12-8a30.79,30.79,0,0,0,3.27-1.28,18.32,18.32,0,0,0-3.15-.42c-12.73-1-22.08,8.13-22.65,10.76-1.51,7,.39,18.71.41,18.83a.5.5,0,1,1-1,.16c-.08-.49-2-12-.4-19.2.68-3.17,10.45-12.58,23.71-11.55,3.56.28,4.23.63,4.32,1.26.11.81-.92,1.22-4.18,2.38-4.27,1.52-10.72,3.83-11.4,7.23-.23,1.17,0,1.39,0,1.39.63.21,3.42-2.35,5.09-3.87,3.19-2.91,5.21-4.67,6.38-4.15a1.1,1.1,0,0,1,.6.67c.48,1.39-1.07,4.39-3.83,9.58a79.91,79.91,0,0,0-4.75,9.92A54.68,54.68,0,0,0,241,162.11.5.5,0,0,1,240.53,162.58Z" transform="translate(-9.28 -4.98)"/><path class="cls-2" d="M238.61,161c-21.64,37-52.54,40.35-58.77,40.65l3.79,6.57s36.15-2.24,56.9-46.16Z" transform="translate(-9.28 -4.98)"/><path class="cls-8" d="M235.75,171h0c-.1,0-9.63-.37-11.79-8.48a.5.5,0,1,1,1-.26c2,7.4,10.76,7.74,10.85,7.74a.5.5,0,0,1,0,1Z" transform="translate(-9.28 -4.98)"/><path class="cls-8" d="M230.9,179h0c-.1,0-10.36-.71-13.25-8.86a.5.5,0,1,1,.94-.33c2.67,7.52,12.27,8.19,12.37,8.19a.5.5,0,0,1,0,1Z" transform="translate(-9.28 -4.98)"/><path class="cls-8" d="M223.7,187.48c-.1,0-10.43-.11-13.56-9.76a.5.5,0,0,1,1-.31c2.9,8.95,12.21,9.07,12.61,9.07a.5.5,0,0,1,0,1Z" transform="translate(-9.28 -4.98)"/><path class="cls-8" d="M213.17,196.66h0c-.09,0-9.1-.92-12.52-11.5a.5.5,0,1,1,1-.31c3.22,10,11.57,10.81,11.66,10.81a.5.5,0,0,1,0,1Z" transform="translate(-9.28 -4.98)"/><path class="cls-8" d="M200.54,203.94c-.3,0-7.3-.15-11.19-13.22a.5.5,0,1,1,1-.29c3.67,12.36,10.17,12.51,10.23,12.51a.5.5,0,0,1,0,1Z" transform="translate(-9.28 -4.98)"/><path class="cls-15" d="M183.63,208.74a.5.5,0,0,1-.43-.25l-9.05-15.7a.5.5,0,0,1,.48-.75c30.07,2.72,53.18-35.77,53.4-36.16a.5.5,0,1,1,.86.51c-.23.39-23.17,38.6-53.4,36.72l8.42,14.6c3.54-.36,36.8-4.85,56.17-45.84a.5.5,0,1,1,.9.43c-10.78,22.81-25.77,34.22-36.45,39.78-11.59,6-20.78,6.66-20.87,6.67Z" transform="translate(-9.28 -4.98)"/><path class="cls-15" d="M240.43,162.58c-1.11,0-10-.19-12.44-6.25a.5.5,0,1,1,.93-.38c2.34,5.7,11.5,5.64,11.6,5.63h0a.5.5,0,0,1,0,1Z" transform="translate(-9.28 -4.98)"/><path class="cls-7" d="M262.08,127.07l-18.57,7a.38.38,0,0,1-.49-.21l-.63-1.6a.38.38,0,0,1,.21-.49l18.57-7a.38.38,0,0,1,.49.21l.63,1.6A.38.38,0,0,1,262.08,127.07Z" transform="translate(-9.28 -4.98)"/><path class="cls-14" d="M243.37,134.6a.89.89,0,0,1-.35-.07.87.87,0,0,1-.47-.48l-.63-1.6a.88.88,0,0,1,.49-1.14l18.58-7a.86.86,0,0,1,.67,0,.87.87,0,0,1,.47.48l.63,1.6a.88.88,0,0,1-.49,1.14h0l-18.57,7A.85.85,0,0,1,243.37,134.6Zm0-1h0Zm-.43-1.42.54,1.37,18.34-6.92-.55-1.37Zm19.18-5.13h0Zm-.73-1.84h0Z" transform="translate(-9.28 -4.98)"/><path class="cls-7" d="M243,149.71c2.54-7.26,10.47-18.56,8.25-19.55s-13.13,13.14-11.71,6.07" transform="translate(-9.28 -4.98)"/><path class="cls-15" d="M243,150.21l-.17,0a.5.5,0,0,1-.31-.64,80.59,80.59,0,0,1,4.81-10.06c1.93-3.63,4.13-7.74,3.77-8.79,0-.06,0-.07-.06-.08-.63-.28-3.67,2.49-5.3,4-3.26,3-5.15,4.63-6.26,4-.75-.42-.61-1.6-.44-2.45a.5.5,0,1,1,1,.2c-.23,1.17,0,1.39,0,1.39.63.21,3.42-2.35,5.09-3.87,3.19-2.91,5.21-4.67,6.38-4.15a1.1,1.1,0,0,1,.6.67c.48,1.39-1.07,4.39-3.83,9.58a79.91,79.91,0,0,0-4.75,9.92A.5.5,0,0,1,243,150.21Z" transform="translate(-9.28 -4.98)"/><path class="cls-2" d="M248.74,137.3s-8.6,4.75-10.27,13.39-.94,11.14-.94,11.14l3,.25s1.12-9.82,2.53-13.15C244.8,144.81,248.74,137.3,248.74,137.3Z" transform="translate(-9.28 -4.98)"/><path class="cls-15" d="M240.43,162.58c-1.11,0-10-.19-12.44-6.25a.5.5,0,1,1,.93-.38c2.34,5.7,11.5,5.64,11.6,5.63h0a.5.5,0,0,1,0,1Z" transform="translate(-9.28 -4.98)"/><path class="cls-15" d="M240.53,162.58h0A.5.5,0,0,1,240,162a55.9,55.9,0,0,1,2.49-12.5,80.56,80.56,0,0,1,4.81-10.06c1.93-3.63,4.13-7.74,3.77-8.79,0-.06,0-.07-.06-.08a.5.5,0,0,1,.41-.91,1.1,1.1,0,0,1,.6.67c.48,1.39-1.07,4.39-3.83,9.58a79.91,79.91,0,0,0-4.75,9.92A54.68,54.68,0,0,0,241,162.11.5.5,0,0,1,240.53,162.58Z" transform="translate(-9.28 -4.98)"/><path class="cls-7" d="M174,233.63s33.44,8.39,73.35-19.29c7.54-5.23,20.83-10.5,25.51-19.81s4.86-17.84.57-17.84-18,15.86-18,15.86,1.71-10.43-2.57-8.51-12.41,18.8-12.41,18.8S199.21,233.27,174,215.51" transform="translate(-9.28 -4.98)"/><path class="cls-2" d="M255.4,185.51l0,0v0Z" transform="translate(-9.28 -4.98)"/><path class="cls-2" d="M272.83,187.49c-4.68,9.3-18,14.58-25.51,19.81C207.41,235,174,226.59,174,226.59v7s33.44,8.39,73.35-19.29c7.54-5.23,20.83-10.5,25.51-19.81,3.31-6.58,4.36-12.76,3.18-15.83A36.81,36.81,0,0,1,272.83,187.49Z" transform="translate(-9.28 -4.98)"/><path class="cls-15" d="M247.32,214.84a.5.5,0,0,1-.22-.05c-8.36-4.08-7.18-11.95-7.17-12a.5.5,0,0,1,1,.16c0,.29-1.06,7.22,6.62,11a.5.5,0,0,1-.22.95Z" transform="translate(-9.28 -4.98)"/><path class="cls-8" d="M238.48,220.35a.5.5,0,0,1-.22-.05c-8.37-4.08-6.91-12-6.9-12a.5.5,0,0,1,1,.19c-.06.29-1.31,7.22,6.36,11a.5.5,0,0,1-.22.95Z" transform="translate(-9.28 -4.98)"/><path class="cls-8" d="M228.55,225.64l-.17,0c-8.79-3.15-6.71-12.43-6.68-12.52a.51.51,0,0,1,.6-.37.5.5,0,0,1,.37.6c-.08.35-1.89,8.51,6,11.35a.5.5,0,0,1-.17,1Z" transform="translate(-9.28 -4.98)"/><path class="cls-8" d="M218.38,229.76l-.14,0a8.91,8.91,0,0,1-5.71-4.24c-2-3.68-.7-8-.64-8.21a.5.5,0,0,1,1,.29s-1.23,4.14.57,7.44a8,8,0,0,0,5.1,3.75.5.5,0,0,1-.14,1Z" transform="translate(-9.28 -4.98)"/><path class="cls-8" d="M202.67,233.88l-.14,0a7.74,7.74,0,0,1-5.15-4c-2-4.1.11-9.38.2-9.6a.5.5,0,1,1,.93.38c0,.05-2,5.09-.23,8.79a6.78,6.78,0,0,0,4.52,3.48.5.5,0,0,1-.14,1Z" transform="translate(-9.28 -4.98)"/><path class="cls-15" d="M186.64,235.28a59.49,59.49,0,0,1-12.79-1.16.5.5,0,0,1,.24-1c.33.08,33.7,8,72.94-19.22,2-1.41,4.46-2.81,7-4.3,7-4,15-8.64,18.32-15.32,3.77-7.48,4.29-13.74,2.87-16.05a2,2,0,0,0-1.85-1.06c-3.33,0-13.85,11.33-17.62,15.69a.5.5,0,0,1-.87-.41c.42-2.59.64-7-.6-8-.11-.09-.45-.35-1.28,0-4.07,1.82-12.08,18.4-12.16,18.56a.5.5,0,0,1-.15.19c-.41.31-41.79,30.44-67,12.68a.5.5,0,0,1,.58-.82c24.07,16.93,63.51-11,65.77-12.59.78-1.61,8.34-17,12.6-18.93a2.12,2.12,0,0,1,2.3.1c1.54,1.19,1.41,5,1.18,7.3,3.48-3.92,13.47-14.8,17.29-14.8a3.05,3.05,0,0,1,2.7,1.54c1.86,3,.7,10-2.83,17s-11.58,11.62-18.71,15.74c-2.55,1.47-5,2.87-7,4.25C222.68,232,200.07,235.28,186.64,235.28Z" transform="translate(-9.28 -4.98)"/><path class="cls-14" d="M177.11,191.24H107.94l-12.57-64c-5.67-28.89,15.56-56.59,45-57.59l1.67,0h0a48.23,48.23,0,0,1,28.37,9.17c14.86,10.75,21.9,29.35,18.6,47.39Z" transform="translate(-9.28 -4.98)"/><path class="cls-15" d="M177.12,191.74H107.94a.5.5,0,0,1-.49-.4l-12.57-64a49.14,49.14,0,0,1,9.77-40.1,47.63,47.63,0,0,1,35.69-18.08l1.68,0a48.59,48.59,0,0,1,28.66,9.26c14.78,10.69,22.16,29.49,18.8,47.89l-11.88,65.06A.5.5,0,0,1,177.12,191.74Zm-68.76-1H176.7l11.81-64.65c3.29-18-3.93-36.43-18.4-46.9A47.6,47.6,0,0,0,142,70.12l-1.65,0a46.63,46.63,0,0,0-34.94,17.71,48.14,48.14,0,0,0-9.58,39.28Z" transform="translate(-9.28 -4.98)"/><path class="cls-15" d="M177.12,191.74H107.94a.5.5,0,0,1-.49-.4l-12.57-64a49.14,49.14,0,0,1,9.77-40.1,47.63,47.63,0,0,1,35.69-18.08l1.68,0a48.59,48.59,0,0,1,28.66,9.26c14.78,10.69,22.16,29.49,18.8,47.89l-11.88,65.06A.5.5,0,0,1,177.12,191.74Zm-68.76-1H176.7l11.81-64.65c3.29-18-3.93-36.43-18.4-46.9A47.6,47.6,0,0,0,142,70.12l-1.65,0a46.63,46.63,0,0,0-34.94,17.71,48.14,48.14,0,0,0-9.58,39.28Z" transform="translate(-9.28 -4.98)"/><path class="cls-17" d="M173.54,270.5l5.46-36c-1.7-5.33-1.17-10.4,2.62-15.1l2.73-11.17c-1.41-7.16-.76-13,2.94-16.93,1.17-6.09-2.52-4.15-8.49-5.82l-10.69-3a93.13,93.13,0,0,0-25-3.43h-2.28a93.13,93.13,0,0,0-25.32,3.51l-10.19,2.88c-4.46,1.26-10.06,1-8.47,2.58,3,3,5.25,22.44,3.07,20.9l1.9,10.58c2.43,3.21,3.21,8.26,2.58,14.89l6.21,36.14" transform="translate(-9.28 -4.98)"/><path class="cls-18" d="M108.75,256.44c0,1.63.08,3.24.22,4.84l1.58,9.22c19.44,2.62,40.6,2.34,63,0l5.46-36c-1.7-5.33-1.17-10.4,2.62-15.1l2.73-11.17a37.34,37.34,0,0,1-.59-4.17,55.84,55.84,0,0,0-75,52.41Z" transform="translate(-9.28 -4.98)"/><path class="cls-19" d="M110.55,271a.5.5,0,0,1-.49-.42l-6.21-36.14a.48.48,0,0,1,0-.13c.63-6.63-.2-11.52-2.48-14.54a.5.5,0,0,1-.09-.21L99.38,209a.5.5,0,0,1,.22-.51.51.51,0,0,1,.42-.05c.92-1.9-.84-17.34-3.58-20.07a1.06,1.06,0,0,1-.38-1.11c.26-.79,1.46-1,4.13-1.37a37.84,37.84,0,0,0,4.94-.93l10.19-2.88a93.61,93.61,0,0,1,25.46-3.53h2.28A93.63,93.63,0,0,1,168.22,182l10.69,3a28.27,28.27,0,0,0,4.32.79c1.91.24,3.41.43,4.2,1.51.61.84.71,2.1.33,4.09a.5.5,0,0,1-.13.25c-3.37,3.57-4.29,9-2.81,16.49a.51.51,0,0,1,0,.21l-2.73,11.17a.49.49,0,0,1-.1.2c-3.47,4.3-4.3,9.09-2.53,14.63a.51.51,0,0,1,0,.23l-5.46,36a.5.5,0,0,1-1-.15l5.44-35.92c-1.82-5.8-.95-10.83,2.67-15.37l2.68-11c-1.5-7.74-.52-13.35,3-17.16.29-1.59.23-2.6-.18-3.18-.53-.73-1.78-.89-3.51-1.11a29.68,29.68,0,0,1-4.47-.82l-10.69-3a92.64,92.64,0,0,0-24.9-3.41h-2.28A92.59,92.59,0,0,0,115.59,183l-10.19,2.88a38.78,38.78,0,0,1-5.07,1,13.53,13.53,0,0,0-3.27.68l.09.11c1.94,1.94,3.14,9,3.46,11.16.14.91,1.31,9,.11,10.38a.9.9,0,0,1-.25.21l1.77,9.88c2.37,3.21,3.25,8.28,2.61,15.07L111,270.42a.5.5,0,0,1-.41.58Z" transform="translate(-9.28 -4.98)"/><path class="cls-2" d="M151.4,179.34c0,3.41-18.73,3.41-18.73,0V164.9H151.4Z" transform="translate(-9.28 -4.98)"/><path class="cls-15" d="M151.4,179.84h0a.5.5,0,0,1-.5-.5V165.41H133.17v13.93a.5.5,0,0,1-1,0V164.91a.5.5,0,0,1,.5-.5H151.4a.5.5,0,0,1,.5.5v14.43A.5.5,0,0,1,151.4,179.84Z" transform="translate(-9.28 -4.98)"/><path class="cls-19" d="M142,182.39a29.22,29.22,0,0,1-6.56-.65c-2.2-.53-3.31-1.34-3.31-2.4a.5.5,0,0,1,1,0c0,1,3.56,2.05,8.87,2.05s8.86-1.06,8.86-2.05a.5.5,0,0,1,1,0C151.9,182.24,143.69,182.39,142,182.39Z" transform="translate(-9.28 -4.98)"/><path class="cls-19" d="M157.44,242.53h-.08L142,240.12l-15.34,2a.5.5,0,0,1-.13-1l15.41-2h.14l15.41,2.41a.5.5,0,0,1-.08,1Z" transform="translate(-9.28 -4.98)"/><path class="cls-19" d="M159.9,245a3,3,0,1,1,3-3A3,3,0,0,1,159.9,245Zm0-4.92a2,2,0,1,0,2,2A2,2,0,0,0,159.9,240.07Z" transform="translate(-9.28 -4.98)"/><path class="cls-19" d="M124.19,245a3,3,0,1,1,3-3A3,3,0,0,1,124.19,245Zm0-4.92a2,2,0,1,0,2,2A2,2,0,0,0,124.19,240.07Z" transform="translate(-9.28 -4.98)"/><polyline class="cls-5" points="167.04 100.95 176.67 101.58 176.67 100.09 167.04 99.46"/><path class="cls-15" d="M186.91,107.11h0l-10.11-.68a.5.5,0,0,1-.47-.53.51.51,0,0,1,.53-.47l9.68.65.1-.48-9.84-.66a.5.5,0,0,1-.47-.53.51.51,0,0,1,.53-.47l10.41.7a.5.5,0,0,1,.46.6l-.3,1.47A.5.5,0,0,1,186.91,107.11Z" transform="translate(-9.28 -4.98)"/><circle class="cls-20" cx="177.93" cy="101.28" r="3.22"/><path class="cls-21" d="M187.21,110a3.72,3.72,0,1,1,3.72-3.72A3.73,3.73,0,0,1,187.21,110Zm0-6.44a2.72,2.72,0,1,0,2.72,2.72A2.72,2.72,0,0,0,187.21,103.54Z" transform="translate(-9.28 -4.98)"/><polyline class="cls-5" points="98.18 100.95 88.56 101.58 88.56 100.09 98.18 99.46"/><path class="cls-15" d="M96.88,107.11a.5.5,0,0,1-.49-.4l-.3-1.47a.5.5,0,0,1,.46-.6l10.41-.7a.51.51,0,0,1,.53.47.5.5,0,0,1-.47.53l-9.84.66.1.48,9.68-.65a.51.51,0,0,1,.53.47.5.5,0,0,1-.47.53l-10.11.68Z" transform="translate(-9.28 -4.98)"/><circle class="cls-20" cx="87.3" cy="101.28" r="3.22"/><path class="cls-21" d="M96.58,110a3.72,3.72,0,1,1,3.72-3.72A3.73,3.73,0,0,1,96.58,110Zm0-6.44a2.72,2.72,0,1,0,2.72,2.72A2.72,2.72,0,0,0,96.58,103.54Z" transform="translate(-9.28 -4.98)"/><path class="cls-2" d="M107.15,106c4.54-28.34,63.68-28.66,69.43-.94l0,.09a72.18,72.18,0,0,1,1.35,16c0,28.42-16.12,51.46-36,51.46s-36-23-36-51.46a71.63,71.63,0,0,1,1.15-14.81Z" transform="translate(-9.28 -4.98)"/><path class="cls-7" d="M107.18,105.79l0,.17,0,.31a71.63,71.63,0,0,0-1.15,14.81,69.9,69.9,0,0,0,3.68,22.67,32,32,0,0,1,4.56-.77c18.69-2.57,37.71,6.86,56.46,9.17a66.68,66.68,0,0,0,7.31-31.07,72.18,72.18,0,0,0-1.35-16l0-.09a20.11,20.11,0,0,0-2.16-5.78C154.12,111.62,129.32,112.69,107.18,105.79Z" transform="translate(-9.28 -4.98)"/><path class="cls-15" d="M142,173c-20.13,0-36.5-23.31-36.5-52a71.29,71.29,0,0,1,1.16-14.91.5.5,0,0,1,1,.21,70.43,70.43,0,0,0-1.14,14.71c0,28.1,15.92,51,35.5,51s35.5-22.86,35.5-51a72,72,0,0,0-1.34-15.86.5.5,0,1,1,1-.22,72.86,72.86,0,0,1,1.37,16.08C178.54,149.72,162.17,173,142,173Z" transform="translate(-9.28 -4.98)"/><path class="cls-22" d="M107.73,106l-1-.16c2.34-14.65,18.78-21.55,34-21.9s33.3,6.05,36.39,20.94l-1,.2c-3-14.33-20.4-20.49-35.39-20.14C126,85.31,110,92,107.73,106Z" transform="translate(-9.28 -4.98)"/><path class="cls-15" d="M107.24,106.45h-.08a.5.5,0,0,1-.41-.57c2.34-14.65,18.78-21.55,34-21.9s33.3,6.05,36.39,20.94a.5.5,0,0,1-1,.2c-3-14.33-20.4-20.49-35.39-20.14C126,85.31,110,92,107.73,106A.5.5,0,0,1,107.24,106.45Z" transform="translate(-9.28 -4.98)"/><polygon class="cls-20" points="132.81 130.72 134.91 133.04 137.01 135.36 132.81 135.36 128.61 135.36 130.71 133.04 132.81 130.72"/><path class="cls-21" d="M146.29,140.83H137.9a.5.5,0,0,1-.37-.84l4.2-4.63a.51.51,0,0,1,.74,0l4.2,4.63a.5.5,0,0,1-.37.84Zm-7.27-1h6.14l-3.07-3.39Z" transform="translate(-9.28 -4.98)"/><path class="cls-15" d="M114.79,115.62a.5.5,0,0,1-.43-.76c.05-.09,5.42-8.76,12.83-6.06a.5.5,0,0,1-.34.94c-6.64-2.42-11.58,5.56-11.63,5.64A.5.5,0,0,1,114.79,115.62Z" transform="translate(-9.28 -4.98)"/><path class="cls-15" d="M168.62,115.62a.5.5,0,0,1-.43-.24c0-.08-5-8.06-11.63-5.64a.5.5,0,0,1-.34-.94c7.41-2.7,12.78,6,12.83,6.06a.5.5,0,0,1-.43.76Z" transform="translate(-9.28 -4.98)"/><path class="cls-15" d="M141.77,157.46c-5.35,0-10.69-2.44-11.36-8.15a.5.5,0,0,1,1-.12c.64,5.46,6.2,7.57,11.42,7.23,5-.32,10.06-2.88,10-7.17a.5.5,0,0,1,.5-.5h0a.5.5,0,0,1,.5.5c0,4.91-5.48,7.83-11,8.18C142.52,157.45,142.14,157.46,141.77,157.46Z" transform="translate(-9.28 -4.98)"/><circle class="cls-14" cx="106.06" cy="127.22" r="0.55"/><path class="cls-14" d="M115.34,133.24a1.05,1.05,0,1,1,1.05-1.05A1.05,1.05,0,0,1,115.34,133.24Zm0-1.1v.1l.05-.05A.05.05,0,0,0,115.34,132.14Z" transform="translate(-9.28 -4.98)"/><circle class="cls-14" cx="116.69" cy="132.6" r="0.44"/><path class="cls-14" d="M126,138.52a.94.94,0,1,1,.94-.94A.94.94,0,0,1,126,138.52Zm0-1-.06.06a.06.06,0,0,0,.06.06Z" transform="translate(-9.28 -4.98)"/><circle class="cls-14" cx="124.85" cy="127.77" r="0.44"/><path class="cls-14" d="M134.13,133.68a.94.94,0,1,1,.94-.94A.94.94,0,0,1,134.13,133.68Zm0-1-.06.06a.06.06,0,0,0,.06.06Z" transform="translate(-9.28 -4.98)"/><circle class="cls-14" cx="140.11" cy="128.31" r="0.55"/><path class="cls-14" d="M149.39,134.34a1.05,1.05,0,1,1,1.05-1.05A1.05,1.05,0,0,1,149.39,134.34Zm0-1.1v.1l.05-.05A.05.05,0,0,0,149.39,133.24Z" transform="translate(-9.28 -4.98)"/><circle class="cls-14" cx="150.74" cy="133.7" r="0.44"/><path class="cls-14" d="M160,139.61a.94.94,0,1,1,.94-.94A.94.94,0,0,1,160,139.61Zm0-1-.06.06a.06.06,0,0,0,.06.06Z" transform="translate(-9.28 -4.98)"/><circle class="cls-14" cx="158.9" cy="128.86" r="0.44"/><path class="cls-14" d="M168.18,134.78a.94.94,0,1,1,.94-.94A.94.94,0,0,1,168.18,134.78Zm0-1-.06.06a.06.06,0,0,0,.06.06Z" transform="translate(-9.28 -4.98)"/><path class="cls-15" d="M158,131.95a1.69,1.69,0,0,1-.85-.23,2.93,2.93,0,0,1-1.19-2.67v-5.8a.5.5,0,0,1,.42-.49c.08,0,.28-.14.54-.54a4.58,4.58,0,0,0,.72-2.3.47.47,0,0,1,0-.49.5.5,0,0,1,.44-.24h1.57c.11,0,.36.06.74.09a.5.5,0,0,1,.12,1l-.41.13V129a3,3,0,0,1-1.23,2.68A1.71,1.71,0,0,1,158,131.95Zm-1-8.36V129a2,2,0,0,0,.7,1.8.67.67,0,0,0,.7,0,2.05,2.05,0,0,0,.73-1.82v-8.86h-.45a6.13,6.13,0,0,1-.56,2A3.23,3.23,0,0,1,156.93,123.58Z" transform="translate(-9.28 -4.98)"/><path class="cls-15" d="M160.92,120.28l-.64,0a.5.5,0,1,1,.08-1,4.6,4.6,0,0,0,3.81-1.19.5.5,0,0,1,.76.65A5.18,5.18,0,0,1,160.92,120.28Z" transform="translate(-9.28 -4.98)"/><path class="cls-15" d="M125.4,131.95a1.69,1.69,0,0,1-.85-.23,2.93,2.93,0,0,1-1.19-2.67v-5.8a.5.5,0,0,1,.42-.49c.08,0,.28-.14.54-.54a4.58,4.58,0,0,0,.72-2.3.47.47,0,0,1,0-.49.5.5,0,0,1,.44-.24H127c.11,0,.36.06.74.09a.5.5,0,0,1,.12,1l-.41.13V129a3,3,0,0,1-1.23,2.68A1.71,1.71,0,0,1,125.4,131.95Zm-1-8.36V129a2,2,0,0,0,.7,1.8.67.67,0,0,0,.7,0,2.05,2.05,0,0,0,.73-1.82v-8.86H126a6.12,6.12,0,0,1-.56,2A3.23,3.23,0,0,1,124.35,123.58Z" transform="translate(-9.28 -4.98)"/><path class="cls-15" d="M128.34,120.28l-.64,0a.5.5,0,0,1,.08-1,4.6,4.6,0,0,0,3.81-1.19.5.5,0,0,1,.76.65A5.18,5.18,0,0,1,128.34,120.28Z" transform="translate(-9.28 -4.98)"/><path class="cls-15" d="M158.05,119.68c.32.53-.59,3.4-1.62,3.56V129c0,3.21,3.12,3.19,3.13,0v-9l.76-.25a6.65,6.65,0,0,1-.7-.09Z" transform="translate(-9.28 -4.98)"/><path class="cls-15" d="M160.32,119.76a5.08,5.08,0,0,0,4.23-1.36" transform="translate(-9.28 -4.98)"/><path class="cls-15" d="M125.47,119.68c.32.53-.59,3.4-1.62,3.56V129c0,3.21,3.12,3.19,3.13,0v-9l.76-.25a6.65,6.65,0,0,1-.7-.09Z" transform="translate(-9.28 -4.98)"/><path class="cls-15" d="M127.74,119.76a5.08,5.08,0,0,0,4.23-1.36" transform="translate(-9.28 -4.98)"/></svg>