<?xml version="1.0" encoding="utf-8"?>
<!-- Generator: Adobe Illustrator 20.1.0, SVG Export Plug-In . SVG Version: 6.00 Build 0)  -->
<svg version="1.1" id="Layer_1" xmlns="http://www.w3.org/2000/svg" xmlns:xlink="http://www.w3.org/1999/xlink" x="0px" y="0px"
	 viewBox="0 0 887 635" style="enable-background:new 0 0 887 635;" xml:space="preserve">
<style type="text/css">
	.st0{opacity:0.5;enable-background:new    ;}
	.st1{fill:#A9D7F3;}
	.st2{fill:#3AA1D6;}
	.st3{fill:#1785C8;}
	.st4{fill:#164A67;}
	.st5{fill:#E7F1F8;}
	.st6{fill:#40565B;}
	.st7{fill:#29B99A;}
	.st8{fill:#0F716F;}
	.st9{fill:#8FD1BE;}
	.st10{fill:#FFFFFF;}
	.st11{fill:#D0E4F0;}
	.st12{fill:#A1C2D8;}
	.st13{fill:#DD5566;}
	.st14{fill:#C14257;}
	.st15{fill:#BC1A3C;}
	.st16{fill:#F36F42;}
	.st17{fill:#C84A27;}
	.st18{fill:#8C6844;}
	.st19{fill:#705230;}
	.st20{opacity:7.000000e-02;fill:#3F555A;}
	.st21{fill:#84A5B7;}
</style>
<g>
	<g class="st0">
		<path class="st1" d="M700.1,452.3c0-3.7,15.6-6.8,34.8-6.8c19.2,0,55.5,3,55.5,6.8s-36.3,6.8-55.5,6.8
			C715.7,459.1,700.1,456.1,700.1,452.3z"/>
		<path class="st1" d="M568.9,87.7c0-3.7,15.6-6.8,34.8-6.8c19.2,0,55.5,3,55.5,6.8s-36.3,6.8-55.5,6.8
			C584.5,94.5,568.9,91.5,568.9,87.7z"/>
		<g>
			<path class="st1" d="M763.3,363.2c0,0-24.8,10.3-22.2-32.1c2.6-42.4,22.2-31.1,22.2-31.1s66.1,14.6,75.4-40.3c-0.7,0-1.4,0-2.2,0
				c-20.4,0-20.4-20.9,0-20.9c1,0,2,0,3,0c-0.2-2.4-0.4-4.8-0.7-7.4c-10.9-87.7-127.2-25.5-151.2-44.6c-24-19.1-22.1-62.5-22.1-62.5
				s5.3-12.8,3.4-29.5c-24.8,5.3-61.1,8.8-84.7,8.8c-38.7,0-70.1-9.4-70.1-21c0-11.6,31.4-21,70.1-21c20.7,0,51.3,2.7,75.3,7
				c-16.4-25.4-58.3-50-158.8-50c-208.6,0-160,105.6-160,105.6s-20,43.4-55,62.5s-204.5-43-220.3,44.6
				c-15.9,87.7,32.7,70.1,32.7,70.1s28.6-11.2,32.4,31.1c3.7,42.4-32.4,32.1-32.4,32.1s-103.7-0.1-84.1,114.9
				c2.2,12.9,8.4,23.3,16.8,31.6C51.4,502.7,85.9,497,125,497c62.4,0,113,14.3,113,32c0,6-5.8,11.6-15.9,16.4c0,0,254.2,4,295,28.6
				c40.8,24.6,53.8,47.7,94,41.3c60.2-9.6,63.9-69.5,92.4-69.8c28.5-0.4,83,0,83,0s79.9,0.8,87.6-65.8
				C887.6,364.6,763.3,363.2,763.3,363.2z M248.4,368.3c-49.6,0-89.8-9.4-89.8-20.9c0-11.5,40.2-20.9,89.8-20.9
				c49.6,0,89.8,9.4,89.8,20.9C338.2,358.9,298,368.3,248.4,368.3z M728.7,473.2c-48.2,0-87.2-9.4-87.2-20.9
				c0-11.5,39-20.9,87.2-20.9c48.2,0,87.2,9.4,87.2,20.9C815.9,463.9,776.8,473.2,728.7,473.2z"/>
		</g>
		<ellipse class="st1" cx="226.4" cy="347.4" rx="49.4" ry="6.8"/>
		<ellipse class="st1" cx="114.7" cy="518.7" rx="75.6" ry="10.4"/>
	</g>
	<g>
		<g>
			<g>
				<path class="st2" d="M212.3,530.7c19.5-11.1,33.9-116.7,11.6-126.2c-19.3-8.2-65.6,78.7-59.9,117.5"/>
				
					<ellipse transform="matrix(0.9475 -0.3198 0.3198 0.9475 -154.8061 89.0318)" class="st2" cx="193.7" cy="515.9" rx="30.5" ry="21.6"/>
				<path class="st3" d="M193.9,530.1c16-5.4,25.8-18.9,22-30.2c-0.4-1.2-0.9-2.3-1.6-3.3c4,2.2,6.9,5.4,8.3,9.5
					c3.8,11.3-6,24.8-22,30.2c-14.3,4.8-28.7,1.5-34.3-7.4C173.4,532.9,183.6,533.6,193.9,530.1z"/>
				<path class="st3" d="M222.6,506.1c-2.6-7.7-10.8-12.3-20.7-12.9l24.5-87.2l0,0c14.8,12.8,9.1,76.9-3.3,108.2
					C223.6,511.5,223.5,508.8,222.6,506.1z"/>
			</g>
			<g>
				<path class="st4" d="M164,522.5c-0.2,0-0.5-0.2-0.5-0.4c-4.7-31.5,25.6-97.1,48.1-114.5c4.9-3.8,9.1-5,12.5-3.5
					c4.7,2,12.5,10.7,11.2,45.9c-0.9,22.7-5.5,48.3-11.8,65.1c-0.1,0.3-0.4,0.4-0.6,0.3c-0.3-0.1-0.4-0.4-0.3-0.6
					c12.7-34.1,18.2-102.4,1.2-109.7c-3-1.3-6.9-0.1-11.5,3.4c-22.3,17.3-52.4,82.3-47.8,113.5C164.5,522.2,164.4,522.4,164,522.5
					C164.1,522.4,164,522.5,164,522.5z"/>
				<path class="st4" d="M187.5,539.1c-3.3,0-6.5-0.4-9.5-1.3c-6.9-2.1-11.8-6.3-13.7-11.9c-3.9-11.6,6.1-25.4,22.3-30.9
					c7.8-2.6,15.9-3,22.8-0.9c6.9,2.1,11.8,6.3,13.7,11.9c3.9,11.6-6.1,25.4-22.3,30.9C196.3,538.3,191.8,539.1,187.5,539.1z
					 M199.9,493.7c-4.2,0-8.6,0.7-12.9,2.2c-15.7,5.3-25.4,18.6-21.7,29.6c1.8,5.3,6.4,9.3,13,11.3c6.7,2,14.5,1.7,22.2-0.9
					c15.7-5.3,25.4-18.6,21.7-29.6l0,0c-1.8-5.3-6.4-9.3-13-11.3C206.2,494.1,203.1,493.7,199.9,493.7z"/>
			</g>
			<path class="st2" d="M330.4,381.5l-98.7,51.1L218,489.4c0.2,3.6,1.9,6.9,4.5,9.3l0,0c3.1,2.7,7.2,3.9,11.2,3.2l114.3-19.3
				l35.7-16.4L330.4,381.5z"/>
			<path class="st3" d="M383.7,466.1l-35.5,16.3l-7.7,1.4l-106.8,18c-4,0.7-8.1-0.5-11.2-3.2c-1.8-1.6-3.2-3.7-3.9-6l149.5-51.2
				L383.7,466.1z"/>
			<path class="st4" d="M231.5,502.5c-3.4,0-6.7-1.2-9.3-3.5c-1.9-1.7-3.3-3.8-4.1-6.2c-0.1-0.3,0.1-0.5,0.3-0.6L368,441
				c0.2-0.1,0.5,0,0.6,0.2l15.5,24.7c0.1,0.1,0.1,0.3,0.1,0.4c0,0.1-0.1,0.3-0.3,0.3l-35.5,16.3c0,0-0.1,0-0.1,0l-7.7,1.4l-106.8,18
				C233.1,502.5,232.3,502.5,231.5,502.5z M219.3,492.9c0.7,2.1,2,3.9,3.6,5.3c3,2.6,6.9,3.7,10.8,3.1l106.8-18l7.6-1.3l34.9-16.1
				l-15-23.8L219.3,492.9z"/>
			<path class="st4" d="M231.5,502.5c-3.4,0-6.7-1.2-9.3-3.5c-2.8-2.5-4.5-5.9-4.7-9.6c0,0,0-0.1,0-0.1l13.7-56.7
				c0-0.1,0.1-0.3,0.3-0.3l98.7-51.1c0.2-0.1,0.5,0,0.7,0.2l53.3,84.6c0.1,0.1,0.1,0.3,0.1,0.4c0,0.1-0.1,0.3-0.3,0.3L348.3,483
				c0,0-0.1,0-0.1,0l-114.3,19.3C233.1,502.5,232.3,502.5,231.5,502.5z M218.5,489.4c0.2,3.4,1.8,6.6,4.4,8.9
				c3,2.6,6.9,3.7,10.8,3.1l114.2-19.3l35.1-16.2l-52.8-83.8l-98.1,50.8L218.5,489.4z"/>
		</g>
		<g>
			<path class="st2" d="M672,313c-22.4,1.8-93.8-77.2-80.8-97.7c11.3-17.7,98.6,28,115.7,63.2"/>
			
				<ellipse transform="matrix(0.9628 -0.2703 0.2703 0.9628 -53.1805 194.3816)" class="st2" cx="679" cy="290.2" rx="30.5" ry="21.6"/>
			<path class="st3" d="M686.9,302.1c-16.2,4.6-32-1.1-35.2-12.6c-0.3-1.2-0.5-2.4-0.6-3.6c-2,4.1-2.7,8.4-1.5,12.5
				c3.2,11.5,19,17.1,35.2,12.6c14.6-4.1,24.5-15,24.1-25.5C705.4,292.8,697.3,299.2,686.9,302.1z"/>
			<path class="st3" d="M649.7,298.5c-2.2-7.8,1.9-16.2,9.9-22.3L590.1,218l0,0c-5,18.9,35.8,68.6,63.7,87.5
				C651.9,303.5,650.4,301.2,649.7,298.5z"/>
		</g>
		<g>
			<path class="st4" d="M654.2,306.4c-0.1,0-0.2,0-0.3-0.1c-14.7-10.3-32.9-28.8-46.4-47.1c-21-28.3-19.4-39.8-16.6-44.2
				c2-3.1,6.1-4.5,12.3-4.1c28.4,1.7,90.4,38.7,104.3,67.4c0.1,0.2,0,0.5-0.2,0.7c-0.2,0.1-0.5,0-0.7-0.2
				c-13.8-28.4-75.3-65.2-103.5-66.8c-5.8-0.3-9.6,0.9-11.4,3.6c-4.5,7,1.6,22.7,16.6,43c13.5,18.2,31.6,36.6,46.2,46.9
				c0.2,0.2,0.3,0.5,0.1,0.7C654.5,306.3,654.4,306.4,654.2,306.4z"/>
			<path class="st4" d="M673.6,313.1c-4,0-7.9-0.6-11.4-1.9c-6.8-2.4-11.4-6.9-13.1-12.6c-1.6-5.7,0-12,4.6-17.6
				c4.5-5.6,11.4-9.9,19.3-12.1c7.9-2.2,16-2.1,22.8,0.3c6.8,2.4,11.4,6.9,13.1,12.6c3.3,11.7-7.4,25-23.9,29.7
				C681.2,312.6,677.4,313.1,673.6,313.1z M650.1,298.4c1.5,5.4,5.9,9.6,12.4,12c6.6,2.3,14.4,2.4,22.2,0.2
				c15.9-4.5,26.3-17.2,23.2-28.4c-1.5-5.4-5.9-9.6-12.4-12c-6.6-2.3-14.4-2.4-22.2-0.2c-7.8,2.2-14.4,6.4-18.8,11.8
				C650.2,287,648.6,293,650.1,298.4L650.1,298.4z"/>
		</g>
		<polyline class="st3" points="483.9,294 461.8,251.9 440.3,240.2 448.1,273.2 		"/>
		<path class="st4" d="M483.9,294.5c-0.2,0-0.4-0.1-0.4-0.3l-22-42L437,234.6l10.5,38.2c0.1,0.3-0.1,0.5-0.3,0.6
			c-0.3,0.1-0.5-0.1-0.6-0.3l-10.9-39.6c-0.1-0.2,0-0.4,0.2-0.5c0.2-0.1,0.4-0.1,0.6,0l25.6,18.5c0.1,0,0.1,0.1,0.2,0.2l22.1,42.1
			c0.1,0.2,0,0.5-0.2,0.7C484,294.5,483.9,294.5,483.9,294.5z"/>
		<path class="st5" d="M291.9,329.7c-1.3,9.5,1.3,17.7,5.9,18.4c4.6,0.6,9.4-6.6,10.7-16.1s1-25.3-3.6-26S293.2,320.2,291.9,329.7z"
			/>
		<path class="st6" d="M298.4,348.6c-0.2,0-0.4,0-0.6,0c-2.4-0.3-4.4-2.5-5.6-6.2c-1.1-3.5-1.4-8.1-0.8-12.7l0,0
			c1.3-9.4,8.5-24.8,13.6-24.1c2.3,0.3,3.8,3.7,4.4,10.1c0.5,4.9,0.3,11.2-0.4,16.4C307.7,341.5,303.1,348.6,298.4,348.6z
			 M291.9,329.7l0.5,0.1c-0.6,4.5-0.4,8.9,0.7,12.3c1.1,3.3,2.7,5.2,4.8,5.5c4.3,0.6,8.8-6.4,10.1-15.7c0.7-5.1,0.9-11.4,0.4-16.2
			c-0.5-5.6-1.8-9-3.6-9.2c-3.5-0.5-10.9,12.1-12.5,23.2L291.9,329.7z"/>
		<path class="st2" d="M346.2,319.6l-45.3,21c-3.1-6.9-1.5-15.9,1.4-22.7L343,294"/>
		<path class="st4" d="M300.9,341.1c-0.2,0-0.4-0.1-0.4-0.3c-3.2-6.3-1.6-16.2,1.4-23.2c0-0.1,0.1-0.2,0.2-0.2l40.6-23.8
			c0.2-0.1,0.5-0.1,0.7,0.2s0.1,0.5-0.2,0.7l-40.5,23.7c-2.8,6.6-4.4,15.8-1.6,21.7l44.9-20.8c0.3-0.1,0.5,0,0.7,0.2
			c0.1,0.3,0,0.5-0.2,0.7l-45.3,21C301.1,341.1,301,341.1,300.9,341.1z"/>
		<path class="st5" d="M500.9,225.3c7.7,5.8,11.6,13.5,8.8,17.2c-2.8,3.7-11.3,2-18.9-3.8c-7.7-5.8-18.6-17.2-15.8-20.9
			C477.7,214,493.2,219.5,500.9,225.3z"/>
		<path class="st6" d="M504.9,244.9c-0.9,0-1.9-0.1-2.9-0.3c-3.6-0.7-7.7-2.7-11.5-5.6c-7.2-5.4-19.2-17.3-15.9-21.6
			c3.1-4.1,19.1,1.7,26.6,7.4l0,0c3.8,2.8,6.8,6.2,8.5,9.5c1.8,3.4,1.9,6.4,0.4,8.3C509,244.1,507.2,244.9,504.9,244.9z
			 M478.5,217.1c-1.6,0-2.7,0.3-3.2,1c-2.4,3.2,7.9,14.2,15.7,20.2c3.6,2.8,7.6,4.7,11.1,5.4c3.4,0.7,5.9,0.2,7.1-1.5
			c1.2-1.6,1-4.2-0.5-7.3c-1.6-3.2-4.5-6.4-8.2-9.2l0,0C493.7,220.4,483.8,217.1,478.5,217.1z"/>
		<path class="st2" d="M448.8,259.6l53.6-19.5c-2.7-7-10.2-12.3-17.1-15.1l-45.6,11.9"/>
		<path class="st4" d="M450.5,259.5c-0.2,0-0.4-0.1-0.5-0.3c-0.1-0.3,0-0.5,0.3-0.6l51.4-18.8c-2.3-6.2-9.8-11.6-16.5-14.2
			l-45.4,11.8c-0.3,0.1-0.5-0.1-0.6-0.4c-0.1-0.3,0.1-0.5,0.4-0.6l45.6-11.9c0.1,0,0.2,0,0.3,0c7.1,2.8,15.2,8.6,17.4,15.4
			c0.1,0.3-0.1,0.5-0.3,0.6l-51.9,18.9C450.6,259.5,450.6,259.5,450.5,259.5z"/>
		<g>
			<polyline class="st7" points="548.7,47.1 544.2,36.4 551.4,42 553.7,34.2 560.2,40.7 564.1,34.2 569.8,40.7 575.2,34.2 
				576.4,46.5 			"/>
			<path class="st8" d="M548.7,47.6c-0.2,0-0.4-0.1-0.5-0.3l-4.4-10.7c-0.1-0.2,0-0.5,0.2-0.6c0.2-0.1,0.4-0.1,0.6,0l6.6,5.1
				l2.1-7.1c0.1-0.2,0.2-0.3,0.4-0.3c0.2,0,0.4,0,0.5,0.1l6,6l3.6-5.9c0.1-0.1,0.2-0.2,0.4-0.2c0.2,0,0.3,0,0.4,0.2l5.3,6l5.1-6
				c0.1-0.2,0.3-0.2,0.5-0.2c0.2,0.1,0.3,0.2,0.3,0.4l1.2,12.3c0,0.3-0.2,0.5-0.4,0.5c-0.3,0-0.5-0.2-0.5-0.4l-1.1-11.2l-4.7,5.6
				c-0.1,0.1-0.2,0.2-0.4,0.2c-0.1,0-0.3-0.1-0.4-0.2l-5.2-6l-3.5,5.9c-0.1,0.1-0.2,0.2-0.4,0.2c-0.2,0-0.3,0-0.4-0.1l-5.9-5.9
				l-2.1,7c0,0.2-0.2,0.3-0.3,0.3s-0.3,0-0.5-0.1l-5.6-4.4l3.7,8.9c0.1,0.3,0,0.5-0.3,0.7C548.8,47.6,548.7,47.6,548.7,47.6z"/>
			<path class="st7" d="M360.7,230.3c0,0-49.7,17.7-73.9,28.5c-32.2,14.3-59.3,0-61-28.5c-1.8-28.8,39.1-54.3,124.4-54.6
				c85.3-0.3,109.5,12,159.2-14c49.4-25.8,71.4-80.3,67-115.1l-27.7,0.6c6.7,32.1-3.7,61.5-23.4,85.3
				c-44.3,53.4-190.8,17.3-234,25.4c-20.8,5.3-108.2,19-89,87.7s78.5,32.6,78.5,32.6s47-29.4,82.4-31.8"/>
			<path class="st9" d="M576.4,46.5L554.8,47c1.6,17.3-1.8,33.7-8.8,48.7c-4.4,13.3-11.6,25.6-20.8,36.7
				c-44.3,53.4-190.8,17.3-234,25.4c-15.5,3.9-67.8,12.5-85.7,45c-2.3,8.9-2.2,19.3,1.1,31.4c19.2,68.7,78.5,32.6,78.5,32.6
				s41.9-26.2,76.3-31.1l-0.8-5.4c0,0-49.7,17.7-73.9,28.5c-32.2,14.3-59.3,0-61-28.5c-0.4-6.2,1.2-12.3,4.9-18
				c4.6-26,45.5-47.6,124.1-47.9c85.3-0.3,109.5,12,159.2-14c27.4-14.3,46.3-37.4,57-61C576.2,74,578,59,576.4,46.5z"/>
			<path class="st8" d="M247.3,288c-5.2,0-10.5-0.8-15.7-2.8c-14-5.5-24-18.8-29.8-39.6c-4.7-16.9-3.3-31.9,4.2-44.5
				c16.7-28.1,58.8-37.7,79.1-42.3c2.4-0.5,4.5-1,6.1-1.4c13.4-2.5,36.8-0.8,63.7,1.2c58.9,4.3,139.5,10.2,170-26.4
				c15-18,31.2-47.4,23.3-84.8c0-0.1,0-0.3,0.1-0.4c0.1-0.1,0.2-0.2,0.4-0.2l27.7-0.6c0.3,0,0.5,0.2,0.5,0.4
				c2.3,18.3-2.5,40.6-13.3,61.3c-8.7,16.5-25,39.3-53.9,54.4c-35.8,18.7-58.6,17.6-99.9,15.6c-16.6-0.8-35.5-1.7-59.5-1.6
				c-55.7,0.2-96.3,11-114.6,30.5c-6.7,7.2-9.9,15.1-9.4,23.6c0.8,12.5,6.5,22.6,16.1,28.4c11.7,7.1,27.8,7,44.2-0.3
				c23.9-10.6,73.4-28.3,73.9-28.5c0.3-0.1,0.5,0,0.6,0.3c0.1,0.3,0,0.5-0.3,0.6c-0.5,0.2-50,17.9-73.8,28.5
				c-16.7,7.4-33.2,7.5-45.2,0.3c-9.9-6-15.8-16.4-16.6-29.2c-0.5-8.8,2.7-16.9,9.6-24.3c18.4-19.7,59.4-30.6,115.3-30.8
				c24.1-0.1,42.9,0.8,59.6,1.6c41.2,2,63.8,3.1,99.4-15.5c28.6-15,44.9-37.6,53.5-54C573.3,87,578.1,65.1,576,47l-26.7,0.6
				c7.7,37.6-8.6,67-23.6,85.1c-13.7,16.5-38,25.9-74.4,29c-31.3,2.6-65.9,0.1-96.4-2.2c-26.9-2-50.2-3.7-63.5-1.2
				c-1.6,0.4-3.7,0.9-6.1,1.4c-20.1,4.6-62,14.2-78.4,41.9c-7.4,12.4-8.7,27.1-4.1,43.7c5.7,20.4,15.5,33.5,29.2,38.9
				c11.8,4.7,24.4,2.6,32.8,0.1c9.2-2.7,15.6-6.6,15.7-6.7c0.1-0.1,12-7.4,28-15c14.8-7,36.3-15.6,54.7-16.8c0.3,0,0.5,0.2,0.5,0.5
				s-0.2,0.5-0.5,0.5c-18.2,1.2-39.6,9.8-54.3,16.7c-16,7.5-27.8,14.9-27.9,15C280.8,278.6,265,288,247.3,288z"/>
			<g>
				<path class="st10" d="M441.9,253.7l37.2-72.2c-16.3,2.3-26.4-7.9-26.4-7.9c-5.4,17.9-18.7,47.8-21.1,50.3"/>
				<path class="st11" d="M441.9,253.7l37.2-72.2c-33.1,56.3-45.1,39.9-47.5,42.3"/>
				<path class="st12" d="M469.3,199c-5.8,0-11.8-0.3-16.9-7.4c-0.2-0.2-0.1-0.5,0.1-0.7c0.2-0.2,0.5-0.1,0.7,0.1
					c4.9,7,10.7,7,16.7,7l0.4,0c0,0,0,0,0,0c0.3,0,0.5,0.2,0.5,0.5c0,0.3-0.2,0.5-0.5,0.5l-0.4,0C469.7,199,469.5,199,469.3,199z"/>
				<path class="st12" d="M463,212.6c-4.6,0-9.9-0.4-14.4-5c-0.2-0.2-0.2-0.5,0-0.7s0.5-0.2,0.7,0c4.3,4.3,9.3,4.7,13.7,4.7l0,0
					c0.3,0,0.5,0.2,0.5,0.5C463.6,212.4,463.4,212.6,463,212.6z"/>
				<path class="st12" d="M456.5,225.9c-5,0-9.1-0.6-13-3.8c-0.2-0.2-0.2-0.5-0.1-0.7c0.2-0.2,0.5-0.2,0.7-0.1
					c3.6,2.9,7.6,3.5,12.3,3.5c0,0,0,0,0,0l0,0c0.3,0,0.5,0.2,0.5,0.5C457,225.7,456.8,225.9,456.5,225.9z"/>
				<g>
					<path class="st11" d="M469.7,174.5"/>
					<path class="st11" d="M479.1,181.5c-2.4,2.8-2.6,6.4-3.5,7c-4.1,2.9-9.1,2.9-13.3,1.3c-5.3-2-9.8-7-10.1-13.6
						c-0.1-1.4,1.4-4.1,1.4-4.1"/>
				</g>
				<path class="st6" d="M441.9,254.2c-0.1,0-0.2,0-0.2-0.1c-0.2-0.1-0.3-0.4-0.2-0.7l36.8-71.3c-13.6,1.5-22.9-5.6-25.3-7.6
					c-5.5,17.6-18.4,47.1-21,49.7c-0.2,0.2-0.5,0.2-0.7,0c-0.2-0.2-0.2-0.5,0-0.7c2.2-2.3,15.5-32.1,21-50.1
					c0.1-0.2,0.2-0.3,0.4-0.3c0.2,0,0.4,0,0.5,0.1c0.1,0.1,10.2,10,26,7.8c0.2,0,0.4,0.1,0.5,0.2c0.1,0.2,0.1,0.4,0,0.5L442.3,254
					C442.3,254.1,442.1,254.2,441.9,254.2z"/>
				<g>
					<path class="st10" d="M454.9,152.7c5.5-14.2,20.6-27.1,30.5-23.3c9.9,3.8,10.9,22.9,5.5,37.2c-5.5,14.2-18,22.7-27.9,18.8
						c-5.3-2-8.8-7.2-10.1-13.6c-0.9-4.5-4.3-7.8-2.9-13c0,0,3.4-9.2,13.8-7.7c10.4,1.5,9,4.5,7.2,5.9c-1.9,1.3-3.4,5.1-3.4,5.1
						s3.4,2.1,2.8,8.2"/>
					<path class="st11" d="M461.3,181.6c-4.6-3.3-6.8-9.1-6.4-15.7c0.2-4.6-2.3-8.6,0.4-13.4c0,0,5.6-8,15.3-4.1
						c9.7,4,7.7,6.6,5.5,7.4c-2.1,0.8-4.5,4.1-4.5,4.1s2.8,2.8,0.7,8.6"/>
					<path class="st10" d="M464.5,185.9c-5.4-1.8-9.1-6.7-10.7-13.2c-1.1-4.4-4.7-7.6-3.5-12.9c0,0,3-9.3,13.5-8.3
						c10.5,1,9.3,4.1,7.5,5.5c-1.8,1.4-3.1,5.3-3.1,5.3s3.5,1.9,3.2,8.1"/>
					<path class="st11" d="M487,130.2c4.8,7.4,4.5,21.6,0.2,32.7c-5.5,14.2-18,22.7-27.9,18.8c-1-0.4-2-0.9-2.9-1.6
						c1.7,2.4,3.9,4.2,6.6,5.2c9.9,3.8,22.4-4.6,27.9-18.8C496.1,153.2,495.5,135.4,487,130.2z"/>
					<path class="st6" d="M468,186.9c-1.8,0-3.5-0.3-5.2-1c-5.2-2-9-7.1-10.4-14c-0.3-1.5-0.9-2.9-1.5-4.3c-1.1-2.6-2.3-5.4-1.4-8.9
						c0-0.1,1.4-3.7,5-6.1c0,0,0,0,0,0c2.7-7,7.8-13.9,13.7-18.6c6.3-5,12.6-6.8,17.4-5c10.1,3.9,11.4,23.2,5.7,37.8
						C486.7,178.9,477,186.9,468,186.9z M461.7,151.4c-8.3,0-11.2,7.4-11.2,7.5c-0.8,3.2,0.2,5.6,1.4,8.2c0.6,1.4,1.3,2.9,1.6,4.5
						c1.3,6.5,4.8,11.4,9.8,13.3c9.7,3.7,21.9-4.6,27.3-18.6c6.6-17.2,2.7-33.5-5.2-36.5c-9.6-3.7-23.8,8.7-29.4,21.8
						c2.1-1,4.7-1.6,8-1.2c5.4,0.8,8.4,2.1,8.9,3.9c0.2,1-0.3,2-1.4,2.9c-1.4,1-2.6,3.6-3.1,4.5c0.9,0.7,3.2,3.2,2.7,8.4
						c0,0.3-0.3,0.5-0.5,0.4c-0.3,0-0.5-0.3-0.4-0.5c0.6-5.7-2.4-7.6-2.6-7.7c-0.2-0.1-0.3-0.4-0.2-0.6c0.1-0.2,1.6-3.9,3.6-5.3
						c0.3-0.2,1.3-1,1.1-1.8c-0.2-0.6-1.2-2.2-8-3.1C463,151.5,462.3,151.4,461.7,151.4z"/>
				</g>
			</g>
			<g>
				<path class="st10" d="M339.3,288.5l-79.4-16.7c12-11.2,10.5-25.5,10.5-25.5c17.3,7.1,48.9,15.7,52.3,15.4"/>
				<path class="st11" d="M339.3,288.5l-79.4-16.7c64.6,9.9,59.4-9.8,62.8-10.1"/>
				<path class="st12" d="M278.5,276.2c-0.1,0-0.2,0-0.3-0.1c-0.2-0.2-0.2-0.5-0.1-0.7l0.3-0.3c3.8-4.7,7.5-9.1,5.2-17.4
					c-0.1-0.3,0.1-0.5,0.3-0.6c0.3-0.1,0.5,0.1,0.6,0.3c2.4,8.8-1.5,13.6-5.3,18.3l-0.3,0.3C278.8,276.1,278.7,276.2,278.5,276.2z"
					/>
				<path class="st12" d="M293.6,279.1c-0.1,0-0.2,0-0.3-0.1c-0.2-0.2-0.2-0.5-0.1-0.7c2.8-3.4,5.7-7.6,5.1-13.6
					c0-0.3,0.2-0.5,0.4-0.6c0.3,0,0.5,0.2,0.6,0.4c0.7,6.4-2.4,10.8-5.3,14.3C293.9,279,293.7,279.1,293.6,279.1z"/>
				<path class="st12" d="M308.1,282.4c-0.1,0-0.2,0-0.3-0.1c-0.2-0.2-0.2-0.5-0.1-0.7c3-3.7,5.1-7.1,5.1-11.8
					c0-0.3,0.2-0.5,0.5-0.5c0,0,0,0,0,0c0.3,0,0.5,0.2,0.5,0.5c0,5-2.1,8.6-5.3,12.5C308.4,282.3,308.3,282.4,308.1,282.4z"/>
				<g>
					<path class="st11" d="M260.3,260"/>
					<path class="st11" d="M259.8,271.7c3.7-0.1,6.6,2,7.7,1.7c4.8-1.3,8-5.2,9.4-9.5c1.8-5.4,0.7-12-4.2-16.4c-1-0.9-4-1.5-4-1.5"
						/>
				</g>
				<path class="st6" d="M339.3,289c0,0-0.1,0-0.1,0l-79.4-16.7c-0.2,0-0.3-0.2-0.4-0.4c0-0.2,0-0.4,0.1-0.5
					c11.7-10.9,10.4-24.9,10.4-25.1c0-0.2,0.1-0.3,0.2-0.5c0.1-0.1,0.3-0.1,0.5-0.1c17.4,7.1,48.9,15.6,52.1,15.4
					c0.3,0,0.5,0.2,0.5,0.5c0,0.3-0.2,0.5-0.5,0.5c-3.7,0.3-34.7-8.3-51.8-15.1c0.1,3.1-0.3,14.8-10,24.4l78.5,16.5
					c0.3,0.1,0.4,0.3,0.4,0.6C339.8,288.8,339.5,289,339.3,289z"/>
				<g>
					<path class="st10" d="M252.8,234.8c-14.5-4.7-34-1.2-37.3,8.9c-3.3,10.1,10.9,23,25.4,27.7c14.5,4.7,28.9,0.4,32.2-9.8
						c1.8-5.4,0-11.3-4.2-16.4c-2.9-3.5-3.3-8.3-8.3-10.5c0,0-9.3-3.1-14.7,5.9s-2.2,9.9,0,9.3c2.2-0.6,6.1,0.6,6.1,0.6
						s-0.6,4,4.6,7.4"/>
					<path class="st11" d="M271.1,258c0.4-5.7-2.8-11-8.1-14.9c-3.7-2.7-5.2-7.2-10.6-8.2c0,0-9.8-0.8-12.8,9.3
						c-3.1,10.1,0.3,10.1,2.3,9c2-1.1,6.1-0.9,6.1-0.9s0.4,4,6.2,6"/>
					<path class="st10" d="M272.4,263.1c2-5.3,0.5-11.3-3.4-16.6c-2.8-3.7-2.9-8.4-7.8-10.9c0,0-9.1-3.6-15,5.2s-2.7,9.8-0.4,9.3
						c2.2-0.5,6.1,0.9,6.1,0.9s-0.8,3.9,4.2,7.6"/>
					<path class="st11" d="M215.1,245.4c2.7,8.5,13.9,17.1,25.2,20.8c14.5,4.7,28.9,0.4,32.2-9.8c0.3-1.1,0.6-2.2,0.6-3.3
						c0.8,2.8,0.8,5.7-0.1,8.4c-3.3,10.1-17.7,14.5-32.2,9.8C227.1,267,213.7,255.3,215.1,245.4z"/>
					<path class="st6" d="M252.5,273.9c-3.9,0-7.9-0.6-11.8-1.9c-14.9-4.9-29.1-18-25.7-28.3c1.6-4.9,7-8.7,14.8-10.4
						c7.4-1.6,16-1.2,23.1,1.1c0,0,0,0,0,0c4.1-1.2,7.7,0,7.8,0c3.4,1.5,4.8,4.2,6.1,6.7c0.7,1.3,1.4,2.7,2.4,3.9
						c4.5,5.4,6.1,11.6,4.3,16.9c-1.6,5.1-6,8.9-12.3,10.8C258.5,273.5,255.6,273.9,252.5,273.9z M239.2,233.2c-3.1,0-6.2,0.3-9.2,1
						c-7.5,1.6-12.6,5.2-14.1,9.7c-2.6,8.1,7.5,21.4,25.1,27.1c6.9,2.3,14,2.5,20,0.7c5.9-1.8,10-5.4,11.6-10.1
						c1.6-5,0.1-10.8-4.1-15.9c-1.1-1.3-1.8-2.7-2.5-4.1c-1.3-2.5-2.5-4.9-5.6-6.3c-0.3-0.1-8.9-2.9-14.1,5.7
						c-3.5,5.9-3,7.7-2.6,8.2c0.5,0.7,1.7,0.4,2.1,0.3c2.3-0.6,6.2,0.6,6.4,0.6c0.2,0.1,0.4,0.3,0.3,0.5c0,0.1-0.4,3.7,4.4,6.9
						c0.2,0.2,0.3,0.5,0.1,0.7c-0.2,0.2-0.5,0.3-0.7,0.1c-4.4-2.9-4.8-6.2-4.8-7.4c-1-0.3-3.8-0.9-5.4-0.5c-1.4,0.4-2.5,0.1-3.1-0.7
						c-1.1-1.5-0.3-4.6,2.6-9.3c1.7-2.9,3.9-4.5,6-5.5C247.6,233.8,243.4,233.2,239.2,233.2z"/>
				</g>
			</g>
			<path class="st13" d="M434.7,233.3c-2.9-4.4-3-10.6-3-10.6c-14.5-6.7-45.4,5.3-60.1,11.8c-13.5,4.5-39.4,14.3-49.4,26.7
				c0,0,3.7,5.6,3.5,13c-0.2,5.5-5.5,10.2-5.5,10.2c5.8,20,21.7,40.1,21.7,40.1l57.6-17.6l53.4-25.1c0,0,0.6-17.9-6.6-36.6
				C446.3,245.2,438.6,239.3,434.7,233.3z"/>
			<g>
				<path class="st14" d="M325.6,275c0-0.2,0.1-0.5,0.1-0.7C325.8,269.8,325.7,272.3,325.6,275z"/>
				<path class="st14" d="M446.3,245.2c0,0-5.8-4.4-9.8-9.4c2.5,5.6,13.2,43.2,13.2,43.2l-49.2,23.6l-53.3,16.3
					c0,0-15.9-20-21.7-40.1c0,0,0.1-2,0.2-3.9c-0.6,5.2-5.4,9.4-5.4,9.4c5.8,20,21.7,40.1,21.7,40.1l1.1-0.3h0l56.5-17.3l38.3-18
					l0,0l16.3-7.6C454,281.3,452.5,259.7,446.3,245.2z"/>
			</g>
			<path class="st14" d="M403.2,221.8c-1.9,5-8.2,10.9-24.6,16.8c-18.3,6.6-30.1,9.2-36.2,5c-0.6-0.4-4.1,5.1-8.9,8.1
				c-3.9,2.5-7.7,5.2-7.6,5.8c4.8,16.5,23.2,16.7,59.9,2.9c38-14.4,39.4-25.9,35.6-37.7c-0.1-0.4-0.5-1.4-0.7-1.8
				c0,0-5.7,0.2-10.2,1.2C406.6,222.9,403.4,221.1,403.2,221.8z"/>
			<path class="st15" d="M341.7,325.1l-0.2-0.3c-0.2-0.2-16.1-20.3-21.8-40.2l-0.1-0.3l0.3-0.2c0,0,4.8-3.7,5.3-9.2
				c0.7-8.2-3.3-13.2-3.3-13.2l-0.3-0.3l0.3-0.3c10-12.4,35.4-22.2,49.7-26.9c38.2-16.9,54.3-14.6,60.4-11.8l0.3,0.2l0,0.4
				c0,0-0.5,4.3,2.6,9.6l0,0c4.1,7,11.7,12.2,11.8,12.3l0.1,0.1l0.1,0.1c6.6,17.3,7.7,36,7.7,36.2l0,0.3l-54.8,25.7L341.7,325.1z
				 M320.7,284.6c5.4,18.4,19.5,36.9,21.4,39.3l57.3-17.5l54.1-25.4c-0.2-2.6-1.6-19.6-7.6-35.5c-1.1-0.7-7.9-5.7-12-12.5l0,0
				c-2.8-4.7-2.8-8.7-2.8-9.9c-14.7-6.4-46.4,6.2-59.3,11.9c-14.1,4.6-39,14.2-49,26.3c0.9,1.3,4,6.1,3.3,13.6
				C325.6,280.1,321.8,283.7,320.7,284.6z"/>
			<path class="st9" d="M398.8,222.4c-0.1,4.3-3.9,10.2-21.1,16.4c-18,6.5-28.3,8.5-31.9,2.2c-3.7,1.2-12.7,4.6-12.1,10
				c1.9,16,16.7,16.7,49.4,4.3c31.3-11.8,32.7-20.7,29.8-29.7C410.5,218,402,220.9,398.8,222.4z"/>
			<path class="st7" d="M405.4,222.9c-0.3-0.9-0.6-1.6-1-2.2c-2.2,0.3-4.3,1.1-5.6,1.7c0,0.2,0,0.4,0,0.7c0.4,0.4,0.7,1,0.9,1.7
				c2.1,6.4,1,12.7-21.2,21.1c-23.2,8.8-33.8,8.3-35.1-3.1c0-0.3,0-0.7,0.1-1c-1.9,0.7-4.2,1.8-6.1,3.1c2.7,14.9,15.8,16.1,43.3,5.7
				C407.5,240.5,408.3,231.9,405.4,222.9z"/>
			<path class="st8" d="M349.1,264.3c-4.1,0-7.3-0.8-9.8-2.3c-3.5-2.1-5.5-5.8-6.1-11.1c-0.7-5.8,8.4-9.3,12.4-10.6
				c0.2-0.1,0.5,0,0.6,0.2c3.1,5.4,11.6,4.7,31.3-2.4c13.6-4.9,20.6-10.3,20.7-15.9c0-0.2,0.1-0.4,0.3-0.4c2.5-1.1,7.3-2.8,11-1.2
				c1.9,0.8,3.2,2.4,3.9,4.7c3.4,10.4-0.5,19.1-30.1,30.3C368.1,261.5,357,264.3,349.1,264.3z M345.6,241.5
				c-3.3,1.1-11.9,4.4-11.3,9.4c0.6,5,2.4,8.4,5.7,10.3c6.8,4.2,20.5,2.1,43.1-6.4c32-12.1,32.1-21,29.5-29.1c-0.6-2-1.8-3.3-3.4-4
				c-3.3-1.5-7.8,0.1-9.9,1c-0.4,6-7.6,11.5-21.4,16.5C360.6,245.5,349.7,247.9,345.6,241.5z"/>
			<g>
				<path class="st10" d="M396.4,126l-113.1,43.6l0,0.1c-7.8,4.2-8.3,22.4-0.9,41.7c7.4,19.3,20,32.5,28.6,30.3l0,0.1l113.1-43.6"/>
				<path class="st6" d="M309.2,242.4c-8.7,0-20.3-12.9-27.2-30.9c-7.4-19.2-7-37.7,0.9-42.2c0.1-0.1,0.1-0.1,0.2-0.2l113.1-43.6
					c0.3-0.1,0.5,0,0.6,0.3c0.1,0.3,0,0.5-0.3,0.6L283.7,170c0,0-0.1,0.1-0.1,0.1c-7.6,4.1-7.9,22.1-0.6,41.1
					c7.3,18.9,19.6,32.1,28,30c0.1,0,0.1,0,0.2,0L424,197.7c0.3-0.1,0.5,0,0.6,0.3c0.1,0.3,0,0.5-0.3,0.6l-113.1,43.6
					c-0.1,0-0.2,0-0.3,0C310.4,242.3,309.8,242.4,309.2,242.4z"/>
				<g>
					
						<ellipse transform="matrix(0.9331 -0.3597 0.3597 0.9331 -31.1541 157.9064)" class="st12" cx="408.8" cy="162.7" rx="16.7" ry="38.6"/>
					<path class="st6" d="M419.9,199.7c-3.8,0-8.2-2.4-12.7-7c-5.6-5.7-10.8-14.2-14.5-23.9c-7.8-20.1-6.9-39.3,2-42.7
						c8.9-3.4,22.4,10.2,30.1,30.3l0,0c3.7,9.7,5.6,19.4,5.3,27.5c-0.3,8.2-2.9,13.6-7.3,15.3C421.9,199.6,420.9,199.7,419.9,199.7z
						 M397.7,126.6c-0.9,0-1.8,0.2-2.6,0.5c-8.3,3.2-9,21.8-1.4,41.4c3.7,9.6,8.8,17.9,14.3,23.6c5.4,5.5,10.6,7.7,14.6,6.2
						c4-1.5,6.3-6.6,6.6-14.4c0.3-7.9-1.5-17.5-5.2-27.1l0,0C417.1,139.2,405.9,126.6,397.7,126.6z"/>
				</g>
				<path class="st10" d="M349.8,226.8l8.1,20.9c0.5,1.4,8.8-0.5,18.4-4.2c9.6-3.7,17-7.8,16.5-9.2l-8.1-20.9L349.8,226.8z"/>
				<path class="st11" d="M349.8,226.8l1.3,3c0.5,1.4,11.1,2.6,21.2,0.7c10.8-2,17.3-4.7,16.7-6.1l-4.4-11L349.8,226.8z"/>
				<path class="st11" d="M397.9,184.9c1.4-0.2,1.5,0,2.9-0.6c-4-6.6-8.6-17-13.5-28.4c-5,4.3-12.7,10-18.8,12.9
					c-27.3,14.1-60.4,16.7-87.2,31.4c2.4,5.3,0,0,5.3,23c3.1,4.8,5.8,9.6,11,12.7C320.6,210.7,362.1,191.9,397.9,184.9z"/>
				<path class="st6" d="M419.9,199.7c-3.8,0-8.2-2.4-12.7-7c-5.6-5.7-10.8-14.2-14.5-23.9c-7.8-20.1-6.9-39.3,2-42.7
					c8.9-3.4,22.4,10.2,30.1,30.3l0,0c3.7,9.7,5.6,19.4,5.3,27.5c-0.3,8.2-2.9,13.6-7.3,15.3C421.9,199.6,420.9,199.7,419.9,199.7z
					 M397.7,126.6c-0.9,0-1.8,0.2-2.6,0.5c-8.3,3.2-9,21.8-1.4,41.4c3.7,9.6,8.8,17.9,14.3,23.6c5.4,5.5,10.6,7.7,14.6,6.2
					c4-1.5,6.3-6.6,6.6-14.4c0.3-7.9-1.5-17.5-5.2-27.1l0,0C417.1,139.2,405.9,126.6,397.7,126.6z"/>
				<g>
					
						<ellipse transform="matrix(0.9331 -0.3597 0.3597 0.9331 -61.5923 107.7109)" class="st16" cx="258.6" cy="219.4" rx="8.1" ry="8.1"/>
					<path class="st17" d="M258.7,228c-3.5,0-6.7-2.1-8-5.5c-1.7-4.4,0.5-9.4,4.9-11.1c4.4-1.7,9.4,0.5,11.1,4.9l0,0
						c1.7,4.4-0.5,9.4-4.9,11.1C260.7,227.8,259.7,228,258.7,228z M258.6,211.8c-0.9,0-1.8,0.2-2.7,0.5c-3.9,1.5-5.9,5.9-4.4,9.8
						c1.5,3.9,5.9,5.9,9.8,4.4c3.9-1.5,5.9-5.9,4.4-9.8l0,0C264.6,213.6,261.7,211.8,258.6,211.8z"/>
				</g>
				<g>
					<path class="st11" d="M282.7,210.4l-17.5,6.7c-0.8,0.3-1.6,0-1.7-0.6l0,0c-0.1-0.5,0.3-1.1,1-1.4l17.8-6.9"/>
					<path class="st6" d="M264.6,217.8c-0.3,0-0.6-0.1-0.9-0.2c-0.4-0.2-0.6-0.5-0.7-0.9c-0.2-0.8,0.4-1.6,1.3-1.9l17.8-6.9l0.4,0.9
						l-17.8,6.9c-0.5,0.2-0.7,0.5-0.7,0.8c0,0.1,0.1,0.2,0.2,0.2c0.2,0.1,0.5,0.1,0.9,0l17.5-6.7l0.4,0.9l-17.5,6.7
						C265.1,217.7,264.8,217.8,264.6,217.8z"/>
				</g>
				<path class="st6" d="M359.3,248.7c-1.4,0-1.8-0.4-1.9-0.8l-8.1-20.9c0-0.1,0-0.3,0-0.4s0.2-0.2,0.3-0.3l34.9-13.4
					c0.3-0.1,0.5,0,0.6,0.3l8.1,20.9c0.3,0.7,0,1.8-4.6,4.4c-3.1,1.8-7.4,3.7-12.1,5.5c-4.7,1.8-9.2,3.2-12.7,4
					C361.6,248.5,360.2,248.7,359.3,248.7z M350.4,227.1l7.9,20.4c0.6,0.6,7-0.4,17.8-4.5c10.7-4.1,16.1-7.8,16.2-8.6l-7.9-20.4
					L350.4,227.1z"/>
				<path class="st18" d="M391.3,121.9c22,0.4,29.3,19.8,33.1,33.1c5.6,19.6,20.4,12.4,23.4,20.4c3.1,7.9-20.4,18.7-30.8,8.7
					c-9.2-8.9-25.6-21.3-25.6-21.3s-10.7-18.7-63.2,1.5c-53.4,20.6-47.7,41.6-47.7,41.6s6,12,2.2,22.7c-3.1,8.8-16.5,16.4-13.4,18.4
					c6.8,4.4,28.4-11,28.4-11L278,199.8c0,0-5.9-22.4,0.1-31.8C284.3,158.3,391.3,121.9,391.3,121.9z"/>
				<path class="st19" d="M280.5,205.8c0,0,6,12,2.2,22.7c-3.1,8.8-16.5,16.4-13.4,18.4c6.8,4.4,28.4-11,28.4-11"/>
				<path class="st19" d="M430,165.8l-18,7.5c0,0,9.3,8.7,25,4.3c9.5-2.7,2.7-7.2,2.7-7.2S435.6,170,430,165.8z"/>
				
					<ellipse transform="matrix(0.9331 -0.3597 0.3597 0.9331 -28.6416 159.4142)" class="st19" cx="414.1" cy="156.7" rx="11.7" ry="20"/>
				<path class="st19" d="M272.4,248.2c-1.3,0-2.5-0.3-3.4-0.8c-0.5-0.3-0.6-0.7-0.7-1c-0.1-1.4,1.8-3.2,4.6-6
					c3.4-3.3,7.7-7.5,9.3-11.9c3.7-10.4-2.1-22.2-2.2-22.3c0-0.1-0.2-0.8-0.2-1.8l-2.3-4.2c0,0,0-0.1,0-0.1
					c-0.2-0.9-5.9-22.7,0.1-32.2c6.3-9.8,109.2-44.9,113.5-46.4c0.1,0,0.1,0,0.2,0c21.4,0.4,29.2,18,33.5,33.4
					c3.4,11.8,10.1,13.7,15.5,15.2c3.5,1,6.6,1.9,7.9,5.1c1.1,2.8-0.8,6.1-5,8.9c-7.7,5.1-20,6.7-26.6,0.3
					c-9.1-8.8-25.4-21.1-25.5-21.3c-0.1,0-0.1-0.1-0.1-0.1c-0.1-0.2-11.2-18.1-62.6,1.7c-43.8,16.9-47.5,34-47.6,39.3l17.3,31.7
					c0.1,0.2,0.1,0.5-0.1,0.6C297.2,236.9,281.2,248.2,272.4,248.2z M282.2,208.6c1.5,4.2,3.7,12.4,1,20.1c-1.6,4.7-6,8.9-9.5,12.3
					c-2.2,2.1-4.4,4.3-4.3,5.2c0,0.1,0,0.2,0.2,0.3c6,3.8,24.7-8.7,27.5-10.7L282.2,208.6z M278.5,199.7l1.4,2.6
					c0.8-7,7.5-22.9,48.1-38.5c51-19.6,62.8-3,63.7-1.4c1.2,0.9,16.7,12.8,25.6,21.3c6.9,6.6,19.2,3.7,25.4-0.4
					c3.8-2.5,5.5-5.4,4.6-7.7c-1.1-2.8-3.8-3.6-7.2-4.5c-5.7-1.6-12.7-3.6-16.2-15.9c-4.3-15-11.8-32.3-32.5-32.7
					c-3.5,1.2-106.9,36.5-112.9,45.9C272.8,177.2,278.1,198.4,278.5,199.7z"/>
				
					<ellipse transform="matrix(0.9331 -0.3597 0.3597 0.9331 -28.3422 160.5193)" class="st18" cx="417.2" cy="156.4" rx="11.7" ry="19.8"/>
				
					<ellipse transform="matrix(0.9565 -0.2916 0.2916 0.9565 -27.3771 129.1464)" class="st19" cx="419.6" cy="156.4" rx="1.9" ry="6.4"/>
				<path class="st19" d="M421.3,163c-1.5,0-3.1-3-4-5.9c-0.5-1.7-0.8-3.3-0.8-4.6c0-1.5,0.4-2.4,1.1-2.6c1.6-0.5,3.3,2.7,4.3,5.9h0
					c0.5,1.7,0.8,3.3,0.8,4.6c0,1.5-0.4,2.4-1.1,2.6C421.5,163,421.4,163,421.3,163z M417.9,150.8
					C417.9,150.8,417.9,150.8,417.9,150.8c-0.2,0-0.4,0.5-0.4,1.7c0,1.2,0.3,2.7,0.8,4.3c1.1,3.7,2.6,5.3,3,5.2
					c0.1,0,0.4-0.5,0.4-1.7c0-1.2-0.3-2.7-0.8-4.3h0C419.8,152.5,418.4,150.8,417.9,150.8z"/>
				<path class="st19" d="M421.7,175.8c-5.8,0-12.5-6.1-15.9-15c-4-10.4-2.2-20.9,4.1-23.3c6.3-2.4,14.7,4.1,18.7,14.5
					c4,10.4,2.2,20.9-4.1,23.3C423.6,175.7,422.6,175.8,421.7,175.8z M412.7,138c-0.8,0-1.7,0.1-2.5,0.4c-5.8,2.2-7.3,12.1-3.5,22
					c3.8,9.9,11.6,16.2,17.4,13.9c5.8-2.2,7.3-12.1,3.5-22l0,0C424.3,143.8,418.1,138,412.7,138z"/>
				<g>
					<path class="st11" d="M439.7,151.3l-18.4,5.1c-0.8,0.3-1.6,0.1-1.7-0.5l0,0c-0.1-0.5,0.3-1.1,0.9-1.4l18.7-5.2"/>
					<path class="st6" d="M420.7,157c-0.3,0-0.6-0.1-0.8-0.2c-0.4-0.2-0.6-0.5-0.7-0.9c-0.2-0.8,0.3-1.6,1.2-2l18.7-5.3l0.3,1
						l-18.7,5.2c-0.4,0.2-0.6,0.6-0.6,0.8c0,0.1,0.1,0.2,0.2,0.2c0.2,0.1,0.5,0.1,0.9,0l18.5-5.1l0.3,1l-18.4,5.1
						C421.2,157,420.9,157,420.7,157z"/>
				</g>
				<path class="st19" d="M332.8,162.6c-2.8-4.8-3.8-9.2-2.7-13.3c1.4-5.5,5.9-8.2,6.1-8.3l0.5,0.9c0,0-4.3,2.6-5.6,7.7
					c-1,3.8-0.1,8,2.6,12.5L332.8,162.6z"/>
				<path class="st19" d="M390.8,154.6c-8.7-15.3-21-14.5-46.2-4.9c-10.2,3.9-14.3,8.7-15.9,11.4c-3.1-1-9.3-1.7-19.5,2.2
					c-25.1,9.8-34.8,17.5-31,34.7c3.8,17.2,21.5,15.6,21.5,15.6s22.6-7.9,25.6-13.9c3.9-7.7,6.7-19.1,10.2-20.6l0,0
					c0.1,0,0.1-0.1,0.2-0.1c0.1,0,0.1,0,0.2-0.1l0,0c3.6-1.2,13.3,5.3,21.4,8.4c6.3,2.4,28.3-6.9,28.3-6.9S399.5,169.9,390.8,154.6z
					"/>
				<g>
					<path class="st18" d="M388.9,158.5c-8.6-15.3-20.7-14.7-45.3-5.3c-10,3.8-13.9,8.5-15.5,11.3c-3-1-9.1-1.8-19.1,2.1
						c-24.5,9.5-33.9,17.1-30,34.3c3.9,17.2,21.1,15.7,21.1,15.7s22-7.6,24.9-13.6c3.7-7.6,6.4-19,9.8-20.4l0,0
						c0.1,0,0.1-0.1,0.2-0.1c0.1,0,0.1,0,0.2-0.1l0,0c3.5-1.2,13.1,5.4,21,8.6c6.1,2.5,27.6-6.6,27.6-6.6S397.6,173.8,388.9,158.5z"
						/>
					<path class="st19" d="M333.3,178.2c3.1-1.4,12,7.5,12,7.5s-7.6-4.1-10-3.3c-2.4,0.8-5.4,8.8-5.4,8.8S330.9,179.3,333.3,178.2z"
						/>
					<path class="st19" d="M299.4,217.1c-3.6,0-17.3-1-20.8-16.1c-4.1-18,6.5-25.6,30.3-34.9c9.8-3.8,16-3.1,19-2.2
						c1.6-2.7,5.7-7.4,15.6-11.1c23.8-9.1,36.8-10.6,45.9,5.5l0,0c8.8,15.5-5.1,26.4-5.2,26.5c0,0-0.1,0-0.1,0.1
						c-0.9,0.4-21.7,9.2-28,6.7c-2.8-1.1-5.8-2.7-8.8-4.2c-5-2.6-9.7-5-11.8-4.4c0,0-0.1,0.1-0.2,0.1c0,0-0.1,0-0.1,0
						c-0.1,0-0.1,0.1-0.2,0.1c-2,0.9-3.8,5.9-5.8,11.2c-1.1,3.1-2.3,6.3-3.7,9c-3,6.1-24.3,13.5-25.2,13.8c0,0-0.1,0-0.1,0
						C300.2,217,299.9,217.1,299.4,217.1z M322.5,164.1c-3.2,0-7.6,0.7-13.2,2.8c-26.3,10.2-33.2,18.1-29.7,33.7
						c3.7,16.2,19.2,15.4,20.5,15.3c1.3-0.4,21.9-7.8,24.6-13.3c1.3-2.7,2.5-5.9,3.6-8.9c2.2-5.8,4-10.8,6.4-11.8c0,0,0.1,0,0.1,0
						c0,0,0,0,0,0c0,0,0.1,0,0.1,0c0,0,0.1,0,0.1,0c0,0,0.1,0,0.1,0c2.4-0.8,7.2,1.6,12.6,4.4c2.9,1.5,5.9,3,8.7,4.2
						c5.7,2.3,25.9-6.1,27.2-6.6c1-0.8,13.1-10.7,4.9-25.1l0,0c-7.9-13.9-18.3-15.1-44.7-5.1c-10,3.8-13.8,8.6-15.2,11
						c-0.1,0.2-0.4,0.3-0.6,0.2C326.8,164.5,325,164.1,322.5,164.1z"/>
					<path class="st5" d="M334.9,163.5c0,0,1,10.5,7.1,13.4s8,10.2,15.4,7.9s23.1-7.7,25.1-11.5c3.7-7,4.3-21.4-14.3-22.5
						L334.9,163.5z"/>
					<path class="st5" d="M322.5,168.2c0,0,6.3,8.4,3.7,14.7c-2.6,6.2,0.9,12.9-6.1,16.1c-7,3.3-22.3,9.7-26.3,8.3
						c-7.4-2.7-17.5-13-4.5-26.3L322.5,168.2z"/>
					<path class="st12" d="M354.7,185.6c-3.3,0-5.4-2.1-7.6-4.3c-1.6-1.5-3.2-3.1-5.3-4.1c-6.3-3-7.3-13.3-7.4-13.8
						c0-0.2,0.1-0.4,0.3-0.5l33.2-12.8c0.1,0,0.1,0,0.2,0c7.3,0.4,12.6,3,15.1,7.6c2.8,5,1.8,11.5-0.4,15.7
						c-2.4,4.5-21.5,10.6-25.4,11.8C356.4,185.5,355.5,185.6,354.7,185.6z M335.4,163.8c0.3,1.9,1.7,10.1,6.8,12.6
						c2.3,1.1,3.9,2.7,5.5,4.3c2.7,2.6,5,4.9,9.5,3.6c10.4-3.2,23.1-8.1,24.8-11.3c2.1-4,3-10,0.4-14.7c-2.4-4.2-7.2-6.6-14.2-7
						L335.4,163.8z"/>
					<path class="st10" d="M339.8,164.4c0,0,0.8,8.5,5.8,10.9c4.9,2.4,6.5,8.3,12.5,6.4c6-1.9,18.7-6.3,20.4-9.4
						c3-5.7,3.5-17.4-11.6-18.3L339.8,164.4z"/>
					<path class="st10" d="M319.5,172.2c0,0,5.1,6.9,3,11.9s0.7,10.5-5,13.1s-18.1,7.9-21.4,6.7c-6-2.2-14.3-10.6-3.6-21.4
						L319.5,172.2z"/>
					<path class="st12" d="M297.4,204.7c-0.5,0-1-0.1-1.4-0.2c-3.7-1.3-7.8-4.7-8.8-9.3c-0.7-2.9-0.3-7.5,5-12.9
						c0.1-0.1,0.1-0.1,0.2-0.1l27-10.4c0.2-0.1,0.4,0,0.6,0.2c0.2,0.3,5.2,7.1,3.1,12.4c-0.7,1.8-0.8,3.6-0.9,5.3
						c-0.2,3.2-0.4,6.3-4.3,8.1C314,199.5,302.4,204.7,297.4,204.7z M292.8,183.1c-4,4.1-5.5,8.1-4.7,11.9c1,4.2,4.8,7.4,8.2,8.6
						c2.6,0.9,12.4-2.7,21-6.7c3.4-1.6,3.5-4.1,3.7-7.2c0.1-1.8,0.2-3.7,1-5.6c1.7-4.2-1.8-9.8-2.7-11.1L292.8,183.1z"/>
					<path class="st12" d="M295.3,208c-0.7,0-1.2-0.1-1.6-0.2c-4.5-1.6-9.5-5.8-10.8-11.4c-1.1-5.1,1-10.5,6.1-15.8
						c0.1-0.1,0.1-0.1,0.2-0.1l33.2-12.8c0.2-0.1,0.4,0,0.6,0.2c0.3,0.4,6.4,8.7,3.8,15.2c-0.9,2.2-1,4.4-1.2,6.6
						c-0.2,3.9-0.5,7.6-5.2,9.8C317.1,201,301.7,208,295.3,208z M289.6,181.5c-4.9,5-6.9,10-5.8,14.8c1.2,5.2,6,9.1,10.2,10.7
						c3.4,1.2,16.1-3.7,25.9-8.3c4.2-2,4.4-5.2,4.6-9c0.1-2.2,0.3-4.6,1.2-6.9c2.2-5.3-2.4-12.3-3.4-13.9L289.6,181.5z"/>
					<polygon class="st20" points="304.2,202.6 297,204.2 297,180.9 304.2,178.1 					"/>
					<polygon class="st20" points="309.9,200.6 307.6,201.5 307.6,176.8 309.9,175.6 					"/>
					<polygon class="st20" points="367.4,178.7 365,179.6 365,154.9 367.4,153.7 					"/>
					<polygon class="st20" points="362,180.7 359.7,181.2 359.7,157 362,155.8 					"/>
					<polygon class="st20" points="358.2,181.9 355.8,182 355.8,158.2 358.2,157 					"/>
					<path class="st12" d="M355.9,182.5c-2.7,0-4.4-1.7-6.3-3.5c-1.3-1.2-2.6-2.5-4.3-3.3c-5.1-2.5-6-10.9-6.1-11.3
						c0-0.2,0.1-0.4,0.3-0.5l27-10.4c0.1,0,0.1,0,0.2,0c7.6,0.4,10.9,3.6,12.4,6.2c2.3,4.1,1.5,9.4-0.3,12.8
						c-1.9,3.6-16.3,8.3-20.7,9.6C357.4,182.4,356.6,182.5,355.9,182.5z M340.4,164.7c0.2,1.6,1.4,8.1,5.4,10.1
						c1.9,0.9,3.2,2.2,4.5,3.5c2.3,2.2,4,4,7.6,2.9c9.1-2.8,18.8-6.7,20.1-9.1c1.7-3.2,2.4-8.1,0.3-11.9c-1.9-3.4-5.8-5.3-11.4-5.7
						L340.4,164.7z"/>
				</g>
				<path class="st6" d="M362.9,171.1c0,0-0.1,0-0.1,0c-0.3-0.1-0.4-0.3-0.4-0.6c0.7-2.9,3.6-4.8,6.6-4.1c0.6,0.1,1.1,0.4,1.6,0.7
					c0.2,0.1,0.3,0.5,0.2,0.7c-0.1,0.2-0.5,0.3-0.7,0.2c-0.4-0.3-0.9-0.4-1.3-0.6c-2.4-0.6-4.8,0.9-5.4,3.3
					C363.3,171,363.1,171.1,362.9,171.1z"/>
				<path class="st6" d="M302.5,193.1c0,0-0.1,0-0.1,0c-0.3-0.1-0.4-0.3-0.4-0.6c0.3-1.4,1.2-2.6,2.4-3.4c1.2-0.8,2.7-1,4.1-0.7
					c0.6,0.1,1.1,0.4,1.6,0.7c0.2,0.1,0.3,0.5,0.2,0.7c-0.1,0.2-0.5,0.3-0.7,0.2c-0.4-0.3-0.9-0.4-1.3-0.6c-1.2-0.3-2.4-0.1-3.4,0.6
					c-1,0.6-1.7,1.6-2,2.8C302.9,192.9,302.7,193.1,302.5,193.1z"/>
				<g>
					<g>
						<g>
							<path class="st12" d="M334,218.6c-0.3-0.1-0.6-0.3-0.9-0.4c-3.3-1.7-5.8-4.5-7.2-7.9c12.1-6.6,24.9-11.8,38.1-15.4
								c0.7,2.5,0.9,5.2,0.5,7.8C353,204.8,342.4,210.4,334,218.6z"/>
							<path class="st6" d="M334,219.1c-0.1,0-0.1,0-0.2,0l-0.3-0.1c-0.2-0.1-0.5-0.2-0.7-0.3c-3.4-1.8-6-4.7-7.4-8.2
								c-0.1-0.2,0-0.5,0.2-0.6c12.1-6.6,25-11.8,38.2-15.5c0.3-0.1,0.5,0.1,0.6,0.3c0.7,2.6,0.9,5.3,0.5,8c0,0.2-0.2,0.4-0.4,0.4
								c-11.4,2.2-21.9,7.7-30.2,15.9C334.3,219,334.2,219.1,334,219.1z M326.5,210.4c1.4,3.1,3.8,5.7,6.8,7.3
								c0.2,0.1,0.4,0.2,0.6,0.3c8.4-8.1,18.8-13.5,30.2-15.8c0.3-2.3,0.2-4.5-0.4-6.7C350.8,199,338.3,204,326.5,210.4z"/>
						</g>
						<g>
							<path class="st16" d="M364.5,202.6c-0.9,5.3-3.8,10-8.2,13.2c-6.4,4.7-15.3,6-22.2,2.8C342.4,210.4,353,204.8,364.5,202.6z"
								/>
							<path class="st17" d="M342.4,220.8c-3,0-5.9-0.6-8.5-1.8c-0.1-0.1-0.3-0.2-0.3-0.4c0-0.2,0-0.3,0.1-0.4
								c8.5-8.3,19.1-13.8,30.7-16.1c0.2,0,0.3,0,0.4,0.1c0.1,0.1,0.2,0.3,0.1,0.4c-0.9,5.4-4,10.3-8.4,13.5
								C352.4,219.2,347.3,220.8,342.4,220.8z M334.9,218.4c6.5,2.7,14.9,1.5,21-3.1c4.1-2.9,6.9-7.3,7.9-12.1
								C353,205.5,343,210.7,334.9,218.4z"/>
						</g>
						<path class="st6" d="M342.4,220.8c-3,0-5.9-0.6-8.5-1.8c-0.3-0.1-0.4-0.4-0.2-0.7c0.1-0.3,0.4-0.4,0.7-0.2
							c6.6,3.1,15.3,2,21.7-2.8c4.3-3,7.2-7.7,8-12.8c0-0.3,0.3-0.5,0.6-0.4c0.3,0,0.5,0.3,0.4,0.6c-0.9,5.4-4,10.3-8.4,13.5
							C352.4,219.2,347.3,220.8,342.4,220.8z"/>
					</g>
					<g>
						<g>
							<polygon class="st16" points="332.2,194.8 345.3,190.5 335.1,181.7 							"/>
							<path class="st17" d="M332.2,195.3c-0.1,0-0.2,0-0.3-0.1c-0.1-0.1-0.2-0.3-0.2-0.5l2.9-13.1c0-0.2,0.2-0.3,0.3-0.4
								c0.2-0.1,0.4,0,0.5,0.1l10.2,8.9c0.1,0.1,0.2,0.3,0.2,0.5c0,0.2-0.2,0.3-0.3,0.4l-13.1,4.3
								C332.3,195.3,332.2,195.3,332.2,195.3z M335.4,182.6l-2.5,11.5l11.5-3.7L335.4,182.6z"/>
						</g>
					</g>
				</g>
				<g>
					
						<ellipse transform="matrix(0.9331 -0.3597 0.3597 0.9331 -23.9815 169.5557)" class="st16" cx="443.6" cy="149.2" rx="8.1" ry="8.1"/>
					<path class="st17" d="M443.6,157.8c-1.2,0-2.4-0.2-3.5-0.7c-2.1-0.9-3.7-2.6-4.5-4.8c-1.7-4.4,0.5-9.4,4.9-11.1
						c4.4-1.7,9.4,0.5,11.1,4.9l0,0c1.7,4.4-0.5,9.4-4.9,11.1C445.7,157.6,444.7,157.8,443.6,157.8z M443.6,141.6
						c-0.9,0-1.8,0.2-2.7,0.5c-3.9,1.5-5.9,5.9-4.4,9.8c0.7,1.9,2.2,3.4,4,4.2c1.9,0.8,3.9,0.9,5.8,0.1c3.9-1.5,5.9-5.9,4.4-9.8l0,0
						C449.6,143.5,446.7,141.6,443.6,141.6z"/>
				</g>
			</g>
			<path class="st9" d="M388.2,222.8c-0.1,3-1.5,6.9-13.6,11.3c-12.8,4.6-19.4,5.7-22,1.2c-2.6,0.8-9.7,3.6-9.3,7.5
				c1.3,11.3,11.9,11.9,35.1,3.1c22.2-8.4,23.2-14.7,21.2-21.1C397.9,219.3,390.6,221.7,388.2,222.8z"/>
			<path class="st7" d="M391.3,222.8c-0.1-0.3-0.3-0.6-0.4-0.9c-0.1,0.1-2.6,0.7-2.7,0.8c-0.1,3-1.5,6.9-13.6,11.3
				c-12.8,4.6-19.4,5.7-22,1.2c-0.4,0.1-2.9,1.1-3.4,1.3c1,7.4,11,9.3,26.8,3.4C392,234.1,392.7,227.1,391.3,222.8z"/>
			<path class="st8" d="M354.3,252.4c-2.9,0-5.2-0.5-7-1.6c-2.5-1.5-4-4.1-4.4-8c-0.5-4.5,7.9-7.5,9.6-8c0.2-0.1,0.5,0,0.6,0.2
				c2.2,3.8,7.8,3.5,21.4-1.4c11.6-4.2,13.2-7.8,13.3-10.9c0-0.2,0.1-0.4,0.3-0.4c0.6-0.3,5.8-2.5,9.3-0.9c1.3,0.6,2.3,1.7,2.8,3.2
				c2.4,7.5-0.3,13.7-21.5,21.7C367.8,250.4,359.9,252.4,354.3,252.4z M352.4,235.9c-1.9,0.6-9,3.3-8.6,6.8c0.4,3.5,1.7,5.9,4,7.2
				c4.8,2.9,14.5,1.5,30.5-4.6c22.6-8.6,22.7-14.8,20.9-20.5c-0.4-1.2-1.1-2.1-2.2-2.6c-2.4-1.1-6.2-0.1-8.2,0.8
				c-0.2,3.3-2.2,7.2-14,11.5C362.7,238.9,355.5,240.4,352.4,235.9z"/>
		</g>
		<path class="st3" d="M326.4,365.7l3.5-38.9c0,0-4-58.2,70.8-72.6c61.3-11.7,83.1,39.8,83.1,39.8l27,88.6c0,0-182.1,9.5-182.1,7
			C328.8,387.2,326.4,365.7,326.4,365.7z"/>
		<path class="st2" d="M465.6,294c0,0-15.4-36.3-56.6-41c-2.7,0.3-5.4,0.7-8.2,1.2c-74.9,14.3-70.8,72.6-70.8,72.6l-3.5,38.9
			c0,0,2.3,21.5,2.3,24c0,0.1,0.2,0.2,0.7,0.2c46.6-1.2,163.1-7.2,163.1-7.2L465.6,294z"/>
		<path class="st2" d="M483.9,294L605,247.1l34.1,34.1c2.5,2.5,4,6,4,9.6v0c0,4.1-1.8,7.9-5,10.5l-90.1,72.9L512,390L483.9,294z"/>
		<path class="st3" d="M512,390l35.7-15.8l6.1-4.9l84.2-68.1c3.2-2.6,5-6.4,5-10.5c0-2.5-0.7-4.8-1.9-6.9L503.8,362L512,390z"/>
		<path class="st4" d="M512,390.5c-0.1,0-0.1,0-0.2,0c-0.1-0.1-0.2-0.2-0.3-0.3l-8.2-28c-0.1-0.2,0-0.5,0.2-0.6l137.3-78.2
			c0.2-0.1,0.5-0.1,0.7,0.2c1.3,2.2,2,4.7,2,7.2c0,4.3-1.9,8.2-5.2,10.9l-84.2,68.1l-6.1,4.9c0,0-0.1,0-0.1,0.1l-35.7,15.8
			C512.1,390.5,512,390.5,512,390.5z M504.4,362.3l7.9,27l35.1-15.5l6.1-4.8l84.2-68.1c3.1-2.5,4.8-6.2,4.8-10.1
			c0-2.2-0.6-4.3-1.6-6.2L504.4,362.3z"/>
		<path class="st4" d="M336.2,390.5c-4.7,0-7.5-0.1-7.8-0.4c-0.1-0.1-0.2-0.3-0.2-0.4c0-2.4-2.3-23.7-2.3-23.9c0,0,0-0.1,0-0.1
			l3.5-38.9c0-0.1-0.8-15.3,7.6-31.8c7.7-15.3,25-34.8,63.7-41.2c32-5.3,53,5.9,65,16.2c13,11.2,18.5,23.8,18.6,23.9l27,88.7
			c0,0.1,0,0.3-0.1,0.4c-0.1,0.1-0.2,0.2-0.4,0.2C484.7,384.5,367.7,390.5,336.2,390.5z M329.3,389.3c6.7,1.5,131.8-4.6,180.9-7.2
			l-26.8-88c0-0.1-5.5-12.5-18.3-23.5c-11.8-10.2-32.6-21.2-64.2-15.9c-21.1,3.5-49.1,13.4-62.9,40.6c-8.3,16.3-7.5,31.3-7.5,31.5
			l-3.5,38.9C327.1,367,329.1,385.9,329.3,389.3z"/>
		<path class="st4" d="M512,390.5c-0.1,0-0.1,0-0.2,0c-0.1-0.1-0.2-0.2-0.3-0.3l-28.1-96c-0.1-0.2,0.1-0.5,0.3-0.6l121.1-46.9
			c0.2-0.1,0.4,0,0.5,0.1l34.1,34.1c2.6,2.6,4.1,6.2,4.1,9.9c0,4.2-1.9,8.2-5.2,10.9l-90.1,72.9c0,0-0.1,0.1-0.1,0.1l-35.9,15.9
			C512.1,390.5,512,390.5,512,390.5z M484.5,294.3l27.8,95l35.3-15.6l90.1-72.9c3.1-2.5,4.8-6.2,4.8-10.1c0-3.5-1.4-6.7-3.8-9.2
			l-33.9-33.9L484.5,294.3z"/>
		<g>
			<ellipse class="st5" cx="421.5" cy="419.3" rx="101.9" ry="99.2"/>
			<path class="st6" d="M421.5,519.1c-56.4,0-102.4-44.7-102.4-99.7s45.9-99.7,102.4-99.7s102.4,44.7,102.4,99.7
				S477.9,519.1,421.5,519.1z M421.5,320.6c-55.9,0-101.4,44.3-101.4,98.7s45.5,98.7,101.4,98.7s101.4-44.3,101.4-98.7
				S477.4,320.6,421.5,320.6z"/>
			<g>
				<ellipse class="st10" cx="425" cy="428.8" rx="87" ry="82"/>
				<path class="st6" d="M425,511.3c-48.2,0-87.5-37-87.5-82.5s39.3-82.5,87.5-82.5s87.5,37,87.5,82.5S473.2,511.3,425,511.3z
					 M425,347.4c-47.7,0-86.5,36.5-86.5,81.5s38.8,81.5,86.5,81.5c47.7,0,86.5-36.5,86.5-81.5S472.7,347.4,425,347.4z"/>
			</g>
			<g>
				<ellipse class="st21" cx="425" cy="428.4" rx="78.8" ry="76.5"/>
				<path class="st6" d="M425,505.4c-43.7,0-79.3-34.6-79.3-77s35.6-77,79.3-77s79.3,34.6,79.3,77S468.7,505.4,425,505.4z
					 M425,352.4c-43.2,0-78.3,34.1-78.3,76s35.1,76,78.3,76c43.2,0,78.3-34.1,78.3-76S468.2,352.4,425,352.4z"/>
			</g>
			<g>
				<ellipse class="st12" cx="425" cy="428.4" rx="49.5" ry="48.1"/>
				<path class="st6" d="M425,477c-27.6,0-50-21.8-50-48.6c0-26.8,22.4-48.6,50-48.6c27.6,0,50,21.8,50,48.6
					C475,455.2,452.6,477,425,477z M425,380.8c-27,0-49,21.3-49,47.6s22,47.6,49,47.6s49-21.3,49-47.6S452,380.8,425,380.8z"/>
			</g>
			<path class="st6" d="M425,477c-27.6,0-50-21.8-50-48.6c0-26.8,22.4-48.6,50-48.6c27.6,0,50,21.8,50,48.6
				C475,455.2,452.6,477,425,477z M425,380.8c-27,0-49,21.3-49,47.6s22,47.6,49,47.6s49-21.3,49-47.6S452,380.8,425,380.8z"/>
			<ellipse class="st3" cx="424.9" cy="428.4" rx="43.5" ry="39.9"/>
			<path class="st4" d="M424.9,468.8c-24.3,0-44-18.1-44-40.4s19.7-40.4,44-40.4s44,18.1,44,40.4S449.2,468.8,424.9,468.8z
				 M424.9,389c-23.7,0-43,17.7-43,39.4s19.3,39.4,43,39.4c23.7,0,43-17.7,43-39.4S448.7,389,424.9,389z"/>
			<path class="st6" d="M425,511.3c-48.2,0-87.5-37-87.5-82.5s39.3-82.5,87.5-82.5s87.5,37,87.5,82.5S473.2,511.3,425,511.3z
				 M425,347.4c-47.7,0-86.5,36.5-86.5,81.5s38.8,81.5,86.5,81.5c47.7,0,86.5-36.5,86.5-81.5S472.7,347.4,425,347.4z"/>
			<g>
				<g>
					<path class="st10" d="M450.7,420.5c27-27.5,96.5-88.3,118-28.1c22.2,62.6-81.3,59.5-114.5,54.6"/>
				</g>
				<path class="st5" d="M495.5,396.5c13.1-13.1,27.2-23.3,40.4-29.8c-29.1,1.2-67,35.1-85.2,53.8l3.5,26.5c2.1,0.3,4.4,0.6,6.9,0.9
					C466.7,431.8,478.7,413.4,495.5,396.5z"/>
				<g>
					<path class="st6" d="M489.1,449.9c-14.3,0-27-1.1-35-2.3c-0.3,0-0.5-0.3-0.4-0.6c0-0.3,0.3-0.5,0.6-0.4
						c23.5,3.4,89.3,6.7,110.5-19.2c7.3-9,8.5-20.7,3.5-34.8c-5-14-13-22.3-23.7-24.7c-31.7-7-79.5,38.8-93.4,52.9
						c-0.2,0.2-0.5,0.2-0.7,0c-0.2-0.2-0.2-0.5,0-0.7c14-14.3,62.2-60.3,94.3-53.2c11.1,2.4,19.3,11,24.4,25.3
						c5.2,14.5,3.9,26.5-3.7,35.8C551.2,445.4,517.3,449.9,489.1,449.9z"/>
				</g>
			</g>
			<g>
				<g>
					<path class="st10" d="M385.8,450.4c-38.6,0.4-130.7-5.8-103.3-63.5c28.5-60,99.5,15.4,119.6,42.3"/>
				</g>
				<path class="st5" d="M337.2,435.7c-18.6,0-35.7-2.8-49.7-7.5c21.5,19.7,72.2,22.5,98.3,22.2l16.3-21.2c-1.2-1.7-2.7-3.5-4.3-5.5
					C382.5,431.1,361,435.7,337.2,435.7z"/>
				<g>
					<path class="st6" d="M382.9,450.9c-22.9,0-84.5-2.6-101.4-29.1c-6.1-9.6-5.9-21.4,0.6-35.2c6.6-13.9,16-21.5,27.9-22.7
						c33.7-3.3,78.2,45.8,92.5,65c0.2,0.2,0.1,0.5-0.1,0.7c-0.2,0.2-0.5,0.1-0.7-0.1c-14.2-19.1-58.4-67.8-91.6-64.6
						c-11.5,1.1-20.6,8.6-27.1,22.1c-6.4,13.4-6.6,24.9-0.7,34.2c17.5,27.3,83.6,28.8,103.5,28.6c0,0,0,0,0,0c0.3,0,0.5,0.2,0.5,0.5
						c0,0.3-0.2,0.5-0.5,0.5C384.9,450.9,384,450.9,382.9,450.9z"/>
				</g>
			</g>
			<g>
				<g>
					<path class="st10" d="M438.5,472.3c21.1,32.3,65.4,113.3,2,121.2c-65.9,8.2-40.5-92.2-28.6-123.6"/>
				</g>
				<path class="st5" d="M452.2,521.3c10,15.7,16.9,31.6,20.4,45.9c5.1-28.7-19.9-73-34.1-94.8l-26.7-2.3c-0.7,1.9-1.5,4.1-2.3,6.6
					C424,485.5,439.4,501.2,452.2,521.3z"/>
				<g>
					<path class="st6" d="M433.2,594.6c-11.7,0-20.7-3.9-26.8-11.8c-20.9-26.6-3.5-90.6,5-113c0.1-0.3,0.4-0.4,0.6-0.3
						c0.3,0.1,0.4,0.4,0.3,0.6c-8.4,22.2-25.8,85.7-5.1,112c7.2,9.1,18.3,12.8,33.2,10.9c14.7-1.8,24.6-7.8,29.2-17.8
						c13.7-29.4-20.7-86-31.5-102.6c-0.2-0.2-0.1-0.5,0.1-0.7c0.2-0.1,0.5-0.1,0.7,0.1c10.9,16.7,45.5,73.7,31.6,103.6
						c-4.8,10.3-14.9,16.5-30,18.4C438,594.4,435.5,594.6,433.2,594.6z"/>
				</g>
			</g>
			<circle class="st5" cx="425" cy="443.6" r="42.7"/>
			<path class="st6" d="M425,486.8c-23.8,0-43.2-19.4-43.2-43.2s19.4-43.2,43.2-43.2c23.8,0,43.2,19.4,43.2,43.2
				S448.8,486.8,425,486.8z M425,401.4c-23.3,0-42.2,18.9-42.2,42.2s18.9,42.2,42.2,42.2s42.2-18.9,42.2-42.2S448.2,401.4,425,401.4
				z"/>
			<path class="st2" d="M461.5,448.2c0,22.2-16.1,42.9-34.1,42.9c-18,0-39-22.1-39-44.3s20.9-36.1,39-36.1
				C445.4,410.6,461.5,426,461.5,448.2z"/>
			<path class="st3" d="M444.9,415.9c4,6,6.3,13.5,6.3,22.1c0,22.2-16.1,42.9-34.1,42.9c-6.3,0-13-2.7-18.9-7.2
				c7.7,10.3,18.9,17.4,29.2,17.4c18,0,34.1-20.7,34.1-42.9C461.5,433.7,454.7,422.2,444.9,415.9z"/>
			<path class="st4" d="M427.4,491.6c-19.2,0-39.5-23.1-39.5-44.8c0-21.9,20.4-36.6,39.5-36.6c17,0,34.6,14.2,34.6,38.1
				C462,470.9,445.5,491.6,427.4,491.6z M427.4,411.1c-18.6,0-38.5,14.3-38.5,35.6c0,10.3,4.6,21.3,12.6,30.2
				c7.7,8.6,17.4,13.7,25.9,13.7c17.6,0,33.6-20.2,33.6-42.4C461,427.4,446.2,411.1,427.4,411.1z"/>
		</g>
	</g>
</g>
<title>home-illustration-pilot</title>
</svg>
