<?xml version="1.0" encoding="UTF-8"?>
<svg width="81px" height="82px" viewBox="0 0 81 82" version="1.1" xmlns="http://www.w3.org/2000/svg" xmlns:xlink="http://www.w3.org/1999/xlink">
    <!-- Generator: Sketch 48.2 (47327) - http://www.bohemiancoding.com/sketch -->
    <title>Standard</title>
    <desc>Created with Sketch.</desc>
    <defs></defs>
    <g id="pricing-plans/v6/images/teacher-copy" stroke="none" stroke-width="1" fill="none" fill-rule="evenodd" transform="translate(-2.000000, -2.000000)">
        <g id="image">
            <g id="Standard" transform="translate(-16.000000, 1.000000)">
                <path d="M89,31.2823841 C90.9623067,28.5300451 94.3853334,27.2232757 97.6837615,27.9672848 C97.9159357,28.0415089 98.1593944,28.0741957 98.4029358,28.0638411 C98.7403883,27.9901162 99.0518059,27.8270757 99.3045872,27.5917881 C102.617531,25.0563782 106.557939,23.4691508 110.704037,23 C110.924279,25.7460252 110.985207,28.5024953 110.886514,31.2555629" id="Shape" fill="#E7F1F8" fill-rule="nonzero"></path>
                <path d="M116.232523,73.7631126 L114.139404,72.4864238 C113.288343,71.8972954 112.342602,71.4582309 111.343211,71.1882781 C110.101457,70.9506553 108.817574,71.2616819 107.822477,72.0411921 C106.683758,70.6875674 104.997624,69.915806 103.228349,69.9384106 C102.797516,68.5420837 101.800789,67.3902047 100.480459,66.7627815 C99.45,66.3068212 98.1511927,66.3229139 97.4320183,67.2992053 C97.2066055,64.7029139 97.0724312,61.1196026 94.4533486,59.5210596 C91.8342661,57.9225166 88.5926147,61.9778808 88.1203211,62.8683444 C87.9762959,63.2064362 87.9298182,63.5780688 87.9861468,63.9411921 C87.9861468,64.6492715 87.9861468,65.357351 87.9861468,66.0868874 C87.9861468,69.1123179 87.9074312,72.1359603 87.75,75.1578146 C90.7984404,74.9378808 93.8683486,75.1578146 96.922156,75.0934437 C98.4302752,75.0505298 99.9330275,75.0451656 101.43578,75.0612583 C102.058349,74.9968874 102.680917,74.9378808 103.298119,74.8949669 C107.591697,74.605298 111.885275,75.1095364 116.141284,74.9968874 C116.367963,75.0277019 116.593101,74.9306734 116.726284,74.7447682 C116.924862,74.358543 116.549174,73.9562252 116.232523,73.7631126 Z" id="Shape" fill="#19BC9C" fill-rule="nonzero"></path>
                <path d="M88.1847248,68.0180132 C89.1293119,66.9827152 90.288578,66.2639073 91.4854128,66.28 C92.8671403,66.381519 94.0504122,67.3077312 94.4801835,68.6241722 C94.7264224,69.3611904 94.9060408,70.1187938 95.0168807,70.8878808 C95.0311118,71.083654 95.1040554,71.2705934 95.2261927,71.4243046 C95.3925688,71.5745033 95.6126147,71.4618543 95.7950917,71.3492053 C96.7382211,70.6801928 97.8591597,70.306737 99.0152752,70.2763576 C100.28472,70.372909 101.38638,71.1883059 101.849037,72.3737748 C101.961743,72.6312583 102.07445,72.9101987 102.278394,73.006755 C102.404276,73.0338558 102.535711,73.014817 102.648716,72.9531126 C103.517232,72.5519728 104.498644,72.4665936 105.42344,72.7117219 C106.478461,73.1036709 107.271823,73.9909815 107.543394,75.0827152 L87.755367,75.1417219 L87.8358716,68.5276159 L88.1847248,68.0180132 Z" id="Shape" fill="#109995" fill-rule="nonzero" opacity="0.7"></path>
                <polygon id="Shape" fill="#E7F1F8" fill-rule="nonzero" points="87.8519725 46.7005298 87.8519725 52.3812583 58.5483028 43.5249007 58.5483028 40.8696026"></polygon>
                <path d="M3.38119266,59.3708609 C3.91788991,57.7615894 5.22206422,56.4580795 6.65504587,55.4442384 C5.68782354,54.6629038 5.10171363,53.5049501 5.04495413,52.263245 C5.00803525,51.0393872 5.31480498,49.8296577 5.93050459,48.7711258 C6.86030173,46.9792773 8.49323998,45.6541623 10.4387615,45.1127152 C12.4084404,44.635298 14.7323394,45.3219205 15.8057339,46.974106 C16.3289238,47.8904536 16.6251964,48.9186028 16.6698165,49.9727152 C16.7897055,51.1992296 16.811242,52.4333641 16.7342202,53.6633113 C19.0029704,54.7795794 20.3290828,57.1966788 20.0510092,59.7088079 C19.8738991,60.9854967 18.9776147,62.3909272 17.6573394,62.4392053 C17.4052626,62.4096194 17.1504803,62.4643226 16.9327982,62.5947682 C16.8021076,62.7614167 16.7236773,62.9629918 16.7073853,63.174106 C16.4147657,64.0573164 15.6313558,64.6870838 14.7055046,64.7833775 C13.7837587,64.874639 12.8534608,64.7478448 11.9898165,64.413245 C11.6886765,64.2926466 11.369326,64.2237311 11.0452294,64.209404 C10.6745717,64.2464641 10.312212,64.3424405 9.97183486,64.4937086 C6.44036697,65.7113907 2.14678899,63.2277483 3.38119266,59.3708609 Z" id="Shape" fill="#19BC9C" fill-rule="nonzero"></path>
                <path d="M8.44224771,64.8209272 C7.58162542,65.0181111 6.67780287,64.8594908 5.93587156,64.3810596 C5.5695495,64.0696358 5.29031801,63.6685606 5.12545872,63.2170199 C4.61630432,61.9183837 4.68661035,60.4641806 5.31866972,59.2206623 C5.96344982,57.9862301 7.07728155,57.0623754 8.41004587,56.6565563 C9.49174257,56.2769371 10.6901111,56.4406307 11.6302294,57.0964238 C11.8999566,56.5861777 12.358238,56.2012635 12.9075688,56.0235762 C15.294232,55.0671463 18.0121904,56.1471731 19.0903211,58.4803974 C19.3633064,59.0144456 19.4716383,59.6174349 19.4016055,60.2130464 C19.338266,60.6021815 19.1817577,60.9702487 18.9454128,61.285894 C18.4087652,61.9962487 17.5656647,62.4086196 16.6751835,62.3962914 C16.7727086,62.662089 16.7282173,62.9592198 16.5571101,63.1848344 C16.0815171,63.9471813 15.3162903,64.4835354 14.437156,64.6707285 C13.5604387,64.8513166 12.6487447,64.7421197 11.8395413,64.3596026 C11.5833093,64.2008817 11.2876424,64.1172451 10.9861927,64.1182119 C10.8238599,64.1521748 10.6680277,64.2119404 10.524633,64.2952318 C9.68373665,64.7136992 8.74589057,64.8989498 7.80894495,64.8316556" id="Shape" fill="#109995" fill-rule="nonzero" opacity="0.7"></path>
                <path d="M20.3247248,56.3990728 C20.1516219,55.6128799 19.7968941,54.8780673 19.2888991,54.2533775 C18.595297,53.4995444 17.6865873,52.9770684 16.6859174,52.756755 C16.8809465,51.8007102 16.9423573,50.822248 16.8683945,49.8493377 C16.8252162,48.3071206 16.3912657,46.8010641 15.607156,45.4721192 C14.8016798,44.1355058 13.4054403,43.2642975 11.8502752,43.127947 C10.884742,43.1240445 9.93646797,43.3837132 9.10775229,43.8789404 C5.28957535,45.9938489 3.80985497,50.7355197 5.74802752,54.6449669 C3.37045872,56.3400662 1.95357798,59.7249007 3.51536697,62.3855629 C4.90541284,64.7565563 8.80183486,65.8025828 10.9915596,63.9358278 C11.7530407,64.4204994 12.6240559,64.7063862 13.5247706,64.7672848 C14.2977436,64.8383429 15.0734373,64.6637599 15.7413303,64.2684106 C16.404886,63.8545575 16.8100136,63.1297484 16.8147248,62.3480132 C18.1726536,62.2990045 19.3935553,61.5074717 19.9919725,60.2881457 C20.5649868,59.0733672 20.6830531,57.6934566 20.3247248,56.3990728 Z" id="Shape" stroke="#109995" stroke-width="0.536423841" stroke-linecap="round" stroke-linejoin="round"></path>
                <path d="M15.1080275,74.9271523 C15.1080275,73.9702367 15.8841563,73.1945033 16.8415596,73.1945033 C17.798963,73.1945033 18.5750917,73.9702367 18.5750917,74.9271523" id="Shape" stroke="#3F555A" stroke-width="0.536423841" stroke-linecap="round" stroke-linejoin="round"></path>
                <path d="M0.0912385321,74.9539735 C39.2057339,75.2168212 77.7513303,75.2168212 116.737018,74.9539735" id="Shape" stroke="#A1C2D8" stroke-width="0.536423841" stroke-linecap="round" stroke-linejoin="round"></path>
                <polygon id="Shape" stroke="#A1C2D8" stroke-width="0.536423841" stroke-linecap="round" stroke-linejoin="round" points="76.3290826 25.0182781 76.3290826 40.5316556 62.2890826 41.2611921 62.2890826 21.3330464"></polygon>
                <polygon id="Shape" stroke="#A1C2D8" stroke-width="0.536423841" fill="#D0E4F1" fill-rule="nonzero" stroke-linecap="round" stroke-linejoin="round" points="62.2890826 21.3330464 62.2890826 38.9599338 26.2981651 43.1333113 26.2981651 32.1688079"></polygon>
                <path d="M73.4148165,32.9412583 C72.9478899,35.6233775 70.8118349,37.1146358 68.648945,36.2939073 C66.486055,35.4731788 65.1121101,32.6515894 65.5790367,29.9801987 C66.0459633,27.3088079 68.1605505,25.8121854 70.3502752,26.6490066 C72.54,27.4858278 73.8871101,30.2698675 73.4148165,32.9412583 Z" id="Shape" stroke="#3F555A" stroke-width="0.536423841" stroke-linecap="round" stroke-linejoin="round"></path>
                <path d="M69.3627523,28.6552318 L69.3305505,31.337351 C69.2846907,31.669597 69.4027032,32.0034622 69.6472018,32.2331788 L71.0587156,33.9121854" id="Shape" stroke="#3F555A" stroke-width="0.536423841" stroke-linecap="round" stroke-linejoin="round"></path>
                <polygon id="Shape" stroke="#A1C2D8" stroke-width="0.536423841" fill="#C3D4E0" fill-rule="nonzero" stroke-linecap="round" stroke-linejoin="round" points="59.476789 25.5064238 59.476789 27.0084106 29.9423394 35.2800662 29.9423394 42.430596 28.9118807 42.6183444 28.9118807 34.2769536"></polygon>
                <path d="M38.1055046,38.402053 C42.710367,36.6747682 46.7409633,31.4982781 52.4943578,33.2255629 C54.3727982,33.6922517 57.0133486,35.3068874 59.471422,34.6417219 L59.471422,27.0084106 L29.9530734,35.274702 L29.9530734,37.5866887 C32.6633945,36.4762914 35.3790826,39.4909934 38.1055046,38.402053 Z" id="Shape" fill="#FFFFFF" fill-rule="nonzero"></path>
                <path d="M52.4889908,33.2255629 C46.7302294,31.4982781 42.705,36.6801325 38.1001376,38.402053 C35.3790826,39.4749007 32.6633945,36.4762914 29.9423394,37.592053 L29.9423394,42.4198675 L59.4606881,37.0556291 L59.4606881,34.6417219 C57.0079817,35.3068874 54.3674312,33.6922517 52.4889908,33.2255629 Z" id="Shape" fill="#E7F1F8" fill-rule="nonzero"></path>
                <polygon id="Shape" stroke="#A1C2D8" stroke-width="0.536423841" stroke-linecap="round" stroke-linejoin="round" points="59.476789 27.0084106 59.476789 37.0449007 29.9423394 42.430596 29.9423394 35.2800662"></polygon>
                <path d="M42.903578,31.7128477 L42.903578,38.5576159" id="Shape" stroke="#A1C2D8" stroke-width="0.536423841" stroke-linecap="round" stroke-linejoin="round"></path>
                <polyline id="Shape" stroke="#A1C2D8" stroke-width="0.536423841" stroke-linecap="round" stroke-linejoin="round" points="50.1704587 29.7924503 50.111422 29.9748344 50.111422 36.5943046"></polyline>
                <path d="M87.8358716,63.4047682 C88.8126606,60.4383444 91.4049083,57.3807285 94.1474312,57.7884106 C97.4803211,58.2819205 97.4105505,64.1664901 97.4266514,67.3045695 C97.7322281,66.1384271 98.8779006,65.3983087 100.067202,65.5987417 C101.677294,65.9366887 103.31422,67.8731788 103.217615,69.9384106 C104.859908,68.935298 107.092569,69.992053 107.801009,72.1162914 C109.179907,71.0385365 111.049317,70.8309301 112.631284,71.5798675 C114.064266,72.2664901 115.250367,73.6880132 116.742385,74.1064238" id="Shape" stroke="#109995" stroke-width="0.536423841" stroke-linecap="round" stroke-linejoin="round"></path>
                <polygon id="Shape" stroke="#A1C2D8" stroke-width="0.536423841" stroke-linecap="round" stroke-linejoin="round" points="87.8519725 46.7005298 87.8519725 74.9486093 58.5483028 74.9486093 58.5483028 40.8696026"></polygon>
                <polygon id="Shape" stroke="#A1C2D8" stroke-width="0.536423841" fill="#D0E4F1" fill-rule="nonzero" stroke-linecap="round" stroke-linejoin="round" points="58.5483028 40.8696026 58.5483028 74.9486093 23.5717431 74.9486093 23.5717431 47.1886755"></polygon>
                <polygon id="Shape" stroke="#A1C2D8" stroke-width="0.536423841" stroke-linecap="round" stroke-linejoin="round" points="58.5483028 40.8696026 58.5483028 74.9486093 23.5717431 74.9486093 23.5717431 47.1886755"></polygon>
                <polygon id="Shape" stroke="#A1C2D8" stroke-width="0.536423841" fill="#C3D4E0" fill-rule="nonzero" stroke-linecap="round" stroke-linejoin="round" points="54.7055505 44.5977483 54.7055505 46.03 27.4466972 50.417947 27.4466972 62.0154305 26.2981651 62.1066225 26.2981651 49.2646358"></polygon>
                <path d="M49.6122936,55.0794702 C45.0074312,56.2327815 45.5816972,47.6017219 40.9768349,49.9029801 C36.9462385,52.2042384 35.2180734,57.9493377 30.038945,52.7782119 C29.448578,51.8931126 28.4288532,52.0701325 27.4466972,52.7782119 L27.4466972,62.0261589 L54.7055505,59.7892715 L54.7055505,53.8886093 C53.041789,53.1215232 50.9862385,54.6342384 49.6122936,55.0794702 Z" id="Shape" fill="#E7F1F8" fill-rule="nonzero"></path>
                <path d="M27.4466972,50.417947 L27.4466972,52.7728477 C28.4020183,52.0808609 29.448578,51.9038411 30.038945,52.7728477 C35.2180734,57.9493377 36.9462385,52.1988742 40.9768349,49.8976159 C45.5816972,47.5963576 45.0074312,56.2274172 49.6122936,55.074106 C50.9701376,54.6235099 53.041789,53.1107947 54.7055505,53.883245 L54.7055505,46.03 L27.4466972,50.417947 Z" id="Shape" fill="#FFFFFF" fill-rule="nonzero"></path>
                <polygon id="Shape" stroke="#A1C2D8" stroke-width="0.536423841" stroke-linecap="round" stroke-linejoin="round" points="54.7055505 46.03 54.7055505 59.778543 27.4466972 62.0154305 27.4466972 50.417947"></polygon>
                <path d="M58.5483028,40.8696026 L23.5717431,47.1886755" id="Shape" stroke="#233839" stroke-width="0.536423841" stroke-linecap="round" stroke-linejoin="round"></path>
                <path d="M27.5808716,55.5193377 L53.0900917,52.3812583" id="Shape" stroke="#A1C2D8" stroke-width="0.536423841" stroke-linecap="round" stroke-linejoin="round"></path>
                <path d="M48.2437156,47.4139735 L48.2437156,56.1952318" id="Shape" stroke="#A1C2D8" stroke-width="0.536423841" stroke-linecap="round" stroke-linejoin="round"></path>
                <path d="M42.5332569,50.0746358 L42.5332569,56.3186093" id="Shape" stroke="#A1C2D8" stroke-width="0.536423841" stroke-linecap="round" stroke-linejoin="round"></path>
                <path d="M36.8227982,52.847947 L36.8227982,57.5845695" id="Shape" stroke="#A1C2D8" stroke-width="0.536423841" stroke-linecap="round" stroke-linejoin="round"></path>
                <path d="M31.1123394,52.4992715 L31.1123394,59.0865563" id="Shape" stroke="#A1C2D8" stroke-width="0.536423841" stroke-linecap="round" stroke-linejoin="round"></path>
                <polygon id="Shape" stroke="#D65129" stroke-width="0.536423841" fill="#D65129" fill-rule="nonzero" stroke-linecap="round" stroke-linejoin="round" points="59.2513761 39.212053 89.2527523 45.6866887 87.8519725 46.7005298 58.5483028 40.8696026"></polygon>
                <polygon id="Shape" stroke="#D65129" stroke-width="0.536423841" fill="#D65129" fill-rule="nonzero" stroke-linecap="round" stroke-linejoin="round" points="58.5483028 40.8696026 59.2513761 39.212053 21.9723853 45.9656291 23.5717431 47.1886755"></polygon>
                <polygon id="Shape" stroke="#D65129" stroke-width="0.536423841" fill="#D65129" fill-rule="nonzero" stroke-linecap="round" stroke-linejoin="round" points="21.9723853 45.9656291 21.9723853 44.0291391 59.2513761 37.0449007 59.2513761 39.212053"></polygon>
                <polygon id="Shape" stroke="#D65129" stroke-width="0.536423841" fill="#F56F40" fill-rule="nonzero" stroke-linecap="round" stroke-linejoin="round" points="89.2527523 45.6866887 89.2527523 43.1601325 59.2513761 37.0449007 59.2513761 39.212053"></polygon>
                <ellipse id="Oval" stroke="#D0E4F1" stroke-width="0.536423841" stroke-linecap="round" stroke-linejoin="round" cx="84.621055" cy="3.72225166" rx="3.06454128" ry="3.06298013"></ellipse>
                <polygon id="Shape" stroke="#D65129" stroke-width="0.536423841" fill="#D65129" fill-rule="nonzero" stroke-linecap="round" stroke-linejoin="round" points="64.7256881 54.8649007 63.5181193 54.8649007 63.5181193 53.0517881 64.7256881 53.094702"></polygon>
                <polygon id="Shape" stroke="#D65129" stroke-width="0.536423841" fill="#F56F40" fill-rule="nonzero" stroke-linecap="round" stroke-linejoin="round" points="64.7256881 73.1569536 64.7256881 55.0955629 70.2483028 55.8411921 75.0356422 56.4849007 75.0356422 73.3607947"></polygon>
                <path d="M68.5362385,64.1664901 C68.5845413,61.8545033 68.6167431,59.6766225 68.5738073,57.3592715 L66.4270183,57.0749669 L66.4270183,64.0913907 L68.5362385,64.1664901 Z" id="Shape" stroke="#A1C2D8" stroke-width="0.536423841" fill="#FFFFFF" fill-rule="nonzero" stroke-linecap="round" stroke-linejoin="round"></path>
                <path d="M71.4129358,64.2737748 C71.8905963,64.2737748 72.3682569,64.3327815 72.8459174,64.3381457 L73.3074771,64.3381457 L73.3074771,57.9922517 L71.4558716,57.7401325 C71.4934404,59.9394702 71.4612385,62.0529801 71.4129358,64.2737748 Z" id="Shape" stroke="#A1C2D8" stroke-width="0.536423841" fill="#FFFFFF" fill-rule="nonzero" stroke-linecap="round" stroke-linejoin="round"></path>
                <path d="M70.2322018,73.2696026 L70.2322018,55.8411921" id="Shape" stroke="#D65129" stroke-width="0.536423841" fill="#F56F40" fill-rule="nonzero" stroke-linecap="round" stroke-linejoin="round"></path>
                <polygon id="Shape" stroke="#D65129" stroke-width="0.536423841" fill="#F56F40" fill-rule="nonzero" stroke-linecap="round" stroke-linejoin="round" points="64.7256881 53.094702 76.2002752 55.0955629 76.2002752 56.6404636 64.7256881 54.8649007"></polygon>
                <polygon id="Shape" stroke="#A1C2D8" stroke-width="0.536423841" fill="#D0E4F1" fill-rule="nonzero" stroke-linecap="round" stroke-linejoin="round" points="78.781789 57.9117881 85.7695872 58.7325166 85.7695872 68.8977483 78.781789 68.5437086"></polygon>
                <path d="M81.2720642,61.4146358 C80.8355792,61.1528893 80.2751827,61.2335453 79.9303211,61.6077483 L79.9303211,67.449404 L84.621055,67.6854305 L84.621055,64.1986755 C83.3115138,63.6998013 82.4152294,62.5625828 81.2720642,61.4146358 Z" id="Shape" fill="#E7F1F8" fill-rule="nonzero"></path>
                <path d="M79.9303211,59.2045695 L79.9303211,61.6077483 C80.2751827,61.2335453 80.8355792,61.1528893 81.2720642,61.4146358 C82.4152294,62.5572185 83.3115138,63.6998013 84.621055,64.1718543 L84.621055,59.7570861 L79.9303211,59.2045695 Z" id="Shape" fill="#FFFFFF" fill-rule="nonzero"></path>
                <polygon id="Shape" stroke="#A1C2D8" stroke-width="0.536423841" stroke-linecap="round" stroke-linejoin="round" points="79.9303211 67.449404 79.9303211 59.2045695 84.621055 59.7570861 84.621055 67.6854305"></polygon>
                <ellipse id="Oval" stroke="#3F555A" stroke-width="0.536423841" stroke-linecap="round" stroke-linejoin="round" cx="46.2257339" cy="72.2021192" rx="2.08775229" ry="2.74649007"></ellipse>
                <ellipse id="Oval" stroke="#3F555A" stroke-width="0.536423841" stroke-linecap="round" stroke-linejoin="round" cx="36.9194037" cy="72.2021192" rx="2.08775229" ry="2.74649007"></ellipse>
                <path d="M46.1881651,72.2450331 C45.8448032,71.64629 45.6360206,70.9799904 45.5763303,70.2924503 C45.3502765,68.7637261 45.2515432,67.2188882 45.2811468,65.6738411" id="Shape" stroke="#F56F40" stroke-width="0.536423841" stroke-linecap="round" stroke-linejoin="round"></path>
                <path d="M45.1791743,67.5030464 L40.2469266,67.5030464" id="Shape" stroke="#F56F40" stroke-width="0.536423841" stroke-linecap="round" stroke-linejoin="round"></path>
                <path d="M41.6745413,72.2128477 L45.1845413,68.1789404" id="Shape" stroke="#F56F40" stroke-width="0.536423841" stroke-linecap="round" stroke-linejoin="round"></path>
                <path d="M39.6136239,66.1512583 L41.6745413,72.2128477" id="Shape" stroke="#F56F40" stroke-width="0.536423841" stroke-linecap="round" stroke-linejoin="round"></path>
                <polyline id="Shape" stroke="#3F555A" stroke-width="0.536423841" stroke-linecap="round" stroke-linejoin="round" points="38.4650917 66.1512583 38.7549083 66.0171523 40.751422 66.0171523"></polyline>
                <path d="M37.0160092,72.0411921 L39.967844,67.7498013" id="Shape" stroke="#F56F40" stroke-width="0.536423841" stroke-linecap="round" stroke-linejoin="round"></path>
                <path d="M36.9194037,72.2343046 L41.4437615,72.2343046" id="Shape" stroke="#F56F40" stroke-width="0.536423841" stroke-linecap="round" stroke-linejoin="round"></path>
                <ellipse id="Oval" stroke="#3F555A" stroke-width="0.536423841" fill="#D0E4F1" fill-rule="nonzero" stroke-linecap="round" stroke-linejoin="round" cx="41.6745413" cy="72.0411921" rx="1" ry="1.18013245"></ellipse>
                <path d="M41.8087156,69.7828477 L42.5708257,69.7828477" id="Shape" stroke="#3F555A" stroke-width="0.536423841" stroke-linecap="round" stroke-linejoin="round"></path>
                <path d="M40.8211927,74.1386093 L41.540367,74.1386093" id="Shape" stroke="#3F555A" stroke-width="0.536423841" stroke-linecap="round" stroke-linejoin="round"></path>
                <path d="M41.6745413,72.1270199 C41.4603663,72.7367757 41.281176,73.3582493 41.137844,73.9884106" id="Shape" stroke="#3F555A" stroke-width="0.536423841" stroke-linecap="round" stroke-linejoin="round"></path>
                <path d="M41.8623853,70.7645033 L42.1307339,69.9384106" id="Shape" stroke="#3F555A" stroke-width="0.536423841" stroke-linecap="round" stroke-linejoin="round"></path>
                <path d="M45.2811468,65.6684768 L46.418945,65.6684768 C46.8012394,65.7026035 47.0855055,66.0368637 47.0576147,66.4194702 C47.0855055,66.8020767 46.8012394,67.1363369 46.418945,67.1704636 L46.3491743,67.1704636" id="Shape" stroke="#3F555A" stroke-width="0.536423841" stroke-linecap="round" stroke-linejoin="round"></path>
                <ellipse id="Oval" stroke="#3F555A" stroke-width="0.536423841" stroke-linecap="round" stroke-linejoin="round" cx="30.7205505" cy="72.2021192" rx="2.08775229" ry="2.74649007"></ellipse>
                <path d="M37.9713303,67.5030464 L34.0480734,67.5030464" id="Shape" stroke="#19BC9C" stroke-width="0.536423841" stroke-linecap="round" stroke-linejoin="round"></path>
                <path d="M33.4147706,66.1512583 L34.6760092,69.8525828" id="Shape" stroke="#19BC9C" stroke-width="0.536423841" stroke-linecap="round" stroke-linejoin="round"></path>
                <polyline id="Shape" stroke="#3F555A" stroke-width="0.536423841" stroke-linecap="round" stroke-linejoin="round" points="32.2662385 66.1512583 32.556055 66.0171523 34.5525688 66.0171523"></polyline>
                <path d="M30.817156,72.0411921 L33.7636239,67.7498013" id="Shape" stroke="#19BC9C" stroke-width="0.536423841" stroke-linecap="round" stroke-linejoin="round"></path>
                <path d="M30.7205505,72.2450331 L33.7099541,72.2450331" id="Shape" stroke="#19BC9C" stroke-width="0.536423841" stroke-linecap="round" stroke-linejoin="round"></path>
                <ellipse id="Oval" stroke="#3F555A" stroke-width="0.536423841" stroke-linecap="round" stroke-linejoin="round" cx="24.3875229" cy="72.2021192" rx="2.08775229" ry="2.74649007"></ellipse>
                <path d="M31.6651376,67.5030464 L27.7204128,67.5030464" id="Shape" stroke="#3290C1" stroke-width="0.536423841" stroke-linecap="round" stroke-linejoin="round"></path>
                <path d="M27.0817431,66.1512583 L28.3429817,69.8525828" id="Shape" stroke="#3290C1" stroke-width="0.536423841" stroke-linecap="round" stroke-linejoin="round"></path>
                <polyline id="Shape" stroke="#3F555A" stroke-width="0.536423841" stroke-linecap="round" stroke-linejoin="round" points="25.933211 66.1512583 26.2230275 66.0171523 28.2195413 66.0171523"></polyline>
                <path d="M24.4841284,72.0411921 L27.4359633,67.7498013" id="Shape" stroke="#3290C1" stroke-width="0.536423841" stroke-linecap="round" stroke-linejoin="round"></path>
                <path d="M24.3875229,72.2450331 L27.3715596,72.2450331" id="Shape" stroke="#3290C1" stroke-width="0.536423841" stroke-linecap="round" stroke-linejoin="round"></path>
                <path d="M61.4464679,70.9254305 C61.1849989,70.4985948 60.6452856,70.3349191 60.1905963,70.5445695 L60.260367,70.3997351 C60.7970642,69.2786093 61.5377064,67.7176159 60.1691284,66.7842384 C59.4284862,66.2746358 57.6788532,66.7198675 57.7486239,67.7927152 C57.7358962,66.8499949 57.4808492,65.9263825 57.0079817,65.110596 C56.2941743,64.0377483 54.995367,64.2791391 54.1956881,65.1696026 C52.9764632,66.5552499 53.0374098,68.6474675 54.3352294,69.9598675 C53.7690566,69.6077435 53.0311199,69.7166755 52.5909633,70.217351 C51.7215138,71.2150993 52.2796789,72.6580795 53.1276606,73.7523841 C53.7364733,74.520029 54.6647201,74.9651231 55.6447706,74.9593377 L58.4570642,74.9593377 C60.1936896,74.9893929 61.630406,73.6156344 61.6772477,71.8802649 C61.6902535,71.5467695 61.6103595,71.216214 61.4464679,70.9254305 Z" id="Shape" fill="#FFFFFF" fill-rule="nonzero"></path>
                <path d="M52.7734404,72.0250993 C52.9149376,71.0989374 53.6052839,70.3516202 54.5177064,70.1368874 C53.8321196,69.559057 53.5647904,68.6238813 53.8414679,67.7712583 C54.0669825,66.8706311 54.8041269,66.1885936 55.7199083,66.033245 C56.1698148,65.987016 56.6188814,66.12828 56.9611985,66.4237207 C57.3035156,66.7191615 57.5087787,67.1426244 57.528578,67.5942384 C58.1826499,67.225103 59.0084526,67.3892674 59.471422,67.9804636 C59.9083943,68.5726974 60.1005751,69.3102956 60.0081193,70.0403311 C59.9790481,70.1692439 59.9790481,70.3030077 60.0081193,70.4319205 C60.0787753,70.5674505 60.1775862,70.6863289 60.2979358,70.780596 C60.7363776,71.2996265 60.9659464,71.9631245 60.9419725,72.6419868 C60.9736664,72.9694547 60.9295951,73.2998215 60.8131651,73.6075497 C60.4920775,74.1458593 59.9540471,74.5193556 59.3372477,74.6321192 C57.3783028,75.1953642 52.3387156,75.2704636 52.7734404,72.0250993 Z" id="Shape" fill="#19BC9C" fill-rule="nonzero"></path>
                <path d="M61.4464679,70.9254305 C61.1849989,70.4985948 60.6452856,70.3349191 60.1905963,70.5445695 L60.260367,70.3997351 C60.7970642,69.2786093 61.5377064,67.7176159 60.1691284,66.7842384 C59.4284862,66.2746358 57.6788532,66.7198675 57.7486239,67.7927152 C57.7358962,66.8499949 57.4808492,65.9263825 57.0079817,65.110596 C56.2941743,64.0377483 54.995367,64.2791391 54.1956881,65.1696026 C52.9764632,66.5552499 53.0374098,68.6474675 54.3352294,69.9598675 C53.7690566,69.6077435 53.0311199,69.7166755 52.5909633,70.217351 C51.7215138,71.2150993 52.2796789,72.6580795 53.1276606,73.7523841 C53.7364733,74.520029 54.6647201,74.9651231 55.6447706,74.9593377 L58.4570642,74.9593377 C60.1936896,74.9893929 61.630406,73.6156344 61.6772477,71.8802649 C61.6902535,71.5467695 61.6103595,71.216214 61.4464679,70.9254305 Z" id="Shape" stroke="#109995" stroke-width="0.536423841" stroke-linecap="round" stroke-linejoin="round"></path>
                <path d="M53.9595413,73.1623179 C54.2493578,70.9629801 57.5822477,70.6196689 58.9669266,71.7193377 C59.5519266,72.1806623 60.0725229,73.0121192 59.8149083,73.8113907 C59.681065,74.1746485 59.4063066,74.4686062 59.0527982,74.626755 C58.4100596,74.8568431 57.7267106,74.9518058 57.0455505,74.9056954 C56.5786239,74.9056954 56.1116972,74.9056954 55.6447706,74.8574172 C55.2239788,74.8646692 54.811346,74.7409424 54.4640367,74.5033775 C54.1930357,74.2801036 54.0135067,73.9651336 53.9595413,73.6182781 C53.9371351,73.4671163 53.9371351,73.3134797 53.9595413,73.1623179 Z" id="Shape" fill="#109995" fill-rule="nonzero" opacity="0.7"></path>
                <path d="M110.28367,17.0375795 C104.871591,16.6113764 99.8397266,19.8457522 97.9825688,24.9444669 C93.7127729,24.5513991 89.677945,26.9602218 88,30.9041358 L109.773807,30.9041358" id="Shape" stroke="#D0E4F1" stroke-width="0.536423841" stroke-linecap="round" stroke-linejoin="round"></path>
                <path d="M29,14.5865175 C29.6655046,13.0523454 31.8337615,11.941948 33.3311468,11.3679745 C34.9090367,10.7779083 37.002156,10.5794314 38.0111468,12.188703 C37.8823394,11.9848619 40.0183945,10.3487692 40.2438073,10.187842 C42.3530275,8.65366985 45.0096789,7.67201423 47.6609633,8.1011533 C50.3122477,8.53029237 52.3194954,10.5311533 53.178211,13.0308884 C53.0923394,12.7787692 55.2230275,12.2316169 55.4377064,12.188703 C57.3200869,11.9148405 59.2388138,12.0335583 61.0730275,12.5373785 C62.4804931,12.839608 63.7506777,13.5930427 64.690367,14.6830738 L58.4754128,14.6830738 L45.1706881,14.6508884 L32.7837156,14.6240672 C31.6351835,14.6133387 30.1109633,14.8547295 29,14.5865175 Z" id="Shape" fill="#E7F1F8" fill-rule="nonzero"></path>
                <path d="M65.0445872,14.310676 C64.1671229,12.4616252 62.4827013,11.1226971 60.4826606,10.6844509 C58.4989613,10.2692445 56.4409439,10.3820818 54.5145872,11.0116694 C54.6782323,8.87826822 54.422986,6.73346895 53.763211,4.69796079 C53.1299083,2.75610649 51.9438073,0.771338277 50.0063303,0.175907814 C48.5733486,-0.258595498 47.0115596,0.175907814 45.6483486,0.782066754 C42.1907266,2.40299502 39.5392825,5.35700704 38.3009633,8.96789457 C37.2275688,7.5892853 35.043211,8.04524556 33.5726606,8.96789457 C31.5396517,10.2513613 29.9449554,12.122117 29,14.332133 L65.0445872,14.310676 Z" id="Shape" stroke="#D0E4F1" stroke-width="0.536423841" stroke-linecap="round" stroke-linejoin="round"></path>
                <path d="M1.0733945,27.8935099 C2.94827138,27.0343549 5.04904821,26.7975035 7.06830275,27.2176159 C9.07555046,27.6360265 10.6749083,28.7249669 11.1418349,29.9962914 C14.2224771,30.0928477 17.0938073,31.4339073 18.0598624,33.2148344 L1.0733945,33.2148344" id="Shape" fill="#E7F1F8" fill-rule="nonzero"></path>
                <path d="M1.0733945,24.5033113 C2.74317852,23.1175067 5.01372524,22.6990531 7.06820351,23.3984896 C9.12268177,24.0979261 10.6655783,25.8146467 11.1418349,27.9310596 C14.2972532,28.1428567 17.0206882,30.2187084 18.0598624,33.204106 L1.0733945,33.204106" id="Shape" stroke="#D0E4F1" stroke-width="0.536423841" stroke-linecap="round" stroke-linejoin="round"></path>
                <path d="M36.3558716,33.6976159 L36.3558716,38.5576159" id="Shape" stroke="#A1C2D8" stroke-width="0.536423841" stroke-linecap="round" stroke-linejoin="round"></path>
                <polyline id="Shape" stroke="#A1C2D8" stroke-width="0.536423841" stroke-linecap="round" stroke-linejoin="round" points="63.5181193 74.9486093 63.5181193 73.1354967 76.9409174 73.3983444 76.9409174 74.9486093"></polyline>
                <path d="M76.9409174,74.9486093 L63.5181193,74.9486093" id="Shape" stroke="#A1C2D8" stroke-width="0.536423841" stroke-linecap="round" stroke-linejoin="round"></path>
                <polygon id="Shape" stroke="#A1C2D8" stroke-width="0.536423841" fill="#D0E4F1" fill-rule="nonzero" stroke-linecap="round" stroke-linejoin="round" points="64.7256881 74.9486093 63.5181193 74.9486093 63.5181193 73.1354967 64.7256881 73.1837748"></polygon>
                <path d="M80.8641743,63.286755 C81.6727982,63.3260927 82.479633,63.4011921 83.2846789,63.512053" id="Shape" stroke="#A1C2D8" stroke-width="0.536423841" stroke-linecap="round" stroke-linejoin="round"></path>
                <path d="M82.1951835,61.2268874 L82.1951835,65.9474172" id="Shape" stroke="#A1C2D8" stroke-width="0.536423841" stroke-linecap="round" stroke-linejoin="round"></path>
                <rect id="Rectangle" fill="#E7F1F8" x="29" y="75" width="60" height="10"></rect>
            </g>
        </g>
    </g>
</svg>