<?xml version="1.0" encoding="utf-8"?>
<!-- Generator: Adobe Illustrator 19.0.0, SVG Export Plug-In . SVG Version: 6.00 Build 0)  -->
<svg version="1.1" id="expanded" xmlns="http://www.w3.org/2000/svg" xmlns:xlink="http://www.w3.org/1999/xlink" x="0px" y="0px"
	 width="190.5px" height="126.6px" viewBox="-38.8 339.4 190.5 126.6" style="enable-background:new -38.8 339.4 190.5 126.6;"
	 xml:space="preserve">
<style type="text/css">
	.st0{fill:#D4DBDF;}
	.st1{fill:#FFFFFF;}
	.st2{fill:#399FDF;}
	.st3{fill:#8FABBB;}
	.st4{fill:#00BD9C;}
	.st5{fill:#004066;}
	.st6{fill:#F66F45;}
</style>
<title>Artboard 7 copy 2</title>
<path class="st0" d="M133,465.5c-42.5,0-25.5-120.6-68-120.6H-35.3c42.5,0,25.5,120.6,68,120.6H133z"/>
<path class="st0" d="M133,466H32.8c-21.7,0-28.2-30.9-34.5-60.7c-6.3-29.5-12.7-59.9-33.5-59.9v-1H65c21.7,0,28.2,30.9,34.5,60.7
	c6.2,29.4,12.6,59.9,33.5,59.9V466z M-28.9,345.4c16.7,5.5,22.5,33,28.1,59.7C5.5,434.5,11.9,465,32.8,465h93.8
	c-16.6-5.5-22.5-33-28.1-59.7c-6.2-29.5-12.7-59.9-33.5-59.9H-28.9z"/>
<path class="st0" d="M113.6,446.4c-0.8,0-1.5,0-2.3-0.1c-3.8-0.3-7.4-1.3-10.8-3c-6.9-3.5-11.8-9.9-13.4-17.5
	c-0.8-3.7-0.8-7.5-0.1-11.2c0.7-3.8,2.2-7.5,4.2-10.8c4.4-7.1,11.3-12.3,19.3-14.8c3.7-1.1,7.7-1.6,11.6-1.3c3.8,0.3,7.4,1.3,10.8,3
	c0.7,0.4,1,1.3,0.6,2c-0.4,0.7-1.3,1-2,0.6l0,0c-3-1.5-6.3-2.4-9.7-2.7c-3.5-0.3-7.1,0.1-10.5,1.2c-7.3,2.2-13.5,7-17.6,13.5
	c-1.9,3-3.2,6.3-3.9,9.8c-0.6,3.3-0.6,6.7,0.1,10c1.4,6.7,5.8,12.3,11.8,15.4c3,1.5,6.3,2.4,9.7,2.7c3.5,0.3,7.1-0.1,10.5-1.2
	c7.3-2.2,13.5-7,17.6-13.5c1.9-3,3.2-6.3,3.9-9.8c0.2-0.8,0.9-1.3,1.8-1.2s1.3,0.9,1.2,1.8l0,0c-0.7,3.8-2.2,7.5-4.2,10.8
	c-4.5,7.1-11.3,12.3-19.3,14.8C119.8,445.9,116.7,446.4,113.6,446.4z"/>
<path class="st0" d="M104.9,434.6h-0.2c-0.8-0.1-1.4-0.9-1.3-1.7c0,0,0,0,0,0c1.9-12,5.8-32.5,9.8-34.1c0.7-0.2,1.4-0.2,2,0.1
	c4.3,2.2,10.1,22.1,11.8,28.1c0.2,0.8-0.3,1.6-1.1,1.8c-0.8,0.2-1.6-0.3-1.8-1c-4-14.6-8.2-24.6-10-26.1c-2,2.2-5.6,17.9-7.7,31.6
	C106.2,434.1,105.6,434.6,104.9,434.6z"/>
<path class="st0" d="M107.8,420.7c-0.8,0-1.5-0.7-1.5-1.5c0-0.7,0.4-1.2,1.1-1.4c5.9-1.7,11.8-3.4,17.6-5.2c0.8-0.2,1.6,0.3,1.8,1.1
	c0.2,0.7-0.2,1.5-0.9,1.8c-5.9,1.8-11.8,3.6-17.7,5.2C108.1,420.7,108,420.7,107.8,420.7z"/>
<path class="st0" d="M132.9,408.9c-0.8,0-1.5-0.7-1.5-1.5c0-0.7,0.4-1.2,1.1-1.4c5.7-1.6,11.5-3.3,17.2-5.1c0.8-0.3,1.6,0.1,1.9,0.9
	s-0.1,1.6-0.9,1.9c-0.1,0-0.1,0-0.2,0c-5.7,1.8-11.5,3.5-17.3,5.1C133.2,408.9,133,408.9,132.9,408.9z"/>
<path class="st0" d="M141.5,415.3L141.5,415.3c-0.8,0-1.5-0.7-1.5-1.5c0,0,0,0,0,0c0.1-5.9,0.1-12,0-17.9c0-0.8,0.7-1.5,1.5-1.5
	s1.5,0.7,1.5,1.5c0.1,6,0.1,12,0,18C143,414.7,142.4,415.3,141.5,415.3z"/>
<path class="st1" d="M130,460.5c-42.5,0-25.5-120.6-68-120.6H-38.3c42.5,0,25.5,120.6,68,120.6H130z"/>
<path class="st0" d="M106.9,444h-0.2c-10.1-1.7-18.3-9-21.1-18.8c-2.8-9.7,0.3-20.7,7.9-28.8c0.6-0.6,1.5-0.6,2.1,0
	c0.6,0.6,0.6,1.5,0.1,2.1c-6.9,7.3-9.7,17.3-7.2,25.9c2.5,8.7,9.8,15.1,18.8,16.6c0.8,0.1,1.4,0.8,1.4,1.6S107.7,444.1,106.9,444
	L106.9,444z"/>
<path class="st2" d="M15.2,370.1h-3.6c-2.6-8.5-5.4-15-8.6-19.9c-0.6-0.9-1.8-1.2-2.8-0.6c-0.5,0.3-0.8,0.8-0.9,1.3l-1.6,8
	c-0.2,1.1,0.4,2.1,1.5,2.4c1.1,0.2,2.1-0.4,2.4-1.5c0,0,0-0.1,0-0.1l0.6-2.8c2.1,4.2,3.8,8.6,5.1,13.2H4.7c-1.1,0-2,0.9-2,2
	c0,1.1,0.9,2,2,2h10.4c1.1,0,2-0.9,2-2C17.2,370.9,16.3,370,15.2,370.1L15.2,370.1z"/>
<path class="st2" d="M25.2,371.5c0.4,0.9,0,2-1,2.4c-0.3,0.1-0.5,0.2-0.8,0.1c-1.5-0.1-2.9-1.1-3.3-2.6c-0.4-0.9,0-2,1-2.4
	c0.3-0.1,0.5-0.2,0.8-0.1C23.4,369,24.7,370,25.2,371.5z"/>
<path class="st3" d="M16.2,402c-3.2-0.1-5.9-2.4-6.7-5.5c-0.4-1.4,0-2.9,0.9-4.1c0.9-1.1,2.2-1.7,3.6-1.6c3.2,0.1,5.9,2.4,6.7,5.5
	c0.4,1.4,0,2.9-0.9,4.1C18.9,401.4,17.6,402,16.2,402z M13.9,391.8c-1.1,0-2.2,0.4-2.9,1.3c-0.7,0.9-0.9,2.1-0.6,3.2
	c0.6,2.7,3,4.6,5.7,4.7c1.1,0,2.2-0.4,2.9-1.3c0.7-0.9,0.9-2.1,0.6-3.2C19,393.8,16.7,391.9,13.9,391.8L13.9,391.8z"/>
<path class="st3" d="M20.4,420.5c-3.2-0.2-6-2.4-6.8-5.5c-0.4-1.4-0.1-2.9,0.8-4.1c0.9-1.1,2.2-1.7,3.6-1.6c3.2,0.2,6,2.4,6.8,5.5
	c0.4,1.4,0.1,2.9-0.8,4.1C23.1,419.9,21.8,420.5,20.4,420.5z M18,410.3c-1.1,0-2.1,0.4-2.8,1.3c-0.7,0.9-0.9,2.1-0.6,3.2
	c0.7,2.7,3,4.6,5.8,4.7c1.1,0,2.1-0.4,2.8-1.3c0.7-0.9,0.9-2.1,0.6-3.2C23.1,412.3,20.8,410.4,18,410.3z"/>
<path class="st3" d="M25.8,439c-3.3-0.2-6.1-2.3-7.3-5.4c-0.5-1.4-0.4-2.9,0.4-4.2c0.8-1.1,2.1-1.7,3.4-1.6c3.3,0.2,6.1,2.3,7.3,5.4
	c0.5,1.4,0.4,2.9-0.4,4.2C28.5,438.5,27.2,439.1,25.8,439z M22.4,428.8c-1-0.1-2,0.4-2.6,1.2c-0.6,1-0.7,2.2-0.3,3.2
	c1,2.7,3.5,4.6,6.3,4.8c1,0.1,2-0.4,2.6-1.2c0.6-1,0.7-2.2,0.3-3.2C27.8,430.8,25.3,429,22.4,428.8L22.4,428.8z"/>
<path class="st3" d="M52.2,362.5h-7.3c-0.3,0-0.5-0.2-0.5-0.5s0.2-0.5,0.5-0.5h7.3c0.3,0,0.5,0.2,0.5,0.5S52.5,362.5,52.2,362.5z"/>
<path class="st3" d="M61.3,362.5h-5.1c-0.3,0-0.5-0.2-0.5-0.5s0.2-0.5,0.5-0.5h5.1c0.3,0,0.5,0.2,0.5,0.5S61.6,362.5,61.3,362.5z"/>
<path class="st3" d="M45.2,367.6H29.5c-0.3,0-0.5-0.2-0.5-0.5c0-0.3,0.2-0.5,0.5-0.5h15.7c0.3,0,0.5,0.2,0.5,0.5
	C45.7,367.4,45.5,367.6,45.2,367.6L45.2,367.6z"/>
<path class="st3" d="M40.6,372.6h-9.5c-0.3,0-0.5-0.2-0.5-0.5c0-0.3,0.2-0.5,0.5-0.5h9.5c0.3,0,0.5,0.2,0.5,0.5
	C41.1,372.4,40.9,372.6,40.6,372.6z"/>
<path class="st3" d="M55.2,367.5h-6c-0.3,0-0.5-0.2-0.5-0.5s0.2-0.5,0.5-0.5h6c0.3,0,0.5,0.2,0.5,0.5S55.5,367.5,55.2,367.5z"/>
<path class="st3" d="M40.9,362.5H27.8c-0.3,0-0.5-0.2-0.5-0.5s0.2-0.5,0.5-0.5h13.1c0.3,0,0.5,0.2,0.5,0.5S41.2,362.5,40.9,362.5
	L40.9,362.5z"/>
<path class="st3" d="M53.9,372.6h-9.3c-0.3,0-0.5-0.2-0.5-0.5c0-0.3,0.2-0.5,0.5-0.5h9.3c0.3,0,0.5,0.2,0.5,0.5
	C54.4,372.4,54.2,372.6,53.9,372.6z"/>
<path class="st4" d="M20.3,417.1c-0.1,0-0.2,0-0.3-0.1l-3.5-2.5c-0.2-0.1-0.3-0.5-0.2-0.7c0.1-0.2,0.5-0.3,0.7-0.2c0,0,0,0,0,0
	l3,2.1l4.8-11.2c0.1-0.2,0.4-0.4,0.7-0.2c0.2,0.1,0.3,0.4,0.3,0.6l-5,11.8c-0.1,0.1-0.2,0.2-0.3,0.3L20.3,417.1z"/>
<path class="st3" d="M38.8,394H26.6c-0.3,0-0.5-0.2-0.5-0.5s0.2-0.5,0.5-0.5h12.2c0.3,0,0.5,0.2,0.5,0.5S39.1,394,38.8,394z"/>
<path class="st3" d="M48.4,394h-5.9c-0.3,0-0.5-0.2-0.5-0.5s0.2-0.5,0.5-0.5h5.9c0.3,0,0.5,0.2,0.5,0.5S48.7,394,48.4,394z"/>
<path class="st3" d="M71.6,394H52.2c-0.3,0-0.5-0.2-0.5-0.5s0.2-0.5,0.5-0.5h19.3c0.3,0,0.5,0.2,0.5,0.5S71.8,394,71.6,394L71.6,394
	z"/>
<path class="st3" d="M55.4,397.8H40c-0.3,0-0.5-0.2-0.5-0.5s0.2-0.5,0.5-0.5h15.3c0.3,0,0.5,0.2,0.5,0.5S55.6,397.8,55.4,397.8
	L55.4,397.8z"/>
<path class="st3" d="M35.3,397.8H28c-0.3,0-0.5-0.2-0.5-0.5s0.2-0.5,0.5-0.5h7.4c0.3,0,0.5,0.2,0.5,0.5S35.6,397.8,35.3,397.8
	L35.3,397.8z"/>
<path class="st3" d="M55.6,413.4h-6.1c-0.3,0-0.5-0.2-0.5-0.5c0-0.3,0.2-0.5,0.5-0.5h6.1c0.3,0,0.5,0.2,0.5,0.5
	C56.1,413.2,55.9,413.4,55.6,413.4z"/>
<path class="st3" d="M71.3,431.9H58.1c-0.3,0-0.5-0.2-0.5-0.5c0-0.3,0.2-0.5,0.5-0.5h13.2c0.3,0,0.5,0.2,0.5,0.5
	C71.8,431.7,71.6,431.9,71.3,431.9z"/>
<path class="st3" d="M54.4,431.9h-5.9c-0.3,0-0.5-0.2-0.5-0.5c0-0.3,0.2-0.5,0.5-0.5h5.9c0.3,0,0.5,0.2,0.5,0.5
	C54.9,431.7,54.6,431.9,54.4,431.9z"/>
<path class="st3" d="M44.7,431.9h-9.9c-0.3,0-0.5-0.2-0.5-0.5c0-0.3,0.2-0.5,0.5-0.5h9.9c0.3,0,0.5,0.2,0.5,0.5
	C45.2,431.7,45,431.9,44.7,431.9z"/>
<path class="st3" d="M62.6,435.9H36.8c-0.3,0-0.5-0.2-0.5-0.5c0-0.3,0.2-0.5,0.5-0.5h25.8c0.3,0,0.5,0.2,0.5,0.5
	C63.1,435.7,62.9,435.9,62.6,435.9z"/>
<path class="st3" d="M45.7,413.4H30.1c-0.3,0-0.5-0.2-0.5-0.5c0-0.3,0.2-0.5,0.5-0.5h15.5c0.3,0,0.5,0.2,0.5,0.5
	C46.2,413.2,45.9,413.4,45.7,413.4L45.7,413.4z"/>
<path class="st1" d="M148.9,453.8c-0.6,0-1-0.4-1-1c0-0.1,0-0.2,0.1-0.3c0.4-1,1.2-1.7,2.2-1.9c0.6-0.1,1.1,0.2,1.2,0.8
	c0.1,0.6-0.2,1.1-0.8,1.2c-0.3,0.1-0.6,0.3-0.7,0.6C149.7,453.5,149.4,453.8,148.9,453.8z"/>
<path class="st5" d="M130,461H29.8c-21.7,0-28.2-30.9-34.5-60.7c-6.3-29.5-12.7-59.9-33.5-59.9c-0.3,0-0.5-0.2-0.5-0.5
	s0.2-0.5,0.5-0.5H62c21.7,0,28.2,30.9,34.5,60.7c6.2,29.4,12.6,59.9,33.5,59.9c0.3,0,0.5,0.2,0.5,0.5C130.5,460.8,130.3,461,130,461
	z M-31.9,340.4c16.7,5.5,22.5,33,28.1,59.7C2.5,429.5,8.9,460,29.8,460h93.8c-16.6-5.5-22.5-33-28.1-59.7
	c-6.2-29.5-12.7-59.9-33.5-59.9H-31.9z"/>
<path class="st3" d="M74.4,413.4H59.4c-0.3,0-0.5-0.2-0.5-0.5c0-0.3,0.2-0.5,0.5-0.5h15.1c0.3,0,0.5,0.2,0.5,0.5
	C74.9,413.2,74.7,413.4,74.4,413.4z"/>
<path class="st3" d="M65.2,418.1h-6.1c-0.3,0-0.5-0.2-0.5-0.5s0.2-0.5,0.5-0.5h6.1c0.3,0,0.5,0.2,0.5,0.5S65.5,418.1,65.2,418.1z"/>
<path class="st3" d="M55.3,418.1H31.8c-0.3,0-0.5-0.2-0.5-0.5s0.2-0.5,0.5-0.5h23.5c0.3,0,0.5,0.2,0.5,0.5S55.6,418.1,55.3,418.1
	L55.3,418.1z"/>
<path class="st6" d="M110.6,441.4c-0.8,0-1.5,0-2.3-0.1c-3.8-0.3-7.4-1.3-10.8-3c-6.9-3.5-11.8-9.9-13.4-17.5
	c-0.8-3.7-0.8-7.5-0.1-11.2c0.7-3.8,2.2-7.5,4.2-10.8c4.4-7.1,11.3-12.3,19.3-14.8c3.7-1.1,7.7-1.6,11.6-1.3c3.8,0.3,7.4,1.3,10.8,3
	c0.7,0.4,1,1.3,0.6,2c-0.4,0.7-1.3,1-2,0.6l0,0c-3-1.5-6.3-2.4-9.7-2.7c-3.5-0.3-7.1,0.1-10.5,1.2c-7.3,2.2-13.5,7-17.6,13.5
	c-1.9,3-3.2,6.3-3.9,9.8c-0.6,3.3-0.6,6.7,0.1,10c1.4,6.7,5.8,12.3,11.8,15.4c3,1.5,6.3,2.4,9.7,2.7c3.5,0.3,7.1-0.1,10.5-1.2
	c7.3-2.2,13.5-7,17.6-13.5c1.9-3,3.2-6.3,3.9-9.8c0.2-0.8,0.9-1.3,1.8-1.2s1.3,0.9,1.2,1.8l0,0c-0.7,3.8-2.2,7.5-4.2,10.8
	c-4.5,7.1-11.3,12.3-19.3,14.8C116.8,440.9,113.7,441.4,110.6,441.4z"/>
<path class="st6" d="M101.9,429.6h-0.2c-0.8-0.1-1.4-0.9-1.3-1.7c0,0,0,0,0,0c1.9-12,5.8-32.5,9.8-34.1c0.7-0.2,1.4-0.2,2,0.1
	c4.3,2.2,10.1,22.1,11.8,28.1c0.2,0.8-0.3,1.6-1.1,1.8c-0.8,0.2-1.6-0.3-1.8-1c-4-14.6-8.2-24.6-10-26.1c-2,2.2-5.6,17.9-7.7,31.6
	C103.2,429.1,102.6,429.6,101.9,429.6z"/>
<path class="st6" d="M104.8,415.7c-0.8,0-1.5-0.7-1.5-1.5c0-0.7,0.4-1.2,1.1-1.4c5.9-1.6,11.8-3.4,17.6-5.2c0.8-0.2,1.6,0.3,1.8,1.1
	c0.2,0.7-0.2,1.5-0.9,1.8c-5.9,1.8-11.8,3.6-17.7,5.2C105.1,415.7,105,415.7,104.8,415.7z"/>
<path class="st6" d="M129.9,403.9c-0.8,0-1.5-0.7-1.5-1.5c0-0.7,0.4-1.2,1.1-1.4c5.7-1.6,11.5-3.3,17.2-5.1c0.8-0.3,1.6,0.1,1.9,0.9
	s-0.1,1.6-0.9,1.9c-0.1,0-0.1,0-0.2,0c-5.7,1.8-11.5,3.5-17.3,5.1C130.2,403.9,130,403.9,129.9,403.9z"/>
<path class="st6" d="M138.5,410.3L138.5,410.3c-0.8,0-1.5-0.7-1.5-1.5c0,0,0,0,0,0c0.1-5.9,0.1-12,0-17.9c0-0.8,0.7-1.5,1.5-1.5
	c0,0,0,0,0,0l0,0c0.8,0,1.5,0.7,1.5,1.5c0.1,6,0.1,12,0,18C140,409.7,139.4,410.3,138.5,410.3z"/>
<path class="st1" d="M-16.4,422.8c-0.2,0-0.5-0.1-0.6-0.2c-0.6-0.5-1.3-0.9-2-1.1c-0.5-0.2-0.8-0.8-0.5-1.3c0.2-0.5,0.7-0.7,1.2-0.6
	c1,0.3,1.9,0.8,2.7,1.5c0.4,0.4,0.5,1,0.1,1.4C-15.8,422.7-16.1,422.8-16.4,422.8L-16.4,422.8z"/>
</svg>
