<?xml version="1.0" encoding="iso-8859-1"?>
<!-- Generator: Adobe Illustrator 23.0.0, SVG Export Plug-In . SVG Version: 6.00 Build 0)  -->
<svg version="1.1" id="Layer_1" xmlns="http://www.w3.org/2000/svg" xmlns:xlink="http://www.w3.org/1999/xlink" x="0px" y="0px"
	 viewBox="0 0 244.23 182.86" style="enable-background:new 0 0 244.23 182.86;" xml:space="preserve">
<title>home-illustration-benefits-let us worry</title>
<path style="fill:#D0E4F1;" d="M172.11,115.35c-1.48-4.6-9-6.63-17.1-4.53c-1.186,0.308-2.349,0.698-3.48,1.17
	c-3.512-3.518-9.21-3.523-12.728-0.012c-2.634,2.629-3.378,6.608-1.872,10.012c-3.972,3.838-4.081,10.168-0.243,14.14
	c3.561,3.685,9.331,4.082,13.363,0.92c4.08,3.53,12.32,4.64,21,2.37c11.32-2.95,19.16-10.48,17.51-16.82
	C187.28,117.62,180.46,114.85,172.11,115.35z"/>
<path style="fill:#D0E4F1;" d="M162.11,141.03c-5,0-9.3-1.19-12.1-3.45c-4.631,3.407-11.147,2.415-14.554-2.216
	c-0.78-1.061-1.352-2.26-1.686-3.534c-0.914-3.539,0.091-7.299,2.65-9.91c-2.026-4.774,0.202-10.286,4.975-12.312
	c3.475-1.475,7.494-0.725,10.205,1.902c1.069-0.431,2.164-0.792,3.28-1.08c8.13-2.12,15.71-0.14,17.48,4.5
	c8.65-0.44,15.3,2.6,16.6,7.59c1.7,6.55-6.28,14.31-17.8,17.31C168.206,140.61,165.165,141.014,162.11,141.03z M150.02,136.65
	c0.099,0,0.195,0.035,0.27,0.1c4.08,3.53,12.38,4.44,20.67,2.29c11.08-2.89,18.81-10.21,17.21-16.32c-1.21-4.67-7.67-7.46-16.07-7
	c-0.186,0.017-0.358-0.1-0.41-0.28c-1.4-4.37-8.85-6.28-16.61-4.26c-1.165,0.303-2.308,0.687-3.42,1.15
	c-0.154,0.068-0.334,0.032-0.45-0.09c-3.306-3.395-8.738-3.466-12.133-0.16c-0.551,0.537-1.028,1.146-1.417,1.81
	c-1.159,1.962-1.483,4.307-0.9,6.51c0.128,0.487,0.299,0.962,0.51,1.42c0.072,0.157,0.036,0.342-0.09,0.46
	c-3.817,3.672-3.934,9.743-0.261,13.56c2.406,2.5,5.974,3.506,9.331,2.63c1.282-0.332,2.481-0.928,3.52-1.75
	c0.079-0.055,0.175-0.08,0.27-0.07H150.02z"/>
<path style="fill:#FFFFFF;" d="M172.11,113.15c-1.48-4.6-9-6.63-17.1-4.53c-1.186,0.308-2.349,0.698-3.48,1.17
	c-3.512-3.518-9.21-3.523-12.728-0.012c-2.634,2.629-3.378,6.608-1.872,10.012c-3.972,3.838-4.081,10.168-0.243,14.14
	c3.561,3.685,9.331,4.082,13.363,0.92c4.08,3.53,12.32,4.64,21,2.37c11.32-2.95,19.16-10.48,17.51-16.82
	C187.28,115.43,180.47,112.65,172.11,113.15z"/>
<path style="fill:#D0E4F1;" d="M242.99,39.05c-3.519-13.5-17.315-21.591-30.814-18.072c-2.509,0.654-4.902,1.69-7.096,3.072
	c-8.016-18.02-29.122-26.129-47.141-18.114c-10.468,4.657-18.066,14.053-20.429,25.264c-2.989,0.831-5.856,2.048-8.53,3.62
	c-9.295-7.97-23.291-6.896-31.261,2.4s-6.896,23.291,2.4,31.261c3.443,2.952,7.709,4.777,12.222,5.229c0.07,0.29,0.13,0.59,0.2,0.88
	c4.971,19.091,24.478,30.537,43.569,25.566c4.204-1.095,8.172-2.947,11.711-5.466c17.9,8.292,39.133,0.503,47.426-17.397
	c0.982-2.12,1.754-4.332,2.304-6.603c13.94,0.549,25.685-10.307,26.234-24.247c0.098-2.477-0.17-4.954-0.794-7.353L242.99,39.05z"/>
<path style="fill:#D0E4F1;" d="M147.04,101.74c-16.412-0.04-30.739-11.125-34.9-27c-0.05-0.2-0.1-0.39-0.14-0.59l0,0
	c-9.28-1.092-16.939-7.767-19.29-16.81c-3.134-12.065,4.106-24.386,16.17-27.52c7.049-1.831,14.549-0.148,20.14,4.52
	c2.562-1.479,5.296-2.637,8.14-3.45c4.232-19.495,23.466-31.867,42.96-27.636c11.083,2.406,20.392,9.877,25.14,20.176
	c12.132-7.335,27.913-3.446,35.248,8.687c1.28,2.117,2.247,4.409,2.872,6.803l0,0c3.567,13.721-4.664,27.736-18.385,31.303
	c-2.328,0.605-4.73,0.88-7.135,0.817c-4.859,19.353-24.487,31.103-43.841,26.244c-2.114-0.531-4.175-1.252-6.159-2.154
	c-3.531,2.485-7.481,4.314-11.66,5.4C153.211,101.322,150.132,101.728,147.04,101.74z M114.54,29.9
	c-12.018-0.049-21.799,9.654-21.848,21.672c-0.046,11.245,8.484,20.672,19.678,21.748c0.17,0.02,0.309,0.144,0.35,0.31l0.07,0.31
	c0,0.19,0.08,0.38,0.13,0.56c4.909,18.873,24.189,30.193,43.062,25.284c4.164-1.083,8.094-2.918,11.598-5.414
	c0.126-0.075,0.284-0.075,0.41,0c17.708,8.167,38.685,0.433,46.852-17.276c0.968-2.099,1.727-4.287,2.268-6.534
	c0.05-0.185,0.219-0.312,0.41-0.31c13.711,0.595,25.309-10.039,25.903-23.75s-10.039-25.309-23.75-25.903
	c-5.07-0.22-10.086,1.118-14.373,3.833c-0.192,0.119-0.445,0.06-0.565-0.132c-0.01-0.015-0.018-0.031-0.025-0.048
	c-7.929-17.817-28.799-25.832-46.616-17.904c-10.347,4.604-17.857,13.892-20.194,24.974c-0.029,0.15-0.142,0.271-0.29,0.31
	c-2.957,0.822-5.794,2.026-8.44,3.58c-0.141,0.099-0.329,0.099-0.47,0C124.764,31.809,119.742,29.925,114.54,29.9z"/>
<path style="fill:#FFFFFF;" d="M242.99,36.62c-3.519-13.5-17.315-21.591-30.814-18.072c-2.509,0.654-4.902,1.69-7.096,3.072
	C197.064,3.6,175.958-4.509,157.939,3.506c-10.468,4.657-18.066,14.053-20.429,25.264c-2.99,0.844-5.858,2.074-8.53,3.66
	c-9.295-7.97-23.291-6.896-31.261,2.4s-6.896,23.291,2.4,31.261c3.443,2.952,7.709,4.777,12.222,5.229c0.07,0.29,0.13,0.59,0.2,0.88
	c4.971,19.091,24.478,30.537,43.569,25.566c4.204-1.095,8.172-2.947,11.711-5.466c17.9,8.292,39.133,0.503,47.426-17.397
	c0.982-2.12,1.754-4.332,2.304-6.603c13.94,0.549,25.685-10.307,26.234-24.247c0.098-2.477-0.17-4.954-0.794-7.353L242.99,36.62z"/>
<path style="fill:#E7F1F8;" d="M227.57,97.74c-0.001-0.433-0.044-0.865-0.13-1.29l2.52-1.07l-1-2.4l-2.52,1.07
	c-0.451-0.653-1.017-1.219-1.67-1.67l1.07-2.52l-2.4-1l-1.07,2.52c-0.855-0.172-1.735-0.172-2.59,0l-1.07-2.52l-2.4,1l1.07,2.52
	c-0.653,0.451-1.219,1.017-1.67,1.67l-2.52-1.07l-1,2.4l2.52,1.07c-0.172,0.855-0.172,1.735,0,2.59l-2.52,1.07l1,2.4l2.52-1.07
	c0.451,0.653,1.017,1.219,1.67,1.67l-1.07,2.52l2.4,1l1.07-2.52c0.855,0.172,1.735,0.172,2.59,0l1.07,2.52l2.4-1l-1.07-2.52
	c0.653-0.451,1.219-1.017,1.67-1.67l2.52,1.07l1-2.4l-2.52-1.07C227.527,98.612,227.57,98.177,227.57,97.74z M221.06,100.32
	c-1.425,0-2.58-1.155-2.58-2.58s1.155-2.58,2.58-2.58c1.425,0,2.58,1.155,2.58,2.58S222.485,100.32,221.06,100.32L221.06,100.32
	L221.06,100.32z"/>
<path style="fill:#E7F1F8;" d="M210.89,110.1c0.002-0.319-0.028-0.637-0.09-0.95l1.84-0.78l-0.74-1.75l-1.84,0.78
	c-0.329-0.477-0.743-0.891-1.22-1.22l0.78-1.84l-1.75-0.74l-0.76,1.83c-0.624-0.125-1.266-0.125-1.89,0l-0.78-1.84l-1.75,0.74
	l0.78,1.84c-0.495,0.337-0.923,0.765-1.26,1.26l-1.84-0.78l-0.74,1.75l1.84,0.78c-0.125,0.624-0.125,1.266,0,1.89l-1.84,0.78
	l0.74,1.75l1.84-0.78c0.329,0.477,0.743,0.891,1.22,1.22l-0.78,1.84l1.75,0.74l0.78-1.84c0.624,0.125,1.266,0.125,1.89,0l0.78,1.84
	l1.75-0.74l-0.78-1.84c0.477-0.329,0.891-0.743,1.22-1.22l1.84,0.78l0.74-1.75l-1.84-0.78
	C210.85,110.751,210.887,110.426,210.89,110.1z M206.11,111.98c-1.044,0-1.89-0.846-1.89-1.89s0.846-1.89,1.89-1.89
	s1.89,0.846,1.89,1.89l0,0C208,111.134,207.154,111.98,206.11,111.98z"/>
<path style="fill:#A1C2D8;" d="M147.04,99.3c-16.412-0.04-30.739-11.125-34.9-27c-0.05-0.2-0.1-0.39-0.14-0.59l0,0
	c-9.277-1.091-16.935-7.761-19.29-16.8c-3.134-12.065,4.106-24.386,16.17-27.52c7.049-1.831,14.549-0.148,20.14,4.52
	c2.561-1.489,5.294-2.658,8.14-3.48c4.247-19.491,23.49-31.849,42.981-27.603c11.076,2.413,20.377,9.886,25.119,20.183
	c12.132-7.335,27.913-3.446,35.248,8.687c1.28,2.117,2.247,4.409,2.872,6.803l0,0c3.567,13.721-4.664,27.736-18.385,31.303
	c-2.328,0.605-4.73,0.88-7.135,0.817c-4.859,19.353-24.487,31.103-43.841,26.244c-2.114-0.531-4.175-1.252-6.159-2.154
	c-3.531,2.485-7.481,4.314-11.66,5.4C153.21,98.895,150.132,99.295,147.04,99.3z M114.54,27.43
	c-12.018-0.049-21.799,9.654-21.848,21.672c-0.046,11.245,8.484,20.672,19.678,21.748c0.17,0.02,0.309,0.144,0.35,0.31l0.07,0.31
	c0,0.19,0.08,0.38,0.13,0.56c4.892,18.878,24.161,30.215,43.039,25.323c4.176-1.082,8.118-2.92,11.631-5.423
	c0.126-0.075,0.284-0.075,0.41,0c17.711,8.162,38.685,0.422,46.847-17.289c0.965-2.095,1.723-4.279,2.263-6.521
	c0.053-0.183,0.22-0.309,0.41-0.31c13.714,0.525,25.258-10.167,25.783-23.881c0.093-2.428-0.171-4.857-0.783-7.209
	c-3.467-13.285-17.047-21.244-30.332-17.777c-2.464,0.643-4.814,1.66-6.968,3.017c-0.192,0.119-0.445,0.06-0.565-0.132
	c-0.01-0.015-0.018-0.031-0.025-0.048c-7.929-17.817-28.799-25.832-46.616-17.904c-10.347,4.604-17.857,13.892-20.194,24.974
	c-0.029,0.15-0.142,0.271-0.29,0.31c-2.957,0.822-5.794,2.026-8.44,3.58c-0.14,0.102-0.33,0.102-0.47,0
	C124.705,29.356,119.715,27.474,114.54,27.43z"/>
<path style="fill:#A1C2D8;" d="M203.26,40.53h-53c-0.224-0.035-0.376-0.245-0.341-0.469c0.028-0.176,0.165-0.313,0.341-0.341h53
	c0.224-0.035,0.434,0.117,0.469,0.341c0.035,0.224-0.117,0.434-0.341,0.469C203.345,40.537,203.302,40.537,203.26,40.53z"/>
<path style="fill:#A1C2D8;" d="M182.4,51.96h-9.22c-0.224-0.035-0.376-0.245-0.341-0.469c0.028-0.176,0.165-0.313,0.341-0.341h9.22
	c0.224,0.035,0.376,0.245,0.341,0.469C182.713,51.795,182.576,51.932,182.4,51.96z"/>
<path style="fill:#A1C2D8;" d="M168.96,51.96h-11.8c-0.224-0.035-0.376-0.245-0.341-0.469c0.028-0.176,0.165-0.313,0.341-0.341h11.8
	c0.224,0.035,0.376,0.245,0.341,0.469C169.273,51.795,169.136,51.932,168.96,51.96z"/>
<path style="fill:#A1C2D8;" d="M152.11,51.96h-9.09c-0.224-0.035-0.376-0.245-0.341-0.469c0.028-0.176,0.165-0.313,0.341-0.341h9.09
	c0.224,0.035,0.376,0.245,0.341,0.469C152.423,51.795,152.286,51.932,152.11,51.96z"/>
<path style="fill:#A1C2D8;" d="M140.27,51.96h-10.9c-0.224-0.035-0.376-0.245-0.341-0.469c0.028-0.176,0.165-0.313,0.341-0.341
	h10.91c0.224,0.035,0.376,0.245,0.341,0.469c-0.028,0.176-0.165,0.313-0.341,0.341H140.27z"/>
<path style="fill:#A1C2D8;" d="M169.57,63.43h-15.46c-0.224,0.035-0.434-0.117-0.469-0.341c-0.035-0.224,0.117-0.434,0.341-0.469
	c0.042-0.007,0.085-0.007,0.128,0h15.48c0.224,0.035,0.376,0.245,0.341,0.469c-0.028,0.176-0.165,0.313-0.341,0.341H169.57z"/>
<path style="fill:#A1C2D8;" d="M149.35,63.43h-32.82c-0.224,0.035-0.434-0.117-0.469-0.341c-0.035-0.224,0.117-0.434,0.341-0.469
	c0.042-0.007,0.085-0.007,0.128,0h32.81c0.224-0.035,0.434,0.117,0.469,0.341c0.035,0.224-0.117,0.434-0.341,0.469
	c-0.042,0.007-0.085,0.007-0.128,0H149.35z"/>
<path style="fill:#A1C2D8;" d="M187.84,74.81h-13.92c-0.224-0.035-0.376-0.245-0.341-0.469c0.028-0.176,0.165-0.313,0.341-0.341
	h13.93c0.224,0.035,0.376,0.245,0.341,0.469c-0.028,0.176-0.165,0.313-0.341,0.341H187.84z"/>
<path style="fill:#A1C2D8;" d="M171.4,74.81h-15.77c-0.224-0.035-0.376-0.245-0.341-0.469c0.028-0.176,0.165-0.313,0.341-0.341
	h15.77c0.224,0.035,0.376,0.245,0.341,0.469C171.713,74.645,171.576,74.782,171.4,74.81L171.4,74.81z"/>
<path style="fill:#A1C2D8;" d="M152.11,74.81h-24.82c-0.224-0.035-0.376-0.245-0.341-0.469c0.028-0.176,0.165-0.313,0.341-0.341
	h24.82c0.224,0.035,0.376,0.245,0.341,0.469C152.423,74.645,152.286,74.782,152.11,74.81z"/>
<path style="fill:#19BC9C;" d="M161.73,28.43c-1.519,0.003-2.753-1.225-2.756-2.744c-0.001-0.351,0.066-0.7,0.196-1.026
	c0.047-0.222,0.264-0.363,0.486-0.317c0.222,0.047,0.363,0.264,0.317,0.486c-0.01,0.046-0.027,0.091-0.052,0.131
	c-0.439,0.978-0.003,2.126,0.975,2.565c0.978,0.439,2.126,0.003,2.565-0.975c0.134-0.182,0.391-0.221,0.573-0.087
	c0.142,0.105,0.201,0.289,0.147,0.457C163.711,27.843,162.765,28.426,161.73,28.43z"/>
<path style="fill:#19BC9C;" d="M172.37,28.58c-0.226,0-0.41-0.184-0.41-0.41v0V11.78c0.007-0.248-0.188-0.456-0.436-0.463
	c-0.063-0.002-0.125,0.009-0.184,0.033c-0.112,0.043-0.202,0.13-0.25,0.24l-6.9,15.36c-0.123,0.19-0.377,0.245-0.567,0.122
	c-0.15-0.097-0.22-0.28-0.173-0.452l6.89-15.35c0.271-0.641,1.011-0.94,1.651-0.669c0.476,0.201,0.78,0.673,0.769,1.189v16.38
	C172.76,28.389,172.589,28.569,172.37,28.58z"/>
<path style="fill:#19BC9C;" d="M175.69,28.58h-6c-0.224,0.035-0.434-0.117-0.469-0.341c-0.035-0.224,0.117-0.434,0.341-0.469
	c0.042-0.007,0.085-0.007,0.128,0h6c0.224-0.035,0.434,0.117,0.469,0.341c0.035,0.224-0.117,0.434-0.341,0.469
	C175.775,28.587,175.732,28.587,175.69,28.58z"/>
<path style="fill:#19BC9C;" d="M172.34,21.63h-6c-0.224-0.035-0.376-0.245-0.341-0.469c0.028-0.176,0.165-0.313,0.341-0.341h6
	c0.224-0.035,0.434,0.117,0.469,0.341c0.035,0.224-0.117,0.434-0.341,0.469C172.425,21.637,172.382,21.637,172.34,21.63z"/>
<path style="fill:#19BC9C;" d="M182.4,28.58c-1.27,0-2.3-1.03-2.3-2.3c0-1.27,1.03-2.3,2.3-2.3c1.27,0,2.3,1.03,2.3,2.3
	C184.695,27.548,183.668,28.575,182.4,28.58z M182.4,24.79c-0.823,0-1.49,0.667-1.49,1.49s0.667,1.49,1.49,1.49
	c0.823,0,1.49-0.667,1.49-1.49c0.006-0.823-0.657-1.494-1.48-1.5c-0.003,0-0.007,0-0.01,0V24.79z"/>
<rect x="78.8" y="87.33" style="fill:#FFFFFF;" width="13.59" height="10.82"/>
<path style="fill:#985BCD;" d="M107.58,155.13c-0.2,3.2-0.17,5.7,0.24,6.89c0.51,1.5,2.56,9.15,3.18,11.26
	c0.1,1.21-19.29,4.21-60.06,9.17c1.63-4.76,6.91-19.91,8.11-23.72c0.588-1.912,1.022-3.869,1.3-5.85"/>
<path style="fill:#8552BA;" d="M99.72,170.73c-7.54-5.35-23.68-10.3-23.68-10.3l-16-1.65l47.78,3.28l3.29,11.31
	C111.11,173.37,107.25,176.08,99.72,170.73z"/>
<polygon style="fill:#8552BA;" points="60.6,152.89 107.58,155.13 107.52,162.02 59.06,158.74 "/>
<path style="fill:#D0E4F0;" d="M78.39,87.94c0,1.57,1.78,5.49,7.31,6.65c3.62,0.76,6.69-1.28,6.69-2.85v-7.71H78.8L78.39,87.94z"/>
<path style="fill:#FFFFFF;" d="M56.19,165.93c-3.63-2.39-4.4-12.33-3.38-17.41l6.24-25.57l-2.28-10.42l-6.66-6.81
	c0,0-10.89,43-11.29,48.29c-0.975,10.169,4.427,19.884,13.58,24.42"/>
<path style="fill:#E7F1F8;" d="M40.11,150.98c0.33-4.39,7.85-34.61,10.43-44.88l-0.37-0.37c0,0-10.89,43-11.29,48.29
	c-1.33,17.92,12.58,22,12.58,22l1.93-0.72C44.384,170.694,39.116,161.046,40.11,150.98z"/>
<path style="fill:#E7F1F8;" d="M52.81,148.53l6.24-25.57l-2.28-10.43l-6.66-6.81l-0.81,3.21l6.41,14l-6.22,25.6
	c-1,5.08-0.91,18.75,6.24,20.33l0.47-2.92C52.56,163.54,51.79,153.6,52.81,148.53z"/>
<path style="fill:#C3D4E0;" d="M54.89,127.54c-1.52,0.054-3.003-0.472-4.15-1.47c-0.184-0.132-0.227-0.388-0.095-0.572
	c0.132-0.184,0.388-0.227,0.572-0.095c0.027,0.019,0.052,0.042,0.073,0.067c2.56,2.33,6.7,0.69,6.74,0.68
	c0.219-0.056,0.443,0.077,0.498,0.297c0.045,0.176-0.032,0.361-0.188,0.453C57.237,127.315,56.069,127.532,54.89,127.54z"/>
<path style="fill:#C3D4E0;" d="M51.38,140.77c-1.667,0.003-3.299-0.476-4.7-1.38c-0.198-0.109-0.27-0.359-0.161-0.557
	c0.109-0.198,0.359-0.27,0.557-0.161c0.015,0.008,0.03,0.018,0.044,0.028c2.325,1.418,5.196,1.613,7.69,0.52
	c0.214-0.075,0.448,0.038,0.522,0.252c0.062,0.178-0.005,0.375-0.162,0.478C53.98,140.492,52.687,140.771,51.38,140.77z"/>
<path style="fill:#C3D4E0;" d="M46.24,154.43c-0.512-0.002-1.023-0.036-1.53-0.1c-0.219-0.031-0.374-0.23-0.35-0.45
	c0.026-0.219,0.224-0.376,0.444-0.351c0.002,0,0.004,0.001,0.006,0.001c5.07,0.62,7.24-2.23,7.26-2.26
	c0.102-0.202,0.348-0.284,0.55-0.183c0.202,0.102,0.284,0.348,0.183,0.55c-0.021,0.042-0.049,0.08-0.083,0.112
	C52.64,151.83,50.69,154.43,46.24,154.43z"/>
<path style="fill:#C3D4E0;" d="M50.11,166.24c-0.226-0.007-0.404-0.197-0.397-0.423c0.004-0.138,0.078-0.265,0.197-0.337
	c1.497-0.91,2.756-2.165,3.67-3.66c0.132-0.184,0.389-0.225,0.572-0.093c0.155,0.112,0.213,0.317,0.138,0.493
	c-0.985,1.641-2.359,3.015-4,4C50.232,166.24,50.171,166.247,50.11,166.24z"/>
<path style="fill:#40565B;" d="M38.84,154.43L38.84,154.43c-0.223-0.021-0.387-0.217-0.37-0.44c0.311-2.324,0.742-4.63,1.29-6.91
	c2.93-13.5,9.94-41.17,10-41.44c0.08-0.212,0.316-0.319,0.528-0.24c0.179,0.067,0.288,0.25,0.262,0.44
	c-0.07,0.28-7.07,27.93-10,41.42c-0.77,3.56-1.2,5.85-1.27,6.8C39.259,154.283,39.063,154.447,38.84,154.43z"/>
<path style="fill:#40565B;" d="M56.19,166.34c-0.079-0.001-0.155-0.026-0.22-0.07c-3.79-2.49-4.65-12.38-3.56-17.83l6.24-25.58
	c0.082-0.211,0.32-0.316,0.531-0.233c0.172,0.067,0.278,0.24,0.259,0.423l-6.23,25.57c-1,5.15-0.12,14.78,3.21,17
	c0.188,0.126,0.238,0.381,0.111,0.569c-0.074,0.111-0.198,0.178-0.331,0.181L56.19,166.34z"/>
<path style="fill:#FFFFFF;" d="M108.05,160.54c3.79-2.15,5.21-12,4.53-17.14l-4.53-25.97l3-10.25l7.08-6.36
	c0,0,7.98,43.61,7.98,48.98c0.312,10.215-5.716,19.561-15.15,23.49"/>
<path style="fill:#E7F1F8;" d="M125.11,146.69c0-4.4-5.53-35.06-7.42-45.47l0.39-0.35c0,0,8.03,43.56,8.03,48.93
	c0.312,10.215-5.716,19.561-15.15,23.49l-0.75-3.22C119.513,166.084,125.426,156.806,125.11,146.69z"/>
<path style="fill:#E7F1F8;" d="M112.58,143.43l-4.53-26l3-10.25l7.08-6.36l0.59,3.25l-7.32,13.57l4.53,25.93
	c0.68,5.13-0.34,18.77-7.58,19.87l-0.27-2.95C111.83,158.43,113.26,148.53,112.58,143.43z"/>
<path style="fill:#C3D4E0;" d="M112.43,122.34c-1.357-0.024-2.695-0.327-3.93-0.89c-0.186-0.129-0.232-0.385-0.103-0.571
	c0.101-0.145,0.283-0.21,0.453-0.159c0,0,4.06,1.92,6.77-0.23c0.196-0.113,0.447-0.047,0.56,0.149
	c0.092,0.159,0.067,0.359-0.06,0.491C115.064,121.942,113.762,122.369,112.43,122.34z"/>
<path style="fill:#C3D4E0;" d="M115.11,135.78c-1.51,0.001-2.997-0.37-4.33-1.08c-0.177-0.142-0.205-0.4-0.063-0.576
	c0.113-0.141,0.305-0.191,0.473-0.124c2.417,1.256,5.293,1.256,7.71,0c0.179-0.138,0.437-0.106,0.575,0.074
	c0.138,0.179,0.106,0.437-0.074,0.575c-0.034,0.026-0.071,0.047-0.112,0.061C118.01,135.414,116.571,135.783,115.11,135.78z"/>
<path style="fill:#C3D4E0;" d="M119.55,149.71c-5,0-7-3-7.1-3.13c-0.092-0.207,0.002-0.449,0.209-0.541
	c0.162-0.072,0.353-0.031,0.471,0.101c0.08,0.12,2,3,7.09,2.74c0.22-0.017,0.412,0.148,0.429,0.368c0,0.004,0.001,0.008,0.001,0.012
	c0.011,0.223-0.157,0.414-0.38,0.43L119.55,149.71z"/>
<path style="fill:#C3D4E0;" d="M114.11,161.26c-0.082,0-0.162-0.024-0.23-0.07c-1.559-1.088-2.83-2.54-3.7-4.23
	c-0.064-0.217,0.06-0.445,0.277-0.509c0.17-0.05,0.352,0.014,0.453,0.159c0.81,1.553,1.979,2.89,3.41,3.9
	c0.182,0.134,0.221,0.391,0.087,0.573c-0.075,0.101-0.191,0.163-0.317,0.167L114.11,161.26z"/>
<path style="fill:#40565B;" d="M111,173.69c-0.226-0.007-0.404-0.197-0.396-0.423c0.005-0.162,0.106-0.306,0.256-0.367
	c9.236-3.91,15.139-13.074,14.88-23.1c0-5.22-8-48.42-8-48.86c-0.036-0.22,0.11-0.429,0.33-0.47c0.22-0.036,0.429,0.11,0.47,0.33
	c0.33,1.78,8,43.71,8.06,49c0.247,10.388-5.902,19.864-15.49,23.87L111,173.69z"/>
<path style="fill:#40565B;" d="M108.05,160.95c-0.226-0.007-0.404-0.197-0.397-0.423c0.004-0.138,0.078-0.265,0.197-0.337
	c3.47-2,5-11.51,4.33-16.74l-4.52-25.91c-0.008-0.226,0.169-0.416,0.395-0.424c0.183-0.006,0.348,0.11,0.405,0.284l4.53,25.93
	c0.73,5.52-0.79,15.33-4.73,17.57C108.196,160.936,108.123,160.953,108.05,160.95z"/>
<path style="fill:#40565B;" d="M92.39,96.07c-0.226,0-0.41-0.184-0.41-0.41v0v-8.33c0.035-0.224,0.245-0.376,0.469-0.341
	c0.176,0.028,0.313,0.165,0.341,0.341v8.33C92.79,95.883,92.613,96.065,92.39,96.07z"/>
<path style="fill:#40565B;" d="M78.8,96.07c-0.226,0-0.41-0.184-0.41-0.41v0v-8.33c0.035-0.224,0.245-0.376,0.469-0.341
	c0.176,0.028,0.313,0.165,0.341,0.341v8.33C79.2,95.883,79.023,96.065,78.8,96.07z"/>
<polyline style="fill:#D0E4F0;" points="65.79,56.84 53.8,57.58 53.8,56.37 65.79,55.64 "/>
<path style="fill:#40565B;" d="M53.01,58.03c-0.195-0.001-0.362-0.139-0.4-0.33l-0.24-1.19c-0.045-0.222,0.099-0.438,0.321-0.483
	c0.016-0.003,0.033-0.006,0.049-0.007l13-0.8c0.22-0.017,0.412,0.148,0.429,0.368c0,0.004,0.001,0.008,0.001,0.012
	c0.011,0.223-0.157,0.414-0.38,0.43L53.24,56.8l0.08,0.39l12.44-0.76c0.224,0.035,0.376,0.245,0.341,0.469
	c-0.028,0.176-0.165,0.313-0.341,0.341l-12.78,0.78L53.01,58.03z"/>
<polyline style="fill:#D0E4F0;" points="105.5,56.86 117.5,57.6 117.5,56.39 105.5,55.65 "/>
<path style="fill:#40565B;" d="M118.28,58.05L118.28,58.05l-12.78-0.78c-0.224-0.035-0.376-0.245-0.341-0.469
	c0.028-0.176,0.165-0.313,0.341-0.341l12.42,0.76l0.08-0.39l-12.55-0.77c-0.223-0.016-0.391-0.207-0.38-0.43
	c0.01-0.221,0.198-0.391,0.418-0.381c0.004,0,0.008,0,0.012,0.001l13,0.8c0.226,0.018,0.394,0.215,0.377,0.441
	c-0.001,0.017-0.004,0.033-0.007,0.049l-0.24,1.19C118.593,57.9,118.453,58.028,118.28,58.05z"/>
<circle style="fill:#F36F42;" cx="50.52" cy="57.53" r="3.22"/>
<circle style="fill:#F36F42;" cx="120.78" cy="57.53" r="3.22"/>
<path style="fill:#E7F1F8;" d="M63.42,29.74l4.74,53c0.233,2.654,2.456,4.69,5.12,4.69h24.9c2.664,0,4.887-2.036,5.12-4.69l4.74-53
	c0.254-2.827-1.832-5.325-4.659-5.579c-0.153-0.014-0.307-0.021-0.461-0.021H68.54c-2.839,0-5.14,2.301-5.141,5.139
	C63.399,29.433,63.406,29.587,63.42,29.74z"/>
<path style="fill:#FFFFFF;" d="M77.49,36.65c-4.033-2.02-8.691-2.403-13-1.07c0.32,6.61,0.95,15.18,2.12,24
	c1.097,0.146,2.164,0.467,3.16,0.95c10.14,5.9,22.43,12.53,33.81,14.52c0.79-8.89,1.64-17.68,2.38-26.58
	C96.01,47.01,86.83,41.33,77.49,36.65z"/>
<path style="fill:#40565B;" d="M93.87,73.92c0-0.226-0.184-0.41-0.41-0.41h0H78.8c-0.226,0-0.41,0.184-0.41,0.41v0
	c0.001,0.174,0.114,0.328,0.28,0.38c0.88,1.19,2.77,3.29,8,3.28c2.644-0.09,5.133-1.274,6.87-3.27
	C93.73,74.276,93.868,74.112,93.87,73.92z M79.61,74.33h12.57c-1.512,1.391-3.476,2.187-5.53,2.24c-3.87,0-5.88-1.14-7.04-2.25
	V74.33z"/>
<path style="fill:#A1C2D8;" d="M79.61,74.32h12.57c-1.512,1.391-3.476,2.187-5.53,2.24C82.78,76.57,80.77,75.43,79.61,74.32z"/>
<polygon style="fill:#F36F42;" points="86.46,61.59 88.3,63.61 90.13,65.64 86.46,65.64 82.8,65.64 84.63,63.61 "/>
<path style="fill:#C84A27;" d="M90.11,66.04h-7.32c-0.226-0.005-0.406-0.192-0.401-0.418c0.002-0.096,0.038-0.189,0.101-0.262
	l3.67-4c0.162-0.166,0.428-0.168,0.594-0.006c0.002,0.002,0.004,0.004,0.006,0.006l3.67,4c0.149,0.17,0.132,0.429-0.038,0.579
	c-0.073,0.064-0.165,0.099-0.262,0.101H90.11z M83.71,65.23h5.5l-2.75-3L83.71,65.23z"/>
<path style="fill:#40565B;" d="M75.53,61.78c-0.263,0-0.522-0.069-0.75-0.2c-0.813-0.596-1.25-1.577-1.15-2.58v-8.78
	c-1,0.11-3.27,0.19-4.62-1.47c-0.114-0.196-0.048-0.447,0.147-0.561c0.155-0.09,0.35-0.07,0.483,0.051c1.39,1.7,4.23,1.13,4.26,1.12
	h1.67c1.012,0.006,1.83,0.828,1.83,1.84v7.81c0.109,0.995-0.317,1.973-1.12,2.57C76.052,61.712,75.793,61.781,75.53,61.78z
	 M74.45,50.16V59c-0.085,0.711,0.193,1.418,0.74,1.88c0.212,0.128,0.478,0.128,0.69,0c0.533-0.462,0.799-1.16,0.71-1.86V51.2
	c0-0.552-0.448-1-1-1L74.45,50.16z"/>
<path style="fill:#40565B;" d="M98.25,61.78c-0.263,0-0.522-0.069-0.75-0.2c-0.813-0.596-1.25-1.577-1.15-2.58v-8.78
	c-1,0.11-3.27,0.19-4.62-1.47c-0.114-0.196-0.048-0.447,0.147-0.561c0.155-0.09,0.35-0.07,0.483,0.051c1.39,1.7,4.23,1.13,4.26,1.12
	h1.67c1.008,0.011,1.82,0.832,1.82,1.84v7.81c0.109,0.995-0.317,1.973-1.12,2.57C98.765,61.71,98.51,61.779,98.25,61.78z
	 M97.16,50.16V59c-0.085,0.711,0.193,1.418,0.74,1.88c0.212,0.128,0.478,0.128,0.69,0c0.533-0.462,0.799-1.16,0.71-1.86V51.2
	c0-0.552-0.448-1-1-1L97.16,50.16z"/>
<path style="fill:#40565B;" d="M96.71,49.75h1.58c0.79,0,1.43,0.64,1.43,1.43l0,0v7.81c0,3.17-2.94,3.15-3,0v-8.91"/>
<path style="fill:#40565B;" d="M73.98,49.75h1.58c0.79,0,1.43,0.64,1.43,1.43l0,0v7.81c0,3.17-2.94,3.15-3,0v-8.91"/>
<path style="fill:#40565B;" d="M98.18,87.85h-24.9c-2.878,0.016-5.285-2.182-5.53-5.05l-4.74-53
	c-0.249-3.055,2.027-5.733,5.082-5.982c0.149-0.012,0.299-0.018,0.448-0.018h34.38c3.065,0.001,5.549,2.487,5.548,5.552
	c0,0.15-0.006,0.299-0.018,0.448l-4.74,53C103.465,85.668,101.058,87.866,98.18,87.85z M68.54,24.54
	c-2.618,0.001-4.739,2.124-4.739,4.741c0,0.14,0.006,0.279,0.019,0.419l0,0l4.74,53c0.204,2.452,2.26,4.334,4.72,4.32h24.9
	c2.46,0.014,4.516-1.868,4.72-4.32l4.74-53c0.232-2.608-1.694-4.909-4.301-5.141c-0.139-0.012-0.279-0.019-0.419-0.019L68.54,24.54z
	"/>
<path style="fill:#40565B;" d="M72.47,43.58c-0.226-0.005-0.406-0.193-0.401-0.419c0.003-0.111,0.05-0.215,0.131-0.291
	c1.443-1.292,3.627-1.292,5.07,0c0.152,0.167,0.14,0.427-0.027,0.579C77.11,43.57,76.915,43.59,76.76,43.5l-0.08-0.07
	c-1.147-0.963-2.828-0.934-3.94,0.07C72.662,43.558,72.567,43.586,72.47,43.58z"/>
<path style="fill:#40565B;" d="M95.88,43.58c-0.226-0.005-0.406-0.193-0.401-0.419c0.003-0.111,0.05-0.215,0.131-0.291
	c1.443-1.292,3.627-1.292,5.07,0c0.152,0.167,0.14,0.427-0.027,0.579c-0.133,0.121-0.328,0.141-0.483,0.051l-0.06-0.07
	c-1.139-1.019-2.861-1.019-4,0C96.053,43.505,95.972,43.558,95.88,43.58z"/>
<path style="fill:#C84A27;" d="M120.77,61.15c-2.005,0-3.63-1.625-3.63-3.63c0-2.005,1.625-3.63,3.63-3.63
	c2.005,0,3.63,1.625,3.63,3.63S122.775,61.15,120.77,61.15L120.77,61.15z M120.77,54.71c-1.557,0-2.82,1.263-2.82,2.82
	c0,1.557,1.263,2.82,2.82,2.82s2.82-1.263,2.82-2.82C123.59,55.973,122.327,54.71,120.77,54.71
	C120.77,54.71,120.77,54.71,120.77,54.71z"/>
<path style="fill:#C84A27;" d="M50.52,61.15c-2.005,0.022-3.648-1.585-3.67-3.59c-0.022-2.005,1.585-3.648,3.59-3.67
	c2.005-0.022,3.648,1.585,3.67,3.59c0,0.017,0,0.033,0,0.05C54.105,59.515,52.505,61.128,50.52,61.15z M50.52,54.71
	c-1.557,0-2.82,1.263-2.82,2.82c0,1.557,1.263,2.82,2.82,2.82s2.82-1.263,2.82-2.82S52.077,54.71,50.52,54.71
	C50.52,54.71,50.52,54.71,50.52,54.71z"/>
<path style="fill:#F36F42;" d="M114.88,26.66c-0.979-0.374-1.981-0.685-3-0.93c-0.941-2.98-3.648-5.051-6.77-5.18
	c-0.258-1.102-0.592-2.184-1-3.24c-2.45-6.39-7-10.6-10.14-9.39c-2,0.77-3,3.56-2.77,7.14c-3.71-0.27-6.61,0.69-7.4,2.75
	c-1.21,3.15,3,7.69,9.39,10.14c1.37,0.529,2.786,0.93,4.23,1.2l0.11,0.09c0.546,3.059,2.941,5.454,6,6
	c0.21,0.76,0.46,1.53,0.75,2.31c2.45,6.39,7,10.6,10.14,9.39c2.06-0.79,3-3.7,2.75-7.4c3.58,0.2,6.37-0.75,7.14-2.77
	C125.48,33.64,121.27,29.1,114.88,26.66z"/>
<path style="fill:#C84A27;" d="M113.22,47.58c-3.22,0-7.11-4-9.36-9.86c-0.29-0.75-0.55-1.54-0.77-2.35
	c-0.036-0.134-0.002-0.277,0.09-0.38c0.093-0.103,0.233-0.152,0.37-0.13c3.803,0.694,7.449-1.826,8.143-5.629
	c0.205-1.124,0.132-2.281-0.213-3.371c-0.066-0.217,0.056-0.446,0.273-0.512c0.067-0.02,0.139-0.023,0.207-0.008
	c1.036,0.251,2.055,0.568,3.05,0.95l0,0c2.9,1.043,5.531,2.721,7.7,4.91c1.88,2,2.57,4.08,1.93,5.75c-0.78,2-3.4,3.17-7.09,3
	c0.18,3.82-0.94,6.55-3,7.36C114.128,47.483,113.676,47.575,113.22,47.58z M104.05,35.76c0.17,0.57,0.36,1.13,0.57,1.67
	c2.32,6.07,6.72,10.26,9.61,9.16c1.8-0.69,2.75-3.37,2.49-7c-0.006-0.116,0.038-0.228,0.12-0.31c0.079-0.085,0.194-0.13,0.31-0.12
	c3.54,0.2,6.06-0.74,6.74-2.51c0.53-1.37-0.1-3.12-1.76-4.91c-2.084-2.096-4.608-3.702-7.39-4.7l0,0
	c-0.75-0.288-1.515-0.539-2.29-0.75c0.928,4.224-1.744,8.4-5.968,9.328c-0.553,0.121-1.117,0.183-1.682,0.182
	C104.549,35.8,104.299,35.786,104.05,35.76z"/>
<path style="fill:#C84A27;" d="M97.49,29.65c-0.104,0-0.204-0.039-0.28-0.11l0,0c-1.43-0.274-2.832-0.676-4.19-1.2
	c-2.9-1.043-5.531-2.721-7.7-4.91c-1.88-2-2.57-4.08-1.93-5.75c0.8-2.1,3.54-3.22,7.36-3c-0.11-3.67,1-6.31,3-7.09
	c1.68-0.64,3.72,0,5.75,1.93c2.189,2.169,3.867,4.8,4.91,7.7c0.409,1.072,0.743,2.172,1,3.29c0.05,0.221-0.089,0.44-0.31,0.49
	c-0.033,0.007-0.066,0.011-0.1,0.01h-0.26c-3.866-0.01-7.008,3.115-7.019,6.981c-0.001,0.419,0.035,0.837,0.109,1.249
	c0.039,0.223-0.111,0.435-0.334,0.474c-0.022,0.004-0.044,0.006-0.066,0.006L97.49,29.65z M89.98,15.43c-3,0-5.22,0.93-5.83,2.53
	c-0.53,1.37,0.1,3.12,1.76,4.91c2.084,2.096,4.608,3.702,7.39,4.7c1.202,0.463,2.439,0.828,3.7,1.09c0-0.24,0-0.47,0-0.7
	c0.003-4.226,3.356-7.69,7.58-7.83c-0.231-0.909-0.515-1.804-0.85-2.68c-0.998-2.782-2.604-5.306-4.7-7.39
	c-1.8-1.66-3.54-2.29-4.91-1.76c-1.77,0.68-2.71,3.2-2.51,6.74c-0.006,0.226-0.193,0.405-0.42,0.4
	c-0.027-0.001-0.054-0.004-0.08-0.01C90.74,15.43,90.36,15.43,89.98,15.43z"/>
<path style="fill:#C84A27;" d="M104.8,35.8c-4.324,0-7.83-3.506-7.83-7.83c0-4.324,3.506-7.83,7.83-7.83
	c4.324,0,7.83,3.506,7.83,7.83l0,0C112.624,32.292,109.122,35.794,104.8,35.8z M104.8,20.95c-3.866,0-7,3.134-7,7s3.134,7,7,7
	s7-3.134,7-7l0,0C111.8,24.084,108.666,20.95,104.8,20.95z"/>
<path style="fill:#F56F40;" d="M60.35,152.89c2-13.37-1.3-29.93-1.3-29.93l-8.94-17.24l8.92-5.69l19.85-5.28
	c0,1.57,3.1,3.13,6.8,3.13s6.69-1.28,6.69-2.85v0.63c0,0,17.32,3,21.82,3.86l3.76,1.27l-6.55,27.18c0,0-3.1,15.42-3.85,27.16h-0.08
	l-46.9-2.23"/>
<path style="fill:#F4947A;" d="M66.7,109.43c7.76-7.48,22.38-7.74,37.32-7.05c2.69,0.12,14-1.64,14-1.64l-3.76-1.27
	c-4.5-0.9-21.82-3.86-21.82-3.86v-0.63c0,1.57-3,2.85-6.69,2.85s-6.8-1.56-6.8-3.13l-19.9,5.33l-8.94,5.69l7.11,13.71
	C57.22,119.43,63.03,113.02,66.7,109.43z"/>
<path style="fill:#C84A27;" d="M107.57,155.53h-0.08l-46.92-2.23h-0.1c-0.059,0.013-0.121,0.013-0.18,0
	c-0.219-0.036-0.37-0.24-0.34-0.46c1.88-12.76-1.08-28.67-1.29-29.74l-8.9-17.18c-0.096-0.186-0.035-0.415,0.14-0.53l8.92-5.69h0.11
	l19.85-5.28c0.107-0.042,0.226-0.038,0.33,0.01c0.1,0.077,0.158,0.194,0.16,0.32c0,1.23,2.85,2.73,6.39,2.73
	c3.7,0,6.28-1.29,6.28-2.45c0.035-0.224,0.245-0.376,0.469-0.341c0.176,0.028,0.313,0.165,0.341,0.341v0.28
	c2.44,0.42,17.39,3,21.49,3.8l3.87,1.32c0.206,0.071,0.32,0.291,0.26,0.5c0,0.16-4.75,15.95-6.46,26.82
	c0,0.17-3.19,15.84-3.92,27.42C107.964,155.381,107.782,155.537,107.57,155.53z M60.82,152.53l46.37,2.21
	c0.78-11.59,3.88-27,3.91-27.12c1.57-10,5.65-24.07,6.37-26.54l-3.36-1.18c-4.2-0.83-20.13-3.56-21.65-3.82
	c-0.93,1.3-3.56,2.21-6.74,2.21c-3.49,0-6.59-1.37-7.12-3l-19.38,5.14l-8.56,5.46l8.75,16.91c0.005,0.036,0.005,0.074,0,0.11
	c0.07,0.13,3.23,16.38,1.41,29.59V152.53z"/>
<path style="fill:#923A95;" d="M111,173.69c-0.179-0.001-0.337-0.118-0.39-0.29c-1-3.24-1.71-6-2.25-8
	c-0.42-1.54-0.72-2.66-0.93-3.29c-0.4-1.17-0.49-3.48-0.26-7.05c0.01-0.221,0.198-0.391,0.418-0.381c0.004,0,0.008,0,0.012,0.001
	c0.223,0.016,0.391,0.207,0.38,0.43c-0.22,3.42-0.14,5.68,0.22,6.74c0.23,0.66,0.53,1.79,0.95,3.35c0.53,2,1.27,4.7,2.24,7.93
	c0.065,0.215-0.055,0.443-0.27,0.51L111,173.69z"/>
<path style="fill:#C84A27;" d="M98.11,136.2c-0.087,0-0.171-0.028-0.24-0.08c-3.475-2.217-7.406-3.619-11.5-4.1
	c-5.66-0.67-13.06,1.56-13.13,1.58c-0.222,0.045-0.438-0.098-0.484-0.32c-0.039-0.192,0.063-0.384,0.244-0.46
	c0.31-0.09,7.63-2.31,13.47-1.61c4.239,0.468,8.313,1.913,11.9,4.22c0.182,0.134,0.221,0.391,0.087,0.573
	c-0.077,0.104-0.198,0.166-0.327,0.167L98.11,136.2z"/>
<circle style="fill:#D65129;" cx="71.94" cy="133.5" r="1.4"/>
<path style="fill:#C84A27;" d="M71.93,135.31c-1,0-1.81-0.81-1.81-1.81c0-1,0.81-1.81,1.81-1.81c1,0,1.81,0.81,1.81,1.81l0,0
	C73.74,134.5,72.93,135.31,71.93,135.31z M71.93,132.5c-0.552,0-1,0.448-1,1s0.448,1,1,1s1-0.448,1-1
	c-0.005-0.548-0.452-0.99-1-0.99V132.5z"/>
<circle style="fill:#D65129;" cx="99" cy="136.31" r="1.4"/>
<path style="fill:#C84A27;" d="M98.99,138.12c-1,0-1.81-0.81-1.81-1.81c0-1,0.81-1.81,1.81-1.81c1,0,1.81,0.81,1.81,1.81l0,0
	C100.8,137.31,99.99,138.12,98.99,138.12z M98.99,135.31c-0.552,0-1,0.448-1,1s0.448,1,1,1s1-0.448,1-1S99.542,135.31,98.99,135.31z
	"/>
<path style="fill:#B386E2;" d="M50.94,182.43l8.11-23.72l17.21,1c-5.91,6.793-11.333,13.994-16.23,21.55"/>
<rect x="83.023" y="135.937" transform="matrix(0.0675 -0.9977 0.9977 0.0675 -82.2094 232.7863)" style="fill:#923A95;" width="0.81" height="48.87"/>
<path style="fill:#923A95;" d="M50.94,182.86h-0.13c-0.212-0.075-0.323-0.307-0.25-0.52l1.55-4.58c2.23-6.45,5.6-16.2,6.53-19.14
	c0.582-1.89,1.013-3.822,1.29-5.78c0.036-0.219,0.24-0.37,0.46-0.34c0.219,0.036,0.37,0.24,0.34,0.46
	c-0.283,2.002-0.725,3.978-1.32,5.91c-0.93,3-4.31,12.71-6.54,19.17l-1.58,4.56C51.233,182.747,51.097,182.848,50.94,182.86z"/>
<path style="fill:#E7F1F8;" d="M66.96,150.07l-39.21,7.72L0.4,130.93c16.87,5.39,32.66,11.27,43.77,19.22
	c6.337,0.349,12.688-0.326,18.81-2L66.96,150.07z"/>
<rect x="13.677" y="125.194" transform="matrix(0.7007 -0.7135 0.7135 0.7007 -98.7844 53.2596)" style="fill:#BC1A3C;" width="0.81" height="38.33"/>
<path style="fill:#A1C2D8;" d="M66.96,150.43c-0.056,0.012-0.114,0.012-0.17,0l-4-1.89c-0.186-0.129-0.232-0.385-0.103-0.571
	c0.101-0.145,0.283-0.21,0.453-0.159l4,1.89c0.199,0.108,0.274,0.356,0.166,0.556c-0.067,0.125-0.194,0.206-0.336,0.214
	L66.96,150.43z"/>
<path style="fill:#FFFFFF;" d="M47.7,150.43c1.814-0.019,3.625-0.159,5.42-0.42c-2.972,0.325-5.968,0.382-8.95,0.17
	c-4.903-3.406-10.12-6.336-15.58-8.75c-6.48-2.84-15.48-6.33-28.19-10.5l0,0c0,0,19.71,9.86,24.15,14.29
	c2.662,2.773,4.084,6.509,3.94,10.35C28.49,155.57,29.71,150.23,47.7,150.43z"/>
<polyline style="fill:#DD5566;" points="66.68,149.93 106.59,168.87 64.21,176.26 27.75,157.79 "/>
<path style="fill:#DD5566;" d="M44.17,150.15"/>
<path style="fill:#A1C2D8;" d="M28.49,155.97h-0.06c-0.207-0.035-0.353-0.221-0.34-0.43c0.114-3.71-1.262-7.311-3.82-10
	c-4.34-4.34-23.84-14.11-24-14.21c-0.195-0.116-0.259-0.367-0.143-0.562c0.093-0.156,0.277-0.233,0.453-0.188
	c38.6,12.7,43.77,19.09,44,19.36c0.027,0.078,0.047,0.158,0.06,0.24c1,0,2,0.09,3.15,0.09h0.17c5.35,0,14.91-2.31,15-2.33
	c0.19-0.075,0.405,0.019,0.48,0.209c0.004,0.01,0.007,0.02,0.01,0.031c0.048,0.204-0.079,0.409-0.284,0.457
	c-0.005,0.001-0.011,0.002-0.016,0.003c-0.4,0.09-9.93,2.28-15.37,2.21c-17.46-0.14-18.81,4.8-18.82,4.85
	C28.897,155.899,28.693,156.016,28.49,155.97z M5.35,132.97c6.15,3.22,16.39,8.82,19.49,11.92c2.435,2.494,3.878,5.789,4.06,9.27
	c1.36-1.46,5-3.71,14.62-4.15c-1.55-1.35-9.12-7.09-38.17-16.99L5.35,132.97z"/>
<path style="fill:#BC1A3C;" d="M64.11,176.68l-37.59-19.06l40.21-8.11l41.18,19.54L64.11,176.68z M28.97,157.95l35.3,17.89l41-7.15
	l-38.65-18.33L28.97,157.95z"/>
<path style="fill:none;stroke:#BC1A3C;stroke-miterlimit:10;" d="M44.17,150.15"/>
<path style="fill:#E7F1F8;" d="M38.95,163.43c0,0,1.74,16.41,8.4,15c4.44-0.92,11.7-7.24,16-11.43c1.87-1.83,0-2.52-1.25-2.13
	l-12.39,4.31c-0.694,0.24-1.452-0.128-1.692-0.822c-0.087-0.251-0.097-0.522-0.028-0.778l3.22-3.15
	c0.052-0.192-0.062-0.39-0.254-0.441c-0.119-0.032-0.245-0.001-0.336,0.081l-6.2,2.21L38.95,163.43z"/>
<path style="fill:#40565B;" d="M46.57,178.97c-0.889-0.006-1.753-0.301-2.46-0.84c-4.3-3.13-5.52-14.16-5.57-14.63
	c-0.024-0.225,0.14-0.427,0.365-0.451c0.077-0.008,0.155,0.006,0.225,0.04l5.32,2.7l6-2.13c0.35-0.242,0.829-0.155,1.071,0.195
	c0.13,0.188,0.17,0.425,0.109,0.645c-0.02,0.069-0.058,0.131-0.11,0.18l-3.17,3.13c-0.086,0.484,0.236,0.946,0.72,1.033
	c0.147,0.026,0.299,0.015,0.44-0.033l13.13-4.44c0.798-0.243,1.641,0.206,1.885,1.004c0.164,0.537,0.016,1.121-0.385,1.516
	c-4.21,4.07-12,11-16.7,12C47.154,178.947,46.862,178.973,46.57,178.97z M39.45,164.17c0.35,2.55,1.75,10.83,5.14,13.31
	c0.758,0.592,1.74,0.816,2.68,0.61c4.53-0.95,12.16-7.81,16.3-11.81c0.24-0.217,0.291-0.575,0.12-0.85
	c-0.156-0.284-0.491-0.417-0.8-0.32l-13.11,4.44c-0.893,0.289-1.852-0.2-2.141-1.094c-0.095-0.293-0.108-0.606-0.039-0.906
	c0.02-0.069,0.058-0.131,0.11-0.18l2.87-2.94l-6,2.14c-0.102,0.043-0.218,0.043-0.32,0L39.45,164.17z"/>
<path style="fill:#A1C2D8;" d="M31.17,150.55c-0.226,0-0.41-0.184-0.41-0.41l0,0c0-3.6-4.7-6.52-4.75-6.55
	c-0.17-0.149-0.187-0.408-0.038-0.579c0.114-0.13,0.297-0.175,0.458-0.111c0.21,0.13,5.13,3.19,5.13,7.24
	C31.56,150.359,31.389,150.539,31.17,150.55z"/>
<path style="fill:#A1C2D8;" d="M34.94,149.53h-0.09c-0.216-0.05-0.354-0.262-0.31-0.48c0.24-1.11-1-2.34-1.53-2.72
	c-0.163-0.157-0.168-0.417-0.011-0.58c0.131-0.136,0.337-0.165,0.501-0.07c0.09,0.07,2.23,1.7,1.84,3.54
	C35.294,149.403,35.129,149.531,34.94,149.53z"/>
<path style="fill:#40565B;" d="M40.26,170.57c-0.177,0.001-0.334-0.112-0.39-0.28c-0.83-2.52,1.56-4.47,2.93-5.15
	c0.189-0.124,0.444-0.071,0.568,0.118c0.124,0.189,0.071,0.444-0.118,0.568c-0.028,0.018-0.058,0.033-0.089,0.044
	c0,0-3.34,1.69-2.52,4.17c0.066,0.212-0.049,0.439-0.26,0.51L40.26,170.57z"/>
<path style="fill:#A1C2D8;" d="M162.11,138.83c-5,0-9.3-1.19-12.1-3.45c-4.622,3.41-11.133,2.428-14.543-2.193
	c-0.787-1.067-1.363-2.274-1.697-3.557c-0.914-3.539,0.091-7.299,2.65-9.91c-2.026-4.774,0.202-10.286,4.975-12.312
	c3.475-1.475,7.494-0.725,10.205,1.902c1.069-0.431,2.164-0.791,3.28-1.08c8.13-2.12,15.71-0.14,17.48,4.5
	c8.65-0.44,15.3,2.6,16.6,7.59c1.7,6.55-6.28,14.31-17.8,17.31C168.206,138.41,165.165,138.814,162.11,138.83z M150.04,134.43
	c0.099,0,0.195,0.035,0.27,0.1c4.08,3.53,12.38,4.44,20.67,2.29c11.08-2.89,18.81-10.21,17.21-16.32c-1.21-4.67-7.67-7.46-16.07-7
	c-0.185,0.013-0.355-0.103-0.41-0.28c-1.4-4.37-8.85-6.28-16.61-4.26c-1.165,0.303-2.308,0.687-3.42,1.15
	c-0.154,0.068-0.334,0.032-0.45-0.09c-3.298-3.403-8.73-3.488-12.132-0.19c-2.618,2.537-3.346,6.451-1.818,9.76
	c0.069,0.157,0.033,0.341-0.09,0.46c-3.82,3.669-3.943,9.739-0.274,13.56c3.421,3.563,8.989,3.944,12.864,0.88
	C149.857,134.441,149.949,134.42,150.04,134.43z"/>
<path style="fill:#A1C2D8;" d="M164.57,121.1h-9.85c-0.224-0.035-0.376-0.245-0.341-0.469c0.028-0.176,0.165-0.313,0.341-0.341h9.85
	c0.224-0.035,0.434,0.117,0.469,0.341c0.035,0.224-0.117,0.434-0.341,0.469C164.655,121.107,164.612,121.107,164.57,121.1z"/>
<path style="fill:#A1C2D8;" d="M152.11,121.1h-7.45c-0.224,0.035-0.434-0.117-0.469-0.341c-0.035-0.224,0.117-0.434,0.341-0.469
	c0.042-0.007,0.085-0.007,0.128,0h7.45c0.224-0.035,0.434,0.117,0.469,0.341c0.035,0.224-0.117,0.434-0.341,0.469
	C152.195,121.107,152.152,121.107,152.11,121.1z"/>
<path style="fill:#A1C2D8;" d="M167.01,129.33h-5.68c-0.224-0.035-0.376-0.245-0.341-0.469c0.028-0.176,0.165-0.313,0.341-0.341
	h5.68c0.224,0.035,0.376,0.245,0.341,0.469C167.323,129.165,167.186,129.302,167.01,129.33z"/>
<path style="fill:#A1C2D8;" d="M157.16,129.33h-12.47c-0.224-0.035-0.376-0.245-0.341-0.469c0.028-0.176,0.165-0.313,0.341-0.341
	h12.48c0.224-0.035,0.434,0.117,0.469,0.341s-0.117,0.434-0.341,0.469c-0.042,0.007-0.085,0.007-0.128,0H157.16z"/>
<path style="fill:#A1C2D8;" d="M218.7,107.04c-0.053,0.011-0.107,0.011-0.16,0l-2.4-1c-0.205-0.087-0.303-0.323-0.22-0.53l0.94-2.22
	c-0.493-0.376-0.934-0.817-1.31-1.31l-2.22,0.94c-0.099,0.042-0.211,0.042-0.31,0c-0.099-0.042-0.178-0.121-0.22-0.22l-1-2.4
	c-0.083-0.207,0.015-0.443,0.22-0.53l2.22-0.94c-0.105-0.693-0.105-1.397,0-2.09l-2.22-0.94c-0.205-0.087-0.303-0.323-0.22-0.53
	l1-2.4c0.091-0.201,0.326-0.294,0.53-0.21l2.22,0.94c0.376-0.493,0.817-0.934,1.31-1.31l-0.94-2.22
	c-0.083-0.207,0.015-0.443,0.22-0.53l2.4-1c0.204-0.084,0.439,0.009,0.53,0.21l0.94,2.22c0.693-0.105,1.397-0.105,2.09,0l0.94-2.22
	c0.091-0.201,0.326-0.294,0.53-0.21l2.4,1c0.205,0.087,0.303,0.323,0.22,0.53l-0.94,2.22c0.493,0.376,0.934,0.817,1.31,1.31
	l2.22-0.94c0.204-0.084,0.439,0.009,0.53,0.21l1,2.4c0.083,0.207-0.015,0.443-0.22,0.53l-2.22,0.94c0.105,0.693,0.105,1.397,0,2.09
	l2.22,0.94c0.205,0.087,0.303,0.323,0.22,0.53l-1,2.4c-0.091,0.201-0.326,0.294-0.53,0.21l-2.22-0.94
	c-0.376,0.493-0.817,0.934-1.31,1.31l0.94,2.22c0.083,0.207-0.015,0.443-0.22,0.53l-2.4,1c-0.204,0.084-0.439-0.009-0.53-0.21
	l-0.94-2.22c-0.693,0.105-1.397,0.105-2.09,0l-0.94,2.22c-0.061,0.151-0.207,0.25-0.37,0.25V107.04z M222.36,103.71
	c0.162,0.003,0.307,0.101,0.37,0.25l0.91,2.14l1.65-0.7l-0.91-2.14c-0.073-0.176-0.015-0.379,0.14-0.49
	c0.615-0.423,1.147-0.955,1.57-1.57c0.111-0.155,0.314-0.213,0.49-0.14l2.14,0.91l0.7-1.65l-2.14-0.91
	c-0.175-0.076-0.274-0.262-0.24-0.45c0.161-0.802,0.161-1.628,0-2.43c-0.034-0.188,0.065-0.374,0.24-0.45l2.14-0.91l-0.7-1.65
	l-2.14,0.91c-0.176,0.077-0.381,0.018-0.49-0.14c-0.423-0.615-0.955-1.147-1.57-1.57c-0.155-0.111-0.213-0.314-0.14-0.49l0.91-2.14
	l-1.65-0.7l-0.91,2.14c-0.073,0.178-0.262,0.278-0.45,0.24c-0.802-0.161-1.628-0.161-2.43,0c-0.188,0.038-0.377-0.062-0.45-0.24
	l-0.91-2.14l-1.65,0.7l0.91,2.14c0.073,0.176,0.015,0.379-0.14,0.49c-0.615,0.423-1.147,0.955-1.57,1.57
	c-0.109,0.158-0.314,0.217-0.49,0.14l-2.14-0.91l-0.7,1.65l2.14,0.91c0.175,0.076,0.274,0.262,0.24,0.45
	c-0.161,0.802-0.161,1.628,0,2.43c0.034,0.188-0.065,0.374-0.24,0.45l-2.14,0.91l0.7,1.65l2.14-0.91
	c0.176-0.073,0.379-0.015,0.49,0.14c0.423,0.615,0.955,1.147,1.57,1.57c0.155,0.111,0.213,0.314,0.14,0.49l-0.91,2.14l1.65,0.7
	l0.91-2.14c0.076-0.175,0.262-0.274,0.45-0.24c0.802,0.162,1.628,0.162,2.43,0L222.36,103.71z M221.07,100.71c-1.657,0-3-1.343-3-3
	s1.343-3,3-3s3,1.343,3,3c0.011,1.657-1.323,3.009-2.98,3.02c-0.01,0-0.02,0-0.03,0L221.07,100.71z M221.07,95.54
	c-1.204,0-2.18,0.976-2.18,2.18s0.976,2.18,2.18,2.18c1.204,0,2.18-0.976,2.18-2.18v0c-0.011-1.2-0.99-2.166-2.19-2.16L221.07,95.54
	z"/>
<path style="fill:#A1C2D8;" d="M204.4,117c-0.053,0.011-0.107,0.011-0.16,0l-1.75-0.74c-0.205-0.087-0.303-0.323-0.22-0.53
	l0.66-1.54c-0.319-0.252-0.608-0.541-0.86-0.86l-1.54,0.66c-0.099,0.042-0.211,0.042-0.31,0c-0.099-0.042-0.178-0.121-0.22-0.22
	l-0.74-1.75c-0.083-0.207,0.015-0.443,0.22-0.53l1.54-0.66c-0.062-0.461-0.062-0.929,0-1.39l-1.54-0.66
	c-0.205-0.087-0.303-0.323-0.22-0.53l0.74-1.75c0.091-0.201,0.326-0.294,0.53-0.21l1.54,0.66c0.252-0.32,0.54-0.608,0.86-0.86
	l-0.66-1.54c-0.083-0.207,0.015-0.443,0.22-0.53l1.75-0.74c0.204-0.084,0.439,0.009,0.53,0.21l0.66,1.54
	c0.461-0.061,0.929-0.061,1.39,0l0.66-1.54c0.091-0.201,0.326-0.294,0.53-0.21l1.75,0.74c0.205,0.087,0.303,0.323,0.22,0.53
	l-0.66,1.54c0.32,0.252,0.608,0.54,0.86,0.86l1.54-0.66c0.204-0.084,0.439,0.009,0.53,0.21l0.74,1.75
	c0.083,0.207-0.015,0.443-0.22,0.53l-1.54,0.66c0.062,0.461,0.062,0.929,0,1.39l1.54,0.66c0.205,0.087,0.303,0.323,0.22,0.53
	l-0.74,1.75c-0.091,0.201-0.326,0.294-0.53,0.21l-1.54-0.66c-0.252,0.32-0.54,0.608-0.86,0.86l0.66,1.54
	c0.083,0.207-0.015,0.443-0.22,0.53l-1.75,0.74c-0.202,0.089-0.438-0.002-0.528-0.204c-0.001-0.002-0.002-0.004-0.002-0.006
	l-0.66-1.54c-0.461,0.06-0.929,0.06-1.39,0l-0.66,1.54C204.698,116.917,204.555,117.003,204.4,117z M203.18,115.64l1,0.43l0.62-1.47
	c0.076-0.175,0.262-0.274,0.45-0.24c0.571,0.114,1.159,0.114,1.73,0c0.188-0.038,0.377,0.062,0.45,0.24l0.62,1.47l1-0.43l-0.62-1.47
	c-0.073-0.176-0.015-0.379,0.14-0.49c0.438-0.302,0.818-0.682,1.12-1.12c0.111-0.155,0.314-0.213,0.49-0.14l1.47,0.62l0.43-1
	l-1.47-0.62c-0.175-0.076-0.274-0.262-0.24-0.45c0.114-0.571,0.114-1.159,0-1.73c-0.034-0.188,0.065-0.374,0.24-0.45l1.47-0.62
	l-0.43-1l-1.47,0.62c-0.176,0.073-0.379,0.015-0.49-0.14c-0.302-0.438-0.682-0.818-1.12-1.12c-0.155-0.111-0.213-0.314-0.14-0.49
	l0.62-1.47l-1-0.43l-0.62,1.47c-0.073,0.178-0.262,0.278-0.45,0.24c-0.571-0.115-1.159-0.115-1.73,0
	c-0.188,0.038-0.377-0.062-0.45-0.24l-0.62-1.47l-1,0.43l0.62,1.47c0.073,0.176,0.015,0.379-0.14,0.49
	c-0.439,0.302-0.818,0.681-1.12,1.12c-0.111,0.155-0.314,0.213-0.49,0.14l-1.47-0.62l-0.43,1l1.47,0.62
	c0.175,0.076,0.274,0.262,0.24,0.45c-0.114,0.571-0.114,1.159,0,1.73c0.034,0.188-0.065,0.374-0.24,0.45l-1.47,0.62l0.43,1
	l1.47-0.62c0.176-0.073,0.379-0.015,0.49,0.14c0.302,0.439,0.681,0.818,1.12,1.12c0.155,0.111,0.213,0.314,0.14,0.49L203.18,115.64z
	 M206.11,112.43c-1.265,0-2.29-1.025-2.29-2.29s1.025-2.29,2.29-2.29c1.265,0,2.29,1.025,2.29,2.29c0,0,0,0,0,0
	C208.395,111.402,207.372,112.425,206.11,112.43z M206.11,108.66c-0.817,0-1.48,0.663-1.48,1.48c0,0.817,0.663,1.48,1.48,1.48
	c0.817,0,1.48-0.663,1.48-1.48l0,0c0.028-0.817-0.612-1.502-1.429-1.529c-0.017-0.001-0.034-0.001-0.051-0.001V108.66z"/>
<polygon style="fill:#19BC9C;" points="206.87,40.2 208.75,38.31 211.44,41 216.83,35.61 218.72,37.5 211.44,44.78 "/>
<path style="fill:#109995;" d="M211.44,45.18c-0.109,0.001-0.214-0.042-0.29-0.12l-4.58-4.58c-0.154-0.159-0.154-0.411,0-0.57
	l1.89-1.89c0.159-0.154,0.411-0.154,0.57,0l2.4,2.4l5.1-5.1c0.159-0.154,0.411-0.154,0.57,0l1.89,1.89
	c0.154,0.159,0.154,0.411,0,0.57l-7.28,7.27C211.64,45.127,211.543,45.173,211.44,45.18z M207.44,40.18l4,4l6.71-6.7l-1.32-1.32
	l-5.1,5.1c-0.159,0.154-0.411,0.154-0.57,0l-2.4-2.4L207.44,40.18z"/>
<polygon style="fill:#19BC9C;" points="190.23,50.57 192.12,48.68 194.81,51.37 200.19,45.99 202.09,47.88 194.81,55.15 "/>
<path style="fill:#109995;" d="M194.8,55.55c-0.109,0.001-0.214-0.042-0.29-0.12l-4.58-4.58c-0.154-0.159-0.154-0.411,0-0.57
	l1.9-1.85c0.161-0.149,0.409-0.149,0.57,0l2.4,2.4l5.1-5.1c0.159-0.154,0.411-0.154,0.57,0l1.89,1.89
	c0.154,0.159,0.154,0.411,0,0.57l-7.25,7.24C195.029,55.513,194.916,55.557,194.8,55.55z M190.8,50.55l4,4l6.71-6.7l-1.32-1.32
	l-5.1,5.1c-0.159,0.154-0.411,0.154-0.57,0l-2.4-2.4L190.8,50.55z"/>
<polygon style="fill:#19BC9C;" points="173.19,62.98 175.07,61.09 177.76,63.78 183.15,58.4 185.04,60.29 177.76,67.56 "/>
<path style="fill:#109995;" d="M177.76,67.97c-0.109,0.001-0.214-0.042-0.29-0.12l-4.58-4.58c-0.154-0.159-0.154-0.411,0-0.57
	l1.89-1.89c0.159-0.154,0.411-0.154,0.57,0l2.4,2.4l5.1-5.1c0.159-0.154,0.411-0.154,0.57,0l1.89,1.89
	c0.154,0.159,0.154,0.411,0,0.57l-7.28,7.27C177.96,67.917,177.863,67.963,177.76,67.97z M173.76,62.97l4,4l6.71-6.7l-1.36-1.3
	l-5.1,5.1c-0.159,0.154-0.411,0.154-0.57,0l-2.4-2.4L173.76,62.97z"/>
<polygon style="fill:#19BC9C;" points="191.4,73.52 193.29,71.63 195.98,74.32 201.37,68.93 203.26,70.82 195.98,78.09 "/>
<path style="fill:#109995;" d="M195.98,78.5c-0.109,0.001-0.214-0.042-0.29-0.12l-4.58-4.58c-0.154-0.159-0.154-0.411,0-0.57
	l1.89-1.89c0.161-0.149,0.409-0.149,0.57,0l2.4,2.4l5.1-5.1c0.159-0.154,0.411-0.154,0.57,0l1.9,1.89
	c0.154,0.159,0.154,0.411,0,0.57l-7.28,7.27C196.188,78.449,196.087,78.496,195.98,78.5z M191.98,73.5l4,4l6.71-6.7l-1.32-1.32
	l-5.1,5.1c-0.161,0.149-0.409,0.149-0.57,0l-2.4-2.4L191.98,73.5z"/>
<polygon style="fill:#19BC9C;" points="168.97,119.86 170.31,118.52 172.22,120.43 176.05,116.6 177.4,117.94 172.22,123.12 "/>
<path style="fill:#109995;" d="M172.22,123.52c-0.109,0.001-0.214-0.042-0.29-0.12l-3.26-3.26c-0.154-0.159-0.154-0.411,0-0.57
	l1.34-1.34c0.159-0.154,0.411-0.154,0.57,0l1.63,1.63l3.54-3.54c0.159-0.154,0.411-0.154,0.57,0l1.35,1.34
	c0.154,0.159,0.154,0.411,0,0.57l-5.16,5.2C172.429,123.497,172.325,123.529,172.22,123.52z M169.54,119.86l2.68,2.68l4.6-4.6
	l-0.77-0.77l-3.54,3.54c-0.159,0.154-0.411,0.154-0.57,0l-1.63-1.63L169.54,119.86z"/>
<polygon style="fill:#19BC9C;" points="168.97,127.68 170.31,126.33 172.22,128.25 176.05,124.42 177.4,125.76 172.22,130.93 "/>
<path style="fill:#109995;" d="M172.22,131.34c-0.109,0.001-0.214-0.042-0.29-0.12l-3.26-3.26c-0.154-0.159-0.154-0.411,0-0.57
	l1.34-1.34c0.159-0.154,0.411-0.154,0.57,0l1.63,1.63l3.54-3.54c0.159-0.154,0.411-0.154,0.57,0l1.35,1.34
	c0.154,0.159,0.154,0.411,0,0.57l-5.18,5.17C172.419,131.293,172.322,131.336,172.22,131.34z M169.54,127.68l2.68,2.68l4.6-4.6
	l-0.77-0.77l-3.54,3.54c-0.161,0.149-0.409,0.149-0.57,0l-1.63-1.63L169.54,127.68z"/>
</svg>
