<?xml version="1.0" encoding="iso-8859-1"?>
<!-- Generator: Adobe Illustrator 23.0.0, SVG Export Plug-In . SVG Version: 6.00 Build 0)  -->
<svg version="1.1" id="Layer_1" xmlns="http://www.w3.org/2000/svg" xmlns:xlink="http://www.w3.org/1999/xlink" x="0px" y="0px"
	 viewBox="0 0 252.98 159.56" style="enable-background:new 0 0 252.98 159.56;" xml:space="preserve">
<title>home-illustration-benefits-teach.ai</title>
<g>
	<g>
		
			<polygon style="opacity:0.5;fill:#D0E4F1;stroke:#D0E4F1;stroke-linecap:round;stroke-linejoin:round;enable-background:new    ;" points="
			28.76,159.06 28.76,31.41 214.33,31.41 214.33,159.06 57.9,159.06 		"/>
		<polygon style="fill:#F56F40;" points="33.22,154.36 33.22,26.72 218.78,26.72 218.78,154.36 62.36,154.36 		"/>
		<polygon style="fill:#D0E4F0;" points="33.22,26.72 33.22,154.36 62.36,154.36 218.78,154.36 218.78,153.8 		"/>
		<polygon style="fill:#FFFFFF;" points="40.18,72.78 40.18,32.97 211.82,32.97 211.82,148.11 40.18,148.11 		"/>
		<polygon style="fill:none;stroke:#3F555A;stroke-miterlimit:10;" points="33.22,154.36 33.22,26.72 218.78,26.72 218.78,154.36 
			62.36,154.36 		"/>
		
			<path style="opacity:0.5;fill:#D0E4F1;stroke:#D0E4F1;stroke-linecap:round;stroke-linejoin:round;enable-background:new    ;" d="
			M251.99,40.53h-21.85v-26c-2.18,0.1-1.34,0.18-3.52,0.26v29.49h25.86C252.36,42.04,252.14,42.79,251.99,40.53z"/>
		<polygon style="fill:none;stroke:#3F555A;stroke-miterlimit:10;" points="40.18,72.78 40.18,32.97 211.82,32.97 211.82,148.11 
			40.18,148.11 		"/>
		<polygon style="fill:#FFFFFF;stroke:#3F555A;stroke-miterlimit:10;" points="128.87,117.51 77.57,117.51 77.57,91.26 		"/>
		<path style="fill:#FFFFFF;stroke:#3F555A;stroke-miterlimit:10;" d="M157.66,86.89l-16.67,35.07l35,16.68l16.68-35.06
			L157.66,86.89z M157.66,121.95v-18.37h18.33v18.38L157.66,121.95z"/>
		<line style="fill:none;stroke:#3F555A;stroke-miterlimit:10;" x1="157.66" y1="103.58" x2="157.66" y2="86.89"/>
		<line style="fill:none;stroke:#3F555A;stroke-miterlimit:10;" x1="176.03" y1="138.64" x2="176.03" y2="121.96"/>
		<line style="fill:none;stroke:#3F555A;stroke-miterlimit:10;" x1="140.97" y1="121.96" x2="157.66" y2="121.96"/>
		<line style="fill:none;stroke:#3F555A;stroke-miterlimit:10;" x1="176.03" y1="103.58" x2="192.72" y2="103.58"/>
		<path style="fill:#3F555A;" d="M104.53,99.61c0-0.17,0-0.33,0-0.5c0-0.45,0-0.9,0-1.34s0-0.72,0-1.08s0-0.67,0-1
			c0-0.19,0-0.39,0-0.61s0-0.23,0-0.36c0.022-0.26,0.167-0.494,0.39-0.63c0.203-0.143,0.457-0.194,0.7-0.14
			c0.107,0.029,0.202,0.092,0.27,0.18c0.13,0.144,0.22,0.32,0.26,0.51c0.013,0.19,0.013,0.38,0,0.57
			c0.011,0.071-0.037,0.137-0.108,0.148c-0.007,0.001-0.014,0.002-0.022,0.002c-0.077,0.011-0.148-0.042-0.159-0.118
			c-0.001-0.004-0.001-0.008-0.001-0.012c0-0.12,0-0.23,0-0.34c-0.003-0.204-0.094-0.398-0.25-0.53c-0.149-0.119-0.361-0.119-0.51,0
			l-0.16,0.13c-0.072,0.065-0.118,0.154-0.13,0.25c-0.049,0.25-0.066,0.506-0.05,0.76c0.018,0.29,0.018,0.58,0,0.87
			c0,0.33,0,0.65,0,1c-0.031,0.593-0.031,1.187,0,1.78c0,0.26,0,0.51,0,0.77c-0.01,0.12-0.01,0.24,0,0.36
			c0.004,0.308,0.206,0.579,0.5,0.67c0.102,0.022,0.208,0.022,0.31,0c0.171-0.032,0.303-0.168,0.33-0.34
			c0.01-0.136,0.01-0.274,0-0.41c0-0.2,0-0.41,0.05-0.63s0.09-0.18,0.17-0.16c0.099,0.007,0.174,0.093,0.167,0.192
			c-0.001,0.013-0.003,0.025-0.007,0.038c-0.062,0.256-0.102,0.517-0.12,0.78c0,0.1,0,0.2-0.05,0.29
			c-0.057,0.294-0.302,0.514-0.6,0.54c-0.323,0.02-0.636-0.118-0.84-0.37c-0.154-0.157-0.237-0.37-0.23-0.59c0-0.22,0-0.45,0-0.68
			L104.53,99.61z"/>
		<path style="fill:#3F555A;" d="M98.72,119.52l0.26,0.15c0.11,0.06,0.2,0.12,0.3,0.17c0.313,0.15,0.535,0.439,0.6,0.78
			c0.047,0.271,0.064,0.546,0.05,0.82c0.024,0.333,0.024,0.667,0,1c-0.041,0.373-0.232,0.712-0.53,0.94l-0.07,0.07l0,0
			c0.066,0.049,0.136,0.093,0.21,0.13c0.135,0.064,0.249,0.164,0.33,0.29c0.06,0.073,0.092,0.165,0.09,0.26c0,0.12,0,0.26,0,0.38
			v1.3c0.004,0.147-0.041,0.292-0.13,0.41c-0.049,0.055-0.102,0.105-0.16,0.15l-0.84,0.39c-0.04,0.005-0.08,0.005-0.12,0h-0.08
			c-0.26-0.25-0.27-0.25-0.22-0.63c0.046-0.412,0.069-0.826,0.07-1.24c-0.004-0.067-0.004-0.133,0-0.2
			c0.057-0.752,0.074-1.506,0.05-2.26c0-0.38,0-0.76,0-1.14s0-0.8,0-1.21S98.42,119.78,98.72,119.52z M98.72,126.46
			c0.239-0.066,0.47-0.156,0.69-0.27c0.117-0.059,0.199-0.171,0.22-0.3c0.01-0.093,0.01-0.187,0-0.28v-0.67c0-0.23,0-0.45,0-0.68
			c0.011-0.149-0.062-0.292-0.19-0.37c-0.145-0.087-0.295-0.164-0.45-0.23c-0.065-0.019-0.135-0.019-0.2,0l0,0
			c-0.08,0.84-0.07,1.67-0.17,2.49c-0.058,0.106-0.028,0.239,0.07,0.31H98.72z M98.84,123.33l0.39-0.23
			c0.114-0.075,0.207-0.179,0.27-0.3c0.081-0.176,0.129-0.366,0.14-0.56c0-0.42,0-0.84,0-1.27c0.015-0.273-0.083-0.541-0.27-0.74
			c-0.169-0.132-0.354-0.243-0.55-0.33c-0.064,0.098-0.092,0.214-0.08,0.33c0,0.57,0,1.14,0,1.71c0.031,0.349,0.031,0.701,0,1.05
			c-0.013,0.103,0.016,0.208,0.08,0.29L98.84,123.33z"/>
		<path style="fill:#3F555A;" d="M72.99,108.86c-0.471-0.019-0.942-0.003-1.41,0.05l-0.05,0.22c0,0.17-0.06,0.35-0.09,0.52
			c-0.006,0.077-0.073,0.135-0.15,0.129c-0.014-0.001-0.027-0.004-0.04-0.009c-0.083-0.006-0.145-0.078-0.138-0.161
			c0.001-0.013,0.004-0.027,0.008-0.039l0.08-0.42c0-0.23,0.08-0.47,0.13-0.7l0.12-0.7c0.08-0.56,0.17-1.12,0.25-1.68
			s0.16-1.08,0.22-1.61s0.08-0.85,0.12-1.27c-0.001-0.165,0.087-0.318,0.23-0.4c0.065-0.043,0.151-0.025,0.194,0.04
			c0.002,0.003,0.004,0.007,0.006,0.01c0.043,0.098,0.07,0.203,0.08,0.31c-0.007,0.248,0.013,0.496,0.06,0.74
			c0.05,0.37,0.08,0.76,0.13,1.13c0.07,0.61,0.15,1.2,0.23,1.81l0.21,1.52c0,0.17,0.06,0.34,0.1,0.51s0.09,0.45,0.12,0.67
			c0.004,0.053,0.004,0.107,0,0.16c-0.01,0.079-0.081,0.136-0.16,0.13c-0.078,0.001-0.145-0.053-0.16-0.13c0-0.2,0-0.38-0.06-0.58
			S72.99,108.97,72.99,108.86z M72.28,103.86c0,0.38-0.07,0.69-0.12,1s-0.09,0.45-0.13,0.67c-0.06,0.41-0.11,0.82-0.16,1.23
			s-0.12,0.75-0.17,1.12c-0.06,0.225-0.084,0.458-0.07,0.69c0.063,0.033,0.13,0.057,0.2,0.07c0.096,0.009,0.194,0.009,0.29,0
			l0.78-0.08v-0.15c0-0.32-0.1-0.64-0.14-1s-0.13-0.93-0.2-1.38s-0.1-0.69-0.13-1s0-0.62-0.08-0.95
			c-0.015-0.088-0.046-0.172-0.09-0.25L72.28,103.86z"/>
		<path style="fill:#3F555A;" d="M143.05,105.6c0-0.14,0-0.28,0-0.43c0-0.39,0-0.77,0-1.14s0-0.62,0-0.92s0-0.57,0-0.86
			s0-0.33,0-0.52s0-0.2,0-0.3c0.018-0.222,0.14-0.423,0.33-0.54c0.174-0.123,0.392-0.167,0.6-0.12
			c0.091,0.024,0.172,0.076,0.23,0.15c0.11,0.122,0.185,0.27,0.22,0.43c0.012,0.163,0.012,0.327,0,0.49
			c0.011,0.06-0.028,0.117-0.088,0.128c-0.007,0.001-0.015,0.002-0.022,0.002c-0.065,0.011-0.127-0.033-0.139-0.098
			c-0.001-0.004-0.001-0.008-0.001-0.012c0-0.11,0-0.2,0-0.29c0.001-0.177-0.076-0.345-0.21-0.46c-0.126-0.098-0.304-0.098-0.43,0
			l-0.14,0.11c-0.061,0.055-0.1,0.129-0.11,0.21c-0.027,0.216-0.027,0.434,0,0.65c0.015,0.246,0.015,0.494,0,0.74
			c0,0.28,0,0.55,0,0.83c-0.027,0.506-0.027,1.014,0,1.52c0,0.22,0,0.43,0,0.65c-0.008,0.1-0.008,0.2,0,0.3
			c0.006,0.263,0.179,0.492,0.43,0.57c0.089,0.02,0.181,0.02,0.27,0c0.145-0.028,0.257-0.144,0.28-0.29
			c0.009-0.117,0.009-0.233,0-0.35c0-0.17,0-0.35,0-0.54s0.08-0.15,0.14-0.14c0.083,0.001,0.149,0.069,0.149,0.151
			c0,0.017-0.003,0.033-0.009,0.049c-0.056,0.22-0.093,0.444-0.11,0.67c0,0.08,0,0.17,0,0.25c-0.048,0.25-0.256,0.438-0.51,0.46
			c-0.273,0.017-0.537-0.099-0.71-0.31c-0.132-0.133-0.204-0.313-0.2-0.5c0-0.19,0-0.39,0-0.58L143.05,105.6z"/>
		<path style="fill:#3F555A;" d="M164.99,113.04l0.22,0.13l0.26,0.14c0.267,0.129,0.457,0.378,0.51,0.67
			c0.026,0.233,0.026,0.467,0,0.7c0.019,0.273,0.019,0.547,0,0.82c-0.035,0.317-0.197,0.606-0.45,0.8l-0.06,0.06l0,0
			c0.057,0.042,0.117,0.079,0.18,0.11c0.115,0.055,0.212,0.142,0.28,0.25c0.052,0.062,0.08,0.14,0.08,0.22c0,0.11,0,0.22,0,0.33
			v1.11c0.004,0.126-0.034,0.249-0.11,0.35c-0.043,0.047-0.089,0.091-0.14,0.13l-0.71,0.33c-0.036,0.005-0.074,0.005-0.11,0h-0.07
			c-0.22-0.21-0.23-0.21-0.19-0.54c0.039-0.352,0.059-0.706,0.06-1.06c-0.004-0.057-0.004-0.113,0-0.17
			c0.034-0.64,0.034-1.28,0-1.92c0-0.33,0-0.65,0-1s0-0.68,0-1S164.69,113.28,164.99,113.04z M164.99,118.95
			c0.204-0.056,0.402-0.133,0.59-0.23c0.102-0.051,0.173-0.148,0.19-0.26c0.009-0.08,0.009-0.16,0-0.24v-0.57c0-0.2,0-0.38,0-0.58
			c0.008-0.125-0.054-0.244-0.16-0.31c-0.125-0.076-0.256-0.142-0.39-0.2c-0.056-0.016-0.114-0.016-0.17,0l0,0
			c-0.07,0.71-0.06,1.42-0.14,2.12c-0.067,0.079-0.063,0.196,0.01,0.27H164.99z M164.99,116.28l0.33-0.2
			c0.098-0.065,0.177-0.155,0.23-0.26c0.07-0.151,0.111-0.314,0.12-0.48c0-0.36,0-0.71,0-1.08c0.018-0.233-0.066-0.463-0.23-0.63
			c-0.145-0.112-0.302-0.206-0.47-0.28c-0.055,0.082-0.08,0.181-0.07,0.28c0,0.49,0,1,0,1.46c0.027,0.299,0.027,0.601,0,0.9
			C164.881,116.096,164.915,116.204,164.99,116.28z"/>
		<path style="fill:#3F555A;" d="M167.19,116.48h0.44c0.063-0.008,0.127-0.008,0.19,0c0.05,0,0.08,0.11,0.07,0.17
			c-0.008,0.055-0.059,0.092-0.114,0.084c-0.005-0.001-0.011-0.002-0.016-0.004c-0.263-0.065-0.537-0.065-0.8,0h-0.13
			c-0.055,0.005-0.103-0.036-0.108-0.091c-0.001-0.017,0.001-0.034,0.008-0.049c-0.003-0.037-0.003-0.073,0-0.11H167.19z"/>
		<path style="fill:#3F555A;" d="M169.86,118.37c-0.399-0.031-0.801-0.031-1.2,0v0.19c0,0.14-0.05,0.3-0.08,0.44
			c-0.002,0.066-0.057,0.119-0.123,0.117c-0.013,0-0.025-0.003-0.037-0.007c-0.071-0.007-0.123-0.071-0.116-0.143
			c0.001-0.009,0.003-0.018,0.006-0.027l0.07-0.36c0-0.2,0.07-0.4,0.11-0.6l0.1-0.6c0.07-0.48,0.14-1,0.21-1.43s0.14-0.92,0.19-1.38
			s0.07-0.72,0.1-1.08c0-0.141,0.077-0.271,0.2-0.34c0.047-0.047,0.123-0.047,0.17,0c0,0,0,0,0,0c0.039,0.085,0.062,0.177,0.07,0.27
			c-0.006,0.211,0.011,0.422,0.05,0.63c0,0.32,0.07,0.65,0.11,1c0.06,0.52,0.13,1,0.2,1.54l0.18,1.29c0,0.14,0.05,0.29,0.08,0.43
			s0.08,0.38,0.11,0.57c0.004,0.047,0.004,0.093,0,0.14c-0.01,0.068-0.072,0.116-0.14,0.11c-0.067,0.002-0.126-0.045-0.14-0.11
			c0-0.17,0-0.33-0.05-0.49S169.87,118.47,169.86,118.37z M169.25,114.08c0,0.33-0.06,0.59-0.1,0.84s-0.08,0.38-0.11,0.57
			c-0.05,0.35-0.09,0.7-0.14,1s-0.11,0.64-0.14,1c-0.052,0.192-0.072,0.391-0.06,0.59c0.053,0.028,0.111,0.048,0.17,0.06h0.25
			l0.66-0.07v-0.13c0-0.27-0.08-0.55-0.12-0.82s-0.11-0.79-0.17-1.18s-0.08-0.59-0.11-0.88s0-0.53-0.07-0.81
			c-0.013-0.056-0.033-0.109-0.06-0.16V114.08z"/>
		<path style="fill:#3F555A;" d="M101.73,77.28c-0.878-0.034-1.757-0.001-2.63,0.1L99,77.8c-0.07,0.32-0.12,0.65-0.17,1
			c-0.015,0.148-0.148,0.256-0.296,0.241c-0.018-0.002-0.036-0.006-0.054-0.011c-0.153-0.019-0.262-0.159-0.243-0.312
			c0.002-0.02,0.007-0.039,0.013-0.058l0.15-0.78c0.08-0.43,0.15-0.88,0.23-1.31l0.22-1.31c0.15-1,0.32-2.1,0.47-3.13s0.3-2,0.42-3
			c0.1-0.78,0.15-1.58,0.22-2.36c-0.004-0.31,0.161-0.597,0.43-0.75c0.113-0.079,0.269-0.051,0.348,0.062
			c0.008,0.012,0.016,0.025,0.022,0.038c0.083,0.183,0.133,0.38,0.15,0.58c-0.01,0.463,0.031,0.926,0.12,1.38
			c0.1,0.7,0.15,1.41,0.23,2.11c0.13,1.13,0.28,2.25,0.43,3.38l0.4,2.83c0,0.32,0.12,0.63,0.18,0.95s0.17,0.83,0.23,1.25
			c0.008,0.1,0.008,0.2,0,0.3c-0.021,0.148-0.15,0.257-0.3,0.25c-0.147-0.002-0.272-0.106-0.3-0.25c0-0.37-0.08-0.72-0.12-1.08
			C101.78,77.64,101.75,77.49,101.73,77.28z M100.4,67.9c-0.08,0.72-0.13,1.28-0.22,1.85c-0.07,0.42-0.17,0.83-0.23,1.25
			c-0.12,0.77-0.2,1.53-0.3,2.3s-0.23,1.4-0.32,2.1c-0.111,0.417-0.155,0.849-0.13,1.28c0.117,0.061,0.241,0.104,0.37,0.13
			c0.183,0.017,0.367,0.017,0.55,0l1.45-0.15v-0.28c-0.08-0.6-0.18-1.2-0.27-1.8c-0.12-0.87-0.25-1.73-0.37-2.58
			c-0.08-0.65-0.18-1.28-0.25-1.93s-0.08-1.16-0.15-1.76c-0.024-0.139-0.067-0.274-0.13-0.4L100.4,67.9z"/>
		<path style="fill:#3F555A;" d="M116.76,73.45c-0.089,0.018-0.181,0.018-0.27,0c-0.525-0.058-1.055-0.058-1.58,0v0.63
			c0,0.22,0.05,0.43,0.08,0.65c0.007,0.233-0.133,0.445-0.35,0.53c0,0-0.12,0-0.22,0c-0.018-0.089-0.018-0.181,0-0.27
			c0.05-0.499,0.05-1.001,0-1.5h-0.55c-0.306,0.032-0.61,0.083-0.91,0.15c-0.185,0.033-0.362-0.09-0.395-0.275
			c-0.003-0.018-0.005-0.037-0.005-0.055c0.001-0.104,0.059-0.2,0.15-0.25c0.136-0.041,0.278-0.065,0.42-0.07h1.25
			c0-0.22-0.05-0.42-0.07-0.62c-0.042-0.31-0.102-0.617-0.18-0.92c-0.033-0.185,0.09-0.362,0.275-0.395
			c0.018-0.003,0.037-0.005,0.055-0.005c0.101-0.007,0.198,0.043,0.25,0.13c0.037,0.138,0.063,0.278,0.08,0.42l0.08,1.36h0.73
			c0.22,0,0.43,0,0.65,0c0.232-0.013,0.444,0.13,0.52,0.35C116.79,73.28,116.76,73.35,116.76,73.45z"/>
		<path style="fill:#3F555A;" d="M122.3,65.62c0.17,0.1,0.32,0.2,0.48,0.28s0.38,0.23,0.57,0.32c0.584,0.278,0.998,0.822,1.11,1.46
			c0.091,0.505,0.124,1.018,0.1,1.53c0.018,0.601-0.005,1.202-0.07,1.8c-0.08,0.696-0.441,1.328-1,1.75l-0.13,0.13c0,0,0,0,0,0.07
			c0.126,0.095,0.259,0.179,0.4,0.25c0.255,0.121,0.469,0.312,0.62,0.55c0.112,0.135,0.172,0.305,0.17,0.48c0,0.23,0,0.48,0,0.72
			v2.43c0.008,0.278-0.081,0.55-0.25,0.77c-0.092,0.102-0.192,0.196-0.3,0.28c-0.53,0.27-1,0.5-1.56,0.73
			c-0.073,0.034-0.15,0.058-0.23,0.07c-0.08,0-0.12,0-0.15-0.07c-0.48-0.47-0.5-0.47-0.42-1.18c0.085-0.767,0.129-1.538,0.13-2.31
			c-0.008-0.123-0.008-0.247,0-0.37c0.109-1.401,0.142-2.806,0.1-4.21c0-0.72-0.07-1.41-0.08-2.13s0-1.5,0-2.26
			C121.71,66.1,121.73,66.1,122.3,65.62z M122.3,78.56c0.443-0.123,0.871-0.29,1.28-0.5c0.224-0.111,0.381-0.323,0.42-0.57
			c0.018-0.173,0.018-0.347,0-0.52v-1.24c0-0.43,0-0.83,0-1.26c0.016-0.274-0.118-0.534-0.35-0.68
			c-0.273-0.163-0.557-0.307-0.85-0.43c-0.121-0.034-0.249-0.034-0.37,0c0,0,0,0.07,0,0.08c-0.15,1.55-0.13,3.09-0.32,4.62
			c-0.067,0.179-0.01,0.382,0.14,0.5H122.3z M122.53,72.72c0.25-0.17,0.5-0.28,0.73-0.43c0.213-0.143,0.386-0.34,0.5-0.57
			c0.15-0.314,0.241-0.653,0.27-1c0-0.78,0-1.56,0-2.36c0.042-0.511-0.14-1.015-0.5-1.38c-0.307-0.247-0.643-0.455-1-0.62
			c-0.116,0.185-0.169,0.403-0.15,0.62c0,1.06,0,2.13,0,3.19c0.06,0.665,0.06,1.335,0,2c-0.042,0.189-0.006,0.388,0.1,0.55H122.53z"
			/>
		<path style="fill:#3F555A;" d="M140.38,73.45c-0.089,0.018-0.181,0.018-0.27,0c-0.867-0.1-1.743-0.1-2.61,0
			c-0.309,0.032-0.617,0.082-0.92,0.15c-0.185,0.033-0.362-0.09-0.395-0.275c-0.003-0.018-0.005-0.037-0.005-0.055
			c0.001-0.104,0.059-0.2,0.15-0.25c0.136-0.041,0.278-0.065,0.42-0.07l2.48-0.08c0.22,0,0.43,0,0.65,0
			c0.232-0.013,0.444,0.13,0.52,0.35C140.42,73.28,140.38,73.35,140.38,73.45z M140.38,75.95c-0.088,0.026-0.182,0.026-0.27,0
			c-0.863-0.13-1.738-0.171-2.61-0.12c-0.312,0.017-0.622,0.05-0.93,0.1c-0.168,0.035-0.332-0.072-0.367-0.24
			c-0.008-0.036-0.009-0.074-0.003-0.11c-0.003-0.101,0.057-0.192,0.15-0.23c0.139-0.017,0.281-0.017,0.42,0h2.5h0.65
			c0.227-0.006,0.428,0.148,0.48,0.37c0,0,0,0.13,0,0.23H140.38z"/>
		<path style="fill:#3F555A;" d="M145.71,76.23c0-0.32,0-0.62,0-0.93c0-0.85,0-1.68,0-2.5s0-1.35,0-2s0-1.25,0-1.88
			c0-0.35,0-0.73,0-1.13c0-0.22,0.07-0.43,0.08-0.67c0.041-0.487,0.312-0.926,0.73-1.18c0.379-0.271,0.855-0.369,1.31-0.27
			c0.196,0.056,0.371,0.171,0.5,0.33c0.24,0.269,0.406,0.597,0.48,0.95c0.042,0.352,0.058,0.706,0.05,1.06
			c0.022,0.131-0.066,0.255-0.197,0.277c-0.011,0.002-0.022,0.003-0.033,0.003c-0.148,0.017-0.282-0.089-0.299-0.238
			c0-0.004-0.001-0.008-0.001-0.012c0-0.23,0-0.43,0-0.63c-0.003-0.386-0.175-0.751-0.47-1c-0.279-0.219-0.671-0.219-0.95,0
			c-0.105,0.077-0.205,0.161-0.3,0.25c-0.138,0.121-0.227,0.288-0.25,0.47c-0.092,0.464-0.125,0.938-0.1,1.41
			c0.033,0.536,0.033,1.074,0,1.61c0,0.62,0,1.21-0.07,1.81c-0.058,1.109-0.058,2.221,0,3.33c0,0.48,0,0.95,0,1.43
			c-0.019,0.223-0.019,0.447,0,0.67c0.005,0.575,0.381,1.08,0.93,1.25c0.186,0.065,0.384,0.089,0.58,0.07
			c0.32-0.056,0.569-0.309,0.62-0.63c0.046-0.254,0.073-0.512,0.08-0.77c0-0.37,0.07-0.77,0.1-1.18c0-0.22,0.17-0.33,0.32-0.3
			c0.187,0.015,0.327,0.179,0.311,0.366c-0.002,0.021-0.006,0.043-0.011,0.064c-0.118,0.479-0.195,0.968-0.23,1.46
			c-0.05,0.18-0.05,0.37-0.1,0.55c-0.108,0.542-0.56,0.949-1.11,1c-0.6,0.04-1.181-0.213-1.56-0.68
			c-0.286-0.294-0.441-0.69-0.43-1.1c0-0.42,0-0.85,0-1.26L145.71,76.23z"/>
		<path style="fill:#3F555A;" d="M151.71,71.34c0.083,0.079,0.198,0.112,0.31,0.09h0.66c0.18,0,0.35,0,0.53-0.07
			c0.103-0.015,0.207-0.015,0.31,0c0,0,0.1,0.08,0.11,0.12c0.001,0.058-0.025,0.113-0.07,0.15c-0.083,0.04-0.17,0.07-0.26,0.09
			c-0.269,0.038-0.539,0.061-0.81,0.07c-0.335,0.008-0.67,0.041-1,0.1h-0.11c-0.082-0.01-0.146-0.077-0.15-0.16
			c-0.013-0.066-0.013-0.134,0-0.2c0.1-0.22,0.2-0.44,0.3-0.67s0.11-0.18,0.14-0.28c0.13-0.33,0.26-0.65,0.38-1s0.28-0.85,0.39-1.27
			c0.091-0.316,0.202-0.627,0.33-0.93c0.069-0.159,0.126-0.322,0.17-0.49c0.06-0.23,0.13-0.45,0.21-0.67
			c0.132-0.318,0.206-0.656,0.22-1c0.011-0.233-0.059-0.463-0.2-0.65c-0.112-0.141-0.296-0.203-0.47-0.16
			c-0.417,0.069-0.745,0.394-0.82,0.81c0,0.18,0,0.37-0.07,0.56c-0.005,0.073-0.066,0.13-0.14,0.13
			c-0.083,0.001-0.155-0.058-0.17-0.14c0,0,0,0,0-0.07c0.032-0.282,0.079-0.563,0.14-0.84c0.04-0.094,0.094-0.182,0.16-0.26
			c0.19-0.254,0.468-0.429,0.78-0.49c0.412-0.112,0.842,0.103,1,0.5c0.079,0.183,0.119,0.381,0.12,0.58
			c-0.009,0.341-0.073,0.679-0.19,1c-0.21,0.61-0.38,1.23-0.63,1.83c-0.16,0.41-0.27,0.85-0.4,1.27
			c-0.065,0.224-0.142,0.444-0.23,0.66c-0.06,0.18-0.13,0.36-0.2,0.53l-0.29,0.67C151.77,71.15,151.74,71.28,151.71,71.34z"/>
		<path style="fill:#3F555A;" d="M127.05,71.34c0.083,0.079,0.198,0.112,0.31,0.09h0.66c0.18,0,0.35,0,0.53-0.07
			c0.103-0.015,0.207-0.015,0.31,0c0,0,0.1,0.08,0.11,0.12c0.001,0.058-0.025,0.113-0.07,0.15c-0.083,0.04-0.17,0.07-0.26,0.09
			c-0.269,0.038-0.539,0.061-0.81,0.07c-0.335,0.008-0.67,0.041-1,0.1h-0.11c-0.082-0.01-0.146-0.077-0.15-0.16
			c-0.013-0.066-0.013-0.134,0-0.2c0.1-0.22,0.2-0.44,0.3-0.67s0.11-0.18,0.14-0.28c0.13-0.33,0.26-0.65,0.38-1s0.28-0.85,0.39-1.27
			c0.091-0.316,0.202-0.627,0.33-0.93c0.069-0.159,0.126-0.322,0.17-0.49c0.06-0.23,0.13-0.45,0.21-0.67
			c0.132-0.318,0.206-0.656,0.22-1c0.011-0.233-0.059-0.463-0.2-0.65c-0.112-0.141-0.296-0.203-0.47-0.16
			c-0.417,0.069-0.745,0.394-0.82,0.81c0,0.18,0,0.37-0.07,0.56c-0.005,0.073-0.066,0.13-0.14,0.13
			c-0.083,0.001-0.155-0.058-0.17-0.14c0,0,0,0,0-0.07c0.032-0.282,0.079-0.563,0.14-0.84c0.04-0.094,0.094-0.182,0.16-0.26
			c0.19-0.254,0.468-0.429,0.78-0.49c0.412-0.112,0.842,0.103,1,0.5c0.079,0.183,0.119,0.381,0.12,0.58
			c-0.009,0.341-0.073,0.679-0.19,1c-0.21,0.61-0.38,1.23-0.63,1.83c-0.16,0.41-0.27,0.85-0.4,1.27
			c-0.065,0.224-0.142,0.444-0.23,0.66c-0.06,0.18-0.13,0.36-0.2,0.53l-0.29,0.67C127.12,71.15,127.09,71.28,127.05,71.34z"/>
		<path style="fill:#3F555A;" d="M104.34,71.34c0.083,0.079,0.198,0.112,0.31,0.09h0.66c0.18,0,0.35,0,0.53-0.07
			c0.103-0.015,0.207-0.015,0.31,0c0,0,0.1,0.08,0.11,0.12c0.001,0.058-0.025,0.113-0.07,0.15c-0.083,0.04-0.17,0.07-0.26,0.09
			c-0.269,0.038-0.539,0.061-0.81,0.07c-0.335,0.008-0.67,0.041-1,0.1h-0.11c-0.082-0.01-0.146-0.077-0.15-0.16
			c-0.013-0.066-0.013-0.134,0-0.2c0.1-0.22,0.2-0.44,0.3-0.67s0.11-0.18,0.14-0.28c0.13-0.33,0.26-0.65,0.38-1s0.28-0.85,0.39-1.27
			c0.091-0.316,0.202-0.627,0.33-0.93c0.069-0.159,0.126-0.322,0.17-0.49c0.06-0.23,0.13-0.45,0.21-0.67
			c0.132-0.318,0.206-0.656,0.22-1c0.011-0.233-0.059-0.463-0.2-0.65c-0.112-0.141-0.296-0.203-0.47-0.16
			c-0.417,0.069-0.745,0.394-0.82,0.81c0,0.18,0,0.37-0.07,0.56c-0.005,0.073-0.066,0.13-0.14,0.13
			c-0.083,0.001-0.155-0.058-0.17-0.14c0,0,0,0,0-0.07c0.032-0.282,0.079-0.563,0.14-0.84c0.04-0.094,0.094-0.182,0.16-0.26
			c0.19-0.254,0.468-0.429,0.78-0.49c0.412-0.112,0.842,0.103,1,0.5c0.079,0.183,0.119,0.381,0.12,0.58
			c-0.009,0.341-0.073,0.679-0.19,1c-0.21,0.61-0.38,1.23-0.63,1.83c-0.16,0.41-0.27,0.85-0.4,1.27
			c-0.065,0.224-0.142,0.444-0.23,0.66c-0.06,0.18-0.13,0.36-0.2,0.53l-0.29,0.67C104.41,71.15,104.38,71.28,104.34,71.34z"/>
		<path style="fill:#3F555A;" d="M63.48,45.88l0.32,0.19c0.13,0.08,0.26,0.16,0.38,0.21c0.396,0.193,0.675,0.565,0.75,1
			c0.056,0.33,0.076,0.665,0.06,1c0.028,0.403,0.028,0.807,0,1.21c-0.05,0.467-0.288,0.893-0.66,1.18l-0.09,0.09l0,0
			c0.085,0.065,0.175,0.122,0.27,0.17c0.169,0.082,0.311,0.211,0.41,0.37c0.073,0.091,0.112,0.204,0.11,0.32c0,0.16,0,0.32,0,0.48
			v1.64c0.005,0.188-0.055,0.372-0.17,0.52c-0.061,0.069-0.128,0.133-0.2,0.19c-0.36,0.18-0.69,0.34-1.05,0.49
			c-0.053,0.008-0.107,0.008-0.16,0c-0.06,0-0.08,0-0.1,0c-0.33-0.31-0.34-0.31-0.28-0.8c0.059-0.518,0.089-1.039,0.09-1.56
			c-0.005-0.083-0.005-0.167,0-0.25c0.074-0.941,0.097-1.886,0.07-2.83c0-0.48,0-1-0.06-1.43s0-1,0-1.52S63.1,46.2,63.48,45.88z
			 M63.48,54.6c0.297-0.084,0.586-0.198,0.86-0.34c0.149-0.075,0.253-0.216,0.28-0.38c0.012-0.116,0.012-0.234,0-0.35v-0.84
			c0-0.29,0-0.56,0-0.85c0.012-0.186-0.08-0.363-0.24-0.46c-0.183-0.11-0.374-0.207-0.57-0.29c-0.082-0.023-0.168-0.023-0.25,0
			c0,0,0,0,0,0.06c-0.1,1-0.09,2.08-0.21,3.12c-0.035,0.117,0.005,0.244,0.1,0.32L63.48,54.6z M63.64,50.67
			c0.17-0.11,0.34-0.19,0.49-0.29c0.144-0.095,0.261-0.226,0.34-0.38c0.105-0.223,0.166-0.464,0.18-0.71c0-0.53,0-1.05,0-1.59
			c0.027-0.345-0.097-0.684-0.34-0.93c-0.212-0.165-0.444-0.302-0.69-0.41c-0.079,0.121-0.114,0.266-0.1,0.41c0,0.72,0,1.43,0,2.15
			c0.039,0.439,0.039,0.881,0,1.32c-0.041,0.145-0.011,0.3,0.08,0.42L63.64,50.67z"/>
		<path style="fill:#3F555A;" d="M66.36,53.02c0-0.21,0-0.41,0-0.63c0-0.57,0-1.13,0-1.68s0-0.91,0-1.36s0-0.84,0-1.27
			c0-0.24,0-0.49,0-0.76s0-0.29,0.06-0.45c0.02-0.331,0.204-0.631,0.49-0.8c0.258-0.183,0.581-0.248,0.89-0.18
			c0.134,0.035,0.253,0.112,0.34,0.22c0.161,0.181,0.271,0.402,0.32,0.64c0.017,0.24,0.017,0.48,0,0.72
			c0.017,0.087-0.04,0.171-0.127,0.187c-0.011,0.002-0.022,0.003-0.033,0.003c-0.099,0.011-0.188-0.06-0.199-0.159
			c0-0.004-0.001-0.008-0.001-0.011c0-0.16,0-0.29,0-0.43c-0.001-0.258-0.115-0.502-0.31-0.67c-0.188-0.147-0.452-0.147-0.64,0
			c-0.07,0.053-0.137,0.109-0.2,0.17c-0.092,0.08-0.152,0.19-0.17,0.31c-0.067,0.329-0.091,0.665-0.07,1
			c0.023,0.363,0.023,0.727,0,1.09c0,0.41,0,0.82,0,1.22c-0.039,0.746-0.039,1.494,0,2.24c0,0.32,0,0.64,0,1
			c-0.013,0.15-0.013,0.3,0,0.45c0.005,0.387,0.26,0.727,0.63,0.84c0.128,0.028,0.262,0.028,0.39,0
			c0.215-0.041,0.38-0.214,0.41-0.43c0.033-0.172,0.053-0.345,0.06-0.52c0-0.25,0-0.52,0.07-0.8s0.11-0.22,0.21-0.2
			c0.126,0.012,0.219,0.124,0.207,0.251c-0.001,0.013-0.004,0.026-0.007,0.039c-0.082,0.328-0.136,0.663-0.16,1
			c0,0.12,0,0.25-0.07,0.37c-0.07,0.369-0.376,0.646-0.75,0.68c-0.404,0.026-0.795-0.146-1.05-0.46
			c-0.195-0.196-0.3-0.464-0.29-0.74c0-0.28,0-0.57,0-0.85L66.36,53.02z"/>
		<path style="fill:#3F555A;" d="M75.77,51.15c-0.059,0.012-0.121,0.012-0.18,0c-0.352-0.038-0.708-0.038-1.06,0v0.43
			c0,0.15,0,0.29,0.06,0.44c0.006,0.159-0.091,0.304-0.24,0.36c0,0-0.08,0-0.15,0c-0.012-0.059-0.012-0.121,0-0.18
			c0.033-0.333,0.033-0.667,0-1h-0.37c-0.208,0.021-0.415,0.055-0.62,0.1c-0.125,0.022-0.244-0.061-0.267-0.186
			c-0.002-0.011-0.003-0.022-0.003-0.034c-0.001-0.071,0.038-0.136,0.1-0.17c0.093-0.012,0.187-0.012,0.28,0h0.84
			c0-0.15,0-0.28,0-0.41c-0.028-0.209-0.068-0.416-0.12-0.62c-0.022-0.125,0.061-0.244,0.186-0.267
			c0.011-0.002,0.022-0.003,0.034-0.003c0.069-0.003,0.134,0.031,0.17,0.09c0.026,0.092,0.046,0.185,0.06,0.28l0.06,0.92h0.49
			c0.15,0,0.29,0,0.44,0c0.157-0.008,0.301,0.09,0.35,0.24C75.83,51.14,75.77,51.09,75.77,51.15z"/>
		<path style="fill:#3F555A;" d="M78.76,53.74c-0.591-0.022-1.183,0.001-1.77,0.07l-0.07,0.28c0,0.21-0.08,0.44-0.11,0.65
			c-0.005,0.099-0.09,0.175-0.189,0.17c-0.017-0.001-0.034-0.004-0.051-0.01c-0.104-0.011-0.18-0.105-0.169-0.209
			c0.001-0.014,0.005-0.028,0.009-0.041l0.1-0.53c0.06-0.29,0.1-0.59,0.16-0.88l0.15-0.89c0.1-0.71,0.21-1.41,0.31-2.11
			s0.2-1.36,0.28-2s0.1-1.06,0.15-1.59c-0.001-0.207,0.11-0.398,0.29-0.5c0.078-0.053,0.183-0.032,0.236,0.045
			c0.005,0.008,0.01,0.016,0.014,0.025c0.055,0.123,0.089,0.255,0.1,0.39c-0.007,0.312,0.02,0.624,0.08,0.93
			c0.07,0.47,0.1,1,0.16,1.42c0.09,0.76,0.19,1.51,0.29,2.27l0.27,1.9c0,0.21,0.08,0.43,0.12,0.64s0.11,0.56,0.16,0.84
			c0.005,0.067,0.005,0.133,0,0.2c-0.011,0.101-0.099,0.176-0.2,0.17c-0.098-0.003-0.181-0.074-0.2-0.17c0-0.25-0.06-0.48-0.08-0.73
			C78.8,53.98,78.78,53.88,78.76,53.74z M77.86,47.42c-0.06,0.48-0.09,0.86-0.15,1.24s-0.11,0.56-0.16,0.84
			c-0.08,0.52-0.13,1-0.2,1.55s-0.16,0.94-0.21,1.41c-0.076,0.28-0.106,0.57-0.09,0.86c0.079,0.042,0.163,0.072,0.25,0.09
			c0.123,0.011,0.247,0.011,0.37,0l1-0.1v-0.19c-0.06-0.4-0.12-0.81-0.18-1.21c-0.08-0.58-0.17-1.17-0.25-1.74s-0.12-0.86-0.17-1.3
			s-0.08-0.79-0.08-1.19c-0.027-0.092-0.068-0.18-0.12-0.26H77.86z"/>
		<path style="fill:#3F555A;" d="M79.99,53.02c0-0.21,0-0.41,0-0.63c0-0.57,0-1.13,0-1.68s0-0.91,0-1.36s0-0.84,0-1.27
			c0-0.24,0-0.49,0-0.76s0-0.29,0.06-0.45c0.02-0.331,0.204-0.631,0.49-0.8c0.258-0.183,0.581-0.248,0.89-0.18
			c0.134,0.035,0.253,0.112,0.34,0.22c0.161,0.182,0.271,0.402,0.32,0.64c0.017,0.24,0.017,0.48,0,0.72
			c0.017,0.087-0.04,0.171-0.127,0.187c-0.011,0.002-0.022,0.003-0.033,0.003c-0.099,0.011-0.188-0.06-0.199-0.159
			c0-0.004-0.001-0.008-0.001-0.011c0-0.16,0-0.29,0-0.43c-0.001-0.258-0.115-0.502-0.31-0.67c-0.188-0.147-0.452-0.147-0.64,0
			c-0.07,0.053-0.137,0.109-0.2,0.17c-0.092,0.08-0.152,0.19-0.17,0.31c-0.067,0.329-0.09,0.665-0.07,1
			c0.022,0.363,0.022,0.727,0,1.09c0,0.41,0,0.82,0,1.22c-0.039,0.746-0.039,1.494,0,2.24c0,0.32,0,0.64,0,1
			c-0.012,0.15-0.012,0.3,0,0.45c0.005,0.387,0.26,0.727,0.63,0.84c0.129,0.028,0.261,0.028,0.39,0
			c0.215-0.041,0.38-0.214,0.41-0.43c0.033-0.172,0.053-0.345,0.06-0.52c0-0.25,0-0.52,0.07-0.8s0.11-0.22,0.21-0.2
			c0.126,0.012,0.219,0.124,0.207,0.251c-0.001,0.013-0.004,0.026-0.007,0.039c-0.082,0.328-0.136,0.663-0.16,1
			c0,0.12,0,0.25-0.07,0.37c-0.07,0.369-0.376,0.646-0.75,0.68c-0.404,0.026-0.795-0.146-1.05-0.46
			c-0.2-0.201-0.305-0.477-0.29-0.76c0-0.28,0-0.57,0-0.85V53.02z"/>
		<path style="fill:#3F555A;" d="M89.78,51.15c-0.059,0.012-0.121,0.012-0.18,0c-0.585-0.067-1.175-0.067-1.76,0
			c-0.208,0.021-0.415,0.055-0.62,0.1c-0.125,0.022-0.244-0.061-0.267-0.186c-0.002-0.011-0.003-0.022-0.003-0.034
			c-0.001-0.071,0.038-0.136,0.1-0.17c0.093-0.012,0.187-0.012,0.28,0l1.66-0.05c0.15,0,0.29,0,0.44,0
			c0.157-0.008,0.301,0.09,0.35,0.24C89.78,51.05,89.78,51.09,89.78,51.15z M89.78,52.83c-0.059,0.017-0.121,0.017-0.18,0
			c-0.582-0.087-1.172-0.114-1.76-0.08c-0.211,0.012-0.421,0.036-0.63,0.07c-0.114,0.024-0.225-0.049-0.248-0.163
			c-0.005-0.025-0.006-0.052-0.002-0.077c-0.005-0.069,0.035-0.134,0.1-0.16c0.093-0.012,0.187-0.012,0.28,0h1.68h0.44
			c0.153-0.004,0.287,0.101,0.32,0.25c0,0,0.01,0.1,0.01,0.16H89.78z"/>
		<path style="fill:#3F555A;" d="M92.88,53.74c-0.591-0.022-1.183,0.001-1.77,0.07l-0.07,0.28c0,0.21-0.08,0.44-0.11,0.65
			c-0.005,0.099-0.09,0.175-0.189,0.17c-0.017-0.001-0.034-0.004-0.051-0.01c-0.104-0.011-0.18-0.105-0.169-0.209
			c0.001-0.014,0.005-0.028,0.009-0.041l0.1-0.53c0.06-0.29,0.1-0.59,0.16-0.88l0.15-0.89c0.1-0.71,0.21-1.41,0.31-2.11
			s0.2-1.36,0.28-2s0.1-1.06,0.15-1.59c0.001-0.206,0.111-0.397,0.29-0.5c0.078-0.053,0.183-0.032,0.236,0.045
			c0.005,0.008,0.01,0.016,0.014,0.025c0.055,0.123,0.089,0.255,0.1,0.39c-0.007,0.312,0.02,0.624,0.08,0.93
			c0.07,0.47,0.1,1,0.16,1.42c0.09,0.76,0.19,1.51,0.29,2.27l0.27,1.9c0,0.21,0.08,0.43,0.12,0.64s0.11,0.56,0.16,0.84
			c0.005,0.067,0.005,0.133,0,0.2c-0.011,0.101-0.099,0.176-0.2,0.17c-0.1,0.001-0.185-0.071-0.2-0.17c0-0.25-0.06-0.48-0.08-0.73
			C92.92,53.98,92.89,53.88,92.88,53.74z M91.99,47.42c-0.06,0.48-0.09,0.86-0.15,1.24s-0.11,0.56-0.16,0.84
			c-0.08,0.52-0.13,1-0.2,1.55s-0.16,0.94-0.21,1.41c-0.076,0.28-0.106,0.57-0.09,0.86c0.079,0.042,0.163,0.072,0.25,0.09
			c0.123,0.011,0.247,0.011,0.37,0l1-0.1v-0.19c-0.06-0.4-0.12-0.81-0.18-1.21c-0.08-0.58-0.17-1.17-0.25-1.74s-0.12-0.86-0.17-1.3
			s-0.06-0.78-0.1-1.19C92.076,47.589,92.039,47.501,91.99,47.42z"/>
		<path style="fill:#3F555A;" d="M94.74,45.88l0.32,0.19c0.13,0.08,0.26,0.16,0.38,0.21c0.396,0.193,0.675,0.565,0.75,1
			c0.06,0.33,0.083,0.665,0.07,1c0.028,0.403,0.028,0.807,0,1.21c-0.05,0.467-0.288,0.893-0.66,1.18l-0.09,0.09l0,0
			c0.085,0.065,0.175,0.122,0.27,0.17c0.169,0.082,0.311,0.211,0.41,0.37c0.073,0.091,0.112,0.204,0.11,0.32c0,0.16,0,0.32,0,0.48
			v1.64c0.005,0.188-0.055,0.372-0.17,0.52c-0.061,0.069-0.128,0.133-0.2,0.19c-0.36,0.18-0.69,0.34-1.05,0.49
			c-0.053,0.008-0.107,0.008-0.16,0c-0.06,0-0.08,0-0.1,0c-0.33-0.31-0.34-0.31-0.28-0.8c0.059-0.518,0.089-1.039,0.09-1.56
			c-0.005-0.083-0.005-0.167,0-0.25c0.074-0.941,0.097-1.886,0.07-2.83c0-0.48,0-1-0.06-1.43s0-1,0-1.52S94.36,46.2,94.74,45.88z
			 M94.74,54.6c0.297-0.084,0.586-0.198,0.86-0.34c0.149-0.075,0.253-0.216,0.28-0.38c0.012-0.116,0.012-0.234,0-0.35v-0.84
			c0-0.29,0-0.56,0-0.85c0.012-0.186-0.08-0.363-0.24-0.46c-0.183-0.11-0.374-0.207-0.57-0.29c-0.082-0.023-0.168-0.023-0.25,0
			c0,0,0,0,0,0.06c-0.1,1-0.09,2.08-0.21,3.12c-0.035,0.117,0.005,0.244,0.1,0.32L94.74,54.6z M94.9,50.67
			c0.17-0.11,0.34-0.19,0.49-0.29c0.144-0.095,0.261-0.226,0.34-0.38c0.105-0.223,0.166-0.464,0.18-0.71c0-0.53,0-1.05,0-1.59
			c0.027-0.345-0.097-0.684-0.34-0.93c-0.212-0.165-0.444-0.302-0.69-0.41c-0.079,0.121-0.114,0.266-0.1,0.41c0,0.72,0,1.43,0,2.15
			c0.039,0.439,0.039,0.881,0,1.32c-0.038,0.146-0.004,0.302,0.09,0.42L94.9,50.67z"/>
		<path style="fill:#3F555A;" d="M100.67,48.53l-0.64,2c0,0.1-0.06,0.19-0.09,0.28s0,0.08,0,0.13l0,0c0,0,0,0.08,0,0.12
			c0.063,0.184,0.116,0.371,0.16,0.56c0.036,0.137,0.083,0.271,0.14,0.4v0.12c0.08,0.19,0.15,0.41,0.23,0.61s0.18,0.48,0.27,0.73
			c0.017,0.042,0.017,0.088,0,0.13c0,0.06,0,0.09-0.08,0.09c-0.025,0.013-0.055,0.013-0.08,0c0.002-0.037,0.002-0.073,0-0.11
			c0-0.1-0.07-0.21-0.1-0.3c-0.1-0.26-0.21-0.51-0.29-0.77s-0.15-0.41-0.21-0.63l-0.08-0.26c-0.022-0.081-0.049-0.161-0.08-0.24
			c0,0,0-0.06,0-0.08l0,0l0,0l0,0c-0.09,0.26-0.17,0.51-0.25,0.75l-0.06,0.19c-0.07,0.2-0.14,0.42-0.2,0.63s-0.09,0.3-0.13,0.49
			c-0.021,0.158-0.079,0.309-0.17,0.44l0,0c-0.08-0.06-0.12-0.09-0.12-0.14c-0.016-0.038-0.016-0.082,0-0.12
			c0.037-0.09,0.064-0.184,0.08-0.28c0-0.06,0-0.12,0-0.18c0.006-0.05,0.006-0.1,0-0.15l0.15-0.45c0.07-0.19,0.15-0.39,0.21-0.59
			s0.1-0.29,0.15-0.44s0.06-0.19,0.1-0.28l0.06-0.17c-0.001-0.027-0.001-0.053,0-0.08v-0.09l-0.09-0.26l0,0c0-0.07,0-0.15-0.07-0.23
			c-0.14-0.58-0.33-1.12-0.47-1.54c0-0.12-0.09-0.26-0.13-0.39v-0.14c-0.003-0.027-0.003-0.053,0-0.08
			c-0.006-0.048,0.017-0.096,0.06-0.12l0,0c0.019-0.008,0.041-0.008,0.06,0c0.029,0.035,0.049,0.076,0.06,0.12
			c0.06,0.27,0.15,0.53,0.24,0.77l0.16,0.5l0.19,0.64c0,0.11,0.06,0.22,0.09,0.34l0,0c0,0,0,0.1,0.06,0.12l0,0
			c0.023-0.049,0.043-0.099,0.06-0.15c0-0.11,0.07-0.22,0.1-0.32s0-0.17,0.08-0.26c0.14-0.44,0.27-0.88,0.4-1.31l0,0v-0.08
			c0.025-0.088,0.055-0.175,0.09-0.26c0.015-0.048,0.052-0.085,0.1-0.1l0,0c0,0,0,0,0.07,0c0.015,0.032,0.015,0.068,0,0.1
			c0.004,0.03,0.004,0.06,0,0.09l0,0L100.67,48.53z"/>
		<path style="fill:#3F555A;" d="M104.46,45.88l0.32,0.19c0.13,0.08,0.26,0.16,0.38,0.21c0.396,0.193,0.675,0.565,0.75,1
			c0.06,0.33,0.083,0.665,0.07,1c0.028,0.403,0.028,0.807,0,1.21c-0.05,0.467-0.288,0.893-0.66,1.18l-0.09,0.09l0,0
			c0.085,0.065,0.175,0.122,0.27,0.17c0.169,0.082,0.311,0.211,0.41,0.37c0.073,0.091,0.112,0.204,0.11,0.32c0,0.16,0,0.32,0,0.48
			v1.64c0.005,0.188-0.055,0.372-0.17,0.52c-0.061,0.069-0.128,0.133-0.2,0.19c-0.36,0.18-0.69,0.34-1.05,0.49
			c-0.053,0.008-0.107,0.008-0.16,0c-0.06,0-0.08,0-0.1,0c-0.33-0.31-0.34-0.31-0.28-0.8c0.059-0.518,0.089-1.039,0.09-1.56
			c-0.005-0.083-0.005-0.167,0-0.25c0.074-0.941,0.097-1.886,0.07-2.83c0-0.48,0-1-0.06-1.43s0-1,0-1.52S104.08,46.2,104.46,45.88z
			 M104.46,54.6c0.297-0.084,0.586-0.198,0.86-0.34c0.149-0.075,0.253-0.216,0.28-0.38c0.012-0.116,0.012-0.234,0-0.35v-0.84
			c0-0.29,0-0.56,0-0.85c0.012-0.186-0.08-0.363-0.24-0.46c-0.183-0.11-0.374-0.207-0.57-0.29c-0.082-0.023-0.168-0.023-0.25,0
			c0,0,0,0,0,0.06c-0.1,1-0.09,2.08-0.21,3.12c-0.035,0.117,0.005,0.244,0.1,0.32L104.46,54.6z M104.62,50.67
			c0.17-0.11,0.34-0.19,0.49-0.29c0.144-0.095,0.261-0.226,0.34-0.38c0.105-0.223,0.166-0.464,0.18-0.71c0-0.53,0-1.05,0-1.59
			c0.027-0.345-0.097-0.684-0.34-0.93c-0.212-0.165-0.444-0.302-0.69-0.41c-0.079,0.121-0.114,0.266-0.1,0.41c0,0.72,0,1.43,0,2.15
			c0.039,0.439,0.039,0.881,0,1.32c-0.038,0.146-0.004,0.302,0.09,0.42L104.62,50.67z"/>
		<path style="fill:#3F555A;" d="M109.66,53.34c-0.579-0.143-1.182-0.164-1.77-0.06c-0.062,0.184-0.096,0.376-0.1,0.57
			c0,0.28,0,0.55,0,0.82c-0.002,0.083-0.022,0.165-0.06,0.24c-0.035,0.048-0.091,0.074-0.15,0.07c0,0-0.09-0.06-0.1-0.09
			c-0.018-0.109-0.018-0.221,0-0.33c0-0.32,0-0.65,0.09-1c0.055-0.445,0.055-0.895,0-1.34c-0.046-0.332-0.046-0.668,0-1
			c0-0.2,0-0.4,0-0.6c0-0.47,0-0.93,0-1.4s0-0.71,0-1.06v-0.53c0-0.29,0-0.58,0-0.86s-0.07-0.52-0.09-0.77s0-0.18,0.11-0.2
			c0.077-0.031,0.164,0.007,0.195,0.084c0.002,0.005,0.004,0.01,0.005,0.016c0.011,0.08,0.011,0.16,0,0.24c0,0.27,0,0.53,0,0.78
			v1.88c0,0.77,0,1.53,0,2.3c0,0.58,0.06,1.14,0,1.69c0.092,0.098,0.231,0.136,0.36,0.1c0.389-0.04,0.781-0.04,1.17,0
			c0.135,0.004,0.263-0.06,0.34-0.17v-0.67c0-1.1,0-2.21,0.07-3.32c0-0.34,0-0.68,0-1s0-1,0-1.42c0-0.1,0-0.19,0-0.28
			s0-0.24,0.13-0.25c0.087-0.017,0.171,0.04,0.187,0.127c0.001,0.008,0.002,0.015,0.003,0.023c0.012,0.12,0.012,0.24,0,0.36
			c0,0.39,0,0.8,0,1.19c0,0.56,0,1.12,0,1.68c-0.06,0.91,0,1.8,0,2.71c0,0.22,0,0.46,0,0.69c0,0.71,0,1.41,0,2.13
			c0.006,0.083,0.006,0.167,0,0.25c-0.01,0.099-0.098,0.171-0.197,0.162c-0.005,0-0.009-0.001-0.013-0.002
			c-0.08-0.02-0.129-0.1-0.11-0.18c0-0.24,0-0.46,0-0.69C109.735,53.932,109.711,53.634,109.66,53.34z"/>
		<path style="fill:#3F555A;" d="M114.06,51.15c-0.059,0.012-0.121,0.012-0.18,0c-0.352-0.038-0.708-0.038-1.06,0v0.43
			c0,0.15,0,0.29,0.06,0.44c0.006,0.159-0.091,0.304-0.24,0.36c0,0-0.08,0-0.15,0c-0.012-0.059-0.012-0.121,0-0.18
			c0.033-0.333,0.033-0.667,0-1h-0.37c-0.208,0.021-0.415,0.055-0.62,0.1c-0.125,0.022-0.244-0.061-0.267-0.186
			c-0.002-0.011-0.003-0.022-0.003-0.034c-0.001-0.071,0.038-0.136,0.1-0.17c0.093-0.012,0.187-0.012,0.28,0h0.84
			c0-0.15,0-0.28,0-0.41c-0.028-0.209-0.068-0.416-0.12-0.62c-0.022-0.125,0.061-0.244,0.186-0.267
			c0.011-0.002,0.022-0.003,0.034-0.003c0.069-0.003,0.134,0.031,0.17,0.09c0.026,0.092,0.046,0.185,0.06,0.28l0.06,0.92h0.49
			c0.15,0,0.29,0,0.44,0c0.157-0.008,0.301,0.09,0.35,0.24C114.12,51.14,114.06,51.09,114.06,51.15z"/>
		<path style="fill:#3F555A;" d="M117.05,53.74c-0.591-0.022-1.183,0.001-1.77,0.07l-0.07,0.28c0,0.21-0.08,0.44-0.11,0.65
			c-0.005,0.099-0.09,0.175-0.189,0.17c-0.017-0.001-0.034-0.004-0.051-0.01c-0.104-0.011-0.18-0.105-0.169-0.209
			c0.001-0.014,0.005-0.028,0.009-0.041l0.1-0.53c0.06-0.29,0.1-0.59,0.16-0.88l0.15-0.89c0.1-0.71,0.21-1.41,0.31-2.11
			s0.2-1.36,0.28-2s0.1-1.06,0.15-1.59c-0.001-0.207,0.11-0.398,0.29-0.5c0.078-0.053,0.183-0.032,0.236,0.045
			c0.005,0.008,0.01,0.016,0.014,0.025c0.055,0.123,0.089,0.255,0.1,0.39c-0.007,0.312,0.02,0.624,0.08,0.93
			c0.07,0.47,0.1,1,0.16,1.42c0.09,0.76,0.19,1.51,0.29,2.27l0.27,1.9c0,0.21,0.08,0.43,0.12,0.64s0.11,0.56,0.16,0.84
			c0.005,0.067,0.005,0.133,0,0.2c-0.011,0.101-0.099,0.176-0.2,0.17c-0.098-0.003-0.181-0.074-0.2-0.17c0-0.25-0.06-0.48-0.08-0.73
			C117.08,53.98,117.06,53.88,117.05,53.74z M116.15,47.42c-0.06,0.48-0.09,0.86-0.15,1.24s-0.11,0.56-0.16,0.84
			c-0.08,0.52-0.13,1-0.2,1.55s-0.16,0.94-0.21,1.41c-0.076,0.28-0.106,0.57-0.09,0.86c0.079,0.042,0.163,0.072,0.25,0.09
			c0.123,0.011,0.247,0.011,0.37,0l1-0.1v-0.19c-0.06-0.4-0.12-0.81-0.18-1.21c-0.08-0.58-0.17-1.17-0.25-1.74s-0.12-0.86-0.17-1.3
			s-0.06-0.78-0.1-1.19C116.236,47.589,116.199,47.501,116.15,47.42z"/>
		<path style="fill:#3F555A;" d="M118.91,45.88c0.11,0.07,0.21,0.13,0.32,0.19s0.26,0.16,0.38,0.21c0.396,0.193,0.675,0.565,0.75,1
			c0.06,0.33,0.083,0.665,0.07,1c0.028,0.403,0.028,0.807,0,1.21c-0.05,0.467-0.288,0.893-0.66,1.18l-0.09,0.09l0,0
			c0.085,0.065,0.175,0.122,0.27,0.17c0.169,0.082,0.311,0.211,0.41,0.37c0.073,0.091,0.112,0.204,0.11,0.32c0,0.16,0,0.32,0,0.48
			v1.64c0.005,0.188-0.055,0.372-0.17,0.52c-0.061,0.069-0.128,0.133-0.2,0.19c-0.36,0.18-0.69,0.34-1.05,0.49
			c-0.053,0.008-0.107,0.008-0.16,0c-0.06,0-0.08,0-0.1,0c-0.32-0.31-0.34-0.31-0.28-0.8c0.058-0.518,0.088-1.039,0.09-1.56
			c-0.005-0.083-0.005-0.167,0-0.25c0.074-0.941,0.097-1.886,0.07-2.83c0-0.48,0-1-0.06-1.43s0-1,0-1.52S118.53,46.2,118.91,45.88z
			 M118.91,54.6c0.297-0.084,0.586-0.198,0.86-0.34c0.149-0.075,0.253-0.216,0.28-0.38c0.012-0.116,0.012-0.234,0-0.35v-0.84
			c0-0.29,0-0.56,0-0.85c0.012-0.186-0.08-0.363-0.24-0.46c-0.183-0.11-0.373-0.207-0.57-0.29c-0.082-0.023-0.168-0.023-0.25,0
			c0,0,0,0,0,0.06c-0.1,1-0.09,2.08-0.21,3.12c-0.037,0.115-0.002,0.241,0.09,0.32L118.91,54.6z M119.07,50.67
			c0.17-0.11,0.34-0.19,0.49-0.29c0.144-0.095,0.261-0.226,0.34-0.38c0.075-0.232,0.106-0.476,0.09-0.72c0-0.53,0-1.05,0-1.59
			c0.027-0.345-0.097-0.684-0.34-0.93c-0.212-0.165-0.444-0.302-0.69-0.41c-0.079,0.121-0.114,0.266-0.1,0.41c0,0.72,0,1.43,0,2.15
			c0.086,0.452,0.129,0.91,0.13,1.37c-0.051,0.122-0.051,0.258,0,0.38L119.07,50.67z"/>
		<path style="fill:#3F555A;" d="M125.82,48.53l-0.64,2c0,0.1-0.06,0.19-0.09,0.28s0,0.08,0,0.13l0,0c0,0,0,0.08,0,0.12
			c0.063,0.184,0.116,0.371,0.16,0.56c0.036,0.137,0.083,0.27,0.14,0.4v0.12c0.08,0.19,0.15,0.41,0.24,0.61s0.18,0.48,0.27,0.73
			c0.017,0.042,0.017,0.088,0,0.13c0,0.06,0,0.09-0.08,0.09c-0.025,0.013-0.055,0.013-0.08,0c0.003-0.037,0.003-0.073,0-0.11
			c0-0.1-0.07-0.21-0.1-0.3c-0.1-0.26-0.21-0.51-0.29-0.77s-0.15-0.41-0.21-0.63l-0.08-0.26c-0.022-0.081-0.049-0.161-0.08-0.24
			c0,0,0-0.06,0-0.08l0,0l0,0l0,0c-0.09,0.26-0.17,0.51-0.25,0.75l-0.06,0.19c-0.07,0.2-0.14,0.42-0.2,0.63
			c-0.052,0.161-0.095,0.325-0.13,0.49c-0.018,0.159-0.077,0.31-0.17,0.44l0,0c-0.08-0.06-0.12-0.09-0.12-0.14
			c-0.016-0.038-0.016-0.082,0-0.12c0.037-0.09,0.064-0.184,0.08-0.28c0-0.06,0-0.12,0-0.18c0.002-0.023,0.002-0.047,0-0.07
			c0.003-0.027,0.003-0.053,0-0.08l0.15-0.45c0.07-0.19,0.15-0.39,0.21-0.59s0.1-0.29,0.15-0.44s0.06-0.19,0.1-0.28l0.05-0.17
			c-0.002-0.027-0.002-0.053,0-0.08v-0.09l-0.09-0.26l0,0c0-0.07,0-0.15-0.07-0.23c-0.14-0.58-0.33-1.12-0.47-1.54
			c0-0.12-0.09-0.26-0.13-0.39v-0.14c-0.003-0.027-0.003-0.053,0-0.08c-0.008-0.046,0.011-0.093,0.05-0.12l0,0
			c0.019-0.008,0.041-0.008,0.06,0c0.029,0.035,0.049,0.076,0.06,0.12c0.06,0.27,0.15,0.53,0.23,0.77l0.16,0.5l0.19,0.64
			c0.024,0.115,0.054,0.228,0.09,0.34l0,0c0,0,0,0.1,0.06,0.12l0,0c0.023-0.049,0.043-0.099,0.06-0.15c0-0.11,0.07-0.22,0.1-0.32
			s0-0.17,0.08-0.26c0.14-0.44,0.27-0.88,0.4-1.31l0,0v-0.08c0.025-0.088,0.055-0.175,0.09-0.26c0.015-0.048,0.052-0.085,0.1-0.1
			l0,0c0,0,0,0,0.07,0c0.015,0.032,0.015,0.068,0,0.1c0.004,0.03,0.004,0.06,0,0.09l0,0L125.82,48.53z"/>
		<path style="fill:#3F555A;" d="M131.46,53.74c-0.591-0.022-1.183,0.001-1.77,0.07l-0.07,0.28c0,0.21-0.08,0.44-0.11,0.65
			c-0.005,0.099-0.09,0.175-0.189,0.17c-0.017-0.001-0.034-0.004-0.051-0.01c-0.104-0.011-0.18-0.105-0.169-0.209
			c0.001-0.014,0.005-0.028,0.009-0.041l0.1-0.53c0.06-0.29,0.1-0.59,0.16-0.88l0.15-0.89c0.1-0.71,0.21-1.41,0.31-2.11
			s0.2-1.36,0.28-2s0.1-1.06,0.15-1.59c0.001-0.206,0.111-0.397,0.29-0.5c0.078-0.053,0.183-0.032,0.236,0.045
			c0.005,0.008,0.01,0.016,0.014,0.025c0.055,0.123,0.089,0.255,0.1,0.39c-0.007,0.312,0.02,0.624,0.08,0.93
			c0.07,0.47,0.1,1,0.16,1.42c0.09,0.76,0.19,1.51,0.29,2.27l0.27,1.9c0,0.21,0.08,0.43,0.12,0.64s0.11,0.56,0.16,0.84
			c0.005,0.067,0.005,0.133,0,0.2c-0.011,0.101-0.099,0.176-0.2,0.17c-0.1,0.001-0.185-0.071-0.2-0.17c0-0.25-0.06-0.48-0.08-0.73
			C131.49,53.98,131.47,53.88,131.46,53.74z M130.56,47.42c-0.06,0.48-0.09,0.86-0.15,1.24s-0.11,0.56-0.16,0.84
			c-0.08,0.52-0.13,1-0.2,1.55s-0.16,0.94-0.21,1.41c-0.076,0.28-0.106,0.57-0.09,0.86c0.079,0.042,0.163,0.072,0.25,0.09
			c0.123,0.011,0.247,0.011,0.37,0l1-0.1v-0.19c-0.06-0.4-0.12-0.81-0.18-1.21c-0.08-0.58-0.17-1.17-0.25-1.74s-0.12-0.86-0.17-1.3
			s-0.06-0.78-0.1-1.19C130.646,47.589,130.609,47.501,130.56,47.42z"/>
		<path style="fill:#3F555A;" d="M134.93,53.34c-0.579-0.143-1.182-0.164-1.77-0.06c-0.062,0.184-0.096,0.376-0.1,0.57
			c0,0.28,0,0.55,0,0.82c-0.002,0.083-0.022,0.165-0.06,0.24c-0.035,0.048-0.091,0.074-0.15,0.07c0,0-0.09-0.06-0.1-0.09
			c-0.018-0.109-0.018-0.221,0-0.33c0-0.32,0-0.65,0.09-1c0.055-0.445,0.055-0.895,0-1.34c-0.046-0.332-0.046-0.668,0-1
			c0-0.2,0-0.4,0-0.6c0-0.47,0-0.93,0-1.4s0-0.71,0-1.06v-0.53c0-0.29,0-0.58,0-0.86s-0.07-0.52-0.09-0.77s0-0.18,0.11-0.2
			c0.077-0.031,0.164,0.007,0.195,0.084c0.002,0.005,0.004,0.01,0.005,0.016c0.011,0.08,0.011,0.16,0,0.24c0,0.27,0,0.53,0,0.78
			v1.88c0,0.77,0,1.53,0,2.3c0,0.58,0.06,1.14,0,1.69c0.092,0.098,0.231,0.136,0.36,0.1c0.389-0.04,0.781-0.04,1.17,0
			c0.135,0.004,0.263-0.06,0.34-0.17v-0.67c0-1.1,0-2.21,0.07-3.32c0-0.34,0-0.68,0-1s0-1,0-1.42c0-0.1,0-0.19,0-0.28
			s0-0.24,0.13-0.25c0.087-0.017,0.171,0.04,0.187,0.127c0.001,0.008,0.002,0.015,0.003,0.023c0.012,0.12,0.012,0.24,0,0.36
			c0,0.39,0,0.8,0,1.19c0,0.56,0,1.12,0,1.68c-0.06,0.91,0,1.8,0,2.71c0,0.22,0,0.46,0,0.69c0,0.71,0,1.41,0,2.13
			c0.006,0.083,0.006,0.167,0,0.25c-0.01,0.099-0.098,0.171-0.197,0.162c-0.005,0-0.009-0.001-0.014-0.002
			c-0.08-0.02-0.129-0.1-0.11-0.18c0-0.24,0-0.46,0-0.69C135.005,53.932,134.982,53.634,134.93,53.34z"/>
		<path style="fill:#3F555A;" d="M139.66,51.15c-0.059,0.012-0.121,0.012-0.18,0c-0.585-0.067-1.175-0.067-1.76,0
			c-0.208,0.021-0.415,0.055-0.62,0.1c-0.125,0.022-0.244-0.061-0.267-0.186c-0.002-0.011-0.003-0.022-0.003-0.034
			c-0.001-0.071,0.038-0.136,0.1-0.17c0.093-0.012,0.187-0.012,0.28,0l1.67-0.06c0.15,0,0.29,0,0.44,0
			c0.157-0.008,0.301,0.09,0.35,0.24C139.67,51.04,139.66,51.09,139.66,51.15z M139.66,52.83c-0.059,0.017-0.121,0.017-0.18,0
			c-0.582-0.087-1.172-0.114-1.76-0.08c-0.211,0.012-0.421,0.036-0.63,0.07c-0.114,0.024-0.225-0.049-0.248-0.163
			c-0.005-0.025-0.006-0.052-0.002-0.077c-0.005-0.069,0.035-0.134,0.1-0.16c0.093-0.012,0.187-0.012,0.28,0h1.68h0.44
			c0.153-0.004,0.287,0.101,0.32,0.25c0,0,0.01,0.1,0.01,0.16H139.66z"/>
		<path style="fill:#3F555A;" d="M142.76,53.74c-0.591-0.022-1.183,0.001-1.77,0.07l-0.07,0.28c0,0.21-0.08,0.44-0.11,0.65
			c-0.005,0.099-0.09,0.175-0.189,0.17c-0.017-0.001-0.034-0.004-0.051-0.01c-0.104-0.011-0.18-0.105-0.169-0.209
			c0.001-0.014,0.005-0.028,0.009-0.041l0.1-0.53c0.06-0.29,0.1-0.59,0.16-0.88l0.15-0.89c0.1-0.71,0.21-1.41,0.31-2.11
			s0.2-1.36,0.28-2s0.1-1.06,0.15-1.59c-0.001-0.207,0.11-0.398,0.29-0.5c0.078-0.053,0.183-0.032,0.236,0.045
			c0.005,0.008,0.01,0.016,0.014,0.025c0.055,0.123,0.089,0.255,0.1,0.39c-0.007,0.312,0.02,0.624,0.08,0.93
			c0.07,0.47,0.1,1,0.16,1.42c0.09,0.76,0.19,1.51,0.29,2.27l0.27,1.9c0,0.21,0.08,0.43,0.12,0.64s0.11,0.56,0.16,0.84
			c0.005,0.067,0.005,0.133,0,0.2c-0.011,0.101-0.099,0.176-0.2,0.17c-0.098-0.003-0.181-0.074-0.2-0.17c0-0.25-0.06-0.48-0.08-0.73
			C142.79,53.98,142.77,53.88,142.76,53.74z M141.86,47.42c-0.06,0.48-0.09,0.86-0.15,1.24s-0.11,0.56-0.16,0.84
			c-0.08,0.52-0.13,1-0.2,1.55s-0.16,0.94-0.21,1.41c-0.075,0.28-0.106,0.57-0.09,0.86c0.079,0.042,0.163,0.072,0.25,0.09
			c0.123,0.011,0.247,0.011,0.37,0l1-0.1v-0.19c-0.06-0.4-0.12-0.81-0.18-1.21c-0.08-0.58-0.17-1.17-0.25-1.74s-0.12-0.86-0.17-1.3
			s-0.06-0.78-0.1-1.19C141.946,47.589,141.909,47.501,141.86,47.42L141.86,47.42z"/>
		<path style="fill:#3F555A;" d="M144.62,45.88l0.33,0.19c0.13,0.08,0.26,0.16,0.38,0.21c0.396,0.193,0.675,0.565,0.75,1
			c0.06,0.33,0.083,0.665,0.07,1c0.028,0.403,0.028,0.807,0,1.21c-0.05,0.467-0.288,0.893-0.66,1.18l-0.09,0.09l0,0
			c0.085,0.065,0.175,0.122,0.27,0.17c0.169,0.082,0.311,0.211,0.41,0.37c0.073,0.091,0.112,0.204,0.11,0.32c0,0.16,0,0.32,0,0.48
			v1.64c0.005,0.188-0.055,0.372-0.17,0.52c-0.061,0.069-0.128,0.132-0.2,0.19c-0.36,0.18-0.69,0.34-1.05,0.49
			c-0.053,0.008-0.107,0.008-0.16,0c-0.06,0-0.08,0-0.1,0c-0.33-0.31-0.34-0.31-0.28-0.8c0.058-0.518,0.088-1.039,0.09-1.56
			c-0.005-0.083-0.005-0.167,0-0.25c0.074-0.941,0.097-1.886,0.07-2.83c0-0.48,0-1-0.06-1.43s0-1,0-1.52S144.24,46.2,144.62,45.88z
			 M144.62,54.6c0.297-0.084,0.585-0.198,0.86-0.34c0.149-0.075,0.253-0.216,0.28-0.38c0.012-0.116,0.012-0.234,0-0.35v-0.84
			c0-0.29,0-0.56,0-0.85c0.012-0.186-0.08-0.363-0.24-0.46c-0.183-0.11-0.374-0.207-0.57-0.29c-0.082-0.023-0.168-0.023-0.25,0
			c0,0,0,0,0,0.06c-0.1,1-0.09,2.08-0.21,3.12c-0.035,0.117,0.005,0.244,0.1,0.32L144.62,54.6z M144.78,50.67
			c0.17-0.11,0.34-0.19,0.49-0.29c0.144-0.095,0.261-0.226,0.34-0.38c0.105-0.223,0.166-0.464,0.18-0.71c0-0.53,0-1.05,0-1.59
			c0.027-0.345-0.097-0.684-0.34-0.93c-0.212-0.165-0.444-0.302-0.69-0.41c-0.079,0.121-0.114,0.266-0.1,0.41c0,0.72,0,1.43,0,2.15
			c0.039,0.439,0.039,0.881,0,1.32c-0.041,0.145-0.011,0.3,0.08,0.42L144.78,50.67z"/>
		<path style="fill:#3F555A;" d="M150.52,48.53l-0.64,2c0,0.1-0.06,0.19-0.09,0.28s0,0.08,0,0.13l0,0c0,0,0,0.08,0,0.12
			c0.063,0.184,0.117,0.371,0.16,0.56c0.037,0.137,0.083,0.27,0.14,0.4v0.12c0.08,0.19,0.15,0.41,0.24,0.61s0.18,0.48,0.27,0.73
			c0.017,0.042,0.017,0.088,0,0.13c0,0.06,0,0.09-0.08,0.09c-0.025,0.013-0.055,0.013-0.08,0c0.002-0.037,0.002-0.073,0-0.11
			c0-0.1-0.07-0.21-0.1-0.3c-0.1-0.26-0.21-0.51-0.29-0.77s-0.15-0.41-0.21-0.63l-0.08-0.26c-0.022-0.081-0.049-0.162-0.08-0.24
			c0,0,0-0.06,0-0.08l0,0l0,0l0,0c-0.09,0.26-0.17,0.51-0.25,0.75l-0.06,0.19c-0.07,0.2-0.14,0.42-0.2,0.63
			c-0.052,0.161-0.095,0.325-0.13,0.49c-0.021,0.158-0.079,0.309-0.17,0.44l0,0c-0.08-0.06-0.12-0.09-0.12-0.14
			c-0.016-0.038-0.016-0.082,0-0.12c0.037-0.09,0.064-0.184,0.08-0.28c0-0.06,0-0.12,0-0.18c0.002-0.023,0.002-0.047,0-0.07
			c0.003-0.027,0.003-0.053,0-0.08l0.15-0.45c0.07-0.19,0.15-0.39,0.21-0.59s0.1-0.29,0.15-0.44s0.06-0.19,0.1-0.28l0.06-0.17
			c-0.002-0.027-0.002-0.053,0-0.08v-0.09l-0.09-0.26l0,0c0-0.07,0-0.15-0.07-0.23c-0.14-0.58-0.33-1.12-0.47-1.54
			c0-0.12-0.09-0.26-0.13-0.39v-0.14c-0.003-0.027-0.003-0.053,0-0.08c-0.006-0.048,0.017-0.096,0.06-0.12l0,0
			c0.019-0.008,0.041-0.008,0.06,0c0.029,0.035,0.049,0.076,0.06,0.12c0.06,0.27,0.15,0.53,0.24,0.77l0.16,0.5l0.19,0.64
			c0.024,0.115,0.054,0.228,0.09,0.34l0,0c0,0,0,0.1,0.06,0.12l0,0c0.02-0.049,0.037-0.099,0.05-0.15c0-0.11,0.07-0.22,0.1-0.32
			s0-0.17,0.08-0.26c0.14-0.44,0.27-0.88,0.4-1.31l0,0v-0.08c0.025-0.088,0.055-0.175,0.09-0.26c0.015-0.048,0.052-0.085,0.1-0.1
			l0,0c0,0,0,0,0.07,0c0.015,0.032,0.015,0.068,0,0.1c0.004,0.03,0.004,0.06,0,0.09l0,0L150.52,48.53z"/>
		<path style="fill:#3F555A;" d="M154.07,45.61c-0.252,0.383-0.438,0.805-0.55,1.25c-0.08,0.208-0.144,0.422-0.19,0.64
			c-0.141,0.524-0.238,1.06-0.29,1.6c0,0.44-0.1,0.87-0.13,1.31c-0.017,0.256-0.017,0.514,0,0.77c0,0.31,0,0.62,0.06,0.94
			c0.027,0.504,0.135,1,0.32,1.47c0.1,0.22,0.17,0.45,0.25,0.67c0.07,0.272,0.189,0.53,0.35,0.76c0.088,0.122,0.088,0.288,0,0.41
			c-0.25,0.07-0.31,0-0.41-0.2c-0.2-0.5-0.38-1-0.56-1.54c-0.151-0.427-0.252-0.87-0.3-1.32c-0.07-0.664-0.097-1.332-0.08-2
			c0-0.36,0.06-0.72,0.1-1.06c0.07-0.52,0.15-1,0.25-1.52c0-0.22,0.11-0.43,0.17-0.65s0.19-0.52,0.26-0.77
			c0.09-0.284,0.215-0.556,0.37-0.81c0-0.06,0.06-0.16,0.17-0.16s0.16,0.08,0.2,0.18C154.065,45.589,154.069,45.599,154.07,45.61z"
			/>
		<path style="fill:#3F555A;" d="M157.3,53.74c-0.591-0.022-1.183,0.001-1.77,0.07l-0.07,0.28c0,0.21-0.08,0.44-0.11,0.65
			c-0.005,0.099-0.09,0.175-0.189,0.17c-0.017-0.001-0.034-0.004-0.051-0.01c-0.104-0.011-0.18-0.105-0.169-0.209
			c0.001-0.014,0.005-0.028,0.009-0.041l0.1-0.53c0.06-0.29,0.1-0.59,0.16-0.88l0.15-0.89c0.1-0.71,0.21-1.41,0.31-2.11
			s0.2-1.36,0.28-2s0.1-1.06,0.15-1.59c-0.001-0.207,0.11-0.398,0.29-0.5c0.078-0.053,0.183-0.032,0.236,0.045
			c0.005,0.008,0.01,0.016,0.014,0.025c0.055,0.123,0.089,0.255,0.1,0.39c-0.007,0.312,0.02,0.624,0.08,0.93
			c0.07,0.47,0.1,1,0.16,1.42c0.09,0.76,0.19,1.51,0.29,2.27l0.27,1.9c0,0.21,0.08,0.43,0.12,0.64s0.11,0.56,0.16,0.84
			c0.005,0.067,0.005,0.133,0,0.2c-0.011,0.101-0.099,0.176-0.2,0.17c-0.098-0.003-0.181-0.074-0.2-0.17c0-0.25-0.06-0.48-0.08-0.73
			C157.34,53.98,157.31,53.88,157.3,53.74z M156.4,47.42c-0.06,0.48-0.09,0.86-0.15,1.24s-0.11,0.56-0.16,0.84
			c-0.08,0.52-0.13,1-0.2,1.55s-0.16,0.94-0.21,1.41c-0.075,0.28-0.106,0.57-0.09,0.86c0.079,0.042,0.163,0.072,0.25,0.09
			c0.123,0.011,0.247,0.011,0.37,0l1-0.1v-0.19c-0.06-0.4-0.12-0.81-0.18-1.21c-0.08-0.58-0.17-1.17-0.25-1.74s-0.12-0.86-0.17-1.3
			s-0.06-0.78-0.1-1.19c-0.021-0.091-0.055-0.178-0.1-0.26H156.4z"/>
		<path style="fill:#3F555A;" d="M160.78,53.34c-0.586-0.146-1.196-0.167-1.79-0.06c-0.062,0.184-0.096,0.376-0.1,0.57
			c0,0.28,0,0.55,0,0.82c-0.002,0.083-0.022,0.165-0.06,0.24c-0.035,0.048-0.091,0.074-0.15,0.07c0,0-0.09-0.06-0.1-0.09
			c-0.018-0.109-0.018-0.221,0-0.33c0-0.32,0-0.65,0.09-1c0.056-0.445,0.056-0.895,0-1.34c-0.046-0.332-0.046-0.668,0-1
			c0-0.2,0-0.4,0-0.6c0-0.47,0-0.93,0-1.4s0-0.71,0-1.06v-0.53c0-0.29,0-0.58,0-0.86s-0.07-0.52-0.09-0.77s0-0.18,0.11-0.2
			c0.077-0.031,0.164,0.007,0.195,0.084c0.002,0.005,0.004,0.01,0.005,0.016c0.011,0.08,0.011,0.16,0,0.24c0,0.27,0,0.53,0,0.78
			v1.88c0,0.77,0,1.53,0,2.3c0,0.58,0.06,1.14,0,1.69c0.092,0.098,0.231,0.136,0.36,0.1c0.389-0.04,0.781-0.04,1.17,0
			c0.135,0.004,0.263-0.06,0.34-0.17v-0.67c0-1.1,0-2.21,0.07-3.32c0-0.34,0-0.68,0-1s0-1,0-1.42c0-0.1,0-0.19,0-0.28
			s0-0.24,0.13-0.25c0.087-0.017,0.171,0.04,0.187,0.127c0.001,0.008,0.002,0.015,0.003,0.023c0.012,0.12,0.012,0.24,0,0.36
			c0,0.39,0,0.8,0,1.19c0,0.56,0,1.12,0,1.68c-0.06,0.91,0,1.8,0,2.71c0,0.22,0,0.46,0,0.69c0,0.71,0,1.41,0,2.13
			c0.006,0.083,0.006,0.167,0,0.25c-0.01,0.099-0.098,0.171-0.197,0.162c-0.005,0-0.009-0.001-0.014-0.002
			c-0.08-0.02-0.129-0.1-0.11-0.18c0-0.24,0-0.46,0-0.69C160.842,53.932,160.825,53.634,160.78,53.34z"/>
		<path style="fill:#3F555A;" d="M165.17,51.15c-0.059,0.012-0.121,0.012-0.18,0c-0.352-0.038-0.708-0.038-1.06,0v0.43
			c0,0.15,0,0.29,0.06,0.44c0.006,0.159-0.091,0.304-0.24,0.36c0,0-0.08,0-0.15,0c-0.012-0.059-0.012-0.121,0-0.18
			c0.033-0.333,0.033-0.667,0-1h-0.37c-0.208,0.021-0.415,0.055-0.62,0.1c-0.125,0.022-0.244-0.061-0.267-0.186
			c-0.002-0.011-0.003-0.022-0.003-0.034c-0.001-0.071,0.038-0.136,0.1-0.17c0.093-0.012,0.187-0.012,0.28,0h0.84
			c0-0.15,0-0.28,0-0.41c-0.028-0.209-0.068-0.416-0.12-0.62c-0.022-0.125,0.061-0.244,0.186-0.267
			c0.011-0.002,0.022-0.003,0.034-0.003c0.069-0.005,0.135,0.03,0.17,0.09c0.027,0.092,0.047,0.185,0.06,0.28l0.06,0.92h0.49
			c0.15,0,0.29,0,0.44,0c0.157-0.008,0.301,0.09,0.35,0.24C165.23,51.14,165.17,51.09,165.17,51.15z"/>
		<path style="fill:#3F555A;" d="M166.32,45.88l0.33,0.19c0.13,0.08,0.26,0.16,0.38,0.21c0.396,0.193,0.675,0.565,0.75,1
			c0.06,0.33,0.083,0.665,0.07,1c0.028,0.403,0.028,0.807,0,1.21c-0.05,0.467-0.288,0.893-0.66,1.18l-0.09,0.09l0,0
			c0.085,0.065,0.175,0.122,0.27,0.17c0.169,0.082,0.311,0.211,0.41,0.37c0.073,0.091,0.112,0.204,0.11,0.32c0,0.16,0,0.32,0,0.48
			v1.64c0.005,0.188-0.055,0.372-0.17,0.52c-0.061,0.069-0.128,0.132-0.2,0.19c-0.36,0.18-0.69,0.34-1.05,0.49
			c-0.053,0.008-0.107,0.008-0.16,0c-0.06,0-0.08,0-0.1,0c-0.33-0.31-0.34-0.31-0.28-0.8c0.058-0.518,0.088-1.039,0.09-1.56
			c-0.005-0.083-0.005-0.167,0-0.25c0.074-0.941,0.097-1.886,0.07-2.83c0-0.48,0-1-0.06-1.43s0-1,0-1.52S165.99,46.2,166.32,45.88z
			 M166.32,54.6c0.297-0.084,0.585-0.198,0.86-0.34c0.149-0.075,0.253-0.216,0.28-0.38c0.012-0.116,0.012-0.234,0-0.35v-0.84
			c0-0.29,0-0.56,0-0.85c0.012-0.186-0.08-0.363-0.24-0.46c-0.183-0.11-0.374-0.207-0.57-0.29c-0.082-0.023-0.168-0.023-0.25,0
			c0,0,0,0,0,0.06c-0.1,1-0.09,2.08-0.21,3.12c-0.035,0.117,0.005,0.244,0.1,0.32L166.32,54.6z M166.48,50.67
			c0.17-0.11,0.34-0.19,0.49-0.29c0.144-0.095,0.261-0.226,0.34-0.38c0.105-0.223,0.166-0.464,0.18-0.71c0-0.53,0-1.05,0-1.59
			c0.027-0.345-0.097-0.684-0.34-0.93c-0.212-0.165-0.444-0.302-0.69-0.41c-0.079,0.121-0.114,0.266-0.1,0.41c0,0.72,0,1.43,0,2.15
			c0.039,0.439,0.039,0.881,0,1.32c-0.038,0.146-0.004,0.302,0.09,0.42L166.48,50.67z"/>
		<path style="fill:#3F555A;" d="M171.52,53.34c-0.579-0.143-1.182-0.164-1.77-0.06c-0.062,0.184-0.096,0.376-0.1,0.57
			c0,0.28,0,0.55,0,0.82c-0.002,0.083-0.022,0.165-0.06,0.24c-0.035,0.048-0.091,0.074-0.15,0.07c0,0-0.09-0.06-0.1-0.09
			c-0.018-0.109-0.018-0.221,0-0.33c0-0.32,0-0.65,0.09-1c0.056-0.445,0.056-0.895,0-1.34c-0.046-0.332-0.046-0.668,0-1
			c0-0.2,0-0.4,0-0.6c0-0.47,0-0.93,0-1.4s0-0.71,0-1.06v-0.53c0-0.29,0-0.58,0-0.86s-0.07-0.52-0.09-0.77s0-0.18,0.11-0.2
			c0.077-0.031,0.164,0.007,0.195,0.084c0.002,0.005,0.004,0.01,0.005,0.016c0.011,0.08,0.011,0.16,0,0.24c0,0.27,0,0.53,0,0.78
			v1.88c0,0.77,0,1.53,0,2.3c0,0.58,0.06,1.14,0,1.69c0.092,0.098,0.231,0.136,0.36,0.1c0.389-0.04,0.781-0.04,1.17,0
			c0.135,0.004,0.263-0.06,0.34-0.17v-0.67c0-1.1,0-2.21,0.07-3.32c0-0.34,0-0.68,0-1s0-1,0-1.42c0-0.1,0-0.19,0-0.28
			s0-0.24,0.13-0.25c0.087-0.017,0.171,0.04,0.187,0.127c0.001,0.008,0.002,0.015,0.003,0.023c0.012,0.12,0.012,0.24,0,0.36
			c0,0.39,0,0.8,0,1.19c0,0.56,0,1.12,0,1.68c-0.06,0.91,0,1.8,0,2.71c0,0.22,0,0.46,0,0.69c0,0.71,0,1.41,0,2.13
			c0.006,0.083,0.006,0.167,0,0.25c-0.01,0.099-0.098,0.171-0.197,0.162c-0.005,0-0.009-0.001-0.014-0.002
			c-0.08-0.02-0.129-0.1-0.11-0.18c0-0.24,0-0.46,0-0.69C171.595,53.932,171.572,53.634,171.52,53.34z"/>
		<path style="fill:#3F555A;" d="M172.99,55.19c0.245-0.378,0.427-0.794,0.54-1.23c0.072-0.206,0.132-0.417,0.18-0.63
			c0.138-0.514,0.231-1.04,0.28-1.57c0-0.43,0.1-0.85,0.13-1.29c0.017-0.25,0.017-0.5,0-0.75c0-0.3,0-0.6-0.06-0.92
			c-0.029-0.49-0.134-0.972-0.31-1.43c-0.095-0.214-0.175-0.435-0.24-0.66c-0.072-0.267-0.186-0.52-0.34-0.75
			c-0.09-0.118-0.09-0.282,0-0.4c0.24-0.07,0.3,0,0.39,0.2c0.2,0.49,0.38,1,0.55,1.49c0.141,0.422,0.238,0.858,0.29,1.3
			c0.071,0.664,0.098,1.332,0.08,2c0,0.35-0.06,0.71-0.1,1c-0.067,0.507-0.147,1-0.24,1.48c0,0.22-0.11,0.43-0.17,0.65
			s-0.18,0.49-0.25,0.75c-0.081,0.276-0.202,0.539-0.36,0.78c0,0.07-0.06,0.17-0.16,0.17s-0.16-0.09-0.2-0.19
			S172.99,55.21,172.99,55.19z"/>
		<path style="fill:#3F555A;" d="M179.08,51.15c-0.059,0.012-0.121,0.012-0.18,0c-0.585-0.067-1.175-0.067-1.76,0
			c-0.208,0.021-0.415,0.055-0.62,0.1c-0.125,0.022-0.244-0.061-0.267-0.186c-0.002-0.011-0.003-0.022-0.003-0.034
			c-0.001-0.071,0.038-0.136,0.1-0.17c0.093-0.012,0.187-0.012,0.28,0l1.67-0.06c0.15,0,0.29,0,0.44,0
			c0.157-0.008,0.301,0.09,0.35,0.24C179.09,51.04,179.08,51.09,179.08,51.15z M179.08,52.83c-0.06,0-0.11,0-0.18,0
			c-0.582-0.087-1.172-0.114-1.76-0.08c-0.211,0.012-0.421,0.036-0.63,0.07c-0.114,0.024-0.225-0.049-0.248-0.163
			c-0.005-0.025-0.006-0.052-0.002-0.077c-0.005-0.069,0.035-0.134,0.1-0.16c0.093-0.012,0.187-0.012,0.28,0h1.68h0.44
			c0.153-0.004,0.287,0.101,0.32,0.25c0,0,0.01,0.1,0.01,0.16H179.08z"/>
		<path style="fill:#3F555A;" d="M182.18,53.74c-0.591-0.022-1.183,0.001-1.77,0.07l-0.07,0.28c0,0.21-0.08,0.44-0.11,0.65
			c-0.005,0.099-0.09,0.175-0.189,0.17c-0.017-0.001-0.034-0.004-0.051-0.01c-0.104-0.011-0.18-0.105-0.169-0.209
			c0.001-0.014,0.005-0.028,0.009-0.041l0.1-0.53c0.06-0.29,0.1-0.59,0.16-0.88l0.15-0.89c0.1-0.71,0.21-1.41,0.31-2.11
			s0.2-1.36,0.28-2s0.1-1.06,0.15-1.59c0.001-0.206,0.111-0.397,0.29-0.5c0.078-0.053,0.183-0.032,0.236,0.045
			c0.005,0.008,0.01,0.016,0.014,0.025c0.055,0.123,0.089,0.255,0.1,0.39c-0.007,0.312,0.02,0.624,0.08,0.93
			c0.07,0.47,0.1,1,0.16,1.42c0.09,0.76,0.19,1.51,0.29,2.27l0.27,1.9c0,0.21,0.08,0.43,0.12,0.64s0.11,0.56,0.16,0.84
			c0.005,0.067,0.005,0.133,0,0.2c-0.011,0.101-0.099,0.176-0.2,0.17c-0.1,0.001-0.185-0.071-0.2-0.17c0-0.25-0.06-0.48-0.08-0.73
			C182.21,53.98,182.19,53.88,182.18,53.74z M181.28,47.42c-0.06,0.48-0.09,0.86-0.15,1.24s-0.11,0.56-0.16,0.84
			c-0.08,0.52-0.13,1-0.2,1.55s-0.16,0.94-0.21,1.41c-0.076,0.28-0.106,0.57-0.09,0.86c0.079,0.042,0.163,0.072,0.25,0.09
			c0.123,0.011,0.247,0.011,0.37,0l1-0.1v-0.19c-0.06-0.4-0.12-0.81-0.18-1.21c-0.08-0.58-0.17-1.17-0.25-1.74s-0.12-0.86-0.17-1.3
			s-0.06-0.78-0.1-1.19C181.366,47.589,181.329,47.501,181.28,47.42L181.28,47.42z"/>
		<path style="fill:#3F555A;" d="M183.99,45.88l0.32,0.19c0.13,0.08,0.26,0.16,0.38,0.21c0.396,0.193,0.675,0.565,0.75,1
			c0.06,0.33,0.083,0.665,0.07,1c0.028,0.403,0.028,0.807,0,1.21c-0.051,0.467-0.289,0.892-0.66,1.18l-0.09,0.09l0,0
			c0.085,0.065,0.175,0.122,0.27,0.17c0.169,0.082,0.311,0.211,0.41,0.37c0.073,0.091,0.112,0.204,0.11,0.32c0,0.16,0,0.32,0,0.48
			v1.64c0.005,0.188-0.055,0.372-0.17,0.52c-0.061,0.069-0.128,0.133-0.2,0.19c-0.36,0.18-0.69,0.34-1.05,0.49
			c-0.053,0.008-0.107,0.008-0.16,0c-0.06,0-0.08,0-0.1,0c-0.32-0.31-0.34-0.31-0.28-0.8c0.059-0.518,0.089-1.039,0.09-1.56
			c-0.005-0.083-0.005-0.167,0-0.25c0.074-0.941,0.097-1.886,0.07-2.83c0-0.48,0-1-0.06-1.43s0-1,0-1.52S183.66,46.2,183.99,45.88z
			 M183.99,54.6c0.297-0.084,0.586-0.198,0.86-0.34c0.149-0.075,0.253-0.216,0.28-0.38c0.012-0.116,0.012-0.234,0-0.35v-0.84
			c0-0.29,0-0.56,0-0.85c0.012-0.186-0.08-0.363-0.24-0.46c-0.183-0.11-0.373-0.207-0.57-0.29c-0.082-0.023-0.168-0.023-0.25,0
			c0,0,0,0,0,0.06c-0.1,1-0.09,2.08-0.21,3.12c-0.029,0.123,0.023,0.251,0.13,0.32V54.6z M184.15,50.67
			c0.17-0.11,0.34-0.19,0.49-0.29c0.144-0.095,0.261-0.226,0.34-0.38c0.105-0.223,0.166-0.464,0.18-0.71c0-0.53,0-1.05,0-1.59
			c0.027-0.345-0.097-0.684-0.34-0.93c-0.212-0.164-0.444-0.302-0.69-0.41c-0.079,0.121-0.115,0.266-0.1,0.41c0,0.72,0,1.43,0,2.15
			c0.039,0.439,0.039,0.881,0,1.32c-0.025,0.153,0.023,0.308,0.13,0.42L184.15,50.67z"/>
		<path style="fill:#3F555A;" d="M69.99,48.5c0.052,0.046,0.122,0.064,0.19,0.05h0.42h0.33c0.063-0.009,0.127-0.009,0.19,0
			c0,0,0.06,0,0.07,0.07c0.015,0.032,0.015,0.068,0,0.1l-0.16,0.05c-0.17,0.009-0.34,0.009-0.51,0
			c-0.205,0.005-0.408,0.025-0.61,0.06h-0.07c-0.053-0.005-0.095-0.047-0.1-0.1c-0.009-0.043-0.009-0.087,0-0.13l0.19-0.42
			c0-0.06,0.07-0.12,0.09-0.18s0.16-0.41,0.24-0.62s0.18-0.53,0.25-0.8c0.058-0.201,0.128-0.398,0.21-0.59
			c0.045-0.1,0.082-0.204,0.11-0.31c0-0.15,0.08-0.28,0.13-0.42c0.086-0.206,0.133-0.427,0.14-0.65c0.02-0.152-0.02-0.306-0.11-0.43
			c-0.071-0.09-0.189-0.129-0.3-0.1c-0.268,0.033-0.481,0.242-0.52,0.51c0,0.12,0,0.23,0,0.35c-0.005,0.046-0.044,0.08-0.09,0.08
			c-0.054,0.001-0.1-0.037-0.11-0.09l0,0c0.021-0.178,0.051-0.355,0.09-0.53c0.025-0.058,0.059-0.112,0.1-0.16
			c0.119-0.161,0.294-0.272,0.49-0.31c0.258-0.064,0.523,0.073,0.62,0.32c0.047,0.114,0.071,0.237,0.07,0.36
			c-0.006,0.215-0.046,0.428-0.12,0.63c-0.13,0.38-0.24,0.78-0.39,1.15s-0.17,0.53-0.25,0.8c-0.043,0.143-0.093,0.283-0.15,0.42
			c0,0.12-0.08,0.22-0.13,0.33l-0.18,0.42C70.06,48.38,69.99,48.45,69.99,48.5z"/>
		<path style="fill:#3F555A;" d="M83.85,48.5c0.052,0.046,0.122,0.064,0.19,0.05h0.42h0.33c0.063-0.009,0.127-0.009,0.19,0
			c0,0,0.06,0,0.07,0.07c0.015,0.032,0.015,0.068,0,0.1l-0.16,0.05c-0.17,0.009-0.34,0.009-0.51,0
			c-0.205,0.005-0.408,0.025-0.61,0.06H83.7c-0.053-0.005-0.095-0.047-0.1-0.1c-0.009-0.043-0.009-0.087,0-0.13l0.19-0.42
			c0-0.06,0.07-0.12,0.09-0.18s0.16-0.41,0.24-0.62s0.18-0.53,0.25-0.8c0.058-0.201,0.128-0.398,0.21-0.59
			c0.045-0.1,0.082-0.204,0.11-0.31c0-0.15,0.08-0.28,0.13-0.42c0.086-0.206,0.133-0.427,0.14-0.65
			c0.009-0.148-0.037-0.294-0.13-0.41c-0.071-0.09-0.189-0.129-0.3-0.1c-0.268,0.033-0.481,0.242-0.52,0.51c0,0.12,0,0.23,0,0.35
			c-0.005,0.046-0.044,0.08-0.09,0.08c-0.054,0.001-0.1-0.037-0.11-0.09l0,0c0.021-0.178,0.051-0.355,0.09-0.53
			c0.025-0.058,0.059-0.112,0.1-0.16c0.119-0.161,0.294-0.272,0.49-0.31c0.258-0.064,0.523,0.073,0.62,0.32
			c0.047,0.114,0.071,0.237,0.07,0.36c-0.006,0.215-0.046,0.428-0.12,0.63c-0.13,0.38-0.24,0.78-0.39,1.15s-0.17,0.53-0.25,0.8
			c-0.043,0.143-0.093,0.283-0.15,0.42c0,0.12-0.08,0.22-0.13,0.33l-0.18,0.42C83.89,48.38,83.87,48.45,83.85,48.5z"/>
		<path style="fill:#3F555A;" d="M187.74,48.5c0.052,0.046,0.122,0.064,0.19,0.05h0.42h0.33c0.063-0.009,0.127-0.009,0.19,0
			c0,0,0.06,0,0.07,0.07c0.015,0.032,0.015,0.068,0,0.1l-0.16,0.05c-0.17,0.009-0.34,0.009-0.51,0
			c-0.205,0.005-0.408,0.025-0.61,0.06h-0.07c-0.053-0.005-0.095-0.047-0.1-0.1c-0.009-0.043-0.009-0.087,0-0.13l0.19-0.42
			c0-0.06,0.07-0.12,0.09-0.18s0.16-0.41,0.24-0.62s0.18-0.53,0.25-0.8c0.058-0.201,0.128-0.398,0.21-0.59
			c0.045-0.1,0.082-0.204,0.11-0.31c0-0.15,0.08-0.28,0.13-0.42c0.086-0.206,0.133-0.427,0.14-0.65
			c0.009-0.148-0.037-0.294-0.13-0.41c-0.071-0.09-0.189-0.129-0.3-0.1c-0.268,0.033-0.481,0.242-0.52,0.51c0,0.12,0,0.23,0,0.35
			c-0.005,0.046-0.044,0.08-0.09,0.08c-0.054,0.001-0.1-0.037-0.11-0.09l0,0c0.021-0.178,0.051-0.355,0.09-0.53
			c0.025-0.058,0.059-0.112,0.1-0.16c0.119-0.161,0.294-0.272,0.49-0.31c0.258-0.064,0.523,0.073,0.62,0.32
			c0.047,0.114,0.071,0.237,0.07,0.36c-0.006,0.215-0.046,0.428-0.12,0.63c-0.13,0.38-0.24,0.78-0.39,1.15s-0.17,0.53-0.25,0.8
			c-0.043,0.143-0.093,0.283-0.15,0.42c0,0.12-0.08,0.22-0.13,0.33l-0.18,0.42C187.78,48.38,187.76,48.45,187.74,48.5z"/>
		
			<path style="opacity:0.5;fill:#D0E4F1;stroke:#D0E4F1;stroke-linecap:round;stroke-linejoin:round;enable-background:new    ;" d="
			M14.1,23.36c0,1.207-0.023,2.407-0.07,3.6h10.59l2.37-2.4v-1.2H14.1z"/>
		<path style="fill:none;stroke:#A1C2D8;stroke-linecap:round;stroke-linejoin:round;" d="M14.28,22.92h12.71V0.67"/>
		<path style="fill:none;stroke:#A1C2D8;stroke-linecap:round;stroke-linejoin:round;" d="M14.28,20.02h9.83V0.68"/>
		
			<line style="fill:none;stroke:#A1C2D8;stroke-linecap:round;stroke-linejoin:round;" x1="27.02" y1="22.92" x2="24.11" y2="20.02"/>
		
			<path style="opacity:0.5;fill:#D0E4F1;stroke:#D0E4F1;stroke-linecap:round;stroke-linejoin:round;enable-background:new    ;" d="
			M0.59,88c0,1.54-0.03,3.08-0.09,4.62h16.49l3.08-3.08V88H0.59z"/>
		<path style="fill:none;stroke:#A1C2D8;stroke-linecap:round;stroke-linejoin:round;" d="M1.22,88h18.89V38.36H1.19"/>
		<path style="fill:none;stroke:#A1C2D8;stroke-linecap:round;stroke-linejoin:round;" d="M0.99,84.28h15.39V42.05H1.2"/>
		
			<line style="fill:none;stroke:#A1C2D8;stroke-linecap:round;stroke-linejoin:round;" x1="20.11" y1="87.99" x2="16.38" y2="84.27"/>
		
			<line style="fill:none;stroke:#A1C2D8;stroke-linecap:round;stroke-linejoin:round;" x1="20.11" y1="38.36" x2="16.38" y2="42.08"/>
		<path style="fill:none;stroke:#A1C2D8;stroke-linecap:round;stroke-linejoin:round;" d="M9.11,66.61h2.49"/>
		<path style="fill:none;stroke:#A1C2D8;stroke-linecap:round;stroke-linejoin:round;" d="M4.73,66.61h2.8"/>
		<path style="fill:none;stroke:#A1C2D8;stroke-linecap:round;stroke-linejoin:round;" d="M1.33,66.61H3.2"/>
		<path style="fill:none;stroke:#A1C2D8;stroke-linecap:round;stroke-linejoin:round;" d="M8.43,63.96h4.36"/>
		<path style="fill:none;stroke:#A1C2D8;stroke-linecap:round;stroke-linejoin:round;" d="M1.33,63.96H6.9"/>
		<path style="fill:none;stroke:#A1C2D8;stroke-linecap:round;stroke-linejoin:round;" d="M5.08,61.28h4.27"/>
		<path style="fill:none;stroke:#A1C2D8;stroke-linecap:round;stroke-linejoin:round;" d="M1.33,61.28h2.22"/>
		
			<ellipse style="fill:none;stroke:#A1C2D8;stroke-linecap:round;stroke-linejoin:round;" cx="5.61" cy="47.82" rx="2.06" ry="2.54"/>
		<path style="fill:none;stroke:#A1C2D8;stroke-linecap:round;stroke-linejoin:round;" d="M9.24,47.38h1.75"/>
		
			<line style="fill:none;stroke:#A1C2D8;stroke-linecap:round;stroke-linejoin:round;" x1="9.24" y1="48.75" x2="10.48" y2="48.75"/>
		
			<line style="fill:none;stroke:#A1C2D8;stroke-linecap:round;stroke-linejoin:round;" x1="9.24" y1="50.05" x2="13.85" y2="50.05"/>
		
			<path style="opacity:0.5;fill:#D0E4F1;stroke:#D0E4F1;stroke-linecap:round;stroke-linejoin:round;enable-background:new    ;" d="
			M250.34,100.63h-17.87V53.17h-0.2l-3.59,3.59v47.85h21.74C250.41,102.82,250.38,101.02,250.34,100.63z"/>
		<path style="fill:none;stroke:#A1C2D8;stroke-linecap:round;stroke-linejoin:round;" d="M250.6,53.28h-17.95v47.17h18"/>
		<path style="fill:none;stroke:#A1C2D8;stroke-linecap:round;stroke-linejoin:round;" d="M250.77,56.82h-14.58v40.09h14.43"/>
		
			<line style="fill:none;stroke:#A1C2D8;stroke-linecap:round;stroke-linejoin:round;" x1="232.65" y1="53.28" x2="236.19" y2="56.82"/>
		
			<line style="fill:none;stroke:#A1C2D8;stroke-linecap:round;stroke-linejoin:round;" x1="232.65" y1="100.45" x2="236.19" y2="96.91"/>
		<path style="fill:none;stroke:#A1C2D8;stroke-linecap:round;stroke-linejoin:round;" d="M241.12,66.28
			c-0.53,0.092-0.892,0.587-0.82,1.12c0,0.315,0.106,0.622,0.3,0.87c0.212,0.263,0.532,0.414,0.87,0.41
			c0.53-0.099,0.985-0.439,1.23-0.92c1.22-1.76,2.34-3.58,3.46-5.4v6.32"/>
		
			<line style="fill:none;stroke:#A1C2D8;stroke-linecap:round;stroke-linejoin:round;" x1="247.19" y1="68.73" x2="245.05" y2="68.73"/>
		
			<line style="fill:none;stroke:#A1C2D8;stroke-linecap:round;stroke-linejoin:round;" x1="245.92" y1="66.29" x2="243.78" y2="66.29"/>
		
			<line style="fill:none;stroke:#A1C2D8;stroke-linecap:round;stroke-linejoin:round;" x1="240.3" y1="75.96" x2="247.55" y2="75.96"/>
		
			<line style="fill:none;stroke:#A1C2D8;stroke-linecap:round;stroke-linejoin:round;" x1="240.3" y1="78.55" x2="242.71" y2="78.55"/>
		
			<line style="fill:none;stroke:#A1C2D8;stroke-linecap:round;stroke-linejoin:round;" x1="240.3" y1="81.14" x2="247.06" y2="81.14"/>
		
			<line style="fill:none;stroke:#A1C2D8;stroke-linecap:round;stroke-linejoin:round;" x1="240.3" y1="83.73" x2="244.15" y2="83.73"/>
		
			<line style="fill:none;stroke:#A1C2D8;stroke-linecap:round;stroke-linejoin:round;" x1="240.3" y1="86.32" x2="241.98" y2="86.32"/>
		<path style="fill:none;stroke:#A1C2D8;stroke-linecap:round;stroke-linejoin:round;" d="M230.21,13.72v26.84h21.85"/>
		<path style="fill:none;stroke:#A1C2D8;stroke-linecap:round;stroke-linejoin:round;" d="M234.06,13.72v23h18"/>
		
			<line style="fill:none;stroke:#A1C2D8;stroke-linecap:round;stroke-linejoin:round;" x1="230.21" y1="40.55" x2="234.06" y2="36.7"/>
		
			<line style="fill:none;stroke:#A1C2D8;stroke-linecap:round;stroke-linejoin:round;" x1="238.36" y1="31.73" x2="247.2" y2="31.73"/>
		
			<line style="fill:none;stroke:#A1C2D8;stroke-linecap:round;stroke-linejoin:round;" x1="238.36" y1="28.93" x2="242.38" y2="28.93"/>
		
			<line style="fill:none;stroke:#A1C2D8;stroke-linecap:round;stroke-linejoin:round;" x1="238.36" y1="26.11" x2="241.09" y2="26.11"/>
		
			<path style="opacity:0.5;fill:#D0E4F1;stroke:#D0E4F1;stroke-linecap:round;stroke-linejoin:round;enable-background:new    ;" d="
			M39.64,15.72v-15l-3.28-0.1v18.49h40.52l2.26-2.26v-1.13H39.64z"/>
		<path style="fill:none;stroke:#A1C2D8;stroke-linecap:round;stroke-linejoin:round;" d="M39.89,0.65v14.8h38.89V0.62"/>
		<path style="fill:none;stroke:#A1C2D8;stroke-linecap:round;stroke-linejoin:round;" d="M42.81,0.5v12h33.06V0.62"/>
		
			<line style="fill:none;stroke:#A1C2D8;stroke-linecap:round;stroke-linejoin:round;" x1="39.89" y1="15.44" x2="42.81" y2="12.53"/>
		
			<line style="fill:none;stroke:#A1C2D8;stroke-linecap:round;stroke-linejoin:round;" x1="78.79" y1="15.44" x2="75.87" y2="12.53"/>
		<line style="fill:none;stroke:#A1C2D8;stroke-linecap:round;stroke-linejoin:round;" x1="56.92" y1="8.09" x2="61.76" y2="8.09"/>
		<line style="fill:none;stroke:#A1C2D8;stroke-linecap:round;stroke-linejoin:round;" x1="53.12" y1="6.12" x2="65.56" y2="6.12"/>
		<line style="fill:none;stroke:#A1C2D8;stroke-linecap:round;stroke-linejoin:round;" x1="55.02" y1="4.01" x2="63.66" y2="4.01"/>
		<g style="opacity:0.5;">
			<polygon style="fill:#D0E4F1;" points="40.57,73.09 40.57,80.76 108.22,148.42 141.45,148.42 40.57,47.53 			"/>
			<polygon style="fill:#D0E4F1;" points="190.4,148.42 75.26,33.28 59.39,33.28 174.53,148.42 			"/>
		</g>
	</g>
</g>
</svg>
