<?xml version="1.0" encoding="iso-8859-1"?>
<!-- Generator: Adobe Illustrator 23.0.0, SVG Export Plug-In . SVG Version: 6.00 Build 0)  -->
<svg version="1.1" id="Layer_1" xmlns="http://www.w3.org/2000/svg" xmlns:xlink="http://www.w3.org/1999/xlink" x="0px" y="0px"
	 viewBox="0 0 217.13 129.92" style="enable-background:new 0 0 217.13 129.92;" xml:space="preserve">
<title>home-illustration-benefits-budget</title>
<g>
	<g>
		<rect x="90.33" y="84.39" style="fill:#D0E4F1;" width="17.48" height="38.12"/>
		<polygon style="fill:#D0E4F1;" points="95.46,112.1 90.33,112.1 90.33,88.02 95.46,91.38 		"/>
		<rect x="90.33" y="84.39" style="fill:none;stroke:#3F555A;stroke-miterlimit:10;" width="17.48" height="38.12"/>
		<rect x="82.04" y="112.1" style="fill:#D0E4F1;" width="34.05" height="12.81"/>
		<rect x="82.04" y="117.32" style="fill:#D0E4F1;" width="34.05" height="2.96"/>
		<rect x="82.04" y="112.1" style="fill:none;stroke:#3F555A;stroke-miterlimit:10;" width="34.05" height="12.81"/>
		
			<rect x="96.03" y="14.822" transform="matrix(0.2052 -0.9787 0.9787 0.2052 0.4378 162.6331)" style="fill:#D0E4F1;" width="8.64" height="132.45"/>
		<polygon style="fill:#D0E4F1;" points="166.07,96.29 36.44,69.12 37.62,63.49 37.62,63.49 35.85,71.94 165.48,99.11 167.25,90.65 
			167.25,90.65 		"/>
		<rect x="162.63" y="77.09" style="fill:#D0E4F1;stroke:#3F555A;stroke-miterlimit:10;" width="5.08" height="11.74"/>
		<rect x="31.84" y="50.59" style="fill:#D0E4F1;stroke:#3F555A;stroke-miterlimit:10;" width="5.08" height="11.74"/>
		<rect x="65.02" y="119.9" style="fill:#D0E4F1;" width="68.1" height="9.52"/>
		<path style="fill:#FFDC64;stroke:#3F555A;stroke-miterlimit:10;" d="M35.03,44.21V3.65c0-1.74-5.5-2.65-13.18-2.65
			S8.08,2.41,8.08,4.15L8.15,44c0,1.74,6.26,3.15,13.94,3.15c2.937,0.025,5.869-0.222,8.76-0.74L35.03,44.21z"/>
		<path style="fill:#FFDC64;stroke:#3F555A;stroke-miterlimit:10;" d="M59.55,44.88l0.19-20.66c0-1.74-6.15-3.15-13.83-3.15
			s-13.87,1.41-13.87,3.15v20.5c0,1.74,6.23,3.15,13.92,3.15c3.006,0.03,6.008-0.215,8.97-0.73L59.55,44.88z"/>
		<path style="fill:#FFDC64;stroke:#3F555A;stroke-miterlimit:10;" d="M19.57,37.75l-0.15,4.74c0,1.74,6.15,3.15,13.83,3.15
			s13.87-1.41,13.87-3.15v-3.76c0-1.74-6.23-3.15-13.92-3.15c-2.996-0.025-5.989,0.223-8.94,0.74L19.57,37.75z"/>
		<path style="fill:#FFDC64;stroke:#3F555A;stroke-miterlimit:10;" d="M8.16,30.09c0,0.75,1.16,1.44,3.11,2"/>
		<path style="fill:#FFDC64;stroke:#3F555A;stroke-miterlimit:10;" d="M31.93,32.28c-3.259,0.673-6.582,0.991-9.91,0.95
			c-3.621,0.067-7.236-0.322-10.76-1.16"/>
		<path style="fill:#FFDC64;stroke:#3F555A;stroke-miterlimit:10;" d="M8.15,23.83c0,0.75,1.18,1.44,3.13,2"/>
		<path style="fill:#FFDC64;stroke:#3F555A;stroke-miterlimit:10;" d="M31.93,26.08c-3.218,0.631-6.491,0.929-9.77,0.89
			c-3.654,0.067-7.302-0.322-10.86-1.16"/>
		<path style="fill:#FFDC64;stroke:#3F555A;stroke-miterlimit:10;" d="M8.16,37.17c0,0.75,1.16,1.44,3.11,2
			c2.767,0.683,5.601,1.058,8.45,1.12"/>
		<path style="fill:#FFDC64;stroke:#3F555A;stroke-miterlimit:10;" d="M31.93,5.62c1.88-0.54,3-1.23,3-2c0-1.74-6-3.14-13.41-3.14
			S8.15,1.9,8.15,3.64c0,0.75,1.13,1.44,3,2"/>
		<path style="fill:#FFDC64;stroke:#3F555A;stroke-miterlimit:10;" d="M31.93,5.62c-3.405,0.837-6.904,1.227-10.41,1.16
			c-3.506,0.067-7.005-0.323-10.41-1.16"/>
		<path style="fill:#FFDC64;stroke:#3F555A;stroke-miterlimit:10;" d="M8.15,43.66c0,0.75,1.16,1.44,3.11,2"/>
		<path style="fill:#FFDC64;stroke:#3F555A;stroke-miterlimit:10;" d="M19.16,46.73c-2.664-0.083-5.313-0.448-7.9-1.09"/>
		<path style="fill:#FFDC64;stroke:#3F555A;stroke-miterlimit:10;" d="M8.16,17.16c0,0.75,1.16,1.44,3.11,2"/>
		<path style="fill:#FFDC64;stroke:#3F555A;stroke-miterlimit:10;" d="M32.78,19.14c0.767-0.193,1.506-0.482,2.2-0.86"/>
		<path style="fill:#FFDC64;stroke:#3F555A;stroke-miterlimit:10;" d="M32.78,19.14c-3.52,0.837-7.132,1.227-10.75,1.16
			c-3.621,0.067-7.236-0.322-10.76-1.16"/>
		<path style="fill:#FFDC64;stroke:#3F555A;stroke-miterlimit:10;" d="M8.16,10.49c0,0.75,1.16,1.44,3.11,2"/>
		<path style="fill:#FFDC64;stroke:#3F555A;stroke-miterlimit:10;" d="M32.78,12.47c0.771-0.195,1.513-0.487,2.21-0.87"/>
		<path style="fill:#FFDC64;stroke:#3F555A;stroke-miterlimit:10;" d="M32.78,12.47c-3.52,0.837-7.132,1.227-10.75,1.16
			c-3.621,0.067-7.236-0.322-10.76-1.16"/>
		<line style="fill:none;stroke:#3F555A;stroke-miterlimit:10;" x1="8.17" y1="3.51" x2="8.18" y2="43.93"/>
		<path style="fill:#FFDC64;stroke:#3F555A;stroke-miterlimit:10;" d="M31.93,30.84c0,0.75,1.16,1.44,3.11,2"/>
		<path style="fill:#FFDC64;stroke:#3F555A;stroke-miterlimit:10;" d="M56.54,32.82c1.94-0.54,3.11-1.23,3.11-2"/>
		<path style="fill:#FFDC64;stroke:#3F555A;stroke-miterlimit:10;" d="M59.65,34.8"/>
		<path style="fill:#FFDC64;stroke:#3F555A;stroke-miterlimit:10;" d="M31.93,34.8"/>
		<path style="fill:#FFDC64;stroke:#3F555A;stroke-miterlimit:10;" d="M56.54,32.82c-3.519,0.844-7.131,1.24-10.75,1.18
			c-3.622,0.061-7.237-0.336-10.76-1.18"/>
		<path style="fill:#FFDC64;stroke:#3F555A;stroke-miterlimit:10;" d="M46.93,41.06c3.259,0.078,6.512-0.312,9.66-1.16
			c1.089-0.283,2.109-0.783,3-1.47"/>
		<path style="fill:#FFDC64;stroke:#3F555A;stroke-miterlimit:10;" d="M56.53,25.88c1.94-0.54,3.11-1.23,3.11-2
			c0-1.74-6.21-3.14-13.86-3.14s-13.85,1.42-13.85,3.16c0,0.75,1.16,1.44,3.11,2"/>
		<path style="fill:#FFDC64;stroke:#3F555A;stroke-miterlimit:10;" d="M56.53,25.88c-3.522,0.823-7.134,1.2-10.75,1.12
			c-3.621,0.067-7.236-0.322-10.76-1.16"/>
		<path style="fill:#FFDC64;stroke:#3F555A;stroke-miterlimit:10;" d="M56.53,46.39c1.94-0.54,3.11-1.23,3.11-2"/>
		<path style="fill:#FFDC64;stroke:#3F555A;stroke-miterlimit:10;" d="M56.53,46.39c-3.143,0.761-6.366,1.147-9.6,1.15"/>
		<line style="fill:none;stroke:#3F555A;stroke-miterlimit:10;" x1="59.7" y1="23.83" x2="59.64" y2="44.4"/>
		<line style="fill:none;stroke:#3F555A;stroke-miterlimit:10;" x1="31.9" y1="23.78" x2="31.88" y2="38.02"/>
		<path style="fill:#FFDC64;stroke:#3F555A;stroke-miterlimit:10;" d="M19.42,44.44c0,0.75,1.16,1.44,3.11,2"/>
		<path style="fill:#FFDC64;stroke:#3F555A;stroke-miterlimit:10;" d="M44.04,46.42c1.94-0.54,3.11-1.23,3.11-2"/>
		<path style="fill:#FFDC64;stroke:#3F555A;stroke-miterlimit:10;" d="M44.04,46.42c-3.524,0.838-7.139,1.227-10.76,1.16
			c-3.621,0.067-7.236-0.322-10.76-1.16"/>
		<path style="fill:#FFDC64;stroke:#3F555A;stroke-miterlimit:10;" d="M44.03,39.48c1.94-0.54,3.11-1.23,3.11-2
			c0-1.74-6.21-3.14-13.86-3.14s-13.87,1.43-13.87,3.16c0,0.75,1.16,1.44,3.11,2"/>
		<path style="fill:#FFDC64;stroke:#3F555A;stroke-miterlimit:10;" d="M44.03,39.48c-3.524,0.838-7.139,1.227-10.76,1.16
			c-3.621,0.067-7.236-0.322-10.76-1.16"/>
		<line style="fill:none;stroke:#3F555A;stroke-miterlimit:10;" x1="47.19" y1="37.44" x2="47.13" y2="44.44"/>
		<line style="fill:none;stroke:#3F555A;stroke-miterlimit:10;" x1="19.43" y1="37.19" x2="19.42" y2="44.44"/>
		<path style="fill:#FFFFFF;" d="M0.5,44.71h67.76l0,0l0,0c0,4.297-3.483,7.78-7.78,7.78H8.28C3.983,52.49,0.5,49.007,0.5,44.71
			L0.5,44.71L0.5,44.71z"/>
		<path style="fill:#D0E4F1;" d="M8.15,44.7H0.64c0,4.297,3.483,7.78,7.78,7.78h52.21c1.53,0.001,3.027-0.451,4.3-1.3H15.81
			C12.017,51.179,8.78,48.44,8.15,44.7z"/>
		<path style="fill:#D0E4F1;stroke:#3F555A;stroke-miterlimit:10;" d="M214.48,8.32v58.79H114.02V8.32
			c-0.09-2.207,1.626-4.07,3.834-4.16c0.105-0.004,0.211-0.004,0.316,0h92c2.302-0.077,4.23,1.726,4.308,4.028
			C214.479,8.232,214.48,8.276,214.48,8.32z"/>
		<path style="fill:#D0E4F1;stroke:#3F555A;stroke-miterlimit:10;" d="M216.63,67.11v2.75c-0.818,0.943-2.036,1.441-3.28,1.34
			h-98.42c-1.309,0.102-2.594-0.39-3.5-1.34v-2.75H216.63z"/>
		<rect x="118.12" y="8.91" style="fill:#FFFFFF;stroke:#3F555A;stroke-miterlimit:10;" width="91.83" height="53.89"/>
		<polygon style="fill:#D0E4F1;" points="121.42,8.91 118.12,8.91 118.12,62.8 209.95,62.8 209.95,59.27 121.42,59.27 		"/>
		<circle style="fill:none;stroke:#A1C2D8;stroke-linecap:round;stroke-linejoin:round;" cx="163.54" cy="6.55" r="0.64"/>
		<circle style="fill:none;stroke:#A1C2D8;stroke-linecap:round;stroke-linejoin:round;" cx="165.28" cy="6.55" r="0.21"/>
		<path style="fill:#FFFFFF;stroke:#3F555A;stroke-miterlimit:10;" d="M149.17,67.11c0.687,0.902,1.737,1.455,2.87,1.51h24.35
			c1.133-0.055,2.183-0.608,2.87-1.51H149.17z"/>
		<path style="fill:none;stroke:#109995;stroke-linecap:round;stroke-linejoin:round;" d="M191.82,21.38
			c0.297,1.597,0.464,3.216,0.5,4.84c0.118,3.582-0.452,7.153-1.68,10.52c-1.666,4.478-4.497,8.431-8.2,11.45
			c-0.66,0.54-1.05,0.82-1.05,0.82"/>
		<path style="fill:#19BC9C;stroke:#109995;stroke-linecap:round;stroke-linejoin:round;" d="M198.56,24.24
			c-0.481,0.725-1.242,1.217-2.1,1.36c-0.842-0.056-1.636-0.41-2.24-1c0.499-0.688,1.231-1.171,2.06-1.36
			c0.566-0.039,1.128,0.12,1.59,0.45C198.121,23.845,198.353,24.03,198.56,24.24z"/>
		<path style="fill:#19BC9C;stroke:#109995;stroke-linecap:round;stroke-linejoin:round;" d="M185.93,25.18
			c0.647,0.469,1.421,0.731,2.22,0.75c0.814-0.089,1.566-0.477,2.11-1.09c-0.636-0.519-1.44-0.786-2.26-0.75
			C187.214,24.232,186.492,24.613,185.93,25.18z"/>
		<path style="fill:none;stroke:#3F555A;stroke-miterlimit:10;" d="M0.5,44.71h67.76l0,0l0,0c0,4.297-3.483,7.78-7.78,7.78H8.28
			C3.983,52.49,0.5,49.007,0.5,44.71L0.5,44.71L0.5,44.71z"/>
		<path style="fill:none;stroke:#109995;stroke-linecap:round;stroke-linejoin:round;" d="M165.93,49.38
			c-1.135,0.041-2.149-0.705-2.45-1.8c-0.301,1.095-1.315,1.841-2.45,1.8h-7.76c-1.353,0-2.45-1.097-2.45-2.45V43
			c0-1.353,1.097-2.45,2.45-2.45h0.59l3.85-9.9c-0.422-0.457-0.655-1.058-0.65-1.68v-3.89c0-1.353,1.097-2.45,2.45-2.45h7.76
			c1.353,0,2.45,1.097,2.45,2.45V29c0.005,0.622-0.228,1.223-0.65,1.68l3.85,9.9h0.59c1.33,0.016,2.404,1.09,2.42,2.42v3.89
			c0,1.353-1.097,2.45-2.45,2.45L165.93,49.38z"/>
		<path style="fill:#19BC9C;stroke:#109995;stroke-linecap:round;stroke-linejoin:round;" d="M171.41,43l-5.48-14.08h1.48V25h-7.76
			v3.89h1.48L155.68,43h-2.29v3.89h7.76V43h-1.73l1-2.45h6.3l1,2.45h-1.79v3.89h7.76V43H171.41z M161.87,36.65l1.63-4.21l1.63,4.21
			H161.87z"/>
		
			<line style="fill:none;stroke:#109995;stroke-linecap:round;stroke-linejoin:round;" x1="163.54" y1="47.58" x2="163.54" y2="42.96"/>
		<path style="fill:none;stroke:#109995;stroke-linecap:round;stroke-linejoin:round;" d="M135.25,21.38
			c-0.297,1.597-0.464,3.216-0.5,4.84c-0.118,3.582,0.452,7.153,1.68,10.52c1.666,4.478,4.497,8.431,8.2,11.45
			c0.66,0.54,1.05,0.82,1.05,0.82"/>
		<path style="fill:#19BC9C;stroke:#109995;stroke-linecap:round;stroke-linejoin:round;" d="M128.51,24.24
			c0.481,0.725,1.242,1.217,2.1,1.36c0.842-0.056,1.636-0.41,2.24-1c-0.499-0.688-1.231-1.171-2.06-1.36
			c-0.566-0.039-1.128,0.12-1.59,0.45C128.949,23.845,128.717,24.03,128.51,24.24z"/>
		<path style="fill:#19BC9C;stroke:#109995;stroke-linecap:round;stroke-linejoin:round;" d="M128.52,30.09
			c0.591,0.638,1.421,1,2.29,1c0.811-0.216,1.519-0.712,2-1.4c-0.208-0.196-0.432-0.373-0.67-0.53
			c-0.461-0.321-1.008-0.496-1.57-0.5c-0.567,0.055-1.098,0.306-1.5,0.71C128.856,29.585,128.672,29.827,128.52,30.09z"/>
		<path style="fill:#19BC9C;stroke:#109995;stroke-linecap:round;stroke-linejoin:round;" d="M129.54,36
			c0.693,0.542,1.584,0.764,2.45,0.61c0.779-0.35,1.407-0.967,1.77-1.74c-0.242-0.155-0.496-0.288-0.76-0.4
			c-0.508-0.239-1.076-0.32-1.63-0.23c-0.554,0.164-1.032,0.518-1.35,1C129.828,35.472,129.667,35.727,129.54,36z"/>
		<path style="fill:#19BC9C;stroke:#109995;stroke-linecap:round;stroke-linejoin:round;" d="M131.63,41.63
			c0.76,0.386,1.646,0.444,2.45,0.16c0.693-0.478,1.193-1.187,1.41-2c-0.769-0.351-1.638-0.415-2.45-0.18
			C131.93,40,131.63,41.63,131.63,41.63z"/>
		<path style="fill:#19BC9C;stroke:#109995;stroke-linecap:round;stroke-linejoin:round;" d="M134.69,46.79
			c0.292,0.09,0.595,0.14,0.9,0.15c0.572,0.046,1.141-0.109,1.61-0.44c0.423-0.372,0.723-0.863,0.86-1.41
			c0.08-0.278,0.136-0.563,0.17-0.85c-0.823-0.204-1.691-0.108-2.45,0.27C135.109,45.081,134.713,45.91,134.69,46.79z"/>
		<path style="fill:#19BC9C;stroke:#109995;stroke-linecap:round;stroke-linejoin:round;" d="M138.57,51.32
			c0.885,0.119,1.779-0.151,2.45-0.74c0.491-0.717,0.704-1.588,0.6-2.45c-0.286-0.023-0.574-0.023-0.86,0
			c-0.561,0.057-1.091,0.284-1.52,0.65c-0.39,0.415-0.623,0.952-0.66,1.52C138.526,50.638,138.522,50.981,138.57,51.32z"/>
		<path style="fill:#19BC9C;stroke:#109995;stroke-linecap:round;stroke-linejoin:round;" d="M141.13,25.18
			c-0.647,0.469-1.421,0.731-2.22,0.75c-0.814-0.089-1.566-0.477-2.11-1.09c0.636-0.519,1.44-0.786,2.26-0.75
			C139.845,24.232,140.568,24.613,141.13,25.18z"/>
		<path style="fill:#19BC9C;stroke:#109995;stroke-linecap:round;stroke-linejoin:round;" d="M141.24,30
			c-0.179,0.183-0.373,0.35-0.58,0.5c-0.424,0.334-0.921,0.563-1.45,0.67c-0.54,0.077-1.091,0.001-1.59-0.22
			c-0.248-0.101-0.483-0.232-0.7-0.39c0.17-0.21,0.365-0.398,0.58-0.56c0.427-0.338,0.939-0.549,1.48-0.61
			c0.538-0.032,1.076,0.064,1.57,0.28C140.789,29.761,141.019,29.871,141.24,30z"/>
		<path style="fill:#19BC9C;stroke:#109995;stroke-linecap:round;stroke-linejoin:round;" d="M142.33,34.48
			c-0.136,0.21-0.287,0.41-0.45,0.6c-0.329,0.423-0.749,0.765-1.23,1c-0.506,0.197-1.056,0.249-1.59,0.15
			c-0.262-0.039-0.517-0.113-0.76-0.22c0.12-0.236,0.268-0.458,0.44-0.66c0.342-0.423,0.796-0.742,1.31-0.92
			c0.518-0.144,1.062-0.168,1.59-0.07C141.873,34.382,142.103,34.422,142.33,34.48z"/>
		<path style="fill:#19BC9C;stroke:#109995;stroke-linecap:round;stroke-linejoin:round;" d="M144.42,38.61
			c-0.084,0.241-0.188,0.475-0.31,0.7c-0.234,0.482-0.576,0.903-1,1.23c-0.453,0.307-0.983,0.48-1.53,0.5
			c-0.266,0.033-0.534,0.033-0.8,0c0.06-0.26,0.151-0.511,0.27-0.75c0.232-0.504,0.603-0.93,1.07-1.23
			c0.47-0.26,0.994-0.407,1.53-0.43C143.906,38.601,144.163,38.594,144.42,38.61z"/>
		<path style="fill:#19BC9C;stroke:#109995;stroke-linecap:round;stroke-linejoin:round;" d="M147.39,42.19
			c-0.068,0.79-0.363,1.544-0.85,2.17c-0.571,0.595-1.346,0.952-2.17,1c-0.002-0.27,0.031-0.539,0.1-0.8
			c0.118-0.533,0.385-1.022,0.77-1.41c0.402-0.358,0.881-0.618,1.4-0.76C146.885,42.305,147.135,42.238,147.39,42.19z"/>
		<path style="fill:#19BC9C;stroke:#109995;stroke-linecap:round;stroke-linejoin:round;" d="M198.54,30.09
			c-0.591,0.638-1.421,1-2.29,1c-0.811-0.216-1.519-0.712-2-1.4c0.208-0.196,0.432-0.373,0.67-0.53
			c0.461-0.321,1.008-0.496,1.57-0.5c0.567,0.055,1.098,0.306,1.5,0.71C198.204,29.585,198.388,29.827,198.54,30.09z"/>
		<path style="fill:#19BC9C;stroke:#109995;stroke-linecap:round;stroke-linejoin:round;" d="M197.52,36
			c-0.693,0.542-1.584,0.764-2.45,0.61c-0.779-0.35-1.407-0.967-1.77-1.74c0.242-0.155,0.496-0.288,0.76-0.4
			c0.508-0.239,1.076-0.32,1.63-0.23c0.554,0.164,1.032,0.518,1.35,1C197.232,35.472,197.393,35.727,197.52,36z"/>
		<path style="fill:#19BC9C;stroke:#109995;stroke-linecap:round;stroke-linejoin:round;" d="M195.45,41.63
			c-0.76,0.386-1.646,0.444-2.45,0.16c-0.693-0.478-1.193-1.187-1.41-2c0.769-0.351,1.638-0.415,2.45-0.18
			C195.11,40,195.45,41.63,195.45,41.63z"/>
		<path style="fill:#19BC9C;stroke:#109995;stroke-linecap:round;stroke-linejoin:round;" d="M192.38,46.79
			c-0.292,0.09-0.595,0.14-0.9,0.15c-0.551,0.032-1.098-0.123-1.55-0.44c-0.423-0.372-0.723-0.863-0.86-1.41
			c-0.08-0.278-0.136-0.563-0.17-0.85c0.823-0.204,1.691-0.108,2.45,0.27C191.998,45.092,192.372,45.919,192.38,46.79z"/>
		<path style="fill:#19BC9C;stroke:#109995;stroke-linecap:round;stroke-linejoin:round;" d="M188.46,51.32
			c-0.885,0.119-1.779-0.151-2.45-0.74c-0.491-0.717-0.704-1.588-0.6-2.45c0.286-0.023,0.574-0.023,0.86,0
			c0.561,0.057,1.091,0.284,1.52,0.65c0.39,0.415,0.623,0.952,0.66,1.52C188.504,50.638,188.508,50.981,188.46,51.32z"/>
		<path style="fill:#19BC9C;stroke:#109995;stroke-linecap:round;stroke-linejoin:round;" d="M185.83,30
			c0.179,0.183,0.373,0.35,0.58,0.5c0.424,0.334,0.921,0.563,1.45,0.67c0.54,0.077,1.091,0.001,1.59-0.22
			c0.248-0.101,0.483-0.232,0.7-0.39c-0.17-0.21-0.365-0.398-0.58-0.56c-0.427-0.338-0.939-0.549-1.48-0.61
			c-0.538-0.032-1.076,0.064-1.57,0.28C186.281,29.761,186.051,29.871,185.83,30z"/>
		<path style="fill:#19BC9C;stroke:#109995;stroke-linecap:round;stroke-linejoin:round;" d="M184.73,34.48
			c0.136,0.21,0.287,0.41,0.45,0.6c0.329,0.423,0.749,0.765,1.23,1c0.506,0.197,1.056,0.249,1.59,0.15
			c0.262-0.039,0.517-0.113,0.76-0.22c-0.12-0.236-0.268-0.458-0.44-0.66c-0.342-0.423-0.796-0.742-1.31-0.92
			c-0.518-0.144-1.062-0.168-1.59-0.07C185.187,34.382,184.957,34.422,184.73,34.48z"/>
		<path style="fill:#19BC9C;stroke:#109995;stroke-linecap:round;stroke-linejoin:round;" d="M182.65,38.61
			c0.084,0.241,0.188,0.475,0.31,0.7c0.234,0.482,0.576,0.903,1,1.23c0.453,0.307,0.983,0.48,1.53,0.5
			c0.266,0.033,0.534,0.033,0.8,0c-0.06-0.26-0.151-0.511-0.27-0.75c-0.238-0.506-0.616-0.933-1.09-1.23
			c-0.47-0.26-0.994-0.407-1.53-0.43C183.151,38.602,182.9,38.596,182.65,38.61z"/>
		<path style="fill:#19BC9C;stroke:#109995;stroke-linecap:round;stroke-linejoin:round;" d="M179.68,42.19
			c0.068,0.79,0.363,1.544,0.85,2.17c0.571,0.595,1.346,0.952,2.17,1c0.002-0.27-0.031-0.539-0.1-0.8
			c-0.119-0.533-0.386-1.022-0.77-1.41c-0.402-0.358-0.881-0.618-1.4-0.76C180.185,42.305,179.935,42.238,179.68,42.19z"/>
		<rect x="65.02" y="126.46" style="fill:#D0E4F1;" width="68.1" height="2.96"/>
		
			<rect x="96.03" y="14.822" transform="matrix(0.2052 -0.9787 0.9787 0.2052 0.4378 162.6331)" style="fill:none;stroke:#3F555A;stroke-miterlimit:10;" width="8.64" height="132.45"/>
		<rect x="65.02" y="119.9" style="fill:none;stroke:#3F555A;stroke-miterlimit:10;" width="68.1" height="9.52"/>
		<circle style="fill:#FFFFFF;" cx="99.07" cy="78.99" r="12.96"/>
		<path style="fill:#D0E4F1;" d="M88.81,76.58c-0.003-3.08,1.097-6.06,3.1-8.4c-6.086,3.809-7.933,11.83-4.124,17.916
			c3.809,6.086,11.83,7.933,17.916,4.124c1.219-0.763,2.303-1.723,3.208-2.84c-6.007,3.932-14.065,2.251-17.997-3.756
			c-1.371-2.094-2.108-4.54-2.123-7.044H88.81z"/>
		<circle style="fill:none;stroke:#3F555A;stroke-miterlimit:10;" cx="99.07" cy="78.99" r="12.96"/>
		<circle style="fill:#FFFFFF;" cx="165.17" cy="93.97" r="8.07"/>
		<path style="fill:#D0E4F1;" d="M158.84,92.27c-0.002-1.915,0.683-3.767,1.93-5.22c-3.696,2.471-4.688,7.471-2.217,11.166
			s7.471,4.688,11.166,2.217c0.602-0.403,1.148-0.885,1.621-1.434c-3.705,2.458-8.701,1.447-11.158-2.258
			c-0.875-1.32-1.342-2.868-1.342-4.452V92.27z"/>
		<circle style="fill:none;stroke:#3F555A;stroke-miterlimit:10;" cx="165.17" cy="93.97" r="8.07"/>
		<circle style="fill:#FFFFFF;" cx="34.38" cy="67.46" r="8.07"/>
		<path style="fill:#D0E4F1;" d="M28.3,66c-0.002-1.915,0.683-3.767,1.93-5.22c-3.724,2.428-4.774,7.416-2.346,11.14
			c2.428,3.724,7.416,4.774,11.14,2.346c0.667-0.435,1.265-0.966,1.776-1.576c-3.705,2.458-8.701,1.447-11.158-2.258
			C28.77,69.118,28.304,67.577,28.3,66z"/>
		<circle style="fill:none;stroke:#3F555A;stroke-miterlimit:10;" cx="34.38" cy="67.46" r="8.07"/>
		<path style="fill:#FFFFFF;" d="M131.29,71.21h67.76l0,0l0,0c0.006,4.297-3.473,7.784-7.77,7.79c-0.003,0-0.007,0-0.01,0h-52.2
			c-4.297,0-7.78-3.483-7.78-7.78l0,0l0,0L131.29,71.21z"/>
		<path style="fill:#D0E4F1;" d="M139.06,71.49h-7.5c0,4.297,3.483,7.78,7.78,7.78h52.21c1.53,0.001,3.027-0.451,4.3-1.3h-49.13
			C142.927,77.969,139.69,75.23,139.06,71.49z"/>
		<path style="fill:none;stroke:#3F555A;stroke-miterlimit:10;" d="M131.29,71.21h67.76l0,0l0,0c0.006,4.297-3.473,7.784-7.77,7.79
			c-0.003,0-0.007,0-0.01,0h-52.2c-4.297,0-7.78-3.483-7.78-7.78l0,0l0,0L131.29,71.21z"/>
	</g>
</g>
</svg>
