<?xml version="1.0" encoding="iso-8859-1"?>
<!-- Generator: Adobe Illustrator 23.0.0, SVG Export Plug-In . SVG Version: 6.00 Build 0)  -->
<svg version="1.1" id="Layer_1" xmlns="http://www.w3.org/2000/svg" xmlns:xlink="http://www.w3.org/1999/xlink" x="0px" y="0px"
	 viewBox="0 0 52.33 74.41" style="enable-background:new 0 0 52.33 74.41;" xml:space="preserve">
<title>home-illustration-benefits-educators-tab-2</title>
<circle style="fill:#FFFFFF;" cx="26.16" cy="48.25" r="26.01"/>
<path style="fill:#A1C2D8;" d="M26.16,74.41C11.712,74.404,0.004,62.688,0.01,48.24c0.006-14.448,11.722-26.156,26.17-26.15
	c14.444,0.006,26.15,11.716,26.15,26.16C52.313,62.695,40.605,74.399,26.16,74.41z M26.16,22.41c-14.277,0-25.85,11.573-25.85,25.85
	s11.573,25.85,25.85,25.85s25.85-11.573,25.85-25.85c0-0.003,0-0.007,0-0.01C51.993,33.98,40.43,22.417,26.16,22.4V22.41z"/>
<path style="fill:#F56F40;" d="M49.31,60.09l-4.53-2.15c-2.88-0.55-13.74-2.42-13.74-2.42v-0.43c0,1-1.89,1.79-4.21,1.79
	s-4.28-1-4.28-2l-12.5,3.32l-5.92,3.89l1.55,2.21c8.852,11.306,25.194,13.295,36.5,4.443C45.158,66.411,47.591,63.458,49.31,60.09z"
	/>
<path style="fill:#F56F40;" d="M49.31,60.09l-4.53-2.15c-2.88-0.55-13.74-2.42-13.74-2.42v-0.43c0,1-1.89,1.79-4.21,1.79
	s-4.28-1-4.28-2l-12.5,3.32l-5.61,3.66l1.25,2.41c8.85,11.308,25.191,13.3,36.499,4.45C45.161,66.394,47.591,63.449,49.31,60.09z"/>
<rect x="22.49" y="50.28" style="fill:#FFFFFF;" width="8.56" height="6.81"/>
<path style="fill:#D0E4F0;" d="M22.23,50.66c0,1,1.12,3.46,4.6,4.19c2.28,0.48,4.21-0.8,4.21-1.79V48.2h-8.55L22.23,50.66z"/>
<path style="fill:#40565B;" d="M31.04,55.68c-0.088,0-0.16-0.072-0.16-0.16v-5.24c0-0.088,0.071-0.16,0.16-0.16
	c0.088,0,0.16,0.071,0.16,0.16c0,0,0,0,0,0v5.25C31.195,55.614,31.125,55.68,31.04,55.68z"/>
<path style="fill:#40565B;" d="M22.49,55.68c-0.088,0-0.16-0.072-0.16-0.16v-5.24c0-0.088,0.072-0.16,0.16-0.16
	c0.088,0,0.16,0.072,0.16,0.16v5.25C22.645,55.614,22.575,55.68,22.49,55.68z"/>
<polyline style="fill:#D0E4F0;" points="14.3,31.08 6.75,31.55 6.75,30.79 14.3,30.32 "/>
<path style="fill:#40565B;" d="M6.25,31.73c-0.074-0.003-0.136-0.057-0.15-0.13l-0.2-0.74c-0.017-0.087,0.04-0.171,0.127-0.187
	c0.008-0.001,0.015-0.002,0.023-0.003l8.2-0.5c0.082-0.011,0.158,0.047,0.169,0.129c0.001,0.007,0.001,0.014,0.001,0.021
	c0.006,0.088-0.061,0.164-0.149,0.17c0,0,0,0-0.001,0l-8,0.49l0.09,0.44l7.91-0.49c0.082-0.011,0.158,0.047,0.169,0.129
	c0.001,0.007,0.001,0.014,0.001,0.021c0.006,0.088-0.061,0.164-0.149,0.17c0,0,0,0-0.001,0l-8,0.49L6.25,31.73z"/>
<polyline style="fill:#D0E4F0;" points="39.3,31.09 46.85,31.56 46.85,30.8 39.3,30.33 "/>
<path style="fill:#40565B;" d="M47.34,31.74L47.34,31.74l-8-0.49c-0.088,0-0.16-0.072-0.16-0.16c0-0.088,0.072-0.16,0.16-0.16
	l7.91,0.49l0.09-0.44l-8-0.49c-0.088,0-0.16-0.072-0.16-0.16c0-0.088,0.072-0.16,0.16-0.16l8.2,0.5
	c0.088,0.004,0.157,0.079,0.153,0.167c0,0.008-0.001,0.015-0.003,0.023l-0.15,0.75c-0.013,0.087-0.095,0.147-0.183,0.134
	C47.352,31.743,47.346,31.742,47.34,31.74z"/>
<circle style="fill:#F36F42;" cx="4.68" cy="31.51" r="2.03"/>
<circle style="fill:#F36F42;" cx="48.91" cy="31.51" r="2.03"/>
<path style="fill:#E7F1F8;" d="M12.8,14.02l3,33.38c0.126,1.691,1.534,2.999,3.23,3h15.66c1.696-0.001,3.104-1.309,3.23-3l3-33.38
	c0.16-1.782-1.155-3.357-2.937-3.517c-0.097-0.009-0.195-0.013-0.293-0.013H16.03c-1.789-0.002-3.241,1.448-3.243,3.237
	C12.787,13.825,12.791,13.923,12.8,14.02z"/>
<path style="fill:#FFFFFF;" d="M21.67,18.37c-2.538-1.27-5.469-1.51-8.18-0.67c0.2,4.16,0.6,9.56,1.33,15.13
	c0.694,0.092,1.37,0.294,2,0.6c6.36,3.66,14.08,7.86,21.27,9.11c0.5-5.6,1-11.13,1.5-16.73C33.32,24.89,27.54,21.31,21.67,18.37z"/>
<path style="fill:#40565B;" d="M31.97,41.83c0-0.144-0.116-0.26-0.26-0.26h-9.22c-0.144,0-0.26,0.116-0.26,0.26
	c0,0.111,0.073,0.209,0.18,0.24c0.56,0.75,1.75,2.07,5,2.06c1.667-0.047,3.24-0.786,4.34-2.04
	C31.88,42.074,31.976,41.961,31.97,41.83z M22.97,42.09h7.93c-0.951,0.876-2.188,1.377-3.48,1.41
	c-1.602,0.134-3.191-0.373-4.42-1.41H22.97z"/>
<path style="fill:#A1C2D8;" d="M23,42.09h7.9c-0.951,0.876-2.188,1.377-3.48,1.41C25.818,43.634,24.229,43.127,23,42.09z"/>
<polygon style="fill:#F36F42;" points="27.31,34.07 28.46,35.34 29.62,36.62 27.31,36.62 25,36.62 26.16,35.34 "/>
<path style="fill:#C84A27;" d="M29.62,36.77H25c-0.088-0.003-0.158-0.076-0.155-0.165c0.001-0.035,0.013-0.068,0.035-0.095
	l2.31-2.55c0.061-0.064,0.163-0.065,0.226-0.004c0.001,0.001,0.003,0.002,0.004,0.004l2.31,2.55c0.055,0.069,0.044,0.17-0.025,0.225
	c-0.027,0.022-0.061,0.034-0.095,0.035H29.62z M25.36,36.45h3.9l-2-2.16L25.36,36.45z"/>
<path style="fill:#40565B;" d="M20.43,34.09c-0.148-0.003-0.293-0.044-0.42-0.12c-0.479-0.359-0.734-0.944-0.67-1.54V26.8
	c-1.064,0.22-2.167-0.107-2.94-0.87c-0.041-0.079-0.01-0.175,0.069-0.216c0.055-0.029,0.122-0.022,0.171,0.016
	c0.92,1.12,2.76,0.74,2.78,0.74h1c0.585,0,1.06,0.475,1.06,1.06v4.92c0.085,0.576-0.135,1.155-0.58,1.53
	C20.757,34.062,20.594,34.1,20.43,34.09z M19.64,26.77L19.64,26.77v5.61c-0.054,0.484,0.142,0.963,0.52,1.27
	c0.163,0.099,0.367,0.099,0.53,0c0.371-0.307,0.559-0.782,0.5-1.26v-4.86c0-0.409-0.331-0.74-0.74-0.74L19.64,26.77z"/>
<path style="fill:#40565B;" d="M34.74,34.09c-0.148-0.003-0.293-0.044-0.42-0.12c-0.483-0.357-0.741-0.943-0.68-1.54V26.8
	c-1.064,0.22-2.167-0.107-2.94-0.87c-0.041-0.079-0.01-0.175,0.069-0.216c0.055-0.029,0.122-0.022,0.171,0.016
	c0.92,1.12,2.76,0.74,2.78,0.74h1c0.585,0,1.06,0.475,1.06,1.06l0,0v4.92c0.069,0.589-0.179,1.17-0.65,1.53
	C35.011,34.048,34.877,34.086,34.74,34.09z M33.9,26.78L33.9,26.78v5.61c-0.054,0.484,0.142,0.963,0.52,1.27
	c0.163,0.099,0.367,0.099,0.53,0c0.371-0.307,0.559-0.782,0.5-1.26v-4.87c0-0.409-0.331-0.74-0.74-0.74l0,0L33.9,26.78z"/>
<path style="fill:#40565B;" d="M33.76,26.62h1c0.497,0,0.9,0.403,0.9,0.9c0,0,0,0,0,0v4.92c0,2-1.85,2-1.86,0v-5.62"/>
<path style="fill:#40565B;" d="M19.45,26.62h1c0.497,0,0.9,0.403,0.9,0.9v4.92c0,2-1.85,2-1.86,0v-5.62"/>
<path style="fill:#40565B;" d="M34.69,50.51H19.01c-1.759,0.006-3.229-1.337-3.38-3.09l-3-33.38l0,0
	c-0.166-1.87,1.216-3.521,3.087-3.687c0.098-0.009,0.195-0.013,0.293-0.013h21.66c1.878,0.004,3.397,1.529,3.393,3.407
	c0,0.098-0.005,0.196-0.013,0.293l-3,33.38C37.9,49.165,36.441,50.506,34.69,50.51z M12.96,14l2.94,33.39
	c0.131,1.596,1.469,2.821,3.07,2.81h15.72c1.601,0.011,2.939-1.214,3.07-2.81l3-33.38c0.149-1.694-1.104-3.189-2.798-3.338
	c-0.09-0.008-0.181-0.012-0.272-0.012H16.03c-1.701-0.001-3.081,1.377-3.082,3.078c0,0.091,0.004,0.181,0.012,0.272L12.96,14z"/>
<path style="fill:#40565B;" d="M18.5,22.63c-0.088-0.003-0.157-0.078-0.154-0.166c0.001-0.039,0.017-0.076,0.044-0.104
	c0.877-0.764,2.183-0.764,3.06,0c0.069,0.055,0.08,0.156,0.025,0.225s-0.156,0.08-0.225,0.025l0,0c-0.752-0.652-1.868-0.652-2.62,0
	C18.592,22.635,18.544,22.642,18.5,22.63z"/>
<path style="fill:#40565B;" d="M33.24,22.63c-0.088-0.003-0.157-0.078-0.154-0.166c0.001-0.039,0.017-0.076,0.044-0.104
	c0.877-0.764,2.183-0.764,3.06,0c0.069,0.055,0.08,0.156,0.025,0.225c-0.055,0.069-0.156,0.08-0.225,0.025l0,0
	c-0.752-0.652-1.868-0.652-2.62,0C33.332,22.635,33.284,22.642,33.24,22.63z"/>
<path style="fill:#C84A27;" d="M48.9,33.7c-1.21,0-2.19-0.98-2.19-2.19s0.98-2.19,2.19-2.19c1.21,0,2.19,0.98,2.19,2.19c0,0,0,0,0,0
	C51.09,32.72,50.11,33.7,48.9,33.7z M48.9,29.64c-1.033,0-1.87,0.837-1.87,1.87c0,1.033,0.837,1.87,1.87,1.87
	c1.033,0,1.87-0.837,1.87-1.87l0,0C50.77,30.477,49.933,29.64,48.9,29.64C48.9,29.64,48.9,29.64,48.9,29.64z"/>
<path style="fill:#C84A27;" d="M4.68,33.7c-1.209-0.017-2.176-1.01-2.16-2.22c0.017-1.209,1.01-2.176,2.22-2.16
	c1.198,0.016,2.16,0.992,2.16,2.19c0,1.21-0.98,2.19-2.19,2.19C4.7,33.7,4.69,33.7,4.68,33.7z M4.68,29.64
	c-1.033,0-1.87,0.837-1.87,1.87s0.837,1.87,1.87,1.87s1.87-0.837,1.87-1.87C6.55,30.477,5.713,29.64,4.68,29.64
	C4.68,29.64,4.68,29.64,4.68,29.64z"/>
<path style="fill:#F36F42;" d="M45.2,12.09c-0.617-0.237-1.248-0.434-1.89-0.59c-0.596-1.885-2.314-3.191-4.29-3.26
	c-0.161-0.68-0.368-1.348-0.62-2c-1.54-4-4.4-6.67-6.38-5.91c-1.27,0.49-1.87,2.24-1.74,4.49c-2.33-0.17-4.16,0.43-4.66,1.73
	c-0.76,2,1.89,4.84,5.91,6.38c0.862,0.331,1.752,0.582,2.66,0.75l0.07,0.06c0.339,1.932,1.849,3.446,3.78,3.79
	c0.13,0.48,0.29,1,0.47,1.45c1.54,4,4.4,6.67,6.38,5.91c1.3-0.5,1.9-2.33,1.73-4.66c2.25,0.13,4-0.47,4.49-1.74
	C51.9,16.47,49.23,13.62,45.2,12.09z"/>
<path style="fill:#C84A27;" d="M44.19,25.15c-2,0-4.44-2.52-5.83-6.14c-0.18-0.47-0.34-1-0.48-1.47c-0.025-0.047-0.025-0.103,0-0.15
	c0.044-0.021,0.096-0.021,0.14,0c2.451,0.444,4.798-1.183,5.242-3.634c0.132-0.726,0.083-1.473-0.142-2.176
	c-0.024-0.085,0.025-0.174,0.11-0.198c0.026-0.008,0.054-0.008,0.08-0.002c0.649,0.156,1.287,0.353,1.91,0.59l0,0
	c4.1,1.57,6.79,4.52,6,6.59c-0.48,1.26-2.15,1.95-4.47,1.85c0.14,2.42-0.55,4.14-1.84,4.64C44.678,25.125,44.434,25.159,44.19,25.15
	z M38.25,17.69c0.12,0.41,0.25,0.81,0.4,1.2c1.51,3.94,4.28,6.55,6.18,5.82c1.17-0.45,1.8-2.17,1.63-4.5
	c-0.016-0.038-0.016-0.082,0-0.12c0.038-0.017,0.082-0.017,0.12,0c2.27,0.13,3.9-0.48,4.34-1.64c0.73-1.9-1.88-4.67-5.82-6.18
	c-0.527-0.199-1.064-0.37-1.61-0.51c0.646,2.588-0.928,5.21-3.516,5.856c-0.381,0.095-0.772,0.143-1.164,0.144
	C38.622,17.748,38.435,17.725,38.25,17.69z"/>
<path style="fill:#C84A27;" d="M34.25,13.86c-0.036,0.013-0.074,0.013-0.11,0l0,0l0,0c-0.912-0.175-1.805-0.433-2.67-0.77
	c-4.1-1.57-6.79-4.52-6-6.59c0.5-1.3,2.23-2,4.64-1.84c-0.1-2.32,0.59-4,1.85-4.47c2.06-0.79,5,1.9,6.59,6
	c0.257,0.671,0.468,1.36,0.63,2.06c0.021,0.044,0.021,0.096,0,0.14c-0.03,0.041-0.079,0.063-0.13,0.06H38.9
	c-2.48-0.018-4.504,1.978-4.522,4.458c-0.002,0.279,0.022,0.557,0.072,0.832c0.013,0.068-0.019,0.137-0.08,0.17L34.25,13.86z
	 M29.53,4.86c-2,0-3.37,0.61-3.77,1.66c-0.73,1.9,1.88,4.67,5.82,6.18c0.801,0.31,1.628,0.551,2.47,0.72
	c-0.011-0.186-0.011-0.374,0-0.56c0.038-2.619,2.151-4.732,4.77-4.77c-0.152-0.618-0.342-1.226-0.57-1.82
	c-1.51-3.94-4.28-6.55-6.18-5.82C30.9,0.87,30.3,2.5,30.43,4.77c0.006,0.088-0.061,0.164-0.149,0.17c-0.007,0-0.014,0-0.021,0
	L29.53,4.86z"/>
<path style="fill:#C84A27;" d="M38.9,17.73c-2.668,0-4.83-2.162-4.83-4.83s2.162-4.83,4.83-4.83s4.83,2.162,4.83,4.83
	C43.725,15.565,41.565,17.724,38.9,17.73z M38.9,8.38c-2.496,0-4.52,2.024-4.52,4.52s2.024,4.52,4.52,4.52s4.52-2.024,4.52-4.52
	S41.396,8.38,38.9,8.38C38.9,8.38,38.9,8.38,38.9,8.38z"/>
<path style="fill:#F4947A;" d="M44.78,57.95c-2.88-0.56-13.74-2.43-13.74-2.43v-0.43c0,1-1.89,1.8-4.21,1.8s-4.28-1-4.28-2
	l-12.5,3.32l-5.92,3.88c1.653,2.632,3.763,4.949,6.23,6.84c1.27-1.37,3.13-3.35,4.51-4.67c4.88-4.71,14.09-4.87,23.5-4.44
	c1.7,0.08,9.39-0.42,9.39-0.42L44.78,57.95z"/>
<path style="fill:#C84A27;" d="M26.16,74.41c-8.052,0.021-15.66-3.691-20.6-10.05L4,62.14c-0.058-0.062-0.058-0.158,0-0.22
	l5.93-3.78l0,0l12.5-3.32c0.044-0.021,0.096-0.021,0.14,0c0.039,0.031,0.062,0.08,0.06,0.13c0,0.84,1.8,1.81,4.12,1.81
	s4.15-0.74,4.15-1.67c0-0.088,0.071-0.16,0.16-0.16c0.088,0,0.16,0.071,0.16,0.16c0,0,0,0,0,0v0.26c1.25,0.21,11,1.88,13.61,2.41
	l0,0l4.53,2.15c0.076,0.04,0.107,0.133,0.07,0.21C44.988,68.89,35.991,74.415,26.16,74.41z M4.35,62.09l1.46,2.07
	c8.792,11.241,25.032,13.226,36.273,4.434c2.912-2.278,5.301-5.154,7.007-8.434l-4.36-2.07c-2.78-0.55-13.25-2.34-13.7-2.42
	c-0.52,0.82-2.18,1.4-4.2,1.4c-2.22,0-4.19-0.88-4.42-1.93l-12.3,3.27L4.35,62.09z"/>
</svg>
