<?xml version="1.0" encoding="iso-8859-1"?>
<!-- Generator: Adobe Illustrator 23.0.0, SVG Export Plug-In . SVG Version: 6.00 Build 0)  -->
<svg version="1.1" id="Layer_1" xmlns="http://www.w3.org/2000/svg" xmlns:xlink="http://www.w3.org/1999/xlink" x="0px" y="0px"
	 viewBox="0 0 166 180" style="enable-background:new 0 0 166 180;" xml:space="preserve">
<title>Group</title>
<desc>Created with Sketch.</desc>
<g id="Symbols">
	<g transform="translate(-60.000000, 0.000000)">
		<g id="Group" transform="translate(60.000000, 0.000000)">
			<path id="Fill-1" style="fill-rule:evenodd;clip-rule:evenodd;fill:#1785C8;" d="M41.101,179.082
				c-5.39-2.248-12.758-67.945-0.372-75.887l15.457-3.514h12.944c0,0,9.845,0.984,13.238,1.559
				c3.393,0.575,10.143,7.128,11.026,19.266c0.884,12.138-7.558,52.653-13.398,55.35"/>
			<path id="Fill-3" style="fill-rule:evenodd;clip-rule:evenodd;fill:#3AA1D6;" d="M82.369,101.24
				c-3.393-0.575-13.239-1.558-13.239-1.558H56.186l-15.457,3.514c-0.546,0.35-1.053,0.819-1.525,1.385
				c-0.298,8.624,9.377,18.911,23.63,24.343c11.764,4.483,18.628,30.681,25.43,26.791c0.602-2.962,5.652-22.259,5.13-35.209
				C92.51,108.368,85.762,101.814,82.369,101.24"/>
			<path id="Stroke-5" style="fill:none;stroke:#164A67;stroke-width:0.989;stroke-linecap:round;stroke-linejoin:round;" d="
				M41.101,179.082c-5.39-2.248-12.758-67.945-0.372-75.887l15.457-3.514h12.944c0,0,9.845,0.984,13.238,1.559
				c3.393,0.575,10.143,7.128,11.026,19.266c0.884,12.138-7.558,52.653-13.398,55.35"/>
			<path id="Fill-7" style="fill-rule:evenodd;clip-rule:evenodd;fill:#D0E4F0;" d="M69.13,101.884
				c-4.315,2.764-8.629,2.764-12.944,0V91.848l12.944-2.474V101.884z"/>
			<path id="Stroke-9" style="fill:none;stroke:#40565B;stroke-width:0.989;stroke-linecap:round;stroke-linejoin:round;" d="
				M69.13,101.884c-4.315,2.764-8.629,2.764-12.944,0V91.848l12.944-2.474V101.884z"/>
			<path id="Fill-11" style="fill-rule:evenodd;clip-rule:evenodd;fill:#D0E4F0;" d="M93.436,65.215
				c-2.528-10.318-9.252-17.604-15.283-16.78c-18.665,1.886-37.108,5.553-55.076,10.95l9.498,38.88c0,0,27.887-4.192,54.367-10.878
				C93.176,85.858,96.065,75.933,93.436,65.215"/>
			<path id="Fill-13" style="fill-rule:evenodd;clip-rule:evenodd;fill:#F36F42;" d="M28.871,46.049
				c1.961-3.821,4.976-6.998,8.687-9.156c3.462-2.078,7.744-3.422,11.809-2.549c3.733,0.852,6.944,3.216,8.867,6.529
				c1.858,3.166,2.523,6.729,2.689,10.262c0.093,0.932,0.005,1.873-0.26,2.771c-0.302,0.741-0.712,1.432-1.219,2.051
				c-2.948,3.959-6.641,7.853-11.732,9.219c-3.914,1.071-8.155,0.451-11.936-0.935c-3.414-1.255-6.538-3.492-8.124-6.552
				C25.944,54.3,27.316,49.215,28.871,46.049"/>
			<path id="Stroke-15" style="fill:none;stroke:#C84A27;stroke-width:0.989;stroke-linecap:round;stroke-linejoin:round;" d="
				M28.871,46.049c1.961-3.821,4.976-6.998,8.687-9.156c3.462-2.078,7.744-3.422,11.809-2.549c3.733,0.852,6.944,3.216,8.867,6.529
				c1.858,3.166,2.523,6.729,2.689,10.262c0.093,0.932,0.005,1.873-0.26,2.771c-0.302,0.741-0.712,1.432-1.219,2.051
				c-2.948,3.959-6.641,7.853-11.732,9.219c-3.914,1.071-8.155,0.451-11.936-0.935c-3.414-1.255-6.538-3.492-8.124-6.552
				C25.944,54.3,27.316,49.215,28.871,46.049z"/>
			<path id="Stroke-17" style="fill:none;stroke:#C84A27;stroke-width:0.989;stroke-linecap:round;stroke-linejoin:round;" d="
				M28.871,46.049c1.961-3.821,4.976-6.998,8.687-9.156c3.462-2.078,7.744-3.422,11.809-2.549c3.733,0.852,6.944,3.216,8.867,6.529
				c1.858,3.166,2.523,6.729,2.689,10.262c0.093,0.932,0.005,1.873-0.26,2.771c-0.302,0.741-0.712,1.432-1.219,2.051
				c-2.948,3.959-6.641,7.853-11.732,9.219c-3.914,1.071-8.155,0.451-11.936-0.935c-3.414-1.255-6.538-3.492-8.124-6.552
				C25.944,54.3,27.316,49.215,28.871,46.049z"/>
			<path id="Fill-19" style="fill-rule:evenodd;clip-rule:evenodd;fill:#F36F42;" d="M35.889,57.734
				c3.129-11.649,8.49-25.028,18.178-33.715c2.033-1.923,4.432-3.414,7.055-4.385c3.182-1.08,6.667-0.816,9.65,0.732
				c3.93,2.048,5.737,6.219,6.217,10.404c0.88,7.641-0.912,15.576-3.686,23.027L35.889,57.734z"/>
			<path id="Stroke-21" style="fill:none;stroke:#C84A27;stroke-width:0.989;stroke-linecap:round;stroke-linejoin:round;" d="
				M35.889,57.734c3.129-11.649,8.49-25.028,18.178-33.715c2.033-1.923,4.432-3.414,7.055-4.385c3.182-1.08,6.667-0.816,9.65,0.732
				c3.93,2.048,5.737,6.219,6.217,10.404c0.88,7.641-0.912,15.576-3.686,23.027L35.889,57.734z"/>
			<path id="Stroke-23" style="fill:none;stroke:#C84A27;stroke-width:0.989;stroke-linecap:round;stroke-linejoin:round;" d="
				M35.889,57.734c3.129-11.649,8.49-25.028,18.178-33.715c2.033-1.923,4.432-3.414,7.055-4.385c3.182-1.08,6.667-0.816,9.65,0.732
				c3.93,2.048,5.737,6.219,6.217,10.404c0.88,7.641-0.912,15.576-3.686,23.027L35.889,57.734z"/>
			<path id="Fill-25" style="fill-rule:evenodd;clip-rule:evenodd;fill:#F36F42;" d="M105.536,58.75
				c2.243-0.229,4.247,1.404,4.476,3.649c0.228,2.245-1.404,4.251-3.647,4.48c-2.243,0.229-4.247-1.404-4.475-3.649
				C101.661,60.985,103.294,58.98,105.536,58.75"/>
			<path id="Stroke-27" style="fill:none;stroke:#C84A27;stroke-width:0.989;stroke-linecap:round;stroke-linejoin:round;" d="
				M105.536,58.75c2.243-0.229,4.247,1.404,4.476,3.649c0.228,2.245-1.404,4.251-3.647,4.48c-2.243,0.229-4.247-1.404-4.475-3.649
				C101.661,60.985,103.294,58.98,105.536,58.75z"/>
			<path id="Fill-29" style="fill-rule:evenodd;clip-rule:evenodd;fill:#D0E4F0;" d="M83.393,67.651
				c-0.366-0.048-0.622-0.384-0.574-0.749c0.031-0.236,0.185-0.437,0.403-0.529l19.838-3.444c0.367,0.031,0.64,0.352,0.611,0.72
				c-0.02,0.24-0.168,0.452-0.387,0.553l-19.837,3.444L83.393,67.651z"/>
			<path id="Stroke-31" style="fill:none;stroke:#40565B;stroke-width:0.989;" d="M83.393,67.651
				c-0.366-0.048-0.622-0.384-0.574-0.749c0.031-0.236,0.185-0.437,0.403-0.529l19.838-3.444c0.367,0.031,0.64,0.352,0.611,0.72
				c-0.02,0.24-0.168,0.452-0.387,0.553l-19.837,3.444L83.393,67.651z"/>
			<path id="Fill-33" style="fill-rule:evenodd;clip-rule:evenodd;fill:#FFFFFF;" d="M27.024,65.613
				c-0.817-0.185-1.657-0.241-2.491-0.168l5.201,21.219c3.359-1.764,6.98-2.976,10.725-3.586
				c17.031-3.277,35.395,2.558,52.239-1.177c1.882-4.219,2.301-10.303,0.705-16.69c-0.923-3.926-2.614-7.631-4.974-10.9
				C72.074,66.063,47.579,69.062,27.024,65.613"/>
			<path id="Fill-35" style="fill-rule:evenodd;clip-rule:evenodd;fill:#D0E4F0;" d="M78.154,48.435
				c-18.665,1.886-37.108,5.553-55.077,10.95l1.456,6.06c0.822-0.073,1.651-0.02,2.456,0.158
				c20.561,3.449,45.05,0.449,61.443-11.319C85.439,50.248,81.679,47.954,78.154,48.435"/>
			<path id="Stroke-37" style="fill:none;stroke:#40565B;stroke-width:0.989;stroke-linecap:round;stroke-linejoin:round;" d="
				M93.436,65.215c-2.528-10.318-9.252-17.604-15.283-16.78c-18.665,1.886-37.108,5.553-55.076,10.95l9.498,38.88
				c0,0,27.887-4.192,54.367-10.878C93.176,85.858,96.065,75.933,93.436,65.215z"/>
			<path id="Fill-39" style="fill-rule:evenodd;clip-rule:evenodd;fill:#A1C2D8;" d="M23.152,59.343
				c6.197-1.533,13.364,5.909,16.008,16.621c2.645,10.712-0.235,20.639-6.432,22.172c-6.196,1.532-13.364-5.909-16.008-16.621
				C14.075,70.802,16.954,60.876,23.152,59.343"/>
			<path id="Stroke-41" style="fill:none;stroke:#40565B;stroke-width:0.989;stroke-linecap:round;stroke-linejoin:round;" d="
				M23.152,59.343c6.197-1.533,13.364,5.909,16.008,16.621c2.645,10.712-0.235,20.639-6.432,22.172
				c-6.196,1.532-13.364-5.909-16.008-16.621C14.075,70.802,16.954,60.876,23.152,59.343z"/>
			<path id="Stroke-43" style="fill:none;stroke:#40565B;stroke-width:0.989;stroke-linecap:round;stroke-linejoin:round;" d="
				M23.152,59.343c6.197-1.533,13.364,5.909,16.008,16.621c2.645,10.712-0.235,20.639-6.432,22.172
				c-6.196,1.532-13.364-5.909-16.008-16.621C14.075,70.802,16.954,60.876,23.152,59.343z"/>
			<path id="Fill-45" style="fill-rule:evenodd;clip-rule:evenodd;fill:#40565B;" d="M49.847,69.609
				c-1.072,0.373-2.243-0.195-2.614-1.268l-0.003-0.008c-0.449-1.176-1.002-2.327-1.49-3.492c-0.436,0.153-0.78,0.494-0.938,0.928
				c-0.468,1.256,0.549,2.817,0.968,3.968c0.596,1.793,1.01,3.643,1.233,5.519c0.049,0.832,0.366,1.626,0.901,2.263
				c0.314,0.319,0.767,0.459,1.205,0.374c2.424-0.429,1.619-3.843,1.343-5.433C50.318,71.534,50.11,70.556,49.847,69.609"/>
			<path id="Fill-47" style="fill-rule:evenodd;clip-rule:evenodd;fill:#40565B;" d="M84.588,63.334
				c-0.964,0.298-1.988-0.242-2.285-1.209c-0.015-0.047-0.028-0.096-0.039-0.144c-0.388-1.182-0.91-2.35-1.298-3.532
				c-0.403,0.154-0.713,0.486-0.841,0.898c-0.423,1.244,0.47,2.832,0.836,3.989c0.527,1.812,0.889,3.668,1.082,5.546
				c0.037,0.821,0.31,1.614,0.789,2.282c0.259,0.315,0.665,0.47,1.067,0.407c2.163-0.362,1.478-3.788,1.234-5.387
				C84.99,65.226,84.81,64.258,84.588,63.334"/>
			<polygon id="Fill-49" style="fill-rule:evenodd;clip-rule:evenodd;fill:#F36F42;" points="61.96,69.391 68.971,68.178 
				64.395,62.894 			"/>
			
				<polygon id="Stroke-51" style="fill:none;stroke:#C84A27;stroke-width:0.989;stroke-linecap:round;stroke-linejoin:round;" points="
				61.96,69.391 68.971,68.178 64.395,62.894 			"/>
			<path id="Fill-53" style="fill-rule:evenodd;clip-rule:evenodd;fill:#A1C2D8;" d="M74.973,78.45
				c0.08-0.135,0.167-0.272,0.239-0.413c0.812-1.508,1.069-3.255,0.724-4.933c-6.367,0.596-12.644,1.93-18.704,3.972
				c0.377,1.162,1.001,2.229,1.827,3.128C64.082,78.082,69.612,77.473,74.973,78.45"/>
			<path id="Stroke-55" style="fill:none;stroke:#40565B;stroke-width:0.989;stroke-linecap:round;stroke-linejoin:round;" d="
				M74.973,78.45c0.08-0.135,0.167-0.272,0.239-0.413c0.812-1.508,1.069-3.255,0.724-4.933c-6.367,0.596-12.644,1.93-18.704,3.972
				c0.377,1.162,1.001,2.229,1.827,3.128C64.082,78.082,69.612,77.473,74.973,78.45z"/>
			<path id="Fill-57" style="fill-rule:evenodd;clip-rule:evenodd;fill:#F36F42;" d="M59.087,80.201
				c1.717,1.819,4.09,2.876,6.589,2.937c3.704,0.165,7.474-1.664,9.298-4.688C69.62,77.478,64.101,78.086,59.087,80.201"/>
			<path id="Stroke-59" style="fill:none;stroke:#C84A27;stroke-width:0.989;stroke-linecap:round;stroke-linejoin:round;" d="
				M59.087,80.201c1.717,1.819,4.09,2.876,6.589,2.937c3.704,0.165,7.474-1.664,9.298-4.688
				C69.62,77.478,64.101,78.086,59.087,80.201z"/>
			<path id="Stroke-61" style="fill:none;stroke:#40565B;stroke-width:0.989;stroke-linecap:round;stroke-linejoin:round;" d="
				M75.937,73.104c0.345,1.678,0.089,3.425-0.724,4.933c-1.717,3.276-5.67,5.277-9.536,5.101c-4.041-0.177-7.257-2.513-8.417-6.066
				C63.311,75.033,69.578,73.701,75.937,73.104z"/>
			<path id="Stroke-63" style="fill:none;stroke:#40565B;stroke-width:0.989;stroke-linecap:round;stroke-linejoin:round;" d="
				M76.895,53.315c0.471-1.216,1.84-1.821,3.055-1.349c0.241,0.094,0.464,0.226,0.662,0.392"/>
			<path id="Stroke-65" style="fill:none;stroke:#40565B;stroke-width:0.989;stroke-linecap:round;stroke-linejoin:round;" d="
				M41.574,60.811c0.471-1.216,1.84-1.821,3.055-1.349c0.241,0.094,0.464,0.226,0.662,0.392"/>
			<g id="Group-71" transform="translate(20.750000, 76.719560)">
				<path id="Fill-67" style="fill-rule:evenodd;clip-rule:evenodd;fill:#40565B;" d="M6.536,0.987
					C6.199,0.886,5.842,1.063,5.719,1.392l-4.834,14.4c0.12,0.122,0.223,0.257,0.309,0.405l0.072,0.046
					c0.225,0.186,0.436,0.389,0.631,0.606L6.95,1.824C7.062,1.478,6.878,1.107,6.536,0.987"/>
				<path id="Stroke-69" style="fill:none;stroke:#40565B;stroke-width:0.989;stroke-linecap:round;stroke-linejoin:round;" d="
					M6.536,0.987C6.199,0.886,5.842,1.063,5.719,1.392l-4.834,14.4c0.12,0.122,0.223,0.257,0.309,0.405l0.072,0.046
					c0.225,0.186,0.436,0.389,0.631,0.606L6.95,1.824C7.062,1.478,6.878,1.107,6.536,0.987z"/>
			</g>
			<path id="Fill-72" style="fill-rule:evenodd;clip-rule:evenodd;fill:#A1C2D8;" d="M7.479,83.294
				c-0.366-0.042-0.629-0.372-0.588-0.739c0.028-0.237,0.179-0.442,0.397-0.537l19.67-4.365c0.327-0.17,0.729-0.043,0.899,0.285
				c0.17,0.326,0.042,0.73-0.285,0.9c-0.103,0.053-0.216,0.079-0.332,0.074L7.579,83.284L7.479,83.294z"/>
			<path id="Stroke-74" style="fill:none;stroke:#40565B;stroke-width:0.989;stroke-linecap:round;stroke-linejoin:round;" d="
				M7.479,83.294c-0.366-0.042-0.629-0.372-0.588-0.739c0.028-0.237,0.179-0.442,0.397-0.537l19.67-4.365
				c0.327-0.17,0.729-0.043,0.899,0.285c0.17,0.326,0.042,0.73-0.285,0.9c-0.103,0.053-0.216,0.079-0.332,0.074L7.579,83.284
				L7.479,83.294z"/>
			<path id="Fill-76" style="fill-rule:evenodd;clip-rule:evenodd;fill:#F36F42;" d="M4.162,79.036
				c2.243-0.229,4.247,1.404,4.476,3.649c0.228,2.245-1.404,4.251-3.647,4.48c-2.243,0.229-4.247-1.404-4.475-3.649
				C0.287,81.271,1.919,79.265,4.162,79.036"/>
			<path id="Stroke-78" style="fill:none;stroke:#C84A27;stroke-width:0.989;stroke-linecap:round;stroke-linejoin:round;" d="
				M4.162,79.036c2.243-0.229,4.247,1.404,4.476,3.649c0.228,2.245-1.404,4.251-3.647,4.48c-2.243,0.229-4.247-1.404-4.475-3.649
				C0.287,81.271,1.919,79.265,4.162,79.036z"/>
			<path id="Stroke-80" style="fill:none;stroke:#A1C2D8;stroke-width:0.989;stroke-linecap:round;stroke-linejoin:round;" d="
				M131.006,0.495c-18.524,0-33.54,11.216-33.54,25.053c0,2.371,0.451,4.661,1.274,6.835l-6.096,15.712l16.408-3.616
				c5.884,3.811,13.555,6.122,21.953,6.122c18.524,0,33.54-11.217,33.54-25.054S149.529,0.495,131.006,0.495z"/>
			<g id="Clip-83">
			</g>
			<defs>
				<filter id="Adobe_OpacityMaskFilter" filterUnits="userSpaceOnUse" x="115.844" y="13.227" width="2.122" height="8.578">
					<feColorMatrix  type="matrix" values="1 0 0 0 0  0 1 0 0 0  0 0 1 0 0  0 0 0 1 0"/>
				</filter>
			</defs>
			<mask maskUnits="userSpaceOnUse" x="115.844" y="13.227" width="2.122" height="8.578" id="mask-2_1_">
				<g style="filter:url(#Adobe_OpacityMaskFilter);">
					<polygon id="path-1_1_" style="fill-rule:evenodd;clip-rule:evenodd;fill:#FFFFFF;" points="0,179.577 165.04,179.577 
						165.04,0 0,0 					"/>
				</g>
			</mask>
			<polygon id="Fill-82" style="mask:url(#mask-2_1_);fill-rule:evenodd;clip-rule:evenodd;fill:#40565B;" points="115.844,21.805 
				117.967,21.805 117.967,13.227 115.844,13.227 			"/>
			<defs>
				<filter id="Adobe_OpacityMaskFilter_1_" filterUnits="userSpaceOnUse" x="122.712" y="15.155" width="6.866" height="6.82">
					<feColorMatrix  type="matrix" values="1 0 0 0 0  0 1 0 0 0  0 0 1 0 0  0 0 0 1 0"/>
				</filter>
			</defs>
			<mask maskUnits="userSpaceOnUse" x="122.712" y="15.155" width="6.866" height="6.82" id="mask-2_2_">
				<g style="filter:url(#Adobe_OpacityMaskFilter_1_);">
					<polygon id="path-1_2_" style="fill-rule:evenodd;clip-rule:evenodd;fill:#FFFFFF;" points="0,179.577 165.04,179.577 
						165.04,0 0,0 					"/>
				</g>
			</mask>
			<path id="Fill-84" style="mask:url(#mask-2_2_);fill-rule:evenodd;clip-rule:evenodd;fill:#40565B;" d="M127.587,17.87
				c-0.222-0.538-0.734-0.879-1.388-0.879c-0.891,0-1.494,0.643-1.494,1.575c0,0.931,0.603,1.574,1.494,1.574
				c0.654,0,1.166-0.341,1.388-0.879h1.992c-0.276,1.6-1.586,2.716-3.38,2.716c-2.044,0-3.486-1.443-3.486-3.41
				c0-1.968,1.442-3.41,3.486-3.41c1.794,0,3.105,1.115,3.38,2.715H127.587z"/>
			<defs>
				<filter id="Adobe_OpacityMaskFilter_2_" filterUnits="userSpaceOnUse" x="130.314" y="15.155" width="6.944" height="6.82">
					<feColorMatrix  type="matrix" values="1 0 0 0 0  0 1 0 0 0  0 0 1 0 0  0 0 0 1 0"/>
				</filter>
			</defs>
			<mask maskUnits="userSpaceOnUse" x="130.314" y="15.155" width="6.944" height="6.82" id="mask-2_3_">
				<g style="filter:url(#Adobe_OpacityMaskFilter_2_);">
					<polygon id="path-1_3_" style="fill-rule:evenodd;clip-rule:evenodd;fill:#FFFFFF;" points="0,179.577 165.04,179.577 
						165.04,0 0,0 					"/>
				</g>
			</mask>
			<path id="Fill-85" style="mask:url(#mask-2_3_);fill-rule:evenodd;clip-rule:evenodd;fill:#40565B;" d="M135.293,18.565
				c0-0.932-0.603-1.574-1.494-1.574c-0.89,0-1.494,0.642-1.494,1.574c0,0.932,0.604,1.574,1.494,1.574
				C134.691,20.138,135.293,19.496,135.293,18.565z M137.259,21.804h-1.808v-1.01h-0.026c-0.314,0.708-1.048,1.181-2.005,1.181
				c-1.376,0-3.106-1.01-3.106-3.41c0-1.967,1.442-3.41,3.485-3.41c2.044,0,3.459,1.351,3.459,3.475V21.804z"/>
			<defs>
				<filter id="Adobe_OpacityMaskFilter_3_" filterUnits="userSpaceOnUse" x="138.546" y="15.155" width="6.394" height="6.649">
					<feColorMatrix  type="matrix" values="1 0 0 0 0  0 1 0 0 0  0 0 1 0 0  0 0 0 1 0"/>
				</filter>
			</defs>
			<mask maskUnits="userSpaceOnUse" x="138.546" y="15.155" width="6.394" height="6.649" id="mask-2_4_">
				<g style="filter:url(#Adobe_OpacityMaskFilter_3_);">
					<polygon id="path-1_4_" style="fill-rule:evenodd;clip-rule:evenodd;fill:#FFFFFF;" points="0,179.577 165.04,179.577 
						165.04,0 0,0 					"/>
				</g>
			</mask>
			<path id="Fill-86" style="mask:url(#mask-2_4_);fill-rule:evenodd;clip-rule:evenodd;fill:#40565B;" d="M142.975,21.804v-3.358
				c0-1.023-0.498-1.456-1.232-1.456c-0.733,0-1.231,0.433-1.231,1.456v3.358h-1.965v-3.358c0-2.177,1.284-3.291,3.196-3.291
				s3.197,1.102,3.197,3.291v3.358H142.975z"/>
			<defs>
				<filter id="Adobe_OpacityMaskFilter_4_" filterUnits="userSpaceOnUse" x="115.346" y="28.236" width="6.944" height="9.483">
					<feColorMatrix  type="matrix" values="1 0 0 0 0  0 1 0 0 0  0 0 1 0 0  0 0 0 1 0"/>
				</filter>
			</defs>
			<mask maskUnits="userSpaceOnUse" x="115.346" y="28.236" width="6.944" height="9.483" id="mask-2_5_">
				<g style="filter:url(#Adobe_OpacityMaskFilter_4_);">
					<polygon id="path-1_5_" style="fill-rule:evenodd;clip-rule:evenodd;fill:#FFFFFF;" points="0,179.577 165.04,179.577 
						165.04,0 0,0 					"/>
				</g>
			</mask>
			<path id="Fill-87" style="mask:url(#mask-2_5_);fill-rule:evenodd;clip-rule:evenodd;fill:#40565B;" d="M120.325,34.309
				c0-0.932-0.603-1.574-1.494-1.574c-0.89,0-1.494,0.642-1.494,1.574s0.604,1.574,1.494,1.574
				C119.722,35.882,120.325,35.24,120.325,34.309z M122.29,34.244c0,2.124-1.415,3.475-3.459,3.475c-2.043,0-3.485-1.443-3.485-3.41
				c0-2.4,1.729-3.41,3.106-3.41c0.825,0,1.48,0.328,1.847,0.84h0.027v-3.502h1.965V34.244z"/>
			<defs>
				<filter id="Adobe_OpacityMaskFilter_5_" filterUnits="userSpaceOnUse" x="123.315" y="30.899" width="6.971" height="6.82">
					<feColorMatrix  type="matrix" values="1 0 0 0 0  0 1 0 0 0  0 0 1 0 0  0 0 0 1 0"/>
				</filter>
			</defs>
			<mask maskUnits="userSpaceOnUse" x="123.315" y="30.899" width="6.971" height="6.82" id="mask-2_6_">
				<g style="filter:url(#Adobe_OpacityMaskFilter_5_);">
					<polygon id="path-1_6_" style="fill-rule:evenodd;clip-rule:evenodd;fill:#FFFFFF;" points="0,179.577 165.04,179.577 
						165.04,0 0,0 					"/>
				</g>
			</mask>
			<path id="Fill-88" style="mask:url(#mask-2_6_);fill-rule:evenodd;clip-rule:evenodd;fill:#40565B;" d="M128.294,34.309
				c0-0.932-0.603-1.574-1.494-1.574c-0.89,0-1.494,0.642-1.494,1.574s0.604,1.574,1.494,1.574
				C127.692,35.882,128.294,35.24,128.294,34.309 M126.8,37.719c-2.043,0-3.485-1.443-3.485-3.41c0-1.967,1.442-3.41,3.485-3.41
				c2.044,0,3.486,1.443,3.486,3.41C130.286,36.276,128.845,37.719,126.8,37.719"/>
			<defs>
				<filter id="Adobe_OpacityMaskFilter_6_" filterUnits="userSpaceOnUse" x="134.732" y="27.96" width="2.516" height="9.588">
					<feColorMatrix  type="matrix" values="1 0 0 0 0  0 1 0 0 0  0 0 1 0 0  0 0 0 1 0"/>
				</filter>
			</defs>
			<mask maskUnits="userSpaceOnUse" x="134.732" y="27.96" width="2.516" height="9.588" id="mask-2_7_">
				<g style="filter:url(#Adobe_OpacityMaskFilter_6_);">
					<polygon id="path-1_7_" style="fill-rule:evenodd;clip-rule:evenodd;fill:#FFFFFF;" points="0,179.577 165.04,179.577 
						165.04,0 0,0 					"/>
				</g>
			</mask>
			<path id="Fill-89" style="mask:url(#mask-2_7_);fill-rule:evenodd;clip-rule:evenodd;fill:#40565B;" d="M135.007,37.549h1.965
				V31.07h-1.965V37.549z M134.732,29.22c0-0.708,0.55-1.26,1.258-1.26c0.707,0,1.258,0.552,1.258,1.26s-0.55,1.258-1.258,1.258
				C135.282,30.478,134.732,29.928,134.732,29.22z"/>
			<defs>
				<filter id="Adobe_OpacityMaskFilter_7_" filterUnits="userSpaceOnUse" x="138.468" y="28.983" width="5.425" height="8.735">
					<feColorMatrix  type="matrix" values="1 0 0 0 0  0 1 0 0 0  0 0 1 0 0  0 0 0 1 0"/>
				</filter>
			</defs>
			<mask maskUnits="userSpaceOnUse" x="138.468" y="28.983" width="5.425" height="8.735" id="mask-2_8_">
				<g style="filter:url(#Adobe_OpacityMaskFilter_7_);">
					<polygon id="path-1_8_" style="fill-rule:evenodd;clip-rule:evenodd;fill:#FFFFFF;" points="0,179.577 165.04,179.577 
						165.04,0 0,0 					"/>
				</g>
			</mask>
			<path id="Fill-90" style="mask:url(#mask-2_8_);fill-rule:evenodd;clip-rule:evenodd;fill:#40565B;" d="M143.892,34.991
				c0,1.849-1.101,2.728-2.712,2.728s-2.712-0.878-2.712-2.728v-6.007h1.965v2.086h3.066v1.771h-3.066v2.15
				c0,0.681,0.314,0.892,0.747,0.892c0.432,0,0.747-0.211,0.747-0.892v-0.197h1.965V34.991z"/>
			<defs>
				<filter id="Adobe_OpacityMaskFilter_8_" filterUnits="userSpaceOnUse" x="144.785" y="28.97" width="2.516" height="8.749">
					<feColorMatrix  type="matrix" values="1 0 0 0 0  0 1 0 0 0  0 0 1 0 0  0 0 0 1 0"/>
				</filter>
			</defs>
			<mask maskUnits="userSpaceOnUse" x="144.785" y="28.97" width="2.516" height="8.749" id="mask-2_9_">
				<g style="filter:url(#Adobe_OpacityMaskFilter_8_);">
					<polygon id="path-1_9_" style="fill-rule:evenodd;clip-rule:evenodd;fill:#FFFFFF;" points="0,179.577 165.04,179.577 
						165.04,0 0,0 					"/>
				</g>
			</mask>
			<path id="Fill-91" style="mask:url(#mask-2_9_);fill-rule:evenodd;clip-rule:evenodd;fill:#40565B;" d="M145.191,34.611
				l-0.262-5.64h2.227l-0.262,5.64H145.191z M144.785,36.459c0-0.708,0.55-1.258,1.258-1.258c0.707,0,1.258,0.55,1.258,1.258
				s-0.55,1.26-1.258,1.26C145.336,37.719,144.785,37.167,144.785,36.459z"/>
			<defs>
				<filter id="Adobe_OpacityMaskFilter_9_" filterUnits="userSpaceOnUse" x="73.741" y="68.515" width="24.041" height="19.358">
					<feColorMatrix  type="matrix" values="1 0 0 0 0  0 1 0 0 0  0 0 1 0 0  0 0 0 1 0"/>
				</filter>
			</defs>
			<mask maskUnits="userSpaceOnUse" x="73.741" y="68.515" width="24.041" height="19.358" id="mask-2_10_">
				<g style="filter:url(#Adobe_OpacityMaskFilter_9_);">
					<polygon id="path-1_10_" style="fill-rule:evenodd;clip-rule:evenodd;fill:#FFFFFF;" points="0,179.577 165.04,179.577 
						165.04,0 0,0 					"/>
				</g>
			</mask>
			<path id="Fill-92" style="mask:url(#mask-2_10_);fill-rule:evenodd;clip-rule:evenodd;fill:#FFFFFF;" d="M75.988,80.141
				c-0.195-1.812,2.724-13.76,8.757-11.292c6.032,2.468,13.038,12.206,13.038,12.206s-6.811,0.585-8.174,6.817
				c0,0-17.383-2.554-15.761-5.776c1.341-2.664,3.24-1.771,5.794-1.539"/>
			<defs>
				<filter id="Adobe_OpacityMaskFilter_10_" filterUnits="userSpaceOnUse" x="44.373" y="81.056" width="73.135" height="57.514">
					<feColorMatrix  type="matrix" values="1 0 0 0 0  0 1 0 0 0  0 0 1 0 0  0 0 0 1 0"/>
				</filter>
			</defs>
			<mask maskUnits="userSpaceOnUse" x="44.373" y="81.056" width="73.135" height="57.514" id="mask-2_11_">
				<g style="filter:url(#Adobe_OpacityMaskFilter_10_);">
					<polygon id="path-1_11_" style="fill-rule:evenodd;clip-rule:evenodd;fill:#FFFFFF;" points="0,179.577 165.04,179.577 
						165.04,0 0,0 					"/>
				</g>
			</mask>
			<path id="Fill-93" style="mask:url(#mask-2_11_);fill-rule:evenodd;clip-rule:evenodd;fill:#FFFFFF;" d="M102.012,122.021
				c0.56,1.431-0.752,2.884-2.233,2.479l-11.289-3.083c-4.87-1.444-0.26-8.299-8.392-10.928c-8.387-2.71-11.059,4.973-14.292,4.402
				c-4.517-0.797-12.265-3.189-14.745-2.333c-10.156,3.504-5.728,9.645-5.728,9.645c3.524,5.842,68.149,25.538,71.644,11.303
				C121.3,115.9,97.782,81.056,97.782,81.056c-4.988,0.87-7.33,3.379-8.174,6.816C89.609,87.872,98.106,112.035,102.012,122.021"/>
			<defs>
				<filter id="Adobe_OpacityMaskFilter_11_" filterUnits="userSpaceOnUse" x="73.74" y="68.515" width="34.293" height="59.791">
					<feColorMatrix  type="matrix" values="1 0 0 0 0  0 1 0 0 0  0 0 1 0 0  0 0 0 1 0"/>
				</filter>
			</defs>
			<mask maskUnits="userSpaceOnUse" x="73.74" y="68.515" width="34.293" height="59.791" id="mask-2_12_">
				<g style="filter:url(#Adobe_OpacityMaskFilter_11_);">
					<polygon id="path-1_12_" style="fill-rule:evenodd;clip-rule:evenodd;fill:#FFFFFF;" points="0,179.577 165.04,179.577 
						165.04,0 0,0 					"/>
				</g>
			</mask>
			<path id="Fill-94" style="mask:url(#mask-2_12_);fill-rule:evenodd;clip-rule:evenodd;fill:#D0E4F0;" d="M89.609,87.873
				c0,0,7.881,22.988,12.404,34.149c0.998,2.464-2.609,2.988-3.482,2.456l5.908,3.502c1.992,1.183,4.062-1.114,3.502-2.546
				c-3.905-9.986-15.412-46.489-14.024-43.156c0,0-1.165,0.26-2.971,2.568C90.317,85.74,89.883,86.757,89.609,87.873
				c0.265-1.214,0.739-2.207,1.327-3.029c-5.031-0.991-10.968-4.257-10.968-4.257c-0.119-1.101-2.466-8.667,4.809-11.723
				c-0.011-0.005-0.022-0.011-0.033-0.015c-6.032-2.468-8.951,9.48-8.757,11.292l0.789,0.09c-1.179-0.028-2.15,0.315-2.931,1.866
				C72.227,85.319,89.609,87.873,89.609,87.873"/>
			<defs>
				<filter id="Adobe_OpacityMaskFilter_12_" filterUnits="userSpaceOnUse" x="44.373" y="112.384" width="71.111" height="26.182">
					<feColorMatrix  type="matrix" values="1 0 0 0 0  0 1 0 0 0  0 0 1 0 0  0 0 0 1 0"/>
				</filter>
			</defs>
			<mask maskUnits="userSpaceOnUse" x="44.373" y="112.384" width="71.111" height="26.182" id="mask-2_13_">
				<g style="filter:url(#Adobe_OpacityMaskFilter_12_);">
					<polygon id="path-1_13_" style="fill-rule:evenodd;clip-rule:evenodd;fill:#FFFFFF;" points="0,179.577 165.04,179.577 
						165.04,0 0,0 					"/>
				</g>
			</mask>
			<path id="Fill-95" style="mask:url(#mask-2_13_);fill-rule:evenodd;clip-rule:evenodd;fill:#D0E4F0;" d="M51.029,119.941
				c0,0-2.976-4.136,1.569-7.556c-0.617-0.007-1.148,0.041-1.537,0.174c-10.156,3.504-5.727,9.645-5.727,9.645
				c3.286,5.451,59.768,22.961,70.15,13.715C97.776,138.798,53.915,124.726,51.029,119.941"/>
			<defs>
				<filter id="Adobe_OpacityMaskFilter_13_" filterUnits="userSpaceOnUse" x="95.726" y="102.481" width="6.93" height="4.651">
					<feColorMatrix  type="matrix" values="1 0 0 0 0  0 1 0 0 0  0 0 1 0 0  0 0 0 1 0"/>
				</filter>
			</defs>
			<mask maskUnits="userSpaceOnUse" x="95.726" y="102.481" width="6.93" height="4.651" id="mask-2_14_">
				<g style="filter:url(#Adobe_OpacityMaskFilter_13_);">
					<polygon id="path-1_14_" style="fill-rule:evenodd;clip-rule:evenodd;fill:#FFFFFF;" points="0,179.577 165.04,179.577 
						165.04,0 0,0 					"/>
				</g>
			</mask>
			
				<path id="Stroke-96" style="mask:url(#mask-2_14_);fill:none;stroke:#C3D4E0;stroke-width:1.978;stroke-linecap:round;stroke-linejoin:round;" d="
				M96.715,106.143l4.952-2.673"/>
			<defs>
				<filter id="Adobe_OpacityMaskFilter_14_" filterUnits="userSpaceOnUse" x="100.679" y="116.404" width="6.742" height="4.523">
					<feColorMatrix  type="matrix" values="1 0 0 0 0  0 1 0 0 0  0 0 1 0 0  0 0 0 1 0"/>
				</filter>
			</defs>
			<mask maskUnits="userSpaceOnUse" x="100.679" y="116.404" width="6.742" height="4.523" id="mask-2_15_">
				<g style="filter:url(#Adobe_OpacityMaskFilter_14_);">
					<polygon id="path-1_15_" style="fill-rule:evenodd;clip-rule:evenodd;fill:#FFFFFF;" points="0,179.577 165.04,179.577 
						165.04,0 0,0 					"/>
				</g>
			</mask>
			
				<path id="Stroke-97" style="mask:url(#mask-2_15_);fill:none;stroke:#C3D4E0;stroke-width:1.978;stroke-linecap:round;stroke-linejoin:round;" d="
				M101.668,119.938l4.764-2.545"/>
			<defs>
				<filter id="Adobe_OpacityMaskFilter_15_" filterUnits="userSpaceOnUse" x="92.727" y="94.93" width="5.284" height="4.119">
					<feColorMatrix  type="matrix" values="1 0 0 0 0  0 1 0 0 0  0 0 1 0 0  0 0 0 1 0"/>
				</filter>
			</defs>
			<mask maskUnits="userSpaceOnUse" x="92.727" y="94.93" width="5.284" height="4.119" id="mask-2_16_">
				<g style="filter:url(#Adobe_OpacityMaskFilter_15_);">
					<polygon id="path-1_16_" style="fill-rule:evenodd;clip-rule:evenodd;fill:#FFFFFF;" points="0,179.577 165.04,179.577 
						165.04,0 0,0 					"/>
				</g>
			</mask>
			
				<path id="Stroke-98" style="mask:url(#mask-2_16_);fill:none;stroke:#C3D4E0;stroke-width:1.978;stroke-linecap:round;stroke-linejoin:round;" d="
				M93.716,98.06l3.306-2.141"/>
			<defs>
				<filter id="Adobe_OpacityMaskFilter_16_" filterUnits="userSpaceOnUse" x="98.396" y="110.085" width="6.854" height="4.576">
					<feColorMatrix  type="matrix" values="1 0 0 0 0  0 1 0 0 0  0 0 1 0 0  0 0 0 1 0"/>
				</filter>
			</defs>
			<mask maskUnits="userSpaceOnUse" x="98.396" y="110.085" width="6.854" height="4.576" id="mask-2_17_">
				<g style="filter:url(#Adobe_OpacityMaskFilter_16_);">
					<polygon id="path-1_17_" style="fill-rule:evenodd;clip-rule:evenodd;fill:#FFFFFF;" points="0,179.577 165.04,179.577 
						165.04,0 0,0 					"/>
				</g>
			</mask>
			
				<path id="Stroke-99" style="mask:url(#mask-2_17_);fill:none;stroke:#C3D4E0;stroke-width:1.978;stroke-linecap:round;stroke-linejoin:round;" d="
				M99.385,113.672l4.876-2.598"/>
			<defs>
				<filter id="Adobe_OpacityMaskFilter_17_" filterUnits="userSpaceOnUse" x="100.986" y="123.235" width="6.433" height="5.093">
					<feColorMatrix  type="matrix" values="1 0 0 0 0  0 1 0 0 0  0 0 1 0 0  0 0 0 1 0"/>
				</filter>
			</defs>
			<mask maskUnits="userSpaceOnUse" x="100.986" y="123.235" width="6.433" height="5.093" id="mask-2_18_">
				<g style="filter:url(#Adobe_OpacityMaskFilter_17_);">
					<polygon id="path-1_18_" style="fill-rule:evenodd;clip-rule:evenodd;fill:#FFFFFF;" points="0,179.577 165.04,179.577 
						165.04,0 0,0 					"/>
				</g>
			</mask>
			
				<path id="Stroke-100" style="mask:url(#mask-2_18_);fill:none;stroke:#C3D4E0;stroke-width:1.978;stroke-linecap:round;stroke-linejoin:round;" d="
				M101.975,124.224l4.455,3.115"/>
			<defs>
				<filter id="Adobe_OpacityMaskFilter_18_" filterUnits="userSpaceOnUse" x="96.793" y="123.488" width="1.978" height="7.094">
					<feColorMatrix  type="matrix" values="1 0 0 0 0  0 1 0 0 0  0 0 1 0 0  0 0 0 1 0"/>
				</filter>
			</defs>
			<mask maskUnits="userSpaceOnUse" x="96.793" y="123.488" width="1.978" height="7.094" id="mask-2_19_">
				<g style="filter:url(#Adobe_OpacityMaskFilter_18_);">
					<polygon id="path-1_19_" style="fill-rule:evenodd;clip-rule:evenodd;fill:#FFFFFF;" points="0,179.577 165.04,179.577 
						165.04,0 0,0 					"/>
				</g>
			</mask>
			
				<path id="Stroke-101" style="mask:url(#mask-2_19_);fill:none;stroke:#C3D4E0;stroke-width:1.978;stroke-linecap:round;stroke-linejoin:round;" d="
				M97.782,124.477v5.116"/>
			<defs>
				<filter id="Adobe_OpacityMaskFilter_19_" filterUnits="userSpaceOnUse" x="90.487" y="121.915" width="2.981" height="7.416">
					<feColorMatrix  type="matrix" values="1 0 0 0 0  0 1 0 0 0  0 0 1 0 0  0 0 0 1 0"/>
				</filter>
			</defs>
			<mask maskUnits="userSpaceOnUse" x="90.487" y="121.915" width="2.981" height="7.416" id="mask-2_20_">
				<g style="filter:url(#Adobe_OpacityMaskFilter_19_);">
					<polygon id="path-1_20_" style="fill-rule:evenodd;clip-rule:evenodd;fill:#FFFFFF;" points="0,179.577 165.04,179.577 
						165.04,0 0,0 					"/>
				</g>
			</mask>
			
				<path id="Stroke-102" style="mask:url(#mask-2_20_);fill:none;stroke:#C3D4E0;stroke-width:1.978;stroke-linecap:round;stroke-linejoin:round;" d="
				M92.479,122.904l-1.003,5.438"/>
			<defs>
				<filter id="Adobe_OpacityMaskFilter_20_" filterUnits="userSpaceOnUse" x="86.236" y="121.003" width="3.107" height="6.76">
					<feColorMatrix  type="matrix" values="1 0 0 0 0  0 1 0 0 0  0 0 1 0 0  0 0 0 1 0"/>
				</filter>
			</defs>
			<mask maskUnits="userSpaceOnUse" x="86.236" y="121.003" width="3.107" height="6.76" id="mask-2_21_">
				<g style="filter:url(#Adobe_OpacityMaskFilter_20_);">
					<polygon id="path-1_21_" style="fill-rule:evenodd;clip-rule:evenodd;fill:#FFFFFF;" points="0,179.577 165.04,179.577 
						165.04,0 0,0 					"/>
				</g>
			</mask>
			
				<path id="Stroke-103" style="mask:url(#mask-2_21_);fill:none;stroke:#C3D4E0;stroke-width:1.978;stroke-linecap:round;stroke-linejoin:round;" d="
				M88.354,121.992l-1.129,4.782"/>
			<defs>
				<filter id="Adobe_OpacityMaskFilter_21_" filterUnits="userSpaceOnUse" x="60.102" y="113.838" width="4.374" height="5.872">
					<feColorMatrix  type="matrix" values="1 0 0 0 0  0 1 0 0 0  0 0 1 0 0  0 0 0 1 0"/>
				</filter>
			</defs>
			<mask maskUnits="userSpaceOnUse" x="60.102" y="113.838" width="4.374" height="5.872" id="mask-2_22_">
				<g style="filter:url(#Adobe_OpacityMaskFilter_21_);">
					<polygon id="path-1_22_" style="fill-rule:evenodd;clip-rule:evenodd;fill:#FFFFFF;" points="0,179.577 165.04,179.577 
						165.04,0 0,0 					"/>
				</g>
			</mask>
			
				<path id="Stroke-104" style="mask:url(#mask-2_22_);fill:none;stroke:#C3D4E0;stroke-width:1.978;stroke-linecap:round;stroke-linejoin:round;" d="
				M63.487,114.827l-2.396,3.894"/>
			<defs>
				<filter id="Adobe_OpacityMaskFilter_22_" filterUnits="userSpaceOnUse" x="52.976" y="112.516" width="5.017" height="5.068">
					<feColorMatrix  type="matrix" values="1 0 0 0 0  0 1 0 0 0  0 0 1 0 0  0 0 0 1 0"/>
				</filter>
			</defs>
			<mask maskUnits="userSpaceOnUse" x="52.976" y="112.516" width="5.017" height="5.068" id="mask-2_23_">
				<g style="filter:url(#Adobe_OpacityMaskFilter_22_);">
					<polygon id="path-1_23_" style="fill-rule:evenodd;clip-rule:evenodd;fill:#FFFFFF;" points="0,179.577 165.04,179.577 
						165.04,0 0,0 					"/>
				</g>
			</mask>
			
				<path id="Stroke-105" style="mask:url(#mask-2_23_);fill:none;stroke:#C3D4E0;stroke-width:1.978;stroke-linecap:round;stroke-linejoin:round;" d="
				M57.004,113.505l-3.039,3.09"/>
			<defs>
				<filter id="Adobe_OpacityMaskFilter_23_" filterUnits="userSpaceOnUse" x="72.946" y="123.982" width="7.085" height="4.04">
					<feColorMatrix  type="matrix" values="1 0 0 0 0  0 1 0 0 0  0 0 1 0 0  0 0 0 1 0"/>
				</filter>
			</defs>
			<mask maskUnits="userSpaceOnUse" x="72.946" y="123.982" width="7.085" height="4.04" id="mask-2_24_">
				<g style="filter:url(#Adobe_OpacityMaskFilter_23_);">
					<polygon id="path-1_24_" style="fill-rule:evenodd;clip-rule:evenodd;fill:#FFFFFF;" points="0,179.577 165.04,179.577 
						165.04,0 0,0 					"/>
				</g>
			</mask>
			
				<polyline id="Stroke-106" style="mask:url(#mask-2_24_);fill:none;stroke:#40565B;stroke-width:0.989;stroke-linecap:round;stroke-linejoin:round;" points="
				79.536,124.477 76.488,127.528 73.44,124.477 			"/>
			<defs>
				<filter id="Adobe_OpacityMaskFilter_24_" filterUnits="userSpaceOnUse" x="75.994" y="117.786" width="0.989" height="10.236">
					<feColorMatrix  type="matrix" values="1 0 0 0 0  0 1 0 0 0  0 0 1 0 0  0 0 0 1 0"/>
				</filter>
			</defs>
			<mask maskUnits="userSpaceOnUse" x="75.994" y="117.786" width="0.989" height="10.236" id="mask-2_25_">
				<g style="filter:url(#Adobe_OpacityMaskFilter_24_);">
					<polygon id="path-1_25_" style="fill-rule:evenodd;clip-rule:evenodd;fill:#FFFFFF;" points="0,179.577 165.04,179.577 
						165.04,0 0,0 					"/>
				</g>
			</mask>
			
				<path id="Stroke-107" style="mask:url(#mask-2_25_);fill:none;stroke:#40565B;stroke-width:0.989;stroke-linecap:round;stroke-linejoin:round;" d="
				M76.488,127.528v-9.247"/>
			<defs>
				<filter id="Adobe_OpacityMaskFilter_25_" filterUnits="userSpaceOnUse" x="73.666" y="120.037" width="5.645" height="0.989">
					<feColorMatrix  type="matrix" values="1 0 0 0 0  0 1 0 0 0  0 0 1 0 0  0 0 0 1 0"/>
				</filter>
			</defs>
			<mask maskUnits="userSpaceOnUse" x="73.666" y="120.037" width="5.645" height="0.989" id="mask-2_26_">
				<g style="filter:url(#Adobe_OpacityMaskFilter_25_);">
					<polygon id="path-1_26_" style="fill-rule:evenodd;clip-rule:evenodd;fill:#FFFFFF;" points="0,179.577 165.04,179.577 
						165.04,0 0,0 					"/>
				</g>
			</mask>
			
				<path id="Stroke-108" style="mask:url(#mask-2_26_);fill:none;stroke:#40565B;stroke-width:0.989;stroke-linecap:round;stroke-linejoin:round;" d="
				M74.16,120.531h4.656"/>
			<defs>
				<filter id="Adobe_OpacityMaskFilter_26_" filterUnits="userSpaceOnUse" x="74.53" y="114.789" width="3.917" height="3.92">
					<feColorMatrix  type="matrix" values="1 0 0 0 0  0 1 0 0 0  0 0 1 0 0  0 0 0 1 0"/>
				</filter>
			</defs>
			<mask maskUnits="userSpaceOnUse" x="74.53" y="114.789" width="3.917" height="3.92" id="mask-2_27_">
				<g style="filter:url(#Adobe_OpacityMaskFilter_26_);">
					<polygon id="path-1_27_" style="fill-rule:evenodd;clip-rule:evenodd;fill:#FFFFFF;" points="0,179.577 165.04,179.577 
						165.04,0 0,0 					"/>
				</g>
			</mask>
			
				<path id="Stroke-109" style="mask:url(#mask-2_27_);fill:none;stroke:#40565B;stroke-width:0.989;stroke-linecap:round;stroke-linejoin:round;" d="
				M77.952,116.749c0,0.809-0.655,1.466-1.464,1.466c-0.808,0-1.463-0.657-1.463-1.466c0-0.809,0.655-1.466,1.463-1.466
				C77.297,115.283,77.952,115.94,77.952,116.749z"/>
			<defs>
				<filter id="Adobe_OpacityMaskFilter_27_" filterUnits="userSpaceOnUse" x="73.246" y="68.02" width="25.03" height="20.347">
					<feColorMatrix  type="matrix" values="1 0 0 0 0  0 1 0 0 0  0 0 1 0 0  0 0 0 1 0"/>
				</filter>
			</defs>
			<mask maskUnits="userSpaceOnUse" x="73.246" y="68.02" width="25.03" height="20.347" id="mask-2_28_">
				<g style="filter:url(#Adobe_OpacityMaskFilter_27_);">
					<polygon id="path-1_28_" style="fill-rule:evenodd;clip-rule:evenodd;fill:#FFFFFF;" points="0,179.577 165.04,179.577 
						165.04,0 0,0 					"/>
				</g>
			</mask>
			
				<path id="Stroke-110" style="mask:url(#mask-2_28_);fill:none;stroke:#40565B;stroke-width:0.989;stroke-linecap:round;stroke-linejoin:round;" d="
				M75.988,80.141c-0.195-1.812,2.724-13.76,8.757-11.292c6.032,2.468,13.038,12.206,13.038,12.206s-6.811,0.585-8.174,6.817
				c0,0-17.383-2.554-15.761-5.776c1.341-2.664,3.24-1.771,5.794-1.539"/>
			<defs>
				<filter id="Adobe_OpacityMaskFilter_28_" filterUnits="userSpaceOnUse" x="43.878" y="80.562" width="74.124" height="58.503">
					<feColorMatrix  type="matrix" values="1 0 0 0 0  0 1 0 0 0  0 0 1 0 0  0 0 0 1 0"/>
				</filter>
			</defs>
			<mask maskUnits="userSpaceOnUse" x="43.878" y="80.562" width="74.124" height="58.503" id="mask-2_29_">
				<g style="filter:url(#Adobe_OpacityMaskFilter_28_);">
					<polygon id="path-1_29_" style="fill-rule:evenodd;clip-rule:evenodd;fill:#FFFFFF;" points="0,179.577 165.04,179.577 
						165.04,0 0,0 					"/>
				</g>
			</mask>
			
				<path id="Stroke-111" style="mask:url(#mask-2_29_);fill:none;stroke:#40565B;stroke-width:0.989;stroke-linecap:round;stroke-linejoin:round;" d="
				M102.012,122.021c0.56,1.431-0.752,2.884-2.233,2.479l-11.289-3.083c-4.87-1.444-0.26-8.299-8.392-10.928
				c-8.387-2.71-11.059,4.973-14.292,4.402c-4.517-0.797-12.265-3.189-14.745-2.333c-10.156,3.504-5.728,9.645-5.728,9.645
				c3.524,5.842,68.149,25.538,71.644,11.303C121.3,115.9,97.782,81.056,97.782,81.056c-4.988,0.87-7.33,3.379-8.174,6.816
				C89.609,87.872,98.106,112.035,102.012,122.021z"/>
		</g>
	</g>
</g>
</svg>
