<svg xmlns="http://www.w3.org/2000/svg" viewBox="0 0 931.09 432.63"><title>for-students</title><g id="Layer_2" data-name="Layer 2"><g id="Layer_3" data-name="Layer 3"><path d="M876.76,218.08H779a28.23,28.23,0,0,1-28.23-28.23h0A28.23,28.23,0,0,1,779,161.62h16.63a57.3,57.3,0,0,0,57.3-57.3h0A57.3,57.3,0,0,0,795.61,47H474v-.3H71.78A71.78,71.78,0,0,0,0,118.49H0a71.78,71.78,0,0,0,71.78,71.78H90.13A28.83,28.83,0,0,1,119,219.1h0a28.83,28.83,0,0,1-28.83,28.83H70.25a39.41,39.41,0,0,0-39.41,39.41h0a39.41,39.41,0,0,0,39.41,39.41h76.32a27.71,27.71,0,0,1,27.71,27.71h0A27.71,27.71,0,0,0,202,382.17H770.9a27.71,27.71,0,0,0,27.71-27.71h0a27.71,27.71,0,0,1,27.71-27.71h50.43a54.33,54.33,0,0,0,54.33-54.33h0A54.33,54.33,0,0,0,876.76,218.08Z" style="fill:#a9d7f3;opacity:0.5"/><path d="M624.43,20.35a26.55,26.55,0,0,0-11.64,4.95V77.23a26.92,26.92,0,0,1,12.48-5.1C625.63,54.85,625.35,37.47,624.43,20.35Z" style="fill:#8860bd"/><path d="M668.14,24.55l-.38.07c-7.69,1.17-15.31-1.15-23-3C644.58,39,646,56.57,646.7,74.05c7,1.71,14,3.57,21.06,2.5.7-.11,1.38-.25,2.07-.4C669.51,58.83,668.56,41.82,668.14,24.55Z" style="fill:#8860bd"/><path d="M644.81,21.66c-1.91-.45-3.82-.87-5.74-1.2a42.77,42.77,0,0,0-14.64-.11c.92,17.13,1.2,34.5.83,51.79a43.4,43.4,0,0,1,13.81.26c2.55.44,5.09,1,7.63,1.66C646,56.57,644.58,39,644.81,21.66Z" style="fill:#7043ab"/><path d="M679.35,20.94a53.59,53.59,0,0,1-11.21,3.61c.41,17.28,1.37,34.28,1.69,51.6a62.85,62.85,0,0,0,9.52-3.28Z" style="fill:#7043ab"/><path d="M679.35,72.87a51.9,51.9,0,0,1-11.59,3.68c-9.61,1.46-19.11-2.52-28.7-4.16-9-1.54-19-.76-26.28,4.84V25.3c7.26-5.6,17.24-6.38,26.28-4.84,9.59,1.64,19.08,5.62,28.7,4.16a51.9,51.9,0,0,0,11.59-3.68Z" style="fill:none;stroke:#7043ab;stroke-linecap:round;stroke-linejoin:round;stroke-width:2px"/><path d="M650.23,61V53.82l-9.87-1.17v7.17l-6.09-.72V44.45c0-6.86,3.89-10.6,11.06-9.75s11.14,5.52,11.14,12.38V61.72Zm0-14.65c0-3.47-1.5-5.46-4.93-5.86s-4.93,1.23-4.93,4.69v2.08l9.87,1.17Z" style="fill:#fff"/><circle cx="203.57" cy="165.05" r="3.52" transform="matrix(1, -0.07, 0.07, 1, -10.73, 14.19)" style="fill:#f56f40;stroke:#d65129;stroke-linecap:round;stroke-linejoin:round;stroke-width:2px"/><ellipse cx="481.22" cy="225.32" rx="59.71" ry="16" style="fill:#fff"/><path d="M529.24,230.13c.1,4.06-19.77,7.8-44.39,8.36s-44.65-2.29-44.75-6.35,19.77-7.8,44.39-8.36S529.14,226.06,529.24,230.13Z" style="fill:#a9d7f3;opacity:0.5"/><rect x="729.31" y="257.83" width="117.3" height="15.22" style="fill:#19bc9c"/><rect x="735.54" y="273.05" width="104.84" height="103.52" style="fill:#19bc9c"/><rect x="742.07" y="257.83" width="26.83" height="15.22" style="fill:#109995"/><rect x="749.58" y="273.69" width="28.93" height="102.89" style="fill:#109995"/><rect x="825.2" y="257.83" width="11.08" height="15.22" transform="translate(1661.49 530.88) rotate(-180)" style="fill:#fff"/><rect x="815.59" y="273.69" width="11.08" height="102.89" transform="translate(1642.26 650.26) rotate(-180)" style="fill:#fff"/><rect x="729.31" y="257.83" width="117.3" height="15.22" rx="2" ry="2" style="fill:none;stroke:#109995;stroke-linecap:round;stroke-linejoin:round;stroke-width:2px"/><rect x="735.54" y="273.05" width="104.84" height="103.52" style="fill:none;stroke:#109995;stroke-linecap:round;stroke-linejoin:round;stroke-width:2px"/><line x1="12.77" y1="376.57" x2="55.06" y2="376.57" style="fill:#fff;stroke:#3f555a;stroke-miterlimit:10"/><line x1="12.77" y1="431.63" x2="55.06" y2="431.63" style="fill:#fff;stroke:#3f555a;stroke-miterlimit:10"/><line x1="12.77" y1="431.63" x2="881.82" y2="431.63" style="fill:none;stroke:#3f555a;stroke-linecap:round;stroke-linejoin:round;stroke-width:2px"/><path d="M149.16,304.57l1.42-9.42-15,0-10,66.12,8,0c3.07-17.85,4.57-35.55,8.34-54.38C141.94,305.17,145.6,304.19,149.16,304.57Z" style="fill:#e7f1f8"/><path d="M149.16,304.57c-3.56-.38-7.22.6-7.22,2.31-3.77,18.83-5.27,36.53-8.34,54.38l7,0Z" style="fill:#fff"/><line x1="134.41" y1="310.41" x2="140.09" y2="310.41" style="fill:none;stroke:#c3d4e0;stroke-linecap:round;stroke-linejoin:round;stroke-width:2px"/><line x1="131.57" y1="323.46" x2="137.25" y2="323.46" style="fill:none;stroke:#c3d4e0;stroke-linecap:round;stroke-linejoin:round;stroke-width:2px"/><line x1="130.58" y1="335.01" x2="135.48" y2="335.01" style="fill:none;stroke:#c3d4e0;stroke-linecap:round;stroke-linejoin:round;stroke-width:2px"/><line x1="128.13" y1="348.2" x2="133.03" y2="348.2" style="fill:none;stroke:#c3d4e0;stroke-linecap:round;stroke-linejoin:round;stroke-width:2px"/><polyline points="125.64 361.24 135.59 295.12 150.58 295.15 140.62 361.27" style="fill:none;stroke:#3f555a;stroke-linecap:round;stroke-linejoin:round;stroke-width:2px"/><path d="M189.56,263l-.37,7.82s17-1.59,19.23,9.81c0,0,.66,11.55-.09,26.6h9.6C217.79,285.41,215.71,259.59,189.56,263Z" style="fill:#e7f1f8"/><path d="M189.89,256l-.33,7c26.15-3.43,28.23,22.39,28.37,44.23H222C226.69,259.37,210.61,257.18,189.89,256Z" style="fill:#fff"/><line x1="197.46" y1="270.98" x2="198.94" y2="266.08" style="fill:none;stroke:#c3d4e0;stroke-linecap:round;stroke-linejoin:round;stroke-width:2px"/><line x1="205.86" y1="273.45" x2="208.92" y2="270.46" style="fill:none;stroke:#c3d4e0;stroke-linecap:round;stroke-linejoin:round;stroke-width:2px"/><line x1="208.62" y1="284.28" x2="212.45" y2="284.41" style="fill:none;stroke:#c3d4e0;stroke-linecap:round;stroke-linejoin:round;stroke-width:2px"/><line x1="208.62" y1="295.06" x2="212.45" y2="295.19" style="fill:none;stroke:#c3d4e0;stroke-linecap:round;stroke-linejoin:round;stroke-width:2px"/><path d="M222,307.25c4.64-47.88-11.44-50.07-32.15-51.26l-.7,14.85s17-1.59,19.23,9.81c0,0,.66,11.55-.09,26.6Z" style="fill:none;stroke:#3f555a;stroke-linecap:round;stroke-linejoin:round;stroke-width:2px"/><path d="M173.27,250.58h-.44L134.57,254s-6.86,21.15-7.69,37.44a6.87,6.87,0,0,0,5.73,7.16l.85.13c1.16-12.06,1.64-24.46,8.48-32.82C148.44,257.52,165.29,261.23,173.27,250.58Z" style="fill:#d65129"/><path d="M192,258a8.08,8.08,0,0,0-8-7.34l-10.73-.09c-8,10.65-24.83,6.94-31.33,15.3-6.84,8.36-7.33,20.76-8.48,32.82a77.61,77.61,0,0,0,20.12.61,8.84,8.84,0,0,0,7.62-7.13l1.91-9.85h.36c2.82-10.71,15.73-9,27.12-8.34A48.77,48.77,0,0,0,192,258Z" style="fill:#f56f40"/><path d="M162,282.34c1.87-.06,12.16-.36,20.34-.47a8.07,8.07,0,0,0,7.66-5.8c.2-.71.38-1.4.54-2.09C179.22,273.28,164.87,271.63,162,282.34Z" style="fill:#d65129"/><path d="M134.57,254s-6.86,21.15-7.69,37.44a6.87,6.87,0,0,0,5.73,7.16,78.37,78.37,0,0,0,21,.75,8.84,8.84,0,0,0,7.62-7.13l1.91-9.85s10.07-.35,19.27-.47a8.07,8.07,0,0,0,7.66-5.8A49.56,49.56,0,0,0,192,258a8.08,8.08,0,0,0-8-7.34l-11.16-.09Z" style="fill:none;stroke:#d65129;stroke-linecap:round;stroke-linejoin:round;stroke-width:2px"/><path d="M178.28,237.24s19.19-.78,30.64-20.95l-2.58-.56c-8.53,7.64-18.78,13.14-30.44,14.07C176.67,233.13,177.65,236.81,178.28,237.24Z" style="fill:#e7f1f8"/><path d="M174.69,224.28s.52,2.63,1.2,5.52c11.66-.92,21.91-6.42,30.44-14.07l-10.76-2.34C190.33,222.92,174.69,224.28,174.69,224.28Z" style="fill:#fff"/><path d="M208.92,216.3c-11.45,20.17-30.64,20.95-30.64,20.95-1.17-.8-3.58-13-3.58-13s15.63-1.36,20.88-10.89Z" style="fill:none;stroke:#3f555a;stroke-linecap:round;stroke-linejoin:round;stroke-width:2px"/><path d="M217.72,200.9a11.31,11.31,0,0,0-16-.63,10.57,10.57,0,0,0-2.87,4.94,8.55,8.55,0,0,0-3,6.4c0,5.1,4.85,9.23,10.82,9.23a12.28,12.28,0,0,0,5-1.05,10.62,10.62,0,0,0,6.18-2.91A11.31,11.31,0,0,0,217.72,200.9Z" style="fill:#fff;stroke:#3f555a;stroke-linecap:round;stroke-linejoin:round;stroke-width:2px"/><path d="M166.41,194c-3.64.14-7.26-.93-10.89-.68a43.31,43.31,0,0,0-15.65,3.77c8.21,7.73,0,18.93-8.87,26.15a76.22,76.22,0,0,0,2.6,27.68,4.24,4.24,0,0,0,4.08,3.07c13,0,23.78-.52,29.69-.86a8.09,8.09,0,0,0,6.94-4.87C195.05,200.45,176.49,193.6,166.41,194Z" style="fill:#3290c1"/><path d="M139.86,197.07c-.89.43-1.36.71-1.36.71A68.07,68.07,0,0,0,131,223.22C139.85,216,148.07,204.8,139.86,197.07Z" style="fill:#1e6b96"/><path d="M133.59,250.89c-2.32-8.13-7.11-30.21,4.92-53.11,0,0,6-3.74,17-4.49,3.64-.25,7.25.82,10.89.68,10.08-.38,28.64,6.47,7.9,54.26a8.09,8.09,0,0,1-6.94,4.87c-5.91.35-16.69.85-29.69.86A4.24,4.24,0,0,1,133.59,250.89Z" style="fill:none;stroke:#1e6b96;stroke-linecap:round;stroke-linejoin:round;stroke-width:2px"/><path d="M168.62,187v-2.4l-13.43,1.3,0,8.09a3.78,3.78,0,0,0,1.51,3A28.55,28.55,0,0,0,168.62,187Z" style="fill:#d0e4f1"/><path d="M156.73,197a3.71,3.71,0,0,0,.8.47,11.71,11.71,0,0,0,8.77.13,3.72,3.72,0,0,0,2.36-3.53l0-7.07A28.55,28.55,0,0,1,156.73,197Z" style="fill:#fff"/><path d="M155.18,185.91l0,8.09a3.77,3.77,0,0,0,2.3,3.47,11.71,11.71,0,0,0,8.77.13,3.72,3.72,0,0,0,2.36-3.53l0-9.47" style="fill:none;stroke:#3f555a;stroke-linecap:round;stroke-linejoin:round;stroke-width:2px"/><rect x="191.36" y="317.39" width="57.18" height="57.18" transform="translate(565.93 126.04) rotate(90)" style="fill:#f56f40;stroke:#d65129;stroke-linecap:round;stroke-linejoin:round;stroke-width:2px"/><rect x="191.36" y="317.39" width="57.18" height="57.18" style="fill:#f56f40"/><polygon points="248.53 374.57 238.95 364.99 238.95 326.97 200.94 326.97 191.35 317.39 248.53 317.39 248.53 374.57" style="fill:#fff;opacity:0.2"/><polygon points="248.53 374.57 238.95 364.99 200.94 364.99 200.94 326.97 191.35 317.39 191.35 374.57 248.53 374.57" style="fill:#d65129"/><rect x="191.36" y="317.39" width="57.18" height="57.18" style="fill:none;stroke:#d65129;stroke-linecap:round;stroke-linejoin:round;stroke-width:2px"/><rect x="250.53" y="317.39" width="57.18" height="57.18" style="fill:#f56f40;stroke:#d65129;stroke-linecap:round;stroke-linejoin:round;stroke-width:2px"/><rect x="250.53" y="317.39" width="57.18" height="57.18" transform="translate(-66.86 625.11) rotate(-90)" style="fill:#ffdc64"/><polygon points="307.71 374.57 298.13 364.99 298.13 326.97 260.11 326.97 250.53 317.39 307.71 317.39 307.71 374.57" style="fill:#fff;opacity:0.3"/><polygon points="307.71 374.57 298.13 364.99 260.11 364.99 260.11 326.97 250.53 317.39 250.53 374.57 307.71 374.57" style="fill:#d65129;opacity:0.2"/><rect x="250.53" y="317.39" width="57.18" height="57.18" transform="translate(-66.86 625.11) rotate(-90)" style="fill:none;stroke:#faac30;stroke-linecap:round;stroke-linejoin:round;stroke-width:2px"/><rect x="250.53" y="258.21" width="57.18" height="57.18" style="fill:#f56f40;stroke:#d65129;stroke-linecap:round;stroke-linejoin:round;stroke-width:2px"/><rect x="250.53" y="258.21" width="57.18" height="57.18" transform="translate(-7.68 565.93) rotate(-90)" style="fill:#ffdc64"/><polygon points="307.71 315.39 298.13 305.81 298.13 267.79 260.11 267.79 250.53 258.21 307.71 258.21 307.71 315.39" style="fill:#fff;opacity:0.3"/><polygon points="307.71 315.39 298.13 305.81 260.11 305.81 260.11 267.79 250.53 258.21 250.53 315.39 307.71 315.39" style="fill:#d65129;opacity:0.2"/><rect x="250.53" y="258.21" width="57.18" height="57.18" transform="translate(-7.68 565.93) rotate(-90)" style="fill:none;stroke:#faac30;stroke-linecap:round;stroke-linejoin:round;stroke-width:2px"/><rect x="309.71" y="317.39" width="57.18" height="57.18" style="fill:#f56f40;stroke:#d65129;stroke-linecap:round;stroke-linejoin:round;stroke-width:2px"/><rect x="309.71" y="317.39" width="57.18" height="57.18" transform="translate(-7.68 684.29) rotate(-90)" style="fill:#19bc9c"/><polygon points="366.89 374.57 357.31 364.99 357.31 326.97 319.29 326.97 309.71 317.39 366.89 317.39 366.89 374.57" style="fill:#fff;opacity:0.2"/><polygon points="366.89 374.57 357.31 364.99 319.29 364.99 319.29 326.97 309.71 317.39 309.71 374.57 366.89 374.57" style="fill:#109995"/><rect x="309.71" y="317.39" width="57.18" height="57.18" transform="translate(-7.68 684.29) rotate(-90)" style="fill:none;stroke:#109995;stroke-linecap:round;stroke-linejoin:round;stroke-width:2px"/><rect x="309.71" y="258.21" width="57.18" height="57.18" style="fill:#f56f40;stroke:#d65129;stroke-linecap:round;stroke-linejoin:round;stroke-width:2px"/><rect x="309.71" y="258.21" width="57.18" height="57.18" transform="translate(51.5 625.11) rotate(-90)" style="fill:#19bc9c"/><polygon points="366.89 315.39 357.31 305.81 357.31 267.79 319.29 267.79 309.71 258.21 366.89 258.21 366.89 315.39" style="fill:#fff;opacity:0.2"/><polygon points="366.89 315.39 357.31 305.81 319.29 305.81 319.29 267.79 309.71 258.21 309.71 315.39 366.89 315.39" style="fill:#109995"/><rect x="309.71" y="258.21" width="57.18" height="57.18" transform="translate(51.5 625.11) rotate(-90)" style="fill:none;stroke:#109995;stroke-linecap:round;stroke-linejoin:round;stroke-width:2px"/><rect x="309.71" y="199.03" width="57.18" height="57.18" style="fill:#f56f40;stroke:#d65129;stroke-linecap:round;stroke-linejoin:round;stroke-width:2px"/><rect x="309.71" y="199.03" width="57.18" height="57.18" transform="translate(110.68 565.93) rotate(-90)" style="fill:#19bc9c"/><polygon points="366.89 256.21 357.31 246.63 357.31 208.62 319.29 208.62 309.71 199.03 366.89 199.03 366.89 256.21" style="fill:#fff;opacity:0.2"/><polygon points="366.89 256.21 357.31 246.63 319.29 246.63 319.29 208.62 309.71 199.03 309.71 256.21 366.89 256.21" style="fill:#109995"/><rect x="309.71" y="199.03" width="57.18" height="57.18" transform="translate(110.68 565.93) rotate(-90)" style="fill:none;stroke:#109995;stroke-linecap:round;stroke-linejoin:round;stroke-width:2px"/><rect x="368.89" y="317.39" width="57.18" height="57.18" style="fill:#f56f40;stroke:#d65129;stroke-linecap:round;stroke-linejoin:round;stroke-width:2px"/><rect x="368.89" y="317.39" width="57.18" height="57.18" transform="translate(51.5 743.46) rotate(-90)" style="fill:#3290c1"/><polygon points="426.07 374.57 416.49 364.99 416.49 326.97 378.47 326.97 368.89 317.39 426.07 317.39 426.07 374.57" style="fill:#fff;opacity:0.2"/><polygon points="426.07 374.57 416.49 364.99 378.47 364.99 378.47 326.97 368.89 317.39 368.89 374.57 426.07 374.57" style="fill:#1e6b96"/><rect x="368.89" y="317.39" width="57.18" height="57.18" transform="translate(51.5 743.46) rotate(-90)" style="fill:none;stroke:#1e6b96;stroke-linecap:round;stroke-linejoin:round;stroke-width:2px"/><rect x="368.89" y="258.21" width="57.18" height="57.18" style="fill:#f56f40;stroke:#d65129;stroke-linecap:round;stroke-linejoin:round;stroke-width:2px"/><rect x="368.89" y="258.21" width="57.18" height="57.18" transform="translate(110.68 684.29) rotate(-90)" style="fill:#3290c1"/><polygon points="426.07 315.39 416.49 305.81 416.49 267.79 378.47 267.79 368.89 258.21 426.07 258.21 426.07 315.39" style="fill:#fff;opacity:0.2"/><polygon points="426.07 315.39 416.49 305.81 378.47 305.81 378.47 267.79 368.89 258.21 368.89 315.39 426.07 315.39" style="fill:#1e6b96"/><rect x="368.89" y="258.21" width="57.18" height="57.18" transform="translate(110.68 684.29) rotate(-90)" style="fill:none;stroke:#1e6b96;stroke-linecap:round;stroke-linejoin:round;stroke-width:2px"/><rect x="368.89" y="199.03" width="57.18" height="57.18" style="fill:#f56f40;stroke:#d65129;stroke-linecap:round;stroke-linejoin:round;stroke-width:2px"/><rect x="368.89" y="199.03" width="57.18" height="57.18" transform="translate(169.86 625.11) rotate(-90)" style="fill:#3290c1"/><polygon points="426.07 256.21 416.49 246.63 416.49 208.62 378.47 208.62 368.89 199.03 426.07 199.03 426.07 256.21" style="fill:#fff;opacity:0.2"/><polygon points="426.07 256.21 416.49 246.63 378.47 246.63 378.47 208.62 368.89 199.03 368.89 256.21 426.07 256.21" style="fill:#1e6b96"/><rect x="368.89" y="199.03" width="57.18" height="57.18" transform="translate(169.86 625.11) rotate(-90)" style="fill:none;stroke:#1e6b96;stroke-linecap:round;stroke-linejoin:round;stroke-width:2px"/><rect x="368.89" y="139.86" width="57.18" height="57.18" style="fill:#f56f40;stroke:#d65129;stroke-linecap:round;stroke-linejoin:round;stroke-width:2px"/><rect x="368.89" y="139.86" width="57.18" height="57.18" transform="translate(229.04 565.93) rotate(-90)" style="fill:#3290c1"/><polygon points="426.07 197.03 416.49 187.45 416.49 149.44 378.47 149.44 368.89 139.85 426.07 139.85 426.07 197.03" style="fill:#fff;opacity:0.2"/><polygon points="426.07 197.03 416.49 187.45 378.47 187.45 378.47 149.44 368.89 139.85 368.89 197.03 426.07 197.03" style="fill:#1e6b96"/><rect x="368.89" y="139.86" width="57.18" height="57.18" transform="translate(229.04 565.93) rotate(-90)" style="fill:none;stroke:#1e6b96;stroke-linecap:round;stroke-linejoin:round;stroke-width:2px"/><rect x="428.07" y="317.39" width="57.18" height="57.18" style="fill:#f56f40;stroke:#d65129;stroke-linecap:round;stroke-linejoin:round;stroke-width:2px"/><rect x="428.07" y="317.39" width="57.18" height="57.18" transform="translate(110.68 802.64) rotate(-90)" style="fill:#8860bd;stroke:#7043ab;stroke-linecap:round;stroke-linejoin:round;stroke-width:2px"/><polygon points="485.25 374.57 475.67 364.99 475.67 326.97 437.65 326.97 428.07 317.39 485.25 317.39 485.25 374.57" style="fill:#fff;opacity:0.1"/><polygon points="485.25 374.57 475.67 364.99 437.65 364.99 437.65 326.97 428.07 317.39 428.07 374.57 485.25 374.57" style="fill:#7043ab"/><rect x="428.07" y="317.39" width="57.18" height="57.18" transform="translate(110.68 802.64) rotate(-90)" style="fill:none;stroke:#7043ab;stroke-linecap:round;stroke-linejoin:round;stroke-width:2px"/><rect x="428.07" y="258.21" width="57.18" height="57.18" style="fill:#f56f40;stroke:#d65129;stroke-linecap:round;stroke-linejoin:round;stroke-width:2px"/><rect x="428.07" y="258.21" width="57.18" height="57.18" transform="translate(169.86 743.46) rotate(-90)" style="fill:#8860bd;stroke:#7043ab;stroke-linecap:round;stroke-linejoin:round;stroke-width:2px"/><polygon points="485.25 315.39 475.67 305.81 475.67 267.79 437.65 267.79 428.07 258.21 485.25 258.21 485.25 315.39" style="fill:#fff;opacity:0.1"/><polygon points="485.25 315.39 475.67 305.81 437.65 305.81 437.65 267.79 428.07 258.21 428.07 315.39 485.25 315.39" style="fill:#7043ab"/><rect x="428.07" y="258.21" width="57.18" height="57.18" transform="translate(169.86 743.46) rotate(-90)" style="fill:none;stroke:#7043ab;stroke-linecap:round;stroke-linejoin:round;stroke-width:2px"/><rect x="428.07" y="199.03" width="57.18" height="57.18" style="fill:#f56f40;stroke:#d65129;stroke-linecap:round;stroke-linejoin:round;stroke-width:2px"/><rect x="428.07" y="199.03" width="57.18" height="57.18" transform="translate(229.04 684.29) rotate(-90)" style="fill:#8860bd;stroke:#7043ab;stroke-linecap:round;stroke-linejoin:round;stroke-width:2px"/><polygon points="485.25 256.21 475.67 246.63 475.67 208.62 437.65 208.62 428.07 199.03 485.25 199.03 485.25 256.21" style="fill:#fff;opacity:0.1"/><polygon points="485.25 256.21 475.67 246.63 437.65 246.63 437.65 208.62 428.07 199.03 428.07 256.21 485.25 256.21" style="fill:#7043ab"/><rect x="428.07" y="199.03" width="57.18" height="57.18" transform="translate(229.04 684.29) rotate(-90)" style="fill:none;stroke:#7043ab;stroke-linecap:round;stroke-linejoin:round;stroke-width:2px"/><rect x="428.07" y="139.86" width="57.18" height="57.18" style="fill:#f56f40;stroke:#d65129;stroke-linecap:round;stroke-linejoin:round;stroke-width:2px"/><rect x="428.07" y="139.86" width="57.18" height="57.18" transform="translate(288.22 625.11) rotate(-90)" style="fill:#8860bd;stroke:#7043ab;stroke-linecap:round;stroke-linejoin:round;stroke-width:2px"/><polygon points="485.25 197.03 475.67 187.45 475.67 149.44 437.65 149.44 428.07 139.85 485.25 139.85 485.25 197.03" style="fill:#fff;opacity:0.1"/><polygon points="485.25 197.03 475.67 187.45 437.65 187.45 437.65 149.44 428.07 139.85 428.07 197.03 485.25 197.03" style="fill:#7043ab"/><rect x="428.07" y="139.86" width="57.18" height="57.18" transform="translate(288.22 625.11) rotate(-90)" style="fill:none;stroke:#7043ab;stroke-linecap:round;stroke-linejoin:round;stroke-width:2px"/><rect x="428.07" y="80.68" width="57.18" height="57.18" style="fill:#f56f40;stroke:#d65129;stroke-linecap:round;stroke-linejoin:round;stroke-width:2px"/><rect x="428.07" y="80.68" width="57.18" height="57.18" transform="translate(347.4 565.93) rotate(-90)" style="fill:#8860bd;stroke:#7043ab;stroke-linecap:round;stroke-linejoin:round;stroke-width:2px"/><polygon points="485.25 137.85 475.67 128.28 475.67 90.26 437.65 90.26 428.07 80.68 485.25 80.68 485.25 137.85" style="fill:#fff;opacity:0.1"/><polygon points="485.25 137.85 475.67 128.28 437.65 128.28 437.65 90.26 428.07 80.68 428.07 137.85 485.25 137.85" style="fill:#7043ab"/><rect x="428.07" y="80.68" width="57.18" height="57.18" transform="translate(347.4 565.93) rotate(-90)" style="fill:none;stroke:#7043ab;stroke-linecap:round;stroke-linejoin:round;stroke-width:2px"/><ellipse cx="287.28" cy="93.54" rx="53.99" ry="14.91" style="fill:#fff"/><ellipse cx="289.7" cy="99" rx="39.19" ry="6.85" transform="translate(-1.49 4.47) rotate(-0.88)" style="fill:#a9d7f3;opacity:0.5"/><path d="M9.16,88.68A67.87,67.87,0,0,0,3.72,106.3a73.1,73.1,0,0,0,.83,29.46c42.35-1.53,74.88-11.53,74.88-23.64C79.43,100.46,49.16,90.77,9.16,88.68Z" style="fill:#fff"/><path d="M3.17,110.05c-.73,7.25-1,14.73.56,21.88,34.38-1.5,61.89-7.33,61.67-13.23S37.66,109,3.17,110.05Z" style="fill:#a9d7f3;opacity:0.5"/><path d="M845.12,72a412,412,0,0,0-42.64-2.24c-56,0-101.39,11.63-101.39,26s45.39,26,101.39,26a343.35,343.35,0,0,0,51.51-3.6C856.35,105.51,856.49,87.18,845.12,72Z" style="fill:#fff"/><path d="M854.62,95.41A424,424,0,0,0,811.49,94c-41.8.66-75.57,6.54-75.43,13.14S770.2,118.56,812,117.9a407.42,407.42,0,0,0,42.5-2.74C855.36,108.64,855.87,101.95,854.62,95.41Z" style="fill:#a9d7f3;opacity:0.5"/><ellipse cx="47.05" cy="292.32" rx="30.54" ry="8.43" style="fill:#fff"/><ellipse cx="48.84" cy="295.2" rx="22.8" ry="3.88" transform="translate(-5.06 0.88) rotate(-0.98)" style="fill:#a9d7f3;opacity:0.5"/><path d="M157.24,138.54a66.43,66.43,0,0,0-4.52,13.75l-12.07,1.19a7.43,7.43,0,0,0-3.21,1.11S138.51,135.62,157.24,138.54Z" style="fill:#f56f40;stroke:#d65129;stroke-linecap:round;stroke-linejoin:round;stroke-width:2px"/><path d="M177.09,156l-30.73-3.18a72.41,72.41,0,0,1,7.37-13.22c4.66-6.53,11.22-12.66,18.67-10.88C172.41,128.71,183.39,130.22,177.09,156Z" style="fill:#f56f40;stroke:#d65129;stroke-linecap:round;stroke-linejoin:round;stroke-width:2px"/><path d="M190.77,174.65a33.26,33.26,0,0,0,.24-9c0-.25-.06-.48-.09-.73-14.3,4.38-31,1.94-45-4.06a16.76,16.76,0,0,0-8.82-1.63l2,21C156.21,183.56,174.82,181.86,190.77,174.65Z" style="fill:#fff"/><path d="M139.14,180.29l.81,8.44L184,184.62l.28-.09c3.15-.5,5.52-4.44,6.45-9.89C174.82,181.86,156.21,183.56,139.14,180.29Z" style="fill:#e7f1f8"/><path d="M145.94,160.88c14,6,30.67,8.44,45,4.06-1.17-9.31-5.68-16.18-10.26-15.46l-2.84.27-29.61,2.75-11.63,1.09.54,5.68A16.76,16.76,0,0,1,145.94,160.88Z" style="fill:#e7f1f8"/><path d="M136.58,153.57l11.63-1.09,29.61-2.75,2.84-.27c4.7-.74,9.33,6.51,10.36,16.19s-2,18.13-6.69,18.87l-.28.09-44.08,4.11Z" style="fill:none;stroke:#3f555a;stroke-linecap:round;stroke-linejoin:round;stroke-width:2px"/><path d="M140.67,188.62c-4.68.89-9.54-6.2-10.87-15.84-1.1-7.93.55-15.13,3.77-17.92a4.8,4.8,0,0,1,2.29-1.16c4.68-.89,9.54,6.2,10.88,15.84S145.36,187.72,140.67,188.62Z" style="fill:#d0e4f1;stroke:#3f555a;stroke-linecap:round;stroke-linejoin:round;stroke-width:2px"/><line x1="136.99" y1="171.15" x2="120.89" y2="172.87" style="fill:none;stroke:#3f555a;stroke-linecap:round;stroke-linejoin:round;stroke-width:2px"/><line x1="191.5" y1="166.09" x2="200.76" y2="165.43" style="fill:none;stroke:#3f555a;stroke-linecap:round;stroke-linejoin:round;stroke-width:2px"/><path d="M154.31,160.71a14.54,14.54,0,0,1,1.52,8.69" style="fill:none;stroke:#3f555a;stroke-linecap:round;stroke-linejoin:round;stroke-width:2px"/><path d="M182,158.19a16.61,16.61,0,0,1,1.58,8.68" style="fill:none;stroke:#3f555a;stroke-linecap:round;stroke-linejoin:round;stroke-width:2px"/><path d="M165.94,175.59c3.54.72,9.3.41,12.57-1.32" style="fill:none;stroke:#3f555a;stroke-linecap:round;stroke-linejoin:round;stroke-width:2px"/><path d="M109.94,205.88c11.07-4.3,22.51-3.31,33.4.18a10.2,10.2,0,0,0-.95-6.83,4.42,4.42,0,0,0-2.75-2.17C91.14,184,88.56,228.24,88.56,228.24a15.2,15.2,0,0,0,5.32,2.57C94.38,220.25,100.19,210.31,109.94,205.88Z" style="fill:#fff"/><path d="M109.94,205.88c-9.75,4.43-15.56,14.37-16.06,24.93a9.93,9.93,0,0,0,7.3-.8c2.56-26.72,25.65-22.18,35.18-19.11a5.24,5.24,0,0,0,6.58-3.28,12.72,12.72,0,0,0,.4-1.56C132.45,202.57,121,201.57,109.94,205.88Z" style="fill:#e7f1f8"/><line x1="103.43" y1="220.49" x2="98.33" y2="219.03" style="fill:none;stroke:#c3d4e0;stroke-linecap:round;stroke-linejoin:round;stroke-width:2px"/><line x1="116.27" y1="208.71" x2="114.49" y2="203.32" style="fill:none;stroke:#c3d4e0;stroke-linecap:round;stroke-linejoin:round;stroke-width:2px"/><line x1="108.58" y1="213.26" x2="105.1" y2="208.79" style="fill:none;stroke:#c3d4e0;stroke-linecap:round;stroke-linejoin:round;stroke-width:2px"/><line x1="127.74" y1="208.71" x2="127.88" y2="203.88" style="fill:none;stroke:#c3d4e0;stroke-linecap:round;stroke-linejoin:round;stroke-width:2px"/><path d="M101.18,230c2.55-26.58,25.4-22.22,35-19.16a5.44,5.44,0,0,0,6.87-3.67,10.38,10.38,0,0,0-.68-7.94,4.44,4.44,0,0,0-2.76-2.18C91.14,184,88.56,228.24,88.56,228.24S94.89,233.41,101.18,230Z" style="fill:none;stroke:#3f555a;stroke-linecap:round;stroke-linejoin:round;stroke-width:2px"/><path d="M109.14,238.85c.12-4.27-3.22-8.58-7.49-8.7-.26,0-.52,0-.78,0a8.45,8.45,0,0,0-5.94-2.84c-7.75-.22-9.94,5.6-10.63,12.28-1.26,12.2,4,14.88,12,13,4.52-1.06,4.75-4.17,6.49-7.94C106.24,244,109,242.54,109.14,238.85Z" style="fill:#fff;stroke:#3f555a;stroke-linecap:round;stroke-linejoin:round;stroke-width:2px"/><path d="M128.37,362.11h21.26a4.49,4.49,0,0,1,4.49,4.49v8a0,0,0,0,1,0,0H128.37a0,0,0,0,1,0,0V362.11A0,0,0,0,1,128.37,362.11Z" style="fill:#fff;stroke:#3f555a;stroke-linecap:round;stroke-linejoin:round;stroke-width:2px"/><path d="M117.47,362.11h10.9a0,0,0,0,1,0,0v12.45a0,0,0,0,1,0,0h-13.9a0,0,0,0,1,0,0v-9.45A3,3,0,0,1,117.47,362.11Z" style="fill:#e7f1f8;stroke:#3f555a;stroke-linecap:round;stroke-linejoin:round;stroke-width:2px"/><path d="M213.12,303.05h22.33a3.42,3.42,0,0,1,3.42,3.42v8.92a0,0,0,0,1,0,0H213.12a0,0,0,0,1,0,0V303.05A0,0,0,0,1,213.12,303.05Z" style="fill:#fff;stroke:#3f555a;stroke-linecap:round;stroke-linejoin:round;stroke-width:2px"/><path d="M202.23,303.05h10.9a0,0,0,0,1,0,0v12.33a0,0,0,0,1,0,0h-13.9a0,0,0,0,1,0,0v-9.33A3,3,0,0,1,202.23,303.05Z" style="fill:#e7f1f8;stroke:#3f555a;stroke-linecap:round;stroke-linejoin:round;stroke-width:2px"/><rect x="606.63" y="12.73" width="6.16" height="286.02" style="fill:#c3d4e0;stroke:#3f555a;stroke-miterlimit:10;stroke-width:2px"/><rect x="534.87" y="329.3" width="49.89" height="47.27" rx="2" ry="2" style="fill:#c3d4e0"/><rect x="534.87" y="329.48" width="11.85" height="45.09" style="fill:#a1c2d8"/><rect x="552.17" y="345.23" width="14.04" height="48.64" transform="translate(928.74 -189.63) rotate(90)" style="fill:#a1c2d8"/><rect x="534.87" y="329.3" width="49.89" height="47.27" rx="4" ry="4" style="fill:none;stroke:#3f555a;stroke-linecap:round;stroke-linejoin:round;stroke-width:2px"/><rect x="634.65" y="329.3" width="49.89" height="47.27" rx="2" ry="2" style="fill:#c3d4e0"/><rect x="634.65" y="329.48" width="11.85" height="45.09" style="fill:#a1c2d8"/><rect x="651.95" y="345.23" width="14.04" height="48.64" transform="translate(1028.52 -289.41) rotate(90)" style="fill:#a1c2d8"/><rect x="634.65" y="329.3" width="49.89" height="47.27" rx="4" ry="4" style="fill:none;stroke:#3f555a;stroke-linecap:round;stroke-linejoin:round;stroke-width:2px"/><rect x="584.76" y="329.3" width="49.89" height="47.27" rx="2" ry="2" style="fill:#c3d4e0"/><rect x="584.76" y="329.48" width="11.85" height="45.09" style="fill:#a1c2d8"/><rect x="602.06" y="345.23" width="14.04" height="48.64" transform="translate(978.63 -239.52) rotate(90)" style="fill:#a1c2d8"/><rect x="584.76" y="329.3" width="49.89" height="47.27" rx="4" ry="4" style="fill:none;stroke:#3f555a;stroke-linecap:round;stroke-linejoin:round;stroke-width:2px"/><rect x="559.81" y="282.03" width="49.89" height="47.27" rx="2" ry="2" style="fill:#c3d4e0"/><rect x="559.81" y="282.21" width="11.85" height="45.09" style="fill:#a1c2d8"/><rect x="577.11" y="297.96" width="14.04" height="48.64" transform="translate(906.41 -261.85) rotate(90)" style="fill:#a1c2d8"/><rect x="559.81" y="282.03" width="49.89" height="47.27" rx="4" ry="4" style="fill:none;stroke:#3f555a;stroke-linecap:round;stroke-linejoin:round;stroke-width:2px"/><rect x="609.7" y="282.03" width="49.89" height="47.27" rx="2" ry="2" style="fill:#c3d4e0"/><rect x="609.7" y="282.21" width="11.85" height="45.09" style="fill:#a1c2d8"/><rect x="627" y="297.96" width="14.04" height="48.64" transform="translate(956.3 -311.74) rotate(90)" style="fill:#a1c2d8"/><rect x="609.7" y="282.03" width="49.89" height="47.27" rx="4" ry="4" style="fill:none;stroke:#3f555a;stroke-linecap:round;stroke-linejoin:round;stroke-width:2px"/><circle cx="117.61" cy="173.17" r="3.52" transform="translate(-60.91 282.48) rotate(-87.3)" style="fill:#f56f40;stroke:#d65129;stroke-linecap:round;stroke-linejoin:round;stroke-width:2px"/><polygon points="173.71 168.67 170.9 166.3 168.45 169.07 173.71 168.67" style="fill:#f56f40;stroke:#d65129;stroke-linecap:round;stroke-linejoin:round;stroke-width:2px"/><circle cx="609.71" cy="9.3" r="8.3" style="fill:#fff;stroke:#3f555a;stroke-linecap:round;stroke-linejoin:round;stroke-width:2px"/><rect x="9.52" y="376.57" width="55.06" height="55.06" style="fill:#c3d4e0"/><polygon points="14.61 426.1 14.61 404.1 9.52 404.1 9.52 426.1 9.52 431.63 14.61 431.63 23.66 431.63 23.66 426.1 14.61 426.1" style="fill:#a1c2d8"/><polygon points="28.75 426.1 28.75 404.1 23.66 404.1 23.66 426.1 23.66 431.63 28.75 431.63 50.69 431.63 50.69 426.1 28.75 426.1" style="fill:#a1c2d8"/><polygon points="14.98 398.57 14.98 376.57 9.89 376.57 9.89 398.57 9.89 404.1 14.98 404.1 36.92 404.1 36.92 398.57 14.98 398.57" style="fill:#a1c2d8"/><polygon points="42.38 398.57 42.38 376.57 37.29 376.57 37.29 398.57 37.29 404.1 42.38 404.1 64.32 404.1 64.32 398.57 42.38 398.57" style="fill:#a1c2d8"/><polygon points="55.53 426.1 55.53 404.1 50.43 404.1 50.43 426.1 50.43 431.63 55.53 431.63 64.57 431.63 64.57 426.1 55.53 426.1" style="fill:#a1c2d8"/><rect x="9.52" y="376.57" width="55.06" height="55.06" style="fill:none;stroke:#3f555a;stroke-linecap:round;stroke-linejoin:round;stroke-width:2px"/><line x1="64.57" y1="376.57" x2="64.57" y2="431.63" style="fill:none;stroke:#3f555a;stroke-linecap:round;stroke-linejoin:round;stroke-width:2px"/><line x1="9.52" y1="431.63" x2="9.52" y2="376.57" style="fill:none;stroke:#3f555a;stroke-linecap:round;stroke-linejoin:round;stroke-width:2px"/><line x1="9.52" y1="404.1" x2="64.57" y2="404.1" style="fill:none;stroke:#3f555a;stroke-linecap:round;stroke-linejoin:round;stroke-width:2px"/><line x1="37.05" y1="381.57" x2="37.05" y2="404.1" style="fill:none;stroke:#3f555a;stroke-linecap:round;stroke-linejoin:round;stroke-width:2px"/><line x1="23.4" y1="409.1" x2="23.4" y2="431.63" style="fill:none;stroke:#3f555a;stroke-linecap:round;stroke-linejoin:round;stroke-width:2px"/><line x1="50.69" y1="409.1" x2="50.69" y2="431.63" style="fill:none;stroke:#3f555a;stroke-linecap:round;stroke-linejoin:round;stroke-width:2px"/><rect x="64.57" y="376.57" width="55.06" height="55.06" style="fill:#c3d4e0"/><polygon points="69.67 398.57 69.67 376.57 64.57 376.57 64.57 398.57 64.57 404.1 69.67 404.1 78.71 404.1 78.71 398.57 69.67 398.57" style="fill:#a1c2d8"/><polygon points="83.81 398.57 83.81 376.57 78.71 376.57 78.71 398.57 78.71 404.1 83.81 404.1 105.75 404.1 105.75 398.57 83.81 398.57" style="fill:#a1c2d8"/><polygon points="69.67 426.1 69.67 404.1 64.57 404.1 64.57 426.1 64.57 431.63 69.67 431.63 91.61 431.63 91.61 426.1 69.67 426.1" style="fill:#a1c2d8"/><polygon points="97.07 426.1 97.07 404.1 91.97 404.1 91.97 426.1 91.97 431.63 97.07 431.63 119.01 431.63 119.01 426.1 97.07 426.1" style="fill:#a1c2d8"/><polygon points="110.59 398.57 110.59 376.57 105.49 376.57 105.49 398.57 105.49 404.1 110.59 404.1 119.63 404.1 119.63 398.57 110.59 398.57" style="fill:#a1c2d8"/><rect x="64.57" y="376.57" width="55.06" height="55.06" style="fill:none;stroke:#3f555a;stroke-linecap:round;stroke-linejoin:round;stroke-width:2px"/><line x1="119.63" y1="376.57" x2="119.63" y2="431.63" style="fill:none;stroke:#3f555a;stroke-linecap:round;stroke-linejoin:round;stroke-width:2px"/><line x1="64.57" y1="431.63" x2="64.57" y2="376.57" style="fill:none;stroke:#3f555a;stroke-linecap:round;stroke-linejoin:round;stroke-width:2px"/><line x1="64.57" y1="404.1" x2="119.63" y2="404.1" style="fill:none;stroke:#3f555a;stroke-linecap:round;stroke-linejoin:round;stroke-width:2px"/><line x1="91.73" y1="409.1" x2="91.73" y2="431.63" style="fill:none;stroke:#3f555a;stroke-linecap:round;stroke-linejoin:round;stroke-width:2px"/><line x1="78.46" y1="381.57" x2="78.46" y2="404.1" style="fill:none;stroke:#3f555a;stroke-linecap:round;stroke-linejoin:round;stroke-width:2px"/><line x1="105.75" y1="381.57" x2="105.75" y2="404.1" style="fill:none;stroke:#3f555a;stroke-linecap:round;stroke-linejoin:round;stroke-width:2px"/><rect x="119.63" y="376.57" width="55.06" height="55.06" style="fill:#c3d4e0"/><polygon points="124.73 426.1 124.73 404.1 119.63 404.1 119.63 426.1 119.63 431.63 124.73 431.63 133.77 431.63 133.77 426.1 124.73 426.1" style="fill:#a1c2d8"/><polygon points="138.87 426.1 138.87 404.1 133.77 404.1 133.77 426.1 133.77 431.63 138.87 431.63 160.8 431.63 160.8 426.1 138.87 426.1" style="fill:#a1c2d8"/><polygon points="125.1 398.57 125.1 376.57 120 376.57 120 398.57 120 404.1 125.1 404.1 147.03 404.1 147.03 398.57 125.1 398.57" style="fill:#a1c2d8"/><polygon points="152.5 398.57 152.5 376.57 147.4 376.57 147.4 398.57 147.4 404.1 152.5 404.1 174.43 404.1 174.43 398.57 152.5 398.57" style="fill:#a1c2d8"/><polygon points="165.64 426.1 165.64 404.1 160.55 404.1 160.55 426.1 160.55 431.63 165.64 431.63 174.69 431.63 174.69 426.1 165.64 426.1" style="fill:#a1c2d8"/><rect x="119.63" y="376.57" width="55.06" height="55.06" style="fill:none;stroke:#3f555a;stroke-linecap:round;stroke-linejoin:round;stroke-width:2px"/><line x1="174.69" y1="376.57" x2="174.69" y2="431.63" style="fill:none;stroke:#3f555a;stroke-linecap:round;stroke-linejoin:round;stroke-width:2px"/><line x1="119.63" y1="431.63" x2="119.63" y2="376.57" style="fill:none;stroke:#3f555a;stroke-linecap:round;stroke-linejoin:round;stroke-width:2px"/><line x1="119.63" y1="404.1" x2="174.69" y2="404.1" style="fill:none;stroke:#3f555a;stroke-linecap:round;stroke-linejoin:round;stroke-width:2px"/><line x1="147.16" y1="381.57" x2="147.16" y2="404.1" style="fill:none;stroke:#3f555a;stroke-linecap:round;stroke-linejoin:round;stroke-width:2px"/><line x1="133.51" y1="409.1" x2="133.51" y2="431.63" style="fill:none;stroke:#3f555a;stroke-linecap:round;stroke-linejoin:round;stroke-width:2px"/><line x1="160.8" y1="409.1" x2="160.8" y2="431.63" style="fill:none;stroke:#3f555a;stroke-linecap:round;stroke-linejoin:round;stroke-width:2px"/><rect x="174.69" y="376.57" width="55.06" height="55.06" style="fill:#c3d4e0"/><polygon points="179.78 398.57 179.78 376.57 174.69 376.57 174.69 398.57 174.69 404.1 179.78 404.1 188.83 404.1 188.83 398.57 179.78 398.57" style="fill:#a1c2d8"/><polygon points="193.92 398.57 193.92 376.57 188.83 376.57 188.83 398.57 188.83 404.1 193.92 404.1 215.86 404.1 215.86 398.57 193.92 398.57" style="fill:#a1c2d8"/><polygon points="179.78 426.1 179.78 404.1 174.69 404.1 174.69 426.1 174.69 431.63 179.78 431.63 201.72 431.63 201.72 426.1 179.78 426.1" style="fill:#a1c2d8"/><polygon points="207.18 426.1 207.18 404.1 202.09 404.1 202.09 426.1 202.09 431.63 207.18 431.63 229.12 431.63 229.12 426.1 207.18 426.1" style="fill:#a1c2d8"/><polygon points="220.7 398.57 220.7 376.57 215.6 376.57 215.6 398.57 215.6 404.1 220.7 404.1 229.74 404.1 229.74 398.57 220.7 398.57" style="fill:#a1c2d8"/><rect x="174.69" y="376.57" width="55.06" height="55.06" style="fill:none;stroke:#3f555a;stroke-linecap:round;stroke-linejoin:round;stroke-width:2px"/><line x1="229.74" y1="376.57" x2="229.74" y2="431.63" style="fill:none;stroke:#3f555a;stroke-linecap:round;stroke-linejoin:round;stroke-width:2px"/><line x1="174.69" y1="431.63" x2="174.69" y2="376.57" style="fill:none;stroke:#3f555a;stroke-linecap:round;stroke-linejoin:round;stroke-width:2px"/><line x1="174.69" y1="404.1" x2="229.74" y2="404.1" style="fill:none;stroke:#3f555a;stroke-linecap:round;stroke-linejoin:round;stroke-width:2px"/><line x1="201.85" y1="409.1" x2="201.85" y2="431.63" style="fill:none;stroke:#3f555a;stroke-linecap:round;stroke-linejoin:round;stroke-width:2px"/><line x1="188.57" y1="381.57" x2="188.57" y2="404.1" style="fill:none;stroke:#3f555a;stroke-linecap:round;stroke-linejoin:round;stroke-width:2px"/><line x1="215.86" y1="381.57" x2="215.86" y2="404.1" style="fill:none;stroke:#3f555a;stroke-linecap:round;stroke-linejoin:round;stroke-width:2px"/><rect x="229.74" y="376.57" width="55.06" height="55.06" style="fill:#c3d4e0"/><polygon points="234.84 426.1 234.84 404.1 229.74 404.1 229.74 426.1 229.74 431.63 234.84 431.63 243.88 431.63 243.88 426.1 234.84 426.1" style="fill:#a1c2d8"/><polygon points="248.98 426.1 248.98 404.1 243.88 404.1 243.88 426.1 243.88 431.63 248.98 431.63 270.91 431.63 270.91 426.1 248.98 426.1" style="fill:#a1c2d8"/><polygon points="235.21 398.57 235.21 376.57 230.11 376.57 230.11 398.57 230.11 404.1 235.21 404.1 257.14 404.1 257.14 398.57 235.21 398.57" style="fill:#a1c2d8"/><polygon points="262.61 398.57 262.61 376.57 257.51 376.57 257.51 398.57 257.51 404.1 262.61 404.1 284.54 404.1 284.54 398.57 262.61 398.57" style="fill:#a1c2d8"/><polygon points="275.76 426.1 275.76 404.1 270.66 404.1 270.66 426.1 270.66 431.63 275.76 431.63 284.8 431.63 284.8 426.1 275.76 426.1" style="fill:#a1c2d8"/><rect x="229.74" y="376.57" width="55.06" height="55.06" style="fill:none;stroke:#3f555a;stroke-linecap:round;stroke-linejoin:round;stroke-width:2px"/><line x1="284.8" y1="376.57" x2="284.8" y2="431.63" style="fill:none;stroke:#3f555a;stroke-linecap:round;stroke-linejoin:round;stroke-width:2px"/><line x1="229.74" y1="431.63" x2="229.74" y2="376.57" style="fill:none;stroke:#3f555a;stroke-linecap:round;stroke-linejoin:round;stroke-width:2px"/><line x1="229.74" y1="404.1" x2="284.8" y2="404.1" style="fill:none;stroke:#3f555a;stroke-linecap:round;stroke-linejoin:round;stroke-width:2px"/><line x1="257.27" y1="381.57" x2="257.27" y2="404.1" style="fill:none;stroke:#3f555a;stroke-linecap:round;stroke-linejoin:round;stroke-width:2px"/><line x1="243.63" y1="409.1" x2="243.63" y2="431.63" style="fill:none;stroke:#3f555a;stroke-linecap:round;stroke-linejoin:round;stroke-width:2px"/><line x1="270.91" y1="409.1" x2="270.91" y2="431.63" style="fill:none;stroke:#3f555a;stroke-linecap:round;stroke-linejoin:round;stroke-width:2px"/><rect x="284.8" y="376.57" width="55.06" height="55.06" style="fill:#c3d4e0"/><polygon points="289.89 398.57 289.89 376.57 284.8 376.57 284.8 398.57 284.8 404.1 289.89 404.1 298.94 404.1 298.94 398.57 289.89 398.57" style="fill:#a1c2d8"/><polygon points="304.04 398.57 304.04 376.57 298.94 376.57 298.94 398.57 298.94 404.1 304.04 404.1 325.97 404.1 325.97 398.57 304.04 398.57" style="fill:#a1c2d8"/><polygon points="289.89 426.1 289.89 404.1 284.8 404.1 284.8 426.1 284.8 431.63 289.89 431.63 311.83 431.63 311.83 426.1 289.89 426.1" style="fill:#a1c2d8"/><polygon points="317.3 426.1 317.3 404.1 312.2 404.1 312.2 426.1 312.2 431.63 317.3 431.63 339.23 431.63 339.23 426.1 317.3 426.1" style="fill:#a1c2d8"/><polygon points="330.81 398.57 330.81 376.57 325.71 376.57 325.71 398.57 325.71 404.1 330.81 404.1 339.86 404.1 339.86 398.57 330.81 398.57" style="fill:#a1c2d8"/><rect x="284.8" y="376.57" width="55.06" height="55.06" style="fill:none;stroke:#3f555a;stroke-linecap:round;stroke-linejoin:round;stroke-width:2px"/><line x1="339.85" y1="376.57" x2="339.85" y2="431.63" style="fill:none;stroke:#3f555a;stroke-linecap:round;stroke-linejoin:round;stroke-width:2px"/><line x1="284.8" y1="431.63" x2="284.8" y2="376.57" style="fill:none;stroke:#3f555a;stroke-linecap:round;stroke-linejoin:round;stroke-width:2px"/><line x1="284.8" y1="404.1" x2="339.85" y2="404.1" style="fill:none;stroke:#3f555a;stroke-linecap:round;stroke-linejoin:round;stroke-width:2px"/><line x1="311.96" y1="409.1" x2="311.96" y2="431.63" style="fill:none;stroke:#3f555a;stroke-linecap:round;stroke-linejoin:round;stroke-width:2px"/><line x1="298.68" y1="381.57" x2="298.68" y2="404.1" style="fill:none;stroke:#3f555a;stroke-linecap:round;stroke-linejoin:round;stroke-width:2px"/><line x1="325.97" y1="381.57" x2="325.97" y2="404.1" style="fill:none;stroke:#3f555a;stroke-linecap:round;stroke-linejoin:round;stroke-width:2px"/><rect x="339.85" y="376.57" width="55.06" height="55.06" style="fill:#c3d4e0"/><polygon points="344.95 426.1 344.95 404.1 339.86 404.1 339.86 426.1 339.86 431.63 344.95 431.63 353.99 431.63 353.99 426.1 344.95 426.1" style="fill:#a1c2d8"/><polygon points="359.09 426.1 359.09 404.1 353.99 404.1 353.99 426.1 353.99 431.63 359.09 431.63 381.03 431.63 381.03 426.1 359.09 426.1" style="fill:#a1c2d8"/><polygon points="345.32 398.57 345.32 376.57 340.22 376.57 340.22 398.57 340.22 404.1 345.32 404.1 367.25 404.1 367.25 398.57 345.32 398.57" style="fill:#a1c2d8"/><polygon points="372.72 398.57 372.72 376.57 367.62 376.57 367.62 398.57 367.62 404.1 372.72 404.1 394.66 404.1 394.66 398.57 372.72 398.57" style="fill:#a1c2d8"/><polygon points="385.87 426.1 385.87 404.1 380.77 404.1 380.77 426.1 380.77 431.63 385.87 431.63 394.91 431.63 394.91 426.1 385.87 426.1" style="fill:#a1c2d8"/><rect x="339.85" y="376.57" width="55.06" height="55.06" style="fill:none;stroke:#3f555a;stroke-linecap:round;stroke-linejoin:round;stroke-width:2px"/><line x1="394.91" y1="376.57" x2="394.91" y2="431.63" style="fill:none;stroke:#3f555a;stroke-linecap:round;stroke-linejoin:round;stroke-width:2px"/><line x1="339.85" y1="431.63" x2="339.85" y2="376.57" style="fill:none;stroke:#3f555a;stroke-linecap:round;stroke-linejoin:round;stroke-width:2px"/><line x1="339.85" y1="404.1" x2="394.91" y2="404.1" style="fill:none;stroke:#3f555a;stroke-linecap:round;stroke-linejoin:round;stroke-width:2px"/><line x1="367.38" y1="381.57" x2="367.38" y2="404.1" style="fill:none;stroke:#3f555a;stroke-linecap:round;stroke-linejoin:round;stroke-width:2px"/><line x1="353.74" y1="409.1" x2="353.74" y2="431.63" style="fill:none;stroke:#3f555a;stroke-linecap:round;stroke-linejoin:round;stroke-width:2px"/><line x1="381.03" y1="409.1" x2="381.03" y2="431.63" style="fill:none;stroke:#3f555a;stroke-linecap:round;stroke-linejoin:round;stroke-width:2px"/><rect x="394.91" y="376.57" width="55.06" height="55.06" style="fill:#c3d4e0"/><polygon points="400.01 398.57 400.01 376.57 394.91 376.57 394.91 398.57 394.91 404.1 400.01 404.1 409.05 404.1 409.05 398.57 400.01 398.57" style="fill:#a1c2d8"/><polygon points="414.15 398.57 414.15 376.57 409.05 376.57 409.05 398.57 409.05 404.1 414.15 404.1 436.08 404.1 436.08 398.57 414.15 398.57" style="fill:#a1c2d8"/><polygon points="400.01 426.1 400.01 404.1 394.91 404.1 394.91 426.1 394.91 431.63 400.01 431.63 421.94 431.63 421.94 426.1 400.01 426.1" style="fill:#a1c2d8"/><polygon points="427.41 426.1 427.41 404.1 422.31 404.1 422.31 426.1 422.31 431.63 427.41 431.63 449.34 431.63 449.34 426.1 427.41 426.1" style="fill:#a1c2d8"/><polygon points="440.92 398.57 440.92 376.57 435.83 376.57 435.83 398.57 435.83 404.1 440.92 404.1 449.97 404.1 449.97 398.57 440.92 398.57" style="fill:#a1c2d8"/><rect x="394.91" y="376.57" width="55.06" height="55.06" style="fill:none;stroke:#3f555a;stroke-linecap:round;stroke-linejoin:round;stroke-width:2px"/><line x1="449.97" y1="376.57" x2="449.97" y2="431.63" style="fill:none;stroke:#3f555a;stroke-linecap:round;stroke-linejoin:round;stroke-width:2px"/><line x1="394.91" y1="431.63" x2="394.91" y2="376.57" style="fill:none;stroke:#3f555a;stroke-linecap:round;stroke-linejoin:round;stroke-width:2px"/><line x1="394.91" y1="404.1" x2="449.97" y2="404.1" style="fill:none;stroke:#3f555a;stroke-linecap:round;stroke-linejoin:round;stroke-width:2px"/><line x1="422.07" y1="409.1" x2="422.07" y2="431.63" style="fill:none;stroke:#3f555a;stroke-linecap:round;stroke-linejoin:round;stroke-width:2px"/><line x1="408.8" y1="381.57" x2="408.8" y2="404.1" style="fill:none;stroke:#3f555a;stroke-linecap:round;stroke-linejoin:round;stroke-width:2px"/><line x1="436.08" y1="381.57" x2="436.08" y2="404.1" style="fill:none;stroke:#3f555a;stroke-linecap:round;stroke-linejoin:round;stroke-width:2px"/><rect x="449.97" y="376.57" width="55.06" height="55.06" style="fill:#c3d4e0"/><polygon points="455.06 426.1 455.06 404.1 449.97 404.1 449.97 426.1 449.97 431.63 455.06 431.63 464.11 431.63 464.11 426.1 455.06 426.1" style="fill:#a1c2d8"/><polygon points="469.2 426.1 469.2 404.1 464.11 404.1 464.11 426.1 464.11 431.63 469.2 431.63 491.14 431.63 491.14 426.1 469.2 426.1" style="fill:#a1c2d8"/><polygon points="455.43 398.57 455.43 376.57 450.34 376.57 450.34 398.57 450.34 404.1 455.43 404.1 477.37 404.1 477.37 398.57 455.43 398.57" style="fill:#a1c2d8"/><polygon points="482.83 398.57 482.83 376.57 477.74 376.57 477.74 398.57 477.74 404.1 482.83 404.1 504.77 404.1 504.77 398.57 482.83 398.57" style="fill:#a1c2d8"/><polygon points="495.98 426.1 495.98 404.1 490.88 404.1 490.88 426.1 490.88 431.63 495.98 431.63 505.02 431.63 505.02 426.1 495.98 426.1" style="fill:#a1c2d8"/><rect x="449.97" y="376.57" width="55.06" height="55.06" style="fill:none;stroke:#3f555a;stroke-linecap:round;stroke-linejoin:round;stroke-width:2px"/><line x1="505.02" y1="376.57" x2="505.02" y2="431.63" style="fill:none;stroke:#3f555a;stroke-linecap:round;stroke-linejoin:round;stroke-width:2px"/><line x1="449.97" y1="431.63" x2="449.97" y2="376.57" style="fill:none;stroke:#3f555a;stroke-linecap:round;stroke-linejoin:round;stroke-width:2px"/><line x1="449.97" y1="404.1" x2="505.02" y2="404.1" style="fill:none;stroke:#3f555a;stroke-linecap:round;stroke-linejoin:round;stroke-width:2px"/><line x1="477.5" y1="381.57" x2="477.5" y2="404.1" style="fill:none;stroke:#3f555a;stroke-linecap:round;stroke-linejoin:round;stroke-width:2px"/><line x1="463.85" y1="409.1" x2="463.85" y2="431.63" style="fill:none;stroke:#3f555a;stroke-linecap:round;stroke-linejoin:round;stroke-width:2px"/><line x1="491.14" y1="409.1" x2="491.14" y2="431.63" style="fill:none;stroke:#3f555a;stroke-linecap:round;stroke-linejoin:round;stroke-width:2px"/><rect x="505.02" y="376.57" width="55.06" height="55.06" style="fill:#c3d4e0"/><polygon points="510.12 398.57 510.12 376.57 505.02 376.57 505.02 398.57 505.02 404.1 510.12 404.1 519.16 404.1 519.16 398.57 510.12 398.57" style="fill:#a1c2d8"/><polygon points="524.26 398.57 524.26 376.57 519.16 376.57 519.16 398.57 519.16 404.1 524.26 404.1 546.2 404.1 546.2 398.57 524.26 398.57" style="fill:#a1c2d8"/><polygon points="510.12 426.1 510.12 404.1 505.02 404.1 505.02 426.1 505.02 431.63 510.12 431.63 532.05 431.63 532.05 426.1 510.12 426.1" style="fill:#a1c2d8"/><polygon points="537.52 426.1 537.52 404.1 532.42 404.1 532.42 426.1 532.42 431.63 537.52 431.63 559.46 431.63 559.46 426.1 537.52 426.1" style="fill:#a1c2d8"/><polygon points="551.04 398.57 551.04 376.57 545.94 376.57 545.94 398.57 545.94 404.1 551.04 404.1 560.08 404.1 560.08 398.57 551.04 398.57" style="fill:#a1c2d8"/><rect x="505.02" y="376.57" width="55.06" height="55.06" style="fill:none;stroke:#3f555a;stroke-linecap:round;stroke-linejoin:round;stroke-width:2px"/><line x1="560.08" y1="376.57" x2="560.08" y2="431.63" style="fill:none;stroke:#3f555a;stroke-linecap:round;stroke-linejoin:round;stroke-width:2px"/><line x1="505.02" y1="431.63" x2="505.02" y2="376.57" style="fill:none;stroke:#3f555a;stroke-linecap:round;stroke-linejoin:round;stroke-width:2px"/><line x1="505.02" y1="404.1" x2="560.08" y2="404.1" style="fill:none;stroke:#3f555a;stroke-linecap:round;stroke-linejoin:round;stroke-width:2px"/><line x1="532.18" y1="409.1" x2="532.18" y2="431.63" style="fill:none;stroke:#3f555a;stroke-linecap:round;stroke-linejoin:round;stroke-width:2px"/><line x1="518.91" y1="381.57" x2="518.91" y2="404.1" style="fill:none;stroke:#3f555a;stroke-linecap:round;stroke-linejoin:round;stroke-width:2px"/><line x1="546.19" y1="381.57" x2="546.19" y2="404.1" style="fill:none;stroke:#3f555a;stroke-linecap:round;stroke-linejoin:round;stroke-width:2px"/><rect x="560.08" y="376.57" width="55.06" height="55.06" style="fill:#c3d4e0"/><polygon points="565.18 426.1 565.18 404.1 560.08 404.1 560.08 426.1 560.08 431.63 565.18 431.63 574.22 431.63 574.22 426.1 565.18 426.1" style="fill:#a1c2d8"/><polygon points="579.32 426.1 579.32 404.1 574.22 404.1 574.22 426.1 574.22 431.63 579.32 431.63 601.25 431.63 601.25 426.1 579.32 426.1" style="fill:#a1c2d8"/><polygon points="565.54 398.57 565.54 376.57 560.45 376.57 560.45 398.57 560.45 404.1 565.54 404.1 587.48 404.1 587.48 398.57 565.54 398.57" style="fill:#a1c2d8"/><polygon points="592.95 398.57 592.95 376.57 587.85 376.57 587.85 398.57 587.85 404.1 592.95 404.1 614.88 404.1 614.88 398.57 592.95 398.57" style="fill:#a1c2d8"/><polygon points="606.09 426.1 606.09 404.1 601 404.1 601 426.1 601 431.63 606.09 431.63 615.14 431.63 615.14 426.1 606.09 426.1" style="fill:#a1c2d8"/><rect x="560.08" y="376.57" width="55.06" height="55.06" style="fill:none;stroke:#3f555a;stroke-linecap:round;stroke-linejoin:round;stroke-width:2px"/><line x1="615.14" y1="376.57" x2="615.14" y2="431.63" style="fill:none;stroke:#3f555a;stroke-linecap:round;stroke-linejoin:round;stroke-width:2px"/><line x1="560.08" y1="431.63" x2="560.08" y2="376.57" style="fill:none;stroke:#3f555a;stroke-linecap:round;stroke-linejoin:round;stroke-width:2px"/><line x1="560.08" y1="404.1" x2="615.14" y2="404.1" style="fill:none;stroke:#3f555a;stroke-linecap:round;stroke-linejoin:round;stroke-width:2px"/><line x1="587.61" y1="381.57" x2="587.61" y2="404.1" style="fill:none;stroke:#3f555a;stroke-linecap:round;stroke-linejoin:round;stroke-width:2px"/><line x1="573.96" y1="409.1" x2="573.96" y2="431.63" style="fill:none;stroke:#3f555a;stroke-linecap:round;stroke-linejoin:round;stroke-width:2px"/><line x1="601.25" y1="409.1" x2="601.25" y2="431.63" style="fill:none;stroke:#3f555a;stroke-linecap:round;stroke-linejoin:round;stroke-width:2px"/><rect x="615.14" y="376.57" width="55.06" height="55.06" style="fill:#c3d4e0"/><polygon points="620.23 398.57 620.23 376.57 615.14 376.57 615.14 398.57 615.14 404.1 620.23 404.1 629.27 404.1 629.27 398.57 620.23 398.57" style="fill:#a1c2d8"/><polygon points="634.37 398.57 634.37 376.57 629.27 376.57 629.27 398.57 629.27 404.1 634.37 404.1 656.31 404.1 656.31 398.57 634.37 398.57" style="fill:#a1c2d8"/><polygon points="620.23 426.1 620.23 404.1 615.14 404.1 615.14 426.1 615.14 431.63 620.23 431.63 642.17 431.63 642.17 426.1 620.23 426.1" style="fill:#a1c2d8"/><polygon points="647.63 426.1 647.63 404.1 642.54 404.1 642.54 426.1 642.54 431.63 647.63 431.63 669.57 431.63 669.57 426.1 647.63 426.1" style="fill:#a1c2d8"/><polygon points="661.15 398.57 661.15 376.57 656.05 376.57 656.05 398.57 656.05 404.1 661.15 404.1 670.19 404.1 670.19 398.57 661.15 398.57" style="fill:#a1c2d8"/><rect x="615.14" y="376.57" width="55.06" height="55.06" style="fill:none;stroke:#3f555a;stroke-linecap:round;stroke-linejoin:round;stroke-width:2px"/><line x1="670.19" y1="376.57" x2="670.19" y2="431.63" style="fill:none;stroke:#3f555a;stroke-linecap:round;stroke-linejoin:round;stroke-width:2px"/><line x1="615.14" y1="431.63" x2="615.14" y2="376.57" style="fill:none;stroke:#3f555a;stroke-linecap:round;stroke-linejoin:round;stroke-width:2px"/><line x1="615.14" y1="404.1" x2="670.19" y2="404.1" style="fill:none;stroke:#3f555a;stroke-linecap:round;stroke-linejoin:round;stroke-width:2px"/><line x1="642.29" y1="409.1" x2="642.29" y2="431.63" style="fill:none;stroke:#3f555a;stroke-linecap:round;stroke-linejoin:round;stroke-width:2px"/><line x1="629.02" y1="381.57" x2="629.02" y2="404.1" style="fill:none;stroke:#3f555a;stroke-linecap:round;stroke-linejoin:round;stroke-width:2px"/><line x1="656.31" y1="381.57" x2="656.31" y2="404.1" style="fill:none;stroke:#3f555a;stroke-linecap:round;stroke-linejoin:round;stroke-width:2px"/><rect x="670.19" y="376.57" width="55.06" height="55.06" style="fill:#c3d4e0"/><polygon points="675.29 426.1 675.29 404.1 670.19 404.1 670.19 426.1 670.19 431.63 675.29 431.63 684.33 431.63 684.33 426.1 675.29 426.1" style="fill:#a1c2d8"/><polygon points="689.43 426.1 689.43 404.1 684.33 404.1 684.33 426.1 684.33 431.63 689.43 431.63 711.36 431.63 711.36 426.1 689.43 426.1" style="fill:#a1c2d8"/><polygon points="675.66 398.57 675.66 376.57 670.56 376.57 670.56 398.57 670.56 404.1 675.66 404.1 697.59 404.1 697.59 398.57 675.66 398.57" style="fill:#a1c2d8"/><polygon points="703.06 398.57 703.06 376.57 697.96 376.57 697.96 398.57 697.96 404.1 703.06 404.1 724.99 404.1 724.99 398.57 703.06 398.57" style="fill:#a1c2d8"/><polygon points="716.21 426.1 716.21 404.1 711.11 404.1 711.11 426.1 711.11 431.63 716.21 431.63 725.25 431.63 725.25 426.1 716.21 426.1" style="fill:#a1c2d8"/><rect x="670.19" y="376.57" width="55.06" height="55.06" style="fill:none;stroke:#3f555a;stroke-linecap:round;stroke-linejoin:round;stroke-width:2px"/><line x1="725.25" y1="376.57" x2="725.25" y2="431.63" style="fill:none;stroke:#3f555a;stroke-linecap:round;stroke-linejoin:round;stroke-width:2px"/><line x1="670.19" y1="431.63" x2="670.19" y2="376.57" style="fill:none;stroke:#3f555a;stroke-linecap:round;stroke-linejoin:round;stroke-width:2px"/><line x1="670.19" y1="404.1" x2="725.25" y2="404.1" style="fill:none;stroke:#3f555a;stroke-linecap:round;stroke-linejoin:round;stroke-width:2px"/><line x1="697.72" y1="381.57" x2="697.72" y2="404.1" style="fill:none;stroke:#3f555a;stroke-linecap:round;stroke-linejoin:round;stroke-width:2px"/><line x1="684.08" y1="409.1" x2="684.08" y2="431.63" style="fill:none;stroke:#3f555a;stroke-linecap:round;stroke-linejoin:round;stroke-width:2px"/><line x1="711.36" y1="409.1" x2="711.36" y2="431.63" style="fill:none;stroke:#3f555a;stroke-linecap:round;stroke-linejoin:round;stroke-width:2px"/><rect x="725.25" y="376.57" width="55.06" height="55.06" style="fill:#c3d4e0"/><polygon points="730.35 398.57 730.35 376.57 725.25 376.57 725.25 398.57 725.25 404.1 730.35 404.1 739.39 404.1 739.39 398.57 730.35 398.57" style="fill:#a1c2d8"/><polygon points="744.48 398.57 744.48 376.57 739.39 376.57 739.39 398.57 739.39 404.1 744.48 404.1 766.42 404.1 766.42 398.57 744.48 398.57" style="fill:#a1c2d8"/><polygon points="730.35 426.1 730.35 404.1 725.25 404.1 725.25 426.1 725.25 431.63 730.35 431.63 752.28 431.63 752.28 426.1 730.35 426.1" style="fill:#a1c2d8"/><polygon points="757.75 426.1 757.75 404.1 752.65 404.1 752.65 426.1 752.65 431.63 757.75 431.63 779.68 431.63 779.68 426.1 757.75 426.1" style="fill:#a1c2d8"/><polygon points="771.26 398.57 771.26 376.57 766.16 376.57 766.16 398.57 766.16 404.1 771.26 404.1 780.3 404.1 780.3 398.57 771.26 398.57" style="fill:#a1c2d8"/><rect x="725.25" y="376.57" width="55.06" height="55.06" style="fill:none;stroke:#3f555a;stroke-linecap:round;stroke-linejoin:round;stroke-width:2px"/><line x1="780.3" y1="376.57" x2="780.3" y2="431.63" style="fill:none;stroke:#3f555a;stroke-linecap:round;stroke-linejoin:round;stroke-width:2px"/><line x1="725.25" y1="431.63" x2="725.25" y2="376.57" style="fill:none;stroke:#3f555a;stroke-linecap:round;stroke-linejoin:round;stroke-width:2px"/><line x1="725.25" y1="404.1" x2="780.3" y2="404.1" style="fill:none;stroke:#3f555a;stroke-linecap:round;stroke-linejoin:round;stroke-width:2px"/><line x1="752.41" y1="409.1" x2="752.41" y2="431.63" style="fill:none;stroke:#3f555a;stroke-linecap:round;stroke-linejoin:round;stroke-width:2px"/><line x1="739.13" y1="381.57" x2="739.13" y2="404.1" style="fill:none;stroke:#3f555a;stroke-linecap:round;stroke-linejoin:round;stroke-width:2px"/><line x1="766.42" y1="381.57" x2="766.42" y2="404.1" style="fill:none;stroke:#3f555a;stroke-linecap:round;stroke-linejoin:round;stroke-width:2px"/><rect x="780.3" y="376.57" width="55.06" height="55.06" style="fill:#c3d4e0"/><polygon points="785.4 426.1 785.4 404.1 780.3 404.1 780.3 426.1 780.3 431.63 785.4 431.63 794.44 431.63 794.44 426.1 785.4 426.1" style="fill:#a1c2d8"/><polygon points="799.54 426.1 799.54 404.1 794.44 404.1 794.44 426.1 794.44 431.63 799.54 431.63 821.48 431.63 821.48 426.1 799.54 426.1" style="fill:#a1c2d8"/><polygon points="785.77 398.57 785.77 376.57 780.67 376.57 780.67 398.57 780.67 404.1 785.77 404.1 807.71 404.1 807.71 398.57 785.77 398.57" style="fill:#a1c2d8"/><polygon points="813.17 398.57 813.17 376.57 808.07 376.57 808.07 398.57 808.07 404.1 813.17 404.1 835.11 404.1 835.11 398.57 813.17 398.57" style="fill:#a1c2d8"/><polygon points="826.32 426.1 826.32 404.1 821.22 404.1 821.22 426.1 821.22 431.63 826.32 431.63 835.36 431.63 835.36 426.1 826.32 426.1" style="fill:#a1c2d8"/><rect x="780.3" y="376.57" width="55.06" height="55.06" style="fill:none;stroke:#3f555a;stroke-linecap:round;stroke-linejoin:round;stroke-width:2px"/><line x1="835.36" y1="376.57" x2="835.36" y2="431.63" style="fill:none;stroke:#3f555a;stroke-linecap:round;stroke-linejoin:round;stroke-width:2px"/><line x1="780.3" y1="431.63" x2="780.3" y2="376.57" style="fill:none;stroke:#3f555a;stroke-linecap:round;stroke-linejoin:round;stroke-width:2px"/><line x1="780.3" y1="404.1" x2="835.36" y2="404.1" style="fill:none;stroke:#3f555a;stroke-linecap:round;stroke-linejoin:round;stroke-width:2px"/><line x1="807.83" y1="381.57" x2="807.83" y2="404.1" style="fill:none;stroke:#3f555a;stroke-linecap:round;stroke-linejoin:round;stroke-width:2px"/><line x1="794.19" y1="409.1" x2="794.19" y2="431.63" style="fill:none;stroke:#3f555a;stroke-linecap:round;stroke-linejoin:round;stroke-width:2px"/><line x1="821.48" y1="409.1" x2="821.48" y2="431.63" style="fill:none;stroke:#3f555a;stroke-linecap:round;stroke-linejoin:round;stroke-width:2px"/><rect x="835.36" y="376.57" width="55.06" height="55.06" style="fill:#c3d4e0"/><polygon points="840.46 398.57 840.46 376.57 835.36 376.57 835.36 398.57 835.36 404.1 840.46 404.1 849.5 404.1 849.5 398.57 840.46 398.57" style="fill:#a1c2d8"/><polygon points="854.6 398.57 854.6 376.57 849.5 376.57 849.5 398.57 849.5 404.1 854.6 404.1 876.53 404.1 876.53 398.57 854.6 398.57" style="fill:#a1c2d8"/><polygon points="840.46 426.1 840.46 404.1 835.36 404.1 835.36 426.1 835.36 431.63 840.46 431.63 862.39 431.63 862.39 426.1 840.46 426.1" style="fill:#a1c2d8"/><polygon points="867.86 426.1 867.86 404.1 862.76 404.1 862.76 426.1 862.76 431.63 867.86 431.63 889.79 431.63 889.79 426.1 867.86 426.1" style="fill:#a1c2d8"/><polygon points="881.37 398.57 881.37 376.57 876.28 376.57 876.28 398.57 876.28 404.1 881.37 404.1 890.42 404.1 890.42 398.57 881.37 398.57" style="fill:#a1c2d8"/><rect x="835.36" y="376.57" width="55.06" height="55.06" style="fill:none;stroke:#3f555a;stroke-linecap:round;stroke-linejoin:round;stroke-width:2px"/><line x1="890.42" y1="376.57" x2="890.42" y2="431.63" style="fill:none;stroke:#3f555a;stroke-linecap:round;stroke-linejoin:round;stroke-width:2px"/><line x1="835.36" y1="431.63" x2="835.36" y2="376.57" style="fill:none;stroke:#3f555a;stroke-linecap:round;stroke-linejoin:round;stroke-width:2px"/><line x1="835.36" y1="404.1" x2="890.42" y2="404.1" style="fill:none;stroke:#3f555a;stroke-linecap:round;stroke-linejoin:round;stroke-width:2px"/><line x1="862.52" y1="409.1" x2="862.52" y2="431.63" style="fill:none;stroke:#3f555a;stroke-linecap:round;stroke-linejoin:round;stroke-width:2px"/><line x1="849.25" y1="381.57" x2="849.25" y2="404.1" style="fill:none;stroke:#3f555a;stroke-linecap:round;stroke-linejoin:round;stroke-width:2px"/><line x1="876.53" y1="381.57" x2="876.53" y2="404.1" style="fill:none;stroke:#3f555a;stroke-linecap:round;stroke-linejoin:round;stroke-width:2px"/></g></g></svg>