<?xml version="1.0" encoding="utf-8"?>
<!-- Generator: Adobe Illustrator 20.1.0, SVG Export Plug-In . SVG Version: 6.00 Build 0)  -->
<svg version="1.1" id="Layer_1" xmlns="http://www.w3.org/2000/svg" xmlns:xlink="http://www.w3.org/1999/xlink" x="0px" y="0px"
	 viewBox="0 0 235.4 175.8" style="enable-background:new 0 0 235.4 175.8;" xml:space="preserve">
<style type="text/css">
	.st0{fill:#FFFFFF;}
	.st1{fill:#E7F1F8;}
	.st2{fill:#40565B;}
	.st3{fill:#C3D4E0;}
	.st4{fill:#D0E4F0;}
	.st5{fill:#A1C2D8;}
	.st6{fill:#3F555A;}
	.st7{fill:#F36F42;}
	.st8{fill:#C84A27;}
	.st9{fill:#3AA1D6;}
	.st10{fill:#19BC9C;}
	.st11{fill:#FFFFFF;stroke:#000000;stroke-miterlimit:10;}
	.st12{fill:#8FD1BE;}
	.st13{fill:#29B99A;}
	.st14{fill:#0F716F;}
	.st15{fill:#F56F40;}
	.st16{fill:none;stroke:#999999;stroke-miterlimit:10;}
	.st17{fill:#FFDC64;}
	.st18{fill:#FAAC30;}
	.st19{fill:#F26F42;}
	.st20{fill:#1785C8;}
	.st21{fill:#164A67;}
	.st22{fill:#A9D7F3;}
	.st23{fill:none;stroke:#3F555A;stroke-width:2;stroke-linecap:round;stroke-linejoin:round;}
	.st24{opacity:0.2;}
</style>
<g>
	<g>
		<path class="st0" d="M157.1,121.6c0,0,22.5,7.4,51.2-9.5c5.4-3.2,14.8-6.2,18.5-12.3c3.7-6.1,4.2-12,1.3-12.2s-13.1,10-13.1,10
			s1.7-7.1-1.3-6s-9.4,12.3-9.4,12.3s-29.8,18.8-46.2,5.4"/>
		<g>
			<path class="st1" d="M215.3,92.7C215.3,92.7,215.3,92.7,215.3,92.7C215.3,92.7,215.3,92.6,215.3,92.7
				C215.3,92.7,215.3,92.7,215.3,92.7z"/>
			<path class="st1" d="M227.2,94.9c-3.7,6.1-13,9.1-18.5,12.3c-28.7,17-51.2,9.5-51.2,9.5l-0.4,4.8c0,0,22.5,7.4,51.2-9.5
				c5.4-3.2,14.8-6.2,18.5-12.3c2.6-4.3,3.6-8.5,3-10.7C229.3,90.8,228.4,92.9,227.2,94.9z"/>
		</g>
		<path class="st2" d="M208.3,112.3c0,0-0.1,0-0.1,0c-5.5-3.2-4.3-8.5-4.3-8.5c0-0.1,0.2-0.2,0.3-0.2c0.1,0,0.2,0.2,0.2,0.3
			c0,0.2-1.1,5,4,7.9c0.1,0.1,0.2,0.2,0.1,0.4C208.5,112.2,208.4,112.3,208.3,112.3z"/>
		<path class="st3" d="M202,115.6c0,0-0.1,0-0.1,0c-5.5-3.2-4.1-8.5-4.1-8.5c0-0.1,0.2-0.2,0.3-0.2c0.1,0,0.2,0.2,0.2,0.3
			c-0.1,0.2-1.3,4.9,3.8,7.9c0.1,0.1,0.2,0.2,0.1,0.4C202.2,115.6,202.1,115.6,202,115.6z"/>
		<path class="st3" d="M194.9,118.8c0,0-0.1,0-0.1,0c-5.8-2.6-3.9-8.8-3.9-8.8c0-0.1,0.2-0.2,0.3-0.2c0.1,0,0.2,0.2,0.2,0.3
			c-0.1,0.2-1.7,5.8,3.6,8.2c0.1,0.1,0.2,0.2,0.1,0.3C195.1,118.7,195,118.8,194.9,118.8z"/>
		<path class="st3" d="M187.7,121.1C187.7,121.1,187.7,121.1,187.7,121.1c-1.9-0.7-3.1-1.7-3.7-3.2c-1.2-2.6-0.1-5.5,0-5.6
			c0.1-0.1,0.2-0.2,0.3-0.1c0.1,0.1,0.2,0.2,0.1,0.3c0,0-1.1,2.8,0,5.2c0.6,1.3,1.7,2.3,3.4,2.9c0.1,0,0.2,0.2,0.2,0.3
			C188,121,187.9,121.1,187.7,121.1z"/>
		<path class="st3" d="M176.8,123.1C176.7,123.1,176.7,123.1,176.8,123.1c-1.7-0.6-2.8-1.6-3.4-3c-1.2-2.9,0.5-6.4,0.6-6.5
			c0.1-0.1,0.2-0.2,0.3-0.1c0.1,0.1,0.2,0.2,0.1,0.3c0,0-1.7,3.4-0.6,6.1c0.5,1.2,1.5,2.1,3,2.7c0.1,0,0.2,0.2,0.2,0.3
			C177,123,176.9,123.1,176.8,123.1z"/>
		<path class="st2" d="M170.2,123.5c-8.1,0-13.1-1.6-13.2-1.6c-0.1,0-0.2-0.2-0.2-0.3c0-0.1,0.2-0.2,0.3-0.2
			c0.2,0.1,22.7,7.2,51-9.5c1.5-0.9,3.2-1.7,5-2.6c5-2.4,10.7-5.2,13.4-9.6c3-5,3.6-9.3,2.8-10.9c-0.3-0.5-0.7-0.8-1.3-0.9
			c-2.3-0.1-10.1,7.1-12.9,9.9c-0.1,0.1-0.2,0.1-0.3,0c-0.1-0.1-0.2-0.2-0.1-0.3c0.3-1.3,0.9-4.8,0-5.6c-0.2-0.2-0.5-0.2-1-0.1
			c-2.9,1.1-9.2,12-9.3,12.1c0,0-0.1,0.1-0.1,0.1c-0.3,0.2-30.1,18.7-46.5,5.3c-0.1-0.1-0.1-0.3,0-0.4c0.1-0.1,0.3-0.1,0.4,0
			c15.8,12.9,44.4-4.4,45.8-5.3c0.6-1,6.5-11.2,9.6-12.3c0.6-0.2,1.1-0.2,1.5,0.2c1,0.9,0.7,3.8,0.4,5.2c2.3-2.2,9.9-9.4,12.6-9.4
			c0,0,0.1,0,0.1,0c0.8,0.1,1.3,0.5,1.7,1.1c1.1,2.1,0,6.8-2.8,11.4c-2.7,4.6-8.5,7.4-13.6,9.8c-1.8,0.9-3.5,1.7-5,2.6
			c-14.9,8.8-28.1,10.9-36.5,11.2C171.3,123.4,170.7,123.5,170.2,123.5z"/>
	</g>
	<g>
		<g>
			<path class="st0" d="M154.1,100.6c0,0,9.7,28.4,8.1,32.8c-3.4,9.4-17.4,9.4-17.4,9.4l8.8,8.5c0,0,18.2-2.8,21.6-18
				c1-4.5-8.1-32.8-8.1-32.8"/>
			<path class="st1" d="M167.6,133.4c1-4.5-8.1-32.8-8.1-32.8h7.6c0,0,9.2,28.3,8.1,32.8c-3.5,15.2-21.6,18-21.6,18l-1.7-1.7
				C157.5,147.5,165.4,142.9,167.6,133.4z"/>
			<path class="st3" d="M162.8,117.5c-1.2,0-2.5-0.1-3.7-0.4c-0.1,0-0.2-0.2-0.2-0.3c0-0.1,0.2-0.2,0.3-0.2
				c5.8,1.3,12.2-1.2,12.3-1.2c0.1-0.1,0.3,0,0.3,0.1c0.1,0.1,0,0.3-0.1,0.3C171.7,115.9,167.5,117.5,162.8,117.5z"/>
			<path class="st3" d="M165.1,126.6c-1.2,0-2.4-0.1-3.6-0.4c-0.1,0-0.2-0.2-0.2-0.3c0-0.1,0.2-0.2,0.3-0.2
				c6.1,1.5,12.1-1.6,12.2-1.6c0.1-0.1,0.3,0,0.4,0.1c0.1,0.1,0,0.3-0.1,0.4C174,124.5,169.9,126.6,165.1,126.6z"/>
			<path class="st3" d="M168.5,134.2c-2,0-4.1-0.5-6.2-2c-0.1-0.1-0.1-0.2-0.1-0.4c0.1-0.1,0.2-0.1,0.4-0.1c6,4.3,12.5,0,12.6,0
				c0.1-0.1,0.3,0,0.4,0.1c0.1,0.1,0,0.3-0.1,0.4C175.4,132.2,172.3,134.2,168.5,134.2z"/>
			<path class="st3" d="M168,145.1C168,145.1,168,145.1,168,145.1c-0.2,0-4.9-0.5-7.8-8.5c0-0.1,0-0.3,0.2-0.3c0.1,0,0.3,0,0.3,0.2
				c2.8,7.7,7.3,8.1,7.3,8.2c0.1,0,0.3,0.1,0.2,0.3C168.3,145,168.1,145.1,168,145.1z"/>
			<path class="st2" d="M153.6,151.6c-0.1,0-0.1,0-0.2-0.1l-8.8-8.5c-0.1-0.1-0.1-0.2-0.1-0.3c0-0.1,0.1-0.2,0.2-0.2
				c0.1,0,13.9-0.1,17.2-9.3c1.5-4.2-8-32.3-8.1-32.6c0-0.1,0-0.3,0.2-0.3c0.1,0,0.3,0,0.3,0.2c0.4,1.2,9.7,28.6,8.1,33
				c-3,8.4-14.3,9.5-17.1,9.6l8.3,8c1.6-0.3,18.1-3.6,21.3-17.7c1-4.4-8-32.4-8.1-32.6c0-0.1,0-0.3,0.2-0.3c0.1,0,0.3,0,0.3,0.2
				c0.4,1.2,9.2,28.4,8.1,32.9C172,148.6,153.8,151.6,153.6,151.6C153.6,151.6,153.6,151.6,153.6,151.6z"/>
		</g>
	</g>
	<path class="st4" d="M132.7,68.2l30.6-5.2L152.7,9.8c-1.1-5.5-6-9.5-11.6-9.5h-33.5C101.9,0.3,97,4.4,96,10l-9.4,53l30.1,5.1"/>
	<path class="st5" d="M130.8,68.5l22.6-3.9l-7.8-32.4c-0.8-4.1-4.4-7-8.6-7h-24.7c-4.2,0-7.9,3-8.6,7.2l-7,32.3l22.2,3.8"/>
	<path class="st6" d="M132.7,68.4c-0.1,0-0.2-0.1-0.3-0.2c0-0.1,0.1-0.3,0.2-0.3l30.3-5.2L152.5,9.8c-1.1-5.4-5.8-9.3-11.3-9.3
		h-33.5c-5.6,0-10.4,4-11.4,9.5l-9.4,52.7l29.8,5.1c0.1,0,0.2,0.2,0.2,0.3c0,0.1-0.2,0.2-0.3,0.2l-30.1-5.1c-0.1,0-0.1-0.1-0.2-0.1
		c0-0.1-0.1-0.1,0-0.2l9.4-53c1-5.8,6-10,11.9-10h33.5c5.8,0,10.7,4.1,11.9,9.7l10.5,53.2c0,0.1,0,0.1,0,0.2c0,0.1-0.1,0.1-0.2,0.1
		L132.7,68.4C132.7,68.4,132.7,68.4,132.7,68.4z"/>
	<g>
		<path class="st0" d="M161.2,110c0,0,23.1-5.4,38.7-34.9c3-5.6,9.4-13,9.3-20.1s-2.7-12.4-5.3-11.1c-2.6,1.4-6,15.4-6,15.4
			s-2.2-6.9-4.3-4.4c-2,2.5-1.6,15.4-1.6,15.4s-15.6,31.6-36.6,28.7"/>
		<g>
			<path class="st1" d="M195.7,55C195.7,55,195.7,55,195.7,55C195.7,54.9,195.7,54.9,195.7,55C195.7,54.9,195.7,55,195.7,55z"/>
			<path class="st1" d="M207,50.7c0.1,7.2-6.4,14.6-9.3,20.1C182,100.3,159,105.7,159,105.7l2.2,4.3c0,0,23.1-5.4,38.7-34.9
				c3-5.6,9.4-13,9.3-20.1c-0.1-5.1-1.4-9.2-3.1-10.7C206.7,46.1,207,48.3,207,50.7z"/>
		</g>
		<path class="st2" d="M199.6,75.4c-6.1,0-7.8-5-7.8-5c0-0.1,0-0.3,0.2-0.3c0.1,0,0.3,0,0.3,0.2c0.1,0.2,1.6,4.8,7.6,4.7
			c0.1,0,0.3,0.1,0.3,0.3c0,0.1-0.1,0.3-0.3,0.3C199.8,75.4,199.7,75.4,199.6,75.4z"/>
		<path class="st3" d="M196,81.5c-6.1,0-7.7-5.1-7.7-5.1c0-0.1,0-0.3,0.2-0.3c0.1,0,0.3,0,0.3,0.2c0.1,0.2,1.4,4.7,7.2,4.7
			c0.1,0,0.2,0,0.3,0c0.1,0,0.3,0.1,0.3,0.3c0,0.1-0.1,0.3-0.3,0.3C196.2,81.5,196.1,81.5,196,81.5z"/>
		<path class="st3" d="M190.7,88c-5.4,0-6.8-5.5-6.8-5.5c0-0.1,0-0.3,0.2-0.3c0.1,0,0.3,0,0.3,0.2c0.1,0.2,1.5,5.9,7.4,5.1
			c0.1,0,0.3,0.1,0.3,0.2c0,0.1-0.1,0.3-0.2,0.3C191.5,87.9,191.1,88,190.7,88z"/>
		<path class="st3" d="M185.4,93.8c-1.2,0-2.3-0.3-3.2-0.9c-2.4-1.6-2.9-4.6-2.9-4.8c0-0.1,0.1-0.3,0.2-0.3c0.1,0,0.3,0.1,0.3,0.2
			c0,0,0.6,2.9,2.7,4.4c1.2,0.8,2.7,1,4.4,0.7c0.1,0,0.3,0.1,0.3,0.2c0,0.1-0.1,0.3-0.2,0.3C186.4,93.7,185.9,93.8,185.4,93.8z"/>
		<path class="st3" d="M177.3,101.2c-1.1,0-2.1-0.3-3-1c-2.5-1.9-2.9-5.7-2.9-5.9c0-0.1,0.1-0.3,0.2-0.3c0.1,0,0.3,0.1,0.3,0.2
			c0,0,0.4,3.8,2.7,5.5c1.1,0.8,2.4,1,3.9,0.7c0.1,0,0.3,0.1,0.3,0.2c0,0.1-0.1,0.3-0.2,0.3C178.2,101.2,177.8,101.2,177.3,101.2z"
			/>
		<path class="st2" d="M161.2,110.3c-0.1,0-0.2-0.1-0.3-0.2c0-0.1,0.1-0.3,0.2-0.3c0.2-0.1,23.1-5.8,38.5-34.8
			c0.8-1.5,1.8-3.1,2.9-4.8c3-4.7,6.4-10,6.4-15.2c-0.1-5.8-1.7-9.8-3.4-10.8c-0.5-0.3-1-0.3-1.5-0.1c-2.1,1.1-4.9,11.3-5.8,15.2
			c0,0.1-0.1,0.2-0.2,0.2c-0.1,0-0.2-0.1-0.3-0.2c-0.4-1.2-1.7-4.5-2.9-4.7c-0.3-0.1-0.6,0.1-0.9,0.4c-1.9,2.4-1.6,15.1-1.6,15.2
			c0,0,0,0.1,0,0.1c-0.1,0.3-14.5,29-34.1,29c-0.9,0-1.8-0.1-2.7-0.2c-0.1,0-0.2-0.2-0.2-0.3c0-0.1,0.2-0.2,0.3-0.2
			c20.2,2.8,35.5-27,36.3-28.5c0-1.1-0.3-13,1.7-15.5c0.4-0.5,0.9-0.7,1.4-0.6c1.4,0.2,2.5,2.9,3.1,4.3c0.8-3.1,3.6-13.5,5.9-14.7
			c0.7-0.3,1.4-0.3,2.1,0.1c2.1,1.2,3.6,5.9,3.6,11.2c0.1,5.3-3.4,10.7-6.4,15.5c-1.1,1.7-2.1,3.3-2.9,4.8
			c-8.1,15.3-18.2,24-25.3,28.6C167.2,108.9,161.3,110.3,161.2,110.3C161.3,110.3,161.2,110.3,161.2,110.3z"/>
	</g>
	<g>
		<path class="st0" d="M92.8,121.6c0,0-22.5,7.4-51.2-9.5c-5.4-3.2-14.8-6.2-18.5-12.3c-3.7-6.1-4.2-12-1.3-12.2s13.1,10,13.1,10
			s-1.7-7.1,1.3-6s9.4,12.3,9.4,12.3s29.8,18.8,46.2,5.4"/>
		<g>
			<path class="st1" d="M34.6,92.7C34.6,92.7,34.5,92.7,34.6,92.7C34.5,92.7,34.5,92.6,34.6,92.7C34.5,92.7,34.6,92.7,34.6,92.7z"/>
			<path class="st1" d="M22.7,94.9c3.7,6.1,13,9.1,18.5,12.3c28.7,17,51.2,9.5,51.2,9.5l0.4,4.8c0,0-22.5,7.4-51.2-9.5
				c-5.4-3.2-14.8-6.2-18.5-12.3c-2.6-4.3-3.6-8.5-3-10.7C20.6,90.8,21.5,92.9,22.7,94.9z"/>
		</g>
		<path class="st2" d="M41.5,112.3c-0.1,0-0.2,0-0.2-0.1c-0.1-0.1,0-0.3,0.1-0.4c5.1-3,4.1-7.7,4-7.9c0-0.1,0.1-0.3,0.2-0.3
			c0.1,0,0.3,0.1,0.3,0.2c0,0.1,1.2,5.3-4.3,8.5C41.6,112.3,41.6,112.3,41.5,112.3z"/>
		<path class="st3" d="M47.9,115.6c-0.1,0-0.2,0-0.2-0.1c-0.1-0.1,0-0.3,0.1-0.4c5.1-3,3.9-7.9,3.8-7.9c0-0.1,0-0.3,0.2-0.3
			c0.1,0,0.3,0,0.3,0.2c0,0.1,1.4,5.3-4.1,8.5C48,115.6,47.9,115.6,47.9,115.6z"/>
		<path class="st3" d="M54.9,118.8c-0.1,0-0.2-0.1-0.2-0.2c-0.1-0.1,0-0.3,0.1-0.3c5.4-2.4,3.7-7.9,3.6-8.2c0-0.1,0-0.3,0.2-0.3
			c0.1,0,0.3,0,0.3,0.2c0,0.1,1.9,6.2-3.9,8.8C55,118.7,55,118.8,54.9,118.8z"/>
		<path class="st3" d="M62.1,121.1c-0.1,0-0.2-0.1-0.2-0.2c0-0.1,0-0.3,0.2-0.3c1.6-0.6,2.8-1.6,3.4-2.9c1.1-2.4,0-5.2,0-5.2
			c-0.1-0.1,0-0.3,0.1-0.3c0.1-0.1,0.3,0,0.3,0.1c0,0.1,1.1,3,0,5.6C65.2,119.3,64,120.4,62.1,121.1
			C62.2,121.1,62.2,121.1,62.1,121.1z"/>
		<path class="st3" d="M73.1,123.1c-0.1,0-0.2-0.1-0.2-0.2c0-0.1,0-0.3,0.2-0.3c1.5-0.5,2.5-1.4,3-2.7c1.1-2.7-0.6-6-0.6-6.1
			c-0.1-0.1,0-0.3,0.1-0.3c0.1-0.1,0.3,0,0.3,0.1c0.1,0.1,1.8,3.6,0.6,6.5C75.9,121.5,74.8,122.5,73.1,123.1
			C73.2,123.1,73.1,123.1,73.1,123.1z"/>
		<path class="st2" d="M79.8,123.4c-9.4,0-23-2.1-38.4-11.2c-1.4-0.9-3.2-1.7-5-2.6c-5.1-2.5-10.8-5.3-13.6-9.8
			c-2.8-4.6-3.9-9.3-2.8-11.4c0.4-0.7,1-1.1,1.7-1.1c2.6-0.2,10.4,7.2,12.7,9.4c-0.3-1.5-0.7-4.3,0.4-5.2c0.4-0.3,0.9-0.4,1.5-0.2
			c3,1.1,9,11.4,9.6,12.3c1.4,0.9,30.1,18.2,45.8,5.3c0.1-0.1,0.3-0.1,0.4,0c0.1,0.1,0.1,0.3,0,0.4c-4.3,3.6-9.6,4.9-15,4.9
			c-15.1,0-31.2-10.1-31.4-10.2c0,0-0.1-0.1-0.1-0.1c-0.1-0.1-6.4-11.1-9.3-12.1c-0.4-0.2-0.7-0.1-1,0.1c-0.9,0.8-0.3,4.3,0,5.6
			c0,0.1,0,0.2-0.1,0.3c-0.1,0.1-0.2,0-0.3,0c-2.8-2.8-10.6-10-12.9-9.9c-0.6,0-1,0.3-1.3,0.9c-0.9,1.7-0.2,6,2.8,10.9
			c2.7,4.4,8.3,7.2,13.4,9.6c1.8,0.9,3.6,1.7,5,2.6c14.8,8.7,27.9,10.9,36.2,11.1c9.1,0.3,14.7-1.6,14.8-1.6c0.1,0,0.3,0,0.3,0.2
			c0,0.1,0,0.3-0.2,0.3C92.8,121.9,87.8,123.4,79.8,123.4z"/>
	</g>
	<g>
		<path d="M100.8,38C100.8,38,100.8,38,100.8,38l-10.4-0.6c-0.1,0-0.3-0.1-0.2-0.3c0-0.1,0.1-0.2,0.3-0.2l10.4,0.6
			c0.1,0,0.3,0.1,0.2,0.3C101,37.9,100.9,38,100.8,38z"/>
		<path d="M87.5,39.7c-1.7,0-3.1-1.4-3.1-3.1c0-1.7,1.4-3.1,3.1-3.1c1.7,0,3.1,1.4,3.1,3.1C90.6,38.3,89.2,39.7,87.5,39.7z
			 M87.5,34.1c-1.4,0-2.5,1.1-2.5,2.5s1.1,2.5,2.5,2.5c1.4,0,2.5-1.1,2.5-2.5S88.9,34.1,87.5,34.1z"/>
		<g>
			<polyline class="st4" points="145.9,37.4 158.4,36.6 158.4,37.9 145.9,38.6 			"/>
			<path class="st2" d="M145.9,38.9c-0.1,0-0.3-0.1-0.3-0.2c0-0.1,0.1-0.3,0.2-0.3l13.2-0.8l-0.1-0.7l-13.1,0.8
				c-0.1,0-0.3-0.1-0.3-0.2c0-0.1,0.1-0.3,0.2-0.3l13.3-0.8c0.1,0,0.2,0.1,0.3,0.2l0.3,1.2c0,0.1,0,0.2,0,0.2c0,0.1-0.1,0.1-0.2,0.1
				L145.9,38.9C145.9,38.9,145.9,38.9,145.9,38.9z"/>
		</g>
		<g>
			<polyline class="st4" points="103.2,37.3 90.7,36.6 90.7,37.8 103.2,38.6 			"/>
			<path class="st2" d="M103.2,38.9C103.2,38.9,103.2,38.9,103.2,38.9L89.7,38c-0.1,0-0.1,0-0.2-0.1c0-0.1-0.1-0.1,0-0.2l0.3-1.2
				c0-0.1,0.1-0.2,0.3-0.2l13.3,0.8c0.1,0,0.3,0.1,0.2,0.3c0,0.1-0.1,0.3-0.3,0.2l-13.1-0.8L90,37.5l13.2,0.8c0.1,0,0.3,0.1,0.2,0.3
				C103.5,38.8,103.4,38.9,103.2,38.9z"/>
		</g>
		<circle class="st7" cx="161.8" cy="36.7" r="3.4"/>
		<circle class="st7" cx="87.3" cy="36.7" r="3.4"/>
		<path class="st8" d="M87.3,40.3c-2,0-3.6-1.6-3.6-3.6s1.6-3.6,3.6-3.6c2,0,3.6,1.6,3.6,3.6S89.3,40.3,87.3,40.3z M87.3,33.6
			c-1.7,0-3.1,1.4-3.1,3.1c0,1.7,1.4,3.1,3.1,3.1c1.7,0,3.1-1.4,3.1-3.1C90.4,35,89,33.6,87.3,33.6z"/>
		<path class="st8" d="M161.8,40.3c-2,0-3.6-1.6-3.6-3.6s1.6-3.6,3.6-3.6c2,0,3.6,1.6,3.6,3.6S163.8,40.3,161.8,40.3z M161.8,33.6
			c-1.7,0-3.1,1.4-3.1,3.1c0,1.7,1.4,3.1,3.1,3.1c1.7,0,3.1-1.4,3.1-3.1C164.8,35,163.5,33.6,161.8,33.6z"/>
	</g>
	<g>
		<path class="st0" d="M88.7,110c0,0-23.1-5.4-38.7-34.9c-3-5.6-9.4-13-9.3-20.1s2.7-12.4,5.3-11.1c2.6,1.4,6,15.4,6,15.4
			s2.2-6.9,4.3-4.4c2,2.5,1.6,15.4,1.6,15.4S73.4,101.9,94.4,99"/>
		<g>
			<path class="st1" d="M54.1,55C54.1,55,54.1,55,54.1,55C54.1,54.9,54.1,54.9,54.1,55C54.1,54.9,54.1,55,54.1,55z"/>
			<path class="st1" d="M42.9,50.7c-0.1,7.2,6.4,14.6,9.3,20.1c15.6,29.5,38.7,34.9,38.7,34.9l-2.2,4.3c0,0-23.1-5.4-38.7-34.9
				c-3-5.6-9.4-13-9.3-20.1c0.1-5.1,1.4-9.2,3.1-10.7C43.2,46.1,42.9,48.3,42.9,50.7z"/>
		</g>
		<path class="st2" d="M50.2,75.4c-0.1,0-0.2,0-0.3,0c-0.1,0-0.3-0.1-0.3-0.3c0-0.1,0.1-0.3,0.3-0.3c5.9,0.2,7.5-4.5,7.6-4.7
			c0-0.1,0.2-0.2,0.3-0.2c0.1,0,0.2,0.2,0.2,0.3C58,70.4,56.3,75.4,50.2,75.4z"/>
		<path class="st3" d="M53.9,81.5c-0.1,0-0.2,0-0.3,0c-0.1,0-0.3-0.1-0.3-0.3c0-0.1,0.1-0.3,0.3-0.3c5.9,0.1,7.4-4.7,7.4-4.7
			c0-0.1,0.2-0.2,0.3-0.2c0.1,0,0.2,0.2,0.2,0.3C61.5,76.5,60,81.5,53.9,81.5z"/>
		<path class="st3" d="M59.1,88c-0.4,0-0.7,0-1.1-0.1c-0.1,0-0.2-0.2-0.2-0.3c0-0.1,0.1-0.2,0.3-0.2c5.8,0.8,7.3-4.8,7.4-5.1
			c0-0.1,0.2-0.2,0.3-0.2c0.1,0,0.2,0.2,0.2,0.3C65.9,82.5,64.5,88,59.1,88z"/>
		<path class="st3" d="M64.5,93.8c-0.5,0-1-0.1-1.6-0.2c-0.1,0-0.2-0.2-0.2-0.3c0-0.1,0.2-0.2,0.3-0.2c1.7,0.3,3.2,0.1,4.4-0.7
			c2.2-1.5,2.7-4.4,2.7-4.4c0-0.1,0.2-0.2,0.3-0.2c0.1,0,0.2,0.2,0.2,0.3c0,0.1-0.6,3.2-2.9,4.8C66.7,93.5,65.6,93.8,64.5,93.8z"/>
		<path class="st3" d="M72.5,101.2c-0.4,0-0.9,0-1.4-0.1c-0.1,0-0.2-0.2-0.2-0.3c0-0.1,0.2-0.2,0.3-0.2c1.5,0.3,2.9,0.1,3.9-0.7
			c2.3-1.7,2.7-5.5,2.7-5.5c0-0.1,0.1-0.2,0.3-0.2c0.1,0,0.2,0.1,0.2,0.3c0,0.2-0.4,4-2.9,5.9C74.7,100.9,73.7,101.2,72.5,101.2z"/>
		<path class="st2" d="M88.7,110.3C88.6,110.3,88.6,110.3,88.7,110.3c-0.3-0.1-23.4-5.8-38.9-35.1c-0.8-1.5-1.8-3.1-2.9-4.8
			c-3-4.8-6.5-10.1-6.4-15.5c0.1-5.4,1.5-10,3.6-11.2c0.7-0.4,1.4-0.4,2.1-0.1c2.3,1.2,5.1,11.6,5.9,14.7c0.5-1.4,1.7-4,3.1-4.3
			c0.5-0.1,0.9,0.1,1.4,0.6c2,2.5,1.7,14.4,1.7,15.5c0.8,1.5,16.1,31.3,36.3,28.5c0.1,0,0.3,0.1,0.3,0.2c0,0.1-0.1,0.3-0.2,0.3
			c-0.9,0.1-1.8,0.2-2.7,0.2c-19.6,0-34-28.7-34.1-29c0,0,0-0.1,0-0.1c0-0.1,0.3-12.8-1.6-15.2c-0.3-0.4-0.6-0.5-0.9-0.4
			c-1.2,0.2-2.5,3.5-2.9,4.7c0,0.1-0.1,0.2-0.3,0.2c-0.1,0-0.2-0.1-0.2-0.2c-0.9-3.9-3.8-14.1-5.8-15.2c-0.5-0.3-1-0.2-1.5,0.1
			c-1.6,1-3.3,5-3.4,10.8c-0.1,5.2,3.4,10.5,6.4,15.2c1.1,1.7,2.1,3.3,2.9,4.8c15.4,29.1,38.3,34.7,38.5,34.8c0.1,0,0.2,0.2,0.2,0.3
			C88.9,110.2,88.8,110.3,88.7,110.3z"/>
	</g>
	<path class="st9" d="M55.7,20.8c0.4,1.7,1.3,3.2,2.6,4.5c3.9,3.9,10.3,3.9,14.3,0l-7.1-7.1L55.7,20.8z"/>
	<path class="st10" d="M58.3,11.1c-2.6,2.6-3.5,6.4-2.6,9.8l9.8-2.6l2.7-9.7C64.7,7.6,61,8.4,58.3,11.1z"/>
	<g>
		<g>
			<path class="st0" d="M95,100.6c0,0-9.7,28.4-8.1,32.8c3.4,9.4,17.4,9.4,17.4,9.4l-8.8,8.5c0,0-18.2-2.8-21.6-18
				c-1-4.5,8.1-32.8,8.1-32.8"/>
			<path class="st1" d="M81.5,133.4c-1-4.5,8.1-32.8,8.1-32.8H82c0,0-9.2,28.3-8.1,32.8c3.5,15.2,21.6,18,21.6,18l1.7-1.7
				C91.6,147.5,83.6,142.9,81.5,133.4z"/>
			<path class="st3" d="M86.3,117.5c-4.7,0-8.9-1.6-8.9-1.6c-0.1-0.1-0.2-0.2-0.1-0.3c0.1-0.1,0.2-0.2,0.3-0.1
				c0.1,0,6.5,2.5,12.3,1.2c0.1,0,0.3,0.1,0.3,0.2c0,0.1-0.1,0.3-0.2,0.3C88.8,117.4,87.5,117.5,86.3,117.5z"/>
			<path class="st3" d="M84,126.6c-4.9,0-8.9-2.1-9-2.1c-0.1-0.1-0.2-0.2-0.1-0.4c0.1-0.1,0.2-0.2,0.4-0.1c0.1,0,6.1,3.1,12.2,1.6
				c0.1,0,0.3,0.1,0.3,0.2c0,0.1-0.1,0.3-0.2,0.3C86.4,126.5,85.2,126.6,84,126.6z"/>
			<path class="st3" d="M80.6,134.2c-3.9,0-6.9-2-7-2c-0.1-0.1-0.2-0.2-0.1-0.4c0.1-0.1,0.2-0.2,0.4-0.1c0.1,0,6.6,4.3,12.6,0
				c0.1-0.1,0.3-0.1,0.4,0.1c0.1,0.1,0.1,0.3-0.1,0.4C84.8,133.7,82.6,134.2,80.6,134.2z"/>
			<path class="st3" d="M81.1,145.1c-0.1,0-0.2-0.1-0.3-0.2c0-0.1,0.1-0.3,0.2-0.3c0,0,4.6-0.5,7.3-8.2c0-0.1,0.2-0.2,0.3-0.2
				c0.1,0,0.2,0.2,0.2,0.3C86,144.6,81.3,145,81.1,145.1C81.1,145.1,81.1,145.1,81.1,145.1z"/>
			<path class="st2" d="M95.5,151.6C95.5,151.6,95.5,151.6,95.5,151.6c-0.2,0-18.4-3-21.9-18.2c-1-4.5,7.8-31.8,8.1-32.9
				c0-0.1,0.2-0.2,0.3-0.2c0.1,0,0.2,0.2,0.2,0.3c-0.1,0.3-9.1,28.3-8.1,32.6c3.2,14.2,19.7,17.5,21.3,17.7l8.3-8
				c-2.8-0.1-14-1.2-17.1-9.6c-1.6-4.4,7.7-31.8,8.1-33c0-0.1,0.2-0.2,0.3-0.2c0.1,0,0.2,0.2,0.2,0.3c-0.1,0.3-9.7,28.4-8.1,32.6
				c3.3,9.2,17.1,9.3,17.2,9.3c0.1,0,0.2,0.1,0.2,0.2c0,0.1,0,0.2-0.1,0.3l-8.8,8.5C95.7,151.6,95.6,151.6,95.5,151.6z"/>
		</g>
	</g>
	<path class="st11" d="M148.4,147.8"/>
	<path class="st4" d="M132.6,70.2c-5.4,6.3-10.7,6.3-16.1,0v-4.7h16.1V70.2z"/>
	<path class="st6" d="M148.4,148.1h-47.7c-0.1,0-0.2-0.1-0.3-0.2L93.4,110c-1.5-1.1-7-1.1-14.7-0.1c-0.1,0-0.2,0-0.2-0.1
		c-0.1-0.1-0.1-0.1-0.1-0.2c0-0.2,2.9-17.1,9.6-24.1c4.4-4.6,13.6-5.8,20.3-6.7c3.5-0.5,6.5-0.9,7-1.6c1.6-2.1,0.6-11.8,0.6-11.9
		c0-0.1,0.1-0.3,0.2-0.3c0.1,0,0.3,0.1,0.3,0.2c0,0.4,1,10-0.7,12.2c-0.7,0.9-3.5,1.3-7.4,1.8c-6.6,0.9-15.7,2.1-20,6.6
		c-6.1,6.3-9,21.1-9.4,23.5c4.8-0.6,12.8-1.3,14.9,0.3c0,0,0.1,0.1,0.1,0.2l7.1,37.7h47.2l7.1-37.7c0-0.1,0-0.1,0.1-0.2
		c2-1.6,10-0.9,14.9-0.3c-0.4-2.4-3.3-17.2-9.4-23.5c-4.3-4.4-13.4-5.7-20-6.6c-3.9-0.5-6.7-0.9-7.4-1.8c-1.8-2.2-0.8-11.8-0.7-12.2
		c0-0.1,0.1-0.2,0.3-0.2c0.1,0,0.2,0.1,0.2,0.3c0,0.1-1,9.8,0.6,11.9c0.6,0.7,3.6,1.1,7,1.6c6.7,0.9,15.9,2.2,20.3,6.7
		c6.8,7,9.6,24,9.6,24.1c0,0.1,0,0.2-0.1,0.2c-0.1,0.1-0.1,0.1-0.2,0.1c-7.8-1-13.2-1-14.7,0.1l-7.1,37.9
		C148.6,148,148.5,148.1,148.4,148.1z"/>
	<path class="st0" d="M103,22.4c-2.3,0.1-4.1,2.1-3.8,4.4c1.2,11.1,6.1,40.2,25.1,40.8c18.9,0.6,24.6-29.7,26.1-41.3
		c0.3-2.4-1.5-4.5-3.9-4.5h-12.7l-0.2-10.2l-7.3,10.2L103,22.4z"/>
	<path class="st1" d="M150.4,26.1c0.3-2.3-1.5-4.4-3.9-4.4h-12.9V11.6l-7.3,10.2L103,22.4c-2.3,0.1-4,2-3.8,4.3c0,0.1,0.4,3,0.4,3.2
		c6.2-8,44.4-4.6,50.4-0.7C150,28.8,150.4,26.4,150.4,26.1z"/>
	<path class="st6" d="M124.8,67.8c-0.2,0-0.4,0-0.6,0c-8.3-0.3-14.8-5.9-19.4-16.6c-3.8-8.9-5.3-19.1-5.9-24.4
		c-0.1-1.1,0.2-2.3,1-3.2c0.8-0.9,1.9-1.4,3-1.4l23.2-0.6l7.2-10.1c0.1-0.1,0.2-0.1,0.3-0.1c0.1,0,0.2,0.1,0.2,0.2v9.9h12.7
		c1.2,0,2.3,0.5,3.1,1.4c0.8,0.9,1.2,2.1,1,3.3c-0.7,5.6-2.5,16.2-6.5,25.3C139.3,62.3,132.8,67.8,124.8,67.8z M133.4,12.4l-6.8,9.5
		c0,0.1-0.1,0.1-0.2,0.1L103,22.6c-1,0-2,0.5-2.6,1.2c-0.7,0.8-1,1.8-0.9,2.8c0.6,5.3,2.1,15.5,5.9,24.3c4.5,10.6,10.9,16.1,19,16.3
		c8.1,0.2,14.6-5.1,19.4-16c4-9,5.8-19.6,6.5-25.2c0.1-1-0.2-2.1-0.9-2.9c-0.7-0.8-1.7-1.2-2.7-1.2h-12.9c-0.1,0-0.3-0.1-0.3-0.3
		V12.4z"/>
	<path class="st6" d="M130.1,39.7c-0.1,0-0.3-0.1-0.3-0.3c0-0.8,0.6-1.8,1.5-2.6c1.1-0.9,2.6-1.3,4-1c1.9,0.3,2.6,1.2,3.1,1.9
		c0.4,0.5,0.6,0.8,1.2,0.7c1.3-0.2,1.3-1.2,1.3-1.3c0-0.1,0.1-0.3,0.2-0.3c0.1,0,0.3,0.1,0.3,0.2c0.1,0.6-0.2,1.7-1.7,1.9
		c-0.9,0.1-1.2-0.4-1.6-0.9c-0.5-0.6-1.1-1.4-2.8-1.7c-1.3-0.2-2.6,0.1-3.6,0.9c-0.9,0.7-1.3,1.6-1.3,2.2
		C130.4,39.6,130.3,39.7,130.1,39.7z"/>
	<path class="st6" d="M119.1,39.7c-0.1,0-0.3-0.1-0.3-0.3c0-0.5-0.5-1.5-1.3-2.2c-1-0.8-2.3-1.2-3.6-0.9c-1.7,0.3-2.3,1.1-2.8,1.7
		c-0.4,0.5-0.8,1-1.6,0.9c-1.5-0.2-1.8-1.3-1.7-1.9c0-0.1,0.1-0.3,0.3-0.2c0.1,0,0.2,0.1,0.2,0.3c0,0.1-0.1,1.1,1.3,1.3
		c0.5,0.1,0.8-0.2,1.2-0.7c0.5-0.6,1.2-1.5,3.1-1.9c1.5-0.3,2.9,0.1,4,1c0.9,0.7,1.5,1.8,1.5,2.6C119.3,39.6,119.2,39.7,119.1,39.7z
		"/>
	<path class="st6" d="M124.7,58.7c-0.1,0-0.1,0-0.2,0c-3.9-0.1-6.6-3-6.8-3.1c-0.1-0.1-0.1-0.3,0-0.4c0.1-0.1,0.3-0.1,0.4,0
		c0,0,2.7,2.9,6.4,3c2.3,0,4.4-1,6.5-3c0.1-0.1,0.3-0.1,0.4,0c0.1,0.1,0.1,0.3,0,0.4C129.3,57.7,127.1,58.7,124.7,58.7z"/>
	<path class="st12" d="M133.6,77.4c-10.7,6-17.7-0.2-17.7-0.2l-0.3,0.2c-1.7,2.2-20.6,1.3-27.4,8.3c-6.8,7-9.6,24-9.6,24
		c3.6-0.5,12.9-1.5,15,0.2l7.1,38h23.9h0h23.9l7.1-38c2.1-1.7,11.4-0.7,15-0.2c0,0-2.8-17-9.6-24C154.2,78.6,135.3,79.5,133.6,77.4"
		/>
	<path class="st13" d="M120.2,96.4c21.9,0,39.9-3.6,42.7-8.3c-0.6-0.9-1.3-1.7-2-2.4c-6.2-6.4-22.3-6.2-26.5-7.8
		c-0.6,0-1.1-0.1-1.7-0.1c-8.8,4.6-15,0.7-16.5-0.4c-0.3,0-0.5,0-0.8,0c-2,2.1-20.6,1.3-27.3,8.3c-1.6,1.7-3,3.9-4.2,6.3
		C91.7,94.6,105,96.4,120.2,96.4z"/>
	<g>
		<path class="st12" d="M124.9,80l5.2,7.6l3.4-10.2C131.3,78.8,128.3,79.6,124.9,80z"/>
		<path class="st12" d="M119.3,87.6l5.2-7.6c-3.5-0.1-6.4-0.9-8.6-2.6L119.3,87.6z"/>
	</g>
	<path class="st14" d="M148.4,148.1h-47.7c-0.1,0-0.2-0.1-0.3-0.2L93.4,110c-1.5-1.1-7-1.1-14.7-0.1c-0.1,0-0.2,0-0.2-0.1
		c-0.1-0.1-0.1-0.1-0.1-0.2c0-0.2,2.9-17.1,9.6-24.1c4.4-4.6,13.6-5.8,20.3-6.7c3.5-0.5,6.5-0.9,7-1.6c0,0,0,0,0,0l0.3-0.2
		c0.1-0.1,0.2-0.1,0.3,0c0.1,0.1,7,6,17.4,0.2c0.1-0.1,0.3,0,0.3,0.1c0.6,0.7,3.6,1.1,7,1.6c6.7,0.9,15.9,2.2,20.3,6.7
		c6.8,7,9.6,24,9.6,24.1c0,0.1,0,0.2-0.1,0.2c-0.1,0.1-0.1,0.1-0.2,0.1c-7.8-1-13.2-1-14.7,0.1l-7.1,37.9
		C148.6,148,148.5,148.1,148.4,148.1z M124.6,147.6h23.6l7.1-37.7c0-0.1,0-0.1,0.1-0.2c2-1.6,10-0.9,14.9-0.3
		c-0.4-2.4-3.3-17.2-9.4-23.5c-4.3-4.4-13.4-5.7-20-6.6c-3.6-0.5-6.3-0.9-7.2-1.6c-9.7,5.4-16.5,0.6-17.6-0.2l-0.1,0.1
		c-0.7,0.9-3.5,1.2-7.4,1.7c-6.6,0.9-15.7,2.1-20,6.6c-6.1,6.3-9,21.1-9.4,23.5c4.8-0.6,12.8-1.3,14.9,0.3c0,0,0.1,0.1,0.1,0.2
		l7.1,37.7H124.6z"/>
	<g>
		<polygon class="st7" points="124.9,43.9 126.2,45.5 127.5,47 124.9,47 122.2,47 123.5,45.5 		"/>
		<path class="st8" d="M127.5,47.3h-5.2c-0.1,0-0.2-0.1-0.2-0.1c0-0.1,0-0.2,0-0.3l2.6-3.2c0-0.1,0.1-0.1,0.2-0.1l0,0
			c0.1,0,0.2,0,0.2,0.1l2.6,3.2c0.1,0.1,0.1,0.2,0,0.3C127.7,47.2,127.6,47.3,127.5,47.3z M122.8,46.8h4.1l-2.1-2.5L122.8,46.8z"/>
	</g>
	<path class="st6" d="M107.1,31.1c-0.1,0-0.1,0-0.2-0.1c-0.1-0.1-0.1-0.3,0-0.4c0,0,3.9-3.8,7.9-1.3c0.1,0.1,0.2,0.2,0.1,0.4
		c-0.1,0.1-0.2,0.2-0.4,0.1c-3.6-2.3-7.2,1.2-7.2,1.2C107.2,31.1,107.1,31.1,107.1,31.1z"/>
	<path class="st6" d="M143.2,31.1c-0.1,0-0.1,0-0.2-0.1c-0.1-0.1-3.6-3.5-7.2-1.2c-0.1,0.1-0.3,0-0.4-0.1c-0.1-0.1,0-0.3,0.1-0.4
		c3.9-2.5,7.8,1.3,7.9,1.3c0.1,0.1,0.1,0.3,0,0.4C143.3,31.1,143.3,31.1,143.2,31.1z"/>
	<path class="st14" d="M130.1,87.8c-0.1,0-0.2,0-0.2-0.1l-5.2-7.6c-0.1-0.1-0.1-0.3,0.1-0.4c0.1-0.1,0.3-0.1,0.4,0.1l4.9,7.2
		l3.3-9.7c0-0.1,0.2-0.2,0.3-0.2c0.1,0,0.2,0.2,0.2,0.3l-3.4,10.2C130.4,87.8,130.3,87.8,130.1,87.8
		C130.2,87.8,130.1,87.8,130.1,87.8z"/>
	<path class="st14" d="M119.3,87.8C119.3,87.8,119.3,87.8,119.3,87.8c-0.1,0-0.2-0.1-0.2-0.2l-3.4-10.2c0-0.1,0-0.3,0.2-0.3
		c0.1,0,0.3,0,0.3,0.2l3.3,9.7l4.9-7.2c0.1-0.1,0.2-0.1,0.4-0.1c0.1,0.1,0.1,0.2,0.1,0.4l-5.2,7.6C119.5,87.8,119.4,87.8,119.3,87.8
		z"/>
	<path d="M114,123.4l-0.2-0.5c0.1,0,6.2-3,11.3-3.2c6.1-0.2,10.6,2,10.7,2l-0.2,0.5c0,0-4.5-2.2-10.4-2
		C120.1,120.4,114,123.3,114,123.4z"/>
	<path d="M112.8,125c-0.3,0-0.6-0.1-0.9-0.3c-0.3-0.2-0.5-0.6-0.6-1c-0.1-0.4,0-0.8,0.3-1.1c0.2-0.3,0.6-0.5,1-0.6
		c0.4-0.1,0.8,0,1.1,0.3c0.3,0.2,0.5,0.6,0.6,1c0.1,0.4,0,0.8-0.3,1.1c-0.2,0.3-0.6,0.5-1,0.6C113,125,112.9,125,112.8,125z
		 M112.8,122.6c0,0-0.1,0-0.1,0c-0.3,0-0.5,0.2-0.6,0.4c-0.2,0.2-0.2,0.5-0.2,0.7c0.1,0.5,0.6,0.9,1.1,0.8c0.3,0,0.5-0.2,0.6-0.4
		c0.2-0.2,0.2-0.5,0.2-0.7l0,0c0-0.3-0.2-0.5-0.4-0.6C113.2,122.7,113,122.6,112.8,122.6z"/>
	<path d="M136.4,123.8c-0.3,0-0.6-0.1-0.9-0.3c-0.3-0.2-0.5-0.6-0.6-1c-0.1-0.4,0-0.8,0.3-1.1c0.2-0.3,0.6-0.5,1-0.6
		c0.4-0.1,0.8,0,1.1,0.3c0.3,0.2,0.5,0.6,0.6,1c0.1,0.4,0,0.8-0.3,1.1c-0.2,0.3-0.6,0.5-1,0.6C136.5,123.8,136.5,123.8,136.4,123.8z
		 M136.4,121.4c0,0-0.1,0-0.1,0c-0.3,0-0.5,0.2-0.6,0.4s-0.2,0.5-0.2,0.7c0,0.3,0.2,0.5,0.4,0.6c0.2,0.1,0.5,0.2,0.7,0.2
		c0.3,0,0.5-0.2,0.6-0.4c0.2-0.2,0.2-0.5,0.2-0.7l0,0c0-0.3-0.2-0.5-0.4-0.6C136.8,121.4,136.6,121.4,136.4,121.4z"/>
	<g>
		<line class="st0" x1="99.7" y1="151.3" x2="149.4" y2="151.3"/>
		<rect x="99.7" y="151.1" width="49.6" height="0.5"/>
	</g>
	<g>
		<path class="st1" d="M89.8,103.8h69.8c2,0,3.6,1.6,3.6,3.6v46.9c0,2-1.6,3.6-3.6,3.6H89.8c-2,0-3.6-1.6-3.6-3.6v-46.9
			C86.2,105.4,87.8,103.8,89.8,103.8z"/>
	</g>
	<g>
		<path class="st5" d="M159.6,158.2H89.9c-2.1,0-3.9-1.7-3.9-3.9v-46.9c0-2.1,1.7-3.9,3.9-3.9h69.8c2.1,0,3.9,1.7,3.9,3.9v46.9
			C163.5,156.5,161.8,158.2,159.6,158.2z M89.9,104.1c-1.8,0-3.4,1.5-3.4,3.4v46.9c0,1.8,1.5,3.4,3.4,3.4h69.8
			c1.8,0,3.4-1.5,3.4-3.4v-46.9c0-1.8-1.5-3.4-3.4-3.4H89.9z"/>
	</g>
	<path class="st15" d="M74.1,23.5l-6.2-6.2L74.1,23.5c3.4-3.4,3.4-9,0-12.5c-1.1-1.1-2.5-1.9-4-2.3l-2.3,8.5l2.3-8.5l-2.3,8.5
		L74.1,23.5z"/>
	<path class="st16" d="M37.6,27.6"/>
	<path class="st5" d="M49.3,12.6H35.6c-0.1,0-0.3-0.1-0.3-0.3s0.1-0.3,0.3-0.3h13.7c0.1,0,0.3,0.1,0.3,0.3S49.4,12.6,49.3,12.6z"/>
	<path class="st5" d="M61.4,15.4H35.6c-0.1,0-0.3-0.1-0.3-0.3s0.1-0.3,0.3-0.3h25.8c0.1,0,0.3,0.1,0.3,0.3S61.6,15.4,61.4,15.4z"/>
	<path class="st5" d="M49.3,18.4H35.6c-0.1,0-0.3-0.1-0.3-0.3c0-0.1,0.1-0.3,0.3-0.3h13.7c0.1,0,0.3,0.1,0.3,0.3
		C49.5,18.3,49.4,18.4,49.3,18.4z"/>
	<path class="st5" d="M49.3,21.2H35.6c-0.1,0-0.3-0.1-0.3-0.3c0-0.1,0.1-0.3,0.3-0.3h13.7c0.1,0,0.3,0.1,0.3,0.3
		C49.5,21.1,49.4,21.2,49.3,21.2z"/>
	<path class="st5" d="M221.5,9h-24.8c-0.1,0-0.3-0.1-0.3-0.3s0.1-0.3,0.3-0.3h24.8c0.1,0,0.3,0.1,0.3,0.3S221.7,9,221.5,9z"/>
	<path class="st5" d="M221.5,11.9h-13.7c-0.1,0-0.3-0.1-0.3-0.3s0.1-0.3,0.3-0.3h13.7c0.1,0,0.3,0.1,0.3,0.3S221.7,11.9,221.5,11.9z
		"/>
	<path class="st5" d="M221.5,14.8h-13.7c-0.1,0-0.3-0.1-0.3-0.3s0.1-0.3,0.3-0.3h13.7c0.1,0,0.3,0.1,0.3,0.3S221.7,14.8,221.5,14.8z
		"/>
	<path class="st5" d="M221.5,17.7h-13.7c-0.1,0-0.3-0.1-0.3-0.3c0-0.1,0.1-0.3,0.3-0.3h13.7c0.1,0,0.3,0.1,0.3,0.3
		C221.8,17.5,221.7,17.7,221.5,17.7z"/>
	<g>
		<path class="st5" d="M174.8,25.4c-0.1,0-0.1,0-0.1,0c-0.1-0.1-0.1-0.2-0.1-0.4l7.1-10.4c0.1-0.1,0.2-0.1,0.4-0.1
			c0.1,0.1,0.1,0.2,0.1,0.4l-7.1,10.4C175,25.4,174.9,25.4,174.8,25.4z"/>
		<path class="st5" d="M188.6,20.2c-0.1,0-0.1,0-0.2-0.1l-6.7-5.2c-0.1-0.1-0.1-0.3,0-0.4c0.1-0.1,0.3-0.1,0.4,0l6.7,5.2
			c0.1,0.1,0.1,0.3,0,0.4C188.8,20.2,188.7,20.2,188.6,20.2z"/>
		<path class="st5" d="M188.6,20.2c0,0-0.1,0-0.1,0c-0.1-0.1-0.2-0.2-0.1-0.4l7.1-11.1c0.1-0.1,0.2-0.2,0.4-0.1
			c0.1,0.1,0.2,0.2,0.1,0.4l-7.1,11.1C188.8,20.2,188.7,20.2,188.6,20.2z"/>
		<circle class="st15" cx="174.8" cy="24.8" r="2.2"/>
		<circle class="st15" cx="182" cy="14.7" r="2.2"/>
		<circle class="st15" cx="195.7" cy="8.7" r="2.2"/>
		<circle class="st15" cx="188.6" cy="19.9" r="2.2"/>
	</g>
	<rect x="217.5" y="64.6" class="st15" width="4" height="15.2"/>
	<rect x="224.4" y="67.7" class="st10" width="4" height="12.1"/>
	<rect x="231.4" y="58.8" class="st9" width="4" height="21"/>
	<g>
		<path class="st5" d="M3.5,49.3c-1.9,0-3.5-1.6-3.5-3.5c0-1.9,1.6-3.5,3.5-3.5c1.9,0,3.5,1.6,3.5,3.5C7,47.7,5.4,49.3,3.5,49.3z
			 M3.5,42.8c-1.6,0-3,1.3-3,3c0,1.6,1.3,3,3,3s3-1.3,3-3C6.5,44.2,5.1,42.8,3.5,42.8z"/>
		<path class="st5" d="M28.1,46H6.7c-0.1,0-0.3-0.1-0.3-0.3s0.1-0.3,0.3-0.3h21.4c0.1,0,0.3,0.1,0.3,0.3S28.3,46,28.1,46z"/>
		<path class="st5" d="M28.1,48.9H14.3c-0.1,0-0.3-0.1-0.3-0.3c0-0.1,0.1-0.3,0.3-0.3h13.8c0.1,0,0.3,0.1,0.3,0.3
			C28.4,48.8,28.3,48.9,28.1,48.9z"/>
		<path class="st5" d="M28.1,51.8H14.3c-0.1,0-0.3-0.1-0.3-0.3c0-0.1,0.1-0.3,0.3-0.3h13.8c0.1,0,0.3,0.1,0.3,0.3
			C28.4,51.7,28.3,51.8,28.1,51.8z"/>
	</g>
	<g>
		<path class="st5" d="M3.5,61.2c-1.9,0-3.5-1.6-3.5-3.5c0-1.9,1.6-3.5,3.5-3.5c1.9,0,3.5,1.6,3.5,3.5C7,59.6,5.4,61.2,3.5,61.2z
			 M3.5,54.8c-1.6,0-3,1.3-3,3c0,1.6,1.3,3,3,3s3-1.3,3-3C6.5,56.1,5.1,54.8,3.5,54.8z"/>
		<path class="st5" d="M28.1,57.9H6.7c-0.1,0-0.3-0.1-0.3-0.3c0-0.1,0.1-0.3,0.3-0.3h21.4c0.1,0,0.3,0.1,0.3,0.3
			C28.4,57.8,28.3,57.9,28.1,57.9z"/>
		<path class="st5" d="M28.1,60.8H14.3c-0.1,0-0.3-0.1-0.3-0.3s0.1-0.3,0.3-0.3h13.8c0.1,0,0.3,0.1,0.3,0.3S28.3,60.8,28.1,60.8z"/>
		<path class="st5" d="M28.1,63.7H14.3c-0.1,0-0.3-0.1-0.3-0.3c0-0.1,0.1-0.3,0.3-0.3h13.8c0.1,0,0.3,0.1,0.3,0.3
			C28.4,63.6,28.3,63.7,28.1,63.7z"/>
	</g>
	<g>
		<path class="st5" d="M3.5,73.1c-1.9,0-3.5-1.6-3.5-3.5c0-1.9,1.6-3.5,3.5-3.5c1.9,0,3.5,1.6,3.5,3.5C7,71.6,5.4,73.1,3.5,73.1z
			 M3.5,66.7c-1.6,0-3,1.3-3,3s1.3,3,3,3s3-1.3,3-3S5.1,66.7,3.5,66.7z"/>
		<circle class="st13" cx="3.5" cy="69.6" r="1.9"/>
		<path class="st5" d="M28.1,69.8H6.7c-0.1,0-0.3-0.1-0.3-0.3s0.1-0.3,0.3-0.3h21.4c0.1,0,0.3,0.1,0.3,0.3S28.3,69.8,28.1,69.8z"/>
		<path class="st5" d="M28.1,72.7H14.3c-0.1,0-0.3-0.1-0.3-0.3s0.1-0.3,0.3-0.3h13.8c0.1,0,0.3,0.1,0.3,0.3S28.3,72.7,28.1,72.7z"/>
		<path class="st5" d="M28.1,75.6H14.3c-0.1,0-0.3-0.1-0.3-0.3s0.1-0.3,0.3-0.3h13.8c0.1,0,0.3,0.1,0.3,0.3S28.3,75.6,28.1,75.6z"/>
	</g>
	<g>
		
			<rect x="15.3" y="149.7" transform="matrix(-1 -7.520175e-11 7.520175e-11 -1 84.8647 305.6546)" class="st17" width="54.2" height="6.2"/>
		
			<rect x="15.3" y="152.8" transform="matrix(-1 -7.520175e-11 7.520175e-11 -1 84.8647 308.7534)" class="st18" width="54.2" height="3.1"/>
		<path class="st19" d="M69.8,156.1H15.1v-6.6h54.7V156.1z M15.6,155.7h53.7v-5.8H15.6V155.7z"/>
		<path class="st19" d="M65.2,156.1h-9.6v-6.6h9.6V156.1z M56.1,155.7h8.6v-5.8h-8.6V155.7z"/>
	</g>
	<g>
		<g>
			<g>
				
					<rect x="18.4" y="143.2" transform="matrix(-1 -3.593582e-11 3.593582e-11 -1 85.4804 292.9421)" class="st20" width="48.7" height="6.5"/>
				
					<rect x="18.4" y="146.2" transform="matrix(-1 -3.593582e-11 3.593582e-11 -1 85.4804 295.9481)" class="st9" width="48.7" height="3.5"/>
				<path class="st21" d="M67.1,149.9H18.4c-0.1,0-0.3-0.1-0.3-0.2v-6.5c0-0.1,0.1-0.2,0.3-0.2h48.7c0.1,0,0.3,0.1,0.3,0.2v6.5
					C67.4,149.8,67.3,149.9,67.1,149.9z M18.6,149.5h48.2v-6.1H18.6V149.5z"/>
				<path class="st21" d="M30,149.9h-5.4c-0.1,0-0.3-0.1-0.3-0.2v-6.5c0-0.1,0.1-0.2,0.3-0.2H30c0.1,0,0.3,0.1,0.3,0.2v6.5
					C30.3,149.8,30.2,149.9,30,149.9z M24.8,149.5h4.9v-6.1h-4.9V149.5z"/>
			</g>
		</g>
	</g>
	<g>
		<path class="st0" d="M63.6,141.3H25.3V136h38.3l-0.3,0.5c-0.6,1.3-0.7,2.8-0.1,4.1L63.6,141.3z"/>
		<path class="st4" d="M63.6,141.3l-38.3,0l-0.4-3.8c12.9,1.8,25.9,2.2,38,1.1C62.8,139.5,63.1,140.4,63.6,141.3z"/>
		<path class="st7" d="M25.9,143.1h38v-2.4h-38c-0.3-0.7-0.4-1.4-0.4-2.2c0-0.8,0.2-1.6,0.4-2.2h38v-2.4h-38c-1.9,0-3.5,2.1-3.5,4.6
			C22.4,141.1,24,143.1,25.9,143.1z"/>
		<path class="st8" d="M63.8,143.4h-38c-2,0-3.7-2.2-3.7-4.9c0-2.7,1.7-4.9,3.7-4.9h38c0.1,0,0.3,0.1,0.3,0.3v2.4
			c0,0.1-0.1,0.3-0.3,0.3H26.1c-0.2,0.6-0.4,1.3-0.4,2s0.1,1.3,0.4,2h37.8c0.1,0,0.3,0.1,0.3,0.3v2.4
			C64.1,143.3,64,143.4,63.8,143.4z M25.9,134.2c-1.8,0-3.2,2-3.2,4.3c0,2.4,1.4,4.3,3.2,4.3h37.7V141H25.9c-0.1,0-0.2-0.1-0.2-0.2
			c-0.3-0.7-0.5-1.5-0.5-2.3c0-0.8,0.2-1.6,0.5-2.3c0-0.1,0.1-0.2,0.2-0.2h37.7v-1.9H25.9z"/>
		<path class="st8" d="M22.4,139.1c0.2,2.3,1.7,4,3.4,4h38v-1.3h-38c-0.3-0.7-0.4-1.4-0.4-2.2c0-0.2,0-0.4,0-0.6c0-0.2,0-0.4,0-0.6
			c0-0.8,0.2-1.6,0.4-2.2h38v-1.3h-38C24.1,135.1,22.7,136.8,22.4,139.1z"/>
		<path class="st2" d="M63.3,141c-0.1,0-0.2-0.1-0.2-0.2c-0.7-1.5-0.7-3.2,0-4.6c0.1-0.1,0.2-0.2,0.3-0.1c0.1,0.1,0.2,0.2,0.1,0.3
			c-0.6,1.3-0.6,2.9,0,4.2c0.1,0.1,0,0.3-0.1,0.3C63.3,141,63.3,141,63.3,141z"/>
		<path class="st4" d="M43.9,138H39c-0.1,0-0.3-0.1-0.3-0.3s0.1-0.3,0.3-0.3h4.9c0.1,0,0.3,0.1,0.3,0.3S44,138,43.9,138z"/>
		<path class="st4" d="M53.1,138.2h-5.4c-0.1,0-0.3-0.1-0.3-0.3c0-0.1,0.1-0.3,0.3-0.3h5.4c0.1,0,0.3,0.1,0.3,0.3
			C53.4,138.1,53.3,138.2,53.1,138.2z"/>
		<path class="st4" d="M61.6,137.7H59c-0.1,0-0.3-0.1-0.3-0.3s0.1-0.3,0.3-0.3h2.6c0.1,0,0.3,0.1,0.3,0.3S61.8,137.7,61.6,137.7z"/>
	</g>
	<circle class="st13" cx="3.5" cy="57.7" r="1.9"/>
	<circle class="st13" cx="3.5" cy="45.8" r="1.9"/>
	<g>
		<path class="st22" d="M0.3,156v6.1c11.5,17.6,45.6,12.9,115.2,13.2c25.9,0,102.1-4.3,112.6-13.2V156H0.3z"/>
		<path class="st22" d="M57.5,175.8c-31.4,0-49.7-1.8-57.4-13.7l0-0.1v-6.4h228.3v6.4l-0.1,0.1c-11,9.3-89.3,13.3-112.8,13.3
			c-13.7-0.1-26,0.1-37,0.2C71,175.7,64,175.8,57.5,175.8z M0.6,161.9c9.2,14,33.7,13.7,78,13.2c10.9-0.1,23.3-0.3,37-0.2
			c28,0,101.9-4.6,112.3-13.1v-5.7H0.6V161.9z"/>
	</g>
	<path class="st6" d="M228.1,156.5H0.7c-0.3,0-0.5-0.2-0.5-0.5s0.2-0.5,0.5-0.5h227.4c0.3,0,0.5,0.2,0.5,0.5
		S228.4,156.5,228.1,156.5z"/>
	<path class="st23" d="M228.1,161.7"/>
	<g class="st24">
		<path class="st6" d="M48.3,166.8c-9.7,0-19.3-0.8-28.7-2.3c-0.3,0-0.5-0.2-0.4-0.4c0.1-0.2,0.4-0.3,0.7-0.2
			c12.1,2,24.5,2.7,36.9,2.1c9.5-0.4,19.1-1.7,28.3-2.8c14.6-1.8,29.6-3.7,44.6-2.7c0.3,0,0.5,0.2,0.5,0.4c0,0.2-0.3,0.3-0.6,0.3
			c-14.8-1-29.8,0.9-44.3,2.7c-9.3,1.2-18.9,2.4-28.4,2.8C54.1,166.7,51.2,166.8,48.3,166.8z"/>
		<path class="st6" d="M111.2,169.2c-2.1,0-4.1-0.2-5.9-0.6c-0.3-0.1-0.4-0.2-0.3-0.4c0.1-0.2,0.4-0.3,0.7-0.2
			c2.5,0.6,5.3,0.7,8.2,0.5c2.6-0.2,5.2-0.8,7.8-1.7c0.3-0.1,0.6,0,0.7,0.1c0.1,0.2,0.1,0.4-0.2,0.4c-2.7,0.9-5.5,1.5-8.2,1.7
			C113,169.2,112.1,169.2,111.2,169.2z"/>
		<path class="st6" d="M113.1,171.7c-6.5,0-14-0.8-20.5-3.4c-0.2-0.1-0.3-0.3-0.1-0.5c0.2-0.1,0.5-0.2,0.7-0.1
			c8.6,3.5,19.2,3.6,26.5,3c7.1-0.5,14.1-1.8,20.8-3c2.1-0.4,4.1-0.7,6.2-1.1c8.3-1.4,18.1-2.8,27.8-2c0.3,0,0.5,0.2,0.5,0.4
			c0,0.2-0.3,0.3-0.6,0.3c-9.5-0.8-19.1,0.5-27.4,1.9c-2.1,0.4-4.1,0.7-6.2,1.1c-6.8,1.2-13.8,2.5-21,3
			C117.8,171.6,115.5,171.7,113.1,171.7z"/>
		<path class="st6" d="M78.2,170.4c-0.2,0-0.3,0-0.4-0.1c-0.2-0.1-0.1-0.4,0.1-0.5c2.5-1,6-1.1,8.5-0.2c0.3,0.1,0.3,0.3,0.2,0.4
			c-0.2,0.2-0.5,0.2-0.7,0.1c-2.2-0.8-5.2-0.8-7.4,0.1C78.5,170.3,78.3,170.4,78.2,170.4z"/>
		<path class="st6" d="M48,164.5c-1.9,0-4,0-6-0.2c-1.3-0.1-2.8-0.2-3.8-0.7c-0.2-0.1-0.4-0.2-0.5-0.4c-0.1-0.2-0.1-0.5,1.1-0.8
			c0.8-0.2,1.6-0.3,2.5-0.3c4-0.3,8.2-0.3,12.2,0.1c0.3,0,0.5,0.2,0.4,0.4c0,0.2-0.3,0.3-0.6,0.3c-3.8-0.4-7.9-0.4-11.9-0.1
			c-0.8,0.1-1.6,0.1-2.2,0.3c-0.1,0-0.2,0.1-0.3,0.1c0.8,0.3,2.2,0.5,3.3,0.5c3.6,0.2,7.2,0.2,10.4,0.1c2-0.1,4.2-0.1,6.4-0.4
			c1-0.1,1.7-0.2,2.2-0.4c0.6-0.2,0.9-0.3,0.9-0.4c0,0-0.1-0.2-0.8-0.4c-1.1-0.3-2.4-0.5-3.7-0.7c-3.4-0.4-7-0.7-10.6-0.7
			c-0.3,0-0.5-0.2-0.5-0.3c0-0.2,0.2-0.3,0.6-0.3c3.7,0.1,7.3,0.3,10.8,0.8c1.4,0.2,2.8,0.4,4,0.7c1,0.3,1.4,0.6,1.4,1
			c0,0.4-0.6,0.7-1.5,1c-0.7,0.2-1.4,0.3-2.5,0.4c-2.2,0.3-4.5,0.3-6.5,0.4C51.2,164.5,49.6,164.5,48,164.5z"/>
		<path class="st6" d="M195.5,163.9c-1,0-2,0-2.9-0.1c-0.6,0-1.4-0.1-1.9-0.3c-0.1,0-0.2-0.1-0.3-0.2c0-0.1-0.1-0.3,0.5-0.4
			c0.4-0.1,0.8-0.1,1.2-0.2c2-0.2,4-0.1,6,0.1c0.1,0,0.2,0.1,0.2,0.2c0,0.1-0.2,0.1-0.3,0.1c-1.9-0.2-3.9-0.2-5.8,0
			c-0.4,0-0.8,0.1-1.1,0.1c-0.1,0-0.1,0-0.1,0c0.4,0.2,1.1,0.2,1.6,0.3c1.8,0.1,3.6,0.1,5.1,0.1c1,0,2.1-0.1,3.1-0.2
			c0.5-0.1,0.8-0.1,1.1-0.2c0.3-0.1,0.4-0.2,0.4-0.2c0,0-0.1-0.1-0.4-0.2c-0.5-0.2-1.2-0.3-1.8-0.3c-1.7-0.2-3.4-0.3-5.2-0.4
			c-0.1,0-0.3-0.1-0.3-0.2c0-0.1,0.1-0.2,0.3-0.2c1.8,0,3.6,0.2,5.3,0.4c0.7,0.1,1.4,0.2,2,0.4c0.5,0.1,0.7,0.3,0.7,0.5
			c0,0.2-0.3,0.3-0.7,0.5c-0.3,0.1-0.7,0.2-1.2,0.2c-1.1,0.1-2.2,0.2-3.2,0.2C197.1,163.8,196.3,163.9,195.5,163.9z"/>
	</g>
	<g>
		<g>
			<path class="st0" d="M126.8,136.7v-3.2h-4.5v3.2h-2.8v-6.6c0-3.1,1.8-5,5-5c3.3,0,5,1.9,5,5v6.6H126.8z M126.8,130.1
				c0-1.6-0.7-2.4-2.2-2.4c-1.5,0-2.2,0.8-2.2,2.4v0.9h4.5V130.1z"/>
			<path class="st5" d="M129.7,137h-2.8c-0.1,0-0.3-0.1-0.3-0.3v-3h-3.9v3c0,0.1-0.1,0.3-0.3,0.3h-2.8c-0.1,0-0.3-0.1-0.3-0.3v-6.6
				c0-3.3,2-5.3,5.3-5.3c3.3,0,5.3,2,5.3,5.3v6.6C129.9,136.9,129.8,137,129.7,137z M127.1,136.5h2.3v-6.4c0-3-1.7-4.7-4.8-4.7
				c-3,0-4.7,1.7-4.7,4.7v6.4h2.2v-3c0-0.1,0.1-0.3,0.3-0.3h4.5c0.1,0,0.3,0.1,0.3,0.3V136.5z M126.8,131.3h-4.5
				c-0.1,0-0.3-0.1-0.3-0.3v-0.9c0-1.8,0.8-2.7,2.5-2.7c1.7,0,2.5,0.9,2.5,2.7v0.9C127.1,131.2,127,131.3,126.8,131.3z M122.6,130.8
				h3.9v-0.7c0-1.5-0.6-2.1-2-2.1c-1.4,0-2,0.7-2,2.1V130.8z"/>
		</g>
	</g>
</g>
<title>home-illustration-benefits-focus</title>
</svg>
