<svg xmlns="http://www.w3.org/2000/svg" xmlns:xlink="http://www.w3.org/1999/xlink" viewBox="0 0 500 300"><defs><style>.cls-1,.cls-12,.cls-16,.cls-18,.cls-23,.cls-25,.cls-5,.cls-7,.cls-8{fill:none;}.cls-2{clip-path:url(#clip-path);}.cls-3,.cls-34{fill:#fff;}.cls-19,.cls-24,.cls-31,.cls-4{fill:#d0e4f0;}.cls-24,.cls-5{stroke:#d0e4f0;}.cls-12,.cls-13,.cls-16,.cls-17,.cls-18,.cls-20,.cls-22,.cls-23,.cls-25,.cls-26,.cls-27,.cls-31,.cls-32,.cls-33,.cls-34,.cls-5,.cls-6,.cls-7,.cls-8{stroke-linecap:round;stroke-linejoin:round;}.cls-21,.cls-22,.cls-6{fill:#40565b;}.cls-19,.cls-20,.cls-22,.cls-25,.cls-31,.cls-34,.cls-6,.cls-8{stroke:#40565b;}.cls-13,.cls-7{stroke:#a1c2d8;}.cls-11,.cls-32,.cls-9{fill:#29b99a;}.cls-10{fill:#8fd1be;}.cls-11,.cls-12,.cls-23,.cls-32{stroke:#0f716f;}.cls-11,.cls-19,.cls-24{stroke-miterlimit:10;}.cls-13,.cls-20,.cls-28{fill:#a1c2d8;}.cls-14{fill:#3aa1d6;}.cls-15{fill:#1785c8;}.cls-16{stroke:#164a67;}.cls-17,.cls-30{fill:#f36f42;}.cls-17,.cls-18,.cls-26,.cls-27{stroke:#c84a27;}.cls-22{opacity:0.2;}.cls-23{stroke-dasharray:0 5;}.cls-25{stroke-dasharray:0 5.09;}.cls-26,.cls-29{fill:#c84a27;}.cls-27{fill:#f58a65;}.cls-33{fill:#ffdc64;stroke:#fbad31;}</style><clipPath id="clip-path"><rect class="cls-1" x="-197.67" y="-1646.53" width="2560.89" height="917.8"/></clipPath></defs><title>Students</title><g id="Layer_1" data-name="Layer 1"><g class="cls-2"><image width="2560" height="11662" transform="translate(-197.67 -1697.17) scale(0.5)" xlink:href="../../../../Downloads/ALBERT-3911 Schools Overview (1).png"/></g></g><g id="Layer_2" data-name="Layer 2"><path class="cls-3" d="M363.44,85.75V66.92a4.26,4.26,0,0,1,4.26-4.26h48.23a4.26,4.26,0,0,1,4.26,4.26V89.37C402.16,83.54,381.81,81.14,363.44,85.75Z"/><path class="cls-4" d="M363.44,85.75c18.37-4.61,38.72-2.21,56.74,3.62v25.79a4.26,4.26,0,0,1-4.26,4.26H367.7a4.26,4.26,0,0,1-4.26-4.26V104.21H351.75l11.69-11.69Z"/><path class="cls-5" d="M351.75,104.21l11.69-11.69V66.92a4.26,4.26,0,0,1,4.26-4.26h48.23a4.26,4.26,0,0,1,4.26,4.26v48.23a4.26,4.26,0,0,1-4.26,4.26H367.7a4.26,4.26,0,0,1-4.26-4.26V104.21Z"/><path class="cls-6" d="M324.45,94.18a16.29,16.29,0,0,1,3.94,7.74,2,2,0,0,0,2,1.67l.33,0a2,2,0,0,0,1.64-2.3A19.49,19.49,0,0,0,326.95,91"/><path class="cls-3" d="M199.35,236c17.09-24.77,7.18-61.95,27-84.1a21,21,0,0,0-7.26,4.22c-4.18,3.7-7,8.69-9.35,13.71a139.94,139.94,0,0,0-7.84,20.94,215.39,215.39,0,0,0-7,39.19c-.15,1.52-.34,3.09-.54,4.69C195.66,237.55,197.43,238.7,199.35,236Z"/><path class="cls-4" d="M239.14,154.46a7,7,0,0,0-4.68-3.05,15.11,15.11,0,0,0-8.13.5c-19.81,22.16-9.9,59.33-27,84.1-1.92,2.69-3.69,1.53-5-1.35-.65,5.16-1.37,10.63-.88,15.51,0,0,0,.09,0,.13,7.73-.29,15.38.55,23.05,1.3,2.38.23,4.76.43,7.14.61l1.31-.45a1.91,1.91,0,0,0,.81-.44,1.88,1.88,0,0,0,.37-1.13c1.79-18,4-36.07,7.8-53.84,2.66-12.5,6.11-25,6-37.74A8.74,8.74,0,0,0,239.14,154.46Z"/><path class="cls-7" d="M198.49,235a62.5,62.5,0,0,1,14.48-.55"/><path class="cls-7" d="M205.13,214.73a50.78,50.78,0,0,1,12.34-.19"/><path class="cls-7" d="M208.22,194.1a82.65,82.65,0,0,1,16.38.51"/><path class="cls-7" d="M214.63,173.7a30.32,30.32,0,0,1,10.91,1.44"/><path class="cls-8" d="M193.46,250.3c7.73-.29,15.38.55,23.05,1.31,2.38.23,4.76.43,7.14.61l1.31-.45a1.91,1.91,0,0,0,.81-.44,1.88,1.88,0,0,0,.37-1.13c1.79-18,4-36.07,7.8-53.84,2.66-12.5,6.11-25,6-37.74a8.74,8.74,0,0,0-.78-4.16,7,7,0,0,0-4.68-3.05c-5.38-1.25-11.2,1-15.38,4.72s-7,8.69-9.35,13.71a139.94,139.94,0,0,0-7.84,20.94,215.39,215.39,0,0,0-7,39.19c-.62,6.41-2.06,13.81-1.42,20.2C193.44,250.21,193.46,250.25,193.46,250.3Z"/><path class="cls-4" d="M152.12,167.43c-.38,0-.76,0-1.14,0a7,7,0,0,0-5.1,2.27,8.74,8.74,0,0,0-1.43,4c-2.15,12.54-.74,25.45-.09,38.21.7,14,.47,27.93-.17,41.86H172.3A176.74,176.74,0,0,0,152.12,167.43Z"/><path class="cls-3" d="M176.88,211.49a139.94,139.94,0,0,0-4.41-21.91c-1.55-5.34-3.51-10.7-7.06-15-3.3-4-8.19-7-13.3-7.13a176.74,176.74,0,0,1,20.19,86.36h5.18c0-.84.08-1.67.13-2.48A215.38,215.38,0,0,0,176.88,211.49Z"/><path class="cls-8" d="M144.18,253.78h33.3c0-.84.08-1.67.13-2.48a215.38,215.38,0,0,0-.73-39.81,139.94,139.94,0,0,0-4.41-21.91c-1.55-5.34-3.51-10.7-7.06-15s-8.93-7.48-14.44-7.1a7,7,0,0,0-5.1,2.27,8.74,8.74,0,0,0-1.43,4c-2.15,12.54-.74,25.45-.09,38.21C145.06,225.88,144.83,239.85,144.18,253.78Z"/><path class="cls-7" d="M165.42,240.31a23.4,23.4,0,0,1,10.4-1.36"/><path class="cls-9" d="M321.49,144.19H252.84c-20.94,27.31-21.8,75.39-17.4,110.91H338.16C341.64,216.69,341.86,175.46,321.49,144.19Z"/><path class="cls-10" d="M252.84,144.19H239.12c-24.59,0-22.86,110.91-22.86,110.91h19.17c-4.4-35.52-3.54-83.6,17.4-110.91"/><path class="cls-10" d="M325.46,144.19h-4c20.37,31.27,20.15,72.5,16.67,110.91h14.15s3.35-110.91-26.86-110.91"/><ellipse class="cls-11" cx="331.84" cy="168.28" rx="12.59" ry="19.36" transform="translate(-32.09 90.88) rotate(-14.88)"/><path class="cls-12" d="M216.27,255.1s-1.74-110.91,22.86-110.91h86.34c30.21,0,26.86,110.91,26.86,110.91Z"/><path class="cls-4" d="M154.86,246.55a61.39,61.39,0,0,0-6.36-23.88c4.35-13.76,2.74-32.45-4-46.37l-105.14.18,5.72,78.62h20c-3-10.69-6.55-21.36.25-31.09h3c-9-8-9-20-2-30,5-6,12-9,19-11,5-1,10-1,14,2,17,17,12,44,9,66a22.25,22.25,0,0,1-1.22,4.09h47.6A59.06,59.06,0,0,0,154.86,246.55Z"/><path class="cls-13" d="M99.35,185c-4-3-9-3-14-2-7,2-14,5-19,11-7,10-7,22,2,30h-3c-6.81,9.72-3.21,20.39-.25,31.09h42a22.25,22.25,0,0,0,1.22-4.09C111.35,229,116.35,202,99.35,185Z"/><path class="cls-13" d="M40.13,172.49a5.66,5.66,0,0,1-1.46,4H37.58c-1.38,0-2.5-1.76-2.5-3.93s1.12-3.93,2.5-3.93h.87A5.7,5.7,0,0,1,40.13,172.49Z"/><path class="cls-4" d="M40.11,172.71a5.64,5.64,0,0,1-1.44,3.76H146.41c1.38,0,2.5-1.76,2.5-3.93,0,0,0,0,0,0C112.49,173.34,76.6,171.51,40.11,172.71Z"/><path class="cls-3" d="M148.91,172.49c0-2.15-1.13-3.88-2.5-3.88h-108a5.7,5.7,0,0,1,1.68,3.88c0,.07,0,.15,0,.22C76.6,171.51,112.49,173.34,148.91,172.49Z"/><path class="cls-7" d="M148.91,172.54c0,2.17-1.12,3.93-2.5,3.93H38.67a5.71,5.71,0,0,0-.22-7.86h108C147.79,168.61,148.91,170.37,148.91,172.54Z"/><line class="cls-7" x1="50.88" y1="223.07" x2="136.49" y2="223.07"/><path class="cls-7" d="M154.74,255.1a59.06,59.06,0,0,0,.12-8.55,61.39,61.39,0,0,0-6.36-23.88c4.35-13.76,2.74-32.45-4-46.37l-105.14.18,5.72,78.62Z"/><path class="cls-13" d="M50.74,255.1a59,59,0,0,0,.12-8.55,61.39,61.39,0,0,0-6.36-23.88c4.35-13.76,2.74-32.45-4-46.37l-1.14.18,5.72,78.62Z"/><path class="cls-14" d="M134.35,184c-34.13,5.12-34,42.28-27.07,71.09h49.87a101.5,101.5,0,0,0,10-59.84c-.22-1.55-.48-3.13-.8-4.71a35.55,35.55,0,0,0-8-5.54C150.35,181,142.35,182,134.35,184Z"/><path class="cls-15" d="M143.81,163.43c-18.68-3.26-41.29-1.24-57.33,9.1-7.47,4.82-9.85,12.1-9.7,20.46A202.35,202.35,0,0,0,87.6,255.1h19.68c-7-28.81-7.07-66,27.07-71.09,8-2,16-3,24,1a35.55,35.55,0,0,1,8,5.54C163.89,178.24,158,165.91,143.81,163.43Z"/><path class="cls-16" d="M167.17,195.26c-1.9-13.71-7.34-29-23.36-31.82-18.68-3.26-41.29-1.24-57.33,9.1-7.47,4.82-9.85,12.1-9.7,20.46A202.35,202.35,0,0,0,87.6,255.1h69.55A101.5,101.5,0,0,0,167.17,195.26Z"/><path class="cls-3" d="M107,152.37l1.12,11.71a6.1,6.1,0,0,0,3.49,5,18.53,18.53,0,0,0,9.56,1.49,16.75,16.75,0,0,0,8.38-3,6.15,6.15,0,0,0,2.53-5.07C122.24,166.06,113.16,160.28,107,152.37Z"/><path class="cls-4" d="M130.22,142.91l-23.92,2.28.68,7.17c6.17,7.91,15.25,13.7,25.07,10.16,0-.17,0-.34,0-.52Z"/><path class="cls-8" d="M132,162a6.16,6.16,0,0,1-2.51,5.58,16.75,16.75,0,0,1-8.38,3,18.53,18.53,0,0,1-9.56-1.49,6.1,6.1,0,0,1-3.49-5l-1.8-18.89,23.92-2.28Z"/><path class="cls-17" d="M79.42,76.76A33.63,33.63,0,0,1,93.77,64.44c5.48-2.57,12.07-3.92,18-2A20.69,20.69,0,0,1,124,73.52c2.29,5,2.74,10.41,2.45,15.7a10.87,10.87,0,0,1-.81,4.09,12,12,0,0,1-2.13,2.87c-5,5.45-11.1,10.69-18.9,11.95-6,1-12.23-.57-17.66-3.21-4.9-2.39-9.22-6.2-11.12-11C73.8,88.61,76.62,81.24,79.42,76.76Z"/><path class="cls-18" d="M79.42,76.76A33.63,33.63,0,0,1,93.77,64.44c5.48-2.57,12.07-3.92,18-2A20.69,20.69,0,0,1,124,73.52c2.29,5,2.74,10.41,2.45,15.7a10.87,10.87,0,0,1-.81,4.09,12,12,0,0,1-2.13,2.87c-5,5.45-11.1,10.69-18.9,11.95-6,1-12.23-.57-17.66-3.21-4.9-2.39-9.22-6.2-11.12-11C73.8,88.61,76.62,81.24,79.42,76.76Z"/><path class="cls-17" d="M88.11,95.24c6.44-16.88,16.47-36,32.24-47.47a31.12,31.12,0,0,1,11.19-5.46,18.52,18.52,0,0,1,14.28,2.56c5.55,3.65,7.61,10.14,7.69,16.45.15,11.52-3.73,23.07-9,33.75Z"/><path class="cls-18" d="M88.11,95.24c6.44-16.88,16.47-36,32.24-47.47a31.12,31.12,0,0,1,11.19-5.46,18.52,18.52,0,0,1,14.28,2.56c5.55,3.65,7.61,10.14,7.69,16.45.15,11.52-3.73,23.07-9,33.75Z"/><circle class="cls-17" cx="191.83" cy="113.48" r="6.12"/><path class="cls-19" d="M157.45,117.25a1,1,0,0,1-.06-1.93l30.11-2.11a1,1,0,0,1,.14,1.93l-30.11,2.11Z"/><path class="cls-4" d="M91.12,133.71a52.87,52.87,0,0,0-16.54,3.71L77,155.13s42.23-2,82.74-7.93c3.84-.54,7.08-3.21,9.42-7.29C143.52,142.92,117,131.43,91.12,133.71Z"/><path class="cls-3" d="M73.69,105.63A12.12,12.12,0,0,0,70,105l4.53,32.41a52.87,52.87,0,0,1,16.54-3.71c25.9-2.29,52.4,9.2,78.09,6.2,3.45-6,5-15,3.59-24.76a45.74,45.74,0,0,0-5.76-17C140.81,113.16,103.82,113.9,73.69,105.63Z"/><path class="cls-4" d="M152.56,87.82h0a441.6,441.6,0,0,0-83.81,7.93L70,105a12.12,12.12,0,0,1,3.64.61c30.14,8.27,67.12,7.53,93.36-7.51C163.15,91.63,157.89,87.64,152.56,87.82Z"/><path class="cls-8" d="M172.8,115.15c-2.2-15.76-11.12-27.64-20.24-27.33h0a441.6,441.6,0,0,0-83.81,7.93L77,155.13s42.23-2,82.74-7.93C169.27,145.87,175.09,131.52,172.8,115.15Z"/><ellipse class="cls-20" cx="72.9" cy="125.48" rx="17.33" ry="29.93" transform="matrix(0.99, -0.14, 0.14, 0.99, -16.68, 11.31)"/><ellipse class="cls-8" cx="72.9" cy="125.48" rx="17.33" ry="29.93" transform="matrix(0.99, -0.14, 0.14, 0.99, -16.68, 11.31)"/><path class="cls-21" d="M107.12,115.06a3.08,3.08,0,0,1-3.71-2.3c-.49-1.82-1.14-3.62-1.69-5.43a2.31,2.31,0,0,0-1.54,1.24c-.89,1.8.39,4.28.84,6.06a41.91,41.91,0,0,1,1,8.41,5.79,5.79,0,0,0,1,3.51,2,2,0,0,0,1.74.74c3.68-.27,3-5.48,2.83-7.89C107.53,118,107.37,116.51,107.12,115.06Z"/><path class="cls-21" d="M159.89,111a2.74,2.74,0,0,1-3.26-2.37c-.4-1.82-1-3.64-1.4-5.46a2.11,2.11,0,0,0-1.39,1.21c-.82,1.79.27,4.29.64,6.07a46.92,46.92,0,0,1,.77,8.43,6.34,6.34,0,0,0,.83,3.52,1.73,1.73,0,0,0,1.53.77c3.28-.21,2.78-5.42,2.66-7.84C160.2,113.88,160.08,112.41,159.89,111Z"/><polygon class="cls-17" points="125.22 116.58 135.86 115.84 129.84 107.27 125.22 116.58"/><path class="cls-20" d="M143.25,132.06c.14-.19.29-.38.42-.58a10.93,10.93,0,0,0,1.83-7.24A124.08,124.08,0,0,0,117,127.31a12.76,12.76,0,0,0,2.25,4.94A42,42,0,0,1,143.25,132.06Z"/><path class="cls-17" d="M119.29,132.25a14.07,14.07,0,0,0,9.38,5.38c5.5.81,11.4-1.34,14.58-5.57A42,42,0,0,0,119.29,132.25Z"/><path class="cls-8" d="M145.5,124.24a10.93,10.93,0,0,1-1.83,7.24c-3.06,4.62-9.26,7-15,6.15-6-.88-10.44-4.85-11.63-10.32A124.08,124.08,0,0,1,145.5,124.24Z"/><path class="cls-8" d="M149.94,94.9a3.54,3.54,0,0,1,5.69-.86"/><path class="cls-8" d="M96.12,100.69a3.54,3.54,0,0,1,5.69-.86"/><path class="cls-22" d="M72.24,123.69a1,1,0,0,0-1.28.48l-9.4,20.72a3.19,3.19,0,0,1,.4.65l.1.08a9.17,9.17,0,0,1,.85,1L72.73,125A1,1,0,0,0,72.24,123.69Z"/><path class="cls-20" d="M41.85,129a1,1,0,0,1-.09-1.93l30-3.51a1,1,0,1,1,.23,1.92L42,129Z"/><circle class="cls-17" cx="37.55" cy="128.27" r="6.12"/><path class="cls-12" d="M337,187.48c2.32,22.46,4.3,45,3,67.61"/><path class="cls-12" d="M318,144.19c3.51,0,6.31,2.36,8.28,5.07"/><path class="cls-23" d="M319.67,144.19c26,0,22.26,110.91,22.26,110.91"/><path class="cls-3" d="M279.29,54.38h4a37,37,0,0,1,37,37v48a0,0,0,0,1,0,0H242.32a0,0,0,0,1,0,0v-48a37,37,0,0,1,37-37Z"/><path class="cls-4" d="M278.66,59.41c-18.37,0-33.25,13.69-33.25,34.2v45.7h66.51V93.61C311.91,73.1,297,59.41,278.66,59.41Z"/><path class="cls-13" d="M310.87,87.54H233.81a2,2,0,0,0,0,4h3V97.7A14.18,14.18,0,0,0,251,111.89h.11a14.18,14.18,0,0,0,14.18-13.76l.06-1.08a2.21,2.21,0,0,1,2.21-2.21h0A2.21,2.21,0,0,1,269.75,97l0,.22a14.19,14.19,0,0,0,14.18,14.61h0A14.19,14.19,0,0,0,298.08,98l.16-6.43h12.64Q310.87,89.54,310.87,87.54Z"/><path class="cls-24" d="M320.2,129.65c-.67-2-.38-4.77-.4-6.88q0-3.88.29-7.75a1.19,1.19,0,0,0-.09-.74,1.16,1.16,0,0,0-.54-.39,13.27,13.27,0,0,0-5.73-1.14,1.68,1.68,0,0,0-1.08.3,1.89,1.89,0,0,0-.45.85c-.36,1-1.36,1.89-1.54,3-.22,1.27.86,2,1.84,2.62A20,20,0,0,1,320.2,129.65Z"/><path class="cls-8" d="M279.29,54.38h4a37,37,0,0,1,37,37v48a0,0,0,0,1,0,0H242.32a0,0,0,0,1,0,0v-48a37,37,0,0,1,37-37Z"/><line class="cls-8" x1="305.27" y1="139.31" x2="305.27" y2="139.31"/><path class="cls-25" d="M305.27,134.23v-44c0-19.46-9.41-33.78-21.45-35.55"/><line class="cls-8" x1="281.29" y1="54.47" x2="281.29" y2="54.47"/><path class="cls-8" d="M307.27,139.31V90.2c0-16.25-6.37-28.23-15.5-34.4"/><polygon class="cls-26" points="310.62 104.21 310.62 117.89 318.08 117.89 335.75 104.21 310.62 104.21"/><polygon class="cls-27" points="335.75 104.21 318.08 90.54 310.62 90.54 310.62 104.21 335.75 104.21"/><polygon class="cls-17" points="328.3 104.21 310.62 117.89 310.62 90.54 328.3 104.21"/><path class="cls-6" d="M315.51,86.54H232a2,2,0,0,0,0,4h3V96.7a14.18,14.18,0,0,0,14.18,14.18h.11a14.18,14.18,0,0,0,14.18-13.76l.06-1.08a2.21,2.21,0,0,1,2.21-2.21h0A2.21,2.21,0,0,1,268,96l0,.22a14.19,14.19,0,0,0,14.18,14.61h0A14.19,14.19,0,0,0,296.29,97l.16-6.43h19.06A11.47,11.47,0,0,1,322,92.29l2.46,1.89,2.5-3.13A15.85,15.85,0,0,0,315.51,86.54Z"/><path class="cls-28" d="M273.87,104.49a11.14,11.14,0,0,0,15.8.22c-5.77-.48-11.58-1.46-17.39-2.31A11.27,11.27,0,0,0,273.87,104.49Z"/><path class="cls-4" d="M237.79,94.78V96.7a11.12,11.12,0,0,0,2.07,6.47A51.63,51.63,0,0,1,259.42,101a11.48,11.48,0,0,0,.86-4l0-.39C252.83,95.2,245.22,93.62,237.79,94.78Z"/><path class="cls-4" d="M270.79,98a11.08,11.08,0,0,0,1.49,4.36c5.81.85,11.62,1.83,17.39,2.31a11.18,11.18,0,0,0,3.41-7.82l.08-3.22a4,4,0,0,0-.29-1.62C286.34,96.15,279.18,98.77,270.79,98Z"/><path class="cls-28" d="M260.68,92.21a3.18,3.18,0,0,0-1.23-2.67H241.82a4,4,0,0,0-4,4v1.21c7.42-1.16,15,.42,22.51,1.78l0-.62a5.16,5.16,0,0,1,.44-2C260.73,93.42,260.71,92.85,260.68,92.21Z"/><path class="cls-28" d="M289.13,89.54H274.07l-.55.11a5.26,5.26,0,0,0-2.14.9,8.77,8.77,0,0,0-.82,4.2,5.26,5.26,0,0,1,.19,1.4v.14l0,.26a11.17,11.17,0,0,0,.08,1.49c8.39.72,15.55-1.89,22.07-6A4,4,0,0,0,289.13,89.54Z"/><path class="cls-28" d="M239.86,103.17a11.16,11.16,0,0,0,9.12,4.72h.11A11.1,11.1,0,0,0,259.42,101,51.63,51.63,0,0,0,239.86,103.17Z"/><path class="cls-20" d="M284.19,127.67a4.37,4.37,0,0,0,0-4.5c-1.85-3.27-5.84-2.16-8.77-1.32a24.85,24.85,0,0,1-12.76.11c-2.14-.52-4.37-1.41-6.61-1.37a4.84,4.84,0,0,0-4.64,6.16,6.26,6.26,0,0,0,3.71,3.73C263.42,125.28,274.5,124.34,284.19,127.67Z"/><path class="cls-17" d="M255.14,130.48a28.17,28.17,0,0,0,6.69,1.79,36.27,36.27,0,0,0,6.62.56,31.82,31.82,0,0,0,12.11-2.08,7.62,7.62,0,0,0,3.64-3.09C274.5,124.34,263.42,125.28,255.14,130.48Z"/><path class="cls-8" d="M268.44,132.84a36.27,36.27,0,0,1-6.62-.56c-3.44-.62-9.24-1.58-10.4-5.53a4.84,4.84,0,0,1,4.64-6.16c2.23,0,4.46.84,6.61,1.37a24.85,24.85,0,0,0,12.76-.11c2.93-.83,6.92-1.95,8.77,1.32s-.73,6.37-3.65,7.6A31.82,31.82,0,0,1,268.44,132.84Z"/><path class="cls-3" d="M323.29,141.1a3.54,3.54,0,0,0-3.06-1.78H242.35a3.54,3.54,0,0,0-3.4,2.59C266.82,141.31,295.27,142.36,323.29,141.1Z"/><path class="cls-4" d="M238.95,141.9a3.52,3.52,0,0,0-.15,1,1.32,1.32,0,0,0,1.32,1.32h82.34a1.32,1.32,0,0,0,1.32-1.32,3.52,3.52,0,0,0-.49-1.77C295.27,142.36,266.82,141.31,238.95,141.9Z"/><path class="cls-8" d="M242.35,139.31h77.87a3.55,3.55,0,0,1,3.55,3.55v0a1.32,1.32,0,0,1-1.32,1.32H240.12a1.32,1.32,0,0,1-1.32-1.32v0A3.55,3.55,0,0,1,242.35,139.31Z"/><path class="cls-4" d="M420.23,241.49q-.1,1.08-.09,2.25h0c0,5.17,1.19,9.36,6.36,9.36h39.17a28,28,0,0,1-1.54-7.63C449.24,246.18,434.29,247.66,420.23,241.49Z"/><path class="cls-3" d="M465.67,234.38H426.49c-4.39,0-5.91,3-6.26,7.11,14.07,6.18,29,4.69,43.9,4,0-.67-.07-1.38-.07-2.11A22,22,0,0,1,465.67,234.38Z"/><path class="cls-3" d="M458.12,217.56a20.37,20.37,0,0,1,1.54-6.89H420.49c-4.42,0-5.92,3.06-6.27,7.18C428.72,219.25,443.46,218.32,458.12,217.56Z"/><path class="cls-4" d="M414.22,217.85q-.09,1-.09,2.18h0c0,5.17,1.19,9.36,6.36,9.36h39.17a28.93,28.93,0,0,1-1.62-9.74c0-.73,0-1.43.08-2.08C443.46,218.32,428.72,219.25,414.22,217.85Z"/><path class="cls-4" d="M417.31,193.29a23.51,23.51,0,0,0-.18,3h0c0,5.17,1.19,9.36,6.36,9.36h39.17a27.94,27.94,0,0,1-1.53-7.54C446,199,431,198.84,417.31,193.29Z"/><path class="cls-3" d="M462.67,186.95H423.49c-4.11,0-5.7,2.66-6.18,6.34,13.69,5.55,28.7,5.75,43.82,4.83-.05-.7-.08-1.44-.08-2.2A22,22,0,0,1,462.67,186.95Z"/><path class="cls-5" d="M451.07,190.91h-4.93"/><line class="cls-5" x1="452.82" y1="194.93" x2="446.92" y2="194.93"/><line class="cls-5" x1="438.92" y1="192.24" x2="426.37" y2="192.24"/><line class="cls-5" x1="441.82" y1="195.6" x2="437.15" y2="195.6"/><line class="cls-5" x1="460.78" y1="192.84" x2="457.54" y2="192.84"/><line class="cls-5" x1="430.03" y1="195.85" x2="419.6" y2="195.85"/><path class="cls-8" d="M465.67,234.38H426.49c-5.17,0-6.36,4.19-6.36,9.36h0c0,5.17,1.19,9.36,6.36,9.36h39.17a28.93,28.93,0,0,1-1.62-9.74A22,22,0,0,1,465.67,234.38Z"/><path class="cls-29" d="M421.12,237.65a5.34,5.34,0,0,1,5.37-3.27h41.08a1,1,0,0,0,0-2h-87a7.27,7.27,0,0,0-7.33,4.92Q397.18,237.68,421.12,237.65Z"/><path class="cls-29" d="M467.57,253.1H426.49c-4.78,0-6.15-3.58-6.33-8.21-16,.2-31.93.42-47.89.29.31,5.59,2.53,9.92,8.31,9.92h87a1,1,0,0,0,0-2Z"/><path class="cls-30" d="M420.16,244.89c0-.38,0-.76,0-1.15a15.22,15.22,0,0,1,1-6.09q-23.93,0-47.87-.35a17.77,17.77,0,0,0-1,6.44c0,.49,0,1,0,1.44C388.23,245.31,404.19,245.09,420.16,244.89Z"/><path class="cls-15" d="M415.9,212.64a5.47,5.47,0,0,1,4.59-2h34.17l7.81-.57a1,1,0,0,0,.1-.43,1,1,0,0,0-1-1h-87a7.19,7.19,0,0,0-6.57,3.4C384,213,400,213.07,415.9,212.64Z"/><path class="cls-15" d="M455.67,210.66h5.9a1,1,0,0,0,.9-.57l-7.81.57Z"/><path class="cls-15" d="M461.57,229.38H420.49c-4.08,0-5.67-2.61-6.17-6.25q-24-.33-48-.88c.47,5.21,2.75,9.13,8.26,9.13h87a1,1,0,0,0,0-2Z"/><path class="cls-14" d="M414.13,220c0-3,.41-5.67,1.76-7.39-15.92.44-31.86.34-47.89-.57a15.26,15.26,0,0,0-1.79,8c0,.76,0,1.51.1,2.22q24,.52,48,.88A23.23,23.23,0,0,1,414.13,220Z"/><path class="cls-10" d="M417.24,193.93c.38-4,1.91-7,6.25-7h41.08a1,1,0,0,0,0-2h-87c-5.28,0-7.58,3.6-8.18,8.48C385.41,193.89,401.33,194,417.24,193.93Z"/><path class="cls-9" d="M464.57,205.66H423.49c-5.17,0-6.36-4.19-6.36-9.36,0-.82,0-1.62.11-2.37-15.9,0-31.83,0-47.85-.51a23.51,23.51,0,0,0-.17,2.88c0,6.27,2.09,11.36,8.36,11.36h87a1,1,0,0,0,0-2Z"/><path class="cls-18" d="M380.58,232.38h87a1,1,0,0,1,0,2H426.49c-5.17,0-6.36,4.19-6.36,9.36s1.19,9.36,6.36,9.36h41.08a1,1,0,0,1,0,2h-87c-6.27,0-8.36-5.09-8.36-11.36S374.31,232.38,380.58,232.38Z"/><path class="cls-18" d="M383.58,255.1c-6.27,0-8.36-5.09-8.36-11.36s2.09-11.36,8.36-11.36"/><path class="cls-18" d="M422.58,255.1c-6.27,0-8.36-5.09-8.36-11.36s2.09-11.36,8.36-11.36"/><path class="cls-8" d="M459.67,210.66H420.49c-5.17,0-6.36,4.19-6.36,9.36h0c0,5.17,1.19,9.36,6.36,9.36h39.17a28.93,28.93,0,0,1-1.62-9.74A22,22,0,0,1,459.67,210.66Z"/><path class="cls-16" d="M374.58,208.66h87a1,1,0,0,1,0,2H420.49c-5.17,0-6.36,4.19-6.36,9.36s1.19,9.36,6.36,9.36h41.08a1,1,0,0,1,0,2h-87c-6.27,0-8.36-5.09-8.36-11.36S368.31,208.66,374.58,208.66Z"/><path class="cls-16" d="M377.58,231.38c-6.27,0-8.36-5.09-8.36-11.36s2.09-11.36,8.36-11.36"/><path class="cls-16" d="M416.58,231.38c-6.27,0-8.36-5.09-8.36-11.36s2.09-11.36,8.36-11.36"/><path class="cls-8" d="M462.67,186.95H423.49c-5.17,0-6.36,4.19-6.36,9.36h0c0,5.17,1.19,9.36,6.36,9.36h39.17a28.93,28.93,0,0,1-1.62-9.74A22,22,0,0,1,462.67,186.95Z"/><path class="cls-8" d="M377.58,184.95h87a1,1,0,0,1,0,2H423.49c-5.17,0-6.36,4.19-6.36,9.36s1.19,9.36,6.36,9.36h41.08a1,1,0,0,1,0,2h-87c-6.27,0-8.36-5.09-8.36-11.36S371.31,184.95,377.58,184.95Z"/><path class="cls-8" d="M380.58,207.66c-6.27,0-8.36-5.09-8.36-11.36s2.09-11.36,8.36-11.36"/><path class="cls-8" d="M419.58,207.66c-6.27,0-8.36-5.09-8.36-11.36s2.09-11.36,8.36-11.36"/><path class="cls-4" d="M418,179.55a2.86,2.86,0,0,1,.82-1.38H375.12a2.89,2.89,0,1,0,0,5.78h43.22A4,4,0,0,1,418,179.55Z"/><path class="cls-3" d="M460.87,181.06a3.33,3.33,0,0,1,.11-.81c-14.21-.26-28.42,3.94-42.63-.24-.3,0-.41-.19-.37-.46a4,4,0,0,0,.37,4.4h43.79A4.61,4.61,0,0,1,460.87,181.06Z"/><path class="cls-4" d="M418.35,180c14.21,4.18,28.42,0,42.63.24a5,5,0,0,1,1.16-2.09H418.8C417.93,179.08,417.67,180,418.35,180Z"/><path class="cls-8" d="M372.21,181.06a2.6,2.6,0,0,1,2.91-2.89h87a3.93,3.93,0,0,0,0,5.78h-87a2.6,2.6,0,0,1-2.91-2.89h0Z"/><path class="cls-8" d="M463.77,183.95H375.19a2.64,2.64,0,0,1-3-2.89h0a2.64,2.64,0,0,1,3-2.89h88.57"/><path class="cls-8" d="M378.12,183.95c-2.16,0-2.91-1.51-2.91-3.36h0c0-1.86.75-3.36,2.91-3.36"/><path class="cls-8" d="M378.19,183.95c-2.2,0-3-1.51-3-3.36h0c0-1.86.78-3.36,3-3.36"/><path class="cls-8" d="M378.12,183.95c-2.16,0-2.91-1.51-2.91-3.36h0a3.12,3.12,0,0,1,2.91-3.36c1.67,0,2,.94,2,.94"/><path class="cls-8" d="M380.12,183.95c-2.16,0-2.91-1.51-2.91-3.36h0a3.12,3.12,0,0,1,2.91-3.36c1.67,0,2,.94,2,.94"/><path class="cls-8" d="M385.12,183.95c-2.16,0-2.91-1.51-2.91-3.36h0c0-1.86.75-3.36,2.91-3.36"/><path class="cls-8" d="M385.19,183.95c-2.2,0-3-1.51-3-3.36h0c0-1.86.78-3.36,3-3.36"/><path class="cls-8" d="M385.12,183.95c-2.16,0-2.91-1.51-2.91-3.36h0a3.12,3.12,0,0,1,2.91-3.36c1.67,0,2,.94,2,.94"/><path class="cls-8" d="M387.12,183.95c-2.16,0-2.91-1.51-2.91-3.36h0a3.12,3.12,0,0,1,2.91-3.36c1.67,0,2,.94,2,.94"/><path class="cls-8" d="M392,183.95c-2.16,0-2.91-1.51-2.91-3.36h0c0-1.86.75-3.36,2.91-3.36"/><path class="cls-8" d="M392.12,183.95c-2.2,0-3-1.51-3-3.36h0c0-1.86.78-3.36,3-3.36"/><path class="cls-8" d="M392,183.95c-2.16,0-2.91-1.51-2.91-3.36h0a3.12,3.12,0,0,1,2.91-3.36c1.67,0,2,.94,2,.94"/><path class="cls-8" d="M394,183.95c-2.16,0-2.91-1.51-2.91-3.36h0a3.12,3.12,0,0,1,2.91-3.36c1.67,0,2,.94,2,.94"/><path class="cls-8" d="M399,183.95c-2.16,0-2.91-1.51-2.91-3.36h0c0-1.86.75-3.36,2.91-3.36"/><path class="cls-8" d="M399.12,183.95c-2.2,0-3-1.51-3-3.36h0c0-1.86.78-3.36,3-3.36"/><path class="cls-8" d="M399,183.95c-2.16,0-2.91-1.51-2.91-3.36h0a3.12,3.12,0,0,1,2.91-3.36c1.67,0,2,.94,2,.94"/><path class="cls-8" d="M401,183.95c-2.16,0-2.91-1.51-2.91-3.36h0a3.12,3.12,0,0,1,2.91-3.36c1.67,0,2,.94,2,.94"/><path class="cls-8" d="M406,183.95c-2.16,0-2.91-1.51-2.91-3.36h0c0-1.86.75-3.36,2.91-3.36"/><path class="cls-8" d="M406,183.95c-2.2,0-3-1.51-3-3.36h0c0-1.86.78-3.36,3-3.36"/><path class="cls-8" d="M406,183.95c-2.16,0-2.91-1.51-2.91-3.36h0a3.12,3.12,0,0,1,2.91-3.36c1.67,0,2,.94,2,.94"/><path class="cls-8" d="M408,183.95c-2.16,0-2.91-1.51-2.91-3.36h0a3.12,3.12,0,0,1,2.91-3.36c1.67,0,2,.94,2,.94"/><path class="cls-8" d="M413,183.95c-2.16,0-2.91-1.51-2.91-3.36h0c0-1.86.75-3.36,2.91-3.36"/><path class="cls-8" d="M413,183.95c-2.2,0-3-1.51-3-3.36h0c0-1.86.78-3.36,3-3.36"/><path class="cls-8" d="M413,183.95c-2.16,0-2.91-1.51-2.91-3.36h0a3.12,3.12,0,0,1,2.91-3.36c1.67,0,2,.94,2,.94"/><path class="cls-8" d="M415,183.95c-2.16,0-2.91-1.51-2.91-3.36h0a3.12,3.12,0,0,1,2.91-3.36c1.67,0,2,.94,2,.94"/><path class="cls-8" d="M463.77,183.95H418.19a2.64,2.64,0,0,1-3-2.89h0a2.64,2.64,0,0,1,3-2.89h45.57"/><line class="cls-5" x1="424.45" y1="200.07" x2="429.13" y2="200.07"/><line class="cls-5" x1="417.97" y1="213.38" x2="427.6" y2="213.38"/><line class="cls-5" x1="423.25" y1="216.3" x2="426.56" y2="216.3"/><line class="cls-5" x1="430.41" y1="215.01" x2="435.3" y2="215.01"/><line class="cls-5" x1="440.63" y1="216.45" x2="446.56" y2="216.45"/><line class="cls-5" x1="445.13" y1="213.38" x2="446.96" y2="213.38"/><line class="cls-5" x1="451.55" y1="215.75" x2="456.63" y2="215.75"/><line class="cls-5" x1="424.24" y1="237.59" x2="437.87" y2="237.59"/><line class="cls-5" x1="442.41" y1="237.64" x2="449.82" y2="237.64"/><line class="cls-5" x1="447.6" y1="240.55" x2="451.3" y2="240.55"/><line class="cls-5" x1="441.33" y1="240.7" x2="435.83" y2="240.7"/><line class="cls-5" x1="443.1" y1="244.01" x2="446.36" y2="244.01"/><line class="cls-5" x1="454.95" y1="242.18" x2="460.5" y2="242.18"/><line class="cls-5" x1="456.93" y1="237.84" x2="461.28" y2="237.84"/><line class="cls-5" x1="431.11" y1="241.39" x2="427.9" y2="241.39"/><line class="cls-5" x1="436.78" y1="244.5" x2="424.34" y2="244.5"/><path class="cls-3" d="M371.13,173.2c-12-11.41-26.87-17.64-40-21a4.41,4.41,0,0,0-4.6,1.47c-3.42,4.4-4,11.13-2.57,16.56a25.22,25.22,0,0,0,3,6.94c.26.41.53.8.82,1.18,30.42,6.63,57.28,36.21,38.57,68.71a75.83,75.83,0,0,1-5.06,8.09h10.15A46.3,46.3,0,0,0,390,221.36C391.49,204.09,384.27,185.64,371.13,173.2Z"/><path class="cls-4" d="M327.78,178.31a16.72,16.72,0,0,0,6.84,5.32,52.08,52.08,0,0,1,15.79,10c6.62,6.27,10.41,15.9,9.66,24.54a18.87,18.87,0,0,1-8.52,14.67c-6.63,4.31-9,12.89-4.72,19.66a15.25,15.25,0,0,0,2.09,2.63h12.37a75.83,75.83,0,0,0,5.06-8.09C385.06,214.52,358.2,184.94,327.78,178.31Z"/><path class="cls-8" d="M360.07,218.14a18.87,18.87,0,0,1-8.52,14.67c-6.63,4.31-9,12.89-4.72,19.66a15.26,15.26,0,0,0,2.09,2.63h22.52A46.3,46.3,0,0,0,390,221.36c1.51-17.27-5.71-35.73-18.84-48.17-12-11.41-26.87-17.64-40-21a4.41,4.41,0,0,0-4.6,1.47c-3.42,4.4-4,11.13-2.57,16.56a25.22,25.22,0,0,0,3,6.94,16.73,16.73,0,0,0,7.67,6.5,52.08,52.08,0,0,1,15.79,10C357,199.87,360.82,209.5,360.07,218.14Z"/><rect class="cls-31" x="329.25" y="239.56" width="33.22" height="15.54" rx="7.77" ry="7.77"/><path class="cls-3" d="M377.35,237a4.07,4.07,0,0,0,.58-3,11.75,11.75,0,0,0-7.34-2.57h-24.2a11.81,11.81,0,0,0-11.72,10.41C347.31,251,369.83,250.17,377.35,237Z"/><path class="cls-4" d="M377.93,234a4.07,4.07,0,0,1-.58,3c-7.52,13.15-30,13.95-42.69,4.87a11.76,11.76,0,0,0,11.72,13.21h24.2A11.81,11.81,0,0,0,377.93,234Z"/><rect class="cls-8" x="334.57" y="231.47" width="47.83" height="23.63" rx="11.81" ry="11.81"/><path class="cls-32" d="M375.07,85a3.7,3.7,0,1,1,3.7,3.7A3.65,3.65,0,0,1,375.07,85Zm0,12.18a3.7,3.7,0,1,1,3.7,3.7A3.65,3.65,0,0,1,375.07,97.13Z"/><path class="cls-32" d="M386.48,101.77V80.31a1.87,1.87,0,0,1,1.87-1.87h7c8.86,0,13.49,5,13.49,12.6s-4.63,12.6-13.49,12.6h-7A1.87,1.87,0,0,1,386.48,101.77Zm8.9-3.91c5,0,7.17-2.62,7.17-6.82s-2.12-6.82-7.17-6.82h-2.66V97.86Z"/><polygon class="cls-33" points="180.79 80.84 179.44 79.2 185.65 73.2 187.87 75.89 180.79 80.84"/><polygon class="cls-33" points="183.25 88.68 183.06 86.56 191.58 85.14 191.88 88.61 183.25 88.68"/><polygon class="cls-33" points="172.24 75.28 174.29 75.87 177.31 67.78 173.96 66.82 172.24 75.28"/><path class="cls-28" d="M140,248.09H294.39a0,0,0,0,1,0,0v1.64A5.36,5.36,0,0,1,289,255.1H146.15a6.18,6.18,0,0,1-6.18-6.18v-.82A0,0,0,0,1,140,248.09Z"/><path class="cls-3" d="M210,251.2a5.31,5.31,0,0,0,.23-1.46v-1.64H140v.82a6.14,6.14,0,0,0,.91,3.21C165.26,252.68,185.63,251.64,210,251.2Z"/><path class="cls-4" d="M140.88,252.13a6.17,6.17,0,0,0,5.27,3h58.73a5.35,5.35,0,0,0,5.14-3.9C185.63,251.64,165.26,252.68,140.88,252.13Z"/><path class="cls-7" d="M210.24,248.09H140v.82a6.18,6.18,0,0,0,6.18,6.18H289a5.36,5.36,0,0,0,5.36-5.36v-1.64Z"/><line class="cls-7" x1="196.53" y1="251.54" x2="191.34" y2="251.54"/><line class="cls-7" x1="188.47" y1="251.54" x2="183.56" y2="251.54"/><line class="cls-7" x1="180.69" y1="251.54" x2="179.57" y2="251.54"/><path class="cls-4" d="M211.42,251.6h83.77a6.72,6.72,0,0,0,6.25-4.25l24.62-62.49a4.09,4.09,0,0,0-3.8-5.59H238.48a6.72,6.72,0,0,0-6.25,4.25L207.62,246A4.09,4.09,0,0,0,211.42,251.6Z"/><path class="cls-3" d="M326,181.63a4,4,0,0,0-1.7-.37H240.48a6.73,6.73,0,0,0-6.25,4.26L209.62,248a4,4,0,0,0,.1,3.22,4.09,4.09,0,0,1-2.1-5.22l24.61-62.49a6.73,6.73,0,0,1,6.25-4.26h83.78A4.05,4.05,0,0,1,326,181.63Z"/><path class="cls-3" d="M268.6,222.51a.5.5,0,0,1-.47-.68l1.16-3h-4l-1.3,3.35a.5.5,0,0,1-.47.32h-3.12a.5.5,0,0,1-.47-.68l2.9-7.5a8.69,8.69,0,0,1,8.32-6c1.91,0,3.25.54,4,1.6s.76,2.76,0,4.74l-2.9,7.5a.5.5,0,0,1-.47.32Zm2.15-7.43.29-.75c.31-.8.37-1.37.17-1.66s-.75-.36-1.18-.36a3.15,3.15,0,0,0-3.11,2.38l-.15.39Z"/><path class="cls-28" d="M271.19,208.85c3.69,0,4.87,2.15,3.51,5.66l-2.9,7.5h-3.2l1.42-3.67H265L263.55,222h-3.12l2.9-7.5a8.23,8.23,0,0,1,7.86-5.66M266,215.58h5.05l.41-1.07c.69-1.78.28-2.7-1.48-2.7a3.65,3.65,0,0,0-3.57,2.7l-.41,1.07m5.15-7.73a9.17,9.17,0,0,0-8.79,6.3l-2.9,7.5a1,1,0,0,0,.93,1.36h3.12a1,1,0,0,0,.93-.64l1.17-3h2.91l-.89,2.31a1,1,0,0,0,.93,1.36h3.2a1,1,0,0,0,.93-.64l2.9-7.5c1-2.71.55-4.33-.05-5.2s-1.79-1.82-4.39-1.82Zm-3.68,6.73a2.57,2.57,0,0,1,2.52-1.77c.55,0,.75.12.77.14s.14.27-.22,1.2l-.17.43Z"/><path class="cls-7" d="M211.42,251.6h83.77a6.72,6.72,0,0,0,6.25-4.25l24.62-62.49a4.09,4.09,0,0,0-3.8-5.59H238.48a6.72,6.72,0,0,0-6.25,4.25L207.62,246A4.09,4.09,0,0,0,211.42,251.6Z"/><path class="cls-4" d="M103.35,248c-21.8-16.12-35.5-48.4-24.09-73-13,8.18-11.33,32.85-5.6,46a3.75,3.75,0,0,1,.28,1.09q1.08,2.77,2.3,5.39c7.3,15.67,22.56,30.06,41.31,30.69a39.11,39.11,0,0,0,9.5-.86c-2.93-.7-5.81-1.55-8.7-2.27A100.92,100.92,0,0,1,103.35,248Z"/><path class="cls-4" d="M155.35,213c3.17,5.71,7.95,9.8,13.31,13.06,3-4.09,5.55-8.14,7.79-11.83a12,12,0,0,0-20.51-12.46c-10.95,18-21.56,28.38-32.45,31.65a15.47,15.47,0,0,1-3.3.61C134.83,234.63,147.5,224.79,155.35,213Z"/><path class="cls-3" d="M155.35,213c-7.85,11.78-20.52,21.62-35.17,21-9.53.72-18-7.72-22.2-16.74-4.53-9.71-7.24-21.83-8.54-38.15-.2-2.57-.12-6.64-2.75-6.72A17.75,17.75,0,0,0,79.26,175c-11.41,24.61,2.29,56.9,24.09,73a100.92,100.92,0,0,0,15,7c2.88.72,5.77,1.57,8.7,2.27q1.66-.36,3.35-.86c16.85-5.07,29.29-17.95,38.27-30.35C163.3,222.81,158.52,218.72,155.35,213Z"/><path class="cls-8" d="M172.42,197.75a12,12,0,0,0-16.49,4c-10.95,18-21.56,28.38-32.45,31.65s-20.82-6.08-25.5-16.13c-4.53-9.71-7.24-21.83-8.54-38.15-.2-2.57-.12-6.64-2.75-6.72-20.92,2.5-19.69,33.31-13,48.53a3.75,3.75,0,0,1,.28,1.09q1.08,2.77,2.3,5.39c7.3,15.67,22.56,30.06,41.31,30.69a39.82,39.82,0,0,0,12.85-1.72c22.41-6.74,37-27.3,46.06-42.18A12,12,0,0,0,172.42,197.75Z"/><rect class="cls-34" x="164.29" y="185.81" width="27.7" height="48.43" rx="13.03" ry="13.03" transform="translate(-96.85 194.95) rotate(-46.56)"/><path class="cls-34" d="M165.63,206l5.46,5.17c4.21,4,10.52,4.17,14.08.4l2.77-2.93c3.57-3.77,3-10.05-1.17-14l-3.54-3.35c-6-5.7-15-6-20.12-.57h0l-3.64,3.84"/><path class="cls-1" d="M112.07,158.8q7.82-1.55,15.77-2.37"/><path class="cls-7" d="M111.31,159.24a48.3,48.3,0,0,0,15.92-.17"/><path class="cls-7" d="M149.33,217.83a40.41,40.41,0,0,0,10,11.46"/><path class="cls-7" d="M136.84,230.94a35.68,35.68,0,0,0,8.1,13.41"/><path class="cls-7" d="M126.17,252.4A40.88,40.88,0,0,1,122.81,238"/><path class="cls-7" d="M102.74,247.36a15.33,15.33,0,0,1,3.6-12.43"/><path class="cls-7" d="M83.84,229.23a17.89,17.89,0,0,1,10.76-9.08"/><path class="cls-7" d="M74,209.34c3.21-3.74,8.69-4.28,13.61-4.56"/><path class="cls-7" d="M74.12,187.59a13.36,13.36,0,0,1,9.44-1.38"/><polygon class="cls-26" points="260.32 112.76 266.76 112.76 266.76 94.85 260.32 112.76"/><polygon class="cls-17" points="260.32 112.76 266.76 94.85 259.76 94.85 253.32 112.76 260.32 112.76"/><path class="cls-7" d="M338.36,181a23.91,23.91,0,0,1,5.81-19.49"/><path class="cls-7" d="M351.7,188.69a20.55,20.55,0,0,1,12.51-13.86"/><path class="cls-7" d="M361.31,201.24a16.6,16.6,0,0,1,8.61-6.64,33,33,0,0,1,8-1.26"/><path class="cls-7" d="M364.18,216.75a23.22,23.22,0,0,1,20.11,1.87"/></g></svg>