<svg id="Layer_1" data-name="Layer 1" xmlns="http://www.w3.org/2000/svg" viewBox="0 0 520.55 303.5"><defs><style>.cls-1{opacity:0.5;isolation:isolate;}.cls-2{fill:#a9d7f3;}.cls-3{fill:#e7f1f8;}.cls-4{fill:#fff;}.cls-5{fill:#3aa1d6;}.cls-6{fill:#a1c2d8;}.cls-7{fill:#40565b;}.cls-8{fill:#d0e4f1;}.cls-9{fill:#29b99a;}.cls-10{fill:#3f555a;}.cls-11{fill:#19bc9c;}</style></defs><title>albert-illustrations-essentials</title><g class="cls-1"><path class="cls-2" d="M213.35,311.35c-22.74-.42-44.08-4.27-61.33-20.26-18.56-17.2-26.91-44.3-19.71-69.21,1.28-4.44,2.95-9.5.69-13.5a12.66,12.66,0,0,0-4.73-4.33c-19.2-11.67-42.72-8.76-64.72-9.85S16.11,184.34,9.19,162c-1.89-6.11-2-13.33,1.7-18.38,4.6-6.32,13.12-7.09,20.64-7.35L68.07,135c5.89-.2,12.63-.85,16.09-5.92,5.77-8.44-9.87-39.85-19.34-42.7S44.76,85,36.06,80c-16-9.13-15.79-35.94-3.58-50.08s31.4-18.4,49.4-20.16C157.74,2.37,233.56,26,309.79,26.63c28.13.22,56.27-2.7,84.35-.72,3.62.26,7.47.69,10.33,3.1,2.61,2.2,4,5.75,4.44,9.26,2.51,18.13-15.3,32.63-32.28,34.9s-12.57,19,26.4,20.12c24.41.72,48,8.82,72.2,12.9,43.13,7.27,69.64,55.41,12.17,59.14-16.88,1.09-23.33-3.35-36.55,7.81-5,4.2-9.36,11-7.23,17.4,1.81,5.47,11.54,6.68,25.77,3.63a62.66,62.66,0,0,1,42.6,6.21c9.08,4.9,17.95,14.27,16.28,24.93-1.82,11.62-14.71,16.89-25.74,17.5s-23-1-32.27,5.34c1.09,9,11.41,12.27,19.59,14.75S507.59,273,504.2,281.28c-1.87,4.54-6.87,6.41-11.38,7.61a174.36,174.36,0,0,1-90.57-.3c-16.69-4.55-32.8-11.58-49.68-15.2s-28.12,13.85-43,22.9C290.4,309.52,256.35,313.28,213.35,311.35Z" transform="translate(-7.91 -8.33)"/></g><rect class="cls-3" x="74.43" y="33.23" width="96.39" height="137.12" rx="1.52" ry="1.52" transform="translate(-37.1 44.95) rotate(-21.97)"/><rect class="cls-4" x="76.11" y="29.29" width="96.39" height="137.12" rx="1.52" ry="1.52" transform="translate(-35.5 45.29) rotate(-21.97)"/><path class="cls-5" d="M106.1,179.5a2,2,0,0,1-1.87-1.26L54.06,53.89a2,2,0,0,1,1.12-2.63l86.58-34.93a2,2,0,0,1,2.63,1.12L194.55,141.8a2,2,0,0,1-1.12,2.63l-86.58,34.93A2,2,0,0,1,106.1,179.5ZM55.55,52.19h0A1,1,0,0,0,55,53.52l50.17,124.35a1,1,0,0,0,1.32.56l86.58-34.93a1,1,0,0,0,.56-1.32L143.45,17.83a1,1,0,0,0-1.32-.56Z" transform="translate(-7.91 -8.33)"/><path class="cls-6" d="M80.37,62.47l-2.78-6.9,5.09-2.06.64,1.58-3.39,1.37.46,1.13,2.77-1.12.55,1.37L80.95,59l.5,1.23,3.39-1.37.64,1.58Z" transform="translate(-7.91 -8.33)"/><path class="cls-6" d="M86.09,60.16l.85-4.46-3.52-2.48,2-.81,2.17,1.67h0l.4-2.71,2-.8-.83,4.24,3.72,2.62-2,.82L88.51,56.4h0l-.44,3Z" transform="translate(-7.91 -8.33)"/><path class="cls-6" d="M93.75,57.07,91,50.17l1.71-.69,2.78,6.9Z" transform="translate(-7.91 -8.33)"/><path class="cls-6" d="M98.32,55.23l-2.14-5.32-1.88.76-.64-1.58,5.47-2.21.64,1.58-1.89.76L100,54.54Z" transform="translate(-7.91 -8.33)"/><path class="cls-6" d="M105.72,52.24l-2.78-6.9,2.71-1.09c1.88-.76,3.12-.07,3.69,1.33s.15,2.77-1.73,3.53l-1,.4.82,2ZM107,47.52c.73-.29.8-.74.6-1.24s-.56-.75-1.29-.46l-1,.42.69,1.7Z" transform="translate(-7.91 -8.33)"/><path class="cls-6" d="M112.08,49.68l-2.78-6.9,1.71-.69,2.14,5.32,3.26-1.31.64,1.58Z" transform="translate(-7.91 -8.33)"/><path class="cls-6" d="M122.23,45.58l-.79-2-2.7,1.09.79,2-1.67.67-1.62-4a3.28,3.28,0,0,1,6.08-2.45l1.62,4Zm-1.62-4c-.38-.95-1-1.28-1.93-.9a1.33,1.33,0,0,0-.77,2l.23.57,2.7-1.09Z" transform="translate(-7.91 -8.33)"/><path class="cls-6" d="M129.23,42.76l-1.67-4.13a1.34,1.34,0,1,0-2.49,1l1.67,4.13-1.71.69-1.67-4.13a3.18,3.18,0,0,1,5.91-2.38l1.67,4.13Z" transform="translate(-7.91 -8.33)"/><circle class="cls-6" cx="81.38" cy="81.49" r="3.05" transform="translate(-32.49 28.04) rotate(-21.97)"/><path class="cls-6" d="M126,62.28a.5.5,0,0,1-.19-1l8.54-3.44a.5.5,0,1,1,.37.93l-8.54,3.44A.5.5,0,0,1,126,62.28Z" transform="translate(-7.91 -8.33)"/><path class="cls-6" d="M89.82,76.86a.5.5,0,0,1-.19-1L121,63.23a.5.5,0,0,1,.37.93L90,76.83A.5.5,0,0,1,89.82,76.86Z" transform="translate(-7.91 -8.33)"/><path class="cls-6" d="M119.9,68.18a.5.5,0,0,1-.19-1l17.67-7.13a.5.5,0,1,1,.37.93l-17.67,7.13A.5.5,0,0,1,119.9,68.18Z" transform="translate(-7.91 -8.33)"/><path class="cls-6" d="M91,79.83a.5.5,0,0,1-.19-1l24.3-9.8a.5.5,0,0,1,.37.93L91.2,79.8A.5.5,0,0,1,91,79.83Z" transform="translate(-7.91 -8.33)"/><circle class="cls-6" cx="86.95" cy="95.3" r="3.05" transform="translate(-37.26 31.13) rotate(-21.97)"/><path class="cls-6" d="M137.91,73.52a.5.5,0,0,1-.19-1l7.58-3.06a.5.5,0,1,1,.37.93l-7.58,3.06A.5.5,0,0,1,137.91,73.52Z" transform="translate(-7.91 -8.33)"/><path class="cls-6" d="M124.63,78.88a.5.5,0,0,1-.19-1L133,74.47a.5.5,0,0,1,.37.93l-8.54,3.44A.5.5,0,0,1,124.63,78.88Z" transform="translate(-7.91 -8.33)"/><path class="cls-6" d="M95.39,90.68a.5.5,0,0,1-.19-1l24.5-9.89a.5.5,0,0,1,.37.93l-24.5,9.89A.5.5,0,0,1,95.39,90.68Z" transform="translate(-7.91 -8.33)"/><path class="cls-6" d="M126.85,81.44a.5.5,0,0,1-.19-1l26-10.47a.5.5,0,1,1,.37.93L127,81.4A.5.5,0,0,1,126.85,81.44Z" transform="translate(-7.91 -8.33)"/><path class="cls-6" d="M96.59,93.65a.5.5,0,0,1-.19-1l25.68-10.36a.5.5,0,0,1,.37.93L96.78,93.61A.5.5,0,0,1,96.59,93.65Z" transform="translate(-7.91 -8.33)"/><circle class="cls-6" cx="103.44" cy="136.16" r="3.05" transform="translate(-51.35 40.26) rotate(-21.97)"/><path class="cls-6" d="M154.39,114.38a.5.5,0,0,1-.19-1l7.58-3.06a.5.5,0,0,1,.37.93l-7.58,3.06A.5.5,0,0,1,154.39,114.38Z" transform="translate(-7.91 -8.33)"/><path class="cls-6" d="M141.12,119.74a.5.5,0,0,1-.19-1l8.54-3.44a.5.5,0,0,1,.37.93l-8.54,3.44A.5.5,0,0,1,141.12,119.74Z" transform="translate(-7.91 -8.33)"/><path class="cls-6" d="M111.88,131.53a.5.5,0,0,1-.19-1l24.5-9.89a.5.5,0,1,1,.37.93l-24.5,9.89A.5.5,0,0,1,111.88,131.53Z" transform="translate(-7.91 -8.33)"/><path class="cls-6" d="M143.34,122.29a.5.5,0,0,1-.19-1l26-10.47a.5.5,0,1,1,.37.93l-26,10.47A.5.5,0,0,1,143.34,122.29Z" transform="translate(-7.91 -8.33)"/><path class="cls-6" d="M113.07,134.5a.5.5,0,0,1-.19-1l25.68-10.36a.5.5,0,1,1,.37.93l-25.68,10.36A.5.5,0,0,1,113.07,134.5Z" transform="translate(-7.91 -8.33)"/><circle class="cls-6" cx="92.53" cy="109.12" r="3.05" transform="translate(-42.02 34.22) rotate(-21.97)"/><path class="cls-6" d="M144.68,90.31a.5.5,0,0,1-.19-1l7.58-3.06a.5.5,0,0,1,.37.93l-7.58,3.06A.5.5,0,0,1,144.68,90.31Z" transform="translate(-7.91 -8.33)"/><path class="cls-6" d="M131.41,95.67a.5.5,0,0,1-.19-1l8.54-3.44a.5.5,0,1,1,.37.93l-8.54,3.44A.5.5,0,0,1,131.41,95.67Z" transform="translate(-7.91 -8.33)"/><path class="cls-6" d="M102.16,107.46a.5.5,0,0,1-.19-1l24.5-9.89a.5.5,0,1,1,.37.93l-24.5,9.89A.5.5,0,0,1,102.16,107.46Z" transform="translate(-7.91 -8.33)"/><path class="cls-6" d="M138.14,89.5a.5.5,0,0,1-.19-1l8.44-3.41a.5.5,0,1,1,.37.93l-8.44,3.41A.5.5,0,0,1,138.14,89.5Z" transform="translate(-7.91 -8.33)"/><path class="cls-6" d="M101,104.49a.5.5,0,0,1-.19-1l32.58-13.15a.5.5,0,1,1,.37.93l-32.58,13.15A.5.5,0,0,1,101,104.49Z" transform="translate(-7.91 -8.33)"/><circle class="cls-6" cx="98.1" cy="122.93" r="3.05" transform="translate(-46.78 37.3) rotate(-21.97)"/><path class="cls-6" d="M142.69,103.72a.5.5,0,0,1-.19-1L151,99.32a.5.5,0,1,1,.37.93l-8.54,3.44A.5.5,0,0,1,142.69,103.72Z" transform="translate(-7.91 -8.33)"/><path class="cls-6" d="M106.54,118.31a.5.5,0,0,1-.19-1l31.41-12.67a.5.5,0,0,1,.37.93l-31.41,12.67A.5.5,0,0,1,106.54,118.31Z" transform="translate(-7.91 -8.33)"/><path class="cls-6" d="M136.62,109.63a.5.5,0,0,1-.19-1l17.67-7.13a.5.5,0,1,1,.37.93l-17.67,7.13A.5.5,0,0,1,136.62,109.63Z" transform="translate(-7.91 -8.33)"/><path class="cls-6" d="M107.74,121.28a.5.5,0,0,1-.19-1l24.3-9.8a.5.5,0,1,1,.37.93l-24.3,9.8A.5.5,0,0,1,107.74,121.28Z" transform="translate(-7.91 -8.33)"/><circle class="cls-6" cx="114.17" cy="162.77" r="3.05" transform="translate(-60.52 46.21) rotate(-21.97)"/><path class="cls-6" d="M165.13,141a.5.5,0,0,1-.19-1l7.58-3.06a.5.5,0,1,1,.37.93L165.32,141A.5.5,0,0,1,165.13,141Z" transform="translate(-7.91 -8.33)"/><path class="cls-6" d="M151.85,146.35a.5.5,0,0,1-.19-1l8.54-3.44a.5.5,0,1,1,.37.93L152,146.31A.5.5,0,0,1,151.85,146.35Z" transform="translate(-7.91 -8.33)"/><path class="cls-6" d="M122.61,158.15a.5.5,0,0,1-.19-1l24.5-9.89a.5.5,0,1,1,.37.93l-24.5,9.89A.5.5,0,0,1,122.61,158.15Z" transform="translate(-7.91 -8.33)"/><path class="cls-6" d="M154.07,148.91a.5.5,0,0,1-.19-1l26-10.47a.5.5,0,0,1,.37.93l-26,10.47A.5.5,0,0,1,154.07,148.91Z" transform="translate(-7.91 -8.33)"/><path class="cls-6" d="M123.81,161.12a.5.5,0,0,1-.19-1l25.68-10.36a.5.5,0,1,1,.37.93L124,161.08A.49.49,0,0,1,123.81,161.12Z" transform="translate(-7.91 -8.33)"/><circle class="cls-6" cx="108.84" cy="149.54" r="3.05" transform="translate(-55.96 43.25) rotate(-21.97)"/><path class="cls-6" d="M153.43,130.34a.5.5,0,0,1-.19-1l8.54-3.44a.5.5,0,1,1,.37.93l-8.54,3.44A.5.5,0,0,1,153.43,130.34Z" transform="translate(-7.91 -8.33)"/><path class="cls-6" d="M117.28,144.92a.5.5,0,0,1-.19-1l31.41-12.67a.5.5,0,0,1,.37.93l-31.41,12.67A.5.5,0,0,1,117.28,144.92Z" transform="translate(-7.91 -8.33)"/><path class="cls-6" d="M147.36,136.24a.5.5,0,0,1-.19-1l17.67-7.13a.5.5,0,0,1,.37.93l-17.67,7.13A.5.5,0,0,1,147.36,136.24Z" transform="translate(-7.91 -8.33)"/><path class="cls-6" d="M118.47,147.89a.5.5,0,0,1-.19-1l24.3-9.8a.5.5,0,0,1,.37.93l-24.3,9.8A.5.5,0,0,1,118.47,147.89Z" transform="translate(-7.91 -8.33)"/><rect class="cls-3" x="113.61" y="36.33" width="137.12" height="96.39" rx="1.52" ry="1.52" transform="translate(77.39 252.12) rotate(-86.05)"/><rect class="cls-4" x="116.84" y="33.51" width="137.12" height="96.39" rx="1.52" ry="1.52" transform="translate(83.21 252.72) rotate(-86.05)"/><path class="cls-5" d="M227.36,153.83h-.14l-93.14-6.43a2,2,0,0,1-1.87-2.15l9.23-133.77a2,2,0,0,1,2.15-1.87h0L236.73,16a2,2,0,0,1,1.87,2.15l-9.23,133.77a2,2,0,0,1-2,1.88ZM143.45,10.59a1,1,0,0,0-1,.95l-9.23,133.77a1,1,0,0,0,.94,1.08l93.14,6.43a1,1,0,0,0,1.08-.94L237.6,18.11a1,1,0,0,0-.94-1.08L143.52,10.6Z" transform="translate(-7.91 -8.33)"/><path class="cls-6" d="M152.62,30.08l.51-7.42,1.84.13-.39,5.72,3.51.24-.12,1.7Z" transform="translate(-7.91 -8.33)"/><path class="cls-6" d="M159,30.52l.51-7.42,5.48.38-.12,1.7-3.64-.25-.08,1.21,3,.21-.1,1.48-3-.21L161,28.95l3.64.25-.12,1.7Z" transform="translate(-7.91 -8.33)"/><path class="cls-6" d="M169.49,26c0-.43-.23-.79-.87-.83s-.95.31-1,.7c-.09,1.25,3.68.25,3.47,3.23-.1,1.47-1.28,2.33-3,2.21s-2.7-1.09-2.63-2.53l1.79.12c0,.47.23.78.95.83s1-.23,1.05-.69c.09-1.25-3.65-.25-3.45-3.22a2.69,2.69,0,0,1,5.34.31Z" transform="translate(-7.91 -8.33)"/><path class="cls-6" d="M175.81,26.46c0-.43-.23-.79-.87-.83s-.95.31-1,.7c-.09,1.25,3.68.25,3.47,3.23-.1,1.47-1.28,2.33-3,2.21s-2.7-1.09-2.63-2.53l1.79.12c0,.47.23.78.95.83s1-.23,1.05-.69c.09-1.25-3.65-.25-3.45-3.22a2.69,2.69,0,0,1,5.34.31Z" transform="translate(-7.91 -8.33)"/><path class="cls-6" d="M182,32.26a3.87,3.87,0,1,1,4.22-3.59A3.78,3.78,0,0,1,182,32.26Zm2.35-3.71a2.09,2.09,0,1,0-2.24,2A2,2,0,0,0,184.33,28.54Z" transform="translate(-7.91 -8.33)"/><path class="cls-6" d="M191.43,32.76l.31-4.45a1.23,1.23,0,0,0-1.24-1.51c-.91-.06-1.37.42-1.44,1.33l-.31,4.45-1.84-.13.31-4.45a3.18,3.18,0,0,1,6.35.44l-.31,4.45Z" transform="translate(-7.91 -8.33)"/><path class="cls-6" d="M197.64,33.19l.51-7.42,2.92.2c2,.14,2.84,1.3,2.74,2.81s-1.08,2.56-3.1,2.42l-1.08-.07-.15,2.19Zm3.22-3.69c.78.05,1-.32,1.08-.85s-.18-.92-1-1l-1.11-.08-.13,1.83Z" transform="translate(-7.91 -8.33)"/><path class="cls-6" d="M204.48,33.66l.51-7.42,1.84.13-.39,5.72,3.51.24-.12,1.7Z" transform="translate(-7.91 -8.33)"/><path class="cls-6" d="M215.4,34.41l.15-2.11-2.9-.2-.15,2.11-1.79-.12.3-4.31a3.28,3.28,0,0,1,6.54.45l-.3,4.31Zm.3-4.31c.07-1-.34-1.58-1.35-1.65s-1.49.43-1.56,1.45l0,.61,2.9.2Z" transform="translate(-7.91 -8.33)"/><path class="cls-6" d="M222.94,34.93l.31-4.45A1.23,1.23,0,0,0,222,29c-.91-.06-1.37.42-1.44,1.33l-.31,4.45-1.84-.13.31-4.45a3.18,3.18,0,0,1,6.35.44l-.31,4.45Z" transform="translate(-7.91 -8.33)"/><rect class="cls-3" x="185.67" y="34.1" width="1" height="75.41" transform="matrix(0.07, -1, 1, 0.07, 93.81, 244.26)"/><rect class="cls-3" x="184.89" y="45.42" width="1" height="75.41" transform="translate(81.79 254.02) rotate(-86.05)"/><rect class="cls-3" x="184.11" y="56.74" width="1" height="75.41" transform="translate(69.77 263.79) rotate(-86.05)"/><rect class="cls-3" x="183.33" y="68.06" width="1" height="75.41" transform="matrix(0.07, -1, 1, 0.07, 57.74, 273.55)"/><rect class="cls-3" x="182.55" y="79.39" width="1" height="75.41" transform="translate(45.72 283.31) rotate(-86.05)"/><rect class="cls-3" x="181.77" y="90.71" width="1" height="75.41" transform="matrix(0.07, -1, 1, 0.07, 33.7, 293.08)"/><rect class="cls-3" x="180.99" y="102.03" width="1" height="75.41" transform="translate(21.67 302.84) rotate(-86.05)"/><rect class="cls-3" x="113.96" y="93.23" width="96.06" height="1" transform="translate(49.41 240.56) rotate(-86.05)"/><rect class="cls-3" x="129" y="94.27" width="96.06" height="1" transform="translate(62.47 256.58) rotate(-86.08)"/><rect class="cls-3" x="159.09" y="96.35" width="96.06" height="1" transform="translate(88.43 288.54) rotate(-86.08)"/><rect class="cls-3" x="144.05" y="95.31" width="96.06" height="1" transform="translate(75.27 272.46) rotate(-86.03)"/><rect class="cls-3" x="149.72" y="46.47" width="75.41" height="14.33" transform="translate(-3.78 -21.1) rotate(3.95)"/><path class="cls-6" d="M155.2,54.15l-1.35-.09.24-3.46a1.87,1.87,0,0,1,2.1-2,1.71,1.71,0,0,1,1.45.85h0a1.7,1.7,0,0,1,1.55-.64A1.87,1.87,0,0,1,161,51.08l-.24,3.46-1.35-.09.24-3.46c0-.64-.25-.88-.66-.91s-.73.18-.78.81L158,54.35l-1.35-.09.24-3.46c0-.64-.26-.88-.66-.91s-.73.18-.78.81Z" transform="translate(-7.91 -8.33)"/><path class="cls-6" d="M171.49,55.28l.29-4.21L170.3,51l.09-1.25,4.33.3-.09,1.25-1.5-.1-.29,4.21Z" transform="translate(-7.91 -8.33)"/><path class="cls-6" d="M190.47,51.1l1.35.09-.24,3.46a1.87,1.87,0,0,1-2.1,2,1.71,1.71,0,0,1-1.45-.85h0a1.7,1.7,0,0,1-1.55.64,1.87,1.87,0,0,1-1.81-2.25l.24-3.46,1.35.09L186,54.27c0,.64.25.88.66.91s.73-.18.78-.81l.24-3.46L189,51l-.24,3.46c0,.64.26.88.66.91s.73-.18.78-.81Z" transform="translate(-7.91 -8.33)"/><path class="cls-6" d="M202.16,57.4l.29-4.21-1.49-.1.09-1.25,4.33.3-.09,1.25-1.5-.1-.29,4.21Z" transform="translate(-7.91 -8.33)"/><path class="cls-6" d="M215.72,58.33l.38-5.46,4,.27L220,54.4l-2.61-.18-.06.85,2.13.15-.08,1.17-2.13-.15-.15,2.19Z" transform="translate(-7.91 -8.33)"/><circle class="cls-5" cx="171.39" cy="65.1" r="3.23" transform="matrix(0.07, -1, 1, 0.07, 86.73, 223.27)"/><circle class="cls-5" cx="184.93" cy="88.58" r="3.23" transform="translate(75.91 258.65) rotate(-86.05)"/><circle class="cls-5" cx="199.82" cy="101.17" r="3.23" transform="matrix(0.07, -1, 1, 0.07, 77.22, 285.23)"/><circle class="cls-5" cx="169.16" cy="99.06" r="3.23" transform="matrix(0.07, -1, 1, 0.07, 50.77, 252.66)"/><circle class="cls-5" cx="182.63" cy="123.12" r="3.23" transform="matrix(0.07, -1, 1, 0.07, 39.32, 288.51)"/><circle class="cls-5" cx="213.88" cy="113.79" r="3.23" transform="matrix(0.07, -1, 1, 0.07, 77.72, 311.01)"/><circle class="cls-5" cx="151.07" cy="132.13" r="3.23" transform="translate(0.94 265.42) rotate(-86.05)"/><circle class="cls-5" cx="155.61" cy="75.41" r="3.23" transform="translate(61.75 217.13) rotate(-86.05)"/><rect class="cls-3" x="142.28" y="77.57" width="137.12" height="96.39" rx="1.52" ry="1.52" transform="translate(6.9 265.24) rotate(-67.83)"/><rect class="cls-4" x="146.24" y="75.91" width="137.12" height="96.39" rx="1.52" ry="1.52" transform="translate(10.9 267.86) rotate(-67.83)"/><path class="cls-5" d="M232.73,205.82a2,2,0,0,1-.76-.15l-86.45-35.23a2,2,0,0,1-1.11-2.63L195,43.64a2,2,0,0,1,2.63-1.11l86.46,35.23a2,2,0,0,1,1.11,2.63L234.6,204.56a2,2,0,0,1-1.87,1.26ZM196.87,43.38a1,1,0,0,0-.94.63l-50.6,124.18a1,1,0,0,0,.56,1.33l86.45,35.23a1,1,0,0,0,1.33-.56L284.27,80a1,1,0,0,0-.56-1.33L197.25,43.46A1,1,0,0,0,196.87,43.38Z" transform="translate(-7.91 -8.33)"/><path class="cls-6" d="M210.33,69.1l2.81-6.89,2.71,1.1c1.87.76,2.29,2.12,1.72,3.53s-1.82,2.09-3.7,1.33l-1-.41-.83,2Zm4.21-2.5c.73.3,1.09,0,1.3-.47s.12-.93-.6-1.23l-1-.42-.69,1.7Z" transform="translate(-7.91 -8.33)"/><path class="cls-6" d="M219.94,73.18a3.87,3.87,0,1,1,5.12-2.09A3.78,3.78,0,0,1,219.94,73.18Zm3.4-2.79a2.09,2.09,0,1,0-2.75,1.21A2,2,0,0,0,223.34,70.38Z" transform="translate(-7.91 -8.33)"/><path class="cls-6" d="M224.73,75l2.81-6.89,2.71,1.1c1.87.76,2.29,2.12,1.72,3.53s-1.82,2.09-3.7,1.33l-1-.41-.83,2Zm4.21-2.5c.73.3,1.09,0,1.3-.47s.12-.93-.6-1.23l-1-.42-.69,1.7Z" transform="translate(-7.91 -8.33)"/><path class="cls-6" d="M240.08,80.29l.55,2.42-1.95-.79-.27-1.41a4.68,4.68,0,0,1-1.27-.32,3.87,3.87,0,1,1,5.12-2.09A3.82,3.82,0,0,1,240.08,80.29ZM238,78.69v0L237.64,77l1.95.79.12.67h0a2.34,2.34,0,0,0,.8-1,2.09,2.09,0,1,0-2.75,1.21Z" transform="translate(-7.91 -8.33)"/><path class="cls-6" d="M248.77,76.73l1.66.68-1.68,4.13a3.16,3.16,0,0,1-5.86-2.39L244.58,75l1.71.7-1.68,4.13a1.34,1.34,0,1,0,2.49,1Z" transform="translate(-7.91 -8.33)"/><path class="cls-6" d="M248.87,84.81l2.81-6.89,1.71.7-2.81,6.89Z" transform="translate(-7.91 -8.33)"/><path class="cls-6" d="M254.57,85.26v0l3.28,1.33-.64,1.58L251.74,86l.62-1.53,4.7-2.47v0l-3-1.23.64-1.58,5.19,2.12-.62,1.53Z" transform="translate(-7.91 -8.33)"/><path class="cls-6" d="M242.31,113.4a.49.49,0,0,1-.19,0l-29.51-12a.5.5,0,0,1,.38-.93l29.51,12a.5.5,0,0,1-.19,1Z" transform="translate(-7.91 -8.33)"/><path class="cls-6" d="M210.4,100.4a.49.49,0,0,1-.19,0L194,93.76a.5.5,0,1,1,.38-.93l16.2,6.6a.5.5,0,0,1-.19,1Z" transform="translate(-7.91 -8.33)"/><path class="cls-6" d="M256.23,121.15a.49.49,0,0,1-.19,0l-53.5-21.8a.5.5,0,1,1,.38-.93l53.5,21.8a.5.5,0,0,1-.19,1Z" transform="translate(-7.91 -8.33)"/><path class="cls-6" d="M200.53,98.45a.49.49,0,0,1-.19,0l-7.05-2.87a.5.5,0,1,1,.38-.93l7.05,2.87a.5.5,0,0,1-.19,1Z" transform="translate(-7.91 -8.33)"/><path class="cls-6" d="M250.09,126.2a.49.49,0,0,1-.19,0l-32.5-13.24a.5.5,0,1,1,.38-.93l32.5,13.24a.5.5,0,0,1-.19,1Z" transform="translate(-7.91 -8.33)"/><path class="cls-6" d="M215.23,112a.49.49,0,0,1-.19,0L200.45,106a.5.5,0,1,1,.38-.93L215.41,111a.5.5,0,0,1-.19,1Z" transform="translate(-7.91 -8.33)"/><path class="cls-6" d="M198.15,105a.49.49,0,0,1-.19,0l-7.32-3a.5.5,0,1,1,.38-.93l7.32,3a.5.5,0,0,1-.19,1Z" transform="translate(-7.91 -8.33)"/><path class="cls-6" d="M253.06,129.48a.49.49,0,0,1-.19,0L201,108.33a.5.5,0,1,1,.38-.93l51.82,21.12a.5.5,0,0,1-.19,1Z" transform="translate(-7.91 -8.33)"/><path class="cls-6" d="M198.94,107.43a.49.49,0,0,1-.19,0l-8.83-3.6a.5.5,0,1,1,.38-.93l8.83,3.6a.5.5,0,0,1-.19,1Z" transform="translate(-7.91 -8.33)"/><path class="cls-6" d="M250.7,138.15a.49.49,0,0,1-.19,0l-24.59-10a.5.5,0,1,1,.38-.93l24.59,10a.5.5,0,0,1-.19,1Z" transform="translate(-7.91 -8.33)"/><path class="cls-6" d="M222.58,126.69a.49.49,0,0,1-.19,0l-18.09-7.37a.5.5,0,1,1,.38-.93l18.09,7.37a.5.5,0,0,1-.19,1Z" transform="translate(-7.91 -8.33)"/><path class="cls-6" d="M202.95,118.69a.49.49,0,0,1-.19,0l-16.2-6.6a.5.5,0,1,1,.38-.93l16.2,6.6a.5.5,0,0,1-.19,1Z" transform="translate(-7.91 -8.33)"/><path class="cls-6" d="M245.65,134a.49.49,0,0,1-.19,0L216.1,122a.5.5,0,1,1,.38-.93l29.36,12a.5.5,0,0,1-.19,1Z" transform="translate(-7.91 -8.33)"/><path class="cls-6" d="M214.06,121.15a.49.49,0,0,1-.19,0l-26.6-10.84a.5.5,0,1,1,.38-.93l26.6,10.84a.5.5,0,0,1-.19,1Z" transform="translate(-7.91 -8.33)"/><path class="cls-6" d="M189.2,94.73a.93.93,0,0,1-.35-.07l-2.57-1a.94.94,0,0,1-.52-1.23l1-2.57A.94.94,0,0,1,188,89.3l2.57,1a.94.94,0,0,1,.52,1.23l-1,2.57A.94.94,0,0,1,189.2,94.73Zm0-1h0Zm-1.56-3.5-1,2.54,2.48.95,1-2.51Z" transform="translate(-7.91 -8.33)"/><path class="cls-6" d="M185.83,103a.94.94,0,0,1-.36-.07l-2.57-1a.94.94,0,0,1-.52-1.23l1-2.57a.94.94,0,0,1,1.23-.52l2.57,1a.94.94,0,0,1,.52,1.23l-1,2.57a.94.94,0,0,1-.87.59Zm-1.54-4.5-1,2.54,2.48.95,1-2.51Z" transform="translate(-7.91 -8.33)"/><path class="cls-6" d="M182.53,111.08a.94.94,0,0,1-.36-.07l-2.57-1a.94.94,0,0,1-.52-1.23l1-2.57a.94.94,0,0,1,1.23-.52l2.57,1a.94.94,0,0,1,.52,1.23l-1,2.57a.94.94,0,0,1-.87.59Zm-1.54-4.5-1,2.54,2.48.95,1-2.51Z" transform="translate(-7.91 -8.33)"/><path class="cls-7" d="M261.15,112.51a.49.49,0,0,1-.19,0l-71.05-29a.5.5,0,0,1,.38-.93l71.05,29a.5.5,0,0,1-.19,1Z" transform="translate(-7.91 -8.33)"/><path class="cls-7" d="M224.49,92.77a.49.49,0,0,1-.19,0L191.59,79.4a.5.5,0,1,1,.38-.93l32.72,13.33a.5.5,0,0,1-.19,1Z" transform="translate(-7.91 -8.33)"/><path class="cls-6" d="M225.92,153.62a.49.49,0,0,1-.19,0l-29.51-12a.5.5,0,1,1,.38-.93l29.51,12a.5.5,0,0,1-.19,1Z" transform="translate(-7.91 -8.33)"/><path class="cls-6" d="M194,140.61a.49.49,0,0,1-.19,0l-16.2-6.6A.5.5,0,0,1,178,133l16.2,6.6a.5.5,0,0,1-.19,1Z" transform="translate(-7.91 -8.33)"/><path class="cls-6" d="M239.85,161.36a.49.49,0,0,1-.19,0l-53.5-21.8a.5.5,0,1,1,.38-.93L240,160.4a.5.5,0,0,1-.19,1Z" transform="translate(-7.91 -8.33)"/><path class="cls-6" d="M184.14,138.66a.49.49,0,0,1-.19,0l-7.05-2.87a.5.5,0,1,1,.38-.93l7.05,2.87a.5.5,0,0,1-.19,1Z" transform="translate(-7.91 -8.33)"/><path class="cls-6" d="M233.7,166.41a.49.49,0,0,1-.19,0L201,153.13a.5.5,0,1,1,.38-.93l32.5,13.24a.5.5,0,0,1-.19,1Z" transform="translate(-7.91 -8.33)"/><path class="cls-6" d="M198.84,152.21a.49.49,0,0,1-.19,0l-14.58-5.94a.5.5,0,1,1,.38-.93L199,151.25a.5.5,0,0,1-.19,1Z" transform="translate(-7.91 -8.33)"/><path class="cls-6" d="M181.77,145.25a.49.49,0,0,1-.19,0l-7.32-3a.5.5,0,0,1,.38-.93l7.32,3a.5.5,0,0,1-.19,1Z" transform="translate(-7.91 -8.33)"/><path class="cls-6" d="M236.67,169.69a.49.49,0,0,1-.19,0l-51.82-21.12a.5.5,0,1,1,.38-.93l51.82,21.12a.5.5,0,0,1-.19,1Z" transform="translate(-7.91 -8.33)"/><path class="cls-6" d="M182.55,147.64a.49.49,0,0,1-.19,0l-8.83-3.6a.5.5,0,1,1,.38-.93l8.83,3.6a.5.5,0,0,1-.19,1Z" transform="translate(-7.91 -8.33)"/><path class="cls-6" d="M234.32,178.36a.49.49,0,0,1-.19,0l-24.59-10a.5.5,0,1,1,.38-.93l24.59,10a.5.5,0,0,1-.19,1Z" transform="translate(-7.91 -8.33)"/><path class="cls-6" d="M206.19,166.9a.49.49,0,0,1-.19,0l-18.09-7.37a.5.5,0,1,1,.38-.93l18.09,7.37a.5.5,0,0,1-.19,1Z" transform="translate(-7.91 -8.33)"/><path class="cls-6" d="M186.56,158.9a.49.49,0,0,1-.19,0l-16.2-6.6a.5.5,0,1,1,.38-.93l16.2,6.6a.5.5,0,0,1-.19,1Z" transform="translate(-7.91 -8.33)"/><path class="cls-6" d="M229.27,174.23a.49.49,0,0,1-.19,0l-29.36-12a.5.5,0,1,1,.38-.93l29.36,12a.5.5,0,0,1-.19,1Z" transform="translate(-7.91 -8.33)"/><path class="cls-6" d="M197.68,161.36a.49.49,0,0,1-.19,0l-26.6-10.84a.5.5,0,0,1,.38-.93l26.6,10.84a.5.5,0,0,1-.19,1Z" transform="translate(-7.91 -8.33)"/><path class="cls-6" d="M172.81,134.94a.94.94,0,0,1-.36-.07l-2.57-1a.94.94,0,0,1-.52-1.23l1-2.57a.94.94,0,0,1,1.23-.52l2.57,1a.94.94,0,0,1,.52,1.23l-1,2.57a.93.93,0,0,1-.51.51A1,1,0,0,1,172.81,134.94Zm-1.54-4.5-1,2.54,2.5,1,1-2.52Z" transform="translate(-7.91 -8.33)"/><path class="cls-6" d="M169.45,143.2a.94.94,0,0,1-.35-.07h0l-2.57-1a.94.94,0,0,1-.52-1.23l1-2.57a.94.94,0,0,1,1.23-.52l2.57,1a.94.94,0,0,1,.52,1.23l-1,2.57A.94.94,0,0,1,169.45,143.2Zm0-1h0Zm-1.56-3.5-1,2.54,2.48.95,1-2.51Z" transform="translate(-7.91 -8.33)"/><path class="cls-6" d="M227,182.95a.49.49,0,0,1-.19,0l-32.5-13.24a.5.5,0,0,1,.38-.93L227.16,182a.5.5,0,0,1-.19,1Z" transform="translate(-7.91 -8.33)"/><path class="cls-6" d="M192.1,168.74a.49.49,0,0,1-.19,0l-14.58-5.94a.5.5,0,1,1,.38-.93l14.58,5.94a.5.5,0,0,1-.19,1Z" transform="translate(-7.91 -8.33)"/><path class="cls-6" d="M175,161.78a.49.49,0,0,1-.19,0l-7.32-3a.5.5,0,1,1,.38-.93l7.32,3a.5.5,0,0,1-.19,1Z" transform="translate(-7.91 -8.33)"/><path class="cls-6" d="M229.93,186.22a.49.49,0,0,1-.19,0l-51.82-21.12a.5.5,0,1,1,.38-.93l51.82,21.12a.5.5,0,0,1-.19,1Z" transform="translate(-7.91 -8.33)"/><path class="cls-6" d="M175.82,164.17a.49.49,0,0,1-.19,0l-8.83-3.6a.5.5,0,1,1,.38-.93l8.83,3.6a.5.5,0,0,1-.19,1Z" transform="translate(-7.91 -8.33)"/><path class="cls-6" d="M162.71,159.73a.94.94,0,0,1-.36-.07l-2.57-1a.94.94,0,0,1-.52-1.23l1-2.57a.94.94,0,0,1,1.23-.52l2.57,1a.94.94,0,0,1,.52,1.23l-1,2.57a.94.94,0,0,1-.87.59Zm-1.54-4.5-1,2.54,2.48.95,1-2.51Z" transform="translate(-7.91 -8.33)"/><path class="cls-6" d="M166.15,151.3a.94.94,0,0,1-.35-.07h0l-2.57-1a.94.94,0,0,1-.52-1.23l1-2.57a.94.94,0,0,1,1.23-.52l2.57,1a.94.94,0,0,1,.52,1.23l-1,2.57A.94.94,0,0,1,166.15,151.3Zm0-1h0Zm-1.56-3.5-1,2.54,2.48.95,1-2.51Z" transform="translate(-7.91 -8.33)"/><path class="cls-7" d="M244.77,152.72a.49.49,0,0,1-.19,0l-71.05-29a.5.5,0,0,1,.38-.93l71.05,29a.5.5,0,0,1-.19,1Z" transform="translate(-7.91 -8.33)"/><path class="cls-7" d="M208.11,133a.49.49,0,0,1-.19,0L175.2,119.62a.5.5,0,1,1,.38-.93L208.3,132a.5.5,0,0,1-.19,1Z" transform="translate(-7.91 -8.33)"/><path class="cls-8" d="M109,100.75h-6.9a4.58,4.58,0,0,0-4.58,4.58v106.9l4.29,5.87,2.61-112.77A4.58,4.58,0,0,1,109,100.75Z" transform="translate(-7.91 -8.33)"/><path class="cls-3" d="M157,101.45V90.79a2.29,2.29,0,0,0-2.29-2.29H112a2.29,2.29,0,0,0-2.29,2.29v10.66" transform="translate(-7.91 -8.33)"/><path class="cls-3" d="M273.14,218.11H101.85V105.43a4.58,4.58,0,0,1,4.58-4.58H268.9a4.81,4.81,0,0,1,4.24,2.22Z" transform="translate(-7.91 -8.33)"/><path class="cls-5" d="M157,101a.5.5,0,0,1-.5-.5V90.79A1.79,1.79,0,0,0,154.72,89H112a1.79,1.79,0,0,0-1.79,1.79v9.69a.5.5,0,0,1-1,0V90.79A2.79,2.79,0,0,1,112,88h42.73a2.79,2.79,0,0,1,2.79,2.79v9.69A.5.5,0,0,1,157,101Z" transform="translate(-7.91 -8.33)"/><path class="cls-5" d="M273.14,218.61H101.85a.5.5,0,0,1-.5-.5V105.43a5.09,5.09,0,0,1,5.08-5.08H268.9a5.29,5.29,0,0,1,4.66,2.45.5.5,0,0,1,.08.27v115A.5.5,0,0,1,273.14,218.61Zm-170.79-1H272.64V103.21a4.33,4.33,0,0,0-3.74-1.87H106.43a4.09,4.09,0,0,0-4.08,4.08Z" transform="translate(-7.91 -8.33)"/><path class="cls-5" d="M145.83,165.93V153H149v10h6.1v3Z" transform="translate(-7.91 -8.33)"/><path class="cls-5" d="M157,165.93V153h9.54v3h-6.34v2.11h5.19v2.57h-5.19V163h6.34v3Z" transform="translate(-7.91 -8.33)"/><path class="cls-5" d="M178.3,157.92a3.42,3.42,0,0,0-3.34-2.19,3.75,3.75,0,0,0,0,7.5A3.42,3.42,0,0,0,178.3,161h3.38a6.72,6.72,0,1,1,0-3.12Z" transform="translate(-7.91 -8.33)"/><path class="cls-5" d="M185.71,165.93V156h-3.51v-3h10.25v3h-3.53v10Z" transform="translate(-7.91 -8.33)"/><path class="cls-5" d="M201.86,153H205v7.74c0,3.32-2,5.43-5.45,5.43s-5.53-2.09-5.53-5.43V153h3.2v7.74c0,1.58.73,2.47,2.31,2.47s2.35-.87,2.35-2.47Z" transform="translate(-7.91 -8.33)"/><path class="cls-5" d="M214.17,165.93l-2.29-4h-1.36v4h-3.2V153h5.23c3.42,0,4.94,1.86,4.94,4.42a4,4,0,0,1-2.41,4v0l2.88,4.46Zm-1.58-7c1.28,0,1.66-.63,1.66-1.48s-.38-1.46-1.66-1.46h-2.07v2.94Z" transform="translate(-7.91 -8.33)"/><path class="cls-5" d="M219.63,165.93V153h9.54v3h-6.34v2.11H228v2.57h-5.19V163h6.34v3Z" transform="translate(-7.91 -8.33)"/><path class="cls-8" d="M434.07,271.63,273.6,261.24V163.33a4.58,4.58,0,0,1,4.58-4.58H440.65a4.81,4.81,0,0,1,4.24,2.22Z" transform="translate(-7.91 -8.33)"/><path class="cls-9" d="M434.52,272.16,273.1,261.71V163.33a5.09,5.09,0,0,1,5.08-5.08H440.65a5.29,5.29,0,0,1,4.66,2.45l.09.15ZM274.1,260.77,433.62,271.1l10.76-110a4.34,4.34,0,0,0-3.72-1.85H278.18a4.09,4.09,0,0,0-4.08,4.08Z" transform="translate(-7.91 -8.33)"/><rect class="cls-3" x="346.59" y="120.4" width="137.12" height="96.39" rx="1.52" ry="1.52" transform="translate(-10.83 321.51) rotate(-43.19)"/><rect class="cls-4" x="350.88" y="120.54" width="137.12" height="96.39" rx="1.52" ry="1.52" transform="translate(-9.76 324.48) rotate(-43.19)"/><path class="cls-9" d="M402.51,250.67h-.07A2,2,0,0,1,401,250L337.14,182a2,2,0,0,1,.09-2.85L435,87.34a2,2,0,0,1,2.85.09l63.9,68.06a2,2,0,0,1-.09,2.85l-97.76,91.78A2,2,0,0,1,402.51,250.67ZM436.37,87.79a1,1,0,0,0-.7.27l-97.76,91.78a1,1,0,0,0,0,1.44l63.9,68.06a1,1,0,0,0,.71.32,1,1,0,0,0,.73-.27L501,157.61a1,1,0,0,0,0-1.44l-63.9-68.06A1,1,0,0,0,436.37,87.79Z" transform="translate(-7.91 -8.33)"/><path class="cls-9" d="M414.71,139.89l-.68-.73,8.07-7.57c-3.62.75-7.33,1.49-11.09,2a4,4,0,0,1-3.49-.69,2.7,2.7,0,0,1-.76-2.27,3.45,3.45,0,0,1,1-2,2.56,2.56,0,0,1,3.48-.33l-.69.73c-.6-.56-1.6-.17-2.1.32a2.45,2.45,0,0,0-.74,1.38,1.7,1.7,0,0,0,.48,1.42,3.11,3.11,0,0,0,2.64.41c4.33-.64,8.62-1.53,12.77-2.39l1.74-.36Z" transform="translate(-7.91 -8.33)"/><rect class="cls-9" x="413.82" y="137.31" width="1" height="4.34" transform="translate(8.84 312.97) rotate(-43.18)"/><rect class="cls-9" x="415.65" y="132.05" width="1" height="4.34" transform="translate(12.97 312.88) rotate(-43.19)"/><path class="cls-9" d="M419.08,145.62h0a1.08,1.08,0,1,1,.77-.29A1.07,1.07,0,0,1,419,145.62Zm0-1.15-.05,0a.08.08,0,0,0,0,.11h.11v-.11Z" transform="translate(-7.91 -8.33)"/><rect class="cls-10" x="437.28" y="142.15" width="1" height="13.13" transform="translate(8.9 331.6) rotate(-43.19)"/><rect class="cls-10" x="442.92" y="142.47" width="1" height="43.37" transform="translate(-0.12 339.67) rotate(-43.19)"/><rect class="cls-10" x="389.15" y="147.35" width="1" height="13.13" transform="translate(-7.69 300.07) rotate(-43.19)"/><path class="cls-6" d="M442.26,182.93a.5.5,0,0,1-.36-.16L423,162.62a.5.5,0,0,1,.73-.68l18.92,20.15a.5.5,0,0,1-.36.84Z" transform="translate(-7.91 -8.33)"/><path class="cls-6" d="M418.84,158a.5.5,0,0,1-.36-.16l-20-21.26a.5.5,0,1,1,.73-.68l20,21.26a.5.5,0,0,1-.36.84Z" transform="translate(-7.91 -8.33)"/><path class="cls-6" d="M427.71,175.19a.5.5,0,0,1-.36-.16l-32.69-34.82a.5.5,0,1,1,.73-.68l32.69,34.82a.5.5,0,0,1-.36.84Z" transform="translate(-7.91 -8.33)"/><path class="cls-6" d="M441.37,189.73a.5.5,0,0,1-.36-.16l-9.39-10a.5.5,0,1,1,.73-.68l9.39,10a.5.5,0,0,1-.36.84Z" transform="translate(-7.91 -8.33)"/><path class="cls-6" d="M426.28,181.42a.5.5,0,0,1-.36-.16l-35.13-37.42a.5.5,0,1,1,.73-.68l35.13,37.42a.5.5,0,0,1-.36.84Z" transform="translate(-7.91 -8.33)"/><path class="cls-6" d="M442.93,199.16a.5.5,0,0,1-.36-.16L430.5,186.14a.5.5,0,1,1,.73-.68l12.07,12.86a.5.5,0,0,1-.36.84Z" transform="translate(-7.91 -8.33)"/><path class="cls-10" d="M398.4,220.91h0a17.16,17.16,0,0,1-14.07-26.15l0-.05,0-.05a17.16,17.16,0,0,1,29.71,1h0a.5.5,0,0,1-.23.62l-14.43,7.74-.52,16.37A.5.5,0,0,1,398.4,220.91Zm-13.47-25.24a16.16,16.16,0,0,0,13,24.22l.5-15.86Zm.53-.85,13.48,8.36,14-7.5a16.16,16.16,0,0,0-27.47-.86Z" transform="translate(-7.91 -8.33)"/><path class="cls-9" d="M402.84,220.6h-.49l-.5,0,.47-15,.5,0-.24-.44L415.86,198l.24.44a15.06,15.06,0,0,1-13.26,22.17Zm.48-14.75-.43,13.75a14.07,14.07,0,0,0,12.57-20.26Z" transform="translate(-7.91 -8.33)"/><path class="cls-6" d="M387.78,178.14a.5.5,0,0,1-.36-.16L372,161.52a.5.5,0,1,1,.73-.68l15.46,16.47a.5.5,0,0,1-.36.84Z" transform="translate(-7.91 -8.33)"/><path class="cls-6" d="M398.05,196a.5.5,0,0,1-.36-.16l-29.18-31.08a.5.5,0,1,1,.73-.68l29.18,31.08a.5.5,0,0,1-.36.84Z" transform="translate(-7.91 -8.33)"/><path class="cls-6" d="M380.79,184.7a.5.5,0,0,1-.36-.16L365,168.07a.5.5,0,1,1,.73-.68l15.46,16.47a.5.5,0,0,1-.36.84Z" transform="translate(-7.91 -8.33)"/><path class="cls-6" d="M377.35,187.93a.5.5,0,0,1-.36-.16l-15.46-16.47a.5.5,0,0,1,.73-.68l15.46,16.47a.5.5,0,0,1-.36.84Z" transform="translate(-7.91 -8.33)"/><path class="cls-6" d="M430.81,108.72l5.81-5.45,1.93,2.05c1.92,2,1.76,4.2,0,5.84s-3.91,1.66-5.82-.38Zm3.26.8a2.16,2.16,0,1,0,3.14-3l-.58-.61-3.14,3Z" transform="translate(-7.91 -8.33)"/><path class="cls-6" d="M436.5,114.78l5.81-5.45,1.35,1.44-5.81,5.45Z" transform="translate(-7.91 -8.33)"/><path class="cls-6" d="M442.28,120.95l1.65-1.55-2.13-2.27-1.65,1.55-1.32-1.4,3.38-3.17a3.51,3.51,0,0,1,4.8,5.12l-3.38,3.17Zm3.38-3.17a1.56,1.56,0,1,0-2.13-2.27L443,116l2.13,2.27Z" transform="translate(-7.91 -8.33)"/><path class="cls-6" d="M452.42,124a2.11,2.11,0,0,0-.57-2,2.32,2.32,0,0,0-3.38,3.17,2.11,2.11,0,0,0,2.25.71l0,0L449,123.94l1.15-1.08,3.23,3.44-.63.59a4.1,4.1,0,1,1,1.15-1.33Z" transform="translate(-7.91 -8.33)"/><path class="cls-6" d="M454.14,133.57l3.48-3.27a1.44,1.44,0,1,0-2-2.1l-3.48,3.27L450.82,130l3.48-3.27a3.41,3.41,0,0,1,4.67,5L455.49,135Z" transform="translate(-7.91 -8.33)"/><path class="cls-6" d="M459,139a4.14,4.14,0,1,1,5.92.26A4,4,0,0,1,459,139Zm4.55-1.2a2.24,2.24,0,1,0-3.22,0A2.18,2.18,0,0,0,463.55,137.78Z" transform="translate(-7.91 -8.33)"/><path class="cls-6" d="M469.39,141.66a1,1,0,0,0-1.34-1.45c-1,.92,2.7,2.88.37,5.06-1.16,1.08-2.7.9-3.93-.42s-1.33-2.82-.22-3.9l1.32,1.4c-.36.34-.39.78.14,1.34s1,.57,1.33.22c1-.92-2.69-2.86-.36-5a2.88,2.88,0,0,1,4,4.13Z" transform="translate(-7.91 -8.33)"/><path class="cls-6" d="M468.46,148.83l4.48-4.2L471.45,143l1.33-1.25,4.33,4.61-1.33,1.25-1.49-1.59-4.48,4.2Z" transform="translate(-7.91 -8.33)"/><path class="cls-6" d="M472.09,152.7l5.81-5.45,1.35,1.44-5.81,5.45Z" transform="translate(-7.91 -8.33)"/><path class="cls-6" d="M482.2,156.24a2.11,2.11,0,0,0-.42-2.43A2.32,2.32,0,0,0,478.4,157a2.11,2.11,0,0,0,2.4.57l1.43,1.52a4.14,4.14,0,1,1,1.4-1.32Z" transform="translate(-7.91 -8.33)"/><rect class="cls-3" x="308.76" y="82.38" width="137.12" height="96.39" rx="1.52" ry="1.52" transform="translate(200.66 484.11) rotate(-84.09)"/><rect class="cls-4" x="312.09" y="79.67" width="137.12" height="96.39" rx="1.52" ry="1.52" transform="translate(206.34 484.99) rotate(-84.09)"/><path class="cls-9" d="M420.17,201.38H420l-92.86-9.62a2,2,0,0,1-1.8-2.21L339.12,56.17a2,2,0,0,1,2.21-1.8L434.19,64A2,2,0,0,1,436,66.2L422.18,199.57A2,2,0,0,1,420.17,201.38Zm-79.05-146a1,1,0,0,0-1,.91L326.3,189.64a1,1,0,0,0,.91,1.12l92.86,9.62a1,1,0,0,0,1.12-.91L435,66.09a1,1,0,0,0-.91-1.12l-92.86-9.62Z" transform="translate(-7.91 -8.33)"/><path class="cls-11" d="M417.75,136h-.05L343,128.28a.5.5,0,0,1-.45-.55L345,104.22a.5.5,0,0,1,.55-.45l74.71,7.74a.5.5,0,0,1,.45.55l-2.44,23.51A.5.5,0,0,1,417.75,136Zm-74.16-8.68L417.3,135l2.33-22.52-73.71-7.63Z" transform="translate(-7.91 -8.33)"/><path class="cls-11" d="M341.64,143.56l1.75-1.2c.78-.54,1.08-.84,1.13-1.31a.79.79,0,0,0-.67-.9h-.1a1.29,1.29,0,0,0-1.09.47.43.43,0,0,1-.72-.36.47.47,0,0,1,.13-.27,2.08,2.08,0,0,1,1.82-.67,1.58,1.58,0,0,1,1.57,1.59q0,.08,0,.15h0c-.09.83-.57,1.23-1.58,1.93l-1.13.79,2.12.22a.41.41,0,0,1-.08.81l-3-.31a.45.45,0,0,1-.45-.49A.57.57,0,0,1,341.64,143.56Z" transform="translate(-7.91 -8.33)"/><path class="cls-11" d="M352.14,101.07H352a1,1,0,1,1,.1,0Zm0-1.47-.05.5h0Z" transform="translate(-7.91 -8.33)"/><path class="cls-11" d="M347.48,95.64l-.55.11-.17,0a.41.41,0,0,1-.4-.41h0a.41.41,0,0,1,.35-.36l.82-.18a1.61,1.61,0,0,1,.45,0h0a.45.45,0,0,1,.41.48v0l-.46,4.42a.46.46,0,0,1-.91-.09Z" transform="translate(-7.91 -8.33)"/><path class="cls-11" d="M368.93,102.32h-.05l-14.15-1.47a.5.5,0,0,1,.1-1L369,101.32a.5.5,0,0,1-.05,1Z" transform="translate(-7.91 -8.33)"/><path class="cls-11" d="M394.07,104.92H394l-20.55-2.13a.5.5,0,0,1-.45-.55.51.51,0,0,1,.55-.45l20.55,2.13a.5.5,0,0,1-.05,1Z" transform="translate(-7.91 -8.33)"/><path class="cls-11" d="M410.4,106.61h-.05l-11.77-1.22a.5.5,0,0,1-.45-.55.51.51,0,0,1,.55-.45l11.77,1.22a.5.5,0,0,1-.05,1Z" transform="translate(-7.91 -8.33)"/><path class="cls-11" d="M413.14,180.52h-.05l-74.71-7.74a.5.5,0,0,1-.45-.55l2.43-23.51a.5.5,0,0,1,.55-.45L415.62,156a.5.5,0,0,1,.45.55l-2.43,23.51a.5.5,0,0,1-.5.45ZM339,171.83l73.71,7.63L415,156.95l-73.71-7.63Z" transform="translate(-7.91 -8.33)"/><path class="cls-11" d="M347.53,145.58h-.1a1,1,0,0,1-.52-1.75,1,1,0,0,1,.73-.22h0a1,1,0,0,1-.1,2Zm.05-1.47-.05.5h0Z" transform="translate(-7.91 -8.33)"/><path class="cls-11" d="M359.25,146.3h-.05l-9.08-.94a.5.5,0,0,1-.45-.55.51.51,0,0,1,.55-.45l9.08.94a.5.5,0,0,1-.05,1Z" transform="translate(-7.91 -8.33)"/><path class="cls-11" d="M386.57,149.13h-.05l-23.62-2.45a.5.5,0,0,1,.1-1l23.62,2.45a.5.5,0,0,1-.05,1Z" transform="translate(-7.91 -8.33)"/><path class="cls-11" d="M407.26,151.27h-.05l-16.92-1.75a.5.5,0,0,1,.1-1l16.92,1.75a.5.5,0,0,1-.05,1Z" transform="translate(-7.91 -8.33)"/><path class="cls-11" d="M416.32,103.3a1.17,1.17,0,0,1-.14.47,1.76,1.76,0,0,1-.27.36,2.18,2.18,0,0,1-.3.26l-.23.16a1.14,1.14,0,0,0-.21.18.66.66,0,0,0-.12.19,1,1,0,0,0-.06.22q0,.12,0,.27a.25.25,0,0,1-.08.16.37.37,0,0,1-.28,0,.31.31,0,0,1-.23-.11.47.47,0,0,1,0-.31,2,2,0,0,1,.08-.41,1.45,1.45,0,0,1,.13-.29,1,1,0,0,1,.15-.2l.16-.13.22-.15.24-.18a1.15,1.15,0,0,0,.2-.22.64.64,0,0,0,.1-.3.52.52,0,0,0-.15-.45.81.81,0,0,0-.49-.2.75.75,0,0,0-.38,0,.83.83,0,0,0-.22.14l-.15.15a.22.22,0,0,1-.18.06.4.4,0,0,1-.22-.1.28.28,0,0,1-.09-.26.54.54,0,0,1,.1-.25.88.88,0,0,1,.26-.24,1.35,1.35,0,0,1,.41-.16,1.72,1.72,0,0,1,.55,0,1.81,1.81,0,0,1,.57.15,1.34,1.34,0,0,1,.41.29,1.06,1.06,0,0,1,.29.85Zm-1.78,2.8a.47.47,0,0,1,.41.51.46.46,0,0,1-.17.31.44.44,0,0,1-.34.1.43.43,0,0,1-.31-.17.46.46,0,0,1-.1-.34.45.45,0,0,1,.17-.31A.43.43,0,0,1,414.54,106.1Z" transform="translate(-7.91 -8.33)"/><path class="cls-11" d="M413,148.58a1.17,1.17,0,0,1-.14.47,1.76,1.76,0,0,1-.27.36,2.18,2.18,0,0,1-.3.26l-.23.16a1.14,1.14,0,0,0-.21.18.66.66,0,0,0-.12.19,1,1,0,0,0-.06.22q0,.12,0,.27a.25.25,0,0,1-.08.16.37.37,0,0,1-.28,0,.31.31,0,0,1-.23-.11.47.47,0,0,1,0-.31,2,2,0,0,1,.08-.41,1.45,1.45,0,0,1,.13-.29,1,1,0,0,1,.15-.2l.16-.13.22-.15.24-.18a1.15,1.15,0,0,0,.2-.22.64.64,0,0,0,.1-.3.52.52,0,0,0-.15-.45.81.81,0,0,0-.49-.2.75.75,0,0,0-.38,0,.83.83,0,0,0-.22.14l-.15.15a.22.22,0,0,1-.18.06.4.4,0,0,1-.22-.1.28.28,0,0,1-.09-.26.54.54,0,0,1,.1-.25.88.88,0,0,1,.26-.24,1.35,1.35,0,0,1,.41-.16,1.72,1.72,0,0,1,.55,0,1.81,1.81,0,0,1,.57.15,1.34,1.34,0,0,1,.41.29,1.06,1.06,0,0,1,.29.85Zm-1.78,2.8a.47.47,0,0,1,.41.51.46.46,0,0,1-.17.31.44.44,0,0,1-.34.1.43.43,0,0,1-.31-.17.46.46,0,0,1-.1-.34.45.45,0,0,1,.17-.31A.43.43,0,0,1,411.19,151.38Z" transform="translate(-7.91 -8.33)"/><path class="cls-6" d="M355.7,73.81l.65-6.24,1.55.16L357.24,74Z" transform="translate(-7.91 -8.33)"/><path class="cls-6" d="M362.18,74.48l.39-3.74a1,1,0,0,0-1-1.31c-.76-.08-1.17.31-1.25,1.08l-.39,3.74-1.55-.16.39-3.74a2.69,2.69,0,0,1,5.34.55l-.39,3.74Z" transform="translate(-7.91 -8.33)"/><path class="cls-6" d="M364.86,74.76l.65-6.24,2.2.23c2.2.23,3.21,1.6,3,3.47s-1.47,3-3.66,2.78Zm2.35-1.2a1.7,1.7,0,1,0,.35-3.38l-.66-.07-.35,3.38Z" transform="translate(-7.91 -8.33)"/><path class="cls-6" d="M371.37,75.43l.65-6.24,4.61.48-.15,1.43-3.06-.32-.11,1,2.51.26-.13,1.24L373.18,73l-.12,1.12,3.06.32L376,75.91Z" transform="translate(-7.91 -8.33)"/><path class="cls-6" d="M377.05,76l.65-6.24,2.45.25c1.7.18,2.36,1.18,2.23,2.45s-1,2.13-2.68,2l-.91-.09-.19,1.84Zm2.82-3c.66.07.89-.24.94-.68s-.12-.78-.78-.85l-.94-.1-.16,1.54Z" transform="translate(-7.91 -8.33)"/><path class="cls-6" d="M382.8,76.62l.65-6.24,4.61.48-.15,1.43L384.84,72l-.11,1,2.51.26-.13,1.24-2.51-.26-.12,1.12,3.06.32-.15,1.43Z" transform="translate(-7.91 -8.33)"/><path class="cls-6" d="M392.14,77.58l.39-3.74a1,1,0,0,0-1-1.31c-.76-.08-1.17.31-1.25,1.08l-.39,3.74-1.55-.16.39-3.74a2.69,2.69,0,0,1,5.34.55l-.39,3.74Z" transform="translate(-7.91 -8.33)"/><path class="cls-6" d="M394.82,77.86l.65-6.24,2.2.23c2.2.23,3.21,1.6,3,3.47s-1.47,3-3.66,2.78Zm2.35-1.2a1.7,1.7,0,1,0,.35-3.38l-.66-.07-.35,3.38Z" transform="translate(-7.91 -8.33)"/><path class="cls-6" d="M401.33,78.54l.65-6.24,4.61.48-.15,1.43-3.06-.32-.11,1,2.51.26-.13,1.24-2.51-.26L403,77.26l3.06.32L405.94,79Z" transform="translate(-7.91 -8.33)"/><path class="cls-6" d="M410.67,79.5l.39-3.74a1,1,0,0,0-1-1.31c-.76-.08-1.17.31-1.25,1.08l-.39,3.74-1.55-.16.39-3.74a2.69,2.69,0,0,1,5.34.55l-.39,3.74Z" transform="translate(-7.91 -8.33)"/><path class="cls-6" d="M414.48,79.9l.5-4.81-1.7-.18.15-1.43,5,.51-.15,1.43-1.71-.18-.5,4.81Z" transform="translate(-7.91 -8.33)"/><path class="cls-6" d="M362.88,86.13l.65-6.24,2.45.25c1.7.18,2.36,1.18,2.23,2.45s-1,2.13-2.68,2l-.91-.09-.19,1.84Zm2.82-3c.66.07.89-.24.94-.68s-.12-.78-.78-.85l-.94-.1L364.76,83Z" transform="translate(-7.91 -8.33)"/><path class="cls-6" d="M371.94,87.06,371,85l-.66-.07-.2,2-1.55-.16.65-6.24,2.53.26c1.65.17,2.29,1.14,2.16,2.38a2,2,0,0,1-1.36,1.81v0l1.17,2.3Zm-.41-3.47c.62.06.83-.22.88-.63s-.11-.72-.73-.79l-1-.1-.15,1.42Z" transform="translate(-7.91 -8.33)"/><path class="cls-6" d="M378.37,87.73l.18-1.78-2.44-.25-.18,1.78-1.51-.16.38-3.63a2.76,2.76,0,0,1,5.5.57l-.38,3.63Zm.38-3.63c.09-.86-.24-1.35-1.09-1.43s-1.27.32-1.36,1.18l-.05.52,2.44.25Z" transform="translate(-7.91 -8.33)"/><path class="cls-6" d="M386.07,84.61a1.66,1.66,0,0,0-1.5-1.23,1.82,1.82,0,0,0-.38,3.63,1.66,1.66,0,0,0,1.72-.89l1.63.17a3.26,3.26,0,1,1,.16-1.51Z" transform="translate(-7.91 -8.33)"/><path class="cls-6" d="M389.24,88.86l.5-4.81-1.7-.18.15-1.43,5,.51L393,84.38l-1.71-.18-.5,4.81Z" transform="translate(-7.91 -8.33)"/><path class="cls-6" d="M393.4,89.29,394,83l1.55.16-.65,6.24Z" transform="translate(-7.91 -8.33)"/><path class="cls-6" d="M401.24,86.18a1.66,1.66,0,0,0-1.5-1.23,1.82,1.82,0,0,0-.38,3.63,1.66,1.66,0,0,0,1.72-.89l1.63.17a3.26,3.26,0,1,1,.16-1.51Z" transform="translate(-7.91 -8.33)"/><path class="cls-6" d="M403.39,90.32l.65-6.24,4.61.48L408.49,86l-3.06-.32-.11,1,2.51.26-.13,1.24-2.51-.26L405.08,89l3.06.32L408,90.8Z" transform="translate(-7.91 -8.33)"/><rect class="cls-3" x="275.85" y="83.38" width="96.39" height="137.12" rx="1.52" ry="1.52" transform="translate(-20.49 22.06) rotate(-5.27)"/><rect class="cls-4" x="278.59" y="80.08" width="96.39" height="137.12" rx="1.52" ry="1.52" transform="translate(-20.18 22.3) rotate(-5.27)"/><path class="cls-9" d="M286.45,221.7a2,2,0,0,1-2-1.83L272.14,86.35A2,2,0,0,1,274,84.15l93-8.57a2,2,0,0,1,2.19,1.82l12.31,133.52a2,2,0,0,1-1.82,2.19l-93,8.57ZM274.06,85.15a1,1,0,0,0-.92,1.11l12.31,133.52a1,1,0,0,0,1.11.92l93-8.57a1,1,0,0,0,.92-1.11L368.12,77.5a1,1,0,0,0-1.11-.92Z" transform="translate(-7.91 -8.33)"/><path class="cls-6" d="M286.88,99.85a1.31,1.31,0,0,0-1.35-.72,1.44,1.44,0,0,0,.26,2.86,1.31,1.31,0,0,0,1.2-1l1.29-.12a2.57,2.57,0,1,1-.11-1.19Z" transform="translate(-7.91 -8.33)"/><path class="cls-6" d="M291.56,102.6a2.57,2.57,0,1,1,2.39-2.8A2.51,2.51,0,0,1,291.56,102.6Zm1.15-2.69a1.39,1.39,0,1,0-1.25,1.56A1.35,1.35,0,0,0,292.71,99.91Z" transform="translate(-7.91 -8.33)"/><path class="cls-6" d="M296,102.09l-1.22.11-.29-3.12A1.69,1.69,0,0,1,296.13,97a1.55,1.55,0,0,1,1.42.55h0a1.54,1.54,0,0,1,1.29-.8,1.69,1.69,0,0,1,1.94,1.74l.29,3.12-1.22.11-.29-3.12c-.05-.57-.35-.75-.72-.72s-.63.26-.58.84l.29,3.12-1.22.11-.29-3.12c-.05-.57-.36-.75-.72-.72s-.63.26-.58.84Z" transform="translate(-7.91 -8.33)"/><path class="cls-6" d="M302,101.54l-.45-4.93,1.94-.18c1.34-.12,2,.55,2.1,1.55s-.44,1.8-1.78,1.92l-.72.07.13,1.45Zm1.72-2.77c.52,0,.66-.32.62-.67s-.21-.59-.73-.54l-.74.07.11,1.21Z" transform="translate(-7.91 -8.33)"/><path class="cls-6" d="M309,95.93l1.19-.11.27,3a2.1,2.1,0,0,1-4.19.39l-.27-3,1.22-.11.27,3c.06.6.37.92,1,.86s.87-.41.81-1Z" transform="translate(-7.91 -8.33)"/><path class="cls-6" d="M312.53,100.57l-.35-3.8-1.34.12-.1-1.13,3.91-.36.1,1.13-1.35.12.35,3.8Z" transform="translate(-7.91 -8.33)"/><path class="cls-6" d="M315.82,100.27l-.45-4.93L319,95l.1,1.13-2.42.22.07.81,2-.18.09,1-2,.18.08.88,2.42-.22.1,1.13Z" transform="translate(-7.91 -8.33)"/><path class="cls-6" d="M322.93,99.61l-1-1.46-.52,0,.14,1.54-1.22.11-.45-4.93,2-.18c1.3-.12,1.95.53,2,1.51a1.54,1.54,0,0,1-.78,1.61h0l1.26,1.6ZM322.08,97c.49,0,.61-.3.58-.62s-.19-.54-.68-.5l-.79.07.1,1.12Z" transform="translate(-7.91 -8.33)"/><path class="cls-6" d="M327,99.23l-.45-4.93,1.22-.11.35,3.8,2.33-.21.1,1.13Z" transform="translate(-7.91 -8.33)"/><path class="cls-6" d="M334.27,98.56l-.13-1.4-1.93.18.13,1.4-1.19.11L330.88,96a2.18,2.18,0,0,1,4.34-.4l.26,2.86ZM334,95.7c-.06-.68-.39-1-1.06-.94s-.93.44-.87,1.12l0,.41,1.93-.18Z" transform="translate(-7.91 -8.33)"/><path class="cls-6" d="M336.39,98.37l-.45-4.93,2.34-.22a1.27,1.27,0,0,1,1.57,1.16,1.15,1.15,0,0,1-.5,1.12v0a1.22,1.22,0,0,1,.93,1.13,1.31,1.31,0,0,1-1.35,1.49Zm.87-3.91.07.81.92-.08c.32,0,.43-.22.41-.44s-.13-.4-.48-.37Zm.16,1.79.08.88,1.07-.1c.35,0,.46-.24.43-.48a.43.43,0,0,0-.52-.4Z" transform="translate(-7.91 -8.33)"/><path class="cls-6" d="M344.16,97.65l-.35-3.8-1.34.12-.1-1.13,3.91-.36.1,1.13-1.35.12.35,3.8Z" transform="translate(-7.91 -8.33)"/><path class="cls-6" d="M347.44,97.35,347,92.42l1.22-.11.45,4.93Z" transform="translate(-7.91 -8.33)"/><path class="cls-6" d="M350.78,97l-1.22.11L349.27,94A1.69,1.69,0,0,1,350.86,92a1.55,1.55,0,0,1,1.42.55h0a1.54,1.54,0,0,1,1.29-.8,1.69,1.69,0,0,1,1.94,1.74l.29,3.12-1.22.11-.29-3.12c-.05-.57-.35-.75-.72-.72s-.63.26-.58.84l.29,3.12-1.22.11-.29-3.12c-.05-.57-.36-.75-.72-.72s-.63.26-.58.84Z" transform="translate(-7.91 -8.33)"/><path class="cls-6" d="M356.72,96.49l-.45-4.93,3.64-.34.1,1.13-2.42.22.07.81,2-.18.09,1-2,.18.08.88,2.42-.22.1,1.13Z" transform="translate(-7.91 -8.33)"/><rect class="cls-3" x="288.25" y="138.23" width="75.41" height="1" transform="translate(-19.27 22.17) rotate(-5.27)"/><rect class="cls-3" x="289.3" y="149.53" width="75.41" height="1" transform="translate(-20.3 22.31) rotate(-5.27)"/><rect class="cls-3" x="290.34" y="160.84" width="75.41" height="1" transform="translate(-21.34 22.46) rotate(-5.27)"/><rect class="cls-3" x="291.38" y="172.14" width="75.41" height="1" transform="translate(-22.37 22.6) rotate(-5.27)"/><rect class="cls-3" x="292.42" y="183.44" width="75.41" height="1" transform="translate(-23.4 22.74) rotate(-5.27)"/><rect class="cls-3" x="293.46" y="194.74" width="75.41" height="1" transform="translate(-24.43 22.89) rotate(-5.27)"/><rect class="cls-3" x="294.51" y="206.04" width="75.41" height="1" transform="translate(-25.47 23.03) rotate(-5.27)"/><rect class="cls-3" x="305.09" y="116.23" width="1" height="96.06" transform="translate(-21.7 20.42) rotate(-5.27)"/><rect class="cls-3" x="320.11" y="114.85" width="1" height="96.06" transform="translate(-21.51 21.79) rotate(-5.27)"/><rect class="cls-3" x="350.15" y="112.08" width="1" height="96.06" transform="translate(-21.13 24.54) rotate(-5.27)"/><rect class="cls-3" x="335.13" y="113.46" width="1" height="96.06" transform="translate(-21.32 23.17) rotate(-5.27)"/><rect class="cls-3" x="286.58" y="113.44" width="75.41" height="14.33" transform="translate(-17.62 21.95) rotate(-5.27)"/><path class="cls-6" d="M292.56,126.28l-1.35.12-.32-3.45a1.87,1.87,0,0,1,1.76-2.29,1.71,1.71,0,0,1,1.57.6h0a1.7,1.7,0,0,1,1.43-.88,1.87,1.87,0,0,1,2.14,1.93l.32,3.45-1.35.12-.32-3.45c-.06-.63-.39-.83-.8-.79s-.7.29-.64.92l.32,3.45-1.35.12-.32-3.45c-.06-.63-.4-.83-.8-.79s-.7.29-.64.92Z" transform="translate(-7.91 -8.33)"/><path class="cls-6" d="M308.82,124.78l-.39-4.2-1.48.14-.12-1.25,4.33-.4.12,1.25-1.49.14.39,4.2Z" transform="translate(-7.91 -8.33)"/><path class="cls-6" d="M326.88,117.61l1.35-.12.32,3.45a1.87,1.87,0,0,1-1.76,2.29,1.71,1.71,0,0,1-1.57-.6h0a1.7,1.7,0,0,1-1.43.88,1.87,1.87,0,0,1-2.14-1.93l-.32-3.45,1.35-.12.32,3.45c.06.63.39.83.8.79s.7-.29.64-.92l-.32-3.45,1.35-.12.32,3.45c.06.63.4.83.8.79s.7-.29.64-.92Z" transform="translate(-7.91 -8.33)"/><path class="cls-6" d="M339.43,122l-.39-4.2-1.48.14-.12-1.25,4.33-.4.12,1.25-1.49.14.39,4.2Z" transform="translate(-7.91 -8.33)"/><path class="cls-6" d="M353,120.71l-.5-5.45,4-.36.12,1.25-2.61.24.08.85,2.13-.2.11,1.17-2.13.2.2,2.18Z" transform="translate(-7.91 -8.33)"/><path class="cls-9" d="M309.63,137.82a.5.5,0,0,1-.33-.12l-2.4-2.1a.5.5,0,0,1,.66-.75l2,1.72L313,131.3a.5.5,0,1,1,.84.55L310,137.59a.5.5,0,0,1-.35.22Z" transform="translate(-7.91 -8.33)"/><path class="cls-9" d="M325.72,147.88a.5.5,0,0,1-.33-.12l-2.4-2.1a.5.5,0,0,1,.66-.75l2,1.72,3.43-5.26a.5.5,0,1,1,.84.55l-3.75,5.75a.5.5,0,0,1-.35.22Z" transform="translate(-7.91 -8.33)"/><path class="cls-9" d="M297,162a.5.5,0,0,1-.33-.12l-2.4-2.1a.5.5,0,0,1,.66-.75l2,1.72,3.43-5.26a.5.5,0,1,1,.84.55l-3.75,5.75a.5.5,0,0,1-.35.22Z" transform="translate(-7.91 -8.33)"/><path class="cls-9" d="M312.75,171.64a.5.5,0,0,1-.33-.12l-2.4-2.1a.5.5,0,0,1,.66-.75l2,1.72,3.43-5.26a.5.5,0,1,1,.84.55l-3.75,5.75a.5.5,0,0,1-.35.22Z" transform="translate(-7.91 -8.33)"/><path class="cls-9" d="M354.85,132.77a.5.5,0,0,1-.33-.12l-2.4-2.1a.5.5,0,0,1,.66-.75l2,1.72,3.43-5.26a.5.5,0,1,1,.84.55l-3.75,5.75a.5.5,0,0,1-.35.22Z" transform="translate(-7.91 -8.33)"/><path class="cls-9" d="M298.93,184.1a.5.5,0,0,1-.33-.12l-2.4-2.1a.5.5,0,0,1,.66-.75l2,1.72,3.43-5.26a.5.5,0,1,1,.84.55l-3.75,5.75a.5.5,0,0,1-.35.22Z" transform="translate(-7.91 -8.33)"/><path class="cls-9" d="M330.58,193a.5.5,0,0,1-.33-.12l-2.4-2.1a.5.5,0,0,1,.66-.75l2,1.72,3.43-5.26a.5.5,0,1,1,.84.55L331,192.79a.5.5,0,0,1-.35.22Z" transform="translate(-7.91 -8.33)"/><path class="cls-9" d="M361.29,201.13A.5.5,0,0,1,361,201l-2.4-2.1a.5.5,0,0,1,.66-.75l2,1.72,3.43-5.26a.5.5,0,1,1,.84.55l-3.75,5.75a.5.5,0,0,1-.35.22Z" transform="translate(-7.91 -8.33)"/><path class="cls-8" d="M270.09,153.68h-6.9a4.58,4.58,0,0,0-4.58,4.58v106.9l4.18,6.48,2.73-113.37A4.58,4.58,0,0,1,270.09,153.68Z" transform="translate(-7.91 -8.33)"/><path class="cls-3" d="M318.05,154.37V143.71a2.29,2.29,0,0,0-2.29-2.29H273a2.29,2.29,0,0,0-2.29,2.29v10.66" transform="translate(-7.91 -8.33)"/><path class="cls-9" d="M318.55,154.37h-1V143.71a1.79,1.79,0,0,0-1.79-1.79H273a1.79,1.79,0,0,0-1.79,1.79v10.66h-1V143.71a2.79,2.79,0,0,1,2.79-2.79h42.73a2.79,2.79,0,0,1,2.79,2.79Z" transform="translate(-7.91 -8.33)"/><path class="cls-3" d="M434.07,271.63H262.78V159a4.58,4.58,0,0,1,4.58-4.58H429.83a4.81,4.81,0,0,1,4.24,2.22Z" transform="translate(-7.91 -8.33)"/><path class="cls-9" d="M307.2,208v-12.4h4.87c3.37,0,4.87,1.84,4.87,4.36s-1.5,4.38-4.87,4.38h-1.8V208Zm4.93-6.5c1.31,0,1.71-.65,1.71-1.54s-.4-1.52-1.71-1.52h-1.86v3.05Z" transform="translate(-7.91 -8.33)"/><path class="cls-9" d="M325.19,208l-2.2-3.89h-1.31V208h-3.07v-12.4h5c3.28,0,4.74,1.78,4.74,4.25a3.86,3.86,0,0,1-2.31,3.83v0l2.77,4.28Zm-1.52-6.73c1.23,0,1.59-.61,1.59-1.42s-.36-1.4-1.59-1.4h-2v2.83Z" transform="translate(-7.91 -8.33)"/><path class="cls-9" d="M336.31,208.2a6.45,6.45,0,1,1,6.6-6.44A6.29,6.29,0,0,1,336.31,208.2Zm3.49-6.44a3.49,3.49,0,1,0-3.49,3.6A3.39,3.39,0,0,0,339.8,201.75Z" transform="translate(-7.91 -8.33)"/><path class="cls-9" d="M350.28,195.55h3.07v8c0,2.84-1.71,4.68-4.78,4.68a4.32,4.32,0,0,1-4.7-4.68v-.06h3v.06c0,1.19.53,1.84,1.73,1.84s1.69-.65,1.69-1.84Z" transform="translate(-7.91 -8.33)"/><path class="cls-9" d="M355.61,208v-12.4h9.16v2.84h-6.09v2h5v2.46h-5v2.22h6.09V208Z" transform="translate(-7.91 -8.33)"/><path class="cls-9" d="M376.08,200.25a3.28,3.28,0,0,0-3.2-2.1,3.6,3.6,0,0,0,0,7.2,3.28,3.28,0,0,0,3.2-2.1h3.24a6.45,6.45,0,1,1,0-3Z" transform="translate(-7.91 -8.33)"/><path class="cls-9" d="M383.19,208V198.4h-3.37v-2.84h9.84v2.84h-3.39V208Z" transform="translate(-7.91 -8.33)"/><path class="cls-9" d="M329.19,230.7v-9.55h-3.37V218.3h9.84v2.84h-3.39v9.55Z" transform="translate(-7.91 -8.33)"/><path class="cls-9" d="M337.44,230.7V218.3h3.07v12.4Z" transform="translate(-7.91 -8.33)"/><path class="cls-9" d="M345.84,230.7h-3.07v-7.85c0-3.32,1.93-4.8,4.44-4.8a3.88,3.88,0,0,1,3.41,1.69h0a3.86,3.86,0,0,1,3.41-1.69c2.5,0,4.44,1.48,4.44,4.8v7.85h-3.07v-7.85c0-1.44-.7-2-1.63-2s-1.63.51-1.63,2v7.85H349.1v-7.85c0-1.44-.72-2-1.63-2s-1.63.51-1.63,2Z" transform="translate(-7.91 -8.33)"/><path class="cls-9" d="M360.75,230.7V218.3h9.16v2.84h-6.09v2h5v2.46h-5v2.22h6.09v2.84Z" transform="translate(-7.91 -8.33)"/><path class="cls-9" d="M434.57,272.13H262.28V159a5.09,5.09,0,0,1,5.08-5.08H429.83a5.29,5.29,0,0,1,4.66,2.45l.08.12Zm-171.29-1H433.57V156.74a4.33,4.33,0,0,0-3.74-1.87H267.36a4.09,4.09,0,0,0-4.08,4.08Z" transform="translate(-7.91 -8.33)"/></svg>