<svg id="Layer_1" data-name="Layer 1" xmlns="http://www.w3.org/2000/svg" viewBox="0 0 292.61 292.61"><defs><style>.cls-1{fill:#f26f42;}.cls-2{fill:#e7f1f8;}.cls-3{fill:#40565b;}.cls-4{fill:#f36f42;}.cls-5{fill:#f4947a;}.cls-6{fill:#c84a27;}</style></defs><title>albert-illustration-help-center</title><path class="cls-1" d="M237.2,46c-18.91-19.8-38.86-33-59.3-39.12a94.37,94.37,0,0,0-51.36-1C91,14.94,67.24,41.32,66.06,45.74l-1-.26C66.3,41,90.37,14.07,126.3,4.85a95.34,95.34,0,0,1,51.9,1c20.6,6.21,40.7,19.46,59.73,39.39Z" transform="translate(-5.27 -1.75)"/><path class="cls-1" d="M152.67,294.36A95.75,95.75,0,0,1,125,290.23c-20.61-6.21-40.7-19.46-59.74-39.39l.72-.69c18.91,19.8,38.86,33,59.3,39.12a94.34,94.34,0,0,0,51.36,1c35.54-9.12,59.3-35.5,60.48-39.93l1,.26c-1.2,4.52-25.27,31.42-61.2,40.64A97,97,0,0,1,152.67,294.36Z" transform="translate(-5.27 -1.75)"/><path class="cls-1" d="M49,234.53c-4.52-1.2-31.42-25.27-40.64-61.2a95.34,95.34,0,0,1,1-51.9c6.21-20.61,19.46-40.7,39.39-59.74l.69.72c-19.8,18.91-33,38.86-39.12,59.3a94.36,94.36,0,0,0-1,51.36c9.12,35.55,35.5,59.3,39.93,60.48Z" transform="translate(-5.27 -1.75)"/><path class="cls-1" d="M254.36,234.41l-.69-.72c19.8-18.91,33-38.86,39.12-59.3a94.35,94.35,0,0,0,1-51.36c-9.12-35.55-35.5-59.3-39.93-60.48l.26-1c4.52,1.2,31.42,25.28,40.64,61.2a95.34,95.34,0,0,1-1,51.9C287.54,195.28,274.29,215.38,254.36,234.41Z" transform="translate(-5.27 -1.75)"/><path class="cls-2" d="M233.14,45.67h20.31A9.34,9.34,0,0,1,262.79,55v8.56a0,0,0,0,1,0,0h-39a0,0,0,0,1,0,0V55A9.34,9.34,0,0,1,233.14,45.67Z" transform="translate(100.77 -155.29) rotate(43.95)"/><path class="cls-3" d="M251.12,75.1a.5.5,0,0,1-.35-.14L222.69,47.9a.5.5,0,0,1,0-.71L228.62,41a9.84,9.84,0,0,1,13.92-.26l14.62,14.1a9.84,9.84,0,0,1,.26,13.92l-5.94,6.17a.5.5,0,0,1-.35.15ZM223.75,47.53,251.1,73.9l5.6-5.81a8.84,8.84,0,0,0-.23-12.5l-14.62-14.1a8.84,8.84,0,0,0-12.5.23Z" transform="translate(-5.27 -1.75)"/><path class="cls-2" d="M38.23,228.37h39a0,0,0,0,1,0,0v8.56a9.34,9.34,0,0,1-9.34,9.34H47.57a9.34,9.34,0,0,1-9.34-9.34v-8.56A0,0,0,0,1,38.23,228.37Z" transform="translate(183.27 29.31) rotate(46.05)"/><path class="cls-3" d="M65.06,254.2a9.81,9.81,0,0,1-7.09-3l-14.1-14.62a9.85,9.85,0,0,1,.26-13.92l6.17-5.94a.62.62,0,0,1,.36-.14.5.5,0,0,1,.35.15L78.06,244.8a.5.5,0,0,1,.14.36.5.5,0,0,1-.15.35l-6.17,5.94A9.81,9.81,0,0,1,65.06,254.2ZM50.63,217.78l-5.81,5.6a8.85,8.85,0,0,0-.23,12.5l14.1,14.63a8.85,8.85,0,0,0,12.5.23l5.81-5.6Z" transform="translate(-5.27 -1.75)"/><path class="cls-2" d="M49,44.51H69.32a9.34,9.34,0,0,1,9.34,9.34v8.56a0,0,0,0,1,0,0h-39a0,0,0,0,1,0,0V53.85A9.34,9.34,0,0,1,49,44.51Z" transform="translate(-25.66 57.21) rotate(-46.05)"/><path class="cls-3" d="M52.08,74.22a.5.5,0,0,1-.35-.14l-6.17-5.94a9.85,9.85,0,0,1-.26-13.92L59.4,39.59a9.84,9.84,0,0,1,13.92-.26l6.17,5.94a.5.5,0,0,1,0,.71L52.44,74.07A.5.5,0,0,1,52.08,74.22ZM66.49,37.58h-.17a8.78,8.78,0,0,0-6.2,2.7L46,54.91a8.85,8.85,0,0,0,.23,12.5L52.06,73,78.43,45.65l-5.81-5.6A8.78,8.78,0,0,0,66.49,37.58Z" transform="translate(-5.27 -1.75)"/><path class="cls-2" d="M222.36,230.08h39a0,0,0,0,1,0,0v8.56A9.34,9.34,0,0,1,252,248H231.7a9.34,9.34,0,0,1-9.34-9.34v-8.56A0,0,0,0,1,222.36,230.08Z" transform="translate(-103.43 233.03) rotate(-43.95)"/><path class="cls-3" d="M234.28,255.64a9.81,9.81,0,0,1-7.09-3l-5.94-6.17a.5.5,0,0,1,0-.71l28.08-27.06a.5.5,0,0,1,.71,0l5.94,6.17a9.85,9.85,0,0,1-.26,13.92l-14.62,14.1A9.81,9.81,0,0,1,234.28,255.64Zm-12-9.51,5.6,5.81a8.85,8.85,0,0,0,12.5.23L255,238.07a8.85,8.85,0,0,0,.23-12.5l-5.6-5.81Z" transform="translate(-5.27 -1.75)"/><path class="cls-2" d="M276.05,182.68l.15-.55a129.91,129.91,0,0,0,.54-66l-.3-.16-12,3.09a117.09,117.09,0,0,1-.58,60.23l11.92,3.31h0ZM186.36,23.85a129.89,129.89,0,0,0-66.76-.63l.06.24,3.09,12A117.09,117.09,0,0,1,183,36l3.31-11.91v0ZM27.53,113.55a129.89,129.89,0,0,0-.63,66.76l.24-.06,12-3.08a117.1,117.1,0,0,1,.58-60.23l-11.91-3.31h0Zm89.71,158.83A129.89,129.89,0,0,0,184,273l-.06-.24-3.09-12a117.1,117.1,0,0,1-60.23-.57l-3.31,11.92v0Z" transform="translate(-5.27 -1.75)"/><path class="cls-3" d="M151.79,277.56A129.45,129.45,0,1,1,281.24,148.11,129.59,129.59,0,0,1,151.79,277.56Zm0-257.89A128.45,128.45,0,1,0,280.24,148.11,128.59,128.59,0,0,0,151.79,19.66Zm0,193.16a64.72,64.72,0,1,1,64.72-64.72A64.79,64.79,0,0,1,151.79,212.83Zm0-128.43a63.72,63.72,0,1,0,63.72,63.72A63.79,63.79,0,0,0,151.79,84.39Z" transform="translate(-5.27 -1.75)"/><g id="_Group_" data-name="&lt;Group&gt;"><path class="cls-4" d="M186.3,24A128.6,128.6,0,0,1,276.45,116L214.12,132a64.32,64.32,0,0,0-45.08-46l17.24-62Z" transform="translate(-5.27 -1.75)"/><path class="cls-4" d="M105.84,193.21a64.58,64.58,0,0,0,28.7,16.93l-17.24,62v0a128.61,128.61,0,0,1-90.15-91.93l62.33-16.06A64.06,64.06,0,0,0,105.84,193.21Z" transform="translate(-5.27 -1.75)"/><path class="cls-4" d="M275.82,182.61h0a128.59,128.59,0,0,1-91.92,90.15l-16.07-62.33a64.3,64.3,0,0,0,46-45.07Z" transform="translate(-5.27 -1.75)"/><path class="cls-4" d="M119.66,23.46l16.07,62.33a64.32,64.32,0,0,0-46,45.08l-62-17.25h0A128.6,128.6,0,0,1,119.66,23.46Z" transform="translate(-5.27 -1.75)"/></g><path class="cls-5" d="M197.75,103a64.17,64.17,0,0,1,16.37,29l50.35-13A116.55,116.55,0,0,0,183,36L169,86.08A64.59,64.59,0,0,1,197.75,103Z" transform="translate(-5.27 -1.75)"/><path class="cls-5" d="M105.84,193.21a64.06,64.06,0,0,1-16.37-29l-50.36,13a116.55,116.55,0,0,0,81.51,83.06l13.93-50.08A64.58,64.58,0,0,1,105.84,193.21Z" transform="translate(-5.27 -1.75)"/><path class="cls-5" d="M213.83,165.37a64.3,64.3,0,0,1-46,45.07l13,50.36a116.55,116.55,0,0,0,83.05-81.5Z" transform="translate(-5.27 -1.75)"/><path class="cls-5" d="M39.68,116.93l50.08,13.93a64.32,64.32,0,0,1,46-45.08l-13-50.36A116.55,116.55,0,0,0,39.68,116.93Z" transform="translate(-5.27 -1.75)"/><path class="cls-4" d="M89.47,164.18l-23.89,6.16a89.17,89.17,0,0,0,62.36,63.54l6.6-23.74a64.3,64.3,0,0,1-45.08-46Z" transform="translate(-5.27 -1.75)"/><path class="cls-4" d="M66,124.26l23.74,6.61a64.32,64.32,0,0,1,46-45.08L129.57,61.9A89.17,89.17,0,0,0,66,124.26Z" transform="translate(-5.27 -1.75)"/><path class="cls-4" d="M237.57,172l-23.74-6.6a64.3,64.3,0,0,1-46,45.07L174,234.32A89.17,89.17,0,0,0,237.57,172Z" transform="translate(-5.27 -1.75)"/><path class="cls-4" d="M175.65,62.34,169,86.08a64.32,64.32,0,0,1,45.08,46L238,125.89A89.17,89.17,0,0,0,175.65,62.34Z" transform="translate(-5.27 -1.75)"/><g id="_Group_2" data-name="&lt;Group&gt;"><path class="cls-6" d="M214.13,132.54a.5.5,0,0,1-.48-.37,63.82,63.82,0,0,0-44.73-45.61.5.5,0,0,1-.35-.62l17.24-62a.55.55,0,0,1,.24-.32.53.53,0,0,1,.39-.07,129.68,129.68,0,0,1,90.5,92.28.5.5,0,0,1-.36.61l-62.32,16.07ZM169.66,85.74a64.82,64.82,0,0,1,44.82,45.7l61.35-15.82a128.68,128.68,0,0,0-89.19-91Z" transform="translate(-5.27 -1.75)"/><path class="cls-6" d="M117.26,272.67h-.1a129.68,129.68,0,0,1-90.5-92.29.5.5,0,0,1,.36-.61L89.34,163.7a.5.5,0,0,1,.61.36,63.84,63.84,0,0,0,16.24,28.8h0a64.09,64.09,0,0,0,28.48,16.8.5.5,0,0,1,.35.62l-17.24,62a.55.55,0,0,1-.24.32A.59.59,0,0,1,117.26,272.67ZM27.75,180.61a128.69,128.69,0,0,0,89.19,91l17-61.08a64.79,64.79,0,0,1-44.82-45.69Z" transform="translate(-5.27 -1.75)"/><path class="cls-6" d="M183.94,273.26a.5.5,0,0,1-.48-.37l-16.07-62.33a.5.5,0,0,1,.36-.61,63.8,63.8,0,0,0,45.61-44.72.5.5,0,0,1,.62-.35l62,17.24H276a.5.5,0,0,1,.33.61,129.66,129.66,0,0,1-92.28,90.5Zm-15.46-62.47,15.82,61.36A128.67,128.67,0,0,0,275.24,183l-61.06-17a64.8,64.8,0,0,1-45.7,44.81Zm107.34-28.18h0Z" transform="translate(-5.27 -1.75)"/><path class="cls-6" d="M89.76,131.36l-.13,0-62-17.25a.55.55,0,0,1-.32-.24.52.52,0,0,1-.06-.39A129.66,129.66,0,0,1,119.53,23a.5.5,0,0,1,.61.36l16.07,62.33a.5.5,0,0,1-.36.61A63.82,63.82,0,0,0,90.24,131,.5.5,0,0,1,89.76,131.36ZM28.35,113.26l61.06,17a64.82,64.82,0,0,1,45.7-44.82L119.3,24.07A128.67,128.67,0,0,0,28.35,113.26Z" transform="translate(-5.27 -1.75)"/></g></svg>