<svg id="Layer_3" data-name="Layer 3" xmlns="http://www.w3.org/2000/svg" viewBox="0 0 280 280"><defs><style>.cls-1,.cls-2,.cls-3{fill:#d0e4f1;}.cls-1,.cls-2{stroke:#d0e4f1;}.cls-1,.cls-2,.cls-4,.cls-5,.cls-6,.cls-7{stroke-linecap:round;stroke-linejoin:round;}.cls-2{opacity:0.5;}.cls-4,.cls-7{fill:none;}.cls-4{stroke:#a1c2d8;}.cls-5{fill:#fff;stroke:#19bc9c;}.cls-6{fill:#19bc9c;}.cls-6,.cls-7{stroke:#109995;}</style></defs><title>Developed by experts</title><polygon class="cls-1" points="96.1 165.61 96.1 88.66 93.41 88.66 87.41 94.66 87.41 174.61 183.31 174.61 189.31 168.61 189.31 165.61 96.1 165.61"/><path class="cls-2" d="M231.33,190.68H205.9V123.13h-.29l-5.11,5.11v68.1h30.94C231.42,193.79,231.38,191.23,231.33,190.68Z"/><path class="cls-2" d="M109,214.2V183.66h-2l-4.46,4.46v25.76Q105.82,214.1,109,214.2Z"/><path class="cls-2" d="M48.4,102.15q0,3.13-.12,6.25H66.63l4.17-4.17v-2.08Z"/><path class="cls-2" d="M48.4,199.13q0,3.13-.12,6.25H70.63l4.17-4.17v-2.08Z"/><path class="cls-2" d="M114,72.49V51.7q-2.28-.05-4.55-.14V77.2h56.26l3.14-3.14V72.49Z"/><path class="cls-2" d="M232.21,94.66H203.15V60.21c-2.9.13-1.79.24-4.69.35V99.66h34.44C232.74,96.66,232.45,97.66,232.21,94.66Z"/><path class="cls-3" d="M116.83,101.37c2.16-2.19,4.3-4.4,6.44-6.63H99.6v24C105.33,113,111.1,107.18,116.83,101.37Z"/><path class="cls-3" d="M183.31,121V107.71c-21.18,18.25-42,36.91-63.43,54.9h15C150.45,148.07,166.68,134.32,183.31,121Z"/><path class="cls-3" d="M149.65,162.61h33.66V133.77Q166.11,147.76,149.65,162.61Z"/><path class="cls-3" d="M101.08,145.62c9.4-9.09,19.16-17.79,28.68-26.75,8.59-8.09,17.15-16.23,25.93-24.12H137c-4.85,5-9.59,10.13-14.45,15-7.67,7.76-15.4,15.47-23,23.31v14Z"/><path class="cls-4" d="M231.69,123.29H206.15v67.13h25.58"/><path class="cls-4" d="M231.94,128.33H211.19v57.06h20.53"/><line class="cls-4" x1="206.15" y1="123.29" x2="211.19" y2="128.33"/><line class="cls-4" x1="206.15" y1="190.42" x2="211.19" y2="185.38"/><path class="cls-4" d="M114.35,51.55V72.1h54V51.52"/><path class="cls-4" d="M118.4,51.35V68h45.91V51.52"/><line class="cls-4" x1="114.35" y1="72.1" x2="118.4" y2="68.05"/><line class="cls-4" x1="168.37" y1="72.1" x2="164.31" y2="68.05"/><path class="cls-4" d="M173.84,213.37V183.66h-65v29.75"/><path class="cls-4" d="M169,213.61V188.53H113.76V213.4"/><line class="cls-4" x1="173.84" y1="183.66" x2="168.96" y2="188.53"/><line class="cls-4" x1="108.88" y1="183.66" x2="113.76" y2="188.53"/><path class="cls-4" d="M49.26,199.13H74.8V132H49.22"/><path class="cls-4" d="M49,194.09H69.76V137H49.23"/><line class="cls-4" x1="74.8" y1="199.13" x2="69.76" y2="194.09"/><line class="cls-4" x1="74.8" y1="132" x2="69.76" y2="137.04"/><path class="cls-4" d="M203.15,59.56V94.66h28.58"/><path class="cls-4" d="M208.19,59.56V89.62h23.53"/><line class="cls-4" x1="203.15" y1="94.66" x2="208.19" y2="89.62"/><path class="cls-4" d="M48.71,101.4H70.8V62.82"/><path class="cls-4" d="M48.71,96.36H65.76V62.83"/><line class="cls-4" x1="70.8" y1="101.4" x2="65.76" y2="96.36"/><path class="cls-5" d="M143.31,124.5a2,2,0,0,1-2-1.47,2,2,0,0,1-2,1.47h-6.33a2,2,0,0,1-2-2V119.3a2,2,0,0,1,2-2h.48l3.14-8.07a2,2,0,0,1-.53-1.37v-3.17a2,2,0,0,1,2-2h6.33a2,2,0,0,1,2,2v3.17a2,2,0,0,1-.53,1.37l3.14,8.07h.48a2,2,0,0,1,2,2v3.17a2,2,0,0,1-2,2Z"/><path class="cls-6" d="M147.78,119.3l-4.46-11.48h1.21v-3.17h-6.33v3.17h1.21l-4.46,11.48h-1.87v3.17h6.33V119.3H138l.78-2h5.14l.78,2h-1.39v3.17h6.33V119.3ZM140,114.12l1.33-3.43,1.33,3.43Z"/><line class="cls-5" x1="141.36" y1="123.03" x2="141.36" y2="119.26"/><path class="cls-7" d="M118.29,101.67a24.51,24.51,0,0,0-.41,3.95,22.86,22.86,0,0,0,1.37,8.58,21.9,21.9,0,0,0,6.69,9.34c.54.44.86.67.86.67"/><path class="cls-6" d="M112.8,104a2.56,2.56,0,0,0,1.71,1.11,2.89,2.89,0,0,0,1.83-.84,2.86,2.86,0,0,0-1.68-1.11,2,2,0,0,0-1.3.37A3,3,0,0,0,112.8,104Z"/><path class="cls-6" d="M112.81,108.77a2.54,2.54,0,0,0,1.87.84,2.9,2.9,0,0,0,1.66-1.14,4,4,0,0,0-.55-.43,2.27,2.27,0,0,0-1.28-.41,2,2,0,0,0-1.22.58A2.87,2.87,0,0,0,112.81,108.77Z"/><path class="cls-6" d="M113.64,113.57a2.53,2.53,0,0,0,2,.5,2.91,2.91,0,0,0,1.44-1.42,4.14,4.14,0,0,0-.62-.33,2.27,2.27,0,0,0-1.33-.19,2,2,0,0,0-1.1.78A2.88,2.88,0,0,0,113.64,113.57Z"/><path class="cls-6" d="M115.34,118.18a2.54,2.54,0,0,0,2,.13,2.89,2.89,0,0,0,1.15-1.66,2.88,2.88,0,0,0-2-.15C115.62,116.88,115.34,118.18,115.34,118.18Z"/><path class="cls-6" d="M117.84,122.39a2.79,2.79,0,0,0,.73.12,2,2,0,0,0,1.31-.36,2.26,2.26,0,0,0,.7-1.15,4.37,4.37,0,0,0,.14-.69,2.91,2.91,0,0,0-2,.22A2.53,2.53,0,0,0,117.84,122.39Z"/><path class="cls-6" d="M121,126.08a2.52,2.52,0,0,0,2-.6,2.92,2.92,0,0,0,.49-2,4.32,4.32,0,0,0-.7,0,2.26,2.26,0,0,0-1.24.53,2,2,0,0,0-.54,1.24A2.8,2.8,0,0,0,121,126.08Z"/><path class="cls-6" d="M123.09,104.77a3.21,3.21,0,0,1-1.81.61,2.69,2.69,0,0,1-1.72-.89,2.72,2.72,0,0,1,1.84-.61A3.17,3.17,0,0,1,123.09,104.77Z"/><path class="cls-6" d="M123.18,108.67a3.72,3.72,0,0,1-.47.41,2.81,2.81,0,0,1-1.18.55,2.37,2.37,0,0,1-1.3-.18,2.71,2.71,0,0,1-.57-.32,2.71,2.71,0,0,1,.47-.46,2.37,2.37,0,0,1,1.21-.5,2.79,2.79,0,0,1,1.28.23A3.79,3.79,0,0,1,123.18,108.67Z"/><path class="cls-6" d="M124.07,112.35a4.58,4.58,0,0,1-.37.49,2.87,2.87,0,0,1-1,.79,2.37,2.37,0,0,1-1.3.12,2.45,2.45,0,0,1-.62-.18,2.77,2.77,0,0,1,.36-.54,2.37,2.37,0,0,1,1.07-.75,2.88,2.88,0,0,1,1.3-.06A3.67,3.67,0,0,1,124.07,112.35Z"/><path class="cls-6" d="M125.77,115.72a3.89,3.89,0,0,1-.25.57,2.82,2.82,0,0,1-.82,1,2.38,2.38,0,0,1-1.25.41,2.64,2.64,0,0,1-.65,0,2.78,2.78,0,0,1,.22-.61,2.37,2.37,0,0,1,.87-1,2.83,2.83,0,0,1,1.25-.35A3.64,3.64,0,0,1,125.77,115.72Z"/><path class="cls-6" d="M128.19,118.64a3.35,3.35,0,0,1-.69,1.77,2.67,2.67,0,0,1-1.77.78,2.49,2.49,0,0,1,.08-.65,2.36,2.36,0,0,1,.63-1.15,2.85,2.85,0,0,1,1.14-.62A4.33,4.33,0,0,1,128.19,118.64Z"/><path class="cls-7" d="M164.42,101.67a24.52,24.52,0,0,1,.41,3.95,22.86,22.86,0,0,1-1.37,8.58,21.9,21.9,0,0,1-6.69,9.34c-.54.44-.86.67-.86.67"/><path class="cls-6" d="M169.92,104a2.56,2.56,0,0,1-1.71,1.11,2.89,2.89,0,0,1-1.83-.84,2.86,2.86,0,0,1,1.68-1.11,2,2,0,0,1,1.3.37A3,3,0,0,1,169.92,104Z"/><path class="cls-6" d="M169.9,108.77a2.54,2.54,0,0,1-1.87.84,2.9,2.9,0,0,1-1.66-1.14,4,4,0,0,1,.55-.43,2.27,2.27,0,0,1,1.28-.41,2,2,0,0,1,1.22.58A2.87,2.87,0,0,1,169.9,108.77Z"/><path class="cls-6" d="M169.07,113.57a2.53,2.53,0,0,1-2,.5,2.91,2.91,0,0,1-1.44-1.42,4.14,4.14,0,0,1,.62-.33,2.27,2.27,0,0,1,1.33-.19,2,2,0,0,1,1.1.78A2.88,2.88,0,0,1,169.07,113.57Z"/><path class="cls-6" d="M167.38,118.18a2.54,2.54,0,0,1-2,.13,2.89,2.89,0,0,1-1.15-1.66,2.88,2.88,0,0,1,2-.15C167.1,116.88,167.38,118.18,167.38,118.18Z"/><path class="cls-6" d="M164.88,122.39a2.79,2.79,0,0,1-.73.12,2,2,0,0,1-1.31-.36,2.26,2.26,0,0,1-.7-1.15,4.37,4.37,0,0,1-.14-.69,2.91,2.91,0,0,1,2,.22A2.53,2.53,0,0,1,164.88,122.39Z"/><path class="cls-6" d="M161.68,126.08a2.52,2.52,0,0,1-2-.6,2.92,2.92,0,0,1-.49-2,4.32,4.32,0,0,1,.7,0,2.26,2.26,0,0,1,1.24.53,2,2,0,0,1,.54,1.24A2.8,2.8,0,0,1,161.68,126.08Z"/><path class="cls-6" d="M159.63,104.77a3.21,3.21,0,0,0,1.81.61,2.69,2.69,0,0,0,1.72-.89,2.72,2.72,0,0,0-1.84-.61A3.17,3.17,0,0,0,159.63,104.77Z"/><path class="cls-6" d="M159.54,108.67a3.72,3.72,0,0,0,.47.41,2.81,2.81,0,0,0,1.18.55,2.37,2.37,0,0,0,1.3-.18,2.71,2.71,0,0,0,.57-.32,2.71,2.71,0,0,0-.47-.46,2.37,2.37,0,0,0-1.21-.5,2.79,2.79,0,0,0-1.28.23A3.79,3.79,0,0,0,159.54,108.67Z"/><path class="cls-6" d="M158.64,112.35a4.58,4.58,0,0,0,.37.49,2.87,2.87,0,0,0,1,.79,2.37,2.37,0,0,0,1.3.12,2.45,2.45,0,0,0,.62-.18,2.77,2.77,0,0,0-.36-.54,2.37,2.37,0,0,0-1.07-.75,2.88,2.88,0,0,0-1.3-.06A3.67,3.67,0,0,0,158.64,112.35Z"/><path class="cls-6" d="M156.94,115.72a3.89,3.89,0,0,0,.25.57,2.82,2.82,0,0,0,.82,1,2.38,2.38,0,0,0,1.25.41,2.64,2.64,0,0,0,.65,0,2.77,2.77,0,0,0-.22-.61,2.37,2.37,0,0,0-.87-1,2.83,2.83,0,0,0-1.25-.35A3.64,3.64,0,0,0,156.94,115.72Z"/><path class="cls-6" d="M154.52,118.64a3.35,3.35,0,0,0,.69,1.77,2.67,2.67,0,0,0,1.77.78,2.49,2.49,0,0,0-.08-.65,2.37,2.37,0,0,0-.63-1.15,2.85,2.85,0,0,0-1.14-.62A4.33,4.33,0,0,0,154.52,118.64Z"/><path class="cls-4" d="M151.24,140.23H158"/><path class="cls-4" d="M139.32,140.23H147"/><path class="cls-4" d="M125,140.23h10.08"/><path class="cls-4" d="M144.38,136.5h19.16"/><path class="cls-4" d="M127.78,136.5h14.14"/><path class="cls-4" d="M119.18,136.5H125"/><path class="cls-4" d="M151.24,132.77H158"/><path class="cls-4" d="M139.32,132.77H147"/><path class="cls-4" d="M125,132.77h10.08"/><path class="cls-6" d="M93.41,88.66v80h95.9v-80Zm89.9,74H99.41v-68h83.9Z"/><line class="cls-7" x1="93.41" y1="88.66" x2="99.41" y2="94.66"/><line class="cls-7" x1="189.31" y1="88.66" x2="183.31" y2="94.66"/><line class="cls-7" x1="189.31" y1="168.61" x2="183.31" y2="162.61"/><line class="cls-7" x1="93.41" y1="168.61" x2="99.41" y2="162.61"/><ellipse class="cls-4" cx="110.55" cy="152.36" rx="3.91" ry="4.86"/><line class="cls-4" x1="108.24" y1="153.06" x2="112.81" y2="153.06"/><path class="cls-4" d="M112.52,150.8v.5"/><path class="cls-4" d="M108.52,150.8v.5"/><path class="cls-4" d="M110.52,149.61v1.69"/><path class="cls-4" d="M109.65,154.83h1.74"/><line class="cls-4" x1="117.21" y1="150" x2="118.2" y2="150"/><line class="cls-4" x1="120.31" y1="150" x2="125.47" y2="150"/><line class="cls-4" x1="117.12" y1="152.41" x2="120.61" y2="152.41"/><line class="cls-4" x1="122.61" y1="152.41" x2="126.56" y2="152.41"/><line class="cls-4" x1="117.04" y1="154.73" x2="122.8" y2="154.73"/><line class="cls-4" x1="138.41" y1="150.96" x2="144.31" y2="150.96"/><line class="cls-4" x1="135.28" y1="154.47" x2="147.44" y2="154.47"/><path class="cls-4" d="M157.72,149.12a48.07,48.07,0,0,1,.53,7.26"/><path class="cls-4" d="M152.88,149.89a10,10,0,0,1,3.13-3.43,5.52,5.52,0,0,1,4.48-.74,2.53,2.53,0,0,1,.8.39,2.32,2.32,0,0,1,.82,1.79,5.5,5.5,0,0,1-.4,2,10.88,10.88,0,0,1-1.81,3.35,6,6,0,0,1-3.15,2.06.75.75,0,0,1-.58,0,.7.7,0,0,1-.22-.68,2.49,2.49,0,0,1,4.19-1.54,9.25,9.25,0,0,1,1.13,1.63,2.14,2.14,0,0,0,1.58,1.08c1.13,0,1.89-1.35,3-1.41.78,0,1.42.55,2.11.91a4,4,0,0,0,4.78-.93"/><path class="cls-4" d="M59.92,170.21h3.37"/><path class="cls-4" d="M54,170.21h3.79"/><path class="cls-4" d="M49.4,170.21h2.53"/><path class="cls-4" d="M59,166.63h5.9"/><path class="cls-4" d="M49.4,166.63h7.53"/><path class="cls-4" d="M54.48,163h5.77"/><path class="cls-4" d="M49.4,163h3"/><ellipse class="cls-4" cx="55.19" cy="144.8" rx="2.78" ry="3.43"/><path class="cls-4" d="M60.1,144.2h2.42"/><line class="cls-4" x1="60.1" y1="146.06" x2="61.77" y2="146.06"/><line class="cls-4" x1="60.1" y1="147.82" x2="66.33" y2="147.82"/><path class="cls-4" d="M125.32,193a8.58,8.58,0,0,1-.63,3.82,4.82,4.82,0,0,1-2.79,2.89,4.82,4.82,0,0,1-2.79-2.89,8.58,8.58,0,0,1-.63-3.82Z"/><line class="cls-4" x1="118.88" y1="195.96" x2="124.92" y2="195.96"/><line class="cls-4" x1="121.94" y1="193.2" x2="121.94" y2="199.44"/><line class="cls-4" x1="128.85" y1="192.7" x2="128.85" y2="199.79"/><path class="cls-4" d="M131.19,195.11h3.47"/><line class="cls-4" x1="136.99" y1="195.11" x2="143.03" y2="195.11"/><line class="cls-4" x1="131.19" y1="197.37" x2="139.48" y2="197.37"/><path class="cls-4" d="M148.33,211.25a22.4,22.4,0,0,0,4.54-7.56c.36-1,.58-2.29-.22-3a1.88,1.88,0,0,0-2.48.26,3.86,3.86,0,0,0-.92,2.53,8.67,8.67,0,0,0,2.24,6.26,2.6,2.6,0,0,0,1.75,1c.69,0,1.4-.68,1.16-1.33a2.25,2.25,0,0,0,2.89,1,1.6,1.6,0,0,1,.59-.22,1.44,1.44,0,0,1,.67.23,3.2,3.2,0,0,0,3.57-.61"/><path class="cls-4" d="M154.25,207.22h.12"/><path class="cls-4" d="M150.85,213.18h13"/><path class="cls-4" d="M218.2,141.85a1.45,1.45,0,0,0-1.17,1.59,2,2,0,0,0,.42,1.24,1.56,1.56,0,0,0,1.24.58,2.48,2.48,0,0,0,1.75-1.31c1.74-2.51,3.33-5.1,4.92-7.69v9"/><line class="cls-4" x1="226.84" y1="145.27" x2="223.79" y2="145.27"/><line class="cls-4" x1="225.03" y1="141.8" x2="221.99" y2="141.8"/><line class="cls-4" x1="217.03" y1="155.56" x2="227.36" y2="155.56"/><line class="cls-4" x1="217.03" y1="159.25" x2="220.46" y2="159.25"/><line class="cls-4" x1="217.03" y1="162.94" x2="226.65" y2="162.94"/><line class="cls-4" x1="217.03" y1="166.63" x2="222.52" y2="166.63"/><line class="cls-4" x1="217.03" y1="170.31" x2="219.43" y2="170.31"/><line class="cls-4" x1="213.81" y1="83.12" x2="225.37" y2="83.12"/><line class="cls-4" x1="213.81" y1="79.45" x2="219.07" y2="79.45"/><line class="cls-4" x1="213.81" y1="75.77" x2="217.38" y2="75.77"/><line class="cls-4" x1="138" y1="61.89" x2="144.72" y2="61.89"/><line class="cls-4" x1="132.72" y1="59.16" x2="149.99" y2="59.16"/><line class="cls-4" x1="135.35" y1="56.22" x2="147.36" y2="56.22"/></svg>