<svg width="208" height="159" viewBox="0 0 208 159" fill="none" xmlns="http://www.w3.org/2000/svg">
<path d="M151.97 36.13H79.26C78.6083 36.13 78.08 36.6583 78.08 37.31V141.74C78.08 142.392 78.6083 142.92 79.26 142.92H151.97C152.622 142.92 153.15 142.392 153.15 141.74V37.31C153.15 36.6583 152.622 36.13 151.97 36.13Z" fill="#D0E4F1" stroke="#D0E4F1" stroke-linecap="round" stroke-linejoin="round"/>
<path d="M154.51 34.14H81.8C81.1483 34.14 80.62 34.6683 80.62 35.32V139.75C80.62 140.402 81.1483 140.93 81.8 140.93H154.51C155.162 140.93 155.69 140.402 155.69 139.75V35.32C155.69 34.6683 155.162 34.14 154.51 34.14Z" fill="white" stroke="#3F555A" stroke-linecap="round" stroke-linejoin="round"/>
<path d="M157.51 31.14H84.8C84.1483 31.14 83.62 31.6683 83.62 32.32V136.75C83.62 137.402 84.1483 137.93 84.8 137.93H157.51C158.162 137.93 158.69 137.402 158.69 136.75V32.32C158.69 31.6683 158.162 31.14 157.51 31.14Z" fill="#D0E4F1" stroke="#D0E4F1" stroke-linecap="round" stroke-linejoin="round"/>
<path d="M117.97 66.05V67.66" stroke="#D0E4F1" stroke-linecap="round" stroke-linejoin="round"/>
<path d="M117.97 66.05H91.4399V39.51" fill="#D0E4F1"/>
<path d="M117.97 66.05H91.4399V39.51" stroke="#D0E4F1" stroke-linecap="round" stroke-linejoin="round"/>
<path d="M91.4399 66.05H89.8199" stroke="#D0E4F1" stroke-linecap="round" stroke-linejoin="round"/>
<path d="M91.4399 62.73H89.8199" stroke="#D0E4F1" stroke-linecap="round" stroke-linejoin="round"/>
<path d="M91.4399 59.41H89.8199" stroke="#D0E4F1" stroke-linecap="round" stroke-linejoin="round"/>
<path d="M91.4399 56.09H89.8199" stroke="#D0E4F1" stroke-linecap="round" stroke-linejoin="round"/>
<path d="M91.4399 52.78H89.8199" stroke="#D0E4F1" stroke-linecap="round" stroke-linejoin="round"/>
<path d="M91.4399 49.46H89.8199" stroke="#D0E4F1" stroke-linecap="round" stroke-linejoin="round"/>
<path d="M91.4399 46.14H89.8199" stroke="#D0E4F1" stroke-linecap="round" stroke-linejoin="round"/>
<path d="M91.4399 42.82H89.8199" stroke="#D0E4F1" stroke-linecap="round" stroke-linejoin="round"/>
<path d="M91.4399 39.51H89.8199" stroke="#D0E4F1" stroke-linecap="round" stroke-linejoin="round"/>
<path d="M91.4399 66.05V67.66" stroke="#D0E4F1" stroke-linecap="round" stroke-linejoin="round"/>
<path d="M94.75 66.05V67.66" stroke="#D0E4F1" stroke-linecap="round" stroke-linejoin="round"/>
<path d="M98.0701 66.05V67.66" stroke="#D0E4F1" stroke-linecap="round" stroke-linejoin="round"/>
<path d="M101.39 66.05V67.66" stroke="#D0E4F1" stroke-linecap="round" stroke-linejoin="round"/>
<path d="M104.71 66.05V67.66" stroke="#D0E4F1" stroke-linecap="round" stroke-linejoin="round"/>
<path d="M108.02 66.05V67.66" stroke="#D0E4F1" stroke-linecap="round" stroke-linejoin="round"/>
<path d="M111.34 66.05V67.66" stroke="#D0E4F1" stroke-linecap="round" stroke-linejoin="round"/>
<path d="M114.66 66.05V67.66" stroke="#D0E4F1" stroke-linecap="round" stroke-linejoin="round"/>
<path d="M114.66 62.73C114.66 62.73 112.38 42.83 104.66 42.83C96.94 42.83 94.66 62.73 94.66 62.73" fill="#D0E4F1"/>
<path d="M114.66 62.73C114.66 62.73 112.38 42.83 104.66 42.83C96.94 42.83 94.66 62.73 94.66 62.73" stroke="#D0E4F1" stroke-linecap="round" stroke-linejoin="round"/>
<path d="M114.66 42.82C114.66 42.82 112.38 62.72 104.66 62.72C96.94 62.72 94.66 42.82 94.66 42.82" fill="#D0E4F1"/>
<path d="M114.66 42.82C114.66 42.82 112.38 62.72 104.66 62.72C96.94 62.72 94.66 42.82 94.66 42.82" stroke="#D0E4F1" stroke-linecap="round" stroke-linejoin="round"/>
<path d="M134.06 52.55H148.49Z" fill="#D0E4F1"/>
<path d="M134.06 52.55H148.49" stroke="#D0E4F1" stroke-linecap="round" stroke-linejoin="round"/>
<path d="M126.34 52.55H130.5Z" fill="#D0E4F1"/>
<path d="M126.34 52.55H130.5" stroke="#D0E4F1" stroke-linecap="round" stroke-linejoin="round"/>
<path d="M137.84 57H144.5Z" fill="#D0E4F1"/>
<path d="M137.84 57H144.5" stroke="#D0E4F1" stroke-linecap="round" stroke-linejoin="round"/>
<path d="M126.34 57H134.82Z" fill="#D0E4F1"/>
<path d="M126.34 57H134.82" stroke="#D0E4F1" stroke-linecap="round" stroke-linejoin="round"/>
<path d="M141.21 61.55H146Z" fill="#D0E4F1"/>
<path d="M141.21 61.55H146" stroke="#D0E4F1" stroke-linecap="round" stroke-linejoin="round"/>
<path d="M132.88 61.55H138.23Z" fill="#D0E4F1"/>
<path d="M132.88 61.55H138.23" stroke="#D0E4F1" stroke-linecap="round" stroke-linejoin="round"/>
<path d="M126.34 61.55H129.91Z" fill="#D0E4F1"/>
<path d="M126.34 61.55H129.91" stroke="#D0E4F1" stroke-linecap="round" stroke-linejoin="round"/>
<path d="M133.52 66H149.8Z" fill="#D0E4F1"/>
<path d="M133.52 66H149.8" stroke="#D0E4F1" stroke-linecap="round" stroke-linejoin="round"/>
<path d="M126.34 66H130.64Z" fill="#D0E4F1"/>
<path d="M126.34 66H130.64" stroke="#D0E4F1" stroke-linecap="round" stroke-linejoin="round"/>
<path d="M137.84 43.55H144.5Z" fill="#D0E4F1"/>
<path d="M137.84 43.55H144.5" stroke="#D0E4F1" stroke-linecap="round" stroke-linejoin="round"/>
<path d="M126.34 43.55H134.82Z" fill="#D0E4F1"/>
<path d="M126.34 43.55H134.82" stroke="#D0E4F1" stroke-linecap="round" stroke-linejoin="round"/>
<path d="M141.21 48H146Z" fill="#D0E4F1"/>
<path d="M141.21 48H146" stroke="#D0E4F1" stroke-linecap="round" stroke-linejoin="round"/>
<path d="M132.88 48H138.23Z" fill="#D0E4F1"/>
<path d="M132.88 48H138.23" stroke="#D0E4F1" stroke-linecap="round" stroke-linejoin="round"/>
<path d="M126.34 48H129.91Z" fill="#D0E4F1"/>
<path d="M126.34 48H129.91" stroke="#D0E4F1" stroke-linecap="round" stroke-linejoin="round"/>
<path d="M126.34 52.55H130.64Z" fill="#D0E4F1"/>
<path d="M126.34 52.55H130.64" stroke="#D0E4F1" stroke-linecap="round" stroke-linejoin="round"/>
<path d="M99.09 78.76H116.41Z" fill="#D0E4F1"/>
<path d="M99.09 78.76H116.41" stroke="#D0E4F1" stroke-linecap="round" stroke-linejoin="round"/>
<path d="M89.8199 78.76H94.82Z" fill="#D0E4F1"/>
<path d="M89.8199 78.76H94.82" stroke="#D0E4F1" stroke-linecap="round" stroke-linejoin="round"/>
<path d="M103.63 83.26H111.63Z" fill="#D0E4F1"/>
<path d="M103.63 83.26H111.63" stroke="#D0E4F1" stroke-linecap="round" stroke-linejoin="round"/>
<path d="M89.8199 83.26H99.9999Z" fill="#D0E4F1"/>
<path d="M89.8199 83.26H99.9999" stroke="#D0E4F1" stroke-linecap="round" stroke-linejoin="round"/>
<path d="M107.66 87.76H113.37Z" fill="#D0E4F1"/>
<path d="M107.66 87.76H113.37" stroke="#D0E4F1" stroke-linecap="round" stroke-linejoin="round"/>
<path d="M97.67 87.76H104.09Z" fill="#D0E4F1"/>
<path d="M97.67 87.76H104.09" stroke="#D0E4F1" stroke-linecap="round" stroke-linejoin="round"/>
<path d="M89.8199 87.76H94.1Z" fill="#D0E4F1"/>
<path d="M89.8199 87.76H94.1" stroke="#D0E4F1" stroke-linecap="round" stroke-linejoin="round"/>
<path d="M98.4399 92.26H118Z" fill="#D0E4F1"/>
<path d="M98.4399 92.26H118" stroke="#D0E4F1" stroke-linecap="round" stroke-linejoin="round"/>
<path d="M89.8199 92.26H94.9999Z" fill="#D0E4F1"/>
<path d="M89.8199 92.26H94.9999" stroke="#D0E4F1" stroke-linecap="round" stroke-linejoin="round"/>
<path d="M89.8199 78.76H94.9999Z" fill="#D0E4F1"/>
<path d="M89.8199 78.76H94.9999" stroke="#D0E4F1" stroke-linecap="round" stroke-linejoin="round"/>
<path d="M134.06 92.26H148.49Z" fill="#D0E4F1"/>
<path d="M134.06 92.26H148.49" stroke="#D0E4F1" stroke-linecap="round" stroke-linejoin="round"/>
<path d="M126.34 92.26H130.5Z" fill="#D0E4F1"/>
<path d="M126.34 92.26H130.5" stroke="#D0E4F1" stroke-linecap="round" stroke-linejoin="round"/>
<path d="M137.84 87.76H144.5Z" fill="#D0E4F1"/>
<path d="M137.84 87.76H144.5" stroke="#D0E4F1" stroke-linecap="round" stroke-linejoin="round"/>
<path d="M126.34 87.76H134.82Z" fill="#D0E4F1"/>
<path d="M126.34 87.76H134.82" stroke="#D0E4F1" stroke-linecap="round" stroke-linejoin="round"/>
<path d="M141.21 83.26H146Z" fill="#D0E4F1"/>
<path d="M141.21 83.26H146" stroke="#D0E4F1" stroke-linecap="round" stroke-linejoin="round"/>
<path d="M132.88 83.26H138.23Z" fill="#D0E4F1"/>
<path d="M132.88 83.26H138.23" stroke="#D0E4F1" stroke-linecap="round" stroke-linejoin="round"/>
<path d="M126.34 83.26H129.91Z" fill="#D0E4F1"/>
<path d="M126.34 83.26H129.91" stroke="#D0E4F1" stroke-linecap="round" stroke-linejoin="round"/>
<path d="M133.52 78.76H149.8Z" fill="#D0E4F1"/>
<path d="M133.52 78.76H149.8" stroke="#D0E4F1" stroke-linecap="round" stroke-linejoin="round"/>
<path d="M126.34 78.76H130.64Z" fill="#D0E4F1"/>
<path d="M126.34 78.76H130.64" stroke="#D0E4F1" stroke-linecap="round" stroke-linejoin="round"/>
<path d="M126.34 92.26H130.64Z" fill="#D0E4F1"/>
<path d="M126.34 92.26H130.64" stroke="#D0E4F1" stroke-linecap="round" stroke-linejoin="round"/>
<path d="M89.88 105C89.576 106.01 89.4574 107.067 89.53 108.12C89.5199 108.355 89.5612 108.59 89.651 108.807C89.7408 109.025 89.877 109.22 90.05 109.38C90.58 109.76 91.34 109.44 91.83 109.01C92.7692 108.197 93.3629 107.056 93.49 105.82C93.1569 106.62 92.9739 107.474 92.95 108.34L92.37 114.8C92.3616 115.164 92.287 115.523 92.15 115.86C92.0815 116.029 91.9679 116.177 91.8216 116.286C91.6752 116.395 91.5018 116.462 91.32 116.48C91.0671 116.462 90.8304 116.349 90.6577 116.163C90.4851 115.978 90.3894 115.734 90.39 115.48C90.403 114.973 90.5902 114.486 90.92 114.1C91.4078 113.447 92.0223 112.898 92.7267 112.488C93.4312 112.077 94.2111 111.813 95.02 111.71" fill="#D0E4F1"/>
<path d="M89.88 105C89.576 106.01 89.4574 107.067 89.53 108.12C89.5199 108.355 89.5612 108.59 89.651 108.807C89.7408 109.025 89.877 109.22 90.05 109.38C90.58 109.76 91.34 109.44 91.83 109.01C92.7692 108.197 93.3629 107.056 93.49 105.82C93.1569 106.62 92.9739 107.474 92.95 108.34L92.37 114.8C92.3616 115.164 92.287 115.523 92.15 115.86C92.0815 116.029 91.9679 116.177 91.8216 116.286C91.6752 116.395 91.5018 116.462 91.32 116.48C91.0671 116.462 90.8304 116.349 90.6577 116.163C90.4851 115.978 90.3894 115.734 90.39 115.48C90.403 114.973 90.5902 114.486 90.92 114.1C91.4078 113.447 92.0223 112.898 92.7267 112.488C93.4312 112.077 94.2111 111.813 95.02 111.71" stroke="#D0E4F1" stroke-linecap="round" stroke-linejoin="round"/>
<path d="M97.39 106.64L100.15 106.39Z" fill="#D0E4F1"/>
<path d="M97.39 106.64L100.15 106.39" stroke="#D0E4F1" stroke-linecap="round" stroke-linejoin="round"/>
<path d="M97.65 109C98.5675 108.643 99.5459 108.47 100.53 108.49Z" fill="#D0E4F1"/>
<path d="M97.65 109C98.5675 108.643 99.5459 108.47 100.53 108.49" stroke="#D0E4F1" stroke-linecap="round" stroke-linejoin="round"/>
<path d="M105.5 105.18C105.359 105.022 105.172 104.913 104.966 104.868C104.759 104.823 104.544 104.845 104.35 104.93C103.968 105.121 103.654 105.425 103.45 105.8C102.913 106.663 102.635 107.663 102.65 108.68C102.633 108.85 102.654 109.021 102.711 109.182C102.768 109.343 102.86 109.489 102.98 109.61C103.44 109.96 104.1 109.61 104.47 109.11C105.317 108.077 105.749 106.764 105.68 105.43C105.48 106.43 104.95 107.43 105.35 108.43C105.487 108.756 105.726 109.029 106.03 109.209C106.334 109.389 106.688 109.466 107.04 109.43" fill="#D0E4F1"/>
<path d="M105.5 105.18C105.359 105.022 105.172 104.913 104.966 104.868C104.759 104.823 104.544 104.845 104.35 104.93C103.968 105.121 103.654 105.425 103.45 105.8C102.913 106.663 102.635 107.663 102.65 108.68C102.633 108.85 102.654 109.021 102.711 109.182C102.768 109.343 102.86 109.489 102.98 109.61C103.44 109.96 104.1 109.61 104.47 109.11C105.317 108.077 105.749 106.764 105.68 105.43C105.48 106.43 104.95 107.43 105.35 108.43C105.487 108.756 105.726 109.029 106.03 109.209C106.334 109.389 106.688 109.466 107.04 109.43" stroke="#D0E4F1" stroke-linecap="round" stroke-linejoin="round"/>
<path d="M112.23 116C111.038 113.845 110.445 111.41 110.512 108.948C110.579 106.486 111.303 104.087 112.61 102" fill="#D0E4F1"/>
<path d="M112.23 116C111.038 113.845 110.445 111.41 110.512 108.948C110.579 106.486 111.303 104.087 112.61 102" stroke="#D0E4F1" stroke-linecap="round" stroke-linejoin="round"/>
<path d="M113.62 105.85C113.851 105.738 114.111 105.698 114.365 105.733C114.62 105.769 114.858 105.879 115.05 106.05C115.428 106.4 115.699 106.851 115.83 107.35C115.947 107.936 116.178 108.493 116.51 108.99C116.73 109.24 117.019 109.42 117.341 109.507C117.663 109.594 118.004 109.585 118.32 109.48" fill="#D0E4F1"/>
<path d="M113.62 105.85C113.851 105.738 114.111 105.698 114.365 105.733C114.62 105.769 114.858 105.879 115.05 106.05C115.428 106.4 115.699 106.851 115.83 107.35C115.947 107.936 116.178 108.493 116.51 108.99C116.73 109.24 117.019 109.42 117.341 109.507C117.663 109.594 118.004 109.585 118.32 109.48" stroke="#D0E4F1" stroke-linecap="round" stroke-linejoin="round"/>
<path d="M117.46 105.39L113.68 109.89Z" fill="#D0E4F1"/>
<path d="M117.46 105.39L113.68 109.89" stroke="#D0E4F1" stroke-linecap="round" stroke-linejoin="round"/>
<path d="M119 107.4L120.38 107.27Z" fill="#D0E4F1"/>
<path d="M119 107.4L120.38 107.27" stroke="#D0E4F1" stroke-linecap="round" stroke-linejoin="round"/>
<path d="M123.3 103.9C123.096 105.962 122.762 108.01 122.3 110.03C122.405 108.935 122.873 107.907 123.63 107.11C123.762 106.985 123.93 106.904 124.11 106.88C124.59 106.88 124.84 107.45 124.82 107.93C124.8 108.41 124.67 108.79 124.64 109.23C124.607 109.447 124.621 109.668 124.682 109.878C124.742 110.089 124.847 110.284 124.99 110.45C125.061 110.531 125.149 110.596 125.247 110.64C125.346 110.684 125.452 110.707 125.56 110.707C125.668 110.707 125.774 110.684 125.873 110.64C125.971 110.596 126.059 110.531 126.13 110.45" fill="#D0E4F1"/>
<path d="M123.3 103.9C123.096 105.962 122.762 108.01 122.3 110.03C122.405 108.935 122.873 107.907 123.63 107.11C123.762 106.985 123.93 106.904 124.11 106.88C124.59 106.88 124.84 107.45 124.82 107.93C124.8 108.41 124.67 108.79 124.64 109.23C124.607 109.447 124.621 109.668 124.682 109.878C124.742 110.089 124.847 110.284 124.99 110.45C125.061 110.531 125.149 110.596 125.247 110.64C125.346 110.684 125.452 110.707 125.56 110.707C125.668 110.707 125.774 110.684 125.873 110.64C125.971 110.596 126.059 110.531 126.13 110.45" stroke="#D0E4F1" stroke-linecap="round" stroke-linejoin="round"/>
<path d="M126.55 100.94C128.068 103.023 128.955 105.498 129.106 108.07C129.256 110.643 128.664 113.204 127.4 115.45" fill="#D0E4F1"/>
<path d="M126.55 100.94C128.068 103.023 128.955 105.498 129.106 108.07C129.256 110.643 128.664 113.204 127.4 115.45" stroke="#D0E4F1" stroke-linecap="round" stroke-linejoin="round"/>
<path d="M130.92 102.13C130.931 102.014 130.967 101.902 131.025 101.801C131.083 101.7 131.163 101.613 131.257 101.546C131.352 101.479 131.461 101.433 131.575 101.411C131.689 101.389 131.807 101.392 131.92 101.42C132.147 101.492 132.345 101.635 132.485 101.827C132.625 102.02 132.701 102.252 132.7 102.49C132.689 102.969 132.492 103.424 132.15 103.76C131.733 104.201 131.18 104.489 130.58 104.58C130.58 104.19 131.1 103.99 131.47 104.11C131.84 104.23 132.15 104.51 132.47 104.65C132.79 104.79 133.37 104.65 133.47 104.27" fill="#D0E4F1"/>
<path d="M130.92 102.13C130.931 102.014 130.967 101.902 131.025 101.801C131.083 101.7 131.163 101.613 131.257 101.546C131.352 101.479 131.461 101.433 131.575 101.411C131.689 101.389 131.807 101.392 131.92 101.42C132.147 101.492 132.345 101.635 132.485 101.827C132.625 102.02 132.701 102.252 132.7 102.49C132.689 102.969 132.492 103.424 132.15 103.76C131.733 104.201 131.18 104.489 130.58 104.58C130.58 104.19 131.1 103.99 131.47 104.11C131.84 104.23 132.15 104.51 132.47 104.65C132.79 104.79 133.37 104.65 133.47 104.27" stroke="#D0E4F1" stroke-linecap="round" stroke-linejoin="round"/>
<path d="M137.9 106.91C138.056 108.368 138.087 109.837 137.99 111.3Z" fill="#D0E4F1"/>
<path d="M137.9 106.91C138.056 108.368 138.087 109.837 137.99 111.3" stroke="#D0E4F1" stroke-linecap="round" stroke-linejoin="round"/>
<path d="M136.16 109.12L139.66 108.94Z" fill="#D0E4F1"/>
<path d="M136.16 109.12L139.66 108.94" stroke="#D0E4F1" stroke-linecap="round" stroke-linejoin="round"/>
<path d="M143.81 106.26C144.654 105.908 145.331 105.247 145.702 104.412C146.074 103.578 146.113 102.632 145.81 101.77C145.766 101.619 145.671 101.488 145.54 101.4C145.431 101.355 145.309 101.349 145.196 101.384C145.083 101.418 144.985 101.491 144.92 101.59C144.796 101.793 144.724 102.023 144.71 102.26C144.311 105.174 144.09 108.109 144.05 111.05C143.898 110.205 143.878 109.341 143.99 108.49C144.051 108.064 144.209 107.657 144.451 107.302C144.694 106.947 145.015 106.652 145.39 106.44C145.528 106.366 145.683 106.328 145.84 106.33C145.949 106.349 146.053 106.392 146.145 106.454C146.237 106.516 146.315 106.597 146.373 106.692C146.432 106.786 146.47 106.892 146.485 107.002C146.5 107.112 146.491 107.223 146.46 107.33C146.329 107.758 146.034 108.118 145.64 108.33C145.251 108.536 144.88 108.774 144.53 109.04L146.74 109.9" fill="#D0E4F1"/>
<path d="M143.81 106.26C144.654 105.908 145.331 105.247 145.702 104.412C146.074 103.578 146.113 102.632 145.81 101.77C145.766 101.619 145.671 101.488 145.54 101.4C145.431 101.355 145.309 101.349 145.196 101.384C145.083 101.418 144.985 101.491 144.92 101.59C144.796 101.793 144.724 102.023 144.71 102.26C144.311 105.174 144.09 108.109 144.05 111.05C143.898 110.205 143.878 109.341 143.99 108.49C144.051 108.064 144.209 107.657 144.451 107.302C144.694 106.947 145.015 106.652 145.39 106.44C145.528 106.366 145.683 106.328 145.84 106.33C145.949 106.349 146.053 106.392 146.145 106.454C146.237 106.516 146.315 106.597 146.373 106.692C146.432 106.786 146.47 106.892 146.485 107.002C146.5 107.112 146.491 107.223 146.46 107.33C146.329 107.758 146.034 108.118 145.64 108.33C145.251 108.536 144.88 108.774 144.53 109.04L146.74 109.9" stroke="#D0E4F1" stroke-linecap="round" stroke-linejoin="round"/>
<path d="M154.51 34.14H81.8C81.1483 34.14 80.62 34.6683 80.62 35.32V139.75C80.62 140.402 81.1483 140.93 81.8 140.93H154.51C155.162 140.93 155.69 140.402 155.69 139.75V35.32C155.69 34.6683 155.162 34.14 154.51 34.14Z" stroke="#3F555A" stroke-linecap="round" stroke-linejoin="round"/>
<path d="M159.51 29.14H86.8C86.1483 29.14 85.62 29.6683 85.62 30.32V134.75C85.62 135.402 86.1483 135.93 86.8 135.93H159.51C160.162 135.93 160.69 135.402 160.69 134.75V30.32C160.69 29.6683 160.162 29.14 159.51 29.14Z" fill="white"/>
<path d="M153.29 132.16C154.072 132.533 154.801 133.007 155.46 133.57L156.19 133.99C157.379 134.696 158.492 135.524 159.51 136.46C160.51 136.77 161.51 137.08 162.63 137.46C170.84 139.94 171 147.78 171.63 154.97C177.23 154.85 184.31 155.42 189.89 154.97C187.95 148.541 185.612 142.239 182.89 136.1C180.89 131.8 178.19 127.48 173.99 125.23C169.17 122.65 162.99 123.23 158.48 120.16C156.963 118.993 155.508 117.748 154.12 116.43C152.2 114.83 147.89 111.5 145.51 113.37C142.97 115.37 143.51 120.81 144.51 123.37C146.09 127.23 149.55 130.15 153.29 132.16Z" fill="#D0E4F1"/>
<path d="M119.97 64.05V65.66" stroke="#3F555A" stroke-linecap="round" stroke-linejoin="round"/>
<path d="M119.97 64.05H93.4399V37.51" stroke="#3F555A" stroke-linecap="round" stroke-linejoin="round"/>
<path d="M93.4399 64.05H91.8199" stroke="#3F555A" stroke-linecap="round" stroke-linejoin="round"/>
<path d="M93.4399 60.73H91.8199" stroke="#3F555A" stroke-linecap="round" stroke-linejoin="round"/>
<path d="M93.4399 57.41H91.8199" stroke="#3F555A" stroke-linecap="round" stroke-linejoin="round"/>
<path d="M93.4399 54.09H91.8199" stroke="#3F555A" stroke-linecap="round" stroke-linejoin="round"/>
<path d="M93.4399 50.78H91.8199" stroke="#3F555A" stroke-linecap="round" stroke-linejoin="round"/>
<path d="M93.4399 47.46H91.8199" stroke="#3F555A" stroke-linecap="round" stroke-linejoin="round"/>
<path d="M93.4399 44.14H91.8199" stroke="#3F555A" stroke-linecap="round" stroke-linejoin="round"/>
<path d="M93.4399 40.82H91.8199" stroke="#3F555A" stroke-linecap="round" stroke-linejoin="round"/>
<path d="M93.4399 37.51H91.8199" stroke="#3F555A" stroke-linecap="round" stroke-linejoin="round"/>
<path d="M93.4399 64.05V65.66" stroke="#3F555A" stroke-linecap="round" stroke-linejoin="round"/>
<path d="M96.75 64.05V65.66" stroke="#3F555A" stroke-linecap="round" stroke-linejoin="round"/>
<path d="M100.07 64.05V65.66" stroke="#3F555A" stroke-linecap="round" stroke-linejoin="round"/>
<path d="M103.39 64.05V65.66" stroke="#3F555A" stroke-linecap="round" stroke-linejoin="round"/>
<path d="M106.71 64.05V65.66" stroke="#3F555A" stroke-linecap="round" stroke-linejoin="round"/>
<path d="M110.02 64.05V65.66" stroke="#3F555A" stroke-linecap="round" stroke-linejoin="round"/>
<path d="M113.34 64.05V65.66" stroke="#3F555A" stroke-linecap="round" stroke-linejoin="round"/>
<path d="M116.66 64.05V65.66" stroke="#3F555A" stroke-linecap="round" stroke-linejoin="round"/>
<path d="M116.66 60.73C116.66 60.73 114.38 40.83 106.66 40.83C98.94 40.83 96.66 60.73 96.66 60.73" stroke="#F56F40" stroke-linecap="round" stroke-linejoin="round"/>
<path d="M116.66 40.82C116.66 40.82 114.38 60.72 106.66 60.72C98.94 60.72 96.66 40.82 96.66 40.82" stroke="#19BC9C" stroke-linecap="round" stroke-linejoin="round"/>
<path d="M136.06 50.55H150.49" stroke="#A1C2D8" stroke-linecap="round" stroke-linejoin="round"/>
<path d="M128.34 50.55H132.5" stroke="#A1C2D8" stroke-linecap="round" stroke-linejoin="round"/>
<path d="M139.84 55H146.5" stroke="#A1C2D8" stroke-linecap="round" stroke-linejoin="round"/>
<path d="M128.34 55H136.82" stroke="#A1C2D8" stroke-linecap="round" stroke-linejoin="round"/>
<path d="M143.21 59.55H148" stroke="#A1C2D8" stroke-linecap="round" stroke-linejoin="round"/>
<path d="M134.88 59.55H140.23" stroke="#A1C2D8" stroke-linecap="round" stroke-linejoin="round"/>
<path d="M128.34 59.55H131.91" stroke="#A1C2D8" stroke-linecap="round" stroke-linejoin="round"/>
<path d="M135.52 64H151.8" stroke="#A1C2D8" stroke-linecap="round" stroke-linejoin="round"/>
<path d="M128.34 64H132.64" stroke="#A1C2D8" stroke-linecap="round" stroke-linejoin="round"/>
<path d="M139.84 41.55H146.5" stroke="#A1C2D8" stroke-linecap="round" stroke-linejoin="round"/>
<path d="M128.34 41.55H136.82" stroke="#A1C2D8" stroke-linecap="round" stroke-linejoin="round"/>
<path d="M143.21 46H148" stroke="#A1C2D8" stroke-linecap="round" stroke-linejoin="round"/>
<path d="M134.88 46H140.23" stroke="#A1C2D8" stroke-linecap="round" stroke-linejoin="round"/>
<path d="M128.34 46H131.91" stroke="#A1C2D8" stroke-linecap="round" stroke-linejoin="round"/>
<path d="M128.34 50.55H132.64" stroke="#A1C2D8" stroke-linecap="round" stroke-linejoin="round"/>
<path d="M101.09 76.76H118.41" stroke="#A1C2D8" stroke-linecap="round" stroke-linejoin="round"/>
<path d="M91.8199 76.76H96.82" stroke="#A1C2D8" stroke-linecap="round" stroke-linejoin="round"/>
<path d="M105.63 81.26H113.63" stroke="#A1C2D8" stroke-linecap="round" stroke-linejoin="round"/>
<path d="M91.8199 81.26H102" stroke="#A1C2D8" stroke-linecap="round" stroke-linejoin="round"/>
<path d="M109.66 85.76H115.37" stroke="#A1C2D8" stroke-linecap="round" stroke-linejoin="round"/>
<path d="M99.67 85.76H106.09" stroke="#A1C2D8" stroke-linecap="round" stroke-linejoin="round"/>
<path d="M91.8199 85.76H96.1" stroke="#A1C2D8" stroke-linecap="round" stroke-linejoin="round"/>
<path d="M100.44 90.26H120" stroke="#A1C2D8" stroke-linecap="round" stroke-linejoin="round"/>
<path d="M91.8199 90.26H96.9999" stroke="#A1C2D8" stroke-linecap="round" stroke-linejoin="round"/>
<path d="M91.8199 76.76H96.9999" stroke="#A1C2D8" stroke-linecap="round" stroke-linejoin="round"/>
<path d="M136.06 90.26H150.49" stroke="#A1C2D8" stroke-linecap="round" stroke-linejoin="round"/>
<path d="M128.34 90.26H132.5" stroke="#A1C2D8" stroke-linecap="round" stroke-linejoin="round"/>
<path d="M139.84 85.76H146.5" stroke="#A1C2D8" stroke-linecap="round" stroke-linejoin="round"/>
<path d="M128.34 85.76H136.82" stroke="#A1C2D8" stroke-linecap="round" stroke-linejoin="round"/>
<path d="M143.21 81.26H148" stroke="#A1C2D8" stroke-linecap="round" stroke-linejoin="round"/>
<path d="M134.88 81.26H140.23" stroke="#A1C2D8" stroke-linecap="round" stroke-linejoin="round"/>
<path d="M128.34 81.26H131.91" stroke="#A1C2D8" stroke-linecap="round" stroke-linejoin="round"/>
<path d="M135.52 76.76H151.8" stroke="#A1C2D8" stroke-linecap="round" stroke-linejoin="round"/>
<path d="M128.34 76.76H132.64" stroke="#A1C2D8" stroke-linecap="round" stroke-linejoin="round"/>
<path d="M128.34 90.26H132.64" stroke="#A1C2D8" stroke-linecap="round" stroke-linejoin="round"/>
<path d="M91.88 103C91.576 104.01 91.4574 105.067 91.53 106.12C91.5199 106.355 91.5612 106.59 91.651 106.807C91.7408 107.025 91.877 107.22 92.05 107.38C92.58 107.76 93.34 107.44 93.83 107.01C94.7692 106.197 95.3629 105.056 95.49 103.82C95.1569 104.62 94.9739 105.474 94.95 106.34L94.37 112.8C94.3616 113.164 94.287 113.523 94.15 113.86C94.0815 114.029 93.9679 114.177 93.8216 114.286C93.6752 114.395 93.5018 114.462 93.32 114.48C93.0671 114.462 92.8304 114.349 92.6577 114.163C92.4851 113.978 92.3894 113.734 92.39 113.48C92.403 112.973 92.5902 112.486 92.92 112.1C93.4078 111.447 94.0223 110.898 94.7267 110.488C95.4312 110.077 96.2111 109.813 97.02 109.71" stroke="#A1C2D8" stroke-linecap="round" stroke-linejoin="round"/>
<path d="M99.39 104.64L102.15 104.39" stroke="#A1C2D8" stroke-linecap="round" stroke-linejoin="round"/>
<path d="M99.65 107C100.567 106.643 101.546 106.47 102.53 106.49" stroke="#A1C2D8" stroke-linecap="round" stroke-linejoin="round"/>
<path d="M107.5 103.18C107.359 103.022 107.172 102.913 106.966 102.868C106.759 102.823 106.544 102.845 106.35 102.93C105.968 103.121 105.654 103.425 105.45 103.8C104.913 104.663 104.635 105.663 104.65 106.68C104.633 106.85 104.654 107.021 104.711 107.182C104.768 107.343 104.86 107.489 104.98 107.61C105.44 107.96 106.1 107.61 106.47 107.11C107.317 106.077 107.749 104.764 107.68 103.43C107.48 104.43 106.95 105.43 107.35 106.43C107.487 106.756 107.726 107.029 108.03 107.209C108.334 107.389 108.688 107.466 109.04 107.43" stroke="#A1C2D8" stroke-linecap="round" stroke-linejoin="round"/>
<path d="M114.23 114C113.038 111.845 112.445 109.41 112.512 106.948C112.579 104.486 113.303 102.087 114.61 100" stroke="#A1C2D8" stroke-linecap="round" stroke-linejoin="round"/>
<path d="M115.62 103.85C115.851 103.738 116.111 103.698 116.365 103.733C116.62 103.769 116.858 103.879 117.05 104.05C117.428 104.4 117.699 104.851 117.83 105.35C117.947 105.936 118.178 106.493 118.51 106.99C118.73 107.24 119.019 107.42 119.341 107.507C119.663 107.594 120.004 107.585 120.32 107.48" stroke="#A1C2D8" stroke-linecap="round" stroke-linejoin="round"/>
<path d="M119.46 103.39L115.68 107.89" stroke="#A1C2D8" stroke-linecap="round" stroke-linejoin="round"/>
<path d="M121 105.4L122.38 105.27" stroke="#A1C2D8" stroke-linecap="round" stroke-linejoin="round"/>
<path d="M125.3 101.9C125.096 103.962 124.762 106.01 124.3 108.03C124.405 106.935 124.873 105.907 125.63 105.11C125.762 104.985 125.93 104.904 126.11 104.88C126.59 104.88 126.84 105.45 126.82 105.93C126.8 106.41 126.67 106.79 126.64 107.23C126.607 107.447 126.621 107.668 126.682 107.878C126.742 108.089 126.847 108.284 126.99 108.45C127.061 108.531 127.149 108.596 127.247 108.64C127.346 108.684 127.452 108.707 127.56 108.707C127.668 108.707 127.774 108.684 127.873 108.64C127.971 108.596 128.059 108.531 128.13 108.45" stroke="#A1C2D8" stroke-linecap="round" stroke-linejoin="round"/>
<path d="M128.55 98.94C130.068 101.023 130.955 103.498 131.106 106.07C131.256 108.643 130.664 111.204 129.4 113.45" stroke="#A1C2D8" stroke-linecap="round" stroke-linejoin="round"/>
<path d="M132.92 100.13C132.931 100.014 132.967 99.902 133.025 99.8012C133.083 99.7005 133.163 99.6134 133.257 99.546C133.352 99.4787 133.461 99.4325 133.575 99.4108C133.689 99.389 133.807 99.3922 133.92 99.42C134.147 99.4923 134.345 99.635 134.485 99.8274C134.625 100.02 134.701 100.252 134.7 100.49C134.689 100.969 134.492 101.424 134.15 101.76C133.733 102.201 133.18 102.489 132.58 102.58C132.58 102.19 133.1 101.99 133.47 102.11C133.84 102.23 134.15 102.51 134.47 102.65C134.79 102.79 135.37 102.65 135.47 102.27" stroke="#A1C2D8" stroke-linecap="round" stroke-linejoin="round"/>
<path d="M139.9 104.91C140.056 106.368 140.087 107.837 139.99 109.3" stroke="#A1C2D8" stroke-linecap="round" stroke-linejoin="round"/>
<path d="M138.16 107.12L141.66 106.94" stroke="#A1C2D8" stroke-linecap="round" stroke-linejoin="round"/>
<path d="M145.81 104.26C146.654 103.908 147.331 103.247 147.702 102.412C148.074 101.578 148.113 100.632 147.81 99.77C147.766 99.6188 147.671 99.4878 147.54 99.4C147.431 99.3548 147.309 99.3491 147.196 99.3838C147.083 99.4184 146.985 99.4913 146.92 99.59C146.796 99.7928 146.724 100.023 146.71 100.26C146.311 103.174 146.09 106.109 146.05 109.05C145.898 108.205 145.878 107.341 145.99 106.49C146.051 106.064 146.209 105.657 146.451 105.302C146.694 104.947 147.015 104.652 147.39 104.44C147.528 104.366 147.683 104.328 147.84 104.33C147.949 104.349 148.053 104.392 148.145 104.454C148.237 104.516 148.315 104.597 148.373 104.692C148.432 104.786 148.47 104.892 148.485 105.002C148.5 105.112 148.491 105.223 148.46 105.33C148.329 105.758 148.034 106.118 147.64 106.33C147.251 106.536 146.88 106.774 146.53 107.04L148.74 107.9" stroke="#A1C2D8" stroke-linecap="round" stroke-linejoin="round"/>
<path d="M159.51 29.14H86.8C86.1483 29.14 85.62 29.6683 85.62 30.32V134.75C85.62 135.402 86.1483 135.93 86.8 135.93H159.51C160.162 135.93 160.69 135.402 160.69 134.75V30.32C160.69 29.6683 160.162 29.14 159.51 29.14Z" stroke="#3F555A" stroke-linecap="round" stroke-linejoin="round"/>
<path d="M119.97 64.05V65.66" stroke="#3F555A" stroke-linecap="round" stroke-linejoin="round"/>
<path d="M119.97 64.05H93.4399V37.51" stroke="#3F555A" stroke-linecap="round" stroke-linejoin="round"/>
<path d="M93.4399 64.05H91.8199" stroke="#3F555A" stroke-linecap="round" stroke-linejoin="round"/>
<path d="M93.4399 60.73H91.8199" stroke="#3F555A" stroke-linecap="round" stroke-linejoin="round"/>
<path d="M93.4399 57.41H91.8199" stroke="#3F555A" stroke-linecap="round" stroke-linejoin="round"/>
<path d="M93.4399 54.09H91.8199" stroke="#3F555A" stroke-linecap="round" stroke-linejoin="round"/>
<path d="M93.4399 50.78H91.8199" stroke="#3F555A" stroke-linecap="round" stroke-linejoin="round"/>
<path d="M93.4399 47.46H91.8199" stroke="#3F555A" stroke-linecap="round" stroke-linejoin="round"/>
<path d="M93.4399 44.14H91.8199" stroke="#3F555A" stroke-linecap="round" stroke-linejoin="round"/>
<path d="M93.4399 40.82H91.8199" stroke="#3F555A" stroke-linecap="round" stroke-linejoin="round"/>
<path d="M93.4399 37.51H91.8199" stroke="#3F555A" stroke-linecap="round" stroke-linejoin="round"/>
<path d="M93.4399 64.05V65.66" stroke="#3F555A" stroke-linecap="round" stroke-linejoin="round"/>
<path d="M96.75 64.05V65.66" stroke="#3F555A" stroke-linecap="round" stroke-linejoin="round"/>
<path d="M100.07 64.05V65.66" stroke="#3F555A" stroke-linecap="round" stroke-linejoin="round"/>
<path d="M103.39 64.05V65.66" stroke="#3F555A" stroke-linecap="round" stroke-linejoin="round"/>
<path d="M106.71 64.05V65.66" stroke="#3F555A" stroke-linecap="round" stroke-linejoin="round"/>
<path d="M110.02 64.05V65.66" stroke="#3F555A" stroke-linecap="round" stroke-linejoin="round"/>
<path d="M113.34 64.05V65.66" stroke="#3F555A" stroke-linecap="round" stroke-linejoin="round"/>
<path d="M116.66 64.05V65.66" stroke="#3F555A" stroke-linecap="round" stroke-linejoin="round"/>
<path d="M116.66 60.73C116.66 60.73 114.38 40.83 106.66 40.83C98.94 40.83 96.66 60.73 96.66 60.73" stroke="#F56F40" stroke-linecap="round" stroke-linejoin="round"/>
<path d="M116.66 40.82C116.66 40.82 114.38 60.72 106.66 60.72C98.94 60.72 96.66 40.82 96.66 40.82" stroke="#19BC9C" stroke-linecap="round" stroke-linejoin="round"/>
<path d="M136.06 50.55H150.49" stroke="#A1C2D8" stroke-linecap="round" stroke-linejoin="round"/>
<path d="M128.34 50.55H132.5" stroke="#A1C2D8" stroke-linecap="round" stroke-linejoin="round"/>
<path d="M139.84 55H146.5" stroke="#A1C2D8" stroke-linecap="round" stroke-linejoin="round"/>
<path d="M128.34 55H136.82" stroke="#A1C2D8" stroke-linecap="round" stroke-linejoin="round"/>
<path d="M143.21 59.55H148" stroke="#A1C2D8" stroke-linecap="round" stroke-linejoin="round"/>
<path d="M134.88 59.55H140.23" stroke="#A1C2D8" stroke-linecap="round" stroke-linejoin="round"/>
<path d="M128.34 59.55H131.91" stroke="#A1C2D8" stroke-linecap="round" stroke-linejoin="round"/>
<path d="M135.52 64H151.8" stroke="#A1C2D8" stroke-linecap="round" stroke-linejoin="round"/>
<path d="M128.34 64H132.64" stroke="#A1C2D8" stroke-linecap="round" stroke-linejoin="round"/>
<path d="M139.84 41.55H146.5" stroke="#A1C2D8" stroke-linecap="round" stroke-linejoin="round"/>
<path d="M128.34 41.55H136.82" stroke="#A1C2D8" stroke-linecap="round" stroke-linejoin="round"/>
<path d="M143.21 46H148" stroke="#A1C2D8" stroke-linecap="round" stroke-linejoin="round"/>
<path d="M134.88 46H140.23" stroke="#A1C2D8" stroke-linecap="round" stroke-linejoin="round"/>
<path d="M128.34 46H131.91" stroke="#A1C2D8" stroke-linecap="round" stroke-linejoin="round"/>
<path d="M128.34 50.55H132.64" stroke="#A1C2D8" stroke-linecap="round" stroke-linejoin="round"/>
<path d="M101.09 76.76H118.41" stroke="#A1C2D8" stroke-linecap="round" stroke-linejoin="round"/>
<path d="M91.8199 76.76H96.82" stroke="#A1C2D8" stroke-linecap="round" stroke-linejoin="round"/>
<path d="M105.63 81.26H113.63" stroke="#A1C2D8" stroke-linecap="round" stroke-linejoin="round"/>
<path d="M91.8199 81.26H102" stroke="#A1C2D8" stroke-linecap="round" stroke-linejoin="round"/>
<path d="M109.66 85.76H115.37" stroke="#A1C2D8" stroke-linecap="round" stroke-linejoin="round"/>
<path d="M99.67 85.76H106.09" stroke="#A1C2D8" stroke-linecap="round" stroke-linejoin="round"/>
<path d="M91.8199 85.76H96.1" stroke="#A1C2D8" stroke-linecap="round" stroke-linejoin="round"/>
<path d="M100.44 90.26H120" stroke="#A1C2D8" stroke-linecap="round" stroke-linejoin="round"/>
<path d="M91.8199 90.26H96.9999" stroke="#A1C2D8" stroke-linecap="round" stroke-linejoin="round"/>
<path d="M91.8199 76.76H96.9999" stroke="#A1C2D8" stroke-linecap="round" stroke-linejoin="round"/>
<path d="M136.06 90.26H150.49" stroke="#A1C2D8" stroke-linecap="round" stroke-linejoin="round"/>
<path d="M128.34 90.26H132.5" stroke="#A1C2D8" stroke-linecap="round" stroke-linejoin="round"/>
<path d="M139.84 85.76H146.5" stroke="#A1C2D8" stroke-linecap="round" stroke-linejoin="round"/>
<path d="M128.34 85.76H136.82" stroke="#A1C2D8" stroke-linecap="round" stroke-linejoin="round"/>
<path d="M143.21 81.26H148" stroke="#A1C2D8" stroke-linecap="round" stroke-linejoin="round"/>
<path d="M134.88 81.26H140.23" stroke="#A1C2D8" stroke-linecap="round" stroke-linejoin="round"/>
<path d="M128.34 81.26H131.91" stroke="#A1C2D8" stroke-linecap="round" stroke-linejoin="round"/>
<path d="M135.52 76.76H151.8" stroke="#A1C2D8" stroke-linecap="round" stroke-linejoin="round"/>
<path d="M128.34 76.76H132.64" stroke="#A1C2D8" stroke-linecap="round" stroke-linejoin="round"/>
<path d="M128.34 90.26H132.64" stroke="#A1C2D8" stroke-linecap="round" stroke-linejoin="round"/>
<path d="M91.88 103C91.576 104.01 91.4574 105.067 91.53 106.12C91.5199 106.355 91.5612 106.59 91.651 106.807C91.7408 107.025 91.877 107.22 92.05 107.38C92.58 107.76 93.34 107.44 93.83 107.01C94.7692 106.197 95.3629 105.056 95.49 103.82C95.1569 104.62 94.9739 105.474 94.95 106.34L94.37 112.8C94.3616 113.164 94.287 113.523 94.15 113.86C94.0815 114.029 93.9679 114.177 93.8216 114.286C93.6752 114.395 93.5018 114.462 93.32 114.48C93.0671 114.462 92.8304 114.349 92.6577 114.163C92.4851 113.978 92.3894 113.734 92.39 113.48C92.403 112.973 92.5902 112.486 92.92 112.1C93.4078 111.447 94.0223 110.898 94.7267 110.488C95.4312 110.077 96.2111 109.813 97.02 109.71" stroke="#A1C2D8" stroke-linecap="round" stroke-linejoin="round"/>
<path d="M99.39 104.64L102.15 104.39" stroke="#A1C2D8" stroke-linecap="round" stroke-linejoin="round"/>
<path d="M99.65 107C100.567 106.643 101.546 106.47 102.53 106.49" stroke="#A1C2D8" stroke-linecap="round" stroke-linejoin="round"/>
<path d="M107.5 103.18C107.359 103.022 107.172 102.913 106.966 102.868C106.759 102.823 106.544 102.845 106.35 102.93C105.968 103.121 105.654 103.425 105.45 103.8C104.913 104.663 104.635 105.663 104.65 106.68C104.633 106.85 104.654 107.021 104.711 107.182C104.768 107.343 104.86 107.489 104.98 107.61C105.44 107.96 106.1 107.61 106.47 107.11C107.317 106.077 107.749 104.764 107.68 103.43C107.48 104.43 106.95 105.43 107.35 106.43C107.487 106.756 107.726 107.029 108.03 107.209C108.334 107.389 108.688 107.466 109.04 107.43" stroke="#A1C2D8" stroke-linecap="round" stroke-linejoin="round"/>
<path d="M114.23 114C113.038 111.845 112.445 109.41 112.512 106.948C112.579 104.486 113.303 102.087 114.61 100" stroke="#A1C2D8" stroke-linecap="round" stroke-linejoin="round"/>
<path d="M115.62 103.85C115.851 103.738 116.111 103.698 116.365 103.733C116.62 103.769 116.858 103.879 117.05 104.05C117.428 104.4 117.699 104.851 117.83 105.35C117.947 105.936 118.178 106.493 118.51 106.99C118.73 107.24 119.019 107.42 119.341 107.507C119.663 107.594 120.004 107.585 120.32 107.48" stroke="#A1C2D8" stroke-linecap="round" stroke-linejoin="round"/>
<path d="M119.46 103.39L115.68 107.89" stroke="#A1C2D8" stroke-linecap="round" stroke-linejoin="round"/>
<path d="M121 105.4L122.38 105.27" stroke="#A1C2D8" stroke-linecap="round" stroke-linejoin="round"/>
<path d="M125.3 101.9C125.096 103.962 124.762 106.01 124.3 108.03C124.405 106.935 124.873 105.907 125.63 105.11C125.762 104.985 125.93 104.904 126.11 104.88C126.59 104.88 126.84 105.45 126.82 105.93C126.8 106.41 126.67 106.79 126.64 107.23C126.607 107.447 126.621 107.668 126.682 107.878C126.742 108.089 126.847 108.284 126.99 108.45C127.061 108.531 127.149 108.596 127.247 108.64C127.346 108.684 127.452 108.707 127.56 108.707C127.668 108.707 127.774 108.684 127.873 108.64C127.971 108.596 128.059 108.531 128.13 108.45" stroke="#A1C2D8" stroke-linecap="round" stroke-linejoin="round"/>
<path d="M128.55 98.94C130.068 101.023 130.955 103.498 131.106 106.07C131.256 108.643 130.664 111.204 129.4 113.45" stroke="#A1C2D8" stroke-linecap="round" stroke-linejoin="round"/>
<path d="M132.92 100.13C132.931 100.014 132.967 99.902 133.025 99.8012C133.083 99.7005 133.163 99.6134 133.257 99.546C133.352 99.4787 133.461 99.4325 133.575 99.4108C133.689 99.389 133.807 99.3922 133.92 99.42C134.147 99.4923 134.345 99.635 134.485 99.8274C134.625 100.02 134.701 100.252 134.7 100.49C134.689 100.969 134.492 101.424 134.15 101.76C133.733 102.201 133.18 102.489 132.58 102.58C132.58 102.19 133.1 101.99 133.47 102.11C133.84 102.23 134.15 102.51 134.47 102.65C134.79 102.79 135.37 102.65 135.47 102.27" stroke="#A1C2D8" stroke-linecap="round" stroke-linejoin="round"/>
<path d="M139.9 104.91C140.056 106.368 140.087 107.837 139.99 109.3" stroke="#A1C2D8" stroke-linecap="round" stroke-linejoin="round"/>
<path d="M138.16 107.12L141.66 106.94" stroke="#A1C2D8" stroke-linecap="round" stroke-linejoin="round"/>
<path d="M145.81 104.26C146.654 103.908 147.331 103.247 147.702 102.412C148.074 101.578 148.113 100.632 147.81 99.77C147.766 99.6188 147.671 99.4878 147.54 99.4C147.431 99.3548 147.309 99.3491 147.196 99.3838C147.083 99.4184 146.985 99.4913 146.92 99.59C146.796 99.7928 146.724 100.023 146.71 100.26C146.311 103.174 146.09 106.109 146.05 109.05C145.898 108.205 145.878 107.341 145.99 106.49C146.051 106.064 146.209 105.657 146.451 105.302C146.694 104.947 147.015 104.652 147.39 104.44C147.528 104.366 147.683 104.328 147.84 104.33C147.949 104.349 148.053 104.392 148.145 104.454C148.237 104.516 148.315 104.597 148.373 104.692C148.432 104.786 148.47 104.892 148.485 105.002C148.5 105.112 148.491 105.223 148.46 105.33C148.329 105.758 148.034 106.118 147.64 106.33C147.251 106.536 146.88 106.774 146.53 107.04L148.74 107.9" stroke="#A1C2D8" stroke-linecap="round" stroke-linejoin="round"/>
<path d="M160.27 93.88C160.27 93.88 153.4 95.28 151.43 97.11C151.43 97.11 150.55 103.99 151.12 107.69L155.39 109.8L160.27 93.88Z" fill="white"/>
<path d="M156.9 106.09C156.31 104.17 155.66 101.78 155.66 101.78C156.85 101.89 158.28 100.38 158.28 100.38L160.28 93.88C160.28 93.88 152.5 95.43 151.44 97.11C151.44 97.11 150.63 97.64 151.13 107.69" stroke="#3F555A" stroke-linecap="round" stroke-linejoin="round"/>
<path d="M189.87 154.91C197.66 154.91 199.37 155.05 207.15 155.1C200.331 139.404 192.473 124.181 183.63 109.53C183.175 108.545 182.91 107.483 182.85 106.4C181.65 99.77 177.08 101.05 177.08 101.05C176.14 101.05 176.08 99.64 176.08 99.64C174.51 96.04 170.34 98.32 170.34 98.32C169.07 98.99 169.04 98.13 169.04 98.13C168.881 97.7096 168.636 97.3268 168.321 97.0062C168.006 96.6855 167.627 96.434 167.21 96.2675C166.792 96.101 166.344 96.0233 165.895 96.0392C165.446 96.0551 165.005 96.1644 164.6 96.36L161.82 104.76C161.941 105.718 161.759 106.691 161.3 107.541C160.841 108.391 160.128 109.076 159.26 109.5C159.26 109.5 156.86 111.37 153.63 108.71C152.823 108.175 151.853 107.944 150.891 108.058C149.93 108.171 149.04 108.622 148.38 109.33C148.38 109.33 145.82 111.51 148.3 114.56C149.439 116.039 151.065 117.066 152.89 117.46C153.217 117.514 153.523 117.654 153.776 117.867C154.03 118.08 154.221 118.357 154.33 118.67C154.33 118.67 157.04 127.67 174.02 128.26H173.74C177.47 133 187.81 146.61 189.87 154.91Z" fill="white"/>
<path d="M168.21 99.35C168.918 99.2392 169.634 99.1923 170.35 99.21H175.76C173.314 99.0638 170.915 98.4742 168.68 97.47C167.883 96.9957 166.967 96.7565 166.04 96.78C164.66 96.98 163.83 98.39 162.61 99.08C162.81 98.95 163.09 99.08 163.16 99.35C163.209 99.5809 163.188 99.821 163.1 100.04C162.648 101.348 162.281 102.684 162 104.04C163.9 102.15 165.36 99.89 168.21 99.35Z" fill="#D0E4F1"/>
<path d="M169.62 80L164.91 78.48L169.17 64.55C169.266 64.2391 169.422 63.9502 169.63 63.7001C169.838 63.45 170.094 63.2437 170.382 63.093C170.67 62.9424 170.986 62.8504 171.31 62.8224C171.634 62.7944 171.96 62.831 172.27 62.93C172.89 63.1343 173.405 63.5729 173.706 64.1522C174.007 64.7314 174.069 65.4054 173.88 66.03L169.62 80Z" fill="#3290C1"/>
<path d="M159.87 108.81L155.28 110.16L164.91 78.47L169.62 79.99L159.87 108.81Z" fill="#3290C1"/>
<path d="M172.47 67.15L174.67 67.84C174.909 67.9245 175.106 68.0963 175.223 68.3209C175.34 68.5455 175.368 68.806 175.3 69.05L171.15 82.6" stroke="#1E6B96" stroke-linecap="round" stroke-linejoin="round"/>
<path d="M169.62 79.99L160.48 108.54" stroke="#1E6B96" stroke-linecap="round" stroke-linejoin="round"/>
<path d="M155.39 109.8L164.91 78.47" stroke="#1E6B96" stroke-linecap="round" stroke-linejoin="round"/>
<path d="M169.62 80C169.623 79.4456 169.439 78.9064 169.098 78.4693C168.757 78.0321 168.278 77.7224 167.74 77.59C167.239 77.3784 166.68 77.3517 166.161 77.5148C165.643 77.6778 165.199 78.0199 164.91 78.48L169.17 64.55C169.266 64.2391 169.422 63.9502 169.63 63.7001C169.838 63.45 170.094 63.2437 170.382 63.093C170.67 62.9424 170.986 62.8504 171.31 62.8224C171.634 62.7944 171.96 62.831 172.27 62.93C172.89 63.1343 173.405 63.5729 173.706 64.1522C174.007 64.7314 174.069 65.4054 173.88 66.03L169.62 80Z" stroke="#1E6B96" stroke-linecap="round" stroke-linejoin="round"/>
<path d="M186 151.87C184.25 144.87 180.54 131.51 176.05 125.78" stroke="#D0E4F1" stroke-width="6" stroke-linecap="round" stroke-linejoin="round"/>
<path d="M176 128.78L173.2 128.7L171.62 128.55C171.1 128.49 170.56 128.47 170.06 128.37L168.54 128.1C168.031 128.015 167.527 127.901 167.03 127.76C166.53 127.63 166.03 127.51 165.53 127.36L164.04 126.84C163.54 126.68 163.04 126.44 162.58 126.24C162.087 126.035 161.606 125.801 161.14 125.54C160.67 125.28 160.19 125.05 159.74 124.74C159.29 124.43 158.82 124.18 158.39 123.83C157.96 123.48 157.51 123.18 157.11 122.83C156.255 122.096 155.471 121.282 154.77 120.4C154.59 120.17 154.41 119.94 154.24 119.68C154.07 119.42 154.07 119.44 153.98 119.29C153.89 119.14 153.82 119.04 153.68 118.77L155.86 120.36C155.53 120.25 155.33 120.15 155.07 120.04L154.37 119.71C153.91 119.48 153.46 119.24 153.03 118.99C152.148 118.488 151.306 117.919 150.51 117.29C150.109 116.977 149.725 116.643 149.36 116.29C149.002 115.933 148.668 115.552 148.36 115.15C148.2 114.96 148.06 114.73 147.91 114.52C147.76 114.312 147.63 114.091 147.52 113.86C147.395 113.639 147.288 113.408 147.2 113.17L146.96 112.46C146.926 112.364 146.926 112.26 146.959 112.164C146.993 112.068 147.058 111.986 147.143 111.931C147.229 111.877 147.331 111.853 147.432 111.863C147.533 111.874 147.627 111.919 147.7 111.99L147.77 112.05L148.22 112.49C148.372 112.63 148.536 112.757 148.71 112.87C148.869 112.993 149.04 113.101 149.22 113.19C149.395 113.293 149.575 113.386 149.76 113.47C150.13 113.639 150.511 113.783 150.9 113.9C151.288 114.021 151.682 114.121 152.08 114.2C152.885 114.362 153.7 114.462 154.52 114.5C154.93 114.5 155.34 114.5 155.74 114.5H156.34C156.518 114.494 156.695 114.474 156.87 114.44V114.44L159 116C159 115.93 159 116 159.05 116.08L159.18 116.27C159.26 116.4 159.38 116.54 159.48 116.68C159.704 116.967 159.944 117.241 160.2 117.5C160.458 117.773 160.732 118.03 161.02 118.27C161.29 118.53 161.62 118.75 161.92 118.99C162.22 119.23 162.57 119.42 162.92 119.64C163.243 119.853 163.577 120.05 163.92 120.23C164.268 120.427 164.629 120.601 165 120.75C165.365 120.923 165.739 121.077 166.12 121.21L167.27 121.61C167.66 121.73 168.07 121.82 168.47 121.93C168.871 122.046 169.278 122.136 169.69 122.2L170.93 122.42C171.35 122.51 171.74 122.51 172.14 122.56L173.35 122.69L176.14 122.77C176.936 122.791 177.69 123.128 178.238 123.705C178.785 124.283 179.081 125.054 179.06 125.85C179.039 126.646 178.702 127.4 178.125 127.948C177.547 128.495 176.776 128.791 175.98 128.77L176 128.78Z" fill="#D0E4F1"/>
<path d="M183.37 153.38C181.62 146.69 177.99 133.74 173.68 128.23" stroke="#3F555A" stroke-linecap="round" stroke-linejoin="round"/>
<path d="M164.55 96.35C167.38 95.27 168.45 98.49 172.74 98.49C174.649 98.6072 176.507 99.1504 178.179 100.08C179.851 101.009 181.293 102.301 182.4 103.86V107.08C189.91 119.96 201.12 138.37 206.24 153.03" stroke="#3F555A" stroke-linecap="round" stroke-linejoin="round"/>
<path d="M161.77 104.76C161.891 105.718 161.709 106.691 161.25 107.541C160.791 108.391 160.078 109.076 159.21 109.5C159.21 109.5 156.81 111.37 153.58 108.71C152.773 108.175 151.803 107.944 150.841 108.058C149.88 108.171 148.99 108.622 148.33 109.33C148.33 109.33 145.77 111.51 148.25 114.56C149.389 116.039 151.015 117.066 152.84 117.46C153.167 117.514 153.473 117.654 153.726 117.867C153.98 118.08 154.171 118.357 154.28 118.67C154.28 118.67 157.28 128.49 176.28 128.29" stroke="#3F555A" stroke-linecap="round" stroke-linejoin="round"/>
<path d="M43.54 111.48C43.9 108.69 44.27 105.9 44.37 103.09C44.46 100.57 44.37 97.91 45.55 95.68C45.3348 95.5883 45.0961 95.567 44.868 95.6191C44.6399 95.6712 44.4341 95.794 44.28 95.97C43.9792 96.3268 43.7638 96.7474 43.65 97.2C42.4972 100.975 41.789 104.871 41.54 108.81C41.39 110.81 40.09 117.81 41.87 118.95C43.29 117.26 43.26 113.62 43.54 111.48Z" fill="#D0E4F1"/>
<path d="M49 117.34C49.4246 116.686 49.7073 115.95 49.83 115.18C51.12 109.18 50.31 102.9 51.77 96.96C52.04 95.84 52.66 94.52 53.77 94.47C53.6 94.2802 53.393 94.1271 53.1618 94.0202C52.9305 93.9133 52.6798 93.8547 52.4251 93.8482C52.1704 93.8416 51.917 93.8872 51.6806 93.9821C51.4441 94.077 51.2295 94.2192 51.05 94.4C50.3551 95.1712 49.906 96.1322 49.76 97.16C48.7997 101.237 48.1049 105.373 47.68 109.54C47.47 111.54 47.33 113.59 47.25 115.62C47.29 116.85 47.43 119.54 49 117.34Z" fill="#D0E4F1"/>
<path d="M58.2 102.51C58.51 100.51 58.91 98.17 60.62 97.02C60.1432 96.8255 59.6165 96.7896 59.1177 96.9174C58.6189 97.0453 58.1744 97.3302 57.85 97.73C57.2166 98.5443 56.7848 99.4969 56.59 100.51C55.1336 106.056 54.4604 111.778 54.59 117.51C56.326 112.653 57.5362 107.625 58.2 102.51V102.51Z" fill="#D0E4F1"/>
<path d="M62.24 126.8C62.879 126.366 63.3571 125.733 63.6 125C64.0263 124.162 64.3615 123.28 64.6 122.37C64.6998 121.488 64.8704 120.615 65.11 119.76C65.3253 119.211 65.6678 118.721 66.1093 118.329C66.5508 117.938 67.0788 117.657 67.65 117.51C67.4579 117.19 67.1576 116.95 66.8036 116.832C66.4495 116.715 66.065 116.728 65.72 116.87C64.34 117.35 63.78 118.97 63.4 120.38L62.65 123.18C62.5111 123.835 62.268 124.463 61.93 125.04C61.63 125.49 60.52 126.04 60.71 126.57C60.9 127.1 61.89 127 62.24 126.8Z" fill="#D0E4F1"/>
<path d="M38.23 132.49C36.8 121.7 35.65 110.67 37.67 99.87C37.39 99.87 36.23 101.09 36 101.23C33.36 109.16 33 115.23 33.7 123.89C34.09 128.89 35.7 135.01 36.7 139.89C37.59 144.43 38.33 149.09 36.88 153.58C36.88 155.1 36.88 156.64 36.88 158.2C38.4465 158.665 40.129 158.54 41.61 157.85C41.61 157.85 40.61 151.07 40.35 148.85C39.78 143.43 39 138 38.23 132.49Z" fill="#D0E4F1"/>
<path d="M54.14 118.19C54.4955 111.897 55.3955 105.647 56.83 99.51C56.9787 98.6419 57.3204 97.8183 57.83 97.1C58.0873 96.745 58.4501 96.4803 58.8668 96.3438C59.2834 96.2073 59.7326 96.206 60.15 96.34C61.21 96.8 61.4 98.21 61.39 99.34C61.39 108.02 59.39 116.66 60.12 125.34C60.1081 125.558 60.144 125.775 60.2252 125.977C60.3064 126.179 60.4309 126.361 60.59 126.51C60.95 126.76 61.59 126.4 61.41 126.01C62.13 123.85 62.77 121.54 63.49 119.38C63.7008 118.531 64.1085 117.743 64.68 117.08C64.9746 116.758 65.3704 116.547 65.8015 116.482C66.2327 116.416 66.6732 116.5 67.05 116.72C67.382 116.995 67.6226 117.365 67.74 117.78C67.9301 118.504 68.0177 119.251 68 120C68.2326 126.045 66.9865 132.056 64.37 137.51C62.76 140.85 60.66 143.93 58.99 147.23C57.4657 150.559 56.8845 154.243 57.31 157.88" stroke="#3F555A" stroke-linecap="round" stroke-linejoin="round"/>
<path d="M54.72 110.78V102.63C54.72 100.33 55.59 96.39 54.18 94.39C52.77 92.39 50.81 94.1 50.18 95.7C49.18 98.04 49.12 100.6 48.74 103.07C48.1415 107.468 47.7644 111.894 47.61 116.33C47.61 117.12 47.42 118.06 46.7 118.33C47 118.19 46.51 113.95 46.51 113.44C46.51 110.7 46.76 107.81 46.95 105.02C47.14 102.23 47.52 99.18 46.57 96.48C46.5101 96.2439 46.395 96.0254 46.2342 95.8424C46.0734 95.6594 45.8715 95.5171 45.645 95.4273C45.4186 95.3375 45.174 95.3027 44.9315 95.3258C44.689 95.3489 44.4555 95.4291 44.25 95.56C42.95 96.33 42.84 98.25 42.63 99.56C41.623 105.989 41.1647 112.493 41.26 119" stroke="#3F555A" stroke-linecap="round" stroke-linejoin="round"/>
<path d="M41.2 118.69C41.36 118.96 40.91 119.27 40.63 119.11C40.5053 119.011 40.4033 118.887 40.3309 118.746C40.2584 118.604 40.2172 118.449 40.21 118.29C39.3495 113.451 39.0642 108.526 39.36 103.62C39.42 102.56 39.47 101.06 38.48 100.38C37.08 99.38 35.87 101.16 35.48 102.31C34.185 106.054 33.4602 109.971 33.33 113.93C32.91 124.12 35.33 134.3 37.33 144.23C38.11 148.17 37.47 153.89 37.21 157.9" stroke="#3F555A" stroke-linecap="round" stroke-linejoin="round"/>
<path d="M16 8.65C15.6229 7.26194 14.8847 5.99858 13.8607 4.98855C12.8366 3.97852 11.5631 3.25788 10.17 2.9C7.16999 2.08 3.45999 3.05 1.87999 5.32C1.28404 6.24026 0.99359 7.32508 1.04999 8.42V72C1.04532 73.0834 1.29217 74.153 1.7711 75.1247C2.25003 76.0965 2.94798 76.9438 3.80999 77.6C6.31999 79.66 9.80999 80.6 13.29 81.26C19.5016 82.2769 25.7857 82.7852 32.08 82.78C40.36 82.93 48.63 82.78 56.91 82.7L63.57 82.61V72.93H71V8.65H16ZM2.59999 68.75C3.23635 68.1014 4.00566 67.5985 4.85499 67.2756C5.70432 66.9528 6.61351 66.8178 7.51999 66.88H7.69999C6.00505 66.9115 4.36213 67.4708 2.99999 68.48C2.84999 68.57 2.71999 68.65 2.60999 68.75H2.59999Z" fill="#D0E4F1" stroke="#D0E4F1" stroke-linecap="round" stroke-linejoin="round"/>
<path d="M70.96 6.79H24.38V72.66H70.96V6.79Z" fill="white" stroke="#3F555A" stroke-linecap="round" stroke-linejoin="round"/>
<path d="M64.7 72.66V82.58L59.05 82.68C52.05 82.8 45.05 82.92 38.05 82.76C32.7017 82.7637 27.366 82.2412 22.12 81.2C19.2 80.55 16.21 79.55 14.12 77.44C12.03 75.33 10.98 71.84 12.48 69.25C13.2112 68.1239 14.2935 67.2704 15.5591 66.822C16.8247 66.3736 18.2029 66.3553 19.48 66.77C20.7459 67.2367 21.8683 68.0254 22.7363 69.0583C23.6044 70.0912 24.1881 71.3326 24.43 72.66H64.7Z" fill="white"/>
<path d="M59.92 77.76C59.92 77.76 39.66 77.76 38.14 77.76C33.237 77.6672 28.3473 77.216 23.51 76.41C19.61 75.72 14.64 74.72 12.67 70.8C12.4006 70.3307 12.3219 69.7758 12.45 69.25C12.5629 68.9321 12.7477 68.6447 12.99 68.41C13.7782 67.6696 14.7565 67.1625 15.8158 66.9453C16.8752 66.7282 17.9741 66.8094 18.99 67.18C21.0375 67.9859 22.7077 69.5312 23.67 71.51C23.8078 71.9228 24.0832 72.2758 24.45 72.51C24.6804 72.5934 24.9257 72.6274 25.17 72.61H54.81C56.09 72.61 59.95 72.73 59.95 72.73L59.92 77.76Z" fill="#D0E4F1"/>
<path d="M64.7 72.66V82.58L59.05 82.68C52.05 82.8 45.05 82.92 38.05 82.76C32.7017 82.7637 27.366 82.2412 22.12 81.2C19.2 80.55 16.21 79.55 14.12 77.44C12.03 75.33 10.98 71.84 12.48 69.25C13.2112 68.1239 14.2935 67.2704 15.5591 66.822C16.8247 66.3736 18.2029 66.3553 19.48 66.77C20.7459 67.2367 21.8683 68.0254 22.7363 69.0583C23.6044 70.0912 24.1881 71.3326 24.43 72.66H64.7Z" stroke="#3F555A" stroke-linecap="round" stroke-linejoin="round"/>
<path d="M64.77 34.74V11.22" stroke="#D5D5D7" stroke-linecap="round" stroke-linejoin="round"/>
<path d="M59.22 34.74V11.22" stroke="#D5D5D7" stroke-linecap="round" stroke-linejoin="round"/>
<path d="M53.67 34.74V11.22" stroke="#D5D5D7" stroke-linecap="round" stroke-linejoin="round"/>
<path d="M48.12 34.74V11.22" stroke="#D5D5D7" stroke-linecap="round" stroke-linejoin="round"/>
<path d="M42.58 34.74V11.22" stroke="#D5D5D7" stroke-linecap="round" stroke-linejoin="round"/>
<path d="M37.03 34.74V11.22" stroke="#3F555A" stroke-linecap="round" stroke-linejoin="round"/>
<path d="M34.33 12.03H29.04" stroke="#3F555A" stroke-linecap="round" stroke-linejoin="round"/>
<path d="M34.33 14.77H31.59" stroke="#3F555A" stroke-linecap="round" stroke-linejoin="round"/>
<path d="M34.33 17.5H33.39" stroke="#3F555A" stroke-linecap="round" stroke-linejoin="round"/>
<path d="M34.33 20.24H28.38" stroke="#3F555A" stroke-linecap="round" stroke-linejoin="round"/>
<path d="M30.06 22.98H34.33" stroke="#3F555A" stroke-linecap="round" stroke-linejoin="round"/>
<path d="M28.02 25.72H34.33" stroke="#3F555A" stroke-linecap="round" stroke-linejoin="round"/>
<path d="M31.36 28.46H34.33" stroke="#3F555A" stroke-linecap="round" stroke-linejoin="round"/>
<path d="M29.08 31.2H34.33" stroke="#3F555A" stroke-linecap="round" stroke-linejoin="round"/>
<path d="M32.03 33.94H34.33" stroke="#3F555A" stroke-linecap="round" stroke-linejoin="round"/>
<path d="M38.8 12.03H62.33" stroke="#F56F40" stroke-linecap="round" stroke-linejoin="round"/>
<path d="M38.8 14.76H51.43" stroke="#19BC9C" stroke-linecap="round" stroke-linejoin="round"/>
<path d="M38.8 17.5H43.73" stroke="#3290C1" stroke-linecap="round" stroke-linejoin="round"/>
<path d="M38.8 20.24H65.13" stroke="#F56F40" stroke-linecap="round" stroke-linejoin="round"/>
<path d="M57.95 22.98H38.8" stroke="#19BC9C" stroke-linecap="round" stroke-linejoin="round"/>
<path d="M66.66 25.72H38.8" stroke="#3290C1" stroke-linecap="round" stroke-linejoin="round"/>
<path d="M52.4 28.46H38.8" stroke="#F56F40" stroke-linecap="round" stroke-linejoin="round"/>
<path d="M62.17 31.2H38.8" stroke="#19BC9C" stroke-linecap="round" stroke-linejoin="round"/>
<path d="M49.53 33.94H38.8" stroke="#3290C1" stroke-linecap="round" stroke-linejoin="round"/>
<path d="M31.27 40.8H28.38V51.3H31.27V40.8Z" fill="white" stroke="#109995" stroke-linecap="round" stroke-linejoin="round"/>
<path d="M31.27 54.12H28.38V67.06H31.27V54.12Z" stroke="#1A628A" stroke-linecap="round" stroke-linejoin="round"/>
<path d="M31.27 51.3H36.39C48.59 51.3 53.39 61.38 63.77 61.38V56C53.4 56 48.59 45.92 36.39 45.92C48.59 45.92 53.39 50.45 63.77 50.45V47.68C53.4 47.68 48.59 43.15 36.39 43.15H63.77V40.8H31.27V51.3Z" fill="#19BC9C" stroke="#109995" stroke-linecap="round" stroke-linejoin="round"/>
<path d="M31.27 67.05H63.77V61.38C53.4 61.38 48.59 59.97 36.39 59.97C48.59 59.97 53.39 53.46 63.77 53.46V50.46C53.4 50.46 48.59 56.46 36.39 56.46C48.59 56.46 53.39 45.46 63.77 45.46V43.15C53.4 43.15 48.59 54.15 36.39 54.15H31.27V67.05Z" fill="#3290C1" stroke="#1A628A" stroke-linecap="round" stroke-linejoin="round"/>
<path d="M12.4 3.38C11.8885 4.35904 11.6468 5.45665 11.7 6.56V72.43C11.7 72.43 11.7 66.43 17.18 66.43C17.6819 66.4332 18.1818 66.4935 18.67 66.61C17.73 44.61 18.47 22.82 17.21 0.610001C16.2422 0.639968 15.2967 0.908489 14.4576 1.39172C13.6185 1.87495 12.9117 2.55793 12.4 3.38V3.38Z" fill="#D0E4F1" stroke="#D0E4F1" stroke-linecap="round" stroke-linejoin="round"/>
<path d="M19.43 0.900001C18.713 0.673737 17.9603 0.582193 17.21 0.63C18.47 22.87 17.73 44.63 18.67 66.63C22.97 67.63 24.37 72.63 24.37 72.63V6.79C24.1291 5.46374 23.5468 4.2231 22.6806 3.1903C21.8144 2.1575 20.6941 1.36815 19.43 0.900001V0.900001Z" fill="white"/>
<path d="M11.7 72.43C11.7 72.43 11.7 66.43 17.18 66.43C22.66 66.43 24.37 72.61 24.37 72.61V6.79C24.1282 5.46263 23.5444 4.22124 22.6764 3.18834C21.8083 2.15544 20.6859 1.36672 19.42 0.900001C18.1429 0.485348 16.7647 0.503632 15.4991 0.952022C14.2335 1.40041 13.1512 2.25385 12.42 3.38C11.9084 4.35904 11.6668 5.45665 11.72 6.56L11.7 72.43Z" stroke="#3F555A" stroke-linecap="round" stroke-linejoin="round"/>
<path d="M66.66 40.8H63.77V45.49H66.66V40.8Z" fill="white" stroke="#109995" stroke-linecap="round" stroke-linejoin="round"/>
<path d="M66.66 47.68H63.77V53.46H66.66V47.68Z" fill="white" stroke="#109995" stroke-linecap="round" stroke-linejoin="round"/>
<path d="M66.66 56H63.77V67.05H66.66V56Z" fill="white" stroke="#109995" stroke-linecap="round" stroke-linejoin="round"/>
</svg>
