<svg width="200" height="116" viewBox="0 0 200 116" fill="none" xmlns="http://www.w3.org/2000/svg">
<path d="M168.76 18.98H41.1C39.4432 18.98 38.1 20.3231 38.1 21.98V112.87C38.1 114.527 39.4432 115.87 41.1 115.87H168.76C170.417 115.87 171.76 114.527 171.76 112.87V21.98C171.76 20.3231 170.417 18.98 168.76 18.98Z" fill="#D0E4F1"/>
<path d="M7.88999 76.25H30.53C30.8539 76.2487 31.1748 76.3113 31.4745 76.4344C31.7741 76.5574 32.0464 76.7384 32.2759 76.967C32.5054 77.1955 32.6875 77.4672 32.8118 77.7663C32.936 78.0654 33 78.3861 33 78.71V97.33C33 97.9824 32.7408 98.6082 32.2795 99.0695C31.8181 99.5308 31.1924 99.79 30.54 99.79H17.29L11.29 105.79V99.79H7.88999C7.23756 99.79 6.61185 99.5308 6.15051 99.0695C5.68917 98.6082 5.42999 97.9824 5.42999 97.33V78.71C5.42999 78.0576 5.68917 77.4319 6.15051 76.9705C6.61185 76.5092 7.23756 76.25 7.88999 76.25Z" fill="#F7D23F"/>
<path d="M23.17 82.9H11.82" stroke="white" stroke-linecap="round" stroke-linejoin="round"/>
<path d="M27.16 87.95H11.82" stroke="white" stroke-linecap="round" stroke-linejoin="round"/>
<path d="M23.17 93H11.82" stroke="white" stroke-linecap="round" stroke-linejoin="round"/>
<path d="M178.88 0.129997H154.14C153.554 0.129997 152.992 0.362835 152.577 0.77729C152.163 1.19175 151.93 1.75387 151.93 2.34V19.05C151.93 19.6361 152.163 20.1983 152.577 20.6127C152.992 21.0272 153.554 21.26 154.14 21.26H170.44L175.83 26.65V21.26H178.83C179.416 21.26 179.978 21.0272 180.393 20.6127C180.807 20.1983 181.04 19.6361 181.04 19.05V2.34C181.04 1.76243 180.814 1.20776 180.41 0.794708C180.007 0.381661 179.457 0.143064 178.88 0.129997V0.129997Z" fill="#F7D23F"/>
<path d="M157.43 6.1H175.35" stroke="white" stroke-linecap="round" stroke-linejoin="round"/>
<path d="M169.91 10.64H175.35" stroke="white" stroke-linecap="round" stroke-linejoin="round"/>
<path d="M170.51 15.18H175.35" stroke="white" stroke-linecap="round" stroke-linejoin="round"/>
<path d="M161.76 11.98H34.1C32.4432 11.98 31.1 13.3231 31.1 14.98V105.87C31.1 107.527 32.4432 108.87 34.1 108.87H161.76C163.417 108.87 164.76 107.527 164.76 105.87V14.98C164.76 13.3231 163.417 11.98 161.76 11.98Z" fill="white"/>
<path d="M51.82 60.35C48.4155 60.9168 44.9223 60.593 41.68 59.41C40.0613 58.8113 38.5946 57.8627 37.3846 56.632C36.1746 55.4013 35.2511 53.9187 34.68 52.29C33.52 48.51 34.86 44.29 37.36 41.22C39.86 38.15 43.36 36.1 46.97 34.46C53.9 31.31 61.37 29.52 68.84 28.06C80.7774 25.7309 92.8581 24.2075 105 23.5C115 22.92 125 22.89 134.8 24.88C140.28 25.99 145.8 27.81 150.13 31.33C154.46 34.85 157.54 40.33 157.04 45.9C156.45 52.43 151.25 57.68 145.51 60.84" fill="#D0E4F1"/>
<path d="M131.73 52.68C132.749 53.1484 133.86 53.3859 134.982 53.3755C136.104 53.3651 137.209 53.1072 138.22 52.62C137.41 51.288 136.768 49.8604 136.31 48.37C136.24 48.13 136.19 47.82 136.39 47.67C136.523 47.5921 136.678 47.5638 136.83 47.59L139.05 47.71V46.71C139.03 46.8803 139.065 47.0524 139.15 47.2015C139.234 47.3507 139.364 47.4692 139.52 47.54C139.836 47.6719 140.178 47.7333 140.52 47.72L143.61 47.81C143.058 46.8727 142.893 45.757 143.15 44.7C143.001 44.6891 142.858 44.6338 142.74 44.5411C142.623 44.4484 142.536 44.3227 142.49 44.18C142.406 43.8911 142.369 43.5906 142.38 43.29C142.322 41.9613 141.861 40.6815 141.06 39.62C141.811 39.1335 142.447 38.49 142.925 37.7338C143.404 36.9777 143.712 36.1269 143.83 35.24C143.906 34.8335 143.899 34.4157 143.81 34.0119C143.721 33.6081 143.551 33.2265 143.31 32.89C142.994 32.5399 142.6 32.2693 142.16 32.1C140.987 31.6244 139.695 31.5278 138.465 31.8237C137.235 32.1196 136.128 32.7932 135.3 33.75C134.319 35.1081 133.637 36.6589 133.3 38.3C133.24 38.4853 133.24 38.6847 133.3 38.87C133.367 39.0115 133.47 39.1324 133.6 39.22C134.065 39.5829 134.576 39.8822 135.12 40.11C134.663 42.2437 133.478 44.1524 131.77 45.51C130.771 46.3195 129.655 46.9736 128.46 47.45C127.86 47.69 125.96 47.91 126.15 48.65C126.34 49.39 127.98 50.34 128.52 50.75C129.496 51.5385 130.576 52.188 131.73 52.68V52.68Z" fill="#F56F40"/>
<path d="M120 53C117 49.88 111.55 44.38 108.63 41.73C106.97 43.0633 105.357 44.4467 103.79 45.88C103.299 46.7255 102.582 47.4179 101.72 47.88C101.44 48.15 101.16 48.42 100.88 48.69C100.668 48.6218 100.46 48.5383 100.26 48.44C99.2481 48.7092 98.1769 48.6498 97.2009 48.2706C96.2249 47.8913 95.3947 47.2118 94.83 46.33C93.24 43.97 91.9 41.42 90.38 39.01L87.82 41.26C87.5422 41.9593 87.103 42.5829 86.5381 43.0799C85.9733 43.577 85.2989 43.9334 84.57 44.12L84.4 44.27V44.18C83.1402 44.5622 81.7805 44.4322 80.616 43.8181C79.4515 43.2041 78.5762 42.1555 78.18 40.9C77.4702 38.8029 76.6148 36.7579 75.62 34.78C73.6867 38.6333 71.64 42.4267 69.48 46.16C69.1969 47.3142 68.5773 48.3584 67.7 49.16C67.5629 49.4181 67.3585 49.6343 67.1085 49.7857C66.8585 49.9371 66.5723 50.0181 66.28 50.02V50.02C65.2947 50.3618 64.2308 50.407 63.22 50.15C61.9801 49.7611 60.9175 48.9465 60.22 47.85C61.22 49.17 60.01 47.65 59.75 47.37L58.82 46.37L56.48 49.63L56.31 49.3C54.17 51.15 50.51 51.46 48.57 48.3C47.3925 46.3008 46.334 44.2339 45.4 42.11L41.99 47.11C41.39 47.99 39.49 50.25 37.87 52.11C37.6618 52.3641 37.5285 52.671 37.4848 52.9965C37.4412 53.3221 37.489 53.6533 37.6228 53.9532C37.7567 54.2531 37.9714 54.5099 38.2429 54.6948C38.5143 54.8796 38.8319 54.9853 39.16 55L118.98 55.23C119.238 55.2293 119.49 55.1546 119.707 55.0149C119.924 54.8752 120.097 54.6762 120.204 54.4415C120.311 54.2069 120.349 53.9464 120.313 53.6909C120.277 53.4355 120.168 53.1957 120 53V53Z" fill="#19BC9C"/>
<path d="M39.59 49.71L49.26 37.06L56.24 49.56L61.17 43.24L67.09 50.06L79.41 28.7L85.02 43.29L93.53 35.69L101.71 47.41L111.54 39.38L117.65 45.73" stroke="#109995" stroke-linecap="round" stroke-linejoin="round"/>
<path d="M78.48 42.94V60.34" stroke="#109995" stroke-linecap="round" stroke-linejoin="round"/>
<path d="M114.06 55.47H117.64" stroke="#109995" stroke-linecap="round" stroke-linejoin="round"/>
<path d="M95.42 55.63C99.96 55.63 104.5 55.5967 109.04 55.53" stroke="#109995" stroke-linecap="round" stroke-linejoin="round"/>
<path d="M80.37 55.65H90.37" stroke="#109995" stroke-linecap="round" stroke-linejoin="round"/>
<path d="M63.16 55.56C67.46 55.6 71.7633 55.6267 76.07 55.64" stroke="#109995" stroke-linecap="round" stroke-linejoin="round"/>
<path d="M50.81 55.42L58.37 55.52" stroke="#109995" stroke-linecap="round" stroke-linejoin="round"/>
<path d="M40.51 55.29L47.29 55.42" stroke="#109995" stroke-linecap="round" stroke-linejoin="round"/>
<path d="M61.49 50.37V60.73" stroke="#109995" stroke-linecap="round" stroke-linejoin="round"/>
<path d="M48.74 46.66V60.47" stroke="#109995" stroke-linecap="round" stroke-linejoin="round"/>
<path d="M93.22 44.53V60.33" stroke="#109995" stroke-linecap="round" stroke-linejoin="round"/>
<path d="M111.54 47.85V60.6" stroke="#109995" stroke-linecap="round" stroke-linejoin="round"/>
<path d="M78.71 46.4L80.58 44.65" stroke="#109995" stroke-linecap="round" stroke-linejoin="round"/>
<path d="M79 51.84C80.5733 50.3667 82.2167 48.97 83.93 47.65" stroke="#109995" stroke-linecap="round" stroke-linejoin="round"/>
<path d="M72.79 45L78.14 49.9" stroke="#109995" stroke-linecap="round" stroke-linejoin="round"/>
<path d="M72.68 50L74.61 51.52" stroke="#109995" stroke-linecap="round" stroke-linejoin="round"/>
<path d="M88.77 46.68L92.39 49.98" stroke="#109995" stroke-linecap="round" stroke-linejoin="round"/>
<path d="M93.79 53.3L97.57 49.68" stroke="#109995" stroke-linecap="round" stroke-linejoin="round"/>
<path d="M108.74 50L111.41 52.36" stroke="#109995" stroke-linecap="round" stroke-linejoin="round"/>
<path d="M111.72 49.52L113.72 47.62" stroke="#109995" stroke-linecap="round" stroke-linejoin="round"/>
<path d="M61.54 53.3L63.43 51.1" stroke="#109995" stroke-linecap="round" stroke-linejoin="round"/>
<path d="M48.7 52.58L52.41 49.2" stroke="#109995" stroke-linecap="round" stroke-linejoin="round"/>
<path d="M45.35 46.84L48.35 49.67" stroke="#109995" stroke-linecap="round" stroke-linejoin="round"/>
<path d="M15.53 40.34H1.71C1.31217 40.34 0.930646 40.498 0.649342 40.7793C0.368037 41.0606 0.209999 41.4422 0.209999 41.84V53.2C0.209999 53.5978 0.368037 53.9794 0.649342 54.2607C0.930646 54.542 1.31217 54.7 1.71 54.7H9.79L13.45 58.36V54.7H15.52C15.9178 54.7 16.2994 54.542 16.5807 54.2607C16.862 53.9794 17.02 53.5978 17.02 53.2V41.84C17.02 41.4439 16.8633 41.0639 16.5842 40.7829C16.3051 40.5018 15.9261 40.3426 15.53 40.34Z" fill="#D0E4F1"/>
<path d="M177.87 47.43H197.64C198.21 47.43 198.757 47.6565 199.16 48.0597C199.563 48.4629 199.79 49.0098 199.79 49.58V65.84C199.79 66.4102 199.563 66.9571 199.16 67.3603C198.757 67.7635 198.21 67.99 197.64 67.99H186.07L180.83 73.23V68H177.83C177.26 68 176.713 67.7735 176.31 67.3703C175.907 66.9671 175.68 66.4202 175.68 65.85V49.58C175.68 49.2943 175.737 49.0114 175.847 48.7479C175.958 48.4844 176.12 48.2456 176.324 48.0454C176.528 47.8452 176.769 47.6877 177.035 47.582C177.3 47.4764 177.584 47.4247 177.87 47.43V47.43Z" fill="#D0E4F1"/>
<path d="M137.21 77.41C137.21 76.8796 136.999 76.3709 136.624 75.9958C136.249 75.6207 135.74 75.41 135.21 75.41H94.58C94.0496 75.41 93.5409 75.6207 93.1658 75.9958C92.7907 76.3709 92.58 76.8796 92.58 77.41V82.16C92.58 82.6904 92.7907 83.1991 93.1658 83.5742C93.5409 83.9493 94.0496 84.16 94.58 84.16H128.82C129.35 84.16 129.859 83.9493 130.234 83.5742C130.609 83.1991 130.82 82.6904 130.82 82.16V81.43C130.82 80.8996 131.031 80.3909 131.406 80.0158C131.781 79.6407 132.29 79.43 132.82 79.43H135.17C135.7 79.43 136.209 79.2193 136.584 78.8442C136.959 78.4691 137.17 77.9604 137.17 77.43L137.21 77.41Z" fill="#F7D23F"/>
<path d="M49.66 82.11H38.46C38.46 81.4867 38.2124 80.889 37.7717 80.4483C37.331 80.0076 36.7333 79.76 36.11 79.76V68.56C36.7333 68.56 37.331 68.3124 37.7717 67.8717C38.2124 67.431 38.46 66.8333 38.46 66.21H49.66C49.66 66.8315 49.9062 67.4278 50.3448 67.8682C50.7833 68.3086 51.3785 68.5574 52 68.56V79.76C51.3785 79.7626 50.7833 80.0114 50.3448 80.4518C49.9062 80.8923 49.66 81.4885 49.66 82.11V82.11Z" fill="#D0E4F1" stroke="#A1C2D8" stroke-linecap="round" stroke-linejoin="round"/>
<path d="M40.37 74.91C40.0396 74.9733 39.745 75.1586 39.545 75.4291C39.3449 75.6996 39.2539 76.0355 39.29 76.37C39.29 76.7858 39.427 77.19 39.68 77.52C39.8171 77.6894 39.9911 77.8251 40.1886 77.917C40.3862 78.0088 40.6022 78.0543 40.82 78.05C41.1619 77.9854 41.4846 77.8438 41.7635 77.6359C42.0425 77.428 42.2704 77.1592 42.43 76.85C44.03 74.54 45.5 72.16 46.95 69.77V78.05" stroke="white" stroke-linecap="round" stroke-linejoin="round"/>
<path d="M48.32 78.06H45.52" stroke="white" stroke-linecap="round" stroke-linejoin="round"/>
<path d="M46.66 74.87H43.86" stroke="white" stroke-linecap="round" stroke-linejoin="round"/>
<path d="M78.19 67.8H82.37" stroke="#A1C2D8" stroke-linecap="round" stroke-linejoin="round"/>
<path d="M65 67.8H74" stroke="#A1C2D8" stroke-linecap="round" stroke-linejoin="round"/>
<path d="M57.67 67.8H61.21" stroke="#A1C2D8" stroke-linecap="round" stroke-linejoin="round"/>
<path d="M72.06 72.88H83.29" stroke="#A1C2D8" stroke-linecap="round" stroke-linejoin="round"/>
<path d="M57.67 72.88H67.13" stroke="#A1C2D8" stroke-linecap="round" stroke-linejoin="round"/>
<path d="M56.64 77.5H65.75" stroke="#A1C2D8" stroke-linecap="round" stroke-linejoin="round"/>
<path d="M69.1 77.5H78.2" stroke="#A1C2D8" stroke-linecap="round" stroke-linejoin="round"/>
<path d="M56.64 82.11H63.07" stroke="#A1C2D8" stroke-linecap="round" stroke-linejoin="round"/>
<path d="M66.15 82.11H72.58" stroke="#A1C2D8" stroke-linecap="round" stroke-linejoin="round"/>
<path d="M76.41 82.11H82.84" stroke="#A1C2D8" stroke-linecap="round" stroke-linejoin="round"/>
<path d="M73.55 86.73H83.29" stroke="#A1C2D8" stroke-linecap="round" stroke-linejoin="round"/>
<path d="M52 86.73H68.35" stroke="#A1C2D8" stroke-linecap="round" stroke-linejoin="round"/>
<path d="M38 86.73H46.17" stroke="#A1C2D8" stroke-linecap="round" stroke-linejoin="round"/>
<path d="M83.65 93.6C83.1196 93.6 82.6109 93.3893 82.2358 93.0142C81.8607 92.6391 81.65 92.1304 81.65 91.6V91C81.65 90.4696 81.4393 89.9609 81.0642 89.5858C80.6891 89.2107 80.1804 89 79.65 89H38.05C37.5196 89 37.0109 89.2107 36.6358 89.5858C36.2607 89.9609 36.05 90.4696 36.05 91V101.07C36.05 101.6 36.2607 102.109 36.6358 102.484C37.0109 102.859 37.5196 103.07 38.05 103.07H73C73.5304 103.07 74.0391 102.859 74.4142 102.484C74.7893 102.109 75 101.6 75 101.07V100.27C75 99.7396 75.2107 99.2309 75.5858 98.8558C75.9609 98.4807 76.4696 98.27 77 98.27H83.76C84.2904 98.27 84.7991 98.0593 85.1742 97.6842C85.5493 97.3091 85.76 96.8004 85.76 96.27V95.44C85.719 94.9182 85.4751 94.4333 85.0806 94.0893C84.6861 93.7453 84.1725 93.5696 83.65 93.6V93.6Z" fill="#19BC9C"/>
<path d="M62.09 91.35H77.72" stroke="white" stroke-linecap="round" stroke-linejoin="round"/>
<path d="M38 91.35H56.3" stroke="white" stroke-linecap="round" stroke-linejoin="round"/>
<path d="M75.43 96H83.29" stroke="white" stroke-linecap="round" stroke-linejoin="round"/>
<path d="M51.69 96H70" stroke="white" stroke-linecap="round" stroke-linejoin="round"/>
<path d="M38 96H44.85" stroke="white" stroke-linecap="round" stroke-linejoin="round"/>
<path d="M64.39 100.58H72.17" stroke="white" stroke-linecap="round" stroke-linejoin="round"/>
<path d="M38 100.58H58.6" stroke="white" stroke-linecap="round" stroke-linejoin="round"/>
<path d="M134.44 67.8H138.62" stroke="#A1C2D8" stroke-linecap="round" stroke-linejoin="round"/>
<path d="M121.21 67.8H130.27" stroke="#A1C2D8" stroke-linecap="round" stroke-linejoin="round"/>
<path d="M112.81 67.8H117.12" stroke="#A1C2D8" stroke-linecap="round" stroke-linejoin="round"/>
<path d="M94.58 67.8H109" stroke="#A1C2D8" stroke-linecap="round" stroke-linejoin="round"/>
<path d="M128.32 72.88H139.55" stroke="#A1C2D8" stroke-linecap="round" stroke-linejoin="round"/>
<path d="M105.82 72.88H123.39" stroke="#A1C2D8" stroke-linecap="round" stroke-linejoin="round"/>
<path d="M94.58 72.88H101.58" stroke="#A1C2D8" stroke-linecap="round" stroke-linejoin="round"/>
<path d="M111.14 77.5H119.61" stroke="white" stroke-linecap="round" stroke-linejoin="round"/>
<path d="M94.58 77.5H107.58" stroke="white" stroke-linecap="round" stroke-linejoin="round"/>
<path d="M125.35 77.5H134.46" stroke="white" stroke-linecap="round" stroke-linejoin="round"/>
<path d="M103.06 82.11H112.25" stroke="white" stroke-linecap="round" stroke-linejoin="round"/>
<path d="M94.58 82.11H99.53" stroke="white" stroke-linecap="round" stroke-linejoin="round"/>
<path d="M117.28 82.11H128.84" stroke="white" stroke-linecap="round" stroke-linejoin="round"/>
<path d="M132.66 82.11H139.09" stroke="#A1C2D8" stroke-linecap="round" stroke-linejoin="round"/>
<path d="M129.81 86.73H139.55" stroke="#A1C2D8" stroke-linecap="round" stroke-linejoin="round"/>
<path d="M108.25 86.73H124.6" stroke="#A1C2D8" stroke-linecap="round" stroke-linejoin="round"/>
<path d="M94.23 86.73H102.4" stroke="#A1C2D8" stroke-linecap="round" stroke-linejoin="round"/>
<path d="M118.34 91.35H134" stroke="#A1C2D8" stroke-linecap="round" stroke-linejoin="round"/>
<path d="M94.23 91.35H112.55" stroke="#A1C2D8" stroke-linecap="round" stroke-linejoin="round"/>
<path d="M131.69 96H139.55" stroke="#A1C2D8" stroke-linecap="round" stroke-linejoin="round"/>
<path d="M107.94 96H126.22" stroke="#A1C2D8" stroke-linecap="round" stroke-linejoin="round"/>
<path d="M94.23 96H101.08" stroke="#A1C2D8" stroke-linecap="round" stroke-linejoin="round"/>
<path d="M120.65 100.58H128.43" stroke="#A1C2D8" stroke-linecap="round" stroke-linejoin="round"/>
<path d="M94.23 100.58H114.86" stroke="#A1C2D8" stroke-linecap="round" stroke-linejoin="round"/>
<path d="M161.76 11.98H34.1C32.4432 11.98 31.1 13.3231 31.1 14.98V105.87C31.1 107.527 32.4432 108.87 34.1 108.87H161.76C163.417 108.87 164.76 107.527 164.76 105.87V14.98C164.76 13.3231 163.417 11.98 161.76 11.98Z" stroke="#3F555A" stroke-linecap="round" stroke-linejoin="round"/>
<path d="M34.26 16.14C34.8509 16.14 35.33 15.6609 35.33 15.07C35.33 14.4791 34.8509 14 34.26 14C33.6691 14 33.19 14.4791 33.19 15.07C33.19 15.6609 33.6691 16.14 34.26 16.14Z" fill="#F56F40" stroke="#D65129" stroke-linecap="round" stroke-linejoin="round"/>
<path d="M38.36 16.14C38.951 16.14 39.43 15.6609 39.43 15.07C39.43 14.4791 38.951 14 38.36 14C37.7691 14 37.29 14.4791 37.29 15.07C37.29 15.6609 37.7691 16.14 38.36 16.14Z" fill="#19BC9C" stroke="#109995" stroke-linecap="round" stroke-linejoin="round"/>
<path d="M42.46 16.14C43.0509 16.14 43.53 15.6609 43.53 15.07C43.53 14.4791 43.0509 14 42.46 14C41.8691 14 41.39 14.4791 41.39 15.07C41.39 15.6609 41.8691 16.14 42.46 16.14Z" fill="#2173A1" stroke="#3290C1" stroke-linecap="round" stroke-linejoin="round"/>
<path d="M32.99 17.98H162.76" stroke="#3F555A" stroke-linecap="round" stroke-linejoin="round"/>
<path d="M36.1 60.86H155.72" stroke="#109995" stroke-linecap="round" stroke-linejoin="round"/>
<path d="M59.08 36.04C61.3554 36.04 63.2 34.1954 63.2 31.92C63.2 29.6446 61.3554 27.8 59.08 27.8C56.8046 27.8 54.96 29.6446 54.96 31.92C54.96 34.1954 56.8046 36.04 59.08 36.04Z" fill="white" stroke="#A1C2D8" stroke-linecap="round" stroke-linejoin="round"/>
<path d="M141.39 53.5C141.98 55.61 142.74 56.5 143.69 58.5C143.739 58.6242 143.818 58.7342 143.92 58.82C144.047 58.8942 144.193 58.9322 144.34 58.93L146.12 59.07C145.024 59.6915 143.868 60.2008 142.67 60.59C141.342 58.1934 140.183 55.7074 139.2 53.15" fill="white"/>
<path d="M141.39 53.5C141.98 55.61 142.74 56.5 143.69 58.5C143.739 58.6242 143.818 58.7342 143.92 58.82C144.047 58.8942 144.193 58.9322 144.34 58.93L146.12 59.07C145.024 59.6915 143.868 60.2008 142.67 60.59C141.342 58.1934 140.183 55.7074 139.2 53.15" stroke="#3F555A" stroke-linecap="round" stroke-linejoin="round"/>
<path d="M132.45 52.82C131.397 55.1733 130.283 57.5067 129.11 59.82L131.99 60.9C132.089 60.5197 132.089 60.1203 131.99 59.74C131.904 59.5267 131.857 59.2999 131.85 59.07C131.882 58.8728 131.957 58.6851 132.07 58.52L135.18 53.2" fill="white"/>
<path d="M132.45 52.82C131.397 55.1733 130.283 57.5067 129.11 59.82L131.99 60.9C132.089 60.5197 132.089 60.1203 131.99 59.74C131.904 59.5267 131.857 59.2999 131.85 59.07C131.882 58.8728 131.957 58.6851 132.07 58.52L135.18 53.2" stroke="#3F555A" stroke-linecap="round" stroke-linejoin="round"/>
<path d="M142.75 44.82C142.844 43.9073 142.752 42.9851 142.481 42.1087C142.209 41.2323 141.763 40.4198 141.17 39.72C141.407 39.5908 141.631 39.4402 141.84 39.27C142.825 38.3498 143.479 37.13 143.7 35.8C143.927 35.0132 143.874 34.1721 143.55 33.42C143.348 33.0598 143.072 32.7463 142.74 32.5C142.235 32.1056 141.657 31.8152 141.04 31.6458C140.422 31.4764 139.776 31.4314 139.141 31.5132C138.506 31.5951 137.893 31.8022 137.338 32.1227C136.784 32.4431 136.298 32.8705 135.91 33.38C135.389 34.1614 134.954 34.9962 134.61 35.87C134.25 36.64 133.22 37.56 133.03 38.33C132.84 39.1 134.03 39.67 135.43 40.01C135.38 40.08 135.31 40.14 135.27 40.21C134.18 41.92 133.67 43.74 132.01 45.11C130.202 46.5475 128.125 47.6083 125.9 48.23C127.389 49.9831 129.302 51.3254 131.457 52.1289C133.612 52.9325 135.937 53.1704 138.21 52.82" stroke="#3F555A" stroke-linecap="round" stroke-linejoin="round"/>
<path d="M134.88 39.93C135.955 40.2712 137.085 40.4036 138.21 40.32" stroke="#3F555A" stroke-linecap="round" stroke-linejoin="round"/>
<path d="M137.56 46.09C137.767 46.4033 138.004 46.6948 138.27 46.96C138.543 47.2289 138.892 47.407 139.27 47.47" stroke="#3F555A" stroke-linecap="round" stroke-linejoin="round"/>
<path d="M141.23 45.07C142.007 45.0821 142.779 44.9534 143.51 44.69C143.532 44.6786 143.556 44.6727 143.58 44.6727C143.604 44.6727 143.628 44.6786 143.65 44.69C143.65 44.69 143.7 44.74 143.65 44.77C143.485 45.1949 143.412 45.6499 143.437 46.105C143.461 46.5601 143.581 47.0049 143.79 47.41" stroke="#3F555A" stroke-linecap="round" stroke-linejoin="round"/>
<path d="M143.91 44.79C144.077 44.5386 144.313 44.3407 144.59 44.22C144.77 44.14 145.03 44.13 145.12 44.31C145.21 44.49 145.12 44.61 145.12 44.75C145.276 44.7282 145.435 44.7411 145.585 44.7878C145.736 44.8345 145.874 44.9137 145.99 45.02C146.255 45.2409 146.439 45.5439 146.512 45.881C146.586 46.2182 146.545 46.5702 146.395 46.8813C146.246 47.1924 145.997 47.4448 145.688 47.5985C145.38 47.7523 145.028 47.7985 144.69 47.73C144.55 47.73 144.39 47.63 144.36 47.49" fill="white"/>
<path d="M143.91 44.79C144.077 44.5386 144.313 44.3407 144.59 44.22C144.77 44.14 145.03 44.13 145.12 44.31C145.21 44.49 145.12 44.61 145.12 44.75C145.276 44.7282 145.435 44.7411 145.585 44.7878C145.736 44.8345 145.874 44.9137 145.99 45.02C146.255 45.2409 146.439 45.5439 146.512 45.881C146.586 46.2182 146.545 46.5702 146.395 46.8813C146.246 47.1924 145.997 47.4448 145.688 47.5985C145.38 47.7523 145.028 47.7985 144.69 47.73C144.55 47.73 144.39 47.63 144.36 47.49" stroke="#3F555A" stroke-linecap="round" stroke-linejoin="round"/>
<path d="M157.77 67.8H147.04C146.206 67.8 145.53 68.476 145.53 69.31V78.27C145.53 79.104 146.206 79.78 147.04 79.78H157.77C158.604 79.78 159.28 79.104 159.28 78.27V69.31C159.28 68.476 158.604 67.8 157.77 67.8Z" fill="#F7D23F"/>
<path d="M148.86 77.47V82.82C148.862 82.929 148.896 83.035 148.958 83.125C149.02 83.2149 149.106 83.2849 149.207 83.3263C149.308 83.3677 149.419 83.3788 149.526 83.3581C149.633 83.3374 149.732 83.286 149.81 83.21L154.7 78.32L148.86 77.47Z" fill="#F7D23F"/>
<path d="M149.79 71.74H155.01" stroke="white" stroke-linecap="round" stroke-linejoin="round"/>
<path d="M149.79 73.79H155.01" stroke="white" stroke-linecap="round" stroke-linejoin="round"/>
<path d="M149.79 75.84H155.01" stroke="white" stroke-linecap="round" stroke-linejoin="round"/>
<path d="M5.55 44.54C5.66 44.54 11.7 44.66 11.7 44.66" stroke="white" stroke-linecap="round" stroke-linejoin="round"/>
<path d="M3.67999 47.3H13.56" stroke="white" stroke-linecap="round" stroke-linejoin="round"/>
<path d="M5.98 49.93H11.26" stroke="white" stroke-linecap="round" stroke-linejoin="round"/>
<path d="M185.21 54L185.52 54.17H191" stroke="white" stroke-linecap="round" stroke-linejoin="round"/>
<path d="M183.46 57.82H192.73" stroke="white" stroke-linecap="round" stroke-linejoin="round"/>
<path d="M185.62 61.51H190.57" stroke="white" stroke-linecap="round" stroke-linejoin="round"/>
<path d="M144.19 47.94C144.4 48.04 144.47 48.25 144.43 48.74C144.23 51.2 142.36 54.51 139.43 53.22C138.933 52.9928 138.486 52.6689 138.115 52.2671C137.744 51.8654 137.457 51.3939 137.27 50.88C136.864 49.8785 136.621 48.8184 136.55 47.74C138.8 47.74 141.05 47.74 143.29 47.84C143.593 47.8243 143.897 47.8581 144.19 47.94V47.94Z" fill="#3290C1" stroke="#1E6B96" stroke-linecap="round" stroke-linejoin="round"/>
<path d="M140.05 47.26C140.032 46.7483 140.086 46.2367 140.21 45.74C140.26 45.453 140.396 45.1881 140.6 44.98C140.709 44.8844 140.85 44.8316 140.995 44.8316C141.14 44.8316 141.281 44.8844 141.39 44.98" stroke="#1E6B96" stroke-linecap="round" stroke-linejoin="round"/>
</svg>
