<?xml version="1.0" encoding="iso-8859-1"?>
<!-- Generator: Adobe Illustrator 22.1.0, SVG Export Plug-In . SVG Version: 6.00 Build 0)  -->
<svg version="1.1" id="Layer_1" xmlns="http://www.w3.org/2000/svg" xmlns:xlink="http://www.w3.org/1999/xlink" x="0px" y="0px"
	 viewBox="0 0 569.29 408.57" style="enable-background:new 0 0 569.29 408.57;" xml:space="preserve">
<title>Products-core-v2-K-12 College Entrance-hero</title>
<path style="opacity:0.5;fill:#A9D7F3;enable-background:new    ;" d="M468.87,133.96c0,0,111.56-0.86,99.5-69.66
	c-7-39.86-78.66-39.37-78.66-39.37H92.88c0,0-49.17-0.49-54,39.37c-8.23,68.8,68.26,69.66,68.26,69.66s15.24-6.15,13.67,19.19
	s-13.67,18.62-13.67,18.62s-53.2-11.48-46.49,41.01c4.42,34.55,37,30.2,62.94,26.48c-1.367,2.707-2.241,5.636-2.58,8.65
	c-5.07,42.2,41.86,42.72,41.86,42.72s9.35-3.77,8.38,11.77s-8.38,11.42-8.38,11.42s-32.65-7-28.54,25.16s48,9.36,57.08,16.37
	c4.66,3.61,6.72,9.57,7.63,14.51c-1.675,2.621-2.297,5.779-1.74,8.84c1.52,11,21.06,12.41,21.06,12.41l108.16,8.5
	c0,0,13.4,1.19,15.08-9.57s-4.52-15.85-10.08-18.3c1-5.22,3.9-12.31,11.57-16.38c13.19-7,77.21,15.8,83.2-16.37
	s-41.6-25.16-41.6-25.16s-5.3,2-9-2.12c5.2,0,20.6-1.13,22.88-15.67c0.35-2.188,0.491-4.405,0.42-6.62
	c19.63-2.77,51.89-11.84,46.7-41.51c-0.569-3.285-1.943-6.377-4-9c38.28,3.76,88.35,9.38,95-26.16c9.78-52.45-67.83-41-67.83-41
	s-17.63,6.72-19.93-18.62S468.87,133.96,468.87,133.96z"/>
<circle style="fill:#D0E4F1;" cx="282.18" cy="150.97" r="8.35"/>
<path style="fill:#D0E4F1;" d="M282.14,160.07c-5.02,0-9.09-4.07-9.09-9.09s4.07-9.09,9.09-9.09c5.02,0,9.09,4.07,9.09,9.09
	c0,0,0,0,0,0C291.224,155.998,287.158,160.064,282.14,160.07z M282.14,143.37c-4.208,0-7.62,3.412-7.62,7.62s3.412,7.62,7.62,7.62
	c4.208,0,7.62-3.412,7.62-7.62c0,0,0,0,0,0c0.006-4.208-3.402-7.624-7.61-7.63c-0.003,0-0.007,0-0.01,0V143.37z"/>
<path style="fill:#D0E4F1;" d="M266.95,140.29c-1.552-6.085-7.348-10.098-13.59-9.41c0.467-8.987-3.978-17.521-11.61-22.29
	c3.523-7.175,5.366-15.057,5.39-23.05c0-43.25-55.13-78.37-123.18-78.37S0.73,42.29,0.73,85.54s55.17,78.37,123.23,78.37
	c32.35,0,61.77-7.94,83.76-20.91c7.403,11.524,22.745,14.865,34.269,7.462c0.559-0.359,1.103-0.74,1.631-1.142
	c3.29,6.132,10.928,8.436,17.06,5.146c5.08-2.726,7.663-8.552,6.27-14.146V140.29z"/>
<path style="fill:#D0E4F1;" d="M123.96,164.65c-68.35,0-124-35.49-124-79.11s55.61-79.11,124-79.11s124,35.49,124,79.11
	c-0.049,7.879-1.845,15.649-5.26,22.75c5.297,3.492,9.09,8.845,10.63,15c0.568,2.228,0.834,4.522,0.79,6.82
	c6.309-0.283,11.955,3.887,13.54,10l0,0c1.821,7.139-2.491,14.402-9.63,16.223c-5.653,1.442-11.587-0.957-14.65-5.923
	c-11.495,8.175-27.44,5.484-35.615-6.011c-0.096-0.135-0.191-0.272-0.285-0.409C184.6,157.29,154.97,164.65,123.96,164.65z
	 M123.96,7.91C56.42,7.91,1.47,42.74,1.47,85.54s54.95,77.63,122.49,77.63c31,0,60.64-7.39,83.39-20.81
	c0.344-0.203,0.786-0.096,1,0.24c7.189,11.175,22.077,14.406,33.252,7.217c0.527-0.339,1.04-0.698,1.538-1.077
	c0.172-0.128,0.391-0.176,0.6-0.13c0.21,0.045,0.389,0.181,0.49,0.37c2.998,5.824,10.15,8.114,15.973,5.116
	c4.963-2.555,7.472-8.224,6.027-13.616l0,0c-1.472-5.724-6.924-9.498-12.8-8.86c-0.216,0.022-0.432-0.051-0.59-0.2
	c-0.157-0.147-0.241-0.355-0.23-0.57c0.462-8.722-3.851-17.006-11.26-21.63c-0.287-0.218-0.376-0.61-0.21-0.93
	c3.49-7.075,5.323-14.851,5.36-22.74C246.45,42.73,191.5,7.91,123.96,7.91z"/>
<circle style="fill:#FFFFFF;" cx="282.18" cy="146.79" r="8.35"/>
<path style="fill:#FFFFFF;" d="M266.95,133.86c-1.552-6.085-7.348-10.098-13.59-9.41c0.467-8.987-3.978-17.521-11.61-22.29
	c3.523-7.175,5.366-15.057,5.39-23.05c0-43.28-55.17-78.37-123.23-78.37S0.73,35.83,0.73,79.11s55.17,78.37,123.23,78.37
	c32.35,0,61.77-7.94,83.76-20.91c7.403,11.524,22.745,14.865,34.269,7.462c0.559-0.359,1.103-0.74,1.631-1.142
	c3.29,6.132,10.928,8.436,17.06,5.146c5.08-2.726,7.663-8.552,6.27-14.146V133.86z"/>
<path style="fill:#E7F1F8;" d="M163.54,153.34l0.53-2.86l-2.12-11.5c-1.33,4.85-2.55,10-3.64,15.15L163.54,153.34z"/>
<path style="fill:#40565B;" d="M164.48,153.45c-0.352-0.003-0.653-0.254-0.72-0.6l-2.53-13.73c-0.041-0.407,0.255-0.77,0.661-0.811
	c0.36-0.037,0.693,0.192,0.789,0.541l2.53,13.73c0.073,0.4-0.19,0.784-0.59,0.86L164.48,153.45z"/>
<path style="fill:#E7F1F8;" d="M81.42,153l-0.47-2.52l2.12-11.5c1.28,4.67,2.46,9.57,3.51,14.56"/>
<path style="fill:#40565B;" d="M80.71,152.51h-0.14c-0.4-0.076-0.663-0.46-0.59-0.86l2.36-12.79c0.07-0.397,0.448-0.662,0.845-0.593
	c0.005,0.001,0.01,0.002,0.015,0.003c0.4,0.076,0.663,0.46,0.59,0.86l-2.35,12.78C81.373,152.26,81.066,152.512,80.71,152.51z"/>
<path style="fill:#A1C2D8;" d="M153.82,140.67H91.36l-11.35-57.8c-5.12-26.09,14.05-51.11,40.63-52h1.5l0,0
	c23.704-0.156,43.046,18.933,43.202,42.636c0.019,2.834-0.243,5.662-0.782,8.444L153.82,140.67z"/>
<path style="fill:#40565B;" d="M153.83,141.4H91.36c-0.349-0.002-0.649-0.248-0.72-0.59l-11.35-57.8
	c-2.543-12.86,0.693-26.188,8.85-36.45c7.876-9.976,19.738-15.987,32.44-16.44h1.53c24.112-0.152,43.782,19.272,43.934,43.385
	c0.018,2.874-0.248,5.743-0.794,8.565l-10.73,58.75C154.448,141.147,154.165,141.385,153.83,141.4z M91.97,139.93h61.25l10.62-58.15
	c4.43-22.876-10.524-45.012-33.4-49.441c-2.735-0.53-5.515-0.787-8.3-0.769h-1.48c-12.271,0.437-23.73,6.243-31.34,15.88
	c-7.899,9.919-11.04,22.809-8.59,35.25L91.97,139.93z"/>
<path style="fill:#40565B;" d="M153.83,141.4H91.36c-0.349-0.002-0.649-0.248-0.72-0.59l-11.35-57.8
	c-2.543-12.86,0.693-26.188,8.85-36.45c7.876-9.976,19.738-15.987,32.44-16.44h1.53c24.112-0.152,43.782,19.272,43.934,43.385
	c0.018,2.874-0.248,5.743-0.794,8.565l-10.73,58.75C154.448,141.147,154.165,141.385,153.83,141.4z M91.97,139.93h61.25l10.62-58.15
	c4.43-22.876-10.524-45.012-33.4-49.441c-2.735-0.53-5.515-0.787-8.3-0.769h-1.48c-12.271,0.437-23.73,6.243-31.34,15.88
	c-7.899,9.919-11.04,22.809-8.59,35.25L91.97,139.93z"/>
<path style="fill:#FFDC64;" d="M154.89,135.43l-9.66-2.69c-4.616-1.287-9.333-2.177-14.1-2.66c-0.54,2.88-16.38,2.87-16.86,0
	c-4.822,0.481-9.593,1.378-14.26,2.68l-9.66,2.69c-5.39,1.51-8.73-0.24-7.67,5.26c1.17,1.24,2.67,6.56,4.06,13.15
	c12.252,2.444,24.716,3.667,37.21,3.65c11.551,0.015,23.079-1.026,34.44-3.11c1.42-6.83,3-12.41,4.17-13.69
	C163.62,135.18,160.28,136.93,154.89,135.43z"/>
<path style="fill:#F9CA46;" d="M115.08,157.29c2.94,0.13,5.89,0.22,8.88,0.22c11.551,0.015,23.079-1.026,34.44-3.11
	c0.18-0.89,0.37-1.77,0.56-2.61c-5.294-1.83-10.869-2.714-16.47-2.61C132.76,149.165,123.236,151.983,115.08,157.29z"/>
<path style="fill:#FAAC30;" d="M123.96,158.22c-12.544,0.017-25.058-1.209-37.36-3.66c-0.29-0.057-0.518-0.281-0.58-0.57
	c-2.19-10.39-3.52-12.42-3.87-12.8c-0.097-0.103-0.163-0.231-0.19-0.37c-0.36-1.88-0.25-3.09,0.35-3.92c0.78-1.08,2.2-1.26,4-1.48
	c1.303-0.137,2.594-0.374,3.86-0.71l9.66-2.69c4.707-1.311,9.518-2.215,14.38-2.7c0.387-0.042,0.738,0.226,0.8,0.61
	c0.08,0.51,2.42,1.51,7.43,1.55s7.88-1,8-1.55c0.071-0.377,0.418-0.638,0.8-0.6c4.808,0.491,9.565,1.391,14.22,2.69l9.65,2.69l0,0
	c1.266,0.336,2.557,0.573,3.86,0.71c1.79,0.22,3.2,0.4,4,1.48c0.6,0.83,0.71,2,0.35,3.92c-0.027,0.139-0.093,0.267-0.19,0.37
	c-0.37,0.39-1.74,2.5-4,13.33c-0.064,0.292-0.296,0.516-0.59,0.57C147.133,157.183,135.558,158.231,123.96,158.22z M87.37,153.22
	c12.052,2.369,24.307,3.555,36.59,3.54c11.34,0.016,22.659-0.988,33.82-3c1.1-5.24,2.66-11.54,4.1-13.38
	c0.272-0.851,0.226-1.771-0.13-2.59c-0.41-0.56-1.49-0.7-3-0.88c-1.374-0.146-2.735-0.396-4.07-0.75l-9.65-2.69
	c-4.408-1.231-8.91-2.097-13.46-2.59c-1.48,2.05-7.81,2.12-9.16,2.1c-2.28,0-7.32-0.27-8.59-2.12
	c-4.601,0.488-9.153,1.358-13.61,2.6l-9.66,2.69c-1.335,0.354-2.696,0.604-4.07,0.75c-1.49,0.19-2.57,0.32-3,0.88
	c-0.356,0.819-0.402,1.739-0.13,2.59c1.43,1.78,2.94,7.81,4.01,12.84L87.37,153.22z"/>
<path style="fill:#E7F1F8;" d="M130.61,129.92c0,3.08-16.91,3.08-16.91,0v-13h16.91V129.92z"/>
<path style="fill:#40565B;" d="M130.61,130.65L130.61,130.65c-0.409,0-0.74-0.331-0.74-0.74c0,0,0,0,0,0v-12.3h-15.44v12.3
	c-0.047,0.406-0.415,0.697-0.821,0.649c-0.341-0.04-0.609-0.308-0.649-0.649v-13c0-0.409,0.331-0.74,0.74-0.74l0,0h16.91
	c0.409,0,0.74,0.331,0.74,0.74c0,0,0,0,0,0v13C131.35,130.319,131.019,130.65,130.61,130.65z"/>
<polyline style="fill:#D0E4F0;" points="153.12,63.62 161.81,64.19 161.81,62.84 153.12,62.28 "/>
<path style="fill:#40565B;" d="M162.67,64.98L162.67,64.98l-9.13-0.62c-0.407-0.033-0.711-0.389-0.679-0.797
	c0.021-0.267,0.185-0.501,0.429-0.613c-0.279-0.128-0.45-0.414-0.43-0.72c0.041-0.398,0.38-0.697,0.78-0.69l9.4,0.63
	c0.408,0.031,0.713,0.387,0.682,0.794c-0.002,0.029-0.006,0.058-0.012,0.086l-0.27,1.33C163.37,64.745,163.041,65.002,162.67,64.98z
	"/>
<circle style="fill:#F36F42;" cx="162.95" cy="63.92" r="2.91"/>
<path style="fill:#C84A27;" d="M162.94,67.57c-2.016,0-3.65-1.634-3.65-3.65s1.634-3.65,3.65-3.65c2.016,0,3.65,1.634,3.65,3.65
	c0,0,0,0,0,0C166.59,65.936,164.956,67.57,162.94,67.57z M162.94,61.75c-1.198,0.017-2.156,1.001-2.14,2.2s1.001,2.156,2.2,2.14
	c1.183-0.016,2.134-0.977,2.14-2.16c0-1.204-0.976-2.18-2.18-2.18C162.953,61.75,162.947,61.75,162.94,61.75z"/>
<polyline style="fill:#D0E4F0;" points="90.93,63.62 82.24,64.19 82.24,62.84 90.93,62.28 "/>
<path style="fill:#40565B;" d="M81.36,64.98c-0.349-0.002-0.649-0.248-0.72-0.59l-0.27-1.33c-0.078-0.401,0.183-0.79,0.584-0.868
	c0.028-0.006,0.057-0.009,0.086-0.012l9.4-0.63c0.4-0.007,0.739,0.292,0.78,0.69c0.02,0.306-0.151,0.592-0.43,0.72
	c0.371,0.171,0.534,0.61,0.363,0.981c-0.112,0.243-0.346,0.407-0.613,0.429l-9.13,0.62L81.36,64.98z"/>
<circle style="fill:#F36F42;" cx="81.1" cy="63.92" r="2.91"/>
<path style="fill:#C84A27;" d="M81.14,67.57c-2.016,0-3.65-1.634-3.65-3.65s1.634-3.65,3.65-3.65s3.65,1.634,3.65,3.65
	S83.156,67.57,81.14,67.57L81.14,67.57z M81.14,61.75c-1.198,0-2.17,0.972-2.17,2.17c0,1.198,0.972,2.17,2.17,2.17
	c1.198,0,2.17-0.972,2.17-2.17c0,0,0,0,0,0C83.305,62.724,82.336,61.755,81.14,61.75z"/>
<path style="fill:#E7F1F8;" d="M90.64,63.65c4.1-25.59,57.51-25.88,62.7-0.85v0.08c0.947,4.742,1.363,9.576,1.24,14.41
	c0,25.66-14.56,46.47-32.51,46.47s-32.51-20.8-32.51-46.47c-0.131-4.483,0.204-8.967,1-13.38L90.64,63.65z"/>
<path style="fill:#FFFFFF;" d="M90.67,63.5v0.15v0.28c-0.796,4.413-1.131,8.897-1,13.38c-0.029,6.96,1.092,13.876,3.32,20.47
	c1.355-0.329,2.732-0.56,4.12-0.69c16.88-2.32,34.05,6.19,51,8.28c4.398-8.698,6.618-18.334,6.47-28.08
	c0.13-4.837-0.279-9.674-1.22-14.42v-0.08c-0.393-1.833-1.068-3.594-2-5.22C133.06,68.76,110.67,69.73,90.67,63.5z"/>
<path style="fill:#40565B;" d="M122.14,124.51c-18.33,0-33.25-21.18-33.25-47.2c-0.122-4.535,0.233-9.07,1.06-13.53
	c0.124-0.389,0.541-0.604,0.93-0.48c0.337,0.108,0.55,0.438,0.51,0.79c-0.795,4.36-1.13,8.79-1,13.22
	c0,25.22,14.25,45.73,31.77,45.73s31.76-20.52,31.76-45.75c0.128-4.783-0.275-9.566-1.2-14.26c-0.067-0.403,0.205-0.784,0.608-0.852
	c0.369-0.062,0.726,0.162,0.832,0.522c0.953,4.802,1.369,9.696,1.24,14.59C155.4,103.29,140.48,124.51,122.14,124.51z"/>
<path style="fill:#F26F42;" d="M91.45,63.76l-1.46-0.23c2.14-13.39,17.11-19.7,31-20c14.06-0.31,30.33,5.53,33.15,19.13l-1.44,0.3
	c-2.65-12.78-18.32-18.26-31.67-18S93.46,51.21,91.45,63.76z"/>
<path style="fill:#40565B;" d="M90.72,64.38H90.6c-0.399-0.066-0.67-0.44-0.61-0.84c2.14-13.39,17.11-19.7,31-20
	c14.06-0.31,30.33,5.53,33.15,19.13c0.127,0.388-0.085,0.806-0.473,0.933c-0.388,0.127-0.806-0.085-0.933-0.473
	c-0.017-0.052-0.028-0.106-0.033-0.16c-2.65-12.78-18.32-18.26-31.67-18S93.46,51.2,91.45,63.75
	C91.396,64.111,91.086,64.379,90.72,64.38z"/>
<polygon style="fill:#F36F42;" points="122.2,90.51 124.1,92.6 125.99,94.69 122.2,94.69 118.41,94.69 120.31,92.6 "/>
<path style="fill:#C84A27;" d="M125.99,95.43h-7.58c-0.409-0.002-0.738-0.336-0.735-0.744c0.001-0.179,0.067-0.351,0.185-0.486
	l3.79-4.18c0.141-0.154,0.341-0.241,0.55-0.24l0,0c0.209-0.001,0.409,0.086,0.55,0.24l3.79,4.18
	c0.271,0.306,0.242,0.774-0.064,1.045C126.341,95.363,126.169,95.429,125.99,95.43L125.99,95.43z M120.07,93.96h4.25l-2.13-2.35
	L120.07,93.96z"/>
<path style="fill:#40565B;" d="M97.54,72.66c-0.409-0.003-0.738-0.336-0.735-0.745c0.001-0.132,0.037-0.262,0.105-0.375
	c0.05-0.08,5-8.11,11.93-5.59c0.399,0.089,0.65,0.484,0.562,0.883s-0.484,0.65-0.883,0.562c-0.062-0.014-0.122-0.036-0.178-0.065
	c-5.77-2.1-10.12,4.9-10.17,5C98.03,72.54,97.793,72.665,97.54,72.66z"/>
<path style="fill:#40565B;" d="M146.14,72.66c-0.256,0-0.495-0.132-0.63-0.35c0-0.07-4.4-7.07-10.17-5
	c-0.363,0.187-0.81,0.045-0.997-0.318c-0.187-0.363-0.045-0.81,0.318-0.997c0.056-0.029,0.116-0.051,0.178-0.065
	c6.9-2.52,11.88,5.51,11.93,5.59c0.21,0.351,0.096,0.805-0.255,1.015c-0.113,0.068-0.243,0.104-0.375,0.105V72.66z"/>
<circle style="fill:#A1C2D8;" cx="98.04" cy="87.34" r="0.5"/>
<path style="fill:#A1C2D8;" d="M98.04,88.58c-0.679,0-1.23-0.551-1.23-1.23s0.551-1.23,1.23-1.23c0.679,0,1.23,0.551,1.23,1.23
	C99.265,88.027,98.717,88.575,98.04,88.58z M98.04,87.11c-0.133,0-0.24,0.107-0.24,0.24c0,0.26,0.48,0.26,0.48,0
	c0.006-0.132-0.097-0.244-0.23-0.25c-0.003,0-0.007,0-0.01,0V87.11z"/>
<circle style="fill:#A1C2D8;" cx="107.64" cy="92.21" r="0.39"/>
<path style="fill:#A1C2D8;" d="M107.64,93.29c-0.624,0-1.13-0.506-1.13-1.13s0.506-1.13,1.13-1.13c0.624,0,1.13,0.506,1.13,1.13
	c0,0,0,0,0,0C108.77,92.784,108.264,93.29,107.64,93.29z M107.64,91.82c-0.188,0-0.34,0.152-0.34,0.34c0,0.38,0.68,0.38,0.68,0
	c-0.025-0.168-0.17-0.292-0.34-0.29V91.82z"/>
<circle style="fill:#A1C2D8;" cx="115.02" cy="87.84" r="0.39"/>
<path style="fill:#A1C2D8;" d="M115.01,88.97c-0.624,0-1.13-0.506-1.13-1.13c0-0.624,0.506-1.13,1.13-1.13
	c0.624,0,1.13,0.506,1.13,1.13S115.634,88.97,115.01,88.97L115.01,88.97z M115.01,87.5c-0.188,0-0.34,0.152-0.34,0.34
	c0,0.38,0.68,0.38,0.68,0C115.35,87.652,115.198,87.5,115.01,87.5z"/>
<circle style="fill:#A1C2D8;" cx="128.79" cy="88.33" r="0.5"/>
<path style="fill:#A1C2D8;" d="M128.79,89.57c-0.679,0-1.23-0.551-1.23-1.23c0-0.679,0.551-1.23,1.23-1.23
	c0.679,0,1.23,0.551,1.23,1.23l0,0C130.015,89.017,129.467,89.565,128.79,89.57z M128.79,88.1c-0.133,0-0.24,0.107-0.24,0.24l0,0
	c0,0.26,0.48,0.26,0.48,0c0.006-0.132-0.097-0.244-0.23-0.25c-0.003,0-0.007,0-0.01,0V88.1z"/>
<circle style="fill:#A1C2D8;" cx="138.39" cy="93.19" r="0.39"/>
<path style="fill:#A1C2D8;" d="M138.39,94.29c-0.624,0-1.13-0.506-1.13-1.13c0-0.624,0.506-1.13,1.13-1.13
	c0.624,0,1.13,0.506,1.13,1.13S139.014,94.29,138.39,94.29L138.39,94.29z M138.39,92.82c-0.188,0-0.34,0.152-0.34,0.34
	c0,0.38,0.68,0.38,0.68,0c-0.016-0.176-0.163-0.311-0.34-0.31V92.82z"/>
<circle style="fill:#A1C2D8;" cx="145.76" cy="88.83" r="0.39"/>
<path style="fill:#A1C2D8;" d="M145.76,89.96c-0.624,0-1.13-0.506-1.13-1.13c0-0.624,0.506-1.13,1.13-1.13
	c0.624,0,1.13,0.506,1.13,1.13S146.384,89.96,145.76,89.96L145.76,89.96z M145.76,88.49c-0.188,0-0.34,0.152-0.34,0.34
	c0,0.38,0.68,0.38,0.68,0C146.1,88.642,145.948,88.49,145.76,88.49z"/>
<path style="fill:#40565B;" d="M136.55,87.41L136.55,87.41c-1,0-2.14-0.92-2.13-2.91v-5.21c0-0.362,0.262-0.671,0.62-0.73
	c0.534-0.622,0.85-1.402,0.9-2.22c-0.133-0.207-0.133-0.473,0-0.68c0.147-0.217,0.398-0.34,0.66-0.32h1.42
	c0.16,0,0.38,0.06,0.69,0.08c0.407,0.034,0.71,0.392,0.675,0.8c-0.025,0.295-0.224,0.547-0.505,0.64l-0.18,0.06v7.57
	C138.7,86.41,137.62,87.41,136.55,87.41z M135.89,79.73v4.78c0,1,0.38,1.43,0.66,1.43l0,0c0.28,0,0.69-0.45,0.69-1.44v-7.08
	c-0.095,0.342-0.216,0.676-0.36,1c-0.219,0.51-0.563,0.957-1,1.3L135.89,79.73z"/>
<path style="fill:#40565B;" d="M139.2,76.87h-0.59c-0.405-0.032-0.709-0.385-0.68-0.79c0.014-0.392,0.343-0.698,0.735-0.684
	c0.018,0.001,0.037,0.002,0.055,0.004c1.163,0.166,2.338-0.202,3.2-1c0.276-0.309,0.751-0.336,1.06-0.06s0.336,0.751,0.06,1.06
	C142.03,76.418,140.632,76.953,139.2,76.87z"/>
<path style="fill:#40565B;" d="M107.14,87.4c-0.323,0-0.641-0.086-0.92-0.25c-0.855-0.603-1.321-1.618-1.22-2.66v-5.2
	c0-0.362,0.262-0.671,0.62-0.73c0.533-0.623,0.849-1.402,0.9-2.22c-0.133-0.207-0.133-0.473,0-0.68
	c0.127-0.224,0.363-0.365,0.62-0.37h1.41c0.16,0,0.38,0.06,0.7,0.08c0.407,0.034,0.71,0.392,0.675,0.8
	c-0.025,0.295-0.224,0.547-0.505,0.64l-0.18,0.06v7.62c0.092,1.05-0.385,2.068-1.25,2.67C107.731,87.309,107.439,87.391,107.14,87.4
	z M106.48,79.72v4.78c0,0.81,0.25,1.24,0.49,1.38c0.107,0.067,0.243,0.067,0.35,0c0.25-0.14,0.51-0.58,0.51-1.39v-7.07
	c-0.095,0.342-0.215,0.676-0.36,1c-0.222,0.511-0.569,0.959-1.01,1.3H106.48z"/>
<path style="fill:#40565B;" d="M109.77,76.87h-0.59c-0.409,0.006-0.745-0.321-0.751-0.729s0.321-0.745,0.729-0.751
	c0.044-0.001,0.088,0.003,0.132,0.01c1.163,0.167,2.339-0.201,3.2-1c0.276-0.309,0.751-0.336,1.06-0.06
	c0.309,0.276,0.336,0.751,0.06,1.06l0,0C112.6,76.418,111.202,76.953,109.77,76.87z"/>
<path style="fill:#40565B;" d="M136.61,76.05c0.29,0.48-0.54,3.07-1.46,3.21v5.24c0,2.9,2.81,2.88,2.82,0v-8.21l0.69-0.22
	c-0.211-0.016-0.422-0.042-0.63-0.08L136.61,76.05z"/>
<path style="fill:#40565B;" d="M138.66,76.11c1.395,0.199,2.804-0.254,3.82-1.23"/>
<path style="fill:#40565B;" d="M107.14,76.05c0.29,0.48-0.54,3.07-1.46,3.21v5.24c0,2.9,2.81,2.88,2.82,0v-8.21l0.69-0.22
	c-0.211-0.016-0.422-0.042-0.63-0.08L107.14,76.05z"/>
<path style="fill:#40565B;" d="M109.24,76.11c1.395,0.199,2.804-0.254,3.82-1.23"/>
<path style="fill:#FAAC30;" d="M122.14,132.96c-2.016,0.028-4.029-0.174-6-0.6c-2.13-0.52-3.21-1.34-3.21-2.45
	c0.047-0.406,0.415-0.697,0.821-0.649c0.341,0.04,0.609,0.308,0.649,0.649c0,0.55,2.65,1.57,7.72,1.57s7.72-1,7.72-1.57
	c0.047-0.406,0.415-0.697,0.821-0.649c0.341,0.04,0.609,0.308,0.649,0.649C131.34,132.74,124.31,132.96,122.14,132.96z"/>
<path style="fill:#FFFFFF;" d="M132.36,102.69c0.08,8.36-19.36,10.44-20.58,0H132.36z"/>
<path style="fill:#40565B;" d="M121.74,110.5c-5,0-10.06-2.31-10.7-7.72c-0.027-0.21,0.039-0.422,0.18-0.58
	c0.139-0.158,0.339-0.249,0.55-0.25h20.58c0.405,0,0.735,0.325,0.74,0.73c0,4.68-5.15,7.45-10.31,7.78
	C122.433,110.487,122.087,110.5,121.74,110.5z M112.65,103.43c1,4.21,5.66,5.85,10,5.57c4.17-0.26,8.37-2.24,8.88-5.57H112.65z"/>
<polyline style="fill:#1785C8;" points="143.33,29.87 144.75,42.95 144.73,43.16 117.42,58.13 87.84,49.47 87.51,49.18 86.09,36.1 
	"/>
<polygon style="fill:#3AA1D6;" points="115.8,43.28 156.68,23.28 112.47,12.75 71.57,32.55 "/>
<path style="fill:#164A67;" d="M117.41,58.87h-0.21l-29.58-8.66c-0.103-0.029-0.199-0.08-0.28-0.15l-0.33-0.29
	c-0.14-0.12-0.229-0.287-0.25-0.47l-1.41-13.11c-0.041-0.402,0.248-0.763,0.65-0.81c0.401-0.036,0.758,0.251,0.81,0.65l1.39,12.79
	l29.12,8.47l26.67-14.61l-1.4-12.77c-0.041-0.402,0.248-0.763,0.65-0.81c0.401-0.036,0.758,0.251,0.81,0.65l1.42,13.08v0.36
	c-0.023,0.244-0.165,0.462-0.38,0.58l-27.32,15C117.661,58.834,117.537,58.868,117.41,58.87z M144.73,43.17L144.73,43.17z"/>
<path style="fill:#164A67;" d="M115.79,44.02h-0.17L71.39,33.29c-0.396-0.099-0.637-0.501-0.538-0.898
	c0.053-0.21,0.194-0.386,0.388-0.482l40.9-19.82c0.153-0.073,0.326-0.091,0.49-0.05l44.2,10.53c0.396,0.099,0.637,0.502,0.538,0.898
	c-0.053,0.21-0.194,0.386-0.388,0.482l-40.84,19.99C116.032,43.995,115.911,44.022,115.79,44.02z M73.73,32.29l42,10.18l38.8-19
	l-41.95-10L73.73,32.29z"/>
<polyline style="fill:#FFDC64;" points="112.67,28.07 93.5,37.91 93.5,61.38 93.5,61.49 95.73,57.8 98.11,65.13 98.11,38.99 
	114.35,28.55 "/>
<polyline style="fill:#F9CA46;" points="93.5,37.91 93.5,61.38 93.5,61.49 95.73,57.8 98.11,65.13 98.11,38.99 "/>
<ellipse transform="matrix(0.9941 -0.1082 0.1082 0.9941 -2.2055 12.5882)" style="fill:#FFDC64;" cx="114.927" cy="26.623" rx="3.81" ry="1.9"/>
<path style="fill:#FAAC30;" d="M98.14,65.87c-0.319-0.001-0.601-0.207-0.7-0.51l-1.88-5.8l-1.42,2.31
	c-0.214,0.348-0.67,0.456-1.018,0.242c-0.216-0.133-0.349-0.368-0.352-0.622V37.92c0.004-0.26,0.144-0.5,0.37-0.63l19.17-9.84
	c0.376-0.16,0.811,0.015,0.971,0.391c0.067,0.158,0.078,0.335,0.029,0.499l0.59-0.38c0.359-0.195,0.808-0.061,1.003,0.298
	c0.174,0.321,0.088,0.721-0.203,0.942L98.84,39.39v25.74c0,0.362-0.262,0.671-0.62,0.73L98.14,65.87z M95.76,57.06h0.08
	c0.286,0.032,0.528,0.227,0.62,0.5l0.94,2.9V38.99c0.001-0.251,0.129-0.484,0.34-0.62l13.86-8.9l-17.33,8.9v20.48l0.87-1.43
	c0.125-0.21,0.346-0.345,0.59-0.36L95.76,57.06z"/>
<path style="fill:#FAAC30;" d="M114.31,29.29c-0.742,0.012-1.479-0.107-2.18-0.35c-0.884-0.221-1.559-0.935-1.73-1.83
	c-0.16-1.5,1.66-2.84,4.23-3.12c1.034-0.129,2.083-0.023,3.07,0.31c0.884,0.221,1.559,0.935,1.73,1.83l0,0
	c0.16,1.5-1.66,2.84-4.23,3.12C114.904,29.279,114.607,29.293,114.31,29.29z M115.52,25.41c-0.243-0.013-0.487-0.013-0.73,0
	c-1.89,0.21-3,1.09-2.93,1.5c0,0.15,0.23,0.4,0.78,0.61c0.774,0.249,1.594,0.324,2.4,0.22c1.89-0.21,3-1.08,2.93-1.49l0,0
	c0-0.15-0.23-0.4-0.78-0.61c-0.54-0.169-1.105-0.243-1.67-0.22V25.41z"/>
<path style="fill:#A1C2D8;" d="M123.96,158.22c-68.35,0-124-35.49-124-79.11S55.57,0,123.96,0s124,35.49,124,79.11
	c-0.031,7.89-1.814,15.674-5.22,22.79c5.29,3.478,9.086,8.812,10.64,14.95c0.568,2.228,0.834,4.522,0.79,6.82
	c6.309-0.283,11.955,3.887,13.54,10l0,0c1.821,7.139-2.491,14.402-9.63,16.223c-5.653,1.442-11.587-0.957-14.65-5.923
	c-11.495,8.175-27.44,5.484-35.615-6.011c-0.096-0.135-0.191-0.272-0.285-0.409C184.6,150.88,154.97,158.22,123.96,158.22z
	 M123.96,1.48C56.42,1.48,1.47,36.29,1.47,79.11s54.95,77.63,122.49,77.63c31,0,60.64-7.39,83.39-20.81
	c0.344-0.203,0.786-0.096,1,0.24c7.197,11.17,22.086,14.391,33.257,7.195c0.525-0.338,1.036-0.697,1.533-1.075
	c0.172-0.128,0.391-0.176,0.6-0.13c0.21,0.045,0.389,0.181,0.49,0.37c2.998,5.824,10.15,8.114,15.973,5.116
	c4.963-2.555,7.472-8.224,6.027-13.616l0,0c-1.472-5.724-6.924-9.498-12.8-8.86c-0.216,0.021-0.431-0.052-0.59-0.2
	c-0.157-0.147-0.241-0.355-0.23-0.57c0.462-8.722-3.851-17.006-11.26-21.63c-0.319-0.201-0.435-0.611-0.27-0.95
	c3.49-7.075,5.323-14.851,5.36-22.74C246.45,36.29,191.5,1.48,123.96,1.48L123.96,1.48z"/>
<path style="fill:#A1C2D8;" d="M282.14,155.88c-5.02,0-9.09-4.07-9.09-9.09s4.07-9.09,9.09-9.09c5.02,0,9.09,4.07,9.09,9.09
	c0,0,0,0,0,0C291.224,151.808,287.158,155.874,282.14,155.88z M282.14,139.18c-4.208,0-7.62,3.412-7.62,7.62s3.412,7.62,7.62,7.62
	c4.208,0,7.62-3.412,7.62-7.62c0,0,0,0,0,0C289.76,142.592,286.348,139.18,282.14,139.18z"/>
<path style="fill:#A1C2D8;" d="M123.96,158.22c-68.35,0-124-35.49-124-79.11S55.57,0,123.96,0s124,35.49,124,79.11
	c-0.031,7.89-1.814,15.674-5.22,22.79c5.29,3.478,9.086,8.812,10.64,14.95c0.568,2.228,0.834,4.522,0.79,6.82
	c6.309-0.283,11.955,3.887,13.54,10l0,0c1.821,7.139-2.491,14.402-9.63,16.223c-5.653,1.442-11.587-0.957-14.65-5.923
	c-11.495,8.175-27.44,5.484-35.615-6.011c-0.096-0.135-0.191-0.272-0.285-0.409C184.6,150.88,154.97,158.22,123.96,158.22z
	 M123.96,1.48C56.42,1.48,1.47,36.29,1.47,79.11s54.95,77.63,122.49,77.63c31,0,60.64-7.39,83.39-20.81
	c0.344-0.203,0.786-0.096,1,0.24c7.197,11.17,22.086,14.391,33.257,7.195c0.525-0.338,1.036-0.697,1.533-1.075
	c0.172-0.128,0.391-0.176,0.6-0.13c0.21,0.045,0.389,0.181,0.49,0.37c2.998,5.824,10.15,8.114,15.973,5.116
	c4.963-2.555,7.472-8.224,6.027-13.616l0,0c-1.472-5.724-6.924-9.498-12.8-8.86c-0.216,0.021-0.431-0.052-0.59-0.2
	c-0.157-0.147-0.241-0.355-0.23-0.57c0.462-8.722-3.851-17.006-11.26-21.63c-0.319-0.201-0.435-0.611-0.27-0.95
	c3.49-7.075,5.323-14.851,5.36-22.74C246.45,36.29,191.5,1.48,123.96,1.48L123.96,1.48z"/>
<path style="fill:#A1C2D8;" d="M282.14,155.88c-5.02,0-9.09-4.07-9.09-9.09s4.07-9.09,9.09-9.09c5.02,0,9.09,4.07,9.09,9.09
	c0,0,0,0,0,0C291.224,151.808,287.158,155.874,282.14,155.88z M282.14,139.18c-4.208,0-7.62,3.412-7.62,7.62s3.412,7.62,7.62,7.62
	c4.208,0,7.62-3.412,7.62-7.62c0,0,0,0,0,0C289.76,142.592,286.348,139.18,282.14,139.18z"/>
<path style="fill:#A1C2D8;" d="M123.96,158.22c-68.35,0-124-35.49-124-79.11S55.57,0,123.96,0s124,35.49,124,79.11
	c-0.031,7.89-1.814,15.674-5.22,22.79c5.29,3.478,9.086,8.812,10.64,14.95c0.568,2.228,0.834,4.522,0.79,6.82
	c6.309-0.283,11.955,3.887,13.54,10l0,0c1.821,7.139-2.491,14.402-9.63,16.223c-5.653,1.442-11.587-0.957-14.65-5.923
	c-11.495,8.175-27.44,5.484-35.615-6.011c-0.096-0.135-0.191-0.272-0.285-0.409C184.6,150.88,154.97,158.22,123.96,158.22z
	 M123.96,1.48C56.42,1.48,1.47,36.29,1.47,79.11s54.95,77.63,122.49,77.63c31,0,60.64-7.39,83.39-20.81
	c0.344-0.203,0.786-0.096,1,0.24c7.197,11.17,22.086,14.391,33.257,7.195c0.525-0.338,1.036-0.697,1.533-1.075
	c0.172-0.128,0.391-0.176,0.6-0.13c0.21,0.045,0.389,0.181,0.49,0.37c2.998,5.824,10.15,8.114,15.973,5.116
	c4.963-2.555,7.472-8.224,6.027-13.616l0,0c-1.472-5.724-6.924-9.498-12.8-8.86c-0.216,0.021-0.431-0.052-0.59-0.2
	c-0.157-0.147-0.241-0.355-0.23-0.57c0.462-8.722-3.851-17.006-11.26-21.63c-0.319-0.201-0.435-0.611-0.27-0.95
	c3.49-7.075,5.323-14.851,5.36-22.74C246.45,36.29,191.5,1.48,123.96,1.48L123.96,1.48z"/>
<polyline style="fill:#FFFFFF;" points="464.13,399.65 457.29,367.13 454.92,355.87 471.68,266.07 496.3,399.65 "/>
<path style="fill:#E7F1F8;" d="M468.06,356.01l-2.37-11.26L476,289.53l-4.32-23.46c-7.891,29.457-13.494,59.48-16.76,89.8
	l2.37,11.26l6.85,32.52h13.1L468.06,356.01z"/>
<path style="fill:#40565B;" d="M496.29,400.39c-0.352-0.003-0.653-0.254-0.72-0.6l-24.62-133.58
	c-0.041-0.407,0.255-0.77,0.661-0.811c0.36-0.037,0.693,0.192,0.789,0.541l24.62,133.58c0.073,0.4-0.19,0.784-0.59,0.86
	L496.29,400.39z"/>
<path style="fill:#C3D4E0;" d="M458.14,367.05c-0.812,0.002-1.471-0.655-1.473-1.467c0-0.249,0.062-0.495,0.183-0.713l13.93-25.34
	c0.392-0.712,1.288-0.972,2-0.58s0.972,1.288,0.58,2l-13.93,25.34C459.171,366.76,458.676,367.051,458.14,367.05z"/>
<path style="fill:#C3D4E0;" d="M462.57,387.71c-0.812,0.004-1.473-0.65-1.478-1.462c-0.002-0.311,0.096-0.615,0.278-0.868
	l13.68-19.09c0.475-0.663,1.397-0.815,2.06-0.34s0.815,1.397,0.34,2.06l-13.67,19.1C463.498,387.494,463.047,387.718,462.57,387.71z
	"/>
<path style="fill:#40565B;" d="M464.14,400.39c-0.346-0.001-0.645-0.242-0.72-0.58l-9.21-43.78c-0.039-0.407,0.26-0.768,0.667-0.807
	c0.344-0.033,0.666,0.178,0.773,0.507l9.21,43.78c0.08,0.397-0.174,0.785-0.57,0.87L464.14,400.39z"/>
<polyline style="fill:#FFFFFF;" points="318.28,399.65 325.12,367.13 327.49,355.87 310.73,266.07 286.11,399.65 "/>
<path style="fill:#E7F1F8;" d="M314.34,356.01l2.37-11.26l-10.31-55.22l4.32-23.46c7.891,29.457,13.494,59.48,16.76,89.8
	l-2.34,11.26l-6.84,32.52h-13.16L314.34,356.01z"/>
<path style="fill:#40565B;" d="M286.14,400.39H286c-0.4-0.076-0.663-0.46-0.59-0.86l24.62-133.58
	c0.07-0.397,0.448-0.662,0.845-0.593c0.005,0.001,0.01,0.002,0.015,0.003c0.4,0.076,0.663,0.46,0.59,0.86l-24.65,133.57
	C286.766,400.125,286.481,400.373,286.14,400.39z"/>
<path style="fill:#C3D4E0;" d="M324.26,367.05c-0.536,0.001-1.031-0.29-1.29-0.76l-13.93-25.34c-0.392-0.712-0.132-1.608,0.58-2
	s1.608-0.132,2,0.58l0,0l13.93,25.34c0.392,0.711,0.134,1.605-0.577,1.997C324.755,366.988,324.509,367.05,324.26,367.05
	L324.26,367.05z"/>
<path style="fill:#C3D4E0;" d="M319.83,387.71c-0.477,0-0.924-0.231-1.2-0.62l-13.67-19.1c-0.475-0.663-0.323-1.585,0.34-2.06
	s1.585-0.323,2.06,0.34l13.67,19.1c0.475,0.658,0.326,1.577-0.332,2.052c-0.253,0.182-0.556,0.279-0.868,0.278L319.83,387.71z"/>
<path style="fill:#40565B;" d="M318.28,400.39h-0.15c-0.396-0.085-0.65-0.473-0.57-0.87l9.21-43.78
	c0.127-0.388,0.545-0.6,0.933-0.473c0.329,0.108,0.539,0.429,0.507,0.773L319,399.82C318.921,400.154,318.623,400.39,318.28,400.39z
	"/>
<path style="fill:#A1C2D8;" d="M455.14,269.5H327.63l-23.15-117.93c-10.45-53.28,28.66-104.28,82.89-106.11
	c1.02-0.033,2.043-0.05,3.07-0.05l0,0c18.769-0.034,37.066,5.875,52.27,16.88c27.39,19.81,40.35,54.07,34.28,87.33L455.14,269.5z"/>
<path style="fill:#40565B;" d="M455.14,270.24H327.63c-0.349-0.002-0.649-0.248-0.72-0.59l-23.15-117.94
	c-5.117-26.031,1.465-52.995,18-73.74c15.933-20.178,39.927-32.336,65.62-33.25c1.027-0.033,2.057-0.05,3.09-0.05
	c18.924-0.056,37.377,5.896,52.7,17c27.18,19.66,40.75,54.22,34.57,88.06l-21.92,119.9
	C455.761,269.966,455.48,270.218,455.14,270.24z M328.24,268.76h126.24l21.78-119.27c6.08-33.28-7.26-67.27-34-86.6
	c-15.064-10.929-33.209-16.794-51.82-16.75c-1.02,0-2.02,0.017-3,0.05c-25.26,0.904-48.848,12.86-64.51,32.7
	c-16.255,20.413-22.72,46.937-17.68,72.54L328.24,268.76z"/>
<path style="fill:#40565B;" d="M455.14,270.24H327.63c-0.349-0.002-0.649-0.248-0.72-0.59l-23.15-117.94
	c-5.117-26.031,1.465-52.995,18-73.74c15.933-20.178,39.927-32.336,65.62-33.25c1.027-0.033,2.057-0.05,3.09-0.05
	c18.924-0.056,37.377,5.896,52.7,17c27.18,19.66,40.75,54.22,34.57,88.06l-21.92,119.9
	C455.761,269.966,455.48,270.218,455.14,270.24z M328.24,268.76h126.24l21.78-119.27c6.08-33.28-7.26-67.27-34-86.6
	c-15.064-10.929-33.209-16.794-51.82-16.75c-1.02,0-2.02,0.017-3,0.05c-25.26,0.904-48.848,12.86-64.51,32.7
	c-16.255,20.413-22.72,46.937-17.68,72.54L328.24,268.76z"/>
<path style="fill:#FFDC64;" d="M457.27,258.81l-19.7-5.5c-9.415-2.626-19.036-4.442-28.76-5.43c-1.1,5.87-33.41,5.86-34.41,0
	c-9.838,0.962-19.574,2.772-29.1,5.41l-19.7,5.5c-11,3.07-17.81-0.5-15.65,10.72c6.81,7.23,19.07,82.11,15.94,91.93l9.38,42.37
	H447.6l9.38-42.37c-3.13-9.82,9.12-84.7,15.94-91.93C475.08,258.29,468.27,261.88,457.27,258.81z"/>
<path style="fill:#F9CA46;" d="M431.94,286.81c-53.785,0.011-98.472,41.476-102.5,95.11l5.83,21.91c39.93,5.86,77.77,6.77,112.33,0
	l9.38-42.37c-2.15-6.75,3-44.2,8.58-69.33C454.79,288.29,444.08,286.81,431.94,286.81z"/>
<path style="fill:#FAAC30;" d="M447.6,404.57h-0.16c-0.397-0.09-0.647-0.483-0.56-0.88l9.34-42.18c-1.58-5.68,1-27.64,4.27-47.09
	c3.22-19,8-40.78,11.74-45.21c0.56-3,0.45-4.95-0.36-6.06c-1-1.42-3.37-1.71-6.6-2.11c-2.768-0.289-5.509-0.791-8.2-1.5l-19.7-5.5
	c-9.188-2.561-18.574-4.351-28.06-5.35c-1.65,3.29-10.65,4.43-18.32,4.34c-2.61,0-15.17-0.34-17.1-4.37
	c-9.595,0.991-19.088,2.79-28.38,5.38l-19.7,5.5c-2.691,0.709-5.432,1.211-8.2,1.5c-3.23,0.4-5.57,0.7-6.6,2.11
	c-0.8,1.11-0.92,3-0.36,6.06c3.77,4.43,8.52,26.16,11.74,45.21c3.29,19.45,5.86,41.41,4.27,47.09l9.34,42.18
	c0.121,0.39-0.098,0.805-0.488,0.926c-0.39,0.121-0.805-0.098-0.926-0.488c-0.012-0.038-0.021-0.077-0.026-0.117l-9.42-42.39
	c-0.033-0.125-0.033-0.255,0-0.38c3.32-10.4-9.51-84.56-15.77-91.2c-0.097-0.103-0.163-0.231-0.19-0.37
	c-0.69-3.61-0.52-5.89,0.58-7.4c1.41-1.94,4-2.26,7.61-2.71c2.7-0.279,5.375-0.767,8-1.46l19.7-5.5
	c9.564-2.666,19.34-4.503,29.22-5.49c0.385-0.037,0.734,0.229,0.8,0.61c0.36,2.1,7.18,3.73,15.88,3.81
	c9.14,0.08,16.67-1.59,17.08-3.79c0.071-0.377,0.418-0.638,0.8-0.6c9.764,0.996,19.426,2.823,28.88,5.46l19.7,5.5
	c2.625,0.693,5.3,1.181,8,1.46c3.6,0.45,6.21,0.77,7.61,2.71c1.09,1.51,1.27,3.79,0.58,7.4c-0.027,0.139-0.093,0.267-0.19,0.37
	c-6.27,6.64-19.09,80.8-15.77,91.2c0.033,0.125,0.033,0.255,0,0.38l-9.38,42.37C448.209,404.314,447.931,404.551,447.6,404.57z"/>
<path style="fill:#E7F1F8;" d="M407.72,247.57c0,6.27-34.51,6.27-34.51,0v-26.59h34.51V247.57z"/>
<path style="fill:#40565B;" d="M407.72,248.29c-0.409,0-0.74-0.331-0.74-0.74v-25.83h-33v25.86c0,0.409-0.331,0.74-0.74,0.74l0,0
	c-0.409,0-0.74-0.331-0.74-0.74v-26.6c0-0.409,0.331-0.74,0.74-0.74h34.51c0.409,0,0.74,0.331,0.74,0.74v26.59
	c-0.011,0.409-0.351,0.731-0.759,0.72C407.727,248.29,407.724,248.29,407.72,248.29z"/>
<path style="fill:#FAAC30;" d="M418.84,363.82h-0.12l-28.29-4.42l-28.29,3.69c-0.398,0.094-0.796-0.153-0.89-0.551
	s0.153-0.796,0.551-0.89c0.049-0.012,0.099-0.018,0.149-0.019l28.4-3.71c0.07-0.011,0.14-0.011,0.21,0l28.4,4.43
	c0.399,0.09,0.649,0.486,0.559,0.885c-0.072,0.318-0.344,0.552-0.669,0.575L418.84,363.82z"/>
<path style="fill:#FAAC30;" d="M423.37,368.35c-2.911,0-5.27-2.359-5.27-5.27s2.359-5.27,5.27-5.27c2.911,0,5.27,2.359,5.27,5.27
	c0,0,0,0,0,0C428.64,365.991,426.281,368.35,423.37,368.35z M423.37,359.29c-2.093,0-3.79,1.697-3.79,3.79
	c0,2.093,1.697,3.79,3.79,3.79c2.093,0,3.79-1.697,3.79-3.79C427.155,360.989,425.461,359.296,423.37,359.29z"/>
<path style="fill:#FAAC30;" d="M357.58,368.35c-2.911,0-5.27-2.359-5.27-5.27s2.359-5.27,5.27-5.27c2.911,0,5.27,2.359,5.27,5.27
	c0,0,0,0,0,0C362.85,365.991,360.491,368.35,357.58,368.35z M357.58,359.29c-2.093,0-3.79,1.697-3.79,3.79
	c0,2.093,1.697,3.79,3.79,3.79c2.093,0,3.79-1.697,3.79-3.79C361.365,360.989,359.671,359.296,357.58,359.29z"/>
<polyline style="fill:#D0E4F0;" points="453.64,112.31 471.38,113.46 471.38,110.71 453.64,109.57 "/>
<path style="fill:#40565B;" d="M473.14,114.29L473.14,114.29l-18.64-1.25c-0.405-0.027-0.713-0.375-0.69-0.78
	c0.041-0.398,0.38-0.697,0.78-0.69l18,1.21l0.25-1.25l-18.38-1.24c-0.405-0.027-0.713-0.375-0.69-0.78
	c0.041-0.398,0.38-0.697,0.78-0.69l19.19,1.29c0.408,0.031,0.713,0.387,0.682,0.794c-0.002,0.029-0.006,0.058-0.012,0.086
	l-0.55,2.71C473.789,114.042,473.489,114.288,473.14,114.29z"/>
<circle style="fill:#F36F42;" cx="473.7" cy="112.92" r="5.94"/>
<path style="fill:#C84A27;" d="M473.7,119.6c-3.684,0-6.67-2.986-6.67-6.67c0-3.684,2.986-6.67,6.67-6.67
	c3.684,0,6.67,2.986,6.67,6.67C480.365,116.611,477.381,119.595,473.7,119.6z M473.7,107.73c-2.872,0-5.2,2.328-5.2,5.2
	s2.328,5.2,5.2,5.2c2.872,0,5.2-2.328,5.2-5.2C478.895,110.06,476.57,107.735,473.7,107.73z"/>
<polyline style="fill:#D0E4F0;" points="326.76,112.31 309.02,113.46 309.02,110.71 326.76,109.57 "/>
<path style="fill:#40565B;" d="M307.25,114.29c-0.349-0.002-0.649-0.248-0.72-0.59l-0.55-2.71c-0.078-0.401,0.183-0.79,0.584-0.868
	c0.028-0.006,0.057-0.009,0.086-0.012l19.19-1.29c0.4-0.007,0.739,0.292,0.78,0.69c0.023,0.405-0.285,0.753-0.69,0.78l-18.35,1.23
	l0.25,1.25l18-1.21c0.398-0.003,0.734,0.295,0.78,0.69c0.023,0.405-0.285,0.753-0.69,0.78l-18.63,1.26H307.25z"/>
<circle style="fill:#F36F42;" cx="306.7" cy="112.92" r="5.94"/>
<path style="fill:#C84A27;" d="M306.7,119.6c-3.684,0-6.67-2.986-6.67-6.67c0-3.684,2.986-6.67,6.67-6.67
	c3.684,0,6.67,2.986,6.67,6.67C313.365,116.611,310.381,119.595,306.7,119.6z M306.7,107.73c-2.872,0-5.2,2.328-5.2,5.2
	s2.328,5.2,5.2,5.2c2.872,0,5.2-2.328,5.2-5.2C311.895,110.06,309.57,107.735,306.7,107.73z"/>
<path style="fill:#E7F1F8;" d="M326.14,112.35c8.36-52.22,117.34-52.8,127.93-1.73v0.17c2.11,9.26,2.49,19.15,2.49,29.43
	c0,52.36-29.7,94.81-66.33,94.81s-66.33-42.45-66.33-94.81c0-9.55,0.29-18.6,2.12-27.29L326.14,112.35z"/>
<path style="fill:#FFFFFF;" d="M326.23,112.05c0,0.1,0,0.2-0.06,0.3l-0.09,0.57c-1.84,8.69-2.12,17.75-2.12,27.29
	c-0.058,14.202,2.233,28.316,6.78,41.77c2.762-0.672,5.57-1.143,8.4-1.41c34.43-4.73,69.48,12.64,104,16.89
	c8.44-15.91,13.46-35.74,13.46-57.24c0-10.27-0.38-20.16-2.49-29.43v-0.17c-0.777-3.732-2.127-7.321-4-10.64
	C412.73,122.79,367.03,124.77,326.23,112.05z"/>
<path style="fill:#40565B;" d="M390.46,235.76c-37,0-67.07-42.86-67.07-95.55c0-10.39,0.36-19,2.14-27.44
	c0.047-0.406,0.414-0.697,0.82-0.65s0.697,0.414,0.65,0.82c-0.005,0.048-0.016,0.095-0.03,0.141c-1.75,8.28-2.11,16.84-2.11,27.14
	c0,51.87,29.43,94.07,65.6,94.07s65.6-42.2,65.6-94.07c0-9.56-0.3-19.72-2.48-29.26c-0.067-0.403,0.205-0.784,0.608-0.852
	c0.369-0.062,0.726,0.162,0.832,0.522c2.21,9.68,2.51,19.94,2.51,29.59C457.53,192.9,427.45,235.76,390.46,235.76z"/>
<path style="fill:#F26F42;" d="M327.07,112.47l-1.46-0.23c4.31-26.88,34.53-39.56,62.53-40.2c28.27-0.64,61.21,11.11,66.87,38.43
	l-1.44,0.3c-5.52-26.48-37.79-37.89-65.43-37.26C360.75,74.14,331.24,86.43,327.07,112.47z"/>
<path style="fill:#40565B;" d="M326.34,113.09h-0.12c-0.399-0.066-0.67-0.44-0.61-0.84c4.31-26.89,34.53-39.57,62.53-40.21
	c28.27-0.64,61.21,11.11,66.87,38.43c0.08,0.397-0.174,0.785-0.57,0.87c-0.397,0.08-0.785-0.174-0.87-0.57
	c-5.52-26.48-37.79-37.89-65.43-37.26c-27.4,0.63-56.92,12.91-61.09,39C326.976,112.844,326.682,113.084,326.34,113.09z"/>
<polygon style="fill:#F36F42;" points="390.56,167.16 394.43,171.43 398.3,175.7 390.56,175.7 382.83,175.7 386.7,171.43 "/>
<path style="fill:#C84A27;" d="M398.29,176.44h-15.46c-0.409-0.003-0.738-0.336-0.735-0.745c0.001-0.179,0.067-0.351,0.185-0.485
	l7.73-8.54c0.293-0.301,0.774-0.308,1.075-0.015c0.005,0.005,0.01,0.01,0.015,0.015l7.73,8.54c0.271,0.306,0.242,0.774-0.065,1.045
	c-0.134,0.118-0.307,0.184-0.485,0.185H398.29z M384.49,174.97h12.14l-6.07-6.7L384.49,174.97z"/>
<path style="fill:#40565B;" d="M340.25,129.98c-0.409-0.003-0.738-0.336-0.735-0.745c0.001-0.132,0.037-0.262,0.105-0.375
	c0.1-0.16,9.89-16,23.42-11.09c0.399,0.089,0.65,0.484,0.561,0.883c-0.089,0.399-0.484,0.65-0.883,0.561
	c-0.062-0.014-0.122-0.036-0.178-0.065c-12.4-4.51-21.57,10.32-21.66,10.47C340.747,129.842,340.508,129.978,340.25,129.98z"/>
<path style="fill:#40565B;" d="M439.44,129.98c-0.256,0-0.495-0.132-0.63-0.35c-0.09-0.15-9.28-15-21.66-10.47
	c-0.363,0.187-0.81,0.045-0.997-0.319c-0.187-0.363-0.045-0.81,0.319-0.997c0.056-0.029,0.116-0.051,0.178-0.065
	c13.52-4.92,23.32,10.93,23.42,11.09c0.21,0.351,0.096,0.805-0.255,1.015c-0.113,0.068-0.243,0.104-0.375,0.105V129.98z"/>
<path style="fill:#40565B;" d="M389.97,207.08c-9.77,0-19.53-4.45-20.76-14.86c-0.094-0.398,0.151-0.797,0.549-0.891
	c0.398-0.094,0.797,0.151,0.891,0.549c0.013,0.056,0.02,0.114,0.02,0.172c1.2,10.17,11.55,14.11,21.25,13.49
	c9.32-0.59,18.71-5.38,18.64-13.4c0.047-0.406,0.415-0.697,0.821-0.649c0.341,0.04,0.609,0.308,0.649,0.649
	c0.08,8.93-10,14.25-20,14.88C391.33,207.06,390.65,207.08,389.97,207.08z"/>
<circle style="fill:#A1C2D8;" cx="341.27" cy="160.7" r="1.01"/>
<path style="fill:#A1C2D8;" d="M341.27,162.46c-0.966,0-1.75-0.784-1.75-1.75s0.784-1.75,1.75-1.75s1.75,0.784,1.75,1.75
	S342.237,162.46,341.27,162.46z M341.27,160.46c-0.155,0-0.28,0.125-0.28,0.28c0,0.31,0.56,0.31,0.56,0
	c0.017-0.154-0.095-0.292-0.248-0.308c-0.01-0.001-0.021-0.002-0.032-0.002V160.46z"/>
<circle style="fill:#A1C2D8;" cx="360.86" cy="170.63" r="0.8"/>
<path style="fill:#A1C2D8;" d="M360.86,172.17c-0.851,0-1.54-0.689-1.54-1.54c0-0.851,0.689-1.54,1.54-1.54
	c0.85,0,1.54,0.689,1.54,1.54S361.711,172.17,360.86,172.17L360.86,172.17z M360.86,170.56l0.07,0.07
	C360.93,170.591,360.899,170.56,360.86,170.56L360.86,170.56z"/>
<circle style="fill:#A1C2D8;" cx="375.9" cy="161.72" r="0.8"/>
<path style="fill:#A1C2D8;" d="M375.9,163.29c-0.851,0-1.54-0.689-1.54-1.54c0-0.851,0.689-1.54,1.54-1.54
	c0.85,0,1.54,0.689,1.54,1.54S376.751,163.29,375.9,163.29L375.9,163.29z M375.9,161.68l0.07,0.07
	c0.017-0.035,0.002-0.077-0.033-0.093c-0.012-0.006-0.025-0.008-0.037-0.007V161.68z"/>
<circle style="fill:#A1C2D8;" cx="404.01" cy="162.72" r="1.01"/>
<path style="fill:#A1C2D8;" d="M404,164.48c-0.966,0-1.75-0.784-1.75-1.75s0.784-1.75,1.75-1.75s1.75,0.784,1.75,1.75l0,0
	C405.75,163.696,404.966,164.48,404,164.48z M404,162.48c-0.155,0-0.28,0.125-0.28,0.28c0,0.31,0.56,0.31,0.56,0
	c0.017-0.154-0.095-0.292-0.248-0.308c-0.01-0.001-0.021-0.002-0.032-0.002V162.48z"/>
<circle style="fill:#A1C2D8;" cx="423.6" cy="172.65" r="0.8"/>
<path style="fill:#A1C2D8;" d="M423.59,174.19c-0.851,0-1.54-0.689-1.54-1.54c0-0.851,0.689-1.54,1.54-1.54
	c0.85,0,1.54,0.689,1.54,1.54S424.441,174.19,423.59,174.19L423.59,174.19z M423.59,172.58l0.07,0.07
	C423.66,172.611,423.629,172.58,423.59,172.58L423.59,172.58z"/>
<circle style="fill:#A1C2D8;" cx="438.64" cy="163.73" r="0.8"/>
<path style="fill:#A1C2D8;" d="M438.63,165.29c-0.851,0-1.54-0.689-1.54-1.54c0-0.851,0.689-1.54,1.54-1.54
	c0.85,0,1.54,0.689,1.54,1.54S439.481,165.29,438.63,165.29L438.63,165.29z M438.63,163.68l0.07,0.07
	c0.006-0.038-0.021-0.074-0.059-0.079c-0.004-0.001-0.007-0.001-0.011-0.001V163.68z"/>
<path style="fill:#40565B;" d="M419.84,160.07c-0.521-0.003-1.032-0.145-1.48-0.41c-1.35-0.79-2.12-2.52-2.11-4.75v-10.7
	c0-0.362,0.262-0.671,0.62-0.73c0.26,0,0.73-0.4,1.24-1.29c0.773-1.259,1.191-2.703,1.21-4.18c-0.133-0.225-0.133-0.505,0-0.73
	c0.132-0.229,0.376-0.37,0.64-0.37h2.89H423c0.4,0.071,0.804,0.121,1.21,0.15c0.407,0.034,0.71,0.392,0.675,0.8
	c-0.025,0.295-0.224,0.547-0.505,0.64l-0.89,0.29v16.11c0,2.25-0.8,4-2.18,4.78C420.862,159.934,420.355,160.068,419.84,160.07z
	 M417.72,144.73v10.18c0,1.67,0.51,3,1.38,3.48c0.454,0.277,1.026,0.277,1.48,0c0.89-0.51,1.43-1.82,1.43-3.51v-16.51h-1.19
	c-0.103,1.294-0.442,2.558-1,3.73C419.407,143.172,418.674,144.09,417.72,144.73L417.72,144.73z"/>
<path style="fill:#40565B;" d="M425.26,138.57c-0.43,0-0.82,0-1.17,0c-0.405-0.032-0.709-0.385-0.68-0.79
	c0.047-0.398,0.39-0.693,0.79-0.68c1.84,0.14,5.22,0,7.18-2.26c0.276-0.309,0.751-0.336,1.06-0.06s0.336,0.751,0.06,1.06l0,0
	C430.51,138.09,427.45,138.57,425.26,138.57z"/>
<path style="fill:#40565B;" d="M359.8,160.07c-0.521-0.003-1.032-0.145-1.48-0.41c-1.35-0.79-2.12-2.52-2.11-4.75v-10.7
	c0-0.362,0.262-0.671,0.62-0.73c0.26,0,0.73-0.4,1.24-1.29c0.773-1.259,1.191-2.703,1.21-4.18c-0.133-0.225-0.133-0.505,0-0.73
	c0.132-0.229,0.376-0.37,0.64-0.37h2.89h0.15c0.4,0.071,0.804,0.121,1.21,0.15c0.407,0.034,0.71,0.392,0.675,0.8
	c-0.025,0.295-0.224,0.547-0.505,0.64l-0.89,0.29v16.11c0,2.25-0.8,4-2.18,4.78C360.822,159.934,360.315,160.068,359.8,160.07z
	 M357.68,144.73v10.18c0,1.67,0.51,3,1.38,3.48c0.454,0.277,1.026,0.277,1.48,0c0.89-0.51,1.43-1.82,1.43-3.51v-16.51h-1.19
	c-0.103,1.294-0.442,2.558-1,3.73c-0.411,1.07-1.14,1.988-2.09,2.63H357.68z"/>
<path style="fill:#40565B;" d="M365.22,138.57c-0.43,0-0.82,0-1.17,0c-0.405-0.032-0.709-0.385-0.68-0.79
	c0.042-0.4,0.388-0.698,0.79-0.68c1.84,0.14,5.22,0,7.18-2.26c0.276-0.309,0.751-0.336,1.06-0.06s0.336,0.751,0.06,1.06l0,0
	C370.48,138.09,367.41,138.57,365.22,138.57z"/>
<path style="fill:#40565B;" d="M419.97,137.65c0.6,1-1.09,6.26-3,6.56v10.7c0,5.92,5.74,5.88,5.76,0v-16.62l1.4-0.45
	c-0.433-0.03-0.863-0.084-1.29-0.16L419.97,137.65z"/>
<path style="fill:#40565B;" d="M424.14,137.79c1.94,0.15,5.62,0,7.8-2.51"/>
<path style="fill:#40565B;" d="M359.93,137.65c0.6,1-1.09,6.26-3,6.56v10.7c0,5.92,5.74,5.88,5.76,0v-16.62l1.4-0.45
	c-0.433-0.03-0.863-0.084-1.29-0.16L359.93,137.65z"/>
<path style="fill:#40565B;" d="M364.14,137.79c1.94,0.15,5.62,0,7.8-2.51"/>
<path style="fill:#FAAC30;" d="M390.46,253.02c-4.032,0.052-8.058-0.35-12-1.2c-4-1-6-2.39-6-4.25
	c-0.047-0.406,0.243-0.773,0.649-0.821c0.406-0.047,0.773,0.243,0.821,0.649c0.007,0.057,0.007,0.115,0,0.172c0,1.91,6.32,4,16.52,4
	s16.52-2.06,16.52-4c-0.047-0.406,0.243-0.773,0.649-0.821c0.406-0.047,0.773,0.243,0.821,0.649c0.007,0.057,0.007,0.115,0,0.172
	C408.46,251.59,398.76,253.02,390.46,253.02z"/>
</svg>
