<svg width="177" height="162" viewBox="0 0 177 162" fill="none" xmlns="http://www.w3.org/2000/svg">
<path d="M173.29 18.49L146.8 45C145.93 43.56 143.19 42.54 140.7 42.72C139.83 41.29 137.11 40.27 134.62 40.45L158.62 16.45L170.79 21L173.29 18.49Z" fill="#D0E4F1" stroke="#D0E4F1" stroke-linecap="round" stroke-linejoin="round"/>
<path d="M173.29 18.49L170.79 20.97L158.64 16.41L161.11 13.93L173.29 18.49Z" fill="#D0E4F1" stroke="#D0E4F1" stroke-linecap="round" stroke-linejoin="round"/>
<path d="M175.47 16.29L173.29 18.49L161.12 13.93L163.31 11.74C164.398 10.8442 165.761 10.3499 167.17 10.34C168.921 10.2306 170.675 10.4895 172.32 11.1C175.67 12.36 177.09 14.69 175.47 16.29Z" fill="#D0E4F1" stroke="#D0E4F1" stroke-linecap="round" stroke-linejoin="round"/>
<path d="M159.7 20.93L159.25 21.38L145.25 35.38" fill="#D0E4F1"/>
<path d="M159.7 20.93L159.25 21.38L145.25 35.38" stroke="#D0E4F1" stroke-linecap="round" stroke-linejoin="round"/>
<path d="M160.91 25.29L159.64 26.56L146.64 40.56" fill="#D0E4F1"/>
<path d="M160.91 25.29L159.64 26.56L146.64 40.56" stroke="#D0E4F1" stroke-linecap="round" stroke-linejoin="round"/>
<path d="M146.8 45L138.41 47.72L134.48 46.26L134.63 40.45C137.12 40.27 139.84 41.3 140.71 42.72C143.19 42.52 145.92 43.55 146.8 45Z" fill="#D0E4F1" stroke="#D0E4F1" stroke-linecap="round" stroke-linejoin="round"/>
<path d="M138.41 47.7L134.42 49L134.47 46.23L138.41 47.7Z" fill="#D0E4F1" stroke="#D0E4F1" stroke-linecap="round" stroke-linejoin="round"/>
<path d="M76.93 4.29H22.25C21.1454 4.29 20.25 5.18543 20.25 6.29V87.3C20.25 88.4046 21.1454 89.3 22.25 89.3H76.93C78.0346 89.3 78.93 88.4046 78.93 87.3V6.29C78.93 5.18543 78.0346 4.29 76.93 4.29Z" fill="#D0E4F1" stroke="#D0E4F1" stroke-linecap="round" stroke-linejoin="round"/>
<path d="M81.47 86.9H24.79C24.2595 86.9 23.7508 86.6893 23.3758 86.3142C23.0007 85.9391 22.79 85.4304 22.79 84.9V3.9C22.79 3.36957 23.0007 2.86086 23.3758 2.48579C23.7508 2.11071 24.2595 1.9 24.79 1.9H79.47C80.0004 1.9 80.5091 2.11071 80.8842 2.48579C81.2593 2.86086 81.47 3.36957 81.47 3.9V86.9Z" fill="white"/>
<path d="M116.93 36.29H62.25C61.1454 36.29 60.25 37.1854 60.25 38.29V119.3C60.25 120.405 61.1454 121.3 62.25 121.3H116.93C118.035 121.3 118.93 120.405 118.93 119.3V38.29C118.93 37.1854 118.035 36.29 116.93 36.29Z" fill="#D0E4F1" stroke="#D0E4F1" stroke-linecap="round" stroke-linejoin="round"/>
<path d="M81.47 86.9H24.79C24.2595 86.9 23.7508 86.6893 23.3758 86.3142C23.0007 85.9391 22.79 85.4304 22.79 84.9V3.9C22.79 3.36957 23.0007 2.86086 23.3758 2.48579C23.7508 2.11071 24.2595 1.9 24.79 1.9H79.47C80.0004 1.9 80.5091 2.11071 80.8842 2.48579C81.2593 2.86086 81.47 3.36957 81.47 3.9V86.9Z" stroke="#3F555A" stroke-linecap="round" stroke-linejoin="round"/>
<path d="M40.87 11.62H44.97" stroke="#A1C2D8" stroke-linecap="round" stroke-linejoin="round"/>
<path d="M47.92 11.62H55.35" stroke="#A1C2D8" stroke-linecap="round" stroke-linejoin="round"/>
<path d="M40.87 15.03H52.88" stroke="#A1C2D8" stroke-linecap="round" stroke-linejoin="round"/>
<path d="M55.54 15.03H58.5" stroke="#A1C2D8" stroke-linecap="round" stroke-linejoin="round"/>
<path d="M40.87 8.22H43.53" stroke="#A1C2D8" stroke-linecap="round" stroke-linejoin="round"/>
<path d="M46.77 8.22H51.16" stroke="#A1C2D8" stroke-linecap="round" stroke-linejoin="round"/>
<path d="M33.14 15.32H29.03" stroke="#F56F40" stroke-linecap="round" stroke-linejoin="round"/>
<path d="M31.08 15.33V8.22L29 10.3" stroke="#F56F40" stroke-linecap="round" stroke-linejoin="round"/>
<path d="M31.08 28.97C32.2122 28.97 33.13 28.0522 33.13 26.92C33.13 25.7878 32.2122 24.87 31.08 24.87C29.9478 24.87 29.03 25.7878 29.03 26.92C29.03 28.0522 29.9478 28.97 31.08 28.97Z" stroke="#A1C2D8" stroke-linecap="round" stroke-linejoin="round"/>
<path d="M54.78 25.85H60.27" stroke="#A1C2D8" stroke-linecap="round" stroke-linejoin="round"/>
<path d="M45.17 25.85H51.35" stroke="#A1C2D8" stroke-linecap="round" stroke-linejoin="round"/>
<path d="M37.62 25.85H41.74" stroke="#A1C2D8" stroke-linecap="round" stroke-linejoin="round"/>
<path d="M45.91 28H64.7" stroke="#A1C2D8" stroke-linecap="round" stroke-linejoin="round"/>
<path d="M37.62 28H42.59" stroke="#A1C2D8" stroke-linecap="round" stroke-linejoin="round"/>
<path d="M31.08 39.5C32.5049 39.5 33.66 38.3449 33.66 36.92C33.66 35.4951 32.5049 34.34 31.08 34.34C29.6551 34.34 28.5 35.4951 28.5 36.92C28.5 38.3449 29.6551 39.5 31.08 39.5Z" stroke="#A1C2D8" stroke-linecap="round" stroke-linejoin="round"/>
<path d="M54.78 38H60.27" stroke="#A1C2D8" stroke-linecap="round" stroke-linejoin="round"/>
<path d="M45.17 38H51.35" stroke="#A1C2D8" stroke-linecap="round" stroke-linejoin="round"/>
<path d="M37.62 38H41.74" stroke="#A1C2D8" stroke-linecap="round" stroke-linejoin="round"/>
<path d="M50.91 35.85H57.02" stroke="#A1C2D8" stroke-linecap="round" stroke-linejoin="round"/>
<path d="M37.62 35.85H47.59" stroke="#A1C2D8" stroke-linecap="round" stroke-linejoin="round"/>
<path d="M31.08 48.97C32.2122 48.97 33.13 48.0522 33.13 46.92C33.13 45.7878 32.2122 44.87 31.08 44.87C29.9478 44.87 29.03 45.7878 29.03 46.92C29.03 48.0522 29.9478 48.97 31.08 48.97Z" stroke="#A1C2D8" stroke-linecap="round" stroke-linejoin="round"/>
<path d="M50.17 45.85H56.35" stroke="#A1C2D8" stroke-linecap="round" stroke-linejoin="round"/>
<path d="M37.62 45.85H46.74" stroke="#A1C2D8" stroke-linecap="round" stroke-linejoin="round"/>
<path d="M44.91 48H57.7" stroke="#A1C2D8" stroke-linecap="round" stroke-linejoin="round"/>
<path d="M37.62 48H41.59" stroke="#A1C2D8" stroke-linecap="round" stroke-linejoin="round"/>
<path d="M31.08 58.97C32.2122 58.97 33.13 58.0522 33.13 56.92C33.13 55.7878 32.2122 54.87 31.08 54.87C29.9478 54.87 29.03 55.7878 29.03 56.92C29.03 58.0522 29.9478 58.97 31.08 58.97Z" stroke="#A1C2D8" stroke-linecap="round" stroke-linejoin="round"/>
<path d="M54.78 55.85H60.27" stroke="#A1C2D8" stroke-linecap="round" stroke-linejoin="round"/>
<path d="M45.17 55.85H51.35" stroke="#A1C2D8" stroke-linecap="round" stroke-linejoin="round"/>
<path d="M37.62 55.85H41.74" stroke="#A1C2D8" stroke-linecap="round" stroke-linejoin="round"/>
<path d="M45.91 58H64.7" stroke="#A1C2D8" stroke-linecap="round" stroke-linejoin="round"/>
<path d="M37.62 58H42.59" stroke="#A1C2D8" stroke-linecap="round" stroke-linejoin="round"/>
<path d="M31.08 68.97C32.2122 68.97 33.13 68.0522 33.13 66.92C33.13 65.7878 32.2122 64.87 31.08 64.87C29.9478 64.87 29.03 65.7878 29.03 66.92C29.03 68.0522 29.9478 68.97 31.08 68.97Z" stroke="#A1C2D8" stroke-linecap="round" stroke-linejoin="round"/>
<path d="M54.78 68H60.27" stroke="#A1C2D8" stroke-linecap="round" stroke-linejoin="round"/>
<path d="M45.17 68H51.35" stroke="#A1C2D8" stroke-linecap="round" stroke-linejoin="round"/>
<path d="M37.62 68H41.74" stroke="#A1C2D8" stroke-linecap="round" stroke-linejoin="round"/>
<path d="M50.91 65.85H57.02" stroke="#A1C2D8" stroke-linecap="round" stroke-linejoin="round"/>
<path d="M37.62 65.85H47.59" stroke="#A1C2D8" stroke-linecap="round" stroke-linejoin="round"/>
<path d="M31.08 78.97C32.2122 78.97 33.13 78.0522 33.13 76.92C33.13 75.7878 32.2122 74.87 31.08 74.87C29.9478 74.87 29.03 75.7878 29.03 76.92C29.03 78.0522 29.9478 78.97 31.08 78.97Z" stroke="#A1C2D8" stroke-linecap="round" stroke-linejoin="round"/>
<path d="M50.17 75.85H56.35" stroke="#A1C2D8" stroke-linecap="round" stroke-linejoin="round"/>
<path d="M37.62 75.85H46.74" stroke="#A1C2D8" stroke-linecap="round" stroke-linejoin="round"/>
<path d="M44.91 78H57.7" stroke="#A1C2D8" stroke-linecap="round" stroke-linejoin="round"/>
<path d="M37.62 78H41.59" stroke="#A1C2D8" stroke-linecap="round" stroke-linejoin="round"/>
<path d="M31.08 37.75C31.5384 37.75 31.91 37.3784 31.91 36.92C31.91 36.4616 31.5384 36.09 31.08 36.09C30.6216 36.09 30.25 36.4616 30.25 36.92C30.25 37.3784 30.6216 37.75 31.08 37.75Z" fill="#19BC9C" stroke="#19BC9C" stroke-linecap="round" stroke-linejoin="round"/>
<path d="M119.56 34.08H64.88C63.7754 34.08 62.88 34.9754 62.88 36.08V117.09C62.88 118.195 63.7754 119.09 64.88 119.09H119.56C120.665 119.09 121.56 118.195 121.56 117.09V36.08C121.56 34.9754 120.665 34.08 119.56 34.08Z" fill="white"/>
<path d="M156.93 68.29H102.25C101.145 68.29 100.25 69.1854 100.25 70.29V151.3C100.25 152.405 101.145 153.3 102.25 153.3H156.93C158.035 153.3 158.93 152.405 158.93 151.3V70.29C158.93 69.1854 158.035 68.29 156.93 68.29Z" fill="#D0E4F1" stroke="#D0E4F1" stroke-linecap="round" stroke-linejoin="round"/>
<path d="M119.56 34.08H64.88C63.7754 34.08 62.88 34.9754 62.88 36.08V117.09C62.88 118.195 63.7754 119.09 64.88 119.09H119.56C120.665 119.09 121.56 118.195 121.56 117.09V36.08C121.56 34.9754 120.665 34.08 119.56 34.08Z" stroke="#3F555A" stroke-linecap="round" stroke-linejoin="round"/>
<path d="M112.41 52.45H88.47C87.8498 52.439 87.2462 52.651 86.769 53.0474C86.2919 53.4438 85.9729 53.9983 85.87 54.61C85.7878 55.213 85.9301 55.8252 86.27 56.33C86.4924 56.65 86.6115 57.0303 86.6115 57.42C86.6115 57.8097 86.4924 58.19 86.27 58.51C85.9301 59.0148 85.7878 59.627 85.87 60.23C85.9729 60.8417 86.2919 61.3962 86.769 61.7926C87.2462 62.189 87.8498 62.401 88.47 62.39H97.47C97.8579 62.4061 98.2443 62.3316 98.5985 62.1724C98.9527 62.0132 99.2649 61.7737 99.5104 61.4729C99.7559 61.172 99.928 60.8181 100.013 60.4392C100.098 60.0604 100.094 59.6669 100 59.29C99.9549 59.0621 99.9617 58.8269 100.02 58.6019C100.078 58.377 100.186 58.1679 100.336 57.9903C100.485 57.8127 100.673 57.671 100.885 57.5757C101.097 57.4805 101.328 57.4341 101.56 57.44H112.28C112.917 57.4535 113.536 57.2328 114.021 56.82C114.506 56.4071 114.822 55.8306 114.91 55.2C114.945 54.8513 114.906 54.4991 114.797 54.1664C114.687 53.8336 114.508 53.5276 114.272 53.2683C114.037 53.009 113.749 52.8021 113.428 52.6612C113.107 52.5202 112.76 52.4482 112.41 52.45V52.45Z" fill="#19BC9C"/>
<path d="M80.96 47.22H85.06" stroke="#A1C2D8" stroke-linecap="round" stroke-linejoin="round"/>
<path d="M88.01 47.22H95.45" stroke="#A1C2D8" stroke-linecap="round" stroke-linejoin="round"/>
<path d="M80.96 43.82H92.97" stroke="#A1C2D8" stroke-linecap="round" stroke-linejoin="round"/>
<path d="M95.64 43.82H98.6" stroke="#A1C2D8" stroke-linecap="round" stroke-linejoin="round"/>
<path d="M80.96 40.41H83.63" stroke="#A1C2D8" stroke-linecap="round" stroke-linejoin="round"/>
<path d="M86.87 40.41H91.25" stroke="#A1C2D8" stroke-linecap="round" stroke-linejoin="round"/>
<path d="M73.23 47.52H69.12L72.47 44.15C72.7133 43.9209 72.8953 43.6344 72.9994 43.3168C73.1035 42.9992 73.1263 42.6605 73.0658 42.3318C73.0053 42.0031 72.8634 41.6948 72.653 41.4351C72.4426 41.1753 72.1705 40.9725 71.8615 40.845C71.5525 40.7176 71.2165 40.6696 70.8842 40.7055C70.5519 40.7414 70.2339 40.86 69.9592 41.0504C69.6845 41.2409 69.462 41.4972 69.3119 41.7958C69.1618 42.0944 69.0889 42.4259 69.1 42.76" stroke="#F56F40" stroke-linecap="round" stroke-linejoin="round"/>
<path d="M80.47 68.9H69.67C69.67 68.2767 69.4224 67.679 68.9817 67.2383C68.541 66.7976 67.9433 66.55 67.32 66.55V55.75C67.9433 55.75 68.541 55.5024 68.9817 55.0617C69.4224 54.621 69.67 54.0233 69.67 53.4H80.47C80.47 54.0233 80.7176 54.621 81.1583 55.0617C81.599 55.5024 82.1968 55.75 82.82 55.75V66.55C82.1968 66.55 81.599 66.7976 81.1583 67.2383C80.7176 67.679 80.47 68.2767 80.47 68.9Z" fill="#D0E4F1" stroke="#A1C2D8" stroke-linecap="round" stroke-linejoin="round"/>
<path d="M71.48 61.88C71.1575 61.9432 70.8706 62.1253 70.6761 62.3902C70.4816 62.6551 70.3938 62.9834 70.43 63.31C70.43 63.715 70.5635 64.1087 70.81 64.43C70.9435 64.5952 71.1128 64.7278 71.3051 64.8179C71.4974 64.908 71.7076 64.9532 71.92 64.95C72.2534 64.8873 72.5682 64.7493 72.8403 64.5465C73.1123 64.3438 73.3346 64.0816 73.49 63.78C75.05 61.53 76.49 59.2 77.9 56.88V64.95" stroke="white" stroke-linecap="round" stroke-linejoin="round"/>
<path d="M79.23 64.95H76.5" stroke="white" stroke-linecap="round" stroke-linejoin="round"/>
<path d="M77.61 61.84H74.88" stroke="white" stroke-linecap="round" stroke-linejoin="round"/>
<path d="M87.61 88.9H85.74C85.497 88.8897 85.2584 88.8316 85.0378 88.729C84.8173 88.6264 84.6192 88.4813 84.4548 88.3021C84.2904 88.1228 84.1629 87.9129 84.0797 87.6843C83.9966 87.4557 83.9593 87.213 83.97 86.97V86.97C83.97 86.307 83.7066 85.6711 83.2378 85.2022C82.7689 84.7334 82.133 84.47 81.47 84.47L77.52 84.41C77.2833 84.41 77.0488 84.3631 76.8304 84.2719C76.6119 84.1807 76.4136 84.047 76.2472 83.8787C76.0807 83.7103 75.9493 83.5106 75.8605 83.2912C75.7717 83.0717 75.7274 82.8368 75.73 82.6C75.73 82.6 75.73 82.54 75.73 82.51C75.7274 81.8354 75.4575 81.1894 74.9796 80.7133C74.5017 80.2373 73.8546 79.97 73.18 79.97H69.25C68.6442 79.9585 68.0536 80.1607 67.5819 80.541C67.1102 80.9213 66.7873 81.4555 66.67 82.05C66.5676 82.6489 66.6886 83.2644 67.01 83.78C67.1839 84.0664 67.2759 84.395 67.2759 84.73C67.2759 85.065 67.1839 85.3936 67.01 85.68C66.7753 86.0675 66.6511 86.5119 66.6511 86.965C66.6511 87.4181 66.7753 87.8625 67.01 88.25C67.1839 88.5364 67.2759 88.865 67.2759 89.2C67.2759 89.535 67.1839 89.8636 67.01 90.15C66.6886 90.6656 66.5676 91.2812 66.67 91.88C66.7873 92.4745 67.1102 93.0087 67.5819 93.389C68.0536 93.7693 68.6442 93.9715 69.25 93.96H87.47C88.1066 93.9735 88.7261 93.7528 89.2108 93.34C89.6956 92.9271 90.012 92.3507 90.1 91.72C90.1456 91.3667 90.1152 91.0078 90.0108 90.6672C89.9064 90.3266 89.7304 90.0123 89.4946 89.7453C89.2588 89.4783 88.9687 89.2647 88.6437 89.1189C88.3186 88.9731 87.9662 88.8985 87.61 88.9V88.9Z" fill="#19BC9C"/>
<path d="M108.34 55H112.41" stroke="white" stroke-linecap="round" stroke-linejoin="round"/>
<path d="M95.44 55H104.27" stroke="white" stroke-linecap="round" stroke-linejoin="round"/>
<path d="M88.34 55H91.79" stroke="white" stroke-linecap="round" stroke-linejoin="round"/>
<path d="M102.37 59.9H113.31" stroke="#A1C2D8" stroke-linecap="round" stroke-linejoin="round"/>
<path d="M88.34 59.9H97.56" stroke="white" stroke-linecap="round" stroke-linejoin="round"/>
<path d="M87.34 64.4H96.22" stroke="#A1C2D8" stroke-linecap="round" stroke-linejoin="round"/>
<path d="M87.34 68.9H93.61" stroke="#A1C2D8" stroke-linecap="round" stroke-linejoin="round"/>
<path d="M90.4 73.4H96.22" stroke="#A1C2D8" stroke-linecap="round" stroke-linejoin="round"/>
<path d="M77.52 73.4H87.29" stroke="#A1C2D8" stroke-linecap="round" stroke-linejoin="round"/>
<path d="M69.15 73.4H74" stroke="#A1C2D8" stroke-linecap="round" stroke-linejoin="round"/>
<path d="M83.55 77.9H92.89" stroke="#A1C2D8" stroke-linecap="round" stroke-linejoin="round"/>
<path d="M69.15 77.9H80.1" stroke="#A1C2D8" stroke-linecap="round" stroke-linejoin="round"/>
<path d="M91.53 82.4H96.23" stroke="#A1C2D8" stroke-linecap="round" stroke-linejoin="round"/>
<path d="M77.34 82.4H88.26" stroke="#A1C2D8" stroke-linecap="round" stroke-linejoin="round"/>
<path d="M69.15 82.4H73.25" stroke="white" stroke-linecap="round" stroke-linejoin="round"/>
<path d="M84.93 86.9H89.58" stroke="#A1C2D8" stroke-linecap="round" stroke-linejoin="round"/>
<path d="M69.15 86.9H81.47" stroke="white" stroke-linecap="round" stroke-linejoin="round"/>
<path d="M91 91.4H96.25" stroke="#A1C2D8" stroke-linecap="round" stroke-linejoin="round"/>
<path d="M76.67 91.4H87.61" stroke="white" stroke-linecap="round" stroke-linejoin="round"/>
<path d="M69.15 91.4H73.25" stroke="white" stroke-linecap="round" stroke-linejoin="round"/>
<path d="M86.29 95.9H96.22" stroke="#A1C2D8" stroke-linecap="round" stroke-linejoin="round"/>
<path d="M78.06 95.9H82.86" stroke="#A1C2D8" stroke-linecap="round" stroke-linejoin="round"/>
<path d="M69.15 95.9H73.95" stroke="#A1C2D8" stroke-linecap="round" stroke-linejoin="round"/>
<path d="M82.42 100.4H90.11" stroke="#A1C2D8" stroke-linecap="round" stroke-linejoin="round"/>
<path d="M69.15 100.4H78.93" stroke="#A1C2D8" stroke-linecap="round" stroke-linejoin="round"/>
<path d="M86.3 104.9H91.79" stroke="#A1C2D8" stroke-linecap="round" stroke-linejoin="round"/>
<path d="M76.7 104.9H82.88" stroke="#A1C2D8" stroke-linecap="round" stroke-linejoin="round"/>
<path d="M69.15 104.9H73.27" stroke="#A1C2D8" stroke-linecap="round" stroke-linejoin="round"/>
<path d="M77.43 109.4H96.22" stroke="#A1C2D8" stroke-linecap="round" stroke-linejoin="round"/>
<path d="M69.15 109.4H74.15" stroke="#A1C2D8" stroke-linecap="round" stroke-linejoin="round"/>
<path d="M158.93 66.29H104.25C103.145 66.29 102.25 67.1854 102.25 68.29V149.3C102.25 150.405 103.145 151.3 104.25 151.3H158.93C160.035 151.3 160.93 150.405 160.93 149.3V68.29C160.93 67.1854 160.035 66.29 158.93 66.29Z" fill="white" stroke="#3F555A" stroke-linecap="round" stroke-linejoin="round"/>
<path d="M108.4 77.67C108.4 78.0656 108.517 78.4522 108.737 78.7811C108.957 79.11 109.269 79.3664 109.635 79.5178C110 79.6691 110.402 79.7087 110.79 79.6316C111.178 79.5544 111.535 79.3639 111.814 79.0842C112.094 78.8045 112.284 78.4481 112.362 78.0602C112.439 77.6722 112.399 77.2701 112.248 76.9046C112.096 76.5392 111.84 76.2268 111.511 76.0071C111.182 75.7873 110.796 75.67 110.4 75.67L112.33 73.11H108.7" stroke="#F56F40" stroke-linecap="round" stroke-linejoin="round"/>
<path d="M120.33 72.61H124.43" stroke="#A1C2D8" stroke-linecap="round" stroke-linejoin="round"/>
<path d="M127.38 72.61H134.81" stroke="#A1C2D8" stroke-linecap="round" stroke-linejoin="round"/>
<path d="M120.33 76.02H132.34" stroke="#A1C2D8" stroke-linecap="round" stroke-linejoin="round"/>
<path d="M135 76.02H137.96" stroke="#A1C2D8" stroke-linecap="round" stroke-linejoin="round"/>
<path d="M120.33 79.42H123" stroke="#A1C2D8" stroke-linecap="round" stroke-linejoin="round"/>
<path d="M126.24 79.42H130.62" stroke="#A1C2D8" stroke-linecap="round" stroke-linejoin="round"/>
<path d="M113.25 132.02H116.65" stroke="#A1C2D8" stroke-linecap="round" stroke-linejoin="round"/>
<path d="M120.53 132.02H126.31" stroke="#A1C2D8" stroke-linecap="round" stroke-linejoin="round"/>
<path d="M113.25 136.5H121.06" stroke="#A1C2D8" stroke-linecap="round" stroke-linejoin="round"/>
<path d="M123.57 136.5H128.46" stroke="#A1C2D8" stroke-linecap="round" stroke-linejoin="round"/>
<path d="M155.01 86.17H108.4V125.56H155.01V86.17Z" stroke="#19BC9C" stroke-linecap="round" stroke-linejoin="round"/>
<path d="M112.34 89.87C112.732 89.87 113.109 90.0259 113.386 90.3035C113.664 90.581 113.82 90.9575 113.82 91.35" stroke="#19BC9C" stroke-linecap="round" stroke-linejoin="round"/>
<path d="M115.3 89.87C114.907 89.87 114.531 90.0259 114.253 90.3035C113.976 90.581 113.82 90.9575 113.82 91.35" stroke="#19BC9C" stroke-linecap="round" stroke-linejoin="round"/>
<path d="M115.3 97.86C114.907 97.86 114.531 97.7041 114.253 97.4265C113.976 97.149 113.82 96.7725 113.82 96.38" stroke="#19BC9C" stroke-linecap="round" stroke-linejoin="round"/>
<path d="M112.34 97.86C112.732 97.86 113.109 97.7041 113.386 97.4265C113.664 97.149 113.82 96.7725 113.82 96.38V91.38" stroke="#19BC9C" stroke-linecap="round" stroke-linejoin="round"/>
<path d="M109.22 132.84C109.673 132.84 110.04 132.473 110.04 132.02C110.04 131.567 109.673 131.2 109.22 131.2C108.767 131.2 108.4 131.567 108.4 132.02C108.4 132.473 108.767 132.84 109.22 132.84Z" stroke="#A1C2D8" stroke-linecap="round" stroke-linejoin="round"/>
<path d="M109.22 137.32C109.673 137.32 110.04 136.953 110.04 136.5C110.04 136.047 109.673 135.68 109.22 135.68C108.767 135.68 108.4 136.047 108.4 136.5C108.4 136.953 108.767 137.32 109.22 137.32Z" stroke="#A1C2D8" stroke-linecap="round" stroke-linejoin="round"/>
<path d="M113.25 140.83H119.06" stroke="#A1C2D8" stroke-linecap="round" stroke-linejoin="round"/>
<path d="M122.57 140.83H128.46" stroke="#A1C2D8" stroke-linecap="round" stroke-linejoin="round"/>
<path d="M109.22 141.65C109.673 141.65 110.04 141.283 110.04 140.83C110.04 140.377 109.673 140.01 109.22 140.01C108.767 140.01 108.4 140.377 108.4 140.83C108.4 141.283 108.767 141.65 109.22 141.65Z" stroke="#A1C2D8" stroke-linecap="round" stroke-linejoin="round"/>
<path d="M151.91 137.32H139.54C137.833 137.32 136.45 138.701 136.45 140.405C136.45 142.109 137.833 143.49 139.54 143.49H151.91C153.617 143.49 155 142.109 155 140.405C155 138.701 153.617 137.32 151.91 137.32Z" stroke="#19BC9C" stroke-linecap="round" stroke-linejoin="round"/>
<path d="M143.71 140.7L144.78 141.76L147.48 139.06" stroke="#19BC9C" stroke-linecap="round" stroke-linejoin="round"/>
<path d="M172.88 18.93L146.4 45.42C146.4 44.6429 146.091 43.8977 145.542 43.3482C144.992 42.7987 144.247 42.49 143.47 42.49C143.467 41.719 143.16 40.9804 142.615 40.4352C142.07 39.8901 141.331 39.5826 140.56 39.58L164.56 15.58L170.39 21.42L172.88 18.93Z" fill="#19BC9C" stroke="#109995" stroke-linecap="round" stroke-linejoin="round"/>
<path d="M172.88 18.93L170.4 21.4L164.57 15.56L167.04 13.09L172.88 18.93Z" fill="#C3D4E0" stroke="#A1C2D8" stroke-linecap="round" stroke-linejoin="round"/>
<path d="M175.07 16.73L172.88 18.93L167 13.09L169.19 10.9C169.974 10.1811 171.005 9.79244 172.069 9.81503C173.132 9.83761 174.146 10.2697 174.899 11.0212C175.652 11.7728 176.086 12.7858 176.11 13.8493C176.134 14.9128 175.748 15.9447 175.03 16.73H175.07Z" fill="#F56F40" stroke="#D65129" stroke-linecap="round" stroke-linejoin="round"/>
<path d="M163.52 20.51L163.07 20.96L149.07 34.96" stroke="#109995" stroke-linecap="round" stroke-linejoin="round"/>
<path d="M162.62 25.29L161.35 26.56L147.94 40.68" stroke="#109995" stroke-linecap="round" stroke-linejoin="round"/>
<path d="M146.4 45.42L140.16 47.7L138.27 45.82L140.56 39.58C141.331 39.5826 142.07 39.8901 142.615 40.4352C143.16 40.9804 143.467 41.719 143.47 42.49C144.247 42.49 144.992 42.7987 145.542 43.3482C146.091 43.8977 146.4 44.6429 146.4 45.42V45.42Z" fill="white" stroke="#3F555A" stroke-linecap="round" stroke-linejoin="round"/>
<path d="M140.15 47.7L137.18 48.79L138.26 45.82L140.15 47.7Z" fill="#3F555A" stroke="#3F555A" stroke-linecap="round" stroke-linejoin="round"/>
<path d="M107.79 11.25L110.81 8.23L115.11 12.53L123.72 3.92L126.75 6.94L115.11 18.57L107.79 11.25Z" fill="#D0E4F1" stroke="#D0E4F1" stroke-linecap="round" stroke-linejoin="round"/>
<path d="M70.43 156.2L65.55 161.08L62.14 157.68L67.03 152.79L62.14 147.91L65.55 144.51L70.43 149.39L75.31 144.51L78.72 147.91L73.83 152.79L78.72 157.68L75.31 161.08L70.43 156.2Z" fill="#D0E4F1" stroke="#D0E4F1" stroke-linecap="round" stroke-linejoin="round"/>
<path d="M70.43 153.2L65.55 158.08L62.14 154.68L67.03 149.79L62.14 144.91L65.55 141.51L70.43 146.39L75.31 141.51L78.72 144.91L73.83 149.79L78.72 154.68L75.31 158.08L70.43 153.2Z" fill="#F56F40" stroke="#D65129" stroke-linecap="round" stroke-linejoin="round"/>
<path d="M107.79 8.25L110.81 5.23L115.11 9.53L123.72 0.919998L126.75 3.94L115.11 15.57L107.79 8.25Z" fill="#19BC9C" stroke="#109995" stroke-linecap="round" stroke-linejoin="round"/>
<path d="M21.07 109.01L14.1 116.19L10.09 112.34L17.07 105.15L21.07 109.01Z" fill="#D0E4F1" stroke="#D0E4F1" stroke-linecap="round" stroke-linejoin="round"/>
<path d="M37.03 133.72L38.64 135.29L41.93 134.03L39.26 131.43L37.03 133.72Z" fill="#D0E4F1" stroke="#D0E4F1" stroke-linecap="round" stroke-linejoin="round"/>
<path d="M33.57 128.14C31.78 128.83 28.44 130.33 30.2 132.04C32.64 134.41 34.71 132.04 36.74 134.04L38.14 132.6L39.54 131.16C37.54 129.16 39.82 127.05 37.38 124.68C35.61 122.96 34.22 126.35 33.57 128.16" fill="#D0E4F1"/>
<path d="M33.57 128.14C31.78 128.83 28.44 130.33 30.2 132.04C32.64 134.41 34.71 132.04 36.74 134.04L38.14 132.6L39.54 131.16C37.54 129.16 39.82 127.05 37.38 124.68C35.61 122.96 34.22 126.35 33.57 128.16" stroke="#D0E4F1" stroke-linecap="round" stroke-linejoin="round"/>
<path d="M20.1382 108.419L13.4699 115.283C12.9927 115.774 13.0041 116.559 13.4953 117.037L28.888 131.99C29.3793 132.467 30.1643 132.455 30.6415 131.964L37.3098 125.1C37.787 124.609 37.7756 123.824 37.2844 123.346L21.8916 108.393C21.4004 107.916 20.6154 107.928 20.1382 108.419Z" fill="#D0E4F1" stroke="#D0E4F1" stroke-linecap="round" stroke-linejoin="round"/>
<path d="M36.73 122.87C36.0643 124.178 35.0592 125.283 33.82 126.07C32.8758 126.846 31.8208 127.476 30.69 127.94C30.124 128.168 29.5179 128.279 28.9078 128.267C28.2978 128.255 27.6965 128.12 27.14 127.87C26.5696 127.545 26.0478 127.141 25.59 126.67C24.4 125.56 23.19 124.48 21.98 123.39C19.87 121.49 17.76 119.59 15.8 117.53C15.41 117.12 14.13 115.17 13.37 116.05C13.3188 116.116 13.2833 116.192 13.266 116.273C13.2486 116.355 13.25 116.439 13.27 116.52C13.92 117.2 14.54 117.91 15.16 118.62C15.2723 118.707 15.3732 118.808 15.46 118.92C16.2143 119.821 17.026 120.673 17.89 121.47C19.28 122.69 20.69 123.89 21.96 125.24C22.45 125.67 22.96 126.11 23.39 126.56C24.1 127.26 24.77 127.99 25.49 128.68C26.21 129.37 27.01 130.01 27.79 130.68L29.47 132C29.5395 132.077 29.6256 132.136 29.7217 132.175C29.8178 132.213 29.9213 132.229 30.0245 132.221C30.1277 132.214 30.2278 132.183 30.3171 132.13C30.4064 132.078 30.4827 132.006 30.54 131.92C33.0832 129.859 35.3786 127.51 37.38 124.92C37.5853 124.698 37.718 124.419 37.76 124.12C37.78 123.51 37.22 123.13 36.73 122.87Z" fill="#D0E4F1" stroke="#D0E4F1" stroke-linecap="round" stroke-linejoin="round"/>
<path d="M20.1382 108.419L13.4699 115.283C12.9927 115.774 13.0041 116.559 13.4953 117.037L28.888 131.99C29.3793 132.467 30.1643 132.455 30.6415 131.964L37.3098 125.1C37.787 124.609 37.7756 123.824 37.2844 123.346L21.8916 108.393C21.4004 107.916 20.6154 107.928 20.1382 108.419Z" fill="#D0E4F1" stroke="#D0E4F1" stroke-linecap="round" stroke-linejoin="round"/>
<path d="M20.1382 108.419L13.4699 115.283C12.9927 115.774 13.0041 116.559 13.4953 117.037L28.888 131.99C29.3793 132.467 30.1643 132.455 30.6415 131.964L37.3098 125.1C37.787 124.609 37.7756 123.824 37.2844 123.346L21.8916 108.393C21.4004 107.916 20.6154 107.928 20.1382 108.419Z" fill="#D0E4F1" stroke="#D0E4F1" stroke-linecap="round" stroke-linejoin="round"/>
<path d="M8.73524 97.3693L2.06696 104.234C1.58977 104.725 1.60115 105.51 2.09237 105.987L9.8246 113.498C10.3158 113.976 11.1009 113.964 11.578 113.473L18.2463 106.609C18.7235 106.118 18.7121 105.332 18.2209 104.855L10.4887 97.3439C9.99747 96.8667 9.21242 96.8781 8.73524 97.3693Z" fill="#D0E4F1" stroke="#D0E4F1" stroke-linecap="round" stroke-linejoin="round"/>
<g style="mix-blend-mode:multiply">
<path d="M17.71 104.55C17.1865 104.229 16.7116 103.835 16.3 103.38C16.5089 104.058 16.5497 104.776 16.4191 105.473C16.2884 106.17 15.9901 106.824 15.55 107.38C14.663 108.48 13.5472 109.374 12.28 110C11.7686 110.363 11.185 110.611 10.569 110.729C9.95304 110.846 9.319 110.829 8.71 110.68C7.94711 110.293 7.30409 109.705 6.84999 108.98L4 105.18C3.73 104.82 3.3 103.96 2.81 103.79C2.44281 104.256 2.10866 104.747 1.81 105.26C2.75 106.44 3.73999 107.56 4.75999 108.66L5 109C5.10968 109.052 5.21358 109.116 5.31 109.19C6.22799 109.951 7.07787 110.791 7.84999 111.7C8.49999 112.4 9.22999 113.02 9.91999 113.7C10.0662 113.759 10.2223 113.79 10.38 113.79C10.5776 113.775 10.7708 113.725 10.95 113.64C12.2796 112.957 13.4541 112.007 14.4 110.85L17.84 107.18C18.1438 106.914 18.3658 106.567 18.48 106.18C18.5105 105.864 18.4551 105.546 18.3195 105.259C18.184 104.972 17.9734 104.727 17.71 104.55V104.55Z" fill="#D0E4F1"/>
<path d="M17.71 104.55C17.1865 104.229 16.7116 103.835 16.3 103.38C16.5089 104.058 16.5497 104.776 16.4191 105.473C16.2884 106.17 15.9901 106.824 15.55 107.38C14.663 108.48 13.5472 109.374 12.28 110C11.7686 110.363 11.185 110.611 10.569 110.729C9.95304 110.846 9.319 110.829 8.71 110.68C7.94711 110.293 7.30409 109.705 6.84999 108.98L4 105.18C3.73 104.82 3.3 103.96 2.81 103.79C2.44281 104.256 2.10866 104.747 1.81 105.26C2.75 106.44 3.73999 107.56 4.75999 108.66L5 109C5.10968 109.052 5.21358 109.116 5.31 109.19C6.22799 109.951 7.07787 110.791 7.84999 111.7C8.49999 112.4 9.22999 113.02 9.91999 113.7C10.0662 113.759 10.2223 113.79 10.38 113.79C10.5776 113.775 10.7708 113.725 10.95 113.64C12.2796 112.957 13.4541 112.007 14.4 110.85L17.84 107.18C18.1438 106.914 18.3658 106.567 18.48 106.18C18.5105 105.864 18.4551 105.546 18.3195 105.259C18.184 104.972 17.9734 104.727 17.71 104.55V104.55Z" stroke="#D0E4F1" stroke-linecap="round" stroke-linejoin="round"/>
</g>
<path d="M8.73524 97.3693L2.06696 104.234C1.58977 104.725 1.60115 105.51 2.09237 105.987L9.8246 113.498C10.3158 113.976 11.1009 113.964 11.578 113.473L18.2463 106.609C18.7235 106.118 18.7121 105.332 18.2209 104.855L10.4887 97.3439C9.99747 96.8667 9.21242 96.8781 8.73524 97.3693Z" fill="#D0E4F1" stroke="#D0E4F1" stroke-linecap="round" stroke-linejoin="round"/>
<path d="M21.52 112.7C21.6943 112.885 21.7914 113.13 21.7914 113.385C21.7914 113.64 21.6943 113.885 21.52 114.07L19.15 116.51C18.9645 116.684 18.7195 116.781 18.465 116.781C18.2104 116.781 17.9654 116.684 17.78 116.51L7.86997 106.9C7.69559 106.715 7.59851 106.47 7.59851 106.215C7.59851 105.96 7.69559 105.715 7.86997 105.53L10.24 103.09C10.4254 102.916 10.6704 102.819 10.925 102.819C11.1795 102.819 11.4245 102.916 11.61 103.09L21.52 112.7Z" fill="#D0E4F1" stroke="#D0E4F1" stroke-linecap="round" stroke-linejoin="round"/>
<path d="M23.56 107.77L16.58 114.95L12.58 111.09L19.56 103.91L23.56 107.77Z" fill="#D0E4F1" stroke="#A1C2D8" stroke-linecap="round" stroke-linejoin="round"/>
<path d="M39.52 132.48L41.13 134.04L44.42 132.78L41.75 130.19L39.52 132.48Z" fill="#19BC9C" stroke="#19BC9C" stroke-linecap="round" stroke-linejoin="round"/>
<path d="M36.06 126.89C34.27 127.58 30.93 129.08 32.69 130.79C35.13 133.16 37.2 130.79 39.23 132.79L40.63 131.35L42 129.9C40 127.9 42.28 125.79 39.84 123.42C38.07 121.7 36.68 125.09 36.03 126.9" fill="#D0E4F1"/>
<path d="M36.06 126.89C34.27 127.58 30.93 129.08 32.69 130.79C35.13 133.16 37.2 130.79 39.23 132.79L40.63 131.35L42 129.9C40 127.9 42.28 125.79 39.84 123.42C38.07 121.7 36.68 125.09 36.03 126.9" stroke="#A1C2D8" stroke-linecap="round" stroke-linejoin="round"/>
<path d="M22.6338 107.179L15.9655 114.043C15.4883 114.534 15.4997 115.319 15.9909 115.796L31.3837 130.75C31.8749 131.227 32.6599 131.215 33.1371 130.724L39.8054 123.86C40.2826 123.369 40.2712 122.584 39.78 122.106L24.3872 107.153C23.896 106.676 23.111 106.687 22.6338 107.179Z" fill="#19BC9C" stroke="#109995" stroke-miterlimit="10"/>
<path d="M39.21 121.63C38.5442 122.938 37.5392 124.043 36.3 124.83C35.3558 125.606 34.3007 126.236 33.17 126.7C32.604 126.928 31.9979 127.039 31.3878 127.027C30.7778 127.015 30.1765 126.88 29.62 126.63C29.0496 126.305 28.5278 125.901 28.07 125.43C26.88 124.32 25.67 123.24 24.46 122.15C22.35 120.25 20.24 118.35 18.28 116.29C17.89 115.88 16.61 113.93 15.85 114.81C15.7988 114.876 15.7633 114.952 15.7459 115.034C15.7286 115.115 15.73 115.199 15.75 115.28C16.4 115.96 17.02 116.67 17.64 117.38C17.7523 117.467 17.8531 117.568 17.94 117.68C18.6943 118.581 19.506 119.433 20.37 120.23C21.76 121.45 23.17 122.65 24.44 124C24.93 124.43 25.44 124.87 25.87 125.32C26.58 126.02 27.25 126.75 27.97 127.44C28.69 128.13 29.49 128.77 30.27 129.44L32 130.74C32.0695 130.817 32.1555 130.876 32.2516 130.915C32.3477 130.953 32.4513 130.969 32.5545 130.961C32.6577 130.954 32.7578 130.923 32.8471 130.87C32.9364 130.818 33.0127 130.746 33.07 130.66C35.6132 128.599 37.9086 126.25 39.91 123.66C40.1153 123.438 40.2479 123.159 40.29 122.86C40.27 122.26 39.71 121.89 39.21 121.63Z" fill="#109995"/>
<path d="M22.6338 107.179L15.9655 114.043C15.4883 114.534 15.4997 115.319 15.9909 115.796L31.3837 130.75C31.8749 131.227 32.6599 131.215 33.1371 130.724L39.8054 123.86C40.2826 123.369 40.2712 122.584 39.78 122.106L24.3872 107.153C23.896 106.676 23.111 106.687 22.6338 107.179Z" stroke="#109995" stroke-miterlimit="10"/>
<path d="M22.6338 107.179L15.9655 114.043C15.4883 114.534 15.4997 115.319 15.9909 115.796L31.3837 130.75C31.8749 131.227 32.6599 131.215 33.1371 130.724L39.8054 123.86C40.2826 123.369 40.2712 122.584 39.78 122.106L24.3872 107.153C23.896 106.676 23.111 106.687 22.6338 107.179Z" stroke="#0A706E" stroke-linecap="round" stroke-linejoin="round"/>
<path d="M11.2236 96.1223L4.55537 102.987C4.07818 103.478 4.08956 104.263 4.58077 104.74L12.313 112.251C12.8042 112.729 13.5893 112.717 14.0664 112.226L20.7347 105.362C21.2119 104.87 21.2005 104.085 20.7093 103.608L12.9771 96.0969C12.4859 95.6197 11.7008 95.6311 11.2236 96.1223Z" fill="#19BC9C" stroke="#109995" stroke-miterlimit="10"/>
<g style="mix-blend-mode:multiply">
<path d="M20.19 103.31C19.6665 102.989 19.1916 102.595 18.78 102.14C18.9889 102.818 19.0297 103.536 18.8991 104.233C18.7684 104.93 18.4701 105.584 18.03 106.14C17.143 107.24 16.0272 108.134 14.76 108.76C14.2486 109.123 13.665 109.371 13.049 109.489C12.433 109.606 11.799 109.589 11.19 109.44C10.4271 109.053 9.7841 108.465 9.33 107.74L6.44 103.94C6.17 103.58 5.74 102.72 5.25 102.55C4.88282 103.016 4.54867 103.507 4.25 104.02C5.19 105.2 6.18 106.32 7.2 107.42L7.57 107.75C7.67968 107.802 7.78359 107.866 7.88 107.94C8.798 108.701 9.64788 109.541 10.42 110.45C11.07 111.15 11.8 111.77 12.49 112.45C12.6362 112.509 12.7923 112.54 12.95 112.54C13.1476 112.525 13.3408 112.475 13.52 112.39C14.8496 111.707 16.0241 110.757 16.97 109.6L20.41 105.93C20.7138 105.664 20.9358 105.317 21.05 104.93C21.0694 104.607 20.9994 104.285 20.8477 103.999C20.696 103.713 20.4684 103.475 20.19 103.31Z" fill="#D5D5D7"/>
</g>
<path d="M11.2236 96.1223L4.55537 102.987C4.07818 103.478 4.08956 104.263 4.58077 104.74L12.313 112.251C12.8042 112.729 13.5893 112.717 14.0664 112.226L20.7347 105.362C21.2119 104.87 21.2005 104.085 20.7093 103.608L12.9771 96.0969C12.4859 95.6197 11.7008 95.6311 11.2236 96.1223Z" stroke="#0A706E" stroke-linecap="round" stroke-linejoin="round"/>
<path d="M24 111.46C24.1744 111.645 24.2715 111.89 24.2715 112.145C24.2715 112.4 24.1744 112.645 24 112.83L21.63 115.27C21.4445 115.444 21.1996 115.541 20.945 115.541C20.6904 115.541 20.4455 115.444 20.26 115.27L10.35 105.66C10.1756 105.475 10.0786 105.23 10.0786 104.975C10.0786 104.72 10.1756 104.475 10.35 104.29L12.72 101.85C12.9055 101.676 13.1504 101.579 13.405 101.579C13.6596 101.579 13.9045 101.676 14.09 101.85L24 111.46Z" fill="#3F555A" stroke="#233839" stroke-linecap="round" stroke-linejoin="round"/>
</svg>
