<svg width="195" height="78" viewBox="0 0 195 78" fill="none" xmlns="http://www.w3.org/2000/svg">
<path d="M194 60.4H63.6L36.3 76.8H166.8L194 60.4Z" fill="#D0E4F1" stroke="#D0E4F1" stroke-linecap="round" stroke-linejoin="round"/>
<path d="M69 76.8H139.3L130.8 62.1H77.5L69 76.8Z" fill="#19BC9C" stroke="#0A706E" stroke-linecap="round" stroke-linejoin="round"/>
<path d="M156.368 47.3438L130.821 62.0938L139.321 76.8158L164.868 62.0658L156.368 47.3438Z" fill="#109995" stroke="#0A706E" stroke-linecap="round" stroke-linejoin="round"/>
<path d="M77.5 62.1H130.8L156.3 47.4H103L77.5 62.1Z" fill="#0A706E" stroke="#0A706E" stroke-linecap="round" stroke-linejoin="round"/>
<path d="M89.9 40.6H118.4L143.9 25.9H115.4L89.9 40.6Z" fill="#1A628A" stroke="#1A628A" stroke-linecap="round" stroke-linejoin="round"/>
<path d="M144.249 25.8359L118.586 40.5856L127.107 55.4113L152.77 40.6616L144.249 25.8359Z" fill="#2173A1" stroke="#1A628A" stroke-linecap="round" stroke-linejoin="round"/>
<path d="M89.9 40.6L81.4 55.4H126.9L118.4 40.6H89.9Z" fill="#3290C1" stroke="#1A628A" stroke-linecap="round" stroke-linejoin="round"/>
<path d="M114.5 33.9L104.1 15.9L93.8 33.9H114.5Z" fill="#19BC9C" stroke="#C74822" stroke-linecap="round" stroke-linejoin="round"/>
<path d="M104.8 16.3L130.4 1.6L140.3 19.2L114.6 33.9L104.8 16.3Z" fill="#109995" stroke="#C74822" stroke-linecap="round" stroke-linejoin="round"/>
<path d="M114.5 33.9L104.1 15.9L93.8 33.9H114.5Z" fill="#F56F40" stroke="#C74822" stroke-linecap="round" stroke-linejoin="round"/>
<path d="M129.947 1.08107L104.284 15.8307L114.698 33.9511L140.362 19.2014L129.947 1.08107Z" fill="#D65129" stroke="#C74822" stroke-linecap="round" stroke-linejoin="round"/>
<path d="M25.9 58.8L36.3 76.8L46.7 58.8H25.9Z" fill="#19BC9C" stroke="#0A706E" stroke-linecap="round" stroke-linejoin="round"/>
<path d="M25.9 58.8H46.7L72.2 44.1H51.5L25.9 58.8Z" fill="#0A706E" stroke="#0A706E" stroke-linecap="round" stroke-linejoin="round"/>
<path d="M13.6 37.4H59.1L84.6 22.6H39.1L13.6 37.4Z" fill="#1A628A" stroke="#1A628A" stroke-linecap="round" stroke-linejoin="round"/>
<path d="M36.3 76.8L46.7 58.8L72.2 44.1L61.9 62.1L36.3 76.8Z" fill="#109995" stroke="#0A706E" stroke-linecap="round" stroke-linejoin="round"/>
<path d="M50.6 52.1L59.1 37.4L84.6 22.6L76.1 37.4L50.6 52.1Z" fill="#2173A1" stroke="#1A628A" stroke-linecap="round" stroke-linejoin="round"/>
<path d="M50.6 52.1L59.1 37.4H13.6L22.1 52.1H50.6Z" fill="#3290C1" stroke="#1A628A" stroke-linecap="round" stroke-linejoin="round"/>
<path d="M1.20001 15.9H71.5L97 1.2H26.7L1.20001 15.9Z" fill="#F56F40" stroke="#C74822" stroke-linecap="round" stroke-linejoin="round"/>
<path d="M71.5 15.9H1.20001L9.70001 30.6H63L71.5 15.9Z" fill="#F56F40" stroke="#C74822" stroke-linecap="round" stroke-linejoin="round"/>
<path d="M63 30.6L71.5 15.9L97 1.2L88.5 15.9L63 30.6Z" fill="#D65129" stroke="#C74822" stroke-linecap="round" stroke-linejoin="round"/>
</svg>
