<svg id="expanded" xmlns="http://www.w3.org/2000/svg" xmlns:xlink="http://www.w3.org/1999/xlink" viewBox="0 0 356 260"><defs><style>.cls-1{fill:none;}.cls-2{fill:#e8e9ea;}.cls-3{fill:#004066;}.cls-4{fill:#d4dbdf;}.cls-5{fill:#399fdf;}.cls-6{fill:#2f89c3;}.cls-7{fill:#277ab6;}.cls-8{fill:#003759;}.cls-9{fill:#f66f45;}.cls-10{fill:#e0653f;}.cls-11{fill:#8fabbb;}.cls-12{fill:#f3f6f7;}.cls-13{fill:#fff;}.cls-14{clip-path:url(#clip-path);}.cls-15{fill:#002f4e;}.cls-16{fill:#83c2e9;}.cls-17{fill:#f5a58c;}.cls-18{fill:#829cac;}.cls-19{fill:#e9e9ea;}.cls-20{fill:#f56f41;}.cls-21{fill:#3491cd;}.cls-22{fill:#e0653c;}.cls-23{fill:#243839;}.cls-24{fill:#c1c8cd;}.cls-25{fill:#7793a4;}.cls-26{fill:#00bd9c;}.cls-27{fill:#00a288;}.cls-28{fill:#61d4c0;}</style><clipPath id="clip-path"><path class="cls-1" d="M43.93,227.34q1.82,0,3.63.16v-.11l-3.63,0m-6.18-.08,0,.14q2-.09,4-.09h.18l-4.18-.05"/></clipPath></defs><title>Artboard 7 copy 3</title><path class="cls-2" d="M21.85,227.25c1-2.35,1.4-7,1.66-9.54,1.46-14.58-.53-29.47,2.36-43.84,1.83-1.3,6.68-2.58,8.63-1.45a11.4,11.4,0,0,1,4.39,3.92,13.63,13.63,0,0,1,1.3,6.17c.76,14.91,1.24,28.83,1.44,43.75l-19.78,1"/><path class="cls-3" d="M21.85,227.75l-.2,0a.5.5,0,0,1-.26-.66c.9-2.07,1.29-6,1.55-8.66l.07-.73c.6-6,.62-12.2.63-18.18,0-8.48,0-17.25,1.74-25.71a.5.5,0,0,1,.2-.31c1.8-1.28,6.92-2.78,9.17-1.48a12,12,0,0,1,4.58,4.1c1.14,2,1.27,4.43,1.37,6.39.79,15.51,1.25,29.42,1.44,43.77a.5.5,0,0,1-.49.51h0a.5.5,0,0,1-.5-.49c-.19-14.34-.65-28.23-1.44-43.73a13.25,13.25,0,0,0-1.24-5.94,11.08,11.08,0,0,0-4.21-3.74c-1.64-.95-6.08.13-7.93,1.32-1.64,8.3-1.66,16.95-1.68,25.31,0,6,0,12.21-.63,18.28l-.07.73c-.26,2.69-.66,6.75-1.62,9a.5.5,0,0,1-.46.3"/><path class="cls-4" d="M33.53,196c2,10.07,1.54,20.5.16,30.68l2.48.07a1,1,0,0,0,1.31-1c.39-1.46.77-2.93,1.09-4.4a57.93,57.93,0,0,0-2-29.75,30.35,30.35,0,0,0-1.64-4.19A27.16,27.16,0,0,1,33,183.35c-.4-1.31-.45-2.7-.83-4a3.28,3.28,0,0,0-.86-1.59c-2-1.79-1.45,1.45-1.32,2.41.25,1.77.62,3.53,1,5.28.82,3.53,1.84,7,2.55,10.58"/><path class="cls-5" d="M37.23,227.25a56.76,56.76,0,0,0-1.13-36.14c-1.7-4.36-4-8.58-4.58-13.23a20.6,20.6,0,0,0-6.8-1.27c.93-12.28,2-25.13,8.73-35.47a23.45,23.45,0,0,1,8-8c3.8-2.11,8.24-2.68,12.58-3.08,18.43-1.68,37.67-.63,54.31,7.47,3.74,1.82,7.39,4,10.05,7.25a27,27,0,0,1,4.94,10.33c6.39,23.71-5.83,48.87-2.34,73.17l-83.79-1.09"/><path class="cls-3" d="M121,228.83a.5.5,0,0,1-.49-.43c-1.61-11.22.12-22.75,1.8-33.9,2-13,4-26.48.55-39.21A26.3,26.3,0,0,0,118,145.15c-2.22-2.68-5.27-4.88-9.89-7.12-14.38-7-32.06-9.43-54.05-7.42-4.2.38-8.61.93-12.38,3a22.86,22.86,0,0,0-7.85,7.79c-6.69,10.32-7.75,23.23-8.62,34.71a21,21,0,0,1,6.44,1.29.5.5,0,0,1,.32.41,36.47,36.47,0,0,0,3.14,9.73c.48,1.12,1,2.25,1.41,3.38A57.37,57.37,0,0,1,37.7,227.4a.5.5,0,0,1-1-.3,56.33,56.33,0,0,0-1.12-35.8c-.44-1.12-.92-2.23-1.39-3.35a38.33,38.33,0,0,1-3.18-9.7,20,20,0,0,0-6.35-1.14.5.5,0,0,1-.36-.16.5.5,0,0,1-.13-.37c.88-11.72,1.89-25,8.81-35.7a23.84,23.84,0,0,1,8.2-8.12c3.94-2.18,8.47-2.75,12.77-3.14,22.17-2,40,.44,54.58,7.52,4.75,2.31,7.9,4.59,10.22,7.38a27.27,27.27,0,0,1,5,10.52c3.49,12.94,1.45,26.5-.53,39.62-1.67,11.08-3.39,22.54-1.8,33.61a.5.5,0,0,1-.42.57H121"/><path class="cls-4" d="M99,228h0l11.11.16v0L99,228"/><path class="cls-6" d="M103.27,147a114.14,114.14,0,0,0-34.18,29.09c-2,2.51-3.93,5.35-3.93,8.54s2.1,6.22,4.13,8.84q12.93,16.68,27.27,32.22c.7.76,2.32,2.26,2.43,2.36l11.11.14v-3.65l-2.37.15-.13.27a.5.5,0,0,1-.44.27l-.23-.06a.5.5,0,0,1-.21-.68c1.1-2.09,1.5-6.05,1.76-8.68l.07-.73a105.52,105.52,0,0,0,.49-11c0-2.42,0-4.84-.09-7.22s-.09-4.8-.09-7.21c0-3.06.08-6.14.33-9.22A105.55,105.55,0,0,1,93.3,155.52a1,1,0,0,1,.13-.77,106,106,0,0,1,9.84-7.77"/><path class="cls-2" d="M107.16,224.72c1.25-2.38,1.62-7,1.89-9.59,1.53-14.62-1.33-29.45,2-43.9,2.3-1.35,8.44-2.77,10.93-1.7a13.9,13.9,0,0,1,5.67,3.79c1.38,1.81,1.61,4,1.79,6.13,1.3,14.88,2.22,28.79,2.81,43.7l-25.11,1.56"/><path class="cls-3" d="M107.16,225.22l-.23-.06a.5.5,0,0,1-.21-.68c1.1-2.09,1.5-6.05,1.76-8.68l.07-.73a147.68,147.68,0,0,0,.39-18.18c-.17-8.48-.34-17.26,1.64-25.78a.5.5,0,0,1,.23-.32c2.23-1.31,8.56-2.93,11.38-1.73,2,.84,4.42,2.06,5.87,4s1.72,4.42,1.89,6.39c1.35,15.49,2.24,29.38,2.81,43.72a.5.5,0,0,1-1,0c-.57-14.33-1.46-28.21-2.81-43.68-.17-1.93-.36-4.12-1.69-5.87s-3.61-2.84-5.47-3.64c-2.22-.95-7.9.27-10.3,1.57-1.89,8.33-1.72,17-1.56,25.32a148.51,148.51,0,0,1-.4,18.31l-.07.72c-.27,2.7-.69,6.79-1.87,9a.5.5,0,0,1-.44.27"/><path class="cls-4" d="M109.46,182.17a1.32,1.32,0,0,1,.8-1.39l5.49-3.51c2.95-1.89,5.9-3.78,9-5.45a54.47,54.47,0,0,1,1.14,7.69c.1,2,0,4-.08,6-.33,10.56.87,21.16,0,31.69a2.13,2.13,0,0,0-1.36-.19,2.93,2.93,0,0,1-1.12-.06c-1-.32-1.27-1.5-1.42-2.5-1.67-11.7-.45-23.61.77-35.36l-5.08,2.22a32.49,32.49,0,0,0-5.72,3c-.53.37-1.53,1.63-2.24,1.12-.53-.38-.15-2.64-.13-3.23"/><path class="cls-3" d="M31.51,178.38a.5.5,0,0,1-.5-.43,37.26,37.26,0,0,1,5.3-24.51.5.5,0,1,1,.85.53A36.77,36.77,0,0,0,32,177.82a.5.5,0,0,1-.43.56h-.07"/><path class="cls-7" d="M60.78,177.14a9.36,9.36,0,0,1-1.33-.09,2.2,2.2,0,0,1-1.66-1,2.65,2.65,0,0,1-.36-1.17,3.64,3.64,0,0,1,0-.9l.07-.42a1.19,1.19,0,0,1,.72-.85,3.65,3.65,0,0,1,1.16-.36,7.26,7.26,0,0,1,1.08-.11l1.47,0v0c.24,0,.48,0,.7,0s.54.1.81.16a2.18,2.18,0,0,1,.73.29,1.13,1.13,0,0,1,.58.82,1.85,1.85,0,0,1,0,.6,9.9,9.9,0,0,1-.28,1.11,2.4,2.4,0,0,1-1,1.31,2.61,2.61,0,0,1-.9.38c-.28.06-.57.11-.86.15a3.09,3.09,0,0,1-.35,0h-.62M50,176.55c-.45,0-.88-.05-1.32-.08a4.36,4.36,0,0,1-.68-.11,3.43,3.43,0,0,1-1.16-.43,1.38,1.38,0,0,1-.64-1.14,4.85,4.85,0,0,1,.29-1.57,2.11,2.11,0,0,1,.41-.78,2.06,2.06,0,0,1,1-.64,5.52,5.52,0,0,1,.75-.17,5.07,5.07,0,0,1,.86-.07c.26,0,.53,0,.81,0s.37,0,.59,0,.68.07,1,.14a5,5,0,0,1,1.29.4,1.27,1.27,0,0,1,.68.63.83.83,0,0,1,0,.7l0,.06c-.1.24-.2.48-.31.72a4,4,0,0,1-.65,1,3.65,3.65,0,0,1-1.63,1.11,3.59,3.59,0,0,1-.82.17l-.4,0m-5.92-3.72v-.09c.16-.68.31-1.36.47-2,.09-.37.19-.74.29-1.11s.18-.63.28-.95.2-.62.32-.93.25-.69.39-1,.26-.62.4-.93.32-.71.52-1,.54-.92.83-1.37a7.59,7.59,0,0,1,1.06-1.3,5,5,0,0,1,1.76-1.18,2.85,2.85,0,0,1,1-.21h0c.39,0,.78,0,1.17,0a5.71,5.71,0,0,1,.78.12A6.62,6.62,0,0,1,54,161l1.19.4c.26.09.52.19.79.28s.47.12.71.17l.84.16a4.61,4.61,0,0,0,.48,0c.47,0,.93.06,1.4.07h0c.29,0,.59,0,.88-.06l.56-.06.67-.12.7-.14.51-.11.62-.11.49-.08.29,0,.51,0h0c.38,0,.76,0,1.14,0a2.93,2.93,0,0,1,1.18.33,2.78,2.78,0,0,1,1.15,1.14,4.25,4.25,0,0,1,.5,1.46c.06.4.11.8.14,1.21s0,.71,0,1.06,0,.69-.07,1c0,.16,0,.32-.07.47l-.12.91v0c-.06.32-.12.63-.19.95q-.3,1.28-.62,2.56c-.08.31-.18.61-.27.92s-.13.38-.19.57h0l-.08-.33c-.09-.36-.17-.72-.28-1.07a.58.58,0,0,0-.41-.34l-.66-.23-.63-.17-.49-.13-.29-.06-.33-.06-.63-.11h0a19.23,19.23,0,0,0-2.39-.16h0c-.33,0-.68.06-1,.09a8.32,8.32,0,0,0-2,.5,1.56,1.56,0,0,1-.52.12l-.15,0-.53-.13-.31-.07a2.79,2.79,0,0,0-.33-.05H56a4.63,4.63,0,0,0-.7.06c-.2,0-.4,0-.6.06h0a1.24,1.24,0,0,1-.57-.21c-.29-.15-.57-.3-.87-.43a4.46,4.46,0,0,0-.69-.22,5.77,5.77,0,0,0-.85-.17c-.7-.06-1.41-.11-2.13-.15h-.18c-.23,0-.47,0-.7,0l-1,.1c-.32,0-.65.07-1,.12s-.61.13-.92.18a1.12,1.12,0,0,0-.68.35c-.15.16-.27.34-.41.51l-.57.74-.07.05m15.87-19.54-.81.1c-.34,0-.68.09-1,.16s-.72.16-1.08.26-.84.24-1.26.38A15.62,15.62,0,0,0,52.13,156a16.29,16.29,0,0,0-2.42,2,17.26,17.26,0,0,0-1.54,1.77c-.28.38-.55.76-.8,1.15s-.43.68-.63,1-.27.48-.4.72-.38.72-.55,1.08-.27.58-.39.88-.23.55-.34.83-.18.48-.27.73-.24.7-.35,1.05-.25.85-.36,1.27c-.07.25-.11.5-.16.75s-.17.77-.25,1.15-.11.55-.16.82v0c0,.31-.08.62-.12.93s-.05.34-.08.51,0,.23,0,.34-.05.51-.08.77,0,.27-.05.41-.06.55-.09.82a.28.28,0,0,0,.2.32h0a.47.47,0,0,0,.31-.17l1.33-1.7a3,3,0,0,1,.3-.34.22.22,0,0,1,.15-.06.15.15,0,0,1,.15.13v.24c0,.27-.11.53-.16.8a2.41,2.41,0,0,0-.05.4,2.53,2.53,0,0,0,.15,1,1.89,1.89,0,0,0,.84.94,3.5,3.5,0,0,0,1.13.4c.28,0,.55.13.84.15.6.05,1.21.08,1.82.12h.22a3.88,3.88,0,0,0,.92-.12,3.66,3.66,0,0,0,1.1-.46,4.92,4.92,0,0,0,1.12-1,11.27,11.27,0,0,0,1.16-1.76,4.3,4.3,0,0,1,.6-.84.85.85,0,0,1,.61-.29.6.6,0,0,1,.4.15.85.85,0,0,1,.24.55c0,.3,0,.61.07.91s.09.79.16,1.18a3.2,3.2,0,0,0,.41,1.07,2.08,2.08,0,0,0,.94.82,2.81,2.81,0,0,0,1,.27l.65,0c.51,0,1,0,1.53,0h.06c.31,0,.63,0,.95-.07a4.31,4.31,0,0,0,1.11-.27,3.23,3.23,0,0,0,1.38-1,4,4,0,0,0,.73-1.44,5.91,5.91,0,0,1,.2-.62c.08-.19.13-.23.25-.23h0c.15,0,.16.13.18.23q.25,1,.49,2a.25.25,0,0,0,.24.21h0a.43.43,0,0,0,.31-.17,2.19,2.19,0,0,0,.33-.65c.07-.16.12-.33.18-.5l.14-.38.31-.77c.09-.24.18-.49.27-.74l.29-.83.35-1.05c.07-.2.14-.41.2-.61.13-.46.27-.93.39-1.39.05-.19.08-.39.12-.59.09-.44.19-.88.29-1.32.05-.26.1-.51.15-.77v0l.09-.81c0-.22.06-.44.07-.66s0-.5,0-.74,0-.63,0-.94,0-.76-.07-1.13-.14-1-.24-1.5a11.22,11.22,0,0,0-.33-1.15,7.13,7.13,0,0,0-.79-1.68,8.4,8.4,0,0,0-.74-1,10.6,10.6,0,0,0-1-.95,5.81,5.81,0,0,0-1.45-.9l-.18-.09v0l1-.28.76-.2.12-.11-.06-.12-.64-.21-.44-.12-.58-.14-.42-.07c-.23,0-.45-.09-.68-.11-.58,0-1.16-.09-1.74-.09-.25,0-.5,0-.75,0l-.71.05-.27,0-.67.11-.57.11-.95.24.07-.08.62-.54.3-.28,0-.1-.1-.06"/><path class="cls-7" d="M62.53,168.23l-.5,0c-.23,0-.46,0-.7,0s-.5.07-.75.12A4.72,4.72,0,0,0,59,169a1.15,1.15,0,0,0-.6.72.61.61,0,0,0,.56.78h.15a5.18,5.18,0,0,0,.64-.07l.88-.09c.23,0,.47,0,.7,0h.3c.29,0,.59,0,.87,0s.75.09,1.13.14a3.46,3.46,0,0,1,.42.07c.29.08.57.15.85.25a4.89,4.89,0,0,1,.64.26c.26.13.5.28.75.41l.17,0,0-.15,0-.05a2.16,2.16,0,0,0-.56-.72A7.22,7.22,0,0,0,64,169.35l0,0,.06,0,.71-.08.15-.08,0-.16-.27-.15a4.09,4.09,0,0,0-1.3-.46c-.25-.05-.5-.07-.78-.1"/><path class="cls-7" d="M51.51,167.63l-.45,0H51a5.44,5.44,0,0,0-1,.11,5.13,5.13,0,0,0-1.08.33l-.13.13.12.11.66.16,0,0-.05,0c-.41.13-.81.25-1.22.39a7.67,7.67,0,0,0-1.43.66,3.39,3.39,0,0,0-.75.56l-.06.17.16,0,.36-.13a9.78,9.78,0,0,1,2.94-.56h.83c.35,0,.69.06,1,.09l.62.08.35.07.59.14c.18,0,.36.07.53.13a1,1,0,0,0,.31,0,1.1,1.1,0,0,0,.29,0,.87.87,0,0,0,.63-1.18,1.73,1.73,0,0,0-.54-.56,3.55,3.55,0,0,0-1-.47c-.29-.09-.58-.18-.87-.24s-.51-.07-.79-.1"/><path class="cls-5" d="M56.54,86.67c0,7.91-2.33,14.32-11.35,14.32S33.83,94.58,33.83,86.67s1.75-14.32,11.35-14.32,11.35,6.41,11.35,14.32"/><path class="cls-3" d="M45.18,101.49c-8,0-11.85-4.85-11.85-14.82,0-7.33,1.41-14.82,11.85-14.82S57,79.33,57,86.67c0,10-3.88,14.82-11.85,14.82m0-28.65c-9.54,0-10.85,6.64-10.85,13.82,0,9.43,3.45,13.82,10.85,13.82S56,96.1,56,86.67c0-7.18-1.31-13.82-10.85-13.82"/><path class="cls-6" d="M39.66,73.9a7.82,7.82,0,0,0-2.68,2V76c.15,2.53.56,5,.53,7.58a33.36,33.36,0,0,1-.34,4c-.32,2.37-.76,4.73-.85,7.12a11.32,11.32,0,0,0,0,1.4,8.31,8.31,0,0,0,2.58,2.73q0-.69,0-1.39a52.29,52.29,0,0,1,.76-7.68,56,56,0,0,0,.75-7.06q0-.28,0-.57a61.4,61.4,0,0,0-.63-7.55l-.09-.74"/><path class="cls-8" d="M36.33,96.16a2.64,2.64,0,0,0,.61,1.52,5.39,5.39,0,0,0,1.07,1c.07.05.6.31.92.48l0-.25a8.31,8.31,0,0,1-2.58-2.73m3.24-23a21.33,21.33,0,0,0-2.17,1.78,1.39,1.39,0,0,0-.36.45,1.24,1.24,0,0,0-.07.54,7.82,7.82,0,0,1,2.68-2l-.09-.73"/><path class="cls-2" d="M59.24,130.82a7.66,7.66,0,0,0,.92,4.48,6.9,6.9,0,0,0,3.73,2.31,27.61,27.61,0,0,0,21.75-2.26,11.17,11.17,0,0,0,3.67-3,12.62,12.62,0,0,0,1.85-5.15c.59-3.16.93-6.36,1.27-9.56L94,103a23.27,23.27,0,0,0,.11-6.13,7.85,7.85,0,0,0-2.93-5.22,8.68,8.68,0,0,0-4.51-1.37,13.73,13.73,0,0,0-6.11.92,16,16,0,0,0-6.22,5c-2.25,2.83-3.85,6.11-5.83,9.13-1.72,2.63-3.72,5.07-5.36,7.75-1.45,2.39-3.22,5.11-3.46,7.92-.28,3.25-.42,6.52-.44,9.78"/><path class="cls-3" d="M72.1,139.37a27.45,27.45,0,0,1-8.36-1.28,7.43,7.43,0,0,1-4-2.5,8.07,8.07,0,0,1-1-4.77c0-3.35.17-6.65.44-9.82.24-2.75,1.84-5.37,3.25-7.68l.28-.46c.93-1.53,2-3,3-4.42.79-1.08,1.6-2.21,2.34-3.34s1.41-2.26,2.07-3.38a50.94,50.94,0,0,1,3.79-5.79,16.35,16.35,0,0,1,6.42-5.16,14.32,14.32,0,0,1,6.33-1,9,9,0,0,1,4.76,1.47,8.25,8.25,0,0,1,3.14,5.55,23.68,23.68,0,0,1-.11,6.26l-1.55,14.58c-.34,3.15-.68,6.41-1.27,9.6a13.1,13.1,0,0,1-1.94,5.35,11.71,11.71,0,0,1-3.83,3.17,28.1,28.1,0,0,1-13.8,3.58m13.57-48.6a12.92,12.92,0,0,0-4.91.92,15.38,15.38,0,0,0-6,4.85A50.28,50.28,0,0,0,71,102.23c-.67,1.13-1.36,2.3-2.09,3.42s-1.57,2.28-2.37,3.38c-1,1.41-2.07,2.86-3,4.36l-.28.47c-1.36,2.21-2.89,4.72-3.11,7.24-.27,3.14-.42,6.42-.44,9.74a7.17,7.17,0,0,0,.83,4.19A6.56,6.56,0,0,0,64,137.13a27.2,27.2,0,0,0,21.36-2.22A10.79,10.79,0,0,0,88.92,132a12.24,12.24,0,0,0,1.77-4.95c.59-3.15.93-6.39,1.26-9.52L93.5,103a22.94,22.94,0,0,0,.11-6,7.44,7.44,0,0,0-2.73-4.9,8.07,8.07,0,0,0-4.25-1.28q-.49,0-1,0m-26.42,40h0"/><path class="cls-4" d="M59.24,130.82a7.66,7.66,0,0,0,.92,4.48,6.9,6.9,0,0,0,3.73,2.31,27.61,27.61,0,0,0,21.75-2.26,11.17,11.17,0,0,0,3.67-3,12.62,12.62,0,0,0,1.85-5.15c.59-3.16.93-6.36,1.27-9.56L94,103a23.27,23.27,0,0,0,.11-6.13,7.85,7.85,0,0,0-2.93-5.22,8.68,8.68,0,0,0-4.51-1.37,13.73,13.73,0,0,0-6.11.92,16,16,0,0,0-6.22,5c-2.25,2.83-3.85,6.11-5.83,9.13-1.72,2.63-3.72,5.07-5.36,7.75-1.45,2.39-3.22,5.11-3.46,7.92-.28,3.25-.42,6.52-.44,9.78"/><path class="cls-3" d="M72.1,139.37a27.45,27.45,0,0,1-8.36-1.28,7.43,7.43,0,0,1-4-2.5,8.07,8.07,0,0,1-1-4.77c0-3.35.17-6.65.44-9.82.24-2.75,1.84-5.37,3.25-7.68l.28-.46c.93-1.53,2-3,3-4.42.79-1.08,1.6-2.21,2.34-3.34s1.41-2.26,2.07-3.38a50.94,50.94,0,0,1,3.79-5.79,16.35,16.35,0,0,1,6.42-5.16,14.32,14.32,0,0,1,6.33-1,9,9,0,0,1,4.76,1.47,8.25,8.25,0,0,1,3.14,5.55,23.68,23.68,0,0,1-.11,6.26l-1.55,14.58c-.34,3.15-.68,6.41-1.27,9.6a13.1,13.1,0,0,1-1.94,5.35,11.71,11.71,0,0,1-3.83,3.17,28.1,28.1,0,0,1-13.8,3.58m13.57-48.6a12.92,12.92,0,0,0-4.91.92,15.38,15.38,0,0,0-6,4.85A50.28,50.28,0,0,0,71,102.23c-.67,1.13-1.36,2.3-2.09,3.42s-1.57,2.28-2.37,3.38c-1,1.41-2.07,2.86-3,4.36l-.28.47c-1.36,2.21-2.89,4.72-3.11,7.24-.27,3.14-.42,6.42-.44,9.74a7.17,7.17,0,0,0,.83,4.19A6.56,6.56,0,0,0,64,137.13a27.2,27.2,0,0,0,21.36-2.22A10.79,10.79,0,0,0,88.92,132a12.24,12.24,0,0,0,1.77-4.95c.59-3.15.93-6.39,1.26-9.52L93.5,103a22.94,22.94,0,0,0,.11-6,7.44,7.44,0,0,0-2.73-4.9,8.07,8.07,0,0,0-4.25-1.28q-.49,0-1,0m-26.42,40h0"/><path class="cls-3" d="M37.38,119.53a.5.5,0,0,1-.4-.19,14.31,14.31,0,0,1-3.17-7.91,10.21,10.21,0,0,1,3-8,13,13,0,0,1,4-2.44.5.5,0,1,1,.39.92,12.07,12.07,0,0,0-3.69,2.25,9.21,9.21,0,0,0-2.66,7.19,13.32,13.32,0,0,0,3,7.35.5.5,0,0,1-.39.81Z"/><path class="cls-2" d="M52,47.24c-5.24,3.5-10,8.16-11.68,14.06-2,6.94.68,14.27.54,21.46-.12,5.86-2.09,11.67-1.35,17.48a28.51,28.51,0,0,0,2.67,8.39,33.65,33.65,0,0,0,6.36,9.56,19.64,19.64,0,0,0,10.11,5.63,20.11,20.11,0,0,0,15-3.71,33.52,33.52,0,0,0,9.86-11.88,53.46,53.46,0,0,0,5-36.58C87.25,66,85,60.41,80.81,56.22A24,24,0,0,0,65.58,49.3L52,47.24"/><path class="cls-3" d="M61.79,124.62a17.21,17.21,0,0,1-3.21-.3,20.16,20.16,0,0,1-10.37-5.77,34,34,0,0,1-6.45-9.7A28.66,28.66,0,0,1,39,100.31a38.33,38.33,0,0,1,.59-10.49,56,56,0,0,0,.75-7.06,56.88,56.88,0,0,0-.63-8.12c-.56-4.45-1.14-9.05.11-13.47,1.48-5.24,5.48-10.06,11.89-14.34a.5.5,0,0,1,.55.83c-6.21,4.14-10.07,8.78-11.48,13.78-1.19,4.22-.65,8.52-.08,13.07a57.7,57.7,0,0,1,.64,8.26A56.75,56.75,0,0,1,40.62,90,37.6,37.6,0,0,0,40,100.18a27.73,27.73,0,0,0,2.62,8.24,33,33,0,0,0,6.26,9.42,19.17,19.17,0,0,0,9.85,5.5,19.47,19.47,0,0,0,14.66-3.62c3.76-2.66,6.94-6.5,9.71-11.71A52.61,52.61,0,0,0,88,71.76c-1.46-6.46-4-11.57-7.59-15.2a23.5,23.5,0,0,0-14.91-6.78.5.5,0,0,1-.46-.53.49.49,0,0,1,.53-.46,24.51,24.51,0,0,1,15.55,7.07c3.71,3.76,6.35,9,7.85,15.68a53.61,53.61,0,0,1-5,36.93c-2.85,5.36-6.12,9.3-10,12.06a21.35,21.35,0,0,1-12.21,4.09"/><path class="cls-4" d="M40,102.14c1.89,5.42,4.44,10.93,9.08,14.31,5.32,3.88,12.53,4.25,19,2.8a25.57,25.57,0,0,0,6-2,30.88,30.88,0,0,0,7.4-5.65,27.49,27.49,0,0,1-9.07,9.17,23.24,23.24,0,0,1-12.38,3.44,12.41,12.41,0,0,1-3.67-.55,12.9,12.9,0,0,1-3.93-2.28c-3.52-2.81-6.19-6.53-8.82-10.19a6.19,6.19,0,0,1-1.43-3.09"/><path class="cls-4" d="M76,65.92a6.43,6.43,0,0,0-2.25-5.31,9.25,9.25,0,0,0-4-1.61,27.82,27.82,0,0,0-13.41.65c-3.63,1.1-7.2,3-11,2.62a11.28,11.28,0,0,0-3.84-.16,2.5,2.5,0,0,0-1.9,2.27c.08,1,1,1.34,1.82,1.58a18.21,18.21,0,0,0,8.31.28c4.24-.79,8.15-3,12.42-3.6a34.23,34.23,0,0,1,4.48-.25c2.06,0,4.27,0,5.93,1.21s2.33,3.13,2.84,5l.27,1A26.46,26.46,0,0,1,76,65.92Z"/><path class="cls-4" d="M75.78,70.24a3.82,3.82,0,0,0,.3.78c-.14-.45-.27-.91-.39-1.37A4.13,4.13,0,0,0,75.78,70.24Z"/><path class="cls-4" d="M87.11,98.55a6.54,6.54,0,0,0-.84-2.08c-1.79-3.34-3.3-7-3.26-10.76a33.14,33.14,0,0,1,.77-5.61,3.29,3.29,0,0,0-.21-2.38,1.26,1.26,0,0,0,1-.29,1.44,1.44,0,0,0-.17-2,4.16,4.16,0,0,0-2-.87,15.42,15.42,0,0,1-4-1.26A5.44,5.44,0,0,1,76.08,71a8.07,8.07,0,0,0,4.48,5.42,38.17,38.17,0,0,0-1.35,5.74l-.05.25h0a31.25,31.25,0,0,0-.33,3.23,25.59,25.59,0,0,0,.94,8.61,15.61,15.61,0,0,0,3.75,6.45c.69.7,1.61,1.81,2.61,1.11.84-.59,1.12-2.34,1-3.26"/><path class="cls-3" d="M61.79,124.62a17.21,17.21,0,0,1-3.21-.3,20.16,20.16,0,0,1-10.37-5.77,34,34,0,0,1-6.45-9.7A28.66,28.66,0,0,1,39,100.31a38.33,38.33,0,0,1,.59-10.49,56,56,0,0,0,.75-7.06,56.88,56.88,0,0,0-.63-8.12c-.56-4.45-1.14-9.05.11-13.47,1.48-5.24,5.48-10.06,11.89-14.34a.5.5,0,0,1,.55.83c-6.21,4.14-10.07,8.78-11.48,13.78-1.19,4.22-.65,8.52-.08,13.07a57.7,57.7,0,0,1,.64,8.26A56.75,56.75,0,0,1,40.62,90,37.6,37.6,0,0,0,40,100.18a27.73,27.73,0,0,0,2.62,8.24,33,33,0,0,0,6.26,9.42,19.17,19.17,0,0,0,9.85,5.5,19.47,19.47,0,0,0,14.66-3.62c3.76-2.66,6.94-6.5,9.71-11.71A52.61,52.61,0,0,0,88,71.76c-1.46-6.46-4-11.57-7.59-15.2a23.5,23.5,0,0,0-14.91-6.78.5.5,0,0,1-.46-.53.49.49,0,0,1,.53-.46,24.51,24.51,0,0,1,15.55,7.07c3.71,3.76,6.35,9,7.85,15.68a53.61,53.61,0,0,1-5,36.93c-2.85,5.36-6.12,9.3-10,12.06a21.35,21.35,0,0,1-12.21,4.09"/><path class="cls-9" d="M118.9,130.75c4.53,5.43-2.85,10.33-2.85,10.33l-3.3-1.76c-5.57.21-11.25.41-16.65-.82s-10.58-4.13-12.85-8.57c-2.57-5-1-11,1.76-15.92s.31-11.72,2.38-16.92c1.31-3.29,8.11-4.54,9-7.94a69.4,69.4,0,0,0,1.8-7.53,5.09,5.09,0,0,0-.47-3.55,10.3,10.3,0,0,0-2.93-2.36c-4-2.78-5.53-7.37-6.52-11.73S86.52,55,83.56,51.42c-2.37-2.9-7.36-7.25-3.62-11,3.12-3.12,10.43-2.8,14.37-1.55a19.22,19.22,0,0,1,10.22,7.8c6.9,10.66,1.42,24.53,6.52,35.93,1.36,3,3.44,5.81,4.6,8.9,2.46,6.53.58,13.72-2.48,20.05-2.27,4.69-7.37,10.48-6.13,14.25s9.36,1.94,11.85,4.93"/><path class="cls-3" d="M116,141.58l-.24-.06-3.18-1.7c-5.5.21-11.18.41-16.64-.84-6.24-1.42-11-4.64-13.18-8.83-2.88-5.64-.63-12,1.76-16.39C86,111.23,86,108.22,85.94,105c0-2.76,0-5.62,1-8.13.7-1.75,2.72-2.92,4.67-4.06s3.89-2.26,4.29-3.82c.17-.67.35-1.34.54-2a44.22,44.22,0,0,0,1.25-5.48,4.67,4.67,0,0,0-.39-3.21,6.65,6.65,0,0,0-2-1.72l-.76-.5c-4.17-2.92-5.74-7.72-6.73-12-.11-.5-.22-1-.33-1.5-.84-3.81-1.7-7.74-4.24-10.85-.33-.4-.71-.83-1.11-1.29-2.54-2.88-6-6.82-2.48-10.36,3.32-3.31,10.84-3,14.88-1.67a19.59,19.59,0,0,1,10.49,8c3.8,5.87,3.92,12.75,4,19.42.1,5.62.2,11.42,2.51,16.58.59,1.32,1.34,2.62,2.06,3.88a35.45,35.45,0,0,1,2.55,5c2.15,5.7,1.31,12.57-2.49,20.45a51,51,0,0,1-2.56,4.44c-2.14,3.44-4.35,7-3.54,9.44.58,1.75,3,2.12,5.65,2.51,2.38.36,4.83.73,6.1,2.25a6,6,0,0,1,1.53,4.8c-.52,3.59-4.33,6.15-4.49,6.26a.49.49,0,0,1-.28.08m-3.3-2.76.24.06,3,1.62c.81-.6,3.43-2.74,3.81-5.4a5,5,0,0,0-1.3-4c-1-1.23-3.29-1.57-5.49-1.9-2.79-.42-5.68-.86-6.45-3.19-1-2.87,1.38-6.64,3.64-10.28a49.83,49.83,0,0,0,2.51-4.35c3.68-7.62,4.51-14.23,2.46-19.66a34.68,34.68,0,0,0-2.48-4.9c-.74-1.28-1.5-2.61-2.11-4-2.39-5.35-2.5-11.26-2.6-17-.12-6.82-.24-13.26-3.88-18.89a18.84,18.84,0,0,0-9.95-7.6c-4-1.26-11-1.46-13.87,1.43s.11,6.27,2.52,9c.41.46.8.9,1.14,1.32,2.69,3.29,3.58,7.35,4.45,11.27q.16.75.33,1.49c.94,4.12,2.43,8.71,6.32,11.43l.73.48a7.47,7.47,0,0,1,2.34,2,5.54,5.54,0,0,1,.55,3.89,44.79,44.79,0,0,1-1.28,5.6c-.18.66-.36,1.32-.53,2-.5,2-2.67,3.22-4.76,4.43-1.81,1-3.67,2.14-4.24,3.57-.93,2.33-.92,5.09-.91,7.76,0,3.17,0,6.45-1.49,9.22C83.17,118.4,81,124.46,83.7,129.7c2,3.87,6.66,7,12.52,8.31,5.38,1.23,11,1,16.52.81h0"/><path class="cls-10" d="M89,96.76h0a6.69,6.69,0,0,0-.83.07,2.94,2.94,0,0,0-.22.45,19,19,0,0,0-.91,6.94q0,.41,0,.81t0,.82c0,2.91-.11,5.87-1.5,8.4a21.79,21.79,0,0,0-3,10.09,11.65,11.65,0,0,0,1.25,5.36c2,3.87,6.66,7,12.52,8.31a45.85,45.85,0,0,0,10.18,1c2.12,0,4.24-.08,6.33-.16h0l.24.06,1.91,1,.74-.39a10.21,10.21,0,0,0-7.32-7.93c-2.19-.54-4.5-.32-6.74-.61-3.69-.48-7.38-2.65-8.64-6.15a13.65,13.65,0,0,1-.26-6.55,60.65,60.65,0,0,1,2.1-9.23,68.46,68.46,0,0,1,4.07-10.2h0a38.41,38.41,0,0,1-4.92-1,38.21,38.21,0,0,0-4.93-1"/><path class="cls-3" d="M116,141.58l-.24-.06-3.18-1.7c-5.5.21-11.18.41-16.64-.84-6.24-1.42-11-4.64-13.18-8.83-2.88-5.64-.63-12,1.76-16.39C86,111.23,86,108.22,85.94,105c0-2.76,0-5.62,1-8.13.7-1.75,2.72-2.92,4.67-4.06s3.89-2.26,4.29-3.82c.17-.67.35-1.34.54-2a44.22,44.22,0,0,0,1.25-5.48,4.67,4.67,0,0,0-.39-3.21,6.65,6.65,0,0,0-2-1.72l-.76-.5c-4.17-2.92-5.74-7.72-6.73-12-.11-.5-.22-1-.33-1.5-.84-3.81-1.7-7.74-4.24-10.85-.33-.4-.71-.83-1.11-1.29-2.54-2.88-6-6.82-2.48-10.36,3.32-3.31,10.84-3,14.88-1.67a19.59,19.59,0,0,1,10.49,8c3.8,5.87,3.92,12.75,4,19.42.1,5.62.2,11.42,2.51,16.58.59,1.32,1.34,2.62,2.06,3.88a35.45,35.45,0,0,1,2.55,5c2.15,5.7,1.31,12.57-2.49,20.45a51,51,0,0,1-2.56,4.44c-2.14,3.44-4.35,7-3.54,9.44.58,1.75,3,2.12,5.65,2.51,2.38.36,4.83.73,6.1,2.25a6,6,0,0,1,1.53,4.8c-.52,3.59-4.33,6.15-4.49,6.26a.49.49,0,0,1-.28.08m-3.3-2.76.24.06,3,1.62c.81-.6,3.43-2.74,3.81-5.4a5,5,0,0,0-1.3-4c-1-1.23-3.29-1.57-5.49-1.9-2.79-.42-5.68-.86-6.45-3.19-1-2.87,1.38-6.64,3.64-10.28a49.83,49.83,0,0,0,2.51-4.35c3.68-7.62,4.51-14.23,2.46-19.66a34.68,34.68,0,0,0-2.48-4.9c-.74-1.28-1.5-2.61-2.11-4-2.39-5.35-2.5-11.26-2.6-17-.12-6.82-.24-13.26-3.88-18.89a18.84,18.84,0,0,0-9.95-7.6c-4-1.26-11-1.46-13.87,1.43s.11,6.27,2.52,9c.41.46.8.9,1.14,1.32,2.69,3.29,3.58,7.35,4.45,11.27q.16.75.33,1.49c.94,4.12,2.43,8.71,6.32,11.43l.73.48a7.47,7.47,0,0,1,2.34,2,5.54,5.54,0,0,1,.55,3.89,44.79,44.79,0,0,1-1.28,5.6c-.18.66-.36,1.32-.53,2-.5,2-2.67,3.22-4.76,4.43-1.81,1-3.67,2.14-4.24,3.57-.93,2.33-.92,5.09-.91,7.76,0,3.17,0,6.45-1.49,9.22C83.17,118.4,81,124.46,83.7,129.7c2,3.87,6.66,7,12.52,8.31,5.38,1.23,11,1,16.52.81h0"/><path class="cls-5" d="M68.78,37.18a27.58,27.58,0,0,1,6,.21,35.24,35.24,0,0,1,6.67,1.4A23.38,23.38,0,0,1,91.57,45.3a28.1,28.1,0,0,1,6.27,13.46,64,64,0,0,1,.74,15q-3.32.25-6.65.27a5.54,5.54,0,0,1-3-.55,4.86,4.86,0,0,1-1.6-1.9c-2.33-4.25-2.7-9.33-4.84-13.67a18.64,18.64,0,0,0-13.24-9.94c-2.27-.4-4.6-.37-6.88-.75a12.16,12.16,0,0,1-3.94-1.29,5,5,0,0,1-1.73-1.3c-.44-.71,0-1,.48-1.62a18.11,18.11,0,0,1,6.88-4.7,17.69,17.69,0,0,1,4.69-1.12"/><path class="cls-3" d="M91.72,74.5a5.59,5.59,0,0,1-3-.63,5.32,5.32,0,0,1-1.77-2.08,33.71,33.71,0,0,1-2.63-7.26,36.67,36.67,0,0,0-2.22-6.43,18.14,18.14,0,0,0-12.88-9.67c-1.15-.2-2.34-.3-3.5-.39s-2.25-.18-3.37-.36a12.5,12.5,0,0,1-4.1-1.34l-.09-.05a5,5,0,0,1-1.82-1.42c-.61-1,0-1.59.4-2.08l.13-.14a18.59,18.59,0,0,1,7.07-4.83,18.15,18.15,0,0,1,4.82-1.15,28.29,28.29,0,0,1,6.13.21,35.29,35.29,0,0,1,6.77,1.43A23.79,23.79,0,0,1,91.94,45a28.62,28.62,0,0,1,6.39,13.69,65.12,65.12,0,0,1,.75,15.09.5.5,0,0,1-.46.48c-2.21.17-4.46.26-6.68.28h-.22M68.78,37.18l0,.5a17.17,17.17,0,0,0-4.56,1.09,17.59,17.59,0,0,0-6.69,4.57l-.13.15c-.47.51-.49.56-.29.87a4.46,4.46,0,0,0,1.46,1.07l.09.05a11.55,11.55,0,0,0,3.78,1.23c1.08.18,2.2.27,3.29.35s2.4.19,3.6.4A19.15,19.15,0,0,1,83,57.66a37.4,37.4,0,0,1,2.29,6.61,32.91,32.91,0,0,0,2.54,7A4.44,4.44,0,0,0,89.22,73a5.1,5.1,0,0,0,2.71.48c2.05,0,4.13-.1,6.17-.24a63,63,0,0,0-.76-14.41,27.64,27.64,0,0,0-6.15-13.22,22.78,22.78,0,0,0-9.87-6.37,34.33,34.33,0,0,0-6.58-1.38,27.51,27.51,0,0,0-5.92-.2l0-.5"/><path class="cls-9" d="M90.48,75.37c-.76-7.71-.17-16.18-3.7-23.33-3.38-6.85-8.63-7.7-15.56-8.11-7.46-.44-12.74-4.63-19.75-6.25-6.66-1.54-15,1.68-19,7.25A12,12,0,0,0,36,62.22c8.29,5.2,14.67-.1,22.48-2.43a18.35,18.35,0,0,1,12.76.78c4.46,2.24,2.75,5,3.53,9,1.35,6.91,12.87,2.8,14.17,11.75a52.72,52.72,0,0,0,.21-6.13l1.36.22"/><path class="cls-3" d="M88.91,81.78a.5.5,0,0,1-.49-.43c-.64-4.46-3.91-5.41-7.36-6.42-3-.88-6.11-1.79-6.8-5.3A18,18,0,0,1,74,66.4c0-2.36-.07-3.93-3-5.39a17.8,17.8,0,0,0-12.39-.75c-1.84.55-3.63,1.28-5.36,2-5.66,2.31-11,4.49-17.52.39a12.62,12.62,0,0,1-5.78-8.3,12.4,12.4,0,0,1,2.16-9.7c4.12-5.75,12.68-9,19.49-7.45a48.71,48.71,0,0,1,8.19,2.92c3.7,1.58,7.2,3.07,11.48,3.33,6.91.41,12.48,1.28,16,8.39,2.69,5.46,3,11.67,3.35,17.67.1,1.93.21,3.93.4,5.83a.5.5,0,0,1-.16.41.49.49,0,0,1-.42.13l-.77-.12a53.32,53.32,0,0,1-.22,5.58.5.5,0,0,1-.49.45h0m-25-23.27a17.06,17.06,0,0,1,7.52,1.61c3.46,1.73,3.5,3.83,3.54,6.26a16.91,16.91,0,0,0,.25,3c.57,2.92,3.13,3.67,6.1,4.53,2.74.8,5.77,1.68,7.26,4.58,0-1.13.06-2.26,0-3.38a.5.5,0,0,1,.17-.39.49.49,0,0,1,.41-.12l.72.12c-.15-1.73-.25-3.51-.34-5.23-.32-5.9-.64-12-3.25-17.28-3.27-6.63-8.34-7.43-15.14-7.83-4.46-.26-8.2-1.86-11.82-3.4a47.93,47.93,0,0,0-8-2.86c-6.44-1.49-14.54,1.61-18.45,7.06a11.41,11.41,0,0,0-2,8.93,11.63,11.63,0,0,0,5.33,7.64c6.09,3.82,11.2,1.73,16.62-.47,1.75-.71,3.56-1.45,5.45-2a19.74,19.74,0,0,1,5.61-.8"/><path class="cls-10" d="M76.18,44.93a8.38,8.38,0,0,1,1.92,1,12.72,12.72,0,0,1,2.45,2.46,23.44,23.44,0,0,1,2.63,3.91,23.9,23.9,0,0,1,2,6.11c.57,2.75.9,5.55,1.22,8.34.22,1.89.52,5.7.74,7.59.73-.7,1.88-.82,2.62-1.47-.08-1.12-.14-2.24-.19-3.34-.32-5.9-.64-12-3.25-17.28-2.41-4.9-5.81-6.61-10.16-7.34"/><path class="cls-3" d="M88.91,81.78a.5.5,0,0,1-.49-.43c-.64-4.46-3.91-5.41-7.36-6.42-3-.88-6.11-1.79-6.8-5.3A18,18,0,0,1,74,66.4c0-2.36-.07-3.93-3-5.39a17.8,17.8,0,0,0-12.39-.75c-1.84.55-3.63,1.28-5.36,2-5.66,2.31-11,4.49-17.52.39a12.62,12.62,0,0,1-5.78-8.3,12.4,12.4,0,0,1,2.16-9.7c4.12-5.75,12.68-9,19.49-7.45a48.71,48.71,0,0,1,8.19,2.92c3.7,1.58,7.2,3.07,11.48,3.33,6.91.41,12.48,1.28,16,8.39,2.69,5.46,3,11.67,3.35,17.67.1,1.93.21,3.93.4,5.83a.5.5,0,0,1-.16.41.49.49,0,0,1-.42.13l-.77-.12a53.32,53.32,0,0,1-.22,5.58.5.5,0,0,1-.49.45h0m-25-23.27a17.06,17.06,0,0,1,7.52,1.61c3.46,1.73,3.5,3.83,3.54,6.26a16.91,16.91,0,0,0,.25,3c.57,2.92,3.13,3.67,6.1,4.53,2.74.8,5.77,1.68,7.26,4.58,0-1.13.06-2.26,0-3.38a.5.5,0,0,1,.17-.39.49.49,0,0,1,.41-.12l.72.12c-.15-1.73-.25-3.51-.34-5.23-.32-5.9-.64-12-3.25-17.28-3.27-6.63-8.34-7.43-15.14-7.83-4.46-.26-8.2-1.86-11.82-3.4a47.93,47.93,0,0,0-8-2.86c-6.44-1.49-14.54,1.61-18.45,7.06a11.41,11.41,0,0,0-2,8.93,11.63,11.63,0,0,0,5.33,7.64c6.09,3.82,11.2,1.73,16.62-.47,1.75-.71,3.56-1.45,5.45-2a19.74,19.74,0,0,1,5.61-.8"/><path class="cls-3" d="M54.82,97.94l-.12,0a4.44,4.44,0,0,1-3.31-3.07,5.9,5.9,0,0,1,.48-3.48c.48-1.22,1.07-2.39,1.65-3.53.33-.65.66-1.31,1-2a14,14,0,0,0,1.57-5.6c0-.44,0-.89,0-1.33a.5.5,0,1,1,1,0c0,.47,0,.93,0,1.4a15.35,15.35,0,0,1-1.66,6c-.31.67-.65,1.34-1,2-.57,1.12-1.15,2.27-1.61,3.44a4.94,4.94,0,0,0-.44,2.88A3.43,3.43,0,0,0,54.95,97a.5.5,0,0,1-.12,1Z"/><path class="cls-11" d="M67.18,106.86c-1.24,5.33-11.85,5.05-15,3.75a5.25,5.25,0,0,1-3.13-3.3,2.43,2.43,0,0,1-.08-1.13,20.14,20.14,0,0,0,7.42,1.48,34.54,34.54,0,0,0,10-1.49l.79-.24a2.48,2.48,0,0,1,0,.92C67,107.85,67.25,106.56,67.18,106.86Z"/><path class="cls-3" d="M57.56,111.91a16.05,16.05,0,0,1-5.57-.84,5.77,5.77,0,0,1-3.42-3.6,2.93,2.93,0,0,1-.1-1.37.5.5,0,0,1,.69-.37,19.69,19.69,0,0,0,7.24,1.45,33.92,33.92,0,0,0,9.89-1.47l.77-.24a.5.5,0,0,1,.65.4,3,3,0,0,1,0,1.11h0v0l0,.18,0,.16h0l0,.07a5.48,5.48,0,0,1-2.89,3.1A16.23,16.23,0,0,1,57.56,111.91Zm-8.09-5,.06.25a4.73,4.73,0,0,0,2.84,3c2.11.87,8.2,1.33,11.82-.53a4.4,4.4,0,0,0,2.49-2.86h0v0l0-.11-.15,0a34.92,34.92,0,0,1-10.19,1.51A21.09,21.09,0,0,1,49.47,106.92Z"/><path class="cls-12" d="M67.22,105.94l-.79.24a34.54,34.54,0,0,1-10,1.49A20.14,20.14,0,0,1,49,106.18a1.85,1.85,0,0,1,.67-1.2,2.85,2.85,0,0,1,2.27-.41c.78.14,1.49.45,2.25.63a11.17,11.17,0,0,0,5-.26,30.48,30.48,0,0,1,5-1,3.79,3.79,0,0,1,2,.3A2.16,2.16,0,0,1,67.22,105.94Z"/><path class="cls-3" d="M56.88,108.17h-.5a20.7,20.7,0,0,1-7.61-1.52.5.5,0,0,1-.3-.53,2.34,2.34,0,0,1,.85-1.51,3.31,3.31,0,0,1,2.68-.51,10.14,10.14,0,0,1,1.32.36c.31.1.63.2.95.27a10.74,10.74,0,0,0,4.77-.26l1.06-.26a22.53,22.53,0,0,1,4-.74,4.33,4.33,0,0,1,2.26.35,2.68,2.68,0,0,1,1.35,2.08.5.5,0,0,1-.34.53l-.81.25A35.48,35.48,0,0,1,56.88,108.17Zm-7.32-2.29a19.93,19.93,0,0,0,6.84,1.28,33.74,33.74,0,0,0,9.89-1.47l.34-.1a1.58,1.58,0,0,0-.74-.91,3.24,3.24,0,0,0-1.72-.24,21.46,21.46,0,0,0-3.82.71l-1.08.26a11.66,11.66,0,0,1-5.22.26c-.35-.08-.69-.19-1-.3a9.23,9.23,0,0,0-1.2-.33,2.34,2.34,0,0,0-1.88.31A1.31,1.31,0,0,0,49.57,105.88Z"/><path class="cls-5" d="M105.62,86.67c0,7.91-2.33,14.32-11.35,14.32S82.91,94.58,82.91,86.67s1.75-14.32,11.35-14.32S105.62,78.75,105.62,86.67Z"/><path class="cls-3" d="M94.26,101.49c-8,0-11.85-4.85-11.85-14.82,0-7.33,1.41-14.82,11.85-14.82s11.85,7.49,11.85,14.82C106.12,96.64,102.24,101.49,94.26,101.49Zm0-28.65c-9.54,0-10.85,6.64-10.85,13.82,0,9.43,3.45,13.82,10.85,13.82s10.85-4.39,10.85-13.82C105.12,79.49,103.8,72.84,94.26,72.84Z"/><path class="cls-5" d="M90,96.86c-3.89-6.1-3.52-15.8.67-21.67"/><path class="cls-3" d="M90,97.36a.5.5,0,0,1-.42-.23c-3.95-6.2-3.64-16.17.68-22.23a.5.5,0,1,1,.81.58c-4.11,5.76-4.4,15.23-.65,21.11a.5.5,0,0,1-.42.77Z"/><path class="cls-3" d="M42.83,72.69a.5.5,0,0,1-.29-.91,4.8,4.8,0,0,1,5.35-.06.5.5,0,1,1-.56.83,3.77,3.77,0,0,0-4.2,0A.5.5,0,0,1,42.83,72.69Z"/><path class="cls-3" d="M64.81,72.69a.5.5,0,0,1-.29-.91,4.8,4.8,0,0,1,5.35-.06.5.5,0,1,1-.56.83,3.77,3.77,0,0,0-4.2,0A.5.5,0,0,1,64.81,72.69Z"/><circle class="cls-2" cx="39" cy="120.66" r="2.57" transform="translate(-20.73 8.8) rotate(-10.19)"/><path class="cls-3" d="M39,123.73a3.07,3.07,0,0,1-.54-6.09,3.07,3.07,0,1,1,1.09,6A3.13,3.13,0,0,1,39,123.73Zm0-5.14a2.07,2.07,0,1,0,.36,4.11,2.07,2.07,0,0,0-.36-4.11Z"/><path class="cls-3" d="M68.22,83.39c0,1.55-.1,2.8-1.2,2.8s-1.2-1.26-1.2-2.8.09-2.8,1.2-2.8S68.22,81.84,68.22,83.39Z"/><path class="cls-3" d="M67,86.69c-1.7,0-1.7-2-1.7-3.3s0-3.3,1.7-3.3,1.7,2,1.7,3.3S68.72,86.69,67,86.69Zm0-5.61c-.47,0-.7.36-.7,2.3s.25,2.3.7,2.3.7-.37.7-2.3S67.49,81.08,67,81.08Z"/><path class="cls-13" d="M68,82.29c0,.74,0,1.35-.58,1.35s-.58-.6-.58-1.35,0-1.35.58-1.35S68,81.55,68,82.29Z"/><path class="cls-3" d="M46.34,83.39c0,1.55-.1,2.8-1.2,2.8s-1.2-1.26-1.2-2.8.09-2.8,1.2-2.8S46.34,81.84,46.34,83.39Z"/><path class="cls-3" d="M45.14,86.69c-1.7,0-1.7-2-1.7-3.3s0-3.3,1.7-3.3,1.7,2,1.7,3.3S46.84,86.69,45.14,86.69Zm0-5.61c-.47,0-.7.36-.7,2.3s.25,2.3.7,2.3.7-.37.7-2.3S45.61,81.08,45.14,81.08Z"/><path class="cls-13" d="M46.08,82.29c0,.74,0,1.35-.58,1.35s-.58-.6-.58-1.35,0-1.35.58-1.35S46.08,81.55,46.08,82.29Z"/><g class="cls-14"><rect class="cls-4" x="37.7" y="227.26" width="9.86" height="0.24"/></g><path class="cls-6" d="M31.73,172.09a35.21,35.21,0,0,0,.28,5.72v0a36.52,36.52,0,0,0,3.14,9.72c.48,1.12,1,2.25,1.41,3.38a57.39,57.39,0,0,1,1.19,36.32l4.18.05,2,0,3.63,0c.12-14.54-1.69-29.63-9.31-42-1.75-2.84-3.8-5.52-5.19-8.56a15.48,15.48,0,0,1-1.34-4.72"/><path class="cls-8" d="M32,177.83a.5.5,0,0,1-.42.54,78,78,0,0,0,2.58,8.35c3.23,7,6.21,15.79,5.52,23.09a2.79,2.79,0,0,1-.12.58c0,.71.07,1.42.06,2.13,0,5.07-1.38,10-2.71,14.92l.76,0,0-.14a57.39,57.39,0,0,0-1.19-36.32c-.44-1.13-.92-2.26-1.41-3.38A36.52,36.52,0,0,1,32,177.83"/><path class="cls-8" d="M31.66,171.33c-.06.89-.13,1.78-.19,2.67a31.07,31.07,0,0,0,.22,4c0-.06-.09-.12-.21-.18l.12.55a.5.5,0,0,0,.42-.54v0a35.21,35.21,0,0,1-.28-5.72q0-.38-.07-.77"/><path class="cls-6" d="M32.83,160.68q-1,1.66-1.8,3.39a53.79,53.79,0,0,0-3.39,8.9c-.22.78-1,2.37-.66,3.3a21,21,0,0,1,3.93.88,37.27,37.27,0,0,1,1.91-16.46"/><path class="cls-8" d="M27,176.27a1,1,0,0,0,.3.45,26.08,26.08,0,0,0,3.69.94c0-.17,0-.34-.06-.51a21,21,0,0,0-3.93-.88"/><path class="cls-8" d="M33.63,159.34q-.41.67-.8,1.34a37.27,37.27,0,0,0-1.91,16.46c0,.17,0,.34.06.51a3.31,3.31,0,0,1,.49.17q-.1-.45-.19-.9c0-1,.11-2,.18-2.93a71.55,71.55,0,0,1,2.17-14.66"/><path class="cls-15" d="M31.46,174c-.07,1-.13,2-.18,2.93q.09.45.19.9c.13.06.21.12.21.18a31.07,31.07,0,0,1-.22-4"/><path class="cls-16" d="M72.64,38.6h-.48c-.78,0-1.21.06-1.21.06h0a.5.5,0,0,0,0,1l1.18.16c.73.09,1.79.29,3,.55a34.87,34.87,0,0,1,4.14,1.19,26.09,26.09,0,0,1,4.42,2.08,22.65,22.65,0,0,1,2,1.37c.64.5,1.27,1,1.83,1.54a22.27,22.27,0,0,1,2.8,3.18,18.5,18.5,0,0,1,1.57,2.59c.33.66.5,1,.5,1v0a.5.5,0,0,0,.46.3H93a.5.5,0,0,0,.37-.61l-.08-.31a9,9,0,0,0-.25-.88c-.12-.38-.29-.83-.49-1.34a16.21,16.21,0,0,0-.81-1.67A18.46,18.46,0,0,0,89,45.11a20.51,20.51,0,0,0-2-1.77,24.9,24.9,0,0,0-2.24-1.55,23,23,0,0,0-4.87-2.13,24.72,24.72,0,0,0-4.51-.93,24.09,24.09,0,0,0-2.75-.14"/><path class="cls-17" d="M95,42.06a.51.51,0,0,0-.31.92l.43.3c.29.19.6.43,1,.76.21.15.43.35.66.53s.45.42.7.62c.47.45,1,.94,1.41,1.45a20.72,20.72,0,0,1,2.21,3.1c.27.45.48.85.63,1.12s.24.44.24.44l0,0a.51.51,0,0,0,.44.25h0a.51.51,0,0,0,.49-.53s0-.2,0-.54a7.4,7.4,0,0,0-.3-1.41,9.44,9.44,0,0,0-.8-1.89,11.58,11.58,0,0,0-1.36-1.93,12,12,0,0,0-1.74-1.59,10,10,0,0,0-1.77-1,7.57,7.57,0,0,0-1.36-.49l-.51-.11H95"/><path class="cls-17" d="M48,40.75a17,17,0,0,0-2.13.15,14.46,14.46,0,0,0-2.37.52,13.34,13.34,0,0,0-2,.77,12,12,0,0,0-1.59.88,12.17,12.17,0,0,0-1.15.82c-.31.24-.5.44-.65.58l-.22.21a.5.5,0,0,0,.57.82l.27-.14c.17-.08.44-.23.76-.38s.69-.31,1.15-.49,1-.35,1.54-.53A17.79,17.79,0,0,1,44,43.52a18.13,18.13,0,0,1,2.1-.26c.33,0,.67,0,1,0s.82,0,1.24,0a14.71,14.71,0,0,1,2.28.32,16.66,16.66,0,0,1,2.22.65c.72.28,1.42.57,2.13.89a39.42,39.42,0,0,0,4,1.67,12.79,12.79,0,0,0,1.77.46,8.5,8.5,0,0,0,1.41.17h.35c.23,0,.42,0,.56,0l.32,0a.5.5,0,0,0,.08-1h0l-.28-.07c-.18,0-.45-.11-.78-.21a11.74,11.74,0,0,1-1.17-.42c-.45-.18-.94-.42-1.48-.68-1.07-.55-2.3-1.29-3.72-2.05a22,22,0,0,0-2.3-1.1,16,16,0,0,0-2.58-.79,17.2,17.2,0,0,0-2.69-.31H48"/><path class="cls-3" d="M107.16,225.22l-.23-.06a.5.5,0,0,1-.21-.68c1.1-2.09,1.5-6.05,1.76-8.68l.07-.73a147.68,147.68,0,0,0,.39-18.18c-.17-8.48-.34-17.26,1.64-25.78a.5.5,0,0,1,.23-.32c2.23-1.31,8.56-2.93,11.38-1.73,2,.84,4.42,2.06,5.87,4s1.72,4.42,1.89,6.39c1.35,15.49,2.24,29.38,2.81,43.72a.5.5,0,0,1-1,0c-.57-14.33-1.46-28.21-2.81-43.68-.17-1.93-.36-4.12-1.69-5.87s-3.61-2.84-5.47-3.64c-2.22-.95-7.9.27-10.3,1.57-1.89,8.33-1.72,17-1.56,25.32a148.51,148.51,0,0,1-.4,18.31l-.07.72c-.27,2.7-.69,6.79-1.87,9a.5.5,0,0,1-.44.27"/><path class="cls-5" d="M227.62,226.86c-1.5-10-4.15-21.8-4.25-31.86s2.81-20.78,10.5-27.28a40.87,40.87,0,0,1,8-5,130.61,130.61,0,0,1,30.48-11c8.27-1.86,17.12-2.88,25.09,0a16.44,16.44,0,0,1,7.88,5.45c2,2.73,2.69,6.16,3.21,9.5,3.27,21,1,39.33,5.4,60.17H227.62"/><path class="cls-3" d="M313.9,227.36a.5.5,0,0,1-.49-.4c-2.4-11.44-2.82-22.32-3.23-32.85A233.89,233.89,0,0,0,308,166.77c-.48-3.07-1.15-6.58-3.12-9.28a15.77,15.77,0,0,0-7.65-5.27c-8.42-3-17.69-1.59-24.81,0a130,130,0,0,0-30.37,10.95,40.48,40.48,0,0,0-7.87,4.92c-6.67,5.63-10.43,15.44-10.32,26.89.07,7.33,1.49,15.53,2.86,23.46.5,2.91,1,5.67,1.38,8.33a.5.5,0,0,1-1,.15c-.4-2.66-.88-5.4-1.38-8.31-1.38-8-2.8-16.21-2.87-23.62-.11-11.75,3.78-21.83,10.68-27.66a41.34,41.34,0,0,1,8.06-5.05,131,131,0,0,1,30.6-11c7.26-1.63,16.71-3.11,25.37,0a16.73,16.73,0,0,1,8.12,5.62c2.1,2.89,2.8,6.53,3.3,9.72a234.81,234.81,0,0,1,2.18,27.46c.41,10.49.83,21.33,3.21,32.69a.5.5,0,0,1-.39.59h-.1"/><path class="cls-2" d="M316.95,231.48c-1.43-8-10.28-35.82-11-44a7.57,7.57,0,0,1,.25-3.44,6.21,6.21,0,0,1,2.16-2.52,20,20,0,0,1,11.39-3.71,10.69,10.69,0,0,1,6.62,1.54,11.1,11.1,0,0,1,3.66,5.8c2.3,7,2.09,14.63,3.29,21.94,1.44,8.74,4.92,17.21,4.79,26.06"/><path class="cls-3" d="M338.14,233.69h0a.5.5,0,0,1-.49-.51c.08-5.58-1.32-11.13-2.67-16.5-.78-3.09-1.58-6.28-2.11-9.47-.44-2.65-.69-5.37-.94-8-.43-4.63-.88-9.41-2.34-13.87-.56-1.71-1.53-4.15-3.47-5.54-1.49-1.07-3.56-1.54-6.31-1.45A19.57,19.57,0,0,0,308.7,182a5.86,5.86,0,0,0-2,2.3,7.27,7.27,0,0,0-.22,3.21c.39,4.7,3.59,16.22,6.41,26.38,2,7.28,3.94,14.16,4.53,17.54a.5.5,0,1,1-1,.17c-.59-3.33-2.5-10.19-4.51-17.44-2.84-10.21-6.05-21.77-6.45-26.57a8,8,0,0,1,.29-3.67,6.79,6.79,0,0,1,2.32-2.73,20.56,20.56,0,0,1,11.68-3.81c3-.1,5.25.44,6.92,1.64,2.18,1.56,3.24,4.2,3.84,6,1.49,4.56,1.94,9.4,2.38,14.08.24,2.61.5,5.31.93,7.93.52,3.15,1.32,6.32,2.09,9.39,1.37,5.43,2.78,11.05,2.7,16.76A.5.5,0,0,1,338.14,233.69Z"/><path class="cls-4" d="M320,200.31a26.31,26.31,0,0,1,.11-7.11,3.38,3.38,0,0,1,1-2.12,3.8,3.8,0,0,1,2-.59l7.78-.77a6,6,0,0,0-2.38-5.09,13.81,13.81,0,0,0-5.3-2.39,25.61,25.61,0,0,0-10.67-.79,8.68,8.68,0,0,0-4.91,2.23,7.4,7.4,0,0,0-1.8,5.62,18.34,18.34,0,0,0,1.62,5.82,4.23,4.23,0,0,0,.48.93,4.77,4.77,0,0,0,1.15,1,25.87,25.87,0,0,1,7.65,8.37,53.78,53.78,0,0,1,3.9,9.58,76.74,76.74,0,0,0,4,9.53C321.95,216.84,320.69,208.41,320,200.31Z"/><path class="cls-3" d="M338.14,233.69h0a.5.5,0,0,1-.49-.51c.08-5.58-1.32-11.13-2.67-16.5-.78-3.09-1.58-6.28-2.11-9.47-.44-2.65-.69-5.37-.94-8-.43-4.63-.88-9.41-2.34-13.87-.56-1.71-1.53-4.15-3.47-5.54-1.49-1.07-3.56-1.54-6.31-1.45A19.57,19.57,0,0,0,308.7,182a5.86,5.86,0,0,0-2,2.3,7.27,7.27,0,0,0-.22,3.21c.39,4.7,3.59,16.22,6.41,26.38,2,7.28,3.94,14.16,4.53,17.54a.5.5,0,1,1-1,.17c-.59-3.33-2.5-10.19-4.51-17.44-2.84-10.21-6.05-21.77-6.45-26.57a8,8,0,0,1,.29-3.67,6.79,6.79,0,0,1,2.32-2.73,20.56,20.56,0,0,1,11.68-3.81c3-.1,5.25.44,6.92,1.64,2.18,1.56,3.24,4.2,3.84,6,1.49,4.56,1.94,9.4,2.38,14.08.24,2.61.5,5.31.93,7.93.52,3.15,1.32,6.32,2.09,9.39,1.37,5.43,2.78,11.05,2.7,16.76A.5.5,0,0,1,338.14,233.69Z"/><path class="cls-11" d="M225.48,148c-2-5.63,0-11.86,2.53-17.29s5.6-10.87,5.71-16.85a28,28,0,0,0-1.23-8c-2.42-8.71-6.64-17-7.61-26-1-9.33,1.64-18.8,6.11-27.05,2.83-5.22,7-10.44,12.89-11.31a21,21,0,0,1,6.56-6.41c10.72-7.2,23.71-10.31,36.07-6.6,8.25,2.48,16.29,8.24,18.11,16.66,1.76,8.16-2.49,17.57,2,24.58,1.07,1.65,2.57,3,3.55,4.72,3.07,5.33.36,12-.11,18.1-1,13.81,12.57,39.72,8.46,58.27L225.48,148"/><path class="cls-3" d="M318.58,151.41h-.11a.5.5,0,0,1-.38-.6c2.36-10.64-1.24-23.94-4.41-35.68-2.31-8.56-4.5-16.64-4.05-22.52.13-1.74.45-3.54.75-5.28.79-4.55,1.54-8.85-.58-12.53a18.24,18.24,0,0,0-1.86-2.52,23.07,23.07,0,0,1-1.67-2.18c-2.78-4.29-2.37-9.5-2-14.54.27-3.42.55-7-.15-10.21-1.87-8.63-10.4-14.07-17.77-16.29-11.55-3.47-24.21-1.15-35.65,6.53a20.17,20.17,0,0,0-6.41,6.25.5.5,0,0,1-.36.24c-4.71.7-8.93,4.42-12.52,11.06-3.4,6.27-7.21,16-6.05,26.76.62,5.7,2.6,11.24,4.52,16.59,1.08,3,2.2,6.14,3.08,9.28a28.77,28.77,0,0,1,1.25,8.1c-.1,5.22-2.41,10-4.64,14.69-.38.79-.76,1.58-1.12,2.37-2.26,4.86-4.58,11.17-2.52,16.91a.5.5,0,1,1-.94.34c-2.19-6.08.21-12.64,2.55-17.67.37-.79.75-1.58,1.13-2.38,2.19-4.56,4.45-9.27,4.54-14.27A27.83,27.83,0,0,0,232,106c-.86-3.1-2-6.21-3.05-9.21C227,91.42,225,85.83,224.39,80c-1.19-11,2.7-20.95,6.17-27.35,3.7-6.82,8.08-10.7,13-11.53a21.41,21.41,0,0,1,6.59-6.37c11.69-7.85,24.65-10.21,36.5-6.66,7.64,2.29,16.5,8,18.46,17,.73,3.4.45,7,.17,10.5-.4,5.09-.79,9.91,1.81,13.91a22.48,22.48,0,0,0,1.6,2.09,19.3,19.3,0,0,1,2,2.66c2.3,4,1.48,8.68.7,13.2-.3,1.72-.61,3.49-.74,5.18-.43,5.71,1.73,13.71,4,22.18,3.2,11.85,6.84,25.27,4.43,36.16a.5.5,0,0,1-.49.39"/><path class="cls-18" d="M239.79,90A15.38,15.38,0,0,0,242,95c.65.91,1.45,1.71,2,2.68,1.13,1.93,1.2,4.28,1.52,6.49a27.07,27.07,0,0,0,2.15,7.33,44.27,44.27,0,0,1,2.86,6.45,12.17,12.17,0,0,1,.41,3.89,6.61,6.61,0,0,1-.68,2.76,6.43,6.43,0,0,1-3.44,2.76,35,35,0,0,1-4.35,1.15,28.1,28.1,0,0,0-7.74,3.21,3,3,0,0,1,.45,0,3.09,3.09,0,0,1,2.32,1.06l.2.22c5.93-.63,13.48-3.14,17-6.65a23.25,23.25,0,0,0,5.6-9.25c-7.89-5.45-13.2-14.68-13.43-23.79a7.4,7.4,0,0,1-1.41.14A6.59,6.59,0,0,1,239.79,90"/><path class="cls-2" d="M261.89,111.23a23.76,23.76,0,0,1-6.82,15.42c-4.05,4.07-13.05,6.61-18.79,6.92,0,0,6.37,12.68,34.73,12.68s38.28-10.77,38.28-10.77c-1.36-2.48-4.31-3.54-7-4.4L295.6,129c-3.7-1.17-7.6-2.49-10.08-5.47-3.53-4.25-3.07-10.42-2.43-15.9l-21.21,3.64"/><path class="cls-3" d="M271,146.75c-28.34,0-34.91-12.43-35.18-13a.5.5,0,0,1,.42-.72c6.09-.33,14.67-3,18.46-6.77a23.3,23.3,0,0,0,6.67-15.09.49.49,0,0,1,.52-.47.5.5,0,0,1,.47.52,24.31,24.31,0,0,1-7,15.75c-4.15,4.17-12.86,6.53-18.28,7,1.82,2.57,10,11.74,33.86,11.74,14.51,0,24.05-2.89,29.5-5.31a29.86,29.86,0,0,0,8.15-5c-1.32-2-3.94-3-6.53-3.84l-6.67-2.12c-3.41-1.08-7.66-2.43-10.31-5.62-3.6-4.33-3.23-10.42-2.54-16.28a.5.5,0,1,1,1,.12c-.67,5.65-1,11.49,2.31,15.52,2.47,3,6.56,4.27,9.85,5.31l6.67,2.12c2.92.93,5.88,2,7.3,4.64a.5.5,0,0,1-.07.58c-.41.45-10.4,10.93-38.65,10.93"/><path class="cls-4" d="M253.57,127.63a18.76,18.76,0,0,0,2.57-2,17.45,17.45,0,0,0,2.76-3.94,15.32,15.32,0,0,0,2-4.82,19.81,19.81,0,0,0,9.92,3.94,29.65,29.65,0,0,1-8.1,4.9,112.11,112.11,0,0,1-12.58,4.77,11.83,11.83,0,0,1-3.26.91A28.14,28.14,0,0,0,253.57,127.63Z"/><path class="cls-3" d="M271,146.75c-28.34,0-34.91-12.43-35.18-13a.5.5,0,0,1,.42-.72c6.09-.33,14.67-3,18.46-6.77a23.3,23.3,0,0,0,6.67-15.09.49.49,0,0,1,.52-.47.5.5,0,0,1,.47.52,24.31,24.31,0,0,1-7,15.75c-4.15,4.17-12.86,6.53-18.28,7,1.82,2.57,10,11.74,33.86,11.74,14.51,0,24.05-2.89,29.5-5.31a29.86,29.86,0,0,0,8.15-5c-1.32-2-3.94-3-6.53-3.84l-6.67-2.12c-3.41-1.08-7.66-2.43-10.31-5.62-3.6-4.33-3.23-10.42-2.54-16.28a.5.5,0,1,1,1,.12c-.67,5.65-1,11.49,2.31,15.52,2.47,3,6.56,4.27,9.85,5.31l6.67,2.12c2.92.93,5.88,2,7.3,4.64a.5.5,0,0,1-.07.58c-.41.45-10.4,10.93-38.65,10.93"/><path class="cls-2" d="M208.92,173.9s-10.72,14.37-14.12,22.63l25,18c1.78-5,8.56-30.92,8.56-30.92l-19.41-9.7"/><path class="cls-3" d="M219.77,215a.5.5,0,0,1-.29-.09l-25-18a.5.5,0,0,1-.17-.6c3.39-8.22,14.08-22.6,14.18-22.74a.5.5,0,0,1,.62-.15l19.41,9.7a.5.5,0,0,1,.26.57c-.28,1.06-6.81,26-8.58,31a.5.5,0,0,1-.32.31l-.15,0m-24.35-18.66,24.1,17.36c1.89-5.74,7.41-26.71,8.23-29.85l-18.67-9.33c-1.6,2.18-10.46,14.37-13.66,21.82"/><path class="cls-5" d="M227.43,191.35c-22-9.48-32.14-20.63-32.14-20.63s15.16-26.26,38.8-38.29a2.55,2.55,0,0,1,3.06.62c2.87,3.26,11.18,10.52,36.47,10.52,19.74,0,29-7.54,32.19-10.89a2.4,2.4,0,0,1,3.16-.31c19.91,14.5,27.33,52.34,27.33,52.34s-11.56,4.65-38.82,3.85l-70,2.79"/><path class="cls-3" d="M227.43,191.85l-.2,0c-21.81-9.41-32.21-20.64-32.31-20.75a.5.5,0,0,1-.06-.59c.15-.26,15.5-26.52,39-38.48a3,3,0,0,1,3.66.74c6,6.77,18.44,10.35,36.1,10.35,19.6,0,28.79-7.51,31.82-10.74a2.91,2.91,0,0,1,3.82-.38c19.83,14.45,27.45,52.27,27.52,52.65a.5.5,0,0,1-.3.56c-.48.19-12,4.68-39,3.88a.5.5,0,0,1-.49-.51.52.52,0,0,1,.51-.49c24.1.71,36-2.9,38.23-3.67-.89-4.17-8.65-38.21-27-51.62a1.9,1.9,0,0,0-2.5.25c-3.13,3.32-12.56,11.05-32.55,11.05-18,0-30.7-3.7-36.85-10.69a2,2,0,0,0-2.46-.51c-21.84,11.11-36.58,34.74-38.4,37.77,1.71,1.75,12,11.72,31.71,20.24a.5.5,0,0,1-.2,1"/><path class="cls-6" d="M215.16,146.85c-.92.88-1.81,1.76-2.67,2.64a62.79,62.79,0,0,1,3,6.16,83.78,83.78,0,0,1,6.35,25.11.5.5,0,0,1,0,.14V181a.5.5,0,0,1-.39.54c-.15,0-2,.42-4.56.72q.08,1.72.16,3.53,1.86,1,3.89,2a3.67,3.67,0,0,1,.65-2c.3-.39,1.44-.53,2.4-.57a1.32,1.32,0,0,0,1.25-1.46c-.27-2.55-.79-7.62-.81-8.25a56.53,56.53,0,0,0-3.17-16.83,55.53,55.53,0,0,0-3.46-7.86,15.48,15.48,0,0,0-2.19-3.7,1,1,0,0,0-.44-.26"/><path class="cls-3" d="M227.43,191.85l-.2,0c-21.81-9.41-32.21-20.64-32.31-20.75a.5.5,0,0,1-.06-.59c.15-.26,15.5-26.52,39-38.48a3,3,0,0,1,3.66.74c6,6.77,18.44,10.35,36.1,10.35,19.6,0,28.79-7.51,31.82-10.74a2.91,2.91,0,0,1,3.82-.38c19.83,14.45,27.45,52.27,27.52,52.65a.5.5,0,0,1-.3.56c-.48.19-12,4.68-39,3.88a.5.5,0,0,1-.49-.51.52.52,0,0,1,.51-.49c24.1.71,36-2.9,38.23-3.67-.89-4.17-8.65-38.21-27-51.62a1.9,1.9,0,0,0-2.5.25c-3.13,3.32-12.56,11.05-32.55,11.05-18,0-30.7-3.7-36.85-10.69a2,2,0,0,0-2.46-.51c-21.84,11.11-36.58,34.74-38.4,37.77,1.71,1.75,12,11.72,31.71,20.24a.5.5,0,0,1-.2,1"/><path class="cls-2" d="M204,227.8c2.36-3.74,21.62-28.62,24.92-31.56,8-7.13,12.51-17.68,20.88-24.41a14.28,14.28,0,0,1,2.91-1.9,1.28,1.28,0,0,1,.85-.16,1.29,1.29,0,0,1,.7.72,18.5,18.5,0,0,1,1.6,5.21,103.35,103.35,0,0,1,1.84,17.71,10.09,10.09,0,0,1-.89,5.21,8.84,8.84,0,0,1-3.2,3,26.62,26.62,0,0,1-7.16,3.06c-1.8.47-3.81.85-5,2.31a7.47,7.47,0,0,0-.9,1.64l-8.54,19.2"/><path class="cls-3" d="M232.1,228.3l-.2,0a.5.5,0,0,1-.25-.66l8.54-19.2a8,8,0,0,1,1-1.75c1.14-1.44,3-1.92,4.67-2.34l.56-.14a26,26,0,0,0,7-3,8.51,8.51,0,0,0,3-2.79,9.71,9.71,0,0,0,.82-5,103.06,103.06,0,0,0-1.83-17.63,18.11,18.11,0,0,0-1.55-5.07c-.1-.18-.24-.43-.39-.47a1,1,0,0,0-.51.13,14,14,0,0,0-2.81,1.83c-4.34,3.49-7.7,8.13-11,12.62-3,4.11-6.06,8.35-9.91,11.78-3.16,2.81-22.36,27.54-24.83,31.45a.5.5,0,0,1-.85-.53c2.11-3.34,21.57-28.61,25-31.67,3.77-3.35,6.82-7.55,9.76-11.62,3.29-4.54,6.69-9.23,11.14-12.81a15,15,0,0,1,3-2,1.72,1.72,0,0,1,1.2-.19,1.75,1.75,0,0,1,1,1,19,19,0,0,1,1.64,5.35,104.12,104.12,0,0,1,1.85,17.8,10.52,10.52,0,0,1-1,5.46,9.42,9.42,0,0,1-3.38,3.14,27,27,0,0,1-7.29,3.12l-.56.15c-1.57.4-3.2.82-4.13,2a7.12,7.12,0,0,0-.84,1.53L232.56,228A.5.5,0,0,1,232.1,228.3Z"/><path class="cls-4" d="M241.79,206.49c2.36-1.36,7.87-2.62,7.87-2.62a.84.84,0,0,0,.41,0c.15-.1.17.7.18.52q.13-2,.43-4c.36-2.37.91-4.7,1.3-7.07a53.11,53.11,0,0,0,.7-9.25,16.63,16.63,0,0,0-.64-4.94,19.69,19.69,0,0,0-1.36-3c-.34-.65-1-2.81-1.8-3-.94-.18-1.24,1.93-1.44,2.56-.78,2.43-1.45,4.9-2,7.39a150.61,150.61,0,0,0-2.64,15C242.68,198.76,241.89,206.49,241.79,206.49Z"/><path class="cls-3" d="M232.1,228.3l-.2,0a.5.5,0,0,1-.25-.66l8.54-19.2a8,8,0,0,1,1-1.75c1.14-1.44,3-1.92,4.67-2.34l.56-.14a26,26,0,0,0,7-3,8.51,8.51,0,0,0,3-2.79,9.71,9.71,0,0,0,.82-5,103.06,103.06,0,0,0-1.83-17.63,18.11,18.11,0,0,0-1.55-5.07c-.1-.18-.24-.43-.39-.47a1,1,0,0,0-.51.13,14,14,0,0,0-2.81,1.83c-4.34,3.49-7.7,8.13-11,12.62-3,4.11-6.06,8.35-9.91,11.78-3.16,2.81-22.36,27.54-24.83,31.45a.5.5,0,0,1-.85-.53c2.11-3.34,21.57-28.61,25-31.67,3.77-3.35,6.82-7.55,9.76-11.62,3.29-4.54,6.69-9.23,11.14-12.81a15,15,0,0,1,3-2,1.72,1.72,0,0,1,1.2-.19,1.75,1.75,0,0,1,1,1,19,19,0,0,1,1.64,5.35,104.12,104.12,0,0,1,1.85,17.8,10.52,10.52,0,0,1-1,5.46,9.42,9.42,0,0,1-3.38,3.14,27,27,0,0,1-7.29,3.12l-.56.15c-1.57.4-3.2.82-4.13,2a7.12,7.12,0,0,0-.84,1.53L232.56,228A.5.5,0,0,1,232.1,228.3Z"/><polygon class="cls-13" points="270.51 183.51 267.9 181.49 267.8 181.41 263.9 178.4 264.41 178.02 265.71 177.05 267.03 176.07 267.53 175.7 269.29 180.31 270.51 183.51"/><path class="cls-19" d="M265.77,179.85q-.95-.69-1.85-1.44a1.94,1.94,0,0,1,1.11-.54,1.67,1.67,0,0,1,1.25.1,1.84,1.84,0,0,1,.54.65q.49.83.95,1.68a10.87,10.87,0,0,0,.79,1.46A33.55,33.55,0,0,1,265.77,179.85Z"/><path class="cls-20" d="M248.25,149.73l-1.82,1.35-1.81,1.35-.78-1.06-.58-.78a1.67,1.67,0,0,1,.34-2.34l1-.7a1.67,1.67,0,0,1,2.34.35l.57.78.79,1.05"/><path class="cls-21" d="M243,149.08a1.56,1.56,0,0,0-.11.83,2.28,2.28,0,0,0,.33.79,7,7,0,0,0,1.06,1.36l0,0h0l-.49-.66-.58-.78a1.67,1.67,0,0,1-.25-1.51m.78-1a.84.84,0,0,0-.27.21l.09-.07.18-.14"/><path class="cls-22" d="M243.88,148.1l-.09,0-.18.14-.09.07a3.27,3.27,0,0,0-.29.37,2,2,0,0,0-.21.39,1.67,1.67,0,0,0,.25,1.51l.58.78.49.66,1.06-.78-.82-1.18A3.13,3.13,0,0,1,244,149c0-.21.14-.78-.05-.86h-.07"/><path class="cls-23" d="M244.62,152.93h-.07a.5.5,0,0,1-.33-.2l-1.36-1.84a2.17,2.17,0,0,1,.45-3l1-.7a2.17,2.17,0,0,1,3,.45l1.36,1.83a.5.5,0,0,1-.1.7l-3.63,2.7A.5.5,0,0,1,244.62,152.93Zm.93-5.2a1.16,1.16,0,0,0-.69.23l-1,.7a1.17,1.17,0,0,0-.24,1.64l1.06,1.43,2.83-2.1-1.06-1.43A1.17,1.17,0,0,0,245.55,147.72Z"/><path class="cls-19" d="M255.14,159l-6.88-9.28-1.82,1.35-1.81,1.35,6.89,9.28,12.37,16.66a1.94,1.94,0,0,1,.54-.35,2.76,2.76,0,0,1,1.94-.11,2.83,2.83,0,0,1,.68-1.83,1.94,1.94,0,0,1,.48-.4L255.14,159"/><path class="cls-23" d="M263.88,178.86h0a.5.5,0,0,1-.36-.2l-19.26-25.94a.5.5,0,0,1,.1-.7l3.63-2.7a.51.51,0,0,1,.37-.09.5.5,0,0,1,.33.2l19.25,25.94a.5.5,0,0,1-.17.74,1.56,1.56,0,0,0-.34.29,2.34,2.34,0,0,0-.55,1.52.5.5,0,0,1-.63.47,2.28,2.28,0,0,0-1.6.08,1.51,1.51,0,0,0-.39.25.51.51,0,0,1-.35.14m-18.56-26.34L264,177.67l.22-.11a3.14,3.14,0,0,1,1.71-.25,3.21,3.21,0,0,1,.74-1.57l.16-.16-12.08-16.27-6.59-8.88-2.83,2.1"/><path class="cls-23" d="M270.51,184a.5.5,0,0,1-.31-.1l-6.61-5.11a.5.5,0,1,1,.61-.79l6.61,5.11a.5.5,0,0,1-.31.9Z"/><path class="cls-23" d="M270.51,184a.5.5,0,0,1-.47-.32l-3-7.81a.5.5,0,1,1,.93-.36l3,7.81a.5.5,0,0,1-.29.65Z"/><polygon class="cls-23" points="270.61 183.6 267.8 181.41 269.29 180.31 270.61 183.6"/><path class="cls-2" d="M297.59,62.69c-8.58,2.13-17.75.48-25.9-3-5.6-2.36-11.18-5.92-13.49-11.54.85,2.07.58,5.24.41,7.42a29.73,29.73,0,0,1-1.51,7.29c-1.56,4.56-4.4,9.59-8.31,12.55a11,11,0,0,1-1.29.79c-6.68-5.09-9.74,1.15-9.18,7.39.46,5.25,3.49,10.51,9.06,9,0,19,22.38,37,39.08,24.45,21.3-16,4.45-34.61,11.12-54l0-.42"/><path class="cls-3" d="M274.28,121.72a23.28,23.28,0,0,1-10.43-2.58c-9.8-4.9-16.7-15.47-17-25.88-3.17.61-5.82-.81-7.52-4.05-2.48-4.73-2-11.83,1-14.33,1.31-1.11,3.62-1.85,7.22.78a9,9,0,0,0,.94-.6c3.37-2.54,6.34-7,8.14-12.31a29.19,29.19,0,0,0,1.49-7.16v-.15c.17-2.17.4-5.13-.38-7h0a.5.5,0,0,1,.92-.38h0c1.88,4.57,6.33,8.36,13.21,11.26,6.32,2.67,15.9,5.34,25.59,2.93a.5.5,0,0,1,.56.72.49.49,0,0,1,0,.35c-2.53,7.34-1.62,14.63-.74,21.68,1.44,11.59,2.8,22.53-10.55,32.54a20.59,20.59,0,0,1-12.47,4.23m-26.9-29.59a.5.5,0,0,1,.5.5c0,10.25,6.75,20.78,16.43,25.61,7.65,3.82,15.41,3.27,21.85-1.56C299,107,297.71,96.36,296.3,85.07c-.87-7-1.78-14.31.66-21.72-9.69,2.16-19.16-.5-25.46-3.16-5.69-2.4-9.79-5.41-12.22-9a34.83,34.83,0,0,1-.15,4.3v.15a30.21,30.21,0,0,1-1.54,7.41c-1.87,5.46-5,10.12-8.48,12.78a11.37,11.37,0,0,1-1.36.84.5.5,0,0,1-.53,0c-1.78-1.36-4.31-2.63-6.23-1-2.6,2.2-3,8.81-.72,13.1.91,1.73,3,4.48,7,3.41l.13,0"/><path class="cls-4" d="M248.05,99.38c.86,1.84,1.42,3.16,2.12,5.08l3.09,5.55,4.86,4.7L262.8,118l1,.67a23.66,23.66,0,0,0,12.89,2.19c2.81-.27,9.33-1.26,10.29-4.52-15.55,8.14-34.27-6.29-39.56-20.64"/><path class="cls-4" d="M280.06,62.3a48.69,48.69,0,0,1-12.52-4.58,23.24,23.24,0,0,1-9.4-9.26,31.18,31.18,0,0,1-10.5,27.91h0a26,26,0,0,0,13.4-20A27.55,27.55,0,0,0,273,63.28a52.63,52.63,0,0,0,13.71,1.92c3.79.1,7.8-.08,11-2.1V63C292,64.59,285.83,63.7,280.06,62.3Z"/><path class="cls-3" d="M274.28,121.72a23.28,23.28,0,0,1-10.43-2.58c-9.8-4.9-16.7-15.47-17-25.88-3.17.61-5.82-.81-7.52-4.05-2.48-4.73-2-11.83,1-14.33,1.31-1.11,3.62-1.85,7.22.78a9,9,0,0,0,.94-.6c3.37-2.54,6.34-7,8.14-12.31a29.19,29.19,0,0,0,1.49-7.16v-.15c.17-2.17.4-5.13-.38-7h0a.5.5,0,0,1,.92-.38h0c1.88,4.57,6.33,8.36,13.21,11.26,6.32,2.67,15.9,5.34,25.59,2.93a.5.5,0,0,1,.56.72.49.49,0,0,1,0,.35c-2.53,7.34-1.62,14.63-.74,21.68,1.44,11.59,2.8,22.53-10.55,32.54a20.59,20.59,0,0,1-12.47,4.23m-26.9-29.59a.5.5,0,0,1,.5.5c0,10.25,6.75,20.78,16.43,25.61,7.65,3.82,15.41,3.27,21.85-1.56C299,107,297.71,96.36,296.3,85.07c-.87-7-1.78-14.31.66-21.72-9.69,2.16-19.16-.5-25.46-3.16-5.69-2.4-9.79-5.41-12.22-9a34.83,34.83,0,0,1-.15,4.3v.15a30.21,30.21,0,0,1-1.54,7.41c-1.87,5.46-5,10.12-8.48,12.78a11.37,11.37,0,0,1-1.36.84.5.5,0,0,1-.53,0c-1.78-1.36-4.31-2.63-6.23-1-2.6,2.2-3,8.81-.72,13.1.91,1.73,3,4.48,7,3.41l.13,0"/><path class="cls-3" d="M263,82.39c0,1.55-.1,2.8-1.2,2.8s-1.2-1.26-1.2-2.8.09-2.8,1.2-2.8S263,80.84,263,82.39Z"/><path class="cls-3" d="M261.76,85.69c-1.7,0-1.7-2-1.7-3.3s0-3.3,1.7-3.3,1.7,2,1.7,3.3S263.47,85.69,261.76,85.69Zm0-5.61c-.47,0-.7.36-.7,2.3s.25,2.3.7,2.3.7-.37.7-2.3S262.23,80.08,261.76,80.08Z"/><path class="cls-13" d="M262.7,81.29c0,.74,0,1.35-.58,1.35s-.58-.6-.58-1.35,0-1.35.58-1.35S262.7,80.55,262.7,81.29Z"/><path class="cls-24" d="M274.34,79.6a8.67,8.67,0,0,0-4.45,1.2,9.92,9.92,0,0,1,.19,1.06,7.75,7.75,0,0,1,8.37-.09,10,10,0,0,1,.2-1.05,8.63,8.63,0,0,0-4.31-1.12"/><path class="cls-24" d="M288.36,73.11a10,10,0,1,0,8.36,15.49q-.09-.84-.2-1.69a9,9,0,1,1-1-9.25q-.05-.81-.09-1.62a10,10,0,0,0-7.07-2.93"/><path class="cls-25" d="M296.5,77.31c.05.8.12,1.6.19,2.4a9,9,0,0,1,.55,4.87l0,.37q.13,1.06.26,2.12a10,10,0,0,0-1.05-9.76"/><path class="cls-8" d="M297.25,84.58a8.93,8.93,0,0,1-.72,2.34q.1.85.2,1.69a10,10,0,0,0,.83-1.54q-.13-1.05-.26-2.12l0-.37M295.43,76q0,.81.09,1.62a9,9,0,0,1,1.17,2c-.08-.8-.14-1.6-.19-2.4A10.09,10.09,0,0,0,295.43,76"/><path class="cls-24" d="M260.15,92.12a9,9,0,1,1,9-9,9,9,0,0,1-9,9m0-19a10,10,0,1,0,9.73,7.69,10,10,0,0,0-9.73-7.69"/><path class="cls-3" d="M271.66,81a.5.5,0,0,1-.29-.91,8.76,8.76,0,0,1,9.77-.11.5.5,0,1,1-.56.83A7.74,7.74,0,0,0,272,81,.5.5,0,0,1,271.66,81Z"/><path class="cls-3" d="M286.53,68.86a.5.5,0,0,1-.29-.91,4.79,4.79,0,0,1,5.35-.06.5.5,0,1,1-.56.83,3.77,3.77,0,0,0-4.2,0A.5.5,0,0,1,286.53,68.86Z"/><path class="cls-3" d="M259.38,68.86a.5.5,0,0,1-.29-.91,4.79,4.79,0,0,1,5.35-.06.5.5,0,1,1-.56.83,3.77,3.77,0,0,0-4.2,0A.5.5,0,0,1,259.38,68.86Z"/><path class="cls-3" d="M275.86,108.82a9.13,9.13,0,0,1-5.14-1.54.5.5,0,1,1,.56-.83,8.36,8.36,0,0,0,9.32-.11.5.5,0,0,1,.58.81A9.16,9.16,0,0,1,275.86,108.82Z"/><path class="cls-3" d="M290.36,92.12a10,10,0,1,1,10-10A10,10,0,0,1,290.36,92.12Zm0-19a9,9,0,1,0,9,9A9,9,0,0,0,290.36,73.11Z"/><path class="cls-3" d="M262.15,92.12a10,10,0,1,1,10-10A10,10,0,0,1,262.15,92.12Zm0-19a9,9,0,1,0,9,9A9,9,0,0,0,262.15,73.11Z"/><path class="cls-13" d="M266.44,79.33a1.5,1.5,0,0,1-1.06-.44,4.53,4.53,0,0,0-3.23-1.34,1.5,1.5,0,0,1,0-3,7.51,7.51,0,0,1,5.35,2.21,1.5,1.5,0,0,1-1.06,2.56Z"/><path class="cls-13" d="M296.31,82.14a1.5,1.5,0,0,1-1.49-1.38,3.76,3.76,0,0,0-4-3.44,1.5,1.5,0,0,1-.24-3,6.76,6.76,0,0,1,7.28,6.19,1.5,1.5,0,0,1-1.37,1.62Z"/><path class="cls-3" d="M244.15,86.27a.5.5,0,0,1-.42-.22,6.42,6.42,0,0,1-1.06-4.21,2.85,2.85,0,0,1,.59-1.6,1.6,1.6,0,0,1,1.9-.44.5.5,0,0,1-.47.88.61.61,0,0,0-.67.21,1.84,1.84,0,0,0-.36,1.05,5.5,5.5,0,0,0,.89,3.55.5.5,0,0,1-.41.78Z"/><path class="cls-3" d="M276.35,97.69a.5.5,0,0,1-.24-.94,9,9,0,0,1,2.7-.88c.7-.14,1.25-.25,1.41-.54s.06-1-.34-2.13c-.26-.69-.52-1.37-.78-2.05a56.68,56.68,0,0,1-2.19-6.42.5.5,0,1,1,1-.25A55.9,55.9,0,0,0,280,90.79c.27.69.53,1.37.79,2.06.54,1.45.63,2.34.28,3s-1.17.85-2.08,1a8,8,0,0,0-2.41.78Z"/><path class="cls-2" d="M200.94,222.12c-.32-16.33-.64-32.72,1.27-48.94.21-1.76.56-3.73,2-4.76,1.83-1.3,4.38-.4,6.32.72a11.4,11.4,0,0,1,4.39,3.92,13.62,13.62,0,0,1,1.3,6.17c.76,14.91,1.24,33.65,1.44,48.58l-16.74-5.68"/><path class="cls-3" d="M217.68,228.3a.5.5,0,0,1-.5-.49c-.24-17.29-.77-35.44-1.44-48.56a13.25,13.25,0,0,0-1.24-5.94,11.07,11.07,0,0,0-4.21-3.74c-1.72-1-4.12-1.93-5.78-.75-1.29.91-1.61,2.76-1.8,4.41-1.91,16.21-1.58,32.82-1.27,48.88a.5.5,0,0,1-.49.51.47.47,0,0,1-.51-.49c-.31-16.09-.64-32.73,1.28-49,.24-2,.67-4,2.22-5.11,2.1-1.49,4.89-.44,6.86.7a12,12,0,0,1,4.58,4.1c1.14,2,1.27,4.43,1.37,6.39.67,13.13,1.21,31.3,1.44,48.6a.5.5,0,0,1-.49.51h0"/><path class="cls-4" d="M212.9,182c-.7,8.33-4.85,42.49-5.09,46q.28-12.09.73-24.17c.08-2.17.34-12.39.51-21.36l3.85-.44"/><path class="cls-5" d="M125.51,228.21l-.31-56.63A99.63,99.63,0,0,1,110,180.42a103.86,103.86,0,0,1-16.22-25.29,110.47,110.47,0,0,1,68.81-27.66c8.49-.31,17.1.39,25.18,3s15.62,7.31,20.85,14A50.25,50.25,0,0,1,215,155.85a83.53,83.53,0,0,1,6.32,25s-6.95,1.47-12.29.92L208,228.22h-82.5"/><path class="cls-3" d="M208,228.71h0a.5.5,0,0,1-.49-.51l1.05-46.49a.5.5,0,0,1,.17-.36.52.52,0,0,1,.38-.12,46.52,46.52,0,0,0,11.69-.83A82.74,82.74,0,0,0,214.57,156a49,49,0,0,0-6.37-11.23c-4.88-6.24-12-11-20.62-13.84-7.26-2.37-15.43-3.35-25-3a110.69,110.69,0,0,0-68.22,27.29,105,105,0,0,0,15.75,24.55,100.14,100.14,0,0,0,14.8-8.63.5.5,0,0,1,.8.4l.31,56.63a.5.5,0,0,1-.5.5h0a.5.5,0,0,1-.5-.5l-.3-55.67a102.73,102.73,0,0,1-14.52,8.33.5.5,0,0,1-.58-.12A105.37,105.37,0,0,1,93.3,155.33a.5.5,0,0,1,.13-.57A111.68,111.68,0,0,1,162.55,127c9.69-.35,18,.64,25.35,3.05,8.8,2.87,16.09,7.78,21.09,14.18a50,50,0,0,1,6.5,11.45,83.78,83.78,0,0,1,6.35,25.11.5.5,0,0,1-.39.54,49.51,49.51,0,0,1-11.9,1l-1,46a.5.5,0,0,1-.5.49"/><path class="cls-6" d="M124.75,166.93c-.23,0-.45,0-.68,0a15.78,15.78,0,0,0-4.51,1.4c-2.1.79-4.16,1.76-6.23,2.64l-7.68,3.31c1.37,1.83,2.85,3.69,4.45,5.51a100.14,100.14,0,0,0,14.8-8.63.5.5,0,0,1,.8.4l.24,44,.05,2.91,6.28,4.64s1-35-2.21-51a7.5,7.5,0,0,0-1.61-3.85,5.09,5.09,0,0,0-3.7-1.39"/><path class="cls-8" d="M125.2,171.09a.5.5,0,0,0-.29.1,100.14,100.14,0,0,1-14.8,8.63c-1.6-1.82-3.08-3.68-4.45-5.51l-.11,0c1.4,1.88,2.92,3.79,4.56,5.66a100.15,100.15,0,0,0,14.8-8.63.5.5,0,0,1,.8.4l.24,43.75v.08l-.24-44a.5.5,0,0,0-.5-.5"/><path class="cls-6" d="M209.1,168c.15.24.1,6.2,0,13.22h0a25,25,0,0,0,2.54.12c1.14,0,2.3-.06,3.4-.15A42.38,42.38,0,0,0,209.1,168"/><path class="cls-8" d="M215,181.19c-1.1.09-2.26.15-3.4.15a25,25,0,0,1-2.54-.12h0v.2h0a25,25,0,0,0,2.54.12c1.16,0,2.33-.06,3.44-.16l0-.19"/><path class="cls-3" d="M208,228.91h0a.5.5,0,0,1-.49-.51l1.05-46.49a.5.5,0,0,1,.17-.36.51.51,0,0,1,.38-.12,46.48,46.48,0,0,0,11.69-.83,82.74,82.74,0,0,0-6.24-24.36A49,49,0,0,0,208.2,145c-4.88-6.24-12-11-20.62-13.84-7.26-2.37-15.44-3.36-25-3a110.69,110.69,0,0,0-68.22,27.29A105,105,0,0,0,110.11,180a100.15,100.15,0,0,0,14.8-8.63.5.5,0,0,1,.8.4l.31,56.63a.5.5,0,0,1-.5.5h0a.5.5,0,0,1-.5-.5l-.3-55.67a102.72,102.72,0,0,1-14.52,8.33.5.5,0,0,1-.58-.12A105.38,105.38,0,0,1,93.3,155.52a.5.5,0,0,1,.13-.57,111.68,111.68,0,0,1,69.12-27.79c9.69-.35,18,.64,25.35,3.05C196.69,133.1,204,138,209,144.4a50,50,0,0,1,6.5,11.45A83.77,83.77,0,0,1,221.84,181a.5.5,0,0,1-.39.54,49.49,49.49,0,0,1-11.9,1l-1,46a.5.5,0,0,1-.5.49"/><path class="cls-3" d="M209.06,182.43a.5.5,0,0,1-.5-.5V174a.5.5,0,1,1,1,0v7.94A.5.5,0,0,1,209.06,182.43Z"/><path class="cls-2" d="M136.72,226.3a92.61,92.61,0,0,0-11.26-8.15l0-3a45.84,45.84,0,0,1-5.71-1.33,14.72,14.72,0,0,1-3.41-1.34,16.18,16.18,0,0,1-3.24-2.73c-3.4-3.45-15.33-21.13-16.67-23.12a80,80,0,0,0,11.69-8.24,105.79,105.79,0,0,1-14-22.34L71.28,178.48a7.87,7.87,0,0,0-1.5,9.22A96.14,96.14,0,0,0,80.6,203.55c6,7.27,25,21.9,27.25,25.55s3,5.28,6.64,8.8,7,10.91,7,10.91a6.77,6.77,0,0,0,1.55,1.61,1.75,1.75,0,0,0,2.08-.05,2.39,2.39,0,0,0,.22-2.39c-1-3.25-2.73-6.18-4.21-9.23-.46-.95-.8-2.31.1-2.88a1.51,1.51,0,0,1,1.55.08A4.44,4.44,0,0,1,124,237.1l6,7.77a9,9,0,0,0,1.81,1.91,3,3,0,0,0,2.49.56,1.85,1.85,0,0,0,1.38-2c1.37.48,3.13.81,4.07-.29A3.45,3.45,0,0,0,140,242c-1.46-5.54-5.58-9.93-9.57-14.05l7,6a6.33,6.33,0,0,0,2.16,1.4,2.16,2.16,0,0,0,2.36-.6,2.8,2.8,0,0,0-.18-2.88A18.79,18.79,0,0,0,136.72,226.3Z"/><path class="cls-3" d="M124.19,251.24a2.65,2.65,0,0,1-1.36-.39,5.86,5.86,0,0,1-1.46-1.44l-.22-.28-.07-.1c0-.07-3.45-7.35-6.94-10.77a31.93,31.93,0,0,1-6-7.72l-.72-1.18c-1-1.68-6-6-11.33-10.63-6-5.17-12.71-11-15.88-14.87a96.86,96.86,0,0,1-10.88-15.94,8.32,8.32,0,0,1,1.6-9.81l22.81-22.39a.5.5,0,0,1,.81.15,105.25,105.25,0,0,0,13.94,22.23.5.5,0,0,1-.05.69,77.36,77.36,0,0,1-11.32,8c8.32,12.29,14.26,20.53,16.32,22.62a15.78,15.78,0,0,0,3.14,2.65,14.36,14.36,0,0,0,3.29,1.29,45.3,45.3,0,0,0,5.65,1.31.5.5,0,0,1,.42.49v2.69a93.54,93.54,0,0,1,11.08,8,19.21,19.21,0,0,1,5.21,5.7c.71,1.36.76,2.57.14,3.41a2.67,2.67,0,0,1-2.91.78,6.76,6.76,0,0,1-2.34-1.5l-1.06-.92a23.81,23.81,0,0,1,4.46,8.45c.42,1.6.29,2.77-.4,3.57s-2.14,1.15-4,.64a2.44,2.44,0,0,1-1.72,1.78,3.49,3.49,0,0,1-2.91-.64,9.47,9.47,0,0,1-1.91-2l-6-7.77a4.05,4.05,0,0,0-1-1,1,1,0,0,0-1-.09c-.57.36-.31,1.43.09,2.23s.78,1.56,1.18,2.33a40.87,40.87,0,0,1,3.06,7c.4,1.33.28,2.28-.35,2.89A1.87,1.87,0,0,1,124.19,251.24ZM122,248.55l.19.24a5,5,0,0,0,1.2,1.21,1.27,1.27,0,0,0,1.47,0c.33-.33.36-1,.09-1.89a40,40,0,0,0-3-6.8c-.4-.78-.81-1.56-1.19-2.35-.78-1.6-.68-2.91.28-3.52a2,2,0,0,1,2.07.07,4.86,4.86,0,0,1,1.28,1.27l6,7.77a8.58,8.58,0,0,0,1.7,1.81,2.54,2.54,0,0,0,2.07.49,1.36,1.36,0,0,0,1-1.4.5.5,0,0,1,.66-.56c1.74.61,2.92.56,3.53-.14.46-.54.52-1.41.19-2.67-1.47-5.6-5.89-10.16-9.44-13.83a.5.5,0,0,1,.69-.73l7,6a5.93,5.93,0,0,0,2,1.3,1.68,1.68,0,0,0,1.81-.42c.53-.72,0-1.88-.22-2.35a18.38,18.38,0,0,0-5-5.39,92.42,92.42,0,0,0-11.21-8.12.5.5,0,0,1-.24-.42v-2.54a47.44,47.44,0,0,1-5.35-1.27,15.25,15.25,0,0,1-3.52-1.39,16.63,16.63,0,0,1-3.34-2.81c-2.88-2.93-11.61-15.62-16.55-22.93l-.17-.26a.5.5,0,0,1,.15-.71,82.05,82.05,0,0,0,11.26-7.86,107,107,0,0,1-13.47-21.43l-22.3,21.89a7.33,7.33,0,0,0-1.41,8.63A95.75,95.75,0,0,0,81,203.23c3.12,3.77,9.84,9.6,15.76,14.75,5.59,4.86,10.42,9.05,11.53,10.86L109,230a30.79,30.79,0,0,0,5.84,7.52C118.34,241,121.62,247.81,122,248.55Z"/><path class="cls-4" d="M74.55,191.45a291.28,291.28,0,0,0,25,26.82c8.09,7.66,16.88,15.2,21.33,25.41.89,2,1.71,4.3,3.59,5.47a1.2,1.2,0,0,1,.62-.86,1.67,1.67,0,0,1-.68,2.72c-1.38.34-2.46-1.16-3.08-2.44a47.66,47.66,0,0,0-4.63-8.22c-1.61-2.12-3.61-3.92-5.2-6.06-1.23-1.66-2.2-3.5-3.49-5.11a33,33,0,0,0-3.87-3.88L89.36,212.05a104.79,104.79,0,0,1-8-7.7,104.82,104.82,0,0,1-9.92-13.74c-.57-.89-3.83-6.47-1.79-7.08A32.12,32.12,0,0,0,74.55,191.45Z"/><path class="cls-4" d="M95,181.52c.28-2,1.73-3.7,3.24-5.1a37.14,37.14,0,0,1,4.91-3.85.58.58,0,0,1,.41-.14.58.58,0,0,1,.28.19,26.37,26.37,0,0,1,4.24,5.85,34.62,34.62,0,0,1-6.28,4.61c-1.09.68-2.18,1.35-3.24,2.08-.75.52-1.86,1.71-2.63.71A6.66,6.66,0,0,1,95,181.52Z"/><path class="cls-3" d="M124.19,251.24a2.65,2.65,0,0,1-1.36-.39,5.86,5.86,0,0,1-1.46-1.44l-.22-.28-.07-.1c0-.07-3.45-7.35-6.94-10.77a31.93,31.93,0,0,1-6-7.72l-.72-1.18c-1-1.68-6-6-11.33-10.63-6-5.17-12.71-11-15.88-14.87a96.86,96.86,0,0,1-10.88-15.94,8.32,8.32,0,0,1,1.6-9.81l22.81-22.39a.5.5,0,0,1,.81.15,105.25,105.25,0,0,0,13.94,22.23.5.5,0,0,1-.05.69,77.36,77.36,0,0,1-11.32,8c8.32,12.29,14.26,20.53,16.32,22.62a15.78,15.78,0,0,0,3.14,2.65,14.36,14.36,0,0,0,3.29,1.29,45.3,45.3,0,0,0,5.65,1.31.5.5,0,0,1,.42.49v2.69a93.54,93.54,0,0,1,11.08,8,19.21,19.21,0,0,1,5.21,5.7c.71,1.36.76,2.57.14,3.41a2.67,2.67,0,0,1-2.91.78,6.76,6.76,0,0,1-2.34-1.5l-1.06-.92a23.81,23.81,0,0,1,4.46,8.45c.42,1.6.29,2.77-.4,3.57s-2.14,1.15-4,.64a2.44,2.44,0,0,1-1.72,1.78,3.49,3.49,0,0,1-2.91-.64,9.47,9.47,0,0,1-1.91-2l-6-7.77a4.05,4.05,0,0,0-1-1,1,1,0,0,0-1-.09c-.57.36-.31,1.43.09,2.23s.78,1.56,1.18,2.33a40.87,40.87,0,0,1,3.06,7c.4,1.33.28,2.28-.35,2.89A1.87,1.87,0,0,1,124.19,251.24ZM122,248.55l.19.24a5,5,0,0,0,1.2,1.21,1.27,1.27,0,0,0,1.47,0c.33-.33.36-1,.09-1.89a40,40,0,0,0-3-6.8c-.4-.78-.81-1.56-1.19-2.35-.78-1.6-.68-2.91.28-3.52a2,2,0,0,1,2.07.07,4.86,4.86,0,0,1,1.28,1.27l6,7.77a8.58,8.58,0,0,0,1.7,1.81,2.54,2.54,0,0,0,2.07.49,1.36,1.36,0,0,0,1-1.4.5.5,0,0,1,.66-.56c1.74.61,2.92.56,3.53-.14.46-.54.52-1.41.19-2.67-1.47-5.6-5.89-10.16-9.44-13.83a.5.5,0,0,1,.69-.73l7,6a5.93,5.93,0,0,0,2,1.3,1.68,1.68,0,0,0,1.81-.42c.53-.72,0-1.88-.22-2.35a18.38,18.38,0,0,0-5-5.39,92.42,92.42,0,0,0-11.21-8.12.5.5,0,0,1-.24-.42v-2.54a47.44,47.44,0,0,1-5.35-1.27,15.25,15.25,0,0,1-3.52-1.39,16.63,16.63,0,0,1-3.34-2.81c-2.88-2.93-11.61-15.62-16.55-22.93l-.17-.26a.5.5,0,0,1,.15-.71,82.05,82.05,0,0,0,11.26-7.86,107,107,0,0,1-13.47-21.43l-22.3,21.89a7.33,7.33,0,0,0-1.41,8.63A95.75,95.75,0,0,0,81,203.23c3.12,3.77,9.84,9.6,15.76,14.75,5.59,4.86,10.42,9.05,11.53,10.86L109,230a30.79,30.79,0,0,0,5.84,7.52C118.34,241,121.62,247.81,122,248.55Z"/><path class="cls-3" d="M135.83,246.08a.5.5,0,0,1-.46-.31,45.11,45.11,0,0,0-9.2-13.94.5.5,0,0,1,.72-.7,46.13,46.13,0,0,1,9.41,14.25.5.5,0,0,1-.27.65Z"/><path class="cls-7" d="M160.69,191.14l-1.22,0a5.89,5.89,0,0,1-.89-.1,5.14,5.14,0,0,1-1.59-.47,2.28,2.28,0,0,1-1.17-1.41,6,6,0,0,1-.13-2,2.24,2.24,0,0,1,.27-1,2,2,0,0,1,1-.88,6,6,0,0,1,.88-.27,6.75,6.75,0,0,1,1.59-.16h1.25c.44,0,.88,0,1.32.11a7.29,7.29,0,0,1,1.74.41,2.13,2.13,0,0,1,1.06.75,1.11,1.11,0,0,1,.17.89v.08c-.05.31-.1.63-.16.94a4.06,4.06,0,0,1-.5,1.29,3.5,3.5,0,0,1-1.7,1.53,4,4,0,0,1-1,.27,6.7,6.7,0,0,1-1,.06m13.46,0c-.32,0-.63,0-.94,0a3.52,3.52,0,0,1-2.41-1.19,4.21,4.21,0,0,1-.83-1.46,5,5,0,0,1-.26-1.14c0-.18,0-.36,0-.54a1.19,1.19,0,0,1,.64-1.13,3.82,3.82,0,0,1,1.35-.53,8.39,8.39,0,0,1,1.33-.21l1.84-.13v0h.9c.36,0,.71.09,1.06.14a3.3,3.3,0,0,1,1,.32,1.89,1.89,0,0,1,1,1,2.53,2.53,0,0,1,.17.76,12,12,0,0,1,0,1.43,2.41,2.41,0,0,1-.79,1.73,2.61,2.61,0,0,1-1,.55c-.34.1-.68.18-1,.25a3.64,3.64,0,0,1-.44.06c-.51,0-1,.08-1.54.08m-6.65-19,.91,0c.38,0,.76-.09,1.14-.14l.69-.12.8-.19.83-.23.61-.18.74-.19.59-.13.36-.06c.22,0,.45-.05.67-.06.46,0,.91,0,1.37,0h.08a4.22,4.22,0,0,1,1.59.34,4.69,4.69,0,0,1,1.81,1.37,6.82,6.82,0,0,1,1.09,1.82c.2.5.4,1,.56,1.52s.23.9.33,1.35.17.88.25,1.32c0,.2,0,.4.07.6l.14,1.17v0c0,.41.05.81.06,1.22,0,1.1,0,2.2,0,3.3,0,.39,0,.79-.05,1.18s0,.49-.06.73l0,0-.21-.42c-.23-.45-.44-.9-.69-1.34a1,1,0,0,0-.62-.41l-.91-.25-.85-.18-.66-.14-.38-.06-.44-.06-.82-.1h0c-.6,0-1.2-.07-1.79-.07l-1.27,0a11.32,11.32,0,0,0-1.3.19,8.93,8.93,0,0,0-2.31.77,1.61,1.61,0,0,1-.67.18H169l-.71-.13-.41-.07a3.93,3.93,0,0,0-.44,0h-.06a4.83,4.83,0,0,0-1,.14c-.24.05-.49.08-.74.11h-.09a2,2,0,0,1-.73-.22c-.41-.17-.82-.35-1.23-.49a6.51,6.51,0,0,0-.94-.23,8,8,0,0,0-1.13-.16c-.8,0-1.59,0-2.39,0h-.33a8.71,8.71,0,0,0-1.1.1c-.4.05-.8.12-1.2.19s-.79.14-1.18.22-.73.21-1.1.29a1.11,1.11,0,0,0-.74.49,7.13,7.13,0,0,0-.35.67l-.48,1-.08.07,0-.12c0-.87,0-1.74-.06-2.62,0-.48,0-1,0-1.43s0-.81.06-1.22.06-.8.1-1.2.1-.89.16-1.34.13-.81.21-1.21.18-.92.32-1.37c.18-.6.39-1.2.6-1.79a7.41,7.41,0,0,1,.92-1.73,4.74,4.74,0,0,1,1.84-1.62,3.05,3.05,0,0,1,1.2-.34c.42,0,.85,0,1.27,0h.21a7.79,7.79,0,0,1,1,.1c.31,0,.61.11.91.19l1.62.43c.36.1.72.21,1.08.3s.63.12,1,.17.73.1,1.1.14l.41,0h1.07m-1.27-11.25-1,.19c-.41.09-.83.17-1.23.28s-.86.25-1.28.4-1,.36-1.46.57a14.86,14.86,0,0,0-2.07,1.1,14.26,14.26,0,0,0-1.91,1.43,15.44,15.44,0,0,0-2.4,2.7,16.66,16.66,0,0,0-1.37,2.36c-.23.5-.44,1-.64,1.52s-.32.89-.46,1.34-.19.63-.27.94c-.12.47-.24.94-.35,1.42s-.15.76-.21,1.14-.11.72-.16,1.08-.08.63-.1.94-.08.91-.1,1.36,0,1.09-.05,1.64c0,.32,0,.64,0,1,0,.49,0,1,.06,1.48s0,.7.06,1.05v.05c0,.4.1.8.14,1.2,0,.22,0,.44.06.66s0,.29.06.44c0,.33.1.66.15,1,0,.18,0,.35.06.53,0,.35.1.7.15,1.05a.45.45,0,0,0,.35.4h0a.46.46,0,0,0,.35-.24l1.13-2.25a2.84,2.84,0,0,1,.26-.46.22.22,0,0,1,.18-.09.24.24,0,0,1,.22.15,1,1,0,0,1,.07.3c0,.34,0,.68.05,1a3.11,3.11,0,0,0,.06.51,3.78,3.78,0,0,0,.51,1.26,3.2,3.2,0,0,0,1.36,1.14,5.2,5.2,0,0,0,1.55.44c.37,0,.73.12,1.1.14.78,0,1.55,0,2.33,0h0a4.4,4.4,0,0,0,1.36-.22,3.69,3.69,0,0,0,1.23-.66,4.69,4.69,0,0,0,1.09-1.37,11.43,11.43,0,0,0,.89-2.31,4.29,4.29,0,0,1,.48-1.11.86.86,0,0,1,.72-.41.89.89,0,0,1,.5.16,1.39,1.39,0,0,1,.48.69c.14.38.24.77.38,1.15s.36,1,.58,1.49a5.19,5.19,0,0,0,.86,1.33,3.48,3.48,0,0,0,1.45,1,4,4,0,0,0,1.34.27h.83c.67,0,1.35,0,2-.06a11.44,11.44,0,0,0,1.17-.15,4.64,4.64,0,0,0,1.31-.42,3.1,3.1,0,0,0,1.42-1.34,4.25,4.25,0,0,0,.46-1.88,6.88,6.88,0,0,1,.05-.8c0-.26.1-.31.26-.31h0c.19,0,.24.15.3.28q.63,1.24,1.25,2.49a.41.41,0,0,0,.37.25h0a.43.43,0,0,0,.36-.23,2.35,2.35,0,0,0,.2-.85c0-.21,0-.43.06-.65s0-.33.06-.49c0-.33.1-.67.14-1s.07-.64.1-1,.07-.71.1-1.07.07-.91.11-1.36c0-.26,0-.53.05-.79,0-.6,0-1.2,0-1.8,0-.25,0-.5,0-.75,0-.56,0-1.13-.06-1.69,0-.33,0-.66-.06-1v-.05l-.14-1c0-.28-.07-.57-.12-.85s-.13-.63-.2-.95-.17-.8-.28-1.19-.28-1-.46-1.44c-.24-.64-.49-1.28-.78-1.89s-.51-1-.78-1.44a11.83,11.83,0,0,0-1.53-2.07,14.32,14.32,0,0,0-1.26-1.25,17.86,17.86,0,0,0-1.54-1.13,9.41,9.41,0,0,0-2.11-1L174,163v0l1.18-.43.89-.31.12-.15-.11-.15-.87-.22-.6-.12-.77-.14-.55-.06c-.3,0-.59-.09-.89-.09l-1.33,0a12.29,12.29,0,0,0-1.83.11l-.87.12-.33.06-.8.19c-.23.06-.46.11-.68.18l-1.11.38.06-.11.61-.73c.1-.12.2-.25.29-.38V161l-.15-.07"/><path class="cls-7" d="M174.26,179.69l-.62.06c-.29,0-.58.06-.86.11s-.61.12-.9.21a4.81,4.81,0,0,0-1.75.85,1.14,1.14,0,0,0-.52,1,1,1,0,0,0,1,.95h.11a4.69,4.69,0,0,0,.86-.14c.36-.07.71-.12,1.07-.17s.57-.08.86-.1c.44,0,.89-.05,1.33-.05h.15c.49,0,1,.06,1.46.09a4.66,4.66,0,0,1,.55.06c.38.08.77.16,1.15.25a7.46,7.46,0,0,1,.88.28c.36.14.71.32,1.07.47l.2,0v-.19l0-.06a3.68,3.68,0,0,0-.93-.87,11.67,11.67,0,0,0-2.78-1.37l-.06-.05.06-.05.86-.15c.08,0,.15,0,.17-.11a.16.16,0,0,0-.1-.2l-.39-.18a6.07,6.07,0,0,0-1.78-.49c-.32,0-.66-.05-1-.08"/><path class="cls-7" d="M160.22,179.69c-.18,0-.4,0-.61.05a6.12,6.12,0,0,0-1.27.21,5.38,5.38,0,0,0-1.26.49l-.12.18c0,.08.09.11.18.13.29,0,.58.1.88.15l.06.06-.05,0c-.47.19-.94.37-1.41.58a7.59,7.59,0,0,0-1.58.94,3.23,3.23,0,0,0-.76.77l0,.22.2,0,.41-.19a9.76,9.76,0,0,1,2.39-.76,10.7,10.7,0,0,1,1.13-.16c.34,0,.69-.05,1-.05s.88,0,1.33,0l.8.06.46.06.79.14c.24,0,.48.07.71.12a1.38,1.38,0,0,0,.33,0,1.26,1.26,0,0,0,.42-.07,1,1,0,0,0,.41-1.55,2.93,2.93,0,0,0-.86-.67,5.51,5.51,0,0,0-1.39-.53c-.39-.09-.78-.18-1.17-.24s-.66-.05-1-.08"/><path class="cls-2" d="M154.32,111.35c.38,6.73,2.3,14.3-2.09,19.72a2.8,2.8,0,0,0,.16,3.76c2.15,2.14,6.41,5.1,13.44,5.1s11.22-3,13.39-5.13a2.81,2.81,0,0,0,.06-3.85c-4.54-5.18-3-12.79-2.92-19.5"/><path class="cls-3" d="M165.84,140.44c-7,0-11.38-2.85-13.79-5.25a3.3,3.3,0,0,1-.2-4.43c3.41-4.21,2.85-9.89,2.31-15.38-.13-1.32-.26-2.68-.34-4a.5.5,0,1,1,1-.06c.07,1.29.21,2.64.34,4,.56,5.69,1.14,11.58-2.53,16.11a2.3,2.3,0,0,0,.13,3.09c2.28,2.26,6.4,5,13.09,5s10.75-2.71,13-5a2.32,2.32,0,0,0,0-3.17c-3.79-4.33-3.49-10.2-3.2-15.87.07-1.31.14-2.67.15-4a.5.5,0,0,1,.5-.5h0a.5.5,0,0,1,.5.5c0,1.31-.08,2.68-.15,4-.28,5.47-.57,11.14,3,15.16a3.33,3.33,0,0,1-.08,4.54C177.16,137.57,172.82,140.44,165.84,140.44Z"/><path class="cls-4" d="M166.89,127.36a19.38,19.38,0,0,0-4.74,6.36,42.28,42.28,0,0,1-1.93,4.67.55.55,0,0,1-.64.35,10,10,0,0,1-7.23-4.12,3.46,3.46,0,0,1-.72-1.67c-.11-1.28.94-2.33,1.68-3.38a8.34,8.34,0,0,0,1.36-3.19c.36-1.86.09-3.82.65-5.63a31.49,31.49,0,0,0,10.26,1.55c1.22,0,2.43-.13,3.64-.27a32.66,32.66,0,0,1,3.68-.56c.29,0,.84.06.85.48s-.77.72-1,.91c-1,.67-1.91,1.34-2.83,2A38.27,38.27,0,0,0,166.89,127.36Z"/><path class="cls-3" d="M165.84,140.44c-7,0-11.38-2.85-13.79-5.25a3.3,3.3,0,0,1-.2-4.43c3.41-4.21,2.85-9.89,2.31-15.38-.13-1.32-.26-2.68-.34-4a.5.5,0,1,1,1-.06c.07,1.29.21,2.64.34,4,.56,5.69,1.14,11.58-2.53,16.11a2.3,2.3,0,0,0,.13,3.09c2.28,2.26,6.4,5,13.09,5s10.75-2.71,13-5a2.32,2.32,0,0,0,0-3.17c-3.79-4.33-3.49-10.2-3.2-15.87.07-1.31.14-2.67.15-4a.5.5,0,0,1,.5-.5h0a.5.5,0,0,1,.5.5c0,1.31-.08,2.68-.15,4-.28,5.47-.57,11.14,3,15.16a3.33,3.33,0,0,1-.08,4.54C177.16,137.57,172.82,140.44,165.84,140.44Z"/><path class="cls-2" d="M136.45,78.64,141.08,50l45-8.29,7,25.55-.49,13.09s6.77.62,6.77,8.61-8.65,8.29-8.65,8.29-.23,25.29-25.25,25.29S139,97.78,139,97.78s-8.58-.69-8.58-9.57S136.45,78.64,136.45,78.64Z"/><path class="cls-3" d="M165.45,123.07c-23.41,0-26.56-21.58-26.9-24.85-1.79-.29-8.62-1.94-8.62-10,0-7.89,4.69-9.64,6.08-10L140.59,50a.5.5,0,0,1,.4-.41l45-8.29a.5.5,0,0,1,.57.36l7,25.55,0,.15L193.1,80c1.6.33,6.75,1.95,6.75,9,0,7.27-6.81,8.54-8.67,8.75C191,101.2,188.8,123.07,165.45,123.07ZM141.52,50.46l-4.58,28.26a.5.5,0,0,1-.43.42c-.23,0-5.58.78-5.58,9.07s7.79,9,8.12,9.07a.5.5,0,0,1,.46.47c.06,1,1.68,24.32,25.94,24.32,10.16,0,17.41-4.15,21.55-12.34a31.73,31.73,0,0,0,3.2-12.45.5.5,0,0,1,.48-.49c.33,0,8.16-.38,8.16-7.79s-6.06-8.09-6.31-8.12a.5.5,0,0,1-.45-.52l.48-13-6.86-25Zm-5.07,28.18h0Z"/><path class="cls-4" d="M132.22,91.43c1.42,2,3.9,2.93,6.27,3.54a2.85,2.85,0,0,1,1.12.46,2.9,2.9,0,0,1,.78,1.73A32.85,32.85,0,0,0,165,122.3c-3.41-.67-7.06.08-10.31-1.14a17.83,17.83,0,0,1-3.57-2,30.44,30.44,0,0,1-5.51-4.36,22.1,22.1,0,0,1-4.45-8,40,40,0,0,1-1.8-7.81,1.42,1.42,0,0,0-.25-.77,1.46,1.46,0,0,0-.74-.37,12,12,0,0,1-6.13-3.94,8.77,8.77,0,0,1-1.58-3.16c-.17-.67-.7-2.83.07-3.25a14.16,14.16,0,0,1,.52,2A7.38,7.38,0,0,0,132.22,91.43Z"/><path class="cls-3" d="M165.45,123.07c-23.41,0-26.56-21.58-26.9-24.85-1.79-.29-8.62-1.94-8.62-10,0-7.89,4.69-9.64,6.08-10L140.59,50a.5.5,0,0,1,.4-.41l45-8.29a.5.5,0,0,1,.57.36l7,25.55,0,.15L193.1,80c1.6.33,6.75,1.95,6.75,9,0,7.27-6.81,8.54-8.67,8.75C191,101.2,188.8,123.07,165.45,123.07ZM141.52,50.46l-4.58,28.26a.5.5,0,0,1-.43.42c-.23,0-5.58.78-5.58,9.07s7.79,9,8.12,9.07a.5.5,0,0,1,.46.47c.06,1,1.68,24.32,25.94,24.32,10.16,0,17.41-4.15,21.55-12.34a31.73,31.73,0,0,0,3.2-12.45.5.5,0,0,1,.48-.49c.33,0,8.16-.38,8.16-7.79s-6.06-8.09-6.31-8.12a.5.5,0,0,1-.45-.52l.48-13-6.86-25Zm-5.07,28.18h0Z"/><path class="cls-4" d="M145.43,57.49a1.74,1.74,0,0,1,.75-.54,1.82,1.82,0,0,1,.9.06,78.18,78.18,0,0,0,15,2,35,35,0,0,0,6.3-.22,28.63,28.63,0,0,0,6.23-1.69,39.1,39.1,0,0,0,9.85-5.55,51.68,51.68,0,0,1,4.42,5.92,14.48,14.48,0,0,0-3.38-11.75,1.84,1.84,0,0,0-1.1-.73,2.09,2.09,0,0,0-1,.27c-4.22,1.87-9,1.8-13.58,2.43-4.2.58-8.3,1.78-12.5,2.35a42.48,42.48,0,0,1-7.55.35,6.09,6.09,0,0,0-2.77.28,5.4,5.4,0,0,0-1.47,1.11c-2.58,2.48-5,5.46-5.36,9a2.56,2.56,0,0,0,.08,1.08,2.63,2.63,0,0,1,.33,1.63c-.08.39-.38.83.07,1.09.8-1.13,1.31-2.52,2.09-3.69A25.66,25.66,0,0,1,145.43,57.49Z"/><path class="cls-3" d="M136.05,91.25a.5.5,0,0,1-.44-.26A6.18,6.18,0,0,1,135,86.7a.5.5,0,1,1,1,.22,5.17,5.17,0,0,0,.52,3.59.5.5,0,0,1-.19.68Z"/><path class="cls-3" d="M193.39,92.06a.5.5,0,0,1-.31-.89,2.52,2.52,0,0,0,.83-2.32,4.37,4.37,0,0,0-1.31-2.4.5.5,0,0,1,.71-.71,5.35,5.35,0,0,1,1.6,3A3.53,3.53,0,0,1,193.7,92,.5.5,0,0,1,193.39,92.06Z"/><path class="cls-3" d="M165.36,97.44a.5.5,0,0,1,0-1c1.12,0,2.37-.09,3-.89a3.52,3.52,0,0,0,.3-2.46A115.2,115.2,0,0,0,166.4,81.4a.5.5,0,0,1,1-.22A116.2,116.2,0,0,1,169.62,93a4.34,4.34,0,0,1-.5,3.18c-.83,1.11-2.3,1.28-3.76,1.3Z"/><path class="cls-3" d="M181.12,79.95c0,1.55-.1,2.8-1.2,2.8s-1.2-1.26-1.2-2.8.09-2.8,1.2-2.8S181.12,78.4,181.12,79.95Z"/><path class="cls-3" d="M179.92,83.25c-1.7,0-1.7-2-1.7-3.3s0-3.3,1.7-3.3,1.7,2,1.7,3.3S181.62,83.25,179.92,83.25Zm0-5.61c-.47,0-.7.36-.7,2.3s.25,2.3.7,2.3.7-.37.7-2.3S180.39,77.64,179.92,77.64Z"/><path class="cls-3" d="M152,79.95c0,1.55-.1,2.8-1.2,2.8s-1.2-1.26-1.2-2.8.09-2.8,1.2-2.8S152,78.4,152,79.95Z"/><path class="cls-3" d="M150.83,83.25c-1.7,0-1.7-2-1.7-3.3s0-3.3,1.7-3.3,1.7,2,1.7,3.3S152.54,83.25,150.83,83.25Zm0-5.61c-.47,0-.7.36-.7,2.3s.25,2.3.7,2.3.7-.37.7-2.3S151.3,77.64,150.83,77.64Z"/><path class="cls-13" d="M151.77,78.85c0,.74,0,1.35-.58,1.35s-.58-.6-.58-1.35,0-1.35.58-1.35S151.77,78.1,151.77,78.85Z"/><path class="cls-13" d="M180.85,78.85c0,.74,0,1.35-.58,1.35s-.58-.6-.58-1.35,0-1.35.58-1.35S180.85,78.1,180.85,78.85Z"/><path class="cls-3" d="M166.18,107.17a27.82,27.82,0,0,1-10-1.84.5.5,0,1,1,.36-.93,27.06,27.06,0,0,0,19.6-.12.5.5,0,1,1,.37.93A27.85,27.85,0,0,1,166.18,107.17Z"/><path class="cls-3" d="M148.86,65.95a.5.5,0,0,1-.29-.91,4.64,4.64,0,0,1,5.18-.06.5.5,0,0,1-.56.83,3.61,3.61,0,0,0-4,0A.5.5,0,0,1,148.86,65.95Z"/><path class="cls-3" d="M177.62,65.95a.5.5,0,0,1-.29-.91,4.65,4.65,0,0,1,5.18-.06.5.5,0,1,1-.56.83,3.62,3.62,0,0,0-4,0A.5.5,0,0,1,177.62,65.95Z"/><path class="cls-11" d="M137.8,83.56s-13-26.43,3.43-41.74c14.28-30.51,71.05-12.53,50.49,40.92,1.05-23-7.13-35.35-7.13-35.35s-18.87,12.68-38.33,6.4C137.53,62.34,137.8,83.56,137.8,83.56Z"/><path class="cls-3" d="M137.8,84.06a.5.5,0,0,1-.45-.28c-.13-.27-12.89-26.87,3.46-42.25C147.95,26.42,164.74,23.79,177,29A31.68,31.68,0,0,1,194.4,47.6c3.61,10,2.84,22.16-2.22,35.32a.5.5,0,0,1-1-.2c.92-20.28-5.42-32.3-6.79-34.64-3,1.83-20.31,11.82-38,6.27-8.27,8.45-8.1,29-8.1,29.2a.5.5,0,0,1-.38.49Zm27.14-56.51c-9.2,0-18.5,4.32-23.26,14.49l-.11.15c-13.25,12.38-6.83,32.49-4.23,39,.2-5.82,1.43-20.78,8.57-27.79a.5.5,0,0,1,.5-.12c19,6.13,37.71-6.21,37.89-6.34a.5.5,0,0,1,.7.14c.08.12,7.52,11.58,7.3,32.55C201.76,52,190,35.61,176.56,29.91A29.87,29.87,0,0,0,164.94,27.55Z"/><path class="cls-4" d="M153.3,29.72a27.66,27.66,0,0,1,9.46-2.14,26.93,26.93,0,0,1,10.41,1,50.79,50.79,0,0,1,9.12,3.86,20.65,20.65,0,0,1,6.4,5.78,40,40,0,0,1,4.72,8.75,14,14,0,0,0-4.25-6A39.64,39.64,0,0,0,170,31.23c-4.8-.91-10.38-1.17-15,.71a32.33,32.33,0,0,0-6.82,4.28q-1.55,1.15-3.07,2.35l-1.69,1.36c-.27.22-.91,1-1.3.93-1-.17,1-2.37,1.33-2.78a35.53,35.53,0,0,1,2.9-3.37A23.43,23.43,0,0,1,153.3,29.72Z"/><path class="cls-3" d="M137.8,84.06a.5.5,0,0,1-.45-.28c-.13-.27-12.89-26.87,3.46-42.25C147.95,26.42,164.74,23.79,177,29A31.68,31.68,0,0,1,194.4,47.6c3.61,10,2.84,22.16-2.22,35.32a.5.5,0,0,1-1-.2c.92-20.28-5.42-32.3-6.79-34.64-3,1.83-20.31,11.82-38,6.27-8.27,8.45-8.1,29-8.1,29.2a.5.5,0,0,1-.38.49Zm27.14-56.51c-9.2,0-18.5,4.32-23.26,14.49l-.11.15c-13.25,12.38-6.83,32.49-4.23,39,.2-5.82,1.43-20.78,8.57-27.79a.5.5,0,0,1,.5-.12c19,6.13,37.71-6.21,37.89-6.34a.5.5,0,0,1,.7.14c.08.12,7.52,11.58,7.3,32.55C201.76,52,190,35.61,176.56,29.91A29.87,29.87,0,0,0,164.94,27.55Z"/><polyline class="cls-26" points="301 231.59 245.64 229.72 249.42 164.05 304.78 165.92 301 231.59"/><path class="cls-3" d="M301,232.09h0l-55.36-1.87a.5.5,0,0,1-.48-.53L248.92,164a.5.5,0,0,1,.52-.47l55.36,1.87a.5.5,0,0,1,.48.53l-3.78,65.67a.5.5,0,0,1-.5.47m-54.83-2.86,54.36,1.84,3.72-64.67-54.36-1.84-3.72,64.67"/><polyline class="cls-26" points="301 232.59 245.64 230.72 249.42 165.05 304.78 166.92 301 232.59"/><path class="cls-3" d="M301,233.09h0l-55.36-1.87a.5.5,0,0,1-.48-.53L248.92,165a.49.49,0,0,1,.52-.47l55.36,1.87a.5.5,0,0,1,.48.53l-3.78,65.67a.5.5,0,0,1-.5.47m-54.83-2.86,54.36,1.84,3.72-64.67-54.36-1.84-3.72,64.67"/><path class="cls-27" d="M286.47,192.24c-1.24,0-2.27,1.15-1.69,3,.19.61.58,1.14.74,1.76.28,1.12-.28,2.27-.37,3.43-.14,1.81.85,3.5,1.23,5.28.22,1,.23,2.13.37,3.18a18.11,18.11,0,0,0,.94,3.59,34.72,34.72,0,0,0,13,16.88l.43-7.51a11.73,11.73,0,0,0-.86-1.45,69.74,69.74,0,0,1-8.85-19.28c-.73-2.57-1.32-5.45-2.9-7.67a2.54,2.54,0,0,0-2-1.18"/><path class="cls-8" d="M301.12,221.83l-.43,7.51.22.15a20.36,20.36,0,0,1,.39-4.89,6.24,6.24,0,0,0,.19-1.33,3.53,3.53,0,0,0-.37-1.44"/><path class="cls-28" d="M251.34,166.75v.5l0,.5c6.26.14,38.18.86,51.6,1.63h0a.5.5,0,0,0,0-1c-13.44-.78-45.37-1.5-51.64-1.64l-.07.5v-.5"/><path class="cls-2" d="M284,160.15a1,1,0,0,1-.94-1.21,4.5,4.5,0,0,0,0-2.71,5.37,5.37,0,0,0-4.17-3.6c-3.51-.66-6.72,1.71-6.9,4.84a4.41,4.41,0,0,0,.07,1.09,1,1,0,0,1-1.08,1.15l-5.48-.19-.6,10.4,24,.81.6-10.4Zm-6.52-.1a2.44,2.44,0,0,1-2.48-2.47,2.58,2.58,0,0,1,2.75-2.3,2.44,2.44,0,0,1,2.48,2.47A2.58,2.58,0,0,1,277.44,160.05Z"/><path class="cls-3" d="M288.85,171.24h0l-24-.81a.5.5,0,0,1-.48-.53l.6-10.4a.49.49,0,0,1,.52-.47l5.48.19a.58.58,0,0,0,.47-.19.43.43,0,0,0,.1-.36,4.91,4.91,0,0,1-.08-1.21,5.59,5.59,0,0,1,2.19-4.05,6.62,6.62,0,0,1,5.3-1.25,5.89,5.89,0,0,1,4.56,3.95,5,5,0,0,1,0,3,.38.38,0,0,0,.05.35.54.54,0,0,0,.43.21l5.49.19a.5.5,0,0,1,.48.53l-.6,10.4A.5.5,0,0,1,288.85,171.24Zm-23.47-1.79,23,.78.54-9.4-5-.17a1.53,1.53,0,0,1-1.21-.63,1.38,1.38,0,0,1-.19-1.22,4,4,0,0,0,0-2.41,4.88,4.88,0,0,0-3.79-3.25,5.61,5.61,0,0,0-4.5,1.06,4.53,4.53,0,0,0-1.81,3.32,3.93,3.93,0,0,0,.06,1,1.43,1.43,0,0,1-.32,1.2,1.53,1.53,0,0,1-1.26.54l-5-.17Zm12.16-8.89h-.12a3.18,3.18,0,0,1-2.24-1,2.71,2.71,0,0,1-.72-2,3.07,3.07,0,0,1,3.27-2.77,3.18,3.18,0,0,1,2.24,1,2.71,2.71,0,0,1,.72,2A3.08,3.08,0,0,1,277.54,160.55Zm-.08-1a2.1,2.1,0,0,0,2.24-1.82,1.72,1.72,0,0,0-.46-1.26,2.18,2.18,0,0,0-1.54-.68,2.09,2.09,0,0,0-2.24,1.82,1.72,1.72,0,0,0,.46,1.26A2.18,2.18,0,0,0,277.46,159.55Z"/><line class="cls-2" x1="265.27" y1="162.55" x2="289.27" y2="163.36"/><path class="cls-3" d="M289.27,163.86h0l-24-.81a.5.5,0,0,1-.48-.52.51.51,0,0,1,.52-.48l24,.81a.5.5,0,0,1,0,1Z"/><path class="cls-3" d="M256.7,135.73h-.06a44.61,44.61,0,0,0-9-.11.5.5,0,0,1-.09-1,45.4,45.4,0,0,1,9.15.11.5.5,0,0,1-.06,1Z"/><path class="cls-3" d="M286.73,135.09a.5.5,0,0,1,0-1c2-.06,4-.17,6-.32a.49.49,0,0,1,.54.46.5.5,0,0,1-.46.54c-2,.15-4.06.26-6.09.32Z"/><path class="cls-2" d="M328.54,232.48c-.17-2.79-2.12-5.09-3.61-7.46-2.74-4.35-4.08-9.4-5.7-14.28a26,26,0,0,0-1.84-4.49,25.6,25.6,0,0,0-4.7-5.71,23.23,23.23,0,0,0-3.74-3.12c-2.14-1.35-3.95-2.93-6.48-3.91l-.3,3-5.4-4.27a7.39,7.39,0,0,0-2.5-1.49,2.52,2.52,0,0,0-2.67.7c-.17.22-.3.49-.55.6a1,1,0,0,1-.84-.14,15.81,15.81,0,0,0-1.87-1.13,1.55,1.55,0,0,0-1.93.5,2,2,0,0,0,0,1.33,17.81,17.81,0,0,0,1.23,3.59,1.35,1.35,0,0,1,.16,1.19c-.12.22-.37.35-.55.53a2.21,2.21,0,0,0-.5,1.65,8.51,8.51,0,0,0,2.59,6c-.43,4.26,1.85,8.39,4.87,11.42s6.74,5.24,10.17,7.79a20.87,20.87,0,0,1,2.81,2.42,25.41,25.41,0,0,1,3.65,5.65"/><path class="cls-3" d="M296.53,207.74a.5.5,0,0,1-.38-.18l-.86-1c-5.15-5.94-10.32-12.39-9.61-15.18a1.7,1.7,0,0,1,1.1-1.21c2.87-1.08,8.13,5,12.85,10.7.76.93,1.37,1.67,1.66,2a.5.5,0,1,1-.71.7c-.33-.33-.91-1-1.72-2-2.78-3.39-9.28-11.32-11.72-10.39a.7.7,0,0,0-.48.52c-.67,2.67,6.91,11.41,9.4,14.28l.87,1a.5.5,0,0,1-.38.82Z"/><path class="cls-3" d="M305.23,201.23a.5.5,0,0,1-.36-.15c-.44-.46-.95-1-1.51-1.62-2.93-3.2-7.84-8.56-10.57-8.17a1.94,1.94,0,0,0-1.45,1.22.5.5,0,1,1-.9-.44,2.9,2.9,0,0,1,2.21-1.76c3.25-.46,8,4.71,11.44,8.49.55.6,1.06,1.15,1.49,1.61a.5.5,0,0,1-.36.85Z"/><path class="cls-3" d="M295.19,212.41a.5.5,0,0,1-.32-.12c-2.4-2-9.58-10.14-8.69-14a2.49,2.49,0,0,1,2-1.88.5.5,0,1,1,.25,1,1.51,1.51,0,0,0-1.26,1.13c-.73,3.15,6,11,8.37,13a.5.5,0,0,1-.32.88Z"/><path class="cls-3" d="M311,233.26a.5.5,0,0,1-.43-.25c-2.82-4.87-7.07-8.15-11.17-11.33-5.85-4.52-11.37-8.79-10.83-16.81a.5.5,0,0,1,1,.07c-.5,7.5,4.57,11.42,10.44,16,4.18,3.23,8.5,6.57,11.42,11.62a.5.5,0,0,1-.18.68Z"/><path class="cls-3" d="M325.31,225.87a.5.5,0,0,1-.4-.21c-2.26-3.11-3.65-7.39-5-11.52s-2.58-8-4.52-10.14c-2.26-2.54-9.25-9.32-12.84-9.94v3a.5.5,0,1,1-1,0v-3.57a.5.5,0,0,1,.5-.5c4.07,0,12.15,8.14,14.09,10.32,2.08,2.34,3.37,6.3,4.73,10.5s2.68,8.26,4.85,11.24a.5.5,0,0,1-.4.79Z"/><path class="cls-3" d="M290.12,82.39c0,1.55-.1,2.8-1.2,2.8s-1.2-1.26-1.2-2.8.09-2.8,1.2-2.8S290.12,80.84,290.12,82.39Z"/><path class="cls-3" d="M288.91,85.69c-1.7,0-1.7-2-1.7-3.3s0-3.3,1.7-3.3,1.7,2,1.7,3.3S290.62,85.69,288.91,85.69Zm0-5.61c-.47,0-.7.36-.7,2.3s.25,2.3.7,2.3.7-.37.7-2.3S289.38,80.08,288.91,80.08Z"/><path class="cls-13" d="M289.85,81.29c0,.74,0,1.35-.58,1.35s-.58-.6-.58-1.35,0-1.35.58-1.35S289.85,80.55,289.85,81.29Z"/><path class="cls-4" d="M284.46,36.37a40.75,40.75,0,0,1,15.22,10.29.78.78,0,0,0,1.33-.78c-2-5.75-9.51-11.13-13.65-12.84a33.08,33.08,0,0,0-17-2.06.78.78,0,0,0,0,1.55A62.42,62.42,0,0,1,284.46,36.37Z"/><path class="cls-16" d="M308,135.76a.51.51,0,0,0-.39.83l.69.83c.23.26.5.58.82.93s.62.78,1,1.2.74.92,1.15,1.43.84,1,1.26,1.63.88,1.15,1.31,1.77.89,1.22,1.31,1.85l1.28,1.88c.42.62.8,1.25,1.22,1.84l2.14,3.29,1.53,2.34.59.88h0a.51.51,0,0,0,.42.23h.09a.51.51,0,0,0,.41-.59,21.36,21.36,0,0,0-1.19-3.82c-.21-.56-.48-1.15-.77-1.77s-.63-1.25-1-1.92-.75-1.32-1.17-2-.85-1.34-1.33-2a36.23,36.23,0,0,0-2.95-3.64c-.5-.56-1-1.07-1.51-1.54s-1-.91-1.45-1.3-.9-.73-1.28-1-.74-.5-1-.7l-.91-.59a.51.51,0,0,0-.27-.08"/><path class="cls-16" d="M185.81,135.73a.51.51,0,0,0-.23,1l1,.49c.32.15.7.34,1.15.53s.88.49,1.39.74a17.91,17.91,0,0,1,1.6.91c.56.35,1.17.67,1.75,1.1s1.22.78,1.8,1.27,1.22.89,1.78,1.4,1.15,1,1.7,1.5,1.05,1,1.58,1.53c1,1,1.92,2,2.67,2.89s1.37,1.63,1.81,2.16l.66.83v0a.51.51,0,0,0,.4.19H205a.51.51,0,0,0,.37-.62,10,10,0,0,0-.36-1.09,18.15,18.15,0,0,0-1.3-2.68c-.29-.55-.68-1.09-1.07-1.68s-.87-1.17-1.36-1.77a21.53,21.53,0,0,0-1.63-1.74l-.88-.86-1-.79a22.46,22.46,0,0,0-2-1.47c-.66-.48-1.38-.84-2.05-1.23a21.77,21.77,0,0,0-2-1,14.31,14.31,0,0,0-1.89-.7c-.59-.19-1.15-.37-1.62-.48s-.9-.17-1.24-.24l-1.09-.18h-.08"/><path class="cls-16" d="M146.08,132.53a16.76,16.76,0,0,0-1.94.12,18.76,18.76,0,0,0-2.73.53,19,19,0,0,0-4.78,2,13.15,13.15,0,0,0-1.42,1l-.49.41a.52.52,0,0,0,.34.9h.11l.62-.16,1.57-.45,2.18-.64,2.49-.69c1.7-.44,3.4-.86,4.71-1.17l1.59-.39.61-.17h0a.52.52,0,0,0,0-1,11.57,11.57,0,0,0-2.36-.27h-.49"/></svg>