<svg width="183" height="124" viewBox="0 0 183 124" fill="none" xmlns="http://www.w3.org/2000/svg">
<path d="M67.7701 91.32H46.0601V96.35L67.7701 93.35V91.32Z" fill="#D0E4F1"/>
<path d="M141.69 1H124.69L59.6899 48.06L62.0399 51.3L76.9999 40.49V64.49H78.9999L80.4699 65.85L136.85 5H141.7L141.69 1ZM80.9999 59.35V38.58H100.26L80.9999 59.35ZM102.69 34.58H85.1299L102.65 21.89L102.69 34.58ZM106.69 31.64V20H117.51L106.69 31.64ZM120.05 16H110.82L120.05 9.31V16ZM124.05 12.9V6.38L126 5H131.36L124.05 12.9Z" stroke="#3F555A" stroke-linecap="round" stroke-linejoin="round"/>
<path d="M66.34 50.26H24.88V47.35C24.88 45.7587 25.5121 44.2326 26.6374 43.1074C27.7626 41.9821 29.2887 41.35 30.88 41.35H53.34C54.7291 41.3486 56.0757 41.8293 57.15 42.71L66.34 50.26Z" fill="#FFDF00" stroke="#3F555A" stroke-linecap="round" stroke-linejoin="round"/>
<path d="M90.43 72.88V85.31C90.43 86.9013 89.7979 88.4274 88.6726 89.5526C87.5474 90.6779 86.0213 91.31 84.43 91.31H30.88C29.2887 91.31 27.7626 90.6779 26.6374 89.5526C25.5121 88.4274 24.88 86.9013 24.88 85.31V69.74H89.54C90.1211 70.6843 90.4292 71.7712 90.43 72.88Z" fill="#FFDF00" stroke="#3F555A" stroke-linecap="round" stroke-linejoin="round"/>
<path d="M30.37 123.37C27.251 123.37 24.2598 122.131 22.0544 119.926C19.849 117.72 18.61 114.729 18.61 111.61C18.61 108.491 19.849 105.5 22.0544 103.294C24.2598 101.089 27.251 99.85 30.37 99.85H83C86.1189 99.85 89.1101 101.089 91.3156 103.294C93.521 105.5 94.76 108.491 94.76 111.61C94.76 114.729 93.521 117.72 91.3156 119.926C89.1101 122.131 86.1189 123.37 83 123.37H30.37Z" stroke="#3F555A" stroke-linecap="round" stroke-linejoin="round" stroke-dasharray="4.92 1.97"/>
<path d="M83 100.35H30.37C24.1513 100.35 19.11 105.391 19.11 111.61C19.11 117.829 24.1513 122.87 30.37 122.87H83C89.2187 122.87 94.26 117.829 94.26 111.61C94.26 105.391 89.2187 100.35 83 100.35Z" stroke="#3F555A" stroke-linecap="round" stroke-linejoin="round"/>
<path d="M30.37 119.87C28.1793 119.87 26.0783 119 24.5293 117.451C22.9802 115.902 22.11 113.801 22.11 111.61C22.11 109.419 22.9802 107.318 24.5293 105.769C26.0783 104.22 28.1793 103.35 30.37 103.35H83C85.1907 103.35 87.2916 104.22 88.8407 105.769C90.3897 107.318 91.26 109.419 91.26 111.61C91.26 113.801 90.3897 115.902 88.8407 117.451C87.2916 119 85.1907 119.87 83 119.87H30.37Z" fill="#D0E4F1" stroke="#3F555A" stroke-linecap="round" stroke-linejoin="round"/>
<path d="M1.34998 123.44H181.88" stroke="#3F555A" stroke-linecap="round" stroke-linejoin="round"/>
<path d="M30.58 115.24C32.5847 115.24 34.21 113.615 34.21 111.61C34.21 109.605 32.5847 107.98 30.58 107.98C28.5752 107.98 26.95 109.605 26.95 111.61C26.95 113.615 28.5752 115.24 30.58 115.24Z" stroke="#3F555A" stroke-linecap="round" stroke-linejoin="round"/>
<path d="M30.58 113.24C31.4802 113.24 32.21 112.51 32.21 111.61C32.21 110.71 31.4802 109.98 30.58 109.98C29.6797 109.98 28.95 110.71 28.95 111.61C28.95 112.51 29.6797 113.24 30.58 113.24Z" stroke="#3F555A" stroke-linecap="round" stroke-linejoin="round"/>
<path d="M47.98 115.24C49.9848 115.24 51.61 113.615 51.61 111.61C51.61 109.605 49.9848 107.98 47.98 107.98C45.9752 107.98 44.35 109.605 44.35 111.61C44.35 113.615 45.9752 115.24 47.98 115.24Z" stroke="#3F555A" stroke-linecap="round" stroke-linejoin="round"/>
<path d="M47.98 113.24C48.8802 113.24 49.61 112.51 49.61 111.61C49.61 110.71 48.8802 109.98 47.98 109.98C47.0798 109.98 46.35 110.71 46.35 111.61C46.35 112.51 47.0798 113.24 47.98 113.24Z" stroke="#3F555A" stroke-linecap="round" stroke-linejoin="round"/>
<path d="M65.38 115.24C67.3848 115.24 69.01 113.615 69.01 111.61C69.01 109.605 67.3848 107.98 65.38 107.98C63.3752 107.98 61.75 109.605 61.75 111.61C61.75 113.615 63.3752 115.24 65.38 115.24Z" stroke="#3F555A" stroke-linecap="round" stroke-linejoin="round"/>
<path d="M65.38 113.24C66.2802 113.24 67.01 112.51 67.01 111.61C67.01 110.71 66.2802 109.98 65.38 109.98C64.4798 109.98 63.75 110.71 63.75 111.61C63.75 112.51 64.4798 113.24 65.38 113.24Z" stroke="#3F555A" stroke-linecap="round" stroke-linejoin="round"/>
<path d="M82.78 115.24C84.7848 115.24 86.41 113.615 86.41 111.61C86.41 109.605 84.7848 107.98 82.78 107.98C80.7752 107.98 79.15 109.605 79.15 111.61C79.15 113.615 80.7752 115.24 82.78 115.24Z" stroke="#3F555A" stroke-linecap="round" stroke-linejoin="round"/>
<path d="M82.78 113.24C83.6803 113.24 84.41 112.51 84.41 111.61C84.41 110.71 83.6803 109.98 82.78 109.98C81.8798 109.98 81.15 110.71 81.15 111.61C81.15 112.51 81.8798 113.24 82.78 113.24Z" stroke="#3F555A" stroke-linecap="round" stroke-linejoin="round"/>
<path d="M67.7701 91.32H46.0601V100.35H67.7701V91.32Z" stroke="#3F555A" stroke-linecap="round" stroke-linejoin="round"/>
<path d="M30.23 79.25H39.76" stroke="#3F555A" stroke-linecap="round" stroke-linejoin="round"/>
<path d="M30.23 82.14H39.76" stroke="#3F555A" stroke-linecap="round" stroke-linejoin="round"/>
<path d="M30.23 85.03H39.76" stroke="#3F555A" stroke-linecap="round" stroke-linejoin="round"/>
<path d="M24.88 69.74H36.19C32.39 63.34 28.88 56.79 24.88 50.49V69.74Z" fill="#D0E4F1"/>
<path d="M24.88 50.26V50.49C28.88 56.79 32.39 63.34 36.19 69.74H46.72C42.2112 63.4643 38.0257 56.9625 34.18 50.26H24.88Z" fill="white"/>
<path d="M71 69.74C65.7867 63.4267 60.75 56.9333 55.89 50.26H48.55C52.6909 56.9832 57.1804 63.4854 62 69.74H71Z" fill="white"/>
<path d="M48.5501 50.26H34.1801C38.0258 56.9625 42.2112 63.4643 46.7201 69.74H62.0001C57.1804 63.4854 52.6909 56.9832 48.5501 50.26V50.26Z" fill="#D0E4F1"/>
<path d="M89.54 69.74C89.193 69.1742 88.7536 68.6705 88.2401 68.25L66.34 50.25H55.92C60.7734 56.9167 65.81 63.41 71.03 69.73L89.54 69.74Z" fill="#D0E4F1"/>
<path d="M88.42 75.4H90.42V83.66H88.42C87.3592 83.66 86.3418 83.2386 85.5916 82.4884C84.8415 81.7383 84.42 80.7209 84.42 79.66V79.4C84.42 78.3391 84.8415 77.3217 85.5916 76.5716C86.3418 75.8214 87.3592 75.4 88.42 75.4Z" stroke="#3F555A" stroke-linecap="round" stroke-linejoin="round"/>
<path d="M89.54 69.74H24.88V50.26H66.34L88.24 68.26C88.7527 68.6775 89.1921 69.1778 89.54 69.74V69.74Z" stroke="#3F555A" stroke-linecap="round" stroke-linejoin="round"/>
<path d="M139.33 4.95V31.56" stroke="#3F555A" stroke-linecap="round" stroke-linejoin="round"/>
<path d="M139.33 31.56L125.05 53.77" stroke="#3F555A" stroke-linecap="round" stroke-linejoin="round"/>
<path d="M139.33 31.56L153.6 53.77" stroke="#3F555A" stroke-linecap="round" stroke-linejoin="round"/>
<path d="M158.42 53.77H138C138 53.77 144 58.49 138 65.14H158.41C164.46 58.49 158.42 53.77 158.42 53.77Z" fill="#19BC9C" stroke="#3F555A" stroke-linecap="round" stroke-linejoin="round"/>
<path d="M138 65.14H120.1C119.919 65.1385 119.742 65.0879 119.588 64.9938C119.433 64.8996 119.307 64.7654 119.223 64.6053C119.139 64.4453 119.1 64.2654 119.11 64.0848C119.12 63.9043 119.179 63.7298 119.28 63.58C121.7 59.96 120.63 57.04 119.47 55.36C119.364 55.2107 119.301 55.0352 119.287 54.8524C119.274 54.6697 119.311 54.4868 119.395 54.3238C119.478 54.1607 119.605 54.0238 119.761 53.9279C119.917 53.832 120.097 53.7808 120.28 53.78H138C138 53.78 144 58.49 138 65.14Z" stroke="#3F555A" stroke-linecap="round" stroke-linejoin="round"/>
<path d="M124.18 57.86H133.56" stroke="#3F555A" stroke-linecap="round" stroke-linejoin="round"/>
<path d="M125.98 61.19H133.17" stroke="#3F555A" stroke-linecap="round" stroke-linejoin="round"/>
<path d="M141 65.14C147 58.49 141 53.77 141 53.77" stroke="#3F555A" stroke-linecap="round" stroke-linejoin="round"/>
<path d="M155.42 65.14C161.42 58.49 155.42 53.77 155.42 53.77" stroke="#3F555A" stroke-linecap="round" stroke-linejoin="round"/>
<path d="M159.66 110.62H139.25C139.25 110.62 145.25 115.94 139.25 123.43H159.66C165.7 115.94 159.66 110.62 159.66 110.62Z" fill="#F56F40" stroke="#3F555A" stroke-linecap="round" stroke-linejoin="round"/>
<path d="M139.25 123.44H121.25C121.074 123.438 120.902 123.39 120.751 123.301C120.6 123.211 120.475 123.084 120.389 122.931C120.303 122.778 120.258 122.604 120.26 122.429C120.262 122.253 120.31 122.081 120.4 121.93C123.12 117.56 121.82 114.07 120.59 112.18C120.491 112.03 120.434 111.855 120.426 111.675C120.418 111.495 120.459 111.317 120.544 111.158C120.629 110.999 120.755 110.866 120.909 110.773C121.063 110.68 121.24 110.631 121.42 110.63H139.27C139.27 110.63 145.29 115.94 139.25 123.44Z" stroke="#3F555A" stroke-linecap="round" stroke-linejoin="round"/>
<path d="M125.42 115.23H134.8" stroke="#3F555A" stroke-linecap="round" stroke-linejoin="round"/>
<path d="M127.22 118.98H134.41" stroke="#3F555A" stroke-linecap="round" stroke-linejoin="round"/>
<path d="M142.25 123.44C148.25 115.95 142.25 110.63 142.25 110.63" stroke="#3F555A" stroke-linecap="round" stroke-linejoin="round"/>
<path d="M156.66 123.44C162.66 115.95 156.66 110.63 156.66 110.63" stroke="#3F555A" stroke-linecap="round" stroke-linejoin="round"/>
<path d="M163.65 97.81H143.24C143.24 97.81 149.24 103.13 143.24 110.62H163.65C169.69 103.13 163.65 97.81 163.65 97.81Z" fill="#3290C1" stroke="#3F555A" stroke-linecap="round" stroke-linejoin="round"/>
<path d="M143.24 110.62H125.24C125.064 110.618 124.892 110.57 124.741 110.481C124.59 110.391 124.465 110.264 124.379 110.111C124.293 109.958 124.248 109.784 124.25 109.609C124.252 109.433 124.3 109.261 124.39 109.11C127.11 104.74 125.81 101.25 124.58 99.36C124.481 99.2096 124.424 99.0352 124.416 98.8553C124.408 98.6754 124.449 98.4967 124.534 98.3379C124.619 98.1792 124.745 98.0463 124.899 97.9534C125.053 97.8605 125.23 97.8109 125.41 97.81H143.26C143.26 97.81 149.28 103.13 143.24 110.62Z" stroke="#3F555A" stroke-linecap="round" stroke-linejoin="round"/>
<path d="M129.41 102.42H138.79" stroke="#3F555A" stroke-linecap="round" stroke-linejoin="round"/>
<path d="M131.22 106.17H138.4" stroke="#3F555A" stroke-linecap="round" stroke-linejoin="round"/>
<path d="M146.24 110.62C152.24 103.13 146.24 97.81 146.24 97.81" stroke="#3F555A" stroke-linecap="round" stroke-linejoin="round"/>
<path d="M160.65 110.62C166.65 103.13 160.65 97.81 160.65 97.81" stroke="#3F555A" stroke-linecap="round" stroke-linejoin="round"/>
</svg>
