<svg width="201" height="185" viewBox="0 0 201 185" fill="none" xmlns="http://www.w3.org/2000/svg">
<path d="M196.24 59.26H4.89001" stroke="#A1C2D8" stroke-linecap="round" stroke-linejoin="round"/>
<path d="M7.89001 51.14H200.24" stroke="#A1C2D8" stroke-linecap="round" stroke-linejoin="round"/>
<path d="M15.95 0.599976H11.43V51.14H15.95V0.599976Z" fill="#D0E4F1"/>
<path d="M19.59 0.599976H11.43V51.14H19.59V0.599976Z" stroke="#A1C2D8" stroke-linecap="round" stroke-linejoin="round"/>
<path d="M11.43 7.59998H19.59" stroke="#A1C2D8" stroke-linecap="round" stroke-linejoin="round"/>
<path d="M11.43 44.13H19.59" stroke="#A1C2D8" stroke-linecap="round" stroke-linejoin="round"/>
<path d="M50.66 0.599976H45.25V51.14H50.66V0.599976Z" fill="#D0E4F1"/>
<path d="M55.01 0.599976H45.25V51.14H55.01V0.599976Z" stroke="#A1C2D8" stroke-linecap="round" stroke-linejoin="round"/>
<path d="M45.25 7.59998H55.02" stroke="#A1C2D8" stroke-linecap="round" stroke-linejoin="round"/>
<path d="M45.25 44.13H55.02" stroke="#A1C2D8" stroke-linecap="round" stroke-linejoin="round"/>
<path d="M79.77 7.51001H75.27V51.14H79.77V7.51001Z" fill="#D0E4F1"/>
<path d="M83.39 7.51001H75.27V51.14H83.39V7.51001Z" stroke="#A1C2D8" stroke-linecap="round" stroke-linejoin="round"/>
<path d="M75.27 13.56H83.4" stroke="#A1C2D8" stroke-linecap="round" stroke-linejoin="round"/>
<path d="M75.27 45.09H83.4" stroke="#A1C2D8" stroke-linecap="round" stroke-linejoin="round"/>
<path d="M152.67 7.51001H148.17V51.14H152.67V7.51001Z" fill="#D0E4F1"/>
<path d="M156.29 7.51001H148.17V51.14H156.29V7.51001Z" stroke="#A1C2D8" stroke-linecap="round" stroke-linejoin="round"/>
<path d="M148.17 13.56H156.29" stroke="#A1C2D8" stroke-linecap="round" stroke-linejoin="round"/>
<path d="M148.17 45.09H156.29" stroke="#A1C2D8" stroke-linecap="round" stroke-linejoin="round"/>
<path d="M168.96 25.81H165.6V51.14H168.96V25.81Z" fill="#D0E4F1"/>
<path d="M171.66 25.81H165.6V51.14H171.66V25.81Z" stroke="#A1C2D8" stroke-linecap="round" stroke-linejoin="round"/>
<path d="M165.6 29.32H171.66" stroke="#A1C2D8" stroke-linecap="round" stroke-linejoin="round"/>
<path d="M165.6 47.63H171.66" stroke="#A1C2D8" stroke-linecap="round" stroke-linejoin="round"/>
<path d="M161.45 19.37H156.29V51.14H161.45V19.37Z" fill="#D0E4F1"/>
<path d="M165.6 19.37H156.29V51.14H165.6V19.37Z" stroke="#A1C2D8" stroke-linecap="round" stroke-linejoin="round"/>
<path d="M156.29 23.77H165.6" stroke="#A1C2D8" stroke-linecap="round" stroke-linejoin="round"/>
<path d="M156.29 46.73H165.6" stroke="#A1C2D8" stroke-linecap="round" stroke-linejoin="round"/>
<path d="M189.58 19.37H184.42V51.14H189.58V19.37Z" fill="#D0E4F1"/>
<path d="M193.73 19.37H184.42V51.14H193.73V19.37Z" stroke="#A1C2D8" stroke-linecap="round" stroke-linejoin="round"/>
<path d="M184.42 23.77H193.72" stroke="#A1C2D8" stroke-linecap="round" stroke-linejoin="round"/>
<path d="M184.42 46.73H193.72" stroke="#A1C2D8" stroke-linecap="round" stroke-linejoin="round"/>
<path d="M178.73 10.02H171.66V51.13H178.73V10.02Z" fill="#D0E4F1"/>
<path d="M184.42 10.02H171.66V51.13H184.42V10.02Z" stroke="#A1C2D8" stroke-linecap="round" stroke-linejoin="round"/>
<path d="M171.66 15.72H184.42" stroke="#A1C2D8" stroke-linecap="round" stroke-linejoin="round"/>
<path d="M171.66 45.44H184.42" stroke="#A1C2D8" stroke-linecap="round" stroke-linejoin="round"/>
<path d="M96.48 44.5V51.13H135.82V44.5H96.48Z" fill="#D0E4F1"/>
<path d="M96.48 39.16V51.13H135.82V39.16H96.48Z" stroke="#A1C2D8" stroke-linecap="round" stroke-linejoin="round"/>
<path d="M101.93 51.14V39.16" stroke="#A1C2D8" stroke-linecap="round" stroke-linejoin="round"/>
<path d="M130.37 51.14V39.16" stroke="#A1C2D8" stroke-linecap="round" stroke-linejoin="round"/>
<path d="M98.56 32.53V39.16H137.9V32.53H98.56Z" fill="#D0E4F1"/>
<path d="M98.56 27.19V39.16H137.9V27.19H98.56Z" stroke="#A1C2D8" stroke-linecap="round" stroke-linejoin="round"/>
<path d="M104.02 39.16V27.19" stroke="#A1C2D8" stroke-linecap="round" stroke-linejoin="round"/>
<path d="M132.45 39.16V27.19" stroke="#A1C2D8" stroke-linecap="round" stroke-linejoin="round"/>
<path d="M99.79 22.86V27.19L129.48 27.19V22.86H99.79Z" fill="#D0E4F1"/>
<path d="M99.78 19.37V27.19L129.47 27.19V19.37H99.78Z" stroke="#A1C2D8" stroke-linecap="round" stroke-linejoin="round"/>
<path d="M103.9 27.19V19.37" stroke="#A1C2D8" stroke-linecap="round" stroke-linejoin="round"/>
<path d="M125.36 27.19V19.37" stroke="#A1C2D8" stroke-linecap="round" stroke-linejoin="round"/>
<path d="M59.5358 11.8582L55.0065 12.9958L64.5806 51.1118L69.1099 49.9741L59.5358 11.8582Z" fill="#D0E4F1"/>
<path d="M63.1944 10.9479L55.0184 13.0016L64.5924 51.1176L72.7685 49.0639L63.1944 10.9479Z" stroke="#A1C2D8" stroke-linecap="round" stroke-linejoin="round"/>
<path d="M56.34 18.28L64.51 16.22" stroke="#A1C2D8" stroke-linecap="round" stroke-linejoin="round"/>
<path d="M63.26 45.82L71.44 43.77" stroke="#A1C2D8" stroke-linecap="round" stroke-linejoin="round"/>
<path d="M39.99 17.36H33.46V51.14H39.99V17.36Z" fill="#D0E4F1"/>
<path d="M45.25 17.36H33.46V51.14H45.25V17.36Z" stroke="#A1C2D8" stroke-linecap="round" stroke-linejoin="round"/>
<path d="M33.46 22.04H45.25" stroke="#A1C2D8" stroke-linecap="round" stroke-linejoin="round"/>
<path d="M33.46 46.46H45.25" stroke="#A1C2D8" stroke-linecap="round" stroke-linejoin="round"/>
<path d="M27.27 12.3H19.59V51.14H27.27V12.3Z" fill="#D0E4F1"/>
<path d="M33.46 12.3H19.59V51.14H33.46V12.3Z" stroke="#A1C2D8" stroke-linecap="round" stroke-linejoin="round"/>
<path d="M19.59 17.68H33.46" stroke="#A1C2D8" stroke-linecap="round" stroke-linejoin="round"/>
<path d="M19.59 45.76H33.46" stroke="#A1C2D8" stroke-linecap="round" stroke-linejoin="round"/>
<path d="M190.23 123.3H0.890015" stroke="#A1C2D8" stroke-linecap="round" stroke-linejoin="round"/>
<path d="M3.89001 115.18H196.24" stroke="#A1C2D8" stroke-linecap="round" stroke-linejoin="round"/>
<path d="M184.55 115.17H189.07V64.63H184.55V115.17Z" fill="#D0E4F1"/>
<path d="M180.91 115.17H189.07V64.63H180.91V115.17Z" stroke="#A1C2D8" stroke-linecap="round" stroke-linejoin="round"/>
<path d="M189.07 71.64H180.91" stroke="#A1C2D8" stroke-linecap="round" stroke-linejoin="round"/>
<path d="M189.07 108.17H180.91" stroke="#A1C2D8" stroke-linecap="round" stroke-linejoin="round"/>
<path d="M149.84 115.17H155.25V64.63H149.84V115.17Z" fill="#D0E4F1"/>
<path d="M145.48 115.17H155.24V64.63H145.48V115.17Z" stroke="#A1C2D8" stroke-linecap="round" stroke-linejoin="round"/>
<path d="M155.25 71.64H145.49" stroke="#A1C2D8" stroke-linecap="round" stroke-linejoin="round"/>
<path d="M155.25 108.17H145.49" stroke="#A1C2D8" stroke-linecap="round" stroke-linejoin="round"/>
<path d="M54.67 115.17H59.17L59.17 71.54H54.67L54.67 115.17Z" fill="#D0E4F1"/>
<path d="M51.06 115.17H59.18L59.18 71.54H51.06L51.06 115.17Z" stroke="#A1C2D8" stroke-linecap="round" stroke-linejoin="round"/>
<path d="M59.18 77.59H51.05" stroke="#A1C2D8" stroke-linecap="round" stroke-linejoin="round"/>
<path d="M59.18 109.13H51.05" stroke="#A1C2D8" stroke-linecap="round" stroke-linejoin="round"/>
<path d="M33.38 115.18H36.74V89.85H33.38V115.18Z" fill="#D0E4F1"/>
<path d="M30.69 115.18H36.75V89.85H30.69L30.69 115.18Z" stroke="#A1C2D8" stroke-linecap="round" stroke-linejoin="round"/>
<path d="M36.74 93.36H30.68" stroke="#A1C2D8" stroke-linecap="round" stroke-linejoin="round"/>
<path d="M36.74 111.67H30.68" stroke="#A1C2D8" stroke-linecap="round" stroke-linejoin="round"/>
<path d="M42.2536 114.585L47.3792 115.18L51.0417 83.6222L45.9162 83.0273L42.2536 114.585Z" fill="#D0E4F1"/>
<path d="M38.136 114.103L47.3839 115.176L51.0465 83.6178L41.7986 82.5446L38.136 114.103Z" stroke="#A1C2D8" stroke-linecap="round" stroke-linejoin="round"/>
<path d="M50.54 87.99L41.3 86.92" stroke="#A1C2D8" stroke-linecap="round" stroke-linejoin="round"/>
<path d="M47.89 110.8L38.65 109.73" stroke="#A1C2D8" stroke-linecap="round" stroke-linejoin="round"/>
<path d="M12.76 115.18H17.92L17.92 73.92H12.76L12.76 115.18Z" fill="#D0E4F1"/>
<path d="M8.61001 115.18H17.92L17.92 73.92H8.61001L8.61001 115.18Z" stroke="#A1C2D8" stroke-linecap="round" stroke-linejoin="round"/>
<path d="M17.92 79.64H8.62" stroke="#A1C2D8" stroke-linecap="round" stroke-linejoin="round"/>
<path d="M17.92 109.46H8.62" stroke="#A1C2D8" stroke-linecap="round" stroke-linejoin="round"/>
<path d="M23.62 115.17H30.69L30.69 76.46H23.62L23.62 115.17Z" fill="#D0E4F1"/>
<path d="M17.93 115.17H30.69L30.69 76.46H17.93L17.93 115.17Z" stroke="#A1C2D8" stroke-linecap="round" stroke-linejoin="round"/>
<path d="M30.68 81.83H17.92" stroke="#A1C2D8" stroke-linecap="round" stroke-linejoin="round"/>
<path d="M30.68 109.81H17.92" stroke="#A1C2D8" stroke-linecap="round" stroke-linejoin="round"/>
<path d="M68.28 108.55V115.18H107.62V108.55H68.28Z" fill="#D0E4F1"/>
<path d="M68.28 103.21V115.18H107.62V103.21H68.28Z" stroke="#A1C2D8" stroke-linecap="round" stroke-linejoin="round"/>
<path d="M73.73 115.18V103.2" stroke="#A1C2D8" stroke-linecap="round" stroke-linejoin="round"/>
<path d="M102.17 115.18V103.2" stroke="#A1C2D8" stroke-linecap="round" stroke-linejoin="round"/>
<path d="M72.36 96.57V103.2H111.7V96.57H72.36Z" fill="#D0E4F1"/>
<path d="M72.36 91.23V103.2H111.7V91.23H72.36Z" stroke="#A1C2D8" stroke-linecap="round" stroke-linejoin="round"/>
<path d="M77.81 103.2V91.23" stroke="#A1C2D8" stroke-linecap="round" stroke-linejoin="round"/>
<path d="M106.25 103.2V91.23" stroke="#A1C2D8" stroke-linecap="round" stroke-linejoin="round"/>
<path d="M80.59 86.9V91.23H110.28V86.9H80.59Z" fill="#D0E4F1"/>
<path d="M80.59 83.41V91.23H110.28V83.41H80.59Z" stroke="#A1C2D8" stroke-linecap="round" stroke-linejoin="round"/>
<path d="M84.7 91.23V83.4" stroke="#A1C2D8" stroke-linecap="round" stroke-linejoin="round"/>
<path d="M106.16 91.23V83.4" stroke="#A1C2D8" stroke-linecap="round" stroke-linejoin="round"/>
<path d="M131.378 114.017L135.908 115.154L145.482 77.0385L140.952 75.9008L131.378 114.017Z" fill="#D0E4F1"/>
<path d="M127.728 113.098L135.904 115.152L145.478 77.036L137.302 74.9823L127.728 113.098Z" stroke="#A1C2D8" stroke-linecap="round" stroke-linejoin="round"/>
<path d="M144.16 82.32L135.99 80.26" stroke="#A1C2D8" stroke-linecap="round" stroke-linejoin="round"/>
<path d="M137.24 109.86L129.07 107.81" stroke="#A1C2D8" stroke-linecap="round" stroke-linejoin="round"/>
<path d="M122.68 114.056L127.209 115.194L137.974 72.3351L133.445 71.1974L122.68 114.056Z" fill="#D0E4F1"/>
<path d="M119.029 113.138L127.206 115.191L137.971 72.3326L129.795 70.2789L119.029 113.138Z" stroke="#A1C2D8" stroke-linecap="round" stroke-linejoin="round"/>
<path d="M136.49 78.27L128.32 76.21" stroke="#A1C2D8" stroke-linecap="round" stroke-linejoin="round"/>
<path d="M128.71 109.24L120.53 107.19" stroke="#A1C2D8" stroke-linecap="round" stroke-linejoin="round"/>
<path d="M160.51 115.17H167.04V81.39H160.51V115.17Z" fill="#D0E4F1"/>
<path d="M155.25 115.17H167.04V81.39H155.25V115.17Z" stroke="#A1C2D8" stroke-linecap="round" stroke-linejoin="round"/>
<path d="M167.04 86.08H155.25" stroke="#A1C2D8" stroke-linecap="round" stroke-linejoin="round"/>
<path d="M167.04 110.5H155.25" stroke="#A1C2D8" stroke-linecap="round" stroke-linejoin="round"/>
<path d="M173.23 115.18H180.91V76.34H173.23V115.18Z" fill="#D0E4F1"/>
<path d="M167.05 115.18H180.92V76.34H167.05V115.18Z" stroke="#A1C2D8" stroke-linecap="round" stroke-linejoin="round"/>
<path d="M180.91 81.72H167.04" stroke="#A1C2D8" stroke-linecap="round" stroke-linejoin="round"/>
<path d="M180.91 109.79H167.04" stroke="#A1C2D8" stroke-linecap="round" stroke-linejoin="round"/>
<path d="M170.29 145.84C170.67 145.14 171.8 145.35 172.29 145.98C172.675 146.674 172.926 147.434 173.03 148.22C173.91 151.46 177.63 153.56 177.84 156.91C177.98 159.05 176.6 160.97 175.13 162.53C172.836 164.958 170.152 166.986 167.19 168.53C165.9 169.265 164.475 169.731 163 169.9C162.266 169.972 161.524 169.877 160.832 169.623C160.139 169.368 159.513 168.96 159 168.43C158.477 167.774 158.093 167.019 157.87 166.21C157.342 164.564 157.066 162.848 157.05 161.12" fill="white"/>
<path d="M170.29 145.84C170.67 145.14 171.8 145.35 172.29 145.98C172.675 146.674 172.926 147.434 173.03 148.22C173.91 151.46 177.63 153.56 177.84 156.91C177.98 159.05 176.6 160.97 175.13 162.53C172.836 164.958 170.152 166.986 167.19 168.53C165.9 169.265 164.475 169.731 163 169.9C162.266 169.972 161.524 169.877 160.832 169.623C160.139 169.368 159.513 168.96 159 168.43C158.477 167.774 158.093 167.019 157.87 166.21C157.342 164.564 157.066 162.848 157.05 161.12" stroke="#3F555A" stroke-linecap="round" stroke-linejoin="round"/>
<path d="M160.64 159.12C164.84 157.44 168.15 153.77 169.97 151.38C170.471 150.72 170.804 149.949 170.94 149.131C171.076 148.314 171.011 147.476 170.75 146.69C165.5 130.78 156.75 121.69 156.75 121.69L150.17 124.3L146 144.1L156 157.78C156.514 158.488 157.249 159.004 158.09 159.247C158.93 159.49 159.828 159.445 160.64 159.12V159.12Z" fill="white" stroke="#3F555A" stroke-linecap="round" stroke-linejoin="round"/>
<path d="M177.44 159C181.155 164.697 184.272 170.762 186.74 177.1" stroke="#3F555A" stroke-linecap="round" stroke-linejoin="round"/>
<path d="M174 156.14C174.23 156.77 174 157.58 173.17 157.57C172.17 157.57 171.57 156.06 171.59 155.21C171.597 155.065 171.642 154.925 171.719 154.802C171.797 154.679 171.905 154.579 172.032 154.51C172.16 154.442 172.304 154.408 172.449 154.411C172.594 154.415 172.735 154.456 172.86 154.53C173.418 154.915 173.822 155.486 174 156.14V156.14Z" stroke="#3F555A" stroke-linecap="round" stroke-linejoin="round"/>
<path d="M30.84 145.84C30.46 145.14 29.33 145.35 28.84 145.98C28.4554 146.674 28.2044 147.434 28.1 148.22C27.22 151.46 23.5 153.56 23.29 156.91C23.16 159 24.53 161 26 162.53C28.2942 164.958 30.9777 166.986 33.94 168.53C35.2345 169.274 36.6669 169.747 38.15 169.92C38.8844 169.992 39.6256 169.897 40.3182 169.643C41.0108 169.388 41.637 168.98 42.15 168.45C42.673 167.794 43.0574 167.039 43.28 166.23C43.808 164.584 44.0844 162.868 44.1 161.14" fill="white"/>
<path d="M30.84 145.84C30.46 145.14 29.33 145.35 28.84 145.98C28.4554 146.674 28.2044 147.434 28.1 148.22C27.22 151.46 23.5 153.56 23.29 156.91C23.16 159 24.53 161 26 162.53C28.2942 164.958 30.9777 166.986 33.94 168.53C35.2345 169.274 36.6669 169.747 38.15 169.92C38.8844 169.992 39.6256 169.897 40.3182 169.643C41.0108 169.388 41.637 168.98 42.15 168.45C42.673 167.794 43.0574 167.039 43.28 166.23C43.808 164.584 44.0844 162.868 44.1 161.14" stroke="#3F555A" stroke-linecap="round" stroke-linejoin="round"/>
<path d="M40.48 159.12C36.28 157.44 32.97 153.77 31.15 151.38C30.6489 150.72 30.316 149.949 30.1801 149.131C30.0442 148.314 30.1094 147.476 30.37 146.69C35.62 130.78 44.37 121.69 44.37 121.69L51 124.26L55.12 144.1L45.12 157.78C44.6061 158.488 43.8706 159.004 43.0301 159.247C42.1897 159.49 41.2923 159.445 40.48 159.12V159.12Z" fill="white" stroke="#3F555A" stroke-linecap="round" stroke-linejoin="round"/>
<path d="M100.56 178.72C99.5981 178.711 98.6715 178.356 97.95 177.72C97.76 177.56 85.29 167.17 63.17 167.17C57.7343 167.197 52.3157 167.784 47 168.92C46.4181 169.04 45.8166 169.029 45.2394 168.888C44.6622 168.747 44.1237 168.479 43.663 168.104C43.2024 167.728 42.8312 167.255 42.5764 166.718C42.3216 166.181 42.1896 165.594 42.19 165C42.19 162.34 41.97 144.66 41.76 127.56C41.55 110.72 41.35 97.82 41.35 95.43C41.3493 94.5093 41.6663 93.6165 42.2475 92.9024C42.8286 92.1882 43.6384 91.6964 44.54 91.51C48.9681 90.5934 53.4781 90.131 58 90.13C79.18 90.13 94.55 100.39 100.57 105.19C106.57 100.39 121.96 90.13 143.14 90.13C147.659 90.135 152.166 90.6007 156.59 91.52C157.492 91.7065 158.301 92.1982 158.883 92.9124C159.464 93.6265 159.781 94.5193 159.78 95.44C159.78 97.83 159.58 110.74 159.37 127.57C159.16 144.67 158.94 162.36 158.94 165.01C158.94 166.071 158.519 167.088 157.768 167.838C157.018 168.589 156.001 169.01 154.94 169.01C154.665 169.012 154.39 168.985 154.12 168.93C148.82 167.804 143.418 167.224 138 167.2C115.63 167.2 103.35 177.64 103.23 177.74C102.49 178.383 101.54 178.731 100.56 178.72Z" fill="#F56F40" stroke="#3F555A" stroke-linecap="round" stroke-linejoin="round"/>
<path d="M100.56 174.72C100.56 174.72 81.45 158.12 47.38 164.72C47.233 164.75 47.0812 164.747 46.9357 164.71C46.7902 164.673 46.6549 164.604 46.5396 164.508C46.4244 164.412 46.3322 164.292 46.27 164.155C46.2077 164.019 46.177 163.87 46.18 163.72C46.1 153.57 45.34 96.94 45.34 92.34C78.1 85.56 100.55 107.34 100.55 107.34L100.56 174.72Z" fill="white" stroke="#3F555A" stroke-linecap="round" stroke-linejoin="round"/>
<path d="M100.56 174.72C100.56 174.72 80.63 156.33 46.56 162.93C46.413 162.96 46.2612 162.957 46.1157 162.92C45.9702 162.883 45.8349 162.815 45.7196 162.718C45.6044 162.622 45.5122 162.502 45.45 162.365C45.3877 162.229 45.357 162.08 45.36 161.93V92.43C78.12 85.65 100.57 107.43 100.57 107.43L100.56 174.72Z" fill="white" stroke="#3F555A" stroke-linecap="round" stroke-linejoin="round"/>
<path d="M100.56 174.72C100.56 174.72 119.67 158.12 153.74 164.72C153.887 164.75 154.039 164.747 154.184 164.71C154.33 164.673 154.465 164.604 154.58 164.508C154.696 164.412 154.788 164.292 154.85 164.155C154.912 164.019 154.943 163.87 154.94 163.72C155.02 153.57 155.78 96.94 155.78 92.34C123.02 85.56 100.57 107.34 100.57 107.34L100.56 174.72Z" fill="white" stroke="#3F555A" stroke-linecap="round" stroke-linejoin="round"/>
<path d="M100.56 174.72C100.56 174.72 120.49 156.33 154.56 162.93C154.707 162.96 154.859 162.957 155.004 162.92C155.15 162.883 155.285 162.815 155.4 162.718C155.516 162.622 155.608 162.502 155.67 162.365C155.732 162.229 155.763 162.08 155.76 161.93V92.43C123 85.65 100.55 107.43 100.55 107.43L100.56 174.72Z" fill="white" stroke="#3F555A" stroke-linecap="round" stroke-linejoin="round"/>
<path d="M100.56 174.72C100.56 174.72 80.08 153.83 45.06 160.72C44.913 160.75 44.7612 160.747 44.6157 160.71C44.4702 160.673 44.3349 160.605 44.2196 160.508C44.1044 160.412 44.0122 160.292 43.95 160.155C43.8877 160.019 43.857 159.87 43.86 159.72V89.42C43.8557 89.1847 43.9346 88.9554 44.0828 88.7724C44.2309 88.5895 44.4389 88.4647 44.67 88.42C77.87 81.86 100.56 104.3 100.56 104.3V174.72Z" fill="white" stroke="#3F555A" stroke-linecap="round" stroke-linejoin="round"/>
<path d="M57.14 131.19C63.7 131.27 71.99 132.82 75.56 139.06C77.37 142.22 76.04 145.06 72.99 146.67C69.5558 148.382 65.5918 148.698 61.93 147.55C58.76 146.55 53.3 143.61 54.46 139.48C55.22 136.77 58.26 136.27 60.64 135.9" stroke="#19BC9C" stroke-linecap="round" stroke-linejoin="round"/>
<path d="M78.27 122.28C77.5486 122.648 76.75 122.84 75.94 122.84C72.59 123.03 68.31 121.96 67.58 118.12C67.11 115.61 68.72 113.44 70.92 112.38C77 109.46 84.47 118.63 78.27 122.28Z" stroke="#19BC9C" stroke-linecap="round" stroke-linejoin="round"/>
<path d="M82.32 150.18C86.707 152.071 90.8832 154.417 94.78 157.18" stroke="#3F555A" stroke-linecap="round" stroke-linejoin="round"/>
<path d="M50.32 145.09C58.8437 144.269 67.4455 145.16 75.62 147.71" stroke="#3F555A" stroke-linecap="round" stroke-linejoin="round"/>
<path d="M87.31 158.07C89.9754 159.478 92.5443 161.062 95 162.81" stroke="#3F555A" stroke-linecap="round" stroke-linejoin="round"/>
<path d="M64.47 150.8C70.0524 151.506 75.5227 152.917 80.75 155" stroke="#3F555A" stroke-linecap="round" stroke-linejoin="round"/>
<path d="M50.28 150.6C53.0339 150.321 55.8035 150.228 58.57 150.32" stroke="#3F555A" stroke-linecap="round" stroke-linejoin="round"/>
<path d="M66.95 140.16C76.9748 141.852 86.4901 145.779 94.79 151.65" stroke="#3F555A" stroke-linecap="round" stroke-linejoin="round"/>
<path d="M50.32 139.59C53.6862 139.255 57.0741 139.195 60.45 139.41" stroke="#3F555A" stroke-linecap="round" stroke-linejoin="round"/>
<path d="M82.1 139.09C86.6488 141.022 90.9742 143.443 95 146.31" stroke="#3F555A" stroke-linecap="round" stroke-linejoin="round"/>
<path d="M50.86 134C59.3447 133.271 67.8897 134.233 76 136.83" stroke="#3F555A" stroke-linecap="round" stroke-linejoin="round"/>
<path d="M63.88 128.72C75.1012 130.084 85.801 134.241 95 140.81" stroke="#3F555A" stroke-linecap="round" stroke-linejoin="round"/>
<path d="M50.86 128.54C52.86 128.36 54.8367 128.277 56.79 128.29" stroke="#3F555A" stroke-linecap="round" stroke-linejoin="round"/>
<path d="M71.15 119C79.5518 120.983 87.4998 124.547 94.57 129.5" stroke="#3F555A" stroke-linecap="round" stroke-linejoin="round"/>
<path d="M50.87 117.54C55.6613 117.108 60.4863 117.229 65.25 117.9" stroke="#3F555A" stroke-linecap="round" stroke-linejoin="round"/>
<path d="M82.11 111.64C86.1764 113.482 90.0716 115.681 93.75 118.21" stroke="#3F555A" stroke-linecap="round" stroke-linejoin="round"/>
<path d="M67 107.08C70.0065 107.557 72.9695 108.276 75.86 109.23" stroke="#3F555A" stroke-linecap="round" stroke-linejoin="round"/>
<path d="M88.4 120.15C90.3667 121.237 92.2733 122.417 94.12 123.69" stroke="#3F555A" stroke-linecap="round" stroke-linejoin="round"/>
<path d="M65.92 112.49C71.5755 113.346 77.0975 114.925 82.35 117.19" stroke="#3F555A" stroke-linecap="round" stroke-linejoin="round"/>
<path d="M51 112C53.796 111.749 56.6058 111.689 59.41 111.82" stroke="#3F555A" stroke-linecap="round" stroke-linejoin="round"/>
<path d="M85 129.41C88.4032 131.05 91.6643 132.97 94.75 135.15" stroke="#3F555A" stroke-linecap="round" stroke-linejoin="round"/>
<path d="M50.91 123C60.4436 122.194 70.0372 123.512 79 126.86" stroke="#3F555A" stroke-linecap="round" stroke-linejoin="round"/>
<path d="M100.56 174.72C100.56 174.72 121.04 153.83 156.06 160.72C156.207 160.75 156.359 160.747 156.504 160.71C156.65 160.673 156.785 160.605 156.9 160.508C157.016 160.412 157.108 160.292 157.17 160.155C157.232 160.019 157.263 159.87 157.26 159.72V89.42C157.264 89.1847 157.185 88.9554 157.037 88.7724C156.889 88.5895 156.681 88.4647 156.45 88.42C123.25 81.86 100.56 104.3 100.56 104.3V174.72Z" fill="white" stroke="#3F555A" stroke-linecap="round" stroke-linejoin="round"/>
<path d="M130.31 95.92C122.436 97.7378 114.949 100.945 108.2 105.39" stroke="#3F555A" stroke-linecap="round" stroke-linejoin="round"/>
<path d="M149.53 94.48C145.103 94.1328 140.651 94.2568 136.25 94.85" stroke="#3F555A" stroke-linecap="round" stroke-linejoin="round"/>
<path d="M115.57 106.95C112.849 108.291 110.22 109.811 107.7 111.5" stroke="#3F555A" stroke-linecap="round" stroke-linejoin="round"/>
<path d="M134.77 100.84C130.501 101.515 126.308 102.604 122.25 104.09" stroke="#3F555A" stroke-linecap="round" stroke-linejoin="round"/>
<path d="M149.62 100.26C147.035 100.051 144.44 100.005 141.85 100.12" stroke="#3F555A" stroke-linecap="round" stroke-linejoin="round"/>
<path d="M111.8 120.51C110.247 121.403 108.727 122.353 107.24 123.36" stroke="#3F555A" stroke-linecap="round" stroke-linejoin="round"/>
<path d="M130.8 113.15C126.278 114.155 121.871 115.622 117.65 117.53" stroke="#3F555A" stroke-linecap="round" stroke-linejoin="round"/>
<path d="M149.62 111.82C145.623 111.497 141.605 111.561 137.62 112.01" stroke="#3F555A" stroke-linecap="round" stroke-linejoin="round"/>
<path d="M119.32 128.35C114.914 130.199 110.714 132.504 106.79 135.23" stroke="#3F555A" stroke-linecap="round" stroke-linejoin="round"/>
<path d="M150.21 123.42C142.053 122.709 133.836 123.565 126 125.94" stroke="#3F555A" stroke-linecap="round" stroke-linejoin="round"/>
<path d="M116.29 141.27C112.899 142.893 109.648 144.792 106.57 146.95" stroke="#3F555A" stroke-linecap="round" stroke-linejoin="round"/>
<path d="M150.84 135C141.363 134.087 131.801 135.283 122.84 138.5" stroke="#3F555A" stroke-linecap="round" stroke-linejoin="round"/>
<path d="M134.09 129.84C124.187 131.529 114.783 135.399 106.56 141.17" stroke="#3F555A" stroke-linecap="round" stroke-linejoin="round"/>
<path d="M150.26 129.21C147.065 128.918 143.852 128.875 140.65 129.08" stroke="#3F555A" stroke-linecap="round" stroke-linejoin="round"/>
<path d="M123.58 121C117.702 123.001 112.124 125.793 107 129.3" stroke="#3F555A" stroke-linecap="round" stroke-linejoin="round"/>
<path d="M150.17 117.64C143.579 117.066 136.939 117.524 130.49 119" stroke="#3F555A" stroke-linecap="round" stroke-linejoin="round"/>
<path d="M111 115.18C109.793 115.893 108.607 116.643 107.44 117.43" stroke="#3F555A" stroke-linecap="round" stroke-linejoin="round"/>
<path d="M126.86 108.37C122.088 109.739 117.48 111.627 113.12 114" stroke="#3F555A" stroke-linecap="round" stroke-linejoin="round"/>
<path d="M150.17 106.09C144.605 105.6 138.999 105.852 133.5 106.84" stroke="#3F555A" stroke-linecap="round" stroke-linejoin="round"/>
<path d="M51.54 101C50.54 101 50 102 50.02 102.94C50.0264 103.549 50.2183 104.142 50.57 104.64C50.7555 104.9 50.9941 105.117 51.27 105.277C51.5458 105.437 51.8526 105.537 52.17 105.57C52.6432 105.533 53.0993 105.377 53.4961 105.116C53.893 104.856 54.2176 104.499 54.44 104.08C56.7 101 58.75 97.78 60.81 94.56V106.45" stroke="#3F555A" stroke-linecap="round" stroke-linejoin="round"/>
<path d="M62.72 106.65L58.79 106.25" stroke="#3F555A" stroke-linecap="round" stroke-linejoin="round"/>
<path d="M60.38 101.84L56.44 101.44" stroke="#3F555A" stroke-linecap="round" stroke-linejoin="round"/>
<path d="M40.36 131.61C41.4452 130.05 42.7997 128.695 44.36 127.61C45.28 126.96 47.14 126.18 47.94 127.4C49.54 129.83 47.66 134.58 46.57 136.86C44.6023 140.943 42.1406 144.768 39.24 148.25" fill="white"/>
<path d="M40.36 131.61C41.4452 130.05 42.7997 128.695 44.36 127.61C45.28 126.96 47.14 126.18 47.94 127.4C49.54 129.83 47.66 134.58 46.57 136.86C44.6023 140.943 42.1406 144.768 39.24 148.25" stroke="#3F555A" stroke-linecap="round" stroke-linejoin="round"/>
<path d="M76.11 112.18C77.5375 109.411 79.5921 107.014 82.11 105.18" stroke="#19BC9C" stroke-linecap="round" stroke-linejoin="round"/>
<path d="M84.86 105.18C86.589 105.791 88.2429 106.596 89.79 107.58" stroke="#19BC9C" stroke-linecap="round" stroke-linejoin="round"/>
<path d="M85.33 102.75C87.2168 103.315 88.9831 104.224 90.54 105.43" stroke="#19BC9C" stroke-linecap="round" stroke-linejoin="round"/>
<path d="M86 100.37C87.6803 100.987 89.2631 101.843 90.7 102.91" stroke="#19BC9C" stroke-linecap="round" stroke-linejoin="round"/>
<path d="M80.69 103.66H82.69C82.8828 103.639 83.0772 103.684 83.24 103.79C83.3154 103.872 83.3731 103.968 83.4092 104.073C83.4454 104.178 83.4593 104.289 83.45 104.4C83.4668 105.075 83.386 105.748 83.21 106.4" stroke="#19BC9C" stroke-linecap="round" stroke-linejoin="round"/>
<path d="M124.48 146.33C128.308 145.227 132.266 144.638 136.25 144.58" stroke="#19BC9C" stroke-linecap="round" stroke-linejoin="round"/>
<path d="M124.45 150.46C128.2 149.407 132.059 148.786 135.95 148.61" stroke="#19BC9C" stroke-linecap="round" stroke-linejoin="round"/>
<path d="M124.51 154.17C128.235 153.248 132.045 152.719 135.88 152.59" stroke="#19BC9C" stroke-linecap="round" stroke-linejoin="round"/>
<path d="M112.93 147.08C113.678 147.305 114.467 147.357 115.238 147.233C116.009 147.108 116.741 146.81 117.38 146.36C118.653 145.444 119.644 144.19 120.24 142.74C121.043 141.061 121.299 139.172 120.97 137.34C120.07 133.12 114.17 131.03 111.47 134.84C109.16 138.12 108.12 145.42 112.93 147.08Z" stroke="#19BC9C" stroke-linecap="round" stroke-linejoin="round"/>
<path d="M111.74 149.42C111.154 150.25 110.858 151.25 110.899 152.266C110.939 153.281 111.315 154.255 111.966 155.035C112.617 155.815 113.508 156.358 114.5 156.58C115.491 156.801 116.529 156.689 117.45 156.26" stroke="#19BC9C" stroke-linecap="round" stroke-linejoin="round"/>
<path d="M117.56 154C118.41 154.089 119.244 154.291 120.04 154.6L119.29 157.08" stroke="#19BC9C" stroke-linecap="round" stroke-linejoin="round"/>
<path d="M149.28 115.3C150.033 115.208 150.751 114.927 151.367 114.482C151.982 114.038 152.475 113.446 152.8 112.76C153.183 111.594 153.242 110.346 152.97 109.15L152.56 106.09C152.437 105.701 152.443 105.283 152.576 104.898C152.71 104.512 152.963 104.18 153.3 103.95C152.575 102.558 152.339 100.962 152.63 99.42L153 94.72C153.072 94.2886 153.024 93.8456 152.86 93.44C152.598 93.0694 152.243 92.775 151.83 92.587C151.417 92.399 150.961 92.3241 150.51 92.37" stroke="#19BC9C" stroke-linecap="round" stroke-linejoin="round"/>
<path d="M107.07 103.27C106.15 103.45 105.64 104.43 105.41 105.34C104.6 108.64 105.81 112.4 104.15 115.34C105.15 116.01 105.15 117.51 105.03 118.73C104.876 120.81 104.97 122.902 105.31 124.96C105.349 125.517 105.566 126.047 105.93 126.47C106.028 126.562 106.143 126.634 106.27 126.681C106.396 126.727 106.53 126.748 106.665 126.742C106.799 126.735 106.931 126.701 107.052 126.643C107.173 126.584 107.282 126.501 107.37 126.4" stroke="#19BC9C" stroke-linecap="round" stroke-linejoin="round"/>
<path d="M23.68 159C19.9649 164.697 16.8484 170.762 14.38 177.1" stroke="#3F555A" stroke-linecap="round" stroke-linejoin="round"/>
<path d="M39.23 169.83C38.5633 174.65 37.7767 179.453 36.87 184.24" stroke="#3F555A" stroke-linecap="round" stroke-linejoin="round"/>
<path d="M27.17 156.14C26.94 156.77 27.17 157.58 28 157.57C29 157.57 29.6 156.06 29.58 155.21C29.5729 155.065 29.5284 154.925 29.4509 154.802C29.3733 154.679 29.2654 154.579 29.1375 154.51C29.0096 154.442 28.8662 154.408 28.7212 154.411C28.5762 154.415 28.4345 154.456 28.31 154.53C27.7517 154.915 27.3478 155.486 27.17 156.14V156.14Z" stroke="#3F555A" stroke-linecap="round" stroke-linejoin="round"/>
<path d="M160.77 131.61C159.685 130.05 158.33 128.695 156.77 127.61C155.85 126.96 153.99 126.18 153.19 127.4C151.59 129.83 153.42 134.61 154.56 136.86C156.75 141.2 159.56 145.01 161.99 148.7" fill="white"/>
<path d="M160.77 131.61C159.685 130.05 158.33 128.695 156.77 127.61C155.85 126.96 153.99 126.18 153.19 127.4C151.59 129.83 153.42 134.61 154.56 136.86C156.75 141.2 159.56 145.01 161.99 148.7" stroke="#3F555A" stroke-linecap="round" stroke-linejoin="round"/>
<path d="M161.89 169.83C162.557 174.65 163.343 179.453 164.25 184.24" stroke="#3F555A" stroke-linecap="round" stroke-linejoin="round"/>
</svg>
