<svg id="cleanup" xmlns="http://www.w3.org/2000/svg" viewBox="0 0 280 280"><title>into-the-exam</title><rect x="59.85" y="63.37" width="87.08" height="128.29" style="fill:#d0e4f1;stroke:#d0e4f1;stroke-linecap:round;stroke-linejoin:round"/><rect x="62.8" y="60.42" width="87.08" height="128.29" style="fill:#fff;stroke:#a1c2d8;stroke-linecap:round;stroke-linejoin:round"/><rect x="71.03" y="105.46" width="72.28" height="22.75" style="fill:none;stroke:#a1c2d8;stroke-linecap:round;stroke-linejoin:round"/><path d="M74.07,79.39c-1.35.08-2.09,1.54-2.05,2.78a3.59,3.59,0,0,0,.74,2.18,2.72,2.72,0,0,0,2.17,1c1.37-.06,2.33-1.22,3.07-2.28,3.05-4.39,5.83-8.93,8.6-13.46V85.36" style="fill:none;stroke:#a1c2d8;stroke-linecap:round;stroke-linejoin:round"/><line x1="89.18" y1="85.36" x2="83.85" y2="85.36" style="fill:none;stroke:#a1c2d8;stroke-linecap:round;stroke-linejoin:round"/><line x1="86.01" y1="79.31" x2="80.69" y2="79.31" style="fill:none;stroke:#a1c2d8;stroke-linecap:round;stroke-linejoin:round"/><line x1="101.04" y1="85.36" x2="141.27" y2="85.36" style="fill:none;stroke:#a1c2d8;stroke-linecap:round;stroke-linejoin:round"/><circle cx="95.04" cy="85.36" r="0.71" style="fill:#a1c2d8"/><path d="M71.26,143.45l1.56-1.32c.69-.59.95-.91.95-1.37a.76.76,0,0,0-.82-.79,1.24,1.24,0,0,0-1,.56.41.41,0,0,1-.72-.27.45.45,0,0,1,.1-.27,2,2,0,0,1,1.68-.82,1.52,1.52,0,0,1,1.67,1.51h0c0,.8-.42,1.23-1.32,2l-1,.87h2.05a.39.39,0,0,1,0,.78H71.51a.43.43,0,0,1-.48-.42A.55.55,0,0,1,71.26,143.45Z" style="fill:#a1c2d8"/><circle cx="77" cy="100.79" r="0.47" style="fill:#a1c2d8"/><path d="M72.1,97l-.52.16-.16,0A.39.39,0,0,1,71,96.8a.39.39,0,0,1,.3-.38l.77-.25a1.55,1.55,0,0,1,.43-.08h0a.43.43,0,0,1,.44.44v4.28a.44.44,0,0,1-.88,0Z" style="fill:#a1c2d8"/><line x1="79.55" y1="100.79" x2="93.24" y2="100.79" style="fill:none;stroke:#a1c2d8;stroke-linecap:round;stroke-linejoin:round"/><line x1="95.99" y1="100.79" x2="109.4" y2="100.79" style="fill:none;stroke:#a1c2d8;stroke-linecap:round;stroke-linejoin:round"/><rect x="71.03" y="148.51" width="72.28" height="22.75" style="fill:none;stroke:#a1c2d8;stroke-linecap:round;stroke-linejoin:round"/><polyline points="122.15 105.46 143.32 105.46 143.32 128.21 103.47 128.21" style="fill:#fff;stroke:#19bc9c;stroke-linecap:round;stroke-linejoin:round"/><polyline points="99.77 148.51 143.32 148.51 143.32 171.27 106.34 171.27" style="fill:#fff;stroke:#19bc9c;stroke-linecap:round;stroke-linejoin:round"/><circle cx="77" cy="143.85" r="0.47" style="fill:#a1c2d8"/><line x1="79.55" y1="143.85" x2="88.33" y2="143.85" style="fill:none;stroke:#a1c2d8;stroke-linecap:round;stroke-linejoin:round"/><line x1="92.06" y1="143.85" x2="109.4" y2="143.85" style="fill:none;stroke:#a1c2d8;stroke-linecap:round;stroke-linejoin:round"/><line x1="126.2" y1="109.7" x2="138.51" y2="109.7" style="fill:none;stroke:#19bc9c;stroke-linecap:round;stroke-linejoin:round"/><line x1="120.94" y1="114.46" x2="136.32" y2="114.46" style="fill:none;stroke:#19bc9c;stroke-linecap:round;stroke-linejoin:round"/><line x1="116.05" y1="119.21" x2="124.3" y2="119.21" style="fill:none;stroke:#19bc9c;stroke-linecap:round;stroke-linejoin:round"/><line x1="128.63" y1="119.21" x2="138.84" y2="119.21" style="fill:none;stroke:#19bc9c;stroke-linecap:round;stroke-linejoin:round"/><line x1="112.4" y1="123.97" x2="130.06" y2="123.97" style="fill:none;stroke:#19bc9c;stroke-linecap:round;stroke-linejoin:round"/><polyline points="131.29 136.32 135.55 139.52 140.65 132.84" style="fill:none;stroke:#19bc9c;stroke-linecap:round;stroke-linejoin:round"/><polyline points="131.29 179.77 135.55 182.97 140.65 176.29" style="fill:none;stroke:#19bc9c;stroke-linecap:round;stroke-linejoin:round"/><line x1="123.5" y1="152.75" x2="135.8" y2="152.75" style="fill:none;stroke:#19bc9c;stroke-linecap:round;stroke-linejoin:round"/><line x1="106.47" y1="157.51" x2="129.09" y2="157.51" style="fill:none;stroke:#19bc9c;stroke-linecap:round;stroke-linejoin:round"/><line x1="108.82" y1="162.27" x2="126.12" y2="162.27" style="fill:none;stroke:#19bc9c;stroke-linecap:round;stroke-linejoin:round"/><line x1="109.7" y1="167.03" x2="134.6" y2="167.03" style="fill:none;stroke:#19bc9c;stroke-linecap:round;stroke-linejoin:round"/><line x1="119.64" y1="152.75" x2="106.34" y2="152.75" style="fill:none;stroke:#19bc9c;stroke-linecap:round;stroke-linejoin:round"/><polyline points="149.88 97.05 149.88 188.71 121.88 188.71" style="fill:none;stroke:#19bc9c;stroke-linecap:round;stroke-linejoin:round"/><polygon points="216.94 208.76 197.19 188.97 186.97 198.7 206.72 218.5 216.94 208.76" style="fill:#f56f40"/><polygon points="197.38 188.5 192.62 183.73 186.27 189.96 191.03 194.73 197.38 188.5" style="fill:none;stroke:#3f555a;stroke-linecap:round;stroke-linejoin:round"/><path d="M223.18,202,205,183.87a2.29,2.29,0,0,0-3.23,0l-15,15a2.29,2.29,0,0,0,0,3.23L204,219.42" style="fill:none;stroke:#3f555a;stroke-linecap:round;stroke-linejoin:round"/><path d="M168.45,175.58s17.23-9,14.66-32.49" style="fill:none;stroke:#d0e4f1;stroke-linecap:round;stroke-linejoin:round;stroke-width:17px"/><circle cx="175.15" cy="122.04" r="7.48" style="fill:#d0e4f1"/><path d="M200,147.14A50.11,50.11,0,1,1,149.88,97,50.11,50.11,0,0,1,200,147.14Z" style="fill:none;stroke:#3f555a;stroke-linecap:round;stroke-linejoin:round"/><path d="M200,147.14A50.11,50.11,0,1,1,149.88,97,50.11,50.11,0,0,1,200,147.14Z" style="fill:none;stroke:#3f555a;stroke-linecap:round;stroke-linejoin:round"/><path d="M190.35,106.67a57.24,57.24,0,1,0,0,80.94A57.23,57.23,0,0,0,190.35,106.67Zm-75.9,75.9a50.1,50.1,0,1,1,70.86,0A50.11,50.11,0,0,1,114.45,182.57Z" style="fill:#fff;stroke:#3f555a;stroke-linecap:round;stroke-linejoin:round"/><path d="M185.31,109.75A50.09,50.09,0,0,0,99.8,146.16a50.09,50.09,0,0,1,100.16,0A50,50,0,0,0,185.31,109.75Z" style="fill:#d0e4f1"/><path d="M190.36,185.65a57.22,57.22,0,0,1-97.69-39.49,57.22,57.22,0,1,0,114.43,0A57,57,0,0,1,190.36,185.65Z" style="fill:#d0e4f1"/><path d="M190.35,106.67a57.24,57.24,0,1,0,0,80.94A57.23,57.23,0,0,0,190.35,106.67Zm-75.9,75.9a50.1,50.1,0,1,1,70.86,0A50.11,50.11,0,0,1,114.45,182.57Z" style="fill:none;stroke:#3f555a;stroke-linecap:round;stroke-linejoin:round"/></svg>