<svg id="cleanup" xmlns="http://www.w3.org/2000/svg" viewBox="0 0 280 280"><title>critital-thinking</title><rect x="76.42" y="54.68" width="135.26" height="81.65" style="fill:none;stroke:#e7f1f8;stroke-miterlimit:10"/><rect x="108.95" y="33.6" width="70.21" height="123.81" transform="translate(239.56 -48.54) rotate(90)" style="fill:none;stroke:#e7f1f8;stroke-miterlimit:10"/><rect x="108.95" y="92.85" width="70.21" height="5.32" transform="translate(239.56 -48.54) rotate(90)" style="fill:none;stroke:#e7f1f8;stroke-miterlimit:10"/><rect x="140.76" y="92.85" width="70.21" height="5.32" transform="translate(271.38 -80.36) rotate(90)" style="fill:none;stroke:#e7f1f8;stroke-miterlimit:10"/><rect x="75.52" y="92.85" width="70.21" height="5.32" transform="translate(206.14 -15.12) rotate(90)" style="fill:none;stroke:#e7f1f8;stroke-miterlimit:10"/><path d="M223,162.93c-2.86-2.86,4.77-5.72,5.72-9.54,1.26-2.95-.27-4.78-2.86-5.91H54.74a13.15,13.15,0,0,0-1.49,5c0,9.81,5.36,22,0,30.45H229C231,176.54,229.26,169.17,223,162.93Z" style="fill:#e7f1f8"/><line x1="203.19" y1="182.89" x2="203.19" y2="163.58" style="fill:none;stroke:#3f555a;stroke-linecap:round;stroke-linejoin:round"/><path d="M90.63,144.51a2.78,2.78,0,0,0,2.91-2.62v-17a.64.64,0,0,1,.67-.6h0a.64.64,0,0,0,.67-.6v-.3a.64.64,0,0,0-.67-.6H87a.64.64,0,0,0-.67.6v.3a.64.64,0,0,0,.67.6h0a.64.64,0,0,1,.67.6v17a2.78,2.78,0,0,0,2.91,2.62Z" style="fill:#fff;stroke:#3f555a;stroke-linecap:round;stroke-linejoin:round"/><path d="M90.63,142.84a1,1,0,0,1-1.05-.95v-9.24h2.11v9.24A1,1,0,0,1,90.63,142.84Z" style="fill:#f56f40;stroke:#f56f40;stroke-linecap:round;stroke-linejoin:round"/><path d="M79.35,144.51a2.78,2.78,0,0,0,2.91-2.62v-17a.64.64,0,0,1,.67-.6h0a.64.64,0,0,0,.67-.6v-.3a.64.64,0,0,0-.67-.6H75.76a.64.64,0,0,0-.67.6v.3a.64.64,0,0,0,.67.6h0a.64.64,0,0,1,.67.6v17a2.78,2.78,0,0,0,2.91,2.62Z" style="fill:#fff;stroke:#3f555a;stroke-linecap:round;stroke-linejoin:round"/><path d="M79.35,142.84a1,1,0,0,1-1.05-.95v-9.24H80.4v9.24A1,1,0,0,1,79.35,142.84Z" style="fill:#19bc9c;stroke:#19bc9c;stroke-linecap:round;stroke-linejoin:round"/><path d="M68.07,144.51A2.78,2.78,0,0,0,71,141.89v-17a.64.64,0,0,1,.67-.6h0a.64.64,0,0,0,.67-.6v-.3a.64.64,0,0,0-.67-.6H64.47a.64.64,0,0,0-.67.6v.3a.64.64,0,0,0,.67.6h0a.64.64,0,0,1,.67.6v17a2.78,2.78,0,0,0,2.91,2.62Z" style="fill:#fff;stroke:#3f555a;stroke-linecap:round;stroke-linejoin:round"/><path d="M68.07,142.84a1,1,0,0,1-1.05-.95v-9.24h2.11v9.24A1,1,0,0,1,68.07,142.84Z" style="fill:#f56f40;stroke:#f56f40;stroke-linecap:round;stroke-linejoin:round"/><circle cx="70.32" cy="107.82" r="3" style="fill:#fff;stroke:#3f555a;stroke-linecap:round;stroke-linejoin:round"/><circle cx="80.75" cy="104.2" r="1.4" style="fill:#fff;stroke:#3f555a;stroke-linecap:round;stroke-linejoin:round"/><circle cx="88.13" cy="113.32" r="2.5" style="fill:#fff;stroke:#3f555a;stroke-linecap:round;stroke-linejoin:round"/><circle cx="78.14" cy="115.42" r="1.21" style="fill:#fff;stroke:#3f555a;stroke-linecap:round;stroke-linejoin:round"/><circle cx="66.76" cy="117.06" r="1.08" style="fill:#fff;stroke:#3f555a;stroke-linecap:round;stroke-linejoin:round"/><path d="M99.81,147.49V129.54a2.37,2.37,0,0,0-2.37-2.37H61.18a2.37,2.37,0,0,0-2.37,2.37v17.94h2.7V129.94a.59.59,0,0,1,.59-.59H96.66a.59.59,0,0,1,.59.59v17.55Z" style="fill:#fff;stroke:#3f555a;stroke-linecap:round;stroke-linejoin:round"/><line x1="51.57" y1="147.49" x2="229.21" y2="147.49" style="fill:none;stroke:#3f555a;stroke-linecap:round;stroke-linejoin:round"/><line x1="51.57" y1="157.03" x2="229.21" y2="157.03" style="fill:none;stroke:#3f555a;stroke-linecap:round;stroke-linejoin:round"/><polygon points="206.6 227.04 175.61 226.93 170.2 198.71 196.42 198.8 206.6 227.04" style="fill:#fff;stroke:#3f555a;stroke-linecap:round;stroke-linejoin:round"/><line x1="177.97" y1="204.77" x2="191.41" y2="204.81" style="fill:none;stroke:#3f555a;stroke-linecap:round;stroke-linejoin:round"/><line x1="179.38" y1="210.18" x2="192.81" y2="210.22" style="fill:none;stroke:#3f555a;stroke-linecap:round;stroke-linejoin:round"/><line x1="179.82" y1="215.58" x2="195.17" y2="215.63" style="fill:none;stroke:#3f555a;stroke-linecap:round;stroke-linejoin:round"/><line x1="179.31" y1="220.98" x2="198.48" y2="221.05" style="fill:none;stroke:#3f555a;stroke-linecap:round;stroke-linejoin:round"/><path d="M206.23,115c5.53,40.92-39.51,36.55-39.51,36.55l-2.19-9.36s31.2,8.1,31.93-25.74Z" style="fill:#fff;stroke:#3f555a;stroke-linecap:round;stroke-linejoin:round"/><path d="M171.53,146.61a10.08,10.08,0,0,1,.4,3.88" style="fill:none;stroke:#c3d4e0;stroke-linecap:round;stroke-linejoin:round"/><path d="M177.33,145.94a10.08,10.08,0,0,1,.4,3.88" style="fill:none;stroke:#c3d4e0;stroke-linecap:round;stroke-linejoin:round"/><path d="M183.95,143.79a10.08,10.08,0,0,1,1.26,3.69" style="fill:none;stroke:#c3d4e0;stroke-linecap:round;stroke-linejoin:round"/><path d="M196.57,135.47a10.08,10.08,0,0,1,3,2.45" style="fill:none;stroke:#c3d4e0;stroke-linecap:round;stroke-linejoin:round"/><path d="M199,129.95a10.08,10.08,0,0,1,3.48,1.78" style="fill:none;stroke:#c3d4e0;stroke-linecap:round;stroke-linejoin:round"/><path d="M199.9,124.59a10.08,10.08,0,0,1,3.85.63" style="fill:none;stroke:#c3d4e0;stroke-linecap:round;stroke-linejoin:round"/><path d="M200.57,119.35a10.08,10.08,0,0,1,3.89.4" style="fill:none;stroke:#c3d4e0;stroke-linecap:round;stroke-linejoin:round"/><path d="M170,182.89c-1.31-33.31-2.28-37.94-7.21-44.34-6.6-8.55-19.49-8.27-29.13-3.57-15,7.31-8,33.7-1.59,47.91" style="fill:#3290c1;stroke:#3f555a;stroke-linecap:round;stroke-linejoin:round"/><path d="M145.11,124.79s2.21,6.8,1.43,8a6.77,6.77,0,0,1-4.09,2.51c-1.82.46-4,.47-5.29-.89s-1.54-6.89-1.45-8.66" style="fill:#fff;stroke:#3f555a;stroke-linecap:round;stroke-linejoin:round"/><path d="M176.79,152.56c-6.71,3.59-13.84,7.07-20.89,6.88a21.44,21.44,0,0,1-15.73-8.05c-2-2.44-5.43-3.82-8-2-3.14,2.29-2.11,4.27-2.11,4.27a31,31,0,0,0,25.63,15.61c9.36.25,17.79-3.82,25.62-8Z" style="fill:#fff;stroke:#3f555a;stroke-linecap:round;stroke-linejoin:round"/><path d="M140.06,158.39a10.08,10.08,0,0,1-2.79,2.73" style="fill:none;stroke:#c3d4e0;stroke-linecap:round;stroke-linejoin:round"/><path d="M146.54,163.44a5.33,5.33,0,0,1-.4,2.33" style="fill:none;stroke:#c3d4e0;stroke-linecap:round;stroke-linejoin:round"/><path d="M154.31,165.45a8.21,8.21,0,0,1,.32,2.8" style="fill:none;stroke:#c3d4e0;stroke-linecap:round;stroke-linejoin:round"/><path d="M162.85,164.76l.79,2.36" style="fill:none;stroke:#c3d4e0;stroke-linecap:round;stroke-linejoin:round"/><path d="M171.25,162.5a5.21,5.21,0,0,1,1,2.08" style="fill:none;stroke:#c3d4e0;stroke-linecap:round;stroke-linejoin:round"/><path d="M119,98.53a12.66,12.66,0,0,1-8.32-12.06,8.36,8.36,0,0,1,1.94-5.37,8.8,8.8,0,0,1,4.29-2.4,17.9,17.9,0,0,1,11.74,1.18A30.87,30.87,0,0,1,138.31,87a28.76,28.76,0,0,1,6.12,8.92" style="fill:#f56f40;stroke:#d65129;stroke-linecap:round;stroke-linejoin:round"/><path d="M124,98.27a84.7,84.7,0,0,1,2-10.12,13.06,13.06,0,0,1,1.33-3.54c3.37-5.55,12.28-5.86,17.63-3.35a16,16,0,0,1,9.23,13.65" style="fill:#f56f40"/><path d="M132.07,81a16,16,0,0,1,22.1,13.87" style="fill:none;stroke:#d65129;stroke-linecap:round;stroke-linejoin:round"/><path d="M119,98.53a12.66,12.66,0,0,1-8.32-12.06,8.36,8.36,0,0,1,1.94-5.37,8.8,8.8,0,0,1,4.29-2.4,17.9,17.9,0,0,1,11.74,1.18A30.87,30.87,0,0,1,138.31,87a28.76,28.76,0,0,1,6.12,8.92" style="fill:none;stroke:#d65129;stroke-linecap:round;stroke-linejoin:round"/><ellipse cx="158.22" cy="109.38" rx="5.54" ry="14.04" transform="translate(-10.1 16.28) rotate(-5.71)" style="fill:#fff;stroke:#3f555a;stroke-linecap:round;stroke-linejoin:round"/><path d="M114.91,99.6c-3,.3-4.88,6.8-4.11,14.52s3.86,13.72,6.9,13.42l41.91-4.19c-3,.3-6.13-5.7-6.9-13.42s1.07-14.21,4.11-14.52c0,0-8.16.05-22.59,1.5S114.91,99.6,114.91,99.6Z" style="fill:#fff;stroke:#3f555a;stroke-linecap:round;stroke-linejoin:round"/><path d="M145.35,116a14.25,14.25,0,0,1-1.18-6.06" style="fill:none;stroke:#3f555a;stroke-linecap:round;stroke-linejoin:round"/><path d="M128.06,118.37l1.74-3.44,2.52,3-4.26.46" style="fill:#f56f40;stroke:#d65129;stroke-linecap:round;stroke-linejoin:round"/><path d="M127.19,122.44c4.59,1.89,9.17-.91,9.17-.91" style="fill:none;stroke:#3f555a;stroke-linecap:round;stroke-linejoin:round"/><path d="M142.53,107.3a2.78,2.78,0,0,1,2.46-.35" style="fill:none;stroke:#3f555a;stroke-linecap:round;stroke-linejoin:round"/><path d="M117.61,118.19a14.25,14.25,0,0,1-1.14-6.07" style="fill:none;stroke:#3f555a;stroke-linecap:round;stroke-linejoin:round"/><path d="M114.85,109.44a2.78,2.78,0,0,1,2.46-.33" style="fill:none;stroke:#3f555a;stroke-linecap:round;stroke-linejoin:round"/><circle cx="102.12" cy="115.41" r="2.95" transform="translate(-10.97 10.73) rotate(-5.71)" style="fill:#f56f40;stroke:#d65129;stroke-linecap:round;stroke-linejoin:round"/><path d="M103.75,115.34l7.05-.71" style="fill:none;stroke:#3f555a;stroke-linecap:round;stroke-linejoin:round"/><path d="M170,108.61l-10.53,1.05" style="fill:none;stroke:#3f555a;stroke-linecap:round;stroke-linejoin:round"/><circle cx="171.07" cy="108.41" r="2.95" transform="translate(-9.94 17.56) rotate(-5.71)" style="fill:#f56f40;stroke:#d65129;stroke-linecap:round;stroke-linejoin:round"/><path d="M212.76,154.34l-15.55-11.16-5.63-13.84a1.65,1.65,0,0,0-1.28-3l-7.6,3.09a1.65,1.65,0,0,0,1.2,3.07l5.63,13.84-3.35,18.84a3.78,3.78,0,0,0,5.14,4.16l20.65-8.4A3.78,3.78,0,0,0,212.76,154.34Z" style="fill:#fff;stroke:#3f555a;stroke-linecap:round;stroke-linejoin:round"/><path d="M189.88,165.73l20.52-8.34-7.26-5.21c-3.86,1.89-7.72,3.82-11.77,5.51Z" style="fill:#f56f40;stroke:#f56f40;stroke-linecap:round;stroke-linejoin:round"/><path d="M183.74,150.25a48.43,48.43,0,0,1,7-4c1.75-.82,3.91-1.49,5.48-.37a5.35,5.35,0,0,1,1.31,1.53,9.79,9.79,0,0,1,1.52,3.46,4.42,4.42,0,0,1-.79,3.6,6.41,6.41,0,0,1-1.43,1.16q-3.91,2.58-8,4.78c-1.46.78-4.37,2.47-6,2.14a5.55,5.55,0,0,1-3.11-2.55,27.74,27.74,0,0,1-3.4-6.63,5,5,0,0,1-.37-1.84c.06-1.3,4.43-4.32,5.48-5.06,1.48-1,6.11-3.24,7-3l1.16,2.86" style="fill:#fff;stroke:#3f555a;stroke-linecap:round;stroke-linejoin:round"/><path d="M184.42,119.86l1.64-.24a.76.76,0,0,0,.64-.86l-.13-.87,22.53-3.34a3,3,0,0,0,2.55-3.43l-.45-3.07a3,3,0,0,0-3.43-2.55l-22.53,3.34-.13-.87a.76.76,0,0,0-.86-.64l-1.64.24a.76.76,0,0,0-.64.86l1.6,10.78A.76.76,0,0,0,184.42,119.86Z" style="fill:#fff"/><path d="M211.19,108.05l.45,3.07a3,3,0,0,1-2.55,3.44l-22.53,3.34.13.87a.76.76,0,0,1-.64.85l-1.63.24a.75.75,0,0,1-.86-.63l-.63-4.25Z" style="fill:#19bc9c"/><path d="M184.42,119.86l1.64-.24a.76.76,0,0,0,.64-.86l-.13-.87,22.53-3.34a3,3,0,0,0,2.55-3.43l-.45-3.07a3,3,0,0,0-3.43-2.55l-22.53,3.34-.13-.87a.76.76,0,0,0-.86-.64l-1.64.24a.76.76,0,0,0-.64.86l1.6,10.78A.76.76,0,0,0,184.42,119.86Z" style="fill:none;stroke:#3f555a;stroke-miterlimit:10"/><rect x="191.55" y="100.49" width="11.87" height="9.53" rx="3" ry="3" transform="translate(-13.29 30.07) rotate(-8.43)" style="fill:#fff;stroke:#3f555a;stroke-linecap:round;stroke-linejoin:round"/><line x1="50" y1="182.89" x2="231.79" y2="182.89" style="fill:none;stroke:#3f555a;stroke-linecap:round;stroke-linejoin:round"/><polygon points="213.9 222.27 181.78 222.54 173.13 194.56 199.49 194.33 213.9 222.27" style="fill:#fff;stroke:#231f20;stroke-miterlimit:10"/><line x1="181.84" y1="200.48" x2="195.35" y2="200.37" style="fill:#fff;stroke:#231f20;stroke-miterlimit:10"/><line x1="184.05" y1="205.84" x2="197.56" y2="205.72" style="fill:#fff;stroke:#231f20;stroke-miterlimit:10"/><line x1="185.3" y1="211.2" x2="200.73" y2="211.07" style="fill:#fff;stroke:#231f20;stroke-miterlimit:10"/><line x1="185.59" y1="216.57" x2="204.86" y2="216.41" style="fill:#fff;stroke:#231f20;stroke-miterlimit:10"/><line x1="87.17" y1="157.03" x2="87.17" y2="182.89" style="fill:none;stroke:#3f555a;stroke-linecap:round;stroke-linejoin:round"/><circle cx="78.58" cy="164.94" r="1.49" style="fill:none;stroke:#3f555a;stroke-linecap:round;stroke-linejoin:round"/><circle cx="95.76" cy="164.94" r="1.49" style="fill:none;stroke:#3f555a;stroke-linecap:round;stroke-linejoin:round"/><path d="M63.61,208.6l12.51-17.7s13.15-4.31,27.32,8.82c0,0,9.83-11.24,28.79-.75l-11.48,18.64s-15-7.71-26.22-3.19C94.52,214.43,78.85,203.84,63.61,208.6Z" style="fill:none;stroke:#3f555a;stroke-linecap:round;stroke-linejoin:round"/><line x1="94.52" y1="214.43" x2="103.44" y2="199.73" style="fill:none;stroke:#3f555a;stroke-linecap:round;stroke-linejoin:round"/><path d="M65.84,208l-2.35,3.28s17.3-1,30.19,5.45c0,0,6.4-4.13,28.71,4.11,1.29-1.79,12.23-20,12.23-20a12.22,12.22,0,0,0-3.28-.44" style="fill:none;stroke:#3f555a;stroke-linecap:round;stroke-linejoin:round"/><path d="M64.7,209.6S76.41,206,93.9,215.94c0,0,13.48-5.68,28.49,4.92" style="fill:none;stroke:#3f555a;stroke-linecap:round;stroke-linejoin:round"/><path d="M95.85,200.66s-7.7-6.41-17.14-5.42" style="fill:none;stroke:#3f555a;stroke-linecap:round;stroke-linejoin:round"/><path d="M93.56,204.8s-7.7-6.41-17.14-5.42" style="fill:none;stroke:#3f555a;stroke-linecap:round;stroke-linejoin:round"/><path d="M91.38,209.3s-7.7-6.41-17.14-5.42" style="fill:none;stroke:#3f555a;stroke-linecap:round;stroke-linejoin:round"/><path d="M104.3,204.76s8.82-3.19,16.67.9" style="fill:none;stroke:#3f555a;stroke-linecap:round;stroke-linejoin:round"/><path d="M106.44,200.12s8.82-3.19,16.67.9" style="fill:none;stroke:#3f555a;stroke-linecap:round;stroke-linejoin:round"/><path d="M100.86,209.45s8.82-3.19,16.67.9" style="fill:none;stroke:#3f555a;stroke-linecap:round;stroke-linejoin:round"/></svg>