<svg id="cleanup" xmlns="http://www.w3.org/2000/svg" viewBox="0 0 280 280"><title>flexible-alignment</title><path d="M213.65,205.52H193.32V185.19a1,1,0,0,0-1-1H173a1,1,0,0,0-1,1v20.33H150.66V163.86a1,1,0,0,0-1-1H130.34a1,1,0,0,0-1,1v20.33H109a1,1,0,0,0-1,1v20.33H86.68v-63a1,1,0,0,0-1-1H66.35a1,1,0,0,0-1,1v83.32a1,1,0,0,0,1,1H213.65a1,1,0,0,0,1-1V206.52A1,1,0,0,0,213.65,205.52Z" style="fill:#fff"/><rect x="65.35" y="219.76" width="149.31" height="7.08" style="fill:#a1c2d8"/><path d="M213.65,207.52H196.47a3.15,3.15,0,0,1-3.15-3.15V187.19a1,1,0,0,0-1-1H173a1,1,0,0,0-1,1V205a2.49,2.49,0,0,1-2.49,2.49H153.16a2.49,2.49,0,0,1-2.49-2.49V165.86a1,1,0,0,0-1-1H130.34a1,1,0,0,0-1,1v20.33H109a1,1,0,0,0-1,1v17a3.28,3.28,0,0,1-3.28,3.28H90a3.28,3.28,0,0,1-3.28-3.28V144.53a1,1,0,0,0-1-1H66.35a1,1,0,0,0-1,1v78.32a1,1,0,0,0,1,1H213.65a1,1,0,0,0,1-1V208.52A1,1,0,0,0,213.65,207.52Z" style="fill:#d0e4f1"/><path d="M213.65,205.52H193.32V185.19a1,1,0,0,0-1-1H173a1,1,0,0,0-1,1v20.33H150.66V163.86a1,1,0,0,0-1-1H130.34a1,1,0,0,0-1,1v20.33H109a1,1,0,0,0-1,1v20.33H86.68v-63a1,1,0,0,0-1-1H66.35a1,1,0,0,0-1,1v83.32a1,1,0,0,0,1,1H213.65a1,1,0,0,0,1-1V206.52A1,1,0,0,0,213.65,205.52Z" style="fill:none;stroke:#3f555a;stroke-linecap:round;stroke-linejoin:round"/><path d="M172,109.19V87.86h0V68.53a1,1,0,0,0-1-1H151.66a1,1,0,0,0-1,1v81.32a1,1,0,0,0,1,1H171a1,1,0,0,0,1-1V130.52h0V109.19Z" style="fill:#fff"/><path d="M172,110.34V89.61h0V70.81a1,1,0,0,0-1-1H151.66a1,1,0,0,0-1,1v79.06a1,1,0,0,0,1,1H171a1,1,0,0,0,1-1V131.08h0V110.34Z" style="fill:#3290c1"/><path d="M172,109.19V87.86h0V68.53a1,1,0,0,0-1-1H151.66a1,1,0,0,0-1,1v81.32a1,1,0,0,0,1,1H171a1,1,0,0,0,1-1V130.52h0V109.19Z" style="fill:none;stroke:#3f555a;stroke-linecap:round;stroke-linejoin:round"/><text transform="translate(92.9 219.76)" style="font-size:10px;fill:#3290c1;font-family:GothamRounded-Medium, Gotham Rounded;letter-spacing:0.1em">C<tspan x="8.38" y="0" style="letter-spacing:0.119970703125em">OMMON </tspan><tspan x="60.82" y="0">C</tspan><tspan x="69.19" y="0" style="letter-spacing:0.119970703125em">ORE</tspan></text><text transform="translate(156.97 100.87)" style="font-size:10px;fill:#fff;font-family:GothamRounded-Medium, Gotham Rounded;letter-spacing:0.12001953125em">A<tspan x="0.18" y="11.62">C</tspan><tspan x="0.63" y="23.24">T</tspan></text><rect x="86.68" y="106.45" width="21.33" height="10.69" rx="1.08" ry="1.08" style="fill:#109995"/><rect x="106.68" y="85.15" width="22.65" height="10.69" rx="1.08" ry="1.08" style="fill:#109995"/><path d="M128.34,55.15H109a1,1,0,0,0-1,1V74.68a1.8,1.8,0,0,1-1.8,1.8H87.68a1,1,0,0,0-1,1v36.66a1,1,0,0,0,1,1H107a1,1,0,0,0,1-1V95.47a1.66,1.66,0,0,1,1.66-1.66h18.67a1,1,0,0,0,1-1V74.48h0V56.15A1,1,0,0,0,128.34,55.15Z" style="fill:#19bc9c"/><path d="M128.34,53.15H109a1,1,0,0,0-1,1V74.48H87.68a1,1,0,0,0-1,1v40.66a1,1,0,0,0,1,1H107a1,1,0,0,0,1-1V95.81h20.33a1,1,0,0,0,1-1V74.48h0V54.15A1,1,0,0,0,128.34,53.15Z" style="fill:none;stroke:#3f555a;stroke-linecap:round;stroke-linejoin:round"/><text transform="translate(96.05 88.86)" style="font-size:10px;fill:#fff;font-family:GothamRounded-Medium, Gotham Rounded;letter-spacing:0.232177734375em">S<tspan x="8.72" y="0" style="letter-spacing:0.159912109375em">A</tspan><tspan x="18.05" y="0" style="letter-spacing:0.2400390625em">T</tspan></text><line x1="154.48" y1="87.86" x2="168.18" y2="87.86" style="fill:none;stroke:#3f555a;stroke-linecap:round;stroke-linejoin:round"/><line x1="154.48" y1="130.52" x2="168.18" y2="130.52" style="fill:none;stroke:#3f555a;stroke-linecap:round;stroke-linejoin:round"/><line x1="154.48" y1="86.86" x2="168.18" y2="86.86" style="fill:none;stroke:#fff;stroke-linecap:round;stroke-linejoin:round;opacity:0.4"/><line x1="154.48" y1="129.52" x2="168.18" y2="129.52" style="fill:none;stroke:#fff;stroke-linecap:round;stroke-linejoin:round;opacity:0.4"/><line x1="69.16" y1="162.86" x2="82.86" y2="162.86" style="fill:none;stroke:#3f555a;stroke-linecap:round;stroke-linejoin:round"/><line x1="133.7" y1="184.19" x2="147.39" y2="184.19" style="fill:none;stroke:#3f555a;stroke-linecap:round;stroke-linejoin:round"/><line x1="133.7" y1="205.52" x2="147.39" y2="205.52" style="fill:none;stroke:#3f555a;stroke-linecap:round;stroke-linejoin:round"/><line x1="176.54" y1="205.52" x2="190.23" y2="205.52" style="fill:none;stroke:#3f555a;stroke-linecap:round;stroke-linejoin:round"/><line x1="111.82" y1="205.52" x2="125.52" y2="205.52" style="fill:none;stroke:#3f555a;stroke-linecap:round;stroke-linejoin:round"/><line x1="129.34" y1="202.88" x2="129.34" y2="189.19" style="fill:none;stroke:#3f555a;stroke-linecap:round;stroke-linejoin:round"/><line x1="193.32" y1="223.21" x2="193.32" y2="209.52" style="fill:none;stroke:#3f555a;stroke-linecap:round;stroke-linejoin:round"/><line x1="69.16" y1="205.52" x2="82.86" y2="205.52" style="fill:none;stroke:#3f555a;stroke-linecap:round;stroke-linejoin:round"/><line x1="90.2" y1="94.81" x2="103.9" y2="94.81" style="fill:none;stroke:#fff;stroke-linecap:round;stroke-linejoin:round;opacity:0.4"/><line x1="111.93" y1="73.7" x2="125.63" y2="73.7" style="fill:none;stroke:#fff;stroke-linecap:round;stroke-linejoin:round;opacity:0.4"/><line x1="90.2" y1="95.81" x2="103.9" y2="95.81" style="fill:none;stroke:#3f555a;stroke-linecap:round;stroke-linejoin:round"/><line x1="111.93" y1="74.7" x2="125.63" y2="74.7" style="fill:none;stroke:#3f555a;stroke-linecap:round;stroke-linejoin:round"/><line x1="69.16" y1="184.19" x2="82.86" y2="184.19" style="fill:none;stroke:#3f555a;stroke-linecap:round;stroke-linejoin:round"/><line x1="69.16" y1="161.86" x2="82.86" y2="161.86" style="fill:none;stroke:#fff;stroke-linecap:round;stroke-linejoin:round"/><line x1="133.7" y1="183.19" x2="147.39" y2="183.19" style="fill:none;stroke:#fff;stroke-linecap:round;stroke-linejoin:round"/><line x1="133.7" y1="204.52" x2="147.39" y2="204.52" style="fill:none;stroke:#fff;stroke-linecap:round;stroke-linejoin:round"/><line x1="176.54" y1="204.52" x2="190.23" y2="204.52" style="fill:none;stroke:#fff;stroke-linecap:round;stroke-linejoin:round"/><line x1="111.82" y1="204.52" x2="125.52" y2="204.52" style="fill:none;stroke:#fff;stroke-linecap:round;stroke-linejoin:round"/><line x1="69.16" y1="204.52" x2="82.86" y2="204.52" style="fill:none;stroke:#fff;stroke-linecap:round;stroke-linejoin:round"/><line x1="69.16" y1="183.19" x2="82.86" y2="183.19" style="fill:none;stroke:#fff;stroke-linecap:round;stroke-linejoin:round"/><line x1="86.68" y1="223.21" x2="86.68" y2="209.52" style="fill:none;stroke:#3f555a;stroke-linecap:round;stroke-linejoin:round"/><path d="M239.63,161.65c3.22,0,3.22-5,0-5s-3.22,5,0,5Z" style="fill:#fff"/></svg>