<svg width="72" height="110" viewBox="0 0 72 110" fill="none" xmlns="http://www.w3.org/2000/svg">
<g clip-path="url(#clip0)">
<path d="M71 10V109H1V1H60" stroke="#0A486A" stroke-width="2" stroke-linejoin="round"/>
<path d="M60 1V10H71L60 1Z" stroke="#0A486A" stroke-width="2" stroke-linejoin="round"/>
<path d="M18.9794 21.1369L16.6056 14.9861C16.5353 14.8033 16.4614 14.5922 16.3841 14.3531C16.3067 14.1069 16.2328 13.8467 16.1625 13.5724C16.0148 14.1421 15.8636 14.6169 15.7088 14.9967L13.3351 21.1369H18.9794ZM23.2417 26.7496H21.6592C21.4763 26.7496 21.3286 26.7039 21.2161 26.6125C21.1035 26.521 21.0191 26.405 20.9629 26.2643L19.5491 22.6139H12.7653L11.3516 26.2643C11.3094 26.3909 11.2285 26.5034 11.109 26.6019C10.9894 26.7004 10.8417 26.7496 10.6659 26.7496H9.08332L15.1286 11.6312H17.1964L23.2417 26.7496Z" fill="#F3714E"/>
<path d="M10 36H52" stroke="#DAE6E8" stroke-width="2" stroke-linejoin="round"/>
<path d="M10 43H60" stroke="#DAE6E8" stroke-width="2" stroke-linejoin="round"/>
<path d="M10 50H53" stroke="#DAE6E8" stroke-width="2" stroke-linejoin="round"/>
<path d="M16.2575 70.1249C16.8412 70.1249 17.3441 70.058 17.7661 69.9244C18.1881 69.7908 18.5328 69.6044 18.8001 69.3652C19.0744 69.1191 19.2748 68.8307 19.4014 68.5001C19.528 68.1625 19.5913 67.7933 19.5913 67.3924C19.5913 66.6116 19.3135 65.9962 18.7579 65.5461C18.2022 65.0889 17.3687 64.8603 16.2575 64.8603H12.9869V70.1249H16.2575ZM12.9869 58.2453V63.4044H15.6877C16.2645 63.4044 16.7639 63.3411 17.1859 63.2145C17.6149 63.0879 17.9666 62.912 18.2409 62.687C18.5222 62.4619 18.7297 62.1911 18.8634 61.8746C18.997 61.5511 19.0638 61.1994 19.0638 60.8196C19.0638 59.9263 18.7965 59.2757 18.262 58.8678C17.7275 58.4528 16.8975 58.2453 15.7722 58.2453H12.9869ZM15.7722 56.6311C16.7006 56.6311 17.4989 56.7226 18.167 56.9054C18.8423 57.0883 19.3944 57.3486 19.8234 57.6862C20.2595 58.0238 20.5795 58.4387 20.7835 58.9311C20.9875 59.4164 21.0895 59.965 21.0895 60.5769C21.0895 60.9497 21.0297 61.3084 20.9101 61.653C20.7976 61.9906 20.6252 62.3072 20.3931 62.6026C20.161 62.898 19.8656 63.1652 19.5069 63.4044C19.1553 63.6365 18.7403 63.8264 18.262 63.9741C19.3733 64.1851 20.2068 64.5825 20.7624 65.1663C21.3251 65.743 21.6064 66.5026 21.6064 67.4451C21.6064 68.0851 21.4868 68.6689 21.2477 69.1964C21.0156 69.7239 20.671 70.1776 20.2138 70.5574C19.7636 70.9372 19.208 71.2326 18.5469 71.4436C17.8857 71.6476 17.1331 71.7496 16.2891 71.7496H10.9507V56.6311H15.7722Z" fill="#2887C2"/>
<path d="M10 81H57" stroke="#DAE6E8" stroke-width="2" stroke-linejoin="round"/>
<path d="M10 88H46" stroke="#DAE6E8" stroke-width="2" stroke-linejoin="round"/>
<path d="M10 95H50" stroke="#DAE6E8" stroke-width="2" stroke-linejoin="round"/>
</g>
<defs>
<clipPath id="clip0">
<rect width="72" height="110" fill="white"/>
</clipPath>
</defs>
</svg>
