<svg id="Layer_1" data-name="Layer 1" xmlns="http://www.w3.org/2000/svg" viewBox="0 0 651 451"><title>Artboard 1</title><g id="Symbols"><g id="illustration-pilot-1"><g id="home-illustration-pilot-1"><g id="Group" style="opacity:0.5"><path id="Shape" d="M518.62,327c0-2.78,11.74-5.12,26.19-5.12s41.77,2.26,41.77,5.12-27.32,5.12-41.77,5.12S518.62,329.85,518.62,327Z" style="fill:#a9d7f3"/><path id="Shape-2" data-name="Shape" d="M419.88,52.48c0-2.79,11.74-5.12,26.19-5.12s41.77,2.26,41.77,5.12-27.32,5.12-41.77,5.12S419.88,55.34,419.88,52.48Z" style="fill:#a9d7f3"/><g id="Shape-3" data-name="Shape"><path d="M566.18,259.91s-18.66,7.75-16.71-24.17,16.71-23.42,16.71-23.42,49.75,11,56.75-30.34h-1.66c-15.35,0-15.35-15.73,0-15.73h2.26c-.15-1.81-.3-3.62-.53-5.58-8.2-66-95.73-19.2-113.79-33.58s-16.63-47-16.63-47a49.08,49.08,0,0,0,2.56-22.22c-18.67,4-46,6.63-63.75,6.63-29.12,0-52.76-7.08-52.76-15.81s23.64-15.81,52.76-15.81a360.43,360.43,0,0,1,56.67,5.27C475.72,19,444.19.45,368.55.45,211.56.45,248.13,80,248.13,80s-15,32.68-41.39,47.06S52.83,94.64,40.94,160.6s24.61,52.78,24.61,52.78S87.08,205,89.94,236.79,65.55,261,65.55,261s-78-.07-63.29,86.51a43.14,43.14,0,0,0,12.64,23.8c15.51-6.33,41.47-10.62,70.9-10.62,47,0,85,10.77,85,24.09,0,4.52-4.36,8.74-12,12.35,0,0,191.32,3,222,21.53s40.49,35.92,70.75,31.1c45.3-7.23,48.09-52.33,69.54-52.55s62.46,0,62.46,0,60.14.6,65.93-49.55C659.73,261,566.18,259.91,566.18,259.91Zm-387.51,3.84c-37.33,0-67.59-7.08-67.59-15.74s30.26-15.73,67.59-15.73,67.58,7.07,67.58,15.73S216,263.75,178.67,263.75Zm361.47,79c-36.27,0-65.62-7.08-65.62-15.74s29.35-15.73,65.62-15.73,65.63,7.08,65.63,15.73S576.34,342.73,540.14,342.73Z" style="fill:#a9d7f3"/></g><ellipse id="Oval" cx="162.11" cy="248.01" rx="37.18" ry="5.12" style="fill:#a9d7f3"/><ellipse id="Oval-2" data-name="Oval" cx="78.04" cy="376.99" rx="56.9" ry="7.83" style="fill:#a9d7f3"/></g><g id="Group-2" data-name="Group"><path id="Shape-4" data-name="Shape" d="M151.62,386.7c14.68-8.36,25.52-87.86,8.73-95-14.52-6.17-49.37,59.25-45.08,88.46" style="fill:#3aa1d6"/><ellipse id="Oval-3" data-name="Oval" cx="137.63" cy="375.56" rx="22.96" ry="16.26" transform="translate(-112.87 63.74) rotate(-18.65)" style="fill:#3aa1d6"/><path id="Shape-5" data-name="Shape" d="M137.77,386.25c12-4.07,19.42-14.23,16.56-22.74a9.34,9.34,0,0,0-1.2-2.48,12.89,12.89,0,0,1,6.25,7.15c2.86,8.51-4.52,18.67-16.56,22.74-10.77,3.61-21.6,1.13-25.82-5.58C122.34,388.36,130,388.88,137.77,386.25Z" style="fill:#1785c8"/><path id="Shape-6" data-name="Shape" d="M159.38,368.18c-2-5.8-8.13-9.26-15.58-9.71l18.44-65.65c11.14,9.63,6.85,57.89-2.49,81.46A12.07,12.07,0,0,0,159.38,368.18Z" style="fill:#1785c8"/><g id="Shape-7" data-name="Shape"><path d="M115.27,380.53c-.15,0-.38-.15-.38-.3-3.54-23.72,19.27-73.11,36.21-86.21,3.68-2.86,6.85-3.76,9.41-2.63,3.53,1.5,9.4,8.05,8.43,34.55-.68,17.09-4.14,36.37-8.89,49a.35.35,0,1,1-.67-.23c9.56-25.67,13.7-77.09.9-82.59-2.26-1-5.19-.07-8.66,2.56-16.78,13-39.44,62-36,85.45,0,.15-.08.3-.38.38Z" style="fill:#164a67"/><path d="M133,393a25.05,25.05,0,0,1-7.15-1c-5.2-1.59-8.89-4.75-10.32-9-2.93-8.74,4.6-19.13,16.79-23.27a28.63,28.63,0,0,1,17.16-.67c5.19,1.58,8.88,4.74,10.31,9,2.94,8.74-4.59,19.13-16.78,23.27A34.14,34.14,0,0,1,133,393Zm9.33-34.18a29.59,29.59,0,0,0-9.71,1.66c-11.82,4-19.12,14-16.33,22.29,1.35,4,4.81,7,9.78,8.5a27.8,27.8,0,0,0,16.71-.67c11.82-4,19.12-14,16.34-22.29-1.36-4-4.82-7-9.79-8.51A24.46,24.46,0,0,0,142.29,358.84Z" style="fill:#164a67"/></g><path id="Shape-8" data-name="Shape" d="M240.52,274.37l-74.29,38.47-10.32,42.77a10.35,10.35,0,0,0,3.39,7,10.21,10.21,0,0,0,8.43,2.41l86-14.53,26.87-12.35Z" style="fill:#3aa1d6"/><path id="Shape-9" data-name="Shape" d="M280.63,338.07l-26.72,12.27-5.79,1.05-80.39,13.55a10.14,10.14,0,0,1-8.43-2.41,10,10,0,0,1-2.93-4.51l112.52-38.55Z" style="fill:#1785c8"/><path id="Shape-10" data-name="Shape" d="M166.08,365.47a10.47,10.47,0,0,1-7-2.64,10.83,10.83,0,0,1-3.09-4.66.37.37,0,0,1,.23-.46l112.6-38.54a.36.36,0,0,1,.45.15l11.67,18.59a.51.51,0,0,1,.07.31.24.24,0,0,1-.23.22l-26.72,12.27H254l-5.8,1.06-80.38,13.55A6.49,6.49,0,0,1,166.08,365.47Zm-9.19-7.23a9.26,9.26,0,0,0,2.71,4,10,10,0,0,0,8.13,2.34L248.12,351l5.72-1,26.27-12.13L268.82,320Z" style="fill:#164a67"/><path id="Shape-11" data-name="Shape" d="M166.08,365.47a10.54,10.54,0,0,1-10.54-9.86v-.08l10.31-42.69a.24.24,0,0,1,.23-.22l74.29-38.47a.48.48,0,0,1,.52.15L281,338a.44.44,0,0,1,.08.3.25.25,0,0,1-.23.23L254,350.79h-.08l-86,14.53A7.3,7.3,0,0,1,166.08,365.47Zm-9.79-9.86a9.77,9.77,0,0,0,3.31,6.7,10,10,0,0,0,8.13,2.33l86-14.53,26.42-12.2-39.74-63.09-73.84,38.25Z" style="fill:#164a67"/><path id="Shape-12" data-name="Shape" d="M497.63,222.8c-16.86,1.36-70.6-58.12-60.81-73.55,8.5-13.33,74.21,21.08,87.08,47.58" style="fill:#3aa1d6"/><ellipse id="Oval-4" data-name="Oval" cx="502.9" cy="205.68" rx="22.96" ry="16.26" transform="translate(-36.87 143.59) rotate(-15.68)" style="fill:#3aa1d6"/><path id="Shape-13" data-name="Shape" d="M508.85,214.6c-12.19,3.46-24.09-.83-26.5-9.49a18.24,18.24,0,0,1-.45-2.71,13,13,0,0,0-1.13,9.41c2.41,8.66,14.31,12.87,26.5,9.49,11-3.09,18.44-11.3,18.14-19.2C522.77,207.59,516.68,212.41,508.85,214.6Z" style="fill:#1785c8"/><path id="Shape-14" data-name="Shape" d="M480.85,211.89c-1.66-5.88,1.43-12.2,7.45-16.79L436,151.28c-3.76,14.23,26.95,51.65,47.95,65.88A12.16,12.16,0,0,1,480.85,211.89Z" style="fill:#1785c8"/><g id="Shape-15" data-name="Shape"><path d="M484.24,217.83a.3.3,0,0,1-.23-.07C473,210,459.25,196.08,449.09,182.3c-15.81-21.31-14.61-30-12.5-33.28,1.51-2.33,4.59-3.39,9.26-3.09,21.38,1.28,68,29.14,78.5,50.75a.38.38,0,0,1-.67.37C513.29,175.67,467,148,445.77,146.76q-6.54-.33-8.58,2.71c-3.38,5.27,1.21,17.09,12.5,32.38,10.16,13.7,23.78,27.55,34.77,35.31.15.15.23.37.08.52A.38.38,0,0,1,484.24,217.83Z" style="fill:#164a67"/><path d="M498.84,222.88a24.69,24.69,0,0,1-8.58-1.43c-5.12-1.81-8.58-5.2-9.86-9.49s0-9,3.46-13.25a28.41,28.41,0,0,1,14.53-9.11,28.83,28.83,0,0,1,17.16.23c5.12,1.8,8.58,5.19,9.86,9.48,2.48,8.81-5.57,18.82-18,22.36A30.6,30.6,0,0,1,498.84,222.88Zm-17.69-11.07c1.13,4.07,4.44,7.23,9.33,9a27.91,27.91,0,0,0,16.71.15c12-3.38,19.8-12.94,17.47-21.38-1.13-4.06-4.44-7.22-9.34-9a29.74,29.74,0,0,0-30.86,8.73C481.23,203.23,480,207.74,481.15,211.81Z" style="fill:#164a67"/></g><polyline id="Shape-16" data-name="Shape" points="356.05 208.5 339.42 176.8 323.24 167.99 329.11 192.84" style="fill:#1785c8"/><path id="Shape-17" data-name="Shape" d="M356.05,208.87c-.15,0-.3-.07-.3-.22L339.19,177l-18.44-13.25,7.91,28.76a.38.38,0,0,1-.23.45.37.37,0,0,1-.45-.23L319.77,163a.28.28,0,0,1,.15-.38.53.53,0,0,1,.46,0l19.27,13.93c.07,0,.07.08.15.15l16.63,31.7a.48.48,0,0,1-.15.52Z" style="fill:#164a67"/><path id="Shape-18" data-name="Shape" d="M211.54,235.37c-1,7.16,1,13.33,4.44,13.86s7.07-5,8.05-12.12.75-19.05-2.71-19.58S212.52,228.22,211.54,235.37Z" style="fill:#e7f1f8"/><path id="Shape-19" data-name="Shape" d="M216.43,249.6H216c-1.81-.22-3.31-1.88-4.22-4.66a23.4,23.4,0,0,1-.6-9.57c1-7.07,6.4-18.67,10.24-18.14,1.73.23,2.86,2.79,3.31,7.6a56.41,56.41,0,0,1-.3,12.35C223.43,244.26,220,249.6,216.43,249.6Zm-4.89-14.23.37.08a21.81,21.81,0,0,0,.53,9.26c.83,2.48,2,3.91,3.61,4.14,3.24.45,6.63-4.82,7.61-11.82a56.29,56.29,0,0,0,.3-12.2c-.38-4.21-1.36-6.77-2.71-6.92-2.64-.38-8.21,9.11-9.41,17.46Z" style="fill:#40565b"/><path id="Shape-20" data-name="Shape" d="M252.41,227.77l-34.1,15.81c-2.33-5.19-1.13-12,1.06-17.09l30.63-18" style="fill:#3aa1d6"/><path id="Shape-21" data-name="Shape" d="M218.31,244c-.15,0-.3-.08-.3-.23-2.41-4.74-1.2-12.2,1.05-17.47a.17.17,0,0,1,.16-.15l30.55-17.91a.39.39,0,0,1,.53.15c.15.22.08.37-.15.52l-30.48,17.85c-2.11,5-3.32,11.89-1.21,16.33l33.8-15.66a.47.47,0,0,1,.52.15.46.46,0,0,1-.15.53l-34.09,15.81A.27.27,0,0,1,218.31,244Z" style="fill:#164a67"/><path id="Shape-22" data-name="Shape" d="M368.85,156.78c5.8,4.36,8.73,10.16,6.62,12.94s-8.5,1.51-14.22-2.86-14-13-11.9-15.73S363.05,152.41,368.85,156.78Z" style="fill:#e7f1f8"/><path id="Shape-23" data-name="Shape" d="M371.86,171.53a11.27,11.27,0,0,1-2.18-.22,22,22,0,0,1-8.66-4.22c-5.42-4.07-14.45-13-12-16.26s14.38,1.28,20,5.57a21.7,21.7,0,0,1,6.39,7.15c1.36,2.56,1.43,4.82.3,6.25A4.59,4.59,0,0,1,371.86,171.53ZM352,150.6c-1.21,0-2,.23-2.41.76-1.81,2.4,5.95,10.69,11.82,15.2a21,21,0,0,0,8.35,4.07c2.56.53,4.44.15,5.35-1.13s.75-3.16-.38-5.5a20.85,20.85,0,0,0-6.17-6.92C363.43,153.09,356,150.6,352,150.6Z" style="fill:#40565b"/><path id="Shape-24" data-name="Shape" d="M329.63,182.6,370,167.92c-2-5.27-7.68-9.26-12.87-11.37l-34.33,9" style="fill:#3aa1d6"/><path id="Shape-25" data-name="Shape" d="M330.91,182.52a.4.4,0,0,1-.37-.22.31.31,0,0,1,.22-.45l38.69-14.16C367.72,163,362.08,159,357,157l-34.17,8.89c-.23.07-.38-.08-.45-.31s.07-.37.3-.45l34.32-9h.23c5.34,2.11,11.44,6.48,13.09,11.6a.36.36,0,0,1-.22.45l-39.07,14.23C331,182.52,331,182.52,330.91,182.52Z" style="fill:#164a67"/><polyline id="Shape-26" data-name="Shape" points="404.83 22.61 401.44 14.56 406.86 18.78 408.59 12.9 413.48 17.8 416.42 12.9 420.71 17.8 424.77 12.9 425.68 22.16" style="fill:#29b99a"/><path id="Shape-27" data-name="Shape" d="M404.83,23a.42.42,0,0,1-.38-.22l-3.31-8.06a.35.35,0,0,1,.15-.45.45.45,0,0,1,.45,0l5,3.84,1.58-5.35c.08-.15.15-.22.3-.22a.62.62,0,0,1,.38.07l4.51,4.52,2.71-4.44a.38.38,0,0,1,.3-.15c.16,0,.23,0,.31.15l4,4.51,3.84-4.51c.08-.15.23-.15.38-.15s.23.15.23.3l.9,9.26a.34.34,0,0,1-.3.37.35.35,0,0,1-.38-.3l-.83-8.43L421.09,18a.42.42,0,0,1-.31.15.65.65,0,0,1-.3-.15l-3.91-4.52-2.63,4.44a.4.4,0,0,1-.31.15c-.15,0-.22,0-.3-.07l-4.44-4.44-1.58,5.27a.23.23,0,0,1-.22.22.88.88,0,0,1-.38-.07l-4.22-3.32,2.79,6.7a.42.42,0,0,1-.23.53C404.9,23,404.83,23,404.83,23Z" style="fill:#0f716f"/><path id="Shape-28" data-name="Shape" d="M263.32,160.54S225.91,173.87,207.7,182c-24.24,10.76-44.64,0-45.92-21.46-1.35-21.68,29.44-40.88,93.64-41.11s82.42,9,119.83-10.54C412.43,89.47,429,48.44,425.68,22.24l-20.85.45c5,24.17-2.79,46.3-17.61,64.22-33.35,40.2-143.62,13-176.13,19.12-15.66,4-81.44,14.31-67,66s59.08,24.54,59.08,24.54,35.38-22.13,62-23.94" style="fill:#29b99a"/><path id="Shape-29" data-name="Shape" d="M425.68,22.16l-16.26.38A70.65,70.65,0,0,1,402.8,59.2a85.74,85.74,0,0,1-15.66,27.63C353.8,127,243.53,99.86,211,106c-11.67,2.93-51,9.41-64.5,33.88-1.74,6.7-1.66,14.53.82,23.64C161.78,215.2,206.42,188,206.42,188s31.54-19.73,57.43-23.41l-.6-4.07S225.84,173.87,207.62,182c-24.23,10.76-44.63,0-45.91-21.46A21.9,21.9,0,0,1,165.4,147c3.46-19.58,34.25-35.84,93.41-36.06,64.2-.23,82.42,9,119.82-10.54,20.63-10.77,34.85-28.16,42.91-45.93C425.53,42.87,426.88,31.57,425.68,22.16Z" style="fill:#8fd1be"/><path id="Shape-30" data-name="Shape" d="M178,204a32.56,32.56,0,0,1-11.82-2.11c-10.54-4.14-18.06-14.15-22.43-29.81-3.54-12.72-2.48-24,3.16-33.5,12.57-21.16,44.26-28.39,59.54-31.85,1.81-.38,3.39-.75,4.59-1,10.09-1.89,27.7-.61,47.95.9,44.33,3.24,105,7.68,128-19.88C398.2,73.13,410.4,51,404.45,22.84a.44.44,0,0,1,.08-.3.37.37,0,0,1,.3-.15l20.85-.45a.34.34,0,0,1,.37.3c1.73,13.78-1.88,30.57-10,46.15a96.59,96.59,0,0,1-40.57,41c-26.94,14.07-44.1,13.25-75.19,11.74-12.5-.6-26.72-1.28-44.79-1.2-41.92.15-72.48,8.28-86.25,23-5.05,5.42-7.46,11.37-7.08,17.77.6,9.41,4.89,17,12.12,21.38,8.81,5.34,20.92,5.27,33.27-.23,18-8,55.25-21.31,55.62-21.46a.31.31,0,0,1,.45.23.31.31,0,0,1-.22.45c-.38.15-37.64,13.48-55.55,21.46-12.57,5.57-25,5.64-34,.22-7.45-4.51-11.89-12.34-12.5-22q-.56-9.93,7.23-18.29c13.85-14.84,44.71-23,86.78-23.19,18.14-.08,32.29.6,44.86,1.2,31,1.51,48,2.34,74.82-11.67a96,96,0,0,0,40.27-40.65c8-15.44,11.67-31.92,10.09-45.55l-20.1.45c5.8,28.31-6.47,50.44-17.76,64.07-10.32,12.42-28.61,19.5-56,21.83-23.56,2-49.61.08-72.56-1.65-20.25-1.51-37.79-2.79-47.8-.91-1.2.3-2.78.68-4.59,1.06-15.13,3.46-46.67,10.69-59,31.54-5.57,9.34-6.55,20.41-3.09,32.9,4.29,15.36,11.67,25.22,22,29.29,8.88,3.54,18.37,2,24.69.07a51.64,51.64,0,0,0,11.82-5A234.39,234.39,0,0,1,224,184.86c11.14-5.27,27.32-11.75,41.17-12.65a.38.38,0,1,1,0,.75c-13.69.91-29.8,7.38-40.87,12.58a205.08,205.08,0,0,0-21,11.29C203.18,196.9,191.29,204,178,204Z" style="fill:#0f716f"/><g id="Shape-31" data-name="Shape"><path d="M324.44,178.16l28-54.36a24.45,24.45,0,0,1-19.87-6c-4.06,13.48-14.08,36-15.88,37.87" style="fill:#fff"/><path d="M324.44,178.16l28-54.36c-24.91,42.39-33.95,30-35.75,31.85" style="fill:#d0e4f0"/><path d="M345.06,137c-4.36,0-8.88-.23-12.72-5.58-.15-.15-.07-.37.08-.52a.38.38,0,0,1,.53.07c3.68,5.27,8.05,5.27,12.57,5.27h.3a.35.35,0,0,1,.37.38.36.36,0,0,1-.37.38h-.76Z" style="fill:#a1c2d8"/><path d="M340.32,147.21c-3.46,0-7.45-.3-10.84-3.76a.37.37,0,0,1,.53-.53c3.24,3.24,7,3.54,10.31,3.54a.36.36,0,0,1,.38.38C340.77,147.06,340.62,147.21,340.32,147.21Z" style="fill:#a1c2d8"/><path d="M335.43,157.23c-3.76,0-6.85-.45-9.78-2.86a.45.45,0,0,1-.08-.53.48.48,0,0,1,.53-.08c2.71,2.19,5.72,2.64,9.25,2.64h0a.36.36,0,0,1,.38.38C335.81,157.08,335.66,157.23,335.43,157.23Z" style="fill:#a1c2d8"/><path d="M352.44,123.8c-1.81,2.11-2,4.82-2.63,5.27a10.63,10.63,0,0,1-10,1,11.62,11.62,0,0,1-7.61-10.24,8.39,8.39,0,0,1,1.06-3.09" style="fill:#d0e4f0"/><path d="M324.44,178.53c-.07,0-.15,0-.15-.07a.43.43,0,0,1-.15-.53l27.7-53.68a25.63,25.63,0,0,1-19-5.72C328.66,131.78,319,154,317,156a.37.37,0,0,1-.53-.53c1.66-1.73,11.67-24.17,15.81-37.72a.31.31,0,0,1,.3-.22.62.62,0,0,1,.38.07,24.42,24.42,0,0,0,19.57,5.87.57.57,0,0,1,.37.15.32.32,0,0,1,0,.38l-28.15,54.43C324.74,178.46,324.59,178.53,324.44,178.53Z" style="fill:#40565b"/><path d="M334.23,102.12c4.14-10.69,15.5-20.4,22.95-17.54s8.21,17.24,4.14,28-13.55,17.09-21,14.16c-4-1.51-6.62-5.42-7.6-10.24-.68-3.39-3.24-5.87-2.18-9.79a9.48,9.48,0,0,1,10.38-5.8c7.83,1.13,6.78,3.39,5.42,4.45s-2.56,3.83-2.56,3.83,2.56,1.59,2.11,6.18" style="fill:#fff"/><path d="M339,123.88c-3.46-2.49-5.12-6.86-4.81-11.82.15-3.47-1.74-6.48.3-10.09A9.62,9.62,0,0,1,346,98.88c7.3,3,5.8,5,4.14,5.57s-3.38,3.09-3.38,3.09,2.1,2.11.52,6.47" style="fill:#d0e4f0"/><path d="M341.45,127.11c-4.06-1.35-6.85-5-8.05-9.93-.83-3.32-3.54-5.73-2.64-9.72a9.55,9.55,0,0,1,10.16-6.25c7.91.76,7,3.09,5.65,4.15s-2.33,4-2.33,4,2.63,1.43,2.41,6.09" style="fill:#fff"/><path d="M358.39,85.18c3.61,5.57,3.38,16.26.15,24.62-4.14,10.69-13.55,17.09-21,14.15a9,9,0,0,1-2.19-1.2,10.58,10.58,0,0,0,5,3.91c7.45,2.86,16.86-3.46,21-14.15C365.24,102.49,364.78,89.09,358.39,85.18Z" style="fill:#d0e4f0"/><path d="M344.09,127.87a10,10,0,0,1-3.92-.76c-3.91-1.5-6.77-5.34-7.83-10.54a16,16,0,0,0-1.12-3.23c-.83-2-1.74-4.07-1.06-6.71a10.37,10.37,0,0,1,3.76-4.59h0a34.64,34.64,0,0,1,10.32-14c4.74-3.77,9.48-5.12,13.09-3.77,7.61,2.94,8.58,17.47,4.29,28.46C358.16,121.84,350.86,127.87,344.09,127.87Zm-4.75-26.73a9.17,9.17,0,0,0-8.43,5.65c-.6,2.4.15,4.21,1.06,6.17a16,16,0,0,1,1.2,3.39c1,4.89,3.61,8.58,7.38,10,7.3,2.79,16.48-3.46,20.55-14,5-13,2-25.22-3.92-27.48-7.22-2.79-17.91,6.55-22.13,16.41a10.7,10.7,0,0,1,6-.9c4.06.6,6.32,1.58,6.69,2.93a2.29,2.29,0,0,1-1,2.19c-1.05.75-2,2.71-2.33,3.38.67.53,2.41,2.41,2,6.33a.34.34,0,0,1-.68-.08c.45-4.29-1.8-5.72-2-5.79a.38.38,0,0,1-.15-.46c.08-.15,1.21-2.93,2.71-4,.23-.15,1-.75.83-1.35-.15-.45-.9-1.66-6-2.34C340.32,101.21,339.8,101.14,339.34,101.14Z" style="fill:#40565b"/></g><g id="Shape-32" data-name="Shape"><path d="M247.22,204.36l-59.77-12.58a24.65,24.65,0,0,0,7.9-19.19c13,5.34,36.81,11.82,39.37,11.59" style="fill:#fff"/><path d="M247.22,204.36l-59.77-12.58c48.63,7.46,44.71-7.37,47.27-7.6" style="fill:#d0e4f0"/><path d="M201.45,195.1a.26.26,0,0,1-.22-.08.48.48,0,0,1-.08-.53l.23-.22c2.86-3.54,5.64-6.85,3.91-13.1a.37.37,0,0,1,.23-.45.36.36,0,0,1,.45.22c1.8,6.63-1.13,10.24-4,13.78l-.23.23A.4.4,0,0,1,201.45,195.1Z" style="fill:#a1c2d8"/><path d="M212.82,197.28a.27.27,0,0,1-.23-.08.44.44,0,0,1-.07-.52c2.1-2.56,4.29-5.72,3.83-10.24a.5.5,0,0,1,.31-.45.52.52,0,0,1,.45.3c.52,4.82-1.81,8.13-4,10.76A.43.43,0,0,1,212.82,197.28Z" style="fill:#a1c2d8"/><path d="M223.73,199.76a.28.28,0,0,1-.22-.07.45.45,0,0,1-.08-.53c2.26-2.78,3.84-5.34,3.84-8.88a.36.36,0,0,1,.38-.38h0a.35.35,0,0,1,.37.38c0,3.76-1.58,6.47-4,9.41C224,199.69,223.88,199.76,223.73,199.76Z" style="fill:#a1c2d8"/><path d="M187.38,191.71c2.78-.08,5,1.5,5.79,1.28a10.58,10.58,0,0,0,7.08-7.15,11.64,11.64,0,0,0-3.16-12.35,8.94,8.94,0,0,0-3-1.13" style="fill:#d0e4f0"/><path d="M247.22,204.73h-.08l-59.76-12.57c-.15,0-.23-.15-.3-.3a.62.62,0,0,1,.07-.38A24.52,24.52,0,0,0,195,172.59a.76.76,0,0,1,.15-.38c.07-.08.22-.08.38-.08,13.09,5.35,36.8,11.75,39.21,11.6a.38.38,0,1,1,0,.75c-2.78.23-26.12-6.25-39-11.37a25.42,25.42,0,0,1-7.53,18.37l59.09,12.42a.42.42,0,0,1,.3.46A.4.4,0,0,1,247.22,204.73Z" style="fill:#40565b"/><path d="M182.11,163.93c-10.92-3.54-25.59-.91-28.08,6.7s8.21,17.31,19.12,20.85,21.75.3,24.24-7.38c1.35-4.06,0-8.5-3.16-12.34-2.19-2.64-2.49-6.25-6.25-7.91a9.57,9.57,0,0,0-11.07,4.44c-4.06,6.78-1.65,7.46,0,7s4.6.45,4.6.45-.46,3,3.46,5.57" style="fill:#fff"/><path d="M195.88,181.39c.3-4.29-2.11-8.28-6.1-11.21-2.78-2-3.91-5.42-8-6.18a9.47,9.47,0,0,0-9.64,7c-2.33,7.61.23,7.61,1.73,6.78s4.59-.68,4.59-.68.31,3,4.67,4.52" style="fill:#d0e4f0"/><path d="M196.86,185.23c1.51-4,.38-8.5-2.56-12.49-2.11-2.79-2.18-6.33-5.87-8.21a9.53,9.53,0,0,0-11.29,3.92c-4.44,6.62-2,7.37-.3,7s4.59.67,4.59.67-.6,2.94,3.16,5.73" style="fill:#fff"/><path d="M153.73,171.91c2,6.4,10.46,12.87,19,15.66,10.91,3.54,21.75.3,24.24-7.38a9.9,9.9,0,0,0,.45-2.48,10.64,10.64,0,0,1-.08,6.32c-2.48,7.6-13.32,10.92-24.23,7.38C162.76,188.17,152.68,179.36,153.73,171.91Z" style="fill:#d0e4f0"/><path d="M181.88,193.36a28.09,28.09,0,0,1-8.88-1.43c-11.22-3.68-21.9-13.55-19.34-21.3,1.2-3.69,5.26-6.55,11.14-7.83a34.79,34.79,0,0,1,17.38.83h0a11,11,0,0,1,5.87,0c2.56,1.13,3.62,3.16,4.6,5a17.06,17.06,0,0,0,1.8,2.94c3.39,4.06,4.59,8.73,3.24,12.72-1.21,3.84-4.52,6.7-9.26,8.13A23,23,0,0,1,181.88,193.36Zm-10-30.64a30.26,30.26,0,0,0-6.92.76c-5.65,1.2-9.49,3.91-10.62,7.3-2,6.1,5.65,16.11,18.9,20.4a25.29,25.29,0,0,0,15.05.53c4.44-1.36,7.53-4.07,8.73-7.61,1.21-3.76.08-8.13-3.09-12a15.06,15.06,0,0,1-1.88-3.08c-1-1.88-1.88-3.69-4.21-4.75a9.09,9.09,0,0,0-10.61,4.3c-2.64,4.44-2.26,5.79-2,6.17s1.28.3,1.58.22c1.73-.45,4.67.46,4.82.46s.3.22.22.37-.3,2.79,3.31,5.2c.15.15.23.37.08.52a.37.37,0,0,1-.53.08c-3.31-2.18-3.61-4.67-3.61-5.57a9.82,9.82,0,0,0-4.07-.38,2,2,0,0,1-2.33-.52c-.83-1.13-.22-3.47,2-7A10.16,10.16,0,0,1,181.2,164,35.24,35.24,0,0,0,171.87,162.72Z" style="fill:#40565b"/></g><path id="Shape-33" data-name="Shape" d="M319,162.8a17.22,17.22,0,0,1-2.26-8c-10.91-5-34.17,4-45.23,8.88-10.16,3.39-29.66,10.77-37.19,20.1a18.54,18.54,0,0,1,2.64,9.79c-.15,4.14-4.14,7.68-4.14,7.68,4.36,15.06,16.33,30.19,16.33,30.19l43.36-13.25,40.19-18.9a78.37,78.37,0,0,0-5-27.55S322,167.32,319,162.8Z" style="fill:#d56"/><g id="Shape-34" data-name="Shape"><path d="M236.9,194.19c0-.15.08-.37.08-.52C237.05,190.28,237,192.16,236.9,194.19Z" style="fill:#c14257"/><path d="M327.75,171.76a48.34,48.34,0,0,1-7.37-7.08c1.88,4.22,9.93,32.52,9.93,32.52l-37,17.77-40.12,12.27s-12-15.05-16.33-30.19c0,0,.07-1.5.15-2.93-.45,3.91-4.07,7.07-4.07,7.07,4.37,15.06,16.34,30.19,16.34,30.19l.83-.22,42.52-13,28.83-13.55,12.27-5.72C333.55,198.94,332.42,182.67,327.75,171.76Z" style="fill:#c14257"/></g><path id="Shape-35" data-name="Shape" d="M295.31,154.14c-1.43,3.76-6.17,8.21-18.51,12.65-13.78,5-22.66,6.93-27.25,3.76-.45-.3-3.09,3.84-6.7,6.1-2.94,1.88-5.8,3.92-5.72,4.37,3.61,12.42,17.46,12.57,45.09,2.18,28.6-10.84,29.65-19.5,26.79-28.38a9.54,9.54,0,0,0-.53-1.36,49.62,49.62,0,0,0-7.67.91C297.87,155,295.46,153.61,295.31,154.14Z" style="fill:#c14257"/><path id="Shape-36" data-name="Shape" d="M249,231.91l-.15-.22c-.15-.16-12.12-15.29-16.41-30.27l-.07-.23.22-.15s3.62-2.78,4-6.92a14.73,14.73,0,0,0-2.48-9.94l-.23-.23.23-.22c7.53-9.34,26.64-16.72,37.41-20.25,28.75-12.73,40.87-11,45.46-8.89l.23.15v.3a12.7,12.7,0,0,0,1.95,7.23c3.09,5.27,8.81,9.19,8.88,9.26l.08.08.07.07a103.28,103.28,0,0,1,5.8,27.26v.22l-41.25,19.35Zm-15.8-30.49c4.06,13.85,14.67,27.78,16.1,29.59l43.13-13.18,40.72-19.12A105,105,0,0,0,327.45,172a33.94,33.94,0,0,1-9-9.41,14.15,14.15,0,0,1-2.11-7.45c-11.06-4.82-34.92,4.67-44.63,9-10.62,3.46-29.36,10.69-36.88,19.8a15.34,15.34,0,0,1,2.48,10.24A11.65,11.65,0,0,1,233.22,201.42Z" style="fill:#bc1a3c"/><path id="Shape-37" data-name="Shape" d="M292,154.59c-.08,3.24-2.94,7.68-15.88,12.35-13.55,4.89-21.3,6.4-24,1.66-2.79.9-9.56,3.46-9.11,7.52,1.43,12,12.57,12.58,37.18,3.24,23.56-8.88,24.62-15.58,22.43-22.36C300.81,151.28,294.41,153.46,292,154.59Z" style="fill:#8fd1be"/><path id="Shape-38" data-name="Shape" d="M297,155a7,7,0,0,0-.75-1.66,15.81,15.81,0,0,0-4.22,1.28v.53a2.94,2.94,0,0,1,.68,1.28c1.58,4.82.75,9.56-16,15.88-17.46,6.63-25.44,6.25-26.42-2.33a2.37,2.37,0,0,1,.08-.75,21.89,21.89,0,0,0-4.6,2.33c2,11.22,11.9,12.12,32.6,4.29C298.55,168.22,299.15,161.74,297,155Z" style="fill:#29b99a"/><path id="Shape-39" data-name="Shape" d="M254.59,186.14a14,14,0,0,1-7.37-1.73c-2.64-1.59-4.14-4.37-4.6-8.36-.52-4.37,6.33-7,9.34-8a.36.36,0,0,1,.45.15c2.33,4.06,8.73,3.54,23.56-1.81,10.23-3.69,15.5-7.75,15.58-12,0-.15.07-.3.22-.3,1.89-.83,5.5-2.11,8.28-.9a5.22,5.22,0,0,1,2.94,3.54c2.56,7.83-.38,14.38-22.66,22.81C268.89,184,260.54,186.14,254.59,186.14ZM252,169c-2.49.83-9,3.31-8.51,7.08s1.81,6.32,4.29,7.75c5.12,3.17,15.43,1.58,32.44-4.81,24.09-9.11,24.16-15.82,22.21-21.91a4.51,4.51,0,0,0-2.56-3c-2.49-1.13-5.87.07-7.45.75-.3,4.52-5.72,8.66-16.11,12.42C263.25,172,255,173.79,252,169Z" style="fill:#0f716f"/><path id="Shape-40" data-name="Shape" d="M290.19,82l-85.13,32.82v.08c-5.87,3.16-6.24,16.86-.67,31.39s15.05,24.47,21.52,22.81v.08L311,136.37" style="fill:#fff"/><path id="Shape-41" data-name="Shape" d="M224.56,169.65c-6.55,0-15.28-9.71-20.47-23.26-5.57-14.46-5.27-28.39.67-31.77l.15-.16L290,81.64a.31.31,0,0,1,.45.23.31.31,0,0,1-.22.45l-84.9,32.82-.08.08c-5.72,3.08-5.95,16.64-.45,30.94s14.75,24.17,21.07,22.59h.15L311,136a.35.35,0,1,1,.22.67L226.06,169.5h-.22A7.13,7.13,0,0,1,224.56,169.65Z" style="fill:#40565b"/><ellipse id="Oval-5" data-name="Oval" cx="299.54" cy="109.63" rx="12.57" ry="29.06" transform="matrix(0.93, -0.36, 0.36, 0.93, -19.38, 115.08)" style="fill:#a1c2d8"/><path id="Shape-42" data-name="Shape" d="M307.88,137.5c-2.86,0-6.17-1.8-9.56-5.27-4.21-4.29-8.13-10.69-10.91-18-5.87-15.13-5.19-29.59,1.5-32.15s16.86,7.68,22.66,22.81c2.78,7.31,4.21,14.61,4,20.71s-2.18,10.24-5.5,11.52A5.33,5.33,0,0,1,307.88,137.5Zm-16.71-55a5.73,5.73,0,0,0-1.95.37c-6.25,2.41-6.78,16.42-1.06,31.17a54,54,0,0,0,10.76,17.77c4.07,4.14,8,5.8,11,4.67s4.75-5,5-10.84-1.13-13.18-3.91-20.41C305.77,92,297.34,82.47,291.17,82.47Z" style="fill:#40565b"/><path id="Shape-43" data-name="Shape" d="M255.12,157.9l6.1,15.74c.37,1.05,6.62-.38,13.84-3.16s12.8-5.87,12.42-6.93l-6.09-15.73Z" style="fill:#fff"/><path id="Shape-44" data-name="Shape" d="M255.12,157.9l1,2.26c.37,1.06,8.35,2,15.95.53,8.13-1.51,13-3.54,12.57-4.59l-3.31-8.28Z" style="fill:#d0e4f0"/><path id="Shape-45" data-name="Shape" d="M291.32,126.36a5.72,5.72,0,0,0,2.19-.45c-3-5-6.48-12.8-10.17-21.38-3.76,3.23-9.56,7.53-14.15,9.71-20.54,10.61-45.46,12.57-65.63,23.64,1.81,4,0,0,4,17.31,2.33,3.62,4.36,7.23,8.28,9.57C233.14,145.78,264.38,131.63,291.32,126.36Z" style="fill:#d0e4f0"/><path id="Shape-46" data-name="Shape" d="M307.88,137.5c-2.86,0-6.17-1.8-9.56-5.27-4.21-4.29-8.13-10.69-10.91-18-5.87-15.13-5.19-29.59,1.5-32.15s16.86,7.68,22.66,22.81c2.78,7.31,4.21,14.61,4,20.71s-2.18,10.24-5.5,11.52A5.33,5.33,0,0,1,307.88,137.5Zm-16.71-55a5.73,5.73,0,0,0-1.95.37c-6.25,2.41-6.78,16.42-1.06,31.17a54,54,0,0,0,10.76,17.77c4.07,4.14,8,5.8,11,4.67s4.75-5,5-10.84-1.13-13.18-3.91-20.41C305.77,92,297.34,82.47,291.17,82.47Z" style="fill:#40565b"/><circle id="Oval-6" data-name="Oval" cx="186.49" cy="152.34" r="6.1" transform="translate(-42.32 77.29) rotate(-21.08)" style="fill:#f36f42"/><path id="Shape-47" data-name="Shape" d="M186.55,158.81a6.41,6.41,0,0,1-6-4.14,6.46,6.46,0,1,1,8.35,3.69A6.76,6.76,0,0,1,186.55,158.81Zm-.08-12.2a6.38,6.38,0,0,0-2,.38,5.72,5.72,0,1,0,7.38,3.31A5.59,5.59,0,0,0,186.47,146.61Z" style="fill:#c84a27"/><g id="Shape-48" data-name="Shape"><path d="M204.61,145.56l-13.17,5c-.6.23-1.2,0-1.28-.45a1.06,1.06,0,0,1,.75-1.05l13.4-5.2" style="fill:#d0e4f0"/><path d="M191,151.13a2.38,2.38,0,0,1-.68-.15,1,1,0,0,1-.53-.68,1.29,1.29,0,0,1,1-1.43l13.4-5.19.3.67-13.4,5.2c-.37.15-.52.37-.52.6a.15.15,0,0,0,.15.15,1,1,0,0,0,.68,0l13.17-5,.3.67-13.17,5A4.36,4.36,0,0,1,191,151.13Z" style="fill:#40565b"/></g><path id="Shape-49" data-name="Shape" d="M262.27,174.39c-1,0-1.36-.3-1.43-.6l-6.1-15.73v-.31c0-.07.15-.15.23-.22l26.27-10.09a.31.31,0,0,1,.45.23l6.09,15.73c.23.53,0,1.36-3.46,3.31a65.5,65.5,0,0,1-9.1,4.14,75.54,75.54,0,0,1-9.56,3A17.2,17.2,0,0,1,262.27,174.39Zm-6.7-16.26,5.95,15.36c.45.45,5.26-.3,13.39-3.39s12.12-5.87,12.2-6.47l-5.95-15.36Z" style="fill:#40565b"/><path id="Shape-50" data-name="Shape" d="M286.35,78.93c16.56.3,22.06,14.91,24.92,24.92,4.21,14.76,15.35,9.33,17.61,15.36s-15.35,14.08-23.18,6.55c-6.93-6.7-19.27-16-19.27-16s-8.05-14.08-47.57,1.13c-40.19,15.51-35.9,31.32-35.9,31.32s4.51,9,1.65,17.09c-2.33,6.63-12.42,12.35-10.08,13.85,5.12,3.32,21.37-8.28,21.37-8.28l-14.82-27.25s-4.45-16.87.07-23.94C205.82,106.33,286.35,78.93,286.35,78.93Z" style="fill:#8c6844"/><path id="Shape-51" data-name="Shape" d="M203,142.09s4.51,9,1.65,17.09c-2.33,6.63-12.42,12.35-10.08,13.86,5.12,3.31,21.37-8.28,21.37-8.28" style="fill:#705230"/><path id="Shape-52" data-name="Shape" d="M315.48,112l-13.54,5.65s7,6.55,18.81,3.23c7.15-2,2-5.42,2-5.42S319.7,115.14,315.48,112Z" style="fill:#705230"/><ellipse id="Oval-7" data-name="Oval" cx="303.53" cy="105.11" rx="8.81" ry="15.06" transform="translate(-17.49 116.21) rotate(-21.08)" style="fill:#705230"/><path id="Shape-53" data-name="Shape" d="M196.86,174a5.32,5.32,0,0,1-2.56-.61,1.15,1.15,0,0,1-.53-.75c-.07-1,1.36-2.41,3.47-4.52,2.56-2.48,5.79-5.64,7-9,2.78-7.82-1.58-16.71-1.66-16.78a7.38,7.38,0,0,1-.15-1.36l-1.73-3.16v-.08c-.15-.67-4.44-17.09.07-24.24,4.75-7.38,82.2-33.8,85.43-34.93h.15c16.11.3,22,13.55,25.22,25.14,2.56,8.89,7.6,10.32,11.67,11.45,2.63.75,5,1.43,5.94,3.84.83,2.11-.6,4.59-3.76,6.7-5.8,3.84-15.05,5-20,.22-6.85-6.62-19.12-15.88-19.2-16s-.07-.08-.07-.08c-.08-.15-8.43-13.62-47.12,1.28-33,12.73-35.75,25.6-35.83,29.59l13,23.87c.08.15.08.37-.07.45C215.53,165.51,203.48,174,196.86,174Zm7.38-29.82c1.13,3.16,2.78,9.34.75,15.14-1.21,3.53-4.52,6.7-7.15,9.26-1.66,1.58-3.31,3.23-3.24,3.91,0,.08,0,.15.15.23,4.52,2.86,18.59-6.55,20.7-8.06Zm-2.79-6.7,1.06,2c.6-5.27,5.64-17.24,36.2-29,38.39-14.75,47.27-2.25,48-1,.9.68,12.57,9.64,19.26,16,5.2,5,14.46,2.78,19.12-.3,2.86-1.89,4.14-4.07,3.47-5.8-.83-2.11-2.86-2.71-5.42-3.39-4.29-1.2-9.56-2.71-12.2-12-3.23-11.29-8.88-24.32-24.46-24.62-2.63.9-80.46,27.48-85,34.56C197.16,120.56,201.15,136.52,201.45,137.5Z" style="fill:#705230"/><ellipse id="Oval-8" data-name="Oval" cx="305.85" cy="104.9" rx="8.81" ry="14.91" transform="translate(-17.26 117.03) rotate(-21.08)" style="fill:#8c6844"/><ellipse id="Oval-9" data-name="Oval" cx="307.64" cy="104.89" rx="1.43" ry="4.82" transform="translate(-17.22 94.27) rotate(-16.95)" style="fill:#705230"/><path id="Shape-54" data-name="Shape" d="M308.94,109.87c-1.13,0-2.34-2.26-3-4.44a13.1,13.1,0,0,1-.6-3.46c0-1.13.3-1.81.83-2,1.2-.38,2.48,2,3.24,4.44a13.17,13.17,0,0,1,.6,3.46c0,1.13-.3,1.81-.83,2Zm-2.56-9.18h0c-.15,0-.3.37-.3,1.28a11.27,11.27,0,0,0,.6,3.23c.83,2.79,1.95,4,2.26,3.92.07,0,.3-.38.3-1.28a11.44,11.44,0,0,0-.61-3.24C307.81,102,306.75,100.69,306.38,100.69Z" style="fill:#705230"/><path id="Shape-55" data-name="Shape" d="M309.24,119.51c-4.37,0-9.41-4.59-12-11.29-3-7.83-1.66-15.74,3.08-17.55s11.07,3.09,14.08,10.92,1.66,15.74-3.09,17.54A5.2,5.2,0,0,1,309.24,119.51Zm-6.78-28.46a5.6,5.6,0,0,0-1.88.3c-4.36,1.66-5.49,9.11-2.63,16.56s8.73,12.2,13.09,10.47,5.5-9.11,2.64-16.56C311.19,95.42,306.53,91.05,302.46,91.05Z" style="fill:#705230"/><g id="Shape-56" data-name="Shape"><path d="M322.78,101.06l-13.84,3.84c-.61.23-1.21.08-1.28-.37a1.08,1.08,0,0,1,.67-1.06l14.08-3.91" style="fill:#d0e4f0"/><path d="M308.48,105.36a1.36,1.36,0,0,1-.6-.16,1,1,0,0,1-.53-.67,1.35,1.35,0,0,1,.91-1.51l14.07-4,.23.75-14.08,3.92a.8.8,0,0,0-.45.6.16.16,0,0,0,.15.15,1,1,0,0,0,.68,0l13.92-3.84.23.75-13.85,3.84A1.31,1.31,0,0,1,308.48,105.36Z" style="fill:#40565b"/></g><path id="Shape-57" data-name="Shape" d="M242.32,109.57c-2.1-3.61-2.86-6.93-2-10a10.7,10.7,0,0,1,4.59-6.25l.38.68A10.28,10.28,0,0,0,241,99.78c-.75,2.86-.07,6,2,9.41Z" style="fill:#705230"/><path id="Shape-58" data-name="Shape" d="M286,103.55C279.43,92,270.17,92.63,251.2,99.86c-7.67,2.94-10.76,6.55-12,8.58-2.34-.75-7-1.28-14.68,1.66-18.89,7.38-26.19,13.17-23.33,26.12S217.41,148,217.41,148s17-5.95,19.27-10.47c2.93-5.79,5-14.38,7.67-15.51.08,0,.08-.07.16-.07s.07,0,.15-.08c2.71-.9,10,4,16.1,6.33,4.75,1.8,21.3-5.2,21.3-5.2S292.53,115.07,286,103.55Z" style="fill:#705230"/><g id="Shape-59" data-name="Shape"><path d="M284.55,106.48c-6.47-11.51-15.58-11.06-34.1-4-7.53,2.87-10.46,6.4-11.67,8.51-2.25-.75-6.84-1.35-14.37,1.58-18.44,7.15-25.52,12.88-22.58,25.83s15.88,11.82,15.88,11.82,16.56-5.73,18.74-10.24c2.79-5.72,4.82-14.31,7.38-15.36.07,0,.07-.08.15-.08s.07,0,.15-.07c2.63-.91,9.86,4.06,15.81,6.47,4.59,1.88,20.77-5,20.77-5S291.1,118,284.55,106.48Z" style="fill:#8c6844"/><path d="M242.7,121.32c2.33-1.06,9,5.64,9,5.64s-5.72-3.08-7.53-2.48-4.06,6.62-4.06,6.62S240.89,122.14,242.7,121.32Z" style="fill:#705230"/><path d="M217.18,150.6c-2.71,0-13-.75-15.65-12.12-3.09-13.55,4.89-19.27,22.8-26.27,7.38-2.86,12-2.34,14.3-1.66,1.21-2,4.29-5.57,11.75-8.36,17.91-6.85,27.7-8,34.54,4.14,6.63,11.67-3.83,19.88-3.91,20a.07.07,0,0,0-.07.08c-.68.3-16.34,6.93-21.08,5-2.11-.82-4.37-2-6.62-3.16-3.77-2-7.3-3.76-8.89-3.31a.25.25,0,0,1-.15.07h-.07c-.08,0-.08.08-.15.08-1.51.68-2.86,4.44-4.37,8.43a55.77,55.77,0,0,1-2.78,6.78c-2.26,4.59-18.29,10.16-19,10.39h-.08C217.78,150.53,217.56,150.6,217.18,150.6Zm17.39-39.9a29,29,0,0,0-9.94,2.11c-19.79,7.68-25,13.63-22.35,25.37,2.78,12.2,14.45,11.59,15.43,11.52,1-.3,16.48-5.87,18.52-10,1-2,1.88-4.45,2.71-6.7,1.65-4.37,3-8.14,4.81-8.89h.3c1.81-.6,5.42,1.21,9.49,3.31,2.18,1.13,4.44,2.26,6.55,3.17,4.29,1.73,19.49-4.6,20.47-5,.75-.61,9.86-8.06,3.69-18.9-5.95-10.46-13.78-11.37-33.65-3.84-7.52,2.86-10.38,6.48-11.44,8.28a.35.35,0,0,1-.45.15A13.05,13.05,0,0,0,234.57,110.7Z" style="fill:#705230"/><path d="M243.9,110.25s.76,7.9,5.35,10.09,6,7.68,11.59,5.94,17.39-5.79,18.89-8.65c2.79-5.27,3.24-16.11-10.76-16.94Z" style="fill:#e7f1f8"/><path d="M234.57,113.79s4.74,6.32,2.78,11.06.68,9.72-4.59,12.13S216,144.28,213,143.22c-5.57-2-13.17-9.78-3.39-19.8Z" style="fill:#e7f1f8"/><path d="M258.81,126.89c-2.49,0-4.07-1.58-5.72-3.24a16.45,16.45,0,0,0-4-3.09c-4.75-2.26-5.5-10-5.57-10.39a.4.4,0,0,1,.22-.37l25-9.64h.15c5.5.3,9.49,2.26,11.37,5.72,2.11,3.77,1.35,8.66-.3,11.82-1.81,3.39-16.19,8-19.12,8.89A7.18,7.18,0,0,1,258.81,126.89Zm-14.53-16.42c.23,1.43,1.28,7.61,5.12,9.49a15,15,0,0,1,4.14,3.24c2,2,3.76,3.69,7.15,2.71,7.83-2.41,17.39-6.1,18.66-8.51,1.59-3,2.26-7.53.31-11.07-1.81-3.16-5.42-5-10.69-5.27Z" style="fill:#a1c2d8"/><path d="M247.59,110.93s.6,6.4,4.37,8.2,4.89,6.25,9.41,4.82,14.07-4.74,15.35-7.08c2.26-4.29,2.63-13.1-8.73-13.77Z" style="fill:#fff"/><path d="M232.31,116.8s3.84,5.19,2.26,9,.53,7.9-3.76,9.86-13.63,5.95-16.11,5c-4.52-1.65-10.76-8-2.71-16.11Z" style="fill:#fff"/><path d="M215.68,141.27a4.75,4.75,0,0,1-1.06-.15c-2.78-1-5.87-3.54-6.62-7-.53-2.18-.23-5.64,3.76-9.71.08-.07.08-.07.15-.07l20.33-7.83c.15-.08.3,0,.45.15S236.6,122,235,126a12.77,12.77,0,0,0-.68,4c-.15,2.41-.3,4.75-3.23,6.1S219.44,141.27,215.68,141.27ZM212.22,125c-3,3.09-4.14,6.1-3.54,9a9.81,9.81,0,0,0,6.17,6.48c2,.68,9.33-2,15.81-5.05,2.56-1.2,2.63-3.08,2.78-5.42a12.32,12.32,0,0,1,.75-4.21c1.28-3.16-1.35-7.38-2-8.36Z" style="fill:#a1c2d8"/><path d="M214.1,143.75a4.54,4.54,0,0,1-1.21-.15c-3.38-1.2-7.15-4.37-8.13-8.58-.82-3.84.76-7.91,4.59-11.9.08-.07.08-.07.16-.07l25-9.64c.16-.07.31,0,.46.15s4.81,6.55,2.86,11.44a16.47,16.47,0,0,0-.91,5c-.15,2.94-.37,5.73-3.91,7.38C230.51,138.48,218.91,143.75,214.1,143.75Zm-4.29-20c-3.69,3.76-5.2,7.53-4.37,11.14.9,3.92,4.52,6.85,7.68,8.06,2.56.9,12.12-2.79,19.49-6.25,3.16-1.51,3.31-3.92,3.47-6.78a15.85,15.85,0,0,1,.9-5.19c1.65-4-1.81-9.26-2.56-10.47Z" style="fill:#a1c2d8"/><polygon points="220.8 139.69 215.38 140.89 215.38 123.35 220.8 121.24 220.8 139.69" style="fill:#3f555a;opacity:0.07000000029802322;isolation:isolate"/><polygon points="225.09 138.18 223.35 138.86 223.35 120.26 225.09 119.36 225.09 138.18" style="fill:#3f555a;opacity:0.07000000029802322;isolation:isolate"/><polygon points="268.37 121.69 266.56 122.37 266.56 103.77 268.37 102.87 268.37 121.69" style="fill:#3f555a;opacity:0.07000000029802322;isolation:isolate"/><polygon points="264.3 123.2 262.57 123.57 262.57 105.36 264.3 104.45 264.3 123.2" style="fill:#3f555a;opacity:0.07000000029802322;isolation:isolate"/><polygon points="261.44 124.1 259.63 124.18 259.63 106.26 261.44 105.36 261.44 124.1" style="fill:#3f555a;opacity:0.07000000029802322;isolation:isolate"/><path d="M259.71,124.55c-2,0-3.31-1.28-4.74-2.63a13.31,13.31,0,0,0-3.24-2.49c-3.84-1.88-4.51-8.2-4.59-8.5a.43.43,0,0,1,.23-.38l20.32-7.83h.15c5.72.3,8.2,2.71,9.33,4.67,1.73,3.08,1.13,7.07-.22,9.63-1.43,2.71-12.27,6.25-15.58,7.23A4.23,4.23,0,0,1,259.71,124.55ZM248,111.15c.15,1.21,1.06,6.1,4.07,7.61a11.69,11.69,0,0,1,3.38,2.63c1.74,1.66,3,3,5.73,2.18,6.84-2.1,14.15-5,15.12-6.85a9.86,9.86,0,0,0,.23-9c-1.43-2.56-4.37-4-8.58-4.29Z" style="fill:#a1c2d8"/></g><path id="Shape-60" data-name="Shape" d="M265,116h-.08a.42.42,0,0,1-.3-.45,4.15,4.15,0,0,1,5-3.09,3.42,3.42,0,0,1,1.2.53.39.39,0,0,1-.37.68,6.17,6.17,0,0,0-1-.46,3.38,3.38,0,0,0-4.07,2.49A.37.37,0,0,1,265,116Z" style="fill:#40565b"/><path id="Shape-61" data-name="Shape" d="M219.52,132.53h-.08a.41.41,0,0,1-.3-.45,4.17,4.17,0,0,1,1.81-2.56A4.06,4.06,0,0,1,224,129a3.75,3.75,0,0,1,1.21.53.39.39,0,1,1-.38.68,5.34,5.34,0,0,0-1-.45,3.06,3.06,0,0,0-2.56.45,3.33,3.33,0,0,0-1.5,2.11A.34.34,0,0,1,219.52,132.53Z" style="fill:#40565b"/><g id="Shape-62" data-name="Shape"><path d="M243.23,151.73c-.23-.07-.46-.22-.68-.3a11.57,11.57,0,0,1-5.42-6,133,133,0,0,1,28.68-11.59,14.16,14.16,0,0,1,.37,5.87A44.35,44.35,0,0,0,243.23,151.73Z" style="fill:#a1c2d8"/><path d="M243.23,152.11h-.15l-.23-.08-.53-.22a12.07,12.07,0,0,1-5.57-6.18.37.37,0,0,1,.15-.45,138.13,138.13,0,0,1,28.76-11.67.38.38,0,0,1,.45.23,14.89,14.89,0,0,1,.37,6,.32.32,0,0,1-.3.3,44.29,44.29,0,0,0-22.73,12A.3.3,0,0,1,243.23,152.11Zm-5.65-6.55a11.66,11.66,0,0,0,5.12,5.49l.45.23a45.6,45.6,0,0,1,22.73-11.9,12.57,12.57,0,0,0-.3-5A130.48,130.48,0,0,0,237.58,145.56Z" style="fill:#40565b"/><path d="M266.18,139.69a15.39,15.39,0,0,1-6.17,9.93c-4.82,3.54-11.52,4.52-16.71,2.11A44.5,44.5,0,0,1,266.18,139.69Z" style="fill:#f36f42"/><path d="M249.55,153.39a15.16,15.16,0,0,1-6.4-1.36c-.07-.07-.23-.15-.23-.3s0-.22.08-.3a45.59,45.59,0,0,1,23.11-12.12c.15,0,.22,0,.3.07s.15.23.07.31a15.91,15.91,0,0,1-6.32,10.16A17.8,17.8,0,0,1,249.55,153.39Zm-5.65-1.81a16.56,16.56,0,0,0,15.81-2.33,15,15,0,0,0,6-9.11A45.16,45.16,0,0,0,243.9,151.58Z" style="fill:#c84a27"/><path d="M249.55,153.39a15.16,15.16,0,0,1-6.4-1.36.32.32,0,0,1-.15-.52.32.32,0,0,1,.53-.15c5,2.33,11.51,1.5,16.33-2.11a14.57,14.57,0,0,0,6-9.64.38.38,0,0,1,.75.15,15.86,15.86,0,0,1-6.32,10.16A19,19,0,0,1,249.55,153.39Z" style="fill:#40565b"/><polygon points="241.87 133.81 251.73 130.58 244.05 123.95 241.87 133.81" style="fill:#f36f42"/><path d="M241.87,134.19a.26.26,0,0,1-.22-.08.53.53,0,0,1-.16-.37l2.19-9.86c0-.16.15-.23.22-.31a.34.34,0,0,1,.38.08l7.68,6.7a.63.63,0,0,1,.15.38c0,.15-.15.22-.23.3L242,134.27A.22.22,0,0,0,241.87,134.19Zm2.41-9.56-1.88,8.66,8.65-2.79Z" style="fill:#c84a27"/></g><circle id="Oval-10" data-name="Oval" cx="325.73" cy="99.49" r="6.1" transform="matrix(0.93, -0.36, 0.36, 0.93, -13.99, 123.81)" style="fill:#f36f42"/><path id="Shape-63" data-name="Shape" d="M325.72,106a6.25,6.25,0,0,1-2.63-.53,6.19,6.19,0,0,1-3.39-3.61,6.46,6.46,0,1,1,8.35,3.69A6.12,6.12,0,0,1,325.72,106Zm0-12.2a6.33,6.33,0,0,0-2,.38,5.73,5.73,0,0,0-3.31,7.38,5.6,5.6,0,0,0,3,3.16,5.47,5.47,0,0,0,4.36.07,5.67,5.67,0,0,0-2-11Z" style="fill:#c84a27"/><path id="Shape-64" data-name="Shape" d="M284,154.89c-.07,2.26-1.13,5.2-10.24,8.51-9.63,3.46-14.6,4.29-16.55.9-2,.61-7.31,2.71-7,5.65,1,8.51,9,9,26.42,2.33,16.7-6.32,17.46-11.06,16-15.88C291.32,152.26,285.83,154.07,284,154.89Z" style="fill:#8fd1be"/><path id="Shape-65" data-name="Shape" d="M286.35,154.89c-.07-.22-.22-.45-.3-.67-.07.07-1.95.52-2,.6-.07,2.26-1.13,5.19-10.24,8.51-9.63,3.46-14.6,4.29-16.55.9-.31.07-2.19.83-2.56,1,.75,5.57,8.28,7,20.17,2.56C286.88,163.4,287.41,158.13,286.35,154.89Z" style="fill:#29b99a"/><path id="Shape-66" data-name="Shape" d="M258.51,177.18a9.89,9.89,0,0,1-5.27-1.21c-1.89-1.13-3-3.08-3.32-6-.37-3.39,6-5.65,7.23-6a.35.35,0,0,1,.45.15c1.66,2.86,5.87,2.63,16.11-1.06,8.73-3.16,9.94-5.87,10-8.2,0-.15.08-.3.23-.3.45-.23,4.36-1.89,7-.68a4,4,0,0,1,2.1,2.41c1.81,5.65-.22,10.31-16.18,16.34C268.67,175.67,262.72,177.18,258.51,177.18Zm-1.43-12.42c-1.43.45-6.78,2.48-6.48,5.12s1.28,4.44,3,5.42c3.62,2.18,10.92,1.13,23-3.47,17-6.47,17.09-11.14,15.73-15.43a3.12,3.12,0,0,0-1.65-2c-1.81-.83-4.67-.07-6.18.6-.15,2.49-1.65,5.42-10.53,8.66C264.83,167,259.41,168.14,257.08,164.76Z" style="fill:#0f716f"/><path id="Shape-67" data-name="Shape" d="M237.51,262.48l2.63-29.29s-3-43.82,53.29-54.66c46.14-8.81,62.55,30,62.55,30l20.32,66.7s-137.06,7.15-137.06,5.27S237.51,262.48,237.51,262.48Z" style="fill:#1785c8"/><path id="Shape-68" data-name="Shape" d="M342.28,208.5s-11.59-27.33-42.6-30.87c-2,.23-4.07.53-6.17.9-56.38,10.77-53.29,54.66-53.29,54.66l-2.64,29.29s1.73,16.18,1.73,18.07c0,.07.15.15.53.15,35.07-.91,122.76-5.42,122.76-5.42Z" style="fill:#3aa1d6"/><path id="Shape-69" data-name="Shape" d="M356.05,208.5l91.15-35.31,25.67,25.67a10.34,10.34,0,0,1,3,7.23,10.09,10.09,0,0,1-3.76,7.9L404.3,268.88l-27.1,11.89Z" style="fill:#3aa1d6"/><path id="Shape-70" data-name="Shape" d="M377.2,280.77l26.88-11.89,4.59-3.69L472,213.92a10.11,10.11,0,0,0,3.77-7.91,10.37,10.37,0,0,0-1.43-5.19L371,259.69Z" style="fill:#1785c8"/><path id="Shape-71" data-name="Shape" d="M377.2,281.15h-.15l-.22-.23-6.17-21.08a.36.36,0,0,1,.15-.45l103.34-58.87a.39.39,0,0,1,.53.15,10.67,10.67,0,0,1,1.5,5.42,10.49,10.49,0,0,1-3.91,8.2l-63.38,51.27-4.59,3.69a.07.07,0,0,0-.07.08l-26.88,11.89A.23.23,0,0,0,377.2,281.15Zm-5.72-21.23,5.95,20.33,26.42-11.67,4.59-3.62,63.38-51.27a9.71,9.71,0,0,0,3.61-7.6,10,10,0,0,0-1.2-4.67Z" style="fill:#164a67"/><path id="Shape-72" data-name="Shape" d="M244.88,281.15c-3.54,0-5.64-.08-5.87-.3a.65.65,0,0,1-.15-.3c0-1.81-1.73-17.85-1.73-18v-.07l2.63-29.29a52.09,52.09,0,0,1,5.72-23.94c5.8-11.52,18.82-26.2,48-31,24.09-4,39.89,4.44,48.92,12.2a57.28,57.28,0,0,1,14,18l20.33,66.78a.42.42,0,0,1-.08.3.37.37,0,0,1-.3.15C356.66,276.63,268.59,281.15,244.88,281.15Zm-5.19-.9c5,1.12,99.2-3.47,136.16-5.43l-20.17-66.25a54.89,54.89,0,0,0-13.78-17.69c-8.88-7.68-24.53-16-48.32-12-15.88,2.63-37,10.09-47.34,30.57a51.36,51.36,0,0,0-5.65,23.71L238,262.48C238,263.46,239.54,277.69,239.69,280.25Z" style="fill:#164a67"/><path id="Shape-73" data-name="Shape" d="M377.2,281.15h-.15l-.22-.23-21.15-72.27c-.08-.15.07-.38.22-.45l91.15-35.31a.34.34,0,0,1,.38.07l25.67,25.67a10.56,10.56,0,0,1-.83,15.66l-67.82,54.89-.07.07-27,12A.23.23,0,0,0,377.2,281.15Zm-20.69-72.43,20.92,71.53L404,268.5l67.82-54.88a9.73,9.73,0,0,0,3.61-7.61,9.91,9.91,0,0,0-2.86-6.92l-25.52-25.53Z" style="fill:#164a67"/><ellipse id="Oval-11" data-name="Oval" cx="309.09" cy="302.83" rx="76.7" ry="74.68" style="fill:#e7f1f8"/><path id="Shape-74" data-name="Shape" d="M309.09,378C266.63,378,232,344.31,232,302.91s34.55-75.06,77.08-75.06,77.07,33.65,77.07,75.06S351.54,378,309.09,378Zm0-149.45c-42.08,0-76.33,33.36-76.33,74.31s34.25,74.31,76.33,74.31,76.32-33.35,76.32-74.31S351.16,228.52,309.09,228.52Z" style="fill:#40565b"/><ellipse id="Oval-12" data-name="Oval" cx="311.72" cy="309.98" rx="65.48" ry="61.73" style="fill:#fff"/><path id="Shape-75" data-name="Shape" d="M311.72,372.09c-36.28,0-65.86-27.85-65.86-62.11s29.58-62.11,65.86-62.11,65.86,27.86,65.86,62.11S348,372.09,311.72,372.09Zm0-123.39c-35.9,0-65.11,27.48-65.11,61.36s29.21,61.36,65.11,61.36,65.11-27.48,65.11-61.36S347.62,248.7,311.72,248.7Z" style="fill:#40565b"/><ellipse id="Oval-13" data-name="Oval" cx="311.72" cy="309.68" rx="59.31" ry="57.59" style="fill:#84a5b7"/><path id="Shape-76" data-name="Shape" d="M311.72,367.65c-32.89,0-59.69-26-59.69-58s26.8-58,59.69-58,59.69,26,59.69,58S344.61,367.65,311.72,367.65Zm0-115.19c-32.52,0-58.94,25.68-58.94,57.22s26.42,57.22,58.94,57.22,58.94-25.67,58.94-57.22S344.24,252.46,311.72,252.46Z" style="fill:#40565b"/><ellipse id="Oval-14" data-name="Oval" cx="311.72" cy="309.68" rx="37.26" ry="36.21" style="fill:#a1c2d8"/><path id="Shape-77" data-name="Shape" d="M311.72,346.27c-20.77,0-37.63-16.41-37.63-36.59s16.86-36.59,37.63-36.59,37.63,16.42,37.63,36.59S332.49,346.27,311.72,346.27Zm0-72.42c-20.32,0-36.88,16-36.88,35.83s16.56,35.84,36.88,35.84,36.88-16,36.88-35.84S332,273.85,311.72,273.85Z" style="fill:#40565b"/><path id="Shape-78" data-name="Shape" d="M311.72,346.27c-20.77,0-37.63-16.41-37.63-36.59s16.86-36.59,37.63-36.59,37.63,16.42,37.63,36.59S332.49,346.27,311.72,346.27Zm0-72.42c-20.32,0-36.88,16-36.88,35.83s16.56,35.84,36.88,35.84,36.88-16,36.88-35.84S332,273.85,311.72,273.85Z" style="fill:#40565b"/><ellipse id="Oval-15" data-name="Oval" cx="311.65" cy="309.68" rx="32.74" ry="30.04" style="fill:#1785c8"/><path id="Shape-79" data-name="Shape" d="M311.65,340.1c-18.3,0-33.12-13.63-33.12-30.42s14.82-30.41,33.12-30.41,33.11,13.62,33.11,30.41S329.94,340.1,311.65,340.1Zm0-60.08c-17.84,0-32.37,13.33-32.37,29.66s14.53,29.67,32.37,29.67S344,326,344,309.68,329.56,280,311.65,280Z" style="fill:#164a67"/><path id="Shape-80" data-name="Shape" d="M311.72,372.09c-36.28,0-65.86-27.85-65.86-62.11s29.58-62.11,65.86-62.11,65.86,27.86,65.86,62.11S348,372.09,311.72,372.09Zm0-123.39c-35.9,0-65.11,27.48-65.11,61.36s29.21,61.36,65.11,61.36,65.11-27.48,65.11-61.36S347.62,248.7,311.72,248.7Z" style="fill:#40565b"/><g id="Shape-81" data-name="Shape"><path d="M331.06,303.73c20.33-20.7,72.64-66.47,88.82-21.15,16.71,47.13-61.19,44.79-86.18,41.11" style="fill:#fff"/><path d="M364.78,285.67c9.87-9.87,20.48-17.55,30.41-22.44-21.9.9-50.43,26.43-64.13,40.5l2.64,20c1.58.22,3.31.45,5.19.67C343.11,312.24,352.14,298.39,364.78,285.67Z" style="fill:#e7f1f8"/><path d="M360,325.87a189.17,189.17,0,0,1-26.35-1.73.39.39,0,0,1,.15-.76c17.69,2.56,67.22,5.05,83.18-14.45,5.49-6.78,6.39-15.58,2.63-26.2s-9.78-16.79-17.84-18.6c-23.86-5.27-59.84,29.22-70.3,39.83a.37.37,0,0,1-.53-.53c10.54-10.76,46.82-45.39,71-40.05,8.36,1.81,14.53,8.28,18.37,19.05,3.91,10.92,2.93,19.95-2.79,26.95C406.71,322.48,381.19,325.87,360,325.87Z" style="fill:#40565b"/></g><g id="Shape-82" data-name="Shape"><path d="M282.22,326.25c-29.06.3-98.38-4.37-77.76-47.81,21.45-45.17,74.89,11.59,90,31.84" style="fill:#fff"/><path d="M245.63,315.18a119,119,0,0,1-37.4-5.65c16.18,14.83,54.34,16.94,74,16.72l12.26-16c-.9-1.28-2-2.63-3.23-4.14C279.73,311.71,263.55,315.18,245.63,315.18Z" style="fill:#e7f1f8"/><path d="M280,326.62c-17.23,0-63.6-2-76.32-21.91-4.59-7.22-4.44-16.11.45-26.5s12-16.18,21-17.09c25.37-2.48,58.86,34.48,69.62,48.94.16.15.08.38-.07.53s-.38.07-.53-.08c-10.69-14.38-44-51-68.94-48.63-8.66.82-15.51,6.47-20.4,16.63s-5,18.75-.53,25.75c13.17,20.55,62.93,21.68,77.91,21.53h0a.38.38,0,0,1,0,.76A21.37,21.37,0,0,1,280,326.62Z" style="fill:#40565b"/></g><g id="Shape-83" data-name="Shape"><path d="M321.88,342.73c15.88,24.32,49.23,85.3,1.51,91.25-49.61,6.17-30.49-69.41-21.53-93.05" style="fill:#fff"/><path d="M332.19,379.62c7.53,11.82,12.72,23.79,15.36,34.56,3.84-21.61-15-55-25.67-71.37l-20.1-1.73c-.52,1.43-1.12,3.08-1.73,5C311,352.67,322.56,364.49,332.19,379.62Z" style="fill:#e7f1f8"/><path d="M317.89,434.81c-8.8,0-15.58-2.94-20.17-8.89-15.73-20-2.63-68.21,3.76-85.07a.36.36,0,1,1,.68.23c-6.32,16.71-19.42,64.52-3.84,84.32,5.42,6.85,13.78,9.63,25,8.2s18.52-5.87,22-13.4c10.31-22.13-15.58-64.74-23.71-77.24-.15-.15-.07-.38.08-.53a.46.46,0,0,1,.52.08c8.21,12.57,34.25,55.48,23.79,78-3.62,7.76-11.22,12.43-22.58,13.86A35.43,35.43,0,0,1,317.89,434.81Z" style="fill:#40565b"/></g><ellipse id="Oval-16" data-name="Oval" cx="311.72" cy="321.13" rx="32.14" ry="32.15" style="fill:#e7f1f8"/><path id="Shape-84" data-name="Shape" d="M311.72,353.65a32.53,32.53,0,1,1,32.52-32.52A32.58,32.58,0,0,1,311.72,353.65Zm0-64.3a31.78,31.78,0,1,0,31.76,31.78A31.77,31.77,0,0,0,311.72,289.35Z" style="fill:#40565b"/><path id="Shape-85" data-name="Shape" d="M339.19,324.59c0,16.71-12.11,32.3-25.66,32.3s-29.36-16.64-29.36-33.36,15.73-27.17,29.36-27.17S339.19,307.88,339.19,324.59Z" style="fill:#3aa1d6"/><path id="Shape-86" data-name="Shape" d="M326.7,300.27a29.69,29.69,0,0,1,4.74,16.64c0,16.71-12.12,32.3-25.67,32.3-4.74,0-9.78-2-14.22-5.42,5.79,7.75,14.22,13.1,22,13.1,13.55,0,25.66-15.59,25.66-32.3C339.19,313.67,334.08,305,326.7,300.27Z" style="fill:#1785c8"/><path id="Shape-87" data-name="Shape" d="M313.53,357.26c-14.45,0-29.73-17.39-29.73-33.73S299.15,296,313.53,296c12.79,0,26,10.69,26,28.68C339.57,341.68,327.15,357.26,313.53,357.26Zm0-60.6c-14,0-29,10.76-29,26.8,0,7.75,3.46,16,9.48,22.74,5.8,6.47,13.1,10.31,19.5,10.31,13.24,0,25.29-15.21,25.29-31.92C338.82,308.93,327.68,296.66,313.53,296.66Z" style="fill:#164a67"/></g></g></g></g></svg>