<?xml version="1.0" encoding="utf-8"?>
<!-- Generator: Adobe Illustrator 19.0.0, SVG Export Plug-In . SVG Version: 6.00 Build 0)  -->
<svg version="1.1" id="cleanup" xmlns="http://www.w3.org/2000/svg" xmlns:xlink="http://www.w3.org/1999/xlink" x="0px" y="0px"
	 viewBox="-209 311 192.9 171" style="enable-background:new -209 311 192.9 171;" xml:space="preserve">
<style type="text/css">
	.st0{fill:#19BC9C;stroke:#109995;stroke-linecap:round;stroke-linejoin:round;}
	.st1{fill:#FFFFFF;stroke:#3F555A;stroke-linecap:round;stroke-linejoin:round;}
	.st2{fill:none;stroke:#C3D4E0;stroke-linecap:round;stroke-linejoin:round;}
	.st3{fill:none;stroke:#3F555A;stroke-linecap:round;stroke-linejoin:round;}
	.st4{fill:#3290C1;stroke:#1E6B96;stroke-linejoin:round;}
	.st5{fill:#3F555A;stroke:#3F555A;stroke-miterlimit:10;}
	.st6{fill:#FFFFFF;}
	.st7{fill:none;stroke:#A1C2D8;stroke-linecap:round;stroke-linejoin:round;}
	.st8{fill:#FFFFFF;stroke:#A1C2D8;stroke-linecap:round;stroke-linejoin:round;}
	.st9{fill:#F56F40;stroke:#D65129;stroke-linecap:round;stroke-linejoin:round;}
	.st10{fill:#F56F40;}
	.st11{fill:none;stroke:#D65129;stroke-linecap:round;stroke-linejoin:round;}
	.st12{fill:#F56F40;stroke:#D65129;stroke-linejoin:round;}
	.st13{fill:#E7F1F8;}
	.st14{fill:#3F555A;}
	.st15{fill:none;stroke:#F56F40;stroke-linecap:round;stroke-linejoin:round;}
	.st16{fill:none;stroke:#109995;stroke-linecap:round;stroke-linejoin:round;}
</style>
<title>differentiation</title>
<path class="st0" d="M-143.6,316.9c3-2.8,7.6-2.6,10.4,0.3c0.8,0.9,1.4,1.9,1.7,3c0.7,2.1,1.2,5.7-1.3,6.9c-0.5,0.2-1,0.3-1.5,0.3
	c-2.6,0-5.1-0.4-7.4-1.4c-1.1-0.4-2.1-1-2.9-1.8c-1-0.8-1.5-2.1-1.1-3.3C-145.4,319.3-144.7,318-143.6,316.9z"/>
<path class="st0" d="M-151.6,320.5c-0.7-1.7-1-3.8,0.2-5.3c1.7-2.2,5.1-1.4,7.5-0.2c3,1.6,5.4,4,6.9,7c0.5,1.1,1,2.2,1.4,3.3
	c0.2,0.5,0.3,1.1-0.1,1.4c-0.4,0.2-0.9,0.3-1.3,0.2c-3.2-0.3-6.3-0.9-9.4-1.9c-1.1-0.3-2.2-0.8-3.1-1.5
	C-150.4,322.7-151.1,321.7-151.6,320.5z"/>
<path class="st1" d="M-146.5,353.3c-6.4,4.5-14.4,6-22,3.9c-6-1.6-12.4-6.1-13.2-12.4c-0.1-0.5-0.1-1.1-0.1-1.6l7.5,0.2
	c0.5,0,0.9,0.4,1.1,0.8c0.7,1.9,3.9,4,6.8,4.8c5.1,1.4,10.5,0.5,14.8-2.5c2.3-1.7,5.3-2,7.9-0.7c0.9,0.4,1.5,1.3,1.6,2.3
	c-0.1,0.4-0.2,0.9-0.5,1.2C-143.6,350.9-144.9,352.3-146.5,353.3z"/>
<path class="st2" d="M-170.5,347.4c-0.3,1.5-1.2,2.8-2.3,3.8"/>
<path class="st2" d="M-164.3,349.9c0,1.1-0.2,2.2-0.7,3.2"/>
<path class="st3" d="M-146.5,353.3c-6.4,4.5-14.4,6-22,3.9c-6-1.6-12.4-6.1-13.2-12.4c-0.1-0.5-0.1-1.1-0.1-1.6l7.5,0.2
	c0.5,0,0.9,0.4,1.1,0.8c0.7,1.9,3.9,4,6.8,4.8c5.1,1.4,10.5,0.5,14.8-2.5c2.3-1.7,5.3-2,7.9-0.7c0.9,0.4,1.5,1.3,1.6,2.3
	c-0.1,0.4-0.2,0.9-0.5,1.2C-143.6,350.9-144.9,352.3-146.5,353.3z"/>
<path class="st2" d="M-154.2,350.8c0.4,0.9,0.6,1.9,0.4,2.9"/>
<path class="st2" d="M-147.8,348.1c1.1,0.8,1.8,1.9,2,3.2"/>
<path class="st4" d="M-158.7,370.3c0-3.3-0.4-18.5,0.4-21.7s2.9-6.3,6-7.4c1.1-0.3,2.2-0.6,3.4-0.6c6.2-0.6,12.5-0.7,18.7-0.2
	c2.8,0.2,6.1,0.8,7.6,3.2c1,1.6,1,3.5,0.9,5.4c-0.1,3.4,0.2,18.2,0.1,21.6"/>
<path class="st1" d="M-130,330.5c0-5.1-4.8-8.3-10.7-8.3c-5.9,0-10.7,3.1-10.7,8.3v10.4c0,1.6,4.8,2.9,10.7,2.9
	c5.9,0,10.7-1.3,10.7-2.9V330.5z"/>
<path class="st3" d="M-146.8,338.3c2.1,1.2,4.7,1.2,6.8,0"/>
<line class="st3" x1="-138" y1="351.8" x2="-138" y2="353.7"/>
<line class="st3" x1="-134.6" y1="351.8" x2="-134.6" y2="353.7"/>
<line class="st3" x1="-131.2" y1="351.8" x2="-131.2" y2="353.7"/>
<path class="st5" d="M-143.7,330.8c0,1.7-0.9,3.2-2.4,4c-1.6,0.8-3.4,0.7-4.9-0.2c-1.4-0.9-2.2-2.6-1.9-4.2c-0.4,0-0.6-0.8-0.4-1.2
	c0.3-0.3,0.7-0.4,1.2-0.4c1.9-0.1,3.9-0.1,5.8,0.1c0.6,0,1.2,0.1,1.8,0.2c0.4,0,0.7,0.2,1,0.5C-143.2,329.9-143.3,330.7-143.7,330.8
	z"/>
<path class="st5" d="M-134.2,331.3c0,1.7-0.9,3.2-2.4,4c-1.6,0.8-3.4,0.7-4.9-0.2c-1.4-0.9-2.2-2.6-1.9-4.2c-0.4,0-0.6-0.8-0.4-1.1
	c0.3-0.3,0.7-0.4,1.2-0.4c1.9-0.1,3.9-0.1,5.8,0.1c0.6,0,1.2,0.1,1.8,0.2c0.4,0,0.7,0.2,1,0.5C-133.8,330.4-133.9,331.2-134.2,331.3
	z"/>
<path class="st1" d="M-188.1,346.6c-0.9-2.3-0.2-5.5,1.1-7.5s3.6-1.8,5.7-1.4c2,0.4,4.2,0.5,5.8,1.7c2.2,1.6,1.7,5.2,1.2,7.5
	c-0.2,0.9-0.9,1.6-1.8,1.8c-3.2,0.6-6.5,0-9.7-0.6c-0.3-0.1-0.7-0.3-0.6-0.6"/>
<path class="st1" d="M-172,355.2l-4.9-11.6l1.6-9.7c0.6,0.1,1.1-0.3,1.2-0.9c0.1-0.6-0.3-1.1-0.9-1.2l-5.3-0.9
	c-0.6-0.1-1.2,0.3-1.3,0.9c-0.1,0.6,0.3,1.2,0.9,1.3l-1.6,9.7l-8.4,9.4c-0.9,1-0.8,2.6,0.2,3.5c0.3,0.3,0.8,0.5,1.2,0.6l14.5,2.4
	c1.4,0.2,2.6-0.7,2.9-2.1C-171.7,356.1-171.8,355.6-172,355.2z"/>
<path class="st0" d="M-188.7,353.7l14.4,2.4l-2.3-5.4c-2.8-0.3-5.7-0.5-8.5-1L-188.7,353.7z"/>
<path class="st1" d="M-182.9,340.4c0,0,3.2,0.3,3.6,1c0.3,0.5,0.4,1.1,0.2,1.7l-0.3,2.4c-0.1,0.9-0.4,2-1.2,2.4
	c-0.5,0.2-1,0.3-1.5,0.2c-1.4-0.1-2.9-0.2-4.3-0.5c-0.7-0.1-1.5-0.4-1.7-1"/>
<path class="st6" d="M-19.4,481.5h-187.9c-1.1,0-2-0.9-2-2c0-0.2,0-0.4,0.1-0.6l12.4-37c0.4-1.2,1.6-2,2.8-2h161.2
	c1.3,0,2.4,0.8,2.8,2l12.4,37c0.4,1-0.2,2.2-1.3,2.5C-19,481.5-19.2,481.5-19.4,481.5z"/>
<path class="st6" d="M-19.4,481.5h-187.9c-1.1,0-2-0.9-2-2c0-0.2,0-0.4,0.1-0.6l12.4-37c0.4-1.2,1.6-2,2.8-2h161.2
	c1.3,0,2.4,0.8,2.8,2l12.4,37c0.4,1-0.2,2.2-1.3,2.5C-19,481.5-19.2,481.5-19.4,481.5z"/>
<path class="st7" d="M-19.4,481.5h-187.9c-1.1,0-2-0.9-2-2c0-0.2,0-0.4,0.1-0.6l12.4-37c0.4-1.2,1.6-2,2.8-2h161.2
	c1.3,0,2.4,0.8,2.8,2l12.4,37c0.4,1-0.2,2.2-1.3,2.5C-19,481.5-19.2,481.5-19.4,481.5z"/>
<path class="st7" d="M-19.4,481.5h-187.9c-1.1,0-2-0.9-2-2c0-0.2,0-0.4,0.1-0.6l12.4-37c0.4-1.2,1.6-2,2.8-2h161.2
	c1.3,0,2.4,0.8,2.8,2l12.4,37c0.4,1-0.2,2.2-1.3,2.5C-19,481.5-19.2,481.5-19.4,481.5z"/>
<path class="st6" d="M-45.8,403.1H-181c-1.1,0-2-0.9-2-2c0-0.2,0-0.4,0.1-0.6l9.5-28.5c0.4-1.2,1.6-2,2.8-2h114.3
	c1.3,0,2.4,0.8,2.8,2l9.6,28.5c0.3,1.1-0.2,2.2-1.3,2.5C-45.3,403.1-45.5,403.1-45.8,403.1z"/>
<path class="st7" d="M-45.8,403.1H-181c-1.1,0-2-0.9-2-2c0-0.2,0-0.4,0.1-0.6l9.5-28.5c0.4-1.2,1.6-2,2.8-2h114.3
	c1.3,0,2.4,0.8,2.8,2l9.6,28.5c0.3,1.1-0.2,2.2-1.3,2.5C-45.3,403.1-45.5,403.1-45.8,403.1z"/>
<path class="st1" d="M-119,347.4c3.7,6.9,4.1,15.1,1.1,22.3c-2.3,5.8-7.6,11.5-14,11.5c-0.5,0-1.1,0-1.6-0.1l1.1-7.4
	c0.1-0.5,0.5-0.9,1-1c2-0.4,4.5-3.4,5.6-6.1c2-4.8,1.8-10.4-0.7-15c-1.4-2.5-1.3-5.5,0.3-7.9c0.5-0.9,1.5-1.3,2.5-1.3
	c0.4,0.1,0.8,0.3,1.2,0.6C-121.1,344.2-119.9,345.7-119,347.4z"/>
<path class="st2" d="M-127.9,370.5c1.4,0.5,2.7,1.5,3.5,2.8"/>
<path class="st2" d="M-124.6,364.6c1.1,0.2,2.2,0.5,3.1,1.1"/>
<path class="st2" d="M-124.1,357.6c1-0.4,2-0.4,3-0.1"/>
<path class="st2" d="M-126.1,350.9c0.9-1,2.1-1.6,3.4-1.7"/>
<path class="st3" d="M-119,347.4c3.7,6.9,4.1,15.1,1.1,22.3c-2.3,5.8-7.6,11.5-14,11.5c-0.5,0-1.1,0-1.6-0.1l1.1-7.4
	c0.1-0.5,0.5-0.9,1-1c2-0.4,4.5-3.4,5.6-6.1c2-4.8,1.8-10.4-0.7-15c-1.4-2.5-1.3-5.5,0.3-7.9c0.5-0.9,1.5-1.3,2.5-1.3
	c0.4,0.1,0.8,0.3,1.2,0.6C-121.1,344.2-119.9,345.7-119,347.4z"/>
<path class="st1" d="M-135.3,377.1v0.5c0,0.9-0.7,1.6-1.6,1.6h-6.6c-1.8,0-3.2-1.4-3.2-3.2l0,0v-0.5c0-1.9,1.6-3.5,3.5-3.5l0,0h9
	c1.7,0,3,1.3,3,3v3.6c0,1.9-1.6,3.5-3.5,3.5l0,0h-4.7c-1.2,0-2.2-1-2.2-2.2l0,0v-0.7"/>
<polygon class="st7" points="-176,471.6 -195.8,471.6 -192.1,453.6 -173.9,453.6 "/>
<polygon class="st7" points="-140.1,469.1 -160,469.1 -157.8,449.5 -139.6,449.5 "/>
<polygon class="st8" points="-138.1,467.1 -158,467.1 -155.8,447.5 -137.6,447.5 "/>
<path class="st9" d="M-145,396.2c2.9-1.4,4.6-4.5,4.3-7.7c-0.1-1.2-0.6-2.3-1.5-3.1c-0.8-0.6-1.7-1.1-2.7-1.2
	c-2.4-0.3-4.9,0.2-6.9,1.4c-2.1,1.3-3.9,2.9-5.3,4.9c-1.4,1.7-2.5,3.6-3.1,5.7"/>
<path class="st10" d="M-148,396.4c-0.5-2-1.1-4-1.8-5.9c-0.2-0.7-0.6-1.4-1-2c-2.3-3.1-7.7-2.8-10.7-1c-3.1,1.8-4.9,5.2-4.7,8.7"/>
<path class="st11" d="M-153.9,386.5c-5.1-1.5-10.4,1.3-12,6.4c-0.3,1.1-0.5,2.2-0.4,3.2"/>
<path class="st11" d="M-145,396.2c2.9-1.4,4.6-4.5,4.3-7.7c-0.1-1.2-0.6-2.3-1.5-3.1c-0.8-0.6-1.7-1.1-2.7-1.2
	c-2.4-0.3-4.9,0.2-6.9,1.4c-2.1,1.3-3.9,2.9-5.3,4.9c-1.4,1.7-2.5,3.6-3.1,5.7"/>
<path class="st6" d="M-164.5,405c0,4.7-1.5,8.4-3.3,8.4s-3.3-3.8-3.3-8.4c0-1,0.1-2,0.2-2.9c2.1,0.6,4.2,0.9,6.3,0.9
	C-164.5,403.6-164.5,404.3-164.5,405z"/>
<path class="st6" d="M-167.8,396.6c1.6,0,2.8,2.7,3.2,6.4c-2.1,0-4.3-0.3-6.3-0.9C-170.4,398.9-169.2,396.6-167.8,396.6z"/>
<path class="st6" d="M-164.6,403c-0.4-3.7-1.7-6.4-3.2-6.4c0,0,4.9-0.5,13.6-0.5c3.9-0.1,7.8,0.1,11.7,0.5c1.3,0,2.4,1.9,3,4.7
	C-147.8,400.7-156.4,403.1-164.6,403z"/>
<path class="st6" d="M-139.5,401.3c0.2,1.2,0.4,2.5,0.4,3.7c0,4.7-1.5,8.4-3.3,8.4h-25.3c1.8,0,3.3-3.8,3.3-8.4c0-0.7,0-1.4-0.1-2
	C-156.4,403.1-147.8,400.7-139.5,401.3z"/>
<path class="st1" d="M-150.9,428.6c1.1-1,2.7-1.3,4.1-0.7c2.1,0.8,3.6,2.7,4.8,4.7c1.2,2,2.2,4,3.9,5.6c1.6,1.5,3.7,2.4,5.9,2.6
	c2.2,0.1,5.2,0.1,7.2-0.8l0.3-7.4c-4.2,1.9-9.1,0.6-11.7-3.1c-1.3-1.9-1.9-4.1-2.7-6.2s-1.9-4.3-3.8-5.5c-1.2-0.9-2.9-1-4.2-0.2
	L-150.9,428.6z"/>
<path class="st3" d="M-150.9,428.6c1.1-1,2.7-1.3,4.1-0.7c2.1,0.8,3.6,2.7,4.8,4.7c1.2,2,2.2,4,3.9,5.6c1.6,1.5,3.7,2.4,5.9,2.6
	c2.2,0.1,5.2,0.1,7.2-0.8l0.3-7.4c-4.2,1.9-9.1,0.6-11.7-3.1c-1.3-1.9-1.9-4.1-2.7-6.2s-1.9-4.3-3.8-5.5c-1.2-0.9-2.9-1-4.2-0.2
	L-150.9,428.6z"/>
<path class="st0" d="M-142.5,439.8c0.4-5,0.7-12.6-1.3-17.3c-2.6-6.2-10.1-8-16.4-6.6c-9.7,2.2-9.4,15.7-9.4,23.9"/>
<path class="st1" d="M-151,413.5c-0.1,1,0,0.2,0,1.2c0.1,1-0.2,2-0.7,2.9c-0.7,0.9-1.8,1.6-2.9,1.8c-1.3,0.3-2.9,0.3-3.8-0.6
	c-0.9-1-0.9-2.3-0.8-3.6c0.1-1.1,0.1-0.3,0.2-1.4"/>
<line class="st7" x1="-138.6" y1="439.9" x2="-172.7" y2="439.9"/>
<ellipse class="st3" cx="-167.8" cy="405" rx="3.3" ry="8.4"/>
<path class="st3" d="M-142.5,396.6c1.8,0,3.3,3.8,3.3,8.4c0,4.7-1.5,8.5-3.3,8.5h-25.3c1.8,0,3.3-3.8,3.3-8.4c0-4.7-1.5-8.4-3.3-8.4
	c0,0,4.9-0.5,13.6-0.5C-150.3,396.1-146.4,396.2-142.5,396.6z"/>
<path class="st3" d="M-159.6,406.2c0.2-1.2,0.2-2.5-0.1-3.7"/>
<path class="st3" d="M-144.9,406.3c0-1.2,0-2.3-0.1-3.5"/>
<path class="st9" d="M-150.3,406.6l-1.4-2.2l-1.5,2.2H-150.3"/>
<path class="st3" d="M-148.9,409.5c-2.1,1.2-4.6,1.1-6.7-0.2"/>
<path class="st3" d="M-159.2,399.7c-0.5-0.2-1-0.2-1.5,0.1"/>
<path class="st3" d="M-144.2,400.1c-0.4-0.2-0.8-0.2-1.2-0.1"/>
<circle class="st9" cx="-133.2" cy="405.2" r="1.8"/>
<path class="st3" d="M-134.2,405.3h-4.3"/>
<path class="st3" d="M-174.9,405.3h6.4"/>
<path class="st1" d="M-172.9,446.4c-0.9-4.6-1.7-9.5-0.3-13.7c1.3-3.6,4-6.5,7.5-8c1.8-0.7,2.9-2.6,2.6-4.5l-0.1-0.6
	c-0.1-0.9-1-1.5-1.9-1.4h-0.1c-6.4,1.6-11.6,6.3-13.7,12.6c-1.8,5.6-0.9,11.3,0.2,16.7L-172.9,446.4z"/>
<path class="st2" d="M-169.8,423.4c-0.5-0.6-0.9-1.4-1.1-2.1"/>
<path class="st2" d="M-173.9,426.4c-0.5-0.1-0.9-0.3-1.3-0.6"/>
<path class="st2" d="M-176.4,430.7c-0.6,0-1.2-0.1-1.7-0.3"/>
<path class="st2" d="M-177.5,435.9l-1.5,0.1"/>
<path class="st2" d="M-177.7,441.3c-0.4,0.2-0.9,0.3-1.4,0.2"/>
<path class="st3" d="M-172.9,446.4c-0.9-4.6-1.7-9.5-0.3-13.7c1.3-3.6,4-6.5,7.5-8c1.8-0.7,2.9-2.6,2.6-4.5l-0.1-0.6
	c-0.1-0.9-1-1.5-1.9-1.4h-0.1c-6.4,1.6-11.6,6.3-13.7,12.6c-1.8,5.6-0.9,11.3,0.2,16.7L-172.9,446.4z"/>
<path class="st1" d="M-172.7,450.9c0.5,1.6,0.9,3.2,1.1,4.9c0.2,1.2,0.2,2.6-0.8,3.3c-0.3,0.2-0.7,0.4-1.1,0.5
	c-0.7,0.3-1.5,0.4-2.3,0.3c-0.8,0-1.5-0.5-2-1.1c-0.2-0.3-0.3-0.7-0.4-1.1c-0.5-1.9-1-3.7-1.4-5.6c-0.2-1-0.7-3-0.2-4
	c0.5-0.7,1.2-1.2,2-1.4c1.4-0.5,3-0.8,4.5-0.9c0.4,0,0.8,0,1.1,0.1c0.8,0.3,1.8,3.4,2,4.2c0.4,1.1,0.6,2.1,0.7,3.3
	c0.1,0.6,0,1.2-0.3,1.7s-0.8,0.8-1.4,0.8"/>
<circle class="st9" cx="-175.6" cy="405.2" r="1.8"/>
<path class="st6" d="M-123.4,437.3c0.6,0.9,1.4,1.5,2.3,1.9c1,0.4,2.1,0,2.7-0.9c0.6-1,0-2.3-0.6-3.3c-1-1.8-2.5-3.9-4.9-3.6
	c-2.2,0.4-4,1.9-4.8,3.9c-0.9,2.2,0.4,4.7,1.7,6.8c0.8,1.6,2.1,2.9,3.7,3.7c1.4,0.6,3.4,0.8,4.5-0.5c1.1-1.5,1.3-3.4,0.5-5.1
	c-0.3-0.5-0.6-1-0.8-1.3"/>
<path class="st3" d="M-123.4,437.3c0.6,0.9,1.4,1.5,2.3,1.9c1,0.4,2.1,0,2.7-0.9c0.6-1,0-2.3-0.6-3.3c-1-1.8-2.5-3.9-4.9-3.6
	c-2.2,0.4-4,1.9-4.8,3.9c-0.9,2.2,0.4,4.7,1.7,6.8c0.8,1.6,2.1,2.9,3.7,3.7c1.4,0.6,3.4,0.8,4.5-0.5c1.1-1.5,1.3-3.4,0.5-5.1
	c-0.3-0.5-0.6-1-0.8-1.3"/>
<path class="st2" d="M-133.2,437.3c0.1-1.2,0.4-2.4,0.9-3.5"/>
<path class="st2" d="M-137.6,432.6l1-1.6"/>
<path class="st2" d="M-139.8,426.3l0.2-0.3"/>
<path class="st2" d="M-142.7,420.1l0.5-0.4"/>
<path class="st3" d="M-54.5,404.2l-5.3-0.2"/>
<circle class="st9" cx="-54" cy="404.2" r="1"/>
<path class="st3" d="M-79.4,404.6l5.3-0.4"/>
<circle class="st9" cx="-79.9" cy="404.6" r="1"/>
<path class="st6" d="M-95,454.2c11.5-6.4,19.6-17.3,22.4-30.1l-5.4-1.2c-2.5,11.2-9.6,20.8-19.7,26.4L-95,454.2z"/>
<path class="st2" d="M-79.7,433l-1.1-0.4"/>
<path class="st2" d="M-82.8,437.6l-0.8-0.4"/>
<path class="st2" d="M-85.4,441.3l-0.8-0.2"/>
<path class="st2" d="M-89.2,444.8l-0.5-0.4"/>
<path class="st3" d="M-95,454.2c11.5-6.4,19.6-17.3,22.4-30.1l-5.4-1.2c-2.5,11.2-9.6,20.8-19.7,26.4L-95,454.2z"/>
<path class="st12" d="M-60.4,440c4.3-5.1,5.4-11.4,5.8-17.8c0.2-0.9-0.3-1.8-1.1-2h-0.1c-5.3-2.1-11.1-2.7-16.7-1.7
	c-1.8,0.3-3.6,0.9-5.2,1.8c-0.3,0.1-0.5,0.3-0.6,0.6c-0.1,0.3-0.1,0.6-0.1,0.9c0.6,6.6,2.2,13,6.9,18.1"/>
<line class="st7" x1="-60.5" y1="452.3" x2="-78.1" y2="452.3"/>
<path class="st6" d="M-59.7,457.3c-1.3-1.4-2.6-2.6-4.1-3.8c8.4-8.3,10.8-21,6-31.9c-0.3-0.7,0-1.4,0.6-1.8c2-1,4.4-0.2,5.4,1.8
	c0.1,0.2,0.1,0.3,0.2,0.5C-47.4,434.5-50.5,448.2-59.7,457.3L-59.7,457.3z"/>
<path class="st2" d="M-50.5,428.1c-0.6,0-1.1,0.1-1.7,0.3"/>
<path class="st2" d="M-50.3,435.7l-1.5-0.3"/>
<path class="st2" d="M-51.9,442.6l-0.9-0.4"/>
<path class="st2" d="M-54.6,448.3l-0.9-0.4"/>
<path class="st3" d="M-59.7,457.3c-1.3-1.4-2.6-2.6-4.1-3.8c8.4-8.3,10.8-21,6-31.9c-0.3-0.7,0-1.4,0.6-1.8c2-1,4.4-0.2,5.4,1.8
	c0.1,0.2,0.1,0.3,0.2,0.5C-47.4,434.5-50.5,448.2-59.7,457.3L-59.7,457.3z"/>
<path class="st1" d="M-70.4,415.2c0.1,0.8,0.1,1.6,0,2.3c-0.1,0.8,0.1,1.6,0.5,2.2c0.6,0.7,1.4,1.2,2.3,1.4c1,0.4,2.1,0.2,2.9-0.5
	c0.6-0.8,0.8-1.8,0.6-2.8l-0.1-2.5"/>
<path class="st1" d="M-73.8,393.3c5-0.5,10-0.3,14.9,0.7l-1.5,20.5c-4.6,0.9-9.3,0.8-13.8-0.3l-1.3-18.8
	C-75.6,394.4-74.8,393.4-73.8,393.3z"/>
<path class="st12" d="M-58.8,391.9c-0.6-1.7-1.3-3.3-2.2-4.8c-0.1-0.1-0.2-0.2-0.3-0.3c-0.1-0.1-0.3-0.1-0.5-0.1
	c-1.3,0.2-2.2,1.3-2.1,2.5c-1.3,0.3-2.2,1.4-2.3,2.7c0,0.1,0,0.2,0,0.3c0.1,0.1,0.2,0.3,0.4,0.3c1.6,1,3.2,1.8,4.9,2.4"/>
<path class="st12" d="M-59.4,396.6c0.6,1.7,1.3,3.3,2.2,4.8c0.1,0.1,0.2,0.2,0.3,0.3c0.1,0.1,0.3,0.1,0.5,0.1
	c1.3-0.2,2.2-1.3,2.1-2.5c1.3-0.3,2.2-1.4,2.3-2.7c0-0.1,0-0.2,0-0.3c-0.1-0.1-0.2-0.3-0.4-0.3c-1.6-1-3.3-1.8-5-2.5"/>
<circle class="st12" cx="-59.2" cy="394.3" r="2.2"/>
<path class="st3" d="M-63,405.3v-4.1c0-0.1,0-0.2,0-0.3c-0.1-0.2-0.6-0.2-0.6-0.5"/>
<path class="st3" d="M-71.2,405.3v-4.1c0-0.1,0-0.2,0-0.3c-0.1-0.2-0.6-0.2-0.6-0.5"/>
<path class="st3" d="M-66.9,405.6h-1.2"/>
<path class="st3" d="M-64.1,409.9c-1.7,1.1-3.9,1.3-5.8,0.4"/>
<path class="st3" d="M-62.7,397c-0.3-0.1-0.7-0.1-1,0"/>
<path class="st3" d="M-70.7,396.8c-0.3-0.2-0.7-0.2-1.1,0"/>
<path class="st7" d="M-63.4,461.1l-5.6,5.4c-0.7,0.7-1.7,1.1-2.7,1.1h-0.8"/>
<path class="st6" d="M-112.3,450.3l7.7,16.9c0.5,1,1.5,1.6,2.6,1.6h1.4l-7.9-17.4c-0.1-0.4,0.1-0.8,0.5-0.9c0.1,0,0.1,0,0.2,0h28.6
	l-0.6-1.3c-0.5-1-1.5-1.6-2.6-1.6h-28c-1.1,0-2.1,1-2,2.1C-112.4,450-112.4,450.2-112.3,450.3z"/>
<path class="st13" d="M-108.5,451.4l7.9,17.4h26.5c1.1,0,2.1-0.9,2.1-2.1c0-0.2,0-0.4-0.1-0.6l-7.1-15.6h-28.6
	c-0.4,0-0.7,0.3-0.7,0.7C-108.6,451.3-108.5,451.4-108.5,451.4z"/>
<path class="st7" d="M-74.1,468.9H-102c-1.1,0-2.1-0.6-2.6-1.6l-7.7-16.9c-0.3-1.1,0.3-2.2,1.4-2.6c0.2-0.1,0.4-0.1,0.6-0.1h27.9
	c1.1,0,2.1,0.6,2.6,1.6l7.7,16.9c0.3,1.1-0.3,2.2-1.4,2.6C-73.7,468.8-73.9,468.9-74.1,468.9z"/>
<path class="st2" d="M-92.5,458.6c-0.3-0.8-1.2-1.1-2-0.9c-0.6,0.5-0.7,1.4-0.2,2l0,0c0.6,0.9,1.7,1.2,2.7,0.7
	c0.7-0.7,0.6-1.9-0.2-2.5l-0.1-0.1c0.6,1.7,2.1,2.8,3.9,2.7"/>
<path class="st1" d="M-72.2,462.3c0-0.2,0-0.4,0-0.6c0.3-1.3,0.9-2.5,1.9-3.3l2-2.1c0.7-0.8,1.5-1.5,2.4-2c1-0.4,2.1-0.6,3.2-0.5
	c1.2,0.1,2.7,0,3.6,0.9c0.9,0.9,0.3,2.6-0.4,3.6c-0.5,0.6-0.9,1.2-1.5,1.7c-0.4,0.4-0.8,0.8-1.4,1c-0.7,0.2-1.3,0.2-2,0l0.6-1
	c-1,0.9-1.8,2.2-2.9,2.9c-1.1,0.6-2.4,0.9-3.6,0.7c-0.7,0-1.4-0.4-1.8-1C-72.1,462.4-72.1,462.3-72.2,462.3z"/>
<line class="st7" x1="-58.3" y1="439.8" x2="-75" y2="439.8"/>
<path class="st4" d="M-97,370.1c0,0-13-28.4,13.6-28.4S-69.5,370-69.5,370L-97,370.1z"/>
<path class="st3" d="M-95.1,337.1c0,0-5.4,0.2-10,0.9"/>
<circle class="st14" cx="-105.1" cy="337.9" r="0.9"/>
<path class="st1" d="M-97,336.4c0,7.6,6.1,11.3,13.7,11.3s13.7-3.7,13.7-11.3c0-7.6-6.1-11.1-13.7-11.1S-97,328.9-97,336.4z"/>
<path class="st1" d="M-90.8,325.6L-90.8,325.6c0-1.4,3.4-2.6,7.6-2.6c4.2,0,7.6,1.2,7.6,2.6v2.6c0,1.4-3.4,2.6-7.6,2.6
	c-4.2,0-7.6-1.2-7.6-2.6C-90.8,328.2-90.8,325.6-90.8,325.6z"/>
<path class="st0" d="M-84.8,325.5c-2.4-0.3-4.1-1.5-4-3.6l0.2-3.1c-0.1-1.2,0.3-2.4,1-3.3c0.8-0.7,1.8-1.3,2.8-1.7
	c0.9-0.6,1.8-1.4,1.6-2.3l0,0c-0.2,0.9,0.7,1.8,1.6,2.3c1,0.4,1.9,1,2.8,1.7c0.7,0.9,1.1,2.1,1,3.3l0.2,3.1c0.1,2.1-1.6,3.3-4,3.6
	C-82.7,325.6-83.7,325.6-84.8,325.5L-84.8,325.5z"/>
<path class="st3" d="M-90.6,341.2v-2.4"/>
<path class="st3" d="M-75.9,341.2v-2.4"/>
<path class="st15" d="M-82.9,339.9v2c-0.4,0-0.8,0-1.2-0.1"/>
<path class="st3" d="M-81.8,345.1c-1.5,0.8-3.4,0.6-4.7-0.5"/>
<path class="st3" d="M-91.4,336.6c0.5-0.4,1.1-0.4,1.6-0.1"/>
<path class="st3" d="M-76.8,336.6c0.5-0.4,1.2-0.4,1.8,0"/>
<path class="st3" d="M-62.8,337.7c0,0-3.2-0.6-6.4-0.8"/>
<circle class="st14" cx="-62.8" cy="337.7" r="0.9"/>
<path class="st16" d="M-80,318.7c-0.8,0.5-1.8,0.5-2.5-0.1"/>
<path class="st1" d="M-68.7,373.5c1.7-0.9,3.2-2.1,4.4-3.5c1.7-2.2,1.9-5.7,0.5-8.9c-0.7-1.7-1.8-3.2-3.1-4.5
	c-2.5-2.5-3.8-5.8-3.1-8.5l0,0c0.3-1,1.5-1.4,2.7-0.7c4.9,2.9,8.8,7.4,11,12.7c2.3,5.8,1.7,11.8-1.5,15.7c-1.8,2-3.9,3.6-6.3,4.8"/>
<path class="st2" d="M-64.5,353.3c0.5-0.4,1.1-0.6,1.8-0.8"/>
<path class="st2" d="M-60,358l1.6-0.2"/>
<path class="st2" d="M-58.4,363.5c0.6-0.1,1.2,0,1.8,0.1"/>
<path class="st2" d="M-58.8,370c0.6,0.3,1.2,0.6,1.7,1"/>
<path class="st2" d="M-61.2,374.2l1.3,1.9"/>
<path class="st3" d="M-68.7,373.5c1.7-0.9,3.2-2.1,4.4-3.5c1.7-2.2,1.9-5.7,0.5-8.9c-0.7-1.7-1.8-3.2-3.1-4.5
	c-2.5-2.5-3.8-5.8-3.1-8.5l0,0c0.3-1,1.5-1.4,2.7-0.7c4.9,2.9,8.8,7.4,11,12.7c2.3,5.8,1.7,11.8-1.5,15.7c-1.8,2-3.9,3.6-6.3,4.8"/>
<path class="st1" d="M-75.5,376.3c0.2-1.6,1.5-2.8,3.1-2.8h3.8c1,0,1.9,0.5,2.4,1.4l0,0l0.1,0.1c0,0,0,0.1,0.1,0.1l1,2.2l0,0
	c0.2,0.4,0.3,0.9,0.3,1.4l-0.1,1.6c-0.2,1.6-1.5,2.8-3.1,2.8h-6c-0.9,0-1.8-0.4-2.3-1.2l0,0c-0.1-0.1-0.8-1.6-1.4-3
	c-0.3-0.8,0.1-1.7,0.9-2c0.2-0.1,0.3-0.1,0.5-0.1h6.2"/>
<path class="st1" d="M-97.9,373.5c-1.7-0.9-3.2-2.1-4.4-3.5c-1.7-2.2-1.9-5.7-0.6-8.9c0.7-1.7,1.8-3.2,3.1-4.5
	c2.5-2.5,3.8-5.8,3-8.5l0,0c-0.3-1-1.5-1.4-2.7-0.7c-4.9,3-8.7,7.4-10.9,12.7c-2.2,5.8-1.6,11.8,1.6,15.7c1.8,2,3.9,3.6,6.3,4.8"/>
<path class="st2" d="M-102.2,353.3c-0.5-0.4-1.1-0.6-1.8-0.8"/>
<path class="st2" d="M-106.7,358l-1.6-0.2"/>
<path class="st2" d="M-108.3,363.5c-0.6-0.1-1.2,0-1.8,0.1"/>
<path class="st2" d="M-107.8,370c-0.6,0.3-1.2,0.6-1.7,1"/>
<path class="st2" d="M-105.4,374.2l-1.3,1.9"/>
<path class="st3" d="M-97.9,373.5c-1.7-0.9-3.2-2.1-4.4-3.5c-1.7-2.2-1.9-5.7-0.6-8.9c0.7-1.7,1.8-3.2,3.1-4.5
	c2.5-2.5,3.8-5.8,3-8.5l0,0c-0.3-1-1.5-1.4-2.7-0.7c-4.9,3-8.7,7.4-10.9,12.7c-2.2,5.8-1.6,11.8,1.6,15.7c1.8,2,3.9,3.6,6.3,4.8"/>
<path class="st1" d="M-91.1,376.3c-0.2-1.6-1.5-2.8-3.1-2.8H-98c-1,0-1.9,0.5-2.4,1.4l0,0l-0.1,0.1c0,0,0,0.1-0.1,0.1l-1,2.2l0,0
	c-0.2,0.4-0.3,0.9-0.3,1.4l0.1,1.6c0.2,1.6,1.5,2.8,3.1,2.8h6c0.9,0,1.7-0.4,2.2-1.2l0,0c0.1-0.1,0.8-1.6,1.3-3
	c0.3-0.8-0.1-1.7-0.9-2c-0.2-0.1-0.3-0.1-0.5-0.1h-6.2"/>
<circle class="st0" cx="-62.2" cy="338" r="1.6"/>
<circle class="st0" cx="-105.4" cy="338" r="1.6"/>
<path class="st1" d="M-97.4,364.5l-0.2-2.6c0,0,9.4,0.1,14.4,4.6c5-4.6,14.4-4.6,14.4-4.6l-0.2,2.6l-14.2,7.4L-97.4,364.5z"/>
<path class="st10" d="M-69,364.5l-10.8,3h-0.3c-0.8,0.7-1.8,1.2-2.9,1.2c-1.1,0.1-2.2-0.4-3-1.2h-0.7l-10.8-3
	c-0.4-0.1-0.8,0.1-0.9,0.5c0,0.1,0,0.2,0,0.3l1.8,11.6l0.8,6.2l0.5,1.7c0.1,0.3,0.4,0.6,0.8,0.6l8,0.3l0,0c1.7,1.9,4.6,2,6.5,0.3
	c0.1-0.1,0.2-0.2,0.3-0.3l7.9-0.3c0.4,0,0.7-0.3,0.8-0.6l0.5-1.7l0.8-6.2l1.8-11.6c0.1-0.4-0.2-0.8-0.6-0.9
	C-68.8,364.4-68.9,364.5-69,364.5z"/>
<path class="st1" d="M-67.9,383.2h-5c-0.9,0-1.8-0.4-2.3-1.2l0,0c-0.1-0.1-0.8-1.6-1.4-3c-0.3-0.8,0.1-1.7,0.9-2
	c0.2-0.1,0.3-0.1,0.5-0.1h5.2"/>
<path class="st1" d="M-98.6,383.2h5c0.9,0,1.7-0.5,2.2-1.2l0,0c0.1-0.1,0.8-1.6,1.4-3c0.3-0.8-0.1-1.7-0.9-2
	c-0.2-0.1-0.3-0.1-0.5-0.1h-5.2"/>
<path class="st3" d="M-96.6,376.9l-1.8-11.6c-0.1-0.4,0.2-0.8,0.6-0.8c0.1,0,0.2,0,0.3,0l10.8,3c1.7,1.9,4.6,2,6.5,0.3
	c0.1-0.1,0.2-0.2,0.3-0.3l10.8-3c0.4-0.1,0.8,0.1,0.9,0.5c0,0.1,0,0.2,0,0.3l-1.8,11.6"/>
<path class="st3" d="M-86.7,385.8c1.7,1.9,4.6,2,6.5,0.3c0.1-0.1,0.2-0.2,0.3-0.3l7.9-0.3c0.4,0,0.7-0.3,0.8-0.6l0.5-1.7"/>
<path class="st3" d="M-86.7,385.8l-8-0.3c-0.4,0-0.7-0.3-0.8-0.6l-0.5-1.7"/>
<line class="st3" x1="-79.8" y1="367.5" x2="-79.8" y2="385.8"/>
<line class="st3" x1="-86.7" y1="367.5" x2="-86.7" y2="385.8"/>
</svg>
