<?xml version="1.0" encoding="UTF-8"?>
<svg width="137px" height="134px" viewBox="0 0 137 134" version="1.1" xmlns="http://www.w3.org/2000/svg" xmlns:xlink="http://www.w3.org/1999/xlink">
    <!-- Generator: Sketch 51.3 (57544) - http://www.bohemiancoding.com/sketch -->
    <title>general_chemistry</title>
    <desc>Created with Sketch.</desc>
    <defs>
        <path d="M3.49809451,12.8085294 L3.49809451,3.49323529 L1.1660315,3.49323529 C0.522050087,3.49323529 -2.14158107e-15,2.97118521 -2.22044605e-15,2.32720379 L0,1.1660315 C-7.88649782e-17,0.522050087 0.522050087,1.18297467e-16 1.1660315,0 L33.8149136,0 C34.458895,-1.18297467e-16 34.9809451,0.522050087 34.9809451,1.1660315 L34.9809451,2.32720379 C34.9809451,2.97118521 34.458895,3.49323529 33.8149136,3.49323529 L31.4828506,3.49323529 L31.4828506,96.6267396 C31.4828506,104.354517 25.2182496,110.619118 17.4904726,110.619118 C9.76269555,110.619118 3.49809451,104.354517 3.49809451,96.6267396 L3.49809451,89.6597059 L8.16222053,89.6597059 L8.16222053,87.3308824 L3.49809451,87.3308824 L3.49809451,80.3444118 L8.16222053,80.3444118 L8.16222053,78.0155882 L3.49809451,78.0155882 L3.49809451,71.0291176 L8.16222053,71.0291176 L8.16222053,68.7002941 L3.49809451,68.7002941 L3.49809451,61.7138235 L8.16222053,61.7138235 L8.16222053,59.385 L3.49809451,59.385 L3.49809451,52.3985294 L8.16222053,52.3985294 L8.16222053,50.0697059 L3.49809451,50.0697059 L3.49809451,43.0832353 L8.16222053,43.0832353 L8.16222053,40.7544118 L3.49809451,40.7544118 L3.49809451,33.7679412 L8.16222053,33.7679412 L8.16222053,31.4391176 L3.49809451,31.4391176 L3.49809451,24.4526471 L8.16222053,24.4526471 L8.16222053,22.1238235 L3.49809451,22.1238235 L3.49809451,15.1373529 L8.16222053,15.1373529 L8.16222053,12.8085294 L3.49809451,12.8085294 Z" id="path-1"></path>
        <path d="M2.17886179,14.1470588 L9.80487805,14.1470588 L9.80487805,11.9705882 L2.17886179,11.9705882 L2.17886179,2.17647059 L0,2.17647059 L0,0 L91.5121951,0 L91.5121951,2.17647059 L88.9462987,2.17647059 L82.796748,16.5411765 L82.796748,91.4117647 C82.796748,98.05 77.4585366,103.382353 70.8130081,103.382353 L14.1626016,103.382353 C7.51707317,103.382353 2.17886179,98.05 2.17886179,91.4117647 L2.17886179,83.7941176 L9.80487805,83.7941176 L9.80487805,81.6176471 L2.17886179,81.6176471 L2.17886179,75.0882353 L9.80487805,75.0882353 L9.80487805,72.9117647 L2.17886179,72.9117647 L2.17886179,66.3823529 L9.80487805,66.3823529 L9.80487805,64.2058824 L2.17886179,64.2058824 L2.17886179,57.6764706 L9.80487805,57.6764706 L9.80487805,55.5 L2.17886179,55.5 L2.17886179,48.9705882 L9.80487805,48.9705882 L9.80487805,46.7941176 L2.17886179,46.7941176 L2.17886179,31.5588235 L9.80487805,31.5588235 L9.80487805,29.3823529 L2.17886179,29.3823529 L2.17886179,22.8529412 L9.80487805,22.8529412 L9.80487805,20.6764706 L2.17886179,20.6764706 L2.17886179,14.1470588 Z" id="path-3"></path>
    </defs>
    <g id="general_chemistry" stroke="none" stroke-width="1" fill="none" fill-rule="evenodd">
        <g id="Group-3" transform="translate(2.000000, 12.000000)">
            <g id="Rectangle-54" transform="translate(98.048780, 0.000000)">
                <g id="Group">
                    <mask id="mask-2" fill="white">
                        <use xlink:href="#path-1"></use>
                    </mask>
                    <use id="Mask" fill="#FFFFFF" opacity="0.5" xlink:href="#path-1"></use>
                    <path d="M-3.49809451,40.7544118 C13.4093623,36.6789706 22.1545986,40.7544118 39.6450711,40.7544118 C39.6450711,40.7544118 39.6450711,65.2070588 39.6450711,114.112353 L-3.49809451,114.112353 C-3.49809451,65.2070588 -3.49809451,40.7544118 -3.49809451,40.7544118 Z M19.8225356,95.4817647 C23.0874238,95.4817647 25.6526931,92.9200588 25.6526931,89.6597059 C25.6526931,86.3993529 23.0874238,83.8376471 19.8225356,83.8376471 C16.5576474,83.8376471 13.992378,86.3993529 13.992378,89.6597059 C13.992378,92.9200588 16.5576474,95.4817647 19.8225356,95.4817647 Z M21.5715828,89.6597059 C20.5921164,89.6597059 19.8225356,88.8911941 19.8225356,87.9130882 C19.8225356,86.9349824 20.5921164,86.1664706 21.5715828,86.1664706 C22.5510493,86.1664706 23.3206301,86.9349824 23.3206301,87.9130882 C23.3206301,88.8911941 22.5510493,89.6597059 21.5715828,89.6597059 Z M22.4137167,67.5358824 C24.8805211,67.5358824 26.8187246,65.6003712 26.8187246,63.1369935 C26.8187246,60.6736157 24.8805211,58.7381046 22.4137167,58.7381046 C19.9469123,58.7381046 18.0087088,60.6736157 18.0087088,63.1369935 C18.0087088,65.6003712 19.9469123,67.5358824 22.4137167,67.5358824 Z M23.3206301,63.3957516 C22.6676524,63.3957516 22.1545986,62.8834105 22.1545986,62.2313399 C22.1545986,61.5792693 22.6676524,61.0669281 23.3206301,61.0669281 C23.9736077,61.0669281 24.4866616,61.5792693 24.4866616,62.2313399 C24.4866616,62.8834105 23.9736077,63.3957516 23.3206301,63.3957516 Z" id="Combined-Shape" fill="#FFFFFF" opacity="0.899999976" mask="url(#mask-2)"></path>
                </g>
            </g>
            <g id="Group-2" transform="translate(0.000000, 7.617647)">
                <mask id="mask-4" fill="white">
                    <use xlink:href="#path-3"></use>
                </mask>
                <use id="Combined-Shape" fill="#FFFFFF" fill-rule="nonzero" opacity="0.5" xlink:href="#path-3"></use>
                <path d="M2.17886179,29.3823529 L9.80487805,29.3823529 L9.80487805,31.5588235 L2.17886179,31.5588235 L2.17886179,29.3823529 Z M2.17886179,20.6764706 L9.80487805,20.6764706 L9.80487805,22.8529412 L2.17886179,22.8529412 L2.17886179,20.6764706 Z M2.17886179,46.7941176 L9.80487805,46.7941176 L9.80487805,48.9705882 L2.17886179,48.9705882 L2.17886179,46.7941176 Z M2.17886179,55.5 L9.80487805,55.5 L9.80487805,57.6764706 L2.17886179,57.6764706 L2.17886179,55.5 Z M2.17886179,64.2058824 L9.80487805,64.2058824 L9.80487805,66.3823529 L2.17886179,66.3823529 L2.17886179,64.2058824 Z M2.17886179,72.9117647 L9.80487805,72.9117647 L9.80487805,75.0882353 L2.17886179,75.0882353 L2.17886179,72.9117647 Z M2.17886179,81.6176471 L9.80487805,81.6176471 L9.80487805,83.7941176 L2.17886179,83.7941176 L2.17886179,81.6176471 Z M2.17886179,11.9705882 L9.80487805,11.9705882 L9.80487805,14.1470588 L2.17886179,14.1470588 L2.17886179,11.9705882 Z" id="Combined-Shape" fill-opacity="0.01" fill="#FFFFFF" fill-rule="nonzero" mask="url(#mask-4)"></path>
                <g id="Group" mask="url(#mask-4)">
                    <g transform="translate(26.146341, 11.970588)"></g>
                </g>
                <path d="M49.5691057,23.9411765 C46.8727642,23.9411765 44.6666667,21.7375 44.6666667,19.0441176 C44.6666667,16.3507353 46.8727642,14.1470588 49.5691057,14.1470588 C52.2654472,14.1470588 54.4715447,16.3507353 54.4715447,19.0441176 C54.4715447,21.7375 52.2654472,23.9411765 49.5691057,23.9411765 Z M50.6585366,19.5882353 C51.5573171,19.5882353 52.2926829,18.8536765 52.2926829,17.9558824 C52.2926829,17.0580882 51.5573171,16.3235294 50.6585366,16.3235294 C49.7597561,16.3235294 49.0243902,17.0580882 49.0243902,17.9558824 C49.0243902,18.8536765 49.7597561,19.5882353 50.6585366,19.5882353 Z" id="Combined-Shape" fill="#FFFFFF" fill-rule="nonzero" opacity="0.5" mask="url(#mask-4)"></path>
                <path d="M3.26829268,30.4705882 L10.8943089,30.4705882" id="Shape" mask="url(#mask-4)"></path>
                <path d="M3.26829268,21.7647059 L10.8943089,21.7647059" id="Shape" mask="url(#mask-4)"></path>
                <path d="M3.26829268,47.8823529 L10.8943089,47.8823529" id="Shape" mask="url(#mask-4)"></path>
                <path d="M3.26829268,56.5882353 L10.8943089,56.5882353" id="Shape" mask="url(#mask-4)"></path>
                <path d="M3.26829268,65.2941176 L10.8943089,65.2941176" id="Shape" mask="url(#mask-4)"></path>
                <path d="M3.26829268,74 L10.8943089,74" id="Shape" mask="url(#mask-4)"></path>
                <path d="M3.26829268,82.7058824 L10.8943089,82.7058824" id="Shape" mask="url(#mask-4)"></path>
                <path d="M3.26829268,13.0588235 L10.8943089,13.0588235" id="Shape" mask="url(#mask-4)"></path>
                <path d="M-4.35772358,41.3529412 C12.5497332,37.2775 68.5745681,41.3529412 86.0650407,41.3529412 C86.3045522,41.3529412 86.3045522,62.0564161 86.0650407,103.463366 L-4.35772358,103.463366 C-2.17886179,62.7819063 -2.17886179,42.0784314 -4.35772358,41.3529412 Z M55.504541,90.1810934 C60.2690407,90.1810934 64.0125762,86.4427581 64.0125762,81.6848768 C64.0125762,76.9269955 60.2690407,73.1886601 55.504541,73.1886601 C50.7400413,73.1886601 46.9965058,76.9269955 46.9965058,81.6848768 C46.9965058,86.4427581 50.7400413,90.1810934 55.504541,90.1810934 Z M58.0569516,81.6848768 C56.6276017,81.6848768 55.504541,80.5633762 55.504541,79.1360118 C55.504541,77.7086474 56.6276017,76.5871468 58.0569516,76.5871468 C59.4863015,76.5871468 60.6093621,77.7086474 60.6093621,79.1360118 C60.6093621,80.5633762 59.4863015,81.6848768 58.0569516,81.6848768 Z M32.4483966,56.8868954 C34.915201,56.8868954 36.8534045,54.9513843 36.8534045,52.4880065 C36.8534045,50.0246288 34.915201,48.0891176 32.4483966,48.0891176 C29.9815921,48.0891176 28.0433887,50.0246288 28.0433887,52.4880065 C28.0433887,54.9513843 29.9815921,56.8868954 32.4483966,56.8868954 Z M33.35531,52.7467647 C32.7023323,52.7467647 32.1892785,52.2344235 32.1892785,51.5823529 C32.1892785,50.9302824 32.7023323,50.4179412 33.35531,50.4179412 C34.0082876,50.4179412 34.5213415,50.9302824 34.5213415,51.5823529 C34.5213415,52.2344235 34.0082876,52.7467647 33.35531,52.7467647 Z" id="Combined-Shape" fill="#FFFFFF" opacity="0.899999976" mask="url(#mask-4)"></path>
                <path d="M50.6585366,19.5882353 C49.7597561,19.5882353 49.0243902,18.8536765 49.0243902,17.9558824 C49.0243902,17.0580882 49.7597561,16.3235294 50.6585366,16.3235294 C51.5573171,16.3235294 52.2926829,17.0580882 52.2926829,17.9558824 C52.2926829,18.8536765 51.5573171,19.5882353 50.6585366,19.5882353 Z" id="Shape" fill="#FFFFFF" mask="url(#mask-4)"></path>
            </g>
        </g>
    </g>
</svg>