<?xml version="1.0" encoding="iso-8859-1"?>
<!-- Generator: Adobe Illustrator 22.1.0, SVG Export Plug-In . SVG Version: 6.00 Build 0)  -->
<svg version="1.1" id="Layer_1" xmlns="http://www.w3.org/2000/svg" xmlns:xlink="http://www.w3.org/1999/xlink" x="0px" y="0px"
	 viewBox="0 0 513.94 432.94" style="enable-background:new 0 0 513.94 432.94;" xml:space="preserve">
<title>Products-core-v2-K-12 Science-hero</title>
<path style="opacity:0.5;fill:#A9D7F3;enable-background:new    ;" d="M447.14,251.39c0.07-0.17,0.34-0.39,0.19-0.51
	c-9.74-8-8.53-13.44,0.73-16.81c3.53-0.69,8.1-1,13.3-1.56c49.32-4.9,65.71-88.86,41.6-79.59c-33.84,13-34.83-37.83-3.71-51.64
	c30.3-25.93-6-64-64.95-51.2c-43.19,9.4-44.53,13.66-55,3.19c-58.03-58.09-159.98,24.05-191.33,15.7
	c-64.82-17.26-71.14-8.24-65.83,5.92c-9.13,0.1-18.06,0.26-26.72,0.47c-146.34,3.69-44.14,47.33-27,69.8
	c11.65,15.32,1.21,15.32-15.79,17c-49.38,4.92-65.77,88.88-41.66,79.61c33.84-13,34.83,37.83,3.71,51.64
	c-30.3,25.93,6,64,64.95,51.2c43.19-9.4,44.52-13.66,55-3.19c58,58.08,160-24.05,191.36-15.71c64.82,17.26,71.14,8.24,65.83-5.92
	c9.13-0.1,18.06-0.26,26.72-0.47C560.9,315.73,468.02,274.32,447.14,251.39z"/>
<path style="fill:#FFFFFF;" d="M180.35,374.25c0-4.27-13.14-82.62-14-90.93c26.4-3.27,30.48-37.74-1.85-41.47
	c0.75-13.17,4.41-17.05,11.47-21.72c27.09-17.94,54.8-29.66,103.11-30.12l0,0h2.95l0,0c48.31,0.46,74.61,12.18,101.7,30.12
	c4.45,2.95,6.49,12,7,24.33c-12.44-9.55-39.15,11.88-26.28,34.31l33.27,19.77l-10.75,59.85"/>
<path style="fill:#FFFFFF;" d="M116.97,213.33c0,0-2.39,45.24,71.38,25.27c0,0,21.22,9.4,12.46,38.64
	c0.61,0.47-117.58,34.67-125.67-62.21"/>
<path style="fill:#40565B;" d="M156.29,284.06c-6.918,0.034-13.828-0.498-20.66-1.59c-36.77-6.09-57.88-29.39-61-67.38
	c-0.028-0.331,0.219-0.622,0.55-0.65c0.331-0.028,0.622,0.219,0.65,0.55l0,0c2.26,27,13.38,46.3,33.07,57.27
	c36.45,20.32,88.06,5.64,91.5,4.55c3.44-11.67,2.42-21.86-2.94-29.51c-2.341-3.372-5.454-6.135-9.08-8.06
	c-28.56,7.7-49.18,6.64-61.28-3.14c-11.24-9.08-10.66-22.67-10.65-22.81c0.017-0.331,0.299-0.587,0.63-0.57
	c0.331,0.017,0.587,0.299,0.57,0.63l0,0c0,0.13-0.55,13.13,10.22,21.82c11.82,9.54,32.14,10.49,60.4,2.84
	c0.129-0.047,0.271-0.047,0.4,0c0.22,0.1,21.58,9.94,12.81,39.31c0.005,0.043,0.005,0.087,0,0.13
	C201.04,278.33,180.3,284.06,156.29,284.06z"/>
<path style="fill:#D0E4F0;" d="M200.85,262.15c0.58,0.45-104.75,30.94-123.31-47.21l-2.36,0.1c8.09,96.88,126.28,62.68,125.67,62.21
	c2.52-8.4,2.55-15.16,1.34-20.53C201.837,258.552,201.39,260.364,200.85,262.15z"/>
<path style="fill:#A1C2D8;" d="M154.66,283.32c-0.663,0-1.2-0.537-1.2-1.2l0,0v-20c0-0.665,0.54-1.205,1.205-1.205
	s1.205,0.539,1.205,1.205v20c0,0.663-0.537,1.2-1.2,1.2C154.667,283.32,154.663,283.32,154.66,283.32z"/>
<path style="fill:#A1C2D8;" d="M121.14,277.65c-0.663,0.002-1.202-0.533-1.204-1.196c-0.001-0.178,0.038-0.353,0.114-0.514
	l7.92-16.94c0.254-0.612,0.956-0.902,1.569-0.648c0.612,0.254,0.902,0.956,0.648,1.569c-0.011,0.027-0.023,0.053-0.036,0.079
	l-7.89,16.93C122.066,277.374,121.624,277.658,121.14,277.65z"/>
<path style="fill:#A1C2D8;" d="M91.06,256.89c-0.663,0.007-1.205-0.525-1.212-1.188c-0.004-0.4,0.192-0.776,0.522-1.002l16-11.23
	c0.552-0.381,1.309-0.242,1.69,0.31c0.381,0.552,0.242,1.309-0.31,1.69l-16,11.23C91.545,256.832,91.304,256.898,91.06,256.89z"/>
<path style="fill:#40565B;" d="M156.29,284.06c-6.918,0.034-13.828-0.498-20.66-1.59c-36.77-6.09-57.88-29.39-61-67.38
	c-0.028-0.331,0.219-0.622,0.55-0.65c0.331-0.028,0.622,0.219,0.65,0.55l0,0c2.26,27,13.38,46.3,33.07,57.27
	c36.45,20.32,88.06,5.64,91.5,4.55c3.44-11.67,2.42-21.86-2.94-29.51c-2.341-3.372-5.454-6.135-9.08-8.06
	c-28.56,7.7-49.18,6.64-61.28-3.14c-11.24-9.08-10.66-22.67-10.65-22.81c0.017-0.331,0.299-0.587,0.63-0.57
	c0.331,0.017,0.587,0.299,0.57,0.63l0,0c0,0.13-0.55,13.13,10.22,21.82c11.82,9.54,32.14,10.49,60.4,2.84
	c0.129-0.047,0.271-0.047,0.4,0c0.22,0.1,21.58,9.94,12.81,39.31c0.005,0.043,0.005,0.087,0,0.13
	C201.04,278.33,180.3,284.06,156.29,284.06z"/>
<polyline style="fill:#D0E4F0;" points="394.48,166.56 358.32,166.56 358.44,164.77 394.59,164.77 "/>
<path style="fill:#40565B;" d="M394.48,167.16h-37.31c-0.302,0.003-0.56-0.22-0.6-0.52l-0.25-1.79
	c-0.05-0.328,0.176-0.634,0.503-0.683c0.032-0.005,0.064-0.007,0.097-0.007h37.68c0.331,0.001,0.599,0.27,0.599,0.601
	c-0.001,0.33-0.268,0.598-0.599,0.599h-37l0.08,0.58h36.8c0.331,0.001,0.599,0.27,0.599,0.601c-0.001,0.33-0.268,0.598-0.599,0.599
	L394.48,167.16z"/>
<polyline style="fill:#D0E4F0;" points="205.7,166.56 169.54,166.56 169.65,164.77 205.81,164.77 "/>
<path style="fill:#40565B;" d="M205.7,167.16h-37.32c-0.302,0.003-0.56-0.22-0.6-0.52l-0.25-1.79
	c-0.044-0.328,0.186-0.63,0.515-0.675c0.028-0.004,0.057-0.006,0.085-0.005h37.68c0.331,0.001,0.599,0.27,0.599,0.601
	c-0.001,0.33-0.268,0.598-0.599,0.599h-37l0.08,0.58h36.79c0.331-0.001,0.601,0.267,0.601,0.599
	c0.001,0.331-0.267,0.601-0.599,0.601c-0.001,0-0.002,0-0.003,0L205.7,167.16z"/>
<circle style="fill:#F36F42;" cx="165.13" cy="165.67" r="7.58"/>
<path style="fill:#C84A27;" d="M165.13,173.85c-4.518,0-8.18-3.662-8.18-8.18s3.662-8.18,8.18-8.18s8.18,3.662,8.18,8.18v0
	C173.304,170.185,169.645,173.844,165.13,173.85z M165.13,158.68c-3.866,0-7,3.134-7,7s3.134,7,7,7s7-3.134,7-7
	c-0.006-3.862-3.138-6.99-7-6.99V158.68z"/>
<circle style="fill:#F36F42;" cx="397.18" cy="165.67" r="7.58"/>
<path style="fill:#C84A27;" d="M397.18,173.85c-4.518,0-8.18-3.662-8.18-8.18c0-4.518,3.662-8.18,8.18-8.18
	c4.518,0,8.18,3.662,8.18,8.18v0C405.354,170.185,401.695,173.844,397.18,173.85z M397.18,158.68c-3.866,0-7,3.134-7,7s3.134,7,7,7
	s7-3.134,7-7c-0.006-3.862-3.138-6.99-7-6.99V158.68z"/>
<path style="fill:#FFFFFF;" d="M180.35,374.25c0-4.27-13.14-82.62-14-90.93c26.4-3.27,30.48-37.74-1.85-41.47
	c0.75-13.17,4.41-17.05,11.47-21.72c27.09-17.94,54.8-29.66,103.11-30.12l0,0h2.95l0,0c48.31,0.46,74.61,12.18,101.7,30.12
	c4.45,2.95,6.49,12,7,24.33c-12.44-9.55-39.15,11.88-26.28,34.31"/>
<polygon style="fill:#29B99A;" points="277.73,374.25 276.65,329.62 265.85,250.29 292.94,250.29 282.13,329.62 279.85,374.25 "/>
<polygon style="fill:#D0E4F0;" points="217.21,374.25 180.35,374.25 166.39,283.32 182.07,275.68 "/>
<polygon style="fill:#D0E4F0;" points="335.98,374.25 372.83,374.25 386.8,283.32 371.11,275.68 "/>
<path style="fill:#40565B;" d="M372.84,374.85h-36.87c-0.331,0-0.6-0.269-0.6-0.6s0.269-0.6,0.6-0.6l0,0h36.34l13.88-90.42
	c0.05-0.329,0.356-0.555,0.685-0.505s0.555,0.356,0.505,0.685l0,0l-14,90.93C373.34,374.614,373.116,374.825,372.84,374.85z"/>
<path style="fill:#40565B;" d="M180.35,374.85c-0.331,0-0.6-0.269-0.6-0.6l0,0c0-2.24-3.93-26.75-7.39-48.37
	c-3.18-19.86-6.19-38.63-6.57-42.5c-0.035-0.328,0.202-0.623,0.53-0.66c13.56-1.68,20.62-11.62,20.58-20.57
	c-0.05-12.68-12.11-18.51-22.43-19.68c-0.316-0.037-0.548-0.313-0.53-0.63c0.74-12.9,4.06-17.11,11.74-22.19
	c26.85-17.79,54.7-29.73,103.28-30.22h0.16h2.95h0.17c47.55,0.48,74.23,11.92,101.86,30.22c4.32,2.86,6.7,11,7.28,24.81
	c0.03,0.33-0.212,0.622-0.542,0.653c-0.167,0.015-0.333-0.04-0.458-0.153c-5.07-3.89-13.31-2.5-20,3.39
	c-7,6.08-12.53,17.62-5.34,30.14c0.099,0.316-0.078,0.653-0.394,0.751c-0.214,0.067-0.448,0.008-0.606-0.151
	c-7.55-13.15-1.7-25.27,5.6-31.65c6.75-5.9,15-7.5,20.55-4.14c-0.64-12.52-2.89-20.14-6.69-22.65c-27.48-18.2-54-29.57-101.37-30
	h-0.15h-2.71h-0.15c-48.38,0.46-76.08,12.33-102.78,30c-6.37,4.22-10.32,7.74-11.17,20.69c10.67,1.4,22.87,7.63,22.93,20.83
	c0,9.35-7.18,19.72-21,21.69c0.57,4.88,3.45,22.86,6.5,41.85c3.64,22.73,7.4,46.22,7.4,48.56c-0.01,0.331-0.286,0.592-0.618,0.582
	C180.372,374.852,180.361,374.851,180.35,374.85z M282.07,190L282.07,190z"/>
<path style="fill:#D0E4F0;" d="M362.83,200.53c0,29.63-37.15,50.34-83,50.34s-83-20.7-83-50.34c0-39.86,11.5-108.38,83-108.38
	C356.97,92.15,362.83,160.67,362.83,200.53z"/>
<path style="fill:#FFFFFF;" d="M316.26,98.78c-9.9-4.21-21.89-6.63-36.4-6.63c-71.48,0-83,68.53-83,108.38
	c0,11,5.14,20.78,13.93,28.72c14,6.33,31.59,9.93,50.67,9.93c45.83,0,83-20.7,83-50.34C344.45,161.92,341.78,121.91,316.26,98.78z"
	/>
<path style="fill:#40565B;" d="M276.97,231.23c-17,0-31.24-7.66-34.66-20.2c-0.088-0.32,0.1-0.652,0.42-0.74s0.652,0.1,0.74,0.42
	l0,0c4.29,15.71,26.42,23.4,49.35,17.13c0.32-0.088,0.652,0.1,0.74,0.42c0.088,0.32-0.1,0.652-0.42,0.74
	C287.873,230.459,282.435,231.209,276.97,231.23z"/>
<path style="fill:#40565B;" d="M249.97,159.75L249.97,159.75c1.254,0,2.27,1.016,2.27,2.27v14.17c0,1.254-1.016,2.27-2.27,2.27h0
	c-1.254,0-2.27-1.016-2.27-2.27v-14.17C247.7,160.766,248.716,159.75,249.97,159.75z"/>
<path style="fill:#40565B;" d="M309.74,159.75L309.74,159.75c1.254,0,2.27,1.016,2.27,2.27v14.17c0,1.254-1.016,2.27-2.27,2.27h0
	c-1.254,0-2.27-1.016-2.27-2.27v-14.17C307.47,160.766,308.486,159.75,309.74,159.75z"/>
<path style="opacity:0.07;fill:#3F555A;enable-background:new    ;" d="M300.68,148.24l20.14,39.85
	c-4.307,1.486-8.861,2.125-13.41,1.88l-19.08-41.74"/>
<polyline style="opacity:0.07;fill:#3F555A;enable-background:new    ;" points="317.24,148.24 333.87,181.1 328.35,185.45 
	311.15,148.24 "/>
<path style="opacity:0.07;fill:#3F555A;enable-background:new    ;" d="M244.6,148.24l20.82,39.68
	c-7.93,2.4-16.331,2.792-24.45,1.14l-18.79-40.12"/>
<path style="fill:#E7F1F8;" d="M347.61,150.06c-0.424-3.354-3.28-5.866-6.66-5.86h-122.2c-3.38-0.006-6.236,2.506-6.66,5.86
	c-1.38,11.13-0.82,38.89,27.23,43.11c37,5.57,40.53-18.6,40.53-18.6s3.5,24.17,40.53,18.6
	C348.43,188.95,348.97,161.19,347.61,150.06z M316.55,189.06c-33.53,4.58-36.7-15.3-36.7-15.3s-3.17,19.89-36.7,15.3
	c-25.4-3.47-25.9-27.07-24.66-36.23c0.533-2.87,3.083-4.918,6-4.82h110.69c2.917-0.098,5.467,1.95,6,4.82
	c1.28,9.14,0.79,32.74-24.63,36.21L316.55,189.06z"/>
<path style="fill:#A1C2D8;" d="M309.89,194.61c-8.88,0-16.12-2-21.58-6.1c-3.939-2.877-6.893-6.901-8.46-11.52
	c-1.571,4.603-4.522,8.612-8.45,11.48c-7.5,5.57-18.33,7.34-32.17,5.25c-31-4.66-28.54-37.28-27.74-43.78
	c0.464-3.655,3.575-6.394,7.26-6.39h122.22c3.685-0.004,6.796,2.735,7.26,6.39c0.8,6.49,3.25,39.11-27.74,43.78
	C316.984,194.28,313.441,194.577,309.89,194.61z M218.75,144.8c-3.076,0.001-5.672,2.288-6.06,5.34
	c-0.78,6.3-3.16,37.94,26.72,42.44c13.52,2,24,0.34,31.27-5c2.133-1.578,3.977-3.513,5.45-5.72c-4.63,5.14-14.08,10.41-33.06,7.81
	c-11.21-1.53-18.88-7-22.79-16.34c-3.53-8.4-2.84-17.17-2.38-20.56c0.574-3.183,3.398-5.461,6.63-5.35h110.65
	c3.232-0.111,6.056,2.167,6.63,5.35c0.46,3.38,1.15,12.16-2.38,20.56c-3.92,9.31-11.59,14.81-22.79,16.34l-0.08-0.6l0.08,0.6
	c-18.95,2.59-28.39-2.66-33-7.79c1.473,2.204,3.317,4.136,5.45,5.71c7.23,5.36,17.74,7,31.25,5c29.88-4.5,27.5-36.14,26.72-42.44
	l0,0c-0.388-3.052-2.984-5.339-6.06-5.34L218.75,144.8z M279.85,173.14c0.292,0.001,0.541,0.212,0.59,0.5
	c0.13,0.79,3.53,19.25,36,14.8c4.75-0.65,28.25-5.42,24.14-35.55c-0.494-2.581-2.804-4.411-5.43-4.3H224.52
	c-2.626-0.111-4.936,1.719-5.43,4.3c-4.11,30.13,19.39,34.9,24.14,35.55c32.49,4.45,35.9-14,36-14.8
	C279.28,173.34,279.547,173.126,279.85,173.14z"/>
<polygon style="fill:#F36F42;" points="279.85,173.64 287.07,183.9 294.29,194.16 279.85,194.16 265.42,194.16 272.64,183.9 "/>
<path style="fill:#C84A27;" d="M294.29,194.76h-28.87c-0.331,0.001-0.601-0.266-0.603-0.597c-0.001-0.126,0.039-0.25,0.113-0.353
	l14.43-20.52c0.202-0.276,0.59-0.336,0.867-0.133c0.051,0.037,0.096,0.082,0.133,0.133l14.43,20.52
	c0.193,0.269,0.132,0.644-0.137,0.837c-0.103,0.074-0.226,0.113-0.353,0.113H294.29z M266.58,193.56h26.55l-13.27-18.87
	L266.58,193.56z"/>
<path style="fill:#A1C2D8;" d="M201.22,160.47c-0.331-0.001-0.599-0.27-0.599-0.601c0.001-0.33,0.268-0.598,0.599-0.599h10.46
	c0.323,0.02,0.58,0.277,0.6,0.6c0,0.331-0.269,0.6-0.6,0.6h0L201.22,160.47L201.22,160.47z"/>
<path style="fill:#A1C2D8;" d="M201.22,164.56c-0.331-0.001-0.599-0.27-0.599-0.601c0.001-0.33,0.268-0.598,0.599-0.599h10.46l0,0
	c0.331,0.001,0.599,0.27,0.599,0.601c-0.001,0.33-0.268,0.598-0.599,0.599H201.22z"/>
<path style="fill:#D0E4F1;" d="M283.97,297.07l67.42-25.71c0.8-0.304,1.695,0.098,1.999,0.898c0,0,0,0.001,0.001,0.001l37.14,100
	c0.3,0.8,8,23.61,7.24,23.91l-87.43,34.22c-1.414,0.555-3.01-0.14-3.565-1.554c-0.009-0.022-0.017-0.044-0.025-0.066l-28.53-78.41"
	/>
<path style="fill:#A1C2D8;" d="M348.03,160.47c-0.331-0.001-0.599-0.27-0.599-0.601c0.001-0.33,0.268-0.598,0.599-0.599h11.51l0,0
	c0.331,0.001,0.599,0.27,0.599,0.601c-0.001,0.33-0.268,0.598-0.599,0.599H348.03z"/>
<polygon style="fill:#209176;" points="281.22,343.46 280.84,357.56 274.38,340.25 277.68,332.39 "/>
<polygon style="fill:#D0E4F0;" points="276.37,337.47 241.52,294.27 233,295.36 "/>
<polygon style="fill:#D0E4F0;" points="251.37,289.26 260.92,288.03 217.21,234.9 242.5,278.48 "/>
<polygon style="fill:#D0E4F0;" points="281.94,339.07 318.09,294.27 326.61,295.36 "/>
<polygon style="fill:#D0E4F0;" points="308.24,289.26 298.69,288.03 342.4,234.9 317.11,278.48 "/>
<path style="fill:#D0E4F0;" d="M360.28,213.57c-9.12,22.49-41.67,37.3-80.43,37.3c-39.19,0-72-15.15-80.71-38.06
	c-3.39,3.74-5.24,7.78-5.24,12c0,19.17,38.28,34.71,85.49,34.71s85.49-15.54,85.49-34.71C364.88,220.87,363.25,217.09,360.28,213.57
	z"/>
<path style="fill:#209176;" d="M291.73,259.15l1.21-8.86h-0.07c-4.24,0.38-8.58,0.58-13,0.58s-8.76-0.2-13-0.58h-1l1.21,8.86
	c4,0.233,8.113,0.353,12.34,0.36C283.647,259.517,287.75,259.397,291.73,259.15z"/>
<path style="fill:#D0E4F1;" d="M277.08,347.37l-16.06-38.72c-0.304-0.8,0.098-1.695,0.898-1.999c0,0,0.001,0,0.001-0.001l8.05-3.07
	l7.69,14.36"/>
<path style="fill:#A1C2D8;" d="M276.85,338.38c-0.182,0.002-0.355-0.079-0.47-0.22l-37.81-46.94
	c-0.222-0.246-0.203-0.625,0.042-0.847c0.096-0.087,0.218-0.141,0.348-0.153l20.8-2.67l-43-52.29
	c-0.213-0.257-0.177-0.637,0.08-0.85c0.257-0.213,0.637-0.177,0.85,0.08l43.71,53.13c0.222,0.246,0.203,0.625-0.042,0.847
	c-0.096,0.087-0.218,0.141-0.348,0.153l-20.82,2.67l37.14,46.1c0.221,0.247,0.2,0.626-0.046,0.847
	c-0.116,0.104-0.268,0.159-0.424,0.153L276.85,338.38z"/>
<path style="fill:#A1C2D8;" d="M281.7,338.67c-0.331,0.013-0.61-0.245-0.623-0.576c-0.006-0.156,0.049-0.308,0.153-0.424
	l37.38-46.39l-20.82-2.67c-0.33-0.03-0.573-0.322-0.543-0.652c0.012-0.129,0.065-0.251,0.153-0.348l43.71-53.13
	c0.213-0.257,0.593-0.293,0.85-0.08c0.257,0.213,0.293,0.593,0.08,0.85l-43,52.29l20.8,2.67c0.33,0.03,0.573,0.322,0.543,0.652
	c-0.012,0.129-0.065,0.251-0.153,0.348l-38.06,47.26C282.051,338.603,281.879,338.677,281.7,338.67z"/>
<path style="fill:#A1C2D8;" d="M348.02,164.56c-0.331-0.001-0.599-0.27-0.599-0.601c0.001-0.33,0.268-0.598,0.599-0.599h11.79l0,0
	c0.331,0.001,0.599,0.27,0.599,0.601c-0.001,0.33-0.268,0.598-0.599,0.599H348.02z"/>
<path style="fill:#0F716F;" d="M279.85,374.85L279.85,374.85c-0.331-0.016-0.586-0.298-0.57-0.629c0,0,0-0.001,0-0.001l2.28-44.63
	l10.81-79.38c0.044-0.329,0.346-0.559,0.675-0.515c0.329,0.044,0.559,0.346,0.515,0.675l-10.8,79.33l-2.28,44.58
	c-0.016,0.331-0.298,0.586-0.629,0.57C279.851,374.85,279.85,374.85,279.85,374.85z"/>
<path style="fill:#0F716F;" d="M277.73,374.85c-0.328,0-0.595-0.263-0.6-0.59l-1.08-44.63l-10.8-79.26
	c-0.044-0.329,0.186-0.631,0.515-0.675c0.329-0.044,0.631,0.186,0.675,0.515l10.8,79.33l1.08,44.7
	c0.011,0.331-0.248,0.609-0.58,0.62c-0.003,0-0.007,0-0.01,0V374.85z"/>
<path style="fill:#164A67;" d="M316.03,432.94c-0.888-0.003-1.682-0.551-2-1.38l-48.81-128c-0.426-1.108,0.127-2.352,1.235-2.778
	c0.002-0.001,0.003-0.001,0.005-0.002l89.12-34c1.11-0.421,2.351,0.133,2.78,1.24l48.81,128c0.426,1.108-0.127,2.352-1.235,2.778
	c-0.002,0.001-0.003,0.001-0.005,0.002l-89.12,34C316.561,432.895,316.296,432.943,316.03,432.94z M356.33,267.86
	c-0.116-0.001-0.231,0.019-0.34,0.06l-89.12,34l0,0c-0.487,0.187-0.733,0.731-0.55,1.22l48.81,128
	c0.206,0.469,0.733,0.706,1.22,0.55l89.12-34c0.487-0.187,0.733-0.731,0.55-1.22l-48.8-128
	C357.068,268.11,356.72,267.872,356.33,267.86z M266.67,301.34L266.67,301.34z"/>
<path style="fill:#3AA1D6;" d="M266.649,301.361l89.122-33.979c0.8-0.305,1.695,0.096,2,0.896l48.803,128.002
	c0.305,0.8-0.096,1.695-0.896,2l-89.122,33.979c-0.8,0.305-1.695-0.096-2-0.896l-48.803-128.002
	C265.448,302.562,265.85,301.666,266.649,301.361z"/>
<path style="fill:#D0E4F0;" d="M335.8,331.65l-3.14-8.27l-10.84,4.09l3,7.92l-6.74,2.55l-6.46-17c-2.89-7.58-0.26-13.2,7.68-16.34
	c8.3-3.29,14.63,1.41,17.52,9l5.87,15.41L335.8,331.65z M329.64,315.47c-1.46-3.84-3.87-6-7.91-4.4c-3.8,1.5-4.49,4.34-3,8.17
	l0.88,2.3l10.83-4.11L329.64,315.47z"/>
<path style="fill:#3F555A;" d="M318.1,338.56c-0.25-0.001-0.473-0.156-0.56-0.39l-6.46-17c-3-7.92-0.24-13.84,8-17.11
	c3.228-1.443,6.909-1.486,10.17-0.12c3.51,1.55,6.4,4.91,8.13,9.46l5.87,15.41c0.12,0.309-0.033,0.657-0.342,0.777
	c-0.003,0.001-0.006,0.002-0.008,0.003l-6.91,2.6c-0.309,0.115-0.653-0.042-0.77-0.35l-2.93-7.71l-9.71,3.68l2.8,7.36
	c0.12,0.309-0.033,0.657-0.342,0.777c-0.003,0.001-0.006,0.002-0.008,0.003l-6.74,2.55C318.23,338.53,318.166,338.551,318.1,338.56z
	 M324.53,304.18c-1.715,0.014-3.412,0.353-5,1c-7.65,3-10.12,8.27-7.34,15.57l6.25,16.41l5.61-2.12l-2.8-7.36
	c-0.12-0.309,0.033-0.657,0.342-0.777c0.003-0.001,0.006-0.002,0.008-0.003l10.83-4.11c0.309-0.12,0.657,0.033,0.777,0.342
	c0.001,0.003,0.002,0.006,0.003,0.008l2.93,7.71l5.78-2.17l-5.65-14.85c-1.62-4.25-4.28-7.37-7.49-8.79
	C327.439,304.46,325.991,304.167,324.53,304.18z M319.53,322.13c-0.25-0.001-0.473-0.156-0.56-0.39l-0.88-2.3
	c-1.67-4.39-0.54-7.4,3.37-8.94c1.512-0.704,3.247-0.758,4.8-0.15c1.63,0.72,2.94,2.36,3.9,4.89l0.77,2
	c0.12,0.309-0.033,0.657-0.342,0.777c-0.003,0.001-0.006,0.002-0.008,0.003l-10.83,4.11c-0.06,0.009-0.12,0.009-0.18,0H319.53z
	 M324.19,311.13c-0.784,0.019-1.557,0.185-2.28,0.49c-3.26,1.29-4.12,3.64-2.69,7.39l0.66,1.74l9.7-3.68l-0.54-1.39l0,0
	c-0.84-2.22-1.94-3.64-3.26-4.22c-0.488-0.216-1.016-0.328-1.55-0.33H324.19z"/>
<path style="fill:#1785C8;" d="M384.18,337.47c-4.51,12.16-18.77,14.07-18.77,14.07c-14.82-2.65-39,3.87-38.51,13.06
	c0.18,3.14,2,4.24,4.46,4.21l0,0c-2,0.63-4.1,1.29-6.48,2c-7.3,2.11-12.33,8.25-14.09,15.22v0.19
	c-0.219,0.906-0.383,1.824-0.49,2.75v0.18c-0.047,0.42-0.08,0.843-0.1,1.27v0.14c0,0.47,0,0.95,0,1.42v0.05c0,0.44,0,0.87,0.07,1.31
	v0.23c0.086,0.915,0.233,1.824,0.44,2.72l0.06,0.23c0.093,0.387,0.2,0.773,0.32,1.16l0.06,0.19c0.14,0.44,0.297,0.877,0.47,1.31
	l0.06,0.14c0.153,0.38,0.32,0.753,0.5,1.12l0.13,0.27c0.418,0.83,0.896,1.629,1.43,2.39l0.19,0.26
	c0.227,0.313,0.467,0.623,0.72,0.93l0.18,0.22c0.307,0.367,0.64,0.723,1,1.07l0.18,0.18c0.287,0.287,0.587,0.567,0.9,0.84l0.29,0.26
	c0.37,0.31,0.75,0.62,1.15,0.91l0,0c0.41,0.3,0.85,0.59,1.3,0.87l0.36,0.22c0.367,0.22,0.743,0.433,1.13,0.64l0.33,0.18
	c0.487,0.247,0.99,0.483,1.51,0.71l0.33,0.13c0.433,0.18,0.873,0.35,1.32,0.51l0.47,0.17c0.55,0.18,1.1,0.36,1.68,0.52h0.07
	c0.6,0.16,1.23,0.31,1.86,0.44l0.54,0.11c0.513,0.1,1.04,0.19,1.58,0.27l0.48,0.07c0.667,0.093,1.363,0.17,2.09,0.23h0.48
	c0.587,0.047,1.187,0.08,1.8,0.1h0.65c0.76,0,1.52,0,2.32,0h0.05c0.81,0,1.64-0.06,2.49-0.12l0.72-0.05
	c0.667-0.053,1.363-0.12,2.09-0.2l0.61-0.06c0.893-0.107,1.803-0.233,2.73-0.38l0.63-0.11c0.76-0.127,1.533-0.267,2.32-0.42
	l0.82-0.16c1-0.2,2-0.42,3-0.67c8.83-2.11,15.15-5.27,19.65-8.81c0.56-0.44,1.097-0.89,1.61-1.35c0.968-0.864,1.88-1.79,2.73-2.77
	c1.492-1.716,2.766-3.61,3.79-5.64c0.34-0.67,0.62-1.33,0.89-2l1.9-1.19c5.421-2.851,10.544-6.238,15.29-10.11L384.18,337.47z
	 M344.43,363.81c3.06-1.78,5.29-3.35,5.29-3.35S348.85,361.67,344.43,363.81z"/>
<path style="fill:#3F555A;" d="M316.03,432.94c-0.888-0.003-1.682-0.551-2-1.38l-48.81-128c-0.426-1.108,0.127-2.352,1.235-2.778
	c0.002-0.001,0.003-0.001,0.005-0.002l89.12-34c1.11-0.421,2.351,0.133,2.78,1.24l48.81,128c0.426,1.108-0.127,2.352-1.235,2.778
	c-0.002,0.001-0.003,0.001-0.005,0.002l-89.12,34C316.561,432.895,316.296,432.943,316.03,432.94z M356.33,267.86
	c-0.116-0.001-0.231,0.019-0.34,0.06l-89.12,34l0,0c-0.487,0.187-0.733,0.731-0.55,1.22l48.81,128
	c0.206,0.469,0.733,0.706,1.22,0.55l89.12-34c0.487-0.187,0.733-0.731,0.55-1.22l-48.8-128
	C357.068,268.11,356.72,267.872,356.33,267.86z M266.67,301.34L266.67,301.34z"/>
<path style="fill:#FFFFFF;" d="M319.64,269.47L319.64,269.47c-0.539-1.426-2.133-2.144-3.558-1.604
	c-0.004,0.001-0.008,0.003-0.012,0.004l-18.72,7.14c-1.426,0.539-2.144,2.133-1.604,3.558c0.001,0.004,0.003,0.008,0.004,0.012l0,0
	c0.546,1.423-0.165,3.02-1.588,3.566c-0.004,0.001-0.008,0.003-0.012,0.004l-6.85,2.61c-1.426,0.539-2.144,2.133-1.604,3.558
	c0.001,0.004,0.003,0.008,0.004,0.012l3.5,9.19c0.539,1.426,2.133,2.144,3.558,1.604c0.004-0.001,0.008-0.003,0.012-0.004
	l42.75-16.3c1.426-0.539,2.144-2.133,1.604-3.558c-0.001-0.004-0.003-0.008-0.004-0.012l-3.5-9.19
	c-0.539-1.426-2.133-2.144-3.558-1.604c-0.004,0.001-0.008,0.003-0.012,0.004l-6.85,2.61
	C321.775,271.611,320.181,270.895,319.64,269.47z"/>
<path style="fill:#D0E4F1;" d="M291.24,293.08l-3.27-8.55l-0.67,0.25c-1.426,0.539-2.144,2.133-1.604,3.558
	c0.001,0.004,0.003,0.008,0.004,0.012l3.5,9.19c0.539,1.426,2.133,2.144,3.558,1.604c0.004-0.001,0.008-0.003,0.012-0.004
	l42.75-16.3c1.426-0.539,2.144-2.133,1.604-3.558c-0.001-0.004-0.003-0.008-0.004-0.012l-0.24-0.64l-42.08,16
	C293.389,295.177,291.801,294.485,291.24,293.08z"/>
<path style="fill:#D0E4F1;" d="M310.59,275.09c0.444,0.36,0.789,0.829,1,1.36c0.662,1.751-0.221,3.708-1.972,4.37
	c-0.009,0.003-0.018,0.007-0.028,0.01c-0.446,0.169-0.924,0.241-1.4,0.21c1.453,1.172,3.581,0.945,4.753-0.508
	c1.172-1.453,0.945-3.581-0.508-4.753c-0.53-0.427-1.176-0.685-1.855-0.739L310.59,275.09z"/>
<circle style="fill:#FFFFFF;" cx="309.164" cy="277.96" r="2.99"/>
<path style="fill:#3F555A;" d="M309.18,281.53c-1.983-0.005-3.586-1.617-3.58-3.6c0.005-1.983,1.617-3.586,3.6-3.58
	c1.481,0.004,2.808,0.918,3.34,2.3l0,0c0.707,1.858-0.226,3.938-2.085,4.645C310.048,281.45,309.616,281.529,309.18,281.53z
	 M309.18,275.53c-1.32,0.003-2.387,1.076-2.384,2.396c0.003,1.32,1.076,2.387,2.396,2.384c1.32-0.003,2.387-1.076,2.384-2.396
	c-0.001-0.288-0.054-0.574-0.156-0.844l0,0c-0.359-0.924-1.249-1.531-2.24-1.53V275.53z"/>
<path style="fill:#D0E4F1;" d="M293.08,283.11l8.58-3.27c1.534-0.585,2.538-2.068,2.51-3.71v-0.46l-8.5,3.24l-0.14,2.1
	L293.08,283.11z"/>
<path style="fill:#3F555A;" d="M291.8,299.92c-1.395-0.004-2.643-0.867-3.14-2.17l-3.5-9.19c-0.663-1.733,0.204-3.676,1.937-4.339
	c0.001,0,0.002-0.001,0.003-0.001l6.85-2.61c1.112-0.429,1.67-1.675,1.25-2.79c-0.663-1.733,0.204-3.676,1.937-4.339
	c0.001,0,0.002-0.001,0.003-0.001l18.72-7.14c1.737-0.657,3.678,0.215,4.34,1.95l0,0c0.424,1.115,1.672,1.675,2.787,1.251
	c0.001,0,0.002-0.001,0.003-0.001l6.85-2.61c1.734-0.661,3.676,0.208,4.337,1.942c0.001,0.003,0.002,0.005,0.003,0.008l3.5,9.19
	c0.663,1.733-0.204,3.676-1.937,4.339c-0.001,0-0.002,0.001-0.003,0.001l-42.77,16.29C292.596,299.842,292.2,299.917,291.8,299.92z
	 M317.06,268.32c-0.263-0.001-0.524,0.047-0.77,0.14l-18.72,7.14c-1.115,0.424-1.675,1.672-1.251,2.787
	c0,0.001,0.001,0.002,0.001,0.003c0.657,1.737-0.215,3.678-1.95,4.34l-6.85,2.61c-1.115,0.424-1.675,1.672-1.251,2.787
	c0,0.001,0.001,0.002,0.001,0.003l3.5,9.19c0.424,1.115,1.672,1.675,2.787,1.251c0.001,0,0.002-0.001,0.003-0.001l42.75-16.3
	c1.115-0.424,1.675-1.672,1.251-2.787c0-0.001-0.001-0.002-0.001-0.003l-3.5-9.19c-0.424-1.115-1.672-1.675-2.787-1.251
	c-0.001,0-0.002,0.001-0.003,0.001l-6.85,2.61c-1.734,0.661-3.676-0.208-4.337-1.942c-0.001-0.003-0.002-0.005-0.003-0.008
	C318.755,268.868,317.953,268.32,317.06,268.32z"/>
<path style="fill:#FAAC30;" d="M97.62,73.33c-7.31,0-13-16.11-13-36.67s5.73-36.67,13-36.67s13,16.11,13,36.67
	S104.97,73.33,97.62,73.33z M97.62,1.2c-6.41,0-11.83,16.27-11.83,35.47s5.42,35.46,11.83,35.46s11.83-16.24,11.83-35.46
	S104.04,1.2,97.62,1.2z"/>
<path style="fill:#0F716F;" d="M74.02,57.79c-4.32,0-7.27-1.17-8.52-3.44c-1.73-3.15,0.08-7.94,5.1-13.49
	c4.87-5.39,12.24-10.94,20.74-15.62l0.29,0.53l-0.29-0.53c8.5-4.68,17.12-7.93,24.29-9.17c7.37-1.27,12.39-0.24,14.12,2.91
	s-0.08,7.94-5.1,13.49c-4.88,5.39-12.25,10.93-20.74,15.61s-17.12,7.93-24.29,9.17C77.772,57.588,75.899,57.769,74.02,57.79z
	 M91.92,26.3c-8.39,4.61-15.64,10.07-20.43,15.36c-4.58,5.06-6.38,9.47-4.93,12.1s6.14,3.47,12.86,2.31c7-1.22,15.53-4.42,23.91-9
	s15.64-10.1,20.43-15.4c4.58-5.06,6.38-9.47,4.93-12.1s-6.13-3.47-12.86-2.31c-7,1.22-15.53,4.42-23.91,9L91.92,26.3z"/>
<path style="fill:#3AA1D6;" d="M117.23,52.88c-7.886-0.16-15.712-1.402-23.26-3.69l0,0c-19.73-5.72-33.6-15.72-31.56-22.72
	c1-3.46,5.67-5.56,13.14-5.94c7.25-0.36,16.39,0.93,25.7,3.63c19.72,5.71,33.62,15.7,31.59,22.72c-1,3.46-5.67,5.56-13.14,5.94
	C118.893,52.86,118.07,52.88,117.23,52.88z M94.33,48.03c9.19,2.67,18.18,3.94,25.31,3.58c6.82-0.34,11.21-2.19,12-5.07
	c1.79-6.16-12.3-15.89-30.76-21.25c-9.19-2.67-18.19-3.93-25.31-3.58c-6.82,0.34-11.21,2.19-12,5.07
	C61.78,32.94,75.87,42.67,94.33,48.03z"/>
<circle style="fill:#F36F42;" cx="97.62" cy="36.67" r="4.28"/>
<path style="fill:#C84A27;" d="M97.62,41.55c-2.695,0-4.88-2.185-4.88-4.88s2.185-4.88,4.88-4.88c2.695,0,4.88,2.185,4.88,4.88
	c0,0,0,0,0,0C102.494,39.363,100.313,41.545,97.62,41.55z M97.62,32.99c-2.032,0-3.68,1.648-3.68,3.68c0,2.032,1.648,3.68,3.68,3.68
	s3.68-1.648,3.68-3.68S99.652,32.99,97.62,32.99L97.62,32.99z"/>
<circle style="fill:#29B99A;" cx="78.77" cy="34.01" r="1.63"/>
<path style="fill:#0F716F;" d="M78.77,36.24c-1.231,0.017-2.243-0.968-2.26-2.2s0.968-2.243,2.2-2.26
	c1.231-0.017,2.243,0.968,2.26,2.2c0,0.01,0,0.02,0,0.03C80.97,35.23,79.99,36.224,78.77,36.24z M78.77,32.99c-0.552,0-1,0.448-1,1
	s0.448,1,1,1s1-0.448,1-1S79.322,32.99,78.77,32.99z"/>
<circle style="fill:#3AA1D6;" cx="120.92" cy="52.29" r="1.63"/>
<path style="fill:#164A67;" d="M120.92,54.47c-1.232,0-2.23-0.998-2.23-2.23s0.998-2.23,2.23-2.23c1.232,0,2.23,0.998,2.23,2.23v0
	C123.15,53.472,122.152,54.47,120.92,54.47z M120.92,51.22c-0.552,0-1,0.448-1,1s0.448,1,1,1s1-0.448,1-1
	c-0.027-0.533-0.467-0.951-1-0.95V51.22z"/>
<path style="fill:#FFFFFF;" d="M365.41,345.32c0,0,45.88-6.12-0.91-66.55c-13.85-26.23,6.66-46.12,26.28-34.31
	c-3.41-1.5,78.42,94.78-7.91,139.48"/>
<path style="fill:#FFFFFF;" d="M365.41,345.32c0,0,45.88-6.12-0.91-66.55c-13.85-26.23,6.66-46.12,26.28-34.31
	c-3.41-1.5,78.42,94.78-7.91,139.48"/>
<path style="fill:#D0E4F0;" d="M390.78,244.47c-0.54-0.33-1.09-0.62-1.63-0.9c-9.18,5.49-13.59,19.16-5.11,35.21
	c46.79,60.44-6.24,75.63-6.24,75.63l3.17,30.85l14.79-9.29C460.29,328.77,387.56,243.03,390.78,244.47z"/>
<path style="fill:#FFFFFF;" d="M384.47,371.12c0,0,5,25.12-30.37,33.57c-52.75,12.61-52.07-33.51-29.22-40.11
	c22-6.35,24.83-10.33,24.83-10.33s-22.17,15.62-22.83,4.13s37.4-18.83,47.36-9.24C379.203,355.638,382.694,363.138,384.47,371.12z"
	/>
<path style="fill:#D0E4F0;" d="M383.7,368.04c-2.26,7.94-9.22,18.34-29.59,23.21c-26.31,6.29-39.33-2-42.93-12.78
	c-4.76,15,6,35.06,42.93,26.22c35.34-8.45,30.37-33.57,30.37-33.57C384.24,370.08,383.97,369.05,383.7,368.04z"/>
<path style="fill:#D0E4F0;" d="M331.36,362.61c0,0-1.51-4.22,5.08-7.33c4.183-1.825,8.861-2.177,13.27-1
	C344.095,358.05,337.894,360.865,331.36,362.61z"/>
<path style="fill:#A1C2D8;" d="M397.77,292.47c-0.663,0.017-1.213-0.507-1.23-1.169c-0.013-0.508,0.296-0.969,0.77-1.151l14.89-6.2
	c0.613-0.254,1.316,0.037,1.57,0.65s-0.037,1.316-0.65,1.57l-14.89,6.2C398.085,292.434,397.928,292.468,397.77,292.47z"/>
<path style="fill:#40565B;" d="M337.69,407.35c-12.85,0-24.26-4.37-27.48-16.55c-3-11.39,3.64-23.66,14.51-26.8
	c1.467-0.427,2.85-0.84,4.15-1.24l-0.16-0.07c-1.49-0.72-2.3-2.16-2.43-4.28c-0.2-3.57,2.83-6.9,8.79-9.63
	c12.17-5.59,32.54-6.87,39.59-0.08c5.041,6.589,8.589,14.194,10.4,22.29l0,0c0.05,0.26,4.68,25.78-30.82,34.27
	C348.823,406.593,343.269,407.295,337.69,407.35z M331.55,363.17c-2,0.63-4.12,1.29-6.5,2c-10.26,3-16.52,14.56-13.68,25.34
	c4.35,16.5,24.85,17.85,42.59,13.61c14.23-3.4,23.91-10.16,28-19.55c1.855-4.178,2.519-8.788,1.92-13.32
	c-1.756-7.906-5.205-15.336-10.11-21.78c-6.47-6.22-26.43-5-38.19,0.38c-5.39,2.47-8.26,5.48-8.09,8.47
	c0.1,1.67,0.67,2.74,1.75,3.26c0.651,0.274,1.353,0.407,2.06,0.39c4.443-1.366,8.786-3.037,13-5c2.08-1.21,3.88-2.38,5.06-3.22
	c0.265-0.199,0.641-0.145,0.84,0.12c0.16,0.213,0.16,0.507,0,0.72c-0.07,0.09-1,1.33-5.37,3.46c-3.94,2.3-9.33,4.97-13.28,5.13
	V363.17z"/>
<path style="fill:#A1C2D8;" d="M421.38,317.79h-0.05l-16.14-0.68c-0.662-0.027-1.177-0.586-1.15-1.248c0-0.001,0-0.001,0-0.002
	c0.038-0.658,0.591-1.167,1.25-1.15l16.14,0.68c0.665,0,1.205,0.539,1.205,1.205c0,0.666-0.54,1.205-1.205,1.205L421.38,317.79z"/>
<path style="fill:#A1C2D8;" d="M415.27,353c-0.227-0.002-0.449-0.067-0.64-0.19l-15.48-9.78c-0.599-0.284-0.853-1-0.569-1.599
	c0.284-0.599,1-0.853,1.599-0.569c0.094,0.044,0.181,0.101,0.26,0.168l15.48,9.78c0.563,0.349,0.737,1.089,0.388,1.652
	c-0.22,0.355-0.61,0.571-1.028,0.568L415.27,353z"/>
<path style="fill:#40565B;" d="M382.86,384.53c-0.331,0.011-0.608-0.249-0.619-0.581c-0.008-0.237,0.125-0.456,0.339-0.559
	c20.39-10.53,32.96-24.92,37.48-42.65c6.32-24.82-3-55.84-27.54-92.2c-0.892-1.199-1.694-2.463-2.4-3.78
	c-8.24-4.8-17.14-4.18-23.29,1.64c-9.22,8.72-6.73,22.74-1.79,32.09c18,23.2,24.54,41.27,19.46,53.64
	c-4.84,11.78-18.86,13.78-19,13.79c-0.329,0.044-0.631-0.186-0.675-0.515c-0.044-0.329,0.186-0.631,0.515-0.675
	c0.13,0,13.49-1.94,18.05-13.07c4.89-11.94-1.62-29.61-19.36-52.52c-5.19-9.81-7.74-24.43,2-33.61c6.65-6.29,16.27-6.9,25.1-1.58
	c0.225,0.133,0.338,0.395,0.28,0.65c0.3,0.54,1.17,1.82,2.15,3.27c24.79,36.66,34.12,68,27.71,93.17
	c-4.61,18.12-17.42,32.73-38.09,43.42C383.082,384.513,382.971,384.537,382.86,384.53z"/>
<path style="fill:#40565B;" d="M382.86,384.53c-0.331,0.011-0.608-0.249-0.619-0.581c-0.008-0.237,0.125-0.456,0.339-0.559
	c20.39-10.53,32.96-24.92,37.48-42.65c6.32-24.82-3-55.84-27.54-92.2c-0.892-1.199-1.694-2.463-2.4-3.78
	c-8.24-4.8-17.14-4.18-23.29,1.64c-9.22,8.72-6.73,22.74-1.79,32.09c18,23.2,24.54,41.27,19.46,53.64
	c-4.84,11.78-18.86,13.78-19,13.79c-0.329,0.044-0.631-0.186-0.675-0.515c-0.044-0.329,0.186-0.631,0.515-0.675
	c0.13,0,13.49-1.94,18.05-13.07c4.89-11.94-1.62-29.61-19.36-52.52c-5.19-9.81-7.74-24.43,2-33.61c6.65-6.29,16.27-6.9,25.1-1.58
	c0.225,0.133,0.338,0.395,0.28,0.65c0.3,0.54,1.17,1.82,2.15,3.27c24.79,36.66,34.12,68,27.71,93.17
	c-4.61,18.12-17.42,32.73-38.09,43.42C383.082,384.513,382.971,384.537,382.86,384.53z"/>
<path style="fill:#40565B;" d="M382.86,384.53c-0.331,0.011-0.608-0.249-0.619-0.581c-0.008-0.237,0.125-0.456,0.339-0.559
	c20.39-10.53,32.96-24.92,37.48-42.65c6.32-24.82-3-55.84-27.54-92.2c-0.892-1.199-1.694-2.463-2.4-3.78
	c-8.24-4.8-17.14-4.18-23.29,1.64c-9.22,8.72-6.73,22.74-1.79,32.09c18,23.2,24.54,41.27,19.46,53.64
	c-4.84,11.78-18.86,13.78-19,13.79c-0.329,0.044-0.631-0.186-0.675-0.515c-0.044-0.329,0.186-0.631,0.515-0.675
	c0.13,0,13.49-1.94,18.05-13.07c4.89-11.94-1.62-29.61-19.36-52.52c-5.19-9.81-7.74-24.43,2-33.61c6.65-6.29,16.27-6.9,25.1-1.58
	c0.225,0.133,0.338,0.395,0.28,0.65c0.3,0.54,1.17,1.82,2.15,3.27c24.79,36.66,34.12,68,27.71,93.17
	c-4.61,18.12-17.42,32.73-38.09,43.42C383.082,384.513,382.971,384.537,382.86,384.53z"/>
<path style="fill:#FFFFFF;" d="M85.48,219.47c0,0-28.08-4.56-21.62-36.9c9.65-48.27,57-31.73,54-10.42c-2.9,20.5,0,24.24,0,24.24
	s-6.6-23.86,5.54-20.43s3.37,37.65-10.81,42.61C103.675,220.453,94.5,220.757,85.48,219.47z"/>
<path d="M96.39,220.82c-3.681,0-7.357-0.264-11-0.79l0,0c-0.47-0.08-11.58-2-18.27-11.63c-4.65-6.71-5.94-15.45-3.84-26
	c5.34-26.72,21.81-33.75,35.43-31.43c12.25,2.09,21.1,11.6,19.74,21.21c-0.193,1.38-0.363,2.687-0.51,3.92
	c1.37-1.18,3.26-1.43,5.62-0.77c3.8,1.07,6,5,6.17,11.08c0.37,12-7.11,29.24-16.95,32.68
	C107.39,220.225,101.898,220.804,96.39,220.82z M85.58,218.82c8.947,1.269,18.047,0.968,26.89-0.89
	c7.59-2.66,16.5-17.31,16.07-31.48c-0.1-3.19-0.91-8.72-5.3-10c-2.1-0.59-3.64-0.36-4.71,0.71c-0.335,0.342-0.615,0.733-0.83,1.16
	c-0.487,4.134-0.625,8.303-0.41,12.46c0.51,3,1.13,5.31,1.15,5.37l0.81,2.94l-1.87-2.41c-0.07-0.09-0.95-1.31-1.28-5.68
	c-0.69-4.12-1.14-9.61,0.42-13c0.19-1.83,0.43-3.85,0.74-6c1.27-9-7.14-17.88-18.76-19.86c-13.06-2.23-28.87,4.61-34,30.48
	c-2,10.2-0.81,18.63,3.65,25.06c6.31,9.2,17.16,11.12,17.43,11.16V218.82z"/>
<path style="fill:#E7F1F8;" d="M116.92,195.4c8.42-2-12,13.91-35.69,7.74c-13.12-3.42-9.51-9.17-9.51-9.17"/>
<path style="fill:#40565B;" d="M96.39,220.82c-3.681,0-7.357-0.264-11-0.79l0,0c-0.47-0.08-11.58-2-18.27-11.63
	c-4.65-6.71-5.94-15.45-3.84-26c5.34-26.72,21.81-33.75,35.43-31.43c12.25,2.09,21.1,11.6,19.74,21.21
	c-0.193,1.38-0.363,2.687-0.51,3.92c1.37-1.18,3.26-1.43,5.62-0.77c3.8,1.07,6,5,6.17,11.08c0.37,12-7.11,29.24-16.95,32.68
	C107.39,220.225,101.898,220.804,96.39,220.82z M85.58,218.82c8.947,1.269,18.047,0.968,26.89-0.89
	c7.59-2.66,16.5-17.31,16.07-31.48c-0.1-3.19-0.91-8.72-5.3-10c-2.1-0.59-3.64-0.36-4.71,0.71c-0.335,0.342-0.615,0.733-0.83,1.16
	c-0.487,4.134-0.625,8.303-0.41,12.46c0.51,3,1.13,5.31,1.15,5.37c0.1,0.316-0.075,0.653-0.391,0.753
	c-0.248,0.078-0.517-0.012-0.669-0.223c-0.07-0.09-0.95-1.31-1.28-5.68c-0.69-4.12-1.14-9.61,0.42-13c0.19-1.83,0.43-3.85,0.74-6
	c1.27-9-7.14-17.88-18.76-19.86c-13.06-2.23-28.87,4.61-34,30.48c-2,10.2-0.81,18.63,3.65,25.06c6.31,9.2,17.16,11.12,17.43,11.16
	V218.82z"/>
<rect x="86.6" y="84.08" style="fill:#FFFFFF;" width="22.15" height="2.84"/>
<line style="fill:none;" x1="115.36" y1="148.64" x2="115.36" y2="148.64"/>
<path style="fill:#FFFFFF;" d="M81.23,144.55c0,0,7-7.91,21.65,0c3.901,2.053,8.12,3.436,12.48,4.09l-9.14-30.34V86.92H89.14v31.39
	l-7.91,26.25"/>
<path style="opacity:0.73;fill:#E7F1F8;enable-background:new    ;" d="M81.23,144.55c0,0,7-7.91,21.65,0
	c3.901,2.053,8.12,3.436,12.48,4.09l11,36.39l-2.68,8.93c-17.21,4.26-34.52,4-51.91,0l-2.68-8.93l10.06-33.39L81.23,144.55z"/>
<path style="fill:#A1C2D8;" d="M115.36,149.25h-0.07c-4.439-0.656-8.733-2.063-12.7-4.16c-14-7.57-20.63-0.44-20.91-0.13
	c-0.221,0.249-0.601,0.271-0.85,0.05c-0.249-0.221-0.271-0.601-0.05-0.85c1.559-1.537,3.504-2.625,5.63-3.15
	c3.38-0.93,9-1.16,16.75,3c3.839,2.005,7.986,3.357,12.27,4c0.331,0.019,0.584,0.304,0.565,0.635
	c-0.019,0.331-0.304,0.584-0.635,0.565l0,0L115.36,149.25z"/>
<path style="fill:#40565B;" d="M108.75,87.52H86.61c-0.331,0-0.6-0.269-0.6-0.6v-2.84c0-0.331,0.269-0.6,0.6-0.6h22.15
	c0.331,0,0.6,0.269,0.6,0.6v2.84c0,0.331-0.269,0.6-0.6,0.6C108.757,87.52,108.753,87.52,108.75,87.52z M87.2,86.32h20.94v-1.64
	H87.21L87.2,86.32z"/>
<path style="fill:#40565B;" d="M98.13,197.65c-8.939-0.023-17.846-1.063-26.55-3.1c-0.21-0.048-0.377-0.204-0.44-0.41l-2.68-8.93
	c-0.035-0.114-0.035-0.236,0-0.35l20.07-66.65V86.92c0-0.331,0.269-0.6,0.6-0.6h17.09c0.331,0,0.6,0.269,0.6,0.6v31.3l20.07,66.65
	c0.035,0.114,0.035,0.236,0,0.35l-2.68,8.93c-0.061,0.203-0.224,0.359-0.43,0.41C115.387,196.627,106.774,197.665,98.13,197.65z
	 M72.2,193.47c16.765,3.993,34.235,3.993,51,0l2.53-8.43l-20-66.56c-0.008-0.056-0.008-0.114,0-0.17V87.52H89.74v30.78
	c0.008,0.056,0.008,0.114,0,0.17l-20,66.56L72.2,193.47z M89.14,118.32L89.14,118.32z"/>
<path style="fill:#40565B;" d="M99.81,178.73h-4.27c-0.331,0.001-0.601-0.267-0.601-0.599c-0.001-0.331,0.267-0.601,0.599-0.601
	c0.001,0,0.002,0,0.003,0h4.27c0.331-0.001,0.601,0.267,0.601,0.599c0.001,0.331-0.267,0.601-0.599,0.601
	C99.812,178.73,99.811,178.73,99.81,178.73z"/>
<path style="fill:#40565B;" d="M99.81,171.81h-4.27c-0.331,0.001-0.601-0.267-0.601-0.599c-0.001-0.331,0.267-0.601,0.599-0.601
	c0.001,0,0.002,0,0.003,0h4.27c0.331-0.001,0.601,0.267,0.601,0.599c0.001,0.331-0.267,0.601-0.599,0.601
	C99.812,171.81,99.811,171.81,99.81,171.81z"/>
<path style="fill:#40565B;" d="M99.81,164.9h-4.27c-0.331,0.001-0.601-0.267-0.601-0.599c-0.001-0.331,0.267-0.601,0.599-0.601
	c0.001,0,0.002,0,0.003,0h4.27c0.331-0.001,0.601,0.267,0.601,0.599c0.001,0.331-0.267,0.601-0.599,0.601
	C99.812,164.9,99.811,164.9,99.81,164.9z"/>
<path style="fill:#40565B;" d="M99.81,157.99h-4.27c-0.331,0.001-0.601-0.267-0.601-0.599c-0.001-0.331,0.267-0.601,0.599-0.601
	c0.001,0,0.002,0,0.003,0h4.27c0.331-0.001,0.601,0.267,0.601,0.599c0.001,0.331-0.267,0.601-0.599,0.601
	C99.812,157.99,99.811,157.99,99.81,157.99z"/>
<path style="fill:#40565B;" d="M99.81,151.07h-4.27c-0.331,0.001-0.601-0.267-0.601-0.599c-0.001-0.331,0.267-0.601,0.599-0.601
	c0.001,0,0.002,0,0.003,0h4.27c0.331-0.001,0.601,0.267,0.601,0.599c0.001,0.331-0.267,0.601-0.599,0.601
	C99.812,151.07,99.811,151.07,99.81,151.07z"/>
<path style="fill:#40565B;" d="M99.81,144.16h-4.27c-0.331,0.001-0.601-0.267-0.601-0.599c-0.001-0.331,0.267-0.601,0.599-0.601
	c0.001,0,0.002,0,0.003,0h4.27c0.331-0.001,0.601,0.267,0.601,0.599c0.001,0.331-0.267,0.601-0.599,0.601
	C99.812,144.16,99.811,144.16,99.81,144.16z"/>
<path style="fill:#40565B;" d="M99.81,137.25h-4.27c-0.331-0.001-0.599-0.27-0.599-0.601c0.001-0.33,0.268-0.598,0.599-0.599h4.27
	c0.331-0.001,0.601,0.267,0.601,0.599c0.001,0.331-0.267,0.601-0.599,0.601C99.812,137.25,99.811,137.25,99.81,137.25z"/>
<path style="fill:#40565B;" d="M99.81,185.64h-4.27c-0.331,0-0.6-0.269-0.6-0.6l0,0v-55.31c0-0.331,0.269-0.6,0.6-0.6c0,0,0,0,0,0
	h4.27c0.331-0.001,0.601,0.267,0.601,0.599c0.001,0.331-0.267,0.601-0.599,0.601c-0.001,0-0.002,0-0.003,0h-3.67v54.14h3.67
	c0.331-0.001,0.601,0.267,0.601,0.599c0.001,0.331-0.267,0.601-0.599,0.601c-0.001,0-0.002,0-0.003,0V185.64z"/>
<path style="fill:#A1C2D8;" d="M83.47,167.47c-1.568,0-2.84-1.272-2.84-2.84s1.272-2.84,2.84-2.84c1.568,0,2.84,1.271,2.84,2.84l0,0
	C86.31,166.198,85.038,167.47,83.47,167.47z M83.47,162.99c-0.906,0-1.64,0.734-1.64,1.64s0.734,1.64,1.64,1.64
	s1.64-0.734,1.64-1.64l0,0c0.022-0.905-0.694-1.657-1.6-1.68c-0.013,0-0.027,0-0.04,0V162.99z"/>
<path style="fill:#A1C2D8;" d="M87.97,177.27c-1.568,0.016-2.853-1.242-2.87-2.81s1.242-2.853,2.81-2.87
	c1.568-0.016,2.853,1.242,2.87,2.81c0,0.023,0,0.046,0,0.07C90.758,176.011,89.511,177.254,87.97,177.27z M87.97,172.79
	c-0.906-0.016-1.653,0.705-1.669,1.61c-0.016,0.906,0.705,1.653,1.61,1.669c0.901,0.016,1.647-0.698,1.669-1.599
	c0.022-0.905-0.694-1.658-1.599-1.68C87.977,172.79,87.974,172.79,87.97,172.79z"/>
<path style="fill:#FFFFFF;" d="M117.85,196.36c0,0-6.6-23.86,5.54-20.43s3.37,37.65-10.81,42.61"/>
<path style="fill:#E7F1F8;" d="M123.4,175.93c-1.513-0.577-3.204-0.456-4.62,0.33c9,4,7.54,18.49-1.63,34.84
	c-2.33,4.15-4.56,7.44-4.56,7.44C126.77,213.58,135.55,179.37,123.4,175.93z"/>
<path style="fill:#40565B;" d="M112.59,219.15c-0.331,0.007-0.606-0.255-0.613-0.587c-0.006-0.264,0.162-0.501,0.413-0.583
	c7.67-2.68,16.58-17.33,16.14-31.51c-0.1-3.19-0.91-8.72-5.3-10c-2.1-0.59-3.63-0.36-4.71,0.71c-4.14,4.12-0.13,18.84-0.09,19
	c0.088,0.32-0.1,0.652-0.42,0.74s-0.652-0.1-0.74-0.42l0,0c-0.18-0.63-4.24-15.54,0.4-20.16c1.39-1.38,3.37-1.72,5.88-1
	c3.8,1.07,6,5,6.17,11.08c0.37,12-7.11,29.24-16.95,32.68C112.713,219.126,112.652,219.143,112.59,219.15z"/>
<path style="fill:#40565B;" d="M71.72,194.57h-4.14c-0.331-0.001-0.599-0.27-0.599-0.601c0.001-0.33,0.268-0.598,0.599-0.599h4.14
	c0.331,0.001,0.599,0.27,0.599,0.601C72.318,194.302,72.05,194.569,71.72,194.57z"/>
<path style="fill:#40565B;" d="M279.85,251.47c-47.65,0-83.58-21.9-83.58-50.94c0-32.77,8.14-109,83.58-109
	c33.89,0,57.77,13.32,71,39.58c11.32,22.55,12.63,50.41,12.63,69.41C363.44,229.57,327.5,251.47,279.85,251.47z M279.85,92.75
	c-31.17,0-54,13.1-67.76,38.93c-12.12,22.62-14.62,49.92-14.62,68.85c0,28.35,35.42,49.74,82.38,49.74s82.38-21.38,82.38-49.74
	c0-18.88-1.3-46.55-12.5-68.87C336.76,105.84,313.25,92.75,279.85,92.75z"/>
</svg>
