<?xml version="1.0" encoding="UTF-8"?>
<svg width="137px" height="134px" viewBox="0 0 137 134" version="1.1" xmlns="http://www.w3.org/2000/svg" xmlns:xlink="http://www.w3.org/1999/xlink">
    <!-- Generator: Sketch 52.1 (67048) - http://www.bohemiancoding.com/sketch -->
    <title>ngss_life_sciences</title>
    <desc>Created with Sketch.</desc>
    <g id="ngss_life_sciences" stroke="none" stroke-width="1" fill="none" fill-rule="evenodd">
        <path d="M70,5.581 C58.797,5.581 54.104,19.942 52.832,24.824 C52.686,25.386 51.931,25.478 51.651,24.97 L49.13,20.402 C48.791,19.788 48.874,19.027 49.337,18.5 L52.718,14.656 C52.906,14.442 53.035,14.183 53.091,13.904 L55.3,3.038 C55.415,2.474 55.069,1.919 54.512,1.774 L54.267,1.71 C53.683,1.558 53.087,1.912 52.942,2.498 L51.01,10.308 C50.89,10.792 50.456,11.131 49.958,11.131 C49.372,11.131 48.893,10.665 48.875,10.08 L48.176,1.399 C48.111,0.608 47.452,0 46.66,0 L46.318,0 C45.484,0 44.806,0.672 44.799,1.506 L44.743,7.843 C44.735,8.318 44.083,8.443 43.9,8.005 L41.905,3.239 C41.644,2.615 40.88,2.38 40.314,2.75 L40.063,2.914 C39.668,3.172 39.485,3.656 39.611,4.111 L43.589,18.459 C42.192,31.69 48.265,34.508 51.579,35.072 C52.768,35.275 53.647,36.284 53.689,37.489 L53.732,38.698 C45.588,50.806 51.036,63.515 54.81,69.783 C56.101,71.927 55.134,74.712 52.803,75.623 L38.775,81.105 C37.705,81.523 37.283,82.814 37.9,83.784 L56.557,113.102 C57.159,114.048 56.773,115.309 55.744,115.755 L43.2,121.199 C42.393,121.549 41.951,122.426 42.149,123.283 C42.466,124.657 43.685,125.262 44.734,124.789 L51.487,121.745 C52.481,121.297 53.644,121.816 53.975,122.855 C54.227,123.648 53.911,124.512 53.206,124.954 L44.405,130.473 C43.459,131.066 43.263,132.363 43.992,133.209 L44.558,133.866 C45.199,134.61 46.313,134.714 47.08,134.1 L65.495,119.368 C66.191,118.811 66.383,117.833 65.949,117.054 L49.602,87.754 C49.006,86.686 49.609,85.346 50.803,85.083 L61.995,82.622 C62.327,82.549 62.672,82.57 62.992,82.683 L67.607,84.307 C67.802,84.375 68.006,84.41 68.213,84.41 L70,84.41 L71.788,84.41 C71.994,84.41 72.199,84.375 72.394,84.307 L77.009,82.683 C77.329,82.57 77.675,82.549 78.006,82.622 L89.198,85.083 C90.392,85.346 90.995,86.686 90.399,87.754 L74.052,117.054 C73.618,117.832 73.809,118.811 74.506,119.368 L92.921,134.1 C93.688,134.713 94.802,134.61 95.443,133.866 L96.009,133.209 C96.738,132.363 96.542,131.066 95.596,130.473 L86.795,124.954 C86.09,124.512 85.773,123.648 86.026,122.855 C86.357,121.816 87.52,121.297 88.514,121.745 L95.267,124.789 C96.316,125.262 97.536,124.657 97.794,123.536 C98.05,122.426 97.608,121.549 96.801,121.199 L84.258,115.756 C83.229,115.31 82.843,114.049 83.445,113.103 L102.102,83.785 C102.719,82.816 102.297,81.524 101.227,81.106 L87.199,75.624 C84.869,74.713 83.902,71.928 85.192,69.784 C88.966,63.515 94.414,50.807 86.27,38.699 L86.313,37.49 C86.356,36.284 87.234,35.275 88.423,35.073 C91.737,34.509 97.81,31.691 96.413,18.46 L100.391,4.112 C100.517,3.657 100.334,3.173 99.939,2.915 L99.688,2.751 C99.121,2.381 98.358,2.616 98.097,3.24 L96.102,8.006 C95.919,8.444 95.267,8.319 95.259,7.844 L95.203,1.507 C95.193,0.672 94.515,0 93.681,0 L93.34,0 C92.548,0 91.889,0.608 91.825,1.398 L91.126,10.079 C91.109,10.665 90.629,11.13 90.043,11.13 C89.545,11.13 89.111,10.79 88.991,10.307 L87.059,2.497 C86.914,1.911 86.318,1.557 85.734,1.709 L85.489,1.773 C84.932,1.918 84.586,2.473 84.701,3.037 L86.91,13.903 C86.967,14.182 87.095,14.441 87.283,14.655 L90.664,18.499 C91.127,19.026 91.21,19.787 90.871,20.401 L88.35,24.969 C88.069,25.477 87.315,25.385 87.169,24.823 C85.896,19.941 81.203,5.581 70,5.581 Z" id="faded-frog" fill="#FFFFFF" opacity="0.75"></path>
        <path d="M83.2930349,100.490574 L90.399,87.754 C90.995,86.686 90.392,85.346 89.198,85.083 L86.2949639,84.4446537 L93.9990452,78.2813887 L101.227,81.106 C102.297,81.524 102.719,82.816 102.102,83.785 L89.7318617,103.223694 L83.2930349,100.490574 Z M82.3129423,102.24727 L88.6432674,104.934334 L83.445,113.103 C82.843,114.049 83.229,115.31 84.258,115.756 L96.801,121.199 C97.608,121.549 98.05,122.426 97.794,123.536 C97.536,124.657 96.316,125.262 95.267,124.789 L88.514,121.745 C87.52,121.297 86.357,121.816 86.026,122.855 C85.773,123.648 86.09,124.512 86.795,124.954 L95.596,130.473 C96.542,131.066 96.738,132.363 96.009,133.209 L95.443,133.866 C94.802,134.61 93.688,134.713 92.921,134.1 L74.506,119.368 C73.809,118.811 73.618,117.832 74.052,117.054 L82.3129423,102.24727 Z M70.9524315,67.1665128 L87.5447139,65.2848533 C86.7753966,67.006264 85.9499392,68.5249854 85.192,69.784 C83.902,71.928 84.869,74.713 87.199,75.624 L91.8481622,77.4408454 L83.783662,83.8924455 L78.006,82.622 C77.675,82.549 77.329,82.57 77.009,82.683 L72.394,84.307 C72.199,84.375 71.994,84.41 71.788,84.41 L70,84.41 L68.213,84.41 C68.1209819,84.41 68.0295567,84.4030837 67.9392514,84.3894268 L66.3935673,70.2396321 L70.7423492,69.6354338 L70.9524315,67.1665128 Z M71.1253727,65.1340805 L72.3391932,50.8690701 L89.9863502,47.5962336 L89.7796305,46.4815992 C91.3138682,52.5831347 90.1971553,58.4522161 88.4150209,63.1733358 L71.1253727,65.1340805 Z M65.850843,83.6890154 L62.992,82.683 C62.672,82.57 62.327,82.549 61.995,82.622 L50.803,85.083 C49.609,85.346 49.006,86.686 49.602,87.754 L50.2809276,88.9708948 L45.5768357,95.8475401 L37.9,83.784 C37.283,82.814 37.705,81.523 38.775,81.105 L52.803,75.623 C54.4511503,74.9788709 55.4173962,73.3978733 55.3857277,71.7690068 L64.4117478,70.5149763 L65.850843,83.6890154 Z M51.3693969,90.9218429 L65.949,117.054 C66.383,117.833 66.191,118.811 65.495,119.368 L47.08,134.1 C46.313,134.714 45.199,134.61 44.558,133.866 L43.992,133.209 C43.263,132.363 43.459,131.066 44.405,130.473 L53.206,124.954 C53.911,124.512 54.227,123.648 53.975,122.855 C53.644,121.816 52.481,121.297 51.487,121.745 L44.734,124.789 C43.685,125.262 42.466,124.657 42.149,123.283 C41.951,122.426 42.393,121.549 43.2,121.199 L55.744,115.755 C56.773,115.309 57.159,114.048 56.557,113.102 L46.5589692,97.3908853 L46.8195026,97.5730755 L51.3693969,90.9218429 Z M77,7.74361881 L77,27.6930005 L92.3075855,33.433345 C90.959833,34.44004 89.5358573,34.8836061 88.423,35.073 C87.234,35.275 86.356,36.284 86.313,37.49 L86.27,38.699 C87.8230653,41.0080023 88.8818344,43.3388245 89.5521793,45.6426503 L72.5150519,48.8023508 L73.0843547,42.1118137 L52.2885186,41.1091757 C52.713035,40.3041783 53.192718,39.4997715 53.732,38.698 L53.7160277,38.2489176 L67.3203138,31.3274387 L64.5974904,6.82202859 C66.201983,6.04009914 67.9969341,5.581 70,5.581 C72.6959837,5.581 75.0149626,6.4126111 77,7.74361881 Z M79,9.34471784 C83.9032944,13.9487911 86.3116959,21.5352086 87.169,24.823 C87.315,25.385 88.069,25.477 88.35,24.969 L90.871,20.401 C91.21,19.787 91.127,19.026 90.664,18.499 L87.283,14.655 C87.095,14.441 86.967,14.182 86.91,13.903 L84.701,3.037 C84.586,2.473 84.932,1.918 85.489,1.773 L85.734,1.709 C86.318,1.557 86.914,1.911 87.059,2.497 L88.991,10.307 C89.111,10.79 89.545,11.13 90.043,11.13 C90.629,11.13 91.109,10.665 91.126,10.079 L91.825,1.398 C91.889,0.608 92.548,0 93.34,0 L93.681,0 C94.515,0 95.193,0.672 95.203,1.507 L95.259,7.844 C95.267,8.319 95.919,8.444 96.102,8.006 L98.097,3.24 C98.358,2.616 99.121,2.381 99.688,2.751 L99.939,2.915 C100.334,3.173 100.517,3.657 100.391,4.112 L96.413,18.46 C97.1489164,25.4298708 95.8119023,29.5101266 93.8972614,31.8934726 L79,26.3069995 L79,9.34471784 Z M49.8443806,21.696443 L51.651,24.97 C51.931,25.478 52.686,25.386 52.832,24.824 C53.7828534,21.1745767 56.6453464,12.2283305 62.7097985,7.94357151 L65.1796862,30.1725613 L53.297534,36.2178668 C52.9233048,35.6258989 52.3096899,35.1967519 51.579,35.072 C49.3155496,34.68679 45.7650693,33.2501245 44.1865908,28.1624884 L49.8443806,21.696443 Z M48.9265446,19.708214 L43.6401576,25.7497991 C43.33557,23.763292 43.2825127,21.3617443 43.589,18.459 L39.611,4.111 C39.485,3.656 39.668,3.172 40.063,2.914 L40.314,2.75 C40.88,2.38 41.644,2.615 41.905,3.239 L43.9,8.005 C44.083,8.443 44.735,8.318 44.743,7.843 L44.799,1.506 C44.806,0.672 45.484,0 46.318,0 L46.66,0 C47.452,0 48.111,0.608 48.176,1.399 L48.875,10.08 C48.893,10.665 49.372,11.131 49.958,11.131 C50.456,11.131 50.89,10.792 51.01,10.308 L52.942,2.498 C53.087,1.912 53.683,1.558 54.267,1.71 L54.512,1.774 C55.069,1.919 55.415,2.474 55.3,3.038 L53.091,13.904 C53.035,14.183 52.906,14.442 52.718,14.656 L49.337,18.5 C49.0386745,18.8395627 48.898111,19.2762735 48.9265446,19.708214 Z M54.835668,69.8262187 C54.8272134,69.8117842 54.8186574,69.7973777 54.81,69.783 C51.4884857,64.2665051 46.8703179,53.7609153 51.3625542,43.066866 L70.9156453,44.009576 L68.88498,67.8742768 L54.835668,69.8262187 Z" id="solid-frog" fill="#FFFFFF"></path>
        <path d="M107,55 L107,42 L109,42 L109,57 L84,57 L84,55 L107,55 Z M121,77 L78,77 L78,75 L123,75 L123,89 L121,89 L121,77 Z M29,47 L58,47 L58,49 L27,49 L27,37 L29,37 L29,47 Z M29.2609536,100 L44.052849,85.6160757 L45.447151,87.0499243 L30.0730464,102 L17,102 L17,100 L29.2609536,100 Z M119,106 L119,108 L104.009236,108 L91.3339869,91.6117992 L92.9160131,90.3882008 L104.990764,106 L119,106 Z M16,65 L16,71 L14,71 L14,63 L58,63 L58,65 L16,65 Z" id="arrows" fill="#FFFFFF" fill-rule="nonzero" opacity="0.25"></path>
        <path d="M101,38 L101,36 L115,36 L115,38 L101,38 Z M115,95 L115,93 L129,93 L129,95 L115,95 Z M112,114 L112,112 L126,112 L126,114 L112,114 Z M21,35 L21,33 L35,33 L35,35 L21,35 Z M9,77 L9,75 L21,75 L21,77 L9,77 Z M13,110 L13,108 L25,108 L25,110 L13,110 Z" id="labels" fill="#FFFFFF" fill-rule="nonzero"></path>
    </g>
</svg>