<?xml version="1.0" encoding="iso-8859-1"?>
<!-- Generator: Adobe Illustrator 23.0.0, SVG Export Plug-In . SVG Version: 6.00 Build 0)  -->
<svg version="1.1" id="Layer_1" xmlns="http://www.w3.org/2000/svg" xmlns:xlink="http://www.w3.org/1999/xlink" x="0px" y="0px"
	 viewBox="0 0 268.19 177.67" style="enable-background:new 0 0 268.19 177.67;" xml:space="preserve">
<title>home-illustration-pilot-who</title>
<path style="fill:#A9D7F3;" d="M242.58,164.67c3.88-3.09,6.89-8.34,8.89-15.5v-10.45l-9,16.63L242.58,164.67z"/>
<path style="fill:#E7F1F8;" d="M26.04,0.5v53.32h63.92V0.5H26.04z M85.96,49.82H30.04V4.5h55.92V49.82z"/>
<path style="fill:#D0E4F1;" d="M41.65,8.97c1.44-1.46,2.87-2.933,4.29-4.42H30.17v16C33.99,16.72,37.83,12.84,41.65,8.97z"/>
<path style="fill:#D0E4F1;" d="M85.96,22.05V13.2C71.84,25.32,57.97,37.79,43.68,49.78h10C64.06,40.09,74.87,30.93,85.96,22.05z"/>
<path style="fill:#D0E4F1;" d="M63.53,49.78h22.43V30.56C78.32,36.78,70.843,43.187,63.53,49.78z"/>
<path style="fill:#D0E4F1;" d="M31.16,38.46c6.26-6.06,12.77-11.86,19.11-17.83C55.99,15.24,61.7,9.82,67.58,4.56H55.09
	c-3.23,3.33-6.39,6.75-9.63,10C40.35,19.73,35.2,24.87,30.13,30.1v9.32L31.16,38.46z"/>
<path style="fill:#FFFFFF;" d="M59.3,24.39c-0.623,0.019-1.176-0.396-1.33-1c-0.154,0.604-0.707,1.019-1.33,1h-4.22
	c-0.735,0-1.33-0.595-1.33-1.33v0v-2.14c0-0.735,0.595-1.33,1.33-1.33l0,0h0.32l2.09-5.38c-0.228-0.248-0.353-0.573-0.35-0.91v-2.12
	c0-0.735,0.595-1.33,1.33-1.33l0,0h4.22c0.735,0,1.33,0.595,1.33,1.33v0v2.14c0.003,0.337-0.122,0.662-0.35,0.91l2.09,5.38h0.32
	c0.735,0,1.33,0.595,1.33,1.33v0v2.11c-0.032,0.711-0.618,1.271-1.33,1.27L59.3,24.39z"/>
<path style="fill:#19BC9C;" d="M59.25,24.89c-0.485-0.013-0.946-0.218-1.28-0.57c-0.355,0.359-0.846,0.548-1.35,0.52h-4.2
	c-0.997,0-1.813-0.793-1.84-1.79v-2.13c0.005-1.001,0.809-1.814,1.81-1.83l1.87-4.77c-0.192-0.298-0.293-0.646-0.29-1v-2.14
	c-0.011-1.016,0.804-1.849,1.82-1.86c0.007,0,0.013,0,0.02,0h4.22c1.008,0.005,1.825,0.822,1.83,1.83v2.17
	c0.006,0.353-0.092,0.701-0.28,1l1.87,4.8c1.001,0.016,1.805,0.829,1.81,1.83v2.11c-0.005,1.008-0.822,1.825-1.83,1.83h-4.11H59.25z
	 M57.97,22.89c0.225,0.001,0.421,0.153,0.48,0.37c0.099,0.373,0.444,0.627,0.83,0.61l0,0h4.12c0.458,0.006,0.834-0.362,0.84-0.82
	c0-0.003,0-0.007,0-0.01v-2.12c0-0.458-0.372-0.83-0.83-0.83l0,0h-0.32c-0.208,0.001-0.395-0.126-0.47-0.32l-2.04-5.38
	c-0.069-0.178-0.03-0.38,0.1-0.52c0.143-0.155,0.222-0.359,0.22-0.57v-2.12c0-0.458-0.372-0.83-0.83-0.83l0,0h-4.26
	c-0.458,0-0.83,0.372-0.83,0.83v0v2.14c-0.002,0.211,0.077,0.415,0.22,0.57c0.13,0.14,0.169,0.342,0.1,0.52l-2.09,5.38
	c-0.075,0.194-0.262,0.321-0.47,0.32h-0.32c-0.458,0-0.83,0.372-0.83,0.83v0v2.13c0,0.458,0.372,0.83,0.83,0.83l0,0h4.22
	c0.376,0.009,0.715-0.225,0.84-0.58c0.043-0.237,0.249-0.409,0.49-0.41V22.89z"/>
<path style="fill:#19BC9C;" d="M62.28,20.92l-3-7.65h0.81v-2.11h-4.2v2.11h0.81l-3,7.65h-1.22v2.11h4.22v-2.11h-0.94l0.52-1.33h3.43
	l0.52,1.33H59.3v2.11h4.22v-2.11H62.28z M57.09,17.47l0.89-2.29l0.89,2.29L57.09,17.47z"/>
<path style="fill:#109995;" d="M63.52,23.53H59.3c-0.276,0-0.5-0.224-0.5-0.5v-2.11c0-0.276,0.224-0.5,0.5-0.5h0.19l-0.13-0.33
	h-2.78l-0.13,0.33h0.21c0.276,0,0.5,0.224,0.5,0.5v2.11c0,0.276-0.224,0.5-0.5,0.5h-4.18c-0.276,0-0.5-0.224-0.5-0.5v-2.11
	c0-0.276,0.224-0.5,0.5-0.5h0.9l2.58-6.65h-0.08c-0.276,0-0.5-0.224-0.5-0.5v-2.11c0-0.276,0.224-0.5,0.5-0.5h4.22
	c0.276,0,0.5,0.224,0.5,0.5v2.11c0,0.276-0.224,0.5-0.5,0.5h-0.08l2.56,6.65h0.9c0.276,0,0.5,0.224,0.5,0.5v2.11
	C63.981,23.291,63.78,23.509,63.52,23.53z M59.8,22.53h3.22v-1.11h-0.74c-0.208,0.001-0.395-0.126-0.47-0.32l-3-7.65
	c-0.099-0.258,0.029-0.547,0.286-0.646c0.059-0.023,0.121-0.034,0.184-0.034h0.3v-1.11h-3.19v1.11h0.31
	c0.276-0.002,0.502,0.22,0.504,0.496c0,0.063-0.011,0.125-0.034,0.184l-3,7.65c-0.075,0.194-0.262,0.321-0.47,0.32h-0.72v1.11h3.22
	v-1.11h-0.44c-0.276,0.002-0.502-0.22-0.504-0.496c0-0.063,0.011-0.125,0.034-0.184l0.52-1.33c0.075-0.194,0.262-0.321,0.47-0.32
	h3.43c0.208-0.001,0.395,0.126,0.47,0.32l0.52,1.33c0.099,0.258-0.029,0.547-0.286,0.646c-0.059,0.023-0.121,0.034-0.184,0.034H59.8
	V22.53z M58.87,17.97h-1.78c-0.276,0.018-0.514-0.19-0.532-0.466c-0.004-0.062,0.003-0.125,0.022-0.184l0.89-2.29
	c0.129-0.257,0.441-0.361,0.698-0.232c0.1,0.05,0.182,0.132,0.232,0.232l0.93,2.29c0.099,0.258-0.029,0.547-0.286,0.646
	C58.985,17.989,58.923,18,58.86,18L58.87,17.97z M57.87,16.97h0.31l-0.16-0.4L57.87,16.97z"/>
<path style="fill:#19BC9C;" d="M58,23.91c-0.276,0-0.5-0.224-0.5-0.5v-2.52c0-0.276,0.224-0.5,0.5-0.5c0.276,0,0.5,0.224,0.5,0.5
	v2.51c0.006,0.276-0.214,0.504-0.49,0.51C58.007,23.91,58.003,23.91,58,23.91z"/>
<path style="fill:#109995;" d="M48.3,24.69c-0.104,0.001-0.205-0.031-0.29-0.09c0,0-0.22-0.16-0.6-0.47
	c-2.082-1.699-3.673-3.922-4.61-6.44c-0.69-1.891-1.009-3.898-0.94-5.91c0.02-0.909,0.114-1.816,0.28-2.71
	c0.044-0.267,0.297-0.447,0.564-0.403c0.005,0.001,0.011,0.002,0.016,0.003c0.27,0.051,0.449,0.31,0.4,0.58
	c-0.159,0.841-0.249,1.694-0.27,2.55c-0.063,1.879,0.236,3.753,0.88,5.52c0.875,2.346,2.359,4.417,4.3,6
	c0.34,0.28,0.54,0.42,0.55,0.43c0.226,0.158,0.282,0.47,0.124,0.696c-0.094,0.135-0.249,0.215-0.414,0.214L48.3,24.69z"/>
<path style="fill:#19BC9C;" d="M38.97,10.72c0.261,0.394,0.674,0.661,1.14,0.74c0.461-0.035,0.893-0.233,1.22-0.56
	c-0.271-0.374-0.669-0.637-1.12-0.74c-0.31-0.021-0.618,0.068-0.87,0.25C39.205,10.498,39.08,10.602,38.97,10.72z"/>
<path style="fill:#109995;" d="M40.11,11.96h-0.08c-0.608-0.113-1.142-0.476-1.47-1c-0.13-0.193-0.109-0.45,0.05-0.62
	c0.14-0.149,0.298-0.28,0.47-0.39c0.339-0.245,0.753-0.362,1.17-0.33c0.599,0.118,1.131,0.457,1.49,0.95
	c0.146,0.199,0.125,0.475-0.05,0.65c-0.411,0.414-0.958,0.666-1.54,0.71L40.11,11.96z M39.7,10.77
	c0.129,0.091,0.276,0.156,0.43,0.19c0.145-0.018,0.287-0.059,0.42-0.12c-0.138-0.089-0.29-0.153-0.45-0.19
	C40,10.61,39.84,10.69,39.7,10.77z"/>
<path style="fill:#19BC9C;" d="M38.97,13.9c0.319,0.355,0.773,0.558,1.25,0.56c0.449-0.112,0.843-0.382,1.11-0.76
	c-0.115-0.107-0.238-0.204-0.37-0.29c-0.25-0.174-0.546-0.268-0.85-0.27c-0.307,0.032-0.593,0.17-0.81,0.39
	C39.174,13.638,39.063,13.763,38.97,13.9z"/>
<path style="fill:#109995;" d="M40.22,14.96L40.22,14.96c-0.624,0.003-1.22-0.258-1.64-0.72c-0.138-0.18-0.138-0.43,0-0.61
	c0.113-0.173,0.247-0.331,0.4-0.47c0.298-0.291,0.686-0.471,1.1-0.51c0.425-0.009,0.842,0.117,1.19,0.36
	c0.149,0.098,0.29,0.208,0.42,0.33c0.181,0.169,0.211,0.446,0.07,0.65c-0.327,0.49-0.821,0.846-1.39,1L40.22,14.96z M39.7,13.83
	c0.143,0.073,0.3,0.117,0.46,0.13c0.146-0.044,0.285-0.112,0.41-0.2c-0.144-0.078-0.306-0.119-0.47-0.12
	c-0.149,0.029-0.287,0.098-0.4,0.2V13.83z"/>
<path style="fill:#19BC9C;" d="M39.53,17.1c0.377,0.293,0.86,0.413,1.33,0.33c0.438-0.183,0.794-0.522,1-0.95
	c-0.13-0.085-0.267-0.158-0.41-0.22c-0.277-0.133-0.587-0.178-0.89-0.13c-0.296,0.084-0.554,0.267-0.73,0.52
	C39.709,16.785,39.608,16.937,39.53,17.1z"/>
<path style="fill:#109995;" d="M40.58,17.96c-0.49,0-0.966-0.166-1.35-0.47c-0.178-0.14-0.239-0.382-0.15-0.59
	c0.085-0.197,0.196-0.382,0.33-0.55c0.244-0.338,0.597-0.581,1-0.69c0.397-0.063,0.804-0.007,1.17,0.16
	c0.163,0.07,0.321,0.154,0.47,0.25c0.208,0.136,0.285,0.404,0.18,0.63c-0.248,0.529-0.677,0.951-1.21,1.19H40.9
	C40.795,17.921,40.688,17.945,40.58,17.96z M40.24,16.91c0.161,0.036,0.329,0.036,0.49,0c0.14-0.069,0.269-0.16,0.38-0.27
	c-0.161-0.041-0.329-0.041-0.49,0c-0.157,0.048-0.296,0.142-0.4,0.27H40.24z"/>
<path style="fill:#19BC9C;" d="M40.66,20.17c0.412,0.211,0.893,0.243,1.33,0.09c0.382-0.265,0.655-0.659,0.77-1.11
	c-0.417-0.191-0.889-0.227-1.33-0.1C40.85,19.32,40.66,20.17,40.66,20.17z"/>
<path style="fill:#109995;" d="M41.43,20.86c-0.348,0.001-0.69-0.082-1-0.24c-0.201-0.103-0.308-0.329-0.26-0.55
	c0.125-0.62,0.511-1.156,1.06-1.47c0.572-0.183,1.192-0.147,1.74,0.1c0.222,0.099,0.34,0.344,0.28,0.58
	c-0.153,0.57-0.508,1.064-1,1.39l-0.12,0.06C41.905,20.811,41.669,20.855,41.43,20.86z M41.31,19.86c0.152,0.029,0.308,0.029,0.46,0
	c0.12-0.093,0.225-0.204,0.31-0.33c-0.168-0.013-0.338,0.004-0.5,0.05c-0.113,0.063-0.207,0.157-0.27,0.27V19.86z"/>
<path style="fill:#19BC9C;" d="M42.33,22.98c0.159,0.048,0.324,0.075,0.49,0.08c0.309,0.024,0.617-0.061,0.87-0.24
	c0.231-0.203,0.395-0.471,0.47-0.77c0.042-0.151,0.072-0.304,0.09-0.46c-0.447-0.109-0.918-0.056-1.33,0.15
	C42.557,22.051,42.342,22.502,42.33,22.98z"/>
<path style="fill:#109995;" d="M42.91,23.56h-0.14c-0.204-0.006-0.405-0.04-0.6-0.1c-0.213-0.067-0.356-0.267-0.35-0.49
	c0.003-0.634,0.28-1.236,0.76-1.65l0.1-0.07c0.521-0.257,1.116-0.321,1.68-0.18c0.249,0.059,0.413,0.296,0.38,0.55
	c-0.022,0.183-0.059,0.363-0.11,0.54c-0.102,0.388-0.318,0.736-0.62,1C43.695,23.407,43.31,23.547,42.91,23.56z M43.19,22.16
	c-0.12,0.113-0.215,0.249-0.28,0.4c0.172,0,0.339-0.052,0.48-0.15c0.103-0.105,0.181-0.231,0.23-0.37
	C43.471,22.057,43.326,22.098,43.19,22.16z"/>
<path style="fill:#19BC9C;" d="M44.43,25.44c0.48,0.065,0.965-0.081,1.33-0.4c0.263-0.391,0.38-0.862,0.33-1.33
	c-0.156-0.013-0.314-0.013-0.47,0c-0.306,0.03-0.595,0.152-0.83,0.35c-0.213,0.226-0.341,0.52-0.36,0.83
	C44.403,25.072,44.403,25.258,44.43,25.44z"/>
<path style="fill:#109995;" d="M44.66,25.95h-0.29c-0.224-0.03-0.4-0.206-0.43-0.43c-0.035-0.232-0.035-0.468,0-0.7
	c0.034-0.409,0.207-0.793,0.49-1.09c0.317-0.293,0.721-0.475,1.15-0.52c0.186-0.017,0.374-0.017,0.56,0
	c0.239,0.018,0.432,0.202,0.46,0.44c0.068,0.589-0.082,1.183-0.42,1.67l-0.08,0.09C45.702,25.759,45.19,25.951,44.66,25.95z
	 M45.58,24.22c-0.17,0.032-0.328,0.108-0.46,0.22c-0.112,0.136-0.179,0.304-0.19,0.48l0,0c0.164-0.041,0.317-0.116,0.45-0.22
	C45.475,24.553,45.543,24.391,45.58,24.22z"/>
<path style="fill:#19BC9C;" d="M45.82,11.24c-0.352,0.257-0.774,0.4-1.21,0.41c-0.443-0.047-0.854-0.257-1.15-0.59
	c0.345-0.284,0.783-0.43,1.23-0.41C45.118,10.725,45.513,10.932,45.82,11.24z"/>
<path style="fill:#109995;" d="M44.58,12.14c-0.588-0.049-1.136-0.32-1.53-0.76c-0.183-0.207-0.164-0.523,0.043-0.706
	c0.005-0.005,0.011-0.01,0.017-0.014c0.44-0.356,0.994-0.54,1.56-0.52c0.553,0.084,1.065,0.344,1.46,0.74
	c0.196,0.195,0.197,0.511,0.002,0.707c-0.019,0.019-0.04,0.037-0.062,0.053C45.636,11.955,45.116,12.129,44.58,12.14z M44.58,11.14
	L44.58,11.14z"/>
<path style="fill:#19BC9C;" d="M45.88,13.84c-0.096,0.098-0.199,0.189-0.31,0.27c-0.23,0.184-0.501,0.311-0.79,0.37
	c-0.296,0.043-0.597,0.001-0.87-0.12c-0.135-0.054-0.262-0.125-0.38-0.21c0.09-0.116,0.194-0.22,0.31-0.31
	c0.234-0.184,0.514-0.298,0.81-0.33c0.291-0.017,0.582,0.034,0.85,0.15C45.631,13.709,45.759,13.77,45.88,13.84z"/>
<path style="fill:#109995;" d="M44.58,14.99c-0.29,0-0.576-0.062-0.84-0.18c-0.167-0.071-0.325-0.161-0.47-0.27
	c-0.225-0.16-0.277-0.472-0.117-0.697c0.006-0.008,0.011-0.015,0.017-0.023c0.117-0.146,0.251-0.277,0.4-0.39
	c0.293-0.228,0.642-0.373,1.01-0.42c0.38-0.027,0.761,0.038,1.11,0.19c0.149,0.058,0.292,0.129,0.43,0.21
	c0.237,0.142,0.314,0.449,0.173,0.686c-0.02,0.034-0.045,0.066-0.073,0.094c-0.117,0.12-0.244,0.231-0.38,0.33
	c-0.294,0.226-0.636,0.38-1,0.45L44.58,14.99z"/>
<path style="fill:#19BC9C;" d="M46.48,16.32c-0.076,0.116-0.159,0.226-0.25,0.33c-0.18,0.225-0.41,0.406-0.67,0.53
	c-0.277,0.108-0.578,0.136-0.87,0.08c-0.141-0.022-0.279-0.062-0.41-0.12c0.066-0.129,0.146-0.25,0.24-0.36
	c0.185-0.23,0.431-0.403,0.71-0.5c0.286-0.067,0.584-0.067,0.87,0C46.228,16.283,46.355,16.297,46.48,16.32z"/>
<path style="fill:#109995;" d="M44.99,17.75c-0.309-0.005-0.615-0.07-0.9-0.19c-0.251-0.114-0.363-0.411-0.249-0.662
	c0.003-0.006,0.006-0.012,0.009-0.018c0.085-0.165,0.189-0.32,0.31-0.46c0.243-0.299,0.565-0.525,0.93-0.65
	c0.364-0.105,0.747-0.126,1.12-0.06c0.149,0.021,0.296,0.055,0.44,0.1c0.264,0.082,0.411,0.363,0.328,0.626
	c-0.014,0.044-0.033,0.085-0.058,0.124c-0.088,0.133-0.185,0.26-0.29,0.38c-0.225,0.276-0.508,0.498-0.83,0.65
	C45.543,17.695,45.268,17.75,44.99,17.75z"/>
<path style="fill:#19BC9C;" d="M47.58,18.53c-0.046,0.131-0.103,0.258-0.17,0.38c-0.129,0.263-0.317,0.493-0.55,0.67
	c-0.246,0.166-0.534,0.259-0.83,0.27c-0.143,0.018-0.287,0.018-0.43,0c0.034-0.142,0.084-0.28,0.15-0.41
	c0.125-0.274,0.327-0.507,0.58-0.67c0.255-0.14,0.539-0.218,0.83-0.23C47.299,18.525,47.44,18.521,47.58,18.53z"/>
<path style="fill:#109995;" d="M45.85,20.32h-0.27c-0.274-0.031-0.471-0.279-0.44-0.554c0.002-0.019,0.005-0.038,0.01-0.056
	c0.043-0.18,0.106-0.355,0.19-0.52c0.167-0.353,0.43-0.651,0.76-0.86c0.331-0.186,0.701-0.292,1.08-0.31
	c0.156-0.013,0.314-0.013,0.47,0c0.276,0.013,0.489,0.247,0.476,0.523c-0.002,0.047-0.011,0.093-0.026,0.137
	c-0.054,0.159-0.121,0.312-0.2,0.46c-0.16,0.325-0.393,0.609-0.68,0.83c-0.339,0.223-0.734,0.345-1.14,0.35H45.85z"/>
<path style="fill:#19BC9C;" d="M49.22,20.48c-0.036,0.43-0.196,0.839-0.46,1.18c-0.315,0.315-0.736,0.5-1.18,0.52
	c-0.002-0.145,0.015-0.289,0.05-0.43c0.064-0.291,0.21-0.558,0.42-0.77c0.219-0.193,0.479-0.333,0.76-0.41
	C48.944,20.53,49.081,20.5,49.22,20.48z"/>
<path style="fill:#109995;" d="M47.58,22.68c-0.276,0-0.5-0.224-0.5-0.5c-0.001-0.189,0.022-0.377,0.07-0.56
	c0.085-0.378,0.276-0.725,0.55-1c0.286-0.257,0.629-0.442,1-0.54c0.154-0.044,0.311-0.078,0.47-0.1
	c0.273-0.04,0.527,0.149,0.567,0.423c0.006,0.039,0.007,0.078,0.003,0.117c-0.044,0.524-0.238,1.024-0.56,1.44
	c-0.407,0.426-0.961,0.681-1.55,0.71L47.58,22.68z"/>
<path style="fill:#109995;" d="M67.7,24.69c-0.276,0.002-0.502-0.22-0.504-0.496c-0.001-0.165,0.079-0.32,0.214-0.414
	c0,0,0.21-0.15,0.55-0.43c1.944-1.581,3.432-3.652,4.31-6c0.646-1.77,0.945-3.647,0.88-5.53c-0.021-0.859-0.111-1.715-0.27-2.56
	c-0.05-0.276,0.134-0.54,0.41-0.59c0.276-0.05,0.54,0.134,0.59,0.41c0.166,0.894,0.26,1.801,0.28,2.71
	c0.068,2.009-0.251,4.012-0.94,5.9c-0.945,2.522-2.547,4.745-4.64,6.44c-0.38,0.31-0.6,0.47-0.6,0.47
	C67.898,24.657,67.8,24.689,67.7,24.69z"/>
<path style="fill:#19BC9C;" d="M77.03,10.72c-0.261,0.394-0.674,0.661-1.14,0.74c-0.461-0.035-0.893-0.233-1.22-0.56
	c0.271-0.374,0.669-0.637,1.12-0.74c0.31-0.021,0.618,0.068,0.87,0.25C76.795,10.498,76.92,10.602,77.03,10.72z"/>
<path style="fill:#109995;" d="M75.89,11.96L75.89,11.96c-0.582-0.044-1.129-0.296-1.54-0.71c-0.175-0.175-0.196-0.451-0.05-0.65
	c0.342-0.471,0.843-0.801,1.41-0.93c0.449-0.043,0.899,0.073,1.27,0.33c0.165,0.108,0.316,0.236,0.45,0.38
	c0.159,0.17,0.18,0.427,0.05,0.62c-0.328,0.524-0.862,0.887-1.47,1L75.89,11.96z M75.44,10.84c0.133,0.061,0.275,0.102,0.42,0.12
	c0.154-0.034,0.301-0.099,0.43-0.19c-0.143-0.081-0.306-0.119-0.47-0.11c-0.133,0.039-0.258,0.099-0.37,0.18L75.44,10.84z"/>
<path style="fill:#19BC9C;" d="M77.02,13.9c-0.319,0.355-0.773,0.558-1.25,0.56c-0.449-0.112-0.843-0.382-1.11-0.76
	c0.115-0.107,0.238-0.204,0.37-0.29c0.25-0.174,0.546-0.268,0.85-0.27c0.307,0.032,0.593,0.17,0.81,0.39
	C76.816,13.638,76.927,13.763,77.02,13.9z"/>
<path style="fill:#109995;" d="M75.77,14.96h-0.12c-0.569-0.154-1.063-0.51-1.39-1c-0.141-0.204-0.111-0.481,0.07-0.65
	c0.136-0.126,0.284-0.24,0.44-0.34c0.33-0.226,0.72-0.348,1.12-0.35c0.441,0.032,0.855,0.22,1.17,0.53
	c0.145,0.133,0.273,0.285,0.38,0.45c0.138,0.18,0.138,0.43,0,0.61c-0.411,0.458-0.995,0.722-1.61,0.73L75.77,14.96z M75.42,13.76
	c0.125,0.088,0.264,0.155,0.41,0.2c0.16-0.009,0.316-0.05,0.46-0.12c-0.129-0.112-0.29-0.182-0.46-0.2
	c-0.14,0.011-0.277,0.052-0.4,0.12L75.42,13.76z"/>
<path style="fill:#19BC9C;" d="M76.47,17.1c-0.377,0.293-0.86,0.413-1.33,0.33c-0.438-0.183-0.794-0.522-1-0.95
	c0.13-0.085,0.267-0.158,0.41-0.22c0.277-0.133,0.587-0.178,0.89-0.13c0.296,0.084,0.554,0.267,0.73,0.52
	C76.291,16.785,76.392,16.937,76.47,17.1z"/>
<path style="fill:#109995;" d="M75.43,17.96c-0.126,0.011-0.254,0.011-0.38,0h-0.12c-0.533-0.239-0.962-0.661-1.21-1.19
	c-0.105-0.226-0.028-0.494,0.18-0.63c0.156-0.1,0.32-0.187,0.49-0.26c0.363-0.198,0.779-0.278,1.19-0.23
	c0.429,0.109,0.805,0.368,1.06,0.73c0.127,0.162,0.231,0.34,0.31,0.53c0.089,0.208,0.028,0.45-0.15,0.59
	C76.409,17.805,75.926,17.967,75.43,17.96z M75.28,16.96c0.161,0.035,0.328,0.035,0.49,0c-0.11-0.139-0.26-0.24-0.43-0.29
	c-0.145-0.015-0.292,0.002-0.43,0.05c0.111,0.095,0.236,0.173,0.37,0.23V16.96z"/>
<path style="fill:#19BC9C;" d="M75.34,20.17c-0.412,0.211-0.893,0.243-1.33,0.09c-0.382-0.265-0.655-0.659-0.77-1.11
	c0.417-0.191,0.889-0.227,1.33-0.1C75.15,19.32,75.34,20.17,75.34,20.17z"/>
<path style="fill:#109995;" d="M74.58,20.86c-0.248,0.001-0.495-0.039-0.73-0.12l-0.12-0.06c-0.492-0.326-0.847-0.82-1-1.39
	c-0.06-0.236,0.058-0.481,0.28-0.58c0.528-0.239,1.124-0.282,1.68-0.12c0.576,0.306,0.986,0.852,1.12,1.49
	c0.048,0.221-0.059,0.447-0.26,0.55C75.249,20.78,74.917,20.859,74.58,20.86z M74.25,19.86c0.149,0.027,0.301,0.027,0.45,0
	c-0.066-0.143-0.174-0.261-0.31-0.34c-0.149-0.026-0.301-0.026-0.45,0c0.085,0.111,0.186,0.209,0.3,0.29L74.25,19.86z"/>
<path style="fill:#19BC9C;" d="M73.68,22.98c-0.159,0.048-0.324,0.075-0.49,0.08c-0.309,0.024-0.617-0.061-0.87-0.24
	c-0.231-0.203-0.395-0.471-0.47-0.77c-0.042-0.151-0.072-0.304-0.09-0.46c0.447-0.109,0.918-0.056,1.33,0.15
	C73.453,22.051,73.668,22.502,73.68,22.98z"/>
<path style="fill:#109995;" d="M73.07,23.56c-0.358-0.01-0.706-0.125-1-0.33c-0.327-0.274-0.559-0.645-0.66-1.06
	c-0.047-0.17-0.081-0.344-0.1-0.52c-0.027-0.25,0.136-0.481,0.38-0.54c0.564-0.142,1.159-0.078,1.68,0.18l0.1,0.07
	c0.47,0.405,0.746,0.99,0.76,1.61c0.006,0.223-0.137,0.423-0.35,0.49c-0.201,0.061-0.41,0.094-0.62,0.1H73.07z M72.37,22.04
	c0.059,0.154,0.155,0.292,0.28,0.4c0.133,0.08,0.285,0.122,0.44,0.12l0,0c-0.065-0.151-0.16-0.287-0.28-0.4
	C72.671,22.097,72.522,22.057,72.37,22.04z"/>
<path style="fill:#19BC9C;" d="M71.58,25.44c-0.48,0.065-0.965-0.081-1.33-0.4c-0.263-0.391-0.38-0.862-0.33-1.33
	c0.156-0.013,0.314-0.013,0.47,0c0.306,0.03,0.595,0.152,0.83,0.35c0.213,0.226,0.341,0.52,0.36,0.83
	C71.607,25.072,71.607,25.258,71.58,25.44z"/>
<path style="fill:#109995;" d="M71.32,25.95c-0.53,0.001-1.042-0.191-1.44-0.54l-0.08-0.09c-0.335-0.488-0.481-1.082-0.41-1.67
	c0.028-0.238,0.221-0.422,0.46-0.44c0.183-0.016,0.367-0.016,0.55,0c0.41,0.039,0.797,0.203,1.11,0.47
	c0.31,0.315,0.498,0.729,0.53,1.17c0.032,0.215,0.032,0.435,0,0.65c-0.03,0.224-0.206,0.4-0.43,0.43L71.32,25.95z M71.55,25.43
	L71.55,25.43z M70.55,24.69c0.133,0.105,0.286,0.18,0.45,0.22c-0.016-0.194-0.097-0.377-0.23-0.52
	c-0.124-0.092-0.268-0.153-0.42-0.18c0.045,0.176,0.123,0.343,0.23,0.49L70.55,24.69z"/>
<path style="fill:#19BC9C;" d="M70.18,11.24c0.352,0.257,0.774,0.4,1.21,0.41c0.443-0.047,0.854-0.257,1.15-0.59
	c-0.345-0.284-0.783-0.43-1.23-0.41C70.882,10.725,70.487,10.932,70.18,11.24z"/>
<path style="fill:#109995;" d="M71.44,12.14c-0.556,0-1.099-0.175-1.55-0.5c-0.224-0.162-0.274-0.474-0.113-0.698
	c0.016-0.022,0.034-0.043,0.053-0.062c0.377-0.381,0.862-0.636,1.39-0.73c0.588-0.038,1.169,0.143,1.63,0.51
	c0.215,0.174,0.248,0.489,0.074,0.703c-0.005,0.006-0.009,0.011-0.014,0.017C72.532,11.808,72.008,12.079,71.44,12.14z M71.35,11.14
	L71.35,11.14z"/>
<path style="fill:#19BC9C;" d="M70.12,13.84c0.096,0.098,0.199,0.189,0.31,0.27c0.23,0.184,0.501,0.311,0.79,0.37
	c0.296,0.029,0.594-0.027,0.86-0.16c0.135-0.054,0.262-0.125,0.38-0.21c-0.09-0.116-0.194-0.22-0.31-0.31
	c-0.234-0.184-0.514-0.298-0.81-0.33c-0.291-0.017-0.582,0.034-0.85,0.15C70.361,13.683,70.237,13.756,70.12,13.84z"/>
<path style="fill:#109995;" d="M71.44,14.99h-0.3c-0.365-0.077-0.707-0.238-1-0.47c-0.128-0.097-0.249-0.204-0.36-0.32
	c-0.194-0.197-0.191-0.513,0.006-0.707c0.028-0.028,0.06-0.052,0.094-0.073c0.144-0.085,0.294-0.159,0.45-0.22
	c0.333-0.147,0.697-0.212,1.06-0.19c0.398,0.04,0.776,0.193,1.09,0.44c0.145,0.114,0.276,0.245,0.39,0.39
	c0.175,0.213,0.144,0.528-0.069,0.704c-0.007,0.006-0.014,0.011-0.021,0.016c-0.149,0.109-0.31,0.2-0.48,0.27
	C72.029,14.946,71.735,15.001,71.44,14.99z"/>
<path style="fill:#19BC9C;" d="M69.52,16.32c0.076,0.116,0.159,0.226,0.25,0.33c0.18,0.225,0.41,0.406,0.67,0.53
	c0.277,0.108,0.578,0.136,0.87,0.08c0.141-0.022,0.279-0.062,0.41-0.12c-0.066-0.129-0.146-0.25-0.24-0.36
	c-0.185-0.23-0.431-0.403-0.71-0.5c-0.286-0.067-0.584-0.067-0.87,0C69.772,16.283,69.645,16.297,69.52,16.32z"/>
<path style="fill:#109995;" d="M71,17.75c-0.26,0.001-0.518-0.047-0.76-0.14c-0.338-0.157-0.636-0.39-0.87-0.68
	c-0.102-0.117-0.195-0.24-0.28-0.37c-0.151-0.231-0.085-0.541,0.146-0.692c0.038-0.025,0.08-0.045,0.124-0.058
	c0.147-0.049,0.297-0.085,0.45-0.11c0.356-0.063,0.722-0.046,1.07,0.05c0.392,0.121,0.739,0.354,1,0.67
	c0.118,0.138,0.218,0.289,0.3,0.45c0.124,0.247,0.025,0.547-0.222,0.671c-0.006,0.003-0.012,0.006-0.018,0.009
	c-0.172,0.077-0.354,0.131-0.54,0.16C71.268,17.737,71.134,17.75,71,17.75z"/>
<path style="fill:#19BC9C;" d="M68.38,18.53c0.046,0.131,0.103,0.258,0.17,0.38c0.129,0.263,0.317,0.493,0.55,0.67
	c0.246,0.166,0.534,0.259,0.83,0.27c0.143,0.018,0.287,0.018,0.43,0c-0.034-0.142-0.084-0.28-0.15-0.41
	c-0.125-0.274-0.327-0.507-0.58-0.67c-0.255-0.14-0.539-0.218-0.83-0.23C68.661,18.525,68.52,18.521,68.38,18.53z"/>
<path style="fill:#109995;" d="M70.15,20.32h-0.28c-0.377-0.019-0.741-0.143-1.05-0.36c-0.304-0.226-0.551-0.521-0.72-0.86
	c-0.075-0.141-0.139-0.289-0.19-0.44c-0.089-0.262,0.051-0.545,0.313-0.634c0.044-0.015,0.09-0.024,0.137-0.026
	c0.166-0.014,0.334-0.014,0.5,0c0.351,0.021,0.693,0.12,1,0.29c0.344,0.214,0.618,0.523,0.79,0.89c0.079,0.159,0.14,0.327,0.18,0.5
	c0.063,0.269-0.105,0.538-0.374,0.6c-0.019,0.004-0.037,0.008-0.056,0.01L70.15,20.32z"/>
<path style="fill:#19BC9C;" d="M66.77,20.48c0.036,0.43,0.196,0.839,0.46,1.18c0.315,0.315,0.735,0.5,1.18,0.52
	c0.002-0.145-0.015-0.289-0.05-0.43c-0.065-0.291-0.21-0.558-0.42-0.77c-0.219-0.193-0.479-0.333-0.76-0.41
	C67.046,20.53,66.909,20.5,66.77,20.48z"/>
<path style="fill:#109995;" d="M68.41,22.68L68.41,22.68c-0.57-0.026-1.109-0.265-1.51-0.67c-0.344-0.426-0.553-0.945-0.6-1.49
	c-0.025-0.275,0.178-0.518,0.453-0.543c0.039-0.004,0.078-0.002,0.117,0.003c0.162,0.022,0.323,0.055,0.48,0.1
	c0.37,0.091,0.713,0.269,1,0.52c0.283,0.273,0.484,0.619,0.58,1c0.047,0.18,0.071,0.364,0.07,0.55c0,0.276-0.224,0.5-0.5,0.5
	L68.41,22.68z"/>
<path style="fill:#A1C2D8;" d="M69.09,35.32h-4.51c-0.276,0-0.5-0.224-0.5-0.5s0.224-0.5,0.5-0.5h4.51c0.276,0,0.5,0.224,0.5,0.5
	S69.366,35.32,69.09,35.32z"/>
<path style="fill:#A1C2D8;" d="M61.76,35.32h-5.12c-0.276,0-0.5-0.224-0.5-0.5s0.224-0.5,0.5-0.5h5.12c0.276,0,0.5,0.224,0.5,0.5
	S62.036,35.32,61.76,35.32z"/>
<path style="fill:#A1C2D8;" d="M53.82,35.32H47.1c-0.276,0-0.5-0.224-0.5-0.5s0.224-0.5,0.5-0.5h6.72c0.276,0,0.5,0.224,0.5,0.5
	S54.096,35.32,53.82,35.32z"/>
<path style="fill:#A1C2D8;" d="M72.78,32.88H60.01c-0.276,0-0.5-0.224-0.5-0.5s0.224-0.5,0.5-0.5h12.77c0.276,0,0.5,0.224,0.5,0.5
	S73.056,32.88,72.78,32.88z"/>
<path style="fill:#A1C2D8;" d="M58.37,32.88h-9.42c-0.276,0-0.5-0.224-0.5-0.5s0.224-0.5,0.5-0.5h9.42c0.276,0,0.5,0.224,0.5,0.5
	S58.646,32.88,58.37,32.88z"/>
<path style="fill:#A1C2D8;" d="M47.1,32.88h-3.88c-0.276,0-0.5-0.224-0.5-0.5s0.224-0.5,0.5-0.5h3.88c0.276,0,0.5,0.224,0.5,0.5
	S47.376,32.88,47.1,32.88z"/>
<path style="fill:#A1C2D8;" d="M69.09,30.4h-4.51c-0.276,0-0.5-0.224-0.5-0.5s0.224-0.5,0.5-0.5h4.51c0.276,0,0.5,0.224,0.5,0.5
	S69.366,30.4,69.09,30.4z"/>
<path style="fill:#A1C2D8;" d="M61.76,30.4h-5.12c-0.276,0-0.5-0.224-0.5-0.5s0.224-0.5,0.5-0.5h5.12c0.276,0,0.5,0.224,0.5,0.5
	S62.036,30.4,61.76,30.4z"/>
<path style="fill:#A1C2D8;" d="M53.82,30.4H47.1c-0.276,0-0.5-0.224-0.5-0.5s0.224-0.5,0.5-0.5h6.72c0.276,0,0.5,0.224,0.5,0.5
	S54.096,30.4,53.82,30.4z"/>
<path style="fill:#A1C2D8;" d="M89.96,54.32H26.04c-0.276,0-0.5-0.224-0.5-0.5V0.5c0-0.276,0.224-0.5,0.5-0.5h63.92
	c0.276,0,0.5,0.224,0.5,0.5v53.32C90.46,54.096,90.236,54.32,89.96,54.32z M26.58,53.32h62.88V1H26.58V53.32z M85.99,50.32H30.04
	c-0.276,0-0.5-0.224-0.5-0.5V4.5c0-0.276,0.224-0.5,0.5-0.5h55.92c0.276,0,0.5,0.224,0.5,0.5v45.32c0,0.276-0.224,0.5-0.5,0.5H85.99
	z M30.58,49.32h54.88V5H30.58V49.32z"/>
<path style="fill:#A1C2D8;" d="M30.04,5c-0.132-0.002-0.258-0.056-0.35-0.15l-4-4c-0.196-0.196-0.196-0.514,0-0.71
	c0.196-0.196,0.514-0.196,0.71,0l4,4c0.193,0.197,0.19,0.514-0.007,0.707c-0.092,0.09-0.215,0.141-0.343,0.143L30.04,5z"/>
<path style="fill:#A1C2D8;" d="M85.96,5c-0.276-0.004-0.497-0.231-0.493-0.507c0.002-0.128,0.053-0.251,0.143-0.343l4-4
	c0.196-0.196,0.514-0.196,0.71,0c0.196,0.196,0.196,0.514,0,0.71l-4,4C86.224,4.953,86.094,5.003,85.96,5z"/>
<path style="fill:#A1C2D8;" d="M89.96,54.32c-0.132-0.002-0.258-0.056-0.35-0.15l-4-4c-0.196-0.196-0.196-0.514,0-0.71
	s0.514-0.196,0.71,0l0,0l4,4c0.193,0.197,0.19,0.514-0.007,0.707c-0.092,0.09-0.215,0.141-0.343,0.143L89.96,54.32z"/>
<path style="fill:#A1C2D8;" d="M26.04,54.32c-0.276-0.004-0.497-0.231-0.493-0.507c0.002-0.128,0.053-0.251,0.143-0.343l4-4
	c0.196-0.196,0.514-0.196,0.71,0s0.196,0.514,0,0.71l-4,4C26.304,54.273,26.174,54.323,26.04,54.32z"/>
<path style="fill:#A1C2D8;" d="M37.47,46.69c-1.71,0-3.11-1.68-3.11-3.74s1.39-3.74,3.11-3.74s3.11,1.68,3.11,3.74
	S39.18,46.69,37.47,46.69z M37.47,40.21c-1.16,0-2.11,1.23-2.11,2.74s0.94,2.74,2.11,2.74c1.17,0,2.11-1.23,2.11-2.74
	S38.58,40.21,37.47,40.21z"/>
<path style="fill:#A1C2D8;" d="M38.97,43.92h-3c-0.276,0-0.5-0.224-0.5-0.5s0.224-0.5,0.5-0.5h3c0.276,0,0.5,0.224,0.5,0.5
	S39.246,43.92,38.97,43.92z"/>
<path style="fill:#A1C2D8;" d="M38.78,42.75c-0.276,0-0.5-0.224-0.5-0.5v-0.33c0-0.276,0.224-0.5,0.5-0.5c0.276,0,0.5,0.224,0.5,0.5
	v0.33C39.28,42.526,39.056,42.75,38.78,42.75z"/>
<path style="fill:#A1C2D8;" d="M36.11,42.75c-0.276,0-0.5-0.224-0.5-0.5v-0.33c0-0.276,0.224-0.5,0.5-0.5c0.276,0,0.5,0.224,0.5,0.5
	v0.33C36.61,42.526,36.386,42.75,36.11,42.75z"/>
<path style="fill:#A1C2D8;" d="M37.45,42.75c-0.276,0-0.5-0.224-0.5-0.5v-1.13c0-0.276,0.224-0.5,0.5-0.5c0.276,0,0.5,0.224,0.5,0.5
	v1.13C37.95,42.526,37.726,42.75,37.45,42.75z"/>
<path style="fill:#A1C2D8;" d="M38.03,45.1h-1.16c-0.276,0-0.5-0.224-0.5-0.5s0.224-0.5,0.5-0.5h1.16c0.276,0,0.5,0.224,0.5,0.5
	S38.306,45.1,38.03,45.1z"/>
<path style="fill:#A1C2D8;" d="M42.58,41.88h-0.66c-0.276,0-0.5-0.224-0.5-0.5s0.224-0.5,0.5-0.5h0.66c0.276,0,0.5,0.224,0.5,0.5
	S42.856,41.88,42.58,41.88z"/>
<path style="fill:#A1C2D8;" d="M47.41,41.88h-3.44c-0.276,0-0.5-0.224-0.5-0.5s0.224-0.5,0.5-0.5h3.44c0.276,0,0.5,0.224,0.5,0.5
	S47.686,41.88,47.41,41.88z"/>
<path style="fill:#A1C2D8;" d="M44.17,43.49h-2.32c-0.276,0-0.5-0.224-0.5-0.5s0.224-0.5,0.5-0.5h2.33c0.276,0,0.5,0.224,0.5,0.5
	s-0.224,0.5-0.5,0.5H44.17z"/>
<path style="fill:#A1C2D8;" d="M48.14,43.49H45.5c-0.276,0-0.5-0.224-0.5-0.5s0.224-0.5,0.5-0.5h2.63c0.276,0,0.5,0.224,0.5,0.5
	s-0.224,0.5-0.5,0.5H48.14z"/>
<path style="fill:#A1C2D8;" d="M45.63,45.03h-3.84c-0.276,0-0.5-0.224-0.5-0.5s0.224-0.5,0.5-0.5h3.84c0.276,0,0.5,0.224,0.5,0.5
	S45.906,45.03,45.63,45.03z"/>
<path style="fill:#A1C2D8;" d="M59.97,42.52h-3.94c-0.276,0-0.5-0.224-0.5-0.5s0.224-0.5,0.5-0.5h3.93c0.276,0,0.5,0.224,0.5,0.5
	s-0.224,0.5-0.5,0.5H59.97z"/>
<path style="fill:#A1C2D8;" d="M62.05,44.86h-8.1c-0.276,0-0.5-0.224-0.5-0.5s0.224-0.5,0.5-0.5h8.1c0.276,0,0.5,0.224,0.5,0.5
	S62.326,44.86,62.05,44.86z"/>
<path style="fill:#A1C2D8;" d="M69.26,46.13L69.26,46.13c-0.276,0-0.5-0.224-0.5-0.5c0.003-1.593-0.114-3.184-0.35-4.76
	c-0.042-0.273,0.146-0.528,0.419-0.57c0,0,0.001,0,0.001,0c0.267-0.046,0.52,0.132,0.567,0.399c0.001,0.007,0.002,0.014,0.003,0.021
	c0.244,1.629,0.364,3.273,0.36,4.92C69.755,45.912,69.532,46.13,69.26,46.13z"/>
<path style="fill:#A1C2D8;" d="M72.32,45.75c-0.627-0.079-1.179-0.45-1.49-1c-0.111-0.204-0.235-0.401-0.37-0.59
	c-0.57,0.587-1.289,1.009-2.08,1.22c-0.228,0.093-0.482,0.093-0.71,0c-0.032-0.017-0.062-0.037-0.09-0.06
	c-0.258-0.239-0.372-0.596-0.3-0.94c0.067-0.548,0.347-1.047,0.78-1.39c0.658-0.53,1.564-0.627,2.32-0.25
	c0.316-0.486,0.568-1.01,0.75-1.56c0.153-0.375,0.235-0.775,0.24-1.18c0.01-0.313-0.127-0.613-0.37-0.81
	c-0.107-0.072-0.225-0.126-0.35-0.16c-0.879-0.23-1.814-0.074-2.57,0.43c-0.799,0.543-1.46,1.266-1.93,2.11
	c-0.16,0.225-0.472,0.278-0.697,0.118c-0.19-0.135-0.262-0.383-0.173-0.598c0.544-0.984,1.311-1.826,2.24-2.46
	c1.001-0.666,2.239-0.87,3.4-0.56c0.252,0.071,0.489,0.186,0.7,0.34c0.479,0.393,0.754,0.981,0.75,1.6
	c-0.004,0.521-0.105,1.037-0.3,1.52c-0.22,0.662-0.529,1.292-0.92,1.87c0.226,0.289,0.426,0.597,0.6,0.92
	c0.143,0.25,0.394,0.42,0.68,0.46c0.246-0.075,0.472-0.205,0.66-0.38c0.348-0.307,0.78-0.502,1.24-0.56l0,0
	c0.483,0.028,0.948,0.195,1.34,0.48l0.32,0.19c0.888,0.426,1.952,0.2,2.59-0.55c0.191-0.199,0.508-0.206,0.707-0.014
	c0.187,0.18,0.206,0.472,0.043,0.674c-0.949,1.072-2.497,1.375-3.78,0.74l-0.38-0.22c-0.234-0.177-0.509-0.29-0.8-0.33
	c-0.253,0.067-0.486,0.194-0.68,0.37C73.312,45.521,72.828,45.722,72.32,45.75z M69.32,43.49c-0.546,0.002-1.017,0.385-1.13,0.92
	c0.549-0.17,1.049-0.469,1.46-0.87h-0.2L69.32,43.49z"/>
<polyline style="fill:#D0E4F0;" points="242.18,22.31 249.23,22.68 249.29,23.33 242.1,22.95 "/>
<path style="fill:#40565B;" d="M249.29,23.83L249.29,23.83l-7-0.36c-0.115-0.006-0.225-0.052-0.31-0.13
	c-0.228-0.207-0.337-0.515-0.29-0.82c0.046-0.287,0.234-0.532,0.5-0.65c0.075-0.021,0.155-0.021,0.23,0l6.88,0.35
	c0.25,0.014,0.45,0.211,0.47,0.46l0.06,0.65c0.022,0.275-0.183,0.516-0.458,0.538c-0.014,0.001-0.028,0.002-0.042,0.002
	L249.29,23.83z"/>
<circle style="fill:#F36F42;" cx="250.547" cy="22.88" r="1.73"/>
<path style="fill:#C84A27;" d="M250.58,25.11c-1.232,0.004-2.234-0.99-2.238-2.222c-0.001-0.212,0.029-0.424,0.088-0.628l0,0
	c0.342-1.183,1.579-1.864,2.762-1.522c1.183,0.342,1.865,1.579,1.522,2.762C252.439,24.451,251.57,25.106,250.58,25.11z
	 M249.39,22.54c-0.183,0.654,0.2,1.333,0.854,1.515c0.654,0.183,1.333-0.2,1.515-0.854c0.181-0.649-0.193-1.322-0.84-1.511
	C250.263,21.504,249.579,21.884,249.39,22.54z"/>
<polyline style="fill:#D0E4F0;" points="204.55,22.31 197.5,22.68 197.44,23.33 204.63,22.95 "/>
<path style="fill:#40565B;" d="M197.44,23.83c-0.276,0.001-0.501-0.222-0.502-0.498c0-0.014,0-0.028,0.002-0.042l0.06-0.65
	c0.02-0.249,0.22-0.446,0.47-0.46l6.88-0.35c0.075-0.02,0.155-0.02,0.23,0c0.266,0.118,0.454,0.363,0.5,0.65
	c0.047,0.305-0.062,0.613-0.29,0.82c-0.085,0.078-0.195,0.124-0.31,0.13l-7,0.36L197.44,23.83z"/>
<circle style="fill:#F36F42;" cx="196.165" cy="22.891" r="1.73"/>
<path style="fill:#C84A27;" d="M196.17,25.11c-1.232-0.004-2.226-1.006-2.222-2.238c0.004-1.232,1.006-2.226,2.238-2.222
	c0.99,0.004,1.859,0.659,2.134,1.61l0,0c0.342,1.183-0.339,2.42-1.522,2.762C196.594,25.081,196.382,25.111,196.17,25.11z
	 M196.17,21.64c-0.679,0.004-1.226,0.559-1.222,1.238c0.004,0.679,0.559,1.226,1.238,1.222c0.679-0.004,1.226-0.559,1.222-1.238
	c-0.001-0.112-0.017-0.224-0.048-0.332C197.208,22,196.721,21.636,196.17,21.64z"/>
<polyline style="fill:#E7F1F8;" points="217.87,68.28 217.87,54.96 229.54,54.96 229.54,68.28 "/>
<path style="fill:#D0E4F0;" d="M208.05,75.8c0,0-46.41,33.44-47.92,31.43l-21.19-11.56l-10-4.07l-2.21-4.78
	c-1.658-3.492-0.171-7.668,3.322-9.326c0.888-0.422,1.855-0.651,2.838-0.674h1.18c2.83-0.094,5.415,1.598,6.46,4.23l7.29,9.15
	l15.67,1.9c1.55,1.84,27.55-20.8,27.55-20.8"/>
<path style="fill:#C3D4E0;" d="M188.77,89.93c-0.382,0.001-0.732-0.217-0.9-0.56l-5.29-10.66c-0.279-0.476-0.12-1.089,0.357-1.368
	c0.476-0.279,1.089-0.12,1.368,0.357c0.025,0.042,0.046,0.086,0.065,0.132l5.25,10.66c0.243,0.496,0.038,1.095-0.458,1.338
	c-0.138,0.067-0.289,0.102-0.442,0.102H188.77z"/>
<path style="fill:#C3D4E0;" d="M179.58,95.89c-0.391,0.001-0.746-0.226-0.91-0.58l-4.56-9.73c-0.225-0.504,0.001-1.096,0.505-1.321
	c0.491-0.219,1.067-0.011,1.305,0.471l4.56,9.73c0.232,0.501,0.014,1.096-0.488,1.328c-0.132,0.061-0.277,0.093-0.422,0.092
	L179.58,95.89z"/>
<path style="fill:#40565B;" d="M160.22,107.76c-0.149,0.014-0.297-0.033-0.41-0.13L138.7,96.11l-10-4
	c-0.119-0.046-0.215-0.135-0.27-0.25l-2.21-4.78c-1.747-3.78-0.1-8.261,3.68-10.008c0.917-0.424,1.91-0.659,2.92-0.692H134
	c3.007-0.075,5.752,1.704,6.91,4.48l7.12,8.94l15.55,1.78c0.092,0.013,0.178,0.051,0.25,0.11l0,0c2,0,15.23-10.64,26.88-20.79
	c0.215-0.173,0.53-0.139,0.703,0.076c0.163,0.202,0.144,0.495-0.043,0.674c-4.05,3.53-24.32,21-27.62,21h-0.06
	c-0.141-0.007-0.278-0.048-0.4-0.12l-15.53-1.88c-0.129-0.015-0.248-0.079-0.33-0.18l-7.31-9.15c-0.03-0.039-0.054-0.083-0.07-0.13
	c-0.966-2.447-3.371-4.019-6-3.92h-1.18c-3.61,0.114-6.444,3.133-6.33,6.744c0.028,0.877,0.232,1.74,0.6,2.536l2.13,4.6l9.84,4
	l21.24,11.58l0,0c2.72,0,30.4-19.22,47.34-31.43c0.21-0.18,0.525-0.155,0.705,0.055c0.18,0.21,0.155,0.525-0.055,0.705
	c-0.022,0.019-0.046,0.036-0.07,0.05C169.23,104.39,161.85,107.76,160.22,107.76z M163.85,91.76L163.85,91.76z"/>
<path style="fill:#FFFFFF;" d="M257.78,70.09l9.85,47.23c0.402,2.48-1.068,4.881-3.46,5.65l-35,11.25l-9.59,4.89l-5.24,0.52
	c-3.843,0.423-7.301-2.349-7.724-6.192c-0.108-0.979-0.008-1.97,0.294-2.908l0.35-1.13c0.838-2.708,3.288-4.597,6.12-4.72l13.56-0.6
	l24-9.2c2.246-0.859,3.581-3.176,3.2-5.55l-1.51-9.45"/>
<path style="fill:#D0E4F0;" d="M255.58,82.92l-2.93,17l1.51,9.45c0.381,2.374-0.954,4.691-3.2,5.55l-24,9.2l-13.56,0.6
	c-2.832,0.123-5.282,2.012-6.12,4.72l-0.35,1.13c-1.172,3.684,0.865,7.621,4.549,8.792c0.087,0.028,0.174,0.053,0.261,0.077l3-0.3
	l9.65-4.84l35-11.25c2.392-0.769,3.862-3.17,3.46-5.65L255.58,82.92z"/>
<line style="fill:none;" x1="226.92" y1="124.09" x2="229.21" y2="134.26"/>
<path style="fill:#40565B;" d="M229.21,134.76c-0.235,0.001-0.438-0.161-0.49-0.39l-2.29-10.17c-0.061-0.276,0.114-0.549,0.39-0.61
	s0.549,0.114,0.61,0.39l2.29,10.17c0.062,0.269-0.107,0.537-0.376,0.599c-0.001,0-0.003,0.001-0.004,0.001L229.21,134.76z"/>
<path style="fill:#C3D4E0;" d="M254.49,110.76c-0.552,0.047-1.038-0.363-1.085-0.915c-0.047-0.552,0.363-1.038,0.915-1.085
	l10.5-1.78c0.552-0.091,1.074,0.283,1.165,0.835c0.091,0.552-0.283,1.074-0.835,1.165l-10.5,1.78H254.49z"/>
<path style="fill:#C3D4E0;" d="M253.29,102c-0.552,0.004-1.003-0.44-1.007-0.993c-0.002-0.284,0.117-0.556,0.327-0.747l8.74-8
	c0.43-0.347,1.06-0.279,1.406,0.151c0.315,0.391,0.291,0.956-0.056,1.319l-8.74,8C253.778,101.9,253.539,101.997,253.29,102z"/>
<path style="fill:#C3D4E0;" d="M255.36,126.32c-0.399,0.001-0.76-0.234-0.92-0.6l-4.31-9.79c-0.224-0.505,0.005-1.096,0.51-1.32
	c0.505-0.224,1.096,0.005,1.32,0.51l4.31,9.79c0.221,0.506-0.01,1.096-0.516,1.317c-0.124,0.054-0.258,0.083-0.394,0.083V126.32z"/>
<path style="fill:#C3D4E0;" d="M245.23,130.11c-0.459,0.018-0.872-0.279-1-0.72l-3.19-10.81c-0.157-0.53,0.145-1.088,0.675-1.245
	c0.53-0.157,1.088,0.145,1.245,0.675l3.19,10.81c0.155,0.53-0.15,1.085-0.68,1.24l0,0
	C245.392,130.086,245.312,130.103,245.23,130.11z"/>
<path style="fill:#C3D4E0;" d="M234.64,129.03c-0.486,0.009-0.908-0.333-1-0.81l-1.21-6.43c-0.102-0.552,0.263-1.083,0.815-1.185
	s1.083,0.263,1.185,0.815l1.21,6.43c0.103,0.543-0.253,1.066-0.796,1.169c-0.001,0-0.003,0.001-0.004,0.001L234.64,129.03z"/>
<path style="fill:#40565B;" d="M213.58,140.16c-4.164,0-7.54-3.375-7.54-7.54c0-0.76,0.115-1.515,0.34-2.24l0.35-1.13
	c0.906-2.904,3.532-4.93,6.57-5.07l13.48-0.59l23.95-9.17c2.016-0.783,3.215-2.864,2.88-5l-1.51-9.45
	c-0.044-0.276,0.144-0.536,0.42-0.58c0.276-0.044,0.536,0.144,0.58,0.42l1.51,9.45c0.408,2.603-1.053,5.138-3.51,6.09l-24,9.2h-0.16
	l-13.56,0.6c-2.616,0.117-4.879,1.86-5.66,4.36l-0.35,1.13c-1.073,3.449,0.853,7.115,4.302,8.188c0.84,0.261,1.723,0.35,2.598,0.262
	l5.15-0.51l9.57-4.8l35-11.28c2.168-0.682,3.5-2.859,3.12-5.1l-9.85-47.25c-0.055-0.276,0.124-0.545,0.4-0.6
	c0.276-0.055,0.545,0.124,0.6,0.4l9.85,47.27c0.47,2.732-1.148,5.391-3.79,6.23l-35,11.25l-9.58,4.81c-0.056,0.01-0.114,0.01-0.17,0
	l-5.24,0.52C214.082,140.086,213.832,140.129,213.58,140.16z M219.53,139.1L219.53,139.1z"/>
<path style="fill:#40565B;" d="M229.58,65.16c-0.276,0-0.5-0.224-0.5-0.5v-9.2h-10.71v9.2c0,0.276-0.224,0.5-0.5,0.5
	s-0.5-0.224-0.5-0.5v-9.7c0-0.276,0.224-0.5,0.5-0.5h11.71c0.276,0,0.5,0.224,0.5,0.5v9.7C230.08,64.936,229.856,65.16,229.58,65.16
	z"/>
<path style="fill:#DD5566;" d="M201.32,138.11l-12-66.12c-0.613-3.374,1.626-6.607,5-7.22c0.366-0.067,0.738-0.1,1.11-0.1h22.48
	c0,4.25,11.67,4.25,11.67,0h22.27c3.43,0,6.21,2.78,6.21,6.21c0,0.372-0.033,0.744-0.1,1.11l-12,66.12H201.32z"/>
<path style="fill:#D0E4F0;" d="M202.73,64.66h15.07c0,4.25,11.67,4.25,11.67,0h14.86L225,102.82
	c-0.407,0.809-1.393,1.135-2.202,0.728c-0.314-0.158-0.57-0.413-0.728-0.728L202.73,64.66z"/>
<path style="fill:#BC1A3C;" d="M246.3,138.61h-45.4l-12.11-66.53c-0.663-3.646,1.756-7.139,5.402-7.802
	c0.395-0.072,0.796-0.108,1.198-0.108h7.41v1h-7.41c-3.154-0.001-5.711,2.555-5.712,5.708c0,0.343,0.031,0.685,0.092,1.022l12,65.71
	h43.73l12-65.71c0.563-3.103-1.495-6.075-4.598-6.638c-0.337-0.061-0.679-0.092-1.022-0.092h-7.41v-1h7.41
	c3.706,0.001,6.709,3.006,6.708,6.712c0,0.402-0.036,0.803-0.108,1.198L246.3,138.61z"/>
<path style="fill:#164A67;" d="M223.58,104.22c-0.807,0.003-1.546-0.45-1.91-1.17l-19.31-38.16
	c-0.142-0.237-0.066-0.544,0.171-0.686c0.237-0.142,0.544-0.066,0.686,0.171c0.013,0.021,0.024,0.043,0.033,0.066l19.33,38.16
	c0.346,0.552,1.074,0.72,1.626,0.374c0.151-0.095,0.279-0.222,0.374-0.374l19.34-38.16c0.106-0.255,0.399-0.376,0.654-0.269
	s0.376,0.399,0.269,0.654c-0.009,0.023-0.021,0.045-0.033,0.066l-19.34,38.16C225.11,103.764,224.38,104.216,223.58,104.22z"/>
<circle style="fill:#A1C2D8;" cx="223.71" cy="72.65" r="1.32"/>
<circle style="fill:#A1C2D8;" cx="223.71" cy="80.06" r="1.32"/>
<circle style="fill:#A1C2D8;" cx="223.71" cy="87.47" r="1.32"/>
<circle style="fill:#A1C2D8;" cx="223.71" cy="94.88" r="1.32"/>
<path style="fill:#164A67;" d="M223.71,74.47c-1.005,0-1.82-0.815-1.82-1.82s0.815-1.82,1.82-1.82c1.005,0,1.82,0.815,1.82,1.82
	S224.715,74.47,223.71,74.47L223.71,74.47z M223.71,71.84c-0.453,0-0.82,0.367-0.82,0.82s0.367,0.82,0.82,0.82
	c0.453,0,0.82-0.367,0.82-0.82S224.163,71.84,223.71,71.84C223.71,71.84,223.71,71.84,223.71,71.84z"/>
<path style="fill:#164A67;" d="M223.71,81.88c-1.005,0-1.82-0.815-1.82-1.82s0.815-1.82,1.82-1.82c1.005,0,1.82,0.815,1.82,1.82
	S224.715,81.88,223.71,81.88L223.71,81.88z M223.71,79.25c-0.453,0-0.82,0.367-0.82,0.82s0.367,0.82,0.82,0.82
	c0.453,0,0.82-0.367,0.82-0.82c0.006-0.453-0.357-0.824-0.81-0.83c-0.003,0-0.007,0-0.01,0V79.25z"/>
<path style="fill:#164A67;" d="M223.71,89.32c-1.005,0-1.82-0.815-1.82-1.82s0.815-1.82,1.82-1.82c1.005,0,1.82,0.815,1.82,1.82
	S224.715,89.32,223.71,89.32L223.71,89.32z M223.71,86.69c-0.453,0-0.82,0.367-0.82,0.82s0.367,0.82,0.82,0.82
	c0.453,0,0.82-0.367,0.82-0.82c0.022-0.452-0.327-0.837-0.779-0.859c-0.014-0.001-0.027-0.001-0.041-0.001V86.69z"/>
<path style="fill:#164A67;" d="M223.71,96.69c-1.005,0-1.82-0.815-1.82-1.82s0.815-1.82,1.82-1.82c1.005,0,1.82,0.815,1.82,1.82
	S224.715,96.69,223.71,96.69L223.71,96.69z M223.71,94.06c-0.453,0-0.82,0.367-0.82,0.82s0.367,0.82,0.82,0.82
	c0.453,0,0.82-0.367,0.82-0.82S224.163,94.06,223.71,94.06C223.71,94.06,223.71,94.06,223.71,94.06z"/>
<path style="fill:#FFFFFF;" d="M200.49,9.46l4.9,46c0.243,2.74,2.539,4.84,5.29,4.84h25.72c2.751,0,5.047-2.1,5.29-4.84l4.9-46
	c0.265-2.921-1.888-5.503-4.808-5.768c-0.16-0.015-0.321-0.022-0.482-0.022h-35.52c-2.933-0.001-5.311,2.376-5.312,5.308
	C200.468,9.139,200.475,9.3,200.49,9.46z"/>
<path style="fill:#E7F1F8;" d="M241.29,3.67h-35.51c-2.933-0.001-5.311,2.376-5.312,5.308c0,0.161,0.007,0.322,0.022,0.482l4.9,46
	c0.243,2.74,2.539,4.84,5.29,4.84h25.72c2.751,0,5.047-2.1,5.29-4.84l4.9-46c0.265-2.921-1.888-5.503-4.808-5.768
	C241.618,3.677,241.454,3.67,241.29,3.67z M244.65,11.32l-4.49,42.12c-0.223,2.513-2.327,4.439-4.85,4.44h-23.56
	c-2.523-0.001-4.627-1.927-4.85-4.44l-4.49-42.12c-0.237-2.679,1.742-5.043,4.421-5.281c0.143-0.013,0.286-0.019,0.429-0.019h32.54
	c2.69,0.001,4.87,2.181,4.869,4.871C244.669,11.034,244.663,11.177,244.65,11.32z"/>
<path style="fill:#40565B;" d="M236.39,60.75h-25.71c-3.014,0.016-5.535-2.287-5.79-5.29L200,9.51l0,0
	c-0.287-3.196,2.071-6.019,5.267-6.307c0.174-0.016,0.349-0.023,0.523-0.023h35.51c3.209-0.002,5.811,2.598,5.813,5.807
	c0,0.175-0.008,0.349-0.023,0.523l-4.9,46C241.91,58.497,239.39,60.773,236.39,60.75z M200.99,9.41l4.9,46
	c0.208,2.488,2.293,4.399,4.79,4.39h25.72c2.529,0.005,4.626-1.956,4.79-4.48l4.9-46c0.232-2.646-1.725-4.98-4.372-5.212
	c-0.139-0.012-0.279-0.018-0.418-0.018h-35.52c-2.656,0-4.81,2.154-4.809,4.811c0,0.143,0.006,0.287,0.019,0.429V9.41z"/>
<ellipse style="fill:#40565B;" cx="213.15" cy="26.65" rx="1.69" ry="4.46"/>
<ellipse style="fill:#40565B;" cx="233.92" cy="26.65" rx="1.69" ry="4.46"/>
<polygon style="fill:#576A6D;" points="214.83,37.08 232.62,37.08 235.6,43.49 230.97,42.07 228.36,43.49 223.53,41.5 220.15,43.6 
	216.51,41.48 211.46,43.6 "/>
<path style="fill:#40565B;" d="M220.16,44.1c-0.088-0.001-0.174-0.025-0.25-0.07l-3.42-2l-4.82,2
	c-0.254,0.108-0.548-0.01-0.656-0.264c-0.059-0.137-0.053-0.294,0.016-0.426l3.37-6.51c0.085-0.165,0.255-0.269,0.44-0.27h17.74
	c0.193,0.001,0.369,0.114,0.45,0.29l3,6.41c0.117,0.25,0.009,0.548-0.241,0.665c-0.113,0.053-0.241,0.062-0.359,0.025L231,42.6
	l-2.42,1.33c-0.136,0.065-0.294,0.065-0.43,0l-4.57-1.87l-3.16,2C220.338,44.096,220.249,44.11,220.16,44.1z M216.52,40.98
	c0.088,0,0.174,0.025,0.25,0.07l3.38,2l3.12-1.94c0.142-0.071,0.308-0.071,0.45,0l4.61,1.9l2.4-1.3c0.122-0.05,0.258-0.05,0.38,0
	l3.56,1.09l-2.38-5.1h-17.15l-2.6,5l3.78-1.59c0.054-0.063,0.123-0.111,0.2-0.14V40.98z"/>
<path style="fill:#40565B;" d="M208.05,20.38c-0.276-0.002-0.499-0.227-0.497-0.503c0.001-0.087,0.024-0.172,0.067-0.247
	c1.117-1.781,3.135-2.789,5.23-2.61c0.276,0.03,0.475,0.279,0.445,0.555c-0.03,0.276-0.279,0.475-0.555,0.445
	c-1.703-0.122-3.336,0.695-4.26,2.13C208.386,20.296,208.224,20.383,208.05,20.38z"/>
<path style="fill:#40565B;" d="M238.66,20.38c-0.176,0.001-0.339-0.09-0.43-0.24c-0.916-1.444-2.555-2.263-4.26-2.13
	c-0.276,0.03-0.525-0.169-0.555-0.445c-0.03-0.276,0.169-0.525,0.445-0.555l0,0c2.095-0.179,4.113,0.829,5.23,2.61
	c0.138,0.239,0.056,0.545-0.183,0.683c-0.075,0.043-0.16,0.066-0.247,0.067L238.66,20.38z"/>
<polygon style="fill:#F36F42;" points="223.53,31.81 224.72,33.14 225.91,34.48 223.53,34.48 221.15,34.48 222.34,33.14 "/>
<path style="fill:#C84A27;" d="M225.91,34.97h-4.76c-0.276-0.003-0.497-0.229-0.494-0.506c0.001-0.12,0.045-0.235,0.124-0.324
	l2.38-2.67c0.109-0.113,0.264-0.169,0.42-0.15l0,0c0.142,0.002,0.276,0.063,0.37,0.17l2.38,2.67
	c0.182,0.207,0.162,0.523-0.046,0.706c-0.09,0.079-0.205,0.123-0.324,0.124L225.91,34.97z M222.27,33.97h2.52l-1.21-1.41
	L222.27,33.97z"/>
<path style="fill:#40565B;" d="M223.76,47.53c-2.373,0.017-4.689-0.726-6.61-2.12c-0.213-0.177-0.242-0.492-0.065-0.705
	c0.177-0.213,0.492-0.242,0.705-0.065l0,0c0.21,0.18,5.27,4.26,12.36,0c0.237-0.144,0.546-0.067,0.69,0.17s0.067,0.546-0.17,0.69
	C228.599,46.804,226.207,47.507,223.76,47.53z"/>
<path style="fill:#164A67;" d="M223.71,68.32c-1.455,0.028-2.899-0.262-4.23-0.85c-1.028-0.396-1.797-1.27-2.06-2.34H202.8
	c-0.276,0-0.5-0.224-0.5-0.5s0.224-0.5,0.5-0.5h15.07c0.276,0,0.5,0.224,0.5,0.5c0,3.53,10.67,3.53,10.67,0
	c0-0.276,0.224-0.5,0.5-0.5h14.86c0.276,0,0.5,0.224,0.5,0.5s-0.224,0.5-0.5,0.5H230C229.58,67.32,226.58,68.32,223.71,68.32z"/>
<polyline style="fill:#E7F1F8;" points="176.69,133.52 184.46,133.35 202.75,139.94 188.43,139.94 176.89,133.9 "/>
<polygon style="fill:#E7F1F8;" points="176.16,133.35 176.09,139.94 187.48,140.01 "/>
<path style="fill:#E7F1F8;" d="M173.86,38.46H77.24c-1.66,0-3,6.77-3,15.11s1.35,15.11,3,15.11h96.61c1.66,0,3-6.77,3-15.11
	S175.52,38.46,173.86,38.46z"/>
<path style="fill:#E7F1F8;" d="M171.97,68.78H79.13c0,0-5.19-5.71-4.12,71.16h101.08c0.067-4.86,0.11-9.4,0.13-13.62
	C176.53,63.77,171.97,68.78,171.97,68.78z"/>
<path style="fill:#E7F1F8;" d="M173.86,38.46H77.24c-1.66,0-3,6.77-3,15.11s1.35,15.11,3,15.11h96.61c1.66,0,3-6.77,3-15.11
	S175.52,38.46,173.86,38.46z"/>
<path style="fill:#E7F1F8;" d="M171.97,68.78H79.13c0,0-5.19-5.71-4.12,71.16h101.08c0.067-4.86,0.11-9.4,0.13-13.62
	C176.53,63.77,171.97,68.78,171.97,68.78z"/>
<polyline style="fill:#E7F1F8;" points="176.69,133.52 184.46,133.35 202.75,139.94 188.43,139.94 176.89,133.9 "/>
<path style="fill:#D0E4F0;" d="M169.41,139.72L169.41,139.72l-6-32l2.12-9.48l0,0l-2.59-0.6V55.69
	c0.145-6.039-1.493-11.987-4.71-17.1l-48-0.44c-2.93,4.49-6.41,11.64-6.41,17.55v41.93l-2.57,0.59l10.33,49.76h8.17
	c0.131,0.5,0.326,0.98,0.58,1.43l0,0l0.21,0.35l0,0c0.157,0.242,0.331,0.472,0.52,0.69v0.05l0.26,0.27l0,0
	c0.201,0.195,0.414,0.375,0.64,0.54l0.08,0.05l0.28,0.19h0.08l0.37,0.2l0,0l0.35,0.16h0.11l0.29,0.1h0.11l0.4,0.1l0,0l0.39,0.06
	h0.13h0.31h0.13h0.43l0,0l4.25-0.37l7.83-3.43l2.31-0.65h14.44l1-4.32l3.44-1L169.41,139.72z M158.04,131.77l0.39,2.11l-0.93,0.31
	L158.04,131.77z"/>
<polygon style="fill:#E7F1F8;" points="74.78,133.35 74.86,139.94 63.47,140.01 "/>
<polyline style="fill:#E7F1F8;" points="74.26,133.52 66.49,133.35 48.2,139.94 63.47,140.01 74.06,133.9 "/>
<path style="fill:#A1C2D8;" d="M187.48,140.51c-0.088-0.001-0.174-0.025-0.25-0.07l-10.59-6.12c-0.365-0.111-0.57-0.497-0.459-0.861
	c0.067-0.22,0.239-0.392,0.459-0.459l7.76-0.17c0.06-0.008,0.12-0.008,0.18,0l18.29,6.59c0.276,0.047,0.462,0.309,0.415,0.585
	c-0.047,0.276-0.309,0.462-0.585,0.415l-15.27,0.07L187.48,140.51z M178.04,133.99l9.58,5.52l12.31-0.05l-15.55-5.6L178.04,133.99z"
	/>
<path style="fill:#A1C2D8;" d="M187.48,140.51L187.48,140.51l-11.4-0.07c-0.276,0-0.5-0.224-0.5-0.5c0-0.003,0-0.007,0-0.01
	l0.08-6.59c0.001-0.178,0.096-0.341,0.25-0.43c0.155-0.087,0.345-0.087,0.5,0l11.32,6.66c0.237,0.141,0.316,0.448,0.175,0.685
	c-0.089,0.15-0.25,0.243-0.425,0.245V140.51z M176.58,139.44l9,0.05l-9-5.28V139.44z"/>
<path style="fill:#A1C2D8;" d="M173.86,69.19H77.24c-2.78,0-3.51-10.21-3.51-15.61s0.73-15.61,3.51-15.61h96.61
	c2.78,0,3.51,10.21,3.51,15.61S176.63,69.19,173.86,69.19z M77.24,38.96c-0.85,0-2.51,5.16-2.51,14.61s1.66,14.61,2.51,14.61h96.61
	c0.85,0,2.51-5.16,2.51-14.61s-1.66-14.61-2.51-14.61H77.24z"/>
<path style="fill:#A1C2D8;" d="M176.09,140.44H75.01c-0.272,0-0.495-0.218-0.5-0.49c-0.63-45,0.81-70.42,4.05-71.7
	c0.228-0.105,0.492-0.105,0.72,0h92.53c0.229-0.104,0.491-0.104,0.72,0c3.69,1.44,4.31,32.38,4.19,58.08
	c0,4.22-0.06,8.76-0.13,13.62C176.585,140.222,176.362,140.44,176.09,140.44z M75.51,139.44h100.07c0.06-4.67,0.1-9,0.12-13.12
	c0.26-52-2.91-56.68-3.5-57.11c-0.076,0.045-0.162,0.069-0.25,0.07H79.13c-0.088-0.001-0.174-0.025-0.25-0.07
	C78.23,69.68,74.58,75.15,75.51,139.44z M78.76,69.12L78.76,69.12z M172.34,69.12L172.34,69.12z"/>
<path style="fill:#A1C2D8;" d="M173.86,69.19H77.24c-2.78,0-3.51-10.21-3.51-15.61s0.73-15.61,3.51-15.61h96.61
	c2.78,0,3.51,10.21,3.51,15.61S176.63,69.19,173.86,69.19z M77.24,38.96c-0.85,0-2.51,5.16-2.51,14.61s1.66,14.61,2.51,14.61h96.61
	c0.85,0,2.51-5.16,2.51-14.61s-1.66-14.61-2.51-14.61H77.24z"/>
<path style="fill:#A1C2D8;" d="M176.09,140.44H75.01c-0.272,0-0.495-0.218-0.5-0.49c-0.63-45,0.81-70.42,4.05-71.7
	c0.228-0.105,0.492-0.105,0.72,0h92.53c0.229-0.104,0.491-0.104,0.72,0c3.69,1.44,4.31,32.38,4.19,58.08
	c0,4.22-0.06,8.76-0.13,13.62C176.585,140.222,176.362,140.44,176.09,140.44z M75.51,139.44h100.07c0.06-4.67,0.1-9,0.12-13.12
	c0.26-52-2.91-56.68-3.5-57.11c-0.076,0.045-0.162,0.069-0.25,0.07H79.13c-0.088-0.001-0.174-0.025-0.25-0.07
	C78.23,69.68,74.58,75.15,75.51,139.44z M78.76,69.12L78.76,69.12z M172.34,69.12L172.34,69.12z"/>
<path style="fill:#A1C2D8;" d="M187.48,140.51c-0.088,0-0.174-0.025-0.25-0.07l-11.32-6.66c-0.237-0.141-0.316-0.448-0.175-0.685
	c0.089-0.15,0.25-0.243,0.425-0.245h8.29c0.056-0.01,0.114-0.01,0.17,0l18.29,6.59c0.276,0.047,0.462,0.309,0.415,0.585
	c-0.047,0.276-0.309,0.462-0.585,0.415l-15.27,0.07H187.48z M178,133.85l9.62,5.66l12.3-0.05l-15.55-5.6L178,133.85z"/>
<path style="fill:#A1C2D8;" d="M63.47,140.51L63.47,140.51l-15.27-0.07c-0.276,0.047-0.538-0.139-0.585-0.415
	c-0.047-0.276,0.139-0.538,0.415-0.585l18.29-6.59c0.06-0.009,0.12-0.009,0.18,0l7.76,0.17h0.08l0.18-0.11
	c0.235-0.145,0.543-0.072,0.688,0.163c0.145,0.235,0.072,0.543-0.163,0.688c-0.005,0.003-0.01,0.006-0.015,0.009l-11.32,6.66
	C63.638,140.477,63.556,140.505,63.47,140.51z M51.03,139.45l12.3,0.05l9.39-5.52l-6.14-0.13L51.03,139.45z"/>
<path style="fill:#A1C2D8;" d="M148.58,98.11h-44.64V60.76c0-13.66,4.63-13.52,17-13.52l2.95,3.32c15.6,0,24-3.78,24,9.35
	L148.58,98.11z"/>
<path style="fill:#D0E4F0;" d="M155.48,100.32H96.33V55.69c0-16.37,12.88-28.78,29.25-28.78l0,0c20.67,0,29.93,13.07,29.93,28.78
	L155.48,100.32z"/>
<path style="fill:#40565B;" d="M155.48,100.85H96.33c-0.276,0-0.5-0.224-0.5-0.5V55.69c0-16.42,13.06-29.28,29.72-29.28
	c9.8,0,17.78,3,23.08,8.66c4.81,5.13,7.35,12.26,7.35,20.62v44.63c0.017,0.276-0.193,0.513-0.469,0.529
	C155.501,100.85,155.49,100.85,155.48,100.85z M96.82,99.85h58.16V55.69c0-20.85-15.21-28.28-29.44-28.28
	c-16.11,0-28.72,12.42-28.72,28.28V99.85z"/>
<rect x="121.61" y="88.38" style="fill:#D0E4F0;" width="9.17" height="7.66"/>
<path style="fill:#E7F1F8;" d="M126.05,113.11L112.11,94l9.51-1.24c2.827,1.741,6.41,1.675,9.17-0.17l9.14,1.43L126.05,113.11z"/>
<polygon style="fill:#D0E4F0;" points="126.2,112.91 112.1,94.01 115.92,93.51 "/>
<path style="fill:#40565B;" d="M126.05,113.61c-0.159-0.002-0.308-0.08-0.4-0.21L111.7,94.32c-0.162-0.223-0.113-0.536,0.11-0.698
	c0.068-0.049,0.147-0.081,0.23-0.092l9.54-1.26c0.112-0.013,0.224,0.011,0.32,0.07c2.68,1.6,5.52,1.59,8.69,0
	c0.095-0.028,0.195-0.028,0.29,0l9.14,1.26c0.274,0.036,0.467,0.286,0.432,0.56c-0.011,0.083-0.042,0.162-0.092,0.23l-13.87,19.08
	c-0.092,0.13-0.241,0.208-0.4,0.21L126.05,113.61z M113.05,94.39l13,17.87l13-17.85l-8.18-1.09c-3.34,1.65-6.49,1.65-9.36,0
	L113.05,94.39z"/>
<path style="fill:#40565B;" d="M130.78,93.1c-0.276,0-0.5-0.224-0.5-0.5v-3.72h-8.17v3.72c0,0.276-0.224,0.5-0.5,0.5
	s-0.5-0.224-0.5-0.5v-4.22c0-0.276,0.224-0.5,0.5-0.5h9.17c0.276,0,0.5,0.224,0.5,0.5v4.22C131.28,92.876,131.056,93.1,130.78,93.1z
	"/>
<polyline style="fill:#FFDC64;" points="93.75,98.2 104.14,147.98 146.96,147.98 158.08,98.2 139.92,94.03 126.05,113.11 
	112.1,94.01 93.75,98.2 "/>
<polyline style="fill:#D0E4F0;" points="147.15,64.02 155.5,64.45 155.57,65.23 147.06,64.78 "/>
<path style="fill:#40565B;" d="M155.58,65.73L155.58,65.73l-8.3-0.42c-0.115-0.006-0.225-0.052-0.31-0.13
	c-0.266-0.203-0.412-0.526-0.39-0.86c0.048-0.307,0.247-0.57,0.53-0.7c0.075-0.023,0.155-0.023,0.23,0l8.14,0.41
	c0.25,0.014,0.45,0.211,0.47,0.46l0.07,0.77c0.022,0.275-0.183,0.516-0.458,0.538c-0.014,0.001-0.028,0.002-0.042,0.002
	L155.58,65.73z"/>
<circle style="fill:#F36F42;" cx="157.061" cy="64.7" r="2.05"/>
<path style="fill:#C84A27;" d="M157.07,67.25c-0.237,0-0.473-0.034-0.7-0.1c-1.364-0.373-2.167-1.781-1.794-3.144
	c0.001-0.005,0.003-0.01,0.004-0.016l0,0c0.387-1.354,1.798-2.139,3.152-1.752c1.354,0.387,2.139,1.798,1.752,3.152
	c-0.313,1.096-1.315,1.851-2.454,1.85L157.07,67.25z M157.07,63.14c-0.692,0.004-1.299,0.464-1.49,1.13l0,0
	c-0.232,0.824,0.248,1.68,1.072,1.912c0.824,0.232,1.68-0.248,1.912-1.072s-0.248-1.68-1.072-1.912
	C157.355,63.159,157.213,63.14,157.07,63.14z M155.07,64.14L155.07,64.14z"/>
<polyline style="fill:#D0E4F0;" points="105.06,64.02 96.7,64.45 96.64,65.23 105.14,64.78 "/>
<path style="fill:#40565B;" d="M96.64,65.73c-0.276,0.001-0.501-0.222-0.502-0.498c0-0.014,0-0.028,0.002-0.042l0.07-0.77
	c0.02-0.249,0.22-0.446,0.47-0.46l8.14-0.41c0.075-0.022,0.155-0.022,0.23,0c0.283,0.13,0.482,0.393,0.53,0.7
	c0.049,0.332-0.071,0.666-0.32,0.89c-0.085,0.078-0.195,0.124-0.31,0.13l-8.3,0.42L96.64,65.73z"/>
<circle style="fill:#F36F42;" cx="94.626" cy="64.616" r="2.042"/>
<path style="fill:#C84A27;" d="M95.14,67.25c-1.408,0.004-2.553-1.135-2.557-2.543c-0.004-1.408,1.135-2.553,2.543-2.557
	c1.408-0.004,2.553,1.135,2.557,2.543c0.003,1.139-0.749,2.141-1.843,2.457C95.613,67.216,95.377,67.25,95.14,67.25z M95.14,63.14
	c-0.856-0.004-1.553,0.687-1.557,1.543c-0.001,0.155,0.022,0.309,0.067,0.457c0.235,0.828,1.097,1.31,1.925,1.075
	c0.828-0.235,1.31-1.097,1.075-1.925l0,0c-0.186-0.684-0.811-1.157-1.52-1.15H95.14z"/>
<path style="fill:#FAAC30;" d="M111.2,98.15c3.485,1.473,6.54,3.806,8.88,6.78l-8-10.92l-10.06,2.31
	C102.02,96.32,105.16,95.48,111.2,98.15z"/>
<path style="fill:#FAAC30;" d="M130.31,106.83c0,0,11.75,1.83,13.89,8.95c2.14,7.12,0.16,32.2,0.16,32.2h2.61l11.12-49.78
	l-18.16-4.17"/>
<path style="fill:#F26F42;" d="M146.96,148.48h-42.82c-0.238,0-0.442-0.167-0.49-0.4L93.26,98.32c-0.056-0.267,0.113-0.53,0.38-0.59
	l18.35-4.19c0.196-0.05,0.402,0.025,0.52,0.19l13.54,18.55l13.47-18.53c0.119-0.162,0.324-0.237,0.52-0.19l18.16,4.17
	c0.27,0.059,0.44,0.326,0.381,0.596c0,0.001-0.001,0.003-0.001,0.004l-11.12,49.78C147.4,148.335,147.192,148.488,146.96,148.48z
	 M104.54,147.48h42l10.92-48.91l-17.35-4l-13.68,18.82c-0.092,0.13-0.241,0.208-0.4,0.21l0,0c-0.159-0.002-0.308-0.08-0.4-0.21
	l-13.75-18.84l-17.55,4L104.54,147.48z"/>
<path style="fill:#F26F42;" d="M135.31,134.93h-0.15l-9.26-2.89l-9.27,2.66c-0.276,0.077-0.563-0.084-0.64-0.36
	s0.084-0.563,0.36-0.64l9.42-2.7c0.095-0.028,0.195-0.028,0.29,0l9.4,2.94c0.276,0.041,0.466,0.299,0.425,0.575
	s-0.299,0.466-0.575,0.425V134.93z"/>
<circle style="fill:#FAAC30;" cx="136.81" cy="134.43" r="1.5"/>
<circle style="fill:#FAAC30;" cx="115.01" cy="134.43" r="1.5"/>
<path style="fill:#F26F42;" d="M136.81,136.43c-1.105,0-2-0.895-2-2s0.895-2,2-2s2,0.895,2,2S137.915,136.43,136.81,136.43z
	 M136.81,133.43c-0.552,0-1,0.448-1,1s0.448,1,1,1s1-0.448,1-1S137.362,133.43,136.81,133.43z"/>
<path style="fill:#F26F42;" d="M115.02,136.43c-1.105,0-2-0.895-2-2s0.895-2,2-2s2,0.895,2,2S116.125,136.43,115.02,136.43z
	 M115.02,133.43c-0.552,0-1,0.448-1,1s0.448,1,1,1s1-0.448,1-1S115.572,133.43,115.02,133.43z"/>
<path style="fill:#E7F1F8;" d="M147.85,55.5c-0.74-21.83-43.35-18-43.35-5.05l0,0c-0.375,2.341-0.562,4.709-0.56,7.08
	c0,17.35,9.84,31.41,22,31.41s22-14.06,22-31.41C147.89,56.94,147.87,56.07,147.85,55.5z"/>
<path style="fill:#D0E4F0;" d="M147.85,55.5L147.85,55.5c-0.74-21.83-43.35-18-43.35-5.05l-0.07,0.43
	C110.26,41.21,143.5,39.13,147.85,55.5z"/>
<path style="fill:#A1C2D8;" d="M147.58,53.08h0.28c-0.76-21.76-43.92-18.44-43.36-3.76l0.48-1.16
	C109.47,37.53,144.11,35.22,147.58,53.08z"/>
<path style="fill:#40565B;" d="M125.91,89.43c-12.39,0-22.48-14.32-22.48-31.91c-0.003-3.091,0.316-6.175,0.95-9.2
	c0.058-0.276,0.329-0.453,0.605-0.395c0.276,0.058,0.453,0.329,0.395,0.605c-0.618,2.96-0.926,5.976-0.92,9
	c0,17,9.63,30.91,21.48,30.91s21.48-13.87,21.48-30.91c0-0.58,0-1.44,0-2c0-0.276,0.224-0.5,0.5-0.5s0.5,0.224,0.5,0.5
	c0,0.58,0,1.46,0,2C148.39,75.12,138.31,89.43,125.91,89.43z"/>
<path style="fill:#FFFFFF;" d="M126.26,50.54c-13.09-2.19-21.76-0.09-21.76-0.09c-0.5,2.325-0.688,4.706-0.56,7.08
	c-0.029,5.225,0.914,10.41,2.78,15.29c10.195,4.276,20.633,7.949,31.26,11c5.87-5.52,9.78-15,9.91-25.72
	C141.96,56.62,139.35,52.72,126.26,50.54z"/>
<path style="fill:#40565B;" d="M147.85,56c-0.269,0-0.489-0.212-0.5-0.48c-0.39-11.42-12.5-15.29-22.71-15.1
	c-9.65,0.16-19.63,4-19.63,10c0,0.276-0.224,0.5-0.5,0.5s-0.5-0.224-0.5-0.5c0-5.18,7.23-10.8,20.62-11
	c17.08-0.25,23.47,8.47,23.73,16.07c0.011,0.276-0.203,0.509-0.479,0.52c0,0-0.001,0-0.001,0L147.85,56z"/>
<path style="fill:#40565B;" d="M125.91,89.43c-12.39,0-22.48-14.32-22.48-31.91c0-2.395,0.191-4.786,0.57-7.15
	c0-5.1,7.22-10.73,20.61-11c17.08-0.25,23.47,8.47,23.73,16.07c0,0.58,0,1.45,0,2C148.39,75.12,138.31,89.43,125.91,89.43z
	 M125.29,40.43h-0.66c-9.65,0.16-19.63,4-19.63,10c-0.372,2.342-0.56,4.709-0.56,7.08c0,17,9.63,30.91,21.48,30.91
	s21.48-13.87,21.48-30.91c0-0.58,0-1.44,0-2l0,0c-0.43-11.19-12.02-15.1-22.11-15.1V40.43z"/>
<polygon style="fill:#F36F42;" points="126.11,69.66 127.22,70.88 128.32,72.1 126.11,72.1 123.89,72.1 125,70.88 "/>
<path style="fill:#C84A27;" d="M128.33,72.6h-4.43c-0.276,0.002-0.502-0.22-0.503-0.497c-0.001-0.127,0.047-0.25,0.133-0.343
	l2.21-2.44c0.202-0.204,0.531-0.206,0.735-0.005c0.002,0.002,0.003,0.003,0.005,0.005l2.22,2.45
	c0.188,0.202,0.176,0.519-0.027,0.707c-0.093,0.087-0.216,0.134-0.343,0.133L128.33,72.6z M125.03,71.6h2.18l-1.09-1.2L125.03,71.6z
	"/>
<path style="fill:#40565B;" d="M117.31,67.91c-0.2,0.001-0.396-0.051-0.57-0.15c-0.53-0.362-0.824-0.981-0.77-1.62v-4.4
	c-0.934,0.103-1.863-0.229-2.52-0.9c-0.179-0.21-0.155-0.526,0.055-0.705c0.21-0.179,0.526-0.155,0.705,0.055
	c0.67,0.79,2.11,0.51,2.13,0.51h1c0.707-0.011,1.289,0.553,1.3,1.26c0,0,0,0,0,0v4.18c0.057,0.632-0.229,1.247-0.75,1.61
	C117.715,67.855,117.514,67.91,117.31,67.91z M116.98,61.7v4.44c0,0.44,0.14,0.68,0.27,0.75c0.042,0.03,0.098,0.03,0.14,0
	c0.12-0.07,0.25-0.3,0.25-0.74v-4.19c-0.011-0.154-0.144-0.271-0.299-0.26c0,0-0.001,0-0.001,0H116.98z"/>
<path style="fill:#40565B;" d="M111.69,59.32c-0.092,0.001-0.182-0.023-0.26-0.07c-0.237-0.142-0.314-0.449-0.173-0.686
	c0.001-0.001,0.002-0.003,0.003-0.004c0,0,3-4.79,7.06-3.3c0.257,0.101,0.383,0.392,0.282,0.649
	c-0.097,0.247-0.37,0.375-0.622,0.291c-3.32-1.21-5.84,2.84-5.86,2.88C112.029,59.23,111.866,59.321,111.69,59.32z"/>
<path style="fill:#40565B;" d="M134.5,67.91c-0.201-0.002-0.398-0.057-0.57-0.16c-0.521-0.363-0.807-0.978-0.75-1.61v-4.18
	c0.011-0.707,0.593-1.271,1.3-1.26c0,0,0,0,0,0h1c0,0,1.45,0.28,2.13-0.51c0.179-0.21,0.495-0.234,0.705-0.055
	c0.21,0.179,0.234,0.495,0.055,0.705l0,0c-0.658,0.67-1.587,1.001-2.52,0.9v4.39c0.054,0.639-0.24,1.258-0.77,1.62
	C134.904,67.854,134.704,67.91,134.5,67.91z M134.83,61.7h-0.35c-0.153-0.006-0.284,0.108-0.3,0.26v4.18c0,0.44,0.13,0.68,0.25,0.75
	c0.042,0.03,0.098,0.03,0.14,0c0.12-0.07,0.26-0.31,0.27-0.75L134.83,61.7z"/>
<path style="fill:#40565B;" d="M113.84,60.51c0.713,0.62,1.676,0.869,2.6,0.67h0.88c0.431-0.011,0.789,0.329,0.8,0.76
	c0,0.003,0,0.007,0,0.01v4.18c0,1.7-1.65,1.69-1.65,0v-4.81"/>
<path style="fill:#40565B;" d="M137.97,60.51c-0.713,0.62-1.676,0.869-2.6,0.67h-0.88c-0.431-0.011-0.789,0.329-0.8,0.76
	c0,0.003,0,0.007,0,0.01v4.18c0,1.7,1.65,1.69,1.65,0v-4.81"/>
<path style="fill:#40565B;" d="M140.12,59.32c-0.176,0.001-0.339-0.09-0.43-0.24c0,0-2.54-4.09-5.86-2.88
	c-0.257,0.101-0.547-0.025-0.649-0.282s0.025-0.547,0.282-0.649c0.009-0.003,0.018-0.007,0.027-0.01c4.09-1.49,7,3.25,7.06,3.3
	c0.144,0.236,0.07,0.543-0.166,0.687c-0.001,0.001-0.003,0.002-0.004,0.003C140.302,59.297,140.212,59.321,140.12,59.32z"/>
<path style="fill:#A1C2D8;" d="M120.13,78.06c0,0,7.79,2.38,12.63-0.54C132.04,81.41,124.78,84.88,120.13,78.06z"/>
<path style="fill:#40565B;" d="M126.58,82.44c-2.6,0-5-1.44-6.86-4.1c-0.156-0.228-0.097-0.539,0.131-0.695
	c0.126-0.086,0.284-0.11,0.429-0.065c0.08,0,7.64,2.28,12.23-0.49c0.164-0.108,0.376-0.108,0.54,0c0.162,0.111,0.244,0.307,0.21,0.5
	c-0.4,2.16-2.58,4.13-5.17,4.68C127.594,82.379,127.088,82.436,126.58,82.44z M121.42,78.9c1.538,1.937,4.018,2.867,6.45,2.42
	c1.665-0.317,3.118-1.323,4-2.77C128.24,80.06,123.7,79.4,121.42,78.9z"/>
<path style="fill:#A9D7F3;" d="M1.12,154.32v7.23c13.12,27.28,34,11,113.26,14.09c49.63,2,116.22,2.82,128.19-11v-10.32H1.12z"/>
<polygon style="fill:#A9D7F3;" points="242.57,154.32 250.9,138.88 31.25,138.53 1.12,154.32 "/>
<path style="fill:#3F555A;" d="M251.46,150.18c-0.552,0-1-0.448-1-1l-0.15-10.59c0-0.552,0.448-1,1-1l0,0c0.552,0,1,0.448,1,1
	l0.15,10.59C252.46,149.732,252.012,150.18,251.46,150.18z"/>
<path style="fill:#3F555A;" d="M1.12,162.55L1.12,162.55c-0.552,0-1-0.448-1-1l0.18-7.09c0.008-0.361,0.211-0.69,0.53-0.86
	l29.83-15.87c0.489-0.26,1.095-0.074,1.355,0.415c0.26,0.489,0.074,1.095-0.415,1.355L2.29,155.07l-0.17,6.5
	C2.109,162.114,1.665,162.55,1.12,162.55z"/>
<path style="fill:#3F555A;" d="M242.45,155.59H1c-0.552,0.003-1.002-0.443-1.005-0.995c-0.002-0.369,0.2-0.71,0.525-0.885
	l29.23-15.87c0.147-0.08,0.312-0.121,0.48-0.12h220.81c0.552-0.002,1.001,0.445,1.003,0.997c0,0.169-0.042,0.335-0.123,0.483
	l-8.6,15.87C243.146,155.388,242.813,155.587,242.45,155.59z M4.94,153.59h236.91l7.51-13.87H30.49L4.94,153.59z"/>
<g style="opacity:0.2;">
	<path style="fill:#3F555A;" d="M186.92,150.52c-1.583,0.004-3.158-0.232-4.67-0.7c-0.914-0.22-1.677-0.846-2.07-1.7
		c-0.149-0.487-0.044-1.017,0.28-1.41c0.56-0.7,1.57-0.9,3-0.6l2.66,0.55c0.541,0.11,0.89,0.638,0.78,1.18
		c-0.034,0.166-0.11,0.321-0.22,0.45c-0.067,0.08-0.14,0.153-0.22,0.22c1.99,0.074,3.972-0.284,5.81-1.05l0.3-0.14
		c-0.248-0.188-0.525-0.333-0.82-0.43c-1.408-0.435-2.86-0.714-4.33-0.83c-7.64-0.83-15.54-0.57-23.17-0.32
		c-3.73,0.12-7.59,0.25-11.39,0.25c-0.552,0-1-0.448-1-1s0.448-1,1-1c3.76,0,7.61-0.13,11.32-0.25c7.7-0.25,15.67-0.51,23.45,0.33
		c1.616,0.128,3.213,0.437,4.76,0.92c0.936,0.269,1.727,0.899,2.2,1.75c0.183,0.467,0.147,0.993-0.1,1.43
		c-0.329,0.529-0.825,0.934-1.41,1.15C191.129,150.132,189.033,150.541,186.92,150.52z"/>
	<path style="fill:#3F555A;" d="M210.85,147.04c-6.61,0-12.57-0.32-17.91-2.44c-0.514-0.204-0.764-0.786-0.56-1.3
		s0.786-0.764,1.3-0.56c5.56,2.21,12,2.34,19.21,2.29l0,0c0.552,0,1,0.448,1,1s-0.448,1-1,1L210.85,147.04z"/>
	<path style="fill:#3F555A;" d="M70.15,147.23c-2.981-0.002-5.948-0.389-8.83-1.15c-1.68-0.45-3.31-1-4.87-1.59
		s-3.46-1.23-5.25-1.67c-6-1.49-12.78-1-18.73-0.55c-0.552,0.041-1.034-0.373-1.075-0.925c-0.041-0.552,0.373-1.034,0.925-1.075
		c6.1-0.46,13-1,19.36,0.6c1.841,0.485,3.657,1.063,5.44,1.73c1.53,0.55,3.12,1.11,4.72,1.54c3.911,1.034,7.98,1.332,12,0.88
		c2.454-0.321,4.888-0.782,7.29-1.38c1.35-0.31,2.74-0.63,4.13-0.9c4.92-0.95,8.9-0.94,12.18,0c0.53,0.155,0.834,0.711,0.678,1.241
		c-0.155,0.529-0.709,0.832-1.238,0.679c-3-0.87-6.64-0.86-11.24,0c-1.36,0.26-2.73,0.58-4.06,0.88
		c-2.477,0.617-4.988,1.092-7.52,1.42C72.763,147.123,71.457,147.213,70.15,147.23z"/>
	<path style="fill:#3F555A;" d="M87.46,149.02c-0.494,0.001-0.987-0.053-1.47-0.16c-1.24-0.29-1.6-1-1.54-1.66
		c0.118-0.617,0.569-1.118,1.17-1.3c2.8-1.132,5.918-1.192,8.76-0.17c0.514,0.202,0.766,0.783,0.564,1.297
		c-0.194,0.493-0.74,0.749-1.244,0.583c-1.018-0.366-2.088-0.568-3.17-0.6c0.304,0.461,0.177,1.081-0.283,1.386
		c-0.05,0.033-0.102,0.061-0.157,0.084C89.259,148.836,88.364,149.02,87.46,149.02z"/>
	<path style="fill:#3F555A;" d="M69.41,150.52c-4.802-0.164-9.571-0.859-14.22-2.07c-7.58-1.73-14.36-3-20.58-1.25
		c-0.357,0.095-0.696,0.25-1,0.46h0.13c1.174,0.341,2.404,0.45,3.62,0.32v-0.11c-0.131-0.537,0.198-1.078,0.734-1.209
		c0.002,0,0.004-0.001,0.006-0.001c1.096-0.255,2.245,0.105,3,0.94c0.343,0.433,0.27,1.062-0.163,1.405
		c-0.069,0.055-0.146,0.1-0.227,0.135c-2.366,1.01-5.01,1.169-7.48,0.45c-0.508-0.117-0.974-0.369-1.35-0.73l-0.07-0.08
		c-0.376-0.426-0.505-1.016-0.34-1.56c0.499-1.026,1.444-1.764,2.56-2c6.67-1.89,13.72-0.57,21.57,1.23c7.27,1.66,14.31,3,20.56,1.1
		c0.517-0.193,1.093,0.07,1.286,0.587c0.193,0.517-0.07,1.093-0.587,1.286c-0.039,0.015-0.079,0.027-0.119,0.036
		C74.362,150.172,71.892,150.529,69.41,150.52z"/>
	<path style="fill:#3F555A;" d="M56.71,151.7h-0.13c-3.9-0.54-7.87-0.89-11.8-1c-0.552-0.022-0.982-0.488-0.96-1.04
		c0.022-0.552,0.488-0.982,1.04-0.96c4.015,0.153,8.02,0.506,12,1.06c0.552,0.039,0.969,0.518,0.93,1.07
		c-0.039,0.552-0.518,0.969-1.07,0.93L56.71,151.7z"/>
</g>
<path style="fill:#3F555A;" d="M242.45,165.67c-0.552,0-1-0.448-1-1v-10.08c0-0.552,0.448-1,1-1s1,0.448,1,1v10.08
	C243.45,165.222,243.002,165.67,242.45,165.67z"/>
<path style="fill:#FFFFFF;" d="M96.35,99.39l-7.53,40.33l31.76,8.91l7.83,3.43l4.25,0.37c3.88,0.34,6.9-4,5.74-7.23l0,0
	c-0.831-2.028-2.809-3.349-5-3.34l-11-0.42l-22.62-7.55l1.8-9.57C101.458,115.751,99.683,107.286,96.35,99.39z"/>
<path style="fill:#D0E4F0;" d="M138.38,145.19c-0.831-2.028-2.809-3.349-5-3.34l-11-0.42l-22.62-7.55l1.82-9.56
	c-0.113-8.564-1.879-17.025-5.2-24.92l-0.91,4.88c2.571,7.069,3.94,14.519,4.05,22.04l-1.76,9.57l22.62,7.55l11,0.42
	c2.191-0.009,4.169,1.312,5,3.34c0.468,1.507,0.233,3.145-0.64,4.46C137.91,150.32,139.2,147.5,138.38,145.19z"/>
<path style="fill:#C3D4E0;" d="M89.41,140.32c-0.552-0.003-0.998-0.453-0.995-1.005c0.002-0.366,0.203-0.701,0.525-0.875l10.12-5.38
	c0.489-0.26,1.095-0.074,1.355,0.415c0.26,0.489,0.074,1.095-0.415,1.355l-10.12,5.42C89.731,140.311,89.57,140.335,89.41,140.32z"
	/>
<path style="fill:#C3D4E0;" d="M99.89,132.27h-0.15l-8.9-1.31c-0.552-0.08-0.935-0.593-0.855-1.145
	c0.08-0.552,0.593-0.935,1.145-0.855l8.9,1.31c0.552,0.039,0.969,0.518,0.93,1.07C100.921,131.892,100.442,132.309,99.89,132.27z"/>
<path style="fill:#C3D4E0;" d="M101.03,126.1c-0.226-0.001-0.444-0.079-0.62-0.22l-6.18-4.95c-0.42-0.359-0.47-0.99-0.111-1.41
	c0.343-0.402,0.939-0.467,1.361-0.15l6.18,4.95c0.431,0.346,0.5,0.975,0.154,1.406C101.624,125.964,101.335,126.101,101.03,126.1z"
	/>
<path style="fill:#C3D4E0;" d="M100.37,141.32c-0.552-0.002-0.999-0.451-0.997-1.003c0-0.155,0.037-0.308,0.107-0.447l2.49-4.92
	c0.249-0.494,0.851-0.694,1.345-0.445c0.494,0.249,0.694,0.851,0.445,1.345l-2.49,4.92C101.099,141.11,100.75,141.323,100.37,141.32
	z"/>
<path style="fill:#C3D4E0;" d="M108.15,144.27c-0.552,0.001-1.001-0.445-1.003-0.997c0-0.11,0.017-0.219,0.053-0.323l1.9-5.62
	c0.141-0.534,0.689-0.852,1.223-0.711s0.852,0.689,0.711,1.223c-0.012,0.044-0.026,0.086-0.043,0.128l-1.9,5.62
	C108.954,143.994,108.576,144.267,108.15,144.27z"/>
<path style="fill:#C3D4E0;" d="M116.15,145.22h-0.21c-0.54-0.115-0.885-0.645-0.771-1.186c0-0.001,0.001-0.003,0.001-0.004
	l0.92-4.28c0.116-0.552,0.658-0.906,1.21-0.79c0.552,0.116,0.906,0.658,0.79,1.21l-0.92,4.28
	C117.06,144.919,116.631,145.242,116.15,145.22z"/>
<path style="fill:#40565B;" d="M133.06,152.94h-0.46l-4.25-0.37h-0.16l-7.83-3.43l-31.68-8.94c-0.249-0.068-0.405-0.316-0.36-0.57
	l7.54-40.31c0.039-0.219,0.218-0.387,0.44-0.41c0.221-0.028,0.433,0.101,0.51,0.31c0.06,0.14,5.87,14.49,5.24,25.14
	c0.001,0.02,0.001,0.04,0,0.06l-1.68,9.14l22.14,7.39l10.93,0.42c3.029-0.128,5.589,2.223,5.717,5.253
	c0.061,1.432-0.441,2.83-1.397,3.897C136.652,152.011,134.917,152.904,133.06,152.94z M128.52,151.56l4.17,0.36
	c2.624,0.449,5.115-1.314,5.564-3.938c0.449-2.624-1.314-5.115-3.938-5.564c-0.299-0.051-0.603-0.074-0.907-0.068l-11-0.42h-0.14
	l-22.63-7.61c-0.233-0.08-0.373-0.318-0.33-0.56l1.75-9.54c0.48-8.32-3.06-19-4.54-23l-7.13,38.1l31.3,8.78L128.52,151.56z
	 M101.58,124.32L101.58,124.32z"/>
<path style="fill:#40565B;" d="M120.58,149.13h-0.13c-0.268-0.068-0.429-0.341-0.36-0.608c0-0.001,0-0.001,0-0.002l1.86-7.19
	c0.069-0.276,0.349-0.444,0.625-0.375s0.444,0.349,0.375,0.625l-1.86,7.19C121.025,148.994,120.813,149.144,120.58,149.13z"/>
<path style="fill:#FFFFFF;" d="M154.41,99.39l7.54,40.33l-31.74,8.91l-7.83,3.43l-4.25,0.37c-3.88,0.34-6.9-4-5.74-7.23l0,0
	c0.831-2.028,2.809-3.349,5-3.34l11-0.42l22.62-7.55l-1.8-9.57C149.322,115.753,151.088,107.288,154.41,99.39z"/>
<path style="fill:#D0E4F0;" d="M154.41,99.39l-0.67,3.21l6.48,34.66l-31.74,8.91l-7.83,3.43l-4.25,0.37
	c-1.421,0.107-2.824-0.374-3.88-1.33c0.835,2.359,3.109,3.9,5.61,3.8l4.25-0.37l7.83-3.43l31.74-8.91L154.41,99.39z"/>
<path style="fill:#C3D4E0;" d="M161.35,140.32c-0.164-0.001-0.326-0.042-0.47-0.12l-10.12-5.38c-0.489-0.26-0.675-0.866-0.415-1.355
	c0.26-0.489,0.866-0.675,1.355-0.415l0,0l10.12,5.38c0.486,0.262,0.667,0.869,0.405,1.355c-0.174,0.322-0.509,0.523-0.875,0.525
	V140.32z"/>
<path style="fill:#C3D4E0;" d="M150.87,132.27c-0.552,0.039-1.031-0.378-1.07-0.93c-0.039-0.552,0.378-1.031,0.93-1.07l8.9-1.31
	c0.552-0.08,1.065,0.303,1.145,0.855c0.08,0.552-0.303,1.065-0.855,1.145l-8.9,1.31H150.87z"/>
<path style="fill:#C3D4E0;" d="M149.74,126.1c-0.552,0.002-1.002-0.443-1.004-0.996c-0.001-0.305,0.136-0.594,0.374-0.784l6.18-4.95
	c0.442-0.332,1.068-0.243,1.4,0.199c0.317,0.422,0.251,1.018-0.15,1.361l-6.18,4.95C150.184,126.021,149.966,126.099,149.74,126.1z"
	/>
<path style="fill:#C3D4E0;" d="M150.4,141.32c-0.377-0.001-0.721-0.214-0.89-0.55l-2.49-4.92c-0.249-0.494-0.049-1.096,0.445-1.345
	c0.494-0.249,1.096-0.049,1.345,0.445l2.49,4.92c0.249,0.493,0.05,1.094-0.443,1.343c-0.139,0.07-0.292,0.106-0.447,0.107H150.4z"/>
<path style="fill:#C3D4E0;" d="M142.58,144.27c-0.43,0.001-0.812-0.273-0.95-0.68l-1.9-5.62c-0.212-0.51,0.029-1.095,0.539-1.307
	c0.51-0.212,1.095,0.029,1.307,0.539c0.017,0.042,0.032,0.085,0.043,0.128l1.9,5.62c0.177,0.523-0.104,1.091-0.627,1.267
	c-0.104,0.035-0.213,0.053-0.323,0.053L142.58,144.27z"/>
<path style="fill:#C3D4E0;" d="M134.58,145.22c-0.48,0.011-0.899-0.321-1-0.79l-0.92-4.28c-0.116-0.552,0.238-1.094,0.79-1.21
	c0.552-0.116,1.094,0.238,1.21,0.79l0.92,4.28c0.117,0.54-0.226,1.072-0.766,1.189c-0.001,0-0.003,0.001-0.004,0.001L134.58,145.22z
	"/>
<path style="fill:#40565B;" d="M117.71,152.94c-1.86-0.041-3.596-0.942-4.7-2.44c-2.024-2.258-1.835-5.728,0.423-7.753
	c1.067-0.957,2.466-1.458,3.897-1.397l10.93-0.42l22.14-7.39l-1.68-9.14c-0.001-0.02-0.001-0.04,0-0.06
	c-0.63-10.65,5.18-25,5.24-25.14c0.028-0.276,0.274-0.478,0.55-0.45c0.276,0.028,0.478,0.274,0.45,0.55l7.54,40.33
	c0.045,0.255-0.111,0.502-0.36,0.57l-31.74,8.91l-7.76,3.4h-0.16l-4.25,0.37L117.71,152.94z M149.71,124.25l1.75,9.54
	c0.043,0.242-0.097,0.48-0.33,0.56l-22.62,7.55h-0.14l-11,0.42c-2.638,0.264-4.562,2.617-4.297,5.255
	c0.255,2.546,2.462,4.444,5.017,4.315l4.17-0.36l7.75-3.39l31.36-8.82l-7.12-38.13c-1.48,4.08-5.02,14.75-4.54,23.07V124.25z"/>
<path style="fill:#40565B;" d="M130.21,149.13c-0.225-0.001-0.421-0.153-0.48-0.37l-1.86-7.19c-0.069-0.276,0.099-0.556,0.375-0.625
	s0.556,0.099,0.625,0.375l1.86,7.19c0.069,0.267-0.091,0.54-0.358,0.61c-0.001,0-0.001,0-0.002,0L130.21,149.13z"/>
</svg>
