<svg id="Layer_1" data-name="Layer 1" xmlns="http://www.w3.org/2000/svg" viewBox="0 0 174.38 199"><title>home-illustration-pilot-why</title><path d="M144.16,188.06l-2.75-53.18c-.17-3.76,3.51-6.66,7.44-5.85h0a5.86,5.86,0,0,1,4.81,5.26l3.73,53.77h10l-5.79-55.44a5.52,5.52,0,0,1,.07-1.57l3-17.15-32.37,1.58,2.63,11.89a5.22,5.22,0,0,1,.07.88v59.8" transform="translate(-0.26 0.04)" style="fill:#a1c2d8"/><path d="M160.09,131.05l3-17.07-30.75,1.5L135,127.37a5.22,5.22,0,0,1,.07.88v59.8h7.55l-2.76-53.17a6,6,0,0,1,6-6,5.62,5.62,0,0,1,.92.07,6.68,6.68,0,0,1,2.14.08,5.86,5.86,0,0,1,4.81,5.26l3.73,53.77h8.41L160,132.61A5.43,5.43,0,0,1,160.09,131.05Z" transform="translate(-0.26 0.04)" style="fill:#a1c2d8"/><path d="M144.16,188.48a.41.41,0,0,1-.41-.39L141,134.91a6,6,0,0,1,2.14-4.82,6.79,6.79,0,0,1,5.81-1.46,6.31,6.31,0,0,1,5.14,5.64l3.7,53.38H167l-5.75-55a5.65,5.65,0,0,1,.07-1.69l2.89-16.63-31.35,1.54,2.52,11.41a5.62,5.62,0,0,1,.08,1v59.8a.42.42,0,0,1-.48.35.42.42,0,0,1-.35-.35V128.26a4.54,4.54,0,0,0-.07-.82l-2.62-11.87a.41.41,0,0,1,.33-.49h.06l32.37-1.58a.4.4,0,0,1,.33.14.44.44,0,0,1,.1.35l-3,17.15a5.1,5.1,0,0,0-.06,1.46L167.83,188a.42.42,0,0,1-.38.46h-10a.41.41,0,0,1-.41-.39l-3.73-53.77a5.48,5.48,0,0,0-4.48-4.88,6,6,0,0,0-5.1,1.28,5.14,5.14,0,0,0-1.87,4.14L144.58,188a.42.42,0,0,1-.39.44Z" transform="translate(-0.26 0.04)" style="fill:#40565b"/><line x1="134.74" y1="184.21" x2="134.74" y2="188.1" style="fill:none"/><polyline points="156.86 184.21 157.13 188.1 167.15 188.1 166.75 184.21" style="fill:#d0e4f0"/><line x1="143.89" y1="188.1" x2="143.69" y2="184.21" style="fill:none"/><polyline points="156.86 184.21 157.13 188.1 165.55 188.1 165.14 184.21" style="fill:#fff"/><polyline points="134.74 184.21 134.74 188.1 142.29 188.1 142.09 184.21" style="fill:#fff"/><path d="M163.05,114" transform="translate(-0.26 0.04)" style="fill:#fff"/><rect x="125.39" y="188.1" width="21.31" height="6.79" style="fill:#d0e4f0"/><rect x="154.04" y="188.1" width="17.51" height="6.79" style="fill:#d0e4f0"/><path d="M135,188.48a.42.42,0,0,1-.42-.42v-3.89a.42.42,0,1,1,.83-.13.29.29,0,0,1,0,.13v3.89A.42.42,0,0,1,135,188.48Z" transform="translate(-0.26 0.04)" style="fill:#40565b"/><path d="M167.42,188.48h-10a.41.41,0,0,1-.41-.39l-.27-3.89a.42.42,0,1,1,.83,0l.24,3.51H167l-.36-3.43a.41.41,0,0,1,.36-.46h0a.41.41,0,0,1,.46.36h0l.41,3.89a.42.42,0,0,1-.38.46h-.07Z" transform="translate(-0.26 0.04)" style="fill:#40565b"/><path d="M144.16,188.48a.41.41,0,0,1-.41-.39l-.2-3.89a.42.42,0,0,1,.48-.35.42.42,0,0,1,.35.35l.2,3.89a.42.42,0,0,1-.39.44Z" transform="translate(-0.26 0.04)" style="fill:#40565b"/><path d="M147,195.26H125.66a.42.42,0,0,1-.42-.42v-6.78a.42.42,0,0,1,.42-.42H147a.42.42,0,0,1,.42.42v6.79A.42.42,0,0,1,147,195.26Zm-20.9-.83h20.48v-6H126.07Z" transform="translate(-0.26 0.04)" style="fill:#40565b"/><path d="M171.83,195.26H154.3a.42.42,0,0,1-.42-.42v-6.78a.42.42,0,0,1,.42-.42h17.53a.42.42,0,0,1,.42.42v6.79A.42.42,0,0,1,171.83,195.26Zm-17.1-.83h16.68v-6H154.72Z" transform="translate(-0.26 0.04)" style="fill:#40565b"/><path d="M144,184.59h-9a.42.42,0,1,1-.13-.83H144a.42.42,0,0,1,.35.48A.42.42,0,0,1,144,184.59Z" transform="translate(-0.26 0.04)" style="fill:#40565b"/><path d="M167,184.59h-9.95a.42.42,0,1,1-.13-.83H167a.42.42,0,1,1,.13.83Z" transform="translate(-0.26 0.04)" style="fill:#40565b"/><path d="M114.83,86.87,98.56,97l-12.3.54a6.09,6.09,0,0,0-5.55,4.28l-.32,1a6.38,6.38,0,0,0,6.74,8.25l4.76-.47,8.75-4.39L124.1,93.86,134.92,62c1.38-5.59-3.38-8.11-5.39-4.62C128,60,114.83,86.87,114.83,86.87Z" transform="translate(-0.26 0.04)" style="fill:#d0e4f0"/><path d="M99.4,107a.42.42,0,0,1-.41-.38l-.89-9.53a.42.42,0,0,1,.83-.08l.89,9.53a.42.42,0,0,1-.38.45Z" transform="translate(-0.26 0.04)" style="fill:#164a67"/><path d="M108.83,102.75a.82.82,0,0,1-.74-.45l-4.43-8.56a.83.83,0,0,1,1.47-.78l4.43,8.56a.83.83,0,0,1-.36,1.12.85.85,0,0,1-.38.09Z" transform="translate(-0.26 0.04)" style="fill:#c3d4e0"/><path d="M118.17,97.82a.83.83,0,0,1-.65-.31L111,89.38a.83.83,0,0,1,.36-1.12.82.82,0,0,1,.93.12l6.57,8.13a.83.83,0,0,1-.65,1.35Z" transform="translate(-0.26 0.04)" style="fill:#c3d4e0"/><path d="M124.1,94.7a.82.82,0,0,1-.5-.17l-9.32-7a.83.83,0,0,1,1-1.33l9.32,7a.83.83,0,0,1-.5,1.5Z" transform="translate(-0.26 0.04)" style="fill:#c3d4e0"/><path d="M127.43,84.89a.81.81,0,0,1-.22,0l-9.91-2.73a.83.83,0,0,1,.44-1.6l9.91,2.73a.83.83,0,0,1-.22,1.63Z" transform="translate(-0.26 0.04)" style="fill:#c3d4e0"/><path d="M131.57,72.65h0l-8.82-.52a.83.83,0,1,1,.1-1.66l8.82.52a.83.83,0,0,1,0,1.66Z" transform="translate(-0.26 0.04)" style="fill:#c3d4e0"/><path d="M134.61,63.69h-8.14a.83.83,0,0,1,0-1.66h8.14a.83.83,0,1,1,0,1.66Z" transform="translate(-0.26 0.04)" style="fill:#c3d4e0"/><path d="M86.44,111.57A6.82,6.82,0,0,1,80,102.75l.32-1a6.52,6.52,0,0,1,5.93-4.57l12.19-.54,16.07-10c1-2.1,13.19-26.84,14.71-29.47a3.08,3.08,0,0,1,3.9-1.59c1.69.68,3.12,3,2.26,6.52l-10.82,32a.45.45,0,0,1-.2.23l-23.48,12.29L92.07,111h-.15l-4.76.47A2.65,2.65,0,0,1,86.44,111.57ZM132,56.13a2.45,2.45,0,0,0-2.07,1.39c-1.54,2.67-14.6,29.26-14.74,29.53a.41.41,0,0,1-.15.17L98.73,97.38a.36.36,0,0,1-.2.06L86.23,98a5.69,5.69,0,0,0-5.17,4l-.32,1a6,6,0,0,0,4,7.48,6.11,6.11,0,0,0,2.29.23l4.68-.47,8.69-4.36,23.36-12.31,10.76-31.77c.74-3-.4-5-1.77-5.52A2.18,2.18,0,0,0,132,56.13ZM114.83,86.87Z" transform="translate(-0.26 0.04)" style="fill:#164a67"/><path d="M134,118.56a4.32,4.32,0,0,1-3.73-4l-3.7-50.36c-1.3-12.54,5.82-12.78,12.21-12.78h.3a4.57,4.57,0,0,1,3.28,1.43c1.89,1.89,7.41,1.89,9.3,0a4.53,4.53,0,0,1,3.61-1.2l6.36.59h.35c7.81,0,13.4,2.4,12.09,15l-4.11,41.82c-.76,7.73.71,15-15.48,12.24Z" transform="translate(-0.26 0.04)" style="fill:#d56"/><path d="M77.52,103.71S42.29,78,39,78.84l1.84-3.16c6.21-1.34,45.66,16.5,45.66,16.5" transform="translate(-0.26 0.04)" style="fill:#d0e4f0"/><path d="M96.39,93.64s-3.26-5.82-5.82-4.2S78,97.69,77.83,102.7s4.07,5.08,4.07,5.08Z" transform="translate(-0.26 0.04)" style="fill:#fff"/><path d="M82.1,108.2h-.17a4.79,4.79,0,0,1-3.14-1.4,5.5,5.5,0,0,1-1.34-4.11c.14-5.19,9.9-11.73,12.88-13.61a2.21,2.21,0,0,1,1.79-.27c2.33.59,4.52,4.46,4.62,4.62l.16.28Zm9.42-18.64a1.39,1.39,0,0,0-.74.22c-2.06,1.3-12.36,8-12.5,12.93a4.67,4.67,0,0,0,1.1,3.51,4,4,0,0,0,2.45,1.14l14-13.79c-.53-.87-2.27-3.53-3.93-3.95A2.32,2.32,0,0,0,91.52,89.56Z" transform="translate(-0.26 0.04)"/><path d="M73.46,101.61a.84.84,0,0,1-.84-.82.87.87,0,0,1,0-.28l1.71-5a.83.83,0,0,1,1.57.54h0l-1.71,5A.83.83,0,0,1,73.46,101.61Z" transform="translate(-0.26 0.04)" style="fill:#c3d4e0"/><path d="M68.88,98.35H68.7a.82.82,0,0,1-.64-1v0L69,93.19a.83.83,0,1,1,1.64.26s0,.06,0,.09l-.91,4.16A.81.81,0,0,1,68.88,98.35Z" transform="translate(-0.26 0.04)" style="fill:#c3d4e0"/><path d="M62.89,94.15h-.15a.83.83,0,0,1-.68-1v0l.47-2.64a.83.83,0,0,1,1.64.29l-.47,2.64A.83.83,0,0,1,62.89,94.15Z" transform="translate(-0.26 0.04)" style="fill:#c3d4e0"/><path d="M59.33,91.38H59.2a.83.83,0,0,1-.69-.95h0l.32-2.26a.83.83,0,1,1,1.64.26l-.35,2.24A.83.83,0,0,1,59.33,91.38Z" transform="translate(-0.26 0.04)" style="fill:#c3d4e0"/><path d="M77.52,104.12a.41.41,0,0,1-.24-.08C63.72,94.16,41.39,78.71,39.1,79.24a.43.43,0,0,1-.51-.31.47.47,0,0,1,0-.31l1.87-3.16a.4.4,0,0,1,.27-.19c6.27-1.35,44.3,15.8,45.92,16.53a.42.42,0,0,1,.28.52.43.43,0,0,1-.52.29l-.1,0C86,92.38,47.67,75.11,41.13,76.05l-1.42,2.4c1.5.36,5.79,2.41,20,12.17,9.12,6.25,17.95,12.68,18,12.74a.43.43,0,0,1,.07.59.4.4,0,0,1-.32.16Z" transform="translate(-0.26 0.04)" style="fill:#40565b"/><path d="M11.83,68s-8.33,4.3-8.32,6.47c-3.77,16.06,1.9,46.07,8.27,48.63.2,1.09,45.28-3.53,45.28-3.53,1.46-.11,2.52-1.16,2.33-2.32a196.63,196.63,0,0,0-3-41.46C55.39,70.22,48,66.67,48,65" transform="translate(-0.26 0.04)" style="fill:#8fd1be"/><path d="M137.17,51.62l-.19.07,5.77,34.22a1.49,1.49,0,0,0,2.66,0l16.42-33.62h-.18l-6.36-.59a4.53,4.53,0,0,0-3.61,1.2c-1.89,1.89-7.41,1.89-9.3,0a4.57,4.57,0,0,0-3.28-1.43h-1.43Z" transform="translate(-0.26 0.04)" style="fill:#d0e4f0"/><path d="M137,51.47l.19.15.44-.16Z" transform="translate(-0.26 0.04)" style="fill:#d0e4f0"/><polyline points="44.35 192.11 46.73 136.56 21.18 138.95 17.99 192.11 9.1 192.11 14.31 138.84 11.53 123.4 54.86 119.69 52.46 135.04 52.46 192.11" style="fill:#fff"/><polygon points="51.26 120 54.86 119.69 52.46 135.04 52.46 192.11 48.91 192.11 48.91 135.04 51.26 120" style="fill:#d0e4f0"/><polygon points="43.18 136.56 43.16 136.89 21.18 138.95 17.99 192.11 14.43 192.11 17.63 138.95 43.18 136.56" style="fill:#d0e4f0"/><polygon points="52.46 146.84 52.46 135.04 54.86 119.69 11.53 123.4 14.31 138.84 13.53 146.84 13.53 146.84 20.71 146.84 20.71 146.84 21.18 138.95 46.73 136.56 46.29 146.84 52.46 146.84" style="fill:#3aa1d6"/><rect x="41.86" y="192.12" width="18.89" height="6.43" style="fill:#d0e4f0"/><rect x="5.21" y="192.12" width="15.52" height="6.43" style="fill:#d0e4f0"/><path d="M61,199H42.12a.42.42,0,0,1-.42-.42v-6.43a.42.42,0,0,1,.42-.42H61a.42.42,0,0,1,.42.42v6.43A.42.42,0,0,1,61,199Zm-18.48-.83H60.6v-5.6H42.54Z" transform="translate(-0.26 0.04)" style="fill:#40565b"/><path d="M21,199H5.46a.42.42,0,0,1-.42-.42v-6.43a.42.42,0,0,1,.42-.42H21a.42.42,0,0,1,.42.42v6.43A.42.42,0,0,1,21,199Zm-15.11-.83H20.57v-5.6H5.88Z" transform="translate(-0.26 0.04)" style="fill:#40565b"/><rect x="13.53" y="146.42" width="7.18" height="0.83"/><rect x="46.29" y="146.42" width="6.17" height="0.83"/><rect x="45.82" y="156.92" width="6.64" height="1.66" style="fill:#c3d4e0"/><rect x="45.82" y="163.14" width="6.64" height="1.66" style="fill:#c3d4e0"/><rect x="45.29" y="169.36" width="7.17" height="1.66" style="fill:#c3d4e0"/><rect x="45.03" y="175.31" width="7.43" height="1.66" style="fill:#c3d4e0"/><rect x="44.77" y="181.78" width="7.7" height="1.66" style="fill:#c3d4e0"/><rect x="44.51" y="187.6" width="7.96" height="1.66" style="fill:#c3d4e0"/><rect x="9.46" y="187.6" width="8.82" height="1.66" style="fill:#c3d4e0"/><rect x="10.08" y="181.78" width="8.48" height="1.66" style="fill:#c3d4e0"/><rect x="10.66" y="175.31" width="8.17" height="1.66" style="fill:#c3d4e0"/><rect x="11.35" y="169.36" width="7.81" height="1.66" style="fill:#c3d4e0"/><rect x="11.9" y="163.14" width="7.81" height="1.66" style="fill:#c3d4e0"/><rect x="12.54" y="156.92" width="7.44" height="1.66" style="fill:#c3d4e0"/><path d="M44.61,192.49h0a.41.41,0,0,1-.4-.43L46.56,137,21.83,139.3l-3.17,52.8a.41.41,0,0,1-.41.39H9.36a.42.42,0,0,1-.41-.43v0l5.2-53.21-2.76-15.39a.42.42,0,0,1,.34-.49h0l43.32-3.71a.43.43,0,0,1,.34.13.41.41,0,0,1,.11.35l-2.39,15.35v57a.42.42,0,1,1-.83.13.29.29,0,0,1,0-.13V135l2.32-14.89-42.34,3.62,2.69,15v.11L9.83,191.66h8L21,138.89a.41.41,0,0,1,.38-.39l25.55-2.4a.42.42,0,0,1,.45.39v0L45,192.09A.43.43,0,0,1,44.61,192.49Z" transform="translate(-0.26 0.04)" style="fill:#40565b"/><path d="M52.73,147.21H46.56a.42.42,0,0,1-.42-.42h0l.42-9.8L21.83,139.3l-.45,7.53a.41.41,0,0,1-.41.39H13.83a.42.42,0,0,1-.41-.43v0l.78-7.93-2.76-15.39a.42.42,0,0,1,.34-.49h0l43.32-3.71a.43.43,0,0,1,.34.13.41.41,0,0,1,.11.35l-2.44,15.34V146.8A.43.43,0,0,1,52.73,147.21ZM12.29,123.73l2.69,15v.11l-.74,7.54h6.33l.45-7.49a.41.41,0,0,1,.38-.39L47,136.1a.42.42,0,0,1,.45.39v0L47,146.37H52.3V135l2.32-14.89Z" transform="translate(-0.26 0.04)" style="fill:#164a67"/><path d="M147,51.28a10.75,10.75,0,0,1-5.56-1.48.83.83,0,0,1,.87-1.42,9.39,9.39,0,0,0,9.29,0,.83.83,0,0,1,.9,1.4A10.24,10.24,0,0,1,147,51.28Z" transform="translate(-0.26 0.04)" style="fill:#c3d4e0"/><path d="M160.59,122.37a36.91,36.91,0,0,1-6.2-.62L133.9,119a4.76,4.76,0,0,1-4.09-4.35l-3.7-50.36c-.5-4.79.18-8.15,2.06-10.29,2.15-2.44,5.5-2.85,8.8-2.92v.83c-3.11.07-6.25.44-8.19,2.64-1.72,2-2.32,5.11-1.85,9.66l3.7,50.38a3.91,3.91,0,0,0,3.37,3.58l20.5,2.79c6,1,10,.73,12.13-1s2.45-4.86,2.69-8.45c.06-.81.11-1.64.19-2.47l4.11-41.82c.57-5.49-.14-9.26-2.19-11.54-1.84-2-4.76-3-9.49-3h-.39l.08-.83H162c5,0,8.1,1,10.1,3.27,2.21,2.46,3,6.45,2.4,12.18l-4.11,41.82c-.08.82-.14,1.64-.19,2.44-.25,3.63-.48,7.06-3,9C165.68,121.8,163.54,122.37,160.59,122.37Z" transform="translate(-0.26 0.04)" style="fill:#bc1a3c"/><path d="M144.08,87.14a1.88,1.88,0,0,1-1.7-1,.24.24,0,0,1,0-.12L136.61,51.8a.42.42,0,1,1,.8-.25.36.36,0,0,1,0,.11l5.75,34.15a1.08,1.08,0,0,0,1.46.41,1.19,1.19,0,0,0,.43-.46l16.37-33.61a.42.42,0,1,1,.8.26.47.47,0,0,1-.05.1L145.78,86.09A1.9,1.9,0,0,1,144.08,87.14Z" transform="translate(-0.26 0.04)" style="fill:#164a67"/><circle cx="145.78" cy="58.63" r="1.19" style="fill:#a1c2d8"/><circle cx="145.38" cy="65.49" r="1.19" style="fill:#a1c2d8"/><circle cx="144.98" cy="72.35" r="1.19" style="fill:#a1c2d8"/><circle cx="144.58" cy="79.21" r="1.19" style="fill:#a1c2d8"/><path d="M146,60.2a1.61,1.61,0,1,1,1.61-1.61A1.61,1.61,0,0,1,146,60.2Zm0-2.39a.78.78,0,1,0,.78.78h0A.78.78,0,0,0,146,57.81Z" transform="translate(-0.26 0.04)" style="fill:#164a67"/><path d="M145.65,67.06a1.61,1.61,0,1,1,1.61-1.61,1.61,1.61,0,0,1-1.61,1.61Zm0-2.39a.78.78,0,1,0,.78.78h0A.78.78,0,0,0,145.65,64.67Z" transform="translate(-0.26 0.04)" style="fill:#164a67"/><path d="M145.25,74a1.61,1.61,0,1,1,1.58-1.65A1.61,1.61,0,0,1,145.25,74Zm0-2.39a.78.78,0,1,0,.78.78h0a.78.78,0,0,0-.74-.82h0Z" transform="translate(-0.26 0.04)" style="fill:#164a67"/><path d="M144.83,80.78a1.61,1.61,0,1,1,1.61-1.61,1.61,1.61,0,0,1-1.61,1.61Zm0-2.39a.78.78,0,1,0,.78.78h0A.78.78,0,0,0,144.83,78.39Z" transform="translate(-0.26 0.04)" style="fill:#164a67"/><path d="M13.53,123.66a5,5,0,0,1-2-.21C4.73,120.51-.55,90,3.08,74.45c.1-2.31,7.38-6.16,8.85-6.92a.42.42,0,1,1,.48.69.31.31,0,0,1-.1,0c-3.49,1.79-8.4,4.91-8.4,6.23v.1c-1.7,7.24-1.57,18.44.34,29.21,1.84,10.37,4.85,17.8,7.68,18.94a.57.57,0,0,1,.13.08c2,.51,27.86-1.88,45-3.63a2.38,2.38,0,0,0,1.67-.8,1.34,1.34,0,0,0,.29-1v-.09a198.46,198.46,0,0,0-3-41.37c-.59-3.32-3.65-5.94-5.88-7.85-1.51-1.29-2.51-2.15-2.51-3a.42.42,0,0,1,.83-.13.29.29,0,0,1,0,.13c0,.42,1.18,1.43,2.22,2.32,2.33,2,5.51,4.72,6.16,8.33a199.21,199.21,0,0,1,3,41.52,2.19,2.19,0,0,1-.47,1.63,3.17,3.17,0,0,1-2.3,1.07c-.1,0-11.39,1.17-22.56,2.17C21.83,123.3,16.12,123.66,13.53,123.66ZM12.16,123Zm0,0Z" transform="translate(-0.26 0.04)" style="fill:#0f716f"/><circle cx="43.06" cy="116.99" r="0.87" style="fill:#29b99a"/><circle cx="55.62" cy="105.74" r="0.87" style="fill:#29b99a"/><path d="M45.13,117.37a.42.42,0,0,1-.35-.48.42.42,0,0,1,.35-.35l9.39-.74a1.08,1.08,0,0,0,1-1.07v-7.22a.42.42,0,0,1,.83-.13.29.29,0,0,1,0,.13v7.22a1.91,1.91,0,0,1-1.75,1.9l-9.39.74Z" transform="translate(-0.26 0.04)" style="fill:#0f716f"/><path d="M43.32,118.24A1.29,1.29,0,1,1,44.61,117h0A1.29,1.29,0,0,1,43.32,118.24Zm0-1.74a.47.47,0,0,0-.41.51.46.46,0,0,0,.51.4.46.46,0,0,0-.05-.91Z" transform="translate(-0.26 0.04)" style="fill:#0f716f"/><path d="M55.89,107a1.29,1.29,0,1,1,1.29-1.29A1.29,1.29,0,0,1,55.89,107Zm0-1.74a.46.46,0,1,0,.46.46h0a.47.47,0,0,0-.46-.43Z" transform="translate(-0.26 0.04)" style="fill:#0f716f"/><rect x="61.05" y="92.61" width="74.32" height="10.71" style="fill:#faac30"/><rect x="61.05" y="97.96" width="74.32" height="5.36" style="fill:#faac30"/><path d="M136.05,103.7H60.9V92.16h75.15Zm-74.32-.83h73.49V93H61.73Z" transform="translate(-0.26 0.04)" style="fill:#f26f42"/><path d="M129.73,103.7h-13.3V92.16h13.3Zm-12.46-.83H128.9V93H117.26Z" transform="translate(-0.26 0.04)" style="fill:#f26f42"/><path d="M122.39,89.72H66.59V81.37h55.8l-.4.84a7.79,7.79,0,0,0-.1,6.36Z" transform="translate(-0.26 0.04)" style="fill:#fff"/><path d="M122.39,89.72H66.59l-.65-6a228.73,228.73,0,0,0,55.33,1.65A9.32,9.32,0,0,0,122.39,89.72Z" transform="translate(-0.26 0.04)" style="fill:#d0e4f0"/><path d="M67.47,92.57h55.36V88.82H67.49a9.84,9.84,0,0,1,0-6.93h55.34V78.14H67.47c-2.78,0-5,3.23-5,7.22S64.7,92.57,67.47,92.57Z" transform="translate(-0.26 0.04)" style="fill:#f36f42"/><path d="M122.83,93H67.47c-3,0-5.45-3.42-5.45-7.63s2.44-7.63,5.45-7.63h55.36a.42.42,0,0,1,.42.42v3.75a.42.42,0,0,1-.42.42h-55a9.38,9.38,0,0,0,0,6.1h55a.42.42,0,0,1,.42.42v3.75A.43.43,0,0,1,122.83,93ZM67.47,78.56c-2.54,0-4.61,3-4.61,6.8s2.07,6.8,4.61,6.8h54.9V89.23H67.49A.42.42,0,0,1,67.1,89a10.23,10.23,0,0,1,0-7.23.42.42,0,0,1,.39-.27h54.88v-2.9Z" transform="translate(-0.26 0.04)" style="fill:#c84a27"/><path d="M122,89.23a.43.43,0,0,1-.38-.25,9.4,9.4,0,0,1,0-7.25.42.42,0,0,1,.76.33,8.58,8.58,0,0,0,0,6.6.42.42,0,0,1-.23.55.4.4,0,0,1-.15,0Z" transform="translate(-0.26 0.04)" style="fill:#40565b"/><rect x="48.17" y="103.32" width="90.47" height="10.12" style="fill:#3aa1d6"/><path d="M138.9,113.82H48.44a.42.42,0,0,1-.42-.42V103.28a.42.42,0,0,1,.42-.42h90.47a.42.42,0,0,1,.42.42V113.4a.42.42,0,0,1-.42.42ZM48.83,113h89.64v-9.29H48.83Z" transform="translate(-0.26 0.04)" style="fill:#40565b"/><path d="M59.58,113.82H57.31a.42.42,0,0,1-.42-.42V103.28a.42.42,0,0,1,.42-.42h2.27a.42.42,0,0,1,.42.42V113.4A.42.42,0,0,1,59.58,113.82ZM57.73,113h1.44v-9.29H57.73Z" transform="translate(-0.26 0.04)" style="fill:#40565b"/><path d="M129.93,113.82h-7.1a.42.42,0,0,1-.42-.42V103.28a.42.42,0,0,1,.42-.42H130a.42.42,0,0,1,.42.42V113.4a.42.42,0,0,1-.42.42Zm-6.71-.83h6.3V103.7h-6.3Z" transform="translate(-0.26 0.04)" style="fill:#40565b"/><path d="M58,112.83S19.44,88.49,16.17,89.42l1.75-3.22c6.16-1.57,45.41,15,45.41,15" transform="translate(-0.26 0.04)" style="fill:#fff"/><path d="M58,112.83s13.33,8.39,19.28-.91-6.78-3.84-5.88-10.32c.46-3.34-8.1-.41-8.1-.41Z" transform="translate(-0.26 0.04)" style="fill:#fff"/><path d="M71.43,101.6c.46-3.34-8.1-.41-8.1-.41s-39.25-16.56-45.41-15l-.68,1.25C25.13,87,62,102.52,62,102.52s8.56-2.93,8.1.41c-.9,6.48,11.83,1,5.88,10.32a10.33,10.33,0,0,1-.74,1A9.9,9.9,0,0,0,77.31,112C83.26,102.62,70.53,108.08,71.43,101.6Z" transform="translate(-0.26 0.04)" style="fill:#d0e4f0"/><path d="M51.83,109.51a.84.84,0,0,1-.84-.82,1,1,0,0,1,0-.25l1.39-4.63a.82.82,0,0,1,1-.55.83.83,0,0,1,.56,1L52.63,109A.82.82,0,0,1,51.83,109.51Z" transform="translate(-0.26 0.04)" style="fill:#c3d4e0"/><path d="M46.74,106.32h-.15a.83.83,0,0,1-.68-1v0l.64-3.6a.83.83,0,1,1,1.64.29l-.64,3.6A.83.83,0,0,1,46.74,106.32Z" transform="translate(-0.26 0.04)" style="fill:#c3d4e0"/><path d="M40.94,102.72h-.11a.83.83,0,0,1-.71-.93h0l.29-2.13a.83.83,0,0,1,1.65.23l-.3,2.08A.83.83,0,0,1,40.94,102.72Z" transform="translate(-0.26 0.04)" style="fill:#c3d4e0"/><path d="M34.38,99h-.1a.83.83,0,0,1-.73-.92h0L33.83,96a.83.83,0,0,1,1.65.2l-.25,2.13A.83.83,0,0,1,34.38,99Z" transform="translate(-0.26 0.04)" style="fill:#c3d4e0"/><path d="M58,113.25a.43.43,0,0,1-.22-.06c-14.86-9.37-39.26-24-41.53-23.36a.41.41,0,0,1-.51-.3.39.39,0,0,1,0-.3L17.56,86a.43.43,0,0,1,.26-.2c6.22-1.59,44.06,14.33,45.67,15a.42.42,0,0,1-.23.81l-.09,0c-.39-.16-38.48-16.2-45-15L16.83,89c1.55.3,6.12,2.17,21.68,11.41,10,5.9,19.62,12,19.71,12.06a.42.42,0,0,1,.12.58.4.4,0,0,1-.34.19Z" transform="translate(-0.26 0.04)" style="fill:#40565b"/><path d="M69.1,116.69c-5.61,0-11.2-3.45-11.29-3.51a.43.43,0,0,1-.16-.52L62.94,101a.43.43,0,0,1,.24-.22c.64-.22,6.35-2.12,8.12-.66a1.59,1.59,0,0,1,.53,1.52c-.32,2.32,1.18,2.85,3.69,3.44,1.53.36,3.1.73,3.62,2s0,2.73-1.49,5A9.58,9.58,0,0,1,69.1,116.69Zm-10.54-4c2,1.16,13.23,7.11,18.39-1,1.28-2,1.76-3.44,1.42-4.28s-1.66-1.19-3-1.52c-2.12-.5-4.77-1.12-4.32-4.36a.75.75,0,0,0-.24-.77c-1-.85-4.86,0-7.15.75Z" transform="translate(-0.26 0.04)" style="fill:#40565b"/><path d="M151.43,90.66l-16.27,10.15-12.3.54a6.09,6.09,0,0,0-5.55,4.28l-.32,1a6.39,6.39,0,0,0,6.74,8.33l4.76-.47,8.75-4.39,23.51-12.39,10.81-31.93c1.38-5.59-3.38-8.11-5.39-4.62C164.62,63.82,151.43,90.66,151.43,90.66Z" transform="translate(-0.26 0.04)" style="fill:#fff"/><path d="M166.83,60.3a5.77,5.77,0,0,1,.75,5.08L156.77,97.31,133.26,109.7l-8.75,4.39-3.8.38a6.33,6.33,0,0,0,3.07.45l4.76-.47,8.75-4.39L160.8,97.67l10.81-31.93C172.83,60.65,169,58.11,166.83,60.3Z" transform="translate(-0.26 0.04)" style="fill:#d0e4f0"/><line x1="134.9" y1="100.85" x2="135.79" y2="110.39" style="fill:none"/><path d="M145.25,106.1a.82.82,0,0,1-.74-.45l-4.08-7.87a.83.83,0,0,1,1.48-.76l4.08,7.87a.83.83,0,0,1-.36,1.12.85.85,0,0,1-.38.09Z" transform="translate(-0.26 0.04)" style="fill:#c3d4e0"/><path d="M154.6,101.33A.83.83,0,0,1,154,101l-6.12-7.57a.83.83,0,0,1,.36-1.12.82.82,0,0,1,.93.12l6.12,7.57a.83.83,0,0,1-.65,1.35Z" transform="translate(-0.26 0.04)" style="fill:#c3d4e0"/><path d="M160.41,98.23a.82.82,0,0,1-.5-.17l-8.69-6.52a.83.83,0,0,1,1-1.33l8.69,6.52a.83.83,0,0,1-.5,1.5Z" transform="translate(-0.26 0.04)" style="fill:#c3d4e0"/><path d="M163.67,88.56h-.22L154.18,86a.83.83,0,0,1,.44-1.6l9.27,2.6a.83.83,0,0,1-.22,1.63Z" transform="translate(-0.26 0.04)" style="fill:#c3d4e0"/><path d="M167.83,76.41h0l-8.5-.45a.83.83,0,0,1-.78-.88h0a.84.84,0,0,1,.88-.78l8.42.48a.83.83,0,0,1,0,1.66h0Z" transform="translate(-0.26 0.04)" style="fill:#c3d4e0"/><path d="M170.76,67.48h-7.18a.83.83,0,1,1,0-1.66h7.18a.83.83,0,1,1,0,1.66Z" transform="translate(-0.26 0.04)" style="fill:#c3d4e0"/><path d="M123.09,115.36a6.82,6.82,0,0,1-6.49-8.82l.32-1a6.51,6.51,0,0,1,5.91-4.58l12.19-.54,16.07-10c1-2.1,13.19-26.84,14.71-29.47a3.08,3.08,0,0,1,3.9-1.59c1.69.68,3.12,3,2.26,6.52l-10.82,32a.45.45,0,0,1-.2.23L137.43,110.5l-8.76,4.4h-.14l-4.76.47C123.55,115.35,123.32,115.36,123.09,115.36ZM168.61,60a2.45,2.45,0,0,0-2.07,1.39C165,64,151.94,90.58,151.83,90.85a.41.41,0,0,1-.15.17l-16.27,10.15a.36.36,0,0,1-.2.06l-12.3.54a5.69,5.69,0,0,0-5.17,4l-.32,1a6,6,0,0,0,4,7.49,6.22,6.22,0,0,0,2.31.23l4.68-.47,8.69-4.36,23.36-12.31,10.76-31.77c.74-3-.4-5-1.77-5.51A2.14,2.14,0,0,0,168.61,60Zm-17.18,30.7Z" transform="translate(-0.26 0.04)" style="fill:#164a67"/><path d="M136.05,110.77a.42.42,0,0,1-.41-.38l-.89-9.53a.42.42,0,0,1,.83-.08l.89,9.53a.42.42,0,0,1-.38.45Z" transform="translate(-0.26 0.04)" style="fill:#164a67"/><path d="M129.07,5.07,133,42a4.27,4.27,0,0,0,4.25,3.89l22,1.75a4.27,4.27,0,0,0,4.25-3.89l3.94-36.94a4.26,4.26,0,0,0-3.87-4.63l-.38,0L133.32.42a4.27,4.27,0,0,0-4.27,4.27C129.05,4.82,129.06,4.94,129.07,5.07Z" transform="translate(-0.26 0.04)" style="fill:#fff"/><path d="M159.25,48.07l-22-1.76h0A4.65,4.65,0,0,1,132.62,42L128.69,5.11h0A4.7,4.7,0,0,1,132.9,0l.42,0,29.89,1.8h0a4.69,4.69,0,0,1,4.64,4.72c0,.13,0,.25,0,.38l-3.94,37A4.66,4.66,0,0,1,159.25,48.07Zm-29.77-43L133.42,42a3.84,3.84,0,0,0,3.84,3.52l22,1.76a3.83,3.83,0,0,0,3.81-3.51L167,6.78a3.87,3.87,0,0,0-3.52-4.18h-.32L133.3.83a3.85,3.85,0,0,0-3.83,3.88c0,.11,0,.22,0,.32Z" transform="translate(-0.26 0.04)" style="fill:#3f555a"/><polygon points="131.39 29.34 144.03 29.34 146.74 35.16 142.54 33.87 140.17 35.16 135.79 33.35 132.73 35.26 129.42 33.33 131.39 29.34" style="fill:#576a6d"/><ellipse cx="144.4" cy="19.88" rx="1.53" ry="4.04" style="fill:#3f555a"/><path d="M147.78,35.79l-4.95-1.51-2.39,1.29-4.37-1.8L133,35.69l-3.85-2.25,2.25-4.57h13.17Zm-17.55-2.66,2.75,1.6,3-1.88,4.4,1.81,2.35-1.27,3.47,1.06L144,29.72H131.91Z" transform="translate(-0.26 0.04)" style="fill:#3f555a"/><path d="M149,14.12a.43.43,0,0,1-.36-.2,4.19,4.19,0,0,0-3.9-2,.42.42,0,1,1-.18-.82h.09a5,5,0,0,1,4.7,2.35.41.41,0,0,1-.15.57.42.42,0,0,1-.21.06Z" transform="translate(-0.26 0.04)" style="fill:#3f555a"/><polygon points="135.79 24.56 136.87 25.77 137.95 26.98 135.79 26.98 133.63 26.98 134.71 25.77 135.79 24.56" style="fill:#f36f42"/><path d="M138.21,27.36h-4.32a.43.43,0,0,1-.41-.43.4.4,0,0,1,.1-.26l2.16-2.42a.43.43,0,0,1,.61,0h0l2.16,2.42a.41.41,0,0,1-.05.59A.42.42,0,0,1,138.21,27.36Zm-3.38-.83h2.46l-1.23-1.38Z" transform="translate(-0.26 0.04)" style="fill:#c84a27"/><path d="M137.74,38.32a7.85,7.85,0,0,1-3.44-.69.42.42,0,0,1-.12-.58.41.41,0,0,1,.51-.16s3.61,1.81,8.85-1a.42.42,0,1,1,.52.66l-.13.07A13,13,0,0,1,137.74,38.32Z" transform="translate(-0.26 0.04)" style="fill:#3f555a"/><path d="M129.07,5.07,133,42a4.27,4.27,0,0,0,4.25,3.89l22,1.75a4.27,4.27,0,0,0,4.25-3.89l3.94-36.94a4.26,4.26,0,0,0-3.87-4.63l-.38,0L133.32.42a4.27,4.27,0,0,0-4.27,4.27C129.05,4.82,129.06,4.94,129.07,5.07Z" transform="translate(-0.26 0.04)" style="fill:#fff"/><path d="M159.25,48.07l-22-1.76h0A4.65,4.65,0,0,1,132.62,42L128.69,5.11h0A4.7,4.7,0,0,1,132.9,0l.42,0,29.89,1.8h0a4.69,4.69,0,0,1,4.64,4.72c0,.13,0,.25,0,.38l-3.94,37A4.66,4.66,0,0,1,159.25,48.07Zm-29.77-43L133.42,42a3.84,3.84,0,0,0,3.84,3.52l22,1.76a3.83,3.83,0,0,0,3.81-3.51L167,6.78a3.87,3.87,0,0,0-3.52-4.18h-.32L133.3.83a3.85,3.85,0,0,0-3.83,3.88c0,.11,0,.22,0,.32Z" transform="translate(-0.26 0.04)" style="fill:#3f555a"/><polygon points="131.39 29.34 144.03 29.34 146.74 35.16 142.54 33.87 140.17 35.16 135.79 33.35 132.73 35.26 129.42 33.33 131.39 29.34" style="fill:#576a6d"/><ellipse cx="144.4" cy="19.88" rx="1.53" ry="4.04" style="fill:#3f555a"/><path d="M147.78,35.79l-4.95-1.51-2.39,1.29-4.37-1.8L133,35.69l-3.85-2.25,2.25-4.57h13.17Zm-17.55-2.66,2.75,1.6,3-1.88,4.4,1.81,2.35-1.27,3.47,1.06L144,29.72H131.91Z" transform="translate(-0.26 0.04)" style="fill:#3f555a"/><path d="M149,14.12a.43.43,0,0,1-.36-.2,4.19,4.19,0,0,0-3.9-2,.42.42,0,1,1-.18-.82h.09a5,5,0,0,1,4.7,2.35.41.41,0,0,1-.15.57.42.42,0,0,1-.21.06Z" transform="translate(-0.26 0.04)" style="fill:#3f555a"/><polygon points="135.79 24.56 136.87 25.77 137.95 26.98 135.79 26.98 133.63 26.98 134.71 25.77 135.79 24.56" style="fill:#f36f42"/><path d="M138.21,27.36h-4.32a.43.43,0,0,1-.41-.43.4.4,0,0,1,.1-.26l2.16-2.42a.43.43,0,0,1,.61,0h0l2.16,2.42a.41.41,0,0,1-.05.59A.42.42,0,0,1,138.21,27.36Zm-3.38-.83h2.46l-1.23-1.38Z" transform="translate(-0.26 0.04)" style="fill:#c84a27"/><path d="M137.74,38.32a7.85,7.85,0,0,1-3.44-.69.42.42,0,0,1-.12-.58.41.41,0,0,1,.51-.16s3.61,1.81,8.85-1a.42.42,0,1,1,.52.66l-.13.07A13,13,0,0,1,137.74,38.32Z" transform="translate(-0.26 0.04)" style="fill:#3f555a"/><path d="M129.07,5.07,133,42a4.27,4.27,0,0,0,4.25,3.89l22,1.75a4.27,4.27,0,0,0,4.25-3.89l3.94-36.94a4.26,4.26,0,0,0-3.87-4.63l-.38,0L133.32.42a4.27,4.27,0,0,0-4.27,4.27C129.05,4.82,129.06,4.94,129.07,5.07Z" transform="translate(-0.26 0.04)" style="fill:#fff"/><path d="M163.19,2.17,133.32.42a4.27,4.27,0,0,0-4.09,3l25.89,3.41a4.27,4.27,0,0,1,4.27,4.27c0,.13,0,.25,0,.38l-2.22,35.15a3.73,3.73,0,0,1-.15.81l2.25.18a4.27,4.27,0,0,0,4.25-3.89l3.94-36.94a4.28,4.28,0,0,0-3.91-4.61Z" transform="translate(-0.26 0.04)" style="fill:#d0e4f0"/><path d="M159.25,48.07l-22-1.76h0A4.65,4.65,0,0,1,132.62,42L128.69,5.11h0A4.7,4.7,0,0,1,132.9,0l.42,0,29.89,1.8h0a4.69,4.69,0,0,1,4.64,4.72c0,.13,0,.25,0,.38l-3.94,37A4.66,4.66,0,0,1,159.25,48.07Zm-29.77-43L133.42,42a3.84,3.84,0,0,0,3.84,3.52l22,1.76a3.83,3.83,0,0,0,3.81-3.51L167,6.78a3.87,3.87,0,0,0-3.52-4.18h-.32L133.3.83a3.85,3.85,0,0,0-3.83,3.88c0,.11,0,.22,0,.32Z" transform="translate(-0.26 0.04)" style="fill:#3f555a"/><polygon points="131.39 29.34 144.03 29.34 146.74 35.16 142.54 33.87 140.17 35.16 135.79 33.35 132.73 35.26 129.42 33.33 131.39 29.34" style="fill:#576a6d"/><ellipse cx="144.4" cy="19.88" rx="1.53" ry="4.04" style="fill:#3f555a"/><path d="M130.24,15.5c.57.59,1.16,1.7,1.32,4a10.19,10.19,0,0,1-.59,3.41" transform="translate(-0.26 0.04)" style="fill:#3f555a"/><path d="M147.78,35.79l-4.95-1.51-2.39,1.29-4.37-1.8L133,35.69l-3.85-2.25,2.25-4.57h13.17Zm-17.55-2.66,2.75,1.6,3-1.88,4.4,1.81,2.35-1.27,3.47,1.06L144,29.72H131.91Z" transform="translate(-0.26 0.04)" style="fill:#3f555a"/><path d="M149,14.12a.43.43,0,0,1-.36-.2,4.19,4.19,0,0,0-3.9-2,.42.42,0,1,1-.18-.82h.09a5,5,0,0,1,4.7,2.35.41.41,0,0,1-.15.57.42.42,0,0,1-.21.06Z" transform="translate(-0.26 0.04)" style="fill:#3f555a"/><polygon points="135.79 24.56 136.87 25.77 137.95 26.98 135.79 26.98 133.63 26.98 134.71 25.77 135.79 24.56" style="fill:#f36f42"/><path d="M138.21,27.36h-4.32a.43.43,0,0,1-.41-.43.4.4,0,0,1,.1-.26l2.16-2.42a.43.43,0,0,1,.61,0h0l2.16,2.42a.41.41,0,0,1-.05.59A.42.42,0,0,1,138.21,27.36Zm-3.38-.83h2.46l-1.23-1.38Z" transform="translate(-0.26 0.04)" style="fill:#c84a27"/><path d="M137.74,38.32a7.85,7.85,0,0,1-3.44-.69.42.42,0,0,1-.12-.58.41.41,0,0,1,.51-.16s3.61,1.81,8.85-1a.42.42,0,1,1,.52.66l-.13.07A13,13,0,0,1,137.74,38.32Z" transform="translate(-0.26 0.04)" style="fill:#3f555a"/><path d="M50.65,47a.27.27,0,0,0,0-.38.25.25,0,0,0-.23-.09l-7.61,2.75a.26.26,0,0,0-.24.29.27.27,0,0,0,.29.25.29.29,0,0,0,.13-.05L50.61,47Z" transform="translate(-0.26 0.04)" style="fill:#a1c2d8"/><path d="M42.83,50.19a.67.67,0,0,1-.69-.67.68.68,0,0,1,.56-.68l7.54-2.78a.7.7,0,0,1,.72.22.68.68,0,0,1-.05,1l0,0-.08,0h0l-7.58,2.8a.62.62,0,0,1-.27.09ZM50.65,47Z" transform="translate(-0.26 0.04)" style="fill:#40565b"/><circle cx="51.33" cy="46.26" r="1.64" style="fill:#f36f42"/><path d="M51.59,48.27a2,2,0,0,1-1.92-2.62,2,2,0,0,1,2.53-1.28,2,2,0,0,1-.61,3.9Zm0-3.28a1.17,1.17,0,0,0-.55.13h0a1.21,1.21,0,0,0,1.09,2.16,1.21,1.21,0,0,0,.54-1.63A1.23,1.23,0,0,0,51.59,45Zm-.76-.23Z" transform="translate(-0.26 0.04)" style="fill:#c84a27"/><path d="M10.26,63.62c1.05,7,11,10.45,22.26,8.74s19.73-8,18.68-14.93C49.78,48.05,44.5,32.36,26.83,35,7.83,37.91,8.83,54.24,10.26,63.62Z" transform="translate(-0.26 0.04)" style="fill:#d0e4f0"/><path d="M25.45,41.32C41,39.1,45.64,52.15,46.89,60c.93,5.8-6.5,11-16.46,12.42a33.34,33.34,0,0,1-7.6.24,18.07,18.07,0,0,1-8.2-2.82c-1.8-1.25-3.51-2.74-3.8-4.7C9.56,57.3,8.68,43.72,25.45,41.32Z" transform="translate(-0.26 0.04)" style="fill:#fff"/><polygon points="36.14 52.9 33.9 56.17 38.02 55.55 36.14 52.9" style="fill:#f36f42"/><path d="M34.17,56.55a.43.43,0,0,1-.41-.43.44.44,0,0,1,.07-.22l2.23-3.27a.42.42,0,0,1,.34-.18.57.57,0,0,1,.34.18l1.88,2.65a.42.42,0,0,1-.11.58.36.36,0,0,1-.17.07l-4.11.62Zm2.24-3-1.36,2,2.5-.38Z" transform="translate(-0.26 0.04)" style="fill:#c84a27"/><path d="M25.89,54.52a.42.42,0,0,1-.42-.42.59.59,0,0,1,.05-.19c.85-1.59,1.84-2.49,3-2.67a2.83,2.83,0,0,1,2.22.65.42.42,0,0,1-.56.61,2,2,0,0,0-1.53-.44c-.83.14-1.64.92-2.35,2.24A.41.41,0,0,1,25.89,54.52Z" transform="translate(-0.26 0.04)" style="fill:#40565b"/><path d="M45.06,51a.4.4,0,0,1-.29-.12,3.86,3.86,0,0,0-2.94-1.48,2,2,0,0,0-1.34.87.43.43,0,0,1-.59.08.42.42,0,0,1-.13-.5,2.79,2.79,0,0,1,1.93-1.28c1.11-.15,2.33.42,3.61,1.68a.42.42,0,0,1,0,.59.39.39,0,0,1-.28.12Z" transform="translate(-0.26 0.04)" style="fill:#40565b"/><path d="M24.71,48.36a.42.42,0,0,1-.42-.42.37.37,0,0,1,.06-.21A4.77,4.77,0,0,1,27.22,46a.42.42,0,0,1,.46.38.43.43,0,0,1-.3.44,4,4,0,0,0-2.32,1.34A.41.41,0,0,1,24.71,48.36Z" transform="translate(-0.26 0.04)" style="fill:#40565b"/><path d="M43.56,45.83a.42.42,0,0,1-.28-.1,3.94,3.94,0,0,0-2.62-.54.41.41,0,0,1-.46-.35h0a.42.42,0,0,1,.36-.46,4.84,4.84,0,0,1,3.27.75.42.42,0,0,1,0,.59.41.41,0,0,1-.31.14Z" transform="translate(-0.26 0.04)" style="fill:#40565b"/><path d="M35.42,63.87a14.57,14.57,0,0,1-7.33-2.28.42.42,0,0,1,0-.59.41.41,0,0,1,.47-.09,14.37,14.37,0,0,0,4.67,1.92A8.71,8.71,0,0,0,42.05,60a.42.42,0,0,1,.59.06.42.42,0,0,1,0,.49A9.37,9.37,0,0,1,35.42,63.87Z" transform="translate(-0.26 0.04)" style="fill:#40565b"/><path d="M26.93,73.2a27.12,27.12,0,0,1-9.53-1.57c-4.34-1.65-7-4.47-7.55-8h0c-.68-4.5-1.35-11.14.66-16.93C12.83,40,18.35,35.9,26.83,34.62c18.85-2.86,23.62,15,24.8,22.74.53,3.48-1.2,7-4.86,9.83A30.8,30.8,0,0,1,32.6,72.77,37.13,37.13,0,0,1,26.93,73.2Zm3.73-38.05a24.34,24.34,0,0,0-3.72.29C18.83,36.67,13.54,40.57,11.29,47c-2,5.61-1.29,12.12-.62,16.53h0c.48,3.17,3,5.76,7,7.3A30.06,30.06,0,0,0,32.46,72a29.93,29.93,0,0,0,13.78-5.41c3.41-2.67,5-5.88,4.55-9C49.73,50.49,45.68,35.15,30.66,35.15Z" transform="translate(-0.26 0.04)" style="fill:#40565b"/><path d="M4.52,60.12a.39.39,0,0,1-.16-.74L15.69,56a.4.4,0,0,1,.54.12.4.4,0,0,1-.12.54.36.36,0,0,1-.2.06L4.58,60.11Z" transform="translate(-0.26 0.04)" style="fill:#a1c2d8"/><path d="M4.52,60.54h0a.81.81,0,0,1-.77-.84A.8.8,0,0,1,4.18,59l11.36-3.37a.81.81,0,0,1,1.1.33.82.82,0,0,1-.33,1.1.9.9,0,0,1-.32.09L4.7,60.51H4.6Z" transform="translate(-0.26 0.04)" style="fill:#40565b"/><circle cx="2.55" cy="60.17" r="2.39" style="fill:#f36f42"/><path d="M2.83,63a2.81,2.81,0,1,1,.48,0Zm0-4.79H2.49a2,2,0,1,0,.34,0Z" transform="translate(-0.26 0.04)" style="fill:#c84a27"/><path d="M147,54.7A7.35,7.35,0,0,1,142,53.18a4.12,4.12,0,0,0-3-1.31H137a.4.4,0,0,1-.42-.38v0A.42.42,0,0,1,137,51H139a5,5,0,0,1,3.58,1.55c1.71,1.71,7,1.71,8.72,0a4.9,4.9,0,0,1,3.94-1.32l6.36.59a.42.42,0,0,1-.08.83l-6.36-.59a4,4,0,0,0-3.28,1.08A7.3,7.3,0,0,1,147,54.7Z" transform="translate(-0.26 0.04)" style="fill:#164a67"/><path d="M160.83,20.53a.27.27,0,0,0,.25-.29A.3.3,0,0,0,161,20l-3.24-1a.27.27,0,0,0-.38.06.28.28,0,0,0,.07.38.27.27,0,0,0,.15.05l3.24,1Z" transform="translate(-0.26 0.04)" style="fill:#a1c2d8"/><path d="M160.83,21h-.12l-3.24-1a.69.69,0,0,1-.57-.78.68.68,0,0,1,.78-.56.66.66,0,0,1,.2.06l3.2,1h.08a.68.68,0,0,1,.28.92A.7.7,0,0,1,160.83,21Z" transform="translate(-0.26 0.04)" style="fill:#40565b"/><circle cx="161.69" cy="20.6" r="1.64" style="fill:#f36f42"/><path d="M162,22.62a2.05,2.05,0,0,1,.11-4.1,1.43,1.43,0,0,1,.29,0h0a2,2,0,0,1-.4,4.07Zm0-3.28a1.22,1.22,0,1,0,.24,0Z" transform="translate(-0.26 0.04)" style="fill:#c84a27"/><path d="M152.28,52.64a.42.42,0,0,1-.42-.42V47.1a.42.42,0,0,1,.48-.35.42.42,0,0,1,.35.35v5.13A.43.43,0,0,1,152.28,52.64Z" transform="translate(-0.26 0.04)" style="fill:#40565b"/><path d="M141.69,52.64a.42.42,0,0,1-.42-.42v-6a.42.42,0,1,1,.83-.13.29.29,0,0,1,0,.13v6A.42.42,0,0,1,141.69,52.64Z" transform="translate(-0.26 0.04)" style="fill:#40565b"/><polygon points="86.68 96.32 84.49 95.25 82.3 96.32 82.3 83.77 86.68 83.77 86.68 96.32" style="fill:#d56"/><polygon points="87.1 96.99 84.49 95.72 81.88 96.99 81.88 83.77 82.71 83.77 82.71 95.66 84.49 94.79 86.27 95.66 86.27 83.77 87.1 83.77 87.1 96.99" style="fill:#bc1a3c"/><path d="M92.36,84.14H80.05a.42.42,0,0,1-.13-.83.29.29,0,0,1,.13,0H92.36a.42.42,0,1,1,.13.83A.29.29,0,0,1,92.36,84.14Z" transform="translate(-0.26 0.04)" style="fill:#d0e4f0"/></svg>