<svg id="Layer_1" data-name="Layer 1" xmlns="http://www.w3.org/2000/svg" viewBox="0 0 153.64 178.1"><defs><style>.cls-1{fill:#fff;}.cls-2{fill:#d0e4f0;}.cls-3{fill:#a1c2d8;}.cls-4{fill:#40565b;}.cls-5{fill:#3aa1d6;}.cls-6{fill:#1785c8;}.cls-7{fill:#164a67;}.cls-8{fill:#fefefd;}.cls-9{fill:#ffdc64;}.cls-10{fill:#d65129;opacity:0.2;isolation:isolate;}.cls-11{fill:#8fd1be;}.cls-12{fill:#29b99a;}.cls-13{fill:#109995;}</style></defs><title>albert-illustration-Thought leadership</title><rect class="cls-1" x="-15.47" y="77.88" width="189.06" height="26.8" transform="translate(-43.63 80.36) rotate(-45)"/><rect class="cls-2" x="-8.69" y="94.25" width="189.06" height="7.62" transform="translate(-46.44 87.14) rotate(-45)"/><path class="cls-3" d="M13.26,152.76l-7.31-7.31a.5.5,0,0,1,.71-.71L14,152Z" transform="translate(-2.24 -2.28)"/><path class="cls-3" d="M27.32,138.7,20,131.38a.5.5,0,1,1,.71-.71l2.72,2.71h0L28,138Z" transform="translate(-2.24 -2.28)"/><path class="cls-3" d="M15.2,145.12a.5.5,0,0,1-.35-.15l-4.21-4.21a.5.5,0,0,1,.71-.71l4.21,4.21a.5.5,0,0,1-.35.85Z" transform="translate(-2.24 -2.28)"/><path class="cls-3" d="M19.89,140.43a.5.5,0,0,1-.35-.15l-4.21-4.21a.5.5,0,1,1,.71-.71l2.71,2.71h0l1.5,1.5a.5.5,0,0,1-.35.85Z" transform="translate(-2.24 -2.28)"/><path class="cls-3" d="M27.32,138.7,20,131.38a.5.5,0,1,1,.71-.71l2.72,2.71h0L28,138Z" transform="translate(-2.24 -2.28)"/><path class="cls-3" d="M41.38,124.64l-4.6-4.6h0l-2.72-2.72a.5.5,0,0,1,.71-.71l7.31,7.31Z" transform="translate(-2.24 -2.28)"/><path class="cls-3" d="M29.26,131.06a.5.5,0,0,1-.35-.15l-4.21-4.21a.5.5,0,0,1,.71-.71l4.21,4.21a.5.5,0,0,1-.35.85Z" transform="translate(-2.24 -2.28)"/><path class="cls-3" d="M33.95,126.37a.5.5,0,0,1-.35-.15L29.38,122a.5.5,0,1,1,.71-.71l4.21,4.21a.5.5,0,0,1-.35.85Z" transform="translate(-2.24 -2.28)"/><path class="cls-3" d="M41.38,124.64l-4.6-4.6h0l-2.72-2.72a.5.5,0,0,1,.71-.71l7.31,7.31Z" transform="translate(-2.24 -2.28)"/><path class="cls-3" d="M55.79,110.72a.5.5,0,0,1-.35-.15l-7.31-7.31a.5.5,0,0,1,.71-.71l2.71,2.71h0l4.6,4.6a.5.5,0,0,1-.35.85Z" transform="translate(-2.24 -2.28)"/><path class="cls-3" d="M43.32,117a.5.5,0,0,1-.35-.15l-4.21-4.21a.5.5,0,0,1,.71-.71l4.21,4.21a.5.5,0,0,1-.35.85Z" transform="translate(-2.24 -2.28)"/><path class="cls-3" d="M48,112.31a.5.5,0,0,1-.35-.15l-4.21-4.21a.5.5,0,1,1,.71-.71l4.21,4.21a.5.5,0,0,1-.35.85Z" transform="translate(-2.24 -2.28)"/><path class="cls-3" d="M55.79,110.72a.5.5,0,0,1-.35-.15l-7.31-7.31a.5.5,0,0,1,.71-.71l2.71,2.71h0l4.6,4.6a.5.5,0,0,1-.35.85Z" transform="translate(-2.24 -2.28)"/><path class="cls-3" d="M69.5,96.52l-4.6-4.6h0L62.18,89.2a.5.5,0,0,1,.71-.71l7.31,7.31Z" transform="translate(-2.24 -2.28)"/><path class="cls-3" d="M57.38,102.94a.5.5,0,0,1-.35-.15l-4.21-4.21a.5.5,0,0,1,.71-.71l4.21,4.21a.5.5,0,0,1-.35.85Z" transform="translate(-2.24 -2.28)"/><path class="cls-3" d="M62.07,98.25a.5.5,0,0,1-.35-.15L57.5,93.89a.5.5,0,0,1,.71-.71l4.21,4.21a.5.5,0,0,1-.35.85Z" transform="translate(-2.24 -2.28)"/><path class="cls-3" d="M69.5,96.52l-4.6-4.6h0L62.18,89.2a.5.5,0,0,1,.71-.71l7.31,7.31Z" transform="translate(-2.24 -2.28)"/><path class="cls-3" d="M83.56,82.46l-7.31-7.31a.5.5,0,0,1,.71-.71l7.31,7.31Z" transform="translate(-2.24 -2.28)"/><path class="cls-3" d="M71.44,88.88a.5.5,0,0,1-.35-.15l-4.21-4.21a.5.5,0,0,1,.71-.71L71.79,88a.5.5,0,0,1-.35.85Z" transform="translate(-2.24 -2.28)"/><path class="cls-3" d="M76.12,84.19a.5.5,0,0,1-.35-.15l-4.21-4.21a.5.5,0,0,1,.71-.71l4.21,4.21a.5.5,0,0,1-.35.85Z" transform="translate(-2.24 -2.28)"/><path class="cls-3" d="M83.56,82.46l-7.31-7.31a.5.5,0,0,1,.71-.71l7.31,7.31Z" transform="translate(-2.24 -2.28)"/><path class="cls-3" d="M97.62,68.4,90.3,61.09a.5.5,0,0,1,.71-.71l7.31,7.31Z" transform="translate(-2.24 -2.28)"/><path class="cls-3" d="M85.5,74.82a.5.5,0,0,1-.35-.15l-4.21-4.21a.5.5,0,0,1,.71-.71l2.72,2.72h0l1.5,1.5a.5.5,0,0,1-.35.85Z" transform="translate(-2.24 -2.28)"/><path class="cls-3" d="M90.18,70.13a.5.5,0,0,1-.35-.15l-4.21-4.21a.5.5,0,0,1,.71-.71L89,67.78h0l1.5,1.5a.5.5,0,0,1-.35.85Z" transform="translate(-2.24 -2.28)"/><path class="cls-3" d="M97.62,68.4,90.3,61.09a.5.5,0,0,1,.71-.71l7.31,7.31Z" transform="translate(-2.24 -2.28)"/><path class="cls-3" d="M111.68,54.34,104.36,47a.5.5,0,0,1,.71-.71l7.31,7.31Z" transform="translate(-2.24 -2.28)"/><path class="cls-3" d="M99.56,60.76a.5.5,0,0,1-.35-.15l-1.5-1.5h0L95,56.4a.5.5,0,0,1,.71-.71l4.21,4.21a.5.5,0,0,1-.35.85Z" transform="translate(-2.24 -2.28)"/><path class="cls-3" d="M104.24,56.07a.5.5,0,0,1-.35-.15l-1.5-1.5h0l-2.71-2.72a.5.5,0,0,1,.71-.71l4.21,4.21a.5.5,0,0,1-.35.85Z" transform="translate(-2.24 -2.28)"/><path class="cls-3" d="M111.68,54.34,104.36,47a.5.5,0,0,1,.71-.71l7.31,7.31Z" transform="translate(-2.24 -2.28)"/><path class="cls-3" d="M125.73,40.28,118.42,33a.5.5,0,0,1,.71-.71l7.31,7.31Z" transform="translate(-2.24 -2.28)"/><path class="cls-3" d="M113.62,46.7a.5.5,0,0,1-.35-.15L109,42.34l.71-.71,2.72,2.71h0l1.5,1.5a.5.5,0,0,1-.35.85Z" transform="translate(-2.24 -2.28)"/><path class="cls-3" d="M118.3,42a.5.5,0,0,1-.35-.15l-4.21-4.21a.5.5,0,0,1,.71-.71l2.72,2.72h0l1.5,1.5a.5.5,0,0,1-.35.85Z" transform="translate(-2.24 -2.28)"/><path class="cls-3" d="M125.73,40.28,118.42,33a.5.5,0,0,1,.71-.71l7.31,7.31Z" transform="translate(-2.24 -2.28)"/><path class="cls-3" d="M139.79,26.22l-7.31-7.31a.5.5,0,0,1,.71-.71l7.31,7.31Z" transform="translate(-2.24 -2.28)"/><path class="cls-3" d="M127.68,32.64a.5.5,0,0,1-.35-.15l-1.5-1.5h0l-2.71-2.72a.5.5,0,0,1,.71-.71L128,31.79a.5.5,0,0,1-.35.85Z" transform="translate(-2.24 -2.28)"/><path class="cls-3" d="M132.36,28a.5.5,0,0,1-.35-.15l-1.5-1.5h0l-2.71-2.72a.5.5,0,0,1,.71-.71l4.21,4.21a.5.5,0,0,1-.35.85Z" transform="translate(-2.24 -2.28)"/><path class="cls-4" d="M21.69,168.1a.5.5,0,0,1-.35-.15l-19-19a.5.5,0,0,1,0-.71L136.07,14.61a.5.5,0,0,1,.71,0l19,19a.5.5,0,0,1,0,.71L22,168A.5.5,0,0,1,21.69,168.1ZM3.45,148.65l18.24,18.25,133-133L136.42,15.67Z" transform="translate(-2.24 -2.28)"/><path class="cls-5" d="M40.13,64.36c0,1.95,51.23,54.34,51.89,55,19.2,17.89,56.05,43.14,59.47,43.57h0c1.43.37,1.61-.38,1.28-1.49-.87-3-34.72-40.33-56.81-59.29-.41-.35-50.3-43.11-51-43" transform="translate(-2.24 -2.28)"/><path class="cls-6" d="M41,63c4.59,4.09,62.71,56.71,67.28,60.8q12.66,11.33,25.29,22.69c6,5.42,11.95,10.9,17.92,16.35-3.42-.42-5.81-2.73-8.43-4.72-18.4-13.37-44.4-33-49.53-37.46-.68-.59-53.42-55.4-53.4-56.34" transform="translate(-2.24 -2.28)"/><rect class="cls-2" x="33.05" y="59.32" width="16.93" height="2.84" transform="translate(-33.58 48.18) rotate(-47.61)"/><path class="cls-4" d="M36.86,68.45a.5.5,0,0,1-.34-.13l-2.1-1.92a.5.5,0,0,1,0-.71L45.8,53.2a.5.5,0,0,1,.71,0l2.1,1.92a.5.5,0,0,1,0,.71L37.23,68.29A.5.5,0,0,1,36.86,68.45ZM35.47,66l1.36,1.24L47.57,55.48,46.2,54.24Z" transform="translate(-2.24 -2.28)"/><path class="cls-7" d="M43.29,68.64a.5.5,0,0,1-.37-.84l5.53-6a.5.5,0,0,1,.74.68l-5.53,6A.5.5,0,0,1,43.29,68.64Z" transform="translate(-2.24 -2.28)"/><path class="cls-7" d="M47.62,72.62a.5.5,0,0,1-.37-.84l5.53-6a.5.5,0,1,1,.74.68l-5.53,6A.5.5,0,0,1,47.62,72.62Z" transform="translate(-2.24 -2.28)"/><path class="cls-7" d="M52.75,77.71a.5.5,0,0,1-.37-.84l5.92-6.44a.5.5,0,1,1,.74.68l-5.92,6.44A.5.5,0,0,1,52.75,77.71Z" transform="translate(-2.24 -2.28)"/><path class="cls-7" d="M152.13,163.48a3.07,3.07,0,0,1-.76-.11c-3.71-.46-41.28-26.53-59.69-43.69-.52-.49-52-53-52-55.32a.5.5,0,0,1,.5-.5h0a.5.5,0,0,1,.5.43c1.21,3,51.25,54.2,51.73,54.66,19.31,18,55.92,43,59.19,43.44.57.14.78.08.81,0s.14-.16-.07-.9c-.83-2.83-34.84-40.33-56.66-59.05C90.71,98.25,47,60.81,44.79,59.58a.5.5,0,0,1,.07-1c.36,0,.69-.09,26,21.44,12.68,10.77,25.3,21.59,25.4,21.68,21.37,18.34,56,56.13,57,59.53.09.32.38,1.31-.17,1.87A1.29,1.29,0,0,1,152.13,163.48Z" transform="translate(-2.24 -2.28)"/><path class="cls-2" d="M9.5,20.91c3.95,6.55,9.27,11.33,16.82,13.44,3.21.9,6.5,1.7,9.36,3.58-1,.84-2.29.82-3.42,1.25-4.09,1.55-5.12,3.34-4.22,7.61.37,1.78.81,3.54,1,5.34a6,6,0,0,1-3.31,6.24,1.57,1.57,0,0,1-.89-.26c-7.35-7.86-13.17-16.6-15.57-27.28a28.77,28.77,0,0,1-.62-8.1C8.71,22.06,8.38,21.13,9.5,20.91Z" transform="translate(-2.24 -2.28)"/><path class="cls-8" d="M25.6,58.32c3.25-2.26,3.37-5.4,2.5-8.84-.28-1.13-.51-2.27-.74-3.41-.69-3.44,0-5,3.14-6.66a10.53,10.53,0,0,1,5.17-1.48c3.95,2.53,7.41,5.54,8.56,10.31.94,3.88.51,7.52-2.54,10.56-2.15,2.14-4,4.61-7.19,5.31a2.84,2.84,0,0,1-2.4-.36,24.07,24.07,0,0,1-6.16-4.6C25.72,58.92,25.5,58.68,25.6,58.32Z" transform="translate(-2.24 -2.28)"/><path class="cls-2" d="M20.1,59.75c1.06-.79,2.4-.06,3.51-.69.59-.34,1.42-.33,1.54-1.23l.45.49a28.54,28.54,0,0,0,6.92,5.11,16.58,16.58,0,0,0,2,.69c-4.75,1.8-8.81.31-12.54-2.67C21.31,60.91,20.72,60.31,20.1,59.75Z" transform="translate(-2.24 -2.28)"/><path class="cls-3" d="M9.5,20.91c-.81,3.2-.34,6.4.24,9.55,1.63,8.77,6.35,16,11.62,23,1.17,1.54,3,3.42,4.25,4.88A9.38,9.38,0,0,1,24,59.43a6.79,6.79,0,0,1-3.92.32A59.82,59.82,0,0,1,8.68,43.94,31.42,31.42,0,0,1,5.23,31.52,18.85,18.85,0,0,1,8.54,19.58,2.71,2.71,0,0,1,9.5,20.91Z" transform="translate(-2.24 -2.28)"/><path class="cls-4" d="M30.47,65.39c-2.92,0-5.84-1.18-8.82-3.56-.46-.37-.89-.78-1.31-1.17l-.57-.54a59.91,59.91,0,0,1-11.54-16,31.5,31.5,0,0,1-3.5-12.62A19.27,19.27,0,0,1,8.13,19.3a.5.5,0,0,1,.72-.11A3.23,3.23,0,0,1,10,20.7c4.18,6.92,9.58,11.23,16.49,13.17l.9.25a29.34,29.34,0,0,1,8.6,3.39c3.63,2.33,7.52,5.42,8.77,10.62h0c1.1,4.54.22,8.15-2.68,11-.36.36-.71.73-1.06,1.1-1.75,1.84-3.57,3.74-6.37,4.35A11.6,11.6,0,0,1,30.47,65.39Zm-21.84-45A18.33,18.33,0,0,0,5.73,31.5a30.54,30.54,0,0,0,3.4,12.22A58.9,58.9,0,0,0,20.46,59.4l.57.53c.42.4.82.77,1.25,1.12,4.14,3.31,8,4.14,12,2.6,2.58-.56,4.21-2.27,5.93-4.08.36-.37.71-.75,1.08-1.11,2.63-2.62,3.42-5.92,2.41-10.09h0c-1.17-4.85-4.88-7.78-8.35-10a28.6,28.6,0,0,0-8.32-3.27l-.91-.25c-7.19-2-12.78-6.48-17.11-13.66a.51.51,0,0,1,0-.11A2,2,0,0,0,8.62,20.35Z" transform="translate(-2.24 -2.28)"/><path class="cls-1" d="M90.42,25.23V11.81a8.7,8.7,0,0,0-4.66-7.36q-.4-.24-.83-.44t-.84-.37a13.61,13.61,0,0,0-5-1,13.26,13.26,0,0,0-6.61,1.71,7,7,0,0,0-2.59,2.06c-.2.22-.38.45-.56.68A8.13,8.13,0,0,0,67.95,9.9c-.08.21-.17.41-.25.64v1.27h0V25.23h0c0,.18,0,.36,0,.54,0,38,0,85.26,0,123.28,0,.64,0,4.44,0,5.27l.09.2-.09.06,6.95,15.62h0l1.21,2.73,3.09,6.94h0L90.42,154.6h0V25.23ZM72.76,27.62l.41.1c0,37.42-.41,123.24-.41,123.24v-1.75C72.75,114.58,72.78,39.37,72.76,27.62ZM85,151.38h0l-.19-.12-.07,0c0-3,0-41.79,0-59.26,0-18.36,0-45.8,0-64.29L85,27.7C85,64.09,85.16,115.45,85,151.38Z" transform="translate(-2.24 -2.28)"/><path class="cls-9" d="M84.72,92.05c0,18.17,0,59.45,0,59.45l-5.83,3.1L72.75,151s.41-88.94.41-125.21c0,.13,0,.13,2.53.31s4.91.44,7.3-.24c1.58-.45,1.76.12,1.76,1.53C84.71,45.84,84.72,73.56,84.72,92.05Z" transform="translate(-2.24 -2.28)"/><path class="cls-9" d="M90.42,23.12V154.6c-2.07-1.2-5.39-3.21-5.39-3.21.13-36.47,0-88.85,0-125.32Z" transform="translate(-2.24 -2.28)"/><path class="cls-9" d="M67.69,154.33c0-.83,0-4.63,0-5.27,0-38,0-85.27,0-123.28,0-.52,0-1,0-1.55,0-.33.07-.62.51-.66.93-.09,4.48,1.53,4.53,2.49,0,.51,0,88.37,0,124.9A15,15,0,0,1,67.69,154.33Z" transform="translate(-2.24 -2.28)"/><path class="cls-10" d="M67.69,154.33c0-.83,0-4.63,0-5.27,0-38,0-85.27,0-123.28,0-.52,0-1,0-1.55,0-.33.07-.62.51-.66.93-.09,4.48,1.53,4.53,2.49,0,.51,0,88.37,0,124.9A15,15,0,0,1,67.69,154.33Z" transform="translate(-2.24 -2.28)"/><path class="cls-4" d="M90.42,155.1a.5.5,0,0,1-.5-.5V24.88a.5.5,0,0,1,1,0V154.6A.5.5,0,0,1,90.42,155.1Z" transform="translate(-2.24 -2.28)"/><path class="cls-4" d="M67.69,155.1a.5.5,0,0,1-.5-.5V25.23a.5.5,0,0,1,1,0V154.6A.5.5,0,0,1,67.69,155.1Z" transform="translate(-2.24 -2.28)"/><polygon class="cls-2" points="70.51 148.68 76.7 177.6 65.45 152.06 70.51 148.68"/><path class="cls-4" d="M78.94,180.38h0a.5.5,0,0,1-.46-.3L67.24,154.8a.5.5,0,0,1,.17-.61l5.06-3.64a.5.5,0,0,1,.55,0L78.94,154l5.65-3.19a.5.5,0,0,1,.5,0l5.59,3.33a.5.5,0,0,1,.2.64L79.39,180.09A.5.5,0,0,1,78.94,180.38ZM68.31,154.77l10.63,23.9L89.78,154.8l-5-3L79.18,155a.5.5,0,0,1-.5,0l-5.9-3.47Z" transform="translate(-2.24 -2.28)"/><path class="cls-4" d="M72.75,151.46a.5.5,0,0,1-.5-.5V26.06a.5.5,0,0,1,1,0V151A.5.5,0,0,1,72.75,151.46Z" transform="translate(-2.24 -2.28)"/><path class="cls-4" d="M84.77,151.46a.5.5,0,0,1-.5-.5V26.06a.5.5,0,0,1,1,0V151A.5.5,0,0,1,84.77,151.46Z" transform="translate(-2.24 -2.28)"/><path class="cls-4" d="M78.83,171.56a11.25,11.25,0,0,1-4.38-.88.5.5,0,1,1,.39-.92,11,11,0,0,0,8.33,0,.5.5,0,1,1,.34.94A13.72,13.72,0,0,1,78.83,171.56Z" transform="translate(-2.24 -2.28)"/><path class="cls-4" d="M78.94,179.88l-4.3-9.67a11.6,11.6,0,0,0,8.69,0Z" transform="translate(-2.24 -2.28)"/><path class="cls-11" d="M90.42,11.81h0c0-5-5.09-9.13-11.37-9.13S67.69,6.77,67.69,11.81V25.23S71,28.37,79.06,28.37s11.37-3.14,11.37-3.14V11.81Z" transform="translate(-2.24 -2.28)"/><path class="cls-12" d="M73.21,27.73l-5.52-2.5V10.54c1.36-3.8,3.25-5.77,5.52-6.43Z" transform="translate(-2.24 -2.28)"/><path class="cls-13" d="M79.06,28.77c-8.16,0-11.51-3.12-11.64-3.25a.4.4,0,0,1-.12-.29V11.81a.4.4,0,0,1,.68-.29s3.29,3,11.09,3,11.06-3,11.09-3a.41.41,0,0,1,.44-.08.4.4,0,0,1,.24.37V25.23a.4.4,0,0,1-.12.29C90.56,25.66,87.22,28.77,79.06,28.77ZM68.09,25c.66.54,4,2.92,11,2.92S89.36,25.58,90,25V12.63c-1.35.92-4.77,2.72-11,2.72s-9.62-1.8-11-2.72Z" transform="translate(-2.24 -2.28)"/><path class="cls-13" d="M90.42,12.21a.4.4,0,0,1-.4-.4c0-4.81-4.92-8.73-11-8.73s-11,3.92-11,8.73a.4.4,0,1,1-.8,0c0-5.26,5.28-9.53,11.77-9.53s11.77,4.28,11.77,9.53A.4.4,0,0,1,90.42,12.21Z" transform="translate(-2.24 -2.28)"/></svg>