<?xml version="1.0" encoding="utf-8"?>
<!-- Generator: Adobe Illustrator 19.0.0, SVG Export Plug-In . SVG Version: 6.00 Build 0)  -->
<svg version="1.1" id="Layer_1" xmlns="http://www.w3.org/2000/svg" xmlns:xlink="http://www.w3.org/1999/xlink" x="0px" y="0px"
	 viewBox="-165 257 280 280" style="enable-background:new -165 257 280 280;" xml:space="preserve">
<style type="text/css">
	.st0{fill:#3290C1;stroke:#144966;stroke-linecap:round;stroke-linejoin:round;}
	.st1{fill:#1E6B96;stroke:#144966;stroke-linecap:round;stroke-linejoin:round;}
	.st2{fill:#1E6B96;}
	.st3{fill:#FFFFFF;}
	.st4{fill:#D0E4F1;}
	.st5{fill:none;stroke:#144966;stroke-linecap:round;stroke-linejoin:round;}
	.st6{clip-path:url(#SVGID_2_);}
	.st7{fill:none;}
	.st8{fill:#19BC9C;stroke:#0A706E;stroke-linecap:round;stroke-linejoin:round;}
	.st9{fill:#109995;stroke:#0A706E;stroke-linecap:round;stroke-linejoin:round;}
	.st10{fill:#109995;}
	.st11{fill:none;stroke:#0A706E;stroke-linecap:round;stroke-linejoin:round;}
	.st12{clip-path:url(#SVGID_4_);}
	.st13{fill:#FFFFFF;stroke:#3F555A;stroke-linecap:round;stroke-linejoin:round;}
	.st14{fill:#C3D4E0;stroke:#3F555A;stroke-linecap:round;stroke-linejoin:round;}
	.st15{fill:#F3F6F7;}
	.st16{fill:none;stroke:#3F555A;stroke-linecap:round;stroke-linejoin:round;}
	.st17{fill:#F56F40;stroke:#3F555A;stroke-linecap:round;stroke-linejoin:round;}
	.st18{fill:#00BD9C;stroke:#3F555A;stroke-linecap:round;stroke-linejoin:round;}
	.st19{fill:#109995;stroke:#3F555A;stroke-linecap:round;stroke-linejoin:round;}
	.st20{fill:#F3F6F7;stroke:#3F555A;stroke-linecap:round;stroke-linejoin:round;}
	.st21{fill:none;stroke:#F56F40;stroke-linecap:round;stroke-linejoin:round;}
	.st22{fill:none;stroke:#C3D4E0;stroke-linecap:round;stroke-linejoin:round;}
</style>
<title>aligned-to-standards</title>
<g id="para_reciclar">
	<polygon class="st0" points="-31.2,316.9 -12,328 -63.6,357.8 -82.8,346.7 	"/>
	<polygon class="st1" points="-82.8,425.4 -63.6,436.5 -63.6,357.8 -82.8,346.7 	"/>
	<polygon class="st0" points="-12,406.7 -63.6,436.5 -63.6,357.8 -12,328 	"/>
	<path class="st2" d="M-19.8,362.7l0.3,10.7c0.1,1,0,2.1-0.3,3.1c-0.3,1-1.1,1.8-2.1,2.1c-0.8,0.2-1.7-0.1-2.4,0.3
		c-0.9,0.5-1.2,1.9-2.2,2.1c-0.5,0.1-1.2-0.2-1.6,0.1c-0.2,0.2-0.4,0.4-0.4,0.7c-0.4,0.9-1.3,1.4-2.2,1.6c-0.3,0-0.7,0.1-1,0.2
		c-0.2,0.2-0.4,0.5-0.6,0.8c-0.5,0.9-1.4,1.6-2.5,1.8c-0.4,0-0.9,0.1-1.3,0.3c-0.4,0.3-0.7,0.8-1.1,1.1c-0.6,0.3-1.3,0.6-2,0.7
		c-0.9,0.5-1.8,1.2-2.4,2c-0.7,0.8-1.7,1.2-2.8,1.1c0.1,0.9-0.4,1.7-1.3,2c-0.8,0.4-1.7,0.4-2.4,0.8c-1.3,0.6-2.3,1.9-3.7,2.2
		c-0.5,0-1,0.2-1.4,0.4c-0.2,0.3-0.4,0.6-0.5,0.9c-0.3,0.5-0.9,0.9-1.5,1c-0.3,0-0.7,0.1-1,0.2c-0.5,0.2-0.7,0.7-1,1.1
		c-0.8,1-2,1.6-3.2,1.7v2.7c15.3-8.4,30.4-17.1,45.4-26l-0.2-21.3c-1.4,1-2.9,2-4.4,2.9c-0.4,0.2-1.9,0.8-1.9,1.3
		C-21.5,362.1-19.8,362.2-19.8,362.7z"/>
	<path class="st2" d="M-26.3,380.7h-1.4l-0.3-5.8c-0.1-1.6-0.4-3.6,0.2-5.1c0.8,0,1.5-0.3,1.8,0.4s0,2.6-0.1,3.5
		C-26,376.1-26.1,378.4-26.3,380.7z"/>
	<path class="st2" d="M-24.2,366.9l0.6,12c0.8,0.2,1.6-0.3,1.9-1c0.3-0.7,0.4-1.5,0.3-2.3l-0.3-10.7c-0.8,0.3-1.6,0.3-2.4,0.1
		c-0.4-0.2-0.9-0.4-1.3-0.5c-0.9-0.2-2.3,0.2-1.7,1.2C-26.7,366.5-25.1,366.9-24.2,366.9z"/>
	<path class="st2" d="M-30,382c0.1,0.4,0,0.9-0.2,1.3c-0.2,0.4-0.7,0.6-1.1,0.4c0,0,0,0,0,0c-0.2-0.2-0.3-0.6-0.3-0.9
		c-0.2-4.4-0.3-8.8-0.3-13.2c0,0.4,1.7-0.6,2,0c0.3,0.9-0.1,3.7-0.1,4.7C-30.1,376.8-30.1,379.4-30,382z"/>
	<path class="st2" d="M-42.3,390.6c0.1,0.3-0.1,0.6-0.4,0.7c-0.1,0-0.1,0-0.2,0c-0.3,0.1-0.7,0.1-1-0.1c-0.4-0.2-0.4-0.8-0.4-1.3
		l0.1-7.7c-0.1-0.3,0.1-0.6,0.4-0.7c0.9-0.4,1.5-0.8,1.5,0.4c0,1,0,2,0,2.9C-42.2,386.8-42.2,388.7-42.3,390.6z"/>
	<path class="st2" d="M-38.5,384.6c0,1.3,0.1,2.5,0.2,3.8c-0.5,0.1-1.1,0.2-1.6,0.1c-0.2-3.2-0.2-6.3-0.1-9.5
		c0.1-0.3-0.1-0.7-0.5-0.8l-4.5-2.7c-0.1-0.1-0.2-0.1-0.3-0.2c-0.1-0.1-0.1-0.3,0-0.4c0.2-0.4,0.7-0.7,1.1-0.6
		c0.5,0.1,0.9,0.2,1.3,0.5c0.7,0.4,1.4,0.9,2.1,1.4c0.3,0.2,0.6,0.4,0.9,0.5c0.6,0.2,1.4-0.3,1.7,0.2c0.2,0.8,0.2,1.7,0,2.5
		C-38.2,381.1-38.4,382.8-38.5,384.6z"/>
	<path class="st2" d="M-46.2,380.8c0-0.1,0-0.2,0-0.3c-0.1-0.2-0.4-0.3-0.6-0.2c-0.2,0-0.4,0.2-0.6,0.2c-0.6,0-1.2-0.2-1.7-0.6
		c-0.7-0.4-1.4-0.7-2.1-1c-0.1-0.1-0.3-0.1-0.4-0.1c-0.1,0-0.2,0.1-0.3,0.2l-0.9,0.6c1.1,1.1,2.4,1.9,3.8,2.5
		c0.2,0.1,0.4,0.2,0.5,0.4c0.1,0.2,0.1,0.4,0.1,0.6c0.3,3.7,0.4,7.4,0.1,11.1c0,0.3,1.4-0.3,1.4-0.3c0.3-0.2,0.5-0.5,0.6-0.9
		c0.1-1.3,0.1-2.7,0.1-4L-46.2,380.8z"/>
	<path class="st2" d="M-33.6,372.3c0-0.1,0-0.2,0-0.3c-0.1-0.2-0.4-0.3-0.6-0.2c-0.2,0-0.4,0.2-0.6,0.2c-0.6,0-1.2-0.2-1.7-0.6
		c-0.7-0.4-1.4-0.7-2.1-1c-0.1-0.1-0.3-0.1-0.4-0.1c-0.1,0-0.2,0.1-0.3,0.2l-0.9,0.6c1.1,1.1,2.4,2,3.8,2.6c0.2,0.1,0.4,0.2,0.5,0.4
		c0.1,0.2,0.1,0.4,0.1,0.6c0.3,3.9,0.4,7.8,0.1,11.7c0,0.3,1.4-0.3,1.4-0.3c0.3-0.2,0.5-0.6,0.6-0.9c0.1-1.4,0.1-2.8,0.1-4.2
		L-33.6,372.3z"/>
	<path class="st2" d="M-59.1,387.4c-0.4-0.1-0.8,0-0.9,0.3c-0.2,0.3-0.2,0.7-0.2,1.1l-0.1,2c-0.2,3.5-0.1,7,0.3,10.4
		c0,0.1,1.1-0.4,1.2-0.5c0.2-0.3,0.1-0.9,0.1-1.2c-0.1-1.3-0.2-2.7-0.3-4C-59.3,392.8-59.3,390.1-59.1,387.4z"/>
	<path class="st2" d="M-54.9,385c-0.4-0.2-0.9,0-1.2,0.3c-0.2,0.3-0.3,0.7-0.3,1.1l-0.1,2c-0.2,3.5-0.1,7,0.3,10.4
		c0.5-0.1,1-0.3,1.5-0.5c0.3-0.3,0.1-0.9,0.1-1.2c-0.2-1.3-0.3-2.7-0.4-4C-55.1,390.4-55.1,387.7-54.9,385z"/>
	<path class="st2" d="M-50.8,390.3c-0.1-1.8-0.1-3.5-0.1-5.3c-0.4,0.1-0.9,0.2-1.4,0.2v0.4c-0.2,3.5-0.1,7,0.3,10.5
		c0.5-0.1,1-0.3,1.5-0.6c0.3-0.3,0.1-0.9,0.1-1.2C-50.6,393-50.8,391.6-50.8,390.3z"/>
	<path class="st3" d="M-51.3,381c-2.7,1.3-6.5,2.4-9.2,4.7c0,1,0,2,0,2s2.4-1,2.8-1.2c0.3-0.2,1.2-1.5,1.3-1.5
		c1.8-0.2,3.4-1.3,4.2-3v2.4c0,0.3,0,0.6,0.3,0.7c0.2,0.1,0.3,0.1,0.5,0c0.7-0.2,1.4-0.5,2-1c0.6-0.5,0.8-1.3,0.6-2.1
		C-49.6,381.7-50.5,381.4-51.3,381z"/>
	<path class="st4" d="M-53.2,379.9c-0.1-0.1-0.3-0.2-0.5-0.2c-0.2,0-0.3,0.1-0.5,0.1c-1.8,0.9-3.6,1.9-5.3,3.1
		c-0.3,0.2-0.6,0.4-0.8,0.7c-0.2,0.7-0.3,1.3-0.3,2c2.7-2.3,6.6-3.4,9.2-4.7C-52,380.7-52.6,380.3-53.2,379.9z"/>
	<path class="st4" d="M-45,376c-0.9-0.6-2.1-0.6-3,0.1l-2.5,1.4c-1.1,0.6-0.4,1,0.4,1.4l1.1,0.6c1.6-1.1,3.2-2.2,4.8-3.2L-45,376z"
		/>
	<path class="st3" d="M-40.6,378.8c-1.1-0.9-2.4-1.7-3.7-2.4c-1.6,1-3.2,2.1-4.8,3.2l0.9,0.5c0.3,0.2,0.7,0.2,0.9,0
		c0.5-0.3,1-0.6,1.4-1c0.6-0.6,0.9-1.5,1.7-1.9c-0.1,1.4-0.1,2.9,0.1,4.3c0.7,0.2,1.4,0,2-0.4c0.6-0.4,1.1-0.9,1.5-1.4
		c0.2-0.1,0.3-0.4,0.3-0.6C-40.3,379-40.4,378.8-40.6,378.8z"/>
	<path class="st4" d="M-39.2,371.8c-0.2-0.1-0.4-0.1-0.6-0.1c-0.2,0-0.3,0.1-0.5,0.2l-1.9,1c-0.5,0.2-1.4,0.5-1.5,1.1
		c-0.2,0.6,0.4,1.1,1.1,1.5c1.7-1,3.3-2,5-2.9C-38.2,372.3-38.7,372-39.2,371.8z"/>
	<path class="st3" d="M-37.7,372.5c-1.7,0.9-3.3,1.9-5,2.9c0.5,0.3,1.1,0.6,1.6,0.8c0.6,0.3,1.2,0.4,1.8,0.1
		c0.8-0.2,1.6-0.5,2.3-0.9c0.4-0.2,0.8-0.5,0.9-0.9c0-0.3-0.1-0.7-0.3-0.9C-36.8,373.2-37.2,372.8-37.7,372.5z"/>
	<path class="st3" d="M-33,370.4c0.3-0.2,0.5-0.5,0.7-0.9l-3.3,1.8C-34.7,371.3-33.8,370.9-33,370.4z"/>
	<path class="st3" d="M-24.5,366.5l-1.6-0.7c-2,1.2-3.9,2.4-5.9,3.5c0,0.2,0,0.3,0.1,0.4c0.2,0.1,0.4,0.1,0.5,0.1
		c1.3-0.3,2.4-1.1,3-2.3c0.1-0.1,0.1-0.2,0.2-0.2c0.1,0,0.1,0.1,0.1,0.2c0.1,0.6,0.2,1.2,0.1,1.8c0,0.1,0,0.2,0.1,0.3
		c0.2,0.1,0.4,0.2,0.6,0.1c1-0.2,2-0.6,2.8-1.3c0.2-0.2,0.4-0.4,0.6-0.7c0.1-0.3,0.1-0.6,0-0.9C-23.9,366.7-24.2,366.6-24.5,366.5z"
		/>
	<path class="st4" d="M-27.5,365.2c-0.4-0.2-0.8-0.2-1.2,0.1c-1.7,1-3.5,2.4-5.2,3.3l-2.8,1.3c-0.3,0.1-0.8,0.3-0.7,0.7
		c0.1,0.4,0.6,0.6,0.9,0.7c0.3,0.1,0.6,0.1,0.9,0.1h0.1l3.3-1.8v-0.1c0.1-0.4,0-0.8-0.3-1.1c-0.2-0.1-0.4-0.1-0.6-0.1l0.5-0.3
		c0.4,0.4,0.6,0.9,0.7,1.4l0,0c2-1.1,4-2.3,5.9-3.5L-27.5,365.2z"/>
	<path class="st4" d="M-20.9,361.4c-0.3-0.1-0.6,0-0.9,0.1c-0.7,0.3-1.4,0.6-2.1,1c-0.7,0.3-1.3,0.7-1.8,1.2
		c0.4,0.5,0.8,0.9,1.3,1.1c1.4-0.9,2.8-1.9,4.2-2.9C-20.4,361.7-20.6,361.5-20.9,361.4z"/>
	<path class="st3" d="M-20.2,361.9c-1.4,1-2.8,2-4.2,2.9l0.1,0c0.6,0.2,1.2,0.2,1.8,0c0.6-0.2,1.1-0.5,1.6-0.9
		c0.5-0.3,0.9-0.7,1-1.3C-19.9,362.4-20,362.2-20.2,361.9L-20.2,361.9z"/>
	<path class="st2" d="M-19.8,386.6l0.3,10.7c0.1,1,0,2.1-0.3,3.1c-0.3,1-1.1,1.8-2.1,2.1c-0.8,0.2-1.7-0.1-2.4,0.3
		c-0.9,0.5-1.2,1.9-2.2,2.1c-0.5,0.1-1.2-0.2-1.6,0.1c-0.2,0.2-0.4,0.4-0.4,0.7c-0.4,0.9-1.3,1.4-2.2,1.6c-0.3,0-0.7,0.1-1,0.2
		c-0.2,0.2-0.4,0.5-0.6,0.8c-0.5,0.9-1.4,1.6-2.5,1.8c-0.4,0-0.9,0.1-1.3,0.3c-0.4,0.3-0.7,0.8-1.1,1.1c-0.6,0.3-1.3,0.6-2,0.7
		c-0.9,0.5-1.8,1.2-2.4,2c-0.7,0.8-1.7,1.2-2.8,1.1c0.1,0.9-0.4,1.7-1.3,2c-0.8,0.4-1.7,0.4-2.4,0.8c-1.3,0.6-2.3,1.9-3.7,2.2
		c-0.5,0-1,0.2-1.4,0.4c-0.2,0.3-0.4,0.6-0.5,0.9c-0.3,0.5-0.9,0.9-1.5,1c-0.3,0-0.7,0.1-1,0.2c-0.5,0.2-0.7,0.7-1,1.1
		c-0.8,1-2,1.6-3.2,1.7v2.7c15.3-8.4,30.4-17.1,45.4-26L-15,381c-1.4,1-2.9,2-4.4,2.9c-0.4,0.2-1.9,0.8-1.9,1.3
		C-21.5,386-19.8,386.1-19.8,386.6z"/>
	<path class="st2" d="M-26.3,404.6h-1.4l-0.3-5.8c-0.1-1.6-0.4-3.6,0.2-5.1c0.8,0,1.5-0.3,1.8,0.4s0,2.6-0.1,3.5
		C-26,400-26.1,402.3-26.3,404.6z"/>
	<path class="st2" d="M-24.2,390.9l0.6,12c0.8,0.2,1.6-0.3,1.9-1c0.3-0.7,0.4-1.5,0.3-2.3l-0.3-10.7c-0.8,0.3-1.6,0.3-2.4,0.1
		c-0.4-0.2-0.9-0.4-1.3-0.5c-0.9-0.2-2.3,0.2-1.7,1.2C-26.7,390.4-25.1,390.8-24.2,390.9z"/>
	<path class="st2" d="M-30,405.9c0.1,0.4,0,0.9-0.2,1.3c-0.2,0.4-0.7,0.6-1.1,0.4c0,0,0,0,0,0c-0.2-0.2-0.3-0.6-0.3-0.9
		c-0.2-4.4-0.3-8.8-0.3-13.2c0,0.4,1.7-0.6,2,0c0.3,0.9-0.1,3.7-0.1,4.7C-30.1,400.7-30.1,403.3-30,405.9z"/>
	<path class="st2" d="M-42.3,414.5c0.1,0.3-0.1,0.6-0.4,0.7c-0.1,0-0.1,0-0.2,0c-0.3,0.1-0.7,0.1-1-0.1c-0.4-0.2-0.4-0.8-0.4-1.3
		l0.1-7.7c-0.1-0.3,0.1-0.6,0.4-0.7c0.9-0.4,1.5-0.8,1.5,0.4c0,1,0,2,0,2.9C-42.2,410.7-42.2,412.6-42.3,414.5z"/>
	<path class="st2" d="M-38.5,408.5c0,1.3,0.1,2.5,0.2,3.8c-0.5,0.1-1.1,0.2-1.6,0.1c-0.2-3.2-0.2-6.3-0.1-9.5
		c0.1-0.3-0.1-0.7-0.5-0.8l-4.5-2.7c-0.1-0.1-0.2-0.1-0.3-0.2c-0.1-0.1-0.1-0.3,0-0.4c0.2-0.4,0.7-0.7,1.1-0.6
		c0.5,0.1,0.9,0.2,1.3,0.5c0.7,0.4,1.4,0.9,2.1,1.4c0.3,0.2,0.6,0.4,0.9,0.5c0.6,0.2,1.4-0.3,1.7,0.2c0.2,0.8,0.2,1.7,0,2.5
		C-38.2,405-38.4,406.8-38.5,408.5z"/>
	<path class="st2" d="M-46.2,404.7c0-0.1,0-0.2,0-0.3c-0.1-0.2-0.4-0.3-0.6-0.2c-0.2,0-0.4,0.2-0.6,0.2c-0.6,0-1.2-0.2-1.7-0.6
		c-0.7-0.4-1.4-0.7-2.1-1c-0.1-0.1-0.3-0.1-0.4-0.1c-0.1,0-0.2,0.1-0.3,0.1l-0.9,0.6c1.1,1.1,2.4,1.9,3.8,2.5
		c0.2,0.1,0.4,0.2,0.5,0.4c0.1,0.2,0.1,0.4,0.1,0.6c0.3,3.7,0.4,7.4,0.1,11.1c0,0.3,1.4-0.3,1.4-0.3c0.3-0.2,0.5-0.5,0.6-0.9
		c0.1-1.3,0.1-2.7,0.1-4L-46.2,404.7z"/>
	<path class="st2" d="M-33.6,396.2c0-0.1,0-0.2,0-0.3c-0.1-0.2-0.4-0.3-0.6-0.2c-0.2,0-0.4,0.2-0.6,0.2c-0.6,0-1.2-0.2-1.7-0.6
		c-0.7-0.4-1.4-0.7-2.1-1c-0.1-0.1-0.3-0.1-0.4-0.1c-0.1,0-0.2,0.1-0.3,0.2l-0.9,0.6c1.1,1.1,2.4,2,3.8,2.6c0.2,0.1,0.4,0.2,0.5,0.4
		c0.1,0.2,0.1,0.4,0.1,0.6c0.3,3.9,0.4,7.8,0.1,11.7c0,0.3,1.4-0.3,1.4-0.3c0.3-0.2,0.5-0.6,0.6-0.9c0.1-1.4,0.1-2.8,0.1-4.2
		L-33.6,396.2z"/>
	<path class="st2" d="M-59.1,411.3c-0.4-0.1-0.8,0-0.9,0.3c-0.2,0.3-0.2,0.7-0.2,1.1l-0.1,2c-0.2,3.5-0.1,7,0.3,10.5
		c0,0.1,1.1-0.4,1.2-0.6c0.2-0.3,0.1-0.9,0.1-1.2c-0.1-1.3-0.2-2.7-0.3-4C-59.3,416.7-59.3,414-59.1,411.3z"/>
	<path class="st2" d="M-54.9,408.9c-0.4-0.2-0.9,0-1.2,0.3c-0.2,0.3-0.3,0.7-0.3,1.1l-0.1,2c-0.2,3.5-0.1,7,0.3,10.5
		c0.5-0.1,1-0.3,1.5-0.6c0.3-0.3,0.1-0.9,0.1-1.2c-0.2-1.3-0.3-2.7-0.4-4C-55.1,414.3-55.1,411.6-54.9,408.9z"/>
	<path class="st2" d="M-50.8,414.2c-0.1-1.8-0.1-3.5-0.1-5.3c-0.4,0.1-0.9,0.2-1.4,0.2v0.4c-0.2,3.5-0.1,7,0.3,10.4
		c0.5-0.1,1-0.3,1.5-0.5c0.3-0.3,0.1-0.9,0.1-1.2C-50.6,416.9-50.8,415.5-50.8,414.2z"/>
	<path class="st3" d="M-51.3,404.9c-2.7,1.3-6.5,2.4-9.2,4.7c0,1,0,2,0,2s2.4-1,2.8-1.2c0.3-0.2,1.2-1.5,1.3-1.5
		c1.8-0.2,3.4-1.3,4.2-3v2.4c0,0.3,0,0.6,0.3,0.7c0.2,0.1,0.3,0.1,0.5,0c0.7-0.2,1.4-0.5,2-1c0.6-0.5,0.8-1.3,0.6-2.1
		C-49.6,405.6-50.5,405.3-51.3,404.9z"/>
	<path class="st4" d="M-53.2,403.8c-0.1-0.1-0.3-0.2-0.5-0.2c-0.2,0-0.3,0.1-0.5,0.1c-1.8,0.9-3.6,1.9-5.3,3.1
		c-0.3,0.2-0.6,0.4-0.8,0.7c-0.2,0.7-0.3,1.3-0.3,2c2.7-2.3,6.6-3.4,9.2-4.7C-52,404.6-52.6,404.2-53.2,403.8z"/>
	<path class="st4" d="M-45,399.9c-0.9-0.6-2.1-0.6-3,0.1l-2.5,1.4c-1.1,0.6-0.4,1,0.4,1.4l1.1,0.6c1.6-1.1,3.2-2.2,4.8-3.2
		L-45,399.9z"/>
	<path class="st3" d="M-40.6,402.7c-1.1-0.9-2.4-1.7-3.7-2.4c-1.6,1-3.2,2.1-4.8,3.2l0.9,0.5c0.3,0.2,0.7,0.2,0.9,0
		c0.5-0.3,1-0.6,1.4-1c0.6-0.6,0.9-1.5,1.7-1.9c-0.1,1.4-0.1,2.9,0.1,4.3c0.7,0.2,1.4,0,2-0.4c0.6-0.4,1.1-0.9,1.5-1.4
		c0.2-0.1,0.3-0.4,0.3-0.6C-40.3,402.9-40.4,402.8-40.6,402.7z"/>
	<path class="st4" d="M-39.2,395.7c-0.2-0.1-0.4-0.1-0.6-0.1c-0.2,0-0.3,0.1-0.5,0.2l-1.9,1c-0.5,0.2-1.4,0.5-1.5,1.1
		s0.4,1.1,1.1,1.5c1.7-1,3.3-2,5-2.9C-38.2,396.2-38.7,395.9-39.2,395.7z"/>
	<path class="st3" d="M-37.7,396.4c-1.7,0.9-3.3,1.9-5,2.9c0.5,0.3,1.1,0.6,1.6,0.8c0.6,0.3,1.2,0.4,1.8,0.1
		c0.8-0.2,1.6-0.5,2.3-0.9c0.4-0.2,0.8-0.5,0.9-0.9c0-0.3-0.1-0.7-0.3-0.9C-36.8,397.1-37.2,396.7-37.7,396.4z"/>
	<path class="st3" d="M-33,394.3c0.3-0.2,0.5-0.5,0.7-0.9l-3.3,1.8C-34.7,395.2-33.8,394.8-33,394.3z"/>
	<path class="st3" d="M-24.5,390.4l-1.6-0.7c-2,1.2-3.9,2.4-5.9,3.5c0,0.2,0,0.3,0.1,0.4c0.2,0.1,0.4,0.1,0.5,0.1
		c1.3-0.3,2.4-1.1,3-2.3c0.1-0.1,0.1-0.2,0.2-0.2c0.1,0,0.1,0.1,0.1,0.1c0.1,0.6,0.2,1.2,0.1,1.9c0,0.1,0,0.2,0.1,0.3
		c0.2,0.1,0.4,0.2,0.6,0.1c1-0.2,2-0.6,2.8-1.3c0.2-0.2,0.4-0.4,0.6-0.7c0.1-0.3,0.1-0.6,0-0.8C-23.9,390.6-24.2,390.5-24.5,390.4z"
		/>
	<path class="st4" d="M-27.5,389.1c-0.4-0.2-0.8-0.2-1.2,0.1c-1.7,1.1-3.5,2.4-5.2,3.3l-2.8,1.3c-0.3,0.1-0.8,0.3-0.7,0.7
		s0.6,0.6,0.9,0.7c0.3,0.1,0.6,0.1,0.9,0.1h0.1l3.3-1.8v-0.1c0.1-0.4,0-0.8-0.3-1.1c-0.2-0.1-0.4-0.1-0.6-0.1l0.5-0.3
		c0.4,0.4,0.6,0.9,0.7,1.4l0,0c2-1.1,4-2.3,5.9-3.5L-27.5,389.1z"/>
	<path class="st4" d="M-20.9,385.3c-0.3-0.1-0.6,0-0.9,0.1c-0.7,0.3-1.4,0.6-2.1,1c-0.7,0.3-1.3,0.7-1.8,1.2
		c0.4,0.5,0.8,0.9,1.3,1.1c1.4-0.9,2.8-1.9,4.2-2.9C-20.4,385.6-20.6,385.4-20.9,385.3z"/>
	<path class="st3" d="M-20.2,385.8c-1.4,1-2.8,2-4.2,2.9l0.1,0c0.6,0.2,1.2,0.2,1.8,0c0.6-0.2,1.1-0.5,1.6-0.9
		c0.5-0.3,0.9-0.7,1-1.3C-19.9,386.4-20,386.1-20.2,385.8L-20.2,385.8z"/>
	<polygon class="st5" points="-31.2,316.9 -12,328 -63.6,357.8 -82.8,346.7 	"/>
	<polygon class="st5" points="-82.8,425.4 -63.6,436.5 -63.6,357.8 -82.8,346.7 	"/>
	<polygon class="st5" points="-12,406.7 -63.6,436.5 -63.6,357.8 -12,328 	"/>
	<path class="st5" d="M-63.6,357.8v78.7l51.6-29.8V328L-63.6,357.8z M-15,402l-45.6,26.3v-21.1l45.6-26.3V402z M-15,378l-45.6,26.3
		v-20.8l45.6-26.3V378z"/>
	<line class="st5" x1="-19.7" y1="375.3" x2="-15" y2="378"/>
	<path class="st5" d="M-60.6,387.7c1.8,0,3.4-1.1,4.1-2.8v14c-0.6,1.7-2.3,2.8-4.1,2.8V387.7z"/>
	<line class="st5" x1="-59.8" y1="383" x2="-56.5" y2="384.9"/>
	<path class="st5" d="M-56.5,384.9c1.8,0,3.4-1.1,4.1-2.8v14c-0.6,1.7-2.3,2.8-4.1,2.8L-56.5,384.9z"/>
	<line class="st5" x1="-55.3" y1="380.5" x2="-52.4" y2="382.1"/>
	<path class="st5" d="M-52.4,385.1c1.8,0,3.4-1.1,4.1-2.8v11c-0.6,1.7-2.3,2.8-4.1,2.8V385.1z"/>
	<line class="st5" x1="-53.5" y1="379.4" x2="-48.3" y2="382.4"/>
	<line class="st5" x1="-51.7" y1="378.4" x2="-48.3" y2="380.3"/>
	<path class="st5" d="M-48.3,380.3c1.8,0,3.4-1.1,4.1-2.8v14c-0.6,1.7-2.3,2.8-4.1,2.8V380.3z"/>
	<line class="st5" x1="-47.2" y1="375.8" x2="-44.2" y2="377.5"/>
	<path class="st5" d="M-40.2,376.7c1.8,0,3.4-1.1,4.1-2.8v12c-0.6,1.7-2.3,2.8-4.1,2.8V376.7z"/>
	<line class="st5" x1="-40" y1="371.6" x2="-36.1" y2="373.9"/>
	<path class="st5" d="M-44.2,381.5c1.8,0,3.4-1.1,4.1-2.8v10c-0.6,1.7-2.3,2.8-4.1,2.8V381.5z"/>
	<line class="st5" x1="-46.2" y1="375.3" x2="-40.2" y2="378.7"/>
	<line class="st5" x1="-44.5" y1="374.2" x2="-40.2" y2="376.7"/>
	<path class="st5" d="M-36.1,371.6c1.8,0,3.4-1.1,4.1-2.8v15c-0.6,1.7-2.3,2.8-4.1,2.8V371.6z"/>
	<line class="st5" x1="-33.4" y1="367.9" x2="-32" y2="368.8"/>
	<line class="st5" x1="-38" y1="370.5" x2="-36.1" y2="371.6"/>
	<path class="st5" d="M-32,369.8c1.8,0,3.5-1.1,4.1-2.8v14c-0.6,1.7-2.3,2.8-4.1,2.8L-32,369.8z"/>
	<line class="st5" x1="-29.9" y1="365.9" x2="-27.9" y2="367"/>
	<path class="st5" d="M-27.9,370c1.8,0,3.4-1.1,4.1-2.8v11c-0.6,1.7-2.3,2.8-4.1,2.8V370z"/>
	<line class="st5" x1="-28.1" y1="364.7" x2="-23.8" y2="367.2"/>
	<line class="st5" x1="-26.3" y1="363.7" x2="-23.8" y2="365.1"/>
	<path class="st5" d="M-23.8,365.1c1.8,0,3.4-1.1,4.1-2.8v14c-0.6,1.7-2.3,2.8-4.1,2.8V365.1z"/>
	<line class="st5" x1="-21.8" y1="361.2" x2="-19.7" y2="362.3"/>
	<line class="st5" x1="-19.7" y1="399.2" x2="-15" y2="402"/>
	<path class="st5" d="M-60.6,411.7c1.8,0,3.4-1.1,4.1-2.8v14c-0.6,1.7-2.3,2.8-4.1,2.8V411.7z"/>
	<line class="st5" x1="-59.8" y1="407" x2="-56.5" y2="408.9"/>
	<path class="st5" d="M-56.5,408.9c1.8,0,3.4-1.1,4.1-2.8v14c-0.6,1.7-2.3,2.8-4.1,2.8L-56.5,408.9z"/>
	<line class="st5" x1="-55.3" y1="404.4" x2="-52.4" y2="406.1"/>
	<path class="st5" d="M-52.4,409.1c1.8,0,3.4-1.1,4.1-2.8v11c-0.6,1.7-2.3,2.8-4.1,2.8V409.1z"/>
	<line class="st5" x1="-53.5" y1="403.4" x2="-48.3" y2="406.3"/>
	<line class="st5" x1="-51.7" y1="402.3" x2="-48.3" y2="404.2"/>
	<path class="st5" d="M-48.3,404.2c1.8,0,3.4-1.1,4.1-2.8v14c-0.6,1.7-2.3,2.8-4.1,2.8V404.2z"/>
	<line class="st5" x1="-47.2" y1="399.7" x2="-44.2" y2="401.5"/>
	<path class="st5" d="M-40.2,400.7c1.8,0,3.4-1.1,4.1-2.8v12c-0.6,1.7-2.3,2.8-4.1,2.8V400.7z"/>
	<line class="st5" x1="-40" y1="395.6" x2="-36.1" y2="397.9"/>
	<path class="st5" d="M-44.2,405.5c1.8,0,3.4-1.1,4.1-2.8v10c-0.6,1.7-2.3,2.8-4.1,2.8V405.5z"/>
	<line class="st5" x1="-46.2" y1="399.2" x2="-40.2" y2="402.7"/>
	<line class="st5" x1="-44.5" y1="398.2" x2="-40.2" y2="400.7"/>
	<path class="st5" d="M-36.1,395.5c1.8,0,3.4-1.1,4.1-2.8v15c-0.6,1.7-2.3,2.8-4.1,2.8V395.5z"/>
	<line class="st5" x1="-33.4" y1="391.9" x2="-32" y2="392.7"/>
	<line class="st5" x1="-38" y1="394.4" x2="-36.1" y2="395.5"/>
	<path class="st5" d="M-32,393.7c1.8,0,3.4-1.1,4.1-2.8v14c-0.6,1.7-2.3,2.8-4.1,2.8V393.7z"/>
	<line class="st5" x1="-29.9" y1="389.8" x2="-27.9" y2="390.9"/>
	<path class="st5" d="M-27.9,393.9c1.8,0,3.4-1.1,4.1-2.8v11c-0.6,1.7-2.3,2.8-4.1,2.8V393.9z"/>
	<line class="st5" x1="-28.1" y1="388.7" x2="-23.8" y2="391.2"/>
	<line class="st5" x1="-26.3" y1="387.6" x2="-23.8" y2="389.1"/>
	<path class="st5" d="M-23.8,389.1c1.8,0,3.4-1.1,4.1-2.8v14c-0.6,1.7-2.3,2.8-4.1,2.8V389.1z"/>
	<line class="st5" x1="-21.8" y1="385.1" x2="-19.7" y2="386.3"/>
	<g>
		<g>
			<defs>
				<polygon id="SVGID_1_" points="-79.8,373.9 -79.7,353.4 -73.6,357 -73.7,377.4 				"/>
			</defs>
			<clipPath id="SVGID_2_">
				<use xlink:href="#SVGID_1_"  style="overflow:visible;"/>
			</clipPath>
			<g class="st6">
				<path class="st3" d="M-75.4,371.1L-75.4,371.1c-0.5-0.3-0.8-0.3-1.1-0.1c-0.3,0.3-0.6,0.8-0.6,1.2c-0.1,0.4-0.2,0.8-0.4,1.2
					c-0.1,0.2-0.3,0.2-0.5,0l0,0c-0.2-0.1-0.4-0.4-0.5-0.6c-0.1-0.3-0.2-0.6-0.2-0.9c0-0.5,0.1-0.9,0.4-1.3c0.1-0.1,0.1-0.2,0.1-0.3
					c0-0.2-0.1-0.3-0.1-0.4c-0.1-0.2-0.2-0.3-0.4-0.4c-0.2-0.1-0.3-0.1-0.4,0c-0.4,0.5-0.6,1.1-0.6,1.8c0,0.7,0.2,1.4,0.5,2.1
					c0.3,0.6,0.7,1,1.2,1.4l0,0c0.2,0.1,0.4,0.2,0.7,0.2c0.3,0,0.6-0.2,0.8-0.7c0.1-0.3,0.2-0.7,0.3-1c0-0.3,0.2-0.6,0.3-0.9
					c0.1-0.1,0.3-0.1,0.5,0l0,0c0.2,0.2,0.4,0.4,0.5,0.6c0.1,0.3,0.2,0.7,0.2,1c0,0.6-0.2,1.2-0.6,1.6c-0.1,0.1-0.1,0.2-0.1,0.3
					c0,0.2,0.1,0.3,0.1,0.5c0.1,0.2,0.2,0.3,0.4,0.4c0.1,0.1,0.3,0.1,0.4,0c0.5-0.6,0.8-1.4,0.8-2.1c0-0.7-0.2-1.4-0.5-2
					C-74.5,371.9-74.9,371.4-75.4,371.1"/>
				<path class="st3" d="M-76.1,366.7l-2.4-2.6l2.4,0.2L-76.1,366.7 M-74.1,363.3c-0.1-0.1-0.2-0.1-0.3-0.1l-4.9-0.3
					c-0.3,0-0.4,0.2-0.4,0.5v0.1c0,0.4,0.2,0.7,0.4,1l4.9,5.4c0.1,0.1,0.2,0.2,0.3,0.2c0.1,0.1,0.2,0.1,0.3,0
					c0.1-0.1,0.2-0.2,0.1-0.3c0-0.3-0.1-0.6-0.3-0.8l-1.1-1.2v-3.3l1.1,0.1c0.2,0,0.4-0.1,0.4-0.4c0-0.2-0.1-0.3-0.2-0.5
					C-73.9,363.5-74,363.4-74.1,363.3"/>
				<path class="st3" d="M-79.2,353.8c-0.1-0.1-0.2-0.1-0.3,0c-0.1,0.1-0.2,0.2-0.1,0.3v4.5c0,0.2,0.1,0.3,0.1,0.5
					c0.1,0.1,0.2,0.3,0.3,0.4c0.1,0.1,0.3,0.1,0.4,0c0.1-0.1,0.1-0.2,0.1-0.2v-1.7l4.5,2.6c0.1,0.1,0.3,0.1,0.4,0
					c0.1-0.1,0.2-0.2,0.2-0.3c0-0.2-0.1-0.4-0.2-0.5c-0.1-0.2-0.2-0.3-0.4-0.4l-4.5-2.6v-1.7C-78.7,354.2-78.9,353.9-79.2,353.8"/>
			</g>
		</g>
	</g>
	<path class="st7" d="M-43.4,374.3L-43.4,374.3"/>
	<path class="st2" d="M-22,337.3c1.8-0.8,3.4-2.2,5.2-3.1c0.5-0.4,1.1-0.7,1.7-0.9c0.5,2.2,0.6,4.5,0.3,6.7
		c-0.2,2.4-0.3,4.8-0.2,7.1c0.1,1.8,1.2,5.5-0.4,6.9c-1.6,1.4-3.3,1.7-5,2.7c-2.1,1.3-4.1,2.6-6.2,3.8c-6.6,3.6-13.4,7.2-19.4,11.7
		c-2.9,2.2-6.6,3.5-9.8,5.4c-1.3,0.8-3.1,2.3-4.7,2.4c-0.3-0.9-0.3-1.8,0-2.6c1.1,0.3,2.2,0.1,3-0.7c0.6-0.5,0.6-1.6,1-2
		c0.4-0.4,1.4,0,1.9-0.4c0.8-0.6,1.4-1.3,1.8-2.1c0.7,0.1,1.4-0.1,2.1-0.4c0.9-0.4,1.6-1.2,1.9-2.1c0.7,1.9,4.4-0.7,4.3-2.2
		c1.6,0.8,2.6-1.4,3.6-2.2c0.5-0.4,0.3-0.2,0.9-0.3c0.8-0.2,1.6-0.5,2.3-1.1c1.3-1.3,1.9-3.2,1.4-5c0.4,1.3,2.6,1.7,3.8,1.5
		c1.2-0.2,1.6-1.7,2-2.8c0.4-1.3,0.5-2.6,0.9-3.9s2.2-4.2,0.9-5.4c-1-0.8-2.4-1.1-3.4-1.7c-0.5-0.4-1-0.7-1.5-1
		c-0.5-0.1-0.9-0.3-1.3-0.5c0.4-1,0.8-1.5,1.8-1.5c1.2,0,1.6,0.5,2.5,1.2s3.1,1.6,4.3,1c0.1,1-0.2,2.1-0.2,3.1
		c0.1,1.3,0.2,2.5,0.3,3.8c0.1,1-0.4,2.8,0.1,3.7c1.4-0.6,2.2-2,2.2-3.4c0.1-2.1,0.1-4.2,0-6.3c0.1-1.3,0-2.7-0.1-4
		c-0.7,1.3-3.1-1.4-4.3-1.6c1.3-2.1,1.8-0.6,3.6,0.1c0.9,0.4,1.9,0.3,2.7-0.2c0.4,1.1,0,2.5-0.1,3.7c-0.1,1.7-0.3,3.3-0.4,5
		s0.2,3.1,0.4,4.6c3.2,0.1,2.4-6.1,2.5-8c0-1-0.1-1.9,0-2.9c0.1-1.2,0.1-2.4,0-3.6c-0.1-0.5,0-1.2-0.4-1.6
		C-20.5,337.6-21.2,337.4-22,337.3z"/>
	<path class="st4" d="M-26.7,341.2c-0.4-0.2-0.8-0.3-1.2-0.3c-0.3,0.1-0.7,0.2-0.9,0.5c-0.5,0.3-1,0.6-1.5,0.9
		c-0.3,0.2-1.3,0.4-1.4,0.7c-0.1,0.3,0.6,1.1,1.3,1.6c1.6-0.9,2.7-2.1,4.4-2.9C-26.2,341.5-26.5,341.4-26.7,341.2z"/>
	<path class="st3" d="M-23.9,342.9c-0.1-0.1-0.2-0.2-0.3-0.3c-0.6-0.4-1.2-0.7-1.8-1c-1.8,0.8-2.9,2-4.4,2.9c0.4,0.4,0.9,0.6,1,0.8
		c0.4,0.3,0.9,0.6,1.4,0.7c0.9,0,1.8-0.3,2.5-0.8c0.7-0.4,1.5-1,1.6-1.8C-23.8,343.2-23.9,343.1-23.9,342.9z"/>
	<path class="st4" d="M-21.9,337c-1.6,0.9-3.1,1.8-4.6,2.8c0.5,0.4,1,0.8,1.2,0.9l0.3,0.2c1.5-1,3-2,4.5-3.1
		C-20.9,337.6-21.4,337.3-21.9,337z"/>
	<path class="st3" d="M-20.1,338l-0.3-0.2c-1.5,1.1-3,2.1-4.5,3.1c0.3,0.2,0.7,0.4,1.1,0.4c0.9,0,1.8-0.3,2.5-0.8
		c0.7-0.4,1.5-1,1.6-1.8c0-0.1,0-0.2,0-0.4C-19.9,338.2-20,338.1-20.1,338z"/>
	<path class="st4" d="M-33.5,345.2c-0.7-0.4-1.6-0.5-2.4-0.3c-0.6,0.3-1.2,0.7-1.6,1.2c-0.1,0.4,1.5,1.2,1.8,1.4l0.4,0.3
		c1-0.7,2-1.4,2.9-2L-33.5,345.2z"/>
	<path class="st3" d="M-30.9,346.4l-1.5-0.6c-0.9,0.6-1.9,1.3-2.9,2c1.2,0.8,2.5,1.5,3.9,2.1c0.8,0.4,1.9,0.7,2.5,0.1
		c0.6-0.6,0.6-1.6,0.1-2.3C-29.4,347.1-30.1,346.6-30.9,346.4z"/>
	<path class="st2" d="M-31.8,349.7c0.5,0.3,1.1,0.3,1.7,0.2c-0.8,3.5-1.8,7-2.9,10.4c0,0.1-0.1,0.3-0.3,0.3c-0.1,0-0.1,0-0.2-0.1
		c-0.7-0.3-1.3-0.6-2-0.9c-0.4-0.1-0.7-0.5-0.7-1c-0.2-2.7-0.3-5.5-0.3-8.2c0-0.2,0-0.3-0.1-0.5c-0.1-0.1-0.2-0.2-0.3-0.3
		c-1-0.7-2.1-1.2-3.1-1.9c0.9-1,2.5-1.1,3.6-0.2C-34.8,348.3-33.3,349.1-31.8,349.7z"/>
	<path class="st3" d="M-51.3,357.2c-2.7,1.3-6.5,2.4-9.2,4.7c0,1,0,2,0,2s2.4-1,2.8-1.2c0.3-0.2,1.2-1.5,1.3-1.5
		c1.8-0.2,3.4-1.3,4.2-3v2.4c0,0.3,0,0.6,0.3,0.7c0.2,0.1,0.3,0.1,0.5,0c0.7-0.2,1.4-0.5,2-1c0.6-0.5,0.8-1.3,0.6-2.1
		C-49.6,357.9-50.5,357.6-51.3,357.2z"/>
	<path class="st4" d="M-53.2,356.1c-0.1-0.1-0.3-0.2-0.5-0.2c-0.2,0-0.3,0.1-0.5,0.1c-1.8,0.9-3.6,1.9-5.3,3.1
		c-0.3,0.2-0.6,0.4-0.8,0.7c-0.2,0.7-0.3,1.3-0.3,2c2.7-2.3,6.6-3.4,9.2-4.7C-52,356.8-52.6,356.5-53.2,356.1z"/>
	<path class="st4" d="M-45,352.2c-0.9-0.6-2.1-0.6-3,0.1l-2.5,1.4c-1.1,0.6-0.4,0.9,0.4,1.4l1.1,0.6c1.6-1.1,3.2-2.2,4.8-3.2
		L-45,352.2z"/>
	<path class="st3" d="M-40.6,354.9c-1.1-0.9-2.4-1.7-3.7-2.3c-1.6,1-3.2,2.1-4.8,3.2l0.9,0.5c0.3,0.2,0.7,0.2,0.9,0
		c0.5-0.3,1-0.6,1.4-1c0.6-0.6,0.9-1.5,1.7-1.9c-0.1,1.4-0.1,2.9,0.1,4.3c0.7,0.2,1.4,0,2-0.4c0.6-0.4,1.1-0.9,1.5-1.4
		c0.2-0.1,0.3-0.4,0.3-0.6C-40.3,355.2-40.4,355-40.6,354.9z"/>
	<path class="st4" d="M-39.2,348c-0.2-0.1-0.4-0.1-0.6-0.1c-0.2,0-0.3,0.1-0.5,0.2l-1.9,1c-0.5,0.2-1.4,0.5-1.5,1.1s0.4,1.1,1.1,1.5
		c1.7-1,3.3-2,5-2.9C-38.2,348.4-38.7,348.2-39.2,348z"/>
	<path class="st3" d="M-37.7,348.7c-1.7,0.9-3.3,1.9-5,2.9c0.5,0.3,1.1,0.6,1.6,0.8c0.6,0.3,1.2,0.4,1.8,0.1
		c0.8-0.2,1.6-0.5,2.3-0.9c0.4-0.2,0.8-0.5,0.9-0.9c0-0.3-0.1-0.7-0.3-0.9C-36.8,349.4-37.2,349-37.7,348.7z"/>
	<path class="st2" d="M-42.3,366.5c0.1,0.3-0.1,0.6-0.4,0.7c-0.1,0-0.1,0-0.2,0c-0.3,0.1-0.7,0.1-1-0.1c-0.4-0.2-0.4-0.8-0.4-1.3
		l0.1-7.7c-0.1-0.3,0.1-0.6,0.4-0.7c0.9-0.4,1.5-0.8,1.5,0.4c0,1,0,2,0,2.9C-42.2,362.7-42.2,364.6-42.3,366.5z"/>
	<path class="st2" d="M-38.5,360.5c0,1.3,0.1,2.5,0.2,3.8c-0.5,0.1-1.1,0.2-1.6,0.1c-0.2-3.2-0.2-6.3-0.1-9.5
		c0.1-0.3-0.1-0.7-0.5-0.8l-4.5-2.7c-0.1-0.1-0.2-0.1-0.3-0.2c-0.1-0.1-0.1-0.3,0-0.4c0.2-0.4,0.7-0.7,1.1-0.6
		c0.5,0.1,0.9,0.2,1.3,0.5c0.7,0.4,1.4,0.9,2.1,1.4c0.3,0.2,0.6,0.4,0.9,0.5c0.6,0.2,1.4-0.3,1.7,0.2c0.2,0.8,0.2,1.7,0,2.5
		C-38.2,357-38.4,358.7-38.5,360.5z"/>
	<path class="st2" d="M-46.2,356.7c0-0.1,0-0.2,0-0.3c-0.1-0.2-0.4-0.3-0.6-0.2c-0.2,0-0.4,0.2-0.6,0.2c-0.6,0-1.2-0.2-1.7-0.5
		c-0.7-0.4-1.4-0.7-2.1-1c-0.1-0.1-0.3-0.1-0.4-0.1c-0.1,0-0.2,0.1-0.3,0.1l-0.9,0.6c1.1,1.1,2.4,1.9,3.8,2.5
		c0.2,0.1,0.4,0.2,0.5,0.4c0.1,0.2,0.1,0.4,0.1,0.6c0.3,3.7,0.4,7.4,0.1,11.1c0,0.3,1.4-0.3,1.4-0.3c0.3-0.2,0.5-0.5,0.6-0.9
		c0.1-1.3,0.1-2.7,0.1-4L-46.2,356.7z"/>
	<path class="st2" d="M-59.1,363.3c-0.4-0.1-0.8,0-0.9,0.3c-0.2,0.3-0.2,0.7-0.2,1.1l-0.1,2c-0.2,3.5-0.1,7,0.3,10.5
		c0,0.1,1.1-0.4,1.2-0.5c0.2-0.3,0.1-0.9,0.1-1.2c-0.1-1.3-0.2-2.7-0.3-4C-59.3,368.7-59.3,366-59.1,363.3z"/>
	<path class="st2" d="M-54.9,360.9c-0.4-0.2-0.9,0-1.2,0.3c-0.2,0.3-0.3,0.7-0.3,1.1l-0.1,2c-0.2,3.5-0.1,7,0.3,10.5
		c0.5-0.1,1-0.3,1.5-0.6c0.3-0.3,0.1-0.9,0.1-1.2c-0.2-1.3-0.3-2.7-0.4-4C-55.1,366.3-55.1,363.6-54.9,360.9z"/>
	<path class="st2" d="M-50.8,366.2c-0.1-1.8-0.1-3.5-0.1-5.3c-0.4,0.1-0.9,0.2-1.4,0.2v0.4c-0.2,3.5-0.1,7,0.3,10.5
		c0.5-0.1,1-0.3,1.5-0.5c0.3-0.3,0.1-0.9,0.1-1.2C-50.6,368.9-50.8,367.5-50.8,366.2z"/>
	<polygon class="st5" points="-15,353.9 -60.6,380.3 -60.6,359.4 -15,333.1 	"/>
	<line class="st5" x1="-19.7" y1="350.2" x2="-15" y2="352.9"/>
	<path class="st5" d="M-60.6,363.7c1.8,0,3.4-1.1,4.1-2.8v14c-0.6,1.7-2.3,2.8-4.1,2.8V363.7z"/>
	<line class="st5" x1="-59.8" y1="359.1" x2="-56.5" y2="361"/>
	<path class="st5" d="M-56.5,361c1.8,0,3.4-1.1,4.1-2.8v14c-0.6,1.7-2.3,2.8-4.1,2.8L-56.5,361z"/>
	<line class="st5" x1="-55.3" y1="356.5" x2="-52.4" y2="358.2"/>
	<path class="st5" d="M-52.4,361.2c1.8,0,3.4-1.1,4.1-2.8v11c-0.6,1.7-2.3,2.8-4.1,2.8V361.2z"/>
	<line class="st5" x1="-53.5" y1="355.4" x2="-48.3" y2="358.4"/>
	<line class="st5" x1="-51.7" y1="354.4" x2="-48.3" y2="356.3"/>
	<path class="st5" d="M-48.3,356.3c1.8,0,3.4-1.1,4.1-2.8v14c-0.6,1.7-2.3,2.8-4.1,2.8V356.3z"/>
	<line class="st5" x1="-47.2" y1="351.8" x2="-44.2" y2="353.5"/>
	<path class="st5" d="M-40.2,352.7c1.8,0,3.4-1.1,4.1-2.7v12c-0.6,1.7-2.3,2.8-4.1,2.8L-40.2,352.7z"/>
	<line class="st5" x1="-40" y1="347.7" x2="-36.1" y2="350"/>
	<path class="st5" d="M-44.2,357.5c1.8,0,3.4-1.1,4.1-2.8v10c-0.6,1.7-2.3,2.8-4.1,2.8V357.5z"/>
	<line class="st5" x1="-46.2" y1="351.3" x2="-40.2" y2="354.7"/>
	<line class="st5" x1="-44.5" y1="350.2" x2="-40.2" y2="352.7"/>
	<line class="st5" x1="-32.7" y1="343.3" x2="-27.9" y2="346"/>
	<line class="st5" x1="-30" y1="355.8" x2="-27.9" y2="357"/>
	<path class="st5" d="M-27.9,346c1.8,0,3.4-1.1,4.1-2.8v11c-0.6,1.7-2.3,2.8-4.1,2.8V346z"/>
	<line class="st5" x1="-28.1" y1="340.8" x2="-23.8" y2="343.2"/>
	<line class="st5" x1="-26.3" y1="339.7" x2="-23.8" y2="341.1"/>
	<path class="st5" d="M-23.8,341.1c1.8,0,3.4-1.1,4.1-2.8v14c-0.6,1.7-2.3,2.8-4.1,2.8V341.1z"/>
	<line class="st5" x1="-21.8" y1="337.2" x2="-19.7" y2="338.4"/>
	<path class="st5" d="M-27.9,348.3l-3,10.9c-0.2,0.7-0.7,1.2-1.4,1.3c-0.8,0.1-1.7-0.1-2.4-0.6l-1.3-0.9"/>
	<path class="st5" d="M-37.8,346.2c1.8,0.9,4.4,2.5,6.2,3.4c0.7,0.4,1.5,0.5,2.2,0.3c0.7-0.2,1.5-1.1,0.9-1.8l-6.2-3.7"/>
	<polygon class="st8" points="2.2,336.1 21.4,347.2 -30.2,377 -49.5,365.9 	"/>
	<polygon class="st9" points="-49.5,444.7 -30.2,455.8 -30.2,377 -49.5,365.9 	"/>
	<polygon class="st8" points="21.4,426 -30.2,455.8 -30.2,377 21.4,347.2 	"/>
	<path class="st10" d="M11.4,380.6c1.8-0.8,3.4-2.2,5.2-3.1c0.5-0.4,1.1-0.7,1.7-0.9c0.5,2.2,0.6,4.5,0.3,6.7
		c-0.2,2.4-0.3,4.8-0.2,7.1c0.1,1.8,1.2,5.5-0.4,6.9s-3.3,1.7-5,2.7c-2.1,1.3-4.1,2.6-6.2,3.8c-6.6,3.6-13.4,7.2-19.4,11.7
		c-2.9,2.2-6.6,3.5-9.8,5.4c-1.3,0.8-3.1,2.3-4.6,2.4c-0.3-0.9-0.3-1.8,0-2.6c1.1,0.3,2.2,0.1,3-0.7c0.6-0.5,0.6-1.6,1-2
		s1.4,0,1.9-0.4c0.8-0.6,1.4-1.3,1.9-2.1c0.7,0.1,1.4-0.1,2.1-0.4c0.9-0.4,1.6-1.2,1.9-2.1c0.7,1.9,4.4-0.7,4.3-2.2
		c1.6,0.8,2.6-1.4,3.6-2.2c0.5-0.4,0.3-0.2,0.9-0.3c0.8-0.2,1.6-0.5,2.3-1.1c1.3-1.3,1.9-3.2,1.4-5c0.4,1.3,2.6,1.7,3.8,1.5
		c1.2-0.2,1.6-1.7,2-2.8c0.4-1.3,0.5-2.6,0.9-3.9s2.2-4.2,0.9-5.4c-1-0.8-2.4-1.1-3.4-1.7c-0.5-0.4-1-0.7-1.5-1
		c-0.5-0.1-0.9-0.3-1.3-0.5c0.4-1,0.8-1.5,1.8-1.5c1.2,0,1.6,0.5,2.5,1.2s3.1,1.6,4.3,1c0.1,1-0.2,2.1-0.2,3.1
		c0.1,1.3,0.2,2.5,0.3,3.8c0.1,1-0.4,2.8,0.1,3.7c1.4-0.6,2.2-2,2.2-3.5c0.1-2.1,0.1-4.2,0-6.3c0.1-1.3,0-2.7-0.1-4
		c-0.7,1.3-3.1-1.4-4.3-1.6c1.3-2.1,1.8-0.6,3.6,0.1c0.9,0.4,1.9,0.3,2.7-0.2c0.4,1.1,0,2.6-0.1,3.7c-0.1,1.7-0.3,3.3-0.4,5
		c0,1.7,0.2,3.1,0.4,4.6c3.2,0.1,2.4-6.2,2.5-8c0-1-0.1-1.9,0-2.9c0.1-1.2,0.1-2.4,0-3.6c-0.1-0.5,0-1.2-0.4-1.6
		C12.9,380.9,12.1,380.6,11.4,380.6z"/>
	<path class="st4" d="M6.7,384.5c-0.4-0.2-0.8-0.3-1.2-0.3c-0.3,0.1-0.7,0.2-0.9,0.5c-0.5,0.3-1,0.6-1.5,0.9
		c-0.3,0.1-1.3,0.4-1.4,0.7s0.6,1.1,1.3,1.6c1.6-0.9,2.7-2.1,4.4-2.9C7.1,384.8,6.9,384.6,6.7,384.5z"/>
	<path class="st3" d="M9.4,386.2c-0.1-0.1-0.2-0.2-0.3-0.3c-0.6-0.4-1.2-0.7-1.8-1c-1.8,0.8-2.9,2-4.4,2.9c0.4,0.4,0.9,0.6,1,0.8
		c0.4,0.3,0.9,0.5,1.4,0.6c0.9,0,1.8-0.3,2.5-0.8c0.7-0.4,1.5-1,1.6-1.9C9.5,386.4,9.5,386.3,9.4,386.2z"/>
	<path class="st4" d="M11.5,380.3c-1.6,0.9-3.1,1.8-4.6,2.8c0.5,0.4,1,0.8,1.2,0.9l0.3,0.2c1.5-1,3-2,4.5-3.1
		C12.5,380.8,12,380.6,11.5,380.3z"/>
	<path class="st3" d="M13.2,381.3l-0.3-0.2c-1.5,1.1-3,2.1-4.5,3.1c0.3,0.2,0.7,0.4,1.1,0.4c0.9,0,1.8-0.3,2.5-0.8
		c0.7-0.5,1.5-1,1.6-1.9c0-0.1,0-0.2,0-0.4C13.5,381.5,13.4,381.4,13.2,381.3z"/>
	<path class="st4" d="M-0.2,388.5c-0.7-0.4-1.6-0.5-2.4-0.3c-0.6,0.3-1.2,0.7-1.6,1.1c-0.1,0.4,1.5,1.2,1.8,1.4l0.4,0.3
		c1-0.7,2-1.4,2.9-2L-0.2,388.5z"/>
	<path class="st3" d="M2.4,389.6L1,389c-0.9,0.6-1.9,1.3-2.9,2c1.2,0.8,2.5,1.5,3.9,2.1c0.8,0.4,1.9,0.7,2.5,0.1
		c0.6-0.6,0.6-1.6,0.1-2.3C4,390.3,3.2,389.9,2.4,389.6z"/>
	<path class="st10" d="M1.6,392.9c0.5,0.3,1.1,0.3,1.7,0.1c-0.8,3.5-1.8,7-2.9,10.4c0,0.1-0.1,0.3-0.3,0.3c-0.1,0-0.1,0-0.2-0.1
		c-0.7-0.3-1.3-0.6-2-0.9c-0.4-0.1-0.7-0.5-0.7-1c-0.2-2.7-0.3-5.5-0.3-8.2c0-0.2,0-0.3-0.1-0.5c-0.1-0.1-0.2-0.2-0.3-0.3
		c-1-0.7-2.1-1.2-3.1-1.9c0.9-1,2.5-1.1,3.6-0.2C-1.5,391.5,0,392.3,1.6,392.9z"/>
	<path class="st3" d="M-17.9,400.4c-2.7,1.3-6.5,2.4-9.2,4.7c0,1,0,2,0,2s2.4-1,2.8-1.2c0.3-0.2,1.2-1.5,1.4-1.5
		c1.8-0.2,3.4-1.3,4.2-3v2.3c0,0.3,0,0.6,0.3,0.7c0.2,0.1,0.3,0.1,0.5,0c0.7-0.2,1.4-0.5,2-1c0.6-0.5,0.8-1.3,0.6-2.1
		C-16.3,401.2-17.1,400.8-17.9,400.4z"/>
	<path class="st4" d="M-19.9,399.4c-0.1-0.1-0.3-0.2-0.5-0.2c-0.2,0-0.3,0.1-0.5,0.2c-1.8,0.9-3.6,1.9-5.3,3.1
		c-0.3,0.2-0.6,0.4-0.8,0.7c-0.2,0.7-0.3,1.3-0.3,2c2.7-2.3,6.6-3.4,9.2-4.7C-18.6,400.1-19.2,399.8-19.9,399.4z"/>
	<path class="st4" d="M-11.6,395.5c-0.9-0.6-2.1-0.6-3,0.1l-2.5,1.4c-1.1,0.6-0.4,1,0.4,1.4l1.1,0.6c1.6-1.1,3.2-2.2,4.8-3.2
		L-11.6,395.5z"/>
	<path class="st3" d="M-7.2,398.2c-1.1-0.9-2.4-1.7-3.7-2.4c-1.6,1-3.2,2.1-4.8,3.2l0.9,0.5c0.3,0.2,0.7,0.2,0.9,0
		c0.5-0.3,1-0.6,1.4-1c0.6-0.6,0.9-1.5,1.7-1.9c-0.1,1.4-0.1,2.9,0.1,4.3c0.7,0.2,1.4,0,2-0.4c0.6-0.4,1.1-0.9,1.5-1.4
		c0.2-0.1,0.3-0.4,0.3-0.6C-6.9,398.4-7,398.3-7.2,398.2z"/>
	<path class="st4" d="M-5.9,391.3c-0.2-0.1-0.4-0.1-0.6-0.1c-0.2,0-0.3,0.1-0.5,0.2l-1.9,1c-0.5,0.2-1.4,0.5-1.5,1.1
		s0.4,1.1,1.1,1.5c1.7-1,3.3-2,5-2.9C-4.8,391.7-5.3,391.5-5.9,391.3z"/>
	<path class="st3" d="M-4.4,392c-1.7,0.9-3.3,1.9-5,2.9c0.5,0.3,1.1,0.6,1.6,0.8c0.6,0.3,1.2,0.4,1.8,0.1c0.8-0.2,1.6-0.5,2.3-0.9
		c0.4-0.2,0.8-0.5,0.9-0.9c0-0.3-0.1-0.7-0.3-0.9C-3.4,392.7-3.8,392.3-4.4,392z"/>
	<path class="st10" d="M13.6,358l0.3,10.7c0.1,1,0,2.1-0.3,3.1c-0.3,1-1.1,1.8-2.1,2.1c-0.8,0.2-1.7-0.1-2.4,0.3
		c-0.9,0.5-1.2,1.9-2.2,2.1c-0.5,0.1-1.2-0.2-1.6,0.1c-0.2,0.2-0.4,0.4-0.4,0.7c-0.4,0.9-1.3,1.4-2.2,1.6c-0.3,0-0.7,0.1-1,0.2
		c-0.2,0.2-0.4,0.5-0.6,0.8c-0.5,0.9-1.4,1.6-2.5,1.8c-0.4,0-0.9,0.1-1.3,0.3c-0.4,0.3-0.7,0.8-1.1,1.2c-0.6,0.3-1.3,0.6-2,0.7
		c-0.9,0.5-1.8,1.2-2.4,2c-0.7,0.8-1.7,1.2-2.8,1.1c0.1,0.9-0.4,1.7-1.3,2c-0.8,0.4-1.6,0.4-2.4,0.8c-1.3,0.6-2.3,1.9-3.7,2.2
		c-0.5,0-1,0.2-1.4,0.4c-0.2,0.3-0.4,0.6-0.5,0.9c-0.3,0.5-0.9,0.9-1.5,1c-0.3,0-0.7,0.1-1,0.2c-0.5,0.2-0.7,0.7-1,1.1
		c-0.8,1-2,1.6-3.2,1.7v2.7c15.3-8.4,30.4-17.1,45.4-26l-0.1-21.2c-1.4,1-2.9,2-4.4,2.9c-0.4,0.2-1.9,0.8-1.9,1.3
		C11.9,357.3,13.6,357.5,13.6,358z"/>
	<path class="st10" d="M7.1,376H5.7l-0.3-5.8c-0.1-1.6-0.4-3.6,0.2-5.1c0.8,0,1.5-0.3,1.8,0.4s0,2.6-0.1,3.5
		C7.4,371.3,7.3,373.7,7.1,376z"/>
	<path class="st10" d="M9.1,362.2l0.6,12c0.8,0.2,1.6-0.3,1.9-1c0.3-0.7,0.4-1.5,0.3-2.3l-0.3-10.7c-0.8,0.3-1.6,0.3-2.4,0.1
		c-0.4-0.2-0.9-0.4-1.3-0.5C7,359.6,5.5,360,6.2,361C6.7,361.8,8.3,362.2,9.1,362.2z"/>
	<path class="st10" d="M3.4,377.2c0.1,0.4,0,0.9-0.2,1.3c-0.2,0.4-0.7,0.6-1.1,0.4c0,0,0,0,0,0c-0.2-0.2-0.3-0.6-0.3-0.9
		c-0.2-4.4-0.3-8.8-0.3-13.2c0,0.4,1.7-0.6,2,0c0.3,0.9-0.1,3.7-0.1,4.7C3.2,372.1,3.2,374.7,3.4,377.2z"/>
	<path class="st10" d="M-8.9,385.9c0.1,0.3-0.1,0.6-0.4,0.7c-0.1,0-0.1,0-0.2,0c-0.3,0.1-0.7,0.1-1-0.1c-0.4-0.2-0.4-0.8-0.4-1.3
		l0.1-7.7c-0.1-0.3,0.1-0.6,0.4-0.7c0.9-0.4,1.5-0.8,1.5,0.4c0,1,0,2,0,2.9C-8.8,382.1-8.8,384-8.9,385.9z"/>
	<path class="st10" d="M-5.1,379.9c0,1.3,0.1,2.5,0.2,3.8c-0.5,0.1-1.1,0.2-1.6,0.1c-0.2-3.2-0.2-6.3-0.1-9.5
		c0.1-0.3-0.1-0.7-0.5-0.8l-4.5-2.7c-0.1-0.1-0.2-0.1-0.3-0.2c-0.1-0.1-0.1-0.3,0-0.4c0.2-0.4,0.7-0.7,1.1-0.6
		c0.5,0.1,0.9,0.2,1.3,0.5c0.7,0.4,1.4,0.9,2.1,1.4c0.3,0.2,0.6,0.4,0.9,0.5c0.6,0.2,1.4-0.3,1.7,0.2c0.2,0.8,0.2,1.7,0,2.5
		C-4.9,376.3-5.1,378.1-5.1,379.9z"/>
	<path class="st10" d="M-12.9,376c0-0.1,0-0.2,0-0.3c-0.1-0.2-0.4-0.3-0.6-0.2c-0.2,0-0.4,0.2-0.6,0.2c-0.6,0-1.2-0.2-1.7-0.5
		c-0.7-0.4-1.4-0.7-2.1-1c-0.1-0.1-0.3-0.1-0.4-0.1c-0.1,0-0.2,0.1-0.3,0.1l-0.9,0.6c1.1,1.1,2.4,1.9,3.8,2.5
		c0.2,0.1,0.4,0.2,0.5,0.4c0.1,0.2,0.1,0.4,0.1,0.6c0.3,3.7,0.4,7.4,0.1,11.1c0,0.3,1.4-0.3,1.4-0.3c0.3-0.2,0.5-0.5,0.6-0.9
		c0.1-1.3,0.1-2.7,0.1-4L-12.9,376z"/>
	<path class="st10" d="M-0.2,367.6c0-0.1,0-0.2,0-0.3c-0.1-0.2-0.4-0.3-0.6-0.2c-0.2,0-0.4,0.2-0.6,0.2c-0.6,0-1.2-0.2-1.7-0.6
		c-0.7-0.4-1.4-0.7-2.1-1c-0.1-0.1-0.3-0.1-0.4-0.1c-0.1,0-0.2,0.1-0.3,0.2l-0.9,0.6c1.1,1.1,2.4,2,3.8,2.6c0.2,0.1,0.4,0.2,0.5,0.4
		c0.1,0.2,0.1,0.4,0.1,0.6c0.3,3.9,0.4,7.8,0.1,11.7c0,0.3,1.4-0.3,1.4-0.3c0.3-0.2,0.5-0.6,0.6-0.9c0.1-1.4,0.1-2.8,0.1-4.2
		L-0.2,367.6z"/>
	<path class="st10" d="M-25.8,382.7c-0.4-0.1-0.8,0-0.9,0.3c-0.2,0.3-0.2,0.7-0.2,1.1l-0.1,2c-0.2,3.5-0.1,7,0.3,10.5
		c0,0.1,1.1-0.4,1.2-0.6c0.2-0.3,0.1-0.9,0.1-1.2c-0.1-1.3-0.2-2.7-0.3-4C-25.9,388.1-25.9,385.4-25.8,382.7z"/>
	<path class="st10" d="M-21.6,380.3c-0.4-0.2-0.9,0-1.1,0.3c-0.2,0.3-0.3,0.7-0.3,1.1l-0.1,2c-0.2,3.5-0.1,7,0.3,10.5
		c0.5-0.1,1-0.3,1.5-0.6c0.3-0.3,0.1-0.9,0.1-1.2c-0.2-1.3-0.3-2.7-0.4-4C-21.7,385.6-21.7,383-21.6,380.3z"/>
	<path class="st10" d="M-17.4,385.6c-0.1-1.8-0.1-3.5-0.1-5.3c-0.4,0.1-0.9,0.2-1.4,0.2v0.4c-0.2,3.5-0.1,7,0.3,10.4
		c0.5-0.1,1-0.3,1.5-0.5c0.3-0.3,0.1-0.9,0.1-1.2C-17.2,388.2-17.4,386.9-17.4,385.6z"/>
	<path class="st10" d="M-8.9,409.8c0.1,0.3-0.1,0.6-0.4,0.7c-0.1,0-0.1,0-0.2,0c-0.3,0.1-0.7,0.1-1-0.1c-0.4-0.2-0.4-0.8-0.4-1.3
		l0.1-7.7c-0.1-0.3,0.1-0.6,0.4-0.7c0.9-0.4,1.5-0.8,1.5,0.4c0,1,0,2,0,2.9C-8.8,406-8.8,407.9-8.9,409.8z"/>
	<path class="st10" d="M-5.1,403.8c0,1.3,0.1,2.5,0.2,3.8c-0.5,0.1-1.1,0.2-1.6,0.1c-0.2-3.2-0.2-6.3-0.1-9.5
		c0.1-0.3-0.1-0.7-0.5-0.8l-4.5-2.7c-0.1-0.1-0.2-0.1-0.3-0.2c-0.1-0.1-0.1-0.3,0-0.4c0.2-0.4,0.7-0.7,1.1-0.6
		c0.5,0.1,0.9,0.2,1.3,0.5c0.7,0.4,1.4,0.9,2.1,1.4c0.3,0.2,0.6,0.4,0.9,0.5c0.6,0.2,1.4-0.3,1.7,0.2c0.2,0.8,0.2,1.7,0,2.5
		C-4.9,400.2-5.1,402-5.1,403.8z"/>
	<path class="st10" d="M-12.9,399.9c0-0.1,0-0.2,0-0.3c-0.1-0.2-0.4-0.3-0.6-0.2c-0.2,0-0.4,0.2-0.6,0.2c-0.6,0-1.2-0.2-1.7-0.6
		c-0.7-0.4-1.4-0.7-2.1-1c-0.1-0.1-0.3-0.1-0.4-0.1c-0.1,0-0.2,0.1-0.3,0.1l-0.9,0.6c1.1,1.1,2.4,1.9,3.8,2.5
		c0.2,0.1,0.4,0.2,0.5,0.4c0.1,0.2,0.1,0.4,0.1,0.6c0.3,3.7,0.4,7.4,0.1,11.1c0,0.3,1.4-0.3,1.4-0.3c0.3-0.2,0.5-0.5,0.6-0.9
		c0.1-1.3,0.1-2.7,0.1-4L-12.9,399.9z"/>
	<path class="st10" d="M-25.8,406.6c-0.4-0.1-0.8,0-0.9,0.3c-0.2,0.3-0.2,0.7-0.2,1.1l-0.1,2c-0.2,3.5-0.1,7,0.3,10.5
		c0,0.1,1.1-0.4,1.2-0.5c0.2-0.3,0.1-0.9,0.1-1.2c-0.1-1.3-0.2-2.7-0.3-4C-25.9,412-25.9,409.3-25.8,406.6z"/>
	<path class="st10" d="M-21.6,404.1c-0.4-0.2-0.9,0-1.1,0.3c-0.2,0.3-0.3,0.7-0.3,1.1l-0.1,2c-0.2,3.5-0.1,7,0.3,10.4
		c0.5-0.1,1-0.3,1.5-0.5c0.3-0.3,0.1-0.9,0.1-1.2c-0.2-1.3-0.3-2.7-0.4-4C-21.7,409.5-21.7,406.8-21.6,404.1z"/>
	<path class="st10" d="M-17.4,409.5c-0.1-1.8-0.1-3.5-0.1-5.3c-0.4,0.1-0.9,0.2-1.4,0.2v0.4c-0.2,3.5-0.1,7,0.3,10.4
		c0.5-0.1,1-0.3,1.5-0.5c0.3-0.3,0.1-0.9,0.1-1.2C-17.2,412.1-17.4,410.8-17.4,409.5z"/>
	<path class="st3" d="M-17.9,376.2c-2.7,1.3-6.5,2.4-9.2,4.7c0,1,0,2,0,2s2.4-1,2.8-1.2c0.3-0.2,1.2-1.5,1.4-1.5
		c1.8-0.2,3.4-1.3,4.2-3v2.4c0,0.3,0,0.6,0.3,0.7c0.2,0.1,0.3,0.1,0.5,0c0.7-0.2,1.4-0.5,2-1c0.6-0.5,0.8-1.3,0.6-2.1
		C-16.3,377-17.1,376.7-17.9,376.2z"/>
	<path class="st4" d="M-19.9,375.2c-0.1-0.1-0.3-0.2-0.5-0.2c-0.2,0-0.3,0.1-0.5,0.1c-1.8,0.9-3.6,1.9-5.3,3.1
		c-0.3,0.2-0.6,0.4-0.8,0.7c-0.2,0.7-0.3,1.3-0.3,2c2.7-2.3,6.6-3.4,9.2-4.7C-18.6,375.9-19.2,375.6-19.9,375.2z"/>
	<path class="st4" d="M-11.6,371.3c-0.9-0.6-2.1-0.6-3,0.1l-2.5,1.4c-1.1,0.6-0.4,0.9,0.4,1.4l1.1,0.6c1.6-1.1,3.2-2.2,4.8-3.2
		L-11.6,371.3z"/>
	<path class="st3" d="M-7.2,374c-1.1-0.9-2.4-1.7-3.7-2.4c-1.6,1-3.2,2.1-4.8,3.2l0.9,0.5c0.3,0.2,0.7,0.2,0.9,0
		c0.5-0.3,1-0.6,1.4-1c0.6-0.6,0.9-1.5,1.7-1.9c-0.1,1.4-0.1,2.9,0.1,4.3c0.7,0.2,1.4,0,2-0.4c0.6-0.4,1.1-0.9,1.5-1.4
		c0.2-0.1,0.3-0.4,0.3-0.6C-6.9,374.2-7,374.1-7.2,374z"/>
	<path class="st4" d="M-5.9,367.1c-0.2-0.1-0.4-0.1-0.6-0.1c-0.2,0-0.3,0.1-0.5,0.2l-1.9,1c-0.5,0.2-1.4,0.5-1.5,1.1
		c-0.1,0.6,0.4,1.1,1.1,1.5c1.7-1,3.3-2,5-2.9C-4.8,367.5-5.3,367.3-5.9,367.1z"/>
	<path class="st3" d="M-4.4,367.8c-1.7,0.9-3.3,1.9-5,2.9c0.5,0.3,1.1,0.6,1.6,0.8c0.6,0.3,1.2,0.4,1.8,0.1c0.8-0.2,1.6-0.5,2.3-0.9
		c0.4-0.2,0.8-0.5,0.9-0.9c0-0.3-0.1-0.7-0.3-0.9C-3.4,368.5-3.8,368.1-4.4,367.8z"/>
	<path class="st3" d="M0.4,365.6c0.3-0.2,0.5-0.5,0.7-0.8l-3.3,1.8C-1.3,366.5-0.4,366.2,0.4,365.6z"/>
	<path class="st3" d="M8.9,361.8l-1.6-0.7c-2,1.2-3.9,2.4-5.9,3.5c0,0.2,0,0.3,0.1,0.4c0.2,0.1,0.4,0.1,0.5,0.1
		c1.3-0.3,2.4-1.1,3-2.3c0.1-0.1,0.1-0.2,0.2-0.2c0.1,0,0.1,0.1,0.1,0.1c0.1,0.6,0.2,1.2,0.1,1.9c0,0.1,0,0.2,0.1,0.3
		c0.2,0.1,0.4,0.2,0.6,0.1c1-0.2,2-0.6,2.8-1.3c0.2-0.2,0.4-0.4,0.6-0.7c0.1-0.3,0.1-0.6,0-0.8C9.4,362,9.2,361.8,8.9,361.8z"/>
	<path class="st4" d="M5.8,360.5c-0.4-0.2-0.8-0.2-1.2,0.1c-1.7,1.1-3.5,2.4-5.2,3.3l-2.8,1.3c-0.3,0.2-0.8,0.3-0.7,0.7
		c0.1,0.4,0.6,0.6,0.9,0.7c0.3,0.1,0.6,0.1,0.9,0.1h0.1l3.3-1.8v-0.1c0.1-0.4,0-0.8-0.3-1.1c-0.2-0.1-0.4-0.1-0.6-0.1l0.5-0.3
		c0.4,0.4,0.6,0.9,0.7,1.4l0,0c2-1.1,4-2.3,5.9-3.5L5.8,360.5z"/>
	<path class="st4" d="M12.5,356.6c-0.3-0.1-0.6,0-0.9,0.1c-0.7,0.3-1.4,0.6-2.1,1c-0.7,0.3-1.3,0.7-1.8,1.2c0.4,0.5,0.8,0.9,1.3,1.2
		c1.4-0.9,2.8-1.9,4.2-2.9C13,357,12.8,356.7,12.5,356.6z"/>
	<path class="st3" d="M13.1,357.2c-1.4,1-2.8,2-4.2,2.9l0.1,0.1c0.6,0.2,1.2,0.2,1.8,0c0.6-0.2,1.1-0.5,1.6-0.9
		c0.5-0.3,0.9-0.7,1-1.3C13.4,357.7,13.3,357.4,13.1,357.2L13.1,357.2z"/>
	<path class="st10" d="M13.6,405.9l0.3,10.7c0.1,1,0,2.1-0.3,3.1c-0.3,1-1.1,1.8-2.1,2.1c-0.8,0.2-1.7-0.1-2.4,0.3
		c-0.9,0.5-1.2,1.9-2.2,2.1c-0.5,0.1-1.2-0.2-1.6,0.1c-0.2,0.2-0.4,0.4-0.4,0.7c-0.4,0.9-1.3,1.4-2.2,1.6c-0.3,0-0.7,0.1-1,0.2
		c-0.2,0.2-0.4,0.5-0.6,0.8c-0.5,0.9-1.4,1.6-2.5,1.8c-0.4,0-0.9,0.1-1.3,0.3c-0.4,0.3-0.7,0.8-1.1,1.1c-0.6,0.3-1.3,0.6-2,0.7
		c-0.9,0.5-1.8,1.2-2.4,2c-0.7,0.8-1.7,1.2-2.8,1.1c0.1,0.9-0.4,1.7-1.3,2c-0.8,0.4-1.6,0.4-2.4,0.8c-1.3,0.6-2.3,1.9-3.7,2.2
		c-0.5,0-1,0.2-1.4,0.4c-0.2,0.3-0.4,0.6-0.5,0.9c-0.3,0.5-0.9,0.9-1.5,1c-0.3,0-0.7,0.1-1,0.2c-0.5,0.2-0.7,0.7-1,1.1
		c-0.8,1-2,1.6-3.2,1.7v2.7c15.3-8.4,30.4-17.1,45.4-26l-0.1-21.2c-1.4,1-2.9,2-4.4,2.9c-0.4,0.2-1.9,0.8-1.9,1.3
		C11.9,405.2,13.6,405.4,13.6,405.9z"/>
	<path class="st10" d="M7.1,423.9H5.7l-0.3-5.8c-0.1-1.6-0.4-3.6,0.2-5.1c0.8,0,1.5-0.3,1.8,0.4s0,2.6-0.1,3.5
		C7.4,419.2,7.3,421.6,7.1,423.9z"/>
	<path class="st10" d="M9.1,410.1l0.6,12c0.8,0.2,1.6-0.3,1.9-1c0.3-0.7,0.4-1.5,0.3-2.3l-0.3-10.7c-0.8,0.3-1.6,0.3-2.4,0.1
		c-0.4-0.2-0.9-0.4-1.3-0.5c-0.9-0.2-2.3,0.2-1.7,1.2C6.7,409.7,8.3,410.1,9.1,410.1z"/>
	<path class="st10" d="M3.4,425.1c0.1,0.4,0,0.9-0.2,1.3c-0.2,0.4-0.7,0.6-1.1,0.4c0,0,0,0,0,0c-0.2-0.2-0.3-0.6-0.3-0.9
		c-0.2-4.4-0.3-8.8-0.3-13.2c0,0.4,1.7-0.6,2,0c0.3,0.9-0.1,3.7-0.1,4.7C3.2,420,3.2,422.6,3.4,425.1z"/>
	<path class="st10" d="M-8.9,433.8c0.1,0.3-0.1,0.6-0.4,0.7c-0.1,0-0.1,0-0.2,0c-0.3,0.1-0.7,0.1-1-0.1c-0.4-0.2-0.4-0.8-0.4-1.3
		l0.1-7.7c-0.1-0.3,0.1-0.6,0.4-0.7c0.9-0.4,1.5-0.8,1.5,0.4c0,1,0,2,0,2.9C-8.8,430-8.8,431.9-8.9,433.8z"/>
	<path class="st10" d="M-5.1,427.8c0,1.3,0.1,2.5,0.2,3.8c-0.5,0.1-1.1,0.2-1.6,0.1c-0.2-3.2-0.2-6.3-0.1-9.5
		c0.1-0.3-0.1-0.7-0.5-0.8l-4.5-2.7c-0.1-0.1-0.2-0.1-0.3-0.2c-0.1-0.1-0.1-0.3,0-0.4c0.2-0.4,0.7-0.7,1.1-0.6
		c0.5,0.1,0.9,0.2,1.3,0.5c0.7,0.4,1.4,0.9,2.1,1.4c0.3,0.2,0.6,0.4,0.9,0.5c0.6,0.2,1.4-0.3,1.7,0.2c0.2,0.8,0.2,1.7,0,2.5
		C-4.9,424.2-5.1,426-5.1,427.8z"/>
	<path class="st10" d="M-12.9,424c0-0.1,0-0.2,0-0.3c-0.1-0.2-0.4-0.3-0.6-0.2c-0.2,0-0.4,0.2-0.6,0.2c-0.6,0-1.2-0.2-1.7-0.6
		c-0.7-0.4-1.4-0.7-2.1-1c-0.1-0.1-0.3-0.1-0.4-0.1c-0.1,0-0.2,0.1-0.3,0.1l-0.9,0.6c1.1,1.1,2.4,1.9,3.8,2.5
		c0.2,0.1,0.4,0.2,0.5,0.4c0.1,0.2,0.1,0.4,0.1,0.6c0.3,3.7,0.4,7.4,0.1,11.1c0,0.3,1.4-0.3,1.4-0.3c0.3-0.2,0.5-0.5,0.6-0.9
		c0.1-1.3,0.1-2.7,0.1-4L-12.9,424z"/>
	<path class="st10" d="M-0.2,415.5c0-0.1,0-0.2,0-0.3c-0.1-0.2-0.4-0.3-0.6-0.2c-0.2,0-0.4,0.2-0.6,0.2c-0.6,0-1.2-0.2-1.7-0.6
		c-0.7-0.4-1.4-0.7-2.1-1c-0.1-0.1-0.3-0.1-0.4-0.1c-0.1,0-0.2,0.1-0.3,0.2l-0.9,0.6c1.1,1.1,2.4,2,3.8,2.6c0.2,0.1,0.4,0.2,0.5,0.4
		c0.1,0.2,0.1,0.4,0.1,0.6c0.3,3.9,0.4,7.8,0.1,11.7c0,0.3,1.4-0.3,1.4-0.3c0.3-0.2,0.5-0.6,0.6-0.9c0.1-1.4,0.1-2.8,0.1-4.2
		L-0.2,415.5z"/>
	<path class="st10" d="M-25.8,430.6c-0.4-0.1-0.8,0-0.9,0.3c-0.2,0.3-0.2,0.7-0.2,1.1l-0.1,2c-0.2,3.5-0.1,7,0.3,10.4
		c0,0.1,1.1-0.4,1.2-0.6c0.2-0.3,0.1-0.9,0.1-1.2c-0.1-1.3-0.2-2.7-0.3-4C-25.9,436-25.9,433.3-25.8,430.6z"/>
	<path class="st10" d="M-21.6,428.2c-0.4-0.2-0.9,0-1.1,0.3c-0.2,0.3-0.3,0.7-0.3,1.1l-0.1,2c-0.2,3.5-0.1,7,0.3,10.4
		c0.5-0.1,1-0.3,1.5-0.5c0.3-0.3,0.1-0.9,0.1-1.2c-0.2-1.3-0.3-2.7-0.4-4C-21.7,433.6-21.7,430.9-21.6,428.2z"/>
	<path class="st10" d="M-17.4,433.5c-0.1-1.8-0.1-3.5-0.1-5.3c-0.4,0.1-0.9,0.2-1.4,0.2v0.4c-0.2,3.5-0.1,7,0.3,10.5
		c0.5-0.1,1-0.3,1.5-0.6c0.3-0.3,0.1-0.9,0.1-1.2C-17.2,436.1-17.4,434.8-17.4,433.5z"/>
	<path class="st3" d="M-17.9,424.2c-2.7,1.3-6.5,2.4-9.2,4.7c0,1,0,2,0,2s2.4-1,2.8-1.2c0.3-0.2,1.2-1.5,1.4-1.5
		c1.8-0.2,3.4-1.3,4.2-3v2.3c0,0.3,0,0.6,0.3,0.7c0.2,0.1,0.3,0.1,0.5,0c0.7-0.2,1.4-0.5,2-1c0.6-0.5,0.8-1.3,0.6-2.1
		C-16.3,424.9-17.1,424.6-17.9,424.2z"/>
	<path class="st4" d="M-19.9,423.1c-0.1-0.1-0.3-0.2-0.5-0.2c-0.2,0-0.3,0.1-0.5,0.2c-1.8,0.9-3.6,1.9-5.3,3.1
		c-0.3,0.2-0.6,0.4-0.8,0.7c-0.2,0.7-0.3,1.3-0.3,2c2.7-2.3,6.6-3.4,9.2-4.7C-18.6,423.8-19.2,423.5-19.9,423.1z"/>
	<path class="st4" d="M-11.6,419.2c-0.9-0.6-2.1-0.6-3,0.1l-2.5,1.4c-1.1,0.6-0.4,0.9,0.4,1.4l1.1,0.6c1.6-1.1,3.2-2.2,4.8-3.2
		L-11.6,419.2z"/>
	<path class="st3" d="M-7.2,421.9c-1.1-0.9-2.4-1.7-3.7-2.4c-1.6,1-3.2,2.1-4.8,3.2l0.9,0.5c0.3,0.2,0.7,0.2,0.9,0
		c0.5-0.3,1-0.6,1.4-1c0.6-0.6,0.9-1.5,1.7-1.9c-0.1,1.4-0.1,2.9,0.1,4.3c0.7,0.2,1.4,0,2-0.4c0.6-0.4,1.1-0.9,1.5-1.4
		c0.2-0.1,0.3-0.4,0.3-0.6C-6.9,422.2-7,422-7.2,421.9z"/>
	<path class="st4" d="M-5.9,415c-0.2-0.1-0.4-0.1-0.6-0.1c-0.2,0-0.3,0.1-0.5,0.2l-1.9,1c-0.5,0.2-1.4,0.5-1.5,1.1
		c-0.1,0.6,0.4,1.1,1.1,1.5c1.7-1,3.3-2,5-2.9C-4.8,415.4-5.3,415.2-5.9,415z"/>
	<path class="st3" d="M-4.4,415.7c-1.7,0.9-3.3,1.9-5,2.9c0.5,0.3,1.1,0.6,1.6,0.8c0.6,0.3,1.2,0.4,1.8,0.1c0.8-0.2,1.6-0.5,2.3-0.9
		c0.4-0.2,0.8-0.5,0.9-0.9c0-0.3-0.1-0.7-0.3-0.9C-3.4,416.4-3.8,416-4.4,415.7z"/>
	<path class="st3" d="M0.4,413.5c0.3-0.2,0.5-0.5,0.7-0.9l-3.3,1.8C-1.3,414.4-0.4,414.1,0.4,413.5z"/>
	<path class="st3" d="M8.9,409.7L7.3,409c-2,1.2-3.9,2.4-5.9,3.5c0,0.2,0,0.3,0.1,0.4c0.2,0.1,0.4,0.1,0.5,0.1
		c1.3-0.3,2.4-1.1,3-2.3c0.1-0.1,0.1-0.2,0.2-0.2c0.1,0,0.1,0.1,0.1,0.1c0.1,0.6,0.2,1.2,0.1,1.9c0,0.1,0,0.2,0.1,0.3
		c0.2,0.1,0.4,0.2,0.6,0.1c1-0.2,2-0.6,2.8-1.3c0.2-0.2,0.4-0.4,0.6-0.7c0.1-0.3,0.1-0.6,0-0.9C9.4,409.9,9.2,409.8,8.9,409.7z"/>
	<path class="st4" d="M5.8,408.4c-0.4-0.2-0.8-0.2-1.2,0.1c-1.7,1-3.5,2.4-5.2,3.3l-2.8,1.3c-0.3,0.1-0.8,0.3-0.7,0.7
		s0.6,0.6,0.9,0.7c0.3,0.1,0.6,0.1,0.9,0.1h0.1l3.3-1.8v-0.1c0.1-0.4,0-0.8-0.3-1.1c-0.2-0.1-0.4-0.1-0.6-0.1l0.5-0.3
		c0.4,0.4,0.6,0.9,0.7,1.4l0,0c2-1.1,4-2.3,5.9-3.5L5.8,408.4z"/>
	<path class="st4" d="M12.5,404.5c-0.3-0.1-0.6,0-0.9,0.1c-0.7,0.3-1.4,0.6-2.1,1c-0.7,0.3-1.3,0.7-1.8,1.2c0.4,0.5,0.8,0.9,1.3,1.1
		c1.4-0.9,2.8-1.9,4.2-2.9C13,404.9,12.8,404.6,12.5,404.5z"/>
	<path class="st3" d="M13.1,405.1c-1.4,1-2.8,2-4.2,2.9l0.1,0c0.6,0.2,1.2,0.2,1.8,0c0.6-0.2,1.1-0.5,1.6-0.9c0.5-0.3,0.9-0.7,1-1.3
		C13.4,405.6,13.3,405.3,13.1,405.1L13.1,405.1z"/>
	<polygon class="st11" points="2.2,336.1 21.4,347.2 -30.2,377 -49.5,365.9 	"/>
	<polygon class="st11" points="-49.5,444.7 -30.2,455.8 -30.2,377 -49.5,365.9 	"/>
	<polygon class="st11" points="21.4,426 -30.2,455.8 -30.2,377 21.4,347.2 	"/>
	<path class="st11" d="M-30.2,377v78.7L21.4,426v-78.8L-30.2,377z M18.4,421.3l-45.6,26.3v-21.1l45.6-26.3V421.3z M18.4,397.2
		l-45.6,26.3v-20.9l45.6-26.3V397.2z M18.4,373.3l-45.6,26.3v-20.9l45.6-26.3V373.3z"/>
	<line class="st11" x1="13.6" y1="370.6" x2="18.4" y2="373.3"/>
	<line class="st11" x1="13.6" y1="393.4" x2="18.4" y2="396.2"/>
	<path class="st11" d="M-27.2,383c1.8,0,3.4-1.1,4.1-2.8v14c-0.6,1.7-2.3,2.8-4.1,2.8V383z"/>
	<line class="st11" x1="-26.4" y1="378.3" x2="-23.1" y2="380.2"/>
	<path class="st11" d="M-23.1,380.2c1.8,0,3.4-1.1,4.1-2.8v14c-0.6,1.7-2.3,2.8-4.1,2.8V380.2z"/>
	<line class="st11" x1="-21.9" y1="375.7" x2="-19" y2="377.4"/>
	<path class="st11" d="M-19,380.4c1.8,0,3.4-1.1,4.1-2.8v11c-0.6,1.7-2.3,2.8-4.1,2.8V380.4z"/>
	<line class="st11" x1="-20.1" y1="374.7" x2="-14.9" y2="377.6"/>
	<line class="st11" x1="-18.3" y1="373.6" x2="-14.9" y2="375.5"/>
	<path class="st11" d="M-15,375.5c1.8,0,3.4-1.1,4.1-2.8v14c-0.6,1.7-2.3,2.8-4.1,2.8V375.5z"/>
	<line class="st11" x1="-13.8" y1="371.1" x2="-10.9" y2="372.8"/>
	<path class="st11" d="M-6.8,372c1.8,0,3.4-1.1,4.1-2.8v12c-0.6,1.7-2.3,2.8-4.1,2.8V372z"/>
	<line class="st11" x1="-6.7" y1="366.9" x2="-2.7" y2="369.2"/>
	<path class="st11" d="M-10.9,376.8c1.8,0,3.4-1.1,4.1-2.8v10c-0.6,1.7-2.3,2.8-4.1,2.8V376.8z"/>
	<line class="st11" x1="-12.8" y1="370.5" x2="-6.8" y2="374"/>
	<line class="st11" x1="-11.1" y1="369.5" x2="-6.8" y2="372"/>
	<path class="st11" d="M-2.7,366.8c1.8,0,3.4-1.1,4.1-2.8v15c-0.6,1.7-2.3,2.8-4.1,2.8V366.8z"/>
	<line class="st11" x1="-0.1" y1="363.2" x2="1.4" y2="364"/>
	<line class="st11" x1="-4.6" y1="365.7" x2="-2.7" y2="366.8"/>
	<path class="st11" d="M1.4,365c1.8,0,3.4-1.1,4.1-2.8v14c-0.6,1.7-2.3,2.8-4.1,2.8V365z"/>
	<line class="st11" x1="3.5" y1="361.1" x2="5.5" y2="362.3"/>
	<path class="st11" d="M5.5,365.3c1.8,0,3.4-1.1,4.1-2.8v11c-0.6,1.7-2.3,2.8-4.1,2.8V365.3z"/>
	<line class="st11" x1="5.3" y1="360" x2="9.6" y2="362.5"/>
	<line class="st11" x1="7.1" y1="359" x2="9.6" y2="360.4"/>
	<path class="st11" d="M9.6,360.4c1.8,0,3.4-1.1,4.1-2.8v14c-0.6,1.7-2.3,2.8-4.1,2.8V360.4z"/>
	<line class="st11" x1="11.6" y1="356.4" x2="13.6" y2="357.6"/>
	<line class="st11" x1="13.6" y1="418.5" x2="18.4" y2="421.3"/>
	<path class="st11" d="M-27.2,430.9c1.8,0,3.4-1.1,4.1-2.8v14c-0.6,1.7-2.3,2.8-4.1,2.8V430.9z"/>
	<line class="st11" x1="-26.4" y1="426.3" x2="-23.1" y2="428.1"/>
	<path class="st11" d="M-23.1,428.1c1.8,0,3.4-1.1,4.1-2.8v14c-0.6,1.7-2.3,2.8-4.1,2.8V428.1z"/>
	<line class="st11" x1="-21.9" y1="423.7" x2="-19" y2="425.4"/>
	<path class="st11" d="M-19,428.4c1.8,0,3.4-1.1,4.1-2.8v11c-0.6,1.7-2.3,2.8-4.1,2.8V428.4z"/>
	<line class="st11" x1="-20.1" y1="422.6" x2="-14.9" y2="425.6"/>
	<line class="st11" x1="-18.3" y1="421.6" x2="-14.9" y2="423.5"/>
	<path class="st11" d="M-15,423.5c1.8,0,3.4-1.1,4.1-2.8v14c-0.6,1.7-2.3,2.8-4.1,2.8V423.5z"/>
	<line class="st11" x1="-13.8" y1="419" x2="-10.9" y2="420.7"/>
	<path class="st11" d="M-6.8,419.9c1.8,0,3.4-1.1,4.1-2.8v12c-0.6,1.7-2.3,2.8-4.1,2.8V419.9z"/>
	<line class="st11" x1="-6.7" y1="414.9" x2="-2.7" y2="417.1"/>
	<path class="st11" d="M-10.9,424.7c1.8,0,3.4-1.1,4.1-2.8v10c-0.6,1.7-2.3,2.8-4.1,2.8V424.7z"/>
	<line class="st11" x1="-12.8" y1="418.5" x2="-6.8" y2="421.9"/>
	<line class="st11" x1="-11.1" y1="417.4" x2="-6.8" y2="419.9"/>
	<path class="st11" d="M-2.7,414.8c1.8,0,3.4-1.1,4.1-2.8v15c-0.6,1.7-2.3,2.8-4.1,2.8V414.8z"/>
	<line class="st11" x1="-0.1" y1="411.2" x2="1.4" y2="412"/>
	<line class="st11" x1="-4.6" y1="413.7" x2="-2.7" y2="414.8"/>
	<path class="st11" d="M1.4,413c1.8,0,3.4-1.1,4.1-2.8v14c-0.6,1.7-2.3,2.8-4.1,2.8V413z"/>
	<line class="st11" x1="3.5" y1="409.1" x2="5.5" y2="410.2"/>
	<path class="st11" d="M5.5,413.2c1.8,0,3.4-1.1,4.1-2.8v11c-0.6,1.7-2.3,2.8-4.1,2.8V413.2z"/>
	<line class="st11" x1="5.3" y1="408" x2="9.6" y2="410.4"/>
	<line class="st11" x1="7.1" y1="406.9" x2="9.6" y2="408.3"/>
	<path class="st11" d="M9.6,408.3c1.8,0,3.4-1.1,4.1-2.8v14c-0.6,1.7-2.3,2.8-4.1,2.8V408.3z"/>
	<line class="st11" x1="11.6" y1="404.4" x2="13.6" y2="405.6"/>
	<path class="st11" d="M-27.2,407c1.8,0,3.4-1.1,4.1-2.8v14c-0.6,1.7-2.3,2.8-4.1,2.8V407z"/>
	<line class="st11" x1="-26.4" y1="402.3" x2="-23.1" y2="404.2"/>
	<path class="st11" d="M-23.1,404.2c1.8,0,3.4-1.1,4.1-2.8v14c-0.6,1.7-2.3,2.8-4.1,2.8V404.2z"/>
	<line class="st11" x1="-21.9" y1="399.8" x2="-19" y2="401.4"/>
	<path class="st11" d="M-19,404.4c1.8,0,3.4-1.1,4.1-2.8v11c-0.6,1.7-2.3,2.8-4.1,2.8V404.4z"/>
	<line class="st11" x1="-20.1" y1="398.7" x2="-14.9" y2="401.6"/>
	<line class="st11" x1="-18.3" y1="397.6" x2="-14.9" y2="399.5"/>
	<path class="st11" d="M-15,399.5c1.8,0,3.4-1.1,4.1-2.8v14c-0.6,1.7-2.3,2.8-4.1,2.8V399.5z"/>
	<line class="st11" x1="-13.8" y1="395.1" x2="-10.9" y2="396.8"/>
	<path class="st11" d="M-6.8,396c1.8,0,3.4-1.1,4.1-2.8v12c-0.6,1.7-2.3,2.8-4.1,2.8V396z"/>
	<line class="st11" x1="-6.7" y1="390.9" x2="-2.7" y2="393.2"/>
	<path class="st11" d="M-10.9,400.8c1.8,0,3.4-1.1,4.1-2.8v10c-0.6,1.7-2.3,2.8-4.1,2.8V400.8z"/>
	<line class="st11" x1="-12.8" y1="394.5" x2="-6.8" y2="398"/>
	<line class="st11" x1="-11.1" y1="393.5" x2="-6.8" y2="396"/>
	<line class="st11" x1="0.7" y1="386.5" x2="5.5" y2="389.3"/>
	<line class="st11" x1="3.4" y1="399.1" x2="5.5" y2="400.3"/>
	<path class="st11" d="M5.5,389.3c1.8,0,3.4-1.1,4.1-2.8v11c-0.6,1.7-2.3,2.8-4.1,2.8V389.3z"/>
	<line class="st11" x1="5.3" y1="384" x2="9.6" y2="386.5"/>
	<line class="st11" x1="7.1" y1="383" x2="9.6" y2="384.4"/>
	<path class="st11" d="M9.6,384.4c1.8,0,3.4-1.1,4.1-2.8v14c-0.6,1.7-2.3,2.8-4.1,2.8V384.4z"/>
	<line class="st11" x1="11.6" y1="380.4" x2="13.6" y2="381.6"/>
	<path class="st11" d="M5.5,391.5l-3,10.9c-0.2,0.7-0.7,1.2-1.4,1.3c-0.8,0.1-1.7-0.1-2.4-0.6l-1.3-0.8"/>
	<path class="st11" d="M-4.4,389.5c1.8,0.9,4.4,2.5,6.2,3.4c0.7,0.4,1.5,0.5,2.2,0.3c0.7-0.2,1.5-1,0.9-1.8l-6.2-3.7"/>
	<g>
		<g>
			<defs>
				<polygon id="SVGID_3_" points="-46.4,395.9 -46.4,373.9 -40.2,377.4 -40.3,399.5 				"/>
			</defs>
			<clipPath id="SVGID_4_">
				<use xlink:href="#SVGID_3_"  style="overflow:visible;"/>
			</clipPath>
			<g class="st12">
				<path class="st3" d="M-42.7,395.9l-2.4-2.6l2.4,0.2L-42.7,395.9 M-40.7,392.4c-0.1-0.1-0.2-0.1-0.3-0.1l-5-0.3
					c-0.3,0-0.4,0.1-0.4,0.5v0.1c0,0.4,0.2,0.7,0.4,1l4.9,5.4c0.1,0.1,0.2,0.2,0.3,0.2c0.1,0.1,0.2,0.1,0.3,0
					c0.1-0.1,0.2-0.2,0.1-0.3c0-0.3-0.1-0.5-0.3-0.7l-1.1-1.2v-3.3l1.1,0.1c0.2,0,0.4-0.1,0.4-0.4c0-0.2-0.1-0.3-0.2-0.5
					C-40.6,392.6-40.7,392.5-40.7,392.4"/>
				<path class="st3" d="M-41.4,384.3c-0.1-0.1-0.2-0.1-0.3,0c-0.1,0.1-0.2,0.2-0.2,0.3c0,0.2,0,0.3,0.1,0.4c0.3,0.6,0.5,1.3,0.6,2
					c0.1,0.5-0.2,1-0.6,1.2c-0.5,0.2-1.1,0.1-1.5-0.2l0,0c-0.6-0.4-1.1-0.9-1.5-1.5c-0.4-0.6-0.6-1.2-0.6-1.9c0-0.5,0.2-1,0.5-1.4
					c0.1-0.1,0.1-0.2,0.1-0.3c0-0.2-0.1-0.3-0.2-0.5c-0.1-0.2-0.2-0.3-0.4-0.4c-0.2-0.1-0.3-0.1-0.4,0c-0.5,0.5-0.8,1.3-0.7,2
					c0,1.1,0.3,2.1,0.9,3c0.5,0.9,1.3,1.7,2.2,2.2l0,0c0.6,0.5,1.5,0.6,2.2,0.3c0.6-0.4,1-1.2,0.9-1.9c0-1.1-0.3-2.1-0.8-3
					C-41.1,384.5-41.2,384.4-41.4,384.3"/>
				<path class="st3" d="M-45.8,374.2c-0.1-0.1-0.2-0.1-0.3,0c-0.1,0.1-0.2,0.2-0.1,0.3v4.5c0,0.2,0.1,0.3,0.1,0.5
					c0.1,0.1,0.2,0.3,0.3,0.4l0,0c0.1,0.1,0.2,0.1,0.3,0c0.1-0.1,0.2-0.2,0.2-0.3v-1.7l4.5,2.6c0.1,0.1,0.3,0.1,0.4,0
					c0.1-0.1,0.2-0.2,0.2-0.3c0-0.2-0.1-0.4-0.2-0.5c-0.1-0.2-0.2-0.3-0.4-0.4l-4.5-2.6V375c0-0.2-0.1-0.3-0.2-0.5
					C-45.6,374.4-45.7,374.3-45.8,374.2"/>
			</g>
		</g>
	</g>
	<path class="st7" d="M-10,369.6L-10,369.6"/>
	<path class="st13" d="M-1.4,427.7c1.3,1.3,2.6,2.5,4,3.6c0.3,0.2,0.6,0.5,0.7,0.9c0.1,0.6-0.6,1.1-1.1,1.4
		c-0.7,0.5-1.6,0.8-2.5,0.8c-0.9-0.1-1.6-0.5-2.1-1.2c-0.5-0.7-0.9-1.4-1.2-2.2c-0.4-1.1-1.3-3.7-0.3-4.7
		C-3,425.2-2.2,426.9-1.4,427.7z"/>
	<polyline class="st14" points="12.9,457.2 18.4,454 18.4,452.1 5.6,451 5.6,452.9 12.9,457.2 	"/>
	<polyline class="st13" points="12.9,455.3 18.4,452.1 11,447.9 5.6,451 12.9,455.3 	"/>
	<path class="st15" d="M2.4,431.6c-1.3,0.3-2.5,0.8-3.5,1.7c-2.3,1.8-4.4,3.9-6.1,6.2c-0.7,1-0.4,2.4,0.6,3.1
		c0.9,0.6,2.2,0.4,2.9-0.4c1.5-2,3.3-3.8,5.3-5.4c0.4-0.4,0.9-0.6,1.4-0.8c0.6,0,1.1,0.3,1.5,0.7c0.6,0.8,1.1,1.7,1.4,2.7
		c1.2,3.3,2,6.7,2.3,10.1c0.2,1.1,1.2,1.8,2.3,1.7c0,0,0.1,0,0.1,0l0,0c-0.7-6.6-1.5-14.2-6.4-19.5C3.6,431.6,3,431.6,2.4,431.6z"/>
	<path class="st3" d="M12.6,449.1c-0.4-3.8-1.2-7.6-2.6-11.2c-0.5-1.5-1.3-2.9-2.3-4.1c-0.9-1.1-2.2-1.8-3.6-2.1
		c4.9,5.2,5.8,12.9,6.4,19.5c1.1,0,1.9-0.8,2-1.9C12.6,449.2,12.6,449.2,12.6,449.1z"/>
	<path class="st16" d="M10.6,451.2c-1.1,0.2-2.1-0.5-2.4-1.6c0,0,0-0.1,0-0.1c-0.3-3.5-1.1-6.9-2.3-10.1c-0.3-1-0.8-1.9-1.4-2.7
		C4.2,436.3,3.6,436,3,436c-0.5,0.2-1,0.5-1.4,0.8c-2,1.6-3.8,3.4-5.3,5.4c-0.8,0.9-2.2,1.1-3.1,0.3c-0.9-0.7-1-2-0.4-2.9
		c1.8-2.4,3.8-4.5,6.1-6.2c1-0.9,2.2-1.4,3.5-1.7c2-0.2,4.1,0.6,5.4,2.1c1,1.2,1.8,2.6,2.3,4.1c1.3,3.6,2.2,7.4,2.6,11.2
		c0.1,1.1-0.7,2-1.8,2.1C10.8,451.2,10.7,451.2,10.6,451.2L10.6,451.2z"/>
	<path class="st17" d="M-7.5,451.4c-0.2,0.6-0.2,1.3,0.2,1.9c0.3,0.3,0.8,0.5,1.2,0.4c0.4-0.1,0.9-0.3,1.2-0.6
		c0.5-0.4,0.9-0.9,1.3-1.4c0.6-0.6,1-1.4,1.2-2.2c0.2-0.8-0.1-1.7-0.8-2.3c-0.5-0.3-1.2-0.4-1.8-0.1c-0.6,0.2-1.1,0.6-1.5,1.1"/>
	<path class="st3" d="M14,460.8l-19.6-12.1c-1-0.6-2.4-0.3-3,0.7c0,0,0,0,0,0v0.1c7.6,5.6,15.8,9.9,23.5,14.1
		C15.3,462.5,14.9,461.4,14,460.8z"/>
	<path class="st15" d="M-8.6,449.4c-0.6,1-0.2,2.3,0.7,2.9l19.6,12.1c1,0.6,2.3,0.4,2.9-0.6c0.1-0.1,0.1-0.3,0.2-0.4
		C7.2,459.3-1,455-8.6,449.4z"/>
	<path class="st16" d="M12.9,464.8c-0.4,0-0.9-0.1-1.2-0.3l-19.6-12.1c-1-0.6-1.3-2-0.7-3c0.6-1,2-1.3,3-0.7L14,460.8
		c1,0.6,1.3,2,0.7,3C14.3,464.4,13.7,464.7,12.9,464.8L12.9,464.8z"/>
	<path class="st17" d="M-14.6,443.7c-0.6,2.2-0.1,4.6,1.3,6.4c1.4,1.8,3.5,2.9,5.8,3.3c-0.1-1.7,0.4-3.4,1.5-4.7
		c0.6-0.8,1.5-1.6,1.5-2.6c0-0.4-0.2-0.7-0.3-1c-1-1.9-2.7-3.4-4.8-4.1c-0.6-0.2-1.3-0.3-1.9-0.2C-13.1,441.1-14.2,442.3-14.6,443.7
		z"/>
	<path class="st3" d="M-10.9,443.7c0.4,0.4,0.7,0.8,1.1,1.2c4-1.5,6.8-5,7.5-9.2c0.2-2.4,0.2-4.7,0-7.1c0-1.4-0.3-2.7-0.6-4.1
		C-10.9,425.4-14.5,436.6-10.9,443.7z"/>
	<path class="st15" d="M-9.4,420.6c-2.3,0.8-4.4,2.2-6,4.1c-1.9,2.1-2,5.5-2,8.3c-0.1,3.1,0.3,6.1,1,9.1v0.1c0.8,3.2,3.3,3.8,6,2.7
		l0.4-0.2c-0.3-0.4-0.7-0.8-1.1-1.2c-3.6-7.1,0-18.3,8-19.1c-0.2-0.7-0.5-1.3-0.8-1.9C-5.1,420.9-7.3,420-9.4,420.6z"/>
	<path class="st16" d="M-16.3,442.3v-0.1c-0.7-3-1.1-6.1-1-9.1c0-2.8,0.1-6.2,2-8.3c1.6-1.9,3.7-3.3,6-4.1c2.1-0.7,4.4,0.2,5.6,2
		c1,1.9,1.5,3.9,1.4,6c0.2,2.4,0.2,4.7,0,7.1c-0.7,4.3-3.8,7.9-7.9,9.4C-13,446.1-15.5,445.5-16.3,442.3z"/>
	<path class="st3" d="M-17.9,434.7c1.8,5,6.1,8.7,11.3,9.7l0.2-2.5c-3-0.4-5.7-2.1-7.5-4.5c-1.7-2.3-2-5.3-0.8-7.9
		c0.5-1,0.1-2.2-0.9-2.7c-0.3-0.2-0.7-0.2-1-0.2C-18,429.1-18.5,432-17.9,434.7z"/>
	<path class="st15" d="M-17.9,434.7c-0.5-2.8-0.1-5.6,1.3-8.1c-0.7,0-1.3,0.4-1.7,1.1c-1.9,3.9-1.4,8.5,1.1,12.1
		c2.4,3.3,6.1,5.5,10.1,6.1h0.4l0.1-1.5C-11.9,443.4-16.2,439.7-17.9,434.7z"/>
	<path class="st16" d="M-6.8,445.9h-0.4c-4-0.6-7.7-2.8-10.1-6.1c-2.5-3.5-3-8.1-1.1-12.1c0.5-1,1.7-1.4,2.7-0.9
		c1,0.5,1.4,1.7,0.9,2.7c0,0,0,0.1-0.1,0.1c-1.2,2.6-0.9,5.6,0.8,8c1.8,2.4,4.5,4,7.5,4.5"/>
	<path class="st13" d="M-1.8,432.1c0.5-0.2,1-0.3,1.5-0.4c1.5-0.4,3.1-0.5,4.7-0.3l0.7,0.1c0.6-2.3,1.6-4.5,2.8-6.5
		c0.1-0.1,0.2-0.2,0.3-0.3c0.1,0,0.2,0,0.3,0.1c0.4,0.3,0.8,0.6,1.2,1l-3.5,9.3h-7.9L-1.8,432.1z"/>
	<polygon class="st18" points="3.8,445.2 6.2,433.1 10.2,425.2 7.9,437.4 	"/>
	<polygon class="st19" points="3.8,445.2 6.2,433.1 -2.1,434 -4.5,446.2 	"/>
	<path class="st13" d="M-4,441.1c-0.7-0.1-1.5,0.2-2,0.7c-0.9,1-1,3.2-0.7,4.5c0.3,1.3,1.7,1.6,2.8,1.7c1.1,0.2,2.2,0.1,3.3-0.4
		c1.2-0.7,1.6-2.2,1-3.4c0,0,0,0,0,0c-0.9-1.4-2.8-1.1-4.2-1.3"/>
	<path class="st20" d="M-12.2,424.6c0,0.4,0.3,0.7,0.6,0.9c0.4,0.2,0.8,0.2,1.1,0.2c0.9-0.1,1.8-0.6,2.2-1.5
		c0.1-0.3,0.2-0.6,0.3-0.9c0.1-0.4,0.2-0.9,0.2-1.3"/>
	<path class="st15" d="M-5.6,409.3c-0.8-0.6-1.8-0.8-2.8-0.5l0,0l0,0l-0.2,0.1l-10.9,5.8l1.2,2.6c4.7-3.2,12-0.1,16.1-3.9
		C-2.9,411.7-4.1,410.3-5.6,409.3z"/>
	<path class="st3" d="M-2.3,413.5c-4.1,3.8-11.4,0.7-16.1,3.9l2.7,5.8c4.4-2.8,9.8-4.8,14-7.8C-1.9,414.7-2.1,414.1-2.3,413.5z"/>
	<path class="st15" d="M-15.7,423.2l1,2.2l11.4-6l0,0c0.9-0.3,1.6-1.3,1.6-2.8c0-0.4,0-0.9-0.1-1.3C-6,418.4-11.3,420.3-15.7,423.2z
		"/>
	<path class="st16" d="M-1.7,416.6c-0.1-2.9-1.5-5.7-3.9-7.4c-0.8-0.6-1.8-0.8-2.8-0.5l0,0l0,0l-0.2,0.1l-10.9,5.8l4.9,10.7l11.4-6
		l0,0C-2.4,419.1-1.7,418.1-1.7,416.6z"/>
	<g>
		<path class="st20" d="M-16.8,415.2c-2.3-1.4-4.2-0.4-4.3,2.2c0.1,2.9,1.5,5.7,3.9,7.4c2.3,1.4,4.2,0.4,4.3-2.2
			C-12.9,419.6-14.4,416.9-16.8,415.2"/>
	</g>
	<line class="st16" x1="-16.9" y1="420" x2="-21.9" y2="422.5"/>
	<circle class="st17" cx="-23.1" cy="423.1" r="1.3"/>
	<line class="st16" x1="-2.9" y1="412.3" x2="-0.7" y2="410.9"/>
	<circle class="st17" cx="0.4" cy="410.3" r="1.3"/>
	<path class="st16" d="M-11.3,418.6c0.3,1,0.4,2,0.2,3"/>
	<path class="st16" d="M-3.7,415.2c0.2,1,0.1,2-0.2,2.9"/>
	<path class="st21" d="M-7.7,420.1l0.5-0.9c0.2,0.1,0.3,0.2,0.4,0.4c0,0,0,0.1,0,0.1c0,0,0,0-0.1,0L-7.7,420.1"/>
	<path class="st17" d="M-16.9,413.3c0,0,8.2-0.2,11.4-2.7c1.3-1,2.2-2.9,0.3-4c-1.2-0.7-2.8,0.1-3.9,0.8
		C-10.3,408-16.9,413.3-16.9,413.3z"/>
	<path class="st17" d="M-18.1,413.8c-0.8-1.4-0.9-3-0.3-4.5c0.6-1.5,1.9-2.5,3.5-2.8c1.6-0.3,3.1,0.3,4.1,1.6"/>
	<path class="st13" d="M9,432.4c-1.3,1-2,2.6-1.9,4.2c0,0.4,0.1,0.8,0.4,1.2c0.4,0.5,1,0.7,1.6,0.5c0.4-0.1,0.8-0.4,1-0.8
		c0.6-0.9,1-1.9,1-3c0.1-0.8,0-1.5-0.2-2.2c-0.2-0.7-0.8-1.3-1.5-1.6"/>
	<path class="st16" d="M-2.6,425.7c1.1,2.4,3,4.4,5.3,5.5"/>
	<path class="st22" d="M-17.2,430.1h0.8"/>
	<path class="st22" d="M-17.3,433.9l0.7-0.4"/>
	<path class="st22" d="M-16.3,438.1c0.3-0.2,0.6-0.4,0.9-0.6"/>
	<path class="st22" d="M-13.5,441l0.6-0.7"/>
	<path class="st22" d="M-9.6,443l0.3-0.8"/>
	<polygon class="st14" points="17.5,459.2 13.3,467.6 11.7,466.4 16,458 	"/>
	<polygon class="st13" points="17.5,459.2 22.1,456.9 20.5,455.7 16,458 	"/>
	<polygon class="st14" points="22.1,456.9 17.8,465.3 13.3,467.6 17.5,459.2 	"/>
	<path class="st22" d="M8.6,441l0.7-0.3"/>
	<path class="st22" d="M9.6,444.4c0.2,0,0.3,0,0.5-0.1"/>
	<path class="st22" d="M9.9,448l0.6-0.1"/>
	<path class="st22" d="M-4.7,451.5l0.3-0.3"/>
	<path class="st22" d="M-1.7,453.7c0.1-0.2,0.3-0.4,0.5-0.5"/>
	<path class="st22" d="M1.7,455.8c0.1-0.2,0.3-0.4,0.4-0.5"/>
	<path class="st22" d="M5.2,458l0.4-0.4"/>
	<path class="st22" d="M8.8,460.2l0.4-0.4"/>
</g>
</svg>
