<svg id="Layer_1" data-name="Layer 1" xmlns="http://www.w3.org/2000/svg" viewBox="0 0 818.7 472.53"><defs><style>.cls-1,.cls-8{fill:#a9d7f3;}.cls-1{opacity:0.5;isolation:isolate;}.cls-2{fill:#fff;}.cls-3{fill:#e7f1f8;}.cls-4{fill:#d0e4f1;}.cls-5{fill:#19bc9c;}.cls-6{fill:#109995;}.cls-7{fill:#a1c2d8;}.cls-9{fill:#d0e4f0;}.cls-10{fill:#3f555a;}.cls-11{fill:#40565b;}.cls-12{fill:#ffdc64;}.cls-13{fill:#faac30;}.cls-14{fill:#f26f42;}.cls-15{fill:#f36f42;}.cls-16{fill:#c84a27;}.cls-17{opacity:0.2;}.cls-18{fill:#c3d4e0;}.cls-19,.cls-22{fill:none;stroke-linecap:round;stroke-linejoin:round;}.cls-19{stroke:#40565b;}.cls-20{fill:#1bb798;}.cls-21{fill:#0c716f;}.cls-22{stroke:#a1c2d8;}</style></defs><title>features-page-administrator-experience-1</title><path class="cls-1" d="M255.85,405.84C245.08,407-46.71,345.05,71.19,298.08s111.35-79.21,80.23-100.14c-21.41-14.4-75.59-5.48-54.19-55.83,10.84-25.5,92.94-17,116.91-33.18s-113.6-31.45-.81-63.07S617.89-.32,675.48,28.79s69.08,90.26,30.12,100,29.55,32.86,74.16,46.58C824.23,189.05,852.35,284.56,762,278c-50-3.62-61.14,12.73-61.12,28a32.71,32.71,0,0,0,19.17,29.33c40.67,19,160.08,82.77-58.12,89.82C405.32,433.52,255.85,405.84,255.85,405.84Z" transform="translate(-2.82 -5.97)"/><rect class="cls-2" x="168.99" y="0.5" width="156.34" height="130.34"/><path class="cls-3" d="M171.81,6.47V136.89H328.15V6.47ZM318.36,127.11H181.59V16.25H318.36Z" transform="translate(-2.82 -5.97)"/><path class="cls-4" d="M210,27.19q5.28-5.36,10.5-10.81H181.9V55.51C191.24,46.15,200.65,36.66,210,27.19Z" transform="translate(-2.82 -5.97)"/><path class="cls-4" d="M318.36,59.19V37.52C283.84,67.28,249.89,97.7,215,127h24.45C264.79,103.32,291.25,80.9,318.36,59.19Z" transform="translate(-2.82 -5.97)"/><path class="cls-4" d="M263.49,127h54.87V80Q290.32,102.81,263.49,127Z" transform="translate(-2.82 -5.97)"/><path class="cls-4" d="M184.31,99.33c15.32-14.82,31.24-29,46.75-43.61,14-13.19,28-26.46,42.27-39.32H242.87c-7.91,8.15-15.63,16.51-23.56,24.45-12.5,12.65-25.11,25.22-37.5,38v22.82Z" transform="translate(-2.82 -5.97)"/><path class="cls-2" d="M253.15,64.9a3.26,3.26,0,0,1-3.26-2.4,3.26,3.26,0,0,1-3.26,2.4H236.31a3.26,3.26,0,0,1-3.26-3.26V56.42a3.26,3.26,0,0,1,3.26-3.26h.78L242.22,40a3.26,3.26,0,0,1-.86-2.23V32.6a3.26,3.26,0,0,1,3.26-3.26h10.32a3.26,3.26,0,0,1,3.26,3.26v5.17a3.26,3.26,0,0,1-.86,2.23l5.12,13.16h.78a3.26,3.26,0,0,1,3.26,3.26v5.17a3.26,3.26,0,0,1-3.26,3.26Z" transform="translate(-2.82 -5.97)"/><path class="cls-5" d="M253,65.4a3.74,3.74,0,0,1-3.14-1.69,3.73,3.73,0,0,1-3.28,1.69h-10.3a3.76,3.76,0,0,1-3.76-3.76V56.42a3.76,3.76,0,0,1,3.76-3.76h.44l4.89-12.56a3.75,3.75,0,0,1-.79-2.33V32.6a3.76,3.76,0,0,1,3.76-3.76h10.32a3.76,3.76,0,0,1,3.76,3.76v5.17a3.74,3.74,0,0,1-.79,2.33l4.89,12.56h.44A3.76,3.76,0,0,1,267,56.42v5.17a3.76,3.76,0,0,1-3.76,3.76l-10.07,0ZM249.89,62a.5.5,0,0,1,.48.37,2.75,2.75,0,0,0,2.76,2h0l10.08,0A2.76,2.76,0,0,0,266,61.59V56.42a2.76,2.76,0,0,0-2.76-2.76h-.78a.5.5,0,0,1-.47-.32l-5.12-13.16a.5.5,0,0,1,.1-.52,2.75,2.75,0,0,0,.73-1.89V32.6a2.76,2.76,0,0,0-2.76-2.76H244.61a2.76,2.76,0,0,0-2.76,2.76v5.17a2.76,2.76,0,0,0,.73,1.89.5.5,0,0,1,.1.52l-5.12,13.16a.5.5,0,0,1-.47.32h-.78a2.76,2.76,0,0,0-2.76,2.76v5.22a2.76,2.76,0,0,0,2.76,2.76h10.32a2.79,2.79,0,0,0,2.78-2A.5.5,0,0,1,249.89,62Z" transform="translate(-2.82 -5.97)"/><path class="cls-5" d="M260.44,56.42,253.17,37.7h2V32.54H244.82V37.7h2l-7.27,18.72h-3v5.17H246.8V56.42h-2.3l1.27-3.26h8.38l1.27,3.26h-2.27v5.17h10.32V56.42ZM247.76,48l2.17-5.59L252.1,48Z" transform="translate(-2.82 -5.97)"/><path class="cls-6" d="M263.47,62.09H253.15a.5.5,0,0,1-.5-.5V56.42a.5.5,0,0,1,.5-.5h1.53l-.88-2.26h-7.7l-.88,2.26h1.57a.5.5,0,0,1,.5.5v5.17a.5.5,0,0,1-.5.5H236.48a.5.5,0,0,1-.5-.5V56.42a.5.5,0,0,1,.5-.5h2.71l6.88-17.72h-1.24a.5.5,0,0,1-.5-.5V32.54a.5.5,0,0,1,.5-.5h10.32a.5.5,0,0,1,.5.5V37.7a.5.5,0,0,1-.5.5H253.9l6.88,17.72h2.69a.5.5,0,0,1,.5.5v5.17A.5.5,0,0,1,263.47,62.09Zm-9.82-1H263V56.92h-2.53a.5.5,0,0,1-.47-.32l-7.27-18.72a.5.5,0,0,1,.47-.68h1.47V33h-9.32V37.2h1.47a.5.5,0,0,1,.47.68L240,56.6a.5.5,0,0,1-.47.32H237v4.17h9.32V56.92h-1.8a.5.5,0,0,1-.47-.68L245.3,53a.5.5,0,0,1,.47-.32h8.38a.5.5,0,0,1,.47.32l1.27,3.26a.5.5,0,0,1-.47.68h-1.77Zm-1.56-12.61h-4.34a.5.5,0,0,1-.47-.68l2.17-5.59a.5.5,0,0,1,.47-.32h0a.5.5,0,0,1,.47.32l2.17,5.59a.5.5,0,0,1-.47.68Zm-3.61-1h2.88l-1.44-3.71Z" transform="translate(-2.82 -5.97)"/><path class="cls-5" d="M250,63a.5.5,0,0,1-.5-.5V56.35a.5.5,0,0,1,1,0V62.5A.5.5,0,0,1,250,63Z" transform="translate(-2.82 -5.97)"/><path class="cls-6" d="M226.24,64.92a.5.5,0,0,1-.29-.09s-.53-.38-1.43-1.11a36.24,36.24,0,0,1-11.06-15.44A37.61,37.61,0,0,1,211.2,34.1a40.6,40.6,0,0,1,.68-6.51.5.5,0,0,1,1,.18,39.55,39.55,0,0,0-.66,6.36,36.6,36.6,0,0,0,2.2,13.8,35.23,35.23,0,0,0,10.75,15c.86.7,1.37,1.07,1.38,1.07a.5.5,0,0,1-.29.91Z" transform="translate(-2.82 -5.97)"/><path class="cls-5" d="M203.42,31.48a4.17,4.17,0,0,0,2.79,1.81,4.71,4.71,0,0,0,3-1.37,4.66,4.66,0,0,0-2.74-1.81,3.26,3.26,0,0,0-2.12.6A4.89,4.89,0,0,0,203.42,31.48Z" transform="translate(-2.82 -5.97)"/><path class="cls-6" d="M206.2,33.79h-.08a4.69,4.69,0,0,1-3.12-2,.5.5,0,0,1,.05-.62,5.43,5.43,0,0,1,1-.84,3.76,3.76,0,0,1,2.43-.68,5.18,5.18,0,0,1,3.11,2,.5.5,0,0,1-.05.65,5.21,5.21,0,0,1-3.3,1.51Zm-2.13-2.26a3.69,3.69,0,0,0,2.15,1.25,4.22,4.22,0,0,0,2.27-.92,4.16,4.16,0,0,0-2.16-1.27,2.82,2.82,0,0,0-1.72.52A4.64,4.64,0,0,0,204.08,31.53Z" transform="translate(-2.82 -5.97)"/><path class="cls-5" d="M203.43,39.25a4.14,4.14,0,0,0,3,1.37,4.73,4.73,0,0,0,2.71-1.86,6.52,6.52,0,0,0-.9-.7,3.7,3.7,0,0,0-2.09-.67,3.26,3.26,0,0,0-2,.95A4.68,4.68,0,0,0,203.43,39.25Z" transform="translate(-2.82 -5.97)"/><path class="cls-6" d="M206.48,41.12h0a4.65,4.65,0,0,1-3.42-1.53.5.5,0,0,1,0-.61,5.2,5.2,0,0,1,.87-1,3.74,3.74,0,0,1,2.27-1.07,4.2,4.2,0,0,1,2.42.76,7,7,0,0,1,1,.74.5.5,0,0,1,.07.65,5.23,5.23,0,0,1-3,2.06Zm-2.39-1.92a3.65,3.65,0,0,0,2.33.92,4.23,4.23,0,0,0,2.08-1.29,5.9,5.9,0,0,0-.48-.35,3.19,3.19,0,0,0-1.82-.59,2.75,2.75,0,0,0-1.63.8A4.42,4.42,0,0,0,204.09,39.2Z" transform="translate(-2.82 -5.97)"/><path class="cls-5" d="M204.79,47.08a4.12,4.12,0,0,0,3.26.82,4.74,4.74,0,0,0,2.35-2.31,6.75,6.75,0,0,0-1-.54,3.7,3.7,0,0,0-2.17-.31A3.26,3.26,0,0,0,205.42,46,4.7,4.7,0,0,0,204.79,47.08Z" transform="translate(-2.82 -5.97)"/><path class="cls-6" d="M207.33,48.46a4.63,4.63,0,0,1-2.85-1,.5.5,0,0,1-.15-.59,5.2,5.2,0,0,1,.7-1.19,3.75,3.75,0,0,1,2.05-1.44,4.2,4.2,0,0,1,2.52.34,7.19,7.19,0,0,1,1.07.57.5.5,0,0,1,.18.63,5.25,5.25,0,0,1-2.59,2.56l-.12,0A4.58,4.58,0,0,1,207.33,48.46Zm-1.91-1.54a3.63,3.63,0,0,0,2.48.5,4.25,4.25,0,0,0,1.83-1.65q-.27-.15-.54-.26a3.22,3.22,0,0,0-1.89-.28,2.76,2.76,0,0,0-1.46,1.06A4.38,4.38,0,0,0,205.42,46.91Z" transform="translate(-2.82 -5.97)"/><path class="cls-5" d="M207.56,54.59a4.14,4.14,0,0,0,3.26.21,4.71,4.71,0,0,0,1.87-2.71,4.7,4.7,0,0,0-3.26-.24C208,52.47,207.56,54.59,207.56,54.59Z" transform="translate(-2.82 -5.97)"/><path class="cls-6" d="M209.44,55.54a4.65,4.65,0,0,1-2.11-.5.5.5,0,0,1-.26-.55c0-.1.53-2.38,2.16-3.09a5.22,5.22,0,0,1,3.67.25.5.5,0,0,1,.28.58,5.21,5.21,0,0,1-2.07,3l-.12.06A4.63,4.63,0,0,1,209.44,55.54Zm-1.28-1.23a3.67,3.67,0,0,0,2.43,0,4.21,4.21,0,0,0,1.49-2,4.19,4.19,0,0,0-2.51-.06A3.28,3.28,0,0,0,208.16,54.31Z" transform="translate(-2.82 -5.97)"/><path class="cls-5" d="M211.63,61.46a4.55,4.55,0,0,0,1.19.2,3.26,3.26,0,0,0,2.14-.59,3.68,3.68,0,0,0,1.14-1.87,7.12,7.12,0,0,0,.23-1.12,4.74,4.74,0,0,0-3.26.36A4.12,4.12,0,0,0,211.63,61.46Z" transform="translate(-2.82 -5.97)"/><path class="cls-6" d="M213.07,62.16h-.29a5,5,0,0,1-1.3-.22.5.5,0,0,1-.35-.49,4.63,4.63,0,0,1,1.61-3.4l.1-.07a5.25,5.25,0,0,1,3.6-.4.5.5,0,0,1,.38.54,7.66,7.66,0,0,1-.24,1.2,4.15,4.15,0,0,1-1.29,2.11A3.81,3.81,0,0,1,213.07,62.16Zm-.91-1.09a4.07,4.07,0,0,0,.67.08,2.78,2.78,0,0,0,1.83-.5,3.16,3.16,0,0,0,.94-1.59q.09-.31.15-.6a4.25,4.25,0,0,0-2.41.38A3.63,3.63,0,0,0,212.16,61.07Z" transform="translate(-2.82 -5.97)"/><path class="cls-5" d="M216.78,67.47a4.11,4.11,0,0,0,3.26-1,4.76,4.76,0,0,0,.8-3.26,7,7,0,0,0-1.14,0,3.68,3.68,0,0,0-2,.86,3.26,3.26,0,0,0-.88,2A4.56,4.56,0,0,0,216.78,67.47Z" transform="translate(-2.82 -5.97)"/><path class="cls-6" d="M217.34,68a4.63,4.63,0,0,1-.62,0,.5.5,0,0,1-.43-.43,5.06,5.06,0,0,1,0-1.5,3.73,3.73,0,0,1,1-2.28,4.19,4.19,0,0,1,2.34-1,7.52,7.52,0,0,1,1.23,0,.5.5,0,0,1,.46.44,5.26,5.26,0,0,1-.88,3.6l-.08.09A4.6,4.6,0,0,1,217.34,68Zm-.1-1a3.5,3.5,0,0,0,2.42-.85,4.26,4.26,0,0,0,.71-2.45,5.62,5.62,0,0,0-.63,0,3.16,3.16,0,0,0-1.74.75,2.75,2.75,0,0,0-.71,1.67A4.42,4.42,0,0,0,217.24,67Z" transform="translate(-2.82 -5.97)"/><path class="cls-5" d="M220.19,32.73a5.23,5.23,0,0,1-3,1,4.39,4.39,0,0,1-2.8-1.45,4.43,4.43,0,0,1,3-1A5.17,5.17,0,0,1,220.19,32.73Z" transform="translate(-2.82 -5.97)"/><path class="cls-6" d="M217.25,34.23a4.89,4.89,0,0,1-3.19-1.62.5.5,0,0,1,.06-.72,4.91,4.91,0,0,1,3.34-1.11,5.66,5.66,0,0,1,3.09,1.6.5.5,0,0,1-.06.76A5.71,5.71,0,0,1,217.25,34.23Zm-2-1.89a3.88,3.88,0,0,0,2.08.89,4.65,4.65,0,0,0,2.07-.56,4.64,4.64,0,0,0-2-.89A3.92,3.92,0,0,0,215.21,32.34Z" transform="translate(-2.82 -5.97)"/><path class="cls-5" d="M220.34,39.09a6.06,6.06,0,0,1-.77.67,4.58,4.58,0,0,1-1.92.9,3.86,3.86,0,0,1-2.12-.29,4.42,4.42,0,0,1-.93-.52,4.42,4.42,0,0,1,.77-.75,3.86,3.86,0,0,1,2-.82,4.55,4.55,0,0,1,2.09.37A6.18,6.18,0,0,1,220.34,39.09Z" transform="translate(-2.82 -5.97)"/><path class="cls-6" d="M217.09,41.19a4.34,4.34,0,0,1-1.77-.37,4.92,4.92,0,0,1-1-.58.5.5,0,0,1-.1-.72,4.94,4.94,0,0,1,.85-.83,4.35,4.35,0,0,1,2.22-.92,5.11,5.11,0,0,1,2.34.41,6.54,6.54,0,0,1,1,.47.5.5,0,0,1,.11.78,6.54,6.54,0,0,1-.83.72,5.08,5.08,0,0,1-2.12,1A4.58,4.58,0,0,1,217.09,41.19Zm-1.72-1.46.34.16a3.35,3.35,0,0,0,1.86.26,4.08,4.08,0,0,0,1.68-.79l.21-.16-.22-.09a4.11,4.11,0,0,0-1.88-.34,3.35,3.35,0,0,0-1.69.71Z" transform="translate(-2.82 -5.97)"/><path class="cls-5" d="M221.79,45.09a7.47,7.47,0,0,1-.6.8,4.68,4.68,0,0,1-1.63,1.29,3.86,3.86,0,0,1-2.12.2,4,4,0,0,1-1-.29,4.52,4.52,0,0,1,.59-.88A3.86,3.86,0,0,1,218.76,45a4.69,4.69,0,0,1,2.12-.1A6,6,0,0,1,221.79,45.09Z" transform="translate(-2.82 -5.97)"/><path class="cls-6" d="M218.15,47.94a4.32,4.32,0,0,1-.8-.08,4.46,4.46,0,0,1-1.12-.33.5.5,0,0,1-.24-.69,5,5,0,0,1,.65-1,4.35,4.35,0,0,1,2-1.37,5.24,5.24,0,0,1,2.37-.12,6.4,6.4,0,0,1,1,.23.5.5,0,0,1,.27.75,8,8,0,0,1-.64.85,5.18,5.18,0,0,1-1.79,1.41A4.44,4.44,0,0,1,218.15,47.94Zm-1-1.13.34.07a3.39,3.39,0,0,0,1.86-.17,4.19,4.19,0,0,0,1.42-1.14l.15-.18-.15,0a4.22,4.22,0,0,0-1.91.09,3.35,3.35,0,0,0-1.49,1.06Z" transform="translate(-2.82 -5.97)"/><path class="cls-5" d="M224.56,50.58a6.34,6.34,0,0,1-.41.93,4.6,4.6,0,0,1-1.34,1.63,3.88,3.88,0,0,1-2,.67,4.3,4.3,0,0,1-1.06,0,4.53,4.53,0,0,1,.36-1,3.86,3.86,0,0,1,1.42-1.63,4.61,4.61,0,0,1,2-.57A5.93,5.93,0,0,1,224.56,50.58Z" transform="translate(-2.82 -5.97)"/><path class="cls-6" d="M220.25,54.34a4.84,4.84,0,0,1-.6,0,.5.5,0,0,1-.43-.61,5,5,0,0,1,.4-1.1,4.34,4.34,0,0,1,1.6-1.83,5.16,5.16,0,0,1,2.29-.65,6.14,6.14,0,0,1,1.08,0,.5.5,0,0,1,.44.66,6.89,6.89,0,0,1-.44,1,5.1,5.1,0,0,1-1.47,1.79,4.4,4.4,0,0,1-2.32.77A4.21,4.21,0,0,1,220.25,54.34Zm3.55-3.25-.22,0a4.2,4.2,0,0,0-1.86.51,3.34,3.34,0,0,0-1.21,1.4c-.05.1-.1.21-.14.31l.33,0a3.44,3.44,0,0,0,1.82-.59,4.11,4.11,0,0,0,1.17-1.44Z" transform="translate(-2.82 -5.97)"/><path class="cls-5" d="M228.51,55.34a5.46,5.46,0,0,1-1.12,2.89,4.35,4.35,0,0,1-2.89,1.27,4.06,4.06,0,0,1,.13-1.06,3.85,3.85,0,0,1,1-1.87,4.65,4.65,0,0,1,1.86-1A7.06,7.06,0,0,1,228.51,55.34Z" transform="translate(-2.82 -5.97)"/><path class="cls-6" d="M224.5,60a.5.5,0,0,1-.5-.5,4.56,4.56,0,0,1,.15-1.19,4.32,4.32,0,0,1,1.16-2.1,5.19,5.19,0,0,1,2.08-1.14,7.48,7.48,0,0,1,1.06-.23.5.5,0,0,1,.57.54,5.94,5.94,0,0,1-1.23,3.15A4.86,4.86,0,0,1,224.52,60Zm3.41-4-.26.07a4.17,4.17,0,0,0-1.66.9,3.33,3.33,0,0,0-.87,1.61,3.82,3.82,0,0,0-.08.38,3.84,3.84,0,0,0,2-1.06A4.87,4.87,0,0,0,227.91,56Z" transform="translate(-2.82 -5.97)"/><path class="cls-6" d="M273.7,64.92a.5.5,0,0,1-.29-.91s.52-.37,1.38-1.07a35.23,35.23,0,0,0,10.75-15,36.6,36.6,0,0,0,2.2-13.8,39.62,39.62,0,0,0-.66-6.36.5.5,0,1,1,1-.18,40.61,40.61,0,0,1,.68,6.52,37.59,37.59,0,0,1-2.26,14.17,36.23,36.23,0,0,1-11.06,15.44c-.9.73-1.43,1.11-1.43,1.11A.5.5,0,0,1,273.7,64.92Z" transform="translate(-2.82 -5.97)"/><path class="cls-5" d="M296.53,31.48a4.17,4.17,0,0,1-2.79,1.81,4.71,4.71,0,0,1-3-1.37,4.66,4.66,0,0,1,2.74-1.81,3.26,3.26,0,0,1,2.12.6A4.89,4.89,0,0,1,296.53,31.48Z" transform="translate(-2.82 -5.97)"/><path class="cls-6" d="M293.75,33.79h0a5.21,5.21,0,0,1-3.3-1.51.5.5,0,0,1-.05-.65,5.16,5.16,0,0,1,3-2,3.78,3.78,0,0,1,2.52.68,5.3,5.3,0,0,1,1,.83.5.5,0,0,1,.05.62,4.69,4.69,0,0,1-3.12,2Zm-2.3-1.92a4.22,4.22,0,0,0,2.27.92,3.69,3.69,0,0,0,2.15-1.25,4.38,4.38,0,0,0-.52-.4,2.75,2.75,0,0,0-1.81-.52A4.12,4.12,0,0,0,291.45,31.86Z" transform="translate(-2.82 -5.97)"/><path class="cls-5" d="M296.5,39.25a4.14,4.14,0,0,1-3,1.37,4.73,4.73,0,0,1-2.71-1.86,6.52,6.52,0,0,1,.9-.7,3.7,3.7,0,0,1,2.09-.67,3.26,3.26,0,0,1,2,.95A4.68,4.68,0,0,1,296.5,39.25Z" transform="translate(-2.82 -5.97)"/><path class="cls-6" d="M293.45,41.12l-.12,0a5.23,5.23,0,0,1-3-2.06.5.5,0,0,1,.07-.65,7.06,7.06,0,0,1,1-.75,4.16,4.16,0,0,1,2.35-.75A3.79,3.79,0,0,1,296.07,38a5.12,5.12,0,0,1,.85,1,.5.5,0,0,1,0,.61,4.65,4.65,0,0,1-3.42,1.53Zm-2-2.29a4.23,4.23,0,0,0,2.08,1.29,3.65,3.65,0,0,0,2.33-.92,4.25,4.25,0,0,0-.46-.49,2.79,2.79,0,0,0-1.7-.82,3.17,3.17,0,0,0-1.75.58C291.76,38.59,291.59,38.7,291.44,38.83Z" transform="translate(-2.82 -5.97)"/><path class="cls-5" d="M295.15,47.08a4.12,4.12,0,0,1-3.26.82,4.74,4.74,0,0,1-2.35-2.31,6.75,6.75,0,0,1,1-.54,3.7,3.7,0,0,1,2.17-.31A3.26,3.26,0,0,1,294.51,46,4.7,4.7,0,0,1,295.15,47.08Z" transform="translate(-2.82 -5.97)"/><path class="cls-6" d="M292.6,48.46a4.58,4.58,0,0,1-.8-.07l-.12,0a5.25,5.25,0,0,1-2.59-2.56.5.5,0,0,1,.18-.63,7.25,7.25,0,0,1,1.09-.58,4.17,4.17,0,0,1,2.44-.34,3.79,3.79,0,0,1,2.12,1.48,5.07,5.07,0,0,1,.69,1.17.5.5,0,0,1-.15.59A4.63,4.63,0,0,1,292.6,48.46Zm-.57-1a3.63,3.63,0,0,0,2.48-.5,4.18,4.18,0,0,0-.4-.6,2.79,2.79,0,0,0-1.54-1.1,3.19,3.19,0,0,0-1.82.28c-.19.08-.38.17-.56.27A4.25,4.25,0,0,0,292,47.41Z" transform="translate(-2.82 -5.97)"/><path class="cls-5" d="M292.39,54.59a4.14,4.14,0,0,1-3.26.21,4.71,4.71,0,0,1-1.87-2.71,4.7,4.7,0,0,1,3.26-.24C291.94,52.47,292.39,54.59,292.39,54.59Z" transform="translate(-2.82 -5.97)"/><path class="cls-6" d="M290.51,55.54a4.63,4.63,0,0,1-1.55-.27l-.12-.06a5.21,5.21,0,0,1-2.07-3,.5.5,0,0,1,.28-.58,5.2,5.2,0,0,1,3.61-.27c1.7.74,2.2,3,2.22,3.11a.5.5,0,0,1-.26.55A4.65,4.65,0,0,1,290.51,55.54Zm-1.15-1.19a3.65,3.65,0,0,0,2.43,0,3.31,3.31,0,0,0-1.47-2,4.16,4.16,0,0,0-2.45.08A4.21,4.21,0,0,0,289.36,54.35Z" transform="translate(-2.82 -5.97)"/><path class="cls-5" d="M288.32,61.46a4.55,4.55,0,0,1-1.19.2,3.26,3.26,0,0,1-2.14-.59,3.68,3.68,0,0,1-1.14-1.87,7.12,7.12,0,0,1-.23-1.12,4.74,4.74,0,0,1,3.26.36A4.12,4.12,0,0,1,288.32,61.46Z" transform="translate(-2.82 -5.97)"/><path class="cls-6" d="M286.86,62.16a3.76,3.76,0,0,1-2.16-.69,4.19,4.19,0,0,1-1.34-2.16,7.69,7.69,0,0,1-.24-1.19.5.5,0,0,1,.38-.55,5.26,5.26,0,0,1,3.6.4l.1.07a4.63,4.63,0,0,1,1.61,3.4.5.5,0,0,1-.35.49,5.07,5.07,0,0,1-1.32.22Zm-2.67-3.7c0,.2.08.39.14.59a3.19,3.19,0,0,0,1,1.64,2.74,2.74,0,0,0,1.77.46,4.25,4.25,0,0,0,.7-.08,3.63,3.63,0,0,0-1.18-2.23A4.25,4.25,0,0,0,284.19,58.46Z" transform="translate(-2.82 -5.97)"/><path class="cls-5" d="M283.1,67.47a4.11,4.11,0,0,1-3.26-1,4.76,4.76,0,0,1-.8-3.26,7,7,0,0,1,1.14,0,3.68,3.68,0,0,1,2,.86,3.26,3.26,0,0,1,.88,2A4.56,4.56,0,0,1,283.1,67.47Z" transform="translate(-2.82 -5.97)"/><path class="cls-6" d="M282.55,68a4.61,4.61,0,0,1-3-1.14l-.08-.09a5.26,5.26,0,0,1-.88-3.6.5.5,0,0,1,.46-.44,7.74,7.74,0,0,1,1.22,0,4.17,4.17,0,0,1,2.31,1,3.79,3.79,0,0,1,1.05,2.37,4.89,4.89,0,0,1,0,1.45.5.5,0,0,1-.43.43A4.64,4.64,0,0,1,282.55,68Zm.56-.54h0Zm-2.88-1.31a3.6,3.6,0,0,0,2.42.85,4.05,4.05,0,0,0,0-.81,2.81,2.81,0,0,0-.75-1.76,3.15,3.15,0,0,0-1.71-.71c-.2,0-.41,0-.62,0A4.26,4.26,0,0,0,280.22,66.16Z" transform="translate(-2.82 -5.97)"/><path class="cls-5" d="M279.76,32.73a5.23,5.23,0,0,0,3,1,4.39,4.39,0,0,0,2.8-1.45,4.43,4.43,0,0,0-3-1A5.17,5.17,0,0,0,279.76,32.73Z" transform="translate(-2.82 -5.97)"/><path class="cls-6" d="M282.77,34.22a5.73,5.73,0,0,1-3.3-1.09.5.5,0,0,1-.06-.76,5.64,5.64,0,0,1,3-1.59,5,5,0,0,1,3.4,1.1.5.5,0,0,1,.06.72A4.87,4.87,0,0,1,282.77,34.22Zm-2.18-1.56a4.71,4.71,0,0,0,2.13.56,3.82,3.82,0,0,0,2-.89,4,4,0,0,0-2.2-.56A4.57,4.57,0,0,0,280.59,32.66Z" transform="translate(-2.82 -5.97)"/><path class="cls-5" d="M279.61,39.09a6.06,6.06,0,0,0,.77.67,4.58,4.58,0,0,0,1.92.9,3.86,3.86,0,0,0,2.12-.29,4.42,4.42,0,0,0,.93-.52,4.42,4.42,0,0,0-.77-.75,3.86,3.86,0,0,0-2-.82,4.55,4.55,0,0,0-2.09.37A6.18,6.18,0,0,0,279.61,39.09Z" transform="translate(-2.82 -5.97)"/><path class="cls-6" d="M282.86,41.19a4.4,4.4,0,0,1-.62,0,5.13,5.13,0,0,1-2.16-1,6.49,6.49,0,0,1-.81-.71.5.5,0,0,1,.11-.78,6.67,6.67,0,0,1,1-.48,5,5,0,0,1,2.29-.41,4.37,4.37,0,0,1,2.25.92,4.92,4.92,0,0,1,.85.83.5.5,0,0,1-.1.72,5,5,0,0,1-1,.58A4.33,4.33,0,0,1,282.86,41.19Zm-2.37-2,.19.15a4.12,4.12,0,0,0,1.73.81,3.33,3.33,0,0,0,1.82-.26l.36-.17-.29-.25a3.36,3.36,0,0,0-1.72-.71,4,4,0,0,0-1.83.34Z" transform="translate(-2.82 -5.97)"/><path class="cls-5" d="M278.15,45.09a7.46,7.46,0,0,0,.6.8,4.68,4.68,0,0,0,1.63,1.29,3.86,3.86,0,0,0,2.12.2,4,4,0,0,0,1-.29,4.52,4.52,0,0,0-.59-.88A3.86,3.86,0,0,0,281.18,45a4.69,4.69,0,0,0-2.12-.1A6,6,0,0,0,278.15,45.09Z" transform="translate(-2.82 -5.97)"/><path class="cls-6" d="M281.78,47.94a4.38,4.38,0,0,1-1.58-.3,5.23,5.23,0,0,1-1.84-1.44,7.87,7.87,0,0,1-.63-.84.5.5,0,0,1,.27-.75,6.44,6.44,0,0,1,1-.23,5.22,5.22,0,0,1,2.33.11,4.37,4.37,0,0,1,2,1.39,5,5,0,0,1,.64,1,.5.5,0,0,1-.24.68,4.48,4.48,0,0,1-1.14.33A4.25,4.25,0,0,1,281.78,47.94ZM279,45.39l.14.16a4.23,4.23,0,0,0,1.47,1.16,3.35,3.35,0,0,0,1.81.16l.36-.07-.22-.29A3.37,3.37,0,0,0,281,45.45a4.2,4.2,0,0,0-1.87-.08Z" transform="translate(-2.82 -5.97)"/><path class="cls-5" d="M275.37,50.58a6.34,6.34,0,0,0,.41.93,4.6,4.6,0,0,0,1.34,1.63,3.88,3.88,0,0,0,2,.67,4.3,4.3,0,0,0,1.06,0,4.51,4.51,0,0,0-.36-1,3.86,3.86,0,0,0-1.42-1.63,4.61,4.61,0,0,0-2-.57A5.93,5.93,0,0,0,275.37,50.58Z" transform="translate(-2.82 -5.97)"/><path class="cls-6" d="M279.69,54.34a4.79,4.79,0,0,1-.59,0,4.32,4.32,0,0,1-2.26-.75,5.14,5.14,0,0,1-1.5-1.82,6.79,6.79,0,0,1-.43-1,.5.5,0,0,1,.44-.66,6.25,6.25,0,0,1,1.11,0,5.09,5.09,0,0,1,2.22.63,4.37,4.37,0,0,1,1.63,1.86,5,5,0,0,1,.39,1.09.5.5,0,0,1-.43.61A4.78,4.78,0,0,1,279.69,54.34Zm-3.56-3.25.1.18a4.14,4.14,0,0,0,1.2,1.47,3.37,3.37,0,0,0,1.75.57l.37,0c0-.1-.09-.2-.14-.3a3.37,3.37,0,0,0-1.24-1.43,4.12,4.12,0,0,0-1.79-.49Z" transform="translate(-2.82 -5.97)"/><path class="cls-5" d="M271.43,55.34a5.46,5.46,0,0,0,1.12,2.89,4.35,4.35,0,0,0,2.89,1.27,4.06,4.06,0,0,0-.13-1.06,3.86,3.86,0,0,0-1-1.87,4.65,4.65,0,0,0-1.86-1A7.06,7.06,0,0,0,271.43,55.34Z" transform="translate(-2.82 -5.97)"/><path class="cls-6" d="M275.44,60h0a4.84,4.84,0,0,1-3.22-1.42,6,6,0,0,1-1.27-3.2.5.5,0,0,1,.15-.4.49.49,0,0,1,.41-.13,7.57,7.57,0,0,1,1.06.23,5.17,5.17,0,0,1,2.05,1.12,4.38,4.38,0,0,1,1.18,2.14,4.52,4.52,0,0,1,.14,1.17.5.5,0,0,1-.5.5ZM272,56a5,5,0,0,0,.92,2,3.79,3.79,0,0,0,2,1,3.56,3.56,0,0,0-.08-.37,3.38,3.38,0,0,0-.9-1.65,4.15,4.15,0,0,0-1.64-.88Z" transform="translate(-2.82 -5.97)"/><path class="cls-7" d="M277.1,91h-11a.5.5,0,0,1,0-1h11a.5.5,0,0,1,0,1Z" transform="translate(-2.82 -5.97)"/><path class="cls-7" d="M259.17,91H246.65a.5.5,0,1,1,0-1h12.52a.5.5,0,0,1,0,1Z" transform="translate(-2.82 -5.97)"/><path class="cls-7" d="M239.74,91H223.31a.5.5,0,0,1,0-1h16.43a.5.5,0,0,1,0,1Z" transform="translate(-2.82 -5.97)"/><path class="cls-7" d="M286.13,85H254.9a.5.5,0,0,1,0-1h31.24a.5.5,0,0,1,0,1Z" transform="translate(-2.82 -5.97)"/><path class="cls-7" d="M250.89,85H227.84a.5.5,0,0,1,0-1h23.05a.5.5,0,0,1,0,1Z" transform="translate(-2.82 -5.97)"/><path class="cls-7" d="M223.31,85h-9.49a.5.5,0,0,1,0-1h9.49a.5.5,0,0,1,0,1Z" transform="translate(-2.82 -5.97)"/><path class="cls-7" d="M277.1,78.88h-11a.5.5,0,0,1,0-1h11a.5.5,0,0,1,0,1Z" transform="translate(-2.82 -5.97)"/><path class="cls-7" d="M259.17,78.88H246.65a.5.5,0,0,1,0-1h12.52a.5.5,0,0,1,0,1Z" transform="translate(-2.82 -5.97)"/><path class="cls-7" d="M239.74,78.88H223.31a.5.5,0,0,1,0-1h16.43a.5.5,0,0,1,0,1Z" transform="translate(-2.82 -5.97)"/><path class="cls-7" d="M328.15,137.39H171.81a.5.5,0,0,1-.5-.5V6.47a.5.5,0,0,1,.5-.5H328.15a.5.5,0,0,1,.5.5V136.89A.5.5,0,0,1,328.15,137.39Zm-155.84-1H327.65V7H172.31Zm146.06-8.78H181.59a.5.5,0,0,1-.5-.5V16.25a.5.5,0,0,1,.5-.5H318.36a.5.5,0,0,1,.5.5V127.11A.5.5,0,0,1,318.36,127.61Zm-136.28-1H317.86V16.75H182.09Z" transform="translate(-2.82 -5.97)"/><path class="cls-7" d="M181.59,16.75a.5.5,0,0,1-.35-.15l-9.78-9.78a.5.5,0,1,1,.71-.71l9.78,9.78a.5.5,0,0,1-.35.85Z" transform="translate(-2.82 -5.97)"/><path class="cls-7" d="M318.36,16.75a.5.5,0,0,1-.35-.85l9.78-9.78a.5.5,0,1,1,.71.71l-9.78,9.78A.5.5,0,0,1,318.36,16.75Z" transform="translate(-2.82 -5.97)"/><path class="cls-7" d="M328.15,137.31a.5.5,0,0,1-.35-.15L318,127.38a.5.5,0,0,1,.71-.71l9.78,9.78a.5.5,0,0,1-.35.85Z" transform="translate(-2.82 -5.97)"/><path class="cls-7" d="M171.81,137.31a.5.5,0,0,1-.35-.85l9.78-9.78a.5.5,0,0,1,.71.71l-9.78,9.78A.5.5,0,0,1,171.81,137.31Z" transform="translate(-2.82 -5.97)"/><path class="cls-7" d="M199.75,118.74c-3.79,0-6.87-3.78-6.87-8.42s3.08-8.42,6.87-8.42,6.87,3.78,6.87,8.42S203.54,118.74,199.75,118.74Zm0-15.85c-3.24,0-5.87,3.33-5.87,7.42s2.64,7.42,5.87,7.42,5.87-3.33,5.87-7.42S203,102.89,199.75,102.89Z" transform="translate(-2.82 -5.97)"/><path class="cls-7" d="M203.43,112H196a.5.5,0,0,1,0-1h7.45a.5.5,0,0,1,0,1Z" transform="translate(-2.82 -5.97)"/><path class="cls-7" d="M203,109.09a.5.5,0,0,1-.5-.5v-.81a.5.5,0,1,1,1,0v.81A.5.5,0,0,1,203,109.09Z" transform="translate(-2.82 -5.97)"/><path class="cls-7" d="M196.44,109.09a.5.5,0,0,1-.5-.5v-.81a.5.5,0,1,1,1,0v.81A.5.5,0,0,1,196.44,109.09Z" transform="translate(-2.82 -5.97)"/><path class="cls-7" d="M199.7,109.09a.5.5,0,0,1-.5-.5v-2.75a.5.5,0,1,1,1,0v2.75A.5.5,0,0,1,199.7,109.09Z" transform="translate(-2.82 -5.97)"/><path class="cls-7" d="M201.12,114.84h-2.84a.5.5,0,0,1,0-1h2.84a.5.5,0,0,1,0,1Z" transform="translate(-2.82 -5.97)"/><path class="cls-7" d="M212.22,107h-1.61a.5.5,0,1,1,0-1h1.61a.5.5,0,0,1,0,1Z" transform="translate(-2.82 -5.97)"/><path class="cls-7" d="M224.07,107h-8.41a.5.5,0,0,1,0-1h8.41a.5.5,0,0,1,0,1Z" transform="translate(-2.82 -5.97)"/><path class="cls-7" d="M216.15,110.9h-5.69a.5.5,0,0,1,0-1h5.69a.5.5,0,0,1,0,1Z" transform="translate(-2.82 -5.97)"/><path class="cls-7" d="M225.85,110.9h-6.44a.5.5,0,0,1,0-1h6.44a.5.5,0,0,1,0,1Z" transform="translate(-2.82 -5.97)"/><path class="cls-7" d="M219.72,114.68h-9.39a.5.5,0,1,1,0-1h9.39a.5.5,0,0,1,0,1Z" transform="translate(-2.82 -5.97)"/><path class="cls-7" d="M254.78,108.53h-9.62a.5.5,0,0,1,0-1h9.62a.5.5,0,0,1,0,1Z" transform="translate(-2.82 -5.97)"/><path class="cls-7" d="M259.89,114.25H240.06a.5.5,0,0,1,0-1h19.82a.5.5,0,0,1,0,1Z" transform="translate(-2.82 -5.97)"/><path class="cls-7" d="M277.51,117.37h0a.5.5,0,0,1-.5-.5,78.1,78.1,0,0,0-.86-11.76.5.5,0,0,1,1-.15,79.15,79.15,0,0,1,.87,11.91A.5.5,0,0,1,277.51,117.37Z" transform="translate(-2.82 -5.97)"/><path class="cls-7" d="M285,116.42a4,4,0,0,1-3-2,14.65,14.65,0,0,0-1.49-2.22,10.36,10.36,0,0,1-5.31,3.43,1.68,1.68,0,0,1-1.27,0,.51.51,0,0,1-.14-.09,1.64,1.64,0,0,1-.52-1.59,4.56,4.56,0,0,1,7.11-3.21,17.19,17.19,0,0,0,2.3-4.55,8.51,8.51,0,0,0,.63-3.11,3.27,3.27,0,0,0-1.16-2.53A3.59,3.59,0,0,0,281,100a8.5,8.5,0,0,0-6.89,1.14,15.87,15.87,0,0,0-4.94,5.42.5.5,0,1,1-.87-.48,16.88,16.88,0,0,1,5.26-5.76A9.5,9.5,0,0,1,281.29,99a4.62,4.62,0,0,1,1.47.72A4.28,4.28,0,0,1,284.3,103a9.45,9.45,0,0,1-.69,3.44,18.08,18.08,0,0,1-2.49,4.88,15.53,15.53,0,0,1,1.74,2.56,3,3,0,0,0,2.2,1.5,4.13,4.13,0,0,0,2.15-1.06,5,5,0,0,1,2.65-1.24h0a5.52,5.52,0,0,1,2.86,1.06c.28.17.55.33.83.48a6,6,0,0,0,7.19-1.4.5.5,0,0,1,.75.66,7,7,0,0,1-8.39,1.63c-.31-.16-.6-.34-.89-.51a4.72,4.72,0,0,0-2.32-.92,4.29,4.29,0,0,0-2.08,1A4.81,4.81,0,0,1,285,116.42Zm-10.62-1.73a.73.73,0,0,0,.48,0,9.43,9.43,0,0,0,4.91-3.17,3.63,3.63,0,0,0-1.6-.58,3.57,3.57,0,0,0-3.92,3.16A.69.69,0,0,0,274.39,114.69Z" transform="translate(-2.82 -5.97)"/><path class="cls-8" d="M6.09,397.52v39.76C44.72,506.15,158.91,465,392.23,472.84c146.1,4.93,342.15-18.34,377.39-53.13V397.52Z" transform="translate(-2.82 -5.97)"/><path class="cls-8" d="M117.72,478.5c-58,0-93.48-7.83-112.07-41l-.06-.11V397H770.12v22.89l-.15.15c-16.58,16.37-68.93,31.15-147.41,41.6-72.93,9.72-159,14.08-230.35,11.67-78.83-2.66-144.56.3-197.37,2.68C165.6,477.34,140,478.49,117.72,478.5ZM6.59,437.15C32,482.36,89.88,479.75,194.8,475c52.83-2.38,118.58-5.35,197.45-2.68,141.41,4.78,340.81-17.73,376.87-52.84V398H6.59Z" transform="translate(-2.82 -5.97)"/><path class="cls-8" d="M769.62,419.71c9.79-7.8,17.69-19.71,22.75-37.78V355.55l-22.75,42Z" transform="translate(-2.82 -5.97)"/><polyline class="cls-3" points="540.27 332.65 559.87 332.22 606.04 348.86 569.91 348.86 540.76 333.62"/><polygon class="cls-3" points="538.94 332.22 538.74 348.86 567.51 349.03 538.94 332.22"/><path class="cls-3" d="M535.93,98.69H292.06c-4.2,0-7.6,17.08-7.6,38.14s3.4,38.14,7.6,38.14H535.93c4.2,0,7.6-17.08,7.6-38.14S540.12,98.69,535.93,98.69Z" transform="translate(-2.82 -5.97)"/><path class="cls-3" d="M531.16,175.22H296.83s-13.11-14.42-10.4,179.61H541.56q.26-18.41.33-34.37C542.66,162.56,531.16,175.22,531.16,175.22Z" transform="translate(-2.82 -5.97)"/><path class="cls-3" d="M535.93,98.69H292.06c-4.2,0-7.6,17.08-7.6,38.14s3.4,38.14,7.6,38.14H535.93c4.2,0,7.6-17.08,7.6-38.14S540.12,98.69,535.93,98.69Z" transform="translate(-2.82 -5.97)"/><path class="cls-3" d="M531.16,175.22H296.83s-13.11-14.42-10.4,179.61H541.56q.26-18.41.33-34.37C542.66,162.56,531.16,175.22,531.16,175.22Z" transform="translate(-2.82 -5.97)"/><polyline class="cls-3" points="540.27 332.65 559.87 332.22 606.04 348.86 569.91 348.86 540.76 333.62"/><path class="cls-9" d="M524.71,354.28h0L509.6,273.39l5.34-23.92h0L508.39,248V142.16c0-16.07-3.84-31-11.88-43.17L375.24,97.87c-7.39,11.32-16.18,29.37-16.18,44.29V248l-6.5,1.48,26.22,125.66h20.62a15.23,15.23,0,0,0,1.46,3.61l.06.11q.26.45.54.88l0,0a16.06,16.06,0,0,0,1.32,1.73l.12.13q.32.35.65.69l.1.1a15.21,15.21,0,0,0,1.63,1.37l.19.14q.35.24.71.47l.19.12c.3.18.61.35.92.51l0,0c.29.14.59.28.89.4l.27.11.74.26.27.09c.33.1.67.18,1,.25h.06c.32.06.65.11,1,.15l.32,0,.78,0H413c.36,0,.72,0,1.08,0h0l10.74-.93,19.76-8.65,5.82-1.63h36.46l2.44-10.92,8.69-2.44ZM496,334.22l1,5.32-2.34.78Z" transform="translate(-2.82 -5.97)"/><path class="cls-7" d="M608.86,355.33H572.73a.5.5,0,0,1-.23-.06L543.35,340a.5.5,0,0,1,.08-.92h-.32a.51.51,0,0,1-.51-.49.5.5,0,0,1,.49-.51l19.6-.43a.57.57,0,0,1,.18,0L609,354.36a.5.5,0,0,1-.17,1Zm-36-1H606l-43.39-15.63-18.89.41.09,0Z" transform="translate(-2.82 -5.97)"/><path class="cls-7" d="M570.33,355.5h0l-28.77-.17a.5.5,0,0,1-.5-.51l.2-16.64a.5.5,0,0,1,.75-.42l28.57,16.81a.5.5,0,0,1-.25.93Zm-28.26-1.17,26.41.16-26.23-15.43Z" transform="translate(-2.82 -5.97)"/><path class="cls-7" d="M535.93,175.47H292.06c-5.26,0-8.1-19.91-8.1-38.64s2.84-38.64,8.1-38.64H535.93c5.26,0,8.1,19.91,8.1,38.64S541.19,175.47,535.93,175.47ZM292.06,99.19c-3.36,0-7.1,15.46-7.1,37.64s3.74,37.64,7.1,37.64H535.93c3.36,0,7.1-15.46,7.1-37.64s-3.74-37.64-7.1-37.64Z" transform="translate(-2.82 -5.97)"/><path class="cls-7" d="M541.56,355.33H286.43a.5.5,0,0,1-.5-.49C283.72,196.49,292,176,295.68,174.58a1.39,1.39,0,0,1,1.33.13H531a1.39,1.39,0,0,1,1.32-.14c9.73,3.79,10.3,103.28,10.09,145.88-.05,10.94-.17,22.51-.33,34.38A.5.5,0,0,1,541.56,355.33Zm-254.63-1H541.06c.16-11.69.27-23.09.33-33.87.64-130.82-7.07-144-9.45-144.94a.38.38,0,0,0-.41,0,.5.5,0,0,1-.37.16H296.83a.5.5,0,0,1-.37-.16.39.39,0,0,0-.43,0C293.32,176.69,284.69,193.07,286.92,354.33Z" transform="translate(-2.82 -5.97)"/><path class="cls-7" d="M535.93,175.47H292.06c-5.26,0-8.1-19.91-8.1-38.64s2.84-38.64,8.1-38.64H535.93c5.26,0,8.1,19.91,8.1,38.64S541.19,175.47,535.93,175.47ZM292.06,99.19c-3.36,0-7.1,15.46-7.1,37.64s3.74,37.64,7.1,37.64H535.93c3.36,0,7.1-15.46,7.1-37.64s-3.74-37.64-7.1-37.64Z" transform="translate(-2.82 -5.97)"/><path class="cls-7" d="M541.56,355.33H286.43a.5.5,0,0,1-.5-.49C283.72,196.49,292,176,295.68,174.58a1.39,1.39,0,0,1,1.33.13H531a1.39,1.39,0,0,1,1.32-.14c9.73,3.79,10.3,103.28,10.09,145.88-.05,10.94-.17,22.51-.33,34.38A.5.5,0,0,1,541.56,355.33Zm-254.63-1H541.06c.16-11.69.27-23.09.33-33.87.64-130.82-7.07-144-9.45-144.94a.38.38,0,0,0-.41,0,.5.5,0,0,1-.37.16H296.83a.5.5,0,0,1-.37-.16.39.39,0,0,0-.43,0C293.32,176.69,284.69,193.07,286.92,354.33Z" transform="translate(-2.82 -5.97)"/><path class="cls-7" d="M608.86,355.33H572.73a.5.5,0,0,1-.23-.06L543.35,340a.5.5,0,0,1,.08-.92h-.32a.51.51,0,0,1-.51-.49.5.5,0,0,1,.49-.51l19.6-.43a.57.57,0,0,1,.18,0L609,354.36a.5.5,0,0,1-.17,1Zm-36-1H606l-43.39-15.63-18.89.41.09,0Z" transform="translate(-2.82 -5.97)"/><path class="cls-10" d="M792.37,382.93a1,1,0,0,1-1-1V355.55a1,1,0,1,1,2,0v26.39A1,1,0,0,1,792.37,382.93Z" transform="translate(-2.82 -5.97)"/><path class="cls-10" d="M6.09,438.28a1,1,0,0,1-1-1l-1.5-41a1,1,0,0,1,1-1,1,1,0,0,1,1,1l1.5,41a1,1,0,0,1-1,1Z" transform="translate(-2.82 -5.97)"/><path class="cls-9" d="M489.55,254.91H340.23V142.16c0-41.23,32.53-72.63,73.77-72.63h0c52.18,0,75.56,33,75.56,72.63Z" transform="translate(-2.82 -5.97)"/><path class="cls-7" d="M472.13,249.24H359.44V155c0-34.47,11.69-34.12,42.81-34.12l7.44,8.38c39.37,0,60.7-9.55,60.7,23.59Z" transform="translate(-2.82 -5.97)"/><path class="cls-11" d="M489.55,255.41H340.23a.5.5,0,0,1-.5-.5V142.16c0-41,32.62-73.13,74.27-73.13,24.51,0,44.47,7.47,57.71,21.61,12,12.81,18.35,30.63,18.35,51.53V254.91A.5.5,0,0,1,489.55,255.41Zm-148.82-1H489.05V142.16c0-20.64-6.25-38.22-18.08-50.84C457.93,77.39,438.22,70,414,70c-19.88,0-38.35,7.35-52,20.71a71.24,71.24,0,0,0-21.27,51.42Z" transform="translate(-2.82 -5.97)"/><rect class="cls-9" x="401.24" y="218.71" width="23.15" height="19.33"/><path class="cls-3" d="M415.26,287.11l-35.2-48.23,24-3.13c7.78,4.35,15.5,4.28,23.15-.43l23.06,3.61Z" transform="translate(-2.82 -5.97)"/><polygon class="cls-9" points="412.81 280.63 377.24 232.91 386.88 231.66 412.81 280.63"/><path class="cls-11" d="M415.26,287.61a.5.5,0,0,1-.4-.21l-35.2-48.23a.5.5,0,0,1,.34-.79l24-3.13a.49.49,0,0,1,.32.07c7,4.18,14.42,4.17,22.67,0a.48.48,0,0,1,.29,0l23.06,3.18a.5.5,0,0,1,.34.79l-35,48.17a.5.5,0,0,1-.4.21ZM381,239.27l34.3,47,34.12-46.94-22.08-3c-8.35,4.2-16.21,4.2-23.35,0Z" transform="translate(-2.82 -5.97)"/><path class="cls-11" d="M427.21,235.83a.5.5,0,0,1-.5-.5v-16.4H404.55v16.4a.5.5,0,0,1-1,0v-16.9a.5.5,0,0,1,.5-.5h23.15a.5.5,0,0,1,.5.5v16.9A.5.5,0,0,1,427.21,235.83Z" transform="translate(-2.82 -5.97)"/><polyline class="cls-12" points="330.92 243.5 357.13 369.16 465.22 369.16 493.29 243.5 447.45 232.97 412.44 281.14 377.24 232.91 330.92 243.5"/><path class="cls-13" d="M377.76,249.34c15.24,6.73,22.42,17.12,22.42,17.12l-20.12-27.57-25.45,5.82S362.53,242.6,377.76,249.34Z" transform="translate(-2.82 -5.97)"/><path class="cls-13" d="M426,271.25s29.66,4.62,35.05,22.58.39,81.29.39,81.29H468L496.1,249.47l-45.83-10.53" transform="translate(-2.82 -5.97)"/><path class="cls-14" d="M468,375.63H359.95a.5.5,0,0,1-.49-.4L333.24,249.57a.5.5,0,0,1,.38-.59l46.33-10.59a.5.5,0,0,1,.52.19l34.79,47.67,34.61-47.62a.5.5,0,0,1,.52-.19L496.22,249a.5.5,0,0,1,.38.6L468.53,375.24A.5.5,0,0,1,468,375.63Zm-107.68-1H467.64l27.87-124.78-45-10.35-34.82,47.91a.5.5,0,0,1-.4.21h0a.5.5,0,0,1-.4-.21l-35-48-45.53,10.4Z" transform="translate(-2.82 -5.97)"/><polyline class="cls-9" points="451.69 157.03 472.77 158.13 472.95 160.08 451.48 158.96"/><path class="cls-11" d="M475.76,166.55h0l-20.94-1.06a.5.5,0,0,1-.31-.13,1.74,1.74,0,0,1-.56-1.56,1.56,1.56,0,0,1,.91-1.2.53.53,0,0,1,.23,0l20.56,1a.5.5,0,0,1,.47.46l.17,2a.5.5,0,0,1-.5.54ZM455,164.5l20.17,1-.08-.95-20-1a.58.58,0,0,0-.25.39A.73.73,0,0,0,455,164.5Z" transform="translate(-2.82 -5.97)"/><circle class="cls-15" cx="479.56" cy="164.71" r="5.18" transform="translate(259.42 616.86) rotate(-83.58)"/><path class="cls-16" d="M479.57,170.39a5.72,5.72,0,0,1-1.57-.22,5.68,5.68,0,0,1-3.9-7h0a5.68,5.68,0,1,1,5.47,7.24Zm0-10.37a4.69,4.69,0,0,0-4.49,3.4h0a4.67,4.67,0,1,0,4.49-3.4Zm-5,3.26h0Z" transform="translate(-2.82 -5.97)"/><path class="cls-14" d="M438.64,341.43l-.15,0L414.91,334l-23.63,6.77a.5.5,0,0,1-.28-1L414.78,333a.51.51,0,0,1,.29,0l23.72,7.41a.5.5,0,0,1-.15,1Z" transform="translate(-2.82 -5.97)"/><circle class="cls-13" cx="439.61" cy="334.96" r="3.79"/><circle class="cls-13" cx="384.59" cy="334.96" r="3.79"/><path class="cls-14" d="M442.43,345.22a4.29,4.29,0,1,1,4.29-4.29A4.29,4.29,0,0,1,442.43,345.22Zm0-7.58a3.29,3.29,0,1,0,3.29,3.29A3.29,3.29,0,0,0,442.43,337.64Z" transform="translate(-2.82 -5.97)"/><path class="cls-14" d="M387.41,345.22a4.29,4.29,0,1,1,4.29-4.29A4.29,4.29,0,0,1,387.41,345.22Zm0-7.58a3.29,3.29,0,1,0,3.29,3.29A3.29,3.29,0,0,0,387.41,337.64Z" transform="translate(-2.82 -5.97)"/><path class="cls-2" d="M358.68,141.68c-.06,1.45-.11,3.64-.11,5.11,0,43.79,24.84,79.29,55.47,79.29s55.47-35.5,55.47-79.29a111.19,111.19,0,0,0-2.36-23" transform="translate(-2.82 -5.97)"/><path class="cls-3" d="M358.57,146.79c0-.09,0-.19,0-.28l4.59-.75c1.47,41.92,25.71,75.26,55.4,75.26,11.82,0,22.78-5.3,31.78-14.31-9.73,12.06-22.41,19.38-36.29,19.38C383.41,226.08,358.57,190.58,358.57,146.79Z" transform="translate(-2.82 -5.97)"/><path class="cls-7" d="M468.09,125.74C464.2,87.52,359,105.7,359,138.5" transform="translate(-2.82 -5.97)"/><path class="cls-2" d="M468.09,128.93c0-32.8-109.41-20-109.41,12.75" transform="translate(-2.82 -5.97)"/><path class="cls-3" d="M359.37,160.3l-.69-18.62c0-32.8,109.41-45.55,109.41-12.75l.48,3.21C453,107.93,366.5,123.83,359.37,160.3Z" transform="translate(-2.82 -5.97)"/><path class="cls-11" d="M414,226.58c-30.86,0-56-35.79-56-79.79,0-1.47.06-3.63.11-5.13a.5.5,0,1,1,1,0c-.06,1.49-.11,3.64-.11,5.09,0,43.45,24.66,78.79,55,78.79s55-35.35,55-78.79a110.75,110.75,0,0,0-2.35-22.85.5.5,0,1,1,1-.21A111.81,111.81,0,0,1,470,146.79C470,190.79,444.91,226.58,414,226.58Z" transform="translate(-2.82 -5.97)"/><path class="cls-11" d="M358.68,142.18a.5.5,0,0,1-.5-.5c0-19.08,37.11-32.38,70.41-32.38,11.35,0,21,1.59,28,4.61,7.86,3.4,12,8.6,12,15a.5.5,0,1,1-1,0c0-6.08-3.84-10.82-11.41-14.1-6.84-3-16.38-4.53-27.59-4.53-15.94,0-33.33,3.21-46.52,8.6-14.76,6-22.89,14.12-22.89,22.78A.5.5,0,0,1,358.68,142.18Z" transform="translate(-2.82 -5.97)"/><polygon class="cls-15" points="416.52 175.68 413.72 178.77 410.92 181.86 416.52 181.86 422.11 181.86 419.31 178.77 416.52 175.68"/><path class="cls-16" d="M424.93,188.32H413.74a.5.5,0,0,1-.37-.84l5.6-6.18a.5.5,0,0,1,.37-.16h0a.5.5,0,0,1,.37.16l5.59,6.18a.5.5,0,0,1-.37.84Zm-10.06-1h8.93l-4.47-4.93Z" transform="translate(-2.82 -5.97)"/><path class="cls-11" d="M441.55,176.48a2.08,2.08,0,0,1-1.05-.29,3.74,3.74,0,0,1-1.51-3.41V162.23a2.48,2.48,0,0,1,2.52-2.43l2.23,0h.1s4.1.8,6.09-1.54a.5.5,0,1,1,.76.65c-1.93,2.26-5.25,2.11-6.53,1.95v11.91a3.78,3.78,0,0,1-1.56,3.43A2.1,2.1,0,0,1,441.55,176.48Zm1.61-15.7h-1.65a1.48,1.48,0,0,0-1.52,1.43v10.55a2.85,2.85,0,0,0,1,2.54,1.06,1.06,0,0,0,1.1,0,2.89,2.89,0,0,0,1.05-2.57Z" transform="translate(-2.82 -5.97)"/><path class="cls-11" d="M455.73,154.71a.5.5,0,0,1-.43-.24c-.07-.11-6.72-10.86-15.71-7.59a.5.5,0,1,1-.34-.94c9.74-3.55,16.83,7.89,16.91,8a.5.5,0,0,1-.43.76Z" transform="translate(-2.82 -5.97)"/><path class="cls-11" d="M398.15,176.78a2.1,2.1,0,0,1-1-.29,3.78,3.78,0,0,1-1.56-3.43V161.15c-1.28.16-4.6.31-6.53-1.95a.5.5,0,1,1,.76-.65c2,2.34,6.05,1.55,6.1,1.54h.1l2.23,0a2.48,2.48,0,0,1,2.52,2.43v10.55a3.74,3.74,0,0,1-1.51,3.41A2.09,2.09,0,0,1,398.15,176.78Zm-1.61-15.7v12a2.88,2.88,0,0,0,1.05,2.56,1.06,1.06,0,0,0,1.1,0,2.85,2.85,0,0,0,1-2.54V162.53a1.48,1.48,0,0,0-1.52-1.43Z" transform="translate(-2.82 -5.97)"/><path class="cls-11" d="M443.74,160.28l-2.23,0a2,2,0,0,0-2,1.93v10.55c0,4.28,4.15,4.25,4.17,0v-12" transform="translate(-2.82 -5.97)"/><path class="cls-11" d="M396,160.58l2.23,0a2,2,0,0,1,2,1.93v10.55c0,4.28-4.15,4.25-4.17,0V161" transform="translate(-2.82 -5.97)"/><path class="cls-11" d="M384,154.71a.5.5,0,0,1-.43-.76c.07-.12,7.15-11.56,16.9-8a.5.5,0,0,1-.34.94c-9-3.27-15.64,7.48-15.71,7.59A.5.5,0,0,1,384,154.71Z" transform="translate(-2.82 -5.97)"/><path class="cls-11" d="M416.58,210.08a23.28,23.28,0,0,1-6.09-.81c-5.35-1.47-9.46-4.71-10.46-8.25a.5.5,0,0,1,1-.27c.9,3.16,4.82,6.2,9.77,7.56a22,22,0,0,0,21.25-5.6.5.5,0,0,1,.69.73A23,23,0,0,1,416.58,210.08Z" transform="translate(-2.82 -5.97)"/><polyline class="cls-9" points="372.85 157.22 351.77 158.32 351.59 160.27 373.06 159.15"/><path class="cls-11" d="M354.41,166.74a.5.5,0,0,1-.5-.54l.17-2a.5.5,0,0,1,.47-.46l20.56-1a.52.52,0,0,1,.23,0,1.56,1.56,0,0,1,.91,1.2,1.74,1.74,0,0,1-.56,1.56.5.5,0,0,1-.31.13l-20.94,1.06Zm.63-2-.08.94,20.17-1a.73.73,0,0,0,.14-.54.58.58,0,0,0-.25-.39Z" transform="translate(-2.82 -5.97)"/><circle class="cls-15" cx="350.61" cy="164.9" r="5.18" transform="translate(-19.06 34.29) rotate(-6.42)"/><path class="cls-16" d="M350.61,170.59a5.68,5.68,0,1,1,5.47-7.24h0a5.69,5.69,0,0,1-5.47,7.24Zm0-10.36a4.68,4.68,0,1,0,4.5,3.4h0A4.69,4.69,0,0,0,350.61,160.22Z" transform="translate(-2.82 -5.97)"/><polygon class="cls-8" points="767.48 390.67 789.55 349.91 76.07 349.91 2.97 389.61 767.48 390.67"/><path class="cls-8" d="M770.59,397.14h-.3L3.82,396.07l74.94-40.69H793.21ZM7.75,395.08,770,396.14l21.53-39.76H79Z" transform="translate(-2.82 -5.97)"/><g class="cls-17"><path class="cls-10" d="M537.83,376.6a288.25,288.25,0,0,1-30.93-1.46,54.62,54.62,0,0,1-11.88-2.3c-1.84-.62-4-1.89-4.69-3.58a2.71,2.71,0,0,1,.16-2.35,5.75,5.75,0,0,1,2.92-2.19,40,40,0,0,1,26.69-1.32c1.67.52,3.8,1.71,4.3,3.33a2.33,2.33,0,0,1-.44,2.19c-1,1.3-3.12,1.63-6.2,1l-6.83-1.42a1,1,0,0,1-.56-1.62,3,3,0,0,1,3.32-.85,1,1,0,0,1,.62,1.14l3.86.8c2.15.45,3.73.35,4.22-.27a.33.33,0,0,0,.09-.35c-.17-.57-1.37-1.5-3-2a37.89,37.89,0,0,0-25.3,1.24,4.58,4.58,0,0,0-2,1.32.72.72,0,0,0,0,.66c.32.83,1.75,1.83,3.47,2.41a52.88,52.88,0,0,0,11.45,2.2c19.74,2.13,40.07,1.47,59.73.82,9.57-.31,19.47-.64,29.19-.64a1,1,0,0,1,0,2c-9.69,0-19.57.32-29.13.64S547.59,376.6,537.83,376.6Z" transform="translate(-2.82 -5.97)"/><path class="cls-10" d="M497.89,382.57a1,1,0,0,1-.37-.07c-14.53-5.77-31.21-6.13-49.92-6h0a1,1,0,0,1,0-2c18.92-.14,35.81.23,50.68,6.14a1,1,0,0,1-.37,1.93Z" transform="translate(-2.82 -5.97)"/><path class="cls-10" d="M715.7,389.87a105.66,105.66,0,0,1-25.26-2.67,144.75,144.75,0,0,1-13.82-4.41c-4-1.41-8.06-2.87-12.23-4a85.57,85.57,0,0,0-31.3-2.29,167.46,167.46,0,0,0-18.92,3.59c-3.44.79-7,1.61-10.55,2.29-12.38,2.38-22.37,2.38-30.55,0a1,1,0,1,1,.56-1.92c7.86,2.31,17.55,2.3,29.61,0,3.51-.67,7.05-1.49,10.47-2.28a169.18,169.18,0,0,1,19.15-3.62,87.56,87.56,0,0,1,32,2.35c4.25,1.14,8.39,2.61,12.39,4,4.4,1.57,9,3.19,13.63,4.35,15.76,3.89,33.2,2.59,48.59,1.44a1,1,0,0,1,1.07.92,1,1,0,0,1-.92,1.07C732,389.27,723.9,389.87,715.7,389.87Z" transform="translate(-2.82 -5.97)"/><path class="cls-10" d="M592.7,367.56a30,30,0,0,1-10.14-1.77,1,1,0,1,1,.68-1.88,27.93,27.93,0,0,0,19.93-.38,3.08,3.08,0,0,0,.71-.39,3.28,3.28,0,0,0-1.09-.43,13.55,13.55,0,0,0-5.48-.1,1,1,0,0,1-.71,1.14,4.07,4.07,0,0,1-3-.3,1,1,0,0,1,.07-1.81,15.52,15.52,0,0,1,9.57-.88c1.84.43,2.86,1.39,2.74,2.56s-1.25,1.72-2,2.06A30,30,0,0,1,592.7,367.56Z" transform="translate(-2.82 -5.97)"/><path class="cls-10" d="M717.17,378.26c-11.6,0-23.82-2.49-36.94-5.48-18.87-4.3-37.18-7.76-53.59-2.79a1,1,0,0,1-.58-1.91c16.88-5.11,35.47-1.62,54.62,2.75,19.69,4.49,37.31,7.83,53.63,3.19,2-.57,3.86-1.79,4.14-2.72a.61.61,0,0,0-.14-.62,4,4,0,0,0-1.89-1,25.12,25.12,0,0,0-15.21.36,4.9,4.9,0,0,0,2.93.26,1,1,0,0,1,.47,1.95,6.41,6.41,0,0,1-6.24-1.86,1,1,0,0,1,.39-1.54,27,27,0,0,1,18.14-1.1,6,6,0,0,1,2.82,1.52l.08.08a2.63,2.63,0,0,1,.56,2.53c-.57,1.88-3.18,3.39-5.5,4.06A64.26,64.26,0,0,1,717.17,378.26Z" transform="translate(-2.82 -5.97)"/><path class="cls-10" d="M707.7,367.21h0a307.22,307.22,0,0,1-30.66-2.7,1,1,0,0,1,.28-2,305.55,305.55,0,0,0,30.46,2.69,1,1,0,0,1,0,2Z" transform="translate(-2.82 -5.97)"/></g><path class="cls-10" d="M770.29,397.64H3.82a1,1,0,0,1-.48-1.88L78.41,355a1,1,0,0,1,.48-.12H792.37a1,1,0,0,1,.88,1.48l-22.08,40.76A1,1,0,0,1,770.29,397.64Zm-762.54-2H769.7l21-38.76H79.15Z" transform="translate(-2.82 -5.97)"/><polygon class="cls-2" points="508.88 386.12 409.1 380.08 456.93 355.53 553.48 359.19 508.88 386.12"/><path class="cls-7" d="M511.7,392.59h0l-99.78-6a.5.5,0,0,1-.2-.94l47.83-24.55a.51.51,0,0,1,.25-.06l96.55,3.66a.5.5,0,0,1,.24.93L512,392.52A.5.5,0,0,1,511.7,392.59Zm-97.93-6.93,97.8,5.92,43-26L459.86,362Z" transform="translate(-2.82 -5.97)"/><polygon class="cls-2" points="520.59 383.99 420.81 377.95 468.64 353.4 565.19 357.06 520.59 383.99"/><path class="cls-7" d="M523.41,390.46h0l-99.78-6a.5.5,0,0,1-.2-.94l47.83-24.55a.48.48,0,0,1,.25-.05L568,362.53a.5.5,0,0,1,.24.93l-44.6,26.93A.5.5,0,0,1,523.41,390.46Zm-97.93-6.93,97.8,5.92,43-26-94.75-3.59Z" transform="translate(-2.82 -5.97)"/><path class="cls-9" d="M462.48,377.53l-.35-.94a6.46,6.46,0,0,0,1.43-.75c.33-.23.63-.48.94-.73a11.92,11.92,0,0,1,1.23-.94,8.51,8.51,0,0,1,3-.75l.37-.05c-1-.39-1.51-.88-1.66-1.46a1.39,1.39,0,0,1,.41-1.3l.14-.09a8.46,8.46,0,0,1,5.62-.43,10.16,10.16,0,0,0,4.12.13c-.24-.45-.68-.46-1.5-.42a3.94,3.94,0,0,1-1.72-.19,5.1,5.1,0,0,1-2.94-3.46l1-.23a4.08,4.08,0,0,0,2.35,2.77,3.11,3.11,0,0,0,1.29.11c1,0,2.32-.1,2.67,1.69l.09.46-.46.12a10.71,10.71,0,0,1-5.07,0,7.44,7.44,0,0,0-4.94.32.35.35,0,0,0-.08.29c.07.28.65.72,2,1.09l.15.07a.71.71,0,0,1,.39.76c-.13.55-.79.64-2.11.82a8.29,8.29,0,0,0-2.58.6,11,11,0,0,0-1.12.86c-.33.27-.66.54-1,.79A7.53,7.53,0,0,1,462.48,377.53Z" transform="translate(-2.82 -5.97)"/><polygon class="cls-9" points="517.38 376.94 516.87 376.08 542.83 360.59 543.34 361.45 517.38 376.94"/><polygon class="cls-9" points="503.88 376.94 503.37 376.08 529.33 360.59 529.84 361.45 503.88 376.94"/><polygon class="cls-9" points="490.07 377.33 489.56 376.48 515.51 360.98 516.03 361.84 490.07 377.33"/><polygon class="cls-9" points="479.63 375.61 479.11 374.75 505.07 359.25 505.58 360.11 479.63 375.61"/><path class="cls-2" d="M406.09,351.7l-56.16-13.52,3.51-22.8c-.54-23.76-5.27-44.47-13.14-62.91L322.2,352.92l79.19,16.94" transform="translate(-2.82 -5.97)"/><path class="cls-9" d="M406.77,352.18l-57.32-13.83,4-23c-.54-23.76-5.27-44.47-13.14-62.91L338,264.78a170,170,0,0,1,10.29,55.76l-4,23,58.57,14.13,2.53-.16" transform="translate(-2.82 -5.97)"/><path class="cls-18" d="M326.07,351.19a1,1,0,0,1-.45-1.89l22.8-11.47a1,1,0,1,1,.9,1.79l-22.8,11.47A1,1,0,0,1,326.07,351.19Z" transform="translate(-2.82 -5.97)"/><path class="cls-18" d="M348.86,332.43h-.15l-15.85-2.34a1,1,0,1,1,.29-2L349,330.44a1,1,0,0,1-.14,2Z" transform="translate(-2.82 -5.97)"/><path class="cls-18" d="M352.09,318.37a1,1,0,0,1-.62-.22l-15.59-12.49a1,1,0,0,1,1.25-1.56l15.59,12.49a1,1,0,0,1-.63,1.78Z" transform="translate(-2.82 -5.97)"/><path class="cls-18" d="M352.07,354.46a1,1,0,0,1-.89-1.45l6.28-12.42a1,1,0,1,1,1.79.9L353,353.91A1,1,0,0,1,352.07,354.46Z" transform="translate(-2.82 -5.97)"/><path class="cls-18" d="M371.47,360.06a1,1,0,0,1-.95-1.32l4.59-13.58a1,1,0,0,1,1.89.64l-4.59,13.58A1,1,0,0,1,371.47,360.06Z" transform="translate(-2.82 -5.97)"/><path class="cls-18" d="M389.63,361.8l-.21,0a1,1,0,0,1-.77-1.19l2.33-10.8a1,1,0,1,1,2,.42L390.6,361A1,1,0,0,1,389.63,361.8Z" transform="translate(-2.82 -5.97)"/><path class="cls-11" d="M401.39,370.36h-.1L322.1,353.41a.5.5,0,0,1-.39-.58L339.8,252.39a.5.5,0,0,1,1-.1c.15.36,14.75,36.42,13.17,63.13l-3.44,22.39,55.72,13.41a.5.5,0,0,1,.37.6.51.51,0,0,1-.6.37l-56.16-13.52a.5.5,0,0,1-.38-.56l3.51-22.8c1.37-23.21-9.65-53.67-12.46-61l-17.69,98.23,78.72,16.84a.5.5,0,0,1-.1,1Z" transform="translate(-2.82 -5.97)"/><path class="cls-19" d="M401.68,370.07" transform="translate(-2.82 -5.97)"/><path class="cls-19" d="M406.37,351.91" transform="translate(-2.82 -5.97)"/><path class="cls-9" d="M430.1,345s9.44-6.26,14.29-3.22,9.83,10.44,9.83,10.44" transform="translate(-2.82 -5.97)"/><path class="cls-11" d="M454.22,352.7a.5.5,0,0,1-.42-.22c0-.07-5-7.35-9.68-10.3-4.52-2.84-13.66,3.16-13.75,3.22a.5.5,0,0,1-.55-.83c.4-.26,9.77-6.41,14.83-3.23,4.88,3.06,9.77,10.28,10,10.59a.5.5,0,0,1-.42.78Z" transform="translate(-2.82 -5.97)"/><path class="cls-20" d="M458,363.47l6,7.11a.56.56,0,0,1,0,.79l-1.9,1.7a.56.56,0,0,1-.79,0l-31-36.95a.56.56,0,0,1,0-.79l1.9-1.7a.56.56,0,0,1,.79,0l15.17,18.09" transform="translate(-2.82 -5.97)"/><polyline class="cls-2" points="461.14 364.61 463.67 370.25 458.4 367.06"/><path class="cls-10" d="M466.49,376.72a.5.5,0,0,1-.26-.07L461,373.45a.5.5,0,0,1,.52-.86l3.9,2.36-1.87-4.18a.5.5,0,0,1,.91-.41l2.53,5.64a.5.5,0,0,1-.46.7Z" transform="translate(-2.82 -5.97)"/><path class="cls-21" d="M461.64,373.71h-.06a1.06,1.06,0,0,1-.73-.35l-31-37a1.06,1.06,0,0,1,.1-1.49l1.9-1.7a1.07,1.07,0,0,1,1.5.09l15.18,18.1-.77.64L432.6,334l-2,1.71,31,37,2-1.71-6-7.21.77-.64,6,7.11a1.06,1.06,0,0,1-.1,1.49l-1.9,1.7A1.06,1.06,0,0,1,461.64,373.71Z" transform="translate(-2.82 -5.97)"/><path class="cls-2" d="M401.8,350.67s16.69-6.39,33.68-5.62,26.44,15.07,26.44,15.07,1.43,15.81-25.93,11.13c-22-3.77-34.59-1.39-34.59-1.39A16.11,16.11,0,0,1,401.8,350.67Z" transform="translate(-2.82 -5.97)"/><path class="cls-9" d="M461.92,360.13s-9.44-14.29-26.44-15.07-33.68,5.62-33.68,5.62a18.46,18.46,0,0,0-2.12,3.63c5.15-1.69,18.16-5.41,31.36-4.81,17,.78,26.44,15.07,26.44,15.07a10.27,10.27,0,0,1-1.22,5.2A10.55,10.55,0,0,0,461.92,360.13Z" transform="translate(-2.82 -5.97)"/><path class="cls-11" d="M445.24,372.63a55.86,55.86,0,0,1-9.34-.88c-21.71-3.71-34.29-1.42-34.41-1.4a.5.5,0,0,1-.51-.21c-.07-.11-7.16-10.94.45-19.79a.5.5,0,0,1,.2-.14c.17-.06,17-6.44,33.88-5.65,17,.78,26.73,15.15,26.83,15.29a.5.5,0,0,1,.08.23,10.83,10.83,0,0,1-3.53,8.4C455.9,371.24,451.33,372.63,445.24,372.63Zm-32.65-4a139.85,139.85,0,0,1,23.47,2.13c10.55,1.81,18,.8,22.12-3a10,10,0,0,0,3.23-7.47c-.92-1.32-10.21-14-26-14.74-16-.71-31.84,5-33.36,5.54-6.33,7.5-1.45,16.55-.46,18.22A74.07,74.07,0,0,1,412.6,368.64Z" transform="translate(-2.82 -5.97)"/><path class="cls-2" d="M481.62,354.59l-4.14-39.2c.54-23.76,5.27-44.47,13.14-62.91L508.7,354.59" transform="translate(-2.82 -5.97)"/><path class="cls-9" d="M481.62,354.59l-4.14-39.2c.54-23.76,5.27-44.47,13.14-62.91l2.3,12.31a170,170,0,0,0-10.29,55.76l4.46,34" transform="translate(-2.82 -5.97)"/><path class="cls-18" d="M481.57,345.72a1,1,0,0,1,0-2l19.11-.26h0a1,1,0,0,1,0,2l-19.11.26Z" transform="translate(-2.82 -5.97)"/><path class="cls-18" d="M479.83,332.75a1,1,0,0,1-.15-2l15.85-2.34a1,1,0,0,1,.29,2L480,332.74Z" transform="translate(-2.82 -5.97)"/><path class="cls-18" d="M478.81,318.37a1,1,0,0,1-.63-1.78l15.59-12.49a1,1,0,1,1,1.25,1.56l-15.59,12.49A1,1,0,0,1,478.81,318.37Z" transform="translate(-2.82 -5.97)"/><path class="cls-11" d="M508.7,355.9a.5.5,0,0,1-.49-.41L490.43,254.32c-2.82,7.36-13.83,37.8-12.45,61l4,39.08a.5.5,0,1,1-1,.1l-4-39.1c-1.58-26.74,13-62.79,13.17-63.15a.49.49,0,0,1,.52-.31.5.5,0,0,1,.44.41l18.09,102.92a.5.5,0,0,1-.41.58Z" transform="translate(-2.82 -5.97)"/><g class="cls-17"><path class="cls-10" d="M577.91,448.28a38.54,38.54,0,0,1-15.27-3.09c-2.05-.89-4.44-2.77-5.14-5a4,4,0,0,1,.38-3.35c.89-1.46,3-2.89,7.9-1.46l8.83,2.56a1,1,0,0,1,.56,1.5,3.14,3.14,0,0,1-4.17,1.29,1,1,0,0,1,0-1.76l-5.76-1.67c-2-.6-4.69-1-5.63.58a2,2,0,0,0-.18,1.71,7.34,7.34,0,0,0,4,3.74,37.64,37.64,0,0,0,32.83-1.8A6,6,0,0,0,599,439c1.14-2.69-2.2-5.46-4.58-6.58-4.65-2.21-9.86-3.22-14.8-4-25.54-4-51.9-3.11-77.39-2.27-12.41.41-25.24.83-37.85.7a1,1,0,0,1,0-2h0c12.56.14,25.37-.29,37.76-.7,25.59-.85,52-1.72,77.76,2.29,5.09.79,10.47,1.84,15.35,4.16,3.92,1.83,7.1,5.57,5.57,9.17a7.87,7.87,0,0,1-3.62,3.49A39.52,39.52,0,0,1,577.91,448.28Z" transform="translate(-2.82 -5.97)"/><path class="cls-10" d="M716.45,431.95h0c-24.54,0-46.41-.91-65.56-11.36a1,1,0,0,1,1-1.76c18.73,10.23,40.34,11.09,64.6,11.12a1,1,0,0,1,0,2Z" transform="translate(-2.82 -5.97)"/><path class="cls-10" d="M275.24,438.29a178.22,178.22,0,0,1-43.75-5.45c-8-2.05-15.74-4.69-23.25-7.24-8.32-2.82-16.91-5.74-25.77-7.85-29.85-7.11-62.92-5.21-92.1-3.53a1,1,0,1,1-.12-2c29.31-1.69,62.54-3.6,92.68,3.58,8.95,2.13,17.59,5.07,26,7.91,7.48,2.54,15.21,5.16,23.1,7.19a176.5,176.5,0,0,0,59.45,4.65c12.24-1.12,24.29-3.52,35.94-5.85,6.5-1.3,13.23-2.64,19.92-3.75,23.29-3.85,42-3.64,57.27.64a1,1,0,0,1-.54,1.93c-15-4.2-33.41-4.4-56.4-.6-6.66,1.1-13.37,2.44-19.86,3.74-11.71,2.34-23.81,4.76-36.15,5.88Q283.43,438.29,275.24,438.29Z" transform="translate(-2.82 -5.97)"/><path class="cls-10" d="M447.13,458a15.34,15.34,0,0,1-4.57-.7c-1.67-.54-3.38-1.78-3.21-3.65a4.22,4.22,0,0,1,2.4-2.92,29.75,29.75,0,0,1,27.69-.42,1,1,0,1,1-.89,1.79,27.78,27.78,0,0,0-25.85.39c-.85.47-1.3.92-1.36,1.37-.05.61.91,1.23,1.83,1.52a13.24,13.24,0,0,0,7.83,0,1,1,0,0,1,.2-1.77,4.12,4.12,0,0,1,3.87.55,1,1,0,0,1-.09,1.69A16.05,16.05,0,0,1,447.13,458Z" transform="translate(-2.82 -5.97)"/><path class="cls-10" d="M268.52,458.09c-15.31,0-31.31-4.52-47.63-9.69-25.43-8.07-48.2-14.11-69.44-6.3-2.24.83-4.89,2.75-5.59,4.79a2.59,2.59,0,0,0,.21,2.29,5.25,5.25,0,0,0,2.57,1.87,24.87,24.87,0,0,0,20.89-1,5,5,0,0,0-4.95-1.4,1,1,0,0,1-.59-1.91,6.93,6.93,0,0,1,7.89,3.15,1,1,0,0,1-.38,1.37A26.85,26.85,0,0,1,148,452.93a7.17,7.17,0,0,1-3.52-2.58l-.06-.08a4.61,4.61,0,0,1-.42-4c1-2.77,4.1-5,6.79-6,21.83-8,45-1.92,70.74,6.27,24.38,7.74,48,14,69.4,5.59a1,1,0,0,1,.73,1.86A62.49,62.49,0,0,1,268.52,458.09Z" transform="translate(-2.82 -5.97)"/><path class="cls-10" d="M94.37,441l-.19,0a299,299,0,0,0-39.43-5.09,1,1,0,0,1,.12-2,301,301,0,0,1,39.69,5.13,1,1,0,0,1-.19,2Z" transform="translate(-2.82 -5.97)"/></g><path class="cls-10" d="M769.62,420.71a1,1,0,0,1-1-1V396.64a1,1,0,0,1,2,0v23.07A1,1,0,0,1,769.62,420.71Z" transform="translate(-2.82 -5.97)"/><polyline class="cls-9" points="313.25 359.8 268.65 386.45 133.72 379.13"/><polyline class="cls-9" points="212.51 349.05 313.25 354.82 268.65 381.47 133.2 373.94"/><path class="cls-9" d="M112.24,384.19" transform="translate(-2.82 -5.97)"/><polyline class="cls-7" points="188.73 353.33 289.47 359.09 254.01 380.29"/><polyline class="cls-9" points="313.25 359.8 313.25 354.82 296.74 364.68"/><line class="cls-9" x1="268.65" y1="381.47" x2="268.65" y2="386.45"/><path class="cls-7" d="M271.46,392.92h0l-134.93-7.33a.5.5,0,0,1-.47-.53.49.49,0,0,1,.53-.47l134.78,7.32,44.47-26.58a.5.5,0,1,1,.51.86l-44.6,26.66A.5.5,0,0,1,271.46,392.92Z" transform="translate(-2.82 -5.97)"/><path class="cls-7" d="M271.46,387.94h0L136,380.41a.5.5,0,0,1-.47-.53.48.48,0,0,1,.53-.47l135.29,7.52,43.07-25.74-99.11-5.67a.5.5,0,0,1,.06-1l100.74,5.77a.5.5,0,0,1,.23.93l-44.6,26.66A.5.5,0,0,1,271.46,387.94Z" transform="translate(-2.82 -5.97)"/><path class="cls-22" d="M112.24,384.19" transform="translate(-2.82 -5.97)"/><rect class="cls-9" x="234.73" y="315.67" width="1" height="100.9" transform="translate(-146.54 574.08) rotate(-86.72)"/><rect class="cls-9" x="225.26" y="321.33" width="1" height="100.9" transform="translate(-161.13 569.97) rotate(-86.72)"/><rect class="cls-9" x="241.73" y="374.39" width="40.44" height="1" transform="translate(-158.09 181.6) rotate(-30.88)"/><path class="cls-7" d="M316.06,366.26a.5.5,0,0,1-.5-.5v-5a.5.5,0,0,1,1,0v5A.5.5,0,0,1,316.06,366.26Z" transform="translate(-2.82 -5.97)"/><path class="cls-7" d="M271.46,392.92a.5.5,0,0,1-.5-.5v-5a.5.5,0,0,1,1,0v5A.5.5,0,0,1,271.46,392.92Z" transform="translate(-2.82 -5.97)"/><path class="cls-7" d="M256.82,386.76a.5.5,0,0,1-.26-.93l34.07-20.36-99.11-5.67a.5.5,0,0,1,.06-1l100.74,5.77a.5.5,0,0,1,.23.93l-35.46,21.2A.49.49,0,0,1,256.82,386.76Z" transform="translate(-2.82 -5.97)"/><path class="cls-3" d="M271.46,392.42l-134.93-7.33-10.17-96.47a6.77,6.77,0,0,1,7-6.77l121.38,4.3a6.77,6.77,0,0,1,6.53,6.77Z" transform="translate(-2.82 -5.97)"/><path class="cls-7" d="M271.46,392.92h0l-134.93-7.33a.5.5,0,0,1-.47-.45l-10.17-96.47a7.27,7.27,0,0,1,7.53-7.32l121.38,4.3a7.25,7.25,0,0,1,7,7.27L272,392.37a.5.5,0,0,1-.5.55ZM137,384.62l133.92,7.27L260.8,293a6.27,6.27,0,0,0-6.05-6.32l-121.38-4.3a6.27,6.27,0,0,0-6.5,6.27Z" transform="translate(-2.82 -5.97)"/><path class="cls-2" d="M201.06,350.82l-.82-8H189.85l.66,7.7H184L182.74,334c-.55-7.37,3-11.29,10.39-11.39,7.71-.11,12.07,5.93,12.92,13.3l1.72,15Zm-1.63-15.74c-.39-3.73-1.95-6.34-5.75-6.3-3.57,0-4.83,2.24-4.51,6l.19,2.23h10.28Z" transform="translate(-2.82 -5.97)"/><path class="cls-7" d="M207.76,351.35h0l-6.71,0a.57.57,0,0,1-.55-.5l-.77-7.54h-9.4l.63,7.2a.46.46,0,0,1-.12.35.37.37,0,0,1-.34.15H184a.55.55,0,0,1-.54-.5L182.19,334c-.57-7.67,3.17-11.79,10.81-11.89a11.91,11.91,0,0,1,8.57,3.17,17,17,0,0,1,4.9,10.63l1.73,15a.44.44,0,0,1-.44.5Zm-6.31-1,5.7,0-1.65-14.48a15.8,15.8,0,0,0-4.52-9.92,10.92,10.92,0,0,0-7.87-2.89c-7.15.1-10.5,3.76-9.95,10.89l1.22,16h5.53l-.62-7.2a.47.47,0,0,1,.11-.35.45.45,0,0,1,.34-.15h10.37a.56.56,0,0,1,.54.5Zm-1.81-12.83H189.35a.55.55,0,0,1-.53-.5l-.19-2.23c-.36-4.24,1.3-6.41,4.94-6.46a5.74,5.74,0,0,1,4.07,1.41,8.3,8.3,0,0,1,2.22,5.38l.21,1.91a.46.46,0,0,1-.1.36A.43.43,0,0,1,199.64,337.49Zm-9.89-1H199l-.16-1.4h0a7.23,7.23,0,0,0-1.85-4.67,4.7,4.7,0,0,0-3.36-1.12c-3.1,0-4.39,1.77-4.07,5.46Zm10.11-1.4h0Z" transform="translate(-2.82 -5.97)"/></svg>