<svg width="207" height="209" viewBox="0 0 207 209" fill="none" xmlns="http://www.w3.org/2000/svg">
<path d="M100.69 86.73C101.16 85.29 101.5 83.59 102.52 82.41C102.749 81.8667 103.012 81.3389 103.31 80.83C104.625 78.491 106.119 76.2577 107.78 74.15C109.233 72.0209 110.909 70.053 112.78 68.28C114.265 67.048 115.607 65.6525 116.78 64.12C117.365 63.3449 117.75 62.4378 117.902 61.4787C118.054 60.5195 117.967 59.5378 117.65 58.62C113.069 63.2199 108.912 68.2235 105.23 73.57C105.988 71.5381 106.904 69.5687 107.97 67.68C108.88 65.68 109.49 63.43 108.75 61.39L102.27 76.65C103.27 70.54 100.06 63.5 99.72 57.3C99.72 57.3 99.8 70.6 99.58 72.81L97.68 66.74C96.46 62.86 95.2 58.9 92.74 55.67C93.6787 59.1259 93.7849 62.7551 93.05 66.26C90.3159 62.2697 86.9164 58.7789 83 55.94C83.4226 58.6302 83.4226 61.3698 83 64.06C79.2749 61.3894 75.1779 59.2802 70.84 57.8L71.06 64.42C67.5843 63.0685 63.9634 62.1255 60.27 61.61C60.4743 63.8019 60.4743 66.0081 60.27 68.2C56.8567 66.9362 53.2808 66.1651 49.65 65.91C49.42 69.28 49.25 72.91 51.03 75.77C52.4859 77.8291 54.4975 79.4315 56.83 80.39C60.1215 81.8545 63.5217 83.0615 67 84C77.29 87.1 88 90.23 98.63 88.56C99.0314 88.5228 99.4201 88.4001 99.77 88.2C100.231 87.8255 100.555 87.3084 100.69 86.73V86.73Z" fill="#D0E4F1"/>
<path d="M128.86 60.08L128.66 57.08L128.15 57.33C118.762 64.193 110.522 72.5031 103.74 81.95C103.818 82.0704 103.936 82.1595 104.073 82.2016C104.21 82.2436 104.358 82.236 104.49 82.18C105.113 81.1758 105.837 80.2376 106.65 79.38C107.104 78.759 107.616 78.183 108.18 77.66C113.92 72.06 119.8 66.36 126.99 62.81C127.757 62.5508 128.394 62.0065 128.77 61.29C128.882 60.897 128.913 60.4853 128.86 60.08V60.08Z" fill="#D0E4F1"/>
<path d="M120.64 69.52C126.331 66.2064 132.207 63.2215 138.24 60.58C138.462 61.3901 138.537 62.2335 138.46 63.07C138.456 63.2782 138.398 63.4818 138.29 63.66C138.119 63.8558 137.892 63.9953 137.64 64.06C131.683 66.0543 125.917 68.5777 120.41 71.6C115.763 74.278 111.484 77.5488 107.68 81.33C107.33 81.68 105.35 84.15 105.32 82.54C105.32 81.83 106.9 80.64 107.32 80.14C109.119 78.1872 111.064 76.3752 113.14 74.72C115.524 72.8254 118.03 71.0883 120.64 69.52V69.52Z" fill="#D0E4F1"/>
<path d="M126.55 71.87C133.328 68.9976 140.298 66.6018 147.41 64.7L147.72 68.27C140.72 71.46 132.9 72.27 125.83 75.21C123.205 76.371 120.647 77.6797 118.17 79.13C115.914 80.33 113.734 81.6658 111.64 83.13C111.2 83.45 108.19 85.52 108.14 84.26C108.14 83.44 110.71 81.68 111.25 81.26C114.209 78.7785 117.409 76.5978 120.8 74.75C122.67 73.7 124.59 72.75 126.55 71.87Z" fill="#D0E4F1"/>
<path d="M114.38 83.62C125.51 77.54 137.86 74.08 150.08 70.68C151.55 70.27 153.03 69.86 154.52 69.56C154.712 69.4822 154.928 69.4822 155.12 69.56C155.262 69.6792 155.354 69.8466 155.38 70.03C155.558 70.837 155.558 71.673 155.38 72.48" fill="#D0E4F1"/>
<path d="M99.36 82.72C102.731 81.8881 106.279 82.1508 109.49 83.47C110.49 83.88 111.58 84.6 111.58 85.68C111.58 86.76 110.41 87.54 109.37 87.99C105.37 89.7 100.9 90.66 96.74 89.49C95.667 89.2299 94.6723 88.7154 93.84 87.99C92.5 86.73 92.29 85.45 93.99 84.69C95.7189 83.8775 97.5158 83.2183 99.36 82.72V82.72Z" fill="#D0E4F1"/>
<path d="M110.32 78.84C121.129 70.248 133.865 64.4137 147.43 61.84V68.6" stroke="#A1C2D8" stroke-linecap="round" stroke-linejoin="round"/>
<path d="M109.69 75.31C117.735 67.3371 127.64 61.4944 138.51 58.31V64" stroke="#A1C2D8" stroke-linecap="round" stroke-linejoin="round"/>
<path d="M104.53 79.32C110.596 69.3625 118.955 60.9999 128.91 54.93V61.84" stroke="#A1C2D8" stroke-linecap="round" stroke-linejoin="round"/>
<path d="M105.54 73C108.631 66.124 112.842 59.8083 118 54.31V63.05" stroke="#A1C2D8" stroke-linecap="round" stroke-linejoin="round"/>
<path d="M102.71 75.88C103.764 68.4314 105.96 61.1897 109.22 54.41V65.92" stroke="#A1C2D8" stroke-linecap="round" stroke-linejoin="round"/>
<path d="M113.05 82.05C125.888 74.0693 140.347 69.0573 155.37 67.38V72.23" stroke="#A1C2D8" stroke-linecap="round" stroke-linejoin="round"/>
<path d="M91.7 79.6C78.4749 72.979 64.3519 68.3297 49.78 65.8V72.56" stroke="#A1C2D8" stroke-linecap="round" stroke-linejoin="round"/>
<path d="M89.15 73.58C80.3691 67.5026 70.3713 63.4079 59.85 61.58V67.24" stroke="#A1C2D8" stroke-linecap="round" stroke-linejoin="round"/>
<path d="M98.24 79.57C91.1133 69.9134 81.632 62.243 70.7 57.29V64.2" stroke="#A1C2D8" stroke-linecap="round" stroke-linejoin="round"/>
<path d="M98.2 75.47C94.5453 67.9144 89.3707 61.1942 83 55.73V64.47" stroke="#A1C2D8" stroke-linecap="round" stroke-linejoin="round"/>
<path d="M99.85 72.27C98.3216 66.2596 96.0013 60.4791 92.95 55.08V66.59" stroke="#A1C2D8" stroke-linecap="round" stroke-linejoin="round"/>
<path d="M92.85 85.14C95.5697 83.2124 98.8291 82.1938 102.162 82.2297C105.496 82.2656 108.732 83.3542 111.41 85.34" stroke="#3290C1" stroke-linecap="round" stroke-linejoin="round"/>
<path d="M94.1 86.56C96.4458 85.1184 99.1413 84.346 101.895 84.3266C104.648 84.3072 107.354 85.0415 109.72 86.45" stroke="#3290C1" stroke-linecap="round" stroke-linejoin="round"/>
<path d="M102.7 75.51C101.94 68.75 100.7 62.07 99.41 55.39L99.9 72.46" stroke="#A1C2D8" stroke-linecap="round" stroke-linejoin="round"/>
<path d="M91 150.86L46.43 138.27C46.21 138.213 46.0158 138.083 45.8795 137.902C45.7432 137.72 45.6728 137.497 45.68 137.27V72.77C45.6725 72.6091 45.704 72.4489 45.7718 72.3028C45.8395 72.1567 45.9416 72.0291 46.0692 71.931C46.1969 71.8328 46.3463 71.7669 46.5049 71.7389C46.6634 71.7108 46.8264 71.7215 46.98 71.77L90.98 84.2L91 150.86Z" fill="#3290C1"/>
<path d="M91 150.86L46.43 138.27C46.21 138.213 46.0158 138.083 45.8795 137.902C45.7432 137.72 45.6728 137.497 45.68 137.27V74.81C45.6725 74.6491 45.704 74.4889 45.7718 74.3428C45.8395 74.1967 45.9416 74.0692 46.0692 73.971C46.1969 73.8728 46.3463 73.8069 46.5049 73.7789C46.6634 73.7508 46.8264 73.7615 46.98 73.81L90.98 86.24L91 150.86Z" fill="#1E6B96"/>
<path d="M113 150.86L157.59 138.27C157.81 138.213 158.004 138.083 158.141 137.902C158.277 137.72 158.347 137.497 158.34 137.27V72.77C158.347 72.6091 158.316 72.4489 158.248 72.3028C158.18 72.1567 158.078 72.0291 157.951 71.931C157.823 71.8328 157.674 71.7669 157.515 71.7389C157.357 71.7108 157.194 71.7215 157.04 71.77L113.04 84.2L113 150.86Z" fill="#3290C1"/>
<path d="M91 87.08V150.85C92.4425 152.297 94.1572 153.444 96.0452 154.225C97.9331 155.006 99.9569 155.405 102 155.4C102.27 155.4 102.54 155.4 102.81 155.4C102.51 133.93 102 112.67 102 90.9C97.85 91.7 94.37 89.16 91 87.08Z" fill="#1E6B96"/>
<path d="M113 84.21C111.557 85.6577 109.843 86.8063 107.955 87.5901C106.068 88.3738 104.044 88.7773 102 88.7773C99.9561 88.7773 97.9324 88.3738 96.0447 87.5901C94.1571 86.8063 92.4428 85.6577 91 84.21V87.08C94.35 89.16 97.83 91.7 102 90.87C102 112.64 102.51 133.87 102.81 155.37C106.649 155.187 110.283 153.579 113 150.86V84.21Z" fill="#3290C1"/>
<path d="M91 150.86L46.43 138.27C46.21 138.213 46.0158 138.083 45.8795 137.902C45.7432 137.72 45.6728 137.497 45.68 137.27V72.77C45.6725 72.6091 45.704 72.4489 45.7718 72.3028C45.8395 72.1567 45.9416 72.0291 46.0692 71.931C46.1969 71.8328 46.3463 71.7669 46.5049 71.7389C46.6634 71.7108 46.8264 71.7215 46.98 71.77L90.98 84.2L91 150.86Z" stroke="#144966" stroke-linecap="round" stroke-linejoin="round"/>
<path d="M54.23 136.21L49.78 135" stroke="#A1C2D8" stroke-linecap="round" stroke-linejoin="round"/>
<path d="M86.92 145.44L57.92 137.25" stroke="#A1C2D8" stroke-linecap="round" stroke-linejoin="round"/>
<path d="M77.29 84.59L86.92 87.31" stroke="#A1C2D8" stroke-linecap="round" stroke-linejoin="round"/>
<path d="M49.78 76.83L73.78 83.61" stroke="#A1C2D8" stroke-linecap="round" stroke-linejoin="round"/>
<path d="M113 150.86L157.59 138.27C157.81 138.213 158.004 138.083 158.141 137.902C158.277 137.72 158.347 137.497 158.34 137.27V72.77C158.347 72.6091 158.316 72.4489 158.248 72.3028C158.18 72.1567 158.078 72.0291 157.951 71.931C157.823 71.8328 157.674 71.7669 157.515 71.7389C157.357 71.7108 157.194 71.7215 157.04 71.77L113.04 84.2L113 150.86Z" stroke="#144966" stroke-linecap="round" stroke-linejoin="round"/>
<path d="M137.37 139.72L117.08 145.45" stroke="#D0E4F1" stroke-linecap="round" stroke-linejoin="round"/>
<path d="M154.22 135L143.66 138" stroke="#D0E4F1" stroke-linecap="round" stroke-linejoin="round"/>
<path d="M148.82 78.35L154.22 76.83" stroke="#D0E4F1" stroke-linecap="round" stroke-linejoin="round"/>
<path d="M128.59 84.06L142.75 80.06" stroke="#D0E4F1" stroke-linecap="round" stroke-linejoin="round"/>
<path d="M117.08 87.31L126.71 84.59" stroke="#D0E4F1" stroke-linecap="round" stroke-linejoin="round"/>
<path d="M91 150.86C92.4428 152.308 94.1571 153.456 96.0447 154.24C97.9324 155.024 99.9561 155.427 102 155.427C104.044 155.427 106.068 155.024 107.955 154.24C109.843 153.456 111.557 152.308 113 150.86V84.21C111.557 85.6577 109.843 86.8063 107.955 87.5901C106.068 88.3738 104.044 88.7773 102 88.7773C99.9561 88.7773 97.9324 88.3738 96.0447 87.5901C94.1571 86.8063 92.4428 85.6577 91 84.21V150.86Z" stroke="#144966" stroke-linecap="round" stroke-linejoin="round"/>
<path d="M104.28 151.08C102.693 151.393 101.057 151.37 99.4794 151.011C97.9016 150.653 96.4165 149.968 95.12 149" stroke="#D0E4F1" stroke-linecap="round" stroke-linejoin="round"/>
<path d="M95.12 91.62C99.5622 93.2675 104.448 93.2675 108.89 91.62" stroke="#D0E4F1" stroke-linecap="round" stroke-linejoin="round"/>
<path d="M72.7 124.35L79.33 126.22L71.66 100.3L65 98.43L57.37 120L64 121.87L65 119.13L71.76 121.04L72.7 124.35ZM66.7 114.28L68.35 109.64L70 115.2L66.7 114.28Z" fill="#A1C2D8" stroke="#144966" stroke-linecap="round" stroke-linejoin="round"/>
<path d="M143.95 98.12L138.62 99.61L137.32 99.98L127.41 102.76V109.79L134.37 107.83L127.35 126.53L132.68 125.03L133.98 124.67L143.89 121.89V114.86L136.93 116.81L143.95 98.12Z" fill="white" stroke="#1A628A" stroke-linecap="round" stroke-linejoin="round"/>
<path d="M34.29 48.78C39.7245 48.78 44.13 44.3745 44.13 38.94C44.13 33.5055 39.7245 29.1 34.29 29.1C28.8555 29.1 24.45 33.5055 24.45 38.94C24.45 44.3745 28.8555 48.78 34.29 48.78Z" fill="#1685C7"/>
<path d="M37.58 44.58C37.5943 45.0816 37.4585 45.5761 37.19 46C36.9107 46.3579 36.5726 46.6656 36.19 46.91C35.5149 47.361 34.9172 47.9182 34.42 48.56C34.3586 48.6469 34.3018 48.7371 34.25 48.83V48.83C33.3047 48.8246 32.365 48.6832 31.46 48.41C31.7322 47.5071 31.9131 46.5791 32 45.64C32.0505 44.4416 31.8496 43.246 31.41 42.13C31.1662 41.4108 30.8083 40.7355 30.35 40.13C29.8833 39.5283 29.2453 39.0821 28.52 38.85C28 38.7 27.44 38.7 26.92 38.52C26.455 38.3439 26.0384 38.0599 25.7046 37.6913C25.3708 37.3227 25.1293 36.8802 25 36.4C25 36.25 24.93 36.1 24.9 35.95C25.3336 34.5984 26.054 33.3563 27.0119 32.3087C27.9697 31.2611 29.1425 30.4326 30.45 29.88C31.13 30.29 31.99 30.35 32.7 30.71C33.1627 30.9672 33.5562 31.3325 33.847 31.7749C34.1378 32.2172 34.3173 32.7233 34.37 33.25C34.4614 34.3029 34.205 35.3568 33.64 36.25C33.2373 36.7523 32.9874 37.3597 32.92 38C32.9629 38.489 33.1963 38.9416 33.57 39.26C33.9394 39.5722 34.3341 39.8532 34.75 40.1C35.5532 40.5571 36.2315 41.2049 36.725 41.9862C37.2186 42.7675 37.5122 43.6583 37.58 44.58V44.58Z" fill="#00BD9C"/>
<path d="M44.12 38.94C44.1108 40.5015 43.7267 42.0379 43 43.42C42.4808 43.1904 41.988 42.9054 41.53 42.57C40.8697 42.1074 40.3865 41.4338 40.16 40.66C39.8 39.21 40.7 37.66 40.25 36.22C39.86 34.99 38.62 34.29 37.79 33.3C37.6688 33.1744 37.5826 33.0192 37.54 32.85C37.5269 32.5681 37.6237 32.292 37.81 32.08C38.1472 31.571 38.5701 31.1244 39.06 30.76C39.1682 30.6821 39.2819 30.6119 39.4 30.55C40.8408 31.4256 42.0319 32.6575 42.8586 34.127C43.6853 35.5964 44.1197 37.254 44.12 38.94V38.94Z" fill="#00BD9C" stroke="#0A706E" stroke-linecap="round" stroke-linejoin="round"/>
<g style="mix-blend-mode:multiply">
<path d="M44.12 38.94C44.1077 41.335 43.2223 43.6432 41.6298 45.4321C40.0373 47.221 37.8471 48.3676 35.4696 48.6571C33.0922 48.9466 30.6908 48.3591 28.7155 47.0047C26.7402 45.6503 25.3268 43.622 24.74 41.3C25.4464 42.6549 26.4809 43.8114 27.7491 44.6638C29.0172 45.5162 30.4786 46.0375 32 46.18C33.5211 46.2223 35.028 45.8782 36.38 45.18C37.8525 44.3935 39.1538 43.3217 40.208 42.0272C41.2621 40.7327 42.0481 39.2413 42.52 37.64C42.8497 36.6394 43.0218 35.5935 43.03 34.54C43.7343 35.9005 44.1078 37.408 44.12 38.94V38.94Z" fill="#D5D5D7"/>
</g>
<path d="M29.87 31.78C31.8005 30.3652 34.0923 29.5261 36.48 29.36C35.0414 29.0305 33.547 29.0299 32.1081 29.3581C30.6692 29.6864 29.3229 30.3351 28.1695 31.2559C27.0161 32.1767 26.0854 33.3458 25.4466 34.6763C24.8077 36.0067 24.4774 37.4641 24.48 38.94C24.4792 39.341 24.5026 39.7418 24.55 40.14C25.2449 36.798 27.1368 33.8249 29.87 31.78V31.78Z" fill="white"/>
<path d="M37.58 44.58C37.5943 45.0816 37.4585 45.5761 37.19 46C36.9107 46.3579 36.5726 46.6656 36.19 46.91C35.5149 47.361 34.9172 47.9182 34.42 48.56C34.3586 48.6469 34.3018 48.7371 34.25 48.83V48.83C33.3047 48.8246 32.365 48.6832 31.46 48.41C31.7322 47.5071 31.9131 46.5791 32 45.64C32.0505 44.4416 31.8496 43.246 31.41 42.13C31.1662 41.4108 30.8083 40.7355 30.35 40.13C29.8833 39.5283 29.2453 39.0821 28.52 38.85C28 38.7 27.44 38.7 26.92 38.52C26.455 38.3439 26.0384 38.0599 25.7046 37.6913C25.3708 37.3227 25.1293 36.8802 25 36.4C25 36.25 24.93 36.1 24.9 35.95C25.3336 34.5984 26.054 33.3563 27.0119 32.3087C27.9697 31.2611 29.1425 30.4326 30.45 29.88C31.13 30.29 31.99 30.35 32.7 30.71C33.1627 30.9672 33.5562 31.3325 33.847 31.7749C34.1378 32.2172 34.3173 32.7233 34.37 33.25C34.4614 34.3029 34.205 35.3568 33.64 36.25C33.2373 36.7523 32.9874 37.3597 32.92 38C32.9629 38.489 33.1963 38.9416 33.57 39.26C33.9394 39.5722 34.3341 39.8532 34.75 40.1C35.5532 40.5571 36.2315 41.2049 36.725 41.9862C37.2186 42.7675 37.5122 43.6583 37.58 44.58V44.58Z" stroke="#0A706E" stroke-linecap="round" stroke-linejoin="round"/>
<path d="M34.29 48.78C39.7245 48.78 44.13 44.3745 44.13 38.94C44.13 33.5055 39.7245 29.1 34.29 29.1C28.8555 29.1 24.45 33.5055 24.45 38.94C24.45 44.3745 28.8555 48.78 34.29 48.78Z" stroke="#0A706E" stroke-linecap="round" stroke-linejoin="round"/>
<path d="M184.57 121.86H181.82V138.77H184.57V121.86Z" fill="#D0E4F1" stroke="#A1C2D8" stroke-linecap="round" stroke-linejoin="round"/>
<path d="M184.57 121.86H200.99" stroke="#A1C2D8" stroke-linecap="round" stroke-linejoin="round"/>
<path d="M184.57 126.08H200.99" stroke="#A1C2D8" stroke-linecap="round" stroke-linejoin="round"/>
<path d="M184.57 134.54H200.99" stroke="#A1C2D8" stroke-linecap="round" stroke-linejoin="round"/>
<path d="M184.57 130.31H200.99" stroke="#A1C2D8" stroke-linecap="round" stroke-linejoin="round"/>
<path d="M184.57 138.77H200.99" stroke="#A1C2D8" stroke-linecap="round" stroke-linejoin="round"/>
<path d="M190.88 132.7C189.58 128.7 194.69 127.91 195.94 130.53C197.19 133.15 194.94 136.05 192.08 135.99C191.416 135.978 190.764 135.815 190.172 135.515C189.58 135.215 189.064 134.784 188.662 134.256C188.26 133.728 187.982 133.116 187.85 132.465C187.719 131.815 187.735 131.143 187.9 130.5C188.56 128.04 191.07 126.3 192.36 124.16C193.36 122.52 194.86 117.39 192.68 117.27C190.5 117.15 191.59 122.27 191.8 123.48C192.42 127.01 193.13 139.28 192.8 142.39C192.47 145.5 189.35 144.02 190.22 142.39" stroke="#3F555A" stroke-linecap="round" stroke-linejoin="round"/>
<path d="M175.24 58.26H187.56C187.999 58.2584 188.43 58.1412 188.809 57.9202C189.189 57.6991 189.503 57.3821 189.721 57.001C189.939 56.6199 190.053 56.1881 190.051 55.749C190.049 55.31 189.931 54.8792 189.71 54.5L184.42 45.5C184.053 44.8754 183.86 44.1643 183.86 43.44V36.27C183.86 36.1188 183.92 35.9738 184.027 35.867C184.134 35.7601 184.279 35.7 184.43 35.7C184.581 35.7 184.726 35.6399 184.833 35.5331C184.94 35.4262 185 35.2812 185 35.13V34.85C185 34.6988 184.94 34.5538 184.833 34.447C184.726 34.3401 184.581 34.28 184.43 34.28H178.35C178.199 34.28 178.054 34.3401 177.947 34.447C177.84 34.5538 177.78 34.6988 177.78 34.85V35.13C177.78 35.2812 177.84 35.4262 177.947 35.5331C178.054 35.6399 178.199 35.7 178.35 35.7V35.7C178.501 35.7 178.646 35.7601 178.753 35.867C178.86 35.9738 178.92 36.1188 178.92 36.27V43.42C178.92 44.1443 178.727 44.8554 178.36 45.48L173.07 54.48C172.843 54.8611 172.721 55.2959 172.717 55.7396C172.714 56.1833 172.828 56.62 173.049 57.0048C173.27 57.3896 173.59 57.7087 173.975 57.9293C174.36 58.1499 174.796 58.264 175.24 58.26V58.26Z" fill="#D0E4F1" stroke="#A1C2D8" stroke-linecap="round" stroke-linejoin="round"/>
<path d="M175.51 55L178.68 49.59C178.739 49.4918 178.823 49.4106 178.923 49.3545C179.023 49.2984 179.135 49.2692 179.25 49.27H183.56C183.675 49.2692 183.787 49.2984 183.887 49.3545C183.987 49.4106 184.071 49.4918 184.13 49.59L187.29 55C187.35 55.1005 187.383 55.2152 187.384 55.3324C187.386 55.4496 187.356 55.565 187.298 55.6668C187.24 55.7687 187.156 55.8532 187.054 55.9118C186.952 55.9703 186.837 56.0008 186.72 56H176.08C175.963 56.0008 175.848 55.9703 175.746 55.9118C175.644 55.8532 175.56 55.7687 175.502 55.6668C175.444 55.565 175.414 55.4496 175.416 55.3324C175.417 55.2152 175.45 55.1005 175.51 55V55Z" fill="#F56F40"/>
<path d="M186.26 54.34C186.114 54.3594 185.966 54.3594 185.82 54.34L179.32 54.16C178.81 54.16 178.32 54.16 177.79 54.16C177.4 54.1865 177.01 54.1865 176.62 54.16V54.16C176.62 54.27 176.53 54.39 176.48 54.5C176.336 54.7791 176.165 55.0437 175.97 55.29C176.097 55.3352 176.227 55.3687 176.36 55.39C177.66 55.39 178.99 55.39 180.36 55.39C180.93 55.39 181.5 55.39 182.07 55.39H183.17H186.75H186.83C186.587 55.0718 186.394 54.7175 186.26 54.34V54.34Z" fill="#D65129"/>
<path d="M175.51 55L178.68 49.59C178.739 49.4918 178.823 49.4106 178.923 49.3545C179.023 49.2984 179.135 49.2692 179.25 49.27H183.56C183.675 49.2692 183.787 49.2984 183.887 49.3545C183.987 49.4106 184.071 49.4918 184.13 49.59L187.29 55C187.35 55.1005 187.383 55.2152 187.384 55.3324C187.386 55.4496 187.356 55.565 187.298 55.6668C187.24 55.7687 187.156 55.8532 187.054 55.9118C186.952 55.9703 186.837 56.0008 186.72 56H176.08C175.963 56.0008 175.848 55.9703 175.746 55.9118C175.644 55.8532 175.56 55.7687 175.502 55.6668C175.444 55.565 175.414 55.4496 175.416 55.3324C175.417 55.2152 175.45 55.1005 175.51 55V55Z" stroke="#D65129" stroke-linecap="round" stroke-linejoin="round"/>
<path d="M182.14 28.16C183.057 28.16 183.8 27.4168 183.8 26.5C183.8 25.5832 183.057 24.84 182.14 24.84C181.223 24.84 180.48 25.5832 180.48 26.5C180.48 27.4168 181.223 28.16 182.14 28.16Z" stroke="#D0E4F1" stroke-linecap="round" stroke-linejoin="round"/>
<path d="M184.71 18.05C186.14 18.05 187.3 16.8904 187.3 15.46C187.3 14.0296 186.14 12.87 184.71 12.87C183.28 12.87 182.12 14.0296 182.12 15.46C182.12 16.8904 183.28 18.05 184.71 18.05Z" stroke="#D0E4F1" stroke-linecap="round" stroke-linejoin="round"/>
<path d="M183.69 15.46C183.69 15.1948 183.795 14.9404 183.983 14.7529C184.17 14.5654 184.425 14.46 184.69 14.46" stroke="#D0E4F1" stroke-linecap="round" stroke-linejoin="round"/>
<path d="M138.92 165.12H131.28V167.22H133.7V170.97H136.51V167.22H138.92V165.12Z" fill="#3F555A" stroke="#233839" stroke-linecap="round" stroke-linejoin="round"/>
<path d="M130.47 191C129.973 190.836 129.435 190.848 128.945 191.033C128.456 191.219 128.046 191.568 127.783 192.021C127.52 192.473 127.421 193.003 127.503 193.52C127.584 194.037 127.841 194.51 128.23 194.86L127.85 196.04C127.812 196.159 127.798 196.284 127.808 196.408C127.818 196.533 127.853 196.654 127.91 196.765C127.967 196.876 128.046 196.974 128.141 197.055C128.236 197.136 128.346 197.197 128.465 197.235C128.584 197.273 128.709 197.287 128.833 197.277C128.958 197.267 129.079 197.232 129.19 197.175C129.301 197.118 129.399 197.039 129.48 196.944C129.561 196.849 129.622 196.739 129.66 196.62L130.04 195.44C130.559 195.381 131.043 195.146 131.409 194.774C131.776 194.401 132.003 193.914 132.054 193.394C132.104 192.874 131.974 192.352 131.686 191.917C131.398 191.481 130.968 191.157 130.47 191Z" fill="#3F555A" stroke="#233839" stroke-linecap="round" stroke-linejoin="round"/>
<path d="M144.07 187.7V178.89C144.098 176.506 143.195 174.205 141.554 172.476C139.913 170.747 137.662 169.726 135.28 169.63C134.087 169.613 132.903 169.833 131.796 170.277C130.689 170.722 129.681 171.382 128.832 172.22C127.982 173.057 127.308 174.055 126.847 175.156C126.387 176.256 126.15 177.437 126.15 178.63V187.74H125.15C124.946 187.74 124.745 187.78 124.557 187.858C124.369 187.936 124.198 188.05 124.054 188.194C123.91 188.338 123.796 188.509 123.718 188.697C123.64 188.885 123.6 189.086 123.6 189.29V190.37C123.6 190.574 123.64 190.775 123.718 190.963C123.796 191.151 123.91 191.322 124.054 191.466C124.198 191.61 124.369 191.724 124.557 191.802C124.745 191.88 124.946 191.92 125.15 191.92H145.05C145.461 191.92 145.855 191.757 146.146 191.466C146.437 191.175 146.6 190.781 146.6 190.37V189.29C146.6 188.879 146.437 188.485 146.146 188.194C145.855 187.903 145.461 187.74 145.05 187.74L144.07 187.7Z" fill="#19BC9C" stroke="#109995" stroke-linecap="round" stroke-linejoin="round"/>
<path d="M141.48 181.08V182.85C141.484 182.949 141.468 183.048 141.432 183.141C141.395 183.233 141.34 183.317 141.269 183.387C141.199 183.456 141.114 183.51 141.021 183.545C140.928 183.581 140.829 183.596 140.73 183.59V183.59C140.552 183.565 140.39 183.477 140.274 183.34C140.158 183.204 140.096 183.029 140.1 182.85V181.08C140.092 180.891 140.159 180.706 140.286 180.565C140.413 180.425 140.591 180.34 140.78 180.33V180.33C140.875 180.333 140.969 180.354 141.056 180.393C141.143 180.433 141.222 180.489 141.287 180.558C141.352 180.628 141.403 180.71 141.436 180.8C141.469 180.889 141.484 180.985 141.48 181.08V181.08Z" fill="white" stroke="white" stroke-linecap="round" stroke-linejoin="round"/>
<path d="M139.81 177.49C139.603 176.828 139.251 176.222 138.778 175.715C138.306 175.207 137.725 174.813 137.08 174.56C136.937 174.5 136.816 174.396 136.735 174.263C136.655 174.13 136.618 173.975 136.63 173.82V173.82C136.63 173.711 136.656 173.604 136.705 173.506C136.754 173.409 136.825 173.324 136.912 173.259C136.999 173.194 137.101 173.151 137.208 173.132C137.315 173.113 137.426 173.119 137.53 173.15C138.379 173.48 139.143 173.996 139.766 174.661C140.389 175.326 140.855 176.121 141.13 176.99C141.172 177.103 141.186 177.224 141.171 177.343C141.156 177.462 141.112 177.576 141.043 177.674C140.975 177.773 140.883 177.853 140.776 177.908C140.669 177.963 140.55 177.991 140.43 177.99V177.99C140.287 177.982 140.15 177.93 140.039 177.84C139.928 177.751 139.848 177.628 139.81 177.49Z" fill="white" stroke="white" stroke-linecap="round" stroke-linejoin="round"/>
<path d="M135.21 191.89L133.79 187.71L135.78 184.13L134.68 179.34L136.93 184.13L135.8 187.71L138.22 191.89H135.21Z" fill="#109995" stroke="#109995" stroke-linecap="round" stroke-linejoin="round"/>
<path d="M144.07 187.7H139.4" stroke="#109995" stroke-linecap="round" stroke-linejoin="round"/>
<path d="M128.39 187.69H131.71" stroke="#109995" stroke-linecap="round" stroke-linejoin="round"/>
<path d="M19.7351 148.044C19.3915 147.7 18.8343 147.7 18.4906 148.044C18.147 148.388 18.147 148.945 18.4906 149.289L25.9223 156.72C26.266 157.064 26.8232 157.064 27.1668 156.72C27.5105 156.377 27.5105 155.819 27.1668 155.476L19.7351 148.044Z" stroke="#A1C2D8" stroke-linecap="round" stroke-linejoin="round"/>
<path d="M34.1257 162.434C33.782 162.09 33.2248 162.09 32.8812 162.434C32.5375 162.778 32.5375 163.335 32.8812 163.679L40.3128 171.11C40.6565 171.454 41.2137 171.454 41.5574 171.11C41.901 170.767 41.901 170.209 41.5574 169.866L34.1257 162.434Z" stroke="#A1C2D8" stroke-linecap="round" stroke-linejoin="round"/>
<path d="M41.5615 155.991C42.9283 154.624 42.2571 151.737 40.0624 149.542C37.8677 147.348 34.9804 146.676 33.6136 148.043C32.2467 149.41 32.9179 152.297 35.1126 154.492C37.3074 156.687 40.1946 157.358 41.5615 155.991Z" fill="#D0E4F1" stroke="#3F555A" stroke-linecap="round" stroke-linejoin="round"/>
<path d="M33.61 148C32.24 149.37 32.92 152.25 35.11 154.45C37.3 156.65 40.19 157.32 41.56 155.95L27.76 169.75C26.39 171.12 23.51 170.44 21.31 168.25C19.11 166.06 18.44 163.17 19.81 161.8L33.61 148Z" fill="#D0E4F1" stroke="#3F555A" stroke-linecap="round" stroke-linejoin="round"/>
<path d="M31.67 150C30.3 151.37 30.98 154.25 33.17 156.45C35.36 158.65 38.25 159.32 39.62 157.95" stroke="#3F555A" stroke-linecap="round" stroke-linejoin="round"/>
<path d="M28.65 153C27.28 154.37 27.96 157.25 30.15 159.45L21.31 168.29" stroke="#3F555A" stroke-linecap="round" stroke-linejoin="round"/>
<path d="M26 155.64C26.3165 157.095 27.0619 158.422 28.14 159.45L20.38 167.21" stroke="#3F555A" stroke-linecap="round" stroke-linejoin="round"/>
<path d="M11.4113 148.809L17.351 154.748L25.1929 146.907L19.2532 140.967L11.4113 148.809Z" fill="#3290C1" stroke="#1E6B96" stroke-linecap="round" stroke-linejoin="round"/>
<path d="M15.37 152.77L23.21 144.93" stroke="#1E6B96" stroke-linecap="round" stroke-linejoin="round"/>
<path d="M13.39 150.79L21.23 142.95" stroke="#1E6B96" stroke-linecap="round" stroke-linejoin="round"/>
<path d="M22.58 149.52L16.64 143.58" stroke="#1E6B96" stroke-linecap="round" stroke-linejoin="round"/>
<path d="M19.97 152.13L14.02 146.19" stroke="#1E6B96" stroke-linecap="round" stroke-linejoin="round"/>
<path d="M34.8614 172.255L40.801 178.195L48.6429 170.353L42.7032 164.414L34.8614 172.255Z" fill="#3290C1" stroke="#1E6B96" stroke-linecap="round" stroke-linejoin="round"/>
<path d="M46.66 168.37L38.82 176.21" stroke="#1E6B96" stroke-linecap="round" stroke-linejoin="round"/>
<path d="M44.68 166.39L36.84 174.23" stroke="#1E6B96" stroke-linecap="round" stroke-linejoin="round"/>
<path d="M43.41 175.58L37.47 169.64" stroke="#1E6B96" stroke-linecap="round" stroke-linejoin="round"/>
<path d="M46.03 172.97L40.08 167.03" stroke="#1E6B96" stroke-linecap="round" stroke-linejoin="round"/>
<path d="M102 23.76V0.700001" stroke="#D0E4F1" stroke-linecap="round" stroke-linejoin="round"/>
<path d="M123.12 16.56L125.2 7.9" stroke="#D0E4F1" stroke-linecap="round" stroke-linejoin="round"/>
<path d="M117.5 40L121.26 24.33" stroke="#D0E4F1" stroke-linecap="round" stroke-linejoin="round"/>
<path d="M137.89 42.85L148.29 24.94" stroke="#D0E4F1" stroke-linecap="round" stroke-linejoin="round"/>
<path d="M156 49.47L161.23 44.13" stroke="#D0E4F1" stroke-linecap="round" stroke-linejoin="round"/>
<path d="M169.52 77.53L184 71.73" stroke="#D0E4F1" stroke-linecap="round" stroke-linejoin="round"/>
<path d="M186.18 82.06L202.38 77.72" stroke="#D0E4F1" stroke-linecap="round" stroke-linejoin="round"/>
<path d="M171.33 86L174.65 85.11" stroke="#D0E4F1" stroke-linecap="round" stroke-linejoin="round"/>
<path d="M190.19 103.24L205.91 102.99" stroke="#D0E4F1" stroke-linecap="round" stroke-linejoin="round"/>
<path d="M181.36 155.51L189.49 160.72" stroke="#D0E4F1" stroke-linecap="round" stroke-linejoin="round"/>
<path d="M172.25 161.63L178 166.3" stroke="#D0E4F1" stroke-linecap="round" stroke-linejoin="round"/>
<path d="M163.13 154.24L167.65 157.91" stroke="#D0E4F1" stroke-linecap="round" stroke-linejoin="round"/>
<path d="M155.65 171.35L167.13 185.62" stroke="#D0E4F1" stroke-linecap="round" stroke-linejoin="round"/>
<path d="M108.09 168.1L108.88 176.31" stroke="#D0E4F1" stroke-linecap="round" stroke-linejoin="round"/>
<path d="M98.43 184.76L97.78 199.4" stroke="#D0E4F1" stroke-linecap="round" stroke-linejoin="round"/>
<path d="M73.62 187L68.16 202.85" stroke="#D0E4F1" stroke-linecap="round" stroke-linejoin="round"/>
<path d="M62.65 181.85L54.81 197.23" stroke="#D0E4F1" stroke-linecap="round" stroke-linejoin="round"/>
<path d="M68.6 170.16L66.09 175.08" stroke="#D0E4F1" stroke-linecap="round" stroke-linejoin="round"/>
<path d="M22 121.76L0.75 126.29" stroke="#D0E4F1" stroke-linecap="round" stroke-linejoin="round"/>
<path d="M22.15 86.41L0.669998 81.51" stroke="#D0E4F1" stroke-linecap="round" stroke-linejoin="round"/>
<path d="M24.51 97.14L8.8 95.62" stroke="#D0E4F1" stroke-linecap="round" stroke-linejoin="round"/>
<path d="M37.18 98.37L31.08 97.78" stroke="#D0E4F1" stroke-linecap="round" stroke-linejoin="round"/>
<path d="M21.91 63.22L9.67999 56.9" stroke="#D0E4F1" stroke-linecap="round" stroke-linejoin="round"/>
<path d="M75.16 42.35L60.87 9.19" stroke="#D0E4F1" stroke-linecap="round" stroke-linejoin="round"/>
<path d="M83.52 41.13L80.34 30.2" stroke="#D0E4F1" stroke-linecap="round" stroke-linejoin="round"/>
<path d="M92 24.54L89.14 1.66" stroke="#19BC9C" stroke-linecap="round" stroke-linejoin="round"/>
<path d="M113.15 4.9L113.53 1.5" stroke="#19BC9C" stroke-linecap="round" stroke-linejoin="round"/>
<path d="M109.38 38.73L111.17 22.73" stroke="#19BC9C" stroke-linecap="round" stroke-linejoin="round"/>
<path d="M130 39L138.07 20" stroke="#19BC9C" stroke-linecap="round" stroke-linejoin="round"/>
<path d="M148.75 43.36L153.27 37.41" stroke="#19BC9C" stroke-linecap="round" stroke-linejoin="round"/>
<path d="M165.65 69.53L171.58 66.24" stroke="#19BC9C" stroke-linecap="round" stroke-linejoin="round"/>
<path d="M189.36 92.47L204.93 90.27" stroke="#19BC9C" stroke-linecap="round" stroke-linejoin="round"/>
<path d="M168.83 146.43L173.77 149.51" stroke="#19BC9C" stroke-linecap="round" stroke-linejoin="round"/>
<path d="M163.53 164.34L176.69 177.08" stroke="#19BC9C" stroke-linecap="round" stroke-linejoin="round"/>
<path d="M108.41 184.74L110.3 208.39" stroke="#19BC9C" stroke-linecap="round" stroke-linejoin="round"/>
<path d="M84.08 190.09L80.63 206.5" stroke="#19BC9C" stroke-linecap="round" stroke-linejoin="round"/>
<path d="M77 174L75.12 179.2" stroke="#19BC9C" stroke-linecap="round" stroke-linejoin="round"/>
<path d="M24.78 131.71L15.16 135" stroke="#19BC9C" stroke-linecap="round" stroke-linejoin="round"/>
<path d="M15.28 107.22L8.42 107.41" stroke="#19BC9C" stroke-linecap="round" stroke-linejoin="round"/>
<path d="M13.53 72.21L4.53 68.88" stroke="#19BC9C" stroke-linecap="round" stroke-linejoin="round"/>
<path d="M67.66 46.32L59 31.51" stroke="#19BC9C" stroke-linecap="round" stroke-linejoin="round"/>
<path d="M182.52 47.91L185.97 53.77" stroke="white" stroke-width="2" stroke-linecap="round" stroke-linejoin="round"/>
</svg>
