<svg width="170" height="136" viewBox="0 0 170 136" fill="none" xmlns="http://www.w3.org/2000/svg">
<path d="M142.8 128C142.727 126.457 142.437 124.932 141.94 123.47C141.462 122.391 140.883 121.359 140.21 120.39C135.72 113.32 132.42 105.14 132.88 96.77C132.877 96.0565 133.027 95.3507 133.32 94.7C133.472 94.378 133.71 94.1045 134.009 93.9103C134.307 93.716 134.654 93.6086 135.01 93.6C134.542 95.4006 134.518 97.288 134.94 99.1C135.825 104.483 137.37 109.735 139.54 114.74C140.94 117.97 142.6 121.1 143.89 124.38C144.565 126.065 145.093 127.805 145.47 129.58C145.68 130.58 146.54 133.98 145.71 134.76C144.53 135.87 143.48 134.37 143.31 133.45C143 131.73 143 129.84 142.8 128Z" fill="#D0E4F1"/>
<path d="M143.18 98.77C143.47 91.94 142.18 85.16 141.39 78.37C141.071 76.9073 141.262 75.3797 141.93 74.04C142.03 73.9133 142.102 73.7667 142.14 73.61C142.147 73.47 142.109 73.3316 142.031 73.2148C141.954 73.0979 141.841 73.0087 141.71 72.96C141.416 72.87 141.1 72.8845 140.816 73.0012C140.531 73.1179 140.296 73.3295 140.15 73.6C139.872 74.148 139.731 74.7555 139.74 75.37C139.337 83.2225 139.692 91.0956 140.8 98.88C140.92 99.78 140.48 103.41 141.56 103.24C143 103 143.14 99.75 143.18 98.77Z" fill="#D0E4F1"/>
<path d="M148 84.38C147.713 80.841 147.633 77.2883 147.76 73.74C147.76 72.74 147.98 71.51 148.9 71.08C148.781 70.9389 148.632 70.8256 148.465 70.7478C148.297 70.67 148.115 70.6298 147.93 70.6298C147.745 70.6298 147.563 70.67 147.395 70.7478C147.228 70.8256 147.079 70.9389 146.96 71.08C146.512 71.6921 146.27 72.4312 146.27 73.19C145.676 79.1753 145.676 85.2047 146.27 91.19C146.35 92.06 146.19 94.06 146.75 94.78C147.94 96.31 148.22 94.05 148.32 93.13C148.497 90.2099 148.39 87.2794 148 84.38V84.38Z" fill="#D0E4F1"/>
<path d="M155.27 96.27C155.529 96.2234 155.769 96.1049 155.964 95.9281C156.158 95.7512 156.299 95.5232 156.37 95.27C156.5 94.7573 156.531 94.2243 156.46 93.7L155.3 76.9C155.2 75.42 155.19 73.71 156.3 72.77C156.21 72.23 155.41 72.09 154.97 72.42C154.569 72.8027 154.32 73.3179 154.27 73.87C153.679 77.6304 153.558 81.4497 153.91 85.24L154.25 91.79C154.33 92.68 153.82 96.42 155.27 96.27Z" fill="#D0E4F1"/>
<path d="M162.6 95.87C163.182 94.847 163.447 93.6739 163.36 92.5C163.477 88.4951 163.336 84.4869 162.94 80.5C162.83 79.44 162.75 78.2 163.54 77.5C163.494 77.4339 163.434 77.3782 163.365 77.3364C163.296 77.2947 163.219 77.2678 163.139 77.2574C163.059 77.2471 162.978 77.2535 162.901 77.2763C162.823 77.2992 162.752 77.3379 162.69 77.39C162.448 77.6126 162.283 77.907 162.22 78.23C160.94 82.71 162.22 87.51 161.7 92.14C161.637 92.8233 161.486 93.4956 161.25 94.14C161.01 94.76 160.2 95.4 160.04 95.94C159.59 97.58 162 96.73 162.6 95.87Z" fill="#D0E4F1"/>
<path d="M168.83 33.02V42.43L166.98 45.54V36.13L168.83 33.02Z" fill="#D65129" stroke="#D65129" stroke-linecap="round" stroke-linejoin="round"/>
<path d="M168.83 33.02L166.98 36.13H157.57L159.42 33.02H168.83Z" fill="#F56F40" stroke="#D65129" stroke-linecap="round" stroke-linejoin="round"/>
<path d="M166.98 36.13H157.57V45.54H166.98V36.13Z" fill="#F56F40" stroke="#D65129" stroke-linecap="round" stroke-linejoin="round"/>
<path d="M111.65 23.04H50.11C49.5577 23.04 49.11 23.4877 49.11 24.04V112.43C49.11 112.982 49.5577 113.43 50.11 113.43H111.65C112.202 113.43 112.65 112.982 112.65 112.43V24.04C112.65 23.4877 112.202 23.04 111.65 23.04Z" fill="#D0E4F1" stroke="#D0E4F1" stroke-linecap="round" stroke-linejoin="round"/>
<path d="M114.61 20.29H53.0699C52.5177 20.29 52.0699 20.7377 52.0699 21.29V109.68C52.0699 110.232 52.5177 110.68 53.0699 110.68H114.61C115.162 110.68 115.61 110.232 115.61 109.68V21.29C115.61 20.7377 115.162 20.29 114.61 20.29Z" fill="white"/>
<path d="M118.65 17.04H57.11C56.5577 17.04 56.11 17.4877 56.11 18.04V106.43C56.11 106.982 56.5577 107.43 57.11 107.43H118.65C119.202 107.43 119.65 106.982 119.65 106.43V18.04C119.65 17.4877 119.202 17.04 118.65 17.04Z" fill="#D0E4F1" stroke="#D0E4F1" stroke-linecap="round" stroke-linejoin="round"/>
<path d="M114.61 20.29H53.0699C52.5177 20.29 52.0699 20.7377 52.0699 21.29V109.68C52.0699 110.232 52.5177 110.68 53.0699 110.68H114.61C115.162 110.68 115.61 110.232 115.61 109.68V21.29C115.61 20.7377 115.162 20.29 114.61 20.29Z" stroke="#3F555A" stroke-linecap="round" stroke-linejoin="round"/>
<path d="M120.65 15.04H59.11C58.5577 15.04 58.11 15.4877 58.11 16.04V104.43C58.11 104.982 58.5577 105.43 59.11 105.43H120.65C121.202 105.43 121.65 104.982 121.65 104.43V16.04C121.65 15.4877 121.202 15.04 120.65 15.04Z" fill="white" stroke="#3F555A" stroke-linecap="round" stroke-linejoin="round"/>
<path d="M85.27 46.68H63.29V51.85H85.27V46.68Z" fill="#F3F6F7"/>
<path d="M85.27 57.02H63.29V62.19H85.27V57.02Z" fill="#F3F6F7"/>
<path d="M116.47 46.68H94.49V51.85H116.47V46.68Z" fill="#F3F6F7"/>
<path d="M116.47 57.02H94.49V62.19H116.47V57.02Z" fill="#F3F6F7"/>
<path d="M85.27 81.94H63.29V87.11H85.27V81.94Z" fill="#F3F6F7"/>
<path d="M85.27 92.28H63.29V97.45H85.27V92.28Z" fill="#F3F6F7"/>
<path d="M116.47 81.94H94.49V87.11H116.47V81.94Z" fill="#F3F6F7"/>
<path d="M116.47 92.28H94.49V97.45H116.47V92.28Z" fill="#F3F6F7"/>
<path d="M69.81 27.58L66.44 20.22L63.29 27.67" stroke="#19BC9C" stroke-linecap="round" stroke-linejoin="round"/>
<path d="M63.92 26.17L69.14 26.1" stroke="#19BC9C" stroke-linecap="round" stroke-linejoin="round"/>
<path d="M76.92 27.58H72.67" stroke="#19BC9C" stroke-linecap="round" stroke-linejoin="round"/>
<path d="M74.79 27.58V20.22L72.64 22.37" stroke="#19BC9C" stroke-linecap="round" stroke-linejoin="round"/>
<path d="M63.29 36.86H66.81" stroke="#3F555A" stroke-width="2" stroke-linejoin="round"/>
<path d="M63.29 42.03H85.27" stroke="#3F555A" stroke-width="2" stroke-linejoin="round"/>
<path d="M63.29 47.2H85.27" stroke="#C3D4E0" stroke-linejoin="round" stroke-dasharray="1 2"/>
<path d="M63.29 52.37H85.27" stroke="#C3D4E0" stroke-linejoin="round" stroke-dasharray="1 2"/>
<path d="M63.29 57.54H85.27" stroke="#C3D4E0" stroke-linejoin="round" stroke-dasharray="1 2"/>
<path d="M63.29 62.71H85.27" stroke="#C3D4E0" stroke-linejoin="round" stroke-dasharray="1 2"/>
<path d="M94.49 36.86H98.01" stroke="#3F555A" stroke-width="2" stroke-linejoin="round"/>
<path d="M94.49 42.03H116.47" stroke="#3F555A" stroke-width="2" stroke-linejoin="round"/>
<path d="M94.49 47.2H116.47" stroke="#C3D4E0" stroke-linejoin="round" stroke-dasharray="1 2"/>
<path d="M94.49 52.37H116.47" stroke="#C3D4E0" stroke-linejoin="round" stroke-dasharray="1 2"/>
<path d="M94.49 57.54H116.47" stroke="#C3D4E0" stroke-linejoin="round" stroke-dasharray="1 2"/>
<path d="M94.49 62.71H116.47" stroke="#C3D4E0" stroke-linejoin="round" stroke-dasharray="1 2"/>
<path d="M63.29 72.11H66.81" stroke="#3F555A" stroke-width="2" stroke-linejoin="round"/>
<path d="M63.29 77.27H85.27" stroke="#3F555A" stroke-width="2" stroke-linejoin="round"/>
<path d="M63.29 82.44H85.27" stroke="#C3D4E0" stroke-linejoin="round" stroke-dasharray="1 2"/>
<path d="M63.29 87.61H85.27" stroke="#C3D4E0" stroke-linejoin="round" stroke-dasharray="1 2"/>
<path d="M63.29 92.78H85.27" stroke="#C3D4E0" stroke-linejoin="round" stroke-dasharray="1 2"/>
<path d="M63.29 97.95H85.27" stroke="#C3D4E0" stroke-linejoin="round" stroke-dasharray="1 2"/>
<path d="M94.49 72.11H98.01" stroke="#3F555A" stroke-width="2" stroke-linejoin="round"/>
<path d="M94.49 77.27H116.47" stroke="#3F555A" stroke-width="2" stroke-linejoin="round"/>
<path d="M94.49 82.44H116.47" stroke="#C3D4E0" stroke-linejoin="round" stroke-dasharray="1 2"/>
<path d="M94.49 87.61H116.47" stroke="#C3D4E0" stroke-linejoin="round" stroke-dasharray="1 2"/>
<path d="M94.49 92.78H116.47" stroke="#C3D4E0" stroke-linejoin="round" stroke-dasharray="1 2"/>
<path d="M94.49 97.95H116.47" stroke="#C3D4E0" stroke-linejoin="round" stroke-dasharray="1 2"/>
<path d="M142.39 8.6V49.49C141.991 49.0943 141.452 48.8723 140.89 48.8723C140.328 48.8723 139.789 49.0943 139.39 49.49C138.99 49.0967 138.451 48.8763 137.89 48.8763C137.329 48.8763 136.79 49.0967 136.39 49.49V8.6H142.39Z" fill="#19BC9C" stroke="#109995" stroke-linecap="round" stroke-linejoin="round"/>
<path d="M142.39 6.04H136.36V8.6H142.39V6.04Z" fill="#D0E4F1" stroke="#A1C2D8" stroke-linecap="round" stroke-linejoin="round"/>
<path d="M142.39 3.77V6H136.39V3.77C136.39 3.37603 136.468 2.98593 136.618 2.62195C136.769 2.25797 136.99 1.92726 137.269 1.64868C137.547 1.37011 137.878 1.14912 138.242 0.99836C138.606 0.847596 138.996 0.769997 139.39 0.769997C139.784 0.769997 140.174 0.847596 140.538 0.99836C140.902 1.14912 141.233 1.37011 141.511 1.64868C141.79 1.92726 142.011 2.25797 142.162 2.62195C142.312 2.98593 142.39 3.37603 142.39 3.77V3.77Z" fill="#F56F40" stroke="#D65129" stroke-linecap="round" stroke-linejoin="round"/>
<path d="M138.37 11.69V42.69Z" fill="#19BC9C"/>
<path d="M138.37 11.69V42.69" stroke="#109995" stroke-linecap="round" stroke-linejoin="round"/>
<path d="M140.38 14.63V46.73Z" fill="#19BC9C"/>
<path d="M140.38 14.63V46.73" stroke="#109995" stroke-linecap="round" stroke-linejoin="round"/>
<path d="M142.39 49.49L140.39 53.9H138.39L136.39 49.49C136.79 49.0967 137.329 48.8763 137.89 48.8763C138.451 48.8763 138.99 49.0967 139.39 49.49C139.789 49.0943 140.328 48.8723 140.89 48.8723C141.452 48.8723 141.991 49.0943 142.39 49.49Z" fill="white" stroke="#3F555A" stroke-linecap="round" stroke-linejoin="round"/>
<path d="M140.35 53.9L139.38 56L138.41 53.9H140.35Z" fill="#3F555A" stroke="#3F555A" stroke-linecap="round" stroke-linejoin="round"/>
<path d="M139.38 56L138.4 53.9H138.41L139.38 56Z" fill="#233839" stroke="#3F555A" stroke-linecap="round" stroke-linejoin="round"/>
<path d="M168.83 42.43V51.84L166.98 54.95V45.54L168.83 42.43Z" fill="#2173A1" stroke="#2173A1" stroke-linecap="round" stroke-linejoin="round"/>
<path d="M166.98 45.54H157.57V54.95H166.98V45.54Z" fill="#3290C1" stroke="#2173A1" stroke-linecap="round" stroke-linejoin="round"/>
<path d="M146.63 95.09C146.275 88.7973 145.374 82.5473 143.94 76.41C143.791 75.5419 143.45 74.7183 142.94 74C142.683 73.645 142.32 73.3803 141.903 73.2438C141.487 73.1073 141.037 73.106 140.62 73.24C139.56 73.7 139.37 75.11 139.38 76.24C139.38 84.92 141.38 93.56 140.65 102.24C140.662 102.458 140.626 102.675 140.545 102.877C140.464 103.079 140.339 103.261 140.18 103.41C139.82 103.66 139.18 103.3 139.36 102.91C138.64 100.75 138 98.44 137.28 96.28C137.069 95.4306 136.662 94.6427 136.09 93.98C135.795 93.6584 135.4 93.4474 134.968 93.3819C134.537 93.3164 134.097 93.4004 133.72 93.62C133.388 93.8953 133.147 94.2649 133.03 94.68C132.813 95.4104 132.702 96.1681 132.7 96.93C132.467 102.975 133.713 108.986 136.33 114.44C137.94 117.78 140.04 120.86 141.71 124.16C143.234 127.489 143.815 131.173 143.39 134.81" stroke="#3F555A" stroke-linecap="round" stroke-linejoin="round"/>
<path d="M146 87.68V79.53C146 77.23 145.13 73.29 146.54 71.29C147.95 69.29 149.91 71 150.54 72.6C151.54 74.94 151.6 77.5 151.98 79.97C152.578 84.3683 152.956 88.7939 153.11 93.23C153.11 94.02 153.3 94.96 154.02 95.23C153.72 95.09 154.21 90.85 154.21 90.34C154.21 87.6 153.96 84.71 153.77 81.92C153.58 79.13 153.2 76.08 154.15 73.38C154.21 73.1439 154.325 72.9254 154.486 72.7424C154.647 72.5594 154.848 72.4171 155.075 72.3273C155.301 72.2375 155.546 72.2027 155.788 72.2258C156.031 72.2489 156.264 72.3291 156.47 72.46C157.77 73.23 157.88 75.15 158.09 76.46C159.095 82.8562 159.556 89.3259 159.47 95.8" stroke="#3F555A" stroke-linecap="round" stroke-linejoin="round"/>
<path d="M159.57 95.59C159.41 95.86 159.86 96.17 160.14 96.01C160.265 95.9113 160.367 95.7871 160.439 95.6456C160.512 95.5042 160.553 95.3488 160.56 95.19C161.42 90.3506 161.706 85.4264 161.41 80.52C161.35 79.46 161.3 77.96 162.29 77.28C163.69 76.28 164.9 78.06 165.29 79.21C166.585 82.9537 167.31 86.8708 167.44 90.83C167.86 101.02 165.44 111.2 163.44 121.13C162.66 125.07 163.3 130.79 163.56 134.8" stroke="#3F555A" stroke-linecap="round" stroke-linejoin="round"/>
<path d="M16.93 55.44C25.6341 55.44 32.69 48.384 32.69 39.68C32.69 30.976 25.6341 23.92 16.93 23.92C8.22604 23.92 1.17004 30.976 1.17004 39.68C1.17004 48.384 8.22604 55.44 16.93 55.44Z" fill="#D0E4F1" stroke="#D0E4F1" stroke-miterlimit="10"/>
<path d="M11.0828 18.1378L1.48865 23.5593L3.36305 26.8764L12.9572 21.4549L11.0828 18.1378Z" fill="#D0E4F1" stroke="#D0E4F1" stroke-miterlimit="10"/>
<path d="M18.91 23.88L19.41 22.05L23.89 23.29L23.38 25.12" fill="#D0E4F1"/>
<path d="M18.91 23.88L19.41 22.05L23.89 23.29L23.38 25.12" stroke="#D0E4F1" stroke-miterlimit="10"/>
<path d="M20.26 22.29L20.38 21.85C20.4308 21.6672 20.5172 21.4962 20.6343 21.3469C20.7513 21.1976 20.8967 21.0729 21.0621 20.98C21.2276 20.8871 21.4097 20.8278 21.5981 20.8055C21.7865 20.7831 21.9775 20.7983 22.16 20.85V20.85C22.3428 20.9008 22.5138 20.9872 22.6631 21.1043C22.8124 21.2213 22.9371 21.3667 23.03 21.5321C23.1229 21.6975 23.1822 21.8797 23.2046 22.0681C23.2269 22.2565 23.2117 22.4475 23.16 22.63L23.04 23.07" fill="#D0E4F1"/>
<path d="M20.26 22.29L20.38 21.85C20.4308 21.6672 20.5172 21.4962 20.6343 21.3469C20.7513 21.1976 20.8967 21.0729 21.0621 20.98C21.2276 20.8871 21.4097 20.8278 21.5981 20.8055C21.7865 20.7831 21.9775 20.7983 22.16 20.85V20.85C22.3428 20.9008 22.5138 20.9872 22.6631 21.1043C22.8124 21.2213 22.9371 21.3667 23.03 21.5321C23.1229 21.6975 23.1822 21.8797 23.2046 22.0681C23.2269 22.2565 23.2117 22.4475 23.16 22.63L23.04 23.07" stroke="#D0E4F1" stroke-miterlimit="10"/>
<path d="M7.15997 27.11L6.21997 25.45L10.26 23.17L11.2 24.82" fill="#D0E4F1"/>
<path d="M7.15997 27.11L6.21997 25.45L10.26 23.17L11.2 24.82" stroke="#D0E4F1" stroke-linecap="round" stroke-linejoin="round"/>
<path d="M16.93 27.29C15.0622 27.2905 13.2189 27.7146 11.5388 28.5304C9.85864 29.3463 8.38541 30.5325 7.22998 32C9.6067 30.0922 12.6041 29.1289 15.6473 29.2949C18.6905 29.4609 21.5653 30.7446 23.7204 32.8996C25.8754 35.0547 27.1591 37.9295 27.3251 40.9727C27.4911 44.0159 26.5278 47.0133 24.62 49.39C26.6333 47.7933 28.1 45.6097 28.8165 43.142C29.533 40.6743 29.4639 38.0448 28.6187 35.6182C27.7736 33.1915 26.1943 31.088 24.0998 29.5993C22.0054 28.1106 19.4996 27.3105 16.93 27.31V27.29Z" fill="#D0E4F1" stroke="#D0E4F1" stroke-miterlimit="10"/>
<path d="M18.93 53.43C15.9333 53.4328 12.998 52.5807 10.4687 50.9736C7.93934 49.3665 5.921 47.0711 4.65058 44.3571C3.38016 41.643 2.91039 38.6228 3.29643 35.6511C3.68247 32.6793 4.90829 29.8794 6.82999 27.58C5.14523 28.9793 3.77083 30.7146 2.79456 32.6751C1.8183 34.6356 1.26163 36.7781 1.16012 38.9658C1.0586 41.1536 1.41447 43.3384 2.20499 45.3809C2.99551 47.4233 4.2033 49.2785 5.75124 50.8278C7.29917 52.3771 9.15321 53.5866 11.1949 54.3789C13.2367 55.1713 15.4212 55.5291 17.609 55.4296C19.7969 55.3301 21.9399 54.7753 23.9012 53.8008C25.8626 52.8263 27.5991 51.4535 29 49.77C26.1768 52.1338 22.6121 53.4294 18.93 53.43V53.43Z" fill="#D0E4F1" stroke="#D0E4F1" stroke-miterlimit="10"/>
<path d="M16.93 55.44C25.6341 55.44 32.69 48.384 32.69 39.68C32.69 30.976 25.6341 23.92 16.93 23.92C8.22604 23.92 1.17004 30.976 1.17004 39.68C1.17004 48.384 8.22604 55.44 16.93 55.44Z" fill="#D0E4F1" stroke="#D0E4F1" stroke-linecap="round" stroke-linejoin="round"/>
<path d="M16.9299 49.92C22.5853 49.92 27.1699 45.3354 27.1699 39.68C27.1699 34.0246 22.5853 29.44 16.9299 29.44C11.2745 29.44 6.68994 34.0246 6.68994 39.68C6.68994 45.3354 11.2745 49.92 16.9299 49.92Z" fill="#D0E4F1" stroke="#D0E4F1" stroke-linecap="round" stroke-linejoin="round"/>
<path d="M27.8899 33.92C26.5172 31.3328 24.2808 29.3087 21.5699 28.2Z" fill="#D0E4F1"/>
<path d="M27.8899 33.92C26.5172 31.3328 24.2808 29.3087 21.5699 28.2" stroke="#D0E4F1" stroke-linecap="round" stroke-linejoin="round"/>
<path d="M12.83 51.28C14.7313 51.9369 16.7638 52.1222 18.7525 51.8198C20.7413 51.5175 22.6269 50.7366 24.2471 49.5443C25.8673 48.352 27.1737 46.784 28.0539 44.9751C28.934 43.1663 29.3616 41.1707 29.3 39.16" fill="#D0E4F1"/>
<path d="M12.83 51.28C14.7313 51.9369 16.7638 52.1222 18.7525 51.8198C20.7413 51.5175 22.6269 50.7366 24.2471 49.5443C25.8673 48.352 27.1737 46.784 28.0539 44.9751C28.934 43.1663 29.3616 41.1707 29.3 39.16" stroke="#D0E4F1" stroke-linecap="round" stroke-linejoin="round"/>
<path d="M19.65 27.6C10.65 25.6 2.44998 34.35 5.03998 43.16Z" fill="#D0E4F1"/>
<path d="M19.65 27.6C10.65 25.6 2.44998 34.35 5.03998 43.16" stroke="#D0E4F1" stroke-linecap="round" stroke-linejoin="round"/>
<path d="M18.11 41.06L10.84 45.53C10.7371 45.5875 10.6175 45.6075 10.5015 45.5868C10.3855 45.5661 10.2803 45.5058 10.2037 45.4162C10.1271 45.3267 10.0839 45.2134 10.0814 45.0956C10.0789 44.9778 10.1173 44.8627 10.19 44.77L15.73 38.28C15.8831 38.0815 16.075 37.9162 16.294 37.7941C16.513 37.6721 16.7544 37.5958 17.0038 37.5699C17.2532 37.544 17.5052 37.5691 17.7446 37.6436C17.9839 37.7181 18.2057 37.8404 18.3963 38.0033C18.5869 38.1661 18.7425 38.3659 18.8535 38.5907C18.9645 38.8155 19.0287 39.0605 19.0421 39.3108C19.0556 39.5611 19.018 39.8116 18.9317 40.047C18.8454 40.2823 18.7121 40.4977 18.54 40.68C18.4167 40.8277 18.2718 40.9558 18.11 41.06V41.06Z" fill="#D0E4F1"/>
<path d="M6.37193 20.7951L1.48779 23.555L3.36219 26.8721L8.24633 24.1121L6.37193 20.7951Z" fill="#D0E4F1" stroke="#D0E4F1" stroke-miterlimit="10"/>
<path d="M11.0828 18.1378L1.48865 23.5593L3.36305 26.8764L12.9572 21.4549L11.0828 18.1378Z" fill="#D0E4F1" stroke="#D0E4F1" stroke-linecap="round" stroke-linejoin="round"/>
<path d="M18.91 23.88L19.41 22.05L23.89 23.29L23.38 25.12" fill="#D0E4F1"/>
<path d="M18.91 23.88L19.41 22.05L23.89 23.29L23.38 25.12" stroke="#D0E4F1" stroke-linecap="round" stroke-linejoin="round"/>
<path d="M20.26 22.29L20.38 21.85C20.4308 21.6672 20.5172 21.4962 20.6343 21.3469C20.7513 21.1976 20.8967 21.0729 21.0621 20.98C21.2276 20.8871 21.4097 20.8278 21.5981 20.8055C21.7865 20.7831 21.9775 20.7983 22.16 20.85V20.85C22.3428 20.9008 22.5138 20.9872 22.6631 21.1043C22.8124 21.2213 22.9371 21.3667 23.03 21.5321C23.1229 21.6975 23.1822 21.8797 23.2046 22.0681C23.2269 22.2565 23.2117 22.4475 23.16 22.63L23.04 23.07" fill="#D0E4F1"/>
<path d="M20.26 22.29L20.38 21.85C20.4308 21.6672 20.5172 21.4962 20.6343 21.3469C20.7513 21.1976 20.8967 21.0729 21.0621 20.98C21.2276 20.8871 21.4097 20.8278 21.5981 20.8055C21.7865 20.7831 21.9775 20.7983 22.16 20.85V20.85C22.3428 20.9008 22.5138 20.9872 22.6631 21.1043C22.8124 21.2213 22.9371 21.3667 23.03 21.5321C23.1229 21.6975 23.1822 21.8797 23.2046 22.0681C23.2269 22.2565 23.2117 22.4475 23.16 22.63L23.04 23.07" stroke="#D0E4F1" stroke-linecap="round" stroke-linejoin="round"/>
<path d="M4.24 24.37L3.37 22.83" stroke="#D0E4F1" stroke-linecap="round" stroke-linejoin="round"/>
<path d="M5.67001 22.97L5.14001 22.02" stroke="#D0E4F1" stroke-linecap="round" stroke-linejoin="round"/>
<path d="M7.19998 21.75L6.84998 21.11" stroke="#D0E4F1" stroke-linecap="round" stroke-linejoin="round"/>
<path d="M8.79005 20.62L8.43005 19.99" stroke="#D0E4F1" stroke-linecap="round" stroke-linejoin="round"/>
<path d="M19.93 52.44C28.6341 52.44 35.69 45.384 35.69 36.68C35.69 27.976 28.6341 20.92 19.93 20.92C11.226 20.92 4.17004 27.976 4.17004 36.68C4.17004 45.384 11.226 52.44 19.93 52.44Z" fill="white"/>
<path d="M14.0788 15.1401L4.48462 20.5616L6.35902 23.8786L15.9532 18.4571L14.0788 15.1401Z" fill="white"/>
<path d="M21.91 20.88L22.41 19.05L26.89 20.29L26.38 22.12" fill="white"/>
<path d="M23.26 19.29L23.38 18.85C23.4308 18.6672 23.5172 18.4962 23.6343 18.3469C23.7513 18.1976 23.8967 18.0729 24.0621 17.98C24.2276 17.8871 24.4097 17.8278 24.5981 17.8055C24.7865 17.7831 24.9775 17.7983 25.16 17.85C25.3428 17.9008 25.5138 17.9872 25.6631 18.1043C25.8124 18.2213 25.9371 18.3667 26.03 18.5321C26.1229 18.6975 26.1822 18.8797 26.2046 19.0681C26.2269 19.2565 26.2117 19.4475 26.16 19.63L26.04 20.07" fill="white"/>
<path d="M10.16 24.11L9.21997 22.45L13.26 20.17L14.2 21.82" fill="#D0E4F1"/>
<path d="M10.16 24.11L9.21997 22.45L13.26 20.17L14.2 21.82" stroke="#3F555A" stroke-linecap="round" stroke-linejoin="round"/>
<path d="M19.93 24.29C18.0622 24.2905 16.2189 24.7146 14.5388 25.5304C12.8586 26.3463 11.3854 27.5325 10.23 29C12.6067 27.0922 15.6041 26.1289 18.6473 26.2949C21.6905 26.4609 24.5653 27.7446 26.7204 29.8996C28.8754 32.0547 30.1591 34.9295 30.3251 37.9727C30.4911 41.0159 29.5278 44.0133 27.62 46.39C29.6333 44.7933 31.1 42.6097 31.8165 40.142C32.533 37.6743 32.4639 35.0448 31.6187 32.6182C30.7736 30.1915 29.1943 28.088 27.0998 26.5993C25.0054 25.1106 22.4996 24.3105 19.93 24.31V24.29Z" fill="#D0E4F1"/>
<path d="M21.93 50.43C18.9333 50.4328 15.998 49.5807 13.4687 47.9736C10.9393 46.3665 8.921 44.0711 7.65058 41.3571C6.38016 38.643 5.91039 35.6228 6.29643 32.6511C6.68247 29.6793 7.90829 26.8794 9.82999 24.58C8.14523 25.9793 6.77083 27.7146 5.79456 29.6751C4.8183 31.6356 4.26163 33.7781 4.16012 35.9658C4.0586 38.1536 4.41447 40.3384 5.20499 42.3809C5.99551 44.4233 7.2033 46.2785 8.75124 47.8278C10.2992 49.3771 12.1532 50.5866 14.1949 51.3789C16.2367 52.1713 18.4212 52.5291 20.609 52.4296C22.7969 52.3301 24.9399 51.7753 26.9012 50.8008C28.8626 49.8263 30.5991 48.4535 32 46.77C29.1768 49.1338 25.6121 50.4294 21.93 50.43V50.43Z" fill="#D0E4F1"/>
<path d="M19.93 52.44C28.6341 52.44 35.69 45.384 35.69 36.68C35.69 27.976 28.6341 20.92 19.93 20.92C11.226 20.92 4.17004 27.976 4.17004 36.68C4.17004 45.384 11.226 52.44 19.93 52.44Z" stroke="#3F555A" stroke-linecap="round" stroke-linejoin="round"/>
<path d="M19.9299 46.92C25.5853 46.92 30.1699 42.3354 30.1699 36.68C30.1699 31.0246 25.5853 26.44 19.9299 26.44C14.2745 26.44 9.68994 31.0246 9.68994 36.68C9.68994 42.3354 14.2745 46.92 19.9299 46.92Z" stroke="#3F555A" stroke-linecap="round" stroke-linejoin="round"/>
<path d="M30.8899 30.92C29.5172 28.3328 27.2808 26.3087 24.5699 25.2" stroke="#3F555A" stroke-linecap="round" stroke-linejoin="round"/>
<path d="M15.83 48.28C17.7313 48.9369 19.7638 49.1222 21.7525 48.8198C23.7413 48.5175 25.6269 47.7366 27.2471 46.5443C28.8673 45.352 30.1737 43.784 31.0539 41.9751C31.934 40.1663 32.3616 38.1707 32.3 36.16" stroke="#3F555A" stroke-linecap="round" stroke-linejoin="round"/>
<path d="M22.65 24.6C13.65 22.6 5.44998 31.35 8.03998 40.16" stroke="#3F555A" stroke-linecap="round" stroke-linejoin="round"/>
<path d="M21.11 38.06L13.84 42.53C13.7371 42.5875 13.6175 42.6075 13.5015 42.5868C13.3855 42.5661 13.2803 42.5058 13.2037 42.4162C13.1271 42.3267 13.0839 42.2134 13.0814 42.0956C13.0789 41.9778 13.1173 41.8627 13.19 41.77L18.73 35.28C18.8831 35.0815 19.075 34.9162 19.294 34.7941C19.513 34.6721 19.7544 34.5958 20.0038 34.5699C20.2532 34.544 20.5052 34.5691 20.7446 34.6436C20.9839 34.7181 21.2057 34.8404 21.3963 35.0033C21.5869 35.1661 21.7425 35.3659 21.8535 35.5907C21.9645 35.8155 22.0287 36.0605 22.0421 36.3108C22.0556 36.5611 22.018 36.8116 21.9317 37.047C21.8454 37.2823 21.7121 37.4977 21.54 37.68C21.4167 37.8277 21.2718 37.9558 21.11 38.06Z" fill="#F56F40"/>
<path d="M9.36778 17.7974L4.48364 20.5573L6.35804 23.8743L11.2422 21.1144L9.36778 17.7974Z" fill="#D0E4F1"/>
<path d="M14.0788 15.1401L4.48462 20.5616L6.35902 23.8786L15.9532 18.4571L14.0788 15.1401Z" stroke="#3F555A" stroke-linecap="round" stroke-linejoin="round"/>
<path d="M21.91 20.88L22.41 19.05L26.89 20.29L26.38 22.12" stroke="#3F555A" stroke-linecap="round" stroke-linejoin="round"/>
<path d="M23.26 19.29L23.38 18.85C23.4308 18.6672 23.5172 18.4962 23.6343 18.3469C23.7513 18.1976 23.8967 18.0729 24.0621 17.98C24.2276 17.8871 24.4097 17.8278 24.5981 17.8055C24.7865 17.7831 24.9775 17.7983 25.16 17.85C25.3428 17.9008 25.5138 17.9872 25.6631 18.1043C25.8124 18.2213 25.9371 18.3667 26.03 18.5321C26.1229 18.6975 26.1822 18.8797 26.2046 19.0681C26.2269 19.2565 26.2117 19.4475 26.16 19.63L26.04 20.07" stroke="#3F555A" stroke-linecap="round" stroke-linejoin="round"/>
<path d="M7.24 21.37L6.37 19.83" stroke="#3F555A" stroke-linecap="round" stroke-linejoin="round"/>
<path d="M8.67001 19.97L8.14001 19.02" stroke="#3F555A" stroke-linecap="round" stroke-linejoin="round"/>
<path d="M10.2 18.75L9.84998 18.11" stroke="#3F555A" stroke-linecap="round" stroke-linejoin="round"/>
<path d="M11.7901 17.62L11.4301 16.99" stroke="#3F555A" stroke-linecap="round" stroke-linejoin="round"/>
<path d="M13.78 88.23C14.14 85.44 14.51 82.65 14.61 79.84C14.7 77.32 14.61 74.66 15.79 72.43C15.5747 72.3383 15.3361 72.317 15.108 72.3691C14.8799 72.4212 14.6741 72.544 14.52 72.72C14.2192 73.0768 14.0038 73.4974 13.89 73.95C12.7372 77.7247 12.029 81.6211 11.78 85.56C11.63 87.56 10.33 94.56 12.11 95.7C13.53 94 13.5 90.37 13.78 88.23Z" fill="#D0E4F1"/>
<path d="M19.28 94.09C19.7046 93.4359 19.9873 92.7001 20.11 91.93C21.4 85.93 20.59 79.65 22.05 73.71C22.32 72.59 22.94 71.27 24.05 71.22C23.8801 71.0302 23.6731 70.8771 23.4418 70.7702C23.2105 70.6633 22.9599 70.6047 22.7051 70.5982C22.4504 70.5916 22.1971 70.6372 21.9606 70.7321C21.7241 70.827 21.5096 70.9692 21.33 71.15C20.6352 71.9212 20.186 72.8822 20.04 73.91C19.0932 77.9882 18.4118 82.1236 18 86.29C17.79 88.29 17.65 90.34 17.57 92.37C17.53 93.6 17.66 96.29 19.28 94.09Z" fill="#D0E4F1"/>
<path d="M28.44 79.26C28.75 77.26 29.15 74.92 30.86 73.77C30.3832 73.5755 29.8565 73.5396 29.3577 73.6674C28.8589 73.7953 28.4145 74.0802 28.09 74.48C27.4566 75.2943 27.0249 76.2469 26.83 77.26C25.3736 82.8056 24.7005 88.5278 24.83 94.26C26.566 89.4034 27.7763 84.3747 28.44 79.26V79.26Z" fill="#D0E4F1"/>
<path d="M32.48 103.55C33.128 103.11 33.6103 102.466 33.85 101.72C34.2763 100.882 34.6115 99.9999 34.85 99.09C34.9498 98.2078 35.1204 97.335 35.36 96.48C35.5753 95.9308 35.9178 95.4406 36.3593 95.0494C36.8008 94.6583 37.3288 94.3775 37.9 94.23C37.7079 93.9102 37.4076 93.6698 37.0536 93.5524C36.6995 93.4349 36.315 93.4483 35.97 93.59C34.59 94.07 34.03 95.69 33.65 97.1L32.9 99.9C32.7611 100.555 32.518 101.183 32.18 101.76C31.88 102.21 30.77 102.76 30.96 103.29C31.15 103.82 32.13 103.74 32.48 103.55Z" fill="#D0E4F1"/>
<path d="M8.47002 109.24C7.04002 98.45 5.89002 87.42 7.91002 76.62C7.63002 76.62 6.47002 77.84 6.24002 77.98C3.60002 85.91 3.24002 91.98 3.94002 100.64C4.33002 105.64 5.94002 111.76 6.94002 116.64C7.83002 121.18 8.57002 125.84 7.12002 130.33C7.12002 131.85 7.12002 133.39 7.12002 134.95C8.68652 135.415 10.369 135.29 11.85 134.6C11.85 134.6 10.85 127.82 10.59 125.6C10 120.18 9.20002 114.71 8.47002 109.24Z" fill="#D0E4F1"/>
<path d="M24.38 94.94C24.7355 88.6473 25.6355 82.3973 27.07 76.26C27.2186 75.3919 27.5604 74.5683 28.07 73.85C28.3273 73.495 28.6901 73.2303 29.1068 73.0938C29.5234 72.9573 29.9726 72.956 30.39 73.09C31.45 73.55 31.64 74.96 31.63 76.09C31.63 84.77 29.63 93.41 30.36 102.09C30.3481 102.308 30.3839 102.525 30.4651 102.727C30.5464 102.929 30.6709 103.111 30.83 103.26C31.19 103.51 31.83 103.15 31.65 102.76C32.37 100.6 33.01 98.29 33.73 96.13C33.9408 95.2806 34.3485 94.4927 34.92 93.83C35.2146 93.5084 35.6103 93.2974 36.0415 93.2319C36.4726 93.1664 36.9132 93.2504 37.29 93.47C37.622 93.7453 37.8626 94.1149 37.98 94.53C38.1966 95.2605 38.3077 96.0181 38.31 96.78C38.5425 102.825 37.2965 108.836 34.68 114.29C33.07 117.63 30.97 120.71 29.3 124.01C27.7757 127.339 27.1945 131.023 27.62 134.66" stroke="#3F555A" stroke-linecap="round" stroke-linejoin="round"/>
<path d="M25 87.53V79.38C25 77.08 25.87 73.14 24.46 71.14C23.05 69.14 21.09 70.85 20.46 72.45C19.46 74.79 19.4 77.35 19.02 79.82C18.4215 84.2183 18.0444 88.6439 17.89 93.08C17.89 93.87 17.7 94.81 16.98 95.08C17.28 94.94 16.79 90.7 16.79 90.19C16.79 87.45 17.04 84.56 17.23 81.77C17.42 78.98 17.8 75.93 16.85 73.23C16.79 72.9939 16.675 72.7754 16.5142 72.5924C16.3534 72.4094 16.1514 72.2671 15.925 72.1773C15.6986 72.0875 15.454 72.0527 15.2115 72.0758C14.969 72.0989 14.7354 72.1791 14.53 72.31C13.23 73.08 13.12 75 12.91 76.31C11.9053 82.7062 11.4436 89.1759 11.53 95.65" stroke="#3F555A" stroke-linecap="round" stroke-linejoin="round"/>
<path d="M11.44 95.44C11.6 95.71 11.15 96.02 10.87 95.86C10.7453 95.7614 10.6433 95.6371 10.5709 95.4956C10.4984 95.3542 10.4572 95.1988 10.45 95.04C9.58946 90.2006 9.30415 85.2764 9.59997 80.37C9.65997 79.31 9.70997 77.81 8.71997 77.13C7.31997 76.13 6.10997 77.91 5.71997 79.06C4.42498 82.8037 3.70021 86.7208 3.56997 90.68C3.14997 100.87 5.56997 111.05 7.56997 120.98C8.34997 124.92 7.70997 130.64 7.44997 134.65" stroke="#3F555A" stroke-linecap="round" stroke-linejoin="round"/>
</svg>
