<?xml version="1.0" encoding="UTF-8"?>
<svg width="565px" height="303px" viewBox="0 0 565 303" version="1.1" xmlns="http://www.w3.org/2000/svg" xmlns:xlink="http://www.w3.org/1999/xlink">
    <!-- Generator: Sketch 51.3 (57544) - http://www.bohemiancoding.com/sketch -->
    <title>home-illustration-3</title>
    <desc>Created with Sketch.</desc>
    <defs></defs>
    <g id="Symbols" stroke="none" stroke-width="1" fill="none" fill-rule="evenodd">
        <g id="illustrations/home-illustration-2" transform="translate(0.000000, -70.000000)" fill-rule="nonzero">
            <g id="home-illustration-3" transform="translate(0.000000, 70.000000)">
                <path d="M458.150684,172.251727 C458.150684,172.251727 576.898722,173.12706 564.023935,239.7774 C556.649057,278.41709 480.275319,277.9169 480.275319,277.9169 L58.0322955,277.9169 C58.0322955,277.9169 5.65816088,278.41709 0.658243497,239.7774 C-8.09161193,173.12706 73.2820435,172.251727 73.2820435,172.251727 C73.2820435,172.251727 89.531775,178.254009 87.7818039,153.619643 C86.1568308,129.110325 73.2820435,135.612797 73.2820435,135.612797 C73.2820435,135.612797 16.6579791,146.742029 23.7828614,95.8476792 C30.9077437,45.0783773 107.156484,81.0920693 122.781226,69.9628381 C130.906091,64.2106511 134.406034,54.8320855 136.031007,47.0791379 C133.40605,43.4527592 132.156071,38.9510477 133.031056,33.0738132 C135.656013,15.6922049 169.530453,13.4413492 169.530453,13.4413492 L357.277351,0.0612622229 C357.277351,0.0612622229 380.526967,-1.8144509 383.401919,15.1920148 C386.276872,32.0734329 375.527049,40.2015231 365.902208,44.0779969 C367.777177,52.3311347 372.652097,63.4603659 386.026876,69.9628381 C408.901498,81.0920693 519.899664,44.9533297 530.39949,95.8476792 C540.774319,146.616981 458.275682,135.612797 458.275682,135.612797 C458.275682,135.612797 439.525992,129.110325 437.026033,153.619643 C434.526075,178.254009 458.150684,172.251727 458.150684,172.251727 Z" id="Shape" fill="#A9D7F3" opacity="0.5"></path>
                <g id="Group" transform="translate(70.124113, 41.135762)">
                    <g transform="translate(312.700345, 156.814257)" id="Shape">
                        <path d="M68.5439155,81.9197677 C68.4188354,82.7979275 68.4188354,83.8015388 68.4188354,84.6796986 C68.4188354,91.2031717 69.9197971,96.4721307 76.4239642,96.4721307 L125.455378,96.4721307 C124.329657,93.3358456 123.704256,90.1995604 123.579176,86.9378239 C104.817156,87.8159837 86.180215,89.6977548 68.5439155,81.9197677 Z" fill="#D0E4F0"></path>
                        <path d="M125.330298,73.0127179 L76.2988841,73.0127179 C70.795358,73.0127179 68.9191559,76.7762601 68.4188354,81.9197677 C86.0551348,89.6977548 104.692075,87.8159837 123.329016,86.9378239 C123.329016,86.0596641 123.203936,85.1815042 123.203936,84.3033444 C123.203936,80.5398022 123.954417,76.6508087 125.330298,73.0127179 Z" fill="#FFFFFF"></path>
                        <path d="M115.949288,51.9368818 C116.074368,48.9260481 116.699769,46.0406658 117.82549,43.2807348 L68.7940758,43.2807348 C63.2905497,43.2807348 61.4143477,47.1697284 60.9140271,52.313236 C79.1757273,54.0695557 97.5625075,52.940493 115.949288,51.9368818 Z" fill="#FFFFFF"></path>
                        <path d="M61.0391073,52.313236 C60.9140271,53.1913959 60.9140271,54.0695557 60.9140271,55.0731669 C60.9140271,61.59664 62.4149888,66.865599 68.9191559,66.865599 L117.95057,66.865599 C116.574688,62.9766055 115.949288,58.8367091 115.949288,54.6968127 C115.949288,53.8186529 115.949288,52.940493 116.074368,52.0623332 C97.5625075,52.940493 79.1757273,54.0695557 61.0391073,52.313236 Z" fill="#D0E4F0"></path>
                        <path d="M64.9165915,21.4521903 C64.7915114,22.7067044 64.6664313,23.9612184 64.6664313,25.2157325 C64.6664313,31.7392055 66.1673929,37.0081646 72.6715601,37.0081646 L121.702974,37.0081646 C120.577253,33.9973308 119.951852,30.7355943 119.826772,27.5993092 C100.814591,28.7283718 82.0525704,28.477469 64.9165915,21.4521903 Z" fill="#D0E4F0"></path>
                        <path d="M121.577894,13.5487518 L72.5464799,13.5487518 C67.4181943,13.5487518 65.4169121,16.9359397 64.7915114,21.4521903 C81.9274903,28.477469 100.689511,28.7283718 119.576612,27.4738578 C119.576612,26.5956979 119.451532,25.7175381 119.451532,24.7139268 C119.451532,20.9503847 120.202012,17.1868425 121.577894,13.5487518 Z" fill="#FFFFFF"></path>
                        <path d="M107.068598,19.194065 L100.939671,19.194065 C100.564431,19.194065 100.314271,18.9431622 100.314271,18.566808 C100.314271,18.1904538 100.564431,17.939551 100.939671,17.939551 L107.068598,17.939551 C107.443838,17.939551 107.693999,18.1904538 107.693999,18.566808 C107.693999,18.9431622 107.443838,19.194065 107.068598,19.194065 Z" fill="#D0E4F0"></path>
                        <path d="M109.32004,24.2121212 L101.940312,24.2121212 C101.565072,24.2121212 101.314912,23.9612184 101.314912,23.5848642 C101.314912,23.20851 101.565072,22.9576072 101.940312,22.9576072 L109.32004,22.9576072 C109.695281,22.9576072 109.945441,23.20851 109.945441,23.5848642 C109.945441,23.9612184 109.695281,24.2121212 109.32004,24.2121212 Z" fill="#D0E4F0"></path>
                        <path d="M91.9339013,20.8249333 L76.1738039,20.8249333 C75.7985635,20.8249333 75.5484033,20.5740305 75.5484033,20.1976763 C75.5484033,19.821322 75.7985635,19.5704192 76.1738039,19.5704192 L91.9339013,19.5704192 C92.3091417,19.5704192 92.559302,19.821322 92.559302,20.1976763 C92.559302,20.5740305 92.3091417,20.8249333 91.9339013,20.8249333 Z" fill="#D0E4F0"></path>
                        <path d="M95.5612253,25.0902811 L89.6824588,25.0902811 C89.3072184,25.0902811 89.0570581,24.8393783 89.0570581,24.463024 C89.0570581,24.0866698 89.3072184,23.835767 89.6824588,23.835767 L95.5612253,23.835767 C95.9364657,23.835767 96.186626,24.0866698 96.186626,24.463024 C96.186626,24.8393783 95.9364657,25.0902811 95.5612253,25.0902811 Z" fill="#D0E4F0"></path>
                        <path d="M119.326451,21.5776417 L115.198807,21.5776417 C114.823567,21.5776417 114.573406,21.3267389 114.573406,20.9503847 C114.573406,20.5740305 114.823567,20.3231277 115.198807,20.3231277 L119.326451,20.3231277 C119.701692,20.3231277 119.951852,20.5740305 119.951852,20.9503847 C119.951852,21.3267389 119.701692,21.5776417 119.326451,21.5776417 Z" fill="#D0E4F0"></path>
                        <path d="M80.801769,25.3411839 L67.7934347,25.3411839 C67.4181943,25.3411839 67.168034,25.0902811 67.168034,24.7139268 C67.168034,24.3375726 67.4181943,24.0866698 67.7934347,24.0866698 L80.801769,24.0866698 C81.1770095,24.0866698 81.4271697,24.3375726 81.4271697,24.7139268 C81.4271697,25.0902811 81.1770095,25.3411839 80.801769,25.3411839 Z" fill="#D0E4F0"></path>
                        <path d="M125.330298,97.2248391 L76.2988841,97.2248391 C68.5439155,97.2248391 67.6683546,90.074109 67.6683546,84.80515 C67.6683546,79.536191 68.5439155,72.3854609 76.2988841,72.3854609 L125.330298,72.3854609 C125.580458,72.3854609 125.705539,72.5109123 125.830619,72.6363637 C125.955699,72.7618151 125.955699,73.0127179 125.955699,73.2636207 C124.579817,77.0271629 123.829336,80.6652536 123.954417,84.4287958 C123.954417,88.6941436 124.579817,92.7085885 125.955699,96.3466793 C126.080779,96.5975821 125.955699,96.7230335 125.830619,96.9739363 C125.705539,97.2248391 125.580458,97.2248391 125.330298,97.2248391 Z M76.2988841,73.6399749 C71.1705984,73.6399749 68.9191559,77.0271629 68.9191559,84.80515 C68.9191559,92.5831371 71.1705984,95.9703251 76.2988841,95.9703251 L124.454737,95.9703251 C123.329016,92.3322343 122.703615,88.4432408 122.703615,84.4287958 C122.578535,80.790705 123.203936,77.2780657 124.454737,73.6399749 L76.2988841,73.6399749 Z" fill="#40565B"></path>
                        <path d="M69.6696368,77.1526143 C70.795358,74.5181348 73.547121,72.7618151 76.4239642,73.0127179 L127.831901,73.0127179 C128.582382,73.0127179 129.082702,72.5109123 129.082702,71.7582038 C129.082702,71.0054954 128.582382,70.5036898 127.831901,70.5036898 L19.012181,70.5036898 C14.8845364,70.252787 11.1321323,72.7618151 9.88133089,76.6508087 C29.7690728,77.0271629 49.6568147,77.1526143 69.6696368,77.1526143 Z" fill="#C84A27"></path>
                        <path d="M127.706821,96.5975821 L76.2988841,96.5975821 C70.2950375,96.5975821 68.6689957,92.0813315 68.4188354,86.3105669 C48.4060133,86.5614697 28.5182714,86.8123725 8.50544937,86.6869211 C8.88068979,93.7121998 11.6324528,99.1066102 18.8871008,99.1066102 L127.706821,99.1066102 C128.457302,99.1066102 128.957622,98.6048046 128.957622,97.8520962 C128.957622,97.0993877 128.457302,96.5975821 127.706821,96.5975821 Z" fill="#C84A27"></path>
                        <path d="M68.4188354,86.1851155 C68.4188354,85.6833098 68.4188354,85.1815042 68.4188354,84.80515 C68.2937553,82.1706705 68.7940758,79.6616424 69.6696368,77.1526143 C49.6568147,77.1526143 29.7690728,77.0271629 9.75625075,76.6508087 C8.88068979,79.2852882 8.38036924,82.0452191 8.50544937,84.6796986 C8.50544937,85.3069556 8.50544937,85.9342126 8.50544937,86.4360183 C28.5182714,86.8123725 48.5310935,86.4360183 68.4188354,86.1851155 Z" fill="#F36F42"></path>
                        <path d="M63.1654696,45.7897629 C64.5413511,44.0334433 66.6677135,43.1552834 68.9191559,43.2807348 L111.696563,43.2807348 L121.452814,42.5280264 C121.577894,42.402575 121.577894,42.1516722 121.577894,42.0262208 C121.577894,41.2735124 121.077573,40.7717067 120.327093,40.7717067 L11.5073727,40.7717067 C8.2552891,40.5208039 5.00320551,42.1516722 3.25208358,45.0370545 C23.2649056,46.2915686 43.2777277,46.2915686 63.1654696,45.7897629 Z" fill="#FAAC30"></path>
                        <path d="M112.822284,43.2807348 L120.202012,43.2807348 C120.702333,43.2807348 121.077573,43.029832 121.327734,42.5280264 L111.571483,43.2807348 L112.822284,43.2807348 Z" fill="#1785C8"></path>
                        <path d="M120.202012,66.7401476 L68.7940758,66.7401476 C63.6657902,66.7401476 61.664508,63.4784111 61.0391073,58.9621605 C41.0262852,58.7112577 21.0134632,58.3349035 1.0006411,57.8330979 C1.62604179,64.3565709 4.50288496,69.2491757 11.3822925,69.2491757 L120.202012,69.2491757 C120.952493,69.2491757 121.452814,68.7473701 121.452814,67.9946617 C121.452814,67.2419533 120.952493,66.7401476 120.202012,66.7401476 Z" fill="#FAAC30"></path>
                        <path d="M60.9140271,55.0731669 C60.9140271,51.3096248 61.4143477,47.9224368 63.1654696,45.7897629 C43.2777277,46.2915686 23.2649056,46.1661172 3.25208358,45.0370545 C1.62604179,48.1733396 0.875560965,51.5605276 1.0006411,55.0731669 C1.0006411,56.0767782 1.0006411,56.954938 1.12572124,57.8330979 C21.1385433,58.2094521 41.1513653,58.5858063 61.1641874,58.9621605 C61.0391073,57.7076465 60.9140271,56.327681 60.9140271,55.0731669 Z" fill="#FFDC64"></path>
                        <path d="M64.7915114,22.3303501 C65.291832,17.3122939 67.168034,13.5487518 72.5464799,13.5487518 L123.954417,13.5487518 C124.704897,13.5487518 125.205218,13.0469462 125.205218,12.2942377 C125.205218,11.5415293 124.704897,11.0397237 123.954417,11.0397237 L15.1346967,11.0397237 C8.50544937,11.0397237 5.6286062,15.5559743 4.87812538,21.7030931 C25.0160276,22.2048987 44.9037695,22.4558016 64.7915114,22.3303501 Z" fill="#8FD1BE"></path>
                        <path d="M123.954417,37.0081646 L72.5464799,37.0081646 C66.0423128,37.0081646 64.5413511,31.7392055 64.5413511,25.2157325 C64.5413511,24.2121212 64.5413511,23.20851 64.6664313,22.2048987 C44.7786893,22.2048987 24.8909474,22.2048987 4.75304524,21.5776417 C4.6279651,22.8321558 4.50288496,23.9612184 4.50288496,25.2157325 C4.50288496,33.119171 7.12956786,39.5171927 15.0096165,39.5171927 L123.829336,39.5171927 C124.579817,39.5171927 125.080138,39.0153871 125.080138,38.2626786 C125.080138,37.5099702 124.704897,37.0081646 123.954417,37.0081646 Z" fill="#29B99A"></path>
                        <path d="M127.831901,99.7338672 L19.012181,99.7338672 C11.757533,99.7338672 7.88004868,94.5903596 7.88004868,84.80515 C7.88004868,75.0199404 11.757533,69.8764328 19.012181,69.8764328 L127.831901,69.8764328 C128.957622,69.8764328 129.708103,70.6291412 129.708103,71.7582038 C129.708103,72.8872665 128.957622,73.6399749 127.831901,73.6399749 L76.4239642,73.6399749 C71.2956786,73.6399749 69.0442361,77.0271629 69.0442361,84.80515 C69.0442361,92.5831371 71.2956786,95.9703251 76.4239642,95.9703251 L127.831901,95.9703251 C128.957622,95.9703251 129.708103,96.7230335 129.708103,97.8520962 C129.708103,98.9811588 128.957622,99.7338672 127.831901,99.7338672 Z M19.012181,71.1309468 C12.5080138,71.1309468 9.13085006,75.7726488 9.13085006,84.80515 C9.13085006,93.8376512 12.5080138,98.4793532 19.012181,98.4793532 L127.831901,98.4793532 C128.207141,98.4793532 128.457302,98.2284504 128.457302,97.8520962 C128.457302,97.4757419 128.207141,97.2248391 127.831901,97.2248391 L76.4239642,97.2248391 C68.6689957,97.2248391 67.7934347,90.074109 67.7934347,84.80515 C67.7934347,79.536191 68.6689957,72.3854609 76.4239642,72.3854609 L127.831901,72.3854609 C128.207141,72.3854609 128.457302,72.1345581 128.457302,71.7582038 C128.457302,71.3818496 128.207141,71.1309468 127.831901,71.1309468 L19.012181,71.1309468 Z" fill="#C84A27"></path>
                        <path d="M22.7645851,99.7338672 C15.5099371,99.7338672 11.6324528,94.5903596 11.6324528,84.80515 C11.6324528,75.0199404 15.5099371,69.8764328 22.7645851,69.8764328 C23.1398255,69.8764328 23.3899858,70.1273356 23.3899858,70.5036898 C23.3899858,70.880044 23.1398255,71.1309468 22.7645851,71.1309468 C16.2604179,71.1309468 12.8832542,75.7726488 12.8832542,84.80515 C12.8832542,93.8376512 16.2604179,98.4793532 22.7645851,98.4793532 C23.1398255,98.4793532 23.3899858,98.730256 23.3899858,99.1066102 C23.3899858,99.4829644 23.1398255,99.7338672 22.7645851,99.7338672 Z" fill="#C84A27"></path>
                        <path d="M71.5458388,99.7338672 C64.2911908,99.7338672 60.4137066,94.5903596 60.4137066,84.80515 C60.4137066,75.0199404 64.2911908,69.8764328 71.5458388,69.8764328 C71.9210793,69.8764328 72.1712395,70.1273356 72.1712395,70.5036898 C72.1712395,70.880044 71.9210793,71.1309468 71.5458388,71.1309468 C65.0416717,71.1309468 61.664508,75.7726488 61.664508,84.80515 C61.664508,93.8376512 65.0416717,98.4793532 71.5458388,98.4793532 C71.9210793,98.4793532 72.1712395,98.730256 72.1712395,99.1066102 C72.1712395,99.4829644 71.9210793,99.7338672 71.5458388,99.7338672 Z" fill="#C84A27"></path>
                        <path d="M117.82549,67.4928561 L68.7940758,67.4928561 C61.0391073,67.4928561 60.1635463,60.4675774 60.1635463,55.0731669 C60.1635463,49.6787565 61.0391073,42.6534778 68.7940758,42.6534778 L117.82549,42.6534778 C118.07565,42.6534778 118.20073,42.7789292 118.32581,42.9043806 C118.450891,43.029832 118.450891,43.2807348 118.450891,43.5316376 C117.075009,47.2951798 116.324528,50.9332706 116.449608,54.6968127 C116.449608,58.9621605 117.075009,62.9766055 118.450891,66.6146962 C118.575971,66.865599 118.450891,66.9910504 118.32581,67.2419533 C118.20073,67.4928561 118.07565,67.4928561 117.82549,67.4928561 Z M68.7940758,43.9079919 C63.6657902,43.9079919 61.4143477,47.2951798 61.4143477,55.0731669 C61.4143477,62.8511541 63.6657902,66.238342 68.7940758,66.238342 L116.949929,66.238342 C115.824208,62.6002513 115.198807,58.7112577 115.198807,54.6968127 C115.073727,51.058722 115.699127,47.5460826 116.949929,43.9079919 L68.7940758,43.9079919 Z" fill="#40565B"></path>
                        <path d="M120.327093,70.0018842 L11.5073727,70.0018842 C4.25272469,70.0018842 0.375240414,64.8583766 0.375240414,55.0731669 C0.375240414,45.2879573 4.25272469,40.1444497 11.5073727,40.1444497 L120.327093,40.1444497 C121.452814,40.1444497 122.203295,40.8971581 122.203295,42.0262208 C122.203295,43.1552834 121.452814,43.9079919 120.327093,43.9079919 L68.9191559,43.9079919 C63.7908703,43.9079919 61.5394278,47.2951798 61.5394278,55.0731669 C61.5394278,62.8511541 63.7908703,66.238342 68.9191559,66.238342 L120.327093,66.238342 C121.452814,66.238342 122.203295,66.9910504 122.203295,68.1201131 C122.203295,69.2491757 121.452814,70.0018842 120.327093,70.0018842 Z M11.5073727,41.3989638 C5.00320551,41.3989638 1.62604179,46.0406658 1.62604179,55.0731669 C1.62604179,64.1056681 5.00320551,68.7473701 11.5073727,68.7473701 L120.327093,68.7473701 C120.702333,68.7473701 120.952493,68.4964673 120.952493,68.1201131 C120.952493,67.7437589 120.702333,67.4928561 120.327093,67.4928561 L68.9191559,67.4928561 C61.1641874,67.4928561 60.2886264,60.4675774 60.2886264,55.0731669 C60.2886264,49.6787565 61.1641874,42.6534778 68.9191559,42.6534778 L120.327093,42.6534778 C120.702333,42.6534778 120.952493,42.402575 120.952493,42.0262208 C120.952493,41.6498666 120.702333,41.3989638 120.327093,41.3989638 L11.5073727,41.3989638 Z" fill="#F26F42"></path>
                        <path d="M15.2597768,69.8764328 C8.00512882,69.8764328 4.12764455,64.7329251 4.12764455,54.9477155 C4.12764455,45.1625059 8.00512882,40.0189983 15.2597768,40.0189983 L15.2597768,41.2735124 C8.75560965,41.2735124 5.37844593,45.9152143 5.37844593,54.9477155 C5.37844593,63.9802167 8.75560965,68.6219187 15.2597768,68.6219187 L15.2597768,69.8764328 Z" fill="#F26F42"></path>
                        <path d="M64.0410306,69.8764328 C56.7863826,69.8764328 52.9088983,64.7329251 52.9088983,54.9477155 C52.9088983,45.1625059 56.7863826,40.0189983 64.0410306,40.0189983 L64.0410306,41.2735124 C57.5368634,41.2735124 54.1596997,45.9152143 54.1596997,54.9477155 C54.1596997,63.9802167 57.5368634,68.6219187 64.0410306,68.6219187 L64.0410306,69.8764328 Z" fill="#F26F42"></path>
                        <path d="M121.577894,37.760873 L72.5464799,37.760873 C64.7915114,37.760873 63.9159504,30.7355943 63.9159504,25.3411839 C63.9159504,19.9467734 64.7915114,12.9214947 72.5464799,12.9214947 L121.577894,12.9214947 C121.828054,12.9214947 121.953134,13.0469462 122.078215,13.1723976 C122.203295,13.297849 122.203295,13.5487518 122.203295,13.7996546 C120.827413,17.5631967 120.076932,21.2012875 120.202012,24.9648297 C120.202012,29.2301774 120.827413,33.2446224 122.203295,36.8827132 C122.328375,37.133616 122.203295,37.2590674 122.078215,37.5099702 C121.953134,37.760873 121.828054,37.760873 121.577894,37.760873 Z M72.5464799,14.1760088 C67.4181943,14.1760088 65.1667518,17.5631967 65.1667518,25.3411839 C65.1667518,33.119171 67.4181943,36.506359 72.5464799,36.506359 L120.702333,36.506359 C119.576612,32.8682682 118.951211,28.9792746 118.951211,24.9648297 C118.826131,21.3267389 119.451532,17.8140996 120.702333,14.1760088 L72.5464799,14.1760088 Z" fill="#40565B"></path>
                        <path d="M124.079497,40.2699011 L15.2597768,40.2699011 C8.00512882,40.2699011 4.12764455,35.1263935 4.12764455,25.3411839 C4.12764455,15.5559743 8.00512882,10.4124666 15.2597768,10.4124666 L124.079497,10.4124666 C125.205218,10.4124666 125.955699,11.1651751 125.955699,12.2942377 C125.955699,13.4233004 125.205218,14.1760088 124.079497,14.1760088 L72.6715601,14.1760088 C67.5432744,14.1760088 65.291832,17.5631967 65.291832,25.3411839 C65.291832,33.119171 67.5432744,36.506359 72.6715601,36.506359 L124.079497,36.506359 C125.205218,36.506359 125.955699,37.2590674 125.955699,38.38813 C125.955699,39.5171927 125.205218,40.2699011 124.079497,40.2699011 Z M15.2597768,11.6669807 C8.75560965,11.6669807 5.37844593,16.3086827 5.37844593,25.3411839 C5.37844593,34.3736851 8.75560965,39.0153871 15.2597768,39.0153871 L124.079497,39.0153871 C124.454737,39.0153871 124.704897,38.7644842 124.704897,38.38813 C124.704897,38.0117758 124.454737,37.760873 124.079497,37.760873 L72.6715601,37.760873 C64.9165915,37.760873 64.0410306,30.7355943 64.0410306,25.3411839 C64.0410306,19.9467734 64.9165915,12.9214947 72.6715601,12.9214947 L124.079497,12.9214947 C124.454737,12.9214947 124.704897,12.6705919 124.704897,12.2942377 C124.704897,11.9178835 124.454737,11.6669807 124.079497,11.6669807 L15.2597768,11.6669807 Z" fill="#40565B"></path>
                        <path d="M19.012181,40.1444497 C11.757533,40.1444497 7.88004868,35.0009421 7.88004868,25.2157325 C7.88004868,15.4305229 11.757533,10.2870152 19.012181,10.2870152 C19.3874214,10.2870152 19.6375816,10.537918 19.6375816,10.9142723 C19.6375816,11.2906265 19.3874214,11.5415293 19.012181,11.5415293 C12.5080138,11.5415293 9.13085006,16.1832313 9.13085006,25.2157325 C9.13085006,34.2482337 12.5080138,38.8899357 19.012181,38.8899357 C19.3874214,38.8899357 19.6375816,39.1408385 19.6375816,39.5171927 C19.6375816,39.8935469 19.3874214,40.1444497 19.012181,40.1444497 Z" fill="#40565B"></path>
                        <path d="M67.7934347,40.1444497 C60.5387867,40.1444497 56.6613024,35.0009421 56.6613024,25.2157325 C56.6613024,15.4305229 60.5387867,10.2870152 67.7934347,10.2870152 C68.1686751,10.2870152 68.4188354,10.537918 68.4188354,10.9142723 C68.4188354,11.2906265 68.1686751,11.5415293 67.7934347,11.5415293 C61.2892675,11.5415293 57.9121038,16.1832313 57.9121038,25.2157325 C57.9121038,34.2482337 61.2892675,38.8899357 67.7934347,38.8899357 C68.1686751,38.8899357 68.4188354,39.1408385 68.4188354,39.5171927 C68.4188354,39.8935469 68.1686751,40.1444497 67.7934347,40.1444497 Z" fill="#40565B"></path>
                        <path d="M65.7921525,4.26534778 C65.9172326,3.63809075 66.2924731,3.01083373 66.7927936,2.50902811 L12.1327734,2.50902811 C10.1314912,2.50902811 8.50544937,4.13989638 8.50544937,6.14711886 C8.50544937,8.15434135 10.1314912,9.78520962 12.1327734,9.78520962 L66.1673929,9.78520962 C64.9165915,8.15434135 64.7915114,6.02166746 65.7921525,4.26534778 Z" fill="#D0E4F0"></path>
                        <path d="M119.326451,6.14711886 C119.326451,5.77076465 119.326451,5.51986183 119.451532,5.14350762 C101.690152,4.7671534 83.9287725,10.0361124 66.1673929,4.89260481 C65.7921525,4.89260481 65.6670724,4.641702 65.6670724,4.26534778 C64.6664313,6.02166746 64.9165915,8.15434135 66.1673929,9.78520962 L120.952493,9.78520962 C120.076932,8.78159837 119.451532,7.52708432 119.326451,6.14711886 Z" fill="#FFFFFF"></path>
                        <path d="M66.1673929,4.89260481 C83.9287725,10.1615638 101.690152,4.89260481 119.451532,5.14350762 C119.701692,4.13989638 120.202012,3.26173654 120.952493,2.50902811 L66.7927936,2.50902811 C65.6670724,3.63809075 65.291832,4.89260481 66.1673929,4.89260481 Z" fill="#D0E4F0"></path>
                        <path d="M11.6324528,10.4124666 C10.881972,10.4124666 10.1314912,10.1615638 9.38101034,9.65975821 C8.50544937,9.03250118 8.00512882,8.02888994 7.88004868,7.0252787 L7.88004868,6.27257027 C7.75496855,5.26895902 8.00512882,4.26534778 8.63052951,3.51263935 C9.2559302,2.63447951 10.2565713,2.13267389 11.2572124,2.00722249 L12.1327734,2.00722249 L120.952493,2.00722249 C121.202654,2.00722249 121.452814,2.13267389 121.577894,2.3835767 C121.702974,2.63447951 121.577894,2.88538232 121.452814,3.01083373 C120.577253,3.76354216 120.076932,4.89260481 120.076932,6.02166746 C120.076932,7.1507301 120.452173,8.27979275 121.202654,9.15795259 C121.202654,9.15795259 121.327734,9.28340399 121.327734,9.28340399 C121.452814,9.4088554 121.577894,9.5343068 121.577894,9.78520962 C121.577894,10.1615638 121.327734,10.4124666 120.952493,10.4124666 L12.1327734,10.4124666 C12.0076932,10.4124666 11.757533,10.4124666 11.6324528,10.4124666 Z M11.3822925,3.13628513 C10.7568919,3.26173654 10.006411,3.63809075 9.63117061,4.13989638 C9.2559302,4.641702 9.00576992,5.39441043 9.13085006,6.02166746 C9.13085006,6.02166746 9.13085006,6.02166746 9.13085006,6.14711886 L9.13085006,6.89982729 C9.2559302,7.52708432 9.63117061,8.27979275 10.1314912,8.65614697 C10.6318117,9.03250118 11.3822925,9.28340399 12.0076932,9.15795259 L119.576612,9.15795259 C118.951211,8.15434135 118.701051,7.1507301 118.701051,5.89621605 C118.701051,4.89260481 119.076291,3.88899357 119.576612,3.13628513 L11.3822925,3.13628513 Z" fill="#40565B"></path>
                        <path d="M11.6324528,10.4124666 C10.881972,10.4124666 10.006411,10.1615638 9.2559302,9.65975821 C8.38036924,9.03250118 7.88004868,8.15434135 7.62988841,7.1507301 L7.62988841,6.14711886 C7.50480827,5.26895902 7.75496855,4.26534778 8.50544937,3.38718794 C9.13085006,2.63447951 10.1314912,2.00722249 11.1321323,1.88177108 L12.1327734,1.88177108 L122.953775,1.88177108 C123.329016,1.88177108 123.579176,2.13267389 123.579176,2.50902811 C123.579176,2.88538232 123.329016,3.13628513 122.953775,3.13628513 L11.2572124,3.13628513 C10.6318117,3.26173654 10.006411,3.63809075 9.50609048,4.13989638 C9.00576992,4.641702 8.88068979,5.39441043 9.00576992,6.02166746 L9.00576992,7.0252787 C9.13085006,7.65253572 9.50609048,8.27979275 10.006411,8.65614697 C10.6318117,9.03250118 11.2572124,9.28340399 12.0076932,9.15795259 L122.953775,9.15795259 C123.329016,9.15795259 123.579176,9.4088554 123.579176,9.78520962 C123.579176,10.1615638 123.329016,10.4124666 122.953775,10.4124666 L12.1327734,10.4124666 C12.0076932,10.4124666 11.757533,10.4124666 11.6324528,10.4124666 Z" fill="#40565B"></path>
                        <path d="M15.8851775,10.4124666 C13.1334145,10.4124666 11.6324528,8.65614697 11.6324528,5.51986183 C11.6324528,2.3835767 13.1334145,0.627257027 15.8851775,0.627257027 C16.2604179,0.627257027 16.5105782,0.878159837 16.5105782,1.25451405 C16.5105782,1.63086827 16.2604179,1.88177108 15.8851775,1.88177108 C13.8838953,1.88177108 12.8832542,3.13628513 12.8832542,5.51986183 C12.8832542,8.78159837 14.6343761,9.15795259 15.8851775,9.15795259 C16.2604179,9.15795259 16.5105782,9.4088554 16.5105782,9.78520962 C16.5105782,10.1615638 16.2604179,10.4124666 15.8851775,10.4124666 Z" fill="#40565B"></path>
                        <path d="M16.0102576,10.4124666 C13.2584946,10.4124666 11.6324528,8.65614697 11.6324528,5.51986183 C11.6324528,2.3835767 13.2584946,0.627257027 16.0102576,0.627257027 C16.3854981,0.627257027 16.6356583,0.878159837 16.6356583,1.25451405 C16.6356583,1.63086827 16.3854981,1.88177108 16.0102576,1.88177108 C13.8838953,1.88177108 12.8832542,3.13628513 12.8832542,5.51986183 C12.8832542,7.90343854 13.8838953,9.15795259 16.0102576,9.15795259 C16.3854981,9.15795259 16.6356583,9.4088554 16.6356583,9.78520962 C16.6356583,10.1615638 16.3854981,10.4124666 16.0102576,10.4124666 Z" fill="#40565B"></path>
                        <path d="M15.8851775,10.4124666 C13.1334145,10.4124666 11.6324528,8.65614697 11.6324528,5.51986183 C11.5073727,3.01083373 13.2584946,0.878159837 15.7600974,0.627257027 C15.7600974,0.627257027 15.7600974,0.627257027 15.7600974,0.627257027 C18.3867803,0.627257027 18.8871008,2.00722249 18.8871008,2.13267389 C19.012181,2.50902811 18.7620207,2.75993092 18.5118604,2.88538232 C18.13662,3.01083373 17.8864597,2.75993092 17.7613796,2.50902811 C17.7613796,2.50902811 17.3861392,1.75631967 15.8851775,1.75631967 C14.1340556,2.00722249 12.7581741,3.51263935 12.8832542,5.39441043 C12.8832542,8.65614697 14.6343761,9.03250118 15.8851775,9.03250118 C16.2604179,9.03250118 16.5105782,9.28340399 16.5105782,9.65975821 C16.5105782,10.0361124 16.2604179,10.4124666 15.8851775,10.4124666 Z" fill="#40565B"></path>
                        <path d="M18.3867803,10.4124666 C15.6350172,10.4124666 14.1340556,8.65614697 14.1340556,5.51986183 C14.0089754,3.01083373 15.7600974,0.878159837 18.2617001,0.627257027 C18.2617001,0.627257027 18.2617001,0.627257027 18.2617001,0.627257027 C20.888383,0.627257027 21.3887036,2.00722249 21.3887036,2.13267389 C21.5137837,2.50902811 21.2636234,2.75993092 21.0134632,2.88538232 C20.7633029,3.01083373 20.3880625,2.75993092 20.2629823,2.50902811 C20.2629823,2.50902811 19.8877419,1.75631967 18.3867803,1.75631967 C16.6356583,2.00722249 15.2597768,3.51263935 15.384857,5.39441043 C15.384857,8.65614697 17.1359789,9.03250118 18.3867803,9.03250118 C18.7620207,9.03250118 19.012181,9.28340399 19.012181,9.65975821 C19.012181,10.0361124 18.7620207,10.4124666 18.3867803,10.4124666 Z" fill="#40565B"></path>
                        <path d="M24.6407872,10.4124666 C21.8890241,10.4124666 20.3880625,8.65614697 20.3880625,5.51986183 C20.3880625,2.3835767 21.8890241,0.627257027 24.6407872,0.627257027 C25.0160276,0.627257027 25.2661878,0.878159837 25.2661878,1.25451405 C25.2661878,1.63086827 25.0160276,1.88177108 24.6407872,1.88177108 C22.6395049,1.88177108 21.6388638,3.13628513 21.6388638,5.51986183 C21.6388638,8.78159837 23.3899858,9.15795259 24.6407872,9.15795259 C25.0160276,9.15795259 25.2661878,9.4088554 25.2661878,9.78520962 C25.2661878,10.1615638 25.0160276,10.4124666 24.6407872,10.4124666 Z" fill="#40565B"></path>
                        <path d="M24.7658673,10.4124666 C22.0141043,10.4124666 20.3880625,8.65614697 20.3880625,5.51986183 C20.3880625,2.3835767 22.0141043,0.627257027 24.7658673,0.627257027 C25.1411077,0.627257027 25.391268,0.878159837 25.391268,1.25451405 C25.391268,1.63086827 25.1411077,1.88177108 24.7658673,1.88177108 C22.6395049,1.88177108 21.6388638,3.13628513 21.6388638,5.51986183 C21.6388638,7.90343854 22.6395049,9.15795259 24.7658673,9.15795259 C25.1411077,9.15795259 25.391268,9.4088554 25.391268,9.78520962 C25.391268,10.1615638 25.1411077,10.4124666 24.7658673,10.4124666 Z" fill="#40565B"></path>
                        <path d="M24.6407872,10.4124666 C21.8890241,10.4124666 20.3880625,8.65614697 20.3880625,5.51986183 C20.2629823,3.01083373 22.0141043,0.878159837 24.515707,0.627257027 C24.515707,0.627257027 24.515707,0.627257027 24.515707,0.627257027 C27.1423899,0.627257027 27.6427105,2.00722249 27.6427105,2.13267389 C27.7677906,2.50902811 27.5176303,2.75993092 27.26747,2.88538232 C26.8922296,3.01083373 26.6420694,2.75993092 26.5169892,2.50902811 C26.5169892,2.50902811 26.1417488,1.75631967 24.6407872,1.75631967 C22.8896652,2.00722249 21.5137837,3.51263935 21.6388638,5.39441043 C21.6388638,8.65614697 23.3899858,9.03250118 24.6407872,9.03250118 C25.0160276,9.03250118 25.2661878,9.28340399 25.2661878,9.65975821 C25.2661878,10.0361124 25.0160276,10.4124666 24.6407872,10.4124666 Z" fill="#40565B"></path>
                        <path d="M27.1423899,10.4124666 C24.3906269,10.4124666 22.8896652,8.65614697 22.8896652,5.51986183 C22.7645851,3.01083373 24.515707,0.878159837 27.0173098,0.627257027 C27.0173098,0.627257027 27.0173098,0.627257027 27.0173098,0.627257027 C29.6439927,0.627257027 30.1443132,2.00722249 30.1443132,2.13267389 C30.2693934,2.50902811 30.0192331,2.75993092 29.7690728,2.88538232 C29.3938324,3.01083373 29.1436721,2.75993092 29.018592,2.50902811 C29.018592,2.50902811 28.6433516,1.75631967 27.1423899,1.75631967 C25.391268,2.00722249 24.0153865,3.51263935 24.1404666,5.39441043 C24.1404666,8.65614697 25.8915885,9.03250118 27.1423899,9.03250118 C27.5176303,9.03250118 27.7677906,9.28340399 27.7677906,9.65975821 C27.7677906,10.0361124 27.5176303,10.4124666 27.1423899,10.4124666 Z" fill="#40565B"></path>
                        <path d="M33.2713167,10.4124666 C30.5195536,10.4124666 29.018592,8.65614697 29.018592,5.51986183 C29.018592,2.3835767 30.5195536,0.627257027 33.2713167,0.627257027 C33.6465571,0.627257027 33.8967174,0.878159837 33.8967174,1.25451405 C33.8967174,1.63086827 33.6465571,1.88177108 33.2713167,1.88177108 C31.2700345,1.88177108 30.2693934,3.13628513 30.2693934,5.51986183 C30.2693934,8.78159837 32.0205153,9.15795259 33.2713167,9.15795259 C33.6465571,9.15795259 33.8967174,9.4088554 33.8967174,9.78520962 C33.8967174,10.1615638 33.6465571,10.4124666 33.2713167,10.4124666 Z" fill="#40565B"></path>
                        <path d="M33.3963968,10.4124666 C30.6446338,10.4124666 29.018592,8.65614697 29.018592,5.51986183 C29.018592,2.3835767 30.6446338,0.627257027 33.3963968,0.627257027 C33.7716372,0.627257027 34.0217975,0.878159837 34.0217975,1.25451405 C34.0217975,1.63086827 33.7716372,1.88177108 33.3963968,1.88177108 C31.2700345,1.88177108 30.2693934,3.13628513 30.2693934,5.51986183 C30.2693934,7.90343854 31.2700345,9.15795259 33.3963968,9.15795259 C33.7716372,9.15795259 34.0217975,9.4088554 34.0217975,9.78520962 C34.0217975,10.1615638 33.7716372,10.4124666 33.3963968,10.4124666 Z" fill="#40565B"></path>
                        <path d="M33.2713167,10.4124666 C30.5195536,10.4124666 29.018592,8.65614697 29.018592,5.51986183 C28.8935118,3.01083373 30.6446338,0.878159837 33.1462365,0.627257027 C33.1462365,0.627257027 33.1462365,0.627257027 33.1462365,0.627257027 C35.7729194,0.627257027 36.27324,2.00722249 36.27324,2.13267389 C36.3983201,2.50902811 36.1481598,2.75993092 35.8979996,2.88538232 C35.6478393,3.01083373 35.2725989,2.75993092 35.1475187,2.50902811 C35.1475187,2.50902811 34.7722783,1.75631967 33.2713167,1.75631967 C31.5201947,2.00722249 30.1443132,3.51263935 30.2693934,5.39441043 C30.2693934,8.65614697 32.0205153,9.03250118 33.2713167,9.03250118 C33.6465571,9.03250118 33.8967174,9.28340399 33.8967174,9.65975821 C33.8967174,10.0361124 33.6465571,10.4124666 33.2713167,10.4124666 Z" fill="#40565B"></path>
                        <path d="M35.7729194,10.4124666 C33.0211564,10.4124666 31.5201947,8.65614697 31.5201947,5.51986183 C31.3951146,3.01083373 33.1462365,0.878159837 35.6478393,0.627257027 C35.6478393,0.627257027 35.6478393,0.627257027 35.6478393,0.627257027 C38.2745222,0.627257027 38.7748427,2.00722249 38.7748427,2.13267389 C38.8999229,2.50902811 38.6497626,2.75993092 38.3996023,2.88538232 C38.0243619,3.01083373 37.7742016,2.75993092 37.6491215,2.50902811 C37.6491215,2.50902811 37.2738811,1.75631967 35.7729194,1.75631967 C34.0217975,2.00722249 32.645916,3.51263935 32.7709961,5.39441043 C32.7709961,8.65614697 34.522118,9.03250118 35.7729194,9.03250118 C36.1481598,9.03250118 36.3983201,9.28340399 36.3983201,9.65975821 C36.3983201,10.0361124 36.1481598,10.4124666 35.7729194,10.4124666 Z" fill="#40565B"></path>
                        <path d="M42.0269263,10.4124666 C39.2751633,10.4124666 37.7742016,8.65614697 37.7742016,5.51986183 C37.7742016,2.3835767 39.2751633,0.627257027 42.0269263,0.627257027 C42.4021667,0.627257027 42.652327,0.878159837 42.652327,1.25451405 C42.652327,1.63086827 42.4021667,1.88177108 42.0269263,1.88177108 C40.0256441,1.88177108 39.025003,3.13628513 39.025003,5.51986183 C39.025003,8.78159837 40.7761249,9.15795259 42.0269263,9.15795259 C42.4021667,9.15795259 42.652327,9.4088554 42.652327,9.78520962 C42.652327,10.1615638 42.4021667,10.4124666 42.0269263,10.4124666 Z" fill="#40565B"></path>
                        <path d="M42.1520065,10.4124666 C39.4002434,10.4124666 37.7742016,8.65614697 37.7742016,5.51986183 C37.7742016,2.3835767 39.4002434,0.627257027 42.1520065,0.627257027 C42.5272469,0.627257027 42.7774071,0.878159837 42.7774071,1.25451405 C42.7774071,1.63086827 42.5272469,1.88177108 42.1520065,1.88177108 C40.0256441,1.88177108 39.025003,3.13628513 39.025003,5.51986183 C39.025003,7.90343854 40.0256441,9.15795259 42.1520065,9.15795259 C42.5272469,9.15795259 42.7774071,9.4088554 42.7774071,9.78520962 C42.7774071,10.1615638 42.5272469,10.4124666 42.1520065,10.4124666 Z" fill="#40565B"></path>
                        <path d="M42.0269263,10.4124666 C39.2751633,10.4124666 37.7742016,8.65614697 37.7742016,5.51986183 C37.6491215,3.01083373 39.4002434,0.878159837 41.9018462,0.627257027 C41.9018462,0.627257027 41.9018462,0.627257027 41.9018462,0.627257027 C44.5285291,0.627257027 45.0288496,2.00722249 45.0288496,2.13267389 C45.1539298,2.50902811 44.9037695,2.75993092 44.6536092,2.88538232 C44.4034489,3.01083373 44.0282085,2.75993092 43.9031284,2.50902811 C43.9031284,2.50902811 43.527888,1.75631967 42.0269263,1.75631967 C40.2758044,2.00722249 38.8999229,3.51263935 39.025003,5.39441043 C39.025003,8.65614697 40.7761249,9.03250118 42.0269263,9.03250118 C42.4021667,9.03250118 42.652327,9.28340399 42.652327,9.65975821 C42.652327,10.0361124 42.4021667,10.4124666 42.0269263,10.4124666 Z" fill="#40565B"></path>
                        <path d="M44.5285291,10.4124666 C41.776766,10.4124666 40.2758044,8.65614697 40.2758044,5.51986183 C40.1507242,3.01083373 41.9018462,0.878159837 44.4034489,0.627257027 C44.4034489,0.627257027 44.4034489,0.627257027 44.4034489,0.627257027 C47.0301318,0.627257027 47.5304524,2.00722249 47.5304524,2.13267389 C47.6555325,2.50902811 47.4053722,2.75993092 47.155212,2.88538232 C46.9050517,3.01083373 46.5298113,2.75993092 46.4047311,2.50902811 C46.4047311,2.50902811 46.0294907,1.75631967 44.5285291,1.75631967 C42.7774071,2.00722249 41.4015256,3.51263935 41.5266058,5.39441043 C41.5266058,8.65614697 43.2777277,9.03250118 44.5285291,9.03250118 C44.9037695,9.03250118 45.1539298,9.28340399 45.1539298,9.65975821 C45.1539298,10.0361124 44.9037695,10.4124666 44.5285291,10.4124666 Z" fill="#40565B"></path>
                        <path d="M50.782536,10.4124666 C48.0307729,10.4124666 46.5298113,8.65614697 46.5298113,5.51986183 C46.5298113,2.3835767 48.0307729,0.627257027 50.782536,0.627257027 C51.1577764,0.627257027 51.4079367,0.878159837 51.4079367,1.25451405 C51.4079367,1.63086827 51.1577764,1.88177108 50.782536,1.88177108 C48.7812538,1.88177108 47.7806127,3.13628513 47.7806127,5.51986183 C47.7806127,8.78159837 49.5317346,9.15795259 50.782536,9.15795259 C51.1577764,9.15795259 51.4079367,9.4088554 51.4079367,9.78520962 C51.4079367,10.1615638 51.1577764,10.4124666 50.782536,10.4124666 Z" fill="#40565B"></path>
                        <path d="M50.782536,10.4124666 C48.0307729,10.4124666 46.4047311,8.65614697 46.4047311,5.51986183 C46.4047311,2.3835767 48.0307729,0.627257027 50.782536,0.627257027 C51.1577764,0.627257027 51.4079367,0.878159837 51.4079367,1.25451405 C51.4079367,1.63086827 51.1577764,1.88177108 50.782536,1.88177108 C48.6561736,1.88177108 47.6555325,3.13628513 47.6555325,5.51986183 C47.6555325,7.90343854 48.6561736,9.15795259 50.782536,9.15795259 C51.1577764,9.15795259 51.4079367,9.4088554 51.4079367,9.78520962 C51.4079367,10.1615638 51.1577764,10.4124666 50.782536,10.4124666 Z" fill="#40565B"></path>
                        <path d="M50.782536,10.4124666 C48.0307729,10.4124666 46.5298113,8.65614697 46.5298113,5.51986183 C46.4047311,3.01083373 48.1558531,0.878159837 50.6574558,0.627257027 C50.6574558,0.627257027 50.6574558,0.627257027 50.6574558,0.627257027 C53.2841387,0.627257027 53.7844593,2.00722249 53.7844593,2.13267389 C53.9095394,2.50902811 53.6593791,2.75993092 53.4092189,2.88538232 C53.0339784,3.01083373 52.7838182,2.75993092 52.658738,2.50902811 C52.658738,2.50902811 52.2834976,1.75631967 50.782536,1.75631967 C49.031414,2.00722249 47.6555325,3.51263935 47.7806127,5.39441043 C47.7806127,8.65614697 49.5317346,9.03250118 50.782536,9.03250118 C51.1577764,9.03250118 51.4079367,9.28340399 51.4079367,9.65975821 C51.4079367,10.0361124 51.1577764,10.4124666 50.782536,10.4124666 Z" fill="#40565B"></path>
                        <path d="M53.2841387,10.4124666 C50.5323757,10.4124666 49.031414,8.65614697 49.031414,5.51986183 C48.9063339,3.01083373 50.6574558,0.878159837 53.1590586,0.627257027 C53.1590586,0.627257027 53.1590586,0.627257027 53.1590586,0.627257027 C55.7857415,0.627257027 56.286062,2.00722249 56.286062,2.13267389 C56.4111422,2.50902811 56.1609819,2.75993092 55.9108216,2.88538232 C55.6606613,3.01083373 55.2854209,2.75993092 55.1603408,2.50902811 C55.1603408,2.50902811 54.7851004,1.75631967 53.2841387,1.75631967 C51.5330168,2.00722249 50.1571353,3.51263935 50.2822154,5.39441043 C50.2822154,8.65614697 52.0333373,9.03250118 53.2841387,9.03250118 C53.6593791,9.03250118 53.9095394,9.28340399 53.9095394,9.65975821 C53.9095394,10.0361124 53.6593791,10.4124666 53.2841387,10.4124666 Z" fill="#40565B"></path>
                        <path d="M59.5381456,10.4124666 C56.7863826,10.4124666 55.2854209,8.65614697 55.2854209,5.51986183 C55.2854209,2.3835767 56.7863826,0.627257027 59.5381456,0.627257027 C59.913386,0.627257027 60.1635463,0.878159837 60.1635463,1.25451405 C60.1635463,1.63086827 59.913386,1.88177108 59.5381456,1.88177108 C57.5368634,1.88177108 56.5362223,3.13628513 56.5362223,5.51986183 C56.5362223,8.78159837 58.2873442,9.15795259 59.5381456,9.15795259 C59.913386,9.15795259 60.1635463,9.4088554 60.1635463,9.78520962 C60.1635463,10.1615638 59.913386,10.4124666 59.5381456,10.4124666 Z" fill="#40565B"></path>
                        <path d="M59.5381456,10.4124666 C56.7863826,10.4124666 55.1603408,8.65614697 55.1603408,5.51986183 C55.1603408,2.3835767 56.7863826,0.627257027 59.5381456,0.627257027 C59.913386,0.627257027 60.1635463,0.878159837 60.1635463,1.25451405 C60.1635463,1.63086827 59.913386,1.88177108 59.5381456,1.88177108 C57.4117833,1.88177108 56.4111422,3.13628513 56.4111422,5.51986183 C56.4111422,7.90343854 57.4117833,9.15795259 59.5381456,9.15795259 C59.913386,9.15795259 60.1635463,9.4088554 60.1635463,9.78520962 C60.1635463,10.1615638 59.913386,10.4124666 59.5381456,10.4124666 Z" fill="#40565B"></path>
                        <path d="M59.5381456,10.4124666 C56.7863826,10.4124666 55.2854209,8.65614697 55.2854209,5.51986183 C55.1603408,3.01083373 56.9114627,0.878159837 59.4130655,0.627257027 C59.4130655,0.627257027 59.4130655,0.627257027 59.4130655,0.627257027 C62.0397484,0.627257027 62.5400689,2.00722249 62.5400689,2.13267389 C62.6651491,2.50902811 62.4149888,2.75993092 62.1648285,2.88538232 C61.7895881,3.01083373 61.5394278,2.75993092 61.4143477,2.50902811 C61.4143477,2.50902811 61.0391073,1.75631967 59.5381456,1.75631967 C57.7870237,2.00722249 56.4111422,3.51263935 56.5362223,5.39441043 C56.5362223,8.65614697 58.2873442,9.03250118 59.5381456,9.03250118 C59.913386,9.03250118 60.1635463,9.28340399 60.1635463,9.65975821 C60.1635463,10.0361124 59.913386,10.4124666 59.5381456,10.4124666 Z" fill="#40565B"></path>
                        <path d="M62.0397484,10.4124666 C59.2879853,10.4124666 57.7870237,8.65614697 57.7870237,5.51986183 C57.6619435,3.01083373 59.4130655,0.878159837 61.9146682,0.627257027 C61.9146682,0.627257027 61.9146682,0.627257027 61.9146682,0.627257027 C64.5413511,0.627257027 65.0416717,2.00722249 65.0416717,2.13267389 C65.1667518,2.50902811 64.9165915,2.75993092 64.6664313,2.88538232 C64.416271,3.01083373 64.0410306,2.75993092 63.9159504,2.50902811 C63.9159504,2.50902811 63.54071,1.75631967 62.0397484,1.75631967 C60.2886264,2.00722249 58.9127449,3.51263935 59.0378251,5.39441043 C59.0378251,8.65614697 60.788947,9.03250118 62.0397484,9.03250118 C62.4149888,9.03250118 62.6651491,9.28340399 62.6651491,9.65975821 C62.6651491,10.0361124 62.4149888,10.4124666 62.0397484,10.4124666 Z" fill="#40565B"></path>
                        <path d="M65.4169121,10.4124666 C63.54071,10.4124666 61.7895881,9.03250118 61.5394278,7.0252787 L61.5394278,6.02166746 C61.4143477,5.14350762 61.664508,4.13989638 62.4149888,3.26173654 C63.0403895,2.50902811 64.0410306,1.88177108 65.0416717,1.75631967 L66.0423128,1.75631967 L123.078856,1.75631967 C123.454096,1.75631967 123.704256,2.00722249 123.704256,2.3835767 C123.704256,2.75993092 123.454096,3.01083373 123.078856,3.01083373 L65.0416717,3.01083373 C64.416271,3.13628513 63.7908703,3.51263935 63.2905497,4.01444497 C62.7902292,4.51625059 62.6651491,5.26895902 62.7902292,5.89621605 L62.7902292,6.89982729 C63.0403895,8.15434135 64.416271,9.28340399 65.7921525,9.03250118 L122.953775,9.03250118 C123.329016,9.03250118 123.579176,9.28340399 123.579176,9.65975821 C123.579176,10.0361124 123.329016,10.2870152 122.953775,10.2870152 L65.9172326,10.2870152 C65.7921525,10.4124666 65.5419922,10.4124666 65.4169121,10.4124666 Z" fill="#40565B"></path>
                        <path d="M79.6760478,30.6101429 L73.7972813,30.6101429 C73.4220409,30.6101429 73.1718806,30.3592401 73.1718806,29.9828859 C73.1718806,29.6065317 73.4220409,29.3556288 73.7972813,29.3556288 L79.6760478,29.3556288 C80.0512882,29.3556288 80.3014485,29.6065317 80.3014485,29.9828859 C80.3014485,30.3592401 80.0512882,30.6101429 79.6760478,30.6101429 Z" fill="#D0E4F0"></path>
                        <path d="M77.7998457,47.2951798 L65.6670724,47.2951798 C65.291832,47.2951798 65.0416717,47.044277 65.0416717,46.6679228 C65.0416717,46.2915686 65.291832,46.0406658 65.6670724,46.0406658 L77.7998457,46.0406658 C78.1750861,46.0406658 78.4252464,46.2915686 78.4252464,46.6679228 C78.4252464,47.044277 78.1750861,47.2951798 77.7998457,47.2951798 Z" fill="#D0E4F0"></path>
                        <path d="M76.4239642,51.058722 L72.2963197,51.058722 C71.9210793,51.058722 71.670919,50.8078192 71.670919,50.4314649 C71.670919,50.0551107 71.9210793,49.8042079 72.2963197,49.8042079 L76.4239642,49.8042079 C76.7992046,49.8042079 77.0493649,50.0551107 77.0493649,50.4314649 C77.0493649,50.8078192 76.7992046,51.058722 76.4239642,51.058722 Z" fill="#D0E4F0"></path>
                        <path d="M87.4310163,49.4278537 L81.3020896,49.4278537 C80.9268492,49.4278537 80.6766889,49.1769509 80.6766889,48.8005967 C80.6766889,48.4242425 80.9268492,48.1733396 81.3020896,48.1733396 L87.4310163,48.1733396 C87.8062568,48.1733396 88.056417,48.4242425 88.056417,48.8005967 C88.056417,49.1769509 87.8062568,49.4278537 87.4310163,49.4278537 Z" fill="#D0E4F0"></path>
                        <path d="M101.439992,51.1841734 L94.0602637,51.1841734 C93.6850232,51.1841734 93.434863,50.9332706 93.434863,50.5569163 C93.434863,50.1805621 93.6850232,49.9296593 94.0602637,49.9296593 L101.439992,49.9296593 C101.815232,49.9296593 102.065392,50.1805621 102.065392,50.5569163 C102.065392,50.9332706 101.815232,51.1841734 101.439992,51.1841734 Z" fill="#D0E4F0"></path>
                        <path d="M101.940312,47.2951798 L99.6888699,47.2951798 C99.3136294,47.2951798 99.0634692,47.044277 99.0634692,46.6679228 C99.0634692,46.2915686 99.3136294,46.0406658 99.6888699,46.0406658 L101.940312,46.0406658 C102.315553,46.0406658 102.565713,46.2915686 102.565713,46.6679228 C102.565713,47.044277 102.315553,47.2951798 101.940312,47.2951798 Z" fill="#D0E4F0"></path>
                        <path d="M114.073086,50.3060135 L107.693999,50.3060135 C107.318758,50.3060135 107.068598,50.0551107 107.068598,49.6787565 C107.068598,49.3024023 107.318758,49.0514995 107.693999,49.0514995 L114.073086,49.0514995 C114.448326,49.0514995 114.698486,49.3024023 114.698486,49.6787565 C114.698486,50.0551107 114.448326,50.3060135 114.073086,50.3060135 Z" fill="#D0E4F0"></path>
                        <path d="M90.5580198,77.6544199 L73.547121,77.6544199 C73.1718806,77.6544199 72.9217204,77.4035171 72.9217204,77.0271629 C72.9217204,76.6508087 73.1718806,76.3999058 73.547121,76.3999058 L90.5580198,76.3999058 C90.9332602,76.3999058 91.1834205,76.6508087 91.1834205,77.0271629 C91.1834205,77.4035171 90.9332602,77.6544199 90.5580198,77.6544199 Z" fill="#D0E4F0"></path>
                        <path d="M105.567636,77.7798713 L96.3117061,77.7798713 C95.9364657,77.7798713 95.6863054,77.5289685 95.6863054,77.1526143 C95.6863054,76.7762601 95.9364657,76.5253572 96.3117061,76.5253572 L105.567636,76.5253572 C105.942877,76.5253572 106.193037,76.7762601 106.193037,77.1526143 C106.193037,77.5289685 105.942877,77.7798713 105.567636,77.7798713 Z" fill="#D0E4F0"></path>
                        <path d="M107.443838,81.4179621 L102.815873,81.4179621 C102.440633,81.4179621 102.190473,81.1670592 102.190473,80.790705 C102.190473,80.4143508 102.440633,80.163448 102.815873,80.163448 L107.443838,80.163448 C107.819079,80.163448 108.069239,80.4143508 108.069239,80.790705 C108.069239,81.1670592 107.819079,81.4179621 107.443838,81.4179621 Z" fill="#D0E4F0"></path>
                        <path d="M94.9358246,81.6688649 L88.056417,81.6688649 C87.6811766,81.6688649 87.4310163,81.4179621 87.4310163,81.0416078 C87.4310163,80.6652536 87.6811766,80.4143508 88.056417,80.4143508 L94.9358246,80.4143508 C95.311065,80.4143508 95.5612253,80.6652536 95.5612253,81.0416078 C95.5612253,81.4179621 95.311065,81.6688649 94.9358246,81.6688649 Z" fill="#D0E4F0"></path>
                        <path d="M101.189832,85.8087612 L97.1872671,85.8087612 C96.8120267,85.8087612 96.5618664,85.5578584 96.5618664,85.1815042 C96.5618664,84.80515 96.8120267,84.5542472 97.1872671,84.5542472 L101.189832,84.5542472 C101.565072,84.5542472 101.815232,84.80515 101.815232,85.1815042 C101.815232,85.5578584 101.565072,85.8087612 101.189832,85.8087612 Z" fill="#D0E4F0"></path>
                        <path d="M118.951211,83.4251845 L111.946723,83.4251845 C111.571483,83.4251845 111.321323,83.1742817 111.321323,82.7979275 C111.321323,82.4215733 111.571483,82.1706705 111.946723,82.1706705 L118.951211,82.1706705 C119.326451,82.1706705 119.576612,82.4215733 119.576612,82.7979275 C119.576612,83.1742817 119.326451,83.4251845 118.951211,83.4251845 Z" fill="#D0E4F0"></path>
                        <path d="M119.951852,78.0307741 L114.448326,78.0307741 C114.073086,78.0307741 113.822925,77.7798713 113.822925,77.4035171 C113.822925,77.0271629 114.073086,76.7762601 114.448326,76.7762601 L119.951852,76.7762601 C120.327093,76.7762601 120.577253,77.0271629 120.577253,77.4035171 C120.577253,77.7798713 120.327093,78.0307741 119.951852,78.0307741 Z" fill="#D0E4F0"></path>
                        <path d="M82.1776506,82.4215733 L78.1750861,82.4215733 C77.7998457,82.4215733 77.5496855,82.1706705 77.5496855,81.7943163 C77.5496855,81.4179621 77.7998457,81.1670592 78.1750861,81.1670592 L82.1776506,81.1670592 C82.552891,81.1670592 82.8030512,81.4179621 82.8030512,81.7943163 C82.8030512,82.1706705 82.552891,82.4215733 82.1776506,82.4215733 Z" fill="#D0E4F0"></path>
                        <path d="M89.3072184,86.4360183 L73.6722012,86.4360183 C73.2969608,86.4360183 73.0468005,86.1851155 73.0468005,85.8087612 C73.0468005,85.432407 73.2969608,85.1815042 73.6722012,85.1815042 L89.3072184,85.1815042 C89.6824588,85.1815042 89.9326191,85.432407 89.9326191,85.8087612 C89.9326191,86.1851155 89.6824588,86.4360183 89.3072184,86.4360183 Z" fill="#D0E4F0"></path>
                    </g>
                    <g>
                        <g>
                            <path d="M22.3893447,230.579683 C10.6318117,230.579683 1.0006411,220.919925 1.0006411,209.127493 L1.0006411,174.001099 C1.0006411,162.208667 10.6318117,152.548909 22.3893447,152.548909 L22.3893447,230.579683 Z" id="Shape" fill="#1785C8"></path>
                            <path d="M203.255224,230.579683 L203.255224,152.67436 C215.012757,152.67436 224.643928,162.334118 224.643928,174.126551 L224.643928,209.252944 C224.643928,221.045376 215.012757,230.579683 203.255224,230.579683 Z" id="Shape" fill="#1785C8"></path>
                            <path d="M94.8107445,8.90704978 L129.958263,8.90704978 C133.710667,8.90704978 136.962751,10.9142723 138.713873,13.925106 L148.845364,13.925106 C148.845364,6.52347308 142.841517,0.627257027 135.586869,0.627257027 L89.3072184,0.627257027 C81.9274903,0.627257027 76.0487238,6.64892448 76.0487238,13.925106 L86.180215,13.925106 C87.9313369,11.0397237 91.0583403,8.90704978 94.8107445,8.90704978 Z" id="Shape" fill="#3AA1D6"></path>
                            <path d="M135.461789,5.77076465 L89.1821383,5.77076465 C83.6786122,5.77076465 78.925567,9.15795259 76.9242848,14.0505574 L86.0551348,14.0505574 C87.8062568,11.0397237 91.0583403,9.03250118 94.8107445,9.03250118 L129.958263,9.03250118 C133.710667,9.03250118 136.962751,11.0397237 138.713873,14.0505574 L147.844723,14.0505574 C145.843441,9.15795259 141.090395,5.77076465 135.461789,5.77076465 Z" id="Shape" fill="#1785C8"></path>
                            <path d="M160.477817,14.0505574 C188.370688,56.8294866 203.255224,106.884597 203.255224,158.068771 L203.255224,228.697912 C203.255224,237.730413 196.000576,245.006595 186.994806,245.006595 L112.822284,245.006595 L38.5246825,245.006595 C29.5189125,245.006595 22.2642645,237.730413 22.2642645,228.697912 L22.2642645,158.068771 C22.2642645,106.884597 37.1488009,56.8294866 65.0416717,14.0505574" id="Shape" fill="#3AA1D6"></path>
                            <path d="M162.854339,17.8140996 L62.6651491,17.8140996 C53.9095394,31.7392055 46.5298113,46.2915686 40.6510448,61.4711886 C49.6568147,76.0235516 79.0506471,86.6869211 114.073086,86.6869211 C147.094242,86.6869211 175.237273,77.1526143 185.869085,63.8547653 C179.740158,47.7969854 172.11027,32.3664626 162.854339,17.8140996 Z" id="Shape" fill="#1785C8"></path>
                            <path d="M186.994806,245.633852 L38.5246825,245.633852 C29.2687523,245.633852 21.6388638,237.981316 21.6388638,228.697912 L21.6388638,158.068771 C21.6388638,106.633695 36.5234002,56.7040352 64.5413511,13.6742032 C64.7915114,13.4233004 65.1667518,13.297849 65.4169121,13.5487518 C65.6670724,13.7996546 65.7921525,14.1760088 65.5419922,14.4269116 C37.6491215,57.2058408 22.8896652,106.884597 22.8896652,158.068771 L22.8896652,228.697912 C22.8896652,237.354059 29.8941529,244.379338 38.5246825,244.379338 L186.994806,244.379338 C195.625336,244.379338 202.629823,237.354059 202.629823,228.697912 L202.629823,158.068771 C202.629823,106.884597 187.870367,57.2058408 159.977496,14.4269116 C159.727336,14.1760088 159.852416,13.7996546 160.102576,13.5487518 C160.352737,13.297849 160.727977,13.4233004 160.978137,13.6742032 C188.996088,56.7040352 203.880625,106.633695 203.880625,158.068771 L203.880625,228.697912 C203.880625,237.981316 196.250736,245.633852 186.994806,245.633852 Z" id="Shape" fill="#164A67"></path>
                            <path d="M188.996088,47.5460826 L188.996088,17.5631967 C188.996088,15.5559743 187.370046,13.925106 185.368764,13.925106 L40.1507242,13.925106 C38.149442,13.925106 36.5234002,15.5559743 36.5234002,17.5631967 L36.5234002,47.5460826 C36.5234002,47.7969854 36.5234002,48.1733396 36.5234002,48.4242425 C36.5234002,67.4928561 70.6702779,82.7979275 112.697204,82.7979275 C154.724131,82.7979275 188.871008,67.3674047 188.871008,48.4242425 C188.996088,48.1733396 188.996088,47.9224368 188.996088,47.5460826 Z" id="Shape" fill="#1785C8"></path>
                            <path d="M188.996088,17.6886482 C188.996088,15.6814257 187.370046,14.0505574 185.368764,14.0505574 L43.4028078,14.0505574 C39.6504037,14.0505574 36.6484804,15.5559743 36.6484804,17.4377453 L36.6484804,46.1661172 L36.7735605,46.1661172 C36.7735605,46.41702 36.6484804,46.6679228 36.6484804,47.044277 C36.6484804,49.6787565 189.121168,40.0189983 189.121168,21.7030931 C189.121168,21.4521903 189.121168,21.2012875 188.996088,20.8249333 L188.996088,17.6886482 Z" id="Shape" fill="#3AA1D6"></path>
                            <path d="M125.955699,73.5145235 L123.829336,73.5145235 L123.829336,14.0505574 L105.817797,14.0505574 L105.817797,73.5145235 L102.315553,73.5145235 C99.81395,73.5145235 97.8126678,75.521746 97.8126678,78.0307741 L97.8126678,95.2176166 C97.8126678,97.7266447 99.81395,99.7338672 102.315553,99.7338672 L105.817797,99.7338672 L105.817797,114.411682 C105.817797,116.168001 107.193678,117.547967 108.9448,117.547967 L119.326451,117.547967 C121.077573,117.547967 122.453455,116.168001 122.453455,114.411682 L122.453455,99.7338672 L125.955699,99.7338672 C128.457302,99.7338672 130.458584,97.7266447 130.458584,95.2176166 L130.458584,78.0307741 C130.458584,75.521746 128.457302,73.5145235 125.955699,73.5145235 Z" id="Shape" fill="#1785C8"></path>
                            <path d="M7.75496855,183.786309 C6.50416717,197.460512 5.25336579,207.747527 0.750480827,206.116659 C0.750480827,206.116659 -0.125080138,172.24478 2.75176303,165.470404 C5.75368634,158.570576 11.5073727,153.050714 22.2642645,152.67436 C24.6407872,152.548909 9.75625075,160.954153 7.75496855,183.786309 Z" id="Shape" fill="#3AA1D6"></path>
                            <rect id="Rectangle-path" fill="#29B99A" x="47.9056928" y="183.284503" width="128.957622" height="5.26895902"></rect>
                            <path d="M22.3893447,231.20694 C10.2565713,231.20694 0.375240414,221.296279 0.375240414,209.127493 L0.375240414,174.001099 C0.375240414,161.832313 10.2565713,151.921652 22.3893447,151.921652 C22.7645851,151.921652 23.0147454,152.172555 23.0147454,152.548909 L23.0147454,230.579683 C23.0147454,230.956037 22.7645851,231.20694 22.3893447,231.20694 Z M21.763944,153.176166 C10.6318117,153.55252 1.62604179,162.710473 1.62604179,174.001099 L1.62604179,209.127493 C1.62604179,220.418119 10.6318117,229.576072 21.763944,229.952426 L21.763944,153.176166 Z" id="Shape" fill="#164A67"></path>
                            <path d="M203.255224,231.20694 C202.879984,231.20694 202.629823,230.956037 202.629823,230.579683 L202.629823,152.67436 C202.629823,152.298006 202.879984,152.047103 203.255224,152.047103 C215.387997,152.047103 225.269328,161.957764 225.269328,174.126551 L225.269328,209.252944 C225.269328,221.296279 215.387997,231.20694 203.255224,231.20694 Z M203.880625,153.301617 L203.880625,229.952426 C215.012757,229.576072 224.018527,220.418119 224.018527,209.252944 L224.018527,174.126551 C224.018527,162.835924 215.012757,153.677972 203.880625,153.301617 Z" id="Shape" fill="#164A67"></path>
                            <path d="M112.697204,83.4251845 C70.2950375,83.4251845 35.8979996,67.7437589 35.8979996,48.4242425 L35.8979996,17.5631967 C35.8979996,15.17962 37.7742016,13.297849 40.1507242,13.297849 L185.368764,13.297849 C187.745287,13.297849 189.621489,15.17962 189.621489,17.5631967 L189.621489,47.5460826 C189.621489,47.9224368 189.621489,48.1733396 189.496409,48.5496939 C189.371329,67.7437589 154.974291,83.4251845 112.697204,83.4251845 Z M40.1507242,14.552363 C38.5246825,14.552363 37.1488009,15.9323285 37.1488009,17.5631967 L37.1488009,48.4242425 C37.1488009,66.9910504 71.0455183,82.1706705 112.697204,82.1706705 C154.34889,82.1706705 188.245607,66.9910504 188.245607,48.4242425 C188.245607,48.2987911 188.245607,48.1733396 188.370688,48.1733396 C188.370688,48.0478882 188.370688,47.9224368 188.370688,47.5460826 L188.370688,17.5631967 C188.370688,15.9323285 186.994806,14.552363 185.368764,14.552363 L40.1507242,14.552363 Z" id="Shape" fill="#164A67"></path>
                            <path d="M176.863315,188.553462 L176.863315,213.267389 C176.863315,222.927147 169.108346,230.705134 159.477176,230.705134 L65.291832,230.705134 C55.6606613,230.705134 47.9056928,222.927147 47.9056928,213.267389 L47.9056928,188.553462" id="Shape" fill="#1785C8"></path>
                            <path d="M182.992242,190.686136 L182.992242,216.529126 C182.992242,226.565238 174.862033,234.845031 164.730542,234.845031 L66.1673929,234.845031 C56.1609819,234.845031 47.9056928,226.690689 47.9056928,216.529126 L47.9056928,190.686136" id="Shape" fill="#1785C8"></path>
                            <path d="M148.845364,14.552363 L138.713873,14.552363 C138.463713,14.552363 138.338632,14.4269116 138.213552,14.3014602 C136.46243,11.4160779 133.460507,9.5343068 129.958263,9.5343068 L94.8107445,9.5343068 C91.5586609,9.5343068 88.5567376,11.2906265 86.6805355,14.3014602 C86.5554554,14.4269116 86.3052951,14.552363 86.180215,14.552363 L76.0487238,14.552363 C75.6734834,14.552363 75.4233231,14.3014602 75.4233231,13.925106 C75.4233231,6.27257027 81.67733,0 89.3072184,0 L135.586869,0 C143.216758,0 149.470765,6.27257027 149.470765,13.925106 C149.470765,14.3014602 149.220604,14.552363 148.845364,14.552363 Z M139.089113,13.297849 L148.219963,13.297849 C147.844723,6.64892448 142.341197,1.25451405 135.586869,1.25451405 L89.3072184,1.25451405 C82.552891,1.25451405 77.0493649,6.64892448 76.6741245,13.297849 L85.8049746,13.297849 C87.8062568,10.1615638 91.1834205,8.27979275 94.8107445,8.27979275 L129.958263,8.27979275 C133.710667,8.27979275 137.087831,10.1615638 139.089113,13.297849 Z" id="Shape" fill="#164A67"></path>
                            <path d="M176.863315,183.91176 L47.9056928,183.91176 C47.5304524,183.91176 47.2802921,183.660857 47.2802921,183.284503 C47.2802921,182.908149 47.5304524,182.657246 47.9056928,182.657246 L176.863315,182.657246 C177.238555,182.657246 177.488716,182.908149 177.488716,183.284503 C177.488716,183.660857 177.238555,183.91176 176.863315,183.91176 Z" id="Shape" fill="#40565B"></path>
                            <path d="M64.6664313,199.467734 C62.4149888,199.467734 60.5387867,197.585963 60.5387867,195.327838 L60.5387867,188.553462 L68.7940758,188.553462 L68.7940758,195.327838 C68.7940758,197.585963 66.9178737,199.467734 64.6664313,199.467734 Z" id="Shape" fill="#A1C2D8"></path>
                            <path d="M64.6664313,200.094991 C62.0397484,200.094991 59.913386,197.962318 59.913386,195.327838 L59.913386,188.553462 C59.913386,188.177108 60.1635463,187.926205 60.5387867,187.926205 L68.7940758,187.926205 C69.1693162,187.926205 69.4194765,188.177108 69.4194765,188.553462 L69.4194765,195.327838 C69.4194765,197.962318 67.2931142,200.094991 64.6664313,200.094991 Z M61.1641874,189.180719 L61.1641874,195.327838 C61.1641874,197.209609 62.7902292,198.840477 64.6664313,198.840477 C66.5426333,198.840477 68.1686751,197.209609 68.1686751,195.327838 L68.1686751,189.180719 L61.1641874,189.180719 Z" id="Shape" fill="#D0E4F0"></path>
                            <g transform="translate(95.060905, 11.290626)">
                                <path d="M23.0147454,102.493798 L12.6330939,102.493798 C10.881972,102.493798 9.50609048,101.113833 9.50609048,99.357513 L9.50609048,1.12906265 L26.2668289,1.12906265 L26.2668289,99.2320616 C26.1417488,100.988381 24.6407872,102.493798 23.0147454,102.493798 Z" id="Shape" fill="#1BB798"></path>
                                <rect id="Rectangle-path" fill="#14A598" x="9.38101034" y="62.3493484" width="16.7607385" height="26.0938923"></rect>
                                <rect id="Rectangle-path" fill="#8ED0BE" x="9.38101034" y="1.12906265" width="7.37972813" height="57.3312922"></rect>
                                <rect id="Rectangle-path" fill="#14A598" x="23.0147454" y="1.12906265" width="2.62668289" height="57.3312922"></rect>
                                <path d="M23.0147454,103.121055 L12.6330939,103.121055 C10.5067316,103.121055 8.88068979,101.490187 8.88068979,99.357513 L8.88068979,1.12906265 C8.88068979,0.752708432 9.13085006,0.501805621 9.50609048,0.501805621 L26.2668289,0.501805621 C26.6420694,0.501805621 26.8922296,0.752708432 26.8922296,1.12906265 L26.8922296,99.2320616 C26.7671495,101.364736 25.0160276,103.121055 23.0147454,103.121055 Z M10.1314912,1.75631967 L10.1314912,99.357513 C10.1314912,100.737478 11.2572124,101.866541 12.6330939,101.866541 L23.0147454,101.866541 C24.2655467,101.866541 25.5163481,100.612027 25.6414283,99.2320616 L25.6414283,1.75631967 L10.1314912,1.75631967 Z" id="Shape" fill="#40565B"></path>
                                <path d="M29.6439927,84.5542472 L6.00384662,84.5542472 C3.50224386,84.5542472 1.50096165,82.5470247 1.50096165,80.0379966 L1.50096165,62.8511541 C1.50096165,60.342126 3.50224386,58.3349035 6.00384662,58.3349035 L29.6439927,58.3349035 C32.1455954,58.3349035 34.1468776,60.342126 34.1468776,62.8511541 L34.1468776,80.0379966 C34.0217975,82.5470247 32.0205153,84.5542472 29.6439927,84.5542472 Z" id="Shape" fill="#1BB798"></path>
                                <path d="M5.87876648,58.4603549 C3.37716372,58.4603549 1.37588152,60.4675774 1.37588152,62.9766055 L1.37588152,75.3962946 L7.88004868,75.3962946 C17.261059,75.3962946 24.7658673,67.8692103 24.7658673,58.4603549 L5.87876648,58.4603549 Z" id="Shape" fill="#8ED0BE"></path>
                                <path d="M29.6439927,85.1815042 L6.00384662,85.1815042 C3.12700345,85.1815042 0.875560965,82.9233789 0.875560965,80.0379966 L0.875560965,62.8511541 C0.875560965,59.9657717 3.12700345,57.7076465 6.00384662,57.7076465 L29.6439927,57.7076465 C32.5208358,57.7076465 34.7722783,59.9657717 34.7722783,62.8511541 L34.7722783,80.0379966 C34.6471982,82.9233789 32.3957557,85.1815042 29.6439927,85.1815042 Z M6.00384662,58.9621605 C3.87748427,58.9621605 2.12636234,60.7184802 2.12636234,62.8511541 L2.12636234,80.0379966 C2.12636234,82.1706705 3.87748427,83.9269902 6.00384662,83.9269902 L29.6439927,83.9269902 C31.6452749,83.9269902 33.3963968,82.1706705 33.5214769,80.0379966 L33.5214769,62.8511541 C33.5214769,60.7184802 31.770355,58.9621605 29.6439927,58.9621605 L6.00384662,58.9621605 Z" id="Shape" fill="#40565B"></path>
                            </g>
                            <path d="M176.863315,189.180719 L47.9056928,189.180719 C47.5304524,189.180719 47.2802921,188.929816 47.2802921,188.553462 C47.2802921,188.177108 47.5304524,187.926205 47.9056928,187.926205 L176.863315,187.926205 C177.238555,187.926205 177.488716,188.177108 177.488716,188.553462 C177.488716,188.929816 177.238555,189.180719 176.863315,189.180719 Z" id="Shape" fill="#40565B"></path>
                            <path d="M159.477176,231.20694 L65.291832,231.20694 C55.4105011,231.20694 47.2802921,223.052599 47.2802921,213.141938 L47.2802921,178.391898 C47.2802921,168.481237 55.4105011,160.326896 65.291832,160.326896 L159.477176,160.326896 C169.358507,160.326896 177.488716,168.481237 177.488716,178.391898 L177.488716,213.141938 C177.488716,223.052599 169.358507,231.20694 159.477176,231.20694 Z M65.291832,161.58141 C56.0359018,161.58141 48.5310935,169.108494 48.5310935,178.391898 L48.5310935,213.141938 C48.5310935,222.425342 56.0359018,229.952426 65.291832,229.952426 L159.477176,229.952426 C168.733106,229.952426 176.237914,222.425342 176.237914,213.141938 L176.237914,178.391898 C176.237914,169.108494 168.733106,161.58141 159.477176,161.58141 L65.291832,161.58141 Z" id="Shape" fill="#164A67"></path>
                        </g>
                        <g transform="translate(110.070521, 116.669807)">
                            <path d="M215.763238,9.5343068 L215.763238,134.985712 L18.13662,134.985712 L18.13662,9.5343068 C18.13662,4.39079919 21.6388638,0.627257027 26.2668289,0.627257027 L207.132708,0.627257027 C211.885753,0.627257027 215.763238,4.39079919 215.763238,9.5343068 Z" id="Shape" fill="#E7F1F8"></path>
                            <path d="M230.772854,134.860261 L230.772854,140.756477 C228.896652,142.889151 226.64521,143.641859 223.643286,143.641859 L8.00512882,143.641859 C5.00320551,143.641859 2.25144248,142.889151 0.375240414,140.756477 L0.375240414,134.860261 L230.772854,134.860261 Z" id="Shape" fill="#D0E4F0"></path>
                            <g transform="translate(26.266829, 10.036112)">
                                <rect id="Rectangle-path" fill="#FFFFFF" x="0" y="0.752708432" width="179.865238" height="114.913487"></rect>
                                <path d="M166.606744,106.759146 L8.50544937,106.759146 C8.13020896,106.759146 7.88004868,106.508243 7.88004868,106.131889 L7.88004868,22.8321558 C7.88004868,22.4558016 8.13020896,22.2048987 8.50544937,22.2048987 L166.606744,22.2048987 C166.981984,22.2048987 167.232144,22.4558016 167.232144,22.8321558 L167.232144,106.131889 C167.232144,106.508243 166.981984,106.759146 166.606744,106.759146 Z M9.13085006,105.504632 L165.981343,105.504632 L165.981343,23.4594128 L9.13085006,23.4594128 L9.13085006,105.504632 Z" id="Shape" fill="#A1C2D8"></path>
                                <path d="M176.237914,116.293453 C175.862674,116.293453 175.612514,116.04255 175.612514,115.666196 L175.612514,14.9287172 C175.612514,12.7960433 173.861392,11.0397237 171.735029,11.0397237 L8.63052951,11.0397237 C6.50416717,11.0397237 4.75304524,12.7960433 4.75304524,14.9287172 L4.75304524,115.666196 C4.75304524,116.04255 4.50288496,116.293453 4.12764455,116.293453 C3.75240414,116.293453 3.50224386,116.04255 3.50224386,115.666196 L3.50224386,14.9287172 C3.50224386,12.0433349 5.75368634,9.78520962 8.63052951,9.78520962 L171.735029,9.78520962 C174.611872,9.78520962 176.863315,12.0433349 176.863315,14.9287172 L176.863315,115.666196 C176.863315,116.04255 176.613155,116.293453 176.237914,116.293453 Z" id="Shape" fill="#A1C2D8"></path>
                                <path d="M21.6388638,6.52347308 L6.50416717,6.52347308 C6.12892675,6.52347308 5.87876648,6.27257027 5.87876648,5.89621605 C5.87876648,5.51986183 6.12892675,5.26895902 6.50416717,5.26895902 L21.6388638,5.26895902 C22.0141043,5.26895902 22.2642645,5.51986183 22.2642645,5.89621605 C22.2642645,6.27257027 22.0141043,6.52347308 21.6388638,6.52347308 Z" id="Shape" fill="#A1C2D8"></path>
                                <path d="M41.2764455,6.52347308 L26.1417488,6.52347308 C25.7665084,6.52347308 25.5163481,6.27257027 25.5163481,5.89621605 C25.5163481,5.51986183 25.7665084,5.26895902 26.1417488,5.26895902 L41.2764455,5.26895902 C41.6516859,5.26895902 41.9018462,5.51986183 41.9018462,5.89621605 C41.9018462,6.27257027 41.6516859,6.52347308 41.2764455,6.52347308 Z" id="Shape" fill="#A1C2D8"></path>
                                <path d="M59.913386,6.52347308 L44.7786893,6.52347308 C44.4034489,6.52347308 44.1532887,6.27257027 44.1532887,5.89621605 C44.1532887,5.51986183 44.4034489,5.26895902 44.7786893,5.26895902 L59.913386,5.26895902 C60.2886264,5.26895902 60.5387867,5.51986183 60.5387867,5.89621605 C60.5387867,6.27257027 60.2886264,6.52347308 59.913386,6.52347308 Z" id="Shape" fill="#A1C2D8"></path>
                                <path d="M79.5509677,6.52347308 L64.2911908,6.52347308 C63.9159504,6.52347308 63.6657902,6.27257027 63.6657902,5.89621605 C63.6657902,5.51986183 63.9159504,5.26895902 64.2911908,5.26895902 L79.5509677,5.26895902 C79.9262081,5.26895902 80.1763684,5.51986183 80.1763684,5.89621605 C80.1763684,6.27257027 79.9262081,6.52347308 79.5509677,6.52347308 Z" id="Shape" fill="#A1C2D8"></path>
                                <path d="M158.226374,7.40163291 C157.225733,7.40163291 156.350172,6.52347308 156.350172,5.51986183 C156.350172,4.51625059 157.225733,3.63809075 158.226374,3.63809075 C159.227015,3.63809075 160.102576,4.51625059 160.102576,5.51986183 C160.102576,6.52347308 159.227015,7.40163291 158.226374,7.40163291 Z M158.226374,4.89260481 C157.851134,4.89260481 157.600974,5.14350762 157.600974,5.51986183 C157.600974,5.89621605 157.851134,6.14711886 158.226374,6.14711886 C158.601615,6.14711886 158.851775,5.89621605 158.851775,5.51986183 C158.851775,5.14350762 158.601615,4.89260481 158.226374,4.89260481 Z" id="Shape" fill="#A1C2D8"></path>
                                <path d="M24.1404666,17.1868425 C23.1398255,17.1868425 22.2642645,16.3086827 22.2642645,15.3050714 C22.2642645,14.3014602 23.1398255,13.4233004 24.1404666,13.4233004 C25.1411077,13.4233004 26.0166687,14.3014602 26.0166687,15.3050714 C26.0166687,16.3086827 25.1411077,17.1868425 24.1404666,17.1868425 Z M24.1404666,14.6778144 C23.7652262,14.6778144 23.5150659,14.9287172 23.5150659,15.3050714 C23.5150659,15.6814257 23.7652262,15.9323285 24.1404666,15.9323285 C24.515707,15.9323285 24.7658673,15.6814257 24.7658673,15.3050714 C24.7658673,14.9287172 24.515707,14.6778144 24.1404666,14.6778144 Z" id="Shape" fill="#A1C2D8"></path>
                                <path d="M17.0108987,17.1868425 C16.0102576,17.1868425 15.1346967,16.3086827 15.1346967,15.3050714 C15.1346967,14.3014602 16.0102576,13.4233004 17.0108987,13.4233004 C18.0115398,13.4233004 18.8871008,14.3014602 18.8871008,15.3050714 C18.8871008,16.3086827 18.0115398,17.1868425 17.0108987,17.1868425 Z M17.0108987,14.6778144 C16.6356583,14.6778144 16.3854981,14.9287172 16.3854981,15.3050714 C16.3854981,15.6814257 16.6356583,15.9323285 17.0108987,15.9323285 C17.3861392,15.9323285 17.6362994,15.6814257 17.6362994,15.3050714 C17.6362994,14.9287172 17.3861392,14.6778144 17.0108987,14.6778144 Z" id="Shape" fill="#A1C2D8"></path>
                                <path d="M9.88133089,17.1868425 C8.88068979,17.1868425 8.00512882,16.3086827 8.00512882,15.3050714 C8.00512882,14.3014602 8.88068979,13.4233004 9.88133089,13.4233004 C10.881972,13.4233004 11.757533,14.3014602 11.757533,15.3050714 C11.757533,16.3086827 10.881972,17.1868425 9.88133089,17.1868425 Z M9.88133089,14.6778144 C9.50609048,14.6778144 9.2559302,14.9287172 9.2559302,15.3050714 C9.2559302,15.6814257 9.50609048,15.9323285 9.88133089,15.9323285 C10.2565713,15.9323285 10.5067316,15.6814257 10.5067316,15.3050714 C10.5067316,14.9287172 10.2565713,14.6778144 9.88133089,14.6778144 Z" id="Shape" fill="#A1C2D8"></path>
                                <g transform="translate(15.009617, 27.599309)">
                                    <g transform="translate(1.250801, 0.000000)" fill="#29B99A">
                                        <path d="M2.87684317,13.0469462 C2.25144248,13.0469462 1.62604179,12.7960433 1.0006411,12.2942377 C0.500320551,11.7924321 0.375240414,11.1651751 0.375240414,10.4124666 C0.250160276,9.91066102 0.500320551,9.15795259 0.875560965,8.65614697 C1.25080138,8.27979275 1.75112193,8.02888994 2.25144248,8.02888994 L2.25144248,9.28340399 C2.25144248,9.28340399 2.00128221,9.28340399 1.87620207,9.5343068 C1.75112193,9.78520962 1.62604179,10.0361124 1.62604179,10.4124666 C1.62604179,10.9142723 1.75112193,11.2906265 2.00128221,11.4160779 C2.25144248,11.6669807 2.62668289,11.9178835 2.87684317,11.9178835 C3.37716372,11.9178835 3.75240414,11.5415293 4.37780482,10.6633695 C6.25400689,7.90343854 8.00512882,5.01805621 9.75625075,2.13267389 L10.881972,0.250902811 L10.881972,2.50902811 L10.881972,12.5451405 L9.63117061,12.5451405 L9.63117061,4.7671534 C8.2552891,7.0252787 6.87940758,9.28340399 5.37844593,11.4160779 C4.87812538,12.0433349 4.00256441,13.0469462 2.87684317,13.0469462 Z" id="Shape"></path>
                                        <rect id="Rectangle-path" x="8.50544937" y="11.7924321" width="3.37716372" height="1.25451405"></rect>
                                        <rect id="Rectangle-path" x="6.50416717" y="8.02888994" width="3.37716372" height="1.25451405"></rect>
                                        <path d="M15.5099371,13.5487518 C14.8845364,13.5487518 14.3842159,13.0469462 14.3842159,12.4196891 C14.3842159,11.7924321 14.8845364,11.2906265 15.5099371,11.2906265 C16.1353378,11.2906265 16.6356583,11.7924321 16.6356583,12.4196891 C16.6356583,13.0469462 16.1353378,13.5487518 15.5099371,13.5487518 Z M15.5099371,12.2942377 C15.384857,12.2942377 15.384857,12.2942377 15.384857,12.4196891 C15.384857,12.5451405 15.6350172,12.5451405 15.6350172,12.4196891 C15.6350172,12.2942377 15.6350172,12.2942377 15.5099371,12.2942377 Z" id="Shape"></path>
                                    </g>
                                    <rect id="Rectangle-path" fill="#3F555A" x="24.0153865" y="3.51263935" width="10.1314912" height="1.25451405"></rect>
                                    <rect id="Rectangle-path" fill="#3F555A" x="24.0153865" y="8.53069556" width="63.6657902" height="1.25451405"></rect>
                                    <rect id="Rectangle-path" fill="#3F555A" x="1.37588152" y="33.4955252" width="10.1314912" height="1.25451405"></rect>
                                    <rect id="Rectangle-path" fill="#3F555A" x="1.37588152" y="38.5135814" width="63.6657902" height="1.25451405"></rect>
                                    <path d="M127.08142,20.0722249 L79.3008074,20.0722249 C78.925567,20.0722249 78.6754067,19.821322 78.6754067,19.4449678 C78.6754067,19.0686136 78.925567,18.8177108 79.3008074,18.8177108 L127.08142,18.8177108 C127.45666,18.8177108 127.706821,19.0686136 127.706821,19.4449678 C127.706821,19.821322 127.45666,20.0722249 127.08142,20.0722249 Z" id="Shape" fill="#A1C2D8"></path>
                                    <path d="M73.7972813,20.0722249 L55.7857415,20.0722249 C55.4105011,20.0722249 55.1603408,19.821322 55.1603408,19.4449678 C55.1603408,19.0686136 55.4105011,18.8177108 55.7857415,18.8177108 L73.7972813,18.8177108 C74.1725217,18.8177108 74.422682,19.0686136 74.422682,19.4449678 C74.422682,19.821322 74.1725217,20.0722249 73.7972813,20.0722249 Z" id="Shape" fill="#A1C2D8"></path>
                                    <path d="M50.5323757,20.0722249 L29.1436721,20.0722249 C28.7684317,20.0722249 28.5182714,19.821322 28.5182714,19.4449678 C28.5182714,19.0686136 28.7684317,18.8177108 29.1436721,18.8177108 L50.5323757,18.8177108 C50.9076161,18.8177108 51.1577764,19.0686136 51.1577764,19.4449678 C51.1577764,19.821322 50.9076161,20.0722249 50.5323757,20.0722249 Z" id="Shape" fill="#A1C2D8"></path>
                                    <path d="M24.0153865,20.0722249 L1.37588152,20.0722249 C1.0006411,20.0722249 0.750480827,19.821322 0.750480827,19.4449678 C0.750480827,19.0686136 1.0006411,18.8177108 1.37588152,18.8177108 L24.0153865,18.8177108 C24.3906269,18.8177108 24.6407872,19.0686136 24.6407872,19.4449678 C24.6407872,19.821322 24.3906269,20.0722249 24.0153865,20.0722249 Z" id="Shape" fill="#A1C2D8"></path>
                                    <path d="M38.3996023,24.2121212 L1.37588152,24.2121212 C1.0006411,24.2121212 0.750480827,23.9612184 0.750480827,23.5848642 C0.750480827,23.20851 1.0006411,22.9576072 1.37588152,22.9576072 L38.3996023,22.9576072 C38.7748427,22.9576072 39.025003,23.20851 39.025003,23.5848642 C39.025003,23.9612184 38.7748427,24.2121212 38.3996023,24.2121212 Z" id="Shape" fill="#A1C2D8"></path>
                                    <path d="M83.9287725,24.2121212 L43.2777277,24.2121212 C42.9024873,24.2121212 42.652327,23.9612184 42.652327,23.5848642 C42.652327,23.20851 42.9024873,22.9576072 43.2777277,22.9576072 L83.9287725,22.9576072 C84.3040129,22.9576072 84.5541732,23.20851 84.5541732,23.5848642 C84.5541732,23.9612184 84.3040129,24.2121212 83.9287725,24.2121212 Z" id="Shape" fill="#A1C2D8"></path>
                                    <path d="M141.465636,24.2121212 L87.6811766,24.2121212 C87.3059362,24.2121212 87.0557759,23.9612184 87.0557759,23.5848642 C87.0557759,23.20851 87.3059362,22.9576072 87.6811766,22.9576072 L141.465636,22.9576072 C141.840876,22.9576072 142.091037,23.20851 142.091037,23.5848642 C142.091037,23.9612184 141.840876,24.2121212 141.465636,24.2121212 Z" id="Shape" fill="#A1C2D8"></path>
                                    <path d="M41.1513653,28.3520176 L1.37588152,28.3520176 C1.0006411,28.3520176 0.750480827,28.1011148 0.750480827,27.7247606 C0.750480827,27.3484064 1.0006411,27.0975036 1.37588152,27.0975036 L41.1513653,27.0975036 C41.5266058,27.0975036 41.776766,27.3484064 41.776766,27.7247606 C41.776766,28.1011148 41.5266058,28.3520176 41.1513653,28.3520176 Z" id="Shape" fill="#A1C2D8"></path>
                                    <path d="M90.0576992,28.3520176 L46.4047311,28.3520176 C46.0294907,28.3520176 45.7793304,28.1011148 45.7793304,27.7247606 C45.7793304,27.3484064 46.0294907,27.0975036 46.4047311,27.0975036 L90.0576992,27.0975036 C90.4329397,27.0975036 90.6830999,27.3484064 90.6830999,27.7247606 C90.6830999,28.1011148 90.4329397,28.3520176 90.0576992,28.3520176 Z" id="Shape" fill="#A1C2D8"></path>
                                    <path d="M61.4143477,48.1733396 L35.2725989,48.1733396 C34.8973585,48.1733396 34.6471982,47.9224368 34.6471982,47.5460826 C34.6471982,47.1697284 34.8973585,46.9188256 35.2725989,46.9188256 L61.4143477,46.9188256 C61.7895881,46.9188256 62.0397484,47.1697284 62.0397484,47.5460826 C62.0397484,47.9224368 61.7895881,48.1733396 61.4143477,48.1733396 Z" id="Shape" fill="#A1C2D8"></path>
                                    <path d="M29.018592,48.1733396 L1.37588152,48.1733396 C1.0006411,48.1733396 0.750480827,47.9224368 0.750480827,47.5460826 C0.750480827,47.1697284 1.0006411,46.9188256 1.37588152,46.9188256 L29.018592,46.9188256 C29.3938324,46.9188256 29.6439927,47.1697284 29.6439927,47.5460826 C29.6439927,47.9224368 29.3938324,48.1733396 29.018592,48.1733396 Z" id="Shape" fill="#A1C2D8"></path>
                                    <path d="M46.6548914,52.313236 L1.37588152,52.313236 C1.0006411,52.313236 0.750480827,52.0623332 0.750480827,51.685979 C0.750480827,51.3096248 1.0006411,51.058722 1.37588152,51.058722 L46.6548914,51.058722 C47.0301318,51.058722 47.2802921,51.3096248 47.2802921,51.685979 C47.2802921,52.0623332 47.0301318,52.313236 46.6548914,52.313236 Z" id="Shape" fill="#A1C2D8"></path>
                                    <path d="M142.341197,52.313236 L52.5336579,52.313236 C52.1584175,52.313236 51.9082572,52.0623332 51.9082572,51.685979 C51.9082572,51.3096248 52.1584175,51.058722 52.5336579,51.058722 L142.341197,51.058722 C142.716437,51.058722 142.966598,51.3096248 142.966598,51.685979 C142.966598,52.0623332 142.716437,52.313236 142.341197,52.313236 Z" id="Shape" fill="#A1C2D8"></path>
                                    <path d="M50.0320551,56.4531324 L1.37588152,56.4531324 C1.0006411,56.4531324 0.750480827,56.2022296 0.750480827,55.8258754 C0.750480827,55.4495212 1.0006411,55.1986183 1.37588152,55.1986183 L50.0320551,55.1986183 C50.4072955,55.1986183 50.6574558,55.4495212 50.6574558,55.8258754 C50.6574558,56.2022296 50.4072955,56.4531324 50.0320551,56.4531324 Z" id="Shape" fill="#A1C2D8"></path>
                                    <path d="M127.956981,56.4531324 L56.4111422,56.4531324 C56.0359018,56.4531324 55.7857415,56.2022296 55.7857415,55.8258754 C55.7857415,55.4495212 56.0359018,55.1986183 56.4111422,55.1986183 L127.956981,55.1986183 C128.332221,55.1986183 128.582382,55.4495212 128.582382,55.8258754 C128.582382,56.2022296 128.332221,56.4531324 127.956981,56.4531324 Z" id="Shape" fill="#A1C2D8"></path>
                                    <path d="M90.0576992,60.7184802 L69.1693162,60.7184802 C68.7940758,60.7184802 68.5439155,60.4675774 68.5439155,60.0912232 C68.5439155,59.7148689 68.7940758,59.4639661 69.1693162,59.4639661 L90.0576992,59.4639661 C90.4329397,59.4639661 90.6830999,59.7148689 90.6830999,60.0912232 C90.6830999,60.4675774 90.4329397,60.7184802 90.0576992,60.7184802 Z" id="Shape" fill="#A1C2D8"></path>
                                    <path d="M62.6651491,60.7184802 L35.2725989,60.7184802 C34.8973585,60.7184802 34.6471982,60.4675774 34.6471982,60.0912232 C34.6471982,59.7148689 34.8973585,59.4639661 35.2725989,59.4639661 L62.6651491,59.4639661 C63.0403895,59.4639661 63.2905497,59.7148689 63.2905497,60.0912232 C63.2905497,60.4675774 63.0403895,60.7184802 62.6651491,60.7184802 Z" id="Shape" fill="#A1C2D8"></path>
                                    <path d="M29.018592,60.7184802 L1.37588152,60.7184802 C1.0006411,60.7184802 0.750480827,60.4675774 0.750480827,60.0912232 C0.750480827,59.7148689 1.0006411,59.4639661 1.37588152,59.4639661 L29.018592,59.4639661 C29.3938324,59.4639661 29.6439927,59.7148689 29.6439927,60.0912232 C29.6439927,60.4675774 29.3938324,60.7184802 29.018592,60.7184802 Z" id="Shape" fill="#A1C2D8"></path>
                                    <path d="M46.6548914,64.8583766 L1.37588152,64.8583766 C1.0006411,64.8583766 0.750480827,64.6074737 0.750480827,64.2311195 C0.750480827,63.8547653 1.0006411,63.6038625 1.37588152,63.6038625 L46.6548914,63.6038625 C47.0301318,63.6038625 47.2802921,63.8547653 47.2802921,64.2311195 C47.2802921,64.6074737 47.0301318,64.8583766 46.6548914,64.8583766 Z" id="Shape" fill="#A1C2D8"></path>
                                    <path d="M142.341197,64.8583766 L52.5336579,64.8583766 C52.1584175,64.8583766 51.9082572,64.6074737 51.9082572,64.2311195 C51.9082572,63.8547653 52.1584175,63.6038625 52.5336579,63.6038625 L142.341197,63.6038625 C142.716437,63.6038625 142.966598,63.8547653 142.966598,64.2311195 C142.966598,64.6074737 142.716437,64.8583766 142.341197,64.8583766 Z" id="Shape" fill="#A1C2D8"></path>
                                    <path d="M50.0320551,68.9982729 L1.37588152,68.9982729 C1.0006411,68.9982729 0.750480827,68.7473701 0.750480827,68.3710159 C0.750480827,67.9946617 1.0006411,67.7437589 1.37588152,67.7437589 L50.0320551,67.7437589 C50.4072955,67.7437589 50.6574558,67.9946617 50.6574558,68.3710159 C50.6574558,68.7473701 50.4072955,68.9982729 50.0320551,68.9982729 Z" id="Shape" fill="#A1C2D8"></path>
                                    <path d="M127.956981,68.9982729 L56.4111422,68.9982729 C56.0359018,68.9982729 55.7857415,68.7473701 55.7857415,68.3710159 C55.7857415,67.9946617 56.0359018,67.7437589 56.4111422,67.7437589 L127.956981,67.7437589 C128.332221,67.7437589 128.582382,67.9946617 128.582382,68.3710159 C128.582382,68.7473701 128.332221,68.9982729 127.956981,68.9982729 Z" id="Shape" fill="#A1C2D8"></path>
                                    <path d="M127.08142,28.3520176 L94.0602637,28.3520176 C93.6850232,28.3520176 93.434863,28.1011148 93.434863,27.7247606 C93.434863,27.3484064 93.6850232,27.0975036 94.0602637,27.0975036 L127.08142,27.0975036 C127.45666,27.0975036 127.706821,27.3484064 127.706821,27.7247606 C127.706821,28.1011148 127.45666,28.3520176 127.08142,28.3520176 Z" id="Shape" fill="#A1C2D8"></path>
                                </g>
                                <path d="M172.48551,7.40163291 C171.484869,7.40163291 170.609308,6.52347308 170.609308,5.51986183 C170.609308,4.51625059 171.484869,3.63809075 172.48551,3.63809075 C173.486151,3.63809075 174.361712,4.51625059 174.361712,5.51986183 C174.361712,6.52347308 173.486151,7.40163291 172.48551,7.40163291 Z M172.48551,4.89260481 C172.11027,4.89260481 171.860109,5.14350762 171.860109,5.51986183 C171.860109,5.89621605 172.11027,6.14711886 172.48551,6.14711886 C172.86075,6.14711886 173.110911,5.89621605 173.110911,5.51986183 C173.110911,5.14350762 172.86075,4.89260481 172.48551,4.89260481 Z" id="Shape" fill="#A1C2D8"></path>
                                <path d="M165.355942,7.40163291 C164.355301,7.40163291 163.47974,6.52347308 163.47974,5.51986183 C163.47974,4.51625059 164.355301,3.63809075 165.355942,3.63809075 C166.356583,3.63809075 167.232144,4.51625059 167.232144,5.51986183 C167.232144,6.52347308 166.356583,7.40163291 165.355942,7.40163291 Z M165.355942,4.89260481 C164.980702,4.89260481 164.730542,5.14350762 164.730542,5.51986183 C164.730542,5.89621605 164.980702,6.14711886 165.355942,6.14711886 C165.731183,6.14711886 165.981343,5.89621605 165.981343,5.51986183 C165.981343,5.14350762 165.731183,4.89260481 165.355942,4.89260481 Z" id="Shape" fill="#A1C2D8"></path>
                                <g opacity="0.07" transform="translate(48.452918, 0.000000)" fill="#3F555A" id="Shape">
                                    <polygon points="39.7285788 0.752708432 0.203255224 0.752708432 131.41232 115.666196 131.41232 81.0416078"></polygon>
                                    <polygon points="131.41232 53.3168473 131.41232 0.752708432 71.3738537 0.752708432"></polygon>
                                </g>
                            </g>
                            <ellipse id="Oval" fill="#E7F1F8" cx="115.574047" cy="5.77076465" rx="1.25080138" ry="1.37996546"></ellipse>
                            <ellipse id="Oval" fill="#E7F1F8" cx="118.951211" cy="5.77076465" rx="1" ry="1"></ellipse>
                            <path d="M87.3059362,134.860261 C88.6818177,136.742032 90.6830999,138.121997 92.9345424,138.121997 L140.840235,138.121997 C143.091678,138.121997 145.09296,136.742032 146.468841,134.860261 L87.3059362,134.860261 Z" id="Shape" fill="#A1C2D8"></path>
                        </g>
                        <g transform="translate(109.742186, 116.669807)" fill="#A1C2D8" id="Shape">
                            <path d="M216.091573,135.612969 L18.4649553,135.612969 C18.0897149,135.612969 17.8395547,135.362066 17.8395547,134.985712 L17.8395547,9.5343068 C17.8395547,4.13989638 21.5919588,0 26.5951643,0 L207.461044,0 C212.589329,0 216.716974,4.13989638 216.716974,9.5343068 L216.716974,134.985712 C216.716974,135.362066 216.466814,135.612969 216.091573,135.612969 Z M19.090356,134.358455 L215.466172,134.358455 L215.466172,9.5343068 C215.466172,4.89260481 211.963929,1.25451405 207.461044,1.25451405 L26.5951643,1.25451405 C22.2173595,1.25451405 19.090356,4.7671534 19.090356,9.5343068 L19.090356,134.358455 Z"></path>
                            <path d="M223.971622,144.269116 L8.33346418,144.269116 C4.70614019,144.269116 2.07945729,143.265505 0.203255224,141.132831 C0.0781750861,141.00738 0.0781750861,140.881928 0.0781750861,140.756477 L0.0781750861,134.860261 C0.0781750861,134.483907 0.328335362,134.233004 0.703575775,134.233004 L231.10119,134.233004 C231.47643,134.233004 231.72659,134.483907 231.72659,134.860261 L231.72659,140.756477 C231.72659,140.881928 231.72659,141.00738 231.60151,141.132831 C229.725308,143.265505 227.348786,144.269116 223.971622,144.269116 Z M1.32897646,140.505574 C2.82993812,142.136442 5.20646074,143.014602 8.33346418,143.014602 L223.971622,143.014602 C226.848465,143.014602 228.849747,142.261894 230.475789,140.505574 L230.475789,135.487518 L1.32897646,135.487518 L1.32897646,140.505574 Z"></path>
                            <path d="M207.210883,126.329565 L26.5951643,126.329565 C26.2199239,126.329565 25.9697636,126.078662 25.9697636,125.702308 L25.9697636,10.7888209 C25.9697636,10.4124666 26.2199239,10.1615638 26.5951643,10.1615638 L207.210883,10.1615638 C207.586124,10.1615638 207.836284,10.4124666 207.836284,10.7888209 L207.836284,125.702308 C207.836284,126.078662 207.586124,126.329565 207.210883,126.329565 Z M27.220565,125.075051 L206.585483,125.075051 L206.585483,11.4160779 L27.220565,11.4160779 L27.220565,125.075051 Z"></path>
                            <path d="M115.902383,7.77798713 C114.901742,7.77798713 114.026181,6.89982729 114.026181,5.77076465 C114.026181,4.641702 114.901742,3.76354216 115.902383,3.76354216 C116.903024,3.76354216 117.778585,4.641702 117.778585,5.77076465 C117.778585,6.89982729 116.903024,7.77798713 115.902383,7.77798713 Z M115.902383,5.01805621 C115.527142,5.01805621 115.276982,5.39441043 115.276982,5.77076465 C115.276982,6.14711886 115.527142,6.52347308 115.902383,6.52347308 C116.277623,6.52347308 116.527783,6.14711886 116.527783,5.77076465 C116.527783,5.39441043 116.277623,5.01805621 115.902383,5.01805621 Z"></path>
                            <path d="M119.279546,6.89982729 C118.779226,6.89982729 118.278905,6.39802167 118.278905,5.77076465 C118.278905,5.14350762 118.779226,4.641702 119.279546,4.641702 C119.779867,4.641702 120.280188,5.14350762 120.280188,5.77076465 C120.280188,6.39802167 119.779867,6.89982729 119.279546,6.89982729 Z M119.279546,5.64531324 C119.154466,5.64531324 119.029386,5.77076465 119.029386,5.77076465 C119.029386,5.77076465 119.154466,5.89621605 119.279546,5.89621605 C119.404627,5.89621605 119.529707,5.77076465 119.529707,5.77076465 C119.529707,5.77076465 119.404627,5.64531324 119.279546,5.64531324 Z"></path>
                            <path d="M141.168571,138.749254 L93.2628778,138.749254 C91.0114353,138.749254 88.7599928,137.49474 87.133951,135.236615 C87.0088709,134.985712 87.0088709,134.734809 87.133951,134.609358 C87.2590312,134.358455 87.5091914,134.233004 87.6342716,134.233004 L146.797177,134.233004 C147.047337,134.233004 147.297497,134.358455 147.297497,134.609358 C147.422577,134.860261 147.422577,135.111164 147.297497,135.236615 C145.671456,137.49474 143.420013,138.749254 141.168571,138.749254 Z M89.0101531,135.487518 C90.2609545,136.742032 91.7619161,137.49474 93.2628778,137.49474 L141.168571,137.49474 C142.669532,137.49474 144.170494,136.742032 145.421295,135.487518 L89.0101531,135.487518 Z"></path>
                        </g>
                    </g>
                </g>
            </g>
        </g>
    </g>
</svg>