<?xml version="1.0" encoding="utf-8"?>
<!-- Generator: Adobe Illustrator 20.1.0, SVG Export Plug-In . SVG Version: 6.00 Build 0)  -->
<svg version="1.1" id="Layer_1" xmlns="http://www.w3.org/2000/svg" xmlns:xlink="http://www.w3.org/1999/xlink" x="0px" y="0px"
	 viewBox="0 0 892.9 542.7" style="enable-background:new 0 0 892.9 542.7;" xml:space="preserve">
<style type="text/css">
	.st0{opacity:0.5;fill-rule:evenodd;clip-rule:evenodd;fill:#A9D7F3;enable-background:new    ;}
	.st1{fill:#A9D7F3;}
	.st2{opacity:0.2;}
	.st3{fill:#3F555A;}
	.st4{fill:#FFFFFF;}
	.st5{opacity:0.7;fill:#FFFFFF;}
	.st6{fill:#A1C2D8;}
	.st7{fill:#DD5566;}
	.st8{fill:#BC1A3C;}
	.st9{fill:#999999;}
	.st10{opacity:0.6;}
	.st11{fill:#FFDC64;}
	.st12{fill:#FAAC30;}
	.st13{fill:#8860BD;}
	.st14{fill:#7043AB;}
	.st15{fill:#E0E0E0;}
	.st16{fill:#A1B4B7;}
	.st17{fill:#D0E4F0;}
	.st18{fill:#40565B;}
	.st19{fill:#8FD1BE;}
	.st20{fill:#29B99A;}
	.st21{fill:#D0E4F1;}
	.st22{fill:#F56F40;}
	.st23{fill:#D65129;}
	.st24{fill:#233839;}
	.st25{fill:#19BC9C;}
	.st26{fill:#109995;}
	.st27{opacity:4.000000e-02;fill:#3F555A;}
	.st28{fill:#3290C1;}
	.st29{fill:#1E6B96;}
	.st30{opacity:0.36;fill:#A6D2E2;}
	.st31{opacity:0.16;fill:#FFFFFF;}
	.st32{fill:#1785C8;}
	.st33{fill:#3AA1D6;}
	.st34{fill:#164A67;}
	.st35{fill:#69BFE2;}
	.st36{fill:#C84A27;}
	.st37{fill:#F36F42;}
	.st38{fill:#F9AC9D;}
	.st39{fill:#A0C1D7;}
	.st40{fill:#E7F1F8;}
	.st41{opacity:7.000000e-02;}
</style>
<g>
	<path class="st0" d="M76.7,305.3c-75.6,56.8-70.8,145.8-31,193.3s157.3,34.9,397.8,35.6c89.3,0,352.5-11.6,388.8-35.6
		c54.5-36,79.9-114-61.6-255.6s-77.1,8.6-160.2-59.2c-83.2-67.7-44.6-162.1-178.5-157.5S381.6,198.1,298,215.4
		C242.3,226.9,168.5,256.9,76.7,305.3z"/>
	<g>
		<path class="st1" d="M46,482.3v16.4c39.8,47.5,157.3,34.9,397.8,35.6c89.3,0,352.5-11.6,388.8-35.6v-16.4H46z"/>
		<path class="st1" d="M241.4,536c-109.9,0-169.2-5-195.9-36.9l-0.2-0.2v-17.3h788V499l-0.3,0.2c-37.8,25-308.4,35.8-389.2,35.8
			c-47.2-0.2-89.9,0.2-127.6,0.5C289,535.8,264.1,536,241.4,536z M46.7,498.4c31.9,37.8,116.3,37,269.4,35.7
			c37.7-0.3,80.5-0.7,127.7-0.5c96.8,0,352-12.4,388.1-35.3V483H46.7V498.4z"/>
	</g>
	<g class="st2">
		<path class="st3" d="M144.5,509.2c-26.1,0-52.1-2.1-77.4-6.2c-0.8-0.1-1.2-0.6-1-1.1c0.2-0.5,1-0.7,1.8-0.6
			c32.6,5.3,66.1,7.2,99.7,5.6c25.6-1.2,51.5-4.5,76.5-7.6c39.3-5,80-10.1,120.5-7.3c0.8,0.1,1.4,0.5,1.3,1
			c-0.1,0.5-0.8,0.8-1.6,0.8c-40-2.8-80.5,2.3-119.6,7.3c-25.1,3.2-51,6.5-76.8,7.7C160,509.1,152.2,509.2,144.5,509.2z"/>
		<path class="st3" d="M314.3,516c-5.6,0-11.1-0.6-16.1-1.7c-0.7-0.2-1.1-0.7-0.9-1.1s1.1-0.7,1.9-0.5c6.7,1.5,14.3,1.9,22,1.3
			c7-0.6,14.2-2.1,21.2-4.5c0.7-0.2,1.6-0.1,2,0.3c0.4,0.4,0.1,1-0.6,1.2c-7.3,2.5-14.8,4-22.2,4.7C319.2,515.9,316.7,516,314.3,516
			z"/>
		<path class="st3" d="M319.4,522.6c-17.6,0-37.9-2.1-55.4-9.2c-0.7-0.3-0.8-0.8-0.4-1.2c0.4-0.4,1.3-0.5,2-0.2
			c23.2,9.5,51.8,9.7,71.7,8.2c19.1-1.4,38-4.8,56.2-8.1c5.6-1,11.2-2,16.8-3c22.5-3.8,49-7.5,75.1-5.3c0.8,0.1,1.3,0.5,1.2,1
			c-0.1,0.5-0.8,0.8-1.6,0.8c-25.6-2.1-51.7,1.4-73.9,5.2c-5.6,1-11.2,2-16.7,3c-18.4,3.3-37.3,6.7-56.7,8.2
			C332.1,522.3,325.9,522.6,319.4,522.6z"/>
		<path class="st3" d="M641.5,502.8c-9.3,0-18.5-0.8-27.5-1.6c-3.5-0.3-7-0.6-10.5-0.9c-11.9-0.9-27.4-1.5-40.9,1.9
			c-0.7,0.2-1.6,0-1.9-0.5c-0.3-0.4,0-1,0.8-1.1c14.1-3.5,30-2.9,42.3-2c3.5,0.3,7,0.6,10.5,0.9c10.2,0.9,20.8,1.8,31.1,1.5
			c12.7-0.4,25.4-2.6,37.7-4.7c16.2-2.8,33-5.7,50-4.4c0.8,0.1,1.4,0.5,1.3,1c-0.1,0.5-0.8,0.8-1.6,0.8c-16.4-1.2-32.9,1.6-48.9,4.4
			c-12.5,2.2-25.3,4.4-38.4,4.8C644.3,502.8,642.9,502.8,641.5,502.8z"/>
		<path class="st3" d="M720.9,507.2c-3.2,0-6.4-0.1-9.6-0.2c-0.8,0-1.4-0.5-1.3-0.9c0.1-0.5,0.7-0.8,1.6-0.8
			c8.6,0.4,17.3,0.3,25.8-0.5c0.8-0.1,1.5,0.3,1.6,0.7c0.1,0.5-0.4,0.9-1.2,1C732.2,507,726.5,507.2,720.9,507.2z"/>
		<path class="st3" d="M225.3,519c-0.5,0-0.9-0.1-1.2-0.4c-0.5-0.4-0.3-0.9,0.4-1.2c6.7-2.8,16.1-3,23.1-0.4
			c0.7,0.3,0.9,0.8,0.5,1.2c-0.4,0.4-1.3,0.5-2,0.3c-6-2.2-14.2-2-19.9,0.4C225.8,518.9,225.5,519,225.3,519z"/>
		<path class="st3" d="M143.6,503.1c-5.3,0-10.7-0.1-16.1-0.5c-3.5-0.2-7.5-0.7-10.2-1.8c-0.6-0.2-1.2-0.6-1.4-1.1
			c-0.2-0.4-0.3-1.5,2.9-2.2c2.1-0.5,4.4-0.7,6.7-0.9c10.9-0.8,22.2-0.7,32.9,0.3c0.8,0.1,1.3,0.5,1.2,1c-0.1,0.5-0.8,0.8-1.7,0.7
			c-10.4-1-21.4-1.1-32-0.3c-2.1,0.2-4.2,0.4-6,0.8c-0.4,0.1-0.6,0.2-0.8,0.2c2.2,0.9,5.9,1.3,8.9,1.5c9.6,0.7,19.6,0.5,28,0.3
			c5.3-0.1,11.4-0.4,17.2-1.1c2.6-0.3,4.5-0.7,6.1-1.1c1.7-0.5,2.3-0.9,2.3-1.1c0-0.1-0.4-0.6-2.2-1.1c-2.9-0.9-6.6-1.4-10.1-1.9
			c-9.3-1.2-18.9-1.8-28.7-2c-0.8,0-1.4-0.4-1.4-0.9c0-0.5,0.7-0.9,1.5-0.8c10,0.2,19.8,0.9,29.2,2.1c3.7,0.5,7.6,1,10.8,2
			c2.6,0.8,3.9,1.7,3.8,2.8c-0.1,1-1.5,1.9-4,2.6c-1.8,0.5-3.9,0.9-6.7,1.2c-5.9,0.7-12.2,0.9-17.6,1.1
			C152.1,503.1,147.9,503.1,143.6,503.1z"/>
		<path class="st3" d="M770.8,501.4c-2.6,0-5.3-0.1-7.9-0.2c-1.7-0.1-3.7-0.3-5-0.9c-0.3-0.1-0.6-0.3-0.7-0.5
			c-0.1-0.2-0.1-0.7,1.4-1.1c1-0.2,2.2-0.4,3.3-0.4c5.3-0.4,10.9-0.4,16.2,0.1c0.4,0,0.7,0.3,0.6,0.5c-0.1,0.2-0.4,0.4-0.8,0.4
			c-5.1-0.5-10.6-0.5-15.8-0.1c-1,0.1-2.1,0.2-2.9,0.4c-0.2,0-0.3,0.1-0.4,0.1c1.1,0.4,2.9,0.6,4.4,0.7c4.7,0.3,9.6,0.3,13.8,0.2
			c2.6-0.1,5.6-0.2,8.4-0.5c1.3-0.2,2.2-0.3,3-0.5c0.8-0.2,1.1-0.4,1.1-0.5c0-0.1-0.2-0.3-1.1-0.6c-1.4-0.4-3.2-0.7-5-0.9
			c-4.6-0.6-9.3-0.9-14.1-1c-0.4,0-0.7-0.2-0.7-0.4c0-0.2,0.3-0.4,0.7-0.4c4.9,0.1,9.7,0.4,14.4,1c1.8,0.2,3.7,0.5,5.3,1
			c1.3,0.4,1.9,0.9,1.9,1.4c0,0.5-0.7,0.9-2,1.3c-0.9,0.2-1.9,0.4-3.3,0.6c-2.9,0.4-6,0.5-8.7,0.5
			C774.9,501.4,772.9,501.4,770.8,501.4z"/>
		<path class="st3" d="M463.9,523.8c-6.9,0-12-0.8-13.6-3.1c-0.8-1-1.3-3.1,3.5-5.2c7.1-3.2,23.5-5.1,28.2-2.6
			c0.2,0.1,0.4,0.3,0.4,0.4c0.4,0.8,0.3,1.6-0.3,2.2c-0.7,0.7-2.1,1.2-4.1,1.5c-0.8,0.1-1.6-0.2-1.7-0.7s0.3-0.9,1.1-1
			c1.1-0.2,1.9-0.4,2.2-0.7c0.1-0.1,0.2-0.2,0.1-0.5c-3.7-1.4-17.7-0.1-24.3,2.8c-2.4,1.1-3.3,2.1-2.5,3.1
			c3.1,4.2,30.4,0.8,39.3-0.3c1.8-0.2,3.2-0.4,4.2-0.5c11.1-1.2,22.4-2.6,33.3-4c32.5-4.1,66.2-8.4,100.1-6.7c0.8,0,1.4,0.5,1.3,0.9
			c-0.1,0.5-0.7,0.8-1.6,0.8c-33.5-1.7-66.9,2.5-99.2,6.6c-10.9,1.4-22.2,2.8-33.4,4c-0.9,0.1-2.3,0.3-4.1,0.5
			C482.1,522.7,471.8,523.8,463.9,523.8z"/>
	</g>
	<g>
		<g>
			<g>
				<polygon class="st4" points="526.9,250.6 355,250.6 345.7,243 335.7,243 335.7,116.8 526.9,116.8 				"/>
				<path class="st3" d="M526.9,251.3H355c-0.2,0-0.3-0.1-0.4-0.2l-9.1-7.4h-9.8c-0.4,0-0.7-0.3-0.7-0.7V116.8
					c0-0.4,0.3-0.7,0.7-0.7h191.3c0.4,0,0.7,0.3,0.7,0.7v133.8C527.7,251,527.3,251.3,526.9,251.3z M355.3,249.9h170.9V117.5H336.4
					v124.8h9.4c0.2,0,0.3,0.1,0.4,0.2L355.3,249.9z"/>
			</g>
			<polyline class="st5" points="543.8,121.8 514.6,121.7 515.4,124.7 513.7,127.6 515.7,128.8 513.7,132.4 514.5,135.8 
				543.7,135.9 514.9,135.8 544.1,135.9 543.3,132.8 545,130 543,128.8 545,125.1 544.2,121.8 514.9,121.7 			"/>
			<path class="st3" d="M544.1,136.6L544.1,136.6l-29.2-0.1c0,0,0,0,0,0l-0.4,0c-0.3,0-0.6-0.2-0.7-0.5l-0.9-3.4
				c0-0.2,0-0.4,0.1-0.5l1.7-3.1l-1.5-0.9c-0.2-0.1-0.3-0.3-0.3-0.4c0-0.2,0-0.4,0.1-0.5l1.6-2.6l-0.7-2.7c-0.1-0.2,0-0.4,0.1-0.6
				c0.1-0.2,0.3-0.3,0.6-0.3h0l0.4,0c0,0,0,0,0,0h0l28.8,0.1c0,0,0,0,0,0l0.4,0c0.3,0,0.6,0.2,0.7,0.5l0.9,3.4c0,0.2,0,0.4-0.1,0.5
				l-1.7,3.1l1.5,0.9c0.2,0.1,0.3,0.3,0.3,0.4c0,0.2,0,0.4-0.1,0.5l-1.6,2.6l0.7,2.7c0.1,0.2,0,0.4-0.1,0.6
				C544.6,136.5,544.4,136.6,544.1,136.6z M515.1,135.1l28.1,0.1l-0.6-2.1c-0.1-0.2,0-0.4,0.1-0.6l1.3-2.2l-1.4-0.8
				c-0.3-0.2-0.4-0.6-0.3-1l1.9-3.4l-0.7-2.6l-28.1-0.1l0.6,2.1c0.1,0.2,0,0.4-0.1,0.5l-1.3,2.2l1.4,0.8c0.3,0.2,0.4,0.6,0.3,1
				l-1.9,3.4L515.1,135.1z"/>
			<polyline class="st5" points="341,105.5 323,116.2 325,118.5 325.4,121.6 327.3,121.8 327.9,125.8 330.2,128.3 348.2,117.6 
				330.4,128.2 348.4,117.5 346.4,115.2 346,112.1 344.1,111.8 343.5,107.9 341.2,105.4 323.2,116.1 			"/>
			<path class="st3" d="M330.2,129c-0.2,0-0.4-0.1-0.5-0.2l-2.2-2.6c-0.1-0.1-0.1-0.2-0.2-0.4l-0.5-3.4l-1.4-0.2
				c-0.3,0-0.6-0.3-0.6-0.6l-0.4-2.8l-1.9-2.1c-0.1-0.2-0.2-0.4-0.2-0.6c0-0.2,0.2-0.4,0.3-0.5l0.2-0.1c0,0,0,0,0,0l17.8-10.6
				c0,0,0,0,0,0l0.2-0.1c0.3-0.2,0.7-0.1,0.9,0.1l2.2,2.6c0.1,0.1,0.1,0.2,0.2,0.4l0.5,3.4l1.4,0.2c0.3,0,0.6,0.3,0.6,0.6l0.4,2.8
				l1.9,2.1c0.1,0.2,0.2,0.4,0.2,0.6c0,0.2-0.2,0.4-0.3,0.5l-18.3,10.9C330.4,129,330.3,129,330.2,129z M328.6,125.4l1.7,2l17-10.1
				l-1.5-1.7c-0.1-0.1-0.2-0.2-0.2-0.4l-0.3-2.5l-1.4-0.2c-0.3,0-0.5-0.3-0.6-0.6l-0.6-3.7l-1.7-2l-17,10.1l1.5,1.7
				c0.1,0.1,0.2,0.2,0.2,0.4l0.3,2.5l1.4,0.2c0.3,0,0.5,0.3,0.6,0.6L328.6,125.4z"/>
			<polyline class="st5" points="530.1,235.4 513.6,251.8 516.2,253.5 517.3,256.5 519.3,256.2 520.7,259.9 523.6,261.8 540,245.4 
				523.8,261.6 540.3,245.1 537.6,243.5 536.6,240.5 534.6,240.8 533.2,237.1 530.3,235.2 513.9,251.6 			"/>
			<path class="st3" d="M523.6,262.5c-0.1,0-0.3,0-0.4-0.1l-2.9-1.9c-0.1-0.1-0.2-0.2-0.3-0.3l-1.2-3.2l-1.4,0.2
				c-0.3,0.1-0.7-0.1-0.8-0.5l-1-2.7l-2.4-1.5c-0.2-0.1-0.3-0.3-0.3-0.5c0-0.2,0.1-0.4,0.2-0.6l16.4-16.4c0,0,0,0,0,0l0.2-0.2
				c0.2-0.2,0.6-0.3,0.9-0.1l2.9,1.9c0.1,0.1,0.2,0.2,0.3,0.3l1.2,3.2l1.4-0.2c0.3-0.1,0.7,0.1,0.8,0.5l1,2.7l2.4,1.5
				c0.2,0.1,0.3,0.3,0.3,0.5c0,0.2-0.1,0.4-0.2,0.6l-16.4,16.4c0,0,0,0,0,0l-0.2,0.2C524,262.4,523.8,262.5,523.6,262.5z
				 M521.3,259.5l2.2,1.4l15.6-15.6l-1.9-1.2c-0.1-0.1-0.2-0.2-0.3-0.4l-0.8-2.4l-1.4,0.2c-0.3,0.1-0.6-0.1-0.8-0.4l-1.4-3.6
				l-2.2-1.4l-15.6,15.6l1.9,1.2c0.1,0.1,0.2,0.2,0.3,0.4l0.8,2.4l1.4-0.2c0.3-0.1,0.6,0.1,0.8,0.4L521.3,259.5z"/>
		</g>
		<g>
			<g>
				
					<rect x="476.9" y="30.5" transform="matrix(0.9649 0.2625 -0.2625 0.9649 31.422 -129.2366)" class="st4" width="45" height="45"/>
				<path class="st3" d="M515.1,81.3c-0.1,0-0.1,0-0.2,0l-43.4-11.8c-0.2,0-0.3-0.2-0.4-0.3c-0.1-0.2-0.1-0.4-0.1-0.5l11.8-43.4
					c0.1-0.4,0.5-0.6,0.9-0.5l43.4,11.8c0.2,0,0.3,0.2,0.4,0.3c0.1,0.2,0.1,0.4,0.1,0.5l-11.8,43.4
					C515.7,81.1,515.5,81.3,515.1,81.3z M472.6,68.3l42,11.4l11.4-42l-42-11.4L472.6,68.3z"/>
			</g>
			<path class="st6" d="M515.5,44.1c-0.1,0-0.1,0-0.2,0l-25.3-6.9c-0.4-0.1-0.6-0.5-0.5-0.9c0.1-0.4,0.5-0.6,0.9-0.5l25.3,6.9
				c0.4,0.1,0.6,0.5,0.5,0.9C516.1,43.9,515.9,44.1,515.5,44.1z"/>
			<path class="st6" d="M513.4,52.1c-0.1,0-0.1,0-0.2,0l-25.3-6.9c-0.4-0.1-0.6-0.5-0.5-0.9c0.1-0.4,0.5-0.6,0.9-0.5l25.3,6.9
				c0.4,0.1,0.6,0.5,0.5,0.9C514,51.9,513.7,52.1,513.4,52.1z"/>
			<path class="st6" d="M510.1,64.1c-0.1,0-0.1,0-0.2,0l-25.3-6.9c-0.4-0.1-0.6-0.5-0.5-0.9c0.1-0.4,0.5-0.6,0.9-0.5l25.3,6.9
				c0.4,0.1,0.6,0.5,0.5,0.9C510.7,63.9,510.4,64.1,510.1,64.1z"/>
		</g>
		<g>
			<g>
				
					<rect x="278" y="243.3" transform="matrix(0.9859 -0.1674 0.1674 0.9859 -40.2559 54.0486)" class="st4" width="45" height="45"/>
				<path class="st3" d="M282.1,292.5c-0.3,0-0.6-0.2-0.7-0.6l-7.5-44.3c-0.1-0.4,0.2-0.7,0.6-0.8l44.3-7.5c0.4-0.1,0.7,0.2,0.8,0.6
					l7.5,44.3c0.1,0.4-0.2,0.7-0.6,0.8l-44.3,7.5C282.1,292.4,282.1,292.5,282.1,292.5z M275.4,248l7.3,42.9l42.9-7.3l-7.3-42.9
					L275.4,248z"/>
			</g>
			<path class="st6" d="M285.3,255.4c-0.3,0-0.6-0.2-0.7-0.6c-0.1-0.4,0.2-0.7,0.6-0.8l25.8-4.4c0.4-0.1,0.7,0.2,0.8,0.6
				c0.1,0.4-0.2,0.7-0.6,0.8l-25.8,4.4C285.4,255.4,285.3,255.4,285.3,255.4z"/>
			<path class="st6" d="M286.7,263.6c-0.3,0-0.6-0.2-0.7-0.6c-0.1-0.4,0.2-0.7,0.6-0.8l25.8-4.4c0.4-0.1,0.7,0.2,0.8,0.6
				c0.1,0.4-0.2,0.7-0.6,0.8l-25.8,4.4C286.8,263.6,286.7,263.6,286.7,263.6z"/>
			<path class="st6" d="M288.8,275.9c-0.3,0-0.6-0.2-0.7-0.6c-0.1-0.4,0.2-0.7,0.6-0.8l25.8-4.4c0.4-0.1,0.7,0.2,0.8,0.6
				c0.1,0.4-0.2,0.7-0.6,0.8l-25.8,4.4C288.8,275.9,288.8,275.9,288.8,275.9z"/>
		</g>
		<g>
			<path class="st3" d="M647.1,147.1h-68.2c-1.7,0-3-1.4-3-3V53.2c0-1.7,1.4-3,3-3h68.2c1.7,0,3,1.4,3,3v90.9
				C650.1,145.8,648.8,147.1,647.1,147.1z M578.9,51.6c-0.9,0-1.6,0.7-1.6,1.6v90.9c0,0.9,0.7,1.6,1.6,1.6h68.2
				c0.9,0,1.6-0.7,1.6-1.6V53.2c0-0.9-0.7-1.6-1.6-1.6H578.9z"/>
			<path class="st6" d="M634.8,70.9h-43.6c-0.4,0-0.7-0.3-0.7-0.7s0.3-0.7,0.7-0.7h43.6c0.4,0,0.7,0.3,0.7,0.7
				S635.2,70.9,634.8,70.9z"/>
			<path class="st6" d="M634.8,127.8h-43.6c-0.4,0-0.7-0.3-0.7-0.7s0.3-0.7,0.7-0.7h43.6c0.4,0,0.7,0.3,0.7,0.7
				S635.2,127.8,634.8,127.8z"/>
			<path class="st6" d="M622.4,99.4h-18.8c-0.4,0-0.7-0.3-0.7-0.7s0.3-0.7,0.7-0.7h18.8c0.4,0,0.7,0.3,0.7,0.7
				S622.8,99.4,622.4,99.4z"/>
			<path class="st6" d="M634.8,136.1h-43.6c-0.4,0-0.7-0.3-0.7-0.7c0-0.4,0.3-0.7,0.7-0.7h43.6c0.4,0,0.7,0.3,0.7,0.7
				C635.5,135.7,635.2,136.1,634.8,136.1z"/>
			<polyline class="st5" points="617.8,40.5 605.2,53.1 607.4,54.5 608.3,56.9 609.9,56.8 611.3,59.9 613.6,61.5 626.2,48.9 
				613.8,61.3 626.4,48.7 624.2,47.3 623.3,44.9 621.7,45 620.3,41.9 617.9,40.3 605.4,52.9 			"/>
			<path class="st3" d="M613.6,62.2c-0.1,0-0.3,0-0.4-0.1l-2.4-1.6c-0.1-0.1-0.2-0.2-0.3-0.3l-1.1-2.6l-1.1,0.1
				c-0.3,0-0.6-0.1-0.7-0.4l-0.9-2.2l-2-1.3c-0.2-0.1-0.3-0.3-0.3-0.5c0-0.2,0.1-0.4,0.2-0.6l0.1-0.1c0,0,0,0,0,0l12.6-12.6
				c0.2-0.2,0.6-0.3,0.9-0.1l2.4,1.6c0.1,0.1,0.2,0.2,0.3,0.3l1.1,2.6l1.1-0.1c0.3,0,0.6,0.1,0.7,0.4l0.9,2.2l2,1.3
				c0.2,0.1,0.3,0.3,0.3,0.5c0,0.2-0.1,0.4-0.2,0.6l-12.6,12.6c0,0,0,0,0,0l-0.1,0.1C614,62.1,613.8,62.2,613.6,62.2z M611.8,59.4
				l1.7,1.2l11.7-11.7l-1.5-1c-0.1-0.1-0.2-0.2-0.3-0.3l-0.8-1.9l-1.1,0.1c-0.3,0-0.6-0.1-0.7-0.4l-1.2-2.9l-1.7-1.2L606.3,53l1.5,1
				c0.1,0.1,0.2,0.2,0.3,0.3l0.8,1.9l1.1-0.1c0.3,0,0.6,0.1,0.7,0.4L611.8,59.4z"/>
			<g>
				<path class="st3" d="M613,117.1c-1.3,0-2.4-1.1-2.4-2.4c0,0,0-0.1,0-0.2c0.1-0.4,0.4-0.7,0.8-0.6c0.4,0,0.7,0.3,0.6,0.7
					c0,0,0,0.1,0,0.1c0,0.5,0.4,1,1,1c0.5,0,1-0.4,1-1c0-0.4,0.3-0.7,0.7-0.8c0.4,0,0.7,0.3,0.7,0.6
					C615.4,116,614.3,117.1,613,117.1z"/>
				<path class="st3" d="M596.2,100.4c-1.3,0-2.4-1.1-2.4-2.4c0-1.3,1.1-2.4,2.4-2.4c0.2,0,0.4,0,0.6,0.1c0.4,0.1,0.6,0.5,0.5,0.9
					c-0.1,0.4-0.5,0.6-0.9,0.5c-0.1,0-0.2,0-0.2,0c-0.6,0-1,0.4-1,1c0,0.6,0.4,1,1,1c0.1,0,0.1,0,0.2,0c0.4-0.1,0.8,0.1,0.9,0.5
					c0.1,0.4-0.1,0.8-0.5,0.9C596.6,100.4,596.4,100.4,596.2,100.4z"/>
				<path class="st3" d="M611.3,82.1C611.3,82.1,611.3,82.1,611.3,82.1c-0.4,0-0.7-0.3-0.7-0.7c0-1.3,1.1-2.4,2.4-2.4
					c1.3,0,2.3,1,2.4,2.3c0,0.4-0.3,0.7-0.7,0.7c-0.4,0-0.7-0.3-0.7-0.7c0-0.5-0.5-0.9-1-0.9c-0.5,0-1,0.4-1,1
					C612,81.8,611.7,82.1,611.3,82.1z"/>
				<path class="st3" d="M629.9,100.4c-0.4,0-0.7-0.3-0.7-0.7c0-0.4,0.3-0.7,0.7-0.8c0.5,0,0.9-0.5,0.9-1c0-0.5-0.4-0.9-0.9-1
					c-0.4,0-0.7-0.4-0.7-0.8c0-0.4,0.4-0.7,0.8-0.7c1.3,0.1,2.2,1.1,2.2,2.4C632.2,99.2,631.2,100.3,629.9,100.4
					C629.9,100.4,629.9,100.4,629.9,100.4z"/>
				<path class="st3" d="M614.7,115.3c-0.2,0-0.3-0.1-0.5-0.2c-0.1-0.1-0.2-0.3-0.2-0.5c0-0.5-0.5-1-1-1c-0.5,0-0.9,0.4-1,0.9
					c0,0.2-0.1,0.4-0.3,0.5c-0.1,0.1-0.3,0.2-0.5,0.2c-8.1-0.9-14.5-7.5-15.3-15.6c0-0.3,0.2-0.7,0.5-0.8c0.4-0.1,0.8-0.5,0.8-1
					s-0.3-0.9-0.8-1c-0.3-0.1-0.6-0.4-0.5-0.8c0.8-8.1,7.2-14.6,15.3-15.6c0.2,0,0.4,0,0.6,0.2c0.2,0.1,0.2,0.3,0.2,0.5
					c0,0.6,0.4,1,1,1c0.5,0,1-0.4,1-1c0-0.2,0.1-0.4,0.2-0.6c0.1-0.1,0.3-0.2,0.5-0.2c8.4,0.7,15,7.3,15.9,15.6c0,0.2,0,0.4-0.2,0.6
					c-0.1,0.1-0.3,0.2-0.6,0.2c-0.6,0-1.1,0.4-1.1,1c0,0.6,0.4,1,1,1c0.2,0,0.4,0.1,0.5,0.2c0.1,0.1,0.3,0.3,0.2,0.6
					C629.8,108.1,623.1,114.6,614.7,115.3C614.7,115.3,614.7,115.3,614.7,115.3z M613,112.3c1,0,1.9,0.6,2.3,1.6
					c7.2-0.9,12.8-6.5,13.9-13.6c-1-0.3-1.7-1.2-1.7-2.3c0-1.1,0.7-2,1.7-2.3c-1-7.1-6.7-12.7-13.8-13.6c-0.3,1-1.2,1.7-2.3,1.7
					c-1.1,0-2-0.7-2.3-1.6c-6.9,1.1-12.4,6.7-13.3,13.7c0.8,0.4,1.2,1.2,1.2,2.1c0,0.9-0.5,1.7-1.2,2.1c0.9,7,6.4,12.6,13.4,13.7
					C611.1,112.9,612,112.3,613,112.3z"/>
			</g>
		</g>
		<g>
			<rect x="283" y="18.7" class="st4" width="152.4" height="82.5"/>
			<path class="st3" d="M435.4,101.9H283c-0.4,0-0.7-0.3-0.7-0.7V18.7c0-0.4,0.3-0.7,0.7-0.7h152.4c0.4,0,0.7,0.3,0.7,0.7v82.5
				C436.1,101.6,435.8,101.9,435.4,101.9z M283.7,100.5h151V19.4h-151V100.5z"/>
		</g>
		<g>
			<path class="st4" d="M307.9,206.9h-64.2c-1,0-1.8-0.8-1.8-1.8v-87.8c0-1,0.8-1.8,1.8-1.8h64.2c1,0,1.8,0.8,1.8,1.8v87.8
				C309.7,206.1,308.9,206.9,307.9,206.9z"/>
			<path class="st3" d="M307.9,207.6h-64.2c-1.4,0-2.5-1.1-2.5-2.5v-87.8c0-1.4,1.1-2.5,2.5-2.5h64.2c1.4,0,2.5,1.1,2.5,2.5v87.8
				C310.4,206.5,309.3,207.6,307.9,207.6z M243.8,116.2c-0.6,0-1,0.5-1,1v87.8c0,0.6,0.5,1,1,1h64.2c0.6,0,1-0.5,1-1v-87.8
				c0-0.6-0.5-1-1-1H243.8z"/>
		</g>
		<g>
			<path class="st3" d="M409.9,101.3c-0.1-1.6-0.2-3.3-0.2-5l1.4,0c0,1.7,0.1,3.3,0.2,4.9L409.9,101.3z"/>
			<path class="st3" d="M301.4,87.2l-1.3-0.4c1.1-3.3,2.3-6.3,3.6-9l1.3,0.6C303.6,81,302.4,84,301.4,87.2z M411.4,86.8l-1.4-0.1
				c0.3-3.2,0.6-6.4,1.2-9.6l1.4,0.2C412,80.4,411.7,83.6,411.4,86.8z M310.1,70.6l-1.1-0.9c0.3-0.4,0.6-0.7,0.9-1.1
				c2.3-2.4,4.4-4.1,6.7-5.2l0.6,1.3c-2,0.9-4.1,2.5-6.2,4.8C310.7,69.9,310.4,70.2,310.1,70.6z M344.6,69.9l-0.2,0l0-1.4
				c0,0,0,0,0,0c3.1,0,6-0.6,9-2l0.6,1.3C350.8,69.2,347.7,69.9,344.6,69.9z M414.6,68l-1.4-0.3c0.8-3.5,1.2-6.6,1.5-9.4l1.4,0.1
				C415.8,61.3,415.3,64.4,414.6,68z M334.9,67.9c-1.2-0.5-2.3-1-3.5-1.4c-1.9-0.8-3.6-1.5-5.4-2.1l0.4-1.4c1.8,0.5,3.6,1.3,5.5,2.1
				c1.1,0.5,2.3,1,3.4,1.4L334.9,67.9z M361,60.9l-1.4-0.3c0.1-0.6,0.2-1.3,0.2-2c0-1.9-0.5-4-1.1-6.1l-0.2-1l1.4-0.3l0.2,1
				c0.6,2.2,1.1,4.4,1.1,6.5C361.2,59.4,361.1,60.1,361,60.9z M414.3,49c-0.6-3.3-1.8-6.2-3.5-8.5l1.1-0.8c1.9,2.5,3.1,5.5,3.8,9.1
				L414.3,49z M359.7,42.2l-1.3-0.6c1.2-2.6,3.7-4.6,7.6-6.2l0.5,1.3C363,38.2,360.8,40,359.7,42.2z M403.6,35
				c-2.6-1.1-5.6-1.8-9.1-2.1l0.1-1.4c3.6,0.3,6.8,1.1,9.5,2.2L403.6,35z M375.7,34.2l-0.3-1.4c1.9-0.4,4.1-0.7,6.3-1
				c1.1-0.1,2.2-0.2,3.2-0.3l0.1,1.4c-1,0.1-2.1,0.2-3.1,0.3C379.7,33.5,377.6,33.8,375.7,34.2z"/>
			<path class="st3" d="M298.1,101.3l-1.4-0.2c0.3-1.7,0.6-3.3,0.9-4.9l1.4,0.3C298.6,98.1,298.3,99.7,298.1,101.3z"/>
		</g>
		<g>
			<path class="st3" d="M335.4,163.6c-0.3,0-0.6-0.2-0.7-0.5c-0.1-0.4,0.1-0.8,0.4-0.9c1.8-0.7,3.5-1,5-1.1c0.4,0,0.7,0.3,0.7,0.7
				c0,0.4-0.3,0.7-0.7,0.7c-1.4,0.1-2.9,0.4-4.6,1C335.6,163.6,335.5,163.6,335.4,163.6z"/>
			<path class="st3" d="M411.3,228.7c-2.2,0-4.6-0.1-7-0.2c-0.4,0-0.7-0.4-0.7-0.7c0-0.4,0.4-0.7,0.7-0.7c3.4,0.2,6.7,0.3,9.6,0.2
				c0.4,0,0.7,0.3,0.7,0.7c0,0.4-0.3,0.7-0.7,0.7C413.1,228.6,412.2,228.7,411.3,228.7z M423.7,227.7c-0.3,0-0.6-0.2-0.7-0.6
				c-0.1-0.4,0.2-0.7,0.6-0.8c3.4-0.6,6.5-1.5,9.2-2.6c0.4-0.2,0.8,0,0.9,0.4c0.2,0.4,0,0.8-0.4,0.9c-2.8,1.2-6,2.1-9.5,2.7
				C423.8,227.7,423.7,227.7,423.7,227.7z M394.6,227.5C394.6,227.5,394.6,227.5,394.6,227.5l-1.6-0.2c-2.9-0.4-5.6-0.9-8.2-1.4
				c-0.4-0.1-0.6-0.5-0.5-0.8c0.1-0.4,0.5-0.6,0.8-0.5c2.5,0.6,5.2,1,8.1,1.4l1.5,0.2c0.4,0,0.7,0.4,0.6,0.8
				C395.3,227.2,395,227.5,394.6,227.5z M375.7,223.2c-0.1,0-0.2,0-0.2,0c-3.3-1.2-6.3-2.6-8.9-4.3c-0.3-0.2-0.4-0.6-0.2-1
				c0.2-0.3,0.6-0.4,1-0.2c2.5,1.6,5.4,3,8.6,4.1c0.4,0.1,0.6,0.5,0.4,0.9C376.3,223,376,223.2,375.7,223.2z M441.1,219.9
				c-0.2,0-0.4-0.1-0.5-0.2c-0.3-0.3-0.2-0.7,0-1c2.2-2,4.1-4.5,5.8-7.5c0.2-0.3,0.6-0.5,1-0.3c0.3,0.2,0.5,0.6,0.3,1
				c-1.7,3.1-3.7,5.7-6,7.8C441.5,219.8,441.3,219.9,441.1,219.9z M359.7,212.8c-0.2,0-0.4-0.1-0.5-0.2c-2.2-2.5-3.8-5.3-5.1-8.5
				c-0.1-0.4,0-0.8,0.4-0.9c0.4-0.1,0.8,0,0.9,0.4c1.2,3,2.8,5.7,4.8,8.1c0.3,0.3,0.2,0.7-0.1,1C360,212.7,359.8,212.8,359.7,212.8z
				 M451.1,203.3c-0.1,0-0.2,0-0.3-0.1c-0.4-0.1-0.5-0.6-0.4-0.9c1.3-3.2,2.7-6.3,4.7-8.6c0.3-0.3,0.7-0.4,1-0.1
				c0.3,0.3,0.4,0.7,0.1,1c-1.9,2.2-3.2,5.2-4.5,8.3C451.6,203.2,451.3,203.3,451.1,203.3z M352.4,195.1c-0.4,0-0.7-0.3-0.7-0.6
				c-0.4-3.4-0.5-6.7-0.6-9.8c0-0.4,0.3-0.7,0.7-0.7c0.4,0,0.7,0.3,0.7,0.7c0,3.1,0.1,6.3,0.6,9.6
				C353.2,194.7,352.9,195,352.4,195.1C352.5,195.1,352.4,195.1,352.4,195.1z M462.5,187.9c-0.2,0-0.4-0.1-0.5-0.2
				c-0.3-0.3-0.2-0.7,0.1-1c3-2.6,5.8-4.2,8.6-5c0.4-0.1,0.8,0.1,0.9,0.5s-0.1,0.8-0.5,0.9c-2.6,0.8-5.2,2.3-8.1,4.7
				C462.8,187.9,462.7,187.9,462.5,187.9z M486.9,183c-2.4,0-4.6-0.2-6.5-0.4c-0.4,0-0.7-0.4-0.6-0.8c0-0.4,0.4-0.7,0.8-0.6
				c1.8,0.2,4,0.3,6.3,0.3c1.1,0,2.2,0,3.3-0.1c0.4,0,0.7,0.3,0.8,0.6c0,0.4-0.3,0.7-0.6,0.8C489.2,183,488.1,183,486.9,183z
				 M499.5,180.3c-0.2,0-0.5-0.1-0.6-0.4c-0.2-0.3-0.1-0.8,0.3-1c2.7-1.6,4.7-3.9,5.9-6.8c0.1-0.4,0.6-0.5,0.9-0.4
				c0.4,0.1,0.5,0.6,0.4,0.9c-1.3,3.3-3.5,5.8-6.5,7.5C499.7,180.3,499.6,180.3,499.5,180.3z M351.6,175.6c-0.4,0-0.7-0.3-0.7-0.6
				c-0.3-4.1-1.2-6.8-2.7-8.7c-0.2-0.3-0.2-0.7,0.1-1c0.3-0.2,0.7-0.2,1,0.1c1.7,2.1,2.6,5.1,3,9.5
				C352.3,175.3,352,175.6,351.6,175.6C351.6,175.6,351.6,175.6,351.6,175.6z M507.2,163.6c-0.4,0-0.7-0.3-0.7-0.7c0-0.3,0-0.7,0-1
				c-0.2-3.1-0.6-5.9-1.2-8.5c-0.1-0.4,0.1-0.8,0.5-0.8c0.4-0.1,0.8,0.1,0.8,0.5c0.6,2.6,1,5.6,1.2,8.7c0,0.4,0,0.7,0,1.1
				C507.9,163.3,507.6,163.6,507.2,163.6C507.2,163.6,507.2,163.6,507.2,163.6z M502.4,145c-0.2,0-0.5-0.1-0.6-0.3
				c-1.7-2.7-3.7-5-6.3-7c-0.3-0.2-0.4-0.7-0.1-1c0.2-0.3,0.7-0.4,1-0.1c2.7,2,4.9,4.5,6.6,7.4c0.2,0.3,0.1,0.8-0.2,1
				C502.6,145,502.5,145,502.4,145z M430.5,134.7c0,0-0.1,0-0.1,0c-2.8-0.4-5.6-2-8.7-4.9c-0.3-0.3-0.3-0.7,0-1c0.3-0.3,0.7-0.3,1,0
				c3,2.7,5.5,4.1,8,4.5c0.4,0.1,0.7,0.4,0.6,0.8C431.1,134.4,430.8,134.7,430.5,134.7z M487.4,133.2c-0.1,0-0.2,0-0.3,0
				c-2.7-1-5.7-1.9-9.2-2.6c-0.4-0.1-0.6-0.4-0.6-0.8c0.1-0.4,0.4-0.6,0.8-0.6c3.6,0.7,6.7,1.6,9.5,2.7c0.4,0.1,0.5,0.5,0.4,0.9
				C487.9,133,487.7,133.2,487.4,133.2z M439.9,132.7c-0.3,0-0.5-0.2-0.7-0.5c-0.1-0.4,0-0.8,0.4-0.9l0.4-0.1c2.5-1,5.4-2.1,9-2.9
				c0.4-0.1,0.8,0.1,0.8,0.5c0.1,0.4-0.1,0.8-0.5,0.8c-3.5,0.8-6.3,1.9-8.8,2.9l-0.4,0.1C440.1,132.7,440,132.7,439.9,132.7z
				 M468.4,129.1C468.4,129.1,468.4,129.1,468.4,129.1l-0.9-0.1c-3.1-0.4-6.1-0.6-8.8-0.5c0,0,0,0,0,0c-0.4,0-0.7-0.3-0.7-0.7
				c0-0.4,0.3-0.7,0.7-0.7c2.8-0.1,5.8,0.1,9,0.5l0.8,0.1c0.4,0,0.7,0.4,0.6,0.8C469.1,128.8,468.8,129.1,468.4,129.1z"/>
			<path class="st3" d="M415.9,122c-0.3,0-0.5-0.1-0.6-0.4c-0.8-1.4-1.5-3-2.1-4.6c-0.1-0.4,0-0.8,0.4-0.9c0.4-0.1,0.8,0,0.9,0.4
				c0.6,1.6,1.3,3,2,4.4c0.2,0.3,0.1,0.8-0.3,1C416.1,122,416,122,415.9,122z"/>
		</g>
		<g>
			<path class="st3" d="M354.8,156.6c-0.5,0-1-0.3-1.2-0.7l0,0c-2.3-3.8-6.3-10.6-6.3-13.7c0-4.1,3.4-7.5,7.5-7.5
				c4.1,0,7.5,3.4,7.5,7.5c0,3.1-3.9,9.9-6.3,13.7C355.7,156.4,355.3,156.6,354.8,156.6L354.8,156.6z M354.8,136.2
				c-3.4,0-6.1,2.7-6.1,6.1c0,2,2.3,6.8,6.1,12.9c0,0,0,0,0,0c0,0,0,0,0.1,0c3.8-6.2,6.1-11,6.1-12.9
				C360.9,138.9,358.1,136.2,354.8,136.2z"/>
		</g>
		<g>
			<path class="st3" d="M466.3,178.5c-0.6,0-1.1-0.3-1.4-0.8c0,0,0,0,0,0c-2.7-4.4-7.4-12.4-7.4-16c0-4.8,3.9-8.7,8.7-8.7
				s8.7,3.9,8.7,8.7c0,3.7-5.1,12.4-7.4,16C467.3,178.2,466.8,178.5,466.3,178.5L466.3,178.5z M466.1,177c0.1,0.2,0.2,0.2,0.3,0
				c1.7-2.7,7.1-11.8,7.1-15.3c0-4-3.3-7.3-7.3-7.3c-4,0-7.3,3.3-7.3,7.3C458.9,164,461.6,169.8,466.1,177L466.1,177z"/>
		</g>
		<g>
			<path class="st3" d="M392.7,60.7c-0.5,0-0.9-0.3-1.2-0.7c0,0,0,0,0,0c-2.2-3.5-5.8-9.9-5.8-12.7c0-3.9,3.2-7,7-7c3.9,0,7,3.2,7,7
				c0,2.9-3.7,9.2-5.8,12.7C393.7,60.4,393.2,60.7,392.7,60.7C392.7,60.7,392.7,60.7,392.7,60.7z M392.7,59.3
				C392.7,59.3,392.7,59.3,392.7,59.3c2.7-4.4,5.6-9.9,5.6-12c0-3.1-2.5-5.6-5.6-5.6c-3.1,0-5.6,2.5-5.6,5.6
				C387.1,49.4,390,54.9,392.7,59.3L392.7,59.3z"/>
		</g>
		<g>
			<path class="st3" d="M300.5,45C300.5,45,300.5,45,300.5,45c-0.5,0-0.9-0.2-1.1-0.6l0,0c-1.9-3-5-8.5-5-11c0-3.4,2.8-6.2,6.2-6.2
				s6.2,2.8,6.2,6.2c0,2.5-3.2,8-5,11C301.4,44.8,300.9,45,300.5,45z M300.5,28.6c-2.6,0-4.8,2.1-4.8,4.8c0,1.8,2.5,6.4,4.8,10.2
				c2.3-3.7,4.7-8.4,4.7-10.2C305.2,30.7,303.1,28.6,300.5,28.6z"/>
		</g>
		<g>
			<path class="st3" d="M401.7,206.4c-0.6,0-1.1-0.3-1.4-0.8v0c-2.2-3.6-7.4-12.3-7.4-16c0-4.8,3.9-8.7,8.7-8.7
				c4.8,0,8.7,3.9,8.7,8.7c0,3.7-5.1,12.4-7.4,16C402.8,206.1,402.3,206.4,401.7,206.4C401.7,206.4,401.7,206.4,401.7,206.4z
				 M401.6,204.9c0.1,0.2,0.2,0.2,0.3,0c1.7-2.7,7.1-11.8,7.1-15.3c0-4-3.3-7.3-7.3-7.3c-4,0-7.3,3.3-7.3,7.3
				C394.4,193.1,399.9,202.2,401.6,204.9L401.6,204.9z"/>
		</g>
		<path class="st6" d="M417.1,158h-43.6c-0.4,0-0.7-0.3-0.7-0.7c0-0.4,0.3-0.7,0.7-0.7h43.6c0.4,0,0.7,0.3,0.7,0.7
			C417.8,157.7,417.5,158,417.1,158z"/>
		<path class="st6" d="M390.3,164.1h-16.8c-0.4,0-0.7-0.3-0.7-0.7c0-0.4,0.3-0.7,0.7-0.7h16.8c0.4,0,0.7,0.3,0.7,0.7
			C391,163.7,390.7,164.1,390.3,164.1z"/>
		<path class="st6" d="M414.2,164.1h-16.8c-0.4,0-0.7-0.3-0.7-0.7c0-0.4,0.3-0.7,0.7-0.7h16.8c0.4,0,0.7,0.3,0.7,0.7
			C414.9,163.7,414.6,164.1,414.2,164.1z"/>
		<path class="st6" d="M417.1,170.1h-43.6c-0.4,0-0.7-0.3-0.7-0.7c0-0.4,0.3-0.7,0.7-0.7h43.6c0.4,0,0.7,0.3,0.7,0.7
			C417.8,169.8,417.5,170.1,417.1,170.1z"/>
		<path class="st6" d="M416.9,151.6h-43.1c-0.4,0-0.7-0.3-0.7-0.7v-8.3c0-0.4,0.3-0.7,0.7-0.7h43.1c0.4,0,0.7,0.3,0.7,0.7v8.3
			C417.6,151.3,417.3,151.6,416.9,151.6z M374.5,150.2h41.7v-6.9h-41.7V150.2z"/>
		<path class="st6" d="M343.8,41.7h-29.9c-0.4,0-0.7-0.3-0.7-0.7c0-0.4,0.3-0.7,0.7-0.7h29.9c0.4,0,0.7,0.3,0.7,0.7
			C344.5,41.4,344.2,41.7,343.8,41.7z"/>
		<path class="st6" d="M323,46.5h-9.1c-0.4,0-0.7-0.3-0.7-0.7c0-0.4,0.3-0.7,0.7-0.7h9.1c0.4,0,0.7,0.3,0.7,0.7
			C323.7,46.2,323.3,46.5,323,46.5z"/>
		<path class="st6" d="M343.6,46.5h-16.9c-0.4,0-0.7-0.3-0.7-0.7c0-0.4,0.3-0.7,0.7-0.7h16.9c0.4,0,0.7,0.3,0.7,0.7
			C344.3,46.2,344,46.5,343.6,46.5z"/>
		<path class="st6" d="M343.8,51.3h-29.9c-0.4,0-0.7-0.3-0.7-0.7s0.3-0.7,0.7-0.7h29.9c0.4,0,0.7,0.3,0.7,0.7S344.2,51.3,343.8,51.3
			z"/>
		<path class="st6" d="M343.6,36.6h-29.6c-0.4,0-0.7-0.3-0.7-0.7v-6.6c0-0.4,0.3-0.7,0.7-0.7h29.6c0.4,0,0.7,0.3,0.7,0.7v6.6
			C344.3,36.2,344,36.6,343.6,36.6z M314.8,35.1h28.1v-5.2h-28.1V35.1z"/>
		<path class="st6" d="M370.2,84.9h-15.6c-0.4,0-0.7-0.3-0.7-0.7c0-0.4,0.3-0.7,0.7-0.7h15.6c0.4,0,0.7,0.3,0.7,0.7
			C370.9,84.6,370.6,84.9,370.2,84.9z"/>
		<path class="st6" d="M392.5,84.9H377c-0.4,0-0.7-0.3-0.7-0.7c0-0.4,0.3-0.7,0.7-0.7h15.6c0.4,0,0.7,0.3,0.7,0.7
			C393.2,84.6,392.9,84.9,392.5,84.9z"/>
		<path class="st6" d="M392.5,77.3h-37.9c-0.4,0-0.7-0.3-0.7-0.7c0-0.4,0.3-0.7,0.7-0.7h37.9c0.4,0,0.7,0.3,0.7,0.7
			C393.2,77,392.9,77.3,392.5,77.3z"/>
		<path class="st6" d="M392.5,89h-10.6c-0.4,0-0.7-0.3-0.7-0.7c0-0.4,0.3-0.7,0.7-0.7h10.6c0.4,0,0.7,0.3,0.7,0.7
			C393.2,88.6,392.9,89,392.5,89z"/>
		<path class="st6" d="M379.7,89h-9.5c-0.4,0-0.7-0.3-0.7-0.7c0-0.4,0.3-0.7,0.7-0.7h9.5c0.4,0,0.7,0.3,0.7,0.7
			C380.4,88.6,380.1,89,379.7,89z"/>
		<path class="st6" d="M365.1,89h-10.5c-0.4,0-0.7-0.3-0.7-0.7c0-0.4,0.3-0.7,0.7-0.7h10.5c0.4,0,0.7,0.3,0.7,0.7
			C365.8,88.6,365.5,89,365.1,89z"/>
		<path class="st6" d="M392.5,93h-37.9c-0.4,0-0.7-0.3-0.7-0.7c0-0.4,0.3-0.7,0.7-0.7h37.9c0.4,0,0.7,0.3,0.7,0.7
			C393.2,92.7,392.9,93,392.5,93z"/>
		<path class="st6" d="M512.9,214.2h-10c-0.4,0-0.7-0.3-0.7-0.7c0-0.4,0.3-0.7,0.7-0.7h10c0.4,0,0.7,0.3,0.7,0.7
			C513.6,213.9,513.2,214.2,512.9,214.2z"/>
		<path class="st6" d="M496,214.2h-10c-0.4,0-0.7-0.3-0.7-0.7c0-0.4,0.3-0.7,0.7-0.7h10c0.4,0,0.7,0.3,0.7,0.7
			C496.7,213.9,496.4,214.2,496,214.2z"/>
		<path class="st6" d="M479.3,214.2h-10c-0.4,0-0.7-0.3-0.7-0.7c0-0.4,0.3-0.7,0.7-0.7h10c0.4,0,0.7,0.3,0.7,0.7
			C480,213.9,479.6,214.2,479.3,214.2z"/>
		<path class="st6" d="M512.9,232.8h-43.6c-0.4,0-0.7-0.3-0.7-0.7c0-0.4,0.3-0.7,0.7-0.7h43.6c0.4,0,0.7,0.3,0.7,0.7
			C513.6,232.5,513.2,232.8,512.9,232.8z"/>
		<path class="st6" d="M512.9,220.3H493c-0.4,0-0.7-0.3-0.7-0.7c0-0.4,0.3-0.7,0.7-0.7h19.9c0.4,0,0.7,0.3,0.7,0.7
			C513.6,220,513.2,220.3,512.9,220.3z"/>
		<path class="st6" d="M486.1,220.3h-16.8c-0.4,0-0.7-0.3-0.7-0.7c0-0.4,0.3-0.7,0.7-0.7h16.8c0.4,0,0.7,0.3,0.7,0.7
			C486.8,220,486.5,220.3,486.1,220.3z"/>
		<path class="st6" d="M512.9,226.3H496c-0.4,0-0.7-0.3-0.7-0.7s0.3-0.7,0.7-0.7h16.8c0.4,0,0.7,0.3,0.7,0.7
			S513.2,226.3,512.9,226.3z"/>
		<path class="st6" d="M491,226.3h-21.8c-0.4,0-0.7-0.3-0.7-0.7s0.3-0.7,0.7-0.7H491c0.4,0,0.7,0.3,0.7,0.7S491.4,226.3,491,226.3z"
			/>
		<path class="st6" d="M512.6,207.8h-43.1c-0.4,0-0.7-0.3-0.7-0.7v-6.2c0-0.4,0.3-0.7,0.7-0.7h43.1c0.4,0,0.7,0.3,0.7,0.7v6.2
			C513.3,207.5,513,207.8,512.6,207.8z M470.2,206.4h41.7v-4.8h-41.7V206.4z"/>
		<polyline class="st5" points="445.9,16.8 422.4,7.4 421.9,10.5 419.5,12.6 420.7,14.4 417.7,17.1 417.1,20.5 440.7,29.9 
			417.4,20.6 441,30 441.5,27 443.9,24.9 442.6,23.1 445.7,20.3 446.2,17 422.7,7.6 		"/>
		<path class="st3" d="M441,30.7c-0.1,0-0.2,0-0.3-0.1l-0.3-0.1c0,0,0,0,0,0l-23.2-9.3c0,0,0,0,0,0l-0.3-0.1
			c-0.3-0.1-0.5-0.4-0.4-0.8L417,17c0-0.2,0.1-0.3,0.2-0.4l2.6-2.4l-0.9-1.3c-0.2-0.3-0.2-0.7,0.1-0.9l2.2-1.9l0.4-2.8
			c0-0.2,0.2-0.4,0.3-0.5c0.2-0.1,0.4-0.1,0.6,0l0.3,0.1c0,0,0,0,0,0l23.2,9.3c0,0,0,0,0,0l0.3,0.1c0.3,0.1,0.5,0.4,0.4,0.8
			l-0.5,3.4c0,0.2-0.1,0.3-0.2,0.4l-2.6,2.4l0.9,1.3c0.2,0.3,0.2,0.7-0.1,0.9l-2.2,1.9l-0.4,2.8c0,0.2-0.2,0.4-0.3,0.5
			C441.2,30.7,441.1,30.7,441,30.7z M429.5,24.7l10.9,4.3l0.3-2.2c0-0.2,0.1-0.3,0.2-0.4l1.9-1.7l-0.9-1.3c-0.2-0.3-0.2-0.7,0.1-0.9
			L445,20l0.4-2.6l-22.5-9l-0.3,2.2c0,0.2-0.1,0.3-0.2,0.4l-1.9,1.7l0.9,1.3c0.2,0.3,0.2,0.7-0.1,0.9l-2.9,2.6l-0.4,2.6L429.5,24.7z
			"/>
		<polyline class="st5" points="295.4,7.6 272.1,17.6 274,20.1 273.8,23.3 275.9,23.6 275.7,27.7 277.7,30.5 301,20.5 278,30.4 
			301.3,20.4 299.4,17.9 299.7,14.7 297.6,14.3 297.8,10.2 295.7,7.4 272.4,17.4 		"/>
		<path class="st3" d="M277.7,31.2c-0.2,0-0.4-0.1-0.6-0.3l-2-2.8c-0.1-0.1-0.1-0.3-0.1-0.4l0.2-3.5l-1.5-0.3
			c-0.4-0.1-0.6-0.4-0.6-0.7l0.2-2.9l-1.7-2.3c-0.1-0.2-0.2-0.4-0.1-0.6c0.1-0.2,0.2-0.4,0.4-0.5l23.3-10c0,0,0,0,0,0l0.3-0.1
			c0.3-0.1,0.7,0,0.8,0.2l2,2.8c0.1,0.1,0.1,0.3,0.1,0.4l-0.2,3.5l1.5,0.3c0.4,0.1,0.6,0.4,0.6,0.7l-0.2,2.9l1.7,2.3
			c0.1,0.2,0.2,0.4,0.1,0.6c-0.1,0.2-0.2,0.4-0.4,0.5l-23.3,10c0,0,0,0,0,0l-0.3,0.1C277.9,31.2,277.8,31.2,277.7,31.2z M276.4,27.5
			l1.5,2.1l22.3-9.6l-1.3-1.8c-0.1-0.1-0.2-0.3-0.1-0.5l0.2-2.5l-1.5-0.3c-0.3-0.1-0.6-0.4-0.6-0.7l0.2-3.9l-1.5-2.1l-22.3,9.6
			l1.3,1.8c0.1,0.1,0.2,0.3,0.1,0.5l-0.2,2.5L276,23c0.3,0.1,0.6,0.4,0.6,0.7L276.4,27.5z"/>
		<polyline class="st5" points="268.4,110.5 268.5,123.4 271,123.1 273.4,123.8 274.4,122.9 277.6,123.8 280.4,123.4 280.3,110.4 
			280.4,123.2 280.3,110.2 277.8,110.6 275.4,109.9 274.4,110.8 271.2,109.9 268.4,110.3 268.5,123.3 		"/>
		<path class="st3" d="M273.4,124.5c-0.1,0-0.1,0-0.2,0l-2.2-0.7l-2.4,0.4c-0.2,0-0.4,0-0.6-0.2c-0.2-0.1-0.2-0.3-0.2-0.5l-0.1-13
			c0,0,0,0,0,0l0-0.2c0-0.4,0.3-0.7,0.6-0.7l2.8-0.4c0.1,0,0.2,0,0.3,0l2.8,0.8l0.7-0.7c0.2-0.2,0.4-0.2,0.7-0.2l2.2,0.7l2.4-0.4
			c0.2,0,0.4,0,0.6,0.2c0.2,0.1,0.2,0.3,0.2,0.5l0.1,13.1c0,0.4-0.3,0.7-0.6,0.7l-2.8,0.4c-0.1,0-0.2,0-0.3,0l-2.8-0.8l-0.7,0.7
			C273.8,124.4,273.6,124.5,273.4,124.5z M274.4,122.2c0.1,0,0.1,0,0.2,0l3,0.9l2.1-0.3l-0.1-11.7l-1.8,0.3c-0.1,0-0.2,0-0.3,0
			l-2-0.6l-0.7,0.6c-0.2,0.2-0.4,0.2-0.7,0.2l-3-0.9l-2.1,0.3l0.1,11.7l1.8-0.3c0.1,0,0.2,0,0.3,0l2,0.6l0.7-0.6
			C274.1,122.2,274.3,122.2,274.4,122.2z"/>
		<g>
			<g>
				<g>
					<path class="st7" d="M321,296l-11.9,100.6l10.1-5.8c1.4-0.8,3.1-0.3,3.9,1l5.8,10l19-87.9L321,296z"/>
					<path class="st8" d="M329.1,403.8l-6.7-11.6c-0.3-0.5-0.8-0.9-1.3-1c-0.6-0.1-1.1-0.1-1.6,0.2l-11.3,6.5l12.2-103.2l28.1,18.9
						L329.1,403.8z M320.6,389.8c0.3,0,0.6,0,0.9,0.1c0.9,0.2,1.7,0.8,2.2,1.7l4.8,8.4l18.5-85.6l-25.4-17.1L310,395.3l8.8-5.1
						C319.4,389.9,320,389.8,320.6,389.8z"/>
				</g>
			</g>
			<g>
				<g>
					<path class="st7" d="M358.1,393.7l-6.3-97.6l-16,9l-2.3,4.1l3.8,90.4c0.2,0.6,0.5,1.1,1,1.4l5.7-10c0.8-1.4,2.5-1.9,3.9-1.1
						l10.1,5.7C358.2,395,358.3,394.3,358.1,393.7z"/>
					<path class="st8" d="M338.5,402.1l-0.6-0.5c-0.6-0.5-1-1.1-1.2-1.8l0-0.2l-3.8-90.5l2.5-4.5l17.2-9.7l6.3,98.6
						c0.2,0.8,0.1,1.6-0.2,2.4l-0.3,0.7l-10.8-6.1c-0.5-0.3-1.1-0.4-1.6-0.2c-0.6,0.2-1,0.5-1.3,1L338.5,402.1z M338,399.5
						c0,0.1,0.1,0.2,0.1,0.3l5.2-9.2c0.5-0.8,1.2-1.4,2.1-1.7c0.9-0.3,1.9-0.1,2.7,0.3l9.3,5.3c0-0.2,0-0.5-0.1-0.7l0-0.1l-6.2-96.5
						l-14.9,8.4l-2.1,3.8L338,399.5z"/>
				</g>
			</g>
			<g>
				<g>
					<circle class="st4" cx="336.5" cy="283.8" r="25.3"/>
					<path class="st9" d="M336.5,309.8c-14.3,0-26-11.7-26-26c0-14.3,11.7-26,26-26c14.3,0,26,11.7,26,26
						C362.5,298.2,350.8,309.8,336.5,309.8z M336.5,259.2c-13.6,0-24.6,11-24.6,24.6c0,13.6,11,24.6,24.6,24.6
						c13.6,0,24.6-11,24.6-24.6C361.1,270.3,350,259.2,336.5,259.2z"/>
				</g>
				<g>
					<circle class="st4" cx="336.5" cy="283.8" r="25.3"/>
					<path class="st9" d="M336.5,309.8c-14.3,0-26-11.7-26-26c0-14.3,11.7-26,26-26c14.3,0,26,11.7,26,26
						C362.5,298.2,350.8,309.8,336.5,309.8z M336.5,259.2c-13.6,0-24.6,11-24.6,24.6c0,13.6,11,24.6,24.6,24.6
						c13.6,0,24.6-11,24.6-24.6C361.1,270.3,350,259.2,336.5,259.2z"/>
				</g>
			</g>
			<g class="st10">
				<g>
					<circle class="st4" cx="336.5" cy="283.8" r="19.7"/>
					<path class="st9" d="M336.5,304.2c-11.2,0-20.4-9.1-20.4-20.4c0-11.2,9.1-20.4,20.4-20.4c11.2,0,20.4,9.1,20.4,20.4
						C356.8,295.1,347.7,304.2,336.5,304.2z M336.5,264.9c-10.4,0-19,8.5-19,19c0,10.4,8.5,18.9,19,18.9c10.4,0,19-8.5,19-18.9
						C355.4,273.4,346.9,264.9,336.5,264.9z"/>
				</g>
				<g>
					<circle class="st4" cx="336.5" cy="283.8" r="19.7"/>
					<path class="st9" d="M336.5,304.2c-11.2,0-20.4-9.1-20.4-20.4c0-11.2,9.1-20.4,20.4-20.4c11.2,0,20.4,9.1,20.4,20.4
						C356.8,295.1,347.7,304.2,336.5,304.2z M336.5,264.9c-10.4,0-19,8.5-19,19c0,10.4,8.5,18.9,19,18.9c10.4,0,19-8.5,19-18.9
						C355.4,273.4,346.9,264.9,336.5,264.9z"/>
				</g>
			</g>
			<g>
				<g>
					<circle class="st11" cx="336.5" cy="283.8" r="25.3"/>
					<path class="st12" d="M336.5,310.6c-14.7,0-26.7-12-26.7-26.7c0-14.7,12-26.7,26.7-26.7c14.7,0,26.7,12,26.7,26.7
						C363.2,298.6,351.2,310.6,336.5,310.6z M336.5,259.9c-13.2,0-23.9,10.7-23.9,23.9c0,13.2,10.7,23.9,23.9,23.9
						c13.2,0,23.9-10.7,23.9-23.9C360.4,270.7,349.6,259.9,336.5,259.9z"/>
				</g>
				<g>
					<circle class="st11" cx="336.5" cy="283.8" r="25.3"/>
					<path class="st12" d="M336.5,310.6c-14.7,0-26.7-12-26.7-26.7c0-14.7,12-26.7,26.7-26.7c14.7,0,26.7,12,26.7,26.7
						C363.2,298.6,351.2,310.6,336.5,310.6z M336.5,259.9c-13.2,0-23.9,10.7-23.9,23.9c0,13.2,10.7,23.9,23.9,23.9
						c13.2,0,23.9-10.7,23.9-23.9C360.4,270.7,349.6,259.9,336.5,259.9z"/>
				</g>
			</g>
			<g>
				<path class="st12" d="M344.3,295.2H329v-4.6h4v-10.3h-4.2v-4.1c1.5-0.1,2.5-0.5,3.1-1c0.6-0.5,1-1.4,1.1-2.7h7.4v18.1h3.9V295.2
					z"/>
			</g>
		</g>
		<g>
			<g>
				<path class="st13" d="M547.5,178.8l-7.9,33.4l6.6-3.8c0.9-0.5,2-0.2,2.6,0.7l3.8,6.6l6.3-29.7L547.5,178.8z"/>
			</g>
			<g>
				<path class="st13" d="M571.9,210.2l-4.1-31.3l-10.5,5.9l-1.5,2.7l2.5,26.6c0.1,0.4,0.3,0.7,0.6,0.9l3.7-6.6
					c0.5-0.9,1.7-1.2,2.6-0.7l6.7,3.8C572,211.1,572,210.7,571.9,210.2z"/>
			</g>
			<g>
				<path class="st14" d="M558.9,215.8c-0.2,0-0.3-0.1-0.4-0.2c-0.4-0.3-0.7-0.8-0.9-1.3l-2.5-26.7c0-0.1,0-0.3,0.1-0.4l1.5-2.7
					c0.1-0.1,0.2-0.2,0.3-0.3l10.5-5.9c0.2-0.1,0.5-0.1,0.7,0c0.2,0.1,0.4,0.3,0.4,0.5l4.1,31.3c0.1,0.6,0.1,1.2-0.2,1.7
					c-0.1,0.2-0.2,0.3-0.4,0.4c-0.2,0.1-0.4,0-0.6-0.1l-6.7-3.8c-0.3-0.2-0.6-0.2-0.9-0.1c-0.3,0.1-0.6,0.3-0.7,0.6l-3.7,6.6
					c-0.1,0.2-0.3,0.3-0.5,0.3C559,215.8,558.9,215.8,558.9,215.8z M556.4,187.7l2.4,25.9l3.1-5.5c0.3-0.6,0.9-1,1.6-1.2
					c0.7-0.2,1.4-0.1,2,0.2l5.7,3.2c0,0,0,0,0-0.1l-4-30.3l-9.5,5.3L556.4,187.7z"/>
			</g>
			<g>
				<path class="st14" d="M552.6,216.3c-0.2,0-0.5-0.1-0.6-0.4l-3.8-6.6c-0.2-0.3-0.4-0.5-0.7-0.5c-0.3-0.1-0.6,0-0.9,0.1l-6.6,3.8
					c-0.2,0.1-0.5,0.1-0.8,0c-0.2-0.2-0.3-0.5-0.3-0.7l7.9-33.4c0.1-0.4,0.5-0.6,0.8-0.5c0.4,0.1,0.6,0.5,0.5,0.8l-7.5,31.8l5.2-3
					c0.6-0.3,1.3-0.4,2-0.3c0.7,0.2,1.2,0.6,1.6,1.2l2.9,5l3.8-17.4c0.1-0.4,0.5-0.6,0.8-0.5c0.4,0.1,0.6,0.5,0.5,0.8l-4.2,19.2
					c-0.1,0.3-0.3,0.5-0.6,0.5C552.7,216.3,552.7,216.3,552.6,216.3z"/>
			</g>
			<g>
				<circle class="st15" cx="557.7" cy="170.8" r="16.7"/>
				<circle class="st15" cx="557.7" cy="170.8" r="16.7"/>
			</g>
			<g>
				<path class="st16" d="M557.7,188.2c-9.6,0-17.4-7.8-17.4-17.4c0-9.6,7.8-17.4,17.4-17.4c9.6,0,17.4,7.8,17.4,17.4
					C575,180.4,567.2,188.2,557.7,188.2z M557.7,154.9c-8.8,0-16,7.2-16,16c0,8.8,7.2,16,16,16c8.8,0,16-7.2,16-16
					C573.6,162,566.5,154.9,557.7,154.9z"/>
				<path class="st16" d="M557.7,188.2c-9.6,0-17.4-7.8-17.4-17.4c0-9.6,7.8-17.4,17.4-17.4c9.6,0,17.4,7.8,17.4,17.4
					C575,180.4,567.2,188.2,557.7,188.2z M557.7,154.9c-8.8,0-16,7.2-16,16c0,8.8,7.2,16,16,16c8.8,0,16-7.2,16-16
					C573.6,162,566.5,154.9,557.7,154.9z"/>
			</g>
			<g>
				<path class="st16" d="M552.1,177.8v-2.3c0-2.2,1.6-3.9,4.8-5.1c0.9-0.3,1.4-0.6,1.6-0.8c0.3-0.2,0.4-0.7,0.4-1.2
					c0-0.5-0.1-0.9-0.2-1.1c-0.3-0.4-0.8-0.6-1.6-0.6c-1.1,0-1.7,0.8-1.7,2.3h-3.1c0-1.7,0.6-3,1.7-3.9c0.9-0.7,2-1.1,3.1-1.1
					c3.4,0,5,1.5,5,4.6c0,1.3-0.3,2.3-0.9,3c-0.4,0.5-1.2,1.1-2.4,1.7c-0.6,0.2-1.5,0.6-2.7,1.1c-0.5,0.2-0.8,0.5-1,0.8h5.4v-0.9
					h1.9v3.6H552.1z"/>
			</g>
		</g>
		<g>
			<path class="st3" d="M400.2,217.3l-1.1-0.9c0.5-0.6,1.8-2.6,3.1-4.5c1.4-2,2.6-3.9,3.1-4.5l1.1,0.9c-0.5,0.6-1.8,2.6-3.1,4.5
				C402,214.7,400.7,216.6,400.2,217.3z"/>
			<path class="st3" d="M408.4,217.2c-3.5-2.7-7.6-4.7-11.9-5.5l0.3-1.4c4.5,0.9,8.9,2.9,12.5,5.8L408.4,217.2z"/>
		</g>
		<g>
			<path class="st3" d="M321.4,85.7l-0.6-1.3c0.7-0.3,2.7-1.4,4.7-2.5c2.1-1.1,4-2.2,4.7-2.5l0.6,1.3c-0.7,0.3-2.7,1.4-4.7,2.5
				C324.1,84.3,322.1,85.4,321.4,85.7z"/>
			<path class="st3" d="M328.5,89.3c-1.8-3.9-4.5-7.4-7.9-10.1l0.9-1.1c3.5,2.8,6.4,6.5,8.3,10.6L328.5,89.3z"/>
		</g>
		<path class="st6" d="M361.8,239.2c-2.2,0-4-1.8-4-4c0-2.2,1.8-4,4-4c2.2,0,4,1.8,4,4C365.8,237.4,364,239.2,361.8,239.2z
			 M361.8,232.5c-1.4,0-2.6,1.2-2.6,2.6c0,1.4,1.2,2.6,2.6,2.6c1.4,0,2.6-1.2,2.6-2.6C364.4,233.7,363.2,232.5,361.8,232.5z"/>
		<path class="st3" d="M832.3,500.1c-0.8,0-1.4-0.6-1.4-1.4v-14.9H47.1v14.9c0,0.8-0.6,1.4-1.4,1.4s-1.4-0.6-1.4-1.4v-16.4
			c0-0.8,0.6-1.4,1.4-1.4h786.6c0.8,0,1.4,0.6,1.4,1.4v16.4C833.7,499.4,833,500.1,832.3,500.1z"/>
		<g>
			<path class="st3" d="M134.4,437.3c-0.2,0-0.5-0.1-0.6-0.4L52.6,294.3c-0.2-0.3-0.1-0.8,0.3-1c0.3-0.2,0.8-0.1,1,0.3L135,436.2
				c0.2,0.3,0.1,0.8-0.3,1C134.6,437.2,134.5,437.3,134.4,437.3z"/>
			<path class="st3" d="M127.5,436.8c-0.2,0-0.5-0.1-0.6-0.4L45.8,293.9c-0.2-0.3-0.1-0.8,0.3-1c0.3-0.2,0.8-0.1,1,0.3l81.2,142.6
				c0.2,0.3,0.1,0.8-0.3,1C127.8,436.8,127.7,436.8,127.5,436.8z"/>
			<g>
				
					<rect x="82.2" y="469.9" transform="matrix(-1 -4.491220e-11 4.491220e-11 -1 262.7656 951.1614)" class="st17" width="98.5" height="11.4"/>
				<polyline class="st6" points="125.6,443.9 125.6,469.9 137.1,469.9 137.1,443.9 				"/>
				<ellipse class="st17" cx="131.4" cy="436.8" rx="9" ry="9.3"/>
			</g>
			<path class="st17" d="M166.3,228.2c-1.6-4,0.2-8.6,4.1-10.2c3.8-1.6,5.4-6.2,3.8-10.1l-7.1-17.3c-1.3-3.1,0.1-6.7,3.1-8l15.8-6.9
				c3-1.3,6.4,0.1,7.7,3.2l7.1,17.3c1.6,3.9,5.9,5.9,9.6,4.2c3.8-1.8,8.3,0.1,9.9,4l29.4,47.1c0.5,2.4-14.6,11.1-34.1,19.6
				s-36,13.7-37.4,11.6L166.3,228.2z"/>
			<rect x="157.4" y="469.9" class="st4" width="14.6" height="12.4"/>
			<g>
				<path class="st4" d="M168.7,184.4c3-1.3,7.6,2.5,8.8,5.6l7.1,17.3c1.6,3.9,5.9,5.9,9.6,4.2c3.8-1.8,8.3,0.1,9.9,4l29.4,47.1
					l8.4-3.8l-29.4-47.1c-1.6-4-6.1-5.8-9.9-4c-3.7,1.7-8.1-0.3-9.6-4.2l-7.1-17.3c-1.3-3.1-5.8-6.9-8.8-5.6"/>
			</g>
			<path class="st3" d="M52.4,296.6c-0.2,0-0.4-0.1-0.6-0.3c-0.2-0.3-0.2-0.8,0.1-1l99.9-76.5c0.3-0.2,0.8-0.2,1,0.1
				c0.2,0.3,0.2,0.8-0.1,1l-99.9,76.5C52.7,296.6,52.5,296.6,52.4,296.6z"/>
			<path class="st3" d="M50.1,291.7c-0.2,0-0.4-0.1-0.6-0.3c-0.2-0.3-0.2-0.8,0.1-1l99.9-76.5c0.3-0.2,0.8-0.2,1,0.1
				c0.2,0.3,0.2,0.8-0.1,1l-99.9,76.5C50.4,291.7,50.3,291.7,50.1,291.7z"/>
			<path class="st3" d="M180.6,482H82.2c-0.4,0-0.7-0.3-0.7-0.7v-11.4c0-0.4,0.3-0.7,0.7-0.7h98.5c0.4,0,0.7,0.3,0.7,0.7v11.4
				C181.3,481.7,181,482,180.6,482z M82.9,480.6h97v-10h-97V480.6z"/>
			<path class="st3" d="M137.1,470.6h-11.5c-0.4,0-0.7-0.3-0.7-0.7v-26c0-0.4,0.3-0.7,0.7-0.7c0.4,0,0.7,0.3,0.7,0.7v25.2h10.1
				v-25.2c0-0.4,0.3-0.7,0.7-0.7c0.4,0,0.7,0.3,0.7,0.7v26C137.8,470.3,137.5,470.6,137.1,470.6z"/>
			<g>
				<path class="st6" d="M179.8,260.9l-11.1-39.8c-0.2-0.5,1.6-2.3,1.5-2.9c-2.3,2.1-5.2,6.9-3.9,10l12.1,54.7
					c0.9,1.4,11.5-2,23.4-6.4C193.1,277,181.4,273.2,179.8,260.9z"/>
				<path class="st6" d="M174.3,208c0.2,0.6,0.4,1.1,0.5,1.7c2.4-2.1,3.2-5.7,1.9-8.8l-7.1-17.3c-0.1-0.1-0.1-0.3-0.1-0.4
					c-2.4,1.6-3.4,4.7-2.3,7.5L174.3,208z"/>
			</g>
			<path class="st3" d="M180,284c-1.6,0-1.9-0.5-2.1-0.8c0-0.1-0.1-0.1-0.1-0.2l-12.1-54.6c-1.7-4.3,0.3-9.3,4.5-11
				c3.3-1.4,4.9-5.6,3.5-9.1l-7.1-17.3c-1.4-3.4,0.2-7.4,3.5-8.9l15.8-6.9c1.6-0.7,3.4-0.7,5-0.1c1.7,0.7,3,2,3.7,3.7l7.1,17.3
				c0.7,1.8,2.1,3.2,3.9,3.9c1.6,0.6,3.3,0.6,4.8-0.1c2-0.9,4.2-1,6.2-0.2c2.1,0.8,3.7,2.5,4.6,4.6l29.4,47c0,0.1,0.1,0.2,0.1,0.2
				c0.8,3.8-22.2,15-34.5,20.4c-9.4,4.1-18.5,7.6-25.6,9.8C184.7,283.5,181.6,284,180,284z M179.1,282.6c1.6,0.9,15.3-2.7,36.4-11.9
				c21.2-9.3,33.2-16.9,33.7-18.8l-29.3-46.9c-0.8-1.9-2.1-3.2-3.9-3.9c-1.7-0.7-3.5-0.6-5.1,0.1c-1.9,0.9-4,0.9-5.9,0.1
				c-2.1-0.8-3.8-2.5-4.7-4.7l-7.1-17.3c-0.6-1.3-1.6-2.4-2.9-2.9c-1.3-0.5-2.6-0.5-3.9,0.1l-15.8,6.9c-2.6,1.2-3.9,4.3-2.8,7.1
				l7.1,17.3c1.7,4.3-0.2,9.3-4.2,11c-3.5,1.5-5.2,5.6-3.7,9.2c0,0,0,0.1,0,0.1L179.1,282.6z"/>
			<path class="st3" d="M151.9,217.6c-0.1,0-0.2,0-0.4-0.1c-0.3-0.2-0.4-0.6-0.3-1c3.8-6.5,2.8-10.6,1.9-13.8
				c-0.9-3.3-1.6-6.2,3.1-9.8c5.2-3.9,11.7-0.9,12-0.7c0.4,0.2,0.5,0.6,0.3,0.9c-0.2,0.4-0.6,0.5-0.9,0.3c-0.1,0-6.1-2.8-10.6,0.6
				c-4,3-3.4,5.1-2.6,8.3c0.9,3.5,2,7.9-2.1,14.9C152.4,217.4,152.1,217.6,151.9,217.6z"/>
			<g>
				<polygon class="st4" points="193.8,201.6 196.9,200.2 189.1,181.6 186,183 				"/>
				<path class="st3" d="M193.8,202.3c-0.1,0-0.2,0-0.3,0c-0.2-0.1-0.3-0.2-0.4-0.4l-7.8-18.6c-0.1-0.4,0-0.8,0.4-0.9l3.1-1.4
					c0.2-0.1,0.4-0.1,0.5,0c0.2,0.1,0.3,0.2,0.4,0.4l7.8,18.6c0.1,0.4,0,0.8-0.4,0.9l-3.1,1.4C194,202.3,193.9,202.3,193.8,202.3z
					 M186.9,183.3l7.2,17.3l1.8-0.8l-7.2-17.3L186.9,183.3z"/>
			</g>
			<path class="st3" d="M186.5,205.6c-0.1,0-0.2,0-0.3,0c-0.2-0.1-0.3-0.2-0.4-0.4l-7.8-18.6c-0.1-0.4,0-0.8,0.4-0.9l3.1-1.4
				c0.2-0.1,0.4-0.1,0.5,0c0.2,0.1,0.3,0.2,0.4,0.4l7.8,18.6c0.1,0.4,0,0.8-0.4,0.9l-3.1,1.4C186.7,205.6,186.6,205.6,186.5,205.6z
				 M179.6,186.6l7.2,17.3l1.8-0.8l-7.2-17.3L179.6,186.6z"/>
			<path class="st3" d="M131.4,446.8c-5.3,0-9.7-4.5-9.7-10c0-5.5,4.3-10,9.7-10s9.7,4.5,9.7,10C141,442.3,136.7,446.8,131.4,446.8z
				 M131.4,428.2c-4.5,0-8.3,3.8-8.3,8.6c0,4.7,3.7,8.6,8.3,8.6c4.5,0,8.3-3.8,8.3-8.6C139.6,432.1,135.9,428.2,131.4,428.2z"/>
			<g>
				<polygon class="st6" points="154,220.8 181.7,205.1 177.5,197.2 149.8,213 				"/>
				<path class="st18" d="M154,221.5c-0.1,0-0.1,0-0.2,0c-0.2-0.1-0.3-0.2-0.4-0.3l-4.2-7.8c-0.2-0.3-0.1-0.8,0.3-0.9l27.7-15.7
					c0.2-0.1,0.4-0.1,0.5-0.1c0.2,0.1,0.3,0.2,0.4,0.3l4.2,7.8c0.2,0.3,0.1,0.8-0.3,0.9l-27.7,15.7
					C154.2,221.5,154.1,221.5,154,221.5z M150.8,213.2l3.5,6.6l26.5-15l-3.5-6.6L150.8,213.2z"/>
			</g>
			<g>
				<ellipse class="st6" cx="50.3" cy="294.3" rx="9" ry="9.3"/>
				<path class="st18" d="M50.3,304.3c-5.3,0-9.7-4.5-9.7-10c0-5.5,4.3-10,9.7-10c5.3,0,9.7,4.5,9.7,10
					C59.9,299.8,55.6,304.3,50.3,304.3z M50.3,285.7c-4.6,0-8.3,3.8-8.3,8.6c0,4.7,3.7,8.6,8.3,8.6c4.5,0,8.3-3.8,8.3-8.6
					C58.5,289.6,54.8,285.7,50.3,285.7z"/>
			</g>
		</g>
		<g>
			<g>
				<path class="st19" d="M792.5,481.7H691.4v-8.3h101.1c1.3-2.3,2-4.9,2-7.6s-0.7-5.4-2-7.6H691.4v-8.3h101.1
					c8.8,0,15.9,7.1,15.9,15.9S801.3,481.7,792.5,481.7z"/>
			</g>
			<g>
				<path class="st4" d="M694,473.4L694,473.4c2.9-4.7,2.9-10.6,0-15.3l0,0h98.5c1.3,2.3,2,4.9,2,7.6s-0.7,5.4-2,7.6H694z"/>
			</g>
			<path class="st17" d="M694,473.4h98.5c1.3-2.3,2-4.9,2-7.6c-33.2,3-66,3.1-98.3,0C696.1,468.4,695.4,471.1,694,473.4z"/>
			<g>
				<path class="st18" d="M792.4,474.1H694c-0.3,0-0.5-0.1-0.6-0.4c-0.1-0.2-0.1-0.5,0-0.7c2.7-4.5,2.7-10.1,0-14.5
					c-0.1-0.2-0.1-0.5,0-0.7c0.1-0.2,0.4-0.4,0.6-0.4h98.5c0.3,0,0.5,0.1,0.6,0.4c1.4,2.5,2.1,5.2,2.1,8c0,2.8-0.7,5.5-2.1,8
					C792.9,474,792.7,474.1,792.4,474.1z M695.2,472.7H792c1.1-2.2,1.7-4.5,1.7-6.9c0-2.4-0.6-4.7-1.7-6.9h-96.9
					C697.4,463.2,697.4,468.4,695.2,472.7z"/>
			</g>
			<path class="st20" d="M792.4,473.4H691.4v8.3h101.1c8.8,0,15.9-7.1,15.9-15.9h-14C794.4,468.6,793.7,471.2,792.4,473.4z"/>
			<g>
				<path class="st18" d="M792.5,482.4H691.4c-0.4,0-0.7-0.3-0.7-0.7v-8.3c0-0.4,0.3-0.7,0.7-0.7H792c1.1-2.2,1.7-4.5,1.7-6.9
					c0-2.4-0.6-4.7-1.7-6.9H691.4c-0.4,0-0.7-0.3-0.7-0.7v-8.3c0-0.4,0.3-0.7,0.7-0.7h101.1c9.2,0,16.6,7.4,16.6,16.6
					C809.1,475,801.7,482.4,792.5,482.4z M692.1,481h100.4c8.4,0,15.2-6.8,15.2-15.2s-6.8-15.2-15.2-15.2H692.1v6.9h100.4
					c0.3,0,0.5,0.1,0.6,0.4c1.4,2.5,2.1,5.2,2.1,8c0,2.8-0.7,5.5-2.1,8c-0.1,0.2-0.4,0.4-0.6,0.4H692.1V481z"/>
			</g>
			<path class="st17" d="M715.8,462h-13.6c-0.4,0-0.7-0.3-0.7-0.7c0-0.4,0.3-0.7,0.7-0.7h13.6c0.4,0,0.7,0.3,0.7,0.7
				C716.5,461.7,716.2,462,715.8,462z"/>
			<path class="st17" d="M728.4,464.7h-7.8c-0.4,0-0.7-0.3-0.7-0.7c0-0.4,0.3-0.7,0.7-0.7h7.8c0.4,0,0.7,0.3,0.7,0.7
				C729.1,464.4,728.8,464.7,728.4,464.7z"/>
			<path class="st17" d="M752.5,462.6H736c-0.4,0-0.7-0.3-0.7-0.7s0.3-0.7,0.7-0.7h16.5c0.4,0,0.7,0.3,0.7,0.7
				S752.9,462.6,752.5,462.6z"/>
			<path class="st17" d="M784.8,463.9h-16.5c-0.4,0-0.7-0.3-0.7-0.7s0.3-0.7,0.7-0.7h16.5c0.4,0,0.7,0.3,0.7,0.7
				S785.2,463.9,784.8,463.9z"/>
		</g>
		<g>
			<g>
				<g>
					<path class="st11" d="M197.3,415.1l13.1,56.1c-1.4-0.9-3.2-0.4-4.1,1c-1.4-0.9-3.2-0.4-4.1,1L189.1,417L197.3,415.1z"/>
					<path class="st12" d="M202.2,473.8c0,0-0.1,0-0.1,0c-0.3,0-0.5-0.3-0.6-0.5l-13.1-56.1c-0.1-0.4,0.1-0.8,0.5-0.8l8.2-1.9
						c0.2,0,0.4,0,0.5,0.1c0.2,0.1,0.3,0.3,0.3,0.4l13.1,56.1c0.1,0.3,0,0.6-0.3,0.7c-0.2,0.2-0.5,0.2-0.8,0
						c-1.1-0.7-2.5-0.3-3.2,0.7c-0.2,0.3-0.6,0.4-1,0.2c-1.1-0.7-2.5-0.3-3.2,0.7C202.6,473.7,202.4,473.8,202.2,473.8z
						 M189.9,417.5l12.7,54.2c1-0.7,2.3-0.9,3.5-0.4c0.8-0.9,2.1-1.4,3.3-1.2l-12.7-54.2L189.9,417.5z"/>
				</g>
				<g>
					
						<rect x="188.5" y="412.5" transform="matrix(0.9738 -0.2273 0.2273 0.9738 -89.1349 54.6697)" class="st21" width="8.5" height="3.6"/>
					<path class="st6" d="M189,417.7c-0.1,0-0.3,0-0.4-0.1c-0.2-0.1-0.3-0.3-0.3-0.4l-0.8-3.5c-0.1-0.4,0.1-0.8,0.5-0.8l8.3-1.9
						c0.2,0,0.4,0,0.5,0.1c0.2,0.1,0.3,0.3,0.3,0.4l0.8,3.5c0.1,0.4-0.1,0.8-0.5,0.8l-8.3,1.9C189.1,417.7,189.1,417.7,189,417.7z
						 M189.1,414l0.5,2.1l6.9-1.6l-0.5-2.1L189.1,414z"/>
				</g>
				<g>
					<path class="st22" d="M195.8,408.4l0.7,3.1l-8.2,1.9l-0.7-3.1c-0.5-2.3,0.9-4.5,3.2-5.1C192.9,404.7,195.2,406.2,195.8,408.4z"
						/>
					<path class="st23" d="M188.2,414.1c-0.3,0-0.6-0.2-0.7-0.5l-0.7-3.1c-0.3-1.3-0.1-2.6,0.6-3.7c0.7-1.1,1.8-1.9,3.1-2.2
						c1.3-0.3,2.6-0.1,3.7,0.6c1.1,0.7,1.9,1.8,2.2,3.1l0,0l0.7,3.1c0,0.2,0,0.4-0.1,0.5c-0.1,0.2-0.3,0.3-0.4,0.3l-8.2,1.9
						C188.3,414.1,188.3,414.1,188.2,414.1z M191.6,405.9c-0.3,0-0.5,0-0.8,0.1c-0.9,0.2-1.7,0.8-2.2,1.6s-0.7,1.7-0.4,2.7l0.6,2.4
						l6.9-1.6l-0.6-2.4C194.7,407,193.2,405.9,191.6,405.9z"/>
				</g>
				<path class="st12" d="M202.7,463.9c-0.3,0-0.6-0.2-0.7-0.5l-9.9-42.6c-0.1-0.4,0.1-0.8,0.5-0.8c0.4-0.1,0.8,0.1,0.8,0.5
					l9.9,42.6c0.1,0.4-0.1,0.8-0.5,0.8C202.8,463.8,202.8,463.9,202.7,463.9z"/>
				<path class="st12" d="M206.8,468.8c-0.3,0-0.6-0.2-0.7-0.5l-10.3-44.1c-0.1-0.4,0.1-0.8,0.5-0.8c0.4-0.1,0.8,0.1,0.8,0.5
					l10.3,44.1c0.1,0.4-0.1,0.8-0.5,0.8C206.9,468.8,206.8,468.8,206.8,468.8z"/>
				<g>
					<path class="st4" d="M210.4,471.2l-1.3,6.7l-2.7,0.6l-4.2-5.4c0.9-1.4,2.7-1.8,4.1-1C207.2,470.8,209,470.3,210.4,471.2z"/>
					<path class="st3" d="M206.3,479.2c-0.2,0-0.4-0.1-0.6-0.3l-4.2-5.4c-0.2-0.2-0.2-0.6,0-0.8c1-1.5,2.9-2.1,4.5-1.5
						c1.2-1.3,3.2-1.6,4.7-0.7c0.3,0.2,0.4,0.4,0.3,0.7l-1.3,6.7c-0.1,0.3-0.3,0.5-0.5,0.5l-2.7,0.6
						C206.4,479.2,206.4,479.2,206.3,479.2z M203.1,473.1l3.5,4.6l1.9-0.4l1.1-5.7c-1-0.4-2.1,0-2.7,0.9c-0.2,0.3-0.6,0.4-1,0.2
						C205,472.2,203.8,472.4,203.1,473.1z"/>
				</g>
				<g>
					<polygon class="st3" points="209,477.9 208.4,481.1 206.4,478.5 					"/>
					<path class="st3" d="M208.4,481.8c-0.2,0-0.4-0.1-0.6-0.3l-2-2.6c-0.1-0.2-0.2-0.4-0.1-0.7c0.1-0.2,0.3-0.4,0.5-0.5l2.7-0.6
						c0.2-0.1,0.5,0,0.7,0.2c0.2,0.2,0.2,0.4,0.2,0.6l-0.7,3.2c-0.1,0.3-0.3,0.5-0.5,0.5C208.5,481.8,208.4,481.8,208.4,481.8z
						 M207.6,479l0.4,0.5l0.1-0.6L207.6,479z"/>
				</g>
				<g>
					<polygon class="st24" points="208.4,481.1 206.3,478.5 206.4,478.5 					"/>
					<path class="st3" d="M208.4,481.8c-0.2,0-0.4-0.1-0.6-0.3l0,0l-2-2.6c-0.1-0.2-0.2-0.4-0.1-0.6c0.1-0.2,0.2-0.4,0.5-0.5
						c0.3-0.1,0.6,0,0.8,0.2l2,2.6c0.2,0.3,0.2,0.7-0.1,1C208.7,481.8,208.5,481.8,208.4,481.8z"/>
				</g>
			</g>
			<g>
				<g>
					<path class="st7" d="M231.2,422.7l-11.3,56.5c-0.9-1.4-2.8-1.7-4.1-0.8c-0.9-1.4-2.8-1.7-4.1-0.8l11.3-56.5L231.2,422.7z"/>
					<path class="st8" d="M220.2,481.1l-0.9-1.4c-0.7-1-2.1-1.3-3.2-0.6l-0.6,0.4l-0.4-0.6c-0.7-1-2.1-1.3-3.2-0.6l-1.4,0.9
						l11.8-58.9l9.7,1.9L220.2,481.1z M217.4,477.2c0.7,0,1.4,0.2,2.1,0.6l10.9-54.6l-6.9-1.4l-10.9,54.6c1.2-0.2,2.5,0.2,3.4,1.1
						C216.4,477.3,216.9,477.2,217.4,477.2z"/>
				</g>
				<g>
					
						<rect x="225.5" y="415.9" transform="matrix(0.196 -0.9806 0.9806 0.196 -229.1868 560.7332)" class="st21" width="3.6" height="8.5"/>
					<path class="st6" d="M231.2,423.4c0,0-0.1,0-0.1,0l-8.3-1.7c-0.4-0.1-0.6-0.4-0.6-0.8l0.7-3.5c0-0.2,0.1-0.3,0.3-0.4
						c0.2-0.1,0.3-0.1,0.5-0.1l8.3,1.7c0.4,0.1,0.6,0.4,0.6,0.8l-0.7,3.5c0,0.2-0.1,0.3-0.3,0.4
						C231.4,423.4,231.3,423.4,231.2,423.4z M223.7,420.5l7,1.4l0.4-2.2l-7-1.4L223.7,420.5z"/>
				</g>
				<g>
					<path class="st22" d="M232.5,416.1l-0.6,3.1l-8.3-1.7l0.6-3.1c0.5-2.3,2.7-3.8,5-3.3C231.5,411.5,233,413.8,232.5,416.1z"/>
					<path class="st23" d="M231.9,419.8c0,0-0.1,0-0.1,0l-8.3-1.7c-0.2,0-0.3-0.1-0.4-0.3c-0.1-0.2-0.1-0.3-0.1-0.5l0.6-3.1
						c0.3-1.3,1-2.4,2.1-3.1c1.1-0.7,2.4-1,3.7-0.7c1.3,0.3,2.4,1,3.1,2.1c0.7,1.1,1,2.4,0.7,3.7l0,0l-0.6,3.1
						C232.5,419.6,232.2,419.8,231.9,419.8z M224.4,416.9l6.9,1.4l0.5-2.4c0.2-0.9,0-1.9-0.5-2.6c-0.5-0.8-1.3-1.3-2.2-1.5
						c-0.9-0.2-1.9,0-2.6,0.5c-0.8,0.5-1.3,1.3-1.5,2.2L224.4,416.9z M232.5,416.1L232.5,416.1L232.5,416.1z"/>
				</g>
				
					<rect x="198.6" y="446.6" transform="matrix(0.1954 -0.9807 0.9807 0.1954 -261.3044 576.1441)" class="st8" width="43.7" height="1.4"/>
				
					<rect x="199.7" y="452" transform="matrix(0.1954 -0.9807 0.9807 0.1954 -265.1208 582.2534)" class="st8" width="45.3" height="1.4"/>
				<g>
					<path class="st4" d="M219.9,479.3l-2.8,0.7l-2.8-0.6l-2.8-1.8c1.4-0.9,3.2-0.5,4.1,0.8C217.1,477.5,218.9,477.9,219.9,479.3z"
						/>
					<path class="st3" d="M217.1,480.6c0,0-0.1,0-0.1,0l-2.8-0.6c-0.1,0-0.2,0-0.2-0.1l-2.8-1.8c-0.2-0.1-0.3-0.4-0.3-0.6
						s0.1-0.5,0.3-0.6c1.5-1,3.5-0.7,4.7,0.5c1.6-0.7,3.5-0.2,4.6,1.3c0.1,0.2,0.2,0.4,0.1,0.6s-0.3,0.4-0.5,0.4l-2.8,0.7
						C217.2,480.6,217.2,480.6,217.1,480.6z M216.1,479l1,0.2l1.3-0.3C217.7,478.5,216.8,478.5,216.1,479z M214.6,478.7l0.5,0.1
						c-0.4-0.6-1.2-1-1.9-1L214.6,478.7z"/>
				</g>
				<g>
					<polygon class="st3" points="217,479.9 215.1,482.5 214.4,479.4 					"/>
					<path class="st3" d="M215.1,483.2c0,0-0.1,0-0.1,0c-0.3-0.1-0.5-0.3-0.5-0.5l-0.8-3.2c-0.1-0.2,0-0.5,0.2-0.7
						c0.2-0.2,0.4-0.2,0.6-0.2l2.7,0.5c0.2,0,0.4,0.2,0.5,0.4c0.1,0.2,0.1,0.5-0.1,0.7l-1.9,2.6
						C215.6,483.1,215.3,483.2,215.1,483.2z M215.3,480.3l0.1,0.6l0.4-0.5L215.3,480.3z"/>
				</g>
				<g>
					<polygon class="st24" points="215.1,482.5 214.3,479.4 214.4,479.4 					"/>
					<path class="st3" d="M215.1,483.2c-0.3,0-0.6-0.2-0.7-0.5l-0.8-3.2c-0.1-0.2,0-0.5,0.2-0.7c0.2-0.2,0.4-0.3,0.6-0.2
						c0.3,0.1,0.5,0.3,0.6,0.5l0.8,3.2c0.1,0.4-0.1,0.8-0.5,0.8C215.2,483.2,215.2,483.2,215.1,483.2z"/>
				</g>
			</g>
			<g>
				<g>
					<path class="st25" d="M206.2,466.2v-57.6c1.2,1.2,3.1,1.2,4.2,0c1.2,1.2,3.1,1.2,4.2,0v57.6H206.2z"/>
					<path class="st26" d="M214.6,466.9h-8.5c-0.4,0-0.7-0.3-0.7-0.7v-57.6c0-0.3,0.2-0.5,0.4-0.7c0.3-0.1,0.6,0,0.8,0.2
						c0.9,0.9,2.3,0.9,3.2,0c0.3-0.3,0.7-0.3,1,0c0.9,0.9,2.3,0.9,3.2,0c0.2-0.2,0.5-0.3,0.8-0.1c0.3,0.1,0.4,0.4,0.4,0.6v57.6
						C215.3,466.6,215,466.9,214.6,466.9z M206.9,465.5h7v-55.7c-1.1,0.5-2.5,0.3-3.5-0.4c-1,0.7-2.4,0.9-3.5,0.4V465.5z"/>
				</g>
				<g>
					<rect x="206.2" y="466.2" class="st21" width="8.5" height="3.6"/>
					<path class="st6" d="M214.7,470.5h-8.5c-0.4,0-0.7-0.3-0.7-0.7v-3.6c0-0.4,0.3-0.7,0.7-0.7h8.5c0.4,0,0.7,0.3,0.7,0.7v3.6
						C215.4,470.2,215,470.5,214.7,470.5z M206.9,469.1h7.1v-2.2h-7.1V469.1z"/>
				</g>
				<g>
					<path class="st22" d="M206.2,473v-3.1h8.5v3.1c0,2.3-1.9,4.2-4.2,4.2C208.1,477.2,206.2,475.3,206.2,473z"/>
					<path class="st23" d="M210.4,477.9c-2.7,0-4.9-2.2-4.9-4.9v-3.1c0-0.4,0.3-0.7,0.7-0.7h8.5c0.4,0,0.7,0.3,0.7,0.7v3.1
						C215.3,475.7,213.1,477.9,210.4,477.9z M206.9,470.5v2.4c0,1.9,1.6,3.5,3.5,3.5c1.9,0,3.5-1.6,3.5-3.5v-2.4H206.9z"/>
				</g>
				<g>
					<path class="st25" d="M211.8,461.8v-43.7"/>
					<path class="st26" d="M211.8,462.5c-0.4,0-0.7-0.3-0.7-0.7v-43.7c0-0.4,0.3-0.7,0.7-0.7c0.4,0,0.7,0.3,0.7,0.7v43.7
						C212.5,462.2,212.2,462.5,211.8,462.5z"/>
				</g>
				<g>
					<path class="st25" d="M209,457.7v-45.3"/>
					<path class="st26" d="M209,458.4c-0.4,0-0.7-0.3-0.7-0.7v-45.3c0-0.4,0.3-0.7,0.7-0.7c0.4,0,0.7,0.3,0.7,0.7v45.3
						C209.7,458.1,209.4,458.4,209,458.4z"/>
				</g>
				<g>
					<path class="st4" d="M206.2,408.5l2.8-6.2h2.8l2.8,6.2c-1.2,1.2-3.1,1.2-4.2,0C209.2,409.7,207.3,409.7,206.2,408.5z"/>
					<path class="st3" d="M208.3,410.1c-0.9,0-1.9-0.4-2.6-1.1c-0.2-0.2-0.3-0.5-0.1-0.8l2.8-6.2c0.1-0.3,0.4-0.4,0.6-0.4h2.8
						c0.3,0,0.5,0.2,0.6,0.4l2.8,6.2c0.1,0.3,0.1,0.6-0.1,0.8c-1.3,1.3-3.3,1.4-4.7,0.4C209.8,409.9,209,410.1,208.3,410.1z
						 M207,408.3c0.9,0.6,2.1,0.5,2.9-0.3c0.3-0.3,0.7-0.3,1,0c0.8,0.8,2,0.9,2.9,0.3l-2.4-5.3h-1.9L207,408.3z"/>
				</g>
				<g>
					<polygon class="st3" points="209,402.3 210.4,399.3 211.8,402.3 					"/>
					<path class="st3" d="M211.8,403H209c-0.2,0-0.5-0.1-0.6-0.3c-0.1-0.2-0.1-0.5,0-0.7l1.4-3c0.1-0.2,0.4-0.4,0.6-0.4l0,0
						c0.3,0,0.5,0.2,0.6,0.4l1.4,3c0.1,0.2,0.1,0.5,0,0.7C212.2,402.9,212,403,211.8,403z M210.1,401.6h0.5l-0.3-0.6L210.1,401.6z"
						/>
				</g>
				<g>
					<polygon class="st24" points="210.4,399.3 211.8,402.3 211.8,402.3 					"/>
					<path class="st3" d="M211.8,403c-0.3,0-0.5-0.2-0.7-0.4l-1.4-3c-0.2-0.4,0-0.8,0.3-0.9c0.4-0.2,0.8,0,0.9,0.3l1.4,3
						c0.1,0.2,0.1,0.5,0,0.7C212.2,402.9,212,403,211.8,403z"/>
				</g>
			</g>
			<path class="st3" d="M230.6,483.7h-40.8c-0.8,0-1.4-0.6-1.4-1.4v-52.2c0-0.8,0.6-1.4,1.4-1.4h40.8c0.8,0,1.4,0.6,1.4,1.4v52.2
				C232,483.1,231.4,483.7,230.6,483.7z M191.2,480.9h37.9v-49.4h-37.9V480.9z"/>
			<path class="st27" d="M230.6,483.7h-40.8c-0.8,0-1.4-0.6-1.4-1.4v-52.2c0-0.6,0.3-1.1,0.9-1.3c0.5-0.2,1.1-0.1,1.5,0.3l40.8,39
				c0.3,0.3,0.4,0.6,0.4,1v13.3C232,483.1,231.4,483.7,230.6,483.7z M191.2,480.9h37.9v-11.2l-37.9-36.3V480.9z"/>
			<g>
				<rect x="189.8" y="430.1" class="st28" width="40.8" height="52.2"/>
				<path class="st29" d="M230.6,483.7h-40.8c-0.8,0-1.4-0.6-1.4-1.4v-52.2c0-0.8,0.6-1.4,1.4-1.4h40.8c0.8,0,1.4,0.6,1.4,1.4v52.2
					C232,483.1,231.4,483.7,230.6,483.7z M191.2,480.9h37.9v-49.4h-37.9V480.9z"/>
			</g>
			<path class="st30" d="M197.5,434.3v4.1c0,0.5,0.4,0.9,0.9,0.9h23.3c0.5,0,0.9,0.4,0.9,0.9v30.2c0,0.5,0.4,0.9,0.9,0.9h2.7
				c0.5,0,0.9-0.4,0.9-0.9v-36.2c0-0.5-0.4-0.9-0.9-0.9h-27.8C197.9,433.4,197.5,433.8,197.5,434.3z"/>
		</g>
		<g>
			<g>
				<g>
					<polyline class="st19" points="340.9,482.4 359.9,482.4 363.2,478.3 458.4,482.4 461.3,478.3 428.9,459.6 425.7,459.6 
						256.1,459.6 253,459.6 220.5,478.3 223.5,482.4 318.6,478.3 321.9,482.4 340.9,482.4 					"/>
				</g>
				<polygon class="st20" points="318.6,478.3 321.9,482.4 340.9,482.4 359.9,482.4 363.2,478.3 363.2,477.2 359.9,479 340.9,479 
					321.9,479 318.6,477.2 				"/>
				<path class="st18" d="M340.9,483.1h-19c-0.2,0-0.4-0.1-0.5-0.3l-3.1-3.8l-94.8,4c-0.2,0-0.5-0.1-0.6-0.3l-3-4.1
					c-0.1-0.2-0.2-0.4-0.1-0.6c0-0.2,0.2-0.4,0.3-0.5l32.5-18.7c0.1-0.1,0.2-0.1,0.4-0.1h3.1c0.4,0,0.7,0.3,0.7,0.7
					c0,0.4-0.3,0.7-0.7,0.7h-2.9l-31.6,18.2l2.3,3.1l94.8-4c0.2,0,0.4,0.1,0.6,0.3l3.1,3.8h18.7c0.4,0,0.7,0.3,0.7,0.7
					C341.6,482.8,341.3,483.1,340.9,483.1z"/>
				<path class="st4" d="M426.5,461.1l-10.7-7.4c0,0-59.6-26.2-74.9,3.9c-15.3-30.1-74.9-3.9-74.9-3.9l-10.7,7.4l-29.2,17.4
					c74-7,78.6-8.5,88.9-6.1c6.4,1.7,9.8,6.1,9.8,6.1h16h16c0,0,3.4-4.4,9.8-6.1c10.3-2.4,14.9-0.9,88.9,6.1L426.5,461.1z"/>
				<path class="st4" d="M340.9,478.5c0,0-2.5-11.7-14.3-17.2c-16.7-7.8-81.7,4-81.7,4l-18.7,13.3c74-7,78.6-8.5,88.9-6.1
					c6.4,1.7,9.8,6.1,9.8,6.1L340.9,478.5z"/>
				<path class="st18" d="M359.9,483.1h-19c-0.4,0-0.7-0.3-0.7-0.7c0-0.4,0.3-0.7,0.7-0.7h18.7l3.1-3.8c0.1-0.2,0.3-0.3,0.6-0.3
					l94.8,4l2.3-3.1l-31.6-18.2h-2.9c-0.4,0-0.7-0.3-0.7-0.7c0-0.4,0.3-0.7,0.7-0.7h3.1c0.1,0,0.2,0,0.4,0.1l32.5,18.7
					c0.2,0.1,0.3,0.3,0.3,0.5c0,0.2,0,0.4-0.1,0.6l-3,4.1c-0.1,0.2-0.3,0.3-0.6,0.3l-94.8-4l-3.1,3.8
					C360.3,483,360.1,483.1,359.9,483.1z"/>
				<g>
					<path class="st4" d="M340.9,478.5h16c0,0,3.4-4.4,9.8-6.1c10.3-2.4,14.9-0.9,88.9,6.1l-18.7-13.3l-21.1-11.6
						c0,0-59.6-26.2-74.9,3.9V478.5z"/>
					<g>
						<path class="st4" d="M340.9,478.5c0,0,2.5-11.7,14.3-17.2c16.7-7.8,81.7,4,81.7,4l18.7,13.3c-74-7-78.6-8.5-88.9-6.1
							c-6.4,1.7-9.8,6.1-9.8,6.1L340.9,478.5z"/>
						<path class="st18" d="M455.6,479.2C455.6,479.2,455.6,479.2,455.6,479.2c-17.1-1.6-30.4-2.9-41-4c-35.4-3.5-39.9-3.9-47.8-2.1
							c-6.1,1.6-9.3,5.8-9.4,5.8c-0.1,0.2-0.3,0.3-0.6,0.3h-16c-0.2,0-0.4-0.1-0.5-0.3c-0.1-0.2-0.2-0.4-0.1-0.6
							c0.1-0.5,2.7-12.1,14.7-17.7c16.7-7.8,79.5,3.4,82.1,3.9c0.1,0,0.2,0.1,0.3,0.1l18.7,13.3c0.3,0.2,0.4,0.5,0.3,0.8
							C456.2,479,455.9,479.2,455.6,479.2z M341.8,477.8h14.8c0.9-1,4.2-4.5,9.9-6.1c8.1-1.9,12.7-1.4,48.2,2.1
							c10,1,22.5,2.2,38.3,3.7l-16.5-11.6c-3.5-0.6-65.2-11.4-81.1-4C346,466.4,342.7,475.1,341.8,477.8z"/>
					</g>
					<path class="st4" d="M340.9,478.5h-16c0,0-3.4-4.4-9.8-6.1c-10.3-2.4-14.9-0.9-88.9,6.1l18.7-13.3l21.1-11.6
						c0,0,59.6-26.2,74.9,3.9V478.5z"/>
					<path class="st17" d="M355.2,461.3c-7.1,3.5-11.8,8.9-14.3,15.9l0-19.6l6.2-8.4L355.2,461.3z"/>
					<path class="st17" d="M326.3,461.3c6.6,2.4,11.1,8,14.3,15.9v-19.6l-6.2-8.4L326.3,461.3z"/>
					<g>
						<path class="st17" d="M234.4,473.5c-0.3,0-0.6-0.2-0.7-0.6c-0.1-0.4,0.2-0.8,0.6-0.8c0.1,0,6.7-1.2,16.1-2.6
							c0.4,0,0.7,0.2,0.8,0.6c0.1,0.4-0.2,0.7-0.6,0.8c-9.4,1.4-16,2.5-16.1,2.6C234.4,473.5,234.4,473.5,234.4,473.5z"/>
						<path class="st17" d="M333.4,479.2c-0.3,0-0.6-0.2-0.7-0.5c0-0.1-2.6-8.5-14.4-11.3c-4.3-1-10.8-1.5-19.2-1.3
							c-0.4,0-0.7-0.3-0.7-0.7c0-0.4,0.3-0.7,0.7-0.7c8.5-0.2,15.1,0.2,19.5,1.3c12.6,3,15.3,11.9,15.4,12.3
							c0.1,0.4-0.1,0.8-0.5,0.9C333.6,479.2,333.5,479.2,333.4,479.2z"/>
						<path class="st17" d="M259.5,469.6c-0.4,0-0.7-0.3-0.7-0.6c0-0.4,0.2-0.7,0.6-0.8c7.7-1,23.2-2.7,32.6-3.2
							c0.4,0,0.7,0.3,0.7,0.7c0,0.4-0.3,0.7-0.7,0.7C282.7,466.9,267.2,468.7,259.5,469.6C259.6,469.6,259.5,469.6,259.5,469.6z"/>
						<path class="st17" d="M348.7,479.2c-0.1,0-0.1,0-0.2,0c-0.4-0.1-0.6-0.5-0.5-0.9c0.1-0.4,2.8-9.3,15.4-12.3
							c2.2-0.5,5-0.9,8.2-1.1c0.4,0,0.7,0.3,0.8,0.7c0,0.4-0.3,0.7-0.7,0.8c-3.1,0.2-5.8,0.6-8,1.1c-11.8,2.8-14.4,11.3-14.4,11.3
							C349.3,479,349,479.2,348.7,479.2z"/>
						<path class="st17" d="M431.7,470.9c0,0-0.1,0-0.1,0c-4.8-0.7-9.6-1.4-14.1-1.9c-14.9-1.9-27.4-2.8-37.1-2.9
							c-0.4,0-0.7-0.3-0.7-0.7c0-0.4,0.3-0.7,0.7-0.7c0,0,0,0,0,0c9.7,0.1,22.3,1.1,37.2,2.9c4.6,0.6,9.3,1.2,14.2,1.9
							c0.4,0.1,0.7,0.4,0.6,0.8C432.4,470.6,432.1,470.9,431.7,470.9z"/>
					</g>
					<path class="st18" d="M226.2,479.2c-0.3,0-0.6-0.2-0.7-0.5c-0.1-0.3,0-0.6,0.3-0.8l18.7-13.3l21.2-11.6
						c0.2-0.1,15.2-6.6,31.9-9.4c22.3-3.7,37.5,1,43.9,13.6c0.1,0.1,0.1,0.2,0.1,0.3v20.9c0,0.4-0.3,0.7-0.7,0.7h-16
						c-0.2,0-0.4-0.1-0.6-0.3c0,0-3.3-4.2-9.4-5.8c-7.8-1.8-12.4-1.4-47.7,2.1C256.6,476.3,243.3,477.6,226.2,479.2
						C226.3,479.2,226.2,479.2,226.2,479.2z M325.2,477.8h15v-20.1c-15-28.9-73.3-3.7-73.9-3.4l-21.1,11.5l-16.5,11.7
						c15.7-1.5,28.2-2.7,38.3-3.7c35.6-3.5,40.1-4,48.2-2.1C321,473.3,324.3,476.8,325.2,477.8z"/>
					<path class="st18" d="M340.9,479.2c-0.3,0-0.6-0.2-0.7-0.6c0-0.1-2.5-11.4-13.9-16.7c-16.3-7.6-80.6,3.9-81.3,4
						c-0.3,0.1-0.7-0.1-0.8-0.5s0-0.7,0.3-0.9l20.4-11c0.3-0.2,0.8-0.1,1,0.3c0.2,0.3,0.1,0.8-0.3,1l-16.6,9
						c14.8-2.5,63.5-9.9,77.9-3.2c12,5.6,14.6,17.2,14.7,17.7c0.1,0.4-0.2,0.8-0.5,0.8C341,479.2,341,479.2,340.9,479.2z"/>
					<path class="st18" d="M340.9,479.2c0,0-0.1,0-0.1,0c-0.4-0.1-0.6-0.5-0.5-0.8c0.1-0.5,2.7-12.1,14.7-17.7
						c14.4-6.7,63.1,0.7,77.9,3.2l-16.6-9c-0.3-0.2-0.5-0.6-0.3-1c0.2-0.3,0.6-0.5,1-0.3l20.4,11c0.3,0.2,0.4,0.5,0.3,0.9
						s-0.4,0.5-0.8,0.5c-0.6-0.1-65-11.6-81.3-4c-11.4,5.3-13.9,16.6-13.9,16.7C341.5,479,341.3,479.2,340.9,479.2z"/>
					<path class="st18" d="M455.6,479.2C455.6,479.2,455.6,479.2,455.6,479.2c-17.1-1.6-30.4-2.9-41-4c-35.4-3.5-39.9-3.9-47.8-2.1
						c-6.1,1.6-9.3,5.8-9.4,5.8c-0.1,0.2-0.3,0.3-0.6,0.3h-16c-0.4,0-0.7-0.3-0.7-0.7v-20.9c0-0.1,0-0.2,0.1-0.3
						c6.4-12.6,21.6-17.3,43.9-13.6c16.7,2.8,31.7,9.3,31.9,9.4l21.2,11.6l18.8,13.3c0.3,0.2,0.4,0.5,0.3,0.8
						C456.2,479,455.9,479.2,455.6,479.2z M341.6,477.8h15c0.9-1,4.2-4.5,9.9-6.1c8.1-1.9,12.7-1.4,48.2,2.1c10,1,22.5,2.2,38.3,3.7
						l-16.6-11.7l-21-11.5c-0.5-0.2-58.9-25.5-73.8,3.4V477.8z"/>
					<path class="st17" d="M353.3,453.1c-0.2,0-0.3-0.1-0.5-0.2c-0.3-0.3-0.3-0.7,0-1c0.3-0.3,6.6-7.1,20.7-5.9
						c13.8,1.1,22.8,3.7,22.9,3.7c0.4,0.1,0.6,0.5,0.5,0.9c-0.1,0.4-0.5,0.6-0.9,0.5c-0.1,0-8.9-2.6-22.6-3.7
						c-13.4-1.1-19.5,5.4-19.6,5.5C353.7,453,353.5,453.1,353.3,453.1z"/>
					<path class="st17" d="M354.4,456.1c-0.2,0-0.4-0.1-0.5-0.2c-0.3-0.3-0.3-0.7,0-1c0.2-0.1,3.8-3.6,8.6-4.5
						c0.4-0.1,0.8,0.2,0.8,0.6c0.1,0.4-0.2,0.8-0.6,0.8c-4.3,0.8-7.8,4.1-7.9,4.1C354.8,456,354.6,456.1,354.4,456.1z"/>
					<path class="st17" d="M379.4,451.7c-0.1,0-0.1,0-0.2,0c-6.3-1.7-12.6-0.4-12.7-0.4c-0.4,0.1-0.8-0.2-0.8-0.5
						c-0.1-0.4,0.2-0.8,0.5-0.8c0.3-0.1,6.8-1.4,13.3,0.4c0.4,0.1,0.6,0.5,0.5,0.9C380,451.5,379.8,451.7,379.4,451.7z"/>
					<path class="st17" d="M404.6,456.1c-0.1,0-0.1,0-0.2,0c-1.3-0.3-2.6-0.6-3.8-0.9c-6.2-1.4-11.1-2.5-17.5-3
						c-0.4,0-0.7-0.4-0.6-0.8c0-0.4,0.4-0.7,0.8-0.6c6.5,0.5,11.5,1.6,17.7,3c1.2,0.3,2.5,0.6,3.8,0.9c0.4,0.1,0.6,0.5,0.5,0.8
						C405.2,455.8,404.9,456.1,404.6,456.1z"/>
					<path class="st17" d="M328,454.7c-0.2,0-0.4-0.1-0.5-0.2c-0.1-0.1-6.2-6.5-19.6-5.5c-13.7,1.1-22.5,3.7-22.6,3.7
						c-0.4,0.1-0.8-0.1-0.9-0.5c-0.1-0.4,0.1-0.8,0.5-0.9c0.1,0,9.1-2.6,22.9-3.7c14.1-1.1,20.4,5.6,20.7,5.9c0.3,0.3,0.2,0.7,0,1
						C328.3,454.6,328.2,454.7,328,454.7z"/>
					<path class="st17" d="M326.9,457.6c-0.2,0-0.4-0.1-0.5-0.2c0,0-3.5-3.3-7.9-4.1c-0.4-0.1-0.6-0.4-0.6-0.8
						c0.1-0.4,0.4-0.6,0.8-0.6c4.8,0.9,8.4,4.4,8.6,4.5c0.3,0.3,0.3,0.7,0,1C327.2,457.6,327,457.6,326.9,457.6z"/>
					<path class="st17" d="M301.8,453.3c-0.3,0-0.6-0.2-0.7-0.5c-0.1-0.4,0.1-0.8,0.5-0.9c6.6-1.8,13.1-0.5,13.3-0.4
						c0.4,0.1,0.6,0.5,0.5,0.8c-0.1,0.4-0.5,0.6-0.8,0.5c-0.1,0-6.4-1.4-12.7,0.4C301.9,453.3,301.9,453.3,301.8,453.3z"/>
					<path class="st17" d="M276.6,457.6c-0.3,0-0.6-0.2-0.7-0.6c-0.1-0.4,0.2-0.8,0.5-0.8c1.3-0.3,2.6-0.6,3.8-0.9
						c6.2-1.4,11.2-2.5,17.7-3c0.4,0,0.7,0.3,0.8,0.6c0,0.4-0.3,0.7-0.6,0.8c-6.4,0.5-11.3,1.6-17.5,3c-1.2,0.3-2.5,0.6-3.8,0.9
						C276.7,457.6,276.7,457.6,276.6,457.6z"/>
					<path class="st17" d="M356,458.8c-0.3,0-0.5-0.1-0.6-0.4c-0.2-0.3,0-0.8,0.3-0.9c0.2-0.1,5.2-2.6,9.9-3.6
						c6.9-1.5,19.2,0.6,19.7,0.7c0.4,0.1,0.6,0.4,0.6,0.8c-0.1,0.4-0.4,0.6-0.8,0.6c-0.1,0-12.5-2.1-19.2-0.7
						c-4.5,0.9-9.5,3.4-9.5,3.4C356.2,458.8,356.1,458.8,356,458.8z"/>
				</g>
			</g>
			<polygon class="st7" points="343,454.2 340.9,457.6 340.9,478.5 340.9,498.9 345.1,493.9 349.3,498.9 349.3,478.5 349.3,478.5 
							"/>
			<polygon class="st31" points="345.1,493.9 345.6,478.5 342.7,454.6 340.9,457.6 340.9,478.5 340.9,498.9 			"/>
			<polygon class="st31" points="340.9,492.6 340.9,498.9 345.1,493.9 349.3,498.9 349.3,492.7 345.1,487.6 			"/>
			<path class="st8" d="M349.3,499.6c-0.2,0-0.4-0.1-0.5-0.3l-3.6-4.4l-3.6,4.4c-0.2,0.2-0.5,0.3-0.8,0.2c-0.3-0.1-0.5-0.4-0.5-0.7
				v-41.3c0-0.1,0-0.3,0.1-0.4l2.1-3.4c0.1-0.2,0.4-0.4,0.7-0.3c0.3,0,0.5,0.2,0.6,0.5l6.3,24.3c0,0.1,0,0.1,0,0.2v20.4
				c0,0.3-0.2,0.6-0.5,0.7C349.4,499.6,349.4,499.6,349.3,499.6z M345.1,493.2c0.2,0,0.4,0.1,0.5,0.3l2.9,3.5v-18.3l-5.8-22.6
				l-1.1,1.8v39.2l2.9-3.5C344.7,493.3,344.9,493.2,345.1,493.2z"/>
		</g>
		<g>
			<path class="st6" d="M261.3,136.1c-0.4,0-0.7-0.3-0.7-0.7v-8.9c-1.6,2.6-3.2,5.1-5,7.7c-0.7,0.9-1.5,1.9-2.8,2
				c-0.8,0-1.6-0.3-2.2-1c-0.5-0.6-0.7-1.3-0.7-2c0-1.3,0.8-2.6,2.2-2.7c0.4,0,0.7,0.3,0.7,0.7c0,0.4-0.3,0.7-0.7,0.7
				c-0.6,0-0.8,0.8-0.8,1.3c0,0.4,0.1,0.8,0.4,1.2c0.2,0.3,0.6,0.5,1,0.4c0.7,0,1.2-0.7,1.7-1.4c2.2-3.2,4.3-6.5,6.2-9.7
				c0.2-0.3,0.5-0.4,0.8-0.3c0.3,0.1,0.5,0.4,0.5,0.7v11.4C262,135.8,261.7,136.1,261.3,136.1z"/>
			<path class="st6" d="M263.2,136.1h-3.9c-0.4,0-0.7-0.3-0.7-0.7c0-0.4,0.3-0.7,0.7-0.7h3.9c0.4,0,0.7,0.3,0.7,0.7
				C263.9,135.8,263.6,136.1,263.2,136.1z"/>
			<path class="st6" d="M260.9,131.7H257c-0.4,0-0.7-0.3-0.7-0.7c0-0.4,0.3-0.7,0.7-0.7h3.9c0.4,0,0.7,0.3,0.7,0.7
				C261.6,131.4,261.3,131.7,260.9,131.7z"/>
			<path class="st6" d="M301,136.1h-29.2c-0.4,0-0.7-0.3-0.7-0.7c0-0.4,0.3-0.7,0.7-0.7H301c0.4,0,0.7,0.3,0.7,0.7
				C301.7,135.8,301.4,136.1,301,136.1z"/>
			<path class="st6" d="M301,143.4h-49.6c-0.4,0-0.7-0.3-0.7-0.7c0-0.4,0.3-0.7,0.7-0.7H301c0.4,0,0.7,0.3,0.7,0.7
				C301.7,143,301.4,143.4,301,143.4z"/>
			<path class="st6" d="M301,150.6h-49.6c-0.4,0-0.7-0.3-0.7-0.7c0-0.4,0.3-0.7,0.7-0.7H301c0.4,0,0.7,0.3,0.7,0.7
				C301.7,150.3,301.4,150.6,301,150.6z"/>
			<path class="st6" d="M301,157.9h-49.6c-0.4,0-0.7-0.3-0.7-0.7c0-0.4,0.3-0.7,0.7-0.7H301c0.4,0,0.7,0.3,0.7,0.7
				C301.7,157.6,301.4,157.9,301,157.9z"/>
			<path class="st6" d="M301,172.5h-49.6c-0.4,0-0.7-0.3-0.7-0.7c0-0.4,0.3-0.7,0.7-0.7H301c0.4,0,0.7,0.3,0.7,0.7
				C301.7,172.2,301.4,172.5,301,172.5z"/>
			<path class="st6" d="M301,179.8h-49.6c-0.4,0-0.7-0.3-0.7-0.7c0-0.4,0.3-0.7,0.7-0.7H301c0.4,0,0.7,0.3,0.7,0.7
				C301.7,179.5,301.4,179.8,301,179.8z"/>
			<path class="st6" d="M283,187.1h-31.6c-0.4,0-0.7-0.3-0.7-0.7c0-0.4,0.3-0.7,0.7-0.7H283c0.4,0,0.7,0.3,0.7,0.7
				C283.7,186.7,283.3,187.1,283,187.1z"/>
			<path class="st6" d="M275.8,194.3h-24.5c-0.4,0-0.7-0.3-0.7-0.7c0-0.4,0.3-0.7,0.7-0.7h24.5c0.4,0,0.7,0.3,0.7,0.7
				C276.5,194,276.2,194.3,275.8,194.3z"/>
			<path class="st6" d="M278.1,165.2h-26.7c-0.4,0-0.7-0.3-0.7-0.7c0-0.4,0.3-0.7,0.7-0.7h26.7c0.4,0,0.7,0.3,0.7,0.7
				C278.8,164.9,278.5,165.2,278.1,165.2z"/>
			<circle class="st6" cx="267.4" cy="135.4" r="0.5"/>
		</g>
		<g>
			<path class="st7" d="M299.1,203.7c-2.5,0-5-0.5-7.3-1.4c-2.9-1.1-5-2.7-6.4-4.9c-1.7-2.8-2.1-6.5-0.8-9.1
				c0.8-1.6,2.1-2.8,4.2-3.8c2-0.9,3.7-1.2,5.3-0.9c2,0.5,3.6,2.2,4.1,4.3c0.1,0.4-0.2,0.8-0.5,0.8c-0.4,0.1-0.8-0.2-0.8-0.5
				c-0.4-1.8-1.8-2.9-3-3.2c-1.2-0.3-2.6,0-4.3,0.8c-1.7,0.8-2.8,1.8-3.5,3.1c-1.2,2.4-0.6,5.7,0.7,7.7c1.2,1.9,3.1,3.3,5.7,4.3
				c2.4,0.9,4.9,1.3,7.5,1.3c2-0.1,3.2-0.5,4.1-1.5c1.5-1.6,1.8-5.1,0.7-7.7c-1.3-2.8-3.6-4.2-5.4-4.9c-0.4-0.1-0.5-0.6-0.4-0.9
				s0.6-0.5,0.9-0.4c2,0.8,4.7,2.4,6.2,5.6c1.2,2.7,1.2,6.9-0.9,9.2c-1.5,1.6-3.6,1.9-5.1,1.9C299.6,203.7,299.4,203.7,299.1,203.7z
				"/>
			<g>
				<path class="st7" d="M293.2,199.7c-0.2,0-0.3-0.1-0.5-0.2c-0.3-0.3-0.5-0.8-0.3-1.3c0.1-0.2,0.2-0.3,0.4-0.4
					c0.6-2.8,0.9-5.7,1-8.6c0-0.4,0.4-0.7,0.7-0.7c0.4,0,0.7,0.3,0.7,0.7c-0.1,3.3-0.5,6.6-1.2,9.9c-0.1,0.2-0.2,0.4-0.5,0.5
					C293.3,199.7,293.3,199.7,293.2,199.7z"/>
				<path class="st7" d="M298.4,197.9c-0.3,0-0.6-0.2-0.7-0.5c-0.5-2.3-1.4-4.4-2.6-6.4c0,0-0.1,0-0.1,0c-0.3-0.1-0.6-0.5-0.5-0.9
					c0.1-0.4,0.5-0.7,0.8-0.7c0.3,0,0.6,0.2,0.8,0.5c1.4,2.2,2.4,4.6,2.9,7.2c0.1,0.4-0.2,0.8-0.5,0.8
					C298.6,197.9,298.5,197.9,298.4,197.9z"/>
				<path class="st7" d="M290.2,196.3c-0.4,0-0.7-0.3-0.7-0.4c-0.2-0.3-0.2-0.7,0.1-1c0.3-0.3,0.7-0.3,1-0.2
					c0.9-0.3,1.8-0.6,2.6-0.8c1.3-0.3,2.5-0.6,3.6-1.3c0.3-0.2,0.8-0.1,1,0.3c0.2,0.3,0.1,0.8-0.3,1c-1.2,0.7-2.6,1.1-3.9,1.4
					c-1,0.2-1.9,0.5-2.8,0.9C290.5,196.3,290.3,196.3,290.2,196.3z"/>
			</g>
			<path class="st7" d="M300.2,192.1h-2.1c-0.4,0-0.7-0.3-0.7-0.7s0.3-0.7,0.7-0.7h2.1c0.4,0,0.7,0.3,0.7,0.7
				S300.6,192.1,300.2,192.1z"/>
		</g>
		<path class="st7" d="M264.4,168c-2.5,0-5-0.1-7.4-0.2c-2.5-0.1-5.3-0.4-7.2-2.2c-0.8-0.8-1.1-1.6-0.9-2.4c0.3-1,1.3-1.6,2.9-1.7
			c9.3-0.6,18.8-0.5,28.1,0.2c0.4,0,0.7,0.4,0.6,0.8c0,0.4-0.4,0.7-0.8,0.6c-9.2-0.7-18.6-0.8-27.8-0.2c-0.6,0-1.5,0.2-1.7,0.7
			c-0.1,0.3,0.2,0.7,0.5,1c1.5,1.5,3.9,1.7,6.3,1.8c7.2,0.3,14.5,0.2,21.7-0.4c0.7-0.1,1.3-0.1,1.7-0.4c0.2-0.1,0.3-0.4,0.3-0.6
			c0-0.1,0-0.2-0.1-0.2c-0.3-0.2-0.3-0.7-0.1-1c0.2-0.3,0.7-0.3,1-0.1c0.4,0.3,0.6,0.8,0.6,1.3c0,0.6-0.3,1.3-0.8,1.7
			c-0.8,0.6-1.7,0.7-2.5,0.8C274.1,167.8,269.3,168,264.4,168z"/>
		<g>
			
				<rect x="740.5" y="344.3" transform="matrix(0.9936 -0.113 0.113 0.9936 -40.0136 87.3928)" class="st32" width="20.8" height="104.7"/>
			
				<rect x="747.7" y="344.1" transform="matrix(0.9936 -0.113 0.113 0.9936 -40.0084 87.4225)" class="st33" width="6.9" height="105.2"/>
			<path class="st34" d="M746.5,450.6c-0.2,0-0.3-0.1-0.4-0.2c-0.1-0.1-0.2-0.3-0.3-0.5L734,345.9c0-0.4,0.2-0.7,0.6-0.8l20.7-2.4
				c0.2,0,0.4,0,0.5,0.1c0.1,0.1,0.2,0.3,0.3,0.5l11.8,104.1c0,0.4-0.2,0.7-0.6,0.8L746.5,450.6
				C746.5,450.6,746.5,450.6,746.5,450.6z M735.4,346.4l11.7,102.7l19.3-2.2l-11.7-102.7L735.4,346.4z"/>
			
				<rect x="738.3" y="360.9" transform="matrix(0.9936 -0.113 0.113 0.9936 -37.827 87.0178)" class="st35" width="20.8" height="32.6"/>
			<polyline class="st1" points="750.5,359.9 754.3,392.9 747.4,393.7 743.6,360.7 			"/>
			<path class="st34" d="M740.2,395.3c-0.4,0-0.7-0.3-0.7-0.6l-3.7-32.4c0-0.2,0-0.4,0.1-0.5c0.1-0.1,0.3-0.2,0.5-0.3l20.7-2.4
				c0.4,0,0.7,0.2,0.8,0.6l3.7,32.4c0,0.2,0,0.4-0.1,0.5c-0.1,0.1-0.3,0.2-0.5,0.3L740.2,395.3C740.3,395.3,740.2,395.3,740.2,395.3
				z M737.3,362.8l3.5,31l19.3-2.2l-3.5-31L737.3,362.8z"/>
			<path class="st34" d="M741,371.8c-0.4,0-0.7-0.3-0.7-0.6c0-0.4,0.2-0.7,0.6-0.8l13.9-1.6c0.4,0,0.7,0.2,0.8,0.6
				c0,0.4-0.2,0.7-0.6,0.8L741,371.8C741.1,371.8,741.1,371.8,741,371.8z"/>
			<path class="st34" d="M741.8,378.7c-0.4,0-0.7-0.3-0.7-0.6c0-0.4,0.2-0.7,0.6-0.8l13.9-1.6c0.4,0,0.7,0.2,0.8,0.6
				c0,0.4-0.2,0.7-0.6,0.8L741.8,378.7C741.8,378.7,741.8,378.7,741.8,378.7z"/>
			<path class="st34" d="M745,385.5c-0.4,0-0.7-0.3-0.7-0.6c0-0.4,0.2-0.7,0.6-0.8l8.5-1c0.4,0,0.7,0.2,0.8,0.6
				c0,0.4-0.2,0.7-0.6,0.8L745,385.5C745,385.5,745,385.5,745,385.5z"/>
		</g>
		<g>
			<path class="st36" d="M733.1,450.6c-0.3,0-0.7-0.3-0.7-0.6l-13.7-103.8c-0.1-0.4,0.2-0.7,0.6-0.8l13.7-1.8c0.2,0,0.4,0,0.5,0.1
				c0.1,0.1,0.2,0.3,0.3,0.5L747.5,448c0,0.2,0,0.4-0.1,0.5c-0.1,0.1-0.3,0.2-0.5,0.3L733.1,450.6
				C733.2,450.6,733.1,450.6,733.1,450.6z M720.2,346.7l13.5,102.4l12.3-1.6L732.5,345L720.2,346.7z"/>
			
				<rect x="726.2" y="344.7" transform="matrix(0.9914 -0.1309 0.1309 0.9914 -45.6748 99.397)" class="st36" width="13.9" height="104.7"/>
			
				<rect x="732.7" y="344.3" transform="matrix(0.9914 -0.1309 0.1309 0.9914 -45.6067 99.6449)" class="st37" width="4.7" height="104.7"/>
			
				<rect x="721.4" y="352.4" transform="matrix(0.9914 -0.1309 0.1309 0.9914 -41.0205 98.4683)" class="st37" width="13.9" height="17.7"/>
			
				<rect x="727.9" y="352.3" transform="matrix(0.9914 -0.1309 0.1309 0.9914 -40.9555 98.7169)" class="st38" width="4.7" height="17.1"/>
			
				<rect x="731.1" y="425.8" transform="matrix(0.9914 -0.1309 0.1309 0.9914 -50.5464 100.3691)" class="st37" width="13.9" height="17.7"/>
			<path class="st36" d="M722.7,371.6c-0.2,0-0.3-0.1-0.4-0.1c-0.1-0.1-0.2-0.3-0.3-0.5l-2.3-17.5c0-0.2,0-0.4,0.1-0.5
				c0.1-0.1,0.3-0.2,0.5-0.3l13.7-1.8c0.4-0.1,0.7,0.2,0.8,0.6l2.3,17.5c0.1,0.4-0.2,0.7-0.6,0.8L722.7,371.6
				C722.7,371.6,722.7,371.6,722.7,371.6z M721.1,354l2.1,16.1l12.3-1.6l-2.1-16.1L721.1,354z"/>
			<path class="st36" d="M723.9,362.5c-0.3,0-0.7-0.3-0.7-0.6c-0.1-0.4,0.2-0.7,0.6-0.8l9-1.2c0.4-0.1,0.7,0.2,0.8,0.6
				c0.1,0.4-0.2,0.7-0.6,0.8L723.9,362.5C723.9,362.5,723.9,362.5,723.9,362.5z"/>
			
				<rect x="737.7" y="425.8" transform="matrix(0.9914 -0.1309 0.1309 0.9914 -50.4962 100.6205)" class="st38" width="4.7" height="17.1"/>
			<path class="st36" d="M732.3,445c-0.3,0-0.7-0.3-0.7-0.6l-2.3-17.5c0-0.2,0-0.4,0.1-0.5c0.1-0.1,0.3-0.2,0.5-0.3l13.7-1.8
				c0.4-0.1,0.7,0.2,0.8,0.6l2.3,17.5c0,0.2,0,0.4-0.1,0.5c-0.1,0.1-0.3,0.2-0.5,0.3L732.3,445C732.4,445,732.4,445,732.3,445z
				 M730.8,427.4l2.1,16.1l12.3-1.6l-2.1-16.1L730.8,427.4z"/>
			<path class="st36" d="M733.6,435.9c-0.3,0-0.7-0.3-0.7-0.6c-0.1-0.4,0.2-0.7,0.6-0.8l9-1.2c0.4-0.1,0.7,0.2,0.8,0.6
				c0.1,0.4-0.2,0.7-0.6,0.8L733.6,435.9C733.6,435.9,733.6,435.9,733.6,435.9z"/>
		</g>
		<g>
			
				<rect x="697.9" y="343.9" transform="matrix(0.9936 -0.113 0.113 0.9936 -40.2201 82.9699)" class="st39" width="27.7" height="104.7"/>
			
				<rect x="698" y="385.4" transform="matrix(0.9936 -0.113 0.113 0.9936 -40.308 82.985)" class="st39" width="27.7" height="23.3"/>
			
				<rect x="711.5" y="343.5" transform="matrix(0.9936 -0.113 0.113 0.9936 -40.157 83.3379)" class="st17" width="7.1" height="104.7"/>
			<path class="st18" d="M699.4,410.9c-0.4,0-0.7-0.3-0.7-0.6l-2.6-23.1c0-0.2,0-0.4,0.1-0.5c0.1-0.1,0.3-0.2,0.5-0.3l27.6-3.1
				c0.4,0,0.7,0.2,0.8,0.6l2.6,23.1c0,0.2,0,0.4-0.1,0.5c-0.1,0.1-0.3,0.2-0.5,0.3L699.4,410.9C699.5,410.9,699.5,410.9,699.4,410.9
				z M697.6,387.7l2.5,21.7l26.2-3l-2.5-21.7L697.6,387.7z"/>
			<g>
				<path class="st18" d="M702.7,394c-0.4,0-0.7-0.3-0.7-0.6c0-0.4,0.2-0.7,0.6-0.8l17.3-2c0.4,0,0.7,0.2,0.8,0.6
					c0,0.4-0.2,0.7-0.6,0.8L702.7,394C702.8,394,702.7,394,702.7,394z"/>
				<path class="st18" d="M703.2,398.8c-0.4,0-0.7-0.3-0.7-0.6c0-0.4,0.2-0.7,0.6-0.8l17.3-2c0.4,0,0.7,0.2,0.8,0.6
					s-0.2,0.7-0.6,0.8L703.2,398.8C703.2,398.8,703.2,398.8,703.2,398.8z"/>
				<path class="st18" d="M706.9,404.6c-0.4,0-0.7-0.3-0.7-0.6c0-0.4,0.2-0.7,0.6-0.8l11.4-1.3c0.4,0,0.7,0.2,0.8,0.6
					c0,0.4-0.2,0.7-0.6,0.8L706.9,404.6C707,404.6,706.9,404.6,706.9,404.6z"/>
			</g>
			<path class="st18" d="M703.9,450.6c-0.2,0-0.3-0.1-0.4-0.2c-0.1-0.1-0.2-0.3-0.3-0.5l-11.8-104.1c0-0.4,0.2-0.7,0.6-0.8l27.6-3.1
				c0.2,0,0.4,0,0.5,0.1c0.1,0.1,0.2,0.3,0.3,0.5l11.8,104.1c0,0.2,0,0.4-0.1,0.5c-0.1,0.1-0.3,0.2-0.5,0.3L703.9,450.6
				C704,450.6,704,450.6,703.9,450.6z M692.9,346.4l11.7,102.7l26.2-3L719,343.5L692.9,346.4z"/>
		</g>
		<g>
			<path class="st40" d="M677.3,236.6H415.1c-7.4,0-13.4,6-13.4,13.4v179.7c0,7.4,6,13.4,13.4,13.4h262.3c7.4,0,13.4-6,13.4-13.4
				V249.9C690.7,242.5,684.7,236.6,677.3,236.6z M677.2,418.6h-262V251.8h262V418.6z"/>
			<g>
				<rect x="415.2" y="251.8" class="st4" width="262" height="166.8"/>
				<path class="st6" d="M658,405.4H482.7c-0.4,0-0.7-0.3-0.7-0.7V283.8c0-0.4,0.3-0.7,0.7-0.7H658c0.4,0,0.7,0.3,0.7,0.7v120.9
					C658.7,405.1,658.4,405.4,658,405.4z M483.4,404h173.9V284.5H483.4V404z"/>
				<path class="st6" d="M470.2,293h-43.3c-0.4,0-0.7-0.3-0.7-0.7v-8.5c0-0.4,0.3-0.7,0.7-0.7h43.3c0.4,0,0.7,0.3,0.7,0.7v8.5
					C470.9,292.7,470.6,293,470.2,293z M427.6,291.6h41.9v-7.1h-41.9V291.6z"/>
				<path class="st6" d="M671.8,419.3c-0.4,0-0.7-0.3-0.7-0.7V272.3c0-3.2-2.6-5.8-5.8-5.8H427.8c-3.2,0-5.8,2.6-5.8,5.8v146.3
					c0,0.4-0.3,0.7-0.7,0.7c-0.4,0-0.7-0.3-0.7-0.7V272.3c0-4,3.2-7.2,7.2-7.2h237.5c4,0,7.2,3.2,7.2,7.2v146.3
					C672.6,419,672.2,419.3,671.8,419.3z"/>
				<path class="st6" d="M470.2,315.5h-43.3c-0.4,0-0.7-0.3-0.7-0.7v-8.5c0-0.4,0.3-0.7,0.7-0.7h43.3c0.4,0,0.7,0.3,0.7,0.7v8.5
					C470.9,315.2,470.6,315.5,470.2,315.5z M427.6,314.1h41.9V307h-41.9V314.1z"/>
				<path class="st6" d="M470.2,338h-43.3c-0.4,0-0.7-0.3-0.7-0.7v-8.5c0-0.4,0.3-0.7,0.7-0.7h43.3c0.4,0,0.7,0.3,0.7,0.7v8.5
					C470.9,337.7,470.6,338,470.2,338z M427.6,336.6h41.9v-7.1h-41.9V336.6z"/>
				<path class="st6" d="M470.2,360.5h-43.3c-0.4,0-0.7-0.3-0.7-0.7v-8.5c0-0.4,0.3-0.7,0.7-0.7h43.3c0.4,0,0.7,0.3,0.7,0.7v8.5
					C470.9,360.2,470.6,360.5,470.2,360.5z M427.6,359.1h41.9V352h-41.9V359.1z"/>
				<path class="st6" d="M470.2,383h-43.3c-0.4,0-0.7-0.3-0.7-0.7v-8.5c0-0.4,0.3-0.7,0.7-0.7h43.3c0.4,0,0.7,0.3,0.7,0.7v8.5
					C470.9,382.6,470.6,383,470.2,383z M427.6,381.6h41.9v-7.1h-41.9V381.6z"/>
				<path class="st6" d="M470.2,405.4h-43.3c-0.4,0-0.7-0.3-0.7-0.7v-8.5c0-0.4,0.3-0.7,0.7-0.7h43.3c0.4,0,0.7,0.3,0.7,0.7v8.5
					C470.9,405.1,470.6,405.4,470.2,405.4z M427.6,404h41.9v-7.1h-41.9V404z"/>
				<path class="st6" d="M446.9,259.9h-22.1c-0.4,0-0.7-0.3-0.7-0.7c0-0.4,0.3-0.7,0.7-0.7h22.1c0.4,0,0.7,0.3,0.7,0.7
					C447.6,259.6,447.3,259.9,446.9,259.9z"/>
				<path class="st6" d="M475.5,259.9h-22.1c-0.4,0-0.7-0.3-0.7-0.7c0-0.4,0.3-0.7,0.7-0.7h22.1c0.4,0,0.7,0.3,0.7,0.7
					C476.2,259.6,475.8,259.9,475.5,259.9z"/>
				<path class="st6" d="M502.5,259.9h-22.1c-0.4,0-0.7-0.3-0.7-0.7c0-0.4,0.3-0.7,0.7-0.7h22.1c0.4,0,0.7,0.3,0.7,0.7
					C503.2,259.6,502.8,259.9,502.5,259.9z"/>
				<path class="st6" d="M531,259.9H509c-0.4,0-0.7-0.3-0.7-0.7c0-0.4,0.3-0.7,0.7-0.7H531c0.4,0,0.7,0.3,0.7,0.7
					C531.7,259.6,531.4,259.9,531,259.9z"/>
				<path class="st6" d="M645.7,261.4c-1.4,0-2.6-1.2-2.6-2.6c0-1.4,1.2-2.6,2.6-2.6c1.4,0,2.6,1.2,2.6,2.6
					C648.3,260.2,647.1,261.4,645.7,261.4z M645.7,257.6c-0.6,0-1.2,0.5-1.2,1.2c0,0.6,0.5,1.2,1.2,1.2c0.6,0,1.2-0.5,1.2-1.2
					C646.9,258.1,646.4,257.6,645.7,257.6z"/>
				<path class="st6" d="M450.4,275.5c-1.4,0-2.6-1.2-2.6-2.6c0-1.4,1.2-2.6,2.6-2.6c1.4,0,2.6,1.2,2.6,2.6
					C453,274.4,451.9,275.5,450.4,275.5z M450.4,271.8c-0.6,0-1.2,0.5-1.2,1.2c0,0.6,0.5,1.2,1.2,1.2c0.6,0,1.2-0.5,1.2-1.2
					C451.6,272.3,451.1,271.8,450.4,271.8z"/>
				<path class="st6" d="M440,275.5c-1.4,0-2.6-1.2-2.6-2.6c0-1.4,1.2-2.6,2.6-2.6c1.4,0,2.6,1.2,2.6,2.6
					C442.6,274.4,441.4,275.5,440,275.5z M440,271.8c-0.6,0-1.2,0.5-1.2,1.2c0,0.6,0.5,1.2,1.2,1.2c0.6,0,1.2-0.5,1.2-1.2
					C441.2,272.3,440.7,271.8,440,271.8z"/>
				<path class="st6" d="M429.6,275.5c-1.4,0-2.6-1.2-2.6-2.6c0-1.4,1.2-2.6,2.6-2.6c1.4,0,2.6,1.2,2.6,2.6
					C432.2,274.4,431,275.5,429.6,275.5z M429.6,271.8c-0.6,0-1.2,0.5-1.2,1.2c0,0.6,0.5,1.2,1.2,1.2c0.6,0,1.2-0.5,1.2-1.2
					C430.8,272.3,430.3,271.8,429.6,271.8z"/>
				<g>
					<path class="st20" d="M494.9,305.3c-1,0-1.9-0.4-2.5-1.2c-0.5-0.7-0.8-1.6-0.8-2.5c0-1.5,0.9-3.2,2.6-3.3l0.1,1.4
						c-0.8,0-1.3,1.1-1.2,1.8c0,0.6,0.2,1.2,0.5,1.6c0.3,0.4,0.8,0.7,1.4,0.6c0.9,0,1.7-0.9,2.3-1.8c2.8-4.1,5.4-8.3,7.9-12.4
						l1.3-2.1v17H505v-12c-2.1,3.4-4.3,6.9-6.6,10.3C497.6,304.1,496.6,305.2,494.9,305.3C495,305.3,495,305.3,494.9,305.3z"/>
					<rect x="503.2" y="303.9" class="st20" width="4.9" height="1.4"/>
					<rect x="500.3" y="298.3" class="st20" width="4.9" height="1.4"/>
					<path class="st20" d="M513.5,306c-0.7,0-1.4-0.6-1.4-1.4s0.6-1.4,1.4-1.4c0.7,0,1.4,0.6,1.4,1.4S514.3,306,513.5,306z
						 M513.6,304.6L513.6,304.6C513.5,304.7,513.6,304.6,513.6,304.6z"/>
				</g>
				<rect x="524" y="291.7" class="st3" width="14.8" height="1.4"/>
				<rect x="524" y="299" class="st3" width="92.7" height="1.4"/>
				<rect x="491" y="335.4" class="st3" width="14.8" height="1.4"/>
				<rect x="491" y="342.7" class="st3" width="92.7" height="1.4"/>
				<path class="st6" d="M647.6,315.5h-43.1c-0.4,0-0.7-0.3-0.7-0.7c0-0.4,0.3-0.7,0.7-0.7h43.1c0.4,0,0.7,0.3,0.7,0.7
					C648.3,315.2,648,315.5,647.6,315.5z"/>
				<path class="st6" d="M596.6,315.5h-26.2c-0.4,0-0.7-0.3-0.7-0.7c0-0.4,0.3-0.7,0.7-0.7h26.2c0.4,0,0.7,0.3,0.7,0.7
					C597.3,315.2,597,315.5,596.6,315.5z"/>
				<path class="st6" d="M562.7,315.5h-31.2c-0.4,0-0.7-0.3-0.7-0.7c0-0.4,0.3-0.7,0.7-0.7h31.2c0.4,0,0.7,0.3,0.7,0.7
					C563.4,315.2,563.1,315.5,562.7,315.5z"/>
				<path class="st6" d="M524,315.5h-33c-0.4,0-0.7-0.3-0.7-0.7c0-0.4,0.3-0.7,0.7-0.7h33c0.4,0,0.7,0.3,0.7,0.7
					C524.7,315.2,524.4,315.5,524,315.5z"/>
				<path class="st6" d="M545,321.5h-54c-0.4,0-0.7-0.3-0.7-0.7c0-0.4,0.3-0.7,0.7-0.7h54c0.4,0,0.7,0.3,0.7,0.7
					C545.7,321.2,545.4,321.5,545,321.5z"/>
				<path class="st6" d="M611.3,321.5h-59.2c-0.4,0-0.7-0.3-0.7-0.7c0-0.4,0.3-0.7,0.7-0.7h59.2c0.4,0,0.7,0.3,0.7,0.7
					C612,321.2,611.7,321.5,611.3,321.5z"/>
				<path class="st6" d="M636.7,321.5h-20c-0.4,0-0.7-0.3-0.7-0.7c0-0.4,0.3-0.7,0.7-0.7h20c0.4,0,0.7,0.3,0.7,0.7
					C637.4,321.2,637.1,321.5,636.7,321.5z"/>
				<path class="st6" d="M549.1,327.5h-58c-0.4,0-0.7-0.3-0.7-0.7s0.3-0.7,0.7-0.7h58c0.4,0,0.7,0.3,0.7,0.7
					S549.5,327.5,549.1,327.5z"/>
				<path class="st6" d="M620.3,327.5h-63.6c-0.4,0-0.7-0.3-0.7-0.7s0.3-0.7,0.7-0.7h63.6c0.4,0,0.7,0.3,0.7,0.7
					S620.7,327.5,620.3,327.5z"/>
				<path class="st6" d="M578.5,356.2h-38.2c-0.4,0-0.7-0.3-0.7-0.7c0-0.4,0.3-0.7,0.7-0.7h38.2c0.4,0,0.7,0.3,0.7,0.7
					C579.2,355.9,578.9,356.2,578.5,356.2z"/>
				<path class="st6" d="M531.3,356.2H491c-0.4,0-0.7-0.3-0.7-0.7c0-0.4,0.3-0.7,0.7-0.7h40.3c0.4,0,0.7,0.3,0.7,0.7
					C532,355.9,531.7,356.2,531.3,356.2z"/>
				<path class="st6" d="M557,362.2H491c-0.4,0-0.7-0.3-0.7-0.7c0-0.4,0.3-0.7,0.7-0.7H557c0.4,0,0.7,0.3,0.7,0.7
					C557.7,361.9,557.4,362.2,557,362.2z"/>
				<path class="st6" d="M637.9,362.2h-72.3c-0.4,0-0.7-0.3-0.7-0.7c0-0.4,0.3-0.7,0.7-0.7h72.3c0.4,0,0.7,0.3,0.7,0.7
					C638.6,361.9,638.3,362.2,637.9,362.2z"/>
				<path class="st6" d="M561.9,368.2H491c-0.4,0-0.7-0.3-0.7-0.7c0-0.4,0.3-0.7,0.7-0.7h70.9c0.4,0,0.7,0.3,0.7,0.7
					C562.6,367.9,562.3,368.2,561.9,368.2z"/>
				<path class="st6" d="M648.9,368.2h-77.7c-0.4,0-0.7-0.3-0.7-0.7c0-0.4,0.3-0.7,0.7-0.7h77.7c0.4,0,0.7,0.3,0.7,0.7
					C649.6,367.9,649.3,368.2,648.9,368.2z"/>
				<path class="st6" d="M620.3,374.5h-30.5c-0.4,0-0.7-0.3-0.7-0.7s0.3-0.7,0.7-0.7h30.5c0.4,0,0.7,0.3,0.7,0.7
					S620.7,374.5,620.3,374.5z"/>
				<path class="st6" d="M580.2,374.5h-39.9c-0.4,0-0.7-0.3-0.7-0.7s0.3-0.7,0.7-0.7h39.9c0.4,0,0.7,0.3,0.7,0.7
					S580.6,374.5,580.2,374.5z"/>
				<path class="st6" d="M531.3,374.5H491c-0.4,0-0.7-0.3-0.7-0.7s0.3-0.7,0.7-0.7h40.3c0.4,0,0.7,0.3,0.7,0.7
					S531.7,374.5,531.3,374.5z"/>
				<path class="st6" d="M557,380.5H491c-0.4,0-0.7-0.3-0.7-0.7s0.3-0.7,0.7-0.7H557c0.4,0,0.7,0.3,0.7,0.7S557.4,380.5,557,380.5z"
					/>
				<path class="st6" d="M637.9,380.5h-72.3c-0.4,0-0.7-0.3-0.7-0.7s0.3-0.7,0.7-0.7h72.3c0.4,0,0.7,0.3,0.7,0.7
					S638.3,380.5,637.9,380.5z"/>
				<path class="st6" d="M561.9,386.4H491c-0.4,0-0.7-0.3-0.7-0.7c0-0.4,0.3-0.7,0.7-0.7h70.9c0.4,0,0.7,0.3,0.7,0.7
					C562.6,386.1,562.3,386.4,561.9,386.4z"/>
				<path class="st6" d="M648.9,386.4h-77.7c-0.4,0-0.7-0.3-0.7-0.7c0-0.4,0.3-0.7,0.7-0.7h77.7c0.4,0,0.7,0.3,0.7,0.7
					C649.6,386.1,649.3,386.4,648.9,386.4z"/>
				<path class="st6" d="M647.6,327.5h-21.5c-0.4,0-0.7-0.3-0.7-0.7s0.3-0.7,0.7-0.7h21.5c0.4,0,0.7,0.3,0.7,0.7
					S648,327.5,647.6,327.5z"/>
				<path class="st6" d="M666.5,261.4c-1.4,0-2.6-1.2-2.6-2.6c0-1.4,1.2-2.6,2.6-2.6c1.4,0,2.6,1.2,2.6,2.6
					C669.1,260.2,668,261.4,666.5,261.4z M666.5,257.6c-0.6,0-1.2,0.5-1.2,1.2c0,0.6,0.5,1.2,1.2,1.2c0.6,0,1.2-0.5,1.2-1.2
					C667.7,258.1,667.2,257.6,666.5,257.6z"/>
				<path class="st6" d="M656.1,261.4c-1.4,0-2.6-1.2-2.6-2.6c0-1.4,1.2-2.6,2.6-2.6c1.4,0,2.6,1.2,2.6,2.6
					C658.7,260.2,657.6,261.4,656.1,261.4z M656.1,257.6c-0.6,0-1.2,0.5-1.2,1.2c0,0.6,0.5,1.2,1.2,1.2s1.2-0.5,1.2-1.2
					C657.3,258.1,656.8,257.6,656.1,257.6z"/>
				<g class="st41">
					<polygon class="st3" points="543.6,251.8 486.1,251.8 677.2,418.6 677.2,368.4 					"/>
					<polygon class="st3" points="677.2,328.1 677.2,251.8 589.7,251.8 					"/>
				</g>
			</g>
			<rect x="513.6" y="443" class="st40" width="66.6" height="39.3"/>
			<path class="st4" d="M677.3,236.6H415.1c-7.4,0-13.4,6-13.4,13.4v7c0-7.4,6-13.4,13.4-13.4h262.3c7.4,0,13.4,6,13.4,13.4v-7
				C690.7,242.5,684.7,236.6,677.3,236.6z"/>
			<path class="st3" d="M677.3,443.7H415.1c-7.8,0-14.1-6.3-14.1-14.1V249.9c0-7.8,6.3-14.1,14.1-14.1h262.3
				c7.8,0,14.1,6.3,14.1,14.1v179.7C691.4,437.4,685.1,443.7,677.3,443.7z M415.1,237.3c-7,0-12.6,5.7-12.6,12.6v179.7
				c0,7,5.7,12.6,12.6,12.6h262.3c7,0,12.6-5.7,12.6-12.6V249.9c0-7-5.7-12.6-12.6-12.6H415.1z"/>
			<path class="st3" d="M677.2,419.3h-262c-0.4,0-0.7-0.3-0.7-0.7V251.8c0-0.4,0.3-0.7,0.7-0.7h262c0.4,0,0.7,0.3,0.7,0.7v166.8
				C677.9,419,677.6,419.3,677.2,419.3z M415.9,417.9h260.6V252.5H415.9V417.9z"/>
			<rect x="513.6" y="443" class="st17" width="66.6" height="17.9"/>
			<path class="st3" d="M580.9,483h-68v-40.7h68V483z M514.3,481.6h65.2v-37.9h-65.2V481.6z"/>
		</g>
		<g>
			<path class="st40" d="M506.5,482.4L506.5,482.4c0-2.9,2.3-5.2,5.2-5.2h69.8c2.9,0,5.2,2.3,5.2,5.2l0,0"/>
			<path class="st3" d="M587.4,483.1h-81.6v-0.7c0-3.2,2.6-5.9,5.9-5.9h69.8c3.2,0,5.9,2.6,5.9,5.9V483.1z M507.2,481.7h78.7
				c-0.3-2.1-2.2-3.8-4.4-3.8h-69.8C509.4,477.9,507.6,479.5,507.2,481.7z"/>
		</g>
	</g>
	<path class="st6" d="M459.6,311.3h-27c-0.4,0-0.7-0.3-0.7-0.7s0.3-0.7,0.7-0.7h27c0.4,0,0.7,0.3,0.7,0.7S460,311.3,459.6,311.3z"/>
	<path class="st6" d="M446.1,288.8h-13.5c-0.4,0-0.7-0.3-0.7-0.7s0.3-0.7,0.7-0.7h13.5c0.4,0,0.7,0.3,0.7,0.7
		S446.5,288.8,446.1,288.8z"/>
	<path class="st6" d="M446.1,401.2h-13.5c-0.4,0-0.7-0.3-0.7-0.7s0.3-0.7,0.7-0.7h13.5c0.4,0,0.7,0.3,0.7,0.7
		S446.5,401.2,446.1,401.2z"/>
	<path class="st6" d="M453.4,333.8h-20.8c-0.4,0-0.7-0.3-0.7-0.7c0-0.4,0.3-0.7,0.7-0.7h20.8c0.4,0,0.7,0.3,0.7,0.7
		C454.1,333.4,453.8,333.8,453.4,333.8z"/>
	<path class="st6" d="M463.3,356.2h-30.7c-0.4,0-0.7-0.3-0.7-0.7c0-0.4,0.3-0.7,0.7-0.7h30.7c0.4,0,0.7,0.3,0.7,0.7
		C464,355.9,463.7,356.2,463.3,356.2z"/>
	<path class="st6" d="M463.3,378.7h-30.7c-0.4,0-0.7-0.3-0.7-0.7s0.3-0.7,0.7-0.7h30.7c0.4,0,0.7,0.3,0.7,0.7
		S463.7,378.7,463.3,378.7z"/>
</g>
<title>home-hero-illustration</title>
</svg>
