<?xml version="1.0" encoding="UTF-8"?>
<svg width="137px" height="134px" viewBox="0 0 137 134" version="1.1" xmlns="http://www.w3.org/2000/svg" xmlns:xlink="http://www.w3.org/1999/xlink">
    <!-- Generator: Sketch 52.1 (67048) - http://www.bohemiancoding.com/sketch -->
    <title>confused_and_misused</title>
    <desc>Created with Sketch.</desc>
    <g id="confused_and_misused" stroke="none" stroke-width="1" fill="none" fill-rule="evenodd">
        <g id="Group-8" transform="translate(24.000000, 0.000000)">
            <g id="Group-4" transform="translate(11.000000, 33.000000)">
                <g id="Group-2" fill="#FFFFFF">
                    <path d="M6.0627141,69.1326142 C4.79062576,68.4729031 3.84856105,67.3973601 3.494048,66.1623188 L0.111695062,52.6956522 C-0.329481409,50.7927536 0.552871532,48.7434783 2.46463624,47.7188406 L5.88235294,45.836957 L5.88235294,44.0561009 C5.88235294,42.5801701 6.05981297,41.1242019 6.40207183,39.7161673 L17.2866461,29.5592032 C17.5256101,29.3362133 17.8325116,29.1998945 18.1581728,29.1720902 L63.4720623,25.303288 C64.05517,25.8930324 64.5722892,26.5583388 65.007391,27.290787 C67.1298909,30.8637924 68.250076,34.9428443 68.250076,39.0987285 L68.250076,45.7026197 L71.9117647,47.7188406 C73.8235294,48.7434783 74.7058824,50.7927536 74.2647059,52.6956522 L70.8823529,66.1623188 C70.51539,67.4407326 69.5188832,68.5482488 68.1784564,69.2005683 C67.7517467,74.9678471 65.4306796,80.454001 61.5481105,84.7885459 L54.6623983,92.4758343 C50.2917375,97.3552902 44.0507073,100.143662 37.5,100.143662 C30.9546999,100.143662 24.7243629,97.333734 20.3917197,92.4277014 L12.4614895,83.4479714 C8.90508285,79.4209039 6.68558491,74.4203031 6.0627141,69.1326142 Z M24.2647059,55.6231884 C26.2342437,55.6231884 27.9411765,53.9241718 27.9411765,51.9637681 C27.9411765,50.0033644 26.2342437,48.3043478 24.2647059,48.3043478 C22.2951681,48.3043478 20.5882353,50.0033644 20.5882353,51.9637681 C20.5882353,53.9241718 22.1638655,55.6231884 24.2647059,55.6231884 Z M50.7352941,55.6231884 C52.7048319,55.6231884 54.4117647,53.9241718 54.4117647,51.9637681 C54.4117647,50.0033644 52.7048319,48.3043478 50.7352941,48.3043478 C48.7657563,48.3043478 47.0588235,50.0033644 47.0588235,51.9637681 C47.0588235,53.9241718 48.6344538,55.6231884 50.7352941,55.6231884 Z M58.8906581,47.2834677 C59.4283205,47.5267263 60.0621447,47.3023739 60.327042,46.7750363 L60.6622237,46.107782 C60.6689112,46.0944689 60.6753276,46.0810213 60.6814689,46.0674476 C60.9318923,45.5139492 60.6862014,44.8622419 60.132703,44.6118185 L53.0882353,41.4246377 C52.3529412,41.1318841 51.7647059,40.9855072 51.0294118,40.9855072 L46.6882353,40.9855072 C46.0807221,40.9855072 45.5882353,41.477994 45.5882353,42.0855073 L45.5882353,42.8130435 C45.5882353,43.4205567 46.0807221,43.9130435 46.6882353,43.9130435 L51.0294118,43.9130435 C51.3235294,43.9130435 51.4705882,43.9130435 51.7647059,44.0594203 L58.8906581,47.2834677 Z M15.4346709,46.7162276 C15.6820491,47.2702471 16.3313062,47.5193445 16.8857701,47.2729639 L24.1176471,44.0594203 C24.2647059,43.9130435 24.5588235,43.9130435 24.8529412,43.9130435 L29.1941176,43.9130435 C29.8016309,43.9130435 30.2941176,43.4205567 30.2941176,42.8130435 L30.2941176,42.0855073 C30.2941176,41.477994 29.8016309,40.9855072 29.1941176,40.9855072 L24.8529412,40.9855072 C24.1176471,40.9855072 23.3823529,41.1318841 22.7941176,41.4246377 L15.7031543,44.6328548 C15.1515832,44.8824062 14.9053358,45.5307469 15.1521667,46.0835408 L15.4346709,46.7162276 Z M29.0411765,81.9710145 C28.4336633,81.9710145 27.9411765,82.4635013 27.9411765,83.0710145 L27.9411765,83.7985507 C27.9411765,84.4060639 28.4336633,84.8985507 29.0411765,84.8985507 L46.1058823,84.8985507 C46.7133956,84.8985507 47.2058824,84.4060639 47.2058824,83.7985507 L47.2058824,83.0710145 C47.2058824,82.4635013 46.7133956,81.9710145 46.1058823,81.9710145 L29.0411765,81.9710145 Z M39.7058824,73.6275362 C41.0294118,73.6275362 42.3529412,73.042029 43.2352941,71.8710145 C43.9705882,70.8463768 44.4117647,69.5289855 44.1176471,68.2115942 L40.0677066,47.9194106 C39.9488571,47.3238398 39.3698362,46.9372739 38.7742102,47.0558466 L37.9904957,47.2108203 C37.9903286,47.2108535 37.9901615,47.2108868 37.9899944,47.2109202 C37.3942278,47.3298087 37.0076418,47.9091512 37.1265303,48.5049178 L41.1764706,68.7971014 C41.3235294,69.2362319 41.1764706,69.8217391 40.8823529,70.1144928 C40.5882353,70.5536232 40.1470588,70.7 39.7058824,70.7 L34.9235294,70.7 C34.3160162,70.7 33.8235294,71.1924868 33.8235294,71.8 L33.8235294,72.5275362 C33.8235294,73.1350494 34.3160162,73.6275362 34.9235294,73.6275362 L39.7058824,73.6275362 Z" id="Combined-Shape"></path>
                    <path d="M39.7058824,73.6275362 L34.9235294,73.6275362 C34.3160162,73.6275362 33.8235294,73.1350494 33.8235294,72.5275362 L33.8235294,71.8 C33.8235294,71.1924868 34.3160162,70.7 34.9235294,70.7 L39.7058824,70.7 C40.1470588,70.7 40.5882353,70.5536232 40.8823529,70.1144928 C41.1764706,69.8217391 41.3235294,69.2362319 41.1764706,68.7971014 L37.1265303,48.5049178 C37.0076418,47.9091512 37.3942278,47.3298087 37.9899944,47.2109202 C37.9901615,47.2108868 37.9903286,47.2108535 37.9904957,47.2108203 L38.7742102,47.0558466 C39.3698362,46.9372739 39.9488571,47.3238398 40.0677066,47.9194106 L44.1176471,68.2115942 C44.4117647,69.5289855 43.9705882,70.8463768 43.2352941,71.8710145 C42.3529412,73.042029 41.0294118,73.6275362 39.7058824,73.6275362 Z" id="XMLID_46_" fill-rule="nonzero" opacity="0.25"></path>
                    <path d="M24.2647059,55.6231884 C22.1638655,55.6231884 20.5882353,53.9241718 20.5882353,51.9637681 C20.5882353,50.0033644 22.2951681,48.3043478 24.2647059,48.3043478 C26.2342437,48.3043478 27.9411765,50.0033644 27.9411765,51.9637681 C27.9411765,53.9241718 26.2342437,55.6231884 24.2647059,55.6231884 Z" id="XMLID_49_-path" opacity="0.25"></path>
                    <path d="M50.7352941,55.6231884 C48.6344538,55.6231884 47.0588235,53.9241718 47.0588235,51.9637681 C47.0588235,50.0033644 48.7657563,48.3043478 50.7352941,48.3043478 C52.7048319,48.3043478 54.4117647,50.0033644 54.4117647,51.9637681 C54.4117647,53.9241718 52.7048319,55.6231884 50.7352941,55.6231884 Z" id="XMLID_49_-path-Copy" opacity="0.25"></path>
                    <path d="M5.942553,40.365966 C9.73717625,36.825005 13.5317995,33.2840441 17.3264227,29.7430831 L17.3264227,29.7430831 C17.5727049,29.5132644 17.8909059,29.3757185 18.2270461,29.3537787 L61.5730739,26.5245982 C62.1691436,26.485693 62.7287477,26.8139602 62.9856573,27.3532284 L68.434113,38.7898551 C68.434113,32.966945 68.434113,27.6158764 68.434113,22.7366493 C1.52234832,-28.4952347 5.942553,20.0120675 5.942553,40.365966 Z" id="Path-24" opacity="0.5"></path>
                </g>
                <g id="Group-3" transform="translate(0.000000, 43.913043)"></g>
                <g id="Group" transform="translate(20.588235, 48.304348)"></g>
                <path d="M58.8906581,47.2834677 L51.7647059,44.0594203 C51.4705882,43.9130435 51.3235294,43.9130435 51.0294118,43.9130435 L46.6882353,43.9130435 C46.0807221,43.9130435 45.5882353,43.4205567 45.5882353,42.8130435 L45.5882353,42.0855073 C45.5882353,41.477994 46.0807221,40.9855072 46.6882353,40.9855072 L51.0294118,40.9855072 C51.7647059,40.9855072 52.3529412,41.1318841 53.0882353,41.4246377 L60.132703,44.6118185 C60.6862014,44.8622419 60.9318923,45.5139492 60.6814689,46.0674476 C60.6753276,46.0810213 60.6689112,46.0944689 60.6622237,46.107782 L60.327042,46.7750363 C60.0621447,47.3023739 59.4283205,47.5267263 58.8906581,47.2834677 Z" id="XMLID_52_" fill="#FFFFFF" fill-rule="nonzero" opacity="0.25"></path>
                <path d="M15.4346709,46.7162276 L15.1521667,46.0835408 C14.9053358,45.5307469 15.1515832,44.8824062 15.7031543,44.6328548 L22.7941176,41.4246377 C23.3823529,41.1318841 24.1176471,40.9855072 24.8529412,40.9855072 L29.1941176,40.9855072 C29.8016309,40.9855072 30.2941176,41.477994 30.2941176,42.0855073 L30.2941176,42.8130435 C30.2941176,43.4205567 29.8016309,43.9130435 29.1941176,43.9130435 L24.8529412,43.9130435 C24.5588235,43.9130435 24.2647059,43.9130435 24.1176471,44.0594203 L16.8857701,47.2729639 C16.3313062,47.5193445 15.6820491,47.2702471 15.4346709,46.7162276 Z" id="XMLID_48_" fill="#FFFFFF" fill-rule="nonzero" opacity="0.25"></path>
                <rect id="XMLID_47_" fill="#FFFFFF" fill-rule="nonzero" opacity="0.25" x="27.9411765" y="81.9710145" width="19.2647059" height="2.92753623" rx="1.10000002"></rect>
            </g>
            <g id="Group-7">
                <path d="M72.0364026,13.25 L66.9506746,13.25 C67.2361281,13.0633409 67.4969025,12.8501747 67.733,12.6105 C68.1950023,12.1414977 68.5531654,11.5896698 68.8075,10.955 C69.0178427,10.430108 69.1412041,9.87011193 69.1775863,9.275 L69.8024137,9.275 C69.8387959,9.87011193 69.9621573,10.430108 70.1725,10.955 C70.4268346,11.5896698 70.7861643,12.1414977 71.2505,12.6105 C71.4877899,12.8501747 71.7497567,13.0633409 72.0364026,13.25 Z M78.1506746,13.25 C78.4361281,13.0633409 78.6969025,12.8501747 78.933,12.6105 C79.3950023,12.1414977 79.7531654,11.5896698 80.0075,10.955 C80.2178427,10.430108 80.3412041,9.87011193 80.3775863,9.275 L83.3791497,9.275 C84.1118839,9.275 84.7058824,8.68100155 84.7058824,7.94826733 L84.7058824,6.62673267 C84.7058824,5.89399845 84.1118839,5.3 83.3791497,5.3 L79.0348089,5.3 C79.0014522,5.26419786 78.9675159,5.22886453 78.933,5.194 C78.4709977,4.727331 77.9145033,4.35983467 77.2635,4.0915 C76.6124967,3.82316532 75.8903373,3.689 75.097,3.689 C74.3036627,3.689 73.5803366,3.82199867 72.927,4.088 C72.2736634,4.35400133 71.7148357,4.720331 71.2505,5.187 C71.2135509,5.22413482 71.1772666,5.26180148 71.1416473,5.3 L67.8348089,5.3 C67.8014522,5.26419786 67.7675159,5.22886453 67.733,5.194 C67.2709977,4.727331 66.7145033,4.35983467 66.0635,4.0915 C65.4124967,3.82316532 64.6903373,3.689 63.897,3.689 C63.1036627,3.689 62.3803366,3.82199867 61.727,4.088 C61.0736634,4.35400133 60.5148357,4.720331 60.0505,5.187 C60.0135509,5.22413482 59.9772666,5.26180148 59.9416473,5.3 L58.563,5.3 L58.563,3.801 L50.457,3.801 L50.457,5.3 L31.7679091,5.3 C31.0351749,5.3 30.4411765,5.89399845 30.4411765,6.62673267 L30.4411765,7.94826733 C30.4411765,8.68100155 31.0351749,9.275 31.7679091,9.275 L53.327,9.275 L53.327,13.25 L50.2973209,13.25 C49.5645867,13.25 48.9705882,13.8439985 48.9705882,14.5767327 L48.9705882,15.8982673 C48.9705882,16.6310015 49.5645867,17.225 50.2973209,17.225 L82.0556203,17.225 C82.7883545,17.225 83.3823529,16.6310015 83.3823529,15.8982673 L83.3823529,14.5767327 C83.3823529,13.8439985 82.7883545,13.25 82.0556203,13.25 L78.1506746,13.25 Z M60.8364026,13.25 L55.693,13.25 L55.693,9.275 L58.6024137,9.275 C58.6387959,9.87011193 58.7621573,10.430108 58.9725,10.955 C59.2268346,11.5896698 59.5861643,12.1414977 60.0505,12.6105 C60.2877899,12.8501747 60.5497567,13.0633409 60.8364026,13.25 Z M58.9030718,29.15 L56.867941,29.15 L58.52,23.801 L58.2352941,23.801 L58.2352941,22.5267327 C58.2352941,21.7939985 57.6412957,21.2 56.9085614,21.2 L6.62085032,21.2 C5.8881161,21.2 5.29411765,21.7939985 5.29411765,22.5267327 L5.29411765,23.8482673 C5.29411765,24.5810015 5.8881161,25.175 6.62085032,25.175 L35.35,25.175 L35.35,25.677 L38.22,25.677 L38.22,29.15 L31.7679091,29.15 C31.0351749,29.15 30.4411765,29.7439985 30.4411765,30.4767327 L30.4411765,31.7982673 C30.4411765,32.5310015 31.0351749,33.125 31.7679091,33.125 L38.22,33.125 L38.22,34 L40.586,34 L40.586,33.125 L46.5457529,33.125 L46.816,34 L48.958,34 L49.2273798,33.125 L52.9624961,33.125 L53.228,34 L55.37,34 L55.6402471,33.125 L60.960644,33.125 C61.2844495,33.3574959 61.6422336,33.5534951 62.034,33.713 C62.6873366,33.9790013 63.4106627,34.112 64.204,34.112 C64.9973373,34.112 65.7194967,33.9790013 66.3705,33.713 C66.7608673,33.5534951 67.1172522,33.3574959 67.4396585,33.125 L83.3791497,33.125 C84.1118839,33.125 84.7058824,32.5310015 84.7058824,31.7982673 L84.7058824,30.4767327 C84.7058824,29.7439985 84.1118839,29.15 83.3791497,29.15 L69.4909282,29.15 C69.4943094,29.0663492 69.496,28.9820159 69.496,28.897 C69.496,28.1643297 69.3688346,27.4806698 69.1145,26.846 C68.8601654,26.2113302 68.5020023,25.660669 68.04,25.194 C68.0337118,25.1876483 68.0274061,25.181315 68.0210829,25.175 L82.0556203,25.175 C82.7883545,25.175 83.3823529,24.5810015 83.3823529,23.8482673 L83.3823529,22.5267327 C83.3823529,21.7939985 82.7883545,21.2 82.0556203,21.2 L64.8561444,21.2 C64.1234102,21.2 63.5294118,21.7939985 63.5294118,22.5267327 L63.5294118,23.7227659 C62.9957444,23.7776361 62.4972764,23.8993803 62.034,24.088 C61.3806634,24.3540013 60.8218357,24.720331 60.3575,25.187 C59.8931643,25.653669 59.5338346,26.2043302 59.2795,26.839 C59.0251654,27.4736698 58.898,28.159663 58.898,28.897 C58.898,28.9820159 58.8996906,29.0663492 58.9030718,29.15 Z M54.6148421,29.15 L53.7935947,29.15 L52.5697132,25.175 L55.6608947,25.175 L54.6148421,29.15 Z M51.7563499,29.15 L50.451134,29.15 L50.904,27.679 C50.9366668,27.5809995 50.9704998,27.4736672 51.0055,27.357 C51.0405002,27.2403327 51.0743332,27.1166673 51.107,26.986 C51.1396668,27.1166673 51.1734998,27.2403327 51.2085,27.357 C51.2435002,27.4736672 51.2773332,27.5809995 51.31,27.679 L51.7563499,29.15 Z M48.5476737,29.15 L47.7111579,29.15 L46.6651053,25.175 L49.7820158,25.175 L48.5476737,29.15 Z M45.318059,29.15 L40.586,29.15 L40.586,25.677 L43.456,25.677 L43.456,25.175 L44.0903651,25.175 L45.318059,29.15 Z M16.3381926,9.275 C16.2396134,9.45498728 16.1510493,9.64298712 16.0725,9.839 C15.8181654,10.4736698 15.691,11.159663 15.691,11.897 C15.691,12.3690417 15.7431192,12.8200399 15.8473585,13.25 L12.793,13.25 L12.793,9.275 L16.3381926,9.275 Z M25.0552429,8.4342123 C25.1145066,8.28372731 25.1470588,8.1197988 25.1470588,7.94826733 L25.1470588,6.62673267 C25.1470588,5.89399845 24.5530604,5.3 23.8203262,5.3 L6.62085032,5.3 C5.8881161,5.3 5.29411765,5.89399845 5.29411765,6.62673267 L5.29411765,7.94826733 C5.29411765,8.68100155 5.8881161,9.275 6.62085032,9.275 L10.427,9.275 L10.427,13.25 L6.62085032,13.25 C5.8881161,13.25 5.29411765,13.8439985 5.29411765,14.5767327 L5.29411765,15.8982673 C5.29411765,16.6310015 5.8881161,17.225 6.62085032,17.225 L42.3497379,17.225 C43.0824721,17.225 43.6764706,16.6310015 43.6764706,15.8982673 L43.6764706,14.5767327 C43.6764706,13.8439985 43.0824721,13.25 42.3497379,13.25 L26.1326415,13.25 C26.2368808,12.8200399 26.289,12.3690417 26.289,11.897 C26.289,11.1643297 26.1618346,10.4806698 25.9075,9.846 C25.6955337,9.31705645 25.41145,8.84646374 25.0552429,8.4342123 Z M-1.77635684e-15,2.65346535 C-1.95582496e-15,1.1879969 1.1879969,2.69202186e-16 2.65346535,0 L87.3465347,-2.22044605e-15 C88.8120031,-2.48964824e-15 90,1.1879969 90,2.65346535 L90,35.7715347 C90,37.2370031 88.8120031,38.425 87.3465347,38.425 L27.1355562,38.425 C26.402822,38.425 25.8088235,39.0189985 25.8088235,39.7517327 L25.8088235,50.5510475 C25.8088235,50.8934034 25.6764818,51.2225067 25.4394668,51.4695522 C24.9321907,51.9982963 24.0923303,52.0156996 23.5635862,51.5084234 L10.3114585,38.7943567 C10.0644131,38.5573418 9.73530971,38.425 9.39295384,38.425 L2.65346535,38.425 C1.1879969,38.425 6.23557334e-16,37.2370031 4.4408921e-16,35.7715347 L0,2.65346535 Z M6.62085032,29.15 C5.8881161,29.15 5.29411765,29.7439985 5.29411765,30.4767327 L5.29411765,31.7982673 C5.29411765,32.5310015 5.8881161,33.125 6.62085032,33.125 L23.8203262,33.125 C24.5530604,33.125 25.1470588,32.5310015 25.1470588,31.7982673 L25.1470588,30.4767327 C25.1470588,29.7439985 24.5530604,29.15 23.8203262,29.15 L6.62085032,29.15 Z" id="Combined-Shape" fill="#FFFFFF"></path>
                <g id="Group-5" transform="translate(5.294118, 5.300000)"></g>
                <g id="Group-6" transform="translate(5.294118, 5.300000)"></g>
                <path d="M72.0364026,13.25 C72.3106735,13.4286007 72.6075387,13.5829336 72.927,13.713 C73.5803366,13.9790013 74.3036627,14.112 75.097,14.112 C75.8903373,14.112 76.6124967,13.9790013 77.2635,13.713 C77.5818204,13.5829336 77.8775446,13.4286007 78.1506746,13.25 L82.0556203,13.25 C82.7883545,13.25 83.3823529,13.8439985 83.3823529,14.5767327 L83.3823529,15.8982673 C83.3823529,16.6310015 82.7883545,17.225 82.0556203,17.225 L50.2973209,17.225 C49.5645867,17.225 48.9705882,16.6310015 48.9705882,15.8982673 L48.9705882,14.5767327 C48.9705882,13.8439985 49.5645867,13.25 50.2973209,13.25 L53.327,13.25 L53.327,14 L55.693,14 L55.693,13.25 L60.8364026,13.25 C61.1106735,13.4286007 61.4075387,13.5829336 61.727,13.713 C62.3803366,13.9790013 63.1036627,14.112 63.897,14.112 C64.6903373,14.112 65.4124967,13.9790013 66.0635,13.713 C66.3818204,13.5829336 66.6775446,13.4286007 66.9506746,13.25 L72.0364026,13.25 Z M71.1416473,5.3 C70.7296424,5.74183781 70.4065961,6.25483352 70.1725,6.839 C69.9181654,7.47366984 69.791,8.15966298 69.791,8.897 C69.791,9.02453608 69.7948045,9.15053604 69.8024137,9.275 L69.1775863,9.275 C69.1851955,9.15053604 69.189,9.02453608 69.189,8.897 C69.189,8.16432967 69.0618346,7.48066984 68.8075,6.846 C68.5721666,6.25874592 68.247939,5.74341695 67.8348089,5.3 L71.1416473,5.3 Z M79.0348089,5.3 L83.3791497,5.3 C84.1118839,5.3 84.7058824,5.89399845 84.7058824,6.62673267 L84.7058824,7.94826733 C84.7058824,8.68100155 84.1118839,9.275 83.3791497,9.275 L80.3775863,9.275 C80.3851955,9.15053604 80.389,9.02453608 80.389,8.897 C80.389,8.16432967 80.2618346,7.48066984 80.0075,6.846 C79.7721666,6.25874592 79.447939,5.74341695 79.0348089,5.3 Z M59.9416473,5.3 C59.5296424,5.74183781 59.2065961,6.25483352 58.9725,6.839 C58.7181654,7.47366984 58.591,8.15966298 58.591,8.897 C58.591,9.02453608 58.5948045,9.15053604 58.6024137,9.275 L55.693,9.275 L55.693,5.677 L58.563,5.677 L58.563,5.3 L59.9416473,5.3 Z M50.457,5.3 L50.457,5.677 L53.327,5.677 L53.327,9.275 L31.7679091,9.275 C31.0351749,9.275 30.4411765,8.68100155 30.4411765,7.94826733 L30.4411765,6.62673267 C30.4411765,5.89399845 31.0351749,5.3 31.7679091,5.3 L50.457,5.3 Z M58.9030718,29.15 C58.9290153,29.7918465 59.0544905,30.3935084 59.2795,30.955 C59.5338346,31.5896698 59.8931643,32.1414977 60.3575,32.6105 C60.5434017,32.79827 60.7444493,32.9697698 60.960644,33.125 L55.6402471,33.125 L56.867941,29.15 L58.9030718,29.15 Z M69.4909282,29.15 L83.3791497,29.15 C84.1118839,29.15 84.7058824,29.7439985 84.7058824,30.4767327 L84.7058824,31.7982673 C84.7058824,32.5310015 84.1118839,33.125 83.3791497,33.125 L67.4396585,33.125 C67.654919,32.9697698 67.8550325,32.79827 68.04,32.6105 C68.5020023,32.1414977 68.8601654,31.5896698 69.1145,30.955 C69.3395095,30.3935084 69.4649847,29.7918465 69.4909282,29.15 Z M68.0210829,25.175 C67.5628316,24.7173456 67.0126426,24.3561824 66.3705,24.0915 C65.7194967,23.8231653 64.9973373,23.689 64.204,23.689 C63.9732126,23.689 63.74835,23.7002553 63.5294118,23.7227659 L63.5294118,22.5267327 C63.5294118,21.7939985 64.1234102,21.2 64.8561444,21.2 L82.0556203,21.2 C82.7883545,21.2 83.3823529,21.7939985 83.3823529,22.5267327 L83.3823529,23.8482673 C83.3823529,24.5810015 82.7883545,25.175 82.0556203,25.175 L68.0210829,25.175 Z M45.318059,29.15 L46.5457529,33.125 L40.586,33.125 L40.586,29.15 L45.318059,29.15 Z M47.7111579,29.15 L48.5476737,29.15 L48.398,29.632 C48.3466664,29.8046675 48.2930003,29.9878324 48.237,30.1815 C48.1809997,30.3751676 48.1296669,30.5816656 48.083,30.801 C48.0596666,30.5863323 48.0246669,30.381001 47.978,30.185 C47.9313331,29.988999 47.8846669,29.8046675 47.838,29.632 L47.7111579,29.15 Z M50.451134,29.15 L51.7563499,29.15 L52.9624961,33.125 L49.2273798,33.125 L50.451134,29.15 Z M53.7935947,29.15 L54.6148421,29.15 L54.488,29.632 C54.4459998,29.7953341 54.4051669,29.9703324 54.3655,30.157 C54.3258331,30.3436676 54.2873335,30.5396656 54.25,30.745 C54.2079998,30.5349989 54.1590003,30.3378343 54.103,30.1535 C54.0469997,29.9691657 53.9933336,29.7953341 53.942,29.632 L53.7935947,29.15 Z M44.0903651,25.175 L43.456,25.175 L43.456,23.801 L35.35,23.801 L35.35,25.175 L6.62085032,25.175 C5.8881161,25.175 5.29411765,24.5810015 5.29411765,23.8482673 L5.29411765,22.5267327 C5.29411765,21.7939985 5.8881161,21.2 6.62085032,21.2 L56.9085614,21.2 C57.6412957,21.2 58.2352941,21.7939985 58.2352941,22.5267327 L58.2352941,23.801 L56.658,23.801 C56.461999,23.801 56.2940007,23.8523328 56.154,23.955 C56.0139993,24.0576672 55.9253335,24.176666 55.888,24.312 L55.6608947,25.175 L52.5697132,25.175 L52.304,24.312 C52.2526664,24.1533325 52.1605007,24.0285005 52.0275,23.9375 C51.8944993,23.8464995 51.7253344,23.801 51.52,23.801 L50.82,23.801 C50.623999,23.801 50.4571674,23.8534995 50.3195,23.9585 C50.1818326,24.0635005 50.0920002,24.1813327 50.05,24.312 L49.7820158,25.175 L46.6651053,25.175 L46.438,24.312 C46.3959998,24.1579992 46.3061674,24.0343338 46.1685,23.941 C46.0308326,23.8476662 45.8593344,23.801 45.654,23.801 L43.666,23.801 L44.0903651,25.175 Z M38.22,29.15 L38.22,33.125 L31.7679091,33.125 C31.0351749,33.125 30.4411765,32.5310015 30.4411765,31.7982673 L30.4411765,30.4767327 C30.4411765,29.7439985 31.0351749,29.15 31.7679091,29.15 L38.22,29.15 Z M16.3381926,9.275 L12.793,9.275 L12.793,8.677 L15.663,8.677 L15.663,6.801 L7.557,6.801 L7.557,8.677 L10.427,8.677 L10.427,9.275 L6.62085032,9.275 C5.8881161,9.275 5.29411765,8.68100155 5.29411765,7.94826733 L5.29411765,6.62673267 C5.29411765,5.89399845 5.8881161,5.3 6.62085032,5.3 L23.8203262,5.3 C24.5530604,5.3 25.1470588,5.89399845 25.1470588,6.62673267 L25.1470588,7.94826733 C25.1470588,8.1197988 25.1145066,8.28372731 25.0552429,8.4342123 C24.9840435,8.35181066 24.9099625,8.27173992 24.833,8.194 C24.3709977,7.727331 23.8145033,7.35983467 23.1635,7.0915 C22.5124967,6.82316532 21.7903373,6.689 20.997,6.689 C20.2036627,6.689 19.4803366,6.82199867 18.827,7.088 C18.1736634,7.35400133 17.6148357,7.720331 17.1505,8.187 C16.8295708,8.50954188 16.5588029,8.87220673 16.3381926,9.275 Z M26.1326415,13.25 L42.3497379,13.25 C43.0824721,13.25 43.6764706,13.8439985 43.6764706,14.5767327 L43.6764706,15.8982673 C43.6764706,16.6310015 43.0824721,17.225 42.3497379,17.225 L6.62085032,17.225 C5.8881161,17.225 5.29411765,16.6310015 5.29411765,15.8982673 L5.29411765,14.5767327 C5.29411765,13.8439985 5.8881161,13.25 6.62085032,13.25 L10.427,13.25 L10.427,17 L12.793,17 L12.793,13.25 L15.8473585,13.25 C15.9059428,13.4916448 15.9809899,13.7266445 16.0725,13.955 C16.3268346,14.5896698 16.6861643,15.1414977 17.1505,15.6105 C17.6148357,16.0795023 18.1736634,16.4469987 18.827,16.713 C19.4803366,16.9790013 20.2036627,17.112 20.997,17.112 C21.7903373,17.112 22.5124967,16.9790013 23.1635,16.713 C23.8145033,16.4469987 24.3709977,16.0795023 24.833,15.6105 C25.2950023,15.1414977 25.6531654,14.5896698 25.9075,13.955 C25.9990101,13.7266445 26.0740572,13.4916448 26.1326415,13.25 Z M6.62085032,29.15 L23.8203262,29.15 C24.5530604,29.15 25.1470588,29.7439985 25.1470588,30.4767327 L25.1470588,31.7982673 C25.1470588,32.5310015 24.5530604,33.125 23.8203262,33.125 L6.62085032,33.125 C5.8881161,33.125 5.29411765,32.5310015 5.29411765,31.7982673 L5.29411765,30.4767327 C5.29411765,29.7439985 5.8881161,29.15 6.62085032,29.15 Z M19.1088604,9.275 C19.3037027,9.10673422 19.5259149,8.97040162 19.7755,8.866 C20.1325018,8.71666592 20.5396644,8.642 20.997,8.642 C21.4496689,8.642 21.8533316,8.71666592 22.208,8.866 C22.4559539,8.97040162 22.677105,9.10673422 22.8714564,9.275 L19.1088604,9.275 Z" id="Combined-Shape" fill="#FFFFFF" opacity="0.75"></path>
            </g>
        </g>
        <path d="M85.3209056,29 L91.0730944,29 C91.0648164,29.4674404 90.9997854,29.88927 90.878,30.2655 C90.7473327,30.6691687 90.5595012,31.0109986 90.3145,31.291 C90.0694988,31.5710014 89.7696684,31.7844993 89.415,31.9315 C89.0603316,32.0785007 88.6566689,32.152 88.204,32.152 C87.7466644,32.152 87.3395018,32.0785007 86.9825,31.9315 C86.6254982,31.7844993 86.3245012,31.5710014 86.0795,31.291 C85.8344988,31.0109986 85.6466673,30.6691687 85.516,30.2655 C85.3942146,29.88927 85.3291836,29.4674404 85.3209056,29 Z" id="Combined-Shape" fill="#FFFFFF" opacity="0.75"></path>
        <path d="M43.1088604,9.275 L46.8714564,9.275 C46.9551255,9.34744215 47.0337939,9.42576443 47.1075,9.51 C47.3525012,9.7900014 47.5403327,10.1318313 47.671,10.5355 C47.8016673,10.9391687 47.867,11.3929975 47.867,11.897 C47.867,12.2971587 47.8265681,12.6648227 47.7457034,12.9999988 L42.2342969,13 C42.1534319,12.6648227 42.113,12.2971587 42.113,11.897 C42.113,11.3929975 42.1783327,10.9391687 42.309,10.5355 C42.4396673,10.1318313 42.6274988,9.7900014 42.8725,9.51 C42.9462014,9.42576979 43.0249701,9.34745211 43.1088062,9.27504679 Z" id="Combined-Shape" fill="#FFFFFF"></path>
        <path d="M42.2342969,13 L47.7457031,13 C47.7237752,13.0908889 47.6988741,13.1793888 47.671,13.2655 C47.5403327,13.6691687 47.3525012,14.0109986 47.1075,14.291 C46.8624988,14.5710014 46.5626684,14.7844993 46.208,14.9315 C45.8533316,15.0785007 45.4496689,15.152 44.997,15.152 C44.5396644,15.152 44.1325018,15.0785007 43.7755,14.9315 C43.4184982,14.7844993 43.1175012,14.5710014 42.8725,14.291 C42.6274988,14.0109986 42.4396673,13.6691687 42.309,13.2655 C42.2811259,13.1793888 42.2562248,13.0908889 42.2342969,13 Z" id="Combined-Shape" fill="#FFFFFF" opacity="0.75"></path>
        <path d="M91.0730957,29 L85.3209025,29 C85.3203019,28.9659093 85.32,28.9315759 85.32,28.897 C85.32,28.3929975 85.3853327,27.9391687 85.516,27.5355 C85.6466673,27.1318313 85.8344988,26.7900014 86.0795,26.51 C86.3245012,26.2299986 86.6254982,26.0153341 86.9825,25.866 C87.3395018,25.7166659 87.7466644,25.642 88.204,25.642 C88.6566689,25.642 89.0603316,25.7166659 89.415,25.866 C89.7696684,26.0153341 90.0694988,26.2299986 90.3145,26.51 C90.5595012,26.7900014 90.7473327,27.1318313 90.878,27.5355 C91.0086673,27.9391687 91.074,28.3929975 91.074,28.897 C91.074,28.931576 91.0736981,28.9659094 91.0730944,29.0000003 Z" id="Combined-Shape" fill="#FFFFFF"></path>
        <path d="M90.7543166,9.275 L85.0256834,9.275 C85.0172277,9.15239551 85.013,9.02639663 85.013,8.897 C85.013,8.39299748 85.0783327,7.93916868 85.209,7.5355 C85.3396673,7.13183131 85.5274988,6.7900014 85.7725,6.51 C86.0175012,6.2299986 86.3184982,6.01533408 86.6755,5.866 C87.0325018,5.71666592 87.4396644,5.642 87.897,5.642 C88.3496689,5.642 88.7533316,5.71666592 89.108,5.866 C89.4626684,6.01533408 89.7624988,6.2299986 90.0075,6.51 C90.2525012,6.7900014 90.4403327,7.13183131 90.571,7.5355 C90.7016673,7.93916868 90.767,8.39299748 90.767,8.897 C90.767,9.02639663 90.7627723,9.15239551 90.7543168,9.27499684 Z" id="Combined-Shape" fill="#FFFFFF" opacity="0.75"></path>
        <path d="M101.954317,9.275 C101.929533,9.63435374 101.868428,9.96451852 101.771,10.2655 C101.640333,10.6691687 101.452501,11.0109986 101.2075,11.291 C100.962499,11.5710014 100.662668,11.7844993 100.308,11.9315 C99.9533316,12.0785007 99.5496689,12.152 99.097,12.152 C98.6396644,12.152 98.2325018,12.0785007 97.8755,11.9315 C97.5184982,11.7844993 97.2175012,11.5710014 96.9725,11.291 C96.7274988,11.0109986 96.5396673,10.6691687 96.409,10.2655 C96.3115725,9.96451852 96.2504672,9.63435374 96.2256834,9.275 L101.954317,9.275 Z" id="Combined-Shape" fill="#FFFFFF"></path>
        <path d="M101.954317,9.275 L96.2256834,9.275 C96.2172277,9.15239551 96.213,9.02639663 96.213,8.897 C96.213,8.39299748 96.2783327,7.93916868 96.409,7.5355 C96.5396673,7.13183131 96.7274988,6.7900014 96.9725,6.51 C97.2175012,6.2299986 97.5184982,6.01533408 97.8755,5.866 C98.2325018,5.71666592 98.6396644,5.642 99.097,5.642 C99.5496689,5.642 99.9533316,5.71666592 100.308,5.866 C100.662668,6.01533408 100.962499,6.2299986 101.2075,6.51 C101.452501,6.7900014 101.640333,7.13183131 101.771,7.5355 C101.901667,7.93916868 101.967,8.39299748 101.967,8.897 C101.967,9.02639663 101.962772,9.15239551 101.954317,9.27499684 Z" id="Combined-Shape" fill="#FFFFFF" opacity="0.75"></path>
        <path d="M90.7543166,9.275 C90.7295328,9.63435374 90.6684275,9.96451852 90.571,10.2655 C90.4403327,10.6691687 90.2525012,11.0109986 90.0075,11.291 C89.7624988,11.5710014 89.4626684,11.7844993 89.108,11.9315 C88.7533316,12.0785007 88.3496689,12.152 87.897,12.152 C87.4396644,12.152 87.0325018,12.0785007 86.6755,11.9315 C86.3184982,11.7844993 86.0175012,11.5710014 85.7725,11.291 C85.5274988,11.0109986 85.3396673,10.6691687 85.209,10.2655 C85.1115725,9.96451852 85.0504672,9.63435374 85.0256834,9.275 L90.7543166,9.275 Z" id="Combined-Shape" fill="#FFFFFF"></path>
    </g>
</svg>