<?xml version="1.0" encoding="UTF-8"?>
<svg width="137px" height="134px" viewBox="0 0 137 134" version="1.1" xmlns="http://www.w3.org/2000/svg" xmlns:xlink="http://www.w3.org/1999/xlink">
    <!-- Generator: Sketch 52.1 (67048) - http://www.bohemiancoding.com/sketch -->
    <title>elements_of_a_sentence</title>
    <desc>Created with Sketch.</desc>
    <g id="elements_of_a_sentence" stroke="none" stroke-width="1" fill="none" fill-rule="evenodd">
        <g id="Group-2" transform="translate(24.000000, 0.000000)" fill="#FFFFFF">
            <g id="Group">
                <path d="M26.9644004,115.356522 L73.7763158,115.356522 L73.7763158,113.026087 L12.8815789,113.026087 L12.8815789,115.356522 L18.9344655,115.356522 L19.4539702,117.471877 L24.7559754,116.182716 L25.7963366,120.438444 L28.0720844,119.887643 L26.9644004,115.356522 Z M20.6636046,123.513043 L23.8574059,118.772759 L21.9120151,117.475067 L17.8438848,123.513043 L12.8815789,123.513043 L12.8815789,125.843478 L16.2737375,125.843478 L13.0799362,130.583763 L15.025327,131.881454 L19.0934573,125.843478 L58.5872186,125.843478 L58.7953272,125.991387 L56.8246327,129.16339 L58.8168147,130.388784 L60.7054072,127.348931 L62.9953263,128.976437 L64.3566474,127.080084 L62.6167288,125.843478 L73.7763158,125.843478 L73.7763158,123.513043 L63.0885582,123.513043 L63.7937884,122.377914 L61.8016064,121.15252 L60.3350662,123.513043 L59.3377814,123.513043 L57.18395,121.982258 L56.0850564,123.513043 L20.6636046,123.513043 Z M55.2385163,102.53913 L12.8815789,102.53913 L12.8815789,104.869565 L52.3108847,104.869565 L51.1367124,105.804222 L52.5998139,107.623986 L56.0600824,104.869565 L58.6292249,104.869565 L62.4656168,109.268445 L64.72291,104.869565 L65.1430657,104.869565 L70.2689734,109.969931 L73.9088136,104.869565 L80.8026316,104.869565 L80.8026316,102.53913 L75.571912,102.53913 L75.8530014,102.145251 L73.943367,100.796001 L72.6993951,102.53913 L66.1131975,102.53913 L64.2436262,100.678875 L63.2890327,102.53913 L59.6977958,102.53913 L57.8705602,100.443987 L55.2385163,102.53913 Z M71.0362967,104.869565 L69.9645792,106.371321 L68.4553027,104.869565 L71.0362967,104.869565 Z M62.0931658,104.869565 L61.9587253,105.131555 L61.7302363,104.869565 L62.0931658,104.869565 Z M25.1286305,92.0521739 L12.8815789,92.0521739 L12.8815789,94.3826087 L23.9309436,94.3826087 C23.9166564,94.5101421 23.9093816,94.6395152 23.9093816,94.7706261 C23.9093816,97.7410348 27.6434316,99.819513 32.0575658,99.819513 C36.4717,99.819513 40.20575,97.7410348 40.20575,94.7706261 C40.20575,94.6395152 40.1984751,94.5101421 40.184188,94.3826087 L57.3815789,94.3826087 L57.3815789,92.0521739 L38.9865011,92.0521739 C37.5348006,90.6088313 34.9413128,89.7217391 32.0575658,89.7217391 C29.1738188,89.7217391 26.580331,90.6088313 25.1286305,92.0521739 Z M82.5592105,6.99130435 L89,13.9826087 L89,129.33913 C89,131.913258 86.9028075,134 84.3157895,134 L4.68421053,134 C2.09719249,134 3.16818336e-16,131.913258 0,129.33913 L0,4.66086957 C-3.16818336e-16,2.08674238 2.09719249,4.72859492e-16 4.68421053,0 L76.1184211,0 L82.5592105,6.99130435 L76.1184211,0 L76.1184211,11.6521739 C76.1184211,12.9392375 77.1617922,13.9826087 78.4488558,13.9826087 L89,13.9826087 L82.5592105,6.99130435 Z M12.8815789,9.32173913 C11.5880699,9.32173913 10.5394737,10.3651103 10.5394737,11.6521739 L10.5394737,30.0043478 C10.5394737,31.2914114 11.5880699,32.3347826 12.8815789,32.3347826 L31.3256579,32.3347826 C32.6191669,32.3347826 33.6677632,31.2914114 33.6677632,30.0043478 L33.6677632,11.6521739 C33.6677632,10.3651103 32.6191669,9.32173913 31.3256579,9.32173913 L12.8815789,9.32173913 Z M12.8815789,52.4347826 L64.4078947,52.4347826 L64.4078947,50.1043478 L12.8815789,50.1043478 L12.8815789,52.4347826 Z M12.8815789,62.9217391 L24.5921053,62.9217391 L24.5921053,60.5913043 L12.8815789,60.5913043 L12.8815789,62.9217391 Z M12.8815789,73.4086957 L73.7763158,73.4086957 L73.7763158,71.0782609 L12.8815789,71.0782609 L12.8815789,73.4086957 Z M12.8815789,83.8956522 L81.9736842,83.8956522 L81.9736842,81.5652174 L12.8815789,81.5652174 L12.8815789,83.8956522 Z M63.2368421,62.9217391 L77.2894737,62.9217391 L77.2894737,60.5913043 L63.2368421,60.5913043 L63.2368421,62.9217391 Z M65.5789474,48.9391304 L65.5789474,54.7652174 L60.8947368,54.7652174 L60.8947368,57.0956522 L67.9210526,57.0956522 L67.9210526,46.6086957 L60.8947368,46.6086957 L60.8947368,48.9391304 L65.5789474,48.9391304 Z M10.5394737,54.7652174 L10.5394737,48.9391304 L15.2236842,48.9391304 L15.2236842,46.6086957 L8.19736842,46.6086957 L8.19736842,57.0956522 L15.2236842,57.0956522 L15.2236842,54.7652174 L10.5394737,54.7652174 Z M29.2763158,62.9217391 L57.3815789,62.9217391 L57.3815789,60.5913043 L29.2763158,60.5913043 L29.2763158,62.9217391 Z M74.9473684,92.0521739 L57.3815789,92.0521739 L57.3815789,94.3826087 L74.9473684,94.3826087 L74.9473684,92.0521739 Z M32.0575658,97.4890783 C28.7649733,97.4890783 26.2514868,96.0900003 26.2514868,94.7706261 C26.2514868,93.4512518 28.7649733,92.0521739 32.0575658,92.0521739 C35.3501583,92.0521739 37.8636447,93.4512518 37.8636447,94.7706261 C37.8636447,96.0900003 35.3501583,97.4890783 32.0575658,97.4890783 Z M36.5123007,77.0371626 L40.9858903,78.973065 L44.8362267,76.956479 L50.1396431,77.8983544 L54.211348,76.977779 L57.1297946,78.6858977 L58.317258,76.677198 L54.5981783,74.5004819 L50.0837253,75.5211586 L44.4565365,74.5217819 L40.8894255,76.3900306 L36.3857256,74.4410983 L32.3670549,76.6630126 L33.5046556,78.700083 L36.5123007,77.0371626 Z" id="Combined-Shape"></path>
                <path d="M76.1184211,0 L89,13.9826087 L78.4605263,13.9826087 C77.1670173,13.9826087 76.1184211,12.9392375 76.1184211,11.6521739 L76.1184211,0 Z" id="Rectangle-2" opacity="0.5"></path>
                <g id="line-group-visible" transform="translate(12.881579, 50.104348)" fill-opacity="0.75">
                    <path d="M43.2034774,73.4086957 L42.94105,73.7742633 L45.7056396,75.7391304 L6.21187833,75.7391304 L7.7820257,73.4086957 L43.2034774,73.4086957 Z M46.4562025,73.4086957 L47.4534873,73.4086957 L47.1480127,73.9003835 L46.4562025,73.4086957 Z M50.2069792,73.4086957 L60.8947368,73.4086957 L60.8947368,75.7391304 L49.7351499,75.7391304 L49.0580926,75.2579279 L50.2069792,73.4086957 Z M42.3569373,52.4347826 L39.4293057,54.7652174 L0,54.7652174 L0,52.4347826 L42.3569373,52.4347826 Z M46.8162169,52.4347826 L50.4074537,52.4347826 L49.2115869,54.7652174 L48.8486573,54.7652174 L46.8162169,52.4347826 Z M53.2316185,52.4347826 L59.8178162,52.4347826 L58.1547178,54.7652174 L55.5737238,54.7652174 L53.2316185,52.4347826 Z M62.6903331,52.4347826 L67.9210526,52.4347826 L67.9210526,54.7652174 L61.0272347,54.7652174 L62.6903331,52.4347826 Z M52.2614867,54.7652174 L51.8413311,54.7652174 L51.9833475,54.4884641 L52.2614867,54.7652174 Z M45.747646,54.7652174 L43.1785035,54.7652174 L44.6949135,53.5581343 L45.747646,54.7652174 Z M14.0828215,65.2521739 L13.5959983,63.2607623 L6.01642457,65.1037053 L6.05288659,65.2521739 L0,65.2521739 L0,62.9217391 L60.8947368,62.9217391 L60.8947368,65.2521739 L14.0828215,65.2521739 Z M4.96230588,73.4086957 L3.39215851,75.7391304 L0,75.7391304 L0,73.4086957 L4.96230588,73.4086957 Z M12.2470516,41.9478261 C11.5747245,42.6162824 11.1472994,43.4040489 11.0493646,44.2782609 L0,44.2782609 L0,41.9478261 L12.2470516,41.9478261 Z M26.1049221,41.9478261 L44.5,41.9478261 L44.5,44.2782609 L27.3026091,44.2782609 C27.2046743,43.4040489 26.7772492,42.6162824 26.1049221,41.9478261 Z M0,2.33043478 L0,0 L51.5263158,0 L51.5263158,2.33043478 L0,2.33043478 Z M0,12.8173913 L0,10.4869565 L11.7105263,10.4869565 L11.7105263,12.8173913 L0,12.8173913 Z M0,23.3043478 L0,20.973913 L60.8947368,20.973913 L60.8947368,23.3043478 L0,23.3043478 Z M0,33.7913043 L0,31.4608696 L69.0921053,31.4608696 L69.0921053,33.7913043 L0,33.7913043 Z M50.3552632,12.8173913 L50.3552632,10.4869565 L64.4078947,10.4869565 L64.4078947,12.8173913 L50.3552632,12.8173913 Z" id="Combined-Shape"></path>
                </g>
                <path d="M12.8815789,9.32173913 L31.3256579,9.32173913 C32.6191669,9.32173913 33.6677632,10.3651103 33.6677632,11.6521739 L33.6677632,30.0043478 C33.6677632,31.2914114 32.6191669,32.3347826 31.3256579,32.3347826 L12.8815789,32.3347826 C11.5880699,32.3347826 10.5394737,31.2914114 10.5394737,30.0043478 L10.5394737,11.6521739 C10.5394737,10.3651103 11.5880699,9.32173913 12.8815789,9.32173913 Z" id="Rectangle-path" opacity="0.75"></path>
                <polygon id="XMLID_214_" fill-opacity="0.5" fill-rule="nonzero" opacity="0" points="36.5123007 77.0371626 33.5046556 78.700083 32.3670549 76.6630126 36.3857256 74.4410983 40.8894255 76.3900306 44.4565365 74.5217819 50.0837253 75.5211586 54.5981783 74.5004819 58.317258 76.677198 57.1297946 78.6858977 54.211348 76.977779 50.1396431 77.8983544 44.8362267 76.956479 40.9858903 78.973065"></polygon>
                <polygon id="XMLID_227_" fill-opacity="0.5" fill-rule="nonzero" opacity="0" points="52.5998139 107.623986 51.1367124 105.804222 57.8705602 100.443987 61.9587253 105.131555 64.2436262 100.678875 69.9645792 106.371321 73.943367 100.796001 75.8530014 102.145251 70.2689734 109.969931 64.8649265 104.592812 62.4656168 109.268445 57.5764924 103.662482"></polygon>
                <polygon id="XMLID_228_" fill-opacity="0.5" fill-rule="nonzero" opacity="0" points="15.025327 131.881454 13.0799362 130.583763 21.9120151 117.475067 23.8574059 118.772759"></polygon>
                <polygon id="XMLID_226_" fill-opacity="0.5" fill-rule="nonzero" opacity="0" points="19.4539702 117.471877 18.8980035 115.208053 26.4775772 113.36511 28.0720844 119.887643 25.7963366 120.438444 24.7559754 116.182716"></polygon>
                <polygon id="Combined-Shape" fill-opacity="0.5" points="65.5789474 48.9391304 60.8947368 48.9391304 60.8947368 46.6086957 67.9210526 46.6086957 67.9210526 57.0956522 60.8947368 57.0956522 60.8947368 54.7652174 65.5789474 54.7652174"></polygon>
                <polygon id="Combined-Shape" fill-opacity="0.5" points="10.5394737 54.7652174 15.2236842 54.7652174 15.2236842 57.0956522 8.19736842 57.0956522 8.19736842 46.6086957 15.2236842 46.6086957 15.2236842 48.9391304 10.5394737 48.9391304"></polygon>
                <polygon id="Combined-Shape" fill-opacity="0.5" points="29.2763158 62.9217391 29.2763158 60.5913043 57.3815789 60.5913043 57.3815789 62.9217391"></polygon>
                <polygon id="Combined-Shape" fill-opacity="0.5" points="74.9473684 92.0521739 74.9473684 94.3826087 57.3815789 94.3826087 57.3815789 92.0521739"></polygon>
                <path d="M32.0575658,99.819513 C27.6434316,99.819513 23.9093816,97.7410348 23.9093816,94.7706261 C23.9093816,91.8002174 27.6434316,89.7217391 32.0575658,89.7217391 C36.4717,89.7217391 40.20575,91.8002174 40.20575,94.7706261 C40.20575,97.7410348 36.4717,99.819513 32.0575658,99.819513 Z" id="Combined-Shape" fill-opacity="0.5"></path>
                <path d="M32.0575658,97.4890783 C35.3501583,97.4890783 37.8636447,96.0900003 37.8636447,94.7706261 C37.8636447,93.4512518 35.3501583,92.0521739 32.0575658,92.0521739 C28.7649733,92.0521739 26.2514868,93.4512518 26.2514868,94.7706261 C26.2514868,96.0900003 28.7649733,97.4890783 32.0575658,97.4890783 Z" id="Combined-Shape" fill-opacity="0.5"></path>
            </g>
        </g>
    </g>
</svg>