<?xml version="1.0" encoding="UTF-8"?>
<svg width="137px" height="134px" viewBox="0 0 137 134" version="1.1" xmlns="http://www.w3.org/2000/svg" xmlns:xlink="http://www.w3.org/1999/xlink">
    <!-- Generator: Sketch 52.1 (67048) - http://www.bohemiancoding.com/sketch -->
    <title>history_of_politics_and_biography</title>
    <desc>Created with Sketch.</desc>
    <g id="history_of_politics_and_biography" stroke="none" stroke-width="1" fill="none" fill-rule="evenodd">
        <g id="Group-2" fill="#FFFFFF">
            <path d="M137,110 C121.20202,103.148148 107.979798,99.7222222 97.3333333,99.7222222 C85.3131313,99.7222222 75.8686869,103.148148 69,110 L69,82.25 C73.6831956,75.3981481 80.1225895,73 88.3181818,73 C95.577135,73 101.454545,73.5138889 112.345919,78.1388889 L137,110 Z M124.669102,99.9971986 C103.925493,91.9936498 87.1051409,91.9936498 74.2432546,100.040992 C74.0016251,100.192173 73.9275086,100.511886 74.0777107,100.755091 C74.2279128,100.998295 74.545555,101.072895 74.7871845,100.921713 C87.3393354,93.0681644 103.831978,93.0681644 124.300321,100.965507 C124.56598,101.068007 124.863894,100.934336 124.96573,100.666945 C125.067566,100.399554 124.934761,100.099698 124.669102,99.9971986 Z M118.63941,91.8730197 C99.989685,86.3948674 85.4989948,86.6560348 74.2442413,93.1166391 C74.0016317,93.2559051 73.9272146,93.55042 74.0780259,93.7744566 C74.2288373,93.9984932 74.5477679,94.0672133 74.7903775,93.9279473 C85.748081,87.6378597 99.9379356,87.3821143 118.325834,92.783358 C118.598057,92.8633205 118.888934,92.7243568 118.975525,92.4729738 C119.062117,92.2215908 118.911633,91.9529822 118.63941,91.8730197 Z M113.633561,86.1785567 C97.9163512,81.4555604 84.0001042,81.9300766 74.2421537,88.0440448 C74.0016178,88.1947557 73.9278367,88.5134737 74.077359,88.7559215 C74.2268813,88.9983693 74.5430859,89.0727369 74.7836218,88.9220261 C84.2548546,82.9877045 97.8791782,82.5231423 113.340534,87.1692551 C113.611951,87.2508153 113.897573,87.0951575 113.97849,86.8215837 C114.059407,86.5480099 113.904977,86.2601169 113.633561,86.1785567 Z M109.610327,80.4764091 C109.885878,80.5491903 110.053411,80.8441944 109.984523,81.1353192 C109.915636,81.4264439 109.636414,81.6034464 109.360863,81.5306652 C94.7800613,77.6794317 83.321682,78.3120767 74.7858605,83.918035 C74.5446375,84.0764599 74.2275295,83.9982859 74.07758,83.7434285 C73.9276306,83.4885711 74.0016224,83.1535396 74.2428455,82.9951147 C83.0542599,77.208159 94.7846464,76.5604957 109.610327,80.4764091 Z M0,110 L24.6540805,78.1388889 C35.5454545,73.5138889 41.422865,73 48.6818182,73 C56.8774105,73 63.3168044,75.3981481 68,82.25 L68,110 C61.1313131,103.148148 51.6868687,99.7222222 39.6666667,99.7222222 C29.020202,99.7222222 15.7979798,103.148148 0,110 Z M12.3308978,99.9971986 C12.0652385,100.099698 11.9324335,100.399554 12.0342696,100.666945 C12.1361057,100.934336 12.4340196,101.068007 12.6996789,100.965507 C33.1680223,93.0681644 49.6606646,93.0681644 62.2128155,100.921713 C62.454445,101.072895 62.7720872,100.998295 62.9222893,100.755091 C63.0724914,100.511886 62.9983749,100.192173 62.7567454,100.040992 C49.8948591,91.9936498 33.0745066,91.9936498 12.3308978,99.9971986 Z M19.36059,91.8730197 C19.088367,91.9529822 18.937883,92.2215908 19.0244745,92.4729738 C19.1110661,92.7243568 19.4019427,92.8633205 19.6741657,92.783358 C38.0620644,87.3821143 52.251919,87.6378597 63.2096225,93.9279473 C63.4522321,94.0672133 63.7711627,93.9984932 63.9219741,93.7744566 C64.0727854,93.55042 63.9983683,93.2559051 63.7557587,93.1166391 C52.5010052,86.6560348 38.010315,86.3948674 19.36059,91.8730197 Z M23.3664394,86.1785567 C23.095023,86.2601169 22.9405927,86.5480099 23.0215097,86.8215837 C23.1024267,87.0951575 23.3880494,87.2508153 23.6594658,87.1692551 C39.1208218,82.5231423 52.7451454,82.9877045 62.2163782,88.9220261 C62.4569141,89.0727369 62.7731187,88.9983693 62.922641,88.7559215 C63.0721633,88.5134737 62.9983822,88.1947557 62.7578463,88.0440448 C52.9998958,81.9300766 39.0836488,81.4555604 23.3664394,86.1785567 Z M27.3896727,80.4764091 C27.1141225,80.5491903 26.9465893,80.8441944 27.0154769,81.1353192 C27.0843644,81.4264439 27.3635864,81.6034464 27.6391366,81.5306652 C42.2199387,77.6794317 53.678318,78.3120767 62.2141395,83.918035 C62.4553625,84.0764599 62.7724705,83.9982859 62.92242,83.7434285 C63.0723694,83.4885711 62.9983776,83.1535396 62.7571545,82.9951147 C53.9457401,77.208159 42.2153536,76.5604957 27.3896727,80.4764091 Z M69,111 C75.8686869,104.333333 85.3131313,101 97.3333333,101 C107.979798,101 121.20202,104.333333 137,111 L137,121 C121.20202,114.333333 107.979798,111 97.3333333,111 C89.0271991,111 77.2424242,114.344298 77.2424242,121 C77.2424242,121 74.4949495,121 69,121 L69,111 Z M68,111 L68,121 C62.5050505,121 59.7575758,121 59.7575758,121 C59.7575758,114.344298 47.9728009,111 39.6666667,111 C29.020202,111 15.7979798,114.333333 0,121 L0,111 C15.7979798,104.333333 29.020202,101 39.6666667,101 C51.6868687,101 61.1313131,104.333333 68,111 Z" id="Combined-Shape"></path>
            <g id="Group" transform="translate(37.000000, 0.000000)">
                <path d="M56.0662152,10.908662 C61.0056799,16.5402967 64,23.9204679 64,32 C64,49.673112 49.673112,64 32,64 C14.326888,64 0,49.673112 0,32 C0,26.8615684 1.2111194,22.006009 3.36347165,17.7032081 C4.21479887,18.8060637 4.84309289,19.6361172 5.24835372,20.1933688 C5.55915685,20.6207368 6.02536153,21.2617888 6.64696778,22.1165249 C6.8631942,22.4129412 6.93479235,22.7909795 6.84171475,23.1475383 L5.89375524,26.797612 C5.81929316,27.0825726 5.85079635,27.3861488 5.98110498,27.6510619 L9.78010286,35.3292476 C9.9877375,35.7473808 10.4130305,36.012294 10.8798505,36.012294 C11.4356737,36.012294 11.8862575,35.5617102 11.8862575,35.0058869 C11.8862575,34.9447749 11.8806912,34.88379 11.8696276,34.8236878 L11.0717335,30.4892126 C10.9442888,29.7947106 11.4268603,29.1360076 12.1270902,29.0486578 L12.8087046,28.964172 C13.3399629,28.8983017 13.8526057,29.1832624 14.0759919,29.6686978 L17.7174738,37.5860213 C17.8850135,37.9511719 18.2215248,38.2117892 18.6181786,38.2819554 L22.8825644,39.0423277 C23.6415048,39.1769322 24.0897093,39.9702398 23.8133404,40.6905171 L21.3646836,47.085664 C21.1914161,47.5367323 21.3002453,48.0465112 21.6396205,48.3901823 L26.7918235,53.5767523 C27.1068553,53.8946481 27.2257083,54.3586041 27.0982635,54.788193 L25.5631992,60.0091302 C25.2410075,61.1060138 26.459608,62.0095825 27.4147274,61.3809507 L37.3654384,54.8383117 C37.574505,54.7008433 37.7363168,54.5046643 37.8293944,54.2726863 L40.6116985,47.3921041 C40.8723158,46.7491527 40.5472602,46.0174196 39.895717,45.7797137 L33.8485372,43.5673308 C33.7826669,43.5429875 33.7182286,43.5129163 33.6566542,43.4771172 L30.1712562,41.4652091 C29.5798555,41.12297 29.3808126,40.3640296 29.7287796,39.7754928 L31.3068028,37.1134735 C31.6633616,36.5120491 31.4457033,35.7359251 30.8299592,35.4051417 L27.3445612,33.5378619 C27.0882398,33.4003934 26.7918235,33.3588665 26.5082948,33.419009 L23.0873351,34.152174 C22.4443838,34.2896425 21.8071602,33.8958526 21.6424845,33.2600611 L20.9408226,30.552219 C20.7918984,29.9794338 21.0725632,29.3837372 21.6081174,29.1331437 L26.30782,26.9307845 C26.3779862,26.8978494 26.4452884,26.8577544 26.5082948,26.8133636 L34.6647561,20.8964924 C35.1659432,20.5327738 35.3177312,19.8511594 35.018451,19.3098774 L30.8328231,11.734793 C30.5750697,11.2679731 30.0466754,11.0216755 29.5240089,11.1233448 L21.7828168,12.6297699 C21.4248261,12.6999361 21.1155221,12.9261863 20.9408226,13.245514 L19.7594531,15.4077782 C19.3957345,16.072209 18.523669,16.2526364 17.9265404,15.7872484 L11.9853259,11.1476882 C11.8177862,11.0173796 11.6201753,10.9328938 11.4111087,10.9013906 L8.49963562,10.2803609 C14.3454598,3.958342 22.7104697,0 32,0 C35.4082706,0 38.6920906,0.53283648 41.7727025,1.51975198 L40.2852109,8.69616753 C40.1205352,10.1639296 40.8723158,11.581573 42.178266,12.2703472 L45.4989883,14.0187741 C46.3409825,14.4612506 47.3233092,14.5528963 48.2311737,14.2707995 L56.4792807,11.734793 L56.0662152,10.908662 Z M62.9231142,26.0544232 L50.6139602,24.5437022 C49.8535878,24.4448968 49.1218547,24.8730537 48.8368941,25.5861713 L45.7524457,33.2972921 C45.5247636,33.8672134 45.625001,34.5144607 46.014495,34.9884404 L48.8053909,38.3864887 C49.22782,38.9005634 49.9137303,39.1167898 50.5538177,38.9392264 C51.7938977,38.5941233 52.945196,39.7139184 52.6358919,40.9625901 L51.6292219,45.0236372 C51.433043,45.8155128 51.8339927,46.6331637 52.5786134,46.9639471 L56.0067329,48.4846918 C57.3937894,47.0057207 58.2672869,45.8520358 58.6272252,45.0236372 C58.9871635,44.1952387 59.703145,41.6907353 60.7751697,37.5101273 L62.9231142,26.0544232 Z" id="Combined-Shape"></path>
                <circle id="Oval-4" opacity="0.5" cx="32" cy="32" r="32"></circle>
            </g>
        </g>
    </g>
</svg>