<?xml version="1.0" encoding="iso-8859-1"?>
<!-- Generator: Adobe Illustrator 22.1.0, SVG Export Plug-In . SVG Version: 6.00 Build 0)  -->
<svg version="1.1" id="Layer_1" xmlns="http://www.w3.org/2000/svg" xmlns:xlink="http://www.w3.org/1999/xlink" x="0px" y="0px"
	 viewBox="0 0 557.92 409.55" style="enable-background:new 0 0 557.92 409.55;" xml:space="preserve">
<title>Products-core-v2-K-12 Math-hero</title>
<path style="opacity:0.5;fill:#A9D7F3;enable-background:new    ;" d="M496.82,102.29c-83.93,37.24-47.77,70.38-20.09,78.46
	c18.22,5.32,94.73,27.38,79.11,68.4c-7.88,20.77-65.68,11.55-83.24,40.38c-11.18,18.37,75.85,76.69-67.56,42.6
	c-39-9.26-165.65,81.85-237.77,17.42c-13-11.61-14.66-6.89-68.32,3.54c-73.24,14.23-118.35-28-80.7-56.79
	c38.68-15.32,37.45-71.72-4.6-57.28c-30,10.29-9.6-82.85,51.69-88.29c21.13-1.87,34.11-1.87,19.62-18.87
	c-21.25-24.9-148.23-73.33,33.6-77.41S580.74,65.05,496.82,102.29z"/>
<path style="fill:#D0E4F0;" d="M463.65,249.87c-6.45-1.42-31.53,20.47-31.53,20.47s5.53-16.82-1.45-15s-24,27.22-24,27.22
	s-66.78,24.45-99.71-13.53l-5.13,30.2c0,0,44.16,37.63,111.95,4.73c12.81-6.22,34.26-10.6,43.93-24.55S470.1,251.29,463.65,249.87z"
	/>
<path style="fill:#FFFFFF;" d="M430.67,255.29c-7,1.77-24,27.22-24,27.22s-66.78,24.5-99.71-13.48l-3.68,21.68
	c8.11,6,49.84,33,110.5,3.61c12.81-6.22,34.26-10.6,43.93-24.55c3.867-5.394,6.779-11.411,8.61-17.79
	c-0.527-1.081-1.523-1.859-2.7-2.11c-6.45-1.42-31.53,20.47-31.53,20.47s2.27-6.92,2.06-11.42c-1.29,1.09-2.06,1.76-2.06,1.76
	s0.68-2.07,1.26-4.67C432.707,255.215,431.625,254.924,430.67,255.29z"/>
<path style="fill:none;stroke:#40565B;stroke-linecap:round;stroke-linejoin:round;" d="M301.87,299.23c0,0,44.16,37.63,111.95,4.73
	c12.81-6.22,34.26-10.6,43.93-24.55s12.36-28.13,5.91-29.55s-31.53,20.47-31.53,20.47s5.53-16.82-1.45-15s-24,27.22-24,27.22
	s-66.79,24.46-99.72-13.52"/>
<path style="fill:none;stroke:#40565B;stroke-linecap:round;stroke-linejoin:round;" d="M406.71,282.53
	c-2.113,7.926,0.676,16.35,7.1,21.45"/>
<path style="fill:none;stroke:#C3D4E0;stroke-width:2;stroke-linecap:round;stroke-linejoin:round;" d="M388.68,290.61
	c0,0-3.61,10.46,4.4,17.18"/>
<path style="fill:none;stroke:#C3D4E0;stroke-width:2;stroke-linecap:round;stroke-linejoin:round;" d="M375.05,292.6
	c0,0-4.89,12.82,3.68,18.51"/>
<path style="fill:none;stroke:#C3D4E0;stroke-width:2;stroke-linecap:round;stroke-linejoin:round;" d="M357.75,293.39
	c0,0-5.79,14.14,3.3,19.34"/>
<path style="fill:none;stroke:#C3D4E0;stroke-width:2;stroke-linecap:round;stroke-linejoin:round;" d="M342.39,291.68
	c0,0-6.22,15.47,2.89,20.64"/>
<path style="fill:#D0E4F0;" d="M47.96,249.87c6.45-1.42,31.53,20.47,31.53,20.47s-5.53-16.81,1.47-15.05s24,27.24,24,27.24
	s66.82,24.5,99.71-13.49l5.13,30.2c0,0-44.16,37.63-111.95,4.73c-12.81-6.22-34.26-10.6-43.93-24.55S41.55,251.29,47.96,249.87z"/>
<path style="fill:#FFFFFF;" d="M80.96,255.29c7,1.77,24,27.22,24,27.22s66.82,24.5,99.71-13.49l3.68,21.68
	c-8.11,6-49.84,33-110.5,3.61c-12.81-6.22-34.26-10.6-43.93-24.55c-3.867-5.394-6.779-11.411-8.61-17.79
	c0.527-1.081,1.523-1.859,2.7-2.11c6.45-1.42,31.53,20.47,31.53,20.47s-2.27-6.92-2.06-11.42c1.29,1.09,2.06,1.76,2.06,1.76
	s-0.68-2.07-1.26-4.67C78.926,255.208,80.007,254.922,80.96,255.29z"/>
<path style="fill:none;stroke:#40565B;stroke-linecap:round;stroke-linejoin:round;" d="M209.78,299.23c0,0-44.16,37.63-111.95,4.73
	c-12.81-6.22-34.26-10.6-43.93-24.55s-12.35-28.12-5.94-29.54s31.56,20.46,31.56,20.46s-5.56-16.8,1.44-15.04s24,27.24,24,27.24
	s66.82,24.5,99.71-13.49"/>
<path style="fill:none;stroke:#40565B;stroke-linecap:round;stroke-linejoin:round;" d="M104.96,282.53
	c2.113,7.926-0.676,16.35-7.1,21.45"/>
<path style="fill:none;stroke:#C3D4E0;stroke-width:2;stroke-linecap:round;stroke-linejoin:round;" d="M122.96,290.61
	c0,0,3.61,10.46-4.4,17.18"/>
<path style="fill:none;stroke:#C3D4E0;stroke-width:2;stroke-linecap:round;stroke-linejoin:round;" d="M136.6,292.6
	c0,0,4.89,12.82-3.68,18.51"/>
<path style="fill:none;stroke:#C3D4E0;stroke-width:2;stroke-linecap:round;stroke-linejoin:round;" d="M153.9,293.39
	c0,0,5.81,14.17-3.31,19.33"/>
<path style="fill:none;stroke:#C3D4E0;stroke-width:2;stroke-linecap:round;stroke-linejoin:round;" d="M169.25,291.68
	c0,0,6.22,15.47-2.89,20.64"/>
<path style="fill:#D0E4F0;" d="M255.46,178.07l-3.56-50c0,0-55.38,4.48-58.65,70.88s0,93,0,93l18.9-10.73v-81
	c0,0,44.34,26.11,44.34,23.13S255.46,178.07,255.46,178.07z"/>
<path style="fill:#D0E4F0;" d="M256.49,162.44l3.56-34.36c0,0,55.38,4.48,58.65,70.88s0,93,0,93l-18.9-10.73v-81
	c0,0-43.31,25.54-43.31,22.56V162.44z"/>
<path style="fill:#E7F1F8;" d="M193.25,206.53c3.27-66.4,58.65-70.88,58.65-70.88l3.56,50c0,0,0.61,25,0.89,37.88
	c0.087-0.027,0.144-0.109,0.14-0.2c0-3-1-45.27-1-45.27l-3.56-50c0,0-55.38,4.48-58.65,70.88c-1.19,24.21-1.52,43.11-1.44,57.38
	C191.87,243.15,192.26,226.69,193.25,206.53z"/>
<path style="fill:#E7F1F8;" d="M318.7,206.53c1,20.15,1.38,36.61,1.44,49.8c0.07-14.27-0.25-33.17-1.44-57.39
	c-3.27-66.4-58.65-70.88-58.65-70.88l-3.56,34.36v7.59l3.56-34.36C260.05,135.65,315.43,140.15,318.7,206.53z"/>
<path style="fill:#A1C2D8;" d="M201.96,274.6h10v-78c0,0,4.76-7.37-0.94-0.45S201.96,274.6,201.96,274.6z"/>
<path style="fill:none;stroke:#3F555A;stroke-linecap:round;stroke-linejoin:round;" d="M255.46,178.07l-3.56-50
	c0,0-55.38,4.48-58.65,70.88s0,93,0,93l18.9-10.73v-81c0,0,44.34,26.11,44.34,23.13S255.46,178.07,255.46,178.07z"/>
<path style="fill:#A1C2D8;" d="M309.7,274.6h-10v-78c0,0-4.76-7.37,0.94-0.45S309.7,274.6,309.7,274.6z"/>
<path style="fill:none;stroke:#3F555A;stroke-linecap:round;stroke-linejoin:round;" d="M256.49,162.44l3.56-34.36
	c0,0,55.38,4.48,58.65,70.88s0,93,0,93l-18.9-10.73v-81c0,0-43.31,25.54-43.31,22.56V162.44z"/>
<path style="fill:none;stroke:#3F555A;stroke-linecap:round;stroke-linejoin:round;" d="M270.27,141.01
	c10.652,4.009,20.068,10.739,27.31,19.52"/>
<path style="fill:#FFFFFF;" d="M279.19,261.3c15.42,1.76,39.65,16.4,39.65,16.4l1.31,28.58l-11.12,97.34h-106l-11.07-97.09
	l1.32-28.82c0,0,22.18-15.23,37.6-17"/>
<path style="fill:#985BCD;" d="M279.19,261.3c15.42,1.76,39.65,16.4,39.65,16.4l1.31,28.58l-11.12,97.34c-36,7.78-71.32,8.08-106,0
	l-11.07-97.09l1.32-28.82c0,0,22.18-15.23,37.6-17"/>
<path style="fill:#8552BA;" d="M318.87,278.3c-0.09-0.26-0.2-0.52-0.31-0.78c-2.74-1.63-24.92-14.58-39.37-16.23l-48.34-0.59
	c-15.42,1.76-37.6,17-37.6,17l-0.44,9.63c5.41,12.07,32.23,16.57,62.89,23.79c47.34,11.13,51.47,42.58,59.21,41.09l5.25-45.93
	L318.87,278.3z"/>
<polyline style="fill:#D0E4F0;" points="212.68,211.76 189.12,213.2 189.12,210.83 212.68,209.38 "/>
<polyline style="fill:none;stroke:#40565B;stroke-linecap:round;stroke-linejoin:round;" points="212.68,211.76 187.59,213.3 
	187.11,210.95 212.68,209.38 "/>
<circle style="fill:#F36F42;stroke:#C84A27;stroke-linecap:round;stroke-linejoin:round;" cx="182.69" cy="213.06" r="6.33"/>
<polyline style="fill:#D0E4F0;" points="299.68,211.76 323.24,213.2 323.24,210.83 299.68,209.38 "/>
<polyline style="fill:none;stroke:#40565B;stroke-linecap:round;stroke-linejoin:round;" points="299.68,211.76 324.77,213.3 
	325.25,210.95 299.68,209.38 "/>
<circle style="fill:#F36F42;" cx="329.67" cy="213.06" r="6.33"/>
<circle style="fill:none;stroke:#C84A27;stroke-linecap:round;stroke-linejoin:round;" cx="329.67" cy="213.06" r="6.33"/>
<path style="fill:none;stroke:#923A95;stroke-miterlimit:10;" d="M203.06,403.61l-11.1-97.08l1.32-28.82c0,0,22.18-15.23,37.6-17"/>
<path style="fill:none;stroke:#923A95;stroke-miterlimit:10;" d="M279.19,261.3c15.42,1.76,39.65,16.4,39.65,16.4l1.31,28.58
	l-11.12,97.34"/>
<path style="fill:#FFFFFF;" d="M203.06,403.61"/>
<path style="fill:#FFFFFF;" d="M309.03,403.61"/>
<path style="fill:#D0E4F0;" d="M212.24,190.53c-2.895,7.322-4.374,15.127-4.36,23c0,20,9.2,37.51,23,47.17
	c3.532,2.495,7.409,4.459,11.51,5.83c4.216,1.397,8.629,2.109,13.07,2.11c26.28,0,47.58-24.67,47.58-55.1
	c0.014-7.873-1.465-15.678-4.36-23L212.24,190.53z"/>
<path style="fill:#FFFFFF;" d="M208.67,203.63c-0.521,3.274-0.785,6.584-0.79,9.9c-0.082,11.755,3.249,23.281,9.59,33.18
	c12.25,2.107,24.66,3.141,37.09,3.09c13.123,0.064,26.223-1.098,39.13-3.47c6.183-9.817,9.427-21.198,9.35-32.8
	c-0.002-3.16-0.239-6.315-0.71-9.44c-13.19-3.37-29.75-5.39-47.76-5.39C237.4,198.7,221.54,200.53,208.67,203.63z"/>
<path style="fill:none;stroke:#40565B;stroke-linecap:round;stroke-linejoin:round;" d="M212.24,190.53
	c-2.895,7.322-4.374,15.127-4.36,23c0,20,9.2,37.51,23,47.17c3.532,2.495,7.409,4.459,11.51,5.83
	c4.216,1.397,8.629,2.109,13.07,2.11c26.28,0,47.58-24.67,47.58-55.1c0.014-7.873-1.465-15.678-4.36-23L212.24,190.53z"/>
<path style="fill:#FFFFFF;stroke:#000000;stroke-miterlimit:10;" d="M235.96,288.39"/>
<path style="fill:none;stroke:#40565B;stroke-linecap:round;stroke-linejoin:round;" d="M239.38,246.94c0,0,14.18,15.31,30.38-0.37"
	/>
<polygon style="fill:#F36F42;stroke:#C84A27;stroke-linecap:round;stroke-linejoin:round;" points="254.57,227.51 256.3,231.55 
	258.04,235.6 254.57,235.6 251.1,235.6 252.84,231.55 "/>
<path style="fill:none;stroke:#40565B;stroke-linecap:round;stroke-linejoin:round;" d="M226.65,214.85
	c2.61,1.89,7.74,1.24,7.74,1.24h2.63c1.31,0,2.38,0.63,2.38,1.41v7.68c0,3.12-4.89,3.1-4.91,0v-8.76"/>
<path style="fill:none;stroke:#40565B;stroke-linecap:round;stroke-linejoin:round;" d="M264.4,214.85
	c2.61,1.89,7.74,1.24,7.74,1.24h2.63c1.31,0,2.38,0.63,2.38,1.41v7.68c0,3.12-4.89,3.1-4.91,0v-8.76"/>
<path style="fill:#40565B;" d="M226.65,214.85c2.61,1.89,7.74,1.24,7.74,1.24h2.63c1.31,0,2.38,0.63,2.38,1.41v7.68
	c0,3.12-4.89,3.1-4.91,0v-8.76"/>
<path style="fill:#40565B;" d="M264.4,214.85c2.61,1.89,7.74,1.24,7.74,1.24h2.63c1.31,0,2.38,0.63,2.38,1.41v7.68
	c0,3.12-4.89,3.1-4.91,0v-8.76"/>
<path style="fill:none;stroke:#40565B;stroke-linecap:round;stroke-linejoin:round;" d="M220.74,206.33
	c3.22-2.21,15.25-3.26,15.25-3.26"/>
<path style="fill:none;stroke:#40565B;stroke-linecap:round;stroke-linejoin:round;" d="M286.83,206.33
	c-3.22-2.21-15.25-3.26-15.25-3.26"/>
<circle style="fill:#8552BA;" cx="283.93" cy="329.14" r="3.01"/>
<circle style="fill:#8552BA;" cx="228.17" cy="329.14" r="3.01"/>
<line style="fill:none;stroke:#923A95;stroke-miterlimit:10;" x1="231.18" y1="329.59" x2="280.92" y2="329.59"/>
<circle style="fill:none;stroke:#923A95;stroke-miterlimit:10;" cx="283.93" cy="329.14" r="3.01"/>
<circle style="fill:none;stroke:#923A95;stroke-miterlimit:10;" cx="228.17" cy="329.14" r="3.01"/>
<circle style="fill:none;stroke:#A1C2D8;stroke-linecap:round;stroke-linejoin:round;" cx="338.88" cy="88.78" r="5.36"/>
<circle style="fill:none;stroke:#A1C2D8;stroke-linecap:round;stroke-linejoin:round;" cx="120.51" cy="167.18" r="5.36"/>
<circle style="fill:none;stroke:#A1C2D8;stroke-linecap:round;stroke-linejoin:round;" cx="469.2" cy="154.22" r="5.36"/>
<circle style="fill:none;stroke:#A1C2D8;stroke-linecap:round;stroke-linejoin:round;" cx="91.81" cy="67.9" r="5.36"/>
<circle style="fill:none;stroke:#A1C2D8;stroke-linecap:round;stroke-linejoin:round;" cx="187.18" cy="56.29" r="5.36"/>
<line style="fill:none;stroke:#A1C2D8;stroke-linecap:round;stroke-linejoin:round;stroke-dasharray:6,4;" x1="87.71" y1="119.59" x2="128.51" y2="110.93"/>
<line style="fill:none;stroke:#A1C2D8;stroke-linecap:round;stroke-linejoin:round;stroke-dasharray:6,4;" x1="167.27" y1="126.34" x2="128.51" y2="110.93"/>
<line style="fill:none;stroke:#A1C2D8;stroke-linecap:round;stroke-linejoin:round;stroke-dasharray:6,4;" x1="132.94" y1="58.78" x2="128.51" y2="110.93"/>
<polygon style="fill:none;stroke:#40565B;stroke-linecap:round;stroke-linejoin:round;" points="132.94,58.78 99.43,135.65 
	153.01,140.2 "/>
<polygon style="fill:none;stroke:#40565B;stroke-linecap:round;stroke-linejoin:round;" points="132.94,58.78 153.01,140.2 
	167.27,126.34 "/>
<polygon style="fill:none;stroke:#40565B;stroke-linecap:round;stroke-linejoin:round;" points="132.94,58.78 99.43,135.65 
	87.71,119.59 "/>
<path style="fill:none;stroke:#A1C2D8;stroke-linecap:round;stroke-linejoin:round;stroke-dasharray:6,4;" d="M51.84,226.01
	c-0.74-3.54,11.69-9.15,27.77-12.53s29.72-3.25,30.46,0.3"/>
<path style="fill:none;stroke:#40565B;stroke-linecap:round;stroke-linejoin:round;" d="M109.96,213.43l-0.15-0.17
	c-0.118-0.184-0.263-0.349-0.43-0.49L70.1,168.65l-18.07,56.19c-0.093,0.193-0.157,0.398-0.19,0.61l-0.07,0.21l0,0
	c-0.014,0.116-0.014,0.234,0,0.35c0.74,3.54,14.38,3.68,30.46,0.3s28.51-9,27.77-12.53c-0.026-0.118-0.067-0.232-0.12-0.34
	L109.96,213.43z"/>
<path style="fill:none;stroke:#A1C2D8;stroke-linecap:round;stroke-linejoin:round;stroke-dasharray:6,4;" d="M392.57,44.61
	c0,3.68-13.54,6.66-30.24,6.66s-30.24-3-30.24-6.66"/>
<path style="fill:none;stroke:#40565B;stroke-linecap:round;stroke-linejoin:round;" d="M332.08,44.96l0.11,0.2
	c0.08,0.209,0.191,0.405,0.33,0.58l29.89,52.12l29.72-52.13c0.134-0.17,0.241-0.359,0.32-0.56l0.11-0.2l0,0
	c0.014-0.12,0.014-0.24,0-0.36c0-3.68-13.54-6.66-30.24-6.66s-30.25,3-30.25,6.66c-0.014,0.12-0.014,0.24,0,0.36L332.08,44.96z"/>
<line style="fill:none;stroke:#A1C2D8;stroke-linecap:round;stroke-linejoin:round;stroke-dasharray:6,4;" x1="383.81" y1="138.47" x2="446.15" y2="134.57"/>
<polygon style="fill:none;stroke:#40565B;stroke-linecap:round;stroke-linejoin:round;" points="404.87,86.53 446.15,134.57 
	396.07,150.74 "/>
<polyline style="fill:none;stroke:#40565B;stroke-linecap:round;stroke-linejoin:round;" points="396.07,150.74 383.81,138.47 
	404.87,86.53 "/>
<polyline style="fill:none;stroke:#A1C2D8;stroke-linecap:round;stroke-linejoin:round;stroke-dasharray:6,4;" points="
	464.98,213.06 432.66,226.52 419.21,194.19 "/>
<line style="fill:none;stroke:#A1C2D8;stroke-linecap:round;stroke-linejoin:round;stroke-dasharray:6,4;" x1="432.66" y1="226.52" x2="424.21" y2="242.18"/>
<rect x="416.133" y="201.762" transform="matrix(0.9232 -0.3843 0.3843 0.9232 -50.9643 183.4826)" style="fill:none;stroke:#40565B;stroke-linecap:round;stroke-linejoin:round;" width="35.01" height="35.01"/>
<polyline style="fill:none;stroke:#40565B;stroke-linecap:round;stroke-linejoin:round;" points="419.21,194.19 451.53,180.74 
	464.98,213.06 "/>
<line style="fill:none;stroke:#40565B;stroke-linecap:round;stroke-linejoin:round;" x1="410.75" y1="209.86" x2="419.21" y2="194.2"/>
<line style="fill:none;stroke:#40565B;stroke-linecap:round;stroke-linejoin:round;" x1="443.07" y1="196.41" x2="451.53" y2="180.74"/>
<line style="fill:none;stroke:#40565B;stroke-linecap:round;stroke-linejoin:round;" x1="456.53" y1="228.73" x2="464.98" y2="213.06"/>
<path style="fill:none;stroke:#A1C2D8;stroke-linecap:round;stroke-linejoin:round;stroke-dasharray:6,4;" d="M257.27,75.38
	c-8.08,0-14.63-16.76-14.63-37.44s6.55-37.41,14.63-37.41"/>
<path style="fill:none;stroke:#A1C2D8;stroke-linecap:round;stroke-linejoin:round;stroke-dasharray:6,4;" d="M219.84,37.94
	c0-8.08,16.76-14.63,37.44-14.63s37.44,6.55,37.44,14.63"/>
<circle style="fill:none;stroke:#40565B;stroke-linecap:round;stroke-linejoin:round;" cx="257.27" cy="37.94" r="37.44"/>
<path style="fill:none;stroke:#40565B;stroke-linecap:round;stroke-linejoin:round;" d="M257.27,0.53
	c8.08,0,14.63,16.76,14.63,37.44s-6.55,37.44-14.63,37.44"/>
<path style="fill:none;stroke:#40565B;stroke-linecap:round;stroke-linejoin:round;" d="M294.71,37.94
	c0,8.08-16.75,14.59-37.44,14.59s-37.44-6.55-37.44-14.63"/>
</svg>
