<svg id="cleanup" xmlns="http://www.w3.org/2000/svg" viewBox="0 0 280 280"><title>leveled-organization</title><path d="M246.58,210c.82,0,1-.67.48-1.49L223,172.83a3.49,3.49,0,0,0-2.5-1.49H72.77a3.49,3.49,0,0,0-2.5,1.49L46.2,208.47c-.56.82-.34,1.49.48,1.49Z" style="fill:#d0e4f1"/><polygon points="170.6 209.21 224.31 174.78 247.29 208.91 170.6 209.21" style="fill:#fff"/><rect x="71.27" y="66.35" width="149.22" height="104.98" rx="7" ry="7" style="fill:#d0e4f1;stroke:#3f555a;stroke-linecap:round;stroke-linejoin:round"/><path d="M45.89,209.21v3.85h0c0,.36.3.59.79.59H246.58c.48,0,.76-.23.79-.59h0v-3.85Z" style="fill:none;stroke:#3f555a;stroke-linecap:round;stroke-linejoin:round"/><path d="M246.58,210c.82,0,1-.67.48-1.49L223,172.83a3.49,3.49,0,0,0-2.5-1.49H72.77a3.49,3.49,0,0,0-2.5,1.49L46.2,208.47c-.56.82-.34,1.49.48,1.49Z" style="fill:none;stroke:#3f555a;stroke-linecap:round;stroke-linejoin:round"/><path d="M246.58,210c.82,0,1-.67.48-1.49L223,172.83a3.49,3.49,0,0,0-2.5-1.49H72.77a3.49,3.49,0,0,0-2.5,1.49L46.2,208.47c-.56.82-.34,1.49.48,1.49Z" style="fill:none;stroke:#3f555a;stroke-linecap:round;stroke-linejoin:round"/><line x1="70.27" y1="172.83" x2="46.2" y2="208.47" style="fill:none;stroke:#3f555a;stroke-linecap:round;stroke-linejoin:round"/><polyline points="75.09 179.73 81.08 179.73 82.92 176.39" style="fill:none;stroke:#3f555a;stroke-linecap:round;stroke-linejoin:round"/><polyline points="85.47 179.73 91.46 179.73 93.01 176.39" style="fill:none;stroke:#3f555a;stroke-linecap:round;stroke-linejoin:round"/><polyline points="95.84 179.73 101.83 179.73 103.09 176.39" style="fill:none;stroke:#3f555a;stroke-linecap:round;stroke-linejoin:round"/><polyline points="106.22 179.73 112.21 179.73 113.18 176.39" style="fill:none;stroke:#3f555a;stroke-linecap:round;stroke-linejoin:round"/><polyline points="116.6 179.73 122.59 179.73 123.26 176.39" style="fill:none;stroke:#3f555a;stroke-linecap:round;stroke-linejoin:round"/><polyline points="126.98 179.73 132.97 179.73 133.35 176.39" style="fill:none;stroke:#3f555a;stroke-linecap:round;stroke-linejoin:round"/><polyline points="137.36 179.73 143.35 179.73 143.43 176.39" style="fill:none;stroke:#3f555a;stroke-linecap:round;stroke-linejoin:round"/><polyline points="147.74 179.73 153.73 179.73 153.52 176.39" style="fill:none;stroke:#3f555a;stroke-linecap:round;stroke-linejoin:round"/><polyline points="158.12 179.73 164.1 179.73 163.6 176.39" style="fill:none;stroke:#3f555a;stroke-linecap:round;stroke-linejoin:round"/><polyline points="168.49 179.73 174.48 179.73 173.69 176.39" style="fill:none;stroke:#3f555a;stroke-linecap:round;stroke-linejoin:round"/><polyline points="178.87 179.73 184.86 179.73 183.77 176.39" style="fill:none;stroke:#3f555a;stroke-linecap:round;stroke-linejoin:round"/><polyline points="189.25 179.73 195.24 179.73 193.86 176.39" style="fill:none;stroke:#3f555a;stroke-linecap:round;stroke-linejoin:round"/><polyline points="199.63 179.73 205.62 179.73 203.94 176.39" style="fill:none;stroke:#3f555a;stroke-linecap:round;stroke-linejoin:round"/><polyline points="210.01 179.73 216 179.73 214.03 176.39" style="fill:none;stroke:#3f555a;stroke-linecap:round;stroke-linejoin:round"/><polyline points="69.1 191.23 75.09 191.23 76.93 187.89" style="fill:none;stroke:#3f555a;stroke-linecap:round;stroke-linejoin:round"/><polyline points="80.4 191.23 86.39 191.23 87.94 187.89" style="fill:none;stroke:#3f555a;stroke-linecap:round;stroke-linejoin:round"/><polyline points="91.69 191.23 97.68 191.23 98.94 187.89" style="fill:none;stroke:#3f555a;stroke-linecap:round;stroke-linejoin:round"/><polyline points="102.99 191.23 108.98 191.23 109.95 187.89" style="fill:none;stroke:#3f555a;stroke-linecap:round;stroke-linejoin:round"/><polyline points="114.29 191.23 176.77 191.23 175.98 187.89" style="fill:none;stroke:#3f555a;stroke-linecap:round;stroke-linejoin:round"/><polyline points="182.08 191.23 188.07 191.23 186.98 187.89" style="fill:none;stroke:#3f555a;stroke-linecap:round;stroke-linejoin:round"/><polyline points="193.38 191.23 199.37 191.23 197.99 187.89" style="fill:none;stroke:#3f555a;stroke-linecap:round;stroke-linejoin:round"/><polyline points="204.68 191.23 210.67 191.23 208.99 187.89" style="fill:none;stroke:#3f555a;stroke-linecap:round;stroke-linejoin:round"/><polyline points="215.97 191.23 221.97 191.23 220 187.89" style="fill:none;stroke:#3f555a;stroke-linecap:round;stroke-linejoin:round"/><polyline points="81.23 185.48 87.23 185.48 89.07 182.14" style="fill:none;stroke:#3f555a;stroke-linecap:round;stroke-linejoin:round"/><polyline points="93.22 185.48 99.21 185.48 100.71 182.14" style="fill:none;stroke:#3f555a;stroke-linecap:round;stroke-linejoin:round"/><polyline points="105.2 185.48 111.19 185.48 112.34 182.14" style="fill:none;stroke:#3f555a;stroke-linecap:round;stroke-linejoin:round"/><polyline points="117.18 185.48 123.17 185.48 123.98 182.14" style="fill:none;stroke:#3f555a;stroke-linecap:round;stroke-linejoin:round"/><polyline points="129.16 185.48 135.15 185.48 135.61 182.14" style="fill:none;stroke:#3f555a;stroke-linecap:round;stroke-linejoin:round"/><polyline points="141.14 185.48 147.13 185.48 147.25 182.14" style="fill:none;stroke:#3f555a;stroke-linecap:round;stroke-linejoin:round"/><polyline points="153.13 185.48 159.12 185.48 158.88 182.14" style="fill:none;stroke:#3f555a;stroke-linecap:round;stroke-linejoin:round"/><polyline points="165.11 185.48 171.1 185.48 170.52 182.14" style="fill:none;stroke:#3f555a;stroke-linecap:round;stroke-linejoin:round"/><polyline points="177.09 185.48 183.08 185.48 182.15 182.14" style="fill:none;stroke:#3f555a;stroke-linecap:round;stroke-linejoin:round"/><polyline points="189.07 185.48 195.06 185.48 193.78 182.14" style="fill:none;stroke:#3f555a;stroke-linecap:round;stroke-linejoin:round"/><polyline points="201.05 185.48 207.04 185.48 205.42 182.14" style="fill:none;stroke:#3f555a;stroke-linecap:round;stroke-linejoin:round"/><polyline points="213.03 185.48 219.02 185.48 217.06 182.14" style="fill:none;stroke:#3f555a;stroke-linecap:round;stroke-linejoin:round"/><polyline points="71.91 185.48 87.23 185.48 89.07 182.14" style="fill:none;stroke:#3f555a;stroke-linecap:round;stroke-linejoin:round"/><polyline points="68.73 191.23 74.73 191.23 76.57 187.89" style="fill:none;stroke:#3f555a;stroke-linecap:round;stroke-linejoin:round"/><rect x="98.41" y="49.64" width="94.94" height="138.41" transform="translate(264.73 -27.04) rotate(90)" style="fill:#fff;stroke:#3f555a;stroke-linecap:round;stroke-linejoin:round"/><path d="M45.89,209.21v3.85h0c0,.36.3.59.79.59H246.58c.48,0,.76-.23.79-.59h0v-3.85Z" style="fill:#d0e4f1;stroke:#3f555a;stroke-linecap:round;stroke-linejoin:round"/><rect x="89.09" y="120.23" width="19.84" height="28.87" style="fill:#3290c1;stroke:#3f555a;stroke-linecap:round;stroke-linejoin:round"/><rect x="89.09" y="102.52" width="19.84" height="14.43" style="fill:none;stroke:#3f555a;stroke-linecap:round;stroke-linejoin:round"/><rect x="89.09" y="92.03" width="19.84" height="7.22" style="fill:none;stroke:#3f555a;stroke-linecap:round;stroke-linejoin:round"/><rect x="89.09" y="85.14" width="19.84" height="3.61" style="fill:none;stroke:#3f555a;stroke-linecap:round;stroke-linejoin:round"/><rect x="120.34" y="120.23" width="19.84" height="28.87" style="fill:#3290c1;stroke:#3f555a;stroke-linecap:round;stroke-linejoin:round"/><rect x="120.34" y="102.52" width="19.84" height="14.43" style="fill:#19bc9c;stroke:#3f555a;stroke-linecap:round;stroke-linejoin:round"/><rect x="120.34" y="92.03" width="19.84" height="7.22" style="fill:none;stroke:#3f555a;stroke-linecap:round;stroke-linejoin:round"/><rect x="120.34" y="85.14" width="19.84" height="3.61" style="fill:none;stroke:#3f555a;stroke-linecap:round;stroke-linejoin:round"/><rect x="151.58" y="120.23" width="19.84" height="28.87" style="fill:#3290c1;stroke:#3f555a;stroke-linecap:round;stroke-linejoin:round"/><rect x="151.58" y="102.52" width="19.84" height="14.43" style="fill:#19bc9c;stroke:#3f555a;stroke-linecap:round;stroke-linejoin:round"/><rect x="151.58" y="92.03" width="19.84" height="7.22" style="fill:#ffdf00;stroke:#3f555a;stroke-linecap:round;stroke-linejoin:round"/><rect x="151.58" y="85.14" width="19.84" height="3.61" style="fill:none;stroke:#3f555a;stroke-linecap:round;stroke-linejoin:round"/><rect x="182.83" y="120.23" width="19.84" height="28.87" style="fill:#3290c1;stroke:#3f555a;stroke-linecap:round;stroke-linejoin:round"/><rect x="182.83" y="102.52" width="19.84" height="14.43" style="fill:#19bc9c;stroke:#3f555a;stroke-linecap:round;stroke-linejoin:round"/><rect x="182.83" y="92.03" width="19.84" height="7.22" style="fill:#ffdf00;stroke:#3f555a;stroke-linecap:round;stroke-linejoin:round"/><rect x="182.83" y="85.14" width="19.84" height="3.61" style="fill:#f56f40;stroke:#3f555a;stroke-linecap:round;stroke-linejoin:round"/><polygon points="161.51 152.78 165.6 158.55 157.41 158.55 161.51 152.78" style="fill:#ffdf00;stroke:#3f555a;stroke-linecap:round;stroke-linejoin:round"/></svg>