<?xml version="1.0" encoding="UTF-8"?>
<svg width="137px" height="134px" viewBox="0 0 137 134" version="1.1" xmlns="http://www.w3.org/2000/svg" xmlns:xlink="http://www.w3.org/1999/xlink">
    <!-- Generator: Sketch 52.1 (67048) - http://www.bohemiancoding.com/sketch -->
    <title>strategic_reading_arts_and_culture</title>
    <desc>Created with Sketch.</desc>
    <g id="strategic_reading_arts_and_culture" stroke="none" stroke-width="1" fill="none" fill-rule="evenodd">
        <g id="Group-3" transform="translate(14.000000, 1.000000)" fill="#FFFFFF">
            <g id="Group-2">
                <g id="lines" transform="translate(2.000000, 94.000000)" opacity="0.25">
                    <path d="M0,12 L0,37.442 L64.737292,37.442 L65.6493417,12.4374127 C65.890918,5.81439999 60.7177418,0.249551074 54.0947291,0.00797472668 C53.9489854,0.00265868394 53.803157,1.62003392e-15 53.6573164,1.77635684e-15 L12,0 C5.372583,1.21743675e-15 -8.11624501e-16,5.372583 0,12 Z" id="XMLID_162_"></path>
                </g>
                <g id="Group">
                    <path d="M74.7763131,132 L65,132 C65.101059,128.535827 68.0818925,121.149568 72.1561217,117.491325 C76.2392077,113.825843 79.3108902,109.95151 81.5196117,105.491937 C83.3373962,101.820683 84.2363613,98.4446908 84.012195,95.1563823 C83.7578317,91.4275608 82.0650984,88.3937618 79.1609649,85.9734621 L88.3702584,74.8190289 L93.3134394,78.581361 C93.5804676,78.7843249 93.8903002,78.9210762 94.2188327,78.9812034 L101.380674,80.2758754 L109.361403,91.5070168 L104.993254,100.303291 L98.0034607,103.449717 L97.317914,102.239428 L104.634444,97.6682973 C105.174846,97.3303784 105.537187,96.7674394 105.621768,96.1330142 L106.159484,92.1613642 L103.790081,91.8363293 L103.268525,95.6886426 L96.5055863,99.9139085 L96.1060533,99.0754449 C96.0855207,98.9363492 96.1496637,98.7961819 96.2725975,98.7226559 L99.6080462,96.724316 C100.146427,96.4034106 100.559204,95.9026934 100.777695,95.3090918 L101.758846,92.6292646 C101.935008,92.1464303 101.974732,91.6260669 101.873185,91.1235012 L101.064675,87.143368 L98.7218469,87.6255821 L99.5279398,91.5938123 L96.0413732,88.7057623 C95.0966709,87.9228374 93.6723726,88.2548039 93.1644767,89.3748372 L90.7408089,94.7180998 L90.4236617,94.6445616 L91.9916487,90.3591541 C92.092898,90.0896911 92.1281833,89.7908192 92.0945705,89.496458 L91.7634287,86.6083823 L95.0196891,81.515 L93.0087893,80.2123926 L89.6502023,85.4658439 C89.4169759,85.8280411 89.316189,86.2656068 89.3664959,86.6977244 L89.7044802,89.6454918 L87.9721558,94.3799199 C87.5847268,95.4389305 88.2082497,96.5987165 89.2993259,96.8539728 L90.6251945,97.1614069 C91.4860045,97.3629186 92.3694706,96.9232341 92.7369467,96.112816 L95.0538032,91.0050316 L98.6993782,94.0247942 L98.5346329,94.4747652 C98.5065651,94.5510155 98.4540356,94.6147361 98.3873073,94.6545104 L95.0503235,96.6537669 C93.9582462,97.3069319 93.4557298,98.6312225 93.8374206,99.8521529 L93.8998796,100.011382 L94.8420925,101.988718 C94.8110345,102.400931 94.897722,102.826233 95.11564,103.21116 L95.5449309,103.969046 C95.4869454,104.018262 95.4273848,104.068988 95.366281,104.12121 C94.6064973,104.770545 93.7610647,105.519815 92.851285,106.35968 C90.2532148,108.758095 87.6553439,111.405539 85.2277219,114.228807 C80.0224928,120.282367 76.3227269,126.283823 74.7763131,132 Z M56.686714,100.764051 C58.9303597,100.087815 61.2046566,99.3502608 63.5151502,98.5519129 L62.738763,96.2752319 C53.6167505,99.4271728 45.0850074,101.613007 36.794894,102.803043 C27.8055293,104.09357 20.0770626,104.17154 13.0425193,102.747223 C6.69172158,101.461337 1.82889317,96.9953572 0.322118522,90.909841 C0.0774828512,89.9221104 -0.0257447823,88.9028096 0.00540454187,87.8462398 C0.119568597,83.973851 1.84301795,80.054564 5.39621808,74.4536481 C5.88678108,73.6803728 7.52939194,71.1495976 7.75828152,70.7919614 C13.1347232,62.3922683 17.4352969,55.6724853 27.1111304,40.5529878 C31.0854306,34.3432383 37.0276846,28.0174491 42.8779174,24.4176324 C49.0477086,20.6211821 54.0835435,19.4672354 59,22.5 C59.2490503,22.6536291 59.6251283,22.6822572 60.0297827,22.6337491 L60.0632535,22.7217265 L60.5452731,22.5359156 C60.9214147,22.4402149 61.2870226,22.2967521 61.5668163,22.1421269 L66.852051,20.1047531 C67.6504858,20.4852444 68.4958692,20.863254 69.3628933,21.2191986 C70.3927694,21.6419999 71.3944516,22.0090789 72.348679,22.3043157 C75.6623591,23.3295644 78.1194372,23.4573373 79.5736434,22.1275568 C80.5458603,21.2385253 81.1013116,20.321845 81.98422,18.4518495 C82.1668369,18.0639789 82.2552069,17.8769726 82.3480076,17.68436 C83.5062306,15.2804096 84.5142618,14.1343251 86.5559911,13.3957535 C86.8261658,13.2980213 87.0331473,13.250361 87.172123,13.2389381 C87.190667,13.4197069 87.1732303,13.7876154 87.0701539,14.2878 C86.8062628,15.5683478 86.1243537,17.2479367 85.3274306,18.8604518 C84.7893487,19.9527398 85.8145956,21.1862875 86.9868964,20.8020902 C88.8273114,20.1912945 95.5694833,19.829084 103.976855,19.6756824 L101.720798,24.5220071 C101.596998,24.7881989 101.281996,24.9026398 101.017766,24.7775841 L96.2168305,22.5075227 L95.2001262,24.6862061 L99.502664,26.7206066 L97.5485143,33.0586013 C97.4852786,33.2633636 97.2470205,33.3508816 97.067976,33.235241 L94.859176,31.809972 L93.5686503,33.8364294 L94.4657543,34.4153023 L93.2443142,39.0431322 L86.8546531,40.4750857 L79.3288006,33.3202577 C78.7810907,32.799936 78.470761,32.0755062 78.470761,31.3175724 L78.470761,27.0064927 L76.0794566,27.0064927 L76.0794566,31.3175724 C76.0794566,32.482381 76.4705578,33.6049952 77.1771537,34.5088725 L70.9636815,43.88494 C69.8674756,41.4041515 68.5158151,39.0894661 66.940578,36.9391263 C65.3472053,34.7640299 63.6385495,32.9308037 61.9261242,31.4270954 C60.8878248,30.515348 60.0686555,29.9099975 59.5786464,29.5990233 L58.3033103,31.6352011 C58.3898996,31.6901532 58.5727735,31.8151158 58.8381755,32.0112428 C59.2927889,32.3471934 59.8026781,32.7567349 60.3541341,33.2409774 C61.940435,34.6339338 63.5305054,36.3399291 65.0159438,38.3676856 C70.7841973,46.2418682 73.3562234,56.4706862 70.9187665,69.30518 L73.267538,69.7571506 C73.4855689,68.6091035 73.6652967,67.4798968 73.8078851,66.3694665 C73.9499592,66.098482 74.2093323,65.6750913 74.6030634,65.1427637 C75.4274987,64.0281205 76.515785,62.9063025 77.9005319,61.8539136 C81.2740571,59.2900801 85.813685,57.5665431 91.7170868,57.0911554 L91.5263917,54.6917416 C91.2740895,54.7120589 91.0239643,54.7345463 90.7760069,54.759177 L90.5856535,52.0782849 C90.4504491,50.1586073 88.8630981,48.6702096 86.9503262,48.6702096 L86.796087,48.6702096 C86.4820969,48.6702096 86.1805122,48.552144 85.9486019,48.3384659 L85.244972,47.6898629 L89.9413772,46.3768985 C90.4737986,46.2279022 91.0308086,46.5145087 91.2226477,47.0360611 L92.4936277,50.4914284 L94.7361551,49.6556456 L93.4651769,46.2002827 C92.8416159,44.5050093 91.0312934,43.5735178 89.3011529,44.0576919 L79.8175361,46.7090073 C79.1399048,46.8982281 78.4695653,46.385477 78.4695653,45.6782096 C78.4695653,45.1770238 78.8158143,44.7424392 79.3016561,44.6337621 L95.0321163,41.1084909 C95.560857,40.990155 96.0935577,41.2908379 96.2693038,41.8068123 L100.817447,55.1729796 C100.937972,55.5267373 100.866776,55.916781 100.629377,56.2045613 L77.2196661,84.5587505 C75.5546078,83.4928209 73.6089338,82.5706601 71.4094836,81.7826279 C68.940588,80.8980571 66.3574196,80.2252568 63.5364188,79.6988221 C57.2129246,75.5909372 52.3235344,69.0269942 48.7059361,60.6613603 C46.4258038,55.3885936 44.7894718,49.7267977 43.6941522,44.0632379 C43.3106568,42.0803015 43.0224223,40.2399898 42.8160696,38.5905032 C42.7440922,38.0151493 42.6875285,37.5054328 42.6446933,37.0673674 C42.6193136,36.807815 42.6042804,36.6318749 42.5979032,36.5455552 L40.2131839,36.7240675 C40.2209516,36.8292079 40.2376145,37.0242219 40.264889,37.3031512 C40.3098107,37.7625553 40.3687748,38.2939034 40.4435027,38.8912431 C40.6563081,40.5923094 40.9528201,42.4854709 41.3469119,44.523198 C42.4732699,50.3472481 44.1570053,56.1730621 46.5133482,61.6220646 C47.0557237,62.8762986 47.6262679,64.0930752 48.225643,65.2703156 L45.2241533,68.5309302 L42.3115298,74.4242206 L41.6539314,77.9716019 C34.2457297,78.0064966 26.6446301,78.6197777 19.105852,79.7761934 L19.4661047,82.155801 C30.6768294,80.4361247 42.0225536,79.9365773 52.6252141,80.7745522 C59.9539406,81.3535101 65.5823087,82.2498452 70.6076089,84.0503399 C77.4088668,86.4871354 81.2733771,90.1445751 81.6265045,95.3212234 C81.8171409,98.1176792 81.0237312,101.097267 79.3794602,104.418087 C77.3147397,108.586911 74.4320052,112.222923 70.5643994,115.694964 C66.0398134,119.757581 62,132 63.5,132 L51.2692501,132 C51.2872801,131.941362 51.3061968,131.878991 51.325919,131.812984 C51.4889084,131.26749 51.6513182,130.655242 51.8026894,129.988572 C52.3939652,127.38447 52.6563785,124.724837 52.3999123,122.210124 C52.3607837,121.826458 52.3095171,121.449202 52.2456511,121.078781 C51.9574825,119.404797 52.4403945,116.0408 53.5229469,111.616562 C53.8165139,110.416795 54.1486515,109.160458 54.5122871,107.863929 C55.031302,106.0134 55.5878047,104.173756 56.1442722,102.430586 C56.3389717,101.820678 56.5196788,101.266636 56.6817113,100.7791 C56.6833873,100.774057 56.6850548,100.769041 56.686714,100.764051 Z" id="Combined-Shape"></path>
                    <path d="M69.5097099,19.1740001 C70.477796,19.5714343 71.4141506,19.9145732 72.29501,20.18711 C74.8170397,20.967423 76.6276246,21.061577 77.2094577,20.5295271 C77.8790681,19.9172103 78.3143706,19.1988157 79.0681788,17.6022537 C79.2498901,17.2162723 79.3427343,17.0197978 79.4401409,16.8176255 C80.8449301,13.9019145 82.2483722,12.3062662 84.9910242,11.3141441 C86.4648275,10.7810148 87.6840605,10.9324505 88.3736769,11.9661118 C88.8809314,12.7264322 88.9116523,13.7166992 88.6553656,14.9603458 C88.4472322,15.9703258 88.0558814,17.1052647 87.5620666,18.2707748 C91.1554157,17.7638928 97.8838965,17.5095513 106.044333,17.409049 C106.457821,17.4040667 106.719439,16.9700725 106.533861,16.6036657 C101.306423,6.30237239 94.7336928,-0.928300771 88.060203,0.0967292863 C83.4802498,0.799784427 78.5726426,4.20309699 73.6995428,9.45690272 C71.7328548,11.5772362 69.9086389,13.8534821 68.2757898,16.1297618 C67.7870982,16.8110242 67.3461146,17.450153 66.9565217,18.0350005 C67.7648873,18.4238042 68.6270751,18.8116467 69.5097099,19.1740001 Z" id="XMLID_155_" opacity="0.75"></path>
                </g>
            </g>
        </g>
    </g>
</svg>