<?xml version="1.0" encoding="UTF-8"?>
<svg width="137px" height="134px" viewBox="0 0 137 134" version="1.1" xmlns="http://www.w3.org/2000/svg" xmlns:xlink="http://www.w3.org/1999/xlink">
    <!-- Generator: Sketch 52.1 (67048) - http://www.bohemiancoding.com/sketch -->
    <title>strategic_reading_science_and_technology</title>
    <desc>Created with Sketch.</desc>
    <g id="strategic_reading_science_and_technology" stroke="none" stroke-width="1" fill="none" fill-rule="evenodd">
        <g id="StrategicReading_ScienceTechnology" transform="translate(23.000000, 0.000000)" fill="#FFFFFF">
            <path d="M16.0277928,66.2194566 L5.6822755,131.687827 C5.50986732,132.778859 6.25455846,133.803079 7.34558972,133.975487 C7.4488467,133.991804 7.55322407,134 7.65776234,134 L33.1480911,134 C34.2526606,134 35.1480911,133.104569 35.1480911,132 C35.1480911,131.910718 35.1421126,131.821535 35.1301957,131.733052 L28.1463527,79.8776311 L16.0277928,66.2194566 Z" id="XMLID_37_" opacity="0.75"></path>
            <g id="Group" opacity="0.5" transform="translate(6.000000, 0.000000)">
                <polygon id="XMLID_27_" fill-rule="nonzero" points="17.2978687 29.307784 17 25.7279303 65.110978 22.6770375 65.4088467 26.2568911"></polygon>
                <polygon id="XMLID_29_" fill-rule="nonzero" points="66.9352876 79 63.3685099 78.3500353 69.2777504 31.5689614 72.8445281 32.2189261"></polygon>
                <polygon id="XMLID_33_" fill-rule="nonzero" points="36.1432728 48.0054166 34.2044697 44.978525 64.9509149 25.0592328 66.889718 28.0861244"></polygon>
                <polygon id="XMLID_34_" fill-rule="nonzero" points="46.2375511 58.4027134 43.5482605 56.0102434 66.8244054 29.3569615 69.5136959 31.7494314"></polygon>
                <path d="M0.859482468,0.53920583 C19.5671639,18.9102953 33.368391,32.8824077 42.2631638,42.4555432 C51.1579365,52.0286788 65.8517068,68.724744 86.3444747,92.543739 L20.9110651,57.6163759 L0.859482468,0.53920583 Z" id="Path-2"></path>
            </g>
            <path d="M92.7974684,92.7758571 C71.5715823,106.17825 38.9853797,97.2445179 17.7414557,71.380125 C-1.22607595,48.2866607 -5.09822785,19.0638929 6.69740506,0.238089286 C23.2140439,23.8310455 36.4488565,40.9761094 46.4018429,51.6732809 C55.5822039,61.5400578 71.0474124,75.2409166 92.7974684,92.7758571 Z" id="XMLID_28_"></path>
            <path d="M82.1711564,12.271772 L90.5669792,22.6397497 C91.3986504,23.666778 91.2402821,25.1735516 90.2132537,26.0052227 L79.2671696,34.8691868 C78.2401413,35.700858 76.7333677,35.5424897 75.9016966,34.5154614 L67.5058738,24.1474837 C66.6742027,23.1204554 66.832571,21.6136818 67.8595993,20.7820106 L78.8056834,11.9180465 C79.8327117,11.0863754 81.3394853,11.2447436 82.1711564,12.271772 Z" id="Rectangle"></path>
        </g>
    </g>
</svg>