<?xml version="1.0" encoding="UTF-8"?>
<svg width="137px" height="134px" viewBox="0 0 137 134" version="1.1" xmlns="http://www.w3.org/2000/svg" xmlns:xlink="http://www.w3.org/1999/xlink">
    <!-- Generator: Sketch 52.1 (67048) - http://www.bohemiancoding.com/sketch -->
    <title>mastery_math_algebra_2</title>
    <desc>Created with Sketch.</desc>
    <g id="mastery_math_algebra_2" stroke="none" stroke-width="1" fill="none" fill-rule="evenodd">
        <g id="Group" transform="translate(2.000000, 0.000000)" fill="#FFFFFF" fill-rule="nonzero">
            <g id="mastery-math-algebra01">
                <path d="M109.991667,123.391667 L101.058333,123.391667 L101.058333,131.878333 C101.058333,132.436667 100.611667,132.995 99.9416667,132.995 C99.2716667,132.995 98.825,132.548333 98.825,131.878333 L98.825,123.391667 L89.8916667,123.391667 L89.8916667,131.878333 C89.8916667,132.436667 89.445,132.995 88.775,132.995 C88.105,132.995 87.6583333,132.548333 87.6583333,131.878333 L87.6583333,123.391667 L78.725,123.391667 L78.725,131.878333 C78.725,132.436667 78.2783333,132.995 77.6083333,132.995 C76.9383333,132.995 76.4916667,132.548333 76.4916667,131.878333 L76.4916667,123.391667 L67.5583333,123.391667 L67.5583333,131.878333 C67.5583333,132.436667 67.1116667,132.995 66.4416667,132.995 C65.7716667,132.995 65.325,132.548333 65.325,131.878333 L65.325,123.391667 L56.3916667,123.391667 L56.3916667,131.878333 C56.3916667,132.436667 55.945,132.995 55.275,132.995 C54.605,132.995 54.1583333,132.548333 54.1583333,131.878333 L54.1583333,123.391667 L45.225,123.391667 L45.225,131.878333 C45.225,132.436667 44.7783333,132.995 44.1083333,132.995 C43.4383333,132.995 42.9916667,132.548333 42.9916667,131.878333 L42.9916667,123.391667 L34.0583333,123.391667 L34.0583333,131.878333 C34.0583333,132.436667 33.6116667,132.995 32.9416667,132.995 C32.2716667,132.995 31.825,132.548333 31.825,131.878333 L31.825,123.391667 L22.8916667,123.391667 L22.8916667,131.878333 C22.8916667,132.436667 22.445,132.995 21.775,132.995 C21.105,132.995 20.6583333,132.548333 20.6583333,131.878333 L20.6583333,123.391667 L11.725,123.391667 L11.725,131.878333 C11.725,132.436667 11.2783333,132.995 10.6083333,132.995 C9.93833333,132.995 9.49166667,132.548333 9.49166667,131.878333 L9.49166667,123.391667 L1.11666667,123.391667 C0.446666667,123.391667 0,122.945 0,122.275 C0,121.605 0.446666667,121.158333 1.11666667,121.158333 L9.49166667,121.158333 L9.49166667,112.225 L1.11666667,112.225 C0.446666667,112.225 0,111.778333 0,111.108333 C0,110.438333 0.446666667,109.991667 1.11666667,109.991667 L9.49166667,109.991667 L9.49166667,101.058333 L1.11666667,101.058333 C0.446666667,101.058333 0,100.611667 0,99.9416667 C0,99.2716667 0.446666667,98.825 1.11666667,98.825 L9.49166667,98.825 L9.49166667,89.8916667 L1.11666667,89.8916667 C0.446666667,89.8916667 0,89.445 0,88.775 C0,88.105 0.446666667,87.6583333 1.11666667,87.6583333 L9.49166667,87.6583333 L9.49166667,78.725 L1.11666667,78.725 C0.446666667,78.725 0,78.2783333 0,77.6083333 C0,76.9383333 0.446666667,76.4916667 1.11666667,76.4916667 L9.49166667,76.4916667 L9.49166667,67.5583333 L1.11666667,67.5583333 C0.446666667,67.5583333 0,67.1116667 0,66.4416667 C0,65.7716667 0.446666667,65.325 1.11666667,65.325 L9.49166667,65.325 L9.49166667,56.3916667 L1.11666667,56.3916667 C0.446666667,56.3916667 0,55.945 0,55.275 C0,54.605 0.446666667,54.1583333 1.11666667,54.1583333 L9.49166667,54.1583333 L9.49166667,45.225 L1.11666667,45.225 C0.446666667,45.225 0,44.7783333 0,44.1083333 C0,43.4383333 0.446666667,42.9916667 1.11666667,42.9916667 L9.49166667,42.9916667 L9.49166667,34.0583333 L1.11666667,34.0583333 C0.446666667,34.0583333 0,33.6116667 0,32.9416667 C0,32.2716667 0.446666667,31.825 1.11666667,31.825 L9.49166667,31.825 L9.49166667,22.8916667 L1.11666667,22.8916667 C0.446666667,22.8916667 0,22.445 0,21.775 C0,21.105 0.446666667,20.6583333 1.11666667,20.6583333 L9.49166667,20.6583333 L9.49166667,11.725 L1.11666667,11.725 C0.446666667,11.725 0,11.2783333 0,10.6083333 C0,9.93833333 0.446666667,9.49166667 1.11666667,9.49166667 L9.49166667,9.49166667 L9.49166667,1.11666667 C9.49166667,0.446666667 9.93833333,0 10.6083333,0 C11.2783333,0 11.725,0.446666667 11.725,1.11666667 L11.725,9.49166667 L20.6583333,9.49166667 L20.6583333,1.11666667 C20.6583333,0.446666667 21.105,0 21.775,0 C22.445,0 22.8916667,0.446666667 22.8916667,1.11666667 L22.8916667,9.49166667 L31.825,9.49166667 L31.825,1.11666667 C31.825,0.446666667 32.2716667,0 32.9416667,0 C33.6116667,0 34.0583333,0.446666667 34.0583333,1.11666667 L34.0583333,9.49166667 L42.9916667,9.49166667 L42.9916667,1.11666667 C42.9916667,0.446666667 43.4383333,0 44.1083333,0 C44.7783333,0 45.225,0.446666667 45.225,1.11666667 L45.225,9.49166667 L54.1583333,9.49166667 L54.1583333,1.11666667 C54.1583333,0.446666667 54.605,0 55.275,0 C55.945,0 56.3916667,0.446666667 56.3916667,1.11666667 L56.3916667,9.49166667 L65.325,9.49166667 L65.325,1.11666667 C65.325,0.446666667 65.7716667,0 66.4416667,0 C67.1116667,0 67.5583333,0.446666667 67.5583333,1.11666667 L67.5583333,9.49166667 L76.4916667,9.49166667 L76.4916667,1.11666667 C76.4916667,0.446666667 76.9383333,0 77.6083333,0 C78.2783333,0 78.725,0.446666667 78.725,1.11666667 L78.725,9.49166667 L87.6583333,9.49166667 L87.6583333,1.11666667 C87.6583333,0.446666667 88.105,0 88.775,0 C89.445,0 89.8916667,0.446666667 89.8916667,1.11666667 L89.8916667,9.49166667 L98.825,9.49166667 L98.825,1.11666667 C98.825,0.446666667 99.2716667,0 99.9416667,0 C100.611667,0 101.058333,0.446666667 101.058333,1.11666667 L101.058333,9.49166667 L109.991667,9.49166667 L109.991667,1.11666667 C109.991667,0.446666667 110.438333,0 111.108333,0 C111.778333,0 112.225,0.446666667 112.225,1.11666667 L112.225,9.49166667 L121.158333,9.49166667 L121.158333,1.11666667 C121.158333,0.446666667 121.605,0 122.275,0 C122.945,0 123.391667,0.446666667 123.391667,1.11666667 L123.391667,9.49166667 L131.878333,9.49166667 C132.548333,9.49166667 132.995,9.93833333 132.995,10.6083333 C132.995,11.2783333 132.436667,11.725 131.878333,11.725 L123.391667,11.725 L123.391667,20.6583333 L131.878333,20.6583333 C132.548333,20.6583333 132.995,21.105 132.995,21.775 C132.995,22.445 132.436667,22.8916667 131.878333,22.8916667 L123.391667,22.8916667 L123.391667,31.825 L131.878333,31.825 C132.548333,31.825 132.995,32.2716667 132.995,32.9416667 C132.995,33.6116667 132.436667,34.0583333 131.878333,34.0583333 L123.391667,34.0583333 L123.391667,42.9916667 L131.878333,42.9916667 C132.548333,42.9916667 132.995,43.4383333 132.995,44.1083333 C132.995,44.7783333 132.436667,45.225 131.878333,45.225 L123.391667,45.225 L123.391667,54.1583333 L131.878333,54.1583333 C132.548333,54.1583333 132.995,54.605 132.995,55.275 C132.995,55.945 132.436667,56.3916667 131.878333,56.3916667 L123.391667,56.3916667 L123.391667,65.325 L131.878333,65.325 C132.548333,65.325 132.995,65.7716667 132.995,66.4416667 C132.995,67.1116667 132.436667,67.5583333 131.878333,67.5583333 L123.391667,67.5583333 L123.391667,76.4916667 L131.878333,76.4916667 C132.548333,76.4916667 132.995,76.9383333 132.995,77.6083333 C132.995,78.2783333 132.436667,78.725 131.878333,78.725 L123.391667,78.725 L123.391667,87.6583333 L131.878333,87.6583333 C132.548333,87.6583333 132.995,88.105 132.995,88.775 C132.995,89.445 132.436667,89.8916667 131.878333,89.8916667 L123.391667,89.8916667 L123.391667,98.825 L131.878333,98.825 C132.548333,98.825 132.995,99.2716667 132.995,99.9416667 C132.995,100.611667 132.436667,101.058333 131.878333,101.058333 L123.391667,101.058333 L123.391667,109.991667 L131.878333,109.991667 C132.548333,109.991667 132.995,110.438333 132.995,111.108333 C132.995,111.778333 132.436667,112.225 131.878333,112.225 L123.391667,112.225 L123.391667,121.158333 L131.878333,121.158333 C132.548333,121.158333 132.995,121.605 132.995,122.275 C132.995,122.945 132.436667,123.391667 131.878333,123.391667 L123.391667,123.391667 L123.391667,131.878333 C123.391667,132.436667 122.945,132.995 122.275,132.995 C121.605,132.995 121.158333,132.548333 121.158333,131.878333 L121.158333,123.391667 L112.225,123.391667 L112.225,131.878333 C112.225,132.436667 111.778333,132.995 111.108333,132.995 C110.438333,132.995 109.991667,132.548333 109.991667,131.878333 L109.991667,123.391667 Z M109.991667,121.158333 L109.991667,112.225 L101.058333,112.225 L101.058333,121.158333 L109.991667,121.158333 Z M112.225,121.158333 L121.158333,121.158333 L121.158333,112.225 L112.225,112.225 L112.225,121.158333 Z M109.991667,109.991667 L109.991667,101.058333 L101.058333,101.058333 L101.058333,109.991667 L109.991667,109.991667 Z M112.225,109.991667 L121.158333,109.991667 L121.158333,101.058333 L112.225,101.058333 L112.225,109.991667 Z M109.991667,98.825 L109.991667,89.8916667 L101.058333,89.8916667 L101.058333,98.825 L109.991667,98.825 Z M112.225,98.825 L121.158333,98.825 L121.158333,89.8916667 L112.225,89.8916667 L112.225,98.825 Z M109.991667,87.6583333 L109.991667,78.725 L101.058333,78.725 L101.058333,87.6583333 L109.991667,87.6583333 Z M112.225,87.6583333 L121.158333,87.6583333 L121.158333,78.725 L112.225,78.725 L112.225,87.6583333 Z M109.991667,76.4916667 L109.991667,67.5583333 L101.058333,67.5583333 L101.058333,76.4916667 L109.991667,76.4916667 Z M112.225,76.4916667 L121.158333,76.4916667 L121.158333,67.5583333 L112.225,67.5583333 L112.225,76.4916667 Z M109.991667,65.325 L109.991667,56.3916667 L101.058333,56.3916667 L101.058333,65.325 L109.991667,65.325 Z M112.225,65.325 L121.158333,65.325 L121.158333,56.3916667 L112.225,56.3916667 L112.225,65.325 Z M109.991667,54.1583333 L109.991667,45.225 L101.058333,45.225 L101.058333,54.1583333 L109.991667,54.1583333 Z M112.225,54.1583333 L121.158333,54.1583333 L121.158333,45.225 L112.225,45.225 L112.225,54.1583333 Z M109.991667,42.9916667 L109.991667,34.0583333 L101.058333,34.0583333 L101.058333,42.9916667 L109.991667,42.9916667 Z M112.225,42.9916667 L121.158333,42.9916667 L121.158333,34.0583333 L112.225,34.0583333 L112.225,42.9916667 Z M109.991667,31.825 L109.991667,22.8916667 L101.058333,22.8916667 L101.058333,31.825 L109.991667,31.825 Z M112.225,31.825 L121.158333,31.825 L121.158333,22.8916667 L112.225,22.8916667 L112.225,31.825 Z M109.991667,20.6583333 L109.991667,11.725 L101.058333,11.725 L101.058333,20.6583333 L109.991667,20.6583333 Z M112.225,20.6583333 L121.158333,20.6583333 L121.158333,11.725 L112.225,11.725 L112.225,20.6583333 Z M98.825,121.158333 L98.825,112.225 L89.8916667,112.225 L89.8916667,121.158333 L98.825,121.158333 Z M98.825,109.991667 L98.825,101.058333 L89.8916667,101.058333 L89.8916667,109.991667 L98.825,109.991667 Z M98.825,98.825 L98.825,89.8916667 L89.8916667,89.8916667 L89.8916667,98.825 L98.825,98.825 Z M98.825,87.6583333 L98.825,78.725 L89.8916667,78.725 L89.8916667,87.6583333 L98.825,87.6583333 Z M98.825,76.4916667 L98.825,67.5583333 L89.8916667,67.5583333 L89.8916667,76.4916667 L98.825,76.4916667 Z M98.825,65.325 L98.825,56.3916667 L89.8916667,56.3916667 L89.8916667,65.325 L98.825,65.325 Z M98.825,54.1583333 L98.825,45.225 L89.8916667,45.225 L89.8916667,54.1583333 L98.825,54.1583333 Z M98.825,42.9916667 L98.825,34.0583333 L89.8916667,34.0583333 L89.8916667,42.9916667 L98.825,42.9916667 Z M98.825,31.825 L98.825,22.8916667 L89.8916667,22.8916667 L89.8916667,31.825 L98.825,31.825 Z M98.825,20.6583333 L98.825,11.725 L89.8916667,11.725 L89.8916667,20.6583333 L98.825,20.6583333 Z M87.6583333,121.158333 L87.6583333,112.225 L78.725,112.225 L78.725,121.158333 L87.6583333,121.158333 Z M87.6583333,109.991667 L87.6583333,101.058333 L78.725,101.058333 L78.725,109.991667 L87.6583333,109.991667 Z M87.6583333,98.825 L87.6583333,89.8916667 L78.725,89.8916667 L78.725,98.825 L87.6583333,98.825 Z M87.6583333,87.6583333 L87.6583333,78.725 L78.725,78.725 L78.725,87.6583333 L87.6583333,87.6583333 Z M87.6583333,76.4916667 L87.6583333,67.5583333 L78.725,67.5583333 L78.725,76.4916667 L87.6583333,76.4916667 Z M87.6583333,65.325 L87.6583333,56.3916667 L78.725,56.3916667 L78.725,65.325 L87.6583333,65.325 Z M87.6583333,54.1583333 L87.6583333,45.225 L78.725,45.225 L78.725,54.1583333 L87.6583333,54.1583333 Z M87.6583333,42.9916667 L87.6583333,34.0583333 L78.725,34.0583333 L78.725,42.9916667 L87.6583333,42.9916667 Z M87.6583333,31.825 L87.6583333,22.8916667 L78.725,22.8916667 L78.725,31.825 L87.6583333,31.825 Z M87.6583333,20.6583333 L87.6583333,11.725 L78.725,11.725 L78.725,20.6583333 L87.6583333,20.6583333 Z M76.4916667,121.158333 L76.4916667,112.225 L67.5583333,112.225 L67.5583333,121.158333 L76.4916667,121.158333 Z M76.4916667,109.991667 L76.4916667,101.058333 L67.5583333,101.058333 L67.5583333,109.991667 L76.4916667,109.991667 Z M76.4916667,98.825 L76.4916667,89.8916667 L67.5583333,89.8916667 L67.5583333,98.825 L76.4916667,98.825 Z M76.4916667,87.6583333 L76.4916667,78.725 L67.5583333,78.725 L67.5583333,87.6583333 L76.4916667,87.6583333 Z M76.4916667,76.4916667 L76.4916667,67.5583333 L67.5583333,67.5583333 L67.5583333,76.4916667 L76.4916667,76.4916667 Z M76.4916667,65.325 L76.4916667,56.3916667 L67.5583333,56.3916667 L67.5583333,65.325 L76.4916667,65.325 Z M76.4916667,54.1583333 L76.4916667,45.225 L67.5583333,45.225 L67.5583333,54.1583333 L76.4916667,54.1583333 Z M76.4916667,42.9916667 L76.4916667,34.0583333 L67.5583333,34.0583333 L67.5583333,42.9916667 L76.4916667,42.9916667 Z M76.4916667,31.825 L76.4916667,22.8916667 L67.5583333,22.8916667 L67.5583333,31.825 L76.4916667,31.825 Z M76.4916667,20.6583333 L76.4916667,11.725 L67.5583333,11.725 L67.5583333,20.6583333 L76.4916667,20.6583333 Z M65.325,121.158333 L65.325,112.225 L56.3916667,112.225 L56.3916667,121.158333 L65.325,121.158333 Z M65.325,109.991667 L65.325,101.058333 L56.3916667,101.058333 L56.3916667,109.991667 L65.325,109.991667 Z M65.325,98.825 L65.325,89.8916667 L56.3916667,89.8916667 L56.3916667,98.825 L65.325,98.825 Z M65.325,87.6583333 L65.325,78.725 L56.3916667,78.725 L56.3916667,87.6583333 L65.325,87.6583333 Z M65.325,76.4916667 L65.325,67.5583333 L56.3916667,67.5583333 L56.3916667,76.4916667 L65.325,76.4916667 Z M65.325,65.325 L65.325,56.3916667 L56.3916667,56.3916667 L56.3916667,65.325 L65.325,65.325 Z M65.325,54.1583333 L65.325,45.225 L56.3916667,45.225 L56.3916667,54.1583333 L65.325,54.1583333 Z M65.325,42.9916667 L65.325,34.0583333 L56.3916667,34.0583333 L56.3916667,42.9916667 L65.325,42.9916667 Z M65.325,31.825 L65.325,22.8916667 L56.3916667,22.8916667 L56.3916667,31.825 L65.325,31.825 Z M65.325,20.6583333 L65.325,11.725 L56.3916667,11.725 L56.3916667,20.6583333 L65.325,20.6583333 Z M54.1583333,121.158333 L54.1583333,112.225 L45.225,112.225 L45.225,121.158333 L54.1583333,121.158333 Z M54.1583333,109.991667 L54.1583333,101.058333 L45.225,101.058333 L45.225,109.991667 L54.1583333,109.991667 Z M54.1583333,98.825 L54.1583333,89.8916667 L45.225,89.8916667 L45.225,98.825 L54.1583333,98.825 Z M54.1583333,87.6583333 L54.1583333,78.725 L45.225,78.725 L45.225,87.6583333 L54.1583333,87.6583333 Z M54.1583333,76.4916667 L54.1583333,67.5583333 L45.225,67.5583333 L45.225,76.4916667 L54.1583333,76.4916667 Z M54.1583333,65.325 L54.1583333,56.3916667 L45.225,56.3916667 L45.225,65.325 L54.1583333,65.325 Z M54.1583333,54.1583333 L54.1583333,45.225 L45.225,45.225 L45.225,54.1583333 L54.1583333,54.1583333 Z M54.1583333,42.9916667 L54.1583333,34.0583333 L45.225,34.0583333 L45.225,42.9916667 L54.1583333,42.9916667 Z M54.1583333,31.825 L54.1583333,22.8916667 L45.225,22.8916667 L45.225,31.825 L54.1583333,31.825 Z M54.1583333,20.6583333 L54.1583333,11.725 L45.225,11.725 L45.225,20.6583333 L54.1583333,20.6583333 Z M42.9916667,121.158333 L42.9916667,112.225 L34.0583333,112.225 L34.0583333,121.158333 L42.9916667,121.158333 Z M42.9916667,109.991667 L42.9916667,101.058333 L34.0583333,101.058333 L34.0583333,109.991667 L42.9916667,109.991667 Z M42.9916667,98.825 L42.9916667,89.8916667 L34.0583333,89.8916667 L34.0583333,98.825 L42.9916667,98.825 Z M42.9916667,87.6583333 L42.9916667,78.725 L34.0583333,78.725 L34.0583333,87.6583333 L42.9916667,87.6583333 Z M42.9916667,76.4916667 L42.9916667,67.5583333 L34.0583333,67.5583333 L34.0583333,76.4916667 L42.9916667,76.4916667 Z M42.9916667,65.325 L42.9916667,56.3916667 L34.0583333,56.3916667 L34.0583333,65.325 L42.9916667,65.325 Z M42.9916667,54.1583333 L42.9916667,45.225 L34.0583333,45.225 L34.0583333,54.1583333 L42.9916667,54.1583333 Z M42.9916667,42.9916667 L42.9916667,34.0583333 L34.0583333,34.0583333 L34.0583333,42.9916667 L42.9916667,42.9916667 Z M42.9916667,31.825 L42.9916667,22.8916667 L34.0583333,22.8916667 L34.0583333,31.825 L42.9916667,31.825 Z M42.9916667,20.6583333 L42.9916667,11.725 L34.0583333,11.725 L34.0583333,20.6583333 L42.9916667,20.6583333 Z M31.825,121.158333 L31.825,112.225 L22.8916667,112.225 L22.8916667,121.158333 L31.825,121.158333 Z M31.825,109.991667 L31.825,101.058333 L22.8916667,101.058333 L22.8916667,109.991667 L31.825,109.991667 Z M31.825,98.825 L31.825,89.8916667 L22.8916667,89.8916667 L22.8916667,98.825 L31.825,98.825 Z M31.825,87.6583333 L31.825,78.725 L22.8916667,78.725 L22.8916667,87.6583333 L31.825,87.6583333 Z M31.825,76.4916667 L31.825,67.5583333 L22.8916667,67.5583333 L22.8916667,76.4916667 L31.825,76.4916667 Z M31.825,65.325 L31.825,56.3916667 L22.8916667,56.3916667 L22.8916667,65.325 L31.825,65.325 Z M31.825,54.1583333 L31.825,45.225 L22.8916667,45.225 L22.8916667,54.1583333 L31.825,54.1583333 Z M31.825,42.9916667 L31.825,34.0583333 L22.8916667,34.0583333 L22.8916667,42.9916667 L31.825,42.9916667 Z M31.825,31.825 L31.825,22.8916667 L22.8916667,22.8916667 L22.8916667,31.825 L31.825,31.825 Z M31.825,20.6583333 L31.825,11.725 L22.8916667,11.725 L22.8916667,20.6583333 L31.825,20.6583333 Z M20.6583333,121.158333 L20.6583333,112.225 L11.725,112.225 L11.725,121.158333 L20.6583333,121.158333 Z M20.6583333,109.991667 L20.6583333,101.058333 L11.725,101.058333 L11.725,109.991667 L20.6583333,109.991667 Z M20.6583333,98.825 L20.6583333,89.8916667 L11.725,89.8916667 L11.725,98.825 L20.6583333,98.825 Z M20.6583333,87.6583333 L20.6583333,78.725 L11.725,78.725 L11.725,87.6583333 L20.6583333,87.6583333 Z M20.6583333,76.4916667 L20.6583333,67.5583333 L11.725,67.5583333 L11.725,76.4916667 L20.6583333,76.4916667 Z M20.6583333,65.325 L20.6583333,56.3916667 L11.725,56.3916667 L11.725,65.325 L20.6583333,65.325 Z M20.6583333,54.1583333 L20.6583333,45.225 L11.725,45.225 L11.725,54.1583333 L20.6583333,54.1583333 Z M20.6583333,42.9916667 L20.6583333,34.0583333 L11.725,34.0583333 L11.725,42.9916667 L20.6583333,42.9916667 Z M20.6583333,31.825 L20.6583333,22.8916667 L11.725,22.8916667 L11.725,31.825 L20.6583333,31.825 Z M20.6583333,20.6583333 L20.6583333,11.725 L11.725,11.725 L11.725,20.6583333 L20.6583333,20.6583333 Z" id="Combined-Shape" opacity="0.25"></path>
                <path d="M127.97,63.0916667 L132.995,66.4416667 L127.97,69.7916667 L127.97,67.5583333 L67.5583333,67.5583333 L67.5583333,131.878333 C67.5583333,132.436667 67.1116667,132.995 66.4416667,132.995 C65.7716667,132.995 65.325,132.548333 65.325,131.878333 L65.325,67.5583333 L1.11666667,67.5583333 C0.446666667,67.5583333 0,67.1116667 0,66.4416667 C0,65.7716667 0.446666667,65.325 1.11666667,65.325 L65.325,65.325 L65.325,5.025 L63.0916667,5.025 L66.4416667,2.13162821e-14 L69.7916667,5.025 L67.5583333,5.025 L67.5583333,65.325 L127.97,65.325 L127.97,63.0916667 Z" id="axis" opacity="0.5"></path>
            </g>
            <path d="M11.1590584,69.4175232 C11.0573331,70.6467572 9.97837743,71.5607836 8.74914345,71.4590584 C7.51990946,71.3573331 6.60588305,70.2783774 6.70760831,69.0491434 C9.66271148,33.3400868 15.2441881,15.6333333 25.125,15.6333333 C29.3597807,15.6333333 31.8421675,20.5655754 34.1758111,30.2814992 C35.8085391,37.0792212 37.1166616,45.0044618 39.260969,60.0144657 C39.4233432,61.151074 40.0318708,65.4277419 40.1714219,66.4051744 C42.5704326,83.2081333 44.0560161,92.0926659 45.9716424,99.7672098 C48.207399,108.724287 50.6782239,113.341667 52.4833333,113.341667 C54.263463,113.341667 56.6793143,108.747754 58.8590606,99.7805556 C60.6930332,92.2358264 61.9529989,84.5414939 64.559416,66.4031735 L64.6060079,66.0789336 C67.2224571,47.8707793 68.4823778,40.1692342 70.3451945,32.4859548 C73.038498,21.3772915 76.0473961,15.6333333 80.9583333,15.6333333 C86.2457712,15.6333333 89.6086128,21.4973631 92.4477084,32.579335 C94.45638,40.4198744 95.8813102,49.0284863 98.3148882,66.4111865 C98.414179,67.1204061 98.7582776,69.5823267 98.8184601,70.012457 C101.103289,86.3423599 102.36694,94.1030342 104.095051,101.101675 C106.10506,109.24197 108.33846,113.341667 109.991667,113.341667 C111.828266,113.341667 114.617524,109.023116 116.983359,101.037238 C119.566248,92.3186916 121.45546,80.175623 122.27909,66.5857277 C122.353707,65.3545508 123.412262,64.4169736 124.643439,64.4915904 C125.874616,64.5662071 126.812193,65.6247621 126.737576,66.855939 C124.941692,96.4880326 118.625503,117.808333 109.991667,117.808333 C105.215331,117.808333 102.296463,112.450372 99.7586239,102.17243 C97.9795447,94.9673729 96.7027775,87.1261441 94.3948831,70.6313901 C94.3346298,70.2007533 93.9905656,67.7390792 93.8913618,67.0304802 C91.4823617,49.8233366 90.0726523,41.3066805 88.1207811,33.6878525 C85.8054914,24.650476 83.1959326,20.1 80.9583333,20.1 C79.2254536,20.1 76.8403292,24.6531801 74.6860987,33.5384101 C72.8702195,41.0280935 71.6209027,48.6648192 69.0272612,66.7142525 L68.9806692,67.0384931 C66.3513303,85.3363287 65.0806388,93.096161 63.1993386,100.83559 C60.4811587,112.017836 57.4360463,117.808333 52.4833333,117.808333 C47.5308941,117.808333 44.4200731,111.994954 41.6379397,100.848936 C39.6718297,92.9721405 38.1711246,83.9971724 35.7495955,67.0364923 C35.6098356,66.0575972 35.0013432,61.7811769 34.8391955,60.6461538 C32.7155076,45.7804855 31.42091,37.9371847 29.8326661,31.3246684 C28.058718,23.9389891 26.1265632,20.1 25.125,20.1 C19.0847213,20.1 13.8717535,36.637691 11.1590584,69.4175232 Z" id="Path-26"></path>
        </g>
    </g>
</svg>