<?xml version="1.0" encoding="UTF-8"?>
<svg width="137px" height="134px" viewBox="0 0 137 134" version="1.1" xmlns="http://www.w3.org/2000/svg" xmlns:xlink="http://www.w3.org/1999/xlink">
    <!-- Generator: Sketch 52.1 (67048) - http://www.bohemiancoding.com/sketch -->
    <title>mastery_math_precalculus</title>
    <desc>Created with Sketch.</desc>
    <g id="mastery_math_precalculus" stroke="none" stroke-width="1" fill="none" fill-rule="evenodd">
        <g id="mastery-math-precalculus" transform="translate(2.000000, 0.000000)" fill="#FFFFFF" fill-rule="nonzero">
            <g id="white" opacity="0.1" transform="translate(3.030769, 0.000000)">
                <path d="M64.1753846,66.9847328 C63.9692308,66.9847328 63.66,66.8816794 63.4538462,66.6755725 C63.1446154,66.4694656 63.0415385,66.0572519 63.1446154,65.6450382 C63.3507692,65.129771 67.1646154,48.7442748 79.4307692,35.0381679 C85.4092308,28.3396947 91.6969231,22.6717557 97.16,19.0648855 C101.283077,16.2824427 106.643077,13.5 109.323077,15.870229 C113.858462,19.889313 104.478462,35.2442748 93.3461538,47.5076336 C81.08,61.2137405 65.2061538,66.778626 64.4846154,66.9847328 C64.3815385,66.9847328 64.2784615,66.9847328 64.1753846,66.9847328 Z M106.746154,17.1068702 C105.2,17.1068702 102.52,18.0343511 98.3969231,20.8167939 C93.14,24.4236641 86.9553846,29.9885496 81.08,36.480916 C71.4938462,47.0954198 67.1646154,59.5648855 65.8246154,64.3053435 C70.36,62.4503817 82.42,56.7824427 91.9030769,46.1679389 C105.2,31.3282443 110.250769,19.3740458 107.983077,17.4160305 C107.673846,17.2099237 107.261538,17.1068702 106.746154,17.1068702 Z" id="Shape"></path>
                <path d="M64.4846154,68.4274809 C64.0723077,68.4274809 63.7630769,68.221374 63.5569231,67.9122137 C63.2476923,67.2938931 55.1046154,52.5572519 55.1046154,34.2137405 C55.1046154,17.6221374 58.4030769,0 64.4846154,0 C70.5661538,0 73.8646154,17.6221374 73.8646154,34.2137405 C73.8646154,52.5572519 65.8246154,67.2938931 65.4123077,67.9122137 C65.2061538,68.221374 64.7938462,68.4274809 64.4846154,68.4274809 Z M64.4846154,2.0610687 C61.4953846,2.0610687 57.1661538,14.3244275 57.1661538,34.2137405 C57.1661538,48.4351145 62.32,60.6984733 64.4846154,65.129771 C66.6492308,60.6984733 71.8030769,48.4351145 71.8030769,34.2137405 C71.7,14.3244275 67.4738462,2.0610687 64.4846154,2.0610687 Z" id="Shape"></path>
                <path d="M52.4246154,68.9427481 C46.1369231,68.9427481 38.2,68.221374 29.9538462,65.5419847 C21.3984615,62.759542 13.6676923,59.3587786 8.10153846,55.8549618 C3.87538462,53.278626 -0.866153846,49.3625954 0.267692308,46.0648855 C2.12307692,40.2938931 19.9553846,42.6641221 35.7261538,47.8167939 C53.2492308,53.4847328 64.6907692,65.7480916 65.2061538,66.2633588 C65.4123077,66.5725191 65.5153846,66.8816794 65.4123077,67.2938931 C65.3092308,67.6030534 65,67.9122137 64.5876923,68.0152672 C64.2784615,68.0152672 59.4338462,68.9427481 52.4246154,68.9427481 Z M9.33846154,44.7251908 C5.11230769,44.7251908 2.63846154,45.4465649 2.22615385,46.6832061 C1.81384615,47.8167939 3.46307692,50.4961832 9.23538462,54.1030534 C14.5953846,57.5038168 22.2230769,60.8015267 30.5723077,63.5839695 C44.0753846,68.0152672 57.3723077,66.8816794 62.2169231,66.2633588 C58.7123077,62.8625954 48.6107692,54.1030534 35.1076923,49.7748092 C24.0784615,46.1679389 15.1107692,44.7251908 9.33846154,44.7251908 Z" id="Shape"></path>
                <path d="M26.8615385,122.633588 C26.0369231,122.633588 25.4184615,122.427481 24.8,122.015267 C21.9138462,119.954198 23.5630769,114.080153 25.4184615,109.442748 C27.8923077,103.362595 32.1184615,96.0458015 37.3753846,88.8320611 C48.1984615,73.889313 63.3507692,66.778626 63.9692308,66.4694656 C64.2784615,66.2633588 64.6907692,66.3664122 65,66.5725191 C65.3092308,66.778626 65.4123077,67.1908397 65.4123077,67.5 C65.3092308,68.221374 63.2476923,84.8129771 52.4246154,99.7557252 C43.8692308,111.60687 32.7369231,122.633588 26.8615385,122.633588 Z M63.1446154,69.2519084 C58.8153846,71.6221374 47.4769231,78.5267176 39.1276923,89.9656489 C33.9738462,97.0763359 29.8507692,104.290076 27.3769231,110.164122 C24.8,116.450382 25.1092308,119.541985 26.0369231,120.263359 C28.5107692,122.015267 39.1276923,114.59542 50.8784615,98.519084 C59.2276923,87.0801527 62.2169231,74.0954198 63.1446154,69.2519084 Z" id="Shape"></path>
                <path d="M102.004615,122.633588 C96.1292308,122.633588 84.9969231,111.60687 76.4415385,99.7557252 C65.6184615,84.9160305 63.4538462,68.221374 63.4538462,67.6030534 C63.4538462,67.1908397 63.5569231,66.8816794 63.8661538,66.6755725 C64.1753846,66.4694656 64.5876923,66.3664122 64.8969231,66.5725191 C65.5153846,66.8816794 80.7707692,73.9923664 91.4907692,88.9351145 C96.7476923,96.148855 100.973846,103.465649 103.447692,109.545802 C105.303077,114.080153 106.952308,120.057252 104.066154,122.118321 C103.550769,122.427481 102.829231,122.633588 102.004615,122.633588 Z M78.0907692,98.6221374 C89.8415385,114.698473 100.458462,122.118321 102.932308,120.366412 C103.963077,119.645038 104.169231,116.553435 101.592308,110.267176 C99.2215385,104.39313 94.9953846,97.1793893 89.8415385,90.0687023 C81.4923077,78.5267176 70.1538462,71.6221374 65.8246154,69.2519084 C66.6492308,74.0954198 69.7415385,87.0801527 78.0907692,98.6221374 Z" id="Shape"></path>
            </g>
            <g id="greynow" opacity="0.25" transform="translate(1.030769, 0.000000)">
                <path d="M67.5153846,68.3244275 C67.2061538,68.3244275 66.8969231,68.221374 66.6907692,67.9122137 C66.2784615,67.3969466 55.7646154,54.4122137 52.5692308,36.2748092 C49.6830769,19.889313 49.8892308,1.95801527 55.7646154,0.927480916 C61.8461538,-0.103053435 68.0307692,16.6946565 70.9169231,32.9770992 C74.1123077,51.1145038 68.6492308,66.9847328 68.4430769,67.6030534 C68.34,67.9122137 68.0307692,68.221374 67.6184615,68.3244275 C67.6184615,68.3244275 67.5153846,68.3244275 67.5153846,68.3244275 Z M56.28,2.98854962 C56.1769231,2.98854962 56.1769231,2.98854962 56.0738462,2.98854962 C53.0846154,3.50381679 51.0230769,16.2824427 54.5276923,35.9656489 C57.0015385,49.980916 64.2169231,61.110687 67.1030769,65.129771 C68.4430769,60.389313 71.3292308,47.4045802 68.8553846,33.389313 C67.3092308,24.7328244 65.0415385,16.7977099 62.4646154,10.9236641 C59.8876923,5.04961832 57.62,2.98854962 56.28,2.98854962 Z" id="Shape"></path>
                <path d="M42.5707692,72.1374046 C39.5815385,72.1374046 36.4892308,71.9312977 33.2938462,71.519084 C24.4292308,70.2824427 16.1830769,68.221374 10.1015385,65.7480916 C5.56615385,63.8931298 0.206153846,61.0076336 0.618461538,57.5038168 C1.13384615,54 7.11230769,52.6603053 11.9569231,52.1450382 C18.4507692,51.4236641 26.9030769,51.7328244 35.7676923,52.9694656 C54.0123077,55.5458015 67.5153846,65.6450382 68.0307692,66.0572519 C68.34,66.2633588 68.4430769,66.6755725 68.4430769,66.9847328 C68.34,67.3969466 68.1338462,67.7061069 67.8246154,67.8091603 C67.2061538,68.0152672 56.4861538,72.1374046 42.5707692,72.1374046 Z M19.4815385,53.7938931 C16.9046154,53.7938931 14.4307692,53.8969466 12.2661538,54.1030534 C5.46307692,54.8244275 2.88615385,56.4732824 2.68,57.7099237 C2.47384615,58.9465649 4.53538462,61.2137405 10.8230769,63.7900763 C16.6984615,66.1603053 24.8415385,68.221374 33.5,69.3549618 C47.6215385,71.3129771 60.4030769,67.9122137 65.1446154,66.4694656 C61.0215385,63.7900763 49.58,56.9885496 35.5615385,54.9274809 C29.8923077,54.2061069 24.3261538,53.7938931 19.4815385,53.7938931 Z" id="Shape"></path>
                <path d="M39.3753846,128.301527 C38.86,128.301527 38.3446154,128.198473 37.9323077,127.992366 C32.4692308,125.312977 37.3138462,108 44.5292308,93.1603053 C52.5692308,76.6717557 66.2784615,66.9847328 66.8969231,66.5725191 C67.2061538,66.3664122 67.6184615,66.3664122 67.9276923,66.4694656 C68.2369231,66.6755725 68.4430769,66.9847328 68.5461538,67.2938931 C68.5461538,68.0152672 69.3707692,84.7099237 61.3307692,101.301527 C57.4138462,109.339695 52.8784615,116.553435 48.7553846,121.5 C45.9723077,124.79771 42.3646154,128.301527 39.3753846,128.301527 Z M66.4846154,69.3549618 C62.6707692,72.4465649 52.6723077,81.2061069 46.3846154,93.9847328 C37.6230769,111.916031 36.0769231,124.79771 38.86,126.137405 C39.9938462,126.652672 42.7769231,125.416031 47.2092308,120.263359 C51.3323077,115.419847 55.6615385,108.30916 59.5784615,100.477099 C65.7630769,87.5954198 66.4846154,74.3015267 66.4846154,69.3549618 Z" id="Shape"></path>
                <path d="M113.075385,115.21374 C110.292308,115.21374 106.684615,113.564885 103.695385,111.812977 C98.0261538,108.515267 91.3261538,103.362595 84.9353846,97.0763359 C71.7415385,84.2977099 66.7938462,68.221374 66.5876923,67.6030534 C66.4846154,67.2938931 66.5876923,66.8816794 66.7938462,66.5725191 C67.1030769,66.2633588 67.4123077,66.1603053 67.8246154,66.2633588 C68.5461538,66.4694656 84.7292308,70.7977099 97.9230769,83.5763359 C109.88,95.1183206 120.290769,109.751908 116.064615,114.080153 C115.343077,114.90458 114.312308,115.21374 113.075385,115.21374 Z M86.3784615,95.6335878 C92.6661538,101.71374 99.2630769,106.866412 104.726154,110.061069 C110.601538,113.461832 113.693846,113.667939 114.518462,112.740458 C116.58,110.576336 110.807692,99.0343511 96.3769231,85.1221374 C86.1723077,75.2290076 73.8030769,70.3854962 69.0615385,68.8396947 C70.9169231,73.5801527 76.0707692,85.740458 86.3784615,95.6335878 Z" id="Shape"></path>
                <path d="M67.8246154,68.0152672 C67.6184615,68.0152672 67.5153846,68.0152672 67.4123077,68.0152672 C67,68.0152672 66.6907692,67.8091603 66.4846154,67.5 C66.2784615,67.1908397 66.2784615,66.778626 66.4846154,66.4694656 C66.8969231,65.851145 76.0707692,51.8358779 92.2538462,43.1793893 C106.890769,35.3473282 124.001538,29.9885496 126.887692,35.3473282 C129.773846,40.7061069 115.652308,51.8358779 101.015385,59.6679389 C86.0692308,67.7061069 70.5046154,68.0152672 67.8246154,68.0152672 Z M121.733846,35.2442748 C116.58,35.2442748 106.272308,38.129771 93.2846154,45.0343511 C80.8123077,51.7328244 72.36,61.9351145 69.4738462,65.9541985 C74.4215385,65.7480916 87.6153846,64.5114504 100.190769,57.8129771 C117.816923,48.4351145 126.578462,38.9541985 125.238462,36.2748092 C124.826154,35.6564885 123.589231,35.2442748 121.733846,35.2442748 Z" id="Shape"></path>
                <path d="M66.3815385,67.2938931 C66.1753846,67.2938931 65.9692308,67.2938931 65.8661538,67.1908397 C65.2476923,66.778626 50.92,58.1221374 41.7461538,42.2519084 C33.3969231,27.8244275 27.4184615,10.9236641 32.5723077,7.9351145 C35.5615385,6.18320611 40.3030769,9.99618321 43.8076923,13.6030534 C48.3430769,18.3435115 53.2907692,25.1450382 57.8261538,32.8740458 C67,48.8473282 67.4123077,65.5419847 67.4123077,66.2633588 C67.4123077,66.6755725 67.2061538,66.9847328 66.8969231,67.1908397 C66.6907692,67.2938931 66.4846154,67.2938931 66.3815385,67.2938931 Z M34.3246154,9.48091603 C34.0153846,9.48091603 33.8092308,9.58396947 33.6030769,9.6870229 C30.9230769,11.2328244 33.3969231,23.9083969 43.3953846,41.221374 C50.5076923,53.5877863 61.1246154,61.5229008 65.1446154,64.4083969 C64.7323077,59.4618321 63.0830769,46.2709924 55.9707692,34.0076336 C51.5384615,26.3816794 46.6938462,19.6832061 42.2615385,15.0458015 C38.4476923,10.9236641 35.7676923,9.48091603 34.3246154,9.48091603 Z" id="Shape"></path>
                <path d="M13.9153846,84.4007634 C13.1938462,84.4007634 12.4723077,84.4007634 11.8538462,84.4007634 C6.90615385,84.1946565 0.927692308,83.2671756 0.103076923,79.8664122 C-1.13384615,73.9923664 15.4615385,67.0877863 31.6446154,63.5839695 C49.6830769,59.7709924 65.66,64.6145038 66.3815385,64.8206107 C66.6907692,64.9236641 67,65.2328244 67.1030769,65.5419847 C67.2061538,65.9541985 67.1030769,66.2633588 66.7938462,66.5725191 C66.2784615,67.0877863 53.6,78.0114504 35.5615385,81.9274809 C27.7276923,83.5763359 20.1,84.4007634 13.9153846,84.4007634 Z M32.0569231,65.6450382 C12.5753846,69.7671756 1.44307692,76.4656489 2.06153846,79.4541985 C2.26769231,80.6908397 5.05076923,82.1335878 11.8538462,82.3396947 C18.2446154,82.5458015 26.4907692,81.721374 35.0461538,79.8664122 C49.0646154,76.8778626 59.9907692,69.3549618 63.9076923,66.3664122 C59.0630769,65.129771 45.9723077,62.6564885 32.0569231,65.6450382 Z" id="Shape"></path>
                <path d="M59.5784615,133.351145 C59.4753846,133.351145 59.3723077,133.351145 59.2692308,133.351145 C55.7646154,132.938931 54.2184615,127.064885 53.4969231,122.221374 C52.5692308,115.729008 52.5692308,107.278626 53.4969231,98.4160305 L54.5276923,98.519084 L53.4969231,98.4160305 C55.4553846,80.0725191 65.0415385,66.3664122 65.4538462,65.7480916 C65.66,65.4389313 66.0723077,65.2328244 66.3815385,65.3358779 C66.7938462,65.3358779 67.1030769,65.6450382 67.2061538,65.9541985 C67.5153846,66.5725191 74.0092308,82.0305344 72.0507692,100.374046 C70.5046154,116.450382 65.5569231,133.351145 59.5784615,133.351145 Z M66.0723077,68.5305344 C63.4953846,72.7557252 57.1046154,84.4007634 55.5584615,98.519084 C54.6307692,107.278626 54.6307692,115.522901 55.5584615,121.912214 C56.4861538,128.610687 58.2384615,131.187023 59.4753846,131.290076 C59.4753846,131.290076 59.5784615,131.290076 59.5784615,131.290076 C62.6707692,131.290076 68.0307692,119.645038 70.0923077,100.064885 C71.6384615,85.9465649 67.7215385,73.1679389 66.0723077,68.5305344 Z" id="Shape"></path>
                <path d="M121.424615,96.2519084 C114.415385,96.2519084 103.076923,92.851145 92.8723077,88.3167939 C76.0707692,80.7938931 65.9692308,67.5 65.5569231,66.8816794 C65.3507692,66.5725191 65.2476923,66.1603053 65.4538462,65.851145 C65.5569231,65.5419847 65.9692308,65.2328244 66.2784615,65.2328244 C67,65.129771 83.6984615,63.7900763 100.5,71.2099237 C115.652308,77.9083969 130.495385,88.110687 128.021538,93.6755725 C127.196923,95.5305344 124.826154,96.2519084 121.424615,96.2519084 Z M68.4430769,67.1908397 C71.6384615,70.9007634 80.7092308,80.5877863 93.6969231,86.3587786 C93.6969231,86.3587786 93.6969231,86.3587786 93.6969231,86.3587786 C111.941538,94.5 124.826154,95.5305344 126.063077,92.851145 C127.3,90.0687023 117.816923,81.2061069 99.5723077,73.1679389 C86.6876923,67.3969466 73.3907692,67.0877863 68.4430769,67.1908397 Z" id="Shape"></path>
            </g>
            <g id="Orange" opacity="0.5" transform="translate(0.000000, 3.000000)">
                <path d="M67.6184615,65.221374 C67.4123077,65.221374 67.1030769,65.1183206 66.8969231,65.0152672 C66.3815385,64.6030534 53.7030769,53.4732824 47.4153846,36.2633588 C44.3230769,27.8129771 42.2615385,19.6717557 41.6430769,13.0763359 C41.1276923,8.12977099 41.2307692,2.04961832 44.5292308,0.916030534 C47.8276923,-0.320610687 51.8476923,4.31679389 54.6307692,8.4389313 C58.3415385,13.9007634 61.9492308,21.5267176 65.0415385,29.8740458 C71.3292308,47.1870229 68.7523077,63.778626 68.6492308,64.3969466 C68.5461538,64.8091603 68.34,65.1183206 68.0307692,65.221374 C67.8246154,65.221374 67.7215385,65.221374 67.6184615,65.221374 Z M45.6630769,2.77099237 C45.56,2.77099237 45.3538462,2.77099237 45.2507692,2.8740458 C44.1169231,3.28625954 42.9830769,6.17175573 43.7046154,12.9732824 C44.3230769,19.3625954 46.3846154,27.4007634 49.3738462,35.6450382 C54.2184615,49.0419847 63.2892308,58.7290076 66.7938462,62.2328244 C67.3092308,57.2862595 67.9276923,44.0954198 63.0830769,30.6984733 C60.0938462,22.4541985 56.4861538,14.9312977 52.8784615,9.67557252 C49.4769231,4.52290076 46.9,2.77099237 45.6630769,2.77099237 Z" id="Shape"></path>
                <path d="M29.8923077,74.2900763 C22.6769231,74.2900763 16.08,73.6717557 10.8230769,72.5381679 C5.97846154,71.5076336 0.206153846,69.5496183 0.103076923,66.0458015 C1.67921232e-15,62.5419847 5.56615385,60.1717557 10.4107692,58.8320611 C16.6984615,56.9770992 25.0476923,55.8435115 34.0153846,55.5343511 C52.4661538,54.9160305 67.4123077,62.4389313 68.0307692,62.7480916 C68.34,62.9541985 68.5461538,63.2633588 68.5461538,63.6755725 C68.5461538,64.0877863 68.34,64.3969466 68.0307692,64.6030534 C67.3092308,65.0152672 52.9815385,73.5687023 34.5307692,74.2900763 C32.9846154,74.2900763 31.4384615,74.2900763 29.8923077,74.2900763 Z M34.0153846,57.6984733 C25.2538462,58.0076336 17.0076923,59.1412214 10.9261538,60.8931298 C4.32923077,62.7480916 2.06153846,64.8091603 2.06153846,66.0458015 C2.06153846,67.2824427 4.53538462,69.1374046 11.1323077,70.5801527 C17.42,71.9198473 25.6661538,72.4351145 34.4276923,72.1259542 C48.6523077,71.610687 60.7123077,66.0458015 65.0415385,63.778626 C60.6092308,61.9236641 48.1369231,57.1832061 34.0153846,57.6984733 Z" id="Shape"></path>
                <path d="M49.8892308,129.217557 C49.58,129.217557 49.2707692,129.217557 48.9615385,129.114504 C45.56,128.187023 45.0446154,122.10687 45.2507692,117.160305 C45.4569231,110.667939 47.0030769,102.320611 49.3738462,93.6641221 C54.5276923,75.9389313 66.3815385,63.9847328 66.8969231,63.4694656 C67.2061538,63.1603053 67.5153846,63.0572519 67.9276923,63.1603053 C68.2369231,63.2633588 68.5461538,63.5725191 68.6492308,63.8816794 C68.8553846,64.6030534 72.5661538,80.8854962 67.4123077,98.610687 C64.9384615,107.164122 61.7430769,115.099237 58.5476923,120.767176 C56.28,124.78626 52.9815385,129.217557 49.8892308,129.217557 Z M51.4353846,94.1793893 C49.0646154,102.629771 47.5184615,110.770992 47.3123077,117.160305 C47.1061538,123.961832 48.3430769,126.744275 49.4769231,127.053435 C50.6107692,127.362595 53.1876923,125.71374 56.5892308,119.839695 C59.7846154,114.274809 62.8769231,106.648855 65.3507692,98.1984733 C69.2676923,84.4923664 67.7215385,71.3015267 66.8969231,66.4580153 C63.7015385,70.1679389 55.3523077,80.4732824 51.4353846,94.1793893 Z" id="Shape"></path>
                <path d="M119.363077,103.557252 C112.766154,103.557252 100.5,97.6832061 89.8830769,90.4694656 C74.6276923,80.2671756 67,65.3244275 66.6907692,64.7061069 C66.4846154,64.3969466 66.5876923,63.9847328 66.7938462,63.6755725 C67,63.3664122 67.3092308,63.1603053 67.7215385,63.2633588 C68.4430769,63.3664122 85.1415385,64.8091603 100.396923,75.1145038 C107.818462,80.1641221 114.312308,85.5229008 118.744615,90.4694656 C122.043077,94.1793893 125.547692,99.1259542 123.589231,102.01145 C122.764615,103.145038 121.321538,103.557252 119.363077,103.557252 Z M69.4738462,65.5305344 C71.9476923,69.7557252 79.2661538,80.8854962 91.0169231,88.8206107 C107.509231,99.9503817 120.084615,103.248092 121.733846,100.774809 C122.455385,99.7442748 121.630769,96.7557252 116.992308,91.7061069 C112.766154,86.9656489 106.375385,81.6068702 99.0569231,76.7633588 C87.4092308,68.8282443 74.3184615,66.2519084 69.4738462,65.5305344 Z" id="Shape"></path>
                <path d="M67.5153846,64.9122137 C67.2061538,64.9122137 66.8969231,64.8091603 66.6907692,64.5 C66.4846154,64.1908397 66.3815385,63.778626 66.5876923,63.4694656 C66.7938462,62.851145 73.3907692,47.4961832 87.9246154,36.1603053 C94.9338462,30.6984733 102.149231,26.1641221 108.127692,23.4847328 C112.663077,21.5267176 118.435385,19.6717557 120.6,22.4541985 C122.764615,25.2366412 119.569231,30.389313 116.58,34.3053435 C112.56,39.4580153 106.478462,45.3320611 99.3661538,50.8969466 C84.8323077,62.2328244 68.34,64.9122137 67.6184615,65.0152672 C67.6184615,64.9122137 67.5153846,64.9122137 67.5153846,64.9122137 Z M116.992308,23.0725191 C115.343077,23.0725191 112.766154,23.6908397 108.952308,25.3396947 C103.076923,27.9160305 96.0676923,32.3473282 89.1615385,37.7061069 C77.9261538,46.4656489 71.4323077,58.110687 69.2676923,62.4389313 C74.1123077,61.4083969 86.8938462,57.9045802 98.1292308,49.1450382 C105.035385,43.7862595 111.013846,38.0152672 114.930769,32.9656489 C119.156923,27.6068702 119.775385,24.6183206 118.950769,23.5877863 C118.744615,23.278626 118.023077,23.0725191 116.992308,23.0725191 Z" id="Shape"></path>
            </g>
            <g id="light-blue" opacity="0.75" transform="translate(7.215385, 1.030534)">
                <path d="M58.96,67.8091603 C58.96,67.8091603 58.96,67.8091603 58.96,67.8091603 C58.2384615,67.8091603 41.4369231,67.5 25.5630769,58.2251908 C17.7292308,53.7938931 10.9261538,48.8473282 6.18461538,44.3129771 C2.68,40.8091603 -1.23692308,36.0687023 0.515384615,33.0801527 C3.50461538,27.8244275 20.5123077,33.8015267 34.84,42.148855 C50.8169231,51.3206107 59.4753846,65.6450382 59.7846154,66.2633588 C59.9907692,66.5725191 59.9907692,66.9847328 59.7846154,67.2938931 C59.6815385,67.6030534 59.2692308,67.8091603 58.96,67.8091603 Z M5.36,33.0801527 C3.71076923,33.0801527 2.68,33.389313 2.37076923,34.110687 C1.75230769,35.1412214 2.78307692,38.0267176 7.73076923,42.7671756 C12.3692308,47.1984733 19.0692308,52.0419847 26.6969231,56.4732824 C39.0661538,63.5839695 52.1569231,65.2328244 57.1046154,65.6450382 C54.3215385,61.6259542 46.2815385,51.0114504 33.9123077,43.9007634 C20.7184615,36.3778626 10.3076923,33.0801527 5.36,33.0801527 Z" id="Shape"></path>
                <path d="M11.4415385,112.843511 C10.1015385,112.843511 9.07076923,112.431298 8.34923077,111.709924 C5.97846154,109.133588 8.76153846,103.671756 11.5446154,99.5496183 C15.1523077,94.0877863 20.9246154,87.8015267 27.5215385,81.8244275 C41.2307692,69.4580153 57.62,65.6450382 58.2384615,65.5419847 C58.6507692,65.4389313 58.96,65.5419847 59.2692308,65.851145 C59.4753846,66.1603053 59.5784615,66.4694656 59.4753846,66.8816794 C59.2692308,67.5 53.7030769,83.370229 40.0969231,95.7366412 C29.8923077,104.805344 17.7292308,112.843511 11.4415385,112.843511 Z M28.9646154,83.370229 C22.4707692,89.2442748 16.9046154,95.4274809 13.2969231,100.683206 C9.48307692,106.351145 9.07076923,109.339695 9.89538462,110.267176 C11.9569231,112.534351 23.8107692,107.484733 38.6538462,94.1908397 C49.2707692,84.6068702 54.94,72.6526718 56.7953846,68.0152672 C52.0538462,69.4580153 39.4784615,73.7862595 28.9646154,83.370229 Z" id="Shape"></path>
                <path d="M85.0384615,128.71374 C82.0492308,128.71374 78.4415385,125.003817 75.8646154,121.603053 C71.8446154,116.450382 67.6184615,109.133588 64.0107692,100.889313 C64.0107692,100.889313 64.0107692,100.889313 64.0107692,100.889313 C56.4861538,84.0916031 57.9292308,67.3969466 58.0323077,66.6755725 C58.0323077,66.2633588 58.3415385,65.9541985 58.6507692,65.851145 C58.96,65.7480916 59.3723077,65.7480916 59.6815385,65.9541985 C60.1969231,66.3664122 73.5969231,76.4656489 81.1215385,93.3664122 C87.9246154,108.515267 92.0476923,125.931298 86.4815385,128.40458 C85.9661538,128.610687 85.4507692,128.71374 85.0384615,128.71374 Z M65.7630769,100.064885 C69.3707692,108.103053 73.4938462,115.316794 77.4107692,120.263359 C81.6369231,125.622137 84.42,126.961832 85.4507692,126.446565 C88.2338462,125.209924 87.1,112.328244 78.9569231,94.0877863 C73.1846154,81.1030534 63.4953846,72.0343511 59.7846154,68.8396947 C59.6815385,73.7862595 59.9907692,87.0801527 65.7630769,100.064885 Z" id="Shape"></path>
                <path d="M86.0692308,72.9618321 C70.9169231,72.9618321 59.0630769,68.0152672 58.5476923,67.7061069 C58.2384615,67.6030534 57.9292308,67.1908397 57.9292308,66.8816794 C57.9292308,66.4694656 58.0323077,66.1603053 58.3415385,65.9541985 C58.96,65.5419847 72.6692308,55.9580153 91.0169231,54 C99.8815385,53.0725191 108.436923,53.0725191 114.827692,54 C119.672308,54.721374 125.650769,56.2671756 125.96,59.7709924 C126.578462,65.7480916 109.364615,70.9007634 92.8723077,72.6526718 C90.6046154,72.8587786 88.3369231,72.9618321 86.0692308,72.9618321 Z M61.2276923,66.5725191 C65.8661538,68.221374 78.5446154,72.0343511 92.7692308,70.5916031 C112.56,68.5305344 124.310769,62.9656489 124.001538,59.9770992 C123.898462,58.740458 121.321538,56.9885496 114.621538,56.0610687 C108.333846,55.1335878 99.9846154,55.1335878 91.2230769,56.0610687 C76.9984615,57.6068702 65.4538462,63.9961832 61.2276923,66.5725191 Z" id="Shape"></path>
                <path d="M58.6507692,67.6030534 C58.5476923,67.6030534 58.5476923,67.6030534 58.4446154,67.6030534 C58.0323077,67.5 57.8261538,67.2938931 57.7230769,66.8816794 C57.5169231,66.1603053 52.6723077,50.1870229 56.4861538,32.1526718 C58.3415385,23.3931298 60.9184615,15.3549618 63.8046154,9.48091603 C65.9692308,5.04961832 69.2676923,-0.103053435 72.6692308,0.618320611 C76.0707692,1.33969466 76.9984615,7.41984733 77.2046154,12.3664122 C77.4107692,18.8587786 76.5861538,27.3091603 74.6276923,36.0687023 C70.8138462,54.1030534 59.7846154,66.778626 59.3723077,67.2938931 C59.2692308,67.5 58.96,67.6030534 58.6507692,67.6030534 Z M72.0507692,2.67938931 C70.8138462,2.67938931 68.4430769,4.63740458 65.66,10.4083969 C62.8769231,16.1793893 60.3,24.0114504 58.4446154,32.6679389 C55.4553846,46.5801527 57.9292308,59.6679389 59.1661538,64.4083969 C62.1553846,60.4923664 69.7830769,49.5687023 72.6692308,35.6564885 C74.5246154,27.1030534 75.3492308,18.8587786 75.1430769,12.4694656 C74.9369231,5.66793893 73.3907692,2.98854962 72.2569231,2.67938931 C72.1538462,2.67938931 72.1538462,2.67938931 72.0507692,2.67938931 Z" id="Shape"></path>
            </g>
            <g id="dark-blue" transform="translate(4.000000, 9.000000)">
                <path d="M75.4723077,60.148855 C68.4630769,60.148855 63.6184615,59.221374 63.2061538,59.1183206 C62.7938462,59.0152672 62.5876923,58.8091603 62.3815385,58.3969466 C62.2784615,58.0877863 62.3815385,57.6755725 62.5876923,57.3664122 C63.1030769,56.851145 74.5446154,44.5877863 92.0676923,38.9198473 C107.838462,33.7671756 125.670769,31.5 127.526154,37.1679389 C129.381538,42.9389313 113.610769,51.4923664 97.84,56.6450382 C89.6969231,59.4274809 81.76,60.148855 75.4723077,60.148855 Z M65.68,57.3664122 C70.5246154,57.9847328 83.8215385,59.1183206 97.3246154,54.6870229 C116.290769,48.5038168 126.598462,40.6717557 125.670769,37.7862595 C124.743077,34.9007634 111.755385,34.6946565 92.7892308,40.7748092 C79.2861538,45.3091603 69.1846154,53.9656489 65.68,57.3664122 Z" id="Shape"></path>
                <path d="M63.7215385,59.1183206 C63.6184615,59.1183206 63.5153846,59.1183206 63.3092308,59.0152672 C62.6907692,58.8091603 47.0230769,52.7290076 35.1692308,38.610687 C24.5523077,25.9351145 15.6876923,10.3740458 20.3261538,6.45801527 C24.9646154,2.54198473 38.7769231,13.980916 49.4969231,26.6564885 C61.3507692,40.7748092 64.5461538,57.1603053 64.7523077,57.8816794 C64.8553846,58.2938931 64.6492308,58.6030534 64.4430769,58.9122137 C64.1338462,59.0152672 63.9276923,59.1183206 63.7215385,59.1183206 Z M22.8,7.69465649 C22.2846154,7.69465649 21.9753846,7.79770992 21.6661538,8.00381679 C19.2953846,9.96183206 23.9338462,22.019084 36.8184615,37.3740458 C45.9923077,48.2977099 57.7430769,54.3778626 62.2784615,56.3358779 C61.0415385,51.5954198 57.1246154,38.9198473 47.9507692,27.9961832 C36.5092308,14.4961832 26.5107692,7.69465649 22.8,7.69465649 Z" id="Shape"></path>
                <path d="M8.06,85.8091603 C4.24615385,85.8091603 1.66923077,84.9847328 0.844615385,83.0267176 C-1.42307692,77.3587786 13.7292308,67.7748092 29.0876923,61.5916031 C46.1984615,54.6870229 62.7938462,56.6450382 63.5153846,56.7480916 C63.9276923,56.7480916 64.2369231,57.0572519 64.34,57.3664122 C64.4430769,57.6755725 64.4430769,58.0877863 64.2369231,58.3969466 C63.8246154,58.9122137 53.2076923,72 36.0969231,78.8015267 C25.9953846,82.8206107 15.0692308,85.8091603 8.06,85.8091603 Z M56.9184615,58.5 C50.5276923,58.5 40.1169231,59.3244275 29.8092308,63.4465649 C11.3584615,70.8664122 1.56615385,79.4198473 2.7,82.2022901 C3.83384615,84.9847328 16.8215385,84.3664122 35.2723077,76.8435115 C48.4661538,71.4847328 57.8461538,62.1068702 61.2476923,58.5 C60.1138462,58.5 58.6707692,58.5 56.9184615,58.5 Z" id="Shape"></path>
                <path d="M68.1538462,125.381679 C64.7523077,125.381679 62.2784615,119.919847 60.8353846,115.385496 C58.7738462,109.20229 57.3307692,100.854962 56.7123077,91.889313 C55.4753846,73.5458015 62.4846154,58.2938931 62.7938462,57.6755725 C63,57.3664122 63.3092308,57.1603053 63.6184615,57.0572519 C63.9276923,57.0572519 64.34,57.1603053 64.5461538,57.5725191 C64.9584615,58.1908397 74.0292308,72.2061069 75.2661538,90.6526718 C76.4,107.244275 74.4415385,125.072519 68.36,125.484733 C68.2569231,125.381679 68.2569231,125.381679 68.1538462,125.381679 Z M58.7738462,91.7862595 C59.3923077,100.545802 60.8353846,108.687023 62.7938462,114.767176 C64.8553846,121.259542 67.02,123.423664 68.2569231,123.320611 C71.2461538,123.114504 74.6476923,110.645038 73.3076923,90.7557252 C72.2769231,76.5343511 66.2984615,64.6832061 63.9276923,60.4580153 C62.0723077,64.9923664 57.7430769,77.5648855 58.7738462,91.7862595 Z" id="Shape"></path>
                <path d="M117.218462,78.5954198 C110.724615,78.5954198 102.272308,77.3587786 93.6138462,75.1946565 C75.7815385,70.7633588 63.5153846,59.3244275 63,58.9122137 C62.6907692,58.7061069 62.5876923,58.2938931 62.6907692,57.8816794 C62.7938462,57.4694656 63.1030769,57.2633588 63.4123077,57.1603053 C64.1338462,56.9541985 80.3169231,52.7290076 98.1492308,57.1603053 C106.807692,59.3244275 114.847692,62.2099237 120.62,65.3015267 C124.949231,67.6717557 130,71.0725191 129.175385,74.4732824 C128.350769,77.8740458 122.166154,78.5954198 117.218462,78.5954198 C117.218462,78.5954198 117.218462,78.5954198 117.218462,78.5954198 Z M65.8861538,58.7061069 C69.7,61.7977099 80.3169231,69.8358779 94.1292308,73.2366412 C102.684615,75.4007634 110.827692,76.5343511 117.218462,76.5343511 C117.218462,76.5343511 117.218462,76.5343511 117.218462,76.5343511 C124.021538,76.5343511 126.804615,75.1946565 127.113846,73.9580153 C127.423077,72.8244275 125.670769,70.2480916 119.589231,67.0534351 C113.92,64.0648855 106.189231,61.1793893 97.6338462,59.1183206 C83.8215385,55.6145038 70.7307692,57.6755725 65.8861538,58.7061069 Z" id="Shape"></path>
                <path d="M63.4123077,58.9122137 C63.2061538,58.9122137 63,58.8091603 62.8969231,58.7061069 C62.5876923,58.5 62.3815385,58.1908397 62.3815385,57.778626 C62.3815385,57.0572519 63.3092308,40.3625954 73.1015385,24.6984733 C81.8630769,10.5801527 94.0261538,-2.61068702 99.18,0.583969466 C104.333846,3.77862595 97.7369231,20.4732824 88.9753846,34.5916031 C79.1830769,50.1526718 64.5461538,58.3969466 63.9276923,58.7061069 C63.8246154,58.8091603 63.6184615,58.9122137 63.4123077,58.9122137 Z M97.3246154,2.23282443 C95.8815385,2.23282443 93.2015385,3.57251908 89.1815385,7.38549618 C84.5430769,11.8167939 79.4923077,18.3091603 74.8538462,25.8320611 C67.3292308,37.889313 65.1646154,50.9770992 64.6492308,55.9236641 C68.7723077,53.2442748 79.6984615,45.6183206 87.2230769,33.5610687 C97.7369231,16.6603053 100.726154,3.98473282 98.1492308,2.4389313 C97.9430769,2.33587786 97.6338462,2.23282443 97.3246154,2.23282443 Z" id="Shape"></path>
            </g>
        </g>
    </g>
</svg>