<?xml version="1.0" encoding="utf-8"?>
<!-- Generator: Adobe Illustrator 19.0.0, SVG Export Plug-In . SVG Version: 6.00 Build 0)  -->
<svg version="1.1" id="Layer_1" xmlns="http://www.w3.org/2000/svg" xmlns:xlink="http://www.w3.org/1999/xlink" x="0px" y="0px"
	 viewBox="0 0 22.7 26.1" style="enable-background:new 0 0 22.7 26.1;" xml:space="preserve">
<style type="text/css">
	.st0{fill:none;stroke:#D1D5D7;stroke-miterlimit:10;}
	.st1{fill:none;stroke:#D1D5D7;stroke-linecap:round;stroke-linejoin:round;stroke-miterlimit:10;}
	.st2{fill:#F36E4A;}
	.st3{fill:none;stroke:#F36E4A;stroke-miterlimit:10;}
	.st4{fill:none;stroke:#2486C4;stroke-miterlimit:10;}
</style>
<g>
	<polyline id="XMLID_4_" class="st0" points="11.5,6 11.5,3.2 11.5,0 	"/>
	<path class="st1" d="M16.2,1.6c0,0-0.4-0.2-0.9-0.4s-1.2-0.3-1.8,0c-0.6,0.2-1,0.8-1.3,1.3s-0.4,0.9-0.4,0.9s0.4,0.2,0.9,0.4
		c0.5,0.2,1.2,0.3,1.8,0c0.6-0.2,1-0.8,1.3-1.3C16.1,2.1,16.2,1.6,16.2,1.6z"/>
	<g>
		<path id="XMLID_38_" class="st2" d="M14.4,6.2c0.3,0,0.7,0,1,0.1c1.3,0.3,2.3,1,3,2c0.7,1.1,0.9,2.5,0.6,4.1
			c-0.3,1.6-1.2,3.2-2.3,4.3c-0.9,0.9-2,1.5-3.1,1.5c-0.2,0-0.4,0-0.6-0.1c-0.1,0-0.2,0-0.3-0.1S12.4,18,12.3,18
			c-0.2-0.1-0.4-0.1-0.5-0.1c-0.2,0-0.4,0-0.5,0.1c-0.1,0-0.2,0.1-0.3,0.1c-0.1,0-0.2,0.1-0.3,0.1c-0.2,0-0.4,0.1-0.6,0.1
			c-1.1,0-2.2-0.6-3.1-1.5c-1.1-1.1-2-2.7-2.3-4.3c-0.3-1.6-0.1-3,0.6-4.1c0.7-1.1,1.7-1.8,3-2c0.3-0.1,0.7-0.1,1-0.1
			c0.1,0,0.3,0,0.4,0c0.5,0,0.9,0.2,1.3,0.3c0.2,0.1,0.5,0.2,0.8,0.2c0.3,0,0.5-0.1,0.8-0.2c0.4-0.2,0.9-0.3,1.3-0.3
			C14.1,6.2,14.2,6.2,14.4,6.2 M14.4,5.2c-0.2,0-0.3,0-0.5,0c-0.6,0.1-1.1,0.2-1.6,0.4c-0.1,0.1-0.3,0.1-0.4,0.1
			c-0.1,0-0.3,0-0.4-0.1c-0.5-0.2-1.1-0.4-1.6-0.4c-0.2,0-0.3,0-0.5,0c-0.4,0-0.8,0-1.2,0.1C6.5,5.6,5.2,6.5,4.4,7.8
			c-0.8,1.3-1.1,3-0.7,4.8c0.4,1.8,1.3,3.6,2.6,4.8c1.2,1.2,2.5,1.8,3.8,1.8c0.3,0,0.5,0,0.8-0.1c0.1,0,0.3-0.1,0.4-0.1
			c0.1,0,0.3-0.1,0.4-0.1c0,0,0.1,0,0.1,0c0,0,0.1,0,0.1,0c0.1,0.1,0.3,0.1,0.4,0.1c0.1,0,0.3,0.1,0.4,0.1c0.3,0.1,0.5,0.1,0.8,0.1
			c1.3,0,2.7-0.6,3.8-1.8c1.3-1.3,2.2-3,2.6-4.8c0.4-1.8,0.1-3.5-0.7-4.8c-0.8-1.3-2.1-2.2-3.6-2.5C15.2,5.2,14.8,5.2,14.4,5.2
			L14.4,5.2z"/>
	</g>
	<path class="st3" d="M6.8,11.6C6.6,10.7,6.6,9.9,7,9.3c0.3-0.6,0.9-1,1.6-1.2"/>
	<path id="XMLID_3_" class="st4" d="M22.7,25.5c-1.7,0-3.2-1.4-3.2-3.1v0.1c0-1.7,1.6-3,3.2-3H3.3c-1.7,0-2.8,1.3-2.8,2.9v0.1
		c0,1.7,1.1,3,2.8,3H22.7z"/>
	<path class="st4" d="M9.3,19.6c-1.7,0-3,1.3-3,3v0c0,1.7,1.3,3,3,3"/>
	<line id="XMLID_2_" class="st0" x1="10" y1="21.5" x2="14" y2="21.5"/>
	<line id="XMLID_1_" class="st0" x1="14" y1="23.5" x2="18" y2="23.5"/>
</g>
</svg>
