<?xml version="1.0" encoding="UTF-8"?>
<svg width="1400px" height="1400px" viewBox="0 0 1400 1400" version="1.1" xmlns="http://www.w3.org/2000/svg" xmlns:xlink="http://www.w3.org/1999/xlink">
    <!-- Generator: Sketch 50.2 (55047) - http://www.bohemiancoding.com/sketch -->
    <title>book_on_grid</title>
    <desc>Created with Sketch.</desc>
    <defs></defs>
    <g id="book_on_grid" stroke="none" stroke-width="1" fill="none" fill-rule="evenodd">
        <g id="line-grid" opacity="0.25" transform="translate(732.905799, 624.218210) rotate(-49.000000) translate(-732.905799, -624.218210) translate(-223.094201, -393.281790)" stroke="#FFFFFF" stroke-linecap="square" stroke-width="2">
            <path d="M1910.5,4.58092509 L1910.5,2032.67694" id="Line-2-Copy"></path>
            <path d="M1827.5,4.58092509 L1827.5,2032.67694" id="Line-2-Copy-22"></path>
            <path d="M1744.5,4.58092509 L1744.5,2032.67694" id="Line-2-Copy-21"></path>
            <path d="M1661.5,4.58092509 L1661.5,2032.67694" id="Line-2-Copy-11"></path>
            <path d="M1578.5,4.58092509 L1578.5,2032.67694" id="Line-2-Copy-12"></path>
            <path d="M1495.5,4.58092509 L1495.5,2032.67694" id="Line-2-Copy-13"></path>
            <path d="M1412.5,4.58092509 L1412.5,2032.67694" id="Line-2-Copy-15"></path>
            <path d="M1329.5,4.58092509 L1329.5,2032.67694" id="Line-2-Copy-16"></path>
            <path d="M1246.5,4.58092509 L1246.5,2032.67694" id="Line-2-Copy-17"></path>
            <path d="M1163.5,4.58092509 L1163.5,2032.67694" id="Line-2-Copy-18"></path>
            <path d="M1080.5,4.58092509 L1080.5,2032.67694" id="Line-2-Copy-19"></path>
            <path d="M997.5,4.58092509 L997.5,2032.67694" id="Line-2-Copy-14"></path>
            <path d="M914.5,4.58092509 L914.5,2032.67694" id="Line-2-Copy-9"></path>
            <path d="M831.5,4.58092509 L831.5,2032.67694" id="Line-2-Copy-10"></path>
            <path d="M748.5,4.58092509 L748.5,2032.67694" id="Line-2-Copy-3"></path>
            <path d="M665.5,4.58092509 L665.5,2032.67694" id="Line-2-Copy-4"></path>
            <path d="M582.5,4.58092509 L582.5,2032.67694" id="Line-2-Copy-5"></path>
            <path d="M499.5,4.58092509 L499.5,2032.67694" id="Line-2-Copy-2"></path>
            <path d="M416.5,4.58092509 L416.5,2032.67694" id="Line-2-Copy-6"></path>
            <path d="M333.5,4.58092509 L333.5,2032.67694" id="Line-2-Copy-7"></path>
            <path d="M250.5,4.58092509 L250.5,2032.67694" id="Line-2-Copy-8"></path>
            <path d="M167.5,4.58092509 L167.5,2032.67694" id="Line-2-Copy-20"></path>
            <path d="M84.5,4.58092509 L84.5,2032.67694" id="Line-2-Copy-23"></path>
            <path d="M1.5,4.58092509 L1.5,2032.67694" id="Line-2-Copy-24"></path>
        </g>
        <g id="line-grid" opacity="0.25" transform="translate(732.000000, 763.000000) rotate(-90.000000) translate(-732.000000, -763.000000) translate(-58.000000, 34.000000)" stroke="#FFFFFF" stroke-linecap="square" stroke-width="2">
            <path d="M1495.5,3.28205837 L1495.5,1456.33562" id="Line-2-Copy-11"></path>
            <path d="M1412.5,3.28205837 L1412.5,1456.33562" id="Line-2-Copy-12"></path>
            <path d="M1329.5,3.28205837 L1329.5,1456.33562" id="Line-2-Copy-13"></path>
            <path d="M1246.5,3.28205837 L1246.5,1456.33562" id="Line-2-Copy-15"></path>
            <path d="M1163.5,3.28205837 L1163.5,1456.33562" id="Line-2-Copy-16"></path>
            <path d="M1080.5,3.28205837 L1080.5,1456.33562" id="Line-2-Copy-17"></path>
            <path d="M997.5,3.28205837 L997.5,1456.33562" id="Line-2-Copy-18"></path>
            <path d="M914.5,3.28205837 L914.5,1456.33562" id="Line-2-Copy-19"></path>
            <path d="M831.5,3.28205837 L831.5,1456.33562" id="Line-2-Copy-14"></path>
            <path d="M748.5,3.28205837 L748.5,1456.33562" id="Line-2-Copy-9"></path>
            <path d="M665.5,3.28205837 L665.5,1456.33562" id="Line-2-Copy-10"></path>
            <path d="M582.5,3.28205837 L582.5,1456.33562" id="Line-2-Copy-3"></path>
            <path d="M499.5,3.28205837 L499.5,1456.33562" id="Line-2-Copy-4"></path>
            <path d="M416.5,3.28205837 L416.5,1456.33562" id="Line-2-Copy-5"></path>
            <path d="M333.5,3.28205837 L333.5,1456.33562" id="Line-2-Copy-2"></path>
            <path d="M250.5,3.28205837 L250.5,1456.33562" id="Line-2-Copy-6"></path>
            <path d="M167.5,3.28205837 L167.5,1456.33562" id="Line-2-Copy-7"></path>
        </g>
        <g id="shadow" transform="translate(432.000000, 669.000000)" fill="#000000" fill-rule="nonzero" opacity="0.25">
            <path d="M255.796203,130.574236 L170.684854,130.574236 C154.749112,130.574236 139.537722,125.084821 127.22374,114.837913 L2.0919485,10.3560537 C-0.262195182,8.3432683 -0.624371133,4.6836585 1.3675966,2.30491214 C2.45412446,1.02404871 4.08391624,0.292126747 5.71370802,0.109146257 L106.760799,0.109146257 L255.796203,130.574236 Z" id="Shape"></path>
        </g>
        <g id="Group-3" transform="translate(523.000000, 598.000000)" fill-rule="nonzero">
            <g id="Index">
                <g id="Group" transform="translate(133.734118, 27.414141)" fill="#FFFFFF">
                    <path d="M104.645565,52.6603175 L44.280075,11.047619 L49.702125,11.047619 L39.219495,0.368253968 L1.265145,0.368253968 L11.747775,11.047619 L17.169825,11.047619 L38.67729,52.4761905 L28.19466,52.4761905 L38.67729,63.1555556 L76.812375,63.1555556 L66.329745,52.4761905 L59.28108,52.4761905 L56.02785,46.215873 L75.366495,46.215873 L84.403245,52.4761905 L77.35458,52.4761905 L87.83721,63.1555556 L125.610825,63.1555556 L115.128195,52.4761905 L104.645565,52.4761905 L104.645565,52.6603175 Z M51.148005,37.1936508 L45.18375,25.5936508 L62.17284,37.1936508 L51.148005,37.1936508 Z" id="Shape"></path>
                    <path d="M125.610825,64.2603175 L87.47574,64.2603175 C87.295005,64.2603175 86.933535,64.0761905 86.7528,64.0761905 L76.27017,53.3968254 C76.089435,53.2126984 75.9087,52.6603175 76.089435,52.4761905 C76.27017,52.2920635 76.63164,51.9238095 76.99311,51.9238095 L81.150015,51.9238095 L74.82429,47.5047619 L57.292995,47.5047619 L59.64255,51.9238095 L66.14901,51.9238095 C66.329745,51.9238095 66.691215,52.1079365 66.87195,52.1079365 L77.35458,62.7873016 C77.535315,62.9714286 77.71605,63.5238095 77.535315,63.7079365 C77.35458,64.0761905 76.99311,64.2603175 76.63164,64.2603175 L38.496555,64.2603175 C38.31582,64.2603175 37.95435,64.0761905 37.773615,64.0761905 L27.290985,53.3968254 C27.11025,53.2126984 26.929515,52.6603175 27.11025,52.4761905 C27.290985,52.1079365 27.652455,51.9238095 28.013925,51.9238095 L37.050675,51.9238095 L16.62762,12.3365079 L11.747775,12.3365079 C11.56704,12.3365079 11.20557,12.152381 11.024835,12.152381 L0.542205,1.47301587 C0.36147,1.28888889 0.180735,0.736507937 0.36147,0.552380952 C0.542205,0.184126984 0.903675,-1.13686838e-13 1.265145,-1.13686838e-13 L39.40023,-1.13686838e-13 C39.580965,-1.13686838e-13 39.942435,0.184126984 40.12317,0.184126984 L50.6058,10.8634921 C50.786535,11.047619 50.96727,11.6 50.786535,11.784127 C50.6058,11.968254 50.24433,12.3365079 49.88286,12.3365079 L47.35257,12.3365079 L105.007035,51.9238095 L115.128195,51.9238095 C115.30893,51.9238095 115.6704,52.1079365 115.851135,52.1079365 L126.333765,62.7873016 C126.5145,62.9714286 126.695235,63.5238095 126.5145,63.7079365 C126.333765,64.0761905 125.972295,64.2603175 125.610825,64.2603175 Z M88.017945,62.4190476 L123.442005,62.4190476 L114.766725,53.5809524 L104.645565,53.5809524 C104.46483,53.5809524 104.284095,53.5809524 104.10336,53.3968254 L43.73787,11.968254 C43.3764,11.784127 43.195665,11.231746 43.3764,10.8634921 C43.557135,10.4952381 43.918605,10.1269841 44.280075,10.1269841 L47.533305,10.1269841 L38.858025,1.28888889 L3.433965,1.28888889 L12.109245,10.1269841 L17.169825,10.1269841 C17.531295,10.1269841 17.892765,10.3111111 17.892765,10.6793651 L39.219495,52.1079365 C39.40023,52.4761905 39.40023,52.6603175 39.219495,53.0285714 C39.03876,53.2126984 38.67729,53.3968254 38.496555,53.3968254 L30.182745,53.3968254 L38.858025,62.2349206 L74.46282,62.2349206 L65.78754,53.3968254 L59.100345,53.3968254 C58.738875,53.3968254 58.377405,53.2126984 58.377405,52.8444444 L55.124175,46.584127 C54.94344,46.215873 54.94344,46.031746 55.124175,45.6634921 C55.30491,45.2952381 55.66638,45.2952381 55.847115,45.2952381 L75.18576,45.2952381 C75.366495,45.2952381 75.54723,45.2952381 75.727965,45.4793651 L84.764715,51.7396825 C85.126185,51.9238095 85.30692,52.4761905 85.126185,52.8444444 C84.94545,53.2126984 84.58398,53.5809524 84.22251,53.5809524 L79.342665,53.5809524 L88.017945,62.4190476 Z M61.992105,38.1142857 L50.96727,38.1142857 C50.6058,38.1142857 50.24433,37.9301587 50.24433,37.5619048 L44.280075,25.9619048 C44.09934,25.5936508 44.09934,25.0412698 44.46081,24.8571429 C44.82228,24.4888889 45.18375,24.4888889 45.54522,24.8571429 L62.353575,36.4571429 C62.715045,36.6412698 62.89578,37.1936508 62.715045,37.5619048 C62.89578,37.9301587 62.53431,38.1142857 61.992105,38.1142857 Z M51.69021,36.2730159 L59.100345,36.2730159 L47.533305,28.3555556 L51.69021,36.2730159 Z" id="Shape"></path>
                </g>
                <path d="M349.915973,199.656566 C349.915973,199.656566 330.524057,180.180156 348.284878,128.181818 L173.93886,128.181818 C173.93886,128.181818 145.122834,139.022461 144.579136,155.559035 C144.579136,155.559035 136.786123,172.095609 155.634341,190.102101 C155.634341,190.102101 159.983929,197.819169 173.757627,198.002908 L349.915973,199.656566 Z" id="Shape" fill="#FFFFFF"></path>
                <g id="Group" transform="translate(134.890171, 105.919192)" fill="#E6E7E8">
                    <path d="M24.1411006,37.2859405 C34.2599619,31.5920284 46.3664566,30.8573301 58.1115635,30.3063063 C108.163788,28.4695605 209.713789,30.3063063 209.713789,30.3063063 L211.882117,21.3062517 C211.882117,21.3062517 200.498398,17.4490854 194.896885,15.0613159 C169.96112,4.59186459 142.314945,4.40819001 115.391546,3.12246792 C98.9483967,2.38776959 82.505247,1.1020475 66.0620974,2.02042042 C49.6189478,2.93879334 33.1757982,6.06126126 18.3588941,13.5919192 C12.0346058,16.8980617 5.89101142,21.1225771 3.18060214,27.7348621 C1.01227472,32.8777505 1.37366262,38.7553372 1.91574448,44.4492492 C2.45782634,50.8778597 3.36129609,60.9799618 8.9628086,65.0208026 C9.32419651,59.3268905 9.14350256,54.5513514 12.0346058,49.2247884 C14.7450151,44.4492492 19.0816699,40.2247338 24.1411006,37.2859405 Z" id="Shape"></path>
                    <path d="M8.78211465,66.3065247 C8.6014207,66.3065247 8.42072675,66.3065247 8.2400328,66.1228501 C2.27713238,61.7146601 1.37366262,51.612558 0.831580768,45.000273 L0.831580768,44.8165984 C0.289498912,38.7553372 0.10880496,32.8777505 2.27713238,27.7348621 C4.62615376,22.04095 9.50489046,17.4490854 17.8168122,13.0408954 C31.0074707,6.24493584 46.7278446,2.38776959 65.8814035,1.28572209 C79.4334498,0.551023751 93.3468841,1.28572209 106.718237,1.83674584 C109.60934,2.02042042 112.500443,2.204095 115.391546,2.204095 C117.921262,2.38776959 120.450977,2.38776959 122.980692,2.57144417 C147.374376,3.67349167 172.490835,4.59186459 195.077579,14.1429429 C200.498398,16.5307125 211.882117,20.3878788 212.062811,20.3878788 C212.424198,20.5715534 212.785586,20.9389025 212.604892,21.4899263 L210.436565,30.4899809 C210.255871,30.8573301 209.894483,31.0410046 209.533095,31.2246792 C208.448932,31.2246792 107.441012,29.3879334 57.9308696,31.2246792 C45.8243748,31.5920284 34.2599619,32.5104013 24.5024885,38.0206388 C19.6237518,40.7757576 15.4677909,45.000273 12.7573816,49.9594868 C10.4083602,54.3676768 10.2276663,58.224843 9.86627836,62.8167076 C9.86627836,63.7350805 9.86627836,64.4697789 9.68558441,65.3881518 C9.68558441,65.755501 9.50489046,65.9391755 9.14350256,66.1228501 C9.14350256,66.3065247 8.9628086,66.3065247 8.78211465,66.3065247 Z M78.5299801,2.93879334 C74.3740192,2.93879334 70.2180583,3.12246792 66.0620974,3.30614251 C47.2699264,4.40819001 31.7302465,8.08168168 18.720282,14.8776413 C10.7697481,18.9184821 6.25239933,23.3266721 3.90337795,28.4695605 C1.91574448,33.4287742 2.09643843,38.9390117 2.63852029,44.8165984 C3.18060214,50.6941851 3.90337795,59.3268905 8.05933884,63.551406 C8.05933884,63.3677314 8.05933884,63.0003822 8.05933884,62.8167076 C8.2400328,58.0411684 8.42072675,53.816653 11.131136,49.2247884 C14.0222393,43.8982255 18.3588941,39.4900355 23.5990187,36.5512422 C33.71788,30.8573301 45.6436808,29.9389571 57.9308696,29.571608 C105.091991,27.9185367 199.594928,29.3879334 208.810319,29.571608 L210.617259,22.2246246 C207.90685,21.3062517 199.052846,18.1837838 194.354803,16.1633634 C171.948753,6.7959596 147.012988,5.69391209 122.799998,4.59186459 C120.270283,4.40819001 117.740568,4.40819001 115.210852,4.22451542 C112.319749,4.04084084 109.428646,3.85716626 106.537543,3.85716626 C97.3221511,3.30614251 87.9260656,2.93879334 78.5299801,2.93879334 Z" id="Shape"></path>
                </g>
                <g id="Group" transform="translate(0.788057, 0.292929)">
                    <path d="M350.963372,198.741162 C350.963372,198.741162 350.963372,198.558081 350.963372,198.558081 C350.963372,198.375 350.781961,198.375 350.781961,198.191919 L350.781961,198.008838 C350.781961,197.825758 350.60055,197.825758 350.419138,197.642677 C349.874904,197.093434 349.149259,196.727273 348.423613,196.727273 L176.082834,196.727273 C157.034642,196.727273 141.433266,180.982323 141.433266,161.758838 C141.433266,142.535354 156.853231,126.790404 176.082834,126.790404 L348.242202,126.790404 C349.693493,126.790404 350.963372,125.508838 350.963372,124.044192 C350.963372,123.128788 350.419138,122.213384 349.693493,121.664141 L214.723451,2.29545455 C213.634982,1.38005051 212.365103,0.830808081 210.913812,0.830808081 L41.8384366,0.830808081 C20.613309,0.830808081 2.29076289,17.125 0.839472117,38.7285354 C-0.0675846196,51.9103535 5.55616715,64.7260101 15.7152026,72.9646465 L148.326897,191.051768 C149.233954,191.967172 150.141011,192.699495 151.229479,193.614899 C152.136536,194.347222 153.225004,195.079545 154.313472,195.811869 C155.40194,196.544192 156.490408,197.093434 157.578876,197.642677 C158.667344,198.191919 159.755812,198.741162 161.025692,199.290404 L161.207103,199.290404 C162.295571,199.839646 163.565451,200.205808 164.653919,200.57197 L164.83533,200.57197 C165.923798,200.938131 167.193678,201.304293 168.463557,201.487374 L168.644968,201.487374 C169.914848,201.670455 171.184727,201.853535 172.454607,202.036616 L172.636018,202.036616 C173.905897,202.219697 175.175777,202.219697 176.627068,202.219697 L348.786436,202.219697 C350.237727,202.219697 351.507606,200.938131 351.507606,199.473485 C351.144784,199.107323 351.144784,198.924242 350.963372,198.741162 C350.963372,198.741162 350.963372,198.741162 350.963372,198.741162 Z" id="Shape" fill="#19BC9C"></path>
                    <path d="M348.423613,202.95202 L176.264245,202.95202 C174.994365,202.95202 173.543075,202.95202 172.273195,202.768939 C171.003316,202.585859 169.733436,202.402778 168.282146,202.219697 C166.830855,201.853535 165.560975,201.670455 164.472507,201.304293 C164.291096,201.304293 164.291096,201.304293 164.291096,201.304293 C163.202628,200.938131 162.11416,200.57197 160.84428,200.022727 C160.662869,200.022727 160.662869,200.022727 160.662869,200.022727 C159.574401,199.473485 158.304522,198.924242 157.216053,198.375 C156.127585,197.825758 155.039117,197.276515 153.950649,196.544192 C152.862181,195.811869 151.773713,195.079545 150.866656,194.347222 C149.9596,193.614899 148.871131,192.699495 147.964075,191.784091 L15.3523799,73.6969697 C5.0119331,65.2752525 -0.793230009,52.2765152 0.113826728,38.7285354 C1.56511751,17.125 19.8876636,0.0984848485 41.8384366,0.0984848485 L211.095224,0.0984848485 C212.727926,0.0984848485 214.179216,0.647727273 215.449096,1.74621212 L350.419138,121.114899 C351.326195,121.664141 352.05184,122.945707 352.05184,124.044192 C352.05184,124.959596 351.689018,125.875 350.963372,126.607323 C350.237727,127.339646 349.33067,127.705808 348.423613,127.705808 L176.264245,127.705808 C157.760287,127.705808 142.521734,142.901515 142.521734,161.758838 C142.521734,170.912879 145.96855,179.334596 152.317947,185.925505 C158.667344,192.333333 167.193678,195.994949 176.082834,195.994949 L348.423613,195.994949 C348.423613,195.994949 348.423613,195.994949 348.423613,195.994949 C349.33067,195.994949 350.419138,196.361111 350.963372,197.093434 C351.144784,197.276515 351.144784,197.459596 351.326195,197.459596 C351.326195,197.642677 351.507606,197.642677 351.507606,197.825758 C351.507606,197.825758 351.507606,198.008838 351.507606,198.008838 C351.507606,198.191919 351.507606,198.191919 351.507606,198.375 L351.507606,198.558081 C351.507606,198.741162 351.507606,198.924242 351.507606,199.107323 C352.05184,201.304293 350.419138,202.95202 348.423613,202.95202 Z M168.463557,200.388889 C168.463557,200.388889 168.644968,200.388889 168.644968,200.388889 C169.914848,200.57197 171.184727,200.755051 172.273195,200.938131 C173.724486,201.121212 174.994365,201.121212 176.264245,201.121212 L348.423613,201.121212 C349.512082,201.121212 350.237727,200.388889 350.237727,199.290404 C350.237727,199.107323 350.237727,199.107323 350.237727,198.924242 C350.237727,198.924242 350.237727,198.741162 350.237727,198.741162 C350.237727,198.741162 350.237727,198.741162 350.237727,198.741162 C350.237727,198.741162 350.237727,198.741162 350.237727,198.741162 C350.237727,198.741162 350.237727,198.741162 350.237727,198.741162 C350.237727,198.741162 350.237727,198.741162 350.237727,198.741162 C350.237727,198.741162 350.056316,198.558081 350.056316,198.375 C350.056316,198.375 350.056316,198.375 350.056316,198.375 C349.693493,198.008838 349.33067,197.825758 348.786436,197.825758 C348.786436,197.825758 348.786436,197.825758 348.786436,197.825758 L176.445656,197.825758 C167.012266,197.825758 157.941699,194.164141 151.229479,187.390152 C144.517259,180.616162 140.889032,171.645202 140.889032,161.941919 C140.889032,142.169192 156.853231,126.058081 176.445656,126.058081 L348.605025,126.058081 C349.149259,126.058081 349.512082,125.875 349.874904,125.508838 C350.237727,125.142677 350.419138,124.776515 350.419138,124.227273 C350.419138,123.67803 350.056316,122.945707 349.512082,122.579545 L214.360628,3.02777778 C213.453571,2.29545455 212.365103,1.74621212 211.276635,1.74621212 L42.2012593,1.74621212 C21.157543,1.74621212 3.56064233,18.040404 2.10935155,38.7285354 C1.20229481,51.5441919 6.64463523,63.9936869 16.6222593,72.0492424 L149.233954,190.136364 C150.141011,191.051768 151.048068,191.784091 151.955124,192.516414 C152.862181,193.248737 153.950649,193.981061 154.857706,194.713384 C155.764763,195.445707 156.853231,195.994949 157.941699,196.544192 C159.030167,197.093434 160.118635,197.642677 161.207103,198.008838 C161.207103,198.008838 161.388514,198.008838 161.388514,198.008838 C162.476983,198.558081 163.565451,198.924242 164.653919,199.290404 C164.83533,199.290404 164.83533,199.290404 164.83533,199.290404 C166.105209,199.839646 167.193678,200.022727 168.463557,200.388889 Z" id="Shape" fill="#243839"></path>
                </g>
                <g id="Group" transform="translate(1.944110, 21.555556)" fill="#109995">
                    <path d="M143.044112,116.832667 C137.068851,113.167935 131.274659,109.503202 125.661536,105.28876 C108.822166,92.4621964 95.6041657,75.7876639 79.6701381,61.8616806 C59.5715351,44.4542016 35.8515621,31.8108747 16.2961646,13.8536858 C14.3044112,12.2045562 12.4937262,10.1889534 10.8641097,8.17335053 C9.77769877,6.70745755 8.69128779,2.8594885 7.24273983,1.94330539 C6.88060284,1.76006877 6.69953434,1.57683215 6.33739735,1.57683215 C0.724273983,9.45600688 1.62961646,19.9004943 1.81068496,29.9785085 C2.53495894,32.5438212 3.44030142,35.1091339 4.70778089,37.6744466 C7.24273983,42.805072 10.5019727,47.3859875 14.1233427,51.6004298 C32.9544662,68.0917258 51.9666583,84.5830217 70.7977818,101.074318 C71.3409873,101.624028 71.7031243,102.356974 71.7031243,103.08992 C79.1269326,109.686439 86.5507409,116.099721 93.7934808,122.879476 C94.1556177,123.062712 94.3366862,123.062712 94.6988232,123.429185 C102.122632,129.659231 109.184303,136.255749 116.245974,142.852267 L116.427043,143.035504 C122.76444,148.166129 128.7397,153.663228 134.533892,159.343563 C138.698468,163.008296 142.863043,166.489792 147.027618,170.154524 C134.171755,154.945884 130.00718,131.85807 143.044112,116.832667 Z" id="Shape"></path>
                    <path d="M147.208687,170.88747 C147.027618,170.88747 146.84655,170.88747 146.665481,170.704234 C142.500906,167.039501 138.336331,163.558006 134.171755,159.893273 C128.377563,154.029701 122.402303,148.532603 116.064906,143.585214 L115.883837,143.585214 L114.797426,142.485794 C108.097892,136.255749 101.398358,130.025704 94.3366862,123.978895 C94.1556177,123.795659 93.9745492,123.795659 93.7934808,123.612422 C93.6124123,123.612422 93.6124123,123.429185 93.4313438,123.429185 C85.6453984,116.282957 78.0405216,109.503202 71.3409873,103.63963 C71.1599188,103.456394 70.9788503,103.08992 70.9788503,102.906684 C70.9788503,102.356974 70.7977818,101.990501 70.4356448,101.624028 C51.6045213,85.3159682 32.4112607,68.6414356 13.5801372,52.1501397 C9.77769877,47.7524608 6.51846584,42.9883086 3.9835069,37.8576832 C2.71602743,35.2923705 1.81068496,32.7270578 1.08641097,29.9785085 C1.08641097,29.9785085 1.08641097,29.7952719 1.08641097,29.7952719 L1.08641097,27.779669 C0.724273983,18.2513647 0.362136991,8.53982377 5.79419186,0.843885665 C5.97526036,0.477412422 6.33739735,0.477412422 6.69953434,0.477412422 C7.06167133,0.477412422 7.60487682,0.660649044 7.96701381,0.843885665 C9.05342478,1.57683215 9.95876726,3.22596175 10.6830412,4.87509134 C11.0451782,5.79127445 11.5883837,6.70745755 11.9505207,7.0739308 C13.5801372,9.08953363 15.3908221,10.9218998 17.2015071,12.7542661 C27.5224113,22.2825704 39.2918636,30.5282184 50.5181103,38.4073931 C60.657946,45.3703847 70.9788503,52.6998496 80.5754806,60.9454975 C87.4560834,66.8090694 93.7934808,73.4055878 100.130878,79.8188695 C108.460029,88.2477541 117.151317,97.043112 126.747947,104.372577 C132.180002,108.587019 137.793125,112.068515 143.949454,115.916484 C144.130523,116.099721 144.311591,116.282957 144.311591,116.64943 C144.311591,116.832667 144.311591,117.19914 144.130523,117.382377 C130.912522,132.774253 136.344577,155.678831 148.295098,169.421577 C148.657235,169.788051 148.657235,170.337761 148.295098,170.704234 C147.570824,170.88747 147.389755,170.88747 147.208687,170.88747 Z M94.3366862,121.963292 C94.6988232,122.146529 95.0609602,122.329766 95.2420287,122.513002 C102.3037,128.376574 109.184303,134.789856 115.883837,141.019901 L116.970248,141.936084 C123.488714,147.06671 129.463974,152.563808 135.258166,158.42738 C137.430988,160.259746 139.60381,162.092113 141.776632,163.924479 C133.085344,149.815259 130.550385,130.575414 141.776632,116.832667 C135.801372,113.167935 130.550385,109.686439 125.299399,105.655233 C115.702769,98.3257683 107.011481,89.5304105 98.5012616,80.9182893 C92.3449328,74.6882441 85.8264669,68.0917258 79.1269326,62.2281539 C69.7113708,54.1657425 59.3904666,46.8362777 49.2506308,39.8732861 C37.8433156,31.9941113 26.0738634,23.7484634 15.7529591,14.220159 C13.7612057,12.3877928 11.9505207,10.5554266 10.1398358,8.35658715 C9.59663027,7.62364066 9.23449328,6.70745755 8.69128779,5.79127445 C8.1480823,4.5086181 7.42380832,2.8594885 6.69953434,2.49301526 C6.69953434,2.49301526 6.69953434,2.49301526 6.69953434,2.49301526 C2.17282195,9.6392435 2.35389044,18.8010746 2.71602743,27.779669 L2.71602743,29.7952719 C3.44030142,32.3605846 4.3456439,34.7426606 5.43205487,37.1247367 C7.96701381,42.0721255 11.0451782,46.653041 14.8476166,50.8674833 C33.4976717,67.3587793 52.6909322,83.8500752 71.5220558,100.341371 C72.2463298,100.891081 72.6084668,101.807264 72.7895353,102.723447 C79.3080011,108.403783 86.9128779,115.000301 94.3366862,121.963292 Z" id="Shape"></path>
                </g>
                <path d="M348.605939,204.343434 L176.735404,204.343434 C175.467655,204.343434 174.018799,204.343434 172.75105,204.159428 C171.483302,203.975422 170.215553,203.791416 168.766697,203.60741 C167.317841,203.239398 166.050092,203.055391 164.96345,202.687379 C164.782343,202.687379 164.782343,202.687379 164.782343,202.687379 C163.695701,202.319367 162.609059,201.951355 161.34131,201.399336 C161.160203,201.399336 161.160203,201.399336 161.160203,201.399336 C160.073561,200.847318 158.805812,200.2953 157.71917,199.743281 C156.632528,199.191263 155.545886,198.639244 154.459244,197.90322 C153.372602,197.167195 152.28596,196.431171 151.380426,195.695146 C150.474891,194.959122 149.388249,194.039091 148.482714,193.119061 L16.0935031,74.4351092 C5.77040462,65.9708274 -0.0250190981,52.9063924 0.880515858,39.2899391 C2.32937179,17.5772162 20.6211779,0.464646465 42.5351238,0.464646465 L211.507947,0.464646465 C213.13791,0.464646465 214.586765,1.01666484 215.854514,2.1207016 L350.598116,122.092696 C351.503651,122.644714 352.228079,123.932757 352.228079,125.036794 C352.228079,125.956825 351.865865,126.876855 351.141437,127.61288 C350.417009,128.348904 349.511474,128.716916 348.605939,128.716916 L176.735404,128.716916 C158.262491,128.716916 143.049504,143.989425 143.049504,162.942056 C143.049504,172.142362 146.490537,180.606644 152.829281,187.230865 C159.168026,193.671079 167.680055,197.351202 176.554297,197.351202 L348.605939,197.351202 C348.605939,197.351202 348.605939,197.351202 348.605939,197.351202 C349.511474,197.351202 350.598116,197.719214 351.141437,198.455238 C351.322544,198.639244 351.322544,198.823251 351.503651,198.823251 C351.503651,199.007257 351.684758,199.007257 351.684758,199.191263 C351.684758,199.191263 351.684758,199.375269 351.684758,199.375269 C351.684758,199.559275 351.684758,199.559275 351.684758,199.743281 L351.684758,199.927287 C351.684758,200.111293 351.684758,200.2953 351.684758,200.479306 C352.228079,202.687379 350.598116,204.343434 348.605939,204.343434 Z M168.947804,201.767349 C168.947804,201.767349 169.128911,201.767349 169.128911,201.767349 C170.39666,201.951355 171.664409,202.135361 172.75105,202.319367 C174.199906,202.503373 175.467655,202.503373 176.735404,202.503373 L348.605939,202.503373 C349.692581,202.503373 350.417009,201.767349 350.417009,200.663312 C350.417009,200.479306 350.417009,200.479306 350.417009,200.2953 C350.417009,200.2953 350.417009,200.111293 350.417009,200.111293 C350.417009,200.111293 350.417009,200.111293 350.417009,200.111293 C350.417009,200.111293 350.417009,200.111293 350.417009,200.111293 C350.417009,200.111293 350.417009,200.111293 350.417009,200.111293 C350.417009,200.111293 350.417009,200.111293 350.417009,200.111293 C350.417009,200.111293 350.235902,199.927287 350.235902,199.743281 C350.235902,199.743281 350.235902,199.743281 350.235902,199.743281 C349.873688,199.375269 349.511474,199.191263 348.968153,199.191263 C348.968153,199.191263 348.968153,199.191263 348.968153,199.191263 L176.916511,199.191263 C167.498948,199.191263 158.443598,195.51114 151.74264,188.702914 C145.041681,181.894687 141.419541,172.878387 141.419541,163.126062 C141.419541,143.2534 157.356956,127.060861 176.916511,127.060861 L348.787046,127.060861 C349.330367,127.060861 349.692581,126.876855 350.054795,126.508843 C350.417009,126.140831 350.598116,125.772818 350.598116,125.2208 C350.598116,124.668782 350.235902,123.932757 349.692581,123.564745 L214.767872,3.40874448 C213.862337,2.67271998 212.775696,2.1207016 211.689054,2.1207016 L42.8973378,2.1207016 C21.8889268,2.1207016 4.32154869,18.4972468 2.87269276,39.2899391 C1.9671578,52.1703679 7.40036754,64.6827845 17.3612521,72.7790541 L149.750463,191.463006 C150.655998,192.383036 151.561533,193.119061 152.467067,193.855085 C153.372602,194.59111 154.459244,195.327134 155.364779,196.063159 C156.270314,196.799183 157.356956,197.351202 158.443598,197.90322 C159.53024,198.455238 160.616882,199.007257 161.703524,199.375269 C161.703524,199.375269 161.884631,199.375269 161.884631,199.375269 C162.971273,199.927287 164.057915,200.2953 165.144557,200.663312 C165.325664,200.663312 165.325664,200.663312 165.325664,200.663312 C166.593413,201.21533 167.680055,201.399336 168.947804,201.767349 Z" id="Shape" fill="#243839"></path>
                <path d="M17.3200927,71.9393939 C16.9518328,71.9393939 16.5835729,71.7489899 16.5835729,71.3681818 C14.3740135,67.1792929 13.0851038,62.609596 12.348584,57.8494949 C12.348584,57.2782828 12.7168439,56.8974747 13.0851038,56.7070707 C13.6374937,56.7070707 14.0057536,57.0878788 14.1898835,57.4686869 C14.7422734,62.0383838 16.031183,66.2272727 18.0566125,70.4161616 C18.2407424,70.7969697 18.0566125,71.3681818 17.6883526,71.7489899 C17.5042226,71.9393939 17.5042226,71.9393939 17.3200927,71.9393939 Z" id="Shape" fill="#243839"></path>
                <path d="M14.3774823,43.8181818 C14.3774823,43.8181818 14.2029132,43.8181818 14.2029132,43.8181818 C13.6792059,43.632328 13.5046367,43.2606203 13.5046367,42.7030587 C15.7740353,33.9679278 20.4874015,26.1620661 27.121028,20.5864507 C27.4701663,20.214743 27.9938736,20.4005968 28.3430119,20.7723045 C28.6921501,21.1440122 28.517581,21.7015738 28.1684428,22.0732815 C21.8839545,27.6488969 17.3451574,34.8971971 15.2503279,43.2606203 C15.0757588,43.632328 14.7266206,43.8181818 14.3774823,43.8181818 Z" id="Shape" fill="#243839"></path>
                <path d="M38.7565771,15.6969697 C38.3938483,15.6969697 38.0311195,15.5010357 37.8497552,15.1091676 C37.6683908,14.5213655 37.8497552,14.1294975 38.3938483,13.7376294 C50.1825341,8.25147675 63.6034994,8.44741078 74.3039988,8.83927883 C122.002835,9.81894895 170.427129,9.81894895 217.219143,9.81894895 C217.763236,9.81894895 218.125965,10.210817 218.125965,10.7986191 C218.125965,11.3864211 217.763236,11.7782892 217.219143,11.7782892 C170.427129,11.7782892 122.002835,11.7782892 74.3039988,10.7986191 C63.7848638,10.602685 50.5452629,10.210817 39.1193059,15.5010357 C38.9379415,15.6969697 38.7565771,15.6969697 38.7565771,15.6969697 Z" id="Shape" fill="#243839"></path>
                <path d="M131.811016,171.357371 C131.460365,171.357371 131.109714,171.179389 130.934388,170.823424 C129.356459,166.907812 128.304505,162.636236 127.953854,158.364659 C127.953854,157.830712 128.304505,157.474747 128.830482,157.474747 C129.356459,157.474747 129.70711,157.830712 129.70711,158.364659 C130.057761,162.458253 130.934388,166.373865 132.512318,170.289477 C132.687644,170.823424 132.512318,171.179389 131.986341,171.535354 C131.986341,171.357371 131.811016,171.357371 131.811016,171.357371 Z" id="Shape" fill="#243839"></path>
                <path d="M130.01412,148.10101 C129.833277,148.10101 129.833277,148.10101 130.01412,148.10101 C129.29075,147.914562 129.109907,147.541665 129.109907,146.98232 C131.280018,135.608976 137.971192,125.913665 147.736689,120.133769 C161.661565,112.116493 178.299079,112.675838 194.394065,113.235183 C197.287546,113.421631 200.181027,113.421631 202.893665,113.421631 C220.977919,113.794527 239.423858,113.608079 257.146428,113.608079 C266.188555,113.608079 275.230682,113.421631 284.272809,113.421631 C284.815337,113.421631 285.177022,113.794527 285.177022,114.353872 C285.177022,114.913217 284.815337,115.286114 284.272809,115.286114 C275.230682,115.286114 266.188555,115.286114 257.146428,115.472562 C239.423858,115.65901 220.977919,115.65901 202.893665,115.286114 C200.000184,115.286114 197.287546,115.099665 194.213223,115.099665 C178.299079,114.54032 162.02325,113.980976 148.460059,121.811803 C139.237089,127.218803 132.726758,136.727665 130.73749,147.355217 C130.73749,147.728114 130.375805,148.10101 130.01412,148.10101 Z" id="Shape" fill="#243839"></path>
                <path d="M332.839423,116.464646 L303.409625,116.464646 C302.874537,116.464646 302.517813,115.99596 302.517813,115.292929 C302.517813,114.589899 302.874537,114.121212 303.409625,114.121212 L332.839423,114.121212 C333.374511,114.121212 333.731235,114.589899 333.731235,115.292929 C333.731235,115.99596 333.374511,116.464646 332.839423,116.464646 Z" id="Shape" fill="#243839"></path>
                <g id="Group" transform="translate(133.734118, 27.414141)">
                    <path d="M104.645565,52.4929293 L44.280075,11.4828283 L49.702125,11.4828283 L39.219495,0.911335578 L1.265145,0.911335578 L11.747775,11.4828283 L17.169825,11.4828283 L38.67729,52.4929293 L28.19466,52.4929293 L38.67729,63.064422 L76.812375,63.064422 L66.329745,52.4929293 L59.28108,52.4929293 L56.02785,46.2958474 L75.366495,46.2958474 L84.403245,52.4929293 L77.35458,52.4929293 L87.83721,63.064422 L125.610825,63.064422 L115.128195,52.4929293 L104.645565,52.4929293 Z M51.148005,37.3647587 L45.18375,25.8819304 L62.17284,37.3647587 L51.148005,37.3647587 Z" id="Shape" fill="#FFFFFF"></path>
                    <path d="M125.610825,63.9757576 L87.47574,63.9757576 C87.295005,63.9757576 86.933535,63.7934905 86.7528,63.7934905 L76.27017,53.2219978 C76.089435,53.0397306 75.9087,52.4929293 76.089435,52.3106622 C76.27017,52.1283951 76.63164,51.7638608 76.99311,51.7638608 L81.150015,51.7638608 L74.82429,47.3894501 L57.292995,47.3894501 L59.64255,51.7638608 L66.14901,51.7638608 C66.329745,51.7638608 66.691215,51.9461279 66.87195,51.9461279 L77.35458,62.5176207 C77.535315,62.6998878 77.71605,63.2466891 77.535315,63.4289562 C77.35458,63.7934905 76.99311,63.9757576 76.63164,63.9757576 L38.496555,63.9757576 C38.31582,63.9757576 37.95435,63.7934905 37.773615,63.7934905 L27.290985,53.2219978 C27.11025,53.0397306 26.929515,52.4929293 27.11025,52.3106622 C27.290985,51.9461279 27.652455,51.7638608 28.013925,51.7638608 L37.050675,51.7638608 L16.62762,12.576431 L11.747775,12.576431 C11.56704,12.576431 11.20557,12.3941639 11.024835,12.3941639 L0.542205,1.82267116 C0.36147,1.64040404 0.180735,1.09360269 0.36147,0.911335578 C0.542205,0.546801347 0.903675,0.364534231 1.265145,0.364534231 L39.40023,0.364534231 C39.580965,0.364534231 39.942435,0.546801347 40.12317,0.546801347 L50.6058,11.1182941 C50.786535,11.3005612 50.96727,11.8473625 50.786535,12.0296296 C50.6058,12.2118967 50.24433,12.576431 49.88286,12.576431 L47.35257,12.576431 L105.007035,51.7638608 L115.128195,51.7638608 C115.30893,51.7638608 115.6704,51.9461279 115.851135,51.9461279 L126.333765,62.5176207 C126.5145,62.6998878 126.695235,63.2466891 126.5145,63.4289562 C126.333765,63.7934905 125.972295,63.9757576 125.610825,63.9757576 Z M88.017945,62.1530864 L123.442005,62.1530864 L114.766725,53.4042649 L104.645565,53.4042649 C104.46483,53.4042649 104.284095,53.4042649 104.10336,53.2219978 L43.73787,12.2118967 C43.3764,12.0296296 43.195665,11.4828283 43.3764,11.1182941 C43.557135,10.7537598 43.918605,10.3892256 44.280075,10.3892256 L47.533305,10.3892256 L38.858025,1.64040404 L3.433965,1.64040404 L12.109245,10.3892256 L17.169825,10.3892256 C17.531295,10.3892256 17.892765,10.5714927 17.892765,10.9360269 L39.219495,51.9461279 C39.40023,52.3106622 39.40023,52.4929293 39.219495,52.8574635 C39.03876,53.0397306 38.67729,53.2219978 38.496555,53.2219978 L30.182745,53.2219978 L38.858025,61.9708193 L74.46282,61.9708193 L65.78754,53.2219978 L59.100345,53.2219978 C58.738875,53.2219978 58.377405,53.0397306 58.377405,52.6751964 L55.124175,46.4781145 C54.94344,46.1135802 54.94344,45.9313131 55.124175,45.5667789 C55.30491,45.2022447 55.66638,45.2022447 55.847115,45.2022447 L75.18576,45.2022447 C75.366495,45.2022447 75.54723,45.2022447 75.727965,45.3845118 L84.764715,51.5815937 C85.126185,51.7638608 85.30692,52.3106622 85.126185,52.6751964 C84.94545,53.0397306 84.58398,53.4042649 84.22251,53.4042649 L79.342665,53.4042649 L88.017945,62.1530864 Z M61.992105,38.0938272 L50.96727,38.0938272 C50.6058,38.0938272 50.24433,37.91156 50.24433,37.5470258 L44.280075,26.0641975 C44.09934,25.6996633 44.09934,25.152862 44.46081,24.9705948 C44.82228,24.6060606 45.18375,24.6060606 45.54522,24.9705948 L62.353575,36.4534231 C62.715045,36.6356902 62.89578,37.1824916 62.715045,37.5470258 C62.89578,37.91156 62.53431,38.0938272 61.992105,38.0938272 Z M51.69021,36.271156 L59.100345,36.271156 L47.533305,28.43367 L51.69021,36.271156 Z" id="Shape" fill="#243839"></path>
                </g>
                <g id="Group" transform="translate(47.030165, 63.737374)" fill="#233839">
                    <path d="M0.488525497,1.46939667 C0.488525497,0.734698335 0.853987319,0.367349167 1.21944914,0.918372918 C1.76764187,1.28572209 2.1331037,2.38776959 2.1331037,3.12246792 L2.49856552,16.7143871 C2.49856552,17.4490854 2.1331037,17.8164346 1.76764187,17.2654109 C1.21944914,16.8980617 0.853987319,15.7960142 0.853987319,15.0613159 L0.488525497,1.46939667 Z" id="Shape"></path>
                    <path d="M7.43230012,8.08168168 C7.43230012,7.34698335 7.79776194,6.97963418 8.16322376,7.53065793 L8.34595468,7.71433251 C8.7114165,8.08168168 9.07687832,8.63270543 9.25960923,9.36740377 L14.3760747,24.4287196 L14.0106129,14.5102921 C14.0106129,13.7755938 14.3760747,13.4082446 14.7415366,13.9592684 C15.2897293,14.3266175 15.6551911,15.428665 15.6551911,16.1633634 L16.0206529,29.7552826 C16.0206529,30.4899809 15.6551911,30.8573301 15.2897293,30.3063063 C14.9242675,29.9389571 14.5588057,29.3879334 14.3760747,28.6532351 L9.07687832,13.22457 L9.44234014,23.5103467 C9.44234014,24.245045 9.07687832,24.6123942 8.7114165,24.0613705 C8.16322376,23.6940213 7.79776194,22.5919738 7.79776194,21.8572755 L7.43230012,8.08168168 Z" id="Shape"></path>
                    <path d="M21.1371185,21.3062517 C21.1371185,20.5715534 21.5025803,20.2042042 21.8680421,20.755228 L24.6090058,23.3266721 C27.7154313,26.2654655 29.9082022,31.775703 29.9082022,36.183893 C30.0909331,40.7757576 28.0808931,42.2451542 24.9744676,39.3063609 L22.2335039,36.7349167 C21.6853112,36.183893 21.3198494,35.2655201 21.3198494,34.5308217 L21.1371185,21.3062517 Z M24.9744676,36.7349167 C26.9845076,38.5716626 28.263624,37.6532897 28.0808931,34.5308217 C27.8981622,31.4083538 26.6190458,27.7348621 24.6090058,25.8981163 L22.7816967,24.0613705 L23.1471585,35.0818455 L24.9744676,36.7349167 Z" id="Shape"></path>
                    <path d="M35.0246677,47.3880426 L34.6592059,34.1634726 C34.6592059,33.4287742 35.0246677,33.0614251 35.3901295,33.6124488 L41.0547878,38.9390117 C41.4202496,39.3063609 41.7857114,40.2247338 41.7857114,40.9594322 C41.7857114,41.6941305 41.4202496,41.8778051 41.0547878,41.5104559 L36.3037841,36.9185913 L36.486515,41.1431067 L40.6893259,45.1839476 C41.0547878,45.5512968 41.4202496,46.4696697 41.4202496,47.204368 C41.4202496,47.9390663 41.0547878,48.1227409 40.6893259,47.7553918 L36.486515,43.7145509 L36.6692459,48.1227409 L41.4202496,52.7146055 C41.7857114,53.0819547 42.1511732,54.0003276 42.1511732,54.7350259 C42.1511732,55.4697243 41.7857114,55.6533989 41.4202496,55.2860497 L35.7555913,49.9594868 C35.3901295,49.2247884 35.0246677,48.1227409 35.0246677,47.3880426 Z" id="Shape"></path>
                    <path d="M46.5367151,57.6738193 L49.2776788,54.5513514 L46.3539842,46.4696697 C46.1712533,46.1023205 45.9885224,45.5512968 45.9885224,45.1839476 C45.9885224,44.4492492 46.3539842,44.0819001 46.719446,44.6329238 C47.0849078,45.000273 47.2676387,45.3676222 47.4503697,46.1023205 L50.0086024,53.816653 L52.2013733,50.8778597 C52.3841043,50.5105105 52.5668352,50.5105105 52.932297,50.8778597 C53.2977588,51.2452088 53.6632206,52.1635818 53.6632206,52.8982801 C53.6632206,53.2656293 53.6632206,53.6329784 53.4804897,53.816653 L50.922257,56.9391209 L53.8459515,65.5718264 C54.0286825,65.9391755 54.2114134,66.4901993 54.2114134,66.8575485 C54.2114134,67.5922468 53.8459515,67.959596 53.4804897,67.4085722 C53.1150279,67.041223 52.932297,66.6738739 52.7495661,65.9391755 L50.0086024,57.8574939 L47.6331006,60.9799618 C47.4503697,61.3473109 47.2676387,61.3473109 46.9021769,60.9799618 C46.5367151,60.6126126 46.1712533,59.6942397 46.1712533,58.9595414 C46.3539842,58.224843 46.5367151,57.8574939 46.5367151,57.6738193 Z" id="Shape"></path>
                </g>
                <path d="M348.937136,199.656566 C348.587431,199.656566 348.412579,199.471578 348.237726,199.28659 C335.123793,175.978099 341.943038,145.085099 347.188612,128.806153 C347.363464,128.251189 347.888021,128.066201 348.237726,128.251189 C348.762284,128.436177 348.937136,128.991141 348.762284,129.361117 C343.691563,145.270087 337.04717,175.608123 349.811398,198.176661 C349.986251,198.546638 349.986251,199.101602 349.461693,199.471578 C349.286841,199.656566 349.111988,199.656566 348.937136,199.656566 Z" id="Shape" fill="#243839"></path>
                <g id="Group" transform="translate(175.352015, 179.737374)" fill="#E6E7E8">
                    <path d="M0.878600054,5.27272727 L14.7512325,5.27272727 C10.8668954,-0.351515152 4.76293714,-0.351515152 0.878600054,5.27272727 Z" id="Shape"></path>
                    <path d="M14.7512325,6.15151515 L0.878600054,6.15151515 C0.508663189,6.15151515 0.138726324,5.97575758 0.138726324,5.62424242 C-0.0462421081,5.27272727 -0.0462421081,4.92121212 0.138726324,4.74545455 C2.17337908,1.75757576 4.94790557,0.175757576 7.90740049,0.175757576 C7.90740049,0.175757576 7.90740049,0.175757576 7.90740049,0.175757576 C10.8668954,0.175757576 13.6414219,1.75757576 15.6760747,4.74545455 C15.8610431,5.0969697 15.8610431,5.27272727 15.6760747,5.62424242 C15.4911062,5.97575758 15.1211694,6.15151515 14.7512325,6.15151515 Z M2.72828438,4.39393939 L12.9015482,4.39393939 C11.4218007,2.81212121 9.57211638,1.93333333 7.90740049,1.93333333 C7.90740049,1.93333333 7.90740049,1.93333333 7.90740049,1.93333333 C6.05771616,1.93333333 4.20803184,2.81212121 2.72828438,4.39393939 Z" id="Shape"></path>
                </g>
                <g id="Group" transform="translate(198.473069, 172.707071)" fill="#E6E7E8">
                    <path d="M1.24853692,5.62424242 L15.1211694,5.62424242 C11.2368323,1.17683641e-14 4.94790557,1.17683641e-14 1.24853692,5.62424242 Z" id="Shape"></path>
                    <path d="M15.1211694,6.5030303 L1.24853692,6.5030303 C0.878600054,6.5030303 0.508663189,6.32727273 0.508663189,5.97575758 C0.323694757,5.62424242 0.323694757,5.27272727 0.508663189,5.0969697 C2.54331595,2.10909091 5.31784243,0.527272727 8.27733735,0.527272727 C8.27733735,0.527272727 8.27733735,0.527272727 8.27733735,0.527272727 C11.2368323,0.527272727 14.0113588,2.10909091 16.0460115,5.0969697 C16.23098,5.44848485 16.23098,5.62424242 16.0460115,5.97575758 C15.6760747,6.32727273 15.4911062,6.5030303 15.1211694,6.5030303 Z M3.09822124,4.74545455 L13.271485,4.74545455 C11.7917376,3.16363636 9.94205325,2.28484848 8.09236892,2.28484848 C6.2426846,2.28484848 4.5779687,3.16363636 3.09822124,4.74545455 Z" id="Shape"></path>
                </g>
                <g id="Group" transform="translate(222.750176, 164.505051)" fill="#E6E7E8">
                    <path d="M1.43350535,5.97575758 L15.3061378,5.97575758 C11.6067691,0.351515152 5.31784243,0.351515152 1.43350535,5.97575758 Z" id="Shape"></path>
                    <path d="M15.3061378,6.85454545 L1.43350535,6.85454545 C1.06356849,6.85454545 0.693631622,6.67878788 0.693631622,6.32727273 C0.508663189,5.97575758 0.508663189,5.62424242 0.693631622,5.44848485 C2.72828438,2.46060606 5.50281087,0.878787879 8.46230579,0.878787879 C11.4218007,0.878787879 14.1963272,2.46060606 16.23098,5.44848485 C16.4159484,5.8 16.4159484,5.97575758 16.23098,6.32727273 C16.0460115,6.67878788 15.6760747,6.85454545 15.3061378,6.85454545 Z M3.28318968,5.0969697 L13.4564535,5.0969697 C10.4969585,1.93333333 6.42765303,1.93333333 3.28318968,5.0969697 Z" id="Shape"></path>
                </g>
                <g id="Group" transform="translate(245.871230, 158.646465)" fill="#E6E7E8">
                    <path d="M1.07898252,5.57737374 L14.5662641,5.57737374 C10.7898252,-0.421818182 4.85542135,-0.421818182 1.07898252,5.57737374 Z" id="Shape"></path>
                    <path d="M14.5662641,6.51474747 L1.07898252,6.51474747 C0.719321682,6.51474747 0.359660841,6.32727273 0.359660841,5.95232323 C0.17983042,5.57737374 0.17983042,5.20242424 0.359660841,5.01494949 C2.33779547,1.82787879 5.03525177,0.140606061 7.73270808,0.140606061 C7.73270808,0.140606061 7.73270808,0.140606061 7.73270808,0.140606061 C10.6099948,0.140606061 13.3074511,1.82787879 15.2855857,5.01494949 C15.4654162,5.38989899 15.4654162,5.57737374 15.2855857,5.95232323 C15.2855857,6.32727273 14.9259249,6.51474747 14.5662641,6.51474747 Z M2.87728673,4.64 L12.7679599,4.64 C11.3293165,2.95272727 9.71084271,2.01535354 7.73270808,2.01535354 C6.1142343,2.01535354 4.31593009,2.95272727 2.87728673,4.64 Z" id="Shape"></path>
                </g>
                <g id="Group" transform="translate(270.148337, 151.616162)" fill="#E6E7E8">
                    <path d="M1.43864336,5.95232323 L14.9259249,5.95232323 C11.1494861,-0.0468686869 5.21508219,-0.0468686869 1.43864336,5.95232323 Z" id="Shape"></path>
                    <path d="M14.9259249,6.88969697 L1.43864336,6.88969697 C1.07898252,6.88969697 0.719321682,6.70222222 0.719321682,6.32727273 C0.539491261,5.95232323 0.539491261,5.57737374 0.719321682,5.38989899 C2.69745631,2.20282828 5.39491261,0.515555556 8.27219934,0.515555556 C11.1494861,0.515555556 13.8469424,2.20282828 15.825077,5.38989899 C16.0049074,5.76484848 16.0049074,5.95232323 15.825077,6.32727273 C15.4654162,6.70222222 15.2855857,6.88969697 14.9259249,6.88969697 Z M3.23694757,5.01494949 L13.1276207,5.01494949 C10.250334,1.64040404 6.1142343,1.64040404 3.23694757,5.01494949 Z" id="Shape"></path>
                </g>
                <g id="Group" transform="translate(293.269391, 144.585859)" fill="#E6E7E8">
                    <path d="M1.61847378,5.27272727 L15.1057553,5.27272727 C11.5091469,-0.351515152 5.39491261,-0.351515152 1.61847378,5.27272727 Z" id="Shape"></path>
                    <path d="M15.1057553,6.15151515 L1.61847378,6.15151515 C1.25881294,6.15151515 0.899152102,5.97575758 0.899152102,5.62424242 C0.719321682,5.27272727 0.719321682,4.92121212 0.899152102,4.74545455 C2.87728673,1.75757576 5.57474303,0.175757576 8.45202976,0.175757576 C11.3293165,0.175757576 14.0267728,1.75757576 16.0049074,4.74545455 C16.1847378,5.0969697 16.1847378,5.27272727 16.0049074,5.62424242 C15.825077,5.97575758 15.4654162,6.15151515 15.1057553,6.15151515 Z M3.41677799,4.39393939 L13.3074511,4.39393939 C10.4301644,1.23030303 6.29406472,1.23030303 3.41677799,4.39393939 Z" id="Shape"></path>
                </g>
                <g id="Group" transform="translate(318.702550, 137.555556)" fill="#E6E7E8">
                    <path d="M0.878600054,5.62424242 L14.7512325,5.62424242 C10.8668954,9.76996262e-15 4.76293714,9.76996262e-15 0.878600054,5.62424242 Z" id="Shape"></path>
                    <path d="M14.7512325,6.5030303 L0.878600054,6.5030303 C0.508663189,6.5030303 0.138726324,6.32727273 0.138726324,5.97575758 C-0.0462421081,5.62424242 -0.0462421081,5.27272727 0.138726324,5.0969697 C2.17337908,2.10909091 4.94790557,0.527272727 7.90740049,0.527272727 C10.8668954,0.527272727 13.6414219,2.10909091 15.6760747,5.0969697 C15.8610431,5.44848485 15.8610431,5.62424242 15.6760747,5.97575758 C15.4911062,6.32727273 15.1211694,6.5030303 14.7512325,6.5030303 Z M2.72828438,4.74545455 L12.9015482,4.74545455 C9.94205325,1.58181818 5.6877793,1.58181818 2.72828438,4.74545455 Z" id="Shape"></path>
                </g>
            </g>
        </g>
    </g>
</svg>