<svg id="expanded" xmlns="http://www.w3.org/2000/svg" xmlns:xlink="http://www.w3.org/1999/xlink" viewBox="0 0 356 210"><defs><style>.cls-1{fill:none;}.cls-2{fill:#e8e9ea;}.cls-3{fill:#004066;}.cls-4{fill:#fff;}.cls-5{fill:#8fabbb;}.cls-6{clip-path:url(#clip-path);}.cls-7{fill:#829cac;}.cls-8{fill:#49697e;}.cls-9{fill:#003a5e;}.cls-10{fill:#d3d5d7;}.cls-11{fill:#f66f45;}.cls-12{fill:#d4dbdf;}.cls-13{fill:#cd5f3c;}.cls-14{fill:#003252;}.cls-15{fill:#73402c;}.cls-16{fill:#e0653f;}.cls-17{fill:#399fdf;}.cls-18{fill:#3491cd;}.cls-19{fill:#2085c4;}.cls-20{fill:#206ba4;}.cls-21{fill:#1d6196;}.cls-22{fill:#243839;}.cls-23{fill:#c9d3da;}</style><clipPath id="clip-path"><path class="cls-1" d="M73.83,141.46l-1.45.66,1.45.66v-1.32m-.37,7.66h0a1.34,1.34,0,0,0,1-.4,1.33,1.33,0,0,0,.4-1,1.76,1.76,0,0,0-.35-1.06.52.52,0,0,1-.11-.33.51.51,0,0,1,.13-.34.42.42,0,0,1,.33-.15.4.4,0,0,1,.33.18,2.64,2.64,0,0,1,.55,1.71,2.43,2.43,0,0,1-.65,1.72,2.1,2.1,0,0,1-1.6.69h0a2.13,2.13,0,0,1-1.61-.7,2.49,2.49,0,0,1-.66-1.78,2.75,2.75,0,0,1,.44-1.59.43.43,0,0,1,.36-.2.47.47,0,0,1,.35.15.47.47,0,0,1,.14.34.7.7,0,0,1-.09.35,1.78,1.78,0,0,0-.31,1,1.36,1.36,0,0,0,1.36,1.36m1.8-4.66-.21-.06-3.45-1.66a.63.63,0,0,1-.38-.61v-.06a.62.62,0,0,1,.38-.6l3.45-1.66.2-.05a.43.43,0,0,1,.32.14.5.5,0,0,1,.13.35.52.52,0,0,1-.33.5l-.68.32v2.09l.71.33a.5.5,0,0,1,.3.48.48.48,0,0,1-.13.34.41.41,0,0,1-.32.14m-3.53-7.38H74.8v-1.94a.48.48,0,0,1,.13-.33.4.4,0,0,1,.31-.14.4.4,0,0,1,.31.14.48.48,0,0,1,.13.33v2.46a.53.53,0,0,1-.14.37.45.45,0,0,1-.34.15H71.73a.45.45,0,0,1-.34-.15.56.56,0,0,1,0-.74.44.44,0,0,1,.33-.15h0m1.73-4.53h0a1.34,1.34,0,0,0,1-.4,1.33,1.33,0,0,0,.4-1,1.76,1.76,0,0,0-.35-1.06.52.52,0,0,1-.11-.33.5.5,0,0,1,.13-.34.42.42,0,0,1,.33-.15.4.4,0,0,1,.33.18,2.63,2.63,0,0,1,.55,1.71,2.43,2.43,0,0,1-.65,1.72,2.1,2.1,0,0,1-1.6.69h0a2.13,2.13,0,0,1-1.61-.7,2.49,2.49,0,0,1-.66-1.78,2.75,2.75,0,0,1,.44-1.59.43.43,0,0,1,.36-.2.47.47,0,0,1,.35.15.47.47,0,0,1,.14.34.69.69,0,0,1-.09.35,1.78,1.78,0,0,0-.31,1,1.36,1.36,0,0,0,1.36,1.36m-1.74-8a.45.45,0,0,1-.34-.15.56.56,0,0,1,0-.74.45.45,0,0,1,.34-.15h2a1.89,1.89,0,0,1,1.48.55,2.2,2.2,0,0,1,.5,1.53,2.16,2.16,0,0,1-.5,1.52,1.85,1.85,0,0,1-1.44.54H71.73a.45.45,0,0,1-.34-.15.53.53,0,0,1-.14-.37.52.52,0,0,1,.14-.37.45.45,0,0,1,.34-.15h2a1.12,1.12,0,0,0,.8-.27,1,1,0,0,0,.28-.76,1,1,0,0,0-.27-.76,1.06,1.06,0,0,0-.78-.27H71.73m0-4H74.8v-1.94a.48.48,0,0,1,.13-.33.4.4,0,0,1,.31-.14.4.4,0,0,1,.31.14.48.48,0,0,1,.13.33v2.46a.53.53,0,0,1-.14.37.45.45,0,0,1-.34.15H71.73a.45.45,0,0,1-.34-.15.56.56,0,0,1,0-.74.44.44,0,0,1,.33-.15h0m0-6.85a.45.45,0,0,1-.34-.15.56.56,0,0,1,0-.74.45.45,0,0,1,.34-.15h2a1.89,1.89,0,0,1,1.48.55,2.2,2.2,0,0,1,.5,1.53,2.16,2.16,0,0,1-.5,1.52,1.86,1.86,0,0,1-1.44.54H71.73a.45.45,0,0,1-.34-.15.53.53,0,0,1-.14-.37.52.52,0,0,1,.14-.37.45.45,0,0,1,.34-.15h2a1.12,1.12,0,0,0,.8-.27,1,1,0,0,0,.28-.76,1,1,0,0,0-.27-.76,1.06,1.06,0,0,0-.78-.27H71.73m.73-3.82h0a.34.34,0,0,0,.32-.2,4.66,4.66,0,0,0,.27-.9,2.68,2.68,0,0,1,.46-1.07,1,1,0,0,1,.83-.36h0a1.18,1.18,0,0,1,1,.48,2,2,0,0,1,.36,1.27,3.17,3.17,0,0,1-.53,1.79.38.38,0,0,1-.34.2.44.44,0,0,1-.34-.14.48.48,0,0,1-.13-.33.6.6,0,0,1,.09-.32,2.18,2.18,0,0,0,.39-1.22,1,1,0,0,0-.11-.5.34.34,0,0,0-.3-.18h0a.34.34,0,0,0-.3.19,2.63,2.63,0,0,0-.23.68,6.53,6.53,0,0,1-.2.74,1.32,1.32,0,0,1-.61.81,1.26,1.26,0,0,1-.54.11h0a1.15,1.15,0,0,1-1-.46,2,2,0,0,1-.36-1.25,2.82,2.82,0,0,1,.39-1.45.38.38,0,0,1,.35-.23.46.46,0,0,1,.35.14.46.46,0,0,1,.13.31.65.65,0,0,1-.07.3,2.21,2.21,0,0,0-.29,1,.81.81,0,0,0,.11.45.33.33,0,0,0,.27.16m7.85-18H67.87a1.5,1.5,0,0,0-1.5,1.5v69.28a1.5,1.5,0,0,0,1.5,1.5H80.32a2,2,0,0,0,.68-1.5v-1.92H66.37v-1H81V95.8H66.37v-1H81V93.37a2,2,0,0,0-.68-1.5"/></clipPath></defs><title>Artboard 7</title><path class="cls-2" d="M54.29,75.46H48a1.5,1.5,0,0,1-1.5-1.5V40.09a1.5,1.5,0,0,1,1.5-1.5h6.25a1.5,1.5,0,0,1,1.5,1.5V74A1.5,1.5,0,0,1,54.29,75.46ZM48,39.59a.5.5,0,0,0-.5.5V74a.5.5,0,0,0,.5.5h6.25a.5.5,0,0,0,.5-.5V40.09a.5.5,0,0,0-.5-.5Z"/><path class="cls-2" d="M55.29,42.72H47a.5.5,0,0,1,0-1h8.25a.5.5,0,0,1,0,1Z"/><path class="cls-2" d="M55.29,72.32H47a.5.5,0,0,1,0-1h8.25a.5.5,0,0,1,0,1Z"/><path class="cls-2" d="M64.63,75.46H56.29a1.5,1.5,0,0,1-1.5-1.5V46.35a1.5,1.5,0,0,1,1.5-1.5h8.34a1.5,1.5,0,0,1,1.5,1.5V74A1.5,1.5,0,0,1,64.63,75.46Zm-8.34-29.6a.5.5,0,0,0-.5.5V74a.5.5,0,0,0,.5.5h8.34a.5.5,0,0,0,.5-.5V46.35a.5.5,0,0,0-.5-.5Z"/><path class="cls-2" d="M65.63,49H55.29a.5.5,0,0,1,0-1H65.63a.5.5,0,0,1,0,1Z"/><path class="cls-2" d="M65.63,72.32H55.29a.5.5,0,0,1,0-1H65.63a.5.5,0,0,1,0,1Z"/><path class="cls-2" d="M83.23,75.46h-7.3a1.5,1.5,0,0,1-1.5-1.5V48.44a1.5,1.5,0,0,1,1.5-1.5h7.3a1.5,1.5,0,0,1,1.5,1.5V74A1.5,1.5,0,0,1,83.23,75.46Zm-7.3-27.51a.5.5,0,0,0-.5.5V74a.5.5,0,0,0,.5.5h7.3a.5.5,0,0,0,.5-.5V48.44a.5.5,0,0,0-.5-.5Z"/><path class="cls-2" d="M84.23,51.07h-9.3a.5.5,0,0,1,0-1h9.3a.5.5,0,0,1,0,1Z"/><path class="cls-2" d="M84.23,72.32h-9.3a.5.5,0,0,1,0-1h9.3a.5.5,0,0,1,0,1Z"/><path class="cls-2" d="M168.06,75.46h-9.39a1.5,1.5,0,0,1-1.5-1.5V50.53a1.5,1.5,0,0,1,1.5-1.5h9.39a1.5,1.5,0,0,1,1.5,1.5V74A1.5,1.5,0,0,1,168.06,75.46ZM158.68,50a.5.5,0,0,0-.5.5V74a.5.5,0,0,0,.5.5h9.39a.5.5,0,0,0,.5-.5V50.53a.5.5,0,0,0-.5-.5Z"/><path class="cls-2" d="M169.06,53.16H157.68a.5.5,0,0,1,0-1h11.39a.5.5,0,0,1,0,1Z"/><path class="cls-2" d="M169.06,72.32H157.68a.5.5,0,0,1,0-1h11.39a.5.5,0,0,1,0,1Z"/><path class="cls-2" d="M105,75.46h-7.3a1.5,1.5,0,0,1-1.5-1.5V48.44a1.5,1.5,0,0,1,1.5-1.5H105a1.5,1.5,0,0,1,1.5,1.5V74a1.5,1.5,0,0,1-1.5,1.5m-7.3-27.51a.5.5,0,0,0-.5.5V74a.5.5,0,0,0,.5.5H105a.5.5,0,0,0,.5-.5V48.44a.5.5,0,0,0-.5-.5h-7.3"/><path class="cls-2" d="M106,51.07h-9.3a.5.5,0,0,1,0-1H106a.5.5,0,0,1,0,1Z"/><path class="cls-2" d="M106,72.32h-9.3a.5.5,0,1,1,0-1H106a.5.5,0,0,1,0,1"/><path class="cls-2" d="M75.45,120.29h-7.3a1.5,1.5,0,0,1-1.5-1.5V93.28a1.5,1.5,0,0,1,1.5-1.5h7.3a1.5,1.5,0,0,1,1.5,1.5v25.51a1.5,1.5,0,0,1-1.5,1.5m-7.3-27.51a.5.5,0,0,0-.5.5v25.51a.5.5,0,0,0,.5.5h7.3a.5.5,0,0,0,.5-.5V93.28a.5.5,0,0,0-.5-.5h-7.3"/><path class="cls-2" d="M76.45,95.91h-9.3a.5.5,0,1,1,0-1h9.3a.5.5,0,0,1,0,1"/><path class="cls-2" d="M76.45,117.16h-9.3a.5.5,0,1,1,0-1h9.3a.5.5,0,0,1,0,1"/><path class="cls-2" d="M189.79,75.46h-7.3A1.5,1.5,0,0,1,181,74V48.44a1.5,1.5,0,0,1,1.5-1.5h7.3a1.5,1.5,0,0,1,1.5,1.5V74A1.5,1.5,0,0,1,189.79,75.46Zm-7.3-27.51a.5.5,0,0,0-.5.5V74a.5.5,0,0,0,.5.5h7.3a.5.5,0,0,0,.5-.5V48.44a.5.5,0,0,0-.5-.5Z"/><path class="cls-2" d="M190.79,51.07h-9.3a.5.5,0,0,1,0-1h9.3a.5.5,0,0,1,0,1Z"/><path class="cls-2" d="M190.79,72.32h-9.3a.5.5,0,0,1,0-1h9.3a.5.5,0,0,1,0,1Z"/><path class="cls-2" d="M146.33,75.46H135.9a1.5,1.5,0,0,1-1.5-1.5V46.35a1.5,1.5,0,0,1,1.5-1.5h10.43a1.5,1.5,0,0,1,1.5,1.5V74A1.5,1.5,0,0,1,146.33,75.46ZM135.9,45.85a.5.5,0,0,0-.5.5V74a.5.5,0,0,0,.5.5h10.43a.5.5,0,0,0,.5-.5V46.35a.5.5,0,0,0-.5-.5Z"/><path class="cls-2" d="M147.33,49H134.9a.5.5,0,0,1,0-1h12.43a.5.5,0,0,1,0,1Z"/><path class="cls-2" d="M147.33,72.32H134.9a.5.5,0,0,1,0-1h12.43a.5.5,0,0,1,0,1Z"/><path class="cls-2" d="M125.65,75.46h-4.17A1.5,1.5,0,0,1,120,74V44.27a1.5,1.5,0,0,1,1.5-1.5h4.17a1.5,1.5,0,0,1,1.5,1.5V74A1.5,1.5,0,0,1,125.65,75.46Zm-4.17-31.69a.5.5,0,0,0-.5.5V74a.5.5,0,0,0,.5.5h4.17a.5.5,0,0,0,.5-.5V44.27a.5.5,0,0,0-.5-.5Z"/><path class="cls-2" d="M126.65,46.9h-6.17a.5.5,0,0,1,0-1h6.17a.5.5,0,0,1,0,1Z"/><path class="cls-2" d="M126.65,72.32h-6.17a.5.5,0,0,1,0-1h6.17a.5.5,0,0,1,0,1Z"/><path class="cls-2" d="M251.29,75.47a1.49,1.49,0,0,1-.44-.07l-4-1.22a1.5,1.5,0,0,1-1-1.87l8.7-28.39a1.5,1.5,0,0,1,1.87-1l4,1.22a1.5,1.5,0,0,1,1,1.87l-8.7,28.39A1.5,1.5,0,0,1,251.29,75.47Zm-.15-1a.5.5,0,0,0,.62-.33l8.7-28.39a.5.5,0,0,0-.33-.62l-4-1.22a.5.5,0,0,0-.62.33l-8.7,28.39a.5.5,0,0,0,.33.62Z"/><path class="cls-2" d="M260.32,48.41l-.15,0-5.9-1.81a.5.5,0,0,1,.29-1l5.9,1.81a.5.5,0,0,1-.15,1Z"/><path class="cls-2" d="M252.88,72.72l-.15,0-5.9-1.81a.5.5,0,1,1,.29-1l5.9,1.81a.5.5,0,0,1-.15,1Z"/><path class="cls-2" d="M133.9,75.46h-6.25a1.5,1.5,0,0,1-1.5-1.5V40.09a1.5,1.5,0,0,1,1.5-1.5h6.25a1.5,1.5,0,0,1,1.5,1.5V74A1.5,1.5,0,0,1,133.9,75.46Zm-6.25-35.87a.5.5,0,0,0-.5.5V74a.5.5,0,0,0,.5.5h6.25a.5.5,0,0,0,.5-.5V40.09a.5.5,0,0,0-.5-.5Z"/><path class="cls-2" d="M134.9,42.72h-8.25a.5.5,0,0,1,0-1h8.25a.5.5,0,0,1,0,1Z"/><path class="cls-2" d="M134.9,72.32h-8.25a.5.5,0,0,1,0-1h8.25a.5.5,0,0,1,0,1Z"/><path class="cls-2" d="M306.5,75.46h-4.17a1.5,1.5,0,0,1-1.5-1.5V45.31a1.5,1.5,0,0,1,1.5-1.5h4.17a1.5,1.5,0,0,1,1.5,1.5V74A1.5,1.5,0,0,1,306.5,75.46Zm-4.17-30.65a.5.5,0,0,0-.5.5V74a.5.5,0,0,0,.5.5h4.17a.5.5,0,0,0,.5-.5V45.31a.5.5,0,0,0-.5-.5Z"/><path class="cls-2" d="M307.5,47.94h-6.17a.5.5,0,0,1,0-1h6.17a.5.5,0,0,1,0,1Z"/><path class="cls-2" d="M307.5,72.32h-6.17a.5.5,0,0,1,0-1h6.17a.5.5,0,0,1,0,1Z"/><path class="cls-2" d="M221.77,75.47a1.5,1.5,0,0,1-1.34-.82L205,44.51a1.5,1.5,0,0,1,.65-2l5.57-2.85a1.5,1.5,0,0,1,2,.65l15.43,30.15a1.5,1.5,0,0,1-.65,2h0l-5.57,2.85A1.49,1.49,0,0,1,221.77,75.47Zm-9.86-35-.23.05-5.57,2.85a.5.5,0,0,0-.22.67L221.32,74.2a.5.5,0,0,0,.67.22l5.57-2.85a.5.5,0,0,0,.22-.67L212.35,40.75A.5.5,0,0,0,211.91,40.47ZM227.79,72h0Z"/><path class="cls-2" d="M206.42,46.68a.5.5,0,0,1-.23-.95L213.54,42a.5.5,0,1,1,.46.89l-7.35,3.76Z"/><path class="cls-2" d="M219.91,73a.5.5,0,0,1-.23-.95L227,68.32a.5.5,0,1,1,.46.89L220.13,73Z"/><path class="cls-2" d="M156.68,75.46h-8.34a1.5,1.5,0,0,1-1.5-1.5V29.65a1.5,1.5,0,0,1,1.5-1.5h8.34a1.5,1.5,0,0,1,1.5,1.5V74A1.5,1.5,0,0,1,156.68,75.46Zm-8.34-46.31a.5.5,0,0,0-.5.5V74a.5.5,0,0,0,.5.5h8.34a.5.5,0,0,0,.5-.5V29.65a.5.5,0,0,0-.5-.5Z"/><path class="cls-2" d="M157.68,32.28H147.33a.5.5,0,1,1,0-1h10.34a.5.5,0,0,1,0,1Z"/><path class="cls-2" d="M157.68,72.32H147.33a.5.5,0,0,1,0-1h10.34a.5.5,0,0,1,0,1Z"/><path class="cls-2" d="M300.33,75.46H288.85a1.5,1.5,0,0,1-1.5-1.5V32.78a1.5,1.5,0,0,1,1.5-1.5h11.48a1.5,1.5,0,0,1,1.5,1.5V74A1.5,1.5,0,0,1,300.33,75.46ZM288.85,32.28a.5.5,0,0,0-.5.5V74a.5.5,0,0,0,.5.5h11.48a.5.5,0,0,0,.5-.5V32.78a.5.5,0,0,0-.5-.5Z"/><path class="cls-2" d="M301.33,35.41H287.85a.5.5,0,0,1,0-1h13.48a.5.5,0,0,1,0,1Z"/><path class="cls-2" d="M301.33,72.32H287.85a.5.5,0,0,1,0-1h13.48a.5.5,0,0,1,0,1Z"/><path class="cls-2" d="M271.29,75.46h-8.34a1.5,1.5,0,0,1-1.5-1.5V29.65a1.5,1.5,0,0,1,1.5-1.5h8.34a1.5,1.5,0,0,1,1.5,1.5V74A1.5,1.5,0,0,1,271.29,75.46Zm-8.34-46.31a.5.5,0,0,0-.5.5V74a.5.5,0,0,0,.5.5h8.34a.5.5,0,0,0,.5-.5V29.65a.5.5,0,0,0-.5-.5Z"/><path class="cls-2" d="M272.29,32.28H261.95a.5.5,0,1,1,0-1h10.34a.5.5,0,0,1,0,1Z"/><path class="cls-2" d="M272.29,72.32H261.95a.5.5,0,0,1,0-1h10.34a.5.5,0,0,1,0,1Z"/><path class="cls-2" d="M95.66,75.46H85.23a1.5,1.5,0,0,1-1.5-1.5V43.22a1.5,1.5,0,0,1,1.5-1.5H95.66a1.5,1.5,0,0,1,1.5,1.5V74a1.5,1.5,0,0,1-1.5,1.5M85.23,42.72a.5.5,0,0,0-.5.5V74a.5.5,0,0,0,.5.5H95.66a.5.5,0,0,0,.5-.5V43.22a.5.5,0,0,0-.5-.5H85.23"/><path class="cls-2" d="M96.66,45.85H84.23a.5.5,0,0,1,0-1H96.66a.5.5,0,0,1,0,1Z"/><path class="cls-2" d="M96.66,72.32H84.23a.5.5,0,1,1,0-1H96.66a.5.5,0,0,1,0,1"/><path class="cls-2" d="M180.49,75.46H170.06a1.5,1.5,0,0,1-1.5-1.5V43.22a1.5,1.5,0,0,1,1.5-1.5h10.43a1.5,1.5,0,0,1,1.5,1.5V74A1.5,1.5,0,0,1,180.49,75.46ZM170.06,42.72a.5.5,0,0,0-.5.5V74a.5.5,0,0,0,.5.5h10.43a.5.5,0,0,0,.5-.5V43.22a.5.5,0,0,0-.5-.5Z"/><path class="cls-2" d="M181.49,45.85H169.06a.5.5,0,0,1,0-1h12.43a.5.5,0,0,1,0,1Z"/><path class="cls-2" d="M181.49,72.32H169.06a.5.5,0,0,1,0-1h12.43a.5.5,0,0,1,0,1Z"/><path class="cls-2" d="M286.85,75.46H273.29a1.5,1.5,0,0,1-1.5-1.5V43.22a1.5,1.5,0,0,1,1.5-1.5h13.56a1.5,1.5,0,0,1,1.5,1.5V74A1.5,1.5,0,0,1,286.85,75.46ZM273.29,42.72a.5.5,0,0,0-.5.5V74a.5.5,0,0,0,.5.5h13.56a.5.5,0,0,0,.5-.5V43.22a.5.5,0,0,0-.5-.5Z"/><path class="cls-2" d="M287.85,45.85H272.29a.5.5,0,0,1,0-1h15.56a.5.5,0,0,1,0,1Z"/><path class="cls-2" d="M287.85,72.32H272.29a.5.5,0,0,1,0-1h15.56a.5.5,0,0,1,0,1Z"/><path class="cls-2" d="M243.19,75.46h-8.26a1.55,1.55,0,0,1-1.54-1.54V43.27a1.55,1.55,0,0,1,1.54-1.54h8.26a1.55,1.55,0,0,1,1.54,1.54V73.91A1.55,1.55,0,0,1,243.19,75.46Zm-8.26-32.73a.54.54,0,0,0-.54.54V73.91a.54.54,0,0,0,.54.54h8.26a.54.54,0,0,0,.54-.54V43.27a.54.54,0,0,0-.54-.54Z"/><path class="cls-2" d="M244.23,45.85H233.89a.5.5,0,0,1,0-1h10.34a.5.5,0,0,1,0,1Z"/><path class="cls-2" d="M244.23,72.32H233.89a.5.5,0,0,1,0-1h10.34a.5.5,0,0,1,0,1Z"/><path class="cls-2" d="M119.48,75.46H107a1.5,1.5,0,0,1-1.5-1.5V40.09a1.5,1.5,0,0,1,1.5-1.5h12.52a1.5,1.5,0,0,1,1.5,1.5V74a1.5,1.5,0,0,1-1.5,1.5M107,39.59a.5.5,0,0,0-.5.5V74a.5.5,0,0,0,.5.5h12.52a.5.5,0,0,0,.5-.5V40.09a.5.5,0,0,0-.5-.5H107"/><path class="cls-2" d="M120.48,42.72H106a.5.5,0,0,1,0-1h14.52a.5.5,0,0,1,0,1Z"/><path class="cls-2" d="M120.48,72.32H106a.5.5,0,0,1,0-1h14.52a.5.5,0,1,1,0,1"/><path class="cls-2" d="M204.31,75.46H191.79a1.5,1.5,0,0,1-1.5-1.5V40.09a1.5,1.5,0,0,1,1.5-1.5h12.52a1.5,1.5,0,0,1,1.5,1.5V74A1.5,1.5,0,0,1,204.31,75.46ZM191.79,39.59a.5.5,0,0,0-.5.5V74a.5.5,0,0,0,.5.5h12.52a.5.5,0,0,0,.5-.5V40.09a.5.5,0,0,0-.5-.5Z"/><path class="cls-2" d="M205.31,42.72H190.79a.5.5,0,0,1,0-1h14.52a.5.5,0,0,1,0,1Z"/><path class="cls-2" d="M205.31,72.32H190.79a.5.5,0,0,1,0-1h14.52a.5.5,0,0,1,0,1Z"/><path class="cls-2" d="M73.93,75.46h-7.3a1.5,1.5,0,0,1-1.5-1.5V34.69a1.5,1.5,0,0,1,1.5-1.5h7.3a1.5,1.5,0,0,1,1.5,1.5V74A1.5,1.5,0,0,1,73.93,75.46Zm-7.3-41.27a.5.5,0,0,0-.5.5V74a.5.5,0,0,0,.5.5h7.3a.5.5,0,0,0,.5-.5V34.69a.5.5,0,0,0-.5-.5Z"/><path class="cls-2" d="M74.93,37.32h-9.3a.5.5,0,0,1,0-1h9.3a.5.5,0,0,1,0,1Z"/><path class="cls-2" d="M74.93,72.32h-9.3a.5.5,0,0,1,0-1h9.3a.5.5,0,0,1,0,1Z"/><path class="cls-2" d="M188.25,165.06h-8.34a1.5,1.5,0,0,1-1.5-1.5v-36a1.5,1.5,0,0,1,1.5-1.5h8.34a1.5,1.5,0,0,1,1.5,1.5v36a1.5,1.5,0,0,1-1.5,1.5m-8.34-38a.5.5,0,0,0-.5.5v36a.5.5,0,0,0,.5.5h8.34a.5.5,0,0,0,.5-.5v-36a.5.5,0,0,0-.5-.5h-8.34"/><path class="cls-2" d="M189.25,130.24H178.91a.5.5,0,1,1,0-1h10.34a.5.5,0,0,1,0,1Z"/><path class="cls-2" d="M189.25,161.92H178.91a.5.5,0,0,1,0-1h10.34a.5.5,0,0,1,0,1"/><path class="cls-2" d="M196.51,165.06h-6.26a1.5,1.5,0,0,1-1.5-1.5V132.82a1.5,1.5,0,0,1,1.5-1.5h6.26a1.5,1.5,0,0,1,1.5,1.5v30.73A1.5,1.5,0,0,1,196.51,165.06Zm-6.26-32.73a.5.5,0,0,0-.5.5v30.73a.5.5,0,0,0,.5.5h6.26a.5.5,0,0,0,.5-.5V132.82a.5.5,0,0,0-.5-.5Z"/><path class="cls-2" d="M197.51,135.46h-8.26a.5.5,0,0,1,0-1h8.26a.5.5,0,0,1,0,1Z"/><path class="cls-2" d="M197.51,161.92h-8.26a.5.5,0,0,1,0-1h8.26a.5.5,0,0,1,0,1Z"/><path class="cls-2" d="M228.39,165.06H218a1.5,1.5,0,0,1-1.5-1.5V132.82a1.5,1.5,0,0,1,1.5-1.5h10.43a1.5,1.5,0,0,1,1.5,1.5v30.73A1.5,1.5,0,0,1,228.39,165.06ZM218,132.32a.5.5,0,0,0-.5.5v30.73a.5.5,0,0,0,.5.5h10.43a.5.5,0,0,0,.5-.5V132.82a.5.5,0,0,0-.5-.5Z"/><path class="cls-2" d="M229.39,135.46H217a.5.5,0,0,1,0-1h12.43a.5.5,0,0,1,0,1Z"/><path class="cls-2" d="M229.39,161.92H217a.5.5,0,0,1,0-1h12.43a.5.5,0,0,1,0,1Z"/><path class="cls-2" d="M241.77,165.06h-5.21a1.5,1.5,0,0,1-1.5-1.5V134.91a1.5,1.5,0,0,1,1.5-1.5h5.21a1.5,1.5,0,0,1,1.5,1.5v28.65A1.5,1.5,0,0,1,241.77,165.06Zm-5.21-30.65a.5.5,0,0,0-.5.5v28.65a.5.5,0,0,0,.5.5h5.21a.5.5,0,0,0,.5-.5V134.91a.5.5,0,0,0-.5-.5Z"/><path class="cls-2" d="M242.77,137.54h-7.21a.5.5,0,0,1,0-1h7.21a.5.5,0,0,1,0,1Z"/><path class="cls-2" d="M242.77,161.92h-7.21a.5.5,0,0,1,0-1h7.21a.5.5,0,0,1,0,1Z"/><path class="cls-2" d="M293.58,165.06H283.15a1.5,1.5,0,0,1-1.5-1.5V132.82a1.5,1.5,0,0,1,1.5-1.5h10.43a1.5,1.5,0,0,1,1.5,1.5v30.73A1.5,1.5,0,0,1,293.58,165.06Zm-10.43-32.73a.5.5,0,0,0-.5.5v30.73a.5.5,0,0,0,.5.5h10.43a.5.5,0,0,0,.5-.5V132.82a.5.5,0,0,0-.5-.5Z"/><path class="cls-2" d="M294.58,135.46H282.15a.5.5,0,0,1,0-1h12.43a.5.5,0,0,1,0,1Z"/><path class="cls-2" d="M294.58,161.92H282.15a.5.5,0,0,1,0-1h12.43a.5.5,0,0,1,0,1Z"/><path class="cls-2" d="M265.83,165.06a1.55,1.55,0,0,1-1.47-1.08l-9.25-29.22a1.55,1.55,0,0,1,1-1.94l3.89-1.23a1.55,1.55,0,0,1,1.94,1l9.24,29.22a1.55,1.55,0,0,1-1,1.94L266.3,165A1.54,1.54,0,0,1,265.83,165.06Zm-5.36-32.54-.16,0-3.89,1.23a.54.54,0,0,0-.35.68l9.25,29.22a.54.54,0,0,0,.68.35l3.89-1.23a.54.54,0,0,0,.35-.68L261,132.9A.55.55,0,0,0,260.48,132.52Z"/><path class="cls-2" d="M256.22,137.1a.5.5,0,0,1-.15-1l5.88-1.86a.5.5,0,0,1,.3,1l-5.88,1.86Z"/><path class="cls-2" d="M264.21,162.34a.5.5,0,0,1-.15-1l5.88-1.86a.5.5,0,0,1,.3,1l-5.88,1.86Z"/><path class="cls-2" d="M281.15,165.06H274.9a1.5,1.5,0,0,1-1.5-1.5v-36a1.5,1.5,0,0,1,1.5-1.5h6.26a1.5,1.5,0,0,1,1.5,1.5v36A1.5,1.5,0,0,1,281.15,165.06Zm-6.26-38a.5.5,0,0,0-.5.5v36a.5.5,0,0,0,.5.5h6.26a.5.5,0,0,0,.5-.5v-36a.5.5,0,0,0-.5-.5Z"/><path class="cls-2" d="M282.15,130.24H273.9a.5.5,0,0,1,0-1h8.26a.5.5,0,0,1,0,1Z"/><path class="cls-2" d="M282.15,161.92H273.9a.5.5,0,0,1,0-1h8.26a.5.5,0,0,1,0,1Z"/><path class="cls-2" d="M303.93,165.06h-8.34a1.5,1.5,0,0,1-1.5-1.5v-36a1.5,1.5,0,0,1,1.5-1.5h8.34a1.5,1.5,0,0,1,1.5,1.5v36A1.5,1.5,0,0,1,303.93,165.06Zm-8.34-38a.5.5,0,0,0-.5.5v36a.5.5,0,0,0,.5.5h8.34a.5.5,0,0,0,.5-.5v-36a.5.5,0,0,0-.5-.5Z"/><path class="cls-2" d="M304.93,130.24H294.58a.5.5,0,0,1,0-1h10.34a.5.5,0,0,1,0,1Z"/><path class="cls-2" d="M304.93,161.92H294.58a.5.5,0,0,1,0-1h10.34a.5.5,0,0,1,0,1Z"/><path class="cls-2" d="M68.24,165.06H57.81a1.5,1.5,0,0,1-1.5-1.5V142.22a1.5,1.5,0,0,1,1.5-1.5H68.24a1.5,1.5,0,0,1,1.5,1.5v21.34a1.5,1.5,0,0,1-1.5,1.5M57.81,141.72a.5.5,0,0,0-.5.5v21.34a.5.5,0,0,0,.5.5H68.24a.5.5,0,0,0,.5-.5V142.22a.5.5,0,0,0-.5-.5H57.81"/><path class="cls-2" d="M69.24,144.85H56.81a.5.5,0,0,1,0-1H69.24a.5.5,0,0,1,0,1"/><path class="cls-2" d="M69.24,161.92H56.81a.5.5,0,0,1,0-1H69.24a.5.5,0,0,1,0,1"/><path class="cls-2" d="M76.49,165.06H70.24a1.5,1.5,0,0,1-1.5-1.5V137a1.5,1.5,0,0,1,1.5-1.5h6.25A1.5,1.5,0,0,1,78,137v26.56a1.5,1.5,0,0,1-1.5,1.5M70.24,136.5a.5.5,0,0,0-.5.5v26.56a.5.5,0,0,0,.5.5h6.25a.5.5,0,0,0,.5-.5V137a.5.5,0,0,0-.5-.5H70.24"/><path class="cls-2" d="M77.49,139.63H69.24a.5.5,0,1,1,0-1h8.25a.5.5,0,1,1,0,1"/><path class="cls-2" d="M77.49,161.92H69.24a.5.5,0,1,1,0-1h8.25a.5.5,0,1,1,0,1"/><path class="cls-2" d="M55.81,165.06H47.46a1.5,1.5,0,0,1-1.5-1.5V137a1.5,1.5,0,0,1,1.5-1.5h8.34a1.5,1.5,0,0,1,1.5,1.5v26.56A1.5,1.5,0,0,1,55.81,165.06ZM47.46,136.5a.5.5,0,0,0-.5.5v26.56a.5.5,0,0,0,.5.5h8.34a.5.5,0,0,0,.5-.5V137a.5.5,0,0,0-.5-.5Z"/><path class="cls-2" d="M56.81,139.63H46.46a.5.5,0,1,1,0-1H56.81a.5.5,0,1,1,0,1Z"/><path class="cls-2" d="M56.81,161.92H46.46a.5.5,0,1,1,0-1H56.81a.5.5,0,1,1,0,1Z"/><path class="cls-2" d="M234.56,165.06h-4.17a1.5,1.5,0,0,1-1.5-1.5V129.69a1.5,1.5,0,0,1,1.5-1.5h4.17a1.5,1.5,0,0,1,1.5,1.5v33.87A1.5,1.5,0,0,1,234.56,165.06Zm-4.17-35.87a.5.5,0,0,0-.5.5v33.87a.5.5,0,0,0,.5.5h4.17a.5.5,0,0,0,.5-.5V129.69a.5.5,0,0,0-.5-.5Z"/><path class="cls-2" d="M235.56,132.32h-6.17a.5.5,0,0,1,0-1h6.17a.5.5,0,1,1,0,1Z"/><path class="cls-2" d="M235.56,161.92h-6.17a.5.5,0,0,1,0-1h6.17a.5.5,0,0,1,0,1Z"/><path class="cls-2" d="M254.2,165.06H243.77a1.5,1.5,0,0,1-1.5-1.5v-36a1.5,1.5,0,0,1,1.5-1.5H254.2a1.5,1.5,0,0,1,1.5,1.5v36A1.5,1.5,0,0,1,254.2,165.06Zm-10.43-38a.5.5,0,0,0-.5.5v36a.5.5,0,0,0,.5.5H254.2a.5.5,0,0,0,.5-.5v-36a.5.5,0,0,0-.5-.5Z"/><path class="cls-2" d="M255.2,130.24H242.77a.5.5,0,0,1,0-1H255.2a.5.5,0,1,1,0,1Z"/><path class="cls-2" d="M255.2,161.92H242.77a.5.5,0,0,1,0-1H255.2a.5.5,0,0,1,0,1Z"/><path class="cls-2" d="M205.7,165.07a1.5,1.5,0,0,1-1.47-1.2L197,128.45a1.5,1.5,0,0,1,1.17-1.77l8.18-1.66a1.5,1.5,0,0,1,1.77,1.17l7.21,35.41a1.5,1.5,0,0,1-1.17,1.77L206,165A1.51,1.51,0,0,1,205.7,165.07Zm1-39.08h-.1l-8.18,1.66a.5.5,0,0,0-.39.59l7.21,35.41a.5.5,0,0,0,.59.39l8.18-1.66a.5.5,0,0,0,.39-.59l-7.21-35.41A.5.5,0,0,0,206.67,126Zm7.41,36.89h0Z"/><path class="cls-2" d="M197.94,130.94a.5.5,0,0,1-.1-1L208,127.89a.5.5,0,0,1,.2,1L198,130.93Z"/><path class="cls-2" d="M204.3,162.17a.5.5,0,0,1-.1-1l10.14-2.06a.5.5,0,0,1,.2,1l-10.14,2.06Z"/><path class="cls-2" d="M55.81,120.29H49.55a1.5,1.5,0,0,1-1.5-1.5V84.92a1.5,1.5,0,0,1,1.5-1.5h6.26a1.5,1.5,0,0,1,1.5,1.5v33.87A1.5,1.5,0,0,1,55.81,120.29ZM49.55,84.42a.5.5,0,0,0-.5.5v33.87a.5.5,0,0,0,.5.5h6.26a.5.5,0,0,0,.5-.5V84.92a.5.5,0,0,0-.5-.5Z"/><path class="cls-2" d="M56.81,87.56H48.55a.5.5,0,0,1,0-1h8.26a.5.5,0,0,1,0,1Z"/><path class="cls-2" d="M56.81,117.16H48.55a.5.5,0,0,1,0-1h8.26a.5.5,0,0,1,0,1Z"/><path class="cls-2" d="M66.15,120.29H57.81a1.5,1.5,0,0,1-1.5-1.5V91.19a1.5,1.5,0,0,1,1.5-1.5h8.34a1.5,1.5,0,0,1,1.5,1.5v27.6a1.5,1.5,0,0,1-1.5,1.5m-8.34-29.6a.5.5,0,0,0-.5.5v27.6a.5.5,0,0,0,.5.5h8.34a.5.5,0,0,0,.5-.5V91.19a.5.5,0,0,0-.5-.5H57.81"/><path class="cls-2" d="M67.15,93.82H56.81a.5.5,0,0,1,0-1H67.15a.5.5,0,0,1,0,1"/><path class="cls-2" d="M67.15,117.16H56.81a.5.5,0,0,1,0-1H67.15a.5.5,0,0,1,0,1"/><path class="cls-2" d="M307.17,120.29h-7.3a1.5,1.5,0,0,1-1.5-1.5V93.28a1.5,1.5,0,0,1,1.5-1.5h7.3a1.5,1.5,0,0,1,1.5,1.5v25.51A1.5,1.5,0,0,1,307.17,120.29Zm-7.3-27.51a.5.5,0,0,0-.5.5v25.51a.5.5,0,0,0,.5.5h7.3a.5.5,0,0,0,.5-.5V93.28a.5.5,0,0,0-.5-.5Z"/><path class="cls-2" d="M308.17,95.91h-9.3a.5.5,0,0,1,0-1h9.3a.5.5,0,0,1,0,1Z"/><path class="cls-2" d="M308.17,117.16h-9.3a.5.5,0,0,1,0-1h9.3a.5.5,0,0,1,0,1Z"/><path class="cls-2" d="M297.87,120.29h-6.25a1.5,1.5,0,0,1-1.5-1.5V84.92a1.5,1.5,0,0,1,1.5-1.5h6.25a1.5,1.5,0,0,1,1.5,1.5v33.87A1.5,1.5,0,0,1,297.87,120.29Zm-6.25-35.87a.5.5,0,0,0-.5.5v33.87a.5.5,0,0,0,.5.5h6.25a.5.5,0,0,0,.5-.5V84.92a.5.5,0,0,0-.5-.5Z"/><path class="cls-2" d="M298.87,87.56h-8.25a.5.5,0,0,1,0-1h8.25a.5.5,0,0,1,0,1Z"/><path class="cls-2" d="M298.87,117.16h-8.25a.5.5,0,0,1,0-1h8.25a.5.5,0,0,1,0,1Z"/><path class="cls-2" d="M289.62,120.29h-8.34a1.5,1.5,0,0,1-1.5-1.5V91.19a1.5,1.5,0,0,1,1.5-1.5h8.34a1.5,1.5,0,0,1,1.5,1.5v27.6A1.5,1.5,0,0,1,289.62,120.29Zm-8.34-29.6a.5.5,0,0,0-.5.5v27.6a.5.5,0,0,0,.5.5h8.34a.5.5,0,0,0,.5-.5V91.19a.5.5,0,0,0-.5-.5Z"/><path class="cls-2" d="M290.62,93.82H280.28a.5.5,0,0,1,0-1h10.34a.5.5,0,0,1,0,1Z"/><path class="cls-2" d="M290.62,117.16H280.28a.5.5,0,0,1,0-1h10.34a.5.5,0,0,1,0,1Z"/><path class="cls-2" d="M263.87,120.3a1.51,1.51,0,0,1-.42-.06l-7-2a1.5,1.5,0,0,1-1-1.86l7.16-24.49a1.5,1.5,0,0,1,1.86-1l7,2a1.5,1.5,0,0,1,1,1.86l-7.16,24.49a1.5,1.5,0,0,1-1.44,1.08ZM264,91.76l-.24.06a.5.5,0,0,0-.24.3l-7.16,24.49a.5.5,0,0,0,.34.62l7,2a.5.5,0,0,0,.62-.34l7.16-24.49a.5.5,0,0,0-.34-.62l-7-2Z"/><path class="cls-2" d="M271.39,97.14l-.14,0-8.92-2.61a.5.5,0,1,1,.28-1l8.93,2.61a.5.5,0,0,1-.14,1Z"/><path class="cls-2" d="M265.43,117.53l-.14,0-8.93-2.61a.5.5,0,1,1,.28-1l8.93,2.61a.5.5,0,0,1-.14,1Z"/><path class="cls-2" d="M198.52,120.29h-7.3a1.5,1.5,0,0,1-1.5-1.5V93.28a1.5,1.5,0,0,1,1.5-1.5h7.3a1.5,1.5,0,0,1,1.5,1.5v25.51A1.5,1.5,0,0,1,198.52,120.29Zm-7.3-27.51a.5.5,0,0,0-.5.5v25.51a.5.5,0,0,0,.5.5h7.3a.5.5,0,0,0,.5-.5V93.28a.5.5,0,0,0-.5-.5Z"/><path class="cls-2" d="M199.52,95.91h-9.3a.5.5,0,0,1,0-1h9.3a.5.5,0,0,1,0,1Z"/><path class="cls-2" d="M199.52,117.16h-9.3a.5.5,0,0,1,0-1h9.3a.5.5,0,0,1,0,1Z"/><path class="cls-2" d="M211,120.29H200.52a1.5,1.5,0,0,1-1.5-1.5V91.19a1.5,1.5,0,0,1,1.5-1.5H211a1.5,1.5,0,0,1,1.5,1.5v27.6A1.5,1.5,0,0,1,211,120.29Zm-10.43-29.6a.5.5,0,0,0-.5.5v27.6a.5.5,0,0,0,.5.5H211a.5.5,0,0,0,.5-.5V91.19a.5.5,0,0,0-.5-.5Z"/><path class="cls-2" d="M212,93.82H199.52a.5.5,0,0,1,0-1H212a.5.5,0,0,1,0,1Z"/><path class="cls-2" d="M212,117.16H199.52a.5.5,0,0,1,0-1H212a.5.5,0,0,1,0,1Z"/><path class="cls-2" d="M217.54,120.3a1.5,1.5,0,0,1-1.48-1.27l-4.6-29.33A1.5,1.5,0,0,1,212.71,88l4.12-.65a1.5,1.5,0,0,1,1.71,1.25l4.6,29.33a1.5,1.5,0,0,1-1.25,1.71l-4.12.65Zm.16-.51h0Zm-.64-31.46H217l-4.12.65a.5.5,0,0,0-.42.57l4.6,29.33a.51.51,0,0,0,.57.42l4.12-.65a.5.5,0,0,0,.42-.57l-4.6-29.33a.5.5,0,0,0-.49-.42Z"/><path class="cls-2" d="M212.29,92.23a.5.5,0,0,1-.08-1l6.09-1a.5.5,0,0,1,.57.42.5.5,0,0,1-.42.57l-6.09,1Z"/><path class="cls-2" d="M216.23,117.34a.5.5,0,0,1-.08-1l6.09-1a.5.5,0,1,1,.16,1l-6.09,1Z"/><path class="cls-2" d="M279.28,120.29H273a1.5,1.5,0,0,1-1.5-1.5V84.92a1.5,1.5,0,0,1,1.5-1.5h6.25a1.5,1.5,0,0,1,1.5,1.5v33.87A1.5,1.5,0,0,1,279.28,120.29ZM273,84.42a.5.5,0,0,0-.5.5v33.87a.5.5,0,0,0,.5.5h6.25a.5.5,0,0,0,.5-.5V84.92a.5.5,0,0,0-.5-.5Z"/><path class="cls-2" d="M280.28,87.56H272a.5.5,0,0,1,0-1h8.25a.5.5,0,0,1,0,1Z"/><path class="cls-2" d="M280.28,117.16H272a.5.5,0,0,1,0-1h8.25a.5.5,0,0,1,0,1Z"/><path class="cls-2" d="M237.22,120.29H226.79a1.5,1.5,0,0,1-1.5-1.5V88.06a1.5,1.5,0,0,1,1.5-1.5h10.43a1.5,1.5,0,0,1,1.5,1.5v30.73A1.5,1.5,0,0,1,237.22,120.29ZM226.79,87.56a.5.5,0,0,0-.5.5v30.73a.5.5,0,0,0,.5.5h10.43a.5.5,0,0,0,.5-.5V88.06a.5.5,0,0,0-.5-.5Z"/><path class="cls-2" d="M238.22,90.69H225.79a.5.5,0,0,1,0-1h12.43a.5.5,0,0,1,0,1Z"/><path class="cls-2" d="M238.22,117.16H225.79a.5.5,0,0,1,0-1h12.43a.5.5,0,0,1,0,1Z"/><path class="cls-2" d="M251.74,120.29H239.22a1.5,1.5,0,0,1-1.5-1.5V84.92a1.5,1.5,0,0,1,1.5-1.5h12.52a1.5,1.5,0,0,1,1.5,1.5v33.87A1.5,1.5,0,0,1,251.74,120.29ZM239.22,84.42a.5.5,0,0,0-.5.5v33.87a.5.5,0,0,0,.5.5h12.52a.5.5,0,0,0,.5-.5V84.92a.5.5,0,0,0-.5-.5Z"/><path class="cls-2" d="M252.74,87.56H238.22a.5.5,0,0,1,0-1h14.52a.5.5,0,1,1,0,1Z"/><path class="cls-2" d="M252.74,117.16H238.22a.5.5,0,0,1,0-1h14.52a.5.5,0,0,1,0,1Z"/><path class="cls-2" d="M189.22,120.29h-7.3a1.5,1.5,0,0,1-1.5-1.5v-34a1.5,1.5,0,0,1,1.5-1.5h7.3a1.5,1.5,0,0,1,1.5,1.5v34A1.5,1.5,0,0,1,189.22,120.29Zm-7.3-36a.5.5,0,0,0-.5.5v34a.5.5,0,0,0,.5.5h7.3a.5.5,0,0,0,.5-.5v-34a.5.5,0,0,0-.5-.5Z"/><path class="cls-2" d="M190.22,87.37h-9.3a.5.5,0,0,1,0-1h9.3a.5.5,0,0,1,0,1Z"/><path class="cls-2" d="M190.22,117.16h-9.3a.5.5,0,0,1,0-1h9.3a.5.5,0,0,1,0,1Z"/><polyline class="cls-2" points="310.85 78.58 43.68 78.58 43.68 74.95 310.85 74.95 310.85 78.58"/><path class="cls-2" d="M310.85,79.08H43.68a.5.5,0,0,1-.5-.5V75a.5.5,0,0,1,.5-.5H310.85a.5.5,0,0,1,.5.5v3.63a.5.5,0,0,1-.5.5m-266.66-1H310.35V75.46H44.18v2.63"/><polyline class="cls-2" points="310.85 123.42 43.68 123.42 43.68 119.79 310.85 119.79 310.85 123.42"/><path class="cls-2" d="M310.85,123.92H43.68a.5.5,0,0,1-.5-.5v-3.63a.5.5,0,0,1,.5-.5H310.85a.5.5,0,0,1,.5.5v3.63a.5.5,0,0,1-.5.5m-266.66-1H310.35v-2.63H44.18v2.63"/><polyline class="cls-2" points="43.6 181.35 312.4 181.35 312.4 164.65 43.6 164.65 43.6 181.35"/><path class="cls-3" d="M312.4,165.15H43.6a.5.5,0,1,1,0-1H312.4a.5.5,0,0,1,0,1"/><path class="cls-3" d="M312.4,181.85H43.6a.5.5,0,0,1,0-1H312.4a.5.5,0,0,1,0,1Z"/><path class="cls-4" d="M76.32,178.28a103.12,103.12,0,0,1-26.73-3.53.5.5,0,0,1,.26-1A102.13,102.13,0,0,0,84.28,177c8.85-.69,17.77-2.55,26.41-4.35,13.58-2.84,27.63-5.77,41.61-4.14a.5.5,0,1,1-.12,1c-13.82-1.6-27.78,1.31-41.29,4.13-8.66,1.81-17.62,3.68-26.53,4.37Q80.34,178.28,76.32,178.28Z"/><path class="cls-4" d="M152.57,174.89a16,16,0,0,1-5.55-1,.5.5,0,0,1,.35-.94,15.62,15.62,0,0,0,7.61.73,21.31,21.31,0,0,0,7.31-2.55.5.5,0,0,1,.49.87,22.3,22.3,0,0,1-7.66,2.67A18,18,0,0,1,152.57,174.89Z"/><path class="cls-4" d="M154.31,178.67c-6.08,0-13.09-1.17-19.12-5.22a.5.5,0,0,1,.56-.83c8,5.39,17.89,5.51,24.75,4.66,6.6-.82,13.11-2.75,19.41-4.63,1.93-.57,3.86-1.15,5.79-1.69,7.76-2.18,16.9-4.25,25.93-3a.5.5,0,0,1-.14,1c-8.84-1.22-17.86.82-25.52,3-1.93.54-3.85,1.11-5.77,1.69-6.34,1.89-12.89,3.84-19.57,4.66A51.64,51.64,0,0,1,154.31,178.67Z"/><path class="cls-4" d="M272.06,176.16a66.58,66.58,0,0,1-9.49-.91c-1.21-.17-2.41-.35-3.62-.5-4.12-.51-9.45-.84-14.1,1.07a.5.5,0,1,1-.38-.92c4.87-2,10.36-1.66,14.61-1.14,1.21.15,2.43.32,3.64.5a57,57,0,0,0,10.75.87c4.39-.21,8.78-1.46,13-2.67,5.6-1.6,11.4-3.25,17.27-2.53a.5.5,0,0,1,.43.56.49.49,0,0,1-.56.43c-5.68-.7-11.37.92-16.88,2.49-4.3,1.23-8.75,2.5-13.26,2.71Q272.78,176.16,272.06,176.16Z"/><path class="cls-4" d="M298.24,177.11q-1.66,0-3.31-.13a.5.5,0,1,1,.08-1,40.21,40.21,0,0,0,8.92-.27.5.5,0,1,1,.14,1A41.14,41.14,0,0,1,298.24,177.11Z"/><path class="cls-4" d="M121.83,176.6a.5.5,0,0,1-.28-.91,7.56,7.56,0,0,1,8-.24.5.5,0,1,1-.52.86,6.53,6.53,0,0,0-6.88.21A.5.5,0,0,1,121.83,176.6Z"/><path class="cls-4" d="M76,174.8a48.91,48.91,0,0,1-5.57-.29,8,8,0,0,1-3.52-1,1.14,1.14,0,0,1-.5-.61c-.06-.24-.1-.85,1-1.27a9.82,9.82,0,0,1,2.31-.51,40.5,40.5,0,0,1,11.35.16.5.5,0,0,1-.16,1,39.47,39.47,0,0,0-11.06-.15,9,9,0,0,0-2.07.45,1.65,1.65,0,0,0-.28.14,7.4,7.4,0,0,0,3.06.84,61.77,61.77,0,0,0,9.67.17,39.56,39.56,0,0,0,5.93-.6,9.68,9.68,0,0,0,2.09-.62c.57-.26.8-.52.8-.62s-.12-.32-.76-.64a14.32,14.32,0,0,0-3.49-1.06A58.8,58.8,0,0,0,74.9,169a.5.5,0,0,1-.48-.52.49.49,0,0,1,.52-.48A59.79,59.79,0,0,1,85,169.17a15.17,15.17,0,0,1,3.74,1.15c.9.46,1.35,1,1.31,1.59s-.51,1.08-1.39,1.47a10.6,10.6,0,0,1-2.31.69,40.39,40.39,0,0,1-6.08.62C79,174.75,77.52,174.8,76,174.8Z"/><path class="cls-4" d="M202.7,177.5c-2.39,0-4.13-.48-4.71-1.77-.26-.59-.46-1.77,1.2-3,2.46-1.81,8.12-2.92,9.75-1.48a.5.5,0,0,1,.15.24,1.53,1.53,0,0,1-.11,1.25,2.06,2.06,0,0,1-1.41.85.5.5,0,1,1-.21-1,1.2,1.2,0,0,0,.76-.39.44.44,0,0,0,0-.31c-1.27-.8-6.1-.06-8.38,1.62-.83.61-1.13,1.21-.88,1.77,1.08,2.41,10.49.45,13.58-.19l1.44-.29c3.82-.67,7.72-1.48,11.48-2.27,11.23-2.34,22.84-4.77,34.55-3.79a.5.5,0,0,1,.46.54.49.49,0,0,1-.54.46c-11.56-1-23.1,1.44-34.26,3.77-3.77.79-7.68,1.6-11.52,2.27l-1.41.28A53.88,53.88,0,0,1,202.7,177.5Z"/><path class="cls-5" d="M120.66,164.65H67.87a2,2,0,0,1-2-2V93.37a2,2,0,0,1,2-2h52.79a2,2,0,0,1,2,2v69.28a2,2,0,0,1-2,2"/><path class="cls-3" d="M120.66,165.15H67.87a2.5,2.5,0,0,1-2.5-2.5V93.37a2.5,2.5,0,0,1,2.5-2.5h52.79a2.5,2.5,0,0,1,2.5,2.5v69.28a2.5,2.5,0,0,1-2.5,2.5M67.87,91.87a1.5,1.5,0,0,0-1.5,1.5v69.28a1.5,1.5,0,0,0,1.5,1.5h52.79a1.5,1.5,0,0,0,1.5-1.5V93.37a1.5,1.5,0,0,0-1.5-1.5H67.87"/><g class="cls-6"><rect class="cls-7" x="66.37" y="91.87" width="14.62" height="72.28"/></g><path class="cls-3" d="M120.66,165.15H67.87a2.5,2.5,0,0,1-2.5-2.5V93.37a2.5,2.5,0,0,1,2.5-2.5h52.79a2.5,2.5,0,0,1,2.5,2.5v69.28a2.5,2.5,0,0,1-2.5,2.5M67.87,91.87a1.5,1.5,0,0,0-1.5,1.5v69.28a1.5,1.5,0,0,0,1.5,1.5h52.79a1.5,1.5,0,0,0,1.5-1.5V93.37a1.5,1.5,0,0,0-1.5-1.5H67.87"/><polyline class="cls-2" points="122.16 95.8 66.37 95.8 66.37 94.8 122.16 94.8 122.16 95.8"/><polyline class="cls-2" points="122.16 160.72 66.37 160.72 66.37 159.72 122.16 159.72 122.16 160.72"/><path class="cls-8" d="M74.86,145.87a.42.42,0,0,0-.33.15.51.51,0,0,0-.13.34.52.52,0,0,0,.11.33,1.76,1.76,0,0,1,.35,1.06,1.33,1.33,0,0,1-.4,1,1.34,1.34,0,0,1-1,.4h0a1.36,1.36,0,0,1-1.36-1.36,1.78,1.78,0,0,1,.31-1,.7.7,0,0,0,.09-.35.47.47,0,0,0-.14-.34.47.47,0,0,0-.35-.15.43.43,0,0,0-.36.2,2.75,2.75,0,0,0-.44,1.59,2.49,2.49,0,0,0,.66,1.78,2.13,2.13,0,0,0,1.61.7h0a2.1,2.1,0,0,0,1.6-.69,2.43,2.43,0,0,0,.65-1.72,2.64,2.64,0,0,0-.55-1.71.4.4,0,0,0-.33-.18"/><path class="cls-8" d="M73.83,142.78l-1.45-.66,1.45-.66v1.32m1.41-3-.2.05-3.45,1.66a.62.62,0,0,0-.38.6v.06a.63.63,0,0,0,.38.61l3.45,1.66.21.06a.41.41,0,0,0,.32-.14.48.48,0,0,0,.13-.34.5.5,0,0,0-.3-.48l-.71-.33v-2.09l.68-.32a.52.52,0,0,0,.33-.5.5.5,0,0,0-.13-.35.43.43,0,0,0-.32-.14"/><path class="cls-8" d="M75.23,134.67a.4.4,0,0,0-.31.14.48.48,0,0,0-.13.33v1.94H71.72a.44.44,0,0,0-.33.15.56.56,0,0,0,0,.74.45.45,0,0,0,.34.15h3.46a.45.45,0,0,0,.34-.15.53.53,0,0,0,.14-.37v-2.46a.48.48,0,0,0-.13-.33.4.4,0,0,0-.31-.14"/><path class="cls-8" d="M74.86,129.29a.42.42,0,0,0-.33.15.5.5,0,0,0-.13.34.52.52,0,0,0,.11.33,1.76,1.76,0,0,1,.35,1.06,1.33,1.33,0,0,1-.4,1,1.34,1.34,0,0,1-1,.4h0a1.36,1.36,0,0,1-1.36-1.36,1.78,1.78,0,0,1,.31-1,.69.69,0,0,0,.09-.35.47.47,0,0,0-.14-.34.47.47,0,0,0-.35-.15.43.43,0,0,0-.36.2,2.75,2.75,0,0,0-.44,1.59,2.49,2.49,0,0,0,.66,1.78,2.13,2.13,0,0,0,1.61.7h0a2.1,2.1,0,0,0,1.6-.69,2.43,2.43,0,0,0,.65-1.72,2.63,2.63,0,0,0-.55-1.71.4.4,0,0,0-.33-.18"/><path class="cls-8" d="M73.76,123.49h-2a.45.45,0,0,0-.34.15.56.56,0,0,0,0,.74.45.45,0,0,0,.34.15H73.8a1.06,1.06,0,0,1,.78.27,1,1,0,0,1,.27.76,1,1,0,0,1-.28.76,1.12,1.12,0,0,1-.8.27h-2a.45.45,0,0,0-.34.15.52.52,0,0,0-.14.37.53.53,0,0,0,.14.37.45.45,0,0,0,.34.15H73.8a1.85,1.85,0,0,0,1.44-.54,2.16,2.16,0,0,0,.5-1.52,2.2,2.2,0,0,0-.5-1.53,1.89,1.89,0,0,0-1.48-.55"/><path class="cls-8" d="M75.23,118.16a.4.4,0,0,0-.31.14.48.48,0,0,0-.13.33v1.94H71.72a.44.44,0,0,0-.33.15.56.56,0,0,0,0,.74.45.45,0,0,0,.34.15h3.46a.45.45,0,0,0,.34-.15.53.53,0,0,0,.14-.37v-2.46a.48.48,0,0,0-.13-.33.4.4,0,0,0-.31-.14"/><path class="cls-8" d="M73.76,112.67h-2a.45.45,0,0,0-.34.15.56.56,0,0,0,0,.74.45.45,0,0,0,.34.15H73.8a1.06,1.06,0,0,1,.78.27,1,1,0,0,1,.27.76,1,1,0,0,1-.28.76,1.12,1.12,0,0,1-.8.27h-2a.45.45,0,0,0-.34.15.52.52,0,0,0-.14.37.53.53,0,0,0,.14.37.45.45,0,0,0,.34.15H73.8a1.86,1.86,0,0,0,1.44-.54,2.16,2.16,0,0,0,.5-1.52,2.2,2.2,0,0,0-.5-1.53,1.89,1.89,0,0,0-1.48-.55"/><path class="cls-8" d="M74.35,107.36a1,1,0,0,0-.83.36,2.68,2.68,0,0,0-.46,1.07,4.66,4.66,0,0,1-.27.9.34.34,0,0,1-.32.2h0a.33.33,0,0,1-.27-.16.81.81,0,0,1-.11-.45,2.21,2.21,0,0,1,.29-1,.65.65,0,0,0,.07-.3.46.46,0,0,0-.13-.31.46.46,0,0,0-.35-.14.38.38,0,0,0-.35.23,2.82,2.82,0,0,0-.39,1.45,2,2,0,0,0,.36,1.25,1.15,1.15,0,0,0,1,.46h0a1.26,1.26,0,0,0,.54-.11,1.32,1.32,0,0,0,.61-.81,6.53,6.53,0,0,0,.2-.74,2.63,2.63,0,0,1,.23-.68.34.34,0,0,1,.3-.19h0a.34.34,0,0,1,.3.18,1,1,0,0,1,.11.5,2.18,2.18,0,0,1-.39,1.22.6.6,0,0,0-.09.32.48.48,0,0,0,.13.33.44.44,0,0,0,.34.14.38.38,0,0,0,.34-.2,3.17,3.17,0,0,0,.53-1.79,2,2,0,0,0-.36-1.27,1.18,1.18,0,0,0-1-.48h0"/><path class="cls-3" d="M81,163.06a.5.5,0,0,1-.5-.5V93.45a.5.5,0,0,1,1,0v69.1A.5.5,0,0,1,81,163.06Z"/><path class="cls-7" d="M90,160.72H85.86v3.42h4.69a2.57,2.57,0,0,1-.55-1.59v-1.84M90,95.8H85.86v63.92H90V95.8m0-3.94H85.86V94.8H90V91.87"/><path class="cls-9" d="M90.55,164.15H85.86v.5h5.2c-.09,0-.17-.07-.24-.2a2.61,2.61,0,0,1-.27-.3M90,91.37H85.86v.5H90v-.5"/><polyline class="cls-10" points="90 94.8 85.86 94.8 85.86 95.8 90 95.8 90 94.8"/><polyline class="cls-10" points="90 159.72 85.86 159.72 85.86 160.72 90 160.72 90 159.72"/><path class="cls-11" d="M160.86,53.78H92.59a2.09,2.09,0,0,0-2.09,2.09V162.56a2.09,2.09,0,0,0,2.09,2.09h68.27a2.09,2.09,0,0,0,2.09-2.09V55.87a2.09,2.09,0,0,0-2.09-2.09"/><path class="cls-3" d="M160.86,165.15H92.59A2.59,2.59,0,0,1,90,162.56V55.86a2.59,2.59,0,0,1,2.59-2.59h68.27a2.59,2.59,0,0,1,2.59,2.59V162.56a2.59,2.59,0,0,1-2.59,2.59M92.59,54.28A1.59,1.59,0,0,0,91,55.86V162.56a1.59,1.59,0,0,0,1.59,1.59h68.27a1.59,1.59,0,0,0,1.59-1.59V55.86a1.59,1.59,0,0,0-1.59-1.59H92.59"/><path class="cls-12" d="M91.06,53.78h0c-.09,0-.17.07-.24.2l.24-.2"/><path class="cls-13" d="M100.44,120.16h0a1.24,1.24,0,0,0-1,.4,1.46,1.46,0,0,0-.37,1v.81h2.64v-.81a1.49,1.49,0,0,0-.36-1,1.21,1.21,0,0,0-.94-.39m.39,27.5h.92V145.5a.47.47,0,0,1,.13-.33.39.39,0,0,1,.3-.14.4.4,0,0,1,.3.14.47.47,0,0,1,.13.33v2.67a.53.53,0,0,1-.14.37.45.45,0,0,1-.34.15H98.71a.45.45,0,0,1-.34-.15.53.53,0,0,1-.14-.37v-2.63a.48.48,0,0,1,.13-.33.39.39,0,0,1,.3-.14.41.41,0,0,1,.31.14.47.47,0,0,1,.13.34v2.12H100v-1.82a.47.47,0,0,1,.13-.33.4.4,0,0,1,.3-.14.4.4,0,0,1,.3.14.48.48,0,0,1,.13.34v1.82m-2.16-7.35a.45.45,0,0,1-.34-.15.56.56,0,0,1,0-.74.45.45,0,0,1,.34-.15h2a1.89,1.89,0,0,1,1.48.55,2.2,2.2,0,0,1,.5,1.53,2.16,2.16,0,0,1-.5,1.52,1.85,1.85,0,0,1-1.44.54H98.67a.45.45,0,0,1-.34-.15.53.53,0,0,1-.14-.37.52.52,0,0,1,.14-.37.45.45,0,0,1,.34-.15h2a1.12,1.12,0,0,0,.8-.27,1,1,0,0,0,.28-.76,1,1,0,0,0-.27-.76,1.06,1.06,0,0,0-.78-.27H98.67m1.74-3.76h0a1.34,1.34,0,0,0,1-.4,1.32,1.32,0,0,0,.4-1,1.76,1.76,0,0,0-.35-1.06.52.52,0,0,1-.11-.33.5.5,0,0,1,.13-.34.42.42,0,0,1,.33-.15.4.4,0,0,1,.33.18,2.63,2.63,0,0,1,.55,1.71,2.43,2.43,0,0,1-.65,1.72,2.1,2.1,0,0,1-1.6.69h0a2.13,2.13,0,0,1-1.61-.7,2.5,2.5,0,0,1-.66-1.78,2.75,2.75,0,0,1,.44-1.59.43.43,0,0,1,.36-.2.47.47,0,0,1,.35.15.47.47,0,0,1,.14.34.69.69,0,0,1-.09.35,1.78,1.78,0,0,0-.31,1,1.36,1.36,0,0,0,1.36,1.36m-1.73-6h3.07v-1.94a.48.48,0,0,1,.13-.33.4.4,0,0,1,.31-.14.4.4,0,0,1,.31.14.48.48,0,0,1,.13.33V131a.53.53,0,0,1-.14.37.45.45,0,0,1-.34.15H98.67a.45.45,0,0,1-.34-.15.56.56,0,0,1,0-.74.44.44,0,0,1,.33-.15h0m0-4a.45.45,0,0,1-.34-.15.56.56,0,0,1,0-.74.45.45,0,0,1,.34-.15h3.5a.44.44,0,0,1,.34.15.55.55,0,0,1,0,.74.44.44,0,0,1-.34.15h-3.5m0-3a.45.45,0,0,1-.34-.15.52.52,0,0,1-.14-.37v-1.31a2.6,2.6,0,0,1,.62-1.8,2,2,0,0,1,1.56-.7h0a2,2,0,0,1,1.57.7,2.59,2.59,0,0,1,.63,1.8v1.31a.52.52,0,0,1-.14.37.45.45,0,0,1-.34.15H98.71m2.12-10h.92v-2.16a.47.47,0,0,1,.13-.33.39.39,0,0,1,.3-.14.4.4,0,0,1,.3.14.47.47,0,0,1,.13.33V114a.53.53,0,0,1-.14.37.45.45,0,0,1-.34.15H98.71a.45.45,0,0,1-.34-.15.53.53,0,0,1-.14-.37v-2.63a.48.48,0,0,1,.13-.33.39.39,0,0,1,.3-.14A.41.41,0,0,1,99,111a.47.47,0,0,1,.13.34v2.12H100v-1.82a.47.47,0,0,1,.13-.33.4.4,0,0,1,.3-.14.4.4,0,0,1,.3.14.48.48,0,0,1,.13.34v1.82m-2.16-5.38h3.07v-1.94a.48.48,0,0,1,.13-.33.4.4,0,0,1,.31-.14.4.4,0,0,1,.31.14.48.48,0,0,1,.13.33v2.46a.53.53,0,0,1-.14.37.45.45,0,0,1-.34.15H98.67a.45.45,0,0,1-.34-.15.56.56,0,0,1,0-.74.44.44,0,0,1,.33-.15h0m2.16-5h.92v-2.16a.47.47,0,0,1,.13-.33.39.39,0,0,1,.3-.14.4.4,0,0,1,.3.14.47.47,0,0,1,.13.33v2.67a.53.53,0,0,1-.14.37.45.45,0,0,1-.34.15H98.71a.45.45,0,0,1-.34-.15.53.53,0,0,1-.14-.37v-2.63a.48.48,0,0,1,.13-.33.39.39,0,0,1,.3-.14.41.41,0,0,1,.31.14.47.47,0,0,1,.13.34v2.12H100v-1.82a.47.47,0,0,1,.13-.33.4.4,0,0,1,.3-.14.4.4,0,0,1,.3.14.48.48,0,0,1,.13.34v1.82m-2.15-4.33a.45.45,0,0,1-.34-.15.53.53,0,0,1-.14-.37v-.12a.53.53,0,0,1,.25-.47l1.9-1.27-1.91-1.27a.53.53,0,0,1-.25-.47V94.5a.53.53,0,0,1,.14-.37.45.45,0,0,1,.34-.15h3.48a.44.44,0,0,1,.34.15.52.52,0,0,1,.14.37.54.54,0,0,1-.14.37.44.44,0,0,1-.34.15H100l1.3.91a.51.51,0,0,1,0,.87l-1.28.9h2.18a.43.43,0,0,1,.33.15.52.52,0,0,1,.14.36.53.53,0,0,1-.14.37.43.43,0,0,1-.33.15h-3.5M100.83,91h.92V88.84a.47.47,0,0,1,.13-.33.39.39,0,0,1,.3-.14.4.4,0,0,1,.3.14.47.47,0,0,1,.13.33v2.67a.53.53,0,0,1-.14.37.45.45,0,0,1-.34.15H98.71a.45.45,0,0,1-.34-.15.53.53,0,0,1-.14-.37V88.87a.48.48,0,0,1,.13-.33.39.39,0,0,1,.3-.14.41.41,0,0,1,.31.14.47.47,0,0,1,.13.34V91H100V89.18a.47.47,0,0,1,.13-.33.4.4,0,0,1,.3-.14.4.4,0,0,1,.3.14.48.48,0,0,1,.13.34V91m-2.17-7.52a.44.44,0,0,1-.34-.15.51.51,0,0,1-.14-.36.52.52,0,0,1,.14-.37.44.44,0,0,1,.34-.15h3.49a.45.45,0,0,1,.34.15.53.53,0,0,1,.14.37v0a.7.7,0,0,1-.28.54l-2.53,2.09h2.35a.44.44,0,0,1,.34.15.52.52,0,0,1,.14.36.53.53,0,0,1-.14.37.44.44,0,0,1-.34.15H98.68a.45.45,0,0,1-.34-.15.53.53,0,0,1-.14-.37V86a.7.7,0,0,1,.28-.54l2.44-2H98.66m0-2.6a.42.42,0,0,1-.31-.14.48.48,0,0,1-.13-.34V77.34a.49.49,0,0,1,.13-.34.41.41,0,0,1,.31-.15A.41.41,0,0,1,99,77a.48.48,0,0,1,.13.34v1h3.05a.44.44,0,0,1,.34.15.51.51,0,0,1,.14.37.52.52,0,0,1-.14.37.44.44,0,0,1-.34.15H99.11v1a.49.49,0,0,1-.13.34.41.41,0,0,1-.31.14m.73-6.39h0a.34.34,0,0,0,.32-.2,4.64,4.64,0,0,0,.27-.9,2.67,2.67,0,0,1,.46-1.07,1,1,0,0,1,.83-.36h0a1.18,1.18,0,0,1,1,.48,2,2,0,0,1,.36,1.27,3.17,3.17,0,0,1-.53,1.79.39.39,0,0,1-.34.2.44.44,0,0,1-.34-.14.48.48,0,0,1-.13-.33.6.6,0,0,1,.09-.32,2.17,2.17,0,0,0,.39-1.22,1,1,0,0,0-.11-.51.33.33,0,0,0-.3-.18h0a.34.34,0,0,0-.3.19,2.63,2.63,0,0,0-.23.68,6.56,6.56,0,0,1-.2.74,1.32,1.32,0,0,1-.61.81,1.25,1.25,0,0,1-.54.11h0a1.16,1.16,0,0,1-1-.46,2,2,0,0,1-.36-1.25,2.82,2.82,0,0,1,.39-1.45.38.38,0,0,1,.35-.23.46.46,0,0,1,.35.14.46.46,0,0,1,.13.31.65.65,0,0,1-.07.3,2.2,2.2,0,0,0-.29,1,.81.81,0,0,0,.11.45.33.33,0,0,0,.27.16m10.31-20.21H92.59A1.59,1.59,0,0,0,91,55.86V162.56a1.59,1.59,0,0,0,1.59,1.59h17.12a5.65,5.65,0,0,0,.2-1.59v-5H91v-1h18.9V155.5H91v-1h18.9V55.87a5.65,5.65,0,0,0-.2-1.59"/><path class="cls-14" d="M90.82,164.45c.07.13.15.2.24.2h0l-.24-.2"/><path class="cls-3" d="M160.86,165.15H92.59A2.59,2.59,0,0,1,90,162.56V55.86a2.59,2.59,0,0,1,2.59-2.59h68.27a2.59,2.59,0,0,1,2.59,2.59V162.56a2.59,2.59,0,0,1-2.59,2.59M92.59,54.28A1.59,1.59,0,0,0,91,55.86V162.56a1.59,1.59,0,0,0,1.59,1.59h68.27a1.59,1.59,0,0,0,1.59-1.59V55.86a1.59,1.59,0,0,0-1.59-1.59H92.59"/><path class="cls-3" d="M114,165.15H92.59A2.59,2.59,0,0,1,90,162.56V55.86a2.59,2.59,0,0,1,2.59-2.59H114v1H92.59A1.59,1.59,0,0,0,91,55.86V162.56a1.59,1.59,0,0,0,1.59,1.59H114Z"/><rect class="cls-2" x="91" y="61.39" width="71.44" height="1"/><rect class="cls-2" x="91" y="63.48" width="71.44" height="1"/><polyline class="cls-2" points="162.45 157.59 91 157.59 91 156.59 162.45 156.59 162.45 157.59"/><polyline class="cls-2" points="162.45 155.5 91 155.5 91 154.5 162.45 154.5 162.45 155.5"/><path class="cls-3" d="M109.8,163.06a.5.5,0,0,1-.5-.5V55.86a.5.5,0,0,1,1,0V162.56A.5.5,0,0,1,109.8,163.06Z"/><path class="cls-15" d="M102.18,145a.39.39,0,0,0-.3.14.47.47,0,0,0-.13.33v2.16h-.92v-1.82a.48.48,0,0,0-.13-.34.4.4,0,0,0-.3-.14.4.4,0,0,0-.3.14.47.47,0,0,0-.13.33v1.82h-.89v-2.12a.47.47,0,0,0-.13-.34.41.41,0,0,0-.31-.14.39.39,0,0,0-.3.14.48.48,0,0,0-.13.33v2.63a.53.53,0,0,0,.14.37.45.45,0,0,0,.34.15h3.42a.45.45,0,0,0,.34-.15.53.53,0,0,0,.14-.37V145.5a.47.47,0,0,0-.13-.33.4.4,0,0,0-.3-.14"/><path class="cls-15" d="M100.7,139.26h-2a.45.45,0,0,0-.34.15.56.56,0,0,0,0,.74.45.45,0,0,0,.34.15h2.07a1.06,1.06,0,0,1,.78.27,1,1,0,0,1,.27.76,1,1,0,0,1-.28.76,1.12,1.12,0,0,1-.8.27h-2a.45.45,0,0,0-.34.15.52.52,0,0,0-.14.37.53.53,0,0,0,.14.37.45.45,0,0,0,.34.15h2.07a1.85,1.85,0,0,0,1.44-.54,2.16,2.16,0,0,0,.5-1.52,2.2,2.2,0,0,0-.5-1.53,1.89,1.89,0,0,0-1.48-.55"/><path class="cls-15" d="M101.8,133.29a.42.42,0,0,0-.33.15.5.5,0,0,0-.13.34.52.52,0,0,0,.11.33,1.76,1.76,0,0,1,.35,1.06,1.32,1.32,0,0,1-.4,1,1.34,1.34,0,0,1-1,.4h0A1.36,1.36,0,0,1,99,135.18a1.78,1.78,0,0,1,.31-1,.69.69,0,0,0,.09-.35.47.47,0,0,0-.14-.34.47.47,0,0,0-.35-.15.43.43,0,0,0-.36.2,2.75,2.75,0,0,0-.44,1.59,2.5,2.5,0,0,0,.66,1.78,2.13,2.13,0,0,0,1.61.7h0a2.1,2.1,0,0,0,1.6-.69,2.43,2.43,0,0,0,.65-1.72,2.63,2.63,0,0,0-.55-1.71.4.4,0,0,0-.33-.18"/><path class="cls-15" d="M102.17,128.1a.4.4,0,0,0-.31.14.48.48,0,0,0-.13.33v1.94H98.66a.44.44,0,0,0-.33.15.56.56,0,0,0,0,.74.45.45,0,0,0,.34.15h3.46a.45.45,0,0,0,.34-.15.53.53,0,0,0,.14-.37v-2.46a.48.48,0,0,0-.13-.33.4.4,0,0,0-.31-.14"/><path class="cls-15" d="M102.17,125.45h-3.5a.45.45,0,0,0-.34.15.56.56,0,0,0,0,.74.45.45,0,0,0,.34.15h3.5a.44.44,0,0,0,.34-.15.55.55,0,0,0,0-.74.44.44,0,0,0-.34-.15"/><path class="cls-15" d="M99.09,122.4v-.81a1.46,1.46,0,0,1,.37-1,1.24,1.24,0,0,1,1-.4h0a1.21,1.21,0,0,1,.94.39,1.49,1.49,0,0,1,.36,1v.81H99.09m1.32-3.29h0a2,2,0,0,0-1.56.7,2.6,2.6,0,0,0-.62,1.8v1.31a.52.52,0,0,0,.14.37.45.45,0,0,0,.34.15h3.42a.45.45,0,0,0,.34-.15.52.52,0,0,0,.14-.37v-1.31a2.59,2.59,0,0,0-.63-1.8,2,2,0,0,0-1.57-.7"/><path class="cls-15" d="M102.18,110.81a.39.39,0,0,0-.3.14.47.47,0,0,0-.13.33v2.16h-.92v-1.82a.48.48,0,0,0-.13-.34.4.4,0,0,0-.3-.14.4.4,0,0,0-.3.14.47.47,0,0,0-.13.33v1.82h-.89v-2.12A.47.47,0,0,0,99,111a.41.41,0,0,0-.31-.14.39.39,0,0,0-.3.14.48.48,0,0,0-.13.33V114a.53.53,0,0,0,.14.37.45.45,0,0,0,.34.15h3.42a.45.45,0,0,0,.34-.15.53.53,0,0,0,.14-.37v-2.67a.47.47,0,0,0-.13-.33.4.4,0,0,0-.3-.14"/><path class="cls-15" d="M102.17,105.66a.4.4,0,0,0-.31.14.48.48,0,0,0-.13.33v1.94H98.66a.44.44,0,0,0-.33.15.56.56,0,0,0,0,.74.45.45,0,0,0,.34.15h3.46a.45.45,0,0,0,.34-.15.53.53,0,0,0,.14-.37v-2.46a.48.48,0,0,0-.13-.33.4.4,0,0,0-.31-.14"/><path class="cls-15" d="M102.18,100.44a.39.39,0,0,0-.3.14.47.47,0,0,0-.13.33v2.16h-.92v-1.82a.48.48,0,0,0-.13-.34.4.4,0,0,0-.3-.14.4.4,0,0,0-.3.14.47.47,0,0,0-.13.33v1.82h-.89v-2.12a.47.47,0,0,0-.13-.34.41.41,0,0,0-.31-.14.39.39,0,0,0-.3.14.48.48,0,0,0-.13.33v2.63a.53.53,0,0,0,.14.37.45.45,0,0,0,.34.15h3.42a.45.45,0,0,0,.34-.15.53.53,0,0,0,.14-.37V100.9a.47.47,0,0,0-.13-.33.4.4,0,0,0-.3-.14"/><path class="cls-15" d="M102.17,94H98.68a.45.45,0,0,0-.34.15.53.53,0,0,0-.14.37v.12a.53.53,0,0,0,.25.47l1.91,1.27-1.9,1.27a.53.53,0,0,0-.25.47v.12a.53.53,0,0,0,.14.37.45.45,0,0,0,.34.15h3.5a.43.43,0,0,0,.33-.15.53.53,0,0,0,.14-.37.52.52,0,0,0-.14-.36.43.43,0,0,0-.33-.15H100l1.28-.9a.51.51,0,0,0,0-.87L100,95h2.19a.44.44,0,0,0,.34-.15.54.54,0,0,0,.14-.37.52.52,0,0,0-.14-.37.44.44,0,0,0-.34-.15"/><path class="cls-15" d="M102.18,88.37a.39.39,0,0,0-.3.14.47.47,0,0,0-.13.33V91h-.92V89.18a.48.48,0,0,0-.13-.34.4.4,0,0,0-.3-.14.4.4,0,0,0-.3.14.47.47,0,0,0-.13.33V91h-.89V88.88a.47.47,0,0,0-.13-.34.41.41,0,0,0-.31-.14.39.39,0,0,0-.3.14.48.48,0,0,0-.13.33v2.63a.53.53,0,0,0,.14.37.45.45,0,0,0,.34.15h3.42a.45.45,0,0,0,.34-.15.53.53,0,0,0,.14-.37V88.84a.47.47,0,0,0-.13-.33.4.4,0,0,0-.3-.14"/><path class="cls-15" d="M102.15,82.44H98.66a.44.44,0,0,0-.34.15.52.52,0,0,0-.14.37.51.51,0,0,0,.14.36.44.44,0,0,0,.34.15h2.26l-2.44,2a.7.7,0,0,0-.28.54v.11a.53.53,0,0,0,.14.37.45.45,0,0,0,.34.15h3.49a.44.44,0,0,0,.34-.15.53.53,0,0,0,.14-.37.52.52,0,0,0-.14-.36.44.44,0,0,0-.34-.15H99.82l2.53-2.09a.7.7,0,0,0,.28-.54v0a.53.53,0,0,0-.14-.37.45.45,0,0,0-.34-.15"/><path class="cls-15" d="M98.67,76.85a.41.41,0,0,0-.31.15.49.49,0,0,0-.13.34v3.05a.48.48,0,0,0,.13.34.42.42,0,0,0,.31.14.41.41,0,0,0,.31-.14.49.49,0,0,0,.13-.34v-1h3.05a.44.44,0,0,0,.34-.15.52.52,0,0,0,.14-.37.51.51,0,0,0-.14-.37.44.44,0,0,0-.34-.15H99.11v-1A.48.48,0,0,0,99,77a.41.41,0,0,0-.31-.14"/><path class="cls-15" d="M101.29,72a1,1,0,0,0-.83.36,2.67,2.67,0,0,0-.46,1.07,4.64,4.64,0,0,1-.27.9.34.34,0,0,1-.32.2h0a.33.33,0,0,1-.27-.16.81.81,0,0,1-.11-.45,2.2,2.2,0,0,1,.29-1,.65.65,0,0,0,.07-.3.46.46,0,0,0-.13-.31.46.46,0,0,0-.35-.14.38.38,0,0,0-.35.23,2.82,2.82,0,0,0-.39,1.45,2,2,0,0,0,.36,1.25,1.16,1.16,0,0,0,1,.46h0a1.25,1.25,0,0,0,.54-.11,1.32,1.32,0,0,0,.61-.81,6.56,6.56,0,0,0,.2-.74,2.63,2.63,0,0,1,.23-.68.34.34,0,0,1,.3-.19h0a.33.33,0,0,1,.3.18,1,1,0,0,1,.11.51,2.17,2.17,0,0,1-.39,1.22.6.6,0,0,0-.09.32.48.48,0,0,0,.13.33.44.44,0,0,0,.34.14.39.39,0,0,0,.34-.2,3.17,3.17,0,0,0,.53-1.79,2,2,0,0,0-.36-1.27,1.18,1.18,0,0,0-1-.48h0"/><path class="cls-16" d="M121.33,157.59h-5.5v5.06a2,2,0,0,0,.68,1.5h5.32a2.49,2.49,0,0,1-.5-1.5v-5.06m0-2.09h-5.5v1.09h5.5V155.5m1-75.62h-4.5a2,2,0,0,0-2,2V154.5h5.5V81.88h0a2.5,2.5,0,0,1,1-2"/><path class="cls-9" d="M121.83,164.15H116.5a2,2,0,0,0,1.32.5h4.5a2.52,2.52,0,0,1-.5-.5"/><polyline class="cls-10" points="121.33 156.59 115.83 156.59 115.83 157.59 121.33 157.59 121.33 156.59"/><polyline class="cls-10" points="121.33 154.5 115.83 154.5 115.83 155.5 121.33 155.5 121.33 154.5"/><path class="cls-17" d="M180.79,164.65h-57a2,2,0,0,1-2-2V81.88a2,2,0,0,1,2-2h57a2,2,0,0,1,2,2v80.77a2,2,0,0,1-2,2"/><path class="cls-3" d="M180.79,165.15h-57a2.5,2.5,0,0,1-2.5-2.5V81.88a2.5,2.5,0,0,1,2.5-2.5h57a2.5,2.5,0,0,1,2.5,2.5v80.77a2.5,2.5,0,0,1-2.5,2.5m-57-84.77a1.5,1.5,0,0,0-1.5,1.5v80.77a1.5,1.5,0,0,0,1.5,1.5h57a1.5,1.5,0,0,0,1.5-1.5V81.88a1.5,1.5,0,0,0-1.5-1.5h-57"/><path class="cls-18" d="M130.45,140.24h0a.73.73,0,0,0-.61.27,1.25,1.25,0,0,0-.21.77v1h1.65v-1a1.14,1.14,0,0,0-.23-.75.72.72,0,0,0-.58-.27m-1.32,3.32a.56.56,0,0,1-.42-.19.64.64,0,0,1-.17-.45v-1.74a2.42,2.42,0,0,1,.51-1.63,1.71,1.71,0,0,1,1.36-.6h0a1.65,1.65,0,0,1,1.4.66,2.74,2.74,0,0,1,.5,1.69v1h1.07a.55.55,0,0,1,.42.19.63.63,0,0,1,.17.45.65.65,0,0,1-.17.46.55.55,0,0,1-.42.19h-4.26m0-10.07a.55.55,0,0,1-.42-.19.69.69,0,0,1,0-.91.55.55,0,0,1,.42-.19h4.3a.55.55,0,0,1,.42.19.65.65,0,0,1,.17.46.63.63,0,0,1-.17.45.55.55,0,0,1-.42.19h-1.62v2.37h1.62a.55.55,0,0,1,.42.19.63.63,0,0,1,.17.45.65.65,0,0,1-.17.46.55.55,0,0,1-.42.19h-4.3a.55.55,0,0,1-.42-.19.69.69,0,0,1,0-.91.54.54,0,0,1,.41-.18h1.6v-2.37h-1.59m0-3a.51.51,0,0,1-.4-.19.66.66,0,0,1-.17-.46.77.77,0,0,1,.36-.63l1.89-1.42-1.9-1.44a.72.72,0,0,1-.35-.58.68.68,0,0,1,.17-.49.53.53,0,0,1,.39-.17.7.7,0,0,1,.44.17l2.35,1.89h1.56a.55.55,0,0,1,.42.19.65.65,0,0,1,.17.46.63.63,0,0,1-.17.45.55.55,0,0,1-.42.19h-1.54l-2.37,1.89a.67.67,0,0,1-.43.16m.93-8h0a.42.42,0,0,0,.39-.25,5.85,5.85,0,0,0,.34-1.11,3.31,3.31,0,0,1,.56-1.31,1.23,1.23,0,0,1,1-.45h0a1.45,1.45,0,0,1,1.23.59,2.52,2.52,0,0,1,.44,1.56,3.9,3.9,0,0,1-.65,2.2.47.47,0,0,1-.41.24.54.54,0,0,1-.42-.18.58.58,0,0,1-.16-.4.73.73,0,0,1,.11-.4,2.67,2.67,0,0,0,.48-1.5,1.22,1.22,0,0,0-.13-.62.41.41,0,0,0-.37-.23h0a.42.42,0,0,0-.37.23,3.24,3.24,0,0,0-.29.84,8,8,0,0,1-.25.91,1.63,1.63,0,0,1-.76,1,1.55,1.55,0,0,1-.67.13h0a1.42,1.42,0,0,1-1.18-.57,2.45,2.45,0,0,1-.44-1.54,3.46,3.46,0,0,1,.48-1.79.47.47,0,0,1,.42-.29.56.56,0,0,1,.43.18.56.56,0,0,1,.16.38.8.8,0,0,1-.08.37,2.73,2.73,0,0,0-.36,1.23,1,1,0,0,0,.13.56.4.4,0,0,0,.34.2m-.9-5.13a.55.55,0,0,1-.42-.19.69.69,0,0,1,0-.91.55.55,0,0,1,.42-.19h4.3a.55.55,0,0,1,.42.19.69.69,0,0,1,0,.91.55.55,0,0,1-.42.19h-4.3m2.13-4.61h0a1.65,1.65,0,0,0,1.2-.49,1.63,1.63,0,0,0,.5-1.21,2.16,2.16,0,0,0-.43-1.31.64.64,0,0,1-.13-.4.62.62,0,0,1,.16-.42.52.52,0,0,1,.4-.18.5.5,0,0,1,.41.22A3.25,3.25,0,0,1,134,111a3,3,0,0,1-.8,2.12,2.58,2.58,0,0,1-2,.85h0a2.62,2.62,0,0,1-2-.86,3.07,3.07,0,0,1-.81-2.19,3.38,3.38,0,0,1,.55-2,.52.52,0,0,1,.44-.25.61.61,0,0,1,.61.6.85.85,0,0,1-.12.43,2.2,2.2,0,0,0-.38,1.26,1.68,1.68,0,0,0,1.68,1.68M130,105.63h0a.42.42,0,0,0,.39-.25,5.87,5.87,0,0,0,.34-1.11,3.31,3.31,0,0,1,.56-1.31,1.23,1.23,0,0,1,1-.45h0a1.45,1.45,0,0,1,1.23.59,2.52,2.52,0,0,1,.44,1.56,3.9,3.9,0,0,1-.65,2.2.47.47,0,0,1-.41.24.54.54,0,0,1-.42-.18.58.58,0,0,1-.16-.4.73.73,0,0,1,.11-.4,2.67,2.67,0,0,0,.48-1.5,1.22,1.22,0,0,0-.13-.62.41.41,0,0,0-.37-.22h0a.42.42,0,0,0-.37.23,3.23,3.23,0,0,0-.29.84,8,8,0,0,1-.25.91,1.63,1.63,0,0,1-.76,1,1.55,1.55,0,0,1-.67.13h0a1.42,1.42,0,0,1-1.18-.57,2.45,2.45,0,0,1-.44-1.54,3.46,3.46,0,0,1,.48-1.79.47.47,0,0,1,.42-.29.56.56,0,0,1,.43.18.56.56,0,0,1,.16.38.8.8,0,0,1-.08.37,2.73,2.73,0,0,0-.36,1.23,1,1,0,0,0,.13.56.4.4,0,0,0,.34.2m9.42-25.25H123.83a1.5,1.5,0,0,0-1.5,1.5v80.77a1.5,1.5,0,0,0,1.5,1.5H139.4a2,2,0,0,0,.68-1.5.5.5,0,0,1,0-.09v-3.92H122.33v-1h17.74V87.45H122.33v-1h17.74V82a.5.5,0,0,1,0-.09,2,2,0,0,0-.68-1.5"/><path class="cls-3" d="M180.79,165.15h-57a2.5,2.5,0,0,1-2.5-2.5V81.88a2.5,2.5,0,0,1,2.5-2.5h57a2.5,2.5,0,0,1,2.5,2.5v80.77a2.5,2.5,0,0,1-2.5,2.5m-57-84.77a1.5,1.5,0,0,0-1.5,1.5v80.77a1.5,1.5,0,0,0,1.5,1.5h57a1.5,1.5,0,0,0,1.5-1.5V81.88a1.5,1.5,0,0,0-1.5-1.5h-57"/><path class="cls-3" d="M145.3,165.15H123.91a2.59,2.59,0,0,1-2.59-2.59V82a2.59,2.59,0,0,1,2.59-2.59H145.3v1H123.91A1.59,1.59,0,0,0,122.33,82v80.59a1.59,1.59,0,0,0,1.59,1.59H145.3Z"/><polyline class="cls-2" points="182.29 87.45 122.33 87.45 122.33 86.45 182.29 86.45 182.29 87.45"/><polyline class="cls-2" points="182.29 158.63 122.33 158.63 122.33 157.63 182.29 157.63 182.29 158.63"/><path class="cls-19" d="M162.84,129.2c-6.66,0-11.88-2.8-11.88-6.37s5.22-6.37,11.88-6.37,11.88,2.8,11.88,6.37S169.5,129.2,162.84,129.2Zm0-11.74c-5.9,0-10.88,2.46-10.88,5.37s5,5.37,10.88,5.37,10.88-2.46,10.88-5.37S168.74,117.46,162.84,117.46Z"/><path class="cls-19" d="M167.57,136.9a2.59,2.59,0,0,1-.65-.09c-2.5-.65-5.77-4.9-8.33-10.85-2.87-6.68-4.31-14.79-1.75-16.77a2.14,2.14,0,0,1,1.92-.34c2.5.65,5.77,4.9,8.33,10.85,2.87,6.68,4.31,14.79,1.75,16.77A2,2,0,0,1,167.57,136.9Zm-9.46-27.14a1,1,0,0,0-.65.22c-1.68,1.3-1.25,7.88,2.06,15.59,2.36,5.5,5.51,9.72,7.66,10.28a1.15,1.15,0,0,0,1.05-.16c1.68-1.3,1.25-7.88-2.06-15.59-2.36-5.5-5.51-9.72-7.66-10.27A1.6,1.6,0,0,0,158.11,109.76Z"/><path class="cls-19" d="M158.11,136.9a2,2,0,0,1-1.27-.43c-2.56-2-1.12-10.09,1.75-16.77,2.55-5.94,5.82-10.2,8.33-10.85a2.14,2.14,0,0,1,1.92.34c2.56,2,1.12,10.09-1.75,16.77-2.55,5.94-5.82,10.2-8.33,10.85A2.58,2.58,0,0,1,158.11,136.9Zm9.46-27.14a1.6,1.6,0,0,0-.4.05c-2.15.55-5.3,4.78-7.66,10.27-3.31,7.71-3.74,14.28-2.06,15.59a1.15,1.15,0,0,0,1.05.16c2.15-.55,5.3-4.78,7.66-10.28,3.31-7.71,3.74-14.28,2.06-15.59A1,1,0,0,0,167.57,109.76Z"/><ellipse class="cls-4" cx="162.84" cy="122.83" rx="2.24" ry="3"/><path class="cls-19" d="M162.84,126.33c-1.51,0-2.74-1.57-2.74-3.5s1.23-3.5,2.74-3.5,2.74,1.57,2.74,3.5S164.35,126.33,162.84,126.33Zm0-6c-.94,0-1.74,1.15-1.74,2.5s.79,2.5,1.74,2.5,1.74-1.15,1.74-2.5S163.78,120.33,162.84,120.33Z"/><ellipse class="cls-4" cx="168.53" cy="109.59" rx="1.08" ry="1.45"/><path class="cls-19" d="M168.53,111.53a2,2,0,1,1,1.58-1.95A1.77,1.77,0,0,1,168.53,111.53Zm0-2.89c-.27,0-.58.39-.58.95s.3.95.58.95.58-.39.58-.95S168.81,108.64,168.53,108.64Z"/><ellipse class="cls-4" cx="168.53" cy="136.07" rx="1.08" ry="1.45"/><path class="cls-19" d="M168.53,138a2,2,0,1,1,1.58-1.95A1.77,1.77,0,0,1,168.53,138Zm0-2.89c-.27,0-.58.39-.58.95s.3.95.58.95.58-.39.58-.95S168.81,135.13,168.53,135.13Z"/><ellipse class="cls-4" cx="151.46" cy="122.83" rx="1.08" ry="1.45"/><path class="cls-19" d="M151.46,124.78a2,2,0,1,1,1.58-1.95A1.77,1.77,0,0,1,151.46,124.78Zm0-2.89c-.27,0-.58.39-.58.95s.3.95.58.95.58-.39.58-.95S151.73,121.88,151.46,121.88Z"/><path class="cls-20" d="M140.57,81.47a.5.5,0,0,0-.49.41h0v4.57h1V82a.5.5,0,0,0-.5-.5"/><path class="cls-21" d="M140.08,81.88a.5.5,0,0,0,0,.09v4.48h0V81.88h0"/><polyline class="cls-20" points="141.07 87.45 140.08 87.45 140.08 157.63 141.07 157.63 141.07 87.45"/><polyline class="cls-21" points="140.08 87.45 140.07 87.45 140.07 157.63 140.08 157.63 140.08 87.45"/><path class="cls-20" d="M141.07,158.63h-1v4h0a.5.5,0,0,0,1-.09v-3.92"/><path class="cls-21" d="M140.08,158.63h0v3.92a.5.5,0,0,0,0,.09h0v-4"/><polyline class="cls-7" points="141.07 86.45 140.08 86.45 140.07 86.45 140.07 87.45 140.08 87.45 141.07 87.45 141.07 86.45"/><polyline class="cls-7" points="141.07 157.63 140.08 157.63 140.07 157.63 140.07 158.63 140.08 158.63 141.07 158.63 141.07 157.63"/><path class="cls-21" d="M129.61,142.28v-1a1.25,1.25,0,0,1,.21-.77.73.73,0,0,1,.61-.27h0a.72.72,0,0,1,.58.27,1.14,1.14,0,0,1,.23.75v1h-1.65m.81-3.32h0a1.71,1.71,0,0,0-1.36.6,2.42,2.42,0,0,0-.51,1.63v1.74a.64.64,0,0,0,.17.45.56.56,0,0,0,.42.19h4.26a.55.55,0,0,0,.42-.19.65.65,0,0,0,.17-.46.63.63,0,0,0-.17-.45.55.55,0,0,0-.42-.19h-1.07v-1a2.74,2.74,0,0,0-.5-1.69,1.65,1.65,0,0,0-1.4-.66"/><path class="cls-21" d="M133.39,132.21h-4.3a.55.55,0,0,0-.42.19.69.69,0,0,0,0,.91.55.55,0,0,0,.42.19h1.59v2.37h-1.6a.54.54,0,0,0-.41.18.69.69,0,0,0,0,.91.55.55,0,0,0,.42.19h4.3a.55.55,0,0,0,.42-.19.65.65,0,0,0,.17-.46.63.63,0,0,0-.17-.45.55.55,0,0,0-.42-.19h-1.62v-2.37h1.62a.55.55,0,0,0,.42-.19.63.63,0,0,0,.17-.45.65.65,0,0,0-.17-.46.55.55,0,0,0-.42-.19"/><path class="cls-21" d="M129,125.1a.53.53,0,0,0-.39.17.68.68,0,0,0-.17.49.72.72,0,0,0,.35.58l1.9,1.44-1.89,1.42a.77.77,0,0,0-.36.63.66.66,0,0,0,.17.46.51.51,0,0,0,.4.19.67.67,0,0,0,.43-.16l2.37-1.89h1.54a.55.55,0,0,0,.42-.19.63.63,0,0,0,.17-.45.65.65,0,0,0-.17-.46.55.55,0,0,0-.42-.19h-1.56l-2.35-1.89a.7.7,0,0,0-.44-.17"/><path class="cls-21" d="M132.31,119.34a1.23,1.23,0,0,0-1,.45,3.31,3.31,0,0,0-.56,1.31,5.85,5.85,0,0,1-.34,1.11.42.42,0,0,1-.39.25h0a.4.4,0,0,1-.34-.2,1,1,0,0,1-.13-.56,2.73,2.73,0,0,1,.36-1.23.8.8,0,0,0,.08-.37.56.56,0,0,0-.16-.38.56.56,0,0,0-.43-.18.47.47,0,0,0-.42.29,3.46,3.46,0,0,0-.48,1.79,2.45,2.45,0,0,0,.44,1.54,1.42,1.42,0,0,0,1.18.57h0a1.55,1.55,0,0,0,.67-.13,1.63,1.63,0,0,0,.76-1,8,8,0,0,0,.25-.91,3.24,3.24,0,0,1,.29-.84.42.42,0,0,1,.37-.23h0a.41.41,0,0,1,.37.23,1.22,1.22,0,0,1,.13.62,2.67,2.67,0,0,1-.48,1.5.73.73,0,0,0-.11.4.58.58,0,0,0,.16.4.54.54,0,0,0,.42.18.47.47,0,0,0,.41-.24,3.9,3.9,0,0,0,.65-2.2,2.52,2.52,0,0,0-.44-1.56,1.45,1.45,0,0,0-1.23-.59h0"/><path class="cls-21" d="M133.39,116h-4.3a.55.55,0,0,0-.42.19.69.69,0,0,0,0,.91.55.55,0,0,0,.42.19h4.3a.55.55,0,0,0,.42-.19.69.69,0,0,0,0-.91.55.55,0,0,0-.42-.19"/><path class="cls-21" d="M132.94,108.7a.52.52,0,0,0-.4.18.62.62,0,0,0-.16.42.64.64,0,0,0,.13.4,2.16,2.16,0,0,1,.43,1.31,1.63,1.63,0,0,1-.5,1.21,1.65,1.65,0,0,1-1.2.49h0a1.68,1.68,0,0,1-1.68-1.68,2.2,2.2,0,0,1,.38-1.26.85.85,0,0,0,.12-.43.61.61,0,0,0-.61-.6.52.52,0,0,0-.44.25,3.38,3.38,0,0,0-.55,2,3.07,3.07,0,0,0,.81,2.19,2.62,2.62,0,0,0,2,.86h0a2.58,2.58,0,0,0,2-.85A3,3,0,0,0,134,111a3.25,3.25,0,0,0-.68-2.1.5.5,0,0,0-.41-.22"/><path class="cls-21" d="M132.31,102.52a1.23,1.23,0,0,0-1,.45,3.31,3.31,0,0,0-.56,1.31,5.87,5.87,0,0,1-.34,1.11.42.42,0,0,1-.39.25h0a.4.4,0,0,1-.34-.2,1,1,0,0,1-.13-.56,2.73,2.73,0,0,1,.36-1.23.8.8,0,0,0,.08-.37.56.56,0,0,0-.16-.38.56.56,0,0,0-.43-.18.47.47,0,0,0-.42.29,3.46,3.46,0,0,0-.48,1.79,2.45,2.45,0,0,0,.44,1.54,1.42,1.42,0,0,0,1.18.57h0a1.55,1.55,0,0,0,.67-.13,1.63,1.63,0,0,0,.76-1,8,8,0,0,0,.25-.91,3.23,3.23,0,0,1,.29-.84.42.42,0,0,1,.37-.23h0a.41.41,0,0,1,.37.22,1.22,1.22,0,0,1,.13.62,2.67,2.67,0,0,1-.48,1.5.73.73,0,0,0-.11.4.58.58,0,0,0,.16.4.54.54,0,0,0,.42.18.47.47,0,0,0,.41-.24,3.9,3.9,0,0,0,.65-2.2,2.52,2.52,0,0,0-.44-1.56,1.45,1.45,0,0,0-1.23-.59h0"/><path class="cls-2" d="M183.19,163.33a2.49,2.49,0,0,1-.34.72h.33q0-.36,0-.72"/><path class="cls-10" d="M183.18,164.06h-.33l-.06.09h.39v-.09"/><path class="cls-9" d="M183.17,164.15h-.39a2.51,2.51,0,0,1-1.07.82l1.38,0q.05-.43.08-.86"/><path class="cls-18" d="M182.29,158.63h-22.4q-.35,1.36-.59,2.74h-.06a1.9,1.9,0,0,0-1.88,1.36,1.41,1.41,0,0,0,.64,1.41h22.79a1.5,1.5,0,0,0,1.5-1.5v-4m-.05-13.13a53.87,53.87,0,0,0-18.12,4.91,4.43,4.43,0,0,0-1.24.77,4.33,4.33,0,0,0-.85,1.36,36.49,36.49,0,0,0-1.87,5.09h22.13V145.51h-.05"/><path class="cls-9" d="M182.29,145.51v17.14h0a1.5,1.5,0,0,1-1.5,1.5H158a1.09,1.09,0,0,0,.59.18,1,1,0,0,0,.26,0l22.87.68a2.51,2.51,0,0,0,1.48-1.64q0-.33,0-.66c-.07-1.16-.3-2.3-.41-3.45-.42-4.4.9-8.9,0-13.23,0-.19-.1-.4-.28-.47h-.21"/><path class="cls-10" d="M182.29,157.63H160.16q-.14.5-.27,1h22.4v-1"/><path class="cls-22" d="M245,113.69a.5.5,0,0,1-.5-.5v-3.4a.5.5,0,1,1,1,0v3.4A.5.5,0,0,1,245,113.69Z"/><path class="cls-22" d="M242.3,116.41h-3.4a.5.5,0,0,1,0-1h3.4a.5.5,0,0,1,0,1Z"/><path class="cls-22" d="M245,122.54a.5.5,0,0,1-.5-.5v-3.4a.5.5,0,1,1,1,0V122A.5.5,0,0,1,245,122.54Z"/><path class="cls-22" d="M251.15,116.41h-3.4a.5.5,0,0,1,0-1h3.4a.5.5,0,0,1,0,1Z"/><path class="cls-4" d="M233.29,62.12c-3.47,0-6.25-3.28-6.19-7.23-.05,3.94-2.91,7.1-6.39,7.05,3.47,0,6.25,3.28,6.19,7.23C227,65.23,229.81,62.07,233.29,62.12Z"/><path class="cls-22" d="M226.9,69.67h0a.5.5,0,0,1-.49-.5h0a7.11,7.11,0,0,0-1.65-4.74,5.4,5.4,0,0,0-4-2,.5.5,0,0,1-.49-.5h0a.47.47,0,0,1,.51-.49c3.19,0,5.83-2.9,5.88-6.56a.48.48,0,0,1,.51-.49.5.5,0,0,1,.49.5h0a7.11,7.11,0,0,0,1.65,4.74,5.4,5.4,0,0,0,4,2,.5.5,0,0,1,.49.5h0a.49.49,0,0,1-.51.49h-.07c-3.16,0-5.76,2.93-5.81,6.56A.5.5,0,0,1,226.9,69.67ZM223.13,62a6.75,6.75,0,0,1,2.38,1.8,7.76,7.76,0,0,1,1.44,2.52,7.29,7.29,0,0,1,3.92-4.2,6.75,6.75,0,0,1-2.38-1.8,7.76,7.76,0,0,1-1.44-2.52A7.29,7.29,0,0,1,223.13,62Z"/><path class="cls-4" d="M238.57,84.8c4.13,0,7.48-5.08,7.48-11.36,0,6.27,3.35,11.36,7.48,11.36-4.13,0-7.48,5.08-7.48,11.36C246,89.88,242.7,84.8,238.57,84.8Z"/><path class="cls-22" d="M246,96.65a.5.5,0,0,1-.5-.5c0-6-3.13-10.86-7-10.86a.5.5,0,1,1,0-1c3.85,0,7-4.87,7-10.86a.5.5,0,1,1,1,0c0,6,3.13,10.86,7,10.86a.5.5,0,1,1,0,1c-3.85,0-7,4.87-7,10.86A.5.5,0,0,1,246,96.65ZM240.86,84.8c2.39,1.07,4.32,3.77,5.19,7.23.87-3.46,2.79-6.16,5.19-7.23-2.39-1.07-4.32-3.77-5.19-7.22C245.18,81,243.26,83.73,240.86,84.8Z"/><path class="cls-4" d="M206.33,103.5c9.34-3.81,9.34-18.93,9.34-18.93s0,15.12,9.34,18.93c-9.34,3.81-9.34,18.93-9.34,18.93S215.67,107.3,206.33,103.5Z"/><path class="cls-22" d="M215.67,122.93a.5.5,0,0,1-.5-.5h0c0-.17-.11-14.83-9-18.47a.5.5,0,0,1,0-.93c8.91-3.63,9-18.29,9-18.47h0a.5.5,0,0,1,1,0h0c0,.17.11,14.83,9,18.47a.5.5,0,0,1,0,.93c-8.92,3.63-9,18.28-9,18.47h0A.5.5,0,0,1,215.67,122.93Zm-8.15-19.43c5.3,2.78,7.36,9.16,8.15,13.75.79-4.59,2.85-11,8.15-13.75-5.3-2.78-7.36-9.16-8.15-13.75C214.87,94.34,212.82,100.72,207.52,103.5Z"/><path class="cls-4" d="M218,142c13.54.22,28.42,2.76,42.44,9.91v9.62l-93,.09s.13-6.66,2.77-11.69A138.87,138.87,0,0,1,218,142Z"/><path class="cls-4" d="M309.29,161.61c-16.65-.14-32.24-.14-48.84-.14h-.27c0-3.13,0-6.26.27-9.52,13.09-6.68,28.16-9.65,42.88-9.91h4.44l1.52,0Z"/><path class="cls-2" d="M303.33,142c-14.73.26-29.79,3.23-42.89,9.91-1.21-.62-2.44-1.2-3.66-1.75A42.31,42.31,0,0,1,270.49,142Z"/><path class="cls-4" d="M270.49,142a42.31,42.31,0,0,0-13.71,8.16A98.14,98.14,0,0,0,218,142Z"/><path class="cls-3" d="M166.95,162.16v-.51c0-.28.16-6.83,2.83-11.92l.09-.17.17-.07a140.54,140.54,0,0,1,48-8c15.85.26,30.2,3.61,42.66,10l.27.14V162l-.5.09Zm3.64-11.8A29.66,29.66,0,0,0,168,161.16l92-.09v-8.81c-12.26-6.19-26.37-9.46-42-9.72A140,140,0,0,0,170.59,150.36Z"/><path class="cls-3" d="M309.28,162.11C292.63,162,277,162,260.44,162h-.77v-.5c0-3.09,0-6.29.27-9.56l0-.28.25-.13c12.22-6.23,27.12-9.68,43.1-10h4.45l1.54,0,0,1-1.51,0h-4.43c-15.71.28-30.37,3.64-42.41,9.73-.23,3-.25,5.88-.25,8.7,16.47,0,32,0,48.62.14Z"/><path class="cls-3" d="M260.44,152.51l-.23-.12c-12.32-6.28-26.53-9.6-42.23-9.85v-1h85.33v1c-15.83.28-30.58,3.69-42.66,9.85Zm-29-10a91.35,91.35,0,0,1,29,8.85A93,93,0,0,1,290,142.54Z"/><path class="cls-11" d="M309.72,164.65H165.19a1.5,1.5,0,1,1,0-3H309.72"/><path class="cls-3" d="M309.73,165.15H165.19a2,2,0,0,1,0-4H309.73a.5.5,0,0,1,0,1H165.19a1,1,0,0,0,0,2H309.73a.5.5,0,0,1,0,1Z"/><path class="cls-23" d="M240,159.26h0c-9.32-.57-19.32-.67-32.41-.31a.52.52,0,0,1-.51-.49.5.5,0,0,1,.49-.51c13.12-.36,23.14-.26,32.5.31a.5.5,0,0,1,0,1Z"/><path class="cls-23" d="M196,159.33a.5.5,0,0,1,0-1l5.77-.21a.5.5,0,0,1,0,1l-5.77.21Z"/><path class="cls-23" d="M240.65,156.47h-.06c-10.57-1.24-22.31-1.45-36.94-.68a.5.5,0,1,1-.05-1c14.69-.77,26.48-.55,37.11.69a.5.5,0,0,1-.06,1Z"/><path class="cls-23" d="M169.8,158.17a.5.5,0,0,1,0-1l5.05-.35a.51.51,0,0,1,.53.46.5.5,0,0,1-.46.53l-5.06.35Z"/><path class="cls-23" d="M242.28,153.82h0c-10.49-1-20.68-1.5-30.28-1.49a.52.52,0,0,1-.5-.5.5.5,0,0,1,.5-.5c9.63,0,19.86.48,30.38,1.49a.5.5,0,0,1,0,1Z"/><path class="cls-23" d="M170.94,155.91a.5.5,0,0,1-.09-1c3.22-.59,6.53-1.12,9.83-1.56a.5.5,0,1,1,.13,1c-3.28.44-6.57,1-9.78,1.55Z"/><path class="cls-23" d="M244,151.33h-.08c-4.51-.73-9.19-1.27-13.92-1.63a.5.5,0,1,1,.07-1c4.76.35,9.47.91,14,1.64a.5.5,0,0,1-.08,1Z"/><path class="cls-23" d="M224.39,149.37h0q-2.1-.09-4.21-.13a.5.5,0,0,1-.49-.51.48.48,0,0,1,.51-.49q2.11,0,4.23.13a.5.5,0,0,1,0,1Z"/><path class="cls-23" d="M171.94,153.84a.5.5,0,0,1-.1-1c5.42-1.05,10.79-1.94,16-2.63a.5.5,0,0,1,.13,1c-5.17.69-10.52,1.57-15.92,2.62Z"/><path class="cls-23" d="M192.55,147.85a.5.5,0,0,1-.07-1q1.75-.26,3.51-.49a.5.5,0,1,1,.13,1q-1.75.23-3.5.48Z"/><path class="cls-23" d="M173.1,151.61a.5.5,0,0,1-.11-1c4.77-1.12,9.44-2.08,13.89-2.86a.5.5,0,1,1,.17,1c-4.43.78-9.08,1.73-13.83,2.85Z"/><path class="cls-23" d="M307.92,158.89h0c-3.34,0-6.68-.07-10-.12l-4.54-.07a.5.5,0,0,1,0-1h0l4.54.07c3.34.05,6.67.11,10,.12a.5.5,0,0,1,0,1Z"/><path class="cls-23" d="M275.26,156.72a.5.5,0,0,1,0-1q2.13-.2,4.26-.35a.5.5,0,0,1,.07,1q-2.12.15-4.24.35Z"/><path class="cls-23" d="M297.27,155.71a.5.5,0,0,1,0-1c3.42,0,6.84-.06,10.27-.07h.4a.54.54,0,0,1,.5.5.5.5,0,0,1-.5.5h-.4c-3.42,0-6.84,0-10.26.07Z"/><path class="cls-23" d="M273.71,154.76a.5.5,0,0,1-.07-1c3-.43,6.11-.81,9.29-1.12a.5.5,0,0,1,.1,1c-3.17.31-6.28.69-9.25,1.12Z"/><path class="cls-23" d="M301.62,152.51a.5.5,0,0,1,0-1q3.24-.09,6.47-.13a.5.5,0,1,1,0,1q-3.23,0-6.46.13Z"/><path class="cls-23" d="M271.45,152.12a.5.5,0,0,1-.11-1,110.55,110.55,0,0,1,16.76-2.35.5.5,0,0,1,.07,1,109.57,109.57,0,0,0-16.6,2.32Z"/><rect class="cls-3" x="303.33" y="141.54" width="5.39" height="1"/><path class="cls-23" d="M248.73,161.61a12,12,0,0,1,23.35,0h2.14a14.08,14.08,0,0,0-27.64,0Z"/><path class="cls-3" d="M274.23,162.11h-2.14a.5.5,0,0,1-.49-.39,11.48,11.48,0,0,0-22.38,0,.5.5,0,0,1-.49.39h-2.14a.5.5,0,0,1-.49-.6,14.58,14.58,0,0,1,28.62,0,.5.5,0,0,1-.49.6Zm-1.75-1h1.13a13.58,13.58,0,0,0-26.39,0h1.13a12.48,12.48,0,0,1,24.13,0Z"/><path class="cls-2" d="M248.73,161.61a12,12,0,0,1,23.35,0Z"/><path class="cls-3" d="M272.09,162.11H248.73a.5.5,0,0,1-.49-.61,12.48,12.48,0,0,1,24.33,0,.5.5,0,0,1-.49.61Zm-22.71-1h22.06a11.48,11.48,0,0,0-22.06,0Z"/></svg>