<svg xmlns="http://www.w3.org/2000/svg" viewBox="0 0 553 296"><defs><style>.cls-1{isolation:isolate;}.cls-2,.cls-4{fill:#f3f6f7;}.cls-2{stroke:#f3f6f7;}.cls-10,.cls-11,.cls-2,.cls-28,.cls-3,.cls-36,.cls-37,.cls-38,.cls-39,.cls-4,.cls-40,.cls-41,.cls-42,.cls-43,.cls-44,.cls-45,.cls-50,.cls-51,.cls-52,.cls-6,.cls-7,.cls-8,.cls-9{stroke-linecap:round;stroke-linejoin:round;}.cls-3{fill:#a1c2d8;}.cls-3,.cls-38,.cls-39,.cls-4,.cls-40,.cls-41,.cls-42,.cls-43,.cls-44,.cls-50,.cls-9{stroke:#243839;}.cls-5,.cls-7{mix-blend-mode:multiply;}.cls-36,.cls-37,.cls-45,.cls-51,.cls-52,.cls-6,.cls-7,.cls-9{fill:none;}.cls-6,.cls-7,.cls-8{stroke:#d5d5d7;}.cls-38,.cls-8{fill:#fff;}.cls-10,.cls-11,.cls-19,.cls-20,.cls-28,.cls-35,.cls-42{fill:#d0e4f1;}.cls-10,.cls-11,.cls-19,.cls-20,.cls-28,.cls-36,.cls-37{stroke:#d0e4f1;}.cls-11,.cls-42{font-size:18.9px;letter-spacing:0.16em;}.cls-11,.cls-28,.cls-42,.cls-50{font-family:Futura-Bold, Futura;font-weight:700;}.cls-12{letter-spacing:0.09em;}.cls-13{letter-spacing:0.14em;}.cls-14{letter-spacing:0.14em;}.cls-15{letter-spacing:0.14em;}.cls-16{letter-spacing:0.14em;}.cls-17{letter-spacing:0.14em;}.cls-18{letter-spacing:0.14em;}.cls-19,.cls-20{stroke-miterlimit:10;}.cls-20,.cls-47{font-size:9.81px;font-family:GothamRounded-Medium, Gotham Rounded;letter-spacing:0.05em;}.cls-21{letter-spacing:0.04em;}.cls-22{letter-spacing:0.05em;}.cls-23{letter-spacing:0.02em;}.cls-24{letter-spacing:0.04em;}.cls-25{letter-spacing:0.04em;}.cls-26{letter-spacing:0.03em;}.cls-27{letter-spacing:0.02em;}.cls-28,.cls-50{font-size:13.41px;letter-spacing:0.14em;}.cls-29{letter-spacing:0.14em;}.cls-30{letter-spacing:0.14em;}.cls-31{letter-spacing:0.14em;}.cls-32{letter-spacing:0.1em;}.cls-33{letter-spacing:0.14em;}.cls-34{letter-spacing:0.15em;}.cls-37,.cls-52{stroke-dasharray:0 2.85;}.cls-39{fill:#3290c1;}.cls-40,.cls-47{fill:#f56f40;}.cls-41{fill:#00bd9c;}.cls-43,.cls-50{fill:#19bc9c;}.cls-44{fill:#109995;}.cls-45{stroke:#f56f41;}.cls-46{fill:#d65129;}.cls-48{letter-spacing:0.02em;}.cls-49{fill:#243839;}.cls-51,.cls-52{stroke:#f56f40;}</style></defs><title>Announcements</title><g class="cls-1"><g id="Layer_6" data-name="Layer 6"><polygon class="cls-2" points="461.46 258.77 457.69 263.21 84.39 264.83 85.81 42.55 90.47 36.42 90.47 258.77 461.46 258.77"/></g><g id="stroke"><rect class="cls-3" x="90.47" y="36.42" width="370.99" height="222.35"/><rect class="cls-4" x="175.13" y="-27.55" width="201.66" height="350.3" transform="translate(423.56 -128.37) rotate(90)"/><g class="cls-5"><polyline class="cls-6" points="17.64 268.83 76.34 268.83 76.34 27.17 17.64 27.17"/><polyline class="cls-6" points="17.64 261.83 69.34 261.83 69.34 34.17 17.64 34.17"/><line class="cls-6" x1="69.34" y1="34.17" x2="76.34" y2="27.17"/><line class="cls-6" x1="69.34" y1="261.83" x2="76.34" y2="268.83"/></g><line class="cls-7" x1="474.92" y1="18.34" x2="474.92" y2="278.22"/><g class="cls-5"><path class="cls-6" d="M535,262.43H493a6.23,6.23,0,0,1-6.23-6.23V161.41a6.23,6.23,0,0,1,6.23-6.23h42"/><rect class="cls-8" x="484.95" y="167.99" width="3.61" height="17.12" rx="1.81" ry="1.81"/><line class="cls-6" x1="484.95" y1="172.28" x2="488.56" y2="172.28"/><line class="cls-6" x1="484.95" y1="180.77" x2="488.56" y2="180.77"/><rect class="cls-8" x="484.95" y="232.49" width="3.61" height="17.12" rx="1.81" ry="1.81"/><line class="cls-6" x1="484.95" y1="245.32" x2="488.56" y2="245.32"/><line class="cls-6" x1="484.95" y1="236.84" x2="488.56" y2="236.84"/><polyline class="cls-6" points="497.15 173.42 529.52 173.42 527.01 169.93"/><polyline class="cls-6" points="497.15 180.02 529.52 180.02 527.01 176.53"/><polyline class="cls-6" points="497.15 186.62 529.52 186.62 527.01 183.13"/><polyline class="cls-6" points="497.15 193.22 529.52 193.22 527.01 189.73"/><circle class="cls-6" cx="525.37" cy="215.26" r="2.5"/></g><g class="cls-5"><path class="cls-6" d="M535,140.89H493a6.23,6.23,0,0,1-6.23-6.23V39.87A6.23,6.23,0,0,1,493,33.64h42"/><rect class="cls-8" x="484.95" y="46.45" width="3.61" height="17.12" rx="1.81" ry="1.81"/><line class="cls-6" x1="484.95" y1="50.74" x2="488.56" y2="50.74"/><line class="cls-6" x1="484.95" y1="59.23" x2="488.56" y2="59.23"/><rect class="cls-8" x="484.95" y="110.95" width="3.61" height="17.12" rx="1.81" ry="1.81"/><line class="cls-6" x1="484.95" y1="123.78" x2="488.56" y2="123.78"/><line class="cls-6" x1="484.95" y1="115.3" x2="488.56" y2="115.3"/><polyline class="cls-6" points="497.15 51.88 529.52 51.88 527.01 48.39"/><polyline class="cls-6" points="497.15 58.48 529.52 58.48 527.01 54.99"/><polyline class="cls-6" points="497.15 65.08 529.52 65.08 527.01 61.59"/><polyline class="cls-6" points="497.15 71.68 529.52 71.68 527.01 68.19"/><circle class="cls-6" cx="525.37" cy="93.72" r="2.5"/></g><line class="cls-9" x1="100.82" y1="46.76" x2="90.47" y2="36.42"/><line class="cls-9" x1="451.11" y1="46.76" x2="461.46" y2="36.42"/><line class="cls-9" x1="451.11" y1="248.43" x2="461.46" y2="258.77"/><line class="cls-9" x1="100.82" y1="248.43" x2="90.47" y2="258.77"/><path class="cls-10" d="M112.24,133.84s4.14-3.72,4.14-69.57h53.11c0,65.85-4.14,69.57-4.14,69.57Z"/><circle class="cls-10" cx="120.05" cy="68.04" r="1.15"/><circle class="cls-10" cx="166.18" cy="68.04" r="1.15"/><path class="cls-10" d="M136.88,77.13C139,76,139.64,74.07,140.11,72c.47,2.12,1.11,4,3.23,5.18-2.12,1.17-2.77,3.06-3.23,5.18C139.64,80.19,139,78.3,136.88,77.13Z"/><path class="cls-10" d="M132.29,86.51a3.08,3.08,0,0,1-.85-.63,10.16,10.16,0,0,1-2.81-5,20.23,20.23,0,0,1-.37-3.71,20.23,20.23,0,0,1-.37,3.71,10.16,10.16,0,0,1-2.81,5,3.08,3.08,0,0,1-.85.63,3.08,3.08,0,0,1,.85.63,10.16,10.16,0,0,1,2.81,5,20.23,20.23,0,0,1,.37,3.71,20.23,20.23,0,0,1,.37-3.71,10.16,10.16,0,0,1,2.81-5A3.08,3.08,0,0,1,132.29,86.51Z"/><path class="cls-10" d="M139.1,91.29a5.67,5.67,0,0,0,.48,2.61,4.48,4.48,0,0,0,1.74,2,4.48,4.48,0,0,0-1.74,2,5.67,5.67,0,0,0-.48,2.61,5.67,5.67,0,0,0-.48-2.61,4.48,4.48,0,0,0-1.74-2,4.48,4.48,0,0,0,1.74-2A5.67,5.67,0,0,0,139.1,91.29Z"/><line class="cls-10" x1="123.78" y1="108.46" x2="127.58" y2="108.46"/><line class="cls-10" x1="132.58" y1="108.46" x2="148.18" y2="108.46"/><line class="cls-10" x1="123.7" y1="113.32" x2="139.56" y2="113.32"/><line class="cls-10" x1="122.92" y1="118.17" x2="128.7" y2="118.17"/><line class="cls-10" x1="132.92" y1="118.17" x2="145.08" y2="118.17"/><line class="cls-10" x1="122.32" y1="123.03" x2="138.62" y2="123.03"/><path class="cls-10" d="M318,161.82H187.16c5.51-36.32,2.07-86.69,2.07-86.69H318Z"/><rect class="cls-10" x="311.79" y="147.42" width="3.92" height="20.71" transform="translate(424.05 491.19) rotate(-135)"/><rect class="cls-10" x="311.79" y="68.83" width="3.92" height="20.71" transform="translate(591.6 -86.68) rotate(135)"/><rect class="cls-10" x="191.52" y="68.83" width="3.92" height="20.71" transform="translate(112.66 -113.62) rotate(45)"/><text class="cls-11" transform="translate(199.29 100.49)">M<tspan class="cls-12" x="22.54" y="0">A</tspan><tspan class="cls-13" x="39.47" y="0">T</tspan><tspan class="cls-14" x="52.18" y="0">H</tspan><tspan class="cls-15"><tspan x="0" y="45.26" xml:space="preserve">  </tspan><tspan class="cls-16" x="18.14" y="45.26">T</tspan><tspan class="cls-17" x="30.86" y="45.26">R</tspan><tspan class="cls-18" x="46.93" y="45.26">IV</tspan><tspan x="73.87" y="45.26">IA</tspan></tspan></text><rect class="cls-10" x="219.98" y="116.37" width="50.14" height="3.6"/><path class="cls-10" d="M199,116.85h4.22v-4.22h2.65v4.22h4.2v2.65h-4.2v4.22h-2.65V119.5H199Z"/><path class="cls-10" d="M302,128.57l3-3-3-3,1.87-1.87,3,3,3-3,1.87,1.87-3,3,3,3-1.87,1.87-3-3-3,3Z"/><path class="cls-10" d="M298.87,91.87l2.92-5.24,2.71,1.51-2.15,3.73H307v3.68h-6.17L300,97.09h7v3.68h-8.38l-2.76,4.9-2.71-1.51,2-3.39h-4.47V97.09h5.81l.89-1.53h-6.7V91.87Z"/><path class="cls-10" d="M274.45,105a18.94,18.94,0,0,0,2.38-9.68,21.8,21.8,0,0,0-.18-2.72,23.81,23.81,0,0,0-.5-2.7,19.6,19.6,0,0,0-.76-2.42,10.81,10.81,0,0,0-1-1.92l2.26-1.28a16.25,16.25,0,0,1,2.22,5,23.75,23.75,0,0,1,.78,6.26,22.87,22.87,0,0,1-.2,3,21.15,21.15,0,0,1-.58,2.88A19.09,19.09,0,0,1,278,104a13.62,13.62,0,0,1-1.28,2.3Z"/><path class="cls-10" d="M206.71,130a18.8,18.8,0,0,0-2.38,9.68,22.11,22.11,0,0,0,.18,2.76,24.53,24.53,0,0,0,.49,2.68,18.28,18.28,0,0,0,.75,2.39,10.69,10.69,0,0,0,1,1.93l-2.25,1.28a16.21,16.21,0,0,1-2.22-5,23.69,23.69,0,0,1-.78-6.23,22.7,22.7,0,0,1,.2-3,23,23,0,0,1,.57-2.9,17.51,17.51,0,0,1,.93-2.66,12.83,12.83,0,0,1,1.3-2.29Z"/><path class="cls-10" d="M284.68,111.77h3.23l-.65,4.92,4.48-2.08,1,3-4.88.93,3.41,3.59-2.62,1.9-2.37-4.34L283.92,124l-2.58-1.9,3.37-3.59-4.84-.93,1-3,4.45,2.12Z"/><rect class="cls-10" x="338.17" y="75.13" width="27.36" height="68.51"/><path class="cls-10" d="M357.86,72l-.66,1.26-.53.29.15.46L356,75.49c-.36.7-1.48.84-2.5.31s-1.55-1.52-1.18-2.22l.78-1.51.46-.15-.07-.6.66-1.26"/><ellipse class="cls-10" cx="356.01" cy="71.02" rx="1.42" ry="2.07" transform="translate(128.92 354.24) rotate(-62.56)"/><line class="cls-10" x1="353.53" y1="75.8" x2="352.22" y2="78.33"/><polygon class="cls-10" points="351.44 100.08 342.29 96.98 342.29 85.59 351.44 88.69 351.44 100.08"/><line class="cls-10" x1="348.94" y1="90.82" x2="344.78" y2="89.41"/><line class="cls-10" x1="348.94" y1="93.64" x2="344.78" y2="92.23"/><line class="cls-10" x1="348.94" y1="96.47" x2="344.78" y2="95.05"/><polygon class="cls-10" points="351.44 100.08 360.58 96.98 360.58 85.59 351.44 88.69 351.44 100.08"/><line class="cls-10" x1="353.93" y1="90.82" x2="358.09" y2="89.41"/><line class="cls-10" x1="353.93" y1="93.64" x2="358.09" y2="92.23"/><line class="cls-10" x1="353.93" y1="96.47" x2="358.09" y2="95.05"/><line class="cls-10" x1="347.54" y1="106.92" x2="355.33" y2="106.92"/><line class="cls-10" x1="343.22" y1="110.42" x2="359.65" y2="110.42"/><line class="cls-10" x1="345.56" y1="113.93" x2="349.83" y2="113.93"/><line class="cls-10" x1="352.5" y1="113.93" x2="357.31" y2="113.93"/><line class="cls-10" x1="344.64" y1="117.43" x2="358.23" y2="117.43"/><line class="cls-10" x1="346.62" y1="120.93" x2="356.25" y2="120.93"/><line class="cls-10" x1="341.95" y1="136.37" x2="346.07" y2="136.37"/><line class="cls-10" x1="341.95" y1="139.38" x2="352.49" y2="139.38"/><path class="cls-10" d="M382,131.05V67.37h52.66v65.75h-34a2.27,2.27,0,0,0-1.87-.25,2.22,2.22,0,0,0-1.8-.5,9.5,9.5,0,0,1-1.93.14c-1.23-.15-2.24-1.17-3.48-1.24a6.68,6.68,0,0,0-1.86.32,8.25,8.25,0,0,1-4.48-.23C384.39,131.06,382.07,130.54,382,131.05Z"/><rect class="cls-10" x="427.87" y="133.12" width="6.79" height="15.81"/><line class="cls-10" x1="430.3" y1="146.95" x2="430.3" y2="142.22"/><line class="cls-10" x1="430.3" y1="140.04" x2="430.3" y2="137.37"/><line class="cls-10" x1="432.23" y1="146.95" x2="432.23" y2="139.35"/><rect class="cls-10" x="421.07" y="133.12" width="6.79" height="15.81"/><line class="cls-10" x1="423.5" y1="146.95" x2="423.5" y2="142.22"/><line class="cls-10" x1="423.5" y1="140.04" x2="423.5" y2="137.37"/><line class="cls-10" x1="425.44" y1="146.95" x2="425.44" y2="139.35"/><rect class="cls-10" x="414.28" y="133.12" width="6.79" height="15.81"/><line class="cls-10" x1="416.71" y1="146.95" x2="416.71" y2="142.22"/><line class="cls-10" x1="416.71" y1="140.04" x2="416.71" y2="137.37"/><line class="cls-10" x1="418.64" y1="146.95" x2="418.64" y2="139.35"/><rect class="cls-10" x="407.48" y="133.12" width="6.79" height="15.81"/><line class="cls-10" x1="409.91" y1="146.95" x2="409.91" y2="142.22"/><line class="cls-10" x1="409.91" y1="140.04" x2="409.91" y2="137.37"/><line class="cls-10" x1="411.85" y1="146.95" x2="411.85" y2="139.35"/><rect class="cls-10" x="400.69" y="133.12" width="6.79" height="15.81"/><line class="cls-10" x1="403.12" y1="146.95" x2="403.12" y2="142.22"/><line class="cls-10" x1="403.12" y1="140.04" x2="403.12" y2="137.37"/><line class="cls-10" x1="405.06" y1="146.95" x2="405.06" y2="139.35"/><circle class="cls-10" cx="401.82" cy="85.59" r="11.52"/><ellipse class="cls-19" cx="396.49" cy="88.66" rx="5.16" ry="7.95" transform="translate(8.45 209.02) rotate(-29.84)"/><circle class="cls-10" cx="401.82" cy="85.59" r="11.52"/><path class="cls-10" d="M405,82.77a2.25,2.25,0,0,1,3.11-.67"/><path class="cls-10" d="M407.5,86.35a6.09,6.09,0,0,1-8.26,2.44"/><path class="cls-10" d="M396.36,85.1a2.25,2.25,0,0,1,3.11-.67"/><circle class="cls-10" cx="421.29" cy="93.02" r="1.77"/><polygon class="cls-10" points="425.93 75.9 422.57 75.34 420.89 88.21 423.18 88.59 425.93 75.9"/><line class="cls-10" x1="391.25" y1="104.41" x2="397.72" y2="104.41"/><line class="cls-10" x1="401.73" y1="104.34" x2="420.99" y2="104.34"/><line class="cls-10" x1="391.25" y1="109.49" x2="409.1" y2="109.49"/><line class="cls-10" x1="391.25" y1="114.58" x2="403.92" y2="114.58"/><line class="cls-10" x1="412.26" y1="109.49" x2="415.43" y2="109.49"/><line class="cls-10" x1="407.55" y1="114.58" x2="419.38" y2="114.58"/><line class="cls-10" x1="391.25" y1="119.67" x2="410.84" y2="119.67"/><rect class="cls-10" x="120.63" y="157.67" width="50.73" height="72.22"/><circle class="cls-10" cx="124.76" cy="161.91" r="1.27"/><circle class="cls-10" cx="167.23" cy="161.91" r="1.27"/><circle class="cls-10" cx="197.75" cy="182.69" r="1.27"/><circle class="cls-10" cx="269.57" cy="182.69" r="1.27"/><circle class="cls-10" cx="269.57" cy="228.15" r="1.27"/><circle class="cls-10" cx="197.75" cy="228.15" r="1.27"/><circle class="cls-10" cx="124.76" cy="225.64" r="1.27"/><circle class="cls-10" cx="167.23" cy="225.64" r="1.27"/><text class="cls-20" transform="translate(131.29 177.44)">N<tspan class="cls-21" x="8.22" y="0">E</tspan><tspan class="cls-22" x="15.21" y="0">X</tspan><tspan class="cls-23" x="22.66" y="0">T</tspan><tspan class="cls-24"><tspan x="-5.4" y="10.38">M</tspan><tspan class="cls-25" x="3.51" y="10.38">O</tspan><tspan class="cls-26" x="12.2" y="10.38">NT</tspan><tspan class="cls-27" x="26.96" y="10.38">H</tspan></tspan></text><rect class="cls-10" x="137.04" y="203.42" width="17.19" height="9.76" transform="translate(-104.63 163.99) rotate(-45)"/><polyline class="cls-10" points="150.05 208.05 152.42 205.67 148.26 201.51"/><polyline class="cls-10" points="141.18 208.59 138.85 210.93 143.01 215.09"/><path class="cls-10" d="M142.67,204.37a3.29,3.29,0,0,0-1.17-2.24A6.42,6.42,0,0,0,136,200a3.57,3.57,0,0,0-1.59.64,2.12,2.12,0,0,0-.88,1.46,1.64,1.64,0,0,0,.41,1.13,1.57,1.57,0,0,0,2.2.31,1,1,0,0,0,.76,1.33,2.33,2.33,0,0,0,1.77-.52,1.71,1.71,0,0,0,1.18,1.24,2.33,2.33,0,0,0,1.89-.35"/><path class="cls-10" d="M149.56,211.27a3.29,3.29,0,0,1,2.24,1.17,6.42,6.42,0,0,1,2.1,5.49,3.57,3.57,0,0,1-.64,1.59,2.12,2.12,0,0,1-1.46.88,1.64,1.64,0,0,1-1.13-.41,1.57,1.57,0,0,1-.31-2.2A1,1,0,0,1,149,217a2.33,2.33,0,0,1,.52-1.77,1.71,1.71,0,0,1-1.24-1.18,2.33,2.33,0,0,1,.35-1.89"/><path class="cls-19" d="M143.74,207.05a.3.3,0,0,1-.09-.22.32.32,0,0,1,.31-.31.29.29,0,0,1,.22.09l.06.06a2.59,2.59,0,0,1,.81-.41.38.38,0,0,1,.39.08.45.45,0,0,1,.15.31.35.35,0,0,1-.1.27.49.49,0,0,1-.21.13,2.32,2.32,0,0,0-.5.21l.64.64a2.35,2.35,0,0,1,1.06-.38,1,1,0,0,1,.78.34,1,1,0,0,1,.32.82,1.72,1.72,0,0,1-.4.94l.22.22a.31.31,0,0,1,.1.22.3.3,0,0,1-.09.22.31.31,0,0,1-.44,0l-.23-.23a3,3,0,0,1-1.13.54.38.38,0,0,1-.38-.09.46.46,0,0,1-.15-.3.33.33,0,0,1,.1-.26.49.49,0,0,1,.25-.14,2.45,2.45,0,0,0,.79-.31l-.67-.67a2.34,2.34,0,0,1-1,.38,1,1,0,0,1-.79-.34,1,1,0,0,1-.33-.82,1.61,1.61,0,0,1,.4-.93Zm.58,1.11a.35.35,0,0,0,.24.11.82.82,0,0,0,.36-.1l-.58-.58Q144.09,207.94,144.32,208.17Zm2.34.37a.36.36,0,0,0-.25-.11.84.84,0,0,0-.36.1l.59.59Q146.89,208.77,146.66,208.54Z"/><path class="cls-10" d="M430.16,166.94l-9.59,66a1,1,0,0,1-1.77.54L374,184Z"/><path class="cls-10" d="M430.16,166.94l-33,42.63,21.65,23.92a1,1,0,0,0,1.77-.54Z"/><path class="cls-10" d="M416.42,196.39l-8.22-11.6,1.2-.37-1-3.34L400,183.64l1,3.34,1.2-.37-.35,14.21-2.33.71,1,3.34,8.39-2.56-1-3.34-1.57.48.05-2.15,4.27-1.3,1.24,1.76-1.57.48,1,3.34,8.39-2.56-1-3.34Zm-9.93-2.19.1-4,2.3,3.25Z"/><path class="cls-10" d="M372.15,172.91h59a1.1,1.1,0,0,1,1.1,1.1v1a.57.57,0,0,1-.57.57H372.15a1.1,1.1,0,0,1-1.1-1.1V174A1.1,1.1,0,0,1,372.15,172.91Z" transform="translate(-33.34 124.57) rotate(-16.94)"/><path class="cls-10" d="M375.27,177a8.08,8.08,0,0,1-.13,3.94,8.08,8.08,0,0,1-2.3-3.2c-.53-1.73-.19-2.56.49-2.77S374.74,175.25,375.27,177Z"/><path class="cls-10" d="M425.2,161.77a8.08,8.08,0,0,0,2.3,3.2,8.08,8.08,0,0,0,.13-3.94c-.53-1.73-1.27-2.23-1.95-2S424.68,160,425.2,161.77Z"/><path class="cls-10" d="M401.45,169a8.08,8.08,0,0,1-.13,3.94,8.08,8.08,0,0,1-2.3-3.2c-.53-1.73-.19-2.56.49-2.77S400.93,167.28,401.45,169Z"/><rect class="cls-10" x="297.33" y="173.12" width="65.46" height="50.84" transform="translate(-34.97 75.63) rotate(-12.42)"/><rect class="cls-10" x="315.88" y="176.06" width="30.15" height="53.05" transform="translate(204.28 569.36) rotate(-102.42)"/><line class="cls-10" x1="318.65" y1="220.73" x2="312.17" y2="191.28"/><line class="cls-10" x1="329.02" y1="218.45" x2="322.53" y2="189"/><line class="cls-10" x1="339.38" y1="216.17" x2="332.89" y2="186.72"/><line class="cls-10" x1="349.74" y1="213.88" x2="343.26" y2="184.44"/><line class="cls-10" x1="302.53" y1="196.84" x2="354.34" y2="185.43"/><line class="cls-10" x1="303.25" y1="200.11" x2="355.06" y2="188.7"/><line class="cls-10" x1="303.97" y1="203.38" x2="355.78" y2="191.97"/><line class="cls-10" x1="304.69" y1="206.65" x2="356.5" y2="195.24"/><line class="cls-10" x1="305.41" y1="209.92" x2="357.22" y2="198.51"/><line class="cls-10" x1="306.13" y1="213.2" x2="357.94" y2="201.79"/><line class="cls-10" x1="306.85" y1="216.47" x2="358.66" y2="205.06"/><line class="cls-10" x1="307.57" y1="219.74" x2="359.38" y2="208.33"/><line class="cls-10" x1="300.91" y1="189.5" x2="307.1" y2="188.14"/><line class="cls-10" x1="300.25" y1="186.47" x2="309.47" y2="184.44"/><line class="cls-10" x1="299.58" y1="183.44" x2="303.75" y2="182.52"/><line class="cls-10" x1="318.09" y1="185.72" x2="324.28" y2="184.36"/><line class="cls-10" x1="317.42" y1="182.69" x2="321.59" y2="181.77"/><line class="cls-10" x1="342.36" y1="180.38" x2="348.55" y2="179.01"/><line class="cls-10" x1="341.69" y1="177.35" x2="345.86" y2="176.43"/><line class="cls-10" x1="347.88" y1="175.98" x2="352.05" y2="175.07"/><line class="cls-10" x1="354.75" y1="169.71" x2="355.86" y2="161.72"/><circle class="cls-10" cx="356.12" cy="159.83" r="1.57" transform="translate(-26.04 80.32) rotate(-12.42)"/><rect class="cls-10" x="194.45" y="179.01" width="79.05" height="52.51"/><text class="cls-28" transform="translate(208.51 202.58)">B<tspan class="cls-29" x="11.12" y="0">O</tspan><tspan class="cls-30" x="25.39" y="0">O</tspan><tspan class="cls-31" x="39.73" y="0">K</tspan><tspan class="cls-32"><tspan x="0" y="13.9">F</tspan><tspan class="cls-33" x="8.74" y="13.9">A</tspan><tspan class="cls-34" x="21.38" y="13.9">I</tspan><tspan class="cls-31" x="28.1" y="13.9">R</tspan></tspan></text><polyline class="cls-35" points="259.96 184.69 260.23 187.95 263.44 188.49 263.72 191.75 266.94 192.3 267.21 195.56"/><polyline class="cls-36" points="259.96 184.69 260.23 187.95 263.44 188.49 263.72 191.75 266.94 192.3 267.21 195.56"/><polyline class="cls-35" points="199.61 194.51 203.09 193.56 203.56 189.98 207.05 189.03 207.53 185.45 211.01 184.5"/><polyline class="cls-36" points="199.61 194.51 203.09 193.56 203.56 189.98 207.05 189.03 207.53 185.45 211.01 184.5"/><circle class="cls-10" cx="250.72" cy="214.63" r="1.58"/><line class="cls-35" x1="262.31" y1="220.08" x2="269.01" y2="214.76"/><line class="cls-36" x1="262.31" y1="220.08" x2="262.31" y2="220.08"/><line class="cls-37" x1="264.54" y1="218.31" x2="267.89" y2="215.64"/><line class="cls-36" x1="269.01" y1="214.76" x2="269.01" y2="214.76"/><line class="cls-35" x1="260.2" y1="217.52" x2="266.9" y2="212.19"/><line class="cls-36" x1="260.2" y1="217.52" x2="260.2" y2="217.52"/><line class="cls-37" x1="262.43" y1="215.74" x2="265.78" y2="213.08"/><line class="cls-36" x1="266.9" y1="212.19" x2="266.9" y2="212.19"/><line class="cls-35" x1="258.1" y1="214.95" x2="264.8" y2="209.63"/><line class="cls-36" x1="258.1" y1="214.95" x2="258.1" y2="214.95"/><line class="cls-37" x1="260.33" y1="213.18" x2="263.68" y2="210.52"/><line class="cls-36" x1="264.8" y1="209.63" x2="264.8" y2="209.63"/><line class="cls-35" x1="255.99" y1="212.39" x2="262.69" y2="207.06"/><line class="cls-36" x1="255.99" y1="212.39" x2="255.99" y2="212.39"/><line class="cls-37" x1="258.22" y1="210.61" x2="261.57" y2="207.95"/><line class="cls-36" x1="262.69" y1="207.06" x2="262.69" y2="207.06"/><polygon class="cls-10" points="203.76 208.56 201.62 212.35 199.4 208.59 203.76 208.56"/><path class="cls-35" d="M209.16,223.23c2.48,0,2.48,2,5,2s2.48-2,5-2,2.48,2,5,2,2.48-2,5-2,2.48,2,5,2"/><path class="cls-36" d="M209.16,223.23c2.48,0,2.48,2,5,2s2.48-2,5-2,2.48,2,5,2,2.48-2,5-2,2.48,2,5,2"/><path class="cls-38" d="M113.28,131.78s4.14-3.72,4.14-69.57h53.11c0,65.85-4.14,69.57-4.14,69.57Z"/><circle class="cls-39" cx="121.08" cy="65.97" r="1.15"/><circle class="cls-39" cx="167.22" cy="65.97" r="1.15"/><path class="cls-40" d="M137.91,75.06c2.12-1.17,2.77-3.06,3.23-5.18.47,2.12,1.11,4,3.23,5.18-2.12,1.17-2.77,3.06-3.23,5.18C140.68,78.13,140,76.24,137.91,75.06Z"/><path class="cls-40" d="M133.32,84.44a3.08,3.08,0,0,1-.85-.63,10.16,10.16,0,0,1-2.81-5,20.23,20.23,0,0,1-.37-3.71,20.23,20.23,0,0,1-.37,3.71,10.16,10.16,0,0,1-2.81,5,3.08,3.08,0,0,1-.85.63,3.08,3.08,0,0,1,.85.63,10.16,10.16,0,0,1,2.81,5,20.23,20.23,0,0,1,.37,3.71,20.23,20.23,0,0,1,.37-3.71,10.16,10.16,0,0,1,2.81-5A3.08,3.08,0,0,1,133.32,84.44Z"/><path class="cls-40" d="M140.13,89.22a5.67,5.67,0,0,0,.48,2.61,4.48,4.48,0,0,0,1.74,2,4.48,4.48,0,0,0-1.74,2,5.67,5.67,0,0,0-.48,2.61,5.67,5.67,0,0,0-.48-2.61,4.48,4.48,0,0,0-1.74-2,4.48,4.48,0,0,0,1.74-2A5.67,5.67,0,0,0,140.13,89.22Z"/><line class="cls-9" x1="124.82" y1="106.39" x2="128.61" y2="106.39"/><line class="cls-9" x1="133.61" y1="106.39" x2="149.22" y2="106.39"/><line class="cls-9" x1="124.73" y1="111.25" x2="140.59" y2="111.25"/><line class="cls-9" x1="123.96" y1="116.1" x2="129.73" y2="116.1"/><line class="cls-9" x1="133.96" y1="116.1" x2="146.11" y2="116.1"/><line class="cls-9" x1="123.35" y1="120.96" x2="139.65" y2="120.96"/><path class="cls-38" d="M319,159.75H188.19c5.51-36.32,2.07-86.69,2.07-86.69H319Z"/><rect class="cls-41" x="312.83" y="145.35" width="3.92" height="20.71" transform="translate(427.28 488.39) rotate(-135)"/><rect class="cls-41" x="312.83" y="66.76" width="3.92" height="20.71" transform="translate(591.9 -90.94) rotate(135)"/><rect class="cls-41" x="192.56" y="66.76" width="3.92" height="20.71" transform="translate(111.5 -114.96) rotate(45)"/><text class="cls-42" transform="translate(200.32 99.46)">M<tspan class="cls-12" x="22.54" y="0">A</tspan><tspan class="cls-13" x="39.47" y="0">T</tspan><tspan class="cls-14" x="52.18" y="0">H</tspan><tspan class="cls-15"><tspan x="0" y="45.26" xml:space="preserve">  </tspan><tspan class="cls-16" x="18.14" y="45.26">T</tspan><tspan class="cls-17" x="30.86" y="45.26">R</tspan><tspan class="cls-18" x="46.93" y="45.26">IV</tspan><tspan x="73.87" y="45.26">IA</tspan></tspan></text><rect class="cls-40" x="221.01" y="114.3" width="50.14" height="3.6"/><path class="cls-43" d="M200.06,114.78h4.22v-4.22h2.65v4.22h4.2v2.65h-4.2v4.22h-2.65v-4.22h-4.22Z"/><path class="cls-43" d="M303,126.5l3-3-3-3,1.87-1.87,3,3,3-3,1.87,1.87-3,3,3,3-1.87,1.87-3-3-3,3Z"/><path class="cls-39" d="M299.91,89.81l2.92-5.24,2.71,1.51-2.15,3.73h4.68v3.68h-6.17L301,95h7V98.7h-8.38l-2.76,4.9-2.71-1.51,2-3.39h-4.47V95h5.81l.89-1.53h-6.7V89.81Z"/><path class="cls-43" d="M275.49,102.9a18.94,18.94,0,0,0,2.38-9.68,21.8,21.8,0,0,0-.18-2.72,23.81,23.81,0,0,0-.5-2.7,19.6,19.6,0,0,0-.76-2.42,10.81,10.81,0,0,0-1-1.92l2.26-1.28a16.25,16.25,0,0,1,2.22,5,23.75,23.75,0,0,1,.78,6.26,22.87,22.87,0,0,1-.2,3,21.15,21.15,0,0,1-.58,2.88,19.09,19.09,0,0,1-.94,2.65,13.62,13.62,0,0,1-1.28,2.3Z"/><path class="cls-39" d="M207.75,127.9a18.8,18.8,0,0,0-2.38,9.68,22.11,22.11,0,0,0,.18,2.76A24.53,24.53,0,0,0,206,143a18.28,18.28,0,0,0,.75,2.39,10.69,10.69,0,0,0,1,1.93l-2.25,1.28a16.21,16.21,0,0,1-2.22-5,23.69,23.69,0,0,1-.78-6.23,22.7,22.7,0,0,1,.2-3,23,23,0,0,1,.57-2.9,17.51,17.51,0,0,1,.93-2.66,12.83,12.83,0,0,1,1.3-2.29Z"/><path class="cls-39" d="M285.71,109.7h3.23l-.65,4.92,4.48-2.08,1,3-4.88.93,3.41,3.59-2.62,1.9-2.37-4.34L285,122l-2.58-1.9,3.37-3.59-4.84-.93,1-3,4.45,2.12Z"/><rect class="cls-38" x="339.21" y="73.07" width="27.36" height="68.51"/><path class="cls-40" d="M358.89,69.9l-.66,1.26-.53.29.15.46-.78,1.51c-.36.7-1.48.84-2.5.31s-1.55-1.52-1.18-2.22l.78-1.51.46-.15-.07-.6.66-1.26"/><ellipse class="cls-40" cx="357.05" cy="68.95" rx="1.42" ry="2.07" transform="translate(131.31 354.04) rotate(-62.56)"/><line class="cls-9" x1="354.57" y1="73.73" x2="353.25" y2="76.26"/><polygon class="cls-43" points="352.47 98.02 343.32 94.91 343.32 83.52 352.47 86.63 352.47 98.02"/><line class="cls-9" x1="349.97" y1="88.75" x2="345.81" y2="87.34"/><line class="cls-9" x1="349.97" y1="91.57" x2="345.81" y2="90.16"/><line class="cls-9" x1="349.97" y1="94.4" x2="345.81" y2="92.99"/><polygon class="cls-44" points="352.47 98.02 361.62 94.91 361.62 83.52 352.47 86.63 352.47 98.02"/><line class="cls-9" x1="354.96" y1="88.75" x2="359.12" y2="87.34"/><line class="cls-9" x1="354.96" y1="91.57" x2="359.12" y2="90.16"/><line class="cls-9" x1="354.96" y1="94.4" x2="359.12" y2="92.99"/><line class="cls-9" x1="348.57" y1="104.85" x2="356.36" y2="104.85"/><line class="cls-9" x1="344.25" y1="108.35" x2="360.69" y2="108.35"/><line class="cls-9" x1="346.59" y1="111.86" x2="350.87" y2="111.86"/><line class="cls-9" x1="353.54" y1="111.86" x2="358.35" y2="111.86"/><line class="cls-9" x1="345.67" y1="115.36" x2="359.27" y2="115.36"/><line class="cls-9" x1="347.65" y1="118.86" x2="357.28" y2="118.86"/><line class="cls-9" x1="342.99" y1="134.3" x2="347.11" y2="134.3"/><line class="cls-9" x1="342.99" y1="137.32" x2="353.52" y2="137.32"/><path class="cls-38" d="M383,129V65.3H435.7v65.75h-34a2.27,2.27,0,0,0-1.87-.25,2.22,2.22,0,0,0-1.8-.5,9.5,9.5,0,0,1-1.93.14c-1.23-.15-2.24-1.17-3.48-1.24a6.68,6.68,0,0,0-1.86.32,8.25,8.25,0,0,1-4.48-.23C385.43,129,383.1,128.47,383,129Z"/><rect class="cls-38" x="428.9" y="131.05" width="6.79" height="15.81"/><line class="cls-45" x1="431.33" y1="144.88" x2="431.33" y2="140.15"/><line class="cls-45" x1="431.33" y1="137.97" x2="431.33" y2="135.3"/><line class="cls-45" x1="433.27" y1="144.88" x2="433.27" y2="137.28"/><rect class="cls-38" x="422.11" y="131.05" width="6.79" height="15.81"/><line class="cls-45" x1="424.54" y1="144.88" x2="424.54" y2="140.15"/><line class="cls-45" x1="424.54" y1="137.97" x2="424.54" y2="135.3"/><line class="cls-45" x1="426.47" y1="144.88" x2="426.47" y2="137.28"/><rect class="cls-38" x="415.31" y="131.05" width="6.79" height="15.81"/><line class="cls-45" x1="417.74" y1="144.88" x2="417.74" y2="140.15"/><line class="cls-45" x1="417.74" y1="137.97" x2="417.74" y2="135.3"/><line class="cls-45" x1="419.68" y1="144.88" x2="419.68" y2="137.28"/><rect class="cls-38" x="408.52" y="131.05" width="6.79" height="15.81"/><line class="cls-45" x1="410.95" y1="144.88" x2="410.95" y2="140.15"/><line class="cls-45" x1="410.95" y1="137.97" x2="410.95" y2="135.3"/><line class="cls-45" x1="412.88" y1="144.88" x2="412.88" y2="137.28"/><rect class="cls-38" x="401.73" y="131.05" width="6.79" height="15.81"/><line class="cls-45" x1="404.15" y1="144.88" x2="404.15" y2="140.15"/><line class="cls-45" x1="404.15" y1="137.97" x2="404.15" y2="135.3"/><line class="cls-45" x1="406.09" y1="144.88" x2="406.09" y2="137.28"/><circle class="cls-40" cx="402.85" cy="83.52" r="11.52"/><ellipse class="cls-46" cx="397.53" cy="86.59" rx="5.16" ry="7.95" transform="translate(9.61 209.26) rotate(-29.84)"/><circle class="cls-9" cx="402.85" cy="83.52" r="11.52"/><path class="cls-9" d="M406,80.7a2.25,2.25,0,0,1,3.11-.67"/><path class="cls-9" d="M408.54,84.28a6.09,6.09,0,0,1-8.26,2.44"/><path class="cls-9" d="M397.4,83a2.25,2.25,0,0,1,3.11-.67"/><circle class="cls-40" cx="422.32" cy="90.95" r="1.77"/><polygon class="cls-40" points="426.96 73.83 423.61 73.27 421.93 86.14 424.21 86.52 426.96 73.83"/><line class="cls-9" x1="392.29" y1="102.34" x2="398.75" y2="102.34"/><line class="cls-9" x1="402.76" y1="102.27" x2="422.03" y2="102.27"/><line class="cls-9" x1="392.29" y1="107.42" x2="410.14" y2="107.42"/><line class="cls-9" x1="392.29" y1="112.51" x2="404.96" y2="112.51"/><line class="cls-9" x1="413.3" y1="107.42" x2="416.47" y2="107.42"/><line class="cls-9" x1="408.58" y1="112.51" x2="420.41" y2="112.51"/><line class="cls-9" x1="392.29" y1="117.6" x2="411.88" y2="117.6"/><rect class="cls-38" x="121.67" y="155.6" width="50.73" height="72.22"/><circle class="cls-40" cx="125.79" cy="159.85" r="1.27"/><circle class="cls-40" cx="168.27" cy="159.85" r="1.27"/><circle class="cls-9" cx="198.79" cy="180.62" r="1.27"/><circle class="cls-9" cx="270.6" cy="180.62" r="1.27"/><circle class="cls-9" cx="270.6" cy="226.08" r="1.27"/><circle class="cls-9" cx="198.79" cy="226.08" r="1.27"/><circle class="cls-40" cx="125.79" cy="223.57" r="1.27"/><circle class="cls-40" cx="168.27" cy="223.57" r="1.27"/><text class="cls-47" transform="translate(132.33 176.4)">N<tspan class="cls-21" x="8.22" y="0">E</tspan><tspan class="cls-22" x="15.21" y="0">X</tspan><tspan class="cls-48" x="22.66" y="0">T</tspan><tspan class="cls-24"><tspan x="-5.4" y="10.38">M</tspan><tspan class="cls-25" x="3.51" y="10.38">O</tspan><tspan class="cls-26" x="12.2" y="10.38">NT</tspan><tspan class="cls-27" x="26.96" y="10.38">H</tspan></tspan></text><rect class="cls-43" x="138.07" y="201.35" width="17.19" height="9.76" transform="translate(-102.87 164.11) rotate(-45)"/><polyline class="cls-9" points="151.08 205.98 153.46 203.6 149.3 199.44"/><polyline class="cls-9" points="142.22 206.52 139.88 208.86 144.04 213.02"/><path class="cls-9" d="M143.7,202.3a3.29,3.29,0,0,0-1.17-2.24A6.42,6.42,0,0,0,137,198a3.57,3.57,0,0,0-1.59.64,2.12,2.12,0,0,0-.88,1.46,1.64,1.64,0,0,0,.41,1.13,1.57,1.57,0,0,0,2.2.31,1,1,0,0,0,.76,1.33,2.33,2.33,0,0,0,1.77-.52,1.71,1.71,0,0,0,1.18,1.24,2.33,2.33,0,0,0,1.89-.35"/><path class="cls-9" d="M150.6,209.2a3.29,3.29,0,0,1,2.24,1.17,6.42,6.42,0,0,1,2.1,5.49,3.57,3.57,0,0,1-.64,1.59,2.12,2.12,0,0,1-1.46.88,1.64,1.64,0,0,1-1.13-.41,1.57,1.57,0,0,1-.31-2.2,1,1,0,0,1-1.33-.76,2.33,2.33,0,0,1,.52-1.77,1.71,1.71,0,0,1-1.24-1.18,2.33,2.33,0,0,1,.35-1.89"/><path class="cls-49" d="M144.78,205a.3.3,0,0,1-.09-.22.32.32,0,0,1,.31-.31.29.29,0,0,1,.22.09l.06.06a2.59,2.59,0,0,1,.81-.41.38.38,0,0,1,.39.08.45.45,0,0,1,.15.31.35.35,0,0,1-.1.27.49.49,0,0,1-.21.13,2.32,2.32,0,0,0-.5.21l.64.64a2.35,2.35,0,0,1,1.06-.38,1,1,0,0,1,.78.34,1,1,0,0,1,.32.82,1.72,1.72,0,0,1-.4.94l.22.22a.31.31,0,0,1,.1.22.3.3,0,0,1-.09.22.31.31,0,0,1-.44,0l-.23-.23a3,3,0,0,1-1.13.54.38.38,0,0,1-.38-.09.46.46,0,0,1-.15-.3.33.33,0,0,1,.1-.26.49.49,0,0,1,.25-.14,2.45,2.45,0,0,0,.79-.31l-.67-.67a2.34,2.34,0,0,1-1,.38,1,1,0,0,1-.79-.34,1,1,0,0,1-.33-.82,1.61,1.61,0,0,1,.4-.93Zm.58,1.11a.35.35,0,0,0,.24.11.82.82,0,0,0,.36-.1l-.58-.58Q145.13,205.87,145.35,206.1Zm2.34.37a.36.36,0,0,0-.25-.11.84.84,0,0,0-.36.1l.59.59Q147.93,206.7,147.7,206.47Z"/><path class="cls-38" d="M431.2,164.87l-9.59,66a1,1,0,0,1-1.77.54L375.07,182Z"/><path class="cls-43" d="M431.2,164.87l-33,42.63,21.65,23.92a1,1,0,0,0,1.77-.54Z"/><path class="cls-38" d="M418.47,194.83,409,181.48l1.38-.42-1.17-3.84-9.66,2.94,1.17,3.84,1.38-.42-.41,16.35-2.68.82,1.17,3.84,9.66-2.94-1.17-3.84-1.81.55.06-2.47,4.91-1.5,1.43,2-1.81.55,1.17,3.84,9.66-2.94L421.15,194ZM407,192.32l.11-4.58,2.65,3.74Z"/><path class="cls-38" d="M373.18,170.84h59a1.1,1.1,0,0,1,1.1,1.1v1a.57.57,0,0,1-.57.57H373.18a1.1,1.1,0,0,1-1.1-1.1v-.47A1.1,1.1,0,0,1,373.18,170.84Z" transform="translate(-32.69 124.78) rotate(-16.94)"/><path class="cls-9" d="M376.3,174.91a8.08,8.08,0,0,1-.13,3.94,8.08,8.08,0,0,1-2.3-3.2c-.53-1.73-.19-2.56.49-2.77S375.78,173.18,376.3,174.91Z"/><path class="cls-9" d="M426.24,159.7a8.08,8.08,0,0,0,2.3,3.2,8.08,8.08,0,0,0,.13-3.94c-.53-1.73-1.27-2.23-1.95-2S425.71,158,426.24,159.7Z"/><path class="cls-9" d="M402.49,166.93a8.08,8.08,0,0,1-.13,3.94,8.08,8.08,0,0,1-2.3-3.2c-.53-1.73-.19-2.56.49-2.77S402,165.21,402.49,166.93Z"/><rect class="cls-38" x="298.37" y="171.05" width="65.46" height="50.84" transform="translate(-34.51 75.8) rotate(-12.42)"/><rect class="cls-9" x="316.91" y="173.99" width="30.15" height="53.05" transform="translate(207.56 567.86) rotate(-102.42)"/><line class="cls-9" x1="319.69" y1="218.66" x2="313.2" y2="189.21"/><line class="cls-9" x1="330.05" y1="216.38" x2="323.57" y2="186.93"/><line class="cls-9" x1="340.41" y1="214.1" x2="333.93" y2="184.65"/><line class="cls-9" x1="350.77" y1="211.81" x2="344.29" y2="182.37"/><line class="cls-9" x1="303.56" y1="194.77" x2="355.37" y2="183.36"/><line class="cls-9" x1="304.28" y1="198.04" x2="356.09" y2="186.63"/><line class="cls-9" x1="305" y1="201.31" x2="356.81" y2="189.9"/><line class="cls-9" x1="305.72" y1="204.58" x2="357.53" y2="193.17"/><line class="cls-9" x1="306.45" y1="207.85" x2="358.25" y2="196.45"/><line class="cls-9" x1="307.17" y1="211.13" x2="358.97" y2="199.72"/><line class="cls-9" x1="307.89" y1="214.4" x2="359.69" y2="202.99"/><line class="cls-9" x1="308.61" y1="217.67" x2="360.42" y2="206.26"/><line class="cls-9" x1="301.95" y1="187.43" x2="308.14" y2="186.07"/><line class="cls-9" x1="301.28" y1="184.4" x2="310.5" y2="182.37"/><line class="cls-9" x1="300.61" y1="181.37" x2="304.78" y2="180.45"/><line class="cls-9" x1="319.12" y1="183.65" x2="325.31" y2="182.29"/><line class="cls-9" x1="318.46" y1="180.62" x2="322.63" y2="179.7"/><line class="cls-9" x1="343.4" y1="178.31" x2="349.58" y2="176.95"/><line class="cls-9" x1="342.73" y1="175.28" x2="346.9" y2="174.36"/><line class="cls-9" x1="348.92" y1="173.91" x2="353.09" y2="173"/><line class="cls-9" x1="355.79" y1="167.65" x2="356.9" y2="159.65"/><circle class="cls-40" cx="357.15" cy="157.76" r="1.57" transform="translate(-25.57 80.5) rotate(-12.42)"/><rect class="cls-38" x="195.49" y="176.95" width="79.05" height="52.51"/><text class="cls-50" transform="translate(209.54 200.51)">B<tspan class="cls-29" x="11.12" y="0">O</tspan><tspan class="cls-30" x="25.39" y="0">O</tspan><tspan class="cls-31" x="39.73" y="0">K</tspan><tspan class="cls-32"><tspan x="0" y="13.9">F</tspan><tspan class="cls-33" x="8.74" y="13.9">A</tspan><tspan class="cls-34" x="21.38" y="13.9">I</tspan><tspan class="cls-31" x="28.1" y="13.9">R</tspan></tspan></text><polyline class="cls-51" points="261 182.63 261.26 185.88 264.48 186.42 264.75 189.68 267.97 190.23 268.25 193.49"/><polyline class="cls-51" points="200.64 192.44 204.13 191.5 204.6 187.91 208.08 186.96 208.56 183.38 212.05 182.43"/><circle class="cls-40" cx="251.75" cy="212.56" r="1.58"/><line class="cls-51" x1="263.34" y1="218.01" x2="263.34" y2="218.01"/><line class="cls-52" x1="265.57" y1="216.24" x2="268.92" y2="213.57"/><line class="cls-51" x1="270.04" y1="212.69" x2="270.04" y2="212.69"/><line class="cls-51" x1="261.23" y1="215.45" x2="261.23" y2="215.45"/><line class="cls-52" x1="263.47" y1="213.67" x2="266.82" y2="211.01"/><line class="cls-51" x1="267.94" y1="210.12" x2="267.94" y2="210.12"/><line class="cls-51" x1="259.13" y1="212.88" x2="259.13" y2="212.88"/><line class="cls-52" x1="261.36" y1="211.11" x2="264.71" y2="208.45"/><line class="cls-51" x1="265.83" y1="207.56" x2="265.83" y2="207.56"/><line class="cls-51" x1="257.02" y1="210.32" x2="257.02" y2="210.32"/><line class="cls-52" x1="259.26" y1="208.55" x2="262.61" y2="205.88"/><line class="cls-51" x1="263.73" y1="205" x2="263.73" y2="205"/><polygon class="cls-51" points="204.8 206.49 202.65 210.29 200.44 206.53 204.8 206.49"/><path class="cls-51" d="M210.2,221.16c2.48,0,2.48,2,5,2s2.48-2,5-2,2.48,2,5,2,2.48-2,5-2,2.48,2,5,2"/><path class="cls-9" d="M95.48,248.27a285.32,285.32,0,0,0,2.24-33.35c.06-7.39,1.56-30.84-3.78-29-1.71.6-.93,7.1-.92,7.25,0,.46.2,1,.65,1.12s.51-.9.1-.69"/><path class="cls-9" d="M93.64,220.79q-.58-9.51-.46-19.05"/><path class="cls-9" d="M97.16,178a100.94,100.94,0,0,1-2.34-40.85c1.26-8.5,3.62-16.86,4-25.44.83-19.05-8.13-38-4.88-56.76.37-2.11,1.29-5.88,3.11-5.28S98,63,96.64,63.79s-1-2.61.09-3.36"/><path class="cls-9" d="M94.68,104.91c-.65,1.71-.66,6.05.86,5.18s.47-5.72-.22-8.48"/><path class="cls-9" d="M456.61,49.58a320.35,320.35,0,0,0-2,33.35c-.06,7.39-1.39,30.84,3.36,29,1.52-.6.83-7.1.82-7.25,0-.46-.17-1-.58-1.12s-.46.9-.09.69"/><path class="cls-9" d="M458.24,77.06q.52,9.51.41,19.05"/><path class="cls-9" d="M455.12,119.88a113.15,113.15,0,0,1,2.08,40.85c-1.12,8.5-3.22,16.86-3.55,25.44-.74,19.05,7.23,38,4.34,56.76-.32,2.11-1.15,5.88-2.77,5.28s-.82-13.38.35-14.15.86,2.61-.08,3.36"/><path class="cls-9" d="M457.32,192.94c.58-1.71.59-6.05-.76-5.18s-.42,5.72.2,8.48"/><path class="cls-9" d="M96.31,39.53C105.5,39.33,113,42,122,43.05c9.69,1.17,20,.11,29.67-.53,17.45-1.15,35-2.93,52.43-.58a236.29,236.29,0,0,0,51.39,1c3.87-.35,1.76-2.91-.91-3.18q-7.68-.79-15.41-1a3.18,3.18,0,0,0-2.13.45c-.58.47-.63,1.58.07,1.83"/><path class="cls-9" d="M139.82,40.46c-1.9.91-13.54,1.54-9.24-1.2,2-1.26,5.15-.24,7.16.57"/><path class="cls-9" d="M102.15,43.47h4.31"/><path class="cls-9" d="M224.32,40.12l-11.38-.55"/><path class="cls-9" d="M263.38,44.21c8.14-2.27,16.38-4.55,24.83-4.69,11.23-.19,22.18,3.4,33.36,4.44,24.77,2.3,50-8,74.27-2.72,1.29.28,4.7,1.15,3.16,2s-14.27.88-15.45-.41,3.12-1.23,3.67-.79"/><path class="cls-9" d="M323.65,40.92c2.84.89,6.26,1.37,9.22.13a4.39,4.39,0,0,0-3.25-1.42,9.12,9.12,0,0,0-4.49,1"/><path class="cls-9" d="M407.8,42.6c4.89,1.28,9.93-.82,14.89-1.77,10.73-2,21.72,1.37,32.64,1.17"/><path class="cls-9" d="M458.08,39.59l-4.33-.05"/><path class="cls-9" d="M458.08,255.52c-9.19.2-16.72-2.43-25.7-3.52-9.69-1.17-20-.11-29.67.53-17.45,1.15-35,2.93-52.43.58a236.29,236.29,0,0,0-51.39-1c-3.87.35-1.76,2.91.91,3.18q7.68.79,15.41,1a3.18,3.18,0,0,0,2.13-.45c.58-.47.63-1.58-.07-1.83"/><path class="cls-9" d="M416.92,254.61c1.92-.76,10.42-1.18,7.12.92C422.52,256.5,415,255.37,416.92,254.61Z"/><path class="cls-9" d="M452.24,251.59h-4.31"/><path class="cls-9" d="M330.08,254.93l11.38.55"/><path class="cls-9" d="M291,250.84c-8.14,2.27-16.38,4.55-24.83,4.69-11.23.19-22.18-3.4-33.36-4.44-24.77-2.3-50,8-74.27,2.72-1.29-.28-4.7-1.15-3.16-2s14.27-.88,15.45.41-3.12,1.23-3.67.79"/><path class="cls-9" d="M230.74,254.14c-2.84-.89-6.26-1.37-9.22-.13a4.39,4.39,0,0,0,3.25,1.42,9.12,9.12,0,0,0,4.49-1"/><path class="cls-9" d="M146.59,252.45c-4.89-1.28-9.93.82-14.89,1.77-10.73,2-21.72-1.37-32.64-1.17"/><path class="cls-9" d="M96.31,255.46l4.33.05"/><path class="cls-6" d="M19.73,71.11a32.86,32.86,0,0,1,17,11C39.11,85,41,88.32,43.46,91.15A27.12,27.12,0,0,0,68.4,99.7"/><path class="cls-6" d="M21.36,122.13c9.07,2.08,15.4,10.43,18.85,19.07s4.82,18,8.42,26.58,10.28,16.75,19.44,18.35"/><path class="cls-6" d="M21,193.54c3.45-4.56,10.8-4.32,15.48-1s7.36,8.67,9.86,13.81,5.22,10.51,10,13.73a16.78,16.78,0,0,0,12.62,2.53"/><polygon class="cls-10" points="451.11 46.76 100.81 46.76 100.81 50.35 447.19 50.35 447.19 248.27 451.11 248.27 451.11 46.76"/><rect class="cls-9" x="175.13" y="-27.55" width="201.66" height="350.3" transform="translate(423.56 -128.37) rotate(90)"/></g></g></svg>