<?xml version="1.0" encoding="utf-8"?>
<!-- Generator: Adobe Illustrator 19.0.0, SVG Export Plug-In . SVG Version: 6.00 Build 0)  -->
<svg version="1.1" id="Layer_1" xmlns="http://www.w3.org/2000/svg" xmlns:xlink="http://www.w3.org/1999/xlink" x="0px" y="0px"
	 viewBox="0 0 20 20" style="enable-background:new 0 0 20 20;" xml:space="preserve">
<style type="text/css">
	.st0{fill:#FFFFFF;stroke:#D1D5D7;stroke-miterlimit:10;}
	.st1{fill:#FFFFFF;stroke:#2486C4;stroke-miterlimit:10;}
	.st2{fill:none;stroke:#F36E4A;stroke-miterlimit:10;}
</style>
<g>
	<path id="XMLID_4_" class="st0" d="M19.5,1.5c0-0.6-0.4-1-1-1h-11c-0.6,0-1,0.4-1,1v11c0,0.6,0.4,1,1,1h11c0.6,0,1-0.4,1-1V1.5z"/>
	<path id="XMLID_3_" class="st0" d="M17.5,3.5c0-0.6-0.4-1-1-1h-11c-0.6,0-1,0.4-1,1v11c0,0.6,0.4,1,1,1h11c0.6,0,1-0.4,1-1V3.5z"/>
	<path id="XMLID_2_" class="st0" d="M15.5,5.5c0-0.6-0.4-1-1-1h-11c-0.6,0-1,0.4-1,1v11c0,0.6,0.4,1,1,1h11c0.6,0,1-0.4,1-1V5.5z"/>
	<path id="XMLID_1_" class="st1" d="M13.5,7.5c0-0.6-0.4-1-1-1h-11c-0.6,0-1,0.4-1,1v11c0,0.6,0.4,1,1,1h11c0.6,0,1-0.4,1-1V7.5z"/>
	<polygon class="st2" points="8.5,9.6 5.5,12.6 4.5,11.6 2.5,13.6 5.5,16.6 10.5,11.6 	"/>
</g>
</svg>
