<?xml version="1.0" encoding="utf-8"?>
<!-- Generator: Adobe Illustrator 19.0.0, SVG Export Plug-In . SVG Version: 6.00 Build 0)  -->
<svg version="1.1" id="Layer_1" xmlns="http://www.w3.org/2000/svg" xmlns:xlink="http://www.w3.org/1999/xlink" x="0px" y="0px"
	 viewBox="0 0 150 150" style="enable-background:new 0 0 150 150;" xml:space="preserve">
<style type="text/css">
	.st0{fill:#E8E8E9;}
	.st1{fill:#06476B;}
	.st2{fill:#F4F6F7;}
	.st3{opacity:0.2;enable-background:new    ;}
	.st4{opacity:0.5;enable-background:new    ;}
	.st5{fill:#9BB5C4;}
	.st6{opacity:0.5;}
	.st7{fill:#2084C3;}
	.st8{fill:#43B983;}
	.st9{fill:none;stroke:#43B983;stroke-miterlimit:10;}
	.st10{fill:none;stroke:#2084C3;stroke-miterlimit:10;}
	.st11{fill:#F27047;}
</style>
<g id="XMLID_1_">
	<g id="XMLID_468_">
		<polygon class="st0" points="74.5,31.7 74.5,31.7 25.8,31.7 31.8,71.2 74.5,71.2 74.5,71.2 117.2,71.2 123.2,31.7 		"/>
		<path class="st1" d="M118.1,72.2H30.9l-6.3-41.5h99.7L118.1,72.2z M32.7,70.2h83.7l5.7-37.5H27L32.7,70.2z"/>
	</g>
	<g id="XMLID_465_">
		<polygon class="st2" points="74.4,35.5 74.3,35.5 29.7,35.5 35.2,67.4 74.3,67.4 74.4,67.4 113.5,67.4 119,35.5 		"/>
		<path class="st1" d="M113.9,67.9H34.8L29.1,35h90.5L113.9,67.9z M35.6,66.9h77.5l5.3-30.9H30.3L35.6,66.9z"/>
	</g>
	<g id="XMLID_469_">
		<polygon class="st2" points="74.4,35.5 74.3,35.5 29.7,35.5 35.2,67.4 74.3,67.4 74.4,67.4 113.5,67.4 119,35.5 		"/>
		<path class="st1" d="M113.9,67.9H34.8L29.1,35h90.5L113.9,67.9z M35.6,66.9h77.5l5.3-30.9H30.3L35.6,66.9z"/>
	</g>
	<g id="XMLID_2_" class="st3">
		<polygon class="st1" points="74.4,35.5 74.3,35.5 29.7,35.5 35.2,67.4 74.3,67.4 74.4,67.4 113.5,67.4 119,35.5 		"/>
	</g>
	<g id="XMLID_397_">
		<path class="st2" d="M118.5,21.7c-3.7,0-44,0-44,0s-40.3,0-44,0c-2.9,0-4.3,6.5-4.7,9.2c-0.1,0.6,0.4,1.2,1,1.2h47.7h47.7
			c0.6,0,1.1-0.5,1-1.2C122.8,28.2,121.4,21.7,118.5,21.7z"/>
		<path class="st1" d="M122.2,33.1H26.8c-0.6,0-1.1-0.3-1.5-0.7c-0.4-0.5-0.6-1.1-0.5-1.6c0.4-3,1.9-10,5.7-10h88
			c3.8,0,5.2,7,5.7,10.1c0.1,0.6-0.1,1.2-0.5,1.7C123.3,32.8,122.8,33.1,122.2,33.1z M30.5,22.7c-1.6,0-3.1,4.3-3.7,8.3l47.7,0.1
			h47.7c-0.6-4.1-2.1-8.4-3.7-8.4H30.5z"/>
	</g>
	<g id="XMLID_197_" class="st4">
		<rect x="26.7" y="27.4" class="st1" width="96.1" height="1"/>
	</g>
	<g id="XMLID_471_">
		<path class="st2" d="M74.7,16.2l-4.4,4l-0.2,11.4h4.6h4.6l-0.2-11.4L74.7,16.2z M76.4,29.7h-1.7H73V24l1.7-2l1.7,2
			C76.4,24,76.4,29.7,76.4,29.7z"/>
		<path class="st1" d="M79.8,32.1H69.6L69.8,20l4.9-4.5l4.9,4.5L79.8,32.1z M70.6,31.1h8.2l-0.2-10.7l-3.9-3.5l-3.9,3.5L70.6,31.1z
			 M76.9,30.2h-4.4v-6.4l2.2-2.6l2.2,2.6V30.2z M73.5,29.2h2.4v-5l-1.2-1.4l-1.2,1.4V29.2z"/>
	</g>
	<g id="XMLID_475_">
		<path class="st1" d="M35.6,67.7l-0.8-0.6c10.4-14.4,3.2-31.2,3.1-31.4l0.9-0.4C38.9,35.5,46.3,52.8,35.6,67.7z"/>
	</g>
	<g id="XMLID_467_">
		<path class="st2" d="M117.5,70.7h-43h-43L26,83.3c-0.3,0.7,0.2,1.4,0.9,1.4h47.5H122c0.7,0,1.2-0.7,0.9-1.4L117.5,70.7z"/>
		<path class="st1" d="M122,85.7H26.9c-0.7,0-1.3-0.3-1.7-0.9c-0.4-0.6-0.4-1.3-0.2-1.9l5.8-13.2h87.3l5.7,13.2
			c0.3,0.6,0.2,1.3-0.2,1.9C123.3,85.4,122.7,85.7,122,85.7z M32.2,71.7l-5.2,12H122l-5.2-12H32.2z"/>
	</g>
	<g id="XMLID_495_">
		<path class="st1" d="M113.6,67.7c-10.7-14.9-3.3-32.2-3.3-32.4l0.9,0.4c-0.1,0.2-7.3,17,3.1,31.4L113.6,67.7z"/>
	</g>
	<g id="XMLID_528_">
		<g id="XMLID_476_" class="st4">
			<rect x="39.8" y="39.2" class="st1" width="69.6" height="1"/>
		</g>
		<g id="XMLID_486_" class="st4">
			<rect x="41" y="44.2" class="st1" width="67.5" height="1"/>
		</g>
		<g id="XMLID_487_" class="st4">
			<rect x="41" y="49.2" class="st1" width="67.2" height="1"/>
		</g>
		<g id="XMLID_488_" class="st4">
			<rect x="40.5" y="54.2" class="st1" width="68.2" height="1"/>
		</g>
		<g id="XMLID_489_" class="st4">
			<rect x="39.8" y="59.2" class="st1" width="70.4" height="1"/>
		</g>
		<g id="XMLID_490_" class="st4">
			<rect x="36.9" y="64.2" class="st1" width="75.4" height="1"/>
		</g>
	</g>
	<g id="XMLID_491_" class="st3">
		<path class="st1" d="M113.5,67.4c-10.8-14.7-3.2-31.9-3.2-31.9h8.8L113.5,67.4z"/>
	</g>
	<g id="XMLID_210_" class="st3">
		<path class="st1" d="M35.2,67.4c10.8-14.7,3.2-31.9,3.2-31.9h-8.8L35.2,67.4z"/>
	</g>
	<g id="XMLID_473_">
		<g id="XMLID_472_" class="st3">
			<path class="st1" d="M117.5,70.7h-43h-43L26,83.3c-0.3,0.7,0.2,1.4,0.9,1.4h47.5H122c0.7,0,1.2-0.7,0.9-1.4L117.5,70.7z"/>
		</g>
		<g id="XMLID_493_" class="st3">
			<polygon class="st1" points="32,71.2 32,84.7 25.8,84.4 			"/>
		</g>
		<g id="XMLID_494_" class="st3">
			<polyline class="st1" points="123.1,84.4 116.9,71.2 116.9,84.7 			"/>
		</g>
	</g>
	<g id="XMLID_576_">
		<g id="XMLID_531_">
			<path class="st0" d="M110.3,52.7v32.1l-71.8-0.2V52.7c0-2.2,1.8-4,4-4h63.8C108.5,48.7,110.3,50.5,110.3,52.7z"/>
			<path class="st1" d="M111.3,85.8l-73.8-0.2V52.7c0-2.8,2.2-5,5-5h63.8c2.8,0,5,2.2,5,5V85.8z M39.5,83.6l69.8,0.2V52.7
				c0-1.7-1.3-3-3-3H42.5c-1.7,0-3,1.3-3,3V83.6z"/>
		</g>
		<g id="XMLID_530_">
			<rect x="43.3" y="52.9" class="st2" width="58.7" height="31.1"/>
			<path class="st1" d="M102.5,84.5H42.8V52.4h59.7V84.5z M43.8,83.5h57.7V53.4H43.8V83.5z"/>
		</g>
		<g id="XMLID_529_">
			<circle class="st2" cx="106.1" cy="72.8" r="2.5"/>
			<path class="st5" d="M106.1,75.8c-1.7,0-3-1.3-3-3s1.3-3,3-3s3,1.3,3,3S107.8,75.8,106.1,75.8z M106.1,70.8c-1.1,0-2,0.9-2,2
				s0.9,2,2,2s2-0.9,2-2S107.2,70.8,106.1,70.8z"/>
		</g>
	</g>
	<g id="XMLID_544_" class="st6">
		<g id="XMLID_518_">
			<circle class="st7" cx="74.2" cy="73.9" r="12"/>
		</g>
		<g id="XMLID_541_">
			<g id="XMLID_532_">
				<path class="st8" d="M63.2,69c0,0,1.7-3.2,2.3-3.4s0.7,1.3,0.7,1.3l-0.9,0.9l0.9,0.1v1.4H67v-1.6c0-0.1,0-0.2,0.1-0.3l0.9-0.9
					c0.2-0.2,0.5-0.2,0.7,0l0.5,0.5c0.1,0.1,0.2,0.4,0.1,0.6L69,68c-0.1,0.2-0.1,0.4,0.1,0.5c0.4,0.5,1.4,1.6,1.4,1.9
					s-1.1,2.7-1.1,2.7l0.7,0.8l-0.3,0.9l-1.3-0.9c-0.2-0.1-0.4-0.1-0.6,0L67,74.6c-0.1,0.1-0.2,0.2-0.2,0.4v1.1l0.8-0.5
					c0.1-0.1,0.3-0.1,0.4-0.1c0.4,0.1,1.3,0.4,1.3,0.6s-0.4,0.7-0.4,0.7s0.6-0.1,1.1,0.3s0.5,2,0.5,2L70,79.6c0,0,0,1.8,0.5,1.9
					s1,0.3,1,0.3v0.4l0.8,0.4v0.7l0.9,0.4c0,0-2.8-0.2-3.1-0.4s-3.7-2.1-4-2.6c-0.2-0.3-0.3-0.8-0.3-1.1c0-0.2-0.1-0.3-0.2-0.4
					c-0.4-0.3-1.5-1-1.5-1.2s1.6-2.4,1.6-2.4s0.9-0.7,0.4-1.3s-1.3-0.5-1.3-0.5v-1.1c0-0.2-0.1-0.3-0.2-0.4l-0.8-0.6
					c-0.2-0.2-0.3-0.5-0.1-0.7l0.8-1.2L63.2,69z"/>
			</g>
			<g id="XMLID_533_">
				<path class="st8" d="M79.1,62.9c0,0,7.1,3.7,6.8,8.5c0,0.1,0,0.2-0.1,0.3l-0.4,1c0,0-0.8-0.8-1.3-0.8s-0.5,0.8-0.5,0.8l1,1.3
					l-2.7-1c-0.3-0.1-0.5-0.4-0.6-0.7L81,71.1c0,0-0.3,0.9-0.3,1.6s-1.9-2.6-1.9-2.6s-0.2-1-0.7-0.7s0,1.9,0,1.9L76.3,69
					c-0.1-0.1-0.1-0.2-0.2-0.3l-0.4-1.1c0,0,0.7-0.1,1.1,0s0.9-0.5,0.9-0.5l1,0.6c0,0,0.5-0.4,0.5-0.9s-0.5-0.9-0.5-0.9l0.4-0.5
					c0.2-0.3,0.3-0.7,0.1-1.1c-0.2-0.3-0.3-0.7-0.3-0.8C78.9,63.4,79.1,62.9,79.1,62.9z"/>
			</g>
			<g id="XMLID_534_">
				<path class="st8" d="M86,76.5c0,0-2.2,6.5-5.9,7.8l-1.6-0.7l2.2-2.4v-0.9l0.8-0.6v-1L80.7,78c0,0,2.3-1.9,2.6-1.7
					s0.4,0.6,0.4,0.6L86,76.5z"/>
			</g>
			<g id="XMLID_542_">
				<path class="st8" d="M82.4,74.7c0,0-1.1,0.9-0.9,0.9s0.8,0,0.8,0l0.1-0.5H83L82.4,74.7z"/>
			</g>
		</g>
	</g>
	<g id="XMLID_449_">
		<rect x="31.5" y="71.2" class="st1" width="1" height="13.5"/>
	</g>
	<g id="XMLID_474_">
		<rect x="116.6" y="71.2" class="st1" width="1" height="13.5"/>
	</g>
	<g id="XMLID_545_">
		<g id="XMLID_677_">
			<rect x="25.8" y="84.4" class="st0" width="97.3" height="48.7"/>
			<path class="st1" d="M124.1,134.1H24.8V83.4h99.3V134.1z M26.8,132.1h95.3V85.4H26.8V132.1z"/>
		</g>
		<g id="XMLID_691_">
			<rect x="31.8" y="89.9" class="st2" width="85.3" height="37.6"/>
			<path class="st1" d="M117.6,128H31.3V89.4h86.3V128z M32.3,127h84.3V90.4H32.3V127z"/>
		</g>
		<g id="XMLID_508_" class="st3">
			<rect x="31.8" y="90.1" class="st1" width="85.3" height="1.3"/>
		</g>
		<g id="XMLID_509_" class="st3">
			<path class="st1" d="M65.4,90.9h18.3v7.3c0,0,0.6,7.1-9.1,7.1s-9-7.2-9-7.2L65.4,90.9z"/>
		</g>
	</g>
	<g id="XMLID_485_">
		<path class="st2" d="M83.3,90.6v-5.4L80,84.4c0,0-0.4,5.5-5.3,5.5s-5.2-5.5-5.2-5.5L66,85.3v5.4c0.1,4.3-0.1,8.6,1.6,10.7
			c3.4,4.2,11.7,4,14.8-0.4C83.9,98.8,83.4,94.7,83.3,90.6z M74.7,101.6h-2.4l1.2-6.1c-0.5-0.4-0.8-0.9-0.8-1.6c0-1.1,0.9-2,2-2
			s2,0.9,2,2c0,0.7-0.3,1.2-0.8,1.6l1.2,6.1H74.7z"/>
		<path class="st1" d="M74.8,104.9c-3.1,0-5.9-1.2-7.6-3.2c-1.6-2-1.6-5.5-1.7-9.3c0-0.6,0-1.1,0-1.7v-5.8l4.5-1.1l0,0.6
			c0,0.2,0.3,5,4.7,5c4.4,0,4.8-4.8,4.8-5l0-0.6l4.3,1v5.8c0,0.7,0,1.4,0.1,2.1c0.1,3.4,0.3,6.6-1.1,8.6c-1.5,2.2-4.4,3.5-7.6,3.6
			C75.1,104.9,74.9,104.9,74.8,104.9z M66.5,85.7v5c0,0.6,0,1.1,0,1.7c0,3.6,0.1,7,1.5,8.7c1.5,1.9,4.2,2.9,7.2,2.8
			c2.9-0.1,5.5-1.3,6.8-3.2c1.1-1.7,1-4.7,0.9-8c0-0.7-0.1-1.4-0.1-2.1v-5L80.4,85c-0.3,1.5-1.4,5.4-5.7,5.4c-4.3,0-5.4-3.9-5.6-5.4
			L66.5,85.7z M77.7,102.1h-6l1.3-6.4c-0.5-0.5-0.8-1.1-0.8-1.8c0-1.4,1.1-2.5,2.5-2.5c1.4,0,2.5,1.1,2.5,2.5c0,0.7-0.2,1.3-0.8,1.8
			L77.7,102.1z M72.9,101.1h3.6l-1.1-5.8l0.2-0.2c0.4-0.3,0.6-0.7,0.6-1.2c0-0.8-0.7-1.5-1.5-1.5s-1.5,0.7-1.5,1.5
			c0,0.5,0.2,0.9,0.6,1.2l0.2,0.2L72.9,101.1z"/>
	</g>
	<g id="XMLID_613_">
		<path class="st9" d="M68.1,15.1"/>
	</g>
	<g id="XMLID_612_">
		<path class="st10" d="M63.1,15.1"/>
	</g>
	<g id="XMLID_546_">
		<circle class="st7" cx="84.7" cy="71.2" r="1.4"/>
	</g>
	<g id="XMLID_535_">
		<rect x="86.5" y="63" transform="matrix(0.8556 0.5177 -0.5177 0.8556 47.4534 -35.3026)" class="st7" width="1" height="8.9"/>
	</g>
	<g id="XMLID_547_">
		<path class="st7" d="M98.6,63.9H86.7c-0.3,0-0.5-0.2-0.5-0.5v-1.2c0-0.3,0.2-0.5,0.5-0.5h11.9c0.3,0,0.5,0.2,0.5,0.5v1.2
			C99.1,63.7,98.9,63.9,98.6,63.9z"/>
	</g>
	<g id="XMLID_548_">
		<circle class="st11" cx="68.2" cy="72.2" r="1.4"/>
	</g>
	<g id="XMLID_523_">
		<circle class="st8" cx="76.2" cy="67.2" r="1.4"/>
	</g>
	<g id="XMLID_549_">
		
			<rect x="63.1" y="69.3" transform="matrix(0.4394 0.8983 -0.8983 0.4394 102.5337 -15.394)" class="st11" width="1" height="10.2"/>
	</g>
	<g id="XMLID_519_">
		<path class="st11" d="M58.9,78.3H47c-0.3,0-0.5-0.2-0.5-0.5v-1.2c0-0.3,0.2-0.5,0.5-0.5h11.9c0.3,0,0.5,0.2,0.5,0.5v1.2
			C59.4,78.1,59.2,78.3,58.9,78.3z"/>
	</g>
	<g id="XMLID_522_">
		
			<rect x="61.2" y="63.5" transform="matrix(0.9127 0.4085 -0.4085 0.9127 32.1699 -22.6243)" class="st8" width="15.7" height="1"/>
	</g>
	<g id="XMLID_524_">
		<path class="st8" d="M63,61.9H51.1c-0.3,0-0.5-0.2-0.5-0.5v-1.2c0-0.3,0.2-0.5,0.5-0.5H63c0.3,0,0.5,0.2,0.5,0.5v1.2
			C63.5,61.7,63.3,61.9,63,61.9z"/>
	</g>
</g>
</svg>
