<svg id="Layer_3" data-name="Layer 3" xmlns="http://www.w3.org/2000/svg" viewBox="0 0 280 200"><defs><style>.cls-1,.cls-5{fill:#e7f1f8;}.cls-2{fill:#19bc9c;}.cls-3{fill:#109995;opacity:0.7;}.cls-12,.cls-15,.cls-17,.cls-19,.cls-20,.cls-4,.cls-7,.cls-8{fill:none;}.cls-4{stroke:#109995;}.cls-10,.cls-12,.cls-13,.cls-14,.cls-15,.cls-16,.cls-17,.cls-18,.cls-19,.cls-20,.cls-4,.cls-5,.cls-6,.cls-7,.cls-8,.cls-9{stroke-linecap:round;stroke-linejoin:round;}.cls-18,.cls-5,.cls-6,.cls-7{stroke:#3f555a;}.cls-11,.cls-16,.cls-6{fill:#fff;}.cls-10,.cls-16,.cls-8,.cls-9{stroke:#a1c2d8;}.cls-18,.cls-9{fill:#d0e4f1;}.cls-10{fill:#c3d4e0;}.cls-12{stroke:#233839;}.cls-13{fill:#d65129;}.cls-13,.cls-14{stroke:#d65129;}.cls-14{fill:#f56f40;}.cls-15{stroke:#d0e4f1;}.cls-17{stroke:#f56f40;}.cls-19{stroke:#19bc9c;}.cls-20{stroke:#3290c1;}</style></defs><title>Standard</title><path class="cls-1" d="M207.63,99.26a15.64,15.64,0,0,1,16.18-6.18,3.86,3.86,0,0,0,1.34.18,3.59,3.59,0,0,0,1.68-.88,42.87,42.87,0,0,1,21.24-8.56,133,133,0,0,1,.34,15.39"/><path class="cls-2" d="M247.57,173.83l-3.9-2.38a16.89,16.89,0,0,0-5.21-2.42,8.15,8.15,0,0,0-6.56,1.59,11,11,0,0,0-8.56-3.92,9.73,9.73,0,0,0-5.12-5.92c-1.92-.85-4.34-.82-5.68,1-.42-4.84-.67-11.52-5.55-14.5s-10.92,4.58-11.8,6.24a3.67,3.67,0,0,0-.25,2c0,1.32,0,2.64,0,4q0,8.46-.44,16.91c5.68-.41,11.4,0,17.09-.12,2.81-.08,5.61-.09,8.41-.06,1.16-.12,2.32-.23,3.47-.31,8-.54,16,.4,23.93.19a1.15,1.15,0,0,0,1.09-.47C248.86,174.94,248.16,174.19,247.57,173.83Z"/><path class="cls-3" d="M195.31,163.12c1.76-1.93,3.92-3.27,6.15-3.24a6.36,6.36,0,0,1,5.58,4.37,24.23,24.23,0,0,1,1,4.22,1.82,1.82,0,0,0,.39,1c.31.28.72.07,1.06-.14a10.86,10.86,0,0,1,6-2,6.17,6.17,0,0,1,5.28,3.91c.21.48.42,1,.8,1.18a1,1,0,0,0,.69-.1,7.65,7.65,0,0,1,5.17-.45,6.35,6.35,0,0,1,3.95,4.42l-36.87.11.15-12.33Z"/><polygon class="cls-1" points="194.69 123.38 194.69 133.97 140.09 117.46 140.09 112.51 194.69 123.38"/><path class="cls-2" d="M37.3,147c1-3,3.43-5.43,6.1-7.32a8.1,8.1,0,0,1-3-5.93,12.22,12.22,0,0,1,1.65-6.51,13.56,13.56,0,0,1,8.4-6.82c3.67-.89,8,.39,10,3.47a12.33,12.33,0,0,1,1.61,5.59,43.08,43.08,0,0,1,.12,6.88,11.19,11.19,0,0,1,6.18,11.27c-.33,2.38-2,5-4.46,5.09a2.14,2.14,0,0,0-1.35.29,2,2,0,0,0-.42,1.08,4.41,4.41,0,0,1-3.73,3,11,11,0,0,1-5.06-.69,5.37,5.37,0,0,0-1.76-.38,6.52,6.52,0,0,0-2,.53C43,158.82,35,154.19,37.3,147Z"/><path class="cls-3" d="M46.73,157.16a6.1,6.1,0,0,1-4.67-.82,5.18,5.18,0,0,1-1.51-2.17,9.11,9.11,0,0,1,.36-7.45,9.68,9.68,0,0,1,5.76-4.78,6.64,6.64,0,0,1,6,.82,4.13,4.13,0,0,1,2.38-2,9,9,0,0,1,11.52,4.58,5.65,5.65,0,0,1,.58,3.23,4.56,4.56,0,0,1-.85,2,5.21,5.21,0,0,1-4.23,2.07,1.55,1.55,0,0,1-.22,1.47,6.17,6.17,0,0,1-3.95,2.77,7.69,7.69,0,0,1-4.84-.58,3,3,0,0,0-1.59-.45,2.89,2.89,0,0,0-.86.33,9.78,9.78,0,0,1-5.06,1"/><path class="cls-4" d="M68.87,141.46a9.62,9.62,0,0,0-1.93-4,9.31,9.31,0,0,0-4.85-2.79,19.67,19.67,0,0,0,.34-5.42,17,17,0,0,0-2.35-8.16,9.1,9.1,0,0,0-7-4.37,9.88,9.88,0,0,0-5.11,1.4,15.22,15.22,0,0,0-6.26,20.07c-4.43,3.16-7.07,9.47-4.16,14.43,2.59,4.42,9.85,6.37,13.93,2.89a10.05,10.05,0,0,0,4.72,1.55,6.87,6.87,0,0,0,4.13-.93,4.25,4.25,0,0,0,2-3.58,6.87,6.87,0,0,0,5.92-3.84A10.46,10.46,0,0,0,68.87,141.46Z"/><path class="cls-5" d="M54.78,176l-1-29.4a1,1,0,0,0,.2-.12l6.27-5.78a.51.51,0,0,0-.64-.8l-5.92,4.14-.81-17.62-.77,9.84-3.91-2.72a.52.52,0,0,0-.65.8l4.1,3.84.11.09a.91.91,0,0,0,.28.12l-.4,11.22-6.31-3.76a.51.51,0,0,0-.57.85l6.81,5.13-.84,24.22"/><line class="cls-6" x1="53.77" y1="145.68" x2="53.78" y2="147.74"/><path class="cls-6" d="M51.53,151.06v1.28"/><path class="cls-7" d="M39.76,176a3.23,3.23,0,0,1,6.46,0"/><path class="cls-7" d="M46.23,176a3.23,3.23,0,0,1,6.46,0"/><path class="cls-7" d="M52.69,176a3.23,3.23,0,0,1,6.46,0"/><path class="cls-7" d="M59.15,176a3.23,3.23,0,0,1,6.46,0"/><path class="cls-8" d="M31.17,176.05c72.88.49,144.7.49,217.34,0"/><polygon class="cls-8" points="173.22 82.96 173.22 111.88 147.06 113.24 147.06 76.09 173.22 82.96"/><polygon class="cls-9" points="147.06 76.09 147.06 108.95 80 116.73 80 96.29 147.06 76.09"/><path class="cls-7" d="M167.79,97.73c-.87,5-4.85,7.78-8.88,6.25s-6.59-6.79-5.72-11.77S158,84.44,162.08,86,168.67,92.75,167.79,97.73Z"/><path class="cls-7" d="M160.24,89.74l-.06,5a1.93,1.93,0,0,0,.59,1.67l2.63,3.13"/><polygon class="cls-10" points="141.82 83.87 141.82 86.67 86.79 102.09 86.79 115.42 84.87 115.77 84.87 100.22 141.82 83.87"/><path class="cls-11" d="M102,107.91c8.58-3.22,16.09-12.87,26.81-9.65,3.5.87,8.42,3.88,13,2.64V86.67l-55,15.41v4.31C91.86,104.32,96.92,109.94,102,107.91Z"/><path class="cls-1" d="M128.8,98.26c-10.73-3.22-18.23,6.44-26.81,9.65-5.07,2-10.13-3.59-15.2-1.51v9l55-10V100.9C137.22,102.14,132.3,99.13,128.8,98.26Z"/><polygon class="cls-8" points="141.82 86.67 141.82 105.38 86.79 115.42 86.79 102.09 141.82 86.67"/><line class="cls-8" x1="110.94" y1="95.44" x2="110.94" y2="108.2"/><path class="cls-8" d="M124.48,91.86l-.11.34v12.34"/><path class="cls-4" d="M194.66,154.52c1.82-5.53,6.65-11.23,11.76-10.47,6.21.92,6.08,11.89,6.11,17.74a4.34,4.34,0,0,1,4.92-3.18c3,.63,6.05,4.24,5.87,8.09,3.06-1.87,7.22.1,8.54,4.06a8.62,8.62,0,0,1,9-1c2.67,1.28,4.88,3.93,7.66,4.71"/><polygon class="cls-8" points="194.69 123.38 194.69 176.04 140.09 176.04 140.09 112.51 194.69 123.38"/><polygon class="cls-9" points="140.09 112.51 140.09 176.04 74.92 176.04 74.92 124.29 140.09 112.51"/><polygon class="cls-8" points="140.09 112.51 140.09 176.04 74.92 176.04 74.92 124.29 140.09 112.51"/><polygon class="cls-10" points="132.93 119.46 132.93 122.13 82.14 130.31 82.14 151.93 80 152.1 80 128.16 132.93 119.46"/><path class="cls-1" d="M123.44,139c-8.58,2.15-7.51-13.94-16.09-9.65-7.51,4.29-10.73,15-20.38,5.36-1.1-1.65-3-1.32-4.83,0v17.24l50.79-4.17v-11C129.83,135.35,126,138.17,123.44,139Z"/><path class="cls-11" d="M82.14,130.31v4.39c1.78-1.29,3.73-1.62,4.83,0,9.65,9.65,12.87-1.07,20.38-5.36,8.58-4.29,7.51,11.8,16.09,9.65,2.53-.84,6.39-3.66,9.49-2.22V122.13Z"/><polygon class="cls-8" points="132.93 122.13 132.93 147.76 82.14 151.93 82.14 130.31 132.93 122.13"/><line class="cls-12" x1="140.09" y1="112.51" x2="74.92" y2="124.29"/><line class="cls-8" x1="82.39" y1="139.82" x2="129.92" y2="133.97"/><line class="cls-8" x1="120.89" y1="124.71" x2="120.89" y2="141.08"/><line class="cls-8" x1="110.25" y1="129.67" x2="110.25" y2="141.31"/><line class="cls-8" x1="99.61" y1="134.84" x2="99.61" y2="143.67"/><line class="cls-8" x1="88.97" y1="134.19" x2="88.97" y2="146.47"/><polygon class="cls-13" points="141.4 109.42 197.3 121.49 194.69 123.38 140.09 112.51 141.4 109.42"/><polygon class="cls-13" points="140.09 112.51 141.4 109.42 71.94 122.01 74.92 124.29 140.09 112.51"/><polygon class="cls-13" points="71.94 122.01 71.94 118.4 141.4 105.38 141.4 109.42 71.94 122.01"/><polygon class="cls-14" points="197.3 121.49 197.3 116.78 141.4 105.38 141.4 109.42 197.3 121.49"/><circle class="cls-15" cx="188.67" cy="43.26" r="5.71"/><polygon class="cls-13" points="151.6 138.6 149.35 138.6 149.35 135.22 151.6 135.3 151.6 138.6"/><polygon class="cls-14" points="151.6 172.7 151.6 139.03 161.89 140.42 170.81 141.62 170.81 173.08 151.6 172.7"/><path class="cls-16" d="M158.7,155.94c.09-4.31.15-8.37.07-12.69l-4-.53V155.8Z"/><path class="cls-16" d="M164.06,156.14c.89,0,1.78.11,2.67.12h.86V144.43l-3.45-.47C164.21,148.06,164.15,152,164.06,156.14Z"/><line class="cls-14" x1="161.86" y1="172.91" x2="161.86" y2="140.42"/><polygon class="cls-14" points="151.6 135.3 172.98 139.03 172.98 141.91 151.6 138.6 151.6 135.3"/><polygon class="cls-9" points="177.79 144.28 190.81 145.81 190.81 164.76 177.79 164.1 177.79 144.28"/><path class="cls-1" d="M182.43,150.81a2,2,0,0,0-2.5.36v10.89l8.74.44V156C186.23,155.07,184.56,152.95,182.43,150.81Z"/><path class="cls-11" d="M179.93,146.69v4.48a2,2,0,0,1,2.5-.36c2.13,2.13,3.8,4.26,6.24,5.14v-8.23Z"/><polygon class="cls-8" points="179.93 162.06 179.93 146.69 188.67 147.72 188.67 162.5 179.93 162.06"/><ellipse class="cls-7" cx="117.13" cy="170.92" rx="3.89" ry="5.12"/><ellipse class="cls-7" cx="99.79" cy="170.92" rx="3.89" ry="5.12"/><path class="cls-17" d="M117.06,171a8.86,8.86,0,0,1-1.14-3.64,52.07,52.07,0,0,1-.55-8.61"/><line class="cls-17" x1="115.18" y1="162.16" x2="105.99" y2="162.16"/><line class="cls-17" x1="108.65" y1="170.94" x2="115.19" y2="163.42"/><line class="cls-17" x1="104.81" y1="159.64" x2="108.65" y2="170.94"/><path class="cls-7" d="M102.67,159.64l.54-.25h3.72"/><line class="cls-17" x1="99.97" y1="170.62" x2="105.47" y2="162.62"/><line class="cls-17" x1="99.79" y1="170.98" x2="108.22" y2="170.98"/><ellipse class="cls-18" cx="108.65" cy="170.62" rx="1.62" ry="2.2"/><line class="cls-7" x1="108.9" y1="166.41" x2="110.32" y2="166.41"/><line class="cls-7" x1="107.06" y1="174.53" x2="108.4" y2="174.53"/><path class="cls-7" d="M108.65,170.78a31.67,31.67,0,0,0-1,3.47"/><path class="cls-7" d="M109,168.24l.5-1.54"/><path class="cls-7" d="M115.37,158.74h2.12a1.31,1.31,0,0,1,1.19,1.4h0a1.31,1.31,0,0,1-1.19,1.4h-.13"/><ellipse class="cls-7" cx="88.24" cy="170.92" rx="3.89" ry="5.12"/><path class="cls-19" d="M101.75,162.16H94.44"/><path class="cls-19" d="M93.26,159.64l2.35,6.9"/><path class="cls-7" d="M91.12,159.64l.54-.25h3.72"/><line class="cls-19" x1="88.42" y1="170.62" x2="93.91" y2="162.62"/><path class="cls-19" d="M88.24,171h5.57"/><ellipse class="cls-7" cx="76.44" cy="170.92" rx="3.89" ry="5.12"/><path class="cls-20" d="M90,162.16H82.65"/><path class="cls-20" d="M81.46,159.64l2.35,6.9"/><path class="cls-7" d="M79.32,159.64l.54-.25h3.72"/><line class="cls-20" x1="76.62" y1="170.62" x2="82.12" y2="162.62"/><path class="cls-20" d="M76.44,171H82"/><path class="cls-11" d="M145.49,168.54a1.84,1.84,0,0,0-2.34-.71l.13-.27c1-2.09,2.38-5-.17-6.74-1.38-.95-4.64-.12-4.51,1.88a10.25,10.25,0,0,0-1.38-5c-1.33-2-3.75-1.55-5.24.11a6.55,6.55,0,0,0,.26,8.93,2.54,2.54,0,0,0-3.25.48c-1.62,1.86-.58,4.55,1,6.59a5.94,5.94,0,0,0,4.69,2.25h5.24a5.9,5.9,0,0,0,6-5.74A3.36,3.36,0,0,0,145.49,168.54Z"/><path class="cls-2" d="M129.33,170.59a4.28,4.28,0,0,1,3.25-3.52,4.11,4.11,0,0,1-1.26-4.41,4.36,4.36,0,0,1,3.5-3.24,3.06,3.06,0,0,1,3.37,2.91,2.83,2.83,0,0,1,3.62.72,5.34,5.34,0,0,1,1,3.84,1.66,1.66,0,0,0,0,.73,2,2,0,0,0,.54.65,5.1,5.1,0,0,1,1.2,3.47,4,4,0,0,1-.24,1.8,4.05,4.05,0,0,1-2.75,1.91C137.91,176.5,128.52,176.64,129.33,170.59Z"/><path class="cls-4" d="M145.49,168.54a1.84,1.84,0,0,0-2.34-.71l.13-.27c1-2.09,2.38-5-.17-6.74-1.38-.95-4.64-.12-4.51,1.88a10.25,10.25,0,0,0-1.38-5c-1.33-2-3.75-1.55-5.24.11a6.55,6.55,0,0,0,.26,8.93,2.54,2.54,0,0,0-3.25.48c-1.62,1.86-.58,4.55,1,6.59a5.94,5.94,0,0,0,4.69,2.25h5.24a5.9,5.9,0,0,0,6-5.74A3.36,3.36,0,0,0,145.49,168.54Z"/><path class="cls-3" d="M131.54,172.71c.54-4.1,6.75-4.74,9.33-2.69,1.09.86,2.06,2.41,1.58,3.9a2.68,2.68,0,0,1-1.42,1.52,9.24,9.24,0,0,1-3.74.52c-.87,0-1.74,0-2.61-.09a3.78,3.78,0,0,1-2.2-.66,2.67,2.67,0,0,1-.94-1.65A2.9,2.9,0,0,1,131.54,172.71Z"/><path class="cls-15" d="M248.83,73.33a22.51,22.51,0,0,0-22.92,14.74,18.38,18.38,0,0,0-18.6,11.11h40.57"/><path class="cls-1" d="M84.46,54c1.24-2.86,5.28-4.93,8.07-6,2.94-1.1,6.84-1.47,8.72,1.53-.24-.38,3.74-3.43,4.16-3.73,3.93-2.86,8.88-4.69,13.82-3.89s8.68,4.53,10.28,9.19c-.16-.47,3.81-1.49,4.21-1.57a25.67,25.67,0,0,1,10.5.65,12.31,12.31,0,0,1,6.74,4l-11.58,0-24.79-.06-23.08-.05C89.37,54.05,86.53,54.5,84.46,54Z"/><path class="cls-15" d="M151.33,54.11a12.33,12.33,0,0,0-8.5-6.76,21.56,21.56,0,0,0-11.12.61,30.6,30.6,0,0,0-1.4-11.77c-1.18-3.62-3.39-7.32-7-8.43-2.67-.81-5.58,0-8.12,1.13A26.26,26.26,0,0,0,101.5,44.15c-2-2.57-6.07-1.72-8.81,0a22.1,22.1,0,0,0-8.52,10Z"/><path class="cls-1" d="M33,88.32a18,18,0,0,1,11.17-1.26c3.74.78,6.72,2.81,7.59,5.18,5.74.18,11.09,2.68,12.89,6H33"/><path class="cls-15" d="M33,82a11.62,11.62,0,0,1,18.76,6.39,14.69,14.69,0,0,1,12.89,9.83H33"/><line class="cls-8" x1="98.74" y1="99.14" x2="98.74" y2="108.2"/><polyline class="cls-8" points="149.35 176.04 149.35 172.66 174.36 173.15 174.36 176.04"/><line class="cls-8" x1="174.36" y1="176.04" x2="149.35" y2="176.04"/><polygon class="cls-9" points="151.6 176.04 149.35 176.04 149.35 172.66 151.6 172.75 151.6 176.04"/><path class="cls-8" d="M181.67,154.3q2.26.11,4.51.42"/><line class="cls-8" x1="184.15" y1="150.46" x2="184.15" y2="159.26"/></svg>