<?xml version="1.0" encoding="utf-8"?>
<!-- Generator: Adobe Illustrator 20.1.0, SVG Export Plug-In . SVG Version: 6.00 Build 0)  -->
<svg version="1.1" id="Layer_1" xmlns="http://www.w3.org/2000/svg" xmlns:xlink="http://www.w3.org/1999/xlink" x="0px" y="0px"
	 viewBox="0 0 513.8 401.5" style="enable-background:new 0 0 513.8 401.5;" xml:space="preserve">
<style type="text/css">
	.st0{fill:#40565B;}
	.st1{opacity:0.5;fill:#A9D7F3;enable-background:new    ;}
	.st2{fill:#FFFFFF;}
	.st3{fill:#D0E4F0;}
	.st4{fill:#C3D4E0;}
	.st5{fill:none;stroke:#40565B;stroke-linecap:round;stroke-linejoin:round;}
	.st6{fill:#F36F42;}
	.st7{fill:#C84A27;}
	.st8{fill:#FFDC64;}
	.st9{fill:#FAAC30;}
	.st10{fill:#E7F1F8;}
	.st11{fill:#164A67;}
	.st12{fill:#F26F42;}
	.st13{fill:#3AA1D6;}
	.st14{fill:#1785C8;}
	.st15{fill:#8FD1BE;}
	.st16{fill:#29B99A;}
	.st17{fill:#A1C2D8;}
	.st18{fill:#3F555A;}
	.st19{fill:#985BCD;}
	.st20{fill:#8552BA;}
	.st21{fill:#923A95;}
	.st22{fill:#FFFFFF;stroke:#000000;stroke-miterlimit:10;}
</style>
<g>
	<path class="st0" d="M210.2,370.1H68.3c-0.3,0-0.5-0.2-0.5-0.5s0.2-0.5,0.5-0.5h141.9c0.3,0,0.5,0.2,0.5,0.5
		S210.4,370.1,210.2,370.1z"/>
	<path class="st1" d="M374.9,76.1c7.1-0.8,199.2,47.2,121,80.4s-74.2,56.8-53.8,72.4c14,10.7,49.9,4.7,35.3,41.3
		c-7.4,18.5-61.5,11.5-77.5,23.1c-16,11.6,74.7,24,0,46.1s-267.5,29.9-305.2,8.1s-44.8-66.6-19-73.3S56.4,249.9,27,239.5
		c-29.2-10.4-47-80.4,12.6-74.8c59.6,5.6,36-37.5,36-37.5s-138.2-65.4,31.3-69C276.4,54.5,374.9,76.1,374.9,76.1z"/>
	<g>
		<path class="st2" d="M286.4,228.9c1,0.4,29.4,9.5,29.4,9.5s10.3,8.1-15.4,1.9c7.8,14.5-25.1-2.1-25.1-2.1L286.4,228.9z"/>
		<path d="M298.3,246.7c-6.9,0-21.3-7.1-23.2-8.1l-0.6-0.3l11.9-9.9l0.2,0.1c1,0.4,29.1,9.4,29.4,9.4l0.1,0.1
			c0.3,0.2,2.8,2.3,2.1,3.8c-0.6,1.2-3,2.4-16.9-0.8c1,2.2,1.1,3.8,0.1,4.8C300.7,246.5,299.6,246.7,298.3,246.7z M276.1,238.1
			c6.5,3.2,21.8,9.9,24.6,7c0.9-1,0.1-3-0.7-4.6l-0.5-0.9l1,0.2c14.7,3.5,16.6,2.1,16.9,1.5c0.3-0.6-0.8-1.9-1.8-2.6
			c-1.9-0.6-26.2-8.4-29.1-9.4L276.1,238.1z"/>
	</g>
	<polyline class="st2" points="232.3,143.1 246.8,205.7 289.4,227.5 275.3,238.2 235.2,221.6 225.8,196.1 	"/>
	<polygon class="st3" points="277.5,227.7 237.5,211.1 228.1,185.6 232.9,145.8 232.3,143.1 225.8,196.1 235.2,221.6 275.3,238.2 
		289.4,227.5 282.4,224 	"/>
	<g>
		<path class="st4" d="M229.3,204.1c-0.2,0-0.3,0-0.5-0.1c-0.4-0.3-0.6-0.8-0.3-1.2l5.2-8.9c0.3-0.4,0.8-0.6,1.2-0.3
			c0.4,0.3,0.6,0.8,0.3,1.2l-5.2,8.9C229.9,204,229.6,204.1,229.3,204.1z"/>
		<path class="st4" d="M235.8,221.8c-0.2,0-0.4-0.1-0.5-0.2c-0.4-0.3-0.5-0.9-0.2-1.3l10.7-14.7c0.3-0.4,0.9-0.5,1.3-0.2
			c0.4,0.3,0.5,0.9,0.2,1.3l-10.7,14.7C236.3,221.7,236,221.8,235.8,221.8z"/>
		<path class="st4" d="M242.7,225c-0.2,0-0.5-0.1-0.6-0.3c-0.4-0.4-0.4-0.9,0-1.3l5.3-5.5c0.3-0.4,0.9-0.4,1.3,0
			c0.4,0.4,0.4,0.9,0,1.3l-5.3,5.5C243.2,224.9,242.9,225,242.7,225z"/>
	</g>
	<path class="st2" d="M142.4,369.7H95.1c-2.1,0-3.7-1.7-3.7-3.7v-12.6c0-2.1,1.7-3.7,3.7-3.7h47.3c2.1,0,3.7,1.7,3.7,3.7v12.6
		C146.1,368,144.4,369.7,142.4,369.7z"/>
	<path class="st3" d="M99.2,365.7c-2.1,0-3.7-1.7-3.7-3.7v-12.3h-0.3c-2.1,0-3.7,1.7-3.7,3.7v12.6c0,2.1,1.7,3.7,3.7,3.7h47.3
		c2.1,0,3.7-1.7,3.7-3.7v-0.3H99.2z"/>
	<path class="st0" d="M275.3,238.7c-0.1,0-0.1,0-0.2,0l-40-16.6c-0.1,0-0.2-0.1-0.3-0.3l-9.4-25.5c-0.1-0.2,0-0.5,0.3-0.6
		c0.2-0.1,0.5,0,0.6,0.3l9.4,25.3l39.6,16.4l13.3-10.1l-41.9-21.5c-0.1-0.1-0.2-0.2-0.2-0.3l-14.5-62.5c-0.1-0.2,0.1-0.5,0.3-0.5
		c0.2-0.1,0.5,0.1,0.5,0.3l14.5,62.3l42.4,21.8c0.1,0.1,0.2,0.2,0.2,0.4c0,0.2-0.1,0.3-0.2,0.4l-14.1,10.7
		C275.5,238.6,275.4,238.7,275.3,238.7z"/>
	<path class="st3" d="M210.2,308v47.3c0,2.1-1.7,3.7-3.7,3.7h-12.6c-2.1,0-3.7-1.7-3.7-3.7V308c0-2.1,1.7-3.7,3.7-3.7h12.6
		C208.5,304.2,210.2,305.9,210.2,308z"/>
	<path class="st0" d="M206.4,359.4h-12.6c-2.3,0-4.2-1.9-4.2-4.2V308c0-2.3,1.9-4.2,4.2-4.2h12.6c2.3,0,4.2,1.9,4.2,4.2v47.3
		C210.6,357.6,208.8,359.4,206.4,359.4z M193.9,304.7c-1.8,0-3.3,1.5-3.3,3.3v47.3c0,1.8,1.5,3.3,3.3,3.3h12.6
		c1.8,0,3.3-1.5,3.3-3.3V308c0-1.8-1.5-3.3-3.3-3.3H193.9z"/>
	<path class="st2" d="M195.2,303.2l-61.7-34.1l3.7,80.5l-22.9,0c-1.5,0.5-17.2-96.1-7.5-112c4.3-7,13.3-6.8,37.8,0.6
		c21.9,6.7,73.9,19.6,73.9,19.6s44,95.3,18,101.1C218,363,195.2,303.2,195.2,303.2z"/>
	<polygon class="st3" points="230.4,364.6 211.7,337.5 210.6,333.8 243.7,336.9 	"/>
	<path class="st3" d="M211.2,335.6c0,0-4.4-6.2-8-14s-8.2-19.2-8.2-19.2l5.1,2.7L211.2,335.6z"/>
	<polygon class="st3" points="137.1,349.6 130.9,349.6 122.8,256.6 133.5,269.1 	"/>
	<g>
		<path class="st4" d="M133.7,291.8c-0.1,0-0.1,0-0.2,0l-14.9-3.4c-0.5-0.1-0.8-0.6-0.7-1.1c0.1-0.5,0.6-0.8,1.1-0.7l14.9,3.4
			c0.5,0.1,0.8,0.6,0.7,1.1C134.5,291.5,134.1,291.8,133.7,291.8z"/>
		<path class="st4" d="M133.2,281.2c-0.2,0-0.4-0.1-0.6-0.2l-14.5-11.2c-0.4-0.3-0.5-0.9-0.2-1.3c0.3-0.4,0.9-0.5,1.3-0.2l14.5,11.2
			c0.4,0.3,0.5,0.9,0.2,1.3C133.7,281.1,133.5,281.2,133.2,281.2z"/>
		<path class="st4" d="M134.4,305.1h-11.1c-0.5,0-0.9-0.4-0.9-0.9c0-0.5,0.4-0.9,0.9-0.9h11.1c0.5,0,0.9,0.4,0.9,0.9
			C135.3,304.7,134.9,305.1,134.4,305.1z"/>
		<path class="st4" d="M135.3,323.9h-9.1c-0.5,0-0.9-0.4-0.9-0.9s0.4-0.9,0.9-0.9h9.1c0.5,0,0.9,0.4,0.9,0.9
			S135.8,323.9,135.3,323.9z"/>
	</g>
	<path class="st2" d="M194.7,129.1h-27.9c-5.3,0-9.5-4.3-9.5-9.5V28.5c0-5.3,4.3-9.5,9.5-9.5h27.9c5.3,0,9.5,4.3,9.5,9.5v91.1
		C204.2,124.8,200,129.1,194.7,129.1z"/>
	<path class="st3" d="M203.7,121.8h-27.9c-5.3,0-9.5-4.3-9.5-9.5V21.2c0-0.8,0.1-1.5,0.3-2.2c-5.1,0.1-9.2,4.3-9.2,9.5v91.1
		c0,5.3,4.3,9.5,9.5,9.5h27.9c4.5,0,8.3-3.1,9.2-7.3C203.9,121.7,203.8,121.8,203.7,121.8z"/>
	<g>
		<path class="st3" d="M204.2,28.5c0-5.3-4.3-9.5-9.5-9.5h-27.9c-5.3,0-9.5,4.3-9.5,9.5v19.6c15.3-5.4,30.9-5.2,46.8,0L204.2,28.5z"
			/>
		<path class="st5" d="M157.2,48.1"/>
		<path class="st0" d="M157.2,48.6h-0.2c-0.2,0-0.4-0.2-0.4-0.4c0-0.2,0.1-0.4,0.3-0.5c0,0,0.1,0,0.1,0c0.1,0,0.3,0,0.4,0.1
			c0.1,0.1,0.2,0.2,0.2,0.4C157.7,48.3,157.5,48.6,157.2,48.6z"/>
	</g>
	<path class="st0" d="M194.7,129.5h-27.9c-5.5,0-10-4.5-10-10V28.5c0-5.5,4.5-10,10-10h27.9c5.5,0,10,4.5,10,10v91.1
		C204.7,125,200.2,129.5,194.7,129.5z M166.8,19.4c-5,0-9.1,4.1-9.1,9.1v91.1c0,5,4.1,9.1,9.1,9.1h27.9c5,0,9.1-4.1,9.1-9.1V28.5
		c0-5-4.1-9.1-9.1-9.1H166.8z"/>
	<path class="st0" d="M157.1,48.6c-0.2,0-0.4-0.1-0.4-0.3c-0.1-0.2,0-0.5,0.3-0.6c15.2-5.4,31.1-5.4,47.2,0c0.2,0.1,0.4,0.3,0.3,0.6
		c-0.1,0.2-0.3,0.4-0.6,0.3c-16-5.3-31.7-5.3-46.7,0C157.2,48.6,157.2,48.6,157.1,48.6z"/>
	<path class="st0" d="M176.8,62.2L176.8,62.2c-0.2,0-0.5,0-0.7,0.1V66c0,1.7-1.2,3-2.7,3.3v5.4c0,1.9,1.5,3.4,3.4,3.4h0
		c1.9,0,3.4-1.5,3.4-3.4v-9.1C180.2,63.7,178.7,62.2,176.8,62.2z"/>
	<path class="st0" d="M196.8,62.2L196.8,62.2c-0.2,0-0.5,0-0.7,0.1V66c0,1.7-1.2,3-2.7,3.3v5.4c0,1.9,1.5,3.4,3.4,3.4h0
		c1.9,0,3.4-1.5,3.4-3.4v-9.1C200.2,63.7,198.7,62.2,196.8,62.2z"/>
	<g>
		<polygon class="st6" points="189.7,84.9 186.6,84.9 183.5,84.9 185.1,82.2 186.6,79.5 188.2,82.2 		"/>
		<path class="st7" d="M183.5,85.3c-0.2,0-0.3-0.1-0.4-0.2c-0.1-0.1-0.1-0.3,0-0.5l3.1-5.4c0.1-0.1,0.2-0.2,0.4-0.2c0,0,0,0,0,0
			c0.2,0,0.3,0.1,0.4,0.2l3.1,5.3c0.1,0.1,0.1,0.3,0,0.5c-0.1,0.1-0.2,0.2-0.4,0.2L183.5,85.3C183.5,85.3,183.5,85.3,183.5,85.3z
			 M186.6,80.4l-2.3,4l4.6,0L186.6,80.4z"/>
	</g>
	<path class="st0" d="M189,117.6c-4.1,0-7.5-1.2-10.3-3.5c-5.7-4.8-6.2-12.9-6.2-13.2c0-0.3,0.2-0.5,0.4-0.5c0.3,0,0.5,0.2,0.5,0.4
		c0,0.1,0.5,8,5.9,12.6c3.1,2.6,7.1,3.7,12.1,3.1c0.2,0,0.5,0.2,0.5,0.4c0,0.3-0.2,0.5-0.4,0.5C190.7,117.6,189.9,117.6,189,117.6z"
		/>
	<path class="st0" d="M169.6,58.9c-0.1,0-0.3-0.1-0.4-0.2c-0.2-0.2-0.1-0.5,0.1-0.6c0.5-0.4,5.1-3.8,7.3-2.9
		c0.2,0.1,0.3,0.4,0.2,0.6c-0.1,0.2-0.4,0.3-0.6,0.2c-1.3-0.5-4.6,1.4-6.4,2.8C169.8,58.9,169.7,58.9,169.6,58.9z"/>
	<path class="st0" d="M204.3,58.9c-0.1,0-0.2,0-0.3-0.1c-1.8-1.4-5.1-3.3-6.4-2.8c-0.2,0.1-0.5,0-0.6-0.2c-0.1-0.2,0-0.5,0.2-0.6
		c2.2-0.9,6.7,2.5,7.3,2.9c0.2,0.2,0.2,0.4,0.1,0.6C204.5,58.8,204.4,58.9,204.3,58.9z"/>
	<rect x="180.1" y="9.2" width="0.9" height="9.8"/>
	<g>
		<circle class="st6" cx="180.6" cy="4.8" r="4.4"/>
		<path class="st7" d="M180.6,9.7c-2.7,0-4.8-2.2-4.8-4.8s2.2-4.8,4.8-4.8c2.7,0,4.8,2.2,4.8,4.8S183.2,9.7,180.6,9.7z M180.6,0.9
			c-2.2,0-3.9,1.8-3.9,3.9s1.8,3.9,3.9,3.9c2.2,0,3.9-1.8,3.9-3.9S182.7,0.9,180.6,0.9z"/>
	</g>
	<rect x="172.3" y="129.1" class="st2" width="16.9" height="14.1"/>
	<path class="st3" d="M189.2,131c-5,3.1-10.3,8.6-16.9,7.8l0-9.8h16.9L189.2,131z"/>
	<path class="st4" d="M188.3,137h-15.4c-0.5,0-0.9-0.4-0.9-0.9c0-0.5,0.4-0.9,0.9-0.9h15.4c0.5,0,0.9,0.4,0.9,0.9
		C189.2,136.6,188.8,137,188.3,137z"/>
	<path class="st0" d="M189.2,143.6h-16.9c-0.3,0-0.5-0.2-0.5-0.5v-14.1c0-0.3,0.2-0.5,0.5-0.5h16.9c0.3,0,0.5,0.2,0.5,0.5v14.1
		C189.7,143.4,189.5,143.6,189.2,143.6z M172.7,142.7h16v-13.2h-16V142.7z"/>
	<polygon class="st8" points="210.8,143.1 180.6,202.7 150.4,143.1 128.9,143.1 146.1,247.5 219.5,260.2 232.3,143.1 	"/>
	<path class="st9" d="M180.6,202.7l-11.4-22.5c-13,1.2-36.5-25.4-40.3-37l17.2,104.4l73.4,12.7l10.2-93.4
		C215.2,209.7,193.4,175.8,180.6,202.7z"/>
	<polygon class="st10" points="180.6,202.7 150.4,143.1 210.8,143.1 	"/>
	<g>
		<path class="st2" d="M203.8,240.9c-1.2-3.9-4.8-6.7-8.9-6.8l-19.7-0.9l-40.4-15.5l2.9-21.4l-9-53.2l-13.5,86.5l56.7,18.3l14,7
			l7.6,0.8C200.4,256.4,205.8,247.5,203.8,240.9z"/>
		<path class="st3" d="M195.9,251.4l-7.6-0.8l-14-7l-56.7-18.3l12-77l-0.9-5.2l-13.5,86.5l56.7,18.3l14,7l7.6,0.8
			c4.6,0.5,8.6-3.4,10.1-7.9C201.6,250.2,198.9,251.7,195.9,251.4z"/>
		<path class="st3" d="M203.8,240.9c-1.2-3.9-4.8-6.7-8.9-6.8l-19.7-0.9l-40.4-15.5l2.9-21.4l-9-53.2l-1.9,12.2l7.5,44.4l-2.9,21.4
			l40.4,15.5l19.7,0.9c4.1,0.2,7.7,2.9,8.9,6.8c1,3.3,0.2,7.2-1.8,10.2C202.8,251.8,205.3,245.8,203.8,240.9z"/>
		<g>
			<path class="st4" d="M115.8,230.2c-0.3,0-0.6-0.2-0.8-0.4c-0.3-0.4-0.1-1,0.3-1.3l18.4-11.2c0.4-0.3,1-0.1,1.3,0.3
				c0.3,0.4,0.1,1-0.3,1.3L116.3,230C116.2,230.1,116,230.2,115.8,230.2z"/>
			<path class="st4" d="M135.6,209.5c-0.1,0-0.1,0-0.2,0l-16.3-2.8c-0.5-0.1-0.8-0.6-0.7-1.1c0.1-0.5,0.6-0.8,1.1-0.7l16.3,2.8
				c0.5,0.1,0.8,0.6,0.7,1.1C136.5,209.2,136.1,209.5,135.6,209.5z"/>
			<path class="st4" d="M137.2,197c-0.2,0-0.4-0.1-0.6-0.2l-11.3-10.4c-0.4-0.3-0.4-0.9-0.1-1.3c0.3-0.4,0.9-0.4,1.3-0.1l11.3,10.4
				c0.4,0.3,0.4,0.9,0.1,1.3C137.7,196.9,137.5,197,137.2,197z"/>
			<path class="st4" d="M135.8,231.7c-0.1,0-0.2,0-0.4-0.1c-0.5-0.2-0.7-0.7-0.5-1.2l4.5-10.1c0.2-0.5,0.7-0.7,1.2-0.5
				c0.5,0.2,0.7,0.7,0.5,1.2l-4.5,10.1C136.5,231.5,136.2,231.7,135.8,231.7z"/>
			<path class="st4" d="M149.7,237.8c-0.1,0-0.2,0-0.3,0c-0.5-0.1-0.8-0.6-0.6-1.1l3.4-11.6c0.1-0.5,0.7-0.8,1.1-0.6
				c0.5,0.1,0.8,0.6,0.6,1.1l-3.4,11.6C150.5,237.6,150.1,237.8,149.7,237.8z"/>
			<path class="st4" d="M164,239.8c-0.1,0-0.1,0-0.2,0c-0.5-0.1-0.8-0.6-0.7-1.1l1.6-8.6c0.1-0.5,0.6-0.8,1.1-0.7
				c0.5,0.1,0.8,0.6,0.7,1.1l-1.6,8.6C164.8,239.5,164.5,239.8,164,239.8z"/>
		</g>
		<path class="st0" d="M194.3,256.2c-0.3,0-0.5,0-0.8,0l-7.6-0.8c-0.1,0-0.1,0-0.2,0l-14-7L115,230.1c-0.2-0.1-0.3-0.3-0.3-0.5
			l13.5-86.5c0-0.2,0.3-0.4,0.5-0.4c0.2,0,0.4,0.3,0.4,0.5l-13.4,86.1l56.4,18.1l14,7l7.5,0.7c2.7,0.3,5.3-1,7.4-3.5
			c2.5-3.1,3.5-7.3,2.4-10.8c-1.2-3.7-4.6-6.4-8.5-6.5l-19.7-0.9c0,0-0.1,0-0.1,0l-40.4-15.5c-0.2-0.1-0.3-0.3-0.3-0.5l2.9-21.4
			c0-0.2,0.3-0.4,0.5-0.4c0.2,0,0.4,0.3,0.4,0.5l-2.8,21l40,15.3l19.6,0.9c4.3,0.2,8,3.1,9.3,7.2c1.2,3.7,0.1,8.3-2.6,11.6
			C199.6,254.8,197,256.2,194.3,256.2z"/>
		<path class="st0" d="M171.9,248.4c0,0-0.1,0-0.1,0c-0.2-0.1-0.4-0.3-0.3-0.5l3.3-14.8c0.1-0.2,0.3-0.4,0.5-0.3
			c0.2,0.1,0.4,0.3,0.3,0.5l-3.3,14.8C172.3,248.2,172.1,248.4,171.9,248.4z"/>
	</g>
	<path class="st11" d="M180.6,203.1c-0.2,0-0.3-0.1-0.4-0.3L150,143.3c-0.1-0.1-0.1-0.3,0-0.4c0.1-0.1,0.2-0.2,0.4-0.2h60.3
		c0.2,0,0.3,0.1,0.4,0.2c0.1,0.1,0.1,0.3,0,0.4L181,202.9C180.9,203,180.8,203.1,180.6,203.1z M151.2,143.6l29.4,58.1l29.4-58.1
		H151.2z"/>
	<polygon class="st12" points="220,260.2 219.1,260.1 231.8,143.6 211,143.6 180.6,203.7 150.1,143.6 129.4,143.6 142,219.8 
		141.1,220 128.3,142.7 150.7,142.7 180.6,201.7 210.5,142.7 232.8,142.7 	"/>
	<g>
		<path class="st13" d="M177.8,143.4c-1-0.7-2.2-1.4-3.4-1.9c-5.5-2.5-11-2.3-12.2,0.5c-0.3,0.7-0.3,1.4-0.1,2.2
			c0.7,2.6,0.9,5.3-0.1,7.8c-0.3,0.9-0.4,1.8,0,2.6c1.2,2.7,6.7,2.9,12.2,0.5c1.2-0.6,2.4-1.2,3.4-1.9c2.3-0.1,4-0.8,4.6-2.2
			c0.4-0.9,0.3-1.9-0.2-2.9c0.3-0.9,0.3-1.7,0-2.4C181.5,144.3,179.9,143.5,177.8,143.4z"/>
		<path class="st13" d="M183.6,142.5c1-0.7,2.2-1.4,3.4-1.9c5.5-2.5,11-2.3,12.2,0.5c0.3,0.7,0.3,1.4,0.1,2.2
			c-0.7,2.6-0.9,5.3,0.1,7.8c0.3,0.9,0.4,1.8,0,2.6c-1.2,2.7-6.7,2.9-12.2,0.5c-1.2-0.6-2.4-1.2-3.4-1.9c-2.3-0.1-4-0.8-4.6-2.2
			c-0.4-0.9-0.3-1.9,0.2-2.9c-0.3-0.9-0.3-1.7,0-2.4C180,143.3,181.6,142.6,183.6,142.5z"/>
	</g>
	<g>
		<path class="st11" d="M166.9,157.2c-0.2,0-0.3,0-0.5,0c-2.5-0.1-4.2-1-4.9-2.5c-0.4-0.8-0.4-1.8,0-2.9c0.8-2.2,0.8-4.7,0-7.6
			c-0.2-0.9-0.2-1.7,0.1-2.5c1.3-3,7-3.3,12.8-0.7c1.2,0.5,2.4,1.2,3.4,1.9c2.3,0.2,3.9,1,4.5,2.4c0.3,0.8,0.4,1.6,0.1,2.6
			c0.5,1.1,0.5,2.2,0.1,3.1c-0.7,1.5-2.4,2.4-4.9,2.5c-1,0.7-2.2,1.3-3.4,1.9C171.9,156.6,169.2,157.2,166.9,157.2z M167.1,140.2
			c-2.2,0-3.9,0.6-4.5,1.9c-0.2,0.5-0.3,1.2-0.1,1.9c0.8,3,0.8,5.7-0.1,8.1c-0.3,0.8-0.3,1.6,0,2.2c0.5,1.2,2,1.8,4.1,1.9
			c2.3,0.1,4.9-0.5,7.5-1.7c1.2-0.5,2.3-1.2,3.3-1.9c0.1,0,0.2-0.1,0.2-0.1c2.2-0.1,3.7-0.8,4.2-1.9c0.3-0.7,0.3-1.6-0.2-2.5
			c0-0.1-0.1-0.2,0-0.3c0.3-0.8,0.3-1.5,0-2.1c-0.5-1.1-1.9-1.8-3.8-1.9c-0.1,0-0.2,0-0.2-0.1c-1-0.7-2.2-1.3-3.4-1.9
			C171.7,140.8,169.2,140.2,167.1,140.2z"/>
		<path class="st11" d="M194.5,156.3c-2.2,0-4.8-0.6-7.5-1.8c-1.2-0.5-2.3-1.2-3.4-1.9c-2.5-0.1-4.2-1-4.9-2.5
			c-0.4-0.9-0.4-2,0.1-3.1c-0.3-1-0.3-1.8,0.1-2.6c0.6-1.4,2.2-2.3,4.5-2.4c1-0.7,2.2-1.3,3.4-1.9c5.9-2.6,11.5-2.3,12.8,0.7
			c0.3,0.7,0.4,1.6,0.1,2.5c-0.8,2.8-0.8,5.4,0,7.6c0.4,1.1,0.4,2.1,0,2.9C199.2,155.4,197.2,156.3,194.5,156.3z M194.4,139.3
			c-2.1,0-4.6,0.6-7.1,1.7c-1.2,0.5-2.3,1.2-3.4,1.9c-0.1,0-0.1,0.1-0.2,0.1c-2,0.1-3.3,0.8-3.8,1.9c-0.3,0.6-0.3,1.3,0,2.1
			c0,0.1,0,0.2,0,0.3c-0.4,1-0.5,1.8-0.2,2.5c0.5,1.2,2,1.9,4.2,1.9c0.1,0,0.2,0,0.2,0.1c1,0.7,2.1,1.3,3.3,1.9
			c5.2,2.3,10.5,2.2,11.6-0.2c0.3-0.6,0.3-1.4,0-2.2c-0.9-2.4-0.9-5.1-0.1-8.1c0.2-0.7,0.2-1.3-0.1-1.9
			C198.3,139.9,196.6,139.3,194.4,139.3z M183.6,142.5L183.6,142.5L183.6,142.5z"/>
		
			<ellipse transform="matrix(0.7071 -0.7071 0.7071 0.7071 -51.2707 171.64)" class="st13" cx="181.6" cy="147.7" rx="5.4" ry="5.4"/>
		<path class="st11" d="M181.6,153.5c-1.5,0-3-0.6-4.1-1.7c-2.3-2.3-2.3-6,0-8.2c2.3-2.3,6-2.3,8.2,0c2.3,2.3,2.3,6,0,8.2
			C184.5,153,183,153.5,181.6,153.5z M181.6,142.8c-1.3,0-2.5,0.5-3.5,1.4c-1.9,1.9-1.9,5,0,7s5,1.9,7,0s1.9-5,0-7
			C184.1,143.3,182.8,142.8,181.6,142.8z"/>
	</g>
	<rect x="180.3" y="202.7" class="st12" width="0.9" height="26.9"/>
	<circle class="st13" cx="180.7" cy="160" r="1.9"/>
	<circle class="st13" cx="180.7" cy="187" r="1.9"/>
	<path class="st11" d="M180.7,180.6c-0.3,0-0.5-0.2-0.5-0.5v-13.4c0-0.3,0.2-0.5,0.5-0.5c0.3,0,0.5,0.2,0.5,0.5v13.4
		C181.2,180.4,181,180.6,180.7,180.6z"/>
	<path class="st11" d="M180.7,162.3c-1.3,0-2.4-1.1-2.4-2.4c0-1.3,1.1-2.4,2.4-2.4c1.3,0,2.4,1.1,2.4,2.4
		C183.1,161.3,182,162.3,180.7,162.3z M180.7,158.5c-0.8,0-1.5,0.7-1.5,1.5s0.7,1.5,1.5,1.5s1.5-0.7,1.5-1.5
		S181.5,158.5,180.7,158.5z"/>
	<path class="st11" d="M180.7,189.3c-1.3,0-2.4-1.1-2.4-2.4c0-1.3,1.1-2.4,2.4-2.4c1.3,0,2.4,1.1,2.4,2.4
		C183.1,188.3,182,189.3,180.7,189.3z M180.7,185.5c-0.8,0-1.5,0.7-1.5,1.5s0.7,1.5,1.5,1.5s1.5-0.7,1.5-1.5
		S181.5,185.5,180.7,185.5z"/>
	<path class="st0" d="M234.6,359.6c-7.5,0-16.2-9.1-26.1-27.1c-7.5-13.7-13.1-28-13.8-29.7l-60.8-32.8l3.6,79.7c0,0.1,0,0.2-0.1,0.3
		c-0.1,0.1-0.2,0.1-0.3,0.1l-22.9,0c-0.2,0-0.3-0.1-0.4-0.2c-1.1-1.3-5.3-25.8-8.1-51.2c-2.5-23.3-4.5-52.8,0.7-61.3
		c4.4-7.3,13.4-7.2,38.3,0.4c21.7,6.6,73.3,19.4,73.8,19.6c0.1,0,0.2,0.1,0.3,0.3c1.4,3.1,34.6,75.5,24.3,96.4
		c-1.4,2.9-3.7,4.7-6.6,5.3C235.9,359.5,235.3,359.6,234.6,359.6z M133.5,268.7c0.1,0,0.1,0,0.2,0.1l61.6,33.3
		c0.1,0.1,0.2,0.1,0.2,0.2c0.2,0.6,21.6,56.4,39.1,56.4c0.6,0,1.2-0.1,1.7-0.2c2.7-0.6,4.7-2.2,6-4.9c4.2-8.5,1.3-27.7-8.3-55.5
		c-6.9-20-15-37.8-15.9-39.9c-3.7-0.9-52.7-13.1-73.7-19.5c-24.1-7.3-33.2-7.5-37.3-0.8c-3.9,6.4-4.1,27.9-0.6,60.5
		c2.8,25.9,6.9,48.6,7.8,50.8h22.2l-3.7-80c0-0.2,0.1-0.3,0.2-0.4C133.3,268.7,133.4,268.7,133.5,268.7z M114.1,349.2
		C114.1,349.2,114.1,349.2,114.1,349.2C114.1,349.2,114.1,349.2,114.1,349.2z"/>
	<path class="st0" d="M221.3,335.4C221.3,335.4,221.3,335.4,221.3,335.4l-11.2-1c-0.3,0-0.4-0.2-0.4-0.5c0-0.3,0.2-0.4,0.5-0.4
		l11.2,1c0.3,0,0.4,0.2,0.4,0.5C221.7,335.3,221.5,335.4,221.3,335.4z"/>
	<path class="st13" d="M244.3,337.1c-3.1-29.8-25.9-79.1-25.9-79.1s-51.9-12.9-73.9-19.6c-24.5-7.4-33.5-7.6-37.8-0.6l26.7,31.5
		l66.8,35.9l10.6,29.3L244.3,337.1z"/>
	<path class="st14" d="M135.3,270.1c0,0,53.5,9.3,61,19.1c7.5,9.8,14.5,45.3,14.5,45.3l-10.6-29.3L135.3,270.1z"/>
	<path class="st14" d="M199.7,253.6c-44.5-11.9-82.9-20-83.4-4.6l-9.6-11.3c0,0,3.4-5.3,12.4-5.3
		C128.2,232.6,199.7,253.6,199.7,253.6z"/>
	<path class="st11" d="M244.3,337.5C244.2,337.5,244.2,337.5,244.3,337.5l-33.5-2.6c-0.2,0-0.3-0.1-0.4-0.3l-10.6-29.1l-66.6-35.8
		c-0.1,0-0.1-0.1-0.1-0.1L106.4,238c-0.1-0.2-0.1-0.4,0-0.5c4.4-7.3,13.4-7.2,38.3,0.4c21.7,6.6,73.3,19.4,73.8,19.6
		c0.1,0,0.2,0.1,0.3,0.3c0.2,0.5,22.8,49.7,25.9,79.3c0,0.1,0,0.3-0.1,0.4C244.5,337.5,244.4,337.5,244.3,337.5z M211.1,334
		l32.6,2.5c-3.2-28.5-24.1-74.8-25.7-78.3c-3.7-0.9-52.7-13.1-73.7-19.5c-23.8-7.2-32.9-7.5-37.1-1.1l26.4,31.2l66.7,35.9
		c0.1,0.1,0.2,0.1,0.2,0.2L211.1,334z"/>
	<path class="st0" d="M142.4,370.1H95.1c-2.3,0-4.2-1.9-4.2-4.2v-12.6c0-2.3,1.9-4.2,4.2-4.2h47.3c2.3,0,4.2,1.9,4.2,4.2v12.6
		C146.6,368.3,144.7,370.1,142.4,370.1z M95.1,350.1c-1.8,0-3.3,1.5-3.3,3.3v12.6c0,1.8,1.5,3.3,3.3,3.3h47.3c1.8,0,3.3-1.5,3.3-3.3
		v-12.6c0-1.8-1.5-3.3-3.3-3.3H95.1z"/>
	<rect x="256.4" y="227.7" transform="matrix(0.733 -0.6802 0.6802 0.733 -85.621 238.0936)" width="8.1" height="0.9"/>
	<path class="st5" d="M212.1,337.9"/>
	<path class="st5" d="M200.2,305.2"/>
	<g>
		<g>
			<g>
				<g>
					
						<rect x="209.8" y="349.6" transform="matrix(-1 -8.666103e-11 8.666103e-11 -1 622.3436 725.9889)" class="st8" width="202.7" height="26.7"/>
					
						<rect x="209.8" y="363" transform="matrix(-1 -8.666103e-11 8.666103e-11 -1 622.3436 739.3622)" class="st9" width="202.7" height="13.4"/>
					<path class="st12" d="M413,376.8H209.4v-27.7H413V376.8z M210.3,375.9H412v-25.8H210.3V375.9z"/>
					<path class="st12" d="M395.7,376.8h-34.9v-27.7h34.9V376.8z M361.7,375.9h33.1v-25.8h-33.1V375.9z"/>
				</g>
				<g>
					
						<rect x="187.3" y="376.4" transform="matrix(-1 -2.951695e-11 2.951695e-11 -1 605.3696 778.0124)" class="st15" width="230.7" height="25.3"/>
					<path class="st16" d="M187.6,401.6h230.3c0.1,0,0.2-0.1,0.2-0.2V388H187.3v13.4C187.3,401.5,187.4,401.6,187.6,401.6z"/>
					<path class="st0" d="M418,402.1H187.3c-0.3,0-0.5-0.2-0.5-0.5v-25.3c0-0.3,0.2-0.5,0.5-0.5H418c0.3,0,0.5,0.2,0.5,0.5v25.3
						C418.5,401.9,418.3,402.1,418,402.1z M187.8,401.2h229.8v-24.4H187.8V401.2z"/>
					<path class="st0" d="M215.7,402.1H210c-0.3,0-0.5-0.2-0.5-0.5v-25.3c0-0.3,0.2-0.5,0.5-0.5h5.8c0.3,0,0.5,0.2,0.5,0.5v25.3
						C216.2,401.9,216,402.1,215.7,402.1z M210.4,401.2h4.9v-24.4h-4.9V401.2z"/>
					<g>
						<path class="st2" d="M394.1,342.5H231.3v-20.9h162.8l-1.2,2.1c-2.7,4.9-2.8,10.9-0.3,15.9L394.1,342.5z"/>
						<path class="st3" d="M394.1,342.5l-162.8,0l-1.9-15c54.7,6.9,110.1,8.5,161.4,4.1C390.7,335.3,392.1,338.9,394.1,342.5z"/>
						<path class="st6" d="M233.9,349.6h161.4v-9.4H234c-1.2-2.6-1.8-5.5-1.8-8.6c0-3.1,0.7-6.1,1.8-8.6h161.3v-9.4H233.9
							c-8.1,0-14.7,8.1-14.7,18C219.2,341.6,225.8,349.6,233.9,349.6z"/>
						<path class="st7" d="M395.3,350.1H233.9c-8.3,0-15.1-8.3-15.1-18.5c0-10.2,6.8-18.5,15.1-18.5h161.4c0.3,0,0.5,0.2,0.5,0.5
							v9.4c0,0.3-0.2,0.5-0.5,0.5h-161c-1.1,2.6-1.7,5.3-1.7,8.2c0,2.9,0.6,5.6,1.7,8.2h161c0.3,0,0.5,0.2,0.5,0.5v9.4
							C395.8,349.9,395.6,350.1,395.3,350.1z M233.9,314c-7.8,0-14.2,7.9-14.2,17.6c0,9.7,6.4,17.6,14.2,17.6h160.9v-8.5H234
							c-0.2,0-0.3-0.1-0.4-0.3c-1.3-2.8-1.9-5.8-1.9-8.8s0.6-6.1,1.9-8.8c0.1-0.2,0.2-0.3,0.4-0.3h160.9V314H233.9z"/>
						<path class="st7" d="M219.4,333.8c0.9,8.9,7.1,15.8,14.6,15.8h161.4v-4.9H234c-1.2-2.6-1.8-5.5-1.8-8.6c0-0.8,0-1.5,0.1-2.2
							c-0.1-0.7-0.1-1.5-0.1-2.2c0-3.1,0.7-6.1,1.8-8.6h161.3V318H233.9C226.4,318,220.2,324.9,219.4,333.8z"/>
						<path class="st0" d="M392.9,340.7c-0.2,0-0.3-0.1-0.4-0.3c-2.8-5.5-2.8-12.2,0-17.7c0.1-0.2,0.4-0.3,0.6-0.2
							c0.2,0.1,0.3,0.4,0.2,0.6c-2.6,5.3-2.6,11.6,0,16.9c0.1,0.2,0,0.5-0.2,0.6C393,340.7,393,340.7,392.9,340.7z"/>
						<path class="st3" d="M288.8,328h-20.8c-0.3,0-0.5-0.2-0.5-0.5c0-0.3,0.2-0.5,0.5-0.5h20.8c0.3,0,0.5,0.2,0.5,0.5
							C289.2,327.8,289,328,288.8,328z"/>
						<path class="st3" d="M294.3,330.4H285c-0.3,0-0.5-0.2-0.5-0.5s0.2-0.5,0.5-0.5h9.3c0.3,0,0.5,0.2,0.5,0.5
							S294.6,330.4,294.3,330.4z"/>
						<path class="st3" d="M313.2,328h-13c-0.3,0-0.5-0.2-0.5-0.5c0-0.3,0.2-0.5,0.5-0.5h13c0.3,0,0.5,0.2,0.5,0.5
							C313.7,327.8,313.5,328,313.2,328z"/>
						<path class="st3" d="M335.4,330.4h-11c-0.3,0-0.5-0.2-0.5-0.5s0.2-0.5,0.5-0.5h11c0.3,0,0.5,0.2,0.5,0.5
							S335.6,330.4,335.4,330.4z"/>
						<path class="st3" d="M320.6,330.4h-11c-0.3,0-0.5-0.2-0.5-0.5s0.2-0.5,0.5-0.5h11c0.3,0,0.5,0.2,0.5,0.5
							S320.8,330.4,320.6,330.4z"/>
						<path class="st3" d="M378.8,330.4h-11c-0.3,0-0.5-0.2-0.5-0.5s0.2-0.5,0.5-0.5h11c0.3,0,0.5,0.2,0.5,0.5
							S379.1,330.4,378.8,330.4z"/>
						<path class="st3" d="M385.9,328h-11c-0.3,0-0.5-0.2-0.5-0.5c0-0.3,0.2-0.5,0.5-0.5h11c0.3,0,0.5,0.2,0.5,0.5
							C386.4,327.8,386.1,328,385.9,328z"/>
						<path class="st3" d="M361.8,328H336c-0.3,0-0.5-0.2-0.5-0.5c0-0.3,0.2-0.5,0.5-0.5h25.8c0.3,0,0.5,0.2,0.5,0.5
							C362.2,327.8,362,328,361.8,328z"/>
					</g>
					<path class="st0" d="M395.1,402.1H377c-0.3,0-0.5-0.2-0.5-0.5v-25.3c0-0.3,0.2-0.5,0.5-0.5h18.2c0.3,0,0.5,0.2,0.5,0.5v25.3
						C395.6,401.9,395.4,402.1,395.1,402.1z M377.4,401.2h17.3v-24.4h-17.3V401.2z"/>
				</g>
			</g>
			<g>
				<path class="st3" d="M313.6,108.1l-2.1-29.4c0,0-32.5,2.6-34.5,41.6c-1.9,39,0,63.8,0,63.8l11.1-6.3v-47.6c0,0,26,15.3,26,13.6
					C314.2,142.1,313.6,108.1,313.6,108.1z"/>
				<g>
					<path class="st10" d="M314.2,143.9c0-1.8-0.6-35.8-0.6-35.8l-2.1-29.4c0,0-32.5,2.6-34.5,41.6c-0.7,15-0.9,27.8-0.8,38
						c0.1-8.6,0.3-18.6,0.8-29.7c1.9-39,34.5-41.6,34.5-41.6l2.1,29.4c0,0,0.3,17,0.5,27.6C314.1,144,314.2,143.9,314.2,143.9z"/>
				</g>
				<path class="st3" d="M314.2,108.1l2.1-29.4c0,0,32.5,2.6,34.5,41.6s0,63.8,0,63.8l-11.1-6.3v-47.6c0,0-25.4,15-25.4,13.3
					C314.2,141.8,314.2,108.1,314.2,108.1z"/>
				<path class="st17" d="M345.6,175.8h-6.2l-0.4-51.2c0,0,3,3.7,4.9,9.6C347.1,144.4,345.6,175.8,345.6,175.8z"/>
				<path class="st17" d="M281.8,175.8h6.2l0.4-51.2c0,0-3,3.7-4.9,9.6C280.3,144.4,281.8,175.8,281.8,175.8z"/>
				<g>
					<path class="st10" d="M313.5,143.9c0-1.8,0.6-35.8,0.6-35.8l2.1-29.4c0,0,32.5,2.6,34.5,41.6c0.7,15,0.9,27.8,0.8,38
						c-0.1-8.6-0.3-18.6-0.8-29.7c-1.9-39-34.5-41.6-34.5-41.6l-2.1,29.4c0,0-0.3,17-0.5,27.6C313.6,144,313.5,143.9,313.5,143.9z"
						/>
				</g>
				<g>
					<path class="st2" d="M348.9,237.6c0,0,17.8-0.3,13.6-10.3c-4.1-10-10.1-25.3-10.1-25.3l-1.2-26.2c14.4,6.4,26,39.2,29.4,54.4
						c2.8,12.6-13.2,33-13.2,33"/>
					<path class="st3" d="M371.3,230.9c-2.9-10.5-11-30.5-19.6-43.3l0.7,14.5c0,0,6,15.3,10.1,25.3c4.1,10-13.6,10.3-13.6,10.3
						l15.1,25.7C368.2,256.1,373.8,240,371.3,230.9z"/>
					<path class="st4" d="M363.4,231.8c-0.3,0-0.5-0.1-0.7-0.3c-0.3-0.4-0.3-1,0.1-1.3l7.3-6.3c0.4-0.3,1-0.3,1.3,0.1
						c0.3,0.4,0.3,1-0.1,1.3l-7.3,6.3C363.9,231.7,363.7,231.8,363.4,231.8z"/>
					<path class="st4" d="M360.4,220.4c-0.2,0-0.5-0.1-0.7-0.3c-0.3-0.4-0.3-0.9,0-1.3c1.6-1.5,6.9-4.9,7.2-5c0.4-0.3,1-0.1,1.3,0.3
						c0.3,0.4,0.1,1-0.3,1.3c-0.1,0-5.4,3.4-6.9,4.8C360.9,220.3,360.7,220.4,360.4,220.4z"/>
					<path class="st4" d="M356.3,210c-0.3,0-0.5-0.1-0.7-0.3c-0.3-0.4-0.2-1,0.2-1.3l7.9-6.2c0.4-0.3,1-0.2,1.3,0.2
						c0.3,0.4,0.2,1-0.2,1.3l-7.9,6.2C356.7,209.9,356.5,210,356.3,210z"/>
					<path class="st0" d="M367.4,263.7c-0.1,0-0.2,0-0.3-0.1c-0.2-0.2-0.2-0.4-0.1-0.6c0.2-0.2,15.8-20.4,13.1-32.6
						c-3.3-14.7-14.5-46.8-28.5-53.8l1.2,25.4c0.4,1.1,6.1,15.6,10.1,25.2c1,2.3,0.9,4.3-0.2,6c-3.1,4.7-13.4,5-13.8,5
						c-0.3,0-0.5-0.2-0.5-0.4c0-0.3,0.2-0.5,0.4-0.5c0.1,0,10.2-0.2,13.1-4.6c0.9-1.4,1-3.1,0.1-5.1c-4.1-9.9-10.1-25.1-10.1-25.3
						c0,0,0-0.1,0-0.1l-1.2-26.2c0-0.2,0.1-0.3,0.2-0.4c0.1-0.1,0.3-0.1,0.4,0c14.6,6.4,26.3,39.7,29.7,54.7
						c1.2,5.3-0.7,12.6-5.6,21.5c-3.6,6.6-7.7,11.8-7.7,11.9C367.7,263.6,367.6,263.7,367.4,263.7z"/>
				</g>
				<g>
					<path class="st2" d="M279.3,237.6c0,0-17.8-0.3-13.6-10.3c4.1-10,10.1-25.3,10.1-25.3l1.2-26.2c-14.4,6.4-26,39.2-29.4,54.4
						c-2.8,12.6,13.2,33,13.2,33"/>
					<path class="st3" d="M256.9,230.9c2.9-10.5,11-30.5,19.6-43.3l-0.7,14.5c0,0-6,15.3-10.1,25.3c-4.1,10,13.6,10.3,13.6,10.3
						l-15.1,25.7C260,256.1,254.4,240,256.9,230.9z"/>
					<path class="st4" d="M264.8,231.8c-0.2,0-0.4-0.1-0.6-0.2l-7.3-6.3c-0.4-0.3-0.4-0.9-0.1-1.3c0.3-0.4,0.9-0.4,1.3-0.1l7.3,6.3
						c0.4,0.3,0.4,0.9,0.1,1.3C265.3,231.7,265,231.8,264.8,231.8z"/>
					<path class="st4" d="M267.8,220.4c-0.2,0-0.5-0.1-0.6-0.2c-1.4-1.3-6.8-4.7-6.9-4.8c-0.4-0.3-0.6-0.8-0.3-1.3
						c0.3-0.4,0.8-0.6,1.3-0.3c0.2,0.1,5.6,3.5,7.2,5c0.4,0.3,0.4,0.9,0,1.3C268.2,220.3,268,220.4,267.8,220.4z"/>
					<path class="st4" d="M271.9,210c-0.2,0-0.4-0.1-0.6-0.2l-7.9-6.2c-0.4-0.3-0.5-0.9-0.2-1.3c0.3-0.4,0.9-0.5,1.3-0.2l7.9,6.2
						c0.4,0.3,0.5,0.9,0.2,1.3C272.4,209.8,272.2,210,271.9,210z"/>
					<path class="st0" d="M260.8,263.7c-0.1,0-0.3-0.1-0.4-0.2c0-0.1-4.1-5.2-7.7-11.9c-4.9-9-6.8-16.2-5.6-21.5
						c3.4-15.1,15.1-48.3,29.7-54.7c0.1-0.1,0.3,0,0.4,0c0.1,0.1,0.2,0.2,0.2,0.4l-1.2,26.2c0,0,0,0.1,0,0.1
						c-0.1,0.2-6,15.4-10.1,25.3c-0.8,2-0.8,3.7,0.1,5.1c2.8,4.3,13,4.6,13.1,4.6c0.3,0,0.5,0.2,0.4,0.5c0,0.3-0.2,0.4-0.5,0.4
						c-0.4,0-10.7-0.2-13.8-5c-1.1-1.7-1.2-3.7-0.2-6c4-9.5,9.6-24.1,10.1-25.2l1.2-25.4c-14,7-25.2,39.1-28.5,53.8
						c-2.7,12.2,12.9,32.4,13.1,32.6c0.2,0.2,0.1,0.5-0.1,0.6C261,263.6,260.9,263.7,260.8,263.7z"/>
				</g>
				<rect x="282.8" y="272.6" class="st17" width="55.8" height="27.5"/>
				<path class="st18" d="M277,184.6c-0.1,0-0.1,0-0.2-0.1c-0.1-0.1-0.2-0.2-0.2-0.4c0-0.2-1.9-25.3,0-63.9
					c1.9-39,34.5-42,34.9-42.1c0.1,0,0.2,0,0.3,0.1c0.1,0.1,0.1,0.2,0.2,0.3l2.1,29.4c0,0,0,0,0,0c0,0.3,0.6,34,0.6,35.8
					c0,0.2-0.1,0.4-0.3,0.5c-1.4,0.8-16.4-7.8-25.8-13.3v46.8c0,0.2-0.1,0.3-0.2,0.4l-11.1,6.3C277.2,184.6,277.1,184.6,277,184.6z
					 M311.1,79.2c-3.9,0.5-31.8,5.5-33.6,41.2c-1.7,34.9-0.3,58.7-0.1,63l10.2-5.8v-47.3c0-0.2,0.1-0.3,0.2-0.4
					c0.1-0.1,0.3-0.1,0.5,0c8.7,5.1,22.9,13.1,25.4,13.6c0-3.9-0.6-34.6-0.6-35.4L311.1,79.2z"/>
				<path class="st18" d="M350.7,184.6c-0.1,0-0.2,0-0.2-0.1l-11.1-6.3c-0.1-0.1-0.2-0.2-0.2-0.4v-46.8c-9.1,5.4-23.8,13.7-25.2,13
					c-0.2-0.1-0.3-0.3-0.3-0.5v-35.4c0,0,0,0,0,0l2.1-29.4c0-0.1,0.1-0.2,0.2-0.3c0.1-0.1,0.2-0.1,0.3-0.1c0.3,0,33,3.1,34.9,42.1
					c1.9,38.6,0,63.6,0,63.9c0,0.2-0.1,0.3-0.2,0.4C350.9,184.6,350.8,184.6,350.7,184.6z M340.1,177.6l10.2,5.8
					c0.3-4.4,1.7-28.1-0.1-63c-1.8-35.6-29.6-40.6-33.6-41.2l-2.1,28.9v35.1c2.4-0.5,16.2-8.3,24.8-13.3c0.1-0.1,0.3-0.1,0.5,0
					c0.1,0.1,0.2,0.2,0.2,0.4V177.6z"/>
				<path class="st19" d="M327.5,166.2c9.1,1,23.3,9.6,23.3,9.6L352,202l-7,47.8l-44.8,19.4l-17.5-19.4l-7-47.8l1.2-26.2
					c0,0,13-8.9,22.1-10"/>
				<path class="st17" d="M288.7,121.8c-0.3,0.7-0.5,1.5-0.8,2.2c0.9,4.2,12,7.5,25.7,7.5c13.6,0,24.8-3.3,25.7-7.5
					c-0.2-0.7-0.5-1.5-0.8-2.2C322.2,125.1,305.6,125,288.7,121.8z"/>
				<path class="st20" d="M345.9,173.1c-5-2.6-12.7-6.3-18.4-6.9l-28.4-0.3c-6.3,0.7-14.6,5.3-19,8c0.3,8.3,14.9,15.1,32.9,15.1
					c18.2,0,32.9-6.9,32.9-15.3C346,173.4,345.9,173.2,345.9,173.1z"/>
				<path class="st21" d="M300.2,269.7L282.4,250l0-0.1l-7-47.8l1.2-26.5l0.2-0.1c0.5-0.4,13.2-9,22.3-10.1l0.1,0.9
					c-8.3,0.9-20.1,8.7-21.7,9.8l-1.2,26l6.9,47.6l17.2,19l44.2-19.1l6.9-47.5l-1.2-25.9c-1.8-1.1-14.6-8.5-22.9-9.4l0.1-0.9
					c9.1,1,22.9,9.3,23.5,9.7l0.2,0.1l0,0.2l1.2,26.2l-7,48.1l-0.2,0.1L300.2,269.7z"/>
				<path class="st18" d="M341.1,101.9c-0.1,0-0.3-0.1-0.4-0.2c-5.2-6.3-11.5-9.6-15.9-11.3c-0.2-0.1-0.4-0.4-0.3-0.6
					c0.1-0.2,0.4-0.4,0.6-0.3c4.5,1.7,10.9,5.1,16.2,11.6c0.2,0.2,0.1,0.5-0.1,0.6C341.3,101.9,341.2,101.9,341.1,101.9z"/>
				<path class="st2" d="M288.2,124.6c-1.6,4.1-2.6,8.7-2.6,13.5c0,11.7,5.4,22,13.5,27.7c2.1,1.5,4.4,2.6,6.8,3.4
					c2.4,0.8,5,1.2,7.7,1.2c15.4,0,27.9-14.5,27.9-32.4c0-4.8-0.9-9.4-2.6-13.5C322.4,128,305.5,127.9,288.2,124.6z"/>
				<path class="st3" d="M285.7,135.5c4.4,4.9,15.2,8.4,27.8,8.4c12.7,0,23.5-3.5,27.9-8.5c-0.3-3.8-1.1-7.5-2.5-10.8
					c-16.5,3.4-33.4,3.3-50.8,0C286.8,127.9,286,131.6,285.7,135.5z"/>
				<g>
					<path class="st3" d="M292.9,159.8c1.8,2.3,3.9,4.3,6.2,6c2.1,1.5,4.4,2.6,6.8,3.4c2.4,0.8,5,1.2,7.7,1.2
						c8.2,0,15.6-4.1,20.8-10.7c-5.4,2.3-13.2,6-21.3,6C305,165.8,298.3,162.1,292.9,159.8z"/>
				</g>
				<path class="st0" d="M313.6,170.9c-2.7,0-5.3-0.4-7.8-1.3c-2.4-0.8-4.7-2-6.9-3.5c-8.6-6-13.7-16.5-13.7-28.1
					c0-4.8,0.9-9.4,2.6-13.7c0.1-0.2,0.3-0.3,0.5-0.3c17.4,3.3,34.4,3.3,50.6,0c0.2,0,0.4,0.1,0.5,0.3c1.7,4.3,2.6,8.9,2.6,13.7
					C342,156.2,329.2,170.9,313.6,170.9z M288.5,125.1c-1.6,4.1-2.4,8.5-2.4,13c0,11.3,5,21.5,13.3,27.3c2.1,1.5,4.3,2.6,6.7,3.4
					c2.4,0.8,5,1.2,7.5,1.2c15.2,0,27.5-14.3,27.5-31.9c0-4.5-0.8-8.9-2.4-13C322.6,128.3,305.7,128.3,288.5,125.1z"/>
				<path class="st0" d="M313.6,170.9c-2.7,0-5.3-0.4-7.8-1.3c-2.4-0.8-4.7-2-6.9-3.5c-8.6-6-13.7-16.5-13.7-28.1
					c0-4.8,0.9-9.4,2.6-13.7c0.1-0.2,0.3-0.3,0.5-0.3c17.4,3.3,34.4,3.3,50.6,0c0.2,0,0.4,0.1,0.5,0.3c1.7,4.3,2.6,8.9,2.6,13.7
					C342,156.2,329.2,170.9,313.6,170.9z M288.5,125.1c-1.6,4.1-2.4,8.5-2.4,13c0,11.3,5,21.5,13.3,27.3c2.1,1.5,4.3,2.6,6.7,3.4
					c2.4,0.8,5,1.2,7.5,1.2c15.2,0,27.5-14.3,27.5-31.9c0-4.5-0.8-8.9-2.4-13C322.6,128.3,305.7,128.3,288.5,125.1z"/>
				<path class="st22" d="M302.1,182.1"/>
				<path class="st0" d="M314.2,165c-5.1,0-8-5-8-5.1c-0.1-0.2,0-0.5,0.2-0.6c0.2-0.1,0.5,0,0.6,0.2c0.1,0.2,3.4,5.9,9.3,4.3
					c0.2-0.1,0.5,0.1,0.6,0.3c0.1,0.2-0.1,0.5-0.3,0.6C315.7,164.9,314.9,165,314.2,165z"/>
				<g>
					<polygon class="st6" points="313,150.8 314.1,153.2 315.1,155.5 313,155.5 311,155.5 312,153.2 					"/>
					<path class="st7" d="M315.1,156H311c-0.2,0-0.3-0.1-0.4-0.2c-0.1-0.1-0.1-0.3,0-0.4l2-4.8c0.1-0.2,0.2-0.3,0.4-0.3l0,0
						c0.2,0,0.3,0.1,0.4,0.3l2,4.8c0.1,0.1,0,0.3,0,0.4C315.4,155.9,315.2,156,315.1,156z M311.7,155.1h2.7l-1.3-3.1L311.7,155.1z"
						/>
				</g>
				<path class="st0" d="M302.7,151.2c-0.4,0-0.7-0.1-1-0.3c-0.6-0.3-0.9-0.9-0.9-1.6v-4.8c-0.9,0.1-3.1,0.1-4.4-0.9
					c-0.2-0.1-0.3-0.4-0.1-0.6c0.1-0.2,0.4-0.2,0.6-0.1c1.4,1,4.2,0.6,4.2,0.6l1.6,0c1.1,0,1.8,0.6,1.8,1.3v4.5
					c0,0.7-0.3,1.2-0.9,1.6C303.4,151.1,303.1,151.2,302.7,151.2z M301.7,144.5v4.9c0,0.4,0.2,0.7,0.4,0.8c0.3,0.2,0.8,0.2,1.1,0
					c0.3-0.2,0.4-0.4,0.4-0.8v-4.5c0-0.1-0.3-0.4-0.9-0.4L301.7,144.5z"/>
				<path class="st0" d="M324.9,151.2c-0.4,0-0.7-0.1-1-0.3c-0.6-0.3-0.9-0.9-0.9-1.6v-4.8c-0.9,0.1-3.1,0.1-4.4-0.9
					c-0.2-0.1-0.3-0.4-0.1-0.6c0.1-0.2,0.4-0.2,0.6-0.1c1.4,1,4.2,0.6,4.2,0.6l1.6,0c1.1,0,1.8,0.6,1.8,1.3v4.5
					c0,0.7-0.3,1.2-0.9,1.6C325.6,151.1,325.2,151.2,324.9,151.2z M323.9,144.5v4.9c0,0.4,0.2,0.7,0.4,0.8c0.3,0.2,0.8,0.2,1.1,0
					c0.3-0.2,0.4-0.4,0.4-0.8v-4.5c0-0.1-0.3-0.4-0.9-0.4L323.9,144.5z"/>
				<path class="st0" d="M296.6,143.3c1.5,1.1,4.5,0.7,4.5,0.7l1.5,0c0.8,0,1.4,0.4,1.4,0.8v4.5c0,1.8-2.9,1.8-2.9,0v-5.1"/>
				<path class="st0" d="M318.8,143.3c1.5,1.1,4.5,0.7,4.5,0.7l1.5,0c0.8,0,1.4,0.4,1.4,0.8v4.5c0,1.8-2.9,1.8-2.9,0l0-5.1"/>
				<path class="st0" d="M293.2,138.8c-0.1,0-0.3-0.1-0.4-0.2c-0.1-0.2-0.1-0.5,0.1-0.6c2-1.4,8.9-2,9.2-2c0.2,0,0.5,0.2,0.5,0.4
					c0,0.3-0.2,0.5-0.4,0.5c-1.9,0.2-7.3,0.8-8.7,1.8C293.4,138.8,293.3,138.8,293.2,138.8z"/>
				<path class="st0" d="M332,138.8c-0.1,0-0.2,0-0.3-0.1c-1.5-1-6.8-1.7-8.7-1.8c-0.3,0-0.4-0.2-0.4-0.5c0-0.3,0.2-0.4,0.5-0.4
					c0.3,0,7.2,0.6,9.2,2c0.2,0.1,0.3,0.4,0.1,0.6C332.3,138.7,332.1,138.8,332,138.8z"/>
				<g>
					<line class="st2" x1="361" y1="224.5" x2="364.9" y2="218.7"/>
					<rect x="359.4" y="221.2" transform="matrix(0.557 -0.8305 0.8305 0.557 -23.2514 399.6309)" width="7" height="0.9"/>
				</g>
				<g>
					<line class="st2" x1="264" y1="230.2" x2="257.5" y2="224.5"/>
					<rect x="260.3" y="223" transform="matrix(0.6566 -0.7543 0.7543 0.6566 -81.9481 274.7589)" width="0.9" height="8.6"/>
				</g>
				<path class="st10" d="M354.8,287.5h-86.4c-2.7,0-4.9-2-5.3-4.6l-8.9-60.4c-0.4-2.9,1.6-5.7,4.5-6.1c0.3,0,0.5-0.1,0.8-0.1h104.1
					c3,0,5.4,2.4,5.4,5.4c0,0.3,0,0.5-0.1,0.8l-8.9,60.4C359.8,285.5,357.5,287.4,354.8,287.5z"/>
				<path class="st17" d="M354.9,287.9C354.8,287.9,354.8,287.9,354.9,287.9h-86.4c-2.9,0-5.3-2.1-5.8-5l-8.9-60.4
					c-0.5-3.2,1.7-6.1,4.9-6.6c0.3,0,0.6-0.1,0.8-0.1h104.1c3.2,0,5.8,2.6,5.8,5.8c0,0.3,0,0.6-0.1,0.8l-8.9,60.4
					C360.2,285.8,357.8,287.9,354.9,287.9z M259.6,216.8c-0.2,0-0.5,0-0.7,0.1c-2.7,0.4-4.5,2.9-4.1,5.6l8.9,60.4
					c0.4,2.4,2.4,4.2,4.8,4.2h86.4h0c2.4,0,4.5-1.8,4.8-4.2l8.9-60.4c0-0.2,0.1-0.5,0.1-0.7c0-2.7-2.2-4.9-4.9-4.9H259.6z"/>
				<g>
					<path class="st2" d="M285,299.3L255,289.2c-15.9,2.7-17.8,12.4-9.5,27.1l42.8,2.3"/>
					<path class="st2" d="M378,252.5c15.4-1,17.5,7.1,13.8,19.4c0,0-61.5,42.3-73.1,45.7c-11.6,3.4-30.5,1.1-30.5,1.1l-3.2-19.3
						c0,0,14,1.5,25.2-2S378,252.5,378,252.5z"/>
					<path class="st3" d="M264.8,298l23.2,13.3c0,0,10.8-6.4,22.4-9.7c11.6-3.4,82.2-40.8,82.5-42.6c1,3.3,0.5,7.8-1.1,12.9
						c0,0-61.5,42.3-73.1,45.7c-11.6,3.4-30.5,1.1-30.5,1.1l-42.8-2.3c-3.9-7-5.5-12.9-4.5-17.4c0.7-4.4,5.2-7.7,11.2-8.8
						C257.4,289.2,263.8,296.3,264.8,298z"/>
					<path class="st0" d="M288.2,319.1C288.2,319.1,288.2,319.1,288.2,319.1l-42.8-2.3c-0.2,0-0.3-0.1-0.4-0.2
						c-4.7-8.5-6-15.2-3.7-19.9c1.9-4.1,6.5-6.7,13.6-7.9c0.1,0,0.2,0,0.2,0l30.1,10.1c0.2,0.1,0.4,0.3,0.3,0.6
						c-0.1,0.2-0.3,0.4-0.6,0.3l-30-10.1c-6.7,1.2-11,3.6-12.8,7.4c-2.1,4.4-0.9,10.7,3.6,18.8l42.5,2.3c0.3,0,0.4,0.2,0.4,0.5
						C288.7,318.9,288.5,319.1,288.2,319.1z"/>
					<g>
						<path class="st4" d="M384.5,277.2c-0.1,0-0.2,0-0.3-0.1c-0.5-0.2-0.7-0.7-0.5-1.2c1.9-5.3,1.8-9.5-0.2-12.6
							c-3.3-5-10.5-5.5-10.6-5.5c-0.5,0-0.9-0.5-0.8-1c0-0.5,0.5-0.9,1-0.8c0.3,0,8.2,0.6,12,6.4c2.4,3.6,2.5,8.4,0.4,14.2
							C385.2,277,384.8,277.2,384.5,277.2z"/>
						<path class="st4" d="M369,287.5c-0.1,0-0.2,0-0.3-0.1c-0.5-0.2-0.7-0.7-0.5-1.2c1.9-5.2,1.8-9.4-0.2-12.4
							c-3.3-4.8-10.6-5.1-10.7-5.1c-0.5,0-0.9-0.4-0.9-0.9c0-0.5,0.5-0.9,0.9-0.9c0.3,0,8.3,0.3,12.1,5.9c2.4,3.5,2.5,8.2,0.4,14
							C369.7,287.3,369.4,287.5,369,287.5z"/>
						<path class="st4" d="M348.4,300.9c-0.1,0-0.2,0-0.3-0.1c-0.5-0.2-0.7-0.7-0.5-1.2c2-5.5,2-9.8-0.1-12.8
							c-2.9-4.3-9.2-4.6-9.3-4.6c-0.5,0-0.9-0.4-0.9-0.9c0-0.5,0.4-0.9,0.9-0.9c0,0,0,0,0,0c0.3,0,7.2,0.3,10.7,5.4
							c2.4,3.5,2.5,8.4,0.3,14.5C349.2,300.7,348.8,300.9,348.4,300.9z"/>
						<path class="st4" d="M328.4,313.2c-0.1,0-0.2,0-0.3-0.1c-0.5-0.2-0.7-0.7-0.5-1.2c2-5.4,1.9-9.6-0.1-12.5
							c-3-4.3-9.5-4.3-9.6-4.3c0,0,0,0,0,0c-0.5,0-0.9-0.4-0.9-0.9c0-0.5,0.4-0.9,0.9-0.9c0.3,0,7.5,0,11.1,5.1
							c2.4,3.4,2.5,8.2,0.3,14.2C329.1,312.9,328.8,313.2,328.4,313.2z"/>
						<path class="st4" d="M307.4,319.6c-0.2,0-0.3,0-0.5-0.1c-0.4-0.3-0.6-0.8-0.3-1.2c2.7-4.7,3.5-8.8,2.2-12.1
							c-1.6-4.2-6-5.7-6.1-5.7c-0.5-0.2-0.7-0.7-0.6-1.2c0.2-0.5,0.7-0.7,1.1-0.6c0.2,0.1,5.3,1.8,7.2,6.8c1.5,3.8,0.7,8.4-2.4,13.7
							C308,319.4,307.7,319.6,307.4,319.6z"/>
					</g>
					<path class="st0" d="M302,319.8c-7.5,0-13.7-0.7-13.8-0.7c-0.1,0-0.3-0.1-0.3-0.2s-0.1-0.2-0.1-0.4c2-7.1,1-13.3-3.1-18.9
						c-0.1-0.1-0.1-0.3,0-0.5c0.1-0.2,0.3-0.2,0.4-0.2c0.1,0,14,1.5,25-2c11-3.5,67.1-44.4,67.6-44.8c0.1-0.1,0.2-0.1,0.2-0.1
						c6.8-0.4,11.3,0.8,13.8,4c2.6,3.3,2.7,8.6,0.4,16.1c0,0.1-0.1,0.2-0.2,0.2c-2.5,1.7-61.7,42.4-73.2,45.7
						C313.9,319.4,307.6,319.8,302,319.8z M288.8,318.2c3.1,0.3,19.5,1.9,29.8-1.1c11.1-3.2,69.6-43.3,72.8-45.5
						c2.2-7.1,2.1-12.1-0.3-15.1c-2.2-2.8-6.5-4-12.9-3.6c-3.5,2.6-56.8,41.3-67.8,44.8c-9.4,3-21,2.4-24.4,2.1
						C289.6,305.3,290.5,311.5,288.8,318.2z"/>
				</g>
				<g>
					<path class="st2" d="M333.1,297.2l29.7-11.2c16,2.1,18.2,11.7,10.5,26.8l-42.7,3.8"/>
					<path class="st2" d="M238.6,253.6c-15.4-0.5-17.3,7.8-13.1,19.9c0,0,62.9,40.1,74.6,43.1c11.7,2.9,30.5,0,30.5,0l2.5-19.4
						c0,0-13.9,2-25.2-1.1C296.6,292.9,238.6,253.6,238.6,253.6z"/>
					<path class="st3" d="M373.3,305.5l-42.7,3.8c0,0-18.8,2.9-30.5,0c-11.7-2.9-74.6-43.1-74.6-43.1c-0.7-2-1.2-3.8-1.5-5.5
						c-0.9,3.4-0.2,7.8,1.5,12.9c0,0,62.9,40.1,74.6,43.1c11.7,2.9,30.5,0,30.5,0l42.7-3.8c3.7-7.1,5.1-13.1,3.8-17.5
						C376.5,298.3,375.2,301.7,373.3,305.5z"/>
					<path class="st0" d="M330.7,317.1c-0.2,0-0.4-0.2-0.5-0.4c0-0.3,0.2-0.5,0.4-0.5l42.4-3.8c4.2-8.3,5.2-14.7,2.9-19
						c-1.9-3.7-6.3-6-13.1-6.9l-29.6,11.1c-0.2,0.1-0.5,0-0.6-0.3c-0.1-0.2,0-0.5,0.3-0.6l29.7-11.2c0.1,0,0.1,0,0.2,0
						c7.1,0.9,11.8,3.4,13.9,7.4c2.4,4.6,1.4,11.4-3,20c-0.1,0.1-0.2,0.2-0.4,0.2L330.7,317.1C330.7,317.1,330.7,317.1,330.7,317.1z
						"/>
					<g>
						<path class="st4" d="M233,278.6c-0.4,0-0.7-0.2-0.8-0.6c-2.3-5.7-2.3-10.5-0.1-14.2c3.5-5.9,11.4-6.8,11.8-6.8
							c0.5,0,0.9,0.3,1,0.8c0.1,0.5-0.3,0.9-0.8,1c-0.1,0-7.3,0.8-10.4,5.9c-1.9,3.2-1.8,7.4,0.2,12.6c0.2,0.5,0,1-0.5,1.2
							C233.2,278.6,233.1,278.6,233,278.6z"/>
						<path class="st4" d="M248.8,288.4c-0.4,0-0.7-0.2-0.8-0.6c-2.3-5.7-2.3-10.4-0.1-14c3.6-5.7,11.6-6.3,11.9-6.3
							c0.5,0,0.9,0.3,1,0.9c0,0.5-0.3,0.9-0.8,1c-0.1,0-7.4,0.5-10.5,5.4c-1.9,3-1.8,7.2,0.2,12.4c0.2,0.5,0,1-0.5,1.2
							C249,288.4,248.9,288.4,248.8,288.4z"/>
						<path class="st4" d="M269.8,301c-0.4,0-0.7-0.2-0.8-0.6c-2.4-6-2.5-10.9-0.2-14.5c3.3-5.2,10.2-5.7,10.5-5.7
							c0.5,0,0.9,0.3,1,0.8c0,0.5-0.3,0.9-0.8,1c-0.1,0-6.3,0.5-9.1,4.9c-1.9,3.1-1.8,7.4,0.4,12.8c0.2,0.5,0,1-0.5,1.2
							C270,301,269.9,301,269.8,301z"/>
						<path class="st4" d="M290.2,312.6c-0.4,0-0.7-0.2-0.8-0.6c-2.4-5.9-2.4-10.7-0.2-14.2c3.4-5.2,10.6-5.4,10.9-5.5
							c0.5,0,0.9,0.4,0.9,0.9c0,0.5-0.4,0.9-0.9,0.9c-0.1,0-6.6,0.3-9.4,4.6c-1.9,3-1.8,7.2,0.3,12.5c0.2,0.5,0,1-0.5,1.2
							C290.5,312.5,290.4,312.6,290.2,312.6z"/>
						<path class="st4" d="M311.5,318.2c-0.3,0-0.6-0.2-0.8-0.4c-3.2-5.1-4.2-9.7-2.8-13.6c1.7-5.1,6.7-6.9,6.9-7
							c0.5-0.2,1,0.1,1.2,0.5c0.2,0.5-0.1,1-0.5,1.2l0,0c0,0-4.4,1.7-5.8,5.9c-1.1,3.3-0.2,7.4,2.7,12c0.3,0.4,0.1,1-0.3,1.3
							C311.8,318.2,311.6,318.2,311.5,318.2z"/>
					</g>
					<path class="st0" d="M313.2,318.4c-4.6,0-9.3-0.3-13.2-1.3c-11.6-2.9-72.2-41.5-74.8-43.1c-0.1-0.1-0.2-0.1-0.2-0.2
						c-2.6-7.4-2.6-12.7-0.1-16.1c2.3-3.2,6.8-4.6,13.7-4.4c0.1,0,0.2,0,0.2,0.1c0.6,0.4,58.1,39.3,69.2,42.3
						c11.1,3.1,24.9,1.1,25.1,1.1c0.2,0,0.4,0.1,0.5,0.2c0.1,0.2,0.1,0.3,0,0.5c-3.9,5.7-4.7,11.9-2.4,19c0,0.1,0,0.3,0,0.4
						c-0.1,0.1-0.2,0.2-0.3,0.2C330.6,317.1,322.3,318.4,313.2,318.4z M225.9,273.3c3.3,2.1,63.1,40.1,74.4,42.9
						c10.4,2.6,26.7,0.5,29.8,0.1c-2-6.7-1.3-12.9,2.2-18.5c-3.4,0.4-14.9,1.4-24.5-1.3c-11.1-3.1-65.7-40-69.3-42.4
						c-6.4-0.2-10.7,1.2-12.8,4.1C223.4,261.3,223.5,266.2,225.9,273.3z"/>
				</g>
				<g>
					<g>
						<g>
							<path class="st2" d="M314.8,260.9l0.2-5.7h-6.7l0.2,5.7h-3.9l-0.9-11.6c-0.4-5.4,2.4-8.7,8-8.7c5.7,0,8.5,3.3,8,8.7l-1,11.6
								H314.8z M315.3,249.3c0.1-2.7-1-4.2-3.6-4.2c-2.6,0-3.7,1.4-3.6,4.2l0.1,1.6h7L315.3,249.3z"/>
							<path class="st17" d="M318.8,261.3h-4c-0.2,0-0.4-0.2-0.4-0.5l0.2-5.2h-5.9l0.1,5.2c0,0.3-0.2,0.5-0.4,0.5h-3.9
								c-0.2,0-0.4-0.2-0.4-0.5l-0.9-11.6c-0.5-5.8,2.7-9.2,8.5-9.2c5.8,0,9,3.4,8.4,9.2l-1,11.6C319.1,261.1,319,261.3,318.8,261.3
								z M315.2,260.4h3.3l0.9-11.1c0.4-5.3-2.4-8.3-7.6-8.3c-5.2,0-8,3-7.6,8.3l0.8,11.1h3.2l-0.2-5.2c0-0.3,0.2-0.5,0.4-0.5h6.8
								c0.2,0,0.4,0.2,0.4,0.5L315.2,260.4z M315.2,251.4h-7c-0.2,0-0.4-0.2-0.4-0.5l-0.1-1.6c-0.1-3.1,1.2-4.6,4-4.6
								c2.8,0,4.1,1.6,4,4.6l-0.1,1.6C315.6,251.2,315.4,251.4,315.2,251.4z M308.6,250.5h6.2l0-1.2c0.1-2.6-0.9-3.7-3.1-3.7
								c-2.3,0-3.2,1.1-3.2,3.7L308.6,250.5z"/>
						</g>
					</g>
				</g>
			</g>
			<circle class="st17" cx="323" cy="88.9" r="2.3"/>
			<path class="st18" d="M323,91.6c-1.5,0-2.7-1.2-2.7-2.7c0-1.5,1.2-2.7,2.7-2.7c1.5,0,2.7,1.2,2.7,2.7
				C325.8,90.4,324.5,91.6,323,91.6z M323,87.1c-1,0-1.8,0.8-1.8,1.8c0,1,0.8,1.8,1.8,1.8c1,0,1.8-0.8,1.8-1.8
				C324.8,87.9,324,87.1,323,87.1z"/>
			<g>
				<g>
					<line class="st2" x1="299.3" y1="211.8" x2="328.5" y2="211.8"/>
					<rect x="299.3" y="211.3" class="st21" width="29.2" height="0.9"/>
				</g>
				<circle class="st20" cx="330.3" cy="211.5" r="1.8"/>
				<circle class="st20" cx="297.5" cy="211.5" r="1.8"/>
				<path class="st21" d="M330.3,213.7c-1.2,0-2.2-1-2.2-2.2s1-2.2,2.2-2.2c1.2,0,2.2,1,2.2,2.2S331.5,213.7,330.3,213.7z
					 M330.3,210.2c-0.7,0-1.3,0.6-1.3,1.3s0.6,1.3,1.3,1.3s1.3-0.6,1.3-1.3S331,210.2,330.3,210.2z"/>
				<path class="st21" d="M297.5,213.7c-1.2,0-2.2-1-2.2-2.2s1-2.2,2.2-2.2c1.2,0,2.2,1,2.2,2.2S298.8,213.7,297.5,213.7z
					 M297.5,210.2c-0.7,0-1.3,0.6-1.3,1.3s0.6,1.3,1.3,1.3c0.7,0,1.3-0.6,1.3-1.3S298.3,210.2,297.5,210.2z"/>
			</g>
		</g>
	</g>
	<g>
		<g>
			<polyline class="st3" points="341.6,136.7 353.4,137.5 353.4,136.3 341.6,135.5 			"/>
			<path class="st0" d="M354.2,138C354.2,138,354.2,138,354.2,138l-12.6-0.8c-0.3,0-0.4-0.2-0.4-0.5c0-0.3,0.2-0.4,0.5-0.4l12.1,0.7
				l0.1-0.3l-12.3-0.8c-0.3,0-0.4-0.2-0.4-0.5c0-0.3,0.2-0.4,0.5-0.4l12.8,0.8c0.1,0,0.3,0.1,0.3,0.2c0.1,0.1,0.1,0.2,0.1,0.4
				l-0.2,1.2C354.6,137.8,354.4,138,354.2,138z"/>
		</g>
		<circle class="st6" cx="356.6" cy="137.4" r="3.2"/>
	</g>
	<g>
		<g>
			<polyline class="st3" points="285.2,136.7 273.4,137.5 273.4,136.3 285.2,135.5 			"/>
			<path class="st0" d="M272.6,138c-0.2,0-0.4-0.2-0.4-0.4l-0.2-1.2c0-0.1,0-0.3,0.1-0.4s0.2-0.2,0.3-0.2l12.8-0.8
				c0.2,0,0.5,0.2,0.5,0.4c0,0.3-0.2,0.5-0.4,0.5l-12.3,0.8l0.1,0.3l12.1-0.7c0.2,0,0.5,0.2,0.5,0.4c0,0.3-0.2,0.5-0.4,0.5
				L272.6,138C272.6,138,272.6,138,272.6,138z"/>
		</g>
		<g>
			<circle class="st6" cx="270.2" cy="137.4" r="3.2"/>
			<path class="st7" d="M270.2,141c-2,0-3.6-1.6-3.6-3.6c0-2,1.6-3.6,3.6-3.6c2,0,3.6,1.6,3.6,3.6C273.8,139.4,272.2,141,270.2,141z
				 M270.2,134.7c-1.5,0-2.7,1.2-2.7,2.7c0,1.5,1.2,2.7,2.7,2.7c1.5,0,2.7-1.2,2.7-2.7C272.9,135.9,271.7,134.7,270.2,134.7z"/>
		</g>
	</g>
	<path class="st7" d="M356.6,141c-2,0-3.6-1.6-3.6-3.6c0-2,1.6-3.6,3.6-3.6c2,0,3.6,1.6,3.6,3.6C360.2,139.4,358.6,141,356.6,141z
		 M356.6,134.7c-1.5,0-2.7,1.2-2.7,2.7c0,1.5,1.2,2.7,2.7,2.7c1.5,0,2.7-1.2,2.7-2.7C359.3,135.9,358.1,134.7,356.6,134.7z"/>
</g>
<title>home-illustration-benefits-hero</title>
</svg>
