<?xml version="1.0" encoding="utf-8"?>
<!-- Generator: Adobe Illustrator 20.1.0, SVG Export Plug-In . SVG Version: 6.00 Build 0)  -->
<svg version="1.1" id="Layer_1" xmlns="http://www.w3.org/2000/svg" xmlns:xlink="http://www.w3.org/1999/xlink" x="0px" y="0px"
	 viewBox="0 0 739.2 700.8" style="enable-background:new 0 0 739.2 700.8;" xml:space="preserve">
<style type="text/css">
	.st0{opacity:0.5;fill-rule:evenodd;clip-rule:evenodd;fill:#A9D7F3;enable-background:new    ;}
	.st1{fill:#FFFFFF;}
	.st2{fill:#E7F1F8;}
	.st3{fill:#D0E4F0;}
	.st4{fill:#A1C2D8;}
	.st5{opacity:0.7;fill:#FFFFFF;}
	.st6{fill:#C3D4E0;}
	.st7{fill:#40565B;}
	.st8{fill:#F36F42;}
	.st9{fill:#D65129;}
	.st10{fill:#C84A27;}
	.st11{opacity:0.2;enable-background:new    ;}
	.st12{fill:#1785C8;}
	.st13{fill:#3AA1D6;}
	.st14{fill:#164A67;}
	.st15{fill:none;stroke:#40565B;stroke-linecap:round;stroke-linejoin:round;}
	.st16{fill:#FFDC64;}
	.st17{fill:#FAAC30;}
	.st18{fill:#F26F42;}
	.st19{fill:#FBAD31;}
</style>
<g>
	<path class="st0" d="M343,127c-46.5,0-267.1-12.6-223.9,34.1s128.1,45.3,118.6,84c-9.5,38.7-254.7-7.7-227.1,73.1
		s120.1,84.6,108.5,121.6S11,609,158.5,602s472.4,68.6,472.1,0c-0.2-68.6-114.7-35-105.3-62.3c9.4-27.3,154.4,10.2,153-69.1
		c-1.5-79.2-83.3-90-158.2-116.7c-74.8-26.7,197.8-72.5,129-160.3S389.5,127,343,127z"/>
	<g>
		<g>
			<rect x="205.1" y="94.7" class="st1" width="69.2" height="82.3"/>
			<path class="st2" d="M198.5,88.2v95.4h82.4V88.2H198.5z M274.3,177h-69.2V94.7h69.2V177z"/>
			<path class="st3" d="M198.5,88.2v95.4h82.4l-6.6-6.6h-69.2V94.7"/>
			<path class="st4" d="M274.3,177.5h-69.2c-0.3,0-0.5-0.2-0.5-0.5V94.7c0-0.3,0.2-0.5,0.5-0.5h69.2c0.3,0,0.5,0.2,0.5,0.5V177
				C274.7,177.3,274.5,177.5,274.3,177.5z M205.5,176.5h68.2V95.2h-68.2V176.5z"/>
			<path class="st4" d="M280.8,184.1h-82.4c-0.3,0-0.5-0.2-0.5-0.5V88.2c0-0.3,0.2-0.5,0.5-0.5h82.4c0.3,0,0.5,0.2,0.5,0.5v95.4
				C281.3,183.9,281.1,184.1,280.8,184.1z M199,183.1h81.4V88.6H199V183.1z"/>
			<g>
				<path class="st2" d="M240,162.8h-24.4l9.9-20c0.9-1.8,3.5-1.8,4.4,0L240,162.8z"/>
				<path class="st2" d="M240,162.8h-24.4l9.9-20c0.9-1.8,3.5-1.8,4.4,0L240,162.8z"/>
				<circle class="st2" cx="233.4" cy="124.2" r="4.6"/>
				<path class="st2" d="M263.6,162.8h-35.9l18.7-37.1c0.9-1.7,3.3-1.8,4.3-0.2l13,20.6L263.6,162.8z"/>
				<path class="st2" d="M263.6,162.8h-35.9l18.7-37.1c0.9-1.7,3.3-1.8,4.3-0.2l13,20.6L263.6,162.8z"/>
			</g>
			<g>
				<path class="st4" d="M227.7,163.3h-12.1c-0.2,0-0.3-0.1-0.4-0.2c-0.1-0.1-0.1-0.3,0-0.5l9.9-20c0.5-1,1.5-1.6,2.6-1.6
					c0,0,0,0,0,0c1.1,0,2.1,0.6,2.6,1.6l3.9,7.8c0.1,0.2,0,0.5-0.2,0.6c-0.2,0.1-0.5,0-0.6-0.2l-3.9-7.8c-0.3-0.7-1-1.1-1.8-1.1
					c0,0,0,0,0,0c-0.8,0-1.4,0.4-1.8,1.1l-9.6,19.3h11.4c0.3,0,0.5,0.2,0.5,0.5S228,163.3,227.7,163.3z"/>
				<path class="st4" d="M233.4,129.4c-2.8,0-5.1-2.3-5.1-5.1c0-2.8,2.3-5.1,5.1-5.1c2.8,0,5.1,2.3,5.1,5.1
					C238.5,127.1,236.2,129.4,233.4,129.4z M233.4,120.1c-2.3,0-4.1,1.9-4.1,4.1c0,2.3,1.9,4.1,4.1,4.1c2.3,0,4.1-1.9,4.1-4.1
					C237.5,122,235.7,120.1,233.4,120.1z"/>
				<path class="st4" d="M263.6,163.3h-35.9c-0.2,0-0.3-0.1-0.4-0.2c-0.1-0.1-0.1-0.3,0-0.5l18.7-37.1c0.5-1,1.4-1.6,2.5-1.6
					c1.1,0,2.1,0.5,2.6,1.4l13,20.6c0,0.1,0.1,0.2,0.1,0.3l-0.1,16.7C264.1,163.1,263.9,163.3,263.6,163.3z M228.5,162.3h34.6
					l0.1-16l-12.9-20.5c-0.4-0.6-1.1-1-1.8-0.9c-0.7,0-1.3,0.4-1.7,1.1L228.5,162.3z"/>
				<path class="st4" d="M263.6,163.3h-35.9c-0.2,0-0.3-0.1-0.4-0.2c-0.1-0.1-0.1-0.3,0-0.5l18.7-37.1c0.5-1,1.4-1.6,2.5-1.6
					c1.1,0,2.1,0.5,2.6,1.4l13,20.6c0,0.1,0.1,0.2,0.1,0.3l-0.1,16.7C264.1,163.1,263.9,163.3,263.6,163.3z M228.5,162.3h34.6
					l0.1-16l-12.9-20.5c-0.4-0.6-1.1-1-1.8-0.9c-0.7,0-1.3,0.4-1.7,1.1L228.5,162.3z"/>
			</g>
			<path class="st4" d="M274.3,95.2c-0.1,0-0.2,0-0.3-0.1c-0.2-0.2-0.2-0.5,0-0.7l6.6-6.6c0.2-0.2,0.5-0.2,0.7,0
				c0.2,0.2,0.2,0.5,0,0.7l-6.6,6.6C274.5,95.2,274.4,95.2,274.3,95.2z"/>
			<path class="st4" d="M198.5,184.1c-0.1,0-0.2,0-0.3-0.1c-0.2-0.2-0.2-0.5,0-0.7l6.6-6.6c0.2-0.2,0.5-0.2,0.7,0
				c0.2,0.2,0.2,0.5,0,0.7l-6.6,6.6C198.7,184,198.6,184.1,198.5,184.1z"/>
			<path class="st4" d="M205.1,95.2c-0.1,0-0.2,0-0.3-0.1l-6.6-6.6c-0.2-0.2-0.2-0.5,0-0.7c0.2-0.2,0.5-0.2,0.7,0l6.6,6.6
				c0.2,0.2,0.2,0.5,0,0.7C205.3,95.2,205.2,95.2,205.1,95.2z"/>
			<path class="st4" d="M280.8,184.1c-0.1,0-0.2,0-0.3-0.1l-6.6-6.6c-0.2-0.2-0.2-0.5,0-0.7c0.2-0.2,0.5-0.2,0.7,0l6.6,6.6
				c0.2,0.2,0.2,0.5,0,0.7C281.1,184,281,184.1,280.8,184.1z"/>
		</g>
		<g>
			<path class="st1" d="M390.8,449.9l-45,7.5c-1.2,0.2-2.2-0.6-2.4-1.7l-10-60.2c-0.2-1.2,0.6-2.2,1.7-2.4l45-7.5
				c1.2-0.2,2.2,0.6,2.4,1.7l10,60.2C392.7,448.6,391.9,449.7,390.8,449.9z"/>
			<path class="st4" d="M345.5,457.9c-0.5,0-1.1-0.2-1.5-0.5c-0.6-0.4-0.9-1-1.1-1.7l-10-60.2c-0.1-0.7,0-1.4,0.4-1.9
				c0.4-0.6,1-0.9,1.7-1.1l45-7.5c0.7-0.1,1.4,0,1.9,0.4c0.6,0.4,0.9,1,1.1,1.7l10,60.2c0.2,1.4-0.7,2.8-2.1,3h0l-45,7.5
				C345.8,457.9,345.6,457.9,345.5,457.9z M380.4,386c-0.1,0-0.2,0-0.3,0l-45,7.5c-0.4,0.1-0.8,0.3-1.1,0.7
				c-0.3,0.4-0.4,0.8-0.3,1.2l10,60.2c0.1,0.4,0.3,0.8,0.7,1.1c0.4,0.3,0.8,0.4,1.2,0.3l45-7.5c0.9-0.1,1.5-1,1.3-1.9l-10-60.2
				c-0.1-0.4-0.3-0.8-0.7-1.1C381.1,386.1,380.7,386,380.4,386z M390.8,449.9L390.8,449.9L390.8,449.9z"/>
			<path class="st4" d="M345,405.2c-0.2,0-0.4-0.2-0.5-0.4c0-0.3,0.1-0.5,0.4-0.6l29.4-4.9c0.3,0,0.5,0.1,0.6,0.4
				c0,0.3-0.1,0.5-0.4,0.6L345,405.2C345.1,405.2,345.1,405.2,345,405.2z"/>
			<path class="st4" d="M346.2,411.9c-0.2,0-0.4-0.2-0.5-0.4c0-0.3,0.1-0.5,0.4-0.6l29.4-4.9c0.3,0,0.5,0.1,0.6,0.4
				c0,0.3-0.1,0.5-0.4,0.6L346.2,411.9C346.2,411.9,346.2,411.9,346.2,411.9z"/>
			<path class="st4" d="M347.4,419.2c-0.2,0-0.4-0.2-0.5-0.4c0-0.3,0.1-0.5,0.4-0.6l29.4-4.9c0.3,0,0.5,0.1,0.6,0.4
				c0,0.3-0.1,0.5-0.4,0.6L347.4,419.2C347.4,419.2,347.4,419.2,347.4,419.2z"/>
			<path class="st4" d="M351.4,443.6c-0.2,0-0.4-0.2-0.5-0.4c0-0.3,0.1-0.5,0.4-0.6l29.4-4.9c0.3,0,0.5,0.1,0.6,0.4
				c0,0.3-0.1,0.5-0.4,0.6L351.4,443.6C351.5,443.6,351.5,443.6,351.4,443.6z"/>
			<polyline class="st5" points="359.6,381.7 352.6,391.6 354.2,392.3 355.1,393.8 356.2,393.5 357.4,395.5 359.2,396.3 
				366.3,386.4 359.3,396.2 366.4,386.3 364.7,385.5 363.8,384 362.8,384.3 361.5,382.4 359.7,381.5 352.7,391.5 			"/>
			<path class="st4" d="M359.2,396.8c-0.1,0-0.1,0-0.2,0l-1.8-0.8c-0.1,0-0.2-0.1-0.2-0.2l-1.1-1.6l-0.7,0.2c-0.2,0.1-0.4,0-0.5-0.2
				l-0.8-1.4l-1.5-0.7c-0.1-0.1-0.2-0.2-0.3-0.3c0-0.1,0-0.3,0.1-0.4l7.2-10c0.1-0.2,0.4-0.3,0.6-0.2l1.8,0.8c0.1,0,0.2,0.1,0.2,0.2
				l1.1,1.6l0.7-0.2c0.2-0.1,0.4,0,0.5,0.2l0.8,1.4l1.5,0.7c0.1,0.1,0.2,0.2,0.3,0.3c0,0.1,0,0.3-0.1,0.4l-7.1,9.9c0,0,0,0,0,0
				l-0.1,0.1C359.5,396.7,359.4,396.8,359.2,396.8z M357.7,395.1l1.3,0.6l6.6-9.2l-1.1-0.5c-0.1,0-0.2-0.1-0.2-0.2l-0.7-1.2
				l-0.7,0.2c-0.2,0.1-0.4,0-0.5-0.2l-1.2-1.8l-1.3-0.6l-6.6,9.2l1.1,0.5c0.1,0,0.2,0.1,0.2,0.2l0.7,1.2l0.7-0.2
				c0.2-0.1,0.4,0,0.5,0.2L357.7,395.1z"/>
			<path class="st4" d="M350.6,437.3c-0.1,0-0.2,0-0.3-0.1c-0.1-0.1-0.2-0.2-0.2-0.3l-1.4-8.3c0-0.3,0.1-0.5,0.4-0.6l29.1-4.8
				c0.1,0,0.3,0,0.4,0.1c0.1,0.1,0.2,0.2,0.2,0.3l1.4,8.3c0,0.3-0.1,0.5-0.4,0.6L350.6,437.3C350.6,437.3,350.6,437.3,350.6,437.3z
				 M349.7,428.8l1.2,7.4l28.1-4.7l-1.2-7.4L349.7,428.8z"/>
		</g>
		<g>
			<polyline class="st1" points="627,108.5 398.2,108.5 398.2,361.9 715,361.9 			"/>
			<g>
				<polyline class="st2" points="627,109 398.2,108.5 398.7,307.8 382.9,294.8 382.9,94.8 601.3,94.8 				"/>
			</g>
			<path class="st3" d="M382.9,94.8l-0.3,280.9l64.4,0h283.3L715,361.9H443.2l-45,0l0-253.4L382.9,94.8z"/>
			<polygon class="st2" points="520.8,361.9 556.1,361.9 488.9,108.5 453.6,108.5 			"/>
			<polygon class="st2" points="471,361.9 502.4,361.9 434.3,106.8 402.9,106.8 			"/>
			<path class="st4" d="M715,362.4H398.2c-0.3,0-0.5-0.2-0.5-0.5V108.5c0-0.3,0.2-0.5,0.5-0.5H627c0.3,0,0.5,0.2,0.5,0.5
				s-0.2,0.5-0.5,0.5H398.7v252.4H715c0.3,0,0.5,0.2,0.5,0.5C715.4,362.2,715.2,362.4,715,362.4z"/>
			<line class="st2" x1="730.3" y1="375.7" x2="447" y2="375.7"/>
			<line class="st1" x1="715" y1="361.9" x2="443.2" y2="361.9"/>
			<path class="st4" d="M730.3,376.2H382.6c-0.1,0-0.3-0.1-0.3-0.1c-0.1-0.1-0.1-0.2-0.1-0.3l0.3-280.9c0-0.3,0.2-0.5,0.5-0.5h218.4
				c0.3,0,0.5,0.2,0.5,0.5c0,0.3-0.2,0.5-0.5,0.5H383.4l-0.3,280h347.2c0.3,0,0.5,0.2,0.5,0.5C730.8,375.9,730.5,376.2,730.3,376.2z
				"/>
		</g>
		<g>
			<g>
				
					<rect x="418.4" y="404.1" transform="matrix(0.9649 0.2625 -0.2625 0.9649 125.3435 -99.1677)" class="st1" width="30.7" height="30.7"/>
				<path class="st4" d="M444.6,438.8c0,0-0.1,0-0.1,0l-29.7-8.1c-0.3-0.1-0.4-0.3-0.3-0.6l8.1-29.7c0-0.1,0.1-0.2,0.2-0.3
					c0.1-0.1,0.2-0.1,0.4,0l29.7,8.1c0.3,0.1,0.4,0.3,0.3,0.6l-8.1,29.7c0,0.1-0.1,0.2-0.2,0.3C444.7,438.8,444.7,438.8,444.6,438.8
					z M415.5,429.9l28.7,7.8l7.8-28.7l-28.7-7.8L415.5,429.9z"/>
			</g>
			<path class="st4" d="M444.9,413.4c0,0-0.1,0-0.1,0l-17.3-4.7c-0.3-0.1-0.4-0.3-0.3-0.6c0.1-0.3,0.3-0.4,0.6-0.3l17.3,4.7
				c0.3,0.1,0.4,0.3,0.3,0.6C445.3,413.3,445.1,413.4,444.9,413.4z"/>
			<path class="st4" d="M443.4,418.9c0,0-0.1,0-0.1,0l-17.3-4.7c-0.3-0.1-0.4-0.3-0.3-0.6c0.1-0.3,0.3-0.4,0.6-0.3l17.3,4.7
				c0.3,0.1,0.4,0.3,0.3,0.6C443.8,418.7,443.6,418.9,443.4,418.9z"/>
			<path class="st4" d="M441.1,427.1c0,0-0.1,0-0.1,0l-17.3-4.7c-0.3-0.1-0.4-0.3-0.3-0.6c0.1-0.3,0.3-0.4,0.6-0.3l17.3,4.7
				c0.3,0.1,0.4,0.3,0.3,0.6C441.5,427,441.3,427.1,441.1,427.1z"/>
		</g>
		<g>
			<g>
				
					<rect x="326" y="124.4" transform="matrix(0.9859 -0.1674 0.1674 0.9859 -18.5771 59.1213)" class="st1" width="30.7" height="30.7"/>
				<path class="st4" d="M328.8,158c-0.2,0-0.4-0.2-0.5-0.4l-5.1-30.3c0-0.3,0.1-0.5,0.4-0.6l30.3-5.1c0.3,0,0.5,0.1,0.6,0.4
					l5.1,30.3c0,0.3-0.1,0.5-0.4,0.6L328.8,158C328.9,158,328.9,158,328.8,158z M324.2,127.6l5,29.4l29.4-5l-5-29.4L324.2,127.6z"/>
			</g>
			<path class="st4" d="M331,132.6c-0.2,0-0.4-0.2-0.5-0.4c0-0.3,0.1-0.5,0.4-0.6l17.7-3c0.3,0,0.5,0.1,0.6,0.4
				c0,0.3-0.1,0.5-0.4,0.6L331,132.6C331.1,132.6,331.1,132.6,331,132.6z"/>
			<path class="st4" d="M332,138.2c-0.2,0-0.4-0.2-0.5-0.4c0-0.3,0.1-0.5,0.4-0.6l17.7-3c0.3,0,0.5,0.1,0.6,0.4
				c0,0.3-0.1,0.5-0.4,0.6L332,138.2C332,138.2,332,138.2,332,138.2z"/>
			<path class="st4" d="M333.4,146.6c-0.2,0-0.4-0.2-0.5-0.4c0-0.3,0.1-0.5,0.4-0.6l17.7-3c0.3,0,0.5,0.1,0.6,0.4
				c0,0.3-0.1,0.5-0.4,0.6L333.4,146.6C333.5,146.6,333.4,146.6,333.4,146.6z"/>
		</g>
	</g>
	<g>
		<g>
			<g>
				<path class="st1" d="M353.7,248.9c0,0,165.8-27.8,193.4-17.8c12,3.3,10.3,14.4,3.8,16.1c-6.4,1.7-153.2,17.9-182.3,29.8"/>
			</g>
			<g>
				<path class="st3" d="M360.1,268.1c32.3-16.7,184.1-27.6,190.5-29.3c1.7-0.4,3.1-1.6,3.9-3c3.1,4.5,0.9,10.2-3.6,11.4
					c-6.4,1.7-138.8,15-182.3,29.8"/>
			</g>
			<g>
				<path class="st6" d="M528.6,249.9C528.6,249.9,528.5,249.9,528.6,249.9c-0.6,0-1-0.5-1-1l0.5-9.4c0-0.5,0.5-0.9,1-0.9
					c0.5,0,0.9,0.5,0.9,1l-0.5,9.4C529.5,249.5,529.1,249.9,528.6,249.9z"/>
				<path class="st6" d="M512.5,251.7C512.5,251.7,512.5,251.7,512.5,251.7c-0.6,0-1-0.5-1-1l0.5-9.4c0-0.5,0.5-0.9,1-0.9
					c0.5,0,0.9,0.5,0.9,1l-0.5,9.4C513.4,251.3,513,251.7,512.5,251.7z"/>
				<path class="st6" d="M496.1,253.6C496.1,253.6,496.1,253.6,496.1,253.6c-0.6,0-1-0.5-1-1l0.5-9.4c0-0.5,0.5-0.9,1-0.9
					c0.5,0,0.9,0.5,0.9,1l-0.5,9.4C497.1,253.2,496.6,253.6,496.1,253.6z"/>
				<path class="st6" d="M480.1,255.4C480.1,255.4,480,255.4,480.1,255.4c-0.6,0-1-0.5-1-1l0.5-9.4c0-0.5,0.5-0.9,1-0.9
					c0.5,0,0.9,0.5,0.9,1l-0.5,9.4C481,255,480.6,255.4,480.1,255.4z"/>
				<path class="st6" d="M460.9,258.3C460.9,258.3,460.9,258.3,460.9,258.3c-0.6,0-1-0.5-1-1l0.5-9.4c0-0.5,0.5-0.9,1-0.9
					c0.5,0,0.9,0.5,0.9,1l-0.5,9.4C461.8,257.9,461.4,258.3,460.9,258.3z"/>
				<path class="st6" d="M442.7,261.2C442.7,261.2,442.6,261.2,442.7,261.2c-0.6,0-1-0.5-1-1l0.5-9.4c0-0.5,0.5-0.9,1-0.9
					c0.5,0,0.9,0.5,0.9,1l-0.5,9.4C443.6,260.8,443.2,261.2,442.7,261.2z"/>
				<path class="st6" d="M423.6,264.3C423.6,264.3,423.6,264.3,423.6,264.3c-0.6,0-1-0.5-1-1l0.5-9.4c0-0.5,0.5-0.9,1-0.9
					c0.5,0,0.9,0.5,0.9,1l-0.5,9.4C424.6,263.9,424.2,264.3,423.6,264.3z"/>
				<path class="st6" d="M406.3,268C406.2,268,406.2,268,406.3,268c-0.6,0-1-0.5-1-1l0.7-13.1c0-0.5,0.5-0.9,1-0.9
					c0.5,0,0.9,0.5,0.9,1l-0.7,13.1C407.2,267.6,406.8,268,406.3,268z"/>
				<path class="st6" d="M389.2,272.7C389.2,272.7,389.1,272.7,389.2,272.7c-0.6,0-1-0.5-1-1l0.7-13.1c0-0.5,0.5-0.9,1-0.9
					c0.5,0,0.9,0.5,0.9,1l-0.7,13.1C390.1,272.3,389.7,272.7,389.2,272.7z"/>
			</g>
			<path class="st7" d="M360.7,280.7c-0.2,0-0.3-0.1-0.4-0.3c-0.1-0.2,0-0.5,0.2-0.7c22.8-12.3,121.2-24.4,168.4-30.2
				c12-1.5,20.6-2.5,21.9-2.9c2.7-0.7,4.6-3.3,4.7-6.4c0-4-3.2-7.3-8.5-8.8c-27.2-9.9-192.6,17.8-194.2,18.1c-0.3,0-0.5-0.1-0.6-0.4
				c0-0.3,0.1-0.5,0.4-0.6c0.4-0.1,42.2-7.1,86.9-12.8c60-7.7,96.3-9.4,107.8-5.3c5.8,1.6,9.2,5.2,9.2,9.7c0,3.5-2.2,6.5-5.4,7.3
				c-1.4,0.4-9.6,1.4-22.1,2.9c-43.5,5.4-145.5,17.9-168.1,30.1C360.8,280.7,360.8,280.7,360.7,280.7z"/>
		</g>
		<g>
			<path class="st3" d="M170.1,658.1h-17.5v25.2h25.8v-16.9C178.4,661.8,174.7,658.1,170.1,658.1z"/>
			<polyline class="st1" points="167.1,658.1 182.5,542.6 156.4,542.6 141,658.1 			"/>
			<path class="st3" d="M155.1,551.7c6.4,3.1,17.7,4,25.9,1.5l1.4-10.6h-26.1L155.1,551.7z"/>
			<polyline class="st1" points="239.8,658.1 242.1,542.6 216,542.6 213.7,658.1 			"/>
			<path class="st3" d="M215.9,551.7c6.4,3.1,17.7,4,25.9,1.5l0.7-10.6h-26.1L215.9,551.7z"/>
			<path class="st3" d="M222.8,546.1c-3.8,28.6,0.8,69.4,6.1,112h-15.2l2.2-112.8L222.8,546.1z"/>
			<path class="st3" d="M174.9,545.7c3.5,17.9-11.2,85.4-16.6,112.4h8.5l15.1-113.2L174.9,545.7z"/>
			<g>
				<path class="st6" d="M179.4,562.4h-11.5c-0.5,0-1-0.4-1-1s0.4-1,1-1h11.5c0.5,0,1,0.4,1,1S179.9,562.4,179.4,562.4z"/>
				<path class="st6" d="M175.3,587.6h-11.5c-0.5,0-1-0.4-1-1s0.4-1,1-1h11.5c0.5,0,1,0.4,1,1S175.8,587.6,175.3,587.6z"/>
				<path class="st6" d="M172.6,608H161c-0.5,0-1-0.4-1-1s0.4-1,1-1h11.5c0.5,0,1,0.4,1,1S173.1,608,172.6,608z"/>
				<path class="st6" d="M169.9,633.5h-11.5c-0.5,0-1-0.4-1-1s0.4-1,1-1h11.5c0.5,0,1,0.4,1,1S170.4,633.5,169.9,633.5z"/>
			</g>
			<ellipse class="st1" cx="152.7" cy="670.6" rx="0" ry="12.6"/>
			<path class="st1" d="M264.3,683.2h-67.2v-16.9c0-4.6,3.7-8.3,8.3-8.3H256c4.6,0,8.3,3.7,8.3,8.3V683.2z"/>
			<ellipse class="st1" cx="222.8" cy="670.6" rx="0" ry="12.6"/>
			<path class="st7" d="M167.1,658.5C167.1,658.5,167.1,658.5,167.1,658.5c-0.3,0-0.5-0.3-0.5-0.5L182,543.1h-25.2l-15.3,115
				c0,0.3-0.3,0.4-0.5,0.4c-0.3,0-0.4-0.3-0.4-0.5l15.4-115.4c0-0.2,0.2-0.4,0.5-0.4h26.1c0.1,0,0.3,0.1,0.4,0.2
				c0.1,0.1,0.1,0.2,0.1,0.4l-15.4,115.4C167.6,658.4,167.4,658.5,167.1,658.5z"/>
			<path class="st3" d="M205.4,658.1h17.5v25.2h-25.8v-16.9C197.1,661.8,200.8,658.1,205.4,658.1z"/>
			<path class="st6" d="M227.7,562.4h-11.5c-0.5,0-1-0.4-1-1s0.4-1,1-1h11.5c0.5,0,1,0.4,1,1S228.2,562.4,227.7,562.4z"/>
			<path class="st6" d="M227.5,587.6H216c-0.5,0-1-0.4-1-1s0.4-1,1-1h11.5c0.5,0,1,0.4,1,1S228.1,587.6,227.5,587.6z"/>
			<path class="st6" d="M226.2,608h-10.4c-0.5,0-1-0.4-1-1s0.4-1,1-1h10.4c0.5,0,1,0.4,1,1S226.8,608,226.2,608z"/>
			<path class="st6" d="M226.5,633.5H215c-0.5,0-1-0.4-1-1s0.4-1,1-1h11.5c0.5,0,1,0.4,1,1S227.1,633.5,226.5,633.5z"/>
			<path class="st7" d="M239.8,658.5C239.8,658.5,239.8,658.5,239.8,658.5c-0.3,0-0.5-0.2-0.5-0.5l2.3-114.9h-25.2l-2.3,115
				c0,0.3-0.2,0.5-0.5,0.5c-0.3,0-0.5-0.2-0.5-0.5l2.3-115.4c0-0.3,0.2-0.5,0.5-0.5h26.1c0.1,0,0.3,0.1,0.3,0.1
				c0.1,0.1,0.1,0.2,0.1,0.3l-2.3,115.4C240.3,658.3,240.1,658.5,239.8,658.5z"/>
			<path class="st7" d="M178.4,683.7h-67.2c-0.3,0-0.5-0.2-0.5-0.5v-16.9c0-4.9,3.9-8.8,8.8-8.8h50.6c4.8,0,8.8,3.9,8.8,8.8v16.9
				C178.9,683.5,178.7,683.7,178.4,683.7z M111.7,682.7H178v-16.4c0-4.3-3.5-7.8-7.8-7.8h-50.6c-4.3,0-7.8,3.5-7.8,7.8V682.7z"/>
			<path class="st7" d="M152.7,683.7c-0.3,0-0.5-0.2-0.5-0.5v-25.2c0-0.3,0.2-0.5,0.5-0.5s0.5,0.2,0.5,0.5v25.2
				C153.1,683.5,152.9,683.7,152.7,683.7z"/>
			<path class="st7" d="M264.3,683.7h-67.2c-0.3,0-0.5-0.2-0.5-0.5v-16.9c0-4.9,3.9-8.8,8.8-8.8H256c4.8,0,8.8,3.9,8.8,8.8v16.9
				C264.8,683.5,264.6,683.7,264.3,683.7z M197.5,682.7h66.3v-16.4c0-4.3-3.5-7.8-7.8-7.8h-50.6c-4.3,0-7.8,3.5-7.8,7.8V682.7z"/>
			<path class="st7" d="M222.8,683.7c-0.3,0-0.5-0.2-0.5-0.5v-25.2c0-0.3,0.2-0.5,0.5-0.5s0.5,0.2,0.5,0.5v25.2
				C223.3,683.5,223.1,683.7,222.8,683.7z"/>
		</g>
		<path class="st8" d="M236.4,456c0,0,14.2,75.1,11.3,83.6c-2.9,8.5-33,11.1-39.5,0c-2.8-4.9-4.9-17.1-6.4-29.3
			c-0.4-3.3-5.2-3.3-5.6,0c-1.5,12.2-3.6,24.5-6.4,29.3c-6.4,11.1-36.6,8.5-39.5,0c-2.9-8.5,11.5-80.9,11.5-80.9"/>
		<g>
			<path class="st9" d="M213.5,539.7c-2.8-4.9-4.9-17.1-6.4-29.3c-0.4-3.1-7-4.7-10-2c0.1,0.2,4.3-0.5,4.7,2
				c2.1,12.2,3.6,24.5,6.4,29.3c3.3,5.7,13,7.8,22,7.3C223,546.5,216.2,544.3,213.5,539.7z"/>
			<path class="st9" d="M155.6,539.7c-2.9-8.5,11.5-80.9,11.5-80.9l69.3-2.5c0-0.1,0-0.2,0-0.2l-74.6,2.7c0,0-14.4,72.4-11.5,80.9
				c1.7,5,12.6,7.9,22.7,7.3C164.7,546.5,157,543.8,155.6,539.7z"/>
		</g>
		<path class="st9" d="M161.9,458.8c0,0-5.2,26.3-8.8,49c9.7-10.1,26.2-24,45.9-28.9c18.5-4.6,32.4-3.4,40.6-5
			c-1.8-10.4-3.2-17.8-3.2-17.8L161.9,458.8z"/>
		<path class="st10" d="M227.7,547.5c-8.2,0-16.7-2.2-19.8-7.6c-2.4-4.2-4.6-14.1-6.5-29.5c-0.2-1.4-1.3-2.1-2.3-2.1
			c-1,0-2.2,0.6-2.3,2.1c-1.9,15.4-4.1,25.3-6.5,29.5c-3.7,6.4-14.9,8.3-24.4,7.4c-8.4-0.8-14.7-3.8-16-7.5
			c-2.9-8.5,10.9-78.2,11.5-81.1c0.1-0.3,0.3-0.4,0.6-0.4c0.3,0.1,0.4,0.3,0.4,0.6c-0.1,0.7-14.4,72.3-11.6,80.6
			c1.1,3.3,7.2,6,15.1,6.8c9.1,0.9,19.9-0.9,23.4-6.9c2.4-4.1,4.5-13.9,6.4-29.2c0.2-2,1.9-2.9,3.3-2.9s3,0.9,3.3,2.9
			c1.9,15.3,4,25.1,6.4,29.2c3.5,6,14.3,7.8,23.4,6.9c7.9-0.8,14-3.5,15.1-6.8c2.8-8.3-11.2-82.6-11.3-83.4c0-0.3,0.1-0.5,0.4-0.6
			c0.3,0,0.5,0.1,0.6,0.4c0.6,3.1,14.2,75.3,11.3,83.9c-1.3,3.7-7.5,6.6-16,7.5C230.7,547.5,229.2,547.5,227.7,547.5z"/>
		<path class="st1" d="M295.1,399.8c0,0-15.7,21.7-48.8,30.7l5.7-27c0,0,17.9-10.1,25.6-19.1"/>
		<path class="st3" d="M246.3,414.8c20.8-7.5,33.4-19.7,38.3-25.2l-7-5.3c-7.7,9.1-25.6,19.1-25.6,19.1L246.3,414.8z"/>
		<path class="st1" d="M323.1,375.6c0,13.3-11.1,24.2-24.8,24.2s-21.7-9.4-21.7-22.7c0-6.5,4.4-5.4,8-9.7
			c3.7-4.5,8.3-12.7,15.3-12.7C313.6,354.6,323.1,362.3,323.1,375.6z"/>
		<path class="st3" d="M300.8,388.4c-11.7,0-19.2-6.9-21.2-17.2c-1.7,1.1-3,2.4-3,5.9c0,13.3,8,22.7,21.7,22.7
			c13.7,0,24.8-10.8,24.8-24.2c0-0.3,0-0.6,0-0.8C319.1,382.9,310.6,388.4,300.8,388.4z"/>
		<g>
			<path class="st3" d="M269.2,296.2c-2.9-16.2-12.6-28.1-22-27.4l0,0c-29,1.1-57.9,5-86.1,11.6l10.9,60.9c0,0,43.5-3.8,85-11.5
				C266.8,328,272.2,313,269.2,296.2z"/>
			<g>
				<path class="st8" d="M171.3,260.3c3.4-5.7,8.4-10.3,14.3-13.3c5.5-2.9,12.3-4.5,18.5-2.8c5.7,1.7,10.4,5.6,13.1,10.9
					c2.6,5.1,3.2,10.6,3.2,16.1c0.1,1.4-0.2,2.9-0.7,4.3c-0.5,1.1-1.2,2.1-2.1,3c-4.9,5.8-11,11.5-19,13.1
					c-6.1,1.3-12.6-0.1-18.3-2.6c-5.2-2.3-9.8-6-11.9-10.9C166,272.8,168.6,265.1,171.3,260.3z"/>
				<path class="st10" d="M193.8,292.6c-5.3,0-10.2-1.6-13.7-3.1c-5.8-2.6-10.1-6.5-12.2-11.1c-2.3-5.5,0.2-13.3,3-18.3c0,0,0,0,0,0
					c3.5-5.8,8.5-10.5,14.5-13.5c6.6-3.4,13.2-4.4,18.8-2.8c5.8,1.7,10.7,5.8,13.4,11.2c2.3,4.5,3.3,9.8,3.2,16.3
					c0.1,1.5-0.2,3-0.7,4.4c-0.6,1.2-1.3,2.3-2.2,3.2c-4.4,5.2-10.7,11.5-19.3,13.2C197,292.5,195.4,292.6,193.8,292.6z
					 M171.8,260.6c-2.8,4.8-5.2,12.3-3,17.4c1.9,4.4,6.1,8.2,11.7,10.6c4.5,2,11.2,4,18.1,2.6c8.3-1.7,14.4-7.8,18.7-12.9
					c0.8-0.9,1.5-1.9,2-2.9c0.5-1.3,0.7-2.6,0.6-4c0.1-6.4-0.9-11.6-3.1-15.9c-2.6-5.2-7.2-9.1-12.8-10.7c-7.2-2-14.5,0.9-18.1,2.8
					C180,250.4,175.1,254.9,171.8,260.6z"/>
			</g>
			<path class="st10" d="M193.8,292.6c-5.3,0-10.2-1.6-13.7-3.1c-5.8-2.6-10.1-6.5-12.2-11.1c-2.3-5.5,0.2-13.3,3-18.3c0,0,0,0,0,0
				c3.5-5.8,8.5-10.5,14.5-13.5c6.6-3.4,13.2-4.4,18.8-2.8c5.8,1.7,10.7,5.8,13.4,11.2c2.3,4.5,3.3,9.8,3.2,16.3
				c0.1,1.5-0.2,3-0.7,4.4c-0.6,1.2-1.3,2.3-2.2,3.2c-4.4,5.2-10.7,11.5-19.3,13.2C197,292.5,195.4,292.6,193.8,292.6z M171.8,260.6
				c-2.8,4.8-5.2,12.3-3,17.4c1.9,4.4,6.1,8.2,11.7,10.6c4.5,2,11.2,4,18.1,2.6c8.3-1.7,14.4-7.8,18.7-12.9c0.8-0.9,1.5-1.9,2-2.9
				c0.5-1.3,0.7-2.6,0.6-4c0.1-6.4-0.9-11.6-3.1-15.9c-2.6-5.2-7.2-9.1-12.8-10.7c-7.2-2-14.5,0.9-18.1,2.8
				C180,250.4,175.1,254.9,171.8,260.6z"/>
			<g>
				<path class="st8" d="M181.1,279c6-17.7,15.5-37.8,31.4-50.3c3.3-2.8,7.2-4.8,11.3-6.1c5-1.4,10.4-0.6,14.8,2.1
					c5.9,3.5,8.3,10.2,8.6,16.7c0.6,11.9-2.9,23.9-7.9,35.2L181.1,279z"/>
				<path class="st10" d="M181.1,279.5c-0.2,0-0.3-0.1-0.4-0.2c-0.1-0.1-0.1-0.3-0.1-0.4c7.8-23.2,18.4-40.2,31.5-50.5
					c3.4-2.8,7.3-4.9,11.5-6.2c5.1-1.4,10.7-0.6,15.2,2.1c5.3,3.2,8.4,9.2,8.8,17c0.5,10.6-2.1,22.1-8,35.4
					c-0.1,0.2-0.2,0.3-0.4,0.3L181.1,279.5C181.1,279.5,181.1,279.5,181.1,279.5z M228.7,222.5c-1.6,0-3.3,0.2-4.8,0.6
					c-4.1,1.2-7.8,3.2-11.1,6c-12.8,10.1-23.2,26.7-31,49.4l57.2-2.4c5.8-13,8.3-24.4,7.8-34.7c-0.2-4.3-1.6-12.2-8.4-16.3
					C235.4,223.4,232.1,222.5,228.7,222.5z"/>
			</g>
			<path class="st10" d="M181.1,279.5c-0.2,0-0.3-0.1-0.4-0.2c-0.1-0.1-0.1-0.3-0.1-0.4c7.8-23.2,18.4-40.2,31.5-50.5
				c3.4-2.8,7.3-4.9,11.5-6.2c5.1-1.4,10.7-0.6,15.2,2.1c5.3,3.2,8.4,9.2,8.8,17c0.5,10.6-2.1,22.1-8,35.4c-0.1,0.2-0.2,0.3-0.4,0.3
				L181.1,279.5C181.1,279.5,181.1,279.5,181.1,279.5z M228.7,222.5c-1.6,0-3.3,0.2-4.8,0.6c-4.1,1.2-7.8,3.2-11.1,6
				c-12.8,10.1-23.2,26.7-31,49.4l57.2-2.4c5.8-13,8.3-24.4,7.8-34.7c-0.2-4.3-1.6-12.2-8.4-16.3
				C235.4,223.4,232.1,222.5,228.7,222.5z"/>
			<g>
				
					<ellipse transform="matrix(0.9992 -3.896835e-02 3.896835e-02 0.9992 -11.2248 11.4768)" class="st8" cx="288.8" cy="293.7" rx="6.3" ry="6.3"/>
				<path class="st10" d="M288.8,300.5c-1.7,0-3.3-0.6-4.6-1.8c-1.3-1.2-2.1-2.9-2.2-4.7c-0.1-3.7,2.8-6.9,6.5-7.1
					c3.8-0.1,6.9,2.8,7.1,6.5c0.1,3.7-2.8,6.9-6.5,7.1C289,300.5,288.9,300.5,288.8,300.5z M288.5,287.4l0,0.5
					c-1.6,0.1-3,0.7-4.1,1.9c-1.1,1.1-1.6,2.6-1.5,4.2c0.1,1.6,0.7,3,1.9,4.1c1.1,1.1,2.6,1.6,4.2,1.5c3.2-0.1,5.7-2.8,5.6-6.1
					c-0.1-3.2-2.8-5.7-6.1-5.6L288.5,287.4z"/>
			</g>
			<g>
				<path class="st3" d="M253.5,299c-0.6-0.1-0.9-0.7-0.8-1.2c0.1-0.4,0.3-0.7,0.7-0.8l31-3.4c0.6,0.1,1,0.6,0.9,1.2
					c-0.1,0.4-0.3,0.7-0.7,0.8L253.5,299L253.5,299z"/>
				<path class="st7" d="M253.4,299.4L253.4,299.4c-0.5-0.1-0.8-0.3-1-0.7c-0.2-0.3-0.3-0.7-0.2-1.1c0.1-0.5,0.5-1,1-1.1l0.1,0
					l31-3.4l0.1,0c0.4,0.1,0.8,0.3,1,0.6c0.2,0.3,0.3,0.7,0.3,1.1c-0.1,0.5-0.4,1-1,1.2l-0.1,0L253.4,299.4z M253.5,297.4
					c-0.2,0.1-0.3,0.2-0.3,0.4c0,0.1,0,0.3,0.1,0.4c0.1,0.1,0.2,0.2,0.3,0.2l0,0l30.9-3.4c0.2-0.1,0.3-0.2,0.3-0.4
					c0-0.1,0-0.3-0.1-0.4c-0.1-0.1-0.2-0.2-0.3-0.2L253.5,297.4z"/>
			</g>
			<path class="st1" d="M166.6,290.3c-1.2-0.4-2.5-0.5-3.8-0.5l6,33.3c5.4-2.4,11.1-3.9,16.9-4.5c26.6-3.4,54.4,7.4,80.8,3.3
				c3.3-6.3,4.6-15.7,2.7-25.7c-1-6.1-3.3-12-6.6-17.3C236.1,295.4,198,297.7,166.6,290.3z"/>
			<path class="st3" d="M247.2,268.8L247.2,268.8c-29,1.1-57.9,5-86.1,11.6l1.7,9.5c1.3,0,2.6,0.1,3.8,0.5
				c31.4,7.3,69.5,5.1,96-11.5C258.3,272.3,252.7,268.4,247.2,268.8z"/>
			<path class="st7" d="M172,341.7c-0.2,0-0.4-0.2-0.5-0.4l-10.9-60.9c0-0.3,0.1-0.5,0.4-0.6c28.2-6.6,57.3-10.5,86.2-11.6
				c9.7-0.7,19.5,11.5,22.5,27.8c1.5,8.2,1,16.3-1.3,22.7c-2.4,6.5-6.4,10.6-11.3,11.5C216,337.9,172.5,341.7,172,341.7
				C172,341.7,172,341.7,172,341.7z M161.7,280.7l10.7,60c4.7-0.4,45.7-4.2,84.6-11.5c4.6-0.8,8.3-4.7,10.5-10.8
				c2.3-6.3,2.7-14.1,1.3-22.2l0,0c-2.8-15.8-12.3-27.7-21.5-27C218.5,270.4,189.7,274.2,161.7,280.7z"/>
			<g>
				
					<ellipse transform="matrix(0.9839 -0.1785 0.1785 0.9839 -52.7784 34.7524)" class="st4" cx="166.7" cy="310.7" rx="17.9" ry="30.9"/>
				<path class="st7" d="M170.3,341.7c-4.3,0-8.6-2.4-12.5-7c-4.4-5.2-7.7-12.6-9.2-20.8c-1.5-8.2-1-16.3,1.3-22.7
					c2.3-6.5,6.3-10.6,11.2-11.5c4.9-0.9,10,1.5,14.5,6.8c4.4,5.2,7.7,12.6,9.2,20.8c1.5,8.2,1,16.3-1.3,22.7
					c-2.3,6.5-6.3,10.6-11.2,11.5C171.7,341.7,171,341.7,170.3,341.7z M161.3,280.8c-4.5,0.8-8.2,4.7-10.5,10.9
					c-2.3,6.3-2.7,14.1-1.2,22.2c1.5,8,4.6,15.3,8.9,20.3c4.2,5,9.1,7.3,13.6,6.5c4.5-0.8,8.2-4.7,10.5-10.9
					c2.3-6.3,2.7-14.1,1.2-22.2c-1.5-8-4.6-15.3-8.9-20.3C170.7,282.2,165.8,279.9,161.3,280.8L161.3,280.8z M161.2,280.3
					L161.2,280.3L161.2,280.3z"/>
			</g>
			<path class="st7" d="M170.3,341.7c-4.3,0-8.6-2.4-12.5-7c-4.4-5.2-7.7-12.6-9.2-20.8c-1.5-8.2-1-16.3,1.3-22.7
				c2.3-6.5,6.3-10.6,11.2-11.5c4.9-0.9,10,1.5,14.5,6.8c4.4,5.2,7.7,12.6,9.2,20.8c1.5,8.2,1,16.3-1.3,22.7
				c-2.3,6.5-6.3,10.6-11.2,11.5C171.7,341.7,171,341.7,170.3,341.7z M161.3,280.8c-4.5,0.8-8.2,4.7-10.5,10.9
				c-2.3,6.3-2.7,14.1-1.2,22.2c1.5,8,4.6,15.3,8.9,20.3c4.2,5,9.1,7.3,13.6,6.5c4.5-0.8,8.2-4.7,10.5-10.9
				c2.3-6.3,2.7-14.1,1.2-22.2c-1.5-8-4.6-15.3-8.9-20.3C170.7,282.2,165.8,279.9,161.3,280.8L161.3,280.8z M161.2,280.3
				L161.2,280.3L161.2,280.3z"/>
			<path class="st7" d="M201.5,298.7c-1.7,0.5-3.4-0.5-3.9-2.2l0,0c-0.6-1.9-1.3-3.7-2-5.5c-0.7,0.2-1.3,0.7-1.5,1.3
				c-0.8,1.9,0.6,4.4,1.1,6.2c0.7,2.8,1.2,5.7,1.4,8.6c0,1.3,0.4,2.5,1.2,3.6c0.5,0.5,1.1,0.8,1.8,0.7c3.8-0.4,2.9-5.8,2.6-8.3
				C202,301.7,201.8,300.2,201.5,298.7z"/>
			<path class="st7" d="M255.7,292.4c-1.5,0.4-3-0.6-3.4-2.1c0-0.1,0-0.2,0-0.2c-0.5-1.9-1.2-3.7-1.7-5.6c-0.6,0.2-1.1,0.7-1.4,1.3
				c-0.8,1.9,0.5,4.4,0.9,6.2c0.6,2.8,1,5.7,1.1,8.7c0,1.3,0.3,2.5,1,3.6c0.4,0.5,1,0.8,1.6,0.7c3.4-0.3,2.6-5.7,2.4-8.2
				C256.2,295.4,256,293.9,255.7,292.4z"/>
			<g>
				<polygon class="st8" points="220.2,299.6 231.1,298.4 224.6,289.8 				"/>
				<path class="st10" d="M220.2,300c-0.2,0-0.3-0.1-0.4-0.2c-0.1-0.1-0.1-0.3,0-0.5l4.4-9.8c0.1-0.2,0.2-0.3,0.4-0.3
					c0.2,0,0.3,0.1,0.4,0.2l6.6,8.6c0.1,0.1,0.1,0.3,0.1,0.5s-0.2,0.3-0.4,0.3L220.2,300C220.2,300,220.2,300,220.2,300z
					 M224.7,290.7L221,299l9.3-1L224.7,290.7z"/>
			</g>
			<g>
				<path class="st4" d="M239.4,314.8c0.1-0.2,0.3-0.4,0.4-0.6c1.4-2.2,2-4.9,1.6-7.5c-9.9,0.3-19.7,1.7-29.3,4.3
					c0.5,1.8,1.3,3.5,2.5,5C222.6,313.2,231.2,312.8,239.4,314.8z"/>
				<path class="st7" d="M214.7,316.4c-0.1,0-0.3-0.1-0.4-0.2c-1.2-1.5-2.1-3.3-2.6-5.2c-0.1-0.3,0.1-0.5,0.3-0.6
					c9.6-2.6,19.5-4,29.4-4.3c0.2,0,0.5,0.2,0.5,0.4c0.4,2.7-0.2,5.5-1.7,7.9c-0.1,0.2-0.2,0.3-0.3,0.5l-0.1,0.2
					c-0.1,0.2-0.3,0.2-0.5,0.2c-8.1-2-16.6-1.6-24.5,1.1C214.8,316.4,214.7,316.4,214.7,316.4z M212.7,311.3
					c0.4,1.5,1.1,2.9,2.1,4.1c7.9-2.7,16.3-3.1,24.4-1.1c0.1-0.1,0.1-0.2,0.2-0.3c1.3-2,1.8-4.4,1.6-6.8
					C231.5,307.5,222,308.9,212.7,311.3z"/>
			</g>
			<g>
				<path class="st8" d="M214.7,316c2.5,3,6,4.8,9.9,5.2c5.7,0.6,11.7-1.8,14.8-6.3C231.2,312.8,222.7,313.2,214.7,316z"/>
				<path class="st10" d="M226.4,321.7c-0.6,0-1.2,0-1.8-0.1c-3.9-0.3-7.7-2.3-10.2-5.3c-0.1-0.1-0.1-0.3-0.1-0.4
					c0-0.2,0.2-0.3,0.3-0.3c8.1-2.8,16.7-3.2,25-1.2c0.2,0,0.3,0.1,0.3,0.3c0.1,0.1,0,0.3-0.1,0.4
					C237,319.2,231.7,321.7,226.4,321.7z M215.6,316.2c2.4,2.5,5.6,4.2,9.1,4.5c5.4,0.6,10.9-1.6,14-5.6
					C230.9,313.3,223,313.7,215.6,316.2z"/>
			</g>
			<path class="st7" d="M226.4,321.7c-0.6,0-1.2,0-1.8-0.1c-6.4-0.7-11.3-4.7-12.8-10.5c-0.1-0.3,0.1-0.5,0.3-0.6
				c9.6-2.6,19.4-4,29.3-4.3c0.3,0,0.5,0.2,0.5,0.4c0.4,2.7-0.2,5.5-1.7,7.9C237.5,318.9,232,321.7,226.4,321.7z M212.8,311.3
				c1.5,5.2,6,8.7,11.9,9.4c5.9,0.6,12-2.1,14.8-6.7c1.3-2,1.8-4.4,1.6-6.8C231.5,307.5,222,308.9,212.8,311.3z"/>
			<path class="st7" d="M244.8,276.7c-0.1,0-0.1,0-0.2,0c-0.2-0.1-0.3-0.4-0.2-0.6c0.5-1,1.3-1.8,2.3-2.1c1-0.4,2.2-0.3,3.2,0.1
				c0.4,0.2,0.8,0.4,1.1,0.8c0.2,0.2,0.2,0.5,0,0.7c-0.2,0.2-0.5,0.2-0.7,0c-0.3-0.2-0.5-0.4-0.9-0.6c-1.6-0.7-3.5,0-4.2,1.5
				C245.2,276.6,245,276.7,244.8,276.7z"/>
			<path class="st7" d="M189.5,284.8c-0.1,0-0.1,0-0.2,0c-0.2-0.1-0.3-0.4-0.2-0.6c0.5-1,1.3-1.8,2.3-2.1c1-0.4,2.2-0.3,3.2,0.1
				c0.4,0.2,0.8,0.4,1.1,0.8c0.2,0.2,0.2,0.5,0,0.7c-0.2,0.2-0.5,0.2-0.7,0c-0.3-0.2-0.5-0.4-0.9-0.6c-1.6-0.7-3.5,0-4.2,1.5
				C189.9,284.7,189.7,284.8,189.5,284.8z"/>
			<g class="st11">
				<path class="st7" d="M165.8,309c-0.5-0.2-1.1,0.1-1.3,0.5l-8.9,21.8c0.2,0.2,0.3,0.4,0.4,0.7l0.1,0.1c0.3,0.3,0.6,0.6,0.9,1
					l9.3-22.7C166.6,309.8,166.3,309.2,165.8,309z"/>
				<path class="st7" d="M157.1,333.5c-0.1,0-0.3-0.1-0.4-0.2c-0.3-0.3-0.6-0.7-0.9-0.9l-0.1,0c-0.1,0-0.1-0.1-0.1-0.2
					c-0.1-0.2-0.2-0.4-0.4-0.6c-0.1-0.1-0.1-0.3-0.1-0.5l8.9-21.8c0.3-0.7,1.2-1.1,1.9-0.8c0,0,0,0,0,0c0.8,0.3,1.1,1.2,0.8,2
					l-9.3,22.7C157.5,333.4,157.4,333.5,157.1,333.5C157.2,333.5,157.1,333.5,157.1,333.5z M156.5,331.7L156.5,331.7
					c0.2,0.2,0.3,0.3,0.5,0.5l9-22c0.1-0.3,0-0.6-0.3-0.7c-0.3-0.1-0.6,0-0.7,0.3l-8.8,21.5C156.3,331.4,156.4,331.5,156.5,331.7z"
					/>
			</g>
			<g>
				<path class="st4" d="M134.7,315.7c-0.6-0.1-0.9-0.6-0.8-1.2c0.1-0.4,0.3-0.7,0.7-0.8l30.8-4.8c0.5-0.2,1.1,0,1.4,0.5
					c0.2,0.5,0,1.1-0.5,1.4c-0.2,0.1-0.3,0.1-0.5,0.1l-30.8,4.8L134.7,315.7z"/>
				<path class="st7" d="M134.7,316.2C134.7,316.2,134.6,316.2,134.7,316.2c-0.9-0.2-1.5-0.9-1.3-1.8c0.1-0.5,0.5-1,1-1.2l30.8-4.8
					c0.7-0.3,1.6,0.1,1.9,0.8c0.2,0.4,0.2,0.8,0,1.2c-0.1,0.4-0.4,0.7-0.8,0.8c-0.2,0.1-0.5,0.1-0.7,0.1L134.7,316.2
					C134.7,316.2,134.7,316.2,134.7,316.2z M165.7,309.3c-0.1,0-0.1,0-0.2,0c0,0-0.1,0-0.1,0l-30.8,4.8c-0.1,0-0.2,0.2-0.3,0.4
					c-0.1,0.3,0.1,0.6,0.4,0.6l0.1,0l30.7-4.8c0,0,0.1,0,0.1,0c0.1,0,0.2,0,0.3,0c0.3-0.1,0.4-0.4,0.3-0.7
					C166.2,309.4,166,309.3,165.7,309.3z"/>
			</g>
			<g>
				
					<ellipse transform="matrix(0.9992 -3.896835e-02 3.896835e-02 0.9992 -12.1817 5.3141)" class="st8" cx="130.2" cy="315.1" rx="6.3" ry="6.3"/>
				<path class="st10" d="M130.2,321.9c-3.6,0-6.6-2.9-6.8-6.5c-0.1-1.8,0.6-3.5,1.8-4.9c1.2-1.3,2.9-2.1,4.7-2.2l0,0.5l0-0.5
					c1.8-0.1,3.5,0.6,4.9,1.8c1.3,1.2,2.1,2.9,2.2,4.7c0.1,1.8-0.6,3.5-1.8,4.9c-1.2,1.3-2.9,2.1-4.7,2.2
					C130.4,321.9,130.3,321.9,130.2,321.9z M130.2,309.3c-0.1,0-0.2,0-0.2,0c-1.6,0.1-3,0.7-4.1,1.9c-1.1,1.1-1.6,2.6-1.5,4.2
					c0.1,1.6,0.7,3,1.9,4.1c1.1,1.1,2.6,1.6,4.2,1.5c1.6-0.1,3-0.7,4.1-1.9c1.1-1.1,1.6-2.6,1.5-4.2c-0.1-1.6-0.7-3-1.9-4.1
					C133.1,309.9,131.7,309.3,130.2,309.3z"/>
			</g>
		</g>
		<g>
			<g>
				<polyline class="st1" points="514,472.7 518.8,658.8 485.7,658.8 485.7,447.2 486.9,389.1 				"/>
				<polyline class="st1" points="563,472.7 569.7,658.8 600.3,658.8 596.4,554 				"/>
				<polygon class="st3" points="518.6,658.8 509.4,658.8 507.2,553.7 516.4,553.7 				"/>
				<polygon class="st3" points="600.3,658.8 591.1,658.8 587.9,553.7 596.4,554 				"/>
				<path class="st1" d="M523.4,682.8h-56.5c-2,0-3.7-1.6-3.7-3.7v-16.6c0-2,1.6-3.7,3.7-3.7h56.5c2,0,3.7,1.6,3.7,3.7v16.6
					C527,681.1,525.4,682.8,523.4,682.8z"/>
				<path class="st12" d="M485.7,490.2v-43l1.2-58.1l104.9,3.6l-0.1,68.4l4.7,92.9h-30.5l-2.9-81.4v0v0c0.7-12.6-48.4-16.3-49-1.5
					l0.1,1.5l1.8,81.4h-30.1V490.2z"/>
				<path class="st13" d="M583.3,392.7l-96.4-3.3l-1.2,57.8v43V554h21.6l-1.8-81.4l-0.1-1.5c0.3-7.6,13.4-10.4,25.9-9.5
					c14.3-1,32.1,3.4,31.6,11h0l0,0l2.9,81.4h21.9l-4.7-92.9L583.3,392.7z"/>
				<path class="st12" d="M486.8,402.2c45.1,6,92.4,12.4,105,0l0.1-9.5l-105-3.3l0,4.1L486.8,402.2z"/>
				<path class="st3" d="M523.4,658.8v16.4c0,2-1.6,3.7-3.7,3.7h-56.5c0,0,0,0,0,0v0.2c0,2,1.6,3.7,3.7,3.7h56.5
					c2,0,3.7-1.6,3.7-3.7v-16.6C527,660.5,525.4,658.9,523.4,658.8z"/>
				<path class="st7" d="M523.4,683.3h-56.5c-2.3,0-4.1-1.9-4.1-4.1v-16.6c0-2.3,1.9-4.1,4.1-4.1h56.5c2.3,0,4.1,1.9,4.1,4.1v16.6
					C527.5,681.4,525.7,683.3,523.4,683.3z M466.8,659.3c-1.8,0-3.2,1.4-3.2,3.2v16.6c0,1.8,1.4,3.2,3.2,3.2h56.5
					c1.8,0,3.2-1.4,3.2-3.2v-16.6c0-1.8-1.4-3.2-3.2-3.2H466.8z"/>
				<path class="st1" d="M607.9,682.8H566c-1.8,0-3.2-1.4-3.2-3.2V662c0-1.8,1.4-3.2,3.2-3.2h41.9c1.8,0,3.2,1.4,3.2,3.2v17.6
					C611.1,681.4,609.7,682.8,607.9,682.8z"/>
				<path class="st3" d="M608.3,658.8v16.4c0,2-1.2,3.7-2.8,3.7h-42.7c0,0,0,0,0,0v0.2c0,2,1.2,3.7,2.8,3.7h42.7
					c1.5,0,2.8-1.6,2.8-3.7v-16.6C611.1,660.5,609.8,658.9,608.3,658.8z"/>
				<path class="st7" d="M607.9,683.3H566c-2,0-3.7-1.6-3.7-3.7V662c0-2,1.6-3.7,3.7-3.7h41.9c2,0,3.7,1.6,3.7,3.7v17.6
					C611.6,681.6,609.9,683.3,607.9,683.3z M566,659.3c-1.5,0-2.7,1.2-2.7,2.7v17.6c0,1.5,1.2,2.7,2.7,2.7h41.9
					c1.5,0,2.7-1.2,2.7-2.7V662c0-1.5-1.2-2.7-2.7-2.7H566z"/>
				<path class="st6" d="M516.4,578.2h-17.8c-0.5,0-1-0.4-1-1s0.4-1,1-1h17.8c0.5,0,1,0.4,1,1S517,578.2,516.4,578.2z"/>
				<path class="st6" d="M516.4,600.3H498c-0.5,0-1-0.4-1-1s0.4-1,1-1h18.4c0.5,0,1,0.4,1,1S516.9,600.3,516.4,600.3z"/>
				<path class="st6" d="M516.7,624.4h-19.1c-0.5,0-1-0.4-1-1s0.4-1,1-1h19.1c0.5,0,1,0.4,1,1S517.3,624.4,516.7,624.4z"/>
				<path class="st6" d="M518.1,646.1h-19.7c-0.5,0-1-0.4-1-1s0.4-1,1-1h19.7c0.5,0,1,0.4,1,1S518.6,646.1,518.1,646.1z"/>
				<path class="st6" d="M599.4,646.1h-21.8c-0.5,0-1-0.4-1-1s0.4-1,1-1h21.8c0.5,0,1,0.4,1,1S599.9,646.1,599.4,646.1z"/>
				<path class="st6" d="M597.9,624.4h-21c-0.5,0-1-0.4-1-1s0.4-1,1-1h21c0.5,0,1,0.4,1,1S598.4,624.4,597.9,624.4z"/>
				<path class="st6" d="M597.1,600.3h-20.2c-0.5,0-1-0.4-1-1s0.4-1,1-1h20.2c0.5,0,1,0.4,1,1S597.6,600.3,597.1,600.3z"/>
				<path class="st6" d="M596.8,578.2h-19.3c-0.5,0-1-0.4-1-1s0.4-1,1-1h19.3c0.5,0,1,0.4,1,1S597.3,578.2,596.8,578.2z"/>
				<path class="st7" d="M485.7,659.3c-0.3,0-0.5-0.2-0.5-0.5V447.2l1.2-58.1c0-0.3,0.2-0.5,0.5-0.5c0.3,0,0.5,0.2,0.5,0.5
					l-1.2,58.1v211.6C486.2,659.1,486,659.3,485.7,659.3z"/>
				<path class="st7" d="M600.3,659.3h-30.6c-0.3,0-0.5-0.2-0.5-0.5l-6.7-186.2c0-0.3,0.2-0.5,0.5-0.5c0.3,0,0.5,0.2,0.5,0.5
					l6.7,185.7h29.6l-3.9-104.3c0-0.3,0.2-0.5,0.5-0.5c0.3,0,0.5,0.2,0.5,0.5l3.9,104.8c0,0.1,0,0.3-0.1,0.4
					C600.5,659.3,600.4,659.3,600.3,659.3z"/>
				<path class="st7" d="M518.8,659.3c-0.3,0-0.5-0.2-0.5-0.5l-4.8-186.2c0-0.3,0.2-0.5,0.5-0.5c0,0,0,0,0,0c0.3,0,0.5,0.2,0.5,0.5
					l4.8,186.2C519.3,659.1,519.1,659.3,518.8,659.3C518.8,659.3,518.8,659.3,518.8,659.3z"/>
				<path class="st14" d="M596.4,554.5h-30.5c-0.3,0-0.5-0.2-0.5-0.5l-2.9-81.4c-0.2-5.5-12.4-11.2-29.6-10.7
					c-9.1,0.3-18.7,2.9-18.5,9.2l0.1,1.5l2.1,81.4c0,0.1,0,0.3-0.1,0.3c-0.1,0.1-0.2,0.1-0.3,0.1h-30.4c-0.3,0-0.5-0.2-0.5-0.5
					V447.2l1.2-58.1c0-0.1,0.1-0.3,0.2-0.3c0.1-0.1,0.2-0.1,0.3-0.1l104.9,3.6c0.3,0,0.5,0.2,0.5,0.5l-0.1,68.4l4.7,92.9
					c0,0.1,0,0.3-0.1,0.4C596.7,554.5,596.5,554.5,596.4,554.5z M566.4,553.6h29.5l-4.6-92.4l0.1-68l-104-3.5l-1.2,57.6v106.4h29.4
					l-2.1-80.9l-0.1-1.5c-0.2-6,7.1-9.8,19.4-10.2c14.5-0.5,30.3,4.1,30.6,11.6L566.4,553.6z"/>
			</g>
			<g>
				<path class="st1" d="M502,365.6c1.8-5.7,6.9-9.6,12.8-9.9l28.5-1.3l58.5-22.4l-2-15.1l10.9-92.8l19.5,125.3l-82.1,26.4
					L527.8,386l-11,1.1C506.8,388.1,499,375.2,502,365.6z"/>
				<path class="st3" d="M502,365.6c1.8-5.7,6.9-9.6,12.8-9.9l28.5-1.3l58.5-22.4l-2-15.1l10.9-92.8l3.4,21.7l-9.9,58.5l4.1,30.9
					l-58.5,22.4l-28.5,1.3c-5.9,0.3-11.1,4.2-12.8,9.9v0c-1.9,6.3,0.7,13.9,5.5,18.2C505.4,385.6,499.3,374.3,502,365.6z"/>
				<g>
					<path class="st6" d="M629.3,349.7c-0.2,0-0.3,0-0.5-0.1L602,333.3c-0.5-0.3-0.6-0.9-0.3-1.3c0.3-0.5,0.9-0.6,1.3-0.3l26.7,16.3
						c0.5,0.3,0.6,0.9,0.3,1.3C629.9,349.6,629.6,349.7,629.3,349.7z"/>
					<path class="st6" d="M600.6,319.9c-0.5,0-0.9-0.3-0.9-0.8c-0.1-0.5,0.3-1,0.8-1.1l23.6-4c0.5-0.1,1,0.3,1.1,0.8
						c0.1,0.5-0.3,1-0.8,1.1l-23.6,4C600.7,319.9,600.6,319.9,600.6,319.9z"/>
					<path class="st6" d="M602.8,297.5c-0.3,0-0.5-0.1-0.7-0.3c-0.4-0.4-0.3-1,0.1-1.4L614,285c0.4-0.4,1-0.3,1.4,0.1
						c0.4,0.4,0.3,1-0.1,1.4l-11.8,10.8C603.3,297.4,603.1,297.5,602.8,297.5z"/>
					<path class="st6" d="M600.3,352c-0.4,0-0.7-0.2-0.9-0.6l-6.5-14.7c-0.2-0.5,0-1.1,0.5-1.3c0.5-0.2,1.1,0,1.3,0.5l6.5,14.7
						c0.2,0.5,0,1.1-0.5,1.3C600.6,352,600.4,352,600.3,352z"/>
					<path class="st6" d="M580.2,360.9c-0.4,0-0.8-0.3-0.9-0.7l-5-16.8c-0.2-0.5,0.1-1,0.7-1.2c0.5-0.1,1,0.1,1.2,0.7l5,16.8
						c0.2,0.5-0.1,1-0.7,1.2C580.4,360.8,580.3,360.9,580.2,360.9z"/>
					<path class="st6" d="M559.5,363.7c-0.5,0-0.9-0.3-0.9-0.8l-2.3-12.4c-0.1-0.5,0.2-1,0.8-1.1c0.5-0.1,1,0.2,1.1,0.8l2.3,12.4
						c0.1,0.5-0.2,1-0.8,1.1C559.6,363.7,559.5,363.7,559.5,363.7z"/>
				</g>
				<path class="st7" d="M515.7,387.6c-3.9,0-7.6-2-10.5-5.5c-3.9-4.8-5.4-11.3-3.7-16.7c1.8-5.9,7.2-10,13.3-10.2l28.4-1.3
					l58.1-22.3l-1.9-13.9c0-0.3,0.1-0.5,0.4-0.5c0.3,0,0.5,0.1,0.5,0.4l1.9,14.2c0,0.2-0.1,0.4-0.3,0.5l-58.5,22.4c0,0-0.1,0-0.2,0
					l-28.5,1.3c-5.7,0.3-10.7,4.1-12.4,9.6c-1.6,5-0.2,11.2,3.6,15.8c3,3.6,6.9,5.5,10.8,5.1l10.9-1.1l20.2-10.1l81.8-26.3
					l-19.4-124.8c0-0.3,0.1-0.5,0.4-0.6c0.3,0,0.5,0.1,0.6,0.4l19.5,125.3c0,0.2-0.1,0.5-0.3,0.5l-82.1,26.4L528,386.4
					c-0.1,0-0.1,0-0.2,0l-11,1.1C516.5,387.6,516.1,387.6,515.7,387.6z"/>
				<path class="st7" d="M548.1,376.3c-0.2,0-0.4-0.2-0.5-0.4l-4.8-21.4c-0.1-0.3,0.1-0.5,0.4-0.6c0.3-0.1,0.5,0.1,0.6,0.4l4.8,21.4
					c0.1,0.3-0.1,0.5-0.4,0.6C548.1,376.3,548.1,376.3,548.1,376.3z"/>
			</g>
			<path class="st1" d="M555.5,203.7h-40.4c-7.6,0-13.8-6.2-13.8-13.8V58.2c0-7.6,6.2-13.8,13.8-13.8h40.4c7.6,0,13.8,6.2,13.8,13.8
				V190C569.3,197.6,563.1,203.7,555.5,203.7z"/>
			<path class="st1" d="M555.5,203.7h-40.4c-7.6,0-13.8-6.2-13.8-13.8V58.2c0-7.6,6.2-13.8,13.8-13.8h40.4c7.6,0,13.8,6.2,13.8,13.8
				V190C569.3,197.6,563.1,203.7,555.5,203.7z"/>
			<path class="st3" d="M555.5,44.4h-40.4c-7.6,0-13.8,6.2-13.8,13.8V190c0,7.6,6.2,13.8,13.8,13.8h40.4c7.6,0,13.8-6.2,13.8-13.8
				V58.2C569.3,50.6,563.1,44.4,555.5,44.4z M565.8,183.2c0,6.8-5.5,12.3-12.3,12.3h-36.3c-6.8,0-12.3-5.5-12.3-12.3V65
				c0-6.8,5.5-12.3,12.3-12.3h36.3c6.8,0,12.3,5.5,12.3,12.3V183.2z"/>
			<g>
				<path class="st3" d="M569.2,58.2c0-7.6-6.2-13.8-13.8-13.8H515c-7.6,0-13.8,6.2-13.8,13.8v28.3c22.1-7.8,44.7-7.6,67.8,0.1
					L569.2,58.2z"/>
				<path class="st15" d="M501.2,86.6"/>
				<path class="st7" d="M501.2,87.1H501c-0.2,0-0.4-0.2-0.5-0.4c0-0.2,0.1-0.5,0.3-0.5l0.2-0.1c0.1-0.1,0.3,0,0.4,0.1
					c0.1,0.1,0.2,0.2,0.2,0.4C501.7,86.8,501.5,87.1,501.2,87.1z"/>
			</g>
			<path class="st7" d="M555.5,204.2h-40.4c-7.9,0-14.2-6.4-14.2-14.2V58.2c0-7.9,6.4-14.2,14.2-14.2h40.4c7.9,0,14.2,6.4,14.2,14.2
				V190C569.8,197.8,563.4,204.2,555.5,204.2z M515.1,44.9c-7.3,0-13.3,6-13.3,13.3V190c0,7.3,6,13.3,13.3,13.3h40.4
				c7.3,0,13.3-6,13.3-13.3V58.2c0-7.3-6-13.3-13.3-13.3H515.1z"/>
			<path class="st7" d="M569.1,87.1c0,0-0.1,0-0.2,0c-23.2-7.7-46-7.7-67.7,0c-0.3,0.1-0.5,0-0.6-0.3c-0.1-0.3,0-0.5,0.3-0.6
				c21.9-7.7,44.9-7.7,68.3,0c0.3,0.1,0.4,0.4,0.3,0.6C569.5,86.9,569.3,87.1,569.1,87.1z"/>
			<g>
				<polygon class="st8" points="529.3,139.7 524.8,139.7 520.4,139.8 522.6,135.9 524.8,132 527.1,135.9 				"/>
				<path class="st10" d="M520.4,140.2c-0.2,0-0.3-0.1-0.4-0.2c-0.1-0.1-0.1-0.3,0-0.5l4.5-7.8c0.1-0.1,0.2-0.2,0.4-0.2c0,0,0,0,0,0
					c0.2,0,0.3,0.1,0.4,0.2l4.5,7.7c0.1,0.1,0.1,0.3,0,0.5c-0.1,0.1-0.2,0.2-0.4,0.2L520.4,140.2
					C520.4,140.2,520.4,140.2,520.4,140.2z M524.8,133l-3.6,6.3l7.3,0L524.8,133z"/>
			</g>
			<rect x="534.6" y="30.2" width="1" height="14.2"/>
			<g>
				<circle class="st8" cx="535.1" cy="23.9" r="6.3"/>
				<path class="st10" d="M535.1,30.7c-3.8,0-6.8-3.1-6.8-6.8c0-3.8,3.1-6.8,6.8-6.8c3.8,0,6.8,3.1,6.8,6.8
					C541.9,27.7,538.8,30.7,535.1,30.7z M535.1,18.1c-3.2,0-5.9,2.6-5.9,5.9s2.6,5.8,5.9,5.8s5.8-2.6,5.8-5.8S538.3,18.1,535.1,18.1
					z"/>
			</g>
			<rect x="523" y="203.7" class="st1" width="24.5" height="20.4"/>
			<path class="st3" d="M547.8,213.9c-4.8,5.5-16.2,6.8-24.7,0.7l0-10.9h24.5L547.8,213.9z"/>
			<path class="st6" d="M546.2,214.9H524c-0.5,0-1-0.4-1-1c0-0.5,0.4-1,1-1h22.3c0.5,0,1,0.4,1,1
				C547.2,214.5,546.8,214.9,546.2,214.9z"/>
			<path class="st7" d="M547.5,224.6H523c-0.3,0-0.5-0.2-0.5-0.5v-20.4c0-0.3,0.2-0.5,0.5-0.5h24.5c0.3,0,0.5,0.2,0.5,0.5v20.4
				C548,224.4,547.8,224.6,547.5,224.6z M523.5,223.6h23.5v-19.4h-23.5V223.6z"/>
			<polygon class="st16" points="578.8,224.1 535.1,310.3 491.4,224.1 460.2,224.1 485.2,375.2 591.5,393.5 609.9,224.1 			"/>
			<path class="st17" d="M535.1,310.3l-16.5-32.6c-18.8,1.7-52.8-36.8-58.4-53.6l26.6,169.4c45.1,6,92.4,12.4,105,0l14.4-135.2
				C585.1,320.5,553.6,271.4,535.1,310.3z"/>
			<polygon class="st2" points="535.1,310.3 491.4,224.1 578.8,224.1 			"/>
			<path class="st14" d="M535.1,310.8c-0.2,0-0.3-0.1-0.4-0.3L491,224.3c-0.1-0.1-0.1-0.3,0-0.5c0.1-0.1,0.2-0.2,0.4-0.2h87.4
				c0.2,0,0.3,0.1,0.4,0.2c0.1,0.1,0.1,0.3,0,0.5l-43.7,86.2C535.4,310.7,535.3,310.8,535.1,310.8z M492.2,224.6l42.9,84.7
				l42.9-84.7H492.2z"/>
			<g>
				<path class="st13" d="M531.1,224.5c-1.5-1-3.1-2-5-2.8c-8-3.6-16-3.3-17.7,0.7c-0.4,0.9-0.5,2-0.1,3.1c1,3.7,1.2,7.7-0.1,11.4
					c-0.5,1.3-0.5,2.6,0,3.7c1.8,4,9.7,4.3,17.7,0.7c1.8-0.8,3.5-1.7,4.9-2.7c3.3-0.1,5.8-1.2,6.7-3.2c0.6-1.2,0.4-2.7-0.2-4.2
					c0.4-1.3,0.4-2.5,0-3.5C536.4,225.7,534.1,224.7,531.1,224.5z"/>
				<path class="st13" d="M539.5,223.2c1.5-1,3.1-2,5-2.8c8-3.6,16-3.3,17.7,0.7c0.4,0.9,0.5,2,0.1,3.1c-1,3.7-1.2,7.7,0.1,11.4
					c0.5,1.3,0.5,2.6,0,3.7c-1.8,4-9.7,4.3-17.7,0.7c-1.8-0.8-3.5-1.7-4.9-2.7c-3.3-0.1-5.8-1.2-6.7-3.2c-0.6-1.2-0.4-2.7,0.2-4.2
					c-0.4-1.3-0.4-2.5,0-3.5C534.2,224.4,536.5,223.4,539.5,223.2z"/>
			</g>
			<g>
				<path class="st14" d="M515.3,244.3c-0.2,0-0.4,0-0.7,0c-3.5-0.1-6-1.4-6.9-3.5c-0.5-1.2-0.5-2.6,0-4.1c1.2-3.2,1.2-6.9,0.1-11.1
					c-0.3-1.3-0.3-2.4,0.2-3.5c1.9-4.3,10-4.7,18.4-0.9c1.8,0.8,3.4,1.7,4.9,2.7c3.2,0.2,5.5,1.4,6.4,3.4c0.5,1.1,0.5,2.3,0.1,3.7
					c0.7,1.6,0.7,3.1,0.2,4.4c-0.9,2.1-3.4,3.3-6.9,3.5c-1.5,1-3.1,1.9-4.9,2.7C522.4,243.4,518.6,244.3,515.3,244.3z M515.5,219.7
					c-3.3,0-5.8,1-6.7,2.9c-0.4,0.8-0.4,1.8-0.1,2.8c1.2,4.3,1.1,8.2-0.1,11.7c-0.5,1.3-0.5,2.4,0,3.3c0.8,1.7,2.9,2.8,6.1,2.9
					c3.3,0.1,7.2-0.7,11-2.4c1.7-0.8,3.4-1.7,4.8-2.7c0.1-0.1,0.2-0.1,0.3-0.1c3.2-0.1,5.4-1.1,6.2-2.9c0.5-1.1,0.4-2.4-0.2-3.8
					c0-0.1-0.1-0.2,0-0.3c0.4-1.2,0.4-2.3,0-3.2c-0.7-1.7-2.8-2.7-5.7-2.9c-0.1,0-0.2,0-0.2-0.1c-1.5-1-3.1-2-4.9-2.7
					C522.2,220.5,518.5,219.7,515.5,219.7z"/>
				<path class="st14" d="M555.3,242.9c-3.3,0-7.1-0.9-10.8-2.5c-1.7-0.8-3.4-1.7-4.9-2.7c-3.5-0.1-6-1.4-6.9-3.5
					c-0.6-1.3-0.5-2.8,0.2-4.4c-0.4-1.4-0.4-2.6,0.1-3.7c0.9-2,3.1-3.2,6.4-3.4c1.5-1,3.2-2,4.9-2.7c8.4-3.7,16.5-3.3,18.4,0.9
					c0.5,1,0.5,2.2,0.2,3.5c-1.1,4.1-1.1,7.8,0.1,11.1c0.5,1.5,0.6,2.9,0,4.1c-0.9,2.1-3.4,3.3-6.9,3.5
					C555.7,242.9,555.5,242.9,555.3,242.9z M555.1,218.4c-3,0-6.7,0.8-10.4,2.5c-1.7,0.8-3.4,1.7-4.9,2.7c-0.1,0-0.2,0.1-0.2,0.1
					c-2.9,0.2-5,1.2-5.7,2.9c-0.4,0.9-0.4,2,0,3.2c0,0.1,0,0.2,0,0.3c-0.6,1.4-0.7,2.7-0.2,3.8c0.8,1.8,3,2.8,6.2,2.9
					c0.1,0,0.2,0,0.3,0.1c1.5,1,3.1,1.9,4.8,2.7c3.8,1.7,7.7,2.6,11,2.4c3.2-0.1,5.3-1.1,6.1-2.9c0.4-1,0.4-2.1,0-3.3
					c-1.2-3.4-1.3-7.3-0.1-11.7c0.3-1.1,0.2-2-0.1-2.8C560.9,219.3,558.4,218.4,555.1,218.4z M539.5,223.2L539.5,223.2L539.5,223.2z
					"/>
				
					<ellipse transform="matrix(0.7071 -0.7071 0.7071 0.7071 -6.0231 446.9221)" class="st13" cx="536.5" cy="230.7" rx="7.8" ry="7.8"/>
				<path class="st14" d="M536.5,239c-2.1,0-4.2-0.8-5.8-2.4c-1.6-1.6-2.4-3.6-2.4-5.8s0.9-4.3,2.4-5.8c3.2-3.2,8.5-3.2,11.7,0
					c3.2,3.2,3.2,8.5,0,11.7C540.7,238.2,538.6,239,536.5,239z M536.5,223.4c-1.9,0-3.7,0.7-5.2,2.1c-1.4,1.4-2.1,3.2-2.1,5.2
					c0,1.9,0.8,3.8,2.1,5.2c2.8,2.8,7.5,2.8,10.3,0c2.8-2.8,2.8-7.5,0-10.3C540.2,224.2,538.3,223.4,536.5,223.4z"/>
			</g>
			<rect x="534.8" y="310.3" class="st18" width="1" height="38.9"/>
			<circle class="st13" cx="535.3" cy="248.5" r="2.8"/>
			<circle class="st13" cx="535.3" cy="287.6" r="2.8"/>
			<path class="st14" d="M535.3,278.2c-0.3,0-0.5-0.2-0.5-0.5v-19.4c0-0.3,0.2-0.5,0.5-0.5c0.3,0,0.5,0.2,0.5,0.5v19.4
				C535.8,278,535.6,278.2,535.3,278.2z"/>
			<path class="st14" d="M535.3,251.7c-1.8,0-3.2-1.5-3.2-3.2s1.5-3.2,3.2-3.2s3.2,1.5,3.2,3.2S537.1,251.7,535.3,251.7z
				 M535.3,246.2c-1.3,0-2.3,1-2.3,2.3s1,2.3,2.3,2.3c1.3,0,2.3-1,2.3-2.3S536.6,246.2,535.3,246.2z"/>
			<path class="st14" d="M535.3,290.8c-1.8,0-3.2-1.5-3.2-3.2c0-1.8,1.5-3.2,3.2-3.2s3.2,1.5,3.2,3.2
				C538.5,289.3,537.1,290.8,535.3,290.8z M535.3,285.3c-1.3,0-2.3,1-2.3,2.3c0,1.3,1,2.3,2.3,2.3c1.3,0,2.3-1,2.3-2.3
				C537.6,286.3,536.6,285.3,535.3,285.3z"/>
			<path class="st18" d="M560.3,401.1c-20,0-46.1-3.5-71.8-6.8l-2.2-0.3l-4.7-30l-3.6-28.7l-18.5-111.7h32l43.4,85.6l43.4-85.6h32
				l-15,137.9l-3.1,32.2l-0.1,0.1C586.8,399.2,575.3,401.1,560.3,401.1z M487.3,393.1l1.4,0.2c44.3,5.9,90.2,11.9,102.7,0l3.1-31.9
				l14.9-136.8h-30.4l-44,86.8l-44-86.8h-30.3l18.3,110.6l3.6,28.7L487.3,393.1z"/>
			<g>
				<path class="st7" d="M552.3,125.6c-0.2,0-0.3-0.1-0.4-0.3c-1.8-3.4-4-5.3-6.4-5.7c-3.2-0.5-5.9,2-5.9,2c-0.2,0.2-0.5,0.2-0.7,0
					c-0.2-0.2-0.2-0.5,0-0.7c0.1-0.1,3-2.8,6.7-2.3c2.7,0.4,5.1,2.5,7.1,6.2c0.1,0.2,0,0.5-0.2,0.7
					C552.5,125.6,552.4,125.6,552.3,125.6z"/>
				<path class="st7" d="M501.1,123.7c-0.1,0-0.2,0-0.3-0.1c-0.2-0.1-0.3-0.4-0.1-0.7c2.2-3.4,4.7-5.3,7.3-5.6
					c3.4-0.3,5.8,2,5.9,2.1c0.2,0.2,0.2,0.5,0,0.7c-0.2,0.2-0.5,0.2-0.7,0c0,0-2.2-2.2-5.1-1.9c-2.3,0.2-4.6,2-6.6,5.1
					C501.4,123.6,501.3,123.7,501.1,123.7z"/>
				<path class="st7" d="M554.4,110.6c-0.2,0-0.3-0.1-0.4-0.2c-1.6-2.8-6.5-3.8-6.5-3.8c-0.3-0.1-0.4-0.3-0.4-0.6
					c0.1-0.3,0.3-0.4,0.6-0.4c0.2,0,5.3,1.1,7.2,4.3c0.1,0.2,0.1,0.5-0.2,0.7C554.5,110.5,554.4,110.6,554.4,110.6z"/>
				<path class="st7" d="M501,110.6c-0.1,0-0.2,0-0.2-0.1c-0.2-0.1-0.3-0.4-0.2-0.7c1.9-3.2,7-4.2,7.2-4.3c0.3-0.1,0.5,0.1,0.6,0.4
					c0.1,0.3-0.1,0.5-0.4,0.6c0,0-4.9,1-6.5,3.8C501.3,110.5,501.2,110.6,501,110.6z"/>
				<g>
					<path class="st4" d="M509.1,159.6c-0.8-1.8,31.4,2.3,31.4,2.3S523.4,191.7,509.1,159.6z"/>
					<g>
						<path class="st8" d="M512.8,166.5c8.6,13.1,17.7,7.4,23,1.7c-2-1.5-4.7-2.8-7.7-3.7C521.5,162.5,515.2,163.5,512.8,166.5z"/>
						<path class="st10" d="M524.3,174.9c-0.3,0-0.5,0-0.8,0c-4-0.3-7.7-3.1-11.1-8.2c-0.1-0.2-0.1-0.4,0-0.6
							c2.6-3.2,9.1-4.1,15.8-2.2c3,0.8,5.7,2.1,7.9,3.8c0.1,0.1,0.2,0.2,0.2,0.3c0,0.1,0,0.3-0.1,0.4
							C533.4,171.4,529.1,174.9,524.3,174.9z M513.4,166.5c3.1,4.6,6.5,7.1,10.1,7.4c4.5,0.4,8.7-2.8,11.5-5.7
							c-2-1.4-4.5-2.5-7.1-3.3C521.9,163.2,515.9,163.9,513.4,166.5z"/>
					</g>
					<path class="st7" d="M524.3,174.9c-0.2,0-0.4,0-0.5,0c-5.7-0.3-10.8-5.4-15.1-15.2l0,0c-0.1-0.2-0.1-0.4,0.1-0.6
						c1-1.4,20.4,0.8,31.8,2.2c0.2,0,0.3,0.1,0.4,0.3c0.1,0.1,0.1,0.3,0,0.5C540.7,162.6,533.5,174.9,524.3,174.9z M509.7,159.7
						c4.1,9.2,8.9,14,14.1,14.3c7.7,0.4,14.3-9.2,15.9-11.7C528.9,160.9,512.3,159.1,509.7,159.7z"/>
				</g>
			</g>
		</g>
		<path class="st7" d="M246.3,431c-0.1,0-0.2,0-0.3-0.1c-0.1-0.1-0.2-0.3-0.1-0.4l5.7-27c0-0.1,0.1-0.3,0.2-0.3
			c0.2-0.1,17.9-10.1,25.4-19c0.2-0.2,0.5-0.2,0.7-0.1c0.2,0.2,0.2,0.5,0.1,0.7c-7.2,8.5-23.6,18-25.5,19.1l-5.5,26
			c32-9,47.6-30.1,47.8-30.3c0.2-0.2,0.5-0.3,0.7-0.1c0.2,0.2,0.3,0.5,0.1,0.7c-0.2,0.2-16.2,21.9-49.1,30.9
			C246.4,431,246.4,431,246.3,431z"/>
		<path class="st13" d="M238.4,350.2c0,0,14.6,10.2,15.8,27.6c1.3,17.4-10.8,75.5-19.2,79.4c-8.4,3.9-63.9,6.4-71.7,3.1
			c-7.7-3.2-14.2-83.1-3.2-91.5"/>
		<path class="st12" d="M249,361.9L249,361.9c-4.6-7.6-17.9-18.3-17.9-18.3l-70.9,25.1c-7.2,5.5-6.9,41.7-3.7,67
			C170.9,415.6,215.9,357.3,249,361.9z"/>
		<path class="st14" d="M182.4,462.2c-9.3,0-16.7-0.4-19.2-1.5c-3.6-1.5-6-16.1-7.1-24.6c-3.2-24.7-3.7-62,3.8-67.7
			c0.2-0.2,0.5-0.1,0.7,0.1c0.2,0.2,0.1,0.5-0.1,0.7c-6.5,5-7,39.2-3.4,66.8c2.1,16.5,4.8,23.1,6.5,23.9c7.6,3.2,62.9,0.7,71.3-3.1
			c3.5-1.6,8.5-14.8,13-34.3c4.1-18.1,6.6-36.4,6-44.6c-1.2-17-22.8-33.6-23-33.8c-0.2-0.2-0.3-0.5-0.1-0.7c0.2-0.2,0.5-0.3,0.7-0.1
			c0.1,0,5.6,4.3,11.2,10.6c5.2,5.9,11.5,14.8,12.2,23.9c1.3,17.5-10.8,75.8-19.5,79.8C229.5,460.2,201.9,462.2,182.4,462.2z"/>
		<path class="st7" d="M298.3,400.3c-13.5,0-22.1-9.1-22.1-23.2c0-4.4,1.9-5.6,4.2-6.9c1.2-0.7,2.6-1.6,3.9-3.1
			c0.7-0.8,1.4-1.7,2.1-2.7c3.4-4.5,7.6-10.2,13.5-10.2c14.4,0,23.7,8.4,23.7,21.5C323.6,389.2,312.3,400.3,298.3,400.3z
			 M299.9,355.1c-5.5,0-9.5,5.4-12.8,9.8c-0.7,1-1.4,1.9-2.1,2.8c-1.4,1.7-2.8,2.5-4.1,3.3c-2.2,1.3-3.7,2.2-3.7,6.1
			c0,13.5,8.3,22.2,21.2,22.2c13.4,0,24.3-10.6,24.3-23.7C322.6,363,313.9,355.1,299.9,355.1z"/>
		<g>
			<g>
				<polygon class="st16" points="364.2,225.8 362.9,224.2 386.6,203.7 388.7,206.3 				"/>
				<path class="st19" d="M364.2,226.3c-0.1,0-0.3-0.1-0.4-0.2l-1.3-1.6c-0.2-0.2-0.1-0.5,0.1-0.7l23.6-20.5
					c0.1-0.1,0.2-0.1,0.4-0.1c0.1,0,0.2,0.1,0.3,0.2l2.1,2.6c0.1,0.1,0.1,0.2,0.1,0.4c0,0.1-0.1,0.2-0.2,0.3l-24.5,19.5
					C364.5,226.3,364.3,226.3,364.2,226.3z M363.6,224.3l0.7,0.9l23.7-18.9l-1.5-1.8L363.6,224.3z"/>
			</g>
			<g>
				<polygon class="st16" points="366.6,233.4 366.4,231.3 383.7,230 384,233.3 				"/>
				<path class="st19" d="M366.6,233.8c-0.2,0-0.5-0.2-0.5-0.4l-0.2-2c0-0.1,0-0.3,0.1-0.4c0.1-0.1,0.2-0.2,0.3-0.2l17.3-1.3
					c0.3,0,0.5,0.2,0.5,0.4l0.3,3.3c0,0.1,0,0.3-0.1,0.4c-0.1,0.1-0.2,0.2-0.4,0.2L366.6,233.8C366.6,233.8,366.6,233.8,366.6,233.8
					z M367,231.8l0.1,1.1l16.4,0l-0.2-2.3L367,231.8z"/>
			</g>
			<g>
				<polygon class="st16" points="356,220.5 358,221 362.5,203.3 359.3,202.4 				"/>
				<path class="st19" d="M358,221.5c0,0-0.1,0-0.1,0l-2-0.6c-0.2-0.1-0.4-0.3-0.3-0.5l3.3-18c0-0.1,0.1-0.3,0.2-0.3
					c0.1-0.1,0.3-0.1,0.4-0.1l3.2,0.9c0.3,0.1,0.4,0.3,0.3,0.6l-4.5,17.7c0,0.1-0.1,0.2-0.2,0.3C358.1,221.5,358.1,221.5,358,221.5z
					 M356.6,220.1l1.1,0.3l4.3-16.7l-2.3-0.6L356.6,220.1z"/>
			</g>
		</g>
		<g>
			<g>
				<polygon class="st16" points="306.7,230.5 308.2,229 286.7,206.3 284.3,208.6 				"/>
				<path class="st19" d="M306.7,231c-0.1,0-0.2,0-0.3-0.1L284,209c-0.1-0.1-0.1-0.2-0.1-0.3c0-0.1,0.1-0.3,0.1-0.3l2.4-2.4
					c0.1-0.1,0.2-0.1,0.3-0.1c0.1,0,0.3,0.1,0.3,0.2l21.4,22.8c0.2,0.2,0.2,0.5,0,0.7l-1.5,1.4C306.9,230.9,306.8,231,306.7,231z
					 M285,208.6l21.7,21.2l0.8-0.8L286.7,207L285,208.6z"/>
			</g>
			<g>
				<polygon class="st16" points="303.6,237.8 304,235.7 286.9,232.7 286.3,236 				"/>
				<path class="st19" d="M303.6,238.2C303.6,238.2,303.5,238.2,303.6,238.2l-17.3-1.8c-0.1,0-0.3-0.1-0.3-0.2s-0.1-0.2-0.1-0.4
					l0.6-3.3c0-0.3,0.3-0.4,0.6-0.4l17,3.1c0.1,0,0.2,0.1,0.3,0.2c0.1,0.1,0.1,0.2,0.1,0.4l-0.4,2
					C304,238.1,303.8,238.2,303.6,238.2z M286.9,235.5l16.3,1.7l0.2-1.1l-16.1-2.9L286.9,235.5z"/>
			</g>
			<g>
				<polygon class="st16" points="315.4,226 313.4,226.4 310.7,208.3 314,207.7 				"/>
				<path class="st19" d="M313.4,226.8c-0.1,0-0.2,0-0.3-0.1c-0.1-0.1-0.2-0.2-0.2-0.3l-2.7-18c0-0.3,0.1-0.5,0.4-0.5l3.3-0.6
					c0.1,0,0.3,0,0.4,0.1c0.1,0.1,0.2,0.2,0.2,0.3l1.4,18.3c0,0.2-0.2,0.5-0.4,0.5L313.4,226.8C313.5,226.8,313.4,226.8,313.4,226.8
					z M311.3,208.7l2.6,17.1l1.1-0.2l-1.3-17.3L311.3,208.7z"/>
			</g>
		</g>
		<g>
			<g>
				<path class="st1" d="M354.7,291.1l1.9-0.7c8.2-3,12.1-11.5,8.9-19.1l-15.3-35.8c-3.2-7.5-12.4-11.2-20.6-8.3l-1.9,0.7
					c-8.2,3-12.1,11.5-8.9,19.1l15.3,35.8C337.3,290.4,346.5,294.1,354.7,291.1z"/>
			</g>
			<path class="st3" d="M363.9,276.5l-1.9,0.7c-8.2,3-17.4-0.7-20.6-8.3l-15.3-35.8c-0.5-1.3-0.9-2.6-1-3.9
				c-6.3,3.7-9.1,11.1-6.3,17.8l15.3,35.8c3.2,7.5,12.4,11.2,20.6,8.3l1.9-0.7c6.8-2.5,10.6-8.8,9.9-15.1
				C365.7,275.8,364.8,276.2,363.9,276.5z"/>
			<g>
				<path class="st7" d="M348.9,292.6c-6.5,0-12.7-3.6-15.2-9.6l-15.3-35.8c-1.5-3.6-1.5-7.6,0-11.2c1.7-3.9,5-6.9,9.2-8.5l1.9-0.7
					c8.4-3.1,17.9,0.8,21.2,8.5l15.3,35.8c1.5,3.6,1.5,7.6,0,11.2c-1.7,3.9-5,6.9-9.2,8.5l-1.9,0.7
					C352.9,292.3,350.9,292.6,348.9,292.6z M335.4,226.8c-1.9,0-3.8,0.3-5.7,1l-1.9,0.7c-4,1.5-7,4.3-8.6,7.9
					c-1.5,3.4-1.5,7.1,0,10.5l15.3,35.8c3.1,7.3,12.1,10.9,20,8l0,0l1.9-0.7c4-1.5,7-4.3,8.6-7.9c1.5-3.4,1.5-7.1,0-10.5l-15.3-35.8
					C347.4,230.2,341.6,226.8,335.4,226.8z"/>
			</g>
		</g>
		<g>
			<g>
				<path class="st1" d="M314.5,281.5c0,0-148.4,61.6-165.9,85.3c-8.2,9.4-0.6,17.7,5.7,15.5c6.3-2.1,142.3-77.8,176.8-73.9"/>
			</g>
			<g>
				<path class="st3" d="M314.8,302.1c-46.6,8.7-159,71.1-164.7,73.1c-1.7,0.6-3.4,0.4-5-0.3c-0.1,5.5,4.9,9,9.3,7.5
					c5.9-2,125.8-68.6,169.2-73.8"/>
			</g>
			<g>
				<path class="st6" d="M173.9,372.3c-0.3,0-0.6-0.1-0.8-0.4l-5.6-7.5c-0.3-0.4-0.2-1,0.2-1.3c0.4-0.3,1-0.2,1.3,0.2l5.6,7.5
					c0.3,0.4,0.2,1-0.2,1.3C174.3,372.3,174.1,372.3,173.9,372.3z"/>
				<path class="st6" d="M188.3,364.9c-0.3,0-0.6-0.1-0.8-0.4l-5.6-7.5c-0.3-0.4-0.2-1,0.2-1.3c0.4-0.3,1-0.2,1.3,0.2l5.6,7.5
					c0.3,0.4,0.2,1-0.2,1.3C188.7,364.9,188.5,364.9,188.3,364.9z"/>
				<path class="st6" d="M203,357.5c-0.3,0-0.6-0.1-0.8-0.4l-5.6-7.5c-0.3-0.4-0.2-1,0.2-1.3c0.4-0.3,1-0.2,1.3,0.2l5.6,7.5
					c0.3,0.4,0.2,1-0.2,1.3C203.4,357.4,203.2,357.5,203,357.5z"/>
				<path class="st6" d="M217.4,350.1c-0.3,0-0.6-0.1-0.8-0.4l-5.6-7.5c-0.3-0.4-0.2-1,0.2-1.3c0.4-0.3,1-0.2,1.3,0.2l5.6,7.5
					c0.3,0.4,0.2,1-0.2,1.3C217.8,350,217.6,350.1,217.4,350.1z"/>
				<path class="st6" d="M234.9,341.8c-0.3,0-0.6-0.1-0.8-0.4l-5.6-7.5c-0.3-0.4-0.2-1,0.2-1.3c0.4-0.3,1-0.2,1.3,0.2l5.6,7.5
					c0.3,0.4,0.2,1-0.2,1.3C235.3,341.8,235.1,341.8,234.9,341.8z"/>
				<path class="st6" d="M251.7,334.2c-0.3,0-0.6-0.1-0.8-0.4l-5.6-7.5c-0.3-0.4-0.2-1,0.2-1.3c0.4-0.3,1-0.2,1.3,0.2l5.6,7.5
					c0.3,0.4,0.2,1-0.2,1.3C252.1,334.1,251.9,334.2,251.7,334.2z"/>
				<path class="st6" d="M269.3,326.2c-0.3,0-0.6-0.1-0.8-0.4l-5.6-7.5c-0.3-0.4-0.2-1,0.2-1.3c0.4-0.3,1-0.2,1.3,0.2l5.6,7.5
					c0.3,0.4,0.2,1-0.2,1.3C269.7,326.2,269.5,326.2,269.3,326.2z"/>
				<path class="st6" d="M285.8,319.6c-0.3,0-0.6-0.1-0.8-0.4l-7.9-10.5c-0.3-0.4-0.2-1,0.2-1.3c0.4-0.3,1-0.2,1.3,0.2l7.9,10.5
					c0.3,0.4,0.2,1-0.2,1.3C286.2,319.6,286,319.6,285.8,319.6z"/>
				<path class="st6" d="M302.6,314.1c-0.3,0-0.6-0.1-0.8-0.4l-7.9-10.5c-0.3-0.4-0.2-1,0.2-1.3c0.4-0.3,1-0.2,1.3,0.2l7.9,10.5
					c0.3,0.4,0.2,1-0.2,1.3C303,314,302.8,314.1,302.6,314.1z"/>
			</g>
			<path class="st7" d="M152.3,383.2c-2.4,0-4.8-1.3-6.3-3.5c-2.5-3.7-1.7-8.7,2.3-13.2c7.3-9.8,37.4-27.2,89.6-51.6
				c38.8-18.2,76-33.6,76.4-33.8c0.2-0.1,0.5,0,0.6,0.3c0.1,0.2,0,0.5-0.3,0.6c-1.5,0.6-148.5,61.9-165.7,85.1
				c-3.7,4.2-4.5,8.7-2.2,12.1c1.7,2.5,4.7,3.6,7.4,2.7c1.1-0.4,6.7-3.3,15.2-7.7c36-18.7,120.2-62.5,154.8-66.2
				c0.3,0,0.5,0.2,0.5,0.4c0,0.3-0.2,0.5-0.4,0.5c-34.3,3.6-118.5,47.4-154.4,66.1c-8.8,4.6-14.2,7.4-15.4,7.8
				C153.8,383,153,383.2,152.3,383.2z"/>
		</g>
		<g>
			<g>
				<path class="st1" d="M330.6,311.4l-0.3,0c-7.4,0.9-14.2-4.5-15-11.9l-4.4-38.3c-0.9-7.4,4.5-14.2,11.9-15l0.3,0
					c7.4-0.9,14.2,4.5,15,11.9l4.4,38.3C343.3,303.8,338,310.6,330.6,311.4z"/>
			</g>
			<path class="st3" d="M327.7,246.5c1.8,2,3,4.6,3.3,7.4l4.4,38.3c0.9,7.4-4.5,14.2-11.9,15l-0.3,0c-1.6,0.2-3.2,0.1-4.7-0.3
				c2.8,3.2,7.1,5,11.7,4.5l0.3,0c7.4-0.9,12.8-7.6,11.9-15l-4.4-38.3C337.4,252.3,333.1,247.8,327.7,246.5z"/>
			<g>
				<path class="st7" d="M328.7,312c-3.1,0-6.2-1.1-8.7-3c-2.9-2.3-4.8-5.7-5.2-9.4l-4.4-38.3c-0.9-7.7,4.6-14.7,12.3-15.6l0.3,0
					c7.7-0.9,14.7,4.6,15.6,12.3l4.4,38.3c0.4,3.7-0.6,7.4-2.9,10.3c-2.3,2.9-5.7,4.8-9.4,5.2l0,0l-0.3,0
					C329.8,312,329.2,312,328.7,312z M330.6,311.4L330.6,311.4L330.6,311.4z M324.6,246.6c-0.5,0-1,0-1.5,0.1l-0.3,0
					c-7.2,0.8-12.3,7.3-11.5,14.5l4.4,38.3c0.4,3.5,2.1,6.6,4.9,8.7c2.7,2.2,6.2,3.1,9.6,2.7l0.3,0c3.5-0.4,6.6-2.1,8.7-4.9
					c2.2-2.7,3.1-6.2,2.7-9.6l-4.4-38.3C336.8,251.5,331.1,246.6,324.6,246.6z"/>
			</g>
		</g>
	</g>
</g>
</svg>
