<svg xmlns="http://www.w3.org/2000/svg" viewBox="0 0 792.63 436.8"><defs><style>.cls-1,.cls-2{isolation:isolate;}.cls-2{fill:#a9d7f3;fill-rule:evenodd;opacity:0.5;}.cls-3{fill:#d0e4f1;}.cls-4{fill:#a1c2d8;}.cls-5{fill:#baced8;}.cls-6{fill:#154a66;}.cls-7{fill:#3f565b;}.cls-17,.cls-8{fill:#e2e4e6;}.cls-8{mix-blend-mode:multiply;}.cls-9{fill:#ffdc64;}.cls-10{fill:#c74927;}.cls-11{fill:#faac30;}.cls-12{fill:#f26f42;}.cls-13{fill:#999;}.cls-14{fill:#cdd0d2;}.cls-15{fill:#fff;}.cls-16{fill:#f1f2f3;}.cls-18{fill:#2dadff;}.cls-19{fill:#e7f1f8;}.cls-20{fill:#d0e4f0;}.cls-21{fill:#40565b;}.cls-22{fill:#e5eff6;}.cls-23{opacity:0.07;}.cls-24{fill:#3f555a;}.cls-25{fill:#d56;}.cls-26{fill:#bc1a3c;}.cls-27{fill:#29b99a;}</style></defs><title>home-illustration-features-best-practice</title><g class="cls-1"><g id="Layer_1" data-name="Layer 1"><path class="cls-2" d="M211.66,87.07q80.53,25.39-39.7,58.78C6.73,182.82-37.59,209.67,31,244.12c36.75,18.45,89.5,15.41,115.47,57.1s-106.53,58.66,0,94.17c71,23.67,518.47,48.45,525-5.57s199.7-152,84.66-192.82-239-57.87-204.73-109.94S467.24-8.83,392.12,1.53,381.17,35,340.29,35,131.13,61.68,211.66,87.07Z" transform="translate(0.01)"/><rect class="cls-3" x="341.74" y="348.3" width="252.86" height="56.42"/><path class="cls-4" d="M594.59,405.24H341.73a.51.51,0,0,1-.51-.51V348.3a.51.51,0,0,1,.51-.51H594.59a.51.51,0,0,1,.51.51v56.42A.51.51,0,0,1,594.59,405.24Zm-252.35-1H594.08v-55.4H342.24Z" transform="translate(0.01)"/><rect class="cls-3" x="175.58" y="186.8" width="90.16" height="56.77"/><rect class="cls-3" x="200.98" y="243.57" width="139.06" height="56.77"/><rect class="cls-3" x="149.06" y="300.34" width="139.06" height="56.77"/><rect class="cls-3" x="287.98" y="300.34" width="139.06" height="56.77"/><path class="cls-5" d="M655.75,388.05V238.33c0-6.11-4.9-10.59-11-10.59H493.88a125.65,125.65,0,1,0-94,95.18v65.13h-6.59v7c2.2,2.55,5.36,3.42,8.92,3.42H652.89c3.56,0,6.15-.87,8.35-3.42v-7Z" transform="translate(0.01)"/><path class="cls-4" d="M265.73,244.08H175.57a.51.51,0,0,1-.51-.51V186.8a.51.51,0,0,1,.51-.51h90.16a.51.51,0,0,1,.51.51v56.77A.51.51,0,0,1,265.73,244.08Zm-89.65-1h89.14V187.31H176.08Z" transform="translate(0.01)"/><path class="cls-4" d="M340,300.85H201a.51.51,0,0,1-.51-.51V243.57a.51.51,0,0,1,.51-.51H340a.51.51,0,0,1,.51.51v56.77A.51.51,0,0,1,340,300.85Zm-138.55-1h138V244.08h-138Z" transform="translate(0.01)"/><path class="cls-4" d="M288.11,357.62H149a.51.51,0,0,1-.51-.51V300.34a.51.51,0,0,1,.51-.51H288.11a.51.51,0,0,1,.51.51v56.77A.51.51,0,0,1,288.11,357.62Zm-138.55-1h138V300.85h-138Z" transform="translate(0.01)"/><path class="cls-4" d="M427,357.62H288a.51.51,0,0,1-.51-.51V300.34a.51.51,0,0,1,.51-.51H427a.51.51,0,0,1,.51.51v56.77A.51.51,0,0,1,427,357.62Zm-138.55-1h138V300.85h-138Z" transform="translate(0.01)"/><rect class="cls-3" x="388.1" y="72.96" width="139.06" height="56.77"/><rect class="cls-3" x="336.17" y="129.73" width="139.06" height="56.77"/><polyline class="cls-3" points="475.1 186.5 475.1 129.73 614.16 129.73 614.16 186.5"/><path class="cls-4" d="M117,180a2.59,2.59,0,1,1,2.59-2.59A2.59,2.59,0,0,1,117,180Zm0-4.15a1.56,1.56,0,1,0,1.56,1.56A1.57,1.57,0,0,0,117,175.87Z" transform="translate(0.01)"/><path class="cls-4" d="M142.37,180a2.59,2.59,0,1,1,2.59-2.59A2.59,2.59,0,0,1,142.37,180Zm0-4.15a1.56,1.56,0,1,0,1.56,1.56A1.57,1.57,0,0,0,142.37,175.87Z" transform="translate(0.01)"/><path class="cls-4" d="M167.77,180a2.59,2.59,0,1,1,2.59-2.59A2.59,2.59,0,0,1,167.77,180Zm0-4.15a1.56,1.56,0,1,0,1.56,1.56A1.57,1.57,0,0,0,167.77,175.87Z" transform="translate(0.01)"/><path class="cls-4" d="M193.17,180a2.59,2.59,0,1,1,2.59-2.59A2.59,2.59,0,0,1,193.17,180Zm0-4.15a1.56,1.56,0,1,0,1.56,1.56A1.57,1.57,0,0,0,193.17,175.87Z" transform="translate(0.01)"/><path class="cls-4" d="M218.58,180a2.59,2.59,0,1,1,2.59-2.59A2.59,2.59,0,0,1,218.58,180Zm0-4.15a1.56,1.56,0,1,0,1.56,1.56A1.57,1.57,0,0,0,218.58,175.87Z" transform="translate(0.01)"/><path class="cls-4" d="M244,180a2.59,2.59,0,1,1,2.59-2.59A2.59,2.59,0,0,1,244,180Zm0-4.15a1.56,1.56,0,1,0,1.56,1.56A1.57,1.57,0,0,0,244,175.87Z" transform="translate(0.01)"/><path class="cls-4" d="M253.52,187.31H114.89a.51.51,0,1,1,0-1H253.52a.51.51,0,0,1,0,1Z" transform="translate(0.01)"/><path class="cls-4" d="M641.63,198.76a2.59,2.59,0,1,1,2.59-2.59A2.59,2.59,0,0,1,641.63,198.76Zm0-4.15a1.56,1.56,0,1,0,1.56,1.56A1.57,1.57,0,0,0,641.63,194.6Z" transform="translate(0.01)"/><path class="cls-4" d="M616.22,198.76a2.59,2.59,0,1,1,2.59-2.59A2.59,2.59,0,0,1,616.22,198.76Zm0-4.15a1.56,1.56,0,1,0,1.56,1.56A1.57,1.57,0,0,0,616.22,194.6Z" transform="translate(0.01)"/><path class="cls-4" d="M590.82,198.76a2.59,2.59,0,1,1,2.59-2.59A2.59,2.59,0,0,1,590.82,198.76Zm0-4.15a1.56,1.56,0,1,0,1.56,1.56A1.57,1.57,0,0,0,590.82,194.6Z" transform="translate(0.01)"/><path class="cls-4" d="M565.42,198.76a2.59,2.59,0,1,1,2.59-2.59A2.59,2.59,0,0,1,565.42,198.76Zm0-4.15a1.56,1.56,0,1,0,1.56,1.56A1.57,1.57,0,0,0,565.42,194.6Z" transform="translate(0.01)"/><path class="cls-4" d="M540,198.76a2.59,2.59,0,1,1,2.59-2.59A2.59,2.59,0,0,1,540,198.76Zm0-4.15a1.56,1.56,0,1,0,1.56,1.56A1.57,1.57,0,0,0,540,194.6Z" transform="translate(0.01)"/><path class="cls-4" d="M514.62,198.76a2.59,2.59,0,1,1,2.59-2.59A2.59,2.59,0,0,1,514.62,198.76Zm0-4.15a1.56,1.56,0,1,0,1.56,1.56A1.57,1.57,0,0,0,514.62,194.6Z" transform="translate(0.01)"/><path class="cls-4" d="M643.7,187.31H505.07a.51.51,0,0,1,0-1H643.7a.51.51,0,1,1,0,1Z" transform="translate(0.01)"/><path class="cls-4" d="M527.15,130.24H388.09a.51.51,0,0,1-.51-.51V73a.51.51,0,0,1,.51-.51H527.15a.51.51,0,0,1,.51.51v56.77A.51.51,0,0,1,527.15,130.24Zm-138.55-1h138V73.47h-138Z" transform="translate(0.01)"/><path class="cls-4" d="M475.23,187H336.16a.51.51,0,0,1-.51-.51V129.73a.51.51,0,0,1,.51-.51H475.23a.51.51,0,0,1,.51.51V186.5A.51.51,0,0,1,475.23,187Zm-138.55-1h138V130.24h-138Z" transform="translate(0.01)"/><path class="cls-4" d="M614.15,187a.51.51,0,0,1-.51-.51V130.24h-138V186.5a.51.51,0,0,1-1,0V129.73a.51.51,0,0,1,.51-.51H614.15a.51.51,0,0,1,.51.51V186.5A.51.51,0,0,1,614.15,187Z" transform="translate(0.01)"/><circle class="cls-6" cx="379.69" cy="188.7" r="125.77"/><path class="cls-7" d="M379.68,315A126.28,126.28,0,1,1,506,188.7,126.43,126.43,0,0,1,379.68,315Zm0-251.54A125.26,125.26,0,1,0,504.94,188.7,125.4,125.4,0,0,0,379.68,63.44Z" transform="translate(0.01)"/><circle class="cls-8" cx="371.1" cy="200.47" r="101.29"/><path class="cls-9" d="M379.3,62.93A125.77,125.77,0,1,0,505.07,188.7,125.77,125.77,0,0,0,379.3,62.93Zm0,227.07A101.29,101.29,0,1,1,480.59,188.7,101.29,101.29,0,0,1,379.3,290Z" transform="translate(0.01)"/><path class="cls-10" d="M379.3,315A126.28,126.28,0,1,1,505.58,188.7,126.43,126.43,0,0,1,379.3,315Zm0-251.54A125.26,125.26,0,1,0,504.56,188.7,125.4,125.4,0,0,0,379.3,63.44Zm0,227.07A101.81,101.81,0,1,1,481.1,188.7,101.92,101.92,0,0,1,379.3,290.5Zm0-202.59A100.78,100.78,0,1,0,480.08,188.7,100.9,100.9,0,0,0,379.3,87.91Z" transform="translate(0.01)"/><circle class="cls-11" cx="379.31" cy="74.28" r="6.15"/><path class="cls-12" d="M379.3,80.94A6.66,6.66,0,1,1,386,74.28,6.67,6.67,0,0,1,379.3,80.94Zm0-12.3a5.64,5.64,0,1,0,5.64,5.64A5.65,5.65,0,0,0,379.3,68.64Z" transform="translate(0.01)"/><circle class="cls-11" cx="379.31" cy="301.6" r="6.15"/><path class="cls-12" d="M379.3,308.26A6.66,6.66,0,1,1,386,301.6,6.67,6.67,0,0,1,379.3,308.26Zm0-12.3a5.64,5.64,0,1,0,5.64,5.64A5.65,5.65,0,0,0,379.3,296Z" transform="translate(0.01)"/><circle class="cls-11" cx="265.65" cy="187.94" r="6.15"/><path class="cls-12" d="M265.64,194.6a6.66,6.66,0,1,1,6.66-6.66A6.67,6.67,0,0,1,265.64,194.6Zm0-12.3a5.64,5.64,0,1,0,5.64,5.64A5.65,5.65,0,0,0,265.64,182.3Z" transform="translate(0.01)"/><circle class="cls-11" cx="492.97" cy="187.94" r="6.15"/><path class="cls-12" d="M493,194.6a6.66,6.66,0,1,1,6.66-6.66A6.67,6.67,0,0,1,493,194.6Zm0-12.3a5.64,5.64,0,1,0,5.64,5.64A5.65,5.65,0,0,0,493,182.3Z" transform="translate(0.01)"/><circle class="cls-11" cx="298.93" cy="107.57" r="6.15" transform="translate(11.5 242.88) rotate(-45)"/><path class="cls-12" d="M298.93,114.23a6.66,6.66,0,1,1,4.71-1.95A6.64,6.64,0,0,1,298.93,114.23Zm0-12.3a5.64,5.64,0,1,0,4,1.65A5.62,5.62,0,0,0,298.93,101.94Z" transform="translate(0.01)"/><circle class="cls-11" cx="459.67" cy="268.31" r="6.15" transform="translate(-55.08 403.62) rotate(-45)"/><path class="cls-12" d="M459.67,275a6.66,6.66,0,1,1,4.71-1.95A6.64,6.64,0,0,1,459.67,275Zm0-12.3a5.64,5.64,0,1,0,4,1.65A5.6,5.6,0,0,0,459.67,262.67Z" transform="translate(0.01)"/><circle class="cls-11" cx="459.67" cy="107.57" r="6.15" transform="translate(58.58 356.54) rotate(-45)"/><path class="cls-12" d="M459.67,114.23a6.66,6.66,0,1,1,4.71-2h0A6.62,6.62,0,0,1,459.67,114.23Zm0-12.3a5.64,5.64,0,1,0,4,9.63h0a5.64,5.64,0,0,0-4-9.63Z" transform="translate(0.01)"/><circle class="cls-11" cx="298.93" cy="268.31" r="6.15" transform="translate(-102.16 289.96) rotate(-45)"/><path class="cls-12" d="M298.93,275a6.66,6.66,0,1,1,4.71-1.95h0A6.64,6.64,0,0,1,298.93,275Zm0-12.3a5.64,5.64,0,1,0,4,1.65A5.62,5.62,0,0,0,298.93,262.68Z" transform="translate(0.01)"/><path class="cls-13" d="M375.42,136.95a6.87,6.87,0,1,1,6.87-6.87A6.88,6.88,0,0,1,375.42,136.95Zm0-12.72a5.85,5.85,0,1,0,5.85,5.85A5.85,5.85,0,0,0,375.42,124.23Z" transform="translate(0.01)"/><path class="cls-14" d="M344,126.74l-.55.12a35.25,35.25,0,0,0-25.94,26.63A72.61,72.61,0,0,0,332,143.3C339.66,136.38,344.71,129.32,344,126.74Z" transform="translate(0.01)"/><path class="cls-13" d="M316.81,154.43l.23-1a35.58,35.58,0,0,1,26.32-27l.33-.07.72-.16.13.48c.84,3.21-5.48,11-12.14,17.07a73.16,73.16,0,0,1-14.61,10.27Zm26.77-27.06a34.55,34.55,0,0,0-25.29,25.16,74.36,74.36,0,0,0,13.4-9.6C339.25,136.06,343.48,129.88,343.58,127.36Z" transform="translate(0.01)"/><path class="cls-15" d="M358.17,126.37a35.09,35.09,0,0,0-14.14.36c.67,2.58-4.37,9.64-12,16.57a72.61,72.61,0,0,1-14.5,10.19,35,35,0,0,0-.36,13.24,110.85,110.85,0,0,0,22.55-15.52C349.39,142.43,355.85,132.22,358.17,126.37Z" transform="translate(0.01)"/><path class="cls-13" d="M316.79,167.5l-.11-.69a35.46,35.46,0,0,1,.37-13.43l.05-.24.22-.11a72,72,0,0,0,14.38-10.11c8.11-7.37,12.39-14,11.84-16.06l-.13-.51.51-.12a35.51,35.51,0,0,1,14.35-.37l.62.11-.23.58c-2.52,6.35-9.25,16.55-18.58,25a112,112,0,0,1-22.66,15.6Zm1.2-13.67a34.4,34.4,0,0,0-.41,12.12,111.34,111.34,0,0,0,21.81-15.12c8.93-8.11,15.43-17.8,18.08-24.07a34.43,34.43,0,0,0-12.86.36c.12,3.47-5.89,10.8-12.22,16.55A73.81,73.81,0,0,1,318,153.84Z" transform="translate(0.01)"/><path class="cls-16" d="M387.23,161a35.38,35.38,0,0,0-4.53-17.2c-13.53,15.9-35.13,26.58-49.36,32.34l27.58-5.64Z" transform="translate(0.01)"/><path class="cls-13" d="M333.44,176.65l-.29-1c15.14-6.12,36-16.68,49.16-32.2l.48-.56.36.64a35.89,35.89,0,0,1,4.6,17.44v.36L361.09,171Zm49.17-31.95c-12,13.79-29.84,23.62-44.26,29.9l22.47-4.6,25.9-9.36a34.88,34.88,0,0,0-4.11-15.94Z" transform="translate(0.01)"/><path class="cls-17" d="M382.7,143.8a35.33,35.33,0,0,0-24.53-17.43c-2.32,5.85-8.78,16.06-18.45,24.84a110.85,110.85,0,0,1-22.55,15.52c.15.95.34,1.89.57,2.84a47.49,47.49,0,0,0,3.53,9l12.06-2.47C347.58,170.39,369.18,159.7,382.7,143.8Z" transform="translate(0.01)"/><path class="cls-13" d="M321,179.19l-.18-.34a48.18,48.18,0,0,1-3.57-9.16c-.22-.87-.41-1.81-.58-2.88l-.06-.37.33-.17a110.87,110.87,0,0,0,22.44-15.44c9.21-8.37,15.84-18.41,18.32-24.65l.15-.39.41.07a35.65,35.65,0,0,1,24.88,17.68l.17.31-.23.27c-13.34,15.67-34.31,26.32-49.56,32.48ZM317.74,167c.15.89.32,1.69.5,2.43a46.93,46.93,0,0,0,3.31,8.59l11.68-2.39c15-6.06,35.63-16.53,48.84-31.9A34.62,34.62,0,0,0,358.49,127c-2.64,6.37-9.28,16.33-18.42,24.64A112.28,112.28,0,0,1,317.74,167Z" transform="translate(0.01)"/><path class="cls-14" d="M327.94,186.87a35.21,35.21,0,0,0,51.58-3.82C361.69,191.33,337.72,188.53,327.94,186.87Z" transform="translate(0.01)"/><path class="cls-13" d="M351.94,196.85a35.7,35.7,0,0,1-24.35-9.61.51.51,0,0,1,.43-.88c9.5,1.61,33.52,4.47,51.28-3.78a.51.51,0,0,1,.62.78,35.42,35.42,0,0,1-19.33,12.42A35.88,35.88,0,0,1,351.94,196.85Zm-22.34-9.2a34.69,34.69,0,0,0,48.1-3.25C361,191.25,339.73,189.22,329.6,187.66Z" transform="translate(0.01)"/><path class="cls-15" d="M323,181.13a35.14,35.14,0,0,0,5,5.74c9.78,1.66,33.75,4.46,51.58-3.82A35.33,35.33,0,0,0,387,165.2Z" transform="translate(0.01)"/><path class="cls-13" d="M349.2,189.2a131.11,131.11,0,0,1-21.35-1.83l-.15,0-.11-.1a35.73,35.73,0,0,1-5-5.82l-.42-.61,65.47-16.29-.09.73a35.79,35.79,0,0,1-7.59,18.11l-.08.09-.11.05C370.27,187.91,359.08,189.2,349.2,189.2Zm-21-2.81c9.58,1.61,33.36,4.39,51-3.75a34.79,34.79,0,0,0,7.2-16.76l-62.58,15.57A34.9,34.9,0,0,0,328.17,186.39Z" transform="translate(0.01)"/><polygon class="cls-9" points="293.83 172.97 294.62 174.41 296.06 175.2 294.62 175.99 293.83 177.43 293.04 175.99 291.6 175.2 293.04 174.41 293.83 172.97"/><polygon class="cls-9" points="341.74 198.24 342.53 199.69 343.97 200.47 342.53 201.26 341.74 202.7 340.95 201.26 339.51 200.47 340.95 199.69 341.74 198.24"/><polygon class="cls-9" points="370.73 99.19 371.52 100.63 372.96 101.42 371.52 102.21 370.73 103.65 369.94 102.21 368.5 101.42 369.94 100.63 370.73 99.19"/><polygon class="cls-9" points="465.83 173.18 466.62 174.63 468.06 175.41 466.62 176.2 465.83 177.64 465.04 176.2 463.6 175.41 465.04 174.63 465.83 173.18"/><polygon class="cls-9" points="415.99 209.92 416.77 211.36 418.22 212.15 416.77 212.94 415.99 214.38 415.2 212.94 413.76 212.15 415.2 211.36 415.99 209.92"/><polygon class="cls-9" points="325.68 258.11 326.47 259.56 327.91 260.34 326.47 261.13 325.68 262.57 324.89 261.13 323.45 260.34 324.89 259.56 325.68 258.11"/><polygon class="cls-9" points="416.92 121.34 417.71 122.78 419.15 123.57 417.71 124.36 416.92 125.8 416.13 124.36 414.69 123.57 416.13 122.78 416.92 121.34"/><polygon class="cls-9" points="370.73 256.18 371.52 257.62 372.96 258.41 371.52 259.19 370.73 260.64 369.94 259.19 368.5 258.41 369.94 257.62 370.73 256.18"/><polygon class="cls-9" points="371.1 231.12 372.63 233.92 375.43 235.46 372.63 236.99 371.1 239.79 369.57 236.99 366.77 235.46 369.57 233.92 371.1 231.12"/><path class="cls-11" d="M371.09,240.86l-1.91-3.49-3.49-1.91,3.49-1.91,1.91-3.49,1.91,3.49,3.49,1.91L373,237.36Zm-3.27-5.4,2.11,1.16,1.16,2.11,1.15-2.11,2.11-1.16-2.11-1.16-1.15-2.11-1.16,2.11Z" transform="translate(0.01)"/><polygon class="cls-9" points="325.83 215.18 327.36 217.99 330.16 219.52 327.36 221.05 325.83 223.85 324.3 221.05 321.5 219.52 324.3 217.99 325.83 215.18"/><path class="cls-11" d="M325.82,224.92l-1.91-3.49-3.49-1.91,3.49-1.91,1.91-3.49,1.91,3.49,3.49,1.91-3.49,1.91Zm-3.27-5.4,2.11,1.16,1.15,2.11,1.16-2.11,2.11-1.16L327,218.36l-1.16-2.11-1.15,2.11Z" transform="translate(0.01)"/><polygon class="cls-9" points="312.43 123.57 313.58 125.68 315.7 126.84 313.58 127.99 312.43 130.11 311.27 127.99 309.16 126.84 311.27 125.68 312.43 123.57"/><path class="cls-11" d="M312.42,131.17l-1.53-2.8-2.8-1.53,2.8-1.53,1.53-2.8,1.53,2.8,2.8,1.53-2.8,1.53Zm-2.2-4.33,1.42.78.78,1.42.78-1.42,1.42-.78-1.42-.78-.78-1.42-.78,1.42Z" transform="translate(0.01)"/><polygon class="cls-9" points="401.23 98.15 402.39 100.27 404.5 101.42 402.39 102.58 401.23 104.69 400.08 102.58 397.96 101.42 400.08 100.27 401.23 98.15"/><path class="cls-11" d="M401.22,105.76l-1.53-2.8-2.8-1.53,2.8-1.53,1.53-2.8,1.53,2.8,2.8,1.53-2.8,1.53Zm-2.2-4.33,1.42.78.78,1.42.78-1.42,1.42-.78-1.42-.78-.78-1.42-.78,1.42Z" transform="translate(0.01)"/><polygon class="cls-9" points="447.83 198.24 448.98 200.36 451.1 201.51 448.98 202.67 447.83 204.78 446.67 202.67 444.56 201.51 446.67 200.36 447.83 198.24"/><path class="cls-11" d="M447.81,205.84l-1.53-2.8-2.8-1.53,2.8-1.53,1.53-2.8,1.53,2.8,2.8,1.53-2.8,1.53Zm-2.2-4.33,1.42.78.78,1.42.78-1.42,1.42-.78-1.42-.78-.78-1.42-.78,1.42Z" transform="translate(0.01)"/><polygon class="cls-9" points="397.64 192.9 398.8 195.01 400.91 196.17 398.8 197.32 397.64 199.44 396.49 197.32 394.38 196.17 396.49 195.01 397.64 192.9"/><path class="cls-11" d="M397.63,200.5l-1.53-2.8-2.8-1.53,2.8-1.53,1.53-2.8,1.53,2.8,2.8,1.53-2.8,1.53Zm-2.2-4.33,1.42.78.78,1.42.78-1.42,1.42-.78-1.42-.78-.78-1.42-.78,1.42Z" transform="translate(0.01)"/><path class="cls-13" d="M320.28,178l-.09-1a242.12,242.12,0,0,0,34.32-6.24,242.22,242.22,0,0,0,33.26-10.53l.39.94a243.27,243.27,0,0,1-33.41,10.58A243.32,243.32,0,0,1,320.28,178Z" transform="translate(0.01)"/><path class="cls-18" d="M320.24,177.51c-6.32,1-13,.9-13.5-.34s5.38-4.27,10.92-6.58l-.67-1.93c-12.5,3.71-19.67,8.68-19.1,11s7.26,2.9,17.6,2a282.47,282.47,0,0,0,40-7.27,282.47,282.47,0,0,0,38.75-12.26c9.59-4,15.23-7.63,14.65-10s-10.5-2.9-23-1.11l.65,2.4c6.33-.58,14.06-1.3,13.52.3s-5.76,4.74-12.08,7C371.52,166.51,341.73,174.17,320.24,177.51Z" transform="translate(0.01)"/><path class="cls-13" d="M307.08,182.58c-6,0-9.23-.93-9.69-2.78-.76-3.06,7.78-8.16,19.45-11.62l.47-.14,1,2.85-.44.18c-7.24,3-10.58,5.29-10.64,5.94.43.69,6.2,1,12.94,0l.08.51-.08-.51c22.46-3.49,52-11.27,67.65-16.79,6.36-2.25,11.31-5.31,11.77-6.66-.7-.75-8.59,0-12.84.36l-.58.05-.92-3.37.57-.08c11.13-1.6,22.8-1.6,23.56,1.49.64,2.59-4.39,6.14-14.95,10.55-10.12,4.22-23.91,8.59-38.82,12.29s-29.14,6.29-40.06,7.29Q310.67,182.58,307.08,182.58Zm9.58-13.28c-12.9,3.9-18.67,8.66-18.28,10.25s5,2.67,17.06,1.57c10.87-1,25-3.57,39.91-7.26s28.6-8,38.67-12.24c11.14-4.65,14.72-7.88,14.35-9.36s-8.37-2.68-21.85-.8l.39,1.43c7.77-.71,12.55-1,13.48.14a.9.9,0,0,1,.14.87c-.64,1.86-6.08,5.06-12.39,7.29-15.66,5.53-45.31,13.34-67.83,16.83h0c-4.21.65-13.18,1.36-14-.64a1,1,0,0,1,0-.79c.75-1.86,7.44-4.88,10.74-6.28Z" transform="translate(0.01)"/><path class="cls-19" d="M666.85,238.33V388.05H411V238.33a10.26,10.26,0,0,1,10.58-10.59H655.83C661.95,227.74,666.85,232.21,666.85,238.33Z" transform="translate(0.01)"/><path class="cls-20" d="M672.34,388.05v7c-2.2,2.55-4.79,3.42-8.35,3.42H413.34c-3.56,0-6.72-.87-8.92-3.42v-7Z" transform="translate(0.01)"/><rect class="cls-15" x="421.45" y="239.82" width="233.88" height="137.25"/><circle class="cls-15" cx="537.12" cy="233.81" r="1.64"/><path class="cls-21" d="M537.11,236a2.15,2.15,0,1,1,2.15-2.15A2.16,2.16,0,0,1,537.11,236Zm0-3.28a1.13,1.13,0,1,0,1.13,1.13A1.13,1.13,0,0,0,537.11,232.69Z" transform="translate(0.01)"/><circle class="cls-15" cx="541.55" cy="233.81" r="0.53"/><path class="cls-21" d="M541.54,234.86a1,1,0,1,1,1-1A1,1,0,0,1,541.54,234.86Zm0-1.07a0,0,0,0,0,0,0Z" transform="translate(0.01)"/><path class="cls-21" d="M667.36,388.56H410.49V238.33a10.73,10.73,0,0,1,11.09-11.1H655.83c6.57,0,11.52,4.77,11.52,11.1Zm-255.84-1H666.34V238.33c0-5.74-4.51-10.07-10.5-10.07H421.59a9.74,9.74,0,0,0-10.07,10.07Z" transform="translate(0.01)"/><path class="cls-4" d="M449,248.43H433a.51.51,0,0,1,0-1h16a.51.51,0,1,1,0,1Z" transform="translate(0.01)"/><path class="cls-4" d="M469.73,248.43h-16a.51.51,0,1,1,0-1h16a.51.51,0,0,1,0,1Z" transform="translate(0.01)"/><path class="cls-4" d="M489.33,248.43h-16a.51.51,0,0,1,0-1h16a.51.51,0,1,1,0,1Z" transform="translate(0.01)"/><path class="cls-4" d="M510.08,248.43h-16a.51.51,0,0,1,0-1h16a.51.51,0,0,1,0,1Z" transform="translate(0.01)"/><path class="cls-4" d="M593.32,249.47a1.88,1.88,0,1,1,1.88-1.88A1.88,1.88,0,0,1,593.32,249.47Zm0-2.73a.86.86,0,1,0,.86.86A.86.86,0,0,0,593.32,246.74Z" transform="translate(0.01)"/><path class="cls-4" d="M608.44,249.47a1.88,1.88,0,1,1,1.88-1.88A1.88,1.88,0,0,1,608.44,249.47Zm0-2.73a.86.86,0,1,0,.86.86A.86.86,0,0,0,608.44,246.74Z" transform="translate(0.01)"/><path class="cls-4" d="M600.88,249.47a1.88,1.88,0,1,1,1.88-1.88A1.88,1.88,0,0,1,600.88,249.47Zm0-2.73a.86.86,0,1,0,.86.86A.86.86,0,0,0,600.88,246.74Z" transform="translate(0.01)"/><path class="cls-21" d="M664,399H413.34c-4.18,0-7.22-1.18-9.31-3.6l-.12-.14v-7.71H672.85v7.71l-.12.14C670.55,397.92,667.94,399,664,399Zm-259.06-4.12c1.88,2.08,4.63,3.1,8.41,3.1H664c3.6,0,5.88-.9,7.84-3.1v-6.31H404.93Z" transform="translate(0.01)"/><path class="cls-4" d="M655.32,377.58H421.44a.51.51,0,0,1-.51-.51V239.82a.51.51,0,0,1,.51-.51H655.32a.51.51,0,0,1,.51.51V377.07A.51.51,0,0,1,655.32,377.58Zm-233.37-1H654.81V240.33H421.95Z" transform="translate(0.01)"/><path class="cls-4" d="M500.52,388.05a9.77,9.77,0,0,0,7.31,3.84h62a9.77,9.77,0,0,0,7.31-3.84Z" transform="translate(0.01)"/><path class="cls-21" d="M569.84,392.41h-62a10.26,10.26,0,0,1-7.71-4l-.69-.84h78.81l-.7.84A10.26,10.26,0,0,1,569.84,392.41Zm-68.16-3.84a8.87,8.87,0,0,0,6.16,2.82h62a8.87,8.87,0,0,0,6.16-2.82Z" transform="translate(0.01)"/><path class="cls-4" d="M642.57,377.85a.51.51,0,0,1-.51-.51V261.11a3.4,3.4,0,0,0-3.4-3.4H498.55a3.4,3.4,0,0,0-3.4,3.4V377.34a.51.51,0,0,1-1,0V261.11a4.43,4.43,0,0,1,4.42-4.42H638.66a4.43,4.43,0,0,1,4.42,4.42V377.34A.51.51,0,0,1,642.57,377.85Z" transform="translate(0.01)"/><path class="cls-4" d="M484.08,273.86H435.25a2.64,2.64,0,0,1-2.63-2.63V259.54a2.64,2.64,0,0,1,2.63-2.63h48.83a2.64,2.64,0,0,1,2.63,2.63v11.69A2.64,2.64,0,0,1,484.08,273.86Zm-48.83-15.93a1.61,1.61,0,0,0-1.61,1.61v11.69a1.61,1.61,0,0,0,1.61,1.61h48.83a1.61,1.61,0,0,0,1.61-1.61V259.54a1.61,1.61,0,0,0-1.61-1.61Z" transform="translate(0.01)"/><rect class="cls-21" x="538.39" y="268.61" width="30.7" height="1.02"/><rect class="cls-21" x="538.39" y="278.06" width="73.65" height="1.02"/><rect class="cls-21" x="538.39" y="284.2" width="73.65" height="1.02"/><rect class="cls-22" x="507.81" y="303.54" width="35.13" height="22.94"/><rect class="cls-22" x="551.12" y="303.54" width="35.13" height="22.94"/><rect class="cls-22" x="594.3" y="303.54" width="35.13" height="22.94"/><rect class="cls-22" x="507.81" y="339.54" width="35.13" height="22.94"/><rect class="cls-22" x="551.12" y="339.54" width="35.13" height="22.94"/><rect class="cls-22" x="594.3" y="339.54" width="35.13" height="22.94"/><circle class="cls-9" cx="650.56" cy="239.04" r="42.66"/><path class="cls-11" d="M650.54,282.21A43.17,43.17,0,1,1,693.71,239,43.22,43.22,0,0,1,650.54,282.21Zm0-85.31A42.15,42.15,0,1,0,692.69,239,42.19,42.19,0,0,0,650.54,196.89Z" transform="translate(0.01)"/><path class="cls-12" d="M455.28,144.17l-7.14,9L442.78,160a1.42,1.42,0,0,1-2.23-1.76l8.66-11a1.42,1.42,0,1,0-2.23-1.76l-10.23,12.95h0l-.66.83a1.42,1.42,0,1,1-2.23-1.76l7.6-9.61,6.12-7.74a1.42,1.42,0,0,0-2.23-1.76l-6.12,7.74L422.67,167.1h0a7.11,7.11,0,1,0,11.16,8.82L450.38,155l7.14-9a1.42,1.42,0,0,0-2.23-1.76Z" transform="translate(0.01)"/><path class="cls-12" d="M428.24,179.12a7.62,7.62,0,0,1-6-12.34l22.67-28.68a1.93,1.93,0,0,1,3,2.4l-13.71,17.36a.91.91,0,0,0,1.43,1.13l10.89-13.78a1.93,1.93,0,0,1,3,2.4l-8.66,11a.91.91,0,0,0,.15,1.28.91.91,0,0,0,1.28-.15l12.51-15.83a1.93,1.93,0,0,1,3,2.4l-23.69,30A7.62,7.62,0,0,1,428.24,179.12Zm18.21-40.74h-.11a.9.9,0,0,0-.61.34l-22.67,28.68a6.6,6.6,0,1,0,10.36,8.18l23.69-30a.91.91,0,1,0-1.43-1.13l-12.51,15.83a1.93,1.93,0,1,1-3-2.4l8.66-11a.91.91,0,0,0-1.43-1.13l-10.89,13.78a1.93,1.93,0,0,1-3-2.4l13.71-17.36a.91.91,0,0,0-.71-1.48Z" transform="translate(0.01)"/><circle class="cls-9" cx="428.19" cy="171.49" r="5.02" transform="translate(28.18 401.14) rotate(-51.69)"/><path class="cls-11" d="M428.18,177a5.53,5.53,0,1,1,4.34-2.1h0A5.52,5.52,0,0,1,428.18,177Zm0-10a4.5,4.5,0,1,0,3.53,7.3h0a4.5,4.5,0,0,0-3.53-7.3Z" transform="translate(0.01)"/><g class="cls-23"><polygon class="cls-24" points="558.45 239.8 516.7 239.8 655.45 360.88 655.45 324.45 558.45 239.8"/><polygon class="cls-24" points="655.45 295.24 655.45 239.8 591.92 239.8 655.45 295.24"/></g><circle class="cls-11" cx="650.56" cy="239.04" r="42.87"/><path class="cls-12" d="M650.54,282.42A43.38,43.38,0,1,1,693.92,239,43.43,43.43,0,0,1,650.54,282.42Zm0-85.74A42.36,42.36,0,1,0,692.9,239,42.4,42.4,0,0,0,650.54,196.68Z" transform="translate(0.01)"/><polygon class="cls-25" points="689.04 324.69 671.86 317.27 661.38 332.6 649.86 263.65 677.52 255.74 689.04 324.69"/><polygon class="cls-25" points="611.57 324.69 628.76 317.27 639.24 332.6 651.69 263.65 624.03 255.74 611.57 324.69"/><path class="cls-26" d="M661.07,333.94l-11.8-70.65,28.65-8.2.09.57,11.67,69.87L672,317.91ZM650.43,264l11.23,67.25,10-14.63,16.71,7.21L677.1,256.39Z" transform="translate(0.01)"/><path class="cls-26" d="M639.51,333.92l-10.95-16-17.67,7.62,12.73-70.44,28.65,8.2-.08.46Zm-10.58-17.28,10,14.65L651.09,264l-26.68-7.63-12.18,67.45Z" transform="translate(0.01)"/><circle class="cls-9" cx="650.56" cy="239.04" r="35.82"/><path class="cls-11" d="M650.54,275.37A36.34,36.34,0,1,1,686.88,239,36.38,36.38,0,0,1,650.54,275.37Zm0-71.65A35.31,35.31,0,1,0,685.85,239,35.35,35.35,0,0,0,650.54,203.72Z" transform="translate(0.01)"/><polygon class="cls-11" points="650.56 213.85 658.46 229.87 676.13 232.43 663.34 244.9 666.36 262.5 650.56 254.19 634.75 262.5 637.77 244.9 624.98 232.43 642.65 229.87 650.56 213.85"/><path class="cls-12" d="M667,263.44l-16.49-8.67-16.49,8.67,3.15-18.36-13.34-13,18.43-2.68,8.24-16.7,8.24,16.7,18.43,2.68-13.34,13Zm-41-30.65,12.24,11.93-2.89,16.85,15.13-8,15.13,8-2.89-16.85L675,232.79l-16.91-2.46L650.54,215,643,230.33Z" transform="translate(0.01)"/><path class="cls-4" d="M479.11,291.62H440.22a.51.51,0,1,1,0-1h38.89a.51.51,0,0,1,0,1Z" transform="translate(0.01)"/><path class="cls-4" d="M479.11,265.9H440.22a.51.51,0,0,1,0-1h38.89a.51.51,0,0,1,0,1Z" transform="translate(0.01)"/><path class="cls-4" d="M479.11,305.89H440.22a.51.51,0,0,1,0-1h38.89a.51.51,0,0,1,0,1Z" transform="translate(0.01)"/><path class="cls-4" d="M479.11,320.17H440.22a.51.51,0,1,1,0-1h38.89a.51.51,0,0,1,0,1Z" transform="translate(0.01)"/><path class="cls-4" d="M479.11,334.44H440.22a.51.51,0,1,1,0-1h38.89a.51.51,0,0,1,0,1Z" transform="translate(0.01)"/><path class="cls-4" d="M479.11,348.72H440.22a.51.51,0,0,1,0-1h38.89a.51.51,0,0,1,0,1Z" transform="translate(0.01)"/><path class="cls-4" d="M479.11,363H440.22a.51.51,0,0,1,0-1h38.89a.51.51,0,0,1,0,1Z" transform="translate(0.01)"/><path class="cls-27" d="M507.15,285.48a3.37,3.37,0,0,1-2.63-1.25,4.35,4.35,0,0,1-.9-2.63c-.05-1.57.95-3.35,2.65-3.45l.06,1c-1.09.06-1.72,1.3-1.69,2.41a3.32,3.32,0,0,0,.68,2,2.31,2.31,0,0,0,1.88.86c1.19-.05,2.07-1.08,2.84-2.19,3.26-4.69,6.22-9.53,9.08-14.22l.95-1.55V285h-1V270.13c-2.58,4.21-5.25,8.52-8.17,12.72-.88,1.26-2,2.56-3.65,2.63Z" transform="translate(0.01)"/><rect class="cls-27" x="516.67" y="284.47" width="5.64" height="1.02"/><rect class="cls-27" x="513.32" y="278.06" width="5.63" height="1.02"/><path class="cls-27" d="M528.5,286.24a1.26,1.26,0,1,1,1.26-1.26A1.26,1.26,0,0,1,528.5,286.24Zm0-1.5a.24.24,0,0,0-.24.24c0,.26.48.26.48,0A.24.24,0,0,0,528.5,284.74Z" transform="translate(0.01)"/><path class="cls-3" d="M270.5,423.73c254.86,0,427.51,30.24,449.21-1.26l.49-24H270.5Z" transform="translate(0.01)"/><path class="cls-24" d="M270.5,424.75a1,1,0,0,1-1-1V398.48a1,1,0,0,1,1-1H720.2a1,1,0,0,1,1,1v24a1,1,0,0,1-2,0v-23H271.53v24.22A1,1,0,0,1,270.5,424.75Z" transform="translate(0.01)"/><path class="cls-21" d="M407.09,408.49a2.59,2.59,0,1,1,2.59-2.59A2.59,2.59,0,0,1,407.09,408.49Zm0-4.15a1.56,1.56,0,1,0,1.56,1.56A1.57,1.57,0,0,0,407.09,404.33Z" transform="translate(0.01)"/><path class="cls-21" d="M381.69,408.49a2.59,2.59,0,1,1,2.59-2.59A2.59,2.59,0,0,1,381.69,408.49Zm0-4.15a1.56,1.56,0,1,0,1.56,1.56A1.57,1.57,0,0,0,381.69,404.33Z" transform="translate(0.01)"/><path class="cls-21" d="M356.28,408.49a2.59,2.59,0,1,1,2.59-2.59A2.59,2.59,0,0,1,356.28,408.49Zm0-4.15a1.56,1.56,0,1,0,1.56,1.56A1.57,1.57,0,0,0,356.28,404.33Z" transform="translate(0.01)"/><path class="cls-21" d="M330.88,408.49a2.59,2.59,0,1,1,2.59-2.59A2.59,2.59,0,0,1,330.88,408.49Zm0-4.15a1.56,1.56,0,1,0,1.56,1.56A1.57,1.57,0,0,0,330.88,404.33Z" transform="translate(0.01)"/><path class="cls-21" d="M305.48,408.49a2.59,2.59,0,1,1,2.59-2.59A2.59,2.59,0,0,1,305.48,408.49Zm0-4.15A1.56,1.56,0,1,0,307,405.9,1.57,1.57,0,0,0,305.48,404.33Z" transform="translate(0.01)"/><path class="cls-21" d="M280.08,408.49a2.59,2.59,0,1,1,2.59-2.59A2.59,2.59,0,0,1,280.08,408.49Zm0-4.15a1.56,1.56,0,1,0,1.56,1.56A1.57,1.57,0,0,0,280.08,404.33Z" transform="translate(0.01)"/><path class="cls-21" d="M556.12,408.49a2.59,2.59,0,1,1,2.59-2.59A2.59,2.59,0,0,1,556.12,408.49Zm0-4.15a1.56,1.56,0,1,0,1.56,1.56A1.57,1.57,0,0,0,556.12,404.33Z" transform="translate(0.01)"/><path class="cls-21" d="M530.72,408.49a2.59,2.59,0,1,1,2.59-2.59A2.59,2.59,0,0,1,530.72,408.49Zm0-4.15a1.56,1.56,0,1,0,1.56,1.56A1.57,1.57,0,0,0,530.72,404.33Z" transform="translate(0.01)"/><path class="cls-21" d="M505.31,408.49a2.59,2.59,0,1,1,2.59-2.59A2.59,2.59,0,0,1,505.31,408.49Zm0-4.15a1.56,1.56,0,1,0,1.56,1.56A1.57,1.57,0,0,0,505.31,404.33Z" transform="translate(0.01)"/><path class="cls-21" d="M479.91,408.49a2.59,2.59,0,1,1,2.59-2.59A2.59,2.59,0,0,1,479.91,408.49Zm0-4.15a1.56,1.56,0,1,0,1.56,1.56A1.57,1.57,0,0,0,479.91,404.33Z" transform="translate(0.01)"/><path class="cls-21" d="M454.51,408.49a2.59,2.59,0,1,1,2.59-2.59A2.59,2.59,0,0,1,454.51,408.49Zm0-4.15a1.56,1.56,0,1,0,1.56,1.56A1.57,1.57,0,0,0,454.51,404.33Z" transform="translate(0.01)"/><path class="cls-21" d="M429.11,408.49a2.59,2.59,0,1,1,2.59-2.59A2.59,2.59,0,0,1,429.11,408.49Zm0-4.15a1.56,1.56,0,1,0,1.56,1.56A1.57,1.57,0,0,0,429.11,404.33Z" transform="translate(0.01)"/><path class="cls-21" d="M707.21,408.49a2.59,2.59,0,1,1,2.59-2.59A2.59,2.59,0,0,1,707.21,408.49Zm0-4.15a1.56,1.56,0,1,0,1.56,1.56A1.57,1.57,0,0,0,707.21,404.33Z" transform="translate(0.01)"/><path class="cls-21" d="M681.81,408.49a2.59,2.59,0,1,1,2.59-2.59A2.59,2.59,0,0,1,681.81,408.49Zm0-4.15a1.56,1.56,0,1,0,1.56,1.56A1.57,1.57,0,0,0,681.81,404.33Z" transform="translate(0.01)"/><path class="cls-21" d="M656.4,408.49A2.59,2.59,0,1,1,659,405.9,2.59,2.59,0,0,1,656.4,408.49Zm0-4.15A1.56,1.56,0,1,0,658,405.9,1.57,1.57,0,0,0,656.4,404.33Z" transform="translate(0.01)"/><path class="cls-21" d="M631,408.49a2.59,2.59,0,1,1,2.59-2.59A2.59,2.59,0,0,1,631,408.49Zm0-4.15a1.56,1.56,0,1,0,1.56,1.56A1.57,1.57,0,0,0,631,404.33Z" transform="translate(0.01)"/><path class="cls-21" d="M605.6,408.49a2.59,2.59,0,1,1,2.59-2.59A2.59,2.59,0,0,1,605.6,408.49Zm0-4.15a1.56,1.56,0,1,0,1.56,1.56A1.57,1.57,0,0,0,605.6,404.33Z" transform="translate(0.01)"/><path class="cls-21" d="M580.2,408.49a2.59,2.59,0,1,1,2.59-2.59A2.59,2.59,0,0,1,580.2,408.49Zm0-4.15a1.56,1.56,0,1,0,1.56,1.56A1.57,1.57,0,0,0,580.2,404.33Z" transform="translate(0.01)"/></g></g></svg>