<?xml version="1.0" encoding="utf-8"?>
<!-- Generator: Adobe Illustrator 20.1.0, SVG Export Plug-In . SVG Version: 6.00 Build 0)  -->
<svg version="1.1" id="Layer_1" xmlns="http://www.w3.org/2000/svg" xmlns:xlink="http://www.w3.org/1999/xlink" x="0px" y="0px"
	 viewBox="0 0 732.7 419.1" style="enable-background:new 0 0 732.7 419.1;" xml:space="preserve">
<style type="text/css">
	.st0{opacity:0.5;enable-background:new    ;}
	.st1{fill:#A9D7F3;}
	.st2{fill:#E7F1F8;}
	.st3{fill:#FFFFFF;}
	.st4{fill:#985BCD;}
	.st5{fill:#923A95;}
	.st6{fill:#D0E4F0;}
	.st7{fill:#A1C2D8;}
	.st8{fill:#3F555A;}
	.st9{fill:#8552BA;}
	.st10{fill:#40565B;}
	.st11{fill:#F36F42;}
	.st12{fill:#C84A27;}
	.st13{fill:#FFFFFF;stroke:#000000;stroke-miterlimit:10;}
	.st14{fill:#C3D4E0;}
	.st15{fill:#D0E4F1;}
	.st16{fill:#29B99A;}
	.st17{fill:#8FD1BE;}
	.st18{fill:#0F716F;}
	.st19{fill:#3AA1D6;}
	.st20{fill:#164A67;}
	.st21{fill:#FFDC64;}
	.st22{fill:#FAAC30;}
	.st23{fill:#F26F42;}
	.st24{fill:#1785C8;}
	.st25{fill:none;}
	.st26{fill:none;stroke:#D0E4F1;stroke-linecap:round;stroke-linejoin:round;}
	.st27{opacity:7.000000e-02;}
</style>
<g>
	<g class="st0">
		<path class="st1" d="M134.1,100.6c-30.3,0.4-60.5,5.1-89.4,13.9c-14.8,4.5-30.1,10.7-39,22.8s-7.9,31.5,5.6,38.6
			c8.6,4.5,19.2,2.9,28.9,3.8c9.8,1,20.9,7.1,20,16.4c-1,10-14.4,13.7-21.8,20.9c-8.4,8.3-8.1,23,0.7,30.8c10.2,9,26.2,7.3,40.3,7.1
			c14.1-0.2,31.4,4.4,33.9,17.5c0.8,4-0.1,8.1-0.9,12.2c-2.5,12-4.6,24.3-2.4,36.3s9.8,23.7,21.8,28.2c10.4,3.9,22.1,1.8,33.3,2.3
			c11.2,0.4,24.1,5.1,26.5,15.4c-9.2,7.9-1.6,23.8,10.2,27.2c11.8,3.4,24.5-1.4,35.6-6.6c11.2-5.2,23-10.9,35.3-9.3
			c14.3,1.9,25,13.2,38.2,18.7c18.6,7.8,40.1,3.3,60.3,0.3c106.6-16.1,216.4,10.3,322.8-7.3c11.5-1.9,23.7-4.7,31.8-12.7
			c8.2-8,9.8-22.7,0.4-29.2c-3.2-2.2-7.1-3.1-11-3.7c-21.3-3.5-43.5,1-64.9-2.4c-21.4-3.4-43.6-19.5-40.5-39.8
			c2.6-17.3,22.6-30.4,20.8-47.7c-1.8-16.4-21.6-24.5-38.5-28.6s-36.9-10.1-41.5-26c-4.5-15.5,8.9-30.4,22.3-40.5
			c13.4-10.1,29.1-20.4,32.3-36.2c3.3-16.9-10.5-33.5-27.6-39c-17.1-5.5-36.2-1.9-53,4.7c-16.8,6.6-32.1,16.1-48.7,23.1
			c-20.3,8.6-42.3,13.3-64.4,13.8c-20.5,0.5-256.7-33-290-23.9"/>
	</g>
	<g>
		<g>
			<polygon class="st2" points="441.7,236.2 397.4,264 397.4,247.9 441.7,221.9 			"/>
			<polygon class="st3" points="449.5,266.2 248.6,264 249,247.9 450.3,244.2 			"/>
			<g>
				<g>
					<path class="st3" d="M313.3,162.4c8.1,0.9,20.9,8.7,20.9,8.7l0.7,15.1l-5.9,51.4h-56l-5.9-51.3l0.7-15.2c0,0,11.7-8,19.9-9"/>
					<path class="st4" d="M313.3,162.4c8.1,0.9,20.9,8.7,20.9,8.7l0.7,15.1l-5.9,51.4c-19,4.1-37.7,4.3-56,0l-5.9-51.3l0.7-15.2
						c0,0,11.7-8,19.9-9"/>
					<path class="st5" d="M272.6,237.6l-5.9-51.3l0.7-15.5l0.2-0.1c0.5-0.3,11.9-8.1,20.1-9.1l0.1,1c-7.3,0.8-17.8,7.7-19.4,8.7
						l-0.7,15l5.9,51.2L272.6,237.6z"/>
					<path class="st3" d="M273.1,237.6"/>
					<path class="st6" d="M300.8,118.5l-1.9-26.4c0,0-29.2,2.4-31,37.4s0,49.1,0,49.1l10-5.7v-42.8c0,0,23.4,13.8,23.4,12.2
						S300.8,118.5,300.8,118.5z"/>
					<path class="st6" d="M301.3,110.2l1.9-18.1c0,0,29.2,2.4,31,37.4s0,49.1,0,49.1l-10-5.7v-42.8c0,0-22.9,13.5-22.9,11.9
						C301.3,140.5,301.3,110.2,301.3,110.2z"/>
					<path class="st2" d="M267.9,133.5c1.7-35.1,31-37.4,31-37.4l1.9,26.4c0,0,0.3,13.2,0.5,20c0,0,0.1-0.1,0.1-0.1
						c0-1.6-0.5-23.9-0.5-23.9l-1.9-26.4c0,0-29.2,2.4-31,37.4c-0.6,12.8-0.8,22.8-0.8,30.3C267.2,152.9,267.4,144.2,267.9,133.5z"
						/>
					<path class="st2" d="M334.2,133.5c0.5,10.6,0.7,19.3,0.8,26.3c0-7.5-0.1-17.5-0.8-30.3c-1.7-35.1-31-37.4-31-37.4l-1.9,18.1
						c0,0,0,1.6,0,4l1.9-18.1C303.2,96.1,332.5,98.5,334.2,133.5z"/>
					<path class="st7" d="M272.5,169.5h5.3v-41.2c0,0,2.5-3.9-0.5-0.2C274.3,131.7,272.5,169.5,272.5,169.5z"/>
					<path class="st8" d="M267.9,179.1c-0.1,0-0.2,0-0.2-0.1c-0.1-0.1-0.3-0.2-0.3-0.4c0-0.1-1.7-14.5,0-49.2
						c1.7-35.1,31.1-37.9,31.4-37.9c0.1,0,0.3,0,0.4,0.1s0.2,0.2,0.2,0.3l1.9,26.4c0,0,0,0,0,0c0,0.9,0.5,22.4,0.5,23.9
						c0,0.2-0.1,0.4-0.3,0.5c-1.2,0.7-13.1-6-23.1-11.9V173c0,0.2-0.1,0.3-0.3,0.4l-10,5.7C268.1,179.1,268,179.1,267.9,179.1z
						 M298.5,92.7c-3.8,0.5-28.4,5.2-30,36.9c-1.5,30.2-0.4,44.9-0.1,48.3l9.1-5.1v-42.5c0-0.2,0.1-0.3,0.3-0.4s0.3-0.1,0.5,0
						c7.7,4.5,20.2,11.6,22.7,12.2c-0.1-3.4-0.5-22.9-0.5-23.5L298.5,92.7z"/>
					<path class="st7" d="M329.4,169.5h-5.3v-41.2c0,0-2.5-3.9,0.5-0.2C327.6,131.7,329.4,169.5,329.4,169.5z"/>
					<path class="st8" d="M334.2,179.1c-0.1,0-0.2,0-0.2-0.1l-10-5.7c-0.2-0.1-0.3-0.3-0.3-0.4v-41.9c-9.8,5.8-21.4,12.3-22.6,11.6
						c-0.2-0.1-0.3-0.3-0.3-0.5v-31.9c0,0,0,0,0-0.1l1.9-18.1c0-0.3,0.3-0.5,0.5-0.4c0.3,0,29.7,2.8,31.4,37.9
						c1.7,34.7,0,49.1,0,49.2c0,0.2-0.1,0.3-0.3,0.4C334.3,179.1,334.3,179.1,334.2,179.1z M324.7,172.7l9.1,5.1
						c0.3-3.3,1.4-18.1-0.1-48.3c-0.5-9.9-3.6-23.3-15.9-31.4c-6.2-4.1-12.4-5.2-14.2-5.5l-1.8,17.6v31.4
						c2.4-0.6,14.6-7.5,22.1-11.9c0.2-0.1,0.3-0.1,0.5,0s0.3,0.3,0.3,0.4V172.7z"/>
					<path class="st8" d="M323,109.7c-0.1,0-0.3-0.1-0.4-0.2c-4.6-5.7-10.3-8.6-14.2-10.1c-0.3-0.1-0.4-0.4-0.3-0.6
						c0.1-0.3,0.4-0.4,0.6-0.3c4,1.5,9.9,4.6,14.6,10.4c0.2,0.2,0.1,0.5-0.1,0.7C323.3,109.7,323.1,109.7,323,109.7z"/>
					<path class="st9" d="M334.3,171.4c0-0.1-0.1-0.3-0.2-0.4c-1.4-0.9-13.2-7.7-20.8-8.6l-25.5-0.3c-8.1,0.9-19.9,9-19.9,9
						l-0.2,5.1c2.9,6.4,17,8.8,33.2,12.6c25,5.9,27.2,22.5,31.3,21.7l2.8-24.3L334.3,171.4z"/>
					<g>
						<g>
							<g>
								<polyline class="st6" points="278.2,136.3 265.8,137 265.8,135.8 278.2,135 								"/>
								<path class="st10" d="M265,137.6c-0.2,0-0.4-0.2-0.5-0.4l-0.3-1.2c0-0.1,0-0.3,0.1-0.4c0.1-0.1,0.2-0.2,0.4-0.2l13.5-0.8
									c0.3,0,0.5,0.2,0.5,0.5c0,0.3-0.2,0.5-0.5,0.5l-12.9,0.8l0.1,0.2l12.8-0.8c0.3,0,0.5,0.2,0.5,0.5c0,0.3-0.2,0.5-0.5,0.5
									L265,137.6C265,137.6,265,137.6,265,137.6z"/>
							</g>
							<g>
								<circle class="st11" cx="262.4" cy="137" r="3.3"/>
								<path class="st12" d="M262.4,140.8c-2.1,0-3.8-1.7-3.8-3.8c0-2.1,1.7-3.8,3.8-3.8s3.8,1.7,3.8,3.8
									C266.2,139.1,264.5,140.8,262.4,140.8z M262.4,134.1c-1.6,0-2.8,1.3-2.8,2.8c0,1.6,1.3,2.8,2.8,2.8s2.8-1.3,2.8-2.8
									C265.2,135.4,263.9,134.1,262.4,134.1z"/>
							</g>
						</g>
						<g>
							<g>
								<g>
									<polyline class="st6" points="324.1,136.3 336.6,137 336.6,135.8 324.1,135 									"/>
									<path class="st10" d="M337.4,137.6C337.4,137.6,337.4,137.6,337.4,137.6l-13.3-0.8c-0.3,0-0.5-0.3-0.5-0.5
										c0-0.3,0.3-0.5,0.5-0.5l12.8,0.8l0.1-0.2l-12.9-0.8c-0.3,0-0.5-0.3-0.5-0.5c0-0.3,0.3-0.5,0.5-0.5l13.5,0.8
										c0.1,0,0.3,0.1,0.4,0.2c0.1,0.1,0.1,0.3,0.1,0.4l-0.3,1.2C337.8,137.4,337.6,137.6,337.4,137.6z"/>
								</g>
								<circle class="st11" cx="340" cy="137" r="3.3"/>
							</g>
							<path class="st12" d="M340,140.8c-2.1,0-3.8-1.7-3.8-3.8c0-2.1,1.7-3.8,3.8-3.8s3.8,1.7,3.8,3.8
								C343.8,139.1,342.1,140.8,340,140.8z M340,134.1c-1.6,0-2.8,1.3-2.8,2.8c0,1.6,1.3,2.8,2.8,2.8s2.8-1.3,2.8-2.8
								C342.8,135.4,341.5,134.1,340,134.1z"/>
						</g>
					</g>
					<path class="st5" d="M329.6,237.6l-1-0.1l5.9-51.4l-0.7-14.7c-1.8-1-13.2-7.6-20.5-8.5l0.1-1c8.2,0.9,20.6,8.4,21.1,8.7
						l0.2,0.1l0.7,15.4L329.6,237.6z"/>
					<path class="st3" d="M329.1,237.6"/>
					<path class="st6" d="M278,125.1c-1.5,3.7-2.3,7.8-2.3,12.2c0,10.6,4.9,19.8,12.1,24.9c1.9,1.3,3.9,2.4,6.1,3.1
						c2.2,0.7,4.5,1.1,6.9,1.1c13.9,0,25.1-13,25.1-29.1c0-4.3-0.8-8.5-2.3-12.2H278z"/>
					<path class="st3" d="M276.1,132c-0.3,1.7-0.4,3.4-0.4,5.2c0,6.6,1.9,12.6,5.1,17.5c4.9,4.8,11.8,9.2,18.9,9.2
						c7.5,0,16.5-5.5,21.3-9.4c3.1-4.8,4.9-10.8,4.9-17.3c0-1.7-0.1-3.4-0.4-5c-7-1.8-15.7-2.8-25.2-2.8
						C291.3,129.4,282.9,130.4,276.1,132z"/>
					<path class="st10" d="M300.8,166.8c-2.4,0-4.8-0.4-7.1-1.1c-2.2-0.7-4.3-1.8-6.2-3.1c-7.7-5.4-12.3-14.9-12.3-25.3
						c0-4.3,0.8-8.5,2.3-12.3c0.1-0.2,0.3-0.3,0.5-0.3h45.6c0.2,0,0.4,0.1,0.5,0.3c1.6,3.9,2.3,8,2.3,12.3
						C326.4,153.5,314.9,166.8,300.8,166.8z M278.3,125.6c-1.4,3.7-2.1,7.6-2.1,11.7c0,10.1,4.5,19.3,11.9,24.5c1.9,1.3,3.9,2.3,6,3
						c2.2,0.7,4.5,1.1,6.7,1.1c13.6,0,24.6-12.8,24.6-28.6c0-4.1-0.7-8-2.1-11.7H278.3z"/>
					<path class="st13" d="M290.5,176.7"/>
					<g>
						<path class="st10" d="M301.5,159.6c-5.1,0-8.3-3.1-8.3-3.2c-0.2-0.2-0.2-0.5,0-0.7c0.2-0.2,0.5-0.2,0.7,0
							c0.2,0.2,4.8,4.7,12.1,2c0.3-0.1,0.5,0,0.6,0.3c0.1,0.3,0,0.5-0.3,0.6C304.5,159.4,302.9,159.6,301.5,159.6z"/>
						<g>
							<polygon class="st11" points="301.5,145.4 302.4,147.6 303.3,149.7 301.5,149.7 299.7,149.7 300.6,147.6 							"/>
							<path class="st12" d="M303.3,150.2h-3.7c-0.2,0-0.3-0.1-0.4-0.2c-0.1-0.1-0.1-0.3,0-0.5l1.8-4.3c0.2-0.4,0.8-0.4,0.9,0
								l1.8,4.3c0.1,0.2,0.1,0.3,0,0.5C303.7,150.1,303.5,150.2,303.3,150.2z M300.4,149.2h2.1l-1.1-2.5L300.4,149.2z"/>
						</g>
						<path class="st10" d="M292.2,145.9c-0.3,0-0.7-0.1-1-0.2c-0.5-0.3-0.8-0.8-0.8-1.5v-4.3c-0.9,0.1-2.8,0.1-3.9-0.8
							c-0.2-0.2-0.3-0.5-0.1-0.7c0.2-0.2,0.5-0.3,0.7-0.1c1,0.7,3,0.7,3.7,0.6l1.5,0c1,0,1.8,0.5,1.8,1.2v4.1c0,0.6-0.3,1.2-0.8,1.5
							C292.9,145.8,292.6,145.9,292.2,145.9z M291.4,139.9v4.3c0,0.3,0.1,0.5,0.3,0.6c0.3,0.2,0.7,0.2,0.9,0
							c0.2-0.1,0.3-0.3,0.3-0.6v-4.1c0-0.1-0.3-0.2-0.8-0.2L291.4,139.9z"/>
						<path class="st10" d="M312.1,145.9c-0.3,0-0.7-0.1-1-0.2c-0.5-0.3-0.8-0.8-0.8-1.5v-4.3c-0.9,0.1-2.8,0-3.9-0.8
							c-0.2-0.2-0.3-0.5-0.1-0.7c0.2-0.2,0.5-0.3,0.7-0.1c1,0.7,3,0.7,3.7,0.6l1.5,0c1,0,1.8,0.5,1.8,1.2v4.1c0,0.6-0.3,1.2-0.8,1.5
							C312.8,145.8,312.5,145.9,312.1,145.9z M311.3,139.9v4.3c0,0.3,0.1,0.5,0.3,0.6c0.3,0.2,0.7,0.2,0.9,0
							c0.2-0.1,0.3-0.3,0.3-0.6v-4.1c0-0.1-0.3-0.2-0.8-0.2L311.3,139.9z"/>
						<path class="st10" d="M286.8,138.7c1.4,1,4.1,0.7,4.1,0.7l1.4,0c0.7,0,1.3,0.3,1.3,0.7v4.1c0,1.6-2.6,1.6-2.6,0v-4.6"/>
						<path class="st10" d="M306.7,138.7c1.4,1,4.1,0.7,4.1,0.7l1.4,0c0.7,0,1.3,0.3,1.3,0.7v4.1c0,1.6-2.6,1.6-2.6,0v-4.6"/>
						<path class="st10" d="M283.7,136.4c-0.2,0-0.3-0.1-0.4-0.2c-0.2-0.2-0.1-0.5,0.1-0.7c1.8-1.2,7.6-1.7,8.3-1.8
							c0.3,0,0.5,0.2,0.5,0.5s-0.2,0.5-0.5,0.5c-1.7,0.2-6.5,0.7-7.8,1.6C283.8,136.4,283.7,136.4,283.7,136.4z"/>
						<path class="st10" d="M318.5,136.4c-0.1,0-0.2,0-0.3-0.1c-1.3-0.9-6.1-1.5-7.8-1.6c-0.3,0-0.5-0.3-0.5-0.5
							c0-0.3,0.3-0.5,0.5-0.5c0.7,0.1,6.5,0.6,8.3,1.8c0.2,0.2,0.3,0.5,0.1,0.7C318.9,136.4,318.7,136.4,318.5,136.4z"/>
					</g>
					<g>
						<path class="st3" d="M267.9,169.9l-9.8,52.6l41.4,11.6l10.2,4.5l5.5,0.5c5.1,0.4,9-5.2,7.5-9.4v0c-0.9-2.5-3.5-4.2-6.5-4.4
							l-14.3-0.6l-29.5-9.8l2.3-12.5C274.4,190.1,271.9,179.4,267.9,169.9z"/>
						<path class="st6" d="M322.7,229.6c-0.9-2.5-3.5-4.2-6.5-4.4l-14.3-0.6l-29.5-9.8l2.3-12.5c-0.3-12.3-2.7-23-6.8-32.5l-1.2,6.4
							c3.2,8.6,5.1,18.1,5.3,28.8l-2.3,12.5l29.5,9.8l14.3,0.6c3,0.1,5.6,1.9,6.5,4.4c0.7,1.9,0.3,4-0.8,5.8
							C322.1,236.3,323.7,232.6,322.7,229.6z"/>
						<g>
							<path class="st14" d="M258.8,223c-0.4,0-0.7-0.2-0.9-0.5c-0.3-0.5-0.1-1.1,0.4-1.4l13.2-7c0.5-0.3,1.1-0.1,1.4,0.4
								c0.3,0.5,0.1,1.1-0.4,1.4l-13.2,7C259.1,223,259,223,258.8,223z"/>
							<path class="st14" d="M272.5,212.4c0,0-0.1,0-0.1,0l-11.6-1.7c-0.5-0.1-0.9-0.6-0.8-1.1c0.1-0.5,0.6-0.9,1.1-0.8l11.6,1.7
								c0.5,0.1,0.9,0.6,0.8,1.1C273.4,212.1,273,212.4,272.5,212.4z"/>
							<path class="st14" d="M274,204.4c-0.2,0-0.4-0.1-0.6-0.2l-8.1-6.5c-0.4-0.3-0.5-1-0.2-1.4c0.3-0.4,1-0.5,1.4-0.2l8.1,6.5
								c0.4,0.3,0.5,1,0.2,1.4C274.5,204.3,274.3,204.4,274,204.4z"/>
							<path class="st14" d="M273.1,224.2c-0.2,0-0.3,0-0.5-0.1c-0.5-0.2-0.7-0.9-0.4-1.3l3.2-6.4c0.2-0.5,0.8-0.7,1.3-0.4
								c0.5,0.2,0.7,0.9,0.4,1.3l-3.2,6.4C273.8,224,273.5,224.2,273.1,224.2z"/>
							<path class="st14" d="M283.2,228.1c-0.1,0-0.2,0-0.3-0.1c-0.5-0.2-0.8-0.7-0.6-1.3l2.5-7.3c0.2-0.5,0.7-0.8,1.3-0.6
								c0.5,0.2,0.8,0.7,0.6,1.3l-2.5,7.3C284,227.8,283.7,228.1,283.2,228.1z"/>
							<path class="st14" d="M293.7,229.3c-0.1,0-0.1,0-0.2,0c-0.5-0.1-0.9-0.6-0.8-1.2l1.2-5.6c0.1-0.5,0.6-0.9,1.2-0.8
								c0.5,0.1,0.9,0.6,0.8,1.2l-1.2,5.6C294.6,229,294.1,229.3,293.7,229.3z"/>
						</g>
						<path class="st10" d="M315.7,239.5c-0.2,0-0.4,0-0.6,0l-5.5-0.5c-0.1,0-0.1,0-0.2,0l-10.2-4.5l-41.3-11.6
							c-0.2-0.1-0.4-0.3-0.4-0.6l9.8-52.6c0-0.2,0.2-0.4,0.4-0.4c0.2,0,0.4,0.1,0.5,0.3c0.1,0.2,7.6,18.9,6.8,32.7c0,0,0,0,0,0.1
							l-2.2,12l29,9.7l14.3,0.5c3.2,0.1,6,2,6.9,4.7c0.8,2.2,0.2,4.9-1.4,7C320.2,238.4,318,239.5,315.7,239.5z M309.8,238l5.5,0.5
							c2.1,0.2,4.3-0.8,5.7-2.7c1.4-1.9,1.9-4.2,1.3-6.1c-0.8-2.3-3.2-3.9-6-4l-14.3-0.6c0,0-0.1,0-0.1,0l-29.5-9.8
							c-0.2-0.1-0.4-0.3-0.3-0.6l2.3-12.4c0.7-11.2-4.3-25.8-6.1-30.6l-9.4,50.4l40.9,11.5L309.8,238z M274.6,202.4L274.6,202.4
							L274.6,202.4z"/>
						<path class="st10" d="M299.4,234.6c0,0-0.1,0-0.1,0c-0.3-0.1-0.4-0.3-0.4-0.6l2.4-9.4c0.1-0.3,0.3-0.4,0.6-0.4
							c0.3,0.1,0.4,0.3,0.4,0.6l-2.4,9.4C299.9,234.4,299.6,234.6,299.4,234.6z"/>
					</g>
					<g>
						<path class="st3" d="M334.3,169.9l9.8,52.6l-41.4,11.6l-10.2,4.5L287,239c-5.1,0.4-9-5.2-7.5-9.4v0c0.9-2.5,3.5-4.2,6.5-4.4
							l14.3-0.6l29.5-9.8l-2.3-12.5C327.8,190.1,330.3,179.4,334.3,169.9z"/>
						<path class="st6" d="M334.3,169.9l-0.9,4.2l8.4,45.2l-41.4,11.6l-10.2,4.5l-5.5,0.5c-1.9,0.2-3.7-0.6-5.1-1.7
							c1.1,2.9,4,5.2,7.3,4.9l5.5-0.5l10.2-4.5l41.4-11.6L334.3,169.9z"/>
						<g>
							<path class="st14" d="M343.4,223c-0.2,0-0.3,0-0.5-0.1l-13.2-7c-0.5-0.3-0.7-0.9-0.4-1.4c0.3-0.5,0.9-0.7,1.4-0.4l13.2,7
								c0.5,0.3,0.7,0.9,0.4,1.4C344.1,222.8,343.7,223,343.4,223z"/>
							<path class="st14" d="M329.7,212.4c-0.5,0-0.9-0.4-1-0.9c-0.1-0.5,0.3-1.1,0.8-1.1l11.6-1.7c0.5-0.1,1.1,0.3,1.1,0.8
								s-0.3,1.1-0.8,1.1l-11.6,1.7C329.8,212.4,329.8,212.4,329.7,212.4z"/>
							<path class="st14" d="M328.2,204.4c-0.3,0-0.6-0.1-0.8-0.4c-0.3-0.4-0.3-1.1,0.2-1.4l8.1-6.5c0.4-0.3,1.1-0.3,1.4,0.2
								c0.3,0.4,0.3,1.1-0.2,1.4l-8.1,6.5C328.7,204.3,328.4,204.4,328.2,204.4z"/>
							<path class="st14" d="M329.1,224.2c-0.4,0-0.7-0.2-0.9-0.5l-3.2-6.4c-0.2-0.5-0.1-1.1,0.4-1.3c0.5-0.2,1.1-0.1,1.3,0.4
								l3.2,6.4c0.2,0.5,0.1,1.1-0.4,1.3C329.4,224.2,329.2,224.2,329.1,224.2z"/>
							<path class="st14" d="M318.9,228.1c-0.4,0-0.8-0.3-0.9-0.7l-2.5-7.3c-0.2-0.5,0.1-1.1,0.6-1.3c0.5-0.2,1.1,0.1,1.3,0.6
								l2.5,7.3c0.2,0.5-0.1,1.1-0.6,1.3C319.2,228.1,319,228.1,318.9,228.1z"/>
							<path class="st14" d="M308.5,229.3c-0.5,0-0.9-0.3-1-0.8l-1.2-5.6c-0.1-0.5,0.2-1.1,0.8-1.2c0.5-0.1,1.1,0.2,1.2,0.8l1.2,5.6
								c0.1,0.5-0.2,1.1-0.8,1.2C308.6,229.3,308.6,229.3,308.5,229.3z"/>
						</g>
						<path class="st10" d="M286.5,239.5c-2.3,0-4.5-1.1-6-3.1c-1.6-2.1-2.2-4.8-1.4-7c1-2.7,3.7-4.6,6.9-4.7l14.3-0.5l29-9.7
							l-2.2-12c0,0,0,0,0-0.1c-0.8-13.9,6.7-32.5,6.8-32.7c0.1-0.2,0.3-0.3,0.5-0.3c0.2,0,0.4,0.2,0.4,0.4l9.8,52.6
							c0,0.3-0.1,0.5-0.4,0.6l-41.4,11.6l-10.1,4.4c-0.1,0-0.1,0-0.2,0l-5.5,0.5C286.8,239.5,286.7,239.5,286.5,239.5z M328,202.3
							l2.3,12.4c0,0.2-0.1,0.5-0.3,0.6l-29.5,9.8c0,0-0.1,0-0.1,0l-14.3,0.6c-2.8,0.1-5.2,1.7-6,4c-0.7,1.9-0.2,4.2,1.3,6.1
							c1.5,1.9,3.6,2.9,5.7,2.7l5.5-0.5l10.1-4.4l41-11.5l-9.4-50.4C332.4,176.5,327.4,191.1,328,202.3z"/>
						<path class="st10" d="M302.8,234.6c-0.2,0-0.4-0.1-0.5-0.4l-2.4-9.4c-0.1-0.3,0.1-0.5,0.4-0.6c0.3-0.1,0.5,0.1,0.6,0.4
							l2.4,9.4c0.1,0.3-0.1,0.5-0.4,0.6C302.8,234.6,302.8,234.6,302.8,234.6z"/>
					</g>
				</g>
			</g>
			<polygon class="st3" points="248.7,247.9 204.4,222.1 409.4,222.1 450,244.2 			"/>
			<g>
				<path class="st15" d="M204,236.7c-0.3,0-0.5-0.2-0.5-0.5v-14.3c0-0.3,0.2-0.5,0.5-0.5s0.5,0.2,0.5,0.5v14.3
					C204.5,236.5,204.3,236.7,204,236.7z"/>
				<path class="st15" d="M449.2,266.7C449.2,266.7,449.2,266.7,449.2,266.7c-0.3,0-0.5-0.2-0.5-0.5l0.8-22.2c0-0.3,0.2-0.5,0.5-0.5
					c0.3,0,0.5,0.2,0.5,0.5l-0.8,22.2C449.7,266.4,449.5,266.7,449.2,266.7z"/>
				<path class="st15" d="M248.3,248.4c-0.1,0-0.2,0-0.3-0.1l-44.3-25.8c-0.2-0.1-0.3-0.3-0.2-0.6c0.1-0.2,0.3-0.4,0.5-0.4h205.8
					c0.1,0,0.2,0,0.2,0.1l40.6,22c0.2,0.1,0.3,0.3,0.2,0.6c-0.1,0.2-0.2,0.4-0.5,0.4L248.3,248.4
					C248.3,248.4,248.3,248.4,248.3,248.4z M205.8,222.6l42.6,24.8l200.1-3.7l-38.8-21.1H205.8z"/>
				<path class="st15" d="M248.3,264.5c-0.3,0-0.5-0.2-0.5-0.5v-16.1c0-0.3,0.2-0.5,0.5-0.5s0.5,0.2,0.5,0.5V264
					C248.8,264.3,248.6,264.5,248.3,264.5z"/>
			</g>
			<g>
				<g>
					<g>
						<path class="st7" d="M446.6,145.5c0.3,0.2,0.5,0.6,0.3,0.9c-0.1,0.2-0.3,0.4-0.5,0.4l-12.5-1.4c-0.4,0.1-0.7-0.2-0.8-0.6
							c-0.1-0.4,0.2-0.7,0.6-0.8c0.1,0,0.2,0,0.3,0L446.6,145.5L446.6,145.5z"/>
						<path class="st10" d="M446.4,147.2l-12.5-1.4c-0.6,0.1-1.2-0.4-1.3-1c-0.1-0.6,0.3-1.2,1-1.3c0.2,0,0.4,0,0.5,0l12.4,1.4
							c0,0,0.1,0,0.2,0c0,0,0.1,0,0.1,0c0.6,0.3,0.8,1,0.5,1.6C447.2,147,446.9,147.2,446.4,147.2z M433.9,144.9
							C433.9,144.9,434,144.9,433.9,144.9l12.5,1.4c0,0,0,0,0-0.1c0-0.1,0-0.2,0-0.2l0,0l-12.4-1.3c0,0-0.1,0-0.1,0
							c-0.2,0-0.2,0.1-0.2,0.2C433.7,144.8,433.8,144.9,433.9,144.9C433.9,144.9,433.9,144.9,433.9,144.9z"/>
					</g>
					<g>
						
							<ellipse transform="matrix(0.2297 -0.9733 0.9733 0.2297 203.4158 550.2236)" class="st11" cx="449.3" cy="146.6" rx="4.1" ry="4.1"/>
						<path class="st12" d="M449.3,151.2c-0.4,0-0.7,0-1.1-0.1c-1.2-0.3-2.2-1-2.8-2c-0.6-1-0.8-2.3-0.6-3.5c0.3-1.2,1-2.2,2-2.8
							c1-0.6,2.3-0.8,3.5-0.6c1.2,0.3,2.2,1,2.8,2c0.6,1,0.8,2.3,0.6,3.5c-0.3,1.2-1,2.2-2,2.8C451,150.9,450.2,151.2,449.3,151.2z
							 M449.3,143c-1.6,0-3.1,1.1-3.5,2.8c-0.2,0.9-0.1,1.9,0.4,2.7c0.5,0.8,1.3,1.4,2.2,1.6l0,0c0.9,0.2,1.9,0.1,2.7-0.4
							c0.8-0.5,1.4-1.3,1.6-2.2c0.2-0.9,0.1-1.9-0.4-2.7s-1.3-1.4-2.2-1.6C449.9,143.1,449.6,143,449.3,143z"/>
					</g>
				</g>
				<path class="st3" d="M480,273.7c-15.8-23-6.7-57.4-25-77.9c2.5,0.8,4.8,2.2,6.7,3.9c3.9,3.4,6.5,8.1,8.7,12.7
					c2.9,6.3,5.4,12.8,7.3,19.4c3.3,11.9,5.4,24,6.5,36.3c0.1,1.4,0.3,2.9,0.5,4.3C483.4,275.1,481.8,276.2,480,273.7z"/>
				<path class="st6" d="M443.1,198.1c1-1.5,2.6-2.5,4.3-2.8c2.5-0.5,5.1-0.4,7.5,0.5c18.4,20.5,9.2,55,25,77.9
					c1.8,2.5,3.4,1.4,4.6-1.3c0.6,4.8,1.3,9.8,0.8,14.4c0,0,0,0.1,0,0.1c-7.2-0.3-14.3,0.5-21.4,1.2c-2.2,0.2-4.4,0.4-6.6,0.6
					l-1.2-0.4c-0.3-0.1-0.5-0.2-0.8-0.4c-0.2-0.3-0.3-0.7-0.3-1c-1.7-16.7-3.7-33.4-7.2-49.9c-2.5-11.6-5.7-23.2-5.6-35
					C442.3,200.6,442.6,199.3,443.1,198.1z"/>
				<path class="st7" d="M480.8,273.2C480.8,273.2,480.7,273.2,480.8,273.2c-4.5-0.7-8.9-0.9-13.4-0.5c-0.3,0-0.5-0.2-0.5-0.5
					c0-0.3,0.2-0.5,0.5-0.5c4.5-0.4,9.1-0.2,13.5,0.5c0.3,0,0.5,0.3,0.4,0.6C481.3,273.1,481,273.2,480.8,273.2z"/>
				<path class="st7" d="M474.6,254.5C474.6,254.5,474.6,254.5,474.6,254.5c-3.8-0.5-7.6-0.6-11.4-0.2c-0.3,0-0.5-0.2-0.5-0.4
					c0-0.3,0.2-0.5,0.4-0.5c3.8-0.4,7.7-0.4,11.6,0.2c0.3,0,0.5,0.3,0.4,0.6C475.1,254.3,474.9,254.5,474.6,254.5z"/>
				<path class="st7" d="M456.6,235.8c-0.2,0-0.5-0.2-0.5-0.4c0-0.3,0.2-0.5,0.4-0.6c5.1-0.7,10.2-0.8,15.3-0.5
					c0.3,0,0.5,0.3,0.5,0.5c0,0.3-0.3,0.5-0.5,0.5C466.7,235,461.7,235.2,456.6,235.8C456.6,235.8,456.6,235.8,456.6,235.8z"/>
				<path class="st7" d="M455.7,217.8c-0.2,0-0.4-0.1-0.5-0.3c-0.1-0.3,0.1-0.5,0.3-0.6c3.3-1.1,6.8-1.5,10.3-1.4
					c0.3,0,0.5,0.2,0.5,0.5s-0.2,0.5-0.5,0.5c-3.4-0.2-6.7,0.3-9.9,1.3C455.8,217.8,455.8,217.8,455.7,217.8z"/>
				<path class="st10" d="M457.5,289.2c-0.1,0-0.1,0-0.2,0l-1.2-0.4c-0.3-0.1-0.7-0.3-0.9-0.5c-0.4-0.5-0.5-0.9-0.5-1.4
					c-1.5-14.8-3.5-32.3-7.2-49.8c-0.4-2.1-0.9-4.2-1.4-6.2c-2.1-9.4-4.3-19.1-4.2-28.8c-0.1-1.4,0.2-2.8,0.8-4.1
					c1.1-1.7,2.8-2.8,4.7-3.1c4.7-1.1,10.3,0.6,14.7,4.5c4.2,3.7,6.9,8.8,8.8,12.9c2.9,6.3,5.4,12.8,7.3,19.5
					c3.3,11.9,5.5,24.1,6.5,36.4c0.1,1.5,0.3,3.1,0.6,4.8c0.6,4.7,1.2,9.5,0.8,13.9c0,0.1,0,0.1,0,0.2c0,0.3-0.3,0.5-0.5,0.5
					c-6.6-0.3-13.4,0.4-19.9,1.1l-1.4,0.1C462.1,288.8,459.9,289,457.5,289.2C457.5,289.2,457.5,289.2,457.5,289.2z M450.3,195.5
					c-0.9,0-1.8,0.1-2.7,0.3c-1.7,0.3-3.1,1.2-4,2.6c-0.5,1.1-0.7,2.3-0.6,3.5c-0.1,9.7,2.1,19.3,4.2,28.6c0.5,2.1,0.9,4.2,1.4,6.2
					c3.7,17.5,5.8,35.1,7.2,49.9c0,0.3,0.1,0.6,0.2,0.8c0.1,0.1,0.3,0.2,0.5,0.2l1.2,0.4c2.3-0.2,4.5-0.4,6.5-0.6l1.4-0.1
					c6.4-0.6,12.9-1.3,19.5-1.1c0.4-4.2-0.2-8.9-0.8-13.4c-0.2-1.7-0.4-3.3-0.6-4.9c-1-12.2-3.2-24.4-6.5-36.2
					c-1.9-6.6-4.3-13.1-7.2-19.3c-1.8-3.9-4.5-8.9-8.5-12.5C458.1,197.1,454,195.5,450.3,195.5z"/>
				<path class="st16" d="M366.8,188.6h63.6c19.4,25.3,20.2,69.9,16.1,102.8l-96.9,0C346.5,255.8,348,217.6,366.8,188.6z"/>
				<path class="st17" d="M430.4,188.6h12.7c22.8,0,21.2,102.8,21.2,102.8h-17.8C450.6,258.5,449.9,213.9,430.4,188.6"/>
				<path class="st17" d="M363.2,188.6h3.7c-18.9,29-16.5,63.6-17.2,102.8l-11.4,0C338.3,291.4,335.2,188.6,363.2,188.6"/>
				<path class="st18" d="M464.3,291.9H338.3c-0.3,0-0.5-0.2-0.5-0.5c-0.1-3.3-2.2-80,16.2-99.1c2.7-2.8,5.8-4.2,9.1-4.2h80
					c2.3,0,4.5,1,6.5,3c6.9,7,11.5,26,13.8,56.5c1.7,22.7,1.4,43.6,1.4,43.8C464.8,291.7,464.6,291.9,464.3,291.9z M338.7,290.9
					h125.1c0.1-6.9,0.5-83.4-14.9-99c-1.8-1.8-3.7-2.7-5.8-2.7h-80c-3.1,0-5.9,1.3-8.4,3.9C337.3,211,338.6,284.2,338.7,290.9z"/>
				<path class="st18" d="M349.7,291.9c-0.3,0-0.5-0.2-0.5-0.5c-1.2-21.2,0.7-42.6,2.8-62.7c0-0.3,0.3-0.5,0.5-0.4
					c0.3,0,0.5,0.3,0.4,0.5c-2.1,20.1-4,41.4-2.8,62.6C350.2,291.6,350,291.8,349.7,291.9C349.7,291.9,349.7,291.9,349.7,291.9z"/>
				<path class="st18" d="M363.2,195.8C363.2,195.8,363.1,195.8,363.2,195.8c-0.4-0.1-0.5-0.3-0.5-0.6c0.7-4,3.9-7.1,7.4-7.1
					c0.3,0,0.5,0.2,0.5,0.5s-0.2,0.5-0.5,0.5c-3,0-5.8,2.7-6.4,6.3C363.6,195.6,363.4,195.8,363.2,195.8z"/>
				<path class="st3" d="M405.9,105.4h-3.7c-18.9,0-34.3,15.3-34.3,34.3l0,0v44.5l0,0h72.2l0,0v-44.5
					C440.2,120.7,424.8,105.4,405.9,105.4L405.9,105.4z"/>
				<path class="st6" d="M406.5,110.1c17,0,30.8,12.7,30.8,31.7v42.3h-61.6v-42.3C375.7,122.7,389.5,110.1,406.5,110.1z"/>
				<path class="st10" d="M440.2,184.7h-72.2c-0.3,0-0.5-0.2-0.5-0.5v-44.5c0-19.2,15.6-34.8,34.8-34.8h3.7c0,0,0,0,0,0
					c19.2,0,34.8,15.6,34.8,34.8v44.5C440.7,184.4,440.5,184.7,440.2,184.7z M368.4,183.7h71.2v-44c0-18.6-15.2-33.8-33.8-33.8h-3.7
					c-18.6,0-33.8,15.2-33.8,33.8V183.7z"/>
				<path class="st10" d="M381.9,184.6c-0.1,0-0.3-0.1-0.3-0.1c0-0.1-0.1-0.1-0.1-0.2c0-0.1,0-0.1,0-0.2c0-0.1,0.1-0.3,0.2-0.4
					c0.2-0.2,0.5-0.2,0.7,0c0.1,0.1,0.1,0.2,0.1,0.4s0,0.2-0.1,0.4C382.1,184.5,382,184.6,381.9,184.6z"/>
				<path class="st10" d="M404.1,106c-0.1,0-0.3-0.1-0.4-0.2c-0.1-0.1-0.1-0.2-0.1-0.3c0-0.1,0-0.1,0-0.2c0-0.1,0.1-0.1,0.1-0.2
					c0.1-0.1,0.4-0.2,0.5-0.1c0.1,0,0.1,0.1,0.2,0.1c0.1,0.1,0.2,0.2,0.2,0.4c0,0.1,0,0.3-0.2,0.3c0,0.1-0.1,0.1-0.2,0.1
					C404.2,106,404.1,106,404.1,106z"/>
				<path class="st3" d="M365.2,185.7c0.6-1,1.7-1.6,2.8-1.6h72.2c1.5,0,2.8,1,3.2,2.4C417.5,185.9,391.1,186.9,365.2,185.7z"/>
				<path class="st6" d="M443.3,186.5c0.1,0.3,0.1,0.6,0.1,0.9c0,0.7-0.5,1.2-1.2,1.2h0h-76.3c-0.7,0-1.2-0.5-1.2-1.2v0
					c0-0.6,0.2-1.1,0.5-1.6C391.1,186.9,417.5,185.9,443.3,186.5z"/>
				<path class="st10" d="M442.2,189.1h-76.3c-1,0-1.7-0.8-1.7-1.7c0-2.1,1.7-3.8,3.8-3.8h72.2c2.1,0,3.8,1.7,3.8,3.8
					C443.9,188.3,443.2,189.1,442.2,189.1z M368,184.6c-1.5,0-2.8,1.3-2.8,2.8c0,0.4,0.3,0.7,0.7,0.7h76.3c0.4,0,0.7-0.3,0.7-0.7
					c0-1.5-1.3-2.8-2.8-2.8H368z"/>
				<g>
					<polygon class="st11" points="413.8,159 407.8,159 407.8,142.4 					"/>
					<path class="st12" d="M413.8,159.5h-6c-0.3,0-0.5-0.2-0.5-0.5v-16.6c0-0.2,0.2-0.5,0.4-0.5c0.2,0,0.5,0.1,0.6,0.3l6,16.6
						c0.1,0.2,0,0.3-0.1,0.5S413.9,159.5,413.8,159.5z M408.3,158.5h4.8l-4.8-13.2V158.5z"/>
				</g>
				<g>
					<path class="st3" d="M330.7,273.7c15.8-23,6.7-57.4,25-77.9c-2.5,0.8-4.8,2.2-6.7,3.9c-3.9,3.4-6.5,8.1-8.7,12.7
						c-2.9,6.3-5.4,12.8-7.3,19.4c-3.3,11.9-5.4,24-6.5,36.3c-0.1,1.4-0.3,2.9-0.5,4.3C327.2,275.1,328.9,276.2,330.7,273.7z"/>
					<path class="st6" d="M367.5,198.1c-1-1.5-2.6-2.5-4.3-2.8c-2.5-0.5-5.1-0.4-7.5,0.5c-18.4,20.5-9.2,55-25,77.9
						c-1.8,2.5-3.4,1.4-4.6-1.3c-0.6,4.8-1.4,16.2-1,20.7c0,0,30.3,0.4,30.3,0c1.7-16.7,3.9-39.8,7.4-56.2c2.5-11.6,5.7-23.2,5.6-35
						C368.3,200.6,368.1,199.3,367.5,198.1z"/>
					<path class="st7" d="M329.9,273.2c-0.2,0-0.5-0.2-0.5-0.4c0-0.3,0.1-0.5,0.4-0.6c4.5-0.7,9-0.9,13.5-0.5c0.3,0,0.5,0.3,0.5,0.5
						s-0.3,0.5-0.5,0.5C338.8,272.4,334.3,272.6,329.9,273.2C329.9,273.2,329.9,273.2,329.9,273.2z"/>
					<path class="st7" d="M336,254.5c-0.2,0-0.5-0.2-0.5-0.4c0-0.3,0.2-0.5,0.4-0.6c3.8-0.5,7.7-0.6,11.6-0.2c0.3,0,0.5,0.3,0.4,0.5
						s-0.3,0.5-0.6,0.4C343.6,253.9,339.8,253.9,336,254.5C336.1,254.5,336,254.5,336,254.5z"/>
					<path class="st7" d="M354,235.8C354,235.8,354,235.8,354,235.8c-5.1-0.7-10.1-0.8-15.1-0.5c-0.3,0-0.5-0.2-0.5-0.5
						c0-0.3,0.2-0.5,0.5-0.5c5.1-0.3,10.2-0.2,15.3,0.5c0.3,0,0.5,0.3,0.4,0.6C354.5,235.6,354.3,235.8,354,235.8z"/>
					<path class="st7" d="M354.9,217.8c-0.1,0-0.1,0-0.2,0c-3.2-1-6.6-1.5-9.9-1.3c-0.3,0-0.5-0.2-0.5-0.5c0-0.3,0.2-0.5,0.5-0.5
						c3.5-0.2,7,0.3,10.3,1.4c0.3,0.1,0.4,0.4,0.3,0.6C355.3,217.7,355.1,217.8,354.9,217.8z"/>
					<path class="st10" d="M351.1,293.7c-2,0-4.8,0-8.9-0.1c-6.4-0.1-13.7-0.1-17.1,0c-0.1,0-0.3,0-0.4-0.1
						c-0.1-0.1-0.2-0.2-0.2-0.4c0-2,0-5.1,0.2-6.3l0,0c-0.4-4.4,0.2-9.3,0.8-14c0.2-1.7,0.4-3.3,0.6-4.8c1-12.3,3.2-24.5,6.5-36.4
						c1.9-6.7,4.4-13.2,7.3-19.5c1.9-4,4.6-9.1,8.8-12.9c4.3-3.9,10-5.6,14.7-4.5c1.9,0.3,3.6,1.4,4.6,3c0.6,1.3,0.9,2.8,0.8,4.2
						c0.1,9.7-2.1,19.4-4.2,28.8c-0.5,2.1-0.9,4.2-1.4,6.2c-3.4,15.8-5.6,38-7.2,54.2l-0.2,1.8c0,0.1-0.1,0.2-0.1,0.3
						C355.5,293.6,355.4,293.7,351.1,293.7z M331.3,292.6c3.3,0,7.2,0,10.9,0.1c5.5,0,11.2,0.1,12.7,0l0.1-1.5
						c1.6-16.2,3.8-38.4,7.2-54.3c0.4-2.1,0.9-4.2,1.4-6.2c2.1-9.3,4.3-19,4.2-28.6c0.1-1.3-0.2-2.5-0.7-3.7c-0.9-1.3-2.3-2.3-4-2.5
						c-4.4-1-9.7,0.6-13.8,4.3c-4.1,3.6-6.7,8.6-8.5,12.5c-2.9,6.2-5.3,12.7-7.2,19.3c-3.3,11.8-5.4,24-6.5,36.2
						c-0.2,1.6-0.4,3.2-0.6,4.9c-0.6,4.6-1.2,9.5-0.8,13.8c0,0.1,0,0.1,0,0.2c0,0.4-0.1,4.3-0.2,5.7
						C327,292.6,329.1,292.6,331.3,292.6z"/>
				</g>
				<path class="st10" d="M397.4,148.2L397.4,148.2c-1,0-1.8-0.8-1.8-1.8v-7.1c0-1,0.8-1.8,1.8-1.8l0,0c1,0,1.8,0.8,1.8,1.8v7.1
					C399.1,147.4,398.3,148.2,397.4,148.2z"/>
				<path class="st10" d="M418.4,147.7L418.4,147.7c-1,0-1.8-0.8-1.8-1.8v-7.1c0-1,0.8-1.8,1.8-1.8l0,0c1,0,1.8,0.8,1.8,1.8v7.1
					C420.1,146.9,419.4,147.7,418.4,147.7z"/>
				<path class="st10" d="M410.1,173c-6.2,0-11.1-6.3-11.3-6.6l0.8-0.6c0.1,0.1,6.5,8.3,13.4,5.7l0.4,0.9
					C412.2,172.8,411.1,173,410.1,173z"/>
				<path class="st10" d="M390.6,135.1l-0.8-0.6c0.2-0.2,3.8-4.6,8.2-4.4l-0.1,1c-0.1,0-0.2,0-0.3,0
					C393.9,131.1,390.6,135.1,390.6,135.1z"/>
				<path class="st10" d="M422.4,134.4c0,0-2.6-4.5-5.7-3.9l-0.2-1c3.8-0.7,6.6,4.1,6.7,4.4L422.4,134.4z"/>
				<g>
					<g>
						<path class="st7" d="M354.7,148.1c-0.4-0.1-0.7-0.5-0.6-0.9c0.1-0.3,0.3-0.5,0.5-0.6l15.1-2.2c0.4-0.2,0.9,0,1.1,0.4
							c0.2,0.4,0,0.9-0.4,1.1c-0.1,0.1-0.3,0.1-0.4,0.1l-15.1,2.2L354.7,148.1z"/>
						<path class="st10" d="M354.7,148.6C354.7,148.6,354.7,148.6,354.7,148.6c-0.8-0.1-1.3-0.8-1.1-1.5c0.1-0.5,0.4-0.8,0.9-1
							l15.1-2.2c0.6-0.2,1.4,0.1,1.6,0.7c0.3,0.7,0,1.4-0.7,1.7c-0.2,0.1-0.4,0.1-0.6,0.1L354.7,148.6
							C354.7,148.6,354.7,148.6,354.7,148.6z M370,144.7c0,0-0.1,0-0.1,0s-0.1,0-0.1,0l-15.1,2.2c0,0-0.1,0.1-0.1,0.2
							c0,0.2,0.1,0.3,0.2,0.4l0.1,0l15-2.2c0,0,0.1,0,0.1,0c0.1,0,0.1,0,0.2,0c0.2-0.1,0.2-0.2,0.2-0.4
							C370.3,144.8,370.1,144.7,370,144.7z"/>
					</g>
					<g>
						
							<ellipse transform="matrix(0.9997 -2.379731e-02 2.379731e-02 0.9997 -3.4125 8.4002)" class="st11" cx="351.2" cy="147.6" rx="4.9" ry="4.9"/>
						<path class="st12" d="M351.2,153c-1.4,0-2.7-0.5-3.8-1.5c-1.1-1-1.7-2.4-1.7-3.8c0-1.5,0.5-2.8,1.5-3.9c1-1.1,2.4-1.7,3.8-1.7
							c1.4,0,2.8,0.5,3.9,1.5c1.1,1,1.7,2.4,1.7,3.8c0,1.5-0.5,2.8-1.5,3.9c-1,1.1-2.4,1.7-3.8,1.7C351.3,153,351.3,153,351.2,153z
							 M351.1,143.1c-1.2,0-2.3,0.5-3.1,1.4c-0.8,0.9-1.3,2-1.2,3.2c0,1.2,0.5,2.3,1.4,3.1c0.9,0.8,2,1.3,3.2,1.2
							c1.2,0,2.3-0.5,3.1-1.4c0.8-0.9,1.3-2,1.2-3.2c0-1.2-0.5-2.3-1.4-3.1C353.4,143.5,352.3,143.1,351.1,143.1L351.1,143.1z"/>
					</g>
				</g>
			</g>
			<g>
				<polygon class="st2" points="339.4,316.6 300.7,291.5 300.7,277.2 339.4,304.1 				"/>
				<polygon class="st3" points="339.4,316.6 551.2,321.4 552.5,299.4 339.4,304.1 				"/>
				<path class="st15" d="M551.2,321.9C551.2,321.9,551.2,321.9,551.2,321.9c-0.3,0-0.5-0.2-0.5-0.5l0.8-22.2c0-0.3,0.2-0.5,0.5-0.5
					c0.3,0,0.5,0.2,0.5,0.5l-0.8,22.2C551.7,321.7,551.5,321.9,551.2,321.9z"/>
				<polygon class="st3" points="339,304.1 300.7,277.4 511.9,277.4 552.5,299.4 				"/>
				<path class="st15" d="M339,304.6c-0.1,0-0.2,0-0.3-0.1l-38.3-26.7c-0.2-0.1-0.3-0.4-0.2-0.6c0.1-0.2,0.3-0.3,0.5-0.3h211.1
					c0.1,0,0.2,0,0.2,0.1l40.6,22c0.2,0.1,0.3,0.3,0.2,0.6c-0.1,0.2-0.2,0.4-0.5,0.4L339,304.6C339,304.6,339,304.6,339,304.6z
					 M302.3,277.9l36.8,25.7l211.4-4.6l-38.8-21.1H302.3z"/>
				<path class="st15" d="M339.4,317.1c-0.3,0-0.5-0.2-0.5-0.5v-12.5c0-0.3,0.2-0.5,0.5-0.5s0.5,0.2,0.5,0.5v12.5
					C339.9,316.8,339.7,317.1,339.4,317.1z"/>
			</g>
		</g>
	</g>
	<g>
		<g>
			<path class="st19" d="M507.7,203.8c1.4-1,3.1-1.9,4.9-2.7c7.9-3.5,15.7-3.2,17.4,0.7c0.4,0.9,0.4,2,0.1,3.1
				c-1,3.7-1.2,7.6,0.1,11.2c0.5,1.3,0.5,2.6,0,3.6c-1.7,3.9-9.5,4.2-17.4,0.7c-1.8-0.8-3.4-1.7-4.8-2.7c-3.2-0.1-5.7-1.1-6.5-3.1
				c-0.5-1.2-0.4-2.6,0.2-4.1c-0.4-1.2-0.4-2.4,0-3.5C502.5,205.1,504.8,204,507.7,203.8z"/>
			<path class="st19" d="M499.5,202.5c-1.4-1-3.1-1.9-4.9-2.7c-7.9-3.5-15.7-3.2-17.4,0.7c-0.4,0.9-0.4,2-0.1,3.1
				c1,3.7,1.2,7.6-0.1,11.2c-0.5,1.3-0.5,2.6,0,3.6c1.7,3.9,9.5,4.2,17.4,0.7c1.8-0.8,3.4-1.7,4.8-2.7c3.2-0.1,5.7-1.1,6.5-3.1
				c0.5-1.2,0.4-2.6-0.2-4.1c0.4-1.2,0.4-2.4,0-3.5C504.7,203.8,502.4,202.7,499.5,202.5z"/>
		</g>
		<g>
			<path class="st20" d="M523.2,223.3c-3.2,0-7-0.9-10.6-2.5c-1.7-0.8-3.3-1.7-4.8-2.7c-3.5-0.1-5.9-1.3-6.8-3.4
				c-0.6-1.3-0.5-2.8,0.1-4.4c-0.4-1.3-0.4-2.6,0.1-3.7c0.9-1.9,3.1-3.1,6.3-3.4c1.5-1,3.1-1.9,4.8-2.7c8.3-3.7,16.2-3.3,18.1,0.9
				c0.5,1,0.5,2.2,0.2,3.4c-1.1,4-1.1,7.7,0.1,10.9c0.5,1.5,0.5,2.8,0,4c-0.9,2.1-3.4,3.3-6.8,3.4
				C523.7,223.3,523.4,223.3,523.2,223.3z M523,199.1c-3,0-6.6,0.8-10.2,2.4c-1.7,0.8-3.3,1.7-4.8,2.7c-0.1,0.1-0.2,0.1-0.3,0.1
				c-2.9,0.2-4.9,1.2-5.6,2.8c-0.4,0.9-0.4,1.9,0,3.1c0,0.1,0,0.2,0,0.4c-0.6,1.4-0.7,2.7-0.2,3.7c0.8,1.7,2.9,2.7,6.1,2.8
				c0.1,0,0.2,0,0.3,0.1c1.5,1,3.1,1.9,4.8,2.7c3.7,1.7,7.6,2.5,10.8,2.4c3.1-0.1,5.2-1.1,6-2.8c0.4-0.9,0.4-2,0-3.3
				c-1.2-3.4-1.2-7.2-0.1-11.5c0.3-1,0.2-2-0.1-2.8C528.7,200.1,526.3,199.1,523,199.1z M507.7,203.8L507.7,203.8L507.7,203.8z"/>
			<path class="st20" d="M484,222c-0.2,0-0.4,0-0.7,0c-3.5-0.1-5.9-1.3-6.8-3.4c-0.5-1.2-0.5-2.5,0-4c1.1-3.2,1.2-6.8,0.1-10.9
				c-0.3-1.3-0.3-2.4,0.2-3.4c0.9-2.1,3.4-3.3,6.8-3.4c3.4-0.1,7.4,0.8,11.2,2.5c1.7,0.8,3.4,1.7,4.8,2.7c3.2,0.2,5.4,1.4,6.3,3.4
				c0.5,1.1,0.5,2.3,0.1,3.7c0.7,1.6,0.7,3.1,0.1,4.4c-0.9,2.1-3.3,3.3-6.8,3.4c-1.5,1-3.1,1.9-4.8,2.7
				C490.9,221.1,487.2,222,484,222z M484.2,197.9c-0.2,0-0.4,0-0.6,0c-3.1,0.1-5.2,1.1-6,2.8c-0.4,0.8-0.4,1.7-0.1,2.8
				c1.2,4.2,1.1,8.1-0.1,11.5c-0.4,1.2-0.5,2.3,0,3.3c0.8,1.7,2.9,2.7,6,2.8c3.2,0.1,7-0.7,10.8-2.4c1.7-0.8,3.3-1.7,4.8-2.7
				c0.1-0.1,0.2-0.1,0.3-0.1c3.2-0.1,5.3-1.1,6.1-2.8c0.5-1.1,0.4-2.3-0.2-3.7c0-0.1-0.1-0.2,0-0.4c0.4-1.2,0.4-2.2,0-3.1
				c-0.7-1.6-2.7-2.6-5.6-2.8c-0.1,0-0.2,0-0.3-0.1c-1.5-1-3.1-1.9-4.8-2.7C490.9,198.7,487.3,197.9,484.2,197.9z"/>
			
				<ellipse transform="matrix(0.7071 -0.7071 0.7071 0.7071 -1.3104 416.7833)" class="st19" cx="502.4" cy="210" rx="7.6" ry="7.6"/>
			<path class="st20" d="M502.4,218.1c-2.1,0-4.2-0.8-5.8-2.4c-1.5-1.5-2.4-3.6-2.4-5.8c0-2.2,0.8-4.2,2.4-5.8l0,0l0,0
				c1.5-1.5,3.6-2.4,5.8-2.4c2.2,0,4.2,0.8,5.8,2.4c1.5,1.5,2.4,3.6,2.4,5.8c0,2.2-0.8,4.2-2.4,5.8
				C506.6,217.3,504.5,218.1,502.4,218.1z M502.4,202.8c-1.9,0-3.7,0.7-5,2.1l0,0c-1.3,1.3-2.1,3.1-2.1,5.1s0.7,3.7,2.1,5.1
				c2.8,2.8,7.3,2.8,10.1,0c1.3-1.3,2.1-3.1,2.1-5.1s-0.7-3.7-2.1-5.1C506.1,203.6,504.4,202.8,502.4,202.8z M497,204.6L497,204.6
				L497,204.6z"/>
		</g>
		
			<rect x="491.6" y="183.4" transform="matrix(-1 -4.485668e-11 4.485668e-11 -1 1007.209 386.9179)" class="st3" width="24.1" height="20"/>
		<path class="st6" d="M491.4,193.5c4.7,5.4,16,6.7,24.3,0.7v-10.7h-24.1L491.4,193.5z"/>
		<path class="st14" d="M514.7,194.5h-21.9c-0.6,0-1-0.4-1-1s0.4-1,1-1h21.9c0.6,0,1,0.4,1,1S515.3,194.5,514.7,194.5z"/>
		<path class="st10" d="M515.6,204h-24.1c-0.3,0-0.5-0.2-0.5-0.5v-20c0-0.3,0.2-0.5,0.5-0.5h24.1c0.3,0,0.5,0.2,0.5,0.5v20
			C516.1,203.7,515.9,204,515.6,204z M492.1,203h23.1v-19h-23.1V203z"/>
		<polygon class="st21" points="460.9,203.5 546.7,203.5 577.4,203.5 552.9,351.9 448.4,370 430.2,203.5 		"/>
		<polygon class="st21" points="546.4,203.3 526.3,203.3 515.9,194.3 515.8,194.3 491.9,194.3 491.8,194.3 481.4,203.3 460.8,203.3 
			430.3,203.3 454.8,351.2 558.8,369.2 576.9,203.3 		"/>
		<path class="st22" d="M577.4,203.5L559.3,370c-44.3,5.8-98.4,12.2-110.9,0l-14.5-132.9C454.6,298.2,571.9,220,577.4,203.5z"/>
		<g>
			<polyline class="st3" points="429.5,203.5 410.3,331.7 407.2,366.8 433.9,376.9 438.3,314 440.1,299.4 			"/>
			<g>
				<path class="st6" d="M434.1,374.6c1.4,0.7,2.6,1.6,3.7,2.7l-3.8-0.3L434.1,374.6z"/>
				<path class="st6" d="M426.7,375l4.3-61l2-15.5l-7.7-67.7l4.1-27.3l10.6,95.9l-1.9,14.6l-4.2,60.6c-1.6-0.8-3.5-1.3-5.4-1.4
					L426.7,375z"/>
			</g>
			<g>
				<path class="st14" d="M437,325.3c0,0-0.1,0-0.2,0l-24.3-3.7c-0.5-0.1-0.9-0.6-0.8-1.1c0.1-0.5,0.6-0.9,1.1-0.8l24.3,3.7
					c0.5,0.1,0.9,0.6,0.8,1.1C437.9,325,437.4,325.3,437,325.3z"/>
				<path class="st14" d="M435.5,347.4c0,0-0.1,0-0.2,0l-26.2-4c-0.5-0.1-0.9-0.6-0.8-1.1c0.1-0.5,0.6-0.9,1.1-0.8l26.2,4
					c0.5,0.1,0.9,0.6,0.8,1.1C436.4,347,436,347.4,435.5,347.4z"/>
				<path class="st14" d="M439.4,301.5c-0.1,0-0.1,0-0.2,0l-23.2-4.1c-0.5-0.1-0.9-0.6-0.8-1.2c0.1-0.5,0.6-0.9,1.2-0.8l23.2,4.1
					c0.5,0.1,0.9,0.6,0.8,1.2C440.3,301.2,439.9,301.5,439.4,301.5z"/>
				<path class="st14" d="M437.2,278.6c-0.2,0-0.5-0.1-0.7-0.3L425,267.3c-0.4-0.4-0.4-1,0-1.4c0.4-0.4,1-0.4,1.4,0l11.6,11.1
					c0.4,0.4,0.4,1,0,1.4C437.8,278.5,437.5,278.6,437.2,278.6z"/>
			</g>
			<path class="st10" d="M433.9,377.4c-0.1,0-0.1,0-0.2,0L407,367.3c-0.2-0.1-0.3-0.3-0.3-0.5l3.1-35.1L429,203.4
				c0-0.3,0.3-0.5,0.6-0.4c0.3,0,0.5,0.3,0.4,0.6l-19.2,128.2l-3.1,34.7l25.7,9.7l4.3-62.3l1.9-14.6c0-0.3,0.3-0.5,0.6-0.4
				c0.3,0,0.5,0.3,0.4,0.6l-1.9,14.6l-4.3,62.9c0,0.2-0.1,0.3-0.2,0.4C434.1,377.4,434,377.4,433.9,377.4z"/>
		</g>
		<g>
			<polyline class="st3" points="577.6,203.5 596.8,331.7 599.9,366.8 573.2,376.9 568.9,314 567,299.4 			"/>
			<g>
				<path class="st6" d="M573,374.6c-1.4,0.7-2.6,1.6-3.7,2.7l3.8-0.3L573,374.6z"/>
				<path class="st6" d="M580.4,375l-4.3-61l-2-15.5l7.7-67.7l-4.1-27.3L567,299.4l1.9,14.6l4.2,60.6c1.6-0.8,3.5-1.3,5.4-1.4
					L580.4,375z"/>
			</g>
			<g>
				<path class="st14" d="M570.2,325.3c-0.5,0-0.9-0.4-1-0.8c-0.1-0.5,0.3-1.1,0.8-1.1l24.3-3.7c0.5-0.1,1.1,0.3,1.1,0.8
					c0.1,0.5-0.3,1.1-0.8,1.1l-24.3,3.7C570.3,325.3,570.2,325.3,570.2,325.3z"/>
				<path class="st14" d="M571.7,347.4c-0.5,0-0.9-0.4-1-0.8c-0.1-0.5,0.3-1.1,0.8-1.1l26.2-4c0.5-0.1,1.1,0.3,1.1,0.8
					c0.1,0.5-0.3,1.1-0.8,1.1l-26.2,4C571.8,347.4,571.7,347.4,571.7,347.4z"/>
				<path class="st14" d="M567.7,301.5c-0.5,0-0.9-0.3-1-0.8c-0.1-0.5,0.3-1.1,0.8-1.2l23.2-4.1c0.5-0.1,1.1,0.3,1.2,0.8
					c0.1,0.5-0.3,1.1-0.8,1.2l-23.2,4.1C567.8,301.5,567.7,301.5,567.7,301.5z"/>
				<path class="st14" d="M569.9,278.6c-0.3,0-0.5-0.1-0.7-0.3c-0.4-0.4-0.4-1,0-1.4l11.6-11.1c0.4-0.4,1-0.4,1.4,0
					c0.4,0.4,0.4,1,0,1.4l-11.6,11.1C570.4,278.5,570.1,278.6,569.9,278.6z"/>
			</g>
			<path class="st10" d="M573.2,377.4c-0.1,0-0.2,0-0.3-0.1c-0.1-0.1-0.2-0.2-0.2-0.4l-4.3-63l-1.9-14.5c0-0.3,0.2-0.5,0.4-0.6
				c0.3,0,0.5,0.2,0.6,0.4l1.9,14.6l4.3,62.3l25.7-9.7l-3.1-34.7l-19.2-128.2c0-0.3,0.1-0.5,0.4-0.6c0.3,0,0.5,0.1,0.6,0.4
				l19.2,128.2l3.1,35.1c0,0.2-0.1,0.4-0.3,0.5l-26.7,10.1C573.3,377.4,573.3,377.4,573.2,377.4z"/>
		</g>
		<path class="st23" d="M559.7,370.5H448l-6-54.8L429.7,203h0l0-0.1h51.5l10.4-9H516l0.2,0.1l10.3,8.9h51l0,0.1h0.5l-0.1,0.6
			L559.7,370.5z M448.9,369.5h110l18-165.5h-0.5l0-0.1h-50.3l-10.4-9H492l-10.4,9h-50.7l0,0.1h-0.1L448.9,369.5z"/>
		<path class="st23" d="M504,206C504,206,503.9,206,504,206c-8.1,0-23-0.9-23-2.7h1c0-0.2-0.1-0.3-0.1-0.3c0.8,0.6,10,2,22.1,2
			c0,0,0,0,0.1,0c12,0,21.2-1.4,22-2c0,0-0.1,0.1-0.1,0.3h1c0,0.4,0,1.1-7,1.9C517.1,205.5,511.4,206,504,206z"/>
		<g>
			<rect x="503" y="12.9" width="1" height="13.9"/>
			<g>
				<circle class="st11" cx="503.6" cy="6.7" r="6.2"/>
				<path class="st12" d="M503.6,13.4c-3.7,0-6.7-3-6.7-6.7c0-3.7,3-6.7,6.7-6.7s6.7,3,6.7,6.7C510.3,10.4,507.3,13.4,503.6,13.4z
					 M503.6,1c-3.2,0-5.7,2.6-5.7,5.7s2.6,5.7,5.7,5.7s5.7-2.6,5.7-5.7S506.7,1,503.6,1z"/>
			</g>
			<path class="st3" d="M523.3,183.4h-39.6c-7.4,0-13.5-6-13.5-13.5V40.8c0-7.4,6-13.5,13.5-13.5h39.6c7.4,0,13.5,6,13.5,13.5v129.1
				C536.8,177.4,530.8,183.4,523.3,183.4z"/>
			<path class="st3" d="M523.3,183.4h-39.6c-7.4,0-13.5-6-13.5-13.5V40.8c0-7.4,6-13.5,13.5-13.5h39.6c7.4,0,13.5,6,13.5,13.5v129.1
				C536.8,177.4,530.8,183.4,523.3,183.4z"/>
			<path class="st6" d="M470.2,40.8v129.1c0,7.4,6.1,13.5,13.5,13.5h39.7c7.5,0,13.5-6,13.5-13.5V40.8c0-7.4-6.1-13.5-13.5-13.5
				h-39.7C476.2,27.4,470.2,33.4,470.2,40.8z M473.6,47.5c0-6.7,5.4-12.1,12.1-12.1h35.6c6.7,0,12.1,5.4,12.1,12.1
				c0,0-59.9,122.4-59.9,115.7V47.5z"/>
			<path class="st6" d="M536.6,62.8l0.2-21.9c0-7.4-6-13.5-13.5-13.5h-39.6c-7.4,0-13.5,6-13.5,13.5v21.9h-0.1v63.1h0c0,0,0,0,0,0
				c22.7,7.5,44.8,7.7,66.5,0l0.2-63.1H536.6z"/>
			<path class="st7" d="M536.7,40.8c0-7.4-6-13.5-13.5-13.5h-39.6c-1.1,0-2.2,0.1-3.2,0.4c-5.9,1.4-10.3,6.7-10.3,13.1v21.9h0v63.2
				c1.2,0.4,2.3,0.7,3.5,1.1V47.5c0-6.7,5.4-12.1,12.1-12.1h35.6c6.7,0,12.1,5.4,12.1,12.1c0,0-24,49-41.6,83.3
				c15.1,1.8,30,0.2,44.7-4.9l0.2-63.1h-0.3L536.7,40.8z"/>
			<path class="st10" d="M523.3,183.9h-39.6c-7.7,0-14-6.3-14-14V40.8c0-7.7,6.3-14,14-14h39.6c7.7,0,14,6.3,14,14v129.1
				C537.3,177.6,531.1,183.9,523.3,183.9z M483.7,27.9c-7.2,0-13,5.8-13,13v129.1c0,7.2,5.8,13,13,13h39.6c7.2,0,13-5.8,13-13V40.8
				c0-7.2-5.8-13-13-13H483.7z"/>
			<path class="st10" d="M503.9,132.1c-11.2,0-22.5-1.9-34-5.7c-0.3-0.1-0.4-0.4-0.3-0.6c0.1-0.3,0.4-0.4,0.6-0.3
				c22.7,7.5,45,7.5,66.2,0c0.3-0.1,0.5,0,0.6,0.3c0.1,0.3,0,0.5-0.3,0.6C526,130.2,515.1,132.1,503.9,132.1z"/>
		</g>
	</g>
	<g>
		<path class="st6" d="M203.7,206.8c-0.3,0-0.6,0-1,0c-1.6,0-3.2,0.7-4.3,1.9c-0.7,1-1.1,2.2-1.2,3.4c-1.8,10.6-0.6,21.5-0.1,32.3
			c0.6,11.8,0.4,23.6-0.1,35.4h23.8C221.4,254.5,215.5,229.3,203.7,206.8z"/>
		<path class="st3" d="M224.7,244.1c-0.7-6.3-2-12.5-3.7-18.5c-1.3-4.5-3-9-6-12.7c-2.8-3.4-6.9-5.9-11.2-6
			c11.8,22.5,17.7,47.6,17.1,73h4.4c0-0.7,0.1-1.4,0.1-2.1C226.1,266.6,225.9,255.3,224.7,244.1z"/>
		<path class="st10" d="M225.2,280.4H197c-0.1,0-0.3-0.1-0.4-0.2c-0.1-0.1-0.1-0.2-0.1-0.4c0.6-13.6,0.7-24.8,0.1-35.3
			c-0.1-1.9-0.2-3.8-0.3-5.7c-0.5-8.8-1.1-17.9,0.4-26.7c0.1-1.3,0.6-2.5,1.3-3.6c1.2-1.4,3-2.1,4.7-2.1c4.4-0.3,9.1,2,12.6,6.2
			c3.2,3.8,4.8,8.7,6.1,12.9c1.7,6.1,3,12.3,3.7,18.6c1.2,11.2,1.5,22.5,0.6,33.8l0,0.5c0,0.5-0.1,1-0.1,1.5
			C225.7,280.1,225.5,280.4,225.2,280.4z M197.5,279.4h27.1c0-0.4,0-0.7,0.1-1.1l0-0.5c0.8-11.2,0.6-22.5-0.6-33.6
			c-0.7-6.2-2-12.4-3.7-18.4c-1.2-4.1-2.8-8.8-5.9-12.5c-3.2-3.9-7.7-6.1-11.8-5.8c-1.5,0-3,0.7-4,1.8c-0.6,0.9-1,2-1.1,3.1
			c-1.5,8.7-0.9,17.8-0.4,26.5c0.1,1.9,0.2,3.8,0.3,5.7C198.2,254.9,198.2,266,197.5,279.4z"/>
		<path class="st7" d="M215,269c-0.2,0-0.4-0.1-0.5-0.3c-0.1-0.3,0-0.5,0.3-0.6c2.9-1.1,6-1.5,9-1.2c0.3,0,0.5,0.3,0.4,0.5
			c0,0.3-0.3,0.5-0.5,0.5c-2.9-0.3-5.9,0.1-8.6,1.1C215.1,269,215,269,215,269z"/>
		<path class="st19" d="M188.7,220.9c-28.9,4.3-28.7,35.7-22.9,60.1H208c7.9-15.6,10.9-33.3,8.5-50.6c-0.2-1.3-0.4-2.6-0.7-4
			c-2-1.9-4.3-3.4-6.8-4.7C202.2,218.3,195.5,219.2,188.7,220.9z"/>
		<path class="st24" d="M196.7,203.5c-15.8-2.8-34.9-1-48.5,7.7c-6.3,4.1-8.3,10.2-8.2,17.3c0.3,17.9,3.4,35.6,9.1,52.5h16.6
			c-5.9-24.4-6-55.8,22.9-60.1c6.8-1.7,13.5-2.5,20.3,0.8c2.5,1.2,4.7,2.8,6.8,4.7C213.7,216,208.7,205.6,196.7,203.5z"/>
		<path class="st20" d="M208,281.5h-58.8c-0.2,0-0.4-0.1-0.5-0.3c-5.8-17-8.9-34.7-9.2-52.7c-0.1-8.2,2.6-14,8.4-17.7
			c14.7-9.5,34.8-10.2,48.8-7.8c11.1,2,17.9,11.2,20.2,27.3l0,0c2.4,17.5-0.5,35.1-8.5,50.9C208.3,281.4,208.2,281.5,208,281.5z
			 M149.5,280.5h58.1c7.8-15.5,10.7-32.8,8.3-50l0,0c-2.2-15.7-8.7-24.6-19.3-26.5c-13.8-2.4-33.7-1.7-48.1,7.6
			c-5.5,3.6-8.1,9.1-8,16.9C140.8,246.2,143.9,263.7,149.5,280.5z"/>
		<path class="st3" d="M165.6,194.1l0.9,9.9c0.2,1.8,1.3,3.4,3,4.2c2.5,1.1,5.3,1.6,8.1,1.3c2.5-0.2,5-1.1,7.1-2.5
			c1.4-1,2.2-2.6,2.1-4.3C178.5,205.7,170.8,200.8,165.6,194.1z"/>
		<path class="st6" d="M185.2,186.1L165,188l0.6,6.1c5.2,6.7,12.9,11.6,21.2,8.6c0-0.1,0-0.3,0-0.4L185.2,186.1z"/>
		<path class="st10" d="M175.8,210.1c-2.3,0-4.5-0.5-6.6-1.4c-1.8-0.9-3.1-2.6-3.2-4.6l-1.5-16c0-0.3,0.2-0.5,0.5-0.5l20.2-1.9
			c0.3,0,0.5,0.2,0.5,0.5l1.5,16.1c0.2,2-0.7,4-2.3,5.2c-2.2,1.5-4.7,2.4-7.3,2.6C177,210.1,176.4,210.1,175.8,210.1z M165.5,188.5
			L167,204c0.1,1.7,1.2,3.1,2.7,3.8c2.4,1.1,5.1,1.5,7.8,1.2c2.5-0.2,4.8-1,6.9-2.4c1.3-1,2.1-2.6,1.9-4.3c0,0,0,0,0,0l-1.5-15.6
			L165.5,188.5z"/>
		<g>
			<path class="st11" d="M142.3,130.2c3-4.6,7.2-8.2,12.1-10.4c4.6-2.2,10.2-3.3,15.2-1.7c4.6,1.6,8.3,4.9,10.3,9.4
				c1.9,4.2,2.3,8.8,2.1,13.3c0,1.2-0.2,2.4-0.7,3.5c-0.5,0.9-1.1,1.7-1.8,2.4c-4.2,4.6-9.4,9-16,10.1c-5.1,0.8-10.3-0.5-14.9-2.7
				c-4.1-2-7.8-5.2-9.4-9.3C137.5,140.2,139.9,134,142.3,130.2z"/>
			<path class="st12" d="M160.4,157.5c-4.7,0-9-1.6-12-3c-4.7-2.3-8.1-5.7-9.6-9.6c-1.8-4.6,0.6-10.9,3.1-15c0,0,0,0,0,0
				c3-4.7,7.3-8.3,12.3-10.6c5.5-2.6,11-3.2,15.6-1.7c4.7,1.6,8.6,5.1,10.6,9.6c1.7,3.7,2.4,8.2,2.1,13.5c0,1.2-0.2,2.5-0.7,3.6
				c-0.5,1-1.2,1.8-1.9,2.6c-3.8,4.2-9.1,9.1-16.3,10.2C162.6,157.4,161.5,157.5,160.4,157.5z M142.7,130.5c-2.4,3.8-4.6,9.8-3,14.1
				c1.4,3.6,4.7,6.9,9.2,9c3.6,1.7,9,3.6,14.6,2.7c6.8-1.1,12-5.9,15.7-9.9c0.7-0.7,1.3-1.5,1.7-2.3c0.4-1,0.6-2.1,0.6-3.2
				c0.3-5.2-0.4-9.5-2-13.1c-1.9-4.3-5.6-7.6-10-9.1c-5.8-1.9-11.8,0.2-14.8,1.7C149.7,122.4,145.6,126,142.7,130.5z"/>
		</g>
		<path class="st12" d="M160.4,157.5c-4.7,0-9-1.6-12-3c-4.7-2.3-8.1-5.7-9.6-9.6c-1.8-4.6,0.6-10.9,3.1-15c0,0,0,0,0,0
			c3-4.7,7.3-8.3,12.3-10.6c5.5-2.6,11-3.2,15.6-1.7c4.7,1.6,8.6,5.1,10.6,9.6c1.7,3.7,2.4,8.2,2.1,13.5c0,1.2-0.2,2.5-0.7,3.6
			c-0.5,1-1.2,1.8-1.9,2.6c-3.8,4.2-9.1,9.1-16.3,10.2C162.6,157.4,161.5,157.5,160.4,157.5z M142.7,130.5c-2.4,3.8-4.6,9.8-3,14.1
			c1.4,3.6,4.7,6.9,9.2,9c3.6,1.7,9,3.6,14.6,2.7c6.8-1.1,12-5.9,15.7-9.9c0.7-0.7,1.3-1.5,1.7-2.3c0.4-1,0.6-2.1,0.6-3.2
			c0.3-5.2-0.4-9.5-2-13.1c-1.9-4.3-5.6-7.6-10-9.1c-5.8-1.9-11.8,0.2-14.8,1.7C149.7,122.4,145.6,126,142.7,130.5z"/>
		<g>
			<path class="st11" d="M149.6,145.8c5.4-14.3,13.9-30.4,27.3-40.1c2.8-2.2,6-3.7,9.5-4.6c4.2-1,8.5-0.2,12.1,2.2
				c4.7,3.1,6.4,8.6,6.5,13.9c0.1,9.7-3.2,19.5-7.6,28.5L149.6,145.8z"/>
			<path class="st12" d="M149.6,146.3c-0.2,0-0.3-0.1-0.4-0.2c-0.1-0.1-0.1-0.3-0.1-0.5c7.2-18.7,16.4-32.3,27.4-40.4
				c2.9-2.2,6.1-3.8,9.6-4.7c4.3-1,8.8-0.2,12.5,2.2c4.3,2.8,6.6,7.9,6.7,14.3c0.1,8.7-2.4,18.1-7.7,28.8c-0.1,0.2-0.3,0.3-0.4,0.3
				L149.6,146.3C149.6,146.3,149.6,146.3,149.6,146.3z M189.8,101.2c-1.1,0-2.3,0.1-3.4,0.4c-3.4,0.9-6.5,2.4-9.3,4.5
				c-10.8,7.8-19.8,21-26.8,39.2l46.6-0.1c5.1-10.4,7.5-19.6,7.4-28c0-3.5-0.9-10-6.3-13.5C195.7,102,192.7,101.2,189.8,101.2z"/>
		</g>
		<path class="st12" d="M149.6,146.3c-0.2,0-0.3-0.1-0.4-0.2c-0.1-0.1-0.1-0.3-0.1-0.5c7.2-18.7,16.4-32.3,27.4-40.4
			c2.9-2.2,6.1-3.8,9.6-4.7c4.3-1,8.8-0.2,12.5,2.2c4.3,2.8,6.6,7.9,6.7,14.3c0.1,8.7-2.4,18.1-7.7,28.8c-0.1,0.2-0.3,0.3-0.4,0.3
			L149.6,146.3C149.6,146.3,149.6,146.3,149.6,146.3z M189.8,101.2c-1.1,0-2.3,0.1-3.4,0.4c-3.4,0.9-6.5,2.4-9.3,4.5
			c-10.8,7.8-19.8,21-26.8,39.2l46.6-0.1c5.1-10.4,7.5-19.6,7.4-28c0-3.5-0.9-10-6.3-13.5C195.7,102,192.7,101.2,189.8,101.2z"/>
		<g>
			<circle class="st11" cx="237.3" cy="161.2" r="5.2"/>
			<path class="st12" d="M237.3,166.9c-3.1,0-5.7-2.5-5.7-5.7s2.5-5.7,5.7-5.7s5.7,2.5,5.7,5.7S240.4,166.9,237.3,166.9z
				 M237.3,156.6c-2.6,0-4.7,2.1-4.7,4.7s2.1,4.7,4.7,4.7s4.7-2.1,4.7-4.7S239.9,156.6,237.3,156.6z"/>
		</g>
		<g>
			<path class="st6" d="M208.2,164.4c-0.5-0.1-0.7-0.6-0.6-1c0.1-0.3,0.3-0.5,0.6-0.6l25.5-1.8c0.5,0.1,0.8,0.5,0.7,1
				c-0.1,0.3-0.3,0.5-0.6,0.6L208.2,164.4L208.2,164.4z"/>
			<path class="st10" d="M208.3,164.9l-0.2,0c-0.3-0.1-0.6-0.3-0.8-0.6c-0.2-0.3-0.2-0.7-0.2-1c0.1-0.5,0.5-0.8,0.9-1l0.1,0
				l25.5-1.8l0.1,0c0.4,0.1,0.7,0.3,0.9,0.6c0.2,0.3,0.3,0.7,0.2,1c-0.1,0.5-0.4,0.9-0.9,1l-0.1,0L208.3,164.9z M208.3,163.3
				c-0.1,0-0.2,0.1-0.2,0.2c0,0.1,0,0.2,0,0.3c0,0.1,0.1,0.1,0.2,0.1l25.3-1.8c0.1,0,0.2-0.1,0.2-0.2c0-0.1,0-0.2-0.1-0.3
				c0-0.1-0.1-0.1-0.2-0.1L208.3,163.3z"/>
		</g>
		<path class="st6" d="M152.2,178.3c-4.8,0.3-9.5,1.3-14,3.1l2,15c0,0,35.7-1.7,70-6.7c3.2-0.5,6-2.7,8-6.2
			C196.5,186.1,174,176.4,152.2,178.3z"/>
		<path class="st3" d="M137.4,154.6c-1-0.3-2.1-0.5-3.1-0.5l3.8,27.4c4.5-1.8,9.2-2.9,14-3.1c21.9-1.9,44.3,7.8,66,5.2
			c2.9-5.1,4.2-12.7,3-20.9c-0.7-5.1-2.3-10-4.9-14.4C194.2,161,162.9,161.6,137.4,154.6z"/>
		<path class="st6" d="M204.1,139.5L204.1,139.5c-23.8,0-47.5,2.2-70.9,6.7l1.1,7.8c1,0,2.1,0.2,3.1,0.5c25.5,7,56.7,6.4,78.9-6.3
			C213.1,142.8,208.6,139.4,204.1,139.5z"/>
		<path class="st10" d="M140.2,196.9c-0.2,0-0.5-0.2-0.5-0.4l-7-50.2c0-0.3,0.1-0.5,0.4-0.6c23.2-4.5,46.9-6.7,70.5-6.7
			c0.1,0,0.3,0,0.4,0c8-0.3,15.7,10.1,17.6,23.5c0.9,6.8,0.3,13.4-1.8,18.6c-2.2,5.3-5.6,8.5-9.7,9.1
			C176.4,195.2,140.6,196.9,140.2,196.9C140.2,196.9,140.2,196.9,140.2,196.9z M133.8,146.6l6.8,49.3c4.3-0.2,37.7-2,69.5-6.7
			c3.7-0.5,6.9-3.5,8.9-8.5c2-5,2.7-11.4,1.7-18.1l0,0c-1.8-13-9.1-22.9-16.6-22.7c-0.1,0-0.3,0-0.4,0
			C180.3,140,156.8,142.3,133.8,146.6z"/>
		<g>
			
				<ellipse transform="matrix(0.9901 -0.14 0.14 0.9901 -22.6304 20.8543)" class="st7" cx="136.9" cy="171.3" rx="14.7" ry="25.3"/>
			<path class="st10" d="M139.2,196.9c-7.8,0-15.5-10.1-17.3-23.5c-1-6.8-0.3-13.4,1.8-18.6c2.1-5.3,5.6-8.5,9.6-9.1
				c8.3-1.2,16.6,9.3,18.6,23.4c1,6.8,0.3,13.4-1.8,18.6c-2.1,5.3-5.6,8.5-9.6,9.1C140.1,196.9,139.7,196.9,139.2,196.9z
				 M134.6,146.6c-0.4,0-0.8,0-1.1,0.1c-3.7,0.5-6.8,3.5-8.8,8.5c-2,5-2.6,11.5-1.7,18.1c1.9,13.5,9.8,23.7,17.5,22.6
				c3.7-0.5,6.8-3.5,8.8-8.5c2-5,2.6-11.5,1.7-18.1C149.1,156.4,141.9,146.6,134.6,146.6z"/>
		</g>
		<path class="st10" d="M139.2,196.9c-7.8,0-15.5-10.1-17.3-23.5c-1-6.8-0.3-13.4,1.8-18.6c2.1-5.3,5.6-8.5,9.6-9.1
			c8.3-1.2,16.6,9.3,18.6,23.4c1,6.8,0.3,13.4-1.8,18.6c-2.1,5.3-5.6,8.5-9.6,9.1C140.1,196.9,139.7,196.9,139.2,196.9z
			 M134.6,146.6c-0.4,0-0.8,0-1.1,0.1c-3.7,0.5-6.8,3.5-8.8,8.5c-2,5-2.6,11.5-1.7,18.1c1.9,13.5,9.8,23.7,17.5,22.6
			c3.7-0.5,6.8-3.5,8.8-8.5c2-5,2.6-11.5,1.7-18.1C149.1,156.4,141.9,146.6,134.6,146.6z"/>
		<path class="st10" d="M166.6,168.1c-1.4,0.3-2.8-0.6-3.1-2l0,0c-0.4-1.6-0.9-3.1-1.3-4.6c-0.6,0.1-1.1,0.5-1.3,1
			c-0.8,1.5,0.2,3.6,0.5,5.1c0.4,2.4,0.6,4.7,0.6,7.1c-0.1,1.1,0.2,2.1,0.7,3c0.3,0.5,0.9,0.7,1.4,0.7c3.1-0.1,2.7-4.5,2.6-6.6
			C166.9,170.6,166.8,169.4,166.6,168.1z"/>
		<path class="st10" d="M211.3,166.3c-1.3,0.2-2.5-0.7-2.7-1.9c0-0.1,0-0.1,0-0.2c-0.3-1.6-0.7-3.1-1-4.7c-0.5,0.1-1,0.5-1.2,1
			c-0.7,1.5,0.1,3.6,0.4,5.1c0.3,2.4,0.5,4.8,0.4,7.1c-0.1,1,0.1,2.1,0.6,3c0.3,0.4,0.8,0.7,1.3,0.7c2.8-0.1,2.5-4.5,2.5-6.5
			C211.5,168.8,211.4,167.5,211.3,166.3z"/>
		<g>
			<polygon class="st11" points="181.9,170 190.9,169.7 186.1,162.2 			"/>
			<path class="st12" d="M181.9,170.5c-0.2,0-0.3-0.1-0.4-0.2c-0.1-0.2-0.1-0.3,0-0.5l4.2-7.7c0.1-0.2,0.2-0.3,0.4-0.3
				c0.2,0,0.3,0.1,0.4,0.2l4.8,7.4c0.1,0.2,0.1,0.3,0,0.5c-0.1,0.2-0.2,0.3-0.4,0.3L181.9,170.5
				C181.9,170.5,181.9,170.5,181.9,170.5z M186.1,163.2l-3.4,6.2l7.3-0.2L186.1,163.2z"/>
		</g>
		<path class="st10" d="M185.8,185.8c-0.5,0-1,0-1.5-0.1c-4.3-0.4-7.4-2.6-8.7-6c-0.1-0.2,0-0.3,0.1-0.5c0.1-0.1,0.3-0.2,0.4-0.2
			l19.8,1.4c0.2,0,0.3,0.1,0.4,0.3c0.1,0.2,0.1,0.3,0,0.5C194.5,184,190.2,185.8,185.8,185.8z M176.8,180.1c1.8,3.6,5.4,4.4,7.6,4.7
			c4.1,0.4,8.5-1,10.5-3.4L176.8,180.1z"/>
		<g>
			<path class="st7" d="M195.8,180.9c-3.3,5.3-16.7,6.9-19.8-1.4L195.8,180.9z"/>
			<path class="st10" d="M185.8,185.8c-0.5,0-1,0-1.5-0.1c-4.3-0.4-7.4-2.6-8.7-6c-0.1-0.2,0-0.3,0.1-0.5c0.1-0.1,0.3-0.2,0.4-0.2
				l19.8,1.4c0.2,0,0.3,0.1,0.4,0.3c0.1,0.2,0.1,0.3,0,0.5C194.5,184,190.2,185.8,185.8,185.8z M176.8,180.1
				c1.8,3.6,5.4,4.4,7.6,4.7c4.1,0.4,8.5-1,10.5-3.4L176.8,180.1z"/>
		</g>
		<path class="st10" d="M203.4,152.9c-0.1,0-0.2,0-0.2-0.1c-0.2-0.1-0.3-0.4-0.2-0.7c0.5-0.8,1.2-1.4,2.1-1.7
			c0.9-0.3,1.8-0.1,2.7,0.3c0.3,0.2,0.6,0.4,0.9,0.7c0.2,0.2,0.2,0.5,0,0.7c-0.2,0.2-0.5,0.2-0.7,0c-0.2-0.2-0.4-0.4-0.6-0.5
			c-1.2-0.7-2.7-0.2-3.4,1C203.8,152.8,203.6,152.9,203.4,152.9z"/>
		<path class="st10" d="M157.8,156.1c-0.1,0-0.2,0-0.2-0.1c-0.2-0.1-0.3-0.4-0.2-0.7c0.5-0.8,1.2-1.4,2.1-1.7
			c0.9-0.3,1.8-0.1,2.7,0.3c0.3,0.2,0.6,0.4,0.9,0.7c0.2,0.2,0.2,0.5,0,0.7c-0.2,0.2-0.5,0.2-0.7,0c-0.2-0.2-0.4-0.4-0.6-0.5
			c-0.6-0.3-1.3-0.4-1.9-0.2c-0.6,0.2-1.2,0.6-1.5,1.2C158.1,156,157.9,156.1,157.8,156.1z"/>
		<g>
			<path class="st7" d="M110.5,174.4c-0.5-0.1-0.7-0.6-0.6-1c0.1-0.3,0.3-0.5,0.6-0.6l25.4-3c0.4-0.2,0.9,0,1.1,0.5
				c0.2,0.4,0,0.9-0.5,1.1c-0.1,0.1-0.3,0.1-0.4,0.1l-25.4,3H110.5z"/>
			<path class="st10" d="M110.5,174.9c0,0-0.1,0-0.1,0c-0.4-0.1-0.7-0.3-0.8-0.6c-0.2-0.3-0.3-0.7-0.2-1c0.1-0.5,0.4-0.9,0.9-1
				l25.4-3c0.3-0.1,0.7-0.1,1,0c0.3,0.1,0.6,0.4,0.7,0.7c0.1,0.3,0.1,0.7,0,1s-0.4,0.6-0.7,0.7c-0.2,0.1-0.4,0.1-0.6,0.1
				L110.5,174.9z M110.6,173.9L110.6,173.9l25.4-3c0,0,0.1,0,0.1,0c0.1,0,0.1,0,0.2,0c0.1,0,0.2-0.1,0.2-0.2c0-0.1,0-0.2,0-0.3
				c0-0.1-0.1-0.2-0.2-0.2c-0.1,0-0.2,0-0.3,0c0,0-0.1,0-0.1,0l-25.4,3c0,0-0.1,0.1-0.1,0.2c0,0.1,0,0.2,0,0.3
				C110.4,173.8,110.5,173.8,110.6,173.9z"/>
		</g>
		<g>
			<circle class="st11" cx="106.9" cy="173.7" r="5.2"/>
			<path class="st12" d="M106.9,179.4c-3.1,0-5.7-2.5-5.7-5.7s2.5-5.7,5.7-5.7s5.7,2.5,5.7,5.7S110,179.4,106.9,179.4z M106.9,169.1
				c-2.6,0-4.7,2.1-4.7,4.7s2.1,4.7,4.7,4.7s4.7-2.1,4.7-4.7S109.4,169.1,106.9,169.1z"/>
		</g>
		<path class="st6" d="M162.5,275c-18.4-13.6-30-40.9-20.4-61.7c-11,6.9-9.6,27.8-4.7,38.9c0.1,0.3,0.2,0.6,0.2,0.9
			c0.6,1.6,1.3,3.1,1.9,4.6c6.2,13.2,19.1,25.4,34.9,25.9c2.7,0.1,5.4-0.2,8-0.7c-2.5-0.6-4.9-1.3-7.4-1.9
			C170.8,279.3,166.6,277.3,162.5,275z"/>
		<path class="st6" d="M206.5,245.4c2.7,4.8,6.7,8.3,11.3,11c2.5-3.5,4.7-6.9,6.6-10c2.8-4.8,1.2-11-3.6-13.9
			c-4.7-2.8-10.8-1.3-13.8,3.4c-9.3,15.2-18.2,24-27.4,26.8c-0.9,0.3-1.8,0.4-2.8,0.5C189.1,263.7,199.8,255.3,206.5,245.4z"/>
		<path class="st3" d="M206.5,245.4c-6.6,10-17.3,18.3-29.7,17.8c-8.1,0.6-15.2-6.5-18.8-14.2c-3.8-8.2-6.1-18.5-7.2-32.3
			c-0.2-2.2-0.1-5.6-2.3-5.7c-2.2,0.3-4.4,1-6.3,2.2c-9.6,20.8,1.9,48.1,20.4,61.7c4.1,2.3,8.3,4.3,12.7,5.9
			c2.4,0.6,4.9,1.3,7.4,1.9c0.9-0.2,1.9-0.4,2.8-0.7c14.2-4.3,24.8-15.2,32.4-25.7C213.2,253.7,209.1,250.2,206.5,245.4z"/>
		<path class="st10" d="M175.6,284c-0.3,0-0.7,0-1,0c-17.4-0.6-29.9-14.5-35.4-26.2c-0.7-1.5-1.4-3-2-4.6c0,0,0-0.1,0-0.1
			c0-0.3-0.1-0.5-0.2-0.8c-4.2-9.6-5.5-24.9-0.3-33.9c2.6-4.6,6.6-7.2,11.7-7.8c2.5,0.1,2.7,3.1,2.8,5.4c0,0.3,0,0.5,0.1,0.8
			c1.1,13.7,3.4,23.9,7.2,32.1c3.9,8.3,12.1,16,21,13.4c9.1-2.7,17.9-11.4,27.2-26.5c3.1-5,9.6-6.6,14.6-3.6l0,0
			c5,3,6.6,9.6,3.6,14.6c-7.7,12.7-20.2,30.1-39.2,35.9C182.3,283.5,178.9,284,175.6,284z M138.1,252.9c0.6,1.5,1.2,3,1.9,4.5
			c5.3,11.5,17.6,25.1,34.5,25.7c3.6,0.1,7.2-0.4,10.7-1.4c18.7-5.6,31-22.9,38.7-35.4c2.7-4.5,1.3-10.5-3.3-13.2c0,0,0,0,0,0
			c-4.5-2.8-10.5-1.3-13.3,3.2c-9.3,15.4-18.4,24.2-27.7,27c-9.4,2.8-18.1-5.2-22.2-13.9c-3.9-8.3-6.2-18.6-7.3-32.4
			c0-0.2,0-0.5-0.1-0.8c-0.1-2.4-0.4-4.4-1.8-4.4c-4.8,0.6-8.5,3-10.9,7.3c-5,8.7-3.7,23.7,0.4,33
			C138,252.2,138.1,252.5,138.1,252.9z"/>
		<g>
			<path class="st3" d="M210.4,229.3l1-1c4.2-4.4,11.2-4.6,15.6-0.4l13.7,13c4.4,4.2,4.6,11.2,0.4,15.6l-1,1
				c-4.2,4.4-11.2,4.6-15.6,0.4l-13.7-13C206.4,240.7,206.2,233.7,210.4,229.3z"/>
			<path class="st10" d="M232.1,261.4c-3,0-5.8-1.1-7.9-3.2l-13.7-13c-4.6-4.4-4.8-11.7-0.4-16.3l1-1c2.1-2.2,5-3.5,8-3.6
				c3.1-0.1,6,1,8.2,3.2l13.7,13c2.2,2.1,3.5,5,3.6,8c0.1,3.1-1,6-3.1,8.2l-1,1c-2.1,2.2-5,3.5-8,3.6
				C232.3,261.4,232.2,261.4,232.1,261.4z M219.3,225.3c-0.1,0-0.2,0-0.3,0c-2.8,0.1-5.4,1.2-7.3,3.3l-1,1l0,0
				c-4,4.2-3.8,10.9,0.4,14.9l13.7,13c2,1.9,4.7,3,7.5,2.9c2.8-0.1,5.4-1.2,7.3-3.3l1-1c1.9-2,3-4.7,2.9-7.5s-1.2-5.4-3.3-7.3
				l-13.7-13C224.6,226.3,222,225.3,219.3,225.3z M210.4,229.3L210.4,229.3L210.4,229.3z"/>
		</g>
		<g>
			<path class="st3" d="M215.2,239.5l4.6,4.4c3.6,3.4,8.9,3.5,11.9,0.3l2.3-2.5c3-3.2,2.5-8.5-1-11.8l-3-2.8
				c-5.1-4.8-12.7-5.1-17-0.5l0,0l-3.1,3.2"/>
			<path class="st10" d="M226.2,247c-2.4,0-4.9-1-6.7-2.8l-4.6-4.4c-0.2-0.2-0.2-0.5,0-0.7c0.2-0.2,0.5-0.2,0.7,0l4.6,4.4
				c1.7,1.6,4,2.6,6.3,2.5c1.9-0.1,3.7-0.8,4.9-2.1l2.3-2.5c2.8-3,2.4-8-1-11.1l-3-2.8c-2.5-2.4-5.8-3.7-9.1-3.6
				c-2.8,0.1-5.4,1.2-7.2,3.1l-3.1,3.2c-0.2,0.2-0.5,0.2-0.7,0c-0.2-0.2-0.2-0.5,0-0.7l3.1-3.2c2-2.1,4.8-3.4,7.9-3.4
				c3.5-0.1,7.1,1.3,9.8,3.9l3,2.8c3.7,3.5,4.2,9.2,1,12.5l-2.3,2.5c-1.4,1.5-3.4,2.4-5.6,2.5C226.3,247,226.3,247,226.2,247z"/>
		</g>
		<path class="st25" d="M169.9,199.6c4.4-0.9,8.9-1.5,13.3-2"/>
		<path class="st7" d="M175.5,200.9c-2.1,0-4.3-0.2-6.4-0.5c-0.3,0-0.5-0.3-0.4-0.6c0-0.3,0.3-0.5,0.6-0.4c4.4,0.7,8.9,0.6,13.3-0.1
			c0.3,0,0.5,0.1,0.6,0.4c0,0.3-0.1,0.5-0.4,0.6C180.4,200.7,178,200.9,175.5,200.9z"/>
		<path class="st7" d="M209.8,259.7c-0.1,0-0.2,0-0.3-0.1c-3.5-2.7-6.4-6-8.6-9.8c-0.1-0.2-0.1-0.5,0.2-0.7c0.2-0.1,0.5-0.1,0.7,0.2
			c2.2,3.7,5,6.9,8.3,9.5c0.2,0.2,0.3,0.5,0.1,0.7C210.1,259.6,210,259.7,209.8,259.7z"/>
		<path class="st7" d="M197.7,272.4c-0.1,0-0.3-0.1-0.4-0.2c-3.1-3.3-5.5-7.2-7-11.5c-0.1-0.3,0.1-0.5,0.3-0.6
			c0.3-0.1,0.5,0.1,0.6,0.3c1.4,4.1,3.7,8,6.7,11.2c0.2,0.2,0.2,0.5,0,0.7C197.9,272.3,197.8,272.4,197.7,272.4z"/>
		<path class="st7" d="M181.8,279.2c-0.2,0-0.4-0.1-0.5-0.3c-1.7-3.9-2.7-8.1-2.9-12.4c0-0.3,0.2-0.5,0.5-0.5c0.3,0,0.5,0.2,0.5,0.5
			c0.2,4.2,1.1,8.2,2.8,12c0.1,0.3,0,0.5-0.3,0.7C181.9,279.2,181.9,279.2,181.8,279.2z"/>
		<path class="st7" d="M162,274.9c-0.2,0-0.5-0.2-0.5-0.4c-0.6-3.9,0.5-7.9,3.2-10.9c0.2-0.2,0.5-0.2,0.7,0c0.2,0.2,0.2,0.5,0,0.7
			c-2.4,2.8-3.5,6.5-2.9,10.1C162.5,274.6,162.3,274.9,162,274.9C162,274.9,162,274.9,162,274.9z"/>
		<path class="st7" d="M146,259.6c-0.1,0-0.2,0-0.2-0.1c-0.2-0.1-0.3-0.4-0.2-0.7c1.9-3.8,5.3-6.7,9.4-7.9c0.3-0.1,0.5,0.1,0.6,0.3
			c0.1,0.3-0.1,0.5-0.3,0.6c-3.8,1.2-7,3.9-8.8,7.4C146.4,259.5,146.2,259.6,146,259.6z"/>
		<path class="st7" d="M137.7,242.8c-0.1,0-0.2,0-0.3-0.1c-0.2-0.2-0.2-0.5-0.1-0.7c2.8-3.3,7.4-3.8,11.9-4c0.3,0,0.5,0.2,0.5,0.5
			s-0.2,0.5-0.5,0.5c-4.3,0.2-8.6,0.7-11.2,3.7C138,242.7,137.8,242.8,137.7,242.8z"/>
		<path class="st7" d="M137.8,224.4c-0.2,0-0.3-0.1-0.4-0.3c-0.1-0.2,0-0.5,0.2-0.7c2.5-1.4,5.5-1.9,8.3-1.2
			c0.3,0.1,0.4,0.3,0.4,0.6c-0.1,0.3-0.3,0.4-0.6,0.4c-2.6-0.6-5.3-0.2-7.6,1.1C138,224.4,137.9,224.4,137.8,224.4z"/>
	</g>
	<g>
		<polygon class="st2" points="73.7,289.6 110.6,312.1 110.6,299 73.7,274.6 		"/>
		<polygon class="st3" points="316.5,320.9 110.6,312.1 110.6,299 317.4,297.7 		"/>
		<path class="st15" d="M73.7,290.1c-0.3,0-0.5-0.2-0.5-0.5v-14.9c0-0.3,0.2-0.5,0.5-0.5s0.5,0.2,0.5,0.5v14.9
			C74.2,289.9,74,290.1,73.7,290.1z"/>
		<path class="st15" d="M316.5,321.4C316.5,321.4,316.5,321.4,316.5,321.4c-0.3,0-0.5-0.2-0.5-0.5l0.8-23.2c0-0.3,0.3-0.5,0.5-0.5
			c0.3,0,0.5,0.2,0.5,0.5l-0.8,23.2C317,321.2,316.8,321.4,316.5,321.4z"/>
		<polygon class="st3" points="110.2,299 73.7,274.8 275.3,274.8 317.8,297.9 		"/>
		<path class="st15" d="M110.2,299.5c-0.1,0-0.2,0-0.3-0.1l-36.5-24.2c-0.2-0.1-0.3-0.3-0.2-0.6c0.1-0.2,0.3-0.4,0.5-0.4h201.6
			c0.1,0,0.2,0,0.2,0.1l42.5,23.1c0.2,0.1,0.3,0.3,0.2,0.6c-0.1,0.2-0.3,0.4-0.5,0.4L110.2,299.5
			C110.2,299.5,110.2,299.5,110.2,299.5z M75.3,275.3l35,23.2l205.5-1.1l-40.7-22.1H75.3z"/>
		<path class="st15" d="M110.6,312.6c-0.3,0-0.5-0.2-0.5-0.5V299c0-0.3,0.2-0.5,0.5-0.5s0.5,0.2,0.5,0.5v13.1
			C111.1,312.3,110.9,312.6,110.6,312.6z"/>
	</g>
	<g>
		<polygon class="st2" points="254.6,364.4 254.6,389.5 269.7,418.6 270.3,406.7 		"/>
		<path class="st15" d="M254.6,390c-0.3,0-0.5-0.2-0.5-0.5v-25.1c0-0.3,0.2-0.5,0.5-0.5s0.5,0.2,0.5,0.5v25.1
			C255.1,389.8,254.9,390,254.6,390z"/>
		<polygon class="st3" points="269.7,406.7 254.6,364.7 602.8,366 667.4,406.7 		"/>
		<path class="st15" d="M667.4,407.2H269.7c-0.2,0-0.4-0.1-0.5-0.3l-15-42c-0.1-0.2,0-0.3,0.1-0.5c0.1-0.1,0.2-0.2,0.4-0.2
			c0,0,0,0,0,0l348.2,1.3c0.1,0,0.2,0,0.3,0.1l64.6,40.7c0.2,0.1,0.3,0.3,0.2,0.6S667.6,407.2,667.4,407.2z M270,406.2h395.6
			l-63-39.7l-347.3-1.3L270,406.2z"/>
		<path class="st26" d="M270.3,406.7"/>
		<path class="st15" d="M269.7,419.1c-0.3,0-0.5-0.2-0.5-0.5v-11.9c0-0.3,0.2-0.5,0.5-0.5s0.5,0.2,0.5,0.5v11.9
			C270.2,418.8,270,419.1,269.7,419.1z"/>
	</g>
	<g>
		<path class="st2" d="M508.3,269.4v112.8H330.1V269.4c0-4.6,3.1-8,7.4-8h163.2C504.9,261.4,508.3,264.8,508.3,269.4z"/>
		<path class="st6" d="M521.9,382.2v5.3c-1.7,1.9-3.7,2.6-6.5,2.6H320.9c-2.8,0-5.2-0.7-6.9-2.6v-5.3H521.9z"/>
		<g>
			<rect x="337.4" y="270.5" class="st3" width="162.3" height="103.4"/>
			<path class="st7" d="M489.3,365.8H346.6c-0.3,0-0.5-0.2-0.5-0.5v-74.9c0-0.3,0.2-0.5,0.5-0.5h142.7c0.3,0,0.5,0.2,0.5,0.5v74.9
				C489.8,365.6,489.6,365.8,489.3,365.8z M347.1,364.8h141.7v-73.9H347.1V364.8z"/>
			<path class="st7" d="M496.4,374.4c-0.3,0-0.5-0.2-0.5-0.5v-90.6c0-1.9-1.6-3.5-3.5-3.5H345.2c-1.9,0-3.5,1.6-3.5,3.5v90.6
				c0,0.3-0.2,0.5-0.5,0.5s-0.5-0.2-0.5-0.5v-90.6c0-2.5,2-4.5,4.5-4.5h147.2c2.5,0,4.5,2,4.5,4.5v90.6
				C496.9,374.1,496.6,374.4,496.4,374.4z"/>
			<path class="st7" d="M357,275.6h-13.7c-0.3,0-0.5-0.2-0.5-0.5s0.2-0.5,0.5-0.5H357c0.3,0,0.5,0.2,0.5,0.5S357.3,275.6,357,275.6z
				"/>
			<path class="st7" d="M374.7,275.6H361c-0.3,0-0.5-0.2-0.5-0.5s0.2-0.5,0.5-0.5h13.7c0.3,0,0.5,0.2,0.5,0.5S375,275.6,374.7,275.6
				z"/>
			<path class="st7" d="M391.4,275.6h-13.7c-0.3,0-0.5-0.2-0.5-0.5s0.2-0.5,0.5-0.5h13.7c0.3,0,0.5,0.2,0.5,0.5
				S391.7,275.6,391.4,275.6z"/>
			<path class="st7" d="M409.1,275.6h-13.7c-0.3,0-0.5-0.2-0.5-0.5s0.2-0.5,0.5-0.5h13.7c0.3,0,0.5,0.2,0.5,0.5
				S409.4,275.6,409.1,275.6z"/>
			<path class="st7" d="M480.2,276.5c-0.9,0-1.7-0.7-1.7-1.7s0.7-1.7,1.7-1.7s1.7,0.7,1.7,1.7S481.1,276.5,480.2,276.5z
				 M480.2,274.2c-0.4,0-0.7,0.3-0.7,0.7s0.3,0.7,0.7,0.7c0.4,0,0.7-0.3,0.7-0.7S480.5,274.2,480.2,274.2z"/>
			<path class="st7" d="M359.2,285.3c-0.9,0-1.7-0.7-1.7-1.7s0.7-1.7,1.7-1.7s1.7,0.7,1.7,1.7S360.1,285.3,359.2,285.3z M359.2,283
				c-0.4,0-0.7,0.3-0.7,0.7c0,0.4,0.3,0.7,0.7,0.7s0.7-0.3,0.7-0.7C359.9,283.3,359.6,283,359.2,283z"/>
			<path class="st7" d="M352.7,285.3c-0.9,0-1.7-0.7-1.7-1.7s0.7-1.7,1.7-1.7s1.7,0.7,1.7,1.7S353.7,285.3,352.7,285.3z M352.7,283
				c-0.4,0-0.7,0.3-0.7,0.7c0,0.4,0.3,0.7,0.7,0.7s0.7-0.3,0.7-0.7C353.4,283.3,353.1,283,352.7,283z"/>
			<path class="st7" d="M346.3,285.3c-0.9,0-1.7-0.7-1.7-1.7s0.7-1.7,1.7-1.7s1.7,0.7,1.7,1.7S347.2,285.3,346.3,285.3z M346.3,283
				c-0.4,0-0.7,0.3-0.7,0.7c0,0.4,0.3,0.7,0.7,0.7s0.7-0.3,0.7-0.7C347,283.3,346.7,283,346.3,283z"/>
			<path class="st7" d="M493.1,276.5c-0.9,0-1.7-0.7-1.7-1.7s0.7-1.7,1.7-1.7s1.7,0.7,1.7,1.7S494,276.5,493.1,276.5z M493.1,274.2
				c-0.4,0-0.7,0.3-0.7,0.7s0.3,0.7,0.7,0.7s0.7-0.3,0.7-0.7S493.4,274.2,493.1,274.2z"/>
			<path class="st7" d="M486.6,276.5c-0.9,0-1.7-0.7-1.7-1.7s0.7-1.7,1.7-1.7s1.7,0.7,1.7,1.7S487.5,276.5,486.6,276.5z
				 M486.6,274.2c-0.4,0-0.7,0.3-0.7,0.7s0.3,0.7,0.7,0.7c0.4,0,0.7-0.3,0.7-0.7S487,274.2,486.6,274.2z"/>
			<g class="st27">
				<polygon class="st8" points="416.9,270.5 381.3,270.5 499.7,373.9 499.7,342.8 				"/>
				<polygon class="st8" points="499.7,317.8 499.7,270.5 445.5,270.5 				"/>
			</g>
		</g>
		<ellipse class="st2" cx="418" cy="266" rx="1.1" ry="1.2"/>
		<ellipse class="st2" cx="421" cy="266" rx="0.4" ry="0.4"/>
		<path class="st7" d="M392.5,382.2c1.3,1.7,3.1,2.9,5.1,2.9h43.2c2,0,3.8-1.2,5.1-2.9H392.5z"/>
	</g>
</g>
<title>albert-success-2</title>
</svg>
