<svg id="Layer_3" data-name="Layer 3" xmlns="http://www.w3.org/2000/svg" viewBox="0 0 280 280"><defs><style>.cls-1,.cls-13,.cls-18,.cls-19,.cls-20,.cls-4{fill:#d0e4f1;}.cls-2{fill:#d65129;}.cls-2,.cls-3{stroke:#d65129;}.cls-12,.cls-13,.cls-14,.cls-15,.cls-16,.cls-17,.cls-19,.cls-2,.cls-20,.cls-21,.cls-3,.cls-4,.cls-6,.cls-7,.cls-9{stroke-linecap:round;}.cls-10,.cls-11,.cls-12,.cls-13,.cls-14,.cls-15,.cls-16,.cls-17,.cls-19,.cls-2,.cls-20,.cls-21,.cls-3,.cls-4,.cls-6,.cls-7,.cls-9{stroke-linejoin:round;}.cls-22,.cls-3{fill:#f56f40;}.cls-18,.cls-19,.cls-4{stroke:#d0e4f1;}.cls-5,.cls-7{fill:#fff;}.cls-10,.cls-11,.cls-21,.cls-6,.cls-9{fill:none;}.cls-10,.cls-14,.cls-15,.cls-20,.cls-21,.cls-6,.cls-7{stroke:#3f555a;}.cls-8{fill:#f3f6f7;}.cls-9{stroke:#19bc9c;}.cls-10{stroke-width:2px;}.cls-11{stroke:#c3d4e0;stroke-dasharray:1 2;}.cls-12{fill:#19bc9c;stroke:#109995;}.cls-13{stroke:#a1c2d8;}.cls-14{fill:#3f555a;}.cls-15{fill:#233839;}.cls-16{fill:#2173a1;}.cls-16,.cls-17{stroke:#2173a1;}.cls-17{fill:#3290c1;}.cls-18{stroke-miterlimit:10;}.cls-19,.cls-21{stroke-dasharray:0 5;}</style></defs><title>Practice exams</title><path class="cls-1" d="M197.8,200a16.49,16.49,0,0,0-.86-4.53,18.6,18.6,0,0,0-1.73-3.08c-4.49-7.07-7.79-15.25-7.33-23.62a5,5,0,0,1,.44-2.07,1.92,1.92,0,0,1,1.69-1.1,11.49,11.49,0,0,0-.07,5.5,66.38,66.38,0,0,0,4.6,15.64c1.4,3.23,3.06,6.36,4.35,9.64a31.7,31.7,0,0,1,1.58,5.2c.21,1,1.07,4.4.24,5.18-1.18,1.11-2.23-.39-2.4-1.31C198,203.73,198,201.84,197.8,200Z"/><path class="cls-1" d="M198.18,170.77c.29-6.83-1-13.61-1.79-20.4a6.57,6.57,0,0,1,.54-4.33,1.13,1.13,0,0,0,.21-.43.66.66,0,0,0-.43-.65,1.33,1.33,0,0,0-1.56.64,3.79,3.79,0,0,0-.41,1.77,122.33,122.33,0,0,0,1.06,23.51c.12.9-.32,4.53.76,4.36C198,175,198.14,171.75,198.18,170.77Z"/><path class="cls-1" d="M203,156.38a91.19,91.19,0,0,1-.24-10.64c0-1,.22-2.23,1.14-2.66a1.27,1.27,0,0,0-1.94,0,3.57,3.57,0,0,0-.69,2.11,91.15,91.15,0,0,0,0,18c.08.87-.08,2.87.48,3.59,1.19,1.53,1.47-.73,1.57-1.65A45.18,45.18,0,0,0,203,156.38Z"/><path class="cls-1" d="M210.27,168.27a1.4,1.4,0,0,0,1.1-1,4.13,4.13,0,0,0,.09-1.57L210.3,148.9c-.1-1.48-.11-3.19,1-4.13-.09-.54-.89-.68-1.33-.35a2.29,2.29,0,0,0-.7,1.45,45.9,45.9,0,0,0-.36,11.37l.34,6.55C209.33,164.68,208.82,168.42,210.27,168.27Z"/><path class="cls-1" d="M217.6,167.87a5.93,5.93,0,0,0,.76-3.37,93.75,93.75,0,0,0-.42-12c-.11-1.06-.19-2.3.6-3a.58.58,0,0,0-.85-.11,1.54,1.54,0,0,0-.47.84c-1.28,4.48,0,9.28-.52,13.91a7.93,7.93,0,0,1-.45,2c-.24.62-1.05,1.26-1.21,1.8C214.59,169.58,217,168.73,217.6,167.87Z"/><polygon class="cls-2" points="223.83 105.02 223.83 114.43 221.98 117.54 221.98 108.13 223.83 105.02"/><polygon class="cls-3" points="223.83 105.02 221.98 108.13 212.57 108.13 214.42 105.02 223.83 105.02"/><rect class="cls-3" x="212.57" y="108.13" width="9.41" height="9.41"/><rect class="cls-4" x="104.11" y="95.04" width="63.54" height="90.39" rx="1" ry="1"/><rect class="cls-5" x="107.07" y="92.29" width="63.54" height="90.39" rx="1" ry="1"/><rect class="cls-4" x="111.11" y="89.04" width="63.54" height="90.39" rx="1" ry="1"/><rect class="cls-6" x="107.07" y="92.29" width="63.54" height="90.39" rx="1" ry="1"/><rect class="cls-7" x="113.11" y="87.04" width="63.54" height="90.39" rx="1" ry="1"/><rect class="cls-8" x="118.29" y="118.68" width="21.98" height="5.17"/><rect class="cls-8" x="118.29" y="129.02" width="21.98" height="5.17"/><rect class="cls-8" x="149.49" y="118.68" width="21.98" height="5.17"/><rect class="cls-8" x="149.49" y="129.02" width="21.98" height="5.17"/><rect class="cls-8" x="118.29" y="153.94" width="21.98" height="5.17"/><rect class="cls-8" x="118.29" y="164.28" width="21.98" height="5.17"/><rect class="cls-8" x="149.49" y="153.94" width="21.98" height="5.17"/><rect class="cls-8" x="149.49" y="164.28" width="21.98" height="5.17"/><polyline class="cls-9" points="124.81 99.58 121.44 92.22 118.29 99.67"/><line class="cls-9" x1="118.92" y1="98.17" x2="124.14" y2="98.1"/><line class="cls-9" x1="134.68" y1="99.58" x2="134.68" y2="99.58"/><line class="cls-9" x1="131.92" y1="99.58" x2="127.67" y2="99.58"/><polyline class="cls-9" points="129.79 99.58 129.79 92.22 127.64 94.37"/><line class="cls-10" x1="118.29" y1="108.86" x2="121.81" y2="108.86"/><line class="cls-10" x1="118.29" y1="114.03" x2="140.27" y2="114.03"/><line class="cls-11" x1="118.29" y1="119.2" x2="140.27" y2="119.2"/><line class="cls-11" x1="118.29" y1="124.37" x2="140.27" y2="124.37"/><line class="cls-11" x1="118.29" y1="129.54" x2="140.27" y2="129.54"/><line class="cls-11" x1="118.29" y1="134.71" x2="140.27" y2="134.71"/><line class="cls-10" x1="149.49" y1="108.86" x2="153.01" y2="108.86"/><line class="cls-10" x1="149.49" y1="114.03" x2="171.47" y2="114.03"/><line class="cls-11" x1="149.49" y1="119.2" x2="171.47" y2="119.2"/><line class="cls-11" x1="149.49" y1="124.37" x2="171.47" y2="124.37"/><line class="cls-11" x1="149.49" y1="129.54" x2="171.47" y2="129.54"/><line class="cls-11" x1="149.49" y1="134.71" x2="171.47" y2="134.71"/><line class="cls-10" x1="118.29" y1="144.11" x2="121.81" y2="144.11"/><line class="cls-10" x1="118.29" y1="149.27" x2="140.27" y2="149.27"/><line class="cls-11" x1="118.29" y1="154.44" x2="140.27" y2="154.44"/><line class="cls-11" x1="118.29" y1="159.61" x2="140.27" y2="159.61"/><line class="cls-11" x1="118.29" y1="164.78" x2="140.27" y2="164.78"/><line class="cls-11" x1="118.29" y1="169.95" x2="140.27" y2="169.95"/><line class="cls-10" x1="149.49" y1="144.11" x2="153.01" y2="144.11"/><line class="cls-10" x1="149.49" y1="149.27" x2="171.47" y2="149.27"/><line class="cls-11" x1="149.49" y1="154.44" x2="171.47" y2="154.44"/><line class="cls-11" x1="149.49" y1="159.61" x2="171.47" y2="159.61"/><line class="cls-11" x1="149.49" y1="164.78" x2="171.47" y2="164.78"/><line class="cls-11" x1="149.49" y1="169.95" x2="171.47" y2="169.95"/><path class="cls-12" d="M197.39,80.6v40.89a2.13,2.13,0,0,0-3,0,2.14,2.14,0,0,0-3,0V80.6Z"/><rect class="cls-13" x="191.36" y="78.04" width="6.03" height="2.56"/><path class="cls-3" d="M197.39,75.77V78h-6V75.77a3,3,0,1,1,6,0Z"/><path class="cls-12" d="M193.37,83.69v31"/><path class="cls-12" d="M195.38,86.63v32.1"/><path class="cls-7" d="M197.39,121.49l-2,4.41h-2l-2-4.41a2.14,2.14,0,0,1,3,0A2.13,2.13,0,0,1,197.39,121.49Z"/><polygon class="cls-14" points="195.35 125.9 194.38 128 193.41 125.9 195.35 125.9"/><polygon class="cls-15" points="194.38 128 193.4 125.9 193.41 125.9 194.38 128"/><polygon class="cls-16" points="223.83 114.43 223.83 123.84 221.98 126.95 221.98 117.54 223.83 114.43"/><rect class="cls-17" x="212.57" y="117.54" width="9.41" height="9.41"/><path class="cls-6" d="M201.63,167.09a109.11,109.11,0,0,0-2.69-18.68,5.88,5.88,0,0,0-1-2.41,2.08,2.08,0,0,0-2.32-.76c-1.06.46-1.25,1.87-1.24,3,0,8.68,2,17.32,1.27,26a1.49,1.49,0,0,1-.47,1.17c-.36.25-1-.11-.82-.5-.72-2.16-1.36-4.47-2.08-6.63a5.58,5.58,0,0,0-1.19-2.3,1.91,1.91,0,0,0-2.37-.36,2.13,2.13,0,0,0-.69,1.06,8,8,0,0,0-.33,2.25,37.18,37.18,0,0,0,3.63,17.51c1.61,3.34,3.71,6.42,5.38,9.72a20,20,0,0,1,1.68,10.65"/><path class="cls-6" d="M201,159.68l0-8.15c0-2.3-.87-6.24.54-8.24s3.37-.29,4,1.31c1,2.34,1.06,4.9,1.44,7.37a132.55,132.55,0,0,1,1.13,13.26c0,.79.19,1.73.91,2-.3-.14.19-4.38.19-4.89,0-2.74-.25-5.63-.44-8.42s-.57-5.84.38-8.54a1.54,1.54,0,0,1,2.32-.92c1.3.77,1.41,2.69,1.62,4a114.77,114.77,0,0,1,1.38,19.34"/><path class="cls-6" d="M214.57,167.59c-.16.27.29.58.57.42a1.11,1.11,0,0,0,.42-.82,62.36,62.36,0,0,0,.85-14.67c-.06-1.06-.11-2.56.88-3.24,1.4-1,2.61.78,3,1.93a39.52,39.52,0,0,1,2.15,11.62c.42,10.19-2,20.37-4,30.3-.78,3.94-.14,9.66.12,13.67"/><circle class="cls-18" cx="71.93" cy="111.68" r="15.76"/><rect class="cls-18" x="56.71" y="92.6" width="11.02" height="3.81" transform="translate(-38.44 42.84) rotate(-29.47)"/><polyline class="cls-18" points="73.91 95.88 74.41 94.05 78.89 95.29 78.38 97.12"/><path class="cls-18" d="M75.26,94.29l.12-.44a1.44,1.44,0,0,1,1.78-1h0a1.44,1.44,0,0,1,1,1.78l-.12.44"/><polyline class="cls-4" points="62.16 99.11 61.22 97.45 65.26 95.17 66.2 96.82"/><path class="cls-18" d="M71.93,99.29A12.35,12.35,0,0,0,62.23,104a12.37,12.37,0,0,1,17.39,17.39,12.38,12.38,0,0,0-7.69-22.08Z"/><path class="cls-18" d="M73.93,125.43A15.75,15.75,0,0,1,61.83,99.58,15.75,15.75,0,1,0,84,121.77,15.69,15.69,0,0,1,73.93,125.43Z"/><circle class="cls-4" cx="71.93" cy="111.68" r="15.76"/><circle class="cls-19" cx="71.93" cy="111.68" r="10.24"/><path class="cls-4" d="M82.89,105.92a12.52,12.52,0,0,0-6.32-5.72"/><path class="cls-4" d="M67.83,123.28A12.42,12.42,0,0,0,84.3,111.16"/><path class="cls-4" d="M74.65,99.6c-9-2-17.2,6.75-14.61,15.56"/><line class="cls-1" x1="71.93" y1="111.68" x2="65.52" y2="117.15"/><path class="cls-1" d="M73.11,113.06l-7.27,4.47a.51.51,0,0,1-.65-.76l5.54-6.49a1.85,1.85,0,1,1,2.81,2.4A1.9,1.9,0,0,1,73.11,113.06Z"/><rect class="cls-18" x="57.06" y="93.93" width="5.61" height="3.81" transform="translate(-39.4 41.85) rotate(-29.47)"/><rect class="cls-4" x="56.71" y="92.6" width="11.02" height="3.81" transform="translate(-38.44 42.84) rotate(-29.47)"/><polyline class="cls-4" points="73.91 95.88 74.41 94.05 78.89 95.29 78.38 97.12"/><path class="cls-4" d="M75.26,94.29l.12-.44a1.44,1.44,0,0,1,1.78-1h0a1.44,1.44,0,0,1,1,1.78l-.12.44"/><line class="cls-4" x1="59.24" y1="96.37" x2="58.37" y2="94.83"/><line class="cls-4" x1="60.67" y1="94.97" x2="60.14" y2="94.02"/><line class="cls-4" x1="62.2" y1="93.75" x2="61.85" y2="93.11"/><line class="cls-4" x1="63.79" y1="92.62" x2="63.43" y2="91.99"/><circle class="cls-5" cx="74.93" cy="108.68" r="15.76"/><rect class="cls-5" x="59.71" y="89.6" width="11.02" height="3.81" transform="translate(-36.58 43.93) rotate(-29.47)"/><polyline class="cls-5" points="76.91 92.88 77.41 91.05 81.89 92.29 81.38 94.12"/><path class="cls-5" d="M78.26,91.29l.12-.44a1.44,1.44,0,0,1,1.78-1h0a1.44,1.44,0,0,1,1,1.78l-.12.44"/><polyline class="cls-20" points="65.16 96.11 64.22 94.45 68.26 92.17 69.2 93.82"/><path class="cls-1" d="M74.93,96.29A12.35,12.35,0,0,0,65.23,101a12.37,12.37,0,0,1,17.39,17.39,12.38,12.38,0,0,0-7.69-22.08Z"/><path class="cls-1" d="M76.93,122.43A15.75,15.75,0,0,1,64.83,96.58,15.75,15.75,0,1,0,87,118.77,15.69,15.69,0,0,1,76.93,122.43Z"/><circle class="cls-6" cx="74.93" cy="108.68" r="15.76"/><circle class="cls-21" cx="74.93" cy="108.68" r="10.24"/><path class="cls-6" d="M85.89,102.92a12.52,12.52,0,0,0-6.32-5.72"/><path class="cls-6" d="M70.83,120.28A12.42,12.42,0,0,0,87.3,108.16"/><path class="cls-6" d="M77.65,96.6c-9-2-17.2,6.75-14.61,15.56"/><path class="cls-22" d="M76.11,110.06l-7.27,4.47a.51.51,0,0,1-.65-.76l5.54-6.49a1.85,1.85,0,1,1,2.81,2.4A1.9,1.9,0,0,1,76.11,110.06Z"/><rect class="cls-1" x="60.06" y="90.93" width="5.61" height="3.81" transform="translate(-37.54 42.94) rotate(-29.47)"/><rect class="cls-6" x="59.71" y="89.6" width="11.02" height="3.81" transform="translate(-36.58 43.93) rotate(-29.47)"/><polyline class="cls-6" points="76.91 92.88 77.41 91.05 81.89 92.29 81.38 94.12"/><path class="cls-6" d="M78.26,91.29l.12-.44a1.44,1.44,0,0,1,1.78-1h0a1.44,1.44,0,0,1,1,1.78l-.12.44"/><line class="cls-6" x1="62.24" y1="93.37" x2="61.37" y2="91.83"/><line class="cls-6" x1="63.67" y1="91.97" x2="63.14" y2="91.02"/><line class="cls-6" x1="65.2" y1="90.75" x2="64.85" y2="90.11"/><line class="cls-6" x1="66.79" y1="89.62" x2="66.43" y2="88.99"/><path class="cls-1" d="M68.78,160.23c.36-2.79.73-5.58.83-8.39.09-2.52,0-5.18,1.18-7.41a1.11,1.11,0,0,0-1.27.29,3.07,3.07,0,0,0-.63,1.23,50.7,50.7,0,0,0-2.11,11.61c-.15,2-1.45,9,.33,10.14C68.53,166,68.5,162.37,68.78,160.23Z"/><path class="cls-1" d="M74.28,166.09a5.58,5.58,0,0,0,.83-2.16c1.29-6,.48-12.28,1.94-18.22.27-1.12.89-2.44,2-2.49a1.87,1.87,0,0,0-2.72-.07,5.22,5.22,0,0,0-1.29,2.76A96.87,96.87,0,0,0,73,158.29c-.21,2-.35,4.05-.43,6.08C72.53,165.6,72.66,168.29,74.28,166.09Z"/><path class="cls-1" d="M83.44,151.26c.31-2,.71-4.34,2.42-5.49a2.4,2.4,0,0,0-2.77.71,6.54,6.54,0,0,0-1.26,2.78,61.46,61.46,0,0,0-2,17A72.15,72.15,0,0,0,83.44,151.26Z"/><path class="cls-1" d="M87.48,175.55a3.51,3.51,0,0,0,1.37-1.83,13.17,13.17,0,0,0,1-2.63,16.59,16.59,0,0,1,.51-2.61,3.73,3.73,0,0,1,2.54-2.25,1.56,1.56,0,0,0-1.93-.64c-1.38.48-1.94,2.1-2.32,3.51l-.75,2.8a6.25,6.25,0,0,1-.72,1.86c-.3.45-1.41,1-1.22,1.53S87.13,175.74,87.48,175.55Z"/><path class="cls-1" d="M63.47,181.24c-1.43-10.79-2.58-21.82-.56-32.62-.28,0-1.44,1.22-1.67,1.36-2.64,7.93-3,14-2.3,22.66.39,5,2,11.12,3,16,.89,4.54,1.63,9.2.18,13.69,0,1.52,0,3.06,0,4.62a6.69,6.69,0,0,0,4.73-.35s-1-6.78-1.26-9C65,192.18,64.2,186.71,63.47,181.24Z"/><path class="cls-6" d="M79.38,166.94a109.11,109.11,0,0,1,2.69-18.68,5.88,5.88,0,0,1,1-2.41,2.08,2.08,0,0,1,2.32-.76c1.06.46,1.25,1.87,1.24,3,0,8.68-2,17.32-1.27,26a1.49,1.49,0,0,0,.47,1.17c.36.25,1-.11.82-.5.72-2.16,1.36-4.47,2.08-6.63a5.58,5.58,0,0,1,1.19-2.3,1.91,1.91,0,0,1,2.37-.36,2.13,2.13,0,0,1,.69,1.06,8,8,0,0,1,.33,2.25,37.18,37.18,0,0,1-3.63,17.51c-1.61,3.34-3.71,6.42-5.38,9.72a20,20,0,0,0-1.68,10.65"/><path class="cls-6" d="M80,159.53l0-8.15c0-2.3.87-6.24-.54-8.24s-3.37-.29-4,1.31c-1,2.34-1.06,4.9-1.44,7.37a132.55,132.55,0,0,0-1.13,13.26c0,.79-.19,1.73-.91,2,.3-.14-.19-4.38-.19-4.89,0-2.74.25-5.63.44-8.42s.57-5.84-.38-8.54a1.54,1.54,0,0,0-2.32-.92c-1.3.77-1.41,2.69-1.62,4a114.77,114.77,0,0,0-1.38,19.34"/><path class="cls-6" d="M66.44,167.44c.16.27-.29.58-.57.42a1.11,1.11,0,0,1-.42-.82,62.36,62.36,0,0,1-.85-14.67c.06-1.06.11-2.56-.88-3.24-1.4-1-2.61.78-3,1.93a39.52,39.52,0,0,0-2.15,11.62c-.42,10.19,2,20.37,4,30.3.78,3.94.14,9.66-.12,13.67"/></svg>