<?xml version="1.0" encoding="iso-8859-1"?>
<!-- Generator: Adobe Illustrator 23.0.0, SVG Export Plug-In . SVG Version: 6.00 Build 0)  -->
<svg version="1.1" id="Layer_1" xmlns="http://www.w3.org/2000/svg" xmlns:xlink="http://www.w3.org/1999/xlink" x="0px" y="0px"
	 viewBox="0 0 249.4 253.29" style="enable-background:new 0 0 249.4 253.29;" xml:space="preserve">
<title>home-illustration-benefits-data</title>
<g>
	<g>
		<rect x="79.68" y="214.41" style="fill:#D0E4F1;" width="89.78" height="38.87"/>
		<rect x="79.68" y="214.41" style="fill:#D0E4F1;" width="89.31" height="6.06"/>
		<path style="fill:#D0E4F1;stroke:#3F555A;stroke-miterlimit:10;" d="M232.21,112.46c0-4.38-48.13-7.94-107.51-7.94
			s-107.51,3.55-107.51,7.94l1.08,4.31l68.29,38.07l118.14-15.55l25.69-22.53L232.21,112.46z"/>
		
			<rect x="76.862" y="53.953" transform="matrix(0.8514 -0.5246 0.5246 0.8514 -35.3361 72.7072)" style="fill:#FFFFFF;" width="67.54" height="89.51"/>
		
			<rect x="76.862" y="53.953" transform="matrix(0.8514 -0.5246 0.5246 0.8514 -35.3361 72.7072)" style="fill:none;stroke:#A1C2D8;stroke-width:0.76;stroke-linecap:round;stroke-linejoin:round;" width="67.54" height="89.51"/>
		
			<rect x="82.343" y="59.299" transform="matrix(0.8969 -0.4423 0.4423 0.8969 -34.0475 62.0864)" style="fill:#FFFFFF;stroke:#A1C2D8;stroke-width:0.76;stroke-linecap:round;stroke-linejoin:round;" width="67.54" height="89.51"/>
		<polygon style="fill:#FFFFFF;stroke:#3F555A;stroke-width:0.76;stroke-miterlimit:10;" points="168.16,134.1 100.23,156.19 
			70.95,66.17 138.88,44.08 140.89,50.25 		"/>
		<polygon style="fill:#FFFFFF;stroke:#3F555A;stroke-width:0.76;stroke-miterlimit:10;" points="168.16,134.1 100.23,156.19 
			70.95,66.17 138.88,44.08 140.71,49.7 		"/>
		<path style="fill:#3290C1;stroke:#3F555A;stroke-width:0.76;stroke-miterlimit:10;" d="M117.11,89.06l-1.61-4.94
			c-0.161-0.139-0.348-0.244-0.55-0.31c-3-0.84-7.28-0.64-11.72,0.76l0,0h-0.13h-0.14l0,0c-4.41,1.48-8,3.83-9.92,6.28
			c-0.128,0.173-0.22,0.37-0.27,0.58l1.61,4.94L117.11,89.06z"/>
		<path style="fill:#D0E4F1;stroke:#3F555A;stroke-width:0.76;stroke-miterlimit:10;" d="M93.04,90.94c1.95-2.45,5.51-4.8,9.92-6.28
			l0,0h0.14h0.13l0,0c4.44-1.4,8.7-1.6,11.72-0.76c0.202,0.066,0.389,0.171,0.55,0.31l-6.23-19.16l-22.72,7.34l6.23,19.16
			C92.823,91.331,92.911,91.123,93.04,90.94z"/>
		<path style="fill:#1E6B96;" d="M115.02,84.02c-3-0.84-7.28-0.64-11.72,0.76l0,0h-0.13h-0.14l0,0c-4.41,1.48-8,3.83-9.92,6.28
			c-0.128,0.173-0.22,0.37-0.27,0.58l0.76,2.33c0.052-0.203,0.143-0.393,0.27-0.56c1.95-2.45,5.51-4.8,9.92-6.28l0,0h0.14h0.13l0,0
			c4.44-1.4,8.7-1.6,11.72-0.76c0.201,0.059,0.388,0.157,0.55,0.29l-0.76-2.33C115.409,84.191,115.222,84.086,115.02,84.02z"/>
		
			<rect x="113.899" y="60.304" transform="matrix(0.9509 -0.3093 0.3093 0.9509 -13.981 41.6448)" style="fill:#D0E4F1;" width="20.86" height="9.21"/>
		
			<rect x="117.11" y="72.457" transform="matrix(0.9509 -0.3093 0.3093 0.9509 -16.8701 43.1213)" style="fill:#D0E4F1;" width="20.86" height="4.6"/>
		
			<rect x="119.534" y="79.953" transform="matrix(0.9507 -0.3102 0.3102 0.9507 -19.1046 44.3726)" style="fill:#D0E4F1;" width="20.845" height="4.597"/>
		<line style="fill:none;stroke:#3F555A;stroke-width:0.76;stroke-miterlimit:10;" x1="96.01" y1="108.24" x2="144.28" y2="92.54"/>
		
			<line style="fill:none;stroke:#3F555A;stroke-width:0.76;stroke-miterlimit:10;" x1="98.67" y1="116.43" x2="146.94" y2="100.73"/>
		
			<line style="fill:none;stroke:#3F555A;stroke-width:0.76;stroke-miterlimit:10;" x1="101.34" y1="124.63" x2="149.61" y2="108.93"/>
		<line style="fill:none;stroke:#3F555A;stroke-width:0.76;stroke-miterlimit:10;" x1="104" y1="132.82" x2="152.27" y2="117.12"/>
		
			<line style="fill:none;stroke:#3F555A;stroke-width:0.76;stroke-miterlimit:10;" x1="154.94" y1="125.31" x2="106.67" y2="141.01"/>
		
			<circle style="fill:#F56F40;stroke:#D65129;stroke-width:0.76;stroke-linecap:round;stroke-linejoin:round;" cx="98.923" cy="71.984" r="0.95"/>
		<line style="fill:none;stroke:#3F555A;stroke-width:0.76;stroke-miterlimit:10;" x1="100.43" y1="76.64" x2="99.21" y2="72.87"/>
		<path style="fill:#3290C1;" d="M110.94,83.13c0.88,2.71-1.9,5.72-6.1,7.08s-8.21,0.58-9.1-2.14c-1.19-3.65-2.17-10.27,4.37-12.39
			C107.18,73.39,109.76,79.48,110.94,83.13z"/>
		<path style="fill:#1E6B96;" d="M100.35,86.8c0-0.07-0.07-0.14-0.09-0.22c-1-3.22-1.93-8.73,2.36-11.46
			c-0.789,0.063-1.568,0.221-2.32,0.47c-6.54,2.13-5.56,8.75-4.37,12.39c0,0.08,0.06,0.15,0.09,0.22c1,2.53,4.93,3.24,9,1.92
			c0.727-0.234,1.432-0.528,2.11-0.88C103.93,89.71,101.19,88.86,100.35,86.8z"/>
		<path style="fill:none;stroke:#3F555A;stroke-width:0.76;stroke-miterlimit:10;" d="M110.94,83.13c0.88,2.71-1.9,5.72-6.1,7.08
			s-8.21,0.58-9.1-2.14c-1.19-3.65-2.17-10.27,4.37-12.39C107.18,73.39,109.76,79.48,110.94,83.13z"/>
		
			<rect x="89.887" y="68.037" transform="matrix(0.9509 -0.3093 0.3093 0.9509 -19.9697 35.4616)" style="fill:none;stroke:#3F555A;stroke-width:0.76;stroke-miterlimit:10;" width="23.9" height="25.33"/>
		
			<rect x="162.25" y="95.69" style="fill:#19BC9C;stroke:#109995;stroke-linecap:round;stroke-linejoin:round;" width="6.73" height="25.79"/>
		
			<rect x="174.13" y="101" style="fill:#19BC9C;stroke:#109995;stroke-linecap:round;stroke-linejoin:round;" width="6.73" height="20.48"/>
		
			<rect x="186.01" y="85.86" style="fill:#19BC9C;stroke:#109995;stroke-linecap:round;stroke-linejoin:round;" width="6.73" height="35.63"/>
		<line style="fill:none;stroke:#3F555A;stroke-miterlimit:10;" x1="106.07" y1="143.28" x2="156.51" y2="128.09"/>
		<rect x="63.39" y="206.62" style="fill:#FFFFFF;stroke:#3F555A;stroke-miterlimit:10;" width="121.85" height="7.79"/>
		<polyline style="fill:none;stroke:#3F555A;stroke-miterlimit:10;" points="79.68,253.28 79.68,214.41 168.96,214.41 
			168.96,253.28 		"/>
		<path style="fill:#D0E4F1;stroke:#3F555A;stroke-miterlimit:10;" d="M18.26,113.76l51.32,92.85h109.47l51.32-92.85
			c-8.44,3.76-52.7,6.63-106.05,6.63S26.7,117.53,18.26,113.76z"/>
		<path style="fill:#D0E4F1;stroke:#3F555A;stroke-miterlimit:10;" d="M18.26,113.76"/>
		<path style="fill:#D0E4F1;stroke:#3F555A;stroke-miterlimit:10;" d="M230.37,113.76"/>
		<circle style="fill:#19BC9C;stroke:#109995;stroke-linecap:round;stroke-linejoin:round;" cx="90.77" cy="226.45" r="2.29"/>
		<circle style="fill:#19BC9C;stroke:#109995;stroke-linecap:round;stroke-linejoin:round;" cx="107.54" cy="226.45" r="2.29"/>
		<circle style="fill:#19BC9C;stroke:#109995;stroke-linecap:round;stroke-linejoin:round;" cx="124.32" cy="226.45" r="2.29"/>
		<circle style="fill:#19BC9C;stroke:#109995;stroke-linecap:round;stroke-linejoin:round;" cx="141.09" cy="226.45" r="2.29"/>
		<circle style="fill:#19BC9C;stroke:#109995;stroke-linecap:round;stroke-linejoin:round;" cx="157.87" cy="226.45" r="2.29"/>
		<path style="fill:#FFFFFF;" d="M40.84,253.28v-74.74c0-2.596-2.104-4.7-4.7-4.7h-16.9c-2.596,0-4.7-2.104-4.7-4.7l0,0
			c0-2.596,2.104-4.7,4.7-4.7H45.4c1.551,0.015,2.999,0.783,3.88,2.06c3.74,5.29,9.65,7.78,14.33,5.61
			c5.5-2.54,7.22-10.54,3.84-17.85s-10.61-11.18-16.09-8.63c-1.711,0.822-3.113,2.172-4,3.85c-0.823,1.488-2.39,2.411-4.09,2.41h-38
			c-2.596,0-4.7,2.104-4.7,4.7v24.35c0,2.596,2.104,4.7,4.7,4.7h16.86c2.596,0,4.7,2.104,4.7,4.7v62.95"/>
		<g>
			<path style="fill:#D0E4F1;" d="M4.9,180.93v-24.35c0-2.596,2.104-4.7,4.7-4.7H5.2c-2.596,0-4.7,2.104-4.7,4.7v24.35
				c0,2.596,2.104,4.7,4.7,4.7h4.4C7.004,185.63,4.9,183.526,4.9,180.93C4.9,180.93,4.9,180.93,4.9,180.93z"/>
			<path style="fill:#D0E4F1;" d="M26.53,185.63h-4.4c2.596,0,4.7,2.104,4.7,4.7v62.95h4.4v-62.94
				c0.006-2.596-2.094-4.704-4.69-4.71C26.537,185.63,26.533,185.63,26.53,185.63z"/>
			<path style="fill:#D0E4F1;" d="M53.69,166.51c-0.873-1.272-2.307-2.043-3.85-2.07h-4.4c1.551,0.015,2.999,0.783,3.88,2.06
				c3.36,4.76,8.47,7.23,12.87,6.12C58.711,171.678,55.692,169.507,53.69,166.51z"/>
		</g>
		<path style="fill:#FFFFFF;" d="M208.51,253.28v-74.74c0-2.596,2.104-4.7,4.7-4.7h16.93c2.596,0,4.7-2.104,4.7-4.7l0,0
			c0-2.596-2.104-4.7-4.7-4.7h-26.16c-1.551,0.015-2.999,0.783-3.88,2.06c-3.74,5.29-9.65,7.78-14.33,5.61
			c-5.5-2.54-7.22-10.54-3.84-17.85s10.59-11.18,16.09-8.64c1.711,0.822,3.113,2.172,4,3.85c0.823,1.488,2.39,2.411,4.09,2.41h38
			c2.596,0,4.7,2.104,4.7,4.7c0,0,0,0,0,0v24.35c0,2.596-2.104,4.7-4.7,4.7h-16.85c-2.596,0-4.7,2.104-4.7,4.7v62.95"/>
		<path style="fill:#FFFFFF;stroke:#3F555A;stroke-miterlimit:10;" d="M16.84,119.07c0,4.38,48.13,7.94,107.51,7.94
			s107.49-3.56,107.49-7.94v-6.61c0,4.38-48.13,7.94-107.51,7.94s-107.49-3.56-107.49-7.94V119.07z"/>
		<path style="fill:#D0E4F1;" d="M124.69,127.59c-47.14,0-87.19-2.24-101.7-5.36l2.5,4.53c15.76,2.94,54.59,5,100,5
			c43.8,0,81.47-1.93,98.23-4.71l2.67-4.84C211.84,125.39,171.84,127.59,124.69,127.59z"/>
		<path style="fill:#3290C1;" d="M131.32,184.52v-10.29h-13.47v9.86h-8.37v-21.15c0-9.43,5.17-14.44,15.1-14.58
			c10.38-0.14,15.31,7.59,15.31,17v19.17L131.32,184.52z M131.32,164.38c0-4.77-1.72-8.11-6.78-8.06c-4.7,0.07-6.7,2.87-6.7,7.62
			v2.86h13.47L131.32,164.38z"/>
		<path style="fill:none;stroke:#19BC9C;stroke-miterlimit:10;" d="M140.89,1.11c-9.365-2.543-19.017,2.988-21.56,12.352
			c-2.543,9.365,2.988,19.017,12.352,21.56c6.073,1.649,12.564-0.076,17.018-4.522l-12.42-12.43l-17,4.55l17-4.55l4.55-17l-4.55,17
			l12.42,12.42"/>
		<path style="fill:none;stroke:#3290C1;stroke-miterlimit:10;" d="M151.32,27.22l-10.86-10.83l10.85,10.85
			c5.996-6.001,5.991-15.727-0.01-21.722c-1.903-1.901-4.272-3.27-6.87-3.968l0,0l-4,14.83l4-14.83"/>
		<line style="fill:none;stroke:#F56F40;stroke-miterlimit:10;" x1="108.16" y1="7.79" x2="84.34" y2="7.79"/>
		<line style="fill:none;stroke:#F56F40;stroke-miterlimit:10;" x1="129.29" y1="12.78" x2="84.34" y2="12.78"/>
		<line style="fill:none;stroke:#F56F40;stroke-miterlimit:10;" x1="108.16" y1="17.9" x2="84.34" y2="17.9"/>
		<line style="fill:none;stroke:#F56F40;stroke-miterlimit:10;" x1="108.16" y1="22.88" x2="84.34" y2="22.88"/>
		<line style="fill:none;stroke:#F56F40;stroke-miterlimit:10;" x1="37.27" y1="54.36" x2="22.62" y2="75.67"/>
		<line style="fill:none;stroke:#F56F40;stroke-miterlimit:10;" x1="37.27" y1="54.36" x2="50.94" y2="65.02"/>
		<line style="fill:none;stroke:#F56F40;stroke-miterlimit:10;" x1="50.94" y1="65.02" x2="65.43" y2="42.14"/>
		<circle style="fill:none;stroke:#F56F40;stroke-miterlimit:10;" cx="22.62" cy="75.05" r="4.49"/>
		<circle style="fill:none;stroke:#F56F40;stroke-miterlimit:10;" cx="37.32" cy="54.3" r="4.49"/>
		<circle style="fill:none;stroke:#F56F40;stroke-miterlimit:10;" cx="65.52" cy="42" r="4.49"/>
		<circle style="fill:none;stroke:#F56F40;stroke-miterlimit:10;" cx="50.94" cy="65.02" r="4.49"/>
		<circle style="fill:none;stroke:#3290C1;stroke-miterlimit:10;" cx="174.07" cy="61.12" r="12.29"/>
		<circle style="fill:none;stroke:#3290C1;stroke-miterlimit:10;" cx="184.84" cy="46.84" r="12.29"/>
		<circle style="fill:none;stroke:#3290C1;stroke-miterlimit:10;" cx="190.5" cy="62.25" r="12.29"/>
		<line style="fill:none;stroke:#3290C1;stroke-miterlimit:10;" x1="169.38" y1="61.12" x2="174.65" y2="61.12"/>
		<line style="fill:none;stroke:#3290C1;stroke-miterlimit:10;" x1="193.19" y1="60.89" x2="193.19" y2="67.04"/>
		<line style="fill:none;stroke:#3290C1;stroke-miterlimit:10;" x1="190.11" y1="63.97" x2="196.26" y2="63.97"/>
		<polygon style="fill:none;stroke:#3290C1;stroke-miterlimit:10;" points="187.29,45.54 185.25,44.66 183.79,46.35 183.53,44.14 
			181.34,43.72 183.13,42.38 182.39,40.28 184.44,41.16 185.9,39.47 186.16,41.69 188.35,42.1 186.56,43.44 		"/>
		<path style="fill:#D0E4F1;stroke:#3F555A;stroke-miterlimit:10;" d="M16.84,112.46"/>
		<g>
			<path style="fill:#D0E4F1;" d="M244.78,180.93v-24.35c0-2.596-2.104-4.7-4.7-4.7h4.4c2.596,0,4.7,2.104,4.7,4.7v24.35
				c0,2.596-2.104,4.7-4.7,4.7h-4.4C242.676,185.63,244.78,183.526,244.78,180.93C244.78,180.93,244.78,180.93,244.78,180.93z"/>
			<path style="fill:#D0E4F1;" d="M223.15,185.63h4.4c-2.596,0-4.7,2.104-4.7,4.7v62.95h-4.4v-62.94
				c-0.006-2.596,2.094-4.704,4.69-4.71C223.143,185.63,223.147,185.63,223.15,185.63z"/>
			<path style="fill:#D0E4F1;" d="M195.99,166.51c0.881-1.277,2.329-2.045,3.88-2.06h4.4c-1.551,0.015-2.999,0.783-3.88,2.06
				c-3.36,4.76-8.47,7.23-12.87,6.12C190.989,171.679,193.997,169.505,195.99,166.51z"/>
		</g>
		<path style="fill:none;stroke:#3F555A;stroke-miterlimit:10;" d="M40.84,253.28v-74.74c0-2.596-2.104-4.7-4.7-4.7h-16.9
			c-2.596,0-4.7-2.104-4.7-4.7l0,0c0-2.596,2.104-4.7,4.7-4.7H45.4c1.551,0.015,2.999,0.783,3.88,2.06
			c3.74,5.29,9.65,7.78,14.33,5.61c5.5-2.54,7.22-10.54,3.84-17.85s-10.61-11.18-16.09-8.63c-1.711,0.822-3.113,2.172-4,3.85
			c-0.823,1.488-2.39,2.411-4.09,2.41h-38c-2.596,0-4.7,2.104-4.7,4.7v24.35c0,2.596,2.104,4.7,4.7,4.7h16.86
			c2.596,0,4.7,2.104,4.7,4.7v62.95"/>
		<path style="fill:none;stroke:#3F555A;stroke-miterlimit:10;" d="M208.51,253.28v-74.74c0-2.596,2.104-4.7,4.7-4.7h16.93
			c2.596,0,4.7-2.104,4.7-4.7l0,0c0-2.596-2.104-4.7-4.7-4.7h-26.16c-1.551,0.015-2.999,0.783-3.88,2.06
			c-3.74,5.29-9.65,7.78-14.33,5.61c-5.5-2.54-7.22-10.54-3.84-17.85s10.59-11.18,16.09-8.64c1.711,0.822,3.113,2.172,4,3.85
			c0.823,1.488,2.39,2.411,4.09,2.41h38c2.596,0,4.7,2.104,4.7,4.7c0,0,0,0,0,0v24.35c0,2.596-2.104,4.7-4.7,4.7h-16.85
			c-2.596,0-4.7,2.104-4.7,4.7v62.95"/>
	</g>
</g>
</svg>
