<?xml version="1.0" encoding="iso-8859-1"?>
<!-- Generator: Adobe Illustrator 23.0.0, SVG Export Plug-In . SVG Version: 6.00 Build 0)  -->
<svg version="1.1" id="Layer_1" xmlns="http://www.w3.org/2000/svg" xmlns:xlink="http://www.w3.org/1999/xlink" x="0px" y="0px"
	 viewBox="0 0 236.48 178.26" style="enable-background:new 0 0 236.48 178.26;" xml:space="preserve">
<title>home-illustration-benefits-service</title>
<polygon style="fill:#D0E4F1;" points="74.55,4.57 61.41,14.13 74.37,23.6 127.36,23.39 127.55,4.36 "/>
<path style="fill:#D0E4F1;" d="M74.37,23.89c-0.062-0.001-0.121-0.022-0.17-0.06l-13-9.46c-0.13-0.094-0.159-0.275-0.065-0.405
	c0.018-0.025,0.04-0.047,0.065-0.065l13.18-9.57c0.045-0.048,0.105-0.08,0.17-0.09l53-0.21l0,0c0.16,0,0.29,0.13,0.29,0.29
	c0,0.003,0,0.007,0,0.01l-0.18,19c0,0.16-0.13,0.29-0.29,0.29l-53,0.21L74.37,23.89z M61.91,14.14l12.58,9.17l52.61-0.2l0.18-18.44
	l-52.61,0.2L61.91,14.14z"/>
<path style="fill:#A1C2D8;" d="M74.37,23.89c-0.062-0.001-0.121-0.022-0.17-0.06l-13-9.46c-0.13-0.094-0.159-0.275-0.065-0.405
	c0.018-0.025,0.04-0.047,0.065-0.065l13.18-9.57c0.045-0.048,0.105-0.08,0.17-0.09l53-0.21l0,0c0.16,0,0.29,0.13,0.29,0.29
	c0,0.003,0,0.007,0,0.01l-0.18,19c0,0.16-0.13,0.29-0.29,0.29l-53,0.21L74.37,23.89z M61.91,14.14l12.58,9.17l52.61-0.2l0.18-18.44
	l-52.61,0.2L61.91,14.14z"/>
<path style="fill:#A1C2D8;" d="M118.49,13.96L118.49,13.96h-29c-0.163,0-0.295-0.132-0.295-0.295s0.132-0.295,0.295-0.295l0,0h29
	c0.163,0,0.295,0.132,0.295,0.295S118.653,13.96,118.49,13.96z"/>
<path style="fill:#A1C2D8;" d="M85.49,13.91h-7.48c-0.163,0-0.295-0.132-0.295-0.295s0.132-0.295,0.295-0.295h7.48
	c0.163,0,0.295,0.132,0.295,0.295S85.653,13.91,85.49,13.91z"/>
<polygon style="fill:#D0E4F1;" points="181.65,32.08 194.79,22.52 181.84,13.06 128.84,13.26 128.66,32.29 "/>
<path style="fill:#D0E4F1;" d="M128.66,32.59c-0.16,0-0.29-0.13-0.29-0.29c0-0.003,0-0.007,0-0.01l0.18-19
	c0-0.16,0.13-0.29,0.29-0.29l53-0.21c0.06,0.007,0.118,0.028,0.17,0.06l13,9.46c0.13,0.094,0.159,0.275,0.065,0.405
	c-0.018,0.025-0.04,0.047-0.065,0.065l-13.14,9.56c-0.049,0.038-0.108,0.059-0.17,0.06l-53,0.21L128.66,32.59z M181.66,32.09
	L181.66,32.09z M129.13,13.56L128.95,32l52.61-0.2l12.73-9.27l-12.55-9.17L129.13,13.56z"/>
<path style="fill:#A1C2D8;" d="M128.66,32.59c-0.16,0-0.29-0.13-0.29-0.29c0-0.003,0-0.007,0-0.01l0.18-19
	c0-0.16,0.13-0.29,0.29-0.29l53-0.21c0.06,0.007,0.118,0.028,0.17,0.06l13,9.46c0.13,0.094,0.159,0.275,0.065,0.405
	c-0.018,0.025-0.04,0.047-0.065,0.065l-13.14,9.56c-0.049,0.038-0.108,0.059-0.17,0.06l-53,0.21L128.66,32.59z M181.66,32.09
	L181.66,32.09z M129.13,13.56L128.95,32l52.61-0.2l12.73-9.27l-12.55-9.17L129.13,13.56z"/>
<path style="fill:#A1C2D8;" d="M166.71,23.33L166.71,23.33h-29c-0.163,0-0.295-0.132-0.295-0.295s0.132-0.295,0.295-0.295l0,0h29
	c0.163,0,0.295,0.132,0.295,0.295S166.873,23.33,166.71,23.33z"/>
<path style="fill:#A1C2D8;" d="M178.19,23.34h-7.44c-0.163,0-0.295-0.132-0.295-0.295s0.132-0.295,0.295-0.295h7.44
	c0.163,0,0.295,0.132,0.295,0.295S178.353,23.34,178.19,23.34z"/>
<rect x="127.35" y="0.29" style="fill:#FFFFFF;" width="1.55" height="83.62"/>
<path style="fill:#A1C2D8;" d="M128.9,84.24h-1.55c-0.16,0-0.29-0.13-0.29-0.29V0.3c0-0.16,0.13-0.29,0.29-0.29h1.55
	c0.16,0,0.29,0.13,0.29,0.29v83.62c0.017,0.159-0.099,0.302-0.258,0.318C128.921,84.24,128.911,84.24,128.9,84.24z M127.65,83.65h1
	v-83h-1V83.65z"/>
<path style="fill:#FFFFFF;" d="M140.49,84.07c-1.1-23.31-16.3-42.67-34.91-42.67S71.76,60.76,70.67,84.07l34.88,8.87L140.49,84.07z"
	/>
<path style="fill:#40565B;" d="M92.93,62.41h0.35c0.58,0,1.05,0.47,1.05,1.05v4.45c0,0.58-0.47,1.05-1.05,1.05h-0.35
	c-0.58,0-1.05-0.47-1.05-1.05v-4.45C91.88,62.88,92.35,62.41,92.93,62.41z"/>
<path style="fill:#40565B;" d="M118.35,62.41h0.35c0.58,0,1.05,0.47,1.05,1.05v4.45c0,0.58-0.47,1.05-1.05,1.05h-0.35
	c-0.58,0-1.05-0.47-1.05-1.05v-4.45C117.3,62.88,117.77,62.41,118.35,62.41z"/>
<path style="fill:#FFFFFF;" d="M88.13,164.71c-27.64-12.19-25.18-54.55-25.18-54.55H51.49c0,0-1.2,51.73,25.18,54.55"/>
<path style="fill:#D0E4F0;" d="M59.56,110.16h3.39c0,0-2.46,42.36,25.18,54.55h-3.39C58.36,161.89,59.56,110.16,59.56,110.16z"/>
<rect x="46.96" y="91.51" style="fill:#D0E4F0;" width="15.99" height="18.65"/>
<rect x="46.96" y="91.51" style="fill:#FFFFFF;" width="5.68" height="18.65"/>
<path style="fill:#40565B;" d="M62.95,110.46h-16c-0.16,0-0.29-0.13-0.29-0.29l0,0V91.51c0-0.16,0.13-0.29,0.29-0.29l0,0h16
	c0.16,0,0.29,0.13,0.29,0.29l0,0v18.65c0.006,0.16-0.12,0.294-0.28,0.3C62.957,110.46,62.953,110.46,62.95,110.46z M47.26,109.87
	h15.4V91.81h-15.4V109.87z"/>
<path style="fill:#C3D4E0;" d="M59.06,150.39c-0.326-0.008-0.583-0.279-0.575-0.605c0.006-0.249,0.168-0.467,0.405-0.545l10.3-3.1
	c0.326-0.002,0.591,0.261,0.593,0.587c0.001,0.211-0.111,0.407-0.293,0.513l-10.3,3.1L59.06,150.39z"/>
<path style="fill:#C3D4E0;" d="M55.68,141.24c-0.326-0.007-0.585-0.276-0.578-0.602c0.005-0.263,0.184-0.491,0.438-0.558l7.75-1.84
	c0.324-0.037,0.616,0.196,0.653,0.52c0.031,0.27-0.127,0.526-0.383,0.62l-7.75,1.86H55.68z"/>
<path style="fill:#C3D4E0;" d="M52.71,127.11c-0.326-0.014-0.578-0.289-0.564-0.615c0.012-0.276,0.213-0.506,0.484-0.555l10.23-1.35
	c0.326,0.001,0.589,0.266,0.588,0.592c-0.001,0.266-0.18,0.499-0.438,0.568l-10.22,1.35L52.71,127.11z"/>
<path style="fill:#40565B;" d="M88.13,165.01h-0.12c-7.93-3.5-18.37-11.91-23.11-32c-1.687-7.37-2.446-14.922-2.26-22.48H51.75
	c0,4.14,0.12,51.31,24.93,54c0.159,0.016,0.276,0.158,0.26,0.317c0,0.001,0,0.002,0,0.003c-0.021,0.158-0.161,0.272-0.32,0.26
	c-10.93-1.17-18.79-11-22.74-28.56c-1.839-8.641-2.744-17.455-2.7-26.29c0-0.16,0.13-0.29,0.29-0.29l0,0h11.48
	c0.16,0,0.29,0.129,0.291,0.289c0,0.007,0,0.014-0.001,0.021c0,0.42-2.08,42.3,25,54.27c0.149,0.058,0.223,0.226,0.166,0.375
	c-0.045,0.117-0.16,0.191-0.286,0.185L88.13,165.01z"/>
<path style="fill:#FFFFFF;" d="M122.98,164.71c27.59-12.19,25.18-54.55,25.18-54.55h11.49c0,0,1.2,51.73-25.18,54.55"/>
<path style="fill:#D0E4F0;" d="M151.55,110.16h-3.39c0,0,2.41,42.36-25.18,54.55h3.39C152.76,161.89,151.55,110.16,151.55,110.16z"
	/>
<rect x="148.16" y="91.51" style="fill:#D0E4F0;" width="15.99" height="18.65"/>
<rect x="158.47" y="91.51" style="fill:#FFFFFF;" width="5.68" height="18.65"/>
<path style="fill:#40565B;" d="M164.15,110.46h-16c-0.16,0-0.29-0.13-0.29-0.29V91.51c0-0.16,0.13-0.29,0.29-0.29h16
	c0.16,0,0.29,0.13,0.29,0.29v18.65c0.006,0.16-0.12,0.294-0.28,0.3C164.157,110.46,164.153,110.46,164.15,110.46z M148.49,109.87
	h15.4V91.81h-15.4V109.87z"/>
<path style="fill:#C3D4E0;" d="M152.05,150.39h-0.17l-10.3-3.1c-0.297-0.133-0.43-0.483-0.297-0.78
	c0.11-0.245,0.372-0.385,0.637-0.34l10.3,3.1c0.309,0.102,0.477,0.436,0.375,0.745c-0.078,0.236-0.296,0.398-0.545,0.405V150.39z"/>
<path style="fill:#C3D4E0;" d="M155.44,141.24h-0.14l-7.75-1.86c-0.306-0.112-0.463-0.452-0.35-0.757
	c0.094-0.255,0.35-0.413,0.62-0.383l7.75,1.86c0.315,0.084,0.502,0.407,0.418,0.722c-0.068,0.254-0.295,0.433-0.558,0.438
	L155.44,141.24z"/>
<path style="fill:#C3D4E0;" d="M158.4,127.11h-0.08l-10.23-1.35c-0.315-0.084-0.502-0.407-0.418-0.722
	c0.069-0.257,0.301-0.437,0.568-0.438l10.25,1.34c0.321,0.058,0.533,0.365,0.475,0.686c-0.049,0.271-0.28,0.472-0.555,0.484H158.4z"
	/>
<path style="fill:#40565B;" d="M122.98,165.01c-0.16,0.008-0.296-0.114-0.305-0.274c-0.007-0.125,0.068-0.24,0.185-0.286
	c27.1-12,25-53.85,25-54.27c-0.011-0.16,0.11-0.298,0.269-0.309c0.007,0,0.014-0.001,0.021-0.001h11.49c0.16,0,0.29,0.13,0.29,0.29
	c0.044,8.835-0.861,17.649-2.7,26.29c-4,17.52-11.82,27.39-22.74,28.56c-0.16,0.017-0.303-0.1-0.32-0.26
	c-0.017-0.16,0.1-0.303,0.26-0.32c24.81-2.65,25-49.82,24.93-54h-10.87c0.186,7.558-0.573,15.11-2.26,22.48
	c-2.61,11.12-8.74,25.7-23.11,32L122.98,165.01z"/>
<path style="fill:#3AA1D6;" d="M132.58,167.31H67.1c-2.303-0.027-4.147-1.917-4.12-4.219c0,0,0,0,0-0.001V87.34
	c-0.028-2.303,1.817-4.192,4.119-4.22c0,0,0,0,0.001,0l38.45,9.82l38.5-9.82c2.303,0.027,4.147,1.917,4.12,4.219c0,0,0,0,0,0.001
	v75.75c0.028,2.303-1.817,4.192-4.119,4.22c0,0,0,0-0.001,0H132.58z"/>
<path style="fill:#1785C8;" d="M148.17,107.7l-42.62,23.73l-42.6-21.27c0,0,0,13.34,0,15.67v37.26
	c-0.028,2.303,1.817,4.192,4.119,4.22c0,0,0,0,0.001,0c22.6,4.07,44.49,4.36,65.48,0h11.47c2.303-0.027,4.147-1.917,4.12-4.219
	c0,0,0,0,0-0.001V107.7H148.17z"/>
<path style="fill:#D0E4F0;" d="M100.37,41.91c-16.16,3.2-28.71,21.07-29.7,42.16l10.18,2.71C82.03,67.34,89.67,50.37,100.37,41.91z"
	/>
<path style="fill:#D0E4F0;" d="M110.77,41.91c16.16,3.2,28.72,21.06,29.72,42.16l-10.2,2.71C129.11,67.34,121.49,50.37,110.77,41.91
	z"/>
<path style="fill:#A1C2D8;" d="M109.58,63.56h-8.09c-0.163,0-0.295-0.132-0.295-0.295s0.132-0.295,0.295-0.295h8.08
	c0.163,0,0.295,0.132,0.295,0.295s-0.132,0.295-0.295,0.295H109.58z"/>
<path style="fill:#A1C2D8;" d="M137.31,67.49h-0.08l-10.83-3c-0.155-0.044-0.244-0.205-0.2-0.36c0.044-0.155,0.205-0.244,0.36-0.2
	l10.83,3c0.16,0.022,0.272,0.17,0.25,0.33s-0.17,0.272-0.33,0.25V67.49z"/>
<path style="fill:#A1C2D8;" d="M73.83,67.49c-0.16,0.022-0.308-0.09-0.33-0.25s0.09-0.308,0.25-0.33l10.83-3
	c0.155-0.044,0.316,0.045,0.36,0.2c0.044,0.155-0.045,0.316-0.2,0.36l0,0l-10.83,3L73.83,67.49z"/>
<path style="fill:#40565B;" d="M105.55,93.24h-0.06l-34.9-8.89c-0.136-0.034-0.229-0.16-0.22-0.3c0.54-11.43,4.43-22.17,11-30.25
	s15.23-12.71,24.24-12.71s17.63,4.51,24.24,12.71c6.61,8.2,10.42,18.82,11,30.25c0.009,0.14-0.084,0.266-0.22,0.3l-35.01,8.89
	H105.55z M70.97,83.84l34.58,8.8l34.63-8.8c-0.57-11.21-4.41-21.74-10.81-29.67c-6.4-7.93-15-12.49-23.79-12.49
	s-17.29,4.44-23.8,12.49S71.54,72.63,70.97,83.84z"/>
<path style="fill:#164A67;" d="M148.17,163.38c-0.16,0-0.29-0.13-0.29-0.29V87.34c0.023-2.125-1.665-3.875-3.79-3.93l-38.47,9.83
	c-0.049,0.014-0.101,0.014-0.15,0l-38.41-9.83c-2.125,0.055-3.813,1.805-3.79,3.93v75.75c0,0.163-0.132,0.295-0.295,0.295
	s-0.295-0.132-0.295-0.295l0,0V87.34c-0.022-2.465,1.955-4.483,4.42-4.51h0.07l38.38,9.81l38.43-9.81h0.07
	c2.469,0.016,4.457,2.031,4.44,4.5c0,0.003,0,0.007,0,0.01v75.75c0.001,0.16-0.128,0.291-0.288,0.292
	C148.191,163.382,148.18,163.381,148.17,163.38z"/>
<polygon style="fill:#19BC9C;" points="129.79,86.77 105.57,118.2 81.36,86.77 105.54,92.85 "/>
<polygon style="fill:#109995;" points="129.79,86.77 105.57,118.2 81.36,86.77 105.56,111.26 "/>
<polygon style="fill:#F36F42;" points="105.57,69.35 107,71.27 108.44,73.2 105.57,73.2 102.7,73.2 104.14,71.27 "/>
<path style="fill:#C84A27;" d="M108.44,73.49h-5.74c-0.16,0.007-0.295-0.117-0.303-0.277c-0.003-0.07,0.019-0.138,0.063-0.193
	l2.87-3.85c0.103-0.13,0.292-0.152,0.421-0.049c0.018,0.014,0.034,0.031,0.049,0.049l2.87,3.85c0.1,0.125,0.079,0.308-0.047,0.407
	c-0.055,0.043-0.123,0.066-0.193,0.063H108.44z M103.29,72.9h4.57l-2.28-3.06L103.29,72.9z"/>
<path style="fill:#40565B;" d="M105.9,80.53c-2.474-0.015-4.868-0.88-6.78-2.45c-0.119-0.11-0.125-0.296-0.015-0.415
	s0.296-0.125,0.415-0.015c0.23,0.21,5.71,5.13,13,0c0.133-0.094,0.316-0.063,0.41,0.07c0.094,0.133,0.063,0.316-0.07,0.41l0,0
	C110.847,79.636,108.413,80.475,105.9,80.53z"/>
<path style="fill:#40565B;" d="M124.3,54.32c-0.108,0.002-0.208-0.056-0.26-0.15c-2.21-4-7.15-3.28-7.2-3.28
	c-0.16,0.025-0.31-0.085-0.335-0.245s0.085-0.31,0.245-0.335c0.05,0,5.4-0.82,7.8,3.57c0.077,0.14,0.026,0.317-0.114,0.394
	c-0.045,0.025-0.095,0.037-0.146,0.036L124.3,54.32z"/>
<path style="fill:#40565B;" d="M86.49,54.32c-0.16,0.003-0.293-0.124-0.296-0.284c-0.001-0.051,0.011-0.101,0.036-0.146
	c2.41-4.39,7.75-3.58,7.8-3.57c0.16,0.025,0.27,0.175,0.245,0.335S94.1,50.925,93.94,50.9c-0.05,0-5-0.75-7.2,3.28
	C86.687,54.267,86.592,54.321,86.49,54.32z"/>
<path style="fill:#40565B;" d="M81.89,53.44c-0.079,0-0.155-0.033-0.21-0.09l-7-7.16c-0.113-0.116-0.111-0.302,0.005-0.415
	c0.116-0.113,0.302-0.111,0.415,0.005l7,7.16c0.116,0.11,0.121,0.294,0.01,0.41C82.053,53.41,81.973,53.443,81.89,53.44z"/>
<ellipse style="fill:#F36F42;" cx="72.93" cy="44.28" rx="2.82" ry="2.89"/>
<path style="fill:#C84A27;" d="M72.93,47.46c-1.756,0.039-3.21-1.354-3.249-3.109c-0.039-1.756,1.354-3.21,3.109-3.249
	c1.756-0.039,3.21,1.354,3.249,3.109c0,0.01,0,0.019,0.001,0.029c0.039,1.739-1.34,3.181-3.079,3.219
	C72.951,47.46,72.94,47.46,72.93,47.46z M72.93,41.69c-1.43-0.016-2.603,1.13-2.62,2.56c-0.016,1.43,1.13,2.603,2.56,2.62
	c1.43,0.016,2.603-1.13,2.62-2.56c0-0.023,0-0.046,0-0.07C75.484,42.83,74.34,41.69,72.93,41.69z"/>
<path style="fill:#40565B;" d="M129.08,53.44c-0.16,0.006-0.294-0.12-0.3-0.28c-0.003-0.083,0.03-0.163,0.09-0.22l7-7.16
	c0.113-0.116,0.299-0.118,0.415-0.005c0.116,0.113,0.118,0.299,0.005,0.415l0,0l-7,7.16C129.235,53.407,129.159,53.44,129.08,53.44z
	"/>
<ellipse style="fill:#F36F42;" cx="138.04" cy="44.28" rx="2.82" ry="2.89"/>
<path style="fill:#C84A27;" d="M138.04,47.46c-1.756,0.039-3.21-1.354-3.249-3.109s1.354-3.21,3.109-3.249
	c1.756-0.039,3.21,1.354,3.249,3.109c0,0.01,0,0.019,0.001,0.029c0.039,1.739-1.34,3.181-3.079,3.219
	C138.061,47.46,138.05,47.46,138.04,47.46z M138.04,41.69c-1.43-0.038-2.62,1.089-2.659,2.519c-0.038,1.43,1.089,2.62,2.519,2.659
	s2.62-1.089,2.659-2.519c0.001-0.036,0.001-0.073,0.001-0.109C140.555,42.846,139.434,41.712,138.04,41.69z"/>
<path style="fill:#164A67;" d="M105.55,136.78c-0.16,0-0.29-0.13-0.29-0.29v-10.67c0-0.163,0.132-0.295,0.295-0.295
	s0.295,0.132,0.295,0.295v10.66c0.006,0.16-0.12,0.294-0.28,0.3C105.564,136.78,105.557,136.78,105.55,136.78z"/>
<ellipse style="fill:#1785C8;" cx="105.57" cy="138.08" rx="1.56" ry="1.6"/>
<ellipse style="fill:#1785C8;" cx="105.57" cy="124.22" rx="1.56" ry="1.6"/>
<path style="fill:#164A67;" d="M105.57,139.98c-1.044,0.017-1.903-0.816-1.92-1.86s0.816-1.903,1.86-1.92s1.903,0.816,1.92,1.86
	c0,0.01,0,0.02,0,0.03C107.436,139.124,106.604,139.969,105.57,139.98z M105.57,136.78c-0.723-0.022-1.327,0.546-1.349,1.269
	c-0.022,0.723,0.546,1.327,1.269,1.349c0.723,0.022,1.327-0.546,1.349-1.269c0-0.013,0.001-0.026,0.001-0.039
	C106.851,137.378,106.283,136.791,105.57,136.78C105.57,136.78,105.57,136.78,105.57,136.78L105.57,136.78z"/>
<path style="fill:#164A67;" d="M105.57,126.12c-1.044,0.017-1.903-0.816-1.92-1.86c-0.017-1.044,0.816-1.903,1.86-1.92
	c1.044-0.017,1.903,0.816,1.92,1.86c0,0.01,0,0.02,0,0.03C107.436,125.264,106.604,126.109,105.57,126.12z M105.57,122.92
	c-0.723-0.022-1.327,0.546-1.349,1.269c-0.022,0.723,0.546,1.327,1.269,1.349c0.723,0.022,1.327-0.546,1.349-1.269
	c0-0.013,0.001-0.026,0.001-0.039C106.851,123.518,106.283,122.931,105.57,122.92C105.57,122.92,105.57,122.92,105.57,122.92z"/>
<path style="fill:#164A67;" d="M105.55,156.98c-0.16,0-0.29-0.13-0.29-0.29v-10.67c0-0.163,0.132-0.295,0.295-0.295
	s0.295,0.132,0.295,0.295v10.66c0.006,0.16-0.12,0.294-0.28,0.3C105.564,156.98,105.557,156.98,105.55,156.98z"/>
<ellipse style="fill:#1785C8;" cx="105.57" cy="158.28" rx="1.56" ry="1.6"/>
<ellipse style="fill:#1785C8;" cx="105.57" cy="144.42" rx="1.56" ry="1.6"/>
<path style="fill:#164A67;" d="M105.57,160.18c-1.044,0.017-1.903-0.816-1.92-1.86s0.816-1.903,1.86-1.92s1.903,0.816,1.92,1.86
	c0,0.01,0,0.02,0,0.03C107.436,159.324,106.604,160.169,105.57,160.18z M105.57,156.98c-0.723-0.022-1.327,0.546-1.349,1.269
	c-0.022,0.723,0.546,1.327,1.269,1.349c0.723,0.022,1.327-0.546,1.349-1.269c0-0.013,0.001-0.026,0.001-0.039
	C106.851,157.578,106.283,156.991,105.57,156.98C105.57,156.98,105.57,156.98,105.57,156.98z"/>
<path style="fill:#164A67;" d="M105.57,146.32c-1.044,0.017-1.903-0.816-1.92-1.86s0.816-1.903,1.86-1.92s1.903,0.816,1.92,1.86
	c0,0.01,0,0.02,0,0.03C107.436,145.464,106.604,146.309,105.57,146.32z M105.57,143.12c-0.723-0.022-1.327,0.546-1.349,1.269
	c-0.022,0.723,0.546,1.327,1.269,1.349c0.723,0.022,1.327-0.546,1.349-1.269c0-0.013,0.001-0.026,0.001-0.039
	C106.851,143.718,106.283,143.131,105.57,143.12C105.57,143.12,105.57,143.12,105.57,143.12z"/>
<path style="fill:#164A67;" d="M105.57,118.49c-0.09,0.001-0.174-0.04-0.23-0.11L81.13,86.96c-0.099-0.126-0.077-0.308,0.049-0.407
	c0.071-0.056,0.164-0.075,0.251-0.053l24.12,6.06l24.17-6.06c0.155-0.04,0.313,0.054,0.353,0.209
	c0.022,0.087,0.003,0.18-0.053,0.251l-24.22,31.42C105.744,118.45,105.66,118.491,105.57,118.49z M82.11,87.24l23.47,30.45
	l23.46-30.45l-23.42,5.9c-0.046,0.011-0.094,0.011-0.14,0L82.11,87.24z"/>
<path style="opacity:0.07;fill:#3F555A;enable-background:new    ;" d="M117.89,57.14c-0.335,0.002-0.669,0.029-1,0.08l-4.34,11.47
	c0.525,0.583,1.116,1.103,1.76,1.55l0.11,0.07l0.19,0.12c0.579,0.32,1.203,0.552,1.85,0.69l4.91-13
	C120.321,57.482,119.118,57.143,117.89,57.14z"/>
<path style="opacity:0.07;fill:#3F555A;enable-background:new    ;" d="M122.49,58.94h-0.06l-4.77,12.3h0.23
	c0.389-0.003,0.777-0.04,1.16-0.11l4.18-11.4C123.004,59.448,122.757,59.184,122.49,58.94z"/>
<path style="opacity:0.07;fill:#3F555A;enable-background:new    ;" d="M92.98,57.14l-4.7,12.1c0.329,0.332,0.691,0.63,1.08,0.89
	l4.61-12.65c-0.108-0.085-0.205-0.182-0.29-0.29h-0.57L92.98,57.14z"/>
<path style="fill:#A1C2D8;" d="M118.03,73.13c-4.942,0.116-9.041-3.796-9.157-8.738c-0.116-4.942,3.796-9.041,8.738-9.157
	s9.041,3.796,9.157,8.738c0.002,0.089,0.003,0.178,0.002,0.267C126.792,69.101,122.89,73.07,118.03,73.13z M118.03,55.83
	c-4.616-0.11-8.447,3.542-8.557,8.158s3.542,8.447,8.158,8.557c4.616,0.11,8.447-3.542,8.557-8.158
	c0.001-0.049,0.002-0.098,0.002-0.147c0.078-4.567-3.561-8.332-8.128-8.41C118.051,55.83,118.041,55.83,118.03,55.83z"/>
<path style="fill:#A1C2D8;" d="M93.11,73.13c-4.942,0.116-9.041-3.796-9.157-8.738c-0.116-4.942,3.796-9.041,8.738-9.157
	s9.041,3.796,9.157,8.738c0.002,0.089,0.003,0.178,0.002,0.267C101.872,69.101,97.97,73.07,93.11,73.13z M93.11,55.83
	c-4.616-0.116-8.451,3.532-8.567,8.148s3.532,8.451,8.148,8.567s8.451-3.532,8.567-8.148c0.001-0.052,0.002-0.105,0.002-0.157
	c0.078-4.567-3.561-8.332-8.128-8.41C93.125,55.83,93.117,55.83,93.11,55.83z"/>
<path style="opacity:0.07;fill:#3F555A;enable-background:new    ;" d="M96.26,57.92c-0.322-0.163-0.656-0.3-1-0.41l-5.04,13.08l0,0
	c0.407,0.192,0.833,0.343,1.27,0.45L96.26,57.92z"/>
<polyline style="fill:#3AA1D6;" points="134.03,113.74 144.6,168.62 186.69,168.62 197.26,113.74 174.84,107.49 156.17,107.49 
	134.03,113.74 "/>
<ellipse style="fill:#1785C8;" cx="165.53" cy="108.81" rx="10.03" ry="5.98"/>
<polyline style="fill:#985BCD;" points="134.03,113.74 144.6,168.62 186.69,168.62 197.26,113.74 179.41,109.31 165.64,128.58 
	151.48,108.81 134.03,113.74 "/>
<path style="fill:#FFFFFF;" d="M227.49,71.7c-7.7,0.94-2.6,11.45-3.32,12.62c-2.19,3.55-4.84-3-4.59,0.17
	c0.35,4.68,4.81,6.55,4.81,6.55s1.66,29.9-5.25,30.78s-21.86-8.08-21.86-8.08l-2.16,11.22c0,0,20.8,11.5,30.83,7.43
	c10.21-4.14,7-42.4,7-42.4S243.1,69.78,227.49,71.7z"/>
<path style="fill:#D0E4F0;" d="M224.14,84.32c-0.345,0.742-1.128,1.178-1.94,1.08c0.89,0.75,3.74,0.6,4.77-1.08
	c0.72-1.16-4.38-11.67,3.32-12.62h0.48c-1.103-0.133-2.217-0.133-3.32,0C219.77,72.65,224.67,83.05,224.14,84.32z"/>
<path style="fill:#D0E4F0;" d="M195.42,123.32l-0.32,1.65c0,0,17.21,9.51,27.88,8.17C212.61,132.55,197.75,124.6,195.42,123.32z"/>
<path style="fill:#D0E4F0;" d="M224.36,91.04c0,0,1.6,28.78-4.86,30.7c0.809,0.136,1.633,0.163,2.45,0.08
	c6.9-0.88,5.25-30.78,5.25-30.78c-2.35-1.065-4.085-3.146-4.71-5.65c-1.67-0.16-3.14-3.32-3-0.9
	C219.9,89.17,224.36,91.04,224.36,91.04z"/>
<path style="fill:#C3D4E0;" d="M199.1,122.5h-0.14c-0.314-0.079-0.506-0.395-0.43-0.71l1.46-5.94
	c0.045-0.323,0.343-0.548,0.666-0.503c0.323,0.045,0.548,0.343,0.503,0.666c-0.006,0.04-0.015,0.079-0.029,0.117l-1.46,5.94
	C199.598,122.325,199.365,122.501,199.1,122.5z"/>
<path style="fill:#C3D4E0;" d="M206.21,125.78h-0.14c-0.314-0.079-0.506-0.395-0.43-0.71l1.39-5.85
	c0.037-0.324,0.329-0.557,0.653-0.52c0.324,0.037,0.557,0.329,0.52,0.653c-0.005,0.047-0.016,0.093-0.033,0.137l-1.39,5.85
	C206.712,125.599,206.478,125.78,206.21,125.78z"/>
<path style="fill:#C3D4E0;" d="M215.64,126.87c-0.326,0-0.59-0.264-0.59-0.59v-4.38c0.042-0.323,0.339-0.551,0.662-0.508
	c0.265,0.035,0.474,0.243,0.508,0.508v4.34c0.022,0.325-0.223,0.607-0.549,0.629C215.661,126.869,215.65,126.87,215.64,126.87z"/>
<path style="fill:#C3D4E0;" d="M223,125.24c-0.174,0.001-0.339-0.076-0.45-0.21l-2.53-3c-0.195-0.261-0.142-0.631,0.119-0.826
	c0.239-0.179,0.575-0.151,0.781,0.066l2.53,3c0.227,0.234,0.221,0.608-0.013,0.834c-0.117,0.113-0.275,0.173-0.437,0.166V125.24z"/>
<path style="fill:#C3D4E0;" d="M228.05,110.35h-3.49c-0.323-0.042-0.551-0.339-0.508-0.662c0.035-0.265,0.243-0.474,0.508-0.508
	h3.49c0.323-0.042,0.619,0.185,0.662,0.508c0.042,0.323-0.185,0.619-0.508,0.662C228.152,110.357,228.101,110.357,228.05,110.35z"/>
<path style="fill:#C3D4E0;" d="M226.6,118.13h-0.18l-3.35-1.08c-0.302-0.123-0.446-0.468-0.322-0.77
	c0.11-0.269,0.4-0.418,0.682-0.35l3.35,1.08c0.304,0.117,0.456,0.458,0.339,0.762c-0.083,0.217-0.287,0.365-0.519,0.378
	L226.6,118.13z"/>
<path style="fill:#C3D4E0;" d="M229.32,102.39h-4.56c-0.323-0.042-0.551-0.339-0.508-0.662c0.035-0.265,0.243-0.474,0.508-0.508
	h4.56c0.323-0.042,0.619,0.185,0.662,0.508c0.042,0.323-0.185,0.619-0.508,0.662C229.422,102.397,229.371,102.397,229.32,102.39z"/>
<path style="fill:#C3D4E0;" d="M227.85,95.49h-2.93c-0.323,0.042-0.619-0.185-0.662-0.508c-0.042-0.323,0.185-0.619,0.508-0.662
	c0.051-0.007,0.102-0.007,0.153,0h2.93c0.323,0.042,0.551,0.339,0.508,0.662C228.324,95.247,228.115,95.455,227.85,95.49z"/>
<path style="fill:#40565B;" d="M220.76,133.57c-3.78,0-8.5-1-14.11-3.09c-4.011-1.48-7.916-3.231-11.69-5.24
	c-0.141-0.077-0.192-0.254-0.115-0.395c0.077-0.141,0.254-0.192,0.395-0.115c0.21,0.11,20.79,11.38,30.58,7.41
	s6.86-41.73,6.83-42.11c-0.015-0.052-0.015-0.108,0-0.16c0.05-0.11,5.47-11,2.12-15.78c-1.28-1.85-3.71-2.53-7.28-2.1
	c-1.261,0.067-2.432,0.676-3.21,1.67c-1.48,2.1-0.68,5.72-0.15,8.12c0.34,1.54,0.49,2.3,0.25,2.68
	c-0.305,0.619-0.876,1.064-1.55,1.21c-1,0.13-1.87-0.7-2.51-1.3c-0.159-0.155-0.326-0.302-0.5-0.44c-0.015,0.176-0.015,0.354,0,0.53
	c0.34,4.44,4.59,6.28,4.64,6.3c0.103,0.042,0.173,0.139,0.18,0.25c0.07,1.23,1.59,30.19-5.5,31.09s-21.44-7.75-22-8.12
	c-0.138-0.083-0.183-0.262-0.1-0.4c0.083-0.138,0.262-0.183,0.4-0.1c0.15,0.09,14.81,8.92,21.67,8c6.29-0.8,5.12-27.85,5-30.3
	c-0.84-0.41-4.5-2.45-4.82-6.72c0-0.6,0-1,0.3-1.18s0.68,0.14,1.18,0.62s1.32,1.24,2,1.15c0.498-0.129,0.913-0.473,1.13-0.94
	c0.006-0.762-0.106-1.521-0.33-2.25c-0.55-2.5-1.39-6.28,0.25-8.58c0.868-1.133,2.185-1.834,3.61-1.92
	c3.79-0.47,6.43,0.32,7.85,2.33c3.44,4.89-1.51,15.24-2,16.31c0.477,6.525,0.584,13.073,0.32,19.61c-0.64,13.51-3.17,21.25-7.52,23
	C224.385,133.271,222.579,133.597,220.76,133.57z"/>
<path style="fill:#40565B;" d="M224.36,91.33c-0.16,0-0.29-0.13-0.29-0.29s0.13-0.29,0.29-0.29l8.58-1
	c0.159-0.023,0.306,0.087,0.328,0.246c0.001,0.005,0.001,0.009,0.002,0.014c0.023,0.159-0.087,0.306-0.246,0.328
	c-0.005,0.001-0.009,0.001-0.014,0.002l-8.58,1L224.36,91.33z"/>
<polygon style="fill:#FFFFFF;" points="144.6,172.48 132.59,172.48 134.03,113.74 144.6,168.62 "/>
<polygon style="fill:#D0E4F0;" points="134.03,113.74 133.72,126.43 141.84,168.62 141.84,172.48 144.6,172.48 144.6,168.62 "/>
<path style="fill:#C3D4E0;" d="M140.49,169.24h-7.3c-0.323-0.042-0.551-0.339-0.508-0.662c0.035-0.265,0.243-0.474,0.508-0.508h7.3
	c0.323-0.042,0.619,0.185,0.662,0.508c0.042,0.323-0.185,0.619-0.508,0.662C140.592,169.247,140.541,169.247,140.49,169.24z"/>
<path style="fill:#C3D4E0;" d="M138.21,155.63h-4.72c-0.323,0.042-0.619-0.185-0.662-0.508c-0.042-0.323,0.185-0.619,0.508-0.662
	c0.051-0.007,0.102-0.007,0.153,0h4.74c0.323-0.042,0.619,0.185,0.662,0.508c0.042,0.323-0.185,0.619-0.508,0.662
	c-0.051,0.007-0.102,0.007-0.153,0H138.21z"/>
<path style="fill:#C3D4E0;" d="M138.21,162.42h-5c-0.323,0.042-0.619-0.185-0.662-0.508c-0.042-0.323,0.185-0.619,0.508-0.662
	c0.051-0.007,0.102-0.007,0.153,0h5c0.323-0.042,0.619,0.185,0.662,0.508c0.042,0.323-0.185,0.619-0.508,0.662
	C138.312,162.427,138.261,162.427,138.21,162.42z"/>
<path style="fill:#C3D4E0;" d="M138.21,148.84h-4.56c-0.323,0.042-0.619-0.185-0.662-0.508c-0.042-0.323,0.185-0.619,0.508-0.662
	c0.051-0.007,0.102-0.007,0.153,0h4.56c0.323-0.042,0.619,0.185,0.662,0.508c0.042,0.323-0.185,0.619-0.508,0.662
	C138.312,148.847,138.261,148.847,138.21,148.84z"/>
<path style="fill:#C3D4E0;" d="M138.21,142.05h-4.56c-0.323,0.042-0.619-0.185-0.662-0.508c-0.042-0.323,0.185-0.619,0.508-0.662
	c0.051-0.007,0.102-0.007,0.153,0h4.56c0.323-0.042,0.619,0.185,0.662,0.508c0.042,0.323-0.185,0.619-0.508,0.662
	C138.312,142.057,138.261,142.057,138.21,142.05z"/>
<path style="fill:#40565B;" d="M132.6,172.77L132.6,172.77c-0.16,0-0.29-0.13-0.29-0.29c0-0.003,0-0.007,0-0.01l1.43-58.73
	c0.005-0.162,0.138-0.29,0.3-0.29c0.16,0,0.29,0.13,0.29,0.29c0,0.003,0,0.007,0,0.01l-1.43,58.73c0,0.16-0.13,0.29-0.29,0.29
	C132.607,172.77,132.603,172.77,132.6,172.77z"/>
<path style="fill:#164A67;" d="M165.85,128.88c-0.095,0.002-0.184-0.043-0.24-0.12l-14.37-19.77
	c-0.094-0.13-0.065-0.311,0.065-0.405c0.029-0.021,0.061-0.036,0.095-0.045l4.69-1.3h18.82l5.15,1.33
	c0.156,0.037,0.252,0.193,0.216,0.349c-0.009,0.036-0.024,0.071-0.046,0.101l-14.14,19.74
	C166.034,128.837,165.945,128.882,165.85,128.88z M151.96,108.98l13.89,19.1l13.64-19.09l-4.7-1.21h-18.58L151.96,108.98z"/>
<circle style="fill:#8552BA;" cx="176.36" cy="149.36" r="1.48"/>
<circle style="fill:#8552BA;" cx="154.93" cy="149.36" r="1.48"/>
<polygon style="fill:#923A95;" points="174.79,149.64 165.64,146.78 156.47,149.41 156.3,148.84 165.65,146.17 165.73,146.19 
	174.97,149.08 "/>
<path style="fill:#923A95;" d="M176.36,151.13c-0.978,0-1.77-0.792-1.77-1.77c0-0.978,0.792-1.77,1.77-1.77
	c0.978,0,1.77,0.792,1.77,1.77S177.338,151.13,176.36,151.13C176.36,151.13,176.36,151.13,176.36,151.13z M176.36,148.13
	c-0.652,0-1.18,0.528-1.18,1.18s0.528,1.18,1.18,1.18s1.18-0.528,1.18-1.18v0c-0.027-0.632-0.547-1.131-1.18-1.13V148.13z"/>
<path style="fill:#923A95;" d="M154.93,151.13c-0.978,0-1.77-0.792-1.77-1.77c0-0.978,0.792-1.77,1.77-1.77
	c0.978,0,1.77,0.792,1.77,1.77S155.908,151.13,154.93,151.13C154.93,151.13,154.93,151.13,154.93,151.13z M154.93,148.13
	c-0.652,0-1.18,0.528-1.18,1.18s0.528,1.18,1.18,1.18s1.18-0.528,1.18-1.18v0c-0.027-0.632-0.547-1.131-1.18-1.13V148.13z"/>
<path style="fill:#8552BA;" d="M186.69,172.48c-11.44,2.22-26.23,1.56-42.09,0v-3.86h42.09V172.48z"/>
<polygon style="fill:#923A95;" points="186.98,172.48 186.4,172.48 186.4,168.91 144.89,168.91 144.89,172.48 144.3,172.48 
	144.3,168.33 186.98,168.33 "/>
<rect x="133.694" y="110.969" transform="matrix(0.9625 -0.2714 0.2714 0.9625 -24.8414 42.9292)" style="fill:#923A95;" width="18.14" height="0.59"/>
<polygon style="fill:#923A95;" points="186.93,168.91 144.35,168.91 133.74,113.8 134.31,113.69 144.84,168.33 186.45,168.33 
	196.92,113.95 179.51,109.09 179.67,108.53 197.6,113.53 "/>
<path style="fill:#D0E4F0;" d="M174.65,46.44c0,0,7.22-9.74,14.16-0.38s-10.46,56.02,14.68,59.18c19.39,2.47-33.89,15.47-29.12-2.88
	C180.72,77.91,174.65,46.44,174.65,46.44z"/>
<path style="fill:#A1C2D8;" d="M174.88,54.1c0,0,4.65-8.48,9.1-0.33s-6.55,45.94,8,53.4c2.71,1.38,13.05,1.73,11.69,2.45
	c-4.62,2.43-31.86,6-29.51-6.23C178.3,82.08,174.88,54.1,174.88,54.1z"/>
<path style="fill:#3F555A;" d="M188.02,112.34c-4,0-8.61-0.53-11.53-2.6c-2.44-1.72-3.26-4.22-2.42-7.42
	c6.28-24.15,0.36-55.52,0.3-55.83c-0.017-0.08,0.002-0.164,0.05-0.23c0.14-0.19,3.43-4.56,7.81-4.56l0,0c2.47,0,4.76,1.41,6.82,4.18
	c2.52,3.4,1.93,11.37,1.24,20.6c-1.21,16.25-2.72,36.47,13.23,38.5c2.82,0.36,4.29,1,4.5,1.83c0.13,0.54-0.22,1.09-1,1.65
	c-2.32,1.57-8.32,3.11-14.25,3.66C191.4,112.24,189.77,112.34,188.02,112.34z M174.96,46.52c0.41,2.25,5.78,32.48-0.33,56
	c-0.76,2.94,0,5.23,2.19,6.79c6.86,4.85,25.53,1.6,29.8-1.29c0.58-0.39,0.86-0.76,0.8-1s-0.49-0.93-4-1.38
	c-16.5-2.1-15-22.63-13.74-39.13c0.68-9.11,1.27-17-1.13-20.2c-1.94-2.62-4.07-3.95-6.35-3.95l0,0
	C178.49,42.29,175.49,45.87,174.96,46.52z"/>
<ellipse style="fill:#985BCD;" cx="172.88" cy="50.23" rx="5.97" ry="5.05"/>
<path style="fill:#923A95;" d="M172.88,55.58c-3.45,0-6.26-2.4-6.26-5.35s2.81-5.35,6.26-5.35s6.26,2.4,6.26,5.35
	S176.33,55.58,172.88,55.58z M172.88,45.48c-3.13,0-5.68,2.13-5.68,4.76s2.55,4.76,5.68,4.76s5.68-2.13,5.68-4.76
	S176.01,45.48,172.88,45.48z"/>
<ellipse style="fill:#E7F1F8;" cx="165.64" cy="79.73" rx="21.6" ry="30.88"/>
<path style="fill:#D0E4F0;" d="M186.33,70.81c-2.68-12.71-10.92-22-20.69-22s-18,9.26-20.69,22
	C148.8,60.66,182.49,60.66,186.33,70.81z"/>
<path style="fill:#D0E4F0;" d="M186.69,72.77c0.006-0.683-0.117-1.362-0.36-2C186.47,71.41,186.58,72.07,186.69,72.77z"/>
<path style="fill:#D0E4F0;" d="M144.59,72.77L144.59,72.77c0.11-0.66,0.23-1.32,0.36-2C144.707,71.408,144.585,72.087,144.59,72.77z
	"/>
<path style="fill:#E7F1F8;" d="M147.94,67.3c3.91-8,10.38-13.19,17.71-13.19s13.8,5.22,17.71,13.19c1.333,0.838,2.379,2.063,3,3.51
	c-2.68-12.71-10.92-22-20.69-22s-18,9.26-20.69,22C145.59,69.368,146.622,68.145,147.94,67.3z"/>
<path style="fill:#FFFFFF;" d="M187.21,81.37c-10.55-1.37-20.08-6.67-30.1-9.8c-4.054-1.253-8.409-1.123-12.38,0.37
	c-0.45,2.49-0.27,5.13-0.69,7.79c-0.66,4.12,1.8,11.6,2.56,14.76c0.92,0.13,1-0.73,5.88-0.19c17.66,5.82,18.63,2.3,30.29,4.24
	C185.44,93.75,186.95,88.55,187.21,81.37z"/>
<path style="fill:#3F555A;" d="M165.64,110.9c-12.07,0-21.9-14-21.9-31.17s9.82-31.17,21.9-31.17s21.85,13.98,21.85,31.17
	S177.72,110.9,165.64,110.9z M165.64,49.14c-11.75,0-21.31,13.72-21.31,30.59s9.56,30.59,21.31,30.59s21.31-13.72,21.31-30.59
	S177.39,49.14,165.64,49.14z"/>
<path style="fill:#3F555A;" d="M186.69,73.07c-0.16,0-0.29-0.13-0.29-0.29c0-3.58-3.48-5.73-6.39-6.91
	c-4.6-1.669-9.468-2.472-14.36-2.37c-10.31,0-20.76,3.19-20.76,9.29c0,0.163-0.132,0.295-0.295,0.295s-0.295-0.132-0.295-0.295l0,0
	c0-6.78,11.06-9.87,21.34-9.87s21.34,3.09,21.34,9.87C186.975,72.946,186.846,73.07,186.69,73.07z"/>
<polygon style="fill:#F36F42;" points="165.64,90.37 167.17,92.06 168.7,93.75 165.64,93.75 162.58,93.75 164.11,92.06 "/>
<path style="fill:#C84A27;" d="M168.71,94.05h-6.13c-0.16,0.006-0.294-0.12-0.3-0.28c-0.003-0.078,0.026-0.154,0.08-0.21l3.06-3.38
	c0.055-0.064,0.136-0.1,0.22-0.1l0,0c0.084,0,0.165,0.036,0.22,0.1l3.06,3.38c0.111,0.116,0.106,0.299-0.01,0.41
	c-0.056,0.054-0.132,0.083-0.21,0.08H168.71z M163.24,93.46h4.8l-2.4-2.65L163.24,93.46z"/>
<path style="fill:#3F555A;" d="M170.83,81.39c1.31,1,3.89,0.66,3.89,0.66h1.32c0.66,0,1.2,0.34,1.2,0.75v4.11
	c0.061,0.682-0.442,1.285-1.124,1.346s-1.285-0.442-1.346-1.124c-0.007-0.074-0.007-0.148,0-0.222v-4.67"/>
<path style="fill:#3F555A;" d="M151.38,81.39c1.31,1,3.89,0.66,3.89,0.66h1.32c0.66,0,1.2,0.34,1.2,0.75v4.11
	c0.061,0.682-0.442,1.285-1.124,1.346s-1.285-0.442-1.346-1.124c-0.007-0.074-0.007-0.148,0-0.222v-4.67"/>
<path style="fill:#3F555A;" d="M176.02,88.46c-0.28,0.001-0.556-0.072-0.8-0.21c-0.473-0.278-0.757-0.792-0.74-1.34v-4.54
	c-1.324,0.175-2.669-0.089-3.83-0.75c-0.13-0.099-0.154-0.285-0.055-0.415c0.099-0.13,0.285-0.154,0.415-0.055
	c1.2,0.92,3.65,0.61,3.68,0.61h1.36c0.83,0,1.49,0.46,1.49,1v4.11c0.026,0.54-0.247,1.051-0.71,1.33
	C176.588,88.358,176.309,88.448,176.02,88.46z M175.02,82.35v4.57c-0.021,0.34,0.154,0.662,0.45,0.83c0.309,0.179,0.691,0.179,1,0
	c0.285-0.171,0.448-0.489,0.42-0.82v-4.12c0-0.22-0.39-0.46-0.9-0.46H175.02z"/>
<path style="fill:#3F555A;" d="M156.57,88.46c-0.28,0-0.556-0.072-0.8-0.21c-0.473-0.278-0.757-0.792-0.74-1.34v-4.54
	c-1.324,0.175-2.67-0.088-3.83-0.75c-0.13-0.099-0.154-0.285-0.055-0.415c0.099-0.13,0.285-0.154,0.415-0.055
	c1.2,0.92,3.65,0.61,3.68,0.61h1.36c0.83,0,1.49,0.46,1.49,1v4.11c0.026,0.54-0.247,1.051-0.71,1.33
	C157.138,88.358,156.859,88.448,156.57,88.46z M155.57,82.35v4.57c-0.021,0.34,0.154,0.662,0.45,0.83c0.309,0.179,0.691,0.179,1,0
	c0.285-0.171,0.448-0.489,0.42-0.82v-4.12c0-0.22-0.39-0.46-0.9-0.46H155.57z"/>
<path style="fill:#3F555A;" d="M148.93,78.33c-0.16,0.005-0.294-0.122-0.298-0.282c-0.002-0.06,0.015-0.119,0.048-0.168
	c0.07-0.1,1.67-2.49,6.73-1.61c0.16,0.028,0.268,0.18,0.24,0.34c-0.028,0.16-0.18,0.268-0.34,0.24c-4.65-0.81-6.13,1.33-6.14,1.35
	C149.117,78.281,149.027,78.329,148.93,78.33z"/>
<path style="fill:#3F555A;" d="M180.86,78.33c-0.1,0.003-0.195-0.046-0.25-0.13c0,0-1.51-2.16-6.14-1.35
	c-0.16,0.028-0.312-0.08-0.34-0.24c-0.028-0.16,0.08-0.312,0.24-0.34c5.06-0.89,6.67,1.5,6.73,1.61
	c0.086,0.135,0.045,0.314-0.09,0.4C180.966,78.31,180.914,78.328,180.86,78.33z"/>
<path style="fill:#A1C2D8;" d="M160.37,99.99l3.73-0.87l1.63,1l2.44-1l2.75,1c0,0-2.4,2.29-5.19,2.16
	C163.762,102.043,161.902,101.249,160.37,99.99z"/>
<path style="fill:#3F555A;" d="M165.9,102.61h-0.19c-2.85-0.13-6.33-2.84-6.47-3c-0.108-0.081-0.145-0.227-0.09-0.35
	c0.054-0.125,0.187-0.195,0.32-0.17l1.91,0.32l2.65-0.62c0.07-0.029,0.15-0.029,0.22,0l1.5,1l2.3-1c0.07-0.029,0.15-0.029,0.22,0
	l2,0.74l1.62-0.41c0.153-0.049,0.316,0.035,0.365,0.188c0.038,0.119-0.004,0.249-0.105,0.322
	C171.99,99.8,168.73,102.61,165.9,102.61z M160.63,99.92c1.511,1.098,3.263,1.818,5.11,2.1c1.69,0.07,3.67-1.08,4.88-1.92
	l-0.32,0.08c-0.058,0.02-0.122,0.02-0.18,0l-1.95-0.74l-2.33,1c-0.085,0.044-0.185,0.044-0.27,0l-1.52-1l-2.59,0.6h-0.11
	L160.63,99.92z"/>
<polyline style="fill:#D0E4F0;" points="153.05,59.4 145.45,59.86 145.45,59.1 153.05,58.63 "/>
<path style="fill:#40565B;" d="M144.96,60.19c-0.139,0.003-0.261-0.094-0.29-0.23l-0.18-0.72c-0.033-0.157,0.067-0.311,0.223-0.344
	c0.015-0.003,0.031-0.005,0.047-0.006l8.25-0.51c0.163,0,0.295,0.132,0.295,0.295c0,0.163-0.132,0.295-0.295,0.295l-7.92,0.49v0.18
	l7.84-0.48c0.16-0.011,0.299,0.109,0.31,0.269c0,0,0,0.001,0,0.001c0.011,0.16-0.109,0.299-0.269,0.31c0,0-0.001,0-0.001,0l-8.1,0.5
	L144.96,60.19z"/>
<polyline style="fill:#D0E4F0;" points="178.23,59.41 185.83,59.87 185.83,59.11 178.23,58.64 "/>
<path style="fill:#40565B;" d="M186.33,60.24L186.33,60.24l-8.1-0.5c-0.163,0-0.295-0.132-0.295-0.295
	c0-0.163,0.132-0.295,0.295-0.295l7.84,0.48v-0.18l-7.92-0.49c-0.16-0.011-0.281-0.149-0.27-0.309c0,0,0-0.001,0-0.001
	c0.011-0.16,0.149-0.281,0.309-0.27c0,0,0.001,0,0.001,0l8.25,0.51c0.16,0.008,0.284,0.143,0.276,0.303
	c-0.001,0.016-0.003,0.031-0.006,0.047L186.56,60C186.541,60.12,186.449,60.216,186.33,60.24z"/>
<circle style="fill:#F36F42;" cx="143.37" cy="59.83" r="2.04"/>
<circle style="fill:#F36F42;" cx="187.91" cy="59.83" r="2.04"/>
<path style="fill:#C84A27;" d="M187.91,62.17c-1.292,0-2.34-1.048-2.34-2.34c0-1.292,1.048-2.34,2.34-2.34
	c1.292,0,2.34,1.048,2.34,2.34v0C190.25,61.122,189.202,62.17,187.91,62.17z M187.91,58.09c-0.966,0-1.75,0.784-1.75,1.75
	s0.784,1.75,1.75,1.75s1.75-0.784,1.75-1.75c0.006-0.966-0.773-1.754-1.74-1.76c-0.003,0-0.007,0-0.01,0V58.09z"/>
<path style="fill:#C84A27;" d="M143.37,62.17c-1.292,0-2.34-1.048-2.34-2.34c0-1.292,1.048-2.34,2.34-2.34
	c1.292,0,2.34,1.048,2.34,2.34v0C145.71,61.122,144.662,62.17,143.37,62.17z M143.37,58.09c-0.966,0-1.75,0.784-1.75,1.75
	s0.784,1.75,1.75,1.75s1.75-0.784,1.75-1.75c0.006-0.966-0.773-1.754-1.74-1.76c-0.003,0-0.007,0-0.01,0V58.09z"/>
<path style="fill:#FFFFFF;" d="M33.5,19.9h17.98c3.38,0,6.12,2.74,6.12,6.12v58.6c0,3.38-2.74,6.12-6.12,6.12H33.5
	c-3.38,0-6.12-2.74-6.12-6.12v-58.6C27.38,22.64,30.12,19.9,33.5,19.9z"/>
<path style="fill:#FFFFFF;" d="M33.5,19.9h17.98c3.38,0,6.12,2.74,6.12,6.12v58.6c0,3.38-2.74,6.12-6.12,6.12H33.5
	c-3.38,0-6.12-2.74-6.12-6.12v-58.6C27.38,22.64,30.12,19.9,33.5,19.9z"/>
<path style="fill:#D0E4F0;" d="M51.49,19.9h-18c-3.38,0-6.12,2.74-6.12,6.12v58.6c0,3.38,2.74,6.12,6.12,6.12l0,0h18
	c3.38,0,6.12-2.74,6.12-6.12l0,0v-58.6C57.61,22.64,54.87,19.9,51.49,19.9z M56.05,81.59c0,3.032-2.458,5.49-5.49,5.49l0,0H34.43
	c-3.032,0-5.49-2.458-5.49-5.49V29.05c0-3.032,2.458-5.49,5.49-5.49l0,0h16.12c3.032,0,5.49,2.458,5.49,5.49c0,0,0,0,0,0
	L56.05,81.59z"/>
<path style="fill:#D0E4F0;" d="M57.56,26.02c0-3.361-2.71-6.093-6.07-6.12h-18c-3.38,0-6.12,2.74-6.12,6.12v12.6
	c9.749-3.421,20.371-3.421,30.12,0L57.56,26.02z"/>
<path style="fill:none;stroke:#40565B;stroke-linecap:round;stroke-linejoin:round;" d="M27.35,38.65"/>
<path style="fill:#40565B;" d="M27.35,38.94h-0.1c-0.159,0.017-0.302-0.098-0.319-0.257c-0.015-0.144,0.078-0.278,0.219-0.313h0.06
	c0.092-0.043,0.198-0.043,0.29,0c0.084,0.048,0.14,0.134,0.15,0.23c0.011,0.176-0.122,0.329-0.299,0.34
	C27.351,38.94,27.35,38.94,27.35,38.94z M27.45,38.94L27.45,38.94z"/>
<path style="fill:#40565B;" d="M51.49,91.03h-18c-3.538-0.006-6.404-2.872-6.41-6.41v-58.6c0.006-3.538,2.872-6.404,6.41-6.41h18
	c3.538,0.006,6.404,2.872,6.41,6.41v58.6C57.894,88.158,55.028,91.024,51.49,91.03z M33.49,20.24c-3.216,0.006-5.82,2.614-5.82,5.83
	v58.6c0.027,3.196,2.624,5.775,5.82,5.78h18c3.216-0.006,5.82-2.614,5.82-5.83v-58.6c-0.027-3.196-2.624-5.775-5.82-5.78H33.49z"/>
<path style="fill:#40565B;" d="M57.49,38.94H57.4c-9.711-3.398-20.289-3.398-30,0c-0.152,0.055-0.32-0.023-0.375-0.175
	s0.023-0.32,0.175-0.375c9.844-3.447,20.566-3.447,30.41,0c0.155,0.041,0.247,0.199,0.207,0.354
	c-0.035,0.133-0.159,0.223-0.297,0.216L57.49,38.94z"/>
<path style="fill:#40565B;" d="M35.64,47.7L35.64,47.7c-0.143-0.014-0.287-0.014-0.43,0v2.4c0.029,1.051-0.693,1.975-1.72,2.2v3.46
	c0,1.21,0.98,2.19,2.19,2.19l0,0c1.21,0,2.19-0.98,2.19-2.19V49.9c0.006-1.209-0.97-2.195-2.18-2.2
	C35.674,47.7,35.657,47.7,35.64,47.7z"/>
<path style="fill:#40565B;" d="M48.49,47.7L48.49,47.7c-0.143-0.014-0.287-0.014-0.43,0v2.4c0.001,1.045-0.736,1.945-1.76,2.15v3.46
	c-0.028,1.209,0.93,2.212,2.139,2.239c0.017,0,0.034,0.001,0.051,0.001l0,0c1.21,0,2.19-0.98,2.19-2.19V49.9
	c0.006-1.209-0.97-2.194-2.18-2.2C48.497,47.7,48.493,47.7,48.49,47.7z"/>
<polygon style="fill:#F36F42;" points="44.53,62.28 42.54,62.29 40.55,62.29 41.54,60.57 42.53,58.84 43.53,60.56 "/>
<path style="fill:#C84A27;" d="M40.55,62.59c-0.16,0.001-0.291-0.128-0.292-0.288c0-0.053,0.014-0.106,0.042-0.152l2-3.45
	c0.047-0.095,0.145-0.153,0.25-0.15c0.104,0.001,0.2,0.059,0.25,0.15l2,3.44c0.083,0.137,0.039,0.315-0.098,0.398
	c-0.046,0.028-0.098,0.042-0.152,0.042h-4V62.59z M42.55,59.44l-1.48,2.57h3L42.55,59.44z"/>
<path style="fill:#40565B;" d="M43.49,83.38c-2.402,0.082-4.753-0.714-6.61-2.24c-3.66-3.11-4-8.28-4-8.5
	c-0.011-0.16,0.109-0.298,0.269-0.309c0.004,0,0.007,0,0.011-0.001c0.16-0.011,0.298,0.109,0.309,0.269c0,0.004,0,0.007,0.001,0.011
	c0,0.05,0.34,5.14,3.81,8.09c2.19,1.728,5.007,2.454,7.76,2c0.16-0.017,0.303,0.1,0.32,0.26c0.017,0.16-0.1,0.303-0.26,0.32
	C44.565,83.342,44.028,83.375,43.49,83.38z"/>
<path style="fill:#40565B;" d="M31,45.6c-0.16,0.01-0.298-0.112-0.307-0.271c-0.006-0.103,0.042-0.201,0.127-0.259
	c0.33-0.25,3.28-2.45,4.67-1.88c0.149,0.061,0.221,0.231,0.16,0.38s-0.231,0.221-0.38,0.16l0,0c-0.81-0.33-2.94,0.93-4.09,1.8
	C31.13,45.573,31.066,45.598,31,45.6z"/>
<path style="fill:#40565B;" d="M53.3,45.6c-0.065,0.001-0.128-0.02-0.18-0.06c-1.15-0.88-3.28-2.14-4.09-1.8
	c-0.149,0.061-0.319-0.011-0.38-0.16s0.011-0.319,0.16-0.38l0,0c1.38-0.58,4.34,1.62,4.67,1.88c0.133,0.089,0.168,0.27,0.079,0.403
	c-0.057,0.085-0.156,0.134-0.259,0.127L53.3,45.6z"/>
<rect x="42.1" y="13.6" width="0.59" height="6.29"/>
<circle style="fill:#F36F42;" cx="42.39" cy="10.79" r="2.81"/>
<path style="fill:#C84A27;" d="M42.39,13.9c-1.718,0.006-3.114-1.382-3.12-3.1s1.382-3.114,3.1-3.12
	c1.718-0.006,3.114,1.382,3.12,3.1c0,0.003,0,0.007,0,0.01C45.49,12.504,44.104,13.894,42.39,13.9z M42.39,8.27
	c-1.392,0-2.52,1.128-2.52,2.52s1.128,2.52,2.52,2.52s2.52-1.128,2.52-2.52v0c0.017-1.392-1.098-2.533-2.49-2.55
	c-0.01,0-0.02,0-0.03,0V8.27z"/>
<rect x="37.04" y="90.74" style="fill:#FFFFFF;" width="10.9" height="9.06"/>
<path style="fill:#D0E4F0;" d="M48.04,95.24c-2.13,2.45-7.22,3-11,0.3v-4.8h10.9L48.04,95.24z"/>
<path style="fill:#C3D4E0;" d="M47.36,95.85h-9.87c-0.323-0.042-0.551-0.339-0.508-0.662c0.035-0.265,0.243-0.474,0.508-0.508h9.9
	c0.323-0.042,0.619,0.185,0.662,0.508c0.042,0.323-0.185,0.619-0.508,0.662c-0.051,0.007-0.102,0.007-0.153,0H47.36z"/>
<path style="fill:#40565B;" d="M47.94,100.09H37.05c-0.16,0-0.29-0.13-0.29-0.29l0,0v-9.06c0-0.16,0.13-0.29,0.29-0.29l0,0h10.9
	c0.16,0,0.29,0.13,0.29,0.29l0,0v9.06c0,0.16-0.13,0.29-0.29,0.29C47.947,100.09,47.943,100.09,47.94,100.09z M37.34,99.5h10.31
	v-8.47H37.34V99.5z"/>
<polygon style="fill:#FFDC64;" points="61.81,99.79 42.4,138.11 22.98,99.79 9.11,99.79 20.21,166.95 67.46,175.12 75.68,99.79 "/>
<path style="fill:#FAAC30;" d="M42.4,138.12l-7.34-14.48C26.72,124.4,11.6,107.29,9.12,99.8l12.26,75.32c20,2.65,40.46,5.51,46.08,0
	l6.56-60.11C64.66,142.65,50.62,120.81,42.4,138.12z"/>
<path style="fill:#FFFFFF;" d="M27.67,162.7c0.783-2.525,3.068-4.286,5.71-4.4l12.66-0.56l26-10l-0.9-6.73l4.87-41.25l8.67,55.68
	l-36.5,11.8l-9,4.52l-4.89,0.49C29.82,172.69,26.34,166.98,27.67,162.7z"/>
<path style="fill:#D0E4F0;" d="M27.67,162.7c0.786-2.524,3.07-4.283,5.71-4.4l12.66-0.56l26-10l-0.9-6.73l4.87-41.25l1.5,9.64
	l-4.42,26l1.86,13.84l-26,10l-12.66,0.56c-2.64,0.117-4.924,1.876-5.71,4.4l0,0c-0.737,2.925,0.201,6.018,2.44,8.04
	C29.19,171.6,26.49,166.57,27.67,162.7z"/>
<path style="fill:#C3D4E0;" d="M84.26,155.8c-0.106-0.002-0.21-0.033-0.3-0.09l-11.87-7.23c-0.297-0.135-0.428-0.485-0.293-0.781
	c0.135-0.297,0.485-0.428,0.781-0.293c0.043,0.02,0.084,0.045,0.122,0.074l11.87,7.24c0.276,0.173,0.36,0.537,0.187,0.813
	c-0.107,0.171-0.295,0.276-0.497,0.277L84.26,155.8z"/>
<path style="fill:#C3D4E0;" d="M71.49,142.52c-0.325-0.025-0.568-0.309-0.543-0.634c0.02-0.252,0.198-0.464,0.443-0.526l10.5-1.78
	c0.324-0.033,0.614,0.203,0.646,0.528c0.03,0.293-0.161,0.562-0.446,0.632l-10.5,1.78H71.49z"/>
<path style="fill:#C3D4E0;" d="M72.49,132.58c-0.326-0.013-0.579-0.288-0.566-0.613c0.006-0.145,0.065-0.283,0.166-0.387l5.23-4.81
	c0.269-0.184,0.636-0.114,0.82,0.155c0.147,0.216,0.135,0.503-0.03,0.705l-5.23,4.81C72.772,132.533,72.633,132.583,72.49,132.58z"
	/>
<path style="fill:#C3D4E0;" d="M71.4,156.81c-0.233,0-0.445-0.137-0.54-0.35l-2.87-6.52c-0.171-0.277-0.085-0.641,0.193-0.812
	c0.277-0.171,0.641-0.085,0.812,0.193c0.029,0.046,0.051,0.097,0.066,0.149l2.87,6.52c0.127,0.3-0.013,0.646-0.313,0.773
	c-0.072,0.03-0.149,0.046-0.227,0.047H71.4z"/>
<path style="fill:#C3D4E0;" d="M62.49,160.75c-0.259-0.002-0.486-0.172-0.56-0.42l-2.21-7.48c-0.046-0.323,0.178-0.621,0.501-0.667
	c0.258-0.037,0.51,0.1,0.619,0.337l2.21,7.48c0.09,0.312-0.088,0.638-0.4,0.73L62.49,160.75z"/>
<path style="fill:#C3D4E0;" d="M53.24,162c-0.284,0-0.527-0.201-0.58-0.48l-1-5.51c-0.021-0.325,0.226-0.606,0.551-0.627
	c0.269-0.017,0.516,0.15,0.599,0.407l1,5.51c0.055,0.317-0.154,0.619-0.47,0.68L53.24,162z"/>
<path style="fill:#40565B;" d="M33.8,172.56c-1.869-0.065-3.608-0.973-4.73-2.47c-1.74-2.073-2.363-4.863-1.67-7.48
	c0.826-2.65,3.227-4.495,6-4.61l12.61-0.55l25.76-9.87l-0.82-6.1c-0.023-0.158,0.086-0.306,0.245-0.329
	c0.002,0,0.004-0.001,0.005-0.001c0.158-0.023,0.306,0.086,0.329,0.245c0,0.002,0.001,0.004,0.001,0.005l0.85,6.33
	c0.017,0.135-0.062,0.264-0.19,0.31l-26,10H46.1l-12.66,0.56c-2.515,0.12-4.688,1.797-5.44,4.2c-0.652,2.412-0.097,4.99,1.49,6.92
	c1.099,1.495,2.878,2.334,4.73,2.23l4.84-0.48l9-4.5l36.31-11.73l-8.63-55.4c-0.025-0.16,0.085-0.31,0.245-0.335
	s0.31,0.085,0.335,0.245l8.67,55.68c0.021,0.141-0.064,0.277-0.2,0.32l-36.52,11.76l-9,4.5h-0.1l-4.89,0.49L33.8,172.56z"/>
<path style="fill:#40565B;" d="M48.18,167.53c-0.139,0.003-0.261-0.094-0.29-0.23l-2.14-9.49c-0.036-0.157,0.063-0.314,0.22-0.35
	c0.157-0.036,0.314,0.063,0.35,0.22l2.17,9.49c0.037,0.156-0.06,0.312-0.215,0.349c-0.002,0-0.003,0.001-0.005,0.001L48.18,167.53z"
	/>
<polygon style="fill:#E7F1F8;" points="42.4,138.11 22.98,99.79 61.81,99.79 "/>
<path style="fill:#FFFFFF;" d="M57.32,162.7c-0.783-2.525-3.068-4.286-5.71-4.4l-12.66-0.56l-26-10l1.84-13.75L8.98,99.77
	L0.3,155.48l36.51,11.76l9,4.52l4.89,0.49C55.17,172.69,58.64,166.98,57.32,162.7z"/>
<path style="fill:#D0E4F0;" d="M57.32,162.7c-0.786-2.524-3.07-4.283-5.71-4.4l-12.66-0.56l-26-10l1.84-13.75L8.98,99.77l-1.49,9.66
	l4.42,26l-1.87,13.81l26,10l12.66,0.56c2.64,0.117,4.924,1.876,5.71,4.4l0,0c0.737,2.925-0.201,6.018-2.44,8.04
	C55.8,171.6,58.49,166.57,57.32,162.7z"/>
<path style="fill:#C3D4E0;" d="M0.72,155.8c-0.326-0.002-0.589-0.267-0.587-0.593c0.001-0.202,0.106-0.39,0.277-0.497l11.87-7.24
	c0.256-0.202,0.627-0.159,0.829,0.097c0.202,0.256,0.159,0.627-0.097,0.829c-0.037,0.03-0.078,0.054-0.122,0.074l-11.86,7.25
	C0.936,155.775,0.829,155.803,0.72,155.8z"/>
<path style="fill:#C3D4E0;" d="M13.49,142.52h-0.1l-10.5-1.78c-0.316-0.078-0.51-0.397-0.432-0.714
	c0.07-0.286,0.34-0.476,0.632-0.446l10.5,1.78c0.316,0.08,0.507,0.402,0.426,0.717C13.954,142.322,13.742,142.5,13.49,142.52z"/>
<path style="fill:#C3D4E0;" d="M14.49,134.44c-0.148,0.003-0.291-0.051-0.4-0.15l-7.25-6.66c-0.206-0.253-0.168-0.624,0.085-0.83
	c0.203-0.165,0.49-0.177,0.705-0.03l7.25,6.66c0.227,0.234,0.221,0.608-0.013,0.834c-0.104,0.101-0.242,0.16-0.387,0.166
	L14.49,134.44z"/>
<path style="fill:#C3D4E0;" d="M13.59,156.81c-0.326-0.002-0.589-0.267-0.587-0.593c0-0.078,0.016-0.155,0.047-0.227l2.87-6.52
	c0.089-0.314,0.415-0.496,0.728-0.407s0.496,0.415,0.407,0.728c-0.015,0.053-0.037,0.103-0.066,0.149l-2.87,6.52
	C14.027,156.67,13.82,156.807,13.59,156.81z"/>
<path style="fill:#C3D4E0;" d="M22.49,160.75h-0.17c-0.312-0.092-0.49-0.418-0.4-0.73l2.21-7.48
	c0.136-0.296,0.487-0.425,0.783-0.289c0.237,0.109,0.374,0.361,0.337,0.619l-2.21,7.48C22.96,160.586,22.739,160.746,22.49,160.75z"
	/>
<path style="fill:#C3D4E0;" d="M31.75,162h-0.11c-0.316-0.061-0.525-0.363-0.47-0.68l1-5.51c0.101-0.31,0.433-0.48,0.743-0.379
	c0.257,0.083,0.424,0.33,0.407,0.599l-1,5.51C32.26,161.807,32.024,161.997,31.75,162z"/>
<path style="fill:#40565B;" d="M51.19,172.56h-0.51l-4.89-0.49h-0.1l-9-4.52L0.21,155.76c-0.136-0.043-0.221-0.179-0.2-0.32
	l8.67-55.68c0.025-0.16,0.175-0.27,0.335-0.245c0.16,0.025,0.27,0.175,0.245,0.335l-8.64,55.39l36.28,11.68l9,4.51l4.84,0.48
	c1.852,0.121,3.64-0.703,4.75-2.19c1.622-1.92,2.207-4.509,1.57-6.94c-0.752-2.403-2.925-4.08-5.44-4.2l-12.66-0.56h-0.09l-26-10
	c-0.128-0.046-0.207-0.175-0.19-0.31l1.81-13.73c0.02-0.159,0.166-0.271,0.325-0.251c0.002,0,0.004,0,0.005,0.001
	c0.159,0.02,0.271,0.166,0.251,0.325c0,0.002,0,0.004-0.001,0.005l-1.81,13.53l25.76,9.87l12.61,0.55c2.773,0.115,5.174,1.96,6,4.61
	c0.693,2.617,0.07,5.407-1.67,7.48C54.828,171.604,53.072,172.509,51.19,172.56z"/>
<path style="fill:#40565B;" d="M36.81,167.53h-0.06c-0.156-0.034-0.255-0.189-0.221-0.345c0-0.002,0.001-0.003,0.001-0.005
	l2.14-9.49c0.034-0.156,0.189-0.255,0.345-0.221c0.002,0,0.003,0.001,0.005,0.001c0.156,0.034,0.255,0.189,0.221,0.345
	c0,0.002-0.001,0.003-0.001,0.005l-2.14,9.49C37.067,167.442,36.946,167.534,36.81,167.53z"/>
<path style="fill:#164A67;" d="M42.4,138.41c-0.11,0-0.211-0.062-0.26-0.16L22.72,99.93c-0.077-0.14-0.026-0.317,0.114-0.394
	c0.045-0.025,0.095-0.037,0.146-0.036h38.84c0.16-0.003,0.293,0.124,0.296,0.284c0.001,0.051-0.011,0.101-0.036,0.146l-19.42,38.31
	C42.614,138.342,42.512,138.408,42.4,138.41z M23.49,100.09l18.94,37.38l18.94-37.38L23.49,100.09z"/>
<polygon style="fill:#F26F42;" points="16.99,149.24 8.77,99.5 23.16,99.5 23.24,99.66 42.4,137.47 61.63,99.5 76,99.5 
	70.66,148.45 70.08,148.38 75.35,100.09 61.99,100.09 42.4,138.76 22.8,100.09 9.46,100.09 17.57,149.14 "/>
<path style="fill:#3AA1D6;" d="M40.63,99.97c-0.694-0.477-1.43-0.889-2.2-1.23c-3.57-1.59-7.1-1.46-7.88,0.3
	c-0.184,0.445-0.205,0.941-0.06,1.4c0.521,1.643,0.521,3.407,0,5.05c-0.218,0.528-0.218,1.122,0,1.65c0.79,1.76,4.31,1.89,7.88,0.3
	c0.741-0.336,1.45-0.738,2.12-1.2c1.46,0,2.56-0.52,3-1.41c0.237-0.609,0.201-1.29-0.1-1.87c0.2-0.504,0.2-1.066,0-1.57
	C42.805,100.441,41.742,99.894,40.63,99.97z"/>
<path style="fill:#3AA1D6;" d="M44.36,99.38c0.694-0.477,1.43-0.889,2.2-1.23c3.57-1.59,7.1-1.46,7.88,0.3
	c0.184,0.445,0.205,0.941,0.06,1.4c-0.521,1.643-0.521,3.407,0,5.05c0.218,0.528,0.218,1.122,0,1.65c-0.79,1.76-4.31,1.89-7.88,0.3
	c-0.745-0.345-1.458-0.757-2.13-1.23c-1.46,0-2.56-0.52-3-1.41c-0.237-0.609-0.201-1.29,0.1-1.87c-0.2-0.504-0.2-1.066,0-1.57
	C42.184,99.829,43.25,99.294,44.36,99.38z"/>
<path style="fill:#164A67;" d="M33.62,108.84h-0.3c-1.61-0.06-2.73-0.62-3.15-1.58c-0.243-0.596-0.243-1.264,0-1.86
	c0.506-1.584,0.506-3.286,0-4.87c-0.163-0.526-0.135-1.093,0.08-1.6c0.43-1,1.55-1.52,3.15-1.58c1.766-0.006,3.511,0.38,5.11,1.13
	c0.765,0.337,1.497,0.742,2.19,1.21c1.186-0.067,2.311,0.53,2.92,1.55c0.226,0.533,0.248,1.132,0.06,1.68
	c0.295,0.63,0.317,1.354,0.06,2c-0.43,1-1.54,1.51-3.13,1.58c-0.683,0.463-1.406,0.864-2.16,1.2
	C36.935,108.407,35.291,108.795,33.62,108.84z M33.74,97.92h-0.25c-1.37,0.05-2.31,0.49-2.64,1.23c-0.141,0.388-0.141,0.812,0,1.2
	c0.546,1.701,0.546,3.529,0,5.23c-0.189,0.458-0.189,0.972,0,1.43c0.33,0.74,1.27,1.18,2.64,1.23c1.677,0.005,3.334-0.364,4.85-1.08
	c0.749-0.334,1.465-0.735,2.14-1.2c0.047-0.032,0.103-0.049,0.16-0.05c1.39,0,2.37-0.49,2.7-1.24c0.2-0.533,0.164-1.126-0.1-1.63
	c-0.026-0.068-0.026-0.142,0-0.21c0.175-0.437,0.175-0.924,0-1.36c-0.561-0.883-1.582-1.362-2.62-1.23
	c-0.043,0.01-0.087,0.01-0.13,0c-0.681-0.469-1.404-0.874-2.16-1.21c-1.437-0.685-2.999-1.066-4.59-1.12V97.92z"/>
<path style="fill:#164A67;" d="M51.37,108.24c-1.668-0.046-3.308-0.434-4.82-1.14c-0.754-0.336-1.477-0.737-2.16-1.2
	c-1.6-0.07-2.71-0.62-3.13-1.58c-0.257-0.646-0.235-1.37,0.06-2c-0.187-0.548-0.166-1.146,0.06-1.68
	c0.6-1.016,1.712-1.616,2.89-1.56c0.702-0.469,1.445-0.874,2.22-1.21c1.598-0.752,3.344-1.138,5.11-1.13
	c1.61,0.06,2.73,0.62,3.15,1.58c0.215,0.507,0.243,1.074,0.08,1.6c-0.506,1.584-0.506,3.286,0,4.87c0.247,0.595,0.247,1.265,0,1.86
	C54.35,107.71,53.06,108.24,51.37,108.24z M51.25,97.31c-1.582,0.048-3.137,0.418-4.57,1.09c-0.767,0.337-1.5,0.745-2.19,1.22
	c-0.044,0.03-0.096,0.048-0.15,0.05c-0.984-0.076-1.932,0.392-2.47,1.22c-0.174,0.437-0.174,0.923,0,1.36
	c0.026,0.068,0.026,0.142,0,0.21c-0.264,0.504-0.3,1.097-0.1,1.63c0.33,0.74,1.32,1.19,2.7,1.24c0.057,0.001,0.113,0.018,0.16,0.05
	c0.675,0.465,1.391,0.866,2.14,1.2c3.36,1.5,6.79,1.43,7.49-0.15c0.189-0.458,0.189-0.972,0-1.43c-0.546-1.701-0.546-3.529,0-5.23
	c0.141-0.388,0.141-0.812,0-1.2c-0.33-0.74-1.27-1.18-2.64-1.23L51.25,97.31z M44.35,99.36L44.35,99.36z"/>
<circle style="fill:#3AA1D6;" cx="43.021" cy="102.732" r="3.46"/>
<path style="fill:#164A67;" d="M43.02,106.49c-2.071,0.002-3.751-1.676-3.753-3.747c-0.002-2.071,1.676-3.751,3.747-3.753
	c0.997-0.001,1.952,0.395,2.657,1.1l0,0c1.464,1.465,1.462,3.84-0.003,5.303C44.964,106.095,44.013,106.489,43.02,106.49z
	 M43.02,99.57c-1.745,0.001-3.16,1.416-3.159,3.161c0.001,1.745,1.416,3.16,3.161,3.159s3.16-1.416,3.159-3.161
	c0-0.836-0.331-1.637-0.921-2.229l0,0C44.668,99.903,43.861,99.567,43.02,99.57z"/>
<rect x="42.2" y="138.11" style="fill:#F26F42;" width="0.59" height="17.31"/>
<circle style="fill:#3AA1D6;" cx="42.49" cy="110.64" r="1.23"/>
<circle style="fill:#3AA1D6;" cx="42.49" cy="128" r="1.23"/>
<path style="fill:#164A67;" d="M42.49,123.93c-0.16,0-0.29-0.13-0.29-0.29l0,0v-8.63c0-0.163,0.132-0.295,0.295-0.295
	c0.163,0,0.295,0.132,0.295,0.295v8.63c0,0.16-0.13,0.29-0.29,0.29C42.497,123.93,42.493,123.93,42.49,123.93z"/>
<path style="fill:#164A67;" d="M42.49,112.16c-0.839,0-1.52-0.681-1.52-1.52c0-0.839,0.681-1.52,1.52-1.52s1.52,0.681,1.52,1.52l0,0
	C44.01,111.479,43.329,112.16,42.49,112.16z M42.49,109.7c-0.519,0-0.94,0.421-0.94,0.94c0,0.519,0.421,0.94,0.94,0.94
	c0.519,0,0.94-0.421,0.94-0.94S43.009,109.7,42.49,109.7L42.49,109.7z"/>
<path style="fill:#164A67;" d="M42.49,129.52c-0.839,0-1.52-0.681-1.52-1.52c0-0.839,0.681-1.52,1.52-1.52s1.52,0.681,1.52,1.52
	C44.01,128.839,43.329,129.52,42.49,129.52L42.49,129.52z M42.49,127.06c-0.519,0-0.94,0.421-0.94,0.94
	c0,0.519,0.421,0.94,0.94,0.94c0.519,0,0.94-0.421,0.94-0.94C43.43,127.481,43.009,127.06,42.49,127.06L42.49,127.06z"/>
<rect x="20.07" y="161.519" transform="matrix(0.9887 -0.1499 0.1499 0.9887 -25.0029 4.954)" style="fill:#F26F42;" width="0.59" height="13.67"/>
<rect x="61.073" y="167.697" transform="matrix(0.1094 -0.994 0.994 0.1094 -106.2058 217.4501)" style="fill:#F26F42;" width="14.34" height="0.59"/>
</svg>
