<?xml version="1.0" encoding="iso-8859-1"?>
<!-- Generator: Adobe Illustrator 23.0.0, SVG Export Plug-In . SVG Version: 6.00 Build 0)  -->
<svg version="1.1" id="Layer_1" xmlns="http://www.w3.org/2000/svg" xmlns:xlink="http://www.w3.org/1999/xlink" x="0px" y="0px"
	 viewBox="0 0 73.29 54.14" style="enable-background:new 0 0 73.29 54.14;" xml:space="preserve">
<title>home-illustration-benefits-self-tab-2</title>
<circle style="fill:#FFFFFF;" cx="42.11" cy="27.98" r="26.01"/>
<path style="fill:#A1C2D8;" d="M42.11,54.14c-14.448,0-26.16-11.712-26.16-26.16S27.662,1.82,42.11,1.82s26.16,11.712,26.16,26.16
	c0,0.01,0,0.02,0,0.03C68.237,42.439,56.539,54.124,42.11,54.14z M42.11,2.14c-14.277,0-25.85,11.573-25.85,25.85
	s11.573,25.85,25.85,25.85c14.269,0,25.839-11.561,25.85-25.83c0-14.281-11.569-25.863-25.85-25.88V2.14z"/>
<rect x="0.29" y="34.97" style="fill:#FFDC64;" width="60.64" height="8.37"/>
<rect x="0.29" y="39.14" style="fill:#FAAC30;" width="60.64" height="4.19"/>
<path style="fill:#F26F42;" d="M61.22,43.62H0v-8.94h61.22V43.62z M0.54,43.01h60.1v-7.76H0.54V43.01z"/>
<path style="fill:#F26F42;" d="M56.07,43.62H45.32v-8.94h10.75V43.62z M45.89,43.01h9.59v-7.76h-9.59V43.01z"/>
<rect x="3.69" y="26.19" style="fill:#1785C8;" width="54.53" height="8.8"/>
<rect x="3.69" y="30.25" style="fill:#3AA1D6;" width="54.53" height="4.74"/>
<path style="fill:#164A67;" d="M58.22,35.28H3.69c-0.153,0-0.279-0.118-0.29-0.27v-8.8c0-0.16,0.13-0.29,0.29-0.29c0,0,0,0,0,0
	h54.53c0.16,0,0.29,0.13,0.29,0.29v0v8.8C58.499,35.162,58.373,35.28,58.22,35.28z M3.98,34.7h54v-8.22h-54L3.98,34.7z"/>
<path style="fill:#164A67;" d="M16.74,35.28h-6.1c-0.16,0-0.29-0.13-0.29-0.29l0,0v-8.8c0-0.16,0.13-0.29,0.29-0.29h0h6.1
	c0.16,0,0.29,0.13,0.29,0.29v0v8.82C17.019,35.162,16.893,35.28,16.74,35.28z M10.93,34.7h5.52v-8.22h-5.51L10.93,34.7z"/>
<path style="fill:#FFFFFF;" d="M52.15,23.67H12.43v-7.25h39.72l-0.28,0.73c-0.667,1.775-0.692,3.728-0.07,5.52L52.15,23.67z"/>
<path style="fill:#D0E4F0;" d="M52.15,23.67H12.43l-0.46-5.2c12.984,2.417,26.255,2.899,39.38,1.43
	C51.356,21.198,51.628,22.481,52.15,23.67z"/>
<path style="fill:#8FD1BE;" d="M13.06,26.14h39.37v-3.26H13.07c-0.598-1.955-0.598-4.045,0-6h39.36v-3.26H13.06
	c-2,0-3.58,2.8-3.58,6.26S11.08,26.14,13.06,26.14z"/>
<path style="fill:#29B99A;" d="M9.54,20.65c0.22,3.09,1.72,5.49,3.55,5.49h39.34v-1.71H13.07c-0.302-0.971-0.453-1.983-0.45-3
	c0-0.26,0-0.52,0-0.77s0-0.51,0-0.77c-0.003-1.017,0.148-2.029,0.45-3h39.36v-1.73H13.06C11.23,15.16,9.73,17.56,9.54,20.65z"/>
<path style="fill:#40565B;" d="M51.85,23.17c-0.127,0.022-0.254-0.044-0.31-0.16c-0.68-2.011-0.68-4.189,0-6.2
	c0.052-0.152,0.218-0.232,0.37-0.18c0.152,0.052,0.232,0.218,0.18,0.37c-0.638,1.888-0.638,3.932,0,5.82
	c0.053,0.151-0.027,0.317-0.178,0.369c-0.001,0-0.001,0-0.002,0.001L51.85,23.17z"/>
<path style="fill:#40565B;" d="M52.43,26.43H13.06c-2.17,0-3.87-2.88-3.87-6.55s1.7-6.55,3.87-6.55h39.37
	c0.16,0,0.29,0.13,0.29,0.29v0v3.26c0,0.16-0.13,0.29-0.29,0.29l0,0H13.29c-0.501,1.775-0.501,3.655,0,5.43h39.14
	c0.16,0,0.29,0.13,0.29,0.29v0v3.26C52.715,26.306,52.586,26.43,52.43,26.43z M13.06,13.91c-1.81,0-3.29,2.68-3.29,6s1.48,6,3.29,6
	h39.09v-2.74H13.07c-0.127,0.002-0.241-0.079-0.28-0.2c-0.617-2.014-0.617-4.166,0-6.18c0.039-0.121,0.153-0.202,0.28-0.2h39.08
	v-2.68H13.06z"/>
<polygon style="fill:#1785C8;" points="73,42.96 65.34,43.92 60.96,1.25 68.62,0.29 "/>
<polygon style="fill:#3AA1D6;" points="70.56,43.35 68,43.67 63.6,0.83 66.16,0.51 "/>
<path style="fill:#164A67;" d="M65.34,44.21c-0.149,0.001-0.275-0.112-0.29-0.26L60.67,1.29c0.004-0.142,0.109-0.26,0.25-0.28
	l7.62-1c0.079-0.012,0.159,0.01,0.22,0.06c0.062,0.049,0.102,0.121,0.11,0.2l4.38,42.67c0.018,0.157-0.093,0.299-0.25,0.32l-7.66,1
	V44.21z M61.28,1.51L65.6,43.6l7.09-0.89l-4.32-42.1L61.28,1.51z"/>
<polygon style="fill:#69BFE2;" points="70.68,20.28 63.01,21.25 61.65,7.96 69.31,6.99 "/>
<polyline style="fill:#A9D7F3;" points="66.83,7.02 68.22,20.56 65.66,20.89 64.27,7.34 "/>
<path style="fill:#164A67;" d="M63.01,21.54c-0.149,0.001-0.275-0.112-0.29-0.26L61.36,8.01c-0.018-0.157,0.093-0.299,0.25-0.32
	l7.66-1c0.079-0.012,0.159,0.01,0.22,0.06c0.062,0.049,0.102,0.121,0.11,0.2l1.37,13.29c0.018,0.157-0.093,0.299-0.25,0.32l-7.66,1
	L63.01,21.54z M62.01,8.21l1.31,12.72l7.04-0.92l-1.3-12.69L62.01,8.21z"/>
<path style="fill:#C84A27;" d="M60.38,44.22c-0.146,0.001-0.27-0.106-0.29-0.25L55.02,1.39c-0.018-0.157,0.093-0.299,0.25-0.32
	l5.09-0.74c0.078-0.011,0.158,0.011,0.22,0.06c0.062,0.049,0.102,0.121,0.11,0.2l5.08,42.57c0.018,0.157-0.093,0.299-0.25,0.32
	l-5.09,0.74L60.38,44.22z M55.62,1.6l5,42l4.52-0.66l-5-42L55.62,1.6z"/>
<polygon style="fill:#C84A27;" points="65.47,43.18 60.38,43.93 55.3,1.35 60.39,0.61 "/>
<polygon style="fill:#F36F42;" points="64.49,43.27 62.77,43.52 57.7,0.94 59.42,0.69 "/>
<polygon style="fill:#F36F42;" points="61.6,10.79 56.51,11.53 55.66,4.34 60.75,3.6 "/>
<polygon style="fill:#F9AC9D;" points="60.62,10.76 58.9,11.01 58.07,4.07 59.79,3.82 "/>
<polygon style="fill:#F36F42;" points="65.19,40.88 60.1,41.62 59.25,34.43 64.33,33.69 "/>
<path style="fill:#C84A27;" d="M56.54,11.82c-0.146,0.001-0.27-0.106-0.29-0.25l-0.86-7.19c-0.046-0.153,0.04-0.315,0.194-0.362
	c0.012-0.004,0.024-0.006,0.036-0.008l5.09-0.74c0.078-0.01,0.157,0.012,0.22,0.06c0.062,0.049,0.102,0.121,0.11,0.2l0.86,7.19
	c0.018,0.157-0.093,0.299-0.25,0.32L56.54,11.82z M56,4.59l0.79,6.62l4.52-0.66l-0.77-6.62L56,4.59z"/>
<polygon style="fill:#F9AC9D;" points="64.21,40.9 62.49,41.15 61.66,34.21 63.38,33.96 "/>
<path style="fill:#C84A27;" d="M60.11,41.91c-0.146,0.001-0.27-0.106-0.29-0.25l-0.86-7.19c-0.018-0.157,0.093-0.299,0.25-0.32
	l5.09-0.74c0.078-0.01,0.157,0.012,0.22,0.06c0.062,0.049,0.102,0.121,0.11,0.2l0.86,7.19c0.018,0.157-0.093,0.299-0.25,0.32
	l-5.09,0.74L60.11,41.91z M59.54,34.68l0.79,6.62l4.52-0.66l-0.76-6.63L59.54,34.68z"/>
</svg>
