<?xml version="1.0" encoding="iso-8859-1"?>
<!-- Generator: Adobe Illustrator 23.0.0, SVG Export Plug-In . SVG Version: 6.00 Build 0)  -->
<svg version="1.1" id="Layer_1" xmlns="http://www.w3.org/2000/svg" xmlns:xlink="http://www.w3.org/1999/xlink" x="0px" y="0px"
	 viewBox="0 0 273.32 173.73" style="enable-background:new 0 0 273.32 173.73;" xml:space="preserve">
<title>home-illustration-benefits-integrated</title>
<rect x="116.39" y="108.45" style="fill:#F56F40;" width="36.96" height="24.99"/>
<path style="fill:#D65129;" d="M153.35,133.86h-37c-0.249,0-0.45-0.201-0.45-0.45v-25c0-0.249,0.201-0.45,0.45-0.45h37
	c0.249,0,0.45,0.201,0.45,0.45v25C153.8,133.659,153.599,133.86,153.35,133.86z M116.84,132.96h36.05v-24.1h-36.05L116.84,132.96z"
	/>
<line style="fill:none;" x1="134.87" y1="108.5" x2="134.87" y2="133.4"/>
<path style="fill:#D65129;" d="M134.87,133.86c-0.249,0-0.45-0.201-0.45-0.45v-24.9c-0.001-0.249,0.2-0.451,0.448-0.452
	c0.249-0.001,0.451,0.2,0.452,0.448c0,0.001,0,0.002,0,0.003v24.9C135.32,133.659,135.119,133.86,134.87,133.86z"/>
<path style="fill:#F56F40;" d="M111.74,25.45c1.255-1.154,3.021-1.571,4.66-1.1c3.14,0.63,3.62,4.26,8.66,3.47v-6.96
	c-5,0.79-5.52-2.84-8.66-3.47c-1.639-0.471-3.405-0.054-4.66,1.1"/>
<path style="fill:#D65129;" d="M123.71,28.38c-1.784-0.007-3.49-0.727-4.74-2c-0.735-0.749-1.657-1.287-2.67-1.56
	c-1.488-0.423-3.089-0.044-4.23,1c-0.166,0.188-0.452,0.206-0.64,0.04s-0.206-0.452-0.04-0.64c0.07-0.08,1.72-1.93,5.09-1.25
	c1.165,0.296,2.23,0.9,3.08,1.75c1.278,1.371,3.144,2.032,5,1.77v-6.16c-2.088,0.268-4.179-0.475-5.63-2
	c-0.735-0.749-1.657-1.288-2.67-1.56c-1.488-0.423-3.089-0.044-4.23,1c-0.166,0.188-0.452,0.206-0.64,0.04
	c-0.188-0.166-0.206-0.452-0.04-0.64l0,0c0.07-0.08,1.72-1.93,5.09-1.25c1.166,0.295,2.23,0.9,3.08,1.75
	c1.382,1.487,3.445,2.137,5.43,1.71c0.129-0.019,0.26,0.017,0.36,0.1c0.1,0.085,0.159,0.209,0.16,0.34v7
	c0.003,0.224-0.159,0.415-0.38,0.45C124.633,28.342,124.172,28.378,123.71,28.38z"/>
<path style="fill:#3F555A;" d="M190.89,133.86H78.86V70.52h112L190.89,133.86z M79.76,132.96h110.22V71.42H79.76V132.96z"/>
<path style="fill:#3F555A;" d="M159.83,133.86h-49.92v-31h49.92V133.86z M110.83,132.96h48.12v-29.19h-48.14L110.83,132.96z"/>
<path style="fill:#3F555A;" d="M138.67,122.34c-0.768,0-1.39-0.622-1.39-1.39s0.622-1.39,1.39-1.39s1.39,0.622,1.39,1.39l0,0
	C140.055,121.715,139.435,122.335,138.67,122.34z M138.67,120.46c-0.271,0-0.49,0.219-0.49,0.49s0.219,0.49,0.49,0.49
	c0.271,0,0.49-0.219,0.49-0.49c0.006-0.271-0.209-0.494-0.48-0.5c-0.003,0-0.007,0-0.01,0V120.46z"/>
<path style="fill:#3F555A;" d="M131.08,122.34c-0.768,0-1.39-0.622-1.39-1.39s0.622-1.39,1.39-1.39s1.39,0.622,1.39,1.39l0,0
	C132.47,121.718,131.848,122.34,131.08,122.34z M131.08,120.46c-0.271,0-0.49,0.219-0.49,0.49s0.219,0.49,0.49,0.49
	c0.271,0,0.49-0.219,0.49-0.49c0.006-0.271-0.209-0.494-0.48-0.5c-0.003,0-0.007,0-0.01,0V120.46z"/>
<path style="fill:#3F555A;" d="M171.64,71.42H98.1v-33h27.28v18.2h46.27L171.64,71.42z M99,70.52h71.74v-13h-46.27V39.34H99V70.52z"
	/>
<path style="fill:#D0E4F1;" d="M104.68,51.75c0.007-4.1,2.607-7.746,6.48-9.09c-5.329,0.023-9.632,4.361-9.609,9.691
	c0.022,5.329,4.361,9.632,9.691,9.609c1.09-0.005,2.172-0.194,3.199-0.56h-0.07c-5.329,0.022-9.668-4.28-9.69-9.61
	C104.68,51.777,104.68,51.763,104.68,51.75z"/>
<path style="fill:#3F555A;" d="M120.97,39.34h-18.46v-3h18.46V39.34z M103.42,38.44h16.64v-1.16h-16.65L103.42,38.44z"/>
<rect x="78.86" y="65.74" style="fill:#3F555A;" width="0.9" height="5.23"/>
<rect x="84.41" y="65.74" style="fill:#3F555A;" width="0.9" height="5.23"/>
<rect x="89.97" y="65.74" style="fill:#3F555A;" width="0.9" height="5.23"/>
<rect x="95.53" y="65.74" style="fill:#3F555A;" width="0.9" height="5.23"/>
<rect x="101.08" y="65.74" style="fill:#3F555A;" width="0.9" height="5.23"/>
<rect x="106.64" y="65.74" style="fill:#3F555A;" width="0.9" height="5.23"/>
<rect x="112.2" y="65.74" style="fill:#3F555A;" width="0.9" height="5.23"/>
<rect x="117.75" y="65.74" style="fill:#3F555A;" width="0.9" height="5.23"/>
<rect x="123.31" y="65.74" style="fill:#3F555A;" width="0.9" height="5.23"/>
<rect x="128.86" y="65.74" style="fill:#3F555A;" width="0.9" height="5.23"/>
<rect x="134.42" y="65.74" style="fill:#3F555A;" width="0.9" height="5.23"/>
<rect x="139.98" y="65.74" style="fill:#3F555A;" width="0.9" height="5.23"/>
<rect x="145.53" y="65.74" style="fill:#3F555A;" width="0.9" height="5.23"/>
<rect x="151.09" y="65.74" style="fill:#3F555A;" width="0.9" height="5.23"/>
<rect x="156.65" y="65.74" style="fill:#3F555A;" width="0.9" height="5.23"/>
<rect x="162.2" y="65.74" style="fill:#3F555A;" width="0.9" height="5.23"/>
<rect x="167.76" y="65.74" style="fill:#3F555A;" width="0.9" height="5.23"/>
<rect x="173.32" y="65.74" style="fill:#3F555A;" width="0.9" height="5.23"/>
<rect x="178.87" y="65.74" style="fill:#3F555A;" width="0.9" height="5.23"/>
<rect x="184.43" y="65.74" style="fill:#3F555A;" width="0.9" height="5.23"/>
<rect x="189.99" y="65.74" style="fill:#3F555A;" width="0.9" height="5.23"/>
<rect x="79.31" y="65.29" style="fill:#3F555A;" width="111.13" height="0.9"/>
<rect x="111.29" y="15.3" style="fill:#3F555A;" width="0.9" height="21.53"/>
<path style="fill:#19BC9C;" d="M184.88,137.14c0,0-9.11,1.33-8.73-5.79c0.24-4.57,6.8-4.1,6.8-4.1s1-8.45,10-5.62
	c5.2,1.63,5,8.94,5,8.94s4.33,1.29,2.11,4.79C198.79,137.41,192.65,139.49,184.88,137.14z"/>
<path style="fill:#19BC9C;" d="M83.85,126.86c0,0,14.13-2,11.83,7.57c-0.94,3.9-7.64,0.9-7.64,0.9s-10.34,4.81-15.47-2.24
	c-3.17-4.36,2.5-5.91,2.5-5.91s-0.54-3.78,1-5.31C79.75,118.17,78.33,126.12,83.85,126.86z"/>
<path style="fill:#A1C2D8;" d="M200.95,59.59h-14.79c-0.249,0.002-0.452-0.198-0.454-0.446c-0.001-0.121,0.047-0.238,0.134-0.324
	l14.67-14.67V5.53c0.006-3.052,2.478-5.524,5.53-5.53h46.12c3.052,0.006,5.525,2.478,5.53,5.53v48.51
	c-0.005,3.052-2.478,5.524-5.53,5.53L200.95,59.59z M187.23,58.69h65c2.557,0,4.63-2.073,4.63-4.63l0,0V5.53
	c0.022-2.557-2.032-4.648-4.589-4.67c-0.037,0-0.074,0-0.111,0h-46.14c-2.557,0-4.63,2.073-4.63,4.63c0,0,0,0,0,0v38.85
	c0.001,0.12-0.046,0.235-0.13,0.32L187.23,58.69z"/>
<path style="fill:#3F555A;" d="M241.94,14.32h-8.21v-1.84h8.21V14.32z M234.64,13.42h6.4H234.64z"/>
<path style="fill:none;stroke:#3F555A;stroke-miterlimit:10;" d="M235.02,27.54"/>
<path style="fill:#3F555A;" d="M245.42,39.65c-0.67-0.01-1.338-0.067-2-0.17c-1.245-0.21-2.515-0.21-3.76,0
	c-1.184,0.171-2.386,0.171-3.57,0c-0.766-0.109-1.537-0.173-2.31-0.19c-0.63,0.009-1.258,0.063-1.88,0.16
	c-0.662,0.103-1.33,0.16-2,0.17c-0.73,0-2.3-0.08-3.81-0.16h-0.44v-0.44c0.11-5.379,3.729-10.05,8.91-11.5V13.41h6.54v14.12
	c5.139,1.443,8.746,6.055,8.91,11.39v0.43h-0.43l-1.35,0.1C247.22,39.56,246.16,39.65,245.42,39.65z M241.54,38.42
	c0.67,0.01,1.338,0.067,2,0.17c0.622,0.097,1.25,0.151,1.88,0.16c0.71,0,1.75-0.08,2.75-0.16l0.91-0.07
	c-0.335-4.892-3.783-9.011-8.54-10.2l-0.34-0.08V14.32h-4.73v13.91l-0.34,0.08c-4.794,1.19-8.258,5.359-8.55,10.29
	c1.35,0.07,2.68,0.13,3.32,0.13c0.63-0.009,1.258-0.063,1.88-0.16c0.662-0.103,1.33-0.16,2-0.17c0.81,0.015,1.618,0.078,2.42,0.19
	c1.107,0.169,2.233,0.169,3.34,0c0.659-0.103,1.324-0.159,1.99-0.17H241.54z"/>
<path style="fill:#3290C1;" d="M245.42,39.19c-1.46,0-2.43-0.32-3.88-0.32s-2.43,0.32-3.88,0.32c-0.93,0-2.42-0.32-3.88-0.32
	s-2.43,0.32-3.88,0.32c-0.72,0-2.24-0.08-3.79-0.16c0,0.08,0,0.16,0,0.24c-0.004,6.484,5.25,11.743,11.734,11.746
	c6.484,0.004,11.743-5.25,11.746-11.734c0-0.004,0-0.009,0-0.013c0-0.12,0-0.23,0-0.34C248.16,39.03,246.47,39.19,245.42,39.19z"/>
<path style="fill:#1E6B96;" d="M237.83,51.47c-6.73-0.006-12.184-5.46-12.19-12.19c0-0.05,0-0.11,0-0.16
	c0.003-0.138,0.056-0.269,0.15-0.37c0.09-0.08,0.23-0.19,0.33-0.16c1.5,0.08,3.05,0.16,3.76,0.16c0.63-0.009,1.258-0.063,1.88-0.16
	c0.662-0.103,1.33-0.16,2-0.17c0.81,0.015,1.618,0.078,2.42,0.19c1.107,0.169,2.233,0.169,3.34,0c1.324-0.221,2.676-0.221,4,0
	c0.622,0.097,1.25,0.151,1.88,0.16c0.71,0,1.75-0.08,2.75-0.16l1.36-0.1c0.122-0.01,0.243,0.034,0.33,0.12
	c0.092,0.082,0.146,0.197,0.15,0.32v0.13c0,0.08,0,0.15,0,0.23C249.968,46.017,244.537,51.448,237.83,51.47z M226.55,39.47
	c0.211,6.232,5.434,11.112,11.666,10.901c5.974-0.202,10.755-5.026,10.904-11.001l-0.88,0.07c-1,0.08-2.08,0.16-2.82,0.16
	c-0.67-0.01-1.338-0.067-2-0.17c-1.245-0.21-2.515-0.21-3.76,0c-1.184,0.171-2.386,0.171-3.57,0c-0.766-0.109-1.537-0.173-2.31-0.19
	c-0.63,0.009-1.258,0.063-1.88,0.16c-0.662,0.103-1.33,0.16-2,0.17c-0.67,0.08-1.99,0.01-3.35-0.06V39.47z"/>
<circle style="fill:#FFFFFF;" cx="244.31" cy="42.63" r="1.16"/>
<path style="fill:#3F555A;" d="M244.31,44.24c-0.895,0-1.62-0.725-1.62-1.62c0-0.895,0.725-1.62,1.62-1.62
	c0.895,0,1.62,0.725,1.62,1.62c0,0,0,0,0,0C245.93,43.515,245.205,44.24,244.31,44.24z M244.31,41.91c-0.392,0-0.71,0.318-0.71,0.71
	s0.318,0.71,0.71,0.71s0.71-0.318,0.71-0.71c0.028-0.391-0.267-0.731-0.658-0.758c-0.017-0.001-0.035-0.002-0.052-0.002V41.91z"/>
<circle style="fill:#FFFFFF;" cx="239.24" cy="47.26" r="1.4"/>
<path style="fill:#3F555A;" d="M239.23,49.11c-1.022,0-1.85-0.828-1.85-1.85s0.828-1.85,1.85-1.85s1.85,0.828,1.85,1.85
	C241.075,48.279,240.249,49.105,239.23,49.11z M239.23,46.3c-0.552,0-1,0.448-1,1s0.448,1,1,1s1-0.448,1-1S239.782,46.3,239.23,46.3
	z"/>
<path style="fill:#3F555A;" d="M226.34,10.21h-10.11V8.12h10.11L226.34,10.21z M217.13,9.31h8.31V9.03h-8.28L217.13,9.31z"/>
<polyline style="fill:#FFFFFF;" points="217.74,19.56 217.74,9.76 224.84,9.76 224.84,19.56 233.19,47.31 232.08,51.02 
	213.67,51.02 210.5,51.02 209.38,47.31 213.56,33.42 217.74,19.56 "/>
<path style="fill:#3F555A;" d="M232.41,51.47h-22.25l-1.25-4.16l8.38-27.81V9.3h8v10.19l8.38,27.81L232.41,51.47z M210.83,50.57
	h20.91l1-3.26l-8.35-27.75v-9.35h-6.23v9.48l-8.32,27.62L210.83,50.57z"/>
<rect x="220.4" y="43.98" style="fill:#3F555A;" width="1.78" height="0.9"/>
<rect x="220.4" y="41.11" style="fill:#3F555A;" width="1.78" height="0.9"/>
<rect x="220.4" y="38.23" style="fill:#3F555A;" width="1.78" height="0.9"/>
<rect x="220.4" y="35.36" style="fill:#3F555A;" width="1.78" height="0.9"/>
<rect x="220.4" y="32.48" style="fill:#3F555A;" width="1.78" height="0.9"/>
<rect x="220.4" y="29.61" style="fill:#3F555A;" width="1.78" height="0.9"/>
<rect x="220.4" y="26.74" style="fill:#3F555A;" width="1.78" height="0.9"/>
<polygon style="fill:#3F555A;" points="222.18,47.76 219.95,47.76 219.95,23.86 222.18,23.86 222.18,24.76 220.85,24.76 
	220.85,46.86 222.18,46.86 "/>
<path style="fill:#A1C2D8;" d="M267.37,173.13h-47c-3.314,0-6-2.686-6-6v-42.7l-15.82-15.81c-0.177-0.175-0.178-0.46-0.004-0.636
	c0.085-0.086,0.202-0.135,0.324-0.134h68.4c3.314,0,6,2.686,6,6v53.36C273.227,170.454,270.614,173.076,267.37,173.13z
	 M200.06,108.8l15.18,15.17c0.084,0.085,0.131,0.2,0.13,0.32v42.89c0.005,2.767,2.233,5.017,5,5.05h47c2.748-0.032,4.968-2.252,5-5
	v-53.37c-0.005-2.767-2.233-5.017-5-5.05h-52.45h-14.86V108.8z"/>
<path style="fill:#A1C2D8;" d="M44.82,173.72H5.1c-2.822,0-5.11-2.288-5.11-5.11l0,0v-45.12c0-2.822,2.288-5.11,5.11-5.11l0,0l0,0
	h57.86c0.249-0.002,0.452,0.198,0.454,0.446c0.001,0.122-0.047,0.238-0.134,0.324l-13.36,13.38v36.09
	C49.915,171.434,47.634,173.714,44.82,173.72z M5.1,119.28c-2.317,0.005-4.194,1.883-4.2,4.2v45.13c0.005,2.317,1.883,4.195,4.2,4.2
	h39.72c2.317-0.005,4.194-1.883,4.2-4.2v-36.27c-0.001-0.12,0.046-0.235,0.13-0.32l12.72-12.71L5.1,119.28z"/>
<path style="fill:#3290C1;" d="M259.28,136.01l0.59-3.06l-2.19-2.49l-2.44-0.57l0.76,3.06l-3,1.25l-2.35-2.64l2.1-2l-1.35-2.44
	l8.6,0.09c-7.939-8.122-20.713-8.983-29.67-2l2.49,2.22l-1.66,2.43l2.69,1.08l1.09-1.43l2,0.35l1.35,2.34l-2.78,0.72l-1.35,1.24
	l0.23,4.71l-1.49-0.34l-1.74-2.44l-1.93-0.08l1.26,3.45l2.61,1.68h1.43l1.68,1.77l2.52,0.75v5.55l-1.09,0.76l-2.78,4.71l-0.08,2.78
	l-2.1-2l-0.34-5.56l-2.18-2.62l-0.92-5.72l-2.84-2.7l-2.77-5.11c-5.003,11.272,0.079,24.466,11.352,29.469
	c11.272,5.003,24.466-0.079,29.469-11.352c2.22-5.002,2.526-10.645,0.86-15.857H259.28z M258.61,147.01v3.36l-6.22,4.54l-1.66-2.92
	l0.48-2.46l-1.05-2.84l-1.35-1.47l-4.29,0.06l-1.93-3.33l0.67-2.31l3.36-3.62h3.54l0.5,2.19h5.47l2.52,4.72h2.1L258.61,147.01z"/>
<path style="fill:#19BC9C;" d="M229.26,141.56l0.92,5.72l2.19,2.61l0.34,5.56l2.1,2l0.08-2.78l2.78-4.71l1.09-0.76v-5.54l-2.52-0.75
	l-1.68-1.77h-1.4l-2.61-1.68l-1.26-3.45l1.93,0.08l1.68,2.44l1.49,0.34l-0.23-4.71l1.43-1.21l2.78-0.72l-1.38-2.37l-2-0.35
	l-1.09,1.43l-2.74-1.08l1.6-2.46l-2.49-2.22c-2.894,2.26-5.188,5.196-6.68,8.55l2.77,5.11L229.26,141.56z"/>
<path style="fill:#19BC9C;" d="M252.72,129.53l-2.1,2l2.35,2.64l3-1.25l-0.76-3.06l2.44,0.57l2.19,2.49l-0.59,3.06h6
	c-1.063-3.319-2.888-6.343-5.33-8.83l-8.6-0.09L252.72,129.53z"/>
<polygon style="fill:#19BC9C;" points="258.61,142.91 256.09,138.2 250.62,138.2 250.12,136.01 246.58,136.01 243.22,139.63 
	242.55,141.94 244.48,145.28 248.77,145.22 250.12,146.69 251.21,149.55 250.73,152.02 252.39,154.94 258.61,150.4 258.61,147.03 
	260.71,142.91 "/>
<path style="fill:#A1C2D8;" d="M67.91,105.12H14.98c-2.489-0.006-4.505-2.021-4.51-4.51V59.2c0.005-2.489,2.021-4.505,4.51-4.51
	h37.1c2.489,0.006,4.505,2.021,4.51,4.51v33.52l11.64,11.64c0.177,0.175,0.178,0.46,0.004,0.636
	c-0.085,0.086-0.202,0.135-0.324,0.134V105.12z M56.16,104.22h10.66l-11-11c-0.084-0.085-0.131-0.2-0.13-0.32V59.2
	c0-1.994-1.616-3.61-3.61-3.61l0,0h-37.1c-1.994,0-3.61,1.616-3.61,3.61l0,0v41.41c0,1.994,1.616,3.61,3.61,3.61l0,0H56.16z"/>
<path style="fill:#F56F40;" d="M20.6,93.1h-0.14l-0.18-0.05l-0.16-0.08c-0.041-0.025-0.075-0.059-0.1-0.1l0,0
	c-0.009-0.068-0.033-0.133-0.07-0.19l-0.1-0.11l-0.1-0.08c-0.031-0.023-0.055-0.054-0.07-0.09l0,0c0.001-0.02,0.001-0.04,0-0.06l0,0
	h-0.06l0,0v0.06c-0.013,0.037-0.033,0.071-0.06,0.1l-0.1,0.1l-0.1,0.09c-0.011,0.032-0.011,0.068,0,0.1l0,0h0.06h0.06l0,0l0,0l0,0
	l0,0l0,0h-0.07c0,0,0,0,0,0.06l0,0l0,0c0,0,0,0-0.05,0h-0.2c0,0,0-0.06-0.06-0.06h-0.08c-0.02,0.034-0.052,0.059-0.09,0.07h-0.12
	l-0.11,0.05c-0.014,0.028-0.014,0.062,0,0.09h-0.42l0,0h-0.12c-0.121,0.001-0.241-0.026-0.35-0.08
	c-0.105-0.052-0.168-0.163-0.16-0.28c0,0,0-0.09,0-0.13c-0.009-0.043-0.009-0.087,0-0.13h-0.06h-0.11h-0.06
	c0.004,0.016,0.004,0.034,0,0.05c0.001,0.017,0.001,0.033,0,0.05l0,0c-0.041,0.021-0.089,0.021-0.13,0
	c-0.029-0.039-0.049-0.083-0.06-0.13c-0.006-0.053-0.006-0.107,0-0.16c0.006-0.046,0.006-0.094,0-0.14l0,0v-0.07v-0.07l0,0v-0.08
	v-0.12v-0.12c-0.002-0.027-0.002-0.053,0-0.08l0,0l0,0l0,0c0.006-0.03,0.006-0.06,0-0.09c-0.006-0.026-0.006-0.054,0-0.08
	c-0.006-0.03-0.006-0.06,0-0.09c0.009-0.031,0.038-0.051,0.07-0.05l0,0l0,0l0,0h0.07c-0.014-0.029-0.04-0.05-0.07-0.06h-0.09h-0.07
	c-0.013-0.022-0.013-0.048,0-0.07l0,0h0.05h0.05c0,0,0,0,0-0.06h0.23v-0.15l-0.19-0.08l0,0c-0.021-0.068-0.021-0.142,0-0.21
	c0.027-0.04,0.065-0.071,0.11-0.09h0.12c0.035-0.004,0.066-0.027,0.08-0.06l0,0l0,0l0,0c-0.016-0.031-0.016-0.069,0-0.1h0.1h0.11
	h0.09c0.004-0.02,0.004-0.04,0-0.06l0,0l0.06-0.06l0.06-0.06v-0.28l-0.07-0.11l0,0l0,0l0,0l0,0l0,0l0,0h0.29l0,0l0,0
	c0.051,0.022,0.109,0.022,0.16,0l0.1-0.11c0.031-0.042,0.068-0.079,0.11-0.11c0.058-0.021,0.122-0.021,0.18,0l0.1,0.06l0.18,0.13
	l0.19,0.15l0.13,0.09c0.029,0.017,0.053,0.041,0.07,0.07c0.021,0.038,0.037,0.078,0.05,0.12c0.003,0.043,0.003,0.087,0,0.13
	c0.006,0.03,0.006,0.06,0,0.09c0.023-0.008,0.047-0.008,0.07,0v0.07v0.07c0.022,0.011,0.048,0.011,0.07,0
	c-0.006,0.023-0.006,0.047,0,0.07v0.1v0.1c0.004,0.023,0.004,0.047,0,0.07v0.06l0,0l0,0c-0.043,0.01-0.087,0.01-0.13,0
	c-0.043-0.011-0.087-0.011-0.13,0V91c0,0.06,0,0.09,0,0.09h0.78l0,0v0.07v0.07c-0.006,0.016-0.006,0.034,0,0.05l0.07,0.26
	c0,0,0,0.06,0.07,0.06s0.05,0,0.06,0.06c0.004,0.02,0.004,0.04,0,0.06c0,0,0,0.05,0,0.07c-0.006,0.02-0.006,0.04,0,0.06h0.06h0.06
	c0.011,0.019,0.011,0.041,0,0.06v0.17l0,0h0.07h0.08l0,0l0,0l0,0c0.002,0.043,0.002,0.087,0,0.13c-0.006,0.03-0.006,0.06,0,0.09
	h0.08l0.17,0.07l0.28,0.49l0.13,0.09c0,0-0.07,0-0.08,0.05c-0.006,0.023-0.006,0.047,0,0.07v0.08c0.013,0.025,0.013,0.055,0,0.08
	c-0.033,0.031-0.075,0.052-0.12,0.06c-0.093,0.011-0.187,0.011-0.28,0c-0.022,0.009-0.048,0.009-0.07,0v-0.05v-0.06
	C20.713,93.128,20.658,93.097,20.6,93.1z M17.74,91.98c0.033,0.041,0.056,0.089,0.07,0.14c0.012,0.048,0.04,0.091,0.08,0.12h0.12
	h0.08h0.28h0.05l0,0l0.09-0.06h0.09h0.09c0.071-0.037,0.128-0.097,0.16-0.17l0.1-0.22c0.013-0.027,0.04-0.046,0.07-0.05h0.08l0,0
	l0,0l0,0c0,0,0,0,0-0.06l0,0c0.05-0.157,0.087-0.317,0.11-0.48c0.012-0.156,0.012-0.314,0-0.47c0.011-0.11-0.055-0.214-0.16-0.25
	h-0.16h-0.18H18.6l-0.18,0.11l-0.17,0.11l-0.08,0.06c0.002,0.023,0.002,0.047,0,0.07v0.07l0,0l0,0l-0.14,0.14l0,0l0,0
	c0,0,0,0,0,0.05s0,0,0,0.07s0,0.07,0,0.09c0.002,0.023,0.002,0.047,0,0.07v0.08v0.12c-0.015,0.058-0.046,0.11-0.09,0.15l-0.12,0.07
	h-0.11l0,0c-0.014,0.028-0.014,0.062,0,0.09h0.09h0.1c0.031,0.004,0.056,0.029,0.06,0.06l-0.07,0.06L17.74,91.98z M18.19,92.45
	L18.19,92.45L18.19,92.45L18.19,92.45c0,0-0.03,0.01-0.03,0H18.19z M18.26,92.38L18.26,92.38L18.26,92.38L18.26,92.38
	c0,0,0.03,0,0.01,0H18.26z M18.26,90.33L18.26,90.33L18.26,90.33L18.26,90.33z M18.56,92.38h0.05c0.011-0.022,0.011-0.048,0-0.07
	h-0.09L18.56,92.38z M18.93,89.57L18.93,89.57L18.93,89.57L18.93,89.57z M18.93,92.27L18.93,92.27L18.93,92.27L18.93,92.27z
	 M18.93,92.38L18.93,92.38L18.93,92.38L18.93,92.38c0,0,0.06,0,0.04,0H18.93z M19,91.82L19,91.82h0.16v-0.14h-0.07
	c-0.05-0.014-0.101,0.015-0.115,0.065c-0.014,0.05,0.015,0.101,0.065,0.115L19,91.82z M19,89.6L19,89.6L19,89.6L19,89.6
	c0,0,0.1,0,0.08,0H19z M19.42,92.16h0.07v-0.08h-0.07V92.16z"/>
<path style="fill:#F56F40;" d="M38.84,70.52L38.84,70.52L38.84,70.52c-0.075-0.045-0.132-0.116-0.16-0.2
	c-0.037-0.082-0.061-0.17-0.07-0.26c-0.017-0.062-0.017-0.128,0-0.19c0.014-0.063,0.014-0.127,0-0.19
	c0.004-0.053,0.004-0.107,0-0.16c-0.006-0.053-0.006-0.107,0-0.16c-0.018-0.086-0.018-0.174,0-0.26c0.016-0.086,0.016-0.174,0-0.26
	c0,0,0-0.06,0-0.07s0,0,0-0.08s0-0.1,0-0.15s0-0.11,0-0.17v-0.16c0-0.05,0-0.09,0-0.13l0,0V68v-0.08v-0.05l0,0
	c-0.003-0.023-0.003-0.047,0-0.07l0.05-0.14c0.02-0.059,0.037-0.119,0.05-0.18c0.01-0.06,0.01-0.12,0-0.18
	c0-0.24-0.023-0.473-0.07-0.7c-0.047-0.227-0.07-0.463-0.07-0.71c0-0.37,0-0.09,0-0.15v-0.2c0-0.07,0-0.12,0-0.17s0-0.08,0-0.09
	v-0.25c0.06,0,0.1,0,0.11,0c0.007-0.03,0.007-0.06,0-0.09l0,0l0,0c0.002-0.023,0.002-0.047,0-0.07c-0.002-0.033-0.002-0.067,0-0.1
	v-0.1c-0.002-0.02-0.002-0.04,0-0.06l0,0l0,0c-0.033-0.095-0.059-0.192-0.08-0.29c-0.017-0.072-0.017-0.148,0-0.22
	c0.016-0.055,0.063-0.094,0.12-0.1c0.103-0.008,0.206,0.009,0.3,0.05c0.008-0.023,0.008-0.047,0-0.07
	c0.002-0.027,0.002-0.053,0-0.08c-0.004-0.023-0.004-0.047,0-0.07l0,0h0.06l0.07,0.06l0.06,0.06l0,0
	c0.04,0.077,0.073,0.157,0.1,0.24c0.05,0.148,0.073,0.304,0.07,0.46c0,0.087,0,0.18,0,0.28l0.05,0.1v0.09v0.06
	c0.005,0.016,0.005,0.034,0,0.05c0,0,0,0-0.06,0v0.38l-0.1-0.07l0,0c-0.002,0.017-0.002,0.033,0,0.05l0,0l0,0l0,0
	c0.032,0.053,0.055,0.11,0.07,0.17v0.18c0.015,0.05,0.043,0.094,0.08,0.13c0.058,0.024,0.122,0.024,0.18,0h0.23l0,0
	c-0.003,0.04-0.003,0.08,0,0.12l0,0c0,0,0,0,0.06-0.06v-0.09c0.015,0.038,0.049,0.065,0.09,0.07h0.13
	c0.063-0.004,0.122-0.029,0.17-0.07c0.054-0.044,0.121-0.069,0.19-0.07l0,0h0.06h0.06c0.06,0.04,0.09,0.077,0.09,0.11
	c-0.006,0.05-0.006,0.1,0,0.15c0,0,0,0,0.05,0c0.022-0.013,0.048-0.013,0.07,0l0,0l0.08,0.1l0.09,0.11
	c0.024,0.032,0.055,0.06,0.09,0.08h0.05c0.003,0.023,0.003,0.047,0,0.07c0.012,0.066,0.012,0.134,0,0.2
	c-0.01,0.066-0.01,0.134,0,0.2c-0.008,0.026-0.008,0.054,0,0.08h0.06v-0.2h0.09h0.08c0,0.09,0,0.17,0,0.22v0.22v0.07
	c-0.004,0.023-0.004,0.047,0,0.07c-0.11,0-0.17,0.07-0.16,0.16s0.07,0.14,0.18,0.13c-0.017,0.052-0.065,0.088-0.12,0.09h-0.05h-0.05
	h-0.06H41l0,0c0.008,0.095,0.029,0.189,0.06,0.28c0.031,0.087,0.071,0.171,0.12,0.25c0.008-0.024,0.026-0.042,0.05-0.05h0.07v0.11
	c-0.053,0.011-0.107,0.011-0.16,0H41c0.011,0.066,0.011,0.134,0,0.2v0.14v0.13c-0.01,0.056-0.01,0.114,0,0.17l0,0l0,0l0,0l0,0l0,0
	c-0.008,0.023-0.008,0.047,0,0.07l0.06,0.05h-0.09c-0.033,0.009-0.067,0.009-0.1,0l-0.09-0.07l-0.09-0.07
	c-0.036-0.01-0.074-0.01-0.11,0c0,0.05,0,0.1,0,0.13s0,0.07,0,0.1v0.11c0,0,0,0.1,0,0.17c0.007,0.026,0.007,0.054,0,0.08l0,0h-0.05
	h-0.06c-0.006,0.03-0.006,0.06,0,0.09v0.12l-0.05,0.11c-0.022,0.009-0.048,0.009-0.07,0v-0.09h-0.12v0.07c0,0,0,0.06,0,0.07h-0.05
	h-0.05l0,0l0,0h-0.36l-0.07,0.17l0,0h-0.06l0,0c0,0,0,0,0-0.11l-0.16,0.08l-0.16,0.06c0.006,0.043,0.006,0.087,0,0.13
	c-0.011,0.047-0.045,0.084-0.09,0.1c-0.053,0.012-0.107,0.012-0.16,0c-0.019,0.081-0.1,0.131-0.18,0.112
	C38.872,70.538,38.855,70.53,38.84,70.52z M38.84,70.24L38.84,70.24L38.84,70.24L38.84,70.24C38.84,70.24,38.86,70.23,38.84,70.24z
	 M38.99,70.16c0.002,0.042,0.03,0.078,0.07,0.09c0.032,0.011,0.068,0.011,0.1,0l0,0l0,0l0,0l0,0c-0.003-0.02-0.003-0.04,0-0.06
	v-0.05l0,0l-0.07,0.06C39.09,70.2,38.99,70.15,38.99,70.16z M38.99,70.44c0.021,0.015,0.049,0.015,0.07,0v-0.09
	c-0.038,0.013-0.062,0.05-0.06,0.09H38.99z M39.08,64.01L39.08,64.01L39.08,64.01L39.08,64.01z M39.2,70.01
	c-0.006,0.053-0.006,0.107,0,0.16c0,0.06,0.06,0.09,0.11,0.09s0,0,0,0c0.003-0.037,0.003-0.073,0-0.11
	c-0.002-0.037-0.002-0.073,0-0.11c0,0,0-0.06,0-0.07l0,0h0.1h0.1l0,0c-0.006-0.073-0.034-0.143-0.08-0.2
	c-0.052-0.052-0.127-0.075-0.2-0.06c-0.056,0.008-0.108,0.032-0.15,0.07c-0.024,0.091,0.03,0.184,0.121,0.208
	c0.003,0.001,0.006,0.002,0.009,0.002L39.2,70.01z M39.25,64.83L39.25,64.83L39.25,64.83L39.25,64.83c0,0,0.03-0.03,0.01-0.03
	L39.25,64.83z M39.25,66.18L39.25,66.18L39.25,66.18L39.25,66.18c0,0,0.05-0.02,0.05-0.03L39.25,66.18z M39.49,69.42l-0.08,0.07
	c-0.015,0.035-0.015,0.075,0,0.11h0.12h0.08l0,0c0.008-0.03,0.008-0.06,0-0.09v-0.08h0.19c0,0,0,0,0.06-0.07l0.06-0.07l0,0l0,0
	c0.012,0.039,0.012,0.081,0,0.12c0,0,0,0,0,0.08c-0.009,0.019-0.009,0.041,0,0.06h0.07h0.13c0-0.062-0.021-0.122-0.06-0.17
	c-0.018-0.048-0.018-0.102,0-0.15c0,0,0-0.07,0.07-0.12l0.2-0.18l0.26-0.23c0.099-0.085,0.189-0.178,0.27-0.28
	c0.077-0.098,0.141-0.206,0.19-0.32c0.05-0.113,0.07-0.237,0.06-0.36c0.011-0.032,0.011-0.068,0-0.1l0,0h-0.06
	c-0.021-0.012-0.038-0.029-0.05-0.05c0,0,0-0.08,0-0.1l0.07-0.05h0.09c0.013-0.022,0.013-0.048,0-0.07
	c-0.002-0.067-0.036-0.13-0.09-0.17c0.001-0.122-0.037-0.242-0.11-0.34h-0.23h-0.18c-0.008,0.023-0.008,0.047,0,0.07
	c0.008,0.026,0.008,0.054,0,0.08l0,0l0,0l0,0h-0.12h-0.07l-0.05-0.15l-0.09-0.09h-0.15h-0.16l-0.15,0.06
	c-0.038,0.016-0.07,0.044-0.09,0.08c0.005,0.026,0.005,0.054,0,0.08l-0.06,0.12l-0.06,0.12c-0.004,0.026-0.004,0.054,0,0.08
	c0,0,0,0,0,0.08v0.13c0,0,0,0.09,0,0.13s0,0.07,0,0.08s0,0.09,0,0.18s0,0.19,0,0.28s0,0.19,0,0.27s0,0.12,0,0.13l0,0l0,0l0,0l0,0
	l0,0l0,0c-0.03,0.007-0.053,0.03-0.06,0.06c-0.006,0.03-0.006,0.06,0,0.09c0,0,0,0.07,0,0.1c0.004,0.027,0.004,0.053,0,0.08
	c-0.008,0.029-0.008,0.061,0,0.09v0.13c-0.003,0.047-0.003,0.093,0,0.14c0,0,0,0.08,0,0.1s0,0.09,0,0.1L39.49,69.42z M39.33,66.18
	L39.33,66.18L39.33,66.18z M39.33,67.72v-0.06l0,0V67.72z M39.33,64.99c0,0,0,0,0,0.05s0,0,0,0l0,0c0,0,0.11-0.08,0.09-0.08
	L39.33,64.99z M39.39,66.56L39.39,66.56L39.39,66.56L39.39,66.56z M39.69,70L39.69,70L39.69,70L39.69,70z M40.03,69.84h0.13l0,0l0,0
	l0,0H40.03z M40.17,66.25L40.17,66.25L40.17,66.25L40.17,66.25c0,0,0.11-0.03,0.09-0.04L40.17,66.25z M40.22,69.17L40.22,69.17
	L40.22,69.17L40.22,69.17z M40.22,66.8L40.22,66.8L40.22,66.8c0.008-0.026,0.008-0.054,0-0.08c0.005-0.026,0.005-0.054,0-0.08h-0.05
	L40.22,66.8z M40.34,69.61L40.34,69.61L40.34,69.61z M40.51,69.72L40.51,69.72v-0.08l0,0V69.72z M40.78,68.99
	c0.139,0.027,0.281,0.027,0.42,0c0.002-0.027,0.002-0.053,0-0.08v-0.13c0.004-0.04,0.004-0.08,0-0.12v-0.05l0,0l0,0l0,0
	c-0.026,0.029-0.046,0.063-0.06,0.1l-0.08,0.15h-0.1c-0.033,0-0.06,0.026-0.061,0.059c0,0.004,0,0.007,0.001,0.011L40.78,68.99z
	 M40.84,66.64c0.007-0.019,0.007-0.041,0-0.06c0.002-0.023,0.002-0.047,0-0.07h0.12L40.84,66.64z M40.9,66.8L40.9,66.8L40.9,66.8
	v-0.07c0.004-0.023,0.004-0.047,0-0.07l0,0l0,0l0,0h0.26v0.06c-0.003,0.02-0.003,0.04,0,0.06l0,0L40.9,66.8z M41.1,68.51
	c-0.008,0.019-0.008,0.041,0,0.06l0.09,0.09c0.03,0.041,0.079,0.063,0.13,0.06c-0.002-0.057-0.027-0.112-0.07-0.15
	c0.001-0.039-0.009-0.077-0.03-0.11L41.1,68.51z M41.15,66.99c0,0,0,0,0,0.05s0,0,0,0l0,0c0,0,0.15-0.1,0.13-0.1L41.15,66.99z
	 M41.15,66.66L41.15,66.66L41.15,66.66L41.15,66.66z M41.21,67.66c0,0.08,0,0.11,0.11,0.1h0.05c0.011-0.046,0-0.094-0.03-0.13
	L41.21,67.66z"/>
<path style="fill:#F56F40;" d="M48.79,93.24c-0.003-0.023-0.003-0.047,0-0.07c0.002-0.023,0.002-0.047,0-0.07l0,0h-0.13h-0.05
	c0,0,0,0,0-0.05l-0.08,0.07l-0.08,0.07v-0.1c-0.019-0.008-0.041-0.008-0.06,0v0.07v0.07l0,0c0,0,0,0,0-0.07
	c-0.008-0.029-0.008-0.061,0-0.09c0.009-0.033,0.009-0.067,0-0.1c0-0.08,0-0.13-0.1-0.13l0,0l0,0l0,0h-0.18l0,0l0,0l-0.1,0.05v-0.05
	h-0.06h-0.09h-0.09l0,0h-0.06l0,0v0.05v0.06l0,0l0,0v-0.06c0.003-0.02,0.003-0.04,0-0.06l0,0v-0.06l0,0
	c-0.001,0.023-0.001,0.047,0,0.07c0,0,0,0,0-0.07s0-0.08,0-0.09h-0.08l0,0l0,0c-0.005-0.023-0.005-0.047,0-0.07
	c0.004-0.02,0.004-0.04,0-0.06l0,0l0,0l0,0c0,0-0.06,0-0.07,0l0,0l0,0c0,0,0,0-0.06,0v-0.12c-0.009-0.022-0.009-0.048,0-0.07l0,0
	c0.005-0.016,0.005-0.034,0-0.05c-0.001-0.017-0.001-0.033,0-0.05h-0.07l0,0l0,0h-0.06l0,0l0,0l0,0h0.09l0,0h-0.19
	c0.01-0.043,0.01-0.087,0-0.13l-0.05-0.07h-0.05c-0.009-0.019-0.009-0.041,0-0.06l0,0l0,0l0,0l0,0c0.011-0.019,0.011-0.041,0-0.06
	s-0.011-0.041,0-0.06l0,0v-0.07l0,0l0,0l0,0l0,0c-0.011-0.022-0.011-0.048,0-0.07h0.09h0.1c0.027-0.005,0.05-0.024,0.06-0.05
	c-0.015-0.009-0.035-0.009-0.05,0l0,0l0,0l0,0l0,0l0,0l0,0l0,0l0,0l0,0c-0.009-0.033-0.009-0.067,0-0.1l0.07-0.1l0.07-0.09
	c0.005-0.02,0.005-0.04,0-0.06c0.011-0.036,0.011-0.074,0-0.11c-0.01-0.033-0.01-0.067,0-0.1c-0.013-0.036-0.013-0.074,0-0.11
	c0.034-0.04,0.054-0.088,0.06-0.14v-0.12l0,0l0,0l0,0c0.006-0.03,0.006-0.06,0-0.09h0.05v0.15l0,0l0,0h0.09h0.06l0,0l0,0l0,0
	l-0.09-0.07c-0.029-0.03-0.068-0.047-0.11-0.05v-0.1l0,0l0,0l0,0v-0.06l0,0c-0.006,0.033-0.006,0.067,0,0.1
	c0.014,0.034,0.038,0.062,0.07,0.08l0,0v-0.26l-0.1-0.06c0,0-0.07-0.06-0.07-0.07l0,0l0.07-0.13c0.041-0.02,0.089-0.02,0.13,0l0,0
	l0,0l0,0v-0.06l0.06-0.11l0.06-0.1c0,0,0,0,0.05,0v0.43l0,0l0,0l0,0l0,0l0,0l0,0H48l0,0l0,0l0,0h0.1v-0.24h0.1h0.07h0.05l0,0l0,0
	v-0.06V90l0,0l0,0l0,0l0,0c0.009-0.033,0.009-0.067,0-0.1c0.006-0.03,0.006-0.06,0-0.09c-0.009-0.04-0.009-0.08,0-0.12l0,0l0,0l0,0
	l0,0l0,0l0,0l0,0l0.07-0.06l0.09-0.06h0.07l0,0h0.06h0.07h0.1l0,0l0,0l0,0l0,0c0.032,0.011,0.068,0.011,0.1,0l0.07-0.07L49,89.43
	c0.019-0.008,0.041-0.008,0.06,0l0,0l0.06,0.06l0.06,0.06h0.05l0,0l0,0l0,0l0,0l0,0l0,0c0,0,0,0,0-0.05s0,0,0,0h0.07l0,0l0,0
	l0.16,0.17l0,0l0,0v-0.09l0,0h0.07h0.07c0,0,0,0,0,0.09c-0.004,0.03-0.004,0.06,0,0.09l0,0l0,0l0,0v-0.33l0,0l0.09,0.41l0.16-0.14
	l0,0c0,0,0,0-0.05,0c-0.021,0.015-0.049,0.015-0.07,0c0,0,0,0,0.06,0h0.13v0.05v0.07l0,0c0.007,0.023,0.007,0.047,0,0.07l-0.06,0.06
	l0,0l0,0l0,0l0,0h0.06l0,0l0,0l0,0l0,0c-0.002,0.023-0.002,0.047,0,0.07c0.001,0.023,0.001,0.047,0,0.07v0.24l0,0l0,0l0,0l0,0l0,0
	l0,0l0,0l-0.12-0.06l-0.1-0.06l0,0c-0.001,0.02-0.001,0.04,0,0.06h-0.11l-0.1-0.07l0,0l0,0l0,0l0,0l0,0h-0.05l0,0
	c-0.032-0.013-0.068-0.013-0.1,0l-0.08,0.08l0,0l0,0l0,0h-0.1l0,0l0,0l0,0l0,0v0.06l-0.05,0.07c-0.02,0.006-0.04,0.006-0.06,0h-0.19
	h-0.12h-0.12h-0.07H48.5l0,0h-0.2c0.004,0.016,0.004,0.034,0,0.05h-0.14H48.1c0,0,0,0-0.06,0h-0.05h-0.05
	c-0.016,0.007-0.034,0.007-0.05,0s-0.034-0.007-0.05,0c-0.008,0.04-0.008,0.08,0,0.12l0.06,0.1l0,0c0.011,0.022,0.011,0.048,0,0.07
	h-0.06h-0.07h-0.06l0,0l0,0c0,0,0,0,0.06,0c-0.019,0.046-0.042,0.089-0.07,0.13c-0.009,0.043-0.009,0.087,0,0.13v0.17
	c0.003,0.027,0.003,0.053,0,0.08v0.12c0.004,0.05,0.004,0.1,0,0.15l-0.19-0.15l0,0v0.25c-0.005,0.02-0.005,0.04,0,0.06l0,0l0,0l0,0
	h0.08h0.1l0,0l-0.05,0.14h0.05v0.16h0.07c-0.005,0.03-0.005,0.06,0,0.09l0,0l0.07,0.06l0.07,0.09l0,0l0,0h0.15l0,0l0,0h0.12h0.07
	h0.63v0.1c0.036-0.009,0.061-0.043,0.06-0.08c0.003-0.041,0.025-0.078,0.06-0.1c0.078-0.04,0.163-0.067,0.25-0.08l0.25-0.05h0.06
	h0.05h0.09l0,0h0.14h0.09H50c0.005,0.026,0.005,0.054,0,0.08c0.003,0.027,0.003,0.053,0,0.08l0,0l0,0l0,0l0,0l0,0l0,0l0,0
	c-0.012,0.027-0.033,0.048-0.06,0.06h-0.08l0,0l0,0l0,0l0,0l0,0c-0.002-0.036-0.026-0.068-0.06-0.08
	c-0.006,0.016-0.006,0.034,0,0.05v0.06h-0.11h-0.11l0,0l0,0v0.06c-0.003,0.023-0.003,0.047,0,0.07l0,0h-0.06h-0.06
	c-0.003,0.017-0.003,0.033,0,0.05c0,0,0,0.05,0,0.06c-0.012,0.03-0.038,0.053-0.07,0.06c0,0-0.05,0-0.05,0.1l0,0
	c0.002-0.027,0.002-0.053,0-0.08v-0.07h-0.06l0,0l0,0c-0.003,0.02-0.003,0.04,0,0.06v0.06l0,0h-0.06h-0.06h0h-0.07h-0.07l0,0h-0.09
	L48.79,93.24z M46.49,91.66L46.49,91.66L46.49,91.66L46.49,91.66C46.49,91.66,46.51,91.66,46.49,91.66z M46.49,91.4L46.49,91.4
	L46.49,91.4L46.49,91.4z M46.65,91.67c0.015,0.009,0.035,0.009,0.05,0h-0.04H46.65z M46.81,91.74c0,0,0,0-0.05,0l0,0
	c0.019,0.008,0.041,0.008,0.06,0H46.81z M46.81,90.58c-0.004,0.027-0.004,0.053,0,0.08c0.018,0.013,0.042,0.013,0.06,0l0,0l0,0
	c0.015-0.021,0.015-0.049,0-0.07L46.81,90.58z M46.81,90.86L46.81,90.86v-0.05l0,0V90.86z M46.89,91.97L46.89,91.97L46.89,91.97
	c0,0,0.04,0.01,0.04,0L46.89,91.97z M47,91.45c-0.026-0.01-0.054-0.01-0.08,0c-0.008,0.026-0.008,0.054,0,0.08h0.1
	c0,0,0.07,0,0.07-0.07l0,0L47,91.45z M46.92,91.18L46.92,91.18L46.92,91.18L46.92,91.18z M47,92.33L47,92.33L47,92.33L47,92.33
	c0,0,0.05,0,0.04,0L47,92.33z M47.05,91.09L47.05,91.09L47.05,91.09L47.05,91.09c0,0,0.11,0.01,0.05,0.01L47.05,91.09z M47.05,91.24
	L47.05,91.24L47.05,91.24L47.05,91.24z M47.11,90.01L47.11,90.01L47.11,90.01z M47.17,90.76L47.17,90.76L47.17,90.76L47.17,90.76
	L47.17,90.76c0,0,0,0,0-0.07s0-0.06,0-0.07l0,0l0,0l0,0V90.76z M47.17,90.56L47.17,90.56L47.17,90.56L47.17,90.56z M47.17,91.04
	L47.17,91.04L47.17,91.04L47.17,91.04v0.05c-0.006,0.02-0.006,0.04,0,0.06l0,0l0,0l0,0l0,0c0.019,0.009,0.041,0.009,0.06,0
	c0.005-0.023,0.005-0.047,0-0.07c0.007-0.056,0.007-0.114,0-0.17c-0.005-0.061-0.059-0.105-0.119-0.1c0,0-0.001,0-0.001,0h-0.1
	c0,0,0.22,0.2,0.22,0.24L47.17,91.04z M47.23,92.58L47.23,92.58L47.23,92.58L47.23,92.58L47.23,92.58z M47.34,90.33L47.34,90.33
	h0.07l0,0l0,0H47.34z M47.41,90.82L47.41,90.82L47.41,90.82L47.41,90.82L47.41,90.82z M47.92,89.99c0,0,0.06,0,0.06-0.07h-0.06
	V89.99z M48.05,89.71L48.05,89.71L48.05,89.71L48.05,89.71z M48.21,89.77L48.21,89.77L48.21,89.77c0,0,0,0.08,0,0.17s0,0.14,0,0.17
	l0,0l0.06-0.13c0.01-0.05,0.01-0.1,0-0.15c0.001-0.023,0.001-0.047,0-0.07c0,0,0.05,0.04,0.02,0.02L48.21,89.77z M48.29,89.69
	c-0.002,0.053,0.02,0.105,0.06,0.14c0.026-0.024,0.043-0.056,0.05-0.09l0.11,0.06l0,0c0.007-0.033,0.007-0.067,0-0.1
	c0,0,0-0.05-0.06-0.05h-0.11c0,0,0.03,0.01,0.03,0.06L48.29,89.69z M48.29,90.06L48.29,90.06L48.29,90.06L48.29,90.06v-0.05l0,0
	h0.07h0.07l0,0l0,0l0,0l0,0c-0.018,0.042-0.046,0.079-0.08,0.11c0.009-0.012,0.015-0.026,0.02-0.04L48.29,90.06z M48.35,90.21
	L48.35,90.21L48.35,90.21z M48.43,90.03L48.43,90.03L48.43,90.03L48.43,90.03c0,0,0.09,0.01,0.08,0.01L48.43,90.03z M48.43,90.33
	L48.43,90.33L48.43,90.33z M48.55,90.24c0.011-0.022,0.011-0.048,0-0.07l0,0V90.24z M48.55,89.72L48.55,89.72L48.55,89.72
	L48.55,89.72L48.55,89.72L48.55,89.72L48.55,89.72z M48.55,89.59L48.55,89.59L48.55,89.59L48.55,89.59z M48.72,89.68c0,0,0,0,0,0.06
	l0,0V89.68z M48.72,93.16h0.11h0.11l0,0v-0.07v-0.07l0,0l0,0v0.07l0,0l0,0l0,0L48.72,93.16z M48.72,90.11L48.72,90.11L48.72,90.11
	L48.72,90.11c0,0,0.17,0.02,0.16,0.02L48.72,90.11z M48.88,89.61v0.06l0,0l0,0l0,0v0.09c-0.002,0.027-0.002,0.053,0,0.08l0,0l0,0
	l0,0h0.06h0.22l0,0l0,0v-0.11l-0.06-0.09l0,0L48.88,89.61z M48.78,90.02c-0.006,0.023-0.006,0.047,0,0.07v0.07l0,0
	c0.004-0.03,0.004-0.06,0-0.09c0,0,0-0.08,0-0.09h0.18L48.78,90.02z M49.08,93.02L49.08,93.02L49.08,93.02z M49.08,89.72
	L49.08,89.72L49.08,89.72z M49.08,89.52L49.08,89.52v-0.06V89.52z M49.47,92.52L49.47,92.52v0.07l0,0l0,0c0,0,0.06,0,0.05,0
	c-0.007-0.026-0.007-0.054,0-0.08l0,0l0,0L49.47,92.52z M49.56,89.71L49.56,89.71L49.56,89.71L49.56,89.71c0,0,0.19-0.01,0.18-0.01
	L49.56,89.71z M49.62,90.02c0,0-0.06,0-0.06,0.08l0,0c0.025,0.066,0.099,0.1,0.165,0.075s0.1-0.099,0.075-0.165L49.62,90.02z
	 M49.62,90.29L49.62,90.29L49.62,90.29L49.62,90.29c0,0,0.2,0,0.2-0.01L49.62,90.29z M49.76,92.39L49.76,92.39L49.76,92.39
	L49.76,92.39c0,0,0.21-0.01,0.2-0.01L49.76,92.39z"/>
<path style="fill:#3F555A;" d="M46.33,89.79h-25.4l12.7-22L46.33,89.79z M22.49,88.86h22.28L33.63,69.59L22.49,88.86z"/>
<path style="fill:#3F555A;" d="M26.71,89.34h-0.9c-0.003-1.432-0.828-2.734-2.12-3.35l0.39-0.82
	C25.685,85.939,26.708,87.56,26.71,89.34z"/>
<path style="fill:#3F555A;" d="M41.56,89.34h-0.9c0.008-1.779,1.034-3.396,2.64-4.16L43.69,86
	C42.397,86.611,41.569,87.91,41.56,89.34z"/>
<path style="fill:#3F555A;" d="M33.63,72.94c-0.748,0.001-1.483-0.196-2.13-0.57l0.45-0.78c1.04,0.586,2.31,0.586,3.35,0l0.45,0.78
	C35.105,72.742,34.374,72.939,33.63,72.94z"/>
<rect x="12.77" y="133.56" style="fill:#FFFFFF;" width="3.87" height="23.8"/>
<path style="fill:#3F555A;" d="M17.09,157.81h-4.78v-24.7h4.77L17.09,157.81z M13.22,156.91h3v-22.9h-3V156.91z"/>
<line style="fill:none;" x1="16.64" y1="133.56" x2="39.75" y2="133.56"/>
<rect x="16.64" y="133.11" style="fill:#3F555A;" width="23.11" height="0.9"/>
<line style="fill:none;" x1="16.64" y1="139.5" x2="39.75" y2="139.5"/>
<rect x="16.64" y="139.05" style="fill:#3F555A;" width="23.11" height="0.9"/>
<line style="fill:none;" x1="16.64" y1="151.41" x2="39.75" y2="151.41"/>
<rect x="16.64" y="150.95" style="fill:#3F555A;" width="23.11" height="0.9"/>
<line style="fill:none;" x1="16.64" y1="145.45" x2="39.75" y2="145.45"/>
<rect x="16.64" y="145" style="fill:#3F555A;" width="23.11" height="0.9"/>
<line style="fill:none;" x1="16.64" y1="157.36" x2="39.75" y2="157.36"/>
<rect x="16.64" y="156.91" style="fill:#3F555A;" width="23.11" height="0.9"/>
<path style="fill:#19BC9C;" d="M26.22,165.46c-0.703-0.006-1.366-0.325-1.81-0.87c-0.556-0.661-0.644-1.598-0.22-2.35
	c0.119-0.221,0.394-0.304,0.615-0.185c0.221,0.119,0.304,0.394,0.185,0.615c-0.254,0.429-0.206,0.973,0.12,1.35
	c0.35,0.434,0.919,0.625,1.46,0.49c0.66-0.2,1.09-0.94,1.21-2.11c0.159-2.838,0.159-5.682,0-8.52h-0.62
	c-3.667-0.067-6.585-3.094-6.517-6.76c0.009-0.516,0.079-1.03,0.207-1.53c0.6-2.23,2.2-4,3.74-5.77c0.71-0.8,1.39-1.56,2-2.35
	c-0.08-0.61-0.15-1.13-0.23-1.57l-0.07-0.41c-0.56-3.07-1-6.78,0.24-8.24c0.386-0.44,0.957-0.67,1.54-0.62
	c0.679,0.014,1.296,0.398,1.61,1c1.13,2.15-0.48,7.34-1.7,9.34c-0.14,0.23-0.29,0.46-0.45,0.69c0.18,1.5,0.36,3.42,0.53,5.53
	c1.997-0.448,4.047,0.499,5,2.31c0.84,1.748,0.692,3.81-0.39,5.42c-0.919,1.41-2.356,2.402-4,2.76c0.164,2.914,0.164,5.836,0,8.75
	c-0.22,2.09-1.25,2.7-1.85,2.88C26.629,165.389,26.426,165.44,26.22,165.46z M26.75,138.76c-0.46,0.57-1,1.13-1.44,1.67
	c-1.48,1.66-3,3.38-3.55,5.4c-0.111,0.428-0.171,0.868-0.18,1.31c-0.056,3.168,2.462,5.784,5.63,5.85h0.53
	c-0.11-2.78-0.29-5.77-0.49-8.51c-1.45,0.72-1.93,2.28-1.31,4.21c0.077,0.237-0.053,0.493-0.29,0.57
	c-0.237,0.077-0.493-0.053-0.57-0.29l0,0c-1-3,0.44-4.78,2.09-5.45C27.04,141.75,26.9,140.13,26.75,138.76L26.75,138.76z
	 M28.16,144.16c0.21,2.78,0.38,5.83,0.5,8.67c1.341-0.338,2.506-1.17,3.26-2.33c0.907-1.348,1.033-3.075,0.33-4.54
	C31.446,144.509,29.773,143.772,28.16,144.16z M27.97,127.55c-0.28-0.011-0.549,0.107-0.73,0.32c-1.16,1.31-0.31,6,0,7.48l0.07,0.41
	c0,0.173,0.03,0.363,0.09,0.57c1.08-2,2.42-6.55,1.54-8.22c-0.163-0.334-0.498-0.55-0.87-0.56L27.97,127.55z"/>
<polygon style="fill:#D0E4F1;" points="85.63,78.79 85.63,82.36 96.57,93.3 105.95,93.3 91.45,78.79 "/>
<polygon style="fill:#D0E4F1;" points="113.09,93.3 113.09,90.54 101.34,78.79 97.4,78.79 111.9,93.3 "/>
<polygon style="fill:#D0E4F1;" points="121.14,78.79 121.14,82.36 132.09,93.3 141.47,93.3 126.97,78.79 "/>
<polygon style="fill:#D0E4F1;" points="148.6,93.3 148.6,90.54 136.85,78.79 132.91,78.79 147.41,93.3 "/>
<polygon style="fill:#D0E4F1;" points="156.5,78.79 156.5,82.36 167.44,93.3 176.82,93.3 162.32,78.79 "/>
<polygon style="fill:#D0E4F1;" points="183.95,93.3 183.95,90.54 172.21,78.79 168.26,78.79 182.76,93.3 "/>
<path style="fill:#3F555A;" d="M113.7,93.74H85.34v-15.4h28.36V93.74z M86.24,92.86h26.55V79.24H86.24V92.86z"/>
<path style="fill:#3F555A;" d="M149.05,93.74h-28.36v-15.4h28.36V93.74z M121.59,92.84h26.57v-13.6h-26.57V92.84z"/>
<path style="fill:#3F555A;" d="M184.4,93.74h-28.36v-15.4h28.36V93.74z M156.94,92.84h26.55v-13.6h-26.54L156.94,92.84z"/>
<path style="fill:#3F555A;" d="M111.74,62.41c-5.578,0-10.1-4.522-10.1-10.1c0-5.578,4.522-10.1,10.1-10.1
	c5.578,0,10.1,4.522,10.1,10.1v0C121.834,57.886,117.316,62.404,111.74,62.41z M111.74,43.11c-5.081,0-9.2,4.119-9.2,9.2
	s4.119,9.2,9.2,9.2c5.081,0,9.2-4.119,9.2-9.2c0,0,0,0,0,0C120.934,47.231,116.819,43.116,111.74,43.11z"/>
</svg>
