<?xml version="1.0" encoding="iso-8859-1"?>
<!-- Generator: Adobe Illustrator 23.0.0, SVG Export Plug-In . SVG Version: 6.00 Build 0)  -->
<svg version="1.1" id="Layer_1" xmlns="http://www.w3.org/2000/svg" xmlns:xlink="http://www.w3.org/1999/xlink" x="0px" y="0px"
	 viewBox="0 0 169 180" style="enable-background:new 0 0 169 180;" xml:space="preserve">
<title>albert-illustrations-boost-your-scores</title>
<desc>Created with Sketch.</desc>
<g id="Symbols">
	<g transform="translate(-58.000000, 0.000000)">
		<g id="albert-illustrations-boost-your-scores" transform="translate(58.000000, 0.000000)">
			<path id="Rectangle-path" style="fill:#D0E4F1;" d="M76.285,3.426h90.578c0.812,0,1.471,0.659,1.471,1.471v130.365
				c0,0.812-0.659,1.471-1.471,1.471H76.285c-0.812,0-1.471-0.659-1.471-1.471V4.897C74.814,4.084,75.472,3.426,76.285,3.426z"/>
			<path id="Shape" style="fill:#D0E4F1;" d="M166.895,137.226H76.291c-1.067,0-1.931-0.867-1.931-1.935V4.906
				c0-1.069,0.865-1.935,1.931-1.935h90.603c1.067,0,1.931,0.867,1.931,1.935v130.355c0.008,0.518-0.192,1.018-0.555,1.387
				C167.908,137.018,167.412,137.226,166.895,137.226z M76.291,3.91c-0.533,0-0.966,0.433-0.966,0.968v130.384
				c0,0.534,0.432,0.968,0.966,0.968h90.603c0.533,0,0.966-0.433,0.966-0.968V4.906c0-0.534-0.432-0.968-0.966-0.968L76.291,3.91z"
				/>
			<path style="fill:#FFFFFF;" d="M72.171,0.484h90.578c0.812,0,1.471,0.659,1.471,1.471v130.365c0,0.812-0.659,1.471-1.471,1.471
				H72.171c-0.812,0-1.471-0.659-1.471-1.471V1.955C70.7,1.142,71.359,0.484,72.171,0.484z"/>
			<path style="fill:#3F555A;" d="M162.752,134.284H72.177c-1.067,0-1.931-0.867-1.931-1.935V1.965c0-1.069,0.865-1.935,1.931-1.935
				h90.574c1.067,0,1.931,0.867,1.931,1.935v130.365c0.005,0.517-0.196,1.014-0.559,1.381
				C163.762,134.077,163.267,134.284,162.752,134.284z M72.177,0.968c-0.533,0-0.966,0.433-0.966,0.968v130.394
				c0,0.534,0.432,0.968,0.966,0.968h90.574c0.533,0,0.966-0.433,0.966-0.968V1.965c0-0.534-0.432-0.968-0.966-0.968L72.177,0.968z"
				/>
			<polygon style="fill:#F3F6F7;" points="78.329,44.052 110.681,44.052 110.681,51.677 78.329,51.677 			"/>
			<polygon style="fill:#F3F6F7;" points="78.329,59.303 110.681,59.303 110.681,66.929 78.329,66.929 			"/>
			<polygon style="fill:#F3F6F7;" points="124.249,44.052 156.6,44.052 156.6,51.677 124.249,51.677 			"/>
			<polygon style="fill:#F3F6F7;" points="124.249,59.303 156.6,59.303 156.6,66.929 124.249,66.929 			"/>
			<polygon style="fill:#F3F6F7;" points="78.329,96.058 110.681,96.058 110.681,103.684 78.329,103.684 			"/>
			<polygon style="fill:#F3F6F7;" points="78.329,111.3 110.681,111.3 110.681,118.926 78.329,118.926 			"/>
			<polygon style="fill:#F3F6F7;" points="124.249,96.058 156.6,96.058 156.6,103.684 124.249,103.684 			"/>
			<polygon style="fill:#F3F6F7;" points="124.249,111.3 156.6,111.3 156.6,118.926 124.249,118.926 			"/>
			<path style="fill:#C3D4E0;" d="M78.329,16.5c-0.161-0.001-0.31-0.082-0.399-0.215s-0.106-0.303-0.045-0.452L82.52,4.848
				c0.073-0.177,0.243-0.295,0.435-0.3c0.19,0,0.362,0.109,0.444,0.281l4.964,10.819c0.072,0.157,0.056,0.341-0.044,0.483
				c-0.1,0.142-0.267,0.219-0.439,0.203s-0.323-0.122-0.395-0.28l-4.5-9.823l-4.211,9.977C78.696,16.387,78.522,16.501,78.329,16.5z
				"/>
			<path style="fill:#C3D4E0;" d="M79.256,14.294c-0.267,0-0.483-0.217-0.483-0.484c0-0.267,0.216-0.484,0.483-0.484l7.726-0.106
				c0.267,0,0.483,0.217,0.483,0.484c0,0.267-0.216,0.484-0.483,0.484L79.256,14.294z"/>
			<path style="fill:#C3D4E0;" d="M102.453,16.365c-0.131,0-0.256-0.053-0.348-0.145c-0.087-0.091-0.136-0.212-0.135-0.339
				c0.004-0.125,0.052-0.245,0.135-0.339c0.14-0.139,0.349-0.18,0.531-0.106c0.059,0.023,0.112,0.059,0.155,0.106
				c0.046,0.043,0.082,0.096,0.106,0.155c0.009,0.061,0.009,0.123,0,0.184c-0.003,0.127-0.055,0.249-0.145,0.339
				c-0.043,0.047-0.095,0.084-0.155,0.106C102.552,16.347,102.503,16.36,102.453,16.365z"/>
			<path style="fill:#C3D4E0;" d="M98.387,16.374h-6.248c-0.267,0-0.483-0.217-0.483-0.484c0-0.267,0.216-0.484,0.483-0.484h6.258
				c0.267,0,0.483,0.217,0.483,0.484c0,0.267-0.216,0.484-0.483,0.484H98.387z"/>
			<path style="fill:#C3D4E0;" d="M95.258,16.374c-0.267,0-0.483-0.217-0.483-0.484V6.213l-2.337,2.342
				c-0.189,0.19-0.496,0.19-0.686,0c-0.189-0.19-0.189-0.497,0-0.687l3.168-3.174c0.138-0.136,0.343-0.176,0.522-0.102
				c0.179,0.074,0.296,0.247,0.299,0.441V15.89C95.741,16.158,95.525,16.374,95.258,16.374z"/>
			<polygon style="fill:#3F555A;" points="78.329,28.597 83.505,28.597 83.505,30.532 78.329,30.532 			"/>
			<rect x="78.329" y="36.223" style="fill:#3F555A;" width="32.351" height="1.935"/>
			<path style="fill:#C3D4E0;" d="M110.681,45.31h-0.483v-0.968h0.483V45.31z M108.266,45.31h-0.966v-0.968h0.966V45.31z
				 M105.369,45.31h-0.966v-0.968h0.966V45.31z M102.472,45.31h-0.966v-0.968h0.966V45.31z M99.575,45.31h-0.966v-0.968h0.966V45.31
				z M96.678,45.31h-0.966v-0.968h0.966V45.31z M93.781,45.31h-0.966v-0.968h0.966V45.31z M90.883,45.31h-0.966v-0.968h0.966V45.31z
				 M87.986,45.31h-0.966v-0.968h0.966V45.31z M85.089,45.31h-0.966v-0.968h0.966V45.31z M82.192,45.31h-0.966v-0.968h0.966V45.31z
				 M79.295,45.31h-0.966v-0.968h0.966V45.31z"/>
			<path style="fill:#C3D4E0;" d="M110.681,52.935h-0.483v-0.968h0.483V52.935z M108.266,52.935h-0.966v-0.968h0.966V52.935z
				 M105.369,52.935h-0.966v-0.968h0.966V52.935z M102.472,52.935h-0.966v-0.968h0.966V52.935z M99.575,52.935h-0.966v-0.968h0.966
				V52.935z M96.678,52.935h-0.966v-0.968h0.966V52.935z M93.781,52.935h-0.966v-0.968h0.966V52.935z M90.883,52.935h-0.966v-0.968
				h0.966V52.935z M87.986,52.935h-0.966v-0.968h0.966V52.935z M85.089,52.935h-0.966v-0.968h0.966V52.935z M82.192,52.935h-0.966
				v-0.968h0.966V52.935z M79.295,52.935h-0.966v-0.968h0.966V52.935z"/>
			<path style="fill:#C3D4E0;" d="M110.681,60.552h-0.483v-0.968h0.483V60.552z M108.266,60.552h-0.966v-0.968h0.966V60.552z
				 M105.369,60.552h-0.966v-0.968h0.966V60.552z M102.472,60.552h-0.966v-0.968h0.966V60.552z M99.575,60.552h-0.966v-0.968h0.966
				V60.552z M96.678,60.552h-0.966v-0.968h0.966V60.552z M93.781,60.552h-0.966v-0.968h0.966V60.552z M90.883,60.552h-0.966v-0.968
				h0.966V60.552z M87.986,60.552h-0.966v-0.968h0.966V60.552z M85.089,60.552h-0.966v-0.968h0.966V60.552z M82.192,60.552h-0.966
				v-0.968h0.966V60.552z M79.295,60.552h-0.966v-0.968h0.966V60.552z"/>
			<path style="fill:#C3D4E0;" d="M110.681,68.177h-0.483V67.21h0.483V68.177z M108.266,68.177h-0.966V67.21h0.966V68.177z
				 M105.369,68.177h-0.966V67.21h0.966V68.177z M102.472,68.177h-0.966V67.21h0.966V68.177z M99.575,68.177h-0.966V67.21h0.966
				V68.177z M96.678,68.177h-0.966V67.21h0.966V68.177z M93.781,68.177h-0.966V67.21h0.966V68.177z M90.883,68.177h-0.966V67.21
				h0.966V68.177z M87.986,68.177h-0.966V67.21h0.966V68.177z M85.089,68.177h-0.966V67.21h0.966V68.177z M82.192,68.177h-0.966
				V67.21h0.966V68.177z M79.295,68.177h-0.966V67.21h0.966V68.177z"/>
			<polygon style="fill:#3F555A;" points="124.249,28.597 129.425,28.597 129.425,30.532 124.249,30.532 			"/>
			<rect x="124.249" y="36.223" style="fill:#3F555A;" width="32.351" height="1.935"/>
			<path style="fill:#C3D4E0;" d="M156.6,45.31h-0.483v-0.968h0.483V45.31z M154.186,45.31h-0.966v-0.968h0.966V45.31z
				 M151.289,45.31h-0.966v-0.968h0.966V45.31z M148.392,45.31h-0.966v-0.968h0.966V45.31z M145.495,45.31h-0.966v-0.968h0.966
				V45.31z M142.597,45.31h-0.966v-0.968h0.966V45.31z M139.7,45.31h-0.966v-0.968h0.966V45.31z M136.803,45.31h-0.966v-0.968h0.966
				V45.31z M133.906,45.31h-0.966v-0.968h0.966V45.31z M131.009,45.31h-0.966v-0.968h0.966V45.31z M128.112,45.31h-0.966v-0.968
				h0.966V45.31z M125.215,45.31h-0.966v-0.968h0.966V45.31z"/>
			<path style="fill:#C3D4E0;" d="M156.6,52.935h-0.483v-0.968h0.483V52.935z M154.186,52.935h-0.966v-0.968h0.966V52.935z
				 M151.289,52.935h-0.966v-0.968h0.966V52.935z M148.392,52.935h-0.966v-0.968h0.966V52.935z M145.495,52.935h-0.966v-0.968h0.966
				V52.935z M142.597,52.935h-0.966v-0.968h0.966V52.935z M139.7,52.935h-0.966v-0.968h0.966V52.935z M136.803,52.935h-0.966v-0.968
				h0.966V52.935z M133.906,52.935h-0.966v-0.968h0.966V52.935z M131.009,52.935h-0.966v-0.968h0.966V52.935z M128.112,52.935
				h-0.966v-0.968h0.966V52.935z M125.215,52.935h-0.966v-0.968h0.966V52.935z"/>
			<path style="fill:#C3D4E0;" d="M156.6,60.552h-0.483v-0.968h0.483V60.552z M154.186,60.552h-0.966v-0.968h0.966V60.552z
				 M151.289,60.552h-0.966v-0.968h0.966V60.552z M148.392,60.552h-0.966v-0.968h0.966V60.552z M145.495,60.552h-0.966v-0.968h0.966
				V60.552z M142.597,60.552h-0.966v-0.968h0.966V60.552z M139.7,60.552h-0.966v-0.968h0.966V60.552z M136.803,60.552h-0.966v-0.968
				h0.966V60.552z M133.906,60.552h-0.966v-0.968h0.966V60.552z M131.009,60.552h-0.966v-0.968h0.966V60.552z M128.112,60.552
				h-0.966v-0.968h0.966V60.552z M125.215,60.552h-0.966v-0.968h0.966V60.552z"/>
			<path style="fill:#C3D4E0;" d="M156.6,68.177h-0.483V67.21h0.483V68.177z M154.186,68.177h-0.966V67.21h0.966V68.177z
				 M151.289,68.177h-0.966V67.21h0.966V68.177z M148.392,68.177h-0.966V67.21h0.966V68.177z M145.495,68.177h-0.966V67.21h0.966
				V68.177z M142.597,68.177h-0.966V67.21h0.966V68.177z M139.7,68.177h-0.966V67.21h0.966V68.177z M136.803,68.177h-0.966V67.21
				h0.966V68.177z M133.906,68.177h-0.966V67.21h0.966V68.177z M131.009,68.177h-0.966V67.21h0.966V68.177z M128.112,68.177h-0.966
				V67.21h0.966V68.177z M125.215,68.177h-0.966V67.21h0.966V68.177z"/>
			<polygon style="fill:#3F555A;" points="78.329,80.584 83.505,80.584 83.505,82.519 78.329,82.519 			"/>
			<rect x="78.329" y="88.2" style="fill:#3F555A;" width="32.351" height="1.935"/>
			<path style="fill:#C3D4E0;" d="M110.681,97.277h-0.483V96.31h0.483V97.277z M108.266,97.277h-0.966V96.31h0.966V97.277z
				 M105.369,97.277h-0.966V96.31h0.966V97.277z M102.472,97.277h-0.966V96.31h0.966V97.277z M99.575,97.277h-0.966V96.31h0.966
				V97.277z M96.678,97.277h-0.966V96.31h0.966V97.277z M93.781,97.277h-0.966V96.31h0.966V97.277z M90.883,97.277h-0.966V96.31
				h0.966V97.277z M87.986,97.277h-0.966V96.31h0.966V97.277z M85.089,97.277h-0.966V96.31h0.966V97.277z M82.192,97.277h-0.966
				V96.31h0.966V97.277z M79.295,97.277h-0.966V96.31h0.966V97.277z"/>
			<path style="fill:#C3D4E0;" d="M110.681,104.903h-0.483v-0.968h0.483V104.903z M108.266,104.903h-0.966v-0.968h0.966V104.903z
				 M105.369,104.903h-0.966v-0.968h0.966V104.903z M102.472,104.903h-0.966v-0.968h0.966V104.903z M99.575,104.903h-0.966v-0.968
				h0.966V104.903z M96.678,104.903h-0.966v-0.968h0.966V104.903z M93.781,104.903h-0.966v-0.968h0.966V104.903z M90.883,104.903
				h-0.966v-0.968h0.966V104.903z M87.986,104.903h-0.966v-0.968h0.966V104.903z M85.089,104.903h-0.966v-0.968h0.966V104.903z
				 M82.192,104.903h-0.966v-0.968h0.966V104.903z M79.295,104.903h-0.966v-0.968h0.966V104.903z"/>
			<path style="fill:#C3D4E0;" d="M110.681,112.529h-0.483v-0.968h0.483V112.529z M108.266,112.529h-0.966v-0.968h0.966V112.529z
				 M105.369,112.529h-0.966v-0.968h0.966V112.529z M102.472,112.529h-0.966v-0.968h0.966V112.529z M99.575,112.529h-0.966v-0.968
				h0.966V112.529z M96.678,112.529h-0.966v-0.968h0.966V112.529z M93.781,112.529h-0.966v-0.968h0.966V112.529z M90.883,112.529
				h-0.966v-0.968h0.966V112.529z M87.986,112.529h-0.966v-0.968h0.966V112.529z M85.089,112.529h-0.966v-0.968h0.966V112.529z
				 M82.192,112.529h-0.966v-0.968h0.966V112.529z M79.295,112.529h-0.966v-0.968h0.966V112.529z"/>
			<path style="fill:#C3D4E0;" d="M110.681,120.165h-0.483v-0.968h0.483V120.165z M108.266,120.165h-0.966v-0.968h0.966V120.165z
				 M105.369,120.165h-0.966v-0.968h0.966V120.165z M102.472,120.165h-0.966v-0.968h0.966V120.165z M99.575,120.165h-0.966v-0.968
				h0.966V120.165z M96.678,120.165h-0.966v-0.968h0.966V120.165z M93.781,120.165h-0.966v-0.968h0.966V120.165z M90.883,120.165
				h-0.966v-0.968h0.966V120.165z M87.986,120.165h-0.966v-0.968h0.966V120.165z M85.089,120.165h-0.966v-0.968h0.966V120.165z
				 M82.192,120.165h-0.966v-0.968h0.966V120.165z M79.295,120.165h-0.966v-0.968h0.966V120.165z"/>
			<polygon style="fill:#3F555A;" points="124.249,80.584 129.425,80.584 129.425,82.519 124.249,82.519 			"/>
			<rect x="124.249" y="88.2" style="fill:#3F555A;" width="32.351" height="1.935"/>
			<path style="fill:#C3D4E0;" d="M156.6,97.277h-0.483V96.31h0.483V97.277z M154.186,97.277h-0.966V96.31h0.966V97.277z
				 M151.289,97.277h-0.966V96.31h0.966V97.277z M148.392,97.277h-0.966V96.31h0.966V97.277z M145.495,97.277h-0.966V96.31h0.966
				V97.277z M142.597,97.277h-0.966V96.31h0.966V97.277z M139.7,97.277h-0.966V96.31h0.966V97.277z M136.803,97.277h-0.966V96.31
				h0.966V97.277z M133.906,97.277h-0.966V96.31h0.966V97.277z M131.009,97.277h-0.966V96.31h0.966V97.277z M128.112,97.277h-0.966
				V96.31h0.966V97.277z M125.215,97.277h-0.966V96.31h0.966V97.277z"/>
			<path style="fill:#C3D4E0;" d="M156.6,104.903h-0.483v-0.968h0.483V104.903z M154.186,104.903h-0.966v-0.968h0.966V104.903z
				 M151.289,104.903h-0.966v-0.968h0.966V104.903z M148.392,104.903h-0.966v-0.968h0.966V104.903z M145.495,104.903h-0.966v-0.968
				h0.966V104.903z M142.597,104.903h-0.966v-0.968h0.966V104.903z M139.7,104.903h-0.966v-0.968h0.966V104.903z M136.803,104.903
				h-0.966v-0.968h0.966V104.903z M133.906,104.903h-0.966v-0.968h0.966V104.903z M131.009,104.903h-0.966v-0.968h0.966V104.903z
				 M128.112,104.903h-0.966v-0.968h0.966V104.903z M125.215,104.903h-0.966v-0.968h0.966V104.903z"/>
			<path style="fill:#C3D4E0;" d="M156.6,112.529h-0.483v-0.968h0.483V112.529z M154.186,112.529h-0.966v-0.968h0.966V112.529z
				 M151.289,112.529h-0.966v-0.968h0.966V112.529z M148.392,112.529h-0.966v-0.968h0.966V112.529z M145.495,112.529h-0.966v-0.968
				h0.966V112.529z M142.597,112.529h-0.966v-0.968h0.966V112.529z M139.7,112.529h-0.966v-0.968h0.966V112.529z M136.803,112.529
				h-0.966v-0.968h0.966V112.529z M133.906,112.529h-0.966v-0.968h0.966V112.529z M131.009,112.529h-0.966v-0.968h0.966V112.529z
				 M128.112,112.529h-0.966v-0.968h0.966V112.529z M125.215,112.529h-0.966v-0.968h0.966V112.529z"/>
			<path style="fill:#C3D4E0;" d="M156.6,120.165h-0.483v-0.968h0.483V120.165z M154.186,120.165h-0.966v-0.968h0.966V120.165z
				 M151.289,120.165h-0.966v-0.968h0.966V120.165z M148.392,120.165h-0.966v-0.968h0.966V120.165z M145.495,120.165h-0.966v-0.968
				h0.966V120.165z M142.597,120.165h-0.966v-0.968h0.966V120.165z M139.7,120.165h-0.966v-0.968h0.966V120.165z M136.803,120.165
				h-0.966v-0.968h0.966V120.165z M133.906,120.165h-0.966v-0.968h0.966V120.165z M131.009,120.165h-0.966v-0.968h0.966V120.165z
				 M128.112,120.165h-0.966v-0.968h0.966V120.165z M125.215,120.165h-0.966v-0.968h0.966V120.165z"/>
			
				<ellipse id="Oval" transform="matrix(0.0356 -0.9994 0.9994 0.0356 69.9316 208.0956)" style="fill:#19BC9C;" cx="142.786" cy="67.814" rx="1.236" ry="1.239"/>
			
				<ellipse transform="matrix(0.0356 -0.9994 0.9994 0.0356 44.0389 253.9095)" style="fill:#19BC9C;" cx="153.577" cy="104.137" rx="1.236" ry="1.239"/>
			
				<ellipse transform="matrix(0.0356 -0.9994 0.9994 0.0356 25.9316 266.5906)" style="fill:#19BC9C;" cx="151.094" cy="119.859" rx="1.236" ry="1.239"/>
			
				<ellipse transform="matrix(0.0356 -0.9994 0.9994 0.0356 46.2607 240.9523)" style="fill:#19BC9C;" cx="147.974" cy="96.507" rx="1.236" ry="1.239"/>
			
				<ellipse transform="matrix(0.0356 -0.9994 0.9994 0.0356 27.8906 252.9788)" style="fill:#19BC9C;" cx="145.02" cy="112.039" rx="1.236" ry="1.239"/>
			
				<ellipse transform="matrix(0.0356 -0.9994 0.9994 0.0356 32.8242 242.8351)" style="fill:#19BC9C;" cx="142.232" cy="104.41" rx="1.236" ry="1.239"/>
			
				<ellipse transform="matrix(0.0356 -0.9994 0.9994 0.0356 87.3997 194.9119)" style="fill:#19BC9C;" cx="144.689" cy="52.172" rx="1.236" ry="1.239"/>
			
				<ellipse transform="matrix(0.0356 -0.9994 0.9994 0.0356 95.96 203.7938)" style="fill:#19BC9C;" cx="153.571" cy="52.177" rx="1.236" ry="1.239"/>
			
				<ellipse transform="matrix(0.0356 -0.9994 0.9994 0.0356 82.0861 206.3682)" style="fill:#F56F40;" cx="147.968" cy="60.653" rx="1.236" ry="1.239"/>
			
				<ellipse transform="matrix(0.0356 -0.9994 0.9994 0.0356 100.4007 193.6616)" style="fill:#F56F40;" cx="150.542" cy="44.811" rx="1.236" ry="1.239"/>
			
				<ellipse transform="matrix(0.0356 -0.9994 0.9994 0.0356 80.4561 218.7549)" style="fill:#F56F40;" cx="153.571" cy="67.691" rx="1.236" ry="1.239"/>
			<polygon style="fill:#19BC9C;" points="135.461,16.616 133.095,15.89 138.889,9.397 138.889,9.397 135.026,8.245 135.606,6.31 
				141.863,8.158 141.303,10.094 			"/>
			<path style="fill:#19BC9C;" d="M140.463,18.068l0.56-1.935l3.93-2.197c0.627-0.257,1.132-0.746,1.41-1.365
				c0.183-0.629,0.058-1.161-0.56-1.335s-0.966,0.184-1.217,0.91v0.135l-2.192-0.648v-0.135c0.278-1.149,1.163-2.053,2.304-2.353
				c1.142-0.299,2.355,0.054,3.159,0.919c0.804,0.866,1.068,2.104,0.688,3.224c-0.385,1.126-1.248,2.022-2.356,2.448l-2.25,1.19
				l3.139,0.968l-0.579,1.935L140.463,18.068z"/>
			<path style="fill:#19BC9C;" d="M148.623,20.487l8.614-7.858l1.574,0.465l-8.566,7.858L148.623,20.487z M149.821,12.745
				c0.399-1.269,1.745-1.977,3.013-1.585c1.268,0.391,1.984,1.735,1.601,3.009c-0.382,1.274-1.719,1.999-2.992,1.624
				c-0.621-0.185-1.142-0.612-1.446-1.185C149.692,14.036,149.629,13.365,149.821,12.745z M153.027,13.713
				c0.118-0.378-0.005-0.79-0.312-1.04c-0.307-0.25-0.735-0.287-1.08-0.094c-0.345,0.193-0.538,0.578-0.487,0.971
				c0.051,0.393,0.337,0.715,0.72,0.812C152.365,14.488,152.874,14.203,153.027,13.713z M152.959,19.432
				c0.271-0.942,1.083-1.626,2.055-1.734c0.972-0.107,1.913,0.384,2.382,1.244s0.375,1.919-0.24,2.681s-1.628,1.078-2.565,0.799
				c-1.264-0.387-1.985-1.717-1.622-2.99H152.959z M156.166,20.4c0.122-0.378,0.002-0.792-0.303-1.044
				c-0.305-0.253-0.734-0.293-1.081-0.102c-0.347,0.191-0.542,0.576-0.493,0.969c0.05,0.394,0.334,0.717,0.718,0.816
				c0.503,0.131,1.019-0.159,1.169-0.658L156.166,20.4z"/>
			<path style="fill:#D0E4F1;" d="M42.34,25.084h90.578c0.812,0,1.471,0.659,1.471,1.471v130.365c0,0.812-0.659,1.471-1.471,1.471
				H42.34c-0.812,0-1.471-0.659-1.471-1.471V26.555C40.869,25.742,41.528,25.084,42.34,25.084z"/>
			<path style="fill:#D0E4F1;" d="M132.911,158.874H42.318c-1.067,0-1.931-0.867-1.931-1.935V26.565
				c0-1.069,0.865-1.935,1.931-1.935h90.574c1.067,0,1.931,0.867,1.931,1.935v130.374C134.823,158,133.97,158.864,132.911,158.874z
				 M42.318,25.577c-0.533,0-0.966,0.433-0.966,0.968v130.394c0,0.534,0.432,0.968,0.966,0.968h90.574
				c0.533,0,0.966-0.433,0.966-0.968V26.565c0-0.534-0.432-0.968-0.966-0.968L42.318,25.577z"/>
			<path style="fill:#FFFFFF;" d="M38.226,22.142h90.578c0.812,0,1.471,0.659,1.471,1.471v130.365c0,0.812-0.659,1.471-1.471,1.471
				H38.226c-0.812,0-1.471-0.659-1.471-1.471V23.613C36.755,22.801,37.414,22.142,38.226,22.142z"/>
			<path style="fill:#3F555A;" d="M128.797,155.971H38.233c-1.067,0-1.931-0.867-1.931-1.935V23.623
				c0-1.069,0.865-1.935,1.931-1.935h90.574c1.067,0,1.931,0.867,1.931,1.935v130.365c0.013,0.523-0.186,1.03-0.552,1.403
				C129.821,155.764,129.32,155.974,128.797,155.971z M38.233,22.635c-0.533,0-0.966,0.433-0.966,0.968v130.384
				c0,0.534,0.432,0.968,0.966,0.968h90.574c0.533,0,0.966-0.433,0.966-0.968V23.623c0-0.534-0.432-0.968-0.966-0.968L38.233,22.635
				z"/>
			<polygon style="fill:#F3F6F7;" points="44.384,65.71 76.736,65.71 76.736,73.335 44.384,73.335 			"/>
			<polygon style="fill:#F3F6F7;" points="44.384,80.961 76.736,80.961 76.736,88.587 44.384,88.587 			"/>
			<polygon style="fill:#F3F6F7;" points="90.294,65.71 122.646,65.71 122.646,73.335 90.294,73.335 			"/>
			<polygon style="fill:#F3F6F7;" points="90.294,80.961 122.646,80.961 122.646,88.587 90.294,88.587 			"/>
			<polygon style="fill:#F3F6F7;" points="44.384,117.716 76.736,117.716 76.736,125.342 44.384,125.342 			"/>
			<polygon style="fill:#F3F6F7;" points="44.384,132.968 76.736,132.968 76.736,140.594 44.384,140.594 			"/>
			<polygon style="fill:#F3F6F7;" points="90.294,117.716 122.646,117.716 122.646,125.342 90.294,125.342 			"/>
			<polygon style="fill:#F3F6F7;" points="90.294,132.968 122.646,132.968 122.646,140.594 90.294,140.594 			"/>
			<path style="fill:#C3D4E0;" d="M44.384,38.168c-0.161-0.001-0.31-0.082-0.399-0.215c-0.089-0.134-0.106-0.303-0.045-0.452
				l4.635-10.984c0.073-0.177,0.243-0.295,0.435-0.3c0.189,0.002,0.361,0.111,0.444,0.281l4.964,10.858
				c0.112,0.243,0.006,0.531-0.237,0.644c-0.243,0.112-0.53,0.006-0.642-0.237l-4.462-9.871l-4.249,10.016
				C44.743,38.072,44.57,38.174,44.384,38.168z"/>
			<path style="fill:#C3D4E0;" d="M45.311,35.971c-0.267,0-0.483-0.217-0.483-0.484c0-0.267,0.216-0.484,0.483-0.484l7.726-0.106
				c0.267,0,0.483,0.217,0.483,0.484s-0.216,0.484-0.483,0.484L45.311,35.971z"/>
			<path style="fill:#C3D4E0;" d="M64.442,37.539h-6.258"/>
			<rect x="44.384" y="50.265" style="fill:#3F555A;" width="5.176" height="1.935"/>
			<polygon style="fill:#3F555A;" points="44.384,57.89 76.736,57.89 76.736,59.826 44.384,59.826 			"/>
			<path style="fill:#C3D4E0;" d="M76.736,66.939h-0.483v-0.968h0.483V66.939z M74.321,66.939h-0.966v-0.968h0.966V66.939z
				 M71.424,66.939h-0.966v-0.968h0.966V66.939z M68.527,66.939h-0.966v-0.968h0.966V66.939z M65.63,66.939h-0.966v-0.968h0.966
				V66.939z M62.733,66.939h-0.966v-0.968h0.966V66.939z M59.836,66.939H58.87v-0.968h0.966V66.939z M56.939,66.939h-0.966v-0.968
				h0.966V66.939z M54.041,66.939h-0.966v-0.968h0.966V66.939z M51.144,66.939h-0.966v-0.968h0.966V66.939z M48.247,66.939h-0.966
				v-0.968h0.966V66.939z M45.35,66.939h-0.966v-0.968h0.966V66.939z"/>
			<path style="fill:#C3D4E0;" d="M76.736,74.594h-0.483v-0.968h0.483V74.594z M74.321,74.594h-0.966v-0.968h0.966V74.594z
				 M71.424,74.594h-0.966v-0.968h0.966V74.594z M68.527,74.594h-0.966v-0.968h0.966V74.594z M65.63,74.594h-0.966v-0.968h0.966
				V74.594z M62.733,74.594h-0.966v-0.968h0.966V74.594z M59.836,74.594H58.87v-0.968h0.966V74.594z M56.939,74.594h-0.966v-0.968
				h0.966V74.594z M54.041,74.594h-0.966v-0.968h0.966V74.594z M51.144,74.594h-0.966v-0.968h0.966V74.594z M48.247,74.594h-0.966
				v-0.968h0.966V74.594z M45.35,74.594h-0.966v-0.968h0.966V74.594z"/>
			<path style="fill:#C3D4E0;" d="M76.736,82.219h-0.483v-0.968h0.483V82.219z M74.321,82.219h-0.966v-0.968h0.966V82.219z
				 M71.424,82.219h-0.966v-0.968h0.966V82.219z M68.527,82.219h-0.966v-0.968h0.966V82.219z M65.63,82.219h-0.966v-0.968h0.966
				V82.219z M62.733,82.219h-0.966v-0.968h0.966V82.219z M59.836,82.219H58.87v-0.968h0.966V82.219z M56.939,82.219h-0.966v-0.968
				h0.966V82.219z M54.041,82.219h-0.966v-0.968h0.966V82.219z M51.144,82.219h-0.966v-0.968h0.966V82.219z M48.247,82.219h-0.966
				v-0.968h0.966V82.219z M45.35,82.219h-0.966v-0.968h0.966V82.219z"/>
			<path style="fill:#C3D4E0;" d="M76.736,89.845h-0.483v-0.968h0.483V89.845z M74.321,89.845h-0.966v-0.968h0.966V89.845z
				 M71.424,89.845h-0.966v-0.968h0.966V89.845z M68.527,89.845h-0.966v-0.968h0.966V89.845z M65.63,89.845h-0.966v-0.968h0.966
				V89.845z M62.733,89.845h-0.966v-0.968h0.966V89.845z M59.836,89.845H58.87v-0.968h0.966V89.845z M56.939,89.845h-0.966v-0.968
				h0.966V89.845z M54.041,89.845h-0.966v-0.968h0.966V89.845z M51.144,89.845h-0.966v-0.968h0.966V89.845z M48.247,89.845h-0.966
				v-0.968h0.966V89.845z M45.35,89.845h-0.966v-0.968h0.966V89.845z"/>
			<polygon style="fill:#3F555A;" points="90.294,50.265 95.48,50.265 95.48,52.2 90.294,52.2 			"/>
			<rect x="90.294" y="57.89" style="fill:#3F555A;" width="32.351" height="1.935"/>
			<path style="fill:#C3D4E0;" d="M122.646,66.939h-0.483v-0.968h0.483V66.939z M120.231,66.939h-0.966v-0.968h0.966V66.939z
				 M117.334,66.939h-0.966v-0.968h0.966V66.939z M114.437,66.939h-0.966v-0.968h0.966V66.939z M111.54,66.939h-0.966v-0.968h0.966
				V66.939z M108.643,66.939h-0.966v-0.968h0.966V66.939z M105.746,66.939h-0.966v-0.968h0.966V66.939z M102.849,66.939h-0.966
				v-0.968h0.966V66.939z M99.951,66.939h-0.966v-0.968h0.966V66.939z M97.054,66.939h-0.966v-0.968h0.966V66.939z M94.157,66.939
				h-0.966v-0.968h0.966V66.939z M91.26,66.939h-0.966v-0.968h0.966V66.939z"/>
			<path style="fill:#C3D4E0;" d="M122.646,74.594h-0.483v-0.968h0.483V74.594z M120.231,74.594h-0.966v-0.968h0.966V74.594z
				 M117.334,74.594h-0.966v-0.968h0.966V74.594z M114.437,74.594h-0.966v-0.968h0.966V74.594z M111.54,74.594h-0.966v-0.968h0.966
				V74.594z M108.643,74.594h-0.966v-0.968h0.966V74.594z M105.746,74.594h-0.966v-0.968h0.966V74.594z M102.849,74.594h-0.966
				v-0.968h0.966V74.594z M99.951,74.594h-0.966v-0.968h0.966V74.594z M97.054,74.594h-0.966v-0.968h0.966V74.594z M94.157,74.594
				h-0.966v-0.968h0.966V74.594z M91.26,74.594h-0.966v-0.968h0.966V74.594z"/>
			<path style="fill:#C3D4E0;" d="M122.646,82.219h-0.483v-0.968h0.483V82.219z M120.231,82.219h-0.966v-0.968h0.966V82.219z
				 M117.334,82.219h-0.966v-0.968h0.966V82.219z M114.437,82.219h-0.966v-0.968h0.966V82.219z M111.54,82.219h-0.966v-0.968h0.966
				V82.219z M108.643,82.219h-0.966v-0.968h0.966V82.219z M105.746,82.219h-0.966v-0.968h0.966V82.219z M102.849,82.219h-0.966
				v-0.968h0.966V82.219z M99.951,82.219h-0.966v-0.968h0.966V82.219z M97.054,82.219h-0.966v-0.968h0.966V82.219z M94.157,82.219
				h-0.966v-0.968h0.966V82.219z M91.26,82.219h-0.966v-0.968h0.966V82.219z"/>
			<path style="fill:#C3D4E0;" d="M122.646,89.845h-0.483v-0.968h0.483V89.845z M120.231,89.845h-0.966v-0.968h0.966V89.845z
				 M117.334,89.845h-0.966v-0.968h0.966V89.845z M114.437,89.845h-0.966v-0.968h0.966V89.845z M111.54,89.845h-0.966v-0.968h0.966
				V89.845z M108.643,89.845h-0.966v-0.968h0.966V89.845z M105.746,89.845h-0.966v-0.968h0.966V89.845z M102.849,89.845h-0.966
				v-0.968h0.966V89.845z M99.951,89.845h-0.966v-0.968h0.966V89.845z M97.054,89.845h-0.966v-0.968h0.966V89.845z M94.157,89.845
				h-0.966v-0.968h0.966V89.845z M91.26,89.845h-0.966v-0.968h0.966V89.845z"/>
			<rect x="44.384" y="102.252" style="fill:#3F555A;" width="5.176" height="1.935"/>
			<polygon style="fill:#3F555A;" points="44.384,109.858 76.736,109.858 76.736,111.794 44.384,111.794 			"/>
			<path style="fill:#C3D4E0;" d="M76.736,118.945h-0.483v-0.968h0.483V118.945z M74.321,118.945h-0.966v-0.968h0.966V118.945z
				 M71.424,118.945h-0.966v-0.968h0.966V118.945z M68.527,118.945h-0.966v-0.968h0.966V118.945z M65.63,118.945h-0.966v-0.968
				h0.966V118.945z M62.733,118.945h-0.966v-0.968h0.966V118.945z M59.836,118.945H58.87v-0.968h0.966V118.945z M56.939,118.945
				h-0.966v-0.968h0.966V118.945z M54.041,118.945h-0.966v-0.968h0.966V118.945z M51.144,118.945h-0.966v-0.968h0.966V118.945z
				 M48.247,118.945h-0.966v-0.968h0.966V118.945z M45.35,118.945h-0.966v-0.968h0.966V118.945z"/>
			<path style="fill:#C3D4E0;" d="M76.736,126.571h-0.483v-0.968h0.483V126.571z M74.321,126.571h-0.966v-0.968h0.966V126.571z
				 M71.424,126.571h-0.966v-0.968h0.966V126.571z M68.527,126.571h-0.966v-0.968h0.966V126.571z M65.63,126.571h-0.966v-0.968
				h0.966V126.571z M62.733,126.571h-0.966v-0.968h0.966V126.571z M59.836,126.571H58.87v-0.968h0.966V126.571z M56.939,126.571
				h-0.966v-0.968h0.966V126.571z M54.041,126.571h-0.966v-0.968h0.966V126.571z M51.144,126.571h-0.966v-0.968h0.966V126.571z
				 M48.247,126.571h-0.966v-0.968h0.966V126.571z M45.35,126.571h-0.966v-0.968h0.966V126.571z"/>
			<path style="fill:#C3D4E0;" d="M76.736,134.187h-0.483v-0.968h0.483V134.187z M74.321,134.187h-0.966v-0.968h0.966V134.187z
				 M71.424,134.187h-0.966v-0.968h0.966V134.187z M68.527,134.187h-0.966v-0.968h0.966V134.187z M65.63,134.187h-0.966v-0.968
				h0.966V134.187z M62.733,134.187h-0.966v-0.968h0.966V134.187z M59.836,134.187H58.87v-0.968h0.966V134.187z M56.939,134.187
				h-0.966v-0.968h0.966V134.187z M54.041,134.187h-0.966v-0.968h0.966V134.187z M51.144,134.187h-0.966v-0.968h0.966V134.187z
				 M48.247,134.187h-0.966v-0.968h0.966V134.187z M45.35,134.187h-0.966v-0.968h0.966V134.187z"/>
			<path style="fill:#C3D4E0;" d="M76.736,141.813h-0.483v-0.968h0.483V141.813z M74.321,141.813h-0.966v-0.968h0.966V141.813z
				 M71.424,141.813h-0.966v-0.968h0.966V141.813z M68.527,141.813h-0.966v-0.968h0.966V141.813z M65.63,141.813h-0.966v-0.968
				h0.966V141.813z M62.733,141.813h-0.966v-0.968h0.966V141.813z M59.836,141.813H58.87v-0.968h0.966V141.813z M56.939,141.813
				h-0.966v-0.968h0.966V141.813z M54.041,141.813h-0.966v-0.968h0.966V141.813z M51.144,141.813h-0.966v-0.968h0.966V141.813z
				 M48.247,141.813h-0.966v-0.968h0.966V141.813z M45.35,141.813h-0.966v-0.968h0.966V141.813z"/>
			<polygon style="fill:#3F555A;" points="90.294,102.252 95.48,102.252 95.48,104.187 90.294,104.187 			"/>
			<rect x="90.294" y="109.858" style="fill:#3F555A;" width="32.351" height="1.935"/>
			<path style="fill:#C3D4E0;" d="M122.646,118.945h-0.483v-0.968h0.483V118.945z M120.231,118.945h-0.966v-0.968h0.966V118.945z
				 M117.334,118.945h-0.966v-0.968h0.966V118.945z M114.437,118.945h-0.966v-0.968h0.966V118.945z M111.54,118.945h-0.966v-0.968
				h0.966V118.945z M108.643,118.945h-0.966v-0.968h0.966V118.945z M105.746,118.945h-0.966v-0.968h0.966V118.945z M102.849,118.945
				h-0.966v-0.968h0.966V118.945z M99.951,118.945h-0.966v-0.968h0.966V118.945z M97.054,118.945h-0.966v-0.968h0.966V118.945z
				 M94.157,118.945h-0.966v-0.968h0.966V118.945z M91.26,118.945h-0.966v-0.968h0.966V118.945z"/>
			<path style="fill:#C3D4E0;" d="M122.646,126.571h-0.483v-0.968h0.483V126.571z M120.231,126.571h-0.966v-0.968h0.966V126.571z
				 M117.334,126.571h-0.966v-0.968h0.966V126.571z M114.437,126.571h-0.966v-0.968h0.966V126.571z M111.54,126.571h-0.966v-0.968
				h0.966V126.571z M108.643,126.571h-0.966v-0.968h0.966V126.571z M105.746,126.571h-0.966v-0.968h0.966V126.571z M102.849,126.571
				h-0.966v-0.968h0.966V126.571z M99.951,126.571h-0.966v-0.968h0.966V126.571z M97.054,126.571h-0.966v-0.968h0.966V126.571z
				 M94.157,126.571h-0.966v-0.968h0.966V126.571z M91.26,126.571h-0.966v-0.968h0.966V126.571z"/>
			<path style="fill:#C3D4E0;" d="M122.646,134.187h-0.483v-0.968h0.483V134.187z M120.231,134.187h-0.966v-0.968h0.966V134.187z
				 M117.334,134.187h-0.966v-0.968h0.966V134.187z M114.437,134.187h-0.966v-0.968h0.966V134.187z M111.54,134.187h-0.966v-0.968
				h0.966V134.187z M108.643,134.187h-0.966v-0.968h0.966V134.187z M105.746,134.187h-0.966v-0.968h0.966V134.187z M102.849,134.187
				h-0.966v-0.968h0.966V134.187z M99.951,134.187h-0.966v-0.968h0.966V134.187z M97.054,134.187h-0.966v-0.968h0.966V134.187z
				 M94.157,134.187h-0.966v-0.968h0.966V134.187z M91.26,134.187h-0.966v-0.968h0.966V134.187z"/>
			<path style="fill:#C3D4E0;" d="M122.646,141.813h-0.483v-0.968h0.483V141.813z M120.231,141.813h-0.966v-0.968h0.966V141.813z
				 M117.334,141.813h-0.966v-0.968h0.966V141.813z M114.437,141.813h-0.966v-0.968h0.966V141.813z M111.54,141.813h-0.966v-0.968
				h0.966V141.813z M108.643,141.813h-0.966v-0.968h0.966V141.813z M105.746,141.813h-0.966v-0.968h0.966V141.813z M102.849,141.813
				h-0.966v-0.968h0.966V141.813z M99.951,141.813h-0.966v-0.968h0.966V141.813z M97.054,141.813h-0.966v-0.968h0.966V141.813z
				 M94.157,141.813h-0.966v-0.968h0.966V141.813z M91.26,141.813h-0.966v-0.968h0.966V141.813z"/>
			<path style="fill:#C3D4E0;" d="M57.518,37.142l3.863-3.416c1.622-1.461,2.221-2.284,2.221-3.348
				c0.001-0.561-0.228-1.097-0.634-1.483s-0.951-0.588-1.51-0.559c-1.217,0-2.009,0.639-2.897,1.829l-0.879-0.639
				c0.745-1.439,2.246-2.323,3.863-2.274c0.845-0.067,1.679,0.22,2.305,0.792c0.626,0.572,0.987,1.379,0.998,2.228
				c0,1.558-0.821,2.516-2.694,4.142l-2.839,2.526h5.64v1.094h-7.436V37.142z"/>
			<path style="fill:#C3D4E0;" d="M67.755,36.465c0.384,0,0.695,0.312,0.695,0.697v0.203c0,0.385-0.311,0.697-0.695,0.697
				s-0.695-0.312-0.695-0.697v-0.203C67.059,36.776,67.371,36.465,67.755,36.465z"/>
			
				<ellipse transform="matrix(0.0356 -0.9994 0.9994 0.0356 22.6802 186.9427)" style="fill:#19BC9C;" cx="108.2" cy="81.72" rx="1.236" ry="1.239"/>
			
				<ellipse transform="matrix(0.0356 -0.9994 0.9994 0.0356 23.98 203.5739)" style="fill:#19BC9C;" cx="117.467" cy="89.362" rx="1.236" ry="1.239"/>
			
				<ellipse transform="matrix(0.7569 -0.6536 0.6536 0.7569 -53.2407 109.019)" style="fill:#19BC9C;" cx="119.912" cy="126.07" rx="1.236" ry="1.239"/>
			
				<ellipse transform="matrix(0.7569 -0.6536 0.6536 0.7569 -60.1757 105.0206)" style="fill:#19BC9C;" cx="111.07" cy="133.392" rx="1.236" ry="1.239"/>
			
				<ellipse transform="matrix(0.0356 -0.9994 0.9994 0.0356 -10.7462 225.7621)" style="fill:#F56F40;" cx="111.6" cy="118.449" rx="1.236" ry="1.239"/>
			
				<ellipse transform="matrix(0.0356 -0.9994 0.9994 0.0356 46.3675 180.9946)" style="fill:#F56F40;" cx="116.962" cy="66.473" rx="1.236" ry="1.239"/>
			<path style="fill:#19BC9C;" d="M101.014,37.297c-1.999-0.745-2.897-2.371-2.279-4.113c0.308-1.003,1.232-1.689,2.279-1.694
				c-0.62-0.637-0.788-1.588-0.425-2.4c0.579-1.568,2.154-2.177,4.008-1.49c1.854,0.687,2.656,2.168,2.067,3.745
				c-0.267,0.862-1.033,1.472-1.931,1.539c0.787,0.688,1.04,1.806,0.628,2.768C104.761,37.403,103.003,38.032,101.014,37.297z
				 M102.569,33.068c-0.63-0.186-1.292,0.166-1.491,0.793c-0.199,0.627,0.138,1.298,0.759,1.511c0.621,0.213,1.298-0.11,1.525-0.727
				c0.146-0.312,0.141-0.674-0.013-0.982S102.906,33.136,102.569,33.068z M103.882,29.506c-0.369-0.131-0.78-0.027-1.042,0.265
				c-0.262,0.292-0.322,0.713-0.152,1.066c0.169,0.353,0.535,0.569,0.925,0.547c0.391-0.022,0.729-0.279,0.857-0.649
				c0.108-0.238,0.105-0.513-0.009-0.748c-0.114-0.236-0.326-0.408-0.58-0.471V29.506z"/>
			<path style="fill:#19BC9C;" d="M109.048,40.065l0.676-1.829l-3.863-1.432l0.686-1.858l5.939-4.229l2.134,0.794l-2.067,5.594
				l0.802,0.3l-0.715,1.935l-0.802-0.3l-0.676,1.829L109.048,40.065z M111.453,33.697l-2.627,1.935l1.7,0.629l0.966-2.632
				L111.453,33.697z"/>
			<path style="fill:#19BC9C;" d="M113.529,41.777l9.068-7.258l1.535,0.571l-9.078,7.258L113.529,41.777z M115.239,34.161
				c0.327-0.925,1.18-1.561,2.158-1.608c0.978-0.048,1.888,0.501,2.304,1.39c0.416,0.889,0.254,1.941-0.409,2.664
				c-0.663,0.723-1.696,0.972-2.614,0.632c-0.605-0.222-1.097-0.677-1.367-1.263c-0.27-0.587-0.296-1.257-0.072-1.862V34.161z
				 M118.377,35.323c0.147-0.369,0.054-0.79-0.234-1.062s-0.713-0.341-1.072-0.173c-0.359,0.168-0.579,0.539-0.555,0.935
				c0.024,0.396,0.287,0.738,0.663,0.861c0.498,0.154,1.028-0.116,1.197-0.61V35.323z M117.923,41.023
				c0.471-1.247,1.861-1.877,3.107-1.408s1.878,1.861,1.413,3.11s-1.852,1.886-3.1,1.423c-0.614-0.225-1.11-0.69-1.378-1.287
				c-0.267-0.598-0.282-1.278-0.042-1.887V41.023z M121.062,42.184c0.147-0.369,0.054-0.79-0.234-1.062
				c-0.288-0.272-0.713-0.341-1.072-0.173c-0.359,0.168-0.579,0.539-0.555,0.935c0.024,0.396,0.287,0.738,0.663,0.861
				c0.498,0.154,1.028-0.116,1.197-0.61V42.184z"/>
			<path style="fill:#D0E4F1;" d="M5.768,45.648h90.578c0.812,0,1.471,0.659,1.471,1.471v130.365c0,0.812-0.659,1.471-1.471,1.471
				H5.768c-0.812,0-1.471-0.659-1.471-1.471V47.119C4.297,46.307,4.956,45.648,5.768,45.648z"/>
			<path style="fill:#D0E4F1;" d="M96.349,179.448H5.775c-1.067,0-1.931-0.867-1.931-1.935V47.129c0-1.069,0.865-1.935,1.931-1.935
				h90.574c1.067,0,1.931,0.867,1.931,1.935v130.355c0.008,0.518-0.192,1.018-0.555,1.387S96.867,179.448,96.349,179.448z
				 M5.775,46.132c-0.533,0-0.966,0.433-0.966,0.968v130.384c0,0.534,0.432,0.968,0.966,0.968h90.574
				c0.533,0,0.966-0.433,0.966-0.968V47.129c0-0.534-0.432-0.968-0.966-0.968L5.775,46.132z"/>
			<path style="fill:#FFFFFF;" d="M1.954,42.697h90.578c0.812,0,1.471,0.659,1.471,1.471v130.365c0,0.812-0.659,1.471-1.471,1.471
				H1.954c-0.812,0-1.471-0.659-1.471-1.471V44.168C0.483,43.355,1.141,42.697,1.954,42.697z"/>
			<path style="fill:#3F555A;" d="M92.535,176.497H1.96c-1.067,0-1.931-0.867-1.931-1.935V44.177c0-1.069,0.865-1.935,1.931-1.935
				h90.574c1.067,0,1.931,0.867,1.931,1.935v130.365c0.005,0.517-0.196,1.014-0.559,1.381
				C93.545,176.29,93.05,176.497,92.535,176.497z M1.96,43.19c-0.533,0-0.966,0.433-0.966,0.968v130.384
				c0,0.534,0.432,0.968,0.966,0.968h90.574c0.533,0,0.966-0.433,0.966-0.968V44.177c0-0.534-0.432-0.968-0.966-0.968L1.96,43.19z"
				/>
			<polygon style="fill:#F3F6F7;" points="8.102,89.361 40.454,89.361 40.454,96.987 8.102,96.987 			"/>
			<polygon style="fill:#F3F6F7;" points="8.102,104.613 40.454,104.613 40.454,112.239 8.102,112.239 			"/>
			<polygon style="fill:#F3F6F7;" points="54.022,89.361 86.373,89.361 86.373,96.987 54.022,96.987 			"/>
			<polygon style="fill:#F3F6F7;" points="54.022,104.613 86.373,104.613 86.373,112.239 54.022,112.239 			"/>
			<polygon style="fill:#F3F6F7;" points="8.102,141.368 40.454,141.368 40.454,148.994 8.102,148.994 			"/>
			<polygon style="fill:#F3F6F7;" points="8.102,156.619 40.454,156.619 40.454,164.245 8.102,164.245 			"/>
			<polygon style="fill:#F3F6F7;" points="54.022,141.368 86.373,141.368 86.373,148.994 54.022,148.994 			"/>
			<polygon style="fill:#F3F6F7;" points="54.022,156.619 86.373,156.619 86.373,164.245 54.022,164.245 			"/>
			<path style="fill:#C3D4E0;" d="M8.112,61.81c-0.161-0.001-0.31-0.082-0.399-0.215c-0.089-0.134-0.106-0.303-0.045-0.452
				l4.635-10.984c0.076-0.178,0.251-0.294,0.444-0.294c0.194,0,0.368,0.116,0.444,0.294l4.983,10.839
				c0.112,0.243,0.006,0.531-0.237,0.644c-0.243,0.112-0.53,0.006-0.642-0.237l-4.529-9.861l-4.249,9.977
				C8.447,61.684,8.29,61.796,8.112,61.81z"/>
			<path style="fill:#C3D4E0;" d="M9.039,59.603c-0.267,0-0.483-0.217-0.483-0.484s0.216-0.484,0.483-0.484l7.726-0.106
				c0.267,0,0.483,0.217,0.483,0.484c0,0.267-0.216,0.484-0.483,0.484L9.039,59.603z"/>
			<polygon style="fill:#3F555A;" points="8.102,73.916 13.279,73.916 13.279,75.852 8.102,75.852 			"/>
			<rect x="8.102" y="81.532" style="fill:#3F555A;" width="32.351" height="1.935"/>
			<path style="fill:#C3D4E0;" d="M40.454,90.619h-0.483v-0.968h0.483V90.619z M38.039,90.619h-0.966v-0.968h0.966V90.619z
				 M35.142,90.619h-0.966v-0.968h0.966V90.619z M32.245,90.619h-0.966v-0.968h0.966V90.619z M29.348,90.619h-0.966v-0.968h0.966
				V90.619z M26.451,90.619h-0.966v-0.968h0.966V90.619z M23.554,90.619h-0.966v-0.968h0.966V90.619z M20.657,90.619h-0.966v-0.968
				h0.966V90.619z M17.759,90.619h-0.966v-0.968h0.966V90.619z M14.862,90.619h-0.966v-0.968h0.966V90.619z M11.965,90.619h-0.966
				v-0.968h0.966V90.619z M9.068,90.619H8.102v-0.968h0.966V90.619z"/>
			<path style="fill:#C3D4E0;" d="M40.454,98.245h-0.483v-0.968h0.483V98.245z M38.039,98.245h-0.966v-0.968h0.966V98.245z
				 M35.142,98.245h-0.966v-0.968h0.966V98.245z M32.245,98.245h-0.966v-0.968h0.966V98.245z M29.348,98.245h-0.966v-0.968h0.966
				V98.245z M26.451,98.245h-0.966v-0.968h0.966V98.245z M23.554,98.245h-0.966v-0.968h0.966V98.245z M20.657,98.245h-0.966v-0.968
				h0.966V98.245z M17.759,98.245h-0.966v-0.968h0.966V98.245z M14.862,98.245h-0.966v-0.968h0.966V98.245z M11.965,98.245h-0.966
				v-0.968h0.966V98.245z M9.068,98.245H8.102v-0.968h0.966V98.245z"/>
			<path style="fill:#C3D4E0;" d="M40.454,105.871h-0.483v-0.968h0.483V105.871z M38.039,105.871h-0.966v-0.968h0.966V105.871z
				 M35.142,105.871h-0.966v-0.968h0.966V105.871z M32.245,105.871h-0.966v-0.968h0.966V105.871z M29.348,105.871h-0.966v-0.968
				h0.966V105.871z M26.451,105.871h-0.966v-0.968h0.966V105.871z M23.554,105.871h-0.966v-0.968h0.966V105.871z M20.657,105.871
				h-0.966v-0.968h0.966V105.871z M17.759,105.871h-0.966v-0.968h0.966V105.871z M14.862,105.871h-0.966v-0.968h0.966V105.871z
				 M11.965,105.871h-0.966v-0.968h0.966V105.871z M9.068,105.871H8.102v-0.968h0.966V105.871z"/>
			<path style="fill:#C3D4E0;" d="M40.454,113.497h-0.483v-0.968h0.483V113.497z M38.039,113.497h-0.966v-0.968h0.966V113.497z
				 M35.142,113.497h-0.966v-0.968h0.966V113.497z M32.245,113.497h-0.966v-0.968h0.966V113.497z M29.348,113.497h-0.966v-0.968
				h0.966V113.497z M26.451,113.497h-0.966v-0.968h0.966V113.497z M23.554,113.497h-0.966v-0.968h0.966V113.497z M20.657,113.497
				h-0.966v-0.968h0.966V113.497z M17.759,113.497h-0.966v-0.968h0.966V113.497z M14.862,113.497h-0.966v-0.968h0.966V113.497z
				 M11.965,113.497h-0.966v-0.968h0.966V113.497z M9.068,113.497H8.102v-0.968h0.966V113.497z"/>
			<rect x="54.022" y="73.916" style="fill:#3F555A;" width="5.176" height="1.935"/>
			<rect x="54.022" y="81.532" style="fill:#3F555A;" width="32.351" height="1.935"/>
			<path style="fill:#C3D4E0;" d="M86.373,90.619h-0.483v-0.968h0.483V90.619z M83.959,90.619h-0.966v-0.968h0.966V90.619z
				 M81.062,90.619h-0.966v-0.968h0.966V90.619z M78.165,90.619h-0.966v-0.968h0.966V90.619z M75.268,90.619h-0.966v-0.968h0.966
				V90.619z M72.371,90.619h-0.966v-0.968h0.966V90.619z M69.473,90.619h-0.966v-0.968h0.966V90.619z M66.576,90.619h-0.966v-0.968
				h0.966V90.619z M63.679,90.619h-0.966v-0.968h0.966V90.619z M60.782,90.619h-0.966v-0.968h0.966V90.619z M57.885,90.619h-0.966
				v-0.968h0.966V90.619z M54.988,90.619h-0.966v-0.968h0.966V90.619z"/>
			<path style="fill:#C3D4E0;" d="M86.373,98.245h-0.483v-0.968h0.483V98.245z M83.959,98.245h-0.966v-0.968h0.966V98.245z
				 M81.062,98.245h-0.966v-0.968h0.966V98.245z M78.165,98.245h-0.966v-0.968h0.966V98.245z M75.268,98.245h-0.966v-0.968h0.966
				V98.245z M72.371,98.245h-0.966v-0.968h0.966V98.245z M69.473,98.245h-0.966v-0.968h0.966V98.245z M66.576,98.245h-0.966v-0.968
				h0.966V98.245z M63.679,98.245h-0.966v-0.968h0.966V98.245z M60.782,98.245h-0.966v-0.968h0.966V98.245z M57.885,98.245h-0.966
				v-0.968h0.966V98.245z M54.988,98.245h-0.966v-0.968h0.966V98.245z"/>
			<path style="fill:#C3D4E0;" d="M86.373,105.871h-0.483v-0.968h0.483V105.871z M83.959,105.871h-0.966v-0.968h0.966V105.871z
				 M81.062,105.871h-0.966v-0.968h0.966V105.871z M78.165,105.871h-0.966v-0.968h0.966V105.871z M75.268,105.871h-0.966v-0.968
				h0.966V105.871z M72.371,105.871h-0.966v-0.968h0.966V105.871z M69.473,105.871h-0.966v-0.968h0.966V105.871z M66.576,105.871
				h-0.966v-0.968h0.966V105.871z M63.679,105.871h-0.966v-0.968h0.966V105.871z M60.782,105.871h-0.966v-0.968h0.966V105.871z
				 M57.885,105.871h-0.966v-0.968h0.966V105.871z M54.988,105.871h-0.966v-0.968h0.966V105.871z"/>
			<path style="fill:#C3D4E0;" d="M86.373,113.497h-0.483v-0.968h0.483V113.497z M83.959,113.497h-0.966v-0.968h0.966V113.497z
				 M81.062,113.497h-0.966v-0.968h0.966V113.497z M78.165,113.497h-0.966v-0.968h0.966V113.497z M75.268,113.497h-0.966v-0.968
				h0.966V113.497z M72.371,113.497h-0.966v-0.968h0.966V113.497z M69.473,113.497h-0.966v-0.968h0.966V113.497z M66.576,113.497
				h-0.966v-0.968h0.966V113.497z M63.679,113.497h-0.966v-0.968h0.966V113.497z M60.782,113.497h-0.966v-0.968h0.966V113.497z
				 M57.885,113.497h-0.966v-0.968h0.966V113.497z M54.988,113.497h-0.966v-0.968h0.966V113.497z"/>
			<polygon style="fill:#3F555A;" points="8.102,125.903 13.279,125.903 13.279,127.839 8.102,127.839 			"/>
			<rect x="8.102" y="133.51" style="fill:#3F555A;" width="32.351" height="1.935"/>
			<path style="fill:#C3D4E0;" d="M40.454,142.587h-0.483v-0.968h0.483V142.587z M38.039,142.587h-0.966v-0.968h0.966V142.587z
				 M35.142,142.587h-0.966v-0.968h0.966V142.587z M32.245,142.587h-0.966v-0.968h0.966V142.587z M29.348,142.587h-0.966v-0.968
				h0.966V142.587z M26.451,142.587h-0.966v-0.968h0.966V142.587z M23.554,142.587h-0.966v-0.968h0.966V142.587z M20.657,142.587
				h-0.966v-0.968h0.966V142.587z M17.759,142.587h-0.966v-0.968h0.966V142.587z M14.862,142.587h-0.966v-0.968h0.966V142.587z
				 M11.965,142.587h-0.966v-0.968h0.966V142.587z M9.068,142.587H8.102v-0.968h0.966V142.587z"/>
			<path style="fill:#C3D4E0;" d="M40.454,150.213h-0.483v-0.968h0.483V150.213z M38.039,150.213h-0.966v-0.968h0.966V150.213z
				 M35.142,150.213h-0.966v-0.968h0.966V150.213z M32.245,150.213h-0.966v-0.968h0.966V150.213z M29.348,150.213h-0.966v-0.968
				h0.966V150.213z M26.451,150.213h-0.966v-0.968h0.966V150.213z M23.554,150.213h-0.966v-0.968h0.966V150.213z M20.657,150.213
				h-0.966v-0.968h0.966V150.213z M17.759,150.213h-0.966v-0.968h0.966V150.213z M14.862,150.213h-0.966v-0.968h0.966V150.213z
				 M11.965,150.213h-0.966v-0.968h0.966V150.213z M9.068,150.213H8.102v-0.968h0.966V150.213z"/>
			<path style="fill:#C3D4E0;" d="M40.454,157.839h-0.483v-0.968h0.483V157.839z M38.039,157.839h-0.966v-0.968h0.966V157.839z
				 M35.142,157.839h-0.966v-0.968h0.966V157.839z M32.245,157.839h-0.966v-0.968h0.966V157.839z M29.348,157.839h-0.966v-0.968
				h0.966V157.839z M26.451,157.839h-0.966v-0.968h0.966V157.839z M23.554,157.839h-0.966v-0.968h0.966V157.839z M20.657,157.839
				h-0.966v-0.968h0.966V157.839z M17.759,157.839h-0.966v-0.968h0.966V157.839z M14.862,157.839h-0.966v-0.968h0.966V157.839z
				 M11.965,157.839h-0.966v-0.968h0.966V157.839z M9.068,157.839H8.102v-0.968h0.966V157.839z"/>
			<path style="fill:#C3D4E0;" d="M40.454,165.465h-0.483v-0.968h0.483V165.465z M38.039,165.465h-0.966v-0.968h0.966V165.465z
				 M35.142,165.465h-0.966v-0.968h0.966V165.465z M32.245,165.465h-0.966v-0.968h0.966V165.465z M29.348,165.465h-0.966v-0.968
				h0.966V165.465z M26.451,165.465h-0.966v-0.968h0.966V165.465z M23.554,165.465h-0.966v-0.968h0.966V165.465z M20.657,165.465
				h-0.966v-0.968h0.966V165.465z M17.759,165.465h-0.966v-0.968h0.966V165.465z M14.862,165.465h-0.966v-0.968h0.966V165.465z
				 M11.965,165.465h-0.966v-0.968h0.966V165.465z M9.068,165.465H8.102v-0.968h0.966V165.465z"/>
			<rect x="54.022" y="125.903" style="fill:#3F555A;" width="5.176" height="1.935"/>
			<rect x="54.022" y="133.51" style="fill:#3F555A;" width="32.351" height="1.935"/>
			<path style="fill:#C3D4E0;" d="M86.373,142.587h-0.483v-0.968h0.483V142.587z M83.959,142.587h-0.966v-0.968h0.966V142.587z
				 M81.062,142.587h-0.966v-0.968h0.966V142.587z M78.165,142.587h-0.966v-0.968h0.966V142.587z M75.268,142.587h-0.966v-0.968
				h0.966V142.587z M72.371,142.587h-0.966v-0.968h0.966V142.587z M69.473,142.587h-0.966v-0.968h0.966V142.587z M66.576,142.587
				h-0.966v-0.968h0.966V142.587z M63.679,142.587h-0.966v-0.968h0.966V142.587z M60.782,142.587h-0.966v-0.968h0.966V142.587z
				 M57.885,142.587h-0.966v-0.968h0.966V142.587z M54.988,142.587h-0.966v-0.968h0.966V142.587z"/>
			<path style="fill:#C3D4E0;" d="M86.373,150.213h-0.483v-0.968h0.483V150.213z M83.959,150.213h-0.966v-0.968h0.966V150.213z
				 M81.062,150.213h-0.966v-0.968h0.966V150.213z M78.165,150.213h-0.966v-0.968h0.966V150.213z M75.268,150.213h-0.966v-0.968
				h0.966V150.213z M72.371,150.213h-0.966v-0.968h0.966V150.213z M69.473,150.213h-0.966v-0.968h0.966V150.213z M66.576,150.213
				h-0.966v-0.968h0.966V150.213z M63.679,150.213h-0.966v-0.968h0.966V150.213z M60.782,150.213h-0.966v-0.968h0.966V150.213z
				 M57.885,150.213h-0.966v-0.968h0.966V150.213z M54.988,150.213h-0.966v-0.968h0.966V150.213z"/>
			<path style="fill:#C3D4E0;" d="M86.373,157.839h-0.483v-0.968h0.483V157.839z M83.959,157.839h-0.966v-0.968h0.966V157.839z
				 M81.062,157.839h-0.966v-0.968h0.966V157.839z M78.165,157.839h-0.966v-0.968h0.966V157.839z M75.268,157.839h-0.966v-0.968
				h0.966V157.839z M72.371,157.839h-0.966v-0.968h0.966V157.839z M69.473,157.839h-0.966v-0.968h0.966V157.839z M66.576,157.839
				h-0.966v-0.968h0.966V157.839z M63.679,157.839h-0.966v-0.968h0.966V157.839z M60.782,157.839h-0.966v-0.968h0.966V157.839z
				 M57.885,157.839h-0.966v-0.968h0.966V157.839z M54.988,157.839h-0.966v-0.968h0.966V157.839z"/>
			<path style="fill:#C3D4E0;" d="M86.373,165.465h-0.483v-0.968h0.483V165.465z M83.959,165.465h-0.966v-0.968h0.966V165.465z
				 M81.062,165.465h-0.966v-0.968h0.966V165.465z M78.165,165.465h-0.966v-0.968h0.966V165.465z M75.268,165.465h-0.966v-0.968
				h0.966V165.465z M72.371,165.465h-0.966v-0.968h0.966V165.465z M69.473,165.465h-0.966v-0.968h0.966V165.465z M66.576,165.465
				h-0.966v-0.968h0.966V165.465z M63.679,165.465h-0.966v-0.968h0.966V165.465z M60.782,165.465h-0.966v-0.968h0.966V165.465z
				 M57.885,165.465h-0.966v-0.968h0.966V165.465z M54.988,165.465h-0.966v-0.968h0.966V165.465z"/>
			<path style="fill:#C3D4E0;" d="M21.864,59.739l0.869-0.774c0.727,0.998,1.886,1.587,3.119,1.587
				c0.587,0.054,1.17-0.138,1.611-0.531c0.441-0.392,0.7-0.95,0.716-1.54c0-1.326-1.236-2.061-2.984-2.061H24.51l-0.241-0.716
				l3.361-3.794h-5.196v-1.123h6.76v0.881L25.9,55.394c1.854,0.155,3.515,1.055,3.515,3c-0.027,0.905-0.421,1.76-1.092,2.367
				c-0.671,0.607-1.56,0.912-2.462,0.846C24.307,61.666,22.818,60.971,21.864,59.739z"/>
			<path style="fill:#C3D4E0;" d="M32.284,59.855c0.384,0,0.695,0.312,0.695,0.697v0.194c0,0.385-0.311,0.697-0.695,0.697
				c-0.384,0-0.695-0.312-0.695-0.697v-0.194C31.589,60.167,31.9,59.855,32.284,59.855z"/>
			<ellipse style="fill:#19BC9C;" cx="11.637" cy="97.752" rx="1.236" ry="1.239"/>
			<ellipse style="fill:#19BC9C;" cx="26.306" cy="90.271" rx="1.236" ry="1.239"/>
			<ellipse style="fill:#19BC9C;" cx="23.1" cy="105.377" rx="1.236" ry="1.239"/>
			
				<ellipse transform="matrix(0.0356 -0.9994 0.9994 0.0356 -95.668 125.9162)" style="fill:#19BC9C;" cx="17.407" cy="112.526" rx="1.236" ry="1.239"/>
			
				<ellipse transform="matrix(0.0356 -0.9994 0.9994 0.0356 -71.6831 136.4651)" style="fill:#19BC9C;" cx="34.865" cy="105.373" rx="1.236" ry="1.239"/>
			
				<ellipse transform="matrix(0.0356 -0.9994 0.9994 0.0356 -121.2179 173.8329)" style="fill:#19BC9C;" cx="29.459" cy="149.723" rx="1.236" ry="1.239"/>
			<ellipse style="fill:#19BC9C;" cx="80" cy="141.929" rx="1.236" ry="1.239"/>
			
				<ellipse transform="matrix(0.0356 -0.9994 0.9994 0.0356 -85.867 210.4732)" style="fill:#19BC9C;" cx="66.118" cy="149.727" rx="1.236" ry="1.239"/>
			
				<ellipse transform="matrix(0.0356 -0.9994 0.9994 0.0356 -85.0973 226.5151)" style="fill:#19BC9C;" cx="74.815" cy="157.349" rx="1.236" ry="1.239"/>
			
				<ellipse transform="matrix(0.0356 -0.9994 0.9994 0.0356 -101.0508 209.5002)" style="fill:#F56F40;" cx="58.022" cy="157.107" rx="1.236" ry="1.239"/>
			
				<ellipse transform="matrix(0.0356 -0.9994 0.9994 0.0356 -101.6311 224.6421)" style="fill:#19BC9C;" cx="65.578" cy="164.979" rx="1.236" ry="1.239"/>
			
				<ellipse transform="matrix(0.0356 -0.9994 0.9994 0.0356 -84.636 242.2563)" style="fill:#19BC9C;" cx="83.202" cy="164.98" rx="1.236" ry="1.239"/>
			
				<ellipse transform="matrix(0.0356 -0.9994 0.9994 0.0356 -85.8774 194.8388)" style="fill:#19BC9C;" cx="58.013" cy="141.915" rx="1.236" ry="1.239"/>
			
				<ellipse transform="matrix(0.0356 -0.9994 0.9994 0.0356 -41.5438 167.7175)" style="fill:#19BC9C;" cx="66.127" cy="105.384" rx="1.236" ry="1.239"/>
			
				<ellipse transform="matrix(0.0356 -0.9994 0.9994 0.0356 -46.4195 177.9017)" style="fill:#19BC9C;" cx="68.966" cy="113.002" rx="1.236" ry="1.239"/>
			
				<ellipse transform="matrix(0.0356 -0.9994 0.9994 0.0356 -30.1074 179.5447)" style="fill:#19BC9C;" cx="77.973" cy="105.372" rx="1.236" ry="1.239"/>
			
				<ellipse transform="matrix(0.0356 -0.9994 0.9994 0.0356 -20.6839 158.8164)" style="fill:#19BC9C;" cx="71.945" cy="90.125" rx="1.236" ry="1.239"/>
			
				<ellipse transform="matrix(0.0356 -0.9994 0.9994 0.0356 -85.1452 137.6381)" style="fill:#19BC9C;" cx="28.741" cy="112.935" rx="1.236" ry="1.239"/>
			
				<ellipse transform="matrix(0.0356 -0.9994 0.9994 0.0356 -121.8519 157.3895)" style="fill:#19BC9C;" cx="20.622" cy="141.83" rx="1.236" ry="1.239"/>
			
				<ellipse transform="matrix(0.0356 -0.9994 0.9994 0.0356 -138.3579 156.0876)" style="fill:#19BC9C;" cx="11.694" cy="149.731" rx="1.236" ry="1.239"/>
			
				<ellipse transform="matrix(0.0356 -0.9994 0.9994 0.0356 -113.8731 166.2712)" style="fill:#19BC9C;" cx="29.213" cy="142.136" rx="1.236" ry="1.239"/>
			
				<ellipse transform="matrix(0.0356 -0.9994 0.9994 0.0356 -120.198 189.6723)" style="fill:#19BC9C;" cx="38.175" cy="157.114" rx="1.236" ry="1.239"/>
			
				<ellipse transform="matrix(0.0356 -0.9994 0.9994 0.0356 -138.0607 171.6199)" style="fill:#19BC9C;" cx="19.891" cy="157.343" rx="1.236" ry="1.239"/>
			
				<ellipse transform="matrix(0.0356 -0.9994 0.9994 0.0356 -154.1123 170.2472)" style="fill:#19BC9C;" cx="11.154" cy="164.973" rx="1.236" ry="1.239"/>
			
				<ellipse transform="matrix(0.0356 -0.9994 0.9994 0.0356 -129.0394 196.2234)" style="fill:#19BC9C;" cx="37.149" cy="164.971" rx="1.236" ry="1.239"/>
			
				<ellipse transform="matrix(0.0356 -0.9994 0.9994 0.0356 -54.8656 168.756)" style="fill:#19BC9C;" cx="60.004" cy="112.805" rx="1.236" ry="1.239"/>
			<ellipse style="fill:#19BC9C;" cx="20.386" cy="90.126" rx="1.236" ry="1.239"/>
			<ellipse style="fill:#19BC9C;" cx="36.987" cy="90.126" rx="1.236" ry="1.239"/>
			
				<ellipse transform="matrix(0.5941 -0.8044 0.8044 0.5941 -64.6689 67.3377)" style="fill:#19BC9C;" cx="34.391" cy="97.75" rx="1.236" ry="1.239"/>
			
				<ellipse transform="matrix(0.5941 -0.8044 0.8044 0.5941 -55.2063 86.1029)" style="fill:#19BC9C;" cx="57.717" cy="97.756" rx="1.236" ry="1.239"/>
			<path style="fill:#19BC9C;" d="M61.188,59.7l2.945-2.516c-0.233,0.047-0.472,0.047-0.705,0c-0.78-0.284-1.411-0.872-1.75-1.631
				c-0.339-0.759-0.355-1.623-0.046-2.394l0.077-0.242c0.677-1.757,2.603-2.681,4.394-2.11c1.791,0.572,2.828,2.442,2.366,4.268
				v0.097c-0.321,0.976-0.918,1.837-1.719,2.477l-3.187,2.816L61.188,59.7z M66.335,54.358c0.202-0.442,0.131-0.961-0.181-1.333
				c-0.312-0.372-0.811-0.53-1.28-0.407c-0.469,0.124-0.825,0.507-0.915,0.985l-0.048,0.155c-0.202,0.442-0.131,0.961,0.181,1.333
				c0.312,0.372,0.811,0.53,1.28,0.407c0.469-0.124,0.825-0.507,0.915-0.985L66.335,54.358z"/>
			<path style="fill:#19BC9C;" d="M75.219,60.677c-0.721,1.693-2.609,2.559-4.359,2c-1.75-0.559-2.79-2.359-2.401-4.158v-0.106
				c0.332-0.98,0.943-1.842,1.758-2.477l3.158-2.816l2.405,0.765L72.834,56.4c0.233-0.047,0.472-0.047,0.705,0
				c1.573,0.605,2.363,2.369,1.767,3.948L75.219,60.677z M73.066,59.816c0.202-0.442,0.131-0.961-0.181-1.333
				c-0.312-0.372-0.811-0.53-1.28-0.407c-0.469,0.124-0.825,0.507-0.915,0.985l-0.048,0.165c-0.202,0.442-0.131,0.961,0.181,1.333
				c0.312,0.372,0.811,0.53,1.28,0.407s0.825-0.507,0.915-0.985L73.066,59.816z"/>
			<path style="fill:#19BC9C;" d="M75.857,64.365l8.691-7.684l1.564,0.494l-8.691,7.684L75.857,64.365z M77.209,56.671
				c0.412-1.267,1.769-1.962,3.035-1.554c1.266,0.408,1.964,1.765,1.562,3.035c-0.402,1.27-1.754,1.975-3.023,1.577
				c-0.614-0.195-1.125-0.628-1.421-1.202S77.012,57.286,77.209,56.671z M80.396,57.639c0.129-0.376,0.015-0.792-0.286-1.05
				c-0.301-0.258-0.729-0.306-1.079-0.12c-0.35,0.186-0.552,0.567-0.508,0.961c0.043,0.395,0.323,0.723,0.705,0.828
				c0.481,0.139,0.988-0.113,1.169-0.581V57.639z M80.212,63.358c0.412-1.267,1.769-1.962,3.035-1.554
				c1.266,0.408,1.964,1.765,1.562,3.035c-0.402,1.27-1.754,1.975-3.023,1.577c-1.259-0.407-1.96-1.751-1.574-3.019V63.358z
				 M83.399,64.326c0.129-0.376,0.015-0.792-0.286-1.05c-0.301-0.258-0.729-0.306-1.079-0.12c-0.35,0.186-0.552,0.567-0.508,0.961
				c0.043,0.395,0.323,0.723,0.705,0.828c0.468,0.145,0.97-0.084,1.169-0.532V64.326z"/>
		</g>
	</g>
</g>
</svg>
