<svg xmlns="http://www.w3.org/2000/svg" viewBox="0 0 979.52 422.67"><title>for-teachers</title><g id="Layer_2" data-name="Layer 2"><g id="Layer_3" data-name="Layer 3"><path d="M884.77,264.16c0,14.06,17.37,18.84,34,27H78.94c6.38-3.84,10.43-8.92,10.43-16.48,0-35.4-61.26-14.09-61.26-58.11,0-49.27,138-21.28,138-52.48,0-41.33-69.84-29.91-69.84-79.19,0-57,148.69-50.56,148.69-50.56H776.65s102.63-2.46,102.63,37.78c0,45.08-45,31-45,63.73s145.28,8.1,145.28,65.92C979.52,245.69,884.77,225.57,884.77,264.16Z" style="fill:#a9d7f3;opacity:0.5"/><polygon points="107.49 291.16 108.48 239.28 169.65 187.12 340.34 187.12 340.34 291.17 384.59 291.17 383.55 229.25 397.24 187.12 567.93 187.12 584.88 239.28 624.81 239.28 624.83 187.12 795.52 187.12 857.52 239.28 857.52 291.17 107.49 291.16" style="fill:#fff;opacity:0.6"/><polygon points="312.09 239.28 340.34 187.12 169.65 187.12 107.49 239.28 312.09 239.28" style="fill:none;stroke:#a1c2d8;stroke-linecap:round;stroke-linejoin:round;stroke-width:2px"/><polygon points="584.88 239.28 567.93 187.12 397.24 187.12 380.29 239.28 584.88 239.28" style="fill:none;stroke:#a1c2d8;stroke-linecap:round;stroke-linejoin:round;stroke-width:2px"/><polygon points="795.52 187.12 857.68 239.28 653.08 239.28 624.83 187.12 795.52 187.12" style="fill:none;stroke:#a1c2d8;stroke-linecap:round;stroke-linejoin:round;stroke-width:2px"/><line x1="107.49" y1="258.28" x2="312.09" y2="258.28" style="fill:none;stroke:#a1c2d8;stroke-linecap:round;stroke-linejoin:round;stroke-width:2px"/><line x1="857.68" y1="258.28" x2="653.08" y2="258.28" style="fill:none;stroke:#a1c2d8;stroke-linecap:round;stroke-linejoin:round;stroke-width:2px"/><path d="M448.66,133.68c-.83,1.51-2.66,2.06-4.27,2.67-4.7,1.77-8.68,5-12.32,8.49-6.87,6.52-13,14.17-15.85,23.2s-1.93,19.63,4.1,26.93c-3.33,1.25-4.82,5.55-3.71,8.93s4.23,5.8,7.6,7c6.83,2.38,15.27.78,22.43,1.07q7.54.31,15.1.55c-3.52-26.57-5.34-53.3-12.89-79.26A3.65,3.65,0,0,1,448.66,133.68Z" style="fill:#fff"/><path d="M442.33,148.6q3.86,5.28,7.25,10.88" style="fill:none;stroke:#c3d4e0;stroke-linecap:round;stroke-linejoin:round;stroke-width:2px"/><path d="M428.23,155.37l5.62,7.57" style="fill:none;stroke:#c3d4e0;stroke-linecap:round;stroke-linejoin:round;stroke-width:2px"/><path d="M422.08,169.89a14.2,14.2,0,0,1,9.95,2.49" style="fill:none;stroke:#c3d4e0;stroke-linecap:round;stroke-linejoin:round;stroke-width:2px"/><path d="M424.74,182.9a24,24,0,0,1,8.49-.34" style="fill:none;stroke:#c3d4e0;stroke-linecap:round;stroke-linejoin:round;stroke-width:2px"/><path d="M550.44,168.43c-2.79-8.25-8.09-15.38-13.15-22.48l-.29-.41c-6.24-4.16-12.5-8.29-18.72-12.48-7.5,26-10.59,53-15.28,79.67a363,363,0,0,0,38.85-3.1c2.45-.34,5-.77,6.89-2.41,3.83-3.37,2.36-9.84-.86-13.8C553.13,186.46,553.24,176.68,550.44,168.43Z" style="fill:#fff"/><path d="M521.64,150.61a54.09,54.09,0,0,0-5.22,8.69" style="fill:none;stroke:#c3d4e0;stroke-linecap:round;stroke-linejoin:round;stroke-width:2px"/><path d="M534.24,153.65a73.29,73.29,0,0,1-8.26,9.56" style="fill:none;stroke:#c3d4e0;stroke-linecap:round;stroke-linejoin:round;stroke-width:2px"/><path d="M542.51,166.27a91.25,91.25,0,0,0-11.34,5.14" style="fill:none;stroke:#c3d4e0;stroke-linecap:round;stroke-linejoin:round;stroke-width:2px"/><path d="M541.2,180.15a21.59,21.59,0,0,0-10.88,0" style="fill:none;stroke:#c3d4e0;stroke-linecap:round;stroke-linejoin:round;stroke-width:2px"/><path d="M493,127.42c.68-1,1.36-2,2-3.11l-1,.15-1.8-11.67a77.9,77.9,0,0,1-18.14,1l-.5,7.58a3,3,0,0,1-.72,2.12,1.55,1.55,0,0,1-.29.18,9.86,9.86,0,0,0,2.48,3.73C479,133.42,490,133.42,493,127.42Z" style="fill:#fff"/><path d="M518.11,132.41a5.08,5.08,0,0,0-1.8-5.29,12.21,12.21,0,0,0-5.41-2.28,44.63,44.63,0,0,0-15.93-.53c-.64,1.06-1.32,2.09-2,3.11-3,6-14,6-18,0a9.86,9.86,0,0,1-2.48-3.73,3.58,3.58,0,0,1-1.72.29c-6.14-.07-12.62.15-17.83,3.39a8,8,0,0,0-3.5,3.84c-.24.67-.35,1.38-.6,2,7.55,26,9.37,52.68,12.89,79.26,13.75.43,27.52.62,41.26.21,4.73-26.94,7.83-54.16,15.46-80.32Z" style="fill:#f56f40"/><path d="M420.18,195.29c-3.05-5.55-5.92-11.47-6.08-17.81a30.24,30.24,0,0,1,2.43-11.87,48,48,0,0,1,5.7-10.36c6.87-9.49,16.91-16.1,26.82-22.35" style="fill:none;stroke:#3f555a;stroke-linecap:round;stroke-linejoin:round;stroke-width:2px"/><path d="M548.42,195.29c3.05-5.55,5.92-11.47,6.08-17.81a30.24,30.24,0,0,0-2.43-11.87,48,48,0,0,0-5.7-10.36c-6.87-9.49-16.91-16.1-26.82-22.35" style="fill:none;stroke:#3f555a;stroke-linecap:round;stroke-linejoin:round;stroke-width:2px"/><path d="M505.68,78.25a120.37,120.37,0,0,1,17.56,1.14" style="fill:none;stroke:#3f555a;stroke-linecap:round;stroke-linejoin:round;stroke-width:2px"/><circle cx="525.9" cy="80.04" r="3.81" transform="translate(380.97 591.88) rotate(-82.85)" style="fill:#f56f40;stroke:#d65129;stroke-miterlimit:10;stroke-width:2px"/><path d="M462.58,78.25a120.37,120.37,0,0,0-17.57,1" style="fill:none;stroke:#3f555a;stroke-linecap:round;stroke-linejoin:round;stroke-width:2px"/><circle cx="440.31" cy="79.83" r="3.27" transform="translate(-6.27 51.36) rotate(-6.63)" style="fill:#f56f40;stroke:#d65129;stroke-miterlimit:10;stroke-width:2px"/><path d="M455.74,157.44c-1.16-5.64-4.32-18.63-5.48-24.27a6.17,6.17,0,0,1,0-3.46,4.4,4.4,0,0,1,1.65-1.93,14.17,14.17,0,0,1,5.79-2A93.85,93.85,0,0,1,474,124.43" style="fill:none;stroke:#d65129;stroke-linecap:round;stroke-linejoin:round;stroke-width:2px"/><path d="M512.64,157.44c1.16-5.64,4.32-18.63,5.48-24.27a6.17,6.17,0,0,0,0-3.46,4.4,4.4,0,0,0-1.65-1.93,14.17,14.17,0,0,0-5.79-2,93.85,93.85,0,0,0-16.38-1.38" style="fill:none;stroke:#d65129;stroke-linecap:round;stroke-linejoin:round;stroke-width:2px"/><path d="M459.11,87.5a208.36,208.36,0,0,0,4.26,23.11,2.84,2.84,0,0,0,2.32,2.1,121.92,121.92,0,0,0,17.34,1.6,123.21,123.21,0,0,0,17.37-1.59,2.84,2.84,0,0,0,2.32-2.1c.34-1.34.65-2.71,1-4.09-14-2.45-28.2-10.58-40.67-17.85A12.79,12.79,0,0,0,459.11,87.5Z" style="fill:#e7f1f8"/><path d="M472.5,59.24c-4.49-2.5-10.56-2.89-16-1.32.4,8.14,1.17,18.7,2.61,29.59A12.79,12.79,0,0,1,463,88.68c12.47,7.28,26.65,15.4,40.67,17.85a261.75,261.75,0,0,0,4.78-32.62C496.2,72.12,484,65,472.5,59.24Z" style="fill:#fff"/><path d="M483,39.21a109.2,109.2,0,0,0-24.77,2.88,2.84,2.84,0,0,0-2.18,2.8c0,2.55.14,7.16.43,13,5.44-1.57,11.5-1.17,16,1.32,11.5,5.75,23.69,12.88,36,14.67C510,56.54,510,42.68,510,42.68A105,105,0,0,0,483,39.21Z" style="fill:#e7f1f8"/><path d="M510,42.68s0,38.79-7.28,67.94a2.84,2.84,0,0,1-2.32,2.11A123.23,123.23,0,0,1,483,114.31a121.92,121.92,0,0,1-17.34-1.6,2.84,2.84,0,0,1-2.32-2.1c-6.28-25-7.17-57.07-7.29-65.72a2.84,2.84,0,0,1,2.18-2.81A109.21,109.21,0,0,1,483,39.21,105,105,0,0,1,510,42.68Z" style="fill:none;stroke:#3f555a;stroke-linecap:round;stroke-linejoin:round;stroke-width:2px"/><path d="M508.37,43.79A40,40,0,0,1,493.64,42a23.36,23.36,0,0,1-8.15-4.28,7.53,7.53,0,0,1-2.79-4.33,6.66,6.66,0,0,1,2.11-5.7,7.27,7.27,0,0,1,5.75-1.93,7.43,7.43,0,0,1,1.85-5.83,6.52,6.52,0,0,1,5.62-2.2,7.44,7.44,0,0,1,4.31,2.77,23.75,23.75,0,0,1,4.33,8.19,41.11,41.11,0,0,1,1.92,14.85Z" style="fill:#f56f40;stroke:#d65129;stroke-miterlimit:10;stroke-width:2px"/><path d="M508.83,43.32a40.08,40.08,0,0,1,14.76,1.62,23.4,23.4,0,0,1,8.2,4.2,7.51,7.51,0,0,1,2.84,4.29,6.65,6.65,0,0,1-2.06,5.72,7.29,7.29,0,0,1-5.74,2A7.41,7.41,0,0,1,525,67a6.54,6.54,0,0,1-5.61,2.25,7.45,7.45,0,0,1-4.35-2.72,23.69,23.69,0,0,1-4.42-8.13,41,41,0,0,1-2.07-14.81Z" style="fill:#f56f40;stroke:#d65129;stroke-miterlimit:10;stroke-width:2px"/><circle cx="508.57" cy="43.82" r="8.29" transform="translate(134.28 390.91) rotate(-47.77)" style="fill:#f56f40;stroke:#d65129;stroke-miterlimit:10;stroke-width:2px"/><path d="M495.82,85c.38-4.79.75-7.68,1.13-12.46a.49.49,0,0,0-.35-.6l-1.14-.57" style="fill:none;stroke:#3f555a;stroke-linecap:round;stroke-linejoin:round;stroke-width:3px"/><path d="M469.89,85c-.19-4.8-.37-7.7-.56-12.5a.49.49,0,0,0-.42-.56l-1.2-.44" style="fill:none;stroke:#3f555a;stroke-linecap:round;stroke-linejoin:round;stroke-width:3px"/><polygon points="483.3 83.85 479.01 88.94 487.42 88.94 483.3 83.85" style="fill:#f56f40;stroke:#d65129;stroke-linecap:round;stroke-linejoin:round;stroke-width:2px"/><path d="M474.67,100.16a17.88,17.88,0,0,0,16.81-.28" style="fill:none;stroke:#3f555a;stroke-linecap:round;stroke-linejoin:round;stroke-width:2px"/><path d="M467,62.23a3.66,3.66,0,0,1,3.56,0" style="fill:none;stroke:#3f555a;stroke-linecap:round;stroke-linejoin:round;stroke-width:2px"/><path d="M494.56,62.23a3.66,3.66,0,0,1,3.56,0" style="fill:none;stroke:#3f555a;stroke-linecap:round;stroke-linejoin:round;stroke-width:2px"/><path d="M474.85,114.77v12.3c-.3,3.37,4.68,4,7,4.17,3,.16,10.61-.06,11.33-4v-12" style="fill:none;stroke:#3f555a;stroke-linecap:round;stroke-linejoin:round;stroke-width:2px"/><path d="M451,201.46c0,5.36-5.62,9.71-15,9.71s-19-.35-19-8.42,7.62-11,17-11S451,196.09,451,201.46Z" style="fill:none;stroke:#3f555a;stroke-linecap:round;stroke-linejoin:round;stroke-width:2px"/><path d="M517.59,201.46c0,5.36,5.62,9.71,15,9.71s19-.35,19-8.42-7.62-11-17-11S517.59,196.09,517.59,201.46Z" style="fill:none;stroke:#3f555a;stroke-linecap:round;stroke-linejoin:round;stroke-width:2px"/><path d="M524,227.58H441.19a5.14,5.14,0,0,1-5.08-4.39l-8.49-57.86a5.14,5.14,0,0,1,5.08-5.88h99.78a5.14,5.14,0,0,1,5.08,5.88l-8.49,57.86A5.14,5.14,0,0,1,524,227.58Z" style="fill:#d0e4f1;stroke:#3f555a;stroke-linecap:round;stroke-linejoin:round;stroke-width:2px"/><path d="M485.81,187.88a3.86,3.86,0,0,0-5.14-.05,6.26,6.26,0,0,0-1.92,5.13c.1,1.93,1.23,4.14,3.16,4.24a3.33,3.33,0,0,0,2.71-1.42,7.87,7.87,0,0,0,1.22-2.92,26.13,26.13,0,0,0,.71-4.68c-.17,2.39-.33,4.87.57,7.09a4.08,4.08,0,0,0,1.9,2.26,2.12,2.12,0,0,0,2.68-.66" style="fill:none;stroke:#fff;stroke-linecap:round;stroke-linejoin:round;stroke-width:2px"/><path d="M766.87,120.21c1.31,4.75,2.61,9.51,3.59,14.33.8,3.92.7,13.69,1.78,17.53,1.36,4.81,6.71,3.53,11.86,2.3A105.51,105.51,0,0,0,766,117.17Z" style="fill:#d0e4f1"/><path d="M784.11,128.35l-2.46-5.42a51.49,51.49,0,0,0-6.51-8.75,42,42,0,0,0-4.19-3.86l-.48-.31c-2.37-1.54-5.39-3.09-7.53-5.23.87,4.17,2,8.29,3.09,12.4a105.51,105.51,0,0,1,18.07,37.21,26.75,26.75,0,0,1,6.79-1.09H791C788.84,145.18,786.89,136.56,784.11,128.35Z" style="fill:#fff"/><path d="M723,186.13c.07-.14.59-1.06.65-1.2q3.48-7.7,7.31-15.24c-2.49-27.6-6.79-54.94-15-81.14-5.89.2-11.81.68-17.65,1.07-10.08.67-20.22,1-30.13,3-8.56,1.66-26.1,5.44-28.26,15.33a90.24,90.24,0,0,0,.72,39.47,51.86,51.86,0,0,0,6,15.48,47.47,47.47,0,0,0,11.1,12c5.54,4.38,14.5,8.78,21.1,11.26C694.65,185.93,707.25,185.92,723,186.13Z" style="fill:#19bc9c"/><path d="M739.46,90.12A97,97,0,0,0,716,88.56c8.21,26.19,12.51,53.54,15,81.14,1.7-3.36,3.43-6.7,5.22-10a11.79,11.79,0,0,1,3.58-4.56,12,12,0,0,1,5.72-1.39l9-.65C752.72,131.35,748,110.08,739.46,90.12Z" style="fill:#fff"/><path d="M766.9,112.47a36,36,0,0,0-5.95-11.29c-3.62-4.31-8.75-7.13-14.06-9a58.55,58.55,0,0,0-7.42-2.06c8.52,20,13.26,41.24,15.06,63l16.92-1.22A88.57,88.57,0,0,0,766.9,112.47Z" style="fill:#19bc9c"/><path d="M692.4,198.36h84.43l21.45,18.31a2.14,2.14,0,0,1-1.39,3.76H714.82a9.51,9.51,0,0,1-6.17-2.28l-17.91-15.28A2.56,2.56,0,0,1,692.4,198.36Z" style="fill:#d0e4f1;stroke:#3f555a;stroke-linecap:round;stroke-linejoin:round;stroke-width:2px"/><path d="M641.68,188.21a17.88,17.88,0,0,1,8.64-14.05" style="fill:none;stroke:#c3d4e0;stroke-linecap:round;stroke-linejoin:round;stroke-width:2px"/><path d="M643,102.62a8.64,8.64,0,0,1,2.9-3.11,36.6,36.6,0,0,1,17.8-6.88" style="fill:none;stroke:#109995;stroke-linecap:round;stroke-linejoin:round;stroke-width:2px"/><path d="M761.87,103.43c8.86,4.39,15.8,12.09,20.51,20.79s7.32,18.38,9.05,28.12" style="fill:none;stroke:#3f555a;stroke-linecap:round;stroke-linejoin:round;stroke-width:2px"/><path d="M751,94.39c5.61,2.77,10,7.66,12.94,13.16a62.48,62.48,0,0,1,5.84,17.75,131.54,131.54,0,0,1,2.46,26.78" style="fill:none;stroke:#109995;stroke-linecap:round;stroke-linejoin:round;stroke-width:2px"/><path d="M668.61,138.54a207.62,207.62,0,0,0,91.73-3.18" style="fill:none;stroke:#109995;stroke-linecap:round;stroke-linejoin:round;stroke-width:2px"/><path d="M668.61,129.54a207.62,207.62,0,0,0,91.73-3.18" style="fill:none;stroke:#109995;stroke-linecap:round;stroke-linejoin:round;stroke-width:2px;stroke-dasharray:0,10"/><path d="M678.25,67.25c5,10,17,21,28,18,4-2,9-4,13-7,6.95,10.92,22.75,7.06,30.81-.82a107.28,107.28,0,0,0-2.78-19c-26.81,1.12-53.77,3.67-80.39,3.13q-.37,1.71-.68,3.47C671.62,64.62,677.49,64.23,678.25,67.25Z" style="fill:#e7f1f8"/><path d="M676.78,65.56c-2.23-1.13-6.53-.84-10.58-.55a168.71,168.71,0,0,0-2.08,26.92,9.32,9.32,0,0,0,5.82,8.76c1.68.68,3.72,1.44,6,2.21A140.85,140.85,0,0,1,676.78,65.56Z" style="fill:#fff"/><path d="M678.25,67.25a2.59,2.59,0,0,0-1.47-1.69,140.85,140.85,0,0,0-.8,37.33A112.36,112.36,0,0,0,695,107.35c-.37-7.17-.95-15.39-1.11-23.83C687.26,80.17,681.38,73.51,678.25,67.25Z" style="fill:#e7f1f8"/><path d="M750.06,77.42a25.72,25.72,0,0,1-3.8,3c0,7-.33,14.07-.77,20.91l.18-.1a9.3,9.3,0,0,0,4.86-8.21C750.51,88.06,750.41,82.76,750.06,77.42Z" style="fill:#e7f1f8"/><path d="M746.26,80.46c-8.52,5.63-21,7.17-27-2.22-4,3-9,5-13,7-4.11,1.12-8.36.29-12.33-1.72.17,8.43.75,16.65,1.11,23.83a114.54,114.54,0,0,0,16.45,1.19c17.42,0,28.28-4.09,34-7.18C745.93,94.53,746.31,87.46,746.26,80.46Z" style="fill:#fff"/><path d="M693.64,29.08c-16,4.59-23.37,17-26.75,32.44q5.31.11,10.64.06C680.15,49,685.15,37.4,693.64,29.08Z" style="fill:#fff"/><path d="M714.1,27.43c-1.74-.17-3.56-.27-5.47-.27a54.17,54.17,0,0,0-15,1.92c-8.48,8.32-13.49,19.94-16.11,32.5,5.78,0,11.58-.2,17.38-.44C696.85,46.44,702,33.53,714.1,27.43Z" style="fill:#e7f1f8"/><path d="M730.92,32.91a37.47,37.47,0,0,0-16.82-5.48c-12.1,6.1-17.25,19-19.2,33.72,16.41-.65,32.88-1.87,49.3-2.62C742.1,48.6,738.11,39.67,730.92,32.91Z" style="fill:#fff"/><path d="M730.92,32.91c7.18,6.76,11.18,15.69,13.28,25.62l3.08-.14C744.62,47.86,739.76,38.56,730.92,32.91Z" style="fill:#e7f1f8"/><path d="M745.67,101.27a9.3,9.3,0,0,0,4.86-8.21c-.13-28.15-2.36-65.9-41.9-65.9s-44.11,32.16-44.52,64.76a9.32,9.32,0,0,0,5.82,8.76,112.2,112.2,0,0,0,41.54,7.86C729.08,108.55,740,104.37,745.67,101.27Z" style="fill:none;stroke:#3f555a;stroke-linecap:round;stroke-linejoin:round;stroke-width:2px"/><path d="M745.67,101.27a9.3,9.3,0,0,0,4.86-8.21c-.13-28.15-2.36-65.9-41.9-65.9s-44.11,32.16-44.52,64.76a9.32,9.32,0,0,0,5.82,8.76,112.2,112.2,0,0,0,41.54,7.86C729.08,108.55,740,104.37,745.67,101.27Z" style="fill:none;stroke:#3f555a;stroke-linecap:round;stroke-linejoin:round;stroke-width:2px"/><path d="M709.17,31.88c0-7.79,0-12.58.05-20.36" style="fill:none;stroke:#3f555a;stroke-linecap:round;stroke-linejoin:round;stroke-width:2px"/><circle cx="709.23" cy="6.26" r="5.26" style="fill:#19bc9c;stroke:#109995;stroke-linecap:round;stroke-linejoin:round;stroke-width:2px"/><path d="M684.86,63.48c1.08,6.47,4.58,15.12,15.48,16.44-3.86-7.26-7.72-14.6-11.93-21.79A4.71,4.71,0,0,0,684.86,63.48Z" style="fill:#3f555a"/><path d="M689.53,58a4.76,4.76,0,0,0-1.11.13c4.21,7.19,8.07,14.53,11.93,21.79a24,24,0,0,0,2.93.19,17.34,17.34,0,0,0,11.28-3.73c-3.71-6-7.27-12.14-10.55-18.38Z" style="fill:#55737a"/><path d="M704,58c3.28,6.25,6.84,12.35,10.55,18.38a20,20,0,0,0,5.17-6.59c2.45,4.83,6.62,9.26,13.77,10.15-3.92-7.35-8.49-14.44-12-21.94Z" style="fill:#3f555a"/><path d="M721.47,58c3.54,7.5,8.11,14.59,12,21.94a21.48,21.48,0,0,0,2.68.17,24.11,24.11,0,0,0,3.22-.21c-3.7-7.27-7.06-14.82-11.14-21.9Z" style="fill:#55737a"/><path d="M754.73,62.53a4,4,0,0,0-4-4.53h-5.52c2.56,4.05,4.91,8.22,7.21,12.41A26.87,26.87,0,0,0,754.73,62.53Z" style="fill:#3f555a"/><path d="M745.25,58h-5.33c3.41,5.34,6.86,10.87,9.94,16.46a18.23,18.23,0,0,0,2.6-4.06C750.16,66.23,747.81,62.05,745.25,58Z" style="fill:#55737a"/><path d="M728.25,58c4.08,7.08,7.44,14.63,11.14,21.9a16.09,16.09,0,0,0,10.47-5.44c-3.09-5.6-6.54-11.12-9.94-16.46Z" style="fill:#3f555a"/><path d="M751.71,58H687.65a3.09,3.09,0,0,0-3.06,3.42c.72,7,4.1,18.69,18.69,18.69,8.82,0,13.71-4.92,16.45-10.32,2.74,5.4,7.63,10.32,16.45,10.32,14.53,0,17.94-11.58,18.68-18.6A3.17,3.17,0,0,0,751.71,58Z" style="fill:none;stroke:#3f555a;stroke-linecap:round;stroke-linejoin:round;stroke-width:2px"/><line x1="684.53" y1="62" x2="663.39" y2="62" style="fill:none;stroke:#3f555a;stroke-linecap:round;stroke-linejoin:round;stroke-width:2px"/><path d="M705.11,91.52a36.83,36.83,0,0,0,26.31-.42" style="fill:none;stroke:#3f555a;stroke-linecap:round;stroke-linejoin:round;stroke-width:2px"/><path d="M638.61,103.76a16.25,16.25,0,0,0-6.35,4.48c-3.39,3.9-5,9-6,14.1a108.74,108.74,0,0,0-1.46,18.9c-.11,10.92.39,22.2,5.07,32.07,5.71,12.05,17.12,20.62,29.41,25.82l5.3-5.37c-4.91-2.47-9.13-6-13.35-9.5C628.38,165.19,621.87,128,638.61,103.76Z" style="fill:#e7f1f8"/><path d="M654.08,141.26c.21-7.11,2.51-14.06,2.43-21.17S653,105,646.08,103.21a12.17,12.17,0,0,0-7.48.54c-16.74,24.23-10.23,61.43,12.64,80.49,4.22,3.52,8.44,7,13.35,9.5l16.3-16.53C665.31,173.07,653.61,157.39,654.08,141.26Z" style="fill:#fff"/><path d="M650.74,172.86a29.63,29.63,0,0,0-8.84,14.46" style="fill:none;stroke:#c3d4e0;stroke-linecap:round;stroke-linejoin:round;stroke-width:2px"/><path d="M629.49,166.89a33.63,33.63,0,0,1,10.83-7" style="fill:none;stroke:#c3d4e0;stroke-linecap:round;stroke-linejoin:round;stroke-width:2px"/><path d="M626.54,143.82a24.29,24.29,0,0,1,12.84-3.2" style="fill:none;stroke:#c3d4e0;stroke-linecap:round;stroke-linejoin:round;stroke-width:2px"/><path d="M628,121.26a34.37,34.37,0,0,1,11.73-1.05" style="fill:none;stroke:#c3d4e0;stroke-linecap:round;stroke-linejoin:round;stroke-width:2px"/><path d="M680.9,177.22c-15.59-4.15-27.29-19.83-26.82-36,.21-7.11,2.51-14.06,2.43-21.17S653,105,646.08,103.21c-5-1.32-10.43,1.12-13.82,5s-5,9-6,14.1a108.73,108.73,0,0,0-1.46,18.9c-.11,10.92.39,22.2,5.07,32.07,5.71,12.05,17.12,20.62,29.41,25.82" style="fill:none;stroke:#3f555a;stroke-linecap:round;stroke-linejoin:round;stroke-width:2px"/><path d="M664.75,204.47c-3.68-3.13-6.06-8-5.4-12.79.82-6,6-10.45,11.52-12.86a28.58,28.58,0,0,1,19.18-1.6,21.84,21.84,0,0,1,14.25,12.49,14.16,14.16,0,0,1,1.08,5.47c-.13,5.8-4.86,10.7-10.28,12.78C686.12,211.41,672.31,210.88,664.75,204.47Z" style="fill:#fff"/><path d="M664.75,204.47c-3.68-3.13-6.06-8-5.4-12.79.82-6,6-10.45,11.52-12.86a28.58,28.58,0,0,1,19.18-1.6,21.84,21.84,0,0,1,14.25,12.49,14.16,14.16,0,0,1,1.08,5.47c-.13,5.8-4.86,10.7-10.28,12.78C686.12,211.41,672.31,210.88,664.75,204.47Z" style="fill:none;stroke:#3f555a;stroke-linecap:round;stroke-linejoin:round;stroke-width:2px"/><path d="M714.63,216.42h85.49a7.64,7.64,0,0,0,6.86-4.28l26.5-54.07a3.51,3.51,0,0,0-3.15-5.05H744.83A7.64,7.64,0,0,0,738,157.3l-26.5,54.07A3.51,3.51,0,0,0,714.63,216.42Z" style="fill:#d0e4f1;stroke:#3f555a;stroke-linecap:round;stroke-linejoin:round;stroke-width:2px"/><path d="M775.37,182.05a1.43,1.43,0,0,0,0-1.68,1.91,1.91,0,0,0-1.76-.65,3.4,3.4,0,0,0-1.8,1.08,13.61,13.61,0,0,0-3.67,6.36,3.16,3.16,0,0,0,0,1.83,1.61,1.61,0,0,0,1.52,1.06,2.54,2.54,0,0,0,1.29-.53c3.14-2.14,4.93-5.42,6.51-8.61a11,11,0,0,0-1.76,5.87,3,3,0,0,0,.43,2.18,1.55,1.55,0,0,0,2.2.18" style="fill:none;stroke:#fff;stroke-linecap:round;stroke-linejoin:round;stroke-width:2px"/><path d="M948.82,332.14c0,65.08-142.69,65.28-142.69,65.28H117.74S.5,397.68.5,344.81c0-42.19,55-39.5,78.44-53.65H918.78C934.11,298.66,948.82,309,948.82,332.14Z" style="fill:#a9d7f3;stroke:#a9d7f3;stroke-miterlimit:10"/><path d="M318.11,403.28l-16.68-165a10.94,10.94,0,0,1,10.89-12H652.85a10.94,10.94,0,0,1,10.89,12l-16.68,165" style="fill:#e7f1f8"/><path d="M638.21,403.28l16.67-165a1.94,1.94,0,0,0-1.93-2.14H312.42a1.94,1.94,0,0,0-1.93,2.14l16.68,165" style="fill:#fff;stroke:#3f555a;stroke-linecap:round;stroke-linejoin:round;stroke-width:2px"/><path d="M638.21,403.28l16.67-165a1.94,1.94,0,0,0-1.93-2.14H312.42a1.94,1.94,0,0,0-1.93,2.14l16.68,165" style="fill:none;stroke:#3f555a;stroke-linecap:round;stroke-linejoin:round;stroke-width:2px"/><path d="M318.11,403.28l-16.68-165a10.94,10.94,0,0,1,10.89-12H652.85a10.94,10.94,0,0,1,10.89,12l-16.68,165" style="fill:none;stroke:#3f555a;stroke-linecap:round;stroke-linejoin:round;stroke-width:2px"/><line x1="318.54" y1="248.7" x2="645.07" y2="248.7" style="fill:none;stroke:#c3d4e0;stroke-linecap:round;stroke-linejoin:round;stroke-width:2px"/><line x1="321.11" y1="242.7" x2="321.11" y2="242.7" style="fill:none;stroke:#c3d4e0;stroke-linecap:round;stroke-linejoin:round;stroke-width:2px;stroke-dasharray:0,7"/><line x1="331.11" y1="242.7" x2="348.46" y2="242.7" style="fill:none;stroke:#c3d4e0;stroke-linecap:round;stroke-linejoin:round;stroke-width:2px"/><line x1="405.82" y1="242.7" x2="423.18" y2="242.7" style="fill:none;stroke:#c3d4e0;stroke-linecap:round;stroke-linejoin:round;stroke-width:2px"/><line x1="617.23" y1="242.7" x2="645.59" y2="242.7" style="fill:none;stroke:#c3d4e0;stroke-linecap:round;stroke-linejoin:round;stroke-width:2px;stroke-dasharray:0,7"/><line x1="358.46" y1="242.7" x2="395.82" y2="242.7" style="fill:none;stroke:#c3d4e0;stroke-linecap:round;stroke-linejoin:round;stroke-width:2px"/><path d="M392.34,321.2a13.12,13.12,0,0,1-1.67-3.21,12.45,12.45,0,0,1-.28-3.9q.21-6.73-.08-13.46a2.14,2.14,0,0,0-.5-1.56,2,2,0,0,0-1.48-.33,15.26,15.26,0,0,0-5.6,1.51c-7.11,3.42-11,12.14-9.37,19.86s8.41,13.92,16.15,15.46c2.79.55,8.82,1.08,8.53-3.15C397.82,328.92,394.17,324.1,392.34,321.2Z" style="fill:#3290c1"/><path d="M390.75,317.89l13.47-9.37a.91.91,0,0,1,.56-.22.89.89,0,0,1,.55.36,13.38,13.38,0,0,1,3.53,9.84,19.28,19.28,0,0,1-1.67,5.61c-1.07,2.53-5.15,11.62-8.9,9-1.71-1.21-2.48-5.24-3.29-7A77.64,77.64,0,0,0,390.75,317.89Z" style="fill:#19bc9c"/><path d="M390,308.86l1.12-8.46a1,1,0,0,1,.15-.46.91.91,0,0,1,.64-.27c4-.49,7.63,1.95,10.88,4.27,1.15.82,2.38,1.76,2.68,3.14-3.83.65-6,4.66-9.29,6.78C390.42,317.61,389.28,314.4,390,308.86Z" style="fill:#f56f40"/><path d="M553.38,403.28l6-130.5a4,4,0,0,0-4-4.18H348.65a4,4,0,0,0-4,4.33l10.78,130.35" style="fill:none;stroke:#3f555a;stroke-linecap:round;stroke-linejoin:round;stroke-width:2px"/><line x1="352.97" y1="276.19" x2="352.97" y2="276.19" style="fill:none;stroke:#3f555a;stroke-linecap:round;stroke-linejoin:round;stroke-width:2px"/><line x1="360.15" y1="276.19" x2="363.74" y2="276.19" style="fill:none;stroke:#3f555a;stroke-linecap:round;stroke-linejoin:round;stroke-width:2px;stroke-dasharray:0,7.182178497314453"/><line x1="367.33" y1="276.19" x2="367.33" y2="276.19" style="fill:none;stroke:#3f555a;stroke-linecap:round;stroke-linejoin:round;stroke-width:2px"/><polygon points="386.06 383.81 385.08 370.85 375.9 370.85 377.06 383.81 386.06 383.81" style="fill:#19bc9c;stroke:#109995;stroke-linecap:round;stroke-linejoin:round;stroke-width:2px"/><polygon points="404.28 383.81 402.26 351.82 392.95 351.82 395.17 383.81 404.28 383.81" style="fill:#f56f40;stroke:#d65129;stroke-linecap:round;stroke-linejoin:round;stroke-width:2px"/><polygon points="421.78 362.74 422.5 383.81 413.39 383.81 412.02 362.75 421.78 362.74" style="fill:#3290c1;stroke:#1e6b96;stroke-linecap:round;stroke-linejoin:round;stroke-width:2px"/><line x1="462.1" y1="298.93" x2="463.07" y2="376.01" style="fill:none;stroke:#c3d4e0;stroke-linecap:round;stroke-linejoin:round;stroke-width:2px"/><line x1="487.92" y1="298.93" x2="487.59" y2="365.15" style="fill:none;stroke:#c3d4e0;stroke-linecap:round;stroke-linejoin:round;stroke-width:2px"/><line x1="514.74" y1="298.93" x2="513.54" y2="352.16" style="fill:none;stroke:#c3d4e0;stroke-linecap:round;stroke-linejoin:round;stroke-width:2px"/><line x1="453.68" y1="309.69" x2="527.64" y2="309.69" style="fill:none;stroke:#c3d4e0;stroke-linecap:round;stroke-linejoin:round;stroke-width:2px"/><line x1="454.01" y1="320.03" x2="521.51" y2="320.03" style="fill:none;stroke:#c3d4e0;stroke-linecap:round;stroke-linejoin:round;stroke-width:2px"/><line x1="454.18" y1="330.38" x2="505.83" y2="330.38" style="fill:none;stroke:#c3d4e0;stroke-linecap:round;stroke-linejoin:round;stroke-width:2px"/><line x1="454.35" y1="340.73" x2="502.76" y2="340.73" style="fill:none;stroke:#c3d4e0;stroke-linecap:round;stroke-linejoin:round;stroke-width:2px"/><line x1="454.51" y1="351.08" x2="501.68" y2="351.08" style="fill:none;stroke:#c3d4e0;stroke-linecap:round;stroke-linejoin:round;stroke-width:2px"/><line x1="454.68" y1="361.43" x2="498.98" y2="361.43" style="fill:none;stroke:#c3d4e0;stroke-linecap:round;stroke-linejoin:round;stroke-width:2px"/><line x1="454.84" y1="371.77" x2="491.97" y2="371.77" style="fill:none;stroke:#c3d4e0;stroke-linecap:round;stroke-linejoin:round;stroke-width:2px"/><path d="M409,317.33a17.57,17.57,0,0,1-17.69,18.4,19.27,19.27,0,0,1-19.1-18.4,17.57,17.57,0,0,1,17.69-18.4A19.27,19.27,0,0,1,409,317.33Z" style="fill:none;stroke:#1e6b96;stroke-linecap:round;stroke-linejoin:round;stroke-width:2px"/><polyline points="389.86 298.93 390.57 317.33 405.32 306.91" style="fill:none;stroke:#1e6b96;stroke-linecap:round;stroke-linejoin:round;stroke-width:2px"/><polyline points="399.37 333.81 390.57 317.33 405.32 306.91" style="fill:none;stroke:#1e6b96;stroke-linecap:round;stroke-linejoin:round;stroke-width:2px"/><line x1="353.97" y1="283.3" x2="547.12" y2="283.3" style="fill:none;stroke:#c3d4e0;stroke-linecap:round;stroke-linejoin:round;stroke-width:2px"/><path d="M538.92,300l-2.79,81.59a1,1,0,0,1-1,1H455a1,1,0,0,1-1-1L452.51,300a1,1,0,0,1,1-1h84.41A1,1,0,0,1,538.92,300Z" style="fill:none;stroke:#c3d4e0;stroke-linecap:round;stroke-linejoin:round;stroke-width:2px"/><circle cx="473.41" cy="315.48" r="4.82" style="fill:#f56f40;stroke:#d65129;stroke-linecap:round;stroke-linejoin:round;stroke-width:2px"/><circle cx="501.68" cy="335.72" r="4.82" style="fill:#f56f40;stroke:#d65129;stroke-linecap:round;stroke-linejoin:round;stroke-width:2px"/><circle cx="501.68" cy="366.62" r="4.82" style="fill:#3290c1;stroke:#1e6b96;stroke-linecap:round;stroke-linejoin:round;stroke-width:2px"/><circle cx="475.19" cy="366.24" r="4.82" style="fill:#f56f40;stroke:#d65129;stroke-linecap:round;stroke-linejoin:round;stroke-width:2px"/><circle cx="475.19" cy="345.35" r="4.82" style="fill:#19bc9c;stroke:#109995;stroke-linecap:round;stroke-linejoin:round;stroke-width:2px"/><circle cx="527.63" cy="314.77" r="4.82" style="fill:#19bc9c;stroke:#109995;stroke-linecap:round;stroke-linejoin:round;stroke-width:2px"/><circle cx="527.63" cy="345.35" r="4.82" style="fill:#3290c1;stroke:#1e6b96;stroke-linecap:round;stroke-linejoin:round;stroke-width:2px"/><path d="M156.12,107.84V68.45a9,9,0,0,0-9-9h-35a9,9,0,0,0-9,9V98.8a9,9,0,0,0,9,9h26.79l17.27,15.34Z" style="fill:#329ee4;stroke:#329ee4;stroke-linecap:round;stroke-linejoin:round;stroke-width:2px;opacity:0.5"/><path d="M827.05,128.08V71.52a8.9,8.9,0,0,1,8.9-8.9H897.1a8.9,8.9,0,0,1,8.9,8.9v47.67a8.9,8.9,0,0,1-8.9,8.9H844l-17,15.1Z" style="fill:#329ee4;stroke:#329ee4;stroke-linecap:round;stroke-linejoin:round;stroke-width:2px;opacity:0.5"/><path d="M415.83,114.13H381.3a10,10,0,0,0-10,10V143a10,10,0,0,0,10,10h24.53a10,10,0,0,0,10-10V130l14.1-15.88Z" style="fill:#329ee4;stroke:#329ee4;stroke-linecap:round;stroke-linejoin:round;stroke-width:2px;opacity:0.5"/><g style="opacity:0.5"><path d="M270.2,357H190.07a8.53,8.53,0,0,0-8.53,8.53v47.58a8.53,8.53,0,0,0,8.53,8.53h71.61a8.53,8.53,0,0,0,8.53-8.53V378.05l18.67-21Z" style="fill:#329ee4;stroke:#329ee4;stroke-linecap:round;stroke-linejoin:round;stroke-width:2px"/><path d="M202.11,400.25a3.81,3.81,0,0,1-6.95-3.12" style="fill:#329ee4;stroke:#329ee4;stroke-linecap:round;stroke-linejoin:round;stroke-width:2px"/><path d="M202.11,400.25l11.18-24.92a1.39,1.39,0,0,1,2.66.57v26.6" style="fill:#329ee4;stroke:#329ee4;stroke-linecap:round;stroke-linejoin:round;stroke-width:2px"/><line x1="211.57" y1="402.5" x2="221.33" y2="402.5" style="fill:#329ee4;stroke:#329ee4;stroke-linecap:round;stroke-linejoin:round;stroke-width:2px"/><line x1="226.8" y1="402.5" x2="226.8" y2="402.5" style="fill:#329ee4;stroke:#329ee4;stroke-linecap:round;stroke-linejoin:round;stroke-width:2px"/><line x1="206.15" y1="391.24" x2="215.91" y2="391.24" style="fill:#329ee4;stroke:#329ee4;stroke-linecap:round;stroke-linejoin:round;stroke-width:2px"/><polyline points="255.9 378.38 239.75 398.06 231.52 391.8" style="fill:#329ee4;stroke:#329ee4;stroke-linecap:round;stroke-linejoin:round;stroke-width:2px"/></g><path d="M148,99.71V60.31a9,9,0,0,0-9-9h-35a9,9,0,0,0-9,9V90.67a9,9,0,0,0,9,9h26.79L148,115Z" style="fill:#ffdc64;stroke:#faac30;stroke-linecap:round;stroke-linejoin:round;stroke-width:2px"/><path d="M818.05,119.08V62.52a8.9,8.9,0,0,1,8.9-8.9H888.1a8.9,8.9,0,0,1,8.9,8.9v47.67a8.9,8.9,0,0,1-8.9,8.9H835l-17,15.1Z" style="fill:#ffdc64;stroke:#faac30;stroke-linecap:round;stroke-linejoin:round;stroke-width:2px"/><path d="M406.83,105.13H372.3a10,10,0,0,0-10,10V134a10,10,0,0,0,10,10h24.53a10,10,0,0,0,10-10V121l14.1-15.88Z" style="fill:#ffdc64;stroke:#faac30;stroke-linecap:round;stroke-linejoin:round;stroke-width:2px"/><line x1="306.48" y1="291.17" x2="58.86" y2="291.17" style="fill:none;stroke:#3f555a;stroke-linecap:round;stroke-linejoin:round;stroke-width:2px"/><line x1="926.31" y1="291.17" x2="658.69" y2="291.17" style="fill:none;stroke:#3f555a;stroke-linecap:round;stroke-linejoin:round;stroke-width:2px"/><line x1="107.49" y1="239.28" x2="107.49" y2="274.68" style="fill:none;stroke:#a1c2d8;stroke-linecap:round;stroke-linejoin:round;stroke-width:2px"/><line x1="340.34" y1="187.12" x2="340.34" y2="216.42" style="fill:none;stroke:#a1c2d8;stroke-linecap:round;stroke-linejoin:round;stroke-width:2px"/><line x1="857.68" y1="239.28" x2="857.68" y2="274.68" style="fill:none;stroke:#a1c2d8;stroke-linecap:round;stroke-linejoin:round;stroke-width:2px"/><line x1="624.83" y1="187.12" x2="624.83" y2="216.42" style="fill:none;stroke:#a1c2d8;stroke-linecap:round;stroke-linejoin:round;stroke-width:2px"/><g style="opacity:0.2"><path d="M658.39,310.12c52.8,0,105.92-5.32,158.19.33,7.08.76,14.2,1.75,20.72,4,4.3,1.46,8.89,4.72,7.08,8-.78,1.42-2.58,2.35-4.34,3.12-13.87,6-31.42,6.9-46.19,2.27-3.86-1.21-8.17-4.27-6-7,1.74-2.19,6-1.8,9.26-1.12l12.14,2.52a3.48,3.48,0,0,1-3.91,1" style="fill:none;stroke:#3f555a;stroke-linecap:round;stroke-linejoin:round;stroke-width:2px"/><path d="M842.93,304.12c27,10.73,58.89,11,89.38,10.78" style="fill:none;stroke:#3f555a;stroke-linecap:round;stroke-linejoin:round;stroke-width:2px"/><path d="M665.17,326.7c24.28-1.81,49.38-3.55,72.59,2.18,13.31,3.29,25.44,8.92,38.64,12.45a128.91,128.91,0,0,0,47,3.44c15-1.67,29.19-5.92,43.85-8.74s30.52-4.14,44.64,0" style="fill:none;stroke:#3f555a;stroke-linecap:round;stroke-linejoin:round;stroke-width:2px"/><path d="M900.16,347.21a43,43,0,0,0-30.64.59c-1,.42-2,1-2.13,1.84-.12,1.12,1.49,1.87,2.91,2.2a21.73,21.73,0,0,0,13.3-1.23,4.58,4.58,0,0,0-3.37-.34" style="fill:none;stroke:#3f555a;stroke-linecap:round;stroke-linejoin:round;stroke-width:2px"/><path d="M833.24,354.4c-25.43,7.7-54.08,1.87-80.3-4.11s-54.7-12-80.33-4.72c-4.23,1.21-9.05,4.51-6.61,7.4a7.51,7.51,0,0,0,3.58,1.9,38.53,38.53,0,0,0,25.93-1.57c-1.53-1.95-4.9-2.92-7.74-2.24" style="fill:none;stroke:#3f555a;stroke-linecap:round;stroke-linejoin:round;stroke-width:2px"/><path d="M712.51,358.59a453.43,453.43,0,0,1,45.36,4" style="fill:none;stroke:#3f555a;stroke-linecap:round;stroke-linejoin:round;stroke-width:2px"/></g><path d="M293.19,315.67a113.48,113.48,0,0,0-44.93-5.43c-12.52,1-24.63,4-37.22,4.39-11.46.36-22.78-1.44-34-2.9-18.37-2.38-37-3.86-55.68-4.43-21.68-.66-44.37.07-63.43,7.07-3.09,1.13-6.31,2.67-7,5-1.31,4.3,6.68,7.2,13.19,7.33a52.43,52.43,0,0,0,15-1.87,3,3,0,0,0-.61-5.82,22.41,22.41,0,0,0-8,1" style="fill:none;stroke:#3f555a;stroke-linecap:round;stroke-linejoin:round;stroke-width:2px;opacity:0.2"/><path d="M77.33,337.78c6.43.59,12.78-1.38,18.19-3.8s10.36-5.37,16.3-7.14c12.47-3.72,27-1.66,39.92,1.21,12.51,2.77,25.88,6.53,39.68,5.82" style="fill:none;stroke:#3f555a;stroke-linecap:round;stroke-linejoin:round;stroke-width:2px;opacity:0.2"/><path d="M201,333c28.34-6.14,58.34-12.34,87.4-8" style="fill:none;stroke:#3f555a;stroke-linecap:round;stroke-linejoin:round;stroke-width:2px;opacity:0.2"/><path d="M218.07,345.15c19.39-1.37,63-.89,82.47-1.45" style="fill:none;stroke:#3f555a;stroke-linecap:round;stroke-linejoin:round;stroke-width:2px;opacity:0.2"/><path d="M84,348.38q35,.91,69.8-.16" style="fill:none;stroke:#3f555a;stroke-linecap:round;stroke-linejoin:round;stroke-width:2px;opacity:0.2"/><path d="M112.35,361.62q25.46.71,50.88.47" style="fill:none;stroke:#3f555a;stroke-linecap:round;stroke-linejoin:round;stroke-width:2px;opacity:0.2"/><path d="M278.89,358.45c-21.65-.63-43.35-.43-65,.61" style="fill:none;stroke:#3f555a;stroke-linecap:round;stroke-linejoin:round;stroke-width:2px;opacity:0.2"/><path d="M262.53,349.36H182.39a8.53,8.53,0,0,0-8.53,8.53v47.58a8.53,8.53,0,0,0,8.53,8.53H254a8.53,8.53,0,0,0,8.53-8.53V370.38l18.67-21Z" style="fill:#ffdc64;stroke:#faac30;stroke-linecap:round;stroke-linejoin:round;stroke-width:2px"/><path d="M194.43,392.57a3.81,3.81,0,0,1-6.95-3.12" style="fill:none;stroke:#f56f40;stroke-linecap:round;stroke-linejoin:round;stroke-width:2px"/><path d="M194.43,392.57l11.18-24.92a1.39,1.39,0,0,1,2.66.57v26.6" style="fill:none;stroke:#f56f40;stroke-linecap:round;stroke-linejoin:round;stroke-width:2px"/><line x1="203.9" y1="394.82" x2="213.66" y2="394.82" style="fill:none;stroke:#f56f40;stroke-linecap:round;stroke-linejoin:round;stroke-width:2px"/><line x1="219.13" y1="394.82" x2="219.13" y2="394.82" style="fill:none;stroke:#f56f40;stroke-linecap:round;stroke-linejoin:round;stroke-width:2px"/><line x1="198.47" y1="383.57" x2="208.23" y2="383.57" style="fill:none;stroke:#f56f40;stroke-linecap:round;stroke-linejoin:round;stroke-width:2px"/><polyline points="248.23 370.7 232.08 390.38 223.84 384.12" style="fill:none;stroke:#f56f40;stroke-linecap:round;stroke-linejoin:round;stroke-width:2px"/><g style="opacity:0.5"><path d="M701.65,317.49c-3.51-1.68-11.42-5.42-14.84-7.13a5.16,5.16,0,0,1-1.21-.74c-.27-.26-.28-.56.15-.67a3.33,3.33,0,0,1,1.48.09,9,9,0,0,1,1.39.52c4,1.78,12.4,5.67,16.12,7.57" style="fill:#329ee4;stroke:#399fde;stroke-linecap:round;stroke-linejoin:round;stroke-width:2px"/><path d="M715.47,314.84c.83-.75.77-1.77-.14-2.77-.5-.55-1.25-1.1-1.68-1.65a1.32,1.32,0,0,1,.14-2,46.18,46.18,0,0,0-11.58.57c-3.21.7-5.39,2.1-5.17,3.9s2.49,3.56,5.65,5.21" style="fill:#329ee4;stroke:#399fde;stroke-linecap:round;stroke-linejoin:round;stroke-width:2px"/><path d="M705.42,316.91a4.24,4.24,0,0,1,1.75-4.73" style="fill:#329ee4;stroke:#399fde;stroke-linecap:round;stroke-linejoin:round;stroke-width:2px"/><path d="M738.55,319.71c-5.61-2.83-13.78-5.49-20.82-5.31a20.4,20.4,0,0,0-5.46.83,10.76,10.76,0,0,0-2.56,1.13c-1.85,1.17-5.58,1.5-9.6.82-1.56-.26-3.13-.45-4.66-.56a30.23,30.23,0,0,0-6.3.14c-6.16.91-7,4.32-5.4,7.49,3.82,7.49,19.14,15.39,37,19.08a34.8,34.8,0,0,0,8.65.94,8.84,8.84,0,0,0,5.86-2.3,34,34,0,0,0,9.83,1,8.43,8.43,0,0,0,5-2.08C756.61,335.19,751.83,326.41,738.55,319.71Z" style="fill:#329ee4;stroke:#399fde;stroke-linecap:round;stroke-linejoin:round;stroke-width:2px"/><path d="M738.55,319.71c-5.61-2.83-13.78-5.49-20.82-5.31a20.4,20.4,0,0,0-5.46.83,10.76,10.76,0,0,0-2.56,1.13c-1.85,1.17-5.58,1.5-9.6.82-1.56-.26-3.13-.45-4.66-.56a30.23,30.23,0,0,0-6.3.14c-6.16.91-7,4.32-5.4,7.49,3.82,7.49,19.14,15.39,37,19.08a34.8,34.8,0,0,0,8.65.94,8.84,8.84,0,0,0,5.86-2.3,34,34,0,0,0,9.83,1,8.43,8.43,0,0,0,5-2.08C756.61,335.19,751.83,326.41,738.55,319.71Z" style="fill:#329ee4;stroke:#399fde;stroke-linecap:round;stroke-linejoin:round;stroke-width:2px"/><path d="M720.24,318.7a4.16,4.16,0,0,0-.65.29c-4.38,2.4,7.86,7.45,11.82,4.69C734.56,321.47,724.8,317.14,720.24,318.7Z" style="fill:#329ee4;stroke:#399fde;stroke-linecap:round;stroke-linejoin:round;stroke-width:2px"/><path d="M730.45,329.12a1.78,1.78,0,0,1-.21-1.2c.36-1.1,3.46-1.52,6.27-.83a10.21,10.21,0,0,1,4,1.86,4.38,4.38,0,0,1,1.51,2.22,2.09,2.09,0,0,1-.62,2.42,6.93,6.93,0,0,1-4.65.84C731.49,333.91,731.11,330.65,730.45,329.12Z" style="fill:#329ee4;stroke:#399fde;stroke-linecap:round;stroke-linejoin:round;stroke-width:2px"/></g><path d="M721.47,286.41c-2.15-3.63-7-11.7-9.07-15.39a4.22,4.22,0,0,1-.61-1.59,1.28,1.28,0,0,1,2.1-1.25,4.14,4.14,0,0,1,1,1.12c2.6,3.85,7.8,12.25,10,16.34" style="fill:#3f555a;stroke:#3f555a;stroke-linecap:round;stroke-linejoin:round;stroke-width:2px"/><path d="M737.43,280.71a8.53,8.53,0,0,0,2.1-6c-.06-1.19-.37-2.37-.35-3.56a6.56,6.56,0,0,1,1.77-4.35,24.71,24.71,0,0,0-12,1.23,14.08,14.08,0,0,0-8.32,8.41c-1.21,3.81-.39,7.68,1.44,11.24" style="fill:#19bc9c;stroke:#109995;stroke-linecap:round;stroke-linejoin:round;stroke-width:2px"/><path d="M725.72,285.16A22.19,22.19,0,0,1,731.29,275" style="fill:#19bc9c;stroke:#109995;stroke-linecap:round;stroke-linejoin:round;stroke-width:2px"/><path d="M756.58,291.21c-3.32-6.11-9.34-11.85-16.52-11.46a14.84,14.84,0,0,0-6.14,1.8,17.51,17.51,0,0,0-3.47,2.44,9.7,9.7,0,0,1-10.27,1.77,18.13,18.13,0,0,0-4.21-1.2,15,15,0,0,0-6.41.31c-6.9,2-10.51,9.33-11.46,16.16-2.24,16.16,6.68,33.22,21.55,41.18,2.42,1.29,5.14,2.39,7.88,2,3.15-.4,5.67-2.6,7.72-5,2.77,1.54,5.92,2.79,9,2.15,2.71-.56,4.87-2.48,6.69-4.48C762.1,324.62,764.43,305.67,756.58,291.21Z" style="fill:#f56f40;stroke:#d65129;stroke-linecap:round;stroke-linejoin:round;stroke-width:2px"/><path d="M756.58,291.21c-3.32-6.11-9.34-11.85-16.52-11.46a14.84,14.84,0,0,0-6.14,1.8,17.51,17.51,0,0,0-3.47,2.44,9.7,9.7,0,0,1-10.27,1.77,18.13,18.13,0,0,0-4.21-1.2,15,15,0,0,0-6.41.31c-6.9,2-10.51,9.33-11.46,16.16-2.24,16.16,6.68,33.22,21.55,41.18,2.42,1.29,5.14,2.39,7.88,2,3.15-.4,5.67-2.6,7.72-5,2.77,1.54,5.92,2.79,9,2.15,2.71-.56,4.87-2.48,6.69-4.48C762.1,324.62,764.43,305.67,756.58,291.21Z" style="fill:none;stroke:#d65129;stroke-linecap:round;stroke-linejoin:round;stroke-width:2px"/><path d="M739.08,289a6.66,6.66,0,0,0-.88.62c-6.32,5.18,1.84,16.08,8,10.12C751.16,295,744.9,285.67,739.08,289Z" style="fill:#fff"/><path d="M740.86,311.52a8.81,8.81,0,0,1,.76-2.59,5,5,0,0,1,6.94-1.8,6.08,6.08,0,0,1,2.47,4,11.59,11.59,0,0,1-.29,4.8,11.23,11.23,0,0,1-2.58,5.22,5.8,5.8,0,0,1-5.33,1.82C738,321.85,740.28,314.83,740.86,311.52Z" style="fill:#fff"/><path d="M310.26,133.44a19.73,19.73,0,0,0-2.9-8.18c-2.18-3.11-5.7-5-9.21-6.44a61.65,61.65,0,0,0-15.47-4.1c-1-.12-4.06-.37-4.95,0s.64,1.26,0,1.94a28.77,28.77,0,0,1-7.86,5.74c-3.47,1.84-7,2-10.89,1.57s-6.73-3-6.87-6.89c0-.77-1.37-1-2.08-1.26a1.77,1.77,0,0,0-1.14.06c-4.19,1.17-6.4,2.75-10.59,3.92-8.15,9.58-15.4,21.16-16.92,33.67,3,1.46,5.46,4.1,7.5,6.83a58.14,58.14,0,0,1,6.92,12.11c1.53,3.61,2.09,7.72,3.79,11.23,1.45,3,3.62,3.56,6.79,3.84,5,.44,10.71,1.19,15.63-.08,1.54-.4,3-1,4.54-1.48,6.64-1.93,13.89-.18,20.58-1.91,8.13-2.1,14.17-9.06,18-16.55A55.72,55.72,0,0,0,310.26,133.44Z" style="fill:#3290c1"/><path d="M232.75,120.44a35.48,35.48,0,0,0-8.7,3.28c-3.46,2.06-6.11,5.22-8.43,8.5a78.47,78.47,0,0,0-9.91,19.1c4.42,1.59,9.46.12,14,1.5a12,12,0,0,1,1.71.69,65,65,0,0,1,14.94-34.07Z" style="fill:#fff"/><path d="M250.54,216.42H165a7.64,7.64,0,0,1-6.86-4.28l-26.5-54.07a3.51,3.51,0,0,1,3.15-5.05h85.49a7.64,7.64,0,0,1,6.86,4.28l26.5,54.07A3.51,3.51,0,0,1,250.54,216.42Z" style="fill:#d0e4f1;stroke:#3f555a;stroke-linecap:round;stroke-linejoin:round;stroke-width:2px"/><path d="M250.54,216.42H165a7.64,7.64,0,0,1-6.86-4.28l-26.5-54.07a3.51,3.51,0,0,1,3.15-5.05h85.49a7.64,7.64,0,0,1,6.86,4.28l26.5,54.07A3.51,3.51,0,0,1,250.54,216.42Z" style="fill:none;stroke:#3f555a;stroke-linecap:round;stroke-linejoin:round;stroke-width:2px"/><path d="M272.77,198.36H188.34l-21.45,18.31a2.14,2.14,0,0,0,1.39,3.76h82.07a9.51,9.51,0,0,0,6.17-2.28l17.91-15.28A2.56,2.56,0,0,0,272.77,198.36Z" style="fill:#d0e4f1;stroke:#3f555a;stroke-linecap:round;stroke-linejoin:round;stroke-width:2px"/><path d="M272.77,201.36H188.34l-21.45,15.31c-1.51,1.29-.6,6.76,1.39,6.76h82.07a9.51,9.51,0,0,0,6.17-2.28l17.91-15.28A2.56,2.56,0,0,0,272.77,201.36Z" style="fill:#d0e4f1;stroke:#3f555a;stroke-linecap:round;stroke-linejoin:round;stroke-width:2px"/><path d="M238.3,119.84c-8.13-1.74-16.56,2.94-21.62,9.54s-7.4,14.83-9.5,22.87" style="fill:none;stroke:#3f555a;stroke-linecap:round;stroke-linejoin:round;stroke-width:2px"/><path d="M302.26,119.47c-12.44-4.42-20.51-4.53-28.56-4.92-8.59-.41-17.49-.72-25.88,1.51-15.54,4.13-25.29,21.67-25.63,37" style="fill:none;stroke:#1e6b96;stroke-linecap:round;stroke-linejoin:round;stroke-width:2px"/><path d="M307.25,128.25c-1-3-2-5-3-8l-.93-1.24c-4.51,2-5.08,9.59-4.82,14.46.63,11.66,3.27,23.46-.92,34.81-2.29,6.19-6.88,12.49-13.16,14.51l4.61,5.9C308.24,177.58,312.23,149.82,307.25,128.25Z" style="fill:#e7f1f8"/><path d="M324.48,155.52c-.32-9.23-1.4-21.39-6.58-29.3-2.18-3.32-5.89-6.56-9.91-7.49a7.19,7.19,0,0,0-4.68.28l.93,1.24c1,3,2,5,3,8,5,21.58,1,49.33-18.22,60.45l8.4,10.74c7.9-2.95,15.8-8.16,20.41-15.37C323.23,175.62,324.82,165.38,324.48,155.52Z" style="fill:#fff"/><path d="M306.48,176.3a35.33,35.33,0,0,1,8.29,10.51" style="fill:none;stroke:#c3d4e0;stroke-linecap:round;stroke-linejoin:round;stroke-width:2px"/><path d="M312.33,158.52a49.06,49.06,0,0,1,11.89,4.39" style="fill:none;stroke:#c3d4e0;stroke-linecap:round;stroke-linejoin:round;stroke-width:2px"/><path d="M311.79,139a29.25,29.25,0,0,1,9.58.54" style="fill:none;stroke:#c3d4e0;stroke-linecap:round;stroke-linejoin:round;stroke-width:2px"/><path d="M297.42,199.43c7.9-2.95,15.8-8.16,20.41-15.37,5.4-8.44,7-18.68,6.65-28.55-.32-9.23-1.4-21.39-6.58-29.3-2.18-3.32-5.89-6.56-9.91-7.49-8.81-2-9.83,8.53-9.5,14.74.63,11.66,3.27,23.46-.92,34.81-2.29,6.19-6.88,12.49-13.16,14.51" style="fill:none;stroke:#3f555a;stroke-linecap:round;stroke-linejoin:round;stroke-width:2px"/><circle cx="195.61" cy="77.44" r="4.62" style="fill:#f56f40;stroke:#d65129;stroke-linecap:round;stroke-linejoin:round;stroke-width:2px"/><path d="M224.9,39.46c-1.15-4.9-1.39-10.46,1.53-14.56,3.43-4.81,10.37-6,16-4.29s10.22,5.86,14.3,10.13c8.21-3.63,18-4.5,26.11-.73S297,42.73,295.68,51.61a2.51,2.51,0,0,1-.54,1.42,2.64,2.64,0,0,1-1.7.6,119.19,119.19,0,0,1-15.8.25q-16.11-.48-32.22-1.25l-8-.4c-1.86-.1-5.7.43-7.27-.56C227.24,49.87,225.6,42.5,224.9,39.46Z" style="fill:#f56f40"/><path d="M232.62,51.72a23.25,23.25,0,0,1-9-12.36,17.42,17.42,0,0,1-.35-9.43,14.64,14.64,0,0,1,7.08-8.9,16,16,0,0,1,11.34-1.42,25.44,25.44,0,0,1,8.91,4.57,54,54,0,0,1,7.76,7c3.69,4,6.75,8.64,10.56,12.58s8.6,7.28,14,7.87" style="fill:none;stroke:#d65129;stroke-linecap:round;stroke-linejoin:round;stroke-width:2px"/><path d="M258.24,30.43a23.85,23.85,0,0,1,37,20.85" style="fill:none;stroke:#d65129;stroke-linecap:round;stroke-linejoin:round;stroke-width:2px"/><path d="M237,66.42c19.21,4.48,40.05,12.23,59.65,11.72.3-4.57,1-9.15,1.35-13.72a19.45,19.45,0,0,1,4.66-11.62c-1-.08-2-.11-2.92-.13l-33.81-.74c-12.71-.28-25.46-.56-38.09.82-2.53.28-5.17.66-7.23,2.16s-3.27,4-4.19,6.36c-.4,1.06-.74,2.16-1.05,3.27A50.38,50.38,0,0,1,237,66.42Z" style="fill:#e7f1f8"/><path d="M216,87.42a9.93,9.93,0,0,0-1.43-.17A58,58,0,0,0,220,104.15s75.3,2.34,84.7.55a30.33,30.33,0,0,1-3.77-4.28,31.72,31.72,0,0,1-3.48-8.69C272.29,99.41,242.27,88.88,216,87.42Z" style="fill:#e7f1f8"/><path d="M296.62,78.14c-19.6.51-40.44-7.24-59.65-11.72a50.38,50.38,0,0,0-21.64-1.89,53.29,53.29,0,0,0-.79,22.73,9.93,9.93,0,0,1,1.43.17c26.3,1.46,56.32,12,81.52,4.31A45.19,45.19,0,0,1,296.62,78.14Z" style="fill:#fff"/><path d="M309.78,100.88C316.64,89.94,316.41,76,314,63.3c-.48-2.57-1.11-5.26-2.87-7.2-2.11-2.33-5.3-3-8.52-3.3A19.45,19.45,0,0,0,298,64.42c-1,12-4,24,3,36a30.33,30.33,0,0,0,3.77,4.28,3,3,0,0,0,.83-.24A11.3,11.3,0,0,0,309.78,100.88Z" style="fill:#e7f1f8"/><path d="M306,52.64a716.27,716.27,0,0,0-83,0" style="fill:none;stroke:#3f555a;stroke-linecap:round;stroke-linejoin:round;stroke-width:2px"/><path d="M274.2,105H252.11l.36,13.71a5.06,5.06,0,0,0,2.13,3.86,6.82,6.82,0,0,0,1.65.85C263.54,120.23,269.61,112.22,274.2,105Z" style="fill:#e7f1f8"/><path d="M256.25,123.39a12,12,0,0,0,4.15.61c4.9,0,9.84-1.27,13.54-4.13a9.92,9.92,0,0,0,3.78-7.87v-7H274.2C269.61,112.22,263.54,120.23,256.25,123.39Z" style="fill:#fff"/><path d="M252.47,118.68a5.06,5.06,0,0,0,2.13,3.86,9.78,9.78,0,0,0,5.8,1.47c4.9,0,9.84-1.27,13.54-4.13a9.92,9.92,0,0,0,3.78-7.87v-7H252.11Z" style="fill:none;stroke:#3f555a;stroke-linecap:round;stroke-linejoin:round;stroke-width:2px"/><path d="M306,103.78a716.27,716.27,0,0,1-83,0" style="fill:none;stroke:#3f555a;stroke-linecap:round;stroke-linejoin:round;stroke-width:2px"/><ellipse cx="306" cy="78.21" rx="9.78" ry="25.57" style="fill:none;stroke:#3f555a;stroke-linecap:round;stroke-linejoin:round;stroke-width:2px"/><path d="M223,103.78c-5.4,0-9.78-11.45-9.78-25.57s4.38-25.57,9.78-25.57" style="fill:none;stroke:#3f555a;stroke-linecap:round;stroke-linejoin:round;stroke-width:2px"/><path d="M280,74a60.74,60.74,0,0,0,.35,12.21" style="fill:none;stroke:#3f555a;stroke-linecap:round;stroke-linejoin:round;stroke-width:2px"/><path d="M228.84,74a60.72,60.72,0,0,0,.29,12.21" style="fill:none;stroke:#3f555a;stroke-linecap:round;stroke-linejoin:round;stroke-width:2px"/><path d="M245,94s3.64,2.53,10.17,2.53a23.53,23.53,0,0,0,10.69-2.33" style="fill:none;stroke:#3f555a;stroke-linecap:round;stroke-linejoin:round;stroke-width:2px"/><polygon points="250.02 87.06 259.53 87.06 254.78 80.91 250.02 87.06" style="fill:#f56f40;stroke:#d65129;stroke-linecap:round;stroke-linejoin:round;stroke-width:2px"/><path d="M277.67,63.83a5.73,5.73,0,0,1,4.87.15" style="fill:none;stroke:#3f555a;stroke-linecap:round;stroke-linejoin:round;stroke-width:2px"/><path d="M227.65,63.83a5.73,5.73,0,0,1,4.87.15" style="fill:none;stroke:#3f555a;stroke-linecap:round;stroke-linejoin:round;stroke-width:2px"/><path d="M306.63,77.39l20.51,0" style="fill:none;stroke:#3f555a;stroke-linecap:round;stroke-linejoin:round;stroke-width:2px"/><circle cx="331.75" cy="77.44" r="4.62" style="fill:#f56f40;stroke:#d65129;stroke-linecap:round;stroke-linejoin:round;stroke-width:2px"/><path d="M213.18,77.39l-14,0" style="fill:none;stroke:#3f555a;stroke-linecap:round;stroke-linejoin:round;stroke-width:2px"/><path d="M266.08,206c-3.2-.75-6.27-2.24-7.49-5.33-5.8-14.7,11.82-18.5,22.72-17.75,6.76.47,20.61,5.5,16.5,15.75-3.89,9.71-20.45,9-29.36,7.76C267.67,206.29,266.87,206.15,266.08,206Z" style="fill:#fff;stroke:#3f555a;stroke-linecap:round;stroke-linejoin:round;stroke-width:2px"/><path d="M324.22,162.91" style="fill:none;stroke:#3f555a;stroke-linecap:round;stroke-linejoin:round;stroke-width:2px"/><path d="M312.33,158.52" style="fill:none;stroke:#3f555a;stroke-linecap:round;stroke-linejoin:round;stroke-width:2px"/><path d="M250.54,216.42H165a7.64,7.64,0,0,1-6.86-4.28l-26.5-54.07a3.51,3.51,0,0,1,3.15-5.05h85.49a7.64,7.64,0,0,1,6.86,4.28l26.5,54.07A3.51,3.51,0,0,1,250.54,216.42Z" style="fill:#d0e4f1;stroke:#3f555a;stroke-linecap:round;stroke-linejoin:round;stroke-width:2px"/><path d="M250.54,216.42H165a7.64,7.64,0,0,1-6.86-4.28l-26.5-54.07a3.51,3.51,0,0,1,3.15-5.05h85.49a7.64,7.64,0,0,1,6.86,4.28l26.5,54.07A3.51,3.51,0,0,1,250.54,216.42Z" style="fill:#d0e4f1;stroke:#3f555a;stroke-linecap:round;stroke-linejoin:round;stroke-width:2px"/><path d="M194.48,187.35c.15-2-1.12-3.8-2.36-5.43a3.33,3.33,0,0,0-.87-.88,2.55,2.55,0,0,0-3.19.88,5,5,0,0,0-.63,3.28,6.72,6.72,0,0,0,1.27,3.93,3.59,3.59,0,0,0,4,1.13c1.46-.66,1.92-2.35,2-3.84a19.89,19.89,0,0,0-.2-4.72,18.13,18.13,0,0,0,.54,5,5.21,5.21,0,0,0,.85,2.26,3.28,3.28,0,0,0,3.7.88" style="fill:none;stroke:#fff;stroke-linecap:round;stroke-linejoin:round;stroke-width:2px"/><polyline points="261.01 187.44 244.98 187.44 242.65 187.44" style="fill:#d0e4f1;stroke:#3f555a;stroke-linecap:round;stroke-linejoin:round;stroke-width:2px"/><path d="M125.38,87.44a20.61,20.61,0,0,0,3.49-11.87,20.61,20.61,0,0,0-3.49-11.87" style="fill:none;stroke:#f56f40;stroke-linecap:round;stroke-linejoin:round;stroke-width:2px"/><line x1="118.62" y1="71.05" x2="110.46" y2="71.05" style="fill:none;stroke:#f56f40;stroke-linecap:round;stroke-linejoin:round;stroke-width:2px"/><line x1="118.62" y1="80.09" x2="110.46" y2="80.09" style="fill:none;stroke:#f56f40;stroke-linecap:round;stroke-linejoin:round;stroke-width:2px"/><line x1="374.7" y1="119.99" x2="394.48" y2="119.99" style="fill:none;stroke:#f56f40;stroke-linecap:round;stroke-linejoin:round;stroke-width:2px"/><line x1="374.7" y1="129.47" x2="387.42" y2="129.47" style="fill:none;stroke:#f56f40;stroke-linecap:round;stroke-linejoin:round;stroke-width:2px"/><rect x="844.63" y="73.94" width="26.35" height="26.35" style="fill:none;stroke:#f56f40;stroke-linecap:round;stroke-linejoin:round;stroke-width:2px"/><path d="M853.89,83.68l7.79,7.79,18.56-16.56" style="fill:none;stroke:#f56f40;stroke-linecap:round;stroke-linejoin:round;stroke-width:2px"/><polygon points="720.96 71.07 713.41 81.83 727.96 81.83 720.96 71.07" style="fill:#19bc9c;stroke:#109995;stroke-linecap:round;stroke-linejoin:round;stroke-width:2px"/></g></g></svg>