<?xml version="1.0" encoding="UTF-8"?>
<svg width="285px" height="178px" viewBox="0 0 285 178" version="1.1" xmlns="http://www.w3.org/2000/svg" xmlns:xlink="http://www.w3.org/1999/xlink">
    <!-- Generator: Sketch 52.2 (67145) - http://www.bohemiancoding.com/sketch -->
    <title>Group</title>
    <desc>Created with Sketch.</desc>
    <defs>
        <polygon id="path-1" points="0 178 285 178 285 0 0 0"></polygon>
    </defs>
    <g id="Symbols" stroke="none" stroke-width="1" fill="none" fill-rule="evenodd">
        <g id="illustrations/benefits/get-unstuck" transform="translate(0.000000, -1.000000)">
            <g id="Group" transform="translate(0.000000, 1.000000)">
                <path d="M94.1715099,58.1036269 L175.199458,58.1036269 C175.92626,58.1036269 176.516129,58.6932983 176.516129,59.4198576 L176.516129,175.76149 C176.516129,176.488049 175.92626,177.07772 175.199458,177.07772 L94.1715099,177.07772 C93.4447074,177.07772 92.8548387,176.488049 92.8548387,175.76149 L92.8548387,59.4198576 C92.8548387,58.6932983 93.4447074,58.1036269 94.1715099,58.1036269" id="Fill-1" fill="#D0E4F1"></path>
                <path d="M94.1715099,58.1036269 L175.199458,58.1036269 C175.92626,58.1036269 176.516129,58.6932983 176.516129,59.4198576 L176.516129,175.76149 C176.516129,176.488049 175.92626,177.07772 175.199458,177.07772 L94.1715099,177.07772 C93.4447074,177.07772 92.8548387,176.488049 92.8548387,175.76149 L92.8548387,59.4198576 C92.8548387,58.6932983 93.4447074,58.1036269 94.1715099,58.1036269 Z" id="Stroke-3" stroke="#D0E4F1" stroke-width="0.919733941" stroke-linecap="round" stroke-linejoin="round"></path>
                <path d="M97.8489293,55.3367876 L178.876877,55.3367876 C179.60368,55.3367876 180.193548,55.9264589 180.193548,56.6530183 L180.193548,172.99465 C180.193548,173.721209 179.60368,174.310881 178.876877,174.310881 L97.8489293,174.310881 C97.1221268,174.310881 96.5322581,173.721209 96.5322581,172.99465 L96.5322581,56.6530183 C96.5322581,55.9264589 97.1221268,55.3367876 97.8489293,55.3367876" id="Fill-5" fill="#FFFFFF"></path>
                <path d="M103.365058,50.7253886 L184.393006,50.7253886 C185.119809,50.7253886 185.709677,51.31506 185.709677,52.0416193 L185.709677,168.383251 C185.709677,169.109811 185.119809,169.699482 184.393006,169.699482 L103.365058,169.699482 C102.638256,169.699482 102.048387,169.109811 102.048387,168.383251 L102.048387,52.0416193 C102.048387,51.31506 102.638256,50.7253886 103.365058,50.7253886" id="Fill-7" fill="#D0E4F1"></path>
                <path d="M103.365058,50.7253886 L184.393006,50.7253886 C185.119809,50.7253886 185.709677,51.31506 185.709677,52.0416193 L185.709677,168.383251 C185.709677,169.109811 185.119809,169.699482 184.393006,169.699482 L103.365058,169.699482 C102.638256,169.699482 102.048387,169.109811 102.048387,168.383251 L102.048387,52.0416193 C102.048387,51.31506 102.638256,50.7253886 103.365058,50.7253886 Z" id="Stroke-9" stroke="#D0E4F1" stroke-width="0.919733941" stroke-linecap="round" stroke-linejoin="round"></path>
                <path d="M97.8489293,55.3367876 L178.876877,55.3367876 C179.60368,55.3367876 180.193548,55.9264589 180.193548,56.6530183 L180.193548,172.99465 C180.193548,173.721209 179.60368,174.310881 178.876877,174.310881 L97.8489293,174.310881 C97.1221268,174.310881 96.5322581,173.721209 96.5322581,172.99465 L96.5322581,56.6530183 C96.5322581,55.9264589 97.1221268,55.3367876 97.8489293,55.3367876 Z" id="Stroke-11" stroke="#A1C2D8" stroke-width="0.919733941" stroke-linecap="round" stroke-linejoin="round"></path>
                <path d="M106.123123,47.9585492 L187.151071,47.9585492 C187.877873,47.9585492 188.467742,48.5482206 188.467742,49.2747799 L188.467742,165.616412 C188.467742,166.342971 187.877873,166.932642 187.151071,166.932642 L106.123123,166.932642 C105.39632,166.932642 104.806452,166.342971 104.806452,165.616412 L104.806452,49.2747799 C104.806452,48.5482206 105.39632,47.9585492 106.123123,47.9585492" id="Fill-13" fill="#FFFFFF"></path>
                <path d="M106.123123,47.9585492 L187.151071,47.9585492 C187.877873,47.9585492 188.467742,48.5482206 188.467742,49.2747799 L188.467742,165.616412 C188.467742,166.342971 187.877873,166.932642 187.151071,166.932642 L106.123123,166.932642 C105.39632,166.932642 104.806452,166.342971 104.806452,165.616412 L104.806452,49.2747799 C104.806452,48.5482206 105.39632,47.9585492 106.123123,47.9585492 Z" id="Stroke-15" stroke="#3F555A" stroke-width="0.919733941" stroke-linecap="round" stroke-linejoin="round"></path>
                <mask id="mask-2" fill="white">
                    <use xlink:href="#path-1"></use>
                </mask>
                <g id="Clip-18"></g>
                <polygon id="Stroke-17" stroke="#19BC9C" stroke-width="0.919733941" stroke-linecap="round" stroke-linejoin="round" mask="url(#mask-2)" points="113.080645 110.673575 182.032258 110.673575 182.032258 89.4611399 113.080645 89.4611399"></polygon>
                <path d="M115.940132,64.4997287 C114.663797,64.5747924 113.963576,65.9427625 114.001461,67.1049548 C114.001461,67.8426492 114.248367,68.5609306 114.701682,69.1472035 C115.203333,69.7567721 115.959728,70.1023237 116.754008,70.0842048 C118.048632,70.02726 118.956568,68.9414256 119.656789,67.9474794 C122.54128,63.8345095 125.171027,59.5804717 127.790323,55.3367876 L127.790323,70.0932642" id="Stroke-19" stroke="#19BC9C" stroke-width="0.919733941" stroke-linecap="round" stroke-linejoin="round" mask="url(#mask-2)"></path>
                <path d="M130.548387,70.0932642 L125.032258,70.0932642" id="Stroke-20" stroke="#19BC9C" stroke-width="0.919733941" stroke-linecap="round" stroke-linejoin="round" mask="url(#mask-2)"></path>
                <path d="M127.790323,64.5595855 L122.274194,64.5595855" id="Stroke-21" stroke="#19BC9C" stroke-width="0.919733941" stroke-linecap="round" stroke-linejoin="round" mask="url(#mask-2)"></path>
                <path d="M141.580645,70.0932642 L180.193548,70.0932642" id="Stroke-22" stroke="#19BC9C" stroke-width="0.919733941" stroke-linecap="round" stroke-linejoin="round" mask="url(#mask-2)"></path>
                <path d="M135.604839,69.1709845 C135.858824,69.1709845 136.064516,69.3773311 136.064516,69.6321244 C136.064516,69.8869176 135.858824,70.0932642 135.604839,70.0932642 C135.350854,70.0932642 135.145161,69.8869176 135.145161,69.6321244 C135.145161,69.3773311 135.350854,69.1709845 135.604839,69.1709845 Z" id="Stroke-23" stroke="#19BC9C" stroke-width="0.919733941" stroke-linecap="round" stroke-linejoin="round" mask="url(#mask-2)"></path>
                <path d="M113.305813,124.642746 L114.827118,123.465136 C115.500858,122.939154 115.754184,122.654606 115.754184,122.244414 C115.771701,121.869944 115.455043,121.553369 115.045409,121.537356 C115.014417,121.536124 114.984773,121.537356 114.955128,121.539819 C114.558969,121.549674 114.195149,121.736909 113.979553,122.038702 C113.834025,122.191446 113.582046,122.20746 113.414958,122.075656 C113.326025,122.006675 113.276168,121.904435 113.276168,121.798499 C113.278863,121.709809 113.313897,121.626046 113.374534,121.557065 C113.754523,121.080354 114.367627,120.806893 115.01307,120.82537 C115.828295,120.751462 116.554587,121.295921 116.635436,122.041165 C116.639478,122.084279 116.642173,122.128624 116.642173,122.172969 C116.642173,122.886186 116.232539,123.269279 115.353982,123.956628 L114.378407,124.731436 L116.379415,124.731436 C116.588274,124.732668 116.759404,124.887876 116.758057,125.080038 C116.758057,125.2722 116.588274,125.427408 116.379415,125.427408 L113.549706,125.427408 C113.319287,125.452044 113.111775,125.301763 113.084826,125.091124 C113.082131,125.078806 113.082131,125.065256 113.080783,125.052938 C113.076741,124.890339 113.161632,124.737595 113.305813,124.642746" id="Fill-24" fill="#19BC9C" mask="url(#mask-2)"></path>
                <path d="M117.99,83.9274611 C118.162839,83.9274611 118.302581,84.0676477 118.302581,84.2410363 C118.302581,84.4144249 118.162839,84.5555337 117.99,84.5555337 C117.817161,84.5555337 117.677419,84.4144249 117.677419,84.2410363 C117.677419,84.0676477 117.817161,83.9274611 117.99,83.9274611 Z" id="Stroke-25" stroke="#19BC9C" stroke-width="0.919733941" stroke-linecap="round" stroke-linejoin="round" mask="url(#mask-2)"></path>
                <path d="M114.123109,81.0520593 L113.630694,81.1952747 L113.478779,81.1952747 C113.274479,81.21009 113.096371,81.0668747 113.080656,80.8755094 L113.080656,80.8730402 C113.079346,80.7113056 113.197212,80.5705596 113.364842,80.5335211 L114.094298,80.3100558 C114.226569,80.2680789 114.364078,80.2446212 114.502897,80.2384482 C114.726841,80.2335097 114.914116,80.4014173 114.919355,80.6137711 L114.919355,80.6322903 L114.919355,84.457127 C114.919355,84.6744192 114.73208,84.8509691 114.501588,84.8497345 C114.271096,84.8497345 114.08513,84.6744192 114.08513,84.457127 L114.123109,81.0520593 Z" id="Fill-26" fill="#19BC9C" mask="url(#mask-2)"></path>
                <path d="M121.354839,84.8497409 L134.225806,84.8497409" id="Stroke-27" stroke="#19BC9C" stroke-width="0.919733941" stroke-linecap="round" stroke-linejoin="round" mask="url(#mask-2)"></path>
                <path d="M137.903226,84.8497409 L157.209677,84.8497409" id="Stroke-28" stroke="#19BC9C" stroke-width="0.919733941" stroke-linecap="round" stroke-linejoin="round" mask="url(#mask-2)"></path>
                <path d="M160.887097,84.8497409 L171.919355,84.8497409" id="Stroke-29" stroke="#19BC9C" stroke-width="0.919733941" stroke-linecap="round" stroke-linejoin="round" mask="url(#mask-2)"></path>
                <polygon id="Stroke-30" stroke="#19BC9C" stroke-width="0.919733941" stroke-linecap="round" stroke-linejoin="round" mask="url(#mask-2)" points="113.080645 151.253886 182.032258 151.253886 182.032258 130.041451 113.080645 130.041451"></polygon>
                <path d="M117.99,125.430052 C118.162839,125.430052 118.302581,125.570238 118.302581,125.743627 C118.302581,125.917016 118.162839,126.058124 117.99,126.058124 C117.817161,126.058124 117.677419,125.917016 117.677419,125.743627 C117.677419,125.570238 117.817161,125.430052 117.99,125.430052 Z" id="Stroke-31" stroke="#19BC9C" stroke-width="0.919733941" stroke-linecap="round" stroke-linejoin="round" mask="url(#mask-2)"></path>
                <path d="M121.354839,125.430052 L129.629032,125.430052" id="Stroke-32" stroke="#19BC9C" stroke-width="0.919733941" stroke-linecap="round" stroke-linejoin="round" mask="url(#mask-2)"></path>
                <path d="M132.387097,125.430052 L154.451613,125.430052" id="Stroke-33" stroke="#19BC9C" stroke-width="0.919733941" stroke-linecap="round" stroke-linejoin="round" mask="url(#mask-2)"></path>
                <path d="M158.129032,125.430052 L173.758065,125.430052" id="Stroke-34" stroke="#19BC9C" stroke-width="0.919733941" stroke-linecap="round" stroke-linejoin="round" mask="url(#mask-2)"></path>
                <path d="M175.901404,84.0035525 C176.034089,84.0035525 176.145902,84.0455339 176.241316,84.1281849 C176.33524,84.2108359 176.382947,84.3105418 176.382947,84.4273027 C176.382947,84.5388159 176.336731,84.6372099 176.244298,84.7224847 C176.151866,84.8077595 176.038561,84.8497409 175.901404,84.8497409 C175.764246,84.8497409 175.650942,84.8077595 175.561491,84.7224847 C175.47204,84.6372099 175.427315,84.5388159 175.427315,84.4273027 C175.427315,84.3105418 175.473531,84.2108359 175.565963,84.1281849 C175.656905,84.0455339 175.768718,84.0035525 175.901404,84.0035525 M177.435484,81.2905018 C177.435484,81.451868 177.402685,81.5974911 177.337088,81.7286831 C177.271491,81.8598751 177.192476,81.9753241 177.100044,82.0776539 C177.007611,82.1786717 176.915179,82.2665704 176.821255,82.338726 C176.725841,82.4108816 176.65279,82.468606 176.602101,82.5092756 C176.517123,82.5722477 176.450035,82.633908 176.399346,82.6929444 C176.350148,82.7532927 176.315859,82.8162649 176.293496,82.8805489 C176.272624,82.944833 176.259207,83.0130529 176.254734,83.0852085 C176.250262,83.158676 176.248771,83.240015 176.248771,83.3318494 C176.248771,83.3895739 176.224917,83.4420507 176.180192,83.486656 C176.135466,83.5325732 176.040052,83.5548758 175.893949,83.5548758 C175.776173,83.5548758 175.692685,83.5299494 175.643487,83.4814083 C175.594289,83.4315554 175.568945,83.339721 175.568945,83.207217 C175.568945,83.0615939 175.582363,82.9356496 175.607707,82.830696 C175.633051,82.7244305 175.667341,82.633908 175.707594,82.5565047 C175.746356,82.4804133 175.792572,82.4148173 175.84177,82.3610286 C175.890968,82.3072399 175.941656,82.2613227 175.993836,82.223277 C176.054961,82.173424 176.125031,82.1209472 176.205536,82.0645347 C176.286042,82.009434 176.360584,81.9477738 176.432145,81.8808659 C176.502214,81.8152699 176.563339,81.7418023 176.612537,81.6604633 C176.661735,81.5791243 176.687079,81.484666 176.687079,81.3770886 C176.687079,81.2026032 176.619991,81.0700993 176.484324,80.9782649 C176.350148,80.8877424 176.174228,80.8418252 175.958056,80.8418252 C175.783627,80.8418252 175.652432,80.8654398 175.565963,80.910045 C175.478003,80.9559622 175.409425,81.0045033 175.357245,81.0569801 C175.305065,81.108145 175.257358,81.1579979 175.215615,81.2026032 C175.17238,81.2485204 175.111255,81.270823 175.032241,81.270823 C174.951735,81.270823 174.87272,81.2472085 174.795196,81.1999794 C174.716181,81.1527502 174.677419,81.0766589 174.677419,80.9730172 C174.677419,80.8982378 174.704255,80.8182106 174.759416,80.7329358 C174.813086,80.647661 174.896574,80.5676339 175.006896,80.4928545 C175.117219,80.4193869 175.254377,80.3577267 175.416879,80.3091857 C175.579381,80.2619565 175.767228,80.238342 175.978928,80.238342 C176.205536,80.238342 176.408291,80.2658923 176.587193,80.319681 C176.766094,80.3734697 176.91816,80.4469373 177.043391,80.5400836 C177.168622,80.6332299 177.265527,80.7447431 177.334106,80.8733113 C177.401194,81.0018794 177.435484,81.140943 177.435484,81.2905018" id="Fill-35" fill="#19BC9C" mask="url(#mask-2)"></path>
                <path d="M176.820759,125.506143 C176.953444,125.506143 177.065257,125.548125 177.160671,125.630776 C177.254595,125.713427 177.302302,125.813132 177.302302,125.929893 C177.302302,126.041407 177.256085,126.139801 177.163653,126.225075 C177.071221,126.31035 176.957916,126.352332 176.820759,126.352332 C176.683601,126.352332 176.570296,126.31035 176.480846,126.225075 C176.391395,126.139801 176.34667,126.041407 176.34667,125.929893 C176.34667,125.813132 176.392886,125.713427 176.485318,125.630776 C176.57626,125.548125 176.688073,125.506143 176.820759,125.506143 M178.354839,122.793093 C178.354839,122.954459 178.32204,123.100082 178.256443,123.231274 C178.190846,123.362466 178.111831,123.477915 178.019398,123.580245 C177.926966,123.681262 177.834534,123.769161 177.74061,123.841317 C177.645196,123.913472 177.572145,123.971197 177.521456,124.011866 C177.436478,124.074838 177.36939,124.136499 177.318701,124.195535 C177.269503,124.255883 177.235214,124.318856 177.212851,124.38314 C177.191979,124.447424 177.178561,124.515644 177.174089,124.587799 C177.169616,124.661267 177.168126,124.742606 177.168126,124.83444 C177.168126,124.892165 177.144272,124.944641 177.099547,124.989247 C177.054821,125.035164 176.959407,125.057467 176.813304,125.057467 C176.695527,125.057467 176.61204,125.03254 176.562842,124.983999 C176.513644,124.934146 176.4883,124.842312 176.4883,124.709808 C176.4883,124.564185 176.501718,124.43824 176.527062,124.333287 C176.552406,124.227021 176.586696,124.136499 176.626949,124.059095 C176.665711,123.983004 176.711927,123.917408 176.761125,123.863619 C176.810323,123.809831 176.861011,123.763913 176.913191,123.725868 C176.974316,123.676015 177.044385,123.623538 177.124891,123.567125 C177.205397,123.512025 177.279939,123.450364 177.3515,123.383457 C177.421569,123.317861 177.482694,123.244393 177.531892,123.163054 C177.58109,123.081715 177.606434,122.987257 177.606434,122.879679 C177.606434,122.705194 177.539346,122.57269 177.403679,122.480856 C177.269503,122.390333 177.093583,122.344416 176.877411,122.344416 C176.702982,122.344416 176.571787,122.36803 176.485318,122.412636 C176.397358,122.458553 176.328779,122.507094 176.2766,122.559571 C176.22442,122.610736 176.176713,122.660589 176.134969,122.705194 C176.091735,122.751111 176.03061,122.773414 175.951595,122.773414 C175.87109,122.773414 175.792075,122.749799 175.714551,122.70257 C175.635536,122.655341 175.596774,122.57925 175.596774,122.475608 C175.596774,122.400828 175.623609,122.320801 175.678771,122.235527 C175.732441,122.150252 175.815929,122.070225 175.926251,121.995445 C176.036574,121.921978 176.173731,121.860317 176.336234,121.811776 C176.498736,121.764547 176.686582,121.740933 176.898282,121.740933 C177.124891,121.740933 177.327646,121.768483 177.506548,121.822272 C177.685449,121.87606 177.837515,121.949528 177.962746,122.042674 C178.087977,122.135821 178.184882,122.247334 178.253461,122.375902 C178.320549,122.50447 178.354839,122.643534 178.354839,122.793093" id="Fill-36" fill="#19BC9C" mask="url(#mask-2)"></path>
                <path d="M167.322581,80.238342 L167.322581,25.8238342 L220.645161,25.8238342 L220.645161,31.8753321" id="Stroke-37" stroke="#F56F40" stroke-width="0.919733941" stroke-linecap="round" stroke-linejoin="round" stroke-dasharray="5.518403482272138,3.678935654848092" mask="url(#mask-2)"></path>
                <path d="M109.403226,123.585492 L53.3225806,123.585492 L53.3225806,98.6839378" id="Stroke-38" stroke="#F56F40" stroke-width="0.919733941" stroke-linecap="round" stroke-linejoin="round" stroke-dasharray="5.518403482272138,3.678935654848092" mask="url(#mask-2)"></path>
                <polygon id="Stroke-39" stroke="#A1C2D8" stroke-width="0.919733941" stroke-linecap="round" stroke-linejoin="round" mask="url(#mask-2)" points="28.5 89.4611399 75.3870968 89.4611399 75.3870968 29.5129534 28.5 29.5129534"></polygon>
                <polygon id="Stroke-40" stroke="#A1C2D8" stroke-width="0.919733941" stroke-linecap="round" stroke-linejoin="round" mask="url(#mask-2)" points="204.096774 114.362694 263.854839 114.362694 263.854839 35.9689119 204.096774 35.9689119"></polygon>
                <path d="M36.7741935,37.8134715 C37.7899324,37.8134715 38.6129032,38.6390607 38.6129032,39.6580311 C38.6129032,40.6770015 37.7899324,41.5025907 36.7741935,41.5025907 C35.7584547,41.5025907 34.9354839,40.6770015 34.9354839,39.6580311 C34.9354839,38.6390607 35.7584547,37.8134715 36.7741935,37.8134715" id="Fill-41" fill="#A1C2D8" mask="url(#mask-2)"></path>
                <path d="M55.1612903,38.7357513 L60.6774194,38.7357513" id="Stroke-42" stroke="#A1C2D8" stroke-width="0.919733941" stroke-linecap="round" stroke-linejoin="round" mask="url(#mask-2)"></path>
                <path d="M43.2096774,38.7357513 L51.483871,38.7357513" id="Stroke-43" stroke="#A1C2D8" stroke-width="0.919733941" stroke-linecap="round" stroke-linejoin="round" mask="url(#mask-2)"></path>
                <path d="M50.5645161,40.5803109 L62.516129,40.5803109" id="Stroke-44" stroke="#A1C2D8" stroke-width="0.919733941" stroke-linecap="round" stroke-linejoin="round" mask="url(#mask-2)"></path>
                <path d="M43.2096774,40.5803109 L46.8870968,40.5803109" id="Stroke-45" stroke="#A1C2D8" stroke-width="0.919733941" stroke-linecap="round" stroke-linejoin="round" mask="url(#mask-2)"></path>
                <path d="M36.7741935,47.0362694 C37.7899324,47.0362694 38.6129032,47.8618586 38.6129032,48.880829 C38.6129032,49.8997994 37.7899324,50.7253886 36.7741935,50.7253886 C35.7584547,50.7253886 34.9354839,49.8997994 34.9354839,48.880829 C34.9354839,47.8618586 35.7584547,47.0362694 36.7741935,47.0362694" id="Fill-46" fill="#A1C2D8" mask="url(#mask-2)"></path>
                <path d="M59.7580645,47.9585492 L65.2741935,47.9585492" id="Stroke-47" stroke="#A1C2D8" stroke-width="0.919733941" stroke-linecap="round" stroke-linejoin="round" mask="url(#mask-2)"></path>
                <path d="M50.5645161,47.9585492 L56.0806452,47.9585492" id="Stroke-48" stroke="#A1C2D8" stroke-width="0.919733941" stroke-linecap="round" stroke-linejoin="round" mask="url(#mask-2)"></path>
                <path d="M43.2096774,47.9585492 L46.8870968,47.9585492" id="Stroke-49" stroke="#A1C2D8" stroke-width="0.919733941" stroke-linecap="round" stroke-linejoin="round" mask="url(#mask-2)"></path>
                <path d="M51.483871,49.8031088 L68.9516129,49.8031088" id="Stroke-50" stroke="#A1C2D8" stroke-width="0.919733941" stroke-linecap="round" stroke-linejoin="round" mask="url(#mask-2)"></path>
                <path d="M43.2096774,49.8031088 L47.8064516,49.8031088" id="Stroke-51" stroke="#A1C2D8" stroke-width="0.919733941" stroke-linecap="round" stroke-linejoin="round" mask="url(#mask-2)"></path>
                <path d="M36.7741935,75.626943 C37.7899324,75.626943 38.6129032,76.4525322 38.6129032,77.4715026 C38.6129032,78.490473 37.7899324,79.3160622 36.7741935,79.3160622 C35.7584547,79.3160622 34.9354839,78.490473 34.9354839,77.4715026 C34.9354839,76.4525322 35.7584547,75.626943 36.7741935,75.626943" id="Fill-52" fill="#A1C2D8" mask="url(#mask-2)"></path>
                <path d="M59.7580645,76.5492228 L65.2741935,76.5492228" id="Stroke-53" stroke="#A1C2D8" stroke-width="0.919733941" stroke-linecap="round" stroke-linejoin="round" mask="url(#mask-2)"></path>
                <path d="M50.5645161,76.5492228 L56.0806452,76.5492228" id="Stroke-54" stroke="#A1C2D8" stroke-width="0.919733941" stroke-linecap="round" stroke-linejoin="round" mask="url(#mask-2)"></path>
                <path d="M43.2096774,76.5492228 L46.8870968,76.5492228" id="Stroke-55" stroke="#A1C2D8" stroke-width="0.919733941" stroke-linecap="round" stroke-linejoin="round" mask="url(#mask-2)"></path>
                <path d="M51.483871,78.3937824 L68.9516129,78.3937824" id="Stroke-56" stroke="#A1C2D8" stroke-width="0.919733941" stroke-linecap="round" stroke-linejoin="round" mask="url(#mask-2)"></path>
                <path d="M43.2096774,78.3937824 L47.8064516,78.3937824" id="Stroke-57" stroke="#A1C2D8" stroke-width="0.919733941" stroke-linecap="round" stroke-linejoin="round" mask="url(#mask-2)"></path>
                <path d="M36.7741935,56.2590674 C37.7899324,56.2590674 38.6129032,57.0846565 38.6129032,58.1036269 C38.6129032,59.1225974 37.7899324,59.9481865 36.7741935,59.9481865 C35.7584547,59.9481865 34.9354839,59.1225974 34.9354839,58.1036269 C34.9354839,57.0846565 35.7584547,56.2590674 36.7741935,56.2590674" id="Fill-58" fill="#A1C2D8" mask="url(#mask-2)"></path>
                <path d="M59.7580645,59.9481865 L65.2741935,59.9481865" id="Stroke-59" stroke="#A1C2D8" stroke-width="0.919733941" stroke-linecap="round" stroke-linejoin="round" mask="url(#mask-2)"></path>
                <path d="M50.5645161,59.9481865 L56.0806452,59.9481865" id="Stroke-60" stroke="#A1C2D8" stroke-width="0.919733941" stroke-linecap="round" stroke-linejoin="round" mask="url(#mask-2)"></path>
                <path d="M43.2096774,59.9481865 L46.8870968,59.9481865" id="Stroke-61" stroke="#A1C2D8" stroke-width="0.919733941" stroke-linecap="round" stroke-linejoin="round" mask="url(#mask-2)"></path>
                <path d="M56.0806452,57.1813472 L61.5967742,57.1813472" id="Stroke-62" stroke="#A1C2D8" stroke-width="0.919733941" stroke-linecap="round" stroke-linejoin="round" mask="url(#mask-2)"></path>
                <path d="M43.2096774,57.1813472 L52.4032258,57.1813472" id="Stroke-63" stroke="#A1C2D8" stroke-width="0.919733941" stroke-linecap="round" stroke-linejoin="round" mask="url(#mask-2)"></path>
                <path d="M36.7741935,66.4041451 C37.7899324,66.4041451 38.6129032,67.2297342 38.6129032,68.2487047 C38.6129032,69.2676751 37.7899324,70.0932642 36.7741935,70.0932642 C35.7584547,70.0932642 34.9354839,69.2676751 34.9354839,68.2487047 C34.9354839,67.2297342 35.7584547,66.4041451 36.7741935,66.4041451" id="Fill-64" fill="#A1C2D8" mask="url(#mask-2)"></path>
                <path d="M55.1612903,67.3264249 L60.6774194,67.3264249" id="Stroke-65" stroke="#A1C2D8" stroke-width="0.919733941" stroke-linecap="round" stroke-linejoin="round" mask="url(#mask-2)"></path>
                <path d="M43.2096774,67.3264249 L51.483871,67.3264249" id="Stroke-66" stroke="#A1C2D8" stroke-width="0.919733941" stroke-linecap="round" stroke-linejoin="round" mask="url(#mask-2)"></path>
                <path d="M50.5645161,69.1709845 L62.516129,69.1709845" id="Stroke-67" stroke="#A1C2D8" stroke-width="0.919733941" stroke-linecap="round" stroke-linejoin="round" mask="url(#mask-2)"></path>
                <path d="M43.2096774,69.1709845 L46.8870968,69.1709845" id="Stroke-68" stroke="#A1C2D8" stroke-width="0.919733941" stroke-linecap="round" stroke-linejoin="round" mask="url(#mask-2)"></path>
                <path d="M223.93138,57.1813472 L213.681524,57.1813472 C213.681524,55.9452837 212.682575,54.9445378 211.451613,54.9445378 L211.451613,44.6629727 C212.682575,44.6629727 213.681524,43.6609339 213.681524,42.4248705 L223.93138,42.4248705 C223.93138,43.6609339 224.930328,44.6629727 226.16129,44.6629727 L226.16129,54.9445378 C224.930328,54.9445378 223.93138,55.9452837 223.93138,57.1813472 Z" id="Fill-69" fill="#D0E4F1" mask="url(#mask-2)"></path>
                <path d="M223.93138,57.1813472 L213.681524,57.1813472 C213.681524,55.9452837 212.682575,54.9445378 211.451613,54.9445378 L211.451613,44.6629727 C212.682575,44.6629727 213.681524,43.6609339 213.681524,42.4248705 L223.93138,42.4248705 C223.93138,43.6609339 224.930328,44.6629727 226.16129,44.6629727 L226.16129,54.9445378 C224.930328,54.9445378 223.93138,55.9452837 223.93138,57.1813472 Z" id="Stroke-70" stroke="#A1C2D8" stroke-width="0.919733941" stroke-linecap="round" stroke-linejoin="round" mask="url(#mask-2)"></path>
                <path d="M215.250125,49.7635856 C214.592905,49.8840288 214.144071,50.4514778 214.217541,51.0710774 C214.217541,51.4410989 214.348451,51.8011869 214.591569,52.0954657 C214.857396,52.4009196 215.259476,52.5759969 215.682929,52.5697885 C216.348164,52.454312 216.917221,52.0594569 217.227129,51.5006997 C218.761979,49.4432314 220.177942,47.3137456 221.564516,45.1917098 L221.564516,52.5697885" id="Stroke-71" stroke="#FFFFFF" stroke-width="0.919733941" stroke-linecap="round" stroke-linejoin="round" mask="url(#mask-2)"></path>
                <path d="M222.483871,53.492228 L219.725806,53.492228" id="Stroke-72" stroke="#FFFFFF" stroke-width="0.919733941" stroke-linecap="round" stroke-linejoin="round" mask="url(#mask-2)"></path>
                <path d="M221.564516,49.8031088 L218.806452,49.8031088" id="Stroke-73" stroke="#FFFFFF" stroke-width="0.919733941" stroke-linecap="round" stroke-linejoin="round" mask="url(#mask-2)"></path>
                <path d="M250.983871,43.3471503 L254.66129,43.3471503" id="Stroke-74" stroke="#A1C2D8" stroke-width="0.919733941" stroke-linecap="round" stroke-linejoin="round" mask="url(#mask-2)"></path>
                <path d="M238.112903,43.3471503 L246.387097,43.3471503" id="Stroke-75" stroke="#A1C2D8" stroke-width="0.919733941" stroke-linecap="round" stroke-linejoin="round" mask="url(#mask-2)"></path>
                <path d="M231.677419,43.3471503 L235.354839,43.3471503" id="Stroke-76" stroke="#A1C2D8" stroke-width="0.919733941" stroke-linecap="round" stroke-linejoin="round" mask="url(#mask-2)"></path>
                <path d="M245.467742,47.9585492 L256.5,47.9585492" id="Stroke-77" stroke="#A1C2D8" stroke-width="0.919733941" stroke-linecap="round" stroke-linejoin="round" mask="url(#mask-2)"></path>
                <path d="M231.677419,47.9585492 L240.870968,47.9585492" id="Stroke-78" stroke="#A1C2D8" stroke-width="0.919733941" stroke-linecap="round" stroke-linejoin="round" mask="url(#mask-2)"></path>
                <path d="M230.758065,52.5699482 L255.580645,52.5699482" id="Stroke-79" stroke="#A1C2D8" stroke-width="0.919733941" stroke-linecap="round" stroke-linejoin="round" mask="url(#mask-2)"></path>
                <path d="M230.758065,57.1813472 L242.709677,57.1813472" id="Stroke-80" stroke="#A1C2D8" stroke-width="0.919733941" stroke-linecap="round" stroke-linejoin="round" mask="url(#mask-2)"></path>
                <path d="M245.467742,57.1813472 L255.580645,57.1813472" id="Stroke-81" stroke="#A1C2D8" stroke-width="0.919733941" stroke-linecap="round" stroke-linejoin="round" mask="url(#mask-2)"></path>
                <path d="M233.516129,61.7927461 L239.032258,61.7927461" id="Stroke-82" stroke="#A1C2D8" stroke-width="0.919733941" stroke-linecap="round" stroke-linejoin="round" mask="url(#mask-2)"></path>
                <path d="M220.645161,61.7927461 L229.83871,61.7927461" id="Stroke-83" stroke="#A1C2D8" stroke-width="0.919733941" stroke-linecap="round" stroke-linejoin="round" mask="url(#mask-2)"></path>
                <path d="M242.709677,61.7927461 L256.5,61.7927461" id="Stroke-84" stroke="#A1C2D8" stroke-width="0.919733941" stroke-linecap="round" stroke-linejoin="round" mask="url(#mask-2)"></path>
                <path d="M212.370968,66.4041451 L256.5,66.4041451" id="Stroke-85" stroke="#A1C2D8" stroke-width="0.919733941" stroke-linecap="round" stroke-linejoin="round" mask="url(#mask-2)"></path>
                <path d="M212.370968,71.9378238 L256.5,71.9378238" id="Stroke-86" stroke="#A1C2D8" stroke-width="0.919733941" stroke-linecap="round" stroke-linejoin="round" mask="url(#mask-2)"></path>
                <path d="M212.370968,95.9170984 L256.5,95.9170984" id="Stroke-87" stroke="#A1C2D8" stroke-width="0.919733941" stroke-linecap="round" stroke-linejoin="round" mask="url(#mask-2)"></path>
                <path d="M212.370968,101.450777 L256.5,101.450777" id="Stroke-88" stroke="#A1C2D8" stroke-width="0.919733941" stroke-linecap="round" stroke-linejoin="round" mask="url(#mask-2)"></path>
                <path d="M212.370968,82.0829016 L229.83871,82.0829016" id="Stroke-89" stroke="#A1C2D8" stroke-width="0.919733941" stroke-linecap="round" stroke-linejoin="round" mask="url(#mask-2)"></path>
                <path d="M231.677419,82.0829016 L249.145161,82.0829016" id="Stroke-90" stroke="#A1C2D8" stroke-width="0.919733941" stroke-linecap="round" stroke-linejoin="round" mask="url(#mask-2)"></path>
                <path d="M252.822581,82.0829016 L256.5,82.0829016" id="Stroke-91" stroke="#A1C2D8" stroke-width="0.919733941" stroke-linecap="round" stroke-linejoin="round" mask="url(#mask-2)"></path>
                <path d="M212.370968,91.3056995 L229.83871,91.3056995" id="Stroke-92" stroke="#A1C2D8" stroke-width="0.919733941" stroke-linecap="round" stroke-linejoin="round" mask="url(#mask-2)"></path>
                <path d="M231.677419,91.3056995 L249.145161,91.3056995" id="Stroke-93" stroke="#A1C2D8" stroke-width="0.919733941" stroke-linecap="round" stroke-linejoin="round" mask="url(#mask-2)"></path>
                <path d="M252.822581,91.3056995 L256.5,91.3056995" id="Stroke-94" stroke="#A1C2D8" stroke-width="0.919733941" stroke-linecap="round" stroke-linejoin="round" mask="url(#mask-2)"></path>
                <path d="M213.290323,61.7927461 L217.887097,61.7927461" id="Stroke-95" stroke="#A1C2D8" stroke-width="0.919733941" stroke-linecap="round" stroke-linejoin="round" mask="url(#mask-2)"></path>
                <path d="M235.354839,77.4715026 L229.83871,77.4715026" id="Stroke-96" stroke="#A1C2D8" stroke-width="0.919733941" stroke-linecap="round" stroke-linejoin="round" mask="url(#mask-2)"></path>
                <path d="M248.225806,77.4715026 L239.032258,77.4715026" id="Stroke-97" stroke="#A1C2D8" stroke-width="0.919733941" stroke-linecap="round" stroke-linejoin="round" mask="url(#mask-2)"></path>
                <path d="M226.16129,77.4715026 L212.370968,77.4715026" id="Stroke-98" stroke="#A1C2D8" stroke-width="0.919733941" stroke-linecap="round" stroke-linejoin="round" mask="url(#mask-2)"></path>
                <path d="M234.435484,106.062176 L228.919355,106.062176" id="Stroke-99" stroke="#A1C2D8" stroke-width="0.919733941" stroke-linecap="round" stroke-linejoin="round" mask="url(#mask-2)"></path>
                <path d="M246.387097,106.062176 L237.193548,106.062176" id="Stroke-100" stroke="#A1C2D8" stroke-width="0.919733941" stroke-linecap="round" stroke-linejoin="round" mask="url(#mask-2)"></path>
                <path d="M225.241935,106.062176 L211.451613,106.062176" id="Stroke-101" stroke="#A1C2D8" stroke-width="0.919733941" stroke-linecap="round" stroke-linejoin="round" mask="url(#mask-2)"></path>
                <path d="M256.5,77.4715026 L251.903226,77.4715026" id="Stroke-102" stroke="#A1C2D8" stroke-width="0.919733941" stroke-linecap="round" stroke-linejoin="round" mask="url(#mask-2)"></path>
                <polygon id="Fill-103" fill="#FFFFFF" mask="url(#mask-2)" points="0.919354839 112.518135 43.2096774 112.518135 43.2096774 83.0051813 0.919354839 83.0051813"></polygon>
                <polygon id="Stroke-104" stroke="#A1C2D8" stroke-width="0.919733941" stroke-linecap="round" stroke-linejoin="round" mask="url(#mask-2)" points="0.919354839 112.518135 43.2096774 112.518135 43.2096774 83.0051813 0.919354839 83.0051813"></polygon>
                <polygon id="Fill-105" fill="#FFFFFF" mask="url(#mask-2)" points="250.064516 142.031088 284.080645 142.031088 284.080645 98.6839378 250.064516 98.6839378"></polygon>
                <polygon id="Stroke-106" stroke="#A1C2D8" stroke-width="0.919733941" stroke-linecap="round" stroke-linejoin="round" mask="url(#mask-2)" points="250.064516 142.031088 284.080645 142.031088 284.080645 98.6839378 250.064516 98.6839378"></polygon>
                <polygon id="Fill-107" fill="#F3F6F7" mask="url(#mask-2)" points="254.66129 117.129534 279.483871 117.129534 279.483871 112.518135 254.66129 112.518135"></polygon>
                <path d="M254.66129,103.295337 L257.419355,103.295337" id="Stroke-108" stroke="#3F555A" stroke-width="1.83946788" stroke-linejoin="round" mask="url(#mask-2)"></path>
                <path d="M254.66129,107.906736 L279.483871,107.906736" id="Stroke-109" stroke="#3F555A" stroke-width="1.83946788" stroke-linejoin="round" mask="url(#mask-2)"></path>
                <polygon id="Fill-110" fill="#F3F6F7" mask="url(#mask-2)" points="254.66129 134.65285 279.483871 134.65285 279.483871 130.041451 254.66129 130.041451"></polygon>
                <path d="M254.66129,121.740933 L257.419355,121.740933" id="Stroke-111" stroke="#3F555A" stroke-width="1.83946788" stroke-linejoin="round" mask="url(#mask-2)"></path>
                <path d="M254.66129,126.352332 L279.483871,126.352332" id="Stroke-112" stroke="#3F555A" stroke-width="1.83946788" stroke-linejoin="round" mask="url(#mask-2)"></path>
                <g id="Group-115" mask="url(#mask-2)">
                    <g transform="translate(10.112903, 90.383420)">
                        <path d="M0.261812903,0.209572712 L21.9319258,0.209572712 C23.4761516,0.209572712 24.7290387,1.4612601 24.7290387,3.00561762 L24.7290387,6.37916339 C24.7290387,7.9235209 23.4761516,9.17651485 21.9319258,9.17651485 L7.72295806,9.17651485 C6.17873226,9.17651485 4.92715161,10.4282022 4.92715161,11.9725598 C4.92715161,13.5169173 6.17873226,14.7686047 7.72295806,14.7686047 L19.4967,14.7686047" id="Fill-113" stroke="none" fill="#FFFFFF" fill-rule="evenodd"></path>
                        <path d="M0.261812903,0.209572712 L21.9319258,0.209572712 C23.4761516,0.209572712 24.7290387,1.4612601 24.7290387,3.00561762 L24.7290387,6.37916339 C24.7290387,7.9235209 23.4761516,9.17651485 21.9319258,9.17651485 L7.72295806,9.17651485 C6.17873226,9.17651485 4.92715161,10.4282022 4.92715161,11.9725598 C4.92715161,13.5169173 6.17873226,14.7686047 7.72295806,14.7686047 L19.4967,14.7686047" id="Stroke-114" stroke="#3F555A" stroke-width="0.919733941" fill="none" stroke-linecap="round" stroke-linejoin="round"></path>
                    </g>
                </g>
                <path d="M11.0322581,90.3834197 C11.0322581,91.4021139 10.2090118,92.2279793 9.19354839,92.2279793 C8.17808493,92.2279793 7.35483871,91.4021139 7.35483871,90.3834197 C7.35483871,89.3647255 8.17808493,88.5388601 9.19354839,88.5388601 C10.2090118,88.5388601 11.0322581,89.3647255 11.0322581,90.3834197" id="Fill-116" fill="#3F555A" mask="url(#mask-2)"></path>
                <path d="M19.3064516,90.3834197 C19.3064516,91.4021139 18.4832054,92.2279793 17.4677419,92.2279793 C16.4522785,92.2279793 15.6290323,91.4021139 15.6290323,90.3834197 C15.6290323,89.3647255 16.4522785,88.5388601 17.4677419,88.5388601 C18.4832054,88.5388601 19.3064516,89.3647255 19.3064516,90.3834197" id="Fill-117" fill="#FFFFFF" mask="url(#mask-2)"></path>
                <path d="M19.3064516,90.3834197 C19.3064516,91.4021139 18.4832054,92.2279793 17.4677419,92.2279793 C16.4522785,92.2279793 15.6290323,91.4021139 15.6290323,90.3834197 C15.6290323,89.3647255 16.4522785,88.5388601 17.4677419,88.5388601 C18.4832054,88.5388601 19.3064516,89.3647255 19.3064516,90.3834197 Z" id="Stroke-118" stroke="#3F555A" stroke-width="0.919733941" stroke-linecap="round" stroke-linejoin="round" mask="url(#mask-2)"></path>
                <path d="M28.5,90.3834197 C28.5,91.4021139 27.6767538,92.2279793 26.6612903,92.2279793 C25.6458269,92.2279793 24.8225806,91.4021139 24.8225806,90.3834197 C24.8225806,89.3647255 25.6458269,88.5388601 26.6612903,88.5388601 C27.6767538,88.5388601 28.5,89.3647255 28.5,90.3834197" id="Fill-119" fill="#FFFFFF" mask="url(#mask-2)"></path>
                <path d="M28.5,90.3834197 C28.5,91.4021139 27.6767538,92.2279793 26.6612903,92.2279793 C25.6458269,92.2279793 24.8225806,91.4021139 24.8225806,90.3834197 C24.8225806,89.3647255 25.6458269,88.5388601 26.6612903,88.5388601 C27.6767538,88.5388601 28.5,89.3647255 28.5,90.3834197 Z" id="Stroke-120" stroke="#3F555A" stroke-width="0.919733941" stroke-linecap="round" stroke-linejoin="round" mask="url(#mask-2)"></path>
                <path d="M36.7741935,91.3056995 C36.7741935,92.3243937 35.9509473,93.1502591 34.9354839,93.1502591 C33.9200204,93.1502591 33.0967742,92.3243937 33.0967742,91.3056995 C33.0967742,90.2870053 33.9200204,89.4611399 34.9354839,89.4611399 C35.9509473,89.4611399 36.7741935,90.2870053 36.7741935,91.3056995" id="Fill-121" fill="#FFFFFF" mask="url(#mask-2)"></path>
                <path d="M36.7741935,91.3056995 C36.7741935,92.3243937 35.9509473,93.1502591 34.9354839,93.1502591 C33.9200204,93.1502591 33.0967742,92.3243937 33.0967742,91.3056995 C33.0967742,90.2870053 33.9200204,89.4611399 34.9354839,89.4611399 C35.9509473,89.4611399 36.7741935,90.2870053 36.7741935,91.3056995 Z" id="Stroke-122" stroke="#3F555A" stroke-width="0.919733941" stroke-linecap="round" stroke-linejoin="round" mask="url(#mask-2)"></path>
                <path d="M34.9354839,100.528497 C33.9200204,100.528497 33.0967742,99.702632 33.0967742,98.6839378 C33.0967742,97.6652436 33.9200204,96.8393782 34.9354839,96.8393782 C35.9509473,96.8393782 36.7741935,97.6652436 36.7741935,98.6839378 C36.7741935,99.702632 35.9509473,100.528497 34.9354839,100.528497" id="Fill-123" fill="#FFFFFF" mask="url(#mask-2)"></path>
                <path d="M34.9354839,100.528497 C33.9200204,100.528497 33.0967742,99.702632 33.0967742,98.6839378 C33.0967742,97.6652436 33.9200204,96.8393782 34.9354839,96.8393782 C35.9509473,96.8393782 36.7741935,97.6652436 36.7741935,98.6839378 C36.7741935,99.702632 35.9509473,100.528497 34.9354839,100.528497 Z" id="Stroke-124" stroke="#3F555A" stroke-width="0.919733941" stroke-linecap="round" stroke-linejoin="round" mask="url(#mask-2)"></path>
                <path d="M28.5,98.6839378 C28.5,99.702632 27.6767538,100.528497 26.6612903,100.528497 C25.6458269,100.528497 24.8225806,99.702632 24.8225806,98.6839378 C24.8225806,97.6652436 25.6458269,96.8393782 26.6612903,96.8393782 C27.6767538,96.8393782 28.5,97.6652436 28.5,98.6839378" id="Fill-125" fill="#FFFFFF" mask="url(#mask-2)"></path>
                <path d="M28.5,98.6839378 C28.5,99.702632 27.6767538,100.528497 26.6612903,100.528497 C25.6458269,100.528497 24.8225806,99.702632 24.8225806,98.6839378 C24.8225806,97.6652436 25.6458269,96.8393782 26.6612903,96.8393782 C27.6767538,96.8393782 28.5,97.6652436 28.5,98.6839378 Z" id="Stroke-126" stroke="#3F555A" stroke-width="0.919733941" stroke-linecap="round" stroke-linejoin="round" mask="url(#mask-2)"></path>
                <path d="M19.3064516,98.6839378 C19.3064516,99.702632 18.4832054,100.528497 17.4677419,100.528497 C16.4522785,100.528497 15.6290323,99.702632 15.6290323,98.6839378 C15.6290323,97.6652436 16.4522785,96.8393782 17.4677419,96.8393782 C18.4832054,96.8393782 19.3064516,97.6652436 19.3064516,98.6839378" id="Fill-127" fill="#FFFFFF" mask="url(#mask-2)"></path>
                <path d="M19.3064516,98.6839378 C19.3064516,99.702632 18.4832054,100.528497 17.4677419,100.528497 C16.4522785,100.528497 15.6290323,99.702632 15.6290323,98.6839378 C15.6290323,97.6652436 16.4522785,96.8393782 17.4677419,96.8393782 C18.4832054,96.8393782 19.3064516,97.6652436 19.3064516,98.6839378 Z" id="Stroke-128" stroke="#3F555A" stroke-width="0.919733941" stroke-linecap="round" stroke-linejoin="round" mask="url(#mask-2)"></path>
                <path d="M22.983871,105.139896 C22.983871,106.158591 22.1606248,106.984456 21.1451613,106.984456 C20.1296978,106.984456 19.3064516,106.158591 19.3064516,105.139896 C19.3064516,104.121202 20.1296978,103.295337 21.1451613,103.295337 C22.1606248,103.295337 22.983871,104.121202 22.983871,105.139896" id="Fill-129" fill="#FFFFFF" mask="url(#mask-2)"></path>
                <path d="M22.983871,105.139896 C22.983871,106.158591 22.1606248,106.984456 21.1451613,106.984456 C20.1296978,106.984456 19.3064516,106.158591 19.3064516,105.139896 C19.3064516,104.121202 20.1296978,103.295337 21.1451613,103.295337 C22.1606248,103.295337 22.983871,104.121202 22.983871,105.139896 Z" id="Stroke-130" stroke="#3F555A" stroke-width="0.919733941" stroke-linecap="round" stroke-linejoin="round" mask="url(#mask-2)"></path>
                <path d="M31.2580645,105.139896 C31.2580645,106.158591 30.4348183,106.984456 29.4193548,106.984456 C28.4038914,106.984456 27.5806452,106.158591 27.5806452,105.139896 C27.5806452,104.121202 28.4038914,103.295337 29.4193548,103.295337 C30.4348183,103.295337 31.2580645,104.121202 31.2580645,105.139896" id="Fill-131" fill="#FFFFFF" mask="url(#mask-2)"></path>
                <path d="M31.2580645,105.139896 C31.2580645,106.158591 30.4348183,106.984456 29.4193548,106.984456 C28.4038914,106.984456 27.5806452,106.158591 27.5806452,105.139896 C27.5806452,104.121202 28.4038914,103.295337 29.4193548,103.295337 C30.4348183,103.295337 31.2580645,104.121202 31.2580645,105.139896 Z" id="Stroke-132" stroke="#3F555A" stroke-width="0.919733941" stroke-linecap="round" stroke-linejoin="round" mask="url(#mask-2)"></path>
                <path d="M99.7916686,0.922279793 C85.3439081,0.922279793 73.6317243,9.5930722 73.6317243,20.2901554 C73.6317243,22.1235287 73.9822697,23.8939084 74.6251566,25.573735 L69.8709677,37.7222934 L82.6691808,34.9256446 C87.2580181,37.871903 93.2411,39.6580311 99.7916686,39.6580311 C114.239429,39.6580311 125.951613,30.9872387 125.951613,20.2901554 C125.951613,9.5930722 114.239429,0.922279793 99.7916686,0.922279793" id="Fill-133" fill="#FFFFFF" mask="url(#mask-2)"></path>
                <path d="M110.322581,14.7564767 L119.516129,14.7564767" id="Stroke-134" stroke="#A1C2D8" stroke-width="0.919733941" stroke-linecap="round" stroke-linejoin="round" mask="url(#mask-2)"></path>
                <path d="M94.6935484,14.7564767 L104.806452,14.7564767" id="Stroke-135" stroke="#A1C2D8" stroke-width="0.919733941" stroke-linecap="round" stroke-linejoin="round" mask="url(#mask-2)"></path>
                <path d="M81.8225806,14.7564767 L88.2580645,14.7564767" id="Stroke-136" stroke="#A1C2D8" stroke-width="0.919733941" stroke-linecap="round" stroke-linejoin="round" mask="url(#mask-2)"></path>
                <path d="M95.6129032,18.4455959 L110.322581,18.4455959" id="Stroke-137" stroke="#A1C2D8" stroke-width="0.919733941" stroke-linecap="round" stroke-linejoin="round" mask="url(#mask-2)"></path>
                <path d="M81.8225806,18.4455959 L90.0967742,18.4455959" id="Stroke-138" stroke="#A1C2D8" stroke-width="0.919733941" stroke-linecap="round" stroke-linejoin="round" mask="url(#mask-2)"></path>
                <path d="M110.322581,22.134715 L119.516129,22.134715" id="Stroke-139" stroke="#A1C2D8" stroke-width="0.919733941" stroke-linecap="round" stroke-linejoin="round" mask="url(#mask-2)"></path>
                <path d="M102.048387,22.134715 L114.919355,22.134715" id="Stroke-140" stroke="#A1C2D8" stroke-width="0.919733941" stroke-linecap="round" stroke-linejoin="round" mask="url(#mask-2)"></path>
                <path d="M81.8225806,22.134715 L97.4516129,22.134715" id="Stroke-141" stroke="#A1C2D8" stroke-width="0.919733941" stroke-linecap="round" stroke-linejoin="round" mask="url(#mask-2)"></path>
                <path d="M90.0967742,25.8238342 L112.16129,25.8238342" id="Stroke-142" stroke="#A1C2D8" stroke-width="0.919733941" stroke-linecap="round" stroke-linejoin="round" mask="url(#mask-2)"></path>
                <path d="M81.8225806,25.8238342 L86.4193548,25.8238342" id="Stroke-143" stroke="#A1C2D8" stroke-width="0.919733941" stroke-linecap="round" stroke-linejoin="round" mask="url(#mask-2)"></path>
                <path d="M123.849359,13.8341969 C123.910723,14.2665452 123.961643,14.7002239 123.98645,15.1418844 C124.609235,26.108899 113.420001,35.6884081 98.9967275,36.5371412 C92.4568362,36.9229289 86.3804428,35.4423021 81.6266508,32.6925666 L69.2257948,36.949535 L68.9516129,37.6678984 L81.7493799,34.7971054 C86.3386627,37.8222135 92.3223565,39.6580311 98.8726928,39.6580311 C113.320774,39.6580311 125.032258,30.7516551 125.032258,19.7660162 C125.032258,17.7000563 124.618374,15.707263 123.849359,13.8341969" id="Fill-144" fill="#D0E4F1" mask="url(#mask-2)"></path>
                <path d="M99.7916686,0.922279793 C85.3439081,0.922279793 73.6317243,9.5930722 73.6317243,20.2901554 C73.6317243,22.1235287 73.9822697,23.8939084 74.6251566,25.573735 L69.8709677,37.7222934 L82.6691808,34.9256446 C87.2580181,37.871903 93.2411,39.6580311 99.7916686,39.6580311 C114.239429,39.6580311 125.951613,30.9872387 125.951613,20.2901554 C125.951613,9.5930722 114.239429,0.922279793 99.7916686,0.922279793 Z" id="Stroke-145" stroke="#3F555A" stroke-width="0.919733941" stroke-linecap="round" stroke-linejoin="round" mask="url(#mask-2)"></path>
            </g>
        </g>
    </g>
</svg>