<?xml version="1.0" encoding="utf-8"?>
<!-- Generator: Adobe Illustrator 20.1.0, SVG Export Plug-In . SVG Version: 6.00 Build 0)  -->
<svg version="1.1" id="Layer_1" xmlns="http://www.w3.org/2000/svg" xmlns:xlink="http://www.w3.org/1999/xlink" x="0px" y="0px"
	 viewBox="0 0 739.2 436.4" style="enable-background:new 0 0 739.2 436.4;" xml:space="preserve">
<style type="text/css">
	.st0{opacity:0.5;fill:#A9D7F3;enable-background:new    ;}
	.st1{fill:#E7F1F8;}
	.st2{fill:#A1C2D8;}
	.st3{fill:#FFFFFF;}
	.st4{fill:#D43D52;}
	.st5{fill:#FAFAFA;}
	.st6{fill:#EBB359;}
	.st7{fill:#ECB359;}
	.st8{fill:#78CD5E;}
	.st9{fill:#279AFE;}
	.st10{fill:#843FC2;}
</style>
<title>features-page-administrator-experience-2</title>
<path class="st0" d="M369.1,1.9c-51.3,0-294.7-10.8-247,29.4s141.4,39,130.9,72.4s-281-6.6-250.6,63s132.5,72.9,119.7,104.8
	S2.9,417.4,165.6,411.4s521.2,59.1,521,0S560,381.2,570.4,357.6s170.4,8.8,168.8-59.5s-91.9-77.6-174.5-100.6S782.9,135.1,707,59.3
	S420.5,1.9,369.1,1.9z"/>
<rect x="230.7" y="26.5" transform="matrix(0.9842 -0.1769 0.1769 0.9842 -32.0267 70.9733)" class="st1" width="302.7" height="377.1"/>
<path class="st2" d="M266.4,428.5c-0.5,0-0.9-0.3-1-0.8L198.7,56.5c-0.1-0.5,0.3-1.1,0.8-1.2c0,0,0,0,0,0L497.4,1.8
	c0.5-0.1,1.1,0.3,1.2,0.8c0,0,0,0,0,0l66.7,371.2c0.1,0.5-0.3,1.1-0.8,1.2c0,0,0,0,0,0l-297.9,53.5L266.4,428.5z M200.8,57.1
	l66.3,369.3l296-53.2L496.8,3.9L200.8,57.1z"/>
<rect x="229.8" y="26.5" class="st3" width="302.7" height="377.1"/>
<path class="st4" d="M265.8,121h59c1.7,0,3,1.4,3,3v23c0,1.7-1.4,3-3,3h-59c-1.7,0-3-1.4-3-3v-23C262.8,122.3,264.2,121,265.8,121z"
	/>
<path class="st4" d="M273.1,90.4h44.5c5.7,0,10.3,4.6,10.3,10.3v0c0,5.7-4.6,10.3-10.3,10.3h-44.5c-5.7,0-10.3-4.6-10.3-10.3v0
	C262.8,95,267.4,90.4,273.1,90.4z"/>
<path class="st4" d="M265.8,160.4h59c1.7,0,3,1.4,3,3v23c0,1.7-1.4,3-3,3h-59c-1.7,0-3-1.4-3-3v-23
	C262.8,161.8,264.2,160.4,265.8,160.4z"/>
<path class="st5" d="M276.1,99.1c0-0.3-0.2-0.6-0.7-0.6s-0.7,0.3-0.7,0.6c0,1,2.9,0,2.9,2.3c0,1.1-0.9,1.9-2.2,1.9
	c-1,0.1-2-0.6-2.1-1.6c0-0.1,0-0.1,0-0.2h1.4c0,0.4,0.2,0.6,0.8,0.6s0.8-0.2,0.8-0.6c0-1-2.8,0-2.8-2.3c0.1-1.1,1.2-2,2.3-1.8
	c1,0.1,1.7,0.9,1.8,1.8L276.1,99.1z"/>
<path class="st5" d="M281.9,101.4c0,1-0.8,1.8-1.8,1.8s-1.8-0.8-1.8-1.8v-4h1.3v1.4h2.1v1.2h-2.1v1.4c0,0.5,0.2,0.6,0.5,0.6
	s0.5-0.1,0.5-0.6v-0.1L281.9,101.4L281.9,101.4z"/>
<path class="st5" d="M285.1,100.7L285.1,100.7c0-0.6-0.3-0.8-0.6-0.8s-0.6,0.2-0.6,0.8v2.5h-1.3v-2.5c-0.2-1.1,0.4-2.1,1.5-2.4
	c1.1-0.2,2.1,0.4,2.4,1.5c0.1,0.3,0.1,0.6,0,0.9H285.1z"/>
<path class="st5" d="M289.9,98.8h1.3v2.2c0.1,1.2-0.8,2.2-2,2.3c-1.2,0.1-2.2-0.8-2.3-2c0-0.1,0-0.2,0-0.3v-2.2h1.3v2.2
	c0,0.7,0.3,1,0.8,1s0.8-0.3,0.8-1L289.9,98.8z"/>
<path class="st5" d="M295.2,102.6L295.2,102.6c-0.3,0.4-0.8,0.6-1.2,0.6c-1.1,0.1-2-0.8-2.1-1.9c0-0.1,0-0.2,0-0.3
	c0-1.2,0.9-2.3,2.2-2.3c0.1,0,0.1,0,0.2,0c1.2-0.1,2.2,0.8,2.3,2.1c0,0.1,0,0.2,0,0.3v1.8c0.1,1.2-0.7,2.2-1.9,2.3
	c-0.1,0-0.3,0-0.4,0c-1,0.1-2-0.5-2.2-1.6h1.3c0.2,0.3,0.5,0.5,0.9,0.4c0.6,0,1-0.3,1-1.1L295.2,102.6z M294.2,99.9
	c-0.6,0-1,0.4-1,1c0,0,0,0,0,0.1c0,0.6,0.4,1,1,1s1-0.4,1-1C295.3,100.4,294.9,99.9,294.2,99.9C294.3,99.9,294.3,99.9,294.2,99.9z"
	/>
<path class="st5" d="M300.6,102.6L300.6,102.6c-0.3,0.4-0.8,0.6-1.2,0.6c-1.1,0.1-2-0.8-2.1-1.9c0-0.1,0-0.2,0-0.3
	c0-1.2,0.9-2.3,2.2-2.3c0.1,0,0.1,0,0.2,0c1.2-0.1,2.2,0.8,2.3,2.1c0,0.1,0,0.2,0,0.3v1.8c0.1,1.2-0.7,2.2-1.9,2.3
	c-0.1,0-0.3,0-0.4,0c-1,0.1-2-0.5-2.2-1.6h1.3c0.2,0.3,0.5,0.5,0.9,0.4c0.6,0,1-0.3,1-1.1L300.6,102.6z M299.6,99.9
	c-0.6,0-1,0.4-1,1c0,0,0,0,0,0.1c0,0.6,0.4,1,1,1s1-0.4,1-1C300.6,100.4,300.2,99.9,299.6,99.9C299.6,99.9,299.6,99.9,299.6,99.9z"
	/>
<path class="st5" d="M302.9,103.1v-6.2h1.3v6.2H302.9z"/>
<path class="st5" d="M305.2,97.6c0-0.5,0.4-0.8,0.8-0.8s0.8,0.4,0.8,0.8c0,0.5-0.4,0.8-0.8,0.8l0,0C305.6,98.4,305.2,98,305.2,97.6
	C305.2,97.6,305.2,97.6,305.2,97.6z M305.4,103.1v-4.3h1.3v4.3L305.4,103.1z"/>
<path class="st5" d="M310.7,103.1v-2.2c0-0.7-0.3-1-0.8-1s-0.8,0.3-0.8,1v2.2h-1.3v-2.2c-0.1-1.2,0.8-2.2,2-2.3
	c1.2-0.1,2.2,0.8,2.3,2c0,0.1,0,0.2,0,0.3v2.2H310.7z"/>
<path class="st5" d="M316,102.6L316,102.6c-0.3,0.4-0.8,0.6-1.2,0.6c-1.1,0.1-2-0.8-2.1-1.9c0-0.1,0-0.2,0-0.3
	c0-1.2,0.9-2.3,2.2-2.3c0.1,0,0.1,0,0.2,0c1.2-0.1,2.2,0.8,2.3,2.1c0,0.1,0,0.2,0,0.3v1.8c0.1,1.2-0.7,2.2-1.9,2.3
	c-0.1,0-0.3,0-0.4,0c-1,0.1-2-0.5-2.2-1.6h1.3c0.2,0.3,0.5,0.5,0.9,0.4c0.6,0,1-0.3,1-1.1L316,102.6z M315,99.9c-0.6,0-1,0.4-1,1
	c0,0,0,0,0,0.1c0,0.6,0.4,1,1,1s1-0.4,1-1C316,100.4,315.6,99.9,315,99.9C315,99.9,315,99.9,315,99.9z"/>
<path class="st5" d="M296.1,139.2v-1.7l2.8-2.8c0.5-0.4,0.8-0.9,0.9-1.5c0-0.6-0.2-1-0.8-1s-0.8,0.4-0.8,1.1v0.1h-2v-0.1
	c0-1.6,1.2-2.8,2.8-2.9s2.8,1.2,2.9,2.8c0,1-0.5,2-1.4,2.6l-1.6,1.6l0,0h2.9v1.8L296.1,139.2z"/>
<path class="st5" d="M305.2,132.2l-0.2,1.6l0,0c0.3-0.4,0.8-0.6,1.3-0.5c1.5,0,2.7,1.3,2.7,2.8c0,0,0,0.1,0,0.1v0.2
	c0,1.7-1.5,3.1-3.2,3.1c-1.6,0-2.9-1.2-3.1-2.8h2.1c0.1,0.5,0.5,0.9,1.1,0.9c0.6,0,1.1-0.4,1.1-1c0,0,0-0.1,0-0.1v-0.1
	c0.1-0.6-0.4-1.1-1-1.2c0,0-0.1,0-0.1,0c-0.4,0-0.8,0.2-1,0.6l-1.8-0.6l0.6-4.6h4.6v1.8L305.2,132.2z"/>
<path class="st5" d="M309.6,132.4c0-1.2,1-2.1,2.1-2.1c1.2,0,2.1,1,2.1,2.1c0,1.2-1,2.1-2.1,2.1
	C310.6,134.5,309.6,133.6,309.6,132.4C309.6,132.4,309.6,132.4,309.6,132.4z M310.5,139.2l5.3-8.7h1.4l-5.3,8.7H310.5z M312.5,132.4
	c0-0.5-0.4-0.8-0.8-0.8c-0.5,0-0.8,0.4-0.8,0.8c0,0.4,0.4,0.8,0.8,0.8C312.2,133.2,312.5,132.9,312.5,132.4
	C312.6,132.4,312.6,132.4,312.5,132.4L312.5,132.4z M313.9,137.2c0-1.2,1-2.1,2.1-2.1c1.2,0,2.1,1,2.1,2.1c0,1.2-1,2.1-2.1,2.1
	C314.8,139.4,313.9,138.4,313.9,137.2L313.9,137.2z M316.8,137.2c0-0.5-0.4-0.8-0.8-0.8c-0.5,0-0.8,0.4-0.8,0.8
	c0,0.4,0.4,0.8,0.8,0.8C316.5,138.1,316.8,137.7,316.8,137.2C316.9,137.3,316.9,137.2,316.8,137.2L316.8,137.2z"/>
<path class="st5" d="M297.6,174.9v-1.7h1c0.8,0,1-0.3,1-0.8c0-0.4-0.3-0.7-0.7-0.8c0,0-0.1,0-0.1,0c-0.4,0-0.8,0.3-0.8,0.7
	c0,0,0,0.1,0,0.1h-2c0.1-1.5,1.4-2.7,2.9-2.6c1.3,0.1,2.4,1.1,2.6,2.4c0.1,0.8-0.3,1.5-1,1.8l0,0c0.8,0.3,1.4,1.2,1.3,2.1
	c0,1.7-1.3,2.7-3,2.7c-1.5,0.2-2.8-0.9-3-2.4c0-0.1,0-0.3,0-0.4h2c0,0.5,0.4,0.9,0.9,1c0.1,0,0.1,0,0.2,0c0.5,0.1,1-0.3,1.1-0.8
	c0-0.1,0-0.1,0-0.2c0-0.7-0.4-1.1-1.3-1.1L297.6,174.9z"/>
<path class="st5" d="M303,178.6v-1.7l2.8-2.8c0.5-0.4,0.8-0.9,0.9-1.5c0-0.6-0.2-1-0.8-1s-0.8,0.4-0.8,1.1v0.1h-2v-0.1
	c0-1.6,1.2-2.8,2.8-2.9s2.8,1.2,2.9,2.8c0,1-0.5,2-1.4,2.6l-1.6,1.6l0,0h2.9v1.8L303,178.6z"/>
<path class="st5" d="M309.6,171.8c0-1.2,1-2.1,2.1-2.1c1.2,0,2.1,1,2.1,2.1c0,1.2-1,2.1-2.1,2.1C310.6,174,309.6,173,309.6,171.8
	C309.6,171.8,309.6,171.8,309.6,171.8z M310.5,178.6l5.3-8.7h1.4l-5.3,8.7H310.5z M312.5,171.8c0-0.5-0.4-0.8-0.8-0.8
	c-0.5,0-0.8,0.4-0.8,0.8c0,0.4,0.4,0.8,0.8,0.8C312.2,172.7,312.5,172.3,312.5,171.8C312.6,171.9,312.6,171.8,312.5,171.8
	L312.5,171.8z M313.9,176.7c0-1.2,1-2.1,2.1-2.1c1.2,0,2.1,1,2.1,2.1c0,1.2-1,2.1-2.1,2.1C314.9,178.8,313.9,177.8,313.9,176.7
	L313.9,176.7z M316.8,176.7c0-0.5-0.4-0.8-0.8-0.8c-0.5,0-0.8,0.4-0.8,0.8c0,0.4,0.4,0.8,0.8,0.8
	C316.5,177.5,316.8,177.2,316.8,176.7C316.9,176.7,316.9,176.7,316.8,176.7L316.8,176.7z"/>
<path class="st3" d="M278.3,137.3c-1.7,0-1.9-0.6-2.9-0.6s-2,0.2-2.3,2.4s5.4,2.4,5.4,2.4s5.7-0.1,5.4-2.4s-1.3-2.4-2.3-2.4
	s-1.2,0.5-2.9,0.6H278.3z"/>
<circle class="st3" cx="278.5" cy="132.7" r="3.2"/>
<path class="st3" d="M278.3,176.8c-1.7,0-1.9-0.6-2.9-0.6s-2,0.2-2.3,2.4s5.4,2.4,5.4,2.4s5.7-0.1,5.4-2.4s-1.3-2.4-2.3-2.4
	s-1.2,0.5-2.9,0.6H278.3z"/>
<circle class="st3" cx="278.5" cy="172.2" r="3.2"/>
<path class="st6" d="M265.8,236.3h59c1.7,0,3,1.4,3,3v23c0,1.7-1.4,3-3,3h-59c-1.7,0-3-1.4-3-3v-23
	C262.8,237.7,264.2,236.3,265.8,236.3z"/>
<path class="st7" d="M273.1,205.8h44.5c5.7,0,10.3,4.6,10.3,10.3v0c0,5.7-4.6,10.3-10.3,10.3h-44.5c-5.7,0-10.3-4.6-10.3-10.3v0
	C262.8,210.4,267.4,205.8,273.1,205.8z"/>
<path class="st5" d="M279.9,218.5v-5.7h2.3c1.6,0,2.3,0.9,2.3,2s-0.7,2-2.3,2h-0.8v1.7L279.9,218.5z M282.2,215.5
	c0.6,0,0.8-0.3,0.8-0.7s-0.2-0.7-0.8-0.7h-0.8v1.4L282.2,215.5z"/>
<path class="st5" d="M289.5,218.5h-1.2v-0.7l0,0c-0.2,0.5-0.8,0.8-1.3,0.8c-1.2,0-2.1-1-2.1-2.1c0-0.1,0-0.1,0-0.2
	c0-1.2,0.9-2.3,2.2-2.3c0.1,0,0.1,0,0.2,0c1.2-0.1,2.2,0.8,2.3,2.1c0,0.1,0,0.2,0,0.3L289.5,218.5z M288.2,216.3c0-0.6-0.5-1-1-0.9
	c-0.6,0-1,0.5-0.9,1c0,0.5,0.5,0.9,1,0.9C287.8,217.4,288.2,216.9,288.2,216.3C288.2,216.4,288.2,216.4,288.2,216.3z"/>
<path class="st5" d="M292.6,215.4c0-0.2-0.2-0.3-0.5-0.3s-0.5,0.2-0.5,0.4c0,0.6,2.3-0.1,2.3,1.6c0,0.8-0.7,1.5-1.9,1.5
	s-1.8-0.6-1.9-1.4h1.3c0,0.2,0.2,0.3,0.5,0.3s0.5-0.1,0.5-0.4c0-0.6-2.3,0.1-2.3-1.6c0-0.8,0.7-1.5,1.8-1.5c0.9-0.1,1.7,0.5,1.8,1.3
	c0,0,0,0,0,0.1H292.6z"/>
<path class="st5" d="M296.8,215.4c0-0.2-0.2-0.3-0.5-0.3s-0.5,0.2-0.5,0.4c0,0.6,2.3-0.1,2.3,1.6c0,0.8-0.7,1.5-1.9,1.5
	s-1.8-0.6-1.9-1.4h1.3c0,0.2,0.2,0.3,0.5,0.3s0.5-0.1,0.5-0.4c0-0.6-2.3,0.1-2.3-1.6c0-0.8,0.7-1.5,1.8-1.5c0.9-0.1,1.7,0.5,1.8,1.3
	c0,0,0,0,0,0.1H296.8z"/>
<path class="st5" d="M298.8,212.9c0-0.5,0.4-0.8,0.8-0.8c0.5,0,0.8,0.4,0.8,0.8c0,0.5-0.4,0.8-0.8,0.8l0,0
	C299.2,213.7,298.8,213.4,298.8,212.9C298.8,212.9,298.8,212.9,298.8,212.9z M299,218.5v-4.3h1.3v4.3H299z"/>
<path class="st5" d="M304.3,218.5v-2.2c0-0.7-0.3-1-0.8-1s-0.8,0.3-0.8,1v2.2h-1.3v-2.2c-0.1-1.2,0.8-2.2,2-2.3
	c1.2-0.1,2.2,0.8,2.3,2c0,0.1,0,0.2,0,0.3v2.2H304.3z"/>
<path class="st5" d="M309.6,218L309.6,218c-0.3,0.4-0.8,0.6-1.2,0.6c-1.1,0.1-2-0.8-2.1-1.9c0-0.1,0-0.2,0-0.3
	c0-1.2,0.9-2.3,2.2-2.3c0.1,0,0.1,0,0.2,0c1.2-0.1,2.2,0.8,2.3,2.1c0,0.1,0,0.2,0,0.3v1.8c0.1,1.2-0.7,2.2-1.9,2.3
	c-0.1,0-0.3,0-0.4,0c-1,0.1-2-0.5-2.2-1.6h1.3c0.2,0.3,0.5,0.5,0.9,0.4c0.6,0,1-0.3,1-1.1L309.6,218z M308.6,215.3c-0.6,0-1,0.4-1,1
	c0,0,0,0,0,0.1c0,0.6,0.4,1,1,1s1-0.4,1-1C309.6,215.8,309.2,215.3,308.6,215.3C308.6,215.3,308.6,215.3,308.6,215.3z"/>
<path class="st5" d="M302,251.6c0,1.7-1.4,3.1-3.1,3.1s-3.1-1.4-3.1-3.1v-0.1c0-0.9,0.3-1.8,0.8-2.5l1.9-3.2h2.2l-1.8,2.9l0,0
	c0.2-0.1,0.4-0.1,0.6-0.1c1.5,0.1,2.6,1.4,2.5,2.8L302,251.6z M300,251.5c0.1-0.6-0.4-1.1-1-1.2c-0.6-0.1-1.1,0.4-1.2,1
	c0,0.1,0,0.1,0,0.2v0.1c-0.1,0.6,0.4,1.1,1,1.2c0.6,0.1,1.1-0.4,1.2-1c0-0.1,0-0.1,0-0.2V251.5z"/>
<path class="st5" d="M305.4,254.5h-2.2l3.3-6.9l0,0H303v-1.8h5.7v1.7L305.4,254.5z"/>
<path class="st5" d="M309.6,247.8c0-1.2,1-2.1,2.1-2.1s2.1,1,2.1,2.1c0,1.2-1,2.1-2.1,2.1C310.6,249.9,309.6,248.9,309.6,247.8
	C309.6,247.8,309.6,247.8,309.6,247.8z M310.5,254.5l5.3-8.7h1.4l-5.3,8.7H310.5z M312.5,247.8c0-0.5-0.4-0.8-0.8-0.8
	c-0.5,0-0.8,0.4-0.8,0.8c0,0.4,0.4,0.8,0.8,0.8C312.2,248.6,312.5,248.2,312.5,247.8C312.6,247.8,312.6,247.8,312.5,247.8
	L312.5,247.8z M313.9,252.6c0-1.2,1-2.1,2.1-2.1s2.1,1,2.1,2.1c0,1.2-1,2.1-2.1,2.1C314.9,254.7,313.9,253.7,313.9,252.6
	L313.9,252.6z M316.8,252.6c0-0.5-0.4-0.8-0.8-0.8c-0.5,0-0.8,0.4-0.8,0.8c0,0.4,0.4,0.8,0.8,0.8
	C316.5,253.4,316.8,253.1,316.8,252.6C316.9,252.6,316.9,252.6,316.8,252.6L316.8,252.6z"/>
<path class="st3" d="M279,252.7c-1.7,0-1.9-0.6-2.9-0.6s-2,0.2-2.3,2.4s5.4,2.4,5.4,2.4s5.7-0.1,5.4-2.4s-1.3-2.4-2.3-2.4
	s-1.2,0.5-2.9,0.6H279z"/>
<circle class="st3" cx="279.2" cy="248.1" r="3.2"/>
<path class="st8" d="M352.3,121h59c1.7,0,3,1.4,3,3v23c0,1.7-1.4,3-3,3h-59c-1.7,0-3-1.4-3-3v-23C349.3,122.3,350.6,121,352.3,121z"
	/>
<path class="st8" d="M359.6,90.4h44.5c5.7,0,10.3,4.6,10.3,10.3v0c0,5.7-4.6,10.3-10.3,10.3h-44.5c-5.7,0-10.3-4.6-10.3-10.3v0
	C349.3,95,353.9,90.4,359.6,90.4z"/>
<path class="st8" d="M352.3,160.4h59c1.7,0,3,1.4,3,3v23c0,1.7-1.4,3-3,3h-59c-1.7,0-3-1.4-3-3v-23
	C349.3,161.8,350.6,160.4,352.3,160.4z"/>
<path class="st5" d="M360.5,103.1v-5.8h2.3c1.6,0,2.3,0.9,2.3,2c0,1.2-0.7,2-2.3,2h-0.8v1.7L360.5,103.1z M362.7,100.1
	c0.6,0,0.8-0.3,0.8-0.7c0-0.4-0.2-0.7-0.8-0.7h-0.9v1.4L362.7,100.1z"/>
<path class="st5" d="M368.2,100.7L368.2,100.7c0-0.6-0.3-0.8-0.6-0.8s-0.6,0.2-0.6,0.8v2.5h-1.3v-2.5c-0.2-1.1,0.4-2.1,1.5-2.4
	c1.1-0.2,2.1,0.4,2.4,1.5c0.1,0.3,0.1,0.6,0,0.9H368.2z"/>
<path class="st5" d="M372.2,103.2c-1.3,0-2.3-1.1-2.2-2.3c0-1.3,1.1-2.3,2.3-2.2c1.2,0,2.2,1,2.2,2.3c0,1.2-0.9,2.3-2.2,2.3
	C372.3,103.2,372.2,103.2,372.2,103.2z M373.2,100.9c0-0.6-0.5-1-1-0.9c-0.6,0-1,0.5-0.9,1c0,0.5,0.5,0.9,1,0.9
	C372.7,102,373.2,101.6,373.2,100.9C373.2,101,373.2,101,373.2,100.9L373.2,100.9z"/>
<path class="st5" d="M375.4,103.1v-4.4c-0.2-1.1,0.4-2.1,1.5-2.4c1.1-0.2,2.1,0.4,2.4,1.5c0.1,0.3,0.1,0.6,0,0.9H378
	c0-0.6-0.3-0.7-0.6-0.7s-0.6,0.2-0.6,0.7v0.7h2v1.2h-2v2.6L375.4,103.1z M379.6,97.6c0-0.5,0.4-0.8,0.8-0.8s0.8,0.4,0.8,0.8
	c0,0.5-0.4,0.8-0.8,0.8l0,0C380,98.4,379.6,98.1,379.6,97.6C379.6,97.6,379.6,97.6,379.6,97.6L379.6,97.6z M379.8,103.1v-4.3h1.3
	v4.3L379.8,103.1z"/>
<path class="st5" d="M385.2,100.5c-0.2-0.4-0.5-0.6-0.9-0.6c-0.6,0.1-1,0.6-1,1.2c0,0.5,0.4,0.9,1,1c0.4,0,0.8-0.2,0.9-0.6h1.3
	c-0.2,1.1-1.2,1.9-2.3,1.8c-1.3,0.1-2.4-0.9-2.4-2.1c-0.1-1.3,0.9-2.4,2.1-2.4c0.1,0,0.2,0,0.3,0c1.1-0.1,2.1,0.7,2.3,1.8H385.2z"/>
<path class="st5" d="M387.1,97.6c0-0.5,0.4-0.8,0.8-0.8s0.8,0.4,0.8,0.8c0,0.5-0.4,0.8-0.8,0.8l0,0C387.5,98.4,387.1,98,387.1,97.6
	C387.1,97.6,387.1,97.6,387.1,97.6z M387.3,103.1v-4.3h1.3v4.3L387.3,103.1z"/>
<path class="st5" d="M390.8,101.3L390.8,101.3c0.1,0.5,0.5,0.8,1,0.7c0.3,0,0.6-0.1,0.8-0.3h1.4c-0.3,0.9-1.2,1.5-2.2,1.5
	c-1.3,0-2.3-1-2.3-2.3c0-1.3,1-2.3,2.3-2.3c1.3,0,2.3,1,2.3,2.3v0.4H390.8z M390.8,100.5L390.8,100.5h1.9l0,0
	c-0.1-0.4-0.6-0.7-1-0.6C391.3,99.9,391,100.1,390.8,100.5L390.8,100.5z"/>
<path class="st5" d="M397.8,103.1v-2.2c0-0.7-0.3-1-0.8-1s-0.8,0.3-0.8,1v2.2h-1.3v-2.2c-0.1-1.2,0.8-2.2,2-2.3
	c1.2-0.1,2.2,0.8,2.3,2c0,0.1,0,0.2,0,0.3v2.2H397.8z"/>
<path class="st5" d="M403.6,101.4c0,1-0.8,1.8-1.8,1.8s-1.8-0.8-1.8-1.8v-4h1.3v1.4h2.1v1.2h-2.1v1.4c0,0.5,0.2,0.6,0.5,0.6
	s0.5-0.1,0.5-0.6v-0.1L403.6,101.4L403.6,101.4z"/>
<path class="st5" d="M384.9,139.2h-2.2l3.3-6.9l0,0h-3.6v-1.8h5.7v1.7L384.9,139.2z"/>
<path class="st5" d="M391.9,139.2h-2.2l3.3-6.9l0,0h-3.6v-1.8h5.7v1.7L391.9,139.2z"/>
<path class="st5" d="M396.1,132.4c0-1.2,1-2.1,2.1-2.1c1.2,0,2.1,1,2.1,2.1c0,1.2-1,2.1-2.1,2.1
	C397.1,134.5,396.1,133.6,396.1,132.4C396.1,132.4,396.1,132.4,396.1,132.4z M397,139.2l5.3-8.7h1.4l-5.3,8.7H397z M399,132.4
	c0-0.5-0.4-0.8-0.8-0.8c-0.5,0-0.8,0.4-0.8,0.8c0,0.4,0.4,0.8,0.8,0.8C398.6,133.2,399,132.9,399,132.4
	C399,132.4,399,132.4,399,132.4L399,132.4z M400.4,137.2c0-1.2,1-2.1,2.1-2.1c1.2,0,2.1,1,2.1,2.1c0,1.2-1,2.1-2.1,2.1
	C401.3,139.4,400.4,138.4,400.4,137.2C400.4,137.2,400.4,137.2,400.4,137.2L400.4,137.2z M403.3,137.2c0-0.5-0.4-0.8-0.8-0.8
	c-0.5,0-0.8,0.4-0.8,0.8c0,0.4,0.4,0.8,0.8,0.8C402.9,138.1,403.3,137.8,403.3,137.2C403.4,137.3,403.4,137.3,403.3,137.2
	L403.3,137.2z"/>
<path class="st5" d="M384.9,178.6h-2.2l3.3-6.9l0,0h-3.6v-1.8h5.7v1.7L384.9,178.6z"/>
<path class="st5" d="M392.3,178.8c-1.9,0-3.1-1.1-3.1-2.7c-0.1-0.9,0.5-1.8,1.4-2.1l0,0c-0.7-0.3-1.1-1.1-1.1-1.8
	c0-1.5,1.1-2.4,2.9-2.4s2.9,1,2.9,2.4c0,0.8-0.4,1.5-1.1,1.8l0,0c0.9,0.3,1.4,1.2,1.4,2.1C395.5,177.7,394.2,178.8,392.3,178.8z
	 M392.3,174.9c-0.7,0-1.1,0.4-1.1,1.1s0.4,1.1,1.1,1.1s1.1-0.4,1.1-1.1S393.1,174.8,392.3,174.9L392.3,174.9z M392.3,171.5
	c-0.5,0-0.8,0.4-0.8,0.9c0,0.5,0.4,0.8,0.9,0.8c0.4,0,0.8-0.4,0.8-0.8c0-0.4-0.3-0.8-0.7-0.8C392.4,171.5,392.4,171.5,392.3,171.5z"
	/>
<path class="st5" d="M396.1,171.8c0-1.2,1-2.1,2.1-2.1c1.2,0,2.1,1,2.1,2.1c0,1.2-1,2.1-2.1,2.1C397.1,174,396.1,173,396.1,171.8
	C396.1,171.8,396.1,171.8,396.1,171.8z M397,178.6l5.3-8.7h1.4l-5.3,8.7H397z M399,171.8c0-0.5-0.4-0.8-0.8-0.8
	c-0.5,0-0.8,0.4-0.8,0.8c0,0.4,0.4,0.8,0.8,0.8C398.6,172.7,399,172.3,399,171.8C399,171.9,399,171.8,399,171.8L399,171.8z
	 M400.4,176.7c0-1.2,1-2.1,2.1-2.1c1.2,0,2.1,1,2.1,2.1c0,1.2-1,2.1-2.1,2.1C401.3,178.8,400.4,177.8,400.4,176.7
	C400.4,176.7,400.4,176.7,400.4,176.7L400.4,176.7z M403.3,176.7c0-0.5-0.4-0.8-0.8-0.8c-0.5,0-0.8,0.4-0.8,0.8
	c0,0.4,0.4,0.8,0.8,0.8C402.9,177.5,403.3,177.2,403.3,176.7C403.4,176.7,403.4,176.7,403.3,176.7L403.3,176.7z"/>
<path class="st8" d="M352.3,199.9h59c1.7,0,3,1.4,3,3v23c0,1.7-1.4,3-3,3h-59c-1.7,0-3-1.4-3-3v-23
	C349.3,201.2,350.6,199.9,352.3,199.9z"/>
<path class="st5" d="M385.4,218.2c-1.9,0-3.1-1.1-3.1-2.7c0-0.9,0.5-1.8,1.4-2.1l0,0c-0.7-0.3-1.1-1.1-1.1-1.8
	c0-1.5,1.1-2.4,2.9-2.4s2.9,1,2.9,2.4c0,0.8-0.4,1.5-1.1,1.8l0,0c0.9,0.3,1.4,1.2,1.4,2.1C388.5,217.2,387.2,218.2,385.4,218.2z
	 M385.4,214.3c-0.7,0-1.1,0.4-1.1,1.1s0.4,1.1,1.1,1.1s1.1-0.4,1.1-1.1S386.1,214.3,385.4,214.3L385.4,214.3z M385.4,211
	c-0.5,0-0.8,0.4-0.8,0.9c0,0.5,0.4,0.8,0.9,0.8c0.4,0,0.8-0.4,0.8-0.8c0-0.4-0.3-0.8-0.7-0.8C385.5,211,385.4,211,385.4,211z"/>
<path class="st5" d="M395.5,215.1c0.1,1.7-1.2,3.2-2.9,3.3s-3.2-1.2-3.3-2.9c0-0.1,0-0.2,0-0.4v-2.8c-0.1-1.7,1.2-3.2,2.9-3.3
	s3.2,1.2,3.3,2.9c0,0.1,0,0.2,0,0.4V215.1z M393.5,212.3c0-0.8-0.4-1.3-1.1-1.3s-1.1,0.5-1.1,1.3v2.8c0,0.8,0.4,1.3,1.1,1.3
	s1.1-0.5,1.1-1.3V212.3z"/>
<path class="st5" d="M396.1,211.3c0-1.2,1-2.1,2.1-2.1c1.2,0,2.1,1,2.1,2.1c0,1.2-1,2.1-2.1,2.1
	C397.1,213.4,396.1,212.5,396.1,211.3C396.1,211.3,396.1,211.3,396.1,211.3z M397,218.1l5.3-8.7h1.4l-5.3,8.7L397,218.1z M399,211.3
	c0-0.5-0.4-0.8-0.8-0.8c-0.5,0-0.8,0.4-0.8,0.8c0,0.4,0.4,0.8,0.8,0.8C398.6,212.1,399,211.8,399,211.3
	C399,211.3,399,211.3,399,211.3L399,211.3z M400.4,216.1c0-1.2,1-2.1,2.1-2.1c1.2,0,2.1,1,2.1,2.1c0,1.2-1,2.1-2.1,2.1
	C401.3,218.2,400.4,217.3,400.4,216.1C400.4,216.1,400.4,216.1,400.4,216.1L400.4,216.1z M403.3,216.1c0-0.5-0.4-0.8-0.8-0.8
	c-0.5,0-0.8,0.4-0.8,0.8c0,0.4,0.4,0.8,0.8,0.8C402.9,217,403.3,216.6,403.3,216.1C403.4,216.2,403.4,216.1,403.3,216.1L403.3,216.1
	z"/>
<path class="st3" d="M365.2,137.3c-1.7,0-1.9-0.6-2.9-0.6s-2,0.2-2.3,2.4s5.4,2.4,5.4,2.4s5.7-0.1,5.4-2.4s-1.3-2.4-2.3-2.4
	s-1.2,0.5-2.9,0.6H365.2z"/>
<circle class="st3" cx="365.4" cy="132.7" r="3.2"/>
<path class="st3" d="M365.2,176.8c-1.7,0-1.9-0.6-2.9-0.6s-2,0.2-2.3,2.4s5.4,2.4,5.4,2.4s5.7-0.1,5.4-2.4s-1.3-2.4-2.3-2.4
	s-1.2,0.5-2.9,0.6H365.2z"/>
<circle class="st3" cx="365.4" cy="172.2" r="3.2"/>
<path class="st3" d="M365.2,216.2c-1.7,0-1.9-0.6-2.9-0.6s-2,0.2-2.3,2.4s5.4,2.4,5.4,2.4s5.7-0.1,5.4-2.4s-1.3-2.4-2.3-2.4
	s-1.2,0.5-2.9,0.6H365.2z"/>
<circle class="st3" cx="365.4" cy="211.6" r="3.2"/>
<path class="st9" d="M352.3,273.3h59c1.7,0,3,1.4,3,3v23c0,1.7-1.4,3-3,3h-59c-1.7,0-3-1.4-3-3v-23
	C349.3,274.6,350.6,273.3,352.3,273.3z"/>
<path class="st9" d="M359.6,242.7h44.5c5.7,0,10.3,4.6,10.3,10.3v0c0,5.7-4.6,10.3-10.3,10.3h-44.5c-5.7,0-10.3-4.6-10.3-10.3v0
	C349.3,247.3,353.9,242.7,359.6,242.7z"/>
<path class="st9" d="M352.3,312.7h59c1.7,0,3,1.4,3,3v23c0,1.7-1.4,3-3,3h-59c-1.7,0-3-1.4-3-3v-23
	C349.3,314.1,350.6,312.7,352.3,312.7z"/>
<path class="st5" d="M363.4,255.4v-5.8h4.2v1.3h-2.8v0.9h2.3v1.1h-2.3v1h2.8v1.3L363.4,255.4z"/>
<path class="st5" d="M368.1,255.4l1.5-2.2l-1.4-2.1h1.6l0.8,1.4l0,0l0.8-1.4h1.5l-1.4,2.1l1.5,2.2h-1.5l-0.9-1.5l0,0l-0.9,1.5H368.1
	z"/>
<path class="st5" d="M376.3,252.8c-0.2-0.4-0.5-0.6-0.9-0.6c-0.6,0.1-1,0.6-1,1.2c0,0.5,0.4,0.9,1,1c0.4,0,0.8-0.2,0.9-0.6h1.3
	c-0.2,1.1-1.2,1.9-2.3,1.8c-1.3,0.1-2.4-0.9-2.4-2.1s0.9-2.4,2.1-2.4c0.1,0,0.2,0,0.3,0c1.1-0.1,2.1,0.7,2.3,1.8H376.3z"/>
<path class="st5" d="M379.5,253.6L379.5,253.6c0.1,0.5,0.5,0.8,1,0.7c0.3,0,0.6-0.1,0.8-0.3h1.4c-0.3,0.9-1.2,1.5-2.2,1.5
	c-1.3,0-2.3-1-2.3-2.3c0-1.3,1-2.3,2.3-2.3c1.3,0,2.3,1,2.3,2.3v0.4L379.5,253.6z M379.5,252.8L379.5,252.8h1.9l0,0
	c-0.1-0.4-0.6-0.7-1-0.6C380,252.2,379.6,252.4,379.5,252.8L379.5,252.8z"/>
<path class="st5" d="M383.6,255.4v-6.2h1.3v6.2H383.6z"/>
<path class="st5" d="M386.1,255.4v-6.2h1.3v6.2H386.1z"/>
<path class="st5" d="M388.3,249.9c0-0.5,0.4-0.8,0.8-0.8s0.8,0.4,0.8,0.8c0,0.5-0.4,0.8-0.8,0.8l0,0
	C388.7,250.7,388.3,250.3,388.3,249.9C388.3,249.9,388.3,249.9,388.3,249.9z M388.5,255.4v-4.3h1.3v4.3H388.5z"/>
<path class="st5" d="M393.8,255.4v-2.2c0-0.7-0.3-1-0.8-1s-0.8,0.3-0.8,1v2.2h-1.3v-2.2c-0.1-1.2,0.8-2.2,2-2.3
	c1.2-0.1,2.2,0.8,2.3,2c0,0.1,0,0.2,0,0.3v2.2H393.8z"/>
<path class="st5" d="M399.1,254.9L399.1,254.9c-0.3,0.4-0.8,0.6-1.2,0.6c-1.1,0.1-2-0.8-2.1-1.9c0-0.1,0-0.2,0-0.3
	c0-1.2,0.9-2.3,2.2-2.3c0.1,0,0.1,0,0.2,0c1.2-0.1,2.2,0.8,2.3,2.1c0,0.1,0,0.2,0,0.3v1.8c0.1,1.2-0.7,2.2-1.9,2.3
	c-0.1,0-0.3,0-0.4,0c-1,0.1-2-0.5-2.2-1.5h1.3c0.2,0.3,0.5,0.5,0.9,0.4c0.6,0,1-0.3,1-1.1L399.1,254.9z M398.1,252.2
	c-0.6,0-1,0.4-1,1c0,0,0,0,0,0.1c0,0.6,0.4,1,1,1s1-0.4,1-1C399.2,252.7,398.7,252.2,398.1,252.2
	C398.2,252.2,398.2,252.2,398.1,252.2z"/>
<path class="st5" d="M383.5,291.5l1.8-2.9l0,0c-0.2,0.1-0.4,0.1-0.6,0.1c-1.5-0.1-2.6-1.4-2.5-2.8v-0.2c0-1.7,1.4-3.1,3.1-3.1
	s3.1,1.4,3.1,3.1v0.1c0,0.9-0.3,1.8-0.8,2.5l-1.9,3.2L383.5,291.5z M386.4,285.7c0.1-0.6-0.4-1.1-1-1.2c-0.6-0.1-1.1,0.4-1.2,1
	c0,0.1,0,0.1,0,0.2v0.1c-0.1,0.6,0.4,1.1,1,1.2c0.6,0.1,1.1-0.4,1.2-1c0-0.1,0-0.1,0-0.2V285.7z"/>
<path class="st5" d="M391.9,291.5v-6.9h-1.5v-1.8h3.5v8.7H391.9z"/>
<path class="st5" d="M396.1,284.7c0-1.2,1-2.1,2.1-2.1s2.1,1,2.1,2.1c0,1.2-1,2.1-2.1,2.1C397.1,286.9,396.1,285.9,396.1,284.7
	C396.1,284.7,396.1,284.7,396.1,284.7z M397,291.5l5.3-8.7h1.4l-5.3,8.7H397z M399,284.7c0-0.5-0.4-0.8-0.8-0.8
	c-0.5,0-0.8,0.4-0.8,0.8c0,0.4,0.4,0.8,0.8,0.8C398.6,285.6,399,285.2,399,284.7C399,284.7,399,284.7,399,284.7L399,284.7z
	 M400.4,289.5c0-1.2,1-2.1,2.1-2.1s2.1,1,2.1,2.1c0,1.2-1,2.1-2.1,2.1C401.3,291.7,400.4,290.7,400.4,289.5
	C400.4,289.5,400.4,289.5,400.4,289.5L400.4,289.5z M403.3,289.5c0-0.5-0.4-0.8-0.8-0.8c-0.5,0-0.8,0.4-0.8,0.8
	c0,0.4,0.4,0.8,0.8,0.8C402.9,290.4,403.3,290.1,403.3,289.5C403.4,289.6,403.4,289.6,403.3,289.5L403.3,289.5z"/>
<path class="st5" d="M383.5,330.9l1.8-2.9l0,0c-0.2,0.1-0.4,0.1-0.6,0.1c-1.5-0.1-2.6-1.4-2.5-2.8v-0.2c0-1.7,1.4-3.1,3.1-3.1
	s3.1,1.4,3.1,3.1l0,0v0.1c0,0.9-0.3,1.8-0.8,2.5l-1.9,3.2L383.5,330.9z M386.4,325.1c0.1-0.6-0.4-1.1-1-1.2c-0.6-0.1-1.1,0.4-1.2,1
	c0,0.1,0,0.1,0,0.2v0.1c-0.1,0.6,0.4,1.1,1,1.2c0.6,0.1,1.1-0.4,1.2-1c0-0.1,0-0.1,0-0.2V325.1z"/>
<path class="st5" d="M389.5,330.9v-1.7l2.8-2.8c0.5-0.4,0.8-0.9,0.9-1.5c0-0.6-0.2-1-0.8-1s-0.8,0.4-0.8,1.1v0.1h-2v-0.1
	c0-1.6,1.2-2.8,2.8-2.9s2.8,1.2,2.9,2.8c0,1-0.5,2-1.4,2.6l-1.6,1.6l0,0h2.9v1.8L389.5,330.9z"/>
<path class="st5" d="M396.1,324.1c0-1.2,1-2.1,2.1-2.1s2.1,1,2.1,2.1c0,1.2-1,2.1-2.1,2.1C397.1,326.3,396.1,325.3,396.1,324.1
	C396.1,324.1,396.1,324.1,396.1,324.1z M397,330.9l5.3-8.7h1.4l-5.3,8.7H397z M399,324.1c0-0.5-0.4-0.8-0.8-0.8
	c-0.5,0-0.8,0.4-0.8,0.8c0,0.4,0.4,0.8,0.8,0.8C398.6,325,399,324.6,399,324.1C399,324.2,399,324.2,399,324.1L399,324.1z M400.4,329
	c0-1.2,1-2.1,2.1-2.1s2.1,1,2.1,2.1c0,1.2-1,2.1-2.1,2.1C401.3,331.1,400.4,330.1,400.4,329L400.4,329L400.4,329z M403.3,329
	c0-0.5-0.4-0.8-0.8-0.8c-0.5,0-0.8,0.4-0.8,0.8c0,0.4,0.4,0.8,0.8,0.8C402.9,329.8,403.3,329.5,403.3,329
	C403.4,329,403.4,329,403.3,329L403.3,329z"/>
<path class="st9" d="M352.3,352.2h59c1.7,0,3,1.4,3,3v23c0,1.7-1.4,3-3,3h-59c-1.7,0-3-1.4-3-3v-23
	C349.3,353.5,350.6,352.2,352.3,352.2z"/>
<path class="st5" d="M383.5,370.3l1.8-2.9l0,0c-0.2,0.1-0.4,0.1-0.6,0.1c-1.5-0.1-2.6-1.4-2.5-2.8v-0.2c0-1.7,1.4-3.1,3.1-3.1
	s3.1,1.4,3.1,3.1l0,0v0.1c0,0.9-0.3,1.8-0.8,2.5l-1.9,3.2L383.5,370.3z M386.4,364.5c0.1-0.6-0.4-1.1-1-1.2c-0.6-0.1-1.1,0.4-1.2,1
	c0,0.1,0,0.1,0,0.2v0.1c-0.1,0.6,0.4,1.1,1,1.2c0.6,0.1,1.1-0.4,1.2-1c0-0.1,0-0.1,0-0.2V364.5z"/>
<path class="st5" d="M392.8,370.3v-1.7h-3.6v-1.7l3.6-5.3h2v5.2h0.8v1.8h-0.8v1.7H392.8z M392.8,364.3l-1.6,2.4l0,0h1.6L392.8,364.3
	L392.8,364.3z"/>
<path class="st5" d="M396.1,363.6c0-1.2,1-2.1,2.1-2.1s2.1,1,2.1,2.1c0,1.2-1,2.1-2.1,2.1C397.1,365.7,396.1,364.8,396.1,363.6
	C396.1,363.6,396.1,363.6,396.1,363.6z M397,370.4l5.3-8.7h1.4l-5.3,8.7L397,370.4z M399,363.6c0-0.5-0.4-0.8-0.8-0.8
	c-0.5,0-0.8,0.4-0.8,0.8c0,0.4,0.4,0.8,0.8,0.8C398.6,364.4,399,364.1,399,363.6C399,363.6,399,363.6,399,363.6L399,363.6z
	 M400.4,368.4c0-1.2,1-2.1,2.1-2.1s2.1,1,2.1,2.1c0,1.2-1,2.1-2.1,2.1C401.3,370.5,400.4,369.6,400.4,368.4
	C400.4,368.4,400.4,368.4,400.4,368.4L400.4,368.4z M403.3,368.4c0-0.5-0.4-0.8-0.8-0.8c-0.5,0-0.8,0.4-0.8,0.8
	c0,0.4,0.4,0.8,0.8,0.8C402.9,369.3,403.3,368.9,403.3,368.4C403.4,368.5,403.4,368.4,403.3,368.4L403.3,368.4z"/>
<path class="st3" d="M364.4,368.5c-1.7,0-1.9-0.6-2.9-0.6s-2,0.2-2.3,2.4s5.4,2.4,5.4,2.4s5.7-0.1,5.4-2.4s-1.3-2.4-2.3-2.4
	s-1.2,0.5-2.9,0.6H364.4z"/>
<circle class="st3" cx="364.5" cy="363.9" r="3.2"/>
<path class="st3" d="M364.4,289.6c-1.7,0-1.9-0.6-2.9-0.6s-2,0.2-2.3,2.4s5.4,2.4,5.4,2.4s5.7-0.1,5.4-2.4s-1.3-2.4-2.3-2.4
	s-1.2,0.5-2.9,0.6H364.4z"/>
<circle class="st3" cx="364.5" cy="285" r="3.2"/>
<path class="st3" d="M364.4,329.1c-1.7,0-1.9-0.6-2.9-0.6s-2,0.2-2.3,2.4s5.4,2.4,5.4,2.4s5.7-0.1,5.4-2.4s-1.3-2.4-2.3-2.4
	s-1.2,0.5-2.9,0.6H364.4z"/>
<circle class="st3" cx="364.5" cy="324.5" r="3.2"/>
<path class="st10" d="M444.7,90.4h44.5c5.7,0,10.3,4.6,10.3,10.3v0c0,5.7-4.6,10.3-10.3,10.3h-44.5c-5.7,0-10.3-4.6-10.3-10.3v0
	C434.5,95,439.1,90.4,444.7,90.4z"/>
<path class="st5" d="M450.4,103.1H449v-3.6c-0.1-1.1,0.7-2.1,1.8-2.2c0.1,0,0.2,0,0.2,0c0.6,0,1.2,0.3,1.6,0.8l0,0
	c0.3-0.5,0.9-0.8,1.6-0.8c1.1,0,2,0.9,2,2c0,0.1,0,0.2,0,0.2v3.6h-1.4v-3.6c0-0.7-0.3-0.9-0.8-0.9s-0.8,0.2-0.8,0.9v3.6h-1.4v-3.6
	c0-0.7-0.3-0.9-0.8-0.9s-0.8,0.2-0.8,0.9L450.4,103.1z"/>
<path class="st5" d="M461.5,103.1h-1.2v-0.7l0,0c-0.2,0.5-0.8,0.8-1.3,0.8c-1.2,0-2.1-1-2.1-2.1c0-0.1,0-0.1,0-0.2
	c0-1.2,0.9-2.3,2.1-2.3c0.1,0,0.1,0,0.2,0c1.2-0.1,2.2,0.9,2.3,2.1c0,0.1,0,0.2,0,0.3L461.5,103.1z M460.2,101c0-0.6-0.5-1-1-0.9
	c-0.6,0-1,0.5-0.9,1c0,0.5,0.5,0.9,1,0.9C459.8,102,460.2,101.6,460.2,101C460.2,101,460.2,101,460.2,101L460.2,101z"/>
<path class="st5" d="M464.5,100.1c0-0.2-0.2-0.4-0.5-0.3c-0.3,0-0.5,0.2-0.5,0.4c0,0.6,2.3-0.1,2.3,1.6c0,0.8-0.7,1.5-1.8,1.5
	s-1.8-0.6-1.8-1.4h1.3c0,0.2,0.2,0.3,0.5,0.3s0.5-0.1,0.5-0.4c0-0.6-2.3,0.1-2.3-1.7c0-0.8,0.7-1.5,1.8-1.5c0.9-0.1,1.6,0.5,1.7,1.4
	c0,0,0,0,0,0.1H464.5z"/>
<path class="st5" d="M470.1,101.4c0.1,1-0.7,1.9-1.7,1.9c-1,0.1-1.9-0.7-1.9-1.7c0-0.1,0-0.2,0-0.3v-4h1.3v1.4h2v1.2h-2v1.4
	c0,0.5,0.2,0.6,0.5,0.6s0.5-0.1,0.5-0.6v-0.1L470.1,101.4L470.1,101.4z"/>
<path class="st5" d="M471.9,101.3L471.9,101.3c0.2,0.6,0.8,0.9,1.4,0.7c0.2-0.1,0.3-0.1,0.4-0.3h1.4c-0.3,0.9-1.2,1.5-2.2,1.5
	c-1.3,0-2.3-1-2.3-2.3c0-1.3,1-2.3,2.3-2.3c1.3,0,2.3,1,2.3,2.3c0,0,0,0,0,0v0.4H471.9z M471.9,100.5L471.9,100.5h1.9l0,0
	c-0.1-0.4-0.5-0.7-1-0.6C472.4,99.8,472.1,100.1,471.9,100.5L471.9,100.5z"/>
<path class="st5" d="M478.4,100.7L478.4,100.7c0-0.6-0.3-0.8-0.6-0.8s-0.6,0.2-0.6,0.8v2.5h-1.3v-2.5c-0.1-1.1,0.7-2,1.8-2.1
	c1.1-0.1,2,0.7,2.1,1.8c0,0.1,0,0.2,0,0.3H478.4z"/>
<path class="st5" d="M483.1,101v-2.2h1.3v4.2c0,1.2-1,2.1-2.1,2.1c-1,0-1.8-0.6-2.1-1.6h1.3c0.1,0.3,0.4,0.4,0.8,0.4
	c0.6,0,0.8-0.3,0.8-0.9v-0.4l0,0c-0.2,0.4-0.6,0.6-1,0.6c-0.9,0-1.9-0.6-1.9-2.2v-2.2h1.3v2.2c0,0.7,0.3,1,0.8,1
	S483.1,101.6,483.1,101z"/>
<path class="st10" d="M437.5,121h59c1.7,0,3,1.4,3,3v23c0,1.7-1.4,3-3,3h-59c-1.7,0-3-1.4-3-3v-23C434.5,122.3,435.8,121,437.5,121z
	"/>
<path class="st5" d="M466.6,139.2v-6.9h-1.5v-1.8h3.5v8.7H466.6z"/>
<path class="st5" d="M477.1,136.2c0.1,1.7-1.2,3.2-2.9,3.3s-3.2-1.2-3.3-2.9c0-0.1,0-0.2,0-0.4v-2.8c-0.1-1.7,1.2-3.2,2.9-3.3
	s3.2,1.2,3.3,2.9c0,0.1,0,0.2,0,0.4V136.2z M475.1,133.4c0-0.8-0.4-1.3-1.1-1.3s-1.1,0.5-1.1,1.3v2.8c0,0.8,0.4,1.3,1.1,1.3
	s1.1-0.5,1.1-1.3V133.4z"/>
<path class="st5" d="M484.1,136.2c0.1,1.7-1.2,3.2-2.9,3.3s-3.2-1.2-3.3-2.9c0-0.1,0-0.2,0-0.4v-2.8c-0.1-1.7,1.2-3.2,2.9-3.3
	s3.2,1.2,3.3,2.9c0,0.1,0,0.2,0,0.4V136.2z M482.1,133.4c0-0.8-0.4-1.3-1.1-1.3s-1.1,0.5-1.1,1.3v2.8c0,0.8,0.4,1.3,1.1,1.3
	s1.1-0.5,1.1-1.3V133.4z"/>
<path class="st5" d="M484.8,132.4c0-1.2,1-2.1,2.1-2.1c1.2,0,2.1,1,2.1,2.1c0,1.2-1,2.1-2.1,2.1
	C485.7,134.5,484.8,133.6,484.8,132.4C484.8,132.4,484.8,132.4,484.8,132.4z M485.7,139.2l5.3-8.7h1.4l-5.3,8.7H485.7z M487.7,132.4
	c0-0.5-0.4-0.8-0.8-0.8c-0.5,0-0.8,0.4-0.8,0.8c0,0.4,0.4,0.8,0.8,0.8C487.3,133.2,487.7,132.9,487.7,132.4
	C487.7,132.4,487.7,132.4,487.7,132.4L487.7,132.4z M489,137.2c0-1.2,1-2.1,2.1-2.1c1.2,0,2.1,1,2.1,2.1c0,1.2-1,2.1-2.1,2.1
	C490,139.3,489.1,138.4,489,137.2L489,137.2z M492,137.2c0-0.5-0.4-0.8-0.8-0.8c-0.5,0-0.8,0.4-0.8,0.8c0,0.4,0.4,0.8,0.8,0.8
	C491.6,138.1,492,137.7,492,137.2C492,137.3,492,137.2,492,137.2L492,137.2z"/>
<path class="st10" d="M437.5,160.4h59c1.7,0,3,1.4,3,3v23c0,1.7-1.4,3-3,3h-59c-1.7,0-3-1.4-3-3v-23
	C434.5,161.8,435.8,160.4,437.5,160.4z"/>
<path class="st5" d="M466.6,178.6v-6.9h-1.5v-1.8h3.5v8.7H466.6z"/>
<path class="st5" d="M477.1,175.7c0.1,1.7-1.2,3.2-2.9,3.3s-3.2-1.2-3.3-2.9c0-0.1,0-0.2,0-0.4v-2.8c-0.1-1.7,1.2-3.2,2.9-3.3
	s3.2,1.2,3.3,2.9c0,0.1,0,0.2,0,0.4V175.7z M475.1,172.9c0-0.8-0.4-1.3-1.1-1.3s-1.1,0.5-1.1,1.3v2.8c0,0.8,0.4,1.3,1.1,1.3
	s1.1-0.5,1.1-1.3V172.9z"/>
<path class="st5" d="M484.1,175.7c0.1,1.7-1.2,3.2-2.9,3.3s-3.2-1.2-3.3-2.9c0-0.1,0-0.2,0-0.4v-2.8c-0.1-1.7,1.2-3.2,2.9-3.3
	s3.2,1.2,3.3,2.9c0,0.1,0,0.2,0,0.4V175.7z M482.1,172.9c0-0.8-0.4-1.3-1.1-1.3s-1.1,0.5-1.1,1.3v2.8c0,0.8,0.4,1.3,1.1,1.3
	s1.1-0.5,1.1-1.3V172.9z"/>
<path class="st5" d="M484.8,171.8c0-1.2,1-2.1,2.1-2.1c1.2,0,2.1,1,2.1,2.1c0,1.2-1,2.1-2.1,2.1C485.7,174,484.8,173,484.8,171.8
	C484.8,171.8,484.8,171.8,484.8,171.8z M485.7,178.6l5.3-8.7h1.4l-5.3,8.7H485.7z M487.7,171.8c0-0.5-0.4-0.8-0.8-0.8
	c-0.5,0-0.8,0.4-0.8,0.8c0,0.4,0.4,0.8,0.8,0.8C487.3,172.7,487.7,172.3,487.7,171.8C487.7,171.9,487.7,171.8,487.7,171.8
	L487.7,171.8z M489,176.7c0-1.2,1-2.1,2.1-2.1c1.2,0,2.1,1,2.1,2.1c0,1.2-1,2.1-2.1,2.1C490,178.8,489.1,177.8,489,176.7L489,176.7z
	 M492,176.7c0-0.5-0.4-0.8-0.8-0.8c-0.5,0-0.8,0.4-0.8,0.8c0,0.4,0.4,0.8,0.8,0.8C491.6,177.5,492,177.2,492,176.7
	C492,176.7,492,176.7,492,176.7L492,176.7z"/>
<path class="st10" d="M437.5,199.9h59c1.7,0,3,1.4,3,3v23c0,1.7-1.4,3-3,3h-59c-1.7,0-3-1.4-3-3v-23
	C434.5,201.2,435.8,199.9,437.5,199.9z"/>
<path class="st5" d="M466.6,218.1v-6.9h-1.5v-1.8h3.5v8.7L466.6,218.1z"/>
<path class="st5" d="M477.1,215.1c0.1,1.7-1.2,3.2-2.9,3.3s-3.2-1.2-3.3-2.9c0-0.1,0-0.2,0-0.4v-2.8c-0.1-1.7,1.2-3.2,2.9-3.3
	s3.2,1.2,3.3,2.9c0,0.1,0,0.2,0,0.4V215.1z M475.1,212.3c0-0.8-0.4-1.3-1.1-1.3s-1.1,0.5-1.1,1.3v2.8c0,0.8,0.4,1.3,1.1,1.3
	s1.1-0.5,1.1-1.3V212.3z"/>
<path class="st5" d="M484.1,215.1c0.1,1.7-1.2,3.2-2.9,3.3s-3.2-1.2-3.3-2.9c0-0.1,0-0.2,0-0.4v-2.8c-0.1-1.7,1.2-3.2,2.9-3.3
	s3.2,1.2,3.3,2.9c0,0.1,0,0.2,0,0.4V215.1z M482.1,212.3c0-0.8-0.4-1.3-1.1-1.3s-1.1,0.5-1.1,1.3v2.8c0,0.8,0.4,1.3,1.1,1.3
	s1.1-0.5,1.1-1.3V212.3z"/>
<path class="st5" d="M484.8,211.3c0-1.2,1-2.1,2.1-2.1c1.2,0,2.1,1,2.1,2.1c0,1.2-1,2.1-2.1,2.1
	C485.7,213.4,484.8,212.5,484.8,211.3C484.8,211.3,484.8,211.3,484.8,211.3z M485.7,218.1l5.3-8.7h1.4l-5.3,8.7H485.7z M487.7,211.3
	c0-0.5-0.4-0.8-0.8-0.8c-0.5,0-0.8,0.4-0.8,0.8c0,0.4,0.4,0.8,0.8,0.8C487.3,212.1,487.7,211.8,487.7,211.3
	C487.7,211.3,487.7,211.3,487.7,211.3L487.7,211.3z M489,216.1c0-1.2,1-2.1,2.1-2.1c1.2,0,2.1,1,2.1,2.1c0,1.2-1,2.1-2.1,2.1
	C490,218.2,489.1,217.3,489,216.1L489,216.1z M492,216.1c0-0.5-0.4-0.8-0.8-0.8c-0.5,0-0.8,0.4-0.8,0.8c0,0.4,0.4,0.8,0.8,0.8
	C491.6,217,492,216.6,492,216.1C492,216.1,492,216.1,492,216.1L492,216.1z"/>
<path class="st10" d="M437.5,239.3h59c1.7,0,3,1.4,3,3v23c0,1.7-1.4,3-3,3h-59c-1.7,0-3-1.4-3-3v-23
	C434.5,240.6,435.8,239.3,437.5,239.3z"/>
<path class="st5" d="M466.6,257.5v-6.9h-1.5v-1.8h3.5v8.7H466.6z"/>
<path class="st5" d="M477.1,254.5c0.1,1.7-1.2,3.2-2.9,3.3s-3.2-1.2-3.3-2.9c0-0.1,0-0.2,0-0.4v-2.8c-0.1-1.7,1.2-3.2,2.9-3.3
	s3.2,1.2,3.3,2.9c0,0.1,0,0.2,0,0.4V254.5z M475.1,251.7c0-0.8-0.4-1.3-1.1-1.3s-1.1,0.5-1.1,1.3v2.8c0,0.8,0.4,1.3,1.1,1.3
	s1.1-0.5,1.1-1.3V251.7z"/>
<path class="st5" d="M484.1,254.5c0.1,1.7-1.2,3.2-2.9,3.3s-3.2-1.2-3.3-2.9c0-0.1,0-0.2,0-0.4v-2.8c-0.1-1.7,1.2-3.2,2.9-3.3
	s3.2,1.2,3.3,2.9c0,0.1,0,0.2,0,0.4V254.5z M482.1,251.7c0-0.8-0.4-1.3-1.1-1.3s-1.1,0.5-1.1,1.3v2.8c0,0.8,0.4,1.3,1.1,1.3
	s1.1-0.5,1.1-1.3V251.7z"/>
<path class="st5" d="M484.8,250.7c0-1.2,1-2.1,2.1-2.1s2.1,1,2.1,2.1c0,1.2-1,2.1-2.1,2.1C485.7,252.8,484.8,251.9,484.8,250.7
	C484.8,250.7,484.8,250.7,484.8,250.7z M485.7,257.5l5.3-8.7h1.4l-5.3,8.7H485.7z M487.7,250.7c0-0.5-0.4-0.8-0.8-0.8
	c-0.5,0-0.8,0.4-0.8,0.8c0,0.4,0.4,0.8,0.8,0.8C487.3,251.5,487.7,251.2,487.7,250.7C487.7,250.7,487.7,250.7,487.7,250.7
	L487.7,250.7z M489,255.5c0-1.2,1-2.1,2.1-2.1s2.1,1,2.1,2.1c0,1.2-1,2.1-2.1,2.1C490,257.6,489.1,256.7,489,255.5L489,255.5z
	 M492,255.5c0-0.5-0.4-0.8-0.8-0.8c-0.5,0-0.8,0.4-0.8,0.8c0,0.4,0.4,0.8,0.8,0.8C491.6,256.4,492,256,492,255.5
	C492,255.6,492,255.5,492,255.5L492,255.5z"/>
<path class="st10" d="M437.5,278.7h59c1.7,0,3,1.4,3,3v23c0,1.7-1.4,3-3,3h-59c-1.7,0-3-1.4-3-3v-23
	C434.5,280.1,435.8,278.7,437.5,278.7z"/>
<path class="st5" d="M466.6,296.9V290h-1.5v-1.8h3.5v8.7H466.6z"/>
<path class="st5" d="M477.1,294c0.1,1.7-1.2,3.2-2.9,3.3s-3.2-1.2-3.3-2.9c0-0.1,0-0.2,0-0.4v-2.8c-0.1-1.7,1.2-3.2,2.9-3.3
	s3.2,1.2,3.3,2.9c0,0.1,0,0.2,0,0.4V294z M475.1,291.1c0-0.8-0.4-1.3-1.1-1.3s-1.1,0.5-1.1,1.3v2.8c0,0.8,0.4,1.3,1.1,1.3
	s1.1-0.5,1.1-1.3V291.1z"/>
<path class="st5" d="M484.1,294c0.1,1.7-1.2,3.2-2.9,3.3s-3.2-1.2-3.3-2.9c0-0.1,0-0.2,0-0.4v-2.8c-0.1-1.7,1.2-3.2,2.9-3.3
	s3.2,1.2,3.3,2.9c0,0.1,0,0.2,0,0.4V294z M482.1,291.1c0-0.8-0.4-1.3-1.1-1.3s-1.1,0.5-1.1,1.3v2.8c0,0.8,0.4,1.3,1.1,1.3
	s1.1-0.5,1.1-1.3V291.1z"/>
<path class="st5" d="M484.8,290.1c0-1.2,1-2.1,2.1-2.1s2.1,1,2.1,2.1c0,1.2-1,2.1-2.1,2.1C485.7,292.3,484.8,291.3,484.8,290.1
	C484.8,290.1,484.8,290.1,484.8,290.1z M485.7,296.9l5.3-8.7h1.4l-5.3,8.7H485.7z M487.7,290.1c0-0.5-0.4-0.8-0.8-0.8
	c-0.5,0-0.8,0.4-0.8,0.8c0,0.4,0.4,0.8,0.8,0.8C487.3,291,487.7,290.6,487.7,290.1C487.7,290.2,487.7,290.2,487.7,290.1L487.7,290.1
	z M489,295c0-1.2,1-2.1,2.1-2.1s2.1,1,2.1,2.1c0,1.2-1,2.1-2.1,2.1C490,297.1,489.1,296.1,489,295L489,295z M492,295
	c0-0.5-0.4-0.8-0.8-0.8c-0.5,0-0.8,0.4-0.8,0.8c0,0.4,0.4,0.8,0.8,0.8C491.6,295.8,492,295.5,492,295C492,295,492,295,492,295
	L492,295z"/>
<path class="st3" d="M448.6,137.3c-1.7,0-1.9-0.6-2.9-0.6s-2,0.2-2.3,2.4s5.4,2.4,5.4,2.4s5.7-0.1,5.4-2.4s-1.3-2.4-2.3-2.4
	s-1.2,0.5-2.9,0.6H448.6z"/>
<circle class="st3" cx="448.8" cy="132.7" r="3.2"/>
<path class="st3" d="M448.6,216.2c-1.7,0-1.9-0.6-2.9-0.6s-2,0.2-2.3,2.4s5.4,2.4,5.4,2.4s5.7-0.1,5.4-2.4s-1.3-2.4-2.3-2.4
	s-1.2,0.5-2.9,0.6H448.6z"/>
<circle class="st3" cx="448.8" cy="211.6" r="3.2"/>
<path class="st3" d="M448.6,256.9c-1.7,0-1.9-0.6-2.9-0.6s-2,0.2-2.3,2.4s5.4,2.4,5.4,2.4s5.7-0.1,5.4-2.4s-1.3-2.4-2.3-2.4
	s-1.2,0.5-2.9,0.6H448.6z"/>
<circle class="st3" cx="448.8" cy="252.3" r="3.2"/>
<path class="st3" d="M448.6,295.1c-1.7,0-1.9-0.6-2.9-0.6s-2,0.2-2.3,2.4s5.4,2.4,5.4,2.4s5.7-0.1,5.4-2.4s-1.3-2.4-2.3-2.4
	s-1.2,0.5-2.9,0.6H448.6z"/>
<circle class="st3" cx="448.8" cy="290.5" r="3.2"/>
<path class="st3" d="M448.6,176.8c-1.7,0-1.9-0.6-2.9-0.6s-2,0.2-2.3,2.4s5.4,2.4,5.4,2.4s5.7-0.1,5.4-2.4s-1.3-2.4-2.3-2.4
	s-1.2,0.5-2.9,0.6H448.6z"/>
<circle class="st3" cx="448.8" cy="172.2" r="3.2"/>
<path class="st2" d="M532.5,404.7H229.8c-0.6,0-1-0.4-1-1V26.5c0-0.6,0.4-1,1-1h302.7c0.6,0,1,0.4,1,1v377.1
	C533.5,404.2,533.1,404.7,532.5,404.7z M230.8,402.7h300.7V27.5H230.8L230.8,402.7z"/>
<path class="st2" d="M299.5,63.9V53.7h-2.2v-2.6h5.2v12.9H299.5z"/>
<path class="st2" d="M311,57.1c-0.1-0.4-0.5-0.7-1-0.7c-0.8,0-1,0.3-1,0.8c0,1.4,5.2-0.1,5.2,3.7c0,1.9-1.6,3.3-4.1,3.3
	s-4.1-1.3-4.1-3.2h2.9c0,0.5,0.4,0.8,1.2,0.8s1.2-0.3,1.2-0.8c0-1.4-5.2,0.1-5.2-3.7c0-1.9,1.5-3.3,4-3.3s3.9,1.4,4,3.2H311z"/>
<path class="st2" d="M323.7,60.1c0,2.3-1.8,4.1-4.1,4.1c-2.3,0-4.1-1.8-4.1-4.1v-9h3v3.1h4.6v2.7h-4.6v3.2c0,1,0.5,1.3,1.1,1.3
	s1.1-0.3,1.1-1.3v-0.3h3L323.7,60.1z"/>
<path class="st2" d="M330.7,63.9V51.1h5.1c3.5,0,5.1,1.9,5.1,4.5s-1.6,4.6-5.1,4.6h-1.9V64L330.7,63.9z M335.9,57.2
	c1.4,0,1.8-0.7,1.8-1.6s-0.4-1.6-1.8-1.6h-1.9v3.2H335.9z"/>
<path class="st2" d="M344.9,59.9L344.9,59.9c0.2,1,1.1,1.7,2.2,1.6c0.7,0.1,1.4-0.2,1.9-0.7h3c-0.7,2.1-2.7,3.5-4.9,3.3
	c-2.8,0-5.1-2.4-5.1-5.2s2.4-5.1,5.2-5.1c2.8,0,5.1,2.3,5.1,5.1v0.8L344.9,59.9z M345,58L345,58h4.2l0,0c-0.3-0.9-1.2-1.5-2.1-1.4
	C346.1,56.5,345.2,57.1,345,58L345,58z"/>
<path class="st2" d="M359.6,58.5L359.6,58.5c0-1.4-0.6-1.8-1.4-1.8s-1.4,0.4-1.4,1.7v5.5h-3v-5.5c0-3,1.8-4.4,4.4-4.4
	s4.4,1.4,4.4,4.5H359.6z"/>
<path class="st2" d="M363.6,51.4c0-1,0.9-1.9,1.9-1.9c1,0,1.9,0.9,1.9,1.9c0,1-0.9,1.9-1.9,1.9C364.5,53.4,363.6,52.5,363.6,51.4
	C363.6,51.5,363.6,51.5,363.6,51.4z M364,63.9v-9.7h3v9.7H364z"/>
<path class="st2" d="M374.1,64.2c-2.8-0.1-5.1-2.4-5-5.2c0.1-2.8,2.4-5.1,5.2-5c2.8,0.1,5,2.3,5,5.1c0.1,2.8-2.1,5.1-4.9,5.1
	C374.3,64.2,374.2,64.2,374.1,64.2z M376.3,59.1c-0.1-1.2-1.1-2.2-2.4-2.1c-1.2,0.1-2.2,1.1-2.1,2.4c0.1,1.2,1.1,2.1,2.3,2.1
	c1.2,0,2.2-0.9,2.2-2.1C376.3,59.2,376.3,59.2,376.3,59.1L376.3,59.1z"/>
<path class="st2" d="M390.9,59c0.2,2.7-1.9,5-4.6,5.2c-0.2,0-0.4,0-0.6,0c-2.8,0.1-5.1-2-5.2-4.8c0-0.1,0-0.2,0-0.4
	c-0.2-2.6,1.7-4.9,4.3-5.1c0.1,0,0.2,0,0.3,0c1.1-0.1,2.1,0.4,2.8,1.3l0,0V50h3L390.9,59z M387.9,59.1c-0.1-1.2-1.1-2.2-2.4-2.1
	c-1.2,0.1-2.2,1.1-2.1,2.4c0.1,1.2,1.1,2.1,2.3,2.1c1.2,0.1,2.2-0.9,2.3-2.1C387.9,59.3,387.9,59.2,387.9,59.1L387.9,59.1z"/>
<path class="st2" d="M398.4,63.9V51.1h6.1c2.5,0,3.8,1.4,3.8,3.4c0.1,1.1-0.5,2.2-1.5,2.8l0,0c1.3,0.5,2.2,1.7,2.1,3.2
	c0,2-1.3,3.5-3.9,3.5L398.4,63.9z M401.6,54v2.1h2.4c0.9,0,1.2-0.5,1.2-1s-0.2-1.1-1.2-1.1L401.6,54z M401.6,58.7V61h2.8
	c0.9,0,1.2-0.5,1.2-1.1c0-0.6-0.5-1.1-1.1-1.2c-0.1,0-0.1,0-0.2,0L401.6,58.7z"/>
<path class="st2" d="M410.3,51.4c0-1,0.9-1.9,1.9-1.9c1,0,1.9,0.9,1.9,1.9c0,1-0.9,1.9-1.9,1.9C411.1,53.4,410.3,52.5,410.3,51.4
	C410.3,51.5,410.3,51.5,410.3,51.4z M410.7,63.9v-9.7h3v9.7H410.7z"/>
<path class="st2" d="M420.7,64.2c-2.8-0.1-5.1-2.4-5-5.2c0.1-2.8,2.4-5.1,5.2-5c2.8,0.1,5,2.3,5,5.1c0.1,2.8-2.1,5.1-4.9,5.1
	C421,64.2,420.8,64.2,420.7,64.2z M422.9,59.1c-0.1-1.2-1.1-2.2-2.4-2.1c-1.2,0.1-2.2,1.1-2.1,2.4c0.1,1.2,1.1,2.1,2.3,2.1
	c1.2,0,2.2-0.9,2.2-2.1C423,59.2,423,59.2,422.9,59.1L422.9,59.1z"/>
<path class="st2" d="M427.8,63.9v-14h3v14H427.8z"/>
<path class="st2" d="M437.8,64.2c-2.8-0.1-5.1-2.4-5-5.2c0.1-2.8,2.4-5.1,5.2-5c2.8,0.1,5,2.3,5,5.1c0.1,2.8-2.1,5.1-4.9,5.1
	C438.1,64.2,438,64.2,437.8,64.2z M440.1,59.1c-0.1-1.2-1.1-2.2-2.4-2.1c-1.2,0.1-2.2,1.1-2.1,2.4c0.1,1.2,1.1,2.1,2.3,2.1
	c1.2,0,2.2-0.9,2.2-2.1C440.1,59.2,440.1,59.2,440.1,59.1L440.1,59.1z"/>
<path class="st2" d="M451.7,62.8L451.7,62.8c-0.7,0.8-1.7,1.3-2.8,1.3c-2.5,0.1-4.6-2-4.7-4.5c0-0.2,0-0.3,0-0.5
	c-0.1-2.8,2.1-5.1,4.9-5.1c0.1,0,0.2,0,0.4,0c2.7-0.2,5,1.9,5.2,4.6c0,0.2,0,0.4,0,0.6v4c0,3.7-2.3,5.2-5.2,5.2
	c-2.5,0-4.4-1.1-5-3.5h3c0.4,0.7,1.2,1,2,0.9c1.4,0,2.2-0.6,2.2-2.5L451.7,62.8z M449.4,56.7c-1.2,0-2.2,0.9-2.2,2.1
	c0,0.1,0,0.2,0,0.2c0,1.2,1,2.2,2.2,2.2s2.2-1,2.2-2.2c0.1-1.2-0.8-2.3-2-2.4C449.6,56.7,449.5,56.7,449.4,56.7z"/>
<path class="st2" d="M463.2,59.1v-4.9h3v9.4c0,3.4-2.2,4.7-4.8,4.7c-2.3,0-4.2-1.1-4.7-3.5h3c0.3,0.6,0.8,0.9,1.8,0.9
	c1.3,0,1.9-0.6,1.9-2.1v-0.9l0,0c-0.5,0.8-1.4,1.3-2.4,1.2c-2,0-4.2-1.4-4.2-4.9v-4.9h3v4.9c0,1.5,0.8,2.2,1.9,2.2
	S463.2,60.6,463.2,59.1z"/>
</svg>
