<svg xmlns="http://www.w3.org/2000/svg" viewBox="0 0 280 280"><defs><style>.cls-1{isolation:isolate;}.cls-17,.cls-2,.cls-26{fill:#d0e4f1;}.cls-16,.cls-18,.cls-21,.cls-27,.cls-29,.cls-3,.cls-30,.cls-4,.cls-7,.cls-8{fill:none;}.cls-17,.cls-3{stroke:#a1c2d8;}.cls-10,.cls-13,.cls-16,.cls-17,.cls-18,.cls-21,.cls-22,.cls-23,.cls-24,.cls-25,.cls-26,.cls-27,.cls-28,.cls-29,.cls-3,.cls-30,.cls-4,.cls-7,.cls-8,.cls-9{stroke-linecap:round;stroke-linejoin:round;}.cls-4{stroke:#3290c1;}.cls-28,.cls-5{fill:#3290c1;}.cls-6{fill:#1e6b96;}.cls-7,.cls-9{stroke:#144966;}.cls-8{stroke:#d0e4f1;}.cls-9{fill:#a1c2d8;}.cls-10,.cls-15,.cls-24{fill:#fff;}.cls-10{stroke:#1a628a;}.cls-11{fill:#1685c7;}.cls-12,.cls-13{fill:#00bd9c;}.cls-13,.cls-16{stroke:#0a706e;}.cls-14{fill:#d5d5d7;mix-blend-mode:multiply;}.cls-18,.cls-26,.cls-27{stroke:#3f555a;}.cls-19{fill:#f56f40;}.cls-20{fill:#d65129;}.cls-21{stroke:#d65129;}.cls-22{fill:#3f555a;stroke:#233839;}.cls-23{fill:#19bc9c;}.cls-23,.cls-25{stroke:#109995;}.cls-24,.cls-30{stroke:#fff;}.cls-25{fill:#109995;}.cls-27{stroke-dasharray:0 2;}.cls-28{stroke:#1e6b96;}.cls-29{stroke:#19bc9c;}.cls-30{stroke-width:2px;}</style></defs><title>Passages</title><g class="cls-1"><g id="Layer_3" data-name="Layer 3"><path class="cls-2" d="M138.69,123.73c.47-1.44.81-3.14,1.83-4.32a13.5,13.5,0,0,1,.79-1.58,51.85,51.85,0,0,1,4.47-6.68,36.19,36.19,0,0,1,5-5.87,25.69,25.69,0,0,0,4-4.16,5.92,5.92,0,0,0,.87-5.5,108,108,0,0,0-12.42,14.95,41.51,41.51,0,0,1,2.74-5.89c.91-2,1.52-4.25.78-6.29l-6.48,15.26c1-6.11-2.21-13.15-2.55-19.35,0,0,.08,13.3-.14,15.51l-1.9-6.07c-1.22-3.88-2.48-7.84-4.94-11.07a22.66,22.66,0,0,1,.31,10.59A42.22,42.22,0,0,0,121,92.94a26.16,26.16,0,0,1,0,8.12,46.82,46.82,0,0,0-12.16-6.26l.22,6.62a48.13,48.13,0,0,0-10.79-2.81,35.51,35.51,0,0,1,0,6.59,38.32,38.32,0,0,0-10.62-2.29c-.23,3.37-.4,7,1.38,9.86a13.29,13.29,0,0,0,5.8,4.62A69.65,69.65,0,0,0,105,121c10.29,3.1,21,6.23,31.63,4.56a2.82,2.82,0,0,0,1.14-.36A2.68,2.68,0,0,0,138.69,123.73Z"/><path class="cls-2" d="M166.86,97.08l-.2-3-.51.25a109.86,109.86,0,0,0-24.41,24.62.61.61,0,0,0,.75.23,17.41,17.41,0,0,1,2.16-2.8,12,12,0,0,1,1.53-1.72c5.74-5.6,11.62-11.3,18.81-14.85a3.15,3.15,0,0,0,1.78-1.52A3,3,0,0,0,166.86,97.08Z"/><path class="cls-2" d="M158.64,106.52a172.44,172.44,0,0,1,17.6-8.94,7,7,0,0,1,.22,2.49,1.18,1.18,0,0,1-.17.59,1.29,1.29,0,0,1-.65.4,105.29,105.29,0,0,0-17.23,7.54,61.89,61.89,0,0,0-12.73,9.73c-.35.35-2.33,2.82-2.36,1.21,0-.71,1.58-1.9,2-2.4a51.92,51.92,0,0,1,5.82-5.42A70,70,0,0,1,158.64,106.52Z"/><path class="cls-2" d="M164.55,108.87a158.22,158.22,0,0,1,20.86-7.17l.31,3.57c-7,3.19-14.82,4-21.89,6.94a76,76,0,0,0-7.66,3.92,63.17,63.17,0,0,0-6.53,4c-.44.32-3.45,2.39-3.5,1.13,0-.82,2.57-2.58,3.11-3a58.2,58.2,0,0,1,9.55-6.51C160.67,110.7,162.59,109.75,164.55,108.87Z"/><path class="cls-2" d="M152.38,120.62c11.13-6.08,23.48-9.54,35.7-12.94,1.47-.41,2.95-.82,4.44-1.12a.8.8,0,0,1,.6,0,.75.75,0,0,1,.26.47,5.7,5.7,0,0,1,0,2.45"/><path class="cls-2" d="M137.36,119.72a16.35,16.35,0,0,1,10.13.75c1,.41,2.09,1.13,2.09,2.21s-1.17,1.86-2.21,2.31c-4,1.71-8.47,2.67-12.63,1.5a6.88,6.88,0,0,1-2.9-1.5c-1.34-1.26-1.55-2.54.15-3.3A32.64,32.64,0,0,1,137.36,119.72Z"/><path class="cls-3" d="M148.32,115.84a85.14,85.14,0,0,1,37.11-17v6.76"/><path class="cls-3" d="M147.69,112.31a68.17,68.17,0,0,1,28.82-17V101"/><path class="cls-3" d="M142.53,116.32a73.12,73.12,0,0,1,24.38-24.39v6.91"/><path class="cls-3" d="M143.54,110A68.18,68.18,0,0,1,156,91.31v8.74"/><path class="cls-3" d="M140.71,112.88a73.22,73.22,0,0,1,6.51-21.47v11.51"/><path class="cls-3" d="M151.05,119.05a101.49,101.49,0,0,1,42.32-14.67v4.85"/><path class="cls-3" d="M129.7,116.6a151.54,151.54,0,0,0-41.92-13.8v6.76"/><path class="cls-3" d="M127.15,110.58a73.63,73.63,0,0,0-29.3-12v5.66"/><path class="cls-3" d="M136.24,116.57A70.27,70.27,0,0,0,108.7,94.29v6.91"/><path class="cls-3" d="M136.2,112.47A61,61,0,0,0,121,92.73v8.74"/><path class="cls-3" d="M137.85,109.27a70,70,0,0,0-6.9-17.19v11.51"/><path class="cls-4" d="M130.85,122.14a15.81,15.81,0,0,1,18.56.2"/><path class="cls-4" d="M132.1,123.56a15.09,15.09,0,0,1,15.62-.11"/><path class="cls-3" d="M140.7,112.51c-.76-6.76-2-13.44-3.29-20.12l.49,17.07"/><path class="cls-5" d="M129,187.86,84.43,175.27a1,1,0,0,1-.75-1V109.77a1,1,0,0,1,1.3-1l44,12.43Z"/><path class="cls-6" d="M129,187.86,84.43,175.27a1,1,0,0,1-.75-1V111.81a1,1,0,0,1,1.3-1l44,12.43Z"/><path class="cls-5" d="M151,187.86l44.59-12.59a1,1,0,0,0,.75-1V109.77a1,1,0,0,0-1.3-1l-44,12.43Z"/><path class="cls-6" d="M129,124.08v63.77a15.48,15.48,0,0,0,11,4.55c.27,0,.54,0,.81,0-.3-21.47-.81-42.73-.81-64.5C135.85,128.7,132.37,126.16,129,124.08Z"/><path class="cls-5" d="M151,121.21a15.53,15.53,0,0,1-22,0v2.87c3.35,2.08,6.83,4.62,11,3.79,0,21.77.51,43,.81,64.5A15.45,15.45,0,0,0,151,187.86Z"/><path class="cls-7" d="M129,187.86,84.43,175.27a1,1,0,0,1-.75-1V109.77a1,1,0,0,1,1.3-1l44,12.43Z"/><path class="cls-3" d="M92.23,173.21,87.78,172"/><path class="cls-3" d="M124.92,182.44l-29-8.19"/><path class="cls-3" d="M115.29,121.59l9.63,2.72"/><path class="cls-3" d="M87.78,113.83l24,6.78"/><path class="cls-7" d="M151,187.86l44.59-12.59a1,1,0,0,0,.75-1V109.77a1,1,0,0,0-1.3-1l-44,12.43Z"/><path class="cls-8" d="M175.37,176.72l-20.29,5.73"/><path class="cls-8" d="M192.22,172l-10.56,3"/><path class="cls-8" d="M186.82,115.35l5.4-1.52"/><path class="cls-8" d="M166.59,121.06l14.16-4"/><path class="cls-8" d="M155.08,124.31l9.63-2.72"/><path class="cls-7" d="M129,187.86a15.53,15.53,0,0,0,22,0V121.21a15.53,15.53,0,0,1-22,0Z"/><path class="cls-8" d="M142.28,188.08a11.57,11.57,0,0,1-9.16-2.08"/><path class="cls-8" d="M133.12,128.62a19.8,19.8,0,0,0,13.77,0"/><path class="cls-9" d="M110.7,161.35l6.63,1.87-7.67-25.92L103,135.43,95.37,157l6.63,1.87,1-2.74,6.76,1.91Zm-6-10.07,1.65-4.64L108,152.2Z"/><polygon class="cls-10" points="181.95 135.12 176.62 136.61 175.32 136.98 165.41 139.76 165.41 146.79 172.37 144.83 165.35 163.53 170.68 162.03 171.98 161.67 181.89 158.89 181.89 151.86 174.93 153.81 181.95 135.12"/><circle class="cls-11" cx="72.29" cy="75.94" r="9.84"/><path class="cls-12" d="M75.58,81.58A2.52,2.52,0,0,1,75.19,83a4,4,0,0,1-1,.91,7.53,7.53,0,0,0-1.77,1.65,3,3,0,0,0-.17.27h0a9.85,9.85,0,0,1-2.79-.42A14.09,14.09,0,0,0,70,82.64a8.59,8.59,0,0,0-.59-3.51,7.08,7.08,0,0,0-1.06-2,3.77,3.77,0,0,0-1.83-1.28c-.52-.15-1.08-.15-1.6-.33A3.14,3.14,0,0,1,63,73.4c0-.15-.07-.3-.1-.45h0a9.86,9.86,0,0,1,5.55-6.07c.68.41,1.54.47,2.25.83a3.28,3.28,0,0,1,1.67,2.54,4.83,4.83,0,0,1-.73,3A3.36,3.36,0,0,0,70.92,75a1.87,1.87,0,0,0,.65,1.26,8.73,8.73,0,0,0,1.18.84A5.63,5.63,0,0,1,75.58,81.58Z"/><path class="cls-13" d="M82.12,75.94A9.75,9.75,0,0,1,81,80.42a7.89,7.89,0,0,1-1.47-.85,3.55,3.55,0,0,1-1.37-1.91c-.36-1.45.54-3,.09-4.44-.39-1.23-1.63-1.93-2.46-2.92a1,1,0,0,1-.25-.45,1.09,1.09,0,0,1,.27-.77,5.28,5.28,0,0,1,1.25-1.32,2.83,2.83,0,0,1,.34-.21A9.82,9.82,0,0,1,82.12,75.94Z"/><path class="cls-14" d="M82.12,75.94a9.84,9.84,0,0,1-19.38,2.36A9.15,9.15,0,0,0,70,83.18a9,9,0,0,0,4.38-1,12.58,12.58,0,0,0,6.14-7.54,10.16,10.16,0,0,0,.51-3.1A9.74,9.74,0,0,1,82.12,75.94Z"/><path class="cls-15" d="M67.87,68.78a12.67,12.67,0,0,1,6.61-2.42,9.81,9.81,0,0,0-12,9.58,10,10,0,0,0,.07,1.2A14,14,0,0,1,67.87,68.78Z"/><path class="cls-16" d="M75.58,81.58A2.52,2.52,0,0,1,75.19,83a4,4,0,0,1-1,.91,7.53,7.53,0,0,0-1.77,1.65,3,3,0,0,0-.17.27h0a9.85,9.85,0,0,1-2.79-.42A14.09,14.09,0,0,0,70,82.64a8.59,8.59,0,0,0-.59-3.51,7.08,7.08,0,0,0-1.06-2,3.77,3.77,0,0,0-1.83-1.28c-.52-.15-1.08-.15-1.6-.33A3.14,3.14,0,0,1,63,73.4c0-.15-.07-.3-.1-.45h0a9.86,9.86,0,0,1,5.55-6.07c.68.41,1.54.47,2.25.83a3.28,3.28,0,0,1,1.67,2.54,4.83,4.83,0,0,1-.73,3A3.36,3.36,0,0,0,70.92,75a1.87,1.87,0,0,0,.65,1.26,8.73,8.73,0,0,0,1.18.84A5.63,5.63,0,0,1,75.58,81.58Z"/><circle class="cls-16" cx="72.29" cy="75.94" r="9.84"/><rect class="cls-17" x="219.82" y="158.86" width="2.75" height="16.91"/><line class="cls-3" x1="222.57" y1="158.86" x2="238.99" y2="158.86"/><line class="cls-3" x1="222.57" y1="163.08" x2="238.99" y2="163.08"/><line class="cls-3" x1="222.57" y1="171.54" x2="238.99" y2="171.54"/><line class="cls-3" x1="222.57" y1="167.31" x2="238.99" y2="167.31"/><line class="cls-3" x1="222.57" y1="175.77" x2="238.99" y2="175.77"/><path class="cls-18" d="M228.88,169.7c-1.3-4,3.81-4.79,5.06-2.17s-1,5.52-3.86,5.46a4.4,4.4,0,0,1-4.18-5.49c.66-2.46,3.17-4.2,4.46-6.34,1-1.64,2.5-6.77.32-6.89s-1.09,5-.88,6.21c.62,3.53,1.33,15.8,1,18.91s-3.45,1.63-2.58,0"/><path class="cls-17" d="M213.24,95.26h12.32a2.5,2.5,0,0,0,2.15-3.76l-5.29-9a4.07,4.07,0,0,1-.56-2.06V73.27a.57.57,0,0,1,.57-.57h0a.57.57,0,0,0,.57-.57v-.28a.57.57,0,0,0-.57-.57h-6.08a.57.57,0,0,0-.57.57v.28a.57.57,0,0,0,.57.57h0a.57.57,0,0,1,.57.57v7.15a4.07,4.07,0,0,1-.56,2.06l-5.29,9A2.5,2.5,0,0,0,213.24,95.26Z"/><path class="cls-19" d="M213.51,92l3.17-5.41a.66.66,0,0,1,.57-.32h4.31a.66.66,0,0,1,.57.32L225.29,92a.66.66,0,0,1-.57,1H214.08A.66.66,0,0,1,213.51,92Z"/><path class="cls-20" d="M224.26,91.34a1.67,1.67,0,0,1-.44,0l-6.5-.18c-.51,0-1,0-1.53,0a8.62,8.62,0,0,1-1.17,0h0c0,.11-.09.23-.14.34a4.88,4.88,0,0,1-.51.79,2.2,2.2,0,0,0,.39.1c1.3,0,2.63,0,4,0,.57,0,1.14,0,1.71,0l1.1,0,3.58,0h.08A3.85,3.85,0,0,1,224.26,91.34Z"/><path class="cls-21" d="M213.51,92l3.17-5.41a.66.66,0,0,1,.57-.32h4.31a.66.66,0,0,1,.57.32L225.29,92a.66.66,0,0,1-.57,1H214.08A.66.66,0,0,1,213.51,92Z"/><circle class="cls-8" cx="220.14" cy="63.5" r="1.66"/><circle class="cls-8" cx="222.71" cy="52.46" r="2.59"/><path class="cls-8" d="M221.69,52.46a1,1,0,0,1,1-1"/><polygon class="cls-22" points="176.92 202.12 169.28 202.12 169.28 204.22 171.7 204.22 171.7 207.97 174.51 207.97 174.51 204.22 176.92 204.22 176.92 202.12"/><path class="cls-22" d="M168.47,228a2.28,2.28,0,0,0-2.24,3.86l-.38,1.18a.95.95,0,1,0,1.81.58l.38-1.18a2.28,2.28,0,0,0,.43-4.44Z"/><path class="cls-23" d="M182.07,224.7v-8.81a9.16,9.16,0,0,0-8.79-9.26,9,9,0,0,0-9.13,9v9.11h-1a1.55,1.55,0,0,0-1.55,1.55v1.08a1.55,1.55,0,0,0,1.55,1.55h19.9a1.55,1.55,0,0,0,1.55-1.55v-1.08a1.55,1.55,0,0,0-1.55-1.55Z"/><path class="cls-24" d="M179.48,218.08v1.77a.71.71,0,0,1-.75.74h0a.73.73,0,0,1-.63-.74v-1.77a.72.72,0,0,1,.68-.75h0A.72.72,0,0,1,179.48,218.08Z"/><path class="cls-24" d="M177.81,214.49a4.63,4.63,0,0,0-2.73-2.93.74.74,0,0,1-.45-.74v0a.7.7,0,0,1,.9-.67,6.09,6.09,0,0,1,3.6,3.84.74.74,0,0,1-.7,1h0A.68.68,0,0,1,177.81,214.49Z"/><polygon class="cls-25" points="173.21 228.89 171.79 224.71 173.78 221.13 172.68 216.34 174.93 221.13 173.8 224.71 176.22 228.89 173.21 228.89"/><line class="cls-23" x1="182.07" y1="224.7" x2="177.4" y2="224.7"/><line class="cls-23" x1="166.39" y1="224.69" x2="169.71" y2="224.69"/><rect class="cls-3" x="59.95" y="183.25" width="1.76" height="12.27" rx="0.88" ry="0.88" transform="translate(-116.1 98.48) rotate(-45)"/><rect class="cls-3" x="74.34" y="197.64" width="1.76" height="12.27" rx="0.88" ry="0.88" transform="translate(-122.06 112.87) rotate(-45)"/><ellipse class="cls-26" cx="75.59" cy="189.02" rx="3.5" ry="5.62" transform="translate(-111.52 108.81) rotate(-45)"/><path class="cls-26" d="M71.61,185c-1.37,1.37-.69,4.25,1.5,6.45s5.08,2.87,6.45,1.5l-13.8,13.8c-1.37,1.37-4.25.69-6.45-1.5s-2.87-5.08-1.5-6.45Z"/><path class="cls-27" d="M69.67,187c-1.37,1.37-.69,4.25,1.5,6.45s5.08,2.87,6.45,1.5"/><path class="cls-18" d="M66.65,190c-1.37,1.37-.69,4.25,1.5,6.45l-8.84,8.84"/><path class="cls-27" d="M64,192.64a7.45,7.45,0,0,0,2.14,3.81l-7.76,7.76"/><rect class="cls-28" x="52.1" y="179.31" width="8.4" height="11.09" transform="translate(-34.6 355.38) rotate(-135)"/><line class="cls-28" x1="53.37" y1="189.77" x2="61.21" y2="181.93"/><line class="cls-28" x1="51.39" y1="187.79" x2="59.23" y2="179.95"/><line class="cls-28" x1="60.58" y1="186.52" x2="54.64" y2="180.58"/><line class="cls-28" x1="57.97" y1="189.13" x2="52.02" y2="183.19"/><rect class="cls-28" x="75.55" y="202.76" width="8.4" height="11.09" transform="translate(-11.15 411.99) rotate(-135)"/><line class="cls-28" x1="84.66" y1="205.37" x2="76.82" y2="213.21"/><line class="cls-28" x1="82.68" y1="203.39" x2="74.84" y2="211.23"/><line class="cls-28" x1="81.41" y1="212.58" x2="75.47" y2="206.64"/><line class="cls-28" x1="84.03" y1="209.97" x2="78.08" y2="204.03"/><path class="cls-8" d="M140,60.76V37.7"/><path class="cls-8" d="M161.12,53.56l2.08-8.66"/><path class="cls-8" d="M155.5,77l3.76-15.67"/><path class="cls-8" d="M175.89,79.85l10.4-17.91"/><path class="cls-8" d="M194,86.47l5.23-5.34"/><path class="cls-8" d="M207.52,114.53,222,108.73"/><path class="cls-8" d="M224.18,119.06l16.2-4.34"/><path class="cls-8" d="M209.33,123l3.32-.89"/><path class="cls-8" d="M228.19,140.24l15.72-.25"/><path class="cls-8" d="M219.36,192.51l8.13,5.21"/><path class="cls-8" d="M210.25,198.63,216,203.3"/><path class="cls-8" d="M201.13,191.24l4.52,3.67"/><path class="cls-8" d="M193.65,208.35l11.48,14.27"/><path class="cls-8" d="M146.09,205.1l.79,8.21"/><path class="cls-8" d="M136.43,221.76l-.65,14.64"/><path class="cls-8" d="M111.62,224l-5.46,15.85"/><path class="cls-8" d="M100.65,218.85l-7.84,15.38"/><path class="cls-8" d="M106.6,207.16l-2.51,4.92"/><path class="cls-8" d="M60,158.76l-21.25,4.53"/><path class="cls-8" d="M60.15,123.41l-21.48-4.9"/><path class="cls-8" d="M62.51,134.14,46.8,132.62"/><path class="cls-8" d="M75.18,135.37l-6.1-.59"/><path class="cls-8" d="M59.91,100.22,47.68,93.9"/><line class="cls-8" x1="113.16" y1="79.35" x2="98.87" y2="46.19"/><path class="cls-8" d="M121.52,78.13,118.34,67.2"/><path class="cls-29" d="M130,61.54l-2.86-22.88"/><path class="cls-29" d="M151.15,41.9l.38-3.4"/><path class="cls-29" d="M147.38,75.73l1.79-16"/><path class="cls-29" d="M168,76,176.07,57"/><path class="cls-29" d="M186.75,80.36l4.52-5.95"/><path class="cls-29" d="M203.65,106.53l5.93-3.29"/><path class="cls-29" d="M227.36,129.47l15.57-2.2"/><path class="cls-29" d="M206.83,183.43l4.94,3.08"/><path class="cls-29" d="M201.53,201.34l13.16,12.74"/><path class="cls-29" d="M146.41,221.74l1.89,23.65"/><path class="cls-29" d="M122.08,227.09l-3.45,16.41"/><path class="cls-29" d="M115,211l-1.88,5.2"/><path class="cls-29" d="M62.78,168.71,53.16,172"/><path class="cls-29" d="M53.28,144.22l-6.86.19"/><path class="cls-29" d="M51.53,109.21l-9-3.33"/><path class="cls-29" d="M105.66,83.32,97,68.51"/><line class="cls-30" x1="220.52" y1="84.91" x2="223.97" y2="90.77"/></g></g></svg>