<svg id="Book" xmlns="http://www.w3.org/2000/svg" viewBox="0 0 136 116.64"><defs><style>.cls-1,.cls-3,.cls-4{fill:none;}.cls-1{stroke:#2887c2;}.cls-1,.cls-2,.cls-4{stroke-linejoin:round;}.cls-1,.cls-2,.cls-3,.cls-4{stroke-width:2px;}.cls-2{fill:#fff;stroke:#0a486a;}.cls-3{stroke:#dae6e8;stroke-miterlimit:10;}.cls-4{stroke:#f3714e;}.cls-5{fill:#f3714e;}</style></defs><title>book</title><polygon class="cls-1" points="108.23 94.29 64.82 94.29 22.33 94.29 22.33 33.83 108.23 33.83 108.23 94.29"/><path class="cls-2" d="M72.28,106.59l-12.17-1.9a15.41,15.41,0,0,0-2.53-.2H34.77l.12-60.21H55.62a16.32,16.32,0,0,1,4.51.63L72.5,48.47Z" transform="translate(-7 -16.68)"/><path class="cls-3" d="M40.32,51.69h15.3a16.32,16.32,0,0,1,4.51.63l7.23,2.08" transform="translate(-7 -16.68)"/><path class="cls-4" d="M40.32,59.1h15.3a16.32,16.32,0,0,1,4.51.63l7.23,2.08" transform="translate(-7 -16.68)"/><path class="cls-3" d="M40.32,66.51h15.3a16.32,16.32,0,0,1,4.51.63l7.23,2.08" transform="translate(-7 -16.68)"/><path class="cls-3" d="M40.32,73.92h15.3a16.32,16.32,0,0,1,4.51.63l7.23,2.08" transform="translate(-7 -16.68)"/><path class="cls-3" d="M40.32,81.33h15.3a16,16,0,0,1,4.51.64L67.36,84" transform="translate(-7 -16.68)"/><path class="cls-1" d="M40.32,88.74h15.3a16,16,0,0,1,4.51.64l7.23,2.07" transform="translate(-7 -16.68)"/><path class="cls-3" d="M40.32,96.15h15.3a16.33,16.33,0,0,1,4.51.64l7.23,2.07" transform="translate(-7 -16.68)"/><path class="cls-2" d="M72,106.59l12.17-1.9a15.32,15.32,0,0,1,2.53-.2h22.81l-.12-60.21H88.69a16.43,16.43,0,0,0-4.51.63L71.82,48.47Z" transform="translate(-7 -16.68)"/><path class="cls-3" d="M104,51.69H88.69a16.43,16.43,0,0,0-4.51.63L77,54.4" transform="translate(-7 -16.68)"/><path class="cls-3" d="M104,59.1H88.69a16.43,16.43,0,0,0-4.51.63L77,61.81" transform="translate(-7 -16.68)"/><path class="cls-1" d="M104,66.51H88.69a16.43,16.43,0,0,0-4.51.63L77,69.22" transform="translate(-7 -16.68)"/><path class="cls-3" d="M104,73.92H88.69a16.43,16.43,0,0,0-4.51.63L77,76.63" transform="translate(-7 -16.68)"/><path class="cls-3" d="M104,81.33H88.69a16.06,16.06,0,0,0-4.51.64L77,84" transform="translate(-7 -16.68)"/><path class="cls-4" d="M104,88.74H88.69a16.06,16.06,0,0,0-4.51.64L77,91.45" transform="translate(-7 -16.68)"/><path class="cls-3" d="M104,96.15H88.69a16.44,16.44,0,0,0-4.51.64L77,98.86" transform="translate(-7 -16.68)"/><line class="cls-4" x1="16.41" y1="10.35" x2="38.71" y2="39.24"/><circle class="cls-5" cx="14.11" cy="6.9" r="6.9"/><circle class="cls-5" cx="129.1" cy="37.95" r="6.9"/><circle class="cls-5" cx="108.55" cy="109.74" r="6.9"/><circle class="cls-5" cx="6.9" cy="91.06" r="6.9"/><line class="cls-4" x1="37.66" y1="74.8" x2="6.77" y2="89.98"/><line class="cls-4" x1="89.97" y1="46.56" x2="127.95" y2="37.95"/><line class="cls-4" x1="87.88" y1="75.85" x2="109" y2="109.82"/></svg>